//Sequence File generated by the Wall Worm SMD Exporter PRO 1.99
//www.wallworm.com
version 1
nodes
0 "b_l_clav" -1
1 "b_l_upperarm" 0
2 "b_l_forearm" 1
3 "b_l_twist3" 2
4 "b_l_twist2" 2
5 "b_l_twist1" 2
6 "b_l_hand" 2
7 "b_l_thumb001" 6
8 "b_l_thumb002" 7
9 "b_l_thumb003" 8
10 "b_l_middle001" 6
11 "b_l_middle002" 10
12 "b_l_middle003" 11
13 "b_l_index001" 6
14 "b_l_index002" 13
15 "b_l_index003" 14
16 "b_l_hand_ringsqueezer" 6
17 "b_l_ring001" 16
18 "b_l_ring002" 17
19 "b_l_ring003" 18
20 "b_l_hand_pinkysqueezer" 6
21 "b_l_pinky001" 20
22 "b_l_pinky002" 21
23 "b_l_pinky003" 22
24 "b_r_clav" -1
25 "b_r_upperarm" 24
26 "b_r_forearm" 25
27 "b_r_twist3" 26
28 "b_r_twist2" 26
29 "b_r_twist1" 26
30 "b_r_hand" 26
31 "b_r_thumb001" 30
32 "b_r_thumb002" 31
33 "b_r_thumb003" 32
34 "b_r_middle001" 30
35 "b_r_middle002" 34
36 "b_r_middle003" 35
37 "b_r_index001" 30
38 "b_r_index002" 37
39 "b_r_index003" 38
40 "b_r_hand_ringsqueezer" 30
41 "b_r_ring001" 40
42 "b_r_ring002" 41
43 "b_r_ring003" 42
44 "b_r_hand_pinkysqueezer" 30
45 "b_r_pinky001" 44
46 "b_r_pinky002" 45
47 "b_r_pinky003" 46
48 "b_zero" -1
49 "d_gun" -1
50 "d_trig" 49
51 "d_slidelock" 49
52 "d_slide" 49
53 "d_barrel" 49
54 "d_mag" -1
55 "d_magfollower" 54
56 "d_boolet" 54
end
skeleton
time 0
0 1.5572 9.20997 -3.60973 0.000934124 0 -1.06437
1 6.02794 0 0 -1.40652 0.433856 -0.795337
2 11.7344 0 0 -0.00140288 0 -0.609235
3 8.81138 -0.000449181 -0.000112057 -0.395216 0 0.000157816
4 5.77839 0.000287056 0 -0.264795 0 0.000104063
5 2.23164 -0.000329018 -0.000364065 -0.130421 0 0
6 11.4725 0 0 -0.46402 -0.174922 0.349091
7 0.615219 -0.993091 -0.8107 2.33805 -0.0433468 -0.360756
8 2.24752 0 0 0.0800335 0.130871 -0.0225879
9 1.11936 0 0 0.0688114 0.177523 -0.338114
10 3.71348 -0.102641 0.102191 1.81842 1.37508 0.188411
11 1.72615 0 0 0.0136259 -0.0250639 -0.609754
12 1.21114 0 0 0.00236707 0.0174767 -0.462832
13 3.59919 -1.06012 0.0708884 1.68096 1.17438 0.0612361
14 1.66069 0 0 -0.00987787 0.0219166 -0.64561
15 1.167 0 0 0.0379319 -0.0317196 -0.610266
16 2.18853 0.501039 0.057659 1.57003 0.153931 0.225781
17 1.2961 0 0 0.0343667 0.0550095 -1.22788
18 1.62202 0.000715256 -0.000471115 0.00441626 -0.0145794 -0.727069
19 1.22241 0 0 -0.00631663 0.017687 -0.370915
20 1.76707 1.27612 0.036641 1.57002 0.26187 0.261241
21 1.55588 0 0 -0.0324566 0.00304736 -1.18264
22 1.24274 0 0 -0.000599536 0 -0.65185
23 0.784524 0 0 0.00633937 0.00191177 -0.571831
24 -1.93761 5.60916 -3.60973 -0.000932693 0 3.14159
25 6.02794 0 0 0.968156 0.438421 1.47904
26 11.7344 0 0 0.00140272 0 0.874785
27 8.81167 0 0 -0.0157288 0 0
28 5.77884 0 0 -0.0105384 0 0
29 2.23249 0 0 -0.00519044 0 0
30 11.4725 0 0 0.258886 -0.3835 -0.647746
31 0.615814 0.994373 -0.809166 -2.75592 0.374249 0.315718
32 2.24752 0 0 -0.565214 0.197981 0.0658205
33 1.11936 0 0 -0.0549132 0.0237986 0.34886
34 3.71349 0.102639 0.102191 -1.55367 0.888575 -0.0661111
35 1.72615 0 0 -0.0121439 -0.00651261 1.19024
36 1.21112 0 0 0.0118385 0.0130726 1.33339
37 3.5992 1.06012 0.0708879 -1.53154 0.266229 0.170417
38 1.66069 0 0 0.0307887 0.0659277 0.632516
39 1.16699 0 0 0.0346484 0.0172046 0.590301
40 2.18853 -0.50104 0.0576586 -1.55151 0.172885 -0.118539
41 1.29609 0 0 -0.0200504 -0.0423274 0.631309
42 1.62202 -0.000713348 -0.000469685 -0.0284748 -0.016648 1.25494
43 1.22241 0 0 -0.00733725 0.00175434 1.23076
44 1.76707 -1.27612 0.0366399 -1.52771 0.265811 -0.101503
45 1.55588 0 0 0.0305806 -0.0879844 0.525515
46 1.24273 0 0 0.000599195 0 0.710283
47 0.784532 0 0 -0.00205818 0.00641634 0.880036
48 0 0 0 0 0 0
49 -4.60592 -19.3184 -5.2717 0 0 0
50 0 -1.51208 1.07027 0 0 0
51 0.540026 -0.371634 1.70233 0 0 0
52 0 -4.95107 2.17037 0 0 0
53 0 -2.31355 1.98216 0 0 0
54 -4.60592 -18.549 -6.10007 0 0 0
55 0 -0.769073 1.97674 0 0 0
56 0 -0.826365 2.70072 0 0 0
time 1
0 1.5572 9.20997 -3.60973 0.000934124 0 -1.06437
1 6.02794 0 0 -1.40512 0.439269 -0.795219
2 11.7344 0 0 -0.00140289 0 -0.624086
3 8.81138 -0.000449181 -0.000112772 -0.409275 0 0.000157635
4 5.77839 0.000286102 0 -0.274214 0 0.000103915
5 2.23163 -0.000328064 -0.000363588 -0.135061 0 0
6 11.4725 0 0 -0.487184 -0.168334 0.38637
7 0.615217 -0.993091 -0.8107 2.33805 -0.0433469 -0.360756
8 2.24752 0 0 0.0800335 0.130871 -0.0225881
9 1.11936 0 0 0.0688114 0.177523 -0.338114
10 3.71348 -0.102641 0.102191 1.81842 1.37508 0.188411
11 1.72615 0 0 0.0136259 -0.0250639 -0.609754
12 1.21114 0 0 0.00236699 0.0174767 -0.462832
13 3.59919 -1.06012 0.0708882 1.68096 1.17438 0.0612362
14 1.66069 0 0 -0.00987787 0.0219166 -0.64561
15 1.167 0 0 0.0379319 -0.0317196 -0.610265
16 2.18852 0.50104 0.0576593 1.57003 0.153931 0.225781
17 1.2961 0 0 0.0343667 0.0550094 -1.22788
18 1.62202 0.000713348 -0.000470638 0.00441617 -0.0145795 -0.727069
19 1.22241 0 0 -0.00631658 0.017687 -0.370915
20 1.76707 1.27612 0.036641 1.57002 0.26187 0.261241
21 1.55588 0 0 -0.0324566 0.00304736 -1.18264
22 1.24274 0 0 -0.000599461 0 -0.65185
23 0.784522 0 0 0.00633924 0.00191176 -0.571831
24 -1.93761 5.60916 -3.60973 -0.000932693 0 3.14159
25 6.02794 0 0 0.970115 0.43441 1.47926
26 11.7344 0 0 0.00140267 0 0.878188
27 8.81167 0 0 -0.032136 0 0
28 5.77884 0 0 -0.0215313 0 0
29 2.23249 0 0 -0.010605 0 0
30 11.4725 0 0 0.245071 -0.367067 -0.677273
31 0.615814 0.994373 -0.809166 -2.75592 0.374249 0.315718
32 2.24752 0 0 -0.565214 0.197981 0.0658204
33 1.11936 0 0 -0.0549134 0.0237984 0.34886
34 3.71349 0.102639 0.10219 -1.55367 0.888575 -0.0661109
35 1.72615 0 0 -0.0121439 -0.00651271 1.19024
36 1.21112 0 0 0.0118386 0.0130726 1.33339
37 3.5992 1.06012 0.0708876 -1.53154 0.266229 0.170417
38 1.66069 0 0 0.0415952 0.0601989 0.789881
39 1.16699 0 0 0.0357827 0.0116056 0.74737
40 2.18853 -0.50104 0.0576586 -1.55151 0.172885 -0.118539
41 1.29609 0 0 -0.0200504 -0.0423275 0.631309
42 1.62201 -0.000713348 -0.000469685 -0.0284747 -0.0166479 1.25494
43 1.22241 0 0 -0.00733727 0.00175436 1.23076
44 1.76707 -1.27612 0.0366405 -1.52771 0.265811 -0.101503
45 1.55588 0 0 0.0305807 -0.0879844 0.525515
46 1.24273 0 0 0.000599208 0 0.710283
47 0.784531 0 0 -0.00205812 0.00641633 0.880036
48 0 0 0 0 0 0
49 -4.60226 -19.3038 -5.28107 0.0305456 0.012857 0.000392835
50 0 -1.50715 1.083 0.153348 0 0
51 0.540026 -0.371632 1.70233 0 0 0
52 0 -4.26864 2.17037 0 0 0
53 0 -2.24599 1.94401 -0.0209638 0 0
54 -4.61291 -18.5095 -6.0855 0.0305456 0.012857 0.000392835
55 0 -0.769073 1.97674 0 0 0
56 0 -0.826365 2.70072 0 0 0
time 2
0 1.5572 9.20997 -3.60973 0.000934124 0 -1.06437
1 6.02794 0 0 -1.37378 0.576376 -0.780171
2 11.7344 0 0 -0.00140286 0 -0.872176
3 8.81138 -0.000450134 -0.000112534 -0.353129 0 0.000157993
4 5.77839 0.000286102 0 -0.236596 0 0.000104311
5 2.23163 -0.000329018 -0.000364065 -0.116533 0 0
6 11.4725 0 0 -0.44654 -0.212668 0.396279
7 0.615221 -0.993091 -0.8107 2.33805 -0.043347 -0.360756
8 2.24752 0 0 0.0800336 0.130871 -0.0225881
9 1.11935 0 0 0.0688116 0.177523 -0.338114
10 3.71348 -0.102641 0.102191 1.81842 1.37508 0.188411
11 1.72615 0 0 0.0136259 -0.0250639 -0.609754
12 1.21114 0 0 0.00236704 0.0174767 -0.462832
13 3.59919 -1.06012 0.0708878 1.68096 1.17438 0.0612364
14 1.66069 0 0 -0.00987789 0.0219166 -0.64561
15 1.167 0 0 0.0379319 -0.0317196 -0.610266
16 2.18852 0.50104 0.057659 1.57003 0.153932 0.225781
17 1.29609 0 0 0.0343667 0.0550094 -1.22788
18 1.62202 0.000713348 -0.000471592 0.00441622 -0.0145794 -0.727069
19 1.22241 0 0 -0.00631657 0.017687 -0.370915
20 1.76707 1.27612 0.0366409 1.57002 0.26187 0.261241
21 1.55588 0 0 -0.0324567 0.0030473 -1.18264
22 1.24273 0 0 -0.000599442 0 -0.65185
23 0.784524 0 0 0.00633934 0.0019116 -0.571831
24 -1.93761 5.60916 -3.60973 -0.000932693 0 3.14159
25 6.02794 0 0 0.919516 0.550069 1.40767
26 11.7344 0 0 0.00140271 0 1.10534
27 8.81167 0 0 -0.0608306 0 0
28 5.77884 0 0 -0.0407564 0 0
29 2.23249 0 0 -0.0200742 0 0
30 11.4725 0 0 0.274233 -0.443112 -0.688173
31 0.615814 0.994372 -0.809166 -2.75592 0.374249 0.315718
32 2.24752 0 0 -0.565214 0.197981 0.0658205
33 1.11936 0 0 -0.0549132 0.0237985 0.34886
34 3.71349 0.10264 0.102191 -1.55367 0.888575 -0.0661109
35 1.72615 0 0 -0.0121439 -0.00651265 1.19024
36 1.21112 0 0 0.0118386 0.0130726 1.33339
37 3.5992 1.06012 0.0708886 -1.53154 0.266229 0.170417
38 1.66069 0 0 0.0513654 0.0528512 0.947116
39 1.16699 0 0 0.0358595 0.00548183 0.90441
40 2.18853 -0.50104 0.057659 -1.55151 0.172885 -0.118539
41 1.29609 0 0 -0.0200504 -0.0423275 0.631309
42 1.62202 -0.000712395 -0.000469685 -0.0284748 -0.0166479 1.25494
43 1.22241 0 0 -0.00733728 0.00175437 1.23076
44 1.76707 -1.27612 0.0366409 -1.52771 0.265811 -0.101503
45 1.55588 0 0 0.0305806 -0.0879844 0.525515
46 1.24273 0 0 0.000599197 0 0.710283
47 0.784532 0 0 -0.00205815 0.00641635 0.880036
48 0 0 0 0 0 0
49 -4.60592 -17.9935 -5.2717 -0.0797672 -0.0101309 0.000809808
50 0 -1.50025 1.10082 0.306695 0 0
51 0.540026 -0.371635 1.70233 0 0 0
52 0 -3.13126 2.17037 0 0 0
53 0 -2.17842 1.90586 -0.0419277 0 0
54 -4.59751 -17.2926 -6.1587 -0.0797672 -0.0101309 0.000809808
55 0 -0.769075 1.97674 0 0 0
56 0 -0.826365 2.70072 0 0 0
time 3
0 1.5572 9.20997 -3.60973 0.000934124 0 -1.06437
1 6.02794 0 0 -1.36421 0.600418 -0.778431
2 11.7344 0 0 -0.00140279 0 -0.915663
3 8.81138 -0.000449181 -0.000112534 -0.330695 0 0.000158016
4 5.77839 0.000286102 0 -0.221566 0 0.000104556
5 2.23163 -0.000329018 -0.000364304 -0.109129 0 0
6 11.4725 0 0 -0.422122 -0.243444 0.365958
7 0.615219 -0.993091 -0.8107 2.33805 -0.0433469 -0.360756
8 2.24752 0 0 0.0800334 0.130871 -0.0225881
9 1.11936 0 0 0.0688116 0.177523 -0.338114
10 3.71348 -0.102642 0.102191 1.81842 1.37508 0.188411
11 1.72615 0 0 0.0136258 -0.0250638 -0.609754
12 1.21114 0 0 0.002367 0.0174767 -0.462832
13 3.59919 -1.06012 0.0708879 1.68096 1.17438 0.0612362
14 1.66069 0 0 -0.00987788 0.0219166 -0.64561
15 1.167 0 0 0.0379319 -0.0317196 -0.610266
16 2.18853 0.50104 0.057659 1.57003 0.153931 0.225781
17 1.29609 0 0 0.0343667 0.0550094 -1.22788
18 1.62202 0.000713348 -0.000471115 0.00441624 -0.0145794 -0.727069
19 1.22241 0 0 -0.00631655 0.017687 -0.370915
20 1.76707 1.27612 0.036641 1.57002 0.26187 0.261241
21 1.55588 0 0 -0.0324566 0.0030473 -1.18264
22 1.24273 0 0 -0.00059948 0 -0.65185
23 0.784523 0 0 0.00633931 0.00191178 -0.571831
24 -1.93761 5.60916 -3.60973 -0.000932693 0 3.14159
25 6.02794 0 0 0.905285 0.577198 1.38659
26 11.7344 0 0 0.00140272 0 1.15247
27 8.81167 0 0 -0.0476843 0 0
28 5.77884 0 0 -0.0319485 0 0
29 2.23249 0 0 -0.0157358 0 0
30 11.4725 0 0 0.279138 -0.464429 -0.649556
31 0.615814 0.994372 -0.809165 -2.75592 0.374248 0.315718
32 2.24752 0 0 -0.565214 0.197981 0.0658204
33 1.11936 0 0 -0.0549133 0.0237985 0.34886
34 3.71349 0.102639 0.102191 -1.55367 0.888575 -0.066111
35 1.72615 0 0 -0.0121439 -0.00651265 1.19024
36 1.21112 0 0 0.0118385 0.0130726 1.33339
37 3.5992 1.06012 0.0708885 -1.53154 0.266228 0.170417
38 1.66069 0 0 0.0513653 0.0528513 0.947117
39 1.16699 0 0 0.0358595 0.00548183 0.90441
40 2.18853 -0.50104 0.0576595 -1.55151 0.172885 -0.118539
41 1.29609 0 0 -0.0200504 -0.0423274 0.631309
42 1.62202 -0.000712395 -0.000469685 -0.0284748 -0.016648 1.25494
43 1.22241 0 0 -0.00733726 0.00175435 1.23076
44 1.76707 -1.27612 0.0366409 -1.52771 0.265811 -0.101503
45 1.55587 0 0 0.0305806 -0.0879843 0.525515
46 1.24273 0 0 0.000599211 0 0.710283
47 0.784531 0 0 -0.00205815 0.00641634 0.880036
48 0 0 0 0 0 0
49 -4.63416 -17.6689 -5.19668 -0.135544 -0.0210822 0.0149634
50 0 -1.49729 1.10846 0.306695 0 0
51 0.540026 -0.371634 1.70233 0 0 0
52 0 -3.13126 2.17037 0 0 0
53 0 -2.17842 1.90586 -0.0419277 0 0
54 -4.6244 -17.0183 -6.12123 -0.135544 -0.0210822 0.0149634
55 0 -0.76907 1.97674 0 0 0
56 0 -0.826361 2.70072 0 0 0
time 4
0 1.5572 9.20997 -3.60973 0.000934124 0 -1.06437
1 6.02794 0 0 -1.37487 0.554274 -0.786572
2 11.7344 0 0 -0.00140293 0 -0.832564
3 8.81138 -0.000450134 -0.00011158 -0.331162 0 0.000158055
4 5.77839 0.000286102 0 -0.221878 0 0.000104506
5 2.23163 -0.000329971 -0.000364065 -0.109283 0 0
6 11.4725 0 0 -0.405925 -0.256613 0.308313
7 0.615219 -0.993091 -0.8107 2.33805 -0.0433468 -0.360756
8 2.24752 0 0 0.0800334 0.130871 -0.0225881
9 1.11936 0 0 0.0688116 0.177523 -0.338114
10 3.71348 -0.102641 0.102191 1.81842 1.37508 0.188411
11 1.72615 0 0 0.0136259 -0.0250638 -0.609754
12 1.21114 0 0 0.00236704 0.0174766 -0.462832
13 3.59919 -1.06012 0.0708879 1.68096 1.17438 0.0612364
14 1.66069 0 0 -0.0098779 0.0219166 -0.64561
15 1.167 0 0 0.0379319 -0.0317195 -0.610265
16 2.18852 0.50104 0.0576594 1.57003 0.153931 0.225781
17 1.29609 0 0 0.0343667 0.0550095 -1.22788
18 1.62202 0.000713348 -0.000471115 0.00441625 -0.0145794 -0.72707
19 1.22241 0 0 -0.00631656 0.0176869 -0.370915
20 1.76707 1.27612 0.0366412 1.57002 0.26187 0.261241
21 1.55588 0 0 -0.0324566 0.00304735 -1.18264
22 1.24274 0 0 -0.000599461 0 -0.65185
23 0.784523 0 0 0.00633935 0.0019117 -0.571831
24 -1.93761 5.60916 -3.60973 -0.000932693 0 3.14159
25 6.02794 0 0 0.921272 0.549262 1.40302
26 11.7344 0 0 0.00140273 0 1.08672
27 8.81167 0 0 -0.00887415 0 0
28 5.77884 0 0 -0.00594563 0 0
29 2.23249 0 0 -0.00292838 0 0
30 11.4725 0 0 0.274152 -0.455131 -0.584421
31 0.615813 0.994372 -0.809165 -2.75592 0.374249 0.315718
32 2.24752 0 0 -0.565215 0.197981 0.0658204
33 1.11936 0 0 -0.0549133 0.0237986 0.34886
34 3.71348 0.102639 0.102191 -1.55366 0.888575 -0.0661107
35 1.72615 0 0 -0.0121439 -0.00651261 1.19024
36 1.21112 0 0 0.0118385 0.0130726 1.33339
37 3.5992 1.06012 0.070888 -1.53154 0.266229 0.170417
38 1.66069 0 0 0.0513654 0.0528512 0.947117
39 1.16699 0 0 0.0358595 0.00548175 0.90441
40 2.18853 -0.501041 0.0576586 -1.55151 0.172885 -0.118539
41 1.29609 0 0 -0.0200505 -0.0423274 0.631309
42 1.62201 -0.000712395 -0.000470161 -0.0284748 -0.0166479 1.25494
43 1.22241 0 0 -0.00733728 0.00175438 1.23076
44 1.76707 -1.27612 0.03664 -1.52771 0.265811 -0.101503
45 1.55588 0 0 0.0305806 -0.0879844 0.525515
46 1.24273 0 0 0.00059921 0 0.710283
47 0.784532 0 0 -0.00205816 0.00641633 0.880036
48 0 0 0 0 0 0
49 -4.67891 -18.082 -5.07949 -0.158787 -0.0246701 0.0303578
50 0 -1.49631 1.11101 0.306695 0 0
51 0.540026 -0.371637 1.70232 0 0 0
52 0 -3.13126 2.17037 0 0 0
53 0 -2.17842 1.90586 -0.0419277 0 0
54 -4.67483 -17.4528 -6.01882 -0.158787 -0.0246701 0.0303578
55 0 -0.769073 1.97674 0 0 0
56 0 -0.826365 2.70072 0 0 0
time 5
0 1.5572 9.20997 -3.60973 0.000934124 0 -1.06437
1 6.02794 0 0 -1.38562 0.506619 -0.793164
2 11.7344 0 0 -0.00140283 0 -0.74676
3 8.81138 -0.000450134 -0.000112295 -0.340454 0 0.000158272
4 5.77839 0.000286102 0 -0.228104 0 0.000104533
5 2.23163 -0.000329971 -0.000364065 -0.11235 0 0
6 11.4725 0 0 -0.400381 -0.250781 0.266018
7 0.615219 -0.993092 -0.8107 2.33805 -0.0433467 -0.360756
8 2.24752 0 0 0.0800336 0.130871 -0.022588
9 1.11935 0 0 0.0688115 0.177523 -0.338114
10 3.71348 -0.102641 0.102191 1.81842 1.37508 0.188411
11 1.72615 0 0 0.0136259 -0.0250639 -0.609754
12 1.21113 0 0 0.002367 0.0174767 -0.462832
13 3.59919 -1.06012 0.0708879 1.68096 1.17438 0.0612366
14 1.66069 0 0 -0.00987789 0.0219166 -0.64561
15 1.167 0 0 0.0379319 -0.0317195 -0.610265
16 2.18852 0.50104 0.057659 1.57003 0.153931 0.225781
17 1.29609 0 0 0.0343666 0.0550095 -1.22788
18 1.62202 0.000713348 -0.000471354 0.00441619 -0.0145794 -0.727069
19 1.22241 0 0 -0.00631651 0.017687 -0.370915
20 1.76707 1.27612 0.036641 1.57002 0.26187 0.261241
21 1.55588 0 0 -0.0324566 0.0030473 -1.18264
22 1.24273 0 0 -0.000599471 0 -0.65185
23 0.784523 0 0 0.00633939 0.00191174 -0.571831
24 -1.93761 5.60916 -3.60973 -0.000932693 0 3.14159
25 6.02794 0 0 0.936954 0.517997 1.42285
26 11.7344 0 0 0.00140272 0 1.02004
27 8.81167 0 0 0.0107034 0 0
28 5.77884 0 0 0.0071712 0 0
29 2.23249 0 0 0.00353211 0 0
30 11.4725 0 0 0.270083 -0.44942 -0.548633
31 0.615812 0.994373 -0.809166 -2.75592 0.374249 0.315718
32 2.24752 0 0 -0.565214 0.197981 0.0658203
33 1.11936 0 0 -0.0549132 0.0237985 0.34886
34 3.71348 0.10264 0.102191 -1.55366 0.888575 -0.0661107
35 1.72615 0 0 -0.0121439 -0.00651263 1.19024
36 1.21112 0 0 0.0118385 0.0130726 1.33339
37 3.5992 1.06012 0.070888 -1.53154 0.266229 0.170417
38 1.66069 0 0 0.0513654 0.0528512 0.947116
39 1.16699 0 0 0.0358594 0.00548179 0.904411
40 2.18853 -0.50104 0.0576587 -1.55151 0.172885 -0.118539
41 1.29609 0 0 -0.0200505 -0.0423274 0.631309
42 1.62202 -0.000715256 -0.000469685 -0.0284748 -0.0166479 1.25494
43 1.22241 0 0 -0.00733728 0.00175434 1.23076
44 1.76707 -1.27612 0.0366402 -1.52771 0.265812 -0.101503
45 1.55587 0 0 0.0305806 -0.0879843 0.525515
46 1.24273 0 0 0.000599214 0 0.710283
47 0.784531 0 0 -0.00205818 0.0064163 0.880036
48 0 0 0 0 0 0
49 -4.71598 -18.4886 -4.9905 -0.161818 -0.023944 0.0307192
50 0 -1.49729 1.10846 0.306695 0 0
51 0.540026 -0.371632 1.70233 0 0 0
52 0 -3.13126 2.17037 0 0 0
53 0 -2.17842 1.90586 -0.0419277 0 0
54 -4.71267 -17.8623 -5.93175 -0.161818 -0.023944 0.0307192
55 0 -0.769072 1.97674 0 0 0
56 0 -0.826363 2.70072 0 0 0
time 6
0 1.5572 9.20997 -3.60973 0.000934124 0 -1.06437
1 6.02794 0 0 -1.3895 0.489094 -0.795142
2 11.7344 0 0 -0.00140281 0 -0.71881
3 8.81139 -0.000449181 -0.000112295 -0.353608 0 0.000157969
4 5.77839 0.000287056 0 -0.236917 0 0.000104389
5 2.23164 -0.000329018 -0.000363588 -0.116691 0 0
6 11.4725 0 0 -0.413864 -0.234391 0.276988
7 0.615219 -0.993091 -0.8107 2.33805 -0.0433467 -0.360756
8 2.24752 0 0 0.0800335 0.130871 -0.0225879
9 1.11936 0 0 0.0688114 0.177523 -0.338114
10 3.71348 -0.102641 0.102191 1.81842 1.37508 0.188411
11 1.72615 0 0 0.0136259 -0.0250639 -0.609754
12 1.21114 0 0 0.00236703 0.0174767 -0.462832
13 3.59919 -1.06012 0.0708878 1.68096 1.17438 0.0612363
14 1.66069 0 0 -0.00987789 0.0219167 -0.64561
15 1.167 0 0 0.0379319 -0.0317196 -0.610266
16 2.18852 0.501039 0.057659 1.57003 0.153931 0.225781
17 1.29609 0 0 0.0343668 0.0550094 -1.22788
18 1.62202 0.000713348 -0.000471592 0.00441622 -0.0145794 -0.727069
19 1.22241 0 0 -0.0063166 0.017687 -0.370915
20 1.76707 1.27612 0.0366405 1.57002 0.26187 0.261241
21 1.55588 0 0 -0.0324565 0.00304728 -1.18264
22 1.24274 0 0 -0.000599442 0 -0.65185
23 0.784523 0 0 0.00633937 0.00191171 -0.571831
24 -1.93761 5.60916 -3.60973 -0.000932693 0 3.14159
25 6.02794 0 0 0.944262 0.502463 1.43203
26 11.7344 0 0 0.00140268 0 0.997104
27 8.81167 0 0 -0.000895947 0 0
28 5.77884 0 0 -0.000600159 0 0
29 2.23249 0 0 -0.000295579 0 0
30 11.4725 0 0 0.265343 -0.44179 -0.567767
31 0.615812 0.994373 -0.809165 -2.75592 0.374249 0.315718
32 2.24752 0 0 -0.565214 0.197981 0.0658204
33 1.11936 0 0 -0.0549133 0.0237984 0.34886
34 3.71349 0.10264 0.102191 -1.55367 0.888575 -0.066111
35 1.72615 0 0 -0.0121438 -0.00651262 1.19024
36 1.21112 0 0 0.0118386 0.0130726 1.33339
37 3.5992 1.06012 0.0708885 -1.53154 0.266229 0.170417
38 1.66069 0 0 0.0513654 0.0528511 0.947116
39 1.16699 0 0 0.0358595 0.00548179 0.90441
40 2.18853 -0.50104 0.0576594 -1.55151 0.172885 -0.118539
41 1.29609 0 0 -0.0200504 -0.0423275 0.631309
42 1.62202 -0.000714302 -0.000470161 -0.0284748 -0.0166479 1.25494
43 1.22241 0 0 -0.00733731 0.00175436 1.23076
44 1.76707 -1.27612 0.0366411 -1.52771 0.265812 -0.101503
45 1.55588 0 0 0.0305806 -0.0879844 0.525515
46 1.24273 0 0 0.000599178 0 0.710283
47 0.784531 0 0 -0.00205814 0.00641634 0.880036
48 0 0 0 0 0 0
49 -4.73527 -18.645 -4.96393 -0.137303 -0.017346 0.0202131
50 0 -1.50025 1.10082 0.306695 0 0
51 0.540026 -0.371634 1.70233 0 0 0
52 0 -4.04117 2.17037 0 0 0
53 0 -2.24599 1.94401 -0.0209638 0 0
54 -4.73233 -17.996 -5.88969 -0.137303 -0.017346 0.0202131
55 0 -0.769072 1.97674 0 0 0
56 0 -1.63128 2.91388 -0.325153 0 0
time 7
0 1.5572 9.20997 -3.60973 0.000934124 0 -1.06437
1 6.02794 0 0 -1.39339 0.473924 -0.796197
2 11.7344 0 0 -0.00140284 0 -0.694199
3 8.81139 -0.000450134 -0.000112534 -0.371578 0 0.000157554
4 5.77839 0.000286102 0 -0.248958 0 0.000104047
5 2.23163 -0.000329018 -0.000364065 -0.122621 0 0
6 11.4725 0 0 -0.43392 -0.209825 0.300115
7 0.615219 -0.993092 -0.8107 2.33805 -0.0433468 -0.360756
8 2.24752 0 0 0.0800336 0.130871 -0.022588
9 1.11936 0 0 0.0688114 0.177523 -0.338114
10 3.71348 -0.102641 0.102191 1.81842 1.37508 0.18841
11 1.72615 0 0 0.0136259 -0.0250639 -0.609754
12 1.21114 0 0 0.00236707 0.0174766 -0.462832
13 3.59919 -1.06012 0.0708878 1.68096 1.17438 0.0612358
14 1.66069 0 0 -0.0098779 0.0219167 -0.64561
15 1.167 0 0 0.0379319 -0.0317196 -0.610265
16 2.18853 0.50104 0.0576591 1.57003 0.153931 0.225781
17 1.29609 0 0 0.0343667 0.0550095 -1.22788
18 1.62202 0.000715256 -0.000470161 0.0044162 -0.0145794 -0.727069
19 1.22241 0 0 -0.00631652 0.017687 -0.370915
20 1.76707 1.27612 0.0366411 1.57002 0.26187 0.261241
21 1.55588 0 0 -0.0324566 0.00304728 -1.18264
22 1.24274 0 0 -0.000599461 0 -0.65185
23 0.784523 0 0 0.0063394 0.00191165 -0.571831
24 -1.93761 5.60916 -3.60973 -0.000932693 0 3.14159
25 6.02794 0 0 0.951345 0.486001 1.44265
26 11.7344 0 0 0.00140258 0 0.973907
27 8.81167 0 0 -0.0207515 0 0
28 5.77884 0 0 -0.0139035 0 0
29 2.23249 0 0 -0.00684802 0 0
30 11.4725 0 0 0.259487 -0.433051 -0.601996
31 0.615813 0.994372 -0.809165 -2.75592 0.374249 0.315718
32 2.24752 0 0 -0.565214 0.197981 0.0658205
33 1.11936 0 0 -0.0549134 0.0237986 0.34886
34 3.71349 0.102639 0.102191 -1.55367 0.888575 -0.0661112
35 1.72615 0 0 -0.0121439 -0.00651264 1.19024
36 1.21112 0 0 0.0118384 0.0130726 1.33339
37 3.5992 1.06012 0.0708882 -1.53154 0.266229 0.170417
38 1.66069 0 0 0.0415953 0.0601989 0.789881
39 1.16699 0 0 0.0357826 0.0116057 0.74737
40 2.18853 -0.501041 0.0576594 -1.55151 0.172885 -0.118539
41 1.29609 0 0 -0.0200504 -0.0423275 0.631309
42 1.62202 -0.000713348 -0.000469685 -0.0284748 -0.0166479 1.25494
43 1.22241 0 0 -0.00733731 0.00175438 1.23076
44 1.76707 -1.27612 0.0366404 -1.52771 0.265811 -0.101503
45 1.55588 0 0 0.0305806 -0.0879844 0.525515
46 1.24273 0 0 0.000599206 0 0.710283
47 0.784532 0 0 -0.00205811 0.00641637 0.880036
48 0 0 0 0 0 0
49 -4.74487 -18.7992 -4.97632 -0.0997631 -0.00731211 0.00450602
50 0 -1.50715 1.083 0.153348 0 0
51 0.540026 -0.371632 1.70233 0 0 0
52 0 -4.95107 2.17037 0 0 0
53 0 -2.31355 1.98216 0 0 0
54 -4.74136 -18.1161 -5.87719 -0.0997631 -0.00731211 0.00450602
55 0 -0.769072 1.97674 0 0 0
56 0 -2.56341 3.06229 0 0 0
time 8
0 1.5572 9.20997 -3.60973 0.000934124 0 -1.06437
1 6.02794 0 0 -1.39714 0.459295 -0.797005
2 11.7344 0 0 -0.00140281 0 -0.668199
3 8.81139 -0.000450134 -0.000112295 -0.390266 0 0.00015776
4 5.77839 0.000286102 0 -0.261478 0 0.00010395
5 2.23164 -0.000329971 -0.000363827 -0.128788 0 0
6 11.4725 0 0 -0.452914 -0.185 0.319345
7 0.615221 -0.993091 -0.8107 2.33805 -0.0433468 -0.360756
8 2.24752 0 0 0.0800335 0.130871 -0.022588
9 1.11935 0 0 0.0688114 0.177523 -0.338114
10 3.71348 -0.102641 0.102191 1.81843 1.37508 0.188413
11 1.72615 0 0 0.0136259 -0.0250639 -0.609754
12 1.21114 0 0 0.002367 0.0174767 -0.462832
13 3.59919 -1.06012 0.070888 1.68096 1.17438 0.0612365
14 1.66069 0 0 -0.0098779 0.0219166 -0.64561
15 1.167 0 0 0.0379319 -0.0317196 -0.610266
16 2.18853 0.50104 0.0576591 1.57003 0.153931 0.225781
17 1.29609 0 0 0.0343667 0.0550094 -1.22788
18 1.62202 0.000711441 -0.000471115 0.00441631 -0.0145794 -0.727069
19 1.22241 0 0 -0.00631655 0.017687 -0.370915
20 1.76707 1.27612 0.0366409 1.57002 0.26187 0.261241
21 1.55588 0 0 -0.0324567 0.00304737 -1.18264
22 1.24274 0 0 -0.000599442 0 -0.65185
23 0.784524 0 0 0.00633929 0.00191171 -0.571831
24 -1.93761 5.60916 -3.60973 -0.000932693 0 3.14159
25 6.02794 0 0 0.957465 0.470489 1.45333
26 11.7344 0 0 0.00140266 0 0.949959
27 8.81167 0 0 -0.0398582 0 0
28 5.77884 0 0 -0.026705 0 0
29 2.23249 0 0 -0.0131531 0 0
30 11.4725 0 0 0.25314 -0.426303 -0.633529
31 0.615813 0.994373 -0.809166 -2.75592 0.374249 0.315718
32 2.24752 0 0 -0.565214 0.197981 0.0658202
33 1.11936 0 0 -0.0549132 0.0237986 0.34886
34 3.71349 0.10264 0.102191 -1.55367 0.888575 -0.0661112
35 1.72615 0 0 -0.0121439 -0.00651265 1.19024
36 1.21112 0 0 0.0118385 0.0130726 1.33339
37 3.5992 1.06012 0.0708877 -1.53154 0.266229 0.170417
38 1.66069 0 0 0.0307887 0.0659277 0.632516
39 1.16699 0 0 0.0346484 0.0172046 0.590301
40 2.18853 -0.50104 0.0576588 -1.55151 0.172885 -0.118539
41 1.29609 0 0 -0.0200505 -0.0423275 0.631309
42 1.62202 -0.000712395 -0.000469685 -0.0284747 -0.0166478 1.25494
43 1.22241 0 0 -0.00733727 0.00175433 1.23076
44 1.76707 -1.27612 0.036641 -1.52771 0.265811 -0.101503
45 1.55588 0 0 0.0305806 -0.0879844 0.525515
46 1.24273 0 0 0.000599177 0 0.710283
47 0.784531 0 0 -0.00205814 0.00641634 0.880036
48 0 0 0 0 0 0
49 -4.74779 -18.9449 -5.01154 -0.0637208 0.00372155 -0.0107353
50 0 -1.51208 1.07027 0 0 0
51 0.540026 -0.371632 1.70233 0 0 0
52 0 -4.95107 2.17037 0 0 0
53 0 -2.31355 1.98216 0 0 0
54 -4.74337 -18.2298 -5.88723 -0.0637208 0.00372155 -0.0107353
55 0 -0.769073 1.97674 0 0 0
56 0 -2.56341 3.06229 0 0 0
time 9
0 1.5572 9.20997 -3.60973 0.000934124 0 -1.06437
1 6.02794 0 0 -1.40021 0.445172 -0.798079
2 11.7344 0 0 -0.00140298 0 -0.639429
3 8.81139 -0.000449181 -0.000112057 -0.405871 0 0.0001579
4 5.77839 0.000287056 0 -0.271934 0 0.000104078
5 2.23163 -0.000329018 -0.000364304 -0.133938 0 0
6 11.4725 0 0 -0.465472 -0.169302 0.320752
7 0.615221 -0.993091 -0.8107 2.33805 -0.0433467 -0.360756
8 2.24752 0 0 0.0800335 0.130871 -0.022588
9 1.11936 0 0 0.0688114 0.177523 -0.338114
10 3.71348 -0.102641 0.102191 1.81842 1.37508 0.188409
11 1.72615 0 0 0.0136259 -0.0250639 -0.609754
12 1.21114 0 0 0.00236703 0.0174767 -0.462832
13 3.59919 -1.06012 0.0708882 1.68096 1.17438 0.0612362
14 1.66069 0 0 -0.0098779 0.0219166 -0.64561
15 1.167 0 0 0.0379319 -0.0317196 -0.610266
16 2.18852 0.50104 0.057659 1.57003 0.153931 0.225781
17 1.29609 0 0 0.0343667 0.0550095 -1.22788
18 1.62202 0.000713348 -0.000471115 0.00441621 -0.0145794 -0.727069
19 1.22241 0 0 -0.00631654 0.0176869 -0.370915
20 1.76707 1.27612 0.0366408 1.57002 0.26187 0.261241
21 1.55588 0 0 -0.0324566 0.00304729 -1.18264
22 1.24274 0 0 -0.000599433 0 -0.65185
23 0.784523 0 0 0.00633938 0.00191171 -0.571831
24 -1.93761 5.60916 -3.60973 -0.000932693 0 3.14159
25 6.02794 0 0 0.961958 0.458064 1.46251
26 11.7344 0 0 0.00140283 0 0.925289
27 8.81167 0 0 -0.0504927 0 0
28 5.77884 0 0 -0.03383 0 0
29 2.23249 0 0 -0.0166627 0 0
30 11.4725 0 0 0.246425 -0.424135 -0.644258
31 0.615814 0.994372 -0.809166 -2.75592 0.374248 0.315717
32 2.24752 0 0 -0.565215 0.197981 0.0658202
33 1.11936 0 0 -0.0549133 0.0237985 0.34886
34 3.71349 0.102639 0.102191 -1.55367 0.888575 -0.0661111
35 1.72615 0 0 -0.0121439 -0.00651263 1.19024
36 1.21112 0 0 0.0118384 0.0130726 1.33339
37 3.5992 1.06012 0.0708882 -1.53154 0.266228 0.170417
38 1.66069 0 0 0.0307886 0.0659277 0.632516
39 1.16699 0 0 0.0346484 0.0172046 0.590301
40 2.18853 -0.501041 0.0576589 -1.55151 0.172885 -0.118539
41 1.29609 0 0 -0.0200505 -0.0423274 0.631309
42 1.62202 -0.000714302 -0.000470161 -0.0284747 -0.0166479 1.25494
43 1.22241 0 0 -0.00733722 0.00175433 1.23076
44 1.76707 -1.27612 0.0366403 -1.52771 0.265811 -0.101503
45 1.55588 0 0 0.0305806 -0.0879844 0.525515
46 1.24273 0 0 0.000599216 0 0.710283
47 0.784532 0 0 -0.00205811 0.00641637 0.880036
48 0 0 0 0 0 0
49 -4.74707 -19.0754 -5.05347 -0.0436978 0.013319 -0.0198441
50 0 -1.51208 1.07027 0 0 0
51 0.540026 -0.371635 1.70233 0 0 0
52 0 -4.95107 2.17037 0 0 0
53 0 -2.31355 1.98216 0 0 0
54 -4.744 -18.3428 -5.91459 -0.0436978 0.013319 -0.0198441
55 0 -0.769075 1.97674 0 0 0
56 0 -2.56341 3.06229 0 0 0
time 10
0 1.5572 9.20997 -3.60973 0.000934124 0 -1.06437
1 6.02794 0 0 -1.40224 0.431573 -0.799807
2 11.7344 0 0 -0.00140288 0 -0.608397
3 8.81139 -0.000449181 -0.000112295 -0.420511 0 0.000157983
4 5.77839 0.000287056 0 -0.281742 0 0.000104075
5 2.23163 -0.000329018 -0.000364065 -0.138769 0 0
6 11.4725 0 0 -0.474184 -0.164863 0.302393
7 0.615221 -0.993091 -0.8107 2.33805 -0.0433469 -0.360756
8 2.24752 0 0 0.0800334 0.130871 -0.0225881
9 1.11936 0 0 0.0688114 0.177523 -0.338114
10 3.71348 -0.102641 0.102191 1.81842 1.37508 0.188411
11 1.72615 0 0 0.0136259 -0.0250639 -0.609754
12 1.21114 0 0 0.00236701 0.0174767 -0.462832
13 3.59919 -1.06012 0.070888 1.68096 1.17438 0.0612366
14 1.66069 0 0 -0.00987786 0.0219166 -0.64561
15 1.167 0 0 0.0379319 -0.0317196 -0.610266
16 2.18852 0.50104 0.0576588 1.57003 0.153931 0.225781
17 1.29609 0 0 0.0343668 0.0550094 -1.22788
18 1.62202 0.000711441 -0.000471592 0.00441627 -0.0145794 -0.727069
19 1.22241 0 0 -0.00631662 0.017687 -0.370915
20 1.76707 1.27612 0.0366408 1.57002 0.26187 0.261241
21 1.55588 0 0 -0.0324567 0.00304724 -1.18264
22 1.24274 0 0 -0.000599452 0 -0.65185
23 0.784523 0 0 0.00633938 0.00191171 -0.571831
24 -1.93761 5.60916 -3.60973 -0.000932693 0 3.14159
25 6.02794 0 0 0.964624 0.450084 1.46887
26 11.7344 0 0 0.00140266 0 0.903766
27 8.81167 0 0 -0.0554776 0 0
28 5.77884 0 0 -0.0371699 0 0
29 2.23249 0 0 -0.0183076 0 0
30 11.4725 0 0 0.236432 -0.426992 -0.632609
31 0.615815 0.994373 -0.809165 -2.75592 0.374249 0.315718
32 2.24752 0 0 -0.565214 0.197981 0.0658203
33 1.11936 0 0 -0.0549134 0.0237986 0.34886
34 3.71349 0.10264 0.102191 -1.55367 0.888575 -0.066111
35 1.72615 0 0 -0.0121439 -0.00651266 1.19024
36 1.21112 0 0 0.0118384 0.0130726 1.33339
37 3.5992 1.06012 0.070888 -1.53154 0.266229 0.170417
38 1.66069 0 0 0.0307887 0.0659277 0.632516
39 1.16699 0 0 0.0346484 0.0172046 0.590301
40 2.18853 -0.50104 0.0576589 -1.55151 0.172885 -0.118539
41 1.29609 0 0 -0.0200505 -0.0423274 0.631309
42 1.62202 -0.000712395 -0.000470161 -0.0284748 -0.016648 1.25494
43 1.22241 0 0 -0.00733723 0.00175429 1.23076
44 1.76707 -1.27612 0.0366403 -1.52771 0.265811 -0.101503
45 1.55588 0 0 0.0305806 -0.0879844 0.525515
46 1.24273 0 0 0.000599178 0 0.710283
47 0.784532 0 0 -0.00205811 0.00641635 0.880036
48 0 0 0 0 0 0
49 -4.74573 -19.1843 -5.08598 -0.0423258 0.0233982 -0.0221736
50 0 -1.51208 1.07027 0 0 0
51 0.540026 -0.371635 1.70233 0 0 0
52 0 -4.95108 2.17037 0 0 0
53 0 -2.31356 1.98216 0 0 0
54 -4.74959 -18.4504 -5.94593 -0.0423258 0.0233982 -0.0221736
55 0 -0.769075 1.97674 0 0 0
56 0 -2.5634 3.06229 0 0 0
time 11
0 1.5572 9.20997 -3.60973 0.000934124 0 -1.06437
1 6.02794 0 0 -1.40355 0.419769 -0.801632
2 11.7344 0 0 -0.00140302 0 -0.58012
3 8.81139 -0.000449181 -0.000112534 -0.434403 0 0.000157815
4 5.77839 0.000287056 0 -0.29105 0 0.000103942
5 2.23164 -0.000329018 -0.000363588 -0.143353 0 0
6 11.4725 0 0 -0.48197 -0.164716 0.279307
7 0.615219 -0.993091 -0.8107 2.33805 -0.0433468 -0.360756
8 2.24752 0 0 0.0800335 0.130871 -0.022588
9 1.11936 0 0 0.0688115 0.177523 -0.338114
10 3.71348 -0.102641 0.102191 1.81842 1.37508 0.188411
11 1.72615 0 0 0.0136259 -0.0250639 -0.609754
12 1.21114 0 0 0.00236703 0.0174766 -0.462832
13 3.59919 -1.06012 0.0708882 1.68096 1.17438 0.0612364
14 1.66069 0 0 -0.0098779 0.0219167 -0.64561
15 1.167 0 0 0.0379319 -0.0317196 -0.610266
16 2.18853 0.50104 0.0576591 1.57003 0.153931 0.225781
17 1.29609 0 0 0.0343668 0.0550095 -1.22788
18 1.62202 0.000713348 -0.000470638 0.0044162 -0.0145794 -0.727069
19 1.22241 0 0 -0.00631659 0.017687 -0.370915
20 1.76707 1.27612 0.0366406 1.57002 0.26187 0.261241
21 1.55588 0 0 -0.0324567 0.00304719 -1.18264
22 1.24274 0 0 -0.000599433 0 -0.65185
23 0.784523 0 0 0.00633928 0.0019118 -0.571831
24 -1.93761 5.60916 -3.60973 -0.000932693 0 3.14159
25 6.02794 0 0 0.966189 0.444993 1.47329
26 11.7344 0 0 0.00140275 0 0.887092
27 8.81167 0 0 -0.059724 0 0
28 5.77884 0 0 -0.040015 0 0
29 2.23249 0 0 -0.0197089 0 0
30 11.4725 0 0 0.225233 -0.431458 -0.615356
31 0.615813 0.994372 -0.809166 -2.75592 0.374248 0.315718
32 2.24752 0 0 -0.565214 0.197981 0.0658205
33 1.11936 0 0 -0.0549132 0.0237986 0.34886
34 3.71349 0.102639 0.102191 -1.55367 0.888575 -0.0661112
35 1.72615 0 0 -0.0121439 -0.0065127 1.19024
36 1.21112 0 0 0.0118385 0.0130726 1.33339
37 3.5992 1.06012 0.0708888 -1.53154 0.266229 0.170417
38 1.66069 0 0 0.0307887 0.0659277 0.632516
39 1.16699 0 0 0.0346484 0.0172045 0.590301
40 2.18853 -0.50104 0.057659 -1.55151 0.172885 -0.118539
41 1.29609 0 0 -0.0200504 -0.0423274 0.631309
42 1.62202 -0.000711441 -0.000469685 -0.0284748 -0.0166479 1.25494
43 1.22241 0 0 -0.00733733 0.00175433 1.23076
44 1.76707 -1.27612 0.0366405 -1.52771 0.265811 -0.101503
45 1.55588 0 0 0.0305806 -0.0879844 0.525515
46 1.24273 0 0 0.000599192 0 0.710283
47 0.784532 0 0 -0.00205814 0.00641631 0.880036
48 0 0 0 0 0 0
49 -4.74233 -19.2655 -5.111 -0.0472919 0.0336652 -0.0221485
50 0 -1.51208 1.07027 0 0 0
51 0.540026 -0.371634 1.70233 0 0 0
52 0 -4.95107 2.17037 0 0 0
53 0 -2.31356 1.98216 0 0 0
54 -4.75524 -18.5357 -5.97433 -0.0472919 0.0336652 -0.0221485
55 0 -0.769075 1.97674 0 0 0
56 0 -2.56341 3.06229 0 0 0
time 12
0 1.5572 9.20997 -3.60973 0.000934124 0 -1.06437
1 6.02794 0 0 -1.4046 0.412254 -0.80255
2 11.7344 0 0 -0.00140259 0 -0.561173
3 8.81139 -0.000450134 -0.000112295 -0.441216 0 0.000157932
4 5.77839 0.000286102 0 -0.295615 0 0.00010392
5 2.23164 -0.000329971 -0.000363588 -0.145601 0 0
6 11.4725 0 0 -0.484891 -0.164963 0.263744
7 0.615221 -0.993091 -0.8107 2.33805 -0.0433468 -0.360756
8 2.24752 0 0 0.0800335 0.130871 -0.022588
9 1.11936 0 0 0.0688116 0.177523 -0.338114
10 3.71348 -0.102641 0.102191 1.81843 1.37508 0.188411
11 1.72615 0 0 0.0136259 -0.0250639 -0.609754
12 1.21113 0 0 0.00236702 0.0174766 -0.462832
13 3.59919 -1.06012 0.0708879 1.68096 1.17438 0.0612369
14 1.66069 0 0 -0.00987792 0.0219167 -0.64561
15 1.167 0 0 0.0379319 -0.0317196 -0.610265
16 2.18852 0.50104 0.0576589 1.57003 0.153931 0.225781
17 1.29609 0 0 0.0343668 0.0550095 -1.22788
18 1.62202 0.000713348 -0.000470638 0.00441623 -0.0145795 -0.727069
19 1.22241 0 0 -0.00631654 0.017687 -0.370915
20 1.76707 1.27612 0.0366411 1.57002 0.26187 0.261241
21 1.55587 0 0 -0.0324568 0.00304725 -1.18264
22 1.24274 0 0 -0.000599423 0 -0.65185
23 0.784523 0 0 0.00633936 0.00191173 -0.571831
24 -1.93761 5.60916 -3.60973 -0.000932693 0 3.14159
25 6.02794 0 0 0.966995 0.441918 1.47649
26 11.7344 0 0 0.00140263 0 0.875362
27 8.81167 0 0 -0.0599527 0 0
28 5.77884 0 0 -0.0401683 0 0
29 2.23249 0 0 -0.0197843 0 0
30 11.4725 0 0 0.220162 -0.434224 -0.603383
31 0.615813 0.994373 -0.809165 -2.75592 0.374249 0.315718
32 2.24752 0 0 -0.565214 0.197981 0.0658203
33 1.11935 0 0 -0.0549132 0.0237985 0.34886
34 3.71348 0.102639 0.102191 -1.55366 0.888575 -0.0661109
35 1.72615 0 0 -0.0121439 -0.00651269 1.19024
36 1.21112 0 0 0.0118385 0.0130726 1.33339
37 3.5992 1.06012 0.0708884 -1.53154 0.266229 0.170417
38 1.66069 0 0 0.0307887 0.0659277 0.632516
39 1.16699 0 0 0.0346484 0.0172046 0.590301
40 2.18853 -0.50104 0.0576591 -1.55151 0.172885 -0.118539
41 1.29609 0 0 -0.0200504 -0.0423274 0.631309
42 1.62202 -0.000714302 -0.000469685 -0.0284748 -0.0166479 1.25494
43 1.22241 0 0 -0.00733728 0.00175436 1.23076
44 1.76707 -1.27612 0.0366409 -1.52771 0.265811 -0.101503
45 1.55588 0 0 0.0305806 -0.0879844 0.525515
46 1.24273 0 0 0.000599183 0 0.710283
47 0.784531 0 0 -0.00205809 0.00641635 0.880036
48 0 0 0 0 0 0
49 -4.73421 -19.3207 -5.1401 -0.0507016 0.0383662 -0.021709
50 0 -1.51208 1.07027 0 0 0
51 0.540026 -0.371634 1.70232 0 0 0
52 0 -4.95107 2.17037 0 0 0
53 0 -2.31355 1.98216 0 0 0
54 -4.75166 -18.5937 -6.00577 -0.0507016 0.0383662 -0.021709
55 0 -0.769072 1.97674 0 0 0
56 0 -2.56341 3.06229 0 0 0
time 13
0 1.5572 9.20997 -3.60973 0.000934124 0 -1.06437
1 6.02794 0 0 -1.40563 0.408969 -0.802411
2 11.7344 0 0 -0.00140288 0 -0.552603
3 8.81139 -0.000450134 -0.000112534 -0.438293 0 0.000157644
4 5.77839 0.000286102 0 -0.293656 0 0.000103895
5 2.23164 -0.000329971 -0.000364065 -0.144636 0 0
6 11.4725 0 0 -0.481166 -0.165056 0.260068
7 0.615219 -0.993092 -0.8107 2.33805 -0.0433467 -0.360756
8 2.24752 0 0 0.0800335 0.130871 -0.0225879
9 1.11936 0 0 0.0688115 0.177523 -0.338114
10 3.71348 -0.102641 0.102191 1.81842 1.37508 0.188411
11 1.72615 0 0 0.0136259 -0.0250639 -0.609754
12 1.21114 0 0 0.00236702 0.0174767 -0.462832
13 3.59919 -1.06012 0.070888 1.68096 1.17438 0.061236
14 1.66069 0 0 -0.00987789 0.0219166 -0.64561
15 1.167 0 0 0.0379319 -0.0317195 -0.610265
16 2.18853 0.50104 0.0576589 1.57003 0.153931 0.225781
17 1.29609 0 0 0.0343668 0.0550094 -1.22788
18 1.62202 0.000713348 -0.000470638 0.00441622 -0.0145795 -0.72707
19 1.22241 0 0 -0.00631659 0.017687 -0.370915
20 1.76707 1.27612 0.0366406 1.57002 0.26187 0.261241
21 1.55588 0 0 -0.0324566 0.0030473 -1.18264
22 1.24273 0 0 -0.000599414 0 -0.65185
23 0.784522 0 0 0.00633932 0.00191182 -0.571831
24 -1.93761 5.60916 -3.60973 -0.000932693 0 3.14159
25 6.02794 0 0 0.967439 0.440003 1.4787
26 11.7344 0 0 0.00140275 0 0.867899
27 8.81167 0 0 -0.0536894 0 0
28 5.77884 0 0 -0.0359719 0 0
29 2.23249 0 0 -0.0177174 0 0
30 11.4725 0 0 0.224123 -0.432988 -0.599999
31 0.615812 0.994372 -0.809165 -2.75592 0.374249 0.315718
32 2.24752 0 0 -0.565214 0.197981 0.0658204
33 1.11936 0 0 -0.0549133 0.0237985 0.34886
34 3.71349 0.10264 0.102191 -1.55367 0.888575 -0.0661111
35 1.72615 0 0 -0.0121438 -0.00651261 1.19024
36 1.21112 0 0 0.0118385 0.0130726 1.33339
37 3.5992 1.06012 0.0708882 -1.53154 0.266229 0.170417
38 1.66069 0 0 0.0307887 0.0659277 0.632516
39 1.16699 0 0 0.0346484 0.0172047 0.590301
40 2.18853 -0.50104 0.0576589 -1.55151 0.172885 -0.118539
41 1.29609 0 0 -0.0200505 -0.0423275 0.631309
42 1.62202 -0.000712395 -0.000469685 -0.0284747 -0.0166479 1.25494
43 1.22241 0 0 -0.00733733 0.0017544 1.23076
44 1.76707 -1.27612 0.0366406 -1.52771 0.265811 -0.101503
45 1.55588 0 0 0.0305806 -0.0879844 0.525515
46 1.24273 0 0 0.000599185 0 0.710283
47 0.784531 0 0 -0.00205816 0.00641636 0.880036
48 0 0 0 0 0 0
49 -4.72262 -19.3552 -5.17164 -0.0496581 0.0348712 -0.0206348
50 0 -1.51208 1.07027 0 0 0
51 0.540026 -0.371634 1.70233 0 0 0
52 0 -4.95107 2.17037 0 0 0
53 0 -2.31356 1.98216 0 0 0
54 -4.73778 -18.6274 -6.03666 -0.0496581 0.0348712 -0.0206348
55 0 -0.769073 1.97674 0 0 0
56 0 -2.56341 3.06229 0 0 0
time 14
0 1.5572 9.20997 -3.60973 0.000934124 0 -1.06437
1 6.02794 0 0 -1.40643 0.408803 -0.801689
2 11.7344 0 0 -0.00140288 0 -0.551296
3 8.81138 -0.000450134 -0.000112295 -0.429187 0 0.000157895
4 5.77839 0.000286102 0 -0.287555 0 0.000103845
5 2.23164 -0.000329971 -0.000363827 -0.141632 0 0
6 11.4725 0 0 -0.473274 -0.166728 0.2633
7 0.615219 -0.993092 -0.8107 2.33805 -0.0433471 -0.360756
8 2.24752 0 0 0.0800335 0.13087 -0.022588
9 1.11936 0 0 0.0688114 0.177523 -0.338114
10 3.71348 -0.102641 0.102191 1.81842 1.37508 0.18841
11 1.72615 0 0 0.0136259 -0.0250638 -0.609754
12 1.21114 0 0 0.0023671 0.0174766 -0.462832
13 3.59919 -1.06012 0.0708883 1.68096 1.17438 0.061236
14 1.66069 0 0 -0.00987793 0.0219166 -0.64561
15 1.167 0 0 0.0379319 -0.0317196 -0.610266
16 2.18853 0.50104 0.0576594 1.57003 0.153931 0.225781
17 1.29609 0 0 0.0343668 0.0550095 -1.22788
18 1.62202 0.000715256 -0.000471115 0.00441621 -0.0145794 -0.727069
19 1.22241 0 0 -0.00631653 0.017687 -0.370915
20 1.76707 1.27612 0.0366409 1.57002 0.26187 0.261241
21 1.55588 0 0 -0.0324567 0.00304737 -1.18264
22 1.24274 0 0 -0.000599489 0 -0.65185
23 0.784522 0 0 0.00633936 0.00191173 -0.571831
24 -1.93761 5.60916 -3.60973 -0.000932693 0 3.14159
25 6.02794 0 0 0.967616 0.439026 1.48003
26 11.7344 0 0 0.00140275 0 0.863146
27 8.81167 0 0 -0.0423956 0 0
28 5.77884 0 0 -0.028405 0 0
29 2.23249 0 0 -0.0139905 0 0
30 11.4725 0 0 0.233254 -0.428666 -0.599919
31 0.615813 0.994373 -0.809165 -2.75592 0.374249 0.315718
32 2.24752 0 0 -0.565214 0.197981 0.0658205
33 1.11936 0 0 -0.0549132 0.0237985 0.34886
34 3.71348 0.10264 0.102191 -1.55366 0.888575 -0.0661108
35 1.72615 0 0 -0.0121439 -0.0065127 1.19024
36 1.21112 0 0 0.0118385 0.0130726 1.33339
37 3.5992 1.06012 0.0708882 -1.53154 0.266228 0.170417
38 1.66069 0 0 0.0307887 0.0659277 0.632516
39 1.16699 0 0 0.0346484 0.0172046 0.590301
40 2.18853 -0.50104 0.0576593 -1.55151 0.172885 -0.118539
41 1.29609 0 0 -0.0200505 -0.0423274 0.631309
42 1.62202 -0.000715256 -0.000469685 -0.0284748 -0.016648 1.25494
43 1.22241 0 0 -0.00733728 0.00175438 1.23076
44 1.76707 -1.27612 0.03664 -1.52771 0.265811 -0.101503
45 1.55588 0 0 0.0305806 -0.0879843 0.525515
46 1.24273 0 0 0.000599171 0 0.710283
47 0.784532 0 0 -0.00205811 0.00641635 0.880036
48 0 0 0 0 0 0
49 -4.70882 -19.3741 -5.20396 -0.0469381 0.0262533 -0.0179464
50 0 -1.51208 1.07027 0 0 0
51 0.540025 -0.371634 1.70233 0 0 0
52 0 -4.95107 2.17037 0 0 0
53 0 -2.31355 1.98216 0 0 0
54 -4.71839 -18.6441 -6.06722 -0.0469381 0.0262533 -0.0179464
55 0 -0.76907 1.97674 0 0 0
56 0 -2.56341 3.06229 0 0 0
time 15
0 1.5572 9.20997 -3.60973 0.000934124 0 -1.06437
1 6.02794 0 0 -1.40705 0.410568 -0.800669
2 11.7344 0 0 -0.00140265 0 -0.554496
3 8.81139 -0.000449181 -0.000112057 -0.417162 0 0.000157839
4 5.77839 0.000287056 0 -0.279498 0 0.000104065
5 2.23164 -0.000329018 -0.000364065 -0.137663 0 0
6 11.4725 0 0 -0.463691 -0.169281 0.270689
7 0.615217 -0.993091 -0.8107 2.33805 -0.0433468 -0.360756
8 2.24752 0 0 0.0800337 0.130871 -0.022588
9 1.11936 0 0 0.0688114 0.177523 -0.338114
10 3.71348 -0.102641 0.102191 1.81843 1.37508 0.188412
11 1.72615 0 0 0.0136259 -0.0250638 -0.609754
12 1.21114 0 0 0.00236701 0.0174767 -0.462832
13 3.59919 -1.06012 0.0708879 1.68096 1.17438 0.0612371
14 1.66069 0 0 -0.00987792 0.0219167 -0.64561
15 1.167 0 0 0.0379319 -0.0317196 -0.610265
16 2.18852 0.50104 0.0576589 1.57003 0.153931 0.225781
17 1.29609 0 0 0.0343667 0.0550095 -1.22788
18 1.62202 0.000715256 -0.000471115 0.00441622 -0.0145794 -0.727069
19 1.22241 0 0 -0.00631655 0.017687 -0.370915
20 1.76707 1.27612 0.0366409 1.57002 0.26187 0.261241
21 1.55588 0 0 -0.0324567 0.00304731 -1.18264
22 1.24274 0 0 -0.00059948 0 -0.65185
23 0.784522 0 0 0.00633937 0.00191177 -0.571831
24 -1.93761 5.60916 -3.60973 -0.000932693 0 3.14159
25 6.02794 0 0 0.967541 0.438927 1.48056
26 11.7344 0 0 0.00140261 0 0.860978
27 8.81167 0 0 -0.0291785 0 0
28 5.77884 0 0 -0.0195496 0 0
29 2.23249 0 0 -0.00962899 0 0
30 11.4725 0 0 0.244643 -0.422592 -0.602252
31 0.615815 0.994372 -0.809166 -2.75592 0.374249 0.315718
32 2.24752 0 0 -0.565214 0.197981 0.0658204
33 1.11936 0 0 -0.0549132 0.0237985 0.34886
34 3.71349 0.10264 0.102191 -1.55366 0.888575 -0.0661109
35 1.72615 0 0 -0.0121438 -0.00651264 1.19024
36 1.21112 0 0 0.0118385 0.0130726 1.33339
37 3.5992 1.06012 0.0708879 -1.53154 0.266229 0.170417
38 1.66069 0 0 0.0307887 0.0659277 0.632516
39 1.16699 0 0 0.0346484 0.0172046 0.590301
40 2.18853 -0.50104 0.0576588 -1.55151 0.172885 -0.118539
41 1.29609 0 0 -0.0200505 -0.0423275 0.631309
42 1.62201 -0.000712395 -0.000469208 -0.0284748 -0.016648 1.25494
43 1.22241 0 0 -0.00733725 0.00175434 1.23076
44 1.76707 -1.27612 0.0366408 -1.52771 0.265811 -0.101503
45 1.55588 0 0 0.0305806 -0.0879844 0.525515
46 1.24273 0 0 0.000599195 0 0.710283
47 0.784531 0 0 -0.00205817 0.00641634 0.880036
48 0 0 0 0 0 0
49 -4.69404 -19.3827 -5.2354 -0.0431571 0.0153132 -0.0144446
50 0 -1.51208 1.07027 0 0 0
51 0.540026 -0.37163 1.70233 0 0 0
52 0 -4.95107 2.17037 0 0 0
53 0 -2.31355 1.98216 0 0 0
54 -4.69664 -18.6496 -6.0961 -0.0431571 0.0153132 -0.0144446
55 0 -0.769075 1.97674 0 0 0
56 0 -2.56341 3.06229 0 0 0
time 16
0 1.5572 9.20997 -3.60973 0.000934124 0 -1.06437
1 6.02794 0 0 -1.40751 0.413036 -0.799628
2 11.7344 0 0 -0.00140279 0 -0.559356
3 8.81139 -0.000450134 -0.000112534 -0.405493 0 0.000157846
4 5.77839 0.000286102 0 -0.27168 0 0.000104165
5 2.23163 -0.000329971 -0.000364304 -0.133813 0 0
6 11.4725 0 0 -0.454867 -0.171952 0.279426
7 0.615219 -0.993092 -0.8107 2.33805 -0.0433466 -0.360756
8 2.24752 0 0 0.0800335 0.130871 -0.0225879
9 1.11936 0 0 0.0688115 0.177523 -0.338114
10 3.71348 -0.102641 0.102191 1.81843 1.37508 0.188412
11 1.72615 0 0 0.0136259 -0.0250639 -0.609754
12 1.21114 0 0 0.00236702 0.0174766 -0.462832
13 3.59919 -1.06012 0.0708879 1.68096 1.17438 0.0612361
14 1.66069 0 0 -0.00987787 0.0219166 -0.64561
15 1.167 0 0 0.0379319 -0.0317196 -0.610265
16 2.18852 0.50104 0.0576588 1.57003 0.153931 0.225781
17 1.29609 0 0 0.0343669 0.0550095 -1.22788
18 1.62202 0.000713348 -0.000471115 0.00441623 -0.0145794 -0.727069
19 1.22241 0 0 -0.00631655 0.017687 -0.370915
20 1.76707 1.27612 0.0366408 1.57002 0.26187 0.261241
21 1.55588 0 0 -0.0324567 0.00304727 -1.18264
22 1.24274 0 0 -0.00059948 0 -0.65185
23 0.784524 0 0 0.00633938 0.00191171 -0.571831
24 -1.93761 5.60916 -3.60973 -0.000932693 0 3.14159
25 6.02794 0 0 0.967404 0.439099 1.48077
26 11.7344 0 0 0.00140276 0 0.859925
27 8.81167 0 0 -0.0168088 0 0
28 5.77884 0 0 -0.0112619 0 0
29 2.23249 0 0 -0.00554693 0 0
30 11.4725 0 0 0.255423 -0.416159 -0.60547
31 0.615813 0.994372 -0.809165 -2.75592 0.374249 0.315718
32 2.24752 0 0 -0.565214 0.197982 0.0658205
33 1.11936 0 0 -0.0549133 0.0237986 0.34886
34 3.71349 0.102639 0.102191 -1.55367 0.888575 -0.0661112
35 1.72615 0 0 -0.0121439 -0.00651269 1.19024
36 1.21112 0 0 0.0118384 0.0130726 1.33339
37 3.5992 1.06012 0.0708885 -1.53154 0.266229 0.170417
38 1.66069 0 0 0.0307887 0.0659278 0.632516
39 1.16699 0 0 0.0346484 0.0172046 0.590301
40 2.18853 -0.501041 0.0576593 -1.55151 0.172885 -0.118539
41 1.29609 0 0 -0.0200505 -0.0423275 0.631309
42 1.62202 -0.000714302 -0.000470161 -0.0284747 -0.0166479 1.25494
43 1.22241 0 0 -0.00733729 0.00175436 1.23076
44 1.76707 -1.27612 0.0366403 -1.52771 0.265811 -0.101503
45 1.55587 0 0 0.0305806 -0.0879844 0.525515
46 1.24273 0 0 0.000599186 0 0.710283
47 0.784531 0 0 -0.00205817 0.00641633 0.880036
48 0 0 0 0 0 0
49 -4.67955 -19.3862 -5.26432 -0.0389309 0.00485164 -0.0109306
50 0 -1.51208 1.07027 0 0 0
51 0.540027 -0.371635 1.70233 0 0 0
52 0 -4.95108 2.17037 0 0 0
53 0 -2.31356 1.98216 0 0 0
54 -4.67566 -18.6496 -6.122 -0.0389309 0.00485164 -0.0109306
55 0 -0.769072 1.97674 0 0 0
56 0 -2.56341 3.06229 0 0 0
time 17
0 1.5572 9.20997 -3.60973 0.000934124 0 -1.06437
1 6.02794 0 0 -1.40784 0.415017 -0.798821
2 11.7344 0 0 -0.00140287 0 -0.563085
3 8.81138 -0.000450134 -0.00011301 -0.397492 0 0.000158145
4 5.77839 0.000286102 0 -0.266319 0 0.000104187
5 2.23164 -0.000329971 -0.000363827 -0.131172 0 0
6 11.4725 0 0 -0.449202 -0.173883 0.286711
7 0.615219 -0.993091 -0.8107 2.33805 -0.0433468 -0.360756
8 2.24752 0 0 0.0800335 0.130871 -0.022588
9 1.11936 0 0 0.0688115 0.177523 -0.338114
10 3.71348 -0.102641 0.102191 1.81842 1.37508 0.188411
11 1.72615 0 0 0.0136259 -0.0250639 -0.609754
12 1.21114 0 0 0.00236699 0.0174767 -0.462832
13 3.5992 -1.06012 0.0708884 1.68096 1.17438 0.0612361
14 1.66069 0 0 -0.00987787 0.0219167 -0.64561
15 1.167 0 0 0.0379319 -0.0317196 -0.610266
16 2.18852 0.50104 0.0576588 1.57003 0.153931 0.225781
17 1.2961 0 0 0.0343667 0.0550095 -1.22788
18 1.62202 0.000713348 -0.000471592 0.00441623 -0.0145794 -0.727069
19 1.22241 0 0 -0.00631657 0.017687 -0.370915
20 1.76707 1.27612 0.036641 1.57002 0.26187 0.261241
21 1.55588 0 0 -0.0324567 0.00304728 -1.18264
22 1.24274 0 0 -0.000599461 0 -0.65185
23 0.784523 0 0 0.00633935 0.00191173 -0.571831
24 -1.93761 5.60916 -3.60973 -0.000932693 0 3.14159
25 6.02794 0 0 0.967341 0.43908 1.48108
26 11.7344 0 0 0.00140271 0 0.858883
27 8.81167 0 0 -0.00816771 0 0
28 5.77884 0 0 -0.0054724 0 0
29 2.23249 0 0 -0.00269529 0 0
30 11.4725 0 0 0.262802 -0.410851 -0.608321
31 0.615813 0.994372 -0.809165 -2.75592 0.374249 0.315718
32 2.24751 0 0 -0.565214 0.197981 0.0658204
33 1.11936 0 0 -0.0549133 0.0237984 0.34886
34 3.71349 0.10264 0.102191 -1.55366 0.888575 -0.0661108
35 1.72615 0 0 -0.0121439 -0.0065127 1.19024
36 1.21112 0 0 0.0118385 0.0130726 1.33339
37 3.5992 1.06012 0.0708882 -1.53154 0.266229 0.170417
38 1.66069 0 0 0.0307887 0.0659278 0.632516
39 1.16699 0 0 0.0346484 0.0172045 0.590301
40 2.18853 -0.50104 0.0576587 -1.55151 0.172885 -0.118539
41 1.29609 0 0 -0.0200504 -0.0423274 0.631309
42 1.62202 -0.000712395 -0.000469685 -0.0284748 -0.016648 1.25494
43 1.22241 0 0 -0.00733726 0.00175433 1.23076
44 1.76707 -1.27612 0.0366403 -1.52771 0.265812 -0.101503
45 1.55588 0 0 0.0305806 -0.0879844 0.525515
46 1.24273 0 0 0.000599179 0 0.710283
47 0.784532 0 0 -0.00205816 0.00641634 0.880036
48 0 0 0 0 0 0
49 -4.66659 -19.3898 -5.28906 -0.0348752 -0.00233078 -0.00820542
50 0 -1.51208 1.07027 0 0 0
51 0.540026 -0.371634 1.70232 0 0 0
52 0 -4.95107 2.17037 0 0 0
53 0 -2.31355 1.98216 0 0 0
54 -4.65852 -18.6498 -6.14376 -0.0348752 -0.00233078 -0.00820541
55 0 -0.769072 1.97674 0 0 0
56 0 -2.56341 3.06229 0 0 0
time 18
0 1.5572 9.20997 -3.60973 0.000934124 0 -1.06437
1 6.02794 0 0 -1.40813 0.415701 -0.798387
2 11.7344 0 0 -0.00140284 0 -0.564208
3 8.81139 -0.000449181 -0.000112534 -0.39404 0 0.000158154
4 5.77839 0.000286102 0 -0.264007 0 0.000104351
5 2.23163 -0.000329018 -0.000364304 -0.130033 0 0
6 11.4725 0 0 -0.447386 -0.174855 0.292138
7 0.615219 -0.993091 -0.8107 2.33805 -0.0433468 -0.360756
8 2.24752 0 0 0.0800335 0.130871 -0.022588
9 1.11936 0 0 0.0688115 0.177523 -0.338114
10 3.71348 -0.102641 0.102191 1.81843 1.37508 0.188411
11 1.72615 0 0 0.0136259 -0.0250639 -0.609754
12 1.21114 0 0 0.002367 0.0174768 -0.462832
13 3.59919 -1.06012 0.0708882 1.68096 1.17438 0.0612368
14 1.66069 0 0 -0.00987787 0.0219166 -0.64561
15 1.167 0 0 0.0379319 -0.0317196 -0.610265
16 2.18853 0.50104 0.0576593 1.57003 0.153931 0.225781
17 1.29609 0 0 0.0343668 0.0550095 -1.22788
18 1.62202 0.000715256 -0.000471115 0.00441625 -0.0145794 -0.727069
19 1.22241 0 0 -0.00631661 0.0176869 -0.370915
20 1.76707 1.27612 0.036641 1.57002 0.26187 0.261241
21 1.55588 0 0 -0.0324567 0.0030473 -1.18264
22 1.24274 0 0 -0.000599461 0 -0.65185
23 0.784523 0 0 0.00633939 0.0019118 -0.571831
24 -1.93761 5.60916 -3.60973 -0.000932693 0 3.14159
25 6.02794 0 0 0.967573 0.438316 1.48172
26 11.7344 0 0 0.00140263 0 0.856888
27 8.81167 0 0 -0.00370732 0 0
28 5.77884 0 0 -0.00248382 0 0
29 2.23249 0 0 -0.00122345 0 0
30 11.4725 0 0 0.266101 -0.406493 -0.610628
31 0.615812 0.994372 -0.809166 -2.75592 0.374249 0.315718
32 2.24752 0 0 -0.565214 0.197981 0.0658204
33 1.11936 0 0 -0.0549133 0.0237985 0.34886
34 3.71349 0.102639 0.102191 -1.55367 0.888575 -0.0661112
35 1.72615 0 0 -0.0121439 -0.00651266 1.19024
36 1.21112 0 0 0.0118386 0.0130726 1.33339
37 3.5992 1.06012 0.0708877 -1.53154 0.266229 0.170417
38 1.66069 0 0 0.0307888 0.0659277 0.632516
39 1.16699 0 0 0.0346484 0.0172045 0.590301
40 2.18853 -0.501041 0.0576593 -1.55151 0.172885 -0.118539
41 1.29609 0 0 -0.0200505 -0.0423274 0.631309
42 1.62201 -0.000712395 -0.000470161 -0.0284747 -0.0166479 1.25494
43 1.22241 0 0 -0.00733729 0.00175438 1.23076
44 1.76707 -1.27612 0.0366408 -1.52771 0.265811 -0.101503
45 1.55587 0 0 0.0305807 -0.0879844 0.525515
46 1.24273 0 0 0.000599214 0 0.710283
47 0.784531 0 0 -0.00205813 0.00641635 0.880036
48 0 0 0 0 0 0
49 -4.6564 -19.3988 -5.30797 -0.0306123 -0.00560687 -0.00630085
50 0 -1.51208 1.07027 0 0 0
51 0.540026 -0.371634 1.70232 0 0 0
52 0 -4.95107 2.17037 0 0 0
53 0 -2.31355 1.98216 0 0 0
54 -4.64694 -18.6552 -6.15949 -0.0306123 -0.00560687 -0.00630085
55 0 -0.769072 1.97674 0 0 0
56 0 -2.56341 3.06229 0 0 0
time 19
0 1.5572 9.20997 -3.60973 0.000934124 0 -1.06437
1 6.02794 0 0 -1.4083 0.415904 -0.798172
2 11.7344 0 0 -0.00140281 0 -0.564793
3 8.81138 -0.000449181 -0.000112534 -0.393129 0 0.000158123
4 5.77839 0.000286102 0 -0.263396 0 0.000104273
5 2.23164 -0.000329018 -0.000363827 -0.129733 0 0
6 11.4725 0 0 -0.448073 -0.175379 0.29785
7 0.615219 -0.993091 -0.8107 2.33805 -0.0433468 -0.360756
8 2.24752 0 0 0.0800335 0.130871 -0.022588
9 1.11936 0 0 0.0688115 0.177523 -0.338114
10 3.71348 -0.102641 0.102191 1.81842 1.37508 0.188411
11 1.72615 0 0 0.0136259 -0.0250639 -0.609754
12 1.21114 0 0 0.002367 0.0174767 -0.462832
13 3.59919 -1.06012 0.0708882 1.68096 1.17438 0.0612365
14 1.66069 0 0 -0.00987793 0.0219166 -0.64561
15 1.167 0 0 0.0379319 -0.0317195 -0.610265
16 2.18853 0.501039 0.0576593 1.57003 0.153931 0.225781
17 1.29609 0 0 0.0343668 0.0550095 -1.22788
18 1.62202 0.000713348 -0.000470638 0.00441633 -0.0145793 -0.727069
19 1.22241 0 0 -0.00631656 0.0176869 -0.370915
20 1.76707 1.27612 0.0366408 1.57002 0.26187 0.261241
21 1.55588 0 0 -0.0324567 0.00304734 -1.18264
22 1.24274 0 0 -0.000599386 0 -0.65185
23 0.784523 0 0 0.00633939 0.00191159 -0.571831
24 -1.93761 5.60916 -3.60973 -0.000932693 0 3.14159
25 6.02794 0 0 0.968036 0.437075 1.4824
26 11.7344 0 0 0.0014026 0 0.854843
27 8.81167 0 0 -0.00181931 0 0
28 5.77884 0 0 -0.001219 0 0
29 2.23249 0 0 -0.000600368 0 0
30 11.4725 0 0 0.266948 -0.40204 -0.613482
31 0.61581 0.994372 -0.809165 -2.75592 0.374249 0.315718
32 2.24752 0 0 -0.565214 0.197981 0.0658204
33 1.11936 0 0 -0.0549132 0.0237986 0.34886
34 3.71348 0.10264 0.102191 -1.55367 0.888575 -0.0661112
35 1.72615 0 0 -0.0121439 -0.00651267 1.19024
36 1.21112 0 0 0.0118385 0.0130727 1.33339
37 3.5992 1.06012 0.0708883 -1.53154 0.266229 0.170417
38 1.66069 0 0 0.0307888 0.0659276 0.632516
39 1.16699 0 0 0.0346484 0.0172046 0.590301
40 2.18853 -0.50104 0.0576589 -1.55151 0.172885 -0.118539
41 1.29609 0 0 -0.0200505 -0.0423274 0.631309
42 1.62202 -0.000713348 -0.000470638 -0.0284748 -0.0166479 1.25494
43 1.22241 0 0 -0.00733728 0.00175435 1.23076
44 1.76707 -1.27612 0.0366402 -1.52771 0.265811 -0.101503
45 1.55588 0 0 0.0305806 -0.0879843 0.525515
46 1.24273 0 0 0.000599167 0 0.710283
47 0.784532 0 0 -0.00205811 0.00641637 0.880036
48 0 0 0 0 0 0
49 -4.64868 -19.4091 -5.32023 -0.025606 -0.00663474 -0.00469356
50 0 -1.51208 1.07027 0 0 0
51 0.540026 -0.371632 1.70233 0 0 0
52 0 -4.95107 2.17037 0 0 0
53 0 -2.31355 1.98216 0 0 0
54 -4.63955 -18.6612 -6.16801 -0.025606 -0.00663474 -0.00469356
55 0 -0.769073 1.97674 0 0 0
56 0 -0.826363 2.70072 0 0 0
time 20
0 1.5572 9.20997 -3.60973 0.000934124 0 -1.06437
1 6.02794 0 0 -1.40828 0.416709 -0.797992
2 11.7344 0 0 -0.00140286 0 -0.566911
3 8.81138 -0.000450134 -0.000113249 -0.393823 0 0.000158067
4 5.77839 0.000285149 0 -0.263862 0 0.000104194
5 2.23163 -0.000329971 -0.000364065 -0.129962 0 0
6 11.4725 0 0 -0.450562 -0.175599 0.304565
7 0.615217 -0.993091 -0.8107 2.33805 -0.0433469 -0.360756
8 2.24752 0 0 0.0800335 0.130871 -0.0225879
9 1.11936 0 0 0.0688114 0.177523 -0.338114
10 3.71348 -0.102641 0.102191 1.81842 1.37508 0.188411
11 1.72615 0 0 0.0136259 -0.0250639 -0.609754
12 1.21114 0 0 0.00236708 0.0174766 -0.462832
13 3.59919 -1.06012 0.0708882 1.68096 1.17438 0.0612367
14 1.66069 0 0 -0.0098779 0.0219166 -0.64561
15 1.167 0 0 0.0379319 -0.0317196 -0.610266
16 2.18852 0.50104 0.057659 1.57003 0.153931 0.225781
17 1.29609 0 0 0.0343667 0.0550095 -1.22788
18 1.62202 0.000711441 -0.000471115 0.00441626 -0.0145794 -0.727069
19 1.22241 0 0 -0.00631654 0.017687 -0.370915
20 1.76707 1.27612 0.0366405 1.57002 0.26187 0.261241
21 1.55588 0 0 -0.0324566 0.00304722 -1.18264
22 1.24273 0 0 -0.000599433 0 -0.65185
23 0.784523 0 0 0.00633926 0.00191171 -0.571831
24 -1.93761 5.60916 -3.60973 -0.000932693 0 3.14159
25 6.02794 0 0 0.968467 0.436042 1.48276
26 11.7344 0 0 0.00140276 0 0.854103
27 8.81167 0 0 -0.00217181 0 0
28 5.77884 0 0 -0.0014551 0 0
29 2.23249 0 0 -0.000716686 0 0
30 11.4725 0 0 0.266071 -0.397746 -0.617355
31 0.615812 0.994373 -0.809166 -2.75592 0.374249 0.315718
32 2.24752 0 0 -0.565214 0.197981 0.0658204
33 1.11936 0 0 -0.0549134 0.0237984 0.34886
34 3.71349 0.10264 0.10219 -1.55366 0.888575 -0.0661108
35 1.72615 0 0 -0.0121439 -0.00651263 1.19024
36 1.21112 0 0 0.0118384 0.0130726 1.33339
37 3.5992 1.06012 0.0708882 -1.53154 0.266229 0.170417
38 1.66069 0 0 0.0307886 0.0659277 0.632516
39 1.16699 0 0 0.0346484 0.0172045 0.590301
40 2.18853 -0.50104 0.0576588 -1.55151 0.172885 -0.118539
41 1.29609 0 0 -0.0200504 -0.0423274 0.631309
42 1.62202 -0.000714302 -0.000470161 -0.0284748 -0.0166479 1.25494
43 1.22241 0 0 -0.00733727 0.00175436 1.23076
44 1.76707 -1.27612 0.0366404 -1.52771 0.265811 -0.101503
45 1.55587 0 0 0.0305806 -0.0879844 0.525515
46 1.24273 0 0 0.000599184 0 0.710283
47 0.784532 0 0 -0.00205815 0.00641633 0.880036
48 0 0 0 0 0 0
49 -4.64218 -19.4135 -5.32672 -0.0202339 -0.0060415 -0.00335165
50 0 -1.51208 1.07027 0 0 0
51 0.540026 -0.371635 1.70233 0 0 0
52 0 -4.95107 2.17037 0 0 0
53 0 -2.31355 1.98216 0 0 0
54 -4.63456 -18.661 -6.17048 -0.0202339 -0.0060415 -0.00335165
55 0 -0.769073 1.97674 0 0 0
56 0 -0.826366 2.70072 0 0 0
time 21
0 1.5572 9.20997 -3.60973 0.000934124 0 -1.06437
1 6.02794 0 0 -1.40812 0.417989 -0.797826
2 11.7344 0 0 -0.00140287 0 -0.570246
3 8.81138 -0.000450134 -0.000112057 -0.395437 0 0.000157797
4 5.77839 0.000286102 0 -0.264943 0 0.000103938
5 2.23163 -0.000329971 -0.000364065 -0.130494 0 0
6 11.4725 0 0 -0.454077 -0.175597 0.311817
7 0.615221 -0.993091 -0.8107 2.33805 -0.0433468 -0.360756
8 2.24752 0 0 0.0800335 0.130871 -0.0225879
9 1.11936 0 0 0.0688115 0.177523 -0.338114
10 3.71348 -0.102641 0.102191 1.81843 1.37508 0.188412
11 1.72615 0 0 0.0136259 -0.0250639 -0.609754
12 1.21114 0 0 0.00236702 0.0174767 -0.462832
13 3.5992 -1.06012 0.0708879 1.68096 1.17438 0.0612366
14 1.66069 0 0 -0.00987787 0.0219166 -0.64561
15 1.167 0 0 0.0379319 -0.0317196 -0.610266
16 2.18853 0.50104 0.0576588 1.57003 0.153931 0.225781
17 1.29609 0 0 0.0343668 0.0550094 -1.22788
18 1.62202 0.000713348 -0.000471115 0.00441627 -0.0145794 -0.727069
19 1.22241 0 0 -0.00631656 0.0176869 -0.370915
20 1.76707 1.27612 0.0366405 1.57002 0.26187 0.261241
21 1.55588 0 0 -0.0324567 0.0030473 -1.18264
22 1.24274 0 0 -0.000599405 0 -0.65185
23 0.784524 0 0 0.00633932 0.00191172 -0.571831
24 -1.93761 5.60916 -3.60973 -0.000932693 0 3.14159
25 6.02794 0 0 0.968844 0.435244 1.48285
26 11.7344 0 0 0.00140281 0 0.854451
27 8.81167 0 0 -0.00398389 0 0
28 5.77884 0 0 -0.00266922 0 0
29 2.23249 0 0 -0.00131458 0 0
30 11.4725 0 0 0.264142 -0.393758 -0.621867
31 0.615814 0.994373 -0.809166 -2.75592 0.374249 0.315718
32 2.24752 0 0 -0.565214 0.197981 0.0658203
33 1.11936 0 0 -0.0549133 0.0237985 0.34886
34 3.71349 0.10264 0.102191 -1.55367 0.888575 -0.0661113
35 1.72615 0 0 -0.0121438 -0.00651261 1.19024
36 1.21112 0 0 0.0118385 0.0130726 1.33339
37 3.5992 1.06012 0.0708885 -1.53154 0.266229 0.170417
38 1.66069 0 0 0.0307887 0.0659277 0.632516
39 1.16699 0 0 0.0346484 0.0172045 0.590301
40 2.18853 -0.50104 0.057659 -1.55151 0.172885 -0.118539
41 1.29609 0 0 -0.0200504 -0.0423275 0.631309
42 1.62202 -0.000715256 -0.000469446 -0.0284748 -0.0166479 1.25494
43 1.22241 0 0 -0.00733725 0.00175429 1.23076
44 1.76707 -1.27612 0.0366406 -1.52771 0.265811 -0.101503
45 1.55588 0 0 0.0305806 -0.0879844 0.525515
46 1.24273 0 0 0.000599182 0 0.710283
47 0.784532 0 0 -0.00205811 0.00641631 0.880036
48 0 0 0 0 0 0
49 -4.63671 -19.413 -5.32835 -0.0148735 -0.00445429 -0.00224323
50 0 -1.51208 1.07027 0 0 0
51 0.540026 -0.371632 1.70233 0 0 0
52 0 -4.95107 2.17037 0 0 0
53 0 -2.31355 1.98216 0 0 0
54 -4.63127 -18.656 -6.16807 -0.0148735 -0.00445429 -0.00224323
55 0 -0.769073 1.97674 0 0 0
56 0 -0.826363 2.70072 0 0 0
time 22
0 1.5572 9.20997 -3.60973 0.000934124 0 -1.06437
1 6.02794 0 0 -1.40788 0.419616 -0.79765
2 11.7344 0 0 -0.00140268 0 -0.574478
3 8.81138 -0.000450134 -0.000112057 -0.39729 0 0.000157848
4 5.77839 0.000286102 0 -0.266184 0 0.00010416
5 2.23164 -0.000329971 -0.000363827 -0.131106 0 0
6 11.4725 0 0 -0.457848 -0.175475 0.319146
7 0.615221 -0.993092 -0.8107 2.33805 -0.0433468 -0.360756
8 2.24752 0 0 0.0800335 0.130871 -0.022588
9 1.11936 0 0 0.0688115 0.177523 -0.338114
10 3.71349 -0.102641 0.102191 1.81842 1.37508 0.188411
11 1.72615 0 0 0.0136259 -0.0250639 -0.609754
12 1.21114 0 0 0.002367 0.0174767 -0.462832
13 3.59919 -1.06012 0.0708878 1.68096 1.17438 0.0612363
14 1.66069 0 0 -0.00987786 0.0219166 -0.64561
15 1.167 0 0 0.0379319 -0.0317196 -0.610266
16 2.18853 0.50104 0.0576588 1.57003 0.153931 0.225781
17 1.29609 0 0 0.0343668 0.0550095 -1.22788
18 1.62202 0.000711441 -0.000471592 0.0044161 -0.0145795 -0.727069
19 1.22241 0 0 -0.00631653 0.017687 -0.370915
20 1.76707 1.27612 0.036641 1.57002 0.26187 0.261241
21 1.55588 0 0 -0.0324567 0.00304729 -1.18264
22 1.24273 0 0 -0.000599452 0 -0.65185
23 0.784524 0 0 0.00633932 0.00191182 -0.571831
24 -1.93761 5.60916 -3.60973 -0.000932693 0 3.14159
25 6.02794 0 0 0.969142 0.434706 1.48273
26 11.7344 0 0 0.00140281 0 0.855674
27 8.81167 0 0 -0.00648243 0 0
28 5.77884 0 0 -0.0043433 0 0
29 2.23249 0 0 -0.00213921 0 0
30 11.4725 0 0 0.261833 -0.390207 -0.626628
31 0.615812 0.994373 -0.809165 -2.75592 0.374249 0.315718
32 2.24752 0 0 -0.565214 0.197981 0.0658205
33 1.11936 0 0 -0.0549134 0.0237986 0.34886
34 3.71348 0.10264 0.102191 -1.55367 0.888575 -0.0661109
35 1.72615 0 0 -0.0121439 -0.00651259 1.19024
36 1.21112 0 0 0.0118385 0.0130726 1.33339
37 3.5992 1.06012 0.0708884 -1.53154 0.266228 0.170417
38 1.66069 0 0 0.0307886 0.0659278 0.632516
39 1.16699 0 0 0.0346484 0.0172046 0.590301
40 2.18853 -0.50104 0.0576594 -1.55151 0.172885 -0.118539
41 1.29609 0 0 -0.0200505 -0.0423275 0.631309
42 1.62201 -0.000713348 -0.000470161 -0.0284748 -0.0166479 1.25494
43 1.22241 0 0 -0.00733727 0.00175438 1.23076
44 1.76707 -1.27612 0.0366412 -1.52771 0.265811 -0.101503
45 1.55588 0 0 0.0305806 -0.0879843 0.525515
46 1.24273 0 0 0.000599187 0 0.710283
47 0.784532 0 0 -0.00205815 0.00641633 0.880036
48 0 0 0 0 0 0
49 -4.63211 -19.4083 -5.32601 -0.00990221 -0.00250022 -0.00133641
50 0 -1.51208 1.07027 0 0 0
51 0.540027 -0.371632 1.70233 0 0 0
52 0 -4.95107 2.17037 0 0 0
53 0 -2.31355 1.98216 0 0 0
54 -4.62901 -18.6471 -6.16196 -0.00990221 -0.00250022 -0.00133641
55 0 -0.769073 1.97674 0 0 0
56 0 -0.826366 2.70072 0 0 0
time 23
0 1.5572 9.20997 -3.60973 0.000934124 0 -1.06437
1 6.02794 0 0 -1.4076 0.42147 -0.797444
2 11.7344 0 0 -0.00140281 0 -0.579303
3 8.81139 -0.000450134 -0.000111818 -0.398704 0 0.000158112
4 5.77839 0.000286102 0 -0.267132 0 0.000104325
5 2.23163 -0.000329018 -0.000364065 -0.131572 0 0
6 11.4725 0 0 -0.461109 -0.175354 0.326099
7 0.615219 -0.993091 -0.8107 2.33805 -0.0433467 -0.360756
8 2.24752 0 0 0.0800334 0.130871 -0.022588
9 1.11936 0 0 0.0688116 0.177523 -0.338114
10 3.71348 -0.102641 0.102191 1.81843 1.37508 0.188413
11 1.72615 0 0 0.0136259 -0.0250639 -0.609754
12 1.21114 0 0 0.00236701 0.0174767 -0.462832
13 3.59919 -1.06012 0.0708883 1.68096 1.17438 0.0612367
14 1.66069 0 0 -0.00987786 0.0219166 -0.64561
15 1.167 0 0 0.0379319 -0.0317196 -0.610266
16 2.18853 0.50104 0.057659 1.57003 0.153931 0.225781
17 1.29609 0 0 0.0343668 0.0550095 -1.22788
18 1.62202 0.000713348 -0.000471115 0.00441624 -0.0145794 -0.727069
19 1.22241 0 0 -0.00631658 0.017687 -0.370915
20 1.76707 1.27612 0.0366408 1.57002 0.26187 0.261241
21 1.55588 0 0 -0.0324566 0.00304739 -1.18264
22 1.24274 0 0 -0.000599442 0 -0.65185
23 0.784524 0 0 0.00633939 0.00191168 -0.571831
24 -1.93761 5.60916 -3.60973 -0.000932693 0 3.14159
25 6.02794 0 0 0.969338 0.434461 1.48241
26 11.7344 0 0 0.00140265 0 0.857572
27 8.81167 0 0 -0.00891423 0 0
28 5.77884 0 0 -0.00597257 0 0
29 2.23249 0 0 -0.00294164 0 0
30 11.4725 0 0 0.259812 -0.38721 -0.631245
31 0.615812 0.994372 -0.809165 -2.75592 0.374249 0.315718
32 2.24752 0 0 -0.565214 0.197981 0.0658204
33 1.11936 0 0 -0.0549133 0.0237985 0.34886
34 3.71349 0.102639 0.102191 -1.55367 0.888575 -0.066111
35 1.72615 0 0 -0.0121439 -0.0065126 1.19024
36 1.21112 0 0 0.0118385 0.0130726 1.33339
37 3.5992 1.06012 0.070889 -1.53154 0.266229 0.170417
38 1.66069 0 0 0.0307887 0.0659278 0.632516
39 1.16699 0 0 0.0346484 0.0172046 0.590301
40 2.18853 -0.501041 0.0576591 -1.55151 0.172885 -0.118539
41 1.29609 0 0 -0.0200505 -0.0423275 0.631309
42 1.62202 -0.000715256 -0.000469685 -0.0284748 -0.016648 1.25494
43 1.22241 0 0 -0.00733728 0.00175437 1.23076
44 1.76707 -1.27612 0.0366406 -1.52771 0.265811 -0.101503
45 1.55588 0 0 0.0305806 -0.0879844 0.525515
46 1.24273 0 0 0.000599196 0 0.710283
47 0.784531 0 0 -0.00205813 0.0064163 0.880036
48 0 0 0 0 0 0
49 -4.62821 -19.4003 -5.32059 -0.0056977 -0.000806414 -0.000599294
50 0 -1.51208 1.07027 0 0 0
51 0.540026 -0.371635 1.70233 0 0 0
52 0 -4.95108 2.17037 0 0 0
53 0 -2.31356 1.98216 0 0 0
54 -4.62708 -18.6356 -6.15334 -0.0056977 -0.000806414 -0.000599294
55 0 -0.769073 1.97674 0 0 0
56 0 -0.826365 2.70072 0 0 0
time 24
0 1.5572 9.20997 -3.60973 0.000934124 0 -1.06437
1 6.02794 0 0 -1.40735 0.42343 -0.797186
2 11.7344 0 0 -0.00140296 0 -0.584415
3 8.81138 -0.000450134 -0.000112534 -0.399001 0 0.000157826
4 5.77839 0.000286102 0 -0.267331 0 0.000104006
5 2.23163 -0.000329018 -0.000364304 -0.13167 0 0
6 11.4725 0 0 -0.463096 -0.175368 0.332228
7 0.615215 -0.993091 -0.8107 2.33805 -0.0433468 -0.360756
8 2.24752 0 0 0.0800335 0.130871 -0.022588
9 1.11936 0 0 0.0688114 0.177523 -0.338114
10 3.71348 -0.102641 0.102191 1.81842 1.37508 0.188411
11 1.72615 0 0 0.0136259 -0.0250638 -0.609754
12 1.21114 0 0 0.00236706 0.0174766 -0.462832
13 3.59919 -1.06012 0.0708883 1.68096 1.17438 0.0612364
14 1.66069 0 0 -0.00987786 0.0219166 -0.64561
15 1.167 0 0 0.0379319 -0.0317196 -0.610265
16 2.18852 0.50104 0.0576589 1.57003 0.153931 0.225781
17 1.29609 0 0 0.0343667 0.0550094 -1.22788
18 1.62202 0.000715256 -0.000471592 0.00441626 -0.0145794 -0.727069
19 1.22241 0 0 -0.00631654 0.017687 -0.370915
20 1.76707 1.27612 0.0366406 1.57002 0.26187 0.261241
21 1.55588 0 0 -0.0324567 0.00304727 -1.18264
22 1.24274 0 0 -0.00059947 0 -0.65185
23 0.784523 0 0 0.00633929 0.00191171 -0.571831
24 -1.93761 5.60916 -3.60973 -0.000932693 0 3.14159
25 6.02794 0 0 0.969408 0.434543 1.48194
26 11.7344 0 0 0.00140273 0 0.859946
27 8.81167 0 0 -0.0105394 0 0
28 5.77884 0 0 -0.00706126 0 0
29 2.23249 0 0 -0.00347793 0 0
30 11.4725 0 0 0.258742 -0.38487 -0.635316
31 0.615812 0.994372 -0.809165 -2.75592 0.374249 0.315718
32 2.24752 0 0 -0.565214 0.197981 0.0658205
33 1.11935 0 0 -0.0549133 0.0237985 0.34886
34 3.71349 0.10264 0.102191 -1.55367 0.888575 -0.0661111
35 1.72615 0 0 -0.0121439 -0.00651268 1.19024
36 1.21112 0 0 0.0118385 0.0130726 1.33339
37 3.5992 1.06012 0.0708879 -1.53154 0.266229 0.170417
38 1.66069 0 0 0.0307887 0.0659277 0.632516
39 1.16699 0 0 0.0346484 0.0172046 0.590301
40 2.18853 -0.501041 0.0576588 -1.55151 0.172885 -0.118539
41 1.29609 0 0 -0.0200505 -0.0423274 0.631309
42 1.62202 -0.000714302 -0.000469923 -0.0284748 -0.0166479 1.25494
43 1.22241 0 0 -0.00733727 0.00175439 1.23076
44 1.76707 -1.27612 0.0366404 -1.52771 0.265811 -0.101503
45 1.55588 0 0 0.0305807 -0.0879843 0.525515
46 1.24273 0 0 0.000599179 0 0.710283
47 0.784532 0 0 -0.00205821 0.00641628 0.880036
48 0 0 0 0 0 0
49 -4.62484 -19.3897 -5.31299 -0.00263747 0 0
50 0 -1.51208 1.07027 0 0 0
51 0.540026 -0.371634 1.70232 0 0 0
52 0 -4.95107 2.17037 0 0 0
53 0 -2.31356 1.98216 0 0 0
54 -4.62484 -18.6224 -6.14339 -0.00263747 0 0
55 0 -0.769073 1.97674 0 0 0
56 0 -0.826366 2.70072 0 0 0
time 25
0 1.5572 9.20997 -3.60973 0.000934124 0 -1.06437
1 6.02794 0 0 -1.40715 0.425366 -0.796891
2 11.7344 0 0 -0.00140293 0 -0.589383
3 8.81138 -0.000449181 -0.000112057 -0.398439 0 0.000158024
4 5.77839 0.000286102 0 -0.266954 0 0.000104123
5 2.23164 -0.000329971 -0.000363827 -0.131485 0 0
6 11.4725 0 0 -0.463873 -0.175467 0.336926
7 0.615219 -0.993091 -0.8107 2.33805 -0.0433468 -0.360756
8 2.24752 0 0 0.0800336 0.130871 -0.022588
9 1.11936 0 0 0.0688114 0.177523 -0.338114
10 3.71348 -0.102641 0.102191 1.81843 1.37508 0.188412
11 1.72615 0 0 0.0136259 -0.0250639 -0.609754
12 1.21114 0 0 0.00236703 0.0174766 -0.462832
13 3.59919 -1.06012 0.0708882 1.68096 1.17438 0.0612369
14 1.66069 0 0 -0.00987787 0.0219166 -0.64561
15 1.167 0 0 0.0379319 -0.0317195 -0.610265
16 2.18852 0.50104 0.0576593 1.57003 0.153931 0.225781
17 1.29609 0 0 0.0343667 0.0550095 -1.22788
18 1.62202 0.000713348 -0.000471115 0.00441627 -0.0145794 -0.727069
19 1.22241 0 0 -0.00631657 0.017687 -0.370915
20 1.76707 1.27612 0.0366409 1.57002 0.26187 0.261241
21 1.55588 0 0 -0.0324566 0.00304723 -1.18264
22 1.24273 0 0 -0.00059947 0 -0.65185
23 0.784524 0 0 0.00633937 0.00191174 -0.571831
24 -1.93761 5.60916 -3.60973 -0.000932693 0 3.14159
25 6.02794 0 0 0.969334 0.434956 1.48139
26 11.7344 0 0 0.00140271 0 0.862605
27 8.81167 0 0 -0.0115108 0 0
28 5.77884 0 0 -0.0077122 0 0
29 2.23249 0 0 -0.0037987 0 0
30 11.4725 0 0 0.25848 -0.383483 -0.638469
31 0.615812 0.994372 -0.809165 -2.75592 0.374249 0.315718
32 2.24752 0 0 -0.565214 0.197981 0.0658204
33 1.11936 0 0 -0.0549133 0.0237985 0.34886
34 3.71348 0.102639 0.102191 -1.55367 0.888575 -0.0661112
35 1.72615 0 0 -0.0121439 -0.00651266 1.19024
36 1.21112 0 0 0.0118384 0.0130726 1.33339
37 3.5992 1.06012 0.0708877 -1.53154 0.266229 0.170417
38 1.66069 0 0 0.0307887 0.0659277 0.632516
39 1.16699 0 0 0.0346484 0.0172046 0.590301
40 2.18853 -0.50104 0.0576593 -1.55151 0.172885 -0.118539
41 1.29609 0 0 -0.0200505 -0.0423275 0.631309
42 1.62202 -0.000712395 -0.000470638 -0.0284748 -0.0166479 1.25494
43 1.22241 0 0 -0.00733723 0.00175437 1.23076
44 1.76707 -1.27612 0.0366404 -1.52771 0.265811 -0.101503
45 1.55588 0 0 0.0305806 -0.0879844 0.525515
46 1.24273 0 0 0.000599224 0 0.710283
47 0.784532 0 0 -0.00205811 0.00641638 0.880036
48 0 0 0 0 0 0
49 -4.62181 -19.3774 -5.30411 -0.000984801 0.000106721 0.000375706
50 0 -1.51208 1.07027 0 0 0
51 0.540026 -0.371634 1.70233 0 0 0
52 0 -4.95108 2.17037 0 0 0
53 0 -2.31356 1.98216 0 0 0
54 -4.62219 -18.6088 -6.13324 -0.000984801 0.000106721 0.000375706
55 0 -0.769073 1.97674 0 0 0
56 0 -0.826365 2.70072 0 0 0
time 26
0 1.5572 9.20997 -3.60973 0.000934124 0 -1.06437
1 6.02794 0 0 -1.40697 0.427216 -0.796589
2 11.7344 0 0 -0.00140299 0 -0.593972
3 8.81138 -0.000450134 -0.000112772 -0.397769 0 0.000157975
4 5.77839 0.000286102 0 -0.266505 0 0.000104265
5 2.23164 -0.000329971 -0.000363827 -0.131264 0 0
6 11.4725 0 0 -0.464142 -0.175504 0.340202
7 0.615219 -0.993091 -0.8107 2.33805 -0.0433469 -0.360756
8 2.24752 0 0 0.0800336 0.130871 -0.0225881
9 1.11936 0 0 0.0688115 0.177523 -0.338114
10 3.71348 -0.102641 0.102191 1.81843 1.37508 0.188412
11 1.72615 0 0 0.0136258 -0.0250638 -0.609754
12 1.21114 0 0 0.00236706 0.0174767 -0.462832
13 3.59919 -1.06012 0.0708883 1.68096 1.17438 0.0612365
14 1.66069 0 0 -0.00987788 0.0219166 -0.64561
15 1.167 0 0 0.0379319 -0.0317195 -0.610265
16 2.18853 0.50104 0.0576591 1.57003 0.153931 0.225781
17 1.29609 0 0 0.0343667 0.0550095 -1.22788
18 1.62202 0.000711441 -0.000471115 0.00441626 -0.0145795 -0.727069
19 1.22241 0 0 -0.00631657 0.017687 -0.370915
20 1.76707 1.27612 0.0366409 1.57002 0.26187 0.261241
21 1.55588 0 0 -0.0324566 0.0030473 -1.18264
22 1.24274 0 0 -0.000599376 0 -0.65185
23 0.784523 0 0 0.00633933 0.00191166 -0.571831
24 -1.93761 5.60916 -3.60973 -0.000932693 0 3.14159
25 6.02794 0 0 0.96909 0.435785 1.48067
26 11.7344 0 0 0.00140265 0 0.865821
27 8.81167 0 0 -0.012572 0 0
28 5.77884 0 0 -0.00842323 0 0
29 2.23249 0 0 -0.00414875 0 0
30 11.4725 0 0 0.258401 -0.383036 -0.641016
31 0.615814 0.994373 -0.809165 -2.75592 0.374249 0.315718
32 2.24752 0 0 -0.565214 0.197981 0.0658205
33 1.11936 0 0 -0.0549132 0.0237985 0.34886
34 3.71349 0.102639 0.102191 -1.55367 0.888575 -0.0661109
35 1.72615 0 0 -0.0121439 -0.0065126 1.19024
36 1.21112 0 0 0.0118385 0.0130726 1.33339
37 3.5992 1.06012 0.0708885 -1.53154 0.266229 0.170417
38 1.66069 0 0 0.0307887 0.0659277 0.632516
39 1.16699 0 0 0.0346484 0.0172046 0.590301
40 2.18853 -0.50104 0.0576594 -1.55151 0.172885 -0.118539
41 1.29609 0 0 -0.0200505 -0.0423274 0.631309
42 1.62202 -0.000713348 -0.000470161 -0.0284748 -0.0166479 1.25494
43 1.22241 0 0 -0.0073373 0.00175437 1.23076
44 1.76707 -1.27612 0.0366403 -1.52771 0.265811 -0.101503
45 1.55587 0 0 0.0305806 -0.0879844 0.525515
46 1.24273 0 0 0.000599208 0 0.710283
47 0.784532 0 0 -0.0020581 0.00641631 0.880036
48 0 0 0 0 0 0
49 -4.61896 -19.3641 -5.29483 -0.000439999 0.000136602 0.000480903
50 0 -1.51208 1.07027 0 0 0
51 0.540026 -0.371634 1.70233 0 0 0
52 0 -4.95107 2.17037 0 0 0
53 0 -2.31355 1.98216 0 0 0
54 -4.61945 -18.5951 -6.12354 -0.000440002 0.000136602 0.000480903
55 0 -0.769073 1.97674 0 0 0
56 0 -0.826365 2.70072 0 0 0
time 27
0 1.5572 9.20997 -3.60973 0.000934124 0 -1.06437
1 6.02794 0 0 -1.40682 0.428972 -0.796285
2 11.7344 0 0 -0.00140289 0 -0.598194
3 8.81138 -0.000449181 -0.00011301 -0.397058 0 0.000157855
4 5.77839 0.000286102 0 -0.266028 0 0.000103811
5 2.23164 -0.000329018 -0.000363827 -0.131029 0 0
6 11.4725 0 0 -0.464097 -0.175474 0.342545
7 0.615219 -0.993091 -0.8107 2.33805 -0.0433468 -0.360756
8 2.24752 0 0 0.0800335 0.130871 -0.0225879
9 1.11936 0 0 0.0688115 0.177523 -0.338114
10 3.71348 -0.10264 0.102191 1.81843 1.37508 0.188412
11 1.72615 0 0 0.0136259 -0.0250639 -0.609754
12 1.21114 0 0 0.00236701 0.0174767 -0.462832
13 3.59919 -1.06012 0.070888 1.68096 1.17438 0.0612366
14 1.66069 0 0 -0.00987789 0.0219166 -0.64561
15 1.167 0 0 0.0379319 -0.0317195 -0.610265
16 2.18852 0.50104 0.0576587 1.57003 0.153931 0.225781
17 1.29609 0 0 0.0343668 0.0550095 -1.22788
18 1.62202 0.000715256 -0.000471115 0.00441619 -0.0145795 -0.727069
19 1.22241 0 0 -0.00631655 0.017687 -0.370915
20 1.76707 1.27612 0.0366406 1.57002 0.26187 0.261241
21 1.55588 0 0 -0.0324567 0.00304726 -1.18264
22 1.24274 0 0 -0.000599442 0 -0.65185
23 0.784524 0 0 0.00633941 0.00191172 -0.571831
24 -1.93761 5.60916 -3.60973 -0.000932693 0 3.14159
25 6.02794 0 0 0.968845 0.43653 1.48014
26 11.7344 0 0 0.00140283 0 0.868487
27 8.81167 0 0 -0.0134682 0 0
28 5.77884 0 0 -0.00902382 0 0
29 2.23249 0 0 -0.00444448 0 0
30 11.4725 0 0 0.258455 -0.383172 -0.642767
31 0.615814 0.994373 -0.809166 -2.75592 0.374249 0.315718
32 2.24752 0 0 -0.565214 0.197981 0.0658205
33 1.11936 0 0 -0.0549132 0.0237986 0.34886
34 3.71349 0.102639 0.102191 -1.55367 0.888575 -0.066111
35 1.72615 0 0 -0.0121439 -0.00651264 1.19024
36 1.21112 0 0 0.0118385 0.0130727 1.33339
37 3.5992 1.06012 0.0708882 -1.53154 0.266229 0.170417
38 1.66069 0 0 0.0307887 0.0659277 0.632516
39 1.16699 0 0 0.0346485 0.0172046 0.590301
40 2.18853 -0.501041 0.0576591 -1.55151 0.172885 -0.118539
41 1.29609 0 0 -0.0200505 -0.0423275 0.631309
42 1.62202 -0.000713348 -0.000469208 -0.0284747 -0.0166479 1.25494
43 1.22241 0 0 -0.00733723 0.00175435 1.23076
44 1.76707 -1.27612 0.0366404 -1.52771 0.265811 -0.101503
45 1.55588 0 0 0.0305806 -0.0879844 0.525515
46 1.24273 0 0 0.000599194 0 0.710283
47 0.784532 0 0 -0.00205815 0.00641637 0.880036
48 0 0 0 0 0 0
49 -4.61612 -19.3508 -5.28605 -0.000536091 0.000115258 0.000405762
50 0 -1.51208 1.07027 0 0 0
51 0.540026 -0.371635 1.70233 0 0 0
52 0 -4.95107 2.17037 0 0 0
53 0 -2.31355 1.98216 0 0 0
54 -4.61653 -18.5818 -6.11484 -0.000536091 0.000115258 0.000405762
55 0 -0.769073 1.97674 0 0 0
56 0 -0.826366 2.70072 0 0 0
time 28
0 1.5572 9.20997 -3.60973 0.000934124 0 -1.06437
1 6.02794 0 0 -1.4067 0.430628 -0.79598
2 11.7344 0 0 -0.00140273 0 -0.602053
3 8.81138 -0.000450134 -0.000112057 -0.396368 0 0.000157899
4 5.77839 0.000286102 0 -0.265567 0 0.00010426
5 2.23163 -0.000329018 -0.000363827 -0.130801 0 0
6 11.4725 0 0 -0.463931 -0.175371 0.344439
7 0.615219 -0.993091 -0.8107 2.33805 -0.0433468 -0.360756
8 2.24752 0 0 0.0800335 0.130871 -0.022588
9 1.11936 0 0 0.0688114 0.177523 -0.338114
10 3.71348 -0.102641 0.102191 1.81842 1.37508 0.188411
11 1.72615 0 0 0.0136259 -0.0250639 -0.609754
12 1.21114 0 0 0.00236705 0.0174767 -0.462832
13 3.59919 -1.06012 0.070888 1.68096 1.17438 0.0612363
14 1.66069 0 0 -0.0098779 0.0219166 -0.64561
15 1.167 0 0 0.0379319 -0.0317196 -0.610265
16 2.18852 0.50104 0.0576593 1.57003 0.153931 0.225781
17 1.29609 0 0 0.0343668 0.0550095 -1.22788
18 1.62202 0.000711441 -0.000471115 0.00441619 -0.0145795 -0.72707
19 1.22241 0 0 -0.00631658 0.017687 -0.370915
20 1.76707 1.27612 0.0366408 1.57002 0.26187 0.261241
21 1.55588 0 0 -0.0324568 0.0030472 -1.18264
22 1.24273 0 0 -0.00059948 0 -0.65185
23 0.784523 0 0 0.00633931 0.00191163 -0.571831
24 -1.93761 5.60916 -3.60973 -0.000932693 0 3.14159
25 6.02794 0 0 0.968577 0.437292 1.47966
26 11.7344 0 0 0.00140277 0 0.870971
27 8.81167 0 0 -0.0143078 0 0
28 5.77884 0 0 -0.00958616 0 0
29 2.23249 0 0 -0.00472153 0 0
30 11.4725 0 0 0.25859 -0.383532 -0.644276
31 0.615812 0.994373 -0.809166 -2.75592 0.374249 0.315718
32 2.24751 0 0 -0.565214 0.197981 0.0658205
33 1.11935 0 0 -0.0549132 0.0237985 0.34886
34 3.71349 0.102639 0.102191 -1.55367 0.888575 -0.0661113
35 1.72615 0 0 -0.0121439 -0.00651263 1.19024
36 1.21112 0 0 0.0118385 0.0130726 1.33339
37 3.5992 1.06012 0.0708879 -1.53154 0.266229 0.170417
38 1.66069 0 0 0.0307886 0.0659278 0.632516
39 1.16699 0 0 0.0346484 0.0172046 0.590301
40 2.18853 -0.50104 0.0576596 -1.55151 0.172885 -0.118539
41 1.29609 0 0 -0.0200505 -0.0423274 0.631309
42 1.62202 -0.000714302 -0.000469446 -0.0284747 -0.0166479 1.25494
43 1.22241 0 0 -0.0073373 0.00175434 1.23076
44 1.76707 -1.27612 0.0366406 -1.52771 0.265811 -0.101504
45 1.55588 0 0 0.0305806 -0.0879844 0.525515
46 1.24273 0 0 0.000599224 0 0.710283
47 0.784532 0 0 -0.00205815 0.00641633 0.880036
48 0 0 0 0 0 0
49 -4.61312 -19.3382 -5.27867 -0.000806104 0 0.000240452
50 0 -1.51208 1.07027 0 0 0
51 0.540027 -0.371634 1.70233 0 0 0
52 0 -4.95107 2.17037 0 0 0
53 0 -2.31356 1.98216 0 0 0
54 -4.61336 -18.5695 -6.10767 -0.000806104 0 0.000240452
55 0 -0.76907 1.97674 0 0 0
56 0 -0.826361 2.70072 0 0 0
time 29
0 1.5572 9.20997 -3.60973 0.000934124 0 -1.06437
1 6.02794 0 0 -1.40661 0.432172 -0.795679
2 11.7344 0 0 -0.00140289 0 -0.605554
3 8.81138 -0.000450134 -0.000112057 -0.395761 0 0.000158038
4 5.77839 0.000285149 0 -0.26516 0 0.000104202
5 2.23164 -0.000329018 -0.000363588 -0.130601 0 0
6 11.4725 0 0 -0.463841 -0.175189 0.34637
7 0.615217 -0.993091 -0.8107 2.33805 -0.0433467 -0.360756
8 2.24752 0 0 0.0800335 0.130871 -0.0225879
9 1.11936 0 0 0.0688116 0.177523 -0.338114
10 3.71348 -0.102641 0.102191 1.81843 1.37508 0.188412
11 1.72615 0 0 0.0136259 -0.0250639 -0.609754
12 1.21114 0 0 0.00236705 0.0174766 -0.462832
13 3.59919 -1.06012 0.0708878 1.68096 1.17438 0.0612367
14 1.66069 0 0 -0.00987791 0.0219166 -0.64561
15 1.167 0 0 0.0379319 -0.0317197 -0.610266
16 2.18853 0.50104 0.0576591 1.57003 0.153931 0.225781
17 1.29609 0 0 0.0343667 0.0550095 -1.22788
18 1.62202 0.000713348 -0.000470638 0.0044163 -0.0145793 -0.727069
19 1.22241 0 0 -0.00631655 0.0176869 -0.370915
20 1.76707 1.27612 0.0366408 1.57002 0.26187 0.261241
21 1.55588 0 0 -0.0324567 0.0030473 -1.18264
22 1.24274 0 0 -0.000599348 0 -0.65185
23 0.784524 0 0 0.00633932 0.0019116 -0.571831
24 -1.93761 5.60916 -3.60973 -0.000932693 0 3.14159
25 6.02794 0 0 0.968332 0.437959 1.47928
26 11.7344 0 0 0.00140262 0 0.873121
27 8.81167 0 0 -0.0150704 0 0
28 5.77884 0 0 -0.0100971 0 0
29 2.23249 0 0 -0.00497327 0 0
30 11.4725 0 0 0.258751 -0.383762 -0.645839
31 0.615814 0.994372 -0.809166 -2.75592 0.374249 0.315718
32 2.24752 0 0 -0.565214 0.197981 0.0658203
33 1.11936 0 0 -0.0549133 0.0237985 0.34886
34 3.71349 0.10264 0.102191 -1.55367 0.888575 -0.0661113
35 1.72615 0 0 -0.0121439 -0.00651269 1.19024
36 1.21112 0 0 0.0118385 0.0130726 1.33339
37 3.5992 1.06012 0.070888 -1.53154 0.266229 0.170417
38 1.66069 0 0 0.0307888 0.0659277 0.632516
39 1.16699 0 0 0.0346484 0.0172045 0.590301
40 2.18853 -0.50104 0.0576589 -1.55151 0.172885 -0.118539
41 1.29609 0 0 -0.0200505 -0.0423274 0.631309
42 1.62202 -0.000713348 -0.000469446 -0.0284748 -0.0166479 1.25494
43 1.22241 0 0 -0.00733722 0.00175433 1.23076
44 1.76707 -1.27612 0.0366405 -1.52771 0.265811 -0.101503
45 1.55587 0 0 0.0305806 -0.0879844 0.525515
46 1.24273 0 0 0.000599181 0 0.710283
47 0.784531 0 0 -0.00205818 0.00641632 0.880036
48 0 0 0 0 0 0
49 -4.60978 -19.3271 -5.27359 -0.000783065 0 0
50 0 -1.51208 1.07027 0 0 0
51 0.540027 -0.371635 1.70233 0 0 0
52 0 -4.95107 2.17037 0 0 0
53 0 -2.31355 1.98216 0 0 0
54 -4.60985 -18.5584 -6.10257 -0.000783065 0 0
55 0 -0.769072 1.97674 0 0 0
56 0 -0.826365 2.70072 0 0 0
time 30
0 1.5572 9.20997 -3.60973 0.000934124 0 -1.06437
1 6.02794 0 0 -1.40652 0.433856 -0.795337
2 11.7344 0 0 -0.00140288 0 -0.609235
3 8.81138 -0.000449181 -0.000112057 -0.395216 0 0.000157816
4 5.77839 0.000287056 0 -0.264795 0 0.000104063
5 2.23164 -0.000329018 -0.000364065 -0.130421 0 0
6 11.4725 0 0 -0.46402 -0.174922 0.349091
7 0.615219 -0.993091 -0.8107 2.33805 -0.0433468 -0.360756
8 2.24752 0 0 0.0800335 0.130871 -0.0225879
9 1.11936 0 0 0.0688114 0.177523 -0.338114
10 3.71348 -0.102641 0.102191 1.81842 1.37508 0.188411
11 1.72615 0 0 0.0136259 -0.0250639 -0.609754
12 1.21114 0 0 0.00236707 0.0174767 -0.462832
13 3.59919 -1.06012 0.0708884 1.68096 1.17438 0.0612361
14 1.66069 0 0 -0.00987787 0.0219166 -0.64561
15 1.167 0 0 0.0379319 -0.0317196 -0.610266
16 2.18853 0.501039 0.057659 1.57003 0.153931 0.225781
17 1.2961 0 0 0.0343667 0.0550095 -1.22788
18 1.62202 0.000715256 -0.000471115 0.00441626 -0.0145794 -0.727069
19 1.22241 0 0 -0.00631663 0.017687 -0.370915
20 1.76707 1.27612 0.036641 1.57002 0.26187 0.261241
21 1.55588 0 0 -0.0324566 0.00304736 -1.18264
22 1.24274 0 0 -0.000599536 0 -0.65185
23 0.784524 0 0 0.00633937 0.00191177 -0.571831
24 -1.93761 5.60916 -3.60973 -0.000932693 0 3.14159
25 6.02794 0 0 0.968156 0.438421 1.47904
26 11.7344 0 0 0.00140272 0 0.874785
27 8.81167 0 0 -0.0157288 0 0
28 5.77884 0 0 -0.0105384 0 0
29 2.23249 0 0 -0.00519044 0 0
30 11.4725 0 0 0.258886 -0.3835 -0.647746
31 0.615814 0.994373 -0.809166 -2.75592 0.374249 0.315718
32 2.24752 0 0 -0.565214 0.197981 0.0658205
33 1.11936 0 0 -0.0549132 0.0237986 0.34886
34 3.71349 0.102639 0.102191 -1.55367 0.888575 -0.0661111
35 1.72615 0 0 -0.0121439 -0.00651261 1.19024
36 1.21112 0 0 0.0118385 0.0130726 1.33339
37 3.5992 1.06012 0.0708879 -1.53154 0.266229 0.170417
38 1.66069 0 0 0.0307887 0.0659277 0.632516
39 1.16699 0 0 0.0346484 0.0172046 0.590301
40 2.18853 -0.50104 0.0576586 -1.55151 0.172885 -0.118539
41 1.29609 0 0 -0.0200504 -0.0423274 0.631309
42 1.62202 -0.000713348 -0.000469685 -0.0284748 -0.016648 1.25494
43 1.22241 0 0 -0.00733725 0.00175434 1.23076
44 1.76707 -1.27612 0.0366399 -1.52771 0.265811 -0.101503
45 1.55588 0 0 0.0305806 -0.0879844 0.525515
46 1.24273 0 0 0.000599195 0 0.710283
47 0.784532 0 0 -0.00205818 0.00641634 0.880036
48 0 0 0 0 0 0
49 -4.60592 -19.3184 -5.2717 0 0 0
50 0 -1.51208 1.07027 0 0 0
51 0.540026 -0.371634 1.70233 0 0 0
52 0 -4.95107 2.17037 0 0 0
53 0 -2.31355 1.98216 0 0 0
54 -4.60592 -18.549 -6.10007 0 0 0
55 0 -0.769073 1.97674 0 0 0
56 0 -0.826365 2.70072 0 0 0
end
