//Sequence File generated by the Wall Worm SMD Exporter PRO 1.99
//www.wallworm.com
version 1
nodes
0 "b_l_clav" -1
1 "b_l_upperarm" 0
2 "b_l_forearm" 1
3 "b_l_twist3" 2
4 "b_l_twist2" 2
5 "b_l_twist1" 2
6 "b_l_hand" 2
7 "b_l_thumb001" 6
8 "b_l_thumb002" 7
9 "b_l_thumb003" 8
10 "b_l_middle001" 6
11 "b_l_middle002" 10
12 "b_l_middle003" 11
13 "b_l_index001" 6
14 "b_l_index002" 13
15 "b_l_index003" 14
16 "b_l_hand_ringsqueezer" 6
17 "b_l_ring001" 16
18 "b_l_ring002" 17
19 "b_l_ring003" 18
20 "b_l_hand_pinkysqueezer" 6
21 "b_l_pinky001" 20
22 "b_l_pinky002" 21
23 "b_l_pinky003" 22
24 "b_r_clav" -1
25 "b_r_upperarm" 24
26 "b_r_forearm" 25
27 "b_r_twist3" 26
28 "b_r_twist2" 26
29 "b_r_twist1" 26
30 "b_r_hand" 26
31 "b_r_thumb001" 30
32 "b_r_thumb002" 31
33 "b_r_thumb003" 32
34 "b_r_middle001" 30
35 "b_r_middle002" 34
36 "b_r_middle003" 35
37 "b_r_index001" 30
38 "b_r_index002" 37
39 "b_r_index003" 38
40 "b_r_hand_ringsqueezer" 30
41 "b_r_ring001" 40
42 "b_r_ring002" 41
43 "b_r_ring003" 42
44 "b_r_hand_pinkysqueezer" 30
45 "b_r_pinky001" 44
46 "b_r_pinky002" 45
47 "b_r_pinky003" 46
48 "b_zero" -1
49 "d_gun" -1
50 "d_trig" 49
51 "d_slidelock" 49
52 "d_slide" 49
53 "d_barrel" 49
54 "d_mag" -1
55 "d_magfollower" 54
56 "d_boolet" 54
end
skeleton
time 0
0 1.5572 9.20997 -3.60973 0.000934124 0 -1.06437
1 6.02794 0 0 -1.40652 0.433856 -0.795337
2 11.7344 0 0 -0.00140288 0 -0.609235
3 8.81138 -0.000449181 -0.000112057 -0.395216 0 0.000157816
4 5.77839 0.000287056 0 -0.264795 0 0.000104063
5 2.23164 -0.000329018 -0.000364065 -0.130421 0 0
6 11.4725 0 0 -0.46402 -0.174922 0.349091
7 0.615219 -0.993091 -0.8107 2.33805 -0.0433468 -0.360756
8 2.24752 0 0 0.0800335 0.130871 -0.0225879
9 1.11936 0 0 0.0688114 0.177523 -0.338114
10 3.71348 -0.102641 0.102191 1.81842 1.37508 0.188411
11 1.72615 0 0 0.0136259 -0.0250639 -0.609754
12 1.21114 0 0 0.00236707 0.0174767 -0.462832
13 3.59919 -1.06012 0.0708884 1.68096 1.17438 0.0612361
14 1.66069 0 0 -0.00987787 0.0219166 -0.64561
15 1.167 0 0 0.0379319 -0.0317196 -0.610266
16 2.18853 0.501039 0.057659 1.57003 0.153931 0.225781
17 1.2961 0 0 0.0343667 0.0550095 -1.22788
18 1.62202 0.000715256 -0.000471115 0.00441626 -0.0145794 -0.727069
19 1.22241 0 0 -0.00631663 0.017687 -0.370915
20 1.76707 1.27612 0.036641 1.57002 0.26187 0.261241
21 1.55588 0 0 -0.0324566 0.00304736 -1.18264
22 1.24274 0 0 -0.000599536 0 -0.65185
23 0.784524 0 0 0.00633937 0.00191177 -0.571831
24 -1.93761 5.60916 -3.60973 -0.000932693 0 3.14159
25 6.02794 0 0 0.968156 0.438421 1.47904
26 11.7344 0 0 0.00140272 0 0.874785
27 8.81167 0 0 -0.0157288 0 0
28 5.77884 0 0 -0.0105384 0 0
29 2.23249 0 0 -0.00519044 0 0
30 11.4725 0 0 0.258886 -0.3835 -0.647746
31 0.615814 0.994373 -0.809166 -2.75592 0.374249 0.315718
32 2.24752 0 0 -0.565214 0.197981 0.0658205
33 1.11936 0 0 -0.0549132 0.0237986 0.34886
34 3.71349 0.102639 0.102191 -1.55367 0.888575 -0.0661111
35 1.72615 0 0 -0.0121439 -0.00651261 1.19024
36 1.21112 0 0 0.0118385 0.0130726 1.33339
37 3.5992 1.06012 0.0708879 -1.53154 0.266229 0.170417
38 1.66069 0 0 0.0307887 0.0659277 0.632516
39 1.16699 0 0 0.0346484 0.0172046 0.590301
40 2.18853 -0.50104 0.0576586 -1.55151 0.172885 -0.118539
41 1.29609 0 0 -0.0200504 -0.0423274 0.631309
42 1.62202 -0.000713348 -0.000469685 -0.0284748 -0.016648 1.25494
43 1.22241 0 0 -0.00733725 0.00175434 1.23076
44 1.76707 -1.27612 0.0366399 -1.52771 0.265811 -0.101503
45 1.55588 0 0 0.0305806 -0.0879844 0.525515
46 1.24273 0 0 0.000599195 0 0.710283
47 0.784532 0 0 -0.00205818 0.00641634 0.880036
48 0 0 0 0 0 0
49 -4.60592 -19.3184 -5.2717 0 0 0
50 0 -1.51208 1.07027 0 0 0
51 0.540026 -0.371634 1.70233 0 0 0
52 0 -4.95107 2.17037 0 0 0
53 0 -2.31355 1.98216 0 0 0
54 -4.60592 -18.549 -6.10007 0 0 0
55 0 -0.769075 1.97674 0 0 0
56 0 -0.826365 2.70072 0 0 0
time 1
0 1.5572 9.20997 -3.60973 0.000934124 0 -1.06437
1 6.02794 0 0 -1.40512 0.439268 -0.795218
2 11.7344 0 0 -0.00140281 0 -0.624086
3 8.81138 -0.000450134 -0.000112295 -0.409275 0 0.00015753
4 5.77839 0.000286102 0 -0.274214 0 0.000103931
5 2.23163 -0.000329018 -0.000363827 -0.135061 0 0
6 11.4725 0 0 -0.487184 -0.168334 0.38637
7 0.615217 -0.993091 -0.8107 2.33805 -0.0433468 -0.360756
8 2.24752 0 0 0.0800336 0.130871 -0.0225879
9 1.11936 0 0 0.0688114 0.177523 -0.338114
10 3.71348 -0.102641 0.102191 1.81842 1.37508 0.188411
11 1.72615 0 0 0.0136259 -0.0250639 -0.609754
12 1.21114 0 0 0.00236699 0.0174767 -0.462832
13 3.59919 -1.06012 0.070888 1.68096 1.17438 0.0612363
14 1.66069 0 0 -0.00987786 0.0219166 -0.64561
15 1.167 0 0 0.0379318 -0.0317196 -0.610266
16 2.18852 0.50104 0.0576594 1.57003 0.153931 0.225781
17 1.29609 0 0 0.0343667 0.0550095 -1.22788
18 1.62202 0.000713348 -0.000471115 0.00441621 -0.0145795 -0.727069
19 1.22241 0 0 -0.00631659 0.0176871 -0.370915
20 1.76707 1.27612 0.0366412 1.57002 0.26187 0.261241
21 1.55588 0 0 -0.0324567 0.00304729 -1.18264
22 1.24274 0 0 -0.000599471 0 -0.65185
23 0.784524 0 0 0.00633942 0.00191178 -0.571831
24 -1.93761 5.60916 -3.60973 -0.000932693 0 3.14159
25 6.02794 0 0 0.970115 0.43441 1.47926
26 11.7344 0 0 0.00140276 0 0.878188
27 8.81167 0 0 -0.0321361 0 0
28 5.77884 0 0 -0.0215313 0 0
29 2.23249 0 0 -0.0106048 0 0
30 11.4725 0 0 0.245071 -0.367067 -0.677273
31 0.615812 0.994373 -0.809165 -2.75592 0.374248 0.315717
32 2.24752 0 0 -0.565214 0.197981 0.0658204
33 1.11936 0 0 -0.0549134 0.0237986 0.34886
34 3.71348 0.102639 0.10219 -1.55367 0.888575 -0.0661114
35 1.72615 0 0 -0.0121439 -0.00651265 1.19024
36 1.21112 0 0 0.0118384 0.0130725 1.33339
37 3.5992 1.06012 0.0708888 -1.53154 0.266229 0.170417
38 1.66069 0 0 0.0415953 0.0601988 0.789881
39 1.16699 0 0 0.0357826 0.0116056 0.74737
40 2.18853 -0.50104 0.0576594 -1.55151 0.172885 -0.118539
41 1.29609 0 0 -0.0200504 -0.0423274 0.631309
42 1.62202 -0.000714302 -0.000470161 -0.0284748 -0.0166479 1.25494
43 1.22241 0 0 -0.00733732 0.00175442 1.23076
44 1.76707 -1.27612 0.0366404 -1.52771 0.265811 -0.101504
45 1.55588 0 0 0.0305806 -0.0879844 0.525515
46 1.24273 0 0 0.000599224 0 0.710283
47 0.784531 0 0 -0.00205817 0.00641634 0.880036
48 0 0 0 0 0 0
49 -4.60226 -19.3038 -5.28107 0.030546 0.012857 0.000393
50 0 -1.50715 1.083 0.153348 0 0
51 0.540027 -0.371319 1.69998 -0.00829679 0 0
52 0 -4.26864 2.17037 0 0 0
53 0 -2.26288 1.95355 -0.015723 0 0
54 -4.61291 -18.5095 -6.0855 0.030546 0.012857 0.000393
55 0 -0.780376 2.06144 0 0 0
56 0 -0.719267 2.36794 0 0 0
time 2
0 1.5572 9.20997 -3.60973 0.000934124 0 -1.06437
1 6.02794 0 0 -1.37378 0.576376 -0.780172
2 11.7344 0 0 -0.0014029 0 -0.872176
3 8.81138 -0.000451088 -0.000112772 -0.353129 0 0.000157628
4 5.77839 0.000285149 0 -0.236596 0 0.000103967
5 2.23163 -0.000329018 -0.000364304 -0.116532 0 0
6 11.4725 0 0 -0.44654 -0.212668 0.396279
7 0.615221 -0.993091 -0.8107 2.33805 -0.0433467 -0.360756
8 2.24752 0 0 0.0800336 0.130871 -0.022588
9 1.11936 0 0 0.0688114 0.177523 -0.338114
10 3.71348 -0.102641 0.102191 1.81843 1.37508 0.188412
11 1.72615 0 0 0.0136259 -0.0250639 -0.609754
12 1.21114 0 0 0.00236701 0.0174767 -0.462832
13 3.59919 -1.06012 0.0708878 1.68096 1.17438 0.0612361
14 1.66069 0 0 -0.00987788 0.0219166 -0.64561
15 1.167 0 0 0.0379319 -0.0317196 -0.610266
16 2.18853 0.50104 0.0576591 1.57003 0.153931 0.225781
17 1.29609 0 0 0.0343668 0.0550096 -1.22788
18 1.62202 0.000713348 -0.000471592 0.00441628 -0.0145794 -0.727069
19 1.22241 0 0 -0.00631649 0.017687 -0.370915
20 1.76707 1.27612 0.0366403 1.57002 0.26187 0.261241
21 1.55588 0 0 -0.0324566 0.00304732 -1.18264
22 1.24273 0 0 -0.00059947 0 -0.65185
23 0.784524 0 0 0.00633936 0.00191177 -0.571831
24 -1.93761 5.60916 -3.60973 -0.000932693 0 3.14159
25 6.02794 0 0 0.919516 0.550069 1.40767
26 11.7344 0 0 0.00140276 0 1.10534
27 8.81167 0 0 -0.0608305 0 0
28 5.77884 0 0 -0.0407565 0 0
29 2.23249 0 0 -0.0200741 0 0
30 11.4725 0 0 0.274233 -0.443112 -0.688173
31 0.615813 0.994373 -0.809165 -2.75592 0.374249 0.315718
32 2.24752 0 0 -0.565214 0.197981 0.0658205
33 1.11936 0 0 -0.0549131 0.0237986 0.34886
34 3.71348 0.102639 0.102191 -1.55367 0.888575 -0.0661112
35 1.72615 0 0 -0.0121439 -0.00651269 1.19024
36 1.21112 0 0 0.0118385 0.0130726 1.33339
37 3.5992 1.06012 0.0708878 -1.53154 0.266229 0.170417
38 1.66069 0 0 0.0513654 0.0528511 0.947116
39 1.16699 0 0 0.0358595 0.0054818 0.90441
40 2.18853 -0.50104 0.0576589 -1.55151 0.172885 -0.118539
41 1.29609 0 0 -0.0200504 -0.0423275 0.631309
42 1.62202 -0.000713348 -0.000470161 -0.0284748 -0.0166479 1.25494
43 1.22241 0 0 -0.0073373 0.00175434 1.23076
44 1.76707 -1.27612 0.0366402 -1.52771 0.265811 -0.101503
45 1.55588 0 0 0.0305806 -0.0879844 0.525515
46 1.24273 0 0 0.000599204 0 0.710283
47 0.784532 0 0 -0.00205812 0.00641636 0.880036
48 0 0 0 0 0 0
49 -4.60592 -17.9935 -5.2717 -0.079767 -0.010131 0.00081
50 0 -1.50025 1.10082 0.306695 0 0
51 0.540027 -0.371634 1.70233 0 0 0
52 0 -3.13127 2.17037 0 0 0
53 0 -2.17842 1.90586 -0.041928 0 0
54 -4.59751 -17.2926 -6.1587 -0.079767 -0.010131 0.00081
55 0 -0.79921 2.20261 0 0 0
56 0 -0.540768 1.81329 0 0 0
time 3
0 1.5572 9.20997 -3.60973 0.000934124 0 -1.06437
1 6.02794 0 0 -1.37053 0.598438 -0.77503
2 11.7344 0 0 -0.00140295 0 -0.91706
3 8.81138 -0.000450134 -0.000112295 -0.291768 0 0.000157813
4 5.77839 0.000286102 0 -0.195485 0 0.000104475
5 2.23164 -0.000329018 -0.000364065 -0.0962835 0 0
6 11.4725 0 0 -0.377452 -0.215313 0.367126
7 0.61522 -0.993092 -0.8107 2.33805 -0.0433468 -0.360756
8 2.24752 0 0 0.0800336 0.130871 -0.022588
9 1.11936 0 0 0.0688115 0.177523 -0.338114
10 3.71348 -0.102641 0.102191 1.81842 1.37508 0.18841
11 1.72615 0 0 0.0136259 -0.0250639 -0.609754
12 1.21114 0 0 0.00236701 0.0174767 -0.462832
13 3.59919 -1.06012 0.0708879 1.68096 1.17438 0.0612365
14 1.66069 0 0 -0.0098779 0.0219167 -0.64561
15 1.167 0 0 0.0379319 -0.0317196 -0.610265
16 2.18852 0.501039 0.057659 1.57003 0.153931 0.225781
17 1.29609 0 0 0.0343667 0.0550094 -1.22788
18 1.62202 0.000713348 -0.000471115 0.00441627 -0.0145794 -0.727069
19 1.22241 0 0 -0.00631656 0.017687 -0.370915
20 1.76707 1.27612 0.0366408 1.57002 0.26187 0.261241
21 1.55588 0 0 -0.0324566 0.00304733 -1.18264
22 1.24274 0 0 -0.000599527 0 -0.65185
23 0.784524 0 0 0.00633931 0.00191178 -0.571831
24 -1.93761 5.60916 -3.60973 -0.000932693 0 3.14159
25 6.02794 0 0 0.90414 0.576713 1.39244
26 11.7344 0 0 0.00140267 0 1.14971
27 8.81167 0 0 -0.0290459 0 0
28 5.77884 0 0 -0.0194607 0 0
29 2.23249 0 0 -0.00958521 0 0
30 11.4725 0 0 0.32803 -0.485823 -0.674296
31 0.615813 0.994373 -0.809165 -2.75592 0.374249 0.315718
32 2.24752 0 0 -0.565214 0.197981 0.0658204
33 1.11936 0 0 -0.0549133 0.0237985 0.34886
34 3.71349 0.102639 0.102191 -1.55367 0.888575 -0.0661111
35 1.72615 0 0 -0.0121439 -0.00651261 1.19024
36 1.21112 0 0 0.0118385 0.0130726 1.33339
37 3.5992 1.06012 0.0708885 -1.53154 0.266229 0.170417
38 1.66069 0 0 0.0513654 0.0528512 0.947116
39 1.16699 0 0 0.0358595 0.00548178 0.90441
40 2.18853 -0.50104 0.0576593 -1.55151 0.172885 -0.118539
41 1.29609 0 0 -0.0200505 -0.0423274 0.631309
42 1.62202 -0.000713348 -0.000470161 -0.0284748 -0.0166479 1.25494
43 1.22241 0 0 -0.00733729 0.00175436 1.23076
44 1.76707 -1.27612 0.0366398 -1.52771 0.265811 -0.101503
45 1.55588 0 0 0.0305806 -0.0879844 0.525515
46 1.24273 0 0 0.000599182 0 0.710283
47 0.784531 0 0 -0.00205814 0.00641633 0.880036
48 0 0 0 0 0 0
49 -4.63254 -17.671 -5.19817 -0.13818 -0.0597818 -0.00658281
50 0 -1.49729 1.10846 0.306695 0 0
51 0.540026 -0.374456 1.72347 0.0746711 0 0
52 0 -3.13127 2.17037 0 0 0
53 0 -2.17842 1.90586 -0.041928 0 0
54 -4.57292 -17.0234 -6.12297 -0.13818 -0.0597818 -0.00658281
55 0 -0.799213 2.20261 0 0 0
56 0 -0.54077 1.81329 0 0 0
time 4
0 1.5572 9.20997 -3.60973 0.000934124 0 -1.06437
1 6.02794 0 0 -1.38818 0.549054 -0.778581
2 11.7344 0 0 -0.00140273 0 -0.834123
3 8.81138 -0.000450134 -0.000112295 -0.24329 0 0.000157552
4 5.77839 0.000285149 0 -0.163004 0 0.000104504
5 2.23163 -0.000329971 -0.000364065 -0.0802857 0 0
6 11.4725 0 0 -0.306664 -0.193176 0.308015
7 0.615219 -0.993091 -0.8107 2.33805 -0.0433468 -0.360756
8 2.24752 0 0 0.0800335 0.130871 -0.022588
9 1.11936 0 0 0.0688114 0.177523 -0.338114
10 3.71348 -0.102641 0.102191 1.81842 1.37508 0.188411
11 1.72615 0 0 0.0136259 -0.0250639 -0.609754
12 1.21114 0 0 0.00236702 0.0174767 -0.462832
13 3.59919 -1.06012 0.070888 1.68096 1.17438 0.0612368
14 1.66069 0 0 -0.00987789 0.0219166 -0.64561
15 1.167 0 0 0.0379319 -0.0317196 -0.610265
16 2.18853 0.50104 0.0576593 1.57003 0.153931 0.225781
17 1.29609 0 0 0.0343667 0.0550095 -1.22788
18 1.62202 0.000713348 -0.000471115 0.00441624 -0.0145794 -0.727069
19 1.22241 0 0 -0.00631657 0.017687 -0.370915
20 1.76707 1.27612 0.0366408 1.57002 0.26187 0.261241
21 1.55588 0 0 -0.0324567 0.00304732 -1.18264
22 1.24274 0 0 -0.000599414 0 -0.65185
23 0.784523 0 0 0.00633934 0.00191174 -0.571831
24 -1.93761 5.60916 -3.60973 -0.000932693 0 3.14159
25 6.02794 0 0 0.918591 0.548259 1.41634
26 11.7344 0 0 0.00140274 0 1.07968
27 8.81167 0 0 0.0406665 0 0
28 5.77884 0 0 0.0272465 0 0
29 2.23249 0 0 0.0134199 0 0
30 11.4725 0 0 0.382782 -0.50564 -0.636967
31 0.615813 0.994372 -0.809165 -2.75592 0.374249 0.315718
32 2.24752 0 0 -0.565214 0.197981 0.0658202
33 1.11936 0 0 -0.0549133 0.0237983 0.34886
34 3.71349 0.102639 0.102191 -1.55367 0.888575 -0.066111
35 1.72615 0 0 -0.0121439 -0.00651265 1.19024
36 1.21112 0 0 0.0118385 0.0130726 1.33339
37 3.5992 1.06012 0.070888 -1.53154 0.266229 0.170417
38 1.66069 0 0 0.0513654 0.0528512 0.947116
39 1.16699 0 0 0.0358595 0.00548179 0.90441
40 2.18853 -0.501041 0.0576589 -1.55151 0.172885 -0.118539
41 1.29609 0 0 -0.0200505 -0.0423274 0.63131
42 1.62202 -0.000711441 -0.000470161 -0.0284748 -0.0166479 1.25494
43 1.22241 0 0 -0.00733731 0.00175436 1.23076
44 1.76707 -1.27612 0.0366409 -1.52771 0.265812 -0.101503
45 1.55588 0 0 0.0305806 -0.0879844 0.525515
46 1.24273 0 0 0.000599199 0 0.710283
47 0.784531 0 0 -0.00205815 0.00641633 0.880036
48 0 0 0 0 0 0
49 -4.67566 -18.0861 -5.08245 -0.167568 -0.111419 -0.0167861
50 0 -1.4963 1.11101 0.306695 0 0
51 0.540027 -0.376652 1.73991 0.132749 0 0
52 0 -3.13126 2.17037 0 0 0
53 0 -2.17842 1.90586 -0.041928 0 0
54 -4.56018 -17.4675 -6.02169 -0.167568 -0.111419 -0.0167861
55 0 -0.799212 2.20261 0 0 0
56 0 -0.54077 1.81329 0 0 0
time 5
0 1.5572 9.20997 -3.60973 0.000934124 0 -1.06437
1 6.02794 0 0 -1.40121 0.498612 -0.782965
2 11.7344 0 0 -0.00140293 0 -0.744402
3 8.81138 -0.000450134 -0.00011158 -0.226297 0 0.000157759
4 5.77839 0.000285149 0 -0.151619 0 0.000104775
5 2.23163 -0.000329018 -0.000363827 -0.0746779 0 0
6 11.4725 0 0 -0.272235 -0.17501 0.253034
7 0.615219 -0.993092 -0.8107 2.33805 -0.0433469 -0.360756
8 2.24752 0 0 0.0800335 0.13087 -0.022588
9 1.11936 0 0 0.0688116 0.177523 -0.338114
10 3.71348 -0.102641 0.102191 1.81842 1.37508 0.188411
11 1.72615 0 0 0.0136259 -0.0250639 -0.609754
12 1.21114 0 0 0.00236701 0.0174767 -0.462832
13 3.59919 -1.06012 0.0708879 1.68096 1.17438 0.0612369
14 1.66069 0 0 -0.0098779 0.0219166 -0.64561
15 1.167 0 0 0.0379319 -0.0317196 -0.610265
16 2.18853 0.50104 0.0576595 1.57003 0.153931 0.225781
17 1.29609 0 0 0.0343668 0.0550095 -1.22788
18 1.62202 0.000717163 -0.000471115 0.00441625 -0.0145794 -0.727069
19 1.22241 0 0 -0.00631659 0.017687 -0.370915
20 1.76707 1.27612 0.0366411 1.57002 0.26187 0.261241
21 1.55588 0 0 -0.0324566 0.00304728 -1.18264
22 1.24274 0 0 -0.000599475 0 -0.65185
23 0.784523 0 0 0.00633938 0.00191172 -0.571831
24 -1.93761 5.60916 -3.60973 -0.000932693 0 3.14159
25 6.02794 0 0 0.932965 0.51798 1.43898
26 11.7344 0 0 0.00140272 0 1.00958
27 8.81167 0 0 0.0854692 0 0
28 5.77884 0 0 0.0572643 0 0
29 2.23249 0 0 0.0282048 0 0
30 11.4725 0 0 0.405796 -0.517639 -0.601134
31 0.615814 0.994373 -0.809165 -2.75592 0.374249 0.315718
32 2.24752 0 0 -0.565214 0.197981 0.0658202
33 1.11936 0 0 -0.0549133 0.0237985 0.34886
34 3.71349 0.10264 0.102191 -1.55367 0.888575 -0.066111
35 1.72615 0 0 -0.0121439 -0.00651267 1.19024
36 1.21112 0 0 0.0118385 0.0130726 1.33339
37 3.5992 1.06012 0.0708883 -1.53154 0.266229 0.170417
38 1.66069 0 0 0.0513654 0.0528512 0.947117
39 1.16699 0 0 0.0358595 0.00548177 0.90441
40 2.18853 -0.50104 0.0576599 -1.55151 0.172885 -0.118539
41 1.29609 0 0 -0.0200504 -0.0423275 0.631309
42 1.62202 -0.000712395 -0.000469685 -0.0284748 -0.0166479 1.25494
43 1.22241 0 0 -0.00733728 0.00175436 1.23076
44 1.76707 -1.27612 0.0366409 -1.52771 0.265811 -0.101503
45 1.55587 0 0 0.0305806 -0.0879844 0.525515
46 1.24273 0 0 0.000599198 0 0.710283
47 0.78453 0 0 -0.00205814 0.00641633 0.880036
48 0 0 0 0 0 0
49 -4.71598 -18.4886 -4.9905 -0.184034 -0.133894 -0.0250626
50 0 -1.49729 1.10846 0.306695 0 0
51 0.540026 -0.376654 1.73991 0.132749 0 0
52 0 -3.13126 2.17037 0 0 0
53 0 -2.17842 1.90586 -0.041928 0 0
54 -4.57335 -17.8871 -5.93714 -0.184034 -0.133894 -0.0250626
55 0 -0.79921 2.20261 0 0 0
56 0 -0.54077 1.81329 0 0 0
time 6
0 1.5572 9.20997 -3.60973 0.000934124 0 -1.06437
1 6.02794 0 0 -1.40451 0.479905 -0.785237
2 11.7344 0 0 -0.00140292 0 -0.712038
3 8.81138 -0.000450134 -0.00011158 -0.231287 0 0.000157991
4 5.77839 0.000287056 0 -0.154962 0 0.00010492
5 2.23163 -0.000329971 -0.000364065 -0.0763248 0 0
6 11.4725 0 0 -0.273271 -0.164874 0.244245
7 0.615221 -0.993091 -0.8107 2.33805 -0.0433467 -0.360756
8 2.24752 0 0 0.0800336 0.130871 -0.022588
9 1.11936 0 0 0.0688115 0.177523 -0.338114
10 3.71348 -0.102641 0.102191 1.81842 1.37508 0.188412
11 1.72615 0 0 0.0136259 -0.0250639 -0.609754
12 1.21114 0 0 0.00236703 0.0174767 -0.462832
13 3.5992 -1.06012 0.0708885 1.68096 1.17438 0.0612366
14 1.66069 0 0 -0.00987789 0.0219166 -0.64561
15 1.167 0 0 0.0379319 -0.0317196 -0.610266
16 2.18853 0.50104 0.057659 1.57003 0.153931 0.225781
17 1.29609 0 0 0.0343667 0.0550094 -1.22788
18 1.62202 0.000711441 -0.000471592 0.0044162 -0.0145795 -0.727069
19 1.22241 0 0 -0.00631656 0.0176869 -0.370915
20 1.76707 1.27612 0.0366414 1.57002 0.26187 0.261241
21 1.55588 0 0 -0.0324566 0.00304728 -1.18264
22 1.24274 0 0 -0.000599447 0 -0.65185
23 0.784523 0 0 0.00633935 0.00191176 -0.571831
24 -1.93761 5.60916 -3.60973 -0.000932693 0 3.14159
25 6.02794 0 0 0.938715 0.505831 1.44624
26 11.7344 0 0 0.0014028 0 0.987111
27 8.81167 0 0 0.0856865 0 0
28 5.77884 0 0 0.0574101 0 0
29 2.23249 0 0 0.0282766 0 0
30 11.4725 0 0 0.406195 -0.517566 -0.60149
31 0.615812 0.994373 -0.809165 -2.75592 0.374249 0.315717
32 2.24752 0 0 -0.565214 0.197981 0.0658203
33 1.11936 0 0 -0.0549133 0.0237985 0.34886
34 3.71349 0.10264 0.102191 -1.55367 0.888575 -0.0661113
35 1.72615 0 0 -0.0121439 -0.00651265 1.19024
36 1.21112 0 0 0.0118385 0.0130726 1.33339
37 3.5992 1.06012 0.0708885 -1.53154 0.266229 0.170416
38 1.66069 0 0 0.0513654 0.0528512 0.947116
39 1.16699 0 0 0.0358595 0.00548179 0.90441
40 2.18853 -0.50104 0.057659 -1.55151 0.172885 -0.118539
41 1.29609 0 0 -0.0200505 -0.0423275 0.631309
42 1.62202 -0.000713348 -0.000469685 -0.0284748 -0.0166479 1.25494
43 1.22241 0 0 -0.00733728 0.00175436 1.23076
44 1.76707 -1.27612 0.0366405 -1.52771 0.265812 -0.101504
45 1.55587 0 0 0.0305806 -0.0879844 0.525515
46 1.24273 0 0 0.000599201 0 0.710283
47 0.784531 0 0 -0.00205815 0.00641634 0.880036
48 0 0 0 0 0 0
49 -4.74915 -18.6269 -4.95593 -0.177696 -0.133278 -0.0331662
50 0 -1.50025 1.10082 0.306695 0 0
51 0.540026 -0.376654 1.73991 0.132749 0 0
52 0 -3.13126 2.17037 0 0 0
53 0 -2.17842 1.90586 -0.041928 0 0
54 -4.60254 -18.0206 -5.89883 -0.177696 -0.133278 -0.0331662
55 0 -0.799212 2.20261 0 0 0
56 0 -0.540768 1.81329 0 0 0
time 7
0 1.5572 9.20997 -3.60973 0.000934124 0 -1.06437
1 6.02794 0 0 -1.4054 0.465612 -0.788203
2 11.7344 0 0 -0.0014028 0 -0.685035
3 8.81139 -0.000450134 -0.000112057 -0.255238 0 0.000157898
4 5.77839 0.000285149 0 -0.171009 0 0.000104545
5 2.23164 -0.000329018 -0.000363827 -0.0842284 0 0
6 11.4725 0 0 -0.297014 -0.157506 0.250355
7 0.615219 -0.993091 -0.8107 2.33805 -0.0433467 -0.360756
8 2.24752 0 0 0.0800335 0.130871 -0.022588
9 1.11936 0 0 0.0688116 0.177523 -0.338114
10 3.71348 -0.102641 0.102191 1.81843 1.37508 0.188411
11 1.72615 0 0 0.0136259 -0.0250639 -0.609754
12 1.21113 0 0 0.002367 0.0174767 -0.462832
13 3.59919 -1.06012 0.0708882 1.68096 1.17438 0.0612366
14 1.66069 0 0 -0.00987788 0.0219166 -0.64561
15 1.167 0 0 0.0379319 -0.0317196 -0.610266
16 2.18852 0.50104 0.057659 1.57003 0.153931 0.225781
17 1.29609 0 0 0.0343667 0.0550095 -1.22788
18 1.62202 0.000713348 -0.000471592 0.00441619 -0.0145794 -0.72707
19 1.22241 0 0 -0.00631656 0.017687 -0.370915
20 1.76707 1.27612 0.0366409 1.57002 0.26187 0.261241
21 1.55588 0 0 -0.0324567 0.00304735 -1.18264
22 1.24274 0 0 -0.000599513 0 -0.65185
23 0.784524 0 0 0.0063393 0.00191167 -0.571831
24 -1.93761 5.60916 -3.60973 -0.000932693 0 3.14159
25 6.02794 0 0 0.944243 0.494555 1.45126
26 11.7344 0 0 0.00140265 0 0.969692
27 8.81167 0 0 0.0647466 0 0
28 5.77884 0 0 0.0433802 0 0
29 2.23249 0 0 0.0213664 0 0
30 11.4725 0 0 0.389333 -0.507166 -0.612143
31 0.615812 0.994372 -0.809165 -2.75592 0.374249 0.315718
32 2.24752 0 0 -0.565214 0.197981 0.0658204
33 1.11935 0 0 -0.0549133 0.0237985 0.34886
34 3.71349 0.10264 0.102191 -1.55367 0.888575 -0.066111
35 1.72615 0 0 -0.0121439 -0.00651261 1.19024
36 1.21112 0 0 0.0118385 0.0130726 1.33339
37 3.5992 1.06012 0.0708886 -1.53271 0.235488 0.161048
38 1.66069 0 0 0.0499076 0.0540612 0.922722
39 1.16699 0 0 0.0355372 0.00318715 0.968137
40 2.18853 -0.50104 0.0576591 -1.55151 0.172885 -0.118539
41 1.29609 0 0 -0.0200505 -0.0423275 0.631309
42 1.62202 -0.000713348 -0.000469685 -0.0284748 -0.0166479 1.25494
43 1.22241 0 0 -0.00733726 0.00175436 1.23076
44 1.76707 -1.27612 0.036641 -1.52771 0.265811 -0.101503
45 1.55588 0 0 0.0305806 -0.0879844 0.525515
46 1.24273 0 0 0.000599205 0 0.710283
47 0.784531 0 0 -0.00205813 0.00641633 0.880036
48 0 0 0 0 0 0
49 -4.78252 -18.7506 -4.96176 -0.155326 -0.116039 -0.0408348
50 0 -1.50715 1.083 0.153348 0 0
51 0.540026 -0.376656 1.73991 0.132749 0 0
52 0 -3.13127 2.17037 0 0 0
53 0 -2.17842 1.90586 -0.041928 0 0
54 -4.64827 -18.1236 -5.89289 -0.155326 -0.116039 -0.0408348
55 0 -0.799215 2.20261 0 0 0
56 0 -0.540771 1.81329 0 0 0
time 8
0 1.5572 9.20997 -3.60973 0.000934124 0 -1.06437
1 6.02794 0 0 -1.40488 0.45474 -0.791465
2 11.7344 0 0 -0.00140283 0 -0.66236
3 8.81138 -0.000450134 -0.000112534 -0.290663 0 0.000158019
4 5.77839 0.000286102 0 -0.194745 0 0.000104539
5 2.23164 -0.000329971 -0.000364304 -0.0959189 0 0
6 11.4725 0 0 -0.334183 -0.15063 0.265291
7 0.615217 -0.993091 -0.8107 2.33805 -0.0433468 -0.360756
8 2.24752 0 0 0.0800335 0.130871 -0.022588
9 1.11935 0 0 0.0688114 0.177523 -0.338114
10 3.71348 -0.102641 0.102191 1.81842 1.37508 0.188411
11 1.72615 0 0 0.0136259 -0.0250639 -0.609754
12 1.21114 0 0 0.00236701 0.0174767 -0.462832
13 3.59919 -1.06012 0.070888 1.68096 1.17438 0.0612362
14 1.66069 0 0 -0.0098779 0.0219166 -0.64561
15 1.167 0 0 0.0379319 -0.0317196 -0.610266
16 2.18852 0.50104 0.0576589 1.57003 0.153931 0.225781
17 1.29609 0 0 0.0343667 0.0550095 -1.22788
18 1.62202 0.000715256 -0.000471592 0.00441623 -0.0145794 -0.727069
19 1.22241 0 0 -0.00631656 0.0176869 -0.370915
20 1.76707 1.27612 0.036641 1.57002 0.26187 0.261241
21 1.55588 0 0 -0.0324566 0.00304726 -1.18264
22 1.24274 0 0 -0.00059947 0 -0.65185
23 0.784522 0 0 0.00633939 0.0019118 -0.571831
24 -1.93761 5.60916 -3.60973 -0.000932693 0 3.14159
25 6.02794 0 0 0.949397 0.484056 1.45512
26 11.7344 0 0 0.00140262 0 0.95527
27 8.81167 0 0 0.0322397 0 0
28 5.77884 0 0 0.0216005 0 0
29 2.23249 0 0 0.0106391 0 0
30 11.4725 0 0 0.362121 -0.491753 -0.629156
31 0.615813 0.994372 -0.809165 -2.75592 0.374249 0.315718
32 2.24752 0 0 -0.565214 0.197981 0.0658203
33 1.11936 0 0 -0.0549132 0.0237986 0.34886
34 3.71348 0.102639 0.102191 -1.55367 0.888575 -0.0661108
35 1.72615 0 0 -0.0121439 -0.00651268 1.19024
36 1.21112 0 0 0.0118385 0.0130726 1.33339
37 3.5992 1.06012 0.0708886 -1.53236 0.169667 0.144615
38 1.66069 0 0 0.045602 0.057321 0.853236
39 1.16699 0 0 0.0342031 -0.00135662 1.08948
40 2.18853 -0.50104 0.0576594 -1.55151 0.172885 -0.118539
41 1.29609 0 0 -0.0200505 -0.0423275 0.631309
42 1.62202 -0.000713348 -0.000469208 -0.0284748 -0.0166479 1.25494
43 1.22241 0 0 -0.00733732 0.00175437 1.23076
44 1.76707 -1.27612 0.0366406 -1.52771 0.265812 -0.101503
45 1.55588 0 0 0.0305806 -0.0879844 0.525515
46 1.24273 0 0 0.000599199 0 0.710283
47 0.784532 0 0 -0.00205816 0.00641634 0.880036
48 0 0 0 0 0 0
49 -4.81428 -18.8608 -4.998 -0.123694 -0.0886492 -0.0478062
50 0 -1.51208 1.07027 0 0 0
51 0.540026 -0.376652 1.73991 0.132749 0 0
52 0 -3.13126 2.17037 0 0 0
53 0 -2.17842 1.90586 -0.041928 0 0
54 -4.70159 -18.2042 -5.91137 -0.123694 -0.0886492 -0.0478062
55 0 -0.79921 2.20261 0 0 0
56 0 -0.540771 1.81329 0 0 0
time 9
0 1.5572 9.20997 -3.60973 0.000934124 0 -1.06437
1 6.02794 0 0 -1.4038 0.446043 -0.794659
2 11.7344 0 0 -0.00140261 0 -0.642319
3 8.81138 -0.000450134 -0.000112057 -0.330085 0 0.00015819
4 5.77839 0.000286102 0 -0.221157 0 0.000104569
5 2.23163 -0.000329971 -0.000363827 -0.108928 0 0
6 11.4725 0 0 -0.375691 -0.142834 0.282561
7 0.615221 -0.993091 -0.8107 2.33805 -0.0433469 -0.360756
8 2.24752 0 0 0.0800335 0.130871 -0.022588
9 1.11936 0 0 0.0688116 0.177523 -0.338114
10 3.71348 -0.102641 0.102191 1.81842 1.37508 0.18841
11 1.72615 0 0 0.0136259 -0.0250639 -0.609754
12 1.21114 0 0 0.00236702 0.0174767 -0.462832
13 3.59919 -1.06012 0.0708879 1.68096 1.17438 0.0612368
14 1.66069 0 0 -0.00987788 0.0219166 -0.64561
15 1.167 0 0 0.0379319 -0.0317196 -0.610265
16 2.18853 0.50104 0.057659 1.57003 0.153931 0.225781
17 1.29609 0 0 0.0343668 0.0550095 -1.22788
18 1.62202 0.000715256 -0.000471115 0.00441622 -0.0145794 -0.727069
19 1.22241 0 0 -0.00631651 0.017687 -0.370915
20 1.76707 1.27612 0.0366405 1.57002 0.26187 0.261241
21 1.55588 0 0 -0.0324566 0.00304728 -1.18264
22 1.24273 0 0 -0.000599471 0 -0.65185
23 0.784523 0 0 0.00633927 0.00191174 -0.571831
24 -1.93761 5.60916 -3.60973 -0.000932693 0 3.14159
25 6.02794 0 0 0.95409 0.474094 1.45895
26 11.7344 0 0 0.00140265 0 0.941295
27 8.81167 0 0 -0.00249171 0 0
28 5.77884 0 0 -0.00166938 0 0
29 2.23249 0 0 -0.000822336 0 0
30 11.4725 0 0 0.331385 -0.476159 -0.64777
31 0.615812 0.994373 -0.809165 -2.75592 0.374249 0.315718
32 2.24752 0 0 -0.565214 0.197981 0.0658206
33 1.11936 0 0 -0.0549133 0.0237985 0.34886
34 3.71348 0.10264 0.102191 -1.55367 0.888575 -0.066111
35 1.72615 0 0 -0.0121439 -0.00651268 1.19024
36 1.21112 0 0 0.0118385 0.0130726 1.33339
37 3.5992 1.06012 0.0708885 -1.52822 0.108798 0.137327
38 1.66069 0 0 0.0384217 0.0618378 0.744191
39 1.16699 0 0 0.032478 -0.00434549 1.16369
40 2.18853 -0.501041 0.0576584 -1.55151 0.172885 -0.118539
41 1.29609 0 0 -0.0200504 -0.0423274 0.631309
42 1.62202 -0.000713348 -0.000469685 -0.0284748 -0.0166479 1.25494
43 1.22241 0 0 -0.00733728 0.00175437 1.23076
44 1.76707 -1.27612 0.0366405 -1.52771 0.265811 -0.101503
45 1.55588 0 0 0.0305806 -0.0879844 0.525515
46 1.24273 0 0 0.000599186 0 0.710283
47 0.784532 0 0 -0.00205816 0.00641632 0.880036
48 0 0 0 0 0 0
49 -4.84264 -18.9589 -5.05467 -0.0895711 -0.0575796 -0.0538183
50 0 -1.51208 1.07027 0 0 0
51 0.540026 -0.376652 1.73991 0.132749 0 0
52 0 -3.13126 2.17037 0 0 0
53 0 -2.17842 1.90586 -0.041928 0 0
54 -4.75403 -18.2704 -5.94707 -0.0895711 -0.0575796 -0.0538183
55 0 -0.79921 2.20261 0 0 0
56 0 -0.54077 1.81329 0 0 0
time 10
0 1.5572 9.20997 -3.60973 0.000934124 0 -1.06437
1 6.02794 0 0 -1.40287 0.438439 -0.79746
2 11.7344 0 0 -0.00140275 0 -0.623289
3 8.81139 -0.000450134 -0.000111818 -0.365992 0 0.000157888
4 5.77839 0.000286102 0 -0.245215 0 0.000104197
5 2.23164 -0.000329971 -0.000363827 -0.120777 0 0
6 11.4725 0 0 -0.41271 -0.134529 0.295732
7 0.615217 -0.993091 -0.8107 2.33805 -0.0433469 -0.360756
8 2.24752 0 0 0.0800335 0.130871 -0.0225881
9 1.11936 0 0 0.0688114 0.177523 -0.338114
10 3.71348 -0.102641 0.102191 1.81842 1.37508 0.188411
11 1.72615 0 0 0.0136259 -0.0250639 -0.609754
12 1.21114 0 0 0.00236704 0.0174767 -0.462832
13 3.59919 -1.06012 0.0708882 1.68096 1.17438 0.061236
14 1.66069 0 0 -0.0098779 0.0219166 -0.64561
15 1.167 0 0 0.0379319 -0.0317195 -0.610266
16 2.18852 0.50104 0.0576588 1.57003 0.153931 0.225781
17 1.29609 0 0 0.0343667 0.0550095 -1.22788
18 1.62202 0.000715256 -0.000471592 0.00441626 -0.0145794 -0.72707
19 1.22241 0 0 -0.00631653 0.017687 -0.370915
20 1.76707 1.27612 0.0366408 1.57002 0.26187 0.261241
21 1.55588 0 0 -0.0324566 0.00304733 -1.18264
22 1.24274 0 0 -0.000599489 0 -0.65185
23 0.784523 0 0 0.00633935 0.00191182 -0.571831
24 -1.93761 5.60916 -3.60973 -0.000932693 0 3.14159
25 6.02794 0 0 0.957896 0.465471 1.46282
26 11.7344 0 0 0.00140264 0 0.927587
27 8.81167 0 0 -0.0319903 0 0
28 5.77884 0 0 -0.0214335 0 0
29 2.23249 0 0 -0.0105567 0 0
30 11.4725 0 0 0.303732 -0.464069 -0.663286
31 0.615812 0.994372 -0.809166 -2.75592 0.374249 0.315718
32 2.24752 0 0 -0.565214 0.197981 0.0658206
33 1.11936 0 0 -0.0549133 0.0237986 0.34886
34 3.71348 0.102639 0.102191 -1.55367 0.888575 -0.066111
35 1.72615 0 0 -0.0121439 -0.00651266 1.19024
36 1.21112 0 0 0.0118385 0.0130726 1.33339
37 3.5992 1.06012 0.0708879 -1.52232 0.0932818 0.154036
38 1.66069 0 0 0.0283388 0.0665697 0.60111
39 1.16699 0 0 0.0320948 -0.00184918 1.08602
40 2.18853 -0.501041 0.0576586 -1.55151 0.172885 -0.118539
41 1.29609 0 0 -0.0200505 -0.0423274 0.631309
42 1.62202 -0.000714302 -0.000470161 -0.0284748 -0.0166479 1.25494
43 1.22241 0 0 -0.00733727 0.00175436 1.23076
44 1.76707 -1.27612 0.0366406 -1.52771 0.265811 -0.101503
45 1.55588 0 0 0.0305806 -0.0879844 0.525515
46 1.24273 0 0 0.000599189 0 0.710283
47 0.784532 0 0 -0.00205815 0.00641634 0.880036
48 0 0 0 0 0 0
49 -4.86577 -19.046 -5.1218 -0.0597285 -0.0293009 -0.0586091
50 0 -1.51208 1.07027 0 0 0
51 0.540026 -0.376654 1.73991 0.132749 0 0
52 0 -3.13127 2.17037 0 0 0
53 0 -2.17842 1.90586 -0.041928 0 0
54 -4.79815 -18.3302 -5.99425 -0.0597285 -0.0293009 -0.0586091
55 0 -0.799212 2.20261 0 0 0
56 0 -0.540771 1.81329 0 0 0
time 11
0 1.5572 9.20997 -3.60973 0.000934124 0 -1.06437
1 6.02794 0 0 -1.40264 0.430727 -0.799658
2 11.7344 0 0 -0.0014029 0 -0.603185
3 8.81139 -0.000450134 -0.000112295 -0.390936 0 0.000158078
4 5.77839 0.000286102 0 -0.261927 0 0.000104194
5 2.23163 -0.000329018 -0.000364065 -0.129009 0 0
6 11.4725 0 0 -0.436784 -0.127846 0.298375
7 0.615223 -0.993091 -0.8107 2.33805 -0.0433468 -0.360756
8 2.24752 0 0 0.0800335 0.130871 -0.0225879
9 1.11936 0 0 0.0688114 0.177523 -0.338114
10 3.71348 -0.102641 0.102191 1.81843 1.37508 0.188412
11 1.72615 0 0 0.0136259 -0.0250639 -0.609754
12 1.21114 0 0 0.00236698 0.0174767 -0.462832
13 3.5992 -1.06012 0.0708878 1.68096 1.17438 0.0612366
14 1.66069 0 0 -0.00987792 0.0219166 -0.64561
15 1.167 0 0 0.0379319 -0.0317196 -0.610265
16 2.18853 0.50104 0.0576591 1.57003 0.153931 0.225781
17 1.29609 0 0 0.0343669 0.0550094 -1.22788
18 1.62202 0.000713348 -0.000471115 0.00441626 -0.0145794 -0.727069
19 1.22241 0 0 -0.00631654 0.017687 -0.370915
20 1.76707 1.27612 0.0366411 1.57002 0.26187 0.261241
21 1.55588 0 0 -0.0324567 0.00304732 -1.18264
22 1.24274 0 0 -0.000599461 0 -0.65185
23 0.784523 0 0 0.00633933 0.00191179 -0.571831
24 -1.93761 5.60916 -3.60973 -0.000932693 0 3.14159
25 6.02794 0 0 0.960504 0.458895 1.46668
26 11.7344 0 0 0.00140278 0 0.913612
27 8.81167 0 0 -0.0494679 0 0
28 5.77884 0 0 -0.0331435 0 0
29 2.23249 0 0 -0.0163244 0 0
30 11.4725 0 0 0.285514 -0.457976 -0.66985
31 0.615813 0.994373 -0.809166 -2.75592 0.374249 0.315718
32 2.24752 0 0 -0.565214 0.197981 0.0658203
33 1.11936 0 0 -0.0549132 0.0237986 0.34886
34 3.71349 0.102639 0.102191 -1.55367 0.888575 -0.066111
35 1.72615 0 0 -0.0121439 -0.00651268 1.19024
36 1.21112 0 0 0.0118385 0.0130726 1.33339
37 3.5992 1.06012 0.070888 -1.50789 0.154952 0.217695
38 1.66069 0 0 0.0106128 0.071149 0.365787
39 1.16699 0 0 0.0302237 0.0101795 0.719131
40 2.18853 -0.50104 0.0576587 -1.55151 0.172885 -0.118539
41 1.29609 0 0 -0.0200504 -0.0423275 0.631309
42 1.62202 -0.000713348 -0.000469208 -0.0284748 -0.0166479 1.25494
43 1.22241 0 0 -0.00733726 0.00175432 1.23076
44 1.76707 -1.27612 0.0366406 -1.52771 0.265811 -0.101503
45 1.55588 0 0 0.0305806 -0.0879844 0.525515
46 1.24273 0 0 0.000599165 0 0.710283
47 0.784531 0 0 -0.0020582 0.00641634 0.880036
48 0 0 0 0 0 0
49 -4.88188 -19.1235 -5.1894 -0.0409369 -0.0102839 -0.0619164
50 0 -1.51208 1.07027 0 0 0
51 0.540026 -0.376656 1.73991 0.132749 0 0
52 0 -3.13126 2.17037 0 0 0
53 0 -2.17842 1.90586 -0.041928 0 0
54 -4.82759 -18.3906 -6.04852 -0.0409369 -0.0102839 -0.0619164
55 0 -0.799212 2.20261 0 0 0
56 0 -0.540771 1.81329 0 0 0
time 12
0 1.5572 9.20997 -3.60973 0.000934124 0 -1.06437
1 6.02794 0 0 -1.40296 0.423047 -0.80134
2 11.7344 0 0 -0.00140275 0 -0.58297
3 8.81138 -0.000450134 -0.000111818 -0.406857 0 0.000157818
4 5.77839 0.000286102 0 -0.272594 0 0.000104071
5 2.23163 -0.000329971 -0.000363827 -0.134263 0 0
6 11.4725 0 0 -0.450609 -0.124277 0.292402
7 0.615219 -0.993091 -0.8107 2.33805 -0.0433469 -0.360756
8 2.24752 0 0 0.0800336 0.130871 -0.0225881
9 1.11936 0 0 0.0688114 0.177523 -0.338114
10 3.71348 -0.102641 0.102191 1.81842 1.37508 0.188411
11 1.72615 0 0 0.0136259 -0.0250638 -0.609754
12 1.21114 0 0 0.00236703 0.0174767 -0.462832
13 3.59919 -1.06012 0.070888 1.68096 1.17438 0.061236
14 1.66069 0 0 -0.0098779 0.0219167 -0.64561
15 1.167 0 0 0.0379319 -0.0317196 -0.610265
16 2.18853 0.50104 0.0576589 1.57003 0.153931 0.225781
17 1.29609 0 0 0.0343667 0.0550094 -1.22788
18 1.62202 0.000713348 -0.000471115 0.00441618 -0.0145794 -0.727069
19 1.22241 0 0 -0.00631649 0.017687 -0.370915
20 1.76707 1.27612 0.0366411 1.57002 0.26187 0.261241
21 1.55588 0 0 -0.0324567 0.00304734 -1.18264
22 1.24274 0 0 -0.000599386 0 -0.65185
23 0.784523 0 0 0.00633932 0.00191172 -0.571831
24 -1.93761 5.60916 -3.60973 -0.000932693 0 3.14159
25 6.02794 0 0 0.962223 0.454027 1.47026
26 11.7344 0 0 0.00140268 0 0.900102
27 8.81167 0 0 -0.0576308 0 0
28 5.77884 0 0 -0.0386126 0 0
29 2.23249 0 0 -0.0190182 0 0
30 11.4725 0 0 0.274146 -0.455912 -0.66773
31 0.615812 0.994372 -0.809165 -2.75592 0.374249 0.315718
32 2.24752 0 0 -0.565214 0.197981 0.0658204
33 1.11936 0 0 -0.0549135 0.0237986 0.34886
34 3.71348 0.102639 0.102191 -1.55367 0.888575 -0.0661112
35 1.72615 0 0 -0.0121439 -0.00651265 1.19024
36 1.21112 0 0 0.0118385 0.0130727 1.33339
37 3.5992 1.06012 0.070889 -1.47637 0.245169 0.303654
38 1.66069 0 0 -0.0105042 0.0711787 0.0945138
39 1.16699 0 0 0.0196907 0.0212407 0.235117
40 2.18853 -0.501041 0.0576596 -1.55151 0.172885 -0.118539
41 1.29609 0 0 -0.0200504 -0.0423274 0.631309
42 1.62201 -0.000713348 -0.000470161 -0.0284748 -0.0166479 1.25494
43 1.22241 0 0 -0.00733728 0.0017543 1.23076
44 1.76707 -1.27612 0.0366404 -1.52771 0.265811 -0.101503
45 1.55588 0 0 0.0305806 -0.0879843 0.525515
46 1.24273 0 0 0.000599201 0 0.710283
47 0.784531 0 0 -0.00205812 0.00641635 0.880036
48 0 0 0 0 0 0
49 -4.88916 -19.1925 -5.2475 -0.0321173 0.00145144 -0.0632553
50 0 -1.51208 1.07027 0 0 0
51 0.540026 -0.376654 1.73991 0.132749 0 0
52 0 -3.13126 2.17037 0 0 0
53 0 -2.17842 1.90586 -0.041928 0 0
54 -4.84347 -18.4515 -6.10015 -0.0321173 0.00145144 -0.0632553
55 0 -0.799212 2.20261 0 0 0
56 0 -0.54077 1.81329 0 0 0
time 13
0 1.5572 9.20997 -3.60973 0.000934124 0 -1.06437
1 6.02794 0 0 -1.40346 0.415886 -0.802703
2 11.7344 0 0 -0.00140282 0 -0.564786
3 8.81139 -0.000450134 -0.000112534 -0.42073 0 0.000158075
4 5.77839 0.000286102 0 -0.281889 0 0.000104174
5 2.23164 -0.000329971 -0.000363827 -0.138841 0 0
6 11.4725 0 0 -0.462474 -0.123105 0.28451
7 0.615221 -0.993091 -0.8107 2.33805 -0.0433468 -0.360756
8 2.24752 0 0 0.0800335 0.130871 -0.022588
9 1.11936 0 0 0.0688115 0.177523 -0.338114
10 3.71348 -0.102641 0.102191 1.81842 1.37508 0.188411
11 1.72615 0 0 0.0136259 -0.0250639 -0.609754
12 1.21114 0 0 0.00236708 0.0174767 -0.462832
13 3.59919 -1.06012 0.070888 1.68096 1.17438 0.061236
14 1.66069 0 0 -0.00987789 0.0219166 -0.64561
15 1.167 0 0 0.0379319 -0.0317195 -0.610266
16 2.18852 0.50104 0.0576589 1.57003 0.153932 0.225781
17 1.29609 0 0 0.0343668 0.0550095 -1.22788
18 1.62202 0.000715256 -0.000470638 0.00441617 -0.0145795 -0.727069
19 1.22241 0 0 -0.00631654 0.017687 -0.370915
20 1.76707 1.27612 0.0366411 1.57002 0.26187 0.261241
21 1.55588 0 0 -0.0324566 0.00304735 -1.18264
22 1.24274 0 0 -0.00059948 0 -0.65185
23 0.784524 0 0 0.00633933 0.00191179 -0.571831
24 -1.93761 5.60916 -3.60973 -0.000932693 0 3.14159
25 6.02794 0 0 0.963774 0.44951 1.47364
26 11.7344 0 0 0.00140268 0 0.887763
27 8.81167 0 0 -0.0639564 0 0
28 5.77884 0 0 -0.0428508 0 0
29 2.23249 0 0 -0.0211057 0 0
30 11.4725 0 0 0.262832 -0.454345 -0.66198
31 0.615813 0.994373 -0.809165 -2.75592 0.374249 0.315718
32 2.24752 0 0 -0.565214 0.197981 0.0658203
33 1.11936 0 0 -0.0549133 0.0237985 0.34886
34 3.71349 0.102639 0.102191 -1.55367 0.888575 -0.0661113
35 1.72615 0 0 -0.0121438 -0.00651274 1.19024
36 1.21112 0 0 0.0118385 0.0130726 1.33339
37 3.5992 1.06012 0.0708885 -1.45448 0.289842 0.348452
38 1.66069 0 0 -0.0204447 0.0691882 -0.0352877
39 1.16699 0 0 0.0118833 0.0235393 -0.00622653
40 2.18853 -0.50104 0.0576591 -1.55151 0.172885 -0.118539
41 1.29609 0 0 -0.0200504 -0.0423275 0.631309
42 1.62202 -0.000712395 -0.000469446 -0.0284747 -0.0166479 1.25494
43 1.22241 0 0 -0.00733728 0.00175434 1.23076
44 1.76707 -1.27612 0.0366399 -1.52771 0.265811 -0.101503
45 1.55587 0 0 0.0305806 -0.0879843 0.525515
46 1.24273 0 0 0.000599216 0 0.710283
47 0.784531 0 0 -0.00205815 0.00641634 0.880036
48 0 0 0 0 0 0
49 -4.8858 -19.2543 -5.28612 -0.0272055 0.0122702 -0.0625446
50 0 -1.51208 1.07027 0 0 0
51 0.540026 -0.376656 1.73991 0.132749 0 0
52 0 -3.13127 2.17037 0 0 0
53 0 -2.17842 1.90586 -0.041928 0 0
54 -4.84954 -18.5085 -6.13505 -0.0272055 0.0122702 -0.0625446
55 0 -0.79921 2.20261 0 0 0
56 0 -0.54077 1.81329 0 0 0
time 14
0 1.5572 9.20997 -3.60973 0.000934124 0 -1.06437
1 6.02794 0 0 -1.40413 0.409719 -0.803633
2 11.7344 0 0 -0.00140291 0 -0.549372
3 8.81139 -0.000449181 -0.000112295 -0.432729 0 0.000157903
4 5.77839 0.000287056 0 -0.289928 0 0.000103888
5 2.23163 -0.000329018 -0.000363827 -0.1428 0 0
6 11.4725 0 0 -0.472634 -0.123951 0.275592
7 0.615219 -0.993091 -0.8107 2.33805 -0.0433466 -0.360756
8 2.24752 0 0 0.0800335 0.130871 -0.022588
9 1.11936 0 0 0.0688114 0.177523 -0.338114
10 3.71348 -0.102641 0.102191 1.81842 1.37508 0.188412
11 1.72615 0 0 0.0136259 -0.0250639 -0.609754
12 1.21114 0 0 0.00236704 0.0174767 -0.462832
13 3.59919 -1.06012 0.0708878 1.68096 1.17438 0.0612362
14 1.66069 0 0 -0.00987784 0.0219166 -0.64561
15 1.167 0 0 0.0379318 -0.0317196 -0.610266
16 2.18853 0.50104 0.0576589 1.57003 0.153931 0.225781
17 1.29609 0 0 0.0343667 0.0550095 -1.22788
18 1.62202 0.000711441 -0.000470638 0.00441628 -0.0145794 -0.727069
19 1.22241 0 0 -0.00631663 0.0176871 -0.370915
20 1.76707 1.27612 0.0366411 1.57002 0.26187 0.261241
21 1.55588 0 0 -0.0324567 0.00304731 -1.18264
22 1.24273 0 0 -0.000599395 0 -0.65185
23 0.784524 0 0 0.00633933 0.00191179 -0.571831
24 -1.93761 5.60916 -3.60973 -0.000932693 0 3.14159
25 6.02794 0 0 0.965047 0.445594 1.47678
26 11.7344 0 0 0.00140273 0 0.877146
27 8.81167 0 0 -0.0690225 0 0
28 5.77884 0 0 -0.0462451 0 0
29 2.23249 0 0 -0.0227775 0 0
30 11.4725 0 0 0.251685 -0.453215 -0.653701
31 0.615812 0.994373 -0.809165 -2.75592 0.374249 0.315718
32 2.24752 0 0 -0.565215 0.197981 0.0658202
33 1.11936 0 0 -0.0549132 0.0237986 0.34886
34 3.71349 0.102639 0.102191 -1.55367 0.888575 -0.0661112
35 1.72615 0 0 -0.0121439 -0.00651261 1.19024
36 1.21112 0 0 0.0118385 0.0130726 1.33339
37 3.5992 1.06012 0.0708878 -1.45448 0.289842 0.348452
38 1.66069 0 0 -0.0204446 0.0691883 -0.0352877
39 1.16699 0 0 0.0118832 0.0235393 -0.00622659
40 2.18853 -0.50104 0.0576591 -1.55151 0.172885 -0.118539
41 1.29609 0 0 -0.0200505 -0.0423274 0.631309
42 1.62202 -0.000713348 -0.000469923 -0.0284748 -0.0166478 1.25494
43 1.22241 0 0 -0.00733729 0.0017543 1.23076
44 1.76707 -1.27612 0.0366411 -1.52771 0.265811 -0.101503
45 1.55588 0 0 0.0305806 -0.0879844 0.525515
46 1.24273 0 0 0.000599204 0 0.710283
47 0.784532 0 0 -0.00205811 0.00641635 0.880036
48 0 0 0 0 0 0
49 -4.87017 -19.3064 -5.3087 -0.0254948 0.0222782 -0.0601276
50 0 -1.51208 1.07027 0 0 0
51 0.540026 -0.376656 1.73991 0.132749 0 0
52 0 -3.13127 2.17037 0 0 0
53 0 -2.17842 1.90586 -0.041928 0 0
54 -4.84407 -18.5586 -6.15621 -0.0254948 0.0222782 -0.0601276
55 0 -0.799213 2.20261 0 0 0
56 0 -0.54077 1.81329 0 0 0
time 15
0 1.5572 9.20997 -3.60973 0.000934124 0 -1.06437
1 6.02794 0 0 -1.40477 0.405845 -0.804008
2 11.7344 0 0 -0.00140294 0 -0.538486
3 8.81139 -0.000450134 -0.00011158 -0.443089 0 0.000158353
4 5.77839 0.000286102 0 -0.29687 0 0.000104361
5 2.23163 -0.000329971 -0.000363827 -0.146219 0 0
6 11.4725 0 0 -0.481469 -0.12656 0.266755
7 0.615219 -0.993092 -0.8107 2.33805 -0.0433468 -0.360756
8 2.24752 0 0 0.0800337 0.130871 -0.0225879
9 1.11936 0 0 0.0688115 0.177523 -0.338114
10 3.71348 -0.102642 0.102191 1.81842 1.37508 0.188411
11 1.72615 0 0 0.0136259 -0.0250639 -0.609754
12 1.21114 0 0 0.002367 0.0174767 -0.462832
13 3.59919 -1.06012 0.0708883 1.68096 1.17438 0.0612366
14 1.66069 0 0 -0.00987785 0.0219166 -0.64561
15 1.167 0 0 0.0379319 -0.0317195 -0.610265
16 2.18852 0.501039 0.0576594 1.57003 0.153931 0.225781
17 1.29609 0 0 0.0343668 0.0550096 -1.22788
18 1.62202 0.000713348 -0.000471115 0.00441623 -0.0145795 -0.727069
19 1.22241 0 0 -0.00631656 0.017687 -0.370915
20 1.76707 1.27612 0.0366411 1.57002 0.26187 0.261241
21 1.55588 0 0 -0.0324567 0.00304727 -1.18264
22 1.24274 0 0 -0.000599395 0 -0.65185
23 0.784523 0 0 0.00633941 0.00191162 -0.571831
24 -1.93761 5.60916 -3.60973 -0.000932693 0 3.14159
25 6.02794 0 0 0.965843 0.442764 1.47953
26 11.7344 0 0 0.00140271 0 0.868511
27 8.81167 0 0 -0.0730817 0 0
28 5.77884 0 0 -0.0489647 0 0
29 2.23249 0 0 -0.024117 0 0
30 11.4725 0 0 0.240873 -0.452548 -0.643494
31 0.615814 0.994372 -0.809166 -2.75592 0.374249 0.315718
32 2.24752 0 0 -0.565214 0.197981 0.0658204
33 1.11936 0 0 -0.0549134 0.0237986 0.34886
34 3.71348 0.102639 0.102191 -1.55366 0.888575 -0.0661109
35 1.72615 0 0 -0.0121439 -0.00651266 1.19024
36 1.21112 0 0 0.0118384 0.0130727 1.33339
37 3.5992 1.06012 0.0708876 -1.45448 0.289842 0.348452
38 1.66069 0 0 -0.0204447 0.0691882 -0.0352877
39 1.16699 0 0 0.0118833 0.0235393 -0.00622647
40 2.18853 -0.50104 0.0576587 -1.55151 0.172885 -0.118539
41 1.29609 0 0 -0.0200504 -0.0423274 0.631309
42 1.62201 -0.000714302 -0.000469685 -0.0284747 -0.0166479 1.25494
43 1.22241 0 0 -0.00733727 0.00175437 1.23076
44 1.76707 -1.27612 0.0366402 -1.52771 0.265811 -0.101503
45 1.55588 0 0 0.0305806 -0.0879844 0.525515
46 1.24273 0 0 0.000599203 0 0.710283
47 0.784532 0 0 -0.00205818 0.00641632 0.880036
48 0 0 0 0 0 0
49 -4.84385 -19.3472 -5.32658 -0.0262783 0.0315817 -0.0563477
50 0 -1.51208 1.07027 0 0 0
51 0.540026 -0.376656 1.73991 0.132749 0 0
52 0 -3.13126 2.17037 0 0 0
53 0 -2.17842 1.90586 -0.041928 0 0
54 -4.8285 -18.5995 -6.17446 -0.0262783 0.0315817 -0.0563477
55 0 -0.799212 2.20261 0 0 0
56 0 -0.540771 1.81329 0 0 0
time 16
0 1.5572 9.20997 -3.60973 0.000934124 0 -1.06437
1 6.02794 0 0 -1.40538 0.403325 -0.804059
2 11.7344 0 0 -0.00140278 0 -0.530212
3 8.81139 -0.000449181 -0.000111341 -0.45228 0 0.000157838
4 5.77839 0.000287056 0 -0.303028 0 0.000103829
5 2.23164 -0.000328064 -0.000363588 -0.149253 0 0
6 11.4725 0 0 -0.489271 -0.130555 0.257671
7 0.615221 -0.993091 -0.8107 2.33805 -0.0433469 -0.360756
8 2.24752 0 0 0.0800335 0.130871 -0.0225881
9 1.11936 0 0 0.0688115 0.177523 -0.338114
10 3.71348 -0.102641 0.102191 1.81842 1.37508 0.188411
11 1.72615 0 0 0.0136259 -0.0250639 -0.609754
12 1.21114 0 0 0.00236707 0.0174766 -0.462832
13 3.59919 -1.06012 0.070888 1.68096 1.17438 0.0612363
14 1.66069 0 0 -0.00987789 0.0219167 -0.64561
15 1.167 0 0 0.0379319 -0.0317196 -0.610265
16 2.18853 0.50104 0.0576591 1.57003 0.153931 0.225781
17 1.29609 0 0 0.0343668 0.0550095 -1.22788
18 1.62202 0.000713348 -0.000471592 0.00441633 -0.0145794 -0.72707
19 1.22241 0 0 -0.00631661 0.0176869 -0.370915
20 1.76707 1.27612 0.0366409 1.57002 0.26187 0.261241
21 1.55588 0 0 -0.0324566 0.0030473 -1.18264
22 1.24274 0 0 -0.000599527 0 -0.65185
23 0.784524 0 0 0.00633931 0.00191184 -0.571831
24 -1.93761 5.60916 -3.60973 -0.000932693 0 3.14159
25 6.02794 0 0 0.966341 0.440591 1.48209
26 11.7344 0 0 0.00140284 0 0.860929
27 8.81167 0 0 -0.0761877 0 0
28 5.77884 0 0 -0.0510458 0 0
29 2.23249 0 0 -0.025142 0 0
30 11.4725 0 0 0.230392 -0.452111 -0.631655
31 0.615812 0.994372 -0.809166 -2.75592 0.374248 0.315718
32 2.24752 0 0 -0.565214 0.197981 0.0658206
33 1.11936 0 0 -0.0549133 0.0237985 0.34886
34 3.71349 0.102639 0.10219 -1.55366 0.888575 -0.0661105
35 1.72615 0 0 -0.0121438 -0.00651263 1.19024
36 1.21112 0 0 0.0118386 0.0130726 1.33339
37 3.5992 1.06012 0.070888 -1.45448 0.289842 0.348452
38 1.66069 0 0 -0.0204447 0.0691882 -0.0352876
39 1.16699 0 0 0.0118833 0.0235393 -0.00622662
40 2.18853 -0.50104 0.0576587 -1.55151 0.172885 -0.118539
41 1.29609 0 0 -0.0200504 -0.0423275 0.631309
42 1.62202 -0.000714302 -0.000469685 -0.0284748 -0.0166479 1.25494
43 1.22241 0 0 -0.00733718 0.00175434 1.23076
44 1.76707 -1.27612 0.0366406 -1.52771 0.265811 -0.101503
45 1.55588 0 0 0.0305806 -0.0879844 0.525515
46 1.24273 0 0 0.00059921 0 0.710283
47 0.784531 0 0 -0.00205812 0.0064163 0.880036
48 0 0 0 0 0 0
49 -4.8099 -19.3786 -5.34161 -0.0288495 0.0402865 -0.0515483
50 0 -1.51208 1.07027 0 0 0
51 0.540026 -0.376654 1.73991 0.132749 0 0
52 0 -3.13126 2.17037 0 0 0
53 0 -2.17842 1.90586 -0.041928 0 0
54 -4.8057 -18.6326 -6.19114 -0.0288495 0.0402865 -0.0515483
55 0 -0.79921 2.20261 0 0 0
56 0 -0.54077 1.81329 0 0 0
time 17
0 1.5572 9.20997 -3.60973 0.000934124 0 -1.06437
1 6.02794 0 0 -1.40592 0.401967 -0.803875
2 11.7344 0 0 -0.00140291 0 -0.524165
3 8.81139 -0.000450134 -0.000112057 -0.4606 0 0.000157588
4 5.77839 0.000286102 0 -0.308602 0 0.000103671
5 2.23164 -0.000329018 -0.000363827 -0.151998 0 0
6 11.4725 0 0 -0.496334 -0.13553 0.248783
7 0.615219 -0.993091 -0.8107 2.33805 -0.0433468 -0.360756
8 2.24752 0 0 0.0800335 0.130871 -0.022588
9 1.11936 0 0 0.0688115 0.177523 -0.338114
10 3.71348 -0.102641 0.102191 1.81842 1.37508 0.188411
11 1.72615 0 0 0.0136258 -0.0250638 -0.609754
12 1.21113 0 0 0.002367 0.0174767 -0.462832
13 3.59919 -1.06012 0.070888 1.68096 1.17438 0.0612361
14 1.66069 0 0 -0.00987788 0.0219166 -0.64561
15 1.167 0 0 0.0379319 -0.0317196 -0.610266
16 2.18853 0.50104 0.0576594 1.57003 0.153931 0.225781
17 1.29609 0 0 0.0343667 0.0550095 -1.22788
18 1.62202 0.000715256 -0.000471115 0.0044162 -0.0145794 -0.727069
19 1.22241 0 0 -0.00631656 0.0176869 -0.370915
20 1.76707 1.27612 0.0366406 1.57002 0.26187 0.261241
21 1.55587 0 0 -0.0324567 0.00304734 -1.18264
22 1.24273 0 0 -0.000599471 0 -0.65185
23 0.784522 0 0 0.00633936 0.00191167 -0.571831
24 -1.93761 5.60916 -3.60973 -0.000932693 0 3.14159
25 6.02794 0 0 0.966516 0.439254 1.48422
26 11.7344 0 0 0.00140273 0 0.854968
27 8.81167 0 0 -0.0788162 0 0
28 5.77884 0 0 -0.052807 0 0
29 2.23249 0 0 -0.0260094 0 0
30 11.4725 0 0 0.220245 -0.451704 -0.619261
31 0.615813 0.994372 -0.809166 -2.75592 0.374248 0.315718
32 2.24752 0 0 -0.565215 0.197981 0.0658204
33 1.11936 0 0 -0.0549131 0.0237985 0.34886
34 3.71349 0.102639 0.10219 -1.55367 0.888575 -0.0661111
35 1.72615 0 0 -0.0121439 -0.00651264 1.19024
36 1.21112 0 0 0.0118384 0.0130726 1.33339
37 3.5992 1.06012 0.0708878 -1.45448 0.289842 0.348452
38 1.66069 0 0 -0.0204446 0.0691882 -0.0352878
39 1.16699 0 0 0.0118832 0.0235393 -0.00622646
40 2.18853 -0.501041 0.0576584 -1.55151 0.172885 -0.118539
41 1.29609 0 0 -0.0200505 -0.0423274 0.631309
42 1.62202 -0.000713348 -0.000469208 -0.0284748 -0.016648 1.25494
43 1.22241 0 0 -0.00733727 0.00175434 1.23076
44 1.76707 -1.27612 0.0366404 -1.52771 0.265811 -0.101503
45 1.55588 0 0 0.0305806 -0.0879844 0.525515
46 1.24273 0 0 0.000599157 0 0.710283
47 0.784531 0 0 -0.00205813 0.00641634 0.880036
48 0 0 0 0 0 0
49 -4.77139 -19.403 -5.35564 -0.0325015 0.0484988 -0.0460727
50 0 -1.51208 1.07027 0 0 0
51 0.540026 -0.376656 1.73991 0.132749 0 0
52 0 -3.13127 2.17037 0 0 0
53 0 -2.17842 1.90586 -0.041928 0 0
54 -4.77851 -18.6598 -6.20758 -0.0325015 0.0484988 -0.0460727
55 0 -0.799213 2.20261 0 0 0
56 0 -0.540771 1.81329 0 0 0
time 18
0 1.5572 9.20997 -3.60973 0.000934124 0 -1.06437
1 6.02794 0 0 -1.4064 0.401003 -0.803652
2 11.7344 0 0 -0.00140276 0 -0.518784
3 8.81139 -0.000450134 -0.000112057 -0.468468 0 0.000157783
4 5.77839 0.000286102 0 -0.313874 0 0.00010375
5 2.23164 -0.000329018 -0.000363827 -0.154595 0 0
6 11.4725 0 0 -0.502956 -0.141055 0.239933
7 0.615221 -0.993091 -0.8107 2.33805 -0.0433468 -0.360756
8 2.24752 0 0 0.0800335 0.130871 -0.0225881
9 1.11936 0 0 0.0688115 0.177523 -0.338114
10 3.71348 -0.102641 0.102191 1.81842 1.37508 0.18841
11 1.72615 0 0 0.0136259 -0.0250639 -0.609754
12 1.21113 0 0 0.00236704 0.0174766 -0.462832
13 3.59919 -1.06012 0.0708883 1.68096 1.17438 0.0612362
14 1.66069 0 0 -0.0098779 0.0219167 -0.64561
15 1.167 0 0 0.0379319 -0.0317196 -0.610266
16 2.18853 0.50104 0.0576591 1.57003 0.153931 0.225781
17 1.29609 0 0 0.0343667 0.0550095 -1.22788
18 1.62202 0.000715256 -0.000471592 0.00441623 -0.0145794 -0.727069
19 1.22241 0 0 -0.00631656 0.017687 -0.370915
20 1.76707 1.27612 0.0366411 1.57002 0.26187 0.261241
21 1.55588 0 0 -0.0324567 0.00304735 -1.18264
22 1.24274 0 0 -0.000599442 0 -0.65185
23 0.784523 0 0 0.00633937 0.00191171 -0.571831
24 -1.93761 5.60916 -3.60973 -0.000932693 0 3.14159
25 6.02794 0 0 0.966513 0.438398 1.48607
26 11.7344 0 0 0.00140281 0 0.849889
27 8.81167 0 0 -0.0810879 0 0
28 5.77884 0 0 -0.0543288 0 0
29 2.23249 0 0 -0.0267589 0 0
30 11.4725 0 0 0.210442 -0.451153 -0.606747
31 0.615812 0.994373 -0.809165 -2.75592 0.374249 0.315718
32 2.24752 0 0 -0.565214 0.197981 0.0658204
33 1.11936 0 0 -0.0549132 0.0237985 0.34886
34 3.71349 0.102639 0.102192 -1.55367 0.888575 -0.0661111
35 1.72615 0 0 -0.0121439 -0.00651268 1.19024
36 1.21112 0 0 0.0118385 0.0130726 1.33339
37 3.5992 1.06012 0.0708883 -1.45448 0.289842 0.348452
38 1.66069 0 0 -0.0204446 0.0691882 -0.0352878
39 1.16699 0 0 0.0118832 0.0235394 -0.00622663
40 2.18853 -0.50104 0.0576589 -1.55151 0.172885 -0.118539
41 1.29609 0 0 -0.0200505 -0.0423274 0.631309
42 1.62202 -0.000713348 -0.000469208 -0.0284749 -0.016648 1.25494
43 1.22241 0 0 -0.00733732 0.00175432 1.23076
44 1.76707 -1.27612 0.0366406 -1.52771 0.265811 -0.101503
45 1.55588 0 0 0.0305806 -0.0879844 0.525515
46 1.24273 0 0 0.000599214 0 0.710283
47 0.784532 0 0 -0.00205816 0.00641635 0.880036
48 0 0 0 0 0 0
49 -4.73136 -19.4224 -5.37051 -0.0365276 0.0563246 -0.0402643
50 0 -1.51208 1.07027 0 0 0
51 0.540027 -0.376656 1.73991 0.132749 0 0
52 0 -3.13127 2.17037 0 0 0
53 0 -2.17842 1.90586 -0.041928 0 0
54 -4.74977 -18.6824 -6.22508 -0.0365276 0.0563246 -0.0402643
55 0 -0.79921 2.20261 0 0 0
56 0 -0.54077 1.81329 0 0 0
time 19
0 1.5572 9.20997 -3.60973 0.000934124 0 -1.06437
1 6.02794 0 0 -1.40675 0.400685 -0.803396
2 11.7344 0 0 -0.00140266 0 -0.514596
3 8.81138 -0.000449181 -0.000111818 -0.476082 0 0.000157836
4 5.77839 0.000286102 0 -0.318975 0 0.000103898
5 2.23163 -0.000329018 -0.000364065 -0.157107 0 0
6 11.4725 0 0 -0.509456 -0.146685 0.232021
7 0.615221 -0.993091 -0.8107 2.33805 -0.0433469 -0.360756
8 2.24752 0 0 0.0800335 0.130871 -0.0225881
9 1.11936 0 0 0.0688115 0.177523 -0.338114
10 3.71348 -0.102641 0.102191 1.81842 1.37508 0.188411
11 1.72615 0 0 0.0136259 -0.0250639 -0.609754
12 1.21114 0 0 0.002367 0.0174767 -0.462832
13 3.59919 -1.06012 0.070888 1.68096 1.17438 0.0612364
14 1.66069 0 0 -0.00987791 0.0219167 -0.64561
15 1.167 0 0 0.0379319 -0.0317196 -0.610266
16 2.18852 0.501039 0.0576591 1.57003 0.153931 0.225781
17 1.29609 0 0 0.0343668 0.0550095 -1.22788
18 1.62202 0.000711441 -0.000471115 0.00441627 -0.0145794 -0.72707
19 1.22241 0 0 -0.00631657 0.017687 -0.370915
20 1.76707 1.27612 0.0366406 1.57002 0.26187 0.261241
21 1.55588 0 0 -0.0324567 0.00304725 -1.18264
22 1.24274 0 0 -0.00059947 0 -0.65185
23 0.784524 0 0 0.00633933 0.00191182 -0.571831
24 -1.93761 5.60916 -3.60973 -0.000932693 0 3.14159
25 6.02794 0 0 0.966423 0.437823 1.4877
26 11.7344 0 0 0.00140277 0 0.845326
27 8.81167 0 0 -0.0832399 0 0
28 5.77884 0 0 -0.0557707 0 0
29 2.23249 0 0 -0.0274691 0 0
30 11.4725 0 0 0.200991 -0.450312 -0.594748
31 0.615812 0.994372 -0.809165 -2.75592 0.374249 0.315717
32 2.24752 0 0 -0.565215 0.197981 0.0658202
33 1.11936 0 0 -0.0549133 0.0237985 0.34886
34 3.71349 0.102639 0.102191 -1.55367 0.888575 -0.0661112
35 1.72615 0 0 -0.0121439 -0.00651267 1.19024
36 1.21112 0 0 0.0118385 0.0130726 1.33339
37 3.5992 1.06012 0.0708885 -1.45448 0.289842 0.348452
38 1.66069 0 0 -0.0204447 0.0691882 -0.0352878
39 1.16699 0 0 0.0118833 0.0235393 -0.0062264
40 2.18853 -0.501041 0.0576594 -1.55151 0.172885 -0.118539
41 1.29609 0 0 -0.0200505 -0.0423275 0.631309
42 1.62202 -0.000713348 -0.000470161 -0.0284748 -0.0166479 1.25494
43 1.22241 0 0 -0.00733736 0.00175428 1.23076
44 1.76707 -1.27612 0.0366402 -1.52771 0.265811 -0.101503
45 1.55588 0 0 0.0305807 -0.0879844 0.525515
46 1.24273 0 0 0.000599214 0 0.710283
47 0.784532 0 0 -0.00205818 0.00641632 0.880036
48 0 0 0 0 0 0
49 -4.69287 -19.4391 -5.38808 -0.0402211 0.0638698 -0.0344664
50 0 -1.51208 1.07027 0 0 0
51 0.540026 -0.376652 1.73991 0.132749 0 0
52 0 -3.13126 2.17037 0 0 0
53 0 -2.17842 1.90586 -0.041928 0 0
54 -4.7223 -18.7022 -6.24498 -0.0402211 0.0638698 -0.0344664
55 0 -0.799212 2.20261 0 0 0
56 0 -0.540771 1.81329 0 0 0
time 20
0 1.5572 9.20997 -3.60973 0.000934124 0 -1.06437
1 6.02794 0 0 -1.40706 0.401734 -0.802841
2 11.7344 0 0 -0.00140285 0 -0.512945
3 8.81139 -0.000450134 -0.000112057 -0.483381 0 0.00015774
4 5.77839 0.000286102 0 -0.323865 0 0.000103683
5 2.23164 -0.000329971 -0.000363588 -0.159516 0 0
6 11.4725 0 0 -0.515952 -0.151712 0.22622
7 0.615219 -0.993091 -0.8107 2.33805 -0.0433468 -0.360756
8 2.24752 0 0 0.0800335 0.130871 -0.0225881
9 1.11936 0 0 0.0688115 0.177523 -0.338114
10 3.71348 -0.102641 0.102191 1.81842 1.37508 0.18841
11 1.72615 0 0 0.0136259 -0.0250639 -0.609754
12 1.21114 0 0 0.00236697 0.0174767 -0.462832
13 3.59919 -1.06012 0.070888 1.68096 1.17438 0.0612368
14 1.66069 0 0 -0.00987793 0.0219167 -0.64561
15 1.167 0 0 0.0379319 -0.0317196 -0.610266
16 2.18852 0.50104 0.0576591 1.57003 0.153931 0.225781
17 1.29609 0 0 0.0343667 0.0550095 -1.22788
18 1.62202 0.000711441 -0.000471115 0.00441627 -0.0145794 -0.72707
19 1.22241 0 0 -0.00631656 0.0176869 -0.370915
20 1.76707 1.27612 0.0366411 1.57002 0.26187 0.261241
21 1.55588 0 0 -0.0324566 0.00304734 -1.18264
22 1.24274 0 0 -0.00059947 0 -0.65185
23 0.784525 0 0 0.00633941 0.00191172 -0.571831
24 -1.93761 5.60916 -3.60973 -0.000932693 0 3.14159
25 6.02794 0 0 0.966122 0.437713 1.48924
26 11.7344 0 0 0.00140284 0 0.841843
27 8.81167 0 0 -0.0859265 0 0
28 5.77884 0 0 -0.0575707 0 0
29 2.23249 0 0 -0.0283557 0 0
30 11.4725 0 0 0.192095 -0.449407 -0.584659
31 0.615812 0.994372 -0.809165 -2.75592 0.374249 0.315718
32 2.24752 0 0 -0.565214 0.197981 0.0658205
33 1.11936 0 0 -0.0549133 0.0237984 0.34886
34 3.71349 0.102639 0.102191 -1.55367 0.888575 -0.0661111
35 1.72615 0 0 -0.0121439 -0.00651266 1.19024
36 1.21112 0 0 0.0118385 0.0130726 1.33339
37 3.5992 1.06012 0.0708885 -1.45448 0.289842 0.348452
38 1.66069 0 0 -0.0204447 0.0691882 -0.0352876
39 1.16699 0 0 0.0118833 0.0235393 -0.00622649
40 2.18853 -0.50104 0.0576591 -1.55151 0.172885 -0.118539
41 1.29609 0 0 -0.0200504 -0.0423274 0.631309
42 1.62202 -0.000713348 -0.000469685 -0.0284748 -0.0166481 1.25494
43 1.22241 0 0 -0.00733731 0.00175433 1.23076
44 1.76707 -1.27612 0.0366409 -1.52771 0.265811 -0.101503
45 1.55588 0 0 0.0305806 -0.0879844 0.525515
46 1.24273 0 0 0.000599158 0 0.710283
47 0.784532 0 0 -0.00205814 0.00641635 0.880036
48 0 0 0 0 0 0
49 -4.65101 -19.4496 -5.41043 -0.0428752 0.0712406 -0.0290225
50 0 -1.51208 1.07027 0 0 0
51 0.540026 -0.376654 1.73991 0.132749 0 0
52 0 -3.13126 2.17037 0 0 0
53 0 -2.17842 1.90586 -0.041928 0 0
54 -4.69096 -18.7149 -6.26884 -0.0428752 0.0712406 -0.0290225
55 0 -0.799213 2.20261 0 0 0
56 0 -0.54077 1.81329 0 0 0
time 21
0 1.5572 9.20997 -3.60973 0.000934124 0 -1.06437
1 6.02794 0 0 -1.40743 0.405151 -0.801647
2 11.7344 0 0 -0.00140288 0 -0.515932
3 8.81139 -0.000449181 -0.000112057 -0.490178 0 0.000157795
4 5.77839 0.000287056 0 -0.328419 0 0.000103472
5 2.23163 -0.000329018 -0.000364304 -0.161759 0 0
6 11.4725 0 0 -0.522559 -0.155386 0.224173
7 0.615221 -0.993091 -0.8107 2.33805 -0.0433469 -0.360756
8 2.24752 0 0 0.0800335 0.130871 -0.0225881
9 1.11935 0 0 0.0688114 0.177523 -0.338114
10 3.71348 -0.102641 0.102191 1.81842 1.37508 0.188411
11 1.72615 0 0 0.0136259 -0.0250639 -0.609754
12 1.21114 0 0 0.00236705 0.0174767 -0.462832
13 3.5992 -1.06012 0.070888 1.68096 1.17438 0.0612367
14 1.66069 0 0 -0.00987792 0.0219166 -0.64561
15 1.167 0 0 0.0379319 -0.0317196 -0.610265
16 2.18852 0.50104 0.0576591 1.57003 0.153931 0.225781
17 1.29609 0 0 0.0343667 0.0550094 -1.22788
18 1.62202 0.000711441 -0.000470161 0.00441624 -0.0145795 -0.727069
19 1.22241 0 0 -0.00631659 0.0176869 -0.370915
20 1.76707 1.27612 0.0366409 1.57002 0.26187 0.261241
21 1.55588 0 0 -0.0324566 0.00304734 -1.18264
22 1.24274 0 0 -0.000599489 0 -0.65185
23 0.784524 0 0 0.00633935 0.00191173 -0.571831
24 -1.93761 5.60916 -3.60973 -0.000932693 0 3.14159
25 6.02794 0 0 0.965511 0.438193 1.49086
26 11.7344 0 0 0.00140279 0 0.840091
27 8.81167 0 0 -0.0898523 0 0
28 5.77884 0 0 -0.060201 0 0
29 2.23249 0 0 -0.0296512 0 0
30 11.4725 0 0 0.183923 -0.448649 -0.578004
31 0.615815 0.994372 -0.809166 -2.75592 0.374249 0.315718
32 2.24752 0 0 -0.565214 0.197981 0.0658204
33 1.11936 0 0 -0.0549132 0.0237985 0.34886
34 3.71348 0.102639 0.102191 -1.55367 0.888575 -0.0661112
35 1.72615 0 0 -0.0121438 -0.00651266 1.19024
36 1.21112 0 0 0.0118385 0.0130727 1.33339
37 3.5992 1.06012 0.0708878 -1.45448 0.289842 0.348452
38 1.66069 0 0 -0.0204446 0.0691883 -0.0352878
39 1.16699 0 0 0.0118833 0.0235393 -0.00622654
40 2.18853 -0.50104 0.0576591 -1.55151 0.172885 -0.118539
41 1.29609 0 0 -0.0200504 -0.0423275 0.631309
42 1.62202 -0.000713348 -0.000470161 -0.0284748 -0.0166479 1.25494
43 1.22241 0 0 -0.00733729 0.00175437 1.23076
44 1.76707 -1.27612 0.0366404 -1.52771 0.265811 -0.101503
45 1.55588 0 0 0.0305807 -0.0879844 0.525515
46 1.24273 0 0 0.000599171 0 0.710283
47 0.784533 0 0 -0.00205808 0.00641638 0.880036
48 0 0 0 0 0 0
49 -4.60058 -19.4501 -5.43743 -0.0437831 0.0785429 -0.0242758
50 0 -1.51208 1.07027 0 0 0
51 0.540026 -0.376654 1.73991 0.132749 0 0
52 0 -3.13127 2.17037 0 0 0
53 0 -2.17842 1.90586 -0.041928 0 0
54 -4.65036 -18.7162 -6.29604 -0.0437831 0.0785429 -0.0242758
55 0 -0.799213 2.20261 0 0 0
56 0 -0.54077 1.81329 0 0 0
time 22
0 1.5572 9.20997 -3.60973 0.000934124 0 -1.06437
1 6.02794 0 0 -1.40784 0.410804 -0.799864
2 11.7344 0 0 -0.00140288 0 -0.523577
3 8.81139 -0.000449181 -0.000112057 -0.496646 0 0.000157814
4 5.77839 0.000287056 0 -0.332753 0 0.00010361
5 2.23164 -0.000329018 -0.000364065 -0.163894 0 0
6 11.4725 0 0 -0.529599 -0.157171 0.226637
7 0.615219 -0.993091 -0.8107 2.33805 -0.0433469 -0.360756
8 2.24752 0 0 0.0800336 0.130871 -0.022588
9 1.11936 0 0 0.0688115 0.177523 -0.338114
10 3.71348 -0.102641 0.102191 1.81842 1.37508 0.188411
11 1.72615 0 0 0.0136259 -0.0250639 -0.609754
12 1.21114 0 0 0.00236709 0.0174766 -0.462832
13 3.59919 -1.06012 0.0708883 1.68096 1.17438 0.0612367
14 1.66069 0 0 -0.00987787 0.0219167 -0.64561
15 1.167 0 0 0.0379319 -0.0317196 -0.610266
16 2.18852 0.50104 0.0576589 1.57003 0.153931 0.225781
17 1.29609 0 0 0.0343668 0.0550094 -1.22788
18 1.62202 0.000715256 -0.000471115 0.00441626 -0.0145794 -0.727069
19 1.22241 0 0 -0.00631648 0.0176869 -0.370915
20 1.76707 1.27612 0.0366406 1.57002 0.26187 0.261241
21 1.55588 0 0 -0.0324567 0.00304732 -1.18264
22 1.24273 0 0 -0.000599471 0 -0.65185
23 0.784523 0 0 0.00633937 0.00191171 -0.571831
24 -1.93761 5.60916 -3.60973 -0.000932693 0 3.14159
25 6.02794 0 0 0.964726 0.438968 1.49261
26 11.7344 0 0 0.00140263 0 0.839823
27 8.81167 0 0 -0.0953418 0 0
28 5.77884 0 0 -0.0638789 0 0
29 2.23249 0 0 -0.0314628 0 0
30 11.4725 0 0 0.17644 -0.447906 -0.575638
31 0.615813 0.994373 -0.809166 -2.75592 0.374249 0.315718
32 2.24752 0 0 -0.565214 0.197981 0.0658204
33 1.11936 0 0 -0.0549132 0.0237985 0.34886
34 3.71348 0.102639 0.10219 -1.55367 0.888575 -0.0661111
35 1.72615 0 0 -0.0121439 -0.00651264 1.19024
36 1.21112 0 0 0.0118385 0.0130726 1.33339
37 3.5992 1.06012 0.0708878 -1.45448 0.289842 0.348452
38 1.66069 0 0 -0.0204447 0.0691883 -0.0352877
39 1.16699 0 0 0.0118832 0.0235393 -0.00622647
40 2.18853 -0.50104 0.0576589 -1.55151 0.172885 -0.118539
41 1.29609 0 0 -0.0200505 -0.0423275 0.631309
42 1.62202 -0.000712395 -0.000469685 -0.0284748 -0.016648 1.25494
43 1.22241 0 0 -0.00733723 0.00175435 1.23076
44 1.76707 -1.27612 0.0366406 -1.52771 0.265812 -0.101503
45 1.55588 0 0 0.0305806 -0.0879844 0.525515
46 1.24273 0 0 0.000599198 0 0.710283
47 0.784532 0 0 -0.00205813 0.00641635 0.880036
48 0 0 0 0 0 0
49 -4.54423 -19.4425 -5.46767 -0.0422382 0.0858827 -0.0205698
50 0 -1.51208 1.07027 0 0 0
51 0.540026 -0.376652 1.73991 0.132749 0 0
52 0 -3.13126 2.17037 0 0 0
53 0 -2.17842 1.90586 -0.041928 0 0
54 -4.6029 -18.7074 -6.32462 -0.0422382 0.0858827 -0.0205698
55 0 -0.799212 2.20261 0 0 0
56 0 -0.54077 1.81329 0 0 0
time 23
0 1.5572 9.20997 -3.60973 0.000934124 0 -1.06437
1 6.02794 0 0 -1.40823 0.417503 -0.797847
2 11.7344 0 0 -0.00140274 0 -0.533562
3 8.81138 -0.000450134 -0.00011301 -0.503654 0 0.000157748
4 5.77839 0.000286102 0 -0.337448 0 0.000103424
5 2.23163 -0.000329971 -0.000363827 -0.166206 0 0
6 11.4725 0 0 -0.53781 -0.157691 0.232656
7 0.615219 -0.993091 -0.8107 2.33805 -0.0433468 -0.360756
8 2.24752 0 0 0.0800335 0.130871 -0.0225881
9 1.11936 0 0 0.0688115 0.177523 -0.338114
10 3.71348 -0.102641 0.102191 1.81842 1.37508 0.188411
11 1.72615 0 0 0.0136259 -0.0250639 -0.609754
12 1.21114 0 0 0.00236698 0.0174767 -0.462832
13 3.59919 -1.06012 0.0708878 1.68096 1.17438 0.0612363
14 1.66069 0 0 -0.00987787 0.0219166 -0.64561
15 1.167 0 0 0.0379319 -0.0317196 -0.610266
16 2.18853 0.50104 0.0576591 1.57003 0.153931 0.225781
17 1.29609 0 0 0.0343668 0.0550095 -1.22788
18 1.62202 0.000715256 -0.000470638 0.00441621 -0.0145794 -0.727069
19 1.22241 0 0 -0.00631653 0.017687 -0.370915
20 1.76707 1.27612 0.0366409 1.57002 0.26187 0.261241
21 1.55588 0 0 -0.0324567 0.00304728 -1.18264
22 1.24274 0 0 -0.000599461 0 -0.65185
23 0.784524 0 0 0.00633931 0.00191178 -0.571831
24 -1.93761 5.60916 -3.60973 -0.000932693 0 3.14159
25 6.02794 0 0 0.963884 0.439861 1.49435
26 11.7344 0 0 0.00140269 0 0.840815
27 8.81167 0 0 -0.102399 0 0
28 5.77884 0 0 -0.0686077 0 0
29 2.23249 0 0 -0.0337919 0 0
30 11.4725 0 0 0.168869 -0.44652 -0.577004
31 0.615812 0.994373 -0.809166 -2.75592 0.374249 0.315718
32 2.24752 0 0 -0.565214 0.197981 0.0658203
33 1.11936 0 0 -0.0549133 0.0237985 0.34886
34 3.71349 0.102639 0.102191 -1.55367 0.888575 -0.0661112
35 1.72615 0 0 -0.0121439 -0.00651266 1.19024
36 1.21112 0 0 0.0118385 0.0130726 1.33339
37 3.5992 1.06012 0.0708885 -1.45448 0.289842 0.348452
38 1.66069 0 0 -0.0204446 0.0691882 -0.0352876
39 1.16699 0 0 0.0118833 0.0235393 -0.00622662
40 2.18853 -0.50104 0.0576594 -1.55151 0.172885 -0.118539
41 1.29609 0 0 -0.0200504 -0.0423275 0.631309
42 1.62202 -0.000714302 -0.000469685 -0.0284747 -0.0166479 1.25494
43 1.22241 0 0 -0.00733735 0.0017543 1.23076
44 1.76707 -1.27612 0.0366409 -1.52771 0.265811 -0.101503
45 1.55587 0 0 0.0305806 -0.0879843 0.525515
46 1.24273 0 0 0.000599197 0 0.710283
47 0.784532 0 0 -0.00205813 0.00641634 0.880036
48 0 0 0 0 0 0
49 -4.4846 -19.4288 -5.4997 -0.0381212 0.0937483 -0.0173345
50 0 -1.51208 1.07027 0 0 0
51 0.540026 -0.376656 1.73991 0.132749 0 0
52 0 -3.13127 2.17037 0 0 0
53 0 -2.17842 1.90586 -0.041928 0 0
54 -4.55204 -18.6903 -6.35304 -0.0381212 0.0937483 -0.0173345
55 0 -0.799212 2.20261 0 0 0
56 0 -0.540768 1.81329 0 0 0
time 24
0 1.5572 9.20997 -3.60973 0.000934124 0 -1.06437
1 6.02794 0 0 -1.40846 0.425162 -0.795741
2 11.7344 0 0 -0.00140278 0 -0.5457
3 8.81138 -0.000450134 -0.000112772 -0.511297 0 0.000157915
4 5.77839 0.000286102 0 -0.342569 0 0.000103638
5 2.23163 -0.000329971 -0.000364065 -0.168728 0 0
6 11.4725 0 0 -0.547247 -0.15793 0.24146
7 0.615217 -0.993091 -0.8107 2.33805 -0.0433469 -0.360756
8 2.24752 0 0 0.0800335 0.130871 -0.022588
9 1.11936 0 0 0.0688115 0.177523 -0.338114
10 3.71348 -0.10264 0.102191 1.81842 1.37508 0.18841
11 1.72615 0 0 0.0136259 -0.0250639 -0.609754
12 1.21114 0 0 0.00236695 0.0174768 -0.462832
13 3.59919 -1.06012 0.0708883 1.68096 1.17438 0.0612366
14 1.66069 0 0 -0.00987789 0.0219166 -0.64561
15 1.167 0 0 0.0379319 -0.0317196 -0.610265
16 2.18852 0.50104 0.0576594 1.57003 0.153931 0.225781
17 1.29609 0 0 0.0343667 0.0550095 -1.22788
18 1.62202 0.000715256 -0.000470638 0.00441632 -0.0145794 -0.727069
19 1.22241 0 0 -0.00631651 0.017687 -0.370915
20 1.76707 1.27612 0.0366409 1.57002 0.26187 0.261241
21 1.55588 0 0 -0.0324567 0.00304726 -1.18264
22 1.24273 0 0 -0.000599423 0 -0.65185
23 0.784524 0 0 0.00633934 0.00191176 -0.571831
24 -1.93761 5.60916 -3.60973 -0.000932693 0 3.14159
25 6.02794 0 0 0.963041 0.44084 1.49593
26 11.7344 0 0 0.00140268 0 0.842754
27 8.81167 0 0 -0.110397 0 0
28 5.77884 0 0 -0.0739658 0 0
29 2.23249 0 0 -0.0364309 0 0
30 11.4725 0 0 0.160769 -0.444202 -0.580506
31 0.615812 0.994372 -0.809165 -2.75592 0.374249 0.315718
32 2.24752 0 0 -0.565214 0.197981 0.0658204
33 1.11936 0 0 -0.0549133 0.0237984 0.34886
34 3.71349 0.10264 0.102192 -1.55367 0.888575 -0.0661111
35 1.72615 0 0 -0.0121439 -0.00651273 1.19024
36 1.21112 0 0 0.0118385 0.0130726 1.33339
37 3.5992 1.06012 0.0708888 -1.45448 0.289842 0.348452
38 1.66069 0 0 -0.0204446 0.0691882 -0.0352876
39 1.16699 0 0 0.0118833 0.0235393 -0.00622661
40 2.18853 -0.50104 0.0576589 -1.55151 0.172885 -0.118539
41 1.29609 0 0 -0.0200505 -0.0423275 0.631309
42 1.62202 -0.000713348 -0.000469685 -0.0284748 -0.0166479 1.25494
43 1.22241 0 0 -0.00733734 0.00175437 1.23076
44 1.76707 -1.27612 0.0366402 -1.52771 0.265811 -0.101503
45 1.55587 0 0 0.0305806 -0.0879844 0.525515
46 1.24273 0 0 0.000599202 0 0.710283
47 0.784531 0 0 -0.00205811 0.00641634 0.880036
48 0 0 0 0 0 0
49 -4.42434 -19.4108 -5.53211 -0.0322558 0.102218 -0.0139006
50 0 -1.51208 1.07027 0 0 0
51 0.540026 -0.376652 1.73991 0.132749 0 0
52 0 -3.13126 2.17037 0 0 0
53 0 -2.17842 1.90586 -0.041928 0 0
54 -4.50103 -18.6674 -6.38042 -0.0322558 0.102218 -0.0139006
55 0 -0.799212 2.20261 0 0 0
56 0 -0.54077 1.81329 0 0 0
time 25
0 1.5572 9.20997 -3.60973 0.000934124 0 -1.06437
1 6.02794 0 0 -1.40856 0.433164 -0.793656
2 11.7344 0 0 -0.00140288 0 -0.558823
3 8.81139 -0.000450134 -0.000112534 -0.519082 0 0.000158242
4 5.77839 0.000286102 0 -0.347785 0 0.000103973
5 2.23164 -0.000329971 -0.000363827 -0.171297 0 0
6 11.4725 0 0 -0.557188 -0.15789 0.251874
7 0.615221 -0.993091 -0.8107 2.33805 -0.0433469 -0.360756
8 2.24752 0 0 0.0800335 0.130871 -0.022588
9 1.11935 0 0 0.0688115 0.177523 -0.338114
10 3.71348 -0.102641 0.102191 1.81842 1.37508 0.188411
11 1.72615 0 0 0.0136259 -0.0250639 -0.609754
12 1.21114 0 0 0.00236702 0.0174767 -0.462832
13 3.59919 -1.06012 0.070888 1.68096 1.17438 0.061236
14 1.66069 0 0 -0.00987791 0.0219166 -0.64561
15 1.167 0 0 0.0379319 -0.0317196 -0.610265
16 2.18852 0.50104 0.0576594 1.57003 0.153931 0.225781
17 1.29609 0 0 0.0343667 0.0550095 -1.22788
18 1.62202 0.000715256 -0.000470638 0.00441627 -0.0145795 -0.72707
19 1.22241 0 0 -0.00631659 0.0176869 -0.370915
20 1.76707 1.27612 0.0366414 1.57002 0.26187 0.261241
21 1.55588 0 0 -0.0324566 0.00304734 -1.18264
22 1.24274 0 0 -0.000599386 0 -0.65185
23 0.784524 0 0 0.00633934 0.00191176 -0.571831
24 -1.93761 5.60916 -3.60973 -0.000932693 0 3.14159
25 6.02794 0 0 0.962234 0.441824 1.49733
26 11.7344 0 0 0.00140275 0 0.845263
27 8.81167 0 0 -0.118706 0 0
28 5.77884 0 0 -0.0795331 0 0
29 2.23249 0 0 -0.0391732 0 0
30 11.4725 0 0 0.152617 -0.44135 -0.585436
31 0.615812 0.994372 -0.809165 -2.75592 0.374248 0.315718
32 2.24752 0 0 -0.565214 0.197981 0.0658204
33 1.11936 0 0 -0.0549132 0.0237985 0.34886
34 3.71349 0.102639 0.102191 -1.55367 0.888575 -0.066111
35 1.72615 0 0 -0.0121439 -0.00651255 1.19024
36 1.21112 0 0 0.0118384 0.0130727 1.33339
37 3.5992 1.06012 0.0708878 -1.45448 0.289842 0.348452
38 1.66069 0 0 -0.0204445 0.0691882 -0.0352878
39 1.16699 0 0 0.0118832 0.0235392 -0.00622636
40 2.18853 -0.501041 0.0576587 -1.55151 0.172885 -0.118539
41 1.29609 0 0 -0.0200503 -0.0423275 0.631309
42 1.62202 -0.000714302 -0.000469685 -0.0284748 -0.0166479 1.25494
43 1.22241 0 0 -0.00733729 0.00175434 1.23076
44 1.76707 -1.27612 0.0366404 -1.52771 0.265811 -0.101503
45 1.55588 0 0 0.0305807 -0.0879843 0.525515
46 1.24273 0 0 0.000599154 0 0.710283
47 0.784531 0 0 -0.00205812 0.00641631 0.880036
48 0 0 0 0 0 0
49 -4.36609 -19.3904 -5.56346 -0.0253501 0.110781 -0.0104623
50 0 -1.51208 1.07027 0 0 0
51 0.540026 -0.376652 1.73991 0.132749 0 0
52 0 -3.13126 2.17037 0 0 0
53 0 -2.17842 1.90586 -0.041928 0 0
54 -4.45197 -18.6413 -6.40587 -0.0253501 0.110781 -0.0104623
55 0 -0.79921 2.20261 0 0 0
56 0 -0.54077 1.81329 0 0 0
time 26
0 1.5572 9.20997 -3.60973 0.000934124 0 -1.06437
1 6.02794 0 0 -1.40859 0.44082 -0.791722
2 11.7344 0 0 -0.00140302 0 -0.571622
3 8.81139 -0.000449181 -0.000112057 -0.526541 0 0.000158029
4 5.77839 0.000287056 0 -0.352783 0 0.000103776
5 2.23163 -0.000329018 -0.000364304 -0.173759 0 0
6 11.4725 0 0 -0.566914 -0.157607 0.262664
7 0.615219 -0.993091 -0.8107 2.33805 -0.0433469 -0.360756
8 2.24752 0 0 0.0800335 0.130871 -0.022588
9 1.11936 0 0 0.0688115 0.177523 -0.338114
10 3.71348 -0.102641 0.102191 1.81843 1.37508 0.188412
11 1.72615 0 0 0.0136259 -0.0250639 -0.609754
12 1.21114 0 0 0.00236699 0.0174768 -0.462832
13 3.59919 -1.06012 0.070888 1.68096 1.17438 0.0612365
14 1.66069 0 0 -0.00987793 0.0219166 -0.64561
15 1.167 0 0 0.0379319 -0.0317196 -0.610265
16 2.18852 0.50104 0.0576591 1.57003 0.153931 0.225781
17 1.29609 0 0 0.0343668 0.0550095 -1.22788
18 1.62202 0.000717163 -0.000471115 0.00441626 -0.0145795 -0.727069
19 1.22241 0 0 -0.00631656 0.017687 -0.370915
20 1.76707 1.27612 0.0366406 1.57002 0.26187 0.261241
21 1.55588 0 0 -0.0324568 0.00304732 -1.18264
22 1.24273 0 0 -0.000599442 0 -0.65185
23 0.784523 0 0 0.00633936 0.0019118 -0.571831
24 -1.93761 5.60916 -3.60973 -0.000932693 0 3.14159
25 6.02794 0 0 0.961502 0.44274 1.49856
26 11.7344 0 0 0.00140264 0 0.847986
27 8.81167 0 0 -0.126725 0 0
28 5.77884 0 0 -0.0849059 0 0
29 2.23249 0 0 -0.0418192 0 0
30 11.4725 0 0 0.14489 -0.438331 -0.591078
31 0.615814 0.994373 -0.809165 -2.75592 0.374249 0.315718
32 2.24752 0 0 -0.565214 0.197981 0.0658204
33 1.11935 0 0 -0.0549134 0.0237985 0.34886
34 3.71349 0.10264 0.102191 -1.55367 0.888575 -0.0661112
35 1.72615 0 0 -0.0121439 -0.00651256 1.19024
36 1.21112 0 0 0.0118385 0.0130726 1.33339
37 3.5992 1.06012 0.0708885 -1.45448 0.289842 0.348452
38 1.66069 0 0 -0.0204447 0.0691882 -0.0352877
39 1.16699 0 0 0.0118834 0.0235393 -0.00622645
40 2.18853 -0.50104 0.0576596 -1.55151 0.172885 -0.118539
41 1.29609 0 0 -0.0200504 -0.0423275 0.631309
42 1.62202 -0.000713348 -0.000469685 -0.0284748 -0.016648 1.25494
43 1.22241 0 0 -0.00733726 0.00175436 1.23076
44 1.76707 -1.27612 0.0366406 -1.52771 0.265811 -0.101503
45 1.55588 0 0 0.0305806 -0.0879843 0.525515
46 1.24273 0 0 0.000599181 0 0.710283
47 0.784531 0 0 -0.00205814 0.00641638 0.880036
48 0 0 0 0 0 0
49 -4.3125 -19.3695 -5.59231 -0.0181122 0.11893 -0.00721365
50 0 -1.51208 1.07027 0 0 0
51 0.540026 -0.376654 1.73991 0.132749 0 0
52 0 -3.13127 2.17037 0 0 0
53 0 -2.17842 1.90586 -0.041928 0 0
54 -4.40698 -18.6145 -6.42854 -0.0181122 0.11893 -0.00721365
55 0 -0.799212 2.20261 0 0 0
56 0 -0.540768 1.81329 0 0 0
time 27
0 1.5572 9.20997 -3.60973 0.000934124 0 -1.06437
1 6.02794 0 0 -1.40857 0.44761 -0.790043
2 11.7344 0 0 -0.00140272 0 -0.583123
3 8.81139 -0.000449181 -0.000111818 -0.533188 0 0.000157827
4 5.77839 0.000287056 0 -0.357236 0 0.000103683
5 2.23164 -0.000329018 -0.000363827 -0.175952 0 0
6 11.4725 0 0 -0.575711 -0.157164 0.272781
7 0.615221 -0.99309 -0.8107 2.33805 -0.0433468 -0.360756
8 2.24752 0 0 0.0800335 0.130871 -0.0225879
9 1.11936 0 0 0.0688114 0.177523 -0.338114
10 3.71348 -0.102641 0.102191 1.81842 1.37508 0.188411
11 1.72615 0 0 0.0136259 -0.0250638 -0.609754
12 1.21114 0 0 0.002367 0.0174767 -0.462832
13 3.59919 -1.06012 0.0708878 1.68096 1.17438 0.0612367
14 1.66069 0 0 -0.00987788 0.0219166 -0.64561
15 1.167 0 0 0.0379318 -0.0317195 -0.610266
16 2.18853 0.50104 0.0576589 1.57003 0.153931 0.225781
17 1.29609 0 0 0.0343669 0.0550095 -1.22788
18 1.62202 0.000711441 -0.000470638 0.00441629 -0.0145794 -0.727069
19 1.22241 0 0 -0.00631658 0.017687 -0.370915
20 1.76707 1.27612 0.0366411 1.57002 0.26187 0.261241
21 1.55588 0 0 -0.0324567 0.00304733 -1.18264
22 1.24273 0 0 -0.000599386 0 -0.65185
23 0.784524 0 0 0.00633944 0.00191163 -0.571831
24 -1.93761 5.60916 -3.60973 -0.000932693 0 3.14159
25 6.02794 0 0 0.960879 0.443528 1.49959
26 11.7344 0 0 0.00140279 0 0.850599
27 8.81167 0 0 -0.133884 0 0
28 5.77884 0 0 -0.0897023 0 0
29 2.23249 0 0 -0.0441817 0 0
30 11.4725 0 0 0.138058 -0.435478 -0.596715
31 0.615813 0.994373 -0.809165 -2.75592 0.374249 0.315718
32 2.24752 0 0 -0.565214 0.197981 0.0658205
33 1.11936 0 0 -0.0549132 0.0237985 0.34886
34 3.71348 0.10264 0.10219 -1.55367 0.888575 -0.0661111
35 1.72615 0 0 -0.0121439 -0.00651266 1.19024
36 1.21112 0 0 0.0118385 0.0130726 1.33339
37 3.5992 1.06012 0.0708883 -1.45448 0.289842 0.348452
38 1.66069 0 0 -0.0204446 0.0691883 -0.0352876
39 1.16699 0 0 0.0118833 0.0235393 -0.00622655
40 2.18853 -0.501041 0.0576591 -1.55151 0.172885 -0.118539
41 1.29609 0 0 -0.0200504 -0.0423274 0.631309
42 1.62202 -0.000712395 -0.000469685 -0.0284748 -0.0166479 1.25494
43 1.22241 0 0 -0.00733725 0.00175442 1.23076
44 1.76707 -1.27612 0.0366409 -1.52771 0.265811 -0.101503
45 1.55587 0 0 0.0305806 -0.0879843 0.525515
46 1.24273 0 0 0.000599176 0 0.710283
47 0.784532 0 0 -0.00205815 0.0064163 0.880036
48 0 0 0 0 0 0
49 -4.26622 -19.35 -5.61724 -0.0112502 0.126154 -0.00434894
50 0 -1.51208 1.07027 0 0 0
51 0.540026 -0.376652 1.73991 0.132749 0 0
52 0 -3.13126 2.17037 0 0 0
53 0 -2.17842 1.90586 -0.041928 0 0
54 -4.36822 -18.5895 -6.44757 -0.0112502 0.126154 -0.00434894
55 0 -0.799212 2.20261 0 0 0
56 0 -0.54077 1.81329 0 0 0
time 28
0 1.5572 9.20997 -3.60973 0.000934124 0 -1.06437
1 6.02794 0 0 -1.40852 0.453041 -0.788719
2 11.7344 0 0 -0.00140273 0 -0.592416
3 8.81139 -0.000449181 -0.00011158 -0.538533 0 0.000157767
4 5.77839 0.000287056 0 -0.360817 0 0.000103494
5 2.23164 -0.000328064 -0.000363827 -0.177716 0 0
6 11.4725 0 0 -0.582869 -0.156674 0.281216
7 0.615217 -0.993091 -0.8107 2.33805 -0.0433469 -0.360756
8 2.24752 0 0 0.0800336 0.130871 -0.022588
9 1.11936 0 0 0.0688115 0.177523 -0.338114
10 3.71348 -0.102641 0.102191 1.81842 1.37508 0.188412
11 1.72615 0 0 0.0136259 -0.0250638 -0.609754
12 1.21114 0 0 0.00236704 0.0174767 -0.462832
13 3.59919 -1.06012 0.070888 1.68096 1.17438 0.0612364
14 1.66069 0 0 -0.00987792 0.0219166 -0.64561
15 1.167 0 0 0.0379319 -0.0317197 -0.610266
16 2.18852 0.50104 0.0576589 1.57003 0.153931 0.225781
17 1.29609 0 0 0.0343668 0.0550095 -1.22788
18 1.62202 0.000715256 -0.000471115 0.00441623 -0.0145794 -0.727069
19 1.22241 0 0 -0.00631655 0.017687 -0.370915
20 1.76707 1.27612 0.0366409 1.57002 0.26187 0.261241
21 1.55588 0 0 -0.0324566 0.00304721 -1.18264
22 1.24274 0 0 -0.000599527 0 -0.65185
23 0.784523 0 0 0.00633926 0.0019118 -0.571831
24 -1.93761 5.60916 -3.60973 -0.000932693 0 3.14159
25 6.02794 0 0 0.960396 0.44414 1.50039
26 11.7344 0 0 0.00140263 0 0.852807
27 8.81167 0 0 -0.139641 0 0
28 5.77884 0 0 -0.0935592 0 0
29 2.23249 0 0 -0.0460813 0 0
30 11.4725 0 0 0.132594 -0.433092 -0.601627
31 0.615812 0.994372 -0.809165 -2.75592 0.374249 0.315718
32 2.24751 0 0 -0.565214 0.197981 0.0658205
33 1.11936 0 0 -0.0549133 0.0237985 0.34886
34 3.71349 0.102639 0.102191 -1.55367 0.888575 -0.0661113
35 1.72615 0 0 -0.0121439 -0.00651267 1.19024
36 1.21112 0 0 0.0118385 0.0130727 1.33339
37 3.5992 1.06012 0.0708885 -1.45448 0.289842 0.348452
38 1.66069 0 0 -0.0204446 0.0691882 -0.0352877
39 1.16699 0 0 0.0118832 0.0235394 -0.00622648
40 2.18853 -0.501041 0.0576589 -1.55151 0.172885 -0.118539
41 1.29609 0 0 -0.0200504 -0.0423274 0.631309
42 1.62201 -0.000713348 -0.000469208 -0.0284747 -0.0166479 1.25494
43 1.22241 0 0 -0.00733734 0.00175432 1.23076
44 1.76707 -1.27612 0.0366404 -1.52771 0.265811 -0.101504
45 1.55588 0 0 0.0305805 -0.0879844 0.525515
46 1.24273 0 0 0.000599271 0 0.710283
47 0.784532 0 0 -0.00205816 0.00641633 0.880036
48 0 0 0 0 0 0
49 -4.22989 -19.3337 -5.63682 -0.00547212 0.131945 -0.00206231
50 0 -1.51208 1.07027 0 0 0
51 0.540026 -0.376654 1.73991 0.132749 0 0
52 0 -3.13126 2.17037 0 0 0
53 0 -2.17842 1.90586 -0.041928 0 0
54 -4.33784 -18.5686 -6.46216 -0.00547213 0.131945 -0.00206231
55 0 -0.799215 2.20261 0 0 0
56 0 -0.54077 1.81329 0 0 0
time 29
0 1.5572 9.20997 -3.60973 0.000934124 0 -1.06437
1 6.02794 0 0 -1.40847 0.456648 -0.787851
2 11.7344 0 0 -0.00140289 0 -0.598636
3 8.81139 -0.000451088 -0.000112057 -0.542093 0 0.000157979
4 5.77839 0.000286102 0 -0.363203 0 0.000103715
5 2.23164 -0.000329971 -0.000364065 -0.178891 0 0
6 11.4725 0 0 -0.58768 -0.156278 0.286996
7 0.615219 -0.993091 -0.8107 2.33805 -0.0433468 -0.360756
8 2.24752 0 0 0.0800334 0.130871 -0.0225881
9 1.11936 0 0 0.0688114 0.177523 -0.338114
10 3.71348 -0.102641 0.102191 1.81843 1.37508 0.188411
11 1.72615 0 0 0.0136259 -0.0250639 -0.609754
12 1.21114 0 0 0.00236699 0.0174768 -0.462832
13 3.59919 -1.06012 0.070888 1.68096 1.17438 0.0612368
14 1.66069 0 0 -0.00987786 0.0219166 -0.64561
15 1.167 0 0 0.0379319 -0.0317196 -0.610266
16 2.18852 0.50104 0.0576589 1.57003 0.153931 0.225781
17 1.29609 0 0 0.0343667 0.0550094 -1.22788
18 1.62202 0.000709534 -0.000471115 0.00441626 -0.0145795 -0.727069
19 1.22241 0 0 -0.00631659 0.017687 -0.370915
20 1.76707 1.27612 0.0366411 1.57002 0.26187 0.261241
21 1.55588 0 0 -0.0324566 0.00304724 -1.18264
22 1.24273 0 0 -0.000599489 0 -0.65185
23 0.784523 0 0 0.00633938 0.00191165 -0.571831
24 -1.93761 5.60916 -3.60973 -0.000932693 0 3.14159
25 6.02794 0 0 0.960084 0.444536 1.50091
26 11.7344 0 0 0.0014027 0 0.854333
27 8.81167 0 0 -0.143474 0 0
28 5.77884 0 0 -0.0961277 0 0
29 2.23249 0 0 -0.0473466 0 0
30 11.4725 0 0 0.128969 -0.431454 -0.605099
31 0.615813 0.994372 -0.809165 -2.75592 0.374249 0.315718
32 2.24752 0 0 -0.565214 0.197981 0.0658203
33 1.11936 0 0 -0.0549132 0.0237985 0.34886
34 3.71349 0.102639 0.102191 -1.55367 0.888575 -0.0661111
35 1.72615 0 0 -0.0121439 -0.00651264 1.19024
36 1.21112 0 0 0.0118385 0.0130726 1.33339
37 3.5992 1.06012 0.0708885 -1.45448 0.289842 0.348452
38 1.66069 0 0 -0.0204446 0.0691882 -0.0352877
39 1.16699 0 0 0.0118833 0.0235393 -0.00622659
40 2.18853 -0.501041 0.0576589 -1.55151 0.172885 -0.118539
41 1.29609 0 0 -0.0200504 -0.0423274 0.631309
42 1.62202 -0.000713348 -0.000470161 -0.0284749 -0.016648 1.25494
43 1.22241 0 0 -0.00733725 0.00175437 1.23076
44 1.76707 -1.27612 0.0366402 -1.52771 0.265811 -0.101503
45 1.55588 0 0 0.0305806 -0.0879844 0.525515
46 1.24273 0 0 0.000599201 0 0.710283
47 0.784531 0 0 -0.00205815 0.00641637 0.880036
48 0 0 0 0 0 0
49 -4.20614 -19.3225 -5.64962 -0.00148604 0.135793 -0.000547939
50 0 -1.51208 1.07027 0 0 0
51 0.540026 -0.376654 1.73991 0.132749 0 0
52 0 -3.13126 2.17037 0 0 0
53 0 -2.17842 1.90586 -0.041928 0 0
54 -4.31802 -18.5543 -6.4715 -0.00148604 0.135793 -0.000547939
55 0 -0.799213 2.20261 0 0 0
56 0 -0.54077 1.81329 0 0 0
time 30
0 1.5572 9.20997 -3.60973 0.000934124 0 -1.06437
1 6.02794 0 0 -1.40845 0.457958 -0.787539
2 11.7344 0 0 -0.00140284 0 -0.600911
3 8.81138 -0.000450134 -0.000112295 -0.543387 0 0.000157964
4 5.77839 0.000285149 0 -0.364069 0 0.000103716
5 2.23163 -0.000329971 -0.000364304 -0.179318 0 0
6 11.4725 0 0 -0.589441 -0.156117 0.289145
7 0.615219 -0.993091 -0.8107 2.33805 -0.0433468 -0.360756
8 2.24752 0 0 0.0800335 0.130871 -0.022588
9 1.11936 0 0 0.0688115 0.177523 -0.338114
10 3.71348 -0.102641 0.102191 1.81842 1.37508 0.188411
11 1.72615 0 0 0.0136259 -0.025064 -0.609754
12 1.21114 0 0 0.00236699 0.0174766 -0.462832
13 3.59919 -1.06012 0.0708883 1.68096 1.17438 0.0612364
14 1.66069 0 0 -0.00987789 0.0219167 -0.64561
15 1.167 0 0 0.0379319 -0.0317196 -0.610265
16 2.18852 0.501039 0.0576591 1.57003 0.153931 0.225781
17 1.29609 0 0 0.0343667 0.0550095 -1.22788
18 1.62202 0.000715256 -0.000471592 0.00441619 -0.0145795 -0.72707
19 1.22241 0 0 -0.00631663 0.017687 -0.370915
20 1.76707 1.27612 0.0366409 1.57002 0.26187 0.261241
21 1.55588 0 0 -0.0324565 0.00304738 -1.18264
22 1.24274 0 0 -0.000599433 0 -0.65185
23 0.784525 0 0 0.00633929 0.00191177 -0.571831
24 -1.93761 5.60916 -3.60973 -0.000932693 0 3.14159
25 6.02794 0 0 0.959973 0.444678 1.50109
26 11.7344 0 0 0.00140272 0 0.854906
27 8.81167 0 0 -0.14487 0 0
28 5.77884 0 0 -0.0970628 0 0
29 2.23249 0 0 -0.0478071 0 0
30 11.4725 0 0 0.127655 -0.430844 -0.606416
31 0.615813 0.994372 -0.809165 -2.75592 0.374249 0.315718
32 2.24752 0 0 -0.565214 0.197981 0.0658206
33 1.11936 0 0 -0.0549134 0.0237985 0.34886
34 3.71349 0.102639 0.102191 -1.55367 0.888575 -0.0661113
35 1.72615 0 0 -0.0121439 -0.00651259 1.19024
36 1.21112 0 0 0.0118385 0.0130726 1.33339
37 3.5992 1.06012 0.0708883 -1.45448 0.289842 0.348452
38 1.66069 0 0 -0.0204447 0.0691882 -0.0352878
39 1.16699 0 0 0.0118833 0.0235393 -0.00622663
40 2.18853 -0.50104 0.0576589 -1.55151 0.172885 -0.118539
41 1.29609 0 0 -0.0200504 -0.0423275 0.631309
42 1.62202 -0.000712395 -0.000469685 -0.0284747 -0.016648 1.25494
43 1.22241 0 0 -0.00733736 0.00175441 1.23076
44 1.76707 -1.27612 0.0366404 -1.52771 0.265811 -0.101503
45 1.55588 0 0 0.0305806 -0.0879844 0.525515
46 1.24273 0 0 0.000599218 0 0.710283
47 0.784532 0 0 -0.00205817 0.00641633 0.880036
48 0 0 0 0 0 0
49 -4.19764 -19.3184 -5.6542 0 0.137189 0
50 0 -1.51208 1.07027 0 0 0
51 0.540026 -0.376654 1.73991 0.132749 0 0
52 0 -3.13126 2.17037 0 0 0
53 0 -2.17842 1.90586 -0.041928 0 0
54 -4.31093 -18.549 -6.4748 0 0.137189 0
55 0 -0.799212 2.20261 0 0 0
56 0 -0.54077 1.81329 0 0 0
end
