//Sequence File generated by the Wall Worm SMD Exporter PRO 1.99
//www.wallworm.com
version 1
nodes
0 "b_l_clav" -1
1 "b_l_upperarm" 0
2 "b_l_forearm" 1
3 "b_l_twist3" 2
4 "b_l_twist2" 2
5 "b_l_twist1" 2
6 "b_l_hand" 2
7 "b_l_thumb001" 6
8 "b_l_thumb002" 7
9 "b_l_thumb003" 8
10 "b_l_middle001" 6
11 "b_l_middle002" 10
12 "b_l_middle003" 11
13 "b_l_index001" 6
14 "b_l_index002" 13
15 "b_l_index003" 14
16 "b_l_hand_ringsqueezer" 6
17 "b_l_ring001" 16
18 "b_l_ring002" 17
19 "b_l_ring003" 18
20 "b_l_hand_pinkysqueezer" 6
21 "b_l_pinky001" 20
22 "b_l_pinky002" 21
23 "b_l_pinky003" 22
24 "b_r_clav" -1
25 "b_r_upperarm" 24
26 "b_r_forearm" 25
27 "b_r_twist3" 26
28 "b_r_twist2" 26
29 "b_r_twist1" 26
30 "b_r_hand" 26
31 "b_r_thumb001" 30
32 "b_r_thumb002" 31
33 "b_r_thumb003" 32
34 "b_r_middle001" 30
35 "b_r_middle002" 34
36 "b_r_middle003" 35
37 "b_r_index001" 30
38 "b_r_index002" 37
39 "b_r_index003" 38
40 "b_r_hand_ringsqueezer" 30
41 "b_r_ring001" 40
42 "b_r_ring002" 41
43 "b_r_ring003" 42
44 "b_r_hand_pinkysqueezer" 30
45 "b_r_pinky001" 44
46 "b_r_pinky002" 45
47 "b_r_pinky003" 46
48 "b_zero" -1
49 "d_gun" -1
50 "d_trig" 49
51 "d_slidelock" 49
52 "d_slide" 49
53 "d_barrel" 49
54 "d_mag" -1
55 "d_magfollower" 54
56 "d_boolet" 54
end
skeleton
time 0
0 1.5572 9.20997 -3.60973 0.000934124 0 -1.06437
1 6.02794 0 0 -1.40652 0.433856 -0.795337
2 11.7344 0 0 -0.00140288 0 -0.609235
3 8.81138 -0.000449181 -0.000112057 -0.395216 0 0.000157816
4 5.77839 0.000287056 0 -0.264795 0 0.000104063
5 2.23164 -0.000329018 -0.000364065 -0.130421 0 0
6 11.4725 0 0 -0.46402 -0.174922 0.349091
7 0.615219 -0.993091 -0.8107 2.33805 -0.0433468 -0.360756
8 2.24752 0 0 0.0800335 0.130871 -0.0225879
9 1.11936 0 0 0.0688114 0.177523 -0.338114
10 3.71348 -0.102641 0.102191 1.81842 1.37508 0.188411
11 1.72615 0 0 0.0136259 -0.0250639 -0.609754
12 1.21114 0 0 0.00236707 0.0174767 -0.462832
13 3.59919 -1.06012 0.0708884 1.68096 1.17438 0.0612361
14 1.66069 0 0 -0.00987787 0.0219166 -0.64561
15 1.167 0 0 0.0379319 -0.0317196 -0.610266
16 2.18853 0.501039 0.057659 1.57003 0.153931 0.225781
17 1.2961 0 0 0.0343667 0.0550095 -1.22788
18 1.62202 0.000715256 -0.000471115 0.00441626 -0.0145794 -0.727069
19 1.22241 0 0 -0.00631663 0.017687 -0.370915
20 1.76707 1.27612 0.036641 1.57002 0.26187 0.261241
21 1.55588 0 0 -0.0324566 0.00304736 -1.18264
22 1.24274 0 0 -0.000599536 0 -0.65185
23 0.784524 0 0 0.00633937 0.00191177 -0.571831
24 -1.93761 5.60916 -3.60973 -0.000932693 0 3.14159
25 6.02794 0 0 0.968156 0.438421 1.47904
26 11.7344 0 0 0.00140272 0 0.874785
27 8.81167 0 0 -0.0157288 0 0
28 5.77884 0 0 -0.0105384 0 0
29 2.23249 0 0 -0.00519044 0 0
30 11.4725 0 0 0.258886 -0.3835 -0.647746
31 0.615814 0.994373 -0.809166 -2.75592 0.374249 0.315718
32 2.24752 0 0 -0.565214 0.197981 0.0658205
33 1.11936 0 0 -0.0549132 0.0237986 0.34886
34 3.71349 0.102639 0.102191 -1.55367 0.888575 -0.0661111
35 1.72615 0 0 -0.0121439 -0.00651261 1.19024
36 1.21112 0 0 0.0118385 0.0130726 1.33339
37 3.5992 1.06012 0.0708879 -1.53154 0.266229 0.170417
38 1.66069 0 0 0.0307887 0.0659277 0.632516
39 1.16699 0 0 0.0346484 0.0172046 0.590301
40 2.18853 -0.50104 0.0576586 -1.55151 0.172885 -0.118539
41 1.29609 0 0 -0.0200504 -0.0423274 0.631309
42 1.62202 -0.000713348 -0.000469685 -0.0284748 -0.016648 1.25494
43 1.22241 0 0 -0.00733725 0.00175434 1.23076
44 1.76707 -1.27612 0.0366399 -1.52771 0.265811 -0.101503
45 1.55588 0 0 0.0305806 -0.0879844 0.525515
46 1.24273 0 0 0.000599195 0 0.710283
47 0.784532 0 0 -0.00205818 0.00641634 0.880036
48 0 0 0 0 0 0
49 -4.60592 -19.3184 -5.2717 0 0 0
50 0 -1.51208 1.07027 0 0 0
51 0.540026 -0.371634 1.70233 0 0 0
52 0 -4.95107 2.17037 0 0 0
53 0 -2.31355 1.98216 0 0 0
54 -4.60592 -18.549 -6.10007 0 0 0
55 0 -0.769073 1.97674 0 0 0
56 0 -0.826365 2.70072 0 0 0
time 1
0 1.5572 9.20997 -3.60973 0.000934124 0 -1.06437
1 6.02794 0 0 -1.40512 0.439269 -0.795219
2 11.7344 0 0 -0.00140289 0 -0.624086
3 8.81138 -0.000449181 -0.000112772 -0.409275 0 0.000157635
4 5.77839 0.000286102 0 -0.274214 0 0.000103915
5 2.23163 -0.000328064 -0.000363588 -0.135061 0 0
6 11.4725 0 0 -0.487184 -0.168334 0.38637
7 0.615217 -0.993091 -0.8107 2.33805 -0.0433469 -0.360756
8 2.24752 0 0 0.0800335 0.130871 -0.0225881
9 1.11936 0 0 0.0688114 0.177523 -0.338114
10 3.71348 -0.102641 0.102191 1.81842 1.37508 0.188411
11 1.72615 0 0 0.0136259 -0.0250639 -0.609754
12 1.21114 0 0 0.00236699 0.0174767 -0.462832
13 3.59919 -1.06012 0.0708882 1.68096 1.17438 0.0612362
14 1.66069 0 0 -0.00987787 0.0219166 -0.64561
15 1.167 0 0 0.0379319 -0.0317196 -0.610265
16 2.18852 0.50104 0.0576593 1.57003 0.153931 0.225781
17 1.2961 0 0 0.0343667 0.0550094 -1.22788
18 1.62202 0.000713348 -0.000470638 0.00441617 -0.0145795 -0.727069
19 1.22241 0 0 -0.00631658 0.017687 -0.370915
20 1.76707 1.27612 0.036641 1.57002 0.26187 0.261241
21 1.55588 0 0 -0.0324566 0.00304736 -1.18264
22 1.24274 0 0 -0.000599461 0 -0.65185
23 0.784522 0 0 0.00633924 0.00191176 -0.571831
24 -1.93761 5.60916 -3.60973 -0.000932693 0 3.14159
25 6.02794 0 0 0.970115 0.43441 1.47926
26 11.7344 0 0 0.00140267 0 0.878188
27 8.81167 0 0 -0.032136 0 0
28 5.77884 0 0 -0.0215313 0 0
29 2.23249 0 0 -0.010605 0 0
30 11.4725 0 0 0.245071 -0.367067 -0.677273
31 0.615814 0.994373 -0.809166 -2.75592 0.374249 0.315718
32 2.24752 0 0 -0.565214 0.197981 0.0658204
33 1.11936 0 0 -0.0549134 0.0237984 0.34886
34 3.71349 0.102639 0.10219 -1.55367 0.888575 -0.0661109
35 1.72615 0 0 -0.0121439 -0.00651271 1.19024
36 1.21112 0 0 0.0118386 0.0130726 1.33339
37 3.5992 1.06012 0.0708876 -1.53154 0.266229 0.170417
38 1.66069 0 0 0.0415952 0.0601989 0.789881
39 1.16699 0 0 0.0357827 0.0116056 0.74737
40 2.18853 -0.50104 0.0576586 -1.55151 0.172885 -0.118539
41 1.29609 0 0 -0.0200504 -0.0423275 0.631309
42 1.62201 -0.000713348 -0.000469685 -0.0284747 -0.0166479 1.25494
43 1.22241 0 0 -0.00733727 0.00175436 1.23076
44 1.76707 -1.27612 0.0366405 -1.52771 0.265811 -0.101503
45 1.55588 0 0 0.0305807 -0.0879844 0.525515
46 1.24273 0 0 0.000599208 0 0.710283
47 0.784531 0 0 -0.00205812 0.00641633 0.880036
48 0 0 0 0 0 0
49 -4.60226 -19.3038 -5.28107 0.0305456 0.012857 0.000392835
50 0 -1.50715 1.083 0.153348 0 0
51 0.540026 -0.371632 1.70233 0 0 0
52 0 -4.26864 2.17037 0 0 0
53 0 -2.24599 1.94401 -0.0209638 0 0
54 -4.61291 -18.5095 -6.0855 0.0305456 0.012857 0.000392835
55 0 -0.769073 1.97674 0 0 0
56 0 -0.826365 2.70072 0 0 0
time 2
0 1.5572 9.20997 -3.60973 0.000934124 0 -1.06437
1 6.02794 0 0 -1.37378 0.576376 -0.780171
2 11.7344 0 0 -0.00140286 0 -0.872176
3 8.81138 -0.000450134 -0.000112534 -0.353129 0 0.000157993
4 5.77839 0.000286102 0 -0.236596 0 0.000104311
5 2.23163 -0.000329018 -0.000364065 -0.116533 0 0
6 11.4725 0 0 -0.44654 -0.212668 0.396279
7 0.615221 -0.993091 -0.8107 2.33805 -0.043347 -0.360756
8 2.24752 0 0 0.0800336 0.130871 -0.0225881
9 1.11935 0 0 0.0688116 0.177523 -0.338114
10 3.71348 -0.102641 0.102191 1.81842 1.37508 0.188411
11 1.72615 0 0 0.0136259 -0.0250639 -0.609754
12 1.21114 0 0 0.00236704 0.0174767 -0.462832
13 3.59919 -1.06012 0.0708878 1.68096 1.17438 0.0612364
14 1.66069 0 0 -0.00987789 0.0219166 -0.64561
15 1.167 0 0 0.0379319 -0.0317196 -0.610266
16 2.18852 0.50104 0.057659 1.57003 0.153932 0.225781
17 1.29609 0 0 0.0343667 0.0550094 -1.22788
18 1.62202 0.000713348 -0.000471592 0.00441622 -0.0145794 -0.727069
19 1.22241 0 0 -0.00631657 0.017687 -0.370915
20 1.76707 1.27612 0.0366409 1.57002 0.26187 0.261241
21 1.55588 0 0 -0.0324567 0.0030473 -1.18264
22 1.24273 0 0 -0.000599442 0 -0.65185
23 0.784524 0 0 0.00633934 0.0019116 -0.571831
24 -1.93761 5.60916 -3.60973 -0.000932693 0 3.14159
25 6.02794 0 0 0.919516 0.550069 1.40767
26 11.7344 0 0 0.00140271 0 1.10534
27 8.81167 0 0 -0.0608306 0 0
28 5.77884 0 0 -0.0407564 0 0
29 2.23249 0 0 -0.0200742 0 0
30 11.4725 0 0 0.274233 -0.443112 -0.688173
31 0.615814 0.994372 -0.809166 -2.75592 0.374249 0.315718
32 2.24752 0 0 -0.565214 0.197981 0.0658205
33 1.11936 0 0 -0.0549132 0.0237985 0.34886
34 3.71349 0.10264 0.102191 -1.55367 0.888575 -0.0661109
35 1.72615 0 0 -0.0121439 -0.00651265 1.19024
36 1.21112 0 0 0.0118386 0.0130726 1.33339
37 3.5992 1.06012 0.0708886 -1.53154 0.266229 0.170417
38 1.66069 0 0 0.0513654 0.0528512 0.947116
39 1.16699 0 0 0.0358595 0.00548183 0.90441
40 2.18853 -0.50104 0.057659 -1.55151 0.172885 -0.118539
41 1.29609 0 0 -0.0200504 -0.0423275 0.631309
42 1.62202 -0.000712395 -0.000469685 -0.0284748 -0.0166479 1.25494
43 1.22241 0 0 -0.00733728 0.00175437 1.23076
44 1.76707 -1.27612 0.0366409 -1.52771 0.265811 -0.101503
45 1.55588 0 0 0.0305806 -0.0879844 0.525515
46 1.24273 0 0 0.000599197 0 0.710283
47 0.784532 0 0 -0.00205815 0.00641635 0.880036
48 0 0 0 0 0 0
49 -4.60592 -17.9935 -5.2717 -0.0797672 -0.0101309 0.000809808
50 0 -1.50025 1.10082 0.306695 0 0
51 0.540026 -0.371635 1.70233 0 0 0
52 0 -3.13126 2.17037 0 0 0
53 0 -2.17842 1.90586 -0.0419277 0 0
54 -4.59751 -17.2926 -6.1587 -0.0797672 -0.0101309 0.000809808
55 0 -0.769075 1.97674 0 0 0
56 0 -0.826365 2.70072 0 0 0
time 3
0 1.5572 9.20997 -3.60973 0.000934124 0 -1.06437
1 6.02794 0 0 -1.36264 0.599175 -0.779877
2 11.7344 0 0 -0.00140289 0 -0.907014
3 8.81138 -0.000450134 -0.000111699 -0.349736 0 0.00015756
4 5.77839 0.000287056 0 -0.234323 0 0.000103911
5 2.23163 -0.000328064 -0.000363946 -0.115413 0 0
6 11.4725 0 0 -0.433773 -0.252536 0.340639
7 0.615218 -0.993091 -0.8107 2.33805 -0.0433468 -0.360756
8 2.24752 0 0 0.0800335 0.130871 -0.022588
9 1.11936 0 0 0.0688114 0.177523 -0.338114
10 3.71348 -0.102641 0.102191 1.81842 1.37508 0.188411
11 1.72615 0 0 0.0136259 -0.0250639 -0.609754
12 1.21114 0 0 0.00236696 0.0174767 -0.462832
13 3.59919 -1.06012 0.070888 1.68096 1.17438 0.0612362
14 1.66069 0 0 -0.00987787 0.0219166 -0.64561
15 1.167 0 0 0.0379319 -0.0317196 -0.610265
16 2.18853 0.50104 0.057659 1.57003 0.153931 0.225781
17 1.29609 0 0 0.0343667 0.0550095 -1.22788
18 1.62202 0.000711441 -0.000471115 0.00441617 -0.0145794 -0.727069
19 1.22241 0 0 -0.00631651 0.017687 -0.370915
20 1.76706 1.27612 0.0366406 1.57002 0.26187 0.261241
21 1.55588 0 0 -0.0324567 0.00304729 -1.18264
22 1.24273 0 0 -0.00059948 0 -0.65185
23 0.784523 0 0 0.00633937 0.00191177 -0.571831
24 -1.93761 5.60916 -3.60973 -0.000932693 0 3.14159
25 6.02794 0 0 0.904018 0.579386 1.3851
26 11.7344 0 0 0.0014027 0 1.1505
27 8.81167 0 0 -0.0571327 0 0
28 5.77884 0 0 -0.0382789 0 0
29 2.23249 0 0 -0.0188538 0 0
30 11.4725 0 0 0.257601 -0.471667 -0.622599
31 0.615814 0.994373 -0.809165 -2.75592 0.374248 0.315718
32 2.24752 0 0 -0.565214 0.197981 0.0658205
33 1.11936 0 0 -0.0549133 0.0237985 0.34886
34 3.71349 0.10264 0.102191 -1.55366 0.888575 -0.0661108
35 1.72615 0 0 -0.0121439 -0.0065126 1.19024
36 1.21112 0 0 0.0118385 0.0130726 1.33339
37 3.5992 1.06012 0.0708883 -1.53154 0.266228 0.170417
38 1.66069 0 0 0.0513654 0.0528511 0.947117
39 1.16699 0 0 0.0358595 0.00548186 0.90441
40 2.18853 -0.50104 0.0576594 -1.55151 0.172885 -0.118539
41 1.29609 0 0 -0.0200505 -0.0423275 0.631309
42 1.62202 -0.000713348 -0.000469685 -0.0284747 -0.0166479 1.25494
43 1.22241 0 0 -0.00733724 0.00175436 1.23076
44 1.76707 -1.27612 0.036641 -1.52771 0.265811 -0.101503
45 1.55588 0 0 0.0305806 -0.0879843 0.525515
46 1.24273 0 0 0.000599201 0 0.710283
47 0.784532 0 0 -0.00205813 0.00641636 0.880036
48 0 0 0 0 0 0
49 -4.63416 -17.6689 -5.19668 -0.151981 -0.0037558 0.0190752
50 0 -1.49729 1.10846 0.306695 0 0
51 0.540027 -0.371632 1.70233 0 0 0
52 0 -3.13126 2.17037 0 0 0
53 0 -2.17842 1.90586 -0.0419276 0 0
54 -4.64277 -17.0339 -6.13199 -0.151981 -0.0037558 0.0190752
55 0 -0.769075 1.97674 0 0 0
56 0 -0.826365 2.70072 0 0 0
time 4
0 1.5572 9.20997 -3.60973 0.000934124 0 -1.06437
1 6.02794 0 0 -1.37186 0.55 -0.790148
2 11.7344 0 0 -0.00140296 0 -0.811172
3 8.81139 -0.000450134 -0.000112057 -0.372015 0 0.000157856
4 5.77839 0.000286102 0 -0.24925 0 0.000104177
5 2.23164 -0.000329018 -0.000363588 -0.122765 0 0
6 11.4725 0 0 -0.429624 -0.276894 0.2527
7 0.615217 -0.993092 -0.8107 2.33805 -0.0433469 -0.360756
8 2.24752 0 0 0.0800335 0.130871 -0.022588
9 1.11936 0 0 0.0688114 0.177523 -0.338114
10 3.71348 -0.102641 0.102191 1.81842 1.37508 0.188412
11 1.72615 0 0 0.0136259 -0.0250639 -0.609754
12 1.21114 0 0 0.002367 0.0174767 -0.462832
13 3.59919 -1.06012 0.070888 1.68096 1.17438 0.0612368
14 1.66069 0 0 -0.00987786 0.0219166 -0.64561
15 1.167 0 0 0.0379319 -0.0317196 -0.610265
16 2.18852 0.501039 0.0576589 1.57003 0.153932 0.225781
17 1.29609 0 0 0.0343667 0.0550094 -1.22788
18 1.62202 0.000711441 -0.000471592 0.00441628 -0.0145794 -0.72707
19 1.22241 0 0 -0.00631657 0.017687 -0.370915
20 1.76707 1.27612 0.0366411 1.57002 0.26187 0.261241
21 1.55588 0 0 -0.0324566 0.00304732 -1.18264
22 1.24273 0 0 -0.000599433 0 -0.65185
23 0.784525 0 0 0.00633934 0.00191179 -0.571831
24 -1.93761 5.60916 -3.60973 -0.000932693 0 3.14159
25 6.02794 0 0 0.91912 0.55338 1.40021
26 11.7344 0 0 0.00140267 0 1.08137
27 8.81167 0 0 -0.028644 0 0
28 5.77884 0 0 -0.0191915 0 0
29 2.23249 0 0 -0.00945253 0 0
30 11.4725 0 0 0.228166 -0.468577 -0.525274
31 0.615812 0.994372 -0.809165 -2.75592 0.374249 0.315718
32 2.24752 0 0 -0.565214 0.197981 0.0658205
33 1.11936 0 0 -0.0549133 0.0237986 0.34886
34 3.71348 0.102639 0.102191 -1.55367 0.888575 -0.0661114
35 1.72615 0 0 -0.0121439 -0.00651264 1.19024
36 1.21112 0 0 0.0118385 0.0130726 1.33339
37 3.5992 1.06012 0.070888 -1.53154 0.266229 0.170417
38 1.66069 0 0 0.0513654 0.0528513 0.947116
39 1.16699 0 0 0.0358595 0.00548189 0.90441
40 2.18853 -0.501041 0.0576589 -1.55151 0.172885 -0.118539
41 1.29609 0 0 -0.0200505 -0.0423275 0.631309
42 1.62202 -0.000714302 -0.000470161 -0.0284748 -0.0166479 1.25494
43 1.22241 0 0 -0.00733724 0.00175438 1.23076
44 1.76707 -1.27612 0.0366408 -1.52771 0.265811 -0.101503
45 1.55587 0 0 0.0305806 -0.0879844 0.525515
46 1.24273 0 0 0.000599186 0 0.710283
47 0.784531 0 0 -0.00205815 0.0064163 0.880036
48 0 0 0 0 0 0
49 -4.67891 -18.082 -5.07949 -0.194009 0.0124578 0.0391686
50 0 -1.49631 1.11101 0.306695 0 0
51 0.540026 -0.371634 1.70233 0 0 0
52 0 -3.13126 2.17037 0 0 0
53 0 -2.17842 1.90586 -0.0419277 0 0
54 -4.71419 -17.4877 -6.04059 -0.194009 0.0124578 0.0391686
55 0 -0.769072 1.97674 0 0 0
56 0 -0.826365 2.70072 0 0 0
time 5
0 1.5572 9.20997 -3.60973 0.000934124 0 -1.06437
1 6.02794 0 0 -1.38236 0.500592 -0.797591
2 11.7344 0 0 -0.00140294 0 -0.720352
3 8.81139 -0.000449181 -0.000112295 -0.387962 0 0.000157829
4 5.77839 0.000287056 0 -0.259934 0 0.000104084
5 2.23163 -0.000329018 -0.000364304 -0.128027 0 0
6 11.4725 0 0 -0.428867 -0.273309 0.202965
7 0.615221 -0.993091 -0.8107 2.33805 -0.0433469 -0.360756
8 2.24752 0 0 0.0800336 0.130871 -0.0225881
9 1.11936 0 0 0.0688114 0.177523 -0.338114
10 3.71348 -0.102641 0.102191 1.81842 1.37508 0.188411
11 1.72615 0 0 0.0136259 -0.0250639 -0.609754
12 1.21114 0 0 0.00236704 0.0174767 -0.462832
13 3.59919 -1.06012 0.0708879 1.68096 1.17438 0.0612366
14 1.66069 0 0 -0.00987789 0.0219166 -0.64561
15 1.167 0 0 0.0379318 -0.0317196 -0.610265
16 2.18852 0.50104 0.0576588 1.57003 0.153931 0.225781
17 1.29609 0 0 0.0343667 0.0550094 -1.22788
18 1.62202 0.000715256 -0.000470638 0.00441623 -0.0145795 -0.727069
19 1.22241 0 0 -0.00631656 0.017687 -0.370915
20 1.76707 1.27612 0.0366403 1.57002 0.26187 0.261241
21 1.55588 0 0 -0.0324567 0.00304734 -1.18264
22 1.24273 0 0 -0.000599433 0 -0.65185
23 0.784523 0 0 0.00633934 0.0019117 -0.571831
24 -1.93761 5.60916 -3.60973 -0.000932693 0 3.14159
25 6.02794 0 0 0.934941 0.522278 1.42002
26 11.7344 0 0 0.00140268 0 1.01379
27 8.81167 0 0 -0.0136046 0 0
28 5.77884 0 0 -0.0091151 0 0
29 2.23249 0 0 -0.00448943 0 0
30 11.4725 0 0 0.217157 -0.463722 -0.482653
31 0.615814 0.994372 -0.809166 -2.75592 0.374249 0.315718
32 2.24752 0 0 -0.565214 0.197981 0.0658204
33 1.11936 0 0 -0.0549132 0.0237984 0.34886
34 3.71349 0.10264 0.102191 -1.55367 0.888575 -0.0661112
35 1.72615 0 0 -0.0121439 -0.00651263 1.19024
36 1.21112 0 0 0.0118385 0.0130726 1.33339
37 3.5992 1.06012 0.0708876 -1.53154 0.266229 0.170417
38 1.66069 0 0 0.0513655 0.0528511 0.947117
39 1.16699 0 0 0.0358595 0.00548182 0.90441
40 2.18853 -0.50104 0.0576587 -1.55151 0.172885 -0.118539
41 1.29609 0 0 -0.0200504 -0.0423275 0.631309
42 1.62201 -0.000713348 -0.000469685 -0.0284747 -0.0166479 1.25494
43 1.22241 0 0 -0.00733733 0.00175435 1.23076
44 1.76707 -1.27612 0.0366404 -1.52771 0.265811 -0.101503
45 1.55588 0 0 0.0305806 -0.0879843 0.525515
46 1.24273 0 0 0.000599193 0 0.710283
47 0.784531 0 0 -0.00205814 0.00641635 0.880036
48 0 0 0 0 0 0
49 -4.71598 -18.4886 -4.9905 -0.200562 0.0192373 0.0402925
50 0 -1.49729 1.10846 0.306695 0 0
51 0.540026 -0.371634 1.70233 0 0 0
52 0 -3.13126 2.17037 0 0 0
53 0 -2.17842 1.90586 -0.0419277 0 0
54 -4.75825 -17.9008 -5.95538 -0.200562 0.0192373 0.0402925
55 0 -0.769073 1.97674 0 0 0
56 0 -0.826365 2.70072 0 0 0
time 6
0 1.5572 9.20997 -3.60973 0.000934124 0 -1.06437
1 6.02794 0 0 -1.38647 0.484279 -0.79906
2 11.7344 0 0 -0.00140273 0 -0.696522
3 8.81138 -0.000449181 -0.000112057 -0.398397 0 0.000157941
4 5.77839 0.000287056 0 -0.266926 0 0.000104085
5 2.23164 -0.000328064 -0.000363827 -0.131471 0 0
6 11.4725 0 0 -0.443346 -0.252609 0.223987
7 0.615221 -0.993092 -0.8107 2.33805 -0.0433468 -0.360756
8 2.24752 0 0 0.0800334 0.130871 -0.0225879
9 1.11936 0 0 0.0688114 0.177523 -0.338114
10 3.71348 -0.102641 0.102191 1.81842 1.37508 0.188411
11 1.72615 0 0 0.0136259 -0.0250639 -0.609754
12 1.21114 0 0 0.00236703 0.0174767 -0.462832
13 3.59919 -1.06012 0.0708878 1.68096 1.17438 0.0612361
14 1.66069 0 0 -0.00987789 0.0219166 -0.64561
15 1.167 0 0 0.0379319 -0.0317196 -0.610266
16 2.18852 0.50104 0.0576591 1.57003 0.153931 0.225781
17 1.29609 0 0 0.0343667 0.0550095 -1.22788
18 1.62202 0.000713348 -0.000471354 0.00441623 -0.0145794 -0.72707
19 1.22241 0 0 -0.00631656 0.017687 -0.370915
20 1.76707 1.27612 0.0366406 1.57002 0.26187 0.261241
21 1.55588 0 0 -0.0324566 0.00304735 -1.18264
22 1.24274 0 0 -0.000599489 0 -0.65185
23 0.784523 0 0 0.00633936 0.00191173 -0.571831
24 -1.93761 5.60916 -3.60973 -0.000932693 0 3.14159
25 6.02794 0 0 0.942556 0.506263 1.42961
26 11.7344 0 0 0.00140276 0 0.992826
27 8.81167 0 0 -0.0265938 0 0
28 5.77884 0 0 -0.0178178 0 0
29 2.23249 0 0 -0.00877589 0 0
30 11.4725 0 0 0.216803 -0.454819 -0.513402
31 0.615812 0.994372 -0.809166 -2.75592 0.374249 0.315718
32 2.24752 0 0 -0.565214 0.197981 0.0658204
33 1.11936 0 0 -0.0549134 0.0237987 0.34886
34 3.71349 0.102639 0.102191 -1.55367 0.888575 -0.0661113
35 1.72615 0 0 -0.0121439 -0.00651264 1.19024
36 1.21112 0 0 0.0118385 0.0130726 1.33339
37 3.5992 1.06012 0.0708874 -1.53154 0.266228 0.170417
38 1.66069 0 0 0.0513654 0.0528512 0.947116
39 1.16699 0 0 0.0358595 0.00548176 0.90441
40 2.18853 -0.50104 0.0576589 -1.55151 0.172885 -0.118539
41 1.29609 0 0 -0.0200504 -0.0423274 0.631309
42 1.62201 -0.000712395 -0.000469208 -0.0284747 -0.0166479 1.25494
43 1.22241 0 0 -0.00733726 0.00175438 1.23076
44 1.76707 -1.27612 0.0366408 -1.52771 0.265811 -0.101503
45 1.55588 0 0 0.0305806 -0.0879844 0.525515
46 1.24273 0 0 0.000599187 0 0.710283
47 0.784531 0 0 -0.00205814 0.00641634 0.880036
48 0 0 0 0 0 0
49 -4.73527 -18.645 -4.96393 -0.169004 0.0230908 0.0277867
50 0 -1.50025 1.10082 0.306695 0 0
51 0.540027 -0.371635 1.70233 0 0 0
52 0 -4.04117 2.17037 0 0 0
53 0 -2.24599 1.94401 -0.0209638 0 0
54 -4.77431 -18.0267 -5.90967 -0.169004 0.0230908 0.0277867
55 0 -0.769072 1.97674 0 0 0
56 0 -1.63128 2.91388 -0.325153 0 0
time 7
0 1.5572 9.20997 -3.60973 0.000934124 0 -1.06437
1 6.02794 0 0 -1.39117 0.470694 -0.798996
2 11.7344 0 0 -0.00140303 0 -0.678881
3 8.81138 -0.000450134 -0.000112534 -0.406276 0 0.000157711
4 5.77839 0.000286102 0 -0.272205 0 0.000103922
5 2.23163 -0.000329971 -0.000364304 -0.134071 0 0
6 11.4725 0 0 -0.45915 -0.220306 0.265391
7 0.615219 -0.993092 -0.8107 2.33805 -0.0433467 -0.360756
8 2.24752 0 0 0.0800335 0.130871 -0.022588
9 1.11936 0 0 0.0688115 0.177523 -0.338114
10 3.71348 -0.102642 0.102191 1.81843 1.37508 0.188412
11 1.72615 0 0 0.0136259 -0.025064 -0.609754
12 1.21114 0 0 0.00236703 0.0174767 -0.462832
13 3.59919 -1.06012 0.0708882 1.68096 1.17438 0.0612369
14 1.66069 0 0 -0.00987788 0.0219166 -0.64561
15 1.167 0 0 0.0379319 -0.0317196 -0.610266
16 2.18853 0.501039 0.0576594 1.57003 0.153931 0.225781
17 1.29609 0 0 0.0343667 0.0550095 -1.22788
18 1.62202 0.000713348 -0.000471592 0.00441627 -0.0145793 -0.727069
19 1.22241 0 0 -0.00631658 0.017687 -0.370915
20 1.76707 1.27612 0.0366409 1.57002 0.26187 0.261241
21 1.55588 0 0 -0.0324566 0.00304733 -1.18264
22 1.24273 0 0 -0.000599499 0 -0.65185
23 0.784523 0 0 0.00633938 0.00191171 -0.571831
24 -1.93761 5.60916 -3.60973 -0.000932693 0 3.14159
25 6.02794 0 0 0.950223 0.48859 1.44112
26 11.7344 0 0 0.00140259 0 0.972092
27 8.81167 0 0 -0.0433137 0 0
28 5.77884 0 0 -0.0290202 0 0
29 2.23249 0 0 -0.0142935 0 0
30 11.4725 0 0 0.22345 -0.442917 -0.568341
31 0.615814 0.994372 -0.809165 -2.75592 0.374249 0.315718
32 2.24752 0 0 -0.565214 0.197981 0.0658205
33 1.11936 0 0 -0.0549133 0.0237985 0.34886
34 3.71349 0.102639 0.102191 -1.55367 0.888575 -0.066111
35 1.72615 0 0 -0.0121439 -0.0065127 1.19024
36 1.21112 0 0 0.0118385 0.0130726 1.33339
37 3.5992 1.06012 0.0708883 -1.53154 0.266229 0.170417
38 1.66069 0 0 0.0415953 0.0601988 0.789881
39 1.16699 0 0 0.0357826 0.0116058 0.74737
40 2.18853 -0.501041 0.0576595 -1.55151 0.172885 -0.118539
41 1.29609 0 0 -0.0200504 -0.0423274 0.631309
42 1.62202 -0.000713348 -0.000469685 -0.0284748 -0.0166479 1.25494
43 1.22241 0 0 -0.00733721 0.0017544 1.23076
44 1.76707 -1.27612 0.0366408 -1.52771 0.265811 -0.101504
45 1.55587 0 0 0.0305806 -0.0879844 0.525515
46 1.24273 0 0 0.000599181 0 0.710283
47 0.784532 0 0 -0.00205817 0.00641631 0.880036
48 0 0 0 0 0 0
49 -4.74487 -18.7992 -4.97632 -0.119137 0.0236407 0.00881771
50 0 -1.50715 1.083 0.153348 0 0
51 0.540026 -0.371635 1.70233 0 0 0
52 0 -4.95107 2.17037 0 0 0
53 0 -2.31355 1.98216 0 0 0
54 -4.77234 -18.134 -5.89002 -0.119137 0.0236407 0.00881771
55 0 -0.769073 1.97674 0 0 0
56 0 -2.56341 3.06229 0 0 0
time 8
0 1.5572 9.20997 -3.60973 0.000934124 0 -1.06437
1 6.02794 0 0 -1.396 0.458181 -0.798297
2 11.7344 0 0 -0.00140285 0 -0.661853
3 8.81138 -0.000449181 -0.000112295 -0.409145 0 0.000157972
4 5.77839 0.000287056 0 -0.274127 0 0.000104187
5 2.23163 -0.000329018 -0.000364304 -0.135018 0 0
6 11.4725 0 0 -0.467972 -0.188251 0.304952
7 0.615219 -0.993091 -0.8107 2.33805 -0.0433468 -0.360756
8 2.24752 0 0 0.0800336 0.130871 -0.022588
9 1.11936 0 0 0.0688115 0.177523 -0.338114
10 3.71348 -0.102641 0.102191 1.81842 1.37508 0.18841
11 1.72615 0 0 0.0136259 -0.0250639 -0.609754
12 1.21114 0 0 0.00236697 0.0174767 -0.462832
13 3.59919 -1.06012 0.070888 1.68096 1.17438 0.0612367
14 1.66069 0 0 -0.00987787 0.0219167 -0.64561
15 1.167 0 0 0.0379319 -0.0317196 -0.610266
16 2.18852 0.50104 0.0576591 1.57003 0.153931 0.225781
17 1.29609 0 0 0.0343668 0.0550095 -1.22788
18 1.62202 0.000711441 -0.000471592 0.00441621 -0.0145794 -0.727069
19 1.22241 0 0 -0.0063166 0.017687 -0.370915
20 1.76707 1.27612 0.0366404 1.57002 0.26187 0.261241
21 1.55588 0 0 -0.0324566 0.00304734 -1.18264
22 1.24273 0 0 -0.000599461 0 -0.65185
23 0.784524 0 0 0.00633936 0.0019118 -0.571831
24 -1.93761 5.60916 -3.60973 -0.000932693 0 3.14159
25 6.02794 0 0 0.957045 0.471476 1.45282
26 11.7344 0 0 0.00140267 0 0.949568
27 8.81167 0 0 -0.0537622 0 0
28 5.77884 0 0 -0.0360206 0 0
29 2.23249 0 0 -0.0177415 0 0
30 11.4725 0 0 0.234328 -0.431323 -0.620521
31 0.615814 0.994372 -0.809165 -2.75592 0.374249 0.315718
32 2.24752 0 0 -0.565214 0.197981 0.0658204
33 1.11936 0 0 -0.0549134 0.0237985 0.34886
34 3.71349 0.10264 0.102191 -1.55366 0.888575 -0.0661106
35 1.72615 0 0 -0.0121439 -0.00651273 1.19024
36 1.21112 0 0 0.0118384 0.0130726 1.33339
37 3.5992 1.06012 0.0708882 -1.53154 0.266229 0.170417
38 1.66069 0 0 0.0307887 0.0659277 0.632516
39 1.16699 0 0 0.0346484 0.0172047 0.590301
40 2.18853 -0.50104 0.0576591 -1.55151 0.172885 -0.118539
41 1.29609 0 0 -0.0200505 -0.0423275 0.631309
42 1.62202 -0.000713348 -0.000470161 -0.0284747 -0.0166479 1.25494
43 1.22241 0 0 -0.00733728 0.00175437 1.23076
44 1.76707 -1.27612 0.0366408 -1.52771 0.265811 -0.101503
45 1.55588 0 0 0.0305806 -0.0879844 0.525515
46 1.24273 0 0 0.000599237 0 0.710283
47 0.784531 0 0 -0.00205816 0.00641637 0.880036
48 0 0 0 0 0 0
49 -4.74779 -18.9449 -5.01154 -0.0707666 0.0205093 -0.00944801
50 0 -1.51208 1.07027 0 0 0
51 0.540026 -0.371632 1.70233 0 0 0
52 0 -4.95107 2.17037 0 0 0
53 0 -2.31355 1.98216 0 0 0
54 -4.75915 -18.2358 -5.89206 -0.0707666 0.0205093 -0.00944801
55 0 -0.769072 1.97674 0 0 0
56 0 -2.56341 3.06229 0 0 0
time 9
0 1.5572 9.20997 -3.60973 0.000934124 0 -1.06437
1 6.02794 0 0 -1.40021 0.445172 -0.798079
2 11.7344 0 0 -0.00140298 0 -0.639429
3 8.81139 -0.000449181 -0.000112057 -0.405871 0 0.0001579
4 5.77839 0.000287056 0 -0.271934 0 0.000104078
5 2.23163 -0.000329018 -0.000364304 -0.133938 0 0
6 11.4725 0 0 -0.465472 -0.169302 0.320752
7 0.615221 -0.993091 -0.8107 2.33805 -0.0433467 -0.360756
8 2.24752 0 0 0.0800335 0.130871 -0.022588
9 1.11936 0 0 0.0688114 0.177523 -0.338114
10 3.71348 -0.102641 0.102191 1.81842 1.37508 0.188409
11 1.72615 0 0 0.0136259 -0.0250639 -0.609754
12 1.21114 0 0 0.00236703 0.0174767 -0.462832
13 3.59919 -1.06012 0.0708882 1.68096 1.17438 0.0612362
14 1.66069 0 0 -0.0098779 0.0219166 -0.64561
15 1.167 0 0 0.0379319 -0.0317196 -0.610266
16 2.18852 0.50104 0.057659 1.57003 0.153931 0.225781
17 1.29609 0 0 0.0343667 0.0550095 -1.22788
18 1.62202 0.000713348 -0.000471115 0.00441621 -0.0145794 -0.727069
19 1.22241 0 0 -0.00631654 0.0176869 -0.370915
20 1.76707 1.27612 0.0366408 1.57002 0.26187 0.261241
21 1.55588 0 0 -0.0324566 0.00304729 -1.18264
22 1.24274 0 0 -0.000599433 0 -0.65185
23 0.784523 0 0 0.00633938 0.00191171 -0.571831
24 -1.93761 5.60916 -3.60973 -0.000932693 0 3.14159
25 6.02794 0 0 0.961958 0.458064 1.46251
26 11.7344 0 0 0.00140283 0 0.925289
27 8.81167 0 0 -0.0504927 0 0
28 5.77884 0 0 -0.03383 0 0
29 2.23249 0 0 -0.0166627 0 0
30 11.4725 0 0 0.246425 -0.424135 -0.644258
31 0.615814 0.994372 -0.809166 -2.75592 0.374248 0.315717
32 2.24752 0 0 -0.565215 0.197981 0.0658202
33 1.11936 0 0 -0.0549133 0.0237985 0.34886
34 3.71349 0.102639 0.102191 -1.55367 0.888575 -0.0661111
35 1.72615 0 0 -0.0121439 -0.00651263 1.19024
36 1.21112 0 0 0.0118384 0.0130726 1.33339
37 3.5992 1.06012 0.0708882 -1.53154 0.266228 0.170417
38 1.66069 0 0 0.0307886 0.0659277 0.632516
39 1.16699 0 0 0.0346484 0.0172046 0.590301
40 2.18853 -0.501041 0.0576589 -1.55151 0.172885 -0.118539
41 1.29609 0 0 -0.0200505 -0.0423274 0.631309
42 1.62202 -0.000714302 -0.000470161 -0.0284747 -0.0166479 1.25494
43 1.22241 0 0 -0.00733722 0.00175433 1.23076
44 1.76707 -1.27612 0.0366403 -1.52771 0.265811 -0.101503
45 1.55588 0 0 0.0305806 -0.0879844 0.525515
46 1.24273 0 0 0.000599216 0 0.710283
47 0.784532 0 0 -0.00205811 0.00641637 0.880036
48 0 0 0 0 0 0
49 -4.74707 -19.0754 -5.05347 -0.0436978 0.013319 -0.0198441
50 0 -1.51208 1.07027 0 0 0
51 0.540026 -0.371635 1.70233 0 0 0
52 0 -4.95107 2.17037 0 0 0
53 0 -2.31355 1.98216 0 0 0
54 -4.744 -18.3428 -5.91459 -0.0436978 0.013319 -0.0198441
55 0 -0.769075 1.97674 0 0 0
56 0 -2.56341 3.06229 0 0 0
time 10
0 1.5572 9.20997 -3.60973 0.000934124 0 -1.06437
1 6.02794 0 0 -1.40374 0.432332 -0.798242
2 11.7344 0 0 -0.00140284 0 -0.614191
3 8.81139 -0.000449181 -0.00011158 -0.39128 0 0.000157805
4 5.77839 0.000287056 0 -0.262157 0 0.000104122
5 2.23163 -0.000329018 -0.000363827 -0.129122 0 0
6 11.4725 0 0 -0.448209 -0.165374 0.312726
7 0.615221 -0.993091 -0.8107 2.33805 -0.0433468 -0.360756
8 2.24752 0 0 0.0800335 0.130871 -0.022588
9 1.11936 0 0 0.0688114 0.177523 -0.338114
10 3.71348 -0.102641 0.102191 1.81842 1.37508 0.18841
11 1.72615 0 0 0.0136259 -0.0250639 -0.609754
12 1.21114 0 0 0.00236698 0.0174767 -0.462832
13 3.59919 -1.06012 0.0708877 1.68096 1.17438 0.0612366
14 1.66069 0 0 -0.00987786 0.0219166 -0.64561
15 1.167 0 0 0.0379319 -0.0317196 -0.610265
16 2.18852 0.501039 0.057659 1.57003 0.153932 0.225781
17 1.29609 0 0 0.0343667 0.0550094 -1.22788
18 1.62202 0.000717163 -0.000470161 0.0044162 -0.0145794 -0.727069
19 1.22241 0 0 -0.0063165 0.017687 -0.370915
20 1.76707 1.27612 0.0366409 1.57002 0.261871 0.261241
21 1.55588 0 0 -0.0324566 0.00304733 -1.18264
22 1.24274 0 0 -0.000599404 0 -0.65185
23 0.784523 0 0 0.00633935 0.00191182 -0.571831
24 -1.93761 5.60916 -3.60973 -0.000932693 0 3.14159
25 6.02794 0 0 0.964597 0.450158 1.46881
26 11.7344 0 0 0.00140278 0 0.903755
27 8.81167 0 0 -0.0302751 0 0
28 5.77884 0 0 -0.0202843 0 0
29 2.23249 0 0 -0.00999073 0 0
30 11.4725 0 0 0.264034 -0.421918 -0.639814
31 0.615813 0.994372 -0.809165 -2.75592 0.374249 0.315718
32 2.24752 0 0 -0.565214 0.197981 0.0658205
33 1.11936 0 0 -0.0549133 0.0237985 0.34886
34 3.71349 0.102639 0.102191 -1.55367 0.888575 -0.0661112
35 1.72615 0 0 -0.012144 -0.00651266 1.19024
36 1.21112 0 0 0.0118385 0.0130726 1.33339
37 3.5992 1.06012 0.070888 -1.53154 0.266229 0.170417
38 1.66069 0 0 0.0307886 0.0659278 0.632516
39 1.16699 0 0 0.0346483 0.0172046 0.590301
40 2.18853 -0.50104 0.0576594 -1.55151 0.172885 -0.118539
41 1.29609 0 0 -0.0200505 -0.0423275 0.631309
42 1.62202 -0.000714302 -0.000469208 -0.0284748 -0.0166479 1.25494
43 1.22241 0 0 -0.0073373 0.00175438 1.23076
44 1.76707 -1.27612 0.0366406 -1.52771 0.265811 -0.101504
45 1.55588 0 0 0.0305806 -0.0879843 0.525515
46 1.24273 0 0 0.00059918 0 0.710283
47 0.784532 0 0 -0.00205812 0.00641639 0.880036
48 0 0 0 0 0 0
49 -4.74573 -19.1843 -5.08598 -0.0411477 -0.0025452 -0.0215373
50 0 -1.51208 1.07027 0 0 0
51 0.540026 -0.371634 1.70233 0 0 0
52 0 -4.95107 2.17037 0 0 0
53 0 -2.31355 1.98216 0 0 0
54 -4.72772 -18.4498 -5.9453 -0.0411477 -0.0025452 -0.0215373
55 0 -0.769075 1.97674 0 0 0
56 0 -2.56341 3.06229 0 0 0
time 11
0 1.5572 9.20997 -3.60973 0.000934124 0 -1.06437
1 6.02794 0 0 -1.40669 0.421698 -0.798234
2 11.7344 0 0 -0.00140286 0 -0.5928
3 8.81139 -0.000450134 -0.000112295 -0.371431 0 0.000157873
4 5.77839 0.000286102 0 -0.248859 0 0.000104208
5 2.23163 -0.000329018 -0.000363827 -0.122572 0 0
6 11.4725 0 0 -0.425532 -0.166676 0.299601
7 0.615219 -0.993091 -0.8107 2.33805 -0.0433468 -0.360756
8 2.24752 0 0 0.0800336 0.130871 -0.0225878
9 1.11936 0 0 0.0688115 0.177523 -0.338114
10 3.71348 -0.102642 0.102191 1.81843 1.37508 0.188412
11 1.72615 0 0 0.0136259 -0.0250639 -0.609754
12 1.21114 0 0 0.002367 0.0174767 -0.462832
13 3.59919 -1.06012 0.0708883 1.68096 1.17438 0.0612367
14 1.66069 0 0 -0.00987789 0.0219166 -0.64561
15 1.167 0 0 0.0379319 -0.0317196 -0.610266
16 2.18852 0.501039 0.0576593 1.57003 0.153931 0.225781
17 1.29609 0 0 0.0343668 0.0550095 -1.22788
18 1.62202 0.000713348 -0.000471115 0.00441625 -0.0145794 -0.727069
19 1.22241 0 0 -0.00631659 0.017687 -0.370915
20 1.76707 1.27612 0.0366408 1.57002 0.26187 0.261241
21 1.55588 0 0 -0.0324566 0.00304732 -1.18264
22 1.24273 0 0 -0.000599404 0 -0.65185
23 0.784523 0 0 0.00633938 0.00191162 -0.571831
24 -1.93761 5.60916 -3.60973 -0.000932693 0 3.14159
25 6.02794 0 0 0.965997 0.445463 1.47309
26 11.7344 0 0 0.00140265 0 0.886935
27 8.81167 0 0 -0.00426069 0 0
28 5.77884 0 0 -0.00285465 0 0
29 2.23249 0 0 -0.00140613 0 0
30 11.4725 0 0 0.28453 -0.421335 -0.628519
31 0.615812 0.994373 -0.809166 -2.75592 0.374249 0.315718
32 2.24752 0 0 -0.565214 0.197981 0.0658204
33 1.11936 0 0 -0.0549134 0.0237986 0.34886
34 3.71349 0.10264 0.102191 -1.55367 0.888575 -0.0661112
35 1.72615 0 0 -0.0121439 -0.00651269 1.19024
36 1.21112 0 0 0.0118385 0.0130726 1.33339
37 3.5992 1.06012 0.0708883 -1.53154 0.266229 0.170417
38 1.66069 0 0 0.0307887 0.0659277 0.632516
39 1.16699 0 0 0.0346484 0.0172045 0.590301
40 2.18853 -0.50104 0.0576593 -1.55151 0.172885 -0.118539
41 1.29609 0 0 -0.0200504 -0.0423274 0.631309
42 1.62202 -0.000712395 -0.000469685 -0.0284747 -0.0166479 1.25494
43 1.22241 0 0 -0.00733728 0.00175435 1.23076
44 1.76707 -1.27612 0.03664 -1.52771 0.265811 -0.101503
45 1.55588 0 0 0.0305806 -0.0879844 0.525515
46 1.24273 0 0 0.000599214 0 0.710283
47 0.784531 0 0 -0.00205811 0.00641636 0.880036
48 0 0 0 0 0 0
49 -4.74233 -19.2655 -5.111 -0.0466959 -0.0222166 -0.0201385
50 0 -1.51208 1.07027 0 0 0
51 0.540026 -0.371634 1.70233 0 0 0
52 0 -4.95108 2.17037 0 0 0
53 0 -2.31355 1.98216 0 0 0
54 -4.70845 -18.5361 -5.97417 -0.0466959 -0.0222166 -0.0201385
55 0 -0.769075 1.97674 0 0 0
56 0 -2.56341 3.06229 0 0 0
time 12
0 1.5572 9.20997 -3.60973 0.000934124 0 -1.06437
1 6.02794 0 0 -1.40841 0.414975 -0.798298
2 11.7344 0 0 -0.00140277 0 -0.577555
3 8.81139 -0.000449181 -0.000112772 -0.362105 0 0.000157956
4 5.77839 0.000286102 0 -0.24261 0 0.000104299
5 2.23164 -0.000329018 -0.000364065 -0.119495 0 0
6 11.4725 0 0 -0.413971 -0.168494 0.288805
7 0.615221 -0.993091 -0.8107 2.33805 -0.0433468 -0.360756
8 2.24752 0 0 0.0800334 0.130871 -0.022588
9 1.11936 0 0 0.0688114 0.177523 -0.338114
10 3.71348 -0.102641 0.102191 1.81842 1.37508 0.188411
11 1.72615 0 0 0.0136259 -0.0250638 -0.609754
12 1.21114 0 0 0.00236704 0.0174767 -0.462832
13 3.59919 -1.06012 0.0708879 1.68096 1.17438 0.0612367
14 1.66069 0 0 -0.00987789 0.0219167 -0.64561
15 1.167 0 0 0.0379319 -0.0317196 -0.610265
16 2.18852 0.501039 0.057659 1.57003 0.153931 0.225781
17 1.29609 0 0 0.0343668 0.0550094 -1.22788
18 1.62202 0.000713348 -0.000471115 0.00441622 -0.0145794 -0.727069
19 1.22241 0 0 -0.00631654 0.017687 -0.370915
20 1.76707 1.27612 0.0366406 1.57002 0.26187 0.261241
21 1.55588 0 0 -0.0324567 0.00304726 -1.18264
22 1.24274 0 0 -0.000599442 0 -0.65185
23 0.784524 0 0 0.00633931 0.00191163 -0.571831
24 -1.93761 5.60916 -3.60973 -0.000932693 0 3.14159
25 6.02794 0 0 0.966725 0.442645 1.47607
26 11.7344 0 0 0.00140269 0 0.875152
27 8.81167 0 0 0.0109313 0 0
28 5.77884 0 0 0.00732406 0 0
29 2.23249 0 0 0.0036073 0 0
30 11.4725 0 0 0.294411 -0.421159 -0.618561
31 0.615814 0.994373 -0.809165 -2.75592 0.374249 0.315718
32 2.24752 0 0 -0.565214 0.197981 0.0658203
33 1.11936 0 0 -0.0549132 0.0237985 0.34886
34 3.71349 0.102639 0.102191 -1.55367 0.888575 -0.0661111
35 1.72615 0 0 -0.0121439 -0.00651262 1.19024
36 1.21112 0 0 0.0118385 0.0130726 1.33339
37 3.5992 1.06012 0.0708885 -1.53154 0.266229 0.170417
38 1.66069 0 0 0.0307887 0.0659277 0.632516
39 1.16699 0 0 0.0346485 0.0172045 0.590301
40 2.18853 -0.50104 0.0576596 -1.55151 0.172885 -0.118539
41 1.29609 0 0 -0.0200504 -0.0423275 0.631309
42 1.62202 -0.000714302 -0.000470161 -0.0284747 -0.0166479 1.25494
43 1.22241 0 0 -0.00733733 0.00175431 1.23076
44 1.76707 -1.27612 0.0366412 -1.52771 0.265811 -0.101503
45 1.55588 0 0 0.0305806 -0.0879843 0.525515
46 1.24273 0 0 0.000599173 0 0.710283
47 0.784532 0 0 -0.00205819 0.00641632 0.880036
48 0 0 0 0 0 0
49 -4.73421 -19.3207 -5.1401 -0.0506902 -0.0318503 -0.018147
50 0 -1.51208 1.07027 0 0 0
51 0.540026 -0.371635 1.70233 0 0 0
52 0 -4.95108 2.17037 0 0 0
53 0 -2.31356 1.98216 0 0 0
54 -4.69344 -18.5949 -6.00596 -0.0506902 -0.0318503 -0.018147
55 0 -0.769073 1.97674 0 0 0
56 0 -2.56341 3.06229 0 0 0
time 13
0 1.5572 9.20997 -3.60973 0.000934124 0 -1.06437
1 6.02794 0 0 -1.4089 0.412347 -0.798487
2 11.7344 0 0 -0.00140286 0 -0.570263
3 8.81138 -0.000449181 -0.000112057 -0.365972 0 0.000157796
4 5.77839 0.000286102 0 -0.245201 0 0.000104145
5 2.23163 -0.000329018 -0.000363827 -0.120771 0 0
6 11.4725 0 0 -0.417898 -0.168824 0.289022
7 0.615219 -0.993091 -0.8107 2.33805 -0.0433469 -0.360756
8 2.24752 0 0 0.0800334 0.130871 -0.0225882
9 1.11936 0 0 0.0688114 0.177523 -0.338114
10 3.71348 -0.102641 0.102191 1.81843 1.37508 0.188412
11 1.72615 0 0 0.0136259 -0.0250639 -0.609754
12 1.21114 0 0 0.00236701 0.0174767 -0.462832
13 3.59919 -1.06012 0.0708883 1.68096 1.17438 0.0612368
14 1.66069 0 0 -0.0098779 0.0219166 -0.64561
15 1.167 0 0 0.0379319 -0.0317196 -0.610265
16 2.18853 0.50104 0.0576591 1.57003 0.153931 0.225781
17 1.29609 0 0 0.0343666 0.0550095 -1.22788
18 1.62202 0.000715256 -0.000470638 0.00441628 -0.0145794 -0.727069
19 1.22241 0 0 -0.00631656 0.017687 -0.370915
20 1.76707 1.27612 0.0366408 1.57002 0.26187 0.261241
21 1.55587 0 0 -0.0324567 0.00304722 -1.18264
22 1.24274 0 0 -0.000599471 0 -0.65185
23 0.784524 0 0 0.0063394 0.00191175 -0.571831
24 -1.93761 5.60916 -3.60973 -0.000932693 0 3.14159
25 6.02794 0 0 0.967527 0.440103 1.47812
26 11.7344 0 0 0.00140268 0 0.868152
27 8.81167 0 0 0.01115 0 0
28 5.77884 0 0 0.00747051 0 0
29 2.23249 0 0 0.00367952 0 0
30 11.4725 0 0 0.291732 -0.41734 -0.617419
31 0.615813 0.994373 -0.809166 -2.75592 0.374248 0.315718
32 2.24752 0 0 -0.565214 0.197981 0.0658204
33 1.11936 0 0 -0.0549134 0.0237985 0.34886
34 3.71349 0.10264 0.102191 -1.55366 0.888575 -0.0661109
35 1.72615 0 0 -0.0121439 -0.00651269 1.19024
36 1.21112 0 0 0.0118385 0.0130726 1.33339
37 3.5992 1.06012 0.0708877 -1.53154 0.266229 0.170417
38 1.66069 0 0 0.0307887 0.0659277 0.632516
39 1.16699 0 0 0.0346484 0.0172046 0.590301
40 2.18853 -0.50104 0.0576587 -1.55151 0.172885 -0.118539
41 1.29609 0 0 -0.0200504 -0.0423274 0.631309
42 1.62202 -0.000713348 -0.000470161 -0.0284748 -0.0166479 1.25494
43 1.22241 0 0 -0.00733726 0.00175437 1.23076
44 1.76707 -1.27612 0.0366402 -1.52771 0.265811 -0.101503
45 1.55588 0 0 0.0305806 -0.0879844 0.525515
46 1.24273 0 0 0.000599207 0 0.710283
47 0.784532 0 0 -0.00205814 0.00641633 0.880036
48 0 0 0 0 0 0
49 -4.72262 -19.3552 -5.17164 -0.0455603 -0.0293535 -0.0164457
50 0 -1.51208 1.07027 0 0 0
51 0.540026 -0.371634 1.70233 0 0 0
52 0 -4.95108 2.17037 0 0 0
53 0 -2.31355 1.98216 0 0 0
54 -4.68529 -18.6248 -6.03383 -0.0455603 -0.0293535 -0.0164457
55 0 -0.769073 1.97674 0 0 0
56 0 -2.56341 3.06229 0 0 0
time 14
0 1.5572 9.20997 -3.60973 0.000934124 0 -1.06437
1 6.02794 0 0 -1.40871 0.41313 -0.798473
2 11.7344 0 0 -0.00140293 0 -0.570735
3 8.81138 -0.000451088 -0.000112057 -0.373618 0 0.000157911
4 5.77839 0.000285149 0 -0.250324 0 0.000104314
5 2.23164 -0.000329018 -0.00036335 -0.123294 0 0
6 11.4725 0 0 -0.428271 -0.168464 0.30051
7 0.615219 -0.993091 -0.8107 2.33805 -0.0433469 -0.360756
8 2.24752 0 0 0.0800335 0.130871 -0.022588
9 1.11936 0 0 0.0688115 0.177523 -0.338114
10 3.71348 -0.102641 0.102191 1.81843 1.37508 0.188412
11 1.72615 0 0 0.0136259 -0.0250639 -0.609754
12 1.21114 0 0 0.00236701 0.0174767 -0.462832
13 3.5992 -1.06012 0.0708882 1.68096 1.17438 0.0612368
14 1.66069 0 0 -0.00987792 0.0219166 -0.64561
15 1.167 0 0 0.0379319 -0.0317196 -0.610265
16 2.18852 0.50104 0.0576589 1.57003 0.153931 0.225781
17 1.29609 0 0 0.0343667 0.0550095 -1.22788
18 1.62202 0.000711441 -0.000470638 0.00441622 -0.0145794 -0.727069
19 1.22241 0 0 -0.00631655 0.017687 -0.370915
20 1.76707 1.27612 0.036641 1.57002 0.26187 0.261241
21 1.55588 0 0 -0.0324566 0.00304734 -1.18264
22 1.24273 0 0 -0.00059947 0 -0.65185
23 0.784524 0 0 0.00633932 0.00191172 -0.571831
24 -1.93761 5.60916 -3.60973 -0.000932693 0 3.14159
25 6.02794 0 0 0.968449 0.437672 1.47939
26 11.7344 0 0 0.00140273 0 0.864743
27 8.81167 0 0 0.00573189 0 0
28 5.77884 0 0 0.00384039 0 0
29 2.23249 0 0 0.00189143 0 0
30 11.4725 0 0 0.285179 -0.409072 -0.624512
31 0.615812 0.994373 -0.809165 -2.75592 0.374249 0.315718
32 2.24752 0 0 -0.565214 0.197981 0.0658206
33 1.11936 0 0 -0.0549133 0.0237985 0.34886
34 3.71348 0.102639 0.102191 -1.55367 0.888575 -0.0661111
35 1.72615 0 0 -0.0121438 -0.0065126 1.19024
36 1.21112 0 0 0.0118384 0.0130727 1.33339
37 3.5992 1.06012 0.0708885 -1.53154 0.266229 0.170417
38 1.66069 0 0 0.0307887 0.0659277 0.632515
39 1.16699 0 0 0.0346484 0.0172045 0.590301
40 2.18853 -0.50104 0.0576587 -1.55151 0.172885 -0.118539
41 1.29609 0 0 -0.0200505 -0.0423274 0.631309
42 1.62201 -0.000713348 -0.000469685 -0.0284748 -0.0166479 1.25494
43 1.22241 0 0 -0.00733726 0.00175437 1.23076
44 1.76707 -1.27612 0.0366405 -1.52771 0.265811 -0.101503
45 1.55588 0 0 0.0305806 -0.0879843 0.525515
46 1.24273 0 0 0.000599234 0 0.710283
47 0.784531 0 0 -0.00205812 0.00641636 0.880036
48 0 0 0 0 0 0
49 -4.70882 -19.3741 -5.20396 -0.0329443 -0.0231792 -0.0143913
50 0 -1.51208 1.07027 0 0 0
51 0.540027 -0.371632 1.70233 0 0 0
52 0 -4.95107 2.17037 0 0 0
53 0 -2.31355 1.98216 0 0 0
54 -4.67837 -18.6327 -6.057 -0.0329443 -0.0231792 -0.0143913
55 0 -0.769075 1.97674 0 0 0
56 0 -2.56341 3.06229 0 0 0
time 15
0 1.5572 9.20997 -3.60973 0.000934124 0 -1.06437
1 6.02794 0 0 -1.40817 0.415811 -0.798319
2 11.7344 0 0 -0.00140294 0 -0.575541
3 8.81138 -0.000450134 -0.000112772 -0.382866 0 0.000158237
4 5.77839 0.000286102 0 -0.256521 0 0.000104291
5 2.23164 -0.000329018 -0.000363827 -0.126346 0 0
6 11.4725 0 0 -0.441594 -0.16754 0.317447
7 0.615219 -0.993091 -0.8107 2.33805 -0.0433469 -0.360757
8 2.24752 0 0 0.0800335 0.130871 -0.0225881
9 1.11936 0 0 0.0688115 0.177523 -0.338114
10 3.71348 -0.102641 0.102191 1.81843 1.37508 0.188412
11 1.72615 0 0 0.0136259 -0.0250639 -0.609754
12 1.21114 0 0 0.00236702 0.0174767 -0.462832
13 3.59919 -1.06012 0.0708878 1.68096 1.17438 0.0612367
14 1.66069 0 0 -0.00987789 0.0219167 -0.64561
15 1.167 0 0 0.0379319 -0.0317196 -0.610266
16 2.18853 0.50104 0.0576588 1.57003 0.153931 0.225781
17 1.29609 0 0 0.0343667 0.0550095 -1.22788
18 1.62202 0.000713348 -0.000471592 0.00441623 -0.0145795 -0.727069
19 1.22241 0 0 -0.00631659 0.0176871 -0.370915
20 1.76707 1.27612 0.0366408 1.57002 0.26187 0.261241
21 1.55588 0 0 -0.0324567 0.00304725 -1.18264
22 1.24273 0 0 -0.000599348 0 -0.65185
23 0.784524 0 0 0.00633937 0.00191174 -0.571831
24 -1.93761 5.60916 -3.60973 -0.000932693 0 3.14159
25 6.02794 0 0 0.969435 0.435229 1.48039
26 11.7344 0 0 0.00140266 0 0.862898
27 8.81167 0 0 -0.00213862 0 0
28 5.77884 0 0 -0.0014329 0 0
29 2.23249 0 0 -0.000705689 0 0
30 11.4725 0 0 0.276774 -0.399036 -0.635397
31 0.615812 0.994372 -0.809166 -2.75592 0.374249 0.315718
32 2.24752 0 0 -0.565214 0.197981 0.0658204
33 1.11936 0 0 -0.0549131 0.0237984 0.34886
34 3.71349 0.10264 0.102191 -1.55367 0.888575 -0.0661109
35 1.72615 0 0 -0.0121439 -0.00651261 1.19024
36 1.21112 0 0 0.0118385 0.0130726 1.33339
37 3.5992 1.06012 0.0708884 -1.53154 0.266228 0.170417
38 1.66069 0 0 0.0307886 0.0659277 0.632516
39 1.16699 0 0 0.0346484 0.0172046 0.590301
40 2.18853 -0.50104 0.0576591 -1.55151 0.172885 -0.118539
41 1.29609 0 0 -0.0200504 -0.0423275 0.631309
42 1.62202 -0.000713348 -0.000469685 -0.0284747 -0.0166479 1.25494
43 1.22241 0 0 -0.00733726 0.00175433 1.23076
44 1.76707 -1.27612 0.0366404 -1.52771 0.265811 -0.101503
45 1.55588 0 0 0.0305806 -0.0879844 0.525515
46 1.24273 0 0 0.000599229 0 0.710283
47 0.784531 0 0 -0.00205811 0.00641636 0.880036
48 0 0 0 0 0 0
49 -4.69404 -19.3827 -5.2354 -0.0170028 -0.0153012 -0.0121933
50 0 -1.51208 1.07027 0 0 0
51 0.540026 -0.371634 1.70233 0 0 0
52 0 -4.95107 2.17037 0 0 0
53 0 -2.31355 1.98216 0 0 0
54 -4.67196 -18.6277 -6.07664 -0.0170028 -0.0153012 -0.0121933
55 0 -0.769072 1.97674 0 0 0
56 0 -2.56341 3.06229 0 0 0
time 16
0 1.5572 9.20997 -3.60973 0.000934124 0 -1.06437
1 6.02794 0 0 -1.40759 0.418917 -0.798094
2 11.7344 0 0 -0.00140303 0 -0.581304
3 8.81139 -0.000449181 -0.000112295 -0.391586 0 0.00015774
4 5.77839 0.000287056 0 -0.262362 0 0.000103944
5 2.23163 -0.000329018 -0.000364304 -0.129223 0 0
6 11.4725 0 0 -0.454391 -0.166433 0.334062
7 0.615219 -0.993091 -0.8107 2.33805 -0.0433468 -0.360756
8 2.24752 0 0 0.0800335 0.130871 -0.022588
9 1.11936 0 0 0.0688115 0.177523 -0.338114
10 3.71348 -0.102641 0.102191 1.81843 1.37508 0.188412
11 1.72615 0 0 0.0136259 -0.0250639 -0.609754
12 1.21113 0 0 0.00236699 0.0174767 -0.462832
13 3.59919 -1.06012 0.0708883 1.68096 1.17438 0.0612367
14 1.66069 0 0 -0.00987789 0.0219166 -0.64561
15 1.167 0 0 0.0379318 -0.0317195 -0.610265
16 2.18853 0.50104 0.0576589 1.57003 0.153931 0.225781
17 1.29609 0 0 0.0343667 0.0550094 -1.22788
18 1.62202 0.000713348 -0.000470638 0.00441626 -0.0145795 -0.727069
19 1.22241 0 0 -0.00631657 0.017687 -0.370915
20 1.76707 1.27612 0.0366409 1.57002 0.26187 0.261241
21 1.55588 0 0 -0.0324566 0.0030473 -1.18264
22 1.24274 0 0 -0.00059948 0 -0.65185
23 0.784523 0 0 0.00633935 0.0019117 -0.571831
24 -1.93761 5.60916 -3.60973 -0.000932693 0 3.14159
25 6.02794 0 0 0.970212 0.433345 1.48107
26 11.7344 0 0 0.00140267 0 0.862294
27 8.81167 0 0 -0.00988508 0 0
28 5.77884 0 0 -0.00662298 0 0
29 2.23249 0 0 -0.00326213 0 0
30 11.4725 0 0 0.268596 -0.389754 -0.646402
31 0.615814 0.994373 -0.809165 -2.75592 0.374249 0.315718
32 2.24752 0 0 -0.565214 0.197981 0.0658203
33 1.11936 0 0 -0.0549132 0.0237985 0.34886
34 3.71348 0.102639 0.102191 -1.55367 0.888575 -0.066111
35 1.72615 0 0 -0.0121439 -0.00651267 1.19024
36 1.21112 0 0 0.0118386 0.0130726 1.33339
37 3.5992 1.06012 0.070888 -1.53154 0.266229 0.170417
38 1.66069 0 0 0.0307887 0.0659277 0.632516
39 1.16699 0 0 0.0346484 0.0172046 0.590301
40 2.18853 -0.50104 0.0576588 -1.55151 0.172885 -0.118539
41 1.29609 0 0 -0.0200504 -0.0423274 0.631309
42 1.62202 -0.000712395 -0.000469446 -0.0284748 -0.0166479 1.25494
43 1.22241 0 0 -0.00733728 0.00175435 1.23076
44 1.76707 -1.27612 0.0366409 -1.52771 0.265811 -0.101503
45 1.55588 0 0 0.0305806 -0.0879844 0.525515
46 1.24273 0 0 0.000599217 0 0.710283
47 0.784532 0 0 -0.00205816 0.00641634 0.880036
48 0 0 0 0 0 0
49 -4.67955 -19.3862 -5.26432 -0.00189634 -0.00769372 -0.0100615
50 0 -1.51208 1.07027 0 0 0
51 0.540026 -0.371635 1.70233 0 0 0
52 0 -4.95108 2.17037 0 0 0
53 0 -2.31355 1.98216 0 0 0
54 -4.66544 -18.6185 -6.09413 -0.00189634 -0.00769372 -0.0100615
55 0 -0.769075 1.97674 0 0 0
56 0 -2.56341 3.06229 0 0 0
time 17
0 1.5572 9.20997 -3.60973 0.000934124 0 -1.06437
1 6.02794 0 0 -1.40723 0.421102 -0.797877
2 11.7344 0 0 -0.00140286 0 -0.584859
3 8.81139 -0.000449181 -0.00011158 -0.397717 0 0.000158009
4 5.77839 0.000287056 0 -0.26647 0 0.000104173
5 2.23164 -0.000328064 -0.000363827 -0.131246 0 0
6 11.4725 0 0 -0.46323 -0.165854 0.344748
7 0.615221 -0.993091 -0.8107 2.33805 -0.0433468 -0.360756
8 2.24752 0 0 0.0800337 0.130871 -0.022588
9 1.11936 0 0 0.0688115 0.177523 -0.338114
10 3.71348 -0.102641 0.102191 1.81842 1.37508 0.188412
11 1.72615 0 0 0.0136259 -0.0250638 -0.609754
12 1.21114 0 0 0.00236704 0.0174766 -0.462832
13 3.59919 -1.06012 0.0708882 1.68096 1.17438 0.0612369
14 1.66069 0 0 -0.00987787 0.0219166 -0.64561
15 1.167 0 0 0.0379319 -0.0317196 -0.610266
16 2.18853 0.50104 0.0576589 1.57003 0.153931 0.225781
17 1.29609 0 0 0.0343667 0.0550094 -1.22788
18 1.62202 0.000713348 -0.000471115 0.00441625 -0.0145794 -0.727069
19 1.22241 0 0 -0.0063166 0.017687 -0.370915
20 1.76707 1.27612 0.0366406 1.57002 0.26187 0.261241
21 1.55588 0 0 -0.0324565 0.00304732 -1.18264
22 1.24273 0 0 -0.00059947 0 -0.65185
23 0.784523 0 0 0.00633935 0.00191173 -0.571831
24 -1.93761 5.60916 -3.60973 -0.000932693 0 3.14159
25 6.02794 0 0 0.970679 0.432087 1.48173
26 11.7344 0 0 0.00140259 0 0.861346
27 8.81167 0 0 -0.0148076 0 0
28 5.77884 0 0 -0.00992106 0 0
29 2.23249 0 0 -0.00488648 0 0
30 11.4725 0 0 0.262787 -0.383526 -0.653093
31 0.615814 0.994372 -0.809165 -2.75592 0.374249 0.315718
32 2.24752 0 0 -0.565214 0.197981 0.0658203
33 1.11936 0 0 -0.0549133 0.0237986 0.34886
34 3.71349 0.10264 0.10219 -1.55367 0.888575 -0.066111
35 1.72615 0 0 -0.0121438 -0.0065126 1.19024
36 1.21112 0 0 0.0118385 0.0130726 1.33339
37 3.5992 1.06012 0.0708883 -1.53154 0.266229 0.170417
38 1.66069 0 0 0.0307887 0.0659277 0.632516
39 1.16699 0 0 0.0346484 0.0172046 0.590301
40 2.18853 -0.50104 0.0576589 -1.55151 0.172885 -0.118539
41 1.29609 0 0 -0.0200504 -0.0423275 0.631309
42 1.62202 -0.000713348 -0.000469208 -0.0284748 -0.016648 1.25494
43 1.22241 0 0 -0.00733731 0.00175438 1.23076
44 1.76707 -1.27612 0.0366408 -1.52771 0.265812 -0.101503
45 1.55588 0 0 0.0305806 -0.0879844 0.525515
46 1.24273 0 0 0.000599212 0 0.710283
47 0.784531 0 0 -0.00205818 0.00641636 0.880036
48 0 0 0 0 0 0
49 -4.66659 -19.3898 -5.28906 0.00821452 -0.00233078 -0.00820541
50 0 -1.51208 1.07027 0 0 0
51 0.540026 -0.371634 1.70233 0 0 0
52 0 -4.95108 2.17037 0 0 0
53 0 -2.31356 1.98216 0 0 0
54 -4.6583 -18.6137 -6.11108 0.00821452 -0.00233078 -0.00820541
55 0 -0.769073 1.97674 0 0 0
56 0 -2.56341 3.06229 0 0 0
time 18
0 1.5572 9.20997 -3.60973 0.000934124 0 -1.06437
1 6.02794 0 0 -1.40722 0.421469 -0.797794
2 11.7344 0 0 -0.00140287 0 -0.584374
3 8.81138 -0.000451088 -0.000112295 -0.401029 0 0.000158149
4 5.77839 0.000286102 0 -0.26869 0 0.000104236
5 2.23163 -0.000329971 -0.000363588 -0.13234 0 0
6 11.4725 0 0 -0.467378 -0.166235 0.347621
7 0.615219 -0.993091 -0.8107 2.33805 -0.0433467 -0.360756
8 2.24752 0 0 0.0800336 0.130871 -0.0225879
9 1.11936 0 0 0.0688113 0.177523 -0.338114
10 3.71348 -0.102641 0.102191 1.81842 1.37508 0.188411
11 1.72615 0 0 0.0136259 -0.0250638 -0.609754
12 1.21114 0 0 0.002367 0.0174767 -0.462832
13 3.59919 -1.06012 0.0708879 1.68096 1.17438 0.0612364
14 1.66069 0 0 -0.00987786 0.0219166 -0.64561
15 1.167 0 0 0.0379319 -0.0317196 -0.610266
16 2.18852 0.50104 0.0576589 1.57003 0.153931 0.225781
17 1.29609 0 0 0.0343668 0.0550096 -1.22788
18 1.62202 0.000713348 -0.000470161 0.00441631 -0.0145793 -0.727069
19 1.22241 0 0 -0.00631654 0.017687 -0.370915
20 1.76707 1.27612 0.0366411 1.57002 0.26187 0.261241
21 1.55588 0 0 -0.0324567 0.00304726 -1.18264
22 1.24274 0 0 -0.00059948 0 -0.65185
23 0.784523 0 0 0.00633939 0.0019118 -0.571831
24 -1.93761 5.60916 -3.60973 -0.000932693 0 3.14159
25 6.02794 0 0 0.970923 0.431225 1.48249
26 11.7344 0 0 0.00140276 0 0.859179
27 8.81167 0 0 -0.0162892 0 0
28 5.77884 0 0 -0.0109137 0 0
29 2.23249 0 0 -0.00537539 0 0
30 11.4725 0 0 0.259714 -0.380682 -0.653926
31 0.615812 0.994372 -0.809165 -2.75592 0.374249 0.315718
32 2.24752 0 0 -0.565214 0.197981 0.0658206
33 1.11936 0 0 -0.0549133 0.0237985 0.34886
34 3.71348 0.102639 0.10219 -1.55367 0.888575 -0.066111
35 1.72615 0 0 -0.0121439 -0.0065126 1.19024
36 1.21112 0 0 0.0118385 0.0130726 1.33339
37 3.5992 1.06012 0.0708879 -1.53154 0.266229 0.170417
38 1.66069 0 0 0.0307886 0.0659277 0.632516
39 1.16699 0 0 0.0346485 0.0172046 0.590301
40 2.18853 -0.50104 0.0576594 -1.55151 0.172885 -0.118539
41 1.29609 0 0 -0.0200504 -0.0423275 0.631309
42 1.62201 -0.000712395 -0.000469923 -0.0284749 -0.016648 1.25494
43 1.22241 0 0 -0.00733723 0.00175434 1.23076
44 1.76707 -1.27612 0.0366408 -1.52771 0.265811 -0.101503
45 1.55588 0 0 0.0305806 -0.0879843 0.525515
46 1.24273 0 0 0.000599243 0 0.710283
47 0.784532 0 0 -0.00205811 0.00641636 0.880036
48 0 0 0 0 0 0
49 -4.6564 -19.3988 -5.30797 0.0122464 0.00041169 -0.00660616
50 0 -1.51208 1.07027 0 0 0
51 0.540026 -0.371632 1.70233 0 0 0
52 0 -4.95107 2.17037 0 0 0
53 0 -2.31355 1.98216 0 0 0
54 -4.65159 -18.6193 -6.12686 0.0122464 0.00041169 -0.00660616
55 0 -0.769075 1.97674 0 0 0
56 0 -2.56341 3.06229 0 0 0
time 19
0 1.5572 9.20997 -3.60973 0.000934124 0 -1.06437
1 6.02794 0 0 -1.40735 0.420918 -0.797811
2 11.7344 0 0 -0.00140284 0 -0.582059
3 8.81138 -0.000450134 -0.000112057 -0.40273 0 0.000157986
4 5.77839 0.000286102 0 -0.269829 0 0.000104114
5 2.23163 -0.000329971 -0.000364065 -0.132901 0 0
6 11.4725 0 0 -0.468911 -0.167334 0.346217
7 0.615217 -0.993091 -0.8107 2.33805 -0.0433468 -0.360756
8 2.24752 0 0 0.0800335 0.130871 -0.0225879
9 1.11936 0 0 0.0688115 0.177523 -0.338114
10 3.71348 -0.102641 0.102191 1.81842 1.37508 0.188411
11 1.72615 0 0 0.0136259 -0.0250638 -0.609754
12 1.21114 0 0 0.00236706 0.0174767 -0.462832
13 3.59919 -1.06012 0.0708882 1.68096 1.17438 0.0612361
14 1.66069 0 0 -0.00987789 0.0219166 -0.64561
15 1.167 0 0 0.0379319 -0.0317196 -0.610265
16 2.18852 0.50104 0.0576591 1.57003 0.153931 0.225781
17 1.29609 0 0 0.0343668 0.0550094 -1.22788
18 1.62202 0.000713348 -0.000471115 0.00441622 -0.0145794 -0.727069
19 1.22241 0 0 -0.00631664 0.017687 -0.370915
20 1.76707 1.27612 0.0366409 1.57002 0.26187 0.261241
21 1.55587 0 0 -0.0324566 0.00304726 -1.18264
22 1.24273 0 0 -0.000599433 0 -0.65185
23 0.784524 0 0 0.00633929 0.00191171 -0.571831
24 -1.93761 5.60916 -3.60973 -0.000932693 0 3.14159
25 6.02794 0 0 0.971036 0.430679 1.48315
26 11.7344 0 0 0.00140263 0 0.856795
27 8.81167 0 0 -0.0160125 0 0
28 5.77884 0 0 -0.0107284 0 0
29 2.23249 0 0 -0.00528411 0 0
30 11.4725 0 0 0.258081 -0.379741 -0.651492
31 0.615812 0.994372 -0.809165 -2.75592 0.374249 0.315718
32 2.24752 0 0 -0.565214 0.197981 0.0658204
33 1.11936 0 0 -0.0549133 0.0237986 0.34886
34 3.71349 0.102639 0.102191 -1.55367 0.888575 -0.0661111
35 1.72615 0 0 -0.0121438 -0.00651264 1.19024
36 1.21112 0 0 0.0118385 0.0130727 1.33339
37 3.5992 1.06012 0.0708883 -1.53154 0.266229 0.170417
38 1.66069 0 0 0.0307887 0.0659277 0.632516
39 1.16699 0 0 0.0346484 0.0172046 0.590301
40 2.18853 -0.50104 0.0576587 -1.55151 0.172885 -0.118539
41 1.29609 0 0 -0.0200505 -0.0423275 0.631309
42 1.62202 -0.000713348 -0.000470161 -0.0284748 -0.0166479 1.25494
43 1.22241 0 0 -0.00733733 0.00175438 1.23076
44 1.76707 -1.27612 0.0366404 -1.52771 0.265811 -0.101503
45 1.55587 0 0 0.0305806 -0.0879844 0.525515
46 1.24273 0 0 0.00059923 0 0.710283
47 0.784531 0 0 -0.00205814 0.00641633 0.880036
48 0 0 0 0 0 0
49 -4.64868 -19.4091 -5.32023 0.0126119 0.00172438 -0.0051176
50 0 -1.51208 1.07027 0 0 0
51 0.540027 -0.371634 1.70233 0 0 0
52 0 -4.95108 2.17037 0 0 0
53 0 -2.31356 1.98216 0 0 0
54 -4.6461 -18.6293 -6.13883 0.0126119 0.00172438 -0.0051176
55 0 -0.769075 1.97674 0 0 0
56 0 -0.826365 2.70072 0 0 0
time 20
0 1.5572 9.20997 -3.60973 0.000934124 0 -1.06437
1 6.02794 0 0 -1.40746 0.420659 -0.797778
2 11.7344 0 0 -0.00140288 0 -0.58041
3 8.81138 -0.000449181 -0.000112057 -0.403009 0 0.000157771
4 5.77839 0.000287056 0 -0.270016 0 0.000104026
5 2.23164 -0.000328064 -0.000363827 -0.132993 0 0
6 11.4725 0 0 -0.468606 -0.168973 0.342823
7 0.615221 -0.993091 -0.8107 2.33805 -0.0433469 -0.360756
8 2.24752 0 0 0.0800335 0.130871 -0.022588
9 1.11935 0 0 0.0688114 0.177523 -0.338114
10 3.71348 -0.102641 0.102191 1.81842 1.37508 0.188411
11 1.72615 0 0 0.0136259 -0.0250638 -0.609754
12 1.21114 0 0 0.00236708 0.0174766 -0.462832
13 3.59919 -1.06012 0.0708882 1.68096 1.17438 0.0612368
14 1.66069 0 0 -0.00987786 0.0219166 -0.64561
15 1.167 0 0 0.0379319 -0.0317196 -0.610265
16 2.18852 0.50104 0.0576591 1.57003 0.153931 0.225781
17 1.29609 0 0 0.0343666 0.0550095 -1.22788
18 1.62202 0.000715256 -0.000471115 0.00441627 -0.0145793 -0.727069
19 1.22241 0 0 -0.00631657 0.017687 -0.370915
20 1.76707 1.27612 0.0366411 1.57002 0.26187 0.261241
21 1.55588 0 0 -0.0324566 0.00304731 -1.18264
22 1.24274 0 0 -0.00059947 0 -0.65185
23 0.784523 0 0 0.00633924 0.00191167 -0.571831
24 -1.93761 5.60916 -3.60973 -0.000932693 0 3.14159
25 6.02794 0 0 0.970878 0.430881 1.4834
26 11.7344 0 0 0.00140283 0 0.85562
27 8.81167 0 0 -0.0148544 0 0
28 5.77884 0 0 -0.00995238 0 0
29 2.23249 0 0 -0.00490186 0 0
30 11.4725 0 0 0.257557 -0.380211 -0.64756
31 0.615814 0.994373 -0.809166 -2.75592 0.374248 0.315718
32 2.24752 0 0 -0.565214 0.197981 0.0658204
33 1.11936 0 0 -0.0549133 0.0237986 0.34886
34 3.71349 0.102639 0.102191 -1.55367 0.888575 -0.0661112
35 1.72615 0 0 -0.0121439 -0.00651267 1.19024
36 1.21112 0 0 0.0118385 0.0130726 1.33339
37 3.5992 1.06012 0.070888 -1.53154 0.266229 0.170417
38 1.66069 0 0 0.0307888 0.0659277 0.632515
39 1.16699 0 0 0.0346484 0.0172046 0.590301
40 2.18853 -0.50104 0.0576588 -1.55151 0.172885 -0.118539
41 1.29609 0 0 -0.0200505 -0.0423275 0.631309
42 1.62202 -0.000713348 -0.000470161 -0.0284747 -0.0166479 1.25494
43 1.22241 0 0 -0.00733725 0.00175437 1.23076
44 1.76707 -1.27612 0.0366404 -1.52771 0.265811 -0.101503
45 1.55588 0 0 0.0305806 -0.0879844 0.525515
46 1.24273 0 0 0.000599225 0 0.710283
47 0.784531 0 0 -0.00205812 0.00641637 0.880036
48 0 0 0 0 0 0
49 -4.64218 -19.4135 -5.32672 0.0103943 0.00198325 -0.00375873
50 0 -1.51208 1.07027 0 0 0
51 0.540026 -0.371634 1.70233 0 0 0
52 0 -4.95107 2.17037 0 0 0
53 0 -2.31355 1.98216 0 0 0
54 -4.64088 -18.6355 -6.14706 0.0103943 0.00198325 -0.00375873
55 0 -0.769075 1.97674 0 0 0
56 0 -0.826366 2.70072 0 0 0
time 21
0 1.5572 9.20997 -3.60973 0.000934124 0 -1.06437
1 6.02794 0 0 -1.40752 0.420738 -0.797698
2 11.7344 0 0 -0.001403 0 -0.579628
3 8.81138 -0.000450134 -0.000112772 -0.402316 0 0.000157989
4 5.77839 0.000286102 0 -0.269552 0 0.000104259
5 2.23164 -0.000329018 -0.000364065 -0.132764 0 0
6 11.4725 0 0 -0.467161 -0.170871 0.338585
7 0.615219 -0.993092 -0.8107 2.33805 -0.0433468 -0.360756
8 2.24752 0 0 0.0800335 0.130871 -0.022588
9 1.11936 0 0 0.0688113 0.177523 -0.338114
10 3.71348 -0.102641 0.102191 1.81842 1.37508 0.188411
11 1.72615 0 0 0.0136259 -0.0250639 -0.609754
12 1.21114 0 0 0.00236702 0.0174767 -0.462832
13 3.59919 -1.06012 0.0708882 1.68096 1.17438 0.0612362
14 1.66069 0 0 -0.00987789 0.0219166 -0.64561
15 1.167 0 0 0.0379319 -0.0317197 -0.610266
16 2.18853 0.50104 0.0576591 1.57003 0.153931 0.225781
17 1.29609 0 0 0.0343667 0.0550095 -1.22788
18 1.62202 0.000715256 -0.000470638 0.00441625 -0.0145794 -0.727069
19 1.22241 0 0 -0.00631652 0.017687 -0.370915
20 1.76707 1.27612 0.0366411 1.57002 0.26187 0.261241
21 1.55588 0 0 -0.0324566 0.0030473 -1.18264
22 1.24274 0 0 -0.000599451 0 -0.65185
23 0.784524 0 0 0.00633939 0.00191178 -0.571831
24 -1.93761 5.60916 -3.60973 -0.000932693 0 3.14159
25 6.02794 0 0 0.970542 0.431599 1.48332
26 11.7344 0 0 0.00140277 0 0.855499
27 8.81167 0 0 -0.0132627 0 0
28 5.77884 0 0 -0.0088861 0 0
29 2.23249 0 0 -0.00437668 0 0
30 11.4725 0 0 0.257751 -0.381527 -0.643051
31 0.615812 0.994372 -0.809165 -2.75592 0.374249 0.315718
32 2.24752 0 0 -0.565214 0.197981 0.0658203
33 1.11936 0 0 -0.0549133 0.0237985 0.34886
34 3.71349 0.102639 0.102191 -1.55367 0.888575 -0.0661111
35 1.72615 0 0 -0.0121438 -0.00651255 1.19024
36 1.21112 0 0 0.0118385 0.0130726 1.33339
37 3.5992 1.06012 0.0708884 -1.53154 0.266229 0.170417
38 1.66069 0 0 0.0307887 0.0659277 0.632516
39 1.16699 0 0 0.0346484 0.0172046 0.590301
40 2.18853 -0.50104 0.0576591 -1.55151 0.172885 -0.118539
41 1.29609 0 0 -0.0200504 -0.0423274 0.631309
42 1.62202 -0.000714302 -0.000469923 -0.0284748 -0.0166479 1.25494
43 1.22241 0 0 -0.00733728 0.00175437 1.23076
44 1.76707 -1.27612 0.0366409 -1.52771 0.265811 -0.101503
45 1.55588 0 0 0.0305806 -0.0879844 0.525515
46 1.24273 0 0 0.000599231 0 0.710283
47 0.784531 0 0 -0.00205816 0.00641632 0.880036
48 0 0 0 0 0 0
49 -4.63671 -19.413 -5.32835 0.00667717 0.00156427 -0.00254854
50 0 -1.51208 1.07027 0 0 0
51 0.540026 -0.371635 1.70233 0 0 0
52 0 -4.95107 2.17037 0 0 0
53 0 -2.31355 1.98216 0 0 0
54 -4.63602 -18.6381 -6.15157 0.00667717 0.00156427 -0.00254854
55 0 -0.769073 1.97674 0 0 0
56 0 -0.826365 2.70072 0 0 0
time 22
0 1.5572 9.20997 -3.60973 0.000934124 0 -1.06437
1 6.02794 0 0 -1.40754 0.421195 -0.79757
2 11.7344 0 0 -0.00140282 0 -0.579902
3 8.81139 -0.000451088 -0.000112295 -0.401108 0 0.000157963
4 5.77839 0.000286102 0 -0.268742 0 0.000103939
5 2.23163 -0.000330925 -0.000364065 -0.132366 0 0
6 11.4725 0 0 -0.465281 -0.172747 0.33464
7 0.615221 -0.993091 -0.8107 2.33805 -0.0433469 -0.360756
8 2.24752 0 0 0.0800334 0.130871 -0.0225881
9 1.11936 0 0 0.0688114 0.177523 -0.338114
10 3.71348 -0.102641 0.102191 1.81842 1.37508 0.188411
11 1.72615 0 0 0.0136259 -0.0250639 -0.609754
12 1.21114 0 0 0.00236704 0.0174766 -0.462832
13 3.59919 -1.06012 0.070888 1.68096 1.17438 0.0612361
14 1.66069 0 0 -0.00987789 0.0219166 -0.64561
15 1.167 0 0 0.0379318 -0.0317196 -0.610266
16 2.18852 0.50104 0.057659 1.57003 0.153931 0.225781
17 1.29609 0 0 0.0343667 0.0550095 -1.22788
18 1.62202 0.000715256 -0.000470638 0.00441627 -0.0145793 -0.727069
19 1.22241 0 0 -0.00631648 0.017687 -0.370915
20 1.76707 1.27612 0.0366408 1.57002 0.26187 0.261241
21 1.55588 0 0 -0.0324566 0.00304728 -1.18264
22 1.24273 0 0 -0.000599499 0 -0.65185
23 0.784524 0 0 0.00633936 0.00191167 -0.571831
24 -1.93761 5.60916 -3.60973 -0.000932693 0 3.14159
25 6.02794 0 0 0.970124 0.432599 1.483
26 11.7344 0 0 0.00140272 0 0.856273
27 8.81167 0 0 -0.0116945 0 0
28 5.77884 0 0 -0.00783535 0 0
29 2.23249 0 0 -0.00385919 0 0
30 11.4725 0 0 0.258272 -0.383123 -0.638888
31 0.615812 0.994372 -0.809166 -2.75592 0.374248 0.315718
32 2.24752 0 0 -0.565214 0.197981 0.0658204
33 1.11936 0 0 -0.0549133 0.0237986 0.34886
34 3.71349 0.102639 0.102191 -1.55367 0.888575 -0.0661109
35 1.72615 0 0 -0.0121439 -0.00651265 1.19024
36 1.21112 0 0 0.0118385 0.0130727 1.33339
37 3.5992 1.06012 0.0708879 -1.53154 0.266229 0.170417
38 1.66069 0 0 0.0307887 0.0659278 0.632516
39 1.16699 0 0 0.0346484 0.0172046 0.590301
40 2.18853 -0.50104 0.0576594 -1.55151 0.172885 -0.118539
41 1.29609 0 0 -0.0200505 -0.0423274 0.631309
42 1.62202 -0.000713348 -0.000469446 -0.0284748 -0.0166479 1.25494
43 1.22241 0 0 -0.00733729 0.00175439 1.23076
44 1.76707 -1.27612 0.0366408 -1.52771 0.265811 -0.101503
45 1.55588 0 0 0.0305806 -0.0879843 0.525515
46 1.24273 0 0 0.000599174 0 0.710283
47 0.784532 0 0 -0.00205815 0.00641631 0.880036
48 0 0 0 0 0 0
49 -4.63211 -19.4083 -5.32601 0.00254387 0.000843428 -0.00150602
50 0 -1.51208 1.07027 0 0 0
51 0.540026 -0.371634 1.70233 0 0 0
52 0 -4.95107 2.17037 0 0 0
53 0 -2.31355 1.98216 0 0 0
54 -4.63165 -18.6368 -6.15243 0.00254387 0.000843428 -0.00150602
55 0 -0.769077 1.97674 0 0 0
56 0 -0.826365 2.70072 0 0 0
time 23
0 1.5572 9.20997 -3.60973 0.000934124 0 -1.06437
1 6.02794 0 0 -1.40749 0.422078 -0.797398
2 11.7344 0 0 -0.00140293 0 -0.581434
3 8.81138 -0.000450134 -0.000112057 -0.399847 0 0.000158042
4 5.77839 0.000286102 0 -0.267897 0 0.000104067
5 2.23164 -0.000329018 -0.000363588 -0.131949 0 0
6 11.4725 0 0 -0.463684 -0.174331 0.332139
7 0.615219 -0.993091 -0.8107 2.33805 -0.0433468 -0.360756
8 2.24752 0 0 0.0800335 0.130871 -0.0225879
9 1.11936 0 0 0.0688114 0.177523 -0.338114
10 3.71348 -0.102641 0.102191 1.81842 1.37508 0.188411
11 1.72615 0 0 0.0136259 -0.0250638 -0.609754
12 1.21114 0 0 0.00236705 0.0174766 -0.462832
13 3.59919 -1.06012 0.070888 1.68096 1.17438 0.0612365
14 1.66069 0 0 -0.00987788 0.0219166 -0.64561
15 1.167 0 0 0.0379319 -0.0317196 -0.610265
16 2.18852 0.50104 0.0576588 1.57003 0.153931 0.225781
17 1.29609 0 0 0.0343667 0.0550096 -1.22788
18 1.62202 0.000713348 -0.000471115 0.00441624 -0.0145794 -0.727069
19 1.22241 0 0 -0.00631657 0.017687 -0.370915
20 1.76707 1.27612 0.0366408 1.57002 0.26187 0.261241
21 1.55588 0 0 -0.0324566 0.00304729 -1.18264
22 1.24274 0 0 -0.000599583 0 -0.65185
23 0.784522 0 0 0.00633932 0.00191182 -0.571831
24 -1.93761 5.60916 -3.60973 -0.000932693 0 3.14159
25 6.02794 0 0 0.969715 0.433654 1.48251
26 11.7344 0 0 0.00140267 0 0.857798
27 8.81167 0 0 -0.0106252 0 0
28 5.77884 0 0 -0.00711884 0 0
29 2.23249 0 0 -0.00350636 0 0
30 11.4725 0 0 0.258731 -0.38443 -0.635999
31 0.615814 0.994372 -0.809165 -2.75592 0.374248 0.315718
32 2.24752 0 0 -0.565214 0.197981 0.0658203
33 1.11935 0 0 -0.0549134 0.0237985 0.34886
34 3.71349 0.102639 0.102191 -1.55367 0.888575 -0.0661111
35 1.72615 0 0 -0.0121439 -0.00651268 1.19024
36 1.21112 0 0 0.0118385 0.0130726 1.33339
37 3.5992 1.06012 0.0708876 -1.53154 0.266229 0.170417
38 1.66069 0 0 0.0307888 0.0659277 0.632516
39 1.16699 0 0 0.0346484 0.0172045 0.590301
40 2.18854 -0.50104 0.0576589 -1.55151 0.172885 -0.118539
41 1.29609 0 0 -0.0200504 -0.0423274 0.631309
42 1.62202 -0.000713348 -0.000469685 -0.0284748 -0.0166479 1.25494
43 1.22241 0 0 -0.00733728 0.00175435 1.23076
44 1.76707 -1.27612 0.0366404 -1.52771 0.265811 -0.101503
45 1.55588 0 0 0.0305806 -0.0879844 0.525515
46 1.24273 0 0 0.00059919 0 0.710283
47 0.784531 0 0 -0.00205812 0.00641633 0.880036
48 0 0 0 0 0 0
49 -4.62821 -19.4003 -5.32059 -0.000922152 0.00019668 -0.00065018
50 0 -1.51208 1.07027 0 0 0
51 0.540026 -0.371634 1.70233 0 0 0
52 0 -4.95107 2.17037 0 0 0
53 0 -2.31355 1.98216 0 0 0
54 -4.62788 -18.6316 -6.14968 -0.000922152 0.00019668 -0.00065018
55 0 -0.769075 1.97674 0 0 0
56 0 -0.826365 2.70072 0 0 0
time 24
0 1.5572 9.20997 -3.60973 0.000934124 0 -1.06437
1 6.02794 0 0 -1.40735 0.42343 -0.797186
2 11.7344 0 0 -0.00140296 0 -0.584415
3 8.81138 -0.000450134 -0.000112534 -0.399001 0 0.000157826
4 5.77839 0.000286102 0 -0.267331 0 0.000104006
5 2.23163 -0.000329018 -0.000364304 -0.13167 0 0
6 11.4725 0 0 -0.463096 -0.175368 0.332228
7 0.615215 -0.993091 -0.8107 2.33805 -0.0433468 -0.360756
8 2.24752 0 0 0.0800335 0.130871 -0.022588
9 1.11936 0 0 0.0688114 0.177523 -0.338114
10 3.71348 -0.102641 0.102191 1.81842 1.37508 0.188411
11 1.72615 0 0 0.0136259 -0.0250638 -0.609754
12 1.21114 0 0 0.00236706 0.0174766 -0.462832
13 3.59919 -1.06012 0.0708883 1.68096 1.17438 0.0612364
14 1.66069 0 0 -0.00987786 0.0219166 -0.64561
15 1.167 0 0 0.0379319 -0.0317196 -0.610265
16 2.18852 0.50104 0.0576589 1.57003 0.153931 0.225781
17 1.29609 0 0 0.0343667 0.0550094 -1.22788
18 1.62202 0.000715256 -0.000471592 0.00441626 -0.0145794 -0.727069
19 1.22241 0 0 -0.00631654 0.017687 -0.370915
20 1.76707 1.27612 0.0366406 1.57002 0.26187 0.261241
21 1.55588 0 0 -0.0324567 0.00304727 -1.18264
22 1.24274 0 0 -0.00059947 0 -0.65185
23 0.784523 0 0 0.00633929 0.00191171 -0.571831
24 -1.93761 5.60916 -3.60973 -0.000932693 0 3.14159
25 6.02794 0 0 0.969408 0.434543 1.48194
26 11.7344 0 0 0.00140273 0 0.859946
27 8.81167 0 0 -0.0105394 0 0
28 5.77884 0 0 -0.00706126 0 0
29 2.23249 0 0 -0.00347793 0 0
30 11.4725 0 0 0.258742 -0.38487 -0.635316
31 0.615812 0.994372 -0.809165 -2.75592 0.374249 0.315718
32 2.24752 0 0 -0.565214 0.197981 0.0658205
33 1.11935 0 0 -0.0549133 0.0237985 0.34886
34 3.71349 0.10264 0.102191 -1.55367 0.888575 -0.0661111
35 1.72615 0 0 -0.0121439 -0.00651268 1.19024
36 1.21112 0 0 0.0118385 0.0130726 1.33339
37 3.5992 1.06012 0.0708879 -1.53154 0.266229 0.170417
38 1.66069 0 0 0.0307887 0.0659277 0.632516
39 1.16699 0 0 0.0346484 0.0172046 0.590301
40 2.18853 -0.501041 0.0576588 -1.55151 0.172885 -0.118539
41 1.29609 0 0 -0.0200505 -0.0423274 0.631309
42 1.62202 -0.000714302 -0.000469923 -0.0284748 -0.0166479 1.25494
43 1.22241 0 0 -0.00733727 0.00175439 1.23076
44 1.76707 -1.27612 0.0366404 -1.52771 0.265811 -0.101503
45 1.55588 0 0 0.0305807 -0.0879843 0.525515
46 1.24273 0 0 0.000599179 0 0.710283
47 0.784532 0 0 -0.00205821 0.00641628 0.880036
48 0 0 0 0 0 0
49 -4.62484 -19.3897 -5.31299 -0.00263747 0 0
50 0 -1.51208 1.07027 0 0 0
51 0.540026 -0.371634 1.70232 0 0 0
52 0 -4.95107 2.17037 0 0 0
53 0 -2.31356 1.98216 0 0 0
54 -4.62484 -18.6224 -6.14339 -0.00263747 0 0
55 0 -0.769075 1.97674 0 0 0
56 0 -0.826365 2.70072 0 0 0
time 25
0 1.5572 9.20997 -3.60973 0.000934124 0 -1.06437
1 6.02794 0 0 -1.40718 0.425109 -0.796931
2 11.7344 0 0 -0.00140288 0 -0.588425
3 8.81139 -0.000450134 -0.000111818 -0.398441 0 0.000157907
4 5.77839 0.000286102 0 -0.266956 0 0.00010408
5 2.23164 -0.000329018 -0.000363588 -0.131486 0 0
6 11.4725 0 0 -0.46322 -0.175849 0.334287
7 0.615219 -0.993091 -0.8107 2.33805 -0.0433467 -0.360756
8 2.24752 0 0 0.0800336 0.130871 -0.0225882
9 1.11936 0 0 0.0688115 0.177523 -0.338114
10 3.71348 -0.102641 0.102191 1.81842 1.37508 0.188411
11 1.72615 0 0 0.0136259 -0.0250639 -0.609754
12 1.21114 0 0 0.00236703 0.0174767 -0.462832
13 3.59919 -1.06012 0.0708879 1.68096 1.17438 0.0612367
14 1.66069 0 0 -0.00987794 0.0219166 -0.64561
15 1.167 0 0 0.0379319 -0.0317196 -0.610266
16 2.18852 0.50104 0.0576591 1.57003 0.153932 0.225781
17 1.29609 0 0 0.0343668 0.0550095 -1.22788
18 1.62202 0.000715256 -0.000470638 0.00441627 -0.0145794 -0.727069
19 1.22241 0 0 -0.00631655 0.017687 -0.370915
20 1.76707 1.27612 0.0366406 1.57002 0.261871 0.261241
21 1.55587 0 0 -0.0324566 0.00304733 -1.18264
22 1.24274 0 0 -0.000599461 0 -0.65185
23 0.784523 0 0 0.00633929 0.00191181 -0.571831
24 -1.93761 5.60916 -3.60973 -0.000932693 0 3.14159
25 6.02794 0 0 0.969179 0.435286 1.48135
26 11.7344 0 0 0.00140274 0 0.862515
27 8.81167 0 0 -0.0112286 0 0
28 5.77884 0 0 -0.00752314 0 0
29 2.23249 0 0 -0.00370544 0 0
30 11.4725 0 0 0.258503 -0.384726 -0.636433
31 0.615814 0.994372 -0.809165 -2.75592 0.374249 0.315718
32 2.24752 0 0 -0.565214 0.197981 0.0658203
33 1.11936 0 0 -0.0549136 0.0237985 0.34886
34 3.71349 0.102639 0.102191 -1.55366 0.888575 -0.0661106
35 1.72615 0 0 -0.0121438 -0.00651267 1.19024
36 1.21112 0 0 0.0118385 0.0130726 1.33339
37 3.5992 1.06012 0.0708878 -1.53154 0.266229 0.170417
38 1.66069 0 0 0.0307887 0.0659277 0.632516
39 1.16699 0 0 0.0346484 0.0172046 0.590301
40 2.18853 -0.501041 0.0576595 -1.55151 0.172885 -0.118539
41 1.29609 0 0 -0.0200505 -0.0423274 0.631309
42 1.62201 -0.000712395 -0.000469446 -0.0284748 -0.0166479 1.25494
43 1.22241 0 0 -0.00733721 0.00175437 1.23076
44 1.76707 -1.27612 0.0366411 -1.52771 0.265811 -0.101503
45 1.55588 0 0 0.0305806 -0.0879844 0.525515
46 1.24273 0 0 0.000599212 0 0.710283
47 0.784532 0 0 -0.00205815 0.00641634 0.880036
48 0 0 0 0 0 0
49 -4.62181 -19.3774 -5.30411 -0.00295777 0.000106721 0.000375706
50 0 -1.51208 1.07027 0 0 0
51 0.540027 -0.371632 1.70233 0 0 0
52 0 -4.95107 2.17037 0 0 0
53 0 -2.31355 1.98216 0 0 0
54 -4.62219 -18.6104 -6.13475 -0.00295777 0.000106721 0.000375706
55 0 -0.769075 1.97674 0 0 0
56 0 -0.826365 2.70072 0 0 0
time 26
0 1.5572 9.20997 -3.60973 0.000934124 0 -1.06437
1 6.02794 0 0 -1.40701 0.426892 -0.79664
2 11.7344 0 0 -0.00140292 0 -0.592757
3 8.81138 -0.000449181 -0.000112057 -0.397775 0 0.000158302
4 5.77839 0.000287056 0 -0.266509 0 0.000104507
5 2.23163 -0.000329018 -0.000363827 -0.131266 0 0
6 11.4725 0 0 -0.463306 -0.175994 0.33683
7 0.615217 -0.993091 -0.8107 2.33805 -0.0433469 -0.360756
8 2.24752 0 0 0.0800334 0.13087 -0.0225882
9 1.11936 0 0 0.0688114 0.177523 -0.338114
10 3.71348 -0.102641 0.102191 1.81842 1.37508 0.188411
11 1.72615 0 0 0.0136259 -0.0250639 -0.609754
12 1.21114 0 0 0.00236701 0.0174767 -0.462832
13 3.59919 -1.06012 0.070888 1.68096 1.17438 0.0612367
14 1.66069 0 0 -0.00987789 0.0219166 -0.64561
15 1.167 0 0 0.0379319 -0.0317196 -0.610266
16 2.18852 0.50104 0.057659 1.57003 0.153931 0.225781
17 1.29609 0 0 0.0343666 0.0550094 -1.22788
18 1.62202 0.000715256 -0.000470638 0.00441623 -0.0145794 -0.727069
19 1.22241 0 0 -0.00631655 0.017687 -0.370915
20 1.76707 1.27612 0.0366408 1.57002 0.26187 0.261241
21 1.55588 0 0 -0.0324567 0.00304726 -1.18264
22 1.24274 0 0 -0.000599461 0 -0.65185
23 0.784523 0 0 0.00633928 0.00191174 -0.571831
24 -1.93761 5.60916 -3.60973 -0.000932693 0 3.14159
25 6.02794 0 0 0.96889 0.436209 1.48062
26 11.7344 0 0 0.0014027 0 0.865711
27 8.81167 0 0 -0.0122162 0 0
28 5.77884 0 0 -0.00818487 0 0
29 2.23249 0 0 -0.0040313 0 0
30 11.4725 0 0 0.258431 -0.384628 -0.638412
31 0.615812 0.994372 -0.809165 -2.75592 0.374249 0.315718
32 2.24752 0 0 -0.565214 0.197981 0.0658206
33 1.11936 0 0 -0.0549133 0.0237985 0.34886
34 3.71349 0.10264 0.102191 -1.55367 0.888575 -0.0661111
35 1.72615 0 0 -0.0121439 -0.00651258 1.19024
36 1.21112 0 0 0.0118385 0.0130726 1.33339
37 3.5992 1.06012 0.0708888 -1.53154 0.266229 0.170417
38 1.66069 0 0 0.0307886 0.0659277 0.632516
39 1.16699 0 0 0.0346484 0.0172046 0.590301
40 2.18853 -0.50104 0.0576591 -1.55151 0.172885 -0.118539
41 1.29609 0 0 -0.0200504 -0.0423274 0.631309
42 1.62202 -0.000713348 -0.000469685 -0.0284748 -0.0166479 1.25494
43 1.22241 0 0 -0.00733726 0.0017543 1.23076
44 1.76707 -1.27612 0.0366403 -1.52771 0.265811 -0.101503
45 1.55588 0 0 0.0305806 -0.0879844 0.525515
46 1.24273 0 0 0.00059917 0 0.710283
47 0.784531 0 0 -0.00205811 0.00641632 0.880036
48 0 0 0 0 0 0
49 -4.61896 -19.3641 -5.29483 -0.0029654 0.000136602 0.000480903
50 0 -1.51208 1.07027 0 0 0
51 0.540026 -0.371634 1.70233 0 0 0
52 0 -4.95107 2.17037 0 0 0
53 0 -2.31356 1.98216 0 0 0
54 -4.61945 -18.5972 -6.12548 -0.0029654 0.000136602 0.000480903
55 0 -0.769073 1.97674 0 0 0
56 0 -0.826365 2.70072 0 0 0
time 27
0 1.5572 9.20997 -3.60973 0.000934124 0 -1.06437
1 6.02794 0 0 -1.40685 0.428703 -0.796327
2 11.7344 0 0 -0.00140298 0 -0.597176
3 8.81138 -0.000450134 -0.000112534 -0.397064 0 0.000158101
4 5.77839 0.000286102 0 -0.266033 0 0.000104233
5 2.23163 -0.000329018 -0.000363827 -0.131031 0 0
6 11.4725 0 0 -0.463392 -0.175888 0.339703
7 0.615219 -0.993091 -0.8107 2.33805 -0.0433468 -0.360756
8 2.24752 0 0 0.0800335 0.130871 -0.0225879
9 1.11936 0 0 0.0688114 0.177523 -0.338114
10 3.71348 -0.102641 0.102191 1.81842 1.37508 0.188411
11 1.72615 0 0 0.0136259 -0.0250638 -0.609754
12 1.21114 0 0 0.00236702 0.0174767 -0.462832
13 3.59919 -1.06012 0.0708879 1.68096 1.17438 0.0612363
14 1.66069 0 0 -0.00987786 0.0219166 -0.64561
15 1.167 0 0 0.0379319 -0.0317196 -0.610266
16 2.18853 0.501039 0.0576591 1.57003 0.153931 0.225781
17 1.29609 0 0 0.0343667 0.0550095 -1.22788
18 1.62202 0.000717163 -0.000471115 0.00441626 -0.0145795 -0.727069
19 1.22241 0 0 -0.00631657 0.017687 -0.370915
20 1.76707 1.27612 0.0366406 1.57002 0.26187 0.261241
21 1.55588 0 0 -0.0324566 0.00304728 -1.18264
22 1.24274 0 0 -0.00059948 0 -0.65185
23 0.784523 0 0 0.00633937 0.00191174 -0.571831
24 -1.93761 5.60916 -3.60973 -0.000932693 0 3.14159
25 6.02794 0 0 0.968676 0.436889 1.48009
26 11.7344 0 0 0.00140286 0 0.868395
27 8.81167 0 0 -0.0131704 0 0
28 5.77884 0 0 -0.00882414 0 0
29 2.23249 0 0 -0.00434619 0 0
30 11.4725 0 0 0.258481 -0.384515 -0.64057
31 0.61581 0.994373 -0.809166 -2.75592 0.374249 0.315718
32 2.24752 0 0 -0.565214 0.197981 0.0658204
33 1.11936 0 0 -0.0549133 0.0237985 0.34886
34 3.71348 0.10264 0.102191 -1.55366 0.888575 -0.0661107
35 1.72615 0 0 -0.0121439 -0.00651262 1.19024
36 1.21112 0 0 0.0118384 0.0130726 1.33339
37 3.5992 1.06012 0.0708878 -1.53154 0.266229 0.170417
38 1.66069 0 0 0.0307887 0.0659278 0.632516
39 1.16699 0 0 0.0346485 0.0172045 0.590301
40 2.18853 -0.50104 0.0576583 -1.55151 0.172885 -0.118539
41 1.29609 0 0 -0.0200505 -0.0423275 0.631309
42 1.62202 -0.000712395 -0.000469685 -0.0284747 -0.0166479 1.25494
43 1.22241 0 0 -0.00733726 0.00175437 1.23076
44 1.76707 -1.27612 0.0366399 -1.52771 0.265811 -0.101503
45 1.55588 0 0 0.0305806 -0.0879843 0.525515
46 1.24273 0 0 0.000599183 0 0.710283
47 0.784531 0 0 -0.00205807 0.00641634 0.880036
48 0 0 0 0 0 0
49 -4.61612 -19.3508 -5.28605 -0.0026669 0.000115258 0.000405762
50 0 -1.51208 1.07027 0 0 0
51 0.540026 -0.371632 1.70233 0 0 0
52 0 -4.95108 2.17037 0 0 0
53 0 -2.31355 1.98216 0 0 0
54 -4.61653 -18.5836 -6.11648 -0.0026669 0.000115258 0.000405762
55 0 -0.769073 1.97674 0 0 0
56 0 -0.826363 2.70072 0 0 0
time 28
0 1.5572 9.20997 -3.60973 0.000934124 0 -1.06437
1 6.02794 0 0 -1.40672 0.430471 -0.796004
2 11.7344 0 0 -0.00140291 0 -0.601455
3 8.81138 -0.000449181 -0.000112057 -0.396372 0 0.000157993
4 5.77839 0.000286102 0 -0.265569 0 0.000104268
5 2.23163 -0.000329971 -0.000363827 -0.130803 0 0
6 11.4725 0 0 -0.463514 -0.175616 0.342758
7 0.615221 -0.993091 -0.8107 2.33805 -0.0433469 -0.360756
8 2.24752 0 0 0.0800335 0.130871 -0.0225879
9 1.11936 0 0 0.0688116 0.177523 -0.338114
10 3.71348 -0.102641 0.102191 1.81842 1.37508 0.188411
11 1.72615 0 0 0.0136259 -0.0250639 -0.609754
12 1.21114 0 0 0.002367 0.0174767 -0.462832
13 3.59919 -1.06012 0.070888 1.68096 1.17438 0.0612366
14 1.66069 0 0 -0.00987786 0.0219166 -0.64561
15 1.167 0 0 0.0379319 -0.0317196 -0.610265
16 2.18853 0.50104 0.0576589 1.57003 0.153931 0.225781
17 1.29609 0 0 0.0343667 0.0550094 -1.22788
18 1.62202 0.000715256 -0.000470638 0.0044162 -0.0145794 -0.727069
19 1.22241 0 0 -0.00631658 0.017687 -0.370915
20 1.76707 1.27612 0.0366409 1.57002 0.26187 0.261241
21 1.55588 0 0 -0.0324566 0.00304725 -1.18264
22 1.24274 0 0 -0.000599499 0 -0.65185
23 0.784524 0 0 0.00633939 0.00191168 -0.571831
24 -1.93761 5.60916 -3.60973 -0.000932693 0 3.14159
25 6.02794 0 0 0.968476 0.437505 1.47963
26 11.7344 0 0 0.00140272 0 0.870917
27 8.81167 0 0 -0.0141338 0 0
28 5.77884 0 0 -0.00946954 0 0
29 2.23249 0 0 -0.00466416 0 0
30 11.4725 0 0 0.258604 -0.384329 -0.642975
31 0.615812 0.994373 -0.809165 -2.75592 0.374249 0.315718
32 2.24752 0 0 -0.565214 0.197981 0.0658205
33 1.11936 0 0 -0.0549133 0.0237985 0.34886
34 3.71349 0.10264 0.102191 -1.55367 0.888575 -0.0661109
35 1.72615 0 0 -0.0121439 -0.00651265 1.19024
36 1.21112 0 0 0.0118385 0.0130726 1.33339
37 3.5992 1.06012 0.0708883 -1.53154 0.266229 0.170417
38 1.66069 0 0 0.0307886 0.0659277 0.632516
39 1.16699 0 0 0.0346484 0.0172046 0.590301
40 2.18853 -0.50104 0.0576596 -1.55151 0.172885 -0.118539
41 1.29609 0 0 -0.0200505 -0.0423275 0.631309
42 1.62202 -0.000713348 -0.000469208 -0.0284747 -0.0166479 1.25494
43 1.22241 0 0 -0.00733728 0.00175437 1.23076
44 1.76707 -1.27612 0.0366411 -1.52771 0.265811 -0.101503
45 1.55588 0 0 0.0305806 -0.0879843 0.525515
46 1.24273 0 0 0.000599195 0 0.710283
47 0.784532 0 0 -0.00205819 0.00641634 0.880036
48 0 0 0 0 0 0
49 -4.61312 -19.3382 -5.27867 -0.00206881 0 0.000240452
50 0 -1.51208 1.07027 0 0 0
51 0.540026 -0.371634 1.70232 0 0 0
52 0 -4.95107 2.17037 0 0 0
53 0 -2.31355 1.98216 0 0 0
54 -4.61336 -18.5705 -6.10864 -0.00206881 0 0.000240452
55 0 -0.769075 1.97674 0 0 0
56 0 -0.826365 2.70072 0 0 0
time 29
0 1.5572 9.20997 -3.60973 0.000934124 0 -1.06437
1 6.02794 0 0 -1.40661 0.432123 -0.795686
2 11.7344 0 0 -0.00140293 0 -0.605369
3 8.81139 -0.000450134 -0.000112534 -0.395761 0 0.000158132
4 5.77839 0.000286102 0 -0.26516 0 0.000104349
5 2.23163 -0.000329018 -0.000363827 -0.130601 0 0
6 11.4725 0 0 -0.46371 -0.175265 0.345844
7 0.615219 -0.993092 -0.8107 2.33805 -0.0433467 -0.360756
8 2.24752 0 0 0.0800336 0.130871 -0.0225878
9 1.11936 0 0 0.0688114 0.177523 -0.338114
10 3.71348 -0.102642 0.102191 1.81843 1.37508 0.188412
11 1.72615 0 0 0.0136259 -0.0250638 -0.609754
12 1.21114 0 0 0.00236708 0.0174766 -0.462832
13 3.59919 -1.06012 0.0708882 1.68096 1.17438 0.0612367
14 1.66069 0 0 -0.00987788 0.0219166 -0.64561
15 1.167 0 0 0.0379319 -0.0317196 -0.610266
16 2.18853 0.501039 0.0576588 1.57003 0.153931 0.225781
17 1.29609 0 0 0.0343668 0.0550096 -1.22788
18 1.62202 0.000711441 -0.000470638 0.00441626 -0.0145795 -0.727069
19 1.22241 0 0 -0.00631659 0.0176869 -0.370915
20 1.76707 1.27612 0.0366411 1.57002 0.26187 0.261241
21 1.55588 0 0 -0.0324566 0.00304725 -1.18264
22 1.24273 0 0 -0.00059948 0 -0.65185
23 0.784525 0 0 0.00633935 0.0019117 -0.571831
24 -1.93761 5.60916 -3.60973 -0.000932693 0 3.14159
25 6.02794 0 0 0.9683 0.438025 1.47927
26 11.7344 0 0 0.00140274 0 0.873104
27 8.81167 0 0 -0.0150158 0 0
28 5.77884 0 0 -0.0100607 0 0
29 2.23249 0 0 -0.00495521 0 0
30 11.4725 0 0 0.258755 -0.38401 -0.645432
31 0.615812 0.994372 -0.809165 -2.75592 0.374249 0.315718
32 2.24752 0 0 -0.565214 0.197981 0.0658205
33 1.11936 0 0 -0.0549133 0.0237986 0.34886
34 3.71349 0.10264 0.102191 -1.55367 0.888575 -0.066111
35 1.72615 0 0 -0.0121439 -0.00651257 1.19024
36 1.21112 0 0 0.0118385 0.0130726 1.33339
37 3.5992 1.06012 0.0708879 -1.53154 0.266229 0.170417
38 1.66069 0 0 0.0307887 0.0659277 0.632516
39 1.16699 0 0 0.0346484 0.0172045 0.590301
40 2.18853 -0.50104 0.057659 -1.55151 0.172885 -0.118539
41 1.29609 0 0 -0.0200504 -0.0423275 0.631309
42 1.62202 -0.000713348 -0.000469923 -0.0284747 -0.0166479 1.25494
43 1.22241 0 0 -0.00733728 0.00175438 1.23076
44 1.76707 -1.27612 0.0366405 -1.52771 0.265811 -0.101503
45 1.55588 0 0 0.0305806 -0.0879844 0.525515
46 1.24273 0 0 0.000599238 0 0.710283
47 0.784531 0 0 -0.00205815 0.0064163 0.880036
48 0 0 0 0 0 0
49 -4.60978 -19.3271 -5.27359 -0.00117766 0 0
50 0 -1.51208 1.07027 0 0 0
51 0.540027 -0.371635 1.70233 0 0 0
52 0 -4.95107 2.17037 0 0 0
53 0 -2.31355 1.98216 0 0 0
54 -4.60985 -18.5587 -6.10287 -0.00117766 0 0
55 0 -0.769075 1.97674 0 0 0
56 0 -0.826365 2.70072 0 0 0
time 30
0 1.5572 9.20997 -3.60973 0.000934124 0 -1.06437
1 6.02794 0 0 -1.40652 0.433856 -0.795337
2 11.7344 0 0 -0.00140288 0 -0.609235
3 8.81138 -0.000449181 -0.000112057 -0.395216 0 0.000157816
4 5.77839 0.000287056 0 -0.264795 0 0.000104063
5 2.23164 -0.000329018 -0.000364065 -0.130421 0 0
6 11.4725 0 0 -0.46402 -0.174922 0.349091
7 0.615219 -0.993091 -0.8107 2.33805 -0.0433468 -0.360756
8 2.24752 0 0 0.0800335 0.130871 -0.0225879
9 1.11936 0 0 0.0688114 0.177523 -0.338114
10 3.71348 -0.102641 0.102191 1.81842 1.37508 0.188411
11 1.72615 0 0 0.0136259 -0.0250639 -0.609754
12 1.21114 0 0 0.00236707 0.0174767 -0.462832
13 3.59919 -1.06012 0.0708884 1.68096 1.17438 0.0612361
14 1.66069 0 0 -0.00987787 0.0219166 -0.64561
15 1.167 0 0 0.0379319 -0.0317196 -0.610266
16 2.18853 0.501039 0.057659 1.57003 0.153931 0.225781
17 1.2961 0 0 0.0343667 0.0550095 -1.22788
18 1.62202 0.000715256 -0.000471115 0.00441626 -0.0145794 -0.727069
19 1.22241 0 0 -0.00631663 0.017687 -0.370915
20 1.76707 1.27612 0.036641 1.57002 0.26187 0.261241
21 1.55588 0 0 -0.0324566 0.00304736 -1.18264
22 1.24274 0 0 -0.000599536 0 -0.65185
23 0.784524 0 0 0.00633937 0.00191177 -0.571831
24 -1.93761 5.60916 -3.60973 -0.000932693 0 3.14159
25 6.02794 0 0 0.968156 0.438421 1.47904
26 11.7344 0 0 0.00140272 0 0.874785
27 8.81167 0 0 -0.0157288 0 0
28 5.77884 0 0 -0.0105384 0 0
29 2.23249 0 0 -0.00519044 0 0
30 11.4725 0 0 0.258886 -0.3835 -0.647746
31 0.615814 0.994373 -0.809166 -2.75592 0.374249 0.315718
32 2.24752 0 0 -0.565214 0.197981 0.0658205
33 1.11936 0 0 -0.0549132 0.0237986 0.34886
34 3.71349 0.102639 0.102191 -1.55367 0.888575 -0.0661111
35 1.72615 0 0 -0.0121439 -0.00651261 1.19024
36 1.21112 0 0 0.0118385 0.0130726 1.33339
37 3.5992 1.06012 0.0708879 -1.53154 0.266229 0.170417
38 1.66069 0 0 0.0307887 0.0659277 0.632516
39 1.16699 0 0 0.0346484 0.0172046 0.590301
40 2.18853 -0.50104 0.0576586 -1.55151 0.172885 -0.118539
41 1.29609 0 0 -0.0200504 -0.0423274 0.631309
42 1.62202 -0.000713348 -0.000469685 -0.0284748 -0.016648 1.25494
43 1.22241 0 0 -0.00733725 0.00175434 1.23076
44 1.76707 -1.27612 0.0366399 -1.52771 0.265811 -0.101503
45 1.55588 0 0 0.0305806 -0.0879844 0.525515
46 1.24273 0 0 0.000599195 0 0.710283
47 0.784532 0 0 -0.00205818 0.00641634 0.880036
48 0 0 0 0 0 0
49 -4.60592 -19.3184 -5.2717 0 0 0
50 0 -1.51208 1.07027 0 0 0
51 0.540026 -0.371634 1.70233 0 0 0
52 0 -4.95107 2.17037 0 0 0
53 0 -2.31355 1.98216 0 0 0
54 -4.60592 -18.549 -6.10007 0 0 0
55 0 -0.769075 1.97674 0 0 0
56 0 -0.826365 2.70072 0 0 0
end
