//Sequence File generated by the Wall Worm SMD Exporter PRO 1.99
//www.wallworm.com
version 1
nodes
0 "b_l_clav" -1
1 "b_l_upperarm" 0
2 "b_l_forearm" 1
3 "b_l_twist3" 2
4 "b_l_twist2" 2
5 "b_l_twist1" 2
6 "b_l_hand" 2
7 "b_l_thumb001" 6
8 "b_l_thumb002" 7
9 "b_l_thumb003" 8
10 "b_l_middle001" 6
11 "b_l_middle002" 10
12 "b_l_middle003" 11
13 "b_l_index001" 6
14 "b_l_index002" 13
15 "b_l_index003" 14
16 "b_l_hand_ringsqueezer" 6
17 "b_l_ring001" 16
18 "b_l_ring002" 17
19 "b_l_ring003" 18
20 "b_l_hand_pinkysqueezer" 6
21 "b_l_pinky001" 20
22 "b_l_pinky002" 21
23 "b_l_pinky003" 22
24 "b_r_clav" -1
25 "b_r_upperarm" 24
26 "b_r_forearm" 25
27 "b_r_twist3" 26
28 "b_r_twist2" 26
29 "b_r_twist1" 26
30 "b_r_hand" 26
31 "b_r_thumb001" 30
32 "b_r_thumb002" 31
33 "b_r_thumb003" 32
34 "b_r_middle001" 30
35 "b_r_middle002" 34
36 "b_r_middle003" 35
37 "b_r_index001" 30
38 "b_r_index002" 37
39 "b_r_index003" 38
40 "b_r_hand_ringsqueezer" 30
41 "b_r_ring001" 40
42 "b_r_ring002" 41
43 "b_r_ring003" 42
44 "b_r_hand_pinkysqueezer" 30
45 "b_r_pinky001" 44
46 "b_r_pinky002" 45
47 "b_r_pinky003" 46
48 "b_zero" -1
49 "d_gun" -1
50 "d_trig" 49
51 "d_slidelock" 49
52 "d_slide" 49
53 "d_barrel" 49
54 "d_mag" -1
55 "d_magfollower" 54
56 "d_boolet" 54
end
skeleton
time 0
0 1.5572 9.20997 -3.60973 0.000934124 0 -1.06437
1 6.02794 0 0 -1.40652 0.433856 -0.795337
2 11.7344 0 0 -0.00140288 0 -0.609235
3 8.81138 -0.000449181 -0.000112057 -0.395216 0 0.000157816
4 5.77839 0.000287056 0 -0.264795 0 0.000104063
5 2.23164 -0.000329018 -0.000364065 -0.130421 0 0
6 11.4725 0 0 -0.46402 -0.174922 0.349091
7 0.615219 -0.993091 -0.8107 2.33805 -0.0433468 -0.360756
8 2.24752 0 0 0.0800335 0.130871 -0.0225879
9 1.11936 0 0 0.0688114 0.177523 -0.338114
10 3.71348 -0.102641 0.102191 1.81842 1.37508 0.188411
11 1.72615 0 0 0.0136259 -0.0250639 -0.609754
12 1.21114 0 0 0.00236707 0.0174767 -0.462832
13 3.59919 -1.06012 0.0708884 1.68096 1.17438 0.0612361
14 1.66069 0 0 -0.00987787 0.0219166 -0.64561
15 1.167 0 0 0.0379319 -0.0317196 -0.610266
16 2.18853 0.501039 0.057659 1.57003 0.153931 0.225781
17 1.2961 0 0 0.0343667 0.0550095 -1.22788
18 1.62202 0.000715256 -0.000471115 0.00441626 -0.0145794 -0.727069
19 1.22241 0 0 -0.00631663 0.017687 -0.370915
20 1.76707 1.27612 0.036641 1.57002 0.26187 0.261241
21 1.55588 0 0 -0.0324566 0.00304736 -1.18264
22 1.24274 0 0 -0.000599536 0 -0.65185
23 0.784524 0 0 0.00633937 0.00191177 -0.571831
24 -1.93761 5.60916 -3.60973 -0.000932693 0 3.14159
25 6.02794 0 0 0.968156 0.438421 1.47904
26 11.7344 0 0 0.00140272 0 0.874785
27 8.81167 0 0 -0.0157288 0 0
28 5.77884 0 0 -0.0105384 0 0
29 2.23249 0 0 -0.00519044 0 0
30 11.4725 0 0 0.258886 -0.3835 -0.647746
31 0.615814 0.994373 -0.809166 -2.75592 0.374249 0.315718
32 2.24752 0 0 -0.565214 0.197981 0.0658205
33 1.11936 0 0 -0.0549132 0.0237986 0.34886
34 3.71349 0.102639 0.102191 -1.55367 0.888575 -0.0661111
35 1.72615 0 0 -0.0121439 -0.00651261 1.19024
36 1.21112 0 0 0.0118385 0.0130726 1.33339
37 3.5992 1.06012 0.0708879 -1.53154 0.266229 0.170417
38 1.66069 0 0 0.0307887 0.0659277 0.632516
39 1.16699 0 0 0.0346484 0.0172046 0.590301
40 2.18853 -0.50104 0.0576586 -1.55151 0.172885 -0.118539
41 1.29609 0 0 -0.0200504 -0.0423274 0.631309
42 1.62202 -0.000713348 -0.000469685 -0.0284748 -0.016648 1.25494
43 1.22241 0 0 -0.00733725 0.00175434 1.23076
44 1.76707 -1.27612 0.0366399 -1.52771 0.265811 -0.101503
45 1.55588 0 0 0.0305806 -0.0879844 0.525515
46 1.24273 0 0 0.000599195 0 0.710283
47 0.784532 0 0 -0.00205818 0.00641634 0.880036
48 0 0 0 0 0 0
49 -4.60592 -19.3184 -5.2717 0 0 0
50 0 -1.51208 1.07027 0 0 0
51 0.540026 -0.371634 1.70233 0 0 0
52 0 -4.95107 2.17037 0 0 0
53 0 -2.31355 1.98216 0 0 0
54 -4.60592 -18.549 -6.10007 0 0 0
55 0 -0.769075 1.97674 0 0 0
56 0 -0.826365 2.70072 0 0 0
time 1
0 1.5572 9.20997 -3.60973 0.000934124 0 -1.06437
1 6.02794 0 0 -1.40512 0.439269 -0.795219
2 11.7344 0 0 -0.00140289 0 -0.624086
3 8.81138 -0.000449181 -0.000112772 -0.409275 0 0.000157635
4 5.77839 0.000286102 0 -0.274214 0 0.000103915
5 2.23163 -0.000328064 -0.000363588 -0.135061 0 0
6 11.4725 0 0 -0.487184 -0.168334 0.38637
7 0.615217 -0.993091 -0.8107 2.33805 -0.0433469 -0.360756
8 2.24752 0 0 0.0800335 0.130871 -0.0225881
9 1.11936 0 0 0.0688114 0.177523 -0.338114
10 3.71348 -0.102641 0.102191 1.81842 1.37508 0.188411
11 1.72615 0 0 0.0136259 -0.0250639 -0.609754
12 1.21114 0 0 0.00236699 0.0174767 -0.462832
13 3.59919 -1.06012 0.0708882 1.68096 1.17438 0.0612362
14 1.66069 0 0 -0.00987787 0.0219166 -0.64561
15 1.167 0 0 0.0379319 -0.0317196 -0.610265
16 2.18852 0.50104 0.0576593 1.57003 0.153931 0.225781
17 1.2961 0 0 0.0343667 0.0550094 -1.22788
18 1.62202 0.000713348 -0.000470638 0.00441617 -0.0145795 -0.727069
19 1.22241 0 0 -0.00631658 0.017687 -0.370915
20 1.76707 1.27612 0.036641 1.57002 0.26187 0.261241
21 1.55588 0 0 -0.0324566 0.00304736 -1.18264
22 1.24274 0 0 -0.000599461 0 -0.65185
23 0.784522 0 0 0.00633924 0.00191176 -0.571831
24 -1.93761 5.60916 -3.60973 -0.000932693 0 3.14159
25 6.02794 0 0 0.970115 0.43441 1.47926
26 11.7344 0 0 0.00140267 0 0.878188
27 8.81167 0 0 -0.032136 0 0
28 5.77884 0 0 -0.0215313 0 0
29 2.23249 0 0 -0.010605 0 0
30 11.4725 0 0 0.245071 -0.367067 -0.677273
31 0.615814 0.994373 -0.809166 -2.75592 0.374249 0.315718
32 2.24752 0 0 -0.565214 0.197981 0.0658204
33 1.11936 0 0 -0.0549134 0.0237984 0.34886
34 3.71349 0.102639 0.10219 -1.55367 0.888575 -0.0661109
35 1.72615 0 0 -0.0121439 -0.00651271 1.19024
36 1.21112 0 0 0.0118386 0.0130726 1.33339
37 3.5992 1.06012 0.0708876 -1.53154 0.266229 0.170417
38 1.66069 0 0 0.0431939 0.0591551 0.814416
39 1.16699 0 0 0.0362567 0.010936 0.770131
40 2.18853 -0.50104 0.0576586 -1.55151 0.172885 -0.118539
41 1.29609 0 0 -0.0200504 -0.0423275 0.631309
42 1.62201 -0.000713348 -0.000469685 -0.0284747 -0.0166479 1.25494
43 1.22241 0 0 -0.00733727 0.00175436 1.23076
44 1.76707 -1.27612 0.0366405 -1.52771 0.265811 -0.101503
45 1.55588 0 0 0.0305807 -0.0879844 0.525515
46 1.24273 0 0 0.000599208 0 0.710283
47 0.784531 0 0 -0.00205812 0.00641633 0.880036
48 0 0 0 0 0 0
49 -4.60226 -19.3038 -5.28107 0.0305456 0.012857 0.000392835
50 0 -1.50715 1.083 0.153348 0 0
51 0.540026 -0.371632 1.70233 0 0 0
52 0 -4.26864 2.17037 0 0 0
53 0 -2.24599 1.94401 -0.0209638 0 0
54 -4.61291 -18.5095 -6.0855 0.0305456 0.012857 0.000392835
55 0 -0.769075 1.97674 0 0 0
56 0 -0.826365 2.70072 0 0 0
time 2
0 1.5572 9.20997 -3.60973 0.000934124 0 -1.06437
1 6.02794 0 0 -1.37378 0.576376 -0.780171
2 11.7344 0 0 -0.00140286 0 -0.872176
3 8.81138 -0.000450134 -0.000112534 -0.353129 0 0.000157993
4 5.77839 0.000286102 0 -0.236596 0 0.000104311
5 2.23163 -0.000329018 -0.000364065 -0.116533 0 0
6 11.4725 0 0 -0.44654 -0.212668 0.396279
7 0.615221 -0.993091 -0.8107 2.33805 -0.043347 -0.360756
8 2.24752 0 0 0.0800336 0.130871 -0.0225881
9 1.11935 0 0 0.0688116 0.177523 -0.338114
10 3.71348 -0.102641 0.102191 1.81842 1.37508 0.188411
11 1.72615 0 0 0.0136259 -0.0250639 -0.609754
12 1.21114 0 0 0.00236704 0.0174767 -0.462832
13 3.59919 -1.06012 0.0708878 1.68096 1.17438 0.0612364
14 1.66069 0 0 -0.00987789 0.0219166 -0.64561
15 1.167 0 0 0.0379319 -0.0317196 -0.610266
16 2.18852 0.50104 0.057659 1.57003 0.153932 0.225781
17 1.29609 0 0 0.0343667 0.0550094 -1.22788
18 1.62202 0.000713348 -0.000471592 0.00441622 -0.0145794 -0.727069
19 1.22241 0 0 -0.00631657 0.017687 -0.370915
20 1.76707 1.27612 0.0366409 1.57002 0.26187 0.261241
21 1.55588 0 0 -0.0324567 0.0030473 -1.18264
22 1.24273 0 0 -0.000599442 0 -0.65185
23 0.784524 0 0 0.00633934 0.0019116 -0.571831
24 -1.93761 5.60916 -3.60973 -0.000932693 0 3.14159
25 6.02794 0 0 0.919516 0.550069 1.40767
26 11.7344 0 0 0.00140271 0 1.10534
27 8.81167 0 0 -0.0608306 0 0
28 5.77884 0 0 -0.0407564 0 0
29 2.23249 0 0 -0.0200742 0 0
30 11.4725 0 0 0.274233 -0.443112 -0.688173
31 0.615814 0.994372 -0.809166 -2.75592 0.374249 0.315718
32 2.24752 0 0 -0.565214 0.197981 0.0658205
33 1.11936 0 0 -0.0549132 0.0237985 0.34886
34 3.71349 0.10264 0.102191 -1.55367 0.888575 -0.0661109
35 1.72615 0 0 -0.0121439 -0.00651265 1.19024
36 1.21112 0 0 0.0118386 0.0130726 1.33339
37 3.5992 1.06012 0.0708886 -1.53154 0.266229 0.170417
38 1.66069 0 0 0.0513654 0.0528512 0.947116
39 1.16699 0 0 0.0358595 0.00548183 0.90441
40 2.18853 -0.50104 0.057659 -1.55151 0.172885 -0.118539
41 1.29609 0 0 -0.0200504 -0.0423275 0.631309
42 1.62202 -0.000712395 -0.000469685 -0.0284748 -0.0166479 1.25494
43 1.22241 0 0 -0.00733728 0.00175437 1.23076
44 1.76707 -1.27612 0.0366409 -1.52771 0.265811 -0.101503
45 1.55588 0 0 0.0305806 -0.0879844 0.525515
46 1.24273 0 0 0.000599197 0 0.710283
47 0.784532 0 0 -0.00205815 0.00641635 0.880036
48 0 0 0 0 0 0
49 -4.60592 -17.9935 -5.2717 -0.0797672 -0.0101309 0.000809808
50 0 -1.50025 1.10082 0.306695 0 0
51 0.540026 -0.371635 1.70233 0 0 0
52 0 -3.13126 2.17037 0 0 0
53 0 -2.17842 1.90586 -0.0419277 0 0
54 -4.59751 -17.2926 -6.1587 -0.0797672 -0.0101309 0.000809808
55 0 -0.769077 1.97674 0 0 0
56 0 -0.826365 2.70072 0 0 0
time 3
0 1.5572 9.20997 -3.60973 0.000934124 0 -1.06437
1 6.02794 0 0 -1.3705 0.598768 -0.774939
2 11.7344 0 0 -0.00140281 0 -0.918908
3 8.81138 -0.000448227 -0.000111818 -0.290259 0 0.000157529
4 5.77839 0.000286102 0 -0.194473 0 0.000104393
5 2.23163 -0.000329018 -0.000363588 -0.0957855 0 0
6 11.4725 0 0 -0.377465 -0.214445 0.372599
7 0.615217 -0.993091 -0.8107 2.33805 -0.0433469 -0.360756
8 2.24752 0 0 0.0800335 0.130871 -0.0225881
9 1.11936 0 0 0.0688114 0.177523 -0.338114
10 3.71348 -0.102641 0.102191 1.81842 1.37508 0.188411
11 1.72615 0 0 0.0136259 -0.0250639 -0.609754
12 1.21114 0 0 0.00236701 0.0174767 -0.462832
13 3.59919 -1.06012 0.070888 1.68096 1.17438 0.0612365
14 1.66069 0 0 -0.00987788 0.0219166 -0.64561
15 1.167 0 0 0.0379319 -0.0317196 -0.610266
16 2.18853 0.50104 0.0576589 1.57003 0.153931 0.225781
17 1.29609 0 0 0.0343667 0.0550095 -1.22788
18 1.62202 0.000711441 -0.000471115 0.00441623 -0.0145794 -0.727069
19 1.22241 0 0 -0.00631654 0.017687 -0.370915
20 1.76707 1.27612 0.0366409 1.57002 0.26187 0.261241
21 1.55588 0 0 -0.0324566 0.0030473 -1.18264
22 1.24274 0 0 -0.000599499 0 -0.65185
23 0.784524 0 0 0.00633934 0.00191173 -0.571831
24 -1.93761 5.60916 -3.60973 -0.000932693 0 3.14159
25 6.02794 0 0 0.904456 0.576307 1.39239
26 11.7344 0 0 0.00140277 0 1.1506
27 8.81167 0 0 -0.0289034 0 0
28 5.77884 0 0 -0.0193652 0 0
29 2.23249 0 0 -0.00953815 0 0
30 11.4725 0 0 0.329936 -0.483392 -0.679345
31 0.615812 0.994372 -0.809165 -2.75592 0.374249 0.315718
32 2.24752 0 0 -0.565215 0.197981 0.0658205
33 1.11936 0 0 -0.0549133 0.0237985 0.34886
34 3.71349 0.102639 0.102191 -1.55366 0.888575 -0.0661108
35 1.72615 0 0 -0.0121439 -0.00651267 1.19024
36 1.21112 0 0 0.0118385 0.0130726 1.33339
37 3.5992 1.06012 0.0708882 -1.53154 0.266229 0.170417
38 1.66069 0 0 0.0513655 0.0528512 0.947116
39 1.16699 0 0 0.0358595 0.00548179 0.904411
40 2.18853 -0.501041 0.0576594 -1.55151 0.172885 -0.118539
41 1.29609 0 0 -0.0200505 -0.0423275 0.631309
42 1.62202 -0.000714302 -0.000469685 -0.0284748 -0.0166479 1.25494
43 1.22241 0 0 -0.00733729 0.00175434 1.23076
44 1.76707 -1.27612 0.0366405 -1.52771 0.265811 -0.101503
45 1.55588 0 0 0.0305806 -0.0879844 0.525515
46 1.24273 0 0 0.000599215 0 0.710283
47 0.784532 0 0 -0.00205815 0.00641633 0.880036
48 0 0 0 0 0 0
49 -4.63416 -17.6689 -5.19668 -0.134381 -0.0611965 -0.00700212
50 0 -1.49729 1.10846 0.306695 0 0
51 0.540026 -0.371634 1.70232 0 0 0
52 0 -3.13126 2.17037 0 0 0
53 0 -2.17842 1.90586 -0.0419277 0 0
54 -4.57309 -17.0179 -6.11895 -0.134381 -0.0611965 -0.00700212
55 0 -0.769075 1.97674 0 0 0
56 0 -0.826366 2.70072 0 0 0
time 4
0 1.5572 9.20997 -3.60973 0.000934124 0 -1.06437
1 6.02794 0 0 -1.38769 0.550296 -0.778565
2 11.7344 0 0 -0.00140265 0 -0.839213
3 8.81139 -0.000450134 -0.000112057 -0.243581 0 0.000157764
4 5.77839 0.000285149 0 -0.163199 0 0.000104646
5 2.23163 -0.000329018 -0.000363827 -0.0803817 0 0
6 11.4725 0 0 -0.310906 -0.192659 0.323211
7 0.615221 -0.993091 -0.8107 2.33805 -0.0433469 -0.360756
8 2.24752 0 0 0.0800335 0.130871 -0.0225882
9 1.11936 0 0 0.0688114 0.177523 -0.338114
10 3.71348 -0.102641 0.102191 1.81843 1.37508 0.188412
11 1.72615 0 0 0.0136259 -0.0250639 -0.609754
12 1.21114 0 0 0.00236701 0.0174767 -0.462832
13 3.59919 -1.06012 0.0708883 1.68096 1.17438 0.0612364
14 1.66069 0 0 -0.0098779 0.0219166 -0.64561
15 1.167 0 0 0.0379319 -0.0317196 -0.610265
16 2.18852 0.50104 0.0576589 1.57003 0.153931 0.225781
17 1.29609 0 0 0.0343667 0.0550095 -1.22788
18 1.62202 0.000713348 -0.000471115 0.0044163 -0.0145794 -0.727069
19 1.22241 0 0 -0.00631656 0.0176869 -0.370915
20 1.76707 1.27612 0.0366406 1.57002 0.26187 0.261241
21 1.55588 0 0 -0.0324566 0.0030473 -1.18264
22 1.24274 0 0 -0.000599447 0 -0.65185
23 0.784524 0 0 0.00633936 0.00191173 -0.571831
24 -1.93761 5.60916 -3.60973 -0.000932693 0 3.14159
25 6.02794 0 0 0.919458 0.547194 1.41579
26 11.7344 0 0 0.00140271 0 1.08248
27 8.81167 0 0 0.0371517 0 0
28 5.77884 0 0 0.0248917 0 0
29 2.23249 0 0 0.0122601 0 0
30 11.4725 0 0 0.38349 -0.497473 -0.649558
31 0.615813 0.994373 -0.809165 -2.75592 0.374249 0.315718
32 2.24752 0 0 -0.565214 0.197981 0.0658204
33 1.11936 0 0 -0.0549133 0.0237984 0.34886
34 3.71349 0.10264 0.102191 -1.55367 0.888575 -0.0661109
35 1.72615 0 0 -0.0121439 -0.00651264 1.19024
36 1.21112 0 0 0.0118385 0.0130726 1.33339
37 3.5992 1.06012 0.0708885 -1.53154 0.266229 0.170417
38 1.66069 0 0 0.0513655 0.0528512 0.947117
39 1.16699 0 0 0.0358595 0.00548186 0.90441
40 2.18853 -0.501041 0.0576597 -1.55151 0.172885 -0.118539
41 1.29609 0 0 -0.0200504 -0.0423275 0.631309
42 1.62202 -0.000713348 -0.000469685 -0.0284748 -0.0166479 1.25494
43 1.22241 0 0 -0.00733728 0.00175437 1.23076
44 1.76707 -1.27612 0.0366406 -1.52771 0.265811 -0.101503
45 1.55588 0 0 0.0305806 -0.0879844 0.525515
46 1.24273 0 0 0.000599193 0 0.710283
47 0.784532 0 0 -0.00205814 0.00641634 0.880036
48 0 0 0 0 0 0
49 -4.67891 -18.082 -5.07949 -0.15629 -0.111399 -0.0172114
50 0 -1.4963 1.11101 0.306695 0 0
51 0.540026 -0.371632 1.70232 0 0 0
52 0 -3.13126 2.17037 0 0 0
53 0 -2.17842 1.90586 -0.0419276 0 0
54 -4.56379 -17.4528 -6.01172 -0.15629 -0.111399 -0.0172114
55 0 -0.769075 1.97674 0 0 0
56 0 -0.826365 2.70072 0 0 0
time 5
0 1.5572 9.20997 -3.60973 0.000934124 0 -1.06437
1 6.02794 0 0 -1.39952 0.501782 -0.783455
2 11.7344 0 0 -0.00140297 0 -0.75383
3 8.81138 -0.000450134 -0.000112057 -0.239132 0 0.000157548
4 5.77839 0.000286102 0 -0.160219 0 0.000104504
5 2.23163 -0.000329971 -0.000364065 -0.0789136 0 0
6 11.4725 0 0 -0.292541 -0.177279 0.283073
7 0.615219 -0.993092 -0.8107 2.33805 -0.043347 -0.360756
8 2.24752 0 0 0.0800334 0.130871 -0.0225881
9 1.11936 0 0 0.0688116 0.177523 -0.338114
10 3.71348 -0.102641 0.102191 1.81843 1.37508 0.188412
11 1.72615 0 0 0.0136259 -0.0250639 -0.609754
12 1.21114 0 0 0.00236699 0.0174767 -0.462832
13 3.59919 -1.06012 0.0708882 1.68096 1.17438 0.0612363
14 1.66069 0 0 -0.00987789 0.0219166 -0.64561
15 1.167 0 0 0.0379319 -0.0317196 -0.610266
16 2.18853 0.50104 0.0576591 1.57003 0.153931 0.225781
17 1.29609 0 0 0.0343667 0.0550095 -1.22788
18 1.62202 0.000711441 -0.000470638 0.00441618 -0.0145794 -0.727069
19 1.22241 0 0 -0.00631654 0.017687 -0.370915
20 1.76707 1.27612 0.0366408 1.57002 0.26187 0.261241
21 1.55587 0 0 -0.0324566 0.00304732 -1.18264
22 1.24274 0 0 -0.000599489 0 -0.65185
23 0.784523 0 0 0.00633938 0.00191179 -0.571831
24 -1.93761 5.60916 -3.60973 -0.000932693 0 3.14159
25 6.02794 0 0 0.934872 0.515517 1.43747
26 11.7344 0 0 0.00140278 0 1.01483
27 8.81167 0 0 0.0672041 0 0
28 5.77884 0 0 0.0450267 0 0
29 2.23249 0 0 0.0221774 0 0
30 11.4725 0 0 0.394454 -0.498538 -0.622943
31 0.615812 0.994372 -0.809165 -2.75592 0.374248 0.315717
32 2.24752 0 0 -0.565215 0.197981 0.0658202
33 1.11936 0 0 -0.0549132 0.0237984 0.34886
34 3.71349 0.102639 0.102191 -1.55367 0.888575 -0.0661113
35 1.72615 0 0 -0.0121439 -0.00651265 1.19024
36 1.21112 0 0 0.0118385 0.0130726 1.33339
37 3.5992 1.06012 0.0708885 -1.53154 0.266229 0.170417
38 1.66069 0 0 0.0513655 0.0528512 0.947117
39 1.16699 0 0 0.0358595 0.00548176 0.90441
40 2.18853 -0.50104 0.0576589 -1.55151 0.172885 -0.118539
41 1.29609 0 0 -0.0200505 -0.0423275 0.631309
42 1.62202 -0.000712395 -0.000470161 -0.0284748 -0.0166479 1.25494
43 1.22241 0 0 -0.0073373 0.00175436 1.23076
44 1.76707 -1.27612 0.0366405 -1.52771 0.265811 -0.101504
45 1.55587 0 0 0.0305806 -0.0879844 0.525515
46 1.24273 0 0 0.000599206 0 0.710283
47 0.784531 0 0 -0.00205814 0.00641634 0.880036
48 0 0 0 0 0 0
49 -4.71598 -18.4886 -4.9905 -0.159039 -0.122711 -0.0242884
50 0 -1.49729 1.10846 0.306695 0 0
51 0.540026 -0.371635 1.70233 0 0 0
52 0 -3.13126 2.17037 0 0 0
53 0 -2.17842 1.90586 -0.0419276 0 0
54 -4.58571 -17.863 -5.92321 -0.159039 -0.122711 -0.0242884
55 0 -0.769075 1.97674 0 0 0
56 0 -0.826366 2.70072 0 0 0
time 6
0 1.5572 9.20997 -3.60973 0.000934124 0 -1.06437
1 6.02794 0 0 -1.40175 0.484364 -0.786349
2 11.7344 0 0 -0.00140291 0 -0.723905
3 8.81138 -0.000450134 -0.000112772 -0.26323 0 0.000157843
4 5.77839 0.000286102 0 -0.176364 0 0.000104541
5 2.23163 -0.000329971 -0.000364065 -0.086866 0 0
6 11.4725 0 0 -0.316781 -0.169704 0.291026
7 0.615219 -0.993091 -0.8107 2.33805 -0.0433467 -0.360756
8 2.24752 0 0 0.0800336 0.130871 -0.0225879
9 1.11935 0 0 0.0688115 0.177523 -0.338114
10 3.71348 -0.102641 0.102191 1.81842 1.37508 0.188411
11 1.72615 0 0 0.0136259 -0.0250639 -0.609754
12 1.21114 0 0 0.00236704 0.0174767 -0.462832
13 3.59919 -1.06012 0.0708878 1.68096 1.17438 0.0612365
14 1.66069 0 0 -0.00987789 0.0219166 -0.64561
15 1.167 0 0 0.0379319 -0.0317196 -0.610265
16 2.18853 0.50104 0.0576591 1.57003 0.153931 0.225781
17 1.29609 0 0 0.0343668 0.0550095 -1.22788
18 1.62202 0.000713348 -0.000470161 0.00441623 -0.0145794 -0.72707
19 1.22241 0 0 -0.00631658 0.017687 -0.370915
20 1.76707 1.27612 0.0366409 1.57002 0.26187 0.261241
21 1.55588 0 0 -0.0324566 0.00304732 -1.18264
22 1.24274 0 0 -0.00059948 0 -0.65185
23 0.784523 0 0 0.00633932 0.00191166 -0.571831
24 -1.93761 5.60916 -3.60973 -0.000932693 0 3.14159
25 6.02794 0 0 0.94239 0.50027 1.4449
26 11.7344 0 0 0.00140258 0 0.992199
27 8.81167 0 0 0.0479931 0 0
28 5.77884 0 0 0.0321554 0 0
29 2.23249 0 0 0.0158378 0 0
30 11.4725 0 0 0.376008 -0.485092 -0.632946
31 0.615812 0.994373 -0.809165 -2.75592 0.374249 0.315717
32 2.24752 0 0 -0.565214 0.197981 0.0658203
33 1.11936 0 0 -0.0549132 0.0237983 0.34886
34 3.71349 0.102639 0.102191 -1.55367 0.888575 -0.0661112
35 1.72615 0 0 -0.0121439 -0.00651266 1.19024
36 1.21112 0 0 0.0118385 0.0130726 1.33339
37 3.5992 1.06012 0.0708885 -1.53154 0.266228 0.170417
38 1.66069 0 0 0.0513654 0.0528512 0.947116
39 1.16699 0 0 0.0358595 0.00548181 0.90441
40 2.18853 -0.501041 0.0576589 -1.55151 0.172885 -0.118539
41 1.29609 0 0 -0.0200505 -0.0423274 0.631309
42 1.62202 -0.000714302 -0.000470161 -0.0284748 -0.0166479 1.25494
43 1.22241 0 0 -0.00733728 0.00175434 1.23076
44 1.76707 -1.27612 0.036641 -1.52771 0.265811 -0.101503
45 1.55588 0 0 0.0305806 -0.0879844 0.525515
46 1.24273 0 0 0.000599208 0 0.710283
47 0.784532 0 0 -0.00205814 0.00641635 0.880036
48 0 0 0 0 0 0
49 -4.73527 -18.645 -4.96468 -0.134966 -0.10478 -0.0301768
50 0 -1.50025 1.10082 0.306695 0 0
51 0.540027 -0.371637 1.70232 0 0 0
52 0 -4.04117 2.17037 0 0 0
53 0 -2.24599 1.94401 -0.0209638 0 0
54 -4.619 -17.9973 -5.88399 -0.134966 -0.10478 -0.0301768
55 0 -0.769073 1.97674 0 0 0
56 0 -1.63129 2.91388 -0.325152 0 0
time 7
0 1.5572 9.20997 -3.60973 0.000934124 0 -1.06437
1 6.02794 0 0 -1.4024 0.470222 -0.789559
2 11.7344 0 0 -0.00140284 0 -0.697029
3 8.81138 -0.000451088 -0.00011158 -0.304766 0 0.00015784
4 5.77839 0.000286102 0 -0.204193 0 0.00010453
5 2.23163 -0.000329018 -0.000363827 -0.100573 0 0
6 11.4725 0 0 -0.361047 -0.16268 0.309324
7 0.615221 -0.993091 -0.8107 2.33805 -0.0433467 -0.360756
8 2.24752 0 0 0.0800334 0.130871 -0.0225879
9 1.11936 0 0 0.0688116 0.177523 -0.338114
10 3.71348 -0.102641 0.102191 1.81842 1.37508 0.188411
11 1.72615 0 0 0.0136259 -0.0250639 -0.609754
12 1.21114 0 0 0.00236702 0.0174767 -0.462832
13 3.5992 -1.06012 0.070888 1.68096 1.17438 0.0612365
14 1.66069 0 0 -0.00987787 0.0219166 -0.64561
15 1.167 0 0 0.0379319 -0.0317196 -0.610266
16 2.18853 0.50104 0.0576591 1.57003 0.153931 0.225781
17 1.2961 0 0 0.0343667 0.0550095 -1.22788
18 1.62202 0.000715256 -0.000471592 0.00441625 -0.0145794 -0.727069
19 1.22241 0 0 -0.00631653 0.017687 -0.370915
20 1.76707 1.27612 0.0366408 1.57002 0.261871 0.261241
21 1.55587 0 0 -0.0324566 0.00304727 -1.18264
22 1.24274 0 0 -0.000599452 0 -0.65185
23 0.784524 0 0 0.00633933 0.00191173 -0.571831
24 -1.93761 5.60916 -3.60973 -0.000932693 0 3.14159
25 6.02794 0 0 0.949921 0.48446 1.452
26 11.7344 0 0 0.00140268 0 0.970066
27 8.81167 0 0 0.0132873 0 0
28 5.77884 0 0 0.00890255 0 0
29 2.23249 0 0 0.00438473 0 0
30 11.4725 0 0 0.341202 -0.464735 -0.649231
31 0.615813 0.994372 -0.809166 -2.75592 0.374249 0.315718
32 2.24752 0 0 -0.565214 0.197981 0.0658204
33 1.11936 0 0 -0.0549134 0.0237985 0.34886
34 3.71349 0.102639 0.10219 -1.55367 0.888575 -0.0661112
35 1.72615 0 0 -0.0121438 -0.00651264 1.19024
36 1.21112 0 0 0.0118385 0.0130726 1.33339
37 3.5992 1.06012 0.0708883 -1.53154 0.266229 0.170417
38 1.66069 0 0 0.0415953 0.0601988 0.789881
39 1.16699 0 0 0.0357826 0.0116056 0.74737
40 2.18853 -0.501041 0.0576586 -1.55151 0.172885 -0.118539
41 1.29609 0 0 -0.0200504 -0.0423274 0.631309
42 1.62202 -0.000713348 -0.000470161 -0.0284748 -0.0166479 1.25494
43 1.22241 0 0 -0.00733729 0.00175436 1.23076
44 1.76707 -1.27612 0.0366405 -1.52771 0.265811 -0.101503
45 1.55587 0 0 0.0305806 -0.0879843 0.525515
46 1.24273 0 0 0.000599196 0 0.710283
47 0.784532 0 0 -0.00205814 0.00641634 0.880036
48 0 0 0 0 0 0
49 -4.74486 -18.7993 -4.97857 -0.0982391 -0.0712357 -0.034424
50 0 -1.50715 1.083 0.153348 0 0
51 0.540026 -0.371634 1.70233 0 0 0
52 0 -4.95107 2.17037 0 0 0
53 0 -2.31356 1.98216 0 0 0
54 -4.65729 -18.1175 -5.87613 -0.0982391 -0.0712357 -0.034424
55 0 -0.769075 1.97674 0 0 0
56 0 -2.56341 3.06229 0 0 0
time 8
0 1.5572 9.20997 -3.60973 0.000934124 0 -1.06437
1 6.02794 0 0 -1.4028 0.456826 -0.792736
2 11.7344 0 0 -0.00140284 0 -0.669207
3 8.81139 -0.000450134 -0.000112057 -0.348548 0 0.000157728
4 5.77839 0.000286102 0 -0.233527 0 0.000104209
5 2.23163 -0.000329018 -0.000364065 -0.115021 0 0
6 11.4725 0 0 -0.406661 -0.155383 0.324088
7 0.615219 -0.993091 -0.8107 2.33805 -0.0433469 -0.360756
8 2.24752 0 0 0.0800336 0.130871 -0.0225881
9 1.11935 0 0 0.0688115 0.177523 -0.338113
10 3.71348 -0.102641 0.102191 1.81842 1.37508 0.188411
11 1.72615 0 0 0.0136259 -0.0250639 -0.609754
12 1.21114 0 0 0.00236702 0.0174767 -0.462832
13 3.59919 -1.06012 0.070888 1.68096 1.17438 0.0612367
14 1.66069 0 0 -0.00987787 0.0219166 -0.64561
15 1.167 0 0 0.0379319 -0.0317196 -0.610266
16 2.18853 0.50104 0.0576589 1.57003 0.153931 0.225781
17 1.29609 0 0 0.0343667 0.0550095 -1.22788
18 1.62202 0.000715256 -0.000471592 0.0044162 -0.0145794 -0.727069
19 1.22241 0 0 -0.00631651 0.017687 -0.370915
20 1.76707 1.27612 0.0366406 1.57002 0.26187 0.261241
21 1.55588 0 0 -0.0324566 0.00304734 -1.18264
22 1.24274 0 0 -0.000599414 0 -0.65185
23 0.784522 0 0 0.00633933 0.00191166 -0.571831
24 -1.93761 5.60916 -3.60973 -0.000932693 0 3.14159
25 6.02794 0 0 0.956592 0.469397 1.45934
26 11.7344 0 0 0.00140267 0 0.946865
27 8.81167 0 0 -0.0199451 0 0
28 5.77884 0 0 -0.0133632 0 0
29 2.23249 0 0 -0.006582 0 0
30 11.4725 0 0 0.304294 -0.446508 -0.662486
31 0.615814 0.994373 -0.809165 -2.75592 0.374249 0.315718
32 2.24751 0 0 -0.565214 0.197981 0.0658205
33 1.11936 0 0 -0.0549133 0.0237986 0.34886
34 3.71349 0.102639 0.102191 -1.55367 0.888575 -0.0661109
35 1.72615 0 0 -0.0121439 -0.00651267 1.19024
36 1.21112 0 0 0.0118385 0.0130726 1.33339
37 3.5992 1.06012 0.0708885 -1.53154 0.266229 0.170417
38 1.66069 0 0 0.0307887 0.0659277 0.632516
39 1.16699 0 0 0.0346484 0.0172046 0.590301
40 2.18853 -0.50104 0.0576595 -1.55151 0.172885 -0.118539
41 1.29609 0 0 -0.0200505 -0.0423274 0.631309
42 1.62202 -0.000712395 -0.000469208 -0.0284747 -0.0166479 1.25494
43 1.22241 0 0 -0.00733726 0.00175433 1.23076
44 1.76707 -1.27612 0.0366411 -1.52771 0.265811 -0.101503
45 1.55588 0 0 0.0305806 -0.0879844 0.525515
46 1.24273 0 0 0.000599211 0 0.710283
47 0.784531 0 0 -0.0020581 0.00641633 0.880036
48 0 0 0 0 0 0
49 -4.74777 -18.945 -5.01491 -0.0630265 -0.0357086 -0.0365775
50 0 -1.51208 1.07027 0 0 0
51 0.540026 -0.371635 1.70233 0 0 0
52 0 -4.95108 2.17037 0 0 0
53 0 -2.31356 1.98216 0 0 0
54 -4.69037 -18.2309 -5.88955 -0.0630265 -0.0357086 -0.0365775
55 0 -0.769077 1.97674 0 0 0
56 0 -2.56341 3.06229 0 0 0
time 9
0 1.5572 9.20997 -3.60973 0.000934124 0 -1.06437
1 6.02794 0 0 -1.40375 0.443626 -0.79533
2 11.7344 0 0 -0.00140291 0 -0.639947
3 8.81139 -0.000449181 -0.000112534 -0.378835 0 0.000157993
4 5.77839 0.000287056 0 -0.253819 0 0.000104228
5 2.23163 -0.000329018 -0.000364304 -0.125015 0 0
6 11.4725 0 0 -0.435669 -0.151124 0.323543
7 0.615217 -0.993091 -0.8107 2.33805 -0.0433468 -0.360756
8 2.24752 0 0 0.0800335 0.130871 -0.022588
9 1.11936 0 0 0.0688115 0.177523 -0.338114
10 3.71348 -0.102641 0.102191 1.81842 1.37508 0.188411
11 1.72615 0 0 0.0136259 -0.0250639 -0.609754
12 1.21114 0 0 0.00236705 0.0174767 -0.462832
13 3.59919 -1.06012 0.0708882 1.68096 1.17438 0.0612363
14 1.66069 0 0 -0.00987788 0.0219166 -0.64561
15 1.167 0 0 0.0379319 -0.0317196 -0.610266
16 2.18852 0.50104 0.0576591 1.57003 0.153931 0.225781
17 1.29609 0 0 0.0343668 0.0550095 -1.22788
18 1.62202 0.000715256 -0.000471115 0.00441624 -0.0145794 -0.727069
19 1.22241 0 0 -0.00631652 0.017687 -0.370915
20 1.76707 1.27612 0.0366411 1.57002 0.26187 0.261241
21 1.55588 0 0 -0.0324566 0.00304726 -1.18264
22 1.24274 0 0 -0.00059948 0 -0.65185
23 0.784523 0 0 0.00633935 0.0019117 -0.571831
24 -1.93761 5.60916 -3.60973 -0.000932693 0 3.14159
25 6.02794 0 0 0.961352 0.45756 1.46612
26 11.7344 0 0 0.00140254 0 0.923552
27 8.81167 0 0 -0.0375059 0 0
28 5.77884 0 0 -0.0251288 0 0
29 2.23249 0 0 -0.0123769 0 0
30 11.4725 0 0 0.279058 -0.436575 -0.662178
31 0.615811 0.994372 -0.809165 -2.75592 0.374249 0.315718
32 2.24752 0 0 -0.565214 0.197981 0.0658203
33 1.11936 0 0 -0.0549132 0.0237987 0.34886
34 3.71348 0.102639 0.102191 -1.55366 0.888575 -0.0661107
35 1.72615 0 0 -0.0121439 -0.00651264 1.19024
36 1.21112 0 0 0.0118385 0.0130726 1.33339
37 3.5992 1.06012 0.0708879 -1.53154 0.266229 0.170417
38 1.66069 0 0 0.0307888 0.0659277 0.632516
39 1.16699 0 0 0.0346484 0.0172045 0.590301
40 2.18853 -0.501041 0.0576588 -1.55151 0.172885 -0.118539
41 1.29609 0 0 -0.0200504 -0.0423275 0.631309
42 1.62202 -0.000711441 -0.000469208 -0.0284748 -0.0166479 1.25494
43 1.22241 0 0 -0.00733728 0.00175437 1.23076
44 1.76707 -1.27612 0.0366406 -1.52771 0.265811 -0.101503
45 1.55588 0 0 0.0305806 -0.0879843 0.525515
46 1.24273 0 0 0.000599172 0 0.710283
47 0.784531 0 0 -0.00205812 0.00641636 0.880036
48 0 0 0 0 0 0
49 -4.74705 -19.0755 -5.05647 -0.0434972 -0.0118294 -0.0361848
50 0 -1.51208 1.07027 0 0 0
51 0.540026 -0.371635 1.70233 0 0 0
52 0 -4.95107 2.17037 0 0 0
53 0 -2.31355 1.98216 0 0 0
54 -4.71037 -18.3437 -5.91745 -0.0434972 -0.0118294 -0.0361848
55 0 -0.769075 1.97674 0 0 0
56 0 -2.56341 3.06229 0 0 0
time 10
0 1.5572 9.20997 -3.60973 0.000934124 0 -1.06437
1 6.02794 0 0 -1.40478 0.430788 -0.797691
2 11.7344 0 0 -0.00140283 0 -0.610191
3 8.81138 -0.000450134 -0.000112295 -0.396587 0 0.000158102
4 5.77839 0.000286102 0 -0.265713 0 0.000104211
5 2.23163 -0.000329971 -0.000363827 -0.130873 0 0
6 11.4725 0 0 -0.449557 -0.153701 0.306606
7 0.615219 -0.993091 -0.8107 2.33805 -0.0433469 -0.360756
8 2.24752 0 0 0.0800335 0.130871 -0.0225881
9 1.11936 0 0 0.0688115 0.177523 -0.338114
10 3.71348 -0.102641 0.102191 1.81842 1.37508 0.188411
11 1.72615 0 0 0.0136259 -0.0250639 -0.609754
12 1.21114 0 0 0.00236701 0.0174767 -0.462832
13 3.59919 -1.06012 0.0708883 1.68096 1.17438 0.0612361
14 1.66069 0 0 -0.00987786 0.0219166 -0.64561
15 1.167 0 0 0.0379319 -0.0317196 -0.610265
16 2.18852 0.50104 0.0576591 1.57003 0.153931 0.225781
17 1.29609 0 0 0.0343667 0.0550094 -1.22788
18 1.62202 0.000713348 -0.000472069 0.00441617 -0.0145794 -0.727069
19 1.22241 0 0 -0.00631651 0.0176869 -0.370915
20 1.76707 1.27612 0.0366409 1.57002 0.26187 0.261241
21 1.55588 0 0 -0.0324566 0.00304732 -1.18264
22 1.24274 0 0 -0.000599423 0 -0.65185
23 0.784523 0 0 0.00633939 0.00191168 -0.571831
24 -1.93761 5.60916 -3.60973 -0.000932693 0 3.14159
25 6.02794 0 0 0.96427 0.449736 1.47108
26 11.7344 0 0 0.00140277 0 0.902716
27 8.81167 0 0 -0.0413214 0 0
28 5.77884 0 0 -0.0276854 0 0
29 2.23249 0 0 -0.013636 0 0
30 11.4725 0 0 0.263121 -0.43355 -0.645411
31 0.615812 0.994372 -0.809165 -2.75592 0.374248 0.315717
32 2.24752 0 0 -0.565214 0.197981 0.0658204
33 1.11936 0 0 -0.0549133 0.0237985 0.34886
34 3.71349 0.102639 0.102191 -1.55367 0.888575 -0.0661112
35 1.72615 0 0 -0.0121439 -0.00651265 1.19024
36 1.21112 0 0 0.0118385 0.0130726 1.33339
37 3.5992 1.06012 0.0708884 -1.53154 0.266229 0.170417
38 1.66069 0 0 0.0307887 0.0659277 0.632516
39 1.16699 0 0 0.0346484 0.0172046 0.590301
40 2.18853 -0.50104 0.0576595 -1.55151 0.172885 -0.118539
41 1.29609 0 0 -0.0200505 -0.0423274 0.631309
42 1.62202 -0.000714302 -0.000469685 -0.0284748 -0.0166479 1.25494
43 1.22241 0 0 -0.00733727 0.00175436 1.23076
44 1.76707 -1.27612 0.0366404 -1.52771 0.265811 -0.101503
45 1.55588 0 0 0.0305806 -0.0879844 0.525515
46 1.24273 0 0 0.000599204 0 0.710283
47 0.784531 0 0 -0.00205818 0.00641633 0.880036
48 0 0 0 0 0 0
49 -4.74573 -19.1843 -5.08598 -0.0420094 0.0016975 -0.0321545
50 0 -1.51208 1.07027 0 0 0
51 0.540026 -0.371635 1.70233 0 0 0
52 0 -4.95108 2.17037 0 0 0
53 0 -2.31355 1.98216 0 0 0
54 -4.7236 -18.4507 -5.94594 -0.0420094 0.0016975 -0.0321545
55 0 -0.769075 1.97674 0 0 0
56 0 -2.56341 3.06229 0 0 0
time 11
0 1.5572 9.20997 -3.60973 0.000934124 0 -1.06437
1 6.02794 0 0 -1.40533 0.419855 -0.799958
2 11.7344 0 0 -0.00140272 0 -0.58425
3 8.81138 -0.000450134 -0.000112057 -0.41069 0 0.000157723
4 5.77839 0.000286102 0 -0.275163 0 0.000104058
5 2.23164 -0.000329018 -0.00036335 -0.135528 0 0
6 11.4725 0 0 -0.459685 -0.160253 0.286336
7 0.615221 -0.993091 -0.8107 2.33805 -0.0433469 -0.360756
8 2.24752 0 0 0.0800334 0.130871 -0.0225879
9 1.11936 0 0 0.0688114 0.177523 -0.338114
10 3.71348 -0.102641 0.102191 1.81842 1.37508 0.188411
11 1.72615 0 0 0.0136259 -0.0250639 -0.609754
12 1.21114 0 0 0.00236705 0.0174767 -0.462832
13 3.5992 -1.06012 0.0708882 1.68096 1.17438 0.0612362
14 1.66069 0 0 -0.00987792 0.0219166 -0.64561
15 1.167 0 0 0.0379319 -0.0317196 -0.610266
16 2.18853 0.50104 0.0576591 1.57003 0.153931 0.225781
17 1.29609 0 0 0.0343666 0.0550095 -1.22788
18 1.62202 0.000713348 -0.000472069 0.00441629 -0.0145795 -0.727069
19 1.22241 0 0 -0.00631659 0.0176871 -0.370915
20 1.76707 1.27612 0.0366409 1.57002 0.26187 0.261241
21 1.55588 0 0 -0.0324566 0.00304733 -1.18264
22 1.24274 0 0 -0.000599499 0 -0.65185
23 0.784522 0 0 0.00633934 0.00191185 -0.571831
24 -1.93761 5.60916 -3.60973 -0.000932693 0 3.14159
25 6.02794 0 0 0.96615 0.444651 1.47419
26 11.7344 0 0 0.00140265 0 0.886806
27 8.81167 0 0 -0.042161 0 0
28 5.77884 0 0 -0.0282479 0 0
29 2.23249 0 0 -0.0139131 0 0
30 11.4725 0 0 0.248982 -0.431826 -0.624225
31 0.615812 0.994373 -0.809166 -2.75592 0.374249 0.315718
32 2.24752 0 0 -0.565214 0.197981 0.0658204
33 1.11936 0 0 -0.0549136 0.0237986 0.34886
34 3.71349 0.10264 0.102191 -1.55367 0.888575 -0.066111
35 1.72615 0 0 -0.012144 -0.00651273 1.19024
36 1.21112 0 0 0.0118384 0.0130726 1.33339
37 3.5992 1.06012 0.070888 -1.53154 0.266229 0.170417
38 1.66069 0 0 0.0307887 0.0659278 0.632516
39 1.16699 0 0 0.0346484 0.0172045 0.590301
40 2.18853 -0.50104 0.0576587 -1.55151 0.172885 -0.118539
41 1.29609 0 0 -0.0200504 -0.0423275 0.631309
42 1.62201 -0.000713348 -0.000470161 -0.0284748 -0.0166479 1.25494
43 1.22241 0 0 -0.0073373 0.00175439 1.23076
44 1.76707 -1.27612 0.0366398 -1.52771 0.265811 -0.101503
45 1.55587 0 0 0.0305806 -0.0879843 0.525515
46 1.24273 0 0 0.000599219 0 0.710283
47 0.784532 0 0 -0.00205816 0.00641633 0.880036
48 0 0 0 0 0 0
49 -4.74237 -19.2653 -5.10368 -0.0467592 0.0126635 -0.0258797
50 0 -1.51208 1.07027 0 0 0
51 0.540026 -0.371632 1.70233 0 0 0
52 0 -4.95107 2.17037 0 0 0
53 0 -2.31355 1.98216 0 0 0
54 -4.73441 -18.5354 -5.96704 -0.0467592 0.0126635 -0.0258797
55 0 -0.769077 1.97674 0 0 0
56 0 -2.56341 3.06229 0 0 0
time 12
0 1.5572 9.20997 -3.60973 0.000934124 0 -1.06437
1 6.02794 0 0 -1.4059 0.412807 -0.801193
2 11.7344 0 0 -0.00140272 0 -0.5672
3 8.81138 -0.000450134 -0.000112057 -0.416902 0 0.000157803
4 5.77839 0.000287056 0 -0.279325 0 0.000104002
5 2.23164 -0.000329018 -0.000363827 -0.137578 0 0
6 11.4725 0 0 -0.46337 -0.165777 0.272683
7 0.615221 -0.993092 -0.8107 2.33805 -0.0433467 -0.360756
8 2.24752 0 0 0.0800335 0.130871 -0.022588
9 1.11936 0 0 0.0688116 0.177523 -0.338114
10 3.71348 -0.102641 0.102191 1.81842 1.37508 0.188411
11 1.72615 0 0 0.0136259 -0.0250639 -0.609754
12 1.21114 0 0 0.002367 0.0174767 -0.462832
13 3.59919 -1.06012 0.0708882 1.68096 1.17438 0.0612366
14 1.66069 0 0 -0.00987789 0.0219165 -0.64561
15 1.167 0 0 0.0379319 -0.0317196 -0.610265
16 2.18852 0.50104 0.0576591 1.57003 0.153931 0.225781
17 1.29609 0 0 0.0343668 0.0550095 -1.22788
18 1.62202 0.000715256 -0.000472069 0.00441617 -0.0145794 -0.727069
19 1.22241 0 0 -0.0063165 0.0176871 -0.370915
20 1.76707 1.27612 0.0366414 1.57002 0.26187 0.261241
21 1.55588 0 0 -0.0324567 0.00304725 -1.18264
22 1.24273 0 0 -0.000599414 0 -0.65185
23 0.784524 0 0 0.00633935 0.00191176 -0.571831
24 -1.93761 5.60916 -3.60973 -0.000932693 0 3.14159
25 6.02794 0 0 0.967249 0.441467 1.47639
26 11.7344 0 0 0.00140272 0 0.875714
27 8.81167 0 0 -0.0391809 0 0
28 5.77884 0 0 -0.0262513 0 0
29 2.23249 0 0 -0.0129296 0 0
30 11.4725 0 0 0.242394 -0.429961 -0.608964
31 0.615812 0.994372 -0.809165 -2.75592 0.374249 0.315718
32 2.24752 0 0 -0.565214 0.197981 0.0658203
33 1.11936 0 0 -0.0549133 0.0237986 0.34886
34 3.71349 0.102639 0.102191 -1.55366 0.888575 -0.0661109
35 1.72615 0 0 -0.0121439 -0.00651265 1.19024
36 1.21112 0 0 0.0118385 0.0130726 1.33339
37 3.5992 1.06012 0.0708878 -1.53154 0.266229 0.170417
38 1.66069 0 0 0.0307887 0.0659277 0.632516
39 1.16699 0 0 0.0346484 0.0172046 0.590301
40 2.18853 -0.50104 0.0576581 -1.55151 0.172885 -0.118539
41 1.29609 0 0 -0.0200505 -0.0423274 0.631309
42 1.62202 -0.000714302 -0.000469685 -0.0284748 -0.0166479 1.25494
43 1.22241 0 0 -0.00733726 0.00175438 1.23076
44 1.76707 -1.27612 0.0366403 -1.52771 0.265811 -0.101503
45 1.55588 0 0 0.0305807 -0.0879843 0.525515
46 1.24273 0 0 0.000599191 0 0.710283
47 0.784531 0 0 -0.00205813 0.00641635 0.880036
48 0 0 0 0 0 0
49 -4.73431 -19.3201 -5.12115 -0.050672 0.0171825 -0.0206339
50 0 -1.51208 1.07027 0 0 0
51 0.540026 -0.371637 1.70233 0 0 0
52 0 -4.95108 2.17037 0 0 0
53 0 -2.31355 1.98216 0 0 0
54 -4.7342 -18.5935 -5.98731 -0.050672 0.0171825 -0.0206339
55 0 -0.769077 1.97674 0 0 0
56 0 -2.56341 3.06229 0 0 0
time 13
0 1.5572 9.20997 -3.60973 0.000934124 0 -1.06437
1 6.02794 0 0 -1.40677 0.409227 -0.801261
2 11.7344 0 0 -0.00140281 0 -0.558864
3 8.81138 -0.000449181 -0.000112295 -0.413306 0 0.000157863
4 5.77839 0.000286102 0 -0.276915 0 0.000104087
5 2.23163 -0.000329018 -0.000364304 -0.136391 0 0
6 11.4725 0 0 -0.459115 -0.168898 0.267666
7 0.615219 -0.993091 -0.8107 2.33805 -0.0433469 -0.360756
8 2.24752 0 0 0.0800335 0.130871 -0.022588
9 1.11935 0 0 0.0688115 0.177523 -0.338114
10 3.71348 -0.102641 0.102191 1.81843 1.37508 0.188412
11 1.72615 0 0 0.0136259 -0.0250639 -0.609754
12 1.21114 0 0 0.00236706 0.0174767 -0.462832
13 3.59919 -1.06012 0.070888 1.68096 1.17438 0.0612363
14 1.66069 0 0 -0.00987792 0.0219167 -0.64561
15 1.167 0 0 0.0379319 -0.0317197 -0.610266
16 2.18853 0.50104 0.0576588 1.57003 0.153931 0.225781
17 1.29609 0 0 0.0343667 0.0550095 -1.22788
18 1.62202 0.000713348 -0.000471592 0.00441629 -0.0145795 -0.727069
19 1.22241 0 0 -0.00631661 0.0176869 -0.370915
20 1.76707 1.27612 0.0366403 1.57002 0.26187 0.261241
21 1.55588 0 0 -0.0324566 0.00304722 -1.18264
22 1.24274 0 0 -0.000599423 0 -0.65185
23 0.784522 0 0 0.0063394 0.00191169 -0.571831
24 -1.93761 5.60916 -3.60973 -0.000932693 0 3.14159
25 6.02794 0 0 0.967831 0.439517 1.47809
26 11.7344 0 0 0.00140263 0 0.86857
27 8.81167 0 0 -0.031013 0 0
28 5.77884 0 0 -0.0207787 0 0
29 2.23249 0 0 -0.0102343 0 0
30 11.4725 0 0 0.245567 -0.42749 -0.602031
31 0.615813 0.994372 -0.809165 -2.75592 0.374249 0.315718
32 2.24752 0 0 -0.565215 0.197981 0.0658204
33 1.11936 0 0 -0.0549133 0.0237986 0.34886
34 3.71349 0.102639 0.102191 -1.55366 0.888575 -0.066111
35 1.72615 0 0 -0.0121438 -0.00651267 1.19024
36 1.21112 0 0 0.0118385 0.0130726 1.33339
37 3.5992 1.06012 0.070888 -1.53154 0.266228 0.170417
38 1.6607 0 0 0.0307887 0.0659278 0.632516
39 1.16699 0 0 0.0346484 0.0172046 0.590301
40 2.18853 -0.50104 0.0576589 -1.55151 0.172885 -0.118539
41 1.29609 0 0 -0.0200504 -0.0423275 0.631309
42 1.62201 -0.000713348 -0.000469208 -0.0284748 -0.016648 1.25494
43 1.22241 0 0 -0.00733723 0.00175431 1.23076
44 1.76707 -1.27612 0.0366408 -1.52771 0.265811 -0.101503
45 1.55588 0 0 0.0305806 -0.0879843 0.525515
46 1.24273 0 0 0.000599211 0 0.710283
47 0.784531 0 0 -0.00205817 0.00641632 0.880036
48 0 0 0 0 0 0
49 -4.7228 -19.3542 -5.13822 -0.0520384 0.0134376 -0.0172135
50 0 -1.51208 1.07027 0 0 0
51 0.540026 -0.371635 1.70233 0 0 0
52 0 -4.95108 2.17037 0 0 0
53 0 -2.31356 1.98216 0 0 0
54 -4.72197 -18.6288 -6.00542 -0.0520384 0.0134376 -0.0172135
55 0 -0.769075 1.97674 0 0 0
56 0 -2.56341 3.06229 0 0 0
time 14
0 1.5572 9.20997 -3.60973 0.000934124 0 -1.06437
1 6.02794 0 0 -1.40772 0.408136 -0.800632
2 11.7344 0 0 -0.00140286 0 -0.556323
3 8.81139 -0.000450134 -0.000112534 -0.40316 0 0.000157902
4 5.77839 0.000286102 0 -0.270117 0 0.000104068
5 2.23164 -0.000329971 -0.000364304 -0.133043 0 0
6 11.4725 0 0 -0.449354 -0.171676 0.266613
7 0.615221 -0.993091 -0.8107 2.33805 -0.0433469 -0.360756
8 2.24752 0 0 0.0800335 0.130871 -0.0225881
9 1.11936 0 0 0.0688114 0.177523 -0.338114
10 3.71348 -0.102641 0.102191 1.81842 1.37508 0.188412
11 1.72615 0 0 0.0136259 -0.0250639 -0.609754
12 1.21114 0 0 0.00236699 0.0174768 -0.462832
13 3.59919 -1.06012 0.0708879 1.68096 1.17438 0.0612363
14 1.66069 0 0 -0.00987787 0.0219166 -0.64561
15 1.167 0 0 0.0379319 -0.0317196 -0.610266
16 2.18853 0.50104 0.0576587 1.57003 0.153931 0.225781
17 1.29609 0 0 0.0343668 0.0550095 -1.22788
18 1.62202 0.000713348 -0.000471592 0.00441624 -0.0145794 -0.727069
19 1.22241 0 0 -0.00631658 0.0176869 -0.370915
20 1.76707 1.27612 0.0366409 1.57002 0.26187 0.261241
21 1.55588 0 0 -0.0324566 0.00304726 -1.18264
22 1.24274 0 0 -0.000599461 0 -0.65185
23 0.784522 0 0 0.00633929 0.00191175 -0.571831
24 -1.93761 5.60916 -3.60973 -0.000932693 0 3.14159
25 6.02794 0 0 0.967919 0.438831 1.47917
26 11.7344 0 0 0.00140272 0 0.864336
27 8.81167 0 0 -0.0186933 0 0
28 5.77884 0 0 -0.0125245 0 0
29 2.23249 0 0 -0.00616876 0 0
30 11.4725 0 0 0.254773 -0.424949 -0.598327
31 0.615812 0.994373 -0.809166 -2.75592 0.374249 0.315718
32 2.24752 0 0 -0.565214 0.197981 0.0658203
33 1.11936 0 0 -0.0549134 0.0237986 0.34886
34 3.71349 0.10264 0.102191 -1.55367 0.888575 -0.0661113
35 1.72615 0 0 -0.0121439 -0.00651266 1.19024
36 1.21112 0 0 0.0118386 0.0130726 1.33339
37 3.5992 1.06012 0.0708879 -1.53154 0.266229 0.170417
38 1.66069 0 0 0.0307887 0.0659277 0.632515
39 1.16699 0 0 0.0346484 0.0172046 0.590301
40 2.18853 -0.50104 0.0576593 -1.55151 0.172885 -0.118539
41 1.29609 0 0 -0.0200504 -0.0423274 0.631309
42 1.62202 -0.000714302 -0.000469685 -0.0284748 -0.0166479 1.25494
43 1.22241 0 0 -0.00733724 0.00175435 1.23076
44 1.76707 -1.27612 0.0366398 -1.52771 0.265811 -0.101503
45 1.55588 0 0 0.0305806 -0.0879843 0.525515
46 1.24273 0 0 0.00059922 0 0.710283
47 0.784531 0 0 -0.00205813 0.00641635 0.880036
48 0 0 0 0 0 0
49 -4.70908 -19.3726 -5.15468 -0.0534843 0.00429958 -0.0141981
50 0 -1.51208 1.07027 0 0 0
51 0.540026 -0.371635 1.70232 0 0 0
52 0 -4.95107 2.17037 0 0 0
53 0 -2.31356 1.98216 0 0 0
54 -4.70254 -18.6486 -6.02299 -0.0534843 0.00429958 -0.0141981
55 0 -0.769077 1.97674 0 0 0
56 0 -2.56341 3.06229 0 0 0
time 15
0 1.5572 9.20997 -3.60973 0.000934124 0 -1.06437
1 6.02794 0 0 -1.40863 0.408708 -0.799632
2 11.7344 0 0 -0.00140274 0 -0.557613
3 8.81139 -0.000448227 -0.000112772 -0.390181 0 0.000157909
4 5.77839 0.000287056 0 -0.261422 0 0.000104148
5 2.23163 -0.000329018 -0.000363827 -0.12876 0 0
6 11.4725 0 0 -0.437482 -0.174071 0.268476
7 0.615221 -0.993091 -0.8107 2.33805 -0.0433469 -0.360756
8 2.24752 0 0 0.0800334 0.130871 -0.0225881
9 1.11935 0 0 0.0688115 0.177523 -0.338114
10 3.71348 -0.102641 0.102191 1.81843 1.37508 0.188411
11 1.72615 0 0 0.0136259 -0.0250639 -0.609754
12 1.21114 0 0 0.002367 0.0174767 -0.462832
13 3.59919 -1.06012 0.070888 1.68096 1.17438 0.0612361
14 1.66069 0 0 -0.00987789 0.0219166 -0.64561
15 1.167 0 0 0.0379319 -0.0317196 -0.610265
16 2.18852 0.50104 0.0576589 1.57003 0.153931 0.225781
17 1.29609 0 0 0.0343667 0.0550095 -1.22788
18 1.62202 0.000713348 -0.000471115 0.00441618 -0.0145794 -0.727069
19 1.22241 0 0 -0.00631656 0.0176869 -0.370915
20 1.76707 1.27612 0.0366411 1.57002 0.26187 0.261241
21 1.55588 0 0 -0.0324566 0.00304727 -1.18264
22 1.24274 0 0 -0.000599489 0 -0.65185
23 0.784523 0 0 0.00633933 0.00191179 -0.571831
24 -1.93761 5.60916 -3.60973 -0.000932693 0 3.14159
25 6.02794 0 0 0.967806 0.438657 1.48001
26 11.7344 0 0 0.0014027 0 0.86155
27 8.81167 0 0 -0.00487102 0 0
28 5.77884 0 0 -0.0032635 0 0
29 2.23249 0 0 -0.00160739 0 0
30 11.4725 0 0 0.266573 -0.422244 -0.596789
31 0.615811 0.994372 -0.809165 -2.75592 0.374249 0.315718
32 2.24752 0 0 -0.565214 0.197981 0.0658203
33 1.11936 0 0 -0.0549134 0.0237985 0.34886
34 3.71349 0.10264 0.102191 -1.55367 0.888575 -0.0661112
35 1.72615 0 0 -0.0121439 -0.0065127 1.19024
36 1.21112 0 0 0.0118384 0.0130726 1.33339
37 3.5992 1.06012 0.0708877 -1.53154 0.266229 0.170417
38 1.66069 0 0 0.0307888 0.0659277 0.632516
39 1.16699 0 0 0.0346484 0.0172046 0.590301
40 2.18853 -0.50104 0.0576594 -1.55151 0.172885 -0.118539
41 1.29609 0 0 -0.0200504 -0.0423275 0.631309
42 1.62202 -0.000713348 -0.000470161 -0.0284748 -0.0166479 1.25494
43 1.22241 0 0 -0.00733733 0.00175436 1.23076
44 1.76707 -1.27612 0.0366404 -1.52771 0.265811 -0.101503
45 1.55588 0 0 0.0305806 -0.0879844 0.525515
46 1.24273 0 0 0.000599196 0 0.710283
47 0.784532 0 0 -0.00205816 0.00641631 0.880036
48 0 0 0 0 0 0
49 -4.6944 -19.3807 -5.17034 -0.0544385 -0.00708641 -0.0115359
50 0 -1.51208 1.07027 0 0 0
51 0.540026 -0.371634 1.70233 0 0 0
52 0 -4.95107 2.17037 0 0 0
53 0 -2.31355 1.98216 0 0 0
54 -4.6799 -18.6576 -6.03934 -0.0544385 -0.00708641 -0.0115359
55 0 -0.769077 1.97674 0 0 0
56 0 -2.56341 3.06229 0 0 0
time 16
0 1.5572 9.20997 -3.60973 0.000934124 0 -1.06437
1 6.02794 0 0 -1.40938 0.410076 -0.79859
2 11.7344 0 0 -0.0014028 0 -0.560673
3 8.81139 -0.000449181 -0.000112057 -0.378102 0 0.000158214
4 5.77839 0.000287056 0 -0.253328 0 0.000104418
5 2.23164 -0.000328064 -0.000363827 -0.124774 0 0
6 11.4725 0 0 -0.426889 -0.176067 0.272171
7 0.615221 -0.993092 -0.8107 2.33805 -0.0433467 -0.360756
8 2.24752 0 0 0.0800335 0.130871 -0.0225879
9 1.11936 0 0 0.0688115 0.177523 -0.338114
10 3.71348 -0.102641 0.102191 1.81842 1.37508 0.188412
11 1.72615 0 0 0.0136259 -0.0250639 -0.609754
12 1.21114 0 0 0.00236702 0.0174767 -0.462832
13 3.5992 -1.06012 0.070888 1.68096 1.17438 0.0612365
14 1.66069 0 0 -0.00987788 0.0219166 -0.64561
15 1.167 0 0 0.0379319 -0.0317196 -0.610266
16 2.18853 0.50104 0.057659 1.57003 0.153931 0.225781
17 1.29609 0 0 0.0343667 0.0550095 -1.22788
18 1.62202 0.000715256 -0.000471592 0.00441627 -0.0145794 -0.727069
19 1.22241 0 0 -0.00631653 0.017687 -0.370915
20 1.76707 1.27612 0.036641 1.57002 0.26187 0.261241
21 1.55587 0 0 -0.0324567 0.00304735 -1.18264
22 1.24274 0 0 -0.000599518 0 -0.65185
23 0.784524 0 0 0.00633937 0.00191164 -0.571831
24 -1.93761 5.60916 -3.60973 -0.000932693 0 3.14159
25 6.02794 0 0 0.967575 0.438897 1.48048
26 11.7344 0 0 0.00140265 0 0.860368
27 8.81167 0 0 0.00729145 0 0
28 5.77884 0 0 0.00488529 0 0
29 2.23249 0 0 0.00240618 0 0
30 11.4725 0 0 0.277521 -0.419266 -0.597161
31 0.615813 0.994373 -0.809166 -2.75592 0.374248 0.315718
32 2.24752 0 0 -0.565214 0.197981 0.0658204
33 1.11936 0 0 -0.0549133 0.0237986 0.34886
34 3.71348 0.10264 0.102191 -1.55367 0.888575 -0.0661111
35 1.72615 0 0 -0.0121439 -0.00651265 1.19024
36 1.21112 0 0 0.0118385 0.0130726 1.33339
37 3.5992 1.06012 0.0708884 -1.53154 0.266229 0.170417
38 1.66069 0 0 0.0307886 0.0659277 0.632516
39 1.16699 0 0 0.0346484 0.0172046 0.590301
40 2.18853 -0.50104 0.057659 -1.55151 0.172885 -0.118539
41 1.29609 0 0 -0.0200505 -0.0423274 0.631309
42 1.62202 -0.000713348 -0.000470161 -0.0284748 -0.0166479 1.25494
43 1.22241 0 0 -0.00733724 0.00175432 1.23076
44 1.76707 -1.27612 0.0366405 -1.52771 0.265811 -0.101503
45 1.55587 0 0 0.0305806 -0.0879844 0.525515
46 1.24273 0 0 0.000599192 0 0.710283
47 0.784531 0 0 -0.0020581 0.00641636 0.880036
48 0 0 0 0 0 0
49 -4.67998 -19.3838 -5.18502 -0.0543299 -0.0175753 -0.00917507
50 0 -1.51208 1.07027 0 0 0
51 0.540026 -0.371635 1.70233 0 0 0
52 0 -4.95107 2.17037 0 0 0
53 0 -2.31356 1.98216 0 0 0
54 -4.65807 -18.6606 -6.05382 -0.0543299 -0.0175753 -0.00917506
55 0 -0.769075 1.97674 0 0 0
56 0 -2.56341 3.06229 0 0 0
time 17
0 1.5572 9.20997 -3.60973 0.000934124 0 -1.06437
1 6.02794 0 0 -1.40986 0.411382 -0.797826
2 11.7344 0 0 -0.00140274 0 -0.563447
3 8.81139 -0.000450134 -0.000112534 -0.370654 0 0.000158168
4 5.77839 0.000286102 0 -0.248338 0 0.000104428
5 2.23164 -0.000329971 -0.000363827 -0.122316 0 0
6 11.4725 0 0 -0.42097 -0.177636 0.276616
7 0.615217 -0.993091 -0.8107 2.33805 -0.0433468 -0.360756
8 2.24752 0 0 0.0800336 0.130871 -0.0225879
9 1.11935 0 0 0.0688114 0.177523 -0.338114
10 3.71348 -0.102641 0.102191 1.81843 1.37508 0.188412
11 1.72615 0 0 0.0136259 -0.0250639 -0.609754
12 1.21114 0 0 0.002367 0.0174767 -0.462832
13 3.59919 -1.06012 0.0708882 1.68096 1.17438 0.0612365
14 1.66069 0 0 -0.00987788 0.0219166 -0.64561
15 1.167 0 0 0.0379319 -0.0317196 -0.610266
16 2.18852 0.501039 0.0576591 1.57003 0.153931 0.225781
17 1.29609 0 0 0.0343668 0.0550094 -1.22788
18 1.62202 0.000713348 -0.000471115 0.00441625 -0.0145794 -0.727069
19 1.22241 0 0 -0.00631655 0.017687 -0.370915
20 1.76707 1.27612 0.0366409 1.57002 0.26187 0.261241
21 1.55588 0 0 -0.0324567 0.00304726 -1.18264
22 1.24273 0 0 -0.00059948 0 -0.65185
23 0.784523 0 0 0.00633935 0.00191173 -0.571831
24 -1.93761 5.60916 -3.60973 -0.000932693 0 3.14159
25 6.02794 0 0 0.967515 0.438815 1.48091
26 11.7344 0 0 0.00140275 0 0.859372
27 8.81167 0 0 0.0150115 0 0
28 5.77884 0 0 0.0100576 0 0
29 2.23249 0 0 0.00495387 0 0
30 11.4725 0 0 0.284181 -0.415915 -0.598398
31 0.615815 0.994372 -0.809165 -2.75592 0.374249 0.315718
32 2.24752 0 0 -0.565214 0.197981 0.0658204
33 1.11936 0 0 -0.0549131 0.0237984 0.34886
34 3.71349 0.10264 0.102191 -1.55367 0.888575 -0.0661111
35 1.72615 0 0 -0.0121438 -0.00651264 1.19024
36 1.21112 0 0 0.0118385 0.0130726 1.33339
37 3.5992 1.06012 0.0708883 -1.53154 0.266228 0.170417
38 1.66069 0 0 0.0307886 0.0659277 0.632516
39 1.16699 0 0 0.0346484 0.0172046 0.590301
40 2.18853 -0.50104 0.0576589 -1.55151 0.172885 -0.118539
41 1.29609 0 0 -0.0200505 -0.0423275 0.631309
42 1.62202 -0.000713348 -0.000470161 -0.0284748 -0.016648 1.25494
43 1.22241 0 0 -0.00733723 0.0017544 1.23076
44 1.76707 -1.27612 0.0366405 -1.52771 0.265811 -0.101503
45 1.55588 0 0 0.0305806 -0.0879843 0.525515
46 1.24273 0 0 0.000599179 0 0.710283
47 0.784531 0 0 -0.00205815 0.00641636 0.880036
48 0 0 0 0 0 0
49 -4.66708 -19.3871 -5.19852 -0.0525875 -0.0240221 -0.00706387
50 0 -1.51208 1.07027 0 0 0
51 0.540026 -0.371634 1.70232 0 0 0
52 0 -4.95107 2.17037 0 0 0
53 0 -2.31355 1.98216 0 0 0
54 -4.64112 -18.6624 -6.06595 -0.0525875 -0.0240221 -0.00706387
55 0 -0.769072 1.97674 0 0 0
56 0 -2.56341 3.06229 0 0 0
time 18
0 1.5572 9.20997 -3.60973 0.000934124 0 -1.06437
1 6.02794 0 0 -1.41007 0.411901 -0.7975
2 11.7344 0 0 -0.00140292 0 -0.564557
3 8.81138 -0.000449181 -0.000113487 -0.369231 0 0.000157863
4 5.77839 0.000287056 0 -0.247385 0 0.000104078
5 2.23163 -0.000329018 -0.000364542 -0.121846 0 0
6 11.4725 0 0 -0.421093 -0.178524 0.281969
7 0.615219 -0.993091 -0.8107 2.33805 -0.0433469 -0.360756
8 2.24752 0 0 0.0800336 0.130871 -0.022588
9 1.11936 0 0 0.0688115 0.177523 -0.338114
10 3.71348 -0.102641 0.102191 1.81842 1.37508 0.188411
11 1.72615 0 0 0.0136259 -0.0250639 -0.609754
12 1.21114 0 0 0.00236706 0.0174767 -0.462832
13 3.59919 -1.06012 0.0708879 1.68096 1.17438 0.0612365
14 1.66069 0 0 -0.00987791 0.0219166 -0.64561
15 1.167 0 0 0.0379319 -0.0317196 -0.610266
16 2.18852 0.50104 0.0576588 1.57003 0.153931 0.225781
17 1.29609 0 0 0.0343668 0.0550095 -1.22788
18 1.62202 0.000711441 -0.000472069 0.00441628 -0.0145794 -0.727069
19 1.22241 0 0 -0.00631657 0.017687 -0.370915
20 1.76707 1.27612 0.0366406 1.57002 0.26187 0.261241
21 1.55588 0 0 -0.0324567 0.00304727 -1.18264
22 1.24273 0 0 -0.000599471 0 -0.65185
23 0.784523 0 0 0.0063393 0.00191178 -0.571831
24 -1.93761 5.60916 -3.60973 -0.000932693 0 3.14159
25 6.02794 0 0 0.967868 0.437812 1.48155
26 11.7344 0 0 0.0014027 0 0.857616
27 8.81167 0 0 0.0172947 0 0
28 5.77884 0 0 0.0115875 0 0
29 2.23249 0 0 0.00570715 0 0
30 11.4725 0 0 0.285397 -0.411674 -0.600735
31 0.615812 0.994372 -0.809166 -2.75592 0.374249 0.315718
32 2.24752 0 0 -0.565214 0.197981 0.0658204
33 1.11936 0 0 -0.0549133 0.0237984 0.34886
34 3.71348 0.102639 0.102191 -1.55367 0.888575 -0.066111
35 1.72615 0 0 -0.0121439 -0.00651266 1.19024
36 1.21112 0 0 0.0118384 0.0130726 1.33339
37 3.5992 1.06012 0.0708886 -1.53154 0.266229 0.170417
38 1.66069 0 0 0.0307887 0.0659277 0.632516
39 1.16699 0 0 0.0346484 0.0172045 0.590301
40 2.18853 -0.50104 0.0576589 -1.55151 0.172885 -0.118539
41 1.29609 0 0 -0.0200504 -0.0423274 0.631309
42 1.62202 -0.000713348 -0.000470161 -0.0284748 -0.0166479 1.25494
43 1.22241 0 0 -0.0073373 0.00175433 1.23076
44 1.76707 -1.27612 0.0366404 -1.52771 0.265811 -0.101503
45 1.55588 0 0 0.0305806 -0.0879844 0.525515
46 1.24273 0 0 0.000599186 0 0.710283
47 0.784531 0 0 -0.00205812 0.00641632 0.880036
48 0 0 0 0 0 0
49 -4.65693 -19.3958 -5.21066 -0.0482326 -0.0253667 -0.00525754
50 0 -1.51208 1.07027 0 0 0
51 0.540026 -0.371635 1.70233 0 0 0
52 0 -4.95108 2.17037 0 0 0
53 0 -2.31356 1.98216 0 0 0
54 -4.63117 -18.6674 -6.07489 -0.0482326 -0.0253667 -0.00525754
55 0 -0.769075 1.97674 0 0 0
56 0 -2.56341 3.06229 0 0 0
time 19
0 1.5572 9.20997 -3.60973 0.000934124 0 -1.06437
1 6.02794 0 0 -1.41005 0.412272 -0.797424
2 11.7344 0 0 -0.00140276 0 -0.565571
3 8.81138 -0.000450134 -0.000112295 -0.371742 0 0.000158326
4 5.77839 0.000286102 0 -0.249067 0 0.000104433
5 2.23163 -0.000329971 -0.000364065 -0.122675 0 0
6 11.4725 0 0 -0.425486 -0.178671 0.289354
7 0.615221 -0.993091 -0.8107 2.33805 -0.0433467 -0.360756
8 2.24752 0 0 0.0800335 0.130871 -0.022588
9 1.11936 0 0 0.0688115 0.177523 -0.338114
10 3.71348 -0.102641 0.102191 1.81842 1.37508 0.188412
11 1.72615 0 0 0.0136259 -0.0250639 -0.609754
12 1.21114 0 0 0.00236702 0.0174767 -0.462832
13 3.59919 -1.06012 0.0708878 1.68096 1.17438 0.061237
14 1.66069 0 0 -0.00987788 0.0219166 -0.64561
15 1.167 0 0 0.0379319 -0.0317196 -0.610265
16 2.18852 0.50104 0.0576589 1.57003 0.153931 0.225781
17 1.29609 0 0 0.0343666 0.0550095 -1.22788
18 1.62202 0.000713348 -0.000470638 0.00441624 -0.0145794 -0.72707
19 1.22241 0 0 -0.00631653 0.017687 -0.370915
20 1.76707 1.27612 0.0366408 1.57002 0.26187 0.261241
21 1.55588 0 0 -0.0324567 0.00304733 -1.18264
22 1.24273 0 0 -0.000599442 0 -0.65185
23 0.784523 0 0 0.00633923 0.00191179 -0.571831
24 -1.93761 5.60916 -3.60973 -0.000932693 0 3.14159
25 6.02794 0 0 0.968505 0.436226 1.48221
26 11.7344 0 0 0.00140262 0 0.855876
27 8.81167 0 0 0.0156208 0 0
28 5.77884 0 0 0.0104658 0 0
29 2.23249 0 0 0.00515488 0 0
30 11.4725 0 0 0.283063 -0.406461 -0.605048
31 0.615812 0.994372 -0.809165 -2.75592 0.374249 0.315718
32 2.24752 0 0 -0.565214 0.197981 0.0658203
33 1.11936 0 0 -0.0549132 0.0237985 0.34886
34 3.71349 0.102639 0.102191 -1.55367 0.888575 -0.0661111
35 1.72615 0 0 -0.0121439 -0.00651267 1.19024
36 1.21112 0 0 0.0118385 0.0130726 1.33339
37 3.5992 1.06012 0.0708884 -1.53154 0.266229 0.170417
38 1.66069 0 0 0.0307887 0.0659277 0.632516
39 1.16699 0 0 0.0346484 0.0172045 0.590301
40 2.18853 -0.50104 0.0576595 -1.55151 0.172885 -0.118539
41 1.29609 0 0 -0.0200505 -0.0423274 0.631309
42 1.62202 -0.000714302 -0.000469208 -0.0284748 -0.0166479 1.25494
43 1.22241 0 0 -0.00733724 0.00175436 1.23076
44 1.76707 -1.27612 0.036641 -1.52771 0.265812 -0.101503
45 1.55588 0 0 0.0305806 -0.0879843 0.525515
46 1.24273 0 0 0.000599217 0 0.710283
47 0.784532 0 0 -0.00205815 0.00641633 0.880036
48 0 0 0 0 0 0
49 -4.64922 -19.406 -5.22101 -0.0413199 -0.0233524 -0.00380902
50 0 -1.51208 1.07027 0 0 0
51 0.540026 -0.371635 1.70233 0 0 0
52 0 -4.95108 2.17037 0 0 0
53 0 -2.31355 1.98216 0 0 0
54 -4.62635 -18.6716 -6.08023 -0.0413199 -0.0233524 -0.00380902
55 0 -0.769073 1.97674 0 0 0
56 0 -0.826366 2.70072 0 0 0
time 20
0 1.5572 9.20997 -3.60973 0.000934124 0 -1.06437
1 6.02794 0 0 -1.40977 0.413467 -0.797403
2 11.7344 0 0 -0.00140283 0 -0.568377
3 8.81138 -0.000449181 -0.000111818 -0.376725 0 0.000157762
4 5.77839 0.000287056 0 -0.252406 0 0.000104203
5 2.23163 -0.000329018 -0.000363827 -0.124319 0 0
6 11.4725 0 0 -0.432788 -0.178265 0.298873
7 0.615219 -0.993091 -0.8107 2.33805 -0.0433467 -0.360756
8 2.24752 0 0 0.0800336 0.130871 -0.0225879
9 1.11936 0 0 0.0688114 0.177523 -0.338114
10 3.71348 -0.102641 0.102191 1.81842 1.37508 0.18841
11 1.72615 0 0 0.0136259 -0.0250639 -0.609754
12 1.21114 0 0 0.00236701 0.0174767 -0.462832
13 3.59919 -1.06012 0.0708883 1.68096 1.17438 0.0612368
14 1.66069 0 0 -0.00987788 0.0219166 -0.64561
15 1.167 0 0 0.0379319 -0.0317196 -0.610266
16 2.18853 0.50104 0.0576594 1.57003 0.153931 0.225781
17 1.29609 0 0 0.0343668 0.0550095 -1.22788
18 1.62202 0.000713348 -0.000470638 0.00441632 -0.0145794 -0.727069
19 1.22241 0 0 -0.0063166 0.017687 -0.370915
20 1.76707 1.27612 0.0366411 1.57002 0.26187 0.261241
21 1.55588 0 0 -0.0324566 0.00304727 -1.18264
22 1.24273 0 0 -0.00059947 0 -0.65185
23 0.784524 0 0 0.00633939 0.00191178 -0.571831
24 -1.93761 5.60916 -3.60973 -0.000932693 0 3.14159
25 6.02794 0 0 0.969139 0.434782 1.48258
26 11.7344 0 0 0.0014027 0 0.855428
27 8.81167 0 0 0.0108976 0 0
28 5.77884 0 0 0.00730138 0 0
29 2.23249 0 0 0.00359616 0 0
30 11.4725 0 0 0.278342 -0.400867 -0.611325
31 0.615814 0.994373 -0.809165 -2.75592 0.374249 0.315717
32 2.24752 0 0 -0.565214 0.197981 0.0658203
33 1.11936 0 0 -0.0549132 0.0237986 0.34886
34 3.71349 0.10264 0.102192 -1.55367 0.888575 -0.066111
35 1.72615 0 0 -0.0121439 -0.00651265 1.19024
36 1.21112 0 0 0.0118385 0.0130726 1.33339
37 3.5992 1.06012 0.0708884 -1.53154 0.266229 0.170417
38 1.66069 0 0 0.0307887 0.0659277 0.632516
39 1.16699 0 0 0.0346484 0.0172046 0.590301
40 2.18853 -0.50104 0.0576595 -1.55151 0.172885 -0.118539
41 1.29609 0 0 -0.0200505 -0.0423274 0.631309
42 1.62202 -0.000713348 -0.000469208 -0.0284748 -0.0166479 1.25494
43 1.22241 0 0 -0.00733729 0.00175437 1.23076
44 1.76707 -1.27612 0.0366409 -1.52771 0.265811 -0.101504
45 1.55588 0 0 0.0305806 -0.0879844 0.525515
46 1.24273 0 0 0.000599186 0 0.710283
47 0.784531 0 0 -0.00205815 0.00641636 0.880036
48 0 0 0 0 0 0
49 -4.64271 -19.4105 -5.22949 -0.0328278 -0.0190394 -0.00266306
50 0 -1.51208 1.07027 0 0 0
51 0.540026 -0.371634 1.70233 0 0 0
52 0 -4.95107 2.17037 0 0 0
53 0 -2.31355 1.98216 0 0 0
54 -4.62449 -18.6688 -6.08252 -0.0328278 -0.0190394 -0.00266306
55 0 -0.769075 1.97674 0 0 0
56 0 -0.826365 2.70072 0 0 0
time 21
0 1.5572 9.20997 -3.60973 0.000934124 0 -1.06437
1 6.02794 0 0 -1.4093 0.41526 -0.797398
2 11.7344 0 0 -0.00140278 0 -0.572459
3 8.81138 -0.000450134 -0.000112772 -0.382982 0 0.000158136
4 5.77839 0.000286102 0 -0.256598 0 0.000104292
5 2.23163 -0.000329018 -0.000363827 -0.126384 0 0
6 11.4725 0 0 -0.441574 -0.177453 0.309419
7 0.615221 -0.993092 -0.8107 2.33805 -0.0433469 -0.360756
8 2.24752 0 0 0.0800335 0.130871 -0.022588
9 1.11936 0 0 0.0688116 0.177523 -0.338114
10 3.71348 -0.102641 0.102191 1.81842 1.37508 0.188412
11 1.72615 0 0 0.0136259 -0.0250639 -0.609754
12 1.21114 0 0 0.00236703 0.0174766 -0.462832
13 3.59919 -1.06012 0.0708879 1.68096 1.17438 0.0612368
14 1.66069 0 0 -0.00987788 0.0219166 -0.64561
15 1.167 0 0 0.0379319 -0.0317196 -0.610266
16 2.18853 0.50104 0.0576587 1.57003 0.153931 0.225781
17 1.29609 0 0 0.0343667 0.0550095 -1.22788
18 1.62202 0.000713348 -0.000471592 0.0044162 -0.0145795 -0.727069
19 1.22241 0 0 -0.00631652 0.017687 -0.370915
20 1.76707 1.27612 0.0366412 1.57002 0.26187 0.261241
21 1.55588 0 0 -0.0324567 0.00304736 -1.18264
22 1.24274 0 0 -0.00059948 0 -0.65185
23 0.784523 0 0 0.0063393 0.00191166 -0.571831
24 -1.93761 5.60916 -3.60973 -0.000932693 0 3.14159
25 6.02794 0 0 0.969714 0.433562 1.48271
26 11.7344 0 0 0.00140276 0 0.855982
27 8.81167 0 0 0.00449312 0 0
28 5.77884 0 0 0.00301036 0 0
29 2.23249 0 0 0.0014827 0 0
30 11.4725 0 0 0.272352 -0.395366 -0.618686
31 0.615812 0.994372 -0.809166 -2.75592 0.374249 0.315718
32 2.24752 0 0 -0.565214 0.197981 0.0658204
33 1.11936 0 0 -0.0549134 0.0237986 0.34886
34 3.71349 0.102639 0.10219 -1.55367 0.888575 -0.0661108
35 1.72615 0 0 -0.0121438 -0.0065126 1.19024
36 1.21112 0 0 0.0118384 0.0130726 1.33339
37 3.5992 1.06012 0.0708877 -1.53154 0.266229 0.170417
38 1.66069 0 0 0.0307887 0.0659277 0.632516
39 1.16699 0 0 0.0346484 0.0172046 0.590301
40 2.18853 -0.501041 0.057659 -1.55151 0.172885 -0.118539
41 1.29609 0 0 -0.0200505 -0.0423275 0.631309
42 1.62202 -0.000713348 -0.000469208 -0.0284748 -0.0166479 1.25494
43 1.22241 0 0 -0.00733727 0.00175434 1.23076
44 1.76707 -1.27612 0.0366399 -1.52771 0.265811 -0.101503
45 1.55588 0 0 0.0305806 -0.0879843 0.525515
46 1.24273 0 0 0.000599192 0 0.710283
47 0.784531 0 0 -0.00205813 0.00641633 0.880036
48 0 0 0 0 0 0
49 -4.63722 -19.4101 -5.23636 -0.0237349 -0.0134876 -0.00176442
50 0 -1.51208 1.07027 0 0 0
51 0.540025 -0.371632 1.70233 0 0 0
52 0 -4.95107 2.17037 0 0 0
53 0 -2.31355 1.98216 0 0 0
54 -4.62448 -18.6606 -6.08269 -0.0237349 -0.0134876 -0.00176442
55 0 -0.769075 1.97674 0 0 0
56 0 -0.826365 2.70072 0 0 0
time 22
0 1.5572 9.20997 -3.60973 0.000934124 0 -1.06437
1 6.02794 0 0 -1.40876 0.417438 -0.797372
2 11.7344 0 0 -0.00140273 0 -0.577321
3 8.81138 -0.000450134 -0.000112057 -0.389318 0 0.000158266
4 5.77839 0.000286102 0 -0.260843 0 0.000104426
5 2.23164 -0.000329018 -0.000363827 -0.128475 0 0
6 11.4725 0 0 -0.450425 -0.176443 0.319909
7 0.615219 -0.993091 -0.8107 2.33805 -0.0433469 -0.360756
8 2.24752 0 0 0.0800335 0.130871 -0.0225882
9 1.11936 0 0 0.0688115 0.177523 -0.338114
10 3.71348 -0.102641 0.102191 1.81842 1.37508 0.188411
11 1.72615 0 0 0.0136259 -0.0250639 -0.609754
12 1.21114 0 0 0.00236705 0.0174767 -0.462832
13 3.59919 -1.06012 0.0708879 1.68096 1.17438 0.0612364
14 1.66069 0 0 -0.00987788 0.0219166 -0.64561
15 1.167 0 0 0.0379319 -0.0317196 -0.610266
16 2.18853 0.50104 0.057659 1.57003 0.153931 0.225781
17 1.29609 0 0 0.0343667 0.0550095 -1.22788
18 1.62202 0.000715256 -0.000470638 0.00441627 -0.0145794 -0.727069
19 1.22241 0 0 -0.00631654 0.017687 -0.370915
20 1.76707 1.27612 0.0366411 1.57002 0.26187 0.261241
21 1.55588 0 0 -0.0324566 0.0030474 -1.18264
22 1.24274 0 0 -0.000599433 0 -0.65185
23 0.784524 0 0 0.00633934 0.00191164 -0.571831
24 -1.93761 5.60916 -3.60973 -0.000932693 0 3.14159
25 6.02794 0 0 0.970172 0.432666 1.48265
26 11.7344 0 0 0.00140278 0 0.857288
27 8.81167 0 0 -0.00227621 0 0
28 5.77884 0 0 -0.00152507 0 0
29 2.23249 0 0 -0.000751168 0 0
30 11.4725 0 0 0.26621 -0.390388 -0.626237
31 0.615814 0.994373 -0.809165 -2.75592 0.374249 0.315718
32 2.24752 0 0 -0.565214 0.197981 0.0658204
33 1.11936 0 0 -0.0549133 0.0237985 0.34886
34 3.71349 0.10264 0.102191 -1.55366 0.888575 -0.0661109
35 1.72615 0 0 -0.0121439 -0.00651263 1.19024
36 1.21112 0 0 0.0118385 0.0130726 1.33339
37 3.5992 1.06012 0.0708888 -1.53154 0.266229 0.170417
38 1.66069 0 0 0.0307886 0.0659278 0.632516
39 1.16699 0 0 0.0346484 0.0172045 0.590301
40 2.18853 -0.50104 0.0576588 -1.55151 0.172885 -0.118539
41 1.29609 0 0 -0.0200505 -0.0423275 0.631309
42 1.62201 -0.000713348 -0.000469446 -0.0284747 -0.0166479 1.25494
43 1.22241 0 0 -0.00733725 0.00175441 1.23076
44 1.76707 -1.27612 0.0366409 -1.52771 0.265811 -0.101503
45 1.55588 0 0 0.0305806 -0.0879843 0.525515
46 1.24273 0 0 0.000599219 0 0.710283
47 0.784532 0 0 -0.00205814 0.00641634 0.880036
48 0 0 0 0 0 0
49 -4.63258 -19.4057 -5.24191 -0.0150199 -0.00775709 -0.00105786
50 0 -1.51208 1.07027 0 0 0
51 0.540026 -0.371635 1.70233 0 0 0
52 0 -4.95108 2.17037 0 0 0
53 0 -2.31355 1.98216 0 0 0
54 -4.62526 -18.6488 -6.08172 -0.0150199 -0.00775709 -0.00105786
55 0 -0.769072 1.97674 0 0 0
56 0 -0.826366 2.70072 0 0 0
time 23
0 1.5572 9.20997 -3.60973 0.000934124 0 -1.06437
1 6.02794 0 0 -1.40822 0.419802 -0.797291
2 11.7344 0 0 -0.00140279 0 -0.58249
3 8.81139 -0.000450134 -0.000112057 -0.394551 0 0.000158247
4 5.77839 0.000286102 0 -0.264349 0 0.000104254
5 2.23163 -0.000329971 -0.000364304 -0.130202 0 0
6 11.4725 0 0 -0.457942 -0.175519 0.329282
7 0.615217 -0.993091 -0.8107 2.33805 -0.0433468 -0.360756
8 2.24752 0 0 0.0800335 0.130871 -0.022588
9 1.11936 0 0 0.0688114 0.177523 -0.338114
10 3.71348 -0.102641 0.102191 1.81842 1.37508 0.188411
11 1.72615 0 0 0.0136259 -0.0250639 -0.609754
12 1.21114 0 0 0.00236701 0.0174767 -0.462832
13 3.59919 -1.06012 0.0708882 1.68096 1.17438 0.0612367
14 1.66069 0 0 -0.00987787 0.0219166 -0.64561
15 1.167 0 0 0.0379319 -0.0317196 -0.610265
16 2.18852 0.50104 0.0576589 1.57003 0.153931 0.225781
17 1.29609 0 0 0.0343666 0.0550095 -1.22788
18 1.62202 0.000713348 -0.000471115 0.00441619 -0.0145795 -0.727069
19 1.22241 0 0 -0.0063166 0.017687 -0.370915
20 1.76707 1.27612 0.0366409 1.57002 0.26187 0.261241
21 1.55588 0 0 -0.0324567 0.00304733 -1.18264
22 1.24274 0 0 -0.000599405 0 -0.65185
23 0.784522 0 0 0.00633935 0.0019117 -0.571831
24 -1.93761 5.60916 -3.60973 -0.000932693 0 3.14159
25 6.02794 0 0 0.970452 0.432214 1.48242
26 11.7344 0 0 0.00140278 0 0.859133
27 8.81167 0 0 -0.00815 0 0
28 5.77884 0 0 -0.0054606 0 0
29 2.23249 0 0 -0.00268945 0 0
30 11.4725 0 0 0.261032 -0.38631 -0.633068
31 0.615812 0.994373 -0.809165 -2.75592 0.374249 0.315718
32 2.24752 0 0 -0.565214 0.197981 0.0658204
33 1.11936 0 0 -0.0549134 0.0237985 0.34886
34 3.71348 0.10264 0.102192 -1.55367 0.888575 -0.0661109
35 1.72615 0 0 -0.0121439 -0.00651267 1.19024
36 1.21112 0 0 0.0118385 0.0130726 1.33339
37 3.5992 1.06012 0.0708883 -1.53154 0.266229 0.170417
38 1.66069 0 0 0.0307887 0.0659277 0.632516
39 1.16699 0 0 0.0346484 0.0172046 0.590301
40 2.18853 -0.50104 0.0576593 -1.55151 0.172885 -0.118539
41 1.29609 0 0 -0.0200505 -0.0423274 0.631309
42 1.62202 -0.000712395 -0.000469923 -0.0284748 -0.0166479 1.25494
43 1.22241 0 0 -0.00733723 0.00175436 1.23076
44 1.76707 -1.27612 0.0366404 -1.52771 0.265811 -0.101503
45 1.55588 0 0 0.0305806 -0.0879844 0.525515
46 1.24273 0 0 0.000599203 0 0.710283
47 0.784531 0 0 -0.00205812 0.0064163 0.880036
48 0 0 0 0 0 0
49 -4.62863 -19.3979 -5.24641 -0.00766122 -0.00290788 -0.000488132
50 0 -1.51208 1.07027 0 0 0
51 0.540027 -0.371632 1.70232 0 0 0
52 0 -4.95107 2.17037 0 0 0
53 0 -2.31355 1.98216 0 0 0
54 -4.62583 -18.6349 -6.08065 -0.00766122 -0.00290788 -0.000488132
55 0 -0.769073 1.97674 0 0 0
56 0 -0.826365 2.70072 0 0 0
time 24
0 1.5572 9.20997 -3.60973 0.000934124 0 -1.06437
1 6.02794 0 0 -1.40776 0.422168 -0.797123
2 11.7344 0 0 -0.00140278 0 -0.587515
3 8.81139 -0.000449181 -0.000112057 -0.397502 0 0.000158086
4 5.77839 0.000286102 0 -0.266326 0 0.000104222
5 2.23164 -0.000329018 -0.000363588 -0.131176 0 0
6 11.4725 0 0 -0.462737 -0.175013 0.336501
7 0.615217 -0.993091 -0.8107 2.33805 -0.0433469 -0.360756
8 2.24752 0 0 0.0800335 0.130871 -0.022588
9 1.11936 0 0 0.0688115 0.177523 -0.338114
10 3.71348 -0.102641 0.102191 1.81842 1.37508 0.188411
11 1.72615 0 0 0.0136259 -0.0250638 -0.609754
12 1.21114 0 0 0.00236707 0.0174767 -0.462832
13 3.59919 -1.06012 0.0708877 1.68096 1.17438 0.0612366
14 1.66069 0 0 -0.00987786 0.0219166 -0.64561
15 1.167 0 0 0.0379319 -0.0317195 -0.610265
16 2.18852 0.50104 0.057659 1.57003 0.153931 0.225781
17 1.29609 0 0 0.0343667 0.0550094 -1.22788
18 1.62202 0.000713348 -0.000471115 0.00441631 -0.0145794 -0.727069
19 1.22241 0 0 -0.00631658 0.0176869 -0.370915
20 1.76707 1.27612 0.0366408 1.57002 0.26187 0.261241
21 1.55587 0 0 -0.0324567 0.00304726 -1.18264
22 1.24274 0 0 -0.00059948 0 -0.65185
23 0.784523 0 0 0.00633939 0.0019118 -0.571831
24 -1.93761 5.60916 -3.60973 -0.000932693 0 3.14159
25 6.02794 0 0 0.970488 0.432336 1.48201
26 11.7344 0 0 0.00140282 0 0.861341
27 8.81167 0 0 -0.011915 0 0
28 5.77884 0 0 -0.00798302 0 0
29 2.23249 0 0 -0.003932 0 0
30 11.4725 0 0 0.257925 -0.383471 -0.63826
31 0.615812 0.994372 -0.809165 -2.75592 0.374249 0.315718
32 2.24752 0 0 -0.565214 0.197981 0.0658205
33 1.11936 0 0 -0.0549132 0.0237985 0.34886
34 3.71349 0.10264 0.102191 -1.55367 0.888575 -0.0661109
35 1.72615 0 0 -0.0121438 -0.00651262 1.19024
36 1.21112 0 0 0.0118385 0.0130726 1.33339
37 3.5992 1.06012 0.070888 -1.53154 0.266229 0.170417
38 1.66069 0 0 0.0307887 0.0659277 0.632516
39 1.16699 0 0 0.0346484 0.0172046 0.590301
40 2.18853 -0.501041 0.0576593 -1.55151 0.172885 -0.118539
41 1.29609 0 0 -0.0200505 -0.0423274 0.631309
42 1.62202 -0.000714302 -0.000470161 -0.0284748 -0.0166479 1.25494
43 1.22241 0 0 -0.00733719 0.00175433 1.23076
44 1.76707 -1.27612 0.0366404 -1.52771 0.265811 -0.101503
45 1.55588 0 0 0.0305807 -0.0879843 0.525515
46 1.24273 0 0 0.000599183 0 0.710283
47 0.784531 0 0 -0.00205814 0.00641637 0.880036
48 0 0 0 0 0 0
49 -4.62519 -19.3876 -5.25013 -0.00263747 0 0
50 0 -1.51208 1.07027 0 0 0
51 0.540026 -0.371632 1.70233 0 0 0
52 0 -4.95107 2.17037 0 0 0
53 0 -2.31356 1.98216 0 0 0
54 -4.62519 -18.6204 -6.08053 -0.00263747 0 0
55 0 -0.769073 1.97674 0 0 0
56 0 -0.826365 2.70072 0 0 0
time 25
0 1.5572 9.20997 -3.60973 0.000934124 0 -1.06437
1 6.02794 0 0 -1.40742 0.424411 -0.79688
2 11.7344 0 0 -0.00140279 0 -0.592041
3 8.81138 -0.000450134 -0.000112295 -0.398354 0 0.000157988
4 5.77839 0.000286102 0 -0.266897 0 0.000104124
5 2.23163 -0.000329018 -0.000364065 -0.131457 0 0
6 11.4725 0 0 -0.46484 -0.174917 0.341092
7 0.615217 -0.993091 -0.8107 2.33805 -0.0433468 -0.360756
8 2.24752 0 0 0.0800335 0.130871 -0.0225879
9 1.11936 0 0 0.0688115 0.177523 -0.338114
10 3.71348 -0.102641 0.102191 1.81842 1.37508 0.188411
11 1.72615 0 0 0.0136259 -0.0250639 -0.609754
12 1.21114 0 0 0.00236703 0.0174767 -0.462832
13 3.59919 -1.06012 0.070888 1.68096 1.17438 0.0612368
14 1.66069 0 0 -0.00987791 0.0219167 -0.64561
15 1.167 0 0 0.0379319 -0.0317196 -0.610265
16 2.18853 0.50104 0.0576593 1.57003 0.153931 0.225781
17 1.29609 0 0 0.0343667 0.0550095 -1.22788
18 1.62202 0.000713348 -0.000471115 0.00441627 -0.0145793 -0.727069
19 1.22241 0 0 -0.00631654 0.0176869 -0.370915
20 1.76707 1.27612 0.0366412 1.57002 0.26187 0.261241
21 1.55588 0 0 -0.0324567 0.00304724 -1.18264
22 1.24273 0 0 -0.000599423 0 -0.65185
23 0.784524 0 0 0.00633932 0.00191172 -0.571831
24 -1.93761 5.60916 -3.60973 -0.000932693 0 3.14159
25 6.02794 0 0 0.970213 0.43322 1.48133
26 11.7344 0 0 0.00140275 0 0.864245
27 8.81167 0 0 -0.0138465 0 0
28 5.77884 0 0 -0.00927717 0 0
29 2.23249 0 0 -0.00456924 0 0
30 11.4725 0 0 0.256788 -0.382078 -0.641753
31 0.61581 0.994373 -0.809165 -2.75592 0.374249 0.315718
32 2.24752 0 0 -0.565214 0.197981 0.0658205
33 1.11935 0 0 -0.0549132 0.0237986 0.34886
34 3.71349 0.10264 0.102191 -1.55367 0.888575 -0.0661112
35 1.72615 0 0 -0.0121439 -0.00651269 1.19024
36 1.21112 0 0 0.0118385 0.0130726 1.33339
37 3.5992 1.06012 0.0708877 -1.53154 0.266229 0.170417
38 1.66069 0 0 0.0307887 0.0659277 0.632516
39 1.16699 0 0 0.0346484 0.0172045 0.590301
40 2.18853 -0.50104 0.0576593 -1.55151 0.172885 -0.118539
41 1.29609 0 0 -0.0200505 -0.0423273 0.631309
42 1.62202 -0.000714302 -0.000469685 -0.0284748 -0.0166479 1.25494
43 1.22241 0 0 -0.0073373 0.00175432 1.23076
44 1.76707 -1.27612 0.0366405 -1.52771 0.265811 -0.101503
45 1.55587 0 0 0.0305806 -0.0879844 0.525515
46 1.24273 0 0 0.000599198 0 0.710283
47 0.784532 0 0 -0.00205811 0.00641631 0.880036
48 0 0 0 0 0 0
49 -4.6221 -19.3757 -5.25336 -0.000173796 0.00109991 0.000323437
50 0 -1.51208 1.07027 0 0 0
51 0.540026 -0.371634 1.70233 0 0 0
52 0 -4.95107 2.17037 0 0 0
53 0 -2.31355 1.98216 0 0 0
54 -4.62326 -18.6064 -6.08187 -0.000173796 0.00109991 0.000323437
55 0 -0.769073 1.97674 0 0 0
56 0 -0.826363 2.70072 0 0 0
time 26
0 1.5572 9.20997 -3.60973 0.000934124 0 -1.06437
1 6.02794 0 0 -1.40715 0.426525 -0.796602
2 11.7344 0 0 -0.00140302 0 -0.59607
3 8.81138 -0.000450134 -0.000111818 -0.398291 0 0.000157986
4 5.77839 0.000286102 0 -0.266855 0 0.000104129
5 2.23163 -0.000329971 -0.000364065 -0.131436 0 0
6 11.4725 0 0 -0.46553 -0.174948 0.343734
7 0.615219 -0.993091 -0.8107 2.33805 -0.0433468 -0.360756
8 2.24752 0 0 0.0800336 0.130871 -0.022588
9 1.11936 0 0 0.0688113 0.177523 -0.338114
10 3.71348 -0.102641 0.102191 1.81842 1.37508 0.188411
11 1.72615 0 0 0.0136259 -0.0250639 -0.609754
12 1.21114 0 0 0.00236702 0.0174767 -0.462832
13 3.59919 -1.06012 0.0708882 1.68096 1.17438 0.0612364
14 1.66069 0 0 -0.00987789 0.0219166 -0.64561
15 1.167 0 0 0.0379318 -0.0317195 -0.610266
16 2.18853 0.50104 0.057659 1.57003 0.153932 0.225781
17 1.29609 0 0 0.0343668 0.0550095 -1.22788
18 1.62202 0.000711441 -0.000471592 0.00441617 -0.0145794 -0.727069
19 1.22241 0 0 -0.00631658 0.0176869 -0.370915
20 1.76707 1.27612 0.0366412 1.57002 0.26187 0.261241
21 1.55588 0 0 -0.0324567 0.00304717 -1.18264
22 1.24274 0 0 -0.000599442 0 -0.65185
23 0.784523 0 0 0.00633933 0.00191167 -0.571831
24 -1.93761 5.60916 -3.60973 -0.000932693 0 3.14159
25 6.02794 0 0 0.969843 0.434232 1.48076
26 11.7344 0 0 0.00140261 0 0.866691
27 8.81167 0 0 -0.0148199 0 0
28 5.77884 0 0 -0.00992931 0 0
29 2.23249 0 0 -0.00489057 0 0
30 11.4725 0 0 0.256581 -0.381828 -0.643654
31 0.615814 0.994373 -0.809166 -2.75592 0.374248 0.315717
32 2.24752 0 0 -0.565214 0.197981 0.0658203
33 1.11936 0 0 -0.0549132 0.0237985 0.34886
34 3.71349 0.10264 0.102191 -1.55367 0.888575 -0.0661112
35 1.72615 0 0 -0.0121439 -0.00651267 1.19024
36 1.21112 0 0 0.0118385 0.0130726 1.33339
37 3.5992 1.06012 0.0708884 -1.53154 0.266228 0.170417
38 1.66069 0 0 0.0307887 0.0659277 0.632516
39 1.16699 0 0 0.0346485 0.0172046 0.590301
40 2.18853 -0.50104 0.057659 -1.55151 0.172885 -0.118539
41 1.29609 0 0 -0.0200505 -0.0423274 0.631309
42 1.62202 -0.000713348 -0.000469685 -0.0284748 -0.0166479 1.25494
43 1.22241 0 0 -0.00733727 0.00175428 1.23076
44 1.76707 -1.27612 0.0366405 -1.52771 0.265811 -0.101504
45 1.55588 0 0 0.0305806 -0.0879843 0.525515
46 1.24273 0 0 0.000599189 0 0.710283
47 0.784531 0 0 -0.00205814 0.00641635 0.880036
48 0 0 0 0 0 0
49 -4.61919 -19.3628 -5.25636 0.000598087 0.00140789 0.000413999
50 0 -1.51208 1.07027 0 0 0
51 0.540026 -0.371635 1.70233 0 0 0
52 0 -4.95108 2.17037 0 0 0
53 0 -2.31356 1.98216 0 0 0
54 -4.62068 -18.5929 -6.08428 0.000598087 0.00140789 0.000413999
55 0 -0.769073 1.97674 0 0 0
56 0 -0.826365 2.70072 0 0 0
time 27
0 1.5572 9.20997 -3.60973 0.000934124 0 -1.06437
1 6.02794 0 0 -1.40693 0.428506 -0.796302
2 11.7344 0 0 -0.00140282 0 -0.599676
3 8.81138 -0.000449181 -0.000112534 -0.397638 0 0.000157844
4 5.77839 0.000287056 0 -0.266417 0 0.000104105
5 2.23164 -0.000328064 -0.000364304 -0.131221 0 0
6 11.4725 0 0 -0.465302 -0.175039 0.345129
7 0.615219 -0.993091 -0.8107 2.33805 -0.0433467 -0.360756
8 2.24752 0 0 0.0800336 0.130871 -0.0225881
9 1.11935 0 0 0.0688115 0.177523 -0.338114
10 3.71348 -0.102641 0.102191 1.81842 1.37508 0.188411
11 1.72615 0 0 0.0136259 -0.0250639 -0.609754
12 1.21114 0 0 0.00236704 0.0174766 -0.462832
13 3.59919 -1.06012 0.0708883 1.68096 1.17438 0.0612369
14 1.66069 0 0 -0.00987786 0.0219166 -0.64561
15 1.167 0 0 0.0379319 -0.0317196 -0.610266
16 2.18853 0.50104 0.0576594 1.57003 0.153931 0.225781
17 1.29609 0 0 0.0343668 0.0550095 -1.22788
18 1.62202 0.000713348 -0.000470638 0.00441628 -0.0145794 -0.727069
19 1.22241 0 0 -0.00631656 0.0176869 -0.370915
20 1.76707 1.27612 0.0366412 1.57002 0.26187 0.261241
21 1.55588 0 0 -0.0324567 0.00304738 -1.18264
22 1.24274 0 0 -0.000599423 0 -0.65185
23 0.784524 0 0 0.00633936 0.0019118 -0.571831
24 -1.93761 5.60916 -3.60973 -0.000932693 0 3.14159
25 6.02794 0 0 0.96938 0.435427 1.48021
26 11.7344 0 0 0.00140285 0 0.8691
27 8.81167 0 0 -0.0152389 0 0
28 5.77884 0 0 -0.01021 0 0
29 2.23249 0 0 -0.00502885 0 0
30 11.4725 0 0 0.256995 -0.382282 -0.644724
31 0.615812 0.994373 -0.809166 -2.75592 0.374249 0.315718
32 2.24752 0 0 -0.565214 0.197981 0.0658204
33 1.11936 0 0 -0.0549133 0.0237985 0.34886
34 3.71349 0.10264 0.102191 -1.55366 0.888575 -0.0661107
35 1.72615 0 0 -0.0121439 -0.00651264 1.19024
36 1.21112 0 0 0.0118384 0.0130726 1.33339
37 3.5992 1.06012 0.0708879 -1.53154 0.266229 0.170417
38 1.66069 0 0 0.0307887 0.0659277 0.632516
39 1.16699 0 0 0.0346484 0.0172046 0.590301
40 2.18853 -0.50104 0.0576587 -1.55151 0.172885 -0.118539
41 1.29609 0 0 -0.0200505 -0.0423274 0.631309
42 1.62202 -0.000714302 -0.000469685 -0.0284748 -0.016648 1.25494
43 1.22241 0 0 -0.00733729 0.00175439 1.23076
44 1.76707 -1.27612 0.0366403 -1.52771 0.265811 -0.101503
45 1.55588 0 0 0.0305806 -0.0879844 0.525515
46 1.24273 0 0 0.000599205 0 0.710283
47 0.784532 0 0 -0.00205808 0.00641632 0.880036
48 0 0 0 0 0 0
49 -4.61629 -19.3499 -5.25943 0.000339794 0.00118791 0.000349312
50 0 -1.51208 1.07027 0 0 0
51 0.540026 -0.371634 1.70232 0 0 0
52 0 -4.95107 2.17037 0 0 0
53 0 -2.31355 1.98216 0 0 0
54 -4.61754 -18.5802 -6.08754 0.000339791 0.00118791 0.000349312
55 0 -0.769075 1.97674 0 0 0
56 0 -0.826365 2.70072 0 0 0
time 28
0 1.5572 9.20997 -3.60973 0.000934124 0 -1.06437
1 6.02794 0 0 -1.40677 0.43035 -0.79599
2 11.7344 0 0 -0.00140273 0 -0.602937
3 8.81139 -0.000450134 -0.000112057 -0.396709 0 0.00015828
4 5.77839 0.000286102 0 -0.265795 0 0.000104353
5 2.23164 -0.000329971 -0.000363827 -0.130914 0 0
6 11.4725 0 0 -0.464646 -0.175113 0.345977
7 0.615217 -0.993091 -0.8107 2.33805 -0.0433468 -0.360756
8 2.24752 0 0 0.0800335 0.130871 -0.022588
9 1.11936 0 0 0.0688116 0.177523 -0.338114
10 3.71348 -0.102641 0.102191 1.81842 1.37508 0.188411
11 1.72615 0 0 0.0136259 -0.0250639 -0.609754
12 1.21114 0 0 0.00236702 0.0174767 -0.462832
13 3.59919 -1.06012 0.070888 1.68096 1.17438 0.0612363
14 1.66069 0 0 -0.00987787 0.0219166 -0.64561
15 1.167 0 0 0.0379319 -0.0317196 -0.610265
16 2.18852 0.501039 0.057659 1.57003 0.153931 0.225781
17 1.29609 0 0 0.0343668 0.0550095 -1.22788
18 1.62202 0.000713348 -0.000471592 0.00441624 -0.0145794 -0.72707
19 1.22241 0 0 -0.00631652 0.017687 -0.370915
20 1.76707 1.27612 0.0366412 1.57002 0.26187 0.261241
21 1.55587 0 0 -0.0324567 0.00304725 -1.18264
22 1.24274 0 0 -0.000599414 0 -0.65185
23 0.784523 0 0 0.00633925 0.00191173 -0.571831
24 -1.93761 5.60916 -3.60973 -0.000932693 0 3.14159
25 6.02794 0 0 0.968896 0.436637 1.4797
26 11.7344 0 0 0.00140257 0 0.871341
27 8.81167 0 0 -0.0153604 0 0
28 5.77884 0 0 -0.0102914 0 0
29 2.23249 0 0 -0.00506908 0 0
30 11.4725 0 0 0.257723 -0.383003 -0.645443
31 0.615812 0.994373 -0.809165 -2.75592 0.374249 0.315718
32 2.24752 0 0 -0.565214 0.197981 0.0658203
33 1.11936 0 0 -0.0549133 0.0237985 0.34886
34 3.71349 0.10264 0.10219 -1.55367 0.888575 -0.066111
35 1.72615 0 0 -0.0121438 -0.00651262 1.19024
36 1.21112 0 0 0.0118385 0.0130726 1.33339
37 3.5992 1.06012 0.070888 -1.53154 0.266229 0.170417
38 1.66069 0 0 0.0307887 0.0659277 0.632516
39 1.16699 0 0 0.0346484 0.0172045 0.590301
40 2.18853 -0.50104 0.0576591 -1.55151 0.172885 -0.118539
41 1.29609 0 0 -0.0200505 -0.0423275 0.631309
42 1.62202 -0.000713348 -0.000469923 -0.0284747 -0.0166479 1.25494
43 1.22241 0 0 -0.00733724 0.00175433 1.23076
44 1.76707 -1.27612 0.0366404 -1.52771 0.265811 -0.101503
45 1.55588 0 0 0.0305806 -0.0879843 0.525515
46 1.24273 0 0 0.000599211 0 0.710283
47 0.784532 0 0 -0.00205819 0.00641634 0.880036
48 0 0 0 0 0 0
49 -4.61322 -19.3376 -5.26282 -0.000287061 0.000703944 0.000207
50 0 -1.51208 1.07027 0 0 0
51 0.540027 -0.371634 1.70233 0 0 0
52 0 -4.95107 2.17037 0 0 0
53 0 -2.31355 1.98216 0 0 0
54 -4.61396 -18.5685 -6.09141 -0.000287061 0.000703944 0.000207
55 0 -0.769073 1.97674 0 0 0
56 0 -0.826365 2.70072 0 0 0
time 29
0 1.5572 9.20997 -3.60973 0.000934124 0 -1.06437
1 6.02794 0 0 -1.40661 0.432363 -0.795623
2 11.7344 0 0 -0.00140285 0 -0.606565
3 8.81139 -0.000449181 -0.000112295 -0.395729 0 0.000157792
4 5.77839 0.000286102 0 -0.265138 0 0.000104111
5 2.23164 -0.000329018 -0.000364065 -0.130591 0 0
6 11.4725 0 0 -0.464054 -0.175099 0.347301
7 0.615223 -0.993091 -0.8107 2.33805 -0.0433467 -0.360756
8 2.24752 0 0 0.0800335 0.130871 -0.0225879
9 1.11936 0 0 0.0688115 0.177523 -0.338114
10 3.71348 -0.102641 0.102191 1.81843 1.37508 0.188412
11 1.72615 0 0 0.0136259 -0.0250639 -0.609754
12 1.21114 0 0 0.00236705 0.0174767 -0.462832
13 3.5992 -1.06012 0.0708879 1.68096 1.17438 0.0612366
14 1.66069 0 0 -0.00987789 0.0219166 -0.64561
15 1.167 0 0 0.0379319 -0.0317196 -0.610266
16 2.18853 0.50104 0.0576589 1.57003 0.153931 0.225781
17 1.29609 0 0 0.0343668 0.0550095 -1.22788
18 1.62202 0.000715256 -0.000471115 0.00441617 -0.0145795 -0.727069
19 1.22241 0 0 -0.00631655 0.017687 -0.370915
20 1.76707 1.27612 0.0366408 1.57002 0.26187 0.261241
21 1.55588 0 0 -0.0324567 0.00304724 -1.18264
22 1.24274 0 0 -0.000599452 0 -0.65185
23 0.784523 0 0 0.00633935 0.0019117 -0.571831
24 -1.93761 5.60916 -3.60973 -0.000932693 0 3.14159
25 6.02794 0 0 0.968463 0.437692 1.47929
26 11.7344 0 0 0.00140278 0 0.87328
27 8.81167 0 0 -0.0154391 0 0
28 5.77884 0 0 -0.0103441 0 0
29 2.23249 0 0 -0.00509495 0 0
30 11.4725 0 0 0.258456 -0.383555 -0.64629
31 0.615814 0.994373 -0.809166 -2.75592 0.374249 0.315718
32 2.24752 0 0 -0.565214 0.197981 0.0658204
33 1.11936 0 0 -0.0549131 0.0237986 0.34886
34 3.71349 0.10264 0.102191 -1.55367 0.888575 -0.066111
35 1.72615 0 0 -0.0121439 -0.00651259 1.19024
36 1.21112 0 0 0.0118385 0.0130726 1.33339
37 3.5992 1.06012 0.0708883 -1.53154 0.266229 0.170417
38 1.66069 0 0 0.0307886 0.0659277 0.632516
39 1.16699 0 0 0.0346485 0.0172046 0.590301
40 2.18853 -0.50104 0.0576596 -1.55151 0.172885 -0.118539
41 1.29609 0 0 -0.0200505 -0.0423273 0.631309
42 1.62202 -0.000714302 -0.000469685 -0.0284748 -0.0166479 1.25494
43 1.22241 0 0 -0.00733726 0.00175443 1.23076
44 1.76707 -1.27612 0.0366405 -1.52771 0.265811 -0.101503
45 1.55588 0 0 0.0305806 -0.0879844 0.525515
46 1.24273 0 0 0.000599204 0 0.710283
47 0.784532 0 0 -0.00205815 0.00641631 0.880036
48 0 0 0 0 0 0
49 -4.60982 -19.3269 -5.26682 -0.000620864 0.000219982 0
50 0 -1.51208 1.07027 0 0 0
51 0.540026 -0.371635 1.70233 0 0 0
52 0 -4.95107 2.17037 0 0 0
53 0 -2.31355 1.98216 0 0 0
54 -4.61005 -18.558 -6.09567 -0.000620864 0.000219982 0
55 0 -0.769072 1.97674 0 0 0
56 0 -0.826365 2.70072 0 0 0
time 30
0 1.5572 9.20997 -3.60973 0.000934124 0 -1.06437
1 6.02794 0 0 -1.40652 0.433856 -0.795337
2 11.7344 0 0 -0.00140288 0 -0.609235
3 8.81138 -0.000449181 -0.000112057 -0.395216 0 0.000157816
4 5.77839 0.000287056 0 -0.264795 0 0.000104063
5 2.23164 -0.000329018 -0.000364065 -0.130421 0 0
6 11.4725 0 0 -0.46402 -0.174922 0.349091
7 0.615219 -0.993091 -0.8107 2.33805 -0.0433468 -0.360756
8 2.24752 0 0 0.0800335 0.130871 -0.0225879
9 1.11936 0 0 0.0688114 0.177523 -0.338114
10 3.71348 -0.102641 0.102191 1.81842 1.37508 0.188411
11 1.72615 0 0 0.0136259 -0.0250639 -0.609754
12 1.21114 0 0 0.00236707 0.0174767 -0.462832
13 3.59919 -1.06012 0.0708884 1.68096 1.17438 0.0612361
14 1.66069 0 0 -0.00987787 0.0219166 -0.64561
15 1.167 0 0 0.0379319 -0.0317196 -0.610266
16 2.18853 0.501039 0.057659 1.57003 0.153931 0.225781
17 1.2961 0 0 0.0343667 0.0550095 -1.22788
18 1.62202 0.000715256 -0.000471115 0.00441626 -0.0145794 -0.727069
19 1.22241 0 0 -0.00631663 0.017687 -0.370915
20 1.76707 1.27612 0.036641 1.57002 0.26187 0.261241
21 1.55588 0 0 -0.0324566 0.00304736 -1.18264
22 1.24274 0 0 -0.000599536 0 -0.65185
23 0.784524 0 0 0.00633937 0.00191177 -0.571831
24 -1.93761 5.60916 -3.60973 -0.000932693 0 3.14159
25 6.02794 0 0 0.968156 0.438421 1.47904
26 11.7344 0 0 0.00140272 0 0.874785
27 8.81167 0 0 -0.0157288 0 0
28 5.77884 0 0 -0.0105384 0 0
29 2.23249 0 0 -0.00519044 0 0
30 11.4725 0 0 0.258886 -0.3835 -0.647746
31 0.615814 0.994373 -0.809166 -2.75592 0.374249 0.315718
32 2.24752 0 0 -0.565214 0.197981 0.0658205
33 1.11936 0 0 -0.0549132 0.0237986 0.34886
34 3.71349 0.102639 0.102191 -1.55367 0.888575 -0.0661111
35 1.72615 0 0 -0.0121439 -0.00651261 1.19024
36 1.21112 0 0 0.0118385 0.0130726 1.33339
37 3.5992 1.06012 0.0708879 -1.53154 0.266229 0.170417
38 1.66069 0 0 0.0307887 0.0659277 0.632516
39 1.16699 0 0 0.0346484 0.0172046 0.590301
40 2.18853 -0.50104 0.0576586 -1.55151 0.172885 -0.118539
41 1.29609 0 0 -0.0200504 -0.0423274 0.631309
42 1.62202 -0.000713348 -0.000469685 -0.0284748 -0.016648 1.25494
43 1.22241 0 0 -0.00733725 0.00175434 1.23076
44 1.76707 -1.27612 0.0366399 -1.52771 0.265811 -0.101503
45 1.55588 0 0 0.0305806 -0.0879844 0.525515
46 1.24273 0 0 0.000599195 0 0.710283
47 0.784532 0 0 -0.00205818 0.00641634 0.880036
48 0 0 0 0 0 0
49 -4.60592 -19.3184 -5.2717 0 0 0
50 0 -1.51208 1.07027 0 0 0
51 0.540026 -0.371634 1.70233 0 0 0
52 0 -4.95107 2.17037 0 0 0
53 0 -2.31355 1.98216 0 0 0
54 -4.60592 -18.549 -6.10007 0 0 0
55 0 -0.769073 1.97674 0 0 0
56 0 -0.826365 2.70072 0 0 0
end
