//Sequence File generated by the Wall Worm SMD Exporter PRO 1.99
//www.wallworm.com
version 1
nodes
0 "b_l_clav" -1
1 "b_l_upperarm" 0
2 "b_l_forearm" 1
3 "b_l_twist3" 2
4 "b_l_twist2" 2
5 "b_l_twist1" 2
6 "b_l_hand" 2
7 "b_l_thumb001" 6
8 "b_l_thumb002" 7
9 "b_l_thumb003" 8
10 "b_l_middle001" 6
11 "b_l_middle002" 10
12 "b_l_middle003" 11
13 "b_l_index001" 6
14 "b_l_index002" 13
15 "b_l_index003" 14
16 "b_l_hand_ringsqueezer" 6
17 "b_l_ring001" 16
18 "b_l_ring002" 17
19 "b_l_ring003" 18
20 "b_l_hand_pinkysqueezer" 6
21 "b_l_pinky001" 20
22 "b_l_pinky002" 21
23 "b_l_pinky003" 22
24 "b_r_clav" -1
25 "b_r_upperarm" 24
26 "b_r_forearm" 25
27 "b_r_twist3" 26
28 "b_r_twist2" 26
29 "b_r_twist1" 26
30 "b_r_hand" 26
31 "b_r_thumb001" 30
32 "b_r_thumb002" 31
33 "b_r_thumb003" 32
34 "b_r_middle001" 30
35 "b_r_middle002" 34
36 "b_r_middle003" 35
37 "b_r_index001" 30
38 "b_r_index002" 37
39 "b_r_index003" 38
40 "b_r_hand_ringsqueezer" 30
41 "b_r_ring001" 40
42 "b_r_ring002" 41
43 "b_r_ring003" 42
44 "b_r_hand_pinkysqueezer" 30
45 "b_r_pinky001" 44
46 "b_r_pinky002" 45
47 "b_r_pinky003" 46
48 "b_zero" -1
49 "d_bottle" -1
50 "Dummy001" 49
51 "Bone001" 50
52 "Bone002" 51
53 "Bone003" 52
54 "d_lighter" -1
55 "flamebase" 54
56 "flame1" 55
57 "flame2" 56
58 "flame3" 57
59 "flame4" 58
60 "d_wheel" 54
61 "d_plunger" 54
end
skeleton
time 0
0 1.938 2.61058 -11.5797 0 0 0
1 6.02794 0 0 -0.501794 -0.129372 -1.36807
2 11.7344 0 0 -0.00140284 0 -0.442257
3 8.81138 -0.000451088 -0.00011158 0.443708 0 0.000157718
4 5.77839 0.000285149 0 0.297284 0 0.000107831
5 2.23163 -0.000329018 -0.00036335 0.146424 0 0
6 11.4725 0 0 0.458386 0.113187 0.143341
7 0.615221 -0.993091 -0.810699 -3.04116 0.22238 -0.391512
8 2.24752 0 0 0.0112074 -0.108398 -0.303682
9 1.11935 0 0 0.0204077 0.0270483 -0.731349
10 3.71348 -0.102641 0.102191 1.49535 0.779968 0.00226485
11 1.72614 0 0 -0.017577 0.0131322 -1.04058
12 1.21114 0 0 -0.0171003 0.00431478 -1.92111
13 3.5992 -1.06012 0.0708885 1.63787 0.547383 0.0246555
14 1.66068 0 0 -0.0085156 0.0118079 -0.846763
15 1.167 0 0 0.0572051 0.0338718 -1.80228
16 2.18853 0.501039 0.0576591 1.57784 0.039206 0.0764943
17 1.29609 0 0 -0.0709016 -0.00658743 -0.687148
18 1.62201 0.000713348 -0.000472069 -0.0117265 0.0209303 -0.943219
19 1.22241 0 0 -0.0457752 -0.0433288 -2.07488
20 1.76707 1.27612 0.0366411 1.5766 -0.115919 0.0379746
21 1.55588 0 0 -0.135821 -0.014092 -0.896439
22 1.24273 0 0 -0.00055833 0.000218856 -0.305885
23 0.784523 0 0 0.00999542 -0.0227604 -0.653503
24 -1.93761 -5.40097 -8.8609 -0.000932534 0 3.14159
25 6.02794 0 0 2.19449 0.118027 0.689358
26 11.7344 0 0 0.00140263 0 2.59936
27 8.81167 0 0 0.78787 0 0
28 5.77884 0 0 0.527873 0 0
29 2.23249 0 0 0.259997 0 0
30 11.4725 0 0 0.8164 0.747835 -1.51649
31 0.615813 0.994372 -0.809165 -2.86318 0.598594 0.607471
32 2.24752 0 0 -0.314823 0.0314863 0.197192
33 1.11936 0 0 0.060847 0.19326 0.715848
34 3.71349 0.102639 0.10219 -1.55543 0.791171 -0.0684807
35 1.72615 0 0 -0.0112923 -0.0134945 0.755428
36 1.21112 0 0 0.00210112 0.0175106 0.716882
37 3.5992 1.06012 0.0708876 -1.55531 0.765324 0.07347
38 1.66069 0 0 0.0175767 0.0298829 0.754142
39 1.16699 0 0 -0.0268533 -0.0208934 0.719122
40 2.18853 -0.50104 0.0576591 -1.57003 0.14731 -0.225786
41 1.29609 0 0 -0.0128754 -0.0450304 0.467355
42 1.62202 -0.000713348 -0.000470161 -0.0115064 -0.031251 0.721898
43 1.22241 0 0 -0.0111414 -0.00108553 0.721514
44 1.76707 -1.27612 0.0366402 -1.57003 0.19615 -0.261293
45 1.55588 0 0 0.0177365 0.0273541 0.280776
46 1.24273 0 0 0.000577198 0.00016176 0.406561
47 0.784531 0 0 -0.0133255 0.00939669 0.326556
48 0 0 0 0 0 0
49 -11.9339 -3.6963 -0.0554419 -1.26598 -0.302596 0.352458
50 0 0 1.57913 0 0 0
51 -0.059763 0 2.14219 1.5708 -0.465765 0
52 0.822426 0 0 0 0 -1.59206
53 1.65555 0 0 0 0 -0.179193
54 7.49851 -23.7443 -6.91791 -1.4632 -0.463181 1.64677
55 0.0770626 -0.26561 -0.835983 1.43128 -1.5609 -1.52466
56 0.0863285 0 0 0 0 -0.0269022
57 0.0814238 0 0 0 0 0.0456978
58 0.0570335 0 0 0 0 0.00642938
59 0.0658159 0 0 0 0 0.0372464
60 -0.0501747 0 2.09035 0 0.610865 0
61 0.342958 0 1.82042 0 0 0
time 1
0 1.938 2.55762 -11.5797 0 0 0
1 6.02794 0 0 -0.5004 -0.130412 -1.37123
2 11.7344 0 0 -0.00140282 0 -0.435717
3 8.81138 -0.000449181 -0.00011158 0.442198 0 0.000158118
4 5.77839 0.00028801 0 0.296273 0 0.000108159
5 2.23163 -0.000328064 -0.00036335 0.145925 0 0
6 11.4725 0 0 0.456902 0.109588 0.145215
7 0.615217 -0.993092 -0.8107 -3.04116 0.22238 -0.391512
8 2.24752 0 0 0.0112074 -0.108398 -0.303682
9 1.11936 0 0 0.0204077 0.0270484 -0.731349
10 3.71348 -0.102642 0.102191 1.49535 0.779969 0.00226476
11 1.72615 0 0 -0.017577 0.0131321 -1.04058
12 1.21114 0 0 -0.0171004 0.00431493 -1.92111
13 3.59919 -1.06012 0.0708876 1.63787 0.547383 0.0246556
14 1.66068 0 0 -0.0085155 0.0118077 -0.846763
15 1.167 0 0 0.0572052 0.0338719 -1.80228
16 2.18852 0.501038 0.0576591 1.57784 0.0392061 0.0764943
17 1.29609 0 0 -0.0709017 -0.00658753 -0.687149
18 1.62202 0.000714779 -0.000472069 -0.0117265 0.0209303 -0.943219
19 1.22241 0 0 -0.0457752 -0.0433286 -2.07488
20 1.76707 1.27612 0.0366402 1.5766 -0.115919 0.0379748
21 1.55588 0 0 -0.135821 -0.014092 -0.896439
22 1.24273 0 0 -0.000558321 0.000218797 -0.305885
23 0.784523 0 0 0.00999538 -0.0227605 -0.653503
24 -1.93761 -5.36671 -8.8609 -0.000932534 0 3.14159
25 6.02794 0 0 2.1884 0.135706 0.717382
26 11.7344 0 0 0.00140267 0 2.60797
27 8.81167 0 0 0.82527 0 0
28 5.77884 0 0 0.552931 0 0
29 2.23249 0 0 0.272339 0 0
30 11.4725 0 0 0.831371 0.749181 -1.46491
31 0.615813 0.994372 -0.809165 -2.86318 0.598594 0.607471
32 2.24752 0 0 -0.314823 0.0314862 0.197192
33 1.11936 0 0 0.0608471 0.19326 0.715848
34 3.71349 0.102639 0.102191 -1.55543 0.791171 -0.0684808
35 1.72615 0 0 -0.0112922 -0.0134945 0.755428
36 1.21112 0 0 0.00210111 0.0175106 0.716882
37 3.5992 1.06012 0.0708885 -1.55531 0.765325 0.0734698
38 1.66069 0 0 0.0175767 0.0298829 0.754142
39 1.16699 0 0 -0.0268534 -0.0208933 0.719122
40 2.18853 -0.50104 0.0576591 -1.57003 0.14731 -0.225786
41 1.29609 0 0 -0.0128753 -0.0450304 0.467355
42 1.62202 -0.000711441 -0.000470161 -0.0115063 -0.031251 0.721898
43 1.2224 0 0 -0.0111413 -0.00108556 0.721514
44 1.76707 -1.27612 0.0366411 -1.57003 0.19615 -0.261293
45 1.55588 0 0 0.0177363 0.0273541 0.280776
46 1.24273 0 0 0.000577254 0.00016181 0.406561
47 0.784531 0 0 -0.0133255 0.0093967 0.326556
48 0 0 0 0 0 0
49 -11.8264 -3.78649 -0.154829 -1.27137 -0.273556 0.361972
50 0 0 1.57913 0 0 0
51 -0.059763 0 2.14219 1.5708 -0.465765 0
52 0.822427 0 0 0 0 -1.59206
53 1.65555 0 0 0 0 -0.179192
54 7.51327 -23.8211 -6.92799 -1.46068 -0.463347 1.65125
55 0.0770645 -0.265609 -0.835982 1.43128 -1.5609 -1.52467
56 0.0863271 0 0 0 0 -0.0269022
57 0.0814247 0 0 0 0 0.0456978
58 0.0570354 0 0 0 0 0.00642938
59 0.0658159 0 0 0 0 0.0372464
60 -0.0501709 0 2.09035 0 0.610865 0
61 0.342958 0 1.82042 0 0 0
time 2
0 1.938 2.41798 -11.5797 0 0 0
1 6.02794 0 0 -0.496607 -0.133628 -1.38051
2 11.7344 0 0 -0.00140286 0 -0.416337
3 8.81138 -0.000451088 -0.000112057 0.438367 0 0.000157701
4 5.77839 0.000286102 0 0.293706 0 0.000107941
5 2.23163 -0.000329971 -0.000364304 0.144661 0 0
6 11.4725 0 0 0.4529 0.10004 0.149035
7 0.615219 -0.993091 -0.810699 -3.04116 0.22238 -0.391512
8 2.24752 0 0 0.0112074 -0.108398 -0.303682
9 1.11936 0 0 0.0204076 0.0270483 -0.731349
10 3.71348 -0.102641 0.10219 1.49535 0.779968 0.00226481
11 1.72615 0 0 -0.0175769 0.013132 -1.04058
12 1.21114 0 0 -0.0171003 0.00431498 -1.92111
13 3.59919 -1.06012 0.0708876 1.63787 0.547383 0.0246554
14 1.66069 0 0 -0.00851555 0.0118078 -0.846763
15 1.167 0 0 0.0572053 0.0338718 -1.80228
16 2.18853 0.501039 0.0576591 1.57784 0.039206 0.0764941
17 1.29609 0 0 -0.0709016 -0.0065875 -0.687148
18 1.62201 0.000714302 -0.000471115 -0.0117264 0.0209303 -0.943219
19 1.22241 0 0 -0.0457751 -0.0433286 -2.07488
20 1.76707 1.27612 0.0366402 1.5766 -0.115919 0.0379746
21 1.55588 0 0 -0.135821 -0.014092 -0.896439
22 1.24274 0 0 -0.000558301 0.00021886 -0.305886
23 0.784525 0 0 0.00999543 -0.0227605 -0.653504
24 -1.93761 -5.27078 -8.8609 -0.000932534 0 3.14159
25 6.02794 0 0 2.17802 0.158135 0.753373
26 11.7344 0 0 0.00140279 0 2.616
27 8.81167 0 0 0.857126 0 0
28 5.77884 0 0 0.574274 0 0
29 2.23249 0 0 0.282851 0 0
30 11.4725 0 0 0.844204 0.741892 -1.40577
31 0.615813 0.994372 -0.809164 -2.86318 0.598594 0.60747
32 2.24752 0 0 -0.314823 0.0314863 0.197192
33 1.11936 0 0 0.060847 0.19326 0.715848
34 3.71349 0.102639 0.102191 -1.55543 0.791171 -0.068481
35 1.72615 0 0 -0.0112924 -0.0134947 0.755428
36 1.21112 0 0 0.00210111 0.0175106 0.716882
37 3.5992 1.06012 0.0708885 -1.55531 0.765324 0.0734696
38 1.66069 0 0 0.0175766 0.0298828 0.754142
39 1.16699 0 0 -0.0268533 -0.0208932 0.719122
40 2.18853 -0.50104 0.0576591 -1.57003 0.14731 -0.225786
41 1.29609 0 0 -0.0128753 -0.0450304 0.467355
42 1.62202 -0.000713348 -0.000469923 -0.0115063 -0.0312509 0.721898
43 1.2224 0 0 -0.0111414 -0.00108558 0.721514
44 1.76707 -1.27612 0.0366421 -1.57003 0.19615 -0.261293
45 1.55588 0 0 0.0177363 0.027354 0.280776
46 1.24273 0 0 0.000577242 0.000161751 0.406561
47 0.784532 0 0 -0.0133254 0.00939685 0.326556
48 0 0 0 0 0 0
49 -11.7251 -3.87084 -0.258358 -1.27808 -0.245162 0.371299
50 0 0 1.57913 0 0 0
51 -0.0597639 0 2.14219 1.5708 -0.465765 0
52 0.822426 0 0 0 0 -1.59206
53 1.65555 0 0 0 0 -0.179192
54 7.55229 -24.023 -6.95417 -1.45403 -0.463692 1.66304
55 0.0770626 -0.26561 -0.835983 1.43126 -1.5609 -1.52465
56 0.0863271 0 0 0 0 -0.0269022
57 0.0814242 0 0 0 0 0.0456978
58 0.0570345 0 0 0 0 0.00642937
59 0.0658169 0 0 0 0 0.0372464
60 -0.0501709 0 2.09035 0 0.610865 0
61 0.34296 0 1.82042 0 0 0
time 3
0 1.938 2.22057 -11.5797 0 0 0
1 6.02794 0 0 -0.49123 -0.138191 -1.39388
2 11.7344 0 0 -0.0014028 0 -0.388502
3 8.81138 -0.000450134 -0.000112534 0.432958 0 0.000157342
4 5.77839 0.000285149 0 0.290082 0 0.000107525
5 2.23163 -0.000329018 -0.000364304 0.142876 0 0
6 11.4725 0 0 0.447022 0.0864168 0.154135
7 0.615219 -0.993091 -0.8107 -3.04116 0.22238 -0.391512
8 2.24752 0 0 0.0112074 -0.108398 -0.303682
9 1.11936 0 0 0.0204077 0.0270483 -0.731349
10 3.71348 -0.102641 0.102192 1.49535 0.779968 0.00226506
11 1.72614 0 0 -0.017577 0.0131323 -1.04058
12 1.21114 0 0 -0.0171004 0.004315 -1.92111
13 3.59919 -1.06012 0.0708876 1.63787 0.547383 0.0246555
14 1.66069 0 0 -0.00851549 0.011808 -0.846763
15 1.167 0 0 0.0572054 0.0338718 -1.80228
16 2.18852 0.50104 0.0576591 1.57784 0.039206 0.0764943
17 1.29609 0 0 -0.0709015 -0.00658739 -0.687149
18 1.62202 0.000713348 -0.000471115 -0.0117264 0.0209302 -0.943219
19 1.22241 0 0 -0.0457751 -0.0433285 -2.07488
20 1.76707 1.27612 0.0366402 1.5766 -0.115919 0.0379745
21 1.55588 0 0 -0.135821 -0.0140919 -0.896439
22 1.24274 0 0 -0.000558324 0.000218616 -0.305886
23 0.784521 0 0 0.00999535 -0.0227605 -0.653504
24 -1.93761 -5.12346 -8.8609 -0.000932534 0 3.14159
25 6.02794 0 0 2.17887 0.128012 0.73505
26 11.7344 0 0 0.00140266 0 2.60321
27 8.81167 0 0 0.76372 0 0
28 5.77884 0 0 0.511693 0 0
29 2.23249 0 0 0.252028 0 0
30 11.4725 0 0 0.79222 0.714606 -1.50216
31 0.615812 0.994372 -0.809165 -2.86318 0.598594 0.60747
32 2.24752 0 0 -0.314823 0.0314861 0.197192
33 1.11936 0 0 0.0608471 0.19326 0.715848
34 3.71349 0.102639 0.102191 -1.55543 0.791171 -0.068481
35 1.72615 0 0 -0.0112923 -0.0134945 0.755427
36 1.21112 0 0 0.00210104 0.0175106 0.716883
37 3.5992 1.06012 0.0708876 -1.55531 0.765324 0.0734698
38 1.66069 0 0 0.0175768 0.0298828 0.754142
39 1.16699 0 0 -0.0268535 -0.0208932 0.719122
40 2.18853 -0.50104 0.0576591 -1.57003 0.14731 -0.225786
41 1.29609 0 0 -0.0128753 -0.0450303 0.467354
42 1.62202 -0.000713348 -0.000470638 -0.0115064 -0.031251 0.721898
43 1.2224 0 0 -0.0111413 -0.00108562 0.721514
44 1.76707 -1.27612 0.0366411 -1.57003 0.19615 -0.261293
45 1.55587 0 0 0.0177363 0.0273541 0.280776
46 1.24273 0 0 0.000577307 0.000161768 0.406561
47 0.784531 0 0 -0.0133255 0.00939668 0.326556
48 0 0 0 0 0 0
49 -11.9339 -3.6963 -0.0554419 -1.26598 -0.302596 0.352458
50 0 0 1.57913 0 0 0
51 -0.059763 0 2.14219 1.5708 -0.465765 0
52 0.822426 0 0 0 0 -1.59206
53 1.65555 0 0 0 0 -0.179193
54 7.60768 -24.307 -6.99039 -1.44459 -0.463978 1.6797
55 0.0770645 -0.265611 -0.835984 1.43127 -1.5609 -1.52465
56 0.0863276 0 0 0 0 -0.0269022
57 0.0814242 0 0 0 0 0.0456978
58 0.0570354 0 0 0 0 0.00642937
59 0.0658159 0 0 0 0 0.0372465
60 -0.0501709 0 2.09035 0 0.610865 0
61 0.34296 0 1.82041 0 0 0
time 4
0 1.938 1.99426 -11.5797 0 0 0
1 6.02794 0 0 -0.484944 -0.1438 -1.41023
2 11.7344 0 0 -0.00140285 0 -0.354424
3 8.81138 -0.000450134 -0.000112057 0.426869 0 0.000158053
4 5.77839 0.000286102 0 0.286002 0 0.000107894
5 2.23163 -0.000329018 -0.000363827 0.140867 0 0
6 11.4725 0 0 0.439975 0.0705959 0.158762
7 0.615219 -0.993091 -0.810699 -3.04116 0.22238 -0.391512
8 2.24752 0 0 0.0112074 -0.108398 -0.303682
9 1.11936 0 0 0.0204077 0.0270483 -0.731349
10 3.71348 -0.102641 0.102191 1.49535 0.779968 0.00226539
11 1.72615 0 0 -0.0175769 0.013132 -1.04058
12 1.21114 0 0 -0.0171002 0.00431481 -1.92111
13 3.59919 -1.06012 0.0708885 1.63787 0.547383 0.0246555
14 1.66069 0 0 -0.00851555 0.0118078 -0.846763
15 1.167 0 0 0.0572052 0.0338717 -1.80228
16 2.18852 0.501039 0.0576591 1.57784 0.039206 0.0764942
17 1.29609 0 0 -0.0709018 -0.0065873 -0.687148
18 1.62202 0.000715256 -0.000472069 -0.0117265 0.0209302 -0.943219
19 1.22241 0 0 -0.0457749 -0.0433287 -2.07488
20 1.76707 1.27612 0.0366411 1.5766 -0.115919 0.0379747
21 1.55588 0 0 -0.135821 -0.014092 -0.896439
22 1.24273 0 0 -0.000558274 0.000218684 -0.305885
23 0.784523 0 0 0.00999528 -0.0227604 -0.653504
24 -1.93761 -4.93502 -8.8609 -0.000932534 0 3.14159
25 6.02794 0 0 2.22556 -0.000154063 0.583185
26 11.7344 0 0 0.00140259 0 2.53064
27 8.81167 0 0 0.323775 0 0
28 5.77884 0 0 0.216929 0 0
29 2.23249 0 0 0.106846 0 0
30 11.4725 0 0 0.677521 0.557568 -1.85232
31 0.615812 0.994372 -0.809164 -2.86318 0.598594 0.60747
32 2.24752 0 0 -0.314823 0.0314861 0.197192
33 1.11936 0 0 0.0608471 0.19326 0.715847
34 3.71348 0.102639 0.102192 -1.55543 0.791171 -0.068481
35 1.72615 0 0 -0.0112922 -0.0134945 0.755427
36 1.21112 0 0 0.00210104 0.0175107 0.716882
37 3.5992 1.06012 0.0708885 -1.55531 0.765325 0.0734698
38 1.66069 0 0 0.0175767 0.0298828 0.754142
39 1.16699 0 0 -0.0268533 -0.0208933 0.719122
40 2.18853 -0.50104 0.0576601 -1.57003 0.14731 -0.225786
41 1.29609 0 0 -0.0128753 -0.0450304 0.467355
42 1.62202 -0.000714302 -0.000469804 -0.0115064 -0.0312511 0.721898
43 1.2224 0 0 -0.0111412 -0.00108561 0.721514
44 1.76707 -1.27612 0.036643 -1.57003 0.19615 -0.261293
45 1.55588 0 0 0.0177364 0.0273541 0.280776
46 1.24273 0 0 0.00057718 0.000161673 0.406561
47 0.784531 0 0 -0.0133256 0.00939667 0.326556
48 0 0 0 0 0 0
49 -13.1109 -2.52939 0.528328 -1.28704 -0.584353 0.272406
50 0 0 1.57913 0 0 0
51 -0.0597639 0 2.14219 1.5708 -0.465765 0
52 0.822426 0 0 0 0 -1.59206
53 1.65555 0 0 0 0 -0.179192
54 7.67146 -24.6303 -7.03056 -1.43372 -0.463979 1.69875
55 0.0770645 -0.265609 -0.835983 1.43128 -1.5609 -1.52467
56 0.0863276 0 0 0 0 -0.0269023
57 0.0814238 0 0 0 0 0.0456978
58 0.0570354 0 0 0 0 0.00642934
59 0.0658154 0 0 0 0 0.0372464
60 -0.0501709 0 2.09035 0 0.610865 0
61 0.342958 0 1.82042 0 0 0
time 5
0 1.938 1.76796 -11.5797 0 0 0
1 6.02794 0 0 -0.478349 -0.150356 -1.42879
2 11.7344 0 0 -0.00140282 0 -0.315572
3 8.81139 -0.000449181 -0.000112534 0.421021 0 0.000157588
4 5.77839 0.000286102 0 0.282084 0 0.000107821
5 2.23163 -0.000329018 -0.000365257 0.138937 0 0
6 11.4725 0 0 0.432608 0.0544478 0.160792
7 0.615217 -0.99309 -0.8107 -3.04116 0.22238 -0.391512
8 2.24752 0 0 0.0112075 -0.108398 -0.303682
9 1.11936 0 0 0.0204077 0.0270484 -0.731349
10 3.71348 -0.10264 0.102191 1.49535 0.779968 0.00226489
11 1.72615 0 0 -0.017577 0.0131324 -1.04058
12 1.21114 0 0 -0.0171002 0.00431501 -1.92111
13 3.59919 -1.06012 0.0708876 1.63787 0.547383 0.0246556
14 1.66068 0 0 -0.00851547 0.0118078 -0.846763
15 1.167 0 0 0.0572052 0.0338719 -1.80228
16 2.18852 0.50104 0.0576582 1.57784 0.0392061 0.0764941
17 1.29609 0 0 -0.0709016 -0.00658743 -0.687149
18 1.62202 0.000714302 -0.000472069 -0.0117264 0.0209301 -0.943219
19 1.22241 0 0 -0.0457754 -0.0433286 -2.07488
20 1.76707 1.27612 0.0366411 1.5766 -0.115919 0.0379745
21 1.55588 0 0 -0.135821 -0.0140921 -0.896439
22 1.24274 0 0 -0.00055836 0.000218851 -0.305885
23 0.784525 0 0 0.00999542 -0.0227606 -0.653504
24 -1.93761 -4.71575 -8.8609 -0.000932534 0 3.14159
25 6.02794 0 0 2.32052 -0.135907 0.327403
26 11.7344 0 0 0.00140273 0 2.37334
27 8.81167 0 0 -0.331931 0 0
28 5.77884 0 0 -0.222394 0 0
29 2.23249 0 0 -0.109537 0 0
30 11.4725 0 0 0.784088 0.118252 -2.03629
31 0.615813 0.994372 -0.809165 -2.86318 0.598594 0.60747
32 2.24752 0 0 -0.314823 0.0314862 0.197192
33 1.11936 0 0 0.0608471 0.19326 0.715847
34 3.71349 0.102639 0.102191 -1.55543 0.791171 -0.0684811
35 1.72615 0 0 -0.0112922 -0.0134946 0.755428
36 1.21112 0 0 0.00210112 0.0175107 0.716882
37 3.5992 1.06012 0.0708876 -1.55531 0.765325 0.0734696
38 1.66069 0 0 0.0175768 0.0298827 0.754142
39 1.16699 0 0 -0.0268534 -0.0208932 0.719122
40 2.18853 -0.50104 0.0576587 -1.57003 0.14731 -0.225786
41 1.29609 0 0 -0.0128753 -0.0450304 0.467355
42 1.62202 -0.000713348 -0.0004704 -0.0115062 -0.031251 0.721898
43 1.2224 0 0 -0.0111415 -0.00108555 0.721515
44 1.76707 -1.27612 0.0366411 -1.57003 0.19615 -0.261293
45 1.55587 0 0 0.0177365 0.027354 0.280777
46 1.24273 0 0 0.000577292 0.000161771 0.406561
47 0.784531 0 0 -0.0133255 0.00939673 0.326556
48 0 0 0 0 0 0
49 -14.868 1.08631 0.436352 -1.78148 -1.00891 0.391151
50 0 0 1.57913 0 0 0
51 -0.059763 0 2.14219 1.5708 -0.465765 0
52 0.822426 0 0 0 0 -1.59206
53 1.65555 0 0 0 0 -0.179192
54 7.7355 -24.9513 -7.0687 -1.42279 -0.463497 1.71776
55 0.0770607 -0.265609 -0.835983 1.43126 -1.5609 -1.52465
56 0.0863283 0 0 0 0 -0.0269022
57 0.0814247 0 0 0 0 0.0456977
58 0.0570357 0 0 0 0 0.00642937
59 0.0658154 0 0 0 0 0.0372465
60 -0.0501728 0 2.09035 0 0.610865 0
61 0.342958 0 1.82041 0 0 0
time 6
0 1.938 1.57054 -11.5797 0 0 0
1 6.02794 0 0 -0.472331 -0.156758 -1.44667
2 11.7344 0 0 -0.0014029 0 -0.278058
3 8.81138 -0.000451088 -0.000112057 0.416086 0 0.000158049
4 5.77839 0.000286102 0 0.278778 0 0.00010797
5 2.23164 -0.000329018 -0.000363827 0.137309 0 0
6 11.4725 0 0 0.425931 0.0398207 0.160454
7 0.615215 -0.993092 -0.810699 -3.04116 0.22238 -0.391512
8 2.24752 0 0 0.0112074 -0.108398 -0.303682
9 1.11936 0 0 0.0204077 0.0270484 -0.731349
10 3.71348 -0.102641 0.102191 1.49535 0.779968 0.00226464
11 1.72615 0 0 -0.017577 0.0131322 -1.04058
12 1.21114 0 0 -0.0171003 0.00431493 -1.92111
13 3.59919 -1.06012 0.0708876 1.63787 0.547383 0.0246555
14 1.66068 0 0 -0.00851557 0.0118078 -0.846763
15 1.167 0 0 0.0572055 0.0338718 -1.80228
16 2.18852 0.501039 0.0576582 1.57784 0.039206 0.0764941
17 1.29609 0 0 -0.0709016 -0.00658724 -0.687148
18 1.62201 0.000713348 -0.000471115 -0.0117264 0.0209302 -0.943219
19 1.22241 0 0 -0.0457751 -0.0433286 -2.07488
20 1.76707 1.27612 0.0366411 1.5766 -0.115919 0.0379746
21 1.55588 0 0 -0.135821 -0.0140922 -0.896439
22 1.24273 0 0 -0.00055843 0.00021872 -0.305886
23 0.784523 0 0 0.00999533 -0.0227604 -0.653504
24 -1.93761 -4.47592 -8.8609 -0.000932534 0 3.14159
25 6.02794 0 0 2.41239 -0.221614 0.0672825
26 11.7344 0 0 0.00140275 0 2.16263
27 8.81167 0 0 -0.851939 0 0
28 5.77884 0 0 -0.570799 0 0
29 2.23249 0 0 -0.28114 0 0
30 11.4725 0 0 1.12352 -0.446091 -1.87225
31 0.615813 0.994372 -0.809165 -2.86318 0.598594 0.607471
32 2.24752 0 0 -0.314823 0.0314863 0.197192
33 1.11936 0 0 0.060847 0.19326 0.715847
34 3.71349 0.102639 0.102191 -1.55543 0.791171 -0.068481
35 1.72615 0 0 -0.0112922 -0.0134944 0.755427
36 1.21112 0 0 0.00210098 0.0175105 0.716882
37 3.5992 1.06012 0.0708883 -1.55531 0.765324 0.0734696
38 1.66069 0 0 0.0175765 0.0298828 0.754142
39 1.16699 0 0 -0.0268534 -0.0208932 0.719122
40 2.18853 -0.50104 0.0576589 -1.57003 0.14731 -0.225786
41 1.29609 0 0 -0.0128752 -0.0450304 0.467355
42 1.62202 -0.000714302 -0.000469506 -0.0115063 -0.0312509 0.721898
43 1.2224 0 0 -0.0111413 -0.00108554 0.721514
44 1.76707 -1.27612 0.0366414 -1.57003 0.19615 -0.261293
45 1.55587 0 0 0.0177364 0.0273541 0.280776
46 1.24273 0 0 0.000577222 0.000161725 0.406561
47 0.784532 0 0 -0.0133256 0.00939683 0.326556
48 0 0 0 0 0 0
49 -14.277 6.08866 -0.899335 -2.97006 -0.901974 0.934527
50 0 0 1.57913 0 0 0
51 -0.0597627 0 2.14219 1.5708 -0.465765 0
52 0.822427 0 0 0 0 -1.59206
53 1.65555 0 0 0 0 -0.179192
54 7.79153 -25.2295 -7.09888 -1.41314 -0.462373 1.73428
55 0.0770645 -0.26561 -0.835982 1.43126 -1.5609 -1.52465
56 0.0863273 0 0 0 0 -0.0269021
57 0.0814242 0 0 0 0 0.0456978
58 0.0570345 0 0 0 0 0.00642936
59 0.0658157 0 0 0 0 0.0372464
60 -0.0501709 0 2.09035 0 0.610865 0
61 0.34296 0 1.82041 0 0 0
time 7
0 1.938 1.43091 -11.5797 0 0 0
1 6.02794 0 0 -0.467805 -0.161998 -1.46095
2 11.7344 0 0 -0.0014029 0 -0.247982
3 8.81138 -0.000449181 -0.000112057 0.412827 0 0.000157375
4 5.77839 0.000287056 0 0.276594 0 0.00010752
5 2.23163 -0.000328064 -0.000363827 0.136233 0 0
6 11.4725 0 0 0.421078 0.028543 0.157964
7 0.615219 -0.993091 -0.8107 -3.04116 0.22238 -0.391512
8 2.24752 0 0 0.0112074 -0.108398 -0.303682
9 1.11936 0 0 0.0204076 0.0270483 -0.731349
10 3.71348 -0.102642 0.102191 1.49535 0.779968 0.00226455
11 1.72615 0 0 -0.017577 0.0131323 -1.04058
12 1.21114 0 0 -0.0171003 0.00431491 -1.92111
13 3.59919 -1.06012 0.0708885 1.63787 0.547383 0.0246554
14 1.66068 0 0 -0.00851549 0.0118078 -0.846762
15 1.167 0 0 0.0572053 0.033872 -1.80228
16 2.18852 0.50104 0.0576591 1.57784 0.0392061 0.0764941
17 1.29609 0 0 -0.0709016 -0.0065873 -0.687149
18 1.62202 0.000713348 -0.000470638 -0.0117264 0.0209301 -0.943219
19 1.22241 0 0 -0.0457752 -0.0433287 -2.07488
20 1.76707 1.27612 0.0366411 1.5766 -0.115919 0.0379745
21 1.55588 0 0 -0.135821 -0.014092 -0.896439
22 1.24273 0 0 -0.000558369 0.00021891 -0.305885
23 0.784525 0 0 0.00999538 -0.0227605 -0.653503
24 -1.93761 -4.22581 -8.8609 -0.000932534 0 3.14159
25 6.02794 0 0 2.46842 -0.287637 -0.109661
26 11.7344 0 0 0.00140275 0 1.97148
27 8.81167 0 0 -0.743905 0 0
28 5.77884 0 0 -0.498417 0 0
29 2.23249 0 0 -0.245489 0 0
30 11.4725 0 0 1.42082 -0.925724 -1.53373
31 0.615812 0.994371 -0.809165 -2.86318 0.598594 0.607471
32 2.24752 0 0 -0.314823 0.0314863 0.197192
33 1.11936 0 0 0.0608471 0.19326 0.715847
34 3.71349 0.102639 0.10219 -1.55543 0.791171 -0.0684808
35 1.72615 0 0 -0.0112923 -0.0134944 0.755428
36 1.21112 0 0 0.00210107 0.0175105 0.716882
37 3.5992 1.06012 0.070888 -1.55531 0.765324 0.0734697
38 1.66069 0 0 0.0175767 0.0298828 0.754142
39 1.16699 0 0 -0.0268533 -0.0208933 0.719122
40 2.18853 -0.50104 0.0576591 -1.57003 0.14731 -0.225786
41 1.29609 0 0 -0.0128754 -0.0450302 0.467355
42 1.62201 -0.000713348 -0.000469685 -0.0115063 -0.0312511 0.721898
43 1.2224 0 0 -0.0111414 -0.00108558 0.721515
44 1.76707 -1.27612 0.0366411 -1.57003 0.19615 -0.261293
45 1.55587 0 0 0.0177364 0.027354 0.280776
46 1.24273 0 0 0.000577181 0.000161825 0.406561
47 0.784531 0 0 -0.0133255 0.00939664 0.326556
48 0 0 0 0 0 0
49 -11.9928 8.50388 -2.12723 2.83892 -0.48292 0.698398
50 0 0 1.57913 0 0 0
51 -0.059763 0 2.14219 1.5708 -0.465765 0
52 0.822427 0 0 0 0 -1.59206
53 1.65555 0 0 0 0 -0.179192
54 7.83126 -25.4254 -7.11525 -1.40616 -0.46048 1.74589
55 0.0770664 -0.26561 -0.835982 1.43128 -1.5609 -1.52466
56 0.0863271 0 0 0 0 -0.0269022
57 0.081425 0 0 0 0 0.0456978
58 0.0570357 0 0 0 0 0.00642939
59 0.0658157 0 0 0 0 0.0372464
60 -0.0501728 0 2.09035 0 0.610865 0
61 0.34296 0 1.82041 0 0 0
time 8
0 1.938 1.37794 -11.5797 0 0 0
1 6.02794 0 0 -0.466041 -0.164139 -1.4667
2 11.7344 0 0 -0.00140285 0 -0.235874
3 8.81138 -0.000451088 -0.00011158 0.411899 0 0.000157363
4 5.77839 0.000285149 0 0.275972 0 0.000107626
5 2.23163 -0.000329018 -0.000363827 0.135927 0 0
6 11.4725 0 0 0.419222 0.0224279 0.155767
7 0.615217 -0.993091 -0.8107 -3.04116 0.22238 -0.391512
8 2.24752 0 0 0.0112074 -0.108398 -0.303682
9 1.11936 0 0 0.0204077 0.0270483 -0.731349
10 3.71348 -0.102641 0.102191 1.49535 0.779968 0.00226489
11 1.72615 0 0 -0.017577 0.013132 -1.04058
12 1.21114 0 0 -0.0171003 0.0043149 -1.92111
13 3.59919 -1.06012 0.0708876 1.63787 0.547382 0.0246552
14 1.66069 0 0 -0.00851554 0.0118081 -0.846763
15 1.167 0 0 0.0572052 0.0338718 -1.80228
16 2.18852 0.501039 0.0576591 1.57784 0.039206 0.0764942
17 1.29609 0 0 -0.0709016 -0.00658721 -0.687148
18 1.62202 0.000716209 -0.000470638 -0.0117263 0.0209301 -0.943219
19 1.22241 0 0 -0.0457751 -0.0433285 -2.07488
20 1.76707 1.27612 0.0366411 1.5766 -0.115919 0.0379746
21 1.55588 0 0 -0.135821 -0.014092 -0.896439
22 1.24274 0 0 -0.000558389 0.000218847 -0.305886
23 0.784521 0 0 0.00999541 -0.0227605 -0.653504
24 -1.93761 -3.9757 -8.8609 -0.000932534 0 3.14159
25 6.02794 0 0 2.48548 -0.356829 -0.151571
26 11.7344 0 0 0.0014027 0 1.8719
27 8.81167 0 0 1.28994 0 0
28 5.77884 0 0 0.864258 0 0
29 2.23249 0 0 0.425679 0 0
30 11.4725 0 0 1.4183 -1.16168 -1.21929
31 0.615813 0.994372 -0.809166 -2.86318 0.598594 0.60747
32 2.24752 0 0 -0.314823 0.0314862 0.197192
33 1.11936 0 0 0.060847 0.19326 0.715848
34 3.71348 0.10264 0.10219 -1.55543 0.791171 -0.0684811
35 1.72615 0 0 -0.0112922 -0.0134946 0.755428
36 1.21112 0 0 0.00210111 0.0175105 0.716882
37 3.5992 1.06012 0.0708871 -1.55531 0.765325 0.0734697
38 1.66069 0 0 0.0175766 0.0298829 0.754142
39 1.16699 0 0 -0.0268534 -0.0208933 0.719122
40 2.18853 -0.50104 0.0576587 -1.57003 0.14731 -0.225786
41 1.29609 0 0 -0.0128754 -0.0450303 0.467355
42 1.62202 -0.000712395 -0.000470161 -0.0115063 -0.0312511 0.721898
43 1.22241 0 0 -0.0111414 -0.00108552 0.721514
44 1.76707 -1.27612 0.0366406 -1.57003 0.19615 -0.261293
45 1.55587 0 0 0.0177363 0.0273541 0.280776
46 1.24273 0 0 0.000577146 0.000161802 0.406561
47 0.784531 0 0 -0.0133254 0.00939662 0.326556
48 0 0 0 0 0 0
49 -11.0613 8.78248 -2.17234 2.68562 -0.305099 0.482099
50 0 0 1.57913 0 0 0
51 -0.0597625 0 2.14219 1.5708 -0.465765 0
52 0.822426 0 0 0 0 -1.59206
53 1.65555 0 0 0 0 -0.179192
54 7.84636 -25.5 -7.11197 -1.40317 -0.457704 1.75014
55 0.0770664 -0.26561 -0.835983 1.43126 -1.5609 -1.52465
56 0.0863271 0 0 0 0 -0.0269023
57 0.0814238 0 0 0 0 0.0456978
58 0.0570354 0 0 0 0 0.00642939
59 0.0658162 0 0 0 0 0.0372464
60 -0.0501728 0 2.09035 0 0.610865 0
61 0.342958 0 1.82042 0 0 0
time 9
0 1.938 1.37794 -11.5797 0 0 0
1 6.02794 0 0 -0.466568 -0.16295 -1.46402
2 11.7344 0 0 -0.00140289 0 -0.241874
3 8.81138 -0.000451088 -0.000112057 0.412158 0 0.000157818
4 5.77839 0.000285149 0 0.276146 0 0.000107775
5 2.23163 -0.000329971 -0.000363827 0.136012 0 0
6 11.4725 0 0 0.419004 0.0204522 0.152617
7 0.615217 -0.99309 -0.8107 -3.04116 0.22238 -0.391512
8 2.24752 0 0 0.0112074 -0.108398 -0.303682
9 1.11936 0 0 0.0204077 0.0270483 -0.731349
10 3.71348 -0.102641 0.102191 1.49535 0.779968 0.00226468
11 1.72615 0 0 -0.017577 0.0131322 -1.04058
12 1.21114 0 0 -0.0171003 0.00431496 -1.92111
13 3.59919 -1.06012 0.0708876 1.63787 0.547383 0.0246556
14 1.66068 0 0 -0.00851557 0.0118079 -0.846763
15 1.167 0 0 0.0572053 0.0338717 -1.80228
16 2.18852 0.50104 0.0576582 1.57784 0.0392061 0.0764942
17 1.29609 0 0 -0.0709015 -0.00658719 -0.687148
18 1.62202 0.000713348 -0.000470638 -0.0117264 0.0209302 -0.943219
19 1.22241 0 0 -0.045775 -0.0433288 -2.07488
20 1.76707 1.27612 0.0366411 1.5766 -0.115919 0.0379747
21 1.55588 0 0 -0.135821 -0.0140922 -0.896439
22 1.24273 0 0 -0.000558319 0.000218978 -0.305885
23 0.784523 0 0 0.00999533 -0.0227606 -0.653503
24 -1.93761 -3.73587 -8.8609 -0.000932534 0 3.14159
25 6.02794 0 0 2.44016 -0.42311 -0.0179431
26 11.7344 0 0 0.00140277 0 1.88883
27 8.81167 0 0 -0.23985 0 0
28 5.77884 0 0 -0.160699 0 0
29 2.23249 0 0 -0.0791506 0 0
30 11.4725 0 0 1.30191 -1.10879 -1.35812
31 0.615814 0.994372 -0.809165 -2.86318 0.598594 0.607471
32 2.24752 0 0 -0.314823 0.0314862 0.197192
33 1.11936 0 0 0.0608471 0.19326 0.715848
34 3.71349 0.102639 0.102191 -1.55543 0.791171 -0.0684811
35 1.72615 0 0 -0.0112923 -0.0134945 0.755428
36 1.21112 0 0 0.00210117 0.0175106 0.716882
37 3.5992 1.06012 0.070888 -1.55531 0.765325 0.0734696
38 1.66069 0 0 0.0175767 0.0298829 0.754142
39 1.16699 0 0 -0.0268533 -0.0208933 0.719122
40 2.18853 -0.50104 0.0576591 -1.57003 0.14731 -0.225786
41 1.29609 0 0 -0.0128753 -0.0450303 0.467355
42 1.62202 -0.000712395 -0.000470161 -0.0115063 -0.031251 0.721898
43 1.2224 0 0 -0.0111413 -0.00108568 0.721514
44 1.76707 -1.27612 0.0366414 -1.57003 0.19615 -0.261293
45 1.55588 0 0 0.0177364 0.027354 0.280776
46 1.24273 0 0 0.000577303 0.000161678 0.406561
47 0.784533 0 0 -0.0133255 0.00939673 0.326556
48 0 0 0 0 0 0
49 -12.1408 8.55428 -0.909498 2.79172 -0.466991 0.705038
50 0 0 1.57913 0 0 0
51 -0.059763 0 2.14219 1.5708 -0.465765 0
52 0.822427 0 0 0 0 -1.59206
53 1.65555 0 0 0 0 -0.179192
54 7.82631 -25.4929 -7.09025 -1.40312 -0.453029 1.74546
55 0.0770645 -0.265609 -0.835982 1.43126 -1.5609 -1.52465
56 0.0863268 0 0 0 0 -0.0269022
57 0.0814238 0 0 0 0 0.0456978
58 0.0570347 0 0 0 0 0.00642935
59 0.0658152 0 0 0 0 0.0372464
60 -0.0501709 0 2.09035 0 0.610865 0
61 0.34296 0 1.82041 0 0 0
time 10
0 1.938 1.37794 -11.5797 0 0 0
1 6.02794 0 0 -0.469634 -0.155404 -1.44752
2 11.7344 0 0 -0.00140286 0 -0.278433
3 8.81138 -0.000450134 -0.000112534 0.411991 0 0.000157451
4 5.77839 0.000285149 0 0.276034 0 0.000107437
5 2.23163 -0.000329971 -0.00036478 0.135957 0 0
6 11.4725 0 0 0.419197 0.0209952 0.156552
7 0.615221 -0.99309 -0.8107 -3.04116 0.22238 -0.391512
8 2.24752 0 0 0.0112074 -0.108398 -0.303682
9 1.11936 0 0 0.0204077 0.0270483 -0.731349
10 3.71348 -0.10264 0.102191 1.49535 0.779968 0.00226514
11 1.72615 0 0 -0.017577 0.0131322 -1.04058
12 1.21114 0 0 -0.0171002 0.00431475 -1.92111
13 3.5992 -1.06012 0.0708876 1.63787 0.547383 0.0246555
14 1.66069 0 0 -0.00851557 0.011808 -0.846763
15 1.167 0 0 0.0572053 0.0338716 -1.80228
16 2.18853 0.50104 0.0576591 1.57784 0.039206 0.0764942
17 1.29609 0 0 -0.0709016 -0.00658731 -0.687148
18 1.62201 0.000714302 -0.000471115 -0.0117265 0.0209301 -0.943219
19 1.22241 0 0 -0.045775 -0.0433287 -2.07488
20 1.76707 1.27612 0.0366411 1.5766 -0.115919 0.0379746
21 1.55588 0 0 -0.135821 -0.014092 -0.896439
22 1.24274 0 0 -0.000558412 0.000218602 -0.305886
23 0.784523 0 0 0.00999529 -0.0227603 -0.653503
24 -1.93761 -3.5166 -8.8609 -0.000932534 0 3.14159
25 6.02794 0 0 2.30097 -0.434481 0.276403
26 11.7344 0 0 0.00140277 0 1.96682
27 8.81167 0 0 -0.986513 0 0
28 5.77884 0 0 -0.660964 0 0
29 2.23249 0 0 -0.325549 0 0
30 11.4725 0 0 1.14212 -0.81898 -1.71278
31 0.615813 0.994372 -0.809165 -2.86318 0.598594 0.60747
32 2.24752 0 0 -0.314823 0.0314862 0.197192
33 1.11936 0 0 0.060847 0.19326 0.715848
34 3.71349 0.102639 0.102191 -1.55543 0.791171 -0.0684811
35 1.72615 0 0 -0.0112923 -0.0134946 0.755427
36 1.21112 0 0 0.00210118 0.0175107 0.716882
37 3.5992 1.06012 0.0708879 -1.55531 0.765324 0.0734698
38 1.66069 0 0 0.0175767 0.0298828 0.754142
39 1.16699 0 0 -0.0268536 -0.0208934 0.719123
40 2.18853 -0.50104 0.0576589 -1.57003 0.14731 -0.225786
41 1.29609 0 0 -0.0128753 -0.0450304 0.467355
42 1.62202 -0.000711441 -0.000470042 -0.0115064 -0.0312511 0.721898
43 1.2224 0 0 -0.0111412 -0.00108551 0.721514
44 1.76707 -1.27612 0.0366412 -1.57003 0.19615 -0.261293
45 1.55587 0 0 0.0177365 0.0273541 0.280776
46 1.24273 0 0 0.00057728 0.000161713 0.406561
47 0.784531 0 0 -0.0133256 0.00939677 0.326556
48 0 0 0 0 0 0
49 -15.1008 6.15287 1.57023 -3.12218 -0.882771 1.0433
50 0 0 1.57913 0 0 0
51 -0.0597624 0 2.14219 1.5708 -0.465766 0
52 0.822426 0 0 0 0 -1.59206
53 1.65555 0 0 0 0 -0.179193
54 7.77518 -25.4374 -7.05933 -1.4048 -0.44623 1.73326
55 0.0770645 -0.26561 -0.835983 1.43126 -1.5609 -1.52465
56 0.0863283 0 0 0 0 -0.0269022
57 0.0814235 0 0 0 0 0.0456978
58 0.057035 0 0 0 0 0.00642935
59 0.0658154 0 0 0 0 0.0372465
60 -0.0501728 0 2.09035 0 0.610865 0
61 0.342958 0 1.82041 0 0 0
time 11
0 1.938 1.37794 -11.5797 0 0 0
1 6.02794 0 0 -0.476152 -0.138722 -1.41115
2 11.7344 0 0 -0.00140283 0 -0.35882
3 8.81138 -0.000449181 -0.00011158 0.411736 0 0.000157767
4 5.77839 0.000287056 0 0.275863 0 0.000107771
5 2.23164 -0.000328064 -0.000363827 0.135873 0 0
6 11.4725 0 0 0.421052 0.0249927 0.175985
7 0.615217 -0.99309 -0.810699 -3.04116 0.22238 -0.391512
8 2.24752 0 0 0.0112074 -0.108398 -0.303682
9 1.11936 0 0 0.0204077 0.0270483 -0.731349
10 3.71348 -0.10264 0.102191 1.49535 0.779968 0.00226493
11 1.72614 0 0 -0.017577 0.0131321 -1.04058
12 1.21114 0 0 -0.0171002 0.00431488 -1.92111
13 3.59919 -1.06012 0.0708885 1.63787 0.547383 0.0246554
14 1.66069 0 0 -0.00851552 0.0118079 -0.846763
15 1.167 0 0 0.0572052 0.0338717 -1.80228
16 2.18852 0.501039 0.0576591 1.57784 0.0392061 0.0764941
17 1.29609 0 0 -0.0709017 -0.00658733 -0.687148
18 1.62201 0.000712395 -0.000470638 -0.0117264 0.0209303 -0.943219
19 1.22241 0 0 -0.0457749 -0.0433285 -2.07488
20 1.76707 1.27612 0.0366411 1.5766 -0.115919 0.0379746
21 1.55588 0 0 -0.135821 -0.0140922 -0.896439
22 1.24273 0 0 -0.000558292 0.000218801 -0.305886
23 0.784523 0 0 0.00999537 -0.0227604 -0.653503
24 -1.93761 -3.32816 -8.8609 -0.000932534 0 3.14159
25 6.02794 0 0 2.10429 -0.325475 0.628584
26 11.7344 0 0 0.0014027 0 2.02863
27 8.81167 0 0 -0.552623 0 0
28 5.77884 0 0 -0.370257 0 0
29 2.23249 0 0 -0.182365 0 0
30 11.4725 0 0 0.873628 -0.361839 -1.76409
31 0.615812 0.994372 -0.809165 -2.86318 0.598594 0.60747
32 2.24752 0 0 -0.314823 0.0314864 0.197192
33 1.11936 0 0 0.0608471 0.19326 0.715848
34 3.71348 0.102639 0.102191 -1.55543 0.791171 -0.068481
35 1.72615 0 0 -0.0112922 -0.0134948 0.755428
36 1.21112 0 0 0.00210116 0.0175107 0.716882
37 3.5992 1.06012 0.0708878 -1.55531 0.765324 0.0734695
38 1.66069 0 0 0.0175766 0.0298826 0.754142
39 1.16699 0 0 -0.0268533 -0.0208932 0.719122
40 2.18853 -0.50104 0.0576591 -1.57003 0.14731 -0.225786
41 1.29609 0 0 -0.0128753 -0.0450304 0.467355
42 1.62202 -0.000713348 -0.000470161 -0.0115064 -0.0312511 0.721898
43 1.2224 0 0 -0.0111412 -0.00108563 0.721514
44 1.76707 -1.27612 0.0366409 -1.57003 0.19615 -0.261293
45 1.55587 0 0 0.0177363 0.027354 0.280776
46 1.24273 0 0 0.000577252 0.000161871 0.406561
47 0.784531 0 0 -0.0133256 0.00939659 0.326556
48 0 0 0 0 0 0
49 -16.9041 0.418323 4.26742 -1.95612 -1.12714 0.548677
50 0 0 1.57913 0 0 0
51 -0.0597627 0 2.14219 1.5708 -0.465766 0
52 0.822426 0 0 0 0 -1.59206
53 1.65555 0 0 0 0 -0.179192
54 7.70662 -25.285 -7.02544 -1.40932 -0.438364 1.71558
55 0.0770645 -0.26561 -0.835984 1.43126 -1.5609 -1.52465
56 0.0863283 0 0 0 0 -0.0269022
57 0.081423 0 0 0 0 0.0456978
58 0.057035 0 0 0 0 0.00642937
59 0.0658152 0 0 0 0 0.0372465
60 -0.0501747 0 2.09035 0 0.610865 0
61 0.34296 0 1.82042 0 0 0
time 12
0 1.938 1.37794 -11.5797 0 0 0
1 6.02794 0 0 -0.485359 -0.114145 -1.35745
2 11.7344 0 0 -0.00140289 0 -0.477422
3 8.81138 -0.000450134 -0.000112534 0.411866 0 0.000157918
4 5.77839 0.000286102 0 0.27595 0 0.000107886
5 2.23163 -0.000328064 -0.00036335 0.135916 0 0
6 11.4725 0 0 0.425755 0.0334611 0.209781
7 0.615219 -0.993091 -0.8107 -3.04116 0.22238 -0.391512
8 2.24752 0 0 0.0112074 -0.108398 -0.303682
9 1.11936 0 0 0.0204077 0.0270483 -0.731349
10 3.71348 -0.10264 0.102191 1.49535 0.779968 0.00226485
11 1.72615 0 0 -0.017577 0.0131321 -1.04058
12 1.21114 0 0 -0.0171003 0.00431489 -1.92111
13 3.59919 -1.06012 0.0708876 1.63787 0.547383 0.0246555
14 1.66069 0 0 -0.00851555 0.0118078 -0.846763
15 1.167 0 0 0.0572054 0.0338718 -1.80228
16 2.18853 0.501039 0.0576591 1.57784 0.0392061 0.0764943
17 1.29609 0 0 -0.0709016 -0.00658742 -0.687148
18 1.62202 0.000713825 -0.000472069 -0.0117265 0.0209303 -0.943219
19 1.22241 0 0 -0.0457751 -0.0433287 -2.07488
20 1.76707 1.27612 0.0366411 1.5766 -0.115919 0.0379747
21 1.55588 0 0 -0.135821 -0.0140921 -0.896439
22 1.24273 0 0 -0.000558278 0.000219105 -0.305885
23 0.784523 0 0 0.00999543 -0.0227607 -0.653503
24 -1.93761 -3.18084 -8.8609 -0.000932534 0 3.14159
25 6.02794 0 0 1.94135 -0.129755 0.899082
26 11.7344 0 0 0.00140261 0 1.98925
27 8.81167 0 0 0.151055 0 0
28 5.77884 0 0 0.101207 0 0
29 2.23249 0 0 0.0498479 0 0
30 11.4725 0 0 0.673417 0.0309718 -1.41786
31 0.615812 0.994372 -0.809166 -2.86318 0.598594 0.60747
32 2.24752 0 0 -0.314823 0.0314862 0.197192
33 1.11936 0 0 0.0608471 0.19326 0.715847
34 3.71348 0.102639 0.102191 -1.55543 0.791171 -0.068481
35 1.72615 0 0 -0.0112923 -0.0134945 0.755427
36 1.21112 0 0 0.00210111 0.0175106 0.716882
37 3.5992 1.06012 0.0708876 -1.55531 0.765325 0.0734697
38 1.66069 0 0 0.0175765 0.0298828 0.754142
39 1.16699 0 0 -0.0268534 -0.0208933 0.719123
40 2.18853 -0.50104 0.0576591 -1.57003 0.14731 -0.225786
41 1.29609 0 0 -0.0128753 -0.0450303 0.467355
42 1.62202 -0.000715256 -0.000469208 -0.0115064 -0.0312509 0.721898
43 1.2224 0 0 -0.0111413 -0.00108563 0.721514
44 1.76707 -1.27612 0.0366411 -1.57003 0.19615 -0.261293
45 1.55588 0 0 0.0177364 0.0273541 0.280776
46 1.24273 0 0 0.000577169 0.000161766 0.406561
47 0.784532 0 0 -0.0133254 0.00939674 0.326556
48 0 0 0 0 0 0
49 -16.1456 -5.29883 5.72145 -1.23802 -0.756435 0.237751
50 0 0 1.57913 0 0 0
51 -0.059763 0 2.14219 1.5708 -0.465765 0
52 0.822425 0 0 0 0 -1.59206
53 1.65555 0 0 0 0 -0.179192
54 7.63438 -24.9867 -6.99473 -1.41776 -0.430461 1.69444
55 0.0770645 -0.26561 -0.835982 1.43125 -1.5609 -1.52464
56 0.0863276 0 0 0 0 -0.0269022
57 0.0814238 0 0 0 0 0.0456978
58 0.0570345 0 0 0 0 0.00642937
59 0.0658154 0 0 0 0 0.0372464
60 -0.0501709 0 2.09035 0 0.610865 0
61 0.342958 0 1.82041 0 0 0
time 13
0 1.938 1.37794 -11.5797 0 0 0
1 6.02794 0 0 -0.49641 -0.0833393 -1.28997
2 11.7344 0 0 -0.00140284 0 -0.626413
3 8.81138 -0.000450134 -0.000111103 0.412398 0 0.000157857
4 5.77839 0.000284195 0 0.276307 0 0.000107712
5 2.23163 -0.000329971 -0.000363827 0.136091 0 0
6 11.4725 0 0 0.434495 0.0475651 0.255681
7 0.615219 -0.99309 -0.810699 -3.04116 0.22238 -0.391512
8 2.24752 0 0 0.0112074 -0.108398 -0.303682
9 1.11936 0 0 0.0204077 0.0270483 -0.731349
10 3.71348 -0.10264 0.102192 1.49535 0.779968 0.00226493
11 1.72615 0 0 -0.017577 0.0131322 -1.04058
12 1.21114 0 0 -0.0171003 0.00431484 -1.92111
13 3.59919 -1.06012 0.0708885 1.63787 0.547383 0.0246555
14 1.66068 0 0 -0.00851555 0.0118078 -0.846763
15 1.167 0 0 0.0572051 0.0338717 -1.80228
16 2.18852 0.50104 0.0576591 1.57784 0.0392061 0.0764942
17 1.29609 0 0 -0.0709015 -0.00658727 -0.687148
18 1.62202 0.000714779 -0.000471115 -0.0117264 0.0209303 -0.943219
19 1.22241 0 0 -0.0457752 -0.0433288 -2.07488
20 1.76707 1.27612 0.0366421 1.5766 -0.115919 0.0379746
21 1.55588 0 0 -0.135821 -0.014092 -0.896439
22 1.24273 0 0 -0.000558369 0.00021891 -0.305885
23 0.784525 0 0 0.0099954 -0.0227603 -0.653504
24 -1.93761 -3.08491 -8.8609 -0.000932534 0 3.14159
25 6.02794 0 0 1.82874 0.0267784 1.05574
26 11.7344 0 0 0.00140275 0 1.80771
27 8.81167 0 0 0.474278 0 0
28 5.77884 0 0 0.317766 0 0
29 2.23249 0 0 0.156512 0 0
30 11.4725 0 0 0.575127 0.136126 -0.901491
31 0.615812 0.994372 -0.809165 -2.86318 0.598594 0.607471
32 2.24752 0 0 -0.314823 0.0314862 0.197192
33 1.11936 0 0 0.0608471 0.19326 0.715847
34 3.71349 0.102638 0.102193 -1.55543 0.791171 -0.0684812
35 1.72615 0 0 -0.0112922 -0.0134946 0.755427
36 1.21112 0 0 0.00210098 0.0175106 0.716882
37 3.5992 1.06012 0.0708895 -1.55531 0.765325 0.0734698
38 1.66069 0 0 0.0175766 0.0298829 0.754142
39 1.16699 0 0 -0.0268534 -0.0208933 0.719122
40 2.18853 -0.50104 0.0576611 -1.57003 0.14731 -0.225786
41 1.29609 0 0 -0.0128753 -0.0450302 0.467355
42 1.62202 -0.000713348 -0.000470161 -0.0115064 -0.0312511 0.721898
43 1.2224 0 0 -0.0111414 -0.00108555 0.721514
44 1.76707 -1.27612 0.0366411 -1.57003 0.19615 -0.261293
45 1.55587 0 0 0.0177364 0.0273542 0.280776
46 1.24273 0 0 0.000577239 0.000161661 0.406561
47 0.784531 0 0 -0.0133255 0.00939673 0.326556
48 0 0 0 0 0 0
49 -15.4012 -9.80473 5.95352 -1.15752 -0.459914 0.240011
50 0 0 1.57913 0 0 0
51 -0.059763 0 2.14219 1.5708 -0.465766 0
52 0.822426 0 0 0 0 -1.59206
53 1.65555 0 0 0 0 -0.179192
54 7.57229 -24.4945 -6.97327 -1.43121 -0.423499 1.67184
55 0.0770664 -0.26561 -0.835982 1.43128 -1.5609 -1.52466
56 0.0863271 0 0 0 0 -0.0269022
57 0.0814242 0 0 0 0 0.0456978
58 0.0570359 0 0 0 0 0.00642938
59 0.0658154 0 0 0 0 0.0372464
60 -0.0501709 0 2.09035 0 0.610865 0
61 0.342962 0 1.82041 0 0 0
time 14
0 1.938 1.37794 -11.5797 0 0 0
1 6.02794 0 0 -0.508941 -0.047638 -1.21152
2 11.7344 0 0 -0.00140286 0 -0.799456
3 8.81138 -0.000448227 -0.000112534 0.41281 0 0.000157622
4 5.77839 0.00028801 0 0.276583 0 0.000107741
5 2.23163 -0.000328064 -0.00036478 0.136227 0 0
6 11.4725 0 0 0.448545 0.0687346 0.312188
7 0.615221 -0.993092 -0.810699 -3.04116 0.22238 -0.391512
8 2.24752 0 0 0.0112074 -0.108398 -0.303682
9 1.11935 0 0 0.0204077 0.0270482 -0.731349
10 3.71348 -0.102642 0.102192 1.49535 0.779968 0.00226485
11 1.72614 0 0 -0.017577 0.0131321 -1.04058
12 1.21114 0 0 -0.0171003 0.00431497 -1.92111
13 3.59919 -1.06012 0.0708885 1.63787 0.547383 0.0246554
14 1.66068 0 0 -0.00851565 0.0118079 -0.846763
15 1.167 0 0 0.0572051 0.0338717 -1.80228
16 2.18853 0.501038 0.0576591 1.57784 0.0392062 0.0764941
17 1.29609 0 0 -0.0709017 -0.00658739 -0.687148
18 1.62202 0.000714302 -0.000470161 -0.0117266 0.0209304 -0.943219
19 1.22241 0 0 -0.045775 -0.0433287 -2.07488
20 1.76707 1.27612 0.0366421 1.5766 -0.115919 0.0379747
21 1.55588 0 0 -0.135821 -0.014092 -0.896439
22 1.24273 0 0 -0.000558324 0.000218616 -0.305886
23 0.784523 0 0 0.00999534 -0.0227604 -0.653503
24 -1.93761 -3.05065 -8.8609 -0.000932534 0 3.14159
25 6.02794 0 0 1.74136 0.067724 1.13974
26 11.7344 0 0 0.00140272 0 1.50123
27 8.81167 0 0 0.430109 0 0
28 5.77884 0 0 0.288173 0 0
29 2.23249 0 0 0.141936 0 0
30 11.4725 0 0 0.504477 -0.0847583 -0.460144
31 0.615813 0.99437 -0.809164 -2.86318 0.598594 0.607471
32 2.24752 0 0 -0.314823 0.0314861 0.197192
33 1.11936 0 0 0.0608471 0.19326 0.715848
34 3.71348 0.102638 0.102191 -1.55543 0.791171 -0.0684811
35 1.72615 0 0 -0.0112923 -0.0134945 0.755428
36 1.21112 0 0 0.0021011 0.0175106 0.716882
37 3.5992 1.06012 0.0708876 -1.55531 0.765325 0.0734698
38 1.66069 0 0 0.0175765 0.0298829 0.754142
39 1.16699 0 0 -0.0268533 -0.0208933 0.719122
40 2.18853 -0.50104 0.0576591 -1.57003 0.14731 -0.225786
41 1.29609 0 0 -0.0128754 -0.0450304 0.467354
42 1.62201 -0.000713348 -0.000470638 -0.0115063 -0.031251 0.721898
43 1.2224 0 0 -0.0111413 -0.00108562 0.721514
44 1.76707 -1.27612 0.0366402 -1.57003 0.19615 -0.261293
45 1.55587 0 0 0.0177363 0.0273541 0.280776
46 1.24273 0 0 0.000577263 0.000161777 0.406561
47 0.784531 0 0 -0.0133255 0.00939673 0.326556
48 0 0 0 0 0 0
49 -15.6921 -13.9545 5.80053 -1.23617 -0.463547 0.14925
50 0 0 1.57913 0 0 0
51 -0.0597639 0 2.14219 1.5708 -0.465766 0
52 0.822426 0 0 0 0 -1.59206
53 1.65555 0 0 0 0 -0.179192
54 7.53422 -23.7608 -6.96695 -1.45079 -0.418375 1.64977
55 0.0770645 -0.26561 -0.835984 1.43125 -1.5609 -1.52463
56 0.086328 0 0 0 0 -0.0269022
57 0.0814247 0 0 0 0 0.0456978
58 0.0570354 0 0 0 0 0.00642937
59 0.0658159 0 0 0 0 0.0372465
60 -0.0501709 0 2.09035 0 0.610865 0
61 0.34296 0 1.82041 0 0 0
time 15
0 1.938 1.37794 -11.5797 0 0 0
1 6.02794 0 0 -0.523112 0.0540065 -1.01413
2 11.7344 0 0 -0.00140287 0 -1.1558
3 8.81138 -0.000450134 -0.000110626 0.390287 0 0.000157966
4 5.77839 0.000286102 0 0.261492 0 0.000107821
5 2.23163 -0.000329971 -0.00036335 0.128795 0 0
6 11.4725 0 0 0.47819 0.158108 0.428036
7 0.615218 -0.993092 -0.810699 -3.04116 0.22238 -0.391512
8 2.24752 0 0 0.0112075 -0.108398 -0.303682
9 1.11936 0 0 0.0204077 0.0270483 -0.731349
10 3.71348 -0.102641 0.102191 1.49535 0.779968 0.00226501
11 1.72615 0 0 -0.017577 0.0131321 -1.04058
12 1.21113 0 0 -0.0171001 0.00431496 -1.92111
13 3.59919 -1.06012 0.0708876 1.63787 0.547382 0.0246557
14 1.66068 0 0 -0.00851558 0.0118077 -0.846762
15 1.167 0 0 0.0572052 0.0338717 -1.80228
16 2.18852 0.501039 0.0576591 1.57784 0.0392059 0.0764943
17 1.29609 0 0 -0.0709016 -0.00658748 -0.687148
18 1.62201 0.000714779 -0.000471115 -0.0117265 0.0209303 -0.943219
19 1.22241 0 0 -0.045775 -0.0433286 -2.07488
20 1.76707 1.27612 0.0366411 1.5766 -0.115919 0.0379747
21 1.55588 0 0 -0.135821 -0.014092 -0.896439
22 1.24274 0 0 -0.000558351 0.000218792 -0.305885
23 0.784525 0 0 0.00999548 -0.0227607 -0.653503
24 -1.93761 -7.12029 -13.2589 -0.000932534 0 3.14159
25 6.02794 0 0 1.97834 -0.348917 1.32295
26 11.7344 0 0 0.0014027 0 1.10336
27 8.81167 0 0 -0.0164682 0 0
28 5.77884 0 0 -0.0110336 0 0
29 2.23249 0 0 -0.00543449 0 0
30 11.4725 0 0 0.0272173 -0.271814 -0.159871
31 0.615812 0.99437 -0.809166 -2.86318 0.598594 0.607471
32 2.24752 0 0 -0.314823 0.0314863 0.197192
33 1.11936 0 0 0.060847 0.19326 0.715847
34 3.71348 0.102636 0.10219 -1.55543 0.791171 -0.0684812
35 1.72615 0 0 -0.0112923 -0.0134946 0.755428
36 1.21112 0 0 0.00210103 0.0175106 0.716882
37 3.5992 1.06011 0.0708885 -1.55531 0.765324 0.0734696
38 1.66069 0 0 0.0175767 0.0298827 0.754142
39 1.16699 0 0 -0.0268534 -0.0208932 0.719122
40 2.18853 -0.501041 0.0576591 -1.57003 0.14731 -0.225786
41 1.29609 0 0 -0.0128753 -0.0450303 0.467355
42 1.62202 -0.000711441 -0.000471115 -0.0115064 -0.0312511 0.721898
43 1.2224 0 0 -0.0111414 -0.00108557 0.721514
44 1.76707 -1.27612 0.0366392 -1.57003 0.19615 -0.261293
45 1.55588 0 0 0.0177364 0.027354 0.280776
46 1.24273 0 0 0.00057721 0.000161667 0.406561
47 0.784532 0 0 -0.0133255 0.00939667 0.326556
48 0 0 0 0 0 0
49 -15.8631 -17.2998 5.41009 -1.42486 -0.591837 0.0269986
50 0 0 1.57913 0 0 0
51 -0.059762 0 2.14219 1.5708 -0.465766 0
52 0.822427 0 0 0 0 -1.59206
53 1.65555 0 0 0 0 -0.179192
54 8.28902 -21.8251 -7.81481 -1.50007 -0.469267 1.62803
55 0.0770645 -0.26561 -0.835983 1.43128 -1.5609 -1.52466
56 0.0863271 0 0 0 0 -0.0269022
57 0.0814233 0 0 0 0 0.0456978
58 0.057035 0 0 0 0 0.00642936
59 0.0658154 0 0 0 0 0.0372465
60 -0.0501709 0 2.09035 0 0.610865 0
61 0.34296 0 1.82041 0 0 0
time 16
0 1.938 1.37794 -11.5797 0 0 0
1 6.02794 0 0 -0.512775 0.222983 -0.69834
2 11.7344 0 0 -0.0014029 0 -1.59273
3 8.81138 -0.000452042 -0.000112534 0.358959 0 0.000157701
4 5.77839 0.000286102 0 0.240503 0 0.000107418
5 2.23163 -0.000328064 -0.000364304 0.118457 0 0
6 11.4725 0 0 0.536405 0.344616 0.511566
7 0.615219 -0.993093 -0.810699 -3.04116 0.22238 -0.391512
8 2.24752 0 0 0.0112074 -0.108398 -0.303682
9 1.11936 0 0 0.0204077 0.0270483 -0.731349
10 3.71348 -0.102642 0.102191 1.49535 0.779968 0.00226518
11 1.72615 0 0 -0.0175769 0.013132 -1.04058
12 1.21114 0 0 -0.0171004 0.00431482 -1.92111
13 3.59919 -1.06012 0.0708866 1.63787 0.547383 0.0246555
14 1.66069 0 0 -0.00851549 0.011808 -0.846763
15 1.167 0 0 0.0572052 0.0338718 -1.80228
16 2.18852 0.501039 0.0576591 1.57784 0.0392061 0.0764943
17 1.29609 0 0 -0.0709016 -0.00658723 -0.687148
18 1.62202 0.000713348 -0.000470161 -0.0117264 0.0209302 -0.943219
19 1.22241 0 0 -0.0457751 -0.0433287 -2.07488
20 1.76707 1.27612 0.0366411 1.5766 -0.115919 0.0379748
21 1.55588 0 0 -0.135821 -0.0140921 -0.896439
22 1.24273 0 0 -0.00055831 0.000218919 -0.305885
23 0.784521 0 0 0.00999543 -0.0227607 -0.653504
24 -1.93761 -11.1899 -17.6569 -0.000932534 0 3.14159
25 6.02794 0 0 2.3355 -0.828981 1.38608
26 11.7344 0 0 0.0014027 0 0.527532
27 8.81167 0 0 -0.5996 0 0
28 5.77884 0 0 -0.401732 0 0
29 2.23249 0 0 -0.197868 0 0
30 11.4725 0 0 -0.685584 -0.171633 0.427534
31 0.615814 0.994371 -0.809165 -2.81071 0.556291 0.614859
32 2.24752 0 0 -0.291755 0.0294308 0.173458
33 1.11936 0 0 0.0445095 0.197985 0.634466
34 3.71349 0.102636 0.102191 -1.55662 0.70452 -0.0702262
35 1.72615 0 0 -0.0101529 -0.0156751 0.680954
36 1.21112 0 0 0.000791828 0.0176184 0.642371
37 3.5992 1.06012 0.0708869 -1.55637 0.685901 0.0718822
38 1.66069 0 0 0.0144123 0.0366681 0.67499
39 1.16699 0 0 -0.0215726 -0.0131118 0.640277
40 2.18853 -0.501041 0.0576582 -1.57003 0.126565 -0.225802
41 1.29609 0 0 -0.0108644 -0.0455569 0.422948
42 1.62202 -0.000715256 -0.000471115 -0.00856633 -0.0327512 0.646183
43 1.2224 0 0 -0.011523 -0.00354411 0.645874
44 1.76707 -1.27612 0.0366406 -1.57003 0.172693 -0.261312
45 1.55587 0 0 0.0169942 0.0278211 0.253869
46 1.24273 0 0 0.000570484 0.000184034 0.367859
47 0.784532 0 0 -0.013679 0.0088741 0.287856
48 0 0 0 0 0 0
49 -14.7708 -20.209 5.02175 -1.50965 -0.658416 -0.175466
50 0 0 1.57913 0 0 0
51 -0.059763 0 2.14219 1.5708 -0.465766 0
52 0.822426 0 0 0 0 -1.59206
53 1.65555 0 0 0 0 -0.179192
54 10.1401 -18.3991 -9.82225 -1.59561 -0.593064 1.61436
55 0.0770645 -0.26561 -0.835983 1.43126 -1.5609 -1.52465
56 0.0863276 0 0 0 0 -0.0269022
57 0.0814228 0 0 0 0 0.0456978
58 0.0570354 0 0 0 0 0.00642937
59 0.065815 0 0 0 0 0.0372464
60 -0.0501709 0 2.09035 0 0.610865 0
61 0.34296 0 1.82041 0 0 0
time 17
0 1.938 1.37794 -11.5797 0 0 0
1 6.02794 0 0 -0.470363 0.421335 -0.330068
2 11.7344 0 0 -0.00140282 0 -1.92086
3 8.81138 -0.000452042 -0.000112534 0.45608 0 0.000157707
4 5.77839 0.000286102 0 0.305573 0 0.000108038
5 2.23163 -0.000329971 -0.000363827 0.150506 0 0
6 11.4725 0 0 0.63622 0.592572 0.468636
7 0.61522 -0.993093 -0.8107 -3.04116 0.22238 -0.391512
8 2.24752 0 0 0.0112073 -0.108398 -0.303682
9 1.11936 0 0 0.0204077 0.0270483 -0.731349
10 3.71348 -0.102643 0.102191 1.49535 0.779968 0.00226493
11 1.72615 0 0 -0.017577 0.0131321 -1.04058
12 1.21114 0 0 -0.0171002 0.00431486 -1.92111
13 3.59919 -1.06012 0.0708885 1.63787 0.547383 0.0246554
14 1.66069 0 0 -0.00851552 0.0118079 -0.846763
15 1.167 0 0 0.0572053 0.0338717 -1.80228
16 2.18852 0.501038 0.0576591 1.57784 0.0392059 0.0764941
17 1.29609 0 0 -0.0709015 -0.0065874 -0.687148
18 1.62202 0.000714302 -0.000472069 -0.0117266 0.0209302 -0.943219
19 1.22241 0 0 -0.0457749 -0.0433287 -2.07488
20 1.76707 1.27612 0.0366411 1.5766 -0.115919 0.0379744
21 1.55588 0 0 -0.135821 -0.014092 -0.896439
22 1.24273 0 0 -0.000558371 0.000218729 -0.305885
23 0.784523 0 0 0.00999535 -0.0227605 -0.653504
24 -1.93761 -9.85723 -15.3765 -0.000932534 0 3.14159
25 6.02794 0 0 2.03511 -0.556567 1.49229
26 11.7344 0 0 0.00140261 0 0.629503
27 8.81167 0 0 -0.785947 0 0
28 5.77884 0 0 -0.526585 0 0
29 2.23249 0 0 -0.259362 0 0
30 11.4725 0 0 -0.884251 -0.25138 0.477206
31 0.615811 0.994371 -0.809166 -2.68299 0.454991 0.632927
32 2.24752 0 0 -0.236547 0.0244645 0.116872
33 1.11936 0 0 0.00448785 0.203907 0.439938
34 3.71349 0.102638 0.102191 -1.5585 0.497888 -0.0735369
35 1.72615 0 0 -0.00711056 -0.020326 0.503339
36 1.21112 0 0 -0.00233448 0.017481 0.46469
37 3.5992 1.06012 0.0708876 -1.5581 0.496505 0.068793
38 1.66069 0 0 0.00606507 0.0510488 0.48598
39 1.16699 0 0 -0.0099655 0.00476073 0.452167
40 2.18853 -0.501041 0.0576601 -1.57004 0.0770961 -0.22584
41 1.29609 0 0 -0.0059898 -0.0464493 0.317049
42 1.62201 -0.000712872 -0.000471115 -0.00138714 -0.0354171 0.465605
43 1.2224 0 0 -0.0119525 -0.00914387 0.465488
44 1.76707 -1.27612 0.0366421 -1.57004 0.116758 -0.261354
45 1.55588 0 0 0.0151754 0.0288533 0.189704
46 1.24273 0 0 0.00055118 0.000235699 0.275571
47 0.784533 0 0 -0.0144387 0.00757585 0.195574
48 0 0 0 0 0 0
49 -12.528 -23.9302 5.10805 -1.1449 -0.493849 -0.574267
50 0 0 1.57913 0 0 0
51 -0.0597649 0 2.14219 1.5708 -0.465766 0
52 0.822425 0 0 0 0 -1.59206
53 1.65555 0 0 0 0 -0.179192
54 12.4091 -14.4882 -12.1856 -1.72574 -0.735576 1.6237
55 0.0770645 -0.265611 -0.835982 1.4313 -1.5609 -1.52469
56 0.0863276 0 0 0 0 -0.0269022
57 0.0814247 0 0 0 0 0.0456978
58 0.0570345 0 0 0 0 0.0064294
59 0.0658159 0 0 0 0 0.0372464
60 -0.0501709 0 2.09035 0 0.610865 0
61 0.34296 0 1.82041 0 0 0
time 18
0 1.938 1.37794 -11.5797 0 0 0
1 6.02794 0 0 -0.467652 0.649849 -0.0180936
2 11.7344 0 0 -0.00140284 0 -2.0743
3 8.81138 -0.000452042 -0.00011158 0.849157 0 0.000158086
4 5.77839 0.000284195 0 0.568935 0 0.000110791
5 2.23164 -0.000329971 -0.00036335 0.280222 0 0
6 11.4725 0 0 0.831461 0.89417 0.395726
7 0.615219 -0.993092 -0.8107 -3.04116 0.22238 -0.391512
8 2.24752 0 0 0.0112074 -0.108398 -0.303682
9 1.11936 0 0 0.0204076 0.0270483 -0.731349
10 3.71348 -0.102642 0.10219 1.49535 0.779968 0.00226514
11 1.72615 0 0 -0.0175769 0.0131321 -1.04058
12 1.21114 0 0 -0.0171005 0.00431466 -1.92111
13 3.59919 -1.06012 0.0708885 1.63787 0.547383 0.0246557
14 1.66069 0 0 -0.00851539 0.0118077 -0.846763
15 1.167 0 0 0.0572053 0.0338718 -1.80228
16 2.18852 0.50104 0.0576591 1.57784 0.0392061 0.0764943
17 1.29609 0 0 -0.0709016 -0.00658731 -0.687148
18 1.62202 0.000713348 -0.000473022 -0.0117265 0.0209302 -0.943219
19 1.22241 0 0 -0.0457751 -0.0433287 -2.07488
20 1.76707 1.27612 0.0366411 1.5766 -0.115919 0.0379749
21 1.55588 0 0 -0.135821 -0.0140921 -0.896439
22 1.24273 0 0 -0.000558312 0.000218738 -0.305885
23 0.784523 0 0 0.00999535 -0.0227605 -0.653504
24 -1.93761 -7.38219 -11.1414 -0.000932534 0 3.14159
25 6.02794 0 0 1.45519 -0.240999 1.46538
26 11.7344 0 0 0.00140269 0 0.663432
27 8.81167 0 0 -0.912452 0 0
28 5.77884 0 0 -0.611343 0 0
29 2.23249 0 0 -0.301109 0 0
30 11.4725 0 0 -0.94545 -0.230709 0.295116
31 0.615813 0.994373 -0.809164 -2.52613 0.333487 0.654777
32 2.24752 0 0 -0.170282 0.0184363 0.0493524
33 1.11936 0 0 -0.043488 0.200971 0.207589
34 3.71349 0.10264 0.102192 -1.55964 0.251259 -0.0766356
35 1.72615 0 0 -0.00304276 -0.0247867 0.291298
36 1.21112 0 0 -0.00596139 0.0165983 0.252624
37 3.5992 1.06012 0.0708885 -1.55921 0.270448 0.0658393
38 1.66069 0 0 -0.00481837 0.0646972 0.259932
39 1.16699 0 0 0.0022991 0.0245531 0.227413
40 2.18853 -0.50104 0.0576611 -1.57004 0.0180527 -0.225885
41 1.29609 0 0 0 -0.0468337 0.190647
42 1.62202 -0.000711441 -0.000470161 0.00722593 -0.0368947 0.25004
43 1.2224 0 0 -0.0116667 -0.0152121 0.250157
44 1.76707 -1.27612 0.0366421 -1.57004 0.0499968 -0.261405
45 1.55588 0 0 0.0129236 0.0299295 0.113115
46 1.24273 0 0 0.000521924 0.000294893 0.165421
47 0.784533 0 0 -0.0151839 0.00594284 0.0854337
48 0 0 0 0 0 0
49 -7.86783 -28.0188 4.13344 -0.997057 0.220674 -0.825207
50 0 0 1.57913 0 0 0
51 -0.059761 0 2.14219 1.5708 -0.465765 0
52 0.822426 0 0 0 0 -1.59206
53 1.65555 0 0 0 0 -0.179193
54 14.3692 -11.233 -14.1254 -1.85846 -0.848237 1.6567
55 0.0770645 -0.26561 -0.835981 1.43128 -1.5609 -1.52467
56 0.0863276 0 0 0 0 -0.0269022
57 0.0814247 0 0 0 0 0.0456978
58 0.0570364 0 0 0 0 0.00642934
59 0.0658178 0 0 0 0 0.0372464
60 -0.0501709 0 2.09035 0 0.610865 0
61 0.34296 0 1.82041 0 0 0
time 19
0 1.938 1.37794 -11.5797 0 0 0
1 6.02794 0 0 -0.574274 0.829745 0.0492823
2 11.7344 0 0 -0.00140284 0 -2.10312
3 8.81138 -0.000450134 -0.00011301 1.25389 0 0.000157596
4 5.77839 0.000286102 0 0.840108 0 0.000113176
5 2.23163 -0.000329971 -0.000364304 0.413784 0 0
6 11.4725 0 0 1.12753 1.11005 0.535038
7 0.615219 -0.993091 -0.810701 -3.04116 0.22238 -0.391512
8 2.24752 0 0 0.0112074 -0.108398 -0.303682
9 1.11936 0 0 0.0204077 0.0270485 -0.731349
10 3.71348 -0.10264 0.10219 1.49535 0.779968 0.00226497
11 1.72615 0 0 -0.0175768 0.0131321 -1.04058
12 1.21113 0 0 -0.0171004 0.00431509 -1.92111
13 3.59919 -1.06012 0.0708866 1.63787 0.547383 0.0246555
14 1.66069 0 0 -0.00851553 0.0118077 -0.846763
15 1.167 0 0 0.0572054 0.0338719 -1.80228
16 2.18852 0.50104 0.0576591 1.57784 0.0392059 0.0764941
17 1.29609 0 0 -0.0709015 -0.00658725 -0.687148
18 1.62202 0.000713348 -0.000468254 -0.0117262 0.0209299 -0.943219
19 1.22241 0 0 -0.0457754 -0.0433287 -2.07488
20 1.76707 1.27612 0.0366402 1.5766 -0.115919 0.0379747
21 1.55588 0 0 -0.135821 -0.0140921 -0.896439
22 1.24273 0 0 -0.000558321 0.000218797 -0.305885
23 0.784523 0 0 0.00999545 -0.0227606 -0.653503
24 -1.93761 -6.04947 -8.8609 -0.000932534 0 3.14159
25 6.02794 0 0 0.919152 -0.230439 1.51503
26 11.7344 0 0 0.00140279 0 0.428575
27 8.81167 0 0 -0.546947 0 0
28 5.77884 0 0 -0.366455 0 0
29 2.23249 0 0 -0.180492 0 0
30 11.4725 0 0 -0.55189 0.00349153 -0.14318
31 0.615814 0.994371 -0.809165 -2.39124 0.231371 0.672867
32 2.24752 0 0 -0.114448 0.0133197 -0.00720655
33 1.11936 0 0 -0.0822309 0.190316 0.0134767
34 3.71349 0.102638 0.102192 -1.55998 0.0446217 -0.078926
35 1.72615 0 0 0.000552907 -0.0275577 0.113607
36 1.21112 0 0 -0.00880113 0.0152835 0.0749523
37 3.5992 1.06012 0.0708871 -1.55959 0.0810466 0.0636507
38 1.66069 0 0 -0.0141063 0.0730872 0.0702219
39 1.16699 0 0 0.0115202 0.0396037 0.0388638
40 2.18853 -0.501041 0.0576591 -1.57004 -0.0314165 -0.225923
41 1.29609 0 0 0.00486081 -0.046581 0.084741
42 1.62202 -0.000712872 -0.000471115 0.0142147 -0.0367253 0.0694212
43 1.22241 0 0 -0.0108687 -0.019662 0.069712
44 1.76707 -1.27612 0.0366411 -1.57004 -0.00593855 -0.261447
45 1.55587 0 0 0.0109779 0.0306963 0.0489425
46 1.24273 0 0 0.000492609 0.000341695 0.0731333
47 0.784529 0 0 -0.0156668 0.00451817 -0.00684448
48 0 0 0 0 0 0
49 -4.20397 -30.6367 0.546301 -0.38227 0.869932 -0.374094
50 0 0 1.57913 0 0 0
51 -0.059763 0 2.14219 1.5708 -0.465765 0
52 0.822426 0 0 0 0 -1.59206
53 1.65555 0 0 0 0 -0.179192
54 15.2091 -9.87152 -14.9251 -1.92282 -0.893038 1.67945
55 0.0770645 -0.26561 -0.835982 1.43126 -1.5609 -1.52465
56 0.0863276 0 0 0 0 -0.0269022
57 0.0814228 0 0 0 0 0.0456978
58 0.0570354 0 0 0 0 0.00642932
59 0.065815 0 0 0 0 0.0372465
60 -0.0501728 0 2.09035 0 0.610865 0
61 0.34296 0 1.82042 0 0 0
time 20
0 1.938 1.37794 -11.5797 0 0 0
1 6.02794 0 0 -0.574274 0.829745 0.0492823
2 11.7344 0 0 -0.00140284 0 -2.10312
3 8.81138 -0.000450134 -0.00011301 1.25389 0 0.000157596
4 5.77839 0.000286102 0 0.840108 0 0.000113176
5 2.23163 -0.000329971 -0.000364304 0.413784 0 0
6 11.4725 0 0 1.12753 1.11005 0.535038
7 0.615219 -0.993091 -0.810701 -3.04116 0.22238 -0.391512
8 2.24752 0 0 0.0112074 -0.108398 -0.303682
9 1.11936 0 0 0.0204077 0.0270485 -0.731349
10 3.71348 -0.10264 0.10219 1.49535 0.779968 0.00226497
11 1.72615 0 0 -0.0175768 0.0131321 -1.04058
12 1.21113 0 0 -0.0171004 0.00431509 -1.92111
13 3.59919 -1.06012 0.0708866 1.63787 0.547383 0.0246555
14 1.66069 0 0 -0.00851553 0.0118077 -0.846763
15 1.167 0 0 0.0572054 0.0338719 -1.80228
16 2.18852 0.50104 0.0576591 1.57784 0.0392059 0.0764941
17 1.29609 0 0 -0.0709015 -0.00658725 -0.687148
18 1.62202 0.000713348 -0.000468254 -0.0117262 0.0209299 -0.943219
19 1.22241 0 0 -0.0457754 -0.0433287 -2.07488
20 1.76707 1.27612 0.0366402 1.5766 -0.115919 0.0379747
21 1.55588 0 0 -0.135821 -0.0140921 -0.896439
22 1.24273 0 0 -0.000558321 0.000218797 -0.305885
23 0.784523 0 0 0.00999545 -0.0227606 -0.653503
24 -1.93761 -6.04947 -8.8609 -0.000932534 0 3.14159
25 6.02794 0 0 0.719306 -0.144762 1.53332
26 11.7344 0 0 0.00140272 0 0.498515
27 8.81167 0 0 -0.584061 0 0
28 5.77884 0 0 -0.391321 0 0
29 2.23249 0 0 -0.19274 0 0
30 11.4725 0 0 -0.595021 0.227229 -0.123324
31 0.61581 0.994371 -0.809164 -2.33375 0.188502 0.680307
32 2.24752 0 0 -0.0909467 0.0111603 -0.0309225
33 1.11936 0 0 -0.0983525 0.183736 -0.0676375
34 3.71348 0.102639 0.102191 -1.55999 -0.0420337 -0.0798625
35 1.72615 0 0 0.00207072 -0.0284524 0.0390827
36 1.21112 0 0 -0.00991445 0.0145859 0.000446809
37 3.5992 1.06012 0.070889 -1.55963 0.00161941 0.062762
38 1.66069 0 0 -0.0179103 0.075781 -0.00940121
39 1.16699 0 0 0.0151707 0.045457 -0.0402751
40 2.18853 -0.50104 0.0576596 -1.57004 -0.0521616 -0.225938
41 1.29609 0 0 0.00692327 -0.0463196 0.0403296
42 1.62201 -0.000713348 -0.000469208 0.0170534 -0.0362867 -0.00632051
43 1.22241 0 0 -0.0104111 -0.0213343 -0.00596815
44 1.76707 -1.27612 0.0366411 -1.57004 -0.0293956 -0.261465
45 1.55587 0 0 0.010148 0.0309805 0.0220302
46 1.24273 0 0 0.000479093 0.000360639 0.0344315
47 0.784533 0 0 -0.0158299 0.00390864 -0.0455417
48 0 0 0 0 0 0
49 -2.77608 -30.4882 -29.0092 -0.269562 1.20403 -0.158185
50 0 0 0.157911 0 0 0
51 -0.00597763 0 0.214217 1.5708 -0.465765 0
52 0.082243 0 0 0 0 -1.59206
53 0.165556 0 0 0 0 -0.179192
54 15.2091 -9.87152 -14.9251 -1.92282 -0.893038 1.67945
55 0.0770645 -0.26561 -0.835982 1.43126 -1.5609 -1.52465
56 0.0863276 0 0 0 0 -0.0269022
57 0.0814228 0 0 0 0 0.0456978
58 0.0570354 0 0 0 0 0.00642932
59 0.065815 0 0 0 0 0.0372465
60 -0.0501728 0 2.09035 0 0.610865 0
61 0.34296 0 1.82042 0 0 0
time 21
0 1.938 1.37794 -11.5797 0 0 0
1 6.02794 0 0 -0.574274 0.829745 0.0492823
2 11.7344 0 0 -0.00140284 0 -2.10312
3 8.81138 -0.000450134 -0.00011301 1.25389 0 0.000157596
4 5.77839 0.000286102 0 0.840108 0 0.000113176
5 2.23163 -0.000329971 -0.000364304 0.413784 0 0
6 11.4725 0 0 1.12753 1.11005 0.535038
7 0.615219 -0.993091 -0.810701 -3.04116 0.22238 -0.391512
8 2.24752 0 0 0.0112074 -0.108398 -0.303682
9 1.11936 0 0 0.0204077 0.0270485 -0.731349
10 3.71348 -0.10264 0.10219 1.49535 0.779968 0.00226497
11 1.72615 0 0 -0.0175768 0.0131321 -1.04058
12 1.21113 0 0 -0.0171004 0.00431509 -1.92111
13 3.59919 -1.06012 0.0708866 1.63787 0.547383 0.0246555
14 1.66069 0 0 -0.00851553 0.0118077 -0.846763
15 1.167 0 0 0.0572054 0.0338719 -1.80228
16 2.18852 0.50104 0.0576591 1.57784 0.0392059 0.0764941
17 1.29609 0 0 -0.0709015 -0.00658725 -0.687148
18 1.62202 0.000713348 -0.000468254 -0.0117262 0.0209299 -0.943219
19 1.22241 0 0 -0.0457754 -0.0433287 -2.07488
20 1.76707 1.27612 0.0366402 1.5766 -0.115919 0.0379747
21 1.55588 0 0 -0.135821 -0.0140921 -0.896439
22 1.24273 0 0 -0.000558321 0.000218797 -0.305885
23 0.784523 0 0 0.00999545 -0.0227606 -0.653503
24 -1.93761 -6.04947 -8.8609 -0.000932534 0 3.14159
25 6.02794 0 0 0.606032 0.0142616 1.4874
26 11.7344 0 0 0.0014027 0 0.695981
27 8.81167 0 0 -0.588797 0 0
28 5.77884 0 0 -0.394494 0 0
29 2.23249 0 0 -0.194303 0 0
30 11.4725 0 0 -0.604733 0.140627 -0.154829
31 0.61581 0.994371 -0.809165 -2.33681 0.185105 0.678329
32 2.24752 0 0 -0.0936207 0.00999355 -0.00597037
33 1.11936 0 0 -0.112526 0.184317 -0.0597575
34 3.71349 0.10264 0.102191 -1.55999 -0.0171207 -0.0795932
35 1.72615 0 0 0.00225101 -0.0271642 0.0658711
36 1.21112 0 0 -0.00951754 0.0144635 0.02724
37 3.5992 1.06012 0.0708876 -1.55963 0.0276441 0.0630525
38 1.66069 0 0 -0.0177226 0.0723731 0.0166759
39 1.16699 0 0 0.0119941 0.0427919 -0.014513
40 2.18853 -0.50104 0.0576591 -1.57004 -0.0521617 -0.225938
41 1.29609 0 0 0.00546349 -0.0465141 0.0717844
42 1.62201 -0.000713348 -0.000470161 0.0167306 -0.0343752 0.0202997
43 1.2224 0 0 -0.00865389 -0.0198193 0.0205652
44 1.76707 -1.27612 0.0366402 -1.57004 -0.0293955 -0.261465
45 1.55588 0 0 0.0111988 0.0306164 0.0561525
46 1.24273 0 0 0.000490282 0.000344863 0.0667241
47 0.784531 0 0 -0.0155071 0.00310904 -0.0132506
48 0 0 0 0 0 0
49 -3.47845 -31.8583 -31.6678 -0.48045 1.24837 -0.367257
50 0 0 0.157913 0 0 0
51 -0.00597763 0 0.21422 1.5708 -0.465766 0
52 0.082243 0 0 0 0 -1.59206
53 0.165554 0 0 0 0 -0.179192
54 15.2091 -9.87152 -14.9251 -1.92282 -0.893038 1.67945
55 0.0770645 -0.26561 -0.835982 1.43126 -1.5609 -1.52465
56 0.0863276 0 0 0 0 -0.0269022
57 0.0814228 0 0 0 0 0.0456978
58 0.0570354 0 0 0 0 0.00642932
59 0.065815 0 0 0 0 0.0372465
60 -0.0501728 0 2.09035 0 0.610865 0
61 0.34296 0 1.82042 0 0 0
time 22
0 1.938 1.37794 -11.5797 0 0 0
1 6.02794 0 0 -0.574274 0.829745 0.0492823
2 11.7344 0 0 -0.00140284 0 -2.10312
3 8.81138 -0.000450134 -0.00011301 1.25389 0 0.000157596
4 5.77839 0.000286102 0 0.840108 0 0.000113176
5 2.23163 -0.000329971 -0.000364304 0.413784 0 0
6 11.4725 0 0 1.12753 1.11005 0.535038
7 0.615219 -0.993091 -0.810701 -3.04116 0.22238 -0.391512
8 2.24752 0 0 0.0112074 -0.108398 -0.303682
9 1.11936 0 0 0.0204077 0.0270485 -0.731349
10 3.71348 -0.10264 0.10219 1.49535 0.779968 0.00226497
11 1.72615 0 0 -0.0175768 0.0131321 -1.04058
12 1.21113 0 0 -0.0171004 0.00431509 -1.92111
13 3.59919 -1.06012 0.0708866 1.63787 0.547383 0.0246555
14 1.66069 0 0 -0.00851553 0.0118077 -0.846763
15 1.167 0 0 0.0572054 0.0338719 -1.80228
16 2.18852 0.50104 0.0576591 1.57784 0.0392059 0.0764941
17 1.29609 0 0 -0.0709015 -0.00658725 -0.687148
18 1.62202 0.000713348 -0.000468254 -0.0117262 0.0209299 -0.943219
19 1.22241 0 0 -0.0457754 -0.0433287 -2.07488
20 1.76707 1.27612 0.0366402 1.5766 -0.115919 0.0379747
21 1.55588 0 0 -0.135821 -0.0140921 -0.896439
22 1.24273 0 0 -0.000558321 0.000218797 -0.305885
23 0.784523 0 0 0.00999545 -0.0227606 -0.653503
24 -1.93761 -6.04947 -8.8609 -0.000932534 0 3.14159
25 6.02794 0 0 0.415232 0.13534 1.37267
26 11.7344 0 0 0.00140271 0 0.960101
27 8.81167 0 0 -0.254813 0 0
28 5.77884 0 0 -0.170725 0 0
29 2.23249 0 0 -0.0840883 0 0
30 11.4725 0 0 -0.29933 0.106574 -0.322398
31 0.615814 0.994371 -0.809165 -2.35144 0.180593 0.672158
32 2.24752 0 0 -0.103163 0.00701401 0.064356
33 1.11936 0 0 -0.147241 0.186574 -0.0294493
34 3.71349 0.102639 0.102191 -1.55998 0.060022 -0.0787592
35 1.72615 0 0 0.00257095 -0.0234509 0.14676
36 1.21112 0 0 -0.0082795 0.0141451 0.108151
37 3.5992 1.06011 0.070888 -1.55957 0.107011 0.0639433
38 1.66069 0 0 -0.0167448 0.0625258 0.0961256
39 1.16699 0 0 0.00290346 0.0347421 0.0640728
40 2.18853 -0.50104 0.0576582 -1.57004 -0.0521617 -0.225938
41 1.29609 0 0 0.00125046 -0.0468169 0.162044
42 1.62202 -0.000712872 -0.000468254 0.0153927 -0.0290828 0.100855
43 1.22241 0 0 -0.00388826 -0.0154388 0.10089
44 1.76707 -1.27612 0.0366406 -1.57004 -0.0293955 -0.261465
45 1.55588 0 0 0.0140691 0.0294086 0.151723
46 1.24273 0 0 0.000519917 0.000298538 0.158628
47 0.784531 0 0 -0.0145244 0.000978733 0.0786472
48 0 0 0 0 0 0
49 0.659096 -27.5724 -34.3812 -0.0759649 1.13114 -0.031573
50 0 0 0.157911 0 0 0
51 -0.00597572 0 0.214218 1.5708 -0.465765 0
52 0.0822449 0 0 0 0 -1.59206
53 0.165556 0 0 0 0 -0.179192
54 15.2091 -9.87152 -14.9251 -1.92282 -0.893038 1.67945
55 0.0770645 -0.26561 -0.835982 1.43126 -1.5609 -1.52465
56 0.0863276 0 0 0 0 -0.0269022
57 0.0814228 0 0 0 0 0.0456978
58 0.0570354 0 0 0 0 0.00642932
59 0.065815 0 0 0 0 0.0372465
60 -0.0501728 0 2.09035 0 0.610865 0
61 0.34296 0 1.82042 0 0 0
time 23
0 1.938 1.37794 -11.5797 0 0 0
1 6.02794 0 0 -0.574274 0.829745 0.0492823
2 11.7344 0 0 -0.00140284 0 -2.10312
3 8.81138 -0.000450134 -0.00011301 1.25389 0 0.000157596
4 5.77839 0.000286102 0 0.840108 0 0.000113176
5 2.23163 -0.000329971 -0.000364304 0.413784 0 0
6 11.4725 0 0 1.12753 1.11005 0.535038
7 0.615219 -0.993091 -0.810701 -3.04116 0.22238 -0.391512
8 2.24752 0 0 0.0112074 -0.108398 -0.303682
9 1.11936 0 0 0.0204077 0.0270485 -0.731349
10 3.71348 -0.10264 0.10219 1.49535 0.779968 0.00226497
11 1.72615 0 0 -0.0175768 0.0131321 -1.04058
12 1.21113 0 0 -0.0171004 0.00431509 -1.92111
13 3.59919 -1.06012 0.0708866 1.63787 0.547383 0.0246555
14 1.66069 0 0 -0.00851553 0.0118077 -0.846763
15 1.167 0 0 0.0572054 0.0338719 -1.80228
16 2.18852 0.50104 0.0576591 1.57784 0.0392059 0.0764941
17 1.29609 0 0 -0.0709015 -0.00658725 -0.687148
18 1.62202 0.000713348 -0.000468254 -0.0117262 0.0209299 -0.943219
19 1.22241 0 0 -0.0457754 -0.0433287 -2.07488
20 1.76707 1.27612 0.0366402 1.5766 -0.115919 0.0379747
21 1.55588 0 0 -0.135821 -0.0140921 -0.896439
22 1.24273 0 0 -0.000558321 0.000218797 -0.305885
23 0.784523 0 0 0.00999545 -0.0227606 -0.653503
24 -1.93761 -6.04947 -8.8609 -0.000932534 0 3.14159
25 6.02794 0 0 0.196768 0.189915 1.21243
26 11.7344 0 0 0.00140269 0 1.27778
27 8.81167 0 0 0.171027 0 0
28 5.77884 0 0 0.114588 0 0
29 2.23249 0 0 0.056439 0 0
30 11.4725 0 0 0.103851 0.193101 -0.391047
31 0.615812 0.994373 -0.809165 -2.38598 0.183472 0.661408
32 2.24752 0 0 -0.121577 0.00289606 0.173248
33 1.11936 0 0 -0.194306 0.190885 0.0333461
34 3.71348 0.10264 0.102191 -1.55979 0.193001 -0.0772973
35 1.72615 0 0 0.00272743 -0.0173468 0.282519
36 1.21112 0 0 -0.00608547 0.0135928 0.243975
37 3.5992 1.06012 0.0708866 -1.5593 0.241657 0.0654957
38 1.66069 0 0 -0.0143485 0.0462676 0.23066
39 1.16699 0 0 -0.0116069 0.020946 0.197379
40 2.18853 -0.50104 0.0576591 -1.57004 -0.0521616 -0.225938
41 1.29609 0 0 -0.00542741 -0.0465183 0.304947
42 1.62202 -0.000713348 -0.000470161 0.0125921 -0.0208052 0.236361
43 1.22241 0 0 0.00322796 -0.00831174 0.236085
44 1.76707 -1.27612 0.0366411 -1.57004 -0.0293956 -0.261465
45 1.55587 0 0 0.0182193 0.0270347 0.298539
46 1.24273 0 0 0.000557414 0.000220786 0.302682
47 0.784533 0 0 -0.0127756 -0.00213102 0.222686
48 0 0 0 0 0 0
49 4.93203 -20.0253 -35.1543 0.261113 0.937009 0.318837
50 0 0 0.157913 0 0 0
51 -0.00597572 0 0.214219 1.5708 -0.465765 0
52 0.0822411 0 0 0 0 -1.59206
53 0.165556 0 0 0 0 -0.179192
54 15.2091 -9.87152 -14.9251 -1.92282 -0.893038 1.67945
55 0.0770645 -0.26561 -0.835982 1.43126 -1.5609 -1.52465
56 0.0863276 0 0 0 0 -0.0269022
57 0.0814228 0 0 0 0 0.0456978
58 0.0570354 0 0 0 0 0.00642932
59 0.065815 0 0 0 0 0.0372465
60 -0.0501728 0 2.09035 0 0.610865 0
61 0.34296 0 1.82042 0 0 0
time 24
0 1.938 1.37794 -11.5797 0 0 0
1 6.02794 0 0 -0.574274 0.829745 0.0492823
2 11.7344 0 0 -0.00140284 0 -2.10312
3 8.81138 -0.000450134 -0.00011301 1.25389 0 0.000157596
4 5.77839 0.000286102 0 0.840108 0 0.000113176
5 2.23163 -0.000329971 -0.000364304 0.413784 0 0
6 11.4725 0 0 1.12753 1.11005 0.535038
7 0.615219 -0.993091 -0.810701 -3.04116 0.22238 -0.391512
8 2.24752 0 0 0.0112074 -0.108398 -0.303682
9 1.11936 0 0 0.0204077 0.0270485 -0.731349
10 3.71348 -0.10264 0.10219 1.49535 0.779968 0.00226497
11 1.72615 0 0 -0.0175768 0.0131321 -1.04058
12 1.21113 0 0 -0.0171004 0.00431509 -1.92111
13 3.59919 -1.06012 0.0708866 1.63787 0.547383 0.0246555
14 1.66069 0 0 -0.00851553 0.0118077 -0.846763
15 1.167 0 0 0.0572054 0.0338719 -1.80228
16 2.18852 0.50104 0.0576591 1.57784 0.0392059 0.0764941
17 1.29609 0 0 -0.0709015 -0.00658725 -0.687148
18 1.62202 0.000713348 -0.000468254 -0.0117262 0.0209299 -0.943219
19 1.22241 0 0 -0.0457754 -0.0433287 -2.07488
20 1.76707 1.27612 0.0366402 1.5766 -0.115919 0.0379747
21 1.55588 0 0 -0.135821 -0.0140921 -0.896439
22 1.24273 0 0 -0.000558321 0.000218797 -0.305885
23 0.784523 0 0 0.00999545 -0.0227606 -0.653503
24 -1.93761 -6.04947 -8.8609 -0.000932534 0 3.14159
25 6.02794 0 0 0.00524331 0.223141 1.08397
26 11.7344 0 0 0.0014027 0 1.57693
27 8.81167 0 0 0.578353 0 0
28 5.77884 0 0 0.387496 0 0
29 2.23249 0 0 0.190856 0 0
30 11.4725 0 0 0.504772 0.316235 -0.305324
31 0.615812 0.994373 -0.809165 -2.44894 0.20223 0.6456
32 2.24752 0 0 -0.150727 -0.00188659 0.313866
33 1.11936 0 0 -0.245174 0.196642 0.138801
34 3.71349 0.10264 0.10219 -1.55914 0.385422 -0.0750258
35 1.72615 0 0 0.00254829 -0.00863541 0.473903
36 1.21112 0 0 -0.00281204 0.0125925 0.435508
37 3.5992 1.06012 0.070888 -1.55849 0.433521 0.067912
38 1.66069 0 0 -0.0101371 0.022854 0.421833
39 1.16699 0 0 -0.0314076 0.000713083 0.387245
40 2.18853 -0.50104 0.0576596 -1.57004 -0.0521617 -0.225938
41 1.29609 0 0 -0.0140841 -0.0446674 0.494315
42 1.62201 -0.000709534 -0.000469208 0.00792291 -0.00953795 0.427796
43 1.2224 0 0 0.0122362 0.00157147 0.42722
44 1.76707 -1.27612 0.0366406 -1.57004 -0.0293956 -0.261465
45 1.55588 0 0 0.0229473 0.0231571 0.486396
46 1.24273 0 0 0.00058884 0.000112285 0.491426
47 0.784531 0 0 -0.0101151 -0.00595909 0.411395
48 0 0 0 0 0 0
49 7.49178 -9.50344 -33.264 0.524604 0.674423 0.638121
50 0 0 0.157913 0 0 0
51 -0.00597763 0 0.21422 1.5708 -0.465765 0
52 0.0822439 0 0 0 0 -1.59206
53 0.165556 0 0 0 0 -0.179192
54 15.2091 -9.87152 -14.9251 -1.92282 -0.893038 1.67945
55 0.0770645 -0.26561 -0.835982 1.43126 -1.5609 -1.52465
56 0.0863276 0 0 0 0 -0.0269022
57 0.0814228 0 0 0 0 0.0456978
58 0.0570354 0 0 0 0 0.00642932
59 0.065815 0 0 0 0 0.0372465
60 -0.0501728 0 2.09035 0 0.610865 0
61 0.34296 0 1.82042 0 0 0
time 25
0 1.938 1.37794 -11.5797 0 0 0
1 6.02794 0 0 -0.574274 0.829745 0.0492823
2 11.7344 0 0 -0.00140284 0 -2.10312
3 8.81138 -0.000450134 -0.00011301 1.25389 0 0.000157596
4 5.77839 0.000286102 0 0.840108 0 0.000113176
5 2.23163 -0.000329971 -0.000364304 0.413784 0 0
6 11.4725 0 0 1.12753 1.11005 0.535038
7 0.615219 -0.993091 -0.810701 -3.04116 0.22238 -0.391512
8 2.24752 0 0 0.0112074 -0.108398 -0.303682
9 1.11936 0 0 0.0204077 0.0270485 -0.731349
10 3.71348 -0.10264 0.10219 1.49535 0.779968 0.00226497
11 1.72615 0 0 -0.0175768 0.0131321 -1.04058
12 1.21113 0 0 -0.0171004 0.00431509 -1.92111
13 3.59919 -1.06012 0.0708866 1.63787 0.547383 0.0246555
14 1.66069 0 0 -0.00851553 0.0118077 -0.846763
15 1.167 0 0 0.0572054 0.0338719 -1.80228
16 2.18852 0.50104 0.0576591 1.57784 0.0392059 0.0764941
17 1.29609 0 0 -0.0709015 -0.00658725 -0.687148
18 1.62202 0.000713348 -0.000468254 -0.0117262 0.0209299 -0.943219
19 1.22241 0 0 -0.0457754 -0.0433287 -2.07488
20 1.76707 1.27612 0.0366402 1.5766 -0.115919 0.0379747
21 1.55588 0 0 -0.135821 -0.0140921 -0.896439
22 1.24273 0 0 -0.000558321 0.000218797 -0.305885
23 0.784523 0 0 0.00999545 -0.0227606 -0.653503
24 -1.93761 -6.04947 -8.8609 -0.000932534 0 3.14159
25 6.02794 0 0 -0.160365 0.272226 1.02118
26 11.7344 0 0 0.0014027 0 1.81508
27 8.81167 0 0 0.908947 0 0
28 5.77884 0 0 0.608995 0 0
29 2.23249 0 0 0.299953 0 0
30 11.4725 0 0 0.844822 0.41591 -0.149603
31 0.615813 0.994373 -0.809164 -2.54885 0.24533 0.624013
32 2.24752 0 0 -0.19261 -0.00708612 0.479349
33 1.11936 0 0 -0.291031 0.201414 0.297161
34 3.71349 0.102638 0.102191 -1.55732 0.640892 -0.0713509
35 1.72615 0 0 0.00216219 0.00309285 0.721657
36 1.21112 0 0 0.00156122 0.0107345 0.683544
37 3.5992 1.06012 0.0708876 -1.55638 0.68454 0.0718569
38 1.66069 0 0 -0.00443584 -0.00918889 0.671065
39 1.16699 0 0 -0.0569835 -0.0267968 0.635513
40 2.18853 -0.50104 0.0576601 -1.57004 -0.0521618 -0.225938
41 1.29609 0 0 -0.0238787 -0.0402928 0.723943
42 1.62202 -0.000713348 -0.000470161 0.00127632 0.00513981 0.676114
43 1.2224 0 0 0.0229815 0.0142386 0.675378
44 1.76707 -1.27612 0.0366402 -1.57004 -0.0293957 -0.261465
45 1.55588 0 0 0.0274244 0.0176273 0.705087
46 1.24273 0 0 0.000599112 0 0.717403
47 0.784533 0 0 -0.00645326 -0.0103464 0.637301
48 0 0 0 0 0 0
49 7.30759 0.556067 -29.1016 0.737513 0.404703 0.8667
50 0 0 0.157913 0 0 0
51 -0.00597572 0 0.21422 1.5708 -0.465766 0
52 0.082243 0 0 0 0 -1.59206
53 0.165554 0 0 0 0 -0.179193
54 15.2091 -9.87152 -14.9251 -1.92282 -0.893038 1.67945
55 0.0770645 -0.26561 -0.835982 1.43126 -1.5609 -1.52465
56 0.0863276 0 0 0 0 -0.0269022
57 0.0814228 0 0 0 0 0.0456978
58 0.0570354 0 0 0 0 0.00642932
59 0.065815 0 0 0 0 0.0372465
60 -0.0501728 0 2.09035 0 0.610865 0
61 0.34296 0 1.82042 0 0 0
time 26
0 1.938 1.37794 -11.5797 0 0 0
1 6.02794 0 0 -0.574274 0.829745 0.0492823
2 11.7344 0 0 -0.00140284 0 -2.10312
3 8.81138 -0.000450134 -0.00011301 1.25389 0 0.000157596
4 5.77839 0.000286102 0 0.840108 0 0.000113176
5 2.23163 -0.000329971 -0.000364304 0.413784 0 0
6 11.4725 0 0 1.12753 1.11005 0.535038
7 0.615219 -0.993091 -0.810701 -3.04116 0.22238 -0.391512
8 2.24752 0 0 0.0112074 -0.108398 -0.303682
9 1.11936 0 0 0.0204077 0.0270485 -0.731349
10 3.71348 -0.10264 0.10219 1.49535 0.779968 0.00226497
11 1.72615 0 0 -0.0175768 0.0131321 -1.04058
12 1.21113 0 0 -0.0171004 0.00431509 -1.92111
13 3.59919 -1.06012 0.0708866 1.63787 0.547383 0.0246555
14 1.66069 0 0 -0.00851553 0.0118077 -0.846763
15 1.167 0 0 0.0572054 0.0338719 -1.80228
16 2.18852 0.50104 0.0576591 1.57784 0.0392059 0.0764941
17 1.29609 0 0 -0.0709015 -0.00658725 -0.687148
18 1.62202 0.000713348 -0.000468254 -0.0117262 0.0209299 -0.943219
19 1.22241 0 0 -0.0457754 -0.0433287 -2.07488
20 1.76707 1.27612 0.0366402 1.5766 -0.115919 0.0379747
21 1.55588 0 0 -0.135821 -0.0140921 -0.896439
22 1.24273 0 0 -0.000558321 0.000218797 -0.305885
23 0.784523 0 0 0.00999545 -0.0227606 -0.653503
24 -1.93761 -6.04947 -8.8609 -0.000932534 0 3.14159
25 6.02794 0 0 -0.309679 0.34611 1.01339
26 11.7344 0 0 0.00140271 0 1.97387
27 8.81167 0 0 1.06211 0 0
28 5.77884 0 0 0.711617 0 0
29 2.23249 0 0 0.350498 0 0
30 11.4725 0 0 1.01103 0.41229 -0.192657
31 0.615813 0.994371 -0.809163 -2.54885 0.24533 0.624013
32 2.24752 0 0 -0.19261 -0.00708598 0.479349
33 1.11936 0 0 -0.291032 0.201414 0.297161
34 3.71348 0.102639 0.102192 -1.55732 0.640892 -0.071351
35 1.72615 0 0 0.00216233 0.00309287 0.721657
36 1.21112 0 0 0.00156106 0.0107346 0.683544
37 3.5992 1.06012 0.0708895 -1.55638 0.684541 0.0718568
38 1.66069 0 0 -0.0044358 -0.00918888 0.671066
39 1.16699 0 0 -0.0569834 -0.0267968 0.635513
40 2.18853 -0.50104 0.0576611 -1.57004 -0.0521617 -0.225938
41 1.29609 0 0 -0.0238788 -0.0402927 0.723943
42 1.62202 -0.000713348 -0.000470161 0.00127636 0.00513981 0.676114
43 1.2224 0 0 0.0229815 0.0142386 0.675378
44 1.76707 -1.27612 0.036643 -1.57004 -0.0293956 -0.261465
45 1.55587 0 0 0.0274245 0.0176274 0.705087
46 1.24273 0 0 0.000599173 0 0.717403
47 0.784533 0 0 -0.00645325 -0.0103464 0.637301
48 0 0 0 0 0 0
49 6.35681 7.31371 -24.5369 0.9238 0.188133 0.977175
50 0 0 0.157913 0 0 0
51 -0.00597572 0 0.214218 1.5708 -0.465765 0
52 0.0822415 0 0 0 0 -1.59206
53 0.165556 0 0 0 0 -0.179192
54 15.2091 -9.87152 -14.9251 -1.92282 -0.893038 1.67945
55 0.0770645 -0.26561 -0.835982 1.43126 -1.5609 -1.52465
56 0.0863276 0 0 0 0 -0.0269022
57 0.0814228 0 0 0 0 0.0456978
58 0.0570354 0 0 0 0 0.00642932
59 0.065815 0 0 0 0 0.0372465
60 -0.0501728 0 2.09035 0 0.610865 0
61 0.34296 0 1.82042 0 0 0
time 27
0 1.938 1.37794 -11.5797 0 0 0
1 6.02794 0 0 -0.574274 0.829745 0.0492823
2 11.7344 0 0 -0.00140284 0 -2.10312
3 8.81138 -0.000450134 -0.00011301 1.25389 0 0.000157596
4 5.77839 0.000286102 0 0.840108 0 0.000113176
5 2.23163 -0.000329971 -0.000364304 0.413784 0 0
6 11.4725 0 0 1.12753 1.11005 0.535038
7 0.615219 -0.993091 -0.810701 -3.04116 0.22238 -0.391512
8 2.24752 0 0 0.0112074 -0.108398 -0.303682
9 1.11936 0 0 0.0204077 0.0270485 -0.731349
10 3.71348 -0.10264 0.10219 1.49535 0.779968 0.00226497
11 1.72615 0 0 -0.0175768 0.0131321 -1.04058
12 1.21113 0 0 -0.0171004 0.00431509 -1.92111
13 3.59919 -1.06012 0.0708866 1.63787 0.547383 0.0246555
14 1.66069 0 0 -0.00851553 0.0118077 -0.846763
15 1.167 0 0 0.0572054 0.0338719 -1.80228
16 2.18852 0.50104 0.0576591 1.57784 0.0392059 0.0764941
17 1.29609 0 0 -0.0709015 -0.00658725 -0.687148
18 1.62202 0.000713348 -0.000468254 -0.0117262 0.0209299 -0.943219
19 1.22241 0 0 -0.0457754 -0.0433287 -2.07488
20 1.76707 1.27612 0.0366402 1.5766 -0.115919 0.0379747
21 1.55588 0 0 -0.135821 -0.0140921 -0.896439
22 1.24273 0 0 -0.000558321 0.000218797 -0.305885
23 0.784523 0 0 0.00999545 -0.0227606 -0.653503
24 -1.93761 -6.04947 -8.8609 -0.000932534 0 3.14159
25 6.02794 0 0 -0.407775 0.472234 1.02342
26 11.7344 0 0 0.0014027 0 2.04577
27 8.81167 0 0 1.12665 0 0
28 5.77884 0 0 0.754852 0 0
29 2.23249 0 0 0.371793 0 0
30 11.4725 0 0 1.0742 0.450485 -0.298628
31 0.615812 0.994371 -0.809165 -2.54885 0.24533 0.624013
32 2.24752 0 0 -0.19261 -0.00708598 0.479349
33 1.11936 0 0 -0.291031 0.201414 0.297161
34 3.71349 0.10264 0.10219 -1.55732 0.640892 -0.0713508
35 1.72615 0 0 0.00216221 0.00309281 0.721657
36 1.21112 0 0 0.00156121 0.0107344 0.683544
37 3.5992 1.06012 0.0708885 -1.55638 0.684541 0.071857
38 1.66069 0 0 -0.00443572 -0.00918883 0.671066
39 1.16699 0 0 -0.0569835 -0.0267967 0.635513
40 2.18853 -0.501041 0.0576591 -1.57004 -0.0521615 -0.225938
41 1.29609 0 0 -0.0238789 -0.0402928 0.723943
42 1.62202 -0.000711441 -0.000470161 0.00127635 0.00513988 0.676114
43 1.2224 0 0 0.0229817 0.0142386 0.675378
44 1.76707 -1.27612 0.0366421 -1.57004 -0.0293956 -0.261465
45 1.55588 0 0 0.0274245 0.0176274 0.705087
46 1.24273 0 0 0.000598873 0 0.717403
47 0.784531 0 0 -0.00645316 -0.0103466 0.637301
48 0 0 0 0 0 0
49 6.3039 10.9338 -20.8917 1.0935 0.0425161 0.997486
50 0 0 0.157912 0 0 0
51 -0.00597668 0 0.214218 1.5708 -0.465765 0
52 0.0822434 0 0 0 0 -1.59206
53 0.165555 0 0 0 0 -0.179192
54 15.2091 -9.87152 -14.9251 -1.92282 -0.893038 1.67945
55 0.0770645 -0.26561 -0.835982 1.43126 -1.5609 -1.52465
56 0.0863276 0 0 0 0 -0.0269022
57 0.0814228 0 0 0 0 0.0456978
58 0.0570354 0 0 0 0 0.00642932
59 0.065815 0 0 0 0 0.0372465
60 -0.0501728 0 2.09035 0 0.610865 0
61 0.34296 0 1.82042 0 0 0
time 28
0 1.938 1.37794 -11.5797 0 0 0
1 6.02794 0 0 -0.574274 0.829745 0.0492823
2 11.7344 0 0 -0.00140284 0 -2.10312
3 8.81138 -0.000450134 -0.00011301 1.25389 0 0.000157596
4 5.77839 0.000286102 0 0.840108 0 0.000113176
5 2.23163 -0.000329971 -0.000364304 0.413784 0 0
6 11.4725 0 0 1.12753 1.11005 0.535038
7 0.615219 -0.993091 -0.810701 -3.04116 0.22238 -0.391512
8 2.24752 0 0 0.0112074 -0.108398 -0.303682
9 1.11936 0 0 0.0204077 0.0270485 -0.731349
10 3.71348 -0.10264 0.10219 1.49535 0.779968 0.00226497
11 1.72615 0 0 -0.0175768 0.0131321 -1.04058
12 1.21113 0 0 -0.0171004 0.00431509 -1.92111
13 3.59919 -1.06012 0.0708866 1.63787 0.547383 0.0246555
14 1.66069 0 0 -0.00851553 0.0118077 -0.846763
15 1.167 0 0 0.0572054 0.0338719 -1.80228
16 2.18852 0.50104 0.0576591 1.57784 0.0392059 0.0764941
17 1.29609 0 0 -0.0709015 -0.00658725 -0.687148
18 1.62202 0.000713348 -0.000468254 -0.0117262 0.0209299 -0.943219
19 1.22241 0 0 -0.0457754 -0.0433287 -2.07488
20 1.76707 1.27612 0.0366402 1.5766 -0.115919 0.0379747
21 1.55588 0 0 -0.135821 -0.0140921 -0.896439
22 1.24273 0 0 -0.000558321 0.000218797 -0.305885
23 0.784523 0 0 0.00999545 -0.0227606 -0.653503
24 -1.93761 -6.04947 -8.8609 -0.000932534 0 3.14159
25 6.02794 0 0 -0.455145 0.65086 0.998698
26 11.7344 0 0 0.00140274 0 2.05997
27 8.81167 0 0 1.11668 0 0
28 5.77884 0 0 0.748175 0 0
29 2.23249 0 0 0.368504 0 0
30 11.4725 0 0 1.03368 0.553024 -0.439146
31 0.615812 0.994372 -0.809166 -2.54885 0.24533 0.624013
32 2.24752 0 0 -0.19261 -0.00708599 0.479349
33 1.11936 0 0 -0.291031 0.201414 0.297161
34 3.71349 0.10264 0.10219 -1.55732 0.640892 -0.071351
35 1.72615 0 0 0.00216225 0.00309284 0.721657
36 1.21112 0 0 0.00156097 0.0107346 0.683544
37 3.5992 1.06012 0.0708885 -1.55638 0.684541 0.0718571
38 1.66069 0 0 -0.00443577 -0.00918889 0.671065
39 1.16699 0 0 -0.0569836 -0.0267968 0.635513
40 2.18853 -0.50104 0.0576591 -1.57004 -0.0521618 -0.225938
41 1.29609 0 0 -0.0238788 -0.0402927 0.723943
42 1.62202 -0.000713348 -0.000470638 0.00127636 0.00513966 0.676114
43 1.2224 0 0 0.0229816 0.0142387 0.675378
44 1.76707 -1.27612 0.0366421 -1.57004 -0.0293956 -0.261465
45 1.55588 0 0 0.0274244 0.0176273 0.705087
46 1.24273 0 0 0.000599124 0 0.717403
47 0.784532 0 0 -0.00645329 -0.0103465 0.637301
48 0 0 0 0 0 0
49 6.70849 12.7848 -18.283 1.25938 -0.045327 0.984734
50 0 0 0.157913 0 0 0
51 -0.00597668 0 0.214219 1.5708 -0.465766 0
52 0.082242 0 0 0 0 -1.59206
53 0.165554 0 0 0 0 -0.179192
54 15.2091 -9.87152 -14.9251 -1.92282 -0.893038 1.67945
55 0.0770645 -0.26561 -0.835982 1.43126 -1.5609 -1.52465
56 0.0863276 0 0 0 0 -0.0269022
57 0.0814228 0 0 0 0 0.0456978
58 0.0570354 0 0 0 0 0.00642932
59 0.065815 0 0 0 0 0.0372465
60 -0.0501728 0 2.09035 0 0.610865 0
61 0.34296 0 1.82042 0 0 0
time 29
0 1.938 1.37794 -11.5797 0 0 0
1 6.02794 0 0 -0.574274 0.829745 0.0492823
2 11.7344 0 0 -0.00140284 0 -2.10312
3 8.81138 -0.000450134 -0.00011301 1.25389 0 0.000157596
4 5.77839 0.000286102 0 0.840108 0 0.000113176
5 2.23163 -0.000329971 -0.000364304 0.413784 0 0
6 11.4725 0 0 1.12753 1.11005 0.535038
7 0.615219 -0.993091 -0.810701 -3.04116 0.22238 -0.391512
8 2.24752 0 0 0.0112074 -0.108398 -0.303682
9 1.11936 0 0 0.0204077 0.0270485 -0.731349
10 3.71348 -0.10264 0.10219 1.49535 0.779968 0.00226497
11 1.72615 0 0 -0.0175768 0.0131321 -1.04058
12 1.21113 0 0 -0.0171004 0.00431509 -1.92111
13 3.59919 -1.06012 0.0708866 1.63787 0.547383 0.0246555
14 1.66069 0 0 -0.00851553 0.0118077 -0.846763
15 1.167 0 0 0.0572054 0.0338719 -1.80228
16 2.18852 0.50104 0.0576591 1.57784 0.0392059 0.0764941
17 1.29609 0 0 -0.0709015 -0.00658725 -0.687148
18 1.62202 0.000713348 -0.000468254 -0.0117262 0.0209299 -0.943219
19 1.22241 0 0 -0.0457754 -0.0433287 -2.07488
20 1.76707 1.27612 0.0366402 1.5766 -0.115919 0.0379747
21 1.55588 0 0 -0.135821 -0.0140921 -0.896439
22 1.24273 0 0 -0.000558321 0.000218797 -0.305885
23 0.784523 0 0 0.00999545 -0.0227606 -0.653503
24 -1.93761 -6.04947 -8.8609 -0.000932534 0 3.14159
25 6.02794 0 0 -0.495567 0.884283 0.887793
26 11.7344 0 0 0.00140285 0 2.05458
27 8.81167 0 0 1.01142 0 0
28 5.77884 0 0 0.677655 0 0
29 2.23249 0 0 0.33377 0 0
30 11.4725 0 0 0.830398 0.676918 -0.67852
31 0.615812 0.994371 -0.809166 -2.54885 0.24533 0.624013
32 2.24752 0 0 -0.19261 -0.00708596 0.479349
33 1.11936 0 0 -0.291031 0.201414 0.297161
34 3.71348 0.102639 0.102188 -1.55732 0.640892 -0.0713512
35 1.72615 0 0 0.00216232 0.00309277 0.721657
36 1.21112 0 0 0.00156115 0.0107344 0.683544
37 3.5992 1.06011 0.0708866 -1.55639 0.684541 0.0718568
38 1.66069 0 0 -0.00443572 -0.00918883 0.671065
39 1.16699 0 0 -0.0569835 -0.0267968 0.635513
40 2.18853 -0.50104 0.0576572 -1.57004 -0.0521617 -0.225938
41 1.29609 0 0 -0.0238787 -0.0402927 0.723943
42 1.62202 -0.000713348 -0.000470638 0.0012763 0.00513984 0.676114
43 1.2224 0 0 0.0229816 0.0142387 0.675378
44 1.76707 -1.27612 0.0366402 -1.57004 -0.0293957 -0.261465
45 1.55588 0 0 0.0274244 0.0176274 0.705087
46 1.24273 0 0 0.000598964 0 0.717403
47 0.784531 0 0 -0.00645318 -0.0103465 0.637301
48 0 0 0 0 0 0
49 7.42469 13.7582 -16.7204 1.41285 -0.0850313 0.956763
50 0 0 0.157912 0 0 0
51 -0.00597763 0 0.214219 1.5708 -0.465766 0
52 0.082243 0 0 0 0 -1.59206
53 0.165554 0 0 0 0 -0.179192
54 15.2091 -9.87152 -14.9251 -1.92282 -0.893038 1.67945
55 0.0770645 -0.26561 -0.835982 1.43126 -1.5609 -1.52465
56 0.0863276 0 0 0 0 -0.0269022
57 0.0814228 0 0 0 0 0.0456978
58 0.0570354 0 0 0 0 0.00642932
59 0.065815 0 0 0 0 0.0372465
60 -0.0501728 0 2.09035 0 0.610865 0
61 0.34296 0 1.82042 0 0 0
time 30
0 1.938 1.37794 -11.5797 0 0 0
1 6.02794 0 0 -0.574274 0.829745 0.0492823
2 11.7344 0 0 -0.00140284 0 -2.10312
3 8.81138 -0.000450134 -0.00011301 1.25389 0 0.000157596
4 5.77839 0.000286102 0 0.840108 0 0.000113176
5 2.23163 -0.000329971 -0.000364304 0.413784 0 0
6 11.4725 0 0 1.12753 1.11005 0.535038
7 0.615219 -0.993091 -0.810701 -3.04116 0.22238 -0.391512
8 2.24752 0 0 0.0112074 -0.108398 -0.303682
9 1.11936 0 0 0.0204077 0.0270485 -0.731349
10 3.71348 -0.10264 0.10219 1.49535 0.779968 0.00226497
11 1.72615 0 0 -0.0175768 0.0131321 -1.04058
12 1.21113 0 0 -0.0171004 0.00431509 -1.92111
13 3.59919 -1.06012 0.0708866 1.63787 0.547383 0.0246555
14 1.66069 0 0 -0.00851553 0.0118077 -0.846763
15 1.167 0 0 0.0572054 0.0338719 -1.80228
16 2.18852 0.50104 0.0576591 1.57784 0.0392059 0.0764941
17 1.29609 0 0 -0.0709015 -0.00658725 -0.687148
18 1.62202 0.000713348 -0.000468254 -0.0117262 0.0209299 -0.943219
19 1.22241 0 0 -0.0457754 -0.0433287 -2.07488
20 1.76707 1.27612 0.0366402 1.5766 -0.115919 0.0379747
21 1.55588 0 0 -0.135821 -0.0140921 -0.896439
22 1.24273 0 0 -0.000558321 0.000218797 -0.305885
23 0.784523 0 0 0.00999545 -0.0227606 -0.653503
24 -1.93761 -6.04947 -8.8609 -0.000932534 0 3.14159
25 6.02794 0 0 -0.645314 1.14072 0.594139
26 11.7344 0 0 0.00140263 0 2.04478
27 8.81167 0 0 0.83189 0 0
28 5.77884 0 0 0.557366 0 0
29 2.23249 0 0 0.274524 0 0
30 11.4725 0 0 0.450405 0.728416 -1.03774
31 0.615813 0.994372 -0.809166 -2.54885 0.24533 0.624014
32 2.24752 0 0 -0.19261 -0.00708604 0.479349
33 1.11936 0 0 -0.291031 0.201414 0.297161
34 3.71349 0.10264 0.102192 -1.55732 0.640892 -0.0713509
35 1.72615 0 0 0.00216245 0.00309294 0.721657
36 1.21112 0 0 0.00156114 0.0107345 0.683544
37 3.5992 1.06012 0.0708885 -1.55638 0.68454 0.0718571
38 1.66069 0 0 -0.00443583 -0.00918888 0.671066
39 1.16699 0 0 -0.0569835 -0.026797 0.635513
40 2.18853 -0.50104 0.0576591 -1.57004 -0.0521617 -0.225938
41 1.29609 0 0 -0.0238788 -0.0402927 0.723943
42 1.62202 -0.000715256 -0.0004704 0.00127639 0.0051399 0.676114
43 1.2224 0 0 0.0229815 0.0142386 0.675378
44 1.76707 -1.27612 0.0366402 -1.57004 -0.0293956 -0.261465
45 1.55588 0 0 0.0274244 0.0176272 0.705087
46 1.24273 0 0 0.000599124 0 0.717403
47 0.784531 0 0 -0.00645324 -0.0103465 0.637301
48 0 0 0 0 0 0
49 8.20144 14.2656 -16.0131 1.54621 -0.08974 0.926209
50 0 0 0.157913 0 0 0
51 -0.00597668 0 0.214218 1.5708 -0.465765 0
52 0.0822439 0 0 0 0 -1.59206
53 0.165554 0 0 0 0 -0.179192
54 15.2091 -9.87152 -14.9251 -1.92282 -0.893038 1.67945
55 0.0770645 -0.26561 -0.835982 1.43126 -1.5609 -1.52465
56 0.0863276 0 0 0 0 -0.0269022
57 0.0814228 0 0 0 0 0.0456978
58 0.0570354 0 0 0 0 0.00642932
59 0.065815 0 0 0 0 0.0372465
60 -0.0501728 0 2.09035 0 0.610865 0
61 0.34296 0 1.82042 0 0 0
end
