//Sequence File generated by the Wall Worm SMD Exporter PRO 1.99
//www.wallworm.com
version 1
nodes
0 "b_l_clav" -1
1 "b_l_upperarm" 0
2 "b_l_forearm" 1
3 "b_l_twist3" 2
4 "b_l_twist2" 2
5 "b_l_twist1" 2
6 "b_l_hand" 2
7 "b_l_thumb001" 6
8 "b_l_thumb002" 7
9 "b_l_thumb003" 8
10 "b_l_middle001" 6
11 "b_l_middle002" 10
12 "b_l_middle003" 11
13 "b_l_index001" 6
14 "b_l_index002" 13
15 "b_l_index003" 14
16 "b_l_hand_ringsqueezer" 6
17 "b_l_ring001" 16
18 "b_l_ring002" 17
19 "b_l_ring003" 18
20 "b_l_hand_pinkysqueezer" 6
21 "b_l_pinky001" 20
22 "b_l_pinky002" 21
23 "b_l_pinky003" 22
24 "b_r_clav" -1
25 "b_r_upperarm" 24
26 "b_r_forearm" 25
27 "b_r_twist3" 26
28 "b_r_twist2" 26
29 "b_r_twist1" 26
30 "b_r_hand" 26
31 "b_r_thumb001" 30
32 "b_r_thumb002" 31
33 "b_r_thumb003" 32
34 "b_r_middle001" 30
35 "b_r_middle002" 34
36 "b_r_middle003" 35
37 "b_r_index001" 30
38 "b_r_index002" 37
39 "b_r_index003" 38
40 "b_r_hand_ringsqueezer" 30
41 "b_r_ring001" 40
42 "b_r_ring002" 41
43 "b_r_ring003" 42
44 "b_r_hand_pinkysqueezer" 30
45 "b_r_pinky001" 44
46 "b_r_pinky002" 45
47 "b_r_pinky003" 46
48 "b_zero" -1
49 "d_boolet004" -1
50 "d_boolet1" -1
51 "d_boolet3" -1
52 "d_boolet_case" -1
53 "d_walk" -1
54 "d_gun" 53
55 "d_cover" 54
56 "d_carry" 54
57 "d_bolt" 54
58 "d_trig" 54
59 "d_safe" 54
60 "d_lever" 54
61 "d_ham" 54
end
skeleton
time 0
0 5.11825 10.9692 -3.0277 -0.827033 0.693143 -1.04017
1 6.02794 0 0 -0.0147266 -0.0847465 -0.117519
2 11.7344 0 0 -0.00140291 0 -1.66806
3 8.81138 -0.000451088 -0.000112057 -0.510647 0 0.000158025
4 5.77839 0.000286102 0 -0.342133 0 0.000103648
5 2.23164 -0.000329971 -0.00036335 -0.168513 0 0
6 11.4725 0 0 -0.621909 0.246081 1.09806
7 0.615219 -0.993091 -0.8107 2.36101 0.0512843 -0.442576
8 2.24752 0 0 0.0870418 0.0754454 0.0898681
9 1.11936 0 0 0.0868586 0.0464881 -0.110728
10 3.71348 -0.102641 0.102191 1.49829 0.896637 0.234767
11 1.72615 0 0 0.0263276 -0.0109868 -1.28727
12 1.21114 0 0 -0.000154079 0.000328978 -0.915737
13 3.59919 -1.06012 0.0708876 1.53395 0.161844 -0.0676455
14 1.66069 0 0 0.0207494 0.133061 -0.435014
15 1.167 0 0 -0.0019889 -0.00149679 -0.825194
16 2.18853 0.50104 0.0576591 1.41514 0.0471916 0.071991
17 1.29609 0 0 -0.0777688 0.18264 -1.0512
18 1.62202 0.000714302 -0.000471115 0.029409 -0.0272531 -1.25676
19 1.22241 0 0 0.0223414 -0.00802422 -0.76603
20 1.76707 1.27612 0.0366411 1.328 0.225255 0.0733778
21 1.55588 0 0 -0.142939 0.159067 -1.06546
22 1.24274 0 0 -0.000479201 0.00036055 -1.00946
23 0.784523 0 0 0.0101639 0.0127498 -0.61013
24 -2.4735 1.96366 -5.48939 -0.143291 0.3441 -1.97314
25 6.02794 0 0 1.14323 0.0319036 0.694643
26 11.7344 0 0 0.00140269 0 1.01227
27 8.81167 0 0 1.98764 0 0
28 5.77884 0 0 1.33172 0 0
29 2.23249 0 0 0.65592 0 0
30 11.4725 0 0 1.93447 0.167488 -0.499317
31 0.615814 0.994373 -0.809165 2.90228 0.397795 0.455052
32 2.24752 0 0 -0.0977373 -0.0520997 0.039343
33 1.11936 0 0 -0.110556 0.115636 -0.00773769
34 3.71348 0.10264 0.102191 -1.40911 0.58357 0.0965934
35 1.72615 0 0 -0.0184067 -0.000676674 1.51735
36 1.21112 0 0 0.00667263 0.00800524 -0.321301
37 3.5992 1.06012 0.070888 -1.52636 0.488083 0.139804
38 1.66069 0 0 0.0439292 0.064311 0.822802
39 1.16699 0 0 0.0275332 0.0334931 0.32572
40 2.18853 -0.50104 0.0576587 -1.56816 0.138147 -0.161716
41 1.29609 0 0 0.0968892 -0.147774 0.669796
42 1.62202 -0.000713348 -0.000469208 -0.0204638 -0.0103198 1.57103
43 1.22241 0 0 0 0.00653323 -0.305208
44 1.76707 -1.27612 0.0366402 -1.36293 0.4626 -0.0448406
45 1.55587 0 0 -0.00955768 -0.0420001 0.976332
46 1.24273 0 0 0.000478876 0.00036063 1.0415
47 0.784533 0 0 -0.00138828 0.00235258 -0.396294
48 0 0 0 0 0 0
49 5.94055 2.54216 -7.80957 0 -1.5708 0
50 5.94795 -20.0098 -3.77284 -3.14159 -0.785398 3.14159
51 5.94055 2.54216 -6.74232 0 -1.5708 0
52 5.94795 -20.5874 -2.89952 0 -1.5708 0
53 5.41465 -8.74049 -4.56645 0 0 0
54 0.533295 -3.57396 -0.116835 0 0 0
55 -0.439463 -5.01739 0.910445 0 0 0
56 0 -2.26997 1.22871 0.02068 0 0
57 0 -5.92124 1.78377 0 0 0
58 0 -2.12202 -0.0619302 0 0 0
59 -0.575001 -1.69351 1.13699 0 0 0
60 0 -4.97524 -0.469842 0 0 0
61 0.694227 -1.89081 0.409987 -0.785398 0 0
time 1
0 5.11825 10.9692 -3.0277 -0.827033 0.693143 -1.04017
1 6.02794 0 0 -0.0203562 -0.0845622 -0.0840155
2 11.7344 0 0 -0.00140283 0 -1.74246
3 8.81138 -0.000449181 -0.000112295 -0.494632 0 0.000157804
4 5.77839 0.000287056 0 -0.331403 0 0.000103586
5 2.23163 -0.000329018 -0.000362873 -0.163229 0 0
6 11.4725 0 0 -0.621837 0.247083 1.13748
7 0.61522 -0.993091 -0.8107 2.36101 0.0512842 -0.442576
8 2.24752 0 0 0.0870421 0.0754453 0.0898681
9 1.11936 0 0 0.0868585 0.0464882 -0.110728
10 3.71348 -0.10264 0.102191 1.49829 0.896637 0.234767
11 1.72615 0 0 0.0263276 -0.0109869 -1.28727
12 1.21113 0 0 -0.000153999 0.000329018 -0.915737
13 3.59919 -1.06012 0.0708885 1.53395 0.161844 -0.0676456
14 1.66069 0 0 -0.00634794 0.131671 -0.637455
15 1.167 0 0 -0.00198883 -0.00149676 -1.02582
16 2.18852 0.50104 0.0576591 1.41514 0.0471915 0.071991
17 1.29609 0 0 -0.0777687 0.18264 -1.0512
18 1.62202 0.000713348 -0.000471592 0.029409 -0.0272531 -1.25676
19 1.22241 0 0 0.0223414 -0.0080243 -0.76603
20 1.76707 1.27612 0.0366411 1.328 0.225255 0.0733778
21 1.55588 0 0 -0.14294 0.159067 -1.06546
22 1.24274 0 0 -0.000479163 0.000360605 -1.00946
23 0.784525 0 0 0.0101639 0.0127498 -0.61013
24 -2.4735 1.96366 -5.48939 -0.143291 0.3441 -1.97314
25 6.02794 0 0 1.12415 0.0706558 0.682433
26 11.7344 0 0 0.00140267 0 1.10937
27 8.81167 0 0 2.01357 0 0
28 5.77884 0 0 1.34909 0 0
29 2.23249 0 0 0.664477 0 0
30 11.4725 0 0 1.9453 0.153362 -0.553336
31 0.615814 0.994373 -0.809165 2.90228 0.397795 0.455052
32 2.24752 0 0 -0.0977373 -0.0520997 0.0393429
33 1.11936 0 0 -0.110556 0.115636 -0.00773767
34 3.71348 0.10264 0.102191 -1.40911 0.58357 0.0965933
35 1.72615 0 0 -0.0184067 -0.000676607 1.51735
36 1.21112 0 0 0.0066725 0.00800512 -0.321301
37 3.5992 1.06012 0.0708885 -1.52636 0.488082 0.139804
38 1.66069 0 0 0.0439292 0.0643108 0.822802
39 1.16699 0 0 0.0275332 0.0334931 0.32572
40 2.18853 -0.50104 0.0576596 -1.56816 0.138147 -0.161716
41 1.29609 0 0 0.0968892 -0.147774 0.669796
42 1.62202 -0.000715256 -0.000471115 -0.0204637 -0.0103197 1.57103
43 1.22241 0 0 0 0.00653295 -0.305208
44 1.76707 -1.27612 0.0366411 -1.36293 0.4626 -0.0448406
45 1.55588 0 0 -0.00955765 -0.0420001 0.976332
46 1.24273 0 0 0.000478863 0.000360727 1.0415
47 0.784533 0 0 -0.0013884 0.00235227 -0.396293
48 0 0 0 0 0 0
49 5.93601 3.1889 -7.85154 -0.888268 -1.5681 0.888246
50 5.95003 -19.3546 -3.76758 -3.13862 -0.787098 3.13948
51 5.93783 3.19114 -6.7843 -0.888437 -1.5681 0.888415
52 5.95151 -19.9304 -2.89305 -0.88818 -1.5681 0.888158
53 5.41465 -8.74049 -4.56645 0 0 0
54 0.53391 -2.92063 -0.127697 -0.0020957 0.00170301 0
55 -0.439464 -5.01739 0.910445 0 0 0
56 0 -2.26997 1.22871 0.02068 0 0
57 0 -5.92124 1.78377 0 0 0
58 0 -2.12202 -0.0619302 0.352503 0 0
59 -0.575001 -1.69351 1.13699 0 0 0
60 0 -4.97525 -0.469842 0 0 0
61 0.694226 -1.89081 0.409988 0 0 0
time 2
0 5.11825 10.9692 -3.0277 -0.827033 0.693143 -1.04017
1 6.02794 0 0 -0.0381012 -0.082684 0.00811041
2 11.7344 0 0 -0.00140283 0 -1.95326
3 8.81138 -0.000450134 -0.000112057 -0.443435 0 0.000157866
4 5.77839 0.000286102 0 -0.297102 0 0.000103882
5 2.23163 -0.000329971 -0.000363827 -0.146334 0 0
6 11.4725 0 0 -0.620438 0.251177 1.25198
7 0.615219 -0.993091 -0.8107 2.36101 0.0512842 -0.442576
8 2.24752 0 0 0.0870419 0.0754453 0.0898681
9 1.11936 0 0 0.0868586 0.0464882 -0.110728
10 3.71348 -0.10264 0.102191 1.49829 0.896637 0.234767
11 1.72615 0 0 0.0263276 -0.0109869 -1.28727
12 1.21114 0 0 -0.000154038 0.000329098 -0.915737
13 3.59919 -1.06012 0.0708885 1.53395 0.161844 -0.0676456
14 1.66069 0 0 -0.00634793 0.131671 -0.637455
15 1.167 0 0 -0.0019889 -0.0014968 -1.02582
16 2.18853 0.50104 0.0576591 1.41514 0.0471914 0.071991
17 1.29609 0 0 -0.0777687 0.18264 -1.0512
18 1.62202 0.000712395 -0.000470638 0.029409 -0.0272532 -1.25676
19 1.22241 0 0 0.0223414 -0.00802426 -0.76603
20 1.76707 1.27612 0.0366411 1.328 0.225255 0.0733779
21 1.55588 0 0 -0.14294 0.159067 -1.06546
22 1.24273 0 0 -0.000479227 0.000360536 -1.00946
23 0.784523 0 0 0.010164 0.0127498 -0.61013
24 -2.4735 1.96366 -5.48939 -0.143291 0.3441 -1.97314
25 6.02794 0 0 1.05889 0.162136 0.649751
26 11.7344 0 0 0.00140268 0 1.35956
27 8.81167 0 0 2.10239 0 0
28 5.77884 0 0 1.4086 0 0
29 2.23249 0 0 0.693788 0 0
30 11.4725 0 0 1.98093 0.106973 -0.699681
31 0.615812 0.994372 -0.809165 2.90228 0.397795 0.455052
32 2.24752 0 0 -0.0977373 -0.0520997 0.0393429
33 1.11936 0 0 -0.110556 0.115636 -0.00773757
34 3.71348 0.102639 0.102191 -1.40911 0.58357 0.0965932
35 1.72615 0 0 -0.0184068 -0.000676699 1.51735
36 1.21112 0 0 0.0066727 0.008005 -0.321301
37 3.5992 1.06012 0.0708885 -1.52636 0.488083 0.139804
38 1.66069 0 0 0.0439293 0.0643108 0.822802
39 1.16699 0 0 0.0275332 0.0334933 0.32572
40 2.18853 -0.50104 0.0576587 -1.56816 0.138147 -0.161716
41 1.29609 0 0 0.0968891 -0.147774 0.669796
42 1.62202 -0.000715256 -0.000471115 -0.0204637 -0.0103197 1.57103
43 1.22241 0 0 0 0.00653317 -0.305208
44 1.76707 -1.27612 0.0366406 -1.36293 0.4626 -0.0448406
45 1.55587 0 0 -0.0095576 -0.0420001 0.976332
46 1.24273 0 0 0.000478866 0.000360614 1.0415
47 0.784531 0 0 -0.00138825 0.00235242 -0.396294
48 0 0 0 0 0 0
49 5.92174 5.12876 -7.97733 -0.888361 -1.55999 0.888332
50 5.95659 -17.3886 -3.75183 -3.12966 -0.792174 3.13309
51 5.92901 5.13771 -6.91013 -0.8884 -1.55999 0.88837
52 5.96254 -17.9589 -2.87372 -0.88834 -1.55999 0.88831
53 5.41465 -8.74049 -4.56645 0 0 0
54 0.535754 -0.960635 -0.160282 -0.00838282 0.00681203 0
55 -0.439463 -5.01739 0.910445 0 0 0
56 0 -2.26997 1.22871 0.02068 0 0
57 0 -5.92124 1.78377 0 0 0
58 0 -2.12202 -0.0619302 0.352503 0 0
59 -0.575001 -1.69351 1.13699 0 0 0
60 0 -4.97524 -0.469842 0 0 0
61 0.694226 -1.89081 0.409987 0 0 0
time 3
0 5.11825 10.9692 -3.0277 -0.827033 0.693143 -1.04017
1 6.02794 0 0 -0.0325189 -0.083517 -0.0200362
2 11.7344 0 0 -0.00140275 0 -1.89486
3 8.81138 -0.000450134 -0.00011301 -0.456537 0 0.000157982
4 5.77839 0.000286102 0 -0.30588 0 0.000103928
5 2.23163 -0.000329018 -0.000364304 -0.150657 0 0
6 11.4725 0 0 -0.626453 0.246752 1.22317
7 0.615219 -0.993091 -0.8107 2.36101 0.0512841 -0.442576
8 2.24752 0 0 0.0870419 0.0754453 0.0898681
9 1.11936 0 0 0.0868585 0.0464882 -0.110728
10 3.71348 -0.102641 0.10219 1.49829 0.896637 0.234767
11 1.72615 0 0 0.0263276 -0.0109868 -1.28727
12 1.21114 0 0 -0.000154065 0.000329085 -0.915737
13 3.59919 -1.06012 0.0708876 1.53395 0.161844 -0.0676456
14 1.66069 0 0 -0.00634792 0.131671 -0.637455
15 1.167 0 0 -0.0019889 -0.00149679 -1.02582
16 2.18853 0.50104 0.0576582 1.41514 0.0471916 0.0719911
17 1.29609 0 0 -0.0777686 0.18264 -1.0512
18 1.62202 0.000715256 -0.000471115 0.029409 -0.0272532 -1.25676
19 1.22241 0 0 0.0223413 -0.00802424 -0.76603
20 1.76707 1.27612 0.0366402 1.328 0.225255 0.0733779
21 1.55588 0 0 -0.14294 0.159067 -1.06546
22 1.24273 0 0 -0.000479213 0.00036051 -1.00946
23 0.784524 0 0 0.0101639 0.0127499 -0.61013
24 -2.4735 1.96366 -5.48939 -0.143291 0.3441 -1.97314
25 6.02794 0 0 1.07932 0.135016 0.660832
26 11.7344 0 0 0.00140257 0 1.28998
27 8.81167 0 0 2.07102 0 0
28 5.77884 0 0 1.38758 0 0
29 2.23249 0 0 0.683435 0 0
30 11.4725 0 0 1.9658 0.125642 -0.661834
31 0.615814 0.994373 -0.809165 2.90228 0.397795 0.455052
32 2.24752 0 0 -0.0977373 -0.0520996 0.0393429
33 1.11936 0 0 -0.110556 0.115636 -0.00773772
34 3.71349 0.10264 0.102191 -1.40911 0.58357 0.0965935
35 1.72615 0 0 -0.0184066 -0.000676655 1.51735
36 1.21112 0 0 0.00667256 0.00800513 -0.321301
37 3.5992 1.06012 0.0708885 -1.52636 0.488083 0.139804
38 1.66069 0 0 0.0439293 0.0643108 0.822802
39 1.16699 0 0 0.0275332 0.0334933 0.32572
40 2.18853 -0.50104 0.0576591 -1.56816 0.138147 -0.161716
41 1.29609 0 0 0.0968893 -0.147774 0.669796
42 1.62202 -0.000715256 -0.000470161 -0.0204637 -0.0103196 1.57103
43 1.22241 0 0 0 0.00653313 -0.305208
44 1.76707 -1.27612 0.0366406 -1.36293 0.4626 -0.0448405
45 1.55588 0 0 -0.00955769 -0.0420001 0.976332
46 1.24273 0 0 0.000478916 0.00036046 1.0415
47 0.784533 0 0 -0.00138854 0.00235234 -0.396294
48 0 0 0 0 0 0
49 5.84579 4.57063 -7.91068 -0.644815 -1.55814 0.648622
50 5.98064 -17.9496 -3.70278 -3.13072 -0.795484 3.13768
51 5.85656 4.5788 -6.84352 -0.644844 -1.55814 0.64865
52 5.99167 -18.5206 -2.82513 -0.644804 -1.55814 0.648611
53 5.41465 -8.74049 -4.56645 0 0 0
54 0.527211 -1.52101 -0.105243 -0.00760837 0.0101158 0.00376946
55 -0.439464 -5.01739 0.910445 0 0 0
56 0 -2.26997 1.22871 0.02068 0 0
57 0 -5.92124 1.78377 0 0 0
58 0 -2.12202 -0.0619297 0.352503 0 0
59 -0.575001 -1.69351 1.13699 0 0 0
60 0 -4.97524 -0.469841 0 0 0
61 0.694226 -1.89081 0.409987 0 0 0
time 4
0 5.11825 10.9692 -3.0277 -0.827033 0.693143 -1.04017
1 6.02794 0 0 -0.0297117 -0.0838503 -0.0343286
2 11.7344 0 0 -0.00140275 0 -1.86531
3 8.81138 -0.000449181 -0.00011158 -0.463111 0 0.000157791
4 5.77839 0.000287056 0 -0.310284 0 0.000103729
5 2.23163 -0.000329971 -0.000364304 -0.152827 0 0
6 11.4725 0 0 -0.629349 0.244399 1.20836
7 0.615219 -0.993091 -0.8107 2.36101 0.0512842 -0.442576
8 2.24752 0 0 0.0870418 0.0754453 0.0898681
9 1.11936 0 0 0.0868587 0.0464882 -0.110728
10 3.71348 -0.102641 0.102191 1.49829 0.896637 0.234767
11 1.72615 0 0 0.0263276 -0.0109868 -1.28727
12 1.21114 0 0 -0.000153998 0.000329084 -0.915737
13 3.59919 -1.06012 0.0708885 1.53395 0.161844 -0.0676455
14 1.66069 0 0 -0.00634789 0.131671 -0.637455
15 1.167 0 0 -0.00198888 -0.00149679 -1.02582
16 2.18853 0.501039 0.0576591 1.41514 0.0471915 0.0719911
17 1.29609 0 0 -0.0777687 0.18264 -1.0512
18 1.62202 0.000713348 -0.000471115 0.029409 -0.0272531 -1.25676
19 1.22241 0 0 0.0223414 -0.00802425 -0.76603
20 1.76707 1.27612 0.0366411 1.328 0.225255 0.0733779
21 1.55588 0 0 -0.142939 0.159067 -1.06546
22 1.24273 0 0 -0.000479213 0.00036051 -1.00946
23 0.784524 0 0 0.0101639 0.0127498 -0.61013
24 -2.4735 1.96366 -5.48939 -0.143291 0.3441 -1.97314
25 6.02794 0 0 1.08919 0.120366 0.666495
26 11.7344 0 0 0.00140261 0 1.25369
27 8.81167 0 0 2.05557 0 0
28 5.77884 0 0 1.37723 0 0
29 2.23249 0 0 0.678338 0 0
30 11.4725 0 0 1.95831 0.134663 -0.642257
31 0.615812 0.994371 -0.809165 2.90228 0.397795 0.455052
32 2.24752 0 0 -0.0977373 -0.0520997 0.0393429
33 1.11936 0 0 -0.110556 0.115636 -0.00773771
34 3.71348 0.102638 0.10219 -1.40911 0.58357 0.0965934
35 1.72615 0 0 -0.0184066 -0.000676726 1.51735
36 1.21112 0 0 0.00667251 0.00800504 -0.321301
37 3.5992 1.06012 0.070888 -1.52636 0.488083 0.139804
38 1.66069 0 0 0.0439293 0.0643108 0.822802
39 1.16699 0 0 0.0275332 0.0334933 0.32572
40 2.18853 -0.501041 0.0576591 -1.56816 0.138147 -0.161716
41 1.29609 0 0 0.0968893 -0.147774 0.669796
42 1.62202 -0.000713348 -0.000468254 -0.0204637 -0.0103196 1.57103
43 1.22241 0 0 0 0.00653306 -0.305208
44 1.76707 -1.27612 0.0366406 -1.36293 0.4626 -0.0448406
45 1.55588 0 0 -0.00955767 -0.0420001 0.976332
46 1.24273 0 0 0.000478992 0.000360593 1.0415
47 0.784531 0 0 -0.00138831 0.00235243 -0.396294
48 0 0 0 0 0 0
49 5.80787 4.29157 -7.8816 -0.574795 -1.55695 0.580477
50 5.99112 -18.2287 -3.67562 -3.13082 -0.796986 3.13962
51 5.82022 4.29968 -6.81445 -0.574836 -1.55695 0.580517
52 6.00454 -18.7997 -2.79804 -0.574803 -1.55695 0.580484
53 5.41465 -8.74049 -4.56645 0 0 0
54 0.521864 -1.80011 -0.0774422 -0.00752586 0.0116169 0.00563917
55 -0.439463 -5.01739 0.910445 0 0 0
56 0 -2.26997 1.22871 0.02068 0 0
57 0 -5.92124 1.78377 0 0 0
58 0 -2.12202 -0.0619302 0.352503 0 0
59 -0.575001 -1.69351 1.13699 0 0 0
60 0 -4.97524 -0.469842 0 0 0
61 0.694226 -1.89081 0.409987 0 0 0
time 5
0 5.11825 10.9692 -3.0277 -0.827033 0.693143 -1.04017
1 6.02794 0 0 -0.0278487 -0.0839578 -0.0416261
2 11.7344 0 0 -0.00140288 0 -1.85066
3 8.81138 -0.000450134 -0.000112534 -0.465821 0 0.000157733
4 5.77839 0.000285149 0 -0.3121 0 0.000103713
5 2.23163 -0.000329971 -0.00036335 -0.153721 0 0
6 11.4725 0 0 -0.630738 0.241976 1.19992
7 0.615218 -0.993091 -0.810699 2.36101 0.0512842 -0.442577
8 2.24752 0 0 0.0870419 0.0754453 0.0898681
9 1.11936 0 0 0.0868585 0.0464882 -0.110728
10 3.71348 -0.102641 0.102191 1.49829 0.896637 0.234767
11 1.72615 0 0 0.0263275 -0.0109868 -1.28727
12 1.21114 0 0 -0.000154025 0.000329071 -0.915737
13 3.59919 -1.06012 0.0708885 1.53395 0.161844 -0.0676456
14 1.66069 0 0 -0.00634791 0.131671 -0.637455
15 1.167 0 0 -0.00198888 -0.00149678 -1.02582
16 2.18852 0.50104 0.0576591 1.41514 0.0471914 0.0719909
17 1.29609 0 0 -0.0777687 0.18264 -1.0512
18 1.62202 0.000714302 -0.000470638 0.029409 -0.0272532 -1.25676
19 1.22241 0 0 0.0223414 -0.00802421 -0.76603
20 1.76707 1.27612 0.0366411 1.328 0.225255 0.0733778
21 1.55588 0 0 -0.142939 0.159067 -1.06546
22 1.24273 0 0 -0.000479198 0.000360484 -1.00946
23 0.784523 0 0 0.0101639 0.0127498 -0.61013
24 -2.4735 1.96366 -5.48939 -0.143291 0.3441 -1.97314
25 6.02794 0 0 1.09468 0.112249 0.669462
26 11.7344 0 0 0.00140284 0 1.23568
27 8.81167 0 0 2.04696 0 0
28 5.77884 0 0 1.37146 0 0
29 2.23249 0 0 0.675497 0 0
30 11.4725 0 0 1.9539 0.139119 -0.631899
31 0.615812 0.994371 -0.809165 2.90228 0.397795 0.455052
32 2.24752 0 0 -0.0977373 -0.0520997 0.0393429
33 1.11936 0 0 -0.110556 0.115636 -0.00773746
34 3.71349 0.102639 0.102191 -1.40911 0.58357 0.0965934
35 1.72615 0 0 -0.0184066 -0.000676695 1.51735
36 1.21112 0 0 0.00667258 0.00800498 -0.321301
37 3.5992 1.06012 0.070888 -1.52636 0.488083 0.139804
38 1.66069 0 0 0.0439292 0.0643109 0.822802
39 1.16699 0 0 0.0275332 0.0334931 0.32572
40 2.18853 -0.50104 0.0576591 -1.56816 0.138147 -0.161716
41 1.29609 0 0 0.0968891 -0.147774 0.669796
42 1.62202 -0.000713348 -0.000468254 -0.0204638 -0.0103197 1.57103
43 1.22241 0 0 0 0.0065331 -0.305208
44 1.76707 -1.27612 0.0366406 -1.36293 0.4626 -0.0448405
45 1.55588 0 0 -0.00955755 -0.0420002 0.976332
46 1.24273 0 0 0.000478876 0.00036063 1.0415
47 0.784531 0 0 -0.00138829 0.00235231 -0.396293
48 0 0 0 0 0 0
49 5.78432 4.14989 -7.88635 -0.656048 -1.55597 0.662672
50 5.98943 -18.3638 -3.64619 -3.12865 -0.797105 3.13901
51 5.79679 4.15963 -6.81922 -0.656081 -1.55597 0.662705
52 6.00349 -18.9334 -2.76774 -0.656046 -1.55597 0.662671
53 5.41465 -8.74049 -4.56645 0 0 0
54 0.512771 -1.93672 -0.0596786 -0.00904493 0.0117484 0.00656903
55 -0.439463 -5.01739 0.910445 0 0 0
56 0 -2.26997 1.22871 0.02068 0 0
57 0 -5.92124 1.78377 0 0 0
58 0 -2.12202 -0.0619302 0.352503 0 0
59 -0.575001 -1.69351 1.13699 0 0 0
60 0 -4.97524 -0.469842 0 0 0
61 0.694226 -1.89081 0.409988 0 0 0
time 6
0 5.11825 10.9692 -3.0277 -0.827033 0.693143 -1.04017
1 6.02794 0 0 -0.0274253 -0.0838427 -0.0393811
2 11.7344 0 0 -0.00140284 0 -1.85619
3 8.81138 -0.000449181 -0.000112057 -0.463594 0 0.000157446
4 5.77839 0.000287056 0 -0.310608 0 0.000103417
5 2.23163 -0.000329018 -0.00036478 -0.152986 0 0
6 11.4725 0 0 -0.630469 0.240158 1.20109
7 0.615219 -0.993091 -0.8107 2.36101 0.0512843 -0.442576
8 2.24752 0 0 0.0870418 0.0754453 0.0898681
9 1.11936 0 0 0.0868586 0.0464881 -0.110728
10 3.71348 -0.10264 0.102191 1.49829 0.896637 0.234767
11 1.72615 0 0 0.0263276 -0.0109868 -1.28727
12 1.21114 0 0 -0.000154092 0.000329005 -0.915737
13 3.59919 -1.06012 0.0708885 1.53395 0.161845 -0.0676456
14 1.66069 0 0 -0.00634791 0.131671 -0.637455
15 1.167 0 0 -0.00198888 -0.0014968 -1.02582
16 2.18852 0.50104 0.0576591 1.41514 0.0471916 0.0719911
17 1.29609 0 0 -0.0777687 0.18264 -1.0512
18 1.62202 0.000714302 -0.000470638 0.029409 -0.0272532 -1.25676
19 1.22241 0 0 0.0223414 -0.00802417 -0.76603
20 1.76707 1.27612 0.0366411 1.328 0.225255 0.0733779
21 1.55588 0 0 -0.142939 0.159067 -1.06546
22 1.24274 0 0 -0.00047921 0.000360443 -1.00946
23 0.784525 0 0 0.0101639 0.0127498 -0.61013
24 -2.4735 1.96366 -5.48939 -0.143291 0.3441 -1.97314
25 6.02794 0 0 1.09414 0.113787 0.668781
26 11.7344 0 0 0.00140262 0 1.24248
27 8.81167 0 0 2.04776 0 0
28 5.77884 0 0 1.372 0 0
29 2.23249 0 0 0.675761 0 0
30 11.4725 0 0 1.95392 0.137844 -0.634503
31 0.61581 0.994371 -0.809165 2.90228 0.397795 0.455052
32 2.24751 0 0 -0.0977373 -0.0520997 0.039343
33 1.11936 0 0 -0.110556 0.115636 -0.0077378
34 3.71349 0.102639 0.10219 -1.40911 0.58357 0.0965932
35 1.72615 0 0 -0.0184067 -0.000676754 1.51735
36 1.21112 0 0 0.00667242 0.00800509 -0.321301
37 3.5992 1.06012 0.070888 -1.52636 0.488083 0.139804
38 1.66069 0 0 0.0439292 0.0643109 0.822802
39 1.16699 0 0 0.0275332 0.0334932 0.32572
40 2.18853 -0.50104 0.0576587 -1.56816 0.138147 -0.161716
41 1.29609 0 0 0.0968892 -0.147774 0.669796
42 1.62202 -0.000713348 -0.000469208 -0.020464 -0.0103199 1.57103
43 1.22241 0 0 0 0.00653318 -0.305208
44 1.76707 -1.27612 0.0366402 -1.36293 0.4626 -0.0448406
45 1.55587 0 0 -0.00955768 -0.0420002 0.976332
46 1.24273 0 0 0.000478861 0.000360604 1.0415
47 0.784533 0 0 -0.00138829 0.00235235 -0.396293
48 0 0 0 0 0 0
49 5.77901 4.19395 -7.92108 -0.823272 -1.55509 0.829766
50 5.97698 -18.3092 -3.62516 -3.12513 -0.796008 3.13638
51 5.79032 4.20632 -6.85396 -0.823299 -1.55509 0.829792
52 5.99002 -18.8767 -2.7453 -0.82326 -1.55509 0.829753
53 5.41465 -8.74049 -4.56645 0 0 0
54 0.502246 -1.88459 -0.0576849 -0.0115194 0.0106771 0.00643047
55 -0.439464 -5.01739 0.910445 0 0 0
56 0 -2.26997 1.22871 0.02068 0 0
57 0 -5.92124 1.78377 0 0 0
58 0 -2.12202 -0.0619297 0.352503 0 0
59 -0.575001 -1.69351 1.13699 0 0 0
60 0 -4.97524 -0.469841 0 0 0
61 0.694226 -1.89081 0.409987 0 0 0
time 7
0 5.11825 10.9692 -3.0277 -0.827033 0.693143 -1.04017
1 6.02794 0 0 -0.0273976 -0.0836753 -0.0344616
2 11.7344 0 0 -0.00140284 0 -1.86721
3 8.81138 -0.000449181 -0.000111818 -0.460231 0 0.000157763
4 5.77839 0.000287056 0 -0.308355 0 0.000103764
5 2.23163 -0.000328064 -0.000362873 -0.151876 0 0
6 11.4725 0 0 -0.630177 0.23891 1.20552
7 0.615219 -0.993091 -0.8107 2.36101 0.0512842 -0.442576
8 2.24752 0 0 0.0870419 0.0754453 0.089868
9 1.11936 0 0 0.0868585 0.0464882 -0.110728
10 3.71348 -0.102641 0.102191 1.49829 0.896637 0.234767
11 1.72615 0 0 0.0263276 -0.0109869 -1.28727
12 1.21114 0 0 -0.000153999 0.000329018 -0.915737
13 3.59919 -1.06012 0.0708885 1.53395 0.161844 -0.0676455
14 1.66069 0 0 -0.00634792 0.131671 -0.637455
15 1.167 0 0 -0.00198888 -0.00149681 -1.02582
16 2.18853 0.501039 0.0576591 1.41514 0.0471915 0.0719911
17 1.29609 0 0 -0.0777687 0.18264 -1.0512
18 1.62202 0.000713348 -0.000471115 0.029409 -0.0272531 -1.25676
19 1.22241 0 0 0.0223413 -0.00802421 -0.766031
20 1.76707 1.27612 0.0366411 1.328 0.225255 0.0733779
21 1.55588 0 0 -0.142939 0.159067 -1.06546
22 1.24274 0 0 -0.000479184 0.000360457 -1.00946
23 0.784523 0 0 0.0101639 0.0127498 -0.61013
24 -2.4735 1.96366 -5.48939 -0.143291 0.3441 -1.97314
25 6.02794 0 0 1.09156 0.118369 0.66698
26 11.7344 0 0 0.00140266 0 1.25597
27 8.81167 0 0 2.05156 0 0
28 5.77884 0 0 1.37455 0 0
29 2.23249 0 0 0.677016 0 0
30 11.4725 0 0 1.95537 0.135186 -0.641005
31 0.61581 0.994373 -0.809165 2.90228 0.397795 0.455052
32 2.24752 0 0 -0.0977373 -0.0520997 0.039343
33 1.11936 0 0 -0.110556 0.115636 -0.00773765
34 3.71348 0.102641 0.102191 -1.40911 0.58357 0.0965934
35 1.72615 0 0 -0.0184065 -0.000676585 1.51735
36 1.21112 0 0 0.00667244 0.00800497 -0.321301
37 3.5992 1.06012 0.0708885 -1.52636 0.488083 0.139804
38 1.66069 0 0 0.0439292 0.0643109 0.822802
39 1.16699 0 0 0.0275333 0.0334931 0.32572
40 2.18853 -0.50104 0.0576591 -1.56816 0.138148 -0.161716
41 1.29609 0 0 0.0968892 -0.147774 0.669796
42 1.62202 -0.000711441 -0.000470161 -0.0204638 -0.0103197 1.57103
43 1.22241 0 0 0 0.00653317 -0.305208
44 1.76707 -1.27612 0.0366406 -1.36293 0.4626 -0.0448406
45 1.55587 0 0 -0.00955763 -0.0420001 0.976332
46 1.24273 0 0 0.000478866 0.000360613 1.0415
47 0.784533 0 0 -0.00138846 0.00235227 -0.396294
48 0 0 0 0 0 0
49 5.77615 4.29088 -7.9547 -0.939324 -1.55419 0.945565
50 5.96495 -18.2042 -3.6163 -3.12245 -0.79511 3.13423
51 5.78652 4.30526 -6.8876 -0.939351 -1.55419 0.945592
52 5.97708 -18.77 -2.73535 -0.939311 -1.55419 0.945552
53 5.41465 -8.74049 -4.56645 0 0 0
54 0.492932 -1.78146 -0.0633211 -0.0134059 0.00980353 0.00617323
55 -0.439464 -5.01739 0.910444 0 0 0
56 0 -2.26997 1.22871 0.02068 0 0
57 0 -5.92123 1.78377 0 0 0
58 0 -2.12202 -0.0619297 0.352503 0 0
59 -0.575001 -1.69351 1.13699 0 0 0
60 0 -4.97524 -0.469842 0 0 0
61 0.694226 -1.89081 0.409987 0 0 0
time 8
0 5.11825 10.9692 -3.0277 -0.827033 0.693143 -1.04017
1 6.02794 0 0 -0.0268211 -0.0835957 -0.0333973
2 11.7344 0 0 -0.00140283 0 -1.86901
3 8.81138 -0.000450134 -0.000111818 -0.459801 0 0.000157856
4 5.77839 0.000286102 0 -0.308067 0 0.000103858
5 2.23163 -0.000329971 -0.000363827 -0.151734 0 0
6 11.4725 0 0 -0.630654 0.237986 1.20524
7 0.615219 -0.993091 -0.810701 2.36101 0.0512843 -0.442576
8 2.24752 0 0 0.0870418 0.0754453 0.0898681
9 1.11936 0 0 0.0868585 0.0464882 -0.110728
10 3.71348 -0.102641 0.102192 1.49829 0.896637 0.234767
11 1.72615 0 0 0.0263276 -0.0109868 -1.28727
12 1.21113 0 0 -0.000153972 0.000329097 -0.915737
13 3.59919 -1.06012 0.0708885 1.53395 0.161845 -0.0676455
14 1.66069 0 0 -0.00634793 0.131671 -0.637455
15 1.167 0 0 -0.00198889 -0.00149678 -1.02582
16 2.18852 0.501039 0.0576591 1.41514 0.0471916 0.0719911
17 1.29609 0 0 -0.0777687 0.18264 -1.0512
18 1.62202 0.000713348 -0.000471115 0.029409 -0.0272532 -1.25676
19 1.22241 0 0 0.0223414 -0.00802422 -0.76603
20 1.76707 1.27612 0.0366402 1.328 0.225255 0.0733779
21 1.55588 0 0 -0.142939 0.159067 -1.06546
22 1.24273 0 0 -0.000479187 0.000360524 -1.00946
23 0.784524 0 0 0.0101639 0.0127499 -0.61013
24 -2.4735 1.96366 -5.48939 -0.143291 0.3441 -1.97314
25 6.02794 0 0 1.09146 0.119134 0.666592
26 11.7344 0 0 0.00140278 0 1.25835
27 8.81167 0 0 2.05136 0 0
28 5.77884 0 0 1.37441 0 0
29 2.23249 0 0 0.676949 0 0
30 11.4725 0 0 1.95503 0.134781 -0.641698
31 0.61581 0.994372 -0.809165 2.90228 0.397795 0.455052
32 2.24752 0 0 -0.0977373 -0.0520997 0.0393429
33 1.11936 0 0 -0.110556 0.115636 -0.00773775
34 3.71349 0.102639 0.102191 -1.40911 0.58357 0.096593
35 1.72615 0 0 -0.0184068 -0.000676721 1.51735
36 1.21112 0 0 0.00667255 0.00800517 -0.321301
37 3.5992 1.06012 0.070888 -1.52636 0.488083 0.139803
38 1.66069 0 0 0.0439292 0.0643108 0.822802
39 1.16699 0 0 0.0275332 0.0334932 0.32572
40 2.18853 -0.50104 0.0576596 -1.56816 0.138147 -0.161716
41 1.29609 0 0 0.0968892 -0.147774 0.669796
42 1.62202 -0.000713348 -0.0004673 -0.0204636 -0.0103197 1.57103
43 1.22241 0 0 0 0.00653323 -0.305208
44 1.76707 -1.27612 0.0366402 -1.36293 0.4626 -0.0448408
45 1.55588 0 0 -0.00955767 -0.0420003 0.976332
46 1.24273 0 0 0.000478972 0.000360678 1.0415
47 0.784533 0 0 -0.00138851 0.00235221 -0.396294
48 0 0 0 0 0 0
49 5.77284 4.30394 -7.97459 -0.980796 -1.55347 0.986921
50 5.95849 -18.1868 -3.61377 -3.12103 -0.794935 3.13311
51 5.78303 4.31938 -6.9075 -0.980817 -1.55347 0.986943
52 5.97041 -18.7518 -2.73226 -0.980777 -1.55346 0.986903
53 5.41465 -8.74049 -4.56645 0 0 0
54 0.487474 -1.7651 -0.0684462 -0.014402 0.00964185 0.00605619
55 -0.439463 -5.01739 0.910445 0 0 0
56 0 -2.26997 1.22871 0.02068 0 0
57 0 -5.92124 1.78377 0 0 0
58 0 -2.12202 -0.0619302 0.352503 0 0
59 -0.575001 -1.69351 1.13699 0 0 0
60 0 -4.97524 -0.469841 0 0 0
61 0.694226 -1.89081 0.409988 0 0 0
time 9
0 5.11825 10.9692 -3.0277 -0.827033 0.693143 -1.04017
1 6.02794 0 0 -0.0254078 -0.0836262 -0.0377059
2 11.7344 0 0 -0.0014028 0 -1.85716
3 8.81138 -0.000450134 -0.000112772 -0.463731 0 0.000157853
4 5.77839 0.000286102 0 -0.3107 0 0.000103823
5 2.23163 -0.000329018 -0.000363827 -0.153031 0 0
6 11.4725 0 0 -0.631636 0.237077 1.1966
7 0.615219 -0.993092 -0.8107 2.36101 0.0512842 -0.442576
8 2.24752 0 0 0.0870419 0.0754453 0.0898681
9 1.11936 0 0 0.0868585 0.0464882 -0.110728
10 3.71348 -0.102642 0.102191 1.49829 0.896637 0.234767
11 1.72615 0 0 0.0263276 -0.0109868 -1.28727
12 1.21114 0 0 -0.000153959 0.000329004 -0.915737
13 3.59919 -1.06012 0.0708885 1.53395 0.161844 -0.0676456
14 1.66069 0 0 -0.0063479 0.131671 -0.637455
15 1.167 0 0 -0.00198888 -0.0014968 -1.02582
16 2.18852 0.501039 0.0576591 1.41514 0.0471916 0.071991
17 1.29609 0 0 -0.0777687 0.18264 -1.0512
18 1.62202 0.000713348 -0.000470638 0.029409 -0.0272532 -1.25676
19 1.22241 0 0 0.0223414 -0.00802425 -0.76603
20 1.76707 1.27612 0.0366411 1.328 0.225255 0.0733778
21 1.55588 0 0 -0.142939 0.159067 -1.06546
22 1.24274 0 0 -0.000479224 0.000360469 -1.00946
23 0.784523 0 0 0.0101639 0.0127498 -0.61013
24 -2.4735 1.96366 -5.48939 -0.143291 0.3441 -1.97314
25 6.02794 0 0 1.09538 0.113937 0.668382
26 11.7344 0 0 0.0014027 0 1.24437
27 8.81167 0 0 2.04475 0 0
28 5.77884 0 0 1.36998 0 0
29 2.23249 0 0 0.674766 0 0
30 11.4725 0 0 1.9519 0.137155 -0.633019
31 0.615812 0.994372 -0.809165 2.90228 0.397795 0.455052
32 2.24752 0 0 -0.0977374 -0.0520997 0.0393429
33 1.11936 0 0 -0.110556 0.115636 -0.00773769
34 3.71349 0.10264 0.102191 -1.40911 0.58357 0.0965933
35 1.72615 0 0 -0.0184066 -0.000676611 1.51735
36 1.21112 0 0 0.00667256 0.00800494 -0.321301
37 3.5992 1.06012 0.0708885 -1.52636 0.488083 0.139803
38 1.66069 0 0 0.0439293 0.0643107 0.822802
39 1.16699 0 0 0.0275332 0.0334932 0.32572
40 2.18853 -0.50104 0.0576596 -1.56816 0.138147 -0.161716
41 1.29609 0 0 0.0968893 -0.147774 0.669796
42 1.62202 -0.000713348 -0.000469208 -0.0204637 -0.0103196 1.57103
43 1.22241 0 0 0 0.00653309 -0.305208
44 1.76707 -1.27612 0.0366406 -1.36293 0.4626 -0.0448406
45 1.55588 0 0 -0.00955771 -0.0420001 0.976332
46 1.24273 0 0 0.000478781 0.000360465 1.0415
47 0.784533 0 0 -0.00138837 0.00235244 -0.396294
48 0 0 0 0 0 0
49 5.77722 4.18958 -7.9926 -1.00233 -1.55271 1.00817
50 5.95674 -18.2976 -3.61292 -3.11983 -0.795015 3.13196
51 5.78752 4.20591 -6.92553 -1.00236 -1.55271 1.00819
52 5.96858 -18.8618 -2.73094 -1.00232 -1.55271 1.00815
53 5.41465 -8.74049 -4.56645 0 0 0
54 0.487863 -1.87669 -0.074039 -0.015241 0.00973477 0.00575829
55 -0.439464 -5.01739 0.910445 0 0 0
56 0 -2.26997 1.22871 0.02068 0 0
57 0 -5.92124 1.78377 0 0 0
58 0 -2.12202 -0.0619302 0.352503 0 0
59 -0.575 -1.69351 1.13699 0 0 0
60 0 -4.97524 -0.469842 0 0 0
61 0.694227 -1.89081 0.409987 0 0 0
time 10
0 5.11825 10.9692 -3.0277 -0.827033 0.693143 -1.04017
1 6.02794 0 0 -0.023582 -0.0836797 -0.0442739
2 11.7344 0 0 -0.00140282 0 -1.8389
3 8.81138 -0.000450134 -0.000112534 -0.469845 0 0.000157745
4 5.77839 0.000287056 0 -0.314796 0 0.000103664
5 2.23163 -0.000329018 -0.000363827 -0.155049 0 0
6 11.4725 0 0 -0.632952 0.236208 1.18381
7 0.61522 -0.993092 -0.8107 2.36101 0.0512842 -0.442577
8 2.24752 0 0 0.0870418 0.0754453 0.0898679
9 1.11936 0 0 0.0868586 0.0464882 -0.110728
10 3.71348 -0.102641 0.102191 1.49829 0.896638 0.234767
11 1.72615 0 0 0.0263276 -0.0109868 -1.28727
12 1.21114 0 0 -0.000153972 0.000329031 -0.915737
13 3.59919 -1.06012 0.0708876 1.53395 0.161845 -0.0676456
14 1.66069 0 0 -0.00634793 0.131671 -0.637454
15 1.167 0 0 -0.00198889 -0.00149678 -1.02582
16 2.18853 0.501039 0.0576591 1.41514 0.0471917 0.071991
17 1.29609 0 0 -0.0777687 0.18264 -1.0512
18 1.62202 0.000714302 -0.000471592 0.029409 -0.0272532 -1.25676
19 1.22241 0 0 0.0223414 -0.00802426 -0.76603
20 1.76707 1.27612 0.0366402 1.328 0.225255 0.0733778
21 1.55588 0 0 -0.142939 0.159067 -1.06546
22 1.24273 0 0 -0.000479251 0.000360455 -1.00946
23 0.784524 0 0 0.010164 0.0127499 -0.61013
24 -2.4735 1.96366 -5.48939 -0.143291 0.3441 -1.97314
25 6.02794 0 0 1.10087 0.106032 0.671127
26 11.7344 0 0 0.00140284 0 1.2226
27 8.81166 0 0 2.03541 0 0
28 5.77884 0 0 1.36372 0 0
29 2.23249 0 0 0.671685 0 0
30 11.4725 0 0 1.94762 0.14064 -0.6198
31 0.615814 0.994372 -0.809165 2.90228 0.397795 0.455052
32 2.24752 0 0 -0.0977374 -0.0520997 0.0393428
33 1.11936 0 0 -0.110556 0.115636 -0.00773764
34 3.71349 0.102639 0.102191 -1.40911 0.58357 0.0965931
35 1.72615 0 0 -0.0184067 -0.00067655 1.51735
36 1.21112 0 0 0.00667264 0.00800504 -0.321301
37 3.5992 1.06012 0.0708885 -1.52636 0.488083 0.139804
38 1.66069 0 0 0.0439292 0.0643109 0.822802
39 1.16699 0 0 0.0275332 0.0334932 0.32572
40 2.18853 -0.50104 0.0576596 -1.56816 0.138147 -0.161716
41 1.29609 0 0 0.0968893 -0.147774 0.669796
42 1.62202 -0.000713348 -0.000470161 -0.0204638 -0.0103197 1.57103
43 1.22241 0 0 0 0.00653315 -0.305208
44 1.76707 -1.27612 0.0366406 -1.36293 0.4626 -0.0448406
45 1.55588 0 0 -0.00955768 -0.0420002 0.976332
46 1.24273 0 0 0.000479018 0.000360638 1.0415
47 0.784533 0 0 -0.00138841 0.00235229 -0.396294
48 0 0 0 0 0 0
49 5.78698 4.01665 -8.01297 -1.00912 -1.55197 1.01456
50 5.95894 -18.4675 -3.61774 -3.11883 -0.795295 3.13086
51 5.79759 4.03372 -6.94591 -1.00914 -1.55197 1.01457
52 5.97081 -19.0311 -2.73537 -1.0091 -1.55197 1.01454
53 5.41465 -8.74049 -4.56645 0 0 0
54 0.492776 -2.04734 -0.0841699 -0.015933 0.0100254 0.00535936
55 -0.439463 -5.01739 0.910444 0 0 0
56 0 -2.26997 1.22871 0.02068 0 0
57 0 -5.92124 1.78377 0 0 0
58 0 -2.12203 -0.0619297 0.352503 0 0
59 -0.575001 -1.69351 1.13699 0 0 0
60 0 -4.97525 -0.469842 0 0 0
61 0.694227 -1.89081 0.409987 0 0 0
time 11
0 5.11825 10.9692 -3.0277 -0.827033 0.693143 -1.04017
1 6.02794 0 0 -0.0215836 -0.0837388 -0.0523496
2 11.7344 0 0 -0.00140282 0 -1.81695
3 8.81138 -0.000450134 -0.000112534 -0.477047 0 0.000157619
4 5.77839 0.000286102 0 -0.319622 0 0.000103599
5 2.23163 -0.000329018 -0.000362873 -0.157426 0 0
6 11.4725 0 0 -0.63442 0.235418 1.1689
7 0.615219 -0.993091 -0.810699 2.36101 0.0512843 -0.442576
8 2.24752 0 0 0.0870418 0.0754454 0.0898681
9 1.11936 0 0 0.0868586 0.0464882 -0.110728
10 3.71348 -0.102641 0.102192 1.49829 0.896638 0.234767
11 1.72615 0 0 0.0263275 -0.0109869 -1.28727
12 1.21114 0 0 -0.000153972 0.000329031 -0.915737
13 3.59919 -1.06012 0.0708885 1.53395 0.161845 -0.0676455
14 1.66069 0 0 -0.00634791 0.131671 -0.637454
15 1.167 0 0 -0.00198887 -0.00149679 -1.02582
16 2.18852 0.50104 0.0576601 1.41514 0.0471916 0.0719911
17 1.29609 0 0 -0.0777687 0.18264 -1.0512
18 1.62202 0.000714302 -0.000471115 0.029409 -0.0272532 -1.25676
19 1.22241 0 0 0.0223413 -0.00802424 -0.76603
20 1.76707 1.27612 0.0366411 1.328 0.225255 0.0733779
21 1.55588 0 0 -0.142939 0.159067 -1.06546
22 1.24273 0 0 -0.000479161 0.000360538 -1.00946
23 0.784524 0 0 0.0101639 0.0127498 -0.61013
24 -2.4735 1.96366 -5.48939 -0.143291 0.3441 -1.97314
25 6.02794 0 0 1.10714 0.0962434 0.674515
26 11.7344 0 0 0.00140271 0 1.19594
27 8.81167 0 0 2.02474 0 0
28 5.77884 0 0 1.35658 0 0
29 2.23249 0 0 0.668165 0 0
30 11.4725 0 0 1.94274 0.144745 -0.603945
31 0.615812 0.994372 -0.809165 2.90228 0.397795 0.455052
32 2.24752 0 0 -0.0977373 -0.0520997 0.0393431
33 1.11936 0 0 -0.110556 0.115636 -0.00773759
34 3.71349 0.102639 0.102191 -1.40911 0.58357 0.0965933
35 1.72615 0 0 -0.0184067 -0.000676593 1.51735
36 1.21112 0 0 0.00667254 0.00800507 -0.321301
37 3.5992 1.06012 0.0708885 -1.52636 0.488083 0.139804
38 1.66069 0 0 0.0439293 0.0643109 0.822802
39 1.16699 0 0 0.0275334 0.0334932 0.32572
40 2.18853 -0.50104 0.0576591 -1.56816 0.138147 -0.161716
41 1.29609 0 0 0.0968892 -0.147774 0.669796
42 1.62202 -0.000713348 -0.000469208 -0.0204636 -0.0103196 1.57103
43 1.22241 0 0 0 0.00653306 -0.305208
44 1.76707 -1.27612 0.0366406 -1.36293 0.4626 -0.0448406
45 1.55588 0 0 -0.00955759 -0.0420001 0.976332
46 1.24273 0 0 0.000478952 0.000360642 1.0415
47 0.784534 0 0 -0.0013883 0.00235238 -0.396294
48 0 0 0 0 0 0
49 5.79879 3.81244 -8.03234 -1.00556 -1.55127 1.01058
50 5.96332 -18.6694 -3.62464 -3.11803 -0.795717 3.12987
51 5.80985 3.83009 -6.96529 -1.00558 -1.55127 1.0106
52 5.97533 -19.2325 -2.74197 -1.00555 -1.55127 1.01057
53 5.41465 -8.74049 -4.56645 0 0 0
54 0.499888 -2.24973 -0.095335 -0.0164881 0.0104567 0.00493922
55 -0.439463 -5.01739 0.910445 0 0 0
56 0 -2.26997 1.22871 0.02068 0 0
57 0 -5.92124 1.78377 0 0 0
58 0 -2.12203 -0.0619302 0.352503 0 0
59 -0.575001 -1.69351 1.13699 0 0 0
60 0 -4.97525 -0.469842 0 0 0
61 0.694227 -1.89081 0.409987 0 0 0
time 12
0 5.11825 10.9692 -3.0277 -0.827033 0.693143 -1.04017
1 6.02794 0 0 -0.0196614 -0.0837931 -0.0607897
2 11.7344 0 0 -0.00140278 0 -1.79472
3 8.81138 -0.000450134 -0.00011158 -0.484139 0 0.00015781
4 5.77839 0.000286102 0 -0.324373 0 0.000103573
5 2.23163 -0.000329971 -0.00036335 -0.159766 0 0
6 11.4725 0 0 -0.635881 0.234736 1.15421
7 0.61522 -0.993091 -0.8107 2.36101 0.0512842 -0.442576
8 2.24752 0 0 0.0870419 0.0754453 0.0898681
9 1.11936 0 0 0.0868585 0.0464882 -0.110728
10 3.71348 -0.102641 0.102191 1.49829 0.896637 0.234767
11 1.72615 0 0 0.0263275 -0.0109869 -1.28727
12 1.21114 0 0 -0.000153998 0.000329084 -0.915737
13 3.59919 -1.06012 0.0708876 1.53395 0.161844 -0.0676456
14 1.66069 0 0 -0.00634793 0.131671 -0.637455
15 1.167 0 0 -0.00198885 -0.00149679 -1.02582
16 2.18852 0.50104 0.0576591 1.41514 0.0471916 0.071991
17 1.29609 0 0 -0.0777687 0.18264 -1.0512
18 1.62202 0.000715256 -0.000470638 0.029409 -0.0272532 -1.25676
19 1.22241 0 0 0.0223414 -0.00802419 -0.76603
20 1.76707 1.27612 0.0366402 1.328 0.225255 0.0733778
21 1.55588 0 0 -0.14294 0.159067 -1.06546
22 1.24274 0 0 -0.000479134 0.000360553 -1.00946
23 0.784524 0 0 0.0101639 0.0127498 -0.61013
24 -2.4735 1.96366 -5.48939 -0.143291 0.3441 -1.97314
25 6.02794 0 0 1.11345 0.0858102 0.678059
26 11.7344 0 0 0.00140269 0 1.16813
27 8.81167 0 0 2.01416 0 0
28 5.77884 0 0 1.34949 0 0
29 2.23249 0 0 0.664672 0 0
30 11.4725 0 0 1.93781 0.149 -0.587754
31 0.615814 0.994373 -0.809165 2.90228 0.397795 0.455052
32 2.24752 0 0 -0.0977373 -0.0520998 0.0393429
33 1.11936 0 0 -0.110556 0.115636 -0.00773764
34 3.71348 0.102639 0.102191 -1.40911 0.58357 0.0965933
35 1.72615 0 0 -0.0184067 -0.000676744 1.51735
36 1.21112 0 0 0.00667256 0.00800511 -0.321301
37 3.5992 1.06012 0.0708885 -1.52636 0.488083 0.139804
38 1.66069 0 0 0.0439293 0.0643107 0.822802
39 1.16699 0 0 0.0275332 0.0334932 0.32572
40 2.18853 -0.501041 0.0576591 -1.56816 0.138147 -0.161716
41 1.29609 0 0 0.0968891 -0.147774 0.669796
42 1.62202 -0.000713348 -0.000469208 -0.0204638 -0.0103197 1.57103
43 1.22241 0 0 0 0.00653314 -0.305208
44 1.76707 -1.27612 0.0366402 -1.36293 0.4626 -0.0448407
45 1.55587 0 0 -0.00955761 -0.0420002 0.976332
46 1.24273 0 0 0.000478916 0.000360581 1.0415
47 0.784531 0 0 -0.00138831 0.00235242 -0.396294
48 0 0 0 0 0 0
49 5.80932 3.60423 -8.04735 -0.995355 -1.55063 1.00002
50 5.96809 -18.8757 -3.63006 -3.11741 -0.796225 3.12907
51 5.82095 3.62233 -6.98031 -0.995374 -1.55063 1.00004
52 5.98036 -19.4385 -2.74714 -0.995345 -1.55063 1.00001
53 5.41465 -8.74049 -4.56645 0 0 0
54 0.506873 -2.45653 -0.10403 -0.0169165 0.0109719 0.00457769
55 -0.439463 -5.01739 0.910445 0 0 0
56 0 -2.26997 1.22871 0.02068 0 0
57 0 -5.92123 1.78377 0 0 0
58 0 -2.12202 -0.0619297 0.352503 0 0
59 -0.575001 -1.69351 1.13699 0 0 0
60 0 -4.97524 -0.469842 0 0 0
61 0.694227 -1.89081 0.409987 0 0 0
time 13
0 5.11825 10.9692 -3.0277 -0.827033 0.693143 -1.04017
1 6.02794 0 0 -0.0180182 -0.0838437 -0.0689417
2 11.7344 0 0 -0.00140288 0 -1.77451
3 8.81138 -0.000448227 -0.000112057 -0.490255 0 0.000157493
4 5.77839 0.000286102 0 -0.328471 0 0.000103531
5 2.23163 -0.000329018 -0.00036335 -0.161784 0 0
6 11.4725 0 0 -0.637172 0.234177 1.14149
7 0.615218 -0.993091 -0.8107 2.36101 0.0512842 -0.442576
8 2.24752 0 0 0.0870418 0.0754454 0.0898681
9 1.11936 0 0 0.0868585 0.0464881 -0.110728
10 3.71348 -0.10264 0.102191 1.49829 0.896637 0.234767
11 1.72615 0 0 0.0263276 -0.0109868 -1.28727
12 1.21114 0 0 -0.000153972 0.000328964 -0.915737
13 3.59919 -1.06012 0.0708885 1.53395 0.161845 -0.0676455
14 1.66069 0 0 -0.00634789 0.131671 -0.637455
15 1.167 0 0 -0.00198891 -0.00149682 -1.02582
16 2.18852 0.50104 0.0576591 1.41514 0.0471915 0.0719911
17 1.29609 0 0 -0.0777687 0.18264 -1.0512
18 1.62202 0.000713348 -0.000470638 0.029409 -0.0272531 -1.25676
19 1.22241 0 0 0.0223414 -0.00802428 -0.76603
20 1.76707 1.27612 0.0366411 1.328 0.225255 0.0733779
21 1.55588 0 0 -0.142939 0.159067 -1.06546
22 1.24273 0 0 -0.00047916 0.000360539 -1.00946
23 0.784523 0 0 0.010164 0.0127498 -0.61013
24 -2.4735 1.96366 -5.48939 -0.143291 0.3441 -1.97314
25 6.02794 0 0 1.1191 0.0760073 0.681317
26 11.7344 0 0 0.00140273 0 1.14288
27 8.81167 0 0 2.00488 0 0
28 5.77884 0 0 1.34327 0 0
29 2.23249 0 0 0.66161 0 0
30 11.4725 0 0 1.93333 0.152965 -0.573456
31 0.615812 0.994371 -0.809165 2.90228 0.397795 0.455052
32 2.24752 0 0 -0.0977373 -0.0520997 0.0393428
33 1.11935 0 0 -0.110556 0.115636 -0.00773762
34 3.71349 0.102638 0.102191 -1.40911 0.58357 0.0965932
35 1.72615 0 0 -0.0184068 -0.000676576 1.51735
36 1.21112 0 0 0.00667253 0.00800493 -0.321301
37 3.5992 1.06012 0.070888 -1.52636 0.488082 0.139804
38 1.66069 0 0 0.0439292 0.0643108 0.822802
39 1.16699 0 0 0.0275333 0.0334932 0.32572
40 2.18853 -0.501041 0.0576591 -1.56816 0.138147 -0.161716
41 1.29609 0 0 0.0968892 -0.147774 0.669796
42 1.62202 -0.000713348 -0.000469208 -0.020464 -0.0103199 1.57103
43 1.22241 0 0 0 0.00653328 -0.305208
44 1.76707 -1.27612 0.0366406 -1.36293 0.4626 -0.0448406
45 1.55587 0 0 -0.00955771 -0.0420002 0.976332
46 1.24273 0 0 0.000478942 0.000360626 1.0415
47 0.784533 0 0 -0.00138836 0.00235238 -0.396294
48 0 0 0 0 0 0
49 5.81528 3.41931 -8.05466 -0.981589 -1.55008 0.986042
50 5.9715 -19.0593 -3.63039 -3.11695 -0.796762 3.12852
51 5.82748 3.43775 -6.98763 -0.981605 -1.55008 0.986059
52 5.98412 -19.6218 -2.74731 -0.981572 -1.55007 0.986025
53 5.41465 -8.74049 -4.56645 0 0 0
54 0.511405 -2.64041 -0.106752 -0.0172282 0.0115139 0.0043546
55 -0.439463 -5.01739 0.910444 0 0 0
56 0 -2.26997 1.22871 0.02068 0 0
57 0 -5.92124 1.78377 0 0 0
58 0 -2.12202 -0.0619307 0.352503 0 0
59 -0.575 -1.69351 1.13699 0 0 0
60 0 -4.97525 -0.469842 0 0 0
61 0.694227 -1.89081 0.409987 0 0 0
time 14
0 5.11825 10.9692 -3.0277 -0.827033 0.693143 -1.04017
1 6.02794 0 0 -0.0166392 -0.0838995 -0.0769459
2 11.7344 0 0 -0.00140291 0 -1.75628
3 8.81138 -0.000450134 -0.000111341 -0.495539 0 0.000158155
4 5.77839 0.000286102 0 -0.332011 0 0.000103847
5 2.23164 -0.000329971 -0.000363827 -0.163528 0 0
6 11.4725 0 0 -0.638552 0.233707 1.13071
7 0.615219 -0.993091 -0.8107 2.36101 0.0512842 -0.442576
8 2.24752 0 0 0.0870419 0.0754453 0.0898681
9 1.11936 0 0 0.0868585 0.0464882 -0.110728
10 3.71348 -0.102641 0.102191 1.49829 0.896637 0.234767
11 1.72615 0 0 0.0263276 -0.0109867 -1.28727
12 1.21114 0 0 -0.000154038 0.000329098 -0.915737
13 3.59919 -1.06012 0.0708876 1.53395 0.161845 -0.0676456
14 1.66069 0 0 -0.0063479 0.131671 -0.637454
15 1.167 0 0 -0.00198887 -0.00149678 -1.02582
16 2.18853 0.501039 0.0576582 1.41514 0.0471915 0.0719911
17 1.29609 0 0 -0.0777688 0.18264 -1.0512
18 1.62202 0.000713348 -0.000471115 0.029409 -0.0272531 -1.25676
19 1.22241 0 0 0.0223414 -0.0080242 -0.76603
20 1.76707 1.27612 0.0366411 1.328 0.225255 0.0733778
21 1.55588 0 0 -0.142939 0.159067 -1.06546
22 1.24274 0 0 -0.000479239 0.000360495 -1.00946
23 0.784523 0 0 0.0101639 0.0127499 -0.61013
24 -2.4735 1.96366 -5.48939 -0.143291 0.3441 -1.97314
25 6.02794 0 0 1.12433 0.0666849 0.684325
26 11.7344 0 0 0.00140275 0 1.12014
27 8.81167 0 0 1.9964 0 0
28 5.77884 0 0 1.33758 0 0
29 2.23249 0 0 0.658811 0 0
30 11.4725 0 0 1.92891 0.156881 -0.561231
31 0.615812 0.994371 -0.809165 2.90228 0.397795 0.455052
32 2.24752 0 0 -0.0977373 -0.0520997 0.0393429
33 1.11936 0 0 -0.110556 0.115636 -0.00773761
34 3.71348 0.102639 0.102191 -1.40911 0.58357 0.0965933
35 1.72615 0 0 -0.0184066 -0.00067662 1.51735
36 1.21112 0 0 0.00667249 0.00800499 -0.321301
37 3.5992 1.06012 0.0708885 -1.52636 0.488083 0.139803
38 1.6607 0 0 0.0439292 0.0643106 0.822802
39 1.16699 0 0 0.0275334 0.0334933 0.32572
40 2.18853 -0.50104 0.0576591 -1.56816 0.138147 -0.161716
41 1.29609 0 0 0.0968892 -0.147774 0.669796
42 1.62202 -0.000713348 -0.000469208 -0.0204637 -0.0103197 1.57103
43 1.22241 0 0 0 0.00653314 -0.305208
44 1.76707 -1.27612 0.0366402 -1.36293 0.4626 -0.0448406
45 1.55587 0 0 -0.00955765 -0.042 0.976332
46 1.24273 0 0 0.000478916 0.000360461 1.0415
47 0.784531 0 0 -0.00138838 0.00235248 -0.396294
48 0 0 0 0 0 0
49 5.8145 3.2547 -8.05252 -0.957381 -1.54939 0.961785
50 5.97307 -19.2227 -3.62208 -3.11653 -0.797564 3.12817
51 5.82756 3.27344 -6.98551 -0.957401 -1.54939 0.961805
52 5.98637 -19.7849 -2.73885 -0.957369 -1.54939 0.961773
53 5.41465 -8.74049 -4.56645 0 0 0
54 0.51255 -2.80407 -0.100557 -0.0175047 0.0123218 0.00429707
55 -0.439463 -5.01739 0.910445 0 0 0
56 0 -2.26997 1.22871 0.02068 0 0
57 0 -5.92124 1.78377 0 0 0
58 0 -2.12202 -0.0619302 0.352503 0 0
59 -0.575001 -1.69351 1.13699 0 0 0
60 0 -4.97524 -0.469842 0 0 0
61 0.694227 -1.89081 0.409988 0 0 0
time 15
0 5.11825 10.9692 -3.0277 -0.827033 0.693143 -1.04017
1 6.02794 0 0 -0.0153656 -0.0839668 -0.0855037
2 11.7344 0 0 -0.00140292 0 -1.73795
3 8.81138 -0.000450134 -0.000111818 -0.500757 0 0.00015814
4 5.77839 0.000286102 0 -0.335507 0 0.000103781
5 2.23163 -0.000329018 -0.00036335 -0.16525 0 0
6 11.4725 0 0 -0.640185 0.233317 1.12042
7 0.61522 -0.993091 -0.8107 2.36101 0.0512842 -0.442577
8 2.24752 0 0 0.087042 0.0754453 0.0898679
9 1.11936 0 0 0.0868585 0.0464881 -0.110728
10 3.71348 -0.102642 0.102191 1.49829 0.896637 0.234767
11 1.72615 0 0 0.0263276 -0.0109868 -1.28727
12 1.21114 0 0 -0.000153972 0.000329031 -0.915737
13 3.59919 -1.06012 0.0708885 1.53395 0.161845 -0.0676456
14 1.66069 0 0 -0.00634793 0.131671 -0.637454
15 1.167 0 0 -0.00198893 -0.00149678 -1.02582
16 2.18853 0.50104 0.0576591 1.41514 0.0471916 0.071991
17 1.29609 0 0 -0.0777687 0.18264 -1.0512
18 1.62202 0.000714302 -0.000471115 0.029409 -0.0272532 -1.25676
19 1.22241 0 0 0.0223414 -0.00802423 -0.76603
20 1.76707 1.27612 0.0366411 1.328 0.225255 0.0733778
21 1.55588 0 0 -0.142939 0.159067 -1.06546
22 1.24274 0 0 -0.000479251 0.000360455 -1.00946
23 0.784524 0 0 0.0101639 0.0127499 -0.61013
24 -2.4735 1.96366 -5.48939 -0.143291 0.3441 -1.97314
25 6.02794 0 0 1.12965 0.0565199 0.687582
26 11.7344 0 0 0.00140268 0 1.09641
27 8.81167 0 0 1.98763 0 0
28 5.77884 0 0 1.33171 0 0
29 2.23249 0 0 0.655918 0 0
30 11.4725 0 0 1.92411 0.161076 -0.549123
31 0.615816 0.994372 -0.809165 2.90228 0.397795 0.455052
32 2.24752 0 0 -0.0977373 -0.0520997 0.0393429
33 1.11936 0 0 -0.110556 0.115636 -0.00773759
34 3.71349 0.102638 0.102191 -1.40911 0.58357 0.0965933
35 1.72615 0 0 -0.0184067 -0.000676576 1.51735
36 1.21112 0 0 0.00667258 0.00800498 -0.321301
37 3.5992 1.06012 0.0708876 -1.52636 0.488083 0.139803
38 1.66069 0 0 0.0439293 0.0643108 0.822802
39 1.16699 0 0 0.0275332 0.0334932 0.32572
40 2.18853 -0.501041 0.0576582 -1.56816 0.138147 -0.161716
41 1.29609 0 0 0.0968892 -0.147774 0.669796
42 1.62202 -0.000711441 -0.000468254 -0.0204638 -0.0103196 1.57103
43 1.22241 0 0 0 0.00653307 -0.305208
44 1.76707 -1.27612 0.0366402 -1.36293 0.4626 -0.0448407
45 1.55587 0 0 -0.00955776 -0.0420002 0.976332
46 1.24273 0 0 0.00047882 0.000360533 1.0415
47 0.784533 0 0 -0.00138844 0.00235245 -0.396294
48 0 0 0 0 0 0
49 5.80889 3.09163 -8.04279 -0.921013 -1.5485 0.925478
50 5.97382 -19.3846 -3.60682 -3.11614 -0.798727 3.12794
51 5.8232 3.11064 -6.9758 -0.921032 -1.5485 0.925497
52 5.98818 -19.9466 -2.72346 -0.921004 -1.5485 0.92547
53 5.41465 -8.74049 -4.56645 0 0 0
54 0.511677 -2.96628 -0.0871925 -0.0177543 0.0134888 0.00434669
55 -0.439463 -5.01739 0.910445 0 0 0
56 0 -2.26997 1.22871 0.02068 0 0
57 0 -5.92124 1.78377 0 0 0
58 0 -2.12203 -0.0619292 0.352503 0 0
59 -0.575001 -1.69351 1.13699 0 0 0
60 0 -4.97525 -0.469841 0 0 0
61 0.694226 -1.89081 0.409988 0 0 0
time 16
0 5.11825 10.9692 -3.0277 -0.827033 0.693143 -1.04017
1 6.02794 0 0 -0.0142155 -0.0840406 -0.0942193
2 11.7344 0 0 -0.00140286 0 -1.71991
3 8.81138 -0.000450134 -0.000111818 -0.505755 0 0.000157845
4 5.77839 0.000286102 0 -0.338856 0 0.000103551
5 2.23163 -0.000329018 -0.00036335 -0.166899 0 0
6 11.4725 0 0 -0.641789 0.233054 1.11074
7 0.61522 -0.993091 -0.8107 2.36101 0.0512842 -0.442576
8 2.24752 0 0 0.0870419 0.0754453 0.0898681
9 1.11936 0 0 0.0868585 0.0464883 -0.110728
10 3.71348 -0.102641 0.102191 1.49829 0.896637 0.234767
11 1.72615 0 0 0.0263276 -0.0109869 -1.28727
12 1.21113 0 0 -0.000154065 0.000329085 -0.915737
13 3.59919 -1.06012 0.0708876 1.53395 0.161845 -0.0676455
14 1.66069 0 0 -0.00634796 0.131671 -0.637454
15 1.167 0 0 -0.00198888 -0.0014968 -1.02582
16 2.18853 0.501039 0.0576591 1.41514 0.0471918 0.071991
17 1.29609 0 0 -0.0777687 0.18264 -1.0512
18 1.62202 0.000713348 -0.000471115 0.029409 -0.0272532 -1.25676
19 1.22241 0 0 0.0223414 -0.00802423 -0.76603
20 1.76707 1.27612 0.0366411 1.328 0.225255 0.0733778
21 1.55588 0 0 -0.142939 0.159067 -1.06546
22 1.24273 0 0 -0.000479213 0.00036051 -1.00946
23 0.784524 0 0 0.0101639 0.0127499 -0.61013
24 -2.4735 1.96366 -5.48939 -0.143291 0.3441 -1.97314
25 6.02794 0 0 1.13479 0.0462766 0.690792
26 11.7344 0 0 0.00140279 0 1.07298
27 8.81167 0 0 1.9792 0 0
28 5.77884 0 0 1.32607 0 0
29 2.23249 0 0 0.653136 0 0
30 11.4725 0 0 1.91937 0.16527 -0.537507
31 0.615812 0.994371 -0.809165 2.90228 0.397795 0.455052
32 2.24751 0 0 -0.0977373 -0.0520997 0.0393429
33 1.11936 0 0 -0.110556 0.115636 -0.00773765
34 3.71349 0.102639 0.102191 -1.40911 0.58357 0.0965934
35 1.72615 0 0 -0.0184066 -0.000676625 1.51735
36 1.21112 0 0 0.00667252 0.00800503 -0.321301
37 3.5992 1.06012 0.0708885 -1.52636 0.488083 0.139804
38 1.66069 0 0 0.0439293 0.0643109 0.822802
39 1.16699 0 0 0.0275332 0.0334932 0.32572
40 2.18853 -0.50104 0.0576591 -1.56816 0.138147 -0.161716
41 1.29609 0 0 0.0968891 -0.147774 0.669796
42 1.62202 -0.000711441 -0.000472069 -0.0204637 -0.0103199 1.57103
43 1.22241 0 0 0 0.00653322 -0.305208
44 1.76707 -1.27612 0.0366406 -1.36293 0.4626 -0.0448405
45 1.55587 0 0 -0.00955755 -0.0420001 0.976332
46 1.24273 0 0 0.000478946 0.000360512 1.0415
47 0.784531 0 0 -0.00138841 0.00235229 -0.396294
48 0 0 0 0 0 0
49 5.80125 2.93367 -8.02753 -0.881219 -1.54763 0.885806
50 5.9742 -19.542 -3.58889 -3.11593 -0.799975 3.1279
51 5.81689 2.95282 -6.96057 -0.881232 -1.54763 0.885816
52 5.98973 -20.1039 -2.70548 -0.881206 -1.54763 0.885795
53 5.41465 -8.74049 -4.56645 0 0 0
54 0.5099 -3.12379 -0.07019 -0.0178771 0.0147397 0.00445491
55 -0.439463 -5.01739 0.910444 0 0 0
56 0 -2.26997 1.22871 0.02068 0 0
57 0 -5.92124 1.78377 0 0 0
58 0 -2.12202 -0.0619307 0.352503 0 0
59 -0.575001 -1.69351 1.13699 0 0 0
60 0 -4.97524 -0.469842 0 0 0
61 0.694226 -1.89081 0.409987 0 0 0
time 17
0 5.11825 10.9692 -3.0277 -0.827033 0.693143 -1.04017
1 6.02794 0 0 -0.0132298 -0.0841108 -0.102493
2 11.7344 0 0 -0.00140293 0 -1.70301
3 8.81138 -0.000449181 -0.000112295 -0.510263 0 0.000157666
4 5.77839 0.000287056 0 -0.341876 0 0.00010356
5 2.23163 -0.000329018 -0.000364304 -0.168387 0 0
6 11.4725 0 0 -0.64307 0.232967 1.10201
7 0.615219 -0.993091 -0.8107 2.36101 0.0512843 -0.442576
8 2.24752 0 0 0.0870419 0.0754453 0.089868
9 1.11936 0 0 0.0868585 0.0464882 -0.110728
10 3.71348 -0.102641 0.102191 1.49829 0.896637 0.234767
11 1.72615 0 0 0.0263276 -0.0109868 -1.28727
12 1.21114 0 0 -0.000154039 0.000329031 -0.915737
13 3.59919 -1.06012 0.0708885 1.53395 0.161845 -0.0676455
14 1.66069 0 0 -0.00634788 0.131671 -0.637454
15 1.167 0 0 -0.00198889 -0.00149681 -1.02582
16 2.18853 0.501039 0.0576591 1.41514 0.0471916 0.0719911
17 1.29609 0 0 -0.0777687 0.18264 -1.0512
18 1.62202 0.000713348 -0.000471115 0.029409 -0.0272532 -1.25676
19 1.22241 0 0 0.0223414 -0.00802421 -0.76603
20 1.76707 1.27612 0.0366411 1.328 0.225255 0.0733779
21 1.55588 0 0 -0.142939 0.159067 -1.06546
22 1.24273 0 0 -0.000479253 0.000360521 -1.00946
23 0.784523 0 0 0.010164 0.0127499 -0.61013
24 -2.4735 1.96366 -5.48939 -0.143291 0.3441 -1.97314
25 6.02794 0 0 1.13953 0.0366162 0.693732
26 11.7344 0 0 0.00140287 0 1.05089
27 8.81167 0 0 1.97168 0 0
28 5.77884 0 0 1.32102 0 0
29 2.23249 0 0 0.650653 0 0
30 11.4725 0 0 1.91516 0.169196 -0.526631
31 0.615812 0.994371 -0.809166 2.90228 0.397795 0.455052
32 2.24752 0 0 -0.0977373 -0.0520997 0.0393428
33 1.11936 0 0 -0.110556 0.115636 -0.00773755
34 3.71348 0.102639 0.102191 -1.40911 0.58357 0.0965933
35 1.72615 0 0 -0.0184067 -0.000676647 1.51735
36 1.21112 0 0 0.00667261 0.00800501 -0.321301
37 3.5992 1.06011 0.070888 -1.52636 0.488083 0.139804
38 1.66069 0 0 0.0439293 0.0643109 0.822802
39 1.16699 0 0 0.0275333 0.0334932 0.32572
40 2.18853 -0.501041 0.0576591 -1.56816 0.138147 -0.161716
41 1.29609 0 0 0.0968892 -0.147774 0.669796
42 1.62202 -0.000713348 -0.000470161 -0.0204637 -0.0103198 1.57103
43 1.22241 0 0 0 0.00653307 -0.305208
44 1.76707 -1.27612 0.0366406 -1.36293 0.4626 -0.0448407
45 1.55587 0 0 -0.00955755 -0.0420003 0.976332
46 1.24273 0 0 0.000478857 0.000360718 1.0415
47 0.784531 0 0 -0.00138831 0.00235242 -0.396294
48 0 0 0 0 0 0
49 5.79437 2.78442 -8.00882 -0.844052 -1.54702 0.848765
50 5.97464 -19.6916 -3.5726 -3.11606 -0.801036 3.12811
51 5.81114 2.80347 -6.94187 -0.844071 -1.54702 0.848784
52 5.99117 -20.2536 -2.68926 -0.844045 -1.54702 0.848758
53 5.41465 -8.74049 -4.56645 0 0 0
54 0.508337 -3.27335 -0.053082 -0.0177733 0.0157991 0.00457324
55 -0.439463 -5.01739 0.910445 0 0 0
56 0 -2.26997 1.22871 0.02068 0 0
57 0 -5.92124 1.78377 0 0 0
58 0 -2.12202 -0.0619297 0.352503 0 0
59 -0.575001 -1.69351 1.13699 0 0 0
60 0 -4.97524 -0.469841 0 0 0
61 0.694226 -1.89081 0.409988 0 0 0
time 18
0 5.11825 10.9692 -3.0277 -0.827033 0.693143 -1.04017
1 6.02794 0 0 -0.0124002 -0.0841837 -0.110241
2 11.7344 0 0 -0.00140285 0 -1.68705
3 8.81138 -0.000449181 -0.00011158 -0.514243 0 0.000157873
4 5.77839 0.000286102 0 -0.344543 0 0.000103548
5 2.23163 -0.000329971 -0.00036335 -0.1697 0 0
6 11.4725 0 0 -0.643746 0.233108 1.09405
7 0.61522 -0.993091 -0.8107 2.36101 0.0512843 -0.442576
8 2.24752 0 0 0.0870419 0.0754453 0.0898681
9 1.11936 0 0 0.0868585 0.0464882 -0.110728
10 3.71348 -0.102641 0.102191 1.49829 0.896638 0.234767
11 1.72615 0 0 0.0263275 -0.0109869 -1.28727
12 1.21114 0 0 -0.000154025 0.000329071 -0.915737
13 3.59919 -1.06012 0.0708885 1.53395 0.161844 -0.0676456
14 1.66069 0 0 -0.00634793 0.131671 -0.637455
15 1.167 0 0 -0.00198889 -0.00149679 -1.02582
16 2.18852 0.50104 0.0576582 1.41514 0.0471916 0.0719911
17 1.29609 0 0 -0.0777688 0.18264 -1.0512
18 1.62202 0.000714302 -0.000471115 0.029409 -0.0272531 -1.25676
19 1.22241 0 0 0.0223414 -0.00802423 -0.76603
20 1.76707 1.27612 0.0366402 1.328 0.225255 0.0733779
21 1.55588 0 0 -0.142939 0.159067 -1.06546
22 1.24273 0 0 -0.000479161 0.000360538 -1.00946
23 0.784524 0 0 0.0101639 0.0127499 -0.61013
24 -2.4735 1.96366 -5.48939 -0.143291 0.3441 -1.97314
25 6.02794 0 0 1.14366 0.0274918 0.696523
26 11.7344 0 0 0.00140274 0 1.02957
27 8.81167 0 0 1.96541 0 0
28 5.77884 0 0 1.31683 0 0
29 2.23249 0 0 0.648587 0 0
30 11.4725 0 0 1.91192 0.172597 -0.515936
31 0.615814 0.994372 -0.809165 2.90228 0.397795 0.455052
32 2.24752 0 0 -0.0977374 -0.0520997 0.0393428
33 1.11935 0 0 -0.110556 0.115636 -0.00773757
34 3.71349 0.102639 0.102191 -1.40911 0.58357 0.0965933
35 1.72615 0 0 -0.0184067 -0.000676596 1.51735
36 1.21112 0 0 0.00667256 0.00800495 -0.321301
37 3.5992 1.06012 0.0708876 -1.52636 0.488083 0.139804
38 1.66069 0 0 0.0439294 0.0643108 0.822802
39 1.16699 0 0 0.0275331 0.0334932 0.32572
40 2.18853 -0.50104 0.0576591 -1.56816 0.138147 -0.161716
41 1.29609 0 0 0.0968893 -0.147774 0.669796
42 1.62202 -0.000711441 -0.000470161 -0.0204637 -0.0103197 1.57103
43 1.22241 0 0 0 0.00653328 -0.305208
44 1.76707 -1.27612 0.0366406 -1.36293 0.4626 -0.0448406
45 1.55588 0 0 -0.00955759 -0.0420002 0.976332
46 1.24273 0 0 0.000479112 0.000360683 1.0415
47 0.784533 0 0 -0.00138847 0.0023523 -0.396294
48 0 0 0 0 0 0
49 5.79104 2.64748 -7.98874 -0.813504 -1.54693 0.818299
50 5.97559 -19.8305 -3.56223 -3.11666 -0.801637 3.12861
51 5.80844 2.66607 -6.92179 -0.813529 -1.54693 0.818324
52 5.99269 -20.3928 -2.67914 -0.813498 -1.54693 0.818295
53 5.41465 -8.74049 -4.56645 0 0 0
54 0.508106 -3.41173 -0.0393991 -0.017343 0.0163916 0.00465313
55 -0.439464 -5.01739 0.910445 0 0 0
56 0 -2.26997 1.22871 0.02068 0 0
57 0 -5.92124 1.78377 0 0 0
58 0 -2.12202 -0.0619302 0.352503 0 0
59 -0.575001 -1.69351 1.13699 0 0 0
60 0 -4.97524 -0.469842 0 0 0
61 0.694226 -1.89081 0.409988 0 0 0
time 19
0 5.11825 10.9692 -3.0277 -0.827033 0.693143 -1.04017
1 6.02794 0 0 -0.0117579 -0.0842538 -0.116965
2 11.7344 0 0 -0.00140286 0 -1.6727
3 8.81138 -0.000450134 -0.000112057 -0.517447 0 0.000158028
4 5.77839 0.000286102 0 -0.346689 0 0.000103727
5 2.23163 -0.000329971 -0.00036335 -0.170757 0 0
6 11.4725 0 0 -0.643525 0.233526 1.08713
7 0.615219 -0.993091 -0.8107 2.36101 0.0512842 -0.442576
8 2.24752 0 0 0.0870418 0.0754453 0.089868
9 1.11936 0 0 0.0868586 0.0464881 -0.110728
10 3.71348 -0.10264 0.102191 1.49829 0.896637 0.234767
11 1.72615 0 0 0.0263276 -0.0109868 -1.28727
12 1.21114 0 0 -0.000153999 0.000329018 -0.915737
13 3.59919 -1.06012 0.0708885 1.53395 0.161844 -0.0676456
14 1.66069 0 0 -0.00634789 0.131671 -0.637455
15 1.167 0 0 -0.0019889 -0.0014968 -1.02582
16 2.18852 0.50104 0.0576601 1.41514 0.0471915 0.0719911
17 1.29609 0 0 -0.0777687 0.18264 -1.0512
18 1.62202 0.000713348 -0.000470638 0.0294089 -0.0272532 -1.25676
19 1.22241 0 0 0.0223414 -0.0080242 -0.76603
20 1.76707 1.27612 0.0366411 1.328 0.225255 0.0733779
21 1.55588 0 0 -0.142939 0.159067 -1.06546
22 1.24274 0 0 -0.000479134 0.000360553 -1.00946
23 0.784523 0 0 0.0101639 0.0127498 -0.61013
24 -2.4735 1.96366 -5.48939 -0.143291 0.3441 -1.97314
25 6.02794 0 0 1.14697 0.0196783 0.698914
26 11.7344 0 0 0.00140267 0 1.01032
27 8.81167 0 0 1.96099 0 0
28 5.77884 0 0 1.31387 0 0
29 2.23249 0 0 0.647128 0 0
30 11.4725 0 0 1.91008 0.175224 -0.505792
31 0.615814 0.994373 -0.809165 2.90228 0.397795 0.455052
32 2.24752 0 0 -0.0977373 -0.0520997 0.0393428
33 1.11936 0 0 -0.110556 0.115636 -0.00773756
34 3.71349 0.102639 0.102191 -1.40911 0.58357 0.0965935
35 1.72615 0 0 -0.0184067 -0.000676689 1.51735
36 1.21112 0 0 0.00667252 0.00800501 -0.321301
37 3.5992 1.06012 0.070888 -1.52636 0.488083 0.139804
38 1.66069 0 0 0.0439293 0.064311 0.822802
39 1.16699 0 0 0.0275332 0.0334931 0.32572
40 2.18853 -0.50104 0.0576591 -1.56816 0.138147 -0.161716
41 1.29609 0 0 0.0968893 -0.147774 0.669796
42 1.62202 -0.000713348 -0.000469208 -0.0204637 -0.0103196 1.57103
43 1.22241 0 0 0 0.00653307 -0.305208
44 1.76707 -1.27612 0.0366411 -1.36293 0.4626 -0.0448407
45 1.55587 0 0 -0.00955776 -0.0420001 0.976332
46 1.24273 0 0 0.000478987 0.000360583 1.0415
47 0.784533 0 0 -0.00138843 0.0023524 -0.396294
48 0 0 0 0 0 0
49 5.79406 2.52642 -7.96934 -0.792782 -1.54765 0.797562
50 5.9775 -19.9553 -3.56208 -3.11789 -0.801502 3.12948
51 5.81131 2.5441 -6.90238 -0.7928 -1.54765 0.79758
52 5.99445 -20.5184 -2.67947 -0.792774 -1.54765 0.797555
53 5.41465 -8.74049 -4.56645 0 0 0
54 0.510324 -3.53569 -0.0326738 -0.0164863 0.016242 0.00464607
55 -0.439463 -5.01739 0.910444 0 0 0
56 0 -2.26997 1.22871 0.02068 0 0
57 0 -5.92124 1.78377 0 0 0
58 0 -2.12202 -0.0619302 0.352503 0 0
59 -0.575 -1.69351 1.13699 0 0 0
60 0 -4.97524 -0.469842 0 0 0
61 0.694227 -1.89081 0.409987 0 0 0
end
