//Sequence File generated by the Wall Worm SMD Exporter PRO 1.99
//www.wallworm.com
version 1
nodes
0 "b_l_clav" -1
1 "b_l_upperarm" 0
2 "b_l_forearm" 1
3 "b_l_twist3" 2
4 "b_l_twist2" 2
5 "b_l_twist1" 2
6 "b_l_hand" 2
7 "b_l_thumb001" 6
8 "b_l_thumb002" 7
9 "b_l_thumb003" 8
10 "b_l_middle001" 6
11 "b_l_middle002" 10
12 "b_l_middle003" 11
13 "b_l_index001" 6
14 "b_l_index002" 13
15 "b_l_index003" 14
16 "b_l_hand_ringsqueezer" 6
17 "b_l_ring001" 16
18 "b_l_ring002" 17
19 "b_l_ring003" 18
20 "b_l_hand_pinkysqueezer" 6
21 "b_l_pinky001" 20
22 "b_l_pinky002" 21
23 "b_l_pinky003" 22
24 "b_r_clav" -1
25 "b_r_upperarm" 24
26 "b_r_forearm" 25
27 "b_r_twist3" 26
28 "b_r_twist2" 26
29 "b_r_twist1" 26
30 "b_r_hand" 26
31 "b_r_thumb001" 30
32 "b_r_thumb002" 31
33 "b_r_thumb003" 32
34 "b_r_middle001" 30
35 "b_r_middle002" 34
36 "b_r_middle003" 35
37 "b_r_index001" 30
38 "b_r_index002" 37
39 "b_r_index003" 38
40 "b_r_hand_ringsqueezer" 30
41 "b_r_ring001" 40
42 "b_r_ring002" 41
43 "b_r_ring003" 42
44 "b_r_hand_pinkysqueezer" 30
45 "b_r_pinky001" 44
46 "b_r_pinky002" 45
47 "b_r_pinky003" 46
48 "b_zero" -1
49 "d_boolet004" -1
50 "d_boolet1" -1
51 "d_boolet3" -1
52 "d_boolet_case" -1
53 "d_walk" -1
54 "d_gun" 53
55 "d_cover" 54
56 "d_carry" 54
57 "d_bolt" 54
58 "d_trig" 54
59 "d_safe" 54
60 "d_lever" 54
61 "d_ham" 54
end
skeleton
time 0
0 5.11825 10.9692 -3.0277 -0.827033 0.693143 -1.04017
1 6.02794 0 0 -0.0147266 -0.0847463 -0.117518
2 11.7344 0 0 -0.00140284 0 -1.66806
3 8.81138 -0.000449181 -0.000112295 -0.510646 0 0.000157689
4 5.77839 0.000286102 0 -0.342133 0 0.000103578
5 2.23163 -0.000329018 -0.00036335 -0.168513 0 0
6 11.4725 0 0 -0.621908 0.24608 1.09806
7 0.615219 -0.993091 -0.8107 2.36101 0.0512843 -0.442576
8 2.24752 0 0 0.0870418 0.0754453 0.0898681
9 1.11936 0 0 0.0868586 0.0464882 -0.110728
10 3.71348 -0.102641 0.102192 1.49829 0.896638 0.234767
11 1.72615 0 0 0.0263275 -0.0109868 -1.28727
12 1.21114 0 0 -0.000153999 0.000329018 -0.915737
13 3.59919 -1.06012 0.0708885 1.53395 0.161845 -0.0676455
14 1.66069 0 0 0.0207494 0.133061 -0.435014
15 1.167 0 0 -0.00198889 -0.00149679 -0.825194
16 2.18852 0.50104 0.0576591 1.41514 0.0471916 0.0719911
17 1.29609 0 0 -0.0777687 0.18264 -1.0512
18 1.62202 0.000715256 -0.000471115 0.029409 -0.0272532 -1.25676
19 1.22241 0 0 0.0223414 -0.00802419 -0.76603
20 1.76707 1.27612 0.0366411 1.328 0.225255 0.0733778
21 1.55588 0 0 -0.142939 0.159067 -1.06546
22 1.24274 0 0 -0.000479222 0.000360403 -1.00946
23 0.784525 0 0 0.010164 0.0127498 -0.61013
24 -2.4735 1.96366 -5.48939 -0.143291 0.3441 -1.97314
25 6.02794 0 0 1.14323 0.0319036 0.694643
26 11.7344 0 0 0.00140269 0 1.01227
27 8.81167 0 0 1.98764 0 0
28 5.77884 0 0 1.33172 0 0
29 2.23249 0 0 0.65592 0 0
30 11.4725 0 0 1.93447 0.167488 -0.499317
31 0.615814 0.994373 -0.809165 2.90228 0.397795 0.455052
32 2.24752 0 0 -0.0977373 -0.0520997 0.039343
33 1.11936 0 0 -0.110556 0.115636 -0.00773769
34 3.71348 0.10264 0.102191 -1.40911 0.58357 0.0965934
35 1.72615 0 0 -0.0184067 -0.000676674 1.51735
36 1.21112 0 0 0.00667263 0.00800524 -0.321301
37 3.5992 1.06012 0.070888 -1.52636 0.488083 0.139804
38 1.66069 0 0 0.0439292 0.064311 0.822802
39 1.16699 0 0 0.0275332 0.0334931 0.32572
40 2.18853 -0.50104 0.0576587 -1.56816 0.138147 -0.161716
41 1.29609 0 0 0.0968892 -0.147774 0.669796
42 1.62202 -0.000713348 -0.000469208 -0.0204638 -0.0103198 1.57103
43 1.22241 0 0 0 0.00653323 -0.305208
44 1.76707 -1.27612 0.0366402 -1.36293 0.4626 -0.0448406
45 1.55587 0 0 -0.00955768 -0.0420001 0.976332
46 1.24273 0 0 0.000478876 0.00036063 1.0415
47 0.784533 0 0 -0.00138828 0.00235258 -0.396294
48 0 0 0 0 0 0
49 5.94055 2.54216 -7.80957 0 -1.5708 0
50 5.94795 -20.0098 -3.77284 -3.14159 -0.785398 3.14159
51 5.94055 2.54216 -6.74232 0 -1.5708 0
52 5.94795 -20.5874 -2.89952 0 -1.5708 0
53 5.41465 -8.74049 -4.56645 0 0 0
54 0.533295 -3.57396 -0.116835 0 0 0
55 -0.439463 -5.01739 0.910445 0 0 0
56 0 -2.26997 1.22871 0.02068 0 0
57 0 -5.92124 1.78377 0 0 0
58 0 -2.12202 -0.0619302 0 0 0
59 -0.575001 -1.69351 1.13699 0 0 0
60 0 -4.97524 -0.469842 0 0 0
61 0.694227 -1.89081 0.409987 -0.785398 0 0
time 1
0 5.11825 10.9692 -3.0277 -0.827033 0.693143 -1.04017
1 6.02794 0 0 -0.0256257 -0.0840358 -0.0497365
2 11.7344 0 0 -0.00140285 0 -1.80314
3 8.81138 -0.000449181 -0.000112295 -0.503956 0 0.000157717
4 5.77839 0.000287056 0 -0.33765 0 0.000103473
5 2.23163 -0.000328064 -0.000364304 -0.166305 0 0
6 11.4725 0 0 -0.645385 0.255365 1.15792
7 0.61522 -0.993091 -0.810699 2.36101 0.0512841 -0.442576
8 2.24752 0 0 0.087042 0.0754453 0.089868
9 1.11936 0 0 0.0868585 0.0464882 -0.110728
10 3.71348 -0.102641 0.102192 1.49829 0.896637 0.234767
11 1.72615 0 0 0.0263275 -0.0109868 -1.28727
12 1.21114 0 0 -0.000154012 0.000329044 -0.915737
13 3.59919 -1.06012 0.0708885 1.53395 0.161844 -0.0676454
14 1.66069 0 0 -0.00634794 0.131671 -0.637455
15 1.167 0 0 -0.00198888 -0.0014968 -1.02582
16 2.18853 0.50104 0.0576591 1.41514 0.0471915 0.0719912
17 1.29609 0 0 -0.0777687 0.18264 -1.0512
18 1.62202 0.000714302 -0.000470638 0.029409 -0.0272531 -1.25676
19 1.22241 0 0 0.0223414 -0.00802423 -0.76603
20 1.76707 1.27612 0.0366411 1.328 0.225255 0.073378
21 1.55588 0 0 -0.14294 0.159067 -1.06546
22 1.24273 0 0 -0.000479146 0.000360512 -1.00946
23 0.784524 0 0 0.0101639 0.0127499 -0.61013
24 -2.4735 1.96366 -5.48939 -0.143291 0.3441 -1.97314
25 6.02794 0 0 1.10608 0.10167 0.672003
26 11.7344 0 0 0.00140269 0 1.1852
27 8.81167 0 0 2.01731 0 0
28 5.77884 0 0 1.3516 0 0
29 2.23249 0 0 0.665713 0 0
30 11.4725 0 0 1.93511 0.142815 -0.610256
31 0.615812 0.994372 -0.809165 2.90228 0.397795 0.455052
32 2.24751 0 0 -0.0977374 -0.0520997 0.0393428
33 1.11936 0 0 -0.110556 0.115636 -0.00773759
34 3.71349 0.102639 0.102191 -1.40911 0.58357 0.0965933
35 1.72615 0 0 -0.0184067 -0.000676681 1.51735
36 1.21112 0 0 0.0066726 0.00800491 -0.321301
37 3.5992 1.06011 0.0708885 -1.52636 0.488082 0.139804
38 1.66069 0 0 0.0439293 0.0643107 0.822802
39 1.16699 0 0 0.0275332 0.0334932 0.32572
40 2.18853 -0.501041 0.0576591 -1.56816 0.138147 -0.161716
41 1.29609 0 0 0.0968892 -0.147774 0.669796
42 1.62202 -0.000713348 -0.000471115 -0.0204637 -0.0103196 1.57103
43 1.22241 0 0 0 0.00653302 -0.305208
44 1.76707 -1.27612 0.0366411 -1.36293 0.4626 -0.0448405
45 1.55588 0 0 -0.00955763 -0.0420001 0.976332
46 1.24273 0 0 0.000478976 0.000360566 1.0415
47 0.784531 0 0 -0.00138836 0.00235236 -0.396294
48 0 0 0 0 0 0
49 5.96263 3.73096 -7.91654 -0.0853386 -1.54379 0.0818153
50 5.99991 -18.8119 -3.82958 -3.13825 -0.812302 3.13567
51 5.99135 3.73331 -6.84968 -0.0853386 -1.54379 0.0818153
52 6.02139 -19.3876 -2.95525 -0.0853356 -1.54379 0.0818126
53 5.41465 -8.74049 -4.56645 0 0 0
54 0.587626 -2.37816 -0.190953 -0.00230235 0.0269072 -0.00355397
55 -0.439463 -5.01739 0.910445 0 0 0
56 0 -2.26997 1.22871 0.02068 0 0
57 0 -5.92124 1.78377 0 0 0
58 0 -2.12202 -0.0619297 0.352503 0 0
59 -0.575001 -1.69351 1.13699 0 0 0
60 0 -4.97525 -0.469842 0 0 0
61 0.694227 -1.89081 0.409988 0 0 0
time 2
0 5.11825 10.9692 -3.0277 -0.827033 0.693143 -1.04017
1 6.02794 0 0 -0.0350719 -0.0818915 0.0266983
2 11.7344 0 0 -0.00140284 0 -1.95573
3 8.81138 -0.000450134 -0.000112057 -0.491435 0 0.000157749
4 5.77839 0.000286102 0 -0.329261 0 0.000103551
5 2.23164 -0.000329018 -0.00036335 -0.162173 0 0
6 11.4725 0 0 -0.687203 0.253672 1.21953
7 0.615219 -0.993091 -0.810699 2.36101 0.0512841 -0.442576
8 2.24752 0 0 0.0870419 0.0754452 0.0898681
9 1.11936 0 0 0.0868585 0.0464882 -0.110728
10 3.71348 -0.10264 0.102191 1.49829 0.896637 0.234767
11 1.72615 0 0 0.0263276 -0.0109868 -1.28727
12 1.21113 0 0 -0.000154012 0.000329044 -0.915737
13 3.59919 -1.06012 0.0708885 1.53395 0.161844 -0.0676456
14 1.66069 0 0 -0.00634793 0.131671 -0.637454
15 1.167 0 0 -0.00198888 -0.00149678 -1.02582
16 2.18852 0.501039 0.0576591 1.41514 0.0471914 0.071991
17 1.29609 0 0 -0.0777687 0.18264 -1.0512
18 1.62202 0.000714302 -0.000470638 0.029409 -0.0272532 -1.25676
19 1.22241 0 0 0.0223414 -0.00802425 -0.76603
20 1.76707 1.27612 0.0366411 1.328 0.225255 0.0733778
21 1.55588 0 0 -0.14294 0.159067 -1.06546
22 1.24274 0 0 -0.000479294 0.000360533 -1.00946
23 0.784523 0 0 0.0101639 0.0127499 -0.61013
24 -2.4735 1.96366 -5.48939 -0.143291 0.3441 -1.97314
25 6.02794 0 0 1.05612 0.157772 0.652893
26 11.7344 0 0 0.00140277 0 1.3533
27 8.81167 0 0 2.04786 0 0
28 5.77884 0 0 1.37207 0 0
29 2.23249 0 0 0.675795 0 0
30 11.4725 0 0 1.92787 0.118369 -0.728679
31 0.615814 0.994371 -0.809165 2.90228 0.397795 0.455052
32 2.24752 0 0 -0.0977373 -0.0520997 0.0393429
33 1.11936 0 0 -0.110556 0.115636 -0.00773775
34 3.71349 0.102639 0.10219 -1.40911 0.58357 0.0965933
35 1.72615 0 0 -0.0184067 -0.000676618 1.51735
36 1.21112 0 0 0.00667256 0.00800495 -0.321301
37 3.5992 1.06012 0.070888 -1.52636 0.488083 0.139804
38 1.66069 0 0 0.0439294 0.0643109 0.822802
39 1.16699 0 0 0.0275332 0.0334932 0.32572
40 2.18853 -0.50104 0.0576587 -1.56816 0.138148 -0.161716
41 1.29609 0 0 0.0968893 -0.147774 0.669796
42 1.62202 -0.000711441 -0.000471115 -0.0204638 -0.0103197 1.57103
43 1.22241 0 0 0 0.00653322 -0.305208
44 1.76707 -1.27612 0.0366406 -1.36293 0.4626 -0.0448406
45 1.55587 0 0 -0.00955764 -0.0420003 0.976332
46 1.24273 0 0 0.000478985 0.00036058 1.0415
47 0.784533 0 0 -0.00138831 0.00235245 -0.396293
48 0 0 0 0 0 0
49 5.83114 5.11024 -8.14771 -0.20256 -1.50125 0.202979
50 6.13345 -17.383 -3.80597 -3.12033 -0.853415 3.12646
51 5.90378 5.12519 -7.08304 -0.20256 -1.50125 0.202979
52 6.19341 -17.9483 -2.92668 -0.202558 -1.50125 0.202976
53 5.41465 -8.74049 -4.56645 0 0 0
54 0.649946 -0.960635 -0.255342 -0.014013 0.068123 0
55 -0.439463 -5.01739 0.910445 0 0 0
56 0 -2.26997 1.22871 0.02068 0 0
57 0 -5.92124 1.78377 0 0 0
58 0 -2.12202 -0.0619307 0.352503 0 0
59 -0.575001 -1.69351 1.13699 0 0 0
60 0 -4.97524 -0.469842 0 0 0
61 0.694226 -1.89081 0.409988 0 0 0
time 3
0 5.11825 10.9692 -3.0277 -0.827033 0.693143 -1.04017
1 6.02794 0 0 -0.0107727 -0.0818753 -0.00133378
2 11.7344 0 0 -0.00140284 0 -1.9017
3 8.81138 -0.000450134 -0.00011158 -0.49187 0 0.000157744
4 5.77839 0.000286102 0 -0.329553 0 0.000103566
5 2.23163 -0.000329971 -0.000364304 -0.162317 0 0
6 11.4725 0 0 -0.742991 0.18645 1.17345
7 0.61522 -0.99309 -0.8107 2.36101 0.0512842 -0.442576
8 2.24752 0 0 0.0870418 0.0754453 0.089868
9 1.11936 0 0 0.0868586 0.0464882 -0.110728
10 3.71348 -0.102641 0.102191 1.49829 0.896637 0.234767
11 1.72615 0 0 0.0263276 -0.0109869 -1.28727
12 1.21114 0 0 -0.000154026 0.000329004 -0.915737
13 3.59919 -1.06012 0.0708876 1.53395 0.161845 -0.0676456
14 1.66069 0 0 -0.00634792 0.131671 -0.637454
15 1.167 0 0 -0.00198888 -0.00149679 -1.02582
16 2.18853 0.50104 0.0576591 1.41514 0.0471916 0.071991
17 1.29609 0 0 -0.0777687 0.18264 -1.0512
18 1.62202 0.000713348 -0.000471115 0.029409 -0.0272532 -1.25676
19 1.22241 0 0 0.0223414 -0.00802422 -0.76603
20 1.76707 1.27612 0.0366402 1.328 0.225255 0.0733779
21 1.55588 0 0 -0.142939 0.159067 -1.06546
22 1.24274 0 0 -0.000479239 0.000360495 -1.00946
23 0.784524 0 0 0.0101639 0.0127498 -0.61013
24 -2.4735 1.96366 -5.48939 -0.143291 0.3441 -1.97314
25 6.02794 0 0 1.07484 0.0914824 0.686291
26 11.7344 0 0 0.00140281 0 1.24564
27 8.81167 0 0 1.95969 0 0
28 5.77884 0 0 1.31299 0 0
29 2.23249 0 0 0.646699 0 0
30 11.4725 0 0 1.87337 0.16553 -0.670749
31 0.615814 0.994372 -0.809165 2.90228 0.397795 0.455052
32 2.24752 0 0 -0.0977373 -0.0520996 0.039343
33 1.11936 0 0 -0.110556 0.115636 -0.00773771
34 3.71349 0.10264 0.102191 -1.40911 0.58357 0.0965933
35 1.72615 0 0 -0.0184067 -0.000676802 1.51735
36 1.21112 0 0 0.00667259 0.00800516 -0.321301
37 3.5992 1.06012 0.0708885 -1.52636 0.488083 0.139804
38 1.66069 0 0 0.0439293 0.0643108 0.822802
39 1.16699 0 0 0.0275332 0.0334931 0.32572
40 2.18853 -0.50104 0.0576591 -1.56816 0.138147 -0.161716
41 1.29609 0 0 0.0968892 -0.147774 0.669796
42 1.62202 -0.000713348 -0.000470161 -0.0204637 -0.0103197 1.57103
43 1.22241 0 0 0 0.00653315 -0.305208
44 1.76707 -1.27612 0.0366411 -1.36293 0.4626 -0.0448407
45 1.55588 0 0 -0.00955761 -0.0420002 0.976332
46 1.24273 0 0 0.000479105 0.00036067 1.0415
47 0.784533 0 0 -0.00138836 0.00235239 -0.396294
48 0 0 0 0 0 0
49 5.0792 4.38149 -8.57411 -0.489075 -1.45751 0.529613
50 6.45293 -17.8868 -3.36632 -3.05776 -0.88377 3.11992
51 5.18331 4.44244 -7.5137 -0.489075 -1.45751 0.529613
52 6.56304 -18.4132 -2.46792 -0.489071 -1.45751 0.52961
53 5.41465 -8.74049 -4.56645 0 0 0
54 0.617591 -1.52101 -0.113158 -0.0533991 0.0999547 0.037867
55 -0.439464 -5.01739 0.910445 0 0 0
56 0 -2.26997 1.22871 0.02068 0 0
57 0 -5.92124 1.78377 0 0 0
58 0 -2.12202 -0.0619297 0.352503 0 0
59 -0.575001 -1.69351 1.13699 0 0 0
60 0 -4.97524 -0.469842 0 0 0
61 0.694226 -1.89081 0.409987 0 0 0
time 4
0 5.11825 10.9692 -3.0277 -0.827033 0.693143 -1.04017
1 6.02794 0 0 0.00135434 -0.081386 -0.0158363
2 11.7344 0 0 -0.00140284 0 -1.87402
3 8.81138 -0.000450134 -0.000112057 -0.493356 0 0.000157733
4 5.77839 0.000286102 0 -0.330548 0 0.00010354
5 2.23163 -0.000328064 -0.000364304 -0.162807 0 0
6 11.4725 0 0 -0.768225 0.150607 1.15016
7 0.615219 -0.993091 -0.8107 2.36101 0.0512843 -0.442576
8 2.24752 0 0 0.0870419 0.0754453 0.089868
9 1.11936 0 0 0.0868585 0.0464882 -0.110728
10 3.71348 -0.102641 0.102191 1.49829 0.896637 0.234767
11 1.72615 0 0 0.0263276 -0.0109868 -1.28727
12 1.21114 0 0 -0.000154025 0.000329038 -0.915737
13 3.59919 -1.06012 0.0708876 1.53395 0.161845 -0.0676455
14 1.66069 0 0 -0.00634791 0.131671 -0.637455
15 1.167 0 0 -0.00198889 -0.00149679 -1.02582
16 2.18853 0.501039 0.0576582 1.41514 0.0471916 0.071991
17 1.29609 0 0 -0.0777687 0.18264 -1.0512
18 1.62202 0.000713348 -0.000471592 0.029409 -0.0272531 -1.25676
19 1.22241 0 0 0.0223413 -0.00802424 -0.76603
20 1.76707 1.27612 0.0366402 1.328 0.225255 0.0733779
21 1.55588 0 0 -0.142939 0.159067 -1.06546
22 1.24273 0 0 -0.000479213 0.00036051 -1.00946
23 0.784523 0 0 0.0101639 0.0127498 -0.61013
24 -2.4735 1.96366 -5.48939 -0.143291 0.3441 -1.97314
25 6.02794 0 0 1.08254 0.0561818 0.703276
26 11.7344 0 0 0.0014027 0 1.18884
27 8.81167 0 0 1.91797 0 0
28 5.77884 0 0 1.28504 0 0
29 2.23249 0 0 0.632931 0 0
30 11.4725 0 0 1.8476 0.188323 -0.638484
31 0.615812 0.994373 -0.809165 2.90228 0.397795 0.455052
32 2.24752 0 0 -0.0977373 -0.0520997 0.0393428
33 1.11936 0 0 -0.110556 0.115636 -0.00773764
34 3.71349 0.10264 0.102191 -1.40911 0.58357 0.0965933
35 1.72615 0 0 -0.0184066 -0.000676666 1.51735
36 1.21112 0 0 0.00667257 0.00800506 -0.321301
37 3.5992 1.06012 0.0708885 -1.52636 0.488082 0.139804
38 1.66069 0 0 0.0439292 0.0643108 0.822802
39 1.16699 0 0 0.0275333 0.0334933 0.32572
40 2.18853 -0.501042 0.0576591 -1.56816 0.138147 -0.161716
41 1.29609 0 0 0.0968893 -0.147774 0.669796
42 1.62202 -0.000713348 -0.000471115 -0.0204638 -0.0103196 1.57103
43 1.22241 0 0 0 0.00653318 -0.305208
44 1.76707 -1.27612 0.0366402 -1.36293 0.4626 -0.0448406
45 1.55587 0 0 -0.00955763 -0.0420001 0.976332
46 1.24273 0 0 0.00047881 0.000360515 1.0415
47 0.784533 0 0 -0.00138833 0.00235254 -0.396294
48 0 0 0 0 0 0
49 4.6999 3.98802 -8.81148 -0.579204 -1.43389 0.63991
50 6.61002 -18.124 -3.12866 -3.02163 -0.896675 3.1127
51 4.81674 4.075 -7.75422 -0.579204 -1.43389 0.63991
52 6.74304 -18.6277 -2.22036 -0.579201 -1.43389 0.639907
53 5.41465 -8.74049 -4.56645 0 0 0
54 0.597209 -1.80011 -0.0390029 -0.0752664 0.11447 0.0563916
55 -0.439463 -5.01739 0.910445 0 0 0
56 0 -2.26997 1.22871 0.02068 0 0
57 0 -5.92124 1.78377 0 0 0
58 0 -2.12202 -0.0619302 0.352503 0 0
59 -0.575001 -1.69351 1.13699 0 0 0
60 0 -4.97525 -0.469841 0 0 0
61 0.694226 -1.89081 0.409988 0 0 0
time 5
0 5.11825 10.9692 -3.0277 -0.827033 0.693143 -1.04017
1 6.02794 0 0 0.00978227 -0.0808587 -0.0234818
2 11.7344 0 0 -0.00140285 0 -1.85903
3 8.81138 -0.000450134 -0.000112057 -0.490658 0 0.000157819
4 5.77839 0.000285149 0 -0.328741 0 0.0001036
5 2.23163 -0.000329971 -0.000362873 -0.161917 0 0
6 11.4725 0 0 -0.776889 0.121398 1.12856
7 0.615219 -0.993091 -0.8107 2.36101 0.0512842 -0.442576
8 2.24752 0 0 0.0870418 0.0754453 0.0898681
9 1.11936 0 0 0.0868585 0.0464882 -0.110728
10 3.71348 -0.102641 0.102191 1.49829 0.896637 0.234767
11 1.72615 0 0 0.0263275 -0.0109869 -1.28727
12 1.21114 0 0 -0.000154078 0.000329111 -0.915737
13 3.59919 -1.06012 0.0708885 1.53395 0.161844 -0.0676455
14 1.66069 0 0 -0.00634792 0.131671 -0.637454
15 1.167 0 0 -0.00198888 -0.00149678 -1.02582
16 2.18852 0.50104 0.0576591 1.41514 0.0471915 0.071991
17 1.29609 0 0 -0.0777687 0.18264 -1.0512
18 1.62202 0.000713348 -0.000470638 0.029409 -0.0272532 -1.25676
19 1.22241 0 0 0.0223414 -0.00802421 -0.76603
20 1.76707 1.27612 0.0366411 1.328 0.225255 0.0733778
21 1.55588 0 0 -0.14294 0.159067 -1.06546
22 1.24273 0 0 -0.000479294 0.000360533 -1.00946
23 0.784523 0 0 0.010164 0.0127499 -0.61013
24 -2.4735 1.96366 -5.48939 -0.143291 0.3441 -1.97314
25 6.02794 0 0 1.08899 0.0309632 0.714503
26 11.7344 0 0 0.00140267 0 1.15725
27 8.81167 0 0 1.89215 0 0
28 5.77884 0 0 1.26774 0 0
29 2.23249 0 0 0.624411 0 0
30 11.4725 0 0 1.83205 0.199014 -0.613358
31 0.615812 0.994373 -0.809165 2.90228 0.397795 0.455052
32 2.24752 0 0 -0.0977373 -0.0520996 0.0393429
33 1.11935 0 0 -0.110556 0.115636 -0.00773763
34 3.71349 0.102641 0.102191 -1.40911 0.58357 0.0965931
35 1.72615 0 0 -0.0184067 -0.00067663 1.51735
36 1.21112 0 0 0.00667255 0.00800519 -0.321301
37 3.5992 1.06012 0.070888 -1.52636 0.488083 0.139804
38 1.66069 0 0 0.0439292 0.0643109 0.822802
39 1.16699 0 0 0.0275333 0.0334934 0.32572
40 2.18853 -0.50104 0.0576587 -1.56816 0.138147 -0.161716
41 1.29609 0 0 0.0968891 -0.147774 0.669796
42 1.62202 -0.000715256 -0.0004673 -0.0204638 -0.0103197 1.57103
43 1.22241 0 0 0 0.00653318 -0.305208
44 1.76707 -1.27612 0.0366402 -1.36293 0.4626 -0.0448407
45 1.55587 0 0 -0.00955767 -0.0420001 0.976332
46 1.24273 0 0 0.000478903 0.000360558 1.0415
47 0.784531 0 0 -0.00138846 0.00235225 -0.396293
48 0 0 0 0 0 0
49 4.49378 3.72767 -9.10352 -0.707194 -1.41793 0.778613
50 6.66961 -18.2146 -2.88363 -2.98261 -0.895804 3.09427
51 4.60947 3.84181 -8.04872 -0.707194 -1.41793 0.778613
52 6.80861 -18.6943 -1.96335 -0.70719 -1.41793 0.778609
53 5.41465 -8.74049 -4.56645 0 0 0
54 0.565626 -1.93672 0.0216799 -0.0997659 0.116015 0.0656209
55 -0.439463 -5.01739 0.910445 0 0 0
56 0 -2.26997 1.22871 0.02068 0 0
57 0 -5.92124 1.78377 0 0 0
58 0 -2.12202 -0.0619297 0.352503 0 0
59 -0.575001 -1.69351 1.13699 0 0 0
60 0 -4.97524 -0.469841 0 0 0
61 0.694227 -1.89081 0.409987 0 0 0
time 6
0 5.11825 10.9692 -3.0277 -0.827033 0.693143 -1.04017
1 6.02794 0 0 0.012918 -0.0806688 -0.0211134
2 11.7344 0 0 -0.00140281 0 -1.8631
3 8.81138 -0.000450134 -0.00011301 -0.483174 0 0.000157992
4 5.77839 0.000286102 0 -0.323727 0 0.000103815
5 2.23163 -0.000329018 -0.000363827 -0.159447 0 0
6 11.4725 0 0 -0.769713 0.106312 1.11534
7 0.615219 -0.993091 -0.810701 2.36101 0.0512843 -0.442576
8 2.24752 0 0 0.087042 0.0754454 0.0898682
9 1.11936 0 0 0.0868585 0.0464882 -0.110728
10 3.71348 -0.102641 0.10219 1.49829 0.896638 0.234767
11 1.72615 0 0 0.0263275 -0.0109869 -1.28727
12 1.21113 0 0 -0.000154025 0.000329171 -0.915737
13 3.59919 -1.06012 0.0708876 1.53395 0.161845 -0.0676455
14 1.66069 0 0 -0.00634794 0.131671 -0.637455
15 1.167 0 0 -0.00198889 -0.00149679 -1.02582
16 2.18852 0.501039 0.0576582 1.41514 0.0471917 0.0719911
17 1.29609 0 0 -0.0777687 0.18264 -1.0512
18 1.62202 0.000714302 -0.000470638 0.029409 -0.0272532 -1.25676
19 1.22241 0 0 0.0223413 -0.00802421 -0.76603
20 1.76707 1.27612 0.0366402 1.328 0.225255 0.0733779
21 1.55588 0 0 -0.142939 0.159067 -1.06546
22 1.24274 0 0 -0.000479213 0.00036051 -1.00946
23 0.784523 0 0 0.0101639 0.0127498 -0.61013
24 -2.4735 1.96366 -5.48939 -0.143291 0.3441 -1.97314
25 6.02794 0 0 1.09293 0.0236449 0.716885
26 11.7344 0 0 0.00140265 0 1.16193
27 8.81167 0 0 1.8864 0 0
28 5.77884 0 0 1.26389 0 0
29 2.23249 0 0 0.622513 0 0
30 11.4725 0 0 1.829 0.195824 -0.604827
31 0.615812 0.994373 -0.809165 2.90228 0.397795 0.455052
32 2.24751 0 0 -0.0977373 -0.0520997 0.039343
33 1.11936 0 0 -0.110556 0.115636 -0.00773758
34 3.71349 0.102641 0.10219 -1.40911 0.58357 0.0965933
35 1.72615 0 0 -0.0184067 -0.000676556 1.51735
36 1.21112 0 0 0.00667247 0.00800513 -0.321301
37 3.5992 1.06012 0.070888 -1.52636 0.488083 0.139804
38 1.66069 0 0 0.0439292 0.0643108 0.822802
39 1.16699 0 0 0.0275333 0.0334932 0.32572
40 2.18853 -0.501041 0.0576587 -1.56816 0.138147 -0.161716
41 1.29609 0 0 0.0968892 -0.147774 0.669796
42 1.62202 -0.000713348 -0.000470161 -0.0204638 -0.0103199 1.57103
43 1.22241 0 0 0 0.00653329 -0.305208
44 1.76707 -1.27612 0.0366402 -1.36293 0.4626 -0.0448406
45 1.55588 0 0 -0.00955752 -0.0420001 0.976332
46 1.24273 0 0 0.00047894 0.000360503 1.0415
47 0.784533 0 0 -0.00138843 0.0023524 -0.396294
48 0 0 0 0 0 0
49 4.49876 3.6878 -9.36775 -0.843141 -1.4109 0.913786
50 6.62171 -18.1284 -2.70197 -2.95308 -0.883508 3.07221
51 4.60255 3.82235 -8.31411 -0.843141 -1.4109 0.913786
52 6.75077 -18.5901 -1.77111 -0.843137 -1.4109 0.913782
53 5.41465 -8.74049 -4.56645 0 0 0
54 0.530566 -1.88459 0.0507054 -0.119854 0.1061 0.0642729
55 -0.439463 -5.01739 0.910445 0 0 0
56 0 -2.26997 1.22871 0.02068 0 0
57 0 -5.92124 1.78377 0 0 0
58 0 -2.12202 -0.0619297 0.352503 0 0
59 -0.575001 -1.69351 1.13699 0 0 0
60 0 -4.97524 -0.469842 0 0 0
61 0.694227 -1.89081 0.409988 0 0 0
time 7
0 5.11825 10.9692 -3.0277 -0.827033 0.693143 -1.04017
1 6.02794 0 0 0.0153379 -0.0805682 -0.0160676
2 11.7344 0 0 -0.0014028 0 -1.87277
3 8.81138 -0.000449181 -0.000112057 -0.476362 0 0.00015788
4 5.77839 0.000287056 0 -0.319163 0 0.000103792
5 2.23163 -0.000329018 -0.000363827 -0.1572 0 0
6 11.4725 0 0 -0.76372 0.096681 1.1085
7 0.615219 -0.993091 -0.810701 2.36101 0.0512843 -0.442576
8 2.24752 0 0 0.0870418 0.0754454 0.0898681
9 1.11936 0 0 0.0868586 0.0464882 -0.110728
10 3.71348 -0.102641 0.102191 1.49829 0.896637 0.234767
11 1.72615 0 0 0.0263276 -0.0109868 -1.28727
12 1.21114 0 0 -0.000153972 0.000329064 -0.915737
13 3.59919 -1.06012 0.0708876 1.53395 0.161844 -0.0676457
14 1.66069 0 0 -0.00634792 0.131671 -0.637454
15 1.167 0 0 -0.00198887 -0.00149677 -1.02582
16 2.18853 0.50104 0.0576587 1.41514 0.0471914 0.0719909
17 1.29609 0 0 -0.0777687 0.18264 -1.0512
18 1.62202 0.000713348 -0.000471592 0.029409 -0.0272532 -1.25676
19 1.22241 0 0 0.0223414 -0.00802421 -0.76603
20 1.76707 1.27612 0.0366406 1.328 0.225255 0.0733777
21 1.55588 0 0 -0.142939 0.159067 -1.06546
22 1.24274 0 0 -0.000479227 0.000360536 -1.00946
23 0.784524 0 0 0.0101639 0.0127498 -0.61013
24 -2.4735 1.96366 -5.48939 -0.143291 0.3441 -1.97314
25 6.02794 0 0 1.09483 0.0233268 0.716335
26 11.7344 0 0 0.00140276 0 1.17661
27 8.81167 0 0 1.88517 0 0
28 5.77884 0 0 1.26306 0 0
29 2.23249 0 0 0.622107 0 0
30 11.4725 0 0 1.82802 0.191069 -0.604688
31 0.615814 0.994371 -0.809165 2.90228 0.397795 0.455052
32 2.24752 0 0 -0.0977374 -0.0520997 0.0393429
33 1.11936 0 0 -0.110556 0.115636 -0.00773761
34 3.71349 0.102639 0.102191 -1.40911 0.58357 0.0965934
35 1.72615 0 0 -0.0184066 -0.000676671 1.51735
36 1.21112 0 0 0.00667257 0.0080051 -0.321301
37 3.5992 1.06011 0.070888 -1.52636 0.488083 0.139804
38 1.66069 0 0 0.0439293 0.064311 0.822802
39 1.16699 0 0 0.0275333 0.0334931 0.32572
40 2.18853 -0.50104 0.0576591 -1.56816 0.138147 -0.161716
41 1.29609 0 0 0.0968892 -0.147774 0.669796
42 1.62202 -0.000715256 -0.000470161 -0.0204637 -0.0103197 1.57103
43 1.22241 0 0 0 0.00653313 -0.305208
44 1.76707 -1.27612 0.0366402 -1.36293 0.4626 -0.0448407
45 1.55588 0 0 -0.00955757 -0.0420001 0.976332
46 1.24273 0 0 0.000478856 0.000360596 1.0415
47 0.784531 0 0 -0.00138843 0.0023524 -0.396293
48 0 0 0 0 0 0
49 4.52322 3.72507 -9.56594 -0.936437 -1.40489 1.00476
50 6.56149 -18.0006 -2.58549 -2.93292 -0.87354 3.0556
51 4.61774 3.87384 -8.51334 -0.936437 -1.40489 1.00476
52 6.6817 -18.4498 -1.64732 -0.936433 -1.40489 1.00476
53 5.41465 -8.74049 -4.56645 0 0 0
54 0.495192 -1.78146 0.0593805 -0.134063 0.0980352 0.061737
55 -0.439464 -5.01739 0.910445 0 0 0
56 0 -2.26997 1.22871 0.02068 0 0
57 0 -5.92124 1.78377 0 0 0
58 0 -2.12202 -0.0619302 0.352503 0 0
59 -0.575002 -1.69351 1.13699 0 0 0
60 0 -4.97524 -0.469842 0 0 0
61 0.694226 -1.89081 0.409988 0 0 0
time 8
0 5.11825 10.9692 -3.0277 -0.827033 0.693143 -1.04017
1 6.02794 0 0 0.0191088 -0.0803647 -0.0148462
2 11.7344 0 0 -0.00140279 0 -1.87369
3 8.81138 -0.000449181 -0.000112057 -0.476557 0 0.000158056
4 5.77839 0.000286102 0 -0.319293 0 0.000103881
5 2.23163 -0.000329971 -0.000363827 -0.157264 0 0
6 11.4725 0 0 -0.765066 0.0882158 1.09989
7 0.61522 -0.993091 -0.8107 2.36101 0.0512843 -0.442576
8 2.24752 0 0 0.0870419 0.0754454 0.0898682
9 1.11936 0 0 0.0868585 0.0464881 -0.110728
10 3.71348 -0.102641 0.102191 1.49829 0.896637 0.234767
11 1.72615 0 0 0.0263276 -0.0109867 -1.28727
12 1.21114 0 0 -0.000154025 0.000329071 -0.915737
13 3.59919 -1.06012 0.070888 1.53395 0.161845 -0.0676456
14 1.66069 0 0 -0.00634789 0.131671 -0.637454
15 1.167 0 0 -0.00198889 -0.00149678 -1.02582
16 2.18853 0.501039 0.0576587 1.41514 0.0471917 0.0719911
17 1.29609 0 0 -0.0777687 0.18264 -1.0512
18 1.62202 0.000713348 -0.000471592 0.029409 -0.0272531 -1.25676
19 1.22241 0 0 0.0223414 -0.00802425 -0.76603
20 1.76707 1.27612 0.0366406 1.328 0.225255 0.0733778
21 1.55588 0 0 -0.142939 0.159067 -1.06546
22 1.24273 0 0 -0.000479213 0.00036051 -1.00946
23 0.784523 0 0 0.010164 0.0127498 -0.61013
24 -2.4735 1.96366 -5.48939 -0.143291 0.3441 -1.97314
25 6.02794 0 0 1.09779 0.0205712 0.716647
26 11.7344 0 0 0.00140269 0 1.17975
27 8.81167 0 0 1.87786 0 0
28 5.77884 0 0 1.25816 0 0
29 2.23249 0 0 0.619693 0 0
30 11.4725 0 0 1.82251 0.190875 -0.602454
31 0.615812 0.994372 -0.809165 2.90228 0.397795 0.455052
32 2.24752 0 0 -0.0977373 -0.0520997 0.039343
33 1.11936 0 0 -0.110556 0.115636 -0.00773763
34 3.71349 0.10264 0.102191 -1.40911 0.58357 0.0965934
35 1.72615 0 0 -0.0184068 -0.00067662 1.51735
36 1.21112 0 0 0.0066726 0.00800506 -0.321301
37 3.5992 1.06012 0.0708885 -1.52636 0.488083 0.139804
38 1.66069 0 0 0.0439293 0.0643108 0.822802
39 1.16699 0 0 0.0275331 0.0334933 0.32572
40 2.18853 -0.50104 0.0576591 -1.56816 0.138147 -0.161716
41 1.29609 0 0 0.0968892 -0.147774 0.669796
42 1.62201 -0.000713348 -0.000471115 -0.0204638 -0.0103197 1.57103
43 1.22241 0 0 0 0.0065331 -0.305207
44 1.76707 -1.27612 0.0366406 -1.36293 0.4626 -0.0448406
45 1.55587 0 0 -0.00955765 -0.0420001 0.976332
46 1.24273 0 0 0.000478825 0.000360422 1.0415
47 0.784531 0 0 -0.00138847 0.00235233 -0.396294
48 0 0 0 0 0 0
49 4.50362 3.69138 -9.70856 -0.976557 -1.39752 1.0441
50 6.52362 -17.9652 -2.5113 -2.91801 -0.870691 3.04398
51 4.59611 3.85044 -8.65729 -0.976557 -1.39752 1.0441
52 6.64189 -18.4051 -1.56853 -0.976552 -1.39752 1.0441
53 5.41465 -8.74049 -4.56645 0 0 0
54 0.462665 -1.7651 0.0590119 -0.144024 0.0966806 0.0605663
55 -0.439464 -5.01739 0.910444 0 0 0
56 0 -2.26997 1.22871 0.02068 0 0
57 0 -5.92124 1.78377 0 0 0
58 0 -2.12202 -0.0619302 0.352503 0 0
59 -0.575001 -1.69351 1.13699 0 0 0
60 0 -4.97524 -0.469842 0 0 0
61 0.694226 -1.89081 0.409987 0 0 0
time 9
0 5.11825 10.9692 -3.0277 -0.827033 0.693143 -1.04017
1 6.02794 0 0 0.0239044 -0.0800218 -0.0183783
2 11.7344 0 0 -0.00140283 0 -1.86093
3 8.81138 -0.000449181 -0.00011158 -0.486021 0 0.000157981
4 5.77839 0.000287056 0 -0.325634 0 0.000103763
5 2.23163 -0.000329018 -0.000364304 -0.160387 0 0
6 11.4725 0 0 -0.769073 0.0817967 1.08225
7 0.615219 -0.993091 -0.8107 2.36101 0.0512842 -0.442576
8 2.24752 0 0 0.0870419 0.0754453 0.0898682
9 1.11936 0 0 0.0868585 0.0464882 -0.110728
10 3.71348 -0.102641 0.102191 1.49829 0.896637 0.234767
11 1.72615 0 0 0.0263276 -0.0109868 -1.28727
12 1.21114 0 0 -0.000153972 0.000329031 -0.915737
13 3.59919 -1.06012 0.070888 1.53395 0.161844 -0.0676456
14 1.66069 0 0 -0.00634792 0.131671 -0.637455
15 1.167 0 0 -0.00198885 -0.00149678 -1.02582
16 2.18852 0.50104 0.0576591 1.41514 0.0471916 0.071991
17 1.29609 0 0 -0.0777687 0.18264 -1.0512
18 1.62202 0.000713348 -0.000470638 0.029409 -0.0272531 -1.25676
19 1.22241 0 0 0.0223413 -0.00802418 -0.76603
20 1.76707 1.27612 0.0366411 1.328 0.225255 0.0733778
21 1.55588 0 0 -0.142939 0.159067 -1.06546
22 1.24274 0 0 -0.000479242 0.000360562 -1.00946
23 0.784523 0 0 0.0101639 0.0127498 -0.61013
24 -2.4735 1.96366 -5.48939 -0.143291 0.3441 -1.97314
25 6.02794 0 0 1.1045 0.0139262 0.717481
26 11.7344 0 0 0.00140281 0 1.16826
27 8.81167 0 0 1.86387 0 0
28 5.77884 0 0 1.24879 0 0
29 2.23249 0 0 0.615078 0 0
30 11.4725 0 0 1.8128 0.193055 -0.593001
31 0.615814 0.994372 -0.809165 2.90228 0.397795 0.455052
32 2.24752 0 0 -0.0977374 -0.0520996 0.0393428
33 1.11936 0 0 -0.110556 0.115636 -0.00773754
34 3.71349 0.102641 0.102191 -1.40911 0.58357 0.0965932
35 1.72615 0 0 -0.0184068 -0.0006767 1.51735
36 1.21112 0 0 0.00667258 0.00800503 -0.321301
37 3.5992 1.06012 0.0708885 -1.52636 0.488083 0.139804
38 1.66069 0 0 0.0439293 0.0643108 0.822802
39 1.16699 0 0 0.0275333 0.0334932 0.32572
40 2.18853 -0.501039 0.0576591 -1.56816 0.138147 -0.161716
41 1.29609 0 0 0.0968891 -0.147774 0.669796
42 1.62202 -0.000713348 -0.000471115 -0.0204637 -0.0103198 1.57103
43 1.22241 0 0 0 0.00653328 -0.305208
44 1.76707 -1.27612 0.0366402 -1.36293 0.4626 -0.0448406
45 1.55587 0 0 -0.00955767 -0.0420001 0.976332
46 1.24273 0 0 0.000479098 0.000360657 1.0415
47 0.784533 0 0 -0.00138859 0.00235229 -0.396294
48 0 0 0 0 0 0
49 4.50082 3.53858 -9.84302 -0.997627 -1.38997 1.06268
50 6.47768 -18.0611 -2.46521 -2.90497 -0.870328 3.03185
51 4.59421 3.70627 -8.79317 -0.997627 -1.38997 1.06268
52 6.5955 -18.4934 -1.51884 -0.997622 -1.38997 1.06267
53 5.41465 -8.74049 -4.56645 0 0 0
54 0.431843 -1.87669 0.04287 -0.152414 0.0976833 0.0575866
55 -0.439464 -5.01739 0.910444 0 0 0
56 0 -2.26997 1.22871 0.02068 0 0
57 0 -5.92124 1.78376 0 0 0
58 0 -2.12203 -0.0619307 0.352503 0 0
59 -0.575001 -1.69351 1.13699 0 0 0
60 0 -4.97525 -0.469843 0 0 0
61 0.694226 -1.89081 0.409987 0 0 0
time 10
0 5.11825 10.9692 -3.0277 -0.827033 0.693143 -1.04017
1 6.02794 0 0 0.0297242 -0.079542 -0.0235201
2 11.7344 0 0 -0.00140274 0 -1.84183
3 8.81138 -0.000449181 -0.000112534 -0.500856 0 0.000157505
4 5.77839 0.000287056 0 -0.335573 0 0.000103301
5 2.23163 -0.000329018 -0.000364304 -0.165282 0 0
6 11.4725 0 0 -0.775458 0.0764592 1.06022
7 0.615219 -0.993091 -0.8107 2.36101 0.0512843 -0.442576
8 2.24752 0 0 0.0870418 0.0754453 0.089868
9 1.11936 0 0 0.0868585 0.0464882 -0.110728
10 3.71348 -0.102641 0.10219 1.49829 0.896637 0.234767
11 1.72615 0 0 0.0263276 -0.0109868 -1.28727
12 1.21114 0 0 -0.000154012 0.000329078 -0.915737
13 3.59919 -1.06012 0.070888 1.53395 0.161845 -0.0676455
14 1.66069 0 0 -0.00634793 0.131671 -0.637455
15 1.167 0 0 -0.00198891 -0.00149679 -1.02582
16 2.18853 0.50104 0.0576587 1.41514 0.0471915 0.071991
17 1.29609 0 0 -0.0777688 0.18264 -1.0512
18 1.62202 0.000713348 -0.000471115 0.029409 -0.0272531 -1.25676
19 1.22241 0 0 0.0223414 -0.00802425 -0.76603
20 1.76707 1.27612 0.0366406 1.328 0.225255 0.0733779
21 1.55588 0 0 -0.142939 0.159067 -1.06546
22 1.24274 0 0 -0.000479213 0.00036051 -1.00946
23 0.784523 0 0 0.010164 0.0127498 -0.61013
24 -2.4735 1.96366 -5.48939 -0.143291 0.3441 -1.97314
25 6.02794 0 0 1.1126 0.00653939 0.718045
26 11.7344 0 0 0.00140281 0 1.15047
27 8.81167 0 0 1.84697 0 0
28 5.77884 0 0 1.23747 0 0
29 2.23249 0 0 0.6095 0 0
30 11.4725 0 0 1.80101 0.19624 -0.580547
31 0.615812 0.994372 -0.809165 2.90228 0.397795 0.455052
32 2.24752 0 0 -0.0977373 -0.0520997 0.0393428
33 1.11936 0 0 -0.110556 0.115636 -0.00773758
34 3.71349 0.10264 0.102191 -1.40911 0.58357 0.0965932
35 1.72615 0 0 -0.0184068 -0.000676678 1.51735
36 1.21112 0 0 0.00667265 0.00800513 -0.321301
37 3.5992 1.06012 0.0708885 -1.52636 0.488083 0.139803
38 1.66069 0 0 0.0439293 0.0643108 0.822802
39 1.16699 0 0 0.0275332 0.0334932 0.32572
40 2.18853 -0.50104 0.0576591 -1.56816 0.138147 -0.161716
41 1.29609 0 0 0.0968892 -0.147774 0.669796
42 1.62202 -0.000713348 -0.000470161 -0.0204637 -0.0103199 1.57103
43 1.22241 0 0 0 0.00653322 -0.305208
44 1.76707 -1.27612 0.0366402 -1.36293 0.4626 -0.0448407
45 1.55587 0 0 -0.00955772 -0.0420001 0.976332
46 1.24273 0 0 0.000479024 0.000360648 1.0415
47 0.784533 0 0 -0.00138864 0.00235223 -0.396294
48 0 0 0 0 0 0
49 4.50362 3.33457 -9.97676 -1.00447 -1.38262 1.06609
50 6.42754 -18.2192 -2.45199 -2.89368 -0.871966 3.0199
51 4.60016 3.50932 -8.92835 -1.00447 -1.38262 1.06609
52 6.54627 -18.6452 -1.5029 -1.00446 -1.38262 1.06609
53 5.41465 -8.74049 -4.56645 0 0 0
54 0.401144 -2.04734 0.00530195 -0.159334 0.100537 0.0535962
55 -0.439463 -5.01739 0.910445 0 0 0
56 0 -2.26997 1.22871 0.02068 0 0
57 0 -5.92124 1.78377 0 0 0
58 0 -2.12202 -0.0619297 0.352503 0 0
59 -0.575 -1.69351 1.13699 0 0 0
60 0 -4.97524 -0.469841 0 0 0
61 0.694227 -1.89081 0.409987 0 0 0
time 11
0 5.11825 10.9692 -3.0277 -0.827033 0.693143 -1.04017
1 6.02794 0 0 0.0357388 -0.07895 -0.0299869
2 11.7344 0 0 -0.00140283 0 -1.81909
3 8.81138 -0.000450134 -0.000112057 -0.518371 0 0.000158105
4 5.77839 0.000287056 0 -0.347309 0 0.000103732
5 2.23163 -0.000329018 -0.00036335 -0.171062 0 0
6 11.4725 0 0 -0.783207 0.0720608 1.0367
7 0.61522 -0.993091 -0.8107 2.36101 0.0512842 -0.442576
8 2.24752 0 0 0.0870419 0.0754452 0.089868
9 1.11936 0 0 0.0868584 0.0464882 -0.110728
10 3.71348 -0.10264 0.102191 1.49829 0.896637 0.234767
11 1.72615 0 0 0.0263276 -0.0109868 -1.28727
12 1.21114 0 0 -0.000154011 0.000329144 -0.915737
13 3.59919 -1.06012 0.070888 1.53395 0.161844 -0.0676455
14 1.66069 0 0 -0.0063479 0.131671 -0.637455
15 1.167 0 0 -0.00198889 -0.00149678 -1.02582
16 2.18852 0.50104 0.0576587 1.41514 0.0471916 0.0719911
17 1.29609 0 0 -0.0777686 0.18264 -1.0512
18 1.62202 0.000711441 -0.000470638 0.029409 -0.0272531 -1.25676
19 1.22241 0 0 0.0223414 -0.00802417 -0.76603
20 1.76707 1.27612 0.0366406 1.328 0.225255 0.0733779
21 1.55588 0 0 -0.142939 0.159067 -1.06546
22 1.24273 0 0 -0.000479239 0.000360495 -1.00946
23 0.784524 0 0 0.010164 0.0127498 -0.61013
24 -2.4735 1.96366 -5.48939 -0.143291 0.3441 -1.97314
25 6.02794 0 0 1.12106 -0.00152546 0.718655
26 11.7344 0 0 0.00140265 0 1.12862
27 8.81167 0 0 1.82907 0 0
28 5.77884 0 0 1.22547 0 0
29 2.23249 0 0 0.603591 0 0
30 11.4725 0 0 1.78835 0.200146 -0.566683
31 0.615814 0.994372 -0.809165 2.90228 0.397795 0.455052
32 2.24752 0 0 -0.0977372 -0.0520996 0.0393428
33 1.11936 0 0 -0.110556 0.115636 -0.00773756
34 3.71349 0.102637 0.10219 -1.40911 0.58357 0.0965933
35 1.72615 0 0 -0.0184066 -0.000676587 1.51735
36 1.21112 0 0 0.00667261 0.00800503 -0.321301
37 3.5992 1.06011 0.070888 -1.52636 0.488083 0.139803
38 1.66069 0 0 0.0439293 0.064311 0.822802
39 1.16699 0 0 0.0275332 0.0334932 0.32572
40 2.18853 -0.501041 0.0576591 -1.56816 0.138147 -0.161716
41 1.29609 0 0 0.0968891 -0.147774 0.669796
42 1.62202 -0.000715256 -0.000470161 -0.0204638 -0.0103196 1.57103
43 1.22241 0 0 0 0.00653308 -0.305207
44 1.76707 -1.27612 0.0366406 -1.36293 0.4626 -0.0448408
45 1.55587 0 0 -0.0095576 -0.0420002 0.976332
46 1.24273 0 0 0.000478905 0.000360561 1.0415
47 0.784533 0 0 -0.00138836 0.00235239 -0.396294
48 0 0 0 0 0 0
49 4.50551 3.10564 -10.0986 -1.00118 -1.37572 1.05923
50 6.38081 -18.4115 -2.45786 -2.88406 -0.875115 3.00889
51 4.60679 3.28604 -9.05161 -1.00118 -1.37572 1.05923
52 6.50171 -18.8325 -1.50682 -1.00117 -1.37571 1.05923
53 5.41465 -8.74049 -4.56645 0 0 0
54 0.373074 -2.24973 -0.040772 -0.164885 0.104735 0.0493937
55 -0.439464 -5.01739 0.910444 0 0 0
56 0 -2.26997 1.22871 0.02068 0 0
57 0 -5.92124 1.78377 0 0 0
58 0 -2.12202 -0.0619307 0.352503 0 0
59 -0.575001 -1.69351 1.13699 0 0 0
60 0 -4.97524 -0.469842 0 0 0
61 0.694226 -1.89081 0.409987 0 0 0
time 12
0 5.11825 10.9692 -3.0277 -0.827033 0.693143 -1.04017
1 6.02794 0 0 0.0411379 -0.0783099 -0.0370402
2 11.7344 0 0 -0.00140284 0 -1.79615
3 8.81138 -0.000450134 -0.00011301 -0.535748 0 0.00015793
4 5.77839 0.000286102 0 -0.358951 0 0.0001035
5 2.23163 -0.000329971 -0.000364304 -0.176797 0 0
6 11.4725 0 0 -0.791346 0.0684594 1.01485
7 0.615221 -0.993091 -0.8107 2.36101 0.0512844 -0.442576
8 2.24752 0 0 0.0870419 0.0754454 0.0898683
9 1.11936 0 0 0.0868586 0.0464881 -0.110728
10 3.71348 -0.102641 0.102191 1.49829 0.896637 0.234767
11 1.72615 0 0 0.0263276 -0.0109868 -1.28727
12 1.21114 0 0 -0.000154012 0.000329111 -0.915737
13 3.59919 -1.06012 0.0708885 1.53395 0.161845 -0.0676456
14 1.66069 0 0 -0.00634791 0.131671 -0.637454
15 1.167 0 0 -0.0019889 -0.00149679 -1.02582
16 2.18852 0.501039 0.0576591 1.41514 0.0471916 0.071991
17 1.29609 0 0 -0.0777687 0.18264 -1.0512
18 1.62202 0.000714302 -0.000471115 0.029409 -0.0272531 -1.25676
19 1.22241 0 0 0.0223414 -0.00802424 -0.76603
20 1.76707 1.27612 0.0366411 1.328 0.225255 0.0733779
21 1.55588 0 0 -0.142939 0.159067 -1.06546
22 1.24274 0 0 -0.000479187 0.000360524 -1.00946
23 0.784524 0 0 0.010164 0.0127498 -0.61013
24 -2.4735 1.96366 -5.48939 -0.143291 0.3441 -1.97314
25 6.02794 0 0 1.12892 -0.0104313 0.719754
26 11.7344 0 0 0.00140265 0 1.10438
27 8.81167 0 0 1.81186 0 0
28 5.77884 0 0 1.21395 0 0
29 2.23249 0 0 0.597916 0 0
30 11.4725 0 0 1.776 0.204506 -0.55266
31 0.615812 0.994372 -0.809165 2.90228 0.397795 0.455052
32 2.24752 0 0 -0.0977373 -0.0520996 0.039343
33 1.11936 0 0 -0.110556 0.115636 -0.00773768
34 3.71348 0.102639 0.102191 -1.40911 0.58357 0.0965933
35 1.72615 0 0 -0.0184066 -0.000676576 1.51735
36 1.21112 0 0 0.00667257 0.00800491 -0.321301
37 3.5992 1.06012 0.0708885 -1.52636 0.488082 0.139804
38 1.66069 0 0 0.0439293 0.0643108 0.822802
39 1.16699 0 0 0.0275332 0.0334932 0.32572
40 2.18853 -0.501042 0.0576591 -1.56816 0.138147 -0.161716
41 1.29609 0 0 0.0968892 -0.147774 0.669796
42 1.62202 -0.000713348 -0.000470161 -0.0204636 -0.0103197 1.57103
43 1.22241 0 0 0 0.00653322 -0.305208
44 1.76707 -1.27612 0.0366406 -1.36293 0.4626 -0.0448407
45 1.55588 0 0 -0.00955776 -0.0420003 0.976332
46 1.24273 0 0 0.000479114 0.000360446 1.0415
47 0.784533 0 0 -0.00138849 0.00235242 -0.396294
48 0 0 0 0 0 0
49 4.5004 2.87806 -10.1974 -0.991176 -1.36942 1.04627
50 6.3449 -18.6105 -2.46903 -2.87606 -0.879283 2.99958
51 4.60731 3.06283 -9.15173 -0.991176 -1.36942 1.04627
52 6.46908 -19.0276 -1.51669 -0.991173 -1.36942 1.04627
53 5.41465 -8.74049 -4.56645 0 0 0
54 0.350138 -2.45653 -0.0824304 -0.169168 0.109771 0.0457775
55 -0.439463 -5.01739 0.910445 0 0 0
56 0 -2.26997 1.22871 0.02068 0 0
57 0 -5.92124 1.78377 0 0 0
58 0 -2.12203 -0.0619302 0.352503 0 0
59 -0.575001 -1.69351 1.13699 0 0 0
60 0 -4.97524 -0.469841 0 0 0
61 0.694226 -1.89081 0.409987 0 0 0
time 13
0 5.11825 10.9692 -3.0277 -0.827033 0.693143 -1.04017
1 6.02794 0 0 0.0451996 -0.0777054 -0.0443341
2 11.7344 0 0 -0.00140293 0 -1.77544
3 8.81138 -0.000450134 -0.000112534 -0.550599 0 0.000157577
4 5.77839 0.000286102 0 -0.368902 0 0.000103274
5 2.23163 -0.000329018 -0.00036478 -0.181698 0 0
6 11.4725 0 0 -0.798941 0.0654978 0.997235
7 0.615219 -0.993091 -0.8107 2.36101 0.0512843 -0.442576
8 2.24752 0 0 0.0870418 0.0754453 0.089868
9 1.11936 0 0 0.0868585 0.0464882 -0.110728
10 3.71348 -0.102641 0.102191 1.49829 0.896637 0.234767
11 1.72615 0 0 0.0263276 -0.0109868 -1.28727
12 1.21114 0 0 -0.000153985 0.000329058 -0.915737
13 3.59919 -1.06012 0.0708876 1.53395 0.161845 -0.0676455
14 1.66069 0 0 -0.0063479 0.131671 -0.637454
15 1.167 0 0 -0.0019889 -0.00149679 -1.02582
16 2.18853 0.50104 0.0576582 1.41514 0.0471917 0.0719911
17 1.29609 0 0 -0.0777687 0.18264 -1.0512
18 1.62202 0.000713348 -0.000471115 0.029409 -0.0272531 -1.25676
19 1.22241 0 0 0.0223414 -0.0080242 -0.76603
20 1.76707 1.27612 0.0366402 1.328 0.225255 0.0733778
21 1.55588 0 0 -0.142939 0.159067 -1.06546
22 1.24273 0 0 -0.000479198 0.000360484 -1.00946
23 0.784524 0 0 0.010164 0.0127498 -0.61013
24 -2.4735 1.96366 -5.48939 -0.143291 0.3441 -1.97314
25 6.02794 0 0 1.13523 -0.0195979 0.721452
26 11.7344 0 0 0.00140265 0 1.08096
27 8.81167 0 0 1.79704 0 0
28 5.77884 0 0 1.20402 0 0
29 2.23249 0 0 0.593022 0 0
30 11.4725 0 0 1.76513 0.209088 -0.540461
31 0.61581 0.994371 -0.809166 2.90228 0.397795 0.455052
32 2.24752 0 0 -0.0977373 -0.0520996 0.0393428
33 1.11935 0 0 -0.110556 0.115636 -0.00773768
34 3.71349 0.102641 0.102191 -1.40911 0.58357 0.0965934
35 1.72615 0 0 -0.0184067 -0.000676532 1.51735
36 1.21112 0 0 0.00667265 0.00800492 -0.321301
37 3.5992 1.06012 0.070888 -1.52636 0.488082 0.139804
38 1.66069 0 0 0.0439293 0.0643109 0.822802
39 1.16699 0 0 0.0275333 0.0334933 0.32572
40 2.18853 -0.50104 0.0576591 -1.56816 0.138147 -0.161716
41 1.29609 0 0 0.0968891 -0.147774 0.669796
42 1.62202 -0.000715256 -0.000471115 -0.0204639 -0.0103198 1.57103
43 1.22241 0 0 0 0.00653296 -0.305207
44 1.76707 -1.27612 0.0366402 -1.36293 0.4626 -0.0448407
45 1.55587 0 0 -0.00955762 -0.0420001 0.976332
46 1.24273 0 0 0.000478902 0.000360555 1.0415
47 0.784533 0 0 -0.00138828 0.00235227 -0.396293
48 0 0 0 0 0 0
49 4.48248 2.678 -10.262 -0.977314 -1.3639 1.03081
50 6.3271 -18.7881 -2.47167 -2.86968 -0.883969 2.99278
51 4.5952 2.86604 -9.21753 -0.977314 -1.3639 1.03081
52 6.45548 -19.2023 -1.51861 -0.97731 -1.3639 1.03081
53 5.41465 -8.74049 -4.56645 0 0 0
54 0.33484 -2.64041 -0.106752 -0.172284 0.115139 0.043546
55 -0.439463 -5.01739 0.910444 0 0 0
56 0 -2.26997 1.22871 0.02068 0 0
57 0 -5.92124 1.78377 0 0 0
58 0 -2.12202 -0.0619307 0.352503 0 0
59 -0.575 -1.69351 1.13699 0 0 0
60 0 -4.97524 -0.469842 0 0 0
61 0.694226 -1.89081 0.409987 0 0 0
time 14
0 5.11825 10.9692 -3.0277 -0.827033 0.693143 -1.04017
1 6.02794 0 0 0.0478181 -0.0771761 -0.0517244
2 11.7344 0 0 -0.00140281 0 -1.75696
3 8.81138 -0.000448227 -0.000112534 -0.564019 0 0.000157662
4 5.77839 0.000286102 0 -0.377893 0 0.000103297
5 2.23163 -0.000328064 -0.000363827 -0.186126 0 0
6 11.4725 0 0 -0.80678 0.0630059 0.982956
7 0.615219 -0.993092 -0.810699 2.36101 0.0512842 -0.442577
8 2.24752 0 0 0.0870418 0.0754454 0.0898681
9 1.11936 0 0 0.0868586 0.0464882 -0.110728
10 3.71348 -0.102641 0.102191 1.49829 0.896637 0.234767
11 1.72615 0 0 0.0263276 -0.0109868 -1.28727
12 1.21114 0 0 -0.000153999 0.000329051 -0.915737
13 3.59919 -1.06012 0.0708885 1.53395 0.161844 -0.0676456
14 1.66069 0 0 -0.0063479 0.131671 -0.637455
15 1.167 0 0 -0.0019889 -0.00149679 -1.02582
16 2.18853 0.501039 0.0576591 1.41514 0.0471915 0.071991
17 1.29609 0 0 -0.0777687 0.18264 -1.0512
18 1.62202 0.000713348 -0.000471115 0.029409 -0.0272531 -1.25676
19 1.22241 0 0 0.0223414 -0.00802423 -0.76603
20 1.76707 1.27612 0.0366411 1.328 0.225255 0.0733778
21 1.55588 0 0 -0.142939 0.159067 -1.06546
22 1.24274 0 0 -0.000479253 0.000360521 -1.00946
23 0.784523 0 0 0.010164 0.0127499 -0.61013
24 -2.4735 1.96366 -5.48939 -0.143291 0.3441 -1.97314
25 6.02794 0 0 1.14013 -0.0297795 0.724065
26 11.7344 0 0 0.0014027 0 1.05769
27 8.81167 0 0 1.78305 0 0
28 5.77884 0 0 1.19464 0 0
29 2.23249 0 0 0.588406 0 0
30 11.4725 0 0 1.75454 0.21398 -0.530267
31 0.615812 0.994372 -0.809165 2.90228 0.397795 0.455052
32 2.24752 0 0 -0.0977373 -0.0520995 0.0393429
33 1.11936 0 0 -0.110556 0.115636 -0.00773758
34 3.71348 0.102638 0.102191 -1.40911 0.58357 0.0965932
35 1.72615 0 0 -0.0184067 -0.000676538 1.51735
36 1.21112 0 0 0.00667256 0.00800497 -0.321301
37 3.5992 1.06011 0.0708885 -1.52636 0.488083 0.139803
38 1.66069 0 0 0.0439293 0.0643107 0.822802
39 1.16699 0 0 0.0275332 0.0334933 0.32572
40 2.18853 -0.501041 0.0576591 -1.56816 0.138147 -0.161716
41 1.29609 0 0 0.0968891 -0.147774 0.669796
42 1.62202 -0.000713348 -0.000472069 -0.0204638 -0.0103198 1.57103
43 1.22241 0 0 0 0.00653328 -0.305208
44 1.76707 -1.27612 0.0366402 -1.36293 0.4626 -0.0448407
45 1.55587 0 0 -0.00955771 -0.0420001 0.976332
46 1.24273 0 0 0.0004788 0.000360497 1.0415
47 0.784531 0 0 -0.00138831 0.00235243 -0.396294
48 0 0 0 0 0 0
49 4.45214 2.5001 -10.2974 -0.958253 -1.35807 1.01139
50 6.33025 -18.9448 -2.45688 -2.86361 -0.889888 2.9873
51 4.57171 2.69108 -9.25419 -0.958253 -1.35807 1.01139
52 6.46443 -19.3564 -1.50346 -0.95825 -1.35807 1.01139
53 5.41465 -8.74049 -4.56645 0 0 0
54 0.329557 -2.80307 -0.109658 -0.174919 0.121688 0.0424535
55 -0.439463 -5.01739 0.910445 0 0 0
56 0 -2.26997 1.22871 0.02068 0 0
57 0 -5.92124 1.78377 0 0 0
58 0 -2.12203 -0.0619297 0.352503 0 0
59 -0.575001 -1.69351 1.13699 0 0 0
60 0 -4.97525 -0.469842 0 0 0
61 0.694227 -1.89081 0.409988 0 0 0
time 15
0 5.11825 10.9692 -3.0277 -0.827033 0.693143 -1.04017
1 6.02794 0 0 0.0494894 -0.0766887 -0.0596008
2 11.7344 0 0 -0.00140284 0 -1.73859
3 8.81138 -0.000449181 -0.000112534 -0.578212 0 0.000157859
4 5.77839 0.000287056 0 -0.387402 0 0.00010328
5 2.23163 -0.000329018 -0.00036478 -0.19081 0 0
6 11.4725 0 0 -0.815742 0.0611528 0.969782
7 0.615219 -0.993092 -0.8107 2.36101 0.0512842 -0.442576
8 2.24752 0 0 0.0870418 0.0754453 0.089868
9 1.11936 0 0 0.0868586 0.0464882 -0.110728
10 3.71348 -0.102641 0.102191 1.49829 0.896637 0.234767
11 1.72615 0 0 0.0263275 -0.0109868 -1.28727
12 1.21114 0 0 -0.000154025 0.000329104 -0.915737
13 3.59919 -1.06012 0.0708885 1.53395 0.161845 -0.0676455
14 1.66069 0 0 -0.00634791 0.131671 -0.637455
15 1.167 0 0 -0.0019889 -0.00149678 -1.02582
16 2.18853 0.50104 0.0576591 1.41514 0.0471916 0.0719911
17 1.29609 0 0 -0.0777687 0.18264 -1.0512
18 1.62202 0.000713348 -0.000471115 0.029409 -0.0272531 -1.25676
19 1.22241 0 0 0.0223414 -0.00802427 -0.76603
20 1.76707 1.27612 0.0366411 1.328 0.225255 0.0733779
21 1.55588 0 0 -0.142939 0.159067 -1.06546
22 1.24274 0 0 -0.000479253 0.000360521 -1.00946
23 0.784523 0 0 0.0101639 0.0127498 -0.61013
24 -2.4735 1.96366 -5.48939 -0.143291 0.3441 -1.97314
25 6.02794 0 0 1.14431 -0.0413979 0.727501
26 11.7344 0 0 0.00140266 0 1.03252
27 8.81167 0 0 1.76834 0 0
28 5.77884 0 0 1.18479 0 0
29 2.23249 0 0 0.583551 0 0
30 11.4725 0 0 1.74306 0.21927 -0.520998
31 0.615814 0.994372 -0.809165 2.90228 0.397795 0.455052
32 2.24751 0 0 -0.0977373 -0.0520998 0.039343
33 1.11936 0 0 -0.110556 0.115636 -0.0077376
34 3.71349 0.102639 0.102191 -1.40911 0.58357 0.0965933
35 1.72615 0 0 -0.0184068 -0.000676647 1.51735
36 1.21112 0 0 0.00667264 0.00800503 -0.321301
37 3.5992 1.06012 0.0708885 -1.52636 0.488083 0.139804
38 1.66069 0 0 0.0439293 0.0643108 0.822802
39 1.16699 0 0 0.0275333 0.0334934 0.32572
40 2.18853 -0.501041 0.0576587 -1.56816 0.138147 -0.161716
41 1.29609 0 0 0.0968891 -0.147774 0.669796
42 1.62201 -0.000713348 -0.000472069 -0.0204638 -0.0103198 1.57103
43 1.22241 0 0 0 0.00653305 -0.305208
44 1.76707 -1.27612 0.0366411 -1.36293 0.4626 -0.0448406
45 1.55588 0 0 -0.00955754 -0.0420002 0.976332
46 1.24273 0 0 0.00047899 0.00036071 1.0415
47 0.784531 0 0 -0.00138846 0.00235225 -0.396294
48 0 0 0 0 0 0
49 4.41457 2.32626 -10.3116 -0.932494 -1.35149 0.985865
50 6.34935 -19.0994 -2.43224 -2.85756 -0.897594 2.98222
51 4.54277 2.51984 -9.26987 -0.932494 -1.35149 0.985865
52 6.49121 -19.5086 -1.47892 -0.932491 -1.35149 0.985862
53 5.41465 -8.74049 -4.56645 0 0 0
54 0.333095 -2.96308 -0.0989466 -0.177129 0.12999 0.0418121
55 -0.439463 -5.01739 0.910445 0 0 0
56 0 -2.26997 1.22871 0.02068 0 0
57 0 -5.92124 1.78377 0 0 0
58 0 -2.12202 -0.0619302 0.352503 0 0
59 -0.575001 -1.69351 1.13699 0 0 0
60 0 -4.97524 -0.469842 0 0 0
61 0.694227 -1.89081 0.409987 0 0 0
time 16
0 5.11825 10.9692 -3.0277 -0.827033 0.693143 -1.04017
1 6.02794 0 0 0.0503705 -0.0762529 -0.0678244
2 11.7344 0 0 -0.00140284 0 -1.7207
3 8.81138 -0.000450134 -0.000112057 -0.592172 0 0.000158021
4 5.77839 0.000286102 0 -0.396755 0 0.000103461
5 2.23164 -0.000329018 -0.00036335 -0.195417 0 0
6 11.4725 0 0 -0.825036 0.0603005 0.95869
7 0.615219 -0.993091 -0.8107 2.36101 0.0512844 -0.442576
8 2.24752 0 0 0.087042 0.0754453 0.0898682
9 1.11936 0 0 0.0868585 0.0464881 -0.110728
10 3.71348 -0.102641 0.102191 1.49829 0.896638 0.234767
11 1.72615 0 0 0.0263275 -0.0109868 -1.28727
12 1.21114 0 0 -0.000154012 0.000329044 -0.915737
13 3.59919 -1.06012 0.0708885 1.53395 0.161845 -0.0676454
14 1.66069 0 0 -0.00634792 0.131671 -0.637454
15 1.167 0 0 -0.00198888 -0.00149678 -1.02582
16 2.18852 0.50104 0.0576591 1.41514 0.0471917 0.0719911
17 1.29609 0 0 -0.0777687 0.18264 -1.0512
18 1.62202 0.000712395 -0.000471592 0.029409 -0.0272532 -1.25676
19 1.22241 0 0 0.0223414 -0.00802423 -0.76603
20 1.76707 1.27612 0.0366411 1.328 0.225255 0.073378
21 1.55588 0 0 -0.14294 0.159067 -1.06546
22 1.24274 0 0 -0.000479198 0.000360484 -1.00946
23 0.784523 0 0 0.0101639 0.0127498 -0.61013
24 -2.4735 1.96366 -5.48939 -0.143291 0.3441 -1.97314
25 6.02794 0 0 1.1477 -0.0534015 0.731326
26 11.7344 0 0 0.00140257 0 1.00647
27 8.81167 0 0 1.75433 0 0
28 5.77884 0 0 1.1754 0 0
29 2.23249 0 0 0.578927 0 0
30 11.4725 0 0 1.73193 0.22477 -0.512633
31 0.615814 0.994372 -0.809165 2.90228 0.397795 0.455052
32 2.24752 0 0 -0.0977374 -0.0520997 0.039343
33 1.11936 0 0 -0.110556 0.115636 -0.00773754
34 3.71349 0.102638 0.102191 -1.40911 0.58357 0.0965932
35 1.72615 0 0 -0.0184067 -0.000676662 1.51735
36 1.21112 0 0 0.0066725 0.00800493 -0.321301
37 3.5992 1.06011 0.0708885 -1.52636 0.488083 0.139803
38 1.66069 0 0 0.0439294 0.0643109 0.822802
39 1.16699 0 0 0.0275331 0.0334931 0.32572
40 2.18853 -0.50104 0.0576591 -1.56816 0.138147 -0.161716
41 1.29609 0 0 0.0968892 -0.147774 0.669796
42 1.62202 -0.000711441 -0.000468254 -0.0204639 -0.0103197 1.57103
43 1.22241 0 0 0 0.00653315 -0.305208
44 1.76707 -1.27612 0.0366406 -1.36293 0.4626 -0.0448407
45 1.55587 0 0 -0.00955775 -0.042 0.976332
46 1.24273 0 0 0.000478888 0.000360531 1.0415
47 0.784533 0 0 -0.0013883 0.00235239 -0.396293
48 0 0 0 0 0 0
49 4.3717 2.16342 -10.2982 -0.901828 -1.34527 0.956025
50 6.37971 -19.2517 -2.40865 -2.85312 -0.906359 2.9788
51 4.50935 2.35838 -9.25798 -0.901828 -1.34527 0.956025
52 6.53026 -19.6596 -1.45612 -0.901825 -1.34527 0.956022
53 5.41465 -8.74049 -4.56645 0 0 0
54 0.3426 -3.11839 -0.0795126 -0.178071 0.139132 0.0417571
55 -0.439463 -5.01739 0.910445 0 0 0
56 0 -2.26997 1.22871 0.02068 0 0
57 0 -5.92124 1.78377 0 0 0
58 0 -2.12203 -0.0619302 0.352503 0 0
59 -0.575001 -1.69351 1.13699 0 0 0
60 0 -4.97524 -0.469842 0 0 0
61 0.694227 -1.89081 0.409987 0 0 0
time 17
0 5.11825 10.9692 -3.0277 -0.827033 0.693143 -1.04017
1 6.02794 0 0 0.0505845 -0.0758857 -0.0760465
2 11.7344 0 0 -0.00140277 0 -1.70411
3 8.81138 -0.000449181 -0.000112534 -0.604738 0 0.000157756
4 5.77839 0.000286102 0 -0.405175 0 0.000103195
5 2.23163 -0.000329018 -0.000364304 -0.199564 0 0
6 11.4725 0 0 -0.83386 0.0608504 0.95084
7 0.615218 -0.993091 -0.8107 2.36101 0.0512842 -0.442576
8 2.24752 0 0 0.0870418 0.0754454 0.089868
9 1.11936 0 0 0.0868585 0.0464881 -0.110728
10 3.71348 -0.102641 0.102191 1.49829 0.896637 0.234767
11 1.72615 0 0 0.0263276 -0.0109868 -1.28727
12 1.21114 0 0 -0.000154038 0.000329098 -0.915737
13 3.59919 -1.06012 0.0708876 1.53395 0.161844 -0.0676456
14 1.66069 0 0 -0.00634791 0.131671 -0.637455
15 1.167 0 0 -0.0019889 -0.00149679 -1.02582
16 2.18852 0.50104 0.0576591 1.41514 0.0471916 0.071991
17 1.29609 0 0 -0.0777687 0.18264 -1.0512
18 1.62202 0.000715256 -0.000471592 0.029409 -0.0272531 -1.25676
19 1.22241 0 0 0.0223414 -0.00802425 -0.76603
20 1.76707 1.27612 0.0366402 1.328 0.225255 0.0733778
21 1.55588 0 0 -0.142939 0.159067 -1.06546
22 1.24274 0 0 -0.000479201 0.00036055 -1.00946
23 0.784523 0 0 0.010164 0.0127498 -0.61013
24 -2.4735 1.96366 -5.48939 -0.143291 0.3441 -1.97314
25 6.02794 0 0 1.15029 -0.0648208 0.73515
26 11.7344 0 0 0.00140275 0 0.980387
27 8.81167 0 0 1.74237 0 0
28 5.77884 0 0 1.16739 0 0
29 2.23249 0 0 0.574982 0 0
30 11.4725 0 0 1.72237 0.230317 -0.505088
31 0.615812 0.994373 -0.809166 2.90228 0.397795 0.455052
32 2.24752 0 0 -0.0977373 -0.0520997 0.0393429
33 1.11936 0 0 -0.110556 0.115636 -0.0077375
34 3.71349 0.10264 0.10219 -1.40911 0.58357 0.0965932
35 1.72615 0 0 -0.0184067 -0.00067665 1.51735
36 1.21112 0 0 0.00667256 0.00800512 -0.321301
37 3.5992 1.06012 0.0708876 -1.52636 0.488083 0.139803
38 1.66069 0 0 0.0439293 0.0643109 0.822802
39 1.16699 0 0 0.0275332 0.0334932 0.32572
40 2.18853 -0.50104 0.0576587 -1.56816 0.138147 -0.161716
41 1.29609 0 0 0.0968892 -0.147774 0.669796
42 1.62202 -0.000713348 -0.000470161 -0.0204637 -0.0103198 1.57103
43 1.22241 0 0 0 0.00653321 -0.305208
44 1.76707 -1.27612 0.0366402 -1.36293 0.4626 -0.0448408
45 1.55587 0 0 -0.00955756 -0.0420001 0.976332
46 1.24273 0 0 0.00047883 0.000360669 1.0415
47 0.784533 0 0 -0.00138829 0.00235233 -0.396293
48 0 0 0 0 0 0
49 4.32597 2.01852 -10.2512 -0.867279 -1.34052 0.922868
50 6.41634 -19.4017 -2.39689 -2.85195 -0.915468 2.97838
51 4.47299 2.21274 -9.21213 -0.867279 -1.34052 0.922868
52 6.57576 -19.8103 -1.44608 -0.867276 -1.34052 0.922865
53 5.41465 -8.74049 -4.56645 0 0 0
54 0.355224 -3.26696 -0.0562506 -0.176903 0.148194 0.0424234
55 -0.439463 -5.01739 0.910445 0 0 0
56 0 -2.26997 1.22871 0.02068 0 0
57 0 -5.92124 1.78377 0 0 0
58 0 -2.12203 -0.0619297 0.352503 0 0
59 -0.575001 -1.69351 1.13699 0 0 0
60 0 -4.97524 -0.469841 0 0 0
61 0.694226 -1.89081 0.409988 0 0 0
time 18
0 5.11825 10.9692 -3.0277 -0.827033 0.693143 -1.04017
1 6.02794 0 0 0.0502811 -0.0755801 -0.0844065
2 11.7344 0 0 -0.00140294 0 -1.68856
3 8.81138 -0.000451088 -0.00011158 -0.615041 0 0.000157759
4 5.77839 0.000286102 0 -0.412077 0 0.000103123
5 2.23164 -0.000330925 -0.000363827 -0.202963 0 0
6 11.4725 0 0 -0.841399 0.0632303 0.946844
7 0.61522 -0.993091 -0.8107 2.36101 0.0512843 -0.442576
8 2.24752 0 0 0.0870418 0.0754453 0.0898679
9 1.11936 0 0 0.0868586 0.0464881 -0.110728
10 3.71348 -0.102641 0.102191 1.49829 0.896637 0.234767
11 1.72615 0 0 0.0263275 -0.0109869 -1.28727
12 1.21113 0 0 -0.000154038 0.000329131 -0.915737
13 3.59919 -1.06012 0.0708885 1.53395 0.161844 -0.0676455
14 1.66069 0 0 -0.00634792 0.131671 -0.637455
15 1.167 0 0 -0.00198889 -0.00149679 -1.02582
16 2.18852 0.50104 0.0576591 1.41514 0.0471916 0.0719911
17 1.29609 0 0 -0.0777688 0.18264 -1.0512
18 1.62202 0.000713348 -0.000471115 0.029409 -0.0272532 -1.25676
19 1.22241 0 0 0.0223413 -0.00802421 -0.76603
20 1.76707 1.27612 0.0366411 1.328 0.225255 0.0733779
21 1.55588 0 0 -0.142939 0.159067 -1.06546
22 1.24273 0 0 -0.000479279 0.000360507 -1.00946
23 0.784523 0 0 0.010164 0.0127499 -0.61013
24 -2.4735 1.96366 -5.48939 -0.143291 0.3441 -1.97314
25 6.02794 0 0 1.15208 -0.0744915 0.738498
26 11.7344 0 0 0.00140258 0 0.955596
27 8.81167 0 0 1.7338 0 0
28 5.77884 0 0 1.16165 0 0
29 2.23249 0 0 0.572154 0 0
30 11.4725 0 0 1.71558 0.235765 -0.498522
31 0.615812 0.994372 -0.809165 2.90228 0.397795 0.455052
32 2.24752 0 0 -0.0977373 -0.0520998 0.0393429
33 1.11936 0 0 -0.110556 0.115636 -0.00773767
34 3.71348 0.10264 0.102191 -1.40911 0.58357 0.0965932
35 1.72615 0 0 -0.0184067 -0.000676665 1.51735
36 1.21112 0 0 0.00667257 0.00800506 -0.321301
37 3.5992 1.06012 0.070888 -1.52636 0.488083 0.139804
38 1.66069 0 0 0.0439293 0.0643109 0.822802
39 1.16699 0 0 0.0275332 0.0334932 0.32572
40 2.18853 -0.50104 0.0576591 -1.56816 0.138147 -0.161716
41 1.29609 0 0 0.0968891 -0.147774 0.669796
42 1.62202 -0.000711441 -0.000470161 -0.0204637 -0.0103197 1.57103
43 1.22241 0 0 0 0.00653308 -0.305208
44 1.76707 -1.27612 0.0366406 -1.36293 0.4626 -0.0448407
45 1.55587 0 0 -0.00955759 -0.0420001 0.976332
46 1.24273 0 0 0.000478955 0.000360649 1.0415
47 0.784533 0 0 -0.0013883 0.00235238 -0.396293
48 0 0 0 0 0 0
49 4.28017 1.89824 -10.1646 -0.829003 -1.33836 0.88651
50 6.45407 -19.5491 -2.40766 -2.85584 -0.924195 2.98236
51 4.43557 2.08874 -9.12609 -0.829003 -1.33836 0.88651
52 6.62167 -19.9611 -1.45972 -0.829 -1.33836 0.886507
53 5.41465 -8.74049 -4.56645 0 0 0
54 0.368112 -3.40674 -0.0340557 -0.172781 0.156263 0.0439462
55 -0.439464 -5.01739 0.910445 0 0 0
56 0 -2.26997 1.22871 0.02068 0 0
57 0 -5.92124 1.78377 0 0 0
58 0 -2.12202 -0.0619292 0.352503 0 0
59 -0.575001 -1.69351 1.13699 0 0 0
60 0 -4.97525 -0.469841 0 0 0
61 0.694226 -1.89081 0.409988 0 0 0
time 19
0 5.11825 10.9692 -3.0277 -0.827033 0.693143 -1.04017
1 6.02794 0 0 0.0495712 -0.0753454 -0.0926415
2 11.7344 0 0 -0.00140276 0 -1.67467
3 8.81138 -0.000448227 -0.000112057 -0.621937 0 0.000157627
4 5.77839 0.000287056 0 -0.416698 0 0.000102976
5 2.23163 -0.000329018 -0.000365257 -0.205239 0 0
6 11.4725 0 0 -0.846821 0.0678721 0.947739
7 0.615217 -0.993091 -0.8107 2.36101 0.0512843 -0.442576
8 2.24752 0 0 0.0870418 0.0754452 0.0898681
9 1.11936 0 0 0.0868585 0.0464883 -0.110728
10 3.71348 -0.102641 0.102191 1.49829 0.896638 0.234767
11 1.72615 0 0 0.0263276 -0.0109868 -1.28727
12 1.21114 0 0 -0.000154038 0.000329098 -0.915737
13 3.59919 -1.06012 0.0708876 1.53395 0.161845 -0.0676455
14 1.66069 0 0 -0.0063479 0.131671 -0.637454
15 1.167 0 0 -0.00198888 -0.00149677 -1.02582
16 2.18852 0.50104 0.0576591 1.41514 0.0471917 0.0719911
17 1.29609 0 0 -0.0777687 0.18264 -1.0512
18 1.62202 0.000713348 -0.000470638 0.029409 -0.0272532 -1.25676
19 1.22241 0 0 0.0223413 -0.00802424 -0.76603
20 1.76707 1.27612 0.0366411 1.328 0.225255 0.0733779
21 1.55588 0 0 -0.142939 0.159067 -1.06546
22 1.24274 0 0 -0.000479224 0.000360469 -1.00946
23 0.784524 0 0 0.010164 0.0127498 -0.61013
24 -2.4735 1.96366 -5.48939 -0.143291 0.3441 -1.97314
25 6.02794 0 0 1.15312 -0.0817494 0.741123
26 11.7344 0 0 0.00140286 0 0.932343
27 8.81167 0 0 1.72988 0 0
28 5.77884 0 0 1.15902 0 0
29 2.23249 0 0 0.57086 0 0
30 11.4725 0 0 1.71274 0.241001 -0.492561
31 0.615816 0.994372 -0.809165 2.90228 0.397795 0.455052
32 2.24752 0 0 -0.0977374 -0.0520996 0.0393427
33 1.11935 0 0 -0.110556 0.115636 -0.00773756
34 3.71349 0.102641 0.102191 -1.40911 0.58357 0.0965933
35 1.72615 0 0 -0.0184067 -0.000676689 1.51735
36 1.21112 0 0 0.00667255 0.00800519 -0.321301
37 3.5992 1.06012 0.0708885 -1.52636 0.488083 0.139803
38 1.66069 0 0 0.0439292 0.0643108 0.822802
39 1.16699 0 0 0.0275332 0.033493 0.32572
40 2.18853 -0.50104 0.0576591 -1.56816 0.138147 -0.161716
41 1.29609 0 0 0.0968892 -0.147774 0.669796
42 1.62202 -0.000713348 -0.000470161 -0.0204638 -0.0103196 1.57103
43 1.22241 0 0 0 0.00653319 -0.305207
44 1.76707 -1.27612 0.0366411 -1.36293 0.4626 -0.0448407
45 1.55588 0 0 -0.00955768 -0.0420003 0.976332
46 1.24273 0 0 0.000479055 0.000360583 1.0415
47 0.784533 0 0 -0.00138841 0.0023523 -0.396294
48 0 0 0 0 0 0
49 4.23696 1.80884 -10.0325 -0.786171 -1.33988 0.84608
50 6.48776 -19.6935 -2.45167 -2.86658 -0.93178 2.99222
51 4.39888 1.99171 -8.9936 -0.786171 -1.33988 0.84608
52 6.66204 -20.1123 -1.50798 -0.786168 -1.33988 0.846077
53 5.41465 -8.74049 -4.56645 0 0 0
54 0.378415 -3.53569 -0.0178232 -0.164863 0.16242 0.0464607
55 -0.439464 -5.01739 0.910445 0 0 0
56 0 -2.26997 1.22871 0.02068 0 0
57 0 -5.92124 1.78377 0 0 0
58 0 -2.12202 -0.0619297 0.352503 0 0
59 -0.575001 -1.69351 1.13699 0 0 0
60 0 -4.97525 -0.469841 0 0 0
61 0.694226 -1.89081 0.409988 0 0 0
end
