//Sequence File generated by the Wall Worm SMD Exporter PRO 1.99
//www.wallworm.com
version 1
nodes
0 "b_l_clav" -1
1 "b_l_upperarm" 0
2 "b_l_forearm" 1
3 "b_l_twist3" 2
4 "b_l_twist2" 2
5 "b_l_twist1" 2
6 "b_l_hand" 2
7 "b_l_thumb001" 6
8 "b_l_thumb002" 7
9 "b_l_thumb003" 8
10 "b_l_middle001" 6
11 "b_l_middle002" 10
12 "b_l_middle003" 11
13 "b_l_index001" 6
14 "b_l_index002" 13
15 "b_l_index003" 14
16 "b_l_hand_ringsqueezer" 6
17 "b_l_ring001" 16
18 "b_l_ring002" 17
19 "b_l_ring003" 18
20 "b_l_hand_pinkysqueezer" 6
21 "b_l_pinky001" 20
22 "b_l_pinky002" 21
23 "b_l_pinky003" 22
24 "b_r_clav" -1
25 "b_r_upperarm" 24
26 "b_r_forearm" 25
27 "b_r_twist3" 26
28 "b_r_twist2" 26
29 "b_r_twist1" 26
30 "b_r_hand" 26
31 "b_r_thumb001" 30
32 "b_r_thumb002" 31
33 "b_r_thumb003" 32
34 "b_r_middle001" 30
35 "b_r_middle002" 34
36 "b_r_middle003" 35
37 "b_r_index001" 30
38 "b_r_index002" 37
39 "b_r_index003" 38
40 "b_r_hand_ringsqueezer" 30
41 "b_r_ring001" 40
42 "b_r_ring002" 41
43 "b_r_ring003" 42
44 "b_r_hand_pinkysqueezer" 30
45 "b_r_pinky001" 44
46 "b_r_pinky002" 45
47 "b_r_pinky003" 46
48 "d_phone" -1
49 "d_menu" 48
50 "d_meme" 48
51 "d_lightup" 48
52 "d_call" 48
53 "d_backgroundstuff" 48
54 "d_7" 48
55 "d_2" 48
56 "d_0b" 48
57 "d_0a" 48
end
skeleton
time 0
0 1.938 -2.84623 -21.6418 0 0 -0.338214
1 6.02795 0 0 -1.46747 -0.548307 -0.0994826
2 11.7344 0 0 -0.00140287 0 -1.68517
3 8.81138 -0.000449181 -0.00011158 -1.12827 0 0.000158301
4 5.77839 0.000285149 0 -0.755941 0 0.000102046
5 2.23164 -0.000328064 -0.000364065 -0.372329 0 0
6 11.4725 0 0 -1.34702 0.1244 1.10258
7 0.615218 -0.993091 -0.810699 2.61026 0.452332 -0.787568
8 2.24752 0 0 0.136888 -0.110104 0.213811
9 1.11936 0 0 -0.0212104 0.0836397 -0.471476
10 3.71348 -0.102641 0.102192 1.55584 0.763632 0.0690664
11 1.72615 0 0 0.00741432 -0.00946431 -0.776187
12 1.21114 0 0 -0.000459996 0.0176302 -0.623545
13 3.59919 -1.06012 0.0708885 1.55742 0.583032 -0.0701082
14 1.66069 0 0 -0.0175585 0.0481343 -0.572574
15 1.167 0 0 0.000419662 -0.00703704 -0.659768
16 2.18852 0.501039 0.0576591 1.57004 0.0300833 0.225876
17 1.29609 0 0 0.0209816 -0.0418739 -0.65344
18 1.62202 0.000715256 -0.000470161 0.0148739 -0.0304652 -0.808982
19 1.22241 0 0 0.0155149 0.00238543 -0.758389
20 1.76707 1.27612 0.0366402 1.57004 0.0188432 0.261428
21 1.55588 0 0 -0.02722 0.0179407 -0.693615
22 1.24274 0 0 -0.000599373 0 -0.652744
23 0.784523 0 0 0.00767508 -0.00183523 -0.500732
24 6.44266 2.6881 -16.1261 -0.000932534 0 3.14159
25 6.02794 0 0 0.591235 -0.184177 1.06633
26 11.7344 0 0 0.00140271 0 0.890078
27 8.81167 0 0 -0.142117 0 0
28 5.77884 0 0 -0.0952186 0 0
29 2.23249 0 0 -0.0468987 0 0
30 11.4725 0 0 -0.136299 0.110058 0.0475659
31 0.615813 0.994371 -0.809165 -2.8682 0.412403 0.39904
32 2.24752 0 0 -0.0885408 0.0236112 0.107243
33 1.11936 0 0 -0.0432662 0.191308 0.203519
34 3.71348 0.102638 0.10219 -1.55972 0.224493 -0.0769418
35 1.72615 0 0 -0.00549874 -0.0279928 0.305732
36 1.21112 0 0 -0.00572196 0.0166821 0.267014
37 3.5992 1.06012 0.0708876 -1.55922 0.268145 0.0658116
38 1.66069 0 0 0.00256116 0.0732788 0.257872
39 1.16699 0 0 0.0229141 0.0311174 0.226051
40 2.18853 -0.50104 0.0576591 -1.57004 -0.0521617 -0.225938
41 1.29609 0 0 -0.00553046 -0.0465063 0.307161
42 1.62202 -0.000712395 -0.000470161 0.00688916 -0.0394966 0.260395
43 1.2224 0 0 -0.0134068 -0.0136763 0.260497
44 1.76707 -1.27612 0.0366402 -1.57004 -0.0293956 -0.261465
45 1.55587 0 0 0.0179515 0.0272136 0.28866
46 1.24273 0 0 0.000556889 0.000221629 0.300974
47 0.784531 0 0 -0.0142415 0.00794002 0.220975
48 9.4925 -7.2525 -2.07235 -3.01937 -0.933095 -2.00129
49 -3.3008 1.98092 -0.0178614 -1.61333 0 0
50 0.00576699 1.98489 -0.0178738 -1.61332 0 0
51 0.00575674 2.07248 -0.0285535 -1.61332 0 0
52 -3.46178 2.07651 -0.0257425 -1.61332 0 0
53 -3.15015 2.07651 -0.0257416 -1.61332 0 0
54 -1.68436 2.09113 -0.0263634 -1.61332 0 0
55 -1.61192 2.09074 -0.0355635 -1.61332 0 0
56 -1.74901 2.09114 -0.0263643 -1.61332 0 0
57 -1.65881 2.09113 -0.0263643 -1.61333 0 0
time 1
0 1.938 -2.84623 -20.3062 0 0 -0.338214
1 6.02795 0 0 -1.5207 -0.535059 -0.0524922
2 11.7344 0 0 -0.00140288 0 -1.71932
3 8.81138 -0.000448704 -0.000112295 -1.15699 0 0.000158045
4 5.77839 0.000287533 0 -0.775186 0 0.000101691
5 2.23163 -0.000328064 -0.000364542 -0.381808 0 0
6 11.4725 0 0 -1.34441 0.102861 1.04582
7 0.615219 -0.993092 -0.810701 2.61026 0.452333 -0.787568
8 2.24752 0 0 0.136888 -0.110104 0.213811
9 1.11936 0 0 -0.0212105 0.0836398 -0.471476
10 3.71348 -0.102642 0.102191 1.55584 0.763632 0.0690666
11 1.72615 0 0 0.00741448 -0.00946438 -0.776187
12 1.21114 0 0 -0.000460106 0.0176302 -0.623545
13 3.59919 -1.06012 0.0708876 1.55742 0.583032 -0.0701078
14 1.66069 0 0 -0.0175588 0.0481344 -0.572574
15 1.167 0 0 0.000419649 -0.007037 -0.659767
16 2.18852 0.501039 0.0576591 1.57004 0.0300833 0.225876
17 1.29609 0 0 0.0209816 -0.0418739 -0.653439
18 1.62202 0.000715256 -0.000470638 0.0148739 -0.0304652 -0.808982
19 1.22241 0 0 0.015515 0.00238549 -0.758389
20 1.76707 1.27612 0.0366402 1.57004 0.0188431 0.261428
21 1.55588 0 0 -0.0272201 0.0179407 -0.693615
22 1.24273 0 0 -0.000599486 0 -0.652744
23 0.784524 0 0 0.00767519 -0.00183517 -0.500732
24 6.27386 2.6881 -16.1261 -0.000932534 0 3.14159
25 6.02794 0 0 0.585137 -0.190596 1.0853
26 11.7344 0 0 0.00140271 0 0.86557
27 8.81167 0 0 -0.147068 0 0
28 5.77884 0 0 -0.0985355 0 0
29 2.23249 0 0 -0.0485324 0 0
30 11.4725 0 0 -0.141931 0.1104 0.0405076
31 0.615813 0.994372 -0.809164 -2.83377 0.399404 0.417595
32 2.24752 0 0 -0.0888655 0.0223551 0.0931151
33 1.11936 0 0 -0.0472863 0.191776 0.181324
34 3.71349 0.102639 0.102192 -1.55904 0.200538 -0.0735166
35 1.72615 0 0 -0.00500933 -0.0281741 0.283925
36 1.21112 0 0 -0.00608426 0.0165537 0.245212
37 3.5992 1.06012 0.0708885 -1.55929 0.244523 0.0655297
38 1.66069 0 0 0.00117062 0.0738267 0.236023
39 1.16699 0 0 0.0229478 0.0322737 0.20431
40 2.18853 -0.501039 0.0576591 -1.57032 -0.0527999 -0.220515
41 1.29609 0 0 -0.00445513 -0.0466215 0.284058
42 1.62201 -0.000712395 -0.000470161 0.00762237 -0.0394885 0.23858
43 1.2224 0 0 -0.0134497 -0.0142981 0.238711
44 1.76707 -1.27612 0.0366421 -1.57037 -0.030037 -0.25061
45 1.55587 0 0 0.0173539 0.0275982 0.266856
46 1.24273 0 0 0.000552049 0.0002338 0.279174
47 0.784531 0 0 -0.0143682 0.00775788 0.199176
48 9.4925 -6.1555 -1.01343 -2.87462 -0.988905 -2.0958
49 -3.3008 1.98092 -0.0178618 -1.61333 0 0
50 0.00576681 1.98489 -0.017874 -1.61332 0 0
51 0.00575656 2.07248 -0.0285535 -1.61332 0 0
52 -3.46178 2.07651 -0.0257428 -1.61332 0 0
53 -3.15015 2.07651 -0.0257418 -1.61333 0 0
54 -1.68436 2.09113 -0.0263634 -1.61332 0 0
55 -1.61192 2.09074 -0.035563 -1.61332 0 0
56 -1.74901 2.09114 -0.0263638 -1.61332 0 0
57 -1.65881 2.09113 -0.0263636 -1.61333 0 0
time 2
0 1.938 -2.84623 -17.0489 0 0 -0.338214
1 6.02795 0 0 -1.6476 -0.51806 0.0761325
2 11.7344 0 0 -0.00140285 0 -1.77835
3 8.81138 -0.000451088 -0.000112295 -1.2065 0 0.000157718
4 5.77839 0.000286102 0 -0.808353 0 0.000101346
5 2.23163 -0.000329494 -0.000364065 -0.398144 0 0
6 11.4725 0 0 -1.35456 0.0365369 0.965427
7 0.615219 -0.993091 -0.8107 2.61026 0.452332 -0.787568
8 2.24752 0 0 0.136888 -0.110104 0.213811
9 1.11936 0 0 -0.0212104 0.0836397 -0.471476
10 3.71348 -0.102641 0.102191 1.55584 0.763632 0.0690667
11 1.72615 0 0 0.00741444 -0.00946444 -0.776187
12 1.21114 0 0 -0.000459993 0.0176302 -0.623545
13 3.59919 -1.06012 0.0708876 1.55742 0.583032 -0.0701078
14 1.66069 0 0 -0.0175587 0.0481343 -0.572574
15 1.167 0 0 0.000419635 -0.00703696 -0.659767
16 2.18852 0.501039 0.0576582 1.57004 0.0300833 0.225876
17 1.29609 0 0 0.0209818 -0.0418739 -0.653439
18 1.62202 0.000714302 -0.000470877 0.014874 -0.0304653 -0.808982
19 1.22241 0 0 0.0155148 0.00238533 -0.758389
20 1.76707 1.27612 0.0366402 1.57004 0.018843 0.261428
21 1.55588 0 0 -0.0272201 0.0179406 -0.693615
22 1.24273 0 0 -0.000599373 0 -0.652744
23 0.784523 0 0 0.00767525 -0.00183518 -0.500732
24 5.81569 2.6881 -16.1261 -0.000932534 0 3.14159
25 6.02794 0 0 0.568945 -0.207497 1.13667
26 11.7344 0 0 0.00140266 0 0.798914
27 8.81167 0 0 -0.159673 0 0
28 5.77884 0 0 -0.106981 0 0
29 2.23249 0 0 -0.0526922 0 0
30 11.4725 0 0 -0.156285 0.109933 0.0232067
31 0.615813 0.994371 -0.809166 -2.74681 0.365532 0.464203
32 2.24752 0 0 -0.0895768 0.0193006 0.058967
33 1.11936 0 0 -0.0572988 0.192368 0.126448
34 3.71349 0.102639 0.102191 -1.55805 0.141895 -0.0649031
35 1.72615 0 0 -0.00375705 -0.0285464 0.230024
36 1.21112 0 0 -0.0069671 0.0162019 0.191323
37 3.5992 1.06012 0.0708885 -1.55943 0.186631 0.0648521
38 1.66069 0 0 -0.00234776 0.0749851 0.182009
39 1.16699 0 0 0.0228144 0.0350844 0.150557
40 2.18853 -0.50104 0.0576591 -1.57109 -0.0541976 -0.206483
41 1.29609 0 0 -0.0018041 -0.0467991 0.227302
42 1.62202 -0.000713348 -0.000469685 0.00945273 -0.0393467 0.184657
43 1.22241 0 0 -0.0134572 -0.0158128 0.18486
44 1.76707 -1.27612 0.0366411 -1.57127 -0.0314326 -0.222596
45 1.55587 0 0 0.0158421 0.0284928 0.21296
46 1.24273 0 0 0.000538652 0.000263163 0.225292
47 0.784533 0 0 -0.0146635 0.00725687 0.145297
48 9.4925 -3.53962 1.55274 -2.52947 -1.12199 -2.32116
49 -3.3008 1.98092 -0.0178614 -1.61333 0 0
50 0.00576669 1.98489 -0.0178738 -1.61332 0 0
51 0.00575638 2.07248 -0.0285536 -1.61332 0 0
52 -3.46178 2.07651 -0.0257427 -1.61332 0 0
53 -3.15015 2.07651 -0.0257416 -1.61332 0 0
54 -1.68436 2.09113 -0.0263638 -1.61332 0 0
55 -1.61192 2.09074 -0.0355631 -1.61332 0 0
56 -1.74901 2.09114 -0.026364 -1.61332 0 0
57 -1.65881 2.09114 -0.0263638 -1.61333 0 0
time 3
0 1.938 -2.84623 -12.9945 0 0 -0.338214
1 6.02795 0 0 -1.81184 -0.500335 0.285165
2 11.7344 0 0 -0.0014029 0 -1.81625
3 8.81138 -0.000449181 -0.000112295 -1.24631 0 0.00015782
4 5.77839 0.000285149 0 -0.83503 0 0.000101273
5 2.23164 -0.000329018 -0.000364542 -0.411284 0 0
6 11.4725 0 0 -1.38548 -0.0272631 0.974832
7 0.615219 -0.993091 -0.8107 2.61026 0.452332 -0.787568
8 2.24752 0 0 0.136888 -0.110104 0.213811
9 1.11936 0 0 -0.0212103 0.0836398 -0.471476
10 3.71348 -0.102641 0.102192 1.55584 0.763632 0.0690665
11 1.72615 0 0 0.00741421 -0.00946434 -0.776187
12 1.21114 0 0 -0.000459886 0.0176303 -0.623545
13 3.59919 -1.06012 0.0708876 1.55742 0.583032 -0.070108
14 1.66069 0 0 -0.0175587 0.0481343 -0.572574
15 1.167 0 0 0.000419654 -0.00703702 -0.659767
16 2.18852 0.501039 0.0576591 1.57004 0.0300834 0.225876
17 1.29609 0 0 0.0209816 -0.0418739 -0.65344
18 1.62202 0.000714302 -0.000470877 0.0148741 -0.0304652 -0.808982
19 1.22241 0 0 0.0155149 0.00238543 -0.758389
20 1.76707 1.27612 0.0366411 1.57004 0.0188432 0.261428
21 1.55588 0 0 -0.0272201 0.0179405 -0.693615
22 1.24274 0 0 -0.000599505 0 -0.652744
23 0.784523 0 0 0.00767539 -0.00183522 -0.500732
24 5.14048 2.6881 -16.1261 -0.000932534 0 3.14159
25 6.02794 0 0 0.545814 -0.230775 1.21183
26 11.7344 0 0 0.00140271 0 0.701322
27 8.81167 0 0 -0.176404 0 0
28 5.77884 0 0 -0.118191 0 0
29 2.23249 0 0 -0.0582134 0 0
30 11.4725 0 0 -0.175309 0.106312 0.00117342
31 0.615813 0.994372 -0.809164 -2.63189 0.318543 0.525339
32 2.24752 0 0 -0.0903051 0.0155291 0.0171472
33 1.11936 0 0 -0.0702028 0.19194 0.0564881
34 3.71349 0.102638 0.102192 -1.55824 0.0684121 -0.0534629
35 1.72615 0 0 -0.00207305 -0.0288605 0.161308
36 1.21112 0 0 -0.00806281 0.0156854 0.122627
37 3.5992 1.06012 0.0708885 -1.55956 0.113932 0.0640214
38 1.66069 0 0 -0.00699815 0.0760518 0.113137
39 1.16699 0 0 0.0221799 0.0385698 0.0819955
40 2.18853 -0.50104 0.0576591 -1.57219 -0.0555775 -0.187201
41 1.29609 0 0 0.00154632 -0.0468081 0.155721
42 1.62202 -0.000713348 -0.000469685 0.01182 -0.0389114 0.115918
43 1.22241 0 0 -0.0132553 -0.0176974 0.116203
44 1.76707 -1.27612 0.0366421 -1.57258 -0.0327841 -0.184248
45 1.55587 0 0 0.0138488 0.0295128 0.144248
46 1.24273 0 0 0.000519341 0.000299385 0.156602
47 0.784534 0 0 -0.0150033 0.00651133 0.0766108
48 9.4925 -0.417452 4.71029 -2.11751 -1.28083 -2.59013
49 -3.3008 1.98092 -0.0178614 -1.61333 0 0
50 0.00576687 1.98489 -0.0178736 -1.61332 0 0
51 0.00575662 2.07248 -0.0285534 -1.61332 0 0
52 -3.46178 2.07651 -0.0257426 -1.61332 0 0
53 -3.15015 2.07651 -0.0257416 -1.61333 0 0
54 -1.68436 2.09113 -0.0263635 -1.61332 0 0
55 -1.61192 2.09074 -0.0355631 -1.61332 0 0
56 -1.74901 2.09114 -0.0263639 -1.61332 0 0
57 -1.65881 2.09114 -0.0263637 -1.61333 0 0
time 4
0 1.938 -2.84623 -9.26717 0 0 -0.338214
1 6.02795 0 0 -1.95733 -0.445619 0.519294
2 11.7344 0 0 -0.00140292 0 -1.82899
3 8.81138 -0.000451088 -0.000112057 -1.28653 0 0.000157561
4 5.77839 0.000284195 0 -0.861978 0 0.000101103
5 2.23164 -0.000330925 -0.000364304 -0.424556 0 0
6 11.4725 0 0 -1.42504 -0.0118916 1.04268
7 0.615219 -0.993091 -0.810701 2.61026 0.452332 -0.787569
8 2.24752 0 0 0.136888 -0.110104 0.213811
9 1.11936 0 0 -0.0212102 0.0836398 -0.471476
10 3.71348 -0.102641 0.102191 1.55584 0.763632 0.0690668
11 1.72615 0 0 0.00741448 -0.00946438 -0.776187
12 1.21114 0 0 -0.000460162 0.0176302 -0.623545
13 3.59919 -1.06012 0.0708885 1.55742 0.583032 -0.0701078
14 1.66069 0 0 -0.0175589 0.0481345 -0.572574
15 1.167 0 0 0.000419901 -0.007037 -0.659768
16 2.18852 0.501039 0.0576591 1.57004 0.0300834 0.225876
17 1.29609 0 0 0.0209816 -0.0418739 -0.65344
18 1.62202 0.000712395 -0.000471115 0.014874 -0.0304653 -0.808982
19 1.22241 0 0 0.0155149 0.0023854 -0.758389
20 1.76707 1.27612 0.0366411 1.57004 0.0188431 0.261428
21 1.55588 0 0 -0.0272201 0.0179406 -0.693615
22 1.24274 0 0 -0.000599429 0 -0.652744
23 0.784523 0 0 0.00767531 -0.00183517 -0.500732
24 4.32059 2.6881 -16.1261 -0.000932534 0 3.14159
25 6.02794 0 0 0.518462 -0.257083 1.30308
26 11.7344 0 0 0.00140275 0 0.582408
27 8.81167 0 0 -0.19456 0 0
28 5.77884 0 0 -0.130355 0 0
29 2.23249 0 0 -0.0642047 0 0
30 11.4725 0 0 -0.195483 0.0974359 -0.0190874
31 0.615812 0.994372 -0.809165 -2.5118 0.266989 0.588736
32 2.24752 0 0 -0.0908193 0.0121557 -0.02
33 1.11936 0 0 -0.0830443 0.190027 -0.0109164
34 3.71349 0.102639 0.102191 -1.55999 0 -0.0413274
35 1.72615 0 0 -0.000306264 -0.0289594 0.0950582
36 1.21112 0 0 -0.00908318 0.0151174 0.0563978
37 3.5992 1.06012 0.0708866 -1.55962 0.0458891 0.0632565
38 1.66069 0 0 -0.0117759 0.0765815 0.0467257
39 1.16699 0 0 0.0207958 0.0418815 0.0158443
40 2.18853 -0.50104 0.0576582 -1.5734 -0.0561693 -0.166029
41 1.29609 0 0 0.0047023 -0.0465972 0.0881456
42 1.62202 -0.000713348 -0.000470638 0.014188 -0.0381519 0.0496509
43 1.22241 0 0 -0.0127213 -0.0194878 0.0500009
44 1.76707 -1.27612 0.0366402 -1.57402 -0.0333112 -0.142396
45 1.55588 0 0 0.0118649 0.0303644 0.0780006
46 1.24273 0 0 0.000498331 0.000333251 0.0903787
47 0.784533 0 0 -0.0153114 0.00562048 0.0103933
48 9.4925 2.19843 7.5434 -1.77236 -1.41392 -2.81549
49 -3.3008 1.98092 -0.0178612 -1.61333 0 0
50 0.00576687 1.98489 -0.0178733 -1.61332 0 0
51 0.00575686 2.07248 -0.0285534 -1.61332 0 0
52 -3.46178 2.07651 -0.0257422 -1.61332 0 0
53 -3.15015 2.07651 -0.0257415 -1.61332 0 0
54 -1.68436 2.09113 -0.0263631 -1.61332 0 0
55 -1.61192 2.09074 -0.0355629 -1.61332 0 0
56 -1.74901 2.09114 -0.0263637 -1.61332 0 0
57 -1.65881 2.09114 -0.0263634 -1.61333 0 0
time 5
0 1.938 -2.84623 -6.99149 0 0 -0.338214
1 6.02795 0 0 -2.01386 -0.381543 0.637532
2 11.7344 0 0 -0.00140301 0 -1.85272
3 8.81138 -0.000450134 -0.000111818 -1.33287 0 0.000157897
4 5.77839 0.000285149 0 -0.893026 0 0.000101109
5 2.23163 -0.000328064 -0.000364065 -0.439848 0 0
6 11.4725 0 0 -1.45609 0.0333198 1.07986
7 0.615219 -0.993091 -0.810699 2.61026 0.452332 -0.787568
8 2.24752 0 0 0.136888 -0.110104 0.213811
9 1.11936 0 0 -0.0212104 0.0836395 -0.471476
10 3.71348 -0.102641 0.102191 1.55584 0.763632 0.0690662
11 1.72615 0 0 0.0074144 -0.00946433 -0.776187
12 1.21114 0 0 -0.000459934 0.0176302 -0.623545
13 3.59919 -1.06012 0.0708876 1.55742 0.583032 -0.0701079
14 1.66069 0 0 -0.0175587 0.0481344 -0.572574
15 1.167 0 0 0.000419669 -0.00703706 -0.659768
16 2.18852 0.501039 0.0576582 1.57004 0.0300833 0.225876
17 1.29609 0 0 0.0209817 -0.041874 -0.65344
18 1.62202 0.000714302 -0.000470757 0.014874 -0.0304652 -0.808982
19 1.22241 0 0 0.0155149 0.00238541 -0.758389
20 1.76707 1.27612 0.0366402 1.57004 0.0188431 0.261428
21 1.55588 0 0 -0.0272201 0.0179406 -0.693615
22 1.24273 0 0 -0.00059943 0 -0.652744
23 0.784523 0 0 0.00767514 -0.0018352 -0.500732
24 3.42835 2.6881 -16.1261 -0.000932534 0 3.14159
25 6.02794 0 0 0.490672 -0.281151 1.39772
26 11.7344 0 0 0.00140274 0 0.463594
27 8.81167 0 0 -0.212141 0 0
28 5.77884 0 0 -0.142135 0 0
29 2.23249 0 0 -0.0700067 0 0
30 11.4725 0 0 -0.214492 0.081698 -0.0371124
31 0.615813 0.994372 -0.809164 -2.40653 0.220325 0.643667
32 2.24752 0 0 -0.0910456 0.0103196 -0.0401364
33 1.11936 0 0 -0.0932076 0.187016 -0.0581427
34 3.71349 0.102639 0.10219 -1.56212 -0.0436253 -0.0306796
35 1.72615 0 0 0.00119017 -0.0288113 0.0485558
36 1.21112 0 0 -0.00977582 0.0146791 0.00991299
37 3.5992 1.06012 0.0708885 -1.55963 0.00196391 0.0627657
38 1.66069 0 0 -0.0157171 0.0764661 0.000104354
39 1.16699 0 0 0.0185022 0.0443597 -0.0306612
40 2.18853 -0.50104 0.0576591 -1.57444 -0.0552213 -0.146335
41 1.29609 0 0 0.00678093 -0.0463405 0.0434061
42 1.62202 -0.000713348 -0.000469685 0.0160771 -0.037203 0.00314363
43 1.2224 0 0 -0.011788 -0.0208078 0.00352074
44 1.76707 -1.27612 0.0366421 -1.57516 -0.0322847 -0.103875
45 1.55587 0 0 0.0104411 0.030883 0.0314999
46 1.24273 0 0 0.000482205 0.000356072 0.0438971
47 0.784534 0 0 -0.0155771 0.00470887 -0.0360822
48 9.4925 3.29542 9.13622 -1.62762 -1.46973 -2.90999
49 -3.3008 1.98092 -0.0178617 -1.61333 0 0
50 0.00576687 1.98489 -0.0178738 -1.61332 0 0
51 0.00575638 2.07248 -0.0285537 -1.61332 0 0
52 -3.46178 2.07651 -0.0257428 -1.61332 0 0
53 -3.15015 2.07651 -0.0257417 -1.61332 0 0
54 -1.68436 2.09113 -0.0263637 -1.61332 0 0
55 -1.61192 2.09074 -0.0355632 -1.61332 0 0
56 -1.74901 2.09114 -0.0263641 -1.61332 0 0
57 -1.65881 2.09114 -0.0263641 -1.61333 0 0
time 6
0 1.938 -2.84623 -6.08571 0 0 -0.338214
1 6.02795 0 0 -1.51256 -0.43314 -0.0861825
2 11.7344 0 0 -0.00140282 0 -2.00863
3 8.81138 -0.000450134 -0.000112414 -0.649476 0 0.000157772
4 5.77839 0.000287056 0 -0.435149 0 0.000103006
5 2.23163 -0.000328064 -0.00036335 -0.214327 0 0
6 11.4725 0 0 -1.06798 -0.460306 0.959311
7 0.615219 -0.993092 -0.8107 2.61026 0.452332 -0.787569
8 2.24752 0 0 0.136888 -0.110104 0.213811
9 1.11936 0 0 -0.0212105 0.0836395 -0.471476
10 3.71348 -0.102641 0.102191 1.55584 0.763632 0.0690666
11 1.72615 0 0 0.00741448 -0.00946439 -0.776187
12 1.21114 0 0 -0.000460092 0.0176301 -0.623545
13 3.59919 -1.06012 0.0708876 1.55742 0.583032 -0.0701079
14 1.66069 0 0 -0.0175587 0.0481344 -0.572574
15 1.167 0 0 0.000419663 -0.00703705 -0.659767
16 2.18852 0.501039 0.0576587 1.57004 0.0300833 0.225876
17 1.29609 0 0 0.0209816 -0.041874 -0.65344
18 1.62202 0.000714302 -0.000470161 0.0148739 -0.0304652 -0.808982
19 1.22241 0 0 0.015515 0.00238549 -0.758389
20 1.76707 1.27612 0.0366411 1.57004 0.0188431 0.261428
21 1.55588 0 0 -0.0272202 0.0179406 -0.693614
22 1.24274 0 0 -0.000599212 0 -0.652744
23 0.784524 0 0 0.00767508 -0.00183522 -0.500732
24 2.53611 2.6881 -16.1261 -0.000932534 0 3.14159
25 6.02794 0 0 0.470067 -0.293035 1.47041
26 11.7344 0 0 0.00140266 0 0.393776
27 8.81167 0 0 -0.227683 0 0
28 5.77884 0 0 -0.152547 0 0
29 2.23249 0 0 -0.0751353 0 0
30 11.4725 0 0 -0.231476 0.0579343 -0.0667765
31 0.615813 0.994372 -0.809166 -2.33375 0.188502 0.680307
32 2.24752 0 0 -0.0909466 0.0111604 -0.0309224
33 1.11936 0 0 -0.0983525 0.183736 -0.0676375
34 3.71349 0.102639 0.10219 -1.56235 -0.0425719 -0.0239383
35 1.72615 0 0 0.00207063 -0.0284525 0.0390827
36 1.21112 0 0 -0.00991416 0.014586 0.000446781
37 3.5992 1.06012 0.0708866 -1.55963 0.00161937 0.0627618
38 1.66069 0 0 -0.0179103 0.0757809 -0.009401
39 1.16699 0 0 0.0151705 0.0454569 -0.0402753
40 2.18853 -0.50104 0.0576582 -1.57496 -0.0520011 -0.131485
41 1.29609 0 0 0.00692339 -0.0463195 0.0403296
42 1.62202 -0.000713348 -0.000470161 0.0170533 -0.0362869 -0.00632027
43 1.2224 0 0 -0.0104111 -0.0213341 -0.00596819
44 1.76707 -1.27612 0.0366402 -1.57549 -0.0290283 -0.0755223
45 1.55587 0 0 0.0101482 0.0309805 0.0220301
46 1.24273 0 0 0.000478915 0.000360643 0.0344316
47 0.784529 0 0 -0.0158299 0.00390858 -0.0455418
48 7.91448 -3.95999 9.91818 -1.72547 -1.34402 -2.82606
49 -3.3008 1.98092 -0.0178618 -1.61333 0 0
50 0.00576687 1.98489 -0.0178742 -1.61332 0 0
51 0.00575638 2.07249 -0.0285535 -1.61332 0 0
52 -3.46178 2.07651 -0.025743 -1.61332 0 0
53 -3.15015 2.07651 -0.0257416 -1.61333 0 0
54 -1.68436 2.09113 -0.0263638 -1.61332 0 0
55 -1.61192 2.09074 -0.035563 -1.61332 0 0
56 -1.74901 2.09114 -0.0263643 -1.61332 0 0
57 -1.65881 2.09114 -0.0263643 -1.61333 0 0
time 7
0 1.938 -2.84623 -5.62058 0 0 -0.338214
1 6.02795 0 0 -1.05982 -0.136526 -0.731317
2 11.7344 0 0 -0.00140286 0 -1.57195
3 8.81138 -0.000450134 -0.000111699 -0.474366 0 0.000157789
4 5.77839 0.00028801 0 -0.317825 0 0.000103748
5 2.23163 -0.000328064 -0.000363946 -0.156541 0 0
6 11.4725 0 0 -0.422909 -0.559674 0.0279461
7 0.615219 -0.99309 -0.8107 2.57277 0.406461 -0.774287
8 2.24752 0 0 0.133225 -0.0819074 0.206512
9 1.11936 0 0 -0.00710007 0.0797744 -0.452705
10 3.71348 -0.102638 0.10219 1.55735 0.637751 0.0714034
11 1.72615 0 0 0.00630765 -0.013367 -0.661064
12 1.21114 0 0 0.00125574 0.0175914 -0.526183
13 3.59919 -1.06012 0.0708876 1.55813 0.492188 -0.0687311
14 1.66069 0 0 -0.0122416 0.0541587 -0.481817
15 1.167 0 0 -0.00306167 0.00228072 -0.550537
16 2.18852 0.50104 0.0576587 1.57004 0.0172326 0.225886
17 1.29609 0 0 0.0168825 -0.0436871 -0.557665
18 1.62202 0.000713348 -0.000469208 0.00999391 -0.0330987 -0.681628
19 1.22241 0 0 0.0154372 -0.0018637 -0.638989
20 1.76707 1.27612 0.0366402 1.57004 0.0113059 0.261434
21 1.55588 0 0 -0.025192 0.0206924 -0.588711
22 1.24273 0 0 -0.000595214 0 -0.556133
23 0.784523 0 0 0.00921622 -0.000763717 -0.415383
24 1.71622 2.6881 -16.1261 -0.000932534 0 3.14159
25 6.02794 0 0 0.480102 -0.260272 1.44088
26 11.7344 0 0 0.0014027 0 0.52429
27 8.81167 0 0 -0.244779 0 0
28 5.77884 0 0 -0.164002 0 0
29 2.23249 0 0 -0.0807771 0 0
30 11.4725 0 0 -0.254214 0.0333212 -0.180291
31 0.615812 0.994372 -0.809164 -2.29307 0.173881 0.69752
32 2.24752 0 0 -0.0902059 0.0160964 0.0234161
33 1.11936 0 0 -0.0970851 0.179704 -0.0229505
34 3.71348 0.102639 0.102192 -1.55855 0.0247842 -0.0217893
35 1.72615 0 0 0.00219303 -0.0277522 0.0828618
36 1.21112 0 0 -0.00926659 0.0150059 0.0442202
37 3.5992 1.06012 0.0708885 -1.55961 0.0658316 0.0634799
38 1.66069 0 0 -0.0179128 0.0742222 0.0344625
39 1.16699 0 0 0.00974101 0.0447518 0.00314676
40 2.18853 -0.50104 0.0576591 -1.57475 -0.0448794 -0.121233
41 1.29609 0 0 0.00422017 -0.0466434 0.0984915
42 1.62202 -0.000712395 -0.000470638 0.0168648 -0.0353028 0.037486
43 1.2224 0 0 -0.00814971 -0.0207997 0.0377401
44 1.76707 -1.27612 0.0366421 -1.57458 -0.0219704 -0.0573057
45 1.55588 0 0 0.0114944 0.0305068 0.065819
46 1.24273 0 0 0.000494293 0.00033928 0.0782022
47 0.784533 0 0 -0.0161258 0.00313908 -0.00176532
48 5.5499 -15.0971 9.58113 -1.97554 -1.02276 -2.61157
49 -3.3008 1.98092 -0.0178614 -1.61333 0 0
50 0.00576687 1.98489 -0.0178728 -1.61332 0 0
51 0.00575638 2.07248 -0.028553 -1.61332 0 0
52 -3.46178 2.07651 -0.0257416 -1.61332 0 0
53 -3.15015 2.07651 -0.0257406 -1.61332 0 0
54 -1.68436 2.09113 -0.0263624 -1.61332 0 0
55 -1.61192 2.09074 -0.0355625 -1.61332 0 0
56 -1.74901 2.09114 -0.0263634 -1.61332 0 0
57 -1.65881 2.09113 -0.0263634 -1.61333 0 0
time 8
0 1.938 -2.84623 -5.44922 0 0 -0.338214
1 6.02795 0 0 -0.95852 -0.0245013 -0.904346
2 11.7344 0 0 -0.00140277 0 -1.18175
3 8.81138 -0.000450134 -0.000112176 -0.387072 0 0.000157675
4 5.77839 0.00028801 0 -0.259338 0 0.000104105
5 2.23163 -0.000329971 -0.000362992 -0.127734 0 0
6 11.4725 0 0 -0.345468 -0.300282 -0.106718
7 0.61522 -0.993092 -0.8107 2.48355 0.304592 -0.748191
8 2.24752 0 0 0.125464 -0.0198827 0.190274
9 1.11936 0 0 0.0238642 0.0711906 -0.411443
10 3.71348 -0.102642 0.102191 1.55925 0.360804 0.0753324
11 1.72615 0 0 0.00323203 -0.0207902 -0.407725
12 1.21114 0 0 0.00496637 0.0169227 -0.311988
13 3.59919 -1.06012 0.070888 1.55914 0.292328 -0.0661044
14 1.66069 0 0 0 0.0652163 -0.281893
15 1.167 0 0 -0.00918774 0.0214827 -0.310055
16 2.18853 0.501038 0.0576587 1.57004 -0.0110389 0.225907
17 1.29609 0 0 0.00737343 -0.0462501 -0.346916
18 1.62202 0.000714302 -0.000469208 -0.00119216 -0.0366571 -0.401377
19 1.22241 0 0 0.0142344 -0.0106222 -0.376274
20 1.76707 1.27612 0.0366406 1.57004 -0.005276 0.261446
21 1.55588 0 0 -0.0197902 0.0259066 -0.357878
22 1.24274 0 0 -0.000566223 0.000197625 -0.343588
23 0.784522 0 0 0.0122783 0.00133448 -0.227605
24 1.04101 2.6881 -16.1261 -0.000932534 0 3.14159
25 6.02794 0 0 0.50822 -0.193221 1.33102
26 11.7344 0 0 0.00140269 0 0.796683
27 8.81167 0 0 -0.266352 0 0
28 5.77884 0 0 -0.178456 0 0
29 2.23249 0 0 -0.0878961 0 0
30 11.4725 0 0 -0.287986 0.0156646 -0.350759
31 0.615811 0.994372 -0.809164 -2.27043 0.170661 0.702386
32 2.24752 0 0 -0.0881697 0.0249645 0.122523
33 1.11936 0 0 -0.0899914 0.173162 0.0719129
34 3.71349 0.102639 0.102192 -1.55122 0.155854 -0.0221976
35 1.72615 0 0 0.00173123 -0.0264804 0.176102
36 1.21112 0 0 -0.00782936 0.0158032 0.13745
37 3.5992 1.06012 0.0708885 -1.55942 0.191838 0.0649125
38 1.66069 0 0 -0.016092 0.071214 0.127868
39 1.16699 0 0 0.00163987 0.0422143 0.0957892
40 2.18853 -0.50104 0.0576591 -1.57383 -0.0335059 -0.112944
41 1.29609 0 0 -0.00122025 -0.0468178 0.214823
42 1.62201 -0.000714302 -0.000469685 0.0156247 -0.0338606 0.13077
43 1.22241 0 0 -0.00473949 -0.019201 0.130854
44 1.76707 -1.27612 0.0366411 -1.57241 -0.0107753 -0.0441315
45 1.55587 0 0 0.0142848 0.0293044 0.159076
46 1.24273 0 0 0.000523679 0.000291815 0.171425
47 0.784534 0 0 -0.016403 0.00223646 0.0914624
48 4.17586 -22.1439 7.11393 -2.3126 -0.589752 -2.32248
49 -3.3008 1.98092 -0.0178623 -1.61333 0 0
50 0.00576687 1.98489 -0.0178757 -1.61332 0 0
51 0.00575542 2.07248 -0.0285549 -1.61332 0 0
52 -3.46178 2.07651 -0.0257435 -1.61332 0 0
53 -3.15016 2.07651 -0.0257435 -1.61333 0 0
54 -1.68436 2.09113 -0.0263653 -1.61332 0 0
55 -1.61192 2.09074 -0.0355644 -1.61332 0 0
56 -1.74901 2.09114 -0.0263653 -1.61332 0 0
57 -1.65881 2.09114 -0.0263643 -1.61333 0 0
time 9
0 1.938 -2.84623 -5.42474 0 0 -0.338214
1 6.02795 0 0 -0.888776 0.0553497 -1.06112
2 11.7344 0 0 -0.00140286 0 -0.844423
3 8.81138 -0.000448227 -0.000111818 -0.322729 0 0.000158402
4 5.77839 0.00028801 0 -0.216228 0 0.000104737
5 2.23163 -0.000326157 -0.000364065 -0.106501 0 0
6 11.4725 0 0 -0.345737 -0.247855 0.134141
7 0.615219 -0.993093 -0.8107 2.38595 0.201898 -0.724956
8 2.24752 0 0 0.118096 0.0421284 0.173828
9 1.11936 0 0 0.0547173 0.0625005 -0.370226
10 3.71348 -0.102644 0.102191 1.55996 0.0838527 0.0785004
11 1.72615 0 0 -0.00037628 -0.0264715 -0.154299
12 1.21114 0 0 0.00844956 0.0154805 -0.0977999
13 3.59919 -1.06012 0.0708883 1.55958 0.092465 -0.0637795
14 1.66068 0 0 0.0123727 0.073182 -0.0816772
15 1.167 0 0 -0.013591 0.0385249 -0.069275
16 2.18853 0.501038 0.0576589 1.57004 -0.0393111 0.225928
17 1.29609 0 0 -0.00246257 -0.046769 -0.136137
18 1.62201 0.000713348 -0.000471115 -0.0122806 -0.037091 -0.121082
19 1.22241 0 0 0.0118224 -0.0182887 -0.113498
20 1.76707 1.27612 0.0366409 1.57004 -0.0218583 0.261459
21 1.55588 0 0 -0.0133375 0.029747 -0.126992
22 1.24274 0 0 -0.000511755 0.00031261 -0.131042
23 0.784523 0 0 0.014842 0.00315045 -0.0398171
24 0.582837 2.6881 -16.1261 -0.000932534 0 3.14159
25 6.02794 0 0 0.535043 -0.116088 1.19535
26 11.7344 0 0 0.00140272 0 1.09214
27 8.81167 0 0 -0.286159 0 0
28 5.77884 0 0 -0.191727 0 0
29 2.23249 0 0 -0.0944326 0 0
30 11.4725 0 0 -0.329386 0.00636182 -0.515785
31 0.615812 0.994371 -0.809166 -2.26244 0.176543 0.697428
32 2.24752 0 0 -0.0841146 0.0363783 0.254565
33 1.11936 0 0 -0.0777484 0.162386 0.203653
34 3.71348 0.102639 0.102191 -1.54223 0.334024 -0.0234821
35 1.72615 0 0 0.000852518 -0.0244446 0.306058
36 1.21112 0 0 -0.00571541 0.0166845 0.267406
37 3.5992 1.06012 0.0708876 -1.55885 0.363491 0.066991
38 1.66069 0 0 -0.01282 0.0661941 0.257991
39 1.16699 0 0 -0.00863964 0.0377863 0.224949
40 2.18853 -0.50104 0.0576591 -1.57232 -0.0190689 -0.106394
41 1.29609 0 0 -0.00863116 -0.046032 0.374176
42 1.62201 -0.000712872 -0.000469685 0.0134544 -0.0316241 0.260777
43 1.2224 0 0 -0.0003396 -0.0165684 0.260644
44 1.76707 -1.27612 0.0366402 -1.56924 0.00338938 -0.0352329
45 1.55588 0 0 0.0179619 0.0272064 0.289052
46 1.24273 0 0 0.000557084 0.000221527 0.301366
47 0.784533 0 0 -0.0164774 0.00117225 0.221407
48 3.20001 -27.7579 2.85363 -2.67139 -0.128811 -2.01474
49 -3.30079 1.98092 -0.0178609 -1.61333 0 0
50 0.00576782 1.98489 -0.0178733 -1.61332 0 0
51 0.00575829 2.07248 -0.0285521 -1.61332 0 0
52 -3.46178 2.07651 -0.0257425 -1.61332 0 0
53 -3.15015 2.07651 -0.0257416 -1.61332 0 0
54 -1.68436 2.09113 -0.0263638 -1.61332 0 0
55 -1.61192 2.09074 -0.035563 -1.61332 0 0
56 -1.74901 2.09114 -0.0263638 -1.61332 0 0
57 -1.65881 2.09114 -0.0263638 -1.61333 0 0
time 10
0 1.938 -2.84623 -5.42474 0 0 -0.338214
1 6.02795 0 0 -0.873517 0.0703132 -1.11
2 11.7344 0 0 -0.00140283 0 -0.730439
3 8.81138 -0.000452042 -0.000111341 -0.214439 0 0.0001581
4 5.77839 0.000286102 0 -0.143674 0 0.000104945
5 2.23163 -0.000329971 -0.000364065 -0.0707651 0 0
6 11.4725 0 0 -0.218429 -0.220672 0.0424873
7 0.615219 -0.99309 -0.8107 2.33902 0.155092 -0.714923
8 2.24752 0 0 0.114871 0.0703094 0.166296
9 1.11936 0 0 0.0687034 0.0585168 -0.351506
10 3.71348 -0.10264 0.102191 1.55999 -0.0420331 0.0798626
11 1.72615 0 0 -0.00207046 -0.0284524 -0.0390825
12 1.21113 0 0 0.00991434 0.0145859 -0.000446799
13 3.59919 -1.06012 0.0708883 1.55963 0.00161953 -0.0627622
14 1.66068 0 0 0.0179104 0.0757813 0.00940083
15 1.16699 0 0 -0.0151706 0.0454569 0.0402758
16 2.18852 0.50104 0.0576593 1.57004 -0.0521615 0.225938
17 1.29609 0 0 -0.00692363 -0.0463195 -0.0403298
18 1.62202 0.000713825 -0.000471115 -0.0170532 -0.0362868 0.00632029
19 1.22241 0 0 0.010411 -0.0213341 0.00596811
20 1.76707 1.27612 0.0366412 1.57004 -0.0293954 0.261465
21 1.55588 0 0 -0.010148 0.0309801 -0.0220304
22 1.24273 0 0 -0.000479211 0.000360563 -0.0344314
23 0.784521 0 0 0.01583 0.00390867 0.0455418
24 0.414037 2.6881 -16.1261 -0.000932534 0 3.14159
25 6.02794 0 0 0.558664 -0.0345335 1.04314
26 11.7344 0 0 0.00140273 0 1.37773
27 8.81167 0 0 -0.298533 0 0
28 5.77884 0 0 -0.200017 0 0
29 2.23249 0 0 -0.0985159 0 0
30 11.4725 0 0 -0.375384 0.00872677 -0.652893
31 0.615813 0.994372 -0.809166 -2.26601 0.18918 0.685076
32 2.24752 0 0 -0.0775802 0.0488015 0.407729
33 1.11936 0 0 -0.0616491 0.145836 0.358817
34 3.71349 0.102639 0.102191 -1.53308 0.542663 -0.0243308
35 1.72615 0 0 -0.000209294 -0.0215055 0.459983
36 1.21112 0 0 -0.00308964 0.0173635 0.421355
37 3.5992 1.06012 0.0708885 -1.55758 0.564642 0.0698162
38 1.66069 0 0 -0.00867202 0.0587158 0.411994
39 1.16699 0 0 -0.0206707 0.0315326 0.377922
40 2.18853 -0.50104 0.0576582 -1.57038 -0.0027486 -0.10136
41 1.29609 0 0 -0.0170448 -0.0436238 0.561384
42 1.62201 -0.000712872 -0.000469685 0.0105902 -0.0282934 0.414748
43 1.2224 0 0 0.00491559 -0.0129975 0.414382
44 1.76707 -1.27612 0.0366411 -1.56545 0.0193818 -0.0298472
45 1.55587 0 0 0.021921 0.0241309 0.443
46 1.24273 0 0 0.000584396 0.000133395 0.455294
47 0.784531 0 0 -0.0162047 -0.000108412 0.375333
48 2.62234 -31.939 -3.19977 -2.9867 0.276261 -1.7443
49 -3.3008 1.98092 -0.0178609 -1.61333 0 0
50 0.00576591 1.98489 -0.0178728 -1.61332 0 0
51 0.00575638 2.07248 -0.028553 -1.61332 0 0
52 -3.46178 2.07651 -0.0257421 -1.61332 0 0
53 -3.15015 2.07651 -0.0257406 -1.61332 0 0
54 -1.68436 2.09113 -0.0263624 -1.61332 0 0
55 -1.61192 2.09074 -0.0355625 -1.61332 0 0
56 -1.74902 2.09114 -0.0263629 -1.61332 0 0
57 -1.65881 2.09113 -0.0263624 -1.61333 0 0
time 11
0 1.938 -2.84623 -5.42474 0 0 -0.338214
1 6.02795 0 0 -0.849955 0.0734102 -1.23722
2 11.7344 0 0 -0.00140289 0 -0.427844
3 8.81138 -0.000450134 -0.000112057 0.0253893 0 0.000158281
4 5.77839 0.000286102 0 0.0170108 0 0.000106238
5 2.23163 -0.000329018 -0.000364542 0.00837838 0 0
6 11.4725 0 0 0.0496977 -0.150416 -0.16062
7 0.615217 -0.993092 -0.8107 2.33902 0.155092 -0.714923
8 2.24752 0 0 0.114871 0.0703093 0.166296
9 1.11936 0 0 0.0687036 0.0585169 -0.351506
10 3.71348 -0.102642 0.102191 1.55999 -0.0420332 0.0798624
11 1.72615 0 0 -0.00207031 -0.0284523 -0.0390825
12 1.21114 0 0 0.00991419 0.014586 -0.000446837
13 3.59919 -1.06012 0.070888 1.55963 0.00161931 -0.0627623
14 1.66069 0 0 0.0179104 0.0757814 0.00940082
15 1.16699 0 0 -0.0151706 0.0454567 0.0402758
16 2.18852 0.501038 0.0576591 1.57004 -0.0521617 0.225938
17 1.29609 0 0 -0.00692362 -0.0463195 -0.04033
18 1.62202 0.000714064 -0.000471115 -0.017053 -0.0362868 0.00632037
19 1.22241 0 0 0.010411 -0.0213342 0.0059679
20 1.76707 1.27612 0.0366411 1.57004 -0.0293956 0.261465
21 1.55588 0 0 -0.0101481 0.03098 -0.0220304
22 1.24273 0 0 -0.00047933 0.000360516 -0.0344315
23 0.784519 0 0 0.0158301 0.00390867 0.045542
24 0.414037 2.6881 -16.1261 -0.000932534 0 3.14159
25 6.02794 0 0 0.579665 0.0495293 0.883917
26 11.7344 0 0 0.00140272 0 1.63634
27 8.81167 0 0 -0.30413 0 0
28 5.77884 0 0 -0.203767 0 0
29 2.23249 0 0 -0.100363 0 0
30 11.4725 0 0 -0.424657 0.0230119 -0.754225
31 0.615813 0.994372 -0.809165 -2.27815 0.206208 0.667729
32 2.24752 0 0 -0.0686695 0.0607109 0.570188
33 1.11936 0 0 -0.0437313 0.123067 0.523969
34 3.71348 0.102639 0.102191 -1.52449 0.765094 -0.0238254
35 1.72615 0 0 -0.00118047 -0.0176978 0.625135
36 1.21112 0 0 -0.000192129 0.0176351 0.58656
37 3.5992 1.06012 0.0708876 -1.5551 0.779142 0.0737705
38 1.66069 0 0 -0.00440332 0.0487872 0.577048
39 1.16699 0 0 -0.0339766 0.0238115 0.542021
40 2.18853 -0.50104 0.0576582 -1.56819 0.0142795 -0.0976267
41 1.29609 0 0 -0.0253655 -0.039374 0.761273
42 1.62201 -0.000713825 -0.000470161 0.00740896 -0.0237773 0.579924
43 1.2224 0 0 0.0108484 -0.00872674 0.579344
44 1.76707 -1.27612 0.0366411 -1.56142 0.0360709 -0.0272276
45 1.55587 0 0 0.0255902 0.0201984 0.608174
46 1.24273 0 0 0.000598458 0 0.620474
47 0.784531 0 0 -0.0155436 -0.00165118 0.540502
48 2.62234 0.639986 -36.6811 -2.9867 0.276261 -1.7443
49 -3.3008 1.98092 -0.0178604 -1.61333 0 0
50 0.00576591 1.98489 -0.0178719 -1.61332 0 0
51 0.00575638 2.07248 -0.0285492 -1.61332 0 0
52 -3.46178 2.07651 -0.0257416 -1.61332 0 0
53 -3.15015 2.07651 -0.0257378 -1.61332 0 0
54 -1.68436 2.09113 -0.0263634 -1.61332 0 0
55 -1.61192 2.09074 -0.0355606 -1.61332 0 0
56 -1.74901 2.09114 -0.0263596 -1.61332 0 0
57 -1.65881 2.09113 -0.0263634 -1.61333 0 0
time 12
0 1.938 -2.84623 -5.42474 0 0 -0.338214
1 6.02795 0 0 -0.832586 0.112694 -1.33336
2 11.7344 0 0 -0.00140294 0 -0.253757
3 8.81138 -0.000450134 -0.000112534 0.269832 0 0.000157934
4 5.77839 0.000286102 0 0.180787 0 0.000107121
5 2.23164 -0.000329018 -0.000363827 0.0890444 0 0
6 11.4725 0 0 0.294092 -0.0706034 -0.250649
7 0.615221 -0.99309 -0.8107 2.33902 0.155092 -0.714923
8 2.24752 0 0 0.114871 0.0703093 0.166296
9 1.11936 0 0 0.0687036 0.0585168 -0.351506
10 3.71348 -0.10264 0.10219 1.55999 -0.0420332 0.0798626
11 1.72615 0 0 -0.00207049 -0.0284524 -0.0390826
12 1.21114 0 0 0.00991419 0.0145859 -0.000446797
13 3.59919 -1.06012 0.070888 1.55963 0.00161926 -0.0627622
14 1.66068 0 0 0.0179106 0.0757814 0.009401
15 1.167 0 0 -0.0151707 0.045457 0.0402756
16 2.18852 0.50104 0.0576587 1.57004 -0.0521617 0.225938
17 1.29609 0 0 -0.00692357 -0.0463193 -0.0403299
18 1.62202 0.000713825 -0.000473022 -0.0170532 -0.0362869 0.00632021
19 1.2224 0 0 0.0104112 -0.0213342 0.00596812
20 1.76707 1.27612 0.0366411 1.57004 -0.0293957 0.261465
21 1.55587 0 0 -0.0101479 0.0309801 -0.0220304
22 1.24273 0 0 -0.000479181 0.000360549 -0.0344314
23 0.784523 0 0 0.0158299 0.00390867 0.0455418
24 0.414037 2.6881 -16.1261 -0.000932534 0 3.14159
25 6.02794 0 0 0.598591 0.134977 0.728814
26 11.7344 0 0 0.00140271 0 1.85904
27 8.81167 0 0 -0.306915 0 0
28 5.77884 0 0 -0.205633 0 0
29 2.23249 0 0 -0.101282 0 0
30 11.4725 0 0 -0.475917 0.0473829 -0.821052
31 0.615813 0.994372 -0.809166 -2.2958 0.225268 0.6478
32 2.24752 0 0 -0.0581378 0.0708601 0.730052
33 1.11936 0 0 -0.0263649 0.0953183 0.685998
34 3.71349 0.102639 0.102191 -1.51623 0.984601 -0.0210915
35 1.72615 0 0 -0.00182495 -0.0132897 0.788777
36 1.21112 0 0 0.00268461 0.0174307 0.750286
37 3.5992 1.06012 0.0708876 -1.55042 0.990837 0.0797878
38 1.66069 0 0 -0.000762188 0.0370591 0.740387
39 1.16699 0 0 -0.0478728 0.0153127 0.704591
40 2.18853 -0.50104 0.0576582 -1.56597 0.030844 -0.0949877
41 1.29609 0 0 -0.0325939 -0.0336367 0.958682
42 1.62201 -0.000713348 -0.000470161 0.00435394 -0.0183095 0.743559
43 1.2224 0 0 0.0171563 -0.00414495 0.742815
44 1.76707 -1.27612 0.0366402 -1.55751 0.0523228 -0.0266479
45 1.55587 0 0 0.0285391 0.0157585 0.771841
46 1.24273 0 0 0.000596233 0 0.784175
47 0.784531 0 0 -0.0145717 -0.00344064 0.704181
48 2.62234 0.639986 -36.6811 -2.9867 0.276261 -1.7443
49 -3.3008 1.98092 -0.0178604 -1.61333 0 0
50 0.00576591 1.98489 -0.0178719 -1.61332 0 0
51 0.00575638 2.07248 -0.0285492 -1.61332 0 0
52 -3.46178 2.07651 -0.0257416 -1.61332 0 0
53 -3.15015 2.07651 -0.0257378 -1.61332 0 0
54 -1.68436 2.09113 -0.0263634 -1.61332 0 0
55 -1.61192 2.09074 -0.0355606 -1.61332 0 0
56 -1.74901 2.09114 -0.0263596 -1.61332 0 0
57 -1.65881 2.09113 -0.0263634 -1.61333 0 0
time 13
0 1.938 -2.84623 -5.42474 0 0 -0.338214
1 6.02795 0 0 -0.750255 0.40541 -1.20105
2 11.7344 0 0 -0.00140281 0 -0.809574
3 8.81138 -0.000450134 -0.000112057 0.48034 0 0.00015787
4 5.77839 0.000286102 0 0.321828 0 0.000108223
5 2.23163 -0.000329971 -0.00036478 0.158512 0 0
6 11.4725 0 0 0.483295 -0.00308026 0.126067
7 0.615221 -0.993092 -0.810699 2.33902 0.155092 -0.714923
8 2.24752 0 0 0.114871 0.0703093 0.166296
9 1.11936 0 0 0.0687035 0.0585169 -0.351506
10 3.71348 -0.102642 0.102191 1.55999 -0.0420332 0.0798625
11 1.72615 0 0 -0.00207043 -0.0284523 -0.0390826
12 1.21114 0 0 0.00991443 0.014586 -0.000446511
13 3.59919 -1.06012 0.0708885 1.55963 0.00161921 -0.0627622
14 1.66069 0 0 0.0179105 0.0757814 0.00940101
15 1.167 0 0 -0.0151706 0.0454568 0.0402756
16 2.18852 0.501038 0.0576591 1.57004 -0.0521618 0.225938
17 1.29609 0 0 -0.0069235 -0.0463195 -0.04033
18 1.62201 0.000713825 -0.000471115 -0.0170532 -0.0362869 0.00632033
19 1.22241 0 0 0.0104111 -0.0213341 0.00596813
20 1.76707 1.27612 0.0366411 1.57004 -0.0293956 0.261465
21 1.55588 0 0 -0.010148 0.0309801 -0.0220303
22 1.24273 0 0 -0.000479359 0.000360486 -0.0344315
23 0.784525 0 0 0.0158301 0.00390864 0.0455421
24 0.414037 2.6881 -16.1261 -0.000932534 0 3.14159
25 6.02794 0 0 0.617664 0.220997 0.58301
26 11.7344 0 0 0.00140272 0 2.03888
27 8.81167 0 0 -0.311347 0 0
28 5.77884 0 0 -0.208602 0 0
29 2.23249 0 0 -0.102744 0 0
30 11.4725 0 0 -0.526299 0.0827138 -0.851291
31 0.615813 0.994371 -0.809164 -2.31572 0.244028 0.62776
32 2.24752 0 0 -0.0472769 0.0785175 0.875348
33 1.11936 0 0 -0.0116015 0.0656059 0.832388
34 3.71349 0.102639 0.102191 -1.50665 1.18444 -0.0145512
35 1.72615 0 0 -0.00203603 -0.00876426 0.938186
36 1.21112 0 0 0.00525091 0.0168364 0.899794
37 3.5992 1.06012 0.0708876 -1.54123 1.18357 0.0901248
38 1.66069 0 0 0.00176083 0.0248157 0.889333
39 1.16699 0 0 -0.0613422 0.00697463 0.853004
40 2.18853 -0.50104 0.0576591 -1.56393 0.0457719 -0.0932495
41 1.29609 0 0 -0.0380832 -0.0272658 1.13849
42 1.62201 -0.000713825 -0.000470161 0.00180778 -0.0124709 0.892928
43 1.22241 0 0 0.0233548 0.0002575 0.892084
44 1.76707 -1.27612 0.0366421 -1.55407 0.0669936 -0.0274001
45 1.55588 0 0 0.030567 0.0113332 0.921277
46 1.24273 0 0 0.000580258 -0.000150667 0.933662
47 0.784532 0 0 -0.0134611 -0.00535255 0.853638
48 2.62234 0.639986 -36.6811 -2.9867 0.276261 -1.7443
49 -3.3008 1.98092 -0.0178604 -1.61333 0 0
50 0.00576591 1.98489 -0.0178719 -1.61332 0 0
51 0.00575638 2.07248 -0.0285492 -1.61332 0 0
52 -3.46178 2.07651 -0.0257416 -1.61332 0 0
53 -3.15015 2.07651 -0.0257378 -1.61332 0 0
54 -1.68436 2.09113 -0.0263634 -1.61332 0 0
55 -1.61192 2.09074 -0.0355606 -1.61332 0 0
56 -1.74901 2.09114 -0.0263596 -1.61332 0 0
57 -1.65881 2.09113 -0.0263634 -1.61333 0 0
time 14
0 1.938 -2.84623 -5.42474 0 0 -0.338214
1 6.02795 0 0 -0.574994 0.670029 -1.09006
2 11.7344 0 0 -0.00140288 0 -1.27011
3 8.81138 -0.000450134 -0.000110626 0.601932 0 0.000157448
4 5.77839 0.000286102 0 0.403295 0 0.000108648
5 2.23163 -0.000328064 -0.000364304 0.198638 0 0
6 11.4725 0 0 0.678147 0.0206559 0.525004
7 0.615221 -0.993091 -0.8107 2.33902 0.155092 -0.714923
8 2.24752 0 0 0.114871 0.0703092 0.166296
9 1.11936 0 0 0.0687037 0.0585169 -0.351506
10 3.71348 -0.102641 0.10219 1.55999 -0.0420334 0.0798626
11 1.72615 0 0 -0.0020706 -0.0284525 -0.0390825
12 1.21114 0 0 0.00991418 0.014586 -0.00044693
13 3.59919 -1.06012 0.070888 1.55963 0.00161924 -0.0627622
14 1.66068 0 0 0.0179105 0.0757813 0.00940104
15 1.16699 0 0 -0.0151704 0.0454569 0.0402756
16 2.18853 0.50104 0.0576591 1.57004 -0.0521619 0.225938
17 1.29609 0 0 -0.00692374 -0.0463195 -0.04033
18 1.62202 0.000714302 -0.000471115 -0.0170531 -0.0362869 0.0063203
19 1.22241 0 0 0.0104112 -0.021334 0.00596813
20 1.76707 1.27612 0.0366397 1.57004 -0.0293957 0.261465
21 1.55587 0 0 -0.0101481 0.0309802 -0.0220304
22 1.24273 0 0 -0.000479181 0.000360519 -0.0344314
23 0.784525 0 0 0.0158299 0.00390864 0.0455419
24 0.414037 2.6881 -16.1261 -0.000932534 0 3.14159
25 6.02794 0 0 0.637671 0.302852 0.457557
26 11.7344 0 0 0.00140265 0 2.17014
27 8.81167 0 0 -0.321092 0 0
28 5.77884 0 0 -0.215132 0 0
29 2.23249 0 0 -0.10596 0 0
30 11.4725 0 0 -0.571822 0.12612 -0.850462
31 0.615813 0.994372 -0.809166 -2.33448 0.260198 0.61016
32 2.24752 0 0 -0.0376576 0.0835506 0.994044
33 1.11936 0 0 -0.000697501 0.0383101 0.95124
34 3.71349 0.102639 0.102191 -1.49097 1.34786 0
35 1.72615 0 0 -0.00188577 -0.00474278 1.06065
36 1.21112 0 0 0.00726976 0.0160683 1.02235
37 3.5992 1.06012 0.0708876 -1.52173 1.34115 0.110522
38 1.66069 0 0 0.00309616 0.0137867 1.01128
39 1.16699 0 0 -0.0730062 -0.000164388 0.974644
40 2.18853 -0.50104 0.0576591 -1.56225 0.0578909 -0.0922287
41 1.29609 0 0 -0.0416679 -0.0213879 1.28559
42 1.62201 -0.000713825 -0.000470161 0 -0.00711321 1.01533
43 1.2224 0 0 0.0287731 0.00396561 1.01444
44 1.76707 -1.27612 0.0366402 -1.55135 0.0789256 -0.028791
45 1.55588 0 0 0.0317227 0.00751255 1.04376
46 1.24273 0 0 0.00055741 -0.0002204 1.0562
47 0.784531 0 0 -0.0124275 -0.00714121 0.976145
48 2.62234 0.639986 -36.6811 -2.9867 0.276261 -1.7443
49 -3.3008 1.98092 -0.0178604 -1.61333 0 0
50 0.00576591 1.98489 -0.0178719 -1.61332 0 0
51 0.00575638 2.07248 -0.0285492 -1.61332 0 0
52 -3.46178 2.07651 -0.0257416 -1.61332 0 0
53 -3.15015 2.07651 -0.0257378 -1.61332 0 0
54 -1.68436 2.09113 -0.0263634 -1.61332 0 0
55 -1.61192 2.09074 -0.0355606 -1.61332 0 0
56 -1.74901 2.09114 -0.0263596 -1.61332 0 0
57 -1.65881 2.09113 -0.0263634 -1.61333 0 0
time 15
0 1.938 -2.84623 -5.42474 0 0 -0.338214
1 6.02795 0 0 -0.370026 0.851565 -1.02236
2 11.7344 0 0 -0.00140288 0 -1.53082
3 8.81138 -0.000450134 -0.000112057 0.638093 0 0.000157682
4 5.77839 0.000284195 0 0.427522 0 0.000109034
5 2.23163 -0.000331879 -0.000364304 0.21057 0 0
6 11.4725 0 0 0.817164 -0.0222189 0.822601
7 0.615219 -0.99309 -0.8107 2.33902 0.155092 -0.714923
8 2.24752 0 0 0.114871 0.0703093 0.166296
9 1.11936 0 0 0.0687033 0.0585168 -0.351506
10 3.71348 -0.10264 0.102191 1.55999 -0.0420332 0.0798625
11 1.72615 0 0 -0.00207037 -0.0284523 -0.0390824
12 1.21113 0 0 0.00991424 0.014586 -0.00044693
13 3.59919 -1.06012 0.0708885 1.55963 0.00161924 -0.0627624
14 1.66069 0 0 0.0179103 0.0757813 0.00940077
15 1.16699 0 0 -0.0151704 0.045457 0.0402759
16 2.18852 0.501039 0.0576591 1.57004 -0.0521618 0.225938
17 1.29609 0 0 -0.00692362 -0.0463195 -0.04033
18 1.62202 0.000712872 -0.000471115 -0.0170532 -0.0362869 0.0063203
19 1.22241 0 0 0.0104112 -0.0213341 0.0059681
20 1.76707 1.27612 0.0366411 1.57004 -0.0293956 0.261465
21 1.55588 0 0 -0.0101481 0.0309801 -0.0220303
22 1.24273 0 0 -0.000479181 0.000360519 -0.0344315
23 0.784523 0 0 0.0158301 0.00390858 0.0455419
24 0.414037 2.6881 -16.1261 -0.000932534 0 3.14159
25 6.02794 0 0 0.655783 0.367585 0.369373
26 11.7344 0 0 0.00140264 0 2.24996
27 8.81167 0 0 -0.334131 0 0
28 5.77884 0 0 -0.223868 0 0
29 2.23249 0 0 -0.110263 0 0
30 11.4725 0 0 -0.606013 0.166652 -0.834706
31 0.615812 0.994372 -0.809165 -2.34843 0.271532 0.597638
32 2.24752 0 0 -0.0308653 0.0862857 1.07408
33 1.11936 0 0 0.0059176 0.0184528 1.03103
34 3.71349 0.102639 0.10219 -1.45774 1.45808 0.0331456
35 1.72615 0 0 -0.00160084 -0.0018863 1.14345
36 1.21112 0 0 0.00857467 0.0154116 1.10522
37 3.5992 1.06012 0.0708876 -1.47999 1.44737 0.152867
38 1.66069 0 0 0.00356794 0.0058736 1.09368
39 1.16699 0 0 -0.0812249 -0.00510233 1.05689
40 2.18853 -0.50104 0.0576582 -1.56113 0.0660258 -0.0917473
41 1.29609 0 0 -0.0435833 -0.0171486 1.38492
42 1.62201 -0.000713348 -0.000469208 -0.0010719 -0.00321837 1.09808
43 1.2224 0 0 0.032613 0.00650036 1.09718
44 1.76707 -1.27612 0.0366402 -1.54958 0.0869482 -0.0301328
45 1.55588 0 0 0.0322355 0.00486152 1.12658
46 1.24273 0 0 0.000537342 -0.000265715 1.13907
47 0.784532 0 0 -0.0116809 -0.00846977 1.05898
48 2.62234 0.639986 -36.6811 -2.9867 0.276261 -1.7443
49 -3.3008 1.98092 -0.0178604 -1.61333 0 0
50 0.00576591 1.98489 -0.0178719 -1.61332 0 0
51 0.00575638 2.07248 -0.0285492 -1.61332 0 0
52 -3.46178 2.07651 -0.0257416 -1.61332 0 0
53 -3.15015 2.07651 -0.0257378 -1.61332 0 0
54 -1.68436 2.09113 -0.0263634 -1.61332 0 0
55 -1.61192 2.09074 -0.0355606 -1.61332 0 0
56 -1.74901 2.09114 -0.0263596 -1.61332 0 0
57 -1.65881 2.09113 -0.0263634 -1.61333 0 0
time 16
0 1.938 -2.84623 -5.42474 0 0 -0.338214
1 6.02795 0 0 -0.271762 0.921561 -1.00333
2 11.7344 0 0 -0.00140293 0 -1.60899
3 8.81138 -0.000450134 -0.000112534 0.634795 0 0.000158159
4 5.77839 0.000286102 0 0.425313 0 0.000109362
5 2.23163 -0.000328064 -0.00036335 0.209482 0 0
6 11.4725 0 0 0.862133 -0.058114 0.939856
7 0.615217 -0.993092 -0.810699 2.33902 0.155091 -0.714923
8 2.24752 0 0 0.114871 0.0703092 0.166296
9 1.11936 0 0 0.0687035 0.0585169 -0.351506
10 3.71348 -0.102641 0.102192 1.55999 -0.0420331 0.0798625
11 1.72615 0 0 -0.00207031 -0.0284523 -0.0390825
12 1.21114 0 0 0.00991419 0.0145859 -0.000446811
13 3.59919 -1.06012 0.0708885 1.55963 0.0016192 -0.0627623
14 1.66069 0 0 0.0179101 0.0757812 0.00940082
15 1.167 0 0 -0.0151704 0.0454571 0.0402758
16 2.18852 0.501039 0.0576587 1.57004 -0.0521616 0.225938
17 1.29609 0 0 -0.00692374 -0.0463195 -0.0403299
18 1.62202 0.000713348 -0.000471354 -0.017053 -0.0362867 0.00632047
19 1.22241 0 0 0.0104112 -0.0213342 0.0059681
20 1.76707 1.27612 0.0366411 1.57004 -0.0293956 0.261465
21 1.55588 0 0 -0.010148 0.0309802 -0.0220304
22 1.24273 0 0 -0.000479123 0.000360639 -0.0344316
23 0.784521 0 0 0.0158299 0.00390858 0.0455419
24 0.414037 2.6881 -16.1261 -0.000932534 0 3.14159
25 6.02794 0 0 0.663975 0.393926 0.336529
26 11.7344 0 0 0.00140265 0 2.27717
27 8.81167 0 0 -0.340954 0 0
28 5.77884 0 0 -0.228439 0 0
29 2.23249 0 0 -0.112515 0 0
30 11.4725 0 0 -0.619542 0.184649 -0.825477
31 0.615812 0.994371 -0.809165 -2.3539 0.275806 0.592872
32 2.24752 0 0 -0.0283232 0.0871513 1.10343
33 1.11936 0 0 0.0081809 0.0108904 1.06024
34 3.71349 0.102638 0.102192 -1.42083 1.49844 0.0701759
35 1.72615 0 0 -0.00145746 -0.000812352 1.17387
36 1.21112 0 0 0.00903998 0.0151434 1.13567
37 3.5992 1.06012 0.0708885 -1.43826 1.48621 0.194812
38 1.66069 0 0 0.00364894 0.00288174 1.12395
39 1.16699 0 0 -0.08431 -0.00693385 1.08712
40 2.18853 -0.50104 0.0576601 -1.56072 0.0689995 -0.0916275
41 1.29609 0 0 -0.0441795 -0.0155477 1.42138
42 1.62201 -0.000713348 -0.000471115 -0.00142281 -0.00173575 1.12848
43 1.22241 0 0 0.0340584 0.00743448 1.12759
44 1.76707 -1.27612 0.0366421 -1.54895 0.0898841 -0.0307353
45 1.55588 0 0 0.0323684 0.00387814 1.15702
46 1.24273 0 0 0.000528942 -0.000282077 1.16952
47 0.784532 0 0 -0.0113987 -0.00898193 1.08942
48 2.62234 0.639986 -36.6811 -2.9867 0.276261 -1.7443
49 -3.3008 1.98092 -0.0178604 -1.61333 0 0
50 0.00576591 1.98489 -0.0178719 -1.61332 0 0
51 0.00575638 2.07248 -0.0285492 -1.61332 0 0
52 -3.46178 2.07651 -0.0257416 -1.61332 0 0
53 -3.15015 2.07651 -0.0257378 -1.61332 0 0
54 -1.68436 2.09113 -0.0263634 -1.61332 0 0
55 -1.61192 2.09074 -0.0355606 -1.61332 0 0
56 -1.74901 2.09114 -0.0263596 -1.61332 0 0
57 -1.65881 2.09113 -0.0263634 -1.61333 0 0
time 17
0 1.938 -2.84623 -5.42474 0 0 -0.338214
1 6.02795 0 0 -0.271762 0.921561 -1.00333
2 11.7344 0 0 -0.00140293 0 -1.60899
3 8.81138 -0.000450134 -0.000112534 0.634795 0 0.000158159
4 5.77839 0.000286102 0 0.425313 0 0.000109362
5 2.23163 -0.000328064 -0.00036335 0.209482 0 0
6 11.4725 0 0 0.862133 -0.058114 0.939856
7 0.615217 -0.993092 -0.810699 2.33902 0.155091 -0.714923
8 2.24752 0 0 0.114871 0.0703092 0.166296
9 1.11936 0 0 0.0687035 0.0585169 -0.351506
10 3.71348 -0.102641 0.102192 1.55999 -0.0420331 0.0798625
11 1.72615 0 0 -0.00207031 -0.0284523 -0.0390825
12 1.21114 0 0 0.00991419 0.0145859 -0.000446811
13 3.59919 -1.06012 0.0708885 1.55963 0.0016192 -0.0627623
14 1.66069 0 0 0.0179101 0.0757812 0.00940082
15 1.167 0 0 -0.0151704 0.0454571 0.0402758
16 2.18852 0.501039 0.0576587 1.57004 -0.0521616 0.225938
17 1.29609 0 0 -0.00692374 -0.0463195 -0.0403299
18 1.62202 0.000713348 -0.000471354 -0.017053 -0.0362867 0.00632047
19 1.22241 0 0 0.0104112 -0.0213342 0.0059681
20 1.76707 1.27612 0.0366411 1.57004 -0.0293956 0.261465
21 1.55588 0 0 -0.010148 0.0309802 -0.0220304
22 1.24273 0 0 -0.000479123 0.000360639 -0.0344316
23 0.784521 0 0 0.0158299 0.00390858 0.0455419
24 0.414037 2.6881 -16.1261 -0.000932534 0 3.14159
25 6.02794 0 0 0.663975 0.393926 0.336529
26 11.7344 0 0 0.00140265 0 2.27717
27 8.81167 0 0 -0.340954 0 0
28 5.77884 0 0 -0.228439 0 0
29 2.23249 0 0 -0.112515 0 0
30 11.4725 0 0 -0.619542 0.184649 -0.825477
31 0.615812 0.994371 -0.809165 -2.3539 0.275806 0.592872
32 2.24752 0 0 -0.0283232 0.0871513 1.10343
33 1.11936 0 0 0.0081809 0.0108904 1.06024
34 3.71349 0.102638 0.102192 -1.42083 1.49844 0.0701759
35 1.72615 0 0 -0.00145746 -0.000812352 1.17387
36 1.21112 0 0 0.00903998 0.0151434 1.13567
37 3.5992 1.06012 0.0708885 -1.43826 1.48621 0.194812
38 1.66069 0 0 0.00364894 0.00288174 1.12395
39 1.16699 0 0 -0.08431 -0.00693385 1.08712
40 2.18853 -0.50104 0.0576601 -1.56072 0.0689995 -0.0916275
41 1.29609 0 0 -0.0441795 -0.0155477 1.42138
42 1.62201 -0.000713348 -0.000471115 -0.00142281 -0.00173575 1.12848
43 1.22241 0 0 0.0340584 0.00743448 1.12759
44 1.76707 -1.27612 0.0366421 -1.54895 0.0898841 -0.0307353
45 1.55588 0 0 0.0323684 0.00387814 1.15702
46 1.24273 0 0 0.000528942 -0.000282077 1.16952
47 0.784532 0 0 -0.0113987 -0.00898193 1.08942
48 2.62234 0.639986 -36.6811 -2.9867 0.276261 -1.7443
49 -3.3008 1.98092 -0.0178604 -1.61333 0 0
50 0.00576591 1.98489 -0.0178719 -1.61332 0 0
51 0.00575638 2.07248 -0.0285492 -1.61332 0 0
52 -3.46178 2.07651 -0.0257416 -1.61332 0 0
53 -3.15015 2.07651 -0.0257378 -1.61332 0 0
54 -1.68436 2.09113 -0.0263634 -1.61332 0 0
55 -1.61192 2.09074 -0.0355606 -1.61332 0 0
56 -1.74901 2.09114 -0.0263596 -1.61332 0 0
57 -1.65881 2.09113 -0.0263634 -1.61333 0 0
time 18
0 1.938 -2.84623 -5.42474 0 0 -0.338214
1 6.02795 0 0 -0.271762 0.921561 -1.00333
2 11.7344 0 0 -0.00140293 0 -1.60899
3 8.81138 -0.000450134 -0.000112534 0.634795 0 0.000158159
4 5.77839 0.000286102 0 0.425313 0 0.000109362
5 2.23163 -0.000328064 -0.00036335 0.209482 0 0
6 11.4725 0 0 0.862133 -0.058114 0.939856
7 0.615217 -0.993092 -0.810699 2.33902 0.155091 -0.714923
8 2.24752 0 0 0.114871 0.0703092 0.166296
9 1.11936 0 0 0.0687035 0.0585169 -0.351506
10 3.71348 -0.102641 0.102192 1.55999 -0.0420331 0.0798625
11 1.72615 0 0 -0.00207031 -0.0284523 -0.0390825
12 1.21114 0 0 0.00991419 0.0145859 -0.000446811
13 3.59919 -1.06012 0.0708885 1.55963 0.0016192 -0.0627623
14 1.66069 0 0 0.0179101 0.0757812 0.00940082
15 1.167 0 0 -0.0151704 0.0454571 0.0402758
16 2.18852 0.501039 0.0576587 1.57004 -0.0521616 0.225938
17 1.29609 0 0 -0.00692374 -0.0463195 -0.0403299
18 1.62202 0.000713348 -0.000471354 -0.017053 -0.0362867 0.00632047
19 1.22241 0 0 0.0104112 -0.0213342 0.0059681
20 1.76707 1.27612 0.0366411 1.57004 -0.0293956 0.261465
21 1.55588 0 0 -0.010148 0.0309802 -0.0220304
22 1.24273 0 0 -0.000479123 0.000360639 -0.0344316
23 0.784521 0 0 0.0158299 0.00390858 0.0455419
24 0.414037 2.6881 -16.1261 -0.000932534 0 3.14159
25 6.02794 0 0 0.663975 0.393926 0.336529
26 11.7344 0 0 0.00140265 0 2.27717
27 8.81167 0 0 -0.340954 0 0
28 5.77884 0 0 -0.228439 0 0
29 2.23249 0 0 -0.112515 0 0
30 11.4725 0 0 -0.619542 0.184649 -0.825477
31 0.615812 0.994371 -0.809165 -2.3539 0.275806 0.592872
32 2.24752 0 0 -0.0283232 0.0871513 1.10343
33 1.11936 0 0 0.0081809 0.0108904 1.06024
34 3.71349 0.102638 0.102192 -1.42083 1.49844 0.0701759
35 1.72615 0 0 -0.00145746 -0.000812352 1.17387
36 1.21112 0 0 0.00903998 0.0151434 1.13567
37 3.5992 1.06012 0.0708885 -1.43826 1.48621 0.194812
38 1.66069 0 0 0.00364894 0.00288174 1.12395
39 1.16699 0 0 -0.08431 -0.00693385 1.08712
40 2.18853 -0.50104 0.0576601 -1.56072 0.0689995 -0.0916275
41 1.29609 0 0 -0.0441795 -0.0155477 1.42138
42 1.62201 -0.000713348 -0.000471115 -0.00142281 -0.00173575 1.12848
43 1.22241 0 0 0.0340584 0.00743448 1.12759
44 1.76707 -1.27612 0.0366421 -1.54895 0.0898841 -0.0307353
45 1.55588 0 0 0.0323684 0.00387814 1.15702
46 1.24273 0 0 0.000528942 -0.000282077 1.16952
47 0.784532 0 0 -0.0113987 -0.00898193 1.08942
48 2.62234 0.639986 -36.6811 -2.9867 0.276261 -1.7443
49 -3.3008 1.98092 -0.0178604 -1.61333 0 0
50 0.00576591 1.98489 -0.0178719 -1.61332 0 0
51 0.00575638 2.07248 -0.0285492 -1.61332 0 0
52 -3.46178 2.07651 -0.0257416 -1.61332 0 0
53 -3.15015 2.07651 -0.0257378 -1.61332 0 0
54 -1.68436 2.09113 -0.0263634 -1.61332 0 0
55 -1.61192 2.09074 -0.0355606 -1.61332 0 0
56 -1.74901 2.09114 -0.0263596 -1.61332 0 0
57 -1.65881 2.09113 -0.0263634 -1.61333 0 0
time 19
0 1.938 -2.84623 -5.42474 0 0 -0.338214
1 6.02795 0 0 -0.271762 0.921561 -1.00333
2 11.7344 0 0 -0.00140293 0 -1.60899
3 8.81138 -0.000450134 -0.000112534 0.634795 0 0.000158159
4 5.77839 0.000286102 0 0.425313 0 0.000109362
5 2.23163 -0.000328064 -0.00036335 0.209482 0 0
6 11.4725 0 0 0.862133 -0.058114 0.939856
7 0.615217 -0.993092 -0.810699 2.33902 0.155091 -0.714923
8 2.24752 0 0 0.114871 0.0703092 0.166296
9 1.11936 0 0 0.0687035 0.0585169 -0.351506
10 3.71348 -0.102641 0.102192 1.55999 -0.0420331 0.0798625
11 1.72615 0 0 -0.00207031 -0.0284523 -0.0390825
12 1.21114 0 0 0.00991419 0.0145859 -0.000446811
13 3.59919 -1.06012 0.0708885 1.55963 0.0016192 -0.0627623
14 1.66069 0 0 0.0179101 0.0757812 0.00940082
15 1.167 0 0 -0.0151704 0.0454571 0.0402758
16 2.18852 0.501039 0.0576587 1.57004 -0.0521616 0.225938
17 1.29609 0 0 -0.00692374 -0.0463195 -0.0403299
18 1.62202 0.000713348 -0.000471354 -0.017053 -0.0362867 0.00632047
19 1.22241 0 0 0.0104112 -0.0213342 0.0059681
20 1.76707 1.27612 0.0366411 1.57004 -0.0293956 0.261465
21 1.55588 0 0 -0.010148 0.0309802 -0.0220304
22 1.24273 0 0 -0.000479123 0.000360639 -0.0344316
23 0.784521 0 0 0.0158299 0.00390858 0.0455419
24 0.414037 2.6881 -16.1261 -0.000932534 0 3.14159
25 6.02794 0 0 0.663975 0.393926 0.336529
26 11.7344 0 0 0.00140265 0 2.27717
27 8.81167 0 0 -0.340954 0 0
28 5.77884 0 0 -0.228439 0 0
29 2.23249 0 0 -0.112515 0 0
30 11.4725 0 0 -0.619542 0.184649 -0.825477
31 0.615812 0.994371 -0.809165 -2.3539 0.275806 0.592872
32 2.24752 0 0 -0.0283232 0.0871513 1.10343
33 1.11936 0 0 0.0081809 0.0108904 1.06024
34 3.71349 0.102638 0.102192 -1.42083 1.49844 0.0701759
35 1.72615 0 0 -0.00145746 -0.000812352 1.17387
36 1.21112 0 0 0.00903998 0.0151434 1.13567
37 3.5992 1.06012 0.0708885 -1.43826 1.48621 0.194812
38 1.66069 0 0 0.00364894 0.00288174 1.12395
39 1.16699 0 0 -0.08431 -0.00693385 1.08712
40 2.18853 -0.50104 0.0576601 -1.56072 0.0689995 -0.0916275
41 1.29609 0 0 -0.0441795 -0.0155477 1.42138
42 1.62201 -0.000713348 -0.000471115 -0.00142281 -0.00173575 1.12848
43 1.22241 0 0 0.0340584 0.00743448 1.12759
44 1.76707 -1.27612 0.0366421 -1.54895 0.0898841 -0.0307353
45 1.55588 0 0 0.0323684 0.00387814 1.15702
46 1.24273 0 0 0.000528942 -0.000282077 1.16952
47 0.784532 0 0 -0.0113987 -0.00898193 1.08942
48 2.62234 0.639986 -36.6811 -2.9867 0.276261 -1.7443
49 -3.3008 1.98092 -0.0178604 -1.61333 0 0
50 0.00576591 1.98489 -0.0178719 -1.61332 0 0
51 0.00575638 2.07248 -0.0285492 -1.61332 0 0
52 -3.46178 2.07651 -0.0257416 -1.61332 0 0
53 -3.15015 2.07651 -0.0257378 -1.61332 0 0
54 -1.68436 2.09113 -0.0263634 -1.61332 0 0
55 -1.61192 2.09074 -0.0355606 -1.61332 0 0
56 -1.74901 2.09114 -0.0263596 -1.61332 0 0
57 -1.65881 2.09113 -0.0263634 -1.61333 0 0
time 20
0 1.938 -2.84623 -5.42474 0 0 -0.338214
1 6.02795 0 0 -0.271762 0.921561 -1.00333
2 11.7344 0 0 -0.00140293 0 -1.60899
3 8.81138 -0.000450134 -0.000112534 0.634795 0 0.000158159
4 5.77839 0.000286102 0 0.425313 0 0.000109362
5 2.23163 -0.000328064 -0.00036335 0.209482 0 0
6 11.4725 0 0 0.862133 -0.058114 0.939856
7 0.615217 -0.993092 -0.810699 2.33902 0.155091 -0.714923
8 2.24752 0 0 0.114871 0.0703092 0.166296
9 1.11936 0 0 0.0687035 0.0585169 -0.351506
10 3.71348 -0.102641 0.102192 1.55999 -0.0420331 0.0798625
11 1.72615 0 0 -0.00207031 -0.0284523 -0.0390825
12 1.21114 0 0 0.00991419 0.0145859 -0.000446811
13 3.59919 -1.06012 0.0708885 1.55963 0.0016192 -0.0627623
14 1.66069 0 0 0.0179101 0.0757812 0.00940082
15 1.167 0 0 -0.0151704 0.0454571 0.0402758
16 2.18852 0.501039 0.0576587 1.57004 -0.0521616 0.225938
17 1.29609 0 0 -0.00692374 -0.0463195 -0.0403299
18 1.62202 0.000713348 -0.000471354 -0.017053 -0.0362867 0.00632047
19 1.22241 0 0 0.0104112 -0.0213342 0.0059681
20 1.76707 1.27612 0.0366411 1.57004 -0.0293956 0.261465
21 1.55588 0 0 -0.010148 0.0309802 -0.0220304
22 1.24273 0 0 -0.000479123 0.000360639 -0.0344316
23 0.784521 0 0 0.0158299 0.00390858 0.0455419
24 0.414037 2.6881 -16.1261 -0.000932534 0 3.14159
25 6.02794 0 0 0.663975 0.393926 0.336529
26 11.7344 0 0 0.00140265 0 2.27717
27 8.81167 0 0 -0.340954 0 0
28 5.77884 0 0 -0.228439 0 0
29 2.23249 0 0 -0.112515 0 0
30 11.4725 0 0 -0.619542 0.184649 -0.825477
31 0.615812 0.994371 -0.809165 -2.3539 0.275806 0.592872
32 2.24752 0 0 -0.0283232 0.0871513 1.10343
33 1.11936 0 0 0.0081809 0.0108904 1.06024
34 3.71349 0.102638 0.102192 -1.42083 1.49844 0.0701759
35 1.72615 0 0 -0.00145746 -0.000812352 1.17387
36 1.21112 0 0 0.00903998 0.0151434 1.13567
37 3.5992 1.06012 0.0708885 -1.43826 1.48621 0.194812
38 1.66069 0 0 0.00364894 0.00288174 1.12395
39 1.16699 0 0 -0.08431 -0.00693385 1.08712
40 2.18853 -0.50104 0.0576601 -1.56072 0.0689995 -0.0916275
41 1.29609 0 0 -0.0441795 -0.0155477 1.42138
42 1.62201 -0.000713348 -0.000471115 -0.00142281 -0.00173575 1.12848
43 1.22241 0 0 0.0340584 0.00743448 1.12759
44 1.76707 -1.27612 0.0366421 -1.54895 0.0898841 -0.0307353
45 1.55588 0 0 0.0323684 0.00387814 1.15702
46 1.24273 0 0 0.000528942 -0.000282077 1.16952
47 0.784532 0 0 -0.0113987 -0.00898193 1.08942
48 2.62234 0.639986 -36.6811 -2.9867 0.276261 -1.7443
49 -3.3008 1.98092 -0.0178604 -1.61333 0 0
50 0.00576591 1.98489 -0.0178719 -1.61332 0 0
51 0.00575638 2.07248 -0.0285492 -1.61332 0 0
52 -3.46178 2.07651 -0.0257416 -1.61332 0 0
53 -3.15015 2.07651 -0.0257378 -1.61332 0 0
54 -1.68436 2.09113 -0.0263634 -1.61332 0 0
55 -1.61192 2.09074 -0.0355606 -1.61332 0 0
56 -1.74901 2.09114 -0.0263596 -1.61332 0 0
57 -1.65881 2.09113 -0.0263634 -1.61333 0 0
time 21
0 1.938 -2.84623 -5.42474 0 0 -0.338214
1 6.02795 0 0 -0.271762 0.921561 -1.00333
2 11.7344 0 0 -0.00140293 0 -1.60899
3 8.81138 -0.000450134 -0.000112534 0.634795 0 0.000158159
4 5.77839 0.000286102 0 0.425313 0 0.000109362
5 2.23163 -0.000328064 -0.00036335 0.209482 0 0
6 11.4725 0 0 0.862133 -0.058114 0.939856
7 0.615217 -0.993092 -0.810699 2.33902 0.155091 -0.714923
8 2.24752 0 0 0.114871 0.0703092 0.166296
9 1.11936 0 0 0.0687035 0.0585169 -0.351506
10 3.71348 -0.102641 0.102192 1.55999 -0.0420331 0.0798625
11 1.72615 0 0 -0.00207031 -0.0284523 -0.0390825
12 1.21114 0 0 0.00991419 0.0145859 -0.000446811
13 3.59919 -1.06012 0.0708885 1.55963 0.0016192 -0.0627623
14 1.66069 0 0 0.0179101 0.0757812 0.00940082
15 1.167 0 0 -0.0151704 0.0454571 0.0402758
16 2.18852 0.501039 0.0576587 1.57004 -0.0521616 0.225938
17 1.29609 0 0 -0.00692374 -0.0463195 -0.0403299
18 1.62202 0.000713348 -0.000471354 -0.017053 -0.0362867 0.00632047
19 1.22241 0 0 0.0104112 -0.0213342 0.0059681
20 1.76707 1.27612 0.0366411 1.57004 -0.0293956 0.261465
21 1.55588 0 0 -0.010148 0.0309802 -0.0220304
22 1.24273 0 0 -0.000479123 0.000360639 -0.0344316
23 0.784521 0 0 0.0158299 0.00390858 0.0455419
24 0.414037 2.6881 -16.1261 -0.000932534 0 3.14159
25 6.02794 0 0 0.663975 0.393926 0.336529
26 11.7344 0 0 0.00140265 0 2.27717
27 8.81167 0 0 -0.340954 0 0
28 5.77884 0 0 -0.228439 0 0
29 2.23249 0 0 -0.112515 0 0
30 11.4725 0 0 -0.619542 0.184649 -0.825477
31 0.615812 0.994371 -0.809165 -2.3539 0.275806 0.592872
32 2.24752 0 0 -0.0283232 0.0871513 1.10343
33 1.11936 0 0 0.0081809 0.0108904 1.06024
34 3.71349 0.102638 0.102192 -1.42083 1.49844 0.0701759
35 1.72615 0 0 -0.00145746 -0.000812352 1.17387
36 1.21112 0 0 0.00903998 0.0151434 1.13567
37 3.5992 1.06012 0.0708885 -1.43826 1.48621 0.194812
38 1.66069 0 0 0.00364894 0.00288174 1.12395
39 1.16699 0 0 -0.08431 -0.00693385 1.08712
40 2.18853 -0.50104 0.0576601 -1.56072 0.0689995 -0.0916275
41 1.29609 0 0 -0.0441795 -0.0155477 1.42138
42 1.62201 -0.000713348 -0.000471115 -0.00142281 -0.00173575 1.12848
43 1.22241 0 0 0.0340584 0.00743448 1.12759
44 1.76707 -1.27612 0.0366421 -1.54895 0.0898841 -0.0307353
45 1.55588 0 0 0.0323684 0.00387814 1.15702
46 1.24273 0 0 0.000528942 -0.000282077 1.16952
47 0.784532 0 0 -0.0113987 -0.00898193 1.08942
48 2.62234 0.639986 -36.6811 -2.9867 0.276261 -1.7443
49 -3.3008 1.98092 -0.0178604 -1.61333 0 0
50 0.00576591 1.98489 -0.0178719 -1.61332 0 0
51 0.00575638 2.07248 -0.0285492 -1.61332 0 0
52 -3.46178 2.07651 -0.0257416 -1.61332 0 0
53 -3.15015 2.07651 -0.0257378 -1.61332 0 0
54 -1.68436 2.09113 -0.0263634 -1.61332 0 0
55 -1.61192 2.09074 -0.0355606 -1.61332 0 0
56 -1.74901 2.09114 -0.0263596 -1.61332 0 0
57 -1.65881 2.09113 -0.0263634 -1.61333 0 0
time 22
0 1.938 -2.84623 -5.42474 0 0 -0.338214
1 6.02795 0 0 -0.271762 0.921561 -1.00333
2 11.7344 0 0 -0.00140293 0 -1.60899
3 8.81138 -0.000450134 -0.000112534 0.634795 0 0.000158159
4 5.77839 0.000286102 0 0.425313 0 0.000109362
5 2.23163 -0.000328064 -0.00036335 0.209482 0 0
6 11.4725 0 0 0.862133 -0.058114 0.939856
7 0.615217 -0.993092 -0.810699 2.33902 0.155091 -0.714923
8 2.24752 0 0 0.114871 0.0703092 0.166296
9 1.11936 0 0 0.0687035 0.0585169 -0.351506
10 3.71348 -0.102641 0.102192 1.55999 -0.0420331 0.0798625
11 1.72615 0 0 -0.00207031 -0.0284523 -0.0390825
12 1.21114 0 0 0.00991419 0.0145859 -0.000446811
13 3.59919 -1.06012 0.0708885 1.55963 0.0016192 -0.0627623
14 1.66069 0 0 0.0179101 0.0757812 0.00940082
15 1.167 0 0 -0.0151704 0.0454571 0.0402758
16 2.18852 0.501039 0.0576587 1.57004 -0.0521616 0.225938
17 1.29609 0 0 -0.00692374 -0.0463195 -0.0403299
18 1.62202 0.000713348 -0.000471354 -0.017053 -0.0362867 0.00632047
19 1.22241 0 0 0.0104112 -0.0213342 0.0059681
20 1.76707 1.27612 0.0366411 1.57004 -0.0293956 0.261465
21 1.55588 0 0 -0.010148 0.0309802 -0.0220304
22 1.24273 0 0 -0.000479123 0.000360639 -0.0344316
23 0.784521 0 0 0.0158299 0.00390858 0.0455419
24 0.414037 2.6881 -16.1261 -0.000932534 0 3.14159
25 6.02794 0 0 0.663975 0.393926 0.336529
26 11.7344 0 0 0.00140265 0 2.27717
27 8.81167 0 0 -0.340954 0 0
28 5.77884 0 0 -0.228439 0 0
29 2.23249 0 0 -0.112515 0 0
30 11.4725 0 0 -0.619542 0.184649 -0.825477
31 0.615812 0.994371 -0.809165 -2.3539 0.275806 0.592872
32 2.24752 0 0 -0.0283232 0.0871513 1.10343
33 1.11936 0 0 0.0081809 0.0108904 1.06024
34 3.71349 0.102638 0.102192 -1.42083 1.49844 0.0701759
35 1.72615 0 0 -0.00145746 -0.000812352 1.17387
36 1.21112 0 0 0.00903998 0.0151434 1.13567
37 3.5992 1.06012 0.0708885 -1.43826 1.48621 0.194812
38 1.66069 0 0 0.00364894 0.00288174 1.12395
39 1.16699 0 0 -0.08431 -0.00693385 1.08712
40 2.18853 -0.50104 0.0576601 -1.56072 0.0689995 -0.0916275
41 1.29609 0 0 -0.0441795 -0.0155477 1.42138
42 1.62201 -0.000713348 -0.000471115 -0.00142281 -0.00173575 1.12848
43 1.22241 0 0 0.0340584 0.00743448 1.12759
44 1.76707 -1.27612 0.0366421 -1.54895 0.0898841 -0.0307353
45 1.55588 0 0 0.0323684 0.00387814 1.15702
46 1.24273 0 0 0.000528942 -0.000282077 1.16952
47 0.784532 0 0 -0.0113987 -0.00898193 1.08942
48 2.62234 0.639986 -36.6811 -2.9867 0.276261 -1.7443
49 -3.3008 1.98092 -0.0178604 -1.61333 0 0
50 0.00576591 1.98489 -0.0178719 -1.61332 0 0
51 0.00575638 2.07248 -0.0285492 -1.61332 0 0
52 -3.46178 2.07651 -0.0257416 -1.61332 0 0
53 -3.15015 2.07651 -0.0257378 -1.61332 0 0
54 -1.68436 2.09113 -0.0263634 -1.61332 0 0
55 -1.61192 2.09074 -0.0355606 -1.61332 0 0
56 -1.74901 2.09114 -0.0263596 -1.61332 0 0
57 -1.65881 2.09113 -0.0263634 -1.61333 0 0
time 23
0 1.938 -2.84623 -5.42474 0 0 -0.338214
1 6.02795 0 0 -0.271762 0.921561 -1.00333
2 11.7344 0 0 -0.00140293 0 -1.60899
3 8.81138 -0.000450134 -0.000112534 0.634795 0 0.000158159
4 5.77839 0.000286102 0 0.425313 0 0.000109362
5 2.23163 -0.000328064 -0.00036335 0.209482 0 0
6 11.4725 0 0 0.862133 -0.058114 0.939856
7 0.615217 -0.993092 -0.810699 2.33902 0.155091 -0.714923
8 2.24752 0 0 0.114871 0.0703092 0.166296
9 1.11936 0 0 0.0687035 0.0585169 -0.351506
10 3.71348 -0.102641 0.102192 1.55999 -0.0420331 0.0798625
11 1.72615 0 0 -0.00207031 -0.0284523 -0.0390825
12 1.21114 0 0 0.00991419 0.0145859 -0.000446811
13 3.59919 -1.06012 0.0708885 1.55963 0.0016192 -0.0627623
14 1.66069 0 0 0.0179101 0.0757812 0.00940082
15 1.167 0 0 -0.0151704 0.0454571 0.0402758
16 2.18852 0.501039 0.0576587 1.57004 -0.0521616 0.225938
17 1.29609 0 0 -0.00692374 -0.0463195 -0.0403299
18 1.62202 0.000713348 -0.000471354 -0.017053 -0.0362867 0.00632047
19 1.22241 0 0 0.0104112 -0.0213342 0.0059681
20 1.76707 1.27612 0.0366411 1.57004 -0.0293956 0.261465
21 1.55588 0 0 -0.010148 0.0309802 -0.0220304
22 1.24273 0 0 -0.000479123 0.000360639 -0.0344316
23 0.784521 0 0 0.0158299 0.00390858 0.0455419
24 0.414037 2.6881 -16.1261 -0.000932534 0 3.14159
25 6.02794 0 0 0.663975 0.393926 0.336529
26 11.7344 0 0 0.00140265 0 2.27717
27 8.81167 0 0 -0.340954 0 0
28 5.77884 0 0 -0.228439 0 0
29 2.23249 0 0 -0.112515 0 0
30 11.4725 0 0 -0.619542 0.184649 -0.825477
31 0.615812 0.994371 -0.809165 -2.3539 0.275806 0.592872
32 2.24752 0 0 -0.0283232 0.0871513 1.10343
33 1.11936 0 0 0.0081809 0.0108904 1.06024
34 3.71349 0.102638 0.102192 -1.42083 1.49844 0.0701759
35 1.72615 0 0 -0.00145746 -0.000812352 1.17387
36 1.21112 0 0 0.00903998 0.0151434 1.13567
37 3.5992 1.06012 0.0708885 -1.43826 1.48621 0.194812
38 1.66069 0 0 0.00364894 0.00288174 1.12395
39 1.16699 0 0 -0.08431 -0.00693385 1.08712
40 2.18853 -0.50104 0.0576601 -1.56072 0.0689995 -0.0916275
41 1.29609 0 0 -0.0441795 -0.0155477 1.42138
42 1.62201 -0.000713348 -0.000471115 -0.00142281 -0.00173575 1.12848
43 1.22241 0 0 0.0340584 0.00743448 1.12759
44 1.76707 -1.27612 0.0366421 -1.54895 0.0898841 -0.0307353
45 1.55588 0 0 0.0323684 0.00387814 1.15702
46 1.24273 0 0 0.000528942 -0.000282077 1.16952
47 0.784532 0 0 -0.0113987 -0.00898193 1.08942
48 2.62234 0.639986 -36.6811 -2.9867 0.276261 -1.7443
49 -3.3008 1.98092 -0.0178604 -1.61333 0 0
50 0.00576591 1.98489 -0.0178719 -1.61332 0 0
51 0.00575638 2.07248 -0.0285492 -1.61332 0 0
52 -3.46178 2.07651 -0.0257416 -1.61332 0 0
53 -3.15015 2.07651 -0.0257378 -1.61332 0 0
54 -1.68436 2.09113 -0.0263634 -1.61332 0 0
55 -1.61192 2.09074 -0.0355606 -1.61332 0 0
56 -1.74901 2.09114 -0.0263596 -1.61332 0 0
57 -1.65881 2.09113 -0.0263634 -1.61333 0 0
time 24
0 1.938 -2.84623 -5.42474 0 0 -0.338214
1 6.02795 0 0 -0.271762 0.921561 -1.00333
2 11.7344 0 0 -0.00140293 0 -1.60899
3 8.81138 -0.000450134 -0.000112534 0.634795 0 0.000158159
4 5.77839 0.000286102 0 0.425313 0 0.000109362
5 2.23163 -0.000328064 -0.00036335 0.209482 0 0
6 11.4725 0 0 0.862133 -0.058114 0.939856
7 0.615217 -0.993092 -0.810699 2.33902 0.155091 -0.714923
8 2.24752 0 0 0.114871 0.0703092 0.166296
9 1.11936 0 0 0.0687035 0.0585169 -0.351506
10 3.71348 -0.102641 0.102192 1.55999 -0.0420331 0.0798625
11 1.72615 0 0 -0.00207031 -0.0284523 -0.0390825
12 1.21114 0 0 0.00991419 0.0145859 -0.000446811
13 3.59919 -1.06012 0.0708885 1.55963 0.0016192 -0.0627623
14 1.66069 0 0 0.0179101 0.0757812 0.00940082
15 1.167 0 0 -0.0151704 0.0454571 0.0402758
16 2.18852 0.501039 0.0576587 1.57004 -0.0521616 0.225938
17 1.29609 0 0 -0.00692374 -0.0463195 -0.0403299
18 1.62202 0.000713348 -0.000471354 -0.017053 -0.0362867 0.00632047
19 1.22241 0 0 0.0104112 -0.0213342 0.0059681
20 1.76707 1.27612 0.0366411 1.57004 -0.0293956 0.261465
21 1.55588 0 0 -0.010148 0.0309802 -0.0220304
22 1.24273 0 0 -0.000479123 0.000360639 -0.0344316
23 0.784521 0 0 0.0158299 0.00390858 0.0455419
24 0.414037 2.6881 -16.1261 -0.000932534 0 3.14159
25 6.02794 0 0 0.663975 0.393926 0.336529
26 11.7344 0 0 0.00140265 0 2.27717
27 8.81167 0 0 -0.340954 0 0
28 5.77884 0 0 -0.228439 0 0
29 2.23249 0 0 -0.112515 0 0
30 11.4725 0 0 -0.619542 0.184649 -0.825477
31 0.615812 0.994371 -0.809165 -2.3539 0.275806 0.592872
32 2.24752 0 0 -0.0283232 0.0871513 1.10343
33 1.11936 0 0 0.0081809 0.0108904 1.06024
34 3.71349 0.102638 0.102192 -1.42083 1.49844 0.0701759
35 1.72615 0 0 -0.00145746 -0.000812352 1.17387
36 1.21112 0 0 0.00903998 0.0151434 1.13567
37 3.5992 1.06012 0.0708885 -1.43826 1.48621 0.194812
38 1.66069 0 0 0.00364894 0.00288174 1.12395
39 1.16699 0 0 -0.08431 -0.00693385 1.08712
40 2.18853 -0.50104 0.0576601 -1.56072 0.0689995 -0.0916275
41 1.29609 0 0 -0.0441795 -0.0155477 1.42138
42 1.62201 -0.000713348 -0.000471115 -0.00142281 -0.00173575 1.12848
43 1.22241 0 0 0.0340584 0.00743448 1.12759
44 1.76707 -1.27612 0.0366421 -1.54895 0.0898841 -0.0307353
45 1.55588 0 0 0.0323684 0.00387814 1.15702
46 1.24273 0 0 0.000528942 -0.000282077 1.16952
47 0.784532 0 0 -0.0113987 -0.00898193 1.08942
48 2.62234 0.639986 -36.6811 -2.9867 0.276261 -1.7443
49 -3.3008 1.98092 -0.0178604 -1.61333 0 0
50 0.00576591 1.98489 -0.0178719 -1.61332 0 0
51 0.00575638 2.07248 -0.0285492 -1.61332 0 0
52 -3.46178 2.07651 -0.0257416 -1.61332 0 0
53 -3.15015 2.07651 -0.0257378 -1.61332 0 0
54 -1.68436 2.09113 -0.0263634 -1.61332 0 0
55 -1.61192 2.09074 -0.0355606 -1.61332 0 0
56 -1.74901 2.09114 -0.0263596 -1.61332 0 0
57 -1.65881 2.09113 -0.0263634 -1.61333 0 0
time 25
0 1.938 -2.84623 -5.42474 0 0 -0.338214
1 6.02795 0 0 -0.271762 0.921561 -1.00333
2 11.7344 0 0 -0.00140293 0 -1.60899
3 8.81138 -0.000450134 -0.000112534 0.634795 0 0.000158159
4 5.77839 0.000286102 0 0.425313 0 0.000109362
5 2.23163 -0.000328064 -0.00036335 0.209482 0 0
6 11.4725 0 0 0.862133 -0.058114 0.939856
7 0.615217 -0.993092 -0.810699 2.33902 0.155091 -0.714923
8 2.24752 0 0 0.114871 0.0703092 0.166296
9 1.11936 0 0 0.0687035 0.0585169 -0.351506
10 3.71348 -0.102641 0.102192 1.55999 -0.0420331 0.0798625
11 1.72615 0 0 -0.00207031 -0.0284523 -0.0390825
12 1.21114 0 0 0.00991419 0.0145859 -0.000446811
13 3.59919 -1.06012 0.0708885 1.55963 0.0016192 -0.0627623
14 1.66069 0 0 0.0179101 0.0757812 0.00940082
15 1.167 0 0 -0.0151704 0.0454571 0.0402758
16 2.18852 0.501039 0.0576587 1.57004 -0.0521616 0.225938
17 1.29609 0 0 -0.00692374 -0.0463195 -0.0403299
18 1.62202 0.000713348 -0.000471354 -0.017053 -0.0362867 0.00632047
19 1.22241 0 0 0.0104112 -0.0213342 0.0059681
20 1.76707 1.27612 0.0366411 1.57004 -0.0293956 0.261465
21 1.55588 0 0 -0.010148 0.0309802 -0.0220304
22 1.24273 0 0 -0.000479123 0.000360639 -0.0344316
23 0.784521 0 0 0.0158299 0.00390858 0.0455419
24 0.414037 2.6881 -16.1261 -0.000932534 0 3.14159
25 6.02794 0 0 0.663975 0.393926 0.336529
26 11.7344 0 0 0.00140265 0 2.27717
27 8.81167 0 0 -0.340954 0 0
28 5.77884 0 0 -0.228439 0 0
29 2.23249 0 0 -0.112515 0 0
30 11.4725 0 0 -0.619542 0.184649 -0.825477
31 0.615812 0.994371 -0.809165 -2.3539 0.275806 0.592872
32 2.24752 0 0 -0.0283232 0.0871513 1.10343
33 1.11936 0 0 0.0081809 0.0108904 1.06024
34 3.71349 0.102638 0.102192 -1.42083 1.49844 0.0701759
35 1.72615 0 0 -0.00145746 -0.000812352 1.17387
36 1.21112 0 0 0.00903998 0.0151434 1.13567
37 3.5992 1.06012 0.0708885 -1.43826 1.48621 0.194812
38 1.66069 0 0 0.00364894 0.00288174 1.12395
39 1.16699 0 0 -0.08431 -0.00693385 1.08712
40 2.18853 -0.50104 0.0576601 -1.56072 0.0689995 -0.0916275
41 1.29609 0 0 -0.0441795 -0.0155477 1.42138
42 1.62201 -0.000713348 -0.000471115 -0.00142281 -0.00173575 1.12848
43 1.22241 0 0 0.0340584 0.00743448 1.12759
44 1.76707 -1.27612 0.0366421 -1.54895 0.0898841 -0.0307353
45 1.55588 0 0 0.0323684 0.00387814 1.15702
46 1.24273 0 0 0.000528942 -0.000282077 1.16952
47 0.784532 0 0 -0.0113987 -0.00898193 1.08942
48 2.62234 0.639986 -36.6811 -2.9867 0.276261 -1.7443
49 -3.3008 1.98092 -0.0178604 -1.61333 0 0
50 0.00576591 1.98489 -0.0178719 -1.61332 0 0
51 0.00575638 2.07248 -0.0285492 -1.61332 0 0
52 -3.46178 2.07651 -0.0257416 -1.61332 0 0
53 -3.15015 2.07651 -0.0257378 -1.61332 0 0
54 -1.68436 2.09113 -0.0263634 -1.61332 0 0
55 -1.61192 2.09074 -0.0355606 -1.61332 0 0
56 -1.74901 2.09114 -0.0263596 -1.61332 0 0
57 -1.65881 2.09113 -0.0263634 -1.61333 0 0
time 26
0 1.938 -2.84623 -5.42474 0 0 -0.338214
1 6.02795 0 0 -0.271762 0.921561 -1.00333
2 11.7344 0 0 -0.00140293 0 -1.60899
3 8.81138 -0.000450134 -0.000112534 0.634795 0 0.000158159
4 5.77839 0.000286102 0 0.425313 0 0.000109362
5 2.23163 -0.000328064 -0.00036335 0.209482 0 0
6 11.4725 0 0 0.862133 -0.058114 0.939856
7 0.615217 -0.993092 -0.810699 2.33902 0.155091 -0.714923
8 2.24752 0 0 0.114871 0.0703092 0.166296
9 1.11936 0 0 0.0687035 0.0585169 -0.351506
10 3.71348 -0.102641 0.102192 1.55999 -0.0420331 0.0798625
11 1.72615 0 0 -0.00207031 -0.0284523 -0.0390825
12 1.21114 0 0 0.00991419 0.0145859 -0.000446811
13 3.59919 -1.06012 0.0708885 1.55963 0.0016192 -0.0627623
14 1.66069 0 0 0.0179101 0.0757812 0.00940082
15 1.167 0 0 -0.0151704 0.0454571 0.0402758
16 2.18852 0.501039 0.0576587 1.57004 -0.0521616 0.225938
17 1.29609 0 0 -0.00692374 -0.0463195 -0.0403299
18 1.62202 0.000713348 -0.000471354 -0.017053 -0.0362867 0.00632047
19 1.22241 0 0 0.0104112 -0.0213342 0.0059681
20 1.76707 1.27612 0.0366411 1.57004 -0.0293956 0.261465
21 1.55588 0 0 -0.010148 0.0309802 -0.0220304
22 1.24273 0 0 -0.000479123 0.000360639 -0.0344316
23 0.784521 0 0 0.0158299 0.00390858 0.0455419
24 0.414037 2.6881 -16.1261 -0.000932534 0 3.14159
25 6.02794 0 0 0.663975 0.393926 0.336529
26 11.7344 0 0 0.00140265 0 2.27717
27 8.81167 0 0 -0.340954 0 0
28 5.77884 0 0 -0.228439 0 0
29 2.23249 0 0 -0.112515 0 0
30 11.4725 0 0 -0.619542 0.184649 -0.825477
31 0.615812 0.994371 -0.809165 -2.3539 0.275806 0.592872
32 2.24752 0 0 -0.0283232 0.0871513 1.10343
33 1.11936 0 0 0.0081809 0.0108904 1.06024
34 3.71349 0.102638 0.102192 -1.42083 1.49844 0.0701759
35 1.72615 0 0 -0.00145746 -0.000812352 1.17387
36 1.21112 0 0 0.00903998 0.0151434 1.13567
37 3.5992 1.06012 0.0708885 -1.43826 1.48621 0.194812
38 1.66069 0 0 0.00364894 0.00288174 1.12395
39 1.16699 0 0 -0.08431 -0.00693385 1.08712
40 2.18853 -0.50104 0.0576601 -1.56072 0.0689995 -0.0916275
41 1.29609 0 0 -0.0441795 -0.0155477 1.42138
42 1.62201 -0.000713348 -0.000471115 -0.00142281 -0.00173575 1.12848
43 1.22241 0 0 0.0340584 0.00743448 1.12759
44 1.76707 -1.27612 0.0366421 -1.54895 0.0898841 -0.0307353
45 1.55588 0 0 0.0323684 0.00387814 1.15702
46 1.24273 0 0 0.000528942 -0.000282077 1.16952
47 0.784532 0 0 -0.0113987 -0.00898193 1.08942
48 2.62234 0.639986 -36.6811 -2.9867 0.276261 -1.7443
49 -3.3008 1.98092 -0.0178604 -1.61333 0 0
50 0.00576591 1.98489 -0.0178719 -1.61332 0 0
51 0.00575638 2.07248 -0.0285492 -1.61332 0 0
52 -3.46178 2.07651 -0.0257416 -1.61332 0 0
53 -3.15015 2.07651 -0.0257378 -1.61332 0 0
54 -1.68436 2.09113 -0.0263634 -1.61332 0 0
55 -1.61192 2.09074 -0.0355606 -1.61332 0 0
56 -1.74901 2.09114 -0.0263596 -1.61332 0 0
57 -1.65881 2.09113 -0.0263634 -1.61333 0 0
time 27
0 1.938 -2.84623 -5.42474 0 0 -0.338214
1 6.02795 0 0 -0.271762 0.921561 -1.00333
2 11.7344 0 0 -0.00140293 0 -1.60899
3 8.81138 -0.000450134 -0.000112534 0.634795 0 0.000158159
4 5.77839 0.000286102 0 0.425313 0 0.000109362
5 2.23163 -0.000328064 -0.00036335 0.209482 0 0
6 11.4725 0 0 0.862133 -0.058114 0.939856
7 0.615217 -0.993092 -0.810699 2.33902 0.155091 -0.714923
8 2.24752 0 0 0.114871 0.0703092 0.166296
9 1.11936 0 0 0.0687035 0.0585169 -0.351506
10 3.71348 -0.102641 0.102192 1.55999 -0.0420331 0.0798625
11 1.72615 0 0 -0.00207031 -0.0284523 -0.0390825
12 1.21114 0 0 0.00991419 0.0145859 -0.000446811
13 3.59919 -1.06012 0.0708885 1.55963 0.0016192 -0.0627623
14 1.66069 0 0 0.0179101 0.0757812 0.00940082
15 1.167 0 0 -0.0151704 0.0454571 0.0402758
16 2.18852 0.501039 0.0576587 1.57004 -0.0521616 0.225938
17 1.29609 0 0 -0.00692374 -0.0463195 -0.0403299
18 1.62202 0.000713348 -0.000471354 -0.017053 -0.0362867 0.00632047
19 1.22241 0 0 0.0104112 -0.0213342 0.0059681
20 1.76707 1.27612 0.0366411 1.57004 -0.0293956 0.261465
21 1.55588 0 0 -0.010148 0.0309802 -0.0220304
22 1.24273 0 0 -0.000479123 0.000360639 -0.0344316
23 0.784521 0 0 0.0158299 0.00390858 0.0455419
24 0.414037 2.6881 -16.1261 -0.000932534 0 3.14159
25 6.02794 0 0 0.663975 0.393926 0.336529
26 11.7344 0 0 0.00140265 0 2.27717
27 8.81167 0 0 -0.340954 0 0
28 5.77884 0 0 -0.228439 0 0
29 2.23249 0 0 -0.112515 0 0
30 11.4725 0 0 -0.619542 0.184649 -0.825477
31 0.615812 0.994371 -0.809165 -2.3539 0.275806 0.592872
32 2.24752 0 0 -0.0283232 0.0871513 1.10343
33 1.11936 0 0 0.0081809 0.0108904 1.06024
34 3.71349 0.102638 0.102192 -1.42083 1.49844 0.0701759
35 1.72615 0 0 -0.00145746 -0.000812352 1.17387
36 1.21112 0 0 0.00903998 0.0151434 1.13567
37 3.5992 1.06012 0.0708885 -1.43826 1.48621 0.194812
38 1.66069 0 0 0.00364894 0.00288174 1.12395
39 1.16699 0 0 -0.08431 -0.00693385 1.08712
40 2.18853 -0.50104 0.0576601 -1.56072 0.0689995 -0.0916275
41 1.29609 0 0 -0.0441795 -0.0155477 1.42138
42 1.62201 -0.000713348 -0.000471115 -0.00142281 -0.00173575 1.12848
43 1.22241 0 0 0.0340584 0.00743448 1.12759
44 1.76707 -1.27612 0.0366421 -1.54895 0.0898841 -0.0307353
45 1.55588 0 0 0.0323684 0.00387814 1.15702
46 1.24273 0 0 0.000528942 -0.000282077 1.16952
47 0.784532 0 0 -0.0113987 -0.00898193 1.08942
48 2.62234 0.639986 -36.6811 -2.9867 0.276261 -1.7443
49 -3.3008 1.98092 -0.0178604 -1.61333 0 0
50 0.00576591 1.98489 -0.0178719 -1.61332 0 0
51 0.00575638 2.07248 -0.0285492 -1.61332 0 0
52 -3.46178 2.07651 -0.0257416 -1.61332 0 0
53 -3.15015 2.07651 -0.0257378 -1.61332 0 0
54 -1.68436 2.09113 -0.0263634 -1.61332 0 0
55 -1.61192 2.09074 -0.0355606 -1.61332 0 0
56 -1.74901 2.09114 -0.0263596 -1.61332 0 0
57 -1.65881 2.09113 -0.0263634 -1.61333 0 0
time 28
0 1.938 -2.84623 -5.42474 0 0 -0.338214
1 6.02795 0 0 -0.271762 0.921561 -1.00333
2 11.7344 0 0 -0.00140293 0 -1.60899
3 8.81138 -0.000450134 -0.000112534 0.634795 0 0.000158159
4 5.77839 0.000286102 0 0.425313 0 0.000109362
5 2.23163 -0.000328064 -0.00036335 0.209482 0 0
6 11.4725 0 0 0.862133 -0.058114 0.939856
7 0.615217 -0.993092 -0.810699 2.33902 0.155091 -0.714923
8 2.24752 0 0 0.114871 0.0703092 0.166296
9 1.11936 0 0 0.0687035 0.0585169 -0.351506
10 3.71348 -0.102641 0.102192 1.55999 -0.0420331 0.0798625
11 1.72615 0 0 -0.00207031 -0.0284523 -0.0390825
12 1.21114 0 0 0.00991419 0.0145859 -0.000446811
13 3.59919 -1.06012 0.0708885 1.55963 0.0016192 -0.0627623
14 1.66069 0 0 0.0179101 0.0757812 0.00940082
15 1.167 0 0 -0.0151704 0.0454571 0.0402758
16 2.18852 0.501039 0.0576587 1.57004 -0.0521616 0.225938
17 1.29609 0 0 -0.00692374 -0.0463195 -0.0403299
18 1.62202 0.000713348 -0.000471354 -0.017053 -0.0362867 0.00632047
19 1.22241 0 0 0.0104112 -0.0213342 0.0059681
20 1.76707 1.27612 0.0366411 1.57004 -0.0293956 0.261465
21 1.55588 0 0 -0.010148 0.0309802 -0.0220304
22 1.24273 0 0 -0.000479123 0.000360639 -0.0344316
23 0.784521 0 0 0.0158299 0.00390858 0.0455419
24 0.414037 2.6881 -16.1261 -0.000932534 0 3.14159
25 6.02794 0 0 0.663975 0.393926 0.336529
26 11.7344 0 0 0.00140265 0 2.27717
27 8.81167 0 0 -0.340954 0 0
28 5.77884 0 0 -0.228439 0 0
29 2.23249 0 0 -0.112515 0 0
30 11.4725 0 0 -0.619542 0.184649 -0.825477
31 0.615812 0.994371 -0.809165 -2.3539 0.275806 0.592872
32 2.24752 0 0 -0.0283232 0.0871513 1.10343
33 1.11936 0 0 0.0081809 0.0108904 1.06024
34 3.71349 0.102638 0.102192 -1.42083 1.49844 0.0701759
35 1.72615 0 0 -0.00145746 -0.000812352 1.17387
36 1.21112 0 0 0.00903998 0.0151434 1.13567
37 3.5992 1.06012 0.0708885 -1.43826 1.48621 0.194812
38 1.66069 0 0 0.00364894 0.00288174 1.12395
39 1.16699 0 0 -0.08431 -0.00693385 1.08712
40 2.18853 -0.50104 0.0576601 -1.56072 0.0689995 -0.0916275
41 1.29609 0 0 -0.0441795 -0.0155477 1.42138
42 1.62201 -0.000713348 -0.000471115 -0.00142281 -0.00173575 1.12848
43 1.22241 0 0 0.0340584 0.00743448 1.12759
44 1.76707 -1.27612 0.0366421 -1.54895 0.0898841 -0.0307353
45 1.55588 0 0 0.0323684 0.00387814 1.15702
46 1.24273 0 0 0.000528942 -0.000282077 1.16952
47 0.784532 0 0 -0.0113987 -0.00898193 1.08942
48 2.62234 0.639986 -36.6811 -2.9867 0.276261 -1.7443
49 -3.3008 1.98092 -0.0178604 -1.61333 0 0
50 0.00576591 1.98489 -0.0178719 -1.61332 0 0
51 0.00575638 2.07248 -0.0285492 -1.61332 0 0
52 -3.46178 2.07651 -0.0257416 -1.61332 0 0
53 -3.15015 2.07651 -0.0257378 -1.61332 0 0
54 -1.68436 2.09113 -0.0263634 -1.61332 0 0
55 -1.61192 2.09074 -0.0355606 -1.61332 0 0
56 -1.74901 2.09114 -0.0263596 -1.61332 0 0
57 -1.65881 2.09113 -0.0263634 -1.61333 0 0
time 29
0 1.938 -2.84623 -5.42474 0 0 -0.338214
1 6.02795 0 0 -0.271762 0.921561 -1.00333
2 11.7344 0 0 -0.00140293 0 -1.60899
3 8.81138 -0.000450134 -0.000112534 0.634795 0 0.000158159
4 5.77839 0.000286102 0 0.425313 0 0.000109362
5 2.23163 -0.000328064 -0.00036335 0.209482 0 0
6 11.4725 0 0 0.862133 -0.058114 0.939856
7 0.615217 -0.993092 -0.810699 2.33902 0.155091 -0.714923
8 2.24752 0 0 0.114871 0.0703092 0.166296
9 1.11936 0 0 0.0687035 0.0585169 -0.351506
10 3.71348 -0.102641 0.102192 1.55999 -0.0420331 0.0798625
11 1.72615 0 0 -0.00207031 -0.0284523 -0.0390825
12 1.21114 0 0 0.00991419 0.0145859 -0.000446811
13 3.59919 -1.06012 0.0708885 1.55963 0.0016192 -0.0627623
14 1.66069 0 0 0.0179101 0.0757812 0.00940082
15 1.167 0 0 -0.0151704 0.0454571 0.0402758
16 2.18852 0.501039 0.0576587 1.57004 -0.0521616 0.225938
17 1.29609 0 0 -0.00692374 -0.0463195 -0.0403299
18 1.62202 0.000713348 -0.000471354 -0.017053 -0.0362867 0.00632047
19 1.22241 0 0 0.0104112 -0.0213342 0.0059681
20 1.76707 1.27612 0.0366411 1.57004 -0.0293956 0.261465
21 1.55588 0 0 -0.010148 0.0309802 -0.0220304
22 1.24273 0 0 -0.000479123 0.000360639 -0.0344316
23 0.784521 0 0 0.0158299 0.00390858 0.0455419
24 0.414037 2.6881 -16.1261 -0.000932534 0 3.14159
25 6.02794 0 0 0.663975 0.393926 0.336529
26 11.7344 0 0 0.00140265 0 2.27717
27 8.81167 0 0 -0.340954 0 0
28 5.77884 0 0 -0.228439 0 0
29 2.23249 0 0 -0.112515 0 0
30 11.4725 0 0 -0.619542 0.184649 -0.825477
31 0.615812 0.994371 -0.809165 -2.3539 0.275806 0.592872
32 2.24752 0 0 -0.0283232 0.0871513 1.10343
33 1.11936 0 0 0.0081809 0.0108904 1.06024
34 3.71349 0.102638 0.102192 -1.42083 1.49844 0.0701759
35 1.72615 0 0 -0.00145746 -0.000812352 1.17387
36 1.21112 0 0 0.00903998 0.0151434 1.13567
37 3.5992 1.06012 0.0708885 -1.43826 1.48621 0.194812
38 1.66069 0 0 0.00364894 0.00288174 1.12395
39 1.16699 0 0 -0.08431 -0.00693385 1.08712
40 2.18853 -0.50104 0.0576601 -1.56072 0.0689995 -0.0916275
41 1.29609 0 0 -0.0441795 -0.0155477 1.42138
42 1.62201 -0.000713348 -0.000471115 -0.00142281 -0.00173575 1.12848
43 1.22241 0 0 0.0340584 0.00743448 1.12759
44 1.76707 -1.27612 0.0366421 -1.54895 0.0898841 -0.0307353
45 1.55588 0 0 0.0323684 0.00387814 1.15702
46 1.24273 0 0 0.000528942 -0.000282077 1.16952
47 0.784532 0 0 -0.0113987 -0.00898193 1.08942
48 2.62234 0.639986 -36.6811 -2.9867 0.276261 -1.7443
49 -3.3008 1.98092 -0.0178604 -1.61333 0 0
50 0.00576591 1.98489 -0.0178719 -1.61332 0 0
51 0.00575638 2.07248 -0.0285492 -1.61332 0 0
52 -3.46178 2.07651 -0.0257416 -1.61332 0 0
53 -3.15015 2.07651 -0.0257378 -1.61332 0 0
54 -1.68436 2.09113 -0.0263634 -1.61332 0 0
55 -1.61192 2.09074 -0.0355606 -1.61332 0 0
56 -1.74901 2.09114 -0.0263596 -1.61332 0 0
57 -1.65881 2.09113 -0.0263634 -1.61333 0 0
time 30
0 1.938 -2.84623 -5.42474 0 0 -0.338214
1 6.02795 0 0 -0.271762 0.921561 -1.00333
2 11.7344 0 0 -0.00140293 0 -1.60899
3 8.81138 -0.000450134 -0.000112534 0.634795 0 0.000158159
4 5.77839 0.000286102 0 0.425313 0 0.000109362
5 2.23163 -0.000328064 -0.00036335 0.209482 0 0
6 11.4725 0 0 0.862133 -0.058114 0.939856
7 0.615217 -0.993092 -0.810699 2.33902 0.155091 -0.714923
8 2.24752 0 0 0.114871 0.0703092 0.166296
9 1.11936 0 0 0.0687035 0.0585169 -0.351506
10 3.71348 -0.102641 0.102192 1.55999 -0.0420331 0.0798625
11 1.72615 0 0 -0.00207031 -0.0284523 -0.0390825
12 1.21114 0 0 0.00991419 0.0145859 -0.000446811
13 3.59919 -1.06012 0.0708885 1.55963 0.0016192 -0.0627623
14 1.66069 0 0 0.0179101 0.0757812 0.00940082
15 1.167 0 0 -0.0151704 0.0454571 0.0402758
16 2.18852 0.501039 0.0576587 1.57004 -0.0521616 0.225938
17 1.29609 0 0 -0.00692374 -0.0463195 -0.0403299
18 1.62202 0.000713348 -0.000471354 -0.017053 -0.0362867 0.00632047
19 1.22241 0 0 0.0104112 -0.0213342 0.0059681
20 1.76707 1.27612 0.0366411 1.57004 -0.0293956 0.261465
21 1.55588 0 0 -0.010148 0.0309802 -0.0220304
22 1.24273 0 0 -0.000479123 0.000360639 -0.0344316
23 0.784521 0 0 0.0158299 0.00390858 0.0455419
24 0.414037 2.6881 -16.1261 -0.000932534 0 3.14159
25 6.02794 0 0 0.663975 0.393926 0.336529
26 11.7344 0 0 0.00140265 0 2.27717
27 8.81167 0 0 -0.340954 0 0
28 5.77884 0 0 -0.228439 0 0
29 2.23249 0 0 -0.112515 0 0
30 11.4725 0 0 -0.619542 0.184649 -0.825477
31 0.615812 0.994371 -0.809165 -2.3539 0.275806 0.592872
32 2.24752 0 0 -0.0283232 0.0871513 1.10343
33 1.11936 0 0 0.0081809 0.0108904 1.06024
34 3.71349 0.102638 0.102192 -1.42083 1.49844 0.0701759
35 1.72615 0 0 -0.00145746 -0.000812352 1.17387
36 1.21112 0 0 0.00903998 0.0151434 1.13567
37 3.5992 1.06012 0.0708885 -1.43826 1.48621 0.194812
38 1.66069 0 0 0.00364894 0.00288174 1.12395
39 1.16699 0 0 -0.08431 -0.00693385 1.08712
40 2.18853 -0.50104 0.0576601 -1.56072 0.0689995 -0.0916275
41 1.29609 0 0 -0.0441795 -0.0155477 1.42138
42 1.62201 -0.000713348 -0.000471115 -0.00142281 -0.00173575 1.12848
43 1.22241 0 0 0.0340584 0.00743448 1.12759
44 1.76707 -1.27612 0.0366421 -1.54895 0.0898841 -0.0307353
45 1.55588 0 0 0.0323684 0.00387814 1.15702
46 1.24273 0 0 0.000528942 -0.000282077 1.16952
47 0.784532 0 0 -0.0113987 -0.00898193 1.08942
48 2.62234 0.639986 -36.6811 -2.9867 0.276261 -1.7443
49 -3.3008 1.98092 -0.0178604 -1.61333 0 0
50 0.00576591 1.98489 -0.0178719 -1.61332 0 0
51 0.00575638 2.07248 -0.0285492 -1.61332 0 0
52 -3.46178 2.07651 -0.0257416 -1.61332 0 0
53 -3.15015 2.07651 -0.0257378 -1.61332 0 0
54 -1.68436 2.09113 -0.0263634 -1.61332 0 0
55 -1.61192 2.09074 -0.0355606 -1.61332 0 0
56 -1.74901 2.09114 -0.0263596 -1.61332 0 0
57 -1.65881 2.09113 -0.0263634 -1.61333 0 0
end
