//Sequence File generated by the Wall Worm SMD Exporter PRO 1.99
//www.wallworm.com
version 1
nodes
0 "b_l_clav" -1
1 "b_l_upperarm" 0
2 "b_l_forearm" 1
3 "b_l_twist3" 2
4 "b_l_twist2" 2
5 "b_l_twist1" 2
6 "b_l_hand" 2
7 "b_l_thumb001" 6
8 "b_l_thumb002" 7
9 "b_l_thumb003" 8
10 "b_l_middle001" 6
11 "b_l_middle002" 10
12 "b_l_middle003" 11
13 "b_l_index001" 6
14 "b_l_index002" 13
15 "b_l_index003" 14
16 "b_l_hand_ringsqueezer" 6
17 "b_l_ring001" 16
18 "b_l_ring002" 17
19 "b_l_ring003" 18
20 "b_l_hand_pinkysqueezer" 6
21 "b_l_pinky001" 20
22 "b_l_pinky002" 21
23 "b_l_pinky003" 22
24 "b_r_clav" -1
25 "b_r_upperarm" 24
26 "b_r_forearm" 25
27 "b_r_twist3" 26
28 "b_r_twist2" 26
29 "b_r_twist1" 26
30 "b_r_hand" 26
31 "b_r_thumb001" 30
32 "b_r_thumb002" 31
33 "b_r_thumb003" 32
34 "b_r_middle001" 30
35 "b_r_middle002" 34
36 "b_r_middle003" 35
37 "b_r_index001" 30
38 "b_r_index002" 37
39 "b_r_index003" 38
40 "b_r_hand_ringsqueezer" 30
41 "b_r_ring001" 40
42 "b_r_ring002" 41
43 "b_r_ring003" 42
44 "b_r_hand_pinkysqueezer" 30
45 "b_r_pinky001" 44
46 "b_r_pinky002" 45
47 "b_r_pinky003" 46
48 "b_zero" -1
49 "d_phone" -1
50 "d_menu" 49
51 "d_meme" 49
52 "d_lightup" 49
53 "d_call" 49
54 "d_backgroundstuff" 49
55 "d_7" 49
56 "d_2" 49
57 "d_0b" 49
58 "d_0a" 49
end
skeleton
time 0
0 1.938 -2.84623 -11.5177 0 0 0
1 6.02794 0 0 -1.2072 0.41011 -1.83469
2 11.7344 0 0 -0.00140298 0 -1.3804
3 8.81138 -0.000450134 -0.000112057 0.587413 0 0.000157846
4 5.77839 0.000286102 0 0.393566 0 0.000108863
5 2.23163 -0.000328064 -0.000364304 0.193846 0 0
6 11.4725 0 0 0.600613 -0.022579 0.27386
7 0.615218 -0.993091 -0.8107 2.82704 0.355504 -0.444793
8 2.24752 0 0 0.090344 0.0910422 -0.073932
9 1.11936 0 0 0.0603409 0.0454306 -0.321969
10 3.71348 -0.10264 0.102191 1.55929 0.352511 0.0754344
11 1.72615 0 0 0.00902873 -0.0270616 -0.433803
12 1.21113 0 0 0.00354511 0.0172763 -0.395057
13 3.59919 -1.06012 0.070888 1.55869 0.396161 -0.0674144
14 1.66069 0 0 -0.0126177 0.0731066 -0.386254
15 1.167 0 0 -0.0253569 0.0266385 -0.354066
16 2.18852 0.50104 0.0576587 1.57004 -0.0310725 0.225922
17 1.29609 0 0 0.0114265 -0.0454194 -0.435318
18 1.62201 0.000713825 -0.000472069 -0.0017872 -0.0400527 -0.388522
19 1.22241 0 0 0.0161168 -0.0122075 -0.388536
20 1.76707 1.27612 0.0366411 1.57004 -0.00830634 0.261449
21 1.55588 0 0 -0.0212789 0.0246986 -0.416704
22 1.24273 0 0 -0.00058109 0.000148592 -0.429
23 0.784523 0 0 0.0131114 0.00969339 -0.348994
24 -1.93761 -2.84623 -11.5177 -0.000932534 0 3.14159
25 6.02794 0 0 0.686302 0.1855 0.910121
26 11.7344 0 0 0.00140265 0 1.34432
27 8.81167 0 0 1.57062 0 0
28 5.77884 0 0 1.05232 0 0
29 2.23249 0 0 0.518305 0 0
30 11.4725 0 0 1.57062 0.182453 -0.116632
31 0.615812 0.994372 -0.809166 -2.75079 0.325437 0.793311
32 2.24752 0 0 -0.0914701 -0.103439 -0.0239577
33 1.11936 0 0 -0.119206 0.171032 -0.185681
34 3.71348 0.102639 0.10219 -1.58909 0.862034 -0.119426
35 1.72615 0 0 -0.0146904 -0.0156263 0.786665
36 1.21112 0 0 0.000742672 0.0176205 0.639583
37 3.5992 1.06012 0.0708885 -1.63119 0.565989 -0.0670042
38 1.66069 0 0 0.0236725 0.0479982 0.681077
39 1.16699 0 0 0.00219282 -0.00509786 0.836227
40 2.18853 -0.50104 0.0576591 -1.56385 0.0595169 -0.173895
41 1.29609 0 0 -0.0829927 -0.0261582 0.746444
42 1.62201 -0.000711441 -0.000470161 -0.0204121 -0.0253736 0.977118
43 1.2224 0 0 -0.00883904 -0.00173473 0.485149
44 1.76707 -1.27612 0.0366402 -1.56318 0.0589349 -0.145416
45 1.55588 0 0 0.0303736 0.011842 0.90458
46 1.24273 0 0 0.000598415 0 0.620514
47 0.784531 0 0 -0.0124134 0.0105723 0.417843
48 0 0 0 0 0 0
49 -8.36355 -22.2534 -3.80518 2.81776 0.100603 2.5928
50 -3.3008 2.07667 -0.0219362 -1.61332 0 0
51 0.00576639 1.98489 -0.0178738 -1.61332 0 0
52 0.0057559 2.07248 -0.0285532 -1.61332 0 0
53 -3.46175 1.98076 -0.0216689 -1.61332 0 0
54 -3.15015 2.07651 -0.0257411 -1.61332 0 0
55 -1.68436 1.98075 -0.0216703 -1.61332 0 0
56 -1.09015 1.98075 -0.0216684 -1.61332 0 0
57 -1.58629 1.98075 -0.0216677 -1.61332 0 0
58 -1.31274 1.98074 -0.0216734 -1.61332 0 0
time 1
0 1.938 -2.84623 -11.5177 0 0 0
1 6.02794 0 0 -1.2072 0.41011 -1.83469
2 11.7344 0 0 -0.00140298 0 -1.3804
3 8.81138 -0.000450134 -0.000112057 0.587413 0 0.000157846
4 5.77839 0.000286102 0 0.393566 0 0.000108863
5 2.23163 -0.000328064 -0.000364304 0.193846 0 0
6 11.4725 0 0 0.600613 -0.022579 0.27386
7 0.615218 -0.993091 -0.8107 2.82704 0.355504 -0.444793
8 2.24752 0 0 0.090344 0.0910422 -0.073932
9 1.11936 0 0 0.0603409 0.0454306 -0.321969
10 3.71348 -0.10264 0.102191 1.55929 0.352511 0.0754344
11 1.72615 0 0 0.00902873 -0.0270616 -0.433803
12 1.21113 0 0 0.00354511 0.0172763 -0.395057
13 3.59919 -1.06012 0.070888 1.55869 0.396161 -0.0674144
14 1.66069 0 0 -0.0126177 0.0731066 -0.386254
15 1.167 0 0 -0.0253569 0.0266385 -0.354066
16 2.18852 0.50104 0.0576587 1.57004 -0.0310725 0.225922
17 1.29609 0 0 0.0114265 -0.0454194 -0.435318
18 1.62201 0.000713825 -0.000472069 -0.0017872 -0.0400527 -0.388522
19 1.22241 0 0 0.0161168 -0.0122075 -0.388536
20 1.76707 1.27612 0.0366411 1.57004 -0.00830634 0.261449
21 1.55588 0 0 -0.0212789 0.0246986 -0.416704
22 1.24273 0 0 -0.00058109 0.000148592 -0.429
23 0.784523 0 0 0.0131114 0.00969339 -0.348994
24 -1.93761 -2.84623 -11.5177 -0.000932534 0 3.14159
25 6.02794 0 0 0.686302 0.1855 0.910121
26 11.7344 0 0 0.00140265 0 1.34432
27 8.81167 0 0 1.57062 0 0
28 5.77884 0 0 1.05232 0 0
29 2.23249 0 0 0.518305 0 0
30 11.4725 0 0 1.57062 0.182453 -0.116632
31 0.615812 0.994372 -0.809166 -2.75079 0.325437 0.793311
32 2.24752 0 0 -0.0914701 -0.103439 -0.0239577
33 1.11936 0 0 -0.119206 0.171032 -0.185681
34 3.71348 0.102639 0.10219 -1.58909 0.862034 -0.119426
35 1.72615 0 0 -0.0146904 -0.0156263 0.786665
36 1.21112 0 0 0.000742672 0.0176205 0.639583
37 3.5992 1.06012 0.0708885 -1.63119 0.565989 -0.0670042
38 1.66069 0 0 0.0236725 0.0479982 0.681077
39 1.16699 0 0 0.00219282 -0.00509786 0.836227
40 2.18853 -0.50104 0.0576591 -1.56385 0.0595169 -0.173895
41 1.29609 0 0 -0.0829927 -0.0261582 0.746444
42 1.62201 -0.000711441 -0.000470161 -0.0204121 -0.0253736 0.977118
43 1.2224 0 0 -0.00883904 -0.00173473 0.485149
44 1.76707 -1.27612 0.0366402 -1.56318 0.0589349 -0.145416
45 1.55588 0 0 0.0303736 0.011842 0.90458
46 1.24273 0 0 0.000598415 0 0.620514
47 0.784531 0 0 -0.0124134 0.0105723 0.417843
48 0 0 0 0 0 0
49 -8.36355 -22.2534 -3.80518 2.81776 0.100603 2.5928
50 -3.3008 2.07667 -0.0219362 -1.61332 0 0
51 0.00576639 1.98489 -0.0178738 -1.61332 0 0
52 0.0057559 2.07248 -0.0285532 -1.61332 0 0
53 -3.46175 1.98076 -0.0216689 -1.61332 0 0
54 -3.15015 2.07651 -0.0257411 -1.61332 0 0
55 -1.68436 1.98075 -0.0216703 -1.61332 0 0
56 -1.09015 1.98075 -0.0216684 -1.61332 0 0
57 -1.58629 1.98075 -0.0216677 -1.61332 0 0
58 -1.31274 1.98074 -0.0216734 -1.61332 0 0
time 2
0 1.938 -2.84623 -11.5177 0 0 0
1 6.02794 0 0 -1.2072 0.41011 -1.83469
2 11.7344 0 0 -0.00140298 0 -1.3804
3 8.81138 -0.000450134 -0.000112057 0.587413 0 0.000157846
4 5.77839 0.000286102 0 0.393566 0 0.000108863
5 2.23163 -0.000328064 -0.000364304 0.193846 0 0
6 11.4725 0 0 0.600613 -0.022579 0.27386
7 0.615218 -0.993091 -0.8107 2.82704 0.355504 -0.444793
8 2.24752 0 0 0.090344 0.0910422 -0.073932
9 1.11936 0 0 0.0603409 0.0454306 -0.321969
10 3.71348 -0.10264 0.102191 1.55929 0.352511 0.0754344
11 1.72615 0 0 0.00902873 -0.0270616 -0.433803
12 1.21113 0 0 0.00354511 0.0172763 -0.395057
13 3.59919 -1.06012 0.070888 1.55869 0.396161 -0.0674144
14 1.66069 0 0 -0.0126177 0.0731066 -0.386254
15 1.167 0 0 -0.0253569 0.0266385 -0.354066
16 2.18852 0.50104 0.0576587 1.57004 -0.0310725 0.225922
17 1.29609 0 0 0.0114265 -0.0454194 -0.435318
18 1.62201 0.000713825 -0.000472069 -0.0017872 -0.0400527 -0.388522
19 1.22241 0 0 0.0161168 -0.0122075 -0.388536
20 1.76707 1.27612 0.0366411 1.57004 -0.00830634 0.261449
21 1.55588 0 0 -0.0212789 0.0246986 -0.416704
22 1.24273 0 0 -0.00058109 0.000148592 -0.429
23 0.784523 0 0 0.0131114 0.00969339 -0.348994
24 -1.93761 -2.84623 -11.5177 -0.000932534 0 3.14159
25 6.02794 0 0 0.686302 0.1855 0.910121
26 11.7344 0 0 0.00140265 0 1.34432
27 8.81167 0 0 1.57062 0 0
28 5.77884 0 0 1.05232 0 0
29 2.23249 0 0 0.518305 0 0
30 11.4725 0 0 1.57062 0.182453 -0.116632
31 0.615812 0.994372 -0.809166 -2.75079 0.325437 0.793311
32 2.24752 0 0 -0.0914701 -0.103439 -0.0239577
33 1.11936 0 0 -0.119206 0.171032 -0.185681
34 3.71348 0.102639 0.10219 -1.58909 0.862034 -0.119426
35 1.72615 0 0 -0.0146904 -0.0156263 0.786665
36 1.21112 0 0 0.000742672 0.0176205 0.639583
37 3.5992 1.06012 0.0708885 -1.63119 0.565989 -0.0670042
38 1.66069 0 0 0.0236725 0.0479982 0.681077
39 1.16699 0 0 0.00219282 -0.00509786 0.836227
40 2.18853 -0.50104 0.0576591 -1.56385 0.0595169 -0.173895
41 1.29609 0 0 -0.0829927 -0.0261582 0.746444
42 1.62201 -0.000711441 -0.000470161 -0.0204121 -0.0253736 0.977118
43 1.2224 0 0 -0.00883904 -0.00173473 0.485149
44 1.76707 -1.27612 0.0366402 -1.56318 0.0589349 -0.145416
45 1.55588 0 0 0.0303736 0.011842 0.90458
46 1.24273 0 0 0.000598415 0 0.620514
47 0.784531 0 0 -0.0124134 0.0105723 0.417843
48 0 0 0 0 0 0
49 -8.36355 -22.2534 -3.80518 2.81776 0.100603 2.5928
50 -3.3008 2.07667 -0.0219362 -1.61332 0 0
51 0.00576639 1.98489 -0.0178738 -1.61332 0 0
52 0.0057559 2.07248 -0.0285532 -1.61332 0 0
53 -3.46175 1.98076 -0.0216689 -1.61332 0 0
54 -3.15015 2.07651 -0.0257411 -1.61332 0 0
55 -1.68436 1.98075 -0.0216703 -1.61332 0 0
56 -1.09015 1.98075 -0.0216684 -1.61332 0 0
57 -1.58629 1.98075 -0.0216677 -1.61332 0 0
58 -1.31274 1.98074 -0.0216734 -1.61332 0 0
time 3
0 1.938 -2.84623 -11.5177 0 0 0
1 6.02794 0 0 -1.2072 0.41011 -1.83469
2 11.7344 0 0 -0.00140298 0 -1.3804
3 8.81138 -0.000450134 -0.000112057 0.587413 0 0.000157846
4 5.77839 0.000286102 0 0.393566 0 0.000108863
5 2.23163 -0.000328064 -0.000364304 0.193846 0 0
6 11.4725 0 0 0.600613 -0.022579 0.27386
7 0.615218 -0.993091 -0.8107 2.82704 0.355504 -0.444793
8 2.24752 0 0 0.090344 0.0910422 -0.073932
9 1.11936 0 0 0.0603409 0.0454306 -0.321969
10 3.71348 -0.10264 0.102191 1.55929 0.352511 0.0754344
11 1.72615 0 0 0.00902873 -0.0270616 -0.433803
12 1.21113 0 0 0.00354511 0.0172763 -0.395057
13 3.59919 -1.06012 0.070888 1.55869 0.396161 -0.0674144
14 1.66069 0 0 -0.0126177 0.0731066 -0.386254
15 1.167 0 0 -0.0253569 0.0266385 -0.354066
16 2.18852 0.50104 0.0576587 1.57004 -0.0310725 0.225922
17 1.29609 0 0 0.0114265 -0.0454194 -0.435318
18 1.62201 0.000713825 -0.000472069 -0.0017872 -0.0400527 -0.388522
19 1.22241 0 0 0.0161168 -0.0122075 -0.388536
20 1.76707 1.27612 0.0366411 1.57004 -0.00830634 0.261449
21 1.55588 0 0 -0.0212789 0.0246986 -0.416704
22 1.24273 0 0 -0.00058109 0.000148592 -0.429
23 0.784523 0 0 0.0131114 0.00969339 -0.348994
24 -1.93761 -2.84623 -11.5177 -0.000932534 0 3.14159
25 6.02794 0 0 0.686302 0.1855 0.910121
26 11.7344 0 0 0.00140265 0 1.34432
27 8.81167 0 0 1.57062 0 0
28 5.77884 0 0 1.05232 0 0
29 2.23249 0 0 0.518305 0 0
30 11.4725 0 0 1.57062 0.182453 -0.116632
31 0.615812 0.994372 -0.809166 -2.75079 0.325437 0.793311
32 2.24752 0 0 -0.0914701 -0.103439 -0.0239577
33 1.11936 0 0 -0.119206 0.171032 -0.185681
34 3.71348 0.102639 0.10219 -1.58909 0.862034 -0.119426
35 1.72615 0 0 -0.0146904 -0.0156263 0.786665
36 1.21112 0 0 0.000742672 0.0176205 0.639583
37 3.5992 1.06012 0.0708885 -1.63119 0.565989 -0.0670042
38 1.66069 0 0 0.0236725 0.0479982 0.681077
39 1.16699 0 0 0.00219282 -0.00509786 0.836227
40 2.18853 -0.50104 0.0576591 -1.56385 0.0595169 -0.173895
41 1.29609 0 0 -0.0829927 -0.0261582 0.746444
42 1.62201 -0.000711441 -0.000470161 -0.0204121 -0.0253736 0.977118
43 1.2224 0 0 -0.00883904 -0.00173473 0.485149
44 1.76707 -1.27612 0.0366402 -1.56318 0.0589349 -0.145416
45 1.55588 0 0 0.0303736 0.011842 0.90458
46 1.24273 0 0 0.000598415 0 0.620514
47 0.784531 0 0 -0.0124134 0.0105723 0.417843
48 0 0 0 0 0 0
49 -8.36355 -22.2534 -3.80518 2.81776 0.100603 2.5928
50 -3.3008 2.07667 -0.0219362 -1.61332 0 0
51 0.00576639 1.98489 -0.0178738 -1.61332 0 0
52 0.0057559 2.07248 -0.0285532 -1.61332 0 0
53 -3.46175 1.98076 -0.0216689 -1.61332 0 0
54 -3.15015 2.07651 -0.0257411 -1.61332 0 0
55 -1.68436 1.98075 -0.0216703 -1.61332 0 0
56 -1.09015 1.98075 -0.0216684 -1.61332 0 0
57 -1.58629 1.98075 -0.0216677 -1.61332 0 0
58 -1.31274 1.98074 -0.0216734 -1.61332 0 0
time 4
0 1.938 -2.84623 -11.5177 0 0 0
1 6.02794 0 0 -1.2072 0.41011 -1.83469
2 11.7344 0 0 -0.00140298 0 -1.3804
3 8.81138 -0.000450134 -0.000112057 0.587413 0 0.000157846
4 5.77839 0.000286102 0 0.393566 0 0.000108863
5 2.23163 -0.000328064 -0.000364304 0.193846 0 0
6 11.4725 0 0 0.600613 -0.022579 0.27386
7 0.615218 -0.993091 -0.8107 2.82704 0.355504 -0.444793
8 2.24752 0 0 0.090344 0.0910422 -0.073932
9 1.11936 0 0 0.0603409 0.0454306 -0.321969
10 3.71348 -0.10264 0.102191 1.55929 0.352511 0.0754344
11 1.72615 0 0 0.00902873 -0.0270616 -0.433803
12 1.21113 0 0 0.00354511 0.0172763 -0.395057
13 3.59919 -1.06012 0.070888 1.55869 0.396161 -0.0674144
14 1.66069 0 0 -0.0126177 0.0731066 -0.386254
15 1.167 0 0 -0.0253569 0.0266385 -0.354066
16 2.18852 0.50104 0.0576587 1.57004 -0.0310725 0.225922
17 1.29609 0 0 0.0114265 -0.0454194 -0.435318
18 1.62201 0.000713825 -0.000472069 -0.0017872 -0.0400527 -0.388522
19 1.22241 0 0 0.0161168 -0.0122075 -0.388536
20 1.76707 1.27612 0.0366411 1.57004 -0.00830634 0.261449
21 1.55588 0 0 -0.0212789 0.0246986 -0.416704
22 1.24273 0 0 -0.00058109 0.000148592 -0.429
23 0.784523 0 0 0.0131114 0.00969339 -0.348994
24 -1.93761 -2.84623 -11.5177 -0.000932534 0 3.14159
25 6.02794 0 0 0.686302 0.1855 0.910121
26 11.7344 0 0 0.00140265 0 1.34432
27 8.81167 0 0 1.57062 0 0
28 5.77884 0 0 1.05232 0 0
29 2.23249 0 0 0.518305 0 0
30 11.4725 0 0 1.57062 0.182453 -0.116632
31 0.615812 0.994372 -0.809166 -2.75079 0.325437 0.793311
32 2.24752 0 0 -0.0914701 -0.103439 -0.0239577
33 1.11936 0 0 -0.119206 0.171032 -0.185681
34 3.71348 0.102639 0.10219 -1.58909 0.862034 -0.119426
35 1.72615 0 0 -0.0146904 -0.0156263 0.786665
36 1.21112 0 0 0.000742672 0.0176205 0.639583
37 3.5992 1.06012 0.0708885 -1.63119 0.565989 -0.0670042
38 1.66069 0 0 0.0236725 0.0479982 0.681077
39 1.16699 0 0 0.00219282 -0.00509786 0.836227
40 2.18853 -0.50104 0.0576591 -1.56385 0.0595169 -0.173895
41 1.29609 0 0 -0.0829927 -0.0261582 0.746444
42 1.62201 -0.000711441 -0.000470161 -0.0204121 -0.0253736 0.977118
43 1.2224 0 0 -0.00883904 -0.00173473 0.485149
44 1.76707 -1.27612 0.0366402 -1.56318 0.0589349 -0.145416
45 1.55588 0 0 0.0303736 0.011842 0.90458
46 1.24273 0 0 0.000598415 0 0.620514
47 0.784531 0 0 -0.0124134 0.0105723 0.417843
48 0 0 0 0 0 0
49 -8.36355 -22.2534 -3.80518 2.81776 0.100603 2.5928
50 -3.3008 2.07667 -0.0219362 -1.61332 0 0
51 0.00576639 1.98489 -0.0178738 -1.61332 0 0
52 0.0057559 2.07248 -0.0285532 -1.61332 0 0
53 -3.46175 1.98076 -0.0216689 -1.61332 0 0
54 -3.15015 2.07651 -0.0257411 -1.61332 0 0
55 -1.68436 1.98075 -0.0216703 -1.61332 0 0
56 -1.09015 1.98075 -0.0216684 -1.61332 0 0
57 -1.58629 1.98075 -0.0216677 -1.61332 0 0
58 -1.31274 1.98074 -0.0216734 -1.61332 0 0
time 5
0 1.938 -2.84623 -11.5177 0 0 0
1 6.02794 0 0 -1.2072 0.41011 -1.83469
2 11.7344 0 0 -0.00140298 0 -1.3804
3 8.81138 -0.000450134 -0.000112057 0.587413 0 0.000157846
4 5.77839 0.000286102 0 0.393566 0 0.000108863
5 2.23163 -0.000328064 -0.000364304 0.193846 0 0
6 11.4725 0 0 0.600613 -0.022579 0.27386
7 0.615218 -0.993091 -0.8107 2.82704 0.355504 -0.444793
8 2.24752 0 0 0.090344 0.0910422 -0.073932
9 1.11936 0 0 0.0603409 0.0454306 -0.321969
10 3.71348 -0.10264 0.102191 1.55929 0.352511 0.0754344
11 1.72615 0 0 0.00902873 -0.0270616 -0.433803
12 1.21113 0 0 0.00354511 0.0172763 -0.395057
13 3.59919 -1.06012 0.070888 1.55869 0.396161 -0.0674144
14 1.66069 0 0 -0.0126177 0.0731066 -0.386254
15 1.167 0 0 -0.0253569 0.0266385 -0.354066
16 2.18852 0.50104 0.0576587 1.57004 -0.0310725 0.225922
17 1.29609 0 0 0.0114265 -0.0454194 -0.435318
18 1.62201 0.000713825 -0.000472069 -0.0017872 -0.0400527 -0.388522
19 1.22241 0 0 0.0161168 -0.0122075 -0.388536
20 1.76707 1.27612 0.0366411 1.57004 -0.00830634 0.261449
21 1.55588 0 0 -0.0212789 0.0246986 -0.416704
22 1.24273 0 0 -0.00058109 0.000148592 -0.429
23 0.784523 0 0 0.0131114 0.00969339 -0.348994
24 -1.93761 -2.84623 -11.5177 -0.000932534 0 3.14159
25 6.02794 0 0 0.686302 0.1855 0.910121
26 11.7344 0 0 0.00140265 0 1.34432
27 8.81167 0 0 1.57062 0 0
28 5.77884 0 0 1.05232 0 0
29 2.23249 0 0 0.518305 0 0
30 11.4725 0 0 1.57062 0.182453 -0.116632
31 0.615812 0.994372 -0.809166 -2.75079 0.325437 0.793311
32 2.24752 0 0 -0.0914701 -0.103439 -0.0239577
33 1.11936 0 0 -0.119206 0.171032 -0.185681
34 3.71348 0.102639 0.10219 -1.58909 0.862034 -0.119426
35 1.72615 0 0 -0.0146904 -0.0156263 0.786665
36 1.21112 0 0 0.000742672 0.0176205 0.639583
37 3.5992 1.06012 0.0708885 -1.63119 0.565989 -0.0670042
38 1.66069 0 0 0.0236725 0.0479982 0.681077
39 1.16699 0 0 0.00219282 -0.00509786 0.836227
40 2.18853 -0.50104 0.0576591 -1.56385 0.0595169 -0.173895
41 1.29609 0 0 -0.0829927 -0.0261582 0.746444
42 1.62201 -0.000711441 -0.000470161 -0.0204121 -0.0253736 0.977118
43 1.2224 0 0 -0.00883904 -0.00173473 0.485149
44 1.76707 -1.27612 0.0366402 -1.56318 0.0589349 -0.145416
45 1.55588 0 0 0.0303736 0.011842 0.90458
46 1.24273 0 0 0.000598415 0 0.620514
47 0.784531 0 0 -0.0124134 0.0105723 0.417843
48 0 0 0 0 0 0
49 -8.36355 -22.2534 -3.80518 2.81776 0.100603 2.5928
50 -3.3008 2.07667 -0.0219362 -1.61332 0 0
51 0.00576639 1.98489 -0.0178738 -1.61332 0 0
52 0.0057559 2.07248 -0.0285532 -1.61332 0 0
53 -3.46175 1.98076 -0.0216689 -1.61332 0 0
54 -3.15015 2.07651 -0.0257411 -1.61332 0 0
55 -1.68436 1.98075 -0.0216703 -1.61332 0 0
56 -1.09015 1.98075 -0.0216684 -1.61332 0 0
57 -1.58629 1.98075 -0.0216677 -1.61332 0 0
58 -1.31274 1.98074 -0.0216734 -1.61332 0 0
time 6
0 1.938 -2.84623 -11.5177 0 0 0
1 6.02794 0 0 -1.2072 0.41011 -1.83469
2 11.7344 0 0 -0.00140298 0 -1.3804
3 8.81138 -0.000450134 -0.000112057 0.587413 0 0.000157846
4 5.77839 0.000286102 0 0.393566 0 0.000108863
5 2.23163 -0.000328064 -0.000364304 0.193846 0 0
6 11.4725 0 0 0.600613 -0.022579 0.27386
7 0.615218 -0.993091 -0.8107 2.82704 0.355504 -0.444793
8 2.24752 0 0 0.090344 0.0910422 -0.073932
9 1.11936 0 0 0.0603409 0.0454306 -0.321969
10 3.71348 -0.10264 0.102191 1.55929 0.352511 0.0754344
11 1.72615 0 0 0.00902873 -0.0270616 -0.433803
12 1.21113 0 0 0.00354511 0.0172763 -0.395057
13 3.59919 -1.06012 0.070888 1.55869 0.396161 -0.0674144
14 1.66069 0 0 -0.0126177 0.0731066 -0.386254
15 1.167 0 0 -0.0253569 0.0266385 -0.354066
16 2.18852 0.50104 0.0576587 1.57004 -0.0310725 0.225922
17 1.29609 0 0 0.0114265 -0.0454194 -0.435318
18 1.62201 0.000713825 -0.000472069 -0.0017872 -0.0400527 -0.388522
19 1.22241 0 0 0.0161168 -0.0122075 -0.388536
20 1.76707 1.27612 0.0366411 1.57004 -0.00830634 0.261449
21 1.55588 0 0 -0.0212789 0.0246986 -0.416704
22 1.24273 0 0 -0.00058109 0.000148592 -0.429
23 0.784523 0 0 0.0131114 0.00969339 -0.348994
24 -1.93761 -2.84623 -11.5177 -0.000932534 0 3.14159
25 6.02794 0 0 0.686302 0.1855 0.910121
26 11.7344 0 0 0.00140265 0 1.34432
27 8.81167 0 0 1.57062 0 0
28 5.77884 0 0 1.05232 0 0
29 2.23249 0 0 0.518305 0 0
30 11.4725 0 0 1.57062 0.182453 -0.116632
31 0.615812 0.994372 -0.809166 -2.75079 0.325437 0.793311
32 2.24752 0 0 -0.0914701 -0.103439 -0.0239577
33 1.11936 0 0 -0.119206 0.171032 -0.185681
34 3.71348 0.102639 0.10219 -1.58909 0.862034 -0.119426
35 1.72615 0 0 -0.0146904 -0.0156263 0.786665
36 1.21112 0 0 0.000742672 0.0176205 0.639583
37 3.5992 1.06012 0.0708885 -1.63119 0.565989 -0.0670042
38 1.66069 0 0 0.0236725 0.0479982 0.681077
39 1.16699 0 0 0.00219282 -0.00509786 0.836227
40 2.18853 -0.50104 0.0576591 -1.56385 0.0595169 -0.173895
41 1.29609 0 0 -0.0829927 -0.0261582 0.746444
42 1.62201 -0.000711441 -0.000470161 -0.0204121 -0.0253736 0.977118
43 1.2224 0 0 -0.00883904 -0.00173473 0.485149
44 1.76707 -1.27612 0.0366402 -1.56318 0.0589349 -0.145416
45 1.55588 0 0 0.0303736 0.011842 0.90458
46 1.24273 0 0 0.000598415 0 0.620514
47 0.784531 0 0 -0.0124134 0.0105723 0.417843
48 0 0 0 0 0 0
49 -8.36355 -22.2534 -3.80518 2.81776 0.100603 2.5928
50 -3.3008 2.07667 -0.0219362 -1.61332 0 0
51 0.00576639 1.98489 -0.0178738 -1.61332 0 0
52 0.0057559 2.07248 -0.0285532 -1.61332 0 0
53 -3.46175 1.98076 -0.0216689 -1.61332 0 0
54 -3.15015 2.07651 -0.0257411 -1.61332 0 0
55 -1.68436 1.98075 -0.0216703 -1.61332 0 0
56 -1.09015 1.98075 -0.0216684 -1.61332 0 0
57 -1.58629 1.98075 -0.0216677 -1.61332 0 0
58 -1.31274 1.98074 -0.0216734 -1.61332 0 0
time 7
0 1.938 -2.84623 -11.5177 0 0 0
1 6.02794 0 0 -1.2072 0.41011 -1.83469
2 11.7344 0 0 -0.00140298 0 -1.3804
3 8.81138 -0.000450134 -0.000112057 0.587413 0 0.000157846
4 5.77839 0.000286102 0 0.393566 0 0.000108863
5 2.23163 -0.000328064 -0.000364304 0.193846 0 0
6 11.4725 0 0 0.600613 -0.022579 0.27386
7 0.615218 -0.993091 -0.8107 2.82704 0.355504 -0.444793
8 2.24752 0 0 0.090344 0.0910422 -0.073932
9 1.11936 0 0 0.0603409 0.0454306 -0.321969
10 3.71348 -0.10264 0.102191 1.55929 0.352511 0.0754344
11 1.72615 0 0 0.00902873 -0.0270616 -0.433803
12 1.21113 0 0 0.00354511 0.0172763 -0.395057
13 3.59919 -1.06012 0.070888 1.55869 0.396161 -0.0674144
14 1.66069 0 0 -0.0126177 0.0731066 -0.386254
15 1.167 0 0 -0.0253569 0.0266385 -0.354066
16 2.18852 0.50104 0.0576587 1.57004 -0.0310725 0.225922
17 1.29609 0 0 0.0114265 -0.0454194 -0.435318
18 1.62201 0.000713825 -0.000472069 -0.0017872 -0.0400527 -0.388522
19 1.22241 0 0 0.0161168 -0.0122075 -0.388536
20 1.76707 1.27612 0.0366411 1.57004 -0.00830634 0.261449
21 1.55588 0 0 -0.0212789 0.0246986 -0.416704
22 1.24273 0 0 -0.00058109 0.000148592 -0.429
23 0.784523 0 0 0.0131114 0.00969339 -0.348994
24 -1.93761 -2.84623 -11.5177 -0.000932534 0 3.14159
25 6.02794 0 0 0.686302 0.1855 0.910121
26 11.7344 0 0 0.00140265 0 1.34432
27 8.81167 0 0 1.57062 0 0
28 5.77884 0 0 1.05232 0 0
29 2.23249 0 0 0.518305 0 0
30 11.4725 0 0 1.57062 0.182453 -0.116632
31 0.615812 0.994372 -0.809166 -2.75079 0.325437 0.793311
32 2.24752 0 0 -0.0914701 -0.103439 -0.0239577
33 1.11936 0 0 -0.119206 0.171032 -0.185681
34 3.71348 0.102639 0.10219 -1.58909 0.862034 -0.119426
35 1.72615 0 0 -0.0146904 -0.0156263 0.786665
36 1.21112 0 0 0.000742672 0.0176205 0.639583
37 3.5992 1.06012 0.0708885 -1.63119 0.565989 -0.0670042
38 1.66069 0 0 0.0236725 0.0479982 0.681077
39 1.16699 0 0 0.00219282 -0.00509786 0.836227
40 2.18853 -0.50104 0.0576591 -1.56385 0.0595169 -0.173895
41 1.29609 0 0 -0.0829927 -0.0261582 0.746444
42 1.62201 -0.000711441 -0.000470161 -0.0204121 -0.0253736 0.977118
43 1.2224 0 0 -0.00883904 -0.00173473 0.485149
44 1.76707 -1.27612 0.0366402 -1.56318 0.0589349 -0.145416
45 1.55588 0 0 0.0303736 0.011842 0.90458
46 1.24273 0 0 0.000598415 0 0.620514
47 0.784531 0 0 -0.0124134 0.0105723 0.417843
48 0 0 0 0 0 0
49 -8.36355 -22.2534 -3.80518 2.81776 0.100603 2.5928
50 -3.3008 2.07667 -0.0219362 -1.61332 0 0
51 0.00576639 1.98489 -0.0178738 -1.61332 0 0
52 0.0057559 2.07248 -0.0285532 -1.61332 0 0
53 -3.46175 1.98076 -0.0216689 -1.61332 0 0
54 -3.15015 2.07651 -0.0257411 -1.61332 0 0
55 -1.68436 1.98075 -0.0216703 -1.61332 0 0
56 -1.09015 1.98075 -0.0216684 -1.61332 0 0
57 -1.58629 1.98075 -0.0216677 -1.61332 0 0
58 -1.31274 1.98074 -0.0216734 -1.61332 0 0
time 8
0 1.938 -2.84623 -11.5177 0 0 0
1 6.02794 0 0 -1.2072 0.41011 -1.83469
2 11.7344 0 0 -0.00140298 0 -1.3804
3 8.81138 -0.000450134 -0.000112057 0.587413 0 0.000157846
4 5.77839 0.000286102 0 0.393566 0 0.000108863
5 2.23163 -0.000328064 -0.000364304 0.193846 0 0
6 11.4725 0 0 0.600613 -0.022579 0.27386
7 0.615218 -0.993091 -0.8107 2.82704 0.355504 -0.444793
8 2.24752 0 0 0.090344 0.0910422 -0.073932
9 1.11936 0 0 0.0603409 0.0454306 -0.321969
10 3.71348 -0.10264 0.102191 1.55929 0.352511 0.0754344
11 1.72615 0 0 0.00902873 -0.0270616 -0.433803
12 1.21113 0 0 0.00354511 0.0172763 -0.395057
13 3.59919 -1.06012 0.070888 1.55869 0.396161 -0.0674144
14 1.66069 0 0 -0.0126177 0.0731066 -0.386254
15 1.167 0 0 -0.0253569 0.0266385 -0.354066
16 2.18852 0.50104 0.0576587 1.57004 -0.0310725 0.225922
17 1.29609 0 0 0.0114265 -0.0454194 -0.435318
18 1.62201 0.000713825 -0.000472069 -0.0017872 -0.0400527 -0.388522
19 1.22241 0 0 0.0161168 -0.0122075 -0.388536
20 1.76707 1.27612 0.0366411 1.57004 -0.00830634 0.261449
21 1.55588 0 0 -0.0212789 0.0246986 -0.416704
22 1.24273 0 0 -0.00058109 0.000148592 -0.429
23 0.784523 0 0 0.0131114 0.00969339 -0.348994
24 -1.93761 -2.84623 -11.5177 -0.000932534 0 3.14159
25 6.02794 0 0 0.686302 0.1855 0.910121
26 11.7344 0 0 0.00140265 0 1.34432
27 8.81167 0 0 1.57062 0 0
28 5.77884 0 0 1.05232 0 0
29 2.23249 0 0 0.518305 0 0
30 11.4725 0 0 1.57062 0.182453 -0.116632
31 0.615812 0.994372 -0.809166 -2.75079 0.325437 0.793311
32 2.24752 0 0 -0.0914701 -0.103439 -0.0239577
33 1.11936 0 0 -0.119206 0.171032 -0.185681
34 3.71348 0.102639 0.10219 -1.58909 0.862034 -0.119426
35 1.72615 0 0 -0.0146904 -0.0156263 0.786665
36 1.21112 0 0 0.000742672 0.0176205 0.639583
37 3.5992 1.06012 0.0708885 -1.63119 0.565989 -0.0670042
38 1.66069 0 0 0.0236725 0.0479982 0.681077
39 1.16699 0 0 0.00219282 -0.00509786 0.836227
40 2.18853 -0.50104 0.0576591 -1.56385 0.0595169 -0.173895
41 1.29609 0 0 -0.0829927 -0.0261582 0.746444
42 1.62201 -0.000711441 -0.000470161 -0.0204121 -0.0253736 0.977118
43 1.2224 0 0 -0.00883904 -0.00173473 0.485149
44 1.76707 -1.27612 0.0366402 -1.56318 0.0589349 -0.145416
45 1.55588 0 0 0.0303736 0.011842 0.90458
46 1.24273 0 0 0.000598415 0 0.620514
47 0.784531 0 0 -0.0124134 0.0105723 0.417843
48 0 0 0 0 0 0
49 -8.36355 -22.2534 -3.80518 2.81776 0.100603 2.5928
50 -3.3008 2.07667 -0.0219362 -1.61332 0 0
51 0.00576639 1.98489 -0.0178738 -1.61332 0 0
52 0.0057559 2.07248 -0.0285532 -1.61332 0 0
53 -3.46175 1.98076 -0.0216689 -1.61332 0 0
54 -3.15015 2.07651 -0.0257411 -1.61332 0 0
55 -1.68436 1.98075 -0.0216703 -1.61332 0 0
56 -1.09015 1.98075 -0.0216684 -1.61332 0 0
57 -1.58629 1.98075 -0.0216677 -1.61332 0 0
58 -1.31274 1.98074 -0.0216734 -1.61332 0 0
time 9
0 1.938 -2.84623 -11.5177 0 0 0
1 6.02794 0 0 -1.2072 0.41011 -1.83469
2 11.7344 0 0 -0.00140298 0 -1.3804
3 8.81138 -0.000450134 -0.000112057 0.587413 0 0.000157846
4 5.77839 0.000286102 0 0.393566 0 0.000108863
5 2.23163 -0.000328064 -0.000364304 0.193846 0 0
6 11.4725 0 0 0.600613 -0.022579 0.27386
7 0.615218 -0.993091 -0.8107 2.82704 0.355504 -0.444793
8 2.24752 0 0 0.090344 0.0910422 -0.073932
9 1.11936 0 0 0.0603409 0.0454306 -0.321969
10 3.71348 -0.10264 0.102191 1.55929 0.352511 0.0754344
11 1.72615 0 0 0.00902873 -0.0270616 -0.433803
12 1.21113 0 0 0.00354511 0.0172763 -0.395057
13 3.59919 -1.06012 0.070888 1.55869 0.396161 -0.0674144
14 1.66069 0 0 -0.0126177 0.0731066 -0.386254
15 1.167 0 0 -0.0253569 0.0266385 -0.354066
16 2.18852 0.50104 0.0576587 1.57004 -0.0310725 0.225922
17 1.29609 0 0 0.0114265 -0.0454194 -0.435318
18 1.62201 0.000713825 -0.000472069 -0.0017872 -0.0400527 -0.388522
19 1.22241 0 0 0.0161168 -0.0122075 -0.388536
20 1.76707 1.27612 0.0366411 1.57004 -0.00830634 0.261449
21 1.55588 0 0 -0.0212789 0.0246986 -0.416704
22 1.24273 0 0 -0.00058109 0.000148592 -0.429
23 0.784523 0 0 0.0131114 0.00969339 -0.348994
24 -1.93761 -2.84623 -11.5177 -0.000932534 0 3.14159
25 6.02794 0 0 0.686302 0.1855 0.910121
26 11.7344 0 0 0.00140265 0 1.34432
27 8.81167 0 0 1.57062 0 0
28 5.77884 0 0 1.05232 0 0
29 2.23249 0 0 0.518305 0 0
30 11.4725 0 0 1.57062 0.182453 -0.116632
31 0.615812 0.994372 -0.809166 -2.75079 0.325437 0.793311
32 2.24752 0 0 -0.0914701 -0.103439 -0.0239577
33 1.11936 0 0 -0.119206 0.171032 -0.185681
34 3.71348 0.102639 0.10219 -1.58909 0.862034 -0.119426
35 1.72615 0 0 -0.0146904 -0.0156263 0.786665
36 1.21112 0 0 0.000742672 0.0176205 0.639583
37 3.5992 1.06012 0.0708885 -1.63119 0.565989 -0.0670042
38 1.66069 0 0 0.0236725 0.0479982 0.681077
39 1.16699 0 0 0.00219282 -0.00509786 0.836227
40 2.18853 -0.50104 0.0576591 -1.56385 0.0595169 -0.173895
41 1.29609 0 0 -0.0829927 -0.0261582 0.746444
42 1.62201 -0.000711441 -0.000470161 -0.0204121 -0.0253736 0.977118
43 1.2224 0 0 -0.00883904 -0.00173473 0.485149
44 1.76707 -1.27612 0.0366402 -1.56318 0.0589349 -0.145416
45 1.55588 0 0 0.0303736 0.011842 0.90458
46 1.24273 0 0 0.000598415 0 0.620514
47 0.784531 0 0 -0.0124134 0.0105723 0.417843
48 0 0 0 0 0 0
49 -8.36355 -22.2534 -3.80518 2.81776 0.100603 2.5928
50 -3.3008 2.07667 -0.0219362 -1.61332 0 0
51 0.00576639 1.98489 -0.0178738 -1.61332 0 0
52 0.0057559 2.07248 -0.0285532 -1.61332 0 0
53 -3.46175 1.98076 -0.0216689 -1.61332 0 0
54 -3.15015 2.07651 -0.0257411 -1.61332 0 0
55 -1.68436 1.98075 -0.0216703 -1.61332 0 0
56 -1.09015 1.98075 -0.0216684 -1.61332 0 0
57 -1.58629 1.98075 -0.0216677 -1.61332 0 0
58 -1.31274 1.98074 -0.0216734 -1.61332 0 0
time 10
0 1.938 -2.84623 -11.5177 0 0 0
1 6.02794 0 0 -1.2072 0.41011 -1.83469
2 11.7344 0 0 -0.00140298 0 -1.3804
3 8.81138 -0.000450134 -0.000112057 0.587413 0 0.000157846
4 5.77839 0.000286102 0 0.393566 0 0.000108863
5 2.23163 -0.000328064 -0.000364304 0.193846 0 0
6 11.4725 0 0 0.600613 -0.022579 0.27386
7 0.615218 -0.993091 -0.8107 2.82704 0.355504 -0.444793
8 2.24752 0 0 0.090344 0.0910422 -0.073932
9 1.11936 0 0 0.0603409 0.0454306 -0.321969
10 3.71348 -0.10264 0.102191 1.55929 0.352511 0.0754344
11 1.72615 0 0 0.00902873 -0.0270616 -0.433803
12 1.21113 0 0 0.00354511 0.0172763 -0.395057
13 3.59919 -1.06012 0.070888 1.55869 0.396161 -0.0674144
14 1.66069 0 0 -0.0126177 0.0731066 -0.386254
15 1.167 0 0 -0.0253569 0.0266385 -0.354066
16 2.18852 0.50104 0.0576587 1.57004 -0.0310725 0.225922
17 1.29609 0 0 0.0114265 -0.0454194 -0.435318
18 1.62201 0.000713825 -0.000472069 -0.0017872 -0.0400527 -0.388522
19 1.22241 0 0 0.0161168 -0.0122075 -0.388536
20 1.76707 1.27612 0.0366411 1.57004 -0.00830634 0.261449
21 1.55588 0 0 -0.0212789 0.0246986 -0.416704
22 1.24273 0 0 -0.00058109 0.000148592 -0.429
23 0.784523 0 0 0.0131114 0.00969339 -0.348994
24 -1.93761 -2.84623 -11.5177 -0.000932534 0 3.14159
25 6.02794 0 0 0.686302 0.1855 0.910121
26 11.7344 0 0 0.00140265 0 1.34432
27 8.81167 0 0 1.57062 0 0
28 5.77884 0 0 1.05232 0 0
29 2.23249 0 0 0.518305 0 0
30 11.4725 0 0 1.57062 0.182453 -0.116632
31 0.615812 0.994372 -0.809166 -2.75079 0.325437 0.793311
32 2.24752 0 0 -0.0914701 -0.103439 -0.0239577
33 1.11936 0 0 -0.119206 0.171032 -0.185681
34 3.71348 0.102639 0.10219 -1.58909 0.862034 -0.119426
35 1.72615 0 0 -0.0146904 -0.0156263 0.786665
36 1.21112 0 0 0.000742672 0.0176205 0.639583
37 3.5992 1.06012 0.0708885 -1.63119 0.565989 -0.0670042
38 1.66069 0 0 0.0236725 0.0479982 0.681077
39 1.16699 0 0 0.00219282 -0.00509786 0.836227
40 2.18853 -0.50104 0.0576591 -1.56385 0.0595169 -0.173895
41 1.29609 0 0 -0.0829927 -0.0261582 0.746444
42 1.62201 -0.000711441 -0.000470161 -0.0204121 -0.0253736 0.977118
43 1.2224 0 0 -0.00883904 -0.00173473 0.485149
44 1.76707 -1.27612 0.0366402 -1.56318 0.0589349 -0.145416
45 1.55588 0 0 0.0303736 0.011842 0.90458
46 1.24273 0 0 0.000598415 0 0.620514
47 0.784531 0 0 -0.0124134 0.0105723 0.417843
48 0 0 0 0 0 0
49 -8.36355 -22.2534 -3.80518 2.81776 0.100603 2.5928
50 -3.3008 2.07667 -0.0219362 -1.61332 0 0
51 0.00576639 1.98489 -0.0178738 -1.61332 0 0
52 0.0057559 2.07248 -0.0285532 -1.61332 0 0
53 -3.46175 1.98076 -0.0216689 -1.61332 0 0
54 -3.15015 2.07651 -0.0257411 -1.61332 0 0
55 -1.68436 1.98075 -0.0216703 -1.61332 0 0
56 -1.09015 1.98075 -0.0216684 -1.61332 0 0
57 -1.58629 1.98075 -0.0216677 -1.61332 0 0
58 -1.31274 1.98074 -0.0216734 -1.61332 0 0
time 11
0 1.938 -2.84623 -11.5177 0 0 0
1 6.02794 0 0 -1.2072 0.41011 -1.83469
2 11.7344 0 0 -0.00140298 0 -1.3804
3 8.81138 -0.000450134 -0.000112057 0.587413 0 0.000157846
4 5.77839 0.000286102 0 0.393566 0 0.000108863
5 2.23163 -0.000328064 -0.000364304 0.193846 0 0
6 11.4725 0 0 0.600613 -0.022579 0.27386
7 0.615218 -0.993091 -0.8107 2.82704 0.355504 -0.444793
8 2.24752 0 0 0.090344 0.0910422 -0.073932
9 1.11936 0 0 0.0603409 0.0454306 -0.321969
10 3.71348 -0.10264 0.102191 1.55929 0.352511 0.0754344
11 1.72615 0 0 0.00902873 -0.0270616 -0.433803
12 1.21113 0 0 0.00354511 0.0172763 -0.395057
13 3.59919 -1.06012 0.070888 1.55869 0.396161 -0.0674144
14 1.66069 0 0 -0.0126177 0.0731066 -0.386254
15 1.167 0 0 -0.0253569 0.0266385 -0.354066
16 2.18852 0.50104 0.0576587 1.57004 -0.0310725 0.225922
17 1.29609 0 0 0.0114265 -0.0454194 -0.435318
18 1.62201 0.000713825 -0.000472069 -0.0017872 -0.0400527 -0.388522
19 1.22241 0 0 0.0161168 -0.0122075 -0.388536
20 1.76707 1.27612 0.0366411 1.57004 -0.00830634 0.261449
21 1.55588 0 0 -0.0212789 0.0246986 -0.416704
22 1.24273 0 0 -0.00058109 0.000148592 -0.429
23 0.784523 0 0 0.0131114 0.00969339 -0.348994
24 -1.93761 -2.84623 -11.5177 -0.000932534 0 3.14159
25 6.02794 0 0 0.686302 0.1855 0.910121
26 11.7344 0 0 0.00140265 0 1.34432
27 8.81167 0 0 1.57062 0 0
28 5.77884 0 0 1.05232 0 0
29 2.23249 0 0 0.518305 0 0
30 11.4725 0 0 1.57062 0.182453 -0.116632
31 0.615812 0.994372 -0.809166 -2.75079 0.325437 0.793311
32 2.24752 0 0 -0.0914701 -0.103439 -0.0239577
33 1.11936 0 0 -0.119206 0.171032 -0.185681
34 3.71348 0.102639 0.10219 -1.58909 0.862034 -0.119426
35 1.72615 0 0 -0.0146904 -0.0156263 0.786665
36 1.21112 0 0 0.000742672 0.0176205 0.639583
37 3.5992 1.06012 0.0708885 -1.63119 0.565989 -0.0670042
38 1.66069 0 0 0.0236725 0.0479982 0.681077
39 1.16699 0 0 0.00219282 -0.00509786 0.836227
40 2.18853 -0.50104 0.0576591 -1.56385 0.0595169 -0.173895
41 1.29609 0 0 -0.0829927 -0.0261582 0.746444
42 1.62201 -0.000711441 -0.000470161 -0.0204121 -0.0253736 0.977118
43 1.2224 0 0 -0.00883904 -0.00173473 0.485149
44 1.76707 -1.27612 0.0366402 -1.56318 0.0589349 -0.145416
45 1.55588 0 0 0.0303736 0.011842 0.90458
46 1.24273 0 0 0.000598415 0 0.620514
47 0.784531 0 0 -0.0124134 0.0105723 0.417843
48 0 0 0 0 0 0
49 -8.36355 -22.2534 -3.80518 2.81776 0.100603 2.5928
50 -3.3008 2.07667 -0.0219362 -1.61332 0 0
51 0.00576639 1.98489 -0.0178738 -1.61332 0 0
52 0.0057559 2.07248 -0.0285532 -1.61332 0 0
53 -3.46175 1.98076 -0.0216689 -1.61332 0 0
54 -3.15015 2.07651 -0.0257411 -1.61332 0 0
55 -1.68436 1.98075 -0.0216703 -1.61332 0 0
56 -1.09015 1.98075 -0.0216684 -1.61332 0 0
57 -1.58629 1.98075 -0.0216677 -1.61332 0 0
58 -1.31274 1.98074 -0.0216734 -1.61332 0 0
time 12
0 1.938 -2.84623 -11.5177 0 0 0
1 6.02794 0 0 -1.2072 0.41011 -1.83469
2 11.7344 0 0 -0.00140298 0 -1.3804
3 8.81138 -0.000450134 -0.000112057 0.587413 0 0.000157846
4 5.77839 0.000286102 0 0.393566 0 0.000108863
5 2.23163 -0.000328064 -0.000364304 0.193846 0 0
6 11.4725 0 0 0.600613 -0.022579 0.27386
7 0.615218 -0.993091 -0.8107 2.82704 0.355504 -0.444793
8 2.24752 0 0 0.090344 0.0910422 -0.073932
9 1.11936 0 0 0.0603409 0.0454306 -0.321969
10 3.71348 -0.10264 0.102191 1.55929 0.352511 0.0754344
11 1.72615 0 0 0.00902873 -0.0270616 -0.433803
12 1.21113 0 0 0.00354511 0.0172763 -0.395057
13 3.59919 -1.06012 0.070888 1.55869 0.396161 -0.0674144
14 1.66069 0 0 -0.0126177 0.0731066 -0.386254
15 1.167 0 0 -0.0253569 0.0266385 -0.354066
16 2.18852 0.50104 0.0576587 1.57004 -0.0310725 0.225922
17 1.29609 0 0 0.0114265 -0.0454194 -0.435318
18 1.62201 0.000713825 -0.000472069 -0.0017872 -0.0400527 -0.388522
19 1.22241 0 0 0.0161168 -0.0122075 -0.388536
20 1.76707 1.27612 0.0366411 1.57004 -0.00830634 0.261449
21 1.55588 0 0 -0.0212789 0.0246986 -0.416704
22 1.24273 0 0 -0.00058109 0.000148592 -0.429
23 0.784523 0 0 0.0131114 0.00969339 -0.348994
24 -1.93761 -2.84623 -11.5177 -0.000932534 0 3.14159
25 6.02794 0 0 0.686302 0.1855 0.910121
26 11.7344 0 0 0.00140265 0 1.34432
27 8.81167 0 0 1.57062 0 0
28 5.77884 0 0 1.05232 0 0
29 2.23249 0 0 0.518305 0 0
30 11.4725 0 0 1.57062 0.182453 -0.116632
31 0.615812 0.994372 -0.809166 -2.75079 0.325437 0.793311
32 2.24752 0 0 -0.0914701 -0.103439 -0.0239577
33 1.11936 0 0 -0.119206 0.171032 -0.185681
34 3.71348 0.102639 0.10219 -1.58909 0.862034 -0.119426
35 1.72615 0 0 -0.0146904 -0.0156263 0.786665
36 1.21112 0 0 0.000742672 0.0176205 0.639583
37 3.5992 1.06012 0.0708885 -1.63119 0.565989 -0.0670042
38 1.66069 0 0 0.0236725 0.0479982 0.681077
39 1.16699 0 0 0.00219282 -0.00509786 0.836227
40 2.18853 -0.50104 0.0576591 -1.56385 0.0595169 -0.173895
41 1.29609 0 0 -0.0829927 -0.0261582 0.746444
42 1.62201 -0.000711441 -0.000470161 -0.0204121 -0.0253736 0.977118
43 1.2224 0 0 -0.00883904 -0.00173473 0.485149
44 1.76707 -1.27612 0.0366402 -1.56318 0.0589349 -0.145416
45 1.55588 0 0 0.0303736 0.011842 0.90458
46 1.24273 0 0 0.000598415 0 0.620514
47 0.784531 0 0 -0.0124134 0.0105723 0.417843
48 0 0 0 0 0 0
49 -8.36355 -22.2534 -3.80518 2.81776 0.100603 2.5928
50 -3.3008 2.07667 -0.0219362 -1.61332 0 0
51 0.00576639 1.98489 -0.0178738 -1.61332 0 0
52 0.0057559 2.07248 -0.0285532 -1.61332 0 0
53 -3.46175 1.98076 -0.0216689 -1.61332 0 0
54 -3.15015 2.07651 -0.0257411 -1.61332 0 0
55 -1.68436 1.98075 -0.0216703 -1.61332 0 0
56 -1.09015 1.98075 -0.0216684 -1.61332 0 0
57 -1.58629 1.98075 -0.0216677 -1.61332 0 0
58 -1.31274 1.98074 -0.0216734 -1.61332 0 0
time 13
0 1.938 -2.84623 -11.5177 0 0 0
1 6.02794 0 0 -1.2072 0.41011 -1.83469
2 11.7344 0 0 -0.00140298 0 -1.3804
3 8.81138 -0.000450134 -0.000112057 0.587413 0 0.000157846
4 5.77839 0.000286102 0 0.393566 0 0.000108863
5 2.23163 -0.000328064 -0.000364304 0.193846 0 0
6 11.4725 0 0 0.600613 -0.022579 0.27386
7 0.615218 -0.993091 -0.8107 2.82704 0.355504 -0.444793
8 2.24752 0 0 0.090344 0.0910422 -0.073932
9 1.11936 0 0 0.0603409 0.0454306 -0.321969
10 3.71348 -0.10264 0.102191 1.55929 0.352511 0.0754344
11 1.72615 0 0 0.00902873 -0.0270616 -0.433803
12 1.21113 0 0 0.00354511 0.0172763 -0.395057
13 3.59919 -1.06012 0.070888 1.55869 0.396161 -0.0674144
14 1.66069 0 0 -0.0126177 0.0731066 -0.386254
15 1.167 0 0 -0.0253569 0.0266385 -0.354066
16 2.18852 0.50104 0.0576587 1.57004 -0.0310725 0.225922
17 1.29609 0 0 0.0114265 -0.0454194 -0.435318
18 1.62201 0.000713825 -0.000472069 -0.0017872 -0.0400527 -0.388522
19 1.22241 0 0 0.0161168 -0.0122075 -0.388536
20 1.76707 1.27612 0.0366411 1.57004 -0.00830634 0.261449
21 1.55588 0 0 -0.0212789 0.0246986 -0.416704
22 1.24273 0 0 -0.00058109 0.000148592 -0.429
23 0.784523 0 0 0.0131114 0.00969339 -0.348994
24 -1.93761 -2.84623 -11.5177 -0.000932534 0 3.14159
25 6.02794 0 0 0.686302 0.1855 0.910121
26 11.7344 0 0 0.00140265 0 1.34432
27 8.81167 0 0 1.57062 0 0
28 5.77884 0 0 1.05232 0 0
29 2.23249 0 0 0.518305 0 0
30 11.4725 0 0 1.57062 0.182453 -0.116632
31 0.615812 0.994372 -0.809166 -2.75079 0.325437 0.793311
32 2.24752 0 0 -0.0914701 -0.103439 -0.0239577
33 1.11936 0 0 -0.119206 0.171032 -0.185681
34 3.71348 0.102639 0.10219 -1.58909 0.862034 -0.119426
35 1.72615 0 0 -0.0146904 -0.0156263 0.786665
36 1.21112 0 0 0.000742672 0.0176205 0.639583
37 3.5992 1.06012 0.0708885 -1.63119 0.565989 -0.0670042
38 1.66069 0 0 0.0236725 0.0479982 0.681077
39 1.16699 0 0 0.00219282 -0.00509786 0.836227
40 2.18853 -0.50104 0.0576591 -1.56385 0.0595169 -0.173895
41 1.29609 0 0 -0.0829927 -0.0261582 0.746444
42 1.62201 -0.000711441 -0.000470161 -0.0204121 -0.0253736 0.977118
43 1.2224 0 0 -0.00883904 -0.00173473 0.485149
44 1.76707 -1.27612 0.0366402 -1.56318 0.0589349 -0.145416
45 1.55588 0 0 0.0303736 0.011842 0.90458
46 1.24273 0 0 0.000598415 0 0.620514
47 0.784531 0 0 -0.0124134 0.0105723 0.417843
48 0 0 0 0 0 0
49 -8.36355 -22.2534 -3.80518 2.81776 0.100603 2.5928
50 -3.3008 2.07667 -0.0219362 -1.61332 0 0
51 0.00576639 1.98489 -0.0178738 -1.61332 0 0
52 0.0057559 2.07248 -0.0285532 -1.61332 0 0
53 -3.46175 1.98076 -0.0216689 -1.61332 0 0
54 -3.15015 2.07651 -0.0257411 -1.61332 0 0
55 -1.68436 1.98075 -0.0216703 -1.61332 0 0
56 -1.09015 1.98075 -0.0216684 -1.61332 0 0
57 -1.58629 1.98075 -0.0216677 -1.61332 0 0
58 -1.31274 1.98074 -0.0216734 -1.61332 0 0
time 14
0 1.938 -2.84623 -11.5177 0 0 0
1 6.02794 0 0 -1.2072 0.41011 -1.83469
2 11.7344 0 0 -0.00140298 0 -1.3804
3 8.81138 -0.000450134 -0.000112057 0.587413 0 0.000157846
4 5.77839 0.000286102 0 0.393566 0 0.000108863
5 2.23163 -0.000328064 -0.000364304 0.193846 0 0
6 11.4725 0 0 0.600613 -0.022579 0.27386
7 0.615218 -0.993091 -0.8107 2.82704 0.355504 -0.444793
8 2.24752 0 0 0.090344 0.0910422 -0.073932
9 1.11936 0 0 0.0603409 0.0454306 -0.321969
10 3.71348 -0.10264 0.102191 1.55929 0.352511 0.0754344
11 1.72615 0 0 0.00902873 -0.0270616 -0.433803
12 1.21113 0 0 0.00354511 0.0172763 -0.395057
13 3.59919 -1.06012 0.070888 1.55869 0.396161 -0.0674144
14 1.66069 0 0 -0.0126177 0.0731066 -0.386254
15 1.167 0 0 -0.0253569 0.0266385 -0.354066
16 2.18852 0.50104 0.0576587 1.57004 -0.0310725 0.225922
17 1.29609 0 0 0.0114265 -0.0454194 -0.435318
18 1.62201 0.000713825 -0.000472069 -0.0017872 -0.0400527 -0.388522
19 1.22241 0 0 0.0161168 -0.0122075 -0.388536
20 1.76707 1.27612 0.0366411 1.57004 -0.00830634 0.261449
21 1.55588 0 0 -0.0212789 0.0246986 -0.416704
22 1.24273 0 0 -0.00058109 0.000148592 -0.429
23 0.784523 0 0 0.0131114 0.00969339 -0.348994
24 -1.93761 -2.84623 -11.5177 -0.000932534 0 3.14159
25 6.02794 0 0 0.686302 0.1855 0.910121
26 11.7344 0 0 0.00140265 0 1.34432
27 8.81167 0 0 1.57062 0 0
28 5.77884 0 0 1.05232 0 0
29 2.23249 0 0 0.518305 0 0
30 11.4725 0 0 1.57062 0.182453 -0.116632
31 0.615812 0.994372 -0.809166 -2.75079 0.325437 0.793311
32 2.24752 0 0 -0.0914701 -0.103439 -0.0239577
33 1.11936 0 0 -0.119206 0.171032 -0.185681
34 3.71348 0.102639 0.10219 -1.58909 0.862034 -0.119426
35 1.72615 0 0 -0.0146904 -0.0156263 0.786665
36 1.21112 0 0 0.000742672 0.0176205 0.639583
37 3.5992 1.06012 0.0708885 -1.63119 0.565989 -0.0670042
38 1.66069 0 0 0.0236725 0.0479982 0.681077
39 1.16699 0 0 0.00219282 -0.00509786 0.836227
40 2.18853 -0.50104 0.0576591 -1.56385 0.0595169 -0.173895
41 1.29609 0 0 -0.0829927 -0.0261582 0.746444
42 1.62201 -0.000711441 -0.000470161 -0.0204121 -0.0253736 0.977118
43 1.2224 0 0 -0.00883904 -0.00173473 0.485149
44 1.76707 -1.27612 0.0366402 -1.56318 0.0589349 -0.145416
45 1.55588 0 0 0.0303736 0.011842 0.90458
46 1.24273 0 0 0.000598415 0 0.620514
47 0.784531 0 0 -0.0124134 0.0105723 0.417843
48 0 0 0 0 0 0
49 -8.36355 -22.2534 -3.80518 2.81776 0.100603 2.5928
50 -3.3008 2.07667 -0.0219362 -1.61332 0 0
51 0.00576639 1.98489 -0.0178738 -1.61332 0 0
52 0.0057559 2.07248 -0.0285532 -1.61332 0 0
53 -3.46175 1.98076 -0.0216689 -1.61332 0 0
54 -3.15015 2.07651 -0.0257411 -1.61332 0 0
55 -1.68436 1.98075 -0.0216703 -1.61332 0 0
56 -1.09015 1.98075 -0.0216684 -1.61332 0 0
57 -1.58629 1.98075 -0.0216677 -1.61332 0 0
58 -1.31274 1.98074 -0.0216734 -1.61332 0 0
time 15
0 1.938 -2.84623 -11.5177 0 0 0
1 6.02794 0 0 -1.2072 0.41011 -1.83469
2 11.7344 0 0 -0.00140298 0 -1.3804
3 8.81138 -0.000450134 -0.000112057 0.587413 0 0.000157846
4 5.77839 0.000286102 0 0.393566 0 0.000108863
5 2.23163 -0.000328064 -0.000364304 0.193846 0 0
6 11.4725 0 0 0.600613 -0.022579 0.27386
7 0.615218 -0.993091 -0.8107 2.82704 0.355504 -0.444793
8 2.24752 0 0 0.090344 0.0910422 -0.073932
9 1.11936 0 0 0.0603409 0.0454306 -0.321969
10 3.71348 -0.10264 0.102191 1.55929 0.352511 0.0754344
11 1.72615 0 0 0.00902873 -0.0270616 -0.433803
12 1.21113 0 0 0.00354511 0.0172763 -0.395057
13 3.59919 -1.06012 0.070888 1.55869 0.396161 -0.0674144
14 1.66069 0 0 -0.0126177 0.0731066 -0.386254
15 1.167 0 0 -0.0253569 0.0266385 -0.354066
16 2.18852 0.50104 0.0576587 1.57004 -0.0310725 0.225922
17 1.29609 0 0 0.0114265 -0.0454194 -0.435318
18 1.62201 0.000713825 -0.000472069 -0.0017872 -0.0400527 -0.388522
19 1.22241 0 0 0.0161168 -0.0122075 -0.388536
20 1.76707 1.27612 0.0366411 1.57004 -0.00830634 0.261449
21 1.55588 0 0 -0.0212789 0.0246986 -0.416704
22 1.24273 0 0 -0.00058109 0.000148592 -0.429
23 0.784523 0 0 0.0131114 0.00969339 -0.348994
24 -1.93761 -2.84623 -11.5177 -0.000932534 0 3.14159
25 6.02794 0 0 0.686302 0.1855 0.910121
26 11.7344 0 0 0.00140265 0 1.34432
27 8.81167 0 0 1.57062 0 0
28 5.77884 0 0 1.05232 0 0
29 2.23249 0 0 0.518305 0 0
30 11.4725 0 0 1.57062 0.182453 -0.116632
31 0.615812 0.994372 -0.809166 -2.75079 0.325437 0.793311
32 2.24752 0 0 -0.0914701 -0.103439 -0.0239577
33 1.11936 0 0 -0.119206 0.171032 -0.185681
34 3.71348 0.102639 0.10219 -1.58909 0.862034 -0.119426
35 1.72615 0 0 -0.0146904 -0.0156263 0.786665
36 1.21112 0 0 0.000742672 0.0176205 0.639583
37 3.5992 1.06012 0.0708885 -1.63119 0.565989 -0.0670042
38 1.66069 0 0 0.0236725 0.0479982 0.681077
39 1.16699 0 0 0.00219282 -0.00509786 0.836227
40 2.18853 -0.50104 0.0576591 -1.56385 0.0595169 -0.173895
41 1.29609 0 0 -0.0829927 -0.0261582 0.746444
42 1.62201 -0.000711441 -0.000470161 -0.0204121 -0.0253736 0.977118
43 1.2224 0 0 -0.00883904 -0.00173473 0.485149
44 1.76707 -1.27612 0.0366402 -1.56318 0.0589349 -0.145416
45 1.55588 0 0 0.0303736 0.011842 0.90458
46 1.24273 0 0 0.000598415 0 0.620514
47 0.784531 0 0 -0.0124134 0.0105723 0.417843
48 0 0 0 0 0 0
49 -8.36355 -22.2534 -3.80518 2.81776 0.100603 2.5928
50 -3.3008 2.07667 -0.0219362 -1.61332 0 0
51 0.00576639 1.98489 -0.0178738 -1.61332 0 0
52 0.0057559 2.07248 -0.0285532 -1.61332 0 0
53 -3.46175 1.98076 -0.0216689 -1.61332 0 0
54 -3.15015 2.07651 -0.0257411 -1.61332 0 0
55 -1.68436 1.98075 -0.0216703 -1.61332 0 0
56 -1.09015 1.98075 -0.0216684 -1.61332 0 0
57 -1.58629 1.98075 -0.0216677 -1.61332 0 0
58 -1.31274 1.98074 -0.0216734 -1.61332 0 0
time 16
0 1.938 -2.84623 -11.5177 0 0 0
1 6.02794 0 0 -1.2072 0.41011 -1.83469
2 11.7344 0 0 -0.00140298 0 -1.3804
3 8.81138 -0.000450134 -0.000112057 0.587413 0 0.000157846
4 5.77839 0.000286102 0 0.393566 0 0.000108863
5 2.23163 -0.000328064 -0.000364304 0.193846 0 0
6 11.4725 0 0 0.600613 -0.022579 0.27386
7 0.615218 -0.993091 -0.8107 2.82704 0.355504 -0.444793
8 2.24752 0 0 0.090344 0.0910422 -0.073932
9 1.11936 0 0 0.0603409 0.0454306 -0.321969
10 3.71348 -0.10264 0.102191 1.55929 0.352511 0.0754344
11 1.72615 0 0 0.00902873 -0.0270616 -0.433803
12 1.21113 0 0 0.00354511 0.0172763 -0.395057
13 3.59919 -1.06012 0.070888 1.55869 0.396161 -0.0674144
14 1.66069 0 0 -0.0126177 0.0731066 -0.386254
15 1.167 0 0 -0.0253569 0.0266385 -0.354066
16 2.18852 0.50104 0.0576587 1.57004 -0.0310725 0.225922
17 1.29609 0 0 0.0114265 -0.0454194 -0.435318
18 1.62201 0.000713825 -0.000472069 -0.0017872 -0.0400527 -0.388522
19 1.22241 0 0 0.0161168 -0.0122075 -0.388536
20 1.76707 1.27612 0.0366411 1.57004 -0.00830634 0.261449
21 1.55588 0 0 -0.0212789 0.0246986 -0.416704
22 1.24273 0 0 -0.00058109 0.000148592 -0.429
23 0.784523 0 0 0.0131114 0.00969339 -0.348994
24 -1.93761 -2.84623 -11.5177 -0.000932534 0 3.14159
25 6.02794 0 0 0.686302 0.1855 0.910121
26 11.7344 0 0 0.00140265 0 1.34432
27 8.81167 0 0 1.57062 0 0
28 5.77884 0 0 1.05232 0 0
29 2.23249 0 0 0.518305 0 0
30 11.4725 0 0 1.57062 0.182453 -0.116632
31 0.615812 0.994372 -0.809166 -2.75079 0.325437 0.793311
32 2.24752 0 0 -0.0914701 -0.103439 -0.0239577
33 1.11936 0 0 -0.119206 0.171032 -0.185681
34 3.71348 0.102639 0.10219 -1.58909 0.862034 -0.119426
35 1.72615 0 0 -0.0146904 -0.0156263 0.786665
36 1.21112 0 0 0.000742672 0.0176205 0.639583
37 3.5992 1.06012 0.0708885 -1.63119 0.565989 -0.0670042
38 1.66069 0 0 0.0236725 0.0479982 0.681077
39 1.16699 0 0 0.00219282 -0.00509786 0.836227
40 2.18853 -0.50104 0.0576591 -1.56385 0.0595169 -0.173895
41 1.29609 0 0 -0.0829927 -0.0261582 0.746444
42 1.62201 -0.000711441 -0.000470161 -0.0204121 -0.0253736 0.977118
43 1.2224 0 0 -0.00883904 -0.00173473 0.485149
44 1.76707 -1.27612 0.0366402 -1.56318 0.0589349 -0.145416
45 1.55588 0 0 0.0303736 0.011842 0.90458
46 1.24273 0 0 0.000598415 0 0.620514
47 0.784531 0 0 -0.0124134 0.0105723 0.417843
48 0 0 0 0 0 0
49 -8.36355 -22.2534 -3.80518 2.81776 0.100603 2.5928
50 -3.3008 2.07667 -0.0219362 -1.61332 0 0
51 0.00576639 1.98489 -0.0178738 -1.61332 0 0
52 0.0057559 2.07248 -0.0285532 -1.61332 0 0
53 -3.46175 1.98076 -0.0216689 -1.61332 0 0
54 -3.15015 2.07651 -0.0257411 -1.61332 0 0
55 -1.68436 1.98075 -0.0216703 -1.61332 0 0
56 -1.09015 1.98075 -0.0216684 -1.61332 0 0
57 -1.58629 1.98075 -0.0216677 -1.61332 0 0
58 -1.31274 1.98074 -0.0216734 -1.61332 0 0
time 17
0 1.938 -2.84623 -11.5177 0 0 0
1 6.02794 0 0 -1.2072 0.41011 -1.83469
2 11.7344 0 0 -0.00140298 0 -1.3804
3 8.81138 -0.000450134 -0.000112057 0.587413 0 0.000157846
4 5.77839 0.000286102 0 0.393566 0 0.000108863
5 2.23163 -0.000328064 -0.000364304 0.193846 0 0
6 11.4725 0 0 0.600613 -0.022579 0.27386
7 0.615218 -0.993091 -0.8107 2.82704 0.355504 -0.444793
8 2.24752 0 0 0.090344 0.0910422 -0.073932
9 1.11936 0 0 0.0603409 0.0454306 -0.321969
10 3.71348 -0.10264 0.102191 1.55929 0.352511 0.0754344
11 1.72615 0 0 0.00902873 -0.0270616 -0.433803
12 1.21113 0 0 0.00354511 0.0172763 -0.395057
13 3.59919 -1.06012 0.070888 1.55869 0.396161 -0.0674144
14 1.66069 0 0 -0.0126177 0.0731066 -0.386254
15 1.167 0 0 -0.0253569 0.0266385 -0.354066
16 2.18852 0.50104 0.0576587 1.57004 -0.0310725 0.225922
17 1.29609 0 0 0.0114265 -0.0454194 -0.435318
18 1.62201 0.000713825 -0.000472069 -0.0017872 -0.0400527 -0.388522
19 1.22241 0 0 0.0161168 -0.0122075 -0.388536
20 1.76707 1.27612 0.0366411 1.57004 -0.00830634 0.261449
21 1.55588 0 0 -0.0212789 0.0246986 -0.416704
22 1.24273 0 0 -0.00058109 0.000148592 -0.429
23 0.784523 0 0 0.0131114 0.00969339 -0.348994
24 -1.93761 -2.84623 -11.5177 -0.000932534 0 3.14159
25 6.02794 0 0 0.686302 0.1855 0.910121
26 11.7344 0 0 0.00140265 0 1.34432
27 8.81167 0 0 1.57062 0 0
28 5.77884 0 0 1.05232 0 0
29 2.23249 0 0 0.518305 0 0
30 11.4725 0 0 1.57062 0.182453 -0.116632
31 0.615812 0.994372 -0.809166 -2.75079 0.325437 0.793311
32 2.24752 0 0 -0.0914701 -0.103439 -0.0239577
33 1.11936 0 0 -0.119206 0.171032 -0.185681
34 3.71348 0.102639 0.10219 -1.58909 0.862034 -0.119426
35 1.72615 0 0 -0.0146904 -0.0156263 0.786665
36 1.21112 0 0 0.000742672 0.0176205 0.639583
37 3.5992 1.06012 0.0708885 -1.63119 0.565989 -0.0670042
38 1.66069 0 0 0.0236725 0.0479982 0.681077
39 1.16699 0 0 0.00219282 -0.00509786 0.836227
40 2.18853 -0.50104 0.0576591 -1.56385 0.0595169 -0.173895
41 1.29609 0 0 -0.0829927 -0.0261582 0.746444
42 1.62201 -0.000711441 -0.000470161 -0.0204121 -0.0253736 0.977118
43 1.2224 0 0 -0.00883904 -0.00173473 0.485149
44 1.76707 -1.27612 0.0366402 -1.56318 0.0589349 -0.145416
45 1.55588 0 0 0.0303736 0.011842 0.90458
46 1.24273 0 0 0.000598415 0 0.620514
47 0.784531 0 0 -0.0124134 0.0105723 0.417843
48 0 0 0 0 0 0
49 -8.36355 -22.2534 -3.80518 2.81776 0.100603 2.5928
50 -3.3008 2.07667 -0.0219362 -1.61332 0 0
51 0.00576639 1.98489 -0.0178738 -1.61332 0 0
52 0.0057559 2.07248 -0.0285532 -1.61332 0 0
53 -3.46175 1.98076 -0.0216689 -1.61332 0 0
54 -3.15015 2.07651 -0.0257411 -1.61332 0 0
55 -1.68436 1.98075 -0.0216703 -1.61332 0 0
56 -1.09015 1.98075 -0.0216684 -1.61332 0 0
57 -1.58629 1.98075 -0.0216677 -1.61332 0 0
58 -1.31274 1.98074 -0.0216734 -1.61332 0 0
time 18
0 1.938 -2.84623 -11.5177 0 0 0
1 6.02794 0 0 -1.2072 0.41011 -1.83469
2 11.7344 0 0 -0.00140298 0 -1.3804
3 8.81138 -0.000450134 -0.000112057 0.587413 0 0.000157846
4 5.77839 0.000286102 0 0.393566 0 0.000108863
5 2.23163 -0.000328064 -0.000364304 0.193846 0 0
6 11.4725 0 0 0.600613 -0.022579 0.27386
7 0.615218 -0.993091 -0.8107 2.82704 0.355504 -0.444793
8 2.24752 0 0 0.090344 0.0910422 -0.073932
9 1.11936 0 0 0.0603409 0.0454306 -0.321969
10 3.71348 -0.10264 0.102191 1.55929 0.352511 0.0754344
11 1.72615 0 0 0.00902873 -0.0270616 -0.433803
12 1.21113 0 0 0.00354511 0.0172763 -0.395057
13 3.59919 -1.06012 0.070888 1.55869 0.396161 -0.0674144
14 1.66069 0 0 -0.0126177 0.0731066 -0.386254
15 1.167 0 0 -0.0253569 0.0266385 -0.354066
16 2.18852 0.50104 0.0576587 1.57004 -0.0310725 0.225922
17 1.29609 0 0 0.0114265 -0.0454194 -0.435318
18 1.62201 0.000713825 -0.000472069 -0.0017872 -0.0400527 -0.388522
19 1.22241 0 0 0.0161168 -0.0122075 -0.388536
20 1.76707 1.27612 0.0366411 1.57004 -0.00830634 0.261449
21 1.55588 0 0 -0.0212789 0.0246986 -0.416704
22 1.24273 0 0 -0.00058109 0.000148592 -0.429
23 0.784523 0 0 0.0131114 0.00969339 -0.348994
24 -1.93761 -2.84623 -11.5177 -0.000932534 0 3.14159
25 6.02794 0 0 0.686302 0.1855 0.910121
26 11.7344 0 0 0.00140265 0 1.34432
27 8.81167 0 0 1.57062 0 0
28 5.77884 0 0 1.05232 0 0
29 2.23249 0 0 0.518305 0 0
30 11.4725 0 0 1.57062 0.182453 -0.116632
31 0.615812 0.994372 -0.809166 -2.75079 0.325437 0.793311
32 2.24752 0 0 -0.0914701 -0.103439 -0.0239577
33 1.11936 0 0 -0.119206 0.171032 -0.185681
34 3.71348 0.102639 0.10219 -1.58909 0.862034 -0.119426
35 1.72615 0 0 -0.0146904 -0.0156263 0.786665
36 1.21112 0 0 0.000742672 0.0176205 0.639583
37 3.5992 1.06012 0.0708885 -1.63119 0.565989 -0.0670042
38 1.66069 0 0 0.0236725 0.0479982 0.681077
39 1.16699 0 0 0.00219282 -0.00509786 0.836227
40 2.18853 -0.50104 0.0576591 -1.56385 0.0595169 -0.173895
41 1.29609 0 0 -0.0829927 -0.0261582 0.746444
42 1.62201 -0.000711441 -0.000470161 -0.0204121 -0.0253736 0.977118
43 1.2224 0 0 -0.00883904 -0.00173473 0.485149
44 1.76707 -1.27612 0.0366402 -1.56318 0.0589349 -0.145416
45 1.55588 0 0 0.0303736 0.011842 0.90458
46 1.24273 0 0 0.000598415 0 0.620514
47 0.784531 0 0 -0.0124134 0.0105723 0.417843
48 0 0 0 0 0 0
49 -8.36355 -22.2534 -3.80518 2.81776 0.100603 2.5928
50 -3.3008 2.07667 -0.0219362 -1.61332 0 0
51 0.00576639 1.98489 -0.0178738 -1.61332 0 0
52 0.0057559 2.07248 -0.0285532 -1.61332 0 0
53 -3.46175 1.98076 -0.0216689 -1.61332 0 0
54 -3.15015 2.07651 -0.0257411 -1.61332 0 0
55 -1.68436 1.98075 -0.0216703 -1.61332 0 0
56 -1.09015 1.98075 -0.0216684 -1.61332 0 0
57 -1.58629 1.98075 -0.0216677 -1.61332 0 0
58 -1.31274 1.98074 -0.0216734 -1.61332 0 0
time 19
0 1.938 -2.84623 -11.5177 0 0 0
1 6.02794 0 0 -1.2072 0.41011 -1.83469
2 11.7344 0 0 -0.00140298 0 -1.3804
3 8.81138 -0.000450134 -0.000112057 0.587413 0 0.000157846
4 5.77839 0.000286102 0 0.393566 0 0.000108863
5 2.23163 -0.000328064 -0.000364304 0.193846 0 0
6 11.4725 0 0 0.600613 -0.022579 0.27386
7 0.615218 -0.993091 -0.8107 2.82704 0.355504 -0.444793
8 2.24752 0 0 0.090344 0.0910422 -0.073932
9 1.11936 0 0 0.0603409 0.0454306 -0.321969
10 3.71348 -0.10264 0.102191 1.55929 0.352511 0.0754344
11 1.72615 0 0 0.00902873 -0.0270616 -0.433803
12 1.21113 0 0 0.00354511 0.0172763 -0.395057
13 3.59919 -1.06012 0.070888 1.55869 0.396161 -0.0674144
14 1.66069 0 0 -0.0126177 0.0731066 -0.386254
15 1.167 0 0 -0.0253569 0.0266385 -0.354066
16 2.18852 0.50104 0.0576587 1.57004 -0.0310725 0.225922
17 1.29609 0 0 0.0114265 -0.0454194 -0.435318
18 1.62201 0.000713825 -0.000472069 -0.0017872 -0.0400527 -0.388522
19 1.22241 0 0 0.0161168 -0.0122075 -0.388536
20 1.76707 1.27612 0.0366411 1.57004 -0.00830634 0.261449
21 1.55588 0 0 -0.0212789 0.0246986 -0.416704
22 1.24273 0 0 -0.00058109 0.000148592 -0.429
23 0.784523 0 0 0.0131114 0.00969339 -0.348994
24 -1.93761 -2.84623 -11.5177 -0.000932534 0 3.14159
25 6.02794 0 0 0.686302 0.1855 0.910121
26 11.7344 0 0 0.00140265 0 1.34432
27 8.81167 0 0 1.57062 0 0
28 5.77884 0 0 1.05232 0 0
29 2.23249 0 0 0.518305 0 0
30 11.4725 0 0 1.57062 0.182453 -0.116632
31 0.615812 0.994372 -0.809166 -2.75079 0.325437 0.793311
32 2.24752 0 0 -0.0914701 -0.103439 -0.0239577
33 1.11936 0 0 -0.119206 0.171032 -0.185681
34 3.71348 0.102639 0.10219 -1.58909 0.862034 -0.119426
35 1.72615 0 0 -0.0146904 -0.0156263 0.786665
36 1.21112 0 0 0.000742672 0.0176205 0.639583
37 3.5992 1.06012 0.0708885 -1.63119 0.565989 -0.0670042
38 1.66069 0 0 0.0236725 0.0479982 0.681077
39 1.16699 0 0 0.00219282 -0.00509786 0.836227
40 2.18853 -0.50104 0.0576591 -1.56385 0.0595169 -0.173895
41 1.29609 0 0 -0.0829927 -0.0261582 0.746444
42 1.62201 -0.000711441 -0.000470161 -0.0204121 -0.0253736 0.977118
43 1.2224 0 0 -0.00883904 -0.00173473 0.485149
44 1.76707 -1.27612 0.0366402 -1.56318 0.0589349 -0.145416
45 1.55588 0 0 0.0303736 0.011842 0.90458
46 1.24273 0 0 0.000598415 0 0.620514
47 0.784531 0 0 -0.0124134 0.0105723 0.417843
48 0 0 0 0 0 0
49 -8.36355 -22.2534 -3.80518 2.81776 0.100603 2.5928
50 -3.3008 2.07667 -0.0219362 -1.61332 0 0
51 0.00576639 1.98489 -0.0178738 -1.61332 0 0
52 0.0057559 2.07248 -0.0285532 -1.61332 0 0
53 -3.46175 1.98076 -0.0216689 -1.61332 0 0
54 -3.15015 2.07651 -0.0257411 -1.61332 0 0
55 -1.68436 1.98075 -0.0216703 -1.61332 0 0
56 -1.09015 1.98075 -0.0216684 -1.61332 0 0
57 -1.58629 1.98075 -0.0216677 -1.61332 0 0
58 -1.31274 1.98074 -0.0216734 -1.61332 0 0
time 20
0 1.938 -2.84623 -11.5177 0 0 0
1 6.02794 0 0 -1.2072 0.41011 -1.83469
2 11.7344 0 0 -0.00140298 0 -1.3804
3 8.81138 -0.000450134 -0.000112057 0.587413 0 0.000157846
4 5.77839 0.000286102 0 0.393566 0 0.000108863
5 2.23163 -0.000328064 -0.000364304 0.193846 0 0
6 11.4725 0 0 0.600613 -0.022579 0.27386
7 0.615218 -0.993091 -0.8107 2.82704 0.355504 -0.444793
8 2.24752 0 0 0.090344 0.0910422 -0.073932
9 1.11936 0 0 0.0603409 0.0454306 -0.321969
10 3.71348 -0.10264 0.102191 1.55929 0.352511 0.0754344
11 1.72615 0 0 0.00902873 -0.0270616 -0.433803
12 1.21113 0 0 0.00354511 0.0172763 -0.395057
13 3.59919 -1.06012 0.070888 1.55869 0.396161 -0.0674144
14 1.66069 0 0 -0.0126177 0.0731066 -0.386254
15 1.167 0 0 -0.0253569 0.0266385 -0.354066
16 2.18852 0.50104 0.0576587 1.57004 -0.0310725 0.225922
17 1.29609 0 0 0.0114265 -0.0454194 -0.435318
18 1.62201 0.000713825 -0.000472069 -0.0017872 -0.0400527 -0.388522
19 1.22241 0 0 0.0161168 -0.0122075 -0.388536
20 1.76707 1.27612 0.0366411 1.57004 -0.00830634 0.261449
21 1.55588 0 0 -0.0212789 0.0246986 -0.416704
22 1.24273 0 0 -0.00058109 0.000148592 -0.429
23 0.784523 0 0 0.0131114 0.00969339 -0.348994
24 -1.93761 -2.84623 -11.5177 -0.000932534 0 3.14159
25 6.02794 0 0 0.686302 0.1855 0.910121
26 11.7344 0 0 0.00140265 0 1.34432
27 8.81167 0 0 1.57062 0 0
28 5.77884 0 0 1.05232 0 0
29 2.23249 0 0 0.518305 0 0
30 11.4725 0 0 1.57062 0.182453 -0.116632
31 0.615812 0.994372 -0.809166 -2.75079 0.325437 0.793311
32 2.24752 0 0 -0.0914701 -0.103439 -0.0239577
33 1.11936 0 0 -0.119206 0.171032 -0.185681
34 3.71348 0.102639 0.10219 -1.58909 0.862034 -0.119426
35 1.72615 0 0 -0.0146904 -0.0156263 0.786665
36 1.21112 0 0 0.000742672 0.0176205 0.639583
37 3.5992 1.06012 0.0708885 -1.63119 0.565989 -0.0670042
38 1.66069 0 0 0.0236725 0.0479982 0.681077
39 1.16699 0 0 0.00219282 -0.00509786 0.836227
40 2.18853 -0.50104 0.0576591 -1.56385 0.0595169 -0.173895
41 1.29609 0 0 -0.0829927 -0.0261582 0.746444
42 1.62201 -0.000711441 -0.000470161 -0.0204121 -0.0253736 0.977118
43 1.2224 0 0 -0.00883904 -0.00173473 0.485149
44 1.76707 -1.27612 0.0366402 -1.56318 0.0589349 -0.145416
45 1.55588 0 0 0.0303736 0.011842 0.90458
46 1.24273 0 0 0.000598415 0 0.620514
47 0.784531 0 0 -0.0124134 0.0105723 0.417843
48 0 0 0 0 0 0
49 -8.36355 -22.2534 -3.80518 2.81776 0.100603 2.5928
50 -3.3008 2.07667 -0.0219362 -1.61332 0 0
51 0.00576639 1.98489 -0.0178738 -1.61332 0 0
52 0.0057559 2.07248 -0.0285532 -1.61332 0 0
53 -3.46175 1.98076 -0.0216689 -1.61332 0 0
54 -3.15015 2.07651 -0.0257411 -1.61332 0 0
55 -1.68436 1.98075 -0.0216703 -1.61332 0 0
56 -1.09015 1.98075 -0.0216684 -1.61332 0 0
57 -1.58629 1.98075 -0.0216677 -1.61332 0 0
58 -1.31274 1.98074 -0.0216734 -1.61332 0 0
end
