//Sequence File generated by the Wall Worm SMD Exporter PRO 1.99
//www.wallworm.com
version 1
nodes
0 "b_l_clav" -1
1 "b_l_upperarm" 0
2 "b_l_forearm" 1
3 "b_l_twist3" 2
4 "b_l_twist2" 2
5 "b_l_twist1" 2
6 "b_l_hand" 2
7 "b_l_thumb001" 6
8 "b_l_thumb002" 7
9 "b_l_thumb003" 8
10 "b_l_middle001" 6
11 "b_l_middle002" 10
12 "b_l_middle003" 11
13 "b_l_index001" 6
14 "b_l_index002" 13
15 "b_l_index003" 14
16 "b_l_hand_ringsqueezer" 6
17 "b_l_ring001" 16
18 "b_l_ring002" 17
19 "b_l_ring003" 18
20 "b_l_hand_pinkysqueezer" 6
21 "b_l_pinky001" 20
22 "b_l_pinky002" 21
23 "b_l_pinky003" 22
24 "b_r_clav" -1
25 "b_r_upperarm" 24
26 "b_r_forearm" 25
27 "b_r_twist3" 26
28 "b_r_twist2" 26
29 "b_r_twist1" 26
30 "b_r_hand" 26
31 "b_r_thumb001" 30
32 "b_r_thumb002" 31
33 "b_r_thumb003" 32
34 "b_r_middle001" 30
35 "b_r_middle002" 34
36 "b_r_middle003" 35
37 "b_r_index001" 30
38 "b_r_index002" 37
39 "b_r_index003" 38
40 "b_r_hand_ringsqueezer" 30
41 "b_r_ring001" 40
42 "b_r_ring002" 41
43 "b_r_ring003" 42
44 "b_r_hand_pinkysqueezer" 30
45 "b_r_pinky001" 44
46 "b_r_pinky002" 45
47 "b_r_pinky003" 46
48 "b_zero" -1
49 "d_phone" -1
50 "d_menu" 49
51 "d_meme" 49
52 "d_lightup" 49
53 "d_call" 49
54 "d_backgroundstuff" 49
55 "d_7" 49
56 "d_2" 49
57 "d_0b" 49
58 "d_0a" 49
end
skeleton
time 0
0 1.938 -2.84623 -11.5177 0 0 0
1 6.02794 0 0 -1.30336 0.288047 -1.66692
2 11.7344 0 0 -0.00140283 0 -0.923295
3 8.81138 -0.000450134 -0.00011158 0.760684 0 0.000157095
4 5.77839 0.000286102 0 0.509658 0 0.000109336
5 2.23163 -0.000328064 -0.000364304 0.251026 0 0
6 11.4725 0 0 0.780711 -0.00391449 0.28542
7 0.615219 -0.993091 -0.810699 2.33902 0.155091 -0.714923
8 2.24752 0 0 0.114871 0.0703093 0.166296
9 1.11936 0 0 0.0687037 0.0585169 -0.351506
10 3.71348 -0.102641 0.102192 1.55929 0.352511 0.0754343
11 1.72615 0 0 0.00902877 -0.0270614 -0.433803
12 1.21114 0 0 0.00354514 0.0172764 -0.395057
13 3.59919 -1.06012 0.0708885 1.55869 0.396162 -0.0674143
14 1.66069 0 0 -0.0126177 0.0731066 -0.386254
15 1.167 0 0 -0.0253568 0.0266387 -0.354066
16 2.18852 0.50104 0.0576591 1.57004 -0.0310726 0.225922
17 1.29609 0 0 0.0114267 -0.0454193 -0.435318
18 1.62202 0.000714302 -0.000471115 -0.00178711 -0.0400528 -0.388522
19 1.22241 0 0 0.0161168 -0.0122075 -0.388536
20 1.76707 1.27612 0.0366421 1.57004 -0.00830641 0.261449
21 1.55588 0 0 -0.0212789 0.0246986 -0.416705
22 1.24273 0 0 -0.000580973 0.000148617 -0.429
23 0.784525 0 0 0.0131114 0.00969327 -0.348994
24 -1.93761 -2.85129 -11.3578 -0.000932534 0 3.14159
25 6.02794 0 0 1.11516 -0.050704 0.549386
26 11.7344 0 0 0.0014027 0 2.56469
27 8.81167 0 0 -0.0502275 0 0
28 5.77884 0 0 -0.0336524 0 0
29 2.23249 0 0 -0.0165751 0 0
30 11.4725 0 0 1.13077 -0.709613 -1.29031
31 0.615813 0.994372 -0.809165 -2.75079 0.325437 0.793311
32 2.24752 0 0 -0.0914699 -0.103439 -0.0239576
33 1.11936 0 0 -0.119206 0.171032 -0.185681
34 3.71349 0.102639 0.102192 -1.58909 0.862034 -0.119426
35 1.72615 0 0 -0.0146905 -0.0156264 0.786665
36 1.21112 0 0 0.000742725 0.0176205 0.639583
37 3.5992 1.06012 0.0708876 -1.63119 0.565989 -0.0670042
38 1.66069 0 0 0.0236725 0.0479982 0.681077
39 1.16699 0 0 0.00219278 -0.00509779 0.836227
40 2.18853 -0.50104 0.0576582 -1.56385 0.0595171 -0.173895
41 1.29609 0 0 -0.0829927 -0.0261581 0.746444
42 1.62202 -0.000712395 -0.000469685 -0.0204121 -0.0253737 0.977118
43 1.2224 0 0 -0.00883911 -0.00173469 0.485149
44 1.76707 -1.27612 0.0366402 -1.56318 0.0589348 -0.145416
45 1.55588 0 0 0.0303734 0.011842 0.90458
46 1.24273 0 0 0.000598431 0 0.620514
47 0.784531 0 0 -0.0124134 0.0105723 0.417843
48 0 0 0 0 0 0
49 -7.26593 -4.25155 -1.64465 -2.8319 1.22062 1.91114
50 -3.3008 1.98092 -0.0178614 -1.61333 0 0
51 0.00576687 1.98489 -0.0178733 -1.61332 0 0
52 0.00575638 2.07249 -0.0285535 -1.61332 0 0
53 -3.46178 2.07651 -0.025743 -1.61332 0 0
54 -3.15015 2.07651 -0.0257421 -1.61332 0 0
55 -1.68436 2.09113 -0.0263638 -1.61332 0 0
56 -1.61192 2.09074 -0.035563 -1.61332 0 0
57 -1.74901 2.09114 -0.0263638 -1.61332 0 0
58 -1.65881 2.09113 -0.0263638 -1.61333 0 0
time 1
0 1.938 -2.84623 -11.5177 0 0 0
1 6.02794 0 0 -1.30422 0.274024 -1.67151
2 11.7344 0 0 -0.00140293 0 -0.896385
3 8.81138 -0.000448227 -0.000113487 0.761788 0 0.000157841
4 5.77839 0.000286102 0 0.510398 0 0.000109951
5 2.23163 -0.000328064 -0.00036478 0.25139 0 0
6 11.4725 0 0 0.779711 -0.00187372 0.268326
7 0.615217 -0.993091 -0.8107 2.33902 0.155091 -0.714923
8 2.24752 0 0 0.114871 0.0703092 0.166296
9 1.11936 0 0 0.0687035 0.0585169 -0.351506
10 3.71348 -0.102641 0.10219 1.55933 0.341464 0.0755691
11 1.72615 0 0 0.00872919 -0.0271596 -0.422751
12 1.21114 0 0 0.00373579 0.017236 -0.384007
13 3.59919 -1.06012 0.0708866 1.55875 0.385115 -0.0672703
14 1.66069 0 0 -0.0117678 0.073346 -0.37518
15 1.167 0 0 -0.025127 0.0272499 -0.343032
16 2.18852 0.501039 0.0576582 1.57004 -0.031663 0.225922
17 1.29609 0 0 0.0109239 -0.0455428 -0.42426
18 1.62202 0.000714779 -0.000469208 -0.00222991 -0.0400305 -0.377465
19 1.22241 0 0 0.0159898 -0.0125008 -0.377492
20 1.76707 1.27612 0.0366402 1.57004 -0.00889683 0.261449
21 1.55587 0 0 -0.0210049 0.0249322 -0.405656
22 1.24273 0 0 -0.000579233 0.000155003 -0.417952
23 0.784519 0 0 0.0132177 0.00954793 -0.337947
24 -1.93761 -2.86517 -10.9194 -0.000932534 0 3.14159
25 6.02794 0 0 1.12403 -0.0394302 0.555305
26 11.7344 0 0 0.00140278 0 2.60315
27 8.81167 0 0 -0.150455 0 0
28 5.77884 0 0 -0.100805 0 0
29 2.23249 0 0 -0.0496504 0 0
30 11.4725 0 0 1.12031 -0.731172 -1.31036
31 0.615813 0.994373 -0.809165 -2.75079 0.325437 0.793311
32 2.24752 0 0 -0.09147 -0.103439 -0.0239577
33 1.11936 0 0 -0.119206 0.171032 -0.185681
34 3.71349 0.102639 0.102192 -1.58909 0.862034 -0.119426
35 1.72615 0 0 -0.0146903 -0.0156264 0.786665
36 1.21112 0 0 0.000742644 0.0176206 0.639583
37 3.5992 1.06012 0.0708876 -1.63119 0.565989 -0.0670042
38 1.66069 0 0 0.0236724 0.0479981 0.681077
39 1.16699 0 0 0.00219301 -0.00509786 0.836227
40 2.18853 -0.50104 0.0576591 -1.56385 0.0595169 -0.173895
41 1.29609 0 0 -0.0829927 -0.0261581 0.746444
42 1.62202 -0.000713825 -0.000470161 -0.0204121 -0.0253738 0.977118
43 1.22241 0 0 -0.00883901 -0.00173473 0.485149
44 1.76707 -1.27612 0.0366421 -1.56318 0.0589348 -0.145416
45 1.55588 0 0 0.0303736 0.0118422 0.90458
46 1.24273 0 0 0.00059842 0 0.620514
47 0.784531 0 0 -0.0124136 0.0105724 0.417843
48 0 0 0 0 0 0
49 -7.26513 -3.89965 -1.59224 -2.83467 1.24866 1.90838
50 -3.3008 1.98092 -0.0178618 -1.61333 0 0
51 0.00576675 1.98489 -0.0178738 -1.61332 0 0
52 0.0057565 2.07248 -0.0285535 -1.61332 0 0
53 -3.46178 2.07651 -0.0257425 -1.61332 0 0
54 -3.15015 2.07651 -0.0257416 -1.61333 0 0
55 -1.68436 2.09113 -0.0263634 -1.61332 0 0
56 -1.61192 2.09074 -0.035563 -1.61332 0 0
57 -1.74901 2.09114 -0.0263638 -1.61332 0 0
58 -1.65881 2.09114 -0.0263638 -1.61333 0 0
time 2
0 1.938 -2.84623 -11.5177 0 0 0
1 6.02794 0 0 -1.30635 0.235537 -1.68377
2 11.7344 0 0 -0.00140273 0 -0.821783
3 8.81138 -0.000450134 -0.000112534 0.765191 0 0.000158036
4 5.77839 0.00028801 0 0.512678 0 0.000110139
5 2.23163 -0.000328064 -0.000364304 0.252513 0 0
6 11.4725 0 0 0.77792 0.00343189 0.221512
7 0.615217 -0.993091 -0.8107 2.33902 0.155092 -0.714923
8 2.24752 0 0 0.114871 0.0703093 0.166296
9 1.11936 0 0 0.0687035 0.0585168 -0.351506
10 3.71348 -0.10264 0.102191 1.55945 0.311479 0.0759304
11 1.72615 0 0 0.00791079 -0.027409 -0.392754
12 1.21114 0 0 0.00425079 0.0171163 -0.354016
13 3.59919 -1.06012 0.0708876 1.55889 0.35513 -0.066885
14 1.66069 0 0 -0.00945376 0.0739482 -0.345118
15 1.167 0 0 -0.024485 0.0288864 -0.313082
16 2.18852 0.50104 0.0576591 1.57004 -0.0332659 0.225924
17 1.29609 0 0 0.00955246 -0.0458498 -0.394243
18 1.62202 0.000713348 -0.000471115 -0.00342962 -0.0399456 -0.347454
19 1.22241 0 0 0.0156343 -0.0132874 -0.347514
20 1.76707 1.27612 0.0366411 1.57004 -0.0104997 0.26145
21 1.55588 0 0 -0.0202478 0.0255506 -0.375665
22 1.24273 0 0 -0.000574313 0.000172428 -0.387965
23 0.784523 0 0 0.0134981 0.0091474 -0.307961
24 -1.93761 -2.88591 -10.2644 -0.000932534 0 3.14159
25 6.02794 0 0 1.16751 -0.0768375 0.557442
26 11.7344 0 0 0.00140276 0 2.62478
27 8.81167 0 0 -0.314127 0 0
28 5.77884 0 0 -0.210465 0 0
29 2.23249 0 0 -0.103662 0 0
30 11.4725 0 0 1.13636 -0.757747 -1.36659
31 0.615813 0.994371 -0.809165 -2.75079 0.325437 0.793311
32 2.24752 0 0 -0.0914701 -0.103439 -0.0239576
33 1.11936 0 0 -0.119206 0.171032 -0.185681
34 3.71349 0.102639 0.102191 -1.58909 0.862034 -0.119426
35 1.72615 0 0 -0.0146904 -0.0156263 0.786665
36 1.21112 0 0 0.000742632 0.0176206 0.639583
37 3.5992 1.06012 0.0708866 -1.63119 0.56599 -0.0670042
38 1.66069 0 0 0.0236726 0.0479982 0.681077
39 1.16699 0 0 0.00219287 -0.00509777 0.836227
40 2.18853 -0.50104 0.0576591 -1.56385 0.0595169 -0.173895
41 1.29609 0 0 -0.0829926 -0.0261581 0.746444
42 1.62202 -0.000712872 -0.000469685 -0.0204121 -0.0253737 0.977118
43 1.2224 0 0 -0.00883903 -0.00173473 0.485149
44 1.76707 -1.27612 0.0366402 -1.56318 0.0589348 -0.145416
45 1.55588 0 0 0.0303736 0.011842 0.90458
46 1.24273 0 0 0.000598438 0 0.620514
47 0.784531 0 0 -0.0124134 0.0105723 0.417843
48 0 0 0 0 0 0
49 -7.25635 -3.21172 -1.11163 -2.84197 1.32259 1.90109
50 -3.3008 1.98092 -0.0178611 -1.61333 0 0
51 0.00576693 1.98489 -0.0178738 -1.61332 0 0
52 0.00575662 2.07248 -0.0285535 -1.61332 0 0
53 -3.46178 2.07651 -0.0257428 -1.61332 0 0
54 -3.15015 2.07651 -0.0257418 -1.61332 0 0
55 -1.68436 2.09113 -0.0263636 -1.61332 0 0
56 -1.61192 2.09074 -0.035563 -1.61332 0 0
57 -1.74901 2.09114 -0.0263638 -1.61332 0 0
58 -1.65881 2.09114 -0.0263638 -1.61333 0 0
time 3
0 1.938 -2.84623 -11.5177 0 0 0
1 6.02794 0 0 -1.30901 0.176016 -1.70189
2 11.7344 0 0 -0.00140284 0 -0.704628
3 8.81138 -0.000450134 -0.00011301 0.770729 0 0.000157565
4 5.77839 0.000286102 0 0.516388 0 0.000109743
5 2.23163 -0.000328064 -0.000364304 0.25434 0 0
6 11.4725 0 0 0.777126 0.0107636 0.149628
7 0.615217 -0.993092 -0.8107 2.33902 0.155092 -0.714923
8 2.24752 0 0 0.114872 0.0703091 0.166296
9 1.11936 0 0 0.0687036 0.058517 -0.351506
10 3.71348 -0.102642 0.102191 1.5596 0.26729 0.0764502
11 1.72614 0 0 0.00669201 -0.0277318 -0.348546
12 1.21114 0 0 0.005003 0.0169119 -0.309819
13 3.59919 -1.06012 0.0708876 1.55907 0.310941 -0.0663324
14 1.66069 0 0 -0.00602824 0.0747087 -0.300813
15 1.167 0 0 -0.0234899 0.0312365 -0.268938
16 2.18852 0.501038 0.0576591 1.57004 -0.0356278 0.225926
17 1.29609 0 0 0.00751636 -0.0462271 -0.350006
18 1.62201 0.000713348 -0.000471115 -0.00519196 -0.0397552 -0.303228
19 1.22241 0 0 0.0150825 -0.0144194 -0.303334
20 1.76707 1.27612 0.0366402 1.57004 -0.0128616 0.261452
21 1.55588 0 0 -0.0190991 0.0264202 -0.331467
22 1.24273 0 0 -0.000566233 0.000197528 -0.343773
23 0.784521 0 0 0.0138889 0.00854216 -0.263772
24 -1.93761 -2.91155 -9.45468 -0.000932534 0 3.14159
25 6.02794 0 0 1.28637 -0.22095 0.515749
26 11.7344 0 0 0.00140269 0 2.54736
27 8.81167 0 0 -0.415633 0 0
28 5.77884 0 0 -0.278474 0 0
29 2.23249 0 0 -0.137159 0 0
30 11.4725 0 0 1.21341 -0.722306 -1.44909
31 0.615813 0.994372 -0.809165 -2.75079 0.325437 0.793311
32 2.24752 0 0 -0.09147 -0.103439 -0.0239575
33 1.11936 0 0 -0.119206 0.171032 -0.185681
34 3.71349 0.102639 0.102191 -1.58909 0.862034 -0.119426
35 1.72615 0 0 -0.0146907 -0.0156264 0.786665
36 1.21112 0 0 0.000742881 0.0176205 0.639583
37 3.5992 1.06012 0.0708885 -1.63119 0.565989 -0.0670042
38 1.66069 0 0 0.0236724 0.0479981 0.681077
39 1.16699 0 0 0.00219288 -0.00509783 0.836227
40 2.18853 -0.50104 0.0576591 -1.56385 0.0595169 -0.173895
41 1.29609 0 0 -0.0829927 -0.0261582 0.746444
42 1.62202 -0.000713348 -0.000469685 -0.0204122 -0.0253737 0.977118
43 1.2224 0 0 -0.008839 -0.00173475 0.485149
44 1.76707 -1.27612 0.0366411 -1.56318 0.0589348 -0.145416
45 1.55588 0 0 0.0303735 0.011842 0.90458
46 1.24273 0 0 0.000598447 0 0.620514
47 0.78453 0 0 -0.0124134 0.0105724 0.417843
48 0 0 0 0 0 0
49 -7.24156 -2.24344 0.650176 -2.85228 1.42712 1.8908
50 -3.3008 1.98092 -0.0178611 -1.61333 0 0
51 0.00576687 1.98489 -0.0178735 -1.61332 0 0
52 0.00575662 2.07248 -0.0285535 -1.61332 0 0
53 -3.46178 2.07651 -0.0257428 -1.61332 0 0
54 -3.15015 2.07651 -0.0257416 -1.61332 0 0
55 -1.68436 2.09113 -0.0263635 -1.61332 0 0
56 -1.61192 2.09074 -0.0355632 -1.61332 0 0
57 -1.74901 2.09114 -0.026364 -1.61332 0 0
58 -1.65881 2.09113 -0.0263634 -1.61333 0 0
time 4
0 1.938 -2.84623 -11.5177 0 0 0
1 6.02794 0 0 -1.31137 0.095151 -1.7252
2 11.7344 0 0 -0.00140282 0 -0.542402
3 8.81138 -0.000450134 -0.000112057 0.778085 0 0.00015755
4 5.77839 0.000286102 0 0.521317 0 0.000109868
5 2.23163 -0.000329971 -0.000363827 0.256768 0 0
6 11.4725 0 0 0.779218 0.0188692 0.0535633
7 0.615219 -0.993092 -0.810699 2.33902 0.155092 -0.714923
8 2.24752 0 0 0.114871 0.0703093 0.166296
9 1.11936 0 0 0.0687035 0.0585169 -0.351506
10 3.71348 -0.10264 0.102191 1.55974 0.213632 0.077065
11 1.72615 0 0 0.00519438 -0.0280508 -0.294865
12 1.21114 0 0 0.00590303 0.0166192 -0.256151
13 3.59919 -1.06012 0.0708885 1.55925 0.257283 -0.0656818
14 1.66068 0 0 -0.00185294 0.0754282 -0.247007
15 1.167 0 0 -0.0222074 0.033989 -0.215326
16 2.18852 0.50104 0.0576591 1.57004 -0.0384961 0.225928
17 1.29609 0 0 0.00502434 -0.0465636 -0.296288
18 1.62202 0.000713825 -0.000471115 -0.00731786 -0.0394195 -0.249525
19 1.22241 0 0 0.0143696 -0.0157488 -0.249686
20 1.76707 1.27612 0.0366411 1.57004 -0.01573 0.261455
21 1.55588 0 0 -0.0176545 0.0274064 -0.277796
22 1.24273 0 0 -0.000554784 0.000227612 -0.290112
23 0.784521 0 0 0.0143272 0.00778512 -0.210114
24 -1.93761 -2.94013 -8.5521 -0.000932534 0 3.14159
25 6.02794 0 0 1.44895 -0.420841 0.40548
26 11.7344 0 0 0.00140276 0 2.34119
27 8.81167 0 0 -0.282317 0 0
28 5.77884 0 0 -0.189152 0 0
29 2.23249 0 0 -0.0931646 0 0
30 11.4725 0 0 1.31347 -0.653451 -1.47203
31 0.615813 0.994372 -0.809165 -2.75079 0.325437 0.793311
32 2.24752 0 0 -0.09147 -0.103439 -0.0239577
33 1.11936 0 0 -0.119206 0.171032 -0.185681
34 3.71349 0.102639 0.10219 -1.58909 0.862034 -0.119426
35 1.72615 0 0 -0.0146905 -0.0156264 0.786665
36 1.21112 0 0 0.000742481 0.0176206 0.639583
37 3.5992 1.06012 0.0708876 -1.63119 0.565989 -0.0670042
38 1.66069 0 0 0.0236726 0.0479981 0.681077
39 1.16699 0 0 0.00219286 -0.00509776 0.836227
40 2.18853 -0.50104 0.0576582 -1.56385 0.0595169 -0.173895
41 1.29609 0 0 -0.0829927 -0.0261583 0.746444
42 1.62202 -0.000712395 -0.000469685 -0.020412 -0.0253738 0.977118
43 1.2224 0 0 -0.00883905 -0.00173473 0.485149
44 1.76707 -1.27612 0.0366411 -1.56318 0.0589348 -0.145416
45 1.55588 0 0 0.0303736 0.011842 0.90458
46 1.24273 0 0 0.000598349 0 0.620514
47 0.784532 0 0 -0.0124134 0.0105723 0.417843
48 0 0 0 0 0 0
49 -7.22375 -0.858844 3.73444 -2.86411 1.54694 1.87899
50 -3.3008 1.98092 -0.0178614 -1.61333 0 0
51 0.00576687 1.98489 -0.0178735 -1.61332 0 0
52 0.00575686 2.07248 -0.0285535 -1.61332 0 0
53 -3.46178 2.07651 -0.0257425 -1.61332 0 0
54 -3.15015 2.07651 -0.0257415 -1.61333 0 0
55 -1.68436 2.09113 -0.0263634 -1.61332 0 0
56 -1.61192 2.09074 -0.0355629 -1.61332 0 0
57 -1.74901 2.09114 -0.0263639 -1.61332 0 0
58 -1.65881 2.09113 -0.0263638 -1.61333 0 0
time 5
0 1.938 -2.84623 -11.5177 0 0 0
1 6.02794 0 0 -1.31221 -0.0178781 -1.75602
2 11.7344 0 0 -0.00140295 0 -0.310846
3 8.81138 -0.000450134 -0.00011158 0.785999 0 0.000157438
4 5.77839 0.000286102 0 0.526619 0 0.000109718
5 2.23163 -0.000329971 -0.00036335 0.259379 0 0
6 11.4725 0 0 0.786283 0.0265089 -0.0766211
7 0.615219 -0.993092 -0.810699 2.33902 0.155091 -0.714923
8 2.24752 0 0 0.114871 0.0703093 0.166296
9 1.11936 0 0 0.0687036 0.0585169 -0.351506
10 3.71348 -0.10264 0.102192 1.55986 0.155239 0.0777178
11 1.72615 0 0 0.00354809 -0.0283062 -0.236447
12 1.21114 0 0 0.00686281 0.0162463 -0.197747
13 3.59919 -1.06012 0.0708885 1.55941 0.198891 -0.0649945
14 1.66069 0 0 0.00269674 0.075956 -0.188447
15 1.167 0 0 -0.0207264 0.0368531 -0.156969
16 2.18852 0.50104 0.0576591 1.57004 -0.0416172 0.22593
17 1.29609 0 0 0.00229624 -0.0467775 -0.237828
18 1.62202 0.00071454 -0.000471115 -0.009607 -0.0389251 -0.191086
19 1.22241 0 0 0.0135431 -0.0171369 -0.1913
20 1.76707 1.27612 0.0366421 1.57004 -0.0188511 0.261457
21 1.55588 0 0 -0.0160247 0.02839 -0.219385
22 1.24273 0 0 -0.000540623 0.00025953 -0.231716
23 0.784525 0 0 0.014757 0.00693551 -0.151722
24 -1.93761 -2.96968 -7.61857 -0.000932534 0 3.14159
25 6.02794 0 0 1.58237 -0.60938 0.289378
26 11.7344 0 0 0.00140274 0 2.04522
27 8.81167 0 0 0.384025 0 0
28 5.77884 0 0 0.257297 0 0
29 2.23249 0 0 0.126728 0 0
30 11.4725 0 0 1.38381 -0.635352 -1.39779
31 0.615813 0.994372 -0.809165 -2.75079 0.325437 0.793311
32 2.24752 0 0 -0.0914701 -0.103439 -0.0239575
33 1.11936 0 0 -0.119206 0.171032 -0.185681
34 3.71349 0.102639 0.102191 -1.58909 0.862034 -0.119426
35 1.72615 0 0 -0.0146906 -0.0156263 0.786665
36 1.21112 0 0 0.000742719 0.0176205 0.639583
37 3.5992 1.06012 0.0708866 -1.63119 0.565989 -0.0670044
38 1.66069 0 0 0.0236724 0.0479981 0.681077
39 1.16699 0 0 0.00219309 -0.0050978 0.836227
40 2.18853 -0.50104 0.0576591 -1.56385 0.0595167 -0.173895
41 1.29609 0 0 -0.0829927 -0.0261584 0.746444
42 1.62202 -0.000713348 -0.000470638 -0.0204121 -0.0253738 0.977118
43 1.22241 0 0 -0.0088392 -0.00173466 0.485149
44 1.76707 -1.27612 0.0366406 -1.56318 0.0589345 -0.145416
45 1.55588 0 0 0.0303737 0.011842 0.90458
46 1.24273 0 0 0.00059826 0 0.620514
47 0.784531 0 0 -0.0124135 0.0105723 0.417843
48 0 0 0 0 0 0
49 -7.19474 0.677901 7.40857 0.265651 1.47483 -1.2744
50 -3.3008 1.98092 -0.0178614 -1.61333 0 0
51 0.00576687 1.98489 -0.0178735 -1.61332 0 0
52 0.00575686 2.07248 -0.0285534 -1.61332 0 0
53 -3.46178 2.07651 -0.0257426 -1.61332 0 0
54 -3.15015 2.07651 -0.0257416 -1.61332 0 0
55 -1.68436 2.09113 -0.0263634 -1.61332 0 0
56 -1.61192 2.09074 -0.035563 -1.61332 0 0
57 -1.74901 2.09114 -0.0263639 -1.61332 0 0
58 -1.65881 2.09113 -0.0263637 -1.61333 0 0
time 6
0 1.938 -2.84623 -11.5177 0 0 0
1 6.02794 0 0 -1.30854 -0.168984 -1.79613
2 11.7344 0 0 -0.00140286 0 0.00396967
3 8.81138 -0.000451088 -0.00011158 0.78954 0 0.000157323
4 5.77839 0.000285149 0 0.528991 0 0.000109751
5 2.23163 -0.000329971 -0.000364304 0.260548 0 0
6 11.4725 0 0 0.800589 0.032455 -0.245502
7 0.615217 -0.993092 -0.810699 2.33902 0.155092 -0.714923
8 2.24752 0 0 0.114871 0.0703092 0.166296
9 1.11936 0 0 0.0687034 0.058517 -0.351506
10 3.71348 -0.102642 0.102191 1.55994 0.0968466 0.0783589
11 1.72615 0 0 0.00188962 -0.0284649 -0.178027
12 1.21113 0 0 0.0077994 0.0158181 -0.139345
13 3.59919 -1.06012 0.0708885 1.55952 0.140499 -0.0643232
14 1.66069 0 0 0.00723786 0.0762181 -0.129884
15 1.167 0 0 -0.0191637 0.0395757 -0.0986001
16 2.18852 0.50104 0.0576591 1.57004 -0.0447383 0.225933
17 1.29609 0 0 -0.000439797 -0.0468316 -0.179368
18 1.62202 0.000714302 -0.000471115 -0.0118634 -0.0382981 -0.13265
19 1.22241 0 0 0.0126676 -0.0184604 -0.132912
20 1.76706 1.27612 0.0366421 1.57004 -0.0219723 0.261459
21 1.55587 0 0 -0.0143403 0.0292768 -0.160971
22 1.24273 0 0 -0.000524403 0.000290621 -0.17332
23 0.784523 0 0 0.0151366 0.00606245 -0.0933311
24 -1.93761 -2.99826 -6.71599 -0.000932534 0 3.14159
25 6.02794 0 0 1.68585 -0.783407 0.18857
26 11.7344 0 0 0.00140266 0 1.71997
27 8.81167 0 0 1.06369 0 0
28 5.77884 0 0 0.712671 0 0
29 2.23249 0 0 0.351017 0 0
30 11.4725 0 0 1.42751 -0.657827 -1.27665
31 0.615812 0.994372 -0.809165 -2.75079 0.325437 0.793311
32 2.24752 0 0 -0.09147 -0.103439 -0.0239576
33 1.11936 0 0 -0.119206 0.171032 -0.185681
34 3.71349 0.102639 0.102191 -1.58909 0.862034 -0.119426
35 1.72615 0 0 -0.0146906 -0.0156265 0.786665
36 1.21112 0 0 0.000742746 0.0176205 0.639583
37 3.5992 1.06012 0.0708871 -1.63119 0.56599 -0.0670041
38 1.66069 0 0 0.0236725 0.0479983 0.681077
39 1.16699 0 0 0.00219288 -0.00509783 0.836227
40 2.18853 -0.50104 0.0576591 -1.56385 0.0595168 -0.173895
41 1.29609 0 0 -0.0829927 -0.0261583 0.746444
42 1.62201 -0.000713348 -0.000470161 -0.0204122 -0.0253737 0.977118
43 1.2224 0 0 -0.00883875 -0.00173475 0.485149
44 1.76707 -1.27612 0.0366416 -1.56318 0.0589348 -0.145416
45 1.55588 0 0 0.0303736 0.011842 0.90458
46 1.24273 0 0 0.000598403 0 0.620514
47 0.784532 0 0 -0.0124133 0.0105723 0.417843
48 0 0 0 0 0 0
49 -7.1464 2.10264 10.94 0.255332 1.37031 -1.2847
50 -3.3008 1.98092 -0.0178614 -1.61333 0 0
51 0.00576782 1.98489 -0.017873 -1.61332 0 0
52 0.00575733 2.07248 -0.0285532 -1.61332 0 0
53 -3.46178 2.07651 -0.0257423 -1.61332 0 0
54 -3.15015 2.07651 -0.0257413 -1.61333 0 0
55 -1.68436 2.09113 -0.0263634 -1.61332 0 0
56 -1.61192 2.09074 -0.0355628 -1.61332 0 0
57 -1.74901 2.09114 -0.0263638 -1.61332 0 0
58 -1.65881 2.09113 -0.0263634 -1.61333 0 0
time 7
0 1.938 -2.84623 -11.5177 0 0 0
1 6.02794 0 0 -1.30928 -0.167366 -1.7937
2 11.7344 0 0 -0.00140286 0 0.00396952
3 8.81138 -0.000449181 -0.00011158 0.813335 0 0.000157204
4 5.77839 0.000286102 0 0.544934 0 0.000109865
5 2.23163 -0.000329018 -0.000364304 0.2684 0 0
6 11.4725 0 0 0.824596 0.0352305 -0.249322
7 0.615219 -0.993092 -0.810701 2.33902 0.155092 -0.714923
8 2.24752 0 0 0.114871 0.0703094 0.166296
9 1.11936 0 0 0.0687034 0.058517 -0.351506
10 3.71348 -0.102642 0.10219 1.55999 0.0431885 0.0789413
11 1.72615 0 0 0.000359712 -0.0285253 -0.124344
12 1.21114 0 0 0.00863668 0.015377 -0.0856793
13 3.59919 -1.06012 0.0708876 1.55959 0.0868407 -0.0637163
14 1.66068 0 0 0.0113893 0.0762256 -0.0760683
15 1.16699 0 0 -0.0176635 0.0419489 -0.0449518
16 2.18852 0.501038 0.0576591 1.57004 -0.0476064 0.225935
17 1.29609 0 0 -0.00295294 -0.0467407 -0.125648
18 1.62202 0.000713825 -0.000473022 -0.0139015 -0.0376066 -0.0789543
19 1.22241 0 0 0.0118233 -0.0196175 -0.0792557
20 1.76707 1.27612 0.0366402 1.57004 -0.0248404 0.261461
21 1.55587 0 0 -0.0127489 0.0300037 -0.107291
22 1.24273 0 0 -0.000508342 0.000318295 -0.119658
23 0.784521 0 0 0.0154399 0.00524201 -0.0396751
24 -1.93761 -3.0239 -5.90624 -0.000932534 0 3.14159
25 6.02794 0 0 1.76956 -0.919324 0.106052
26 11.7344 0 0 0.00140278 0 1.45361
27 8.81167 0 0 1.28511 0 0
28 5.77884 0 0 0.861026 0 0
29 2.23249 0 0 0.424087 0 0
30 11.4725 0 0 1.44864 -0.689339 -1.16549
31 0.615812 0.994372 -0.809165 -2.75079 0.325437 0.793311
32 2.24752 0 0 -0.09147 -0.103439 -0.0239575
33 1.11936 0 0 -0.119206 0.171032 -0.185681
34 3.71348 0.102639 0.102191 -1.58909 0.862034 -0.119426
35 1.72615 0 0 -0.0146903 -0.0156263 0.786665
36 1.21112 0 0 0.000742829 0.0176205 0.639583
37 3.5992 1.06012 0.0708876 -1.63119 0.565989 -0.0670043
38 1.66069 0 0 0.0236727 0.0479983 0.681077
39 1.16699 0 0 0.00219279 -0.00509773 0.836227
40 2.18853 -0.50104 0.0576591 -1.56385 0.0595169 -0.173895
41 1.29609 0 0 -0.0829927 -0.0261584 0.746444
42 1.62202 -0.000712395 -0.000470161 -0.020412 -0.0253737 0.977118
43 1.2224 0 0 -0.00883905 -0.00173467 0.485149
44 1.76707 -1.27612 0.0366406 -1.56318 0.0589349 -0.145417
45 1.55588 0 0 0.0303736 0.0118419 0.90458
46 1.24273 0 0 0.000598414 0 0.620514
47 0.784531 0 0 -0.0124134 0.0105723 0.417843
48 0 0 0 0 0 0
49 -7.07058 3.1512 13.596 0.248034 1.29637 -1.29198
50 -3.3008 1.98092 -0.0178614 -1.61333 0 0
51 0.00576687 1.98489 -0.0178735 -1.61332 0 0
52 0.00575638 2.07249 -0.0285532 -1.61332 0 0
53 -3.46178 2.07651 -0.0257421 -1.61332 0 0
54 -3.15015 2.07651 -0.0257421 -1.61332 0 0
55 -1.68436 2.09113 -0.0263634 -1.61332 0 0
56 -1.61192 2.09074 -0.035563 -1.61332 0 0
57 -1.74901 2.09114 -0.0263638 -1.61332 0 0
58 -1.65881 2.09113 -0.0263636 -1.61333 0 0
time 8
0 1.938 -2.84623 -11.5177 0 0 0
1 6.02794 0 0 -1.3109 -0.162701 -1.78827
2 11.7344 0 0 -0.00140292 0 0.00396946
3 8.81138 -0.000450134 -0.00011158 0.849413 0 0.000157612
4 5.77839 0.000286102 0 0.569107 0 0.000110302
5 2.23163 -0.000329018 -0.00036335 0.280306 0 0
6 11.4725 0 0 0.86056 0.0338428 -0.244861
7 0.615219 -0.99309 -0.8107 2.33902 0.155092 -0.714923
8 2.24752 0 0 0.114871 0.0703092 0.166296
9 1.11936 0 0 0.0687037 0.0585168 -0.351506
10 3.71348 -0.10264 0.102192 1.56 -0.00100068 0.079419
11 1.72614 0 0 -0.000901243 -0.0285134 -0.0801341
12 1.21114 0 0 0.00930762 0.0149804 -0.0414842
13 3.59919 -1.06012 0.0708876 1.55962 0.0426517 -0.0632207
14 1.66068 0 0 0.014784 0.0760648 -0.0317501
15 1.167 0 0 -0.0163865 0.0438084 -0.000763065
16 2.18852 0.501041 0.0576591 1.57004 -0.0499683 0.225936
17 1.29609 0 0 -0.00501628 -0.0465645 -0.0814085
18 1.62201 0.000713348 -0.000471115 -0.0155497 -0.0369558 -0.0347367
19 1.22241 0 0 0.0111012 -0.0205266 -0.0350663
20 1.76707 1.27612 0.0366411 1.57004 -0.0272023 0.261463
21 1.55588 0 0 -0.0114109 0.0305377 -0.0630824
22 1.24273 0 0 -0.00049361 0.000340501 -0.0754663
23 0.784523 0 0 0.0156563 0.00455466 0.0045117
24 -1.93761 -3.04464 -5.25122 -0.000932534 0 3.14159
25 6.02794 0 0 1.80649 -0.962646 0.0792469
26 11.7344 0 0 0.00140252 0 1.3808
27 8.81167 0 0 1.29848 0 0
28 5.77884 0 0 0.869981 0 0
29 2.23249 0 0 0.428498 0 0
30 11.4725 0 0 1.44404 -0.705775 -1.13487
31 0.615812 0.994371 -0.809166 -2.75079 0.325437 0.793311
32 2.24752 0 0 -0.09147 -0.103439 -0.0239576
33 1.11936 0 0 -0.119206 0.171032 -0.185681
34 3.71349 0.102638 0.10219 -1.58909 0.862034 -0.119426
35 1.72615 0 0 -0.0146906 -0.0156264 0.786665
36 1.21112 0 0 0.000742838 0.0176206 0.639583
37 3.5992 1.06012 0.0708871 -1.63119 0.565989 -0.0670042
38 1.66069 0 0 0.0236725 0.0479982 0.681077
39 1.16699 0 0 0.00219297 -0.00509774 0.836226
40 2.18853 -0.50104 0.0576587 -1.56385 0.0595168 -0.173895
41 1.29609 0 0 -0.0829927 -0.0261583 0.746444
42 1.62201 -0.000713348 -0.000470161 -0.0204122 -0.0253737 0.977118
43 1.2224 0 0 -0.00883893 -0.00173476 0.485149
44 1.76707 -1.27612 0.0366397 -1.56318 0.0589349 -0.145417
45 1.55588 0 0 0.0303735 0.011842 0.90458
46 1.24273 0 0 0.00059847 0 0.620514
47 0.784531 0 0 -0.0124133 0.0105724 0.417843
48 0 0 0 0 0 0
49 -6.95912 3.55942 14.6442 0.245266 1.26833 -1.29474
50 -3.3008 1.98092 -0.0178614 -1.61333 0 0
51 0.00576687 1.98489 -0.0178733 -1.61332 0 0
52 0.00575638 2.07248 -0.0285535 -1.61332 0 0
53 -3.46178 2.07651 -0.0257425 -1.61332 0 0
54 -3.15015 2.07651 -0.0257416 -1.61333 0 0
55 -1.68436 2.09113 -0.0263634 -1.61332 0 0
56 -1.61192 2.09074 -0.0355625 -1.61332 0 0
57 -1.74901 2.09114 -0.0263634 -1.61332 0 0
58 -1.65881 2.09113 -0.0263638 -1.61333 0 0
time 9
0 1.938 -2.84623 -11.5177 0 0 0
1 6.02794 0 0 -1.31365 -0.154066 -1.77895
2 11.7344 0 0 -0.00140286 0 0.00396952
3 8.81138 -0.000449181 -0.000112057 0.89996 0 0.000157575
4 5.77839 0.000286102 0 0.602973 0 0.000110647
5 2.23163 -0.000329018 -0.000363827 0.296987 0 0
6 11.4725 0 0 0.910383 0.027034 -0.229994
7 0.615221 -0.993092 -0.810699 2.33902 0.155092 -0.714923
8 2.24752 0 0 0.114871 0.0703094 0.166296
9 1.11936 0 0 0.0687036 0.0585168 -0.351506
10 3.71348 -0.10264 0.102191 1.55999 -0.030986 0.079743
11 1.72615 0 0 -0.00175595 -0.0284735 -0.0501349
12 1.21114 0 0 0.0097525 0.0146947 -0.0114951
13 3.5992 -1.06012 0.0708885 1.55963 0.0126665 -0.0628858
14 1.66069 0 0 0.0170712 0.0758704 -0.00167794
15 1.167 0 0 -0.0155005 0.0450205 0.0292263
16 2.18853 0.50104 0.0576591 1.57004 -0.0515711 0.225938
17 1.29609 0 0 -0.00641109 -0.0463931 -0.0513894
18 1.62202 0.000714302 -0.000470161 -0.0166511 -0.036473 -0.0047333
19 1.22241 0 0 0.0105987 -0.0211203 -0.00507978
20 1.76707 1.27612 0.0366411 1.57004 -0.028805 0.261464
21 1.55587 0 0 -0.0104898 0.0308661 -0.0330829
22 1.24273 0 0 -0.000483192 0.000355257 -0.0454793
23 0.784523 0 0 0.0157859 0.00408335 0.0344953
24 -1.93761 -3.05852 -4.81282 -0.000932534 0 3.14159
25 6.02794 0 0 1.68937 -0.876904 0.243072
26 11.7344 0 0 0.00140273 0 1.58174
27 8.81167 0 0 0.883686 0 0
28 5.77884 0 0 0.59207 0 0
29 2.23249 0 0 0.291616 0 0
30 11.4725 0 0 1.33479 -0.653685 -1.19326
31 0.615812 0.994371 -0.809165 -2.75079 0.325437 0.793311
32 2.24752 0 0 -0.0914699 -0.103439 -0.0239574
33 1.11936 0 0 -0.119206 0.171032 -0.185681
34 3.71348 0.102639 0.102191 -1.58909 0.862034 -0.119426
35 1.72615 0 0 -0.0146906 -0.0156264 0.786665
36 1.21112 0 0 0.000742609 0.0176205 0.639583
37 3.5992 1.06012 0.0708876 -1.63119 0.565989 -0.0670042
38 1.66069 0 0 0.0236725 0.0479981 0.681077
39 1.16699 0 0 0.00219287 -0.00509783 0.836227
40 2.18853 -0.50104 0.0576591 -1.56385 0.0595169 -0.173895
41 1.29609 0 0 -0.0829927 -0.0261583 0.746444
42 1.62202 -0.000712395 -0.000470161 -0.0204122 -0.0253737 0.977118
43 1.22241 0 0 -0.00883902 -0.00173472 0.485149
44 1.76707 -1.27612 0.0366411 -1.56318 0.0589347 -0.145416
45 1.55587 0 0 0.0303735 0.0118419 0.90458
46 1.24273 0 0 0.000598451 0 0.620514
47 0.784531 0 0 -0.0124134 0.0105723 0.417843
48 0 0 0 0 0 0
49 -6.79127 2.13916 14.1333 0.388996 1.40203 -1.15563
50 -3.3008 1.98092 -0.0178614 -1.61333 0 0
51 0.00576687 1.98489 -0.0178735 -1.61332 0 0
52 0.00575638 2.07248 -0.0285532 -1.61332 0 0
53 -3.46178 2.07651 -0.0257425 -1.61332 0 0
54 -3.15015 2.07651 -0.0257413 -1.61333 0 0
55 -1.68436 2.09113 -0.0263634 -1.61332 0 0
56 -1.61192 2.09074 -0.035563 -1.61332 0 0
57 -1.74901 2.09114 -0.0263638 -1.61332 0 0
58 -1.65881 2.09113 -0.0263634 -1.61333 0 0
time 10
0 1.938 -2.84623 -11.5177 0 0 0
1 6.02794 0 0 -1.32044 0.00332818 -1.72753
2 11.7344 0 0 -0.00140276 0 -0.29558
3 8.81138 -0.000450134 -0.000112057 0.974887 0 0.000157712
4 5.77839 0.000286102 0 0.653174 0 0.000111206
5 2.23163 -0.000329971 -0.000364304 0.321713 0 0
6 11.4725 0 0 0.975255 0.0133007 -0.0517149
7 0.615219 -0.993092 -0.810699 2.33902 0.155092 -0.714923
8 2.24752 0 0 0.114871 0.0703094 0.166296
9 1.11936 0 0 0.0687036 0.0585168 -0.351506
10 3.71348 -0.102641 0.102192 1.55999 -0.0420331 0.0798624
11 1.72615 0 0 -0.00207037 -0.0284524 -0.0390825
12 1.21114 0 0 0.00991419 0.014586 -0.000446781
13 3.59919 -1.06012 0.0708885 1.55963 0.00161933 -0.0627623
14 1.66069 0 0 0.0179104 0.0757813 0.00940096
15 1.167 0 0 -0.0151706 0.045457 0.0402758
16 2.18852 0.50104 0.0576591 1.57004 -0.0521617 0.225938
17 1.29609 0 0 -0.00692368 -0.0463194 -0.04033
18 1.62202 0.000713348 -0.000471115 -0.0170532 -0.0362869 0.00632036
19 1.22241 0 0 0.0104111 -0.0213341 0.00596807
20 1.76707 1.27612 0.0366421 1.57004 -0.0293956 0.261465
21 1.55588 0 0 -0.010148 0.0309801 -0.0220304
22 1.24273 0 0 -0.00047924 0.000360518 -0.0344315
23 0.784525 0 0 0.01583 0.00390867 0.0455418
24 -1.93761 -3.06358 -4.65294 -0.000932534 0 3.14159
25 6.02794 0 0 1.4613 -0.672669 0.537643
26 11.7344 0 0 0.00140262 0 1.83243
27 8.81167 0 0 0.550834 0 0
28 5.77884 0 0 0.369059 0 0
29 2.23249 0 0 0.181775 0 0
30 11.4725 0 0 1.11455 -0.544556 -1.06923
31 0.615812 0.994372 -0.809165 -2.75079 0.325437 0.793311
32 2.24752 0 0 -0.0914701 -0.103439 -0.0239577
33 1.11936 0 0 -0.119206 0.171032 -0.185681
34 3.71349 0.102639 0.102191 -1.58909 0.862034 -0.119426
35 1.72615 0 0 -0.0146903 -0.0156264 0.786665
36 1.21112 0 0 0.000742712 0.0176206 0.639583
37 3.5992 1.06012 0.0708876 -1.63119 0.565989 -0.0670041
38 1.66069 0 0 0.0236725 0.0479981 0.681077
39 1.16699 0 0 0.00219286 -0.00509776 0.836227
40 2.18853 -0.50104 0.0576591 -1.56385 0.0595169 -0.173895
41 1.29609 0 0 -0.0829927 -0.0261582 0.746444
42 1.62202 -0.000712395 -0.000470161 -0.0204121 -0.0253736 0.977118
43 1.2224 0 0 -0.00883902 -0.00173472 0.485149
44 1.76707 -1.27612 0.0366411 -1.56318 0.0589347 -0.145416
45 1.55588 0 0 0.0303736 0.0118421 0.90458
46 1.24273 0 0 0.000598442 0 0.620514
47 0.784531 0 0 -0.0124134 0.0105723 0.417843
48 0 0 0 0 0 0
49 -6.5583 -1.37588 12.9162 -2.43772 1.42632 2.28394
50 -3.3008 1.98092 -0.0178615 -1.61333 0 0
51 0.00576591 1.98489 -0.0178736 -1.61332 0 0
52 0.00575638 2.07248 -0.0285535 -1.61332 0 0
53 -3.46178 2.07651 -0.0257425 -1.61332 0 0
54 -3.15015 2.07651 -0.0257415 -1.61333 0 0
55 -1.68436 2.09113 -0.0263633 -1.61332 0 0
56 -1.61192 2.09074 -0.0355629 -1.61332 0 0
57 -1.74901 2.09114 -0.0263638 -1.61332 0 0
58 -1.65881 2.09113 -0.0263636 -1.61333 0 0
time 11
0 1.938 -2.84623 -11.5177 0 0 0
1 6.02794 0 0 -1.32107 0.189126 -1.66622
2 11.7344 0 0 -0.00140298 0 -0.641909
3 8.81138 -0.000450134 -0.000112057 1.04651 0 0.000157477
4 5.77839 0.000284195 0 0.701161 0 0.000111588
5 2.23163 -0.000329971 -0.00036335 0.345348 0 0
6 11.4725 0 0 1.05173 -0.00606208 0.158949
7 0.615221 -0.993091 -0.810699 2.33902 0.155092 -0.714923
8 2.24752 0 0 0.114871 0.0703092 0.166296
9 1.11936 0 0 0.0687035 0.0585168 -0.351506
10 3.71348 -0.102641 0.102192 1.55999 -0.0309859 0.0797429
11 1.72615 0 0 -0.00175589 -0.0284738 -0.0501349
12 1.21114 0 0 0.00975262 0.0146947 -0.0114952
13 3.59919 -1.06012 0.0708885 1.55963 0.0126665 -0.0628856
14 1.66069 0 0 0.0170715 0.0758702 -0.00167802
15 1.167 0 0 -0.0155007 0.0450206 0.0292262
16 2.18852 0.501039 0.0576591 1.57004 -0.0515712 0.225938
17 1.29609 0 0 -0.00641121 -0.0463931 -0.0513894
18 1.62202 0.000715256 -0.000470161 -0.0166511 -0.036473 -0.00473329
19 1.22241 0 0 0.0105986 -0.0211204 -0.00507976
20 1.76707 1.27612 0.0366411 1.57004 -0.0288051 0.261464
21 1.55588 0 0 -0.0104899 0.0308662 -0.033083
22 1.24273 0 0 -0.000483161 0.000355198 -0.0454793
23 0.784523 0 0 0.0157859 0.00408323 0.0344954
24 -1.93761 -3.06358 -4.65294 -0.000932534 0 3.14159
25 6.02794 0 0 1.25807 -0.388844 0.763118
26 11.7344 0 0 0.00140273 0 1.88554
27 8.81167 0 0 0.690069 0 0
28 5.77884 0 0 0.462346 0 0
29 2.23249 0 0 0.227723 0 0
30 11.4725 0 0 0.86016 -0.431148 -0.572848
31 0.615813 0.994372 -0.809165 -2.75079 0.325437 0.793311
32 2.24752 0 0 -0.0914701 -0.103439 -0.0239576
33 1.11936 0 0 -0.119206 0.171032 -0.185681
34 3.71349 0.102639 0.10219 -1.58909 0.862034 -0.119426
35 1.72615 0 0 -0.0146905 -0.0156264 0.786665
36 1.21112 0 0 0.00074262 0.0176206 0.639583
37 3.5992 1.06012 0.0708876 -1.63119 0.565989 -0.0670042
38 1.66069 0 0 0.0236725 0.0479982 0.681077
39 1.16699 0 0 0.00219301 -0.00509788 0.836227
40 2.18853 -0.50104 0.0576582 -1.56385 0.0595168 -0.173895
41 1.29609 0 0 -0.0829925 -0.0261581 0.746444
42 1.62202 -0.000712395 -0.000470161 -0.0204123 -0.0253736 0.977118
43 1.22241 0 0 -0.00883911 -0.00173472 0.485149
44 1.76707 -1.27612 0.0366402 -1.56318 0.0589348 -0.145416
45 1.55588 0 0 0.0303737 0.0118421 0.90458
46 1.24273 0 0 0.000598425 0 0.620514
47 0.784531 0 0 -0.0124134 0.0105723 0.417843
48 0 0 0 0 0 0
49 -6.27005 -5.86703 11.4665 -2.12618 1.06534 2.56174
50 -3.3008 1.98092 -0.0178614 -1.61333 0 0
51 0.00576687 1.98489 -0.017873 -1.61332 0 0
52 0.00575638 2.07248 -0.028553 -1.61332 0 0
53 -3.46178 2.07651 -0.0257421 -1.61332 0 0
54 -3.15015 2.07651 -0.0257411 -1.61332 0 0
55 -1.68436 2.09113 -0.0263631 -1.61332 0 0
56 -1.61192 2.09074 -0.0355625 -1.61332 0 0
57 -1.74901 2.09114 -0.0263638 -1.61332 0 0
58 -1.65881 2.09113 -0.0263638 -1.61333 0 0
time 12
0 1.938 -2.84623 -11.5177 0 0 0
1 6.02794 0 0 -1.31782 0.337721 -1.61027
2 11.7344 0 0 -0.00140278 0 -0.898438
3 8.81138 -0.000450134 -0.00011301 1.11601 0 0.000157664
4 5.77839 0.000286102 0 0.747728 0 0.000112259
5 2.23163 -0.000328064 -0.000364304 0.368284 0 0
6 11.4725 0 0 1.13536 -0.0285793 0.328039
7 0.615219 -0.993092 -0.8107 2.33902 0.155092 -0.714923
8 2.24752 0 0 0.114871 0.0703092 0.166296
9 1.11936 0 0 0.0687035 0.0585169 -0.351506
10 3.71348 -0.102642 0.10219 1.56 -0.00100079 0.0794189
11 1.72615 0 0 -0.000901305 -0.0285133 -0.0801341
12 1.21114 0 0 0.00930774 0.0149804 -0.0414842
13 3.59919 -1.06012 0.0708866 1.55962 0.0426516 -0.0632207
14 1.66069 0 0 0.0147841 0.0760647 -0.0317502
15 1.167 0 0 -0.0163865 0.0438084 -0.00076308
16 2.18852 0.501039 0.0576582 1.57004 -0.0499685 0.225936
17 1.29609 0 0 -0.00501632 -0.0465644 -0.0814084
18 1.62201 0.000715256 -0.000471115 -0.0155499 -0.0369558 -0.0347367
19 1.22241 0 0 0.0111012 -0.0205265 -0.0350663
20 1.76707 1.27612 0.0366411 1.57004 -0.0272024 0.261463
21 1.55588 0 0 -0.0114106 0.0305376 -0.0630824
22 1.24273 0 0 -0.000493587 0.000340681 -0.0754664
23 0.784523 0 0 0.0156563 0.00455469 0.00451173
24 -1.93761 -3.06358 -4.65294 -0.000932534 0 3.14159
25 6.02794 0 0 1.11935 -0.211618 0.89024
26 11.7344 0 0 0.0014026 0 1.72952
27 8.81167 0 0 0.654739 0 0
28 5.77884 0 0 0.438675 0 0
29 2.23249 0 0 0.216064 0 0
30 11.4725 0 0 0.650176 -0.294878 -0.0807093
31 0.615813 0.994371 -0.809165 -2.75079 0.325437 0.793311
32 2.24752 0 0 -0.09147 -0.103439 -0.0239577
33 1.11936 0 0 -0.119206 0.171032 -0.185681
34 3.71349 0.102639 0.102191 -1.58909 0.862034 -0.119426
35 1.72615 0 0 -0.0146905 -0.0156264 0.786665
36 1.21112 0 0 0.000742766 0.0176205 0.639583
37 3.5992 1.06012 0.0708876 -1.63119 0.565989 -0.0670042
38 1.66069 0 0 0.0236726 0.0479982 0.681077
39 1.16699 0 0 0.00219284 -0.00509768 0.836226
40 2.18853 -0.50104 0.0576591 -1.56385 0.0595168 -0.173895
41 1.29609 0 0 -0.0829928 -0.0261583 0.746444
42 1.62202 -0.000712395 -0.000468254 -0.020412 -0.0253738 0.977118
43 1.2224 0 0 -0.008839 -0.00173474 0.485149
44 1.76707 -1.27612 0.0366411 -1.56318 0.0589347 -0.145416
45 1.55588 0 0 0.0303737 0.011842 0.90458
46 1.24273 0 0 0.000598408 0 0.620514
47 0.784531 0 0 -0.0124134 0.0105723 0.417843
48 0 0 0 0 0 0
49 -5.93639 -10.2156 10.2578 -1.99246 0.788422 2.64032
50 -3.3008 1.98092 -0.0178614 -1.61333 0 0
51 0.00576782 1.98489 -0.0178738 -1.61332 0 0
52 0.00575638 2.07248 -0.028554 -1.61332 0 0
53 -3.46178 2.07651 -0.025744 -1.61332 0 0
54 -3.15015 2.07651 -0.0257416 -1.61332 0 0
55 -1.68436 2.09113 -0.0263638 -1.61332 0 0
56 -1.61192 2.09074 -0.0355635 -1.61332 0 0
57 -1.74901 2.09114 -0.0263638 -1.61332 0 0
58 -1.65881 2.09113 -0.0263634 -1.61333 0 0
time 13
0 1.938 -2.84623 -11.5177 0 0 0
1 6.02794 0 0 -1.31144 0.480587 -1.54965
2 11.7344 0 0 -0.00140278 0 -1.12739
3 8.81138 -0.000450134 -0.000112534 1.18815 0 0.000157598
4 5.77839 0.000286102 0 0.796057 0 0.000112717
5 2.23163 -0.000329971 -0.000363827 0.392088 0 0
6 11.4725 0 0 1.22504 -0.0531134 0.484964
7 0.615217 -0.993091 -0.8107 2.33902 0.155092 -0.714923
8 2.24752 0 0 0.114871 0.0703093 0.166296
9 1.11936 0 0 0.0687035 0.0585168 -0.351506
10 3.71348 -0.10264 0.10219 1.55998 0.0431885 0.0789413
11 1.72615 0 0 0.000359656 -0.0285253 -0.124344
12 1.21113 0 0 0.00863668 0.015377 -0.0856792
13 3.59919 -1.06012 0.0708866 1.55959 0.0868407 -0.0637163
14 1.66069 0 0 0.0113893 0.0762255 -0.0760683
15 1.167 0 0 -0.0176637 0.0419489 -0.044952
16 2.18852 0.501039 0.0576591 1.57004 -0.0476064 0.225935
17 1.29609 0 0 -0.002953 -0.0467406 -0.125648
18 1.62201 0.000714302 -0.000470638 -0.0139014 -0.0376067 -0.0789543
19 1.22241 0 0 0.0118231 -0.0196175 -0.0792558
20 1.76707 1.27612 0.0366402 1.57004 -0.0248403 0.261461
21 1.55588 0 0 -0.0127488 0.0300037 -0.107291
22 1.24273 0 0 -0.00050829 0.000318418 -0.119658
23 0.784525 0 0 0.0154399 0.00524183 -0.0396751
24 -1.93761 -3.06358 -4.65294 -0.000932534 0 3.14159
25 6.02794 0 0 1.02148 -0.142909 0.993415
26 11.7344 0 0 0.00140271 0 1.51593
27 8.81167 0 0 0.470933 0 0
28 5.77884 0 0 0.315525 0 0
29 2.23249 0 0 0.155408 0 0
30 11.4725 0 0 0.453373 -0.213905 0.0516869
31 0.615813 0.994372 -0.809166 -2.75079 0.325437 0.793311
32 2.24752 0 0 -0.09147 -0.103439 -0.0239577
33 1.11936 0 0 -0.119206 0.171032 -0.185681
34 3.71349 0.102638 0.10219 -1.58909 0.862034 -0.119426
35 1.72615 0 0 -0.0146905 -0.0156263 0.786665
36 1.21112 0 0 0.00074276 0.0176205 0.639583
37 3.5992 1.06011 0.0708866 -1.63119 0.565989 -0.0670042
38 1.66069 0 0 0.0236726 0.0479982 0.681077
39 1.16699 0 0 0.00219292 -0.00509788 0.836227
40 2.18853 -0.501041 0.0576591 -1.56385 0.0595168 -0.173895
41 1.29609 0 0 -0.0829928 -0.026158 0.746444
42 1.62202 -0.000713348 -0.000471115 -0.0204122 -0.0253737 0.977118
43 1.2224 0 0 -0.00883899 -0.00173472 0.485149
44 1.76707 -1.27612 0.0366402 -1.56318 0.0589347 -0.145416
45 1.55588 0 0 0.0303738 0.011842 0.90458
46 1.24273 0 0 0.000598341 0 0.620514
47 0.78453 0 0 -0.0124134 0.0105724 0.417843
48 0 0 0 0 0 0
49 -5.56772 -14.5012 9.68438 -2.11347 0.662069 2.40341
50 -3.3008 1.98092 -0.0178623 -1.61333 0 0
51 0.00576687 1.98489 -0.0178738 -1.61332 0 0
52 0.00575638 2.07248 -0.028553 -1.61332 0 0
53 -3.46178 2.07651 -0.0257416 -1.61332 0 0
54 -3.15015 2.07651 -0.0257416 -1.61333 0 0
55 -1.68436 2.09113 -0.0263634 -1.61332 0 0
56 -1.61192 2.09074 -0.0355616 -1.61332 0 0
57 -1.74901 2.09114 -0.0263634 -1.61332 0 0
58 -1.65881 2.09113 -0.0263634 -1.61333 0 0
time 14
0 1.938 -2.84623 -11.5177 0 0 0
1 6.02794 0 0 -1.30167 0.625731 -1.47964
2 11.7344 0 0 -0.00140293 0 -1.3402
3 8.81138 -0.000450134 -0.000112534 1.26854 0 0.000157705
4 5.77839 0.000286102 0 0.84992 0 0.000113409
5 2.23164 -0.000328064 -0.000363827 0.418617 0 0
6 11.4725 0 0 1.32022 -0.0775293 0.63256
7 0.615219 -0.993091 -0.810699 2.33902 0.155091 -0.714923
8 2.24752 0 0 0.114871 0.0703093 0.166296
9 1.11936 0 0 0.0687034 0.0585169 -0.351506
10 3.71348 -0.10264 0.102192 1.55994 0.0968467 0.0783587
11 1.72614 0 0 0.00188949 -0.0284648 -0.178027
12 1.21114 0 0 0.00779943 0.0158181 -0.139345
13 3.59919 -1.06012 0.0708895 1.55952 0.140499 -0.0643233
14 1.66068 0 0 0.00723778 0.0762183 -0.129884
15 1.16699 0 0 -0.0191639 0.0395758 -0.0986
16 2.18853 0.501039 0.0576601 1.57004 -0.0447383 0.225932
17 1.29609 0 0 -0.000439816 -0.0468316 -0.179368
18 1.62201 0.000714302 -0.000471354 -0.0118635 -0.0382981 -0.13265
19 1.22241 0 0 0.0126678 -0.0184604 -0.132912
20 1.76707 1.27612 0.0366421 1.57004 -0.0219722 0.261459
21 1.55588 0 0 -0.0143403 0.0292769 -0.160971
22 1.24273 0 0 -0.000524473 0.000290735 -0.17332
23 0.784523 0 0 0.0151365 0.00606239 -0.093331
24 -1.93761 -3.06358 -4.65294 -0.000932534 0 3.14159
25 6.02794 0 0 0.930772 -0.122992 1.12374
26 11.7344 0 0 0.0014027 0 1.25575
27 8.81167 0 0 0.276386 0 0
28 5.77884 0 0 0.185179 0 0
29 2.23249 0 0 0.0912075 0 0
30 11.4725 0 0 0.267743 -0.285766 -0.00772054
31 0.615812 0.994371 -0.809165 -2.75079 0.325437 0.793311
32 2.24752 0 0 -0.09147 -0.103439 -0.0239576
33 1.11936 0 0 -0.119206 0.171032 -0.185681
34 3.71349 0.10264 0.102191 -1.58909 0.862034 -0.119426
35 1.72615 0 0 -0.0146905 -0.0156264 0.786665
36 1.21112 0 0 0.000742713 0.0176206 0.639583
37 3.5992 1.06012 0.0708876 -1.63119 0.565989 -0.0670042
38 1.66069 0 0 0.0236724 0.0479981 0.681077
39 1.16699 0 0 0.00219292 -0.00509782 0.836227
40 2.18853 -0.50104 0.0576584 -1.56385 0.0595169 -0.173895
41 1.29609 0 0 -0.0829926 -0.0261581 0.746444
42 1.62201 -0.000713348 -0.0004673 -0.0204121 -0.0253736 0.977118
43 1.2224 0 0 -0.00883897 -0.00173482 0.485149
44 1.76707 -1.27612 0.0366416 -1.56318 0.0589347 -0.145417
45 1.55588 0 0 0.0303735 0.0118421 0.90458
46 1.24273 0 0 0.000598495 0 0.620514
47 0.78453 0 0 -0.0124135 0.0105724 0.417843
48 0 0 0 0 0 0
49 -5.15035 -19.0172 9.19409 -2.35414 0.575845 2.02697
50 -3.3008 1.98092 -0.0178623 -1.61333 0 0
51 0.00576782 1.98489 -0.0178738 -1.61332 0 0
52 0.00575638 2.07248 -0.028553 -1.61332 0 0
53 -3.46178 2.07651 -0.0257425 -1.61332 0 0
54 -3.15015 2.07651 -0.0257435 -1.61332 0 0
55 -1.68436 2.09113 -0.0263634 -1.61332 0 0
56 -1.61192 2.09074 -0.0355625 -1.61332 0 0
57 -1.74901 2.09114 -0.0263653 -1.61332 0 0
58 -1.65881 2.09113 -0.0263634 -1.61333 0 0
time 15
0 1.938 -2.84623 -11.5177 0 0 0
1 6.02794 0 0 -1.28778 0.77864 -1.39479
2 11.7344 0 0 -0.00140274 0 -1.54055
3 8.81138 -0.000450134 -0.00011158 1.36874 0 0.000157147
4 5.77839 0.000286102 0 0.917058 0 0.00011401
5 2.23163 -0.000328064 -0.000363827 0.451685 0 0
6 11.4725 0 0 1.42174 -0.0982711 0.768331
7 0.615219 -0.99309 -0.8107 2.33902 0.155091 -0.714923
8 2.24752 0 0 0.114871 0.0703093 0.166296
9 1.11936 0 0 0.0687036 0.0585168 -0.351506
10 3.71348 -0.10264 0.102191 1.55986 0.15524 0.0777178
11 1.72615 0 0 0.0035481 -0.0283061 -0.236446
12 1.21114 0 0 0.00686293 0.0162463 -0.197748
13 3.59919 -1.06012 0.0708876 1.55941 0.198891 -0.0649945
14 1.66069 0 0 0.00269683 0.075956 -0.188447
15 1.167 0 0 -0.0207263 0.0368532 -0.156969
16 2.18853 0.501039 0.0576582 1.57004 -0.0416172 0.22593
17 1.29609 0 0 0.0022962 -0.0467774 -0.237828
18 1.62202 0.000713348 -0.000470638 -0.00960703 -0.0389251 -0.191086
19 1.22241 0 0 0.013543 -0.0171369 -0.1913
20 1.76707 1.27612 0.0366411 1.57004 -0.018851 0.261457
21 1.55588 0 0 -0.0160248 0.02839 -0.219385
22 1.24273 0 0 -0.000540494 0.000259455 -0.231716
23 0.784523 0 0 0.0147569 0.00693556 -0.151722
24 -1.93761 -3.06358 -4.65294 -0.000932534 0 3.14159
25 6.02794 0 0 0.851263 -0.107493 1.26472
26 11.7344 0 0 0.00140262 0 0.988445
27 8.81167 0 0 0.212414 0 0
28 5.77884 0 0 0.142317 0 0
29 2.23249 0 0 0.0700967 0 0
30 11.4725 0 0 0.237151 -0.387339 -0.107706
31 0.615812 0.994371 -0.809165 -2.75079 0.325437 0.793311
32 2.24752 0 0 -0.09147 -0.103439 -0.0239576
33 1.11936 0 0 -0.119206 0.171032 -0.185681
34 3.71349 0.102638 0.10219 -1.58909 0.862034 -0.119426
35 1.72615 0 0 -0.0146905 -0.0156264 0.786665
36 1.21112 0 0 0.000742697 0.0176206 0.639583
37 3.5992 1.06012 0.0708878 -1.63119 0.565989 -0.0670043
38 1.66069 0 0 0.0236725 0.0479982 0.681077
39 1.16699 0 0 0.00219281 -0.00509776 0.836227
40 2.18853 -0.50104 0.057658 -1.56385 0.0595167 -0.173895
41 1.29609 0 0 -0.0829927 -0.026158 0.746444
42 1.62202 -0.000713348 -0.000469208 -0.0204123 -0.0253736 0.977118
43 1.22241 0 0 -0.00883895 -0.00173487 0.485149
44 1.76707 -1.27612 0.0366416 -1.56318 0.0589346 -0.145417
45 1.55587 0 0 0.0303735 0.011842 0.90458
46 1.24273 0 0 0.000598415 0 0.620514
47 0.784531 0 0 -0.0124134 0.0105724 0.417843
48 0 0 0 0 0 0
49 -4.65798 -22.9652 7.84021 -2.57094 0.396137 1.77031
50 -3.3008 1.98092 -0.0178609 -1.61333 0 0
51 0.00576782 1.98489 -0.0178733 -1.61332 0 0
52 0.00575829 2.07248 -0.0285525 -1.61332 0 0
53 -3.46178 2.07651 -0.0257416 -1.61332 0 0
54 -3.15015 2.07651 -0.0257406 -1.61332 0 0
55 -1.68436 2.09113 -0.0263638 -1.61332 0 0
56 -1.61192 2.09074 -0.035563 -1.61332 0 0
57 -1.74901 2.09114 -0.0263634 -1.61332 0 0
58 -1.65881 2.09113 -0.0263624 -1.61333 0 0
time 16
0 1.938 -2.84623 -11.5177 0 0 0
1 6.02794 0 0 -1.26951 0.943752 -1.28793
2 11.7344 0 0 -0.00140288 0 -1.72624
3 8.81138 -0.000450134 -0.00011158 1.51279 0 0.000157333
4 5.77839 0.00028801 0 1.01357 0 0.000115186
5 2.23163 -0.000328064 -0.000361919 0.499221 0 0
6 11.4725 0 0 1.53358 -0.109666 0.88485
7 0.615221 -0.993091 -0.810699 2.33902 0.155091 -0.714923
8 2.24752 0 0 0.114871 0.0703092 0.166296
9 1.11936 0 0 0.0687035 0.0585169 -0.351506
10 3.71348 -0.102642 0.102192 1.55974 0.213632 0.0770647
11 1.72615 0 0 0.00519448 -0.0280508 -0.294865
12 1.21113 0 0 0.00590303 0.0166192 -0.256151
13 3.59919 -1.06012 0.0708895 1.55925 0.257284 -0.065682
14 1.66069 0 0 -0.00185305 0.0754282 -0.247007
15 1.167 0 0 -0.0222073 0.0339891 -0.215325
16 2.18853 0.501038 0.0576601 1.57004 -0.038496 0.225928
17 1.29609 0 0 0.00502432 -0.0465635 -0.296288
18 1.62202 0.000714779 -0.000470877 -0.00731781 -0.0394194 -0.249525
19 1.22241 0 0 0.0143696 -0.0157489 -0.249686
20 1.76707 1.27612 0.0366411 1.57004 -0.0157298 0.261454
21 1.55587 0 0 -0.0176545 0.0274065 -0.277796
22 1.24273 0 0 -0.000554796 0.00022749 -0.290112
23 0.784521 0 0 0.0143271 0.00778499 -0.210114
24 -1.93761 -3.06358 -4.65294 -0.000932534 0 3.14159
25 6.02794 0 0 0.792737 -0.0755386 1.3805
26 11.7344 0 0 0.00140262 0 0.757329
27 8.81167 0 0 0.293269 0 0
28 5.77884 0 0 0.19649 0 0
29 2.23249 0 0 0.0967787 0 0
30 11.4725 0 0 0.356072 -0.324926 -0.237998
31 0.615812 0.994372 -0.809165 -2.75079 0.325437 0.793311
32 2.24752 0 0 -0.09147 -0.103439 -0.0239576
33 1.11936 0 0 -0.119206 0.171032 -0.185681
34 3.71349 0.10264 0.102191 -1.58909 0.862034 -0.119426
35 1.72615 0 0 -0.0146904 -0.0156264 0.786665
36 1.21112 0 0 0.000742654 0.0176206 0.639583
37 3.5992 1.06012 0.0708878 -1.63119 0.565989 -0.0670044
38 1.66069 0 0 0.0236723 0.0479981 0.681077
39 1.16699 0 0 0.00219288 -0.00509784 0.836227
40 2.18853 -0.50104 0.0576588 -1.56385 0.0595168 -0.173895
41 1.29609 0 0 -0.0829926 -0.0261582 0.746444
42 1.62201 -0.000713348 -0.000470161 -0.0204122 -0.0253737 0.977118
43 1.2224 0 0 -0.00883896 -0.00173487 0.485149
44 1.76707 -1.27612 0.0366409 -1.56318 0.0589348 -0.145416
45 1.55588 0 0 0.0303735 0.0118419 0.90458
46 1.24273 0 0 0.000598492 0 0.620514
47 0.784531 0 0 -0.0124135 0.0105723 0.417843
48 0 0 0 0 0 0
49 -4.08185 -26.0792 5.30719 -2.71602 0.0784053 1.7199
50 -3.3008 1.98092 -0.0178614 -1.61333 0 0
51 0.00576782 1.98489 -0.0178733 -1.61332 0 0
52 0.00575638 2.07248 -0.028554 -1.61332 0 0
53 -3.46178 2.07651 -0.0257425 -1.61332 0 0
54 -3.15015 2.07651 -0.0257416 -1.61332 0 0
55 -1.68436 2.09113 -0.0263634 -1.61332 0 0
56 -1.61191 2.09074 -0.035563 -1.61332 0 0
57 -1.74901 2.09114 -0.0263638 -1.61332 0 0
58 -1.65881 2.09113 -0.0263634 -1.61333 0 0
time 17
0 1.938 -2.84623 -11.5177 0 0 0
1 6.02794 0 0 -1.25077 1.12595 -1.15118
2 11.7344 0 0 -0.00140284 0 -1.89148
3 8.81139 -0.000448227 -0.00011301 1.74086 0 0.000157217
4 5.77839 0.000286102 0 1.16638 0 0.000116976
5 2.23163 -0.000328064 -0.000363827 0.574485 0 0
6 11.4725 0 0 1.66653 -0.102735 0.971039
7 0.615219 -0.993091 -0.810701 2.33902 0.155092 -0.714923
8 2.24752 0 0 0.114871 0.0703093 0.166296
9 1.11936 0 0 0.0687035 0.0585169 -0.351506
10 3.71348 -0.102641 0.10219 1.5596 0.26729 0.0764502
11 1.72615 0 0 0.00669198 -0.0277317 -0.348547
12 1.21113 0 0 0.00500305 0.0169118 -0.309819
13 3.59919 -1.06012 0.0708866 1.55907 0.310941 -0.0663324
14 1.66068 0 0 -0.00602815 0.0747089 -0.300813
15 1.16699 0 0 -0.0234898 0.0312364 -0.268938
16 2.18852 0.501039 0.0576572 1.57004 -0.0356277 0.225926
17 1.29609 0 0 0.00751645 -0.0462271 -0.350006
18 1.62202 0.000715256 -0.000470638 -0.00519201 -0.0397553 -0.303228
19 1.22241 0 0 0.0150826 -0.0144194 -0.303335
20 1.76707 1.27612 0.0366402 1.57004 -0.0128617 0.261452
21 1.55588 0 0 -0.0190992 0.0264201 -0.331467
22 1.24273 0 0 -0.000566238 0.000197467 -0.343773
23 0.784523 0 0 0.0138889 0.00854203 -0.263772
24 -1.93761 -3.06358 -4.65294 -0.000932534 0 3.14159
25 6.02794 0 0 0.749127 -0.0763225 1.51395
26 11.7344 0 0 0.00140261 0 0.436724
27 8.81167 0 0 0.427394 0 0
28 5.77884 0 0 0.286354 0 0
29 2.23249 0 0 0.14104 0 0
30 11.4725 0 0 0.466294 -0.0950614 -0.297344
31 0.61581 0.994372 -0.809165 -2.59739 0.274676 0.749999
32 2.24752 0 0 -0.0911332 -0.0605855 -0.0265776
33 1.11936 0 0 -0.111593 0.176065 -0.141602
34 3.71349 0.102639 0.102191 -1.56755 0.524173 -0.0979286
35 1.72615 0 0 -0.00902595 -0.022165 0.507167
36 1.21112 0 0 -0.00344976 0.0172956 0.400571
37 3.5992 1.06012 0.0708876 -1.58582 0.356539 -0.0102243
38 1.66069 0 0 0.00875077 0.0626326 0.423224
39 1.16699 0 0 0.0100835 0.0167668 0.508765
40 2.18853 -0.50104 0.0576584 -1.56753 0.0177955 -0.193409
41 1.29609 0 0 -0.0500012 -0.0363252 0.482544
42 1.62202 -0.000713348 -0.000470161 -0.00682219 -0.0338779 0.60947
43 1.2224 0 0 -0.00986682 -0.00956511 0.301533
44 1.76707 -1.27612 0.0366406 -1.56815 0.026084 -0.188915
45 1.55588 0 0 0.0248987 0.021045 0.574641
46 1.24273 0 0 0.000576349 0.000164795 0.401349
47 0.784531 0 0 -0.0140504 0.00827356 0.244555
48 0 0 0 0 0 0
49 -3.43071 -28.6252 1.91058 -2.83723 -0.332811 1.78927
50 -3.3008 1.98092 -0.0178618 -1.61333 0 0
51 0.00576401 1.98489 -0.0178742 -1.61332 0 0
52 0.00575829 2.07248 -0.028554 -1.61332 0 0
53 -3.46178 2.07651 -0.025743 -1.61332 0 0
54 -3.15015 2.07651 -0.0257425 -1.61333 0 0
55 -1.68436 2.09113 -0.0263634 -1.61332 0 0
56 -1.61192 2.09074 -0.0355635 -1.61332 0 0
57 -1.74901 2.09114 -0.0263643 -1.61332 0 0
58 -1.65881 2.09114 -0.0263638 -1.61333 0 0
time 18
0 1.938 -2.84623 -11.5177 0 0 0
1 6.02794 0 0 -1.25077 1.12595 -1.15118
2 11.7344 0 0 -0.00140284 0 -1.89148
3 8.81139 -0.000448227 -0.00011301 1.74086 0 0.000157217
4 5.77839 0.000286102 0 1.16638 0 0.000116976
5 2.23163 -0.000328064 -0.000363827 0.574485 0 0
6 11.4725 0 0 1.66653 -0.102735 0.971039
7 0.615219 -0.993091 -0.810701 2.33902 0.155092 -0.714923
8 2.24752 0 0 0.114871 0.0703093 0.166296
9 1.11936 0 0 0.0687035 0.0585169 -0.351506
10 3.71348 -0.102641 0.10219 1.55945 0.311479 0.0759304
11 1.72615 0 0 0.00791072 -0.0274093 -0.392754
12 1.21114 0 0 0.00425095 0.0171164 -0.354016
13 3.59919 -1.06012 0.0708866 1.55889 0.35513 -0.066885
14 1.66069 0 0 -0.00945374 0.0739482 -0.345118
15 1.167 0 0 -0.024485 0.0288862 -0.313082
16 2.18852 0.501039 0.0576572 1.57004 -0.0332658 0.225924
17 1.29609 0 0 0.00955244 -0.0458499 -0.394243
18 1.62202 0.000713348 -0.000470638 -0.00342964 -0.0399458 -0.347454
19 1.22241 0 0 0.0156343 -0.0132873 -0.347514
20 1.76707 1.27612 0.0366402 1.57004 -0.0104996 0.261451
21 1.55588 0 0 -0.0202477 0.0255507 -0.375665
22 1.24273 0 0 -0.000574395 0.00017223 -0.387965
23 0.784523 0 0 0.013498 0.00914727 -0.307961
24 -1.93761 -3.06358 -4.65294 -0.000932534 0 3.14159
25 6.02794 0 0 0.738466 -0.05966 1.53919
26 11.7344 0 0 0.00140271 0 0.399368
27 8.81167 0 0 0.448316 0 0
28 5.77884 0 0 0.300372 0 0
29 2.23249 0 0 0.147944 0 0
30 11.4725 0 0 0.489304 -0.115495 -0.288204
31 0.615814 0.994372 -0.809165 -2.33375 0.188502 0.680307
32 2.24752 0 0 -0.0909467 0.0111604 -0.0309223
33 1.11935 0 0 -0.0983525 0.183736 -0.0676375
34 3.71349 0.10264 0.102191 -1.55999 -0.0420336 -0.0798627
35 1.72615 0 0 0.00207058 -0.0284524 0.0390827
36 1.21112 0 0 -0.00991416 0.0145859 0.000446836
37 3.5992 1.06012 0.0708885 -1.55963 0.00161948 0.0627619
38 1.66069 0 0 -0.0179103 0.0757811 -0.00940118
39 1.16699 0 0 0.0151707 0.0454569 -0.040275
40 2.18853 -0.50104 0.0576587 -1.57004 -0.0521617 -0.225938
41 1.29609 0 0 0.00692342 -0.0463195 0.0403297
42 1.62202 -0.000712872 -0.000470161 0.0170533 -0.0362868 -0.00632057
43 1.2224 0 0 -0.0104111 -0.0213342 -0.00596805
44 1.76707 -1.27612 0.0366411 -1.57004 -0.0293956 -0.261465
45 1.55587 0 0 0.0101481 0.0309805 0.0220302
46 1.24273 0 0 0.000478927 0.000360516 0.0344316
47 0.784533 0 0 -0.0158299 0.00390864 -0.0455418
48 0 0 0 0 0 0
49 -3.43071 -27.4447 -41.8824 -2.83723 -0.332811 1.78927
50 -3.3008 1.98092 -0.0178604 -1.61333 0 0
51 0.00576782 1.98489 -0.0178757 -1.61332 0 0
52 0.00575638 2.07248 -0.0285568 -1.61332 0 0
53 -3.46178 2.07651 -0.0257416 -1.61332 0 0
54 -3.15015 2.07651 -0.0257416 -1.61333 0 0
55 -1.68436 2.09113 -0.0263634 -1.61332 0 0
56 -1.61192 2.09074 -0.0355644 -1.61332 0 0
57 -1.74901 2.09114 -0.0263672 -1.61332 0 0
58 -1.65881 2.09114 -0.0263634 -1.61333 0 0
time 19
0 1.938 -2.84623 -11.5177 0 0 0
1 6.02794 0 0 -1.25077 1.12595 -1.15118
2 11.7344 0 0 -0.00140284 0 -1.89148
3 8.81139 -0.000448227 -0.00011301 1.74086 0 0.000157217
4 5.77839 0.000286102 0 1.16638 0 0.000116976
5 2.23163 -0.000328064 -0.000363827 0.574485 0 0
6 11.4725 0 0 1.66653 -0.102735 0.971039
7 0.615219 -0.993091 -0.810701 2.33902 0.155092 -0.714923
8 2.24752 0 0 0.114871 0.0703093 0.166296
9 1.11936 0 0 0.0687035 0.0585169 -0.351506
10 3.71348 -0.102641 0.10219 1.55933 0.341464 0.0755693
11 1.72615 0 0 0.0087293 -0.0271595 -0.422751
12 1.21114 0 0 0.00373576 0.0172358 -0.384007
13 3.59919 -1.06012 0.0708866 1.55875 0.385115 -0.0672704
14 1.66069 0 0 -0.0117678 0.0733459 -0.37518
15 1.167 0 0 -0.0251272 0.02725 -0.343032
16 2.18852 0.501039 0.0576572 1.57004 -0.031663 0.225923
17 1.29609 0 0 0.0109238 -0.0455429 -0.42426
18 1.62202 0.000714302 -0.000471592 -0.00222982 -0.0400306 -0.377465
19 1.22241 0 0 0.0159897 -0.0125008 -0.377492
20 1.76707 1.27612 0.0366402 1.57004 -0.00889688 0.261449
21 1.55588 0 0 -0.0210047 0.0249322 -0.405656
22 1.24273 0 0 -0.000579265 0.000154935 -0.417952
23 0.784523 0 0 0.0132178 0.00954813 -0.337947
24 -1.93761 -3.06358 -4.65294 -0.000932534 0 3.14159
25 6.02794 0 0 0.714792 -0.0187092 1.60297
26 11.7344 0 0 0.00140267 0 0.303135
27 8.81167 0 0 0.510863 0 0
28 5.77884 0 0 0.342279 0 0
29 2.23249 0 0 0.168585 0 0
30 11.4725 0 0 0.549405 -0.147027 -0.258654
31 0.615814 0.994371 -0.809165 -2.33375 0.188502 0.680307
32 2.24752 0 0 -0.0909466 0.0111603 -0.0309224
33 1.11936 0 0 -0.0983524 0.183736 -0.0676375
34 3.71349 0.102639 0.102191 -1.55999 -0.0420336 -0.0798626
35 1.72615 0 0 0.0020706 -0.0284523 0.0390828
36 1.21112 0 0 -0.00991421 0.014586 0.000446604
37 3.5992 1.06012 0.0708878 -1.55963 0.00161935 0.0627619
38 1.66069 0 0 -0.0179103 0.075781 -0.00940107
39 1.16699 0 0 0.0151708 0.0454569 -0.0402751
40 2.18853 -0.50104 0.0576594 -1.57004 -0.0521617 -0.225938
41 1.29609 0 0 0.00692335 -0.0463195 0.0403296
42 1.62202 -0.000713348 -0.000470161 0.0170533 -0.0362868 -0.00632056
43 1.2224 0 0 -0.0104111 -0.0213342 -0.00596807
44 1.76707 -1.27612 0.0366414 -1.57004 -0.0293957 -0.261465
45 1.55587 0 0 0.0101482 0.0309805 0.0220302
46 1.24273 0 0 0.000478913 0.000360553 0.0344316
47 0.784531 0 0 -0.0158298 0.00390861 -0.0455418
48 0 0 0 0 0 0
49 -3.43071 -27.4447 -41.8824 -2.83723 -0.332811 1.78927
50 -3.3008 1.98092 -0.0178604 -1.61333 0 0
51 0.00576782 1.98489 -0.0178757 -1.61332 0 0
52 0.00575638 2.07248 -0.0285568 -1.61332 0 0
53 -3.46178 2.07651 -0.0257416 -1.61332 0 0
54 -3.15015 2.07651 -0.0257416 -1.61333 0 0
55 -1.68436 2.09113 -0.0263634 -1.61332 0 0
56 -1.61192 2.09074 -0.0355644 -1.61332 0 0
57 -1.74901 2.09114 -0.0263672 -1.61332 0 0
58 -1.65881 2.09114 -0.0263634 -1.61333 0 0
time 20
0 1.938 -2.84623 -11.5177 0 0 0
1 6.02794 0 0 -1.25077 1.12595 -1.15118
2 11.7344 0 0 -0.00140284 0 -1.89148
3 8.81139 -0.000448227 -0.00011301 1.74086 0 0.000157217
4 5.77839 0.000286102 0 1.16638 0 0.000116976
5 2.23163 -0.000328064 -0.000363827 0.574485 0 0
6 11.4725 0 0 1.66653 -0.102735 0.971039
7 0.615219 -0.993091 -0.810701 2.33902 0.155092 -0.714923
8 2.24752 0 0 0.114871 0.0703093 0.166296
9 1.11936 0 0 0.0687035 0.0585169 -0.351506
10 3.71348 -0.102641 0.10219 1.55929 0.352511 0.0754344
11 1.72615 0 0 0.00902878 -0.0270615 -0.433803
12 1.21114 0 0 0.0035451 0.0172763 -0.395057
13 3.59919 -1.06012 0.0708866 1.55869 0.396162 -0.0674144
14 1.66069 0 0 -0.0126177 0.0731066 -0.386254
15 1.167 0 0 -0.0253568 0.0266386 -0.354065
16 2.18852 0.501039 0.0576572 1.57004 -0.0310725 0.225922
17 1.29609 0 0 0.0114265 -0.0454194 -0.435318
18 1.62202 0.000714302 -0.000471115 -0.00178709 -0.0400527 -0.388522
19 1.22241 0 0 0.0161168 -0.0122075 -0.388536
20 1.76707 1.27612 0.0366402 1.57004 -0.00830648 0.261449
21 1.55588 0 0 -0.0212791 0.0246985 -0.416704
22 1.24274 0 0 -0.000580888 0.000148575 -0.429
23 0.784523 0 0 0.0131115 0.00969341 -0.348994
24 -1.93761 -3.06358 -4.65294 -0.000932534 0 3.14159
25 6.02794 0 0 0.690489 0.0313719 1.69165
26 11.7344 0 0 0.00140265 0 0.163764
27 8.81167 0 0 0.603227 0 0
28 5.77884 0 0 0.404162 0 0
29 2.23249 0 0 0.199065 0 0
30 11.4725 0 0 0.626699 -0.146281 -0.197024
31 0.615812 0.994372 -0.809165 -2.33375 0.188502 0.680307
32 2.24752 0 0 -0.0909467 0.0111605 -0.0309225
33 1.11936 0 0 -0.0983523 0.183736 -0.0676374
34 3.71349 0.102639 0.102191 -1.55999 -0.0420336 -0.0798626
35 1.72615 0 0 0.00207059 -0.0284524 0.0390827
36 1.21112 0 0 -0.00991422 0.014586 0.000446796
37 3.5992 1.06012 0.070888 -1.55963 0.00161928 0.0627619
38 1.66069 0 0 -0.0179103 0.075781 -0.00940103
39 1.16699 0 0 0.0151707 0.0454569 -0.0402752
40 2.18853 -0.50104 0.0576589 -1.57004 -0.0521616 -0.225938
41 1.29609 0 0 0.00692341 -0.0463194 0.0403296
42 1.62202 -0.000712633 -0.000469923 0.0170533 -0.0362868 -0.0063205
43 1.2224 0 0 -0.0104111 -0.0213342 -0.00596804
44 1.76707 -1.27612 0.0366406 -1.57004 -0.0293956 -0.261465
45 1.55588 0 0 0.0101481 0.0309805 0.0220302
46 1.24273 0 0 0.000478913 0.000360558 0.0344315
47 0.784533 0 0 -0.0158298 0.00390859 -0.0455418
48 0 0 0 0 0 0
49 -3.43071 -27.4447 -41.8824 -2.83723 -0.332811 1.78927
50 -3.3008 1.98092 -0.0178604 -1.61333 0 0
51 0.00576782 1.98489 -0.0178757 -1.61332 0 0
52 0.00575638 2.07248 -0.0285568 -1.61332 0 0
53 -3.46178 2.07651 -0.0257416 -1.61332 0 0
54 -3.15015 2.07651 -0.0257416 -1.61333 0 0
55 -1.68436 2.09113 -0.0263634 -1.61332 0 0
56 -1.61192 2.09074 -0.0355644 -1.61332 0 0
57 -1.74901 2.09114 -0.0263672 -1.61332 0 0
58 -1.65881 2.09114 -0.0263634 -1.61333 0 0
time 21
0 1.938 -2.84623 -11.5177 0 0 0
1 6.02794 0 0 -1.25077 1.12595 -1.15118
2 11.7344 0 0 -0.00140284 0 -1.89148
3 8.81139 -0.000448227 -0.00011301 1.74086 0 0.000157217
4 5.77839 0.000286102 0 1.16638 0 0.000116976
5 2.23163 -0.000328064 -0.000363827 0.574485 0 0
6 11.4725 0 0 1.66653 -0.102735 0.971039
7 0.615219 -0.993091 -0.810701 2.33902 0.155092 -0.714923
8 2.24752 0 0 0.114871 0.0703093 0.166296
9 1.11936 0 0 0.0687035 0.0585169 -0.351506
10 3.71348 -0.102641 0.10219 1.55929 0.352511 0.0754344
11 1.72615 0 0 0.00902878 -0.0270615 -0.433803
12 1.21114 0 0 0.0035451 0.0172763 -0.395057
13 3.59919 -1.06012 0.0708866 1.55869 0.396162 -0.0674144
14 1.66069 0 0 -0.0126177 0.0731066 -0.386254
15 1.167 0 0 -0.0253568 0.0266386 -0.354065
16 2.18852 0.501039 0.0576572 1.57004 -0.0310725 0.225922
17 1.29609 0 0 0.0114265 -0.0454194 -0.435318
18 1.62202 0.000714302 -0.000471115 -0.00178709 -0.0400527 -0.388522
19 1.22241 0 0 0.0161168 -0.0122075 -0.388536
20 1.76707 1.27612 0.0366402 1.57004 -0.00830648 0.261449
21 1.55588 0 0 -0.0212791 0.0246985 -0.416704
22 1.24274 0 0 -0.000580888 0.000148575 -0.429
23 0.784523 0 0 0.0131115 0.00969341 -0.348994
24 -1.93761 -3.06358 -4.65294 -0.000932534 0 3.14159
25 6.02794 0 0 0.664383 0.148044 1.70489
26 11.7344 0 0 0.00140274 0 0.225609
27 8.81167 0 0 0.676021 0 0
28 5.77884 0 0 0.452934 0 0
29 2.23249 0 0 0.223087 0 0
30 11.4725 0 0 0.693574 -0.0793517 -0.197778
31 0.615812 0.994372 -0.809165 -2.33375 0.188502 0.680307
32 2.24752 0 0 -0.0909465 0.0111604 -0.0309224
33 1.11935 0 0 -0.0983525 0.183736 -0.0676376
34 3.71348 0.102639 0.102191 -1.55999 -0.0420335 -0.0798626
35 1.72615 0 0 0.00207062 -0.0284524 0.0390828
36 1.21112 0 0 -0.00991422 0.014586 0.000446708
37 3.5992 1.06012 0.070888 -1.55963 0.00161955 0.0627619
38 1.66069 0 0 -0.0179103 0.075781 -0.00940112
39 1.16699 0 0 0.0151707 0.0454569 -0.0402752
40 2.18853 -0.50104 0.0576587 -1.57004 -0.0521616 -0.225938
41 1.29609 0 0 0.00692337 -0.0463195 0.0403297
42 1.62201 -0.000713825 -0.000470161 0.0170533 -0.0362868 -0.0063205
43 1.2224 0 0 -0.0104111 -0.0213342 -0.00596815
44 1.76707 -1.27612 0.0366411 -1.57004 -0.0293955 -0.261465
45 1.55588 0 0 0.0101481 0.0309805 0.0220302
46 1.24273 0 0 0.000478944 0.000360605 0.0344316
47 0.784531 0 0 -0.0158298 0.0039086 -0.0455417
48 0 0 0 0 0 0
49 -3.43071 -27.4447 -41.8824 -2.83723 -0.332811 1.78927
50 -3.3008 1.98092 -0.0178604 -1.61333 0 0
51 0.00576782 1.98489 -0.0178757 -1.61332 0 0
52 0.00575638 2.07248 -0.0285568 -1.61332 0 0
53 -3.46178 2.07651 -0.0257416 -1.61332 0 0
54 -3.15015 2.07651 -0.0257416 -1.61333 0 0
55 -1.68436 2.09113 -0.0263634 -1.61332 0 0
56 -1.61192 2.09074 -0.0355644 -1.61332 0 0
57 -1.74901 2.09114 -0.0263672 -1.61332 0 0
58 -1.65881 2.09114 -0.0263634 -1.61333 0 0
time 22
0 1.938 -2.84623 -11.5177 0 0 0
1 6.02794 0 0 -1.25077 1.12595 -1.15118
2 11.7344 0 0 -0.00140284 0 -1.89148
3 8.81139 -0.000448227 -0.00011301 1.74086 0 0.000157217
4 5.77839 0.000286102 0 1.16638 0 0.000116976
5 2.23163 -0.000328064 -0.000363827 0.574485 0 0
6 11.4725 0 0 1.66653 -0.102735 0.971039
7 0.615219 -0.993091 -0.810701 2.33902 0.155092 -0.714923
8 2.24752 0 0 0.114871 0.0703093 0.166296
9 1.11936 0 0 0.0687035 0.0585169 -0.351506
10 3.71348 -0.102641 0.10219 1.55929 0.352511 0.0754344
11 1.72615 0 0 0.00902878 -0.0270615 -0.433803
12 1.21114 0 0 0.0035451 0.0172763 -0.395057
13 3.59919 -1.06012 0.0708866 1.55869 0.396162 -0.0674144
14 1.66069 0 0 -0.0126177 0.0731066 -0.386254
15 1.167 0 0 -0.0253568 0.0266386 -0.354065
16 2.18852 0.501039 0.0576572 1.57004 -0.0310725 0.225922
17 1.29609 0 0 0.0114265 -0.0454194 -0.435318
18 1.62202 0.000714302 -0.000471115 -0.00178709 -0.0400527 -0.388522
19 1.22241 0 0 0.0161168 -0.0122075 -0.388536
20 1.76707 1.27612 0.0366402 1.57004 -0.00830648 0.261449
21 1.55588 0 0 -0.0212791 0.0246985 -0.416704
22 1.24274 0 0 -0.000580888 0.000148575 -0.429
23 0.784523 0 0 0.0131115 0.00969341 -0.348994
24 -1.93761 -3.06358 -4.65294 -0.000932534 0 3.14159
25 6.02794 0 0 0.602893 0.33126 1.59968
26 11.7344 0 0 0.00140264 0 0.558813
27 8.81167 0 0 0.730775 0 0
28 5.77884 0 0 0.489619 0 0
29 2.23249 0 0 0.241156 0 0
30 11.4725 0 0 0.736121 0.0717993 -0.259913
31 0.615814 0.994371 -0.809165 -2.33375 0.188502 0.680307
32 2.24752 0 0 -0.0909464 0.0111603 -0.0309222
33 1.11936 0 0 -0.0983524 0.183736 -0.0676375
34 3.71348 0.102639 0.102191 -1.55999 -0.0420337 -0.0798627
35 1.72616 0 0 0.00207062 -0.0284525 0.0390827
36 1.21112 0 0 -0.00991422 0.014586 0.000446796
37 3.5992 1.06012 0.0708876 -1.55963 0.00161931 0.0627619
38 1.66069 0 0 -0.0179103 0.075781 -0.0094011
39 1.16699 0 0 0.0151708 0.0454568 -0.040275
40 2.18853 -0.50104 0.0576601 -1.57004 -0.0521617 -0.225938
41 1.29609 0 0 0.00692332 -0.0463195 0.0403297
42 1.62201 -0.000713348 -0.000470161 0.0170534 -0.0362868 -0.0063205
43 1.2224 0 0 -0.0104111 -0.0213342 -0.00596824
44 1.76707 -1.27612 0.0366411 -1.57004 -0.0293956 -0.261465
45 1.55587 0 0 0.0101482 0.0309804 0.0220302
46 1.24273 0 0 0.000478854 0.000360599 0.0344317
47 0.784533 0 0 -0.0158299 0.00390861 -0.0455419
48 0 0 0 0 0 0
49 -3.43071 -27.4447 -41.8824 -2.83723 -0.332811 1.78927
50 -3.3008 1.98092 -0.0178604 -1.61333 0 0
51 0.00576782 1.98489 -0.0178757 -1.61332 0 0
52 0.00575638 2.07248 -0.0285568 -1.61332 0 0
53 -3.46178 2.07651 -0.0257416 -1.61332 0 0
54 -3.15015 2.07651 -0.0257416 -1.61333 0 0
55 -1.68436 2.09113 -0.0263634 -1.61332 0 0
56 -1.61192 2.09074 -0.0355644 -1.61332 0 0
57 -1.74901 2.09114 -0.0263672 -1.61332 0 0
58 -1.65881 2.09114 -0.0263634 -1.61333 0 0
time 23
0 1.938 -2.84623 -11.5177 0 0 0
1 6.02794 0 0 -1.25077 1.12595 -1.15118
2 11.7344 0 0 -0.00140284 0 -1.89148
3 8.81139 -0.000448227 -0.00011301 1.74086 0 0.000157217
4 5.77839 0.000286102 0 1.16638 0 0.000116976
5 2.23163 -0.000328064 -0.000363827 0.574485 0 0
6 11.4725 0 0 1.66653 -0.102735 0.971039
7 0.615219 -0.993091 -0.810701 2.33902 0.155092 -0.714923
8 2.24752 0 0 0.114871 0.0703093 0.166296
9 1.11936 0 0 0.0687035 0.0585169 -0.351506
10 3.71348 -0.102641 0.10219 1.55929 0.352511 0.0754344
11 1.72615 0 0 0.00902878 -0.0270615 -0.433803
12 1.21114 0 0 0.0035451 0.0172763 -0.395057
13 3.59919 -1.06012 0.0708866 1.55869 0.396162 -0.0674144
14 1.66069 0 0 -0.0126177 0.0731066 -0.386254
15 1.167 0 0 -0.0253568 0.0266386 -0.354065
16 2.18852 0.501039 0.0576572 1.57004 -0.0310725 0.225922
17 1.29609 0 0 0.0114265 -0.0454194 -0.435318
18 1.62202 0.000714302 -0.000471115 -0.00178709 -0.0400527 -0.388522
19 1.22241 0 0 0.0161168 -0.0122075 -0.388536
20 1.76707 1.27612 0.0366402 1.57004 -0.00830648 0.261449
21 1.55588 0 0 -0.0212791 0.0246985 -0.416704
22 1.24274 0 0 -0.000580888 0.000148575 -0.429
23 0.784523 0 0 0.0131115 0.00969341 -0.348994
24 -1.93761 -3.06358 -4.65294 -0.000932534 0 3.14159
25 6.02794 0 0 0.44782 0.547824 1.4003
26 11.7344 0 0 0.00140261 0 1.03976
27 8.81167 0 0 0.873363 0 0
28 5.77884 0 0 0.585153 0 0
29 2.23249 0 0 0.28821 0 0
30 11.4725 0 0 0.823781 0.339207 -0.209327
31 0.615812 0.994372 -0.809166 -2.33375 0.188502 0.680307
32 2.24752 0 0 -0.0909466 0.0111604 -0.0309224
33 1.11936 0 0 -0.0983525 0.183736 -0.0676374
34 3.71348 0.102639 0.10219 -1.55999 -0.0420338 -0.0798626
35 1.72615 0 0 0.00207059 -0.0284524 0.0390827
36 1.21112 0 0 -0.00991429 0.014586 0.000446892
37 3.5992 1.06012 0.0708866 -1.55963 0.0016193 0.062762
38 1.66069 0 0 -0.0179103 0.075781 -0.00940124
39 1.16699 0 0 0.0151708 0.0454569 -0.0402751
40 2.18853 -0.50104 0.0576591 -1.57004 -0.0521618 -0.225938
41 1.29609 0 0 0.00692334 -0.0463196 0.0403298
42 1.62201 -0.000711441 -0.000470161 0.0170533 -0.0362869 -0.00632047
43 1.22241 0 0 -0.0104111 -0.0213342 -0.00596799
44 1.76707 -1.27612 0.0366402 -1.57004 -0.0293956 -0.261465
45 1.55588 0 0 0.0101481 0.0309806 0.0220301
46 1.24273 0 0 0.000478896 0.000360434 0.0344314
47 0.784533 0 0 -0.0158299 0.00390874 -0.0455418
48 0 0 0 0 0 0
49 -3.43071 -27.4447 -41.8824 -2.83723 -0.332811 1.78927
50 -3.3008 1.98092 -0.0178604 -1.61333 0 0
51 0.00576782 1.98489 -0.0178757 -1.61332 0 0
52 0.00575638 2.07248 -0.0285568 -1.61332 0 0
53 -3.46178 2.07651 -0.0257416 -1.61332 0 0
54 -3.15015 2.07651 -0.0257416 -1.61333 0 0
55 -1.68436 2.09113 -0.0263634 -1.61332 0 0
56 -1.61192 2.09074 -0.0355644 -1.61332 0 0
57 -1.74901 2.09114 -0.0263672 -1.61332 0 0
58 -1.65881 2.09114 -0.0263634 -1.61333 0 0
time 24
0 1.938 -2.84623 -11.5177 0 0 0
1 6.02794 0 0 -1.25077 1.12595 -1.15118
2 11.7344 0 0 -0.00140284 0 -1.89148
3 8.81139 -0.000448227 -0.00011301 1.74086 0 0.000157217
4 5.77839 0.000286102 0 1.16638 0 0.000116976
5 2.23163 -0.000328064 -0.000363827 0.574485 0 0
6 11.4725 0 0 1.66653 -0.102735 0.971039
7 0.615219 -0.993091 -0.810701 2.33902 0.155092 -0.714923
8 2.24752 0 0 0.114871 0.0703093 0.166296
9 1.11936 0 0 0.0687035 0.0585169 -0.351506
10 3.71348 -0.102641 0.10219 1.55929 0.352511 0.0754344
11 1.72615 0 0 0.00902878 -0.0270615 -0.433803
12 1.21114 0 0 0.0035451 0.0172763 -0.395057
13 3.59919 -1.06012 0.0708866 1.55869 0.396162 -0.0674144
14 1.66069 0 0 -0.0126177 0.0731066 -0.386254
15 1.167 0 0 -0.0253568 0.0266386 -0.354065
16 2.18852 0.501039 0.0576572 1.57004 -0.0310725 0.225922
17 1.29609 0 0 0.0114265 -0.0454194 -0.435318
18 1.62202 0.000714302 -0.000471115 -0.00178709 -0.0400527 -0.388522
19 1.22241 0 0 0.0161168 -0.0122075 -0.388536
20 1.76707 1.27612 0.0366402 1.57004 -0.00830648 0.261449
21 1.55588 0 0 -0.0212791 0.0246985 -0.416704
22 1.24274 0 0 -0.000580888 0.000148575 -0.429
23 0.784523 0 0 0.0131115 0.00969341 -0.348994
24 -1.93761 -3.06358 -4.65294 -0.000932534 0 3.14159
25 6.02794 0 0 0.165116 0.731048 1.16266
26 11.7344 0 0 0.00140269 0 1.45422
27 8.81167 0 0 1.12121 0 0
28 5.77884 0 0 0.751213 0 0
29 2.23249 0 0 0.370001 0 0
30 11.4725 0 0 1.0805 0.518337 0.120757
31 0.615812 0.994372 -0.809166 -2.33375 0.188501 0.680307
32 2.24752 0 0 -0.0909466 0.0111605 -0.0309224
33 1.11936 0 0 -0.0983525 0.183736 -0.0676374
34 3.71348 0.102638 0.10219 -1.55999 -0.0420337 -0.0798627
35 1.72615 0 0 0.00207058 -0.0284525 0.0390827
36 1.21112 0 0 -0.00991421 0.014586 0.000446815
37 3.5992 1.06011 0.0708866 -1.55963 0.00161934 0.0627618
38 1.66069 0 0 -0.0179103 0.075781 -0.00940116
39 1.16699 0 0 0.0151708 0.0454569 -0.0402751
40 2.18853 -0.50104 0.0576572 -1.57004 -0.0521617 -0.225938
41 1.29609 0 0 0.00692334 -0.0463196 0.0403297
42 1.62202 -0.000713348 -0.000470638 0.0170533 -0.0362868 -0.00632049
43 1.2224 0 0 -0.010411 -0.0213342 -0.00596812
44 1.76707 -1.27612 0.0366402 -1.57004 -0.0293956 -0.261465
45 1.55588 0 0 0.0101482 0.0309805 0.0220302
46 1.24273 0 0 0.000478891 0.000360576 0.0344315
47 0.784533 0 0 -0.0158298 0.00390859 -0.0455417
48 0 0 0 0 0 0
49 -3.43071 -27.4447 -41.8824 -2.83723 -0.332811 1.78927
50 -3.3008 1.98092 -0.0178604 -1.61333 0 0
51 0.00576782 1.98489 -0.0178757 -1.61332 0 0
52 0.00575638 2.07248 -0.0285568 -1.61332 0 0
53 -3.46178 2.07651 -0.0257416 -1.61332 0 0
54 -3.15015 2.07651 -0.0257416 -1.61333 0 0
55 -1.68436 2.09113 -0.0263634 -1.61332 0 0
56 -1.61192 2.09074 -0.0355644 -1.61332 0 0
57 -1.74901 2.09114 -0.0263672 -1.61332 0 0
58 -1.65881 2.09114 -0.0263634 -1.61333 0 0
time 25
0 1.938 -2.84623 -11.5177 0 0 0
1 6.02794 0 0 -1.25077 1.12595 -1.15118
2 11.7344 0 0 -0.00140284 0 -1.89148
3 8.81139 -0.000448227 -0.00011301 1.74086 0 0.000157217
4 5.77839 0.000286102 0 1.16638 0 0.000116976
5 2.23163 -0.000328064 -0.000363827 0.574485 0 0
6 11.4725 0 0 1.66653 -0.102735 0.971039
7 0.615219 -0.993091 -0.810701 2.33902 0.155092 -0.714923
8 2.24752 0 0 0.114871 0.0703093 0.166296
9 1.11936 0 0 0.0687035 0.0585169 -0.351506
10 3.71348 -0.102641 0.10219 1.55929 0.352511 0.0754344
11 1.72615 0 0 0.00902878 -0.0270615 -0.433803
12 1.21114 0 0 0.0035451 0.0172763 -0.395057
13 3.59919 -1.06012 0.0708866 1.55869 0.396162 -0.0674144
14 1.66069 0 0 -0.0126177 0.0731066 -0.386254
15 1.167 0 0 -0.0253568 0.0266386 -0.354065
16 2.18852 0.501039 0.0576572 1.57004 -0.0310725 0.225922
17 1.29609 0 0 0.0114265 -0.0454194 -0.435318
18 1.62202 0.000714302 -0.000471115 -0.00178709 -0.0400527 -0.388522
19 1.22241 0 0 0.0161168 -0.0122075 -0.388536
20 1.76707 1.27612 0.0366402 1.57004 -0.00830648 0.261449
21 1.55588 0 0 -0.0212791 0.0246985 -0.416704
22 1.24274 0 0 -0.000580888 0.000148575 -0.429
23 0.784523 0 0 0.0131115 0.00969341 -0.348994
24 -1.93761 -3.06358 -4.65294 -0.000932534 0 3.14159
25 6.02794 0 0 -0.159981 0.830503 0.956621
26 11.7344 0 0 0.00140279 0 1.70033
27 8.81167 0 0 1.2949 0 0
28 5.77884 0 0 0.867585 0 0
29 2.23249 0 0 0.427318 0 0
30 11.4725 0 0 1.31466 0.465747 0.490823
31 0.615813 0.994373 -0.809166 -2.33375 0.188502 0.680307
32 2.24752 0 0 -0.0909467 0.0111603 -0.0309225
33 1.11936 0 0 -0.0983524 0.183736 -0.0676375
34 3.71349 0.10264 0.10219 -1.55999 -0.0420337 -0.0798626
35 1.72615 0 0 0.00207057 -0.0284524 0.0390827
36 1.21112 0 0 -0.0099143 0.0145859 0.000446807
37 3.5992 1.06012 0.0708866 -1.55963 0.00161937 0.0627619
38 1.66069 0 0 -0.0179104 0.075781 -0.00940115
39 1.16699 0 0 0.0151707 0.0454569 -0.0402751
40 2.18853 -0.50104 0.0576572 -1.57004 -0.0521618 -0.225938
41 1.29609 0 0 0.00692335 -0.0463194 0.0403298
42 1.62202 -0.000713348 -0.000470161 0.0170533 -0.0362868 -0.00632051
43 1.2224 0 0 -0.010411 -0.0213342 -0.00596811
44 1.76707 -1.27612 0.0366402 -1.57004 -0.0293956 -0.261465
45 1.55588 0 0 0.0101481 0.0309805 0.0220302
46 1.24273 0 0 0.00047897 0.000360597 0.0344315
47 0.784531 0 0 -0.0158298 0.00390871 -0.0455417
48 0 0 0 0 0 0
49 -3.43071 -27.4447 -41.8824 -2.83723 -0.332811 1.78927
50 -3.3008 1.98092 -0.0178604 -1.61333 0 0
51 0.00576782 1.98489 -0.0178757 -1.61332 0 0
52 0.00575638 2.07248 -0.0285568 -1.61332 0 0
53 -3.46178 2.07651 -0.0257416 -1.61332 0 0
54 -3.15015 2.07651 -0.0257416 -1.61333 0 0
55 -1.68436 2.09113 -0.0263634 -1.61332 0 0
56 -1.61192 2.09074 -0.0355644 -1.61332 0 0
57 -1.74901 2.09114 -0.0263672 -1.61332 0 0
58 -1.65881 2.09114 -0.0263634 -1.61333 0 0
time 26
0 1.938 -2.84623 -11.5177 0 0 0
1 6.02794 0 0 -1.25077 1.12595 -1.15118
2 11.7344 0 0 -0.00140284 0 -1.89148
3 8.81139 -0.000448227 -0.00011301 1.74086 0 0.000157217
4 5.77839 0.000286102 0 1.16638 0 0.000116976
5 2.23163 -0.000328064 -0.000363827 0.574485 0 0
6 11.4725 0 0 1.66653 -0.102735 0.971039
7 0.615219 -0.993091 -0.810701 2.33902 0.155092 -0.714923
8 2.24752 0 0 0.114871 0.0703093 0.166296
9 1.11936 0 0 0.0687035 0.0585169 -0.351506
10 3.71348 -0.102641 0.10219 1.55929 0.352511 0.0754344
11 1.72615 0 0 0.00902878 -0.0270615 -0.433803
12 1.21114 0 0 0.0035451 0.0172763 -0.395057
13 3.59919 -1.06012 0.0708866 1.55869 0.396162 -0.0674144
14 1.66069 0 0 -0.0126177 0.0731066 -0.386254
15 1.167 0 0 -0.0253568 0.0266386 -0.354065
16 2.18852 0.501039 0.0576572 1.57004 -0.0310725 0.225922
17 1.29609 0 0 0.0114265 -0.0454194 -0.435318
18 1.62202 0.000714302 -0.000471115 -0.00178709 -0.0400527 -0.388522
19 1.22241 0 0 0.0161168 -0.0122075 -0.388536
20 1.76707 1.27612 0.0366402 1.57004 -0.00830648 0.261449
21 1.55588 0 0 -0.0212791 0.0246985 -0.416704
22 1.24274 0 0 -0.000580888 0.000148575 -0.429
23 0.784523 0 0 0.0131115 0.00969341 -0.348994
24 -1.93761 -3.06358 -4.65294 -0.000932534 0 3.14159
25 6.02794 0 0 -0.316692 0.859221 0.873932
26 11.7344 0 0 0.00140269 0 1.77783
27 8.81167 0 0 1.34118 0 0
28 5.77884 0 0 0.898588 0 0
29 2.23249 0 0 0.442588 0 0
30 11.4725 0 0 1.38014 0.401528 0.635441
31 0.615812 0.994372 -0.809166 -2.33375 0.188501 0.680307
32 2.24752 0 0 -0.0909466 0.0111603 -0.0309224
33 1.11936 0 0 -0.0983524 0.183736 -0.0676374
34 3.71349 0.102639 0.10219 -1.55999 -0.0420338 -0.0798626
35 1.72615 0 0 0.0020707 -0.0284524 0.0390827
36 1.21112 0 0 -0.00991419 0.0145859 0.000446851
37 3.5992 1.06012 0.0708866 -1.55963 0.00161933 0.0627619
38 1.66069 0 0 -0.0179102 0.075781 -0.00940114
39 1.16699 0 0 0.0151706 0.0454569 -0.0402751
40 2.18853 -0.50104 0.0576591 -1.57004 -0.0521617 -0.225938
41 1.29609 0 0 0.00692333 -0.0463195 0.0403296
42 1.62202 -0.000713348 -0.000470638 0.0170532 -0.0362867 -0.00632036
43 1.22241 0 0 -0.0104112 -0.0213342 -0.00596807
44 1.76707 -1.27612 0.0366402 -1.57004 -0.0293957 -0.261465
45 1.55588 0 0 0.0101481 0.0309805 0.0220303
46 1.24273 0 0 0.000478916 0.000360531 0.0344315
47 0.784532 0 0 -0.0158298 0.00390864 -0.0455418
48 0 0 0 0 0 0
49 -3.43071 -27.4447 -41.8824 -2.83723 -0.332811 1.78927
50 -3.3008 1.98092 -0.0178604 -1.61333 0 0
51 0.00576782 1.98489 -0.0178757 -1.61332 0 0
52 0.00575638 2.07248 -0.0285568 -1.61332 0 0
53 -3.46178 2.07651 -0.0257416 -1.61332 0 0
54 -3.15015 2.07651 -0.0257416 -1.61333 0 0
55 -1.68436 2.09113 -0.0263634 -1.61332 0 0
56 -1.61192 2.09074 -0.0355644 -1.61332 0 0
57 -1.74901 2.09114 -0.0263672 -1.61332 0 0
58 -1.65881 2.09114 -0.0263634 -1.61333 0 0
time 27
0 1.938 -2.84623 -11.5177 0 0 0
1 6.02794 0 0 -1.25077 1.12595 -1.15118
2 11.7344 0 0 -0.00140284 0 -1.89148
3 8.81139 -0.000448227 -0.00011301 1.74086 0 0.000157217
4 5.77839 0.000286102 0 1.16638 0 0.000116976
5 2.23163 -0.000328064 -0.000363827 0.574485 0 0
6 11.4725 0 0 1.66653 -0.102735 0.971039
7 0.615219 -0.993091 -0.810701 2.33902 0.155092 -0.714923
8 2.24752 0 0 0.114871 0.0703093 0.166296
9 1.11936 0 0 0.0687035 0.0585169 -0.351506
10 3.71348 -0.102641 0.10219 1.55929 0.352511 0.0754344
11 1.72615 0 0 0.00902878 -0.0270615 -0.433803
12 1.21114 0 0 0.0035451 0.0172763 -0.395057
13 3.59919 -1.06012 0.0708866 1.55869 0.396162 -0.0674144
14 1.66069 0 0 -0.0126177 0.0731066 -0.386254
15 1.167 0 0 -0.0253568 0.0266386 -0.354065
16 2.18852 0.501039 0.0576572 1.57004 -0.0310725 0.225922
17 1.29609 0 0 0.0114265 -0.0454194 -0.435318
18 1.62202 0.000714302 -0.000471115 -0.00178709 -0.0400527 -0.388522
19 1.22241 0 0 0.0161168 -0.0122075 -0.388536
20 1.76707 1.27612 0.0366402 1.57004 -0.00830648 0.261449
21 1.55588 0 0 -0.0212791 0.0246985 -0.416704
22 1.24274 0 0 -0.000580888 0.000148575 -0.429
23 0.784523 0 0 0.0131115 0.00969341 -0.348994
24 -1.93761 -3.06358 -4.65294 -0.000932534 0 3.14159
25 6.02794 0 0 -0.316692 0.859221 0.873932
26 11.7344 0 0 0.00140269 0 1.77783
27 8.81167 0 0 1.34118 0 0
28 5.77884 0 0 0.898588 0 0
29 2.23249 0 0 0.442588 0 0
30 11.4725 0 0 1.38014 0.401528 0.635441
31 0.615812 0.994372 -0.809166 -2.33375 0.188501 0.680307
32 2.24752 0 0 -0.0909466 0.0111603 -0.0309224
33 1.11936 0 0 -0.0983524 0.183736 -0.0676374
34 3.71349 0.102639 0.10219 -1.55999 -0.0420338 -0.0798626
35 1.72615 0 0 0.0020707 -0.0284524 0.0390827
36 1.21112 0 0 -0.00991419 0.0145859 0.000446851
37 3.5992 1.06012 0.0708866 -1.55963 0.00161933 0.0627619
38 1.66069 0 0 -0.0179102 0.075781 -0.00940114
39 1.16699 0 0 0.0151706 0.0454569 -0.0402751
40 2.18853 -0.50104 0.0576591 -1.57004 -0.0521617 -0.225938
41 1.29609 0 0 0.00692333 -0.0463195 0.0403296
42 1.62202 -0.000713348 -0.000470638 0.0170532 -0.0362867 -0.00632036
43 1.22241 0 0 -0.0104112 -0.0213342 -0.00596807
44 1.76707 -1.27612 0.0366402 -1.57004 -0.0293957 -0.261465
45 1.55588 0 0 0.0101481 0.0309805 0.0220303
46 1.24273 0 0 0.000478916 0.000360531 0.0344315
47 0.784532 0 0 -0.0158298 0.00390864 -0.0455418
48 0 0 0 0 0 0
49 -3.43071 -27.4447 -41.8824 -2.83723 -0.332811 1.78927
50 -3.3008 1.98092 -0.0178604 -1.61333 0 0
51 0.00576782 1.98489 -0.0178757 -1.61332 0 0
52 0.00575638 2.07248 -0.0285568 -1.61332 0 0
53 -3.46178 2.07651 -0.0257416 -1.61332 0 0
54 -3.15015 2.07651 -0.0257416 -1.61333 0 0
55 -1.68436 2.09113 -0.0263634 -1.61332 0 0
56 -1.61192 2.09074 -0.0355644 -1.61332 0 0
57 -1.74901 2.09114 -0.0263672 -1.61332 0 0
58 -1.65881 2.09114 -0.0263634 -1.61333 0 0
time 28
0 1.938 -2.84623 -11.5177 0 0 0
1 6.02794 0 0 -1.25077 1.12595 -1.15118
2 11.7344 0 0 -0.00140284 0 -1.89148
3 8.81139 -0.000448227 -0.00011301 1.74086 0 0.000157217
4 5.77839 0.000286102 0 1.16638 0 0.000116976
5 2.23163 -0.000328064 -0.000363827 0.574485 0 0
6 11.4725 0 0 1.66653 -0.102735 0.971039
7 0.615219 -0.993091 -0.810701 2.33902 0.155092 -0.714923
8 2.24752 0 0 0.114871 0.0703093 0.166296
9 1.11936 0 0 0.0687035 0.0585169 -0.351506
10 3.71348 -0.102641 0.10219 1.55929 0.352511 0.0754344
11 1.72615 0 0 0.00902878 -0.0270615 -0.433803
12 1.21114 0 0 0.0035451 0.0172763 -0.395057
13 3.59919 -1.06012 0.0708866 1.55869 0.396162 -0.0674144
14 1.66069 0 0 -0.0126177 0.0731066 -0.386254
15 1.167 0 0 -0.0253568 0.0266386 -0.354065
16 2.18852 0.501039 0.0576572 1.57004 -0.0310725 0.225922
17 1.29609 0 0 0.0114265 -0.0454194 -0.435318
18 1.62202 0.000714302 -0.000471115 -0.00178709 -0.0400527 -0.388522
19 1.22241 0 0 0.0161168 -0.0122075 -0.388536
20 1.76707 1.27612 0.0366402 1.57004 -0.00830648 0.261449
21 1.55588 0 0 -0.0212791 0.0246985 -0.416704
22 1.24274 0 0 -0.000580888 0.000148575 -0.429
23 0.784523 0 0 0.0131115 0.00969341 -0.348994
24 -1.93761 -3.06358 -4.65294 -0.000932534 0 3.14159
25 6.02794 0 0 -0.316692 0.859221 0.873932
26 11.7344 0 0 0.00140269 0 1.77783
27 8.81167 0 0 1.34118 0 0
28 5.77884 0 0 0.898588 0 0
29 2.23249 0 0 0.442588 0 0
30 11.4725 0 0 1.38014 0.401528 0.635441
31 0.615812 0.994372 -0.809166 -2.33375 0.188501 0.680307
32 2.24752 0 0 -0.0909466 0.0111603 -0.0309224
33 1.11936 0 0 -0.0983524 0.183736 -0.0676374
34 3.71349 0.102639 0.10219 -1.55999 -0.0420338 -0.0798626
35 1.72615 0 0 0.0020707 -0.0284524 0.0390827
36 1.21112 0 0 -0.00991419 0.0145859 0.000446851
37 3.5992 1.06012 0.0708866 -1.55963 0.00161933 0.0627619
38 1.66069 0 0 -0.0179102 0.075781 -0.00940114
39 1.16699 0 0 0.0151706 0.0454569 -0.0402751
40 2.18853 -0.50104 0.0576591 -1.57004 -0.0521617 -0.225938
41 1.29609 0 0 0.00692333 -0.0463195 0.0403296
42 1.62202 -0.000713348 -0.000470638 0.0170532 -0.0362867 -0.00632036
43 1.22241 0 0 -0.0104112 -0.0213342 -0.00596807
44 1.76707 -1.27612 0.0366402 -1.57004 -0.0293957 -0.261465
45 1.55588 0 0 0.0101481 0.0309805 0.0220303
46 1.24273 0 0 0.000478916 0.000360531 0.0344315
47 0.784532 0 0 -0.0158298 0.00390864 -0.0455418
48 0 0 0 0 0 0
49 -3.43071 -27.4447 -41.8824 -2.83723 -0.332811 1.78927
50 -3.3008 1.98092 -0.0178604 -1.61333 0 0
51 0.00576782 1.98489 -0.0178757 -1.61332 0 0
52 0.00575638 2.07248 -0.0285568 -1.61332 0 0
53 -3.46178 2.07651 -0.0257416 -1.61332 0 0
54 -3.15015 2.07651 -0.0257416 -1.61333 0 0
55 -1.68436 2.09113 -0.0263634 -1.61332 0 0
56 -1.61192 2.09074 -0.0355644 -1.61332 0 0
57 -1.74901 2.09114 -0.0263672 -1.61332 0 0
58 -1.65881 2.09114 -0.0263634 -1.61333 0 0
time 29
0 1.938 -2.84623 -11.5177 0 0 0
1 6.02794 0 0 -1.25077 1.12595 -1.15118
2 11.7344 0 0 -0.00140284 0 -1.89148
3 8.81139 -0.000448227 -0.00011301 1.74086 0 0.000157217
4 5.77839 0.000286102 0 1.16638 0 0.000116976
5 2.23163 -0.000328064 -0.000363827 0.574485 0 0
6 11.4725 0 0 1.66653 -0.102735 0.971039
7 0.615219 -0.993091 -0.810701 2.33902 0.155092 -0.714923
8 2.24752 0 0 0.114871 0.0703093 0.166296
9 1.11936 0 0 0.0687035 0.0585169 -0.351506
10 3.71348 -0.102641 0.10219 1.55929 0.352511 0.0754344
11 1.72615 0 0 0.00902878 -0.0270615 -0.433803
12 1.21114 0 0 0.0035451 0.0172763 -0.395057
13 3.59919 -1.06012 0.0708866 1.55869 0.396162 -0.0674144
14 1.66069 0 0 -0.0126177 0.0731066 -0.386254
15 1.167 0 0 -0.0253568 0.0266386 -0.354065
16 2.18852 0.501039 0.0576572 1.57004 -0.0310725 0.225922
17 1.29609 0 0 0.0114265 -0.0454194 -0.435318
18 1.62202 0.000714302 -0.000471115 -0.00178709 -0.0400527 -0.388522
19 1.22241 0 0 0.0161168 -0.0122075 -0.388536
20 1.76707 1.27612 0.0366402 1.57004 -0.00830648 0.261449
21 1.55588 0 0 -0.0212791 0.0246985 -0.416704
22 1.24274 0 0 -0.000580888 0.000148575 -0.429
23 0.784523 0 0 0.0131115 0.00969341 -0.348994
24 -1.93761 -3.06358 -4.65294 -0.000932534 0 3.14159
25 6.02794 0 0 -0.316692 0.859221 0.873932
26 11.7344 0 0 0.00140269 0 1.77783
27 8.81167 0 0 1.34118 0 0
28 5.77884 0 0 0.898588 0 0
29 2.23249 0 0 0.442588 0 0
30 11.4725 0 0 1.38014 0.401528 0.635441
31 0.615812 0.994372 -0.809166 -2.33375 0.188501 0.680307
32 2.24752 0 0 -0.0909466 0.0111603 -0.0309224
33 1.11936 0 0 -0.0983524 0.183736 -0.0676374
34 3.71349 0.102639 0.10219 -1.55999 -0.0420338 -0.0798626
35 1.72615 0 0 0.0020707 -0.0284524 0.0390827
36 1.21112 0 0 -0.00991419 0.0145859 0.000446851
37 3.5992 1.06012 0.0708866 -1.55963 0.00161933 0.0627619
38 1.66069 0 0 -0.0179102 0.075781 -0.00940114
39 1.16699 0 0 0.0151706 0.0454569 -0.0402751
40 2.18853 -0.50104 0.0576591 -1.57004 -0.0521617 -0.225938
41 1.29609 0 0 0.00692333 -0.0463195 0.0403296
42 1.62202 -0.000713348 -0.000470638 0.0170532 -0.0362867 -0.00632036
43 1.22241 0 0 -0.0104112 -0.0213342 -0.00596807
44 1.76707 -1.27612 0.0366402 -1.57004 -0.0293957 -0.261465
45 1.55588 0 0 0.0101481 0.0309805 0.0220303
46 1.24273 0 0 0.000478916 0.000360531 0.0344315
47 0.784532 0 0 -0.0158298 0.00390864 -0.0455418
48 0 0 0 0 0 0
49 -3.43071 -27.4447 -41.8824 -2.83723 -0.332811 1.78927
50 -3.3008 1.98092 -0.0178604 -1.61333 0 0
51 0.00576782 1.98489 -0.0178757 -1.61332 0 0
52 0.00575638 2.07248 -0.0285568 -1.61332 0 0
53 -3.46178 2.07651 -0.0257416 -1.61332 0 0
54 -3.15015 2.07651 -0.0257416 -1.61333 0 0
55 -1.68436 2.09113 -0.0263634 -1.61332 0 0
56 -1.61192 2.09074 -0.0355644 -1.61332 0 0
57 -1.74901 2.09114 -0.0263672 -1.61332 0 0
58 -1.65881 2.09114 -0.0263634 -1.61333 0 0
time 30
0 1.938 -2.84623 -11.5177 0 0 0
1 6.02794 0 0 -1.25077 1.12595 -1.15118
2 11.7344 0 0 -0.00140284 0 -1.89148
3 8.81139 -0.000448227 -0.00011301 1.74086 0 0.000157217
4 5.77839 0.000286102 0 1.16638 0 0.000116976
5 2.23163 -0.000328064 -0.000363827 0.574485 0 0
6 11.4725 0 0 1.66653 -0.102735 0.971039
7 0.615219 -0.993091 -0.810701 2.33902 0.155092 -0.714923
8 2.24752 0 0 0.114871 0.0703093 0.166296
9 1.11936 0 0 0.0687035 0.0585169 -0.351506
10 3.71348 -0.102641 0.10219 1.55929 0.352511 0.0754344
11 1.72615 0 0 0.00902878 -0.0270615 -0.433803
12 1.21114 0 0 0.0035451 0.0172763 -0.395057
13 3.59919 -1.06012 0.0708866 1.55869 0.396162 -0.0674144
14 1.66069 0 0 -0.0126177 0.0731066 -0.386254
15 1.167 0 0 -0.0253568 0.0266386 -0.354065
16 2.18852 0.501039 0.0576572 1.57004 -0.0310725 0.225922
17 1.29609 0 0 0.0114265 -0.0454194 -0.435318
18 1.62202 0.000714302 -0.000471115 -0.00178709 -0.0400527 -0.388522
19 1.22241 0 0 0.0161168 -0.0122075 -0.388536
20 1.76707 1.27612 0.0366402 1.57004 -0.00830648 0.261449
21 1.55588 0 0 -0.0212791 0.0246985 -0.416704
22 1.24274 0 0 -0.000580888 0.000148575 -0.429
23 0.784523 0 0 0.0131115 0.00969341 -0.348994
24 -1.93761 -3.06358 -4.65294 -0.000932534 0 3.14159
25 6.02794 0 0 -0.316692 0.859221 0.873932
26 11.7344 0 0 0.00140269 0 1.77783
27 8.81167 0 0 1.34118 0 0
28 5.77884 0 0 0.898588 0 0
29 2.23249 0 0 0.442588 0 0
30 11.4725 0 0 1.38014 0.401528 0.635441
31 0.615812 0.994372 -0.809166 -2.33375 0.188501 0.680307
32 2.24752 0 0 -0.0909466 0.0111603 -0.0309224
33 1.11936 0 0 -0.0983524 0.183736 -0.0676374
34 3.71349 0.102639 0.10219 -1.55999 -0.0420338 -0.0798626
35 1.72615 0 0 0.0020707 -0.0284524 0.0390827
36 1.21112 0 0 -0.00991419 0.0145859 0.000446851
37 3.5992 1.06012 0.0708866 -1.55963 0.00161933 0.0627619
38 1.66069 0 0 -0.0179102 0.075781 -0.00940114
39 1.16699 0 0 0.0151706 0.0454569 -0.0402751
40 2.18853 -0.50104 0.0576591 -1.57004 -0.0521617 -0.225938
41 1.29609 0 0 0.00692333 -0.0463195 0.0403296
42 1.62202 -0.000713348 -0.000470638 0.0170532 -0.0362867 -0.00632036
43 1.22241 0 0 -0.0104112 -0.0213342 -0.00596807
44 1.76707 -1.27612 0.0366402 -1.57004 -0.0293957 -0.261465
45 1.55588 0 0 0.0101481 0.0309805 0.0220303
46 1.24273 0 0 0.000478916 0.000360531 0.0344315
47 0.784532 0 0 -0.0158298 0.00390864 -0.0455418
48 0 0 0 0 0 0
49 -3.43071 -27.4447 -41.8824 -2.83723 -0.332811 1.78927
50 -3.3008 1.98092 -0.0178604 -1.61333 0 0
51 0.00576782 1.98489 -0.0178757 -1.61332 0 0
52 0.00575638 2.07248 -0.0285568 -1.61332 0 0
53 -3.46178 2.07651 -0.0257416 -1.61332 0 0
54 -3.15015 2.07651 -0.0257416 -1.61333 0 0
55 -1.68436 2.09113 -0.0263634 -1.61332 0 0
56 -1.61192 2.09074 -0.0355644 -1.61332 0 0
57 -1.74901 2.09114 -0.0263672 -1.61332 0 0
58 -1.65881 2.09114 -0.0263634 -1.61333 0 0
end
