//Sequence File generated by the Wall Worm SMD Exporter PRO 1.99
//www.wallworm.com
version 1
nodes
0 "b_l_upperarm" -1
1 "b_l_forearm" 0
2 "b_l_twist3" 1
3 "b_l_twist2" 1
4 "b_l_twist1" 1
5 "b_l_hand" 1
6 "b_l_thumb001" 5
7 "b_l_thumb002" 6
8 "b_l_thumb003" 7
9 "b_l_middle001" 5
10 "b_l_middle002" 9
11 "b_l_middle003" 10
12 "b_l_index001" 5
13 "b_l_index002" 12
14 "b_l_index003" 13
15 "b_l_hand_ringsqueezer" 5
16 "b_l_ring001" 15
17 "b_l_ring002" 16
18 "b_l_ring003" 17
19 "b_l_hand_pinkysqueezer" 5
20 "b_l_pinky001" 19
21 "b_l_pinky002" 20
22 "b_l_pinky003" 21
23 "b_r_clav" -1
24 "b_r_upperarm" 23
25 "b_r_forearm" 24
26 "b_r_twist3" 25
27 "b_r_twist2" 25
28 "b_r_twist1" 25
29 "b_r_hand" 25
30 "b_r_thumb001" 29
31 "b_r_thumb002" 30
32 "b_r_thumb003" 31
33 "b_r_middle001" 29
34 "b_r_middle002" 33
35 "b_r_middle003" 34
36 "b_r_index001" 29
37 "b_r_index002" 36
38 "b_r_index003" 37
39 "b_r_hand_ringsqueezer" 29
40 "b_r_ring001" 39
41 "b_r_ring002" 40
42 "b_r_ring003" 41
43 "b_r_hand_pinkysqueezer" 29
44 "b_r_pinky001" 43
45 "b_r_pinky002" 44
46 "b_r_pinky003" 45
47 "b_zero" -1
48 "ctrl_l_hand" -1
49 "ctrl_r_hand" -1
50 "d_wepinbone" -1
51 "glock_materials" -1
end
skeleton
time 0
0 6.07472 -5.9503 -7.2488 -0.60755 0.594158 -1.83688
1 11.7344 0 0 -0.00140276 0 -0.914687
2 8.81138 -0.000450134 -0.00011158 0.116364 0 0.000157777
3 5.77839 0.000284195 0 0.0779639 0 0.00010624
4 2.23163 -0.000329971 -0.00036335 0.0384 0 0
5 11.4725 0 0 -0.254129 -1.23107 0.308825
6 0.615221 -0.993093 -0.810699 2.92227 0.454999 -0.33141
7 2.24752 0 0 0.0643999 0.0920015 -0.24525
8 1.11936 0 0 0.0124091 0.0391454 -1.16006
9 3.71348 -0.102644 0.10219 1.44559 1.26927 -0.122845
10 1.72614 0 0 -0.0132949 0.00454368 -1.35296
11 1.21114 0 0 -0.0138878 0.0108707 -1.50415
12 3.5992 -1.06012 0.0708866 1.59719 1.13552 0.0844624
13 1.66069 0 0 0.0206524 0.106434 -1.46129
14 1.167 0 0 0.140204 0.107864 -1.2636
15 2.18853 0.501038 0.0576591 1.58026 0.110062 0.0312636
16 1.29609 0 0 -0.021455 0.0115008 -1.06235
17 1.62202 0.000713825 -0.000471115 -0.00757008 0.00444246 -1.4728
18 1.22241 0 0 -0.0469829 -0.00376813 -1.43289
19 1.76707 1.27612 0.0366402 1.57845 0.182304 -0.0214511
20 1.55588 0 0 -0.155246 -0.00355041 -0.857709
21 1.24274 0 0 -0.000505279 -0.000322966 -1.24825
22 0.784522 0 0 0.00822031 0.0140818 -0.754785
23 -1.93761 -1.56582 -7.2488 -0.000932534 0 -2.53187
24 6.02794 0 0 1.26685 0.966574 0.621782
25 11.7344 0 0 0.00140279 0 1.56182
26 8.81167 0 0 0.622 0 0
27 5.77884 0 0 0.41674 0 0
28 2.23249 0 0 0.20526 0 0
29 11.4725 0 0 0.623851 -0.0292451 0.142096
30 0.615812 0.994371 -0.809162 -2.72226 0.463503 0.286233
31 2.24752 0 0 -0.083597 0.0959307 0.272288
32 1.11936 0 0 -0.401235 0.450129 0.842933
33 3.71349 0.102638 0.102192 -1.41386 1.26431 0.0816935
34 1.72615 0 0 0.000698442 0.000241673 1.34896
35 1.21112 0 0 0.0115404 0.0133366 1.31081
36 3.5992 1.06011 0.0708885 -1.68043 1.04215 -0.112109
37 1.66069 0 0 0.00620719 0.00200648 1.47997
38 1.16699 0 0 -0.0701393 0.164234 1.21657
39 2.18853 -0.501041 0.0576611 -1.57605 0.00117794 -0.0469344
40 1.29609 0 0 -0.0326375 -0.0616157 1.17811
41 1.62201 -0.000713348 -0.000469208 -0.00508026 -0.0033096 1.42626
42 1.22241 0 0 0.024702 -0.0856982 1.42308
43 1.76707 -1.27612 0.0366421 -1.56655 0.103701 0.0275535
44 1.55588 0 0 0.103891 -0.0756531 0.975564
45 1.24273 0 0 -0.00469944 -0.0380688 1.28397
46 0.784533 0 0 -0.0127428 -0.0577752 1.00048
47 0 0 0 0 0 0
48 -5.97196 -21.7669 -13.4357 -1.30402 -0.614816 -1.34887
49 -8.87988 -20.9943 -10.782 1.99513 -0.708409 -1.54811
50 -8.68284 -21.9724 -5.95148 -0.482858 -0.258133 0.220885
51 -0.49446 -2.33627 -0.838784 0 0 0
time 1
0 5.02483 -5.9503 -7.2488 -0.572627 0.618456 -1.79925
1 11.7344 0 0 -0.00140284 0 -1.10972
2 8.81138 -0.000450134 -0.00011158 0.86914 0 0.000157029
3 5.77839 0.000286102 0 0.582324 0 0.000110084
4 2.23164 -0.000328064 -0.00036335 0.286816 0 0
5 11.4725 0 0 0.718128 -1.21315 -0.421146
6 0.615219 -0.993092 -0.810699 2.92227 0.454999 -0.33141
7 2.24752 0 0 0.0643998 0.0920016 -0.24525
8 1.11936 0 0 0.012409 0.0391452 -1.16006
9 3.71348 -0.10264 0.10219 1.44559 1.26927 -0.122845
10 1.72615 0 0 -0.0132949 0.00454345 -1.35296
11 1.21113 0 0 -0.0138876 0.010871 -1.50415
12 3.59919 -1.06012 0.0708866 1.59719 1.13552 0.0844622
13 1.66069 0 0 0.0206526 0.106433 -1.46129
14 1.167 0 0 0.140204 0.107864 -1.2636
15 2.18852 0.50104 0.0576572 1.58026 0.110062 0.0312639
16 1.29609 0 0 -0.0214548 0.0115007 -1.06235
17 1.62201 0.000712872 -0.000471115 -0.00756996 0.00444241 -1.4728
18 1.22241 0 0 -0.0469829 -0.00376789 -1.43289
19 1.76707 1.27612 0.0366402 1.57845 0.182304 -0.0214509
20 1.55588 0 0 -0.155246 -0.0035504 -0.857709
21 1.24273 0 0 -0.000505282 -0.000323115 -1.24825
22 0.784523 0 0 0.00822042 0.0140817 -0.754785
23 -1.46405 -2.02751 -7.40339 -0.000932534 0 -2.53187
24 6.02795 0 0 1.24576 1.08766 0.416913
25 11.7344 0 0 0.00140285 0 1.77771
26 8.81167 0 0 0.893821 0 0
27 5.77884 0 0 0.59886 0 0
28 2.23249 0 0 0.294961 0 0
29 11.4725 0 0 0.89304 -0.122211 0.243714
30 0.615812 0.994373 -0.809164 -2.72226 0.463503 0.286233
31 2.24752 0 0 -0.083597 0.0959307 0.272288
32 1.11936 0 0 -0.401235 0.450129 0.842933
33 3.71348 0.102639 0.10219 -1.41386 1.26431 0.0816937
34 1.72615 0 0 0.0006983 0.000241829 1.34896
35 1.21112 0 0 0.0115403 0.0133365 1.31081
36 3.5992 1.06012 0.0708866 -1.68043 1.04215 -0.112108
37 1.66069 0 0 0.0062073 0.00200651 1.47997
38 1.16699 0 0 -0.0701393 0.164234 1.21657
39 2.18853 -0.50104 0.0576591 -1.57605 0.00117786 -0.0469346
40 1.29609 0 0 -0.0326375 -0.0616159 1.17811
41 1.62201 -0.000712395 -0.000470161 -0.00508017 -0.00330954 1.42626
42 1.22241 0 0 0.024702 -0.0856983 1.42308
43 1.76707 -1.27612 0.0366421 -1.56655 0.103701 0.0275536
44 1.55587 0 0 0.103891 -0.075653 0.975564
45 1.24273 0 0 -0.00469953 -0.0380688 1.28397
46 0.784533 0 0 -0.0127429 -0.0577754 1.00048
47 0 0 0 0 0 0
48 -7.22448 -20.5016 -12.4755 -1.10247 -0.905916 -1.44475
49 -10.4733 -19.1216 -10.7723 2.37891 -0.916993 -1.83139
50 -11.4342 -18.9521 -5.93729 -0.790716 -0.424803 0.323603
51 -0.49446 -2.33627 -0.838784 0 0 0
time 2
0 2.52124 -5.9503 -7.2488 -0.536333 0.631732 -1.72324
1 11.7344 0 0 -0.00140292 0 -1.54414
2 8.81138 -0.000452042 -0.00011158 1.23955 0 0.000158522
3 5.77839 0.00028801 0 0.830497 0 0.000113732
4 2.23163 -0.000329971 -0.00036335 0.409051 0 0
5 11.4725 0 0 1.18245 -0.819767 -0.388866
6 0.615219 -0.993091 -0.810701 2.92227 0.454999 -0.331411
7 2.24752 0 0 0.0643998 0.0920017 -0.24525
8 1.11936 0 0 0.0124091 0.0391454 -1.16006
9 3.71348 -0.10264 0.10219 1.44559 1.26927 -0.122846
10 1.72615 0 0 -0.013295 0.0045435 -1.35296
11 1.21114 0 0 -0.0138876 0.0108709 -1.50415
12 3.59919 -1.06012 0.0708885 1.59719 1.13552 0.084462
13 1.66069 0 0 0.0206525 0.106434 -1.46129
14 1.167 0 0 0.140204 0.107864 -1.2636
15 2.18852 0.50104 0.0576572 1.58026 0.110062 0.0312638
16 1.29609 0 0 -0.021455 0.0115007 -1.06235
17 1.62202 0.000713825 -0.000471115 -0.00756999 0.00444254 -1.4728
18 1.22241 0 0 -0.046983 -0.00376773 -1.43289
19 1.76707 1.27612 0.0366421 1.57845 0.182304 -0.0214511
20 1.55588 0 0 -0.155246 -0.0035503 -0.857709
21 1.24273 0 0 -0.000505268 -0.000323032 -1.24825
22 0.784523 0 0 0.00822035 0.0140818 -0.754785
23 -0.334776 -3.12846 -7.77203 -0.000932534 0 -2.53187
24 6.02794 0 0 1.40214 1.19206 0.140613
25 11.7344 0 0 0.00140281 0 2.10667
26 8.81167 0 0 1.42888 0 0
27 5.77884 0 0 0.957348 0 0
28 2.23249 0 0 0.47153 0 0
29 11.4725 0 0 1.42496 -0.253094 -0.0674026
30 0.615812 0.994372 -0.809166 -2.72226 0.463503 0.286233
31 2.24752 0 0 -0.083597 0.0959306 0.272288
32 1.11936 0 0 -0.401235 0.450129 0.842934
33 3.71349 0.102639 0.102192 -1.41386 1.26431 0.0816942
34 1.72615 0 0 0.000698428 0.000241798 1.34896
35 1.21112 0 0 0.0115403 0.0133366 1.31081
36 3.5992 1.06012 0.0708885 -1.68043 1.04215 -0.112109
37 1.66069 0 0 0.00620717 0.00200646 1.47997
38 1.16699 0 0 -0.0701392 0.164234 1.21657
39 2.18853 -0.50104 0.0576591 -1.57605 0.00117787 -0.0469345
40 1.29609 0 0 -0.0326374 -0.0616159 1.17811
41 1.62201 -0.000713348 -0.000469685 -0.0050801 -0.00330956 1.42626
42 1.22241 0 0 0.024702 -0.0856983 1.42308
43 1.76707 -1.27612 0.0366402 -1.56655 0.103701 0.0275537
44 1.55588 0 0 0.103891 -0.0756529 0.975564
45 1.24273 0 0 -0.00469959 -0.0380689 1.28397
46 0.784531 0 0 -0.0127427 -0.0577753 1.00048
47 0 0 0 0 0 0
48 -9.22349 -17.4776 -9.62978 -0.296024 -1.14972 -2.16508
49 -12.3468 -15.4324 -9.63892 -3.09964 -0.827675 -2.54117
50 -15.2835 -14.1163 -5.90088 -1.26774 -0.763011 0.518802
51 -0.49446 -2.33627 -0.838784 0 0 0
time 3
0 -0.466925 -5.9503 -7.2488 -0.400235 0.71515 -1.28369
1 11.7344 0 0 -0.00140294 0 -1.99984
2 8.81138 -0.000452042 -0.00011301 1.19733 0 0.000157775
3 5.77839 0.000286102 0 0.802212 0 0.000112936
4 2.23163 -0.000329971 -0.000365257 0.395119 0 0
5 11.4725 0 0 1.10654 -0.702667 -0.0689971
6 0.61522 -0.993092 -0.810699 2.92227 0.454999 -0.331411
7 2.24752 0 0 0.0643998 0.0920016 -0.24525
8 1.11936 0 0 0.012409 0.0391456 -1.16006
9 3.71348 -0.102642 0.102192 1.44559 1.26927 -0.122846
10 1.72615 0 0 -0.0132949 0.00454353 -1.35296
11 1.21114 0 0 -0.0138878 0.0108709 -1.50415
12 3.59919 -1.06012 0.0708904 1.59719 1.13552 0.084462
13 1.66069 0 0 0.0206526 0.106434 -1.46129
14 1.167 0 0 0.140204 0.107864 -1.2636
15 2.18852 0.501039 0.0576591 1.58026 0.110062 0.0312636
16 1.29609 0 0 -0.021455 0.0115006 -1.06235
17 1.62202 0.000713825 -0.000471592 -0.00757 0.00444245 -1.4728
18 1.22241 0 0 -0.0469828 -0.00376799 -1.43289
19 1.76707 1.27612 0.0366421 1.57845 0.182304 -0.0214511
20 1.55588 0 0 -0.155246 -0.00355038 -0.857709
21 1.24273 0 0 -0.00050522 -0.000322997 -1.24825
22 0.784523 0 0 0.00822028 0.0140819 -0.754785
23 1.01306 -4.4425 -8.21203 -0.000932534 0 -2.53187
24 6.02794 0 0 1.51664 1.20675 0.117601
25 11.7344 0 0 0.00140268 0 2.33585
26 8.81167 0 0 1.62087 0 0
27 5.77884 0 0 1.08598 0 0
28 2.23249 0 0 0.534886 0 0
29 11.4725 0 0 1.61335 -0.0915859 -0.566016
30 0.615813 0.994372 -0.809166 -2.72226 0.463503 0.286233
31 2.24752 0 0 -0.0835969 0.0959305 0.272288
32 1.11936 0 0 -0.401235 0.450129 0.842934
33 3.71349 0.102638 0.10219 -1.41386 1.26431 0.0816935
34 1.72615 0 0 0.000698456 0.000241738 1.34896
35 1.21112 0 0 0.0115403 0.0133366 1.31081
36 3.5992 1.06012 0.0708885 -1.68043 1.04215 -0.112109
37 1.66069 0 0 0.00620721 0.00200646 1.47997
38 1.16699 0 0 -0.0701393 0.164234 1.21657
39 2.18853 -0.50104 0.0576591 -1.57605 0.00117798 -0.0469346
40 1.29609 0 0 -0.0326375 -0.0616158 1.17811
41 1.62201 -0.000711441 -0.000470877 -0.00508031 -0.00330943 1.42626
42 1.2224 0 0 0.0247018 -0.0856983 1.42308
43 1.76707 -1.27612 0.0366402 -1.56655 0.103701 0.0275535
44 1.55587 0 0 0.103891 -0.0756531 0.975564
45 1.24273 0 0 -0.00469946 -0.038069 1.28397
46 0.784533 0 0 -0.0127429 -0.0577752 1.00048
47 0 0 0 0 0 0
48 -7.43715 -16.2664 -8.74457 -0.111681 -1.08702 -2.18925
49 -10.4072 -14.2598 -8.81113 -3.06447 -0.561789 -2.45829
50 -14.2266 -13.7729 -5.72811 -1.2838 -1.03006 0.637053
51 -0.49446 -2.33627 -0.838784 0 0 0
time 4
0 -2.97051 -5.9503 -7.2488 -0.654509 0.983256 -0.580217
1 11.7344 0 0 -0.00140282 0 -2.0144
2 8.81138 -0.000450134 -0.000112534 0.981899 0 0.000157863
3 5.77839 0.000286102 0 0.657872 0 0.000111379
4 2.23163 -0.000328064 -0.000364304 0.324026 0 0
5 11.4725 0 0 0.948763 -0.414058 -0.054618
6 0.615218 -0.993091 -0.810699 2.92227 0.454999 -0.33141
7 2.24752 0 0 0.0643998 0.0920015 -0.24525
8 1.11936 0 0 0.0124088 0.0391454 -1.16006
9 3.71348 -0.102641 0.10219 1.44559 1.26927 -0.122846
10 1.72615 0 0 -0.0132949 0.00454357 -1.35296
11 1.21114 0 0 -0.0138878 0.0108708 -1.50415
12 3.59919 -1.06012 0.0708866 1.59719 1.13552 0.0844621
13 1.66069 0 0 0.0206525 0.106434 -1.46129
14 1.167 0 0 0.140204 0.107864 -1.2636
15 2.18852 0.501039 0.0576591 1.58026 0.110062 0.0312637
16 1.29609 0 0 -0.0214549 0.0115007 -1.06235
17 1.62201 0.000714302 -0.000470877 -0.00756999 0.00444254 -1.4728
18 1.22241 0 0 -0.0469829 -0.00376778 -1.43289
19 1.76707 1.27612 0.0366421 1.57845 0.182304 -0.0214511
20 1.55588 0 0 -0.155246 -0.00355041 -0.857709
21 1.24273 0 0 -0.000505303 -0.000322984 -1.24825
22 0.784523 0 0 0.0082204 0.0140818 -0.754785
23 2.14233 -5.54345 -8.58068 -0.000932534 0 -2.53187
24 6.02794 0 0 0.504295 0.817995 -0.0340455
25 11.7344 0 0 0.00140266 0 2.3867
26 8.81167 0 0 2.14944 0 0
27 5.77884 0 0 1.44013 0 0
28 2.23249 0 0 0.709316 0 0
29 11.4725 0 0 1.97417 -0.306145 -1.03268
30 0.615813 0.994372 -0.809164 -2.72226 0.463503 0.286233
31 2.24752 0 0 -0.0835969 0.0959307 0.272288
32 1.11936 0 0 -0.401235 0.450129 0.842933
33 3.71349 0.102639 0.102192 -1.41386 1.26431 0.0816932
34 1.72615 0 0 0.000698456 0.000241785 1.34896
35 1.21112 0 0 0.0115403 0.0133365 1.31081
36 3.5992 1.06012 0.0708885 -1.68043 1.04215 -0.112109
37 1.66069 0 0 0.00620725 0.00200651 1.47997
38 1.16699 0 0 -0.0701393 0.164234 1.21657
39 2.18853 -0.50104 0.0576601 -1.57605 0.00117799 -0.0469346
40 1.29609 0 0 -0.0326374 -0.0616158 1.17811
41 1.62201 -0.000713348 -0.000470161 -0.00508016 -0.00330953 1.42626
42 1.22241 0 0 0.0247019 -0.0856982 1.42308
43 1.76707 -1.27612 0.0366421 -1.56655 0.103701 0.0275536
44 1.55588 0 0 0.103891 -0.0756531 0.975564
45 1.24273 0 0 -0.00469957 -0.0380689 1.28397
46 0.784531 0 0 -0.0127428 -0.0577753 1.00048
47 0 0 0 0 0 0
48 0.0709658 -17.7726 -9.4203 -0.410465 -0.947772 -1.31973
49 -3.31537 -17.5355 -8.45518 2.9581 -0.343693 -1.77294
50 -6.26189 -20.0247 -5.38094 -0.628845 -1.14505 0.621879
51 -0.49446 -2.33627 -0.838784 0 0 0
time 5
0 -4.0204 -5.9503 -7.2488 -1.44011 0.472636 -0.945156
1 11.7344 0 0 -0.00140283 0 -0.901759
2 8.81138 -0.000448227 -0.00011158 1.52933 0 0.000157795
3 5.77839 0.000286102 0 1.02465 0 0.000115719
4 2.23163 -0.000328064 -0.00036335 0.504679 0 0
5 11.4725 0 0 1.52383 -0.535625 -0.203614
6 0.61522 -0.993091 -0.810701 2.92227 0.454999 -0.331411
7 2.24752 0 0 0.0643998 0.0920016 -0.24525
8 1.11936 0 0 0.0124089 0.0391455 -1.16006
9 3.71348 -0.10264 0.10219 1.44559 1.26927 -0.122847
10 1.72615 0 0 -0.0132949 0.00454369 -1.35296
11 1.21114 0 0 -0.0138879 0.0108708 -1.50415
12 3.59919 -1.06012 0.0708885 1.59719 1.13552 0.0844626
13 1.66068 0 0 0.0206525 0.106434 -1.46129
14 1.167 0 0 0.140204 0.107864 -1.2636
15 2.18852 0.50104 0.0576591 1.58026 0.110062 0.0312636
16 1.29609 0 0 -0.021455 0.0115008 -1.06235
17 1.62202 0.000714779 -0.000472069 -0.00756984 0.00444236 -1.4728
18 1.22241 0 0 -0.0469828 -0.00376777 -1.43289
19 1.76707 1.27612 0.0366402 1.57845 0.182304 -0.0214511
20 1.55588 0 0 -0.155246 -0.00355024 -0.857709
21 1.24273 0 0 -0.000505169 -0.000322851 -1.24825
22 0.784524 0 0 0.00822039 0.0140818 -0.754785
23 2.61589 -6.00513 -8.73527 -0.000932534 0 -2.53187
24 6.02794 0 0 0.474605 0.190441 0.840153
25 11.7344 0 0 0.00140264 0 1.26986
26 8.81167 0 0 2.51801 0 0
27 5.77884 0 0 1.68707 0 0
28 2.23249 0 0 0.830943 0 0
29 11.4725 0 0 2.41234 0.308003 -0.430558
30 0.615812 0.994371 -0.809165 -2.72226 0.463503 0.286233
31 2.24752 0 0 -0.0835969 0.0959306 0.272288
32 1.11936 0 0 -0.401236 0.450129 0.842934
33 3.71349 0.102639 0.102192 -1.41386 1.26431 0.0816935
34 1.72615 0 0 0.000698299 0.000241781 1.34896
35 1.21112 0 0 0.0115403 0.0133366 1.31081
36 3.5992 1.06011 0.0708885 -1.68043 1.04215 -0.112109
37 1.66069 0 0 0.00620726 0.00200633 1.47997
38 1.16699 0 0 -0.0701394 0.164234 1.21657
39 2.18853 -0.50104 0.0576601 -1.57605 0.00117798 -0.0469348
40 1.29609 0 0 -0.0326374 -0.0616158 1.17811
41 1.62201 -0.000715256 -0.000470161 -0.00508013 -0.0033095 1.42626
42 1.2224 0 0 0.0247021 -0.0856986 1.42308
43 1.76707 -1.27612 0.0366411 -1.56655 0.103701 0.0275535
44 1.55588 0 0 0.103891 -0.0756529 0.975564
45 1.24273 0 0 -0.00469955 -0.0380689 1.28397
46 0.784531 0 0 -0.0127429 -0.0577752 1.00048
47 0 0 0 0 0 0
48 7.23634 -23.5341 -7.88561 -0.290644 -0.595955 -0.432167
49 5.4433 -26.3284 -6.70053 2.87111 0.0683816 -0.81062
50 6.60906 -30.769 -4.89742 0.48708 -1.18888 0.529756
51 -0.49446 -2.33627 -0.838784 0 0 0
time 6
0 -3.97324 -5.9503 -7.2488 -1.32852 0.632513 -0.939582
1 11.7344 0 0 -0.0014029 0 -1.07801
2 8.81138 -0.000452042 -0.000112534 1.45437 0 0.000157339
3 5.77839 0.000284195 0 0.97443 0 0.000114684
4 2.23163 -0.000329971 -0.000363827 0.479943 0 0
5 11.4725 0 0 1.4259 -0.688867 -0.194112
6 0.615219 -0.993089 -0.810699 2.92227 0.454999 -0.331411
7 2.24752 0 0 0.0643998 0.0920015 -0.24525
8 1.11936 0 0 0.0124089 0.0391453 -1.16006
9 3.71348 -0.102639 0.102188 1.44559 1.26927 -0.122847
10 1.72614 0 0 -0.0132951 0.00454361 -1.35296
11 1.21114 0 0 -0.0138875 0.0108709 -1.50415
12 3.59919 -1.06012 0.0708866 1.59719 1.13552 0.0844625
13 1.66068 0 0 0.0206525 0.106433 -1.46129
14 1.167 0 0 0.140204 0.107864 -1.2636
15 2.18852 0.50104 0.0576572 1.58026 0.110062 0.0312636
16 1.29609 0 0 -0.0214549 0.0115007 -1.06235
17 1.62202 0.000713348 -0.000471115 -0.00756998 0.0044423 -1.4728
18 1.22241 0 0 -0.046983 -0.00376799 -1.43289
19 1.76707 1.27612 0.0366402 1.57845 0.182304 -0.021451
20 1.55588 0 0 -0.155246 -0.00355036 -0.857709
21 1.24273 0 0 -0.000505248 -0.000323054 -1.24825
22 0.784523 0 0 0.00822048 0.0140818 -0.754785
23 2.59462 -5.98439 -8.72832 -0.000932534 0 -2.53187
24 6.02795 0 0 0.428754 0.287785 0.69621
25 11.7344 0 0 0.00140265 0 1.41652
26 8.81167 0 0 2.39519 0 0
27 5.77884 0 0 1.60477 0 0
28 2.23249 0 0 0.790412 0 0
29 11.4725 0 0 2.32378 0.224049 -0.391046
30 0.615812 0.994373 -0.809166 -2.72226 0.463503 0.286233
31 2.24752 0 0 -0.083597 0.0959307 0.272288
32 1.11936 0 0 -0.401235 0.450129 0.842934
33 3.71348 0.10264 0.102191 -1.41386 1.26431 0.0816933
34 1.72615 0 0 0.000698445 0.000241772 1.34896
35 1.21112 0 0 0.0115403 0.0133366 1.31081
36 3.5992 1.06012 0.0708885 -1.68043 1.04215 -0.112109
37 1.66069 0 0 0.00620717 0.0020065 1.47997
38 1.16699 0 0 -0.0701395 0.164234 1.21657
39 2.18853 -0.50104 0.0576591 -1.57605 0.00117798 -0.0469345
40 1.29609 0 0 -0.0326374 -0.0616157 1.17811
41 1.62202 -0.000711441 -0.000469208 -0.00508026 -0.00330956 1.42626
42 1.2224 0 0 0.0247018 -0.0856983 1.42308
43 1.76707 -1.27612 0.0366402 -1.56655 0.103701 0.0275536
44 1.55588 0 0 0.103891 -0.0756532 0.975564
45 1.24273 0 0 -0.00469953 -0.0380689 1.28397
46 0.784534 0 0 -0.0127428 -0.0577752 1.00048
47 0 0 0 0 0 0
48 5.66067 -23.239 -9.48034 -0.410833 -0.601209 -0.37621
49 3.86601 -25.9181 -8.05595 2.7913 0.00626866 -0.818197
50 5.04281 -30.163 -5.83673 0.306555 -1.11875 0.690391
51 -0.49446 -2.33627 -0.838784 0 0 0
time 7
0 -3.83691 -5.9503 -7.2488 -1.18174 0.746297 -0.908136
1 11.7344 0 0 -0.00140277 0 -1.19686
2 8.81138 -0.000450134 -0.000112057 1.3773 0 0.00015728
3 5.77839 0.000284195 0 0.922792 0 0.00011394
4 2.23163 -0.000329971 -0.000364304 0.454509 0 0
5 11.4725 0 0 1.29854 -0.837749 -0.161793
6 0.615219 -0.99309 -0.810699 2.92227 0.454999 -0.33141
7 2.24752 0 0 0.0643999 0.0920015 -0.24525
8 1.11936 0 0 0.0124089 0.0391455 -1.16006
9 3.71348 -0.10264 0.102192 1.44559 1.26927 -0.122846
10 1.72615 0 0 -0.013295 0.00454358 -1.35296
11 1.21114 0 0 -0.0138877 0.0108708 -1.50415
12 3.59919 -1.06012 0.0708866 1.59719 1.13552 0.0844622
13 1.66069 0 0 0.0206524 0.106434 -1.46129
14 1.167 0 0 0.140204 0.107864 -1.2636
15 2.18852 0.501041 0.0576591 1.58026 0.110062 0.0312637
16 1.29609 0 0 -0.0214551 0.0115006 -1.06235
17 1.62202 0.000713825 -0.000472069 -0.00756986 0.00444266 -1.4728
18 1.22241 0 0 -0.046983 -0.00376777 -1.43289
19 1.76707 1.27612 0.0366402 1.57845 0.182304 -0.021451
20 1.55587 0 0 -0.155245 -0.00355026 -0.857709
21 1.24273 0 0 -0.000505276 -0.000322817 -1.24825
22 0.784524 0 0 0.0082203 0.0140818 -0.754785
23 2.53313 -5.92445 -8.70825 -0.000932534 0 -2.53187
24 6.02794 0 0 0.395829 0.384911 0.575843
25 11.7344 0 0 0.00140268 0 1.51147
26 8.81167 0 0 2.26195 0 0
27 5.77884 0 0 1.5155 0 0
28 2.23249 0 0 0.746443 0 0
29 11.4725 0 0 2.22309 0.141854 -0.32293
30 0.615812 0.994372 -0.809164 -2.72226 0.463503 0.286233
31 2.24752 0 0 -0.083597 0.0959307 0.272288
32 1.11936 0 0 -0.401235 0.450129 0.842933
33 3.71349 0.10264 0.102192 -1.41386 1.26431 0.081694
34 1.72615 0 0 0.000698477 0.000241716 1.34896
35 1.21112 0 0 0.0115403 0.0133366 1.31081
36 3.5992 1.06012 0.0708885 -1.68043 1.04215 -0.112109
37 1.66069 0 0 0.00620717 0.00200651 1.47997
38 1.16699 0 0 -0.0701394 0.164234 1.21657
39 2.18853 -0.50104 0.0576591 -1.57605 0.00117798 -0.0469346
40 1.29609 0 0 -0.0326373 -0.0616158 1.17811
41 1.62202 -0.000713348 -0.000469208 -0.00508022 -0.00330951 1.42626
42 1.22241 0 0 0.024702 -0.0856983 1.42308
43 1.76707 -1.27612 0.0366421 -1.56655 0.103701 0.0275535
44 1.55588 0 0 0.103891 -0.0756531 0.975564
45 1.24273 0 0 -0.00469962 -0.0380689 1.28397
46 0.784533 0 0 -0.0127429 -0.0577753 1.00048
47 0 0 0 0 0 0
48 4.29016 -22.9493 -10.8056 -0.517268 -0.588137 -0.351214
49 2.43701 -25.5465 -9.2918 2.72836 -0.0675136 -0.826315
50 3.56237 -29.5683 -6.66716 0.14881 -1.05515 0.820116
51 -0.49446 -2.33627 -0.838784 0 0 0
time 8
0 -3.61918 -5.9503 -7.2488 -1.00587 0.822232 -0.853071
1 11.7344 0 0 -0.00140285 0 -1.28696
2 8.81138 -0.000448227 -0.00011301 1.29968 0 0.000157
3 5.77839 0.000286102 0 0.870785 0 0.000113242
4 2.23163 -0.000328064 -0.000364304 0.428894 0 0
5 11.4725 0 0 1.13019 -0.965089 -0.0797052
6 0.61522 -0.993091 -0.810699 2.92227 0.454999 -0.33141
7 2.24752 0 0 0.0643999 0.0920015 -0.24525
8 1.11936 0 0 0.0124089 0.0391454 -1.16006
9 3.71348 -0.102641 0.102192 1.44559 1.26927 -0.122846
10 1.72614 0 0 -0.0132949 0.00454351 -1.35296
11 1.21114 0 0 -0.0138877 0.0108708 -1.50415
12 3.59919 -1.06012 0.0708904 1.59719 1.13552 0.0844621
13 1.66069 0 0 0.0206526 0.106433 -1.46129
14 1.167 0 0 0.140204 0.107864 -1.2636
15 2.18852 0.501039 0.0576611 1.58026 0.110062 0.0312636
16 1.29609 0 0 -0.0214549 0.0115006 -1.06235
17 1.62202 0.000714779 -0.000472546 -0.00756995 0.00444254 -1.4728
18 1.22241 0 0 -0.046983 -0.00376777 -1.43289
19 1.76707 1.27612 0.0366402 1.57845 0.182304 -0.021451
20 1.55588 0 0 -0.155246 -0.0035504 -0.857709
21 1.24274 0 0 -0.000505307 -0.00032317 -1.24825
22 0.784523 0 0 0.00822034 0.0140819 -0.754785
23 2.43492 -5.8287 -8.67619 -0.000932534 0 -2.53187
24 6.02794 0 0 0.38045 0.483503 0.476618
25 11.7344 0 0 0.00140272 0 1.57004
26 8.81167 0 0 2.13119 0 0
27 5.77884 0 0 1.4279 0 0
28 2.23249 0 0 0.703294 0 0
29 11.4725 0 0 2.1146 0.0776826 -0.238426
30 0.615812 0.994373 -0.809166 -2.72226 0.463503 0.286233
31 2.24752 0 0 -0.0835969 0.0959307 0.272288
32 1.11936 0 0 -0.401236 0.450129 0.842933
33 3.71349 0.102639 0.102192 -1.41386 1.26431 0.0816933
34 1.72615 0 0 0.000698391 0.000241799 1.34896
35 1.21112 0 0 0.0115403 0.0133365 1.31081
36 3.5992 1.06012 0.0708885 -1.68043 1.04215 -0.112109
37 1.66069 0 0 0.00620726 0.00200642 1.47997
38 1.16699 0 0 -0.0701395 0.164234 1.21657
39 2.18853 -0.50104 0.0576591 -1.57605 0.00117797 -0.0469346
40 1.29609 0 0 -0.0326374 -0.0616157 1.17811
41 1.62202 -0.000713348 -0.000471115 -0.00508041 -0.00330945 1.42626
42 1.22241 0 0 0.0247021 -0.0856985 1.42308
43 1.76707 -1.27612 0.0366402 -1.56655 0.103701 0.0275535
44 1.55587 0 0 0.103891 -0.0756531 0.975564
45 1.24273 0 0 -0.00469966 -0.0380688 1.28397
46 0.784533 0 0 -0.012743 -0.0577753 1.00048
47 0 0 0 0 0 0
48 3.11279 -22.6272 -11.8695 -0.599769 -0.563904 -0.365263
49 1.15446 -25.1938 -10.3774 2.68075 -0.144211 -0.838027
50 2.16773 -28.9847 -7.3887 0.0138445 -0.99807 0.918931
51 -0.49446 -2.33627 -0.838784 0 0 0
time 9
0 -3.3278 -5.9503 -7.2488 -0.814743 0.865323 -0.78478
1 11.7344 0 0 -0.00140288 0 -1.36207
2 8.81138 -0.000450134 -0.000112057 1.22253 0 0.000157541
3 5.77839 0.000286102 0 0.819094 0 0.000112906
4 2.23163 -0.000329971 -0.000363827 0.403435 0 0
5 11.4725 0 0 0.915736 -1.05701 0.0629205
6 0.615219 -0.993091 -0.810698 2.92227 0.454999 -0.33141
7 2.24752 0 0 0.0644 0.0920015 -0.24525
8 1.11936 0 0 0.012409 0.0391455 -1.16006
9 3.71348 -0.102642 0.10219 1.44559 1.26927 -0.122845
10 1.72615 0 0 -0.0132949 0.00454359 -1.35296
11 1.21114 0 0 -0.0138876 0.0108708 -1.50415
12 3.59919 -1.06012 0.0708904 1.59719 1.13552 0.0844622
13 1.66069 0 0 0.0206525 0.106434 -1.46129
14 1.167 0 0 0.140204 0.107864 -1.2636
15 2.18852 0.501038 0.0576591 1.58026 0.110062 0.0312637
16 1.29609 0 0 -0.0214549 0.0115007 -1.06235
17 1.62202 0.000715256 -0.000470638 -0.00757023 0.00444248 -1.4728
18 1.22241 0 0 -0.0469831 -0.00376801 -1.43289
19 1.76707 1.27612 0.0366421 1.57845 0.182304 -0.0214511
20 1.55588 0 0 -0.155246 -0.00355028 -0.857709
21 1.24273 0 0 -0.000505222 -0.000323109 -1.24825
22 0.784522 0 0 0.0082205 0.0140816 -0.754785
23 2.30349 -5.70056 -8.63329 -0.000932534 0 -2.53187
24 6.02794 0 0 0.385219 0.582855 0.397126
25 11.7344 0 0 0.00140256 0 1.60414
26 8.81167 0 0 2.00889 0 0
27 5.77884 0 0 1.34596 0 0
28 2.23249 0 0 0.662935 0 0
29 11.4725 0 0 2.00383 0.0400222 -0.149745
30 0.615814 0.994373 -0.809164 -2.72226 0.463503 0.286233
31 2.24752 0 0 -0.083597 0.0959307 0.272288
32 1.11936 0 0 -0.401235 0.450129 0.842934
33 3.71349 0.10264 0.10219 -1.41386 1.26431 0.0816934
34 1.72615 0 0 0.000698386 0.000241794 1.34896
35 1.21112 0 0 0.0115404 0.0133366 1.31081
36 3.5992 1.06012 0.0708885 -1.68043 1.04215 -0.112109
37 1.66069 0 0 0.00620728 0.00200636 1.47997
38 1.16699 0 0 -0.0701393 0.164234 1.21657
39 2.18853 -0.501039 0.0576611 -1.57605 0.00117793 -0.0469346
40 1.29609 0 0 -0.0326375 -0.0616158 1.17811
41 1.62202 -0.000711441 -0.000469685 -0.00508019 -0.00330948 1.42626
42 1.22241 0 0 0.0247021 -0.0856985 1.42308
43 1.76707 -1.27612 0.0366421 -1.56655 0.103701 0.0275535
44 1.55588 0 0 0.103891 -0.075653 0.975564
45 1.24273 0 0 -0.00469954 -0.038069 1.28397
46 0.784533 0 0 -0.0127429 -0.057775 1.00048
47 0 0 0 0 0 0
48 2.10402 -22.2594 -12.6982 -0.654814 -0.534375 -0.417594
49 0.00702477 -24.8426 -11.297 2.64538 -0.217187 -0.856537
50 0.858894 -28.4123 -8.00135 -0.0983412 -0.947514 0.986837
51 -0.49446 -2.33627 -0.838784 0 0 0
time 10
0 -2.97051 -5.9503 -7.2488 -0.626653 0.881438 -0.718696
1 11.7344 0 0 -0.00140281 0 -1.42828
2 8.81138 -0.000450134 -0.00011158 1.14732 0 0.00015754
3 5.77839 0.000286102 0 0.768705 0 0.000112376
4 2.23163 -0.000328064 -0.000363827 0.378616 0 0
5 11.4725 0 0 0.673133 -1.10677 0.248898
6 0.615219 -0.993091 -0.810699 2.92227 0.454999 -0.33141
7 2.24752 0 0 0.0643997 0.0920015 -0.24525
8 1.11936 0 0 0.012409 0.0391454 -1.16006
9 3.71348 -0.102641 0.102192 1.44559 1.26927 -0.122846
10 1.72615 0 0 -0.0132951 0.00454369 -1.35296
11 1.21114 0 0 -0.0138878 0.0108709 -1.50415
12 3.59919 -1.06012 0.0708904 1.59719 1.13552 0.0844624
13 1.66068 0 0 0.0206524 0.106434 -1.46129
14 1.167 0 0 0.140204 0.107864 -1.2636
15 2.18852 0.501038 0.0576591 1.58026 0.110062 0.0312637
16 1.29609 0 0 -0.021455 0.0115007 -1.06235
17 1.62202 0.000714779 -0.000471115 -0.00756997 0.00444252 -1.4728
18 1.22241 0 0 -0.0469829 -0.00376788 -1.43289
19 1.76707 1.27612 0.0366421 1.57845 0.182304 -0.0214511
20 1.55587 0 0 -0.155246 -0.00355034 -0.857709
21 1.24273 0 0 -0.000505225 -0.000322964 -1.24825
22 0.784523 0 0 0.00822045 0.0140818 -0.754785
23 2.14233 -5.54345 -8.58068 -0.000932534 0 -2.53187
24 6.02794 0 0 0.409517 0.680441 0.335791
25 11.7344 0 0 0.00140273 0 1.62395
26 8.81167 0 0 1.89707 0 0
27 5.77884 0 0 1.27104 0 0
28 2.23249 0 0 0.626033 0 0
29 11.4725 0 0 1.89627 0.028663 -0.0690194
30 0.615814 0.994372 -0.809166 -2.72226 0.463503 0.286233
31 2.24752 0 0 -0.0835971 0.0959307 0.272288
32 1.11936 0 0 -0.401235 0.450129 0.842934
33 3.71349 0.102639 0.10219 -1.41386 1.26431 0.081694
34 1.72615 0 0 0.000698353 0.000241753 1.34896
35 1.21112 0 0 0.0115402 0.0133365 1.31081
36 3.5992 1.06012 0.0708847 -1.68043 1.04215 -0.112109
37 1.66069 0 0 0.00620731 0.00200648 1.47997
38 1.16699 0 0 -0.0701394 0.164234 1.21657
39 2.18853 -0.50104 0.0576591 -1.57605 0.00117795 -0.0469346
40 1.29609 0 0 -0.0326374 -0.0616159 1.17811
41 1.62202 -0.000711441 -0.000469685 -0.00508024 -0.00330962 1.42626
42 1.2224 0 0 0.024702 -0.0856984 1.42308
43 1.76707 -1.27612 0.0366402 -1.56655 0.103701 0.0275537
44 1.55588 0 0 0.103891 -0.0756528 0.975564
45 1.24273 0 0 -0.00469949 -0.0380688 1.28397
46 0.784534 0 0 -0.0127429 -0.0577751 1.00048
47 0 0 0 0 0 0
48 1.23927 -21.8556 -13.326 -0.684725 -0.503128 -0.500809
49 -1.02176 -24.481 -12.0462 2.61874 -0.281686 -0.884424
50 -0.364142 -27.8511 -8.50512 -0.187747 -0.903481 1.02383
51 -0.49446 -2.33627 -0.838784 0 0 0
time 11
0 -2.55507 -5.9503 -7.2488 -0.459227 0.877996 -0.669909
1 11.7344 0 0 -0.00140294 0 -1.48612
2 8.81138 -0.000452042 -0.000112057 1.07626 0 0.000157353
3 5.77839 0.000284195 0 0.721092 0 0.000111674
4 2.23163 -0.000329971 -0.000364304 0.355165 0 0
5 11.4725 0 0 0.444363 -1.11888 0.433545
6 0.615218 -0.99309 -0.810701 2.92227 0.454999 -0.33141
7 2.24752 0 0 0.0643998 0.0920015 -0.24525
8 1.11936 0 0 0.0124089 0.0391455 -1.16006
9 3.71348 -0.102641 0.102192 1.44559 1.26927 -0.122845
10 1.72615 0 0 -0.013295 0.00454336 -1.35296
11 1.21114 0 0 -0.0138877 0.0108708 -1.50415
12 3.59919 -1.06012 0.0708904 1.59719 1.13552 0.0844629
13 1.66069 0 0 0.0206524 0.106434 -1.46129
14 1.167 0 0 0.140204 0.107864 -1.2636
15 2.18852 0.50104 0.0576591 1.58026 0.110062 0.0312638
16 1.29609 0 0 -0.0214549 0.0115007 -1.06235
17 1.62202 0.000713825 -0.000470638 -0.00757006 0.00444228 -1.4728
18 1.22241 0 0 -0.0469828 -0.00376796 -1.43289
19 1.76707 1.27612 0.0366402 1.57845 0.182304 -0.021451
20 1.55588 0 0 -0.155246 -0.00355027 -0.857709
21 1.24273 0 0 -0.000505341 -0.000323084 -1.24825
22 0.784523 0 0 0.00822021 0.0140818 -0.754785
23 1.95494 -5.36076 -8.5195 -0.000932534 0 -2.53187
24 6.02794 0 0 0.450454 0.77241 0.291584
25 11.7344 0 0 0.00140281 0 1.63613
26 8.81167 0 0 1.79508 0 0
27 5.77884 0 0 1.20271 0 0
28 2.23249 0 0 0.592378 0 0
29 11.4725 0 0 1.79522 0.0366953 -0.00559
30 0.615812 0.994373 -0.809166 -2.72226 0.463503 0.286233
31 2.24752 0 0 -0.083597 0.0959306 0.272288
32 1.11936 0 0 -0.401235 0.450129 0.842934
33 3.71349 0.102639 0.10219 -1.41386 1.26431 0.0816934
34 1.72615 0 0 0.000698358 0.000241759 1.34896
35 1.21112 0 0 0.0115403 0.0133365 1.31081
36 3.5992 1.06012 0.0708885 -1.68043 1.04215 -0.112109
37 1.66069 0 0 0.0062072 0.00200654 1.47997
38 1.16699 0 0 -0.0701393 0.164234 1.21657
39 2.18853 -0.50104 0.0576591 -1.57605 0.00117797 -0.0469345
40 1.29609 0 0 -0.0326374 -0.0616157 1.17811
41 1.62201 -0.000713348 -0.000469685 -0.00508026 -0.00330946 1.42626
42 1.2224 0 0 0.024702 -0.0856984 1.42308
43 1.76707 -1.27612 0.0366402 -1.56655 0.103701 0.0275536
44 1.55588 0 0 0.103891 -0.0756529 0.975564
45 1.24273 0 0 -0.00469964 -0.0380689 1.28397
46 0.784533 0 0 -0.0127428 -0.0577752 1.00048
47 0 0 0 0 0 0
48 0.49931 -21.4421 -13.7883 -0.696164 -0.472213 -0.603968
49 -1.9488 -24.1019 -12.6276 2.59752 -0.334396 -0.923471
50 -1.50137 -27.301 -8.9 -0.254374 -0.865972 1.02992
51 -0.49446 -2.33627 -0.838784 0 0 0
time 12
0 -2.08925 -5.9503 -7.2488 -0.325926 0.865095 -0.644502
1 11.7344 0 0 -0.00140286 0 -1.53917
2 8.81138 -0.000450134 -0.000112057 1.00206 0 0.000157285
3 5.77839 0.000286102 0 0.67138 0 0.000111107
4 2.23164 -0.000329971 -0.000363827 0.33068 0 0
5 11.4725 0 0 0.268791 -1.0948 0.579162
6 0.61522 -0.993092 -0.810703 2.92227 0.454999 -0.33141
7 2.24752 0 0 0.0643998 0.0920015 -0.24525
8 1.11936 0 0 0.0124089 0.0391455 -1.16006
9 3.71348 -0.102642 0.102192 1.44559 1.26927 -0.122845
10 1.72615 0 0 -0.0132951 0.00454377 -1.35296
11 1.21114 0 0 -0.013888 0.0108707 -1.50415
12 3.59919 -1.06012 0.0708847 1.59719 1.13552 0.0844634
13 1.66069 0 0 0.0206524 0.106434 -1.46129
14 1.167 0 0 0.140204 0.107864 -1.2636
15 2.18852 0.501038 0.0576591 1.58026 0.110062 0.0312635
16 1.29609 0 0 -0.0214548 0.011501 -1.06235
17 1.62202 0.000714302 -0.000471115 -0.00757011 0.00444251 -1.4728
18 1.22241 0 0 -0.0469831 -0.003768 -1.43289
19 1.76707 1.27612 0.0366402 1.57845 0.182304 -0.0214509
20 1.55588 0 0 -0.155245 -0.00355037 -0.857709
21 1.24273 0 0 -0.000505339 -0.00032301 -1.24825
22 0.784523 0 0 0.00822035 0.0140818 -0.754785
23 1.74483 -5.15591 -8.45091 -0.000932534 0 -2.53187
24 6.02794 0 0 0.502587 0.855738 0.261407
25 11.7344 0 0 0.00140272 0 1.6505
26 8.81167 0 0 1.70036 0 0
27 5.77884 0 0 1.13924 0 0
28 2.23249 0 0 0.561119 0 0
29 11.4725 0 0 1.70054 0.0547298 0.0203973
30 0.615814 0.994372 -0.809164 -2.72226 0.463503 0.286233
31 2.24752 0 0 -0.083597 0.0959306 0.272288
32 1.11936 0 0 -0.401235 0.450129 0.842934
33 3.71349 0.102638 0.102192 -1.41386 1.26431 0.0816932
34 1.72615 0 0 0.000698377 0.000241782 1.34896
35 1.21112 0 0 0.0115403 0.0133366 1.31081
36 3.5992 1.06012 0.0708866 -1.68043 1.04215 -0.112109
37 1.66069 0 0 0.00620716 0.0020064 1.47997
38 1.16699 0 0 -0.0701394 0.164234 1.21657
39 2.18853 -0.501041 0.0576591 -1.57605 0.00117797 -0.0469346
40 1.29609 0 0 -0.0326375 -0.0616158 1.17811
41 1.62201 -0.000711441 -0.000470161 -0.00508032 -0.00330953 1.42626
42 1.22241 0 0 0.024702 -0.0856984 1.42308
43 1.76707 -1.27612 0.0366421 -1.56655 0.103701 0.0275536
44 1.55588 0 0 0.103891 -0.075653 0.975564
45 1.24273 0 0 -0.0046996 -0.0380688 1.28397
46 0.784531 0 0 -0.0127429 -0.0577752 1.00048
47 0 0 0 0 0 0
48 -0.109873 -21.0269 -14.0754 -0.693157 -0.436611 -0.723037
49 -2.77921 -23.6681 -13.0207 2.58184 -0.364934 -0.981471
50 -2.5528 -26.7622 -9.18599 -0.288704 -0.840668 0.992417
51 -0.49446 -2.33627 -0.838784 0 0 0
time 13
0 -1.58077 -5.9503 -7.2488 -0.229932 0.849325 -0.644855
1 11.7344 0 0 -0.00140277 0 -1.583
2 8.81138 -0.000450134 -0.00011158 0.929993 0 0.000157857
3 5.77839 0.000286102 0 0.623095 0 0.000111087
4 2.23164 -0.000329971 -0.000363827 0.306898 0 0
5 11.4725 0 0 0.153576 -1.05482 0.670353
6 0.615218 -0.993091 -0.810699 2.92227 0.454999 -0.33141
7 2.24752 0 0 0.0643998 0.0920016 -0.24525
8 1.11936 0 0 0.0124089 0.0391456 -1.16006
9 3.71348 -0.10264 0.10219 1.44559 1.26927 -0.122846
10 1.72615 0 0 -0.0132949 0.00454365 -1.35296
11 1.21114 0 0 -0.0138879 0.0108708 -1.50415
12 3.59919 -1.06012 0.0708866 1.59719 1.13552 0.0844615
13 1.66069 0 0 0.0206525 0.106434 -1.46129
14 1.167 0 0 0.140204 0.107864 -1.2636
15 2.18852 0.50104 0.0576572 1.58026 0.110062 0.0312635
16 1.29609 0 0 -0.0214547 0.0115007 -1.06235
17 1.62202 0.000715256 -0.000471115 -0.00756998 0.00444271 -1.4728
18 1.22241 0 0 -0.0469832 -0.00376777 -1.43289
19 1.76707 1.27612 0.0366421 1.57845 0.182304 -0.0214513
20 1.55588 0 0 -0.155245 -0.00355044 -0.857709
21 1.24274 0 0 -0.000505002 -0.00032284 -1.24825
22 0.784524 0 0 0.00822051 0.0140818 -0.754785
23 1.51548 -4.93231 -8.37604 -0.000932534 0 -2.53187
24 6.02794 0 0 0.560279 0.928325 0.243158
25 11.7344 0 0 0.00140269 0 1.66953
26 8.81167 0 0 1.60836 0 0
27 5.77884 0 0 1.0776 0 0
28 2.23249 0 0 0.530758 0 0
29 11.4725 0 0 1.60845 0.0702973 0.00918169
30 0.615813 0.994372 -0.809162 -2.72226 0.463503 0.286233
31 2.24752 0 0 -0.083597 0.0959307 0.272288
32 1.11936 0 0 -0.401236 0.450129 0.842933
33 3.71349 0.102639 0.102192 -1.41386 1.26431 0.0816941
34 1.72615 0 0 0.000698344 0.000241646 1.34896
35 1.21112 0 0 0.0115403 0.0133365 1.31081
36 3.5992 1.06012 0.0708885 -1.68043 1.04215 -0.112109
37 1.66069 0 0 0.00620709 0.00200642 1.47997
38 1.16699 0 0 -0.0701392 0.164234 1.21657
39 2.18853 -0.50104 0.0576591 -1.57605 0.0011778 -0.0469344
40 1.29609 0 0 -0.0326375 -0.0616158 1.17811
41 1.62201 -0.000713348 -0.000469208 -0.00508035 -0.00330948 1.42626
42 1.2224 0 0 0.0247019 -0.0856984 1.42308
43 1.76707 -1.27612 0.0366421 -1.56655 0.103701 0.0275536
44 1.55587 0 0 0.103891 -0.075653 0.975564
45 1.24273 0 0 -0.00469943 -0.0380689 1.28397
46 0.784531 0 0 -0.0127427 -0.0577753 1.00048
47 0 0 0 0 0 0
48 -0.60574 -20.66 -14.2274 -0.688417 -0.401028 -0.843771
49 -3.51925 -23.1863 -13.241 2.56852 -0.37403 -1.05738
50 -3.51843 -26.2345 -9.3631 -0.29391 -0.825677 0.915552
51 -0.49446 -2.33627 -0.838784 0 0 0
time 14
0 -1.03742 -5.9503 -7.2488 -0.167545 0.833071 -0.675456
1 11.7344 0 0 -0.00140275 0 -1.606
2 8.81138 -0.000448227 -0.000112534 0.88593 0 0.000157613
3 5.77839 0.000286102 0 0.593573 0 0.000110653
4 2.23164 -0.000329971 -0.00036335 0.292357 0 0
5 11.4725 0 0 0.0701436 -1.03816 0.721681
6 0.615219 -0.99309 -0.810699 2.92227 0.454999 -0.331411
7 2.24752 0 0 0.0643998 0.0920015 -0.24525
8 1.11936 0 0 0.0124088 0.0391456 -1.16006
9 3.71348 -0.102641 0.102192 1.44559 1.26927 -0.122845
10 1.72615 0 0 -0.0132949 0.00454367 -1.35296
11 1.21114 0 0 -0.0138879 0.0108708 -1.50415
12 3.59919 -1.06012 0.0708885 1.59719 1.13552 0.0844622
13 1.66069 0 0 0.0206526 0.106434 -1.46129
14 1.167 0 0 0.140204 0.107864 -1.2636
15 2.18852 0.501039 0.0576591 1.58026 0.110062 0.0312638
16 1.29609 0 0 -0.0214548 0.0115008 -1.06235
17 1.62202 0.000714302 -0.000471115 -0.00757002 0.00444251 -1.4728
18 1.22241 0 0 -0.0469828 -0.00376779 -1.43289
19 1.76707 1.27612 0.0366421 1.57845 0.182304 -0.0214509
20 1.55588 0 0 -0.155245 -0.00355032 -0.857709
21 1.24273 0 0 -0.000505123 -0.000322928 -1.24825
22 0.784523 0 0 0.0082204 0.0140819 -0.754785
23 1.27039 -4.69337 -8.29603 -0.000932534 0 -2.53187
24 6.02794 0 0 0.621952 0.988184 0.23806
25 11.7344 0 0 0.00140279 0 1.68703
26 8.81167 0 0 1.51776 0 0
27 5.77884 0 0 1.0169 0 0
28 2.23249 0 0 0.500859 0 0
29 11.4725 0 0 1.5176 0.075884 -0.0139923
30 0.615813 0.994372 -0.809164 -2.72226 0.463503 0.286233
31 2.24752 0 0 -0.083597 0.0959307 0.272288
32 1.11936 0 0 -0.401236 0.450129 0.842934
33 3.71349 0.102639 0.102192 -1.41386 1.26431 0.0816929
34 1.72615 0 0 0.000698475 0.000241713 1.34896
35 1.21112 0 0 0.0115403 0.0133366 1.31081
36 3.5992 1.06012 0.0708885 -1.68043 1.04215 -0.11211
37 1.66069 0 0 0.00620732 0.0020064 1.47997
38 1.16699 0 0 -0.0701392 0.164234 1.21657
39 2.18853 -0.50104 0.0576591 -1.57605 0.00117791 -0.0469345
40 1.29609 0 0 -0.0326375 -0.0616158 1.17811
41 1.62201 -0.000711441 -0.000470161 -0.00508028 -0.00330948 1.42626
42 1.2224 0 0 0.024702 -0.0856984 1.42308
43 1.76707 -1.27612 0.0366421 -1.56655 0.103701 0.0275534
44 1.55588 0 0 0.103891 -0.0756531 0.975564
45 1.24273 0 0 -0.00469952 -0.0380688 1.28397
46 0.784533 0 0 -0.0127428 -0.0577752 1.00048
47 0 0 0 0 0 0
48 -1.05403 -20.4206 -14.3464 -0.698531 -0.385475 -0.941632
49 -4.18519 -22.7185 -13.3412 2.55123 -0.377156 -1.13834
50 -4.39826 -25.718 -9.43132 -0.289024 -0.809631 0.824683
51 -0.49446 -2.33627 -0.838784 0 0 0
time 15
0 -0.46692 -5.9503 -7.2488 -0.136078 0.819389 -0.732767
1 11.7344 0 0 -0.00140285 0 -1.61319
2 8.81138 -0.000450134 -0.00011158 0.874143 0 0.000157595
3 5.77839 0.000286102 0 0.585676 0 0.000110449
4 2.23163 -0.000328064 -0.00036335 0.288467 0 0
5 11.4725 0 0 0 -1.05085 0.753777
6 0.615218 -0.993091 -0.810699 2.92227 0.454999 -0.331411
7 2.24752 0 0 0.0643998 0.0920016 -0.24525
8 1.11936 0 0 0.0124089 0.0391454 -1.16006
9 3.71348 -0.102641 0.10219 1.44559 1.26927 -0.122845
10 1.72615 0 0 -0.0132948 0.00454356 -1.35296
11 1.21114 0 0 -0.0138875 0.010871 -1.50415
12 3.59919 -1.06012 0.0708866 1.59719 1.13552 0.0844627
13 1.66069 0 0 0.0206524 0.106434 -1.46129
14 1.167 0 0 0.140204 0.107864 -1.2636
15 2.18852 0.501039 0.0576572 1.58026 0.110062 0.0312638
16 1.29609 0 0 -0.0214549 0.0115008 -1.06235
17 1.62202 0.000713825 -0.000470161 -0.00757001 0.00444253 -1.4728
18 1.22241 0 0 -0.046983 -0.003768 -1.43289
19 1.76707 1.27612 0.0366402 1.57845 0.182304 -0.0214508
20 1.55588 0 0 -0.155246 -0.00355039 -0.857709
21 1.24273 0 0 -0.000505161 -0.000323028 -1.24825
22 0.784523 0 0 0.00822048 0.0140818 -0.754785
23 1.01306 -4.44249 -8.21203 -0.000932534 0 -2.53187
24 6.02794 0 0 0.691991 1.03336 0.248775
25 11.7344 0 0 0.00140272 0 1.70232
26 8.81167 0 0 1.42917 0 0
27 5.77884 0 0 0.957541 0 0
28 2.23249 0 0 0.471625 0 0
29 11.4725 0 0 1.42878 0.0754719 -0.0295882
30 0.615812 0.994372 -0.809164 -2.72226 0.463503 0.286233
31 2.24752 0 0 -0.083597 0.0959305 0.272288
32 1.11936 0 0 -0.401235 0.450129 0.842933
33 3.71349 0.10264 0.10219 -1.41386 1.26431 0.0816934
34 1.72615 0 0 0.000698293 0.000241773 1.34896
35 1.21112 0 0 0.0115403 0.0133366 1.31081
36 3.5992 1.06012 0.0708866 -1.68043 1.04215 -0.112109
37 1.66069 0 0 0.00620719 0.00200644 1.47997
38 1.16699 0 0 -0.0701393 0.164234 1.21657
39 2.18853 -0.50104 0.0576572 -1.57605 0.00117804 -0.0469347
40 1.29609 0 0 -0.0326375 -0.0616158 1.17811
41 1.62202 -0.000711441 -0.000470638 -0.0050802 -0.00330957 1.42626
42 1.22241 0 0 0.024702 -0.0856982 1.42308
43 1.76707 -1.27612 0.0366402 -1.56655 0.103701 0.0275535
44 1.55588 0 0 0.103891 -0.0756531 0.975564
45 1.24273 0 0 -0.00469961 -0.0380688 1.28397
46 0.784531 0 0 -0.0127428 -0.0577752 1.00048
47 0 0 0 0 0 0
48 -1.51087 -20.2866 -14.4058 -0.728155 -0.393677 -1.01279
49 -4.80044 -22.2964 -13.2946 2.52398 -0.390568 -1.21055
50 -5.18464 -25.184 -9.31418 -0.293081 -0.781167 0.745168
51 -0.49446 -2.33627 -0.838784 0 0 0
time 16
0 0.122958 -5.9503 -7.2488 -0.134373 0.808978 -0.812946
1 11.7344 0 0 -0.00140299 0 -1.60676
2 8.81138 -0.000452042 -0.00011301 0.872412 0 0.000157902
3 5.77839 0.000284195 0 0.584516 0 0.000110719
4 2.23163 -0.000331879 -0.000364304 0.287896 0 0
5 11.4725 0 0 -0.0616414 -1.07589 0.766418
6 0.615219 -0.993091 -0.810703 2.92227 0.454999 -0.331411
7 2.24752 0 0 0.0643998 0.0920016 -0.24525
8 1.11935 0 0 0.012409 0.0391454 -1.16006
9 3.71348 -0.102642 0.10219 1.44559 1.26927 -0.122845
10 1.72615 0 0 -0.0132948 0.00454352 -1.35296
11 1.21114 0 0 -0.0138877 0.0108709 -1.50415
12 3.59919 -1.06012 0.0708866 1.59719 1.13552 0.0844627
13 1.66069 0 0 0.0206524 0.106434 -1.46129
14 1.167 0 0 0.140204 0.107864 -1.2636
15 2.18852 0.501038 0.0576572 1.58026 0.110062 0.0312637
16 1.29609 0 0 -0.021455 0.0115008 -1.06235
17 1.62202 0.000713348 -0.000471115 -0.00757009 0.00444237 -1.4728
18 1.22241 0 0 -0.0469828 -0.00376788 -1.43289
19 1.76707 1.27612 0.0366402 1.57845 0.182304 -0.021451
20 1.55588 0 0 -0.155246 -0.00355044 -0.857709
21 1.24273 0 0 -0.000505209 -0.000323063 -1.24825
22 0.784523 0 0 0.00822036 0.0140818 -0.754785
23 0.746991 -4.1831 -8.12517 -0.000932534 0 -2.53187
24 6.02794 0 0 0.773239 1.06249 0.276314
25 11.7344 0 0 0.00140268 0 1.71433
26 8.81167 0 0 1.33638 0 0
27 5.77884 0 0 0.895375 0 0
28 2.23249 0 0 0.441006 0 0
29 11.4725 0 0 1.33576 0.0728598 -0.0301263
30 0.615813 0.994372 -0.809166 -2.72226 0.463503 0.286233
31 2.24752 0 0 -0.0835969 0.0959306 0.272288
32 1.11936 0 0 -0.401235 0.450129 0.842933
33 3.71349 0.102639 0.10219 -1.41386 1.26431 0.0816935
34 1.72615 0 0 0.000698358 0.000241663 1.34896
35 1.21112 0 0 0.0115404 0.0133367 1.31081
36 3.5992 1.06012 0.0708885 -1.68043 1.04215 -0.112109
37 1.66069 0 0 0.00620696 0.00200636 1.47997
38 1.16699 0 0 -0.0701391 0.164234 1.21657
39 2.18853 -0.50104 0.0576591 -1.57605 0.00117791 -0.0469345
40 1.29609 0 0 -0.0326374 -0.0616158 1.17811
41 1.62202 -0.000713348 -0.0004704 -0.00508025 -0.00330945 1.42626
42 1.22241 0 0 0.0247019 -0.0856986 1.42308
43 1.76707 -1.27612 0.0366402 -1.56655 0.103701 0.0275536
44 1.55588 0 0 0.103891 -0.0756531 0.975564
45 1.24273 0 0 -0.00469934 -0.0380688 1.28397
46 0.784533 0 0 -0.012743 -0.0577751 1.00048
47 0 0 0 0 0 0
48 -1.99346 -20.2412 -14.38 -0.779071 -0.416053 -1.07029
49 -5.39196 -21.94 -13.0917 2.47885 -0.421749 -1.27027
50 -5.8743 -24.6199 -8.97893 -0.311576 -0.73107 0.680302
51 -0.49446 -2.33627 -0.838784 0 0 0
time 17
0 0.724465 -5.9503 -7.2488 -0.159467 0.799845 -0.913898
1 11.7344 0 0 -0.00140292 0 -1.58355
2 8.81138 -0.000450134 -0.00011158 0.865873 0 0.000157103
3 5.77839 0.000286102 0 0.580135 0 0.000109989
4 2.23163 -0.000328064 -0.00036335 0.285738 0 0
5 11.4725 0 0 -0.117997 -1.10491 0.758086
6 0.615219 -0.993091 -0.810699 2.92227 0.454999 -0.33141
7 2.24752 0 0 0.0643998 0.0920016 -0.24525
8 1.11936 0 0 0.012409 0.0391455 -1.16006
9 3.71348 -0.102641 0.102192 1.44559 1.26927 -0.122845
10 1.72615 0 0 -0.013295 0.00454371 -1.35296
11 1.21114 0 0 -0.0138878 0.010871 -1.50415
12 3.59919 -1.06012 0.0708885 1.59719 1.13552 0.0844633
13 1.66069 0 0 0.0206524 0.106434 -1.46129
14 1.167 0 0 0.140204 0.107864 -1.2636
15 2.18852 0.501039 0.0576591 1.58026 0.110062 0.0312638
16 1.29609 0 0 -0.0214548 0.0115007 -1.06235
17 1.62201 0.000714779 -0.000471115 -0.00756993 0.00444259 -1.4728
18 1.22241 0 0 -0.0469831 -0.00376778 -1.43289
19 1.76707 1.27612 0.036644 1.57845 0.182304 -0.0214509
20 1.55588 0 0 -0.155245 -0.0035505 -0.857709
21 1.24273 0 0 -0.000505365 -0.000323102 -1.24825
22 0.784522 0 0 0.00822039 0.0140817 -0.754785
23 0.475675 -3.91858 -8.0366 -0.000932534 0 -2.53187
24 6.02795 0 0 0.860453 1.07675 0.315084
25 11.7344 0 0 0.00140268 0 1.72306
26 8.81167 0 0 1.23606 0 0
27 5.77884 0 0 0.828158 0 0
28 2.23249 0 0 0.407899 0 0
29 11.4725 0 0 1.23523 0.0688041 -0.022194
30 0.61581 0.994371 -0.809166 -2.72226 0.463503 0.286233
31 2.24752 0 0 -0.0835969 0.0959307 0.272288
32 1.11936 0 0 -0.401235 0.450129 0.842933
33 3.71348 0.102638 0.10219 -1.41386 1.26431 0.0816938
34 1.72615 0 0 0.000698584 0.000241755 1.34896
35 1.21112 0 0 0.0115402 0.0133366 1.31081
36 3.5992 1.06012 0.0708866 -1.68043 1.04215 -0.112109
37 1.66069 0 0 0.00620709 0.00200642 1.47997
38 1.16699 0 0 -0.0701392 0.164234 1.21657
39 2.18853 -0.50104 0.0576572 -1.57605 0.00117792 -0.0469345
40 1.29609 0 0 -0.0326374 -0.0616158 1.17811
41 1.62202 -0.000713348 -0.000470161 -0.00508027 -0.00330956 1.42626
42 1.22241 0 0 0.024702 -0.0856984 1.42308
43 1.76707 -1.27612 0.0366402 -1.56655 0.103701 0.0275536
44 1.55588 0 0 0.103891 -0.0756531 0.975564
45 1.24273 0 0 -0.00469942 -0.0380689 1.28397
46 0.784531 0 0 -0.0127428 -0.0577753 1.00048
47 0 0 0 0 0 0
48 -2.51569 -20.2956 -14.291 -0.849818 -0.44612 -1.11946
49 -5.97326 -21.6452 -12.7681 2.4158 -0.46406 -1.32198
50 -6.47379 -24.0506 -8.49109 -0.335768 -0.662582 0.617096
51 -0.49446 -2.33627 -0.838784 0 0 0
time 18
0 1.32985 -5.9503 -7.2488 -0.206141 0.78899 -1.03182
1 11.7344 0 0 -0.00140283 0 -1.54375
2 8.81138 -0.000450134 -0.000112534 0.852628 0 0.000158373
3 5.77839 0.000286102 0 0.571261 0 0.000110959
4 2.23163 -0.000328064 -0.00036335 0.281367 0 0
5 11.4725 0 0 -0.169621 -1.1367 0.735182
6 0.615217 -0.993092 -0.810699 2.92227 0.454999 -0.33141
7 2.24752 0 0 0.0643998 0.0920013 -0.24525
8 1.11935 0 0 0.0124089 0.0391454 -1.16006
9 3.71348 -0.10264 0.102192 1.44559 1.26927 -0.122846
10 1.72615 0 0 -0.0132948 0.0045436 -1.35296
11 1.21114 0 0 -0.0138878 0.010871 -1.50415
12 3.59919 -1.06012 0.0708885 1.59719 1.13552 0.084462
13 1.66068 0 0 0.0206524 0.106434 -1.46129
14 1.167 0 0 0.140204 0.107864 -1.2636
15 2.18852 0.50104 0.0576591 1.58026 0.110062 0.0312637
16 1.29609 0 0 -0.0214548 0.0115007 -1.06235
17 1.62202 0.000712872 -0.000472069 -0.00756988 0.00444232 -1.4728
18 1.22241 0 0 -0.0469829 -0.0037678 -1.43289
19 1.76707 1.27612 0.0366402 1.57845 0.182304 -0.0214511
20 1.55588 0 0 -0.155246 -0.00355052 -0.857709
21 1.24274 0 0 -0.000505413 -0.000323136 -1.24825
22 0.784524 0 0 0.00822037 0.0140817 -0.754785
23 0.202611 -3.65237 -7.94746 -0.000932534 0 -2.53187
24 6.02794 0 0 0.947704 1.07767 0.358777
25 11.7344 0 0 0.00140284 0 1.72745
26 8.81167 0 0 1.13364 0 0
27 5.77884 0 0 0.759536 0 0
28 2.23249 0 0 0.3741 0 0
29 11.4725 0 0 1.13268 0.067541 -0.00726036
30 0.615811 0.994372 -0.809164 -2.72226 0.463503 0.286233
31 2.24752 0 0 -0.083597 0.0959306 0.272288
32 1.11936 0 0 -0.401235 0.450129 0.842933
33 3.71349 0.102639 0.102192 -1.41386 1.26431 0.0816939
34 1.72615 0 0 0.000698491 0.000241734 1.34896
35 1.21112 0 0 0.0115403 0.0133366 1.31081
36 3.5992 1.06012 0.0708885 -1.68043 1.04215 -0.112109
37 1.66069 0 0 0.00620727 0.00200635 1.47997
38 1.16699 0 0 -0.0701393 0.164234 1.21657
39 2.18853 -0.50104 0.0576611 -1.57605 0.00117802 -0.0469347
40 1.29609 0 0 -0.0326375 -0.0616159 1.17811
41 1.62201 -0.000709534 -0.000470161 -0.00508036 -0.00330949 1.42626
42 1.2224 0 0 0.0247019 -0.0856985 1.42308
43 1.76707 -1.27612 0.0366421 -1.56655 0.103701 0.0275536
44 1.55587 0 0 0.103891 -0.0756531 0.975564
45 1.24273 0 0 -0.00469944 -0.0380689 1.28397
46 0.784533 0 0 -0.012743 -0.0577752 1.00048
47 0 0 0 0 0 0
48 -3.09363 -20.4246 -14.1422 -0.933815 -0.480551 -1.1586
49 -6.5515 -21.4051 -12.3598 2.34035 -0.512976 -1.36325
50 -6.98966 -23.5007 -7.91621 -0.363332 -0.583023 0.556481
51 -0.49446 -2.33627 -0.838784 0 0 0
time 19
0 1.93136 -5.9503 -7.2488 -0.267138 0.773722 -1.16014
1 11.7344 0 0 -0.00140286 0 -1.48888
2 8.81138 -0.000450134 -0.000112534 0.829738 0 0.000157638
3 5.77839 0.000286102 0 0.555925 0 0.000110185
4 2.23163 -0.000329971 -0.000364304 0.273814 0 0
5 11.4725 0 0 -0.216843 -1.16941 0.703112
6 0.615219 -0.993093 -0.810699 2.92227 0.454999 -0.33141
7 2.24752 0 0 0.0643999 0.0920015 -0.24525
8 1.11936 0 0 0.0124089 0.0391452 -1.16006
9 3.71348 -0.102642 0.10219 1.44559 1.26927 -0.122846
10 1.72615 0 0 -0.0132951 0.00454355 -1.35296
11 1.21113 0 0 -0.0138876 0.0108707 -1.50415
12 3.59919 -1.06012 0.0708885 1.59719 1.13552 0.0844627
13 1.66068 0 0 0.0206525 0.106434 -1.46129
14 1.167 0 0 0.140204 0.107864 -1.2636
15 2.18853 0.501039 0.0576591 1.58026 0.110062 0.0312637
16 1.29609 0 0 -0.0214551 0.0115007 -1.06235
17 1.62202 0.000714779 -0.000470161 -0.00757009 0.00444229 -1.4728
18 1.22241 0 0 -0.0469827 -0.0037679 -1.43289
19 1.76707 1.27612 0.0366421 1.57845 0.182304 -0.0214509
20 1.55587 0 0 -0.155245 -0.00355031 -0.857709
21 1.24274 0 0 -0.00050535 -0.000323275 -1.24825
22 0.784523 0 0 0.00822036 0.0140817 -0.754785
23 -0.0687043 -3.38786 -7.85889 -0.000932534 0 -2.53187
24 6.02794 0 0 1.02844 1.06793 0.401138
25 11.7344 0 0 0.00140268 0 1.72694
26 8.81167 0 0 1.03424 0 0
27 5.77884 0 0 0.692943 0 0
28 2.23249 0 0 0.3413 0 0
29 11.4725 0 0 1.0334 0.0708558 0.0123133
30 0.615813 0.994372 -0.809166 -2.72226 0.463503 0.286233
31 2.24752 0 0 -0.083597 0.0959307 0.272288
32 1.11936 0 0 -0.401235 0.450129 0.842933
33 3.71349 0.102639 0.102192 -1.41386 1.26431 0.0816935
34 1.72615 0 0 0.000698584 0.000241707 1.34896
35 1.21112 0 0 0.0115404 0.0133367 1.31081
36 3.5992 1.06012 0.0708885 -1.68043 1.04215 -0.112109
37 1.66069 0 0 0.00620721 0.00200637 1.47997
38 1.16699 0 0 -0.0701393 0.164234 1.21657
39 2.18853 -0.50104 0.0576591 -1.57605 0.00117793 -0.0469346
40 1.29609 0 0 -0.0326374 -0.0616157 1.17811
41 1.62201 -0.000713348 -0.000471115 -0.00508027 -0.00330948 1.42626
42 1.22241 0 0 0.024702 -0.0856985 1.42308
43 1.76707 -1.27612 0.0366402 -1.56655 0.103701 0.0275536
44 1.55587 0 0 0.103891 -0.0756531 0.975564
45 1.24273 0 0 -0.00469964 -0.0380689 1.28397
46 0.784533 0 0 -0.0127429 -0.0577752 1.00048
47 0 0 0 0 0 0
48 -3.71925 -20.5985 -13.9458 -1.02422 -0.515701 -1.18723
49 -7.12042 -21.2117 -11.9084 2.25813 -0.563575 -1.39292
50 -7.42846 -22.995 -7.31983 -0.391944 -0.499714 0.499387
51 -0.49446 -2.33627 -0.838784 0 0 0
time 20
0 2.52123 -5.9503 -7.2488 -0.333944 0.752803 -1.29046
1 11.7344 0 0 -0.00140293 0 -1.42098
2 8.81138 -0.000450134 -0.000113487 0.792537 0 0.000157417
3 5.77839 0.000284195 0 0.531 0 0.000109723
4 2.23163 -0.000328064 -0.000364304 0.261537 0 0
5 11.4725 0 0 -0.259199 -1.20076 0.66544
6 0.615221 -0.993091 -0.810701 2.92227 0.454999 -0.33141
7 2.24752 0 0 0.0643998 0.0920016 -0.24525
8 1.11936 0 0 0.012409 0.0391456 -1.16006
9 3.71348 -0.10264 0.10219 1.44559 1.26927 -0.122845
10 1.72615 0 0 -0.0132949 0.00454349 -1.35296
11 1.21113 0 0 -0.0138879 0.0108707 -1.50415
12 3.59919 -1.06012 0.0708866 1.59719 1.13552 0.0844625
13 1.66068 0 0 0.0206526 0.106433 -1.46129
14 1.167 0 0 0.140204 0.107864 -1.2636
15 2.18853 0.50104 0.0576591 1.58026 0.110062 0.0312636
16 1.29609 0 0 -0.0214549 0.0115007 -1.06235
17 1.62202 0.000715256 -0.000471115 -0.00756992 0.00444236 -1.4728
18 1.22241 0 0 -0.046983 -0.00376779 -1.43289
19 1.76707 1.27612 0.0366421 1.57845 0.182304 -0.0214511
20 1.55587 0 0 -0.155246 -0.00355034 -0.857709
21 1.24274 0 0 -0.000505279 -0.000322966 -1.24825
22 0.784523 0 0 0.00822037 0.0140816 -0.754785
23 -0.334774 -3.12846 -7.77203 -0.000932534 0 -2.53187
24 6.02794 0 0 1.09744 1.05134 0.438019
25 11.7344 0 0 0.0014026 0 1.72104
26 8.81167 0 0 0.942368 0 0
27 5.77884 0 0 0.631386 0 0
28 2.23249 0 0 0.310981 0 0
29 11.4725 0 0 0.942128 0.0776557 0.0341939
30 0.615814 0.994371 -0.809164 -2.72226 0.463503 0.286233
31 2.24752 0 0 -0.0835969 0.0959307 0.272288
32 1.11936 0 0 -0.401236 0.450129 0.842934
33 3.71348 0.10264 0.102192 -1.41386 1.26431 0.0816936
34 1.72615 0 0 0.000698337 0.000241828 1.34896
35 1.21112 0 0 0.0115404 0.0133366 1.31081
36 3.5992 1.06012 0.0708885 -1.68043 1.04215 -0.112109
37 1.66069 0 0 0.00620724 0.00200636 1.47997
38 1.16699 0 0 -0.0701392 0.164234 1.21657
39 2.18853 -0.50104 0.0576591 -1.57605 0.00117804 -0.0469348
40 1.29609 0 0 -0.0326374 -0.0616156 1.17811
41 1.62201 -0.000711441 -0.000471115 -0.00508027 -0.00330957 1.42626
42 1.2224 0 0 0.024702 -0.0856984 1.42308
43 1.76707 -1.27612 0.0366421 -1.56655 0.103701 0.0275535
44 1.55587 0 0 0.103891 -0.0756531 0.975564
45 1.24273 0 0 -0.0046995 -0.0380689 1.28397
46 0.784531 0 0 -0.0127429 -0.0577752 1.00048
47 0 0 0 0 0 0
48 -4.35935 -20.7884 -13.7287 -1.11347 -0.548006 -1.20673
49 -7.66038 -21.0593 -11.4648 2.17559 -0.610899 -1.41194
50 -7.79675 -22.5579 -6.7675 -0.419278 -0.419975 0.446744
51 -0.49446 -2.33627 -0.838784 0 0 0
time 21
0 3.09173 -5.9503 -7.2488 -0.397925 0.727349 -1.41364
1 11.7344 0 0 -0.00140293 0 -1.34336
2 8.81138 -0.000450134 -0.000112534 0.735 0 0.000157794
3 5.77839 0.000286102 0 0.49245 0 0.000109639
4 2.23163 -0.000328064 -0.000364304 0.24255 0 0
5 11.4725 0 0 -0.294751 -1.22809 0.624019
6 0.615219 -0.993092 -0.810701 2.92227 0.454999 -0.33141
7 2.24752 0 0 0.0643998 0.0920015 -0.24525
8 1.11935 0 0 0.0124089 0.0391455 -1.16006
9 3.71348 -0.102641 0.10219 1.44559 1.26927 -0.122846
10 1.72615 0 0 -0.0132949 0.00454361 -1.35296
11 1.21114 0 0 -0.0138877 0.0108709 -1.50415
12 3.59919 -1.06012 0.0708866 1.59719 1.13552 0.0844631
13 1.66069 0 0 0.0206527 0.106434 -1.46129
14 1.167 0 0 0.140204 0.107864 -1.2636
15 2.18852 0.501039 0.0576591 1.58026 0.110062 0.0312636
16 1.29609 0 0 -0.0214549 0.0115007 -1.06235
17 1.62202 0.000714302 -0.000471115 -0.00756985 0.00444251 -1.4728
18 1.22241 0 0 -0.0469831 -0.00376774 -1.43289
19 1.76707 1.27612 0.0366402 1.57845 0.182304 -0.0214512
20 1.55588 0 0 -0.155246 -0.00355043 -0.857709
21 1.24274 0 0 -0.000505327 -0.000323001 -1.24825
22 0.784523 0 0 0.00822044 0.0140816 -0.754785
23 -0.592102 -2.87758 -7.68803 -0.000932534 0 -2.53187
24 6.02794 0 0 1.15169 1.03256 0.468118
25 11.7344 0 0 0.00140257 0 1.70927
26 8.81167 0 0 0.861706 0 0
27 5.77884 0 0 0.577343 0 0
28 2.23249 0 0 0.284363 0 0
29 11.4725 0 0 0.862771 0.0842641 0.0567344
30 0.615813 0.994371 -0.809166 -2.72226 0.463503 0.286233
31 2.24752 0 0 -0.0835969 0.0959309 0.272288
32 1.11936 0 0 -0.401236 0.450129 0.842933
33 3.71349 0.102638 0.102192 -1.41386 1.26431 0.0816934
34 1.72615 0 0 0.000698511 0.000241711 1.34896
35 1.21112 0 0 0.0115403 0.0133365 1.31081
36 3.5992 1.06012 0.0708866 -1.68043 1.04215 -0.112109
37 1.66069 0 0 0.00620717 0.00200642 1.47997
38 1.16699 0 0 -0.0701393 0.164234 1.21657
39 2.18853 -0.50104 0.0576591 -1.57605 0.00117793 -0.0469346
40 1.29609 0 0 -0.0326375 -0.0616158 1.17811
41 1.62201 -0.000715256 -0.000470161 -0.0050805 -0.00330956 1.42626
42 1.22241 0 0 0.024702 -0.0856985 1.42308
43 1.76707 -1.27612 0.0366402 -1.56655 0.103701 0.0275536
44 1.55588 0 0 0.103891 -0.0756531 0.975564
45 1.24273 0 0 -0.00469949 -0.0380688 1.28397
46 0.784531 0 0 -0.0127429 -0.0577752 1.00048
47 0 0 0 0 0 0
48 -4.96018 -20.9724 -13.5357 -1.1929 -0.574507 -1.22062
49 -8.14151 -20.9473 -11.0916 2.10071 -0.650497 -1.42395
50 -8.10107 -22.2144 -6.32476 -0.443009 -0.351126 0.399481
51 -0.49446 -2.33627 -0.838784 0 0 0
time 22
0 3.63509 -5.9503 -7.2488 -0.452012 0.700838 -1.52155
1 11.7344 0 0 -0.00140292 0 -1.26057
2 8.81138 -0.000450134 -0.000112534 0.652046 0 0.00015726
3 5.77839 0.000286102 0 0.436871 0 0.000108855
4 2.23163 -0.000328064 -0.000365257 0.215175 0 0
5 11.4725 0 0 -0.319472 -1.24843 0.578932
6 0.615219 -0.993091 -0.810699 2.92227 0.454999 -0.331411
7 2.24752 0 0 0.0643998 0.0920015 -0.24525
8 1.11935 0 0 0.0124089 0.0391453 -1.16006
9 3.71348 -0.102642 0.102192 1.44559 1.26927 -0.122846
10 1.72614 0 0 -0.013295 0.0045437 -1.35296
11 1.21114 0 0 -0.0138877 0.0108707 -1.50415
12 3.59919 -1.06012 0.0708885 1.59719 1.13552 0.0844623
13 1.66069 0 0 0.0206524 0.106434 -1.46129
14 1.167 0 0 0.140204 0.107864 -1.2636
15 2.18853 0.501041 0.0576591 1.58026 0.110062 0.0312637
16 1.29609 0 0 -0.0214549 0.0115008 -1.06235
17 1.62202 0.000712872 -0.000469208 -0.00757021 0.0044425 -1.4728
18 1.22241 0 0 -0.046983 -0.00376816 -1.43289
19 1.76707 1.27612 0.0366421 1.57845 0.182304 -0.021451
20 1.55588 0 0 -0.155246 -0.00355038 -0.857709
21 1.24274 0 0 -0.00050531 -0.000323025 -1.24825
22 0.784522 0 0 0.00822032 0.0140818 -0.754785
23 -0.837189 -2.63864 -7.60802 -0.000932534 0 -2.53187
24 6.02794 0 0 1.19007 1.01687 0.492298
25 11.7344 0 0 0.00140256 0 1.69148
26 8.81167 0 0 0.795505 0 0
27 5.77884 0 0 0.532988 0 0
28 2.23249 0 0 0.262517 0 0
29 11.4725 0 0 0.798543 0.0852 0.0790426
30 0.615814 0.994371 -0.809164 -2.72226 0.463503 0.286233
31 2.24752 0 0 -0.0835971 0.0959305 0.272288
32 1.11936 0 0 -0.401235 0.450129 0.842934
33 3.71349 0.102638 0.102192 -1.41386 1.26431 0.0816938
34 1.72615 0 0 0.000698411 0.000241682 1.34896
35 1.21112 0 0 0.0115404 0.0133365 1.31081
36 3.5992 1.06012 0.0708885 -1.68043 1.04215 -0.112109
37 1.66069 0 0 0.00620717 0.00200638 1.47997
38 1.16699 0 0 -0.0701394 0.164234 1.21657
39 2.18853 -0.50104 0.0576591 -1.57605 0.00117804 -0.0469347
40 1.29609 0 0 -0.0326375 -0.0616159 1.17811
41 1.62201 -0.000711441 -0.000471115 -0.00508026 -0.00330942 1.42626
42 1.22241 0 0 0.0247018 -0.0856984 1.42308
43 1.76707 -1.27612 0.0366421 -1.56655 0.103701 0.0275535
44 1.55588 0 0 0.103891 -0.0756531 0.975564
45 1.24273 0 0 -0.00469953 -0.038069 1.28397
46 0.784531 0 0 -0.0127429 -0.0577751 1.00048
47 0 0 0 0 0 0
48 -5.4559 -21.1387 -13.4272 -1.25284 -0.593176 -1.23423
49 -8.52835 -20.8814 -10.8603 2.04323 -0.678827 -1.43515
50 -8.34798 -21.9889 -6.05715 -0.460813 -0.300487 0.358528
51 -0.49446 -2.33627 -0.838784 0 0 0
time 23
0 4.14356 -5.9503 -7.2488 -0.495217 0.675995 -1.61024
1 11.7344 0 0 -0.00140291 0 -1.17751
2 8.81138 -0.000453949 -0.00011158 0.539337 0 0.00015804
3 5.77839 0.000282288 0 0.361356 0 0.000108723
4 2.23163 -0.000331879 -0.00036335 0.177981 0 0
5 11.4725 0 0 -0.331566 -1.25926 0.529487
6 0.615219 -0.993092 -0.810698 2.92227 0.454999 -0.33141
7 2.24752 0 0 0.0643998 0.0920016 -0.24525
8 1.11936 0 0 0.0124089 0.0391455 -1.16006
9 3.71348 -0.102642 0.102192 1.44559 1.26927 -0.122846
10 1.72615 0 0 -0.0132948 0.00454356 -1.35296
11 1.21114 0 0 -0.0138878 0.0108709 -1.50415
12 3.59919 -1.06012 0.0708885 1.59719 1.13552 0.0844622
13 1.66069 0 0 0.0206525 0.106434 -1.46129
14 1.167 0 0 0.140204 0.107864 -1.2636
15 2.18852 0.501038 0.0576591 1.58026 0.110062 0.0312637
16 1.29609 0 0 -0.021455 0.0115007 -1.06235
17 1.62202 0.000713825 -0.000471115 -0.00756999 0.00444262 -1.4728
18 1.22241 0 0 -0.0469829 -0.00376784 -1.43289
19 1.76707 1.27612 0.0366421 1.57845 0.182304 -0.0214509
20 1.55588 0 0 -0.155246 -0.0035504 -0.857709
21 1.24274 0 0 -0.000505237 -0.000322973 -1.24825
22 0.784523 0 0 0.00822029 0.0140817 -0.754785
23 -1.06654 -2.41504 -7.53315 -0.000932534 0 -2.53187
24 6.02794 0 0 1.21578 1.00435 0.515389
25 11.7344 0 0 0.00140259 0 1.66648
26 8.81167 0 0 0.742569 0 0
27 5.77884 0 0 0.497521 0 0
28 2.23249 0 0 0.245048 0 0
29 11.4725 0 0 0.747763 0.0770606 0.100127
30 0.615813 0.994371 -0.809164 -2.72226 0.463503 0.286233
31 2.24752 0 0 -0.083597 0.0959306 0.272288
32 1.11936 0 0 -0.401236 0.450129 0.842933
33 3.71349 0.102637 0.102192 -1.41386 1.26431 0.0816944
34 1.72615 0 0 0.000698541 0.000241749 1.34896
35 1.21112 0 0 0.0115402 0.0133365 1.31081
36 3.5992 1.06012 0.0708885 -1.68043 1.04215 -0.112109
37 1.66069 0 0 0.00620713 0.00200655 1.47997
38 1.16699 0 0 -0.0701393 0.164234 1.21657
39 2.18853 -0.50104 0.0576611 -1.57605 0.00117811 -0.0469346
40 1.29609 0 0 -0.0326376 -0.0616159 1.17811
41 1.62202 -0.000713348 -0.000471115 -0.00508017 -0.00330946 1.42626
42 1.22241 0 0 0.024702 -0.0856985 1.42308
43 1.76707 -1.27612 0.0366421 -1.56655 0.103701 0.0275537
44 1.55588 0 0 0.103891 -0.0756531 0.975564
45 1.24273 0 0 -0.00469948 -0.038069 1.28397
46 0.784533 0 0 -0.0127429 -0.0577751 1.00048
47 0 0 0 0 0 0
48 -5.79332 -21.3046 -13.4132 -1.29111 -0.603957 -1.25031
49 -8.78405 -20.88 -10.773 2.00591 -0.695672 -1.44912
50 -8.51642 -21.8978 -5.95412 -0.471626 -0.268736 0.323912
51 -0.49446 -2.33627 -0.838784 0 0 0
time 24
0 4.60939 -5.9503 -7.2488 -0.530199 0.653235 -1.68146
1 11.7344 0 0 -0.00140284 0 -1.09964
2 8.81138 -0.000450134 -0.000112534 0.406344 0 0.000157795
3 5.77839 0.000286102 0 0.272251 0 0.000107731
4 2.23163 -0.000328064 -0.000364304 0.134093 0 0
5 11.4725 0 0 -0.334742 -1.26187 0.47961
6 0.615221 -0.993092 -0.810699 2.92227 0.454999 -0.33141
7 2.24752 0 0 0.0643998 0.0920016 -0.24525
8 1.11936 0 0 0.012409 0.0391455 -1.16006
9 3.71348 -0.102642 0.102192 1.44559 1.26927 -0.122846
10 1.72615 0 0 -0.0132949 0.0045435 -1.35296
11 1.21114 0 0 -0.0138876 0.0108709 -1.50415
12 3.59919 -1.06012 0.0708885 1.59719 1.13552 0.0844625
13 1.66069 0 0 0.0206527 0.106433 -1.46129
14 1.167 0 0 0.140204 0.107864 -1.2636
15 2.18853 0.501038 0.0576591 1.58026 0.110062 0.0312637
16 1.29609 0 0 -0.0214551 0.0115006 -1.06235
17 1.62202 0.000715733 -0.000471115 -0.00756983 0.0044424 -1.4728
18 1.22241 0 0 -0.0469828 -0.00376771 -1.43289
19 1.76707 1.27612 0.0366421 1.57845 0.182304 -0.0214509
20 1.55588 0 0 -0.155246 -0.00355042 -0.857709
21 1.24273 0 0 -0.000505157 -0.000323136 -1.24825
22 0.784523 0 0 0.00822046 0.0140817 -0.754785
23 -1.27666 -2.21019 -7.46456 -0.000932534 0 -2.53187
24 6.02794 0 0 1.23368 0.992987 0.539313
25 11.7344 0 0 0.00140269 0 1.63815
26 8.81167 0 0 0.699769 0 0
27 5.77884 0 0 0.468845 0 0
28 2.23249 0 0 0.230924 0 0
29 11.4725 0 0 0.706496 0.0624021 0.117535
30 0.615813 0.994371 -0.809164 -2.72226 0.463503 0.286233
31 2.24752 0 0 -0.0835971 0.0959308 0.272288
32 1.11936 0 0 -0.401235 0.450129 0.842933
33 3.71349 0.102638 0.102192 -1.41386 1.26431 0.0816941
34 1.72615 0 0 0.000698409 0.000241822 1.34896
35 1.21112 0 0 0.0115402 0.0133365 1.31081
36 3.5992 1.06012 0.0708904 -1.68043 1.04215 -0.112109
37 1.66069 0 0 0.00620726 0.0020063 1.47997
38 1.16699 0 0 -0.0701392 0.164234 1.21657
39 2.18853 -0.501041 0.0576591 -1.57605 0.001178 -0.0469347
40 1.29609 0 0 -0.0326375 -0.0616158 1.17811
41 1.62201 -0.000713348 -0.000470161 -0.00508014 -0.00330942 1.42626
42 1.22241 0 0 0.0247019 -0.0856983 1.42308
43 1.76707 -1.27612 0.0366421 -1.56655 0.103701 0.0275536
44 1.55587 0 0 0.103891 -0.075653 0.975564
45 1.24273 0 0 -0.00469953 -0.0380689 1.28397
46 0.784533 0 0 -0.0127429 -0.0577753 1.00048
47 0 0 0 0 0 0
48 -5.98854 -21.4706 -13.4401 -1.31406 -0.609089 -1.26767
49 -8.92095 -20.9275 -10.7566 1.98305 -0.704413 -1.46483
50 -8.60467 -21.9026 -5.93182 -0.476982 -0.249888 0.294848
51 -0.49446 -2.33627 -0.838784 0 0 0
time 25
0 5.02482 -5.9503 -7.2488 -0.557436 0.633684 -1.73712
1 11.7344 0 0 -0.00140293 0 -1.03304
2 8.81138 -0.000452042 -0.000110626 0.28271 0 0.000158002
3 5.77839 0.000284195 0 0.189416 0 0.000107193
4 2.23163 -0.000329971 -0.00036335 0.0932942 0 0
5 11.4725 0 0 -0.331303 -1.25889 0.435181
6 0.61522 -0.993092 -0.810701 2.92227 0.454999 -0.331411
7 2.24752 0 0 0.0643999 0.0920016 -0.24525
8 1.11936 0 0 0.0124091 0.0391454 -1.16006
9 3.71348 -0.102642 0.10219 1.44559 1.26927 -0.122846
10 1.72615 0 0 -0.0132949 0.00454349 -1.35296
11 1.21114 0 0 -0.0138875 0.0108709 -1.50415
12 3.59919 -1.06012 0.0708866 1.59719 1.13552 0.0844622
13 1.66069 0 0 0.0206525 0.106434 -1.46129
14 1.167 0 0 0.140204 0.107864 -1.2636
15 2.18852 0.50104 0.0576572 1.58026 0.110062 0.0312635
16 1.29609 0 0 -0.021455 0.0115008 -1.06235
17 1.62202 0.000714779 -0.000471115 -0.00757004 0.00444245 -1.4728
18 1.22241 0 0 -0.0469829 -0.0037678 -1.43289
19 1.76707 1.27612 0.0366402 1.57845 0.182304 -0.0214513
20 1.55588 0 0 -0.155246 -0.00355031 -0.857709
21 1.24274 0 0 -0.000505196 -0.00032298 -1.24825
22 0.784523 0 0 0.00822043 0.0140818 -0.754785
23 -1.46404 -2.02751 -7.40339 -0.000932534 0 -2.53187
24 6.02794 0 0 1.24627 0.983494 0.562027
25 11.7344 0 0 0.00140267 0 1.61155
26 8.81167 0 0 0.667632 0 0
27 5.77884 0 0 0.447313 0 0
28 2.23249 0 0 0.220318 0 0
29 11.4725 0 0 0.6748 0.044305 0.12981
30 0.615813 0.994372 -0.809166 -2.72226 0.463503 0.286233
31 2.24752 0 0 -0.0835968 0.0959306 0.272288
32 1.11936 0 0 -0.401235 0.450129 0.842933
33 3.71348 0.102639 0.102192 -1.41386 1.26431 0.0816937
34 1.72615 0 0 0.000698547 0.000241709 1.34896
35 1.21112 0 0 0.0115404 0.0133365 1.31081
36 3.5992 1.06012 0.0708885 -1.68043 1.04215 -0.112109
37 1.66069 0 0 0.00620723 0.00200643 1.47997
38 1.16699 0 0 -0.0701393 0.164234 1.21657
39 2.18853 -0.50104 0.0576591 -1.57605 0.00117792 -0.0469346
40 1.29609 0 0 -0.0326374 -0.0616158 1.17811
41 1.62201 -0.000713348 -0.000469208 -0.00508019 -0.00330934 1.42626
42 1.22241 0 0 0.0247019 -0.0856985 1.42308
43 1.76707 -1.27612 0.0366421 -1.56655 0.103701 0.0275536
44 1.55588 0 0 0.103891 -0.075653 0.975564
45 1.24273 0 0 -0.00469963 -0.0380689 1.28397
46 0.784533 0 0 -0.0127429 -0.0577753 1.00048
47 0 0 0 0 0 0
48 -6.08203 -21.6055 -13.4759 -1.32459 -0.610426 -1.2858
49 -8.97913 -20.9817 -10.7717 1.97227 -0.707411 -1.482
50 -8.6483 -21.9465 -5.94576 -0.478459 -0.241273 0.271046
51 -0.49446 -2.33627 -0.838784 0 0 0
time 26
0 5.38211 -5.9503 -7.2488 -0.577465 0.61825 -1.77902
1 11.7344 0 0 -0.00140283 0 -0.983706
2 8.81138 -0.000450134 -0.000110626 0.19924 0 0.000157716
3 5.77839 0.000286102 0 0.133491 0 0.000106584
4 2.23163 -0.000328064 -0.00036335 0.0657491 0 0
5 11.4725 0 0 -0.323225 -1.25297 0.401872
6 0.615217 -0.993092 -0.810698 2.92227 0.454999 -0.33141
7 2.24752 0 0 0.0643998 0.0920016 -0.24525
8 1.11936 0 0 0.012409 0.0391456 -1.16006
9 3.71348 -0.102642 0.102192 1.44559 1.26927 -0.122846
10 1.72615 0 0 -0.0132949 0.00454374 -1.35296
11 1.21114 0 0 -0.0138879 0.0108709 -1.50415
12 3.59919 -1.06012 0.0708885 1.59719 1.13552 0.0844621
13 1.66069 0 0 0.0206525 0.106434 -1.46129
14 1.167 0 0 0.140204 0.107864 -1.2636
15 2.18852 0.50104 0.0576611 1.58026 0.110062 0.0312635
16 1.29609 0 0 -0.0214548 0.0115006 -1.06235
17 1.62202 0.000714779 -0.000471115 -0.00756999 0.00444253 -1.4728
18 1.22241 0 0 -0.046983 -0.00376776 -1.43289
19 1.76707 1.27612 0.0366421 1.57845 0.182304 -0.0214512
20 1.55588 0 0 -0.155245 -0.00355033 -0.857709
21 1.24273 0 0 -0.000505196 -0.00032298 -1.24825
22 0.784523 0 0 0.0082203 0.0140817 -0.754785
23 -1.6252 -1.87039 -7.35078 -0.000932534 0 -2.53187
24 6.02794 0 0 1.25513 0.9769 0.580803
25 11.7344 0 0 0.00140271 0 1.59269
26 8.81167 0 0 0.646348 0 0
27 5.77884 0 0 0.433053 0 0
28 2.23249 0 0 0.213295 0 0
29 11.4725 0 0 0.65281 0.0261814 0.134755
30 0.615811 0.994371 -0.809166 -2.72226 0.463503 0.286233
31 2.24752 0 0 -0.0835967 0.0959307 0.272288
32 1.11936 0 0 -0.401236 0.450129 0.842933
33 3.71348 0.102639 0.10219 -1.41386 1.26431 0.0816934
34 1.72615 0 0 0.000698273 0.0002417 1.34896
35 1.21112 0 0 0.0115403 0.0133365 1.31081
36 3.5992 1.06012 0.0708885 -1.68043 1.04215 -0.112109
37 1.66069 0 0 0.00620722 0.00200639 1.47997
38 1.16699 0 0 -0.0701394 0.164234 1.21657
39 2.18853 -0.501041 0.0576591 -1.57605 0.00117787 -0.0469346
40 1.29609 0 0 -0.0326374 -0.0616158 1.17811
41 1.62201 -0.000713348 -0.000470161 -0.00508025 -0.00330959 1.42626
42 1.22241 0 0 0.024702 -0.0856984 1.42308
43 1.76707 -1.27612 0.0366402 -1.56655 0.103701 0.0275535
44 1.55587 0 0 0.103891 -0.0756529 0.975564
45 1.24273 0 0 -0.00469963 -0.0380689 1.28397
46 0.784531 0 0 -0.0127429 -0.0577752 1.00048
47 0 0 0 0 0 0
48 -6.11988 -21.6754 -13.4846 -1.32586 -0.609611 -1.3037
49 -9.00154 -20.9992 -10.7765 1.97072 -0.706814 -1.49962
50 -8.68284 -21.9724 -5.95148 -0.477635 -0.240216 0.252219
51 -0.49446 -2.33627 -0.838784 0 0 0
time 27
0 5.67349 -5.9503 -7.2488 -0.590834 0.607605 -1.80761
1 11.7344 0 0 -0.00140274 0 -0.952697
2 8.81138 -0.000448227 -0.000110626 0.158694 0 0.000157651
3 5.77839 0.000286102 0 0.106325 0 0.000106394
4 2.23163 -0.000328064 -0.000364304 0.052369 0 0
5 11.4725 0 0 -0.311138 -1.24583 0.378396
6 0.615219 -0.993088 -0.810699 2.92227 0.454999 -0.33141
7 2.24752 0 0 0.0644 0.0920014 -0.24525
8 1.11936 0 0 0.012409 0.0391455 -1.16006
9 3.71348 -0.102638 0.10219 1.44559 1.26927 -0.122846
10 1.72614 0 0 -0.0132949 0.00454347 -1.35296
11 1.21114 0 0 -0.0138875 0.0108707 -1.50415
12 3.59919 -1.06012 0.0708885 1.59719 1.13552 0.0844623
13 1.66069 0 0 0.0206524 0.106434 -1.46129
14 1.167 0 0 0.140204 0.107864 -1.2636
15 2.18852 0.501041 0.0576611 1.58026 0.110062 0.0312635
16 1.29609 0 0 -0.0214549 0.0115007 -1.06235
17 1.62202 0.000713825 -0.000473022 -0.00756996 0.00444224 -1.4728
18 1.22241 0 0 -0.0469829 -0.0037677 -1.43289
19 1.76707 1.27612 0.0366421 1.57845 0.182304 -0.0214509
20 1.55588 0 0 -0.155245 -0.00355036 -0.857709
21 1.24274 0 0 -0.000505275 -0.000323074 -1.24825
22 0.784523 0 0 0.00822036 0.0140817 -0.754785
23 -1.75663 -1.74225 -7.30787 -0.000932534 0 -2.53187
24 6.02794 0 0 1.26098 0.972897 0.595747
25 11.7344 0 0 0.00140266 0 1.58123
26 8.81167 0 0 0.633701 0 0
27 5.77884 0 0 0.42458 0 0
28 2.23249 0 0 0.209121 0 0
29 11.4725 0 0 0.638795 0.00890954 0.134518
30 0.615812 0.994372 -0.809164 -2.72226 0.463503 0.286233
31 2.24752 0 0 -0.0835968 0.0959308 0.272288
32 1.11936 0 0 -0.401236 0.450129 0.842933
33 3.71349 0.102637 0.102192 -1.41386 1.26431 0.0816931
34 1.72615 0 0 0.0006985 0.000241698 1.34896
35 1.21112 0 0 0.0115403 0.0133366 1.31081
36 3.5992 1.06012 0.0708885 -1.68043 1.04215 -0.112109
37 1.66069 0 0 0.00620708 0.00200641 1.47997
38 1.16699 0 0 -0.0701393 0.164234 1.21657
39 2.18853 -0.50104 0.0576611 -1.57605 0.0011781 -0.0469348
40 1.29609 0 0 -0.0326376 -0.0616158 1.17811
41 1.62202 -0.000711441 -0.000471115 -0.00508022 -0.00330955 1.42626
42 1.22241 0 0 0.0247019 -0.0856985 1.42308
43 1.76707 -1.27612 0.0366421 -1.56655 0.103701 0.0275535
44 1.55588 0 0 0.103891 -0.0756529 0.975564
45 1.24273 0 0 -0.00469944 -0.0380688 1.28397
46 0.784531 0 0 -0.0127429 -0.0577752 1.00048
47 0 0 0 0 0 0
48 -6.11423 -21.6918 -13.4679 -1.32117 -0.608159 -1.32015
49 -8.99541 -20.9823 -10.7677 1.97531 -0.704641 -1.51637
50 -8.70639 -21.9712 -5.94405 -0.476085 -0.244046 0.238078
51 -0.49446 -2.33627 -0.838784 0 0 0
time 28
0 5.89123 -5.9503 -7.2488 -0.599338 0.60083 -1.82498
1 11.7344 0 0 -0.00140288 0 -0.933286
2 8.81138 -0.000450134 -0.000112534 0.138911 0 0.000158092
3 5.77839 0.000286102 0 0.0930701 0 0.000106527
4 2.23163 -0.000328064 -0.00036335 0.0458405 0 0
5 11.4725 0 0 -0.295123 -1.23865 0.357221
6 0.615217 -0.993092 -0.810699 2.92227 0.454998 -0.33141
7 2.24752 0 0 0.0643999 0.0920014 -0.24525
8 1.11936 0 0 0.0124088 0.0391454 -1.16006
9 3.71348 -0.102642 0.10219 1.44559 1.26927 -0.122846
10 1.72615 0 0 -0.0132949 0.00454368 -1.35296
11 1.21114 0 0 -0.0138878 0.0108708 -1.50415
12 3.59919 -1.06012 0.0708885 1.59719 1.13552 0.0844627
13 1.66069 0 0 0.0206524 0.106434 -1.46129
14 1.167 0 0 0.140204 0.107864 -1.2636
15 2.18852 0.501038 0.0576572 1.58026 0.110062 0.0312637
16 1.29609 0 0 -0.021455 0.0115007 -1.06235
17 1.62202 0.000713825 -0.000471115 -0.00756996 0.00444228 -1.4728
18 1.22241 0 0 -0.0469829 -0.00376778 -1.43289
19 1.76707 1.27612 0.0366402 1.57845 0.182304 -0.0214511
20 1.55588 0 0 -0.155246 -0.00355047 -0.857709
21 1.24273 0 0 -0.000505185 -0.000323046 -1.24825
22 0.784522 0 0 0.00822037 0.0140817 -0.754785
23 -1.85484 -1.64651 -7.27581 -0.000932534 0 -2.53187
24 6.02795 0 0 1.26429 0.970326 0.608211
25 11.7344 0 0 0.00140255 0 1.57287
26 8.81167 0 0 0.626583 0 0
27 5.77884 0 0 0.419811 0 0
28 2.23249 0 0 0.206773 0 0
29 11.4725 0 0 0.630193 -0.0075508 0.134084
30 0.615814 0.994372 -0.809166 -2.72226 0.463503 0.286233
31 2.24752 0 0 -0.0835969 0.0959305 0.272288
32 1.11936 0 0 -0.401235 0.450129 0.842933
33 3.71349 0.10264 0.10219 -1.41386 1.26431 0.0816932
34 1.72615 0 0 0.000698448 0.000241728 1.34896
35 1.21112 0 0 0.0115402 0.0133366 1.31081
36 3.5992 1.06012 0.0708885 -1.68043 1.04215 -0.112109
37 1.66069 0 0 0.00620711 0.00200651 1.47997
38 1.16699 0 0 -0.0701393 0.164234 1.21657
39 2.18853 -0.50104 0.0576591 -1.57605 0.00117797 -0.0469347
40 1.29609 0 0 -0.0326374 -0.0616158 1.17811
41 1.62201 -0.000713348 -0.000470161 -0.00508024 -0.00330935 1.42626
42 1.22241 0 0 0.024702 -0.0856984 1.42308
43 1.76707 -1.27612 0.0366402 -1.56655 0.103701 0.0275537
44 1.55587 0 0 0.103891 -0.075653 0.975564
45 1.24273 0 0 -0.00469958 -0.0380689 1.28397
46 0.784531 0 0 -0.0127429 -0.0577752 1.00048
47 0 0 0 0 0 0
48 -6.06596 -21.7015 -13.4532 -1.3138 -0.607547 -1.33394
49 -8.95566 -20.9699 -10.7681 1.98294 -0.702858 -1.53087
50 -8.70377 -21.9714 -5.94488 -0.475388 -0.250091 0.228334
51 -0.49446 -2.33627 -0.838784 0 0 0
time 29
0 6.02755 -5.9503 -7.2488 -0.604322 0.596912 -1.83362
1 11.7344 0 0 -0.00140283 0 -0.92237
2 8.81138 -0.000450134 -0.000112534 0.129314 0 0.000157028
3 5.77839 0.000284195 0 0.0866405 0 0.000105733
4 2.23163 -0.000328064 -0.000364304 0.0426737 0 0
5 11.4725 0 0 -0.275978 -1.23317 0.335496
6 0.615217 -0.993092 -0.810699 2.92227 0.454999 -0.33141
7 2.24752 0 0 0.0643998 0.0920016 -0.245251
8 1.11936 0 0 0.012409 0.0391455 -1.16006
9 3.71348 -0.102642 0.10219 1.44559 1.26927 -0.122846
10 1.72615 0 0 -0.0132948 0.00454365 -1.35296
11 1.21114 0 0 -0.0138877 0.0108709 -1.50415
12 3.59919 -1.06012 0.0708866 1.59719 1.13552 0.0844625
13 1.66069 0 0 0.0206526 0.106434 -1.46129
14 1.167 0 0 0.140204 0.107864 -1.2636
15 2.18852 0.501038 0.0576591 1.58026 0.110062 0.0312636
16 1.29609 0 0 -0.0214548 0.0115007 -1.06235
17 1.62202 0.000714302 -0.000473022 -0.00756997 0.00444251 -1.4728
18 1.22241 0 0 -0.0469831 -0.00376789 -1.43289
19 1.76707 1.27612 0.0366402 1.57845 0.182304 -0.0214511
20 1.55587 0 0 -0.155245 -0.00355034 -0.857709
21 1.24274 0 0 -0.000505292 -0.000323049 -1.24825
22 0.784523 0 0 0.00822041 0.0140818 -0.754785
23 -1.91633 -1.58656 -7.25574 -0.000932534 0 -2.53187
24 6.02794 0 0 1.26599 0.96845 0.617252
25 11.7344 0 0 0.00140283 0 1.56668
26 8.81167 0 0 0.623264 0 0
27 5.77884 0 0 0.417587 0 0
28 2.23249 0 0 0.205677 0 0
29 11.4725 0 0 0.625669 -0.0209934 0.13583
30 0.615814 0.994371 -0.809164 -2.72226 0.463503 0.286233
31 2.24752 0 0 -0.083597 0.0959307 0.272288
32 1.11936 0 0 -0.401236 0.450129 0.842933
33 3.71349 0.102638 0.102192 -1.41386 1.26431 0.0816938
34 1.72615 0 0 0.000698515 0.000241669 1.34896
35 1.21112 0 0 0.0115403 0.0133367 1.31081
36 3.5992 1.06012 0.0708885 -1.68043 1.04215 -0.112109
37 1.66069 0 0 0.0062071 0.00200655 1.47997
38 1.16699 0 0 -0.0701393 0.164234 1.21657
39 2.18853 -0.501041 0.0576591 -1.57605 0.0011782 -0.0469346
40 1.29609 0 0 -0.0326376 -0.0616158 1.17811
41 1.62201 -0.000711441 -0.000469208 -0.00508021 -0.0033095 1.42626
42 1.2224 0 0 0.0247019 -0.0856984 1.42308
43 1.76707 -1.27612 0.0366421 -1.56655 0.103701 0.0275536
44 1.55588 0 0 0.103891 -0.075653 0.975564
45 1.24273 0 0 -0.00469936 -0.0380689 1.28397
46 0.784531 0 0 -0.0127429 -0.0577752 1.00048
47 0 0 0 0 0 0
48 -6.00764 -21.7212 -13.4419 -1.307 -0.609259 -1.34389
49 -8.90843 -20.971 -10.7739 1.99054 -0.703444 -1.54186
50 -8.69069 -21.972 -5.94901 -0.47712 -0.255677 0.222699
51 -0.49446 -2.33627 -0.838784 0 0 0
time 30
0 6.07472 -5.9503 -7.2488 -0.60755 0.594158 -1.83688
1 11.7344 0 0 -0.00140276 0 -0.914687
2 8.81138 -0.000450134 -0.00011158 0.116364 0 0.000157777
3 5.77839 0.000284195 0 0.0779639 0 0.00010624
4 2.23163 -0.000329971 -0.00036335 0.0384 0 0
5 11.4725 0 0 -0.254129 -1.23107 0.308825
6 0.615221 -0.993093 -0.810699 2.92227 0.454999 -0.33141
7 2.24752 0 0 0.0643999 0.0920015 -0.24525
8 1.11936 0 0 0.0124091 0.0391454 -1.16006
9 3.71348 -0.102644 0.10219 1.44559 1.26927 -0.122845
10 1.72614 0 0 -0.0132949 0.00454368 -1.35296
11 1.21114 0 0 -0.0138878 0.0108707 -1.50415
12 3.5992 -1.06012 0.0708866 1.59719 1.13552 0.0844624
13 1.66069 0 0 0.0206524 0.106434 -1.46129
14 1.167 0 0 0.140204 0.107864 -1.2636
15 2.18853 0.501038 0.0576591 1.58026 0.110062 0.0312636
16 1.29609 0 0 -0.021455 0.0115008 -1.06235
17 1.62202 0.000713825 -0.000471115 -0.00757008 0.00444246 -1.4728
18 1.22241 0 0 -0.0469829 -0.00376813 -1.43289
19 1.76707 1.27612 0.0366402 1.57845 0.182304 -0.0214511
20 1.55588 0 0 -0.155246 -0.00355041 -0.857709
21 1.24274 0 0 -0.000505279 -0.000322966 -1.24825
22 0.784522 0 0 0.00822031 0.0140818 -0.754785
23 -1.93761 -1.56582 -7.2488 -0.000932534 0 -2.53187
24 6.02794 0 0 1.26685 0.966574 0.621782
25 11.7344 0 0 0.00140279 0 1.56182
26 8.81167 0 0 0.622 0 0
27 5.77884 0 0 0.41674 0 0
28 2.23249 0 0 0.20526 0 0
29 11.4725 0 0 0.623851 -0.0292451 0.142096
30 0.615812 0.994371 -0.809162 -2.72226 0.463503 0.286233
31 2.24752 0 0 -0.083597 0.0959307 0.272288
32 1.11936 0 0 -0.401235 0.450129 0.842933
33 3.71349 0.102638 0.102192 -1.41386 1.26431 0.0816935
34 1.72615 0 0 0.000698442 0.000241673 1.34896
35 1.21112 0 0 0.0115404 0.0133366 1.31081
36 3.5992 1.06011 0.0708885 -1.68043 1.04215 -0.112109
37 1.66069 0 0 0.00620719 0.00200648 1.47997
38 1.16699 0 0 -0.0701393 0.164234 1.21657
39 2.18853 -0.501041 0.0576611 -1.57605 0.00117794 -0.0469344
40 1.29609 0 0 -0.0326375 -0.0616157 1.17811
41 1.62201 -0.000713348 -0.000469208 -0.00508026 -0.0033096 1.42626
42 1.22241 0 0 0.024702 -0.0856982 1.42308
43 1.76707 -1.27612 0.0366421 -1.56655 0.103701 0.0275535
44 1.55588 0 0 0.103891 -0.0756531 0.975564
45 1.24273 0 0 -0.00469944 -0.0380688 1.28397
46 0.784533 0 0 -0.0127428 -0.0577752 1.00048
47 0 0 0 0 0 0
48 -5.97196 -21.7669 -13.4357 -1.30402 -0.614816 -1.34887
49 -8.87988 -20.9943 -10.782 1.99513 -0.708409 -1.54811
50 -8.68284 -21.9724 -5.95148 -0.482858 -0.258133 0.220885
51 -0.49446 -2.33627 -0.838784 0 0 0
end
