//Sequence File generated by the Wall Worm SMD Exporter PRO 1.99
//www.wallworm.com
version 1
nodes
0 "b_l_upperarm" -1
1 "b_l_forearm" 0
2 "b_l_twist3" 1
3 "b_l_twist2" 1
4 "b_l_twist1" 1
5 "b_l_hand" 1
6 "b_l_thumb001" 5
7 "b_l_thumb002" 6
8 "b_l_thumb003" 7
9 "b_l_middle001" 5
10 "b_l_middle002" 9
11 "b_l_middle003" 10
12 "b_l_index001" 5
13 "b_l_index002" 12
14 "b_l_index003" 13
15 "b_l_hand_ringsqueezer" 5
16 "b_l_ring001" 15
17 "b_l_ring002" 16
18 "b_l_ring003" 17
19 "b_l_hand_pinkysqueezer" 5
20 "b_l_pinky001" 19
21 "b_l_pinky002" 20
22 "b_l_pinky003" 21
23 "b_r_clav" -1
24 "b_r_upperarm" 23
25 "b_r_forearm" 24
26 "b_r_twist3" 25
27 "b_r_twist2" 25
28 "b_r_twist1" 25
29 "b_r_hand" 25
30 "b_r_thumb001" 29
31 "b_r_thumb002" 30
32 "b_r_thumb003" 31
33 "b_r_middle001" 29
34 "b_r_middle002" 33
35 "b_r_middle003" 34
36 "b_r_index001" 29
37 "b_r_index002" 36
38 "b_r_index003" 37
39 "b_r_hand_ringsqueezer" 29
40 "b_r_ring001" 39
41 "b_r_ring002" 40
42 "b_r_ring003" 41
43 "b_r_hand_pinkysqueezer" 29
44 "b_r_pinky001" 43
45 "b_r_pinky002" 44
46 "b_r_pinky003" 45
47 "b_zero" -1
48 "ctrl_l_hand" -1
49 "ctrl_r_hand" -1
50 "d_wepinbone" -1
51 "glock_materials" -1
end
skeleton
time 0
0 6.07472 -5.9503 -7.2488 -0.60755 0.594158 -1.83688
1 11.7344 0 0 -0.00140276 0 -0.914687
2 8.81138 -0.000450134 -0.00011158 0.116364 0 0.000157777
3 5.77839 0.000284195 0 0.0779639 0 0.00010624
4 2.23163 -0.000329971 -0.00036335 0.0384 0 0
5 11.4725 0 0 -0.254129 -1.23107 0.308825
6 0.615221 -0.993093 -0.810699 2.92227 0.454999 -0.33141
7 2.24752 0 0 0.0643999 0.0920015 -0.24525
8 1.11936 0 0 0.0124091 0.0391454 -1.16006
9 3.71348 -0.102644 0.10219 1.44559 1.26927 -0.122845
10 1.72614 0 0 -0.0132949 0.00454368 -1.35296
11 1.21114 0 0 -0.0138878 0.0108707 -1.50415
12 3.5992 -1.06012 0.0708866 1.59719 1.13552 0.0844624
13 1.66069 0 0 0.0206524 0.106434 -1.46129
14 1.167 0 0 0.140204 0.107864 -1.2636
15 2.18853 0.501038 0.0576591 1.58026 0.110062 0.0312636
16 1.29609 0 0 -0.021455 0.0115008 -1.06235
17 1.62202 0.000713825 -0.000471115 -0.00757008 0.00444246 -1.4728
18 1.22241 0 0 -0.0469829 -0.00376813 -1.43289
19 1.76707 1.27612 0.0366402 1.57845 0.182304 -0.0214511
20 1.55588 0 0 -0.155246 -0.00355041 -0.857709
21 1.24274 0 0 -0.000505279 -0.000322966 -1.24825
22 0.784522 0 0 0.00822031 0.0140818 -0.754785
23 -1.93761 -1.56582 -7.2488 -0.000932534 0 -2.53187
24 6.02794 0 0 1.26685 0.966574 0.621782
25 11.7344 0 0 0.00140279 0 1.56182
26 8.81167 0 0 0.622 0 0
27 5.77884 0 0 0.41674 0 0
28 2.23249 0 0 0.20526 0 0
29 11.4725 0 0 0.623851 -0.0292451 0.142096
30 0.615812 0.994371 -0.809162 -2.72226 0.463503 0.286233
31 2.24752 0 0 -0.083597 0.0959307 0.272288
32 1.11936 0 0 -0.401235 0.450129 0.842933
33 3.71349 0.102638 0.102192 -1.41386 1.26431 0.0816935
34 1.72615 0 0 0.000698442 0.000241673 1.34896
35 1.21112 0 0 0.0115404 0.0133366 1.31081
36 3.5992 1.06011 0.0708885 -1.68043 1.04215 -0.112109
37 1.66069 0 0 0.00620719 0.00200648 1.47997
38 1.16699 0 0 -0.0701393 0.164234 1.21657
39 2.18853 -0.501041 0.0576611 -1.57605 0.00117794 -0.0469344
40 1.29609 0 0 -0.0326375 -0.0616157 1.17811
41 1.62201 -0.000713348 -0.000469208 -0.00508026 -0.0033096 1.42626
42 1.22241 0 0 0.024702 -0.0856982 1.42308
43 1.76707 -1.27612 0.0366421 -1.56655 0.103701 0.0275535
44 1.55588 0 0 0.103891 -0.0756531 0.975564
45 1.24273 0 0 -0.00469944 -0.0380688 1.28397
46 0.784533 0 0 -0.0127428 -0.0577752 1.00048
47 0 0 0 0 0 0
48 -5.97196 -21.7669 -13.4357 -1.30402 -0.614816 -1.34887
49 -8.87988 -20.9943 -10.782 1.99513 -0.708409 -1.54811
50 -8.68284 -21.9724 -5.95148 -0.482858 -0.258133 0.220885
51 -0.49446 -2.33627 -0.838784 0 0 0
time 1
0 6.07472 -5.9503 -7.2488 -0.564429 0.704611 -1.7692
1 11.7344 0 0 -0.00140289 0 -1.3324
2 8.81138 -0.000450134 -0.00011158 0.780381 0 0.000157924
3 5.77839 0.000286102 0 0.522855 0 0.000110125
4 2.23163 -0.000328064 -0.000362396 0.257526 0 0
5 11.4725 0 0 0.446618 -1.21898 -0.141857
6 0.615218 -0.993093 -0.810699 2.92227 0.454999 -0.331411
7 2.24752 0 0 0.0643998 0.0920015 -0.24525
8 1.11936 0 0 0.0124089 0.0391455 -1.16006
9 3.71348 -0.102642 0.102192 1.44559 1.26927 -0.122846
10 1.72615 0 0 -0.013295 0.0045438 -1.35296
11 1.21114 0 0 -0.0138877 0.0108708 -1.50415
12 3.59919 -1.06012 0.0708885 1.59719 1.13552 0.0844627
13 1.66069 0 0 0.0206525 0.106434 -1.46129
14 1.167 0 0 0.140204 0.107864 -1.2636
15 2.18852 0.501038 0.0576591 1.58026 0.110062 0.0312636
16 1.29609 0 0 -0.0214548 0.0115008 -1.06235
17 1.62201 0.000713348 -0.000471115 -0.00756999 0.00444254 -1.4728
18 1.22241 0 0 -0.0469831 -0.00376813 -1.43289
19 1.76707 1.27612 0.0366411 1.57845 0.182304 -0.021451
20 1.55588 0 0 -0.155246 -0.00355035 -0.857709
21 1.24274 0 0 -0.000505158 -0.000322879 -1.24825
22 0.784523 0 0 0.00822043 0.0140818 -0.754785
23 -1.93761 -1.56582 -7.13366 -0.000932534 0 -2.53187
24 6.02795 0 0 1.12483 1.15467 0.410972
25 11.7344 0 0 0.00140275 0 1.98966
26 8.81167 0 0 0.64437 0 0
27 5.77884 0 0 0.431728 0 0
28 2.23249 0 0 0.212642 0 0
29 11.4725 0 0 0.634564 -0.133014 0.0848859
30 0.615814 0.994372 -0.809165 -2.72226 0.463503 0.286233
31 2.24752 0 0 -0.083597 0.0959306 0.272288
32 1.11936 0 0 -0.401235 0.450129 0.842933
33 3.71349 0.10264 0.10219 -1.41386 1.26431 0.0816941
34 1.72615 0 0 0.000698437 0.000241715 1.34896
35 1.21112 0 0 0.0115403 0.0133365 1.31081
36 3.5992 1.06012 0.0708876 -1.68043 1.04215 -0.112109
37 1.66069 0 0 0.00620727 0.00200644 1.47997
38 1.16699 0 0 -0.0701393 0.164234 1.21657
39 2.18853 -0.501039 0.0576591 -1.57605 0.00117792 -0.0469345
40 1.29609 0 0 -0.0326374 -0.0616157 1.17811
41 1.62201 -0.000712395 -0.000469208 -0.00508032 -0.0033094 1.42626
42 1.22241 0 0 0.0247018 -0.0856985 1.42308
43 1.76707 -1.27612 0.0366411 -1.56655 0.103701 0.0275538
44 1.55587 0 0 0.103891 -0.075653 0.975564
45 1.24273 0 0 -0.00469969 -0.038069 1.28397
46 0.784531 0 0 -0.0127429 -0.0577754 1.00048
47 0 0 0 0 0 0
48 -6.08973 -18.6689 -12.0611 -1.27037 -0.806151 -1.45695
49 -9.04213 -17.1877 -9.78405 2.09136 -0.889521 -1.70341
50 -9.17059 -17.2654 -4.85384 -0.682076 -0.276765 0.187672
51 -0.49446 -2.33627 -0.838784 0 0 0
time 2
0 6.07472 -5.9503 -7.2488 -0.665499 0.820432 -1.95215
1 11.7344 0 0 -0.00140287 0 -1.79263
2 8.81138 -0.000450134 -0.00011158 1.20675 0 0.000157807
3 5.77839 0.000284195 0 0.808522 0 0.000112943
4 2.23163 -0.000328064 -0.00036335 0.398227 0 0
5 11.4725 0 0 1.10409 -0.93187 -0.366409
6 0.615219 -0.993093 -0.810699 2.92227 0.454999 -0.331411
7 2.24752 0 0 0.0643999 0.0920015 -0.24525
8 1.11936 0 0 0.0124089 0.0391454 -1.16006
9 3.71348 -0.102642 0.102191 1.44559 1.26927 -0.122846
10 1.72615 0 0 -0.0132948 0.00454352 -1.35296
11 1.21114 0 0 -0.0138876 0.0108708 -1.50415
12 3.59919 -1.06012 0.0708885 1.59719 1.13552 0.0844625
13 1.66069 0 0 0.0206526 0.106434 -1.46129
14 1.167 0 0 0.140204 0.107864 -1.2636
15 2.18852 0.501039 0.0576591 1.58026 0.110062 0.0312635
16 1.29609 0 0 -0.021455 0.0115006 -1.06235
17 1.62202 0.000714064 -0.000471115 -0.00757 0.00444245 -1.4728
18 1.22241 0 0 -0.0469829 -0.00376779 -1.43289
19 1.76707 1.27612 0.0366411 1.57845 0.182304 -0.0214512
20 1.55588 0 0 -0.155246 -0.00355034 -0.857708
21 1.24273 0 0 -0.000505264 -0.000323139 -1.24825
22 0.784523 0 0 0.00822045 0.0140817 -0.754785
23 -1.93761 -1.56582 -6.84583 -0.000932534 0 -2.53187
24 6.02795 0 0 0.761214 1.33904 -0.183326
25 11.7344 0 0 0.00140268 0 2.59733
26 8.81167 0 0 0.730021 0 0
27 5.77884 0 0 0.489114 0 0
28 2.23249 0 0 0.240907 0 0
29 11.4725 0 0 0.726203 -0.238633 -0.0693229
30 0.615812 0.994373 -0.809165 -2.72226 0.463503 0.286233
31 2.24752 0 0 -0.083597 0.0959307 0.272288
32 1.11936 0 0 -0.401235 0.450129 0.842933
33 3.71349 0.10264 0.102192 -1.41386 1.26431 0.0816935
34 1.72615 0 0 0.000698451 0.00024178 1.34896
35 1.21112 0 0 0.0115403 0.0133366 1.31081
36 3.5992 1.06012 0.0708885 -1.68043 1.04215 -0.112109
37 1.66069 0 0 0.00620715 0.00200648 1.47997
38 1.16699 0 0 -0.0701394 0.164234 1.21657
39 2.18853 -0.50104 0.0576591 -1.57605 0.00117815 -0.0469346
40 1.29609 0 0 -0.0326375 -0.0616159 1.17811
41 1.62201 -0.000712872 -0.000471115 -0.00508025 -0.00330955 1.42626
42 1.22241 0 0 0.0247018 -0.0856985 1.42308
43 1.76707 -1.27612 0.0366411 -1.56655 0.103701 0.0275536
44 1.55588 0 0 0.103891 -0.0756531 0.975564
45 1.24273 0 0 -0.00469953 -0.0380688 1.28397
46 0.784531 0 0 -0.0127429 -0.0577755 1.00048
47 0 0 0 0 0 0
48 -6.31469 -13.1945 -9.27346 -1.12066 -1.07789 -1.72752
49 -9.13365 -10.7645 -7.7754 2.40721 -1.1217 -2.12086
50 -9.57395 -9.46808 -3.03676 -0.97744 -0.315833 0.126216
51 -0.49446 -2.33627 -0.838784 0 0 0
time 3
0 6.07472 -5.9503 -7.2488 -0.83472 1.02312 -2.07539
1 11.7344 0 0 -0.00140288 0 -2.01231
2 8.81138 -0.000450134 -0.000110626 1.2758 0 0.000158112
3 5.77839 0.000287056 0 0.854784 0 0.000113686
4 2.23163 -0.000329018 -0.000364304 0.421013 0 0
5 11.4725 0 0 1.20542 -0.782016 -0.267094
6 0.61522 -0.993092 -0.8107 2.92227 0.454999 -0.33141
7 2.24752 0 0 0.0643999 0.0920015 -0.24525
8 1.11936 0 0 0.012409 0.0391456 -1.16006
9 3.71348 -0.10264 0.102192 1.44559 1.26927 -0.122846
10 1.72615 0 0 -0.013295 0.00454337 -1.35296
11 1.21114 0 0 -0.0138876 0.0108709 -1.50415
12 3.59919 -1.06012 0.0708885 1.59719 1.13552 0.0844625
13 1.66069 0 0 0.0206526 0.106433 -1.46129
14 1.167 0 0 0.140204 0.107864 -1.2636
15 2.18853 0.50104 0.0576591 1.58026 0.110062 0.0312636
16 1.29609 0 0 -0.0214549 0.0115007 -1.06235
17 1.62202 0.000714302 -0.000472069 -0.00757 0.00444237 -1.4728
18 1.22241 0 0 -0.0469829 -0.00376785 -1.43289
19 1.76707 1.27612 0.0366411 1.57845 0.182304 -0.0214509
20 1.55588 0 0 -0.155246 -0.00355032 -0.857709
21 1.24273 0 0 -0.000505338 -0.000322935 -1.24825
22 0.784523 0 0 0.00822025 0.0140816 -0.754785
23 -1.93761 -1.56582 -6.47165 -0.000932534 0 -2.53187
24 6.02795 0 0 -0.0407267 1.24216 -0.777614
25 11.7344 0 0 0.00140264 0 2.77176
26 8.81167 0 0 0.61746 0 0
27 5.77884 0 0 0.413698 0 0
28 2.23249 0 0 0.203762 0 0
29 11.4725 0 0 0.614184 -0.491684 -0.151268
30 0.615812 0.994371 -0.809164 -2.72226 0.463503 0.286233
31 2.24752 0 0 -0.083597 0.0959307 0.272288
32 1.11936 0 0 -0.401235 0.450129 0.842934
33 3.71348 0.102639 0.102191 -1.41386 1.26431 0.0816943
34 1.72615 0 0 0.000698491 0.00024171 1.34896
35 1.21112 0 0 0.0115403 0.0133367 1.31081
36 3.5992 1.06012 0.0708866 -1.68043 1.04215 -0.112109
37 1.66069 0 0 0.00620712 0.00200639 1.47997
38 1.16699 0 0 -0.0701393 0.164234 1.21657
39 2.18853 -0.50104 0.0576582 -1.57605 0.00117809 -0.0469345
40 1.29609 0 0 -0.0326374 -0.0616159 1.17811
41 1.62201 -0.000712872 -0.000470161 -0.00508024 -0.00330948 1.42626
42 1.22241 0 0 0.0247019 -0.0856983 1.42308
43 1.76707 -1.27612 0.0366411 -1.56655 0.103701 0.0275534
44 1.55588 0 0 0.103891 -0.0756529 0.975564
45 1.24273 0 0 -0.00469953 -0.038069 1.28397
46 0.784531 0 0 -0.0127428 -0.0577751 1.00048
47 0 0 0 0 0 0
48 -4.91295 -11.4422 -9.07882 -1.0882 -1.01206 -1.76779
49 -7.74506 -9.07281 -7.51018 2.38852 -1.05444 -2.11647
50 -8.30308 -8.06564 -2.71397 -0.915516 -0.350099 0.0937893
51 -0.49446 -2.33627 -0.838784 0 0 0
time 4
0 6.07472 -5.9503 -7.2488 -2.12993 1.30183 -2.74342
1 11.7344 0 0 -0.0014028 0 -1.9858
2 8.81138 -0.000448227 -0.000110626 0.980582 0 0.000158135
3 5.77839 0.00028801 0 0.65699 0 0.00011154
4 2.23163 -0.000328064 -0.00036335 0.323592 0 0
5 11.4725 0 0 0.916577 -0.534658 -0.0363051
6 0.615219 -0.993093 -0.810699 2.92227 0.454999 -0.33141
7 2.24752 0 0 0.0643999 0.0920016 -0.24525
8 1.11936 0 0 0.0124089 0.0391455 -1.16006
9 3.71348 -0.102641 0.102192 1.44559 1.26927 -0.122845
10 1.72615 0 0 -0.0132949 0.00454353 -1.35296
11 1.21114 0 0 -0.0138878 0.0108708 -1.50415
12 3.59919 -1.06012 0.0708885 1.59719 1.13552 0.0844627
13 1.66069 0 0 0.0206525 0.106434 -1.46129
14 1.167 0 0 0.140204 0.107864 -1.2636
15 2.18852 0.50104 0.0576601 1.58026 0.110062 0.0312636
16 1.29609 0 0 -0.0214548 0.0115007 -1.06235
17 1.62202 0.000713825 -0.000471115 -0.00756985 0.00444251 -1.4728
18 1.22241 0 0 -0.0469831 -0.00376777 -1.43289
19 1.76707 1.27612 0.0366421 1.57845 0.182304 -0.0214509
20 1.55588 0 0 -0.155245 -0.00355041 -0.857709
21 1.24274 0 0 -0.000505134 -0.000322862 -1.24825
22 0.784523 0 0 0.00822037 0.0140817 -0.754785
23 -1.93761 -1.56582 -6.09748 -0.000932534 0 -2.53187
24 6.02795 0 0 0.0541091 0.814771 0.0146519
25 11.7344 0 0 0.00140259 0 2.22096
26 8.81167 0 0 0.973157 0 0
27 5.77884 0 0 0.652016 0 0
28 2.23249 0 0 0.321142 0 0
29 11.4725 0 0 1.06687 -0.834462 -0.655143
30 0.615813 0.994371 -0.809164 -2.72226 0.463503 0.286233
31 2.24752 0 0 -0.0835969 0.0959307 0.272288
32 1.11936 0 0 -0.401236 0.450129 0.842933
33 3.71349 0.102638 0.102192 -1.41386 1.26431 0.0816932
34 1.72615 0 0 0.000698433 0.000241804 1.34896
35 1.21112 0 0 0.0115403 0.0133365 1.31081
36 3.5992 1.06012 0.0708885 -1.68043 1.04215 -0.112109
37 1.66069 0 0 0.00620717 0.00200651 1.47997
38 1.16699 0 0 -0.0701393 0.164234 1.21657
39 2.18853 -0.50104 0.0576591 -1.57605 0.00117799 -0.0469345
40 1.29609 0 0 -0.0326374 -0.0616158 1.17811
41 1.62202 -0.000714302 -0.000470161 -0.00508032 -0.00330944 1.42626
42 1.22241 0 0 0.0247019 -0.0856984 1.42308
43 1.76707 -1.27612 0.0366421 -1.56655 0.103701 0.0275537
44 1.55588 0 0 0.103891 -0.0756531 0.975564
45 1.24273 0 0 -0.00469958 -0.0380689 1.28397
46 0.784532 0 0 -0.0127429 -0.0577752 1.00048
47 0 0 0 0 0 0
48 -1.41598 -15.1427 -11.737 -1.17366 -0.482293 -1.48573
49 -4.50816 -14.5449 -9.25175 2.09849 -0.556817 -1.67809
50 -4.82804 -16.2199 -4.62339 -0.345158 -0.371151 0.109482
51 -0.49446 -2.33627 -0.838784 0 0 0
time 5
0 6.07472 -5.9503 -7.2488 -2.30578 0.732276 -2.22925
1 11.7344 0 0 -0.00140285 0 -1.23594
2 8.81138 -0.000450134 -0.000112534 1.09013 0 0.000158579
3 5.77839 0.000286102 0 0.730387 0 0.000112692
4 2.23163 -0.000329018 -0.000364304 0.359743 0 0
5 11.4725 0 0 0.928325 -0.689835 0.411959
6 0.615219 -0.99309 -0.8107 2.92227 0.454999 -0.331411
7 2.24752 0 0 0.0643998 0.0920016 -0.24525
8 1.11936 0 0 0.012409 0.0391455 -1.16006
9 3.71348 -0.102642 0.102191 1.44559 1.26927 -0.122846
10 1.72615 0 0 -0.0132949 0.00454354 -1.35296
11 1.21114 0 0 -0.0138877 0.0108707 -1.50415
12 3.59919 -1.06012 0.0708885 1.59719 1.13552 0.0844623
13 1.66069 0 0 0.0206526 0.106434 -1.46129
14 1.167 0 0 0.140204 0.107864 -1.2636
15 2.18852 0.50104 0.0576591 1.58026 0.110062 0.0312636
16 1.29609 0 0 -0.0214549 0.0115005 -1.06235
17 1.62202 0.000713348 -0.000470161 -0.0075699 0.00444253 -1.4728
18 1.22241 0 0 -0.0469829 -0.00376784 -1.43289
19 1.76707 1.27612 0.0366411 1.57845 0.182304 -0.0214512
20 1.55587 0 0 -0.155246 -0.00355034 -0.857709
21 1.24273 0 0 -0.000505023 -0.000322965 -1.24825
22 0.784523 0 0 0.00822033 0.0140816 -0.754785
23 -1.93761 -1.56582 -5.80965 -0.000932534 0 -2.53187
24 6.02795 0 0 0.202951 0.232866 0.984332
25 11.7344 0 0 0.00140267 0 0.502626
26 8.81167 0 0 1.83099 0 0
27 5.77884 0 0 1.22677 0 0
28 2.23249 0 0 0.604228 0 0
29 11.4725 0 0 1.823 0.127422 -0.252631
30 0.615812 0.994372 -0.809165 -2.72226 0.463503 0.286233
31 2.24752 0 0 -0.0835969 0.0959307 0.272288
32 1.11936 0 0 -0.401235 0.450129 0.842934
33 3.71349 0.102639 0.102191 -1.41386 1.26431 0.081694
34 1.72615 0 0 0.00069851 0.000241806 1.34896
35 1.21112 0 0 0.0115403 0.0133366 1.31081
36 3.5992 1.06012 0.0708876 -1.68043 1.04215 -0.112109
37 1.66069 0 0 0.00620715 0.0020064 1.47997
38 1.16699 0 0 -0.0701393 0.164234 1.21657
39 2.18853 -0.50104 0.0576591 -1.57605 0.00117793 -0.0469346
40 1.29609 0 0 -0.0326374 -0.0616158 1.17811
41 1.62202 -0.000713348 -0.000469208 -0.00508031 -0.00330954 1.42626
42 1.22241 0 0 0.024702 -0.0856985 1.42308
43 1.76707 -1.27612 0.0366411 -1.56655 0.103701 0.0275535
44 1.55587 0 0 0.103891 -0.075653 0.975564
45 1.24273 0 0 -0.00469947 -0.0380688 1.28397
46 0.784531 0 0 -0.0127428 -0.0577752 1.00048
47 0 0 0 0 0 0
48 1.47797 -23.7665 -11.637 -1.03136 0.363878 -1.08398
49 -0.970637 -26.3405 -9.77317 2.0857 0.300389 -1.2653
50 0.321238 -30.769 -8.0271 0.582487 -0.387402 0.154204
51 -0.49446 -2.33627 -0.838784 0 0 0
time 6
0 6.07472 -5.9503 -7.2488 -2.45835 0.765668 -2.34314
1 11.7344 0 0 -0.00140296 0 -1.30979
2 8.81138 -0.000450134 -0.00011158 1.2018 0 0.000157999
3 5.77839 0.000286102 0 0.805205 0 0.000113003
4 2.23163 -0.000329018 -0.00036335 0.396593 0 0
5 11.4725 0 0 1.11304 -0.620683 0.192928
6 0.615221 -0.993093 -0.8107 2.92227 0.454999 -0.331411
7 2.24752 0 0 0.0643998 0.0920015 -0.245251
8 1.11935 0 0 0.012409 0.0391454 -1.16006
9 3.71348 -0.102642 0.102191 1.44559 1.26927 -0.122846
10 1.72615 0 0 -0.0132949 0.00454363 -1.35296
11 1.21114 0 0 -0.0138877 0.0108708 -1.50415
12 3.59919 -1.06012 0.0708876 1.59719 1.13552 0.0844621
13 1.66068 0 0 0.0206523 0.106434 -1.46129
14 1.167 0 0 0.140204 0.107864 -1.2636
15 2.18853 0.501038 0.0576582 1.58026 0.110062 0.0312637
16 1.29609 0 0 -0.0214549 0.0115006 -1.06235
17 1.62202 0.000715256 -0.000472069 -0.00756992 0.00444236 -1.4728
18 1.22241 0 0 -0.0469828 -0.00376803 -1.43289
19 1.76707 1.27612 0.0366411 1.57845 0.182304 -0.021451
20 1.55588 0 0 -0.155246 -0.00355033 -0.857709
21 1.24274 0 0 -0.000505239 -0.000322919 -1.24825
22 0.784523 0 0 0.00822036 0.0140817 -0.754785
23 -1.93761 -1.56582 -5.69451 -0.000932534 0 -2.53187
24 6.02794 0 0 -0.118444 0.189863 0.885672
25 11.7344 0 0 0.00140271 0 0.702474
26 8.81167 0 0 2.16575 0 0
27 5.77884 0 0 1.45105 0 0
28 2.23249 0 0 0.714697 0 0
29 11.4725 0 0 2.14987 -0.0394993 -0.290883
30 0.615812 0.994372 -0.809164 -2.72226 0.463503 0.286233
31 2.24752 0 0 -0.0835971 0.0959306 0.272288
32 1.11936 0 0 -0.401235 0.450129 0.842934
33 3.71348 0.102638 0.102192 -1.41386 1.26431 0.0816934
34 1.72615 0 0 0.000698483 0.000241819 1.34896
35 1.21112 0 0 0.0115401 0.0133367 1.31081
36 3.5992 1.06012 0.0708885 -1.68043 1.04215 -0.112109
37 1.66069 0 0 0.00620714 0.00200643 1.47997
38 1.16699 0 0 -0.0701392 0.164234 1.21657
39 2.18853 -0.50104 0.0576591 -1.57605 0.00117787 -0.0469345
40 1.29609 0 0 -0.0326375 -0.0616158 1.17811
41 1.62201 -0.000713348 -0.000470161 -0.00508016 -0.00330944 1.42626
42 1.22241 0 0 0.0247019 -0.0856984 1.42308
43 1.76707 -1.27612 0.0366421 -1.56655 0.103701 0.0275536
44 1.55588 0 0 0.103891 -0.075653 0.975564
45 1.24273 0 0 -0.00469935 -0.0380688 1.28397
46 0.784533 0 0 -0.012743 -0.0577752 1.00048
47 0 0 0 0 0 0
48 1.45511 -23.0108 -12.3882 -1.01935 0.242521 -1.04889
49 -1.04527 -25.4706 -10.4407 2.11956 0.183005 -1.22568
50 0.244213 -29.656 -8.17155 0.460208 -0.435401 0.234671
51 -0.49446 -2.33627 -0.838784 0 0 0
time 7
0 6.07472 -5.9503 -7.2488 -2.5226 0.811984 -2.40822
1 11.7344 0 0 -0.00140284 0 -1.35854
2 8.81138 -0.000450134 -0.00011158 1.24283 0 0.000158117
3 5.77839 0.000286102 0 0.832694 0 0.000113564
4 2.23163 -0.000329971 -0.00036335 0.410133 0 0
5 11.4725 0 0 1.18639 -0.556269 0.0516448
6 0.615219 -0.993093 -0.8107 2.92227 0.454999 -0.33141
7 2.24752 0 0 0.0643998 0.0920015 -0.24525
8 1.11936 0 0 0.0124089 0.0391455 -1.16006
9 3.71348 -0.102642 0.10219 1.44559 1.26927 -0.122845
10 1.72615 0 0 -0.0132949 0.00454357 -1.35296
11 1.21114 0 0 -0.0138877 0.0108708 -1.50415
12 3.59919 -1.06012 0.0708885 1.59719 1.13552 0.0844627
13 1.66069 0 0 0.0206525 0.106434 -1.46129
14 1.167 0 0 0.140204 0.107864 -1.2636
15 2.18852 0.501038 0.0576591 1.58026 0.110062 0.0312636
16 1.29609 0 0 -0.021455 0.0115007 -1.06235
17 1.62202 0.000713348 -0.000471115 -0.00756995 0.00444242 -1.4728
18 1.22241 0 0 -0.0469829 -0.00376791 -1.43289
19 1.76707 1.27612 0.0366411 1.57845 0.182304 -0.0214511
20 1.55588 0 0 -0.155246 -0.0035505 -0.857709
21 1.24273 0 0 -0.000505196 -0.00032298 -1.24825
22 0.784523 0 0 0.00822031 0.0140819 -0.754785
23 -1.93761 -1.56582 -5.93737 -0.000932534 0 -2.53187
24 6.02795 0 0 -0.0843487 0.228206 0.816194
25 11.7344 0 0 0.00140271 0 0.843409
26 8.81167 0 0 2.11355 0 0
27 5.77884 0 0 1.41608 0 0
28 2.23249 0 0 0.697472 0 0
29 11.4725 0 0 2.1094 -0.167281 -0.33631
30 0.615814 0.994372 -0.809165 -2.72226 0.463503 0.286233
31 2.24752 0 0 -0.0835969 0.0959307 0.272288
32 1.11936 0 0 -0.401236 0.450129 0.842933
33 3.71349 0.10264 0.102191 -1.41386 1.26431 0.0816937
34 1.72615 0 0 0.000698471 0.000241708 1.34896
35 1.21112 0 0 0.0115402 0.0133366 1.31081
36 3.5992 1.06012 0.0708885 -1.68043 1.04215 -0.112109
37 1.66069 0 0 0.00620714 0.00200645 1.47997
38 1.16699 0 0 -0.0701393 0.164234 1.21657
39 2.18853 -0.50104 0.0576591 -1.57605 0.00117791 -0.0469344
40 1.29609 0 0 -0.0326374 -0.0616158 1.17811
41 1.62201 -0.000711441 -0.000469685 -0.0050803 -0.00330942 1.42626
42 1.22241 0 0 0.0247019 -0.0856985 1.42308
43 1.76707 -1.27612 0.0366411 -1.56655 0.103701 0.0275538
44 1.55588 0 0 0.103891 -0.0756531 0.975564
45 1.24273 0 0 -0.00469948 -0.0380689 1.28397
46 0.784531 0 0 -0.0127428 -0.0577753 1.00048
47 0 0 0 0 0 0
48 1.44663 -22.4171 -13.0412 -1.00977 0.130273 -1.02612
49 -1.13233 -24.7486 -11.039 2.1487 0.0741269 -1.20095
50 0.0794266 -28.6781 -8.3151 0.342258 -0.473643 0.3075
51 -0.49446 -2.33627 -0.838784 0 0 0
time 8
0 6.07472 -5.9503 -7.2488 -2.57068 0.848355 -2.45811
1 11.7344 0 0 -0.00140289 0 -1.38527
2 8.81138 -0.000449181 -0.00011158 1.26747 0 0.000157622
3 5.77839 0.000287056 0 0.849204 0 0.000113304
4 2.23163 -0.000329018 -0.00036335 0.418264 0 0
5 11.4725 0 0 1.23425 -0.49025 -0.0692924
6 0.615217 -0.993091 -0.810699 2.92227 0.454999 -0.33141
7 2.24752 0 0 0.0643998 0.0920015 -0.24525
8 1.11936 0 0 0.0124088 0.0391454 -1.16006
9 3.71348 -0.102641 0.102191 1.44559 1.26927 -0.122845
10 1.72615 0 0 -0.0132949 0.0045435 -1.35296
11 1.21114 0 0 -0.0138876 0.0108708 -1.50415
12 3.59919 -1.06012 0.0708885 1.59719 1.13552 0.0844622
13 1.66069 0 0 0.0206525 0.106434 -1.46129
14 1.167 0 0 0.140204 0.107864 -1.2636
15 2.18852 0.501039 0.0576591 1.58026 0.110062 0.0312637
16 1.29609 0 0 -0.021455 0.0115007 -1.06235
17 1.62202 0.000714302 -0.000470638 -0.00756989 0.00444255 -1.4728
18 1.22241 0 0 -0.0469829 -0.00376786 -1.43289
19 1.76707 1.27612 0.0366421 1.57845 0.182304 -0.0214511
20 1.55588 0 0 -0.155246 -0.00355033 -0.857709
21 1.24273 0 0 -0.000505197 -0.000323054 -1.24825
22 0.784523 0 0 0.00822033 0.0140817 -0.754785
23 -1.93761 -1.56582 -6.47165 -0.000932534 0 -2.53187
24 6.02795 0 0 0.00151206 0.281713 0.757719
25 11.7344 0 0 0.00140269 0 0.957215
26 8.81167 0 0 2.0052 0 0
27 5.77884 0 0 1.34349 0 0
28 2.23249 0 0 0.661717 0 0
29 11.4725 0 0 2.01133 -0.261152 -0.347606
30 0.615814 0.994372 -0.809164 -2.72226 0.463503 0.286233
31 2.24751 0 0 -0.0835969 0.0959307 0.272288
32 1.11936 0 0 -0.401235 0.450129 0.842933
33 3.71349 0.102638 0.102192 -1.41386 1.26431 0.0816932
34 1.72615 0 0 0.00069842 0.000241837 1.34896
35 1.21112 0 0 0.0115403 0.0133366 1.31081
36 3.5992 1.06012 0.0708885 -1.68043 1.04215 -0.112109
37 1.66069 0 0 0.00620715 0.00200648 1.47997
38 1.16699 0 0 -0.0701394 0.164234 1.21657
39 2.18853 -0.501042 0.0576591 -1.57605 0.00117796 -0.0469345
40 1.29609 0 0 -0.0326375 -0.0616158 1.17811
41 1.62201 -0.000713348 -0.000470638 -0.00508026 -0.00330951 1.42626
42 1.22241 0 0 0.024702 -0.0856984 1.42308
43 1.76707 -1.27612 0.0366402 -1.56655 0.103701 0.0275536
44 1.55587 0 0 0.103891 -0.075653 0.975564
45 1.24273 0 0 -0.00469948 -0.0380689 1.28397
46 0.784533 0 0 -0.0127429 -0.0577751 1.00048
47 0 0 0 0 0 0
48 1.4202 -21.9775 -13.6107 -1.00293 0.0261846 -1.01371
49 -1.25375 -24.1682 -11.5745 2.17351 -0.0271934 -1.18848
50 -0.173121 -27.8353 -8.45776 0.228636 -0.502127 0.372693
51 -0.49446 -2.33627 -0.838784 0 0 0
time 9
0 6.07472 -5.9503 -7.2488 -2.57463 0.888108 -2.48051
1 11.7344 0 0 -0.00140295 0 -1.39185
2 8.81138 -0.000451088 -0.00011158 1.26609 0 0.000158287
3 5.77839 0.000286102 0 0.848278 0 0.000113726
4 2.23163 -0.000329018 -0.000364304 0.417809 0 0
5 11.4725 0 0 1.2478 -0.444422 -0.170835
6 0.615219 -0.993091 -0.810699 2.92227 0.454999 -0.33141
7 2.24752 0 0 0.0643998 0.0920016 -0.245251
8 1.11936 0 0 0.012409 0.0391455 -1.16006
9 3.71348 -0.102641 0.102192 1.44559 1.26927 -0.122846
10 1.72615 0 0 -0.013295 0.00454359 -1.35296
11 1.21114 0 0 -0.0138876 0.0108708 -1.50415
12 3.59919 -1.06012 0.0708885 1.59719 1.13552 0.0844622
13 1.66069 0 0 0.0206525 0.106434 -1.46129
14 1.167 0 0 0.140204 0.107864 -1.2636
15 2.18852 0.50104 0.0576591 1.58026 0.110062 0.0312635
16 1.29609 0 0 -0.021455 0.0115007 -1.06235
17 1.62201 0.000712395 -0.000470638 -0.00756997 0.00444244 -1.4728
18 1.22241 0 0 -0.0469829 -0.00376776 -1.43289
19 1.76707 1.27612 0.0366421 1.57845 0.182304 -0.0214509
20 1.55588 0 0 -0.155246 -0.00355034 -0.857709
21 1.24273 0 0 -0.000505265 -0.000322993 -1.24825
22 0.784522 0 0 0.00822036 0.0140817 -0.754785
23 -1.93761 -1.56582 -7.00594 -0.000932534 0 -2.53187
24 6.02794 0 0 0.0791197 0.335538 0.713448
25 11.7344 0 0 0.00140268 0 1.04167
26 8.81167 0 0 1.90257 0 0
27 5.77884 0 0 1.27472 0 0
28 2.23249 0 0 0.627849 0 0
29 11.4725 0 0 1.916 -0.338806 -0.331351
30 0.615814 0.994373 -0.809166 -2.72226 0.463503 0.286233
31 2.24752 0 0 -0.0835969 0.0959307 0.272288
32 1.11936 0 0 -0.401236 0.450129 0.842933
33 3.71349 0.102639 0.10219 -1.41386 1.26431 0.081693
34 1.72615 0 0 0.000698354 0.000241705 1.34896
35 1.21112 0 0 0.0115403 0.0133367 1.31081
36 3.5992 1.06012 0.0708866 -1.68043 1.04215 -0.112109
37 1.66069 0 0 0.00620726 0.00200647 1.47997
38 1.16699 0 0 -0.0701394 0.164234 1.21657
39 2.18853 -0.50104 0.0576591 -1.57605 0.0011778 -0.0469345
40 1.29609 0 0 -0.0326375 -0.0616157 1.17811
41 1.62201 -0.000711441 -0.000471115 -0.00508025 -0.00330949 1.42626
42 1.22241 0 0 0.0247019 -0.0856983 1.42308
43 1.76707 -1.27612 0.0366402 -1.56655 0.103701 0.0275537
44 1.55587 0 0 0.103891 -0.0756531 0.975564
45 1.24273 0 0 -0.0046996 -0.038069 1.28397
46 0.784534 0 0 -0.0127429 -0.0577751 1.00048
47 0 0 0 0 0 0
48 1.34787 -21.692 -14.1127 -0.999408 -0.0708658 -1.00977
49 -1.42915 -23.7289 -12.0549 2.19397 -0.122142 -1.18599
50 -0.513429 -27.1276 -8.59952 0.119343 -0.520855 0.430249
51 -0.49446 -2.33627 -0.838784 0 0 0
time 10
0 6.07472 -5.9503 -7.2488 -2.48038 0.94997 -2.44745
1 11.7344 0 0 -0.00140283 0 -1.37776
2 8.81138 -0.000448227 -0.00011158 1.22419 0 0.000157876
3 5.77839 0.000286102 0 0.820208 0 0.000113092
4 2.23163 -0.000328064 -0.00036335 0.403983 0 0
5 11.4725 0 0 1.21393 -0.455879 -0.253399
6 0.615219 -0.993091 -0.810701 2.92227 0.454999 -0.33141
7 2.24752 0 0 0.0643998 0.0920015 -0.245251
8 1.11936 0 0 0.0124089 0.0391453 -1.16006
9 3.71348 -0.10264 0.102192 1.44559 1.26927 -0.122846
10 1.72615 0 0 -0.0132949 0.00454358 -1.35296
11 1.21114 0 0 -0.0138877 0.0108709 -1.50415
12 3.59919 -1.06012 0.0708885 1.59719 1.13552 0.0844627
13 1.66069 0 0 0.0206525 0.106434 -1.46129
14 1.167 0 0 0.140204 0.107864 -1.2636
15 2.18852 0.50104 0.0576591 1.58026 0.110062 0.0312636
16 1.29609 0 0 -0.021455 0.0115008 -1.06235
17 1.62202 0.000714302 -0.000471115 -0.00756991 0.00444257 -1.4728
18 1.22241 0 0 -0.0469829 -0.00376791 -1.43289
19 1.76707 1.27612 0.0366402 1.57845 0.182304 -0.021451
20 1.55587 0 0 -0.155246 -0.00355029 -0.857709
21 1.24273 0 0 -0.000505277 -0.000323039 -1.24825
22 0.784523 0 0 0.00822023 0.0140817 -0.754785
23 -1.93761 -1.56582 -7.2488 -0.000932534 0 -2.53187
24 6.02794 0 0 0.137055 0.392044 0.681945
25 11.7344 0 0 0.00140272 0 1.0907
26 8.81167 0 0 1.80923 0 0
27 5.77884 0 0 1.21218 0 0
28 2.23249 0 0 0.597045 0 0
29 11.4725 0 0 1.82801 -0.416669 -0.284682
30 0.615816 0.994371 -0.809164 -2.72226 0.463503 0.286233
31 2.24752 0 0 -0.0835968 0.0959306 0.272288
32 1.11936 0 0 -0.401235 0.450129 0.842933
33 3.71349 0.102639 0.102192 -1.41386 1.26431 0.081693
34 1.72615 0 0 0.000698359 0.000241808 1.34896
35 1.21112 0 0 0.0115403 0.0133365 1.31081
36 3.5992 1.06012 0.0708885 -1.68043 1.04215 -0.112109
37 1.66069 0 0 0.00620726 0.00200652 1.47997
38 1.16699 0 0 -0.0701393 0.164234 1.21657
39 2.18854 -0.50104 0.0576611 -1.57605 0.001178 -0.0469345
40 1.29609 0 0 -0.0326375 -0.0616158 1.17811
41 1.62202 -0.000713348 -0.000469208 -0.00508029 -0.00330949 1.42626
42 1.22241 0 0 0.0247019 -0.0856984 1.42308
43 1.76707 -1.27612 0.0366402 -1.56655 0.103701 0.0275536
44 1.55588 0 0 0.103891 -0.075653 0.975564
45 1.24273 0 0 -0.00469955 -0.0380689 1.28397
46 0.784531 0 0 -0.0127431 -0.0577751 1.00048
47 0 0 0 0 0 0
48 1.20623 -21.5651 -14.5622 -0.999968 -0.162105 -1.01246
49 -1.67534 -23.4337 -12.4886 2.20976 -0.212047 -1.19138
50 -0.941498 -26.5549 -8.74039 0.0143786 -0.529825 0.480168
51 -0.49446 -2.33627 -0.838784 0 0 0
time 11
0 6.07472 -5.9503 -7.2488 -2.27948 1.00673 -2.33906
1 11.7344 0 0 -0.00140297 0 -1.32317
2 8.81138 -0.000450134 -0.000112534 1.15311 0 0.000158175
3 5.77839 0.000286102 0 0.772584 0 0.000112748
4 2.23163 -0.000328064 -0.000364304 0.380527 0 0
5 11.4725 0 0 1.15382 -0.514232 -0.341776
6 0.615219 -0.993092 -0.810699 2.92227 0.454999 -0.33141
7 2.24752 0 0 0.0643998 0.0920015 -0.245251
8 1.11936 0 0 0.012409 0.0391454 -1.16006
9 3.71348 -0.102641 0.10219 1.44559 1.26927 -0.122845
10 1.72615 0 0 -0.013295 0.00454363 -1.35296
11 1.21114 0 0 -0.0138877 0.0108708 -1.50415
12 3.59919 -1.06012 0.0708885 1.59719 1.13552 0.0844628
13 1.66068 0 0 0.0206523 0.106434 -1.46129
14 1.167 0 0 0.140204 0.107864 -1.2636
15 2.18852 0.501039 0.0576591 1.58026 0.110062 0.0312638
16 1.29609 0 0 -0.0214551 0.0115008 -1.06235
17 1.62201 0.000713348 -0.000470161 -0.0075701 0.0044424 -1.4728
18 1.22241 0 0 -0.046983 -0.00376803 -1.43289
19 1.76707 1.27612 0.0366402 1.57845 0.182304 -0.0214508
20 1.55588 0 0 -0.155246 -0.00355048 -0.857709
21 1.24274 0 0 -0.000505317 -0.000323067 -1.24825
22 0.784523 0 0 0.00822036 0.0140817 -0.754785
23 -1.93761 -1.56582 -7.2488 -0.000932534 0 -2.53187
24 6.02794 0 0 0.191688 0.451519 0.661665
25 11.7344 0 0 0.00140268 0 1.09668
26 8.81167 0 0 1.70718 0 0
27 5.77884 0 0 1.14381 0 0
28 2.23249 0 0 0.563371 0 0
29 11.4725 0 0 1.72463 -0.492255 -0.191255
30 0.615812 0.994372 -0.809164 -2.72226 0.463503 0.286233
31 2.24752 0 0 -0.083597 0.0959307 0.272288
32 1.11936 0 0 -0.401235 0.450129 0.842933
33 3.71349 0.102638 0.102192 -1.41386 1.26431 0.0816932
34 1.72615 0 0 0.000698433 0.000241709 1.34896
35 1.21112 0 0 0.0115404 0.0133366 1.31081
36 3.5992 1.06012 0.0708885 -1.68043 1.04215 -0.11211
37 1.66069 0 0 0.00620723 0.00200643 1.47997
38 1.16699 0 0 -0.0701393 0.164234 1.21657
39 2.18853 -0.50104 0.0576611 -1.57605 0.00117805 -0.0469346
40 1.29609 0 0 -0.0326374 -0.0616159 1.17811
41 1.62201 -0.000713348 -0.000471115 -0.00508038 -0.00330951 1.42626
42 1.22241 0 0 0.0247019 -0.0856984 1.42308
43 1.76707 -1.27612 0.0366421 -1.56655 0.103701 0.0275536
44 1.55587 0 0 0.103891 -0.075653 0.975564
45 1.24273 0 0 -0.00469941 -0.0380688 1.28397
46 0.784531 0 0 -0.0127429 -0.0577751 1.00048
47 0 0 0 0 0 0
48 0.91733 -21.705 -15.0271 -1.01072 -0.251742 -1.02069
49 -2.06264 -23.372 -12.9209 2.21571 -0.302116 -1.20334
50 -1.50824 -26.1824 -8.90537 -0.0898367 -0.524056 0.522167
51 -0.49446 -2.33627 -0.838784 0 0 0
time 12
0 6.07472 -5.9503 -7.2488 -1.97395 1.02593 -2.15407
1 11.7344 0 0 -0.0014029 0 -1.22033
2 8.81138 -0.000450134 -0.00011158 1.05461 0 0.00015773
3 5.77839 0.000286102 0 0.706589 0 0.00011193
4 2.23163 -0.000328064 -0.00036335 0.348021 0 0
5 11.4725 0 0 1.07974 -0.613072 -0.444075
6 0.615219 -0.993091 -0.810699 2.92227 0.454999 -0.33141
7 2.24752 0 0 0.0643998 0.0920015 -0.24525
8 1.11936 0 0 0.0124089 0.0391456 -1.16006
9 3.71348 -0.10264 0.102192 1.44559 1.26927 -0.122846
10 1.72615 0 0 -0.013295 0.00454356 -1.35296
11 1.21114 0 0 -0.0138876 0.0108707 -1.50415
12 3.59919 -1.06012 0.0708885 1.59719 1.13552 0.0844623
13 1.66068 0 0 0.0206523 0.106434 -1.46129
14 1.167 0 0 0.140204 0.107864 -1.2636
15 2.18852 0.50104 0.0576591 1.58026 0.110062 0.0312638
16 1.29609 0 0 -0.0214551 0.0115007 -1.06235
17 1.62202 0.000713825 -0.000471115 -0.0075702 0.00444243 -1.4728
18 1.22241 0 0 -0.0469829 -0.00376799 -1.43289
19 1.76707 1.27612 0.0366402 1.57845 0.182304 -0.021451
20 1.55588 0 0 -0.155245 -0.00355022 -0.857709
21 1.24273 0 0 -0.000505435 -0.000323005 -1.24825
22 0.784523 0 0 0.00822024 0.0140816 -0.754785
23 -1.93761 -1.56582 -7.2488 -0.000932534 0 -2.53187
24 6.02794 0 0 0.259566 0.504436 0.652366
25 11.7344 0 0 0.00140265 0 1.06671
26 8.81167 0 0 1.59435 0 0
27 5.77884 0 0 1.06822 0 0
28 2.23249 0 0 0.526136 0 0
29 11.4725 0 0 1.59839 -0.548616 -0.0522268
30 0.615814 0.994371 -0.809164 -2.72226 0.463503 0.286233
31 2.24752 0 0 -0.0835969 0.0959306 0.272288
32 1.11936 0 0 -0.401235 0.450129 0.842934
33 3.71349 0.102638 0.102192 -1.41386 1.26431 0.0816937
34 1.72615 0 0 0.000698407 0.000241772 1.34896
35 1.21112 0 0 0.0115403 0.0133366 1.31081
36 3.5992 1.06012 0.0708885 -1.68043 1.04215 -0.112109
37 1.66069 0 0 0.00620707 0.0020064 1.47997
38 1.16699 0 0 -0.0701392 0.164234 1.21657
39 2.18853 -0.501041 0.0576591 -1.57605 0.001178 -0.0469346
40 1.29609 0 0 -0.0326374 -0.0616157 1.17811
41 1.62202 -0.000713348 -0.000470161 -0.00508017 -0.00330941 1.42626
42 1.22241 0 0 0.0247019 -0.0856983 1.42308
43 1.76707 -1.27612 0.0366402 -1.56655 0.103701 0.0275536
44 1.55588 0 0 0.103891 -0.0756531 0.975564
45 1.24273 0 0 -0.00469963 -0.0380689 1.28397
46 0.784533 0 0 -0.0127429 -0.0577751 1.00048
47 0 0 0 0 0 0
48 0.460386 -22.1343 -15.5159 -1.03372 -0.34237 -1.03113
49 -2.60623 -23.5597 -13.3573 2.21045 -0.39524 -1.21872
50 -2.21365 -26.0099 -9.09447 -0.194018 -0.502553 0.556189
51 -0.49446 -2.33627 -0.838784 0 0 0
time 13
0 6.07472 -5.9503 -7.2488 -1.6405 0.988288 -1.96294
1 11.7344 0 0 -0.00140284 0 -1.08479
2 8.81138 -0.000448227 -0.000112057 0.930775 0 0.000157571
3 5.77839 0.000286102 0 0.623619 0 0.000110745
4 2.23163 -0.000328064 -0.000364304 0.307156 0 0
5 11.4725 0 0 1.00667 -0.739649 -0.551925
6 0.615219 -0.993091 -0.810699 2.92227 0.454999 -0.33141
7 2.24752 0 0 0.0643998 0.0920016 -0.24525
8 1.11936 0 0 0.012409 0.0391453 -1.16006
9 3.71348 -0.102641 0.10219 1.44559 1.26927 -0.122846
10 1.72615 0 0 -0.0132949 0.00454351 -1.35296
11 1.21113 0 0 -0.0138877 0.0108707 -1.50415
12 3.59919 -1.06012 0.0708885 1.59719 1.13552 0.084462
13 1.66069 0 0 0.0206525 0.106434 -1.46129
14 1.167 0 0 0.140204 0.107864 -1.2636
15 2.18853 0.501039 0.0576591 1.58026 0.110062 0.0312637
16 1.29609 0 0 -0.0214549 0.0115008 -1.06235
17 1.62202 0.000714779 -0.000470161 -0.00757004 0.00444241 -1.4728
18 1.22241 0 0 -0.0469828 -0.00376798 -1.43289
19 1.76707 1.27612 0.0366421 1.57845 0.182304 -0.0214512
20 1.55588 0 0 -0.155246 -0.00355032 -0.857709
21 1.24273 0 0 -0.000505268 -0.000323032 -1.24825
22 0.784523 0 0 0.00822037 0.0140817 -0.754785
23 -1.93761 -1.56582 -7.2488 -0.000932534 0 -2.53187
24 6.02794 0 0 0.341947 0.548268 0.653886
25 11.7344 0 0 0.00140278 0 1.01518
26 8.81167 0 0 1.47779 0 0
27 5.77884 0 0 0.990117 0 0
28 2.23249 0 0 0.48767 0 0
29 11.4725 0 0 1.45982 -0.57833 0.115196
30 0.61581 0.994372 -0.809164 -2.72226 0.463503 0.286233
31 2.24752 0 0 -0.0835967 0.0959306 0.272288
32 1.11936 0 0 -0.401236 0.450129 0.842933
33 3.71348 0.10264 0.102192 -1.41386 1.26431 0.081694
34 1.72615 0 0 0.000698414 0.000241829 1.34896
35 1.21112 0 0 0.0115403 0.0133365 1.31081
36 3.5992 1.06012 0.0708885 -1.68043 1.04215 -0.112109
37 1.66069 0 0 0.00620725 0.00200646 1.47997
38 1.16699 0 0 -0.0701393 0.164234 1.21657
39 2.18853 -0.50104 0.0576591 -1.57605 0.00117805 -0.0469346
40 1.29609 0 0 -0.0326374 -0.0616158 1.17811
41 1.62201 -0.000715256 -0.000470161 -0.0050802 -0.00330948 1.42626
42 1.2224 0 0 0.0247019 -0.0856984 1.42308
43 1.76707 -1.27612 0.0366421 -1.56655 0.103701 0.0275535
44 1.55587 0 0 0.103891 -0.0756531 0.975564
45 1.24273 0 0 -0.00469954 -0.0380689 1.28397
46 0.784533 0 0 -0.0127429 -0.0577751 1.00048
47 0 0 0 0 0 0
48 -0.0955412 -22.719 -15.9561 -1.06417 -0.431636 -1.04
49 -3.23502 -23.8818 -13.7455 2.19855 -0.488228 -1.234
50 -2.98137 -25.94 -9.27017 -0.293872 -0.471293 0.582573
51 -0.49446 -2.33627 -0.838784 0 0 0
time 14
0 6.07472 -5.9503 -7.2488 -1.36939 0.908625 -1.84211
1 11.7344 0 0 -0.00140282 0 -0.937696
2 8.81138 -0.000450134 -0.000113487 0.777662 0 0.000158186
3 5.77839 0.000286102 0 0.521034 0 0.00011029
4 2.23163 -0.000328064 -0.000364304 0.256628 0 0
5 11.4725 0 0 0.947881 -0.871637 -0.657616
6 0.615219 -0.993091 -0.810701 2.92227 0.454999 -0.33141
7 2.24752 0 0 0.0643998 0.0920014 -0.24525
8 1.11936 0 0 0.0124092 0.0391455 -1.16006
9 3.71348 -0.102642 0.102192 1.44559 1.26927 -0.122846
10 1.72615 0 0 -0.013295 0.00454348 -1.35296
11 1.21113 0 0 -0.0138875 0.0108707 -1.50415
12 3.59919 -1.06012 0.0708885 1.59719 1.13552 0.084462
13 1.66069 0 0 0.0206525 0.106434 -1.46129
14 1.167 0 0 0.140204 0.107864 -1.2636
15 2.18853 0.501038 0.0576591 1.58026 0.110062 0.0312635
16 1.29609 0 0 -0.0214548 0.0115008 -1.06235
17 1.62202 0.000715256 -0.000471115 -0.00757001 0.0044426 -1.4728
18 1.22241 0 0 -0.046983 -0.0037679 -1.43289
19 1.76707 1.27612 0.0366421 1.57845 0.182304 -0.0214511
20 1.55588 0 0 -0.155245 -0.00355033 -0.857709
21 1.24274 0 0 -0.000505244 -0.000323015 -1.24825
22 0.784523 0 0 0.00822042 0.0140817 -0.754785
23 -1.93761 -1.56582 -7.2488 -0.000932534 0 -2.53187
24 6.02794 0 0 0.435375 0.583362 0.662248
25 11.7344 0 0 0.00140265 0 0.961085
26 8.81167 0 0 1.36229 0 0
27 5.77884 0 0 0.912734 0 0
28 2.23249 0 0 0.449556 0 0
29 11.4725 0 0 1.3236 -0.578753 0.284998
30 0.615812 0.994372 -0.809166 -2.72226 0.463503 0.286233
31 2.24752 0 0 -0.0835969 0.0959308 0.272288
32 1.11936 0 0 -0.401235 0.450129 0.842934
33 3.71348 0.102639 0.102188 -1.41386 1.26431 0.0816943
34 1.72615 0 0 0.000698293 0.000241773 1.34896
35 1.21112 0 0 0.0115403 0.0133366 1.31081
36 3.5992 1.06012 0.0708866 -1.68043 1.04215 -0.112109
37 1.66069 0 0 0.00620721 0.00200642 1.47997
38 1.16699 0 0 -0.0701393 0.164234 1.21657
39 2.18853 -0.50104 0.0576553 -1.57605 0.00117784 -0.0469346
40 1.29609 0 0 -0.0326375 -0.0616158 1.17811
41 1.62202 -0.000715256 -0.000470161 -0.00508022 -0.00330942 1.42626
42 1.2224 0 0 0.024702 -0.0856982 1.42308
43 1.76707 -1.27612 0.0366402 -1.56655 0.103701 0.0275538
44 1.55587 0 0 0.103891 -0.0756531 0.975564
45 1.24273 0 0 -0.00469961 -0.0380688 1.28397
46 0.784533 0 0 -0.0127429 -0.0577752 1.00048
47 0 0 0 0 0 0
48 -0.675141 -23.3113 -16.2847 -1.09751 -0.515717 -1.04571
49 -3.87351 -24.2125 -14.0367 2.18396 -0.576497 -1.24752
50 -3.73503 -25.8752 -9.39495 -0.385101 -0.436253 0.601662
51 -0.49446 -2.33627 -0.838784 0 0 0
time 15
0 6.07472 -5.9503 -7.2488 -1.17672 0.825028 -1.79158
1 11.7344 0 0 -0.00140288 0 -0.811815
2 8.81138 -0.000450134 -0.000112057 0.59822 0 0.0001581
3 5.77839 0.000286102 0 0.400808 0 0.000108967
4 2.23164 -0.000328064 -0.00036478 0.197413 0 0
5 11.4725 0 0 0.909871 -0.989835 -0.747881
6 0.615218 -0.993092 -0.810699 2.92227 0.454999 -0.331411
7 2.24752 0 0 0.0643998 0.0920018 -0.24525
8 1.11936 0 0 0.0124089 0.0391454 -1.16006
9 3.71348 -0.10264 0.102192 1.44559 1.26927 -0.122846
10 1.72615 0 0 -0.013295 0.00454371 -1.35296
11 1.21114 0 0 -0.0138876 0.0108707 -1.50415
12 3.59919 -1.06012 0.0708866 1.59719 1.13552 0.0844626
13 1.66069 0 0 0.0206524 0.106434 -1.46129
14 1.167 0 0 0.140204 0.107864 -1.2636
15 2.18852 0.50104 0.0576572 1.58026 0.110062 0.0312637
16 1.29609 0 0 -0.0214549 0.0115007 -1.06235
17 1.62202 0.000714302 -0.000471115 -0.00756991 0.00444253 -1.4728
18 1.22241 0 0 -0.0469831 -0.00376771 -1.43289
19 1.76707 1.27612 0.0366421 1.57845 0.182304 -0.0214511
20 1.55587 0 0 -0.155246 -0.00355032 -0.857709
21 1.24274 0 0 -0.000505299 -0.000323091 -1.24825
22 0.784523 0 0 0.00822033 0.0140818 -0.754785
23 -1.93761 -1.56582 -7.2488 -0.000932534 0 -2.53187
24 6.02794 0 0 0.530875 0.61464 0.668949
25 11.7344 0 0 0.00140262 0 0.929171
26 8.81167 0 0 1.25335 0 0
27 5.77884 0 0 0.839743 0 0
28 2.23249 0 0 0.413605 0 0
29 11.4725 0 0 1.20422 -0.553739 0.426639
30 0.615812 0.994373 -0.809166 -2.72226 0.463503 0.286233
31 2.24752 0 0 -0.0835969 0.0959307 0.272288
32 1.11936 0 0 -0.401236 0.450129 0.842934
33 3.71349 0.102639 0.102192 -1.41386 1.26431 0.0816936
34 1.72615 0 0 0.000698516 0.000241766 1.34896
35 1.21112 0 0 0.0115403 0.0133366 1.31081
36 3.5992 1.06012 0.0708885 -1.68043 1.04215 -0.112109
37 1.66069 0 0 0.00620712 0.00200641 1.47997
38 1.16699 0 0 -0.0701393 0.164234 1.21657
39 2.18853 -0.50104 0.0576591 -1.57605 0.001178 -0.0469345
40 1.29609 0 0 -0.0326374 -0.0616158 1.17811
41 1.62201 -0.000713348 -0.000471115 -0.00508017 -0.00330949 1.42626
42 1.2224 0 0 0.0247019 -0.0856984 1.42308
43 1.76707 -1.27612 0.0366402 -1.56655 0.103701 0.0275537
44 1.55587 0 0 0.103891 -0.075653 0.975564
45 1.24273 0 0 -0.00469962 -0.0380689 1.28397
46 0.784533 0 0 -0.0127429 -0.0577752 1.00048
47 0 0 0 0 0 0
48 -1.1969 -23.7551 -16.453 -1.12886 -0.589744 -1.04904
49 -4.4421 -24.4177 -14.1891 2.17053 -0.654414 -1.25956
50 -4.39826 -25.718 -9.43132 -0.463412 -0.403411 0.613795
51 -0.49446 -2.33627 -0.838784 0 0 0
time 16
0 6.07472 -5.9503 -7.2488 -1.03547 0.764323 -1.77312
1 11.7344 0 0 -0.00140279 0 -0.741262
2 8.81138 -0.000448227 -0.000112057 0.446885 0 0.000157822
3 5.77839 0.000286102 0 0.299413 0 0.000108097
4 2.23164 -0.000328064 -0.000363827 0.147472 0 0
5 11.4725 0 0 0.888609 -1.08751 -0.799704
6 0.61522 -0.993092 -0.810703 2.92227 0.454999 -0.331411
7 2.24752 0 0 0.0643999 0.0920016 -0.24525
8 1.11936 0 0 0.0124087 0.0391454 -1.16006
9 3.71348 -0.102642 0.102188 1.44559 1.26927 -0.122845
10 1.72615 0 0 -0.0132948 0.00454369 -1.35296
11 1.21113 0 0 -0.0138878 0.0108708 -1.50415
12 3.59919 -1.06012 0.0708885 1.59719 1.13552 0.084462
13 1.66068 0 0 0.0206525 0.106434 -1.46129
14 1.167 0 0 0.140204 0.107864 -1.2636
15 2.18852 0.50104 0.0576572 1.58026 0.110062 0.0312635
16 1.29609 0 0 -0.0214548 0.0115007 -1.06235
17 1.62201 0.000713348 -0.000471115 -0.00756998 0.00444279 -1.4728
18 1.22241 0 0 -0.046983 -0.00376778 -1.43289
19 1.76707 1.27612 0.0366402 1.57845 0.182304 -0.0214513
20 1.55587 0 0 -0.155245 -0.00355035 -0.857709
21 1.24273 0 0 -0.000505106 -0.000322952 -1.24825
22 0.784524 0 0 0.00822026 0.014082 -0.754785
23 -1.93761 -1.56582 -7.2488 -0.000932534 0 -2.53187
24 6.02794 0 0 0.619347 0.648977 0.663932
25 11.7344 0 0 0.0014027 0 0.940139
26 8.81167 0 0 1.16012 0 0
27 5.77884 0 0 0.777279 0 0
28 2.23249 0 0 0.382839 0 0
29 11.4725 0 0 1.11294 -0.508939 0.516067
30 0.61581 0.994372 -0.809164 -2.72226 0.463503 0.286233
31 2.24752 0 0 -0.0835969 0.0959306 0.272288
32 1.11936 0 0 -0.401235 0.450129 0.842933
33 3.71348 0.102639 0.10219 -1.41386 1.26431 0.0816939
34 1.72615 0 0 0.000698479 0.000241862 1.34896
35 1.21112 0 0 0.0115403 0.0133365 1.31081
36 3.5992 1.06012 0.0708885 -1.68043 1.04215 -0.112109
37 1.66069 0 0 0.00620709 0.00200651 1.47997
38 1.16699 0 0 -0.0701393 0.164234 1.21657
39 2.18853 -0.50104 0.0576591 -1.57605 0.001178 -0.0469345
40 1.29609 0 0 -0.0326374 -0.0616158 1.17811
41 1.62201 -0.000713348 -0.000469208 -0.00508025 -0.00330954 1.42626
42 1.22241 0 0 0.024702 -0.0856984 1.42308
43 1.76707 -1.27612 0.0366402 -1.56655 0.103701 0.0275535
44 1.55588 0 0 0.103891 -0.075653 0.975564
45 1.24273 0 0 -0.00469969 -0.038069 1.28397
46 0.784533 0 0 -0.0127429 -0.0577752 1.00048
47 0 0 0 0 0 0
48 -1.6525 -23.9548 -16.4164 -1.15228 -0.648351 -1.05323
49 -4.93611 -24.4228 -14.1593 2.1626 -0.715739 -1.27232
50 -4.97295 -25.4339 -9.33175 -0.524508 -0.378744 0.619313
51 -0.49446 -2.33627 -0.838784 0 0 0
time 17
0 6.07472 -5.9503 -7.2488 -0.924565 0.72779 -1.76365
1 11.7344 0 0 -0.00140293 0 -0.727545
2 8.81138 -0.000448227 -0.000110626 0.385732 0 0.000158112
3 5.77839 0.000286102 0 0.25844 0 0.000107964
4 2.23163 -0.000328064 -0.000362873 0.127291 0 0
5 11.4725 0 0 0.860695 -1.16859 -0.793949
6 0.615219 -0.993092 -0.810701 2.92227 0.454999 -0.331411
7 2.24752 0 0 0.0643998 0.0920016 -0.24525
8 1.11936 0 0 0.0124089 0.0391455 -1.16006
9 3.71348 -0.10264 0.10219 1.44559 1.26927 -0.122846
10 1.72615 0 0 -0.013295 0.00454354 -1.35296
11 1.21113 0 0 -0.0138877 0.0108708 -1.50415
12 3.59919 -1.06012 0.0708866 1.59719 1.13552 0.0844619
13 1.66069 0 0 0.0206527 0.106434 -1.46129
14 1.167 0 0 0.140204 0.107864 -1.2636
15 2.18852 0.501038 0.0576591 1.58026 0.110062 0.0312636
16 1.29609 0 0 -0.0214549 0.0115007 -1.06235
17 1.62202 0.000713348 -0.000471115 -0.00756975 0.00444227 -1.4728
18 1.22241 0 0 -0.046983 -0.00376767 -1.43289
19 1.76707 1.27612 0.0366402 1.57845 0.182304 -0.0214512
20 1.55588 0 0 -0.155246 -0.00355041 -0.857709
21 1.24274 0 0 -0.000505172 -0.000322962 -1.24825
22 0.784523 0 0 0.00822032 0.0140818 -0.754785
23 -1.93761 -1.56582 -7.2488 -0.000932534 0 -2.53187
24 6.02794 0 0 0.698497 0.689065 0.645887
25 11.7344 0 0 0.00140272 0 0.990972
26 8.81166 0 0 1.08578 0 0
27 5.77884 0 0 0.727473 0 0
28 2.23249 0 0 0.358307 0 0
29 11.4725 0 0 1.04911 -0.448255 0.549341
30 0.615812 0.994371 -0.809166 -2.72226 0.463503 0.286233
31 2.24752 0 0 -0.083597 0.0959307 0.272288
32 1.11936 0 0 -0.401235 0.450129 0.842933
33 3.71348 0.102638 0.102192 -1.41386 1.26431 0.0816933
34 1.72615 0 0 0.000698456 0.000241785 1.34896
35 1.21112 0 0 0.0115402 0.0133366 1.31081
36 3.5992 1.06011 0.0708866 -1.68043 1.04215 -0.112109
37 1.66069 0 0 0.00620724 0.00200636 1.47997
38 1.16699 0 0 -0.0701393 0.164234 1.21657
39 2.18853 -0.50104 0.0576591 -1.57605 0.00117803 -0.0469347
40 1.29609 0 0 -0.0326375 -0.0616158 1.17811
41 1.62201 -0.000713348 -0.000470161 -0.00508027 -0.00330952 1.42626
42 1.22241 0 0 0.024702 -0.0856984 1.42308
43 1.76707 -1.27612 0.0366402 -1.56655 0.103701 0.0275535
44 1.55588 0 0 0.103891 -0.075653 0.975564
45 1.24273 0 0 -0.00469954 -0.0380689 1.28397
46 0.784533 0 0 -0.0127429 -0.0577753 1.00048
47 0 0 0 0 0 0
48 -2.11648 -23.9242 -16.2062 -1.16852 -0.685411 -1.06133
49 -5.42323 -24.2455 -13.9574 2.15683 -0.754698 -1.28659
50 -5.51109 -25.0688 -9.09486 -0.562636 -0.36222 0.614976
51 -0.49446 -2.33627 -0.838784 0 0 0
time 18
0 6.07472 -5.9503 -7.2488 -0.834628 0.707691 -1.75564
1 11.7344 0 0 -0.00140291 0 -0.753982
2 8.81138 -0.000450134 -0.00011158 0.417697 0 0.000158547
3 5.77839 0.000286102 0 0.279857 0 0.000108247
4 2.23163 -0.000328064 -0.000364304 0.13784 0 0
5 11.4725 0 0 0.800242 -1.23677 -0.724154
6 0.61522 -0.99309 -0.810701 2.92227 0.454999 -0.33141
7 2.24752 0 0 0.0643999 0.0920015 -0.24525
8 1.11936 0 0 0.012409 0.0391454 -1.16006
9 3.71348 -0.10264 0.10219 1.44559 1.26927 -0.122845
10 1.72615 0 0 -0.0132949 0.00454349 -1.35296
11 1.21114 0 0 -0.0138876 0.0108709 -1.50415
12 3.59919 -1.06012 0.0708866 1.59719 1.13552 0.084462
13 1.66068 0 0 0.0206525 0.106434 -1.46129
14 1.16699 0 0 0.140204 0.107864 -1.2636
15 2.18852 0.501041 0.0576572 1.58026 0.110062 0.0312635
16 1.29609 0 0 -0.0214549 0.0115008 -1.06235
17 1.62202 0.000713348 -0.000471115 -0.00757012 0.0044425 -1.4728
18 1.22241 0 0 -0.0469831 -0.00376806 -1.43289
19 1.76707 1.27612 0.0366383 1.57845 0.182304 -0.0214511
20 1.55587 0 0 -0.155246 -0.00355035 -0.857709
21 1.24273 0 0 -0.0005054 -0.000323053 -1.24825
22 0.784523 0 0 0.00822031 0.0140819 -0.754785
23 -1.93761 -1.56582 -7.2488 -0.000932534 0 -2.53187
24 6.02794 0 0 0.769294 0.734209 0.62044
25 11.7344 0 0 0.00140274 0 1.06883
26 8.81167 0 0 1.02513 0 0
27 5.77884 0 0 0.686836 0 0
28 2.23249 0 0 0.338292 0 0
29 11.4725 0 0 1.00144 -0.377873 0.537764
30 0.615813 0.994372 -0.809164 -2.72226 0.463503 0.286233
31 2.24752 0 0 -0.0835971 0.0959306 0.272288
32 1.11936 0 0 -0.401235 0.450129 0.842933
33 3.71348 0.10264 0.102192 -1.41386 1.26431 0.0816939
34 1.72615 0 0 0.000698419 0.000241787 1.34896
35 1.21112 0 0 0.0115403 0.0133366 1.31081
36 3.5992 1.06012 0.0708885 -1.68043 1.04215 -0.112109
37 1.66069 0 0 0.0062072 0.00200649 1.47997
38 1.16699 0 0 -0.0701394 0.164234 1.21657
39 2.18853 -0.50104 0.0576591 -1.57605 0.00117788 -0.0469346
40 1.29609 0 0 -0.0326375 -0.0616157 1.17811
41 1.62202 -0.000713348 -0.000470161 -0.00508035 -0.00330952 1.42626
42 1.22241 0 0 0.024702 -0.0856984 1.42308
43 1.76707 -1.27612 0.0366402 -1.56655 0.103701 0.0275535
44 1.55588 0 0 0.103891 -0.0756531 0.975564
45 1.24273 0 0 -0.00469959 -0.0380688 1.28397
46 0.784529 0 0 -0.012743 -0.0577752 1.00048
47 0 0 0 0 0 0
48 -2.61081 -23.7112 -15.8915 -1.18322 -0.701196 -1.07339
49 -5.91805 -23.9181 -13.63 2.14647 -0.772619 -1.3009
50 -6.01139 -24.6455 -8.75232 -0.578138 -0.349337 0.598908
51 -0.49446 -2.33627 -0.838784 0 0 0
time 19
0 6.07472 -5.9503 -7.2488 -0.761385 0.696904 -1.74767
1 11.7344 0 0 -0.00140306 0 -0.804873
2 8.81138 -0.000450134 -0.000112534 0.515924 0 0.000157848
3 5.77839 0.000286102 0 0.345669 0 0.000108496
4 2.23163 -0.000329971 -0.000364304 0.170255 0 0
5 11.4725 0 0 0.689723 -1.29164 -0.585297
6 0.61522 -0.993092 -0.810701 2.92227 0.454999 -0.33141
7 2.24752 0 0 0.0643999 0.0920015 -0.24525
8 1.11936 0 0 0.0124088 0.0391455 -1.16006
9 3.71348 -0.102642 0.10219 1.44559 1.26927 -0.122845
10 1.72615 0 0 -0.013295 0.00454341 -1.35296
11 1.21114 0 0 -0.0138876 0.0108708 -1.50415
12 3.59919 -1.06012 0.0708866 1.59719 1.13552 0.0844629
13 1.66069 0 0 0.0206525 0.106433 -1.46129
14 1.167 0 0 0.140204 0.107864 -1.2636
15 2.18853 0.501038 0.0576591 1.58026 0.110062 0.0312638
16 1.29609 0 0 -0.021455 0.0115007 -1.06235
17 1.62202 0.000713348 -0.000471115 -0.00757004 0.00444233 -1.4728
18 1.22241 0 0 -0.0469831 -0.0037679 -1.43289
19 1.76707 1.27612 0.0366402 1.57845 0.182304 -0.0214509
20 1.55588 0 0 -0.155246 -0.00355032 -0.857709
21 1.24273 0 0 -0.000505348 -0.000323126 -1.24825
22 0.784523 0 0 0.00822037 0.0140817 -0.754785
23 -1.93761 -1.56582 -7.2488 -0.000932534 0 -2.53187
24 6.02794 0 0 0.834071 0.781241 0.594221
25 11.7344 0 0 0.00140271 0 1.16025
26 8.81167 0 0 0.975231 0 0
27 5.77884 0 0 0.653405 0 0
28 2.23249 0 0 0.321826 0 0
29 11.4725 0 0 0.963211 -0.30429 0.494923
30 0.615812 0.994371 -0.809164 -2.72226 0.463503 0.286233
31 2.24752 0 0 -0.083597 0.0959306 0.272288
32 1.11936 0 0 -0.401235 0.450129 0.842934
33 3.71348 0.10264 0.10219 -1.41386 1.26431 0.0816932
34 1.72615 0 0 0.000698372 0.000241776 1.34896
35 1.21112 0 0 0.0115403 0.0133366 1.31081
36 3.5992 1.06012 0.0708866 -1.68043 1.04215 -0.112109
37 1.66069 0 0 0.00620727 0.0020064 1.47997
38 1.16699 0 0 -0.0701391 0.164234 1.21657
39 2.18853 -0.50104 0.0576572 -1.57605 0.00117791 -0.0469347
40 1.29609 0 0 -0.0326375 -0.0616157 1.17811
41 1.62202 -0.000713348 -0.000469208 -0.00508032 -0.00330953 1.42626
42 1.22241 0 0 0.0247019 -0.0856984 1.42308
43 1.76707 -1.27612 0.0366402 -1.56655 0.103701 0.0275536
44 1.55587 0 0 0.103891 -0.0756529 0.975564
45 1.24273 0 0 -0.00469968 -0.0380689 1.28397
46 0.784531 0 0 -0.0127429 -0.0577751 1.00048
47 0 0 0 0 0 0
48 -3.1182 -23.3629 -15.5103 -1.19647 -0.700033 -1.0895
49 -6.40785 -23.48 -13.2169 2.13232 -0.773762 -1.31566
50 -6.47259 -24.1872 -8.33581 -0.575867 -0.339374 0.573498
51 -0.49446 -2.33627 -0.838784 0 0 0
time 20
0 6.07472 -5.9503 -7.2488 -0.702563 0.690355 -1.74113
1 11.7344 0 0 -0.00140289 0 -0.86702
2 8.81138 -0.000450134 -0.000112534 0.630224 0 0.000157732
3 5.77839 0.000286102 0 0.42225 0 0.000108969
4 2.23163 -0.000329971 -0.00036335 0.207974 0 0
5 11.4725 0 0 0.517347 -1.3309 -0.375166
6 0.615218 -0.993092 -0.810701 2.92227 0.454999 -0.33141
7 2.24752 0 0 0.0643999 0.0920014 -0.24525
8 1.11935 0 0 0.012409 0.0391455 -1.16006
9 3.71348 -0.102642 0.10219 1.44559 1.26927 -0.122845
10 1.72615 0 0 -0.013295 0.00454358 -1.35296
11 1.21114 0 0 -0.0138877 0.0108707 -1.50415
12 3.59919 -1.06012 0.0708866 1.59719 1.13552 0.0844626
13 1.66068 0 0 0.0206525 0.106434 -1.46129
14 1.167 0 0 0.140204 0.107864 -1.2636
15 2.18852 0.501038 0.0576572 1.58026 0.110062 0.0312637
16 1.29609 0 0 -0.0214549 0.0115008 -1.06235
17 1.62202 0.000714302 -0.000471115 -0.00757016 0.00444254 -1.4728
18 1.22241 0 0 -0.046983 -0.00376786 -1.43289
19 1.76707 1.27612 0.0366383 1.57845 0.182304 -0.021451
20 1.55587 0 0 -0.155246 -0.00355038 -0.857709
21 1.24273 0 0 -0.00050522 -0.000322997 -1.24825
22 0.784523 0 0 0.00822031 0.0140817 -0.754785
23 -1.93761 -1.56582 -7.2488 -0.000932534 0 -2.53187
24 6.02794 0 0 0.894431 0.827236 0.571209
25 11.7344 0 0 0.0014027 0 1.25623
26 8.81167 0 0 0.93299 0 0
27 5.77884 0 0 0.625103 0 0
28 2.23249 0 0 0.307887 0 0
29 11.4725 0 0 0.929513 -0.232344 0.431562
30 0.615813 0.994372 -0.809166 -2.72226 0.463503 0.286233
31 2.24752 0 0 -0.0835969 0.0959306 0.272288
32 1.11936 0 0 -0.401235 0.450129 0.842933
33 3.71349 0.102639 0.10219 -1.41386 1.26431 0.081694
34 1.72615 0 0 0.000698321 0.00024176 1.34896
35 1.21112 0 0 0.0115404 0.0133365 1.31081
36 3.5992 1.06012 0.0708866 -1.68043 1.04215 -0.112109
37 1.66069 0 0 0.00620723 0.00200648 1.47997
38 1.16699 0 0 -0.0701393 0.164234 1.21657
39 2.18853 -0.501039 0.0576591 -1.57605 0.00117807 -0.0469347
40 1.29609 0 0 -0.0326375 -0.0616158 1.17811
41 1.62201 -0.000711441 -0.000472069 -0.00508024 -0.00330953 1.42626
42 1.22241 0 0 0.024702 -0.0856983 1.42308
43 1.76707 -1.27612 0.0366402 -1.56655 0.103701 0.0275535
44 1.55588 0 0 0.103891 -0.075653 0.975564
45 1.24273 0 0 -0.00469954 -0.0380688 1.28397
46 0.784529 0 0 -0.012743 -0.0577753 1.00048
47 0 0 0 0 0 0
48 -3.61894 -22.9251 -15.092 -1.20812 -0.68641 -1.10942
49 -6.87798 -22.9713 -12.7528 2.11596 -0.762474 -1.33165
50 -6.89343 -23.7168 -7.877 -0.560678 -0.331609 0.541132
51 -0.49446 -2.33627 -0.838784 0 0 0
time 21
0 6.07472 -5.9503 -7.2488 -0.657081 0.684657 -1.73821
1 11.7344 0 0 -0.00140274 0 -0.92922
2 8.81138 -0.000448227 -0.00011158 0.720454 0 0.000157969
3 5.77839 0.000286102 0 0.482704 0 0.00010966
4 2.23163 -0.000328064 -0.000362396 0.23775 0 0
5 11.4725 0 0 0.29396 -1.35134 -0.112444
6 0.615217 -0.993092 -0.810701 2.92227 0.454999 -0.33141
7 2.24752 0 0 0.0643998 0.0920015 -0.24525
8 1.11935 0 0 0.012409 0.0391454 -1.16006
9 3.71348 -0.102642 0.10219 1.44559 1.26927 -0.122845
10 1.72615 0 0 -0.013295 0.00454371 -1.35296
11 1.21114 0 0 -0.0138879 0.0108705 -1.50415
12 3.59919 -1.06012 0.0708866 1.59719 1.13552 0.0844627
13 1.66069 0 0 0.0206524 0.106434 -1.46129
14 1.167 0 0 0.140204 0.107864 -1.2636
15 2.18852 0.501038 0.0576591 1.58026 0.110062 0.0312636
16 1.29609 0 0 -0.0214549 0.0115008 -1.06235
17 1.62202 0.000713348 -0.000469208 -0.00757017 0.00444246 -1.4728
18 1.22241 0 0 -0.046983 -0.00376805 -1.43289
19 1.76707 1.27612 0.0366402 1.57845 0.182304 -0.0214513
20 1.55588 0 0 -0.155246 -0.00355032 -0.857709
21 1.24274 0 0 -0.000505435 -0.000323005 -1.24825
22 0.784523 0 0 0.00822045 0.0140817 -0.754785
23 -1.93761 -1.56582 -7.2488 -0.000932534 0 -2.53187
24 6.02794 0 0 0.952078 0.868979 0.554625
25 11.7344 0 0 0.00140267 0 1.34831
26 8.81167 0 0 0.895573 0 0
27 5.77884 0 0 0.600033 0 0
28 2.23249 0 0 0.295539 0 0
29 11.4725 0 0 0.897277 -0.165846 0.357668
30 0.615813 0.99437 -0.809164 -2.72226 0.463503 0.286233
31 2.24752 0 0 -0.083597 0.0959307 0.272288
32 1.11936 0 0 -0.401235 0.450129 0.842933
33 3.71349 0.102638 0.10219 -1.41386 1.26431 0.081693
34 1.72615 0 0 0.000698423 0.000241745 1.34896
35 1.21112 0 0 0.0115404 0.0133366 1.31081
36 3.5992 1.06011 0.0708885 -1.68043 1.04215 -0.112109
37 1.66069 0 0 0.00620714 0.00200648 1.47997
38 1.16699 0 0 -0.0701392 0.164234 1.21657
39 2.18853 -0.50104 0.0576591 -1.57605 0.00117783 -0.0469346
40 1.29609 0 0 -0.0326374 -0.0616158 1.17811
41 1.62201 -0.000711441 -0.000469208 -0.00508029 -0.00330959 1.42626
42 1.22241 0 0 0.024702 -0.0856984 1.42308
43 1.76707 -1.27612 0.0366421 -1.56655 0.103701 0.0275535
44 1.55587 0 0 0.103891 -0.075653 0.975564
45 1.24273 0 0 -0.00469962 -0.0380688 1.28397
46 0.784531 0 0 -0.0127428 -0.0577753 1.00048
47 0 0 0 0 0 0
48 -4.09349 -22.4453 -14.6628 -1.21821 -0.664914 -1.13254
49 -7.31416 -22.4339 -12.2707 2.09901 -0.743209 -1.3495
50 -7.27265 -23.2573 -7.40757 -0.537424 -0.325321 0.504197
51 -0.49446 -2.33627 -0.838784 0 0 0
time 22
0 6.07472 -5.9503 -7.2488 -0.623143 0.678749 -1.73901
1 11.7344 0 0 -0.00140296 0 -0.985705
2 8.81138 -0.000450134 -0.00011158 0.77587 0 0.000157348
3 5.77839 0.000286102 0 0.519833 0 0.00010959
4 2.23163 -0.000328064 -0.000364304 0.256037 0 0
5 11.4725 0 0 0.0648355 -1.35258 0.152614
6 0.61522 -0.993092 -0.810699 2.92227 0.454999 -0.331411
7 2.24752 0 0 0.0643998 0.0920017 -0.245251
8 1.11936 0 0 0.012409 0.0391456 -1.16006
9 3.71348 -0.10264 0.10219 1.44559 1.26927 -0.122845
10 1.72615 0 0 -0.013295 0.00454367 -1.35296
11 1.21114 0 0 -0.0138877 0.0108708 -1.50415
12 3.59919 -1.06012 0.0708885 1.59719 1.13552 0.0844628
13 1.66069 0 0 0.0206526 0.106434 -1.46129
14 1.167 0 0 0.140204 0.107864 -1.2636
15 2.18852 0.50104 0.0576591 1.58026 0.110062 0.0312638
16 1.29609 0 0 -0.0214548 0.0115007 -1.06235
17 1.62202 0.000714302 -0.000469208 -0.00756982 0.00444261 -1.4728
18 1.22241 0 0 -0.0469831 -0.00376776 -1.43289
19 1.76707 1.27612 0.0366421 1.57845 0.182304 -0.0214509
20 1.55588 0 0 -0.155245 -0.00355034 -0.857709
21 1.24273 0 0 -0.000505133 -0.000323118 -1.24825
22 0.784522 0 0 0.00822038 0.0140818 -0.754785
23 -1.93761 -1.56582 -7.2488 -0.000932534 0 -2.53187
24 6.02794 0 0 1.00742 0.904611 0.545551
25 11.7344 0 0 0.00140257 0 1.43137
26 8.81167 0 0 0.860945 0 0
27 5.77884 0 0 0.576833 0 0
28 2.23249 0 0 0.284112 0 0
29 11.4725 0 0 0.864967 -0.107859 0.281509
30 0.615812 0.994372 -0.809166 -2.72226 0.463503 0.286233
31 2.24752 0 0 -0.0835968 0.0959308 0.272288
32 1.11936 0 0 -0.401235 0.450129 0.842933
33 3.71349 0.102639 0.10219 -1.41386 1.26431 0.0816931
34 1.72615 0 0 0.0006984 0.000241763 1.34896
35 1.21112 0 0 0.0115404 0.0133366 1.31081
36 3.5992 1.06012 0.0708885 -1.68043 1.04215 -0.112109
37 1.66069 0 0 0.00620719 0.00200635 1.47997
38 1.16699 0 0 -0.0701393 0.164234 1.21657
39 2.18853 -0.501039 0.0576611 -1.57605 0.00117796 -0.0469345
40 1.29609 0 0 -0.0326375 -0.061616 1.17811
41 1.62201 -0.000711441 -0.000471115 -0.00508017 -0.0033095 1.42626
42 1.2224 0 0 0.024702 -0.0856983 1.42308
43 1.76707 -1.27612 0.0366402 -1.56655 0.103701 0.0275536
44 1.55587 0 0 0.103891 -0.0756529 0.975564
45 1.24273 0 0 -0.00469991 -0.0380687 1.28397
46 0.784531 0 0 -0.0127429 -0.0577754 1.00048
47 0 0 0 0 0 0
48 -4.52485 -21.9732 -14.25 -1.22703 -0.640182 -1.15791
49 -7.70423 -21.9109 -11.804 2.08274 -0.720531 -1.36935
50 -7.60898 -22.8318 -6.95919 -0.510957 -0.319786 0.465082
51 -0.49446 -2.33627 -0.838784 0 0 0
time 23
0 6.07472 -5.9503 -7.2488 -0.599989 0.671384 -1.74446
1 11.7344 0 0 -0.00140296 0 -1.02893
2 8.81138 -0.000448227 -0.000112534 0.795273 0 0.000157849
3 5.77839 0.00028801 0 0.532833 0 0.000110176
4 2.23163 -0.000326157 -0.00036335 0.26244 0 0
5 11.4725 0 0 -0.119086 -1.3398 0.362908
6 0.615221 -0.99309 -0.810703 2.92227 0.454999 -0.33141
7 2.24752 0 0 0.0643999 0.0920016 -0.24525
8 1.11936 0 0 0.0124088 0.0391453 -1.16006
9 3.71348 -0.10264 0.10219 1.44559 1.26927 -0.122846
10 1.72615 0 0 -0.013295 0.00454341 -1.35296
11 1.21114 0 0 -0.0138876 0.0108708 -1.50415
12 3.59919 -1.06012 0.0708866 1.59719 1.13552 0.0844621
13 1.66068 0 0 0.0206526 0.106433 -1.46129
14 1.167 0 0 0.140204 0.107864 -1.2636
15 2.18852 0.50104 0.0576591 1.58026 0.110062 0.0312635
16 1.29609 0 0 -0.0214552 0.0115006 -1.06235
17 1.62202 0.000713348 -0.000471115 -0.00756988 0.00444215 -1.4728
18 1.22241 0 0 -0.0469829 -0.0037678 -1.43289
19 1.76707 1.27612 0.0366402 1.57845 0.182304 -0.021451
20 1.55588 0 0 -0.155246 -0.00355033 -0.857709
21 1.24273 0 0 -0.000505227 -0.000323039 -1.24825
22 0.784523 0 0 0.00822043 0.0140818 -0.754785
23 -1.93761 -1.56582 -7.2488 -0.000932534 0 -2.53187
24 6.02794 0 0 1.06048 0.93254 0.544537
25 11.7344 0 0 0.00140271 0 1.49984
26 8.81167 0 0 0.827753 0 0
27 5.77884 0 0 0.554594 0 0
28 2.23249 0 0 0.273159 0 0
29 11.4725 0 0 0.832219 -0.060755 0.212019
30 0.615812 0.994371 -0.809164 -2.72226 0.463503 0.286233
31 2.24752 0 0 -0.083597 0.0959306 0.272288
32 1.11936 0 0 -0.401235 0.450129 0.842934
33 3.71348 0.102638 0.102192 -1.41386 1.26431 0.0816932
34 1.72615 0 0 0.000698353 0.000241657 1.34896
35 1.21112 0 0 0.0115403 0.0133366 1.31081
36 3.5992 1.06012 0.0708885 -1.68043 1.04215 -0.112109
37 1.66069 0 0 0.00620712 0.0020065 1.47997
38 1.16699 0 0 -0.0701394 0.164234 1.21657
39 2.18853 -0.50104 0.0576591 -1.57605 0.00117801 -0.0469346
40 1.29609 0 0 -0.0326375 -0.0616157 1.17811
41 1.62202 -0.000713348 -0.000470161 -0.00508039 -0.00330961 1.42626
42 1.22241 0 0 0.0247019 -0.0856985 1.42308
43 1.76707 -1.27612 0.0366421 -1.56655 0.103701 0.0275536
44 1.55587 0 0 0.103891 -0.0756531 0.975564
45 1.24273 0 0 -0.0046995 -0.0380688 1.28397
46 0.784531 0 0 -0.0127429 -0.0577754 1.00048
47 0 0 0 0 0 0
48 -4.90016 -21.5613 -13.8838 -1.23517 -0.616871 -1.18429
49 -8.0394 -21.4473 -11.3883 2.06788 -0.699092 -1.39083
50 -7.90115 -22.4632 -6.56355 -0.48613 -0.314283 0.426174
51 -0.49446 -2.33627 -0.838784 0 0 0
time 24
0 6.07472 -5.9503 -7.2488 -0.586015 0.662475 -1.75364
1 11.7344 0 0 -0.00140286 0 -1.05469
2 8.81138 -0.000450134 -0.000112534 0.782609 0 0.000157913
3 5.77839 0.000286102 0 0.524348 0 0.000110061
4 2.23163 -0.000328064 -0.000364304 0.258261 0 0
5 11.4725 0 0 -0.236947 -1.3214 0.492731
6 0.615219 -0.993091 -0.810701 2.92227 0.454999 -0.33141
7 2.24752 0 0 0.0643998 0.0920016 -0.24525
8 1.11936 0 0 0.0124088 0.0391454 -1.16006
9 3.71348 -0.10264 0.102192 1.44559 1.26927 -0.122846
10 1.72615 0 0 -0.0132948 0.00454357 -1.35296
11 1.21114 0 0 -0.0138877 0.0108708 -1.50415
12 3.59919 -1.06012 0.0708866 1.59719 1.13552 0.0844624
13 1.66069 0 0 0.0206527 0.106434 -1.46129
14 1.167 0 0 0.140204 0.107864 -1.2636
15 2.18852 0.50104 0.0576572 1.58026 0.110062 0.0312637
16 1.29609 0 0 -0.021455 0.0115006 -1.06235
17 1.62201 0.000713825 -0.000469208 -0.00756983 0.00444236 -1.4728
18 1.22241 0 0 -0.046983 -0.00376776 -1.43289
19 1.76707 1.27612 0.0366402 1.57845 0.182304 -0.021451
20 1.55588 0 0 -0.155246 -0.0035504 -0.857709
21 1.24273 0 0 -0.000505251 -0.000323056 -1.24825
22 0.784523 0 0 0.00822036 0.0140817 -0.754785
23 -1.93761 -1.56582 -7.2488 -0.000932534 0 -2.53187
24 6.02794 0 0 1.11004 0.952622 0.5506
25 11.7344 0 0 0.00140272 0 1.55019
26 8.81167 0 0 0.795419 0 0
27 5.77884 0 0 0.532931 0 0
28 2.23249 0 0 0.262488 0 0
29 11.4725 0 0 0.799476 -0.0261751 0.157788
30 0.615812 0.994373 -0.809166 -2.72226 0.463503 0.286233
31 2.24752 0 0 -0.0835969 0.0959307 0.272288
32 1.11936 0 0 -0.401236 0.450129 0.842933
33 3.71349 0.10264 0.10219 -1.41386 1.26431 0.0816939
34 1.72615 0 0 0.000698355 0.000241802 1.34896
35 1.21112 0 0 0.0115403 0.0133365 1.31081
36 3.5992 1.06012 0.0708866 -1.68043 1.04215 -0.112109
37 1.66069 0 0 0.00620711 0.00200639 1.47997
38 1.16699 0 0 -0.0701393 0.164234 1.21657
39 2.18853 -0.50104 0.0576591 -1.57605 0.00117801 -0.0469347
40 1.29609 0 0 -0.0326376 -0.0616158 1.17811
41 1.62201 -0.000711441 -0.000470161 -0.00508039 -0.00330947 1.42626
42 1.22241 0 0 0.024702 -0.0856984 1.42308
43 1.76707 -1.27612 0.0366383 -1.56655 0.103701 0.0275536
44 1.55587 0 0 0.103891 -0.0756531 0.975564
45 1.24273 0 0 -0.00469958 -0.0380688 1.28397
46 0.784529 0 0 -0.0127428 -0.0577753 1.00048
47 0 0 0 0 0 0
48 -5.21156 -21.2644 -13.5977 -1.24344 -0.599643 -1.21026
49 -8.31462 -21.0886 -11.0609 2.0547 -0.683604 -1.41313
50 -8.14791 -22.1746 -6.25231 -0.467798 -0.308091 0.38986
51 -0.49446 -2.33627 -0.838784 0 0 0
time 25
0 6.07472 -5.9503 -7.2488 -0.580618 0.651274 -1.76685
1 11.7344 0 0 -0.00140276 0 -1.05634
2 8.81138 -0.000448227 -0.000113487 0.734536 0 0.000158493
3 5.77839 0.000286102 0 0.492139 0 0.000110266
4 2.23163 -0.000328064 -0.000365257 0.242397 0 0
5 11.4725 0 0 -0.291195 -1.30517 0.538206
6 0.615219 -0.993092 -0.810699 2.92227 0.454999 -0.331411
7 2.24752 0 0 0.0643998 0.0920016 -0.24525
8 1.11936 0 0 0.0124088 0.0391453 -1.16006
9 3.71348 -0.10264 0.102192 1.44559 1.26927 -0.122846
10 1.72615 0 0 -0.013295 0.00454367 -1.35296
11 1.21114 0 0 -0.0138879 0.0108707 -1.50415
12 3.59919 -1.06012 0.0708885 1.59719 1.13552 0.0844624
13 1.66069 0 0 0.0206525 0.106434 -1.46129
14 1.167 0 0 0.140204 0.107864 -1.2636
15 2.18852 0.501038 0.0576591 1.58026 0.110062 0.0312636
16 1.29609 0 0 -0.0214551 0.0115006 -1.06235
17 1.62201 0.000712872 -0.000469208 -0.00756999 0.00444254 -1.4728
18 1.22241 0 0 -0.0469828 -0.00376791 -1.43289
19 1.76707 1.27612 0.0366402 1.57845 0.182304 -0.0214511
20 1.55588 0 0 -0.155245 -0.00355041 -0.857709
21 1.24273 0 0 -0.000505279 -0.000322966 -1.24825
22 0.784523 0 0 0.00822036 0.0140817 -0.754785
23 -1.93761 -1.56582 -7.2488 -0.000932534 0 -2.53187
24 6.02794 0 0 1.15487 0.964787 0.5628
25 11.7344 0 0 0.00140273 0 1.57786
26 8.81167 0 0 0.763822 0 0
27 5.77884 0 0 0.511761 0 0
28 2.23249 0 0 0.252061 0 0
29 11.4725 0 0 0.76762 -0.00499064 0.128519
30 0.615813 0.994373 -0.809164 -2.72226 0.463503 0.286233
31 2.24752 0 0 -0.0835969 0.0959307 0.272288
32 1.11936 0 0 -0.401235 0.450129 0.842933
33 3.71349 0.10264 0.102192 -1.41386 1.26431 0.0816944
34 1.72615 0 0 0.000698498 0.00024179 1.34896
35 1.21112 0 0 0.0115403 0.0133366 1.31081
36 3.5992 1.06012 0.0708885 -1.68043 1.04215 -0.112109
37 1.66069 0 0 0.00620718 0.00200647 1.47997
38 1.16699 0 0 -0.0701393 0.164234 1.21657
39 2.18853 -0.50104 0.0576591 -1.57605 0.00117789 -0.0469347
40 1.29609 0 0 -0.0326375 -0.0616158 1.17811
41 1.62202 -0.000715256 -0.000470161 -0.00508033 -0.0033094 1.42626
42 1.22241 0 0 0.0247019 -0.0856985 1.42308
43 1.76707 -1.27612 0.0366421 -1.56655 0.103701 0.0275535
44 1.55588 0 0 0.103891 -0.0756531 0.975564
45 1.24273 0 0 -0.00469958 -0.038069 1.28397
46 0.784533 0 0 -0.0127428 -0.0577752 1.00048
47 0 0 0 0 0 0
48 -5.4559 -21.1387 -13.4272 -1.25284 -0.593176 -1.23423
49 -8.52835 -20.8814 -10.8603 2.04323 -0.678827 -1.43515
50 -8.34798 -21.9889 -6.05715 -0.460813 -0.300487 0.358528
51 -0.49446 -2.33627 -0.838784 0 0 0
time 26
0 6.07472 -5.9503 -7.2488 -0.581095 0.638842 -1.78308
1 11.7344 0 0 -0.0014028 0 -1.03697
2 8.81138 -0.000450134 -0.00011158 0.65189 0 0.000158289
3 5.77839 0.000286102 0 0.436766 0 0.000109541
4 2.23164 -0.000329971 -0.00036335 0.215124 0 0
5 11.4725 0 0 -0.314025 -1.29333 0.53328
6 0.615219 -0.993091 -0.810699 2.92227 0.454999 -0.33141
7 2.24752 0 0 0.0643998 0.0920014 -0.24525
8 1.11936 0 0 0.0124089 0.0391456 -1.16006
9 3.71348 -0.10264 0.102192 1.44559 1.26927 -0.122845
10 1.72615 0 0 -0.0132949 0.00454344 -1.35296
11 1.21114 0 0 -0.0138878 0.0108709 -1.50415
12 3.59919 -1.06012 0.0708885 1.59719 1.13552 0.0844623
13 1.66069 0 0 0.0206527 0.106434 -1.46129
14 1.167 0 0 0.140204 0.107864 -1.2636
15 2.18852 0.50104 0.0576591 1.58026 0.110062 0.0312638
16 1.29609 0 0 -0.0214549 0.0115006 -1.06235
17 1.62201 0.000713825 -0.000471115 -0.00756997 0.00444255 -1.4728
18 1.22241 0 0 -0.0469831 -0.00376776 -1.43289
19 1.76707 1.27612 0.0366421 1.57845 0.182304 -0.021451
20 1.55588 0 0 -0.155245 -0.00355034 -0.857709
21 1.24273 0 0 -0.000505264 -0.000323139 -1.24825
22 0.784523 0 0 0.00822035 0.0140818 -0.754785
23 -1.93761 -1.56582 -7.2488 -0.000932534 0 -2.53187
24 6.02794 0 0 1.19327 0.970869 0.577889
25 11.7344 0 0 0.00140279 0 1.58595
26 8.81167 0 0 0.732426 0 0
27 5.77884 0 0 0.490726 0 0
28 2.23249 0 0 0.241701 0 0
29 11.4725 0 0 0.73652 0.00698873 0.120845
30 0.615813 0.994371 -0.809166 -2.72226 0.463503 0.286233
31 2.24752 0 0 -0.0835969 0.0959306 0.272288
32 1.11936 0 0 -0.401235 0.450129 0.842933
33 3.71349 0.102638 0.102192 -1.41386 1.26431 0.0816932
34 1.72615 0 0 0.000698352 0.000241799 1.34896
35 1.21112 0 0 0.0115402 0.0133365 1.31081
36 3.5992 1.06012 0.0708885 -1.68043 1.04215 -0.112109
37 1.66069 0 0 0.0062072 0.00200654 1.47997
38 1.16699 0 0 -0.0701393 0.164234 1.21657
39 2.18853 -0.501041 0.0576572 -1.57605 0.00117817 -0.0469347
40 1.29609 0 0 -0.0326377 -0.0616159 1.17811
41 1.62201 -0.000713348 -0.000469208 -0.00508029 -0.00330955 1.42626
42 1.22241 0 0 0.0247019 -0.0856984 1.42308
43 1.76707 -1.27612 0.0366402 -1.56655 0.103701 0.0275536
44 1.55588 0 0 0.103891 -0.0756532 0.975564
45 1.24273 0 0 -0.00469956 -0.038069 1.28397
46 0.784533 0 0 -0.0127429 -0.0577751 1.00048
47 0 0 0 0 0 0
48 -5.64972 -21.1625 -13.3747 -1.26474 -0.593717 -1.25465
49 -8.69027 -20.8129 -10.7808 2.03093 -0.681322 -1.45449
50 -8.49564 -21.9078 -5.9753 -0.461186 -0.290609 0.331559
51 -0.49446 -2.33627 -0.838784 0 0 0
time 27
0 6.07472 -5.9503 -7.2488 -0.584725 0.626637 -1.80029
1 11.7344 0 0 -0.00140288 0 -1.00691
2 8.81138 -0.000450134 -0.00011158 0.538905 0 0.000158076
3 5.77839 0.000284195 0 0.361066 0 0.000108682
4 2.23164 -0.000329971 -0.00036335 0.177839 0 0
5 11.4725 0 0 -0.328289 -1.28246 0.509457
6 0.615218 -0.993092 -0.810699 2.92227 0.454999 -0.33141
7 2.24752 0 0 0.0643999 0.0920016 -0.24525
8 1.11936 0 0 0.0124089 0.0391456 -1.16006
9 3.71348 -0.10264 0.10219 1.44559 1.26927 -0.122845
10 1.72615 0 0 -0.0132947 0.00454342 -1.35296
11 1.21114 0 0 -0.0138874 0.0108709 -1.50415
12 3.59919 -1.06012 0.0708866 1.59719 1.13552 0.0844626
13 1.66069 0 0 0.0206526 0.106434 -1.46129
14 1.167 0 0 0.140204 0.107864 -1.2636
15 2.18852 0.50104 0.0576572 1.58026 0.110062 0.0312637
16 1.29609 0 0 -0.021455 0.0115007 -1.06235
17 1.62202 0.000714779 -0.000469208 -0.00756993 0.00444255 -1.4728
18 1.22241 0 0 -0.0469829 -0.00376787 -1.43289
19 1.76707 1.27612 0.0366402 1.57845 0.182304 -0.021451
20 1.55588 0 0 -0.155245 -0.00355038 -0.857709
21 1.24273 0 0 -0.000505272 -0.000322925 -1.24825
22 0.784523 0 0 0.00822041 0.0140816 -0.754785
23 -1.93761 -1.56582 -7.2488 -0.000932534 0 -2.53187
24 6.02794 0 0 1.22397 0.973375 0.592298
25 11.7344 0 0 0.00140267 0 1.58395
26 8.81167 0 0 0.701316 0 0
27 5.77884 0 0 0.469882 0 0
28 2.23249 0 0 0.231434 0 0
29 11.4725 0 0 0.705866 0.01278 0.12204
30 0.615812 0.994371 -0.809164 -2.72226 0.463503 0.286233
31 2.24752 0 0 -0.083597 0.0959308 0.272288
32 1.11936 0 0 -0.401235 0.450129 0.842933
33 3.71349 0.102638 0.102192 -1.41386 1.26431 0.0816938
34 1.72615 0 0 0.000698359 0.000241759 1.34896
35 1.21112 0 0 0.0115403 0.0133366 1.31081
36 3.5992 1.06012 0.0708885 -1.68043 1.04215 -0.112109
37 1.66069 0 0 0.00620712 0.00200637 1.47997
38 1.16699 0 0 -0.0701393 0.164233 1.21657
39 2.18853 -0.501041 0.0576611 -1.57605 0.001178 -0.0469346
40 1.29609 0 0 -0.0326375 -0.0616158 1.17811
41 1.62201 -0.000713348 -0.000469208 -0.00508018 -0.00330955 1.42626
42 1.22241 0 0 0.024702 -0.0856984 1.42308
43 1.76707 -1.27612 0.0366402 -1.56655 0.103701 0.0275535
44 1.55587 0 0 0.103891 -0.0756531 0.975564
45 1.24273 0 0 -0.00469941 -0.0380689 1.28397
46 0.784531 0 0 -0.012743 -0.0577753 1.00048
47 0 0 0 0 0 0
48 -5.80478 -21.2596 -13.3907 -1.27823 -0.595058 -1.27324
49 -8.80828 -20.8189 -10.7677 2.01715 -0.684847 -1.47194
50 -8.59279 -21.8968 -5.95926 -0.462445 -0.279422 0.305769
51 -0.49446 -2.33627 -0.838784 0 0 0
time 28
0 6.07472 -5.9503 -7.2488 -0.590557 0.615059 -1.81609
1 11.7344 0 0 -0.00140294 0 -0.972888
2 8.81138 -0.000452042 -0.000112534 0.39967 0 0.000158218
3 5.77839 0.000286102 0 0.267779 0 0.000108041
4 2.23163 -0.000329971 -0.000364304 0.131891 0 0
5 11.4725 0 0 -0.326547 -1.27029 0.464597
6 0.615217 -0.993092 -0.810699 2.92227 0.454999 -0.33141
7 2.24752 0 0 0.0643998 0.0920016 -0.24525
8 1.11936 0 0 0.012409 0.0391454 -1.16006
9 3.71348 -0.102642 0.102192 1.44559 1.26927 -0.122845
10 1.72615 0 0 -0.0132948 0.00454368 -1.35296
11 1.21114 0 0 -0.0138877 0.0108709 -1.50415
12 3.59919 -1.06012 0.0708885 1.59719 1.13552 0.0844631
13 1.66068 0 0 0.0206523 0.106434 -1.46129
14 1.167 0 0 0.140204 0.107864 -1.2636
15 2.18852 0.501038 0.0576611 1.58026 0.110062 0.0312635
16 1.29609 0 0 -0.0214549 0.0115007 -1.06235
17 1.62201 0.000713348 -0.000469208 -0.00757011 0.00444239 -1.4728
18 1.22241 0 0 -0.0469829 -0.00376785 -1.43289
19 1.76707 1.27612 0.0366421 1.57845 0.182304 -0.0214511
20 1.55588 0 0 -0.155245 -0.00355042 -0.857709
21 1.24273 0 0 -0.000505275 -0.000323074 -1.24825
22 0.784524 0 0 0.00822036 0.0140817 -0.754785
23 -1.93761 -1.56582 -7.2488 -0.000932534 0 -2.53187
24 6.02794 0 0 1.24664 0.973112 0.604953
25 11.7344 0 0 0.00140274 0 1.57642
26 8.81167 0 0 0.671595 0 0
27 5.77884 0 0 0.449968 0 0
28 2.23249 0 0 0.221626 0 0
29 11.4725 0 0 0.676394 0.0102227 0.128291
30 0.615814 0.99437 -0.809164 -2.72226 0.463503 0.286233
31 2.24752 0 0 -0.083597 0.0959308 0.272288
32 1.11936 0 0 -0.401235 0.450129 0.842933
33 3.71349 0.102639 0.102194 -1.41386 1.26431 0.0816932
34 1.72615 0 0 0.000698487 0.000241729 1.34896
35 1.21112 0 0 0.0115403 0.0133366 1.31081
36 3.5992 1.06012 0.0708885 -1.68043 1.04215 -0.112109
37 1.66069 0 0 0.00620727 0.00200635 1.47997
38 1.16699 0 0 -0.0701393 0.164234 1.21657
39 2.18853 -0.50104 0.0576611 -1.57605 0.0011781 -0.0469348
40 1.29609 0 0 -0.0326376 -0.0616158 1.17811
41 1.62201 -0.000715256 -0.000469208 -0.00508027 -0.00330948 1.42626
42 1.22241 0 0 0.0247019 -0.0856983 1.42308
43 1.76707 -1.27612 0.036644 -1.56655 0.103701 0.0275537
44 1.55588 0 0 0.103891 -0.075653 0.975564
45 1.24273 0 0 -0.0046995 -0.0380689 1.28397
46 0.784533 0 0 -0.0127429 -0.0577752 1.00048
47 0 0 0 0 0 0
48 -5.91399 -21.4069 -13.4337 -1.29088 -0.598266 -1.29308
49 -8.88025 -20.8698 -10.7864 2.00469 -0.690055 -1.49099
50 -8.6496 -21.9246 -5.97357 -0.465723 -0.268937 0.2797
51 -0.49446 -2.33627 -0.838784 0 0 0
time 29
0 6.07472 -5.9503 -7.2488 -0.598288 0.604127 -1.82894
1 11.7344 0 0 -0.00140286 0 -0.94012
2 8.81138 -0.000450134 -0.000112534 0.2494 0 0.000158339
3 5.77839 0.000286102 0 0.167098 0 0.000107288
4 2.23163 -0.000328064 -0.00036335 0.0823018 0 0
5 11.4725 0 0 -0.302795 -1.25424 0.39712
6 0.61522 -0.99309 -0.810699 2.92227 0.454999 -0.33141
7 2.24752 0 0 0.0643998 0.0920016 -0.24525
8 1.11936 0 0 0.012409 0.0391454 -1.16006
9 3.71348 -0.10264 0.102192 1.44559 1.26927 -0.122845
10 1.72615 0 0 -0.013295 0.00454342 -1.35296
11 1.21114 0 0 -0.0138876 0.0108707 -1.50415
12 3.59919 -1.06012 0.0708885 1.59719 1.13552 0.0844623
13 1.66068 0 0 0.0206525 0.106434 -1.46129
14 1.167 0 0 0.140204 0.107864 -1.2636
15 2.18853 0.50104 0.0576572 1.58026 0.110062 0.0312637
16 1.29609 0 0 -0.021455 0.0115006 -1.06235
17 1.62202 0.000714302 -0.000471115 -0.00756998 0.00444247 -1.4728
18 1.22241 0 0 -0.0469829 -0.00376786 -1.43289
19 1.76707 1.27612 0.0366402 1.57845 0.182304 -0.0214509
20 1.55588 0 0 -0.155246 -0.00355044 -0.857709
21 1.24273 0 0 -0.000505299 -0.000323091 -1.24825
22 0.784523 0 0 0.00822042 0.0140817 -0.754785
23 -1.93761 -1.56582 -7.2488 -0.000932534 0 -2.53187
24 6.02794 0 0 1.26104 0.970697 0.615032
25 11.7344 0 0 0.00140273 0 1.56767
26 8.81167 0 0 0.644627 0 0
27 5.77884 0 0 0.4319 0 0
28 2.23249 0 0 0.212727 0 0
29 11.4725 0 0 0.648831 -0.00297482 0.136073
30 0.615813 0.994371 -0.809164 -2.72226 0.463503 0.286233
31 2.24752 0 0 -0.0835969 0.0959309 0.272288
32 1.11936 0 0 -0.401236 0.450129 0.842933
33 3.71349 0.102638 0.102192 -1.41386 1.26431 0.081694
34 1.72615 0 0 0.000698561 0.000241678 1.34896
35 1.21112 0 0 0.0115403 0.0133367 1.31081
36 3.5992 1.06012 0.0708885 -1.68043 1.04215 -0.112109
37 1.66069 0 0 0.00620719 0.00200653 1.47997
38 1.16699 0 0 -0.0701394 0.164234 1.21657
39 2.18853 -0.50104 0.0576611 -1.57605 0.00117798 -0.0469346
40 1.29609 0 0 -0.0326374 -0.0616157 1.17811
41 1.62202 -0.000711441 -0.000469208 -0.0050804 -0.00330949 1.42626
42 1.2224 0 0 0.0247019 -0.0856984 1.42308
43 1.76707 -1.27612 0.0366421 -1.56655 0.103701 0.0275536
44 1.55587 0 0 0.103891 -0.0756531 0.975564
45 1.24273 0 0 -0.00469942 -0.0380689 1.28397
46 0.784531 0 0 -0.0127429 -0.0577751 1.00048
47 0 0 0 0 0 0
48 -5.97123 -21.5827 -13.4625 -1.3003 -0.60447 -1.31725
49 -8.90449 -20.9373 -10.8026 1.99637 -0.697665 -1.51516
50 -8.67623 -21.9602 -5.9828 -0.47215 -0.26117 0.251891
51 -0.49446 -2.33627 -0.838784 0 0 0
time 30
0 6.07472 -5.9503 -7.2488 -0.60755 0.594158 -1.83688
1 11.7344 0 0 -0.00140276 0 -0.914687
2 8.81138 -0.000450134 -0.00011158 0.116364 0 0.000157777
3 5.77839 0.000284195 0 0.0779639 0 0.00010624
4 2.23163 -0.000329971 -0.00036335 0.0384 0 0
5 11.4725 0 0 -0.254129 -1.23107 0.308825
6 0.615221 -0.993093 -0.810699 2.92227 0.454999 -0.33141
7 2.24752 0 0 0.0643999 0.0920015 -0.24525
8 1.11936 0 0 0.0124091 0.0391454 -1.16006
9 3.71348 -0.102644 0.10219 1.44559 1.26927 -0.122845
10 1.72614 0 0 -0.0132949 0.00454368 -1.35296
11 1.21114 0 0 -0.0138878 0.0108707 -1.50415
12 3.5992 -1.06012 0.0708866 1.59719 1.13552 0.0844624
13 1.66069 0 0 0.0206524 0.106434 -1.46129
14 1.167 0 0 0.140204 0.107864 -1.2636
15 2.18853 0.501038 0.0576591 1.58026 0.110062 0.0312636
16 1.29609 0 0 -0.021455 0.0115008 -1.06235
17 1.62202 0.000713825 -0.000471115 -0.00757008 0.00444246 -1.4728
18 1.22241 0 0 -0.0469829 -0.00376813 -1.43289
19 1.76707 1.27612 0.0366402 1.57845 0.182304 -0.0214511
20 1.55588 0 0 -0.155246 -0.00355041 -0.857709
21 1.24274 0 0 -0.000505279 -0.000322966 -1.24825
22 0.784522 0 0 0.00822031 0.0140818 -0.754785
23 -1.93761 -1.56582 -7.2488 -0.000932534 0 -2.53187
24 6.02794 0 0 1.26685 0.966574 0.621782
25 11.7344 0 0 0.00140279 0 1.56182
26 8.81167 0 0 0.622 0 0
27 5.77884 0 0 0.41674 0 0
28 2.23249 0 0 0.20526 0 0
29 11.4725 0 0 0.623851 -0.0292451 0.142096
30 0.615812 0.994371 -0.809162 -2.72226 0.463503 0.286233
31 2.24752 0 0 -0.083597 0.0959307 0.272288
32 1.11936 0 0 -0.401235 0.450129 0.842933
33 3.71349 0.102638 0.102192 -1.41386 1.26431 0.0816935
34 1.72615 0 0 0.000698442 0.000241673 1.34896
35 1.21112 0 0 0.0115404 0.0133366 1.31081
36 3.5992 1.06011 0.0708885 -1.68043 1.04215 -0.112109
37 1.66069 0 0 0.00620719 0.00200648 1.47997
38 1.16699 0 0 -0.0701393 0.164234 1.21657
39 2.18853 -0.501041 0.0576611 -1.57605 0.00117794 -0.0469344
40 1.29609 0 0 -0.0326375 -0.0616157 1.17811
41 1.62201 -0.000713348 -0.000469208 -0.00508026 -0.0033096 1.42626
42 1.22241 0 0 0.024702 -0.0856982 1.42308
43 1.76707 -1.27612 0.0366421 -1.56655 0.103701 0.0275535
44 1.55588 0 0 0.103891 -0.0756531 0.975564
45 1.24273 0 0 -0.00469944 -0.0380688 1.28397
46 0.784533 0 0 -0.0127428 -0.0577752 1.00048
47 0 0 0 0 0 0
48 -5.97196 -21.7669 -13.4357 -1.30402 -0.614816 -1.34887
49 -8.87988 -20.9943 -10.782 1.99513 -0.708409 -1.54811
50 -8.68284 -21.9724 -5.95148 -0.482858 -0.258133 0.220885
51 -0.49446 -2.33627 -0.838784 0 0 0
end
