//Sequence File generated by the Wall Worm SMD Exporter PRO 1.99
//www.wallworm.com
version 1
nodes
0 "b_l_clav" -1
1 "b_l_upperarm" 0
2 "b_l_forearm" 1
3 "b_l_twist3" 2
4 "b_l_twist2" 2
5 "b_l_twist1" 2
6 "b_l_hand" 2
7 "b_l_thumb001" 6
8 "b_l_thumb002" 7
9 "b_l_thumb003" 8
10 "b_l_middle001" 6
11 "b_l_middle002" 10
12 "b_l_middle003" 11
13 "b_l_index001" 6
14 "b_l_index002" 13
15 "b_l_index003" 14
16 "b_l_hand_ringsqueezer" 6
17 "b_l_ring001" 16
18 "b_l_ring002" 17
19 "b_l_ring003" 18
20 "b_l_hand_pinkysqueezer" 6
21 "b_l_pinky001" 20
22 "b_l_pinky002" 21
23 "b_l_pinky003" 22
24 "b_r_clav" -1
25 "b_r_upperarm" 24
26 "b_r_forearm" 25
27 "b_r_twist3" 26
28 "b_r_twist2" 26
29 "b_r_twist1" 26
30 "b_r_hand" 26
31 "b_r_thumb001" 30
32 "b_r_thumb002" 31
33 "b_r_thumb003" 32
34 "b_r_middle001" 30
35 "b_r_middle002" 34
36 "b_r_middle003" 35
37 "b_r_index001" 30
38 "b_r_index002" 37
39 "b_r_index003" 38
40 "b_r_hand_ringsqueezer" 30
41 "b_r_ring001" 40
42 "b_r_ring002" 41
43 "b_r_ring003" 42
44 "b_r_hand_pinkysqueezer" 30
45 "b_r_pinky001" 44
46 "b_r_pinky002" 45
47 "b_r_pinky003" 46
48 "b_zero" -1
49 "d_gun" -1
50 "d_trig" 49
51 "d_slidelock" 49
52 "d_slide" 49
53 "d_barrel" 49
54 "d_mag" -1
55 "d_magfollower" 54
56 "d_boolet" 54
end
skeleton
time 0
0 7.58967 10.8278 -3.60973 0.000934124 0 -1.06437
1 6.02794 0 0 -1.03418 0.416041 -0.557246
2 11.7344 0 0 -0.00140287 0 -0.795875
3 8.81138 -0.000450134 -0.00011158 0.0999164 0 0.000157633
4 5.77839 0.000286102 0 0.0669441 0 0.000106055
5 2.23163 -0.000329971 -0.00036335 0.0329723 0 0
6 11.4725 0 0 -0.231827 -0.47817 0.647136
7 0.615221 -0.993091 -0.8107 -3.01423 0.324565 -0.386014
8 2.24752 0 0 0.0800073 0.0026472 -0.146496
9 1.11936 0 0 0.0512106 0.062516 -0.327822
10 3.71348 -0.102641 0.102191 1.38753 0.842929 0.0672854
11 1.72615 0 0 0.00945168 -0.00623857 -1.09905
12 1.21114 0 0 -0.0132694 0.0116176 -1.44917
13 3.59919 -1.06012 0.0708883 1.436 0.244349 -0.0655281
14 1.66069 0 0 -0.037484 0.0636747 -0.726307
15 1.167 0 0 -0.0270716 0.0140958 -0.693244
16 2.18853 0.50104 0.057659 1.55548 0.166718 0.138312
17 1.29609 0 0 -0.185212 -0.0418434 -0.654895
18 1.62202 0.000714302 -0.000470638 0.0143688 -0.0178807 -1.11
19 1.22241 0 0 -0.00702546 0.00524262 -1.42423
20 1.76707 1.27612 0.0366409 1.27805 0.322855 0.136707
21 1.55588 0 0 -0.0225086 0.0235834 -0.467635
22 1.24274 0 0 -0.000596449 0 -0.783974
23 0.784523 0 0 0.00616289 -0.000615218 -0.9415
24 2.85835 9.28793 -4.43253 0.726982 0.410583 -1.99191
25 6.02794 0 0 0.0431585 0.0852248 0.22806
26 11.7344 0 0 0.00140279 0 0.916911
27 8.81167 0 0 0.877625 0 0
28 5.77884 0 0 0.588008 0 0
29 2.23249 0 0 0.289616 0 0
30 11.4725 0 0 0.898635 0.287709 -0.682094
31 0.615814 0.994373 -0.809165 -2.35227 0.0187305 0.46255
32 2.24752 0 0 -0.0459563 0.244746 0.234216
33 1.11936 0 0 -0.0408307 0.257423 0.212558
34 3.71349 0.102639 0.10219 -1.7258 1.11243 -0.263964
35 1.72615 0 0 0.00219633 0.00206195 0.928466
36 1.21112 0 0 -0.00470668 0.0169966 0.327294
37 3.5992 1.06012 0.070888 -1.81456 1.00851 -0.246313
38 1.66069 0 0 0.00707743 0.0114629 0.775068
39 1.16699 0 0 -0.0493731 -0.0470546 0.50394
40 2.18853 -0.501041 0.057659 -1.57004 0.000184469 -0.21278
41 1.29609 0 0 -0.0358609 -0.0301293 1.06108
42 1.62202 -0.000715256 -0.000469685 -0.00103445 -0.0015768 1.01338
43 1.22241 0 0 0.0173377 0.0316406 0.340004
44 1.76707 -1.27612 0.0366406 -1.57138 0.117893 -0.216239
45 1.55587 0 0 0.00173175 -0.107165 1.01098
46 1.24273 0 0 0.000590247 -0.000104643 0.855255
47 0.784532 0 0 -0.00592611 0.00084008 1.11775
48 0 0 0 0 0 0
49 5 -19.3184 -5.2717 0 0 0
50 0 -1.51208 1.07027 0 0 0
51 0.540026 -0.371634 1.70232 0 0 0
52 0 -4.95107 2.17037 0 0 0
53 0 -2.31355 1.98216 0 0 0
54 5 -18.549 -6.10007 0 0 0
55 0 -0.828913 2.14576 0 0 0
56 0 -0.679308 2.16008 0 0 0
time 1
0 7.58967 10.8278 -3.60973 0.000934124 0 -1.06437
1 6.02794 0 0 -1.03678 0.412868 -0.557115
2 11.7344 0 0 -0.00140275 0 -0.799914
3 8.81139 -0.000450134 -0.000112057 0.0930659 0 0.000158037
4 5.77839 0.000286102 0 0.0623542 0 0.000106262
5 2.23163 -0.000329018 -0.000363827 0.0307118 0 0
6 11.4725 0 0 -0.246854 -0.457991 0.68343
7 0.615219 -0.993091 -0.8107 -3.01423 0.324565 -0.386014
8 2.24752 0 0 0.0800071 0.0026471 -0.146496
9 1.11936 0 0 0.0512105 0.062516 -0.327822
10 3.71348 -0.102641 0.102191 1.38754 0.842929 0.0672855
11 1.72615 0 0 0.00945167 -0.00623855 -1.09905
12 1.21114 0 0 -0.0132692 0.0116177 -1.44917
13 3.59919 -1.06012 0.0708873 1.43596 0.2451 -0.065235
14 1.66069 0 0 -0.0373212 0.0637185 -0.723921
15 1.167 0 0 -0.0270323 0.0140908 -0.690861
16 2.18852 0.501039 0.0576591 1.55548 0.166718 0.138312
17 1.29609 0 0 -0.185212 -0.0418434 -0.654895
18 1.62202 0.000713348 -0.000471592 0.0143688 -0.0178807 -1.11
19 1.22241 0 0 -0.00702549 0.00524253 -1.42423
20 1.76707 1.27612 0.0366408 1.27805 0.322855 0.136707
21 1.55588 0 0 -0.0225085 0.0235834 -0.467635
22 1.24273 0 0 -0.000596463 0 -0.783974
23 0.784523 0 0 0.00616285 -0.00061528 -0.941499
24 2.85835 9.28793 -4.43253 0.726982 0.410583 -1.99191
25 6.02794 0 0 0.0464444 0.0830433 0.228521
26 11.7344 0 0 0.00140269 0 0.923744
27 8.81167 0 0 0.86257 0 0
28 5.77884 0 0 0.577922 0 0
29 2.23249 0 0 0.284648 0 0
30 11.4725 0 0 0.881353 0.308224 -0.718926
31 0.615814 0.994373 -0.809165 -2.35227 0.0187304 0.46255
32 2.24752 0 0 -0.0459564 0.244746 0.234216
33 1.11936 0 0 -0.0408308 0.257423 0.212558
34 3.71349 0.102639 0.102191 -1.7258 1.11243 -0.263964
35 1.72615 0 0 0.00219621 0.00206195 0.928466
36 1.21112 0 0 -0.00470665 0.0169967 0.327294
37 3.5992 1.06012 0.0708879 -1.81456 1.00851 -0.246313
38 1.66069 0 0 0.0070774 0.0114628 0.775068
39 1.16699 0 0 -0.049373 -0.0470546 0.50394
40 2.18853 -0.501041 0.0576591 -1.57004 0.000184387 -0.212779
41 1.29609 0 0 -0.0358609 -0.0301294 1.06108
42 1.62202 -0.000713348 -0.000470638 -0.00103429 -0.00157683 1.01338
43 1.22241 0 0 0.0173376 0.0316406 0.340004
44 1.76707 -1.27612 0.0366405 -1.57138 0.117892 -0.216239
45 1.55588 0 0 0.0017317 -0.107165 1.01098
46 1.24273 0 0 0.000590199 -0.000104613 0.855255
47 0.784531 0 0 -0.00592615 0.000840007 1.11775
48 0 0 0 0 0 0
49 5.00367 -19.3038 -5.28107 0.030546 0.012857 0.000393
50 0 -1.50715 1.083 0.153348 0 0
51 0.540026 -0.371319 1.69998 -0.00829681 0 0
52 0 -4.07472 2.17037 0 0 0
53 0 -2.31355 1.93404 -0.0194117 0 0
54 4.99301 -18.5095 -6.0855 0.030546 0.012857 0.000393
55 0 -0.829571 2.14762 0 0 0
56 0 -0.677694 2.15414 0 0 0
time 2
0 7.58967 10.8278 -3.60973 0.000934124 0 -1.06437
1 6.02794 0 0 -0.978696 0.534019 -0.492528
2 11.7344 0 0 -0.0014027 0 -1.03864
3 8.81138 -0.000452042 -0.00011301 0.17211 0 0.000157751
4 5.77839 0.000284195 0 0.115314 0 0.000106468
5 2.23163 -0.000330925 -0.00036335 0.0567964 0 0
6 11.4725 0 0 -0.231877 -0.541873 0.695184
7 0.615219 -0.993091 -0.8107 -3.01423 0.324565 -0.386014
8 2.24752 0 0 0.0800073 0.00264717 -0.146496
9 1.11936 0 0 0.0512105 0.0625159 -0.327821
10 3.71348 -0.102641 0.102191 1.38754 0.842929 0.0672859
11 1.72615 0 0 0.00945179 -0.00623858 -1.09905
12 1.21114 0 0 -0.0132693 0.0116176 -1.44917
13 3.59919 -1.06012 0.0708872 1.43584 0.247283 -0.0643818
14 1.66069 0 0 -0.0368463 0.0638438 -0.716978
15 1.167 0 0 -0.0269164 0.0140755 -0.683926
16 2.18852 0.501039 0.0576587 1.55548 0.166718 0.138312
17 1.29609 0 0 -0.185212 -0.0418434 -0.654895
18 1.62202 0.000712395 -0.000471115 0.0143687 -0.0178807 -1.11
19 1.22241 0 0 -0.00702547 0.00524261 -1.42423
20 1.76707 1.27612 0.0366408 1.27805 0.322855 0.136707
21 1.55588 0 0 -0.0225085 0.0235834 -0.467635
22 1.24274 0 0 -0.000596407 0 -0.783974
23 0.784524 0 0 0.00616286 -0.000615259 -0.9415
24 2.85835 9.28793 -4.43253 0.726982 0.410583 -1.99191
25 6.02794 0 0 0.0204873 0.0961471 0.11692
26 11.7344 0 0 0.00140271 0 1.13542
27 8.81167 0 0 0.860188 0 0
28 5.77884 0 0 0.576326 0 0
29 2.23249 0 0 0.283862 0 0
30 11.4725 0 0 0.91896 0.226955 -0.72195
31 0.615814 0.994372 -0.809165 -2.35227 0.0187304 0.46255
32 2.24752 0 0 -0.0459563 0.244746 0.234216
33 1.11936 0 0 -0.0408308 0.257423 0.212558
34 3.71349 0.102639 0.102191 -1.7258 1.11243 -0.263964
35 1.72615 0 0 0.00219615 0.00206198 0.928466
36 1.21112 0 0 -0.00470665 0.0169966 0.327294
37 3.5992 1.06012 0.0708883 -1.81456 1.00851 -0.246313
38 1.66069 0 0 0.00707746 0.0114628 0.775068
39 1.16699 0 0 -0.0493731 -0.0470546 0.50394
40 2.18853 -0.501041 0.0576593 -1.57004 0.000184409 -0.21278
41 1.29609 0 0 -0.0358608 -0.0301294 1.06108
42 1.62202 -0.000713348 -0.000470161 -0.00103438 -0.00157674 1.01338
43 1.22241 0 0 0.0173376 0.0316406 0.340004
44 1.76707 -1.27612 0.0366405 -1.57138 0.117892 -0.216239
45 1.55588 0 0 0.0017317 -0.107165 1.01097
46 1.24273 0 0 0.000590275 -0.000104644 0.855255
47 0.784531 0 0 -0.00592613 0.000839989 1.11775
48 0 0 0 0 0 0
49 5 -17.9935 -5.2717 -0.079767 -0.010131 0.00081
50 0 -1.50025 1.10082 0.306695 0 0
51 0.540026 -0.371637 1.70232 0 0 0
52 0 -3.19837 2.17037 0 0 0
53 0 -2.31356 1.88593 -0.0388233 0 0
54 5.00842 -17.2926 -6.1587 -0.079767 -0.010131 0.00081
55 0 -0.830212 2.14943 0 0 0
56 0 -0.676115 2.14834 0 0 0
time 3
0 7.58967 10.8278 -3.60973 0.000934124 0 -1.06437
1 6.02794 0 0 -0.962592 0.560855 -0.475843
2 11.7344 0 0 -0.00140278 0 -1.086
3 8.81138 -0.000449181 -0.000112534 0.220339 0 0.000157752
4 5.77839 0.000286102 0 0.147627 0 0.000106824
5 2.23163 -0.000329018 -0.000365257 0.072712 0 0
6 11.4725 0 0 -0.166504 -0.573713 0.6379
7 0.615219 -0.993091 -0.8107 -3.01423 0.324565 -0.386014
8 2.24752 0 0 0.0800071 0.00264701 -0.146496
9 1.11936 0 0 0.0512103 0.0625159 -0.327821
10 3.71348 -0.10264 0.102191 1.38753 0.842929 0.0672855
11 1.72615 0 0 0.00945178 -0.00623857 -1.09905
12 1.21114 0 0 -0.0132693 0.0116176 -1.44917
13 3.59919 -1.06012 0.0708885 1.43566 0.250796 -0.0630065
14 1.66069 0 0 -0.0360782 0.0640384 -0.705804
15 1.167 0 0 -0.0267259 0.0140482 -0.672766
16 2.18852 0.50104 0.0576591 1.55548 0.166719 0.138312
17 1.29609 0 0 -0.185212 -0.0418433 -0.654895
18 1.62202 0.000715256 -0.000470877 0.0143688 -0.0178807 -1.11
19 1.22241 0 0 -0.00702547 0.0052426 -1.42423
20 1.76707 1.27612 0.0366416 1.27805 0.322855 0.136707
21 1.55588 0 0 -0.0225085 0.0235834 -0.467635
22 1.24273 0 0 -0.000596411 0 -0.783974
23 0.784523 0 0 0.00616288 -0.000615261 -0.941499
24 2.85835 9.28793 -4.43253 0.726982 0.410583 -1.99191
25 6.02794 0 0 0.0078778 0.101569 0.0921871
26 11.7344 0 0 0.00140273 0 1.17698
27 8.81167 0 0 0.903325 0 0
28 5.77884 0 0 0.605228 0 0
29 2.23249 0 0 0.298097 0 0
30 11.4725 0 0 0.974251 0.173927 -0.685276
31 0.615812 0.994373 -0.809165 -2.35227 0.0187305 0.46255
32 2.24752 0 0 -0.0459563 0.244746 0.234216
33 1.11936 0 0 -0.0408308 0.257423 0.212558
34 3.71348 0.102639 0.102191 -1.7258 1.11243 -0.263964
35 1.72615 0 0 0.00219624 0.00206194 0.928466
36 1.21112 0 0 -0.00470662 0.0169966 0.327294
37 3.5992 1.06012 0.0708882 -1.81456 1.00851 -0.246313
38 1.66069 0 0 0.00707749 0.0114628 0.775068
39 1.16699 0 0 -0.049373 -0.0470546 0.50394
40 2.18853 -0.50104 0.0576594 -1.57004 0.000184521 -0.21278
41 1.29609 0 0 -0.0358609 -0.0301294 1.06108
42 1.62202 -0.000715256 -0.000469685 -0.00103437 -0.00157679 1.01338
43 1.22241 0 0 0.0173377 0.0316405 0.340004
44 1.76707 -1.27612 0.0366406 -1.57138 0.117892 -0.216239
45 1.55588 0 0 0.00173177 -0.107165 1.01098
46 1.24273 0 0 0.000590215 -0.000104579 0.855255
47 0.784532 0 0 -0.00592623 0.000839992 1.11775
48 0 0 0 0 0 0
49 4.97144 -17.671 -5.19817 -0.138175 -0.059805 -0.00714232
50 0 -1.49729 1.10846 0.306695 0 0
51 0.540026 -0.374458 1.72347 0.054213 0 0
52 0 -3.19837 2.17037 0 0 0
53 0 -2.31356 1.88593 -0.0388233 0 0
54 5.03144 -17.0234 -6.12296 -0.138175 -0.059805 -0.00714232
55 0 -0.830839 2.1512 0 0 0
56 0 -0.674574 2.14268 0 0 0
time 4
0 7.58967 10.8278 -3.60973 0.000934124 0 -1.06437
1 6.02794 0 0 -0.980472 0.531147 -0.494118
2 11.7344 0 0 -0.00140297 0 -1.01582
3 8.81139 -0.000449181 -0.000112534 0.235776 0 0.000157455
4 5.77839 0.000286102 0 0.15797 0 0.00010669
5 2.23164 -0.000329018 -0.000363827 0.0778061 0 0
6 11.4725 0 0 -0.0905353 -0.571916 0.543314
7 0.615219 -0.993091 -0.8107 -3.01423 0.324565 -0.386014
8 2.24752 0 0 0.0800071 0.00264716 -0.146496
9 1.11936 0 0 0.0512107 0.062516 -0.327822
10 3.71348 -0.102641 0.102191 1.38754 0.842929 0.0672858
11 1.72615 0 0 0.00945177 -0.00623856 -1.09905
12 1.21114 0 0 -0.0132692 0.0116176 -1.44917
13 3.59919 -1.06012 0.0708877 1.43542 0.255537 -0.0611466
14 1.66069 0 0 -0.0350346 0.0642874 -0.690724
15 1.167 0 0 -0.0264606 0.0140068 -0.657705
16 2.18852 0.50104 0.0576587 1.55548 0.166719 0.138312
17 1.29609 0 0 -0.185212 -0.0418433 -0.654895
18 1.62202 0.000712395 -0.000471115 0.0143688 -0.0178808 -1.11
19 1.22241 0 0 -0.00702546 0.00524259 -1.42423
20 1.76707 1.27612 0.0366404 1.27805 0.322855 0.136707
21 1.55588 0 0 -0.0225085 0.0235834 -0.467635
22 1.24274 0 0 -0.000596371 0 -0.783974
23 0.784523 0 0 0.00616287 -0.000615276 -0.9415
24 2.85835 9.28793 -4.43253 0.726982 0.410583 -1.99191
25 6.02794 0 0 0.00839804 0.102701 0.124343
26 11.7344 0 0 0.00140269 0 1.10694
27 8.81167 0 0 0.963816 0 0
28 5.77884 0 0 0.645757 0 0
29 2.23249 0 0 0.318059 0 0
30 11.4725 0 0 1.02591 0.142111 -0.619554
31 0.615812 0.994372 -0.809165 -2.35227 0.0187304 0.46255
32 2.24752 0 0 -0.0459563 0.244746 0.234216
33 1.11936 0 0 -0.0408307 0.257423 0.212558
34 3.71348 0.102639 0.102191 -1.7258 1.11243 -0.263964
35 1.72615 0 0 0.00219624 0.00206192 0.928466
36 1.21112 0 0 -0.00470669 0.0169966 0.327294
37 3.5992 1.06012 0.070888 -1.81456 1.00851 -0.246314
38 1.66069 0 0 0.00707748 0.0114628 0.775068
39 1.16699 0 0 -0.0493731 -0.0470546 0.50394
40 2.18853 -0.50104 0.0576589 -1.57004 0.000184454 -0.21278
41 1.29609 0 0 -0.0358608 -0.0301293 1.06108
42 1.62202 -0.000711441 -0.000470161 -0.00103432 -0.00157675 1.01338
43 1.22241 0 0 0.0173376 0.0316406 0.340004
44 1.76707 -1.27612 0.0366406 -1.57138 0.117893 -0.21624
45 1.55587 0 0 0.00173182 -0.107165 1.01098
46 1.24273 0 0 0.00059025 -0.000104646 0.855255
47 0.784533 0 0 -0.00592617 0.000839921 1.11775
48 0 0 0 0 0 0
49 4.92637 -18.0861 -5.08245 -0.167568 -0.111419 -0.016786
50 0 -1.49631 1.11101 0.306695 0 0
51 0.540026 -0.376656 1.73991 0.132749 0 0
52 0 -3.19837 2.17037 0 0 0
53 0 -2.31355 1.88593 -0.0388234 0 0
54 5.04185 -17.4675 -6.02169 -0.167568 -0.111419 -0.016786
55 0 -0.831451 2.15292 0 0 0
56 0 -0.673079 2.13717 0 0 0
time 5
0 7.58967 10.8278 -3.60973 0.000934124 0 -1.06437
1 6.02794 0 0 -0.9969 0.498904 -0.513867
2 11.7344 0 0 -0.00140285 0 -0.943172
3 8.81138 -0.000450134 -0.00011158 0.231318 0 0.000157847
4 5.77839 0.00028801 0 0.154983 0 0.000106856
5 2.23163 -0.000329018 -0.00036335 0.0763348 0 0
6 11.4725 0 0 -0.0549532 -0.568996 0.477021
7 0.615219 -0.993091 -0.8107 -3.01423 0.324565 -0.386014
8 2.24752 0 0 0.0800072 0.00264715 -0.146496
9 1.11936 0 0 0.0512107 0.062516 -0.327821
10 3.71348 -0.10264 0.102191 1.38754 0.842929 0.0672859
11 1.72615 0 0 0.00945178 -0.00623856 -1.09905
12 1.21114 0 0 -0.0132693 0.0116177 -1.44917
13 3.59919 -1.06012 0.0708886 1.43515 0.261401 -0.0588384
14 1.66069 0 0 -0.0337323 0.0645736 -0.672063
15 1.167 0 0 -0.0261195 0.0139475 -0.639069
16 2.18852 0.50104 0.0576596 1.55548 0.166718 0.138312
17 1.29609 0 0 -0.185212 -0.0418434 -0.654895
18 1.62202 0.000713348 -0.000471592 0.0143688 -0.0178808 -1.11
19 1.22241 0 0 -0.00702544 0.00524263 -1.42423
20 1.76707 1.27612 0.0366409 1.27805 0.322855 0.136707
21 1.55588 0 0 -0.0225085 0.0235834 -0.467635
22 1.24273 0 0 -0.000596437 0 -0.783974
23 0.784523 0 0 0.00616288 -0.000615276 -0.941499
24 2.85835 9.28793 -4.43253 0.726982 0.410583 -1.99191
25 6.02794 0 0 0.0134401 0.101449 0.157861
26 11.7344 0 0 0.00140264 0 1.03674
27 8.81167 0 0 0.992962 0 0
28 5.77884 0 0 0.665284 0 0
29 2.23249 0 0 0.327677 0 0
30 11.4725 0 0 1.04506 0.128058 -0.568725
31 0.615812 0.994373 -0.809166 -2.35227 0.0187304 0.46255
32 2.24752 0 0 -0.0459565 0.244746 0.234216
33 1.11936 0 0 -0.0408308 0.257423 0.212558
34 3.71348 0.102639 0.102191 -1.7258 1.11243 -0.263964
35 1.72615 0 0 0.0021962 0.00206194 0.928466
36 1.21112 0 0 -0.00470664 0.0169965 0.327294
37 3.5992 1.06012 0.0708883 -1.81456 1.00851 -0.246313
38 1.66069 0 0 0.00707747 0.0114629 0.775068
39 1.16699 0 0 -0.0493731 -0.0470546 0.50394
40 2.18853 -0.501041 0.0576589 -1.57004 0.000184484 -0.21278
41 1.29609 0 0 -0.0358609 -0.0301293 1.06108
42 1.62202 -0.000715256 -0.000468731 -0.00103442 -0.00157682 1.01338
43 1.22241 0 0 0.0173377 0.0316407 0.340004
44 1.76707 -1.27612 0.0366404 -1.57138 0.117892 -0.216239
45 1.55587 0 0 0.00173171 -0.107165 1.01098
46 1.24273 0 0 0.000590308 -0.000104698 0.855255
47 0.784532 0 0 -0.00592621 0.000840023 1.11775
48 0 0 0 0 0 0
49 4.88995 -18.4886 -4.9905 -0.184171 -0.133251 -0.0200134
50 0 -1.49729 1.10846 0.306695 0 0
51 0.572821 -0.371632 1.73556 0.2455 -0.112897 0
52 0 -3.19837 2.17037 0 0 0
53 0 -2.31355 1.88593 -0.0388233 0 0
54 5.02894 -17.8865 -5.9373 -0.184171 -0.133251 -0.0200134
55 0 -0.832041 2.1546 0 0 0
56 0 -0.671618 2.13181 0 0 0
time 6
0 7.58967 10.8278 -3.60973 0.000934124 0 -1.06437
1 6.02794 0 0 -1.0029 0.485641 -0.521961
2 11.7344 0 0 -0.00140282 0 -0.918421
3 8.81138 -0.000450134 -0.000111103 0.22555 0 0.000157874
4 5.77839 0.000286102 0 0.151119 0 0.000106909
5 2.23163 -0.000329018 -0.00036335 0.0744316 0 0
6 11.4725 0 0 -0.0574628 -0.566084 0.474241
7 0.615219 -0.993092 -0.8107 -3.01423 0.324565 -0.386014
8 2.24752 0 0 0.0800073 0.00264705 -0.146496
9 1.11936 0 0 0.0512105 0.0625159 -0.327821
10 3.71348 -0.102642 0.102191 1.38754 0.842929 0.0672856
11 1.72615 0 0 0.00945179 -0.00623854 -1.09905
12 1.21114 0 0 -0.0132693 0.0116177 -1.44917
13 3.59919 -1.06012 0.0708879 1.43488 0.268287 -0.0561184
14 1.66069 0 0 -0.0321878 0.0648787 -0.650146
15 1.167 0 0 -0.0257011 0.0138667 -0.617183
16 2.18853 0.50104 0.0576594 1.55548 0.166718 0.138312
17 1.29609 0 0 -0.185212 -0.0418433 -0.654895
18 1.62202 0.000714302 -0.000471592 0.0143688 -0.0178807 -1.11
19 1.22241 0 0 -0.00702545 0.00524257 -1.42423
20 1.76707 1.27612 0.0366411 1.27805 0.322855 0.136707
21 1.55588 0 0 -0.0225085 0.0235834 -0.467635
22 1.24274 0 0 -0.000596412 0 -0.783974
23 0.784524 0 0 0.00616287 -0.000615272 -0.9415
24 2.85835 9.28793 -4.43253 0.726982 0.410583 -1.99191
25 6.02794 0 0 0.0178952 0.0993931 0.169922
26 11.7344 0 0 0.00140267 0 1.01378
27 8.81167 0 0 0.993106 0 0
28 5.77884 0 0 0.665381 0 0
29 2.23249 0 0 0.327725 0 0
30 11.4725 0 0 1.04155 0.136833 -0.561602
31 0.615812 0.994372 -0.809166 -2.35227 0.0187305 0.46255
32 2.24752 0 0 -0.0459564 0.244746 0.234216
33 1.11935 0 0 -0.0408306 0.257423 0.212558
34 3.71349 0.102639 0.102191 -1.7258 1.11243 -0.263964
35 1.72615 0 0 0.00219626 0.00206194 0.928466
36 1.21112 0 0 -0.00470662 0.0169966 0.327294
37 3.5992 1.06012 0.070888 -1.81456 1.00851 -0.246313
38 1.66069 0 0 0.00707752 0.0114628 0.775068
39 1.16699 0 0 -0.0493731 -0.0470546 0.50394
40 2.18853 -0.501041 0.0576591 -1.57004 0.000184573 -0.21278
41 1.29609 0 0 -0.0358609 -0.0301293 1.06108
42 1.62202 -0.000715256 -0.000469208 -0.00103441 -0.00157666 1.01338
43 1.22241 0 0 0.0173377 0.0316405 0.340004
44 1.76707 -1.27612 0.0366402 -1.57138 0.117892 -0.21624
45 1.55587 0 0 0.00173175 -0.107165 1.01098
46 1.24273 0 0 0.000590304 -0.000104778 0.855255
47 0.784533 0 0 -0.0059262 0.000839931 1.11775
48 0 0 0 0 0 0
49 4.87469 -18.6261 -4.95601 -0.178134 -0.131225 -0.018574
50 0 -1.50025 1.10082 0.306695 0 0
51 0.572821 -0.371635 1.73556 0.2455 -0.112897 0
52 0 -3.19837 2.17037 0 0 0
53 0 -2.31355 1.88593 -0.0388233 0 0
54 5.01052 -18.0181 -5.89943 -0.178134 -0.131225 -0.018574
55 0 -0.832619 2.15623 0 0 0
56 0 -0.670202 2.1266 0 0 0
time 7
0 7.58967 10.8278 -3.60973 0.000934124 0 -1.06437
1 6.02794 0 0 -1.00806 0.473123 -0.529752
2 11.7344 0 0 -0.00140287 0 -0.897639
3 8.81138 -0.000450134 -0.000112057 0.209502 0 0.0001581
4 5.77839 0.000286102 0 0.140366 0 0.00010695
5 2.23163 -0.000329971 -0.00036478 0.0691356 0 0
6 11.4725 0 0 -0.0845927 -0.560537 0.499411
7 0.615219 -0.993091 -0.810699 -3.01423 0.324565 -0.386014
8 2.24752 0 0 0.0800072 0.00264701 -0.146496
9 1.11936 0 0 0.0512104 0.062516 -0.327822
10 3.71348 -0.102641 0.102192 1.38754 0.842929 0.067286
11 1.72615 0 0 0.00945177 -0.00623858 -1.09905
12 1.21114 0 0 -0.0132693 0.0116176 -1.44917
13 3.59919 -1.06012 0.0708877 1.43461 0.27609 -0.0530214
14 1.66069 0 0 -0.0304182 0.0651834 -0.6253
15 1.167 0 0 -0.0252038 0.0137592 -0.592372
16 2.18852 0.50104 0.0576596 1.55548 0.166718 0.138312
17 1.29609 0 0 -0.185212 -0.0418433 -0.654895
18 1.62202 0.000712395 -0.000471592 0.0143687 -0.0178808 -1.11
19 1.22241 0 0 -0.00702545 0.00524258 -1.42423
20 1.76707 1.27612 0.0366411 1.27805 0.322855 0.136708
21 1.55588 0 0 -0.0225086 0.0235834 -0.467635
22 1.24274 0 0 -0.000596417 0 -0.783974
23 0.784524 0 0 0.0061629 -0.000615249 -0.9415
24 2.85835 9.28793 -4.43253 0.726982 0.410583 -1.99191
25 6.02794 0 0 0.0239593 0.0961771 0.179664
26 11.7344 0 0 0.00140266 0 0.996761
27 8.81167 0 0 0.97651 0 0
28 5.77884 0 0 0.654262 0 0
29 2.23249 0 0 0.322249 0 0
30 11.4725 0 0 1.02111 0.162111 -0.571182
31 0.615814 0.994372 -0.809165 -2.35227 0.0187304 0.46255
32 2.24752 0 0 -0.0459565 0.244746 0.234216
33 1.11936 0 0 -0.0408307 0.257423 0.212558
34 3.71349 0.102639 0.102191 -1.7258 1.11243 -0.263964
35 1.72615 0 0 0.00219628 0.00206192 0.928466
36 1.21112 0 0 -0.00470667 0.0169966 0.327294
37 3.5992 1.06012 0.0708882 -1.81456 1.00851 -0.246313
38 1.66069 0 0 0.00707744 0.0114628 0.775068
39 1.16699 0 0 -0.0493731 -0.0470546 0.50394
40 2.18853 -0.501041 0.0576589 -1.57004 0.000184417 -0.21278
41 1.29609 0 0 -0.0358609 -0.0301294 1.06108
42 1.62202 -0.000713348 -0.000470161 -0.00103445 -0.00157678 1.01338
43 1.22241 0 0 0.0173377 0.0316406 0.340004
44 1.76707 -1.27612 0.0366406 -1.57138 0.117892 -0.21624
45 1.55588 0 0 0.00173182 -0.107165 1.01098
46 1.24273 0 0 0.00059035 -0.000104624 0.855255
47 0.784531 0 0 -0.0059262 0.000839929 1.11775
48 0 0 0 0 0 0
49 4.87397 -18.7477 -4.96202 -0.156119 -0.112316 -0.0138973
50 0 -1.50715 1.083 0.153348 0 0
51 0.572822 -0.371634 1.73556 0.2455 -0.112897 0
52 0 -3.19837 2.17037 0 0 0
53 0 -2.31355 1.88593 -0.0388234 0 0
54 4.98786 -18.118 -5.89404 -0.156119 -0.112316 -0.0138973
55 0 -0.833179 2.1578 0 0 0
56 0 -0.668831 2.12156 0 0 0
time 8
0 7.58967 10.8278 -3.60973 0.000934124 0 -1.06437
1 6.02794 0 0 -1.01266 0.461562 -0.5368
2 11.7344 0 0 -0.00140283 0 -0.879714
3 8.81139 -0.000450134 -0.00011158 0.186668 0 0.000157792
4 5.77839 0.000286102 0 0.125068 0 0.000106638
5 2.23164 -0.000329971 -0.000362396 0.0616005 0 0
6 11.4725 0 0 -0.125468 -0.551317 0.539693
7 0.61522 -0.993091 -0.8107 -3.01423 0.324565 -0.386014
8 2.24752 0 0 0.0800073 0.00264714 -0.146496
9 1.11936 0 0 0.0512104 0.062516 -0.327822
10 3.71348 -0.102641 0.102191 1.38754 0.842929 0.0672859
11 1.72615 0 0 0.00945184 -0.00623856 -1.09905
12 1.21114 0 0 -0.0132693 0.0116177 -1.44917
13 3.59919 -1.06012 0.0708874 1.43438 0.284707 -0.0495832
14 1.66069 0 0 -0.0284413 0.0654688 -0.597847
15 1.167 0 0 -0.0246265 0.0136208 -0.56496
16 2.18852 0.50104 0.0576589 1.55548 0.166718 0.138312
17 1.29609 0 0 -0.185212 -0.0418434 -0.654895
18 1.62202 0.000714302 -0.000470877 0.0143688 -0.0178807 -1.11
19 1.22241 0 0 -0.00702545 0.00524262 -1.42423
20 1.76707 1.27612 0.0366411 1.27805 0.322855 0.136707
21 1.55588 0 0 -0.0225085 0.0235834 -0.467635
22 1.24274 0 0 -0.000596425 0 -0.783974
23 0.784524 0 0 0.00616288 -0.000615258 -0.9415
24 2.85835 9.28793 -4.43253 0.726982 0.410583 -1.99191
25 6.02794 0 0 0.0304842 0.0924964 0.188156
26 11.7344 0 0 0.00140275 0 0.983129
27 8.81167 0 0 0.950296 0 0
28 5.77884 0 0 0.636698 0 0
29 2.23249 0 0 0.313598 0 0
30 11.4725 0 0 0.990001 0.195241 -0.591956
31 0.615814 0.994372 -0.809166 -2.35227 0.0187305 0.46255
32 2.24752 0 0 -0.0459564 0.244746 0.234216
33 1.11936 0 0 -0.0408308 0.257423 0.212558
34 3.71349 0.102639 0.102191 -1.7258 1.11243 -0.263964
35 1.72615 0 0 0.00219631 0.00206201 0.928466
36 1.21112 0 0 -0.00470672 0.0169966 0.327294
37 3.5992 1.06012 0.0708882 -1.81456 1.00851 -0.246313
38 1.66069 0 0 0.00707754 0.0114628 0.775068
39 1.16699 0 0 -0.0493731 -0.0470545 0.50394
40 2.18853 -0.501041 0.0576589 -1.57004 0.000184417 -0.21278
41 1.29609 0 0 -0.035861 -0.0301294 1.06108
42 1.62202 -0.000713348 -0.000469208 -0.00103429 -0.00157685 1.01338
43 1.22241 0 0 0.0173376 0.0316406 0.340004
44 1.76707 -1.27612 0.0366406 -1.57138 0.117892 -0.216239
45 1.55588 0 0 0.00173179 -0.107165 1.01097
46 1.24273 0 0 0.000590269 -0.000104657 0.855255
47 0.784533 0 0 -0.00592622 0.000839903 1.11775
48 0 0 0 0 0 0
49 4.88426 -18.8555 -4.99848 -0.124791 -0.0835008 -0.00741322
50 0 -1.51208 1.07027 0 0 0
51 0.572822 -0.371634 1.73556 0.2455 -0.112897 0
52 0 -3.19837 2.17037 0 0 0
53 0 -2.31356 1.88593 -0.0388233 0 0
54 4.96569 -18.1957 -5.91299 -0.124791 -0.0835008 -0.00741322
55 0 -0.833717 2.15933 0 0 0
56 0 -0.667501 2.11667 0 0 0
time 9
0 7.58967 10.8278 -3.60973 0.000934124 0 -1.06437
1 6.02794 0 0 -1.0169 0.451032 -0.542883
2 11.7344 0 0 -0.00140279 0 -0.863145
3 8.81139 -0.000451088 -0.000113487 0.160773 0 0.000157958
4 5.77839 0.000287056 0 0.107718 0 0.000106667
5 2.23164 -0.000329018 -0.000364304 0.0530551 0 0
6 11.4725 0 0 -0.169371 -0.538574 0.582404
7 0.61522 -0.993091 -0.8107 -3.01423 0.324565 -0.386014
8 2.24752 0 0 0.0800073 0.00264704 -0.146496
9 1.11935 0 0 0.0512105 0.0625161 -0.327822
10 3.71348 -0.102641 0.102191 1.38754 0.842929 0.0672859
11 1.72615 0 0 0.00945174 -0.00623855 -1.09905
12 1.21114 0 0 -0.0132693 0.0116177 -1.44917
13 3.59919 -1.06012 0.0708886 1.4342 0.294035 -0.0458386
14 1.66069 0 0 -0.0262761 0.0657165 -0.568116
15 1.167 0 0 -0.0239687 0.0134466 -0.535275
16 2.18852 0.50104 0.0576593 1.55548 0.166719 0.138312
17 1.29609 0 0 -0.185212 -0.0418434 -0.654895
18 1.62202 0.000715256 -0.000471354 0.0143688 -0.0178808 -1.11
19 1.22241 0 0 -0.00702548 0.00524255 -1.42423
20 1.76707 1.27612 0.0366408 1.27805 0.322855 0.136707
21 1.55588 0 0 -0.0225085 0.0235834 -0.467635
22 1.24273 0 0 -0.000596391 0 -0.783974
23 0.784523 0 0 0.00616288 -0.000615296 -0.9415
24 2.85835 9.28793 -4.43253 0.726982 0.410583 -1.99191
25 6.02794 0 0 0.036355 0.0890693 0.196009
26 11.7344 0 0 0.00140266 0 0.97106
27 8.81167 0 0 0.921397 0 0
28 5.77884 0 0 0.617336 0 0
29 2.23249 0 0 0.304061 0 0
30 11.4725 0 0 0.95498 0.228177 -0.617901
31 0.615814 0.994372 -0.809165 -2.35227 0.0187304 0.46255
32 2.24752 0 0 -0.0459563 0.244746 0.234216
33 1.11936 0 0 -0.0408308 0.257423 0.212558
34 3.71349 0.102639 0.102191 -1.7258 1.11243 -0.263964
35 1.72615 0 0 0.00219629 0.00206197 0.928466
36 1.21112 0 0 -0.00470671 0.0169966 0.327294
37 3.5992 1.06012 0.0708884 -1.81456 1.00851 -0.246313
38 1.66069 0 0 0.00707744 0.0114628 0.775068
39 1.16699 0 0 -0.0493731 -0.0470546 0.50394
40 2.18853 -0.50104 0.057659 -1.57004 0.000184491 -0.21278
41 1.29609 0 0 -0.0358609 -0.0301295 1.06108
42 1.62202 -0.000715256 -0.000469685 -0.00103438 -0.00157682 1.01338
43 1.22241 0 0 0.0173376 0.0316406 0.340004
44 1.76707 -1.27612 0.0366405 -1.57138 0.117892 -0.21624
45 1.55588 0 0 0.00173174 -0.107165 1.01098
46 1.24273 0 0 0.000590351 -0.000104658 0.855255
47 0.784531 0 0 -0.0059262 0.000839932 1.11775
48 0 0 0 0 0 0
49 4.90202 -18.9512 -5.05536 -0.0908124 -0.0517545 -0.000551296
50 0 -1.51208 1.07027 0 0 0
51 0.572821 -0.371635 1.73556 0.2455 -0.112897 0
52 0 -3.19837 2.17037 0 0 0
53 0 -2.31355 1.88593 -0.0388233 0 0
54 4.94869 -18.2602 -5.9489 -0.0908124 -0.0517545 -0.000551296
55 0 -0.834236 2.1608 0 0 0
56 0 -0.66622 2.11196 0 0 0
time 10
0 7.58967 10.8278 -3.60973 0.000934124 0 -1.06437
1 6.02794 0 0 -1.0206 0.442148 -0.54766
2 11.7344 0 0 -0.00140287 0 -0.847684
3 8.81139 -0.000449181 -0.000112057 0.136522 0 0.00015755
4 5.77839 0.000286102 0 0.0914696 0 0.000106266
5 2.23163 -0.000328064 -0.00036335 0.0450522 0 0
6 11.4725 0 0 -0.20645 -0.524815 0.616787
7 0.615221 -0.993091 -0.8107 -3.01423 0.324565 -0.386014
8 2.24752 0 0 0.0800072 0.00264717 -0.146496
9 1.11936 0 0 0.0512107 0.062516 -0.327822
10 3.71348 -0.102641 0.102191 1.38754 0.842929 0.0672859
11 1.72615 0 0 0.00945176 -0.00623864 -1.09905
12 1.21114 0 0 -0.0132693 0.0116176 -1.44917
13 3.59919 -1.06012 0.0708882 1.43408 0.30397 -0.0418226
14 1.66068 0 0 -0.0239434 0.0659093 -0.53643
15 1.167 0 0 -0.0232316 0.0132318 -0.50364
16 2.18852 0.50104 0.0576595 1.55548 0.166718 0.138312
17 1.29609 0 0 -0.185212 -0.0418434 -0.654895
18 1.62202 0.000712395 -0.000471592 0.0143688 -0.0178808 -1.11
19 1.22241 0 0 -0.0070255 0.00524258 -1.42423
20 1.76707 1.27612 0.0366416 1.27805 0.322855 0.136707
21 1.55588 0 0 -0.0225085 0.0235834 -0.467635
22 1.24274 0 0 -0.0005964 0 -0.783974
23 0.784524 0 0 0.00616288 -0.000615259 -0.9415
24 2.85835 9.28793 -4.43253 0.726982 0.410583 -1.99191
25 6.02794 0 0 0.0405406 0.0865773 0.203276
26 11.7344 0 0 0.00140277 0 0.959354
27 8.81167 0 0 0.896668 0 0
28 5.77884 0 0 0.600768 0 0
29 2.23249 0 0 0.2959 0 0
30 11.4725 0 0 0.923889 0.254417 -0.641562
31 0.615812 0.994373 -0.809165 -2.35227 0.0187306 0.46255
32 2.24752 0 0 -0.0459563 0.244746 0.234216
33 1.11936 0 0 -0.0408307 0.257423 0.212558
34 3.71349 0.10264 0.102191 -1.7258 1.11243 -0.263963
35 1.72615 0 0 0.0021962 0.00206202 0.928466
36 1.21112 0 0 -0.00470672 0.0169965 0.327294
37 3.5992 1.06012 0.0708883 -1.81456 1.00851 -0.246313
38 1.66069 0 0 0.00707743 0.0114629 0.775068
39 1.16699 0 0 -0.0493731 -0.0470546 0.50394
40 2.18853 -0.50104 0.0576588 -1.57004 0.000184469 -0.21278
41 1.29609 0 0 -0.0358609 -0.0301293 1.06108
42 1.62202 -0.000713348 -0.000469208 -0.00103431 -0.00157681 1.01338
43 1.22241 0 0 0.0173376 0.0316405 0.340004
44 1.76707 -1.27612 0.0366409 -1.57138 0.117892 -0.21624
45 1.55588 0 0 0.00173176 -0.107165 1.01098
46 1.24273 0 0 0.000590176 -0.000104602 0.855255
47 0.784532 0 0 -0.00592619 0.00084 1.11775
48 0 0 0 0 0 0
49 4.92373 -19.037 -5.12261 -0.0608476 -0.0240533 0.00525877
50 0 -1.51208 1.07027 0 0 0
51 0.572821 -0.371632 1.73556 0.2455 -0.112897 0
52 0 -3.19837 2.17037 0 0 0
53 0 -2.31355 1.88593 -0.0388233 0 0
54 4.94097 -18.3193 -5.99599 -0.0608476 -0.0240533 0.00525877
55 0 -0.83474 2.16222 0 0 0
56 0 -0.664986 2.10743 0 0 0
time 11
0 7.58967 10.8278 -3.60973 0.000934124 0 -1.06437
1 6.02794 0 0 -1.02343 0.43541 -0.551128
2 11.7344 0 0 -0.00140295 0 -0.832831
3 8.81138 -0.000449181 -0.000112534 0.119148 0 0.00015795
4 5.77839 0.000287056 0 0.079829 0 0.000106471
5 2.23163 -0.000329018 -0.00036335 0.0393188 0 0
6 11.4725 0 0 -0.228064 -0.514535 0.633575
7 0.61522 -0.993091 -0.8107 -3.01424 0.324565 -0.386015
8 2.24752 0 0 0.0800072 0.00264728 -0.146496
9 1.11935 0 0 0.0512106 0.0625159 -0.327821
10 3.71348 -0.102641 0.102191 1.38754 0.842929 0.0672861
11 1.72615 0 0 0.00945176 -0.00623857 -1.09905
12 1.21114 0 0 -0.0132693 0.0116177 -1.44917
13 3.59919 -1.06012 0.0708885 1.43406 0.314408 -0.0375707
14 1.66069 0 0 -0.0214649 0.066032 -0.503116
15 1.167 0 0 -0.0224173 0.0129724 -0.470382
16 2.18852 0.50104 0.0576593 1.55548 0.166718 0.138312
17 1.29609 0 0 -0.185212 -0.0418434 -0.654895
18 1.62202 0.000713348 -0.000471115 0.0143687 -0.0178807 -1.11
19 1.22241 0 0 -0.00702548 0.00524261 -1.42423
20 1.76707 1.27612 0.0366409 1.27805 0.322855 0.136707
21 1.55588 0 0 -0.0225085 0.0235834 -0.467635
22 1.24274 0 0 -0.000596358 0 -0.783974
23 0.784524 0 0 0.00616283 -0.000615299 -0.9415
24 2.85835 9.28793 -4.43253 0.726982 0.410583 -1.99191
25 6.02794 0 0 0.0421572 0.0856381 0.209757
26 11.7344 0 0 0.00140271 0 0.946887
27 8.81167 0 0 0.882973 0 0
28 5.77884 0 0 0.591592 0 0
29 2.23249 0 0 0.291381 0 0
30 11.4725 0 0 0.905476 0.269124 -0.654008
31 0.615812 0.994372 -0.809166 -2.35227 0.0187305 0.46255
32 2.24752 0 0 -0.0459563 0.244746 0.234216
33 1.11935 0 0 -0.0408308 0.257423 0.212558
34 3.71349 0.102639 0.102191 -1.7258 1.11243 -0.263964
35 1.72615 0 0 0.00219619 0.002062 0.928466
36 1.21112 0 0 -0.00470663 0.0169966 0.327294
37 3.5992 1.06012 0.0708883 -1.81456 1.00851 -0.246314
38 1.66069 0 0 0.00707751 0.0114628 0.775068
39 1.16699 0 0 -0.0493731 -0.0470546 0.50394
40 2.18853 -0.50104 0.0576588 -1.57004 0.000184566 -0.21278
41 1.29609 0 0 -0.0358609 -0.0301293 1.06108
42 1.62202 -0.000713348 -0.000470638 -0.00103438 -0.00157677 1.01338
43 1.22241 0 0 0.0173377 0.0316406 0.340004
44 1.76707 -1.27612 0.0366404 -1.57138 0.117892 -0.216239
45 1.55587 0 0 0.0017317 -0.107165 1.01098
46 1.24273 0 0 0.000590289 -0.000104642 0.855255
47 0.784531 0 0 -0.0059262 0.000839875 1.11775
48 0 0 0 0 0 0
49 4.94585 -19.1148 -5.19018 -0.0415597 -0.00737286 0.0085873
50 0 -1.51208 1.07027 0 0 0
51 0.572821 -0.371634 1.73556 0.2455 -0.112897 0
52 0 -3.19837 2.17037 0 0 0
53 0 -2.31355 1.88593 -0.0388233 0 0
54 4.94588 -18.3805 -6.04978 -0.0415597 -0.00737286 0.0085873
55 0 -0.835224 2.16358 0 0 0
56 0 -0.663799 2.10307 0 0 0
time 12
0 7.58967 10.8278 -3.60973 0.000934124 0 -1.06437
1 6.02794 0 0 -1.02563 0.430119 -0.553808
2 11.7344 0 0 -0.00140293 0 -0.818587
3 8.81139 -0.000450134 -0.000112057 0.10836 0 0.000157851
4 5.77839 0.000287056 0 0.072601 0 0.00010623
5 2.23164 -0.000329018 -0.000362873 0.0357587 0 0
6 11.4725 0 0 -0.236766 -0.508227 0.636352
7 0.615221 -0.993091 -0.810701 -3.01423 0.324565 -0.386014
8 2.24752 0 0 0.0800073 0.00264723 -0.146496
9 1.11936 0 0 0.0512106 0.062516 -0.327821
10 3.71348 -0.102641 0.10219 1.38754 0.842929 0.0672859
11 1.72615 0 0 0.00945176 -0.00623858 -1.09905
12 1.21114 0 0 -0.0132693 0.0116177 -1.44917
13 3.59919 -1.06012 0.0708873 1.43413 0.325247 -0.0331185
14 1.66069 0 0 -0.0188643 0.0660718 -0.4685
15 1.167 0 0 -0.0215297 0.0126652 -0.435825
16 2.18852 0.50104 0.0576591 1.55548 0.166719 0.138312
17 1.29609 0 0 -0.185212 -0.0418434 -0.654895
18 1.62202 0.000713348 -0.000470638 0.0143687 -0.0178807 -1.11
19 1.22241 0 0 -0.00702548 0.00524251 -1.42423
20 1.76707 1.27612 0.0366409 1.27805 0.322855 0.136707
21 1.55588 0 0 -0.0225085 0.0235834 -0.467635
22 1.24273 0 0 -0.000596426 0 -0.783974
23 0.784523 0 0 0.00616289 -0.000615225 -0.9415
24 2.85835 9.28793 -4.43253 0.726982 0.410583 -1.99191
25 6.02794 0 0 0.0420508 0.0857786 0.215257
26 11.7344 0 0 0.00140265 0 0.934658
27 8.81167 0 0 0.878463 0 0
28 5.77884 0 0 0.58857 0 0
29 2.23249 0 0 0.289893 0 0
30 11.4725 0 0 0.898386 0.275032 -0.656685
31 0.615814 0.994372 -0.809166 -2.35227 0.0187305 0.46255
32 2.24752 0 0 -0.0459564 0.244746 0.234216
33 1.11936 0 0 -0.0408308 0.257423 0.212558
34 3.71349 0.102639 0.102191 -1.7258 1.11243 -0.263964
35 1.72615 0 0 0.00219628 0.00206188 0.928466
36 1.21112 0 0 -0.00470667 0.0169966 0.327294
37 3.5992 1.06012 0.0708879 -1.81456 1.00851 -0.246313
38 1.66069 0 0 0.00707745 0.0114628 0.775068
39 1.16699 0 0 -0.0493731 -0.0470546 0.50394
40 2.18853 -0.501041 0.0576587 -1.57004 0.000184476 -0.212779
41 1.29609 0 0 -0.0358608 -0.0301294 1.06108
42 1.62202 -0.000711441 -0.000470161 -0.00103438 -0.00157668 1.01338
43 1.22241 0 0 0.0173376 0.0316406 0.340004
44 1.76707 -1.27612 0.0366405 -1.57138 0.117892 -0.216239
45 1.55588 0 0 0.00173179 -0.107165 1.01097
46 1.24273 0 0 0.000590269 -0.000104702 0.855255
47 0.784532 0 0 -0.00592619 0.000840004 1.11775
48 0 0 0 0 0 0
49 4.96484 -19.1866 -5.24803 -0.0315782 -0.000283604 0.00952423
50 0 -1.51208 1.07027 0 0 0
51 0.57282 -0.371632 1.73556 0.2455 -0.112897 0
52 0 -3.19837 2.17037 0 0 0
53 0 -2.31355 1.88593 -0.0388233 0 0
54 4.95801 -18.4437 -6.10028 -0.0315782 -0.000283604 0.00952423
55 0 -0.835686 2.16489 0 0 0
56 0 -0.662663 2.09889 0 0 0
time 13
0 7.58967 10.8278 -3.60973 0.000934124 0 -1.06437
1 6.02794 0 0 -1.02787 0.424733 -0.556459
2 11.7344 0 0 -0.00140278 0 -0.804898
3 8.81139 -0.000450134 -0.00011158 0.100152 0 0.000157759
4 5.77839 0.000286102 0 0.0671017 0 0.000106232
5 2.23163 -0.000330925 -0.000363827 0.0330501 0 0
6 11.4725 0 0 -0.240956 -0.502901 0.635131
7 0.615221 -0.993091 -0.8107 -3.01423 0.324565 -0.386014
8 2.24752 0 0 0.0800071 0.00264706 -0.146496
9 1.11935 0 0 0.0512104 0.0625159 -0.327821
10 3.71348 -0.102641 0.102191 1.38754 0.842929 0.0672861
11 1.72615 0 0 0.00945172 -0.00623854 -1.09905
12 1.21114 0 0 -0.0132693 0.0116177 -1.44917
13 3.59919 -1.06012 0.0708888 1.43431 0.336381 -0.0285024
14 1.66069 0 0 -0.0161669 0.0660187 -0.432907
15 1.167 0 0 -0.0205744 0.0123075 -0.400294
16 2.18853 0.50104 0.0576596 1.55548 0.166718 0.138312
17 1.29609 0 0 -0.185212 -0.0418433 -0.654895
18 1.62202 0.000713348 -0.000470638 0.0143688 -0.0178807 -1.11
19 1.22241 0 0 -0.00702543 0.00524264 -1.42423
20 1.76707 1.27612 0.036641 1.27805 0.322855 0.136707
21 1.55588 0 0 -0.0225086 0.0235835 -0.467635
22 1.24274 0 0 -0.00059638 0 -0.783974
23 0.784523 0 0 0.00616285 -0.00061528 -0.941499
24 2.85835 9.28793 -4.43253 0.726982 0.410583 -1.99191
25 6.02794 0 0 0.0420566 0.085848 0.220702
26 11.7344 0 0 0.00140283 0 0.922906
27 8.81167 0 0 0.876402 0 0
28 5.77884 0 0 0.58719 0 0
29 2.23249 0 0 0.289213 0 0
30 11.4725 0 0 0.894605 0.278352 -0.65707
31 0.615812 0.994372 -0.809166 -2.35227 0.0187306 0.46255
32 2.24752 0 0 -0.0459564 0.244746 0.234216
33 1.11935 0 0 -0.0408306 0.257423 0.212558
34 3.71349 0.10264 0.102191 -1.7258 1.11243 -0.263964
35 1.72615 0 0 0.0021962 0.00206198 0.928466
36 1.21112 0 0 -0.00470674 0.0169966 0.327294
37 3.5992 1.06012 0.0708878 -1.81456 1.00851 -0.246313
38 1.66069 0 0 0.00707745 0.0114628 0.775068
39 1.16699 0 0 -0.0493731 -0.0470546 0.50394
40 2.18853 -0.50104 0.0576586 -1.57004 0.000184603 -0.21278
41 1.29609 0 0 -0.0358609 -0.0301294 1.06108
42 1.62202 -0.000713348 -0.000469685 -0.00103444 -0.00157671 1.01338
43 1.22241 0 0 0.0173376 0.0316405 0.340004
44 1.76707 -1.27612 0.0366402 -1.57138 0.117892 -0.216239
45 1.55587 0 0 0.00173176 -0.107165 1.01098
46 1.24273 0 0 0.000590204 -0.000104603 0.855255
47 0.784532 0 0 -0.00592617 0.000839975 1.11775
48 0 0 0 0 0 0
49 4.97719 -19.2543 -5.28612 -0.0247501 0.00365304 0.00926728
50 0 -1.51208 1.07027 0 0 0
51 0.572821 -0.371634 1.73556 0.2455 -0.112897 0
52 0 -3.19837 2.17037 0 0 0
53 0 -2.31355 1.88593 -0.0388233 0 0
54 4.96716 -18.5056 -6.13327 -0.0247501 0.00365304 0.00926728
55 0 -0.836128 2.16614 0 0 0
56 0 -0.661577 2.0949 0 0 0
time 14
0 7.58967 10.8278 -3.60973 0.000934124 0 -1.06437
1 6.02794 0 0 -1.02995 0.419797 -0.558794
2 11.7344 0 0 -0.0014029 0 -0.792867
3 8.81139 -0.000450134 -0.000112057 0.0945172 0 0.000157818
4 5.77839 0.000286102 0 0.0633265 0 0.000106017
5 2.23164 -0.000329018 -0.00036335 0.0311906 0 0
6 11.4725 0 0 -0.241544 -0.498567 0.631309
7 0.615221 -0.993091 -0.8107 -3.01424 0.324565 -0.386014
8 2.24752 0 0 0.0800072 0.00264729 -0.146496
9 1.11936 0 0 0.0512107 0.0625158 -0.327821
10 3.71348 -0.102641 0.102192 1.38754 0.842929 0.0672859
11 1.72615 0 0 0.00945177 -0.00623862 -1.09905
12 1.21114 0 0 -0.0132693 0.0116176 -1.44917
13 3.59919 -1.06012 0.0708882 1.43461 0.347709 -0.0237601
14 1.66069 0 0 -0.0133992 0.0658657 -0.396665
15 1.167 0 0 -0.0195589 0.0118984 -0.364116
16 2.18852 0.50104 0.0576596 1.55548 0.166719 0.138312
17 1.29609 0 0 -0.185212 -0.0418434 -0.654895
18 1.62202 0.000713348 -0.000472069 0.0143687 -0.0178808 -1.11
19 1.22241 0 0 -0.00702547 0.00524263 -1.42423
20 1.76707 1.27612 0.036641 1.27805 0.322855 0.136707
21 1.55588 0 0 -0.0225086 0.0235834 -0.467635
22 1.24273 0 0 -0.000596401 0 -0.783974
23 0.784524 0 0 0.00616284 -0.000615252 -0.9415
24 2.85835 9.28793 -4.43253 0.726982 0.410583 -1.99191
25 6.02794 0 0 0.0420919 0.0858963 0.225637
26 11.7344 0 0 0.00140261 0 0.912509
27 8.81167 0 0 0.876295 0 0
28 5.77884 0 0 0.587118 0 0
29 2.23249 0 0 0.289177 0 0
30 11.4725 0 0 0.893624 0.279575 -0.65595
31 0.615814 0.994373 -0.809165 -2.35227 0.0187305 0.46255
32 2.24752 0 0 -0.0459563 0.244746 0.234216
33 1.11936 0 0 -0.0408306 0.257423 0.212558
34 3.71349 0.10264 0.102191 -1.7258 1.11243 -0.263964
35 1.72615 0 0 0.00219628 0.00206192 0.928466
36 1.21112 0 0 -0.00470674 0.0169967 0.327294
37 3.5992 1.06012 0.0708884 -1.81456 1.00851 -0.246313
38 1.66069 0 0 0.00707748 0.0114629 0.775068
39 1.16699 0 0 -0.0493731 -0.0470546 0.50394
40 2.18853 -0.501041 0.0576589 -1.57004 0.000184409 -0.21278
41 1.29609 0 0 -0.0358608 -0.0301293 1.06108
42 1.62202 -0.000715256 -0.000470161 -0.0010344 -0.00157673 1.01338
43 1.22241 0 0 0.0173376 0.0316405 0.340004
44 1.76707 -1.27612 0.0366404 -1.57138 0.117892 -0.216239
45 1.55588 0 0 0.00173176 -0.107165 1.01098
46 1.24273 0 0 0.000590219 -0.000104687 0.855255
47 0.784531 0 0 -0.00592615 0.000840008 1.11775
48 0 0 0 0 0 0
49 4.98437 -19.3136 -5.30799 -0.0205648 0.00497439 0.0080484
50 0 -1.51208 1.07027 0 0 0
51 0.572822 -0.371634 1.73556 0.2455 -0.112897 0
52 0 -3.19837 2.17037 0 0 0
53 0 -2.31355 1.88593 -0.0388233 0 0
54 4.97412 -18.5615 -6.152 -0.0205648 0.00497439 0.0080484
55 0 -0.836548 2.16733 0 0 0
56 0 -0.660545 2.0911 0 0 0
time 15
0 7.58967 10.8278 -3.60973 0.000934124 0 -1.06437
1 6.02794 0 0 -1.03156 0.416166 -0.560376
2 11.7344 0 0 -0.00140291 0 -0.783574
3 8.81138 -0.000450134 -0.000112534 0.0911746 0 0.000157666
4 5.77839 0.000286102 0 0.061087 0 0.000106143
5 2.23163 -0.000329018 -0.000362873 0.0300877 0 0
6 11.4725 0 0 -0.239455 -0.49521 0.625889
7 0.615221 -0.993091 -0.8107 -3.01423 0.324565 -0.386014
8 2.24752 0 0 0.0800071 0.00264716 -0.146496
9 1.11935 0 0 0.0512106 0.062516 -0.327822
10 3.71348 -0.102641 0.10219 1.38754 0.842929 0.0672859
11 1.72615 0 0 0.00945178 -0.00623855 -1.09905
12 1.21114 0 0 -0.0132693 0.0116176 -1.44917
13 3.59919 -1.06012 0.0708877 1.43503 0.359127 -0.0189299
14 1.66069 0 0 -0.0105889 0.0656096 -0.360098
15 1.167 0 0 -0.0184921 0.0114381 -0.327614
16 2.18852 0.50104 0.0576589 1.55548 0.166718 0.138312
17 1.29609 0 0 -0.185212 -0.0418434 -0.654896
18 1.62202 0.000714302 -0.000471115 0.0143688 -0.0178807 -1.11
19 1.22241 0 0 -0.00702549 0.00524266 -1.42423
20 1.76707 1.27612 0.036641 1.27805 0.322855 0.136707
21 1.55588 0 0 -0.0225086 0.0235834 -0.467635
22 1.24274 0 0 -0.000596436 0 -0.783974
23 0.784524 0 0 0.00616284 -0.000615253 -0.941499
24 2.85835 9.28793 -4.43253 0.726982 0.410583 -1.99191
25 6.02794 0 0 0.0417509 0.0861799 0.229387
26 11.7344 0 0 0.0014027 0 0.904441
27 8.81167 0 0 0.877799 0 0
28 5.77884 0 0 0.588126 0 0
29 2.23249 0 0 0.289674 0 0
30 11.4725 0 0 0.89516 0.278868 -0.653956
31 0.615814 0.994372 -0.809165 -2.35227 0.0187304 0.46255
32 2.24752 0 0 -0.0459563 0.244746 0.234216
33 1.11936 0 0 -0.0408308 0.257423 0.212558
34 3.71349 0.10264 0.102191 -1.7258 1.11243 -0.263964
35 1.72615 0 0 0.0021962 0.00206195 0.928466
36 1.21112 0 0 -0.00470662 0.0169966 0.327294
37 3.5992 1.06012 0.0708884 -1.81456 1.00851 -0.246313
38 1.66069 0 0 0.00707745 0.0114628 0.775068
39 1.16699 0 0 -0.0493731 -0.0470546 0.50394
40 2.18853 -0.50104 0.0576591 -1.57004 0.000184417 -0.21278
41 1.29609 0 0 -0.0358608 -0.0301294 1.06108
42 1.62202 -0.000713348 -0.000468731 -0.00103438 -0.00157671 1.01338
43 1.22241 0 0 0.0173377 0.0316405 0.340004
44 1.76707 -1.27612 0.0366404 -1.57138 0.117892 -0.216239
45 1.55587 0 0 0.00173185 -0.107165 1.01098
46 1.24273 0 0 0.000590219 -0.000104561 0.855255
47 0.784531 0 0 -0.00592624 0.000839872 1.11775
48 0 0 0 0 0 0
49 4.99028 -19.3599 -5.32427 -0.0185121 0.00421779 0.00609958
50 0 -1.51208 1.07027 0 0 0
51 0.572822 -0.371632 1.73556 0.2455 -0.112897 0
52 0 -3.19837 2.17037 0 0 0
53 0 -2.31355 1.88593 -0.0388233 0 0
54 4.98213 -18.606 -6.16674 -0.0185121 0.00421779 0.00609958
55 0 -0.836946 2.16845 0 0 0
56 0 -0.659565 2.08749 0 0 0
time 16
0 7.58967 10.8278 -3.60973 0.000934124 0 -1.06437
1 6.02794 0 0 -1.03284 0.413421 -0.561481
2 11.7344 0 0 -0.00140287 0 -0.776184
3 8.81138 -0.000450134 -0.000112057 0.0895461 0 0.000158135
4 5.77839 0.000286102 0 0.0599959 0 0.000106368
5 2.23163 -0.000329018 -0.00036335 0.0295503 0 0
6 11.4725 0 0 -0.235437 -0.492653 0.61928
7 0.615221 -0.993091 -0.8107 -3.01423 0.324565 -0.386014
8 2.24752 0 0 0.0800072 0.00264717 -0.146496
9 1.11936 0 0 0.0512104 0.062516 -0.327822
10 3.71348 -0.102641 0.102191 1.38754 0.842929 0.0672858
11 1.72615 0 0 0.00945172 -0.0062386 -1.09905
12 1.21114 0 0 -0.0132692 0.0116177 -1.44917
13 3.59919 -1.06012 0.0708882 1.43557 0.370533 -0.0140519
14 1.66069 0 0 -0.00776468 0.0652507 -0.323532
15 1.167 0 0 -0.0173847 0.0109286 -0.291116
16 2.18853 0.50104 0.057659 1.55548 0.166718 0.138312
17 1.29609 0 0 -0.185212 -0.0418433 -0.654895
18 1.62202 0.000713348 -0.000471115 0.0143688 -0.0178807 -1.11
19 1.22241 0 0 -0.00702546 0.00524258 -1.42423
20 1.76707 1.27612 0.0366406 1.27805 0.322855 0.136707
21 1.55588 0 0 -0.0225086 0.0235834 -0.467635
22 1.24274 0 0 -0.000596363 0 -0.783974
23 0.784523 0 0 0.00616285 -0.000615279 -0.941499
24 2.85835 9.28793 -4.43253 0.726982 0.410583 -1.99191
25 6.02794 0 0 0.0411501 0.086627 0.232114
26 11.7344 0 0 0.00140264 0 0.898447
27 8.81167 0 0 0.880469 0 0
28 5.77884 0 0 0.589915 0 0
29 2.23249 0 0 0.290555 0 0
30 11.4725 0 0 0.898532 0.276767 -0.651461
31 0.615812 0.994373 -0.809165 -2.35227 0.0187305 0.46255
32 2.24752 0 0 -0.0459564 0.244746 0.234216
33 1.11935 0 0 -0.0408308 0.257423 0.212558
34 3.71349 0.102639 0.102191 -1.7258 1.11243 -0.263964
35 1.72615 0 0 0.00219615 0.00206201 0.928466
36 1.21112 0 0 -0.00470658 0.0169966 0.327294
37 3.5992 1.06012 0.0708884 -1.81456 1.00851 -0.246313
38 1.66069 0 0 0.00707748 0.0114628 0.775068
39 1.16699 0 0 -0.0493731 -0.0470546 0.50394
40 2.18853 -0.501041 0.0576587 -1.57004 0.000184596 -0.21278
41 1.29609 0 0 -0.0358607 -0.0301293 1.06108
42 1.62202 -0.000711441 -0.000469685 -0.00103442 -0.00157661 1.01338
43 1.22241 0 0 0.0173376 0.0316405 0.340004
44 1.76707 -1.27612 0.0366406 -1.57138 0.117892 -0.216239
45 1.55588 0 0 0.00173178 -0.107165 1.01098
46 1.24273 0 0 0.000590286 -0.000104612 0.855255
47 0.784532 0 0 -0.0059262 0.000839983 1.11775
48 0 0 0 0 0 0
49 4.99503 -19.3944 -5.3355 -0.0180815 0.00192057 0.00365278
50 0 -1.51208 1.07027 0 0 0
51 0.572821 -0.371632 1.73556 0.2455 -0.112897 0
52 0 -3.19837 2.17037 0 0 0
53 0 -2.31356 1.88593 -0.0388233 0 0
54 4.99066 -18.6401 -6.17765 -0.0180815 0.00192057 0.00365278
55 0 -0.837324 2.16952 0 0 0
56 0 -0.658638 2.08409 0 0 0
time 17
0 7.58967 10.8278 -3.60973 0.000934124 0 -1.06437
1 6.02794 0 0 -1.03372 0.411813 -0.561944
2 11.7344 0 0 -0.00140282 0 -0.771443
3 8.81139 -0.000449181 -0.000111103 0.0895175 0 0.000157904
4 5.77839 0.000287056 0 0.0599768 0 0.000106229
5 2.23164 -0.000329018 -0.00036335 0.0295407 0 0
6 11.4725 0 0 -0.230219 -0.49071 0.61267
7 0.615219 -0.99309 -0.8107 -3.01423 0.324565 -0.386014
8 2.24752 0 0 0.0800073 0.00264729 -0.146496
9 1.11935 0 0 0.0512105 0.062516 -0.327821
10 3.71348 -0.102641 0.102191 1.38754 0.842929 0.0672861
11 1.72615 0 0 0.00945176 -0.00623861 -1.09905
12 1.21114 0 0 -0.0132693 0.0116177 -1.44917
13 3.59919 -1.06012 0.070888 1.43623 0.381824 -0.00916759
14 1.66069 0 0 -0.00495541 0.0647931 -0.287295
15 1.16699 0 0 -0.016249 0.0103735 -0.254944
16 2.18852 0.50104 0.0576593 1.55548 0.166719 0.138312
17 1.29609 0 0 -0.185212 -0.0418434 -0.654895
18 1.62202 0.000713348 -0.000470638 0.0143687 -0.0178807 -1.11
19 1.22241 0 0 -0.00702543 0.00524264 -1.42423
20 1.76707 1.27612 0.0366406 1.27805 0.322855 0.136707
21 1.55588 0 0 -0.0225085 0.0235834 -0.467635
22 1.24273 0 0 -0.000596431 0 -0.783974
23 0.784523 0 0 0.00616284 -0.000615312 -0.9415
24 2.85835 9.28793 -4.43253 0.726982 0.410583 -1.99191
25 6.02794 0 0 0.0403876 0.0871693 0.233831
26 11.7344 0 0 0.00140277 0 0.894572
27 8.81167 0 0 0.883814 0 0
28 5.77884 0 0 0.592155 0 0
29 2.23249 0 0 0.291659 0 0
30 11.4725 0 0 0.903057 0.273793 -0.649007
31 0.615814 0.994373 -0.809166 -2.35227 0.0187305 0.46255
32 2.24752 0 0 -0.0459564 0.244746 0.234216
33 1.11936 0 0 -0.0408308 0.257423 0.212558
34 3.71349 0.10264 0.102191 -1.7258 1.11243 -0.263964
35 1.72615 0 0 0.00219624 0.00206194 0.928466
36 1.21112 0 0 -0.00470664 0.0169966 0.327294
37 3.5992 1.06012 0.0708877 -1.81456 1.00851 -0.246313
38 1.66069 0 0 0.00707753 0.0114628 0.775068
39 1.16699 0 0 -0.0493731 -0.0470546 0.50394
40 2.18853 -0.50104 0.0576589 -1.57004 0.000184521 -0.21278
41 1.29609 0 0 -0.0358608 -0.0301293 1.06108
42 1.62202 -0.000713348 -0.000469208 -0.00103439 -0.00157674 1.01338
43 1.22241 0 0 0.0173376 0.0316406 0.340004
44 1.76707 -1.27612 0.0366404 -1.57138 0.117892 -0.21624
45 1.55588 0 0 0.00173168 -0.107165 1.01098
46 1.24273 0 0 0.000590335 -0.00010472 0.855255
47 0.784531 0 0 -0.00592618 0.000839967 1.11775
48 0 0 0 0 0 0
49 4.99874 -19.4183 -5.34224 -0.0187627 -0.00137994 0.000939965
50 0 -1.51208 1.07027 0 0 0
51 0.572821 -0.371634 1.73556 0.2455 -0.112897 0
52 0 -3.19837 2.17037 0 0 0
53 0 -2.31355 1.88593 -0.0388233 0 0
54 4.99919 -18.6646 -6.1849 -0.0187627 -0.00137994 0.000939965
55 0 -0.837677 2.17052 0 0 0
56 0 -0.657768 2.08089 0 0 0
time 18
0 7.58967 10.8278 -3.60973 0.000934124 0 -1.06437
1 6.02794 0 0 -1.03432 0.411016 -0.561968
2 11.7344 0 0 -0.00140274 0 -0.768736
3 8.81139 -0.000449181 -0.00011158 0.0905583 0 0.000157828
4 5.77839 0.000286102 0 0.0606741 0 0.000106106
5 2.23163 -0.000329018 -0.000364304 0.0298843 0 0
6 11.4725 0 0 -0.224519 -0.489197 0.606554
7 0.615219 -0.993091 -0.8107 -3.01423 0.324565 -0.386015
8 2.24752 0 0 0.0800071 0.00264716 -0.146496
9 1.11936 0 0 0.0512106 0.062516 -0.327822
10 3.71348 -0.102641 0.102191 1.38754 0.842929 0.0672859
11 1.72615 0 0 0.00945179 -0.00623862 -1.09905
12 1.21114 0 0 -0.0132693 0.0116177 -1.44917
13 3.59919 -1.06012 0.0708876 1.43699 0.392898 -0.00432056
14 1.66069 0 0 -0.00219048 0.0642447 -0.251712
15 1.167 0 0 -0.0150984 0.00977879 -0.219425
16 2.18853 0.50104 0.0576587 1.55548 0.166719 0.138312
17 1.29609 0 0 -0.185212 -0.0418434 -0.654895
18 1.62202 0.000713348 -0.000471592 0.0143688 -0.0178807 -1.11
19 1.22241 0 0 -0.00702549 0.00524255 -1.42423
20 1.76707 1.27612 0.0366406 1.27805 0.322855 0.136707
21 1.55587 0 0 -0.0225085 0.0235834 -0.467635
22 1.24274 0 0 -0.000596421 0 -0.783974
23 0.784523 0 0 0.00616281 -0.000615333 -0.9415
24 2.85835 9.28793 -4.43253 0.726982 0.410583 -1.99191
25 6.02794 0 0 0.0395833 0.0877286 0.234797
26 11.7344 0 0 0.00140277 0 0.892366
27 8.81167 0 0 0.887389 0 0
28 5.77884 0 0 0.594551 0 0
29 2.23249 0 0 0.292839 0 0
30 11.4725 0 0 0.90805 0.270468 -0.646882
31 0.615814 0.994372 -0.809165 -2.35227 0.0187304 0.46255
32 2.24752 0 0 -0.0459564 0.244746 0.234216
33 1.11936 0 0 -0.0408309 0.257423 0.212558
34 3.71349 0.102639 0.102191 -1.7258 1.11243 -0.263964
35 1.72615 0 0 0.00219625 0.00206192 0.928466
36 1.21112 0 0 -0.00470667 0.0169966 0.327294
37 3.5992 1.06012 0.0708882 -1.81456 1.00851 -0.246313
38 1.66069 0 0 0.00707744 0.0114628 0.775068
39 1.16699 0 0 -0.0493731 -0.0470546 0.50394
40 2.18853 -0.501041 0.0576588 -1.57004 0.000184558 -0.21278
41 1.29609 0 0 -0.0358609 -0.0301294 1.06108
42 1.62202 -0.000713348 -0.000469685 -0.00103441 -0.00157682 1.01338
43 1.22241 0 0 0.0173376 0.0316406 0.340004
44 1.76707 -1.27612 0.0366404 -1.57138 0.117892 -0.21624
45 1.55588 0 0 0.00173185 -0.107165 1.01098
46 1.24273 0 0 0.000590234 -0.000104662 0.855255
47 0.784532 0 0 -0.00592611 0.000840067 1.11775
48 0 0 0 0 0 0
49 5.0015 -19.4328 -5.34503 -0.0200452 -0.00514641 -0.00180689
50 0 -1.51208 1.07027 0 0 0
51 0.572821 -0.371634 1.73556 0.2455 -0.112897 0
52 0 -3.19837 2.17037 0 0 0
53 0 -2.31356 1.88593 -0.0388233 0 0
54 5.0072 -18.6801 -6.18865 -0.0200452 -0.00514641 -0.00180689
55 0 -0.838007 2.17145 0 0 0
56 0 -0.656956 2.0779 0 0 0
time 19
0 7.58967 10.8278 -3.60973 0.000934124 0 -1.06437
1 6.02794 0 0 -1.0347 0.410853 -0.561661
2 11.7344 0 0 -0.00140266 0 -0.767805
3 8.81139 -0.000450134 -0.000113487 0.0922505 0 0.000157978
4 5.77839 0.000287056 0 0.0618078 0 0.000106085
5 2.23164 -0.000329018 -0.000365257 0.0304428 0 0
6 11.4725 0 0 -0.219051 -0.487945 0.601615
7 0.615221 -0.993091 -0.8107 -3.01423 0.324565 -0.386014
8 2.24752 0 0 0.0800072 0.00264722 -0.146496
9 1.11936 0 0 0.0512106 0.0625159 -0.327822
10 3.71348 -0.102641 0.102192 1.38754 0.842929 0.0672857
11 1.72615 0 0 0.00945173 -0.00623853 -1.09905
12 1.21114 0 0 -0.0132693 0.0116176 -1.44917
13 3.59919 -1.06012 0.0708889 1.43785 0.403656 0.000443828
14 1.66069 0 0 0.000501177 0.0636171 -0.217108
15 1.167 0 0 -0.0139476 0.00915185 -0.184883
16 2.18852 0.50104 0.0576593 1.55548 0.166718 0.138312
17 1.29609 0 0 -0.185212 -0.0418434 -0.654895
18 1.62202 0.000714302 -0.000471115 0.0143688 -0.0178807 -1.11
19 1.22241 0 0 -0.00702549 0.00524257 -1.42423
20 1.76707 1.27612 0.0366417 1.27805 0.322855 0.136707
21 1.55588 0 0 -0.0225085 0.0235834 -0.467635
22 1.24274 0 0 -0.000596392 0 -0.783974
23 0.784524 0 0 0.00616289 -0.000615219 -0.941499
24 2.85835 9.28793 -4.43253 0.726982 0.410583 -1.99191
25 6.02794 0 0 0.038846 0.0882319 0.235125
26 11.7344 0 0 0.00140271 0 0.891675
27 8.81167 0 0 0.890711 0 0
28 5.77884 0 0 0.596776 0 0
29 2.23249 0 0 0.293935 0 0
30 11.4725 0 0 0.912834 0.267322 -0.645516
31 0.615812 0.994373 -0.809165 -2.35227 0.0187306 0.46255
32 2.24752 0 0 -0.0459564 0.244746 0.234216
33 1.11936 0 0 -0.0408308 0.257423 0.212558
34 3.71348 0.10264 0.102191 -1.7258 1.11243 -0.263964
35 1.72615 0 0 0.00219616 0.00206204 0.928466
36 1.21112 0 0 -0.00470664 0.0169966 0.327294
37 3.5992 1.06012 0.0708883 -1.81456 1.00851 -0.246313
38 1.66069 0 0 0.00707742 0.0114628 0.775068
39 1.16699 0 0 -0.0493731 -0.0470546 0.50394
40 2.18853 -0.50104 0.0576594 -1.57004 0.000184543 -0.21278
41 1.29609 0 0 -0.0358609 -0.0301294 1.06108
42 1.62202 -0.000715256 -0.000470638 -0.00103442 -0.00157671 1.01338
43 1.22241 0 0 0.0173376 0.0316406 0.340004
44 1.76707 -1.27612 0.0366406 -1.57138 0.117892 -0.216239
45 1.55587 0 0 0.00173177 -0.107165 1.01098
46 1.24273 0 0 0.000590295 -0.00010469 0.855255
47 0.784532 0 0 -0.00592626 0.000839947 1.11775
48 0 0 0 0 0 0
49 5.00342 -19.4391 -5.34444 -0.0214187 -0.00884152 -0.00435581
50 0 -1.51208 1.07027 0 0 0
51 0.572821 -0.371632 1.73556 0.2455 -0.112897 0
52 0 -3.19837 2.17037 0 0 0
53 0 -2.31355 1.88593 -0.0388233 0 0
54 5.01416 -18.6877 -6.18907 -0.0214187 -0.00884152 -0.00435581
55 0 -0.838318 2.17232 0 0 0
56 0 -0.656202 2.07513 0 0 0
time 20
0 7.58967 10.8278 -3.60973 0.000934124 0 -1.06437
1 6.02794 0 0 -1.0349 0.411139 -0.561134
2 11.7344 0 0 -0.00140281 0 -0.768377
3 8.81138 -0.000449181 -0.00011158 0.0941781 0 0.000157879
4 5.77839 0.000287056 0 0.0630994 0 0.000106124
5 2.23163 -0.000329018 -0.000364304 0.0310788 0 0
6 11.4725 0 0 -0.21453 -0.486799 0.598535
7 0.615221 -0.993091 -0.8107 -3.01423 0.324565 -0.386014
8 2.24752 0 0 0.0800073 0.00264717 -0.146496
9 1.11936 0 0 0.0512104 0.062516 -0.327822
10 3.71348 -0.102641 0.102191 1.38754 0.842929 0.0672858
11 1.72615 0 0 0.00945182 -0.00623859 -1.09905
12 1.21114 0 0 -0.0132693 0.0116177 -1.44917
13 3.59919 -1.06012 0.0708879 1.43878 0.413995 0.00507787
14 1.66068 0 0 0.00309092 0.0629254 -0.183809
15 1.167 0 0 -0.012812 0.00850238 -0.151643
16 2.18853 0.50104 0.0576584 1.55548 0.166719 0.138312
17 1.29609 0 0 -0.185212 -0.0418433 -0.654895
18 1.62202 0.000712395 -0.000471115 0.0143688 -0.0178807 -1.11
19 1.22241 0 0 -0.00702542 0.00524267 -1.42423
20 1.76707 1.27612 0.0366404 1.27805 0.322855 0.136707
21 1.55588 0 0 -0.0225086 0.0235834 -0.467635
22 1.24274 0 0 -0.000596413 0 -0.783974
23 0.784524 0 0 0.00616289 -0.000615219 -0.941499
24 2.85835 9.28793 -4.43253 0.726982 0.410583 -1.99191
25 6.02794 0 0 0.038291 0.0886053 0.234957
26 11.7344 0 0 0.00140272 0 0.892278
27 8.81167 0 0 0.893291 0 0
28 5.77884 0 0 0.598505 0 0
29 2.23249 0 0 0.294786 0 0
30 11.4725 0 0 0.916736 0.264901 -0.645288
31 0.615812 0.994373 -0.809165 -2.35227 0.0187306 0.46255
32 2.24752 0 0 -0.0459563 0.244746 0.234216
33 1.11936 0 0 -0.0408308 0.257423 0.212558
34 3.71349 0.10264 0.102191 -1.7258 1.11243 -0.263964
35 1.72615 0 0 0.00219617 0.00206199 0.928465
36 1.21112 0 0 -0.00470667 0.0169966 0.327294
37 3.5992 1.06012 0.0708882 -1.81456 1.00851 -0.246313
38 1.66069 0 0 0.00707743 0.0114629 0.775068
39 1.16699 0 0 -0.049373 -0.0470547 0.50394
40 2.18853 -0.50104 0.0576595 -1.57004 0.000184551 -0.21278
41 1.29609 0 0 -0.035861 -0.0301294 1.06108
42 1.62202 -0.000715256 -0.000468254 -0.00103434 -0.00157681 1.01338
43 1.22241 0 0 0.0173376 0.0316405 0.340004
44 1.76707 -1.27612 0.0366405 -1.57138 0.117892 -0.216239
45 1.55587 0 0 0.00173172 -0.107165 1.01098
46 1.24273 0 0 0.000590331 -0.000104612 0.855255
47 0.784532 0 0 -0.00592607 0.000840131 1.11775
48 0 0 0 0 0 0
49 5.00461 -19.4385 -5.341 -0.0223728 -0.0119279 -0.00647484
50 0 -1.51208 1.07027 0 0 0
51 0.572821 -0.371632 1.73556 0.2455 -0.112897 0
52 0 -3.19837 2.17037 0 0 0
53 0 -2.31355 1.88593 -0.0388233 0 0
54 5.01956 -18.6879 -6.18632 -0.0223728 -0.0119279 -0.00647484
55 0 -0.8386 2.17312 0 0 0
56 0 -0.655504 2.07257 0 0 0
time 21
0 7.58967 10.8278 -3.60973 0.000934124 0 -1.06437
1 6.02794 0 0 -1.03498 0.411689 -0.5605
2 11.7344 0 0 -0.00140286 0 -0.770176
3 8.81138 -0.000450134 -0.000112534 0.0959306 0 0.00015749
4 5.77839 0.000286102 0 0.0642735 0 0.000105921
5 2.23163 -0.000329971 -0.00036335 0.031657 0 0
6 11.4725 0 0 -0.21167 -0.485619 0.598001
7 0.615217 -0.993091 -0.8107 -3.01423 0.324565 -0.386014
8 2.24752 0 0 0.0800074 0.00264711 -0.146496
9 1.11936 0 0 0.0512103 0.062516 -0.327821
10 3.71348 -0.102641 0.102191 1.38754 0.842929 0.0672857
11 1.72615 0 0 0.00945176 -0.00623858 -1.09905
12 1.21114 0 0 -0.0132693 0.0116177 -1.44917
13 3.59919 -1.06012 0.0708879 1.43976 0.423816 0.00953192
14 1.66069 0 0 0.00555084 0.0621878 -0.152141
15 1.167 0 0 -0.0117079 0.00784193 -0.12003
16 2.18852 0.501039 0.0576593 1.55548 0.166719 0.138312
17 1.29609 0 0 -0.185212 -0.0418434 -0.654895
18 1.62202 0.000714302 -0.000471592 0.0143688 -0.0178808 -1.11
19 1.22241 0 0 -0.00702548 0.00524265 -1.42423
20 1.76707 1.27612 0.0366405 1.27805 0.322855 0.136707
21 1.55588 0 0 -0.0225086 0.0235834 -0.467635
22 1.24273 0 0 -0.000596429 0 -0.783974
23 0.784523 0 0 0.00616282 -0.00061528 -0.9415
24 2.85835 9.28793 -4.43253 0.726982 0.410583 -1.99191
25 6.02794 0 0 0.0380273 0.0887712 0.234435
26 11.7344 0 0 0.00140263 0 0.893954
27 8.81167 0 0 0.894648 0 0
28 5.77884 0 0 0.599414 0 0
29 2.23249 0 0 0.295234 0 0
30 11.4725 0 0 0.9191 0.263763 -0.646575
31 0.615812 0.994372 -0.809165 -2.35227 0.0187305 0.46255
32 2.24752 0 0 -0.0459563 0.244746 0.234216
33 1.11936 0 0 -0.0408307 0.257423 0.212558
34 3.71349 0.102639 0.102191 -1.7258 1.11243 -0.263964
35 1.72615 0 0 0.00219625 0.00206192 0.928466
36 1.21112 0 0 -0.0047067 0.0169966 0.327294
37 3.5992 1.06012 0.0708883 -1.81456 1.00851 -0.246313
38 1.66069 0 0 0.00707745 0.0114628 0.775068
39 1.16699 0 0 -0.0493731 -0.0470545 0.50394
40 2.18853 -0.50104 0.0576591 -1.57004 0.000184551 -0.21278
41 1.29609 0 0 -0.0358608 -0.0301294 1.06108
42 1.62202 -0.000713348 -0.000470161 -0.00103439 -0.00157669 1.01338
43 1.22241 0 0 0.0173377 0.0316405 0.340004
44 1.76707 -1.27612 0.0366409 -1.57138 0.117892 -0.21624
45 1.55588 0 0 0.00173173 -0.107165 1.01098
46 1.24273 0 0 0.00059028 -0.000104633 0.855255
47 0.784532 0 0 -0.00592605 0.000840004 1.11775
48 0 0 0 0 0 0
49 5.00518 -19.4321 -5.33527 -0.0223972 -0.0138683 -0.007932
50 0 -1.51208 1.07027 0 0 0
51 0.572822 -0.371635 1.73556 0.2455 -0.112897 0
52 0 -3.19837 2.17037 0 0 0
53 0 -2.31356 1.88593 -0.0388233 0 0
54 5.02286 -18.6816 -6.18059 -0.0223972 -0.0138683 -0.007932
55 0 -0.83886 2.17385 0 0 0
56 0 -0.654869 2.07023 0 0 0
time 22
0 7.58967 10.8278 -3.60973 0.000934124 0 -1.06437
1 6.02794 0 0 -1.03499 0.412312 -0.559875
2 11.7344 0 0 -0.00140298 0 -0.772913
3 8.81138 -0.000450134 -0.00011158 0.0971032 0 0.000158055
4 5.77839 0.000286102 0 0.0650592 0 0.000106249
5 2.23163 -0.000329971 -0.00036335 0.0320441 0 0
6 11.4725 0 0 -0.211181 -0.484263 0.600696
7 0.615219 -0.993091 -0.8107 -3.01423 0.324565 -0.386014
8 2.24752 0 0 0.0800072 0.00264723 -0.146496
9 1.11936 0 0 0.0512106 0.062516 -0.327821
10 3.71348 -0.102641 0.10219 1.38754 0.842929 0.0672859
11 1.72615 0 0 0.00945178 -0.00623858 -1.09905
12 1.21114 0 0 -0.0132694 0.0116176 -1.44917
13 3.59919 -1.06012 0.0708877 1.44077 0.43302 0.0137543
14 1.66069 0 0 0.00785391 0.0614248 -0.122428
15 1.167 0 0 -0.0106516 0.00718354 -0.090368
16 2.18852 0.50104 0.0576587 1.55548 0.166718 0.138312
17 1.29609 0 0 -0.185212 -0.0418434 -0.654895
18 1.62202 0.000714302 -0.000470638 0.0143687 -0.0178808 -1.11
19 1.22241 0 0 -0.00702545 0.00524257 -1.42423
20 1.76707 1.27612 0.0366404 1.27805 0.322855 0.136707
21 1.55587 0 0 -0.0225085 0.0235834 -0.467635
22 1.24274 0 0 -0.000596402 0 -0.783974
23 0.784524 0 0 0.00616284 -0.000615313 -0.9415
24 2.85835 9.28793 -4.43253 0.726982 0.410583 -1.99191
25 6.02794 0 0 0.0381727 0.0886559 0.233704
26 11.7344 0 0 0.00140274 0 0.89648
27 8.81167 0 0 0.894294 0 0
28 5.77884 0 0 0.599177 0 0
29 2.23249 0 0 0.295117 0 0
30 11.4725 0 0 0.919258 0.264464 -0.649751
31 0.615814 0.994372 -0.809165 -2.35227 0.0187305 0.46255
32 2.24752 0 0 -0.0459563 0.244746 0.234216
33 1.11936 0 0 -0.0408308 0.257423 0.212558
34 3.71349 0.102639 0.102191 -1.7258 1.11243 -0.263964
35 1.72615 0 0 0.00219633 0.00206192 0.928466
36 1.21112 0 0 -0.00470672 0.0169966 0.327294
37 3.5992 1.06012 0.0708883 -1.81456 1.00851 -0.246313
38 1.66069 0 0 0.0070775 0.0114628 0.775068
39 1.16699 0 0 -0.0493731 -0.0470546 0.50394
40 2.18853 -0.501041 0.057659 -1.57004 0.000184566 -0.21278
41 1.29609 0 0 -0.0358608 -0.0301294 1.06108
42 1.62202 -0.000713348 -0.000469685 -0.00103443 -0.00157671 1.01338
43 1.22241 0 0 0.0173376 0.0316407 0.340004
44 1.76707 -1.27612 0.0366406 -1.57138 0.117892 -0.216239
45 1.55588 0 0 0.0017317 -0.107165 1.01098
46 1.24273 0 0 0.0005903 -0.000104626 0.855255
47 0.784532 0 0 -0.00592631 0.000839872 1.11775
48 0 0 0 0 0 0
49 5.00524 -19.4213 -5.32781 -0.0209813 -0.0141253 -0.00849533
50 0 -1.51208 1.07027 0 0 0
51 0.572822 -0.371634 1.73556 0.2455 -0.112897 0
52 0 -3.19837 2.17037 0 0 0
53 0 -2.31355 1.88593 -0.0388233 0 0
54 5.02355 -18.6695 -6.17206 -0.0209813 -0.0141253 -0.00849533
55 0 -0.839088 2.17451 0 0 0
56 0 -0.654293 2.06813 0 0 0
time 23
0 7.58967 10.8278 -3.60973 0.000934124 0 -1.06437
1 6.02794 0 0 -1.03496 0.412933 -0.559315
2 11.7344 0 0 -0.00140291 0 -0.776292
3 8.81139 -0.000450134 -0.000112534 0.0977986 0 0.000157731
4 5.77839 0.000286102 0 0.065525 0 0.0001061
5 2.23163 -0.000328064 -0.00036335 0.0322735 0 0
6 11.4725 0 0 -0.212786 -0.482871 0.606175
7 0.615219 -0.993091 -0.8107 -3.01423 0.324565 -0.386014
8 2.24752 0 0 0.0800072 0.00264704 -0.146496
9 1.11936 0 0 0.0512106 0.062516 -0.327822
10 3.71348 -0.102641 0.102191 1.38754 0.842929 0.0672857
11 1.72615 0 0 0.00945169 -0.00623858 -1.09905
12 1.21114 0 0 -0.0132693 0.0116177 -1.44917
13 3.59919 -1.06012 0.0708879 1.44178 0.441508 0.017691
14 1.66069 0 0 0.0099743 0.0606599 -0.0949957
15 1.167 0 0 -0.00965988 0.00654195 -0.0629815
16 2.18853 0.50104 0.0576587 1.55548 0.166718 0.138312
17 1.29609 0 0 -0.185212 -0.0418433 -0.654895
18 1.62202 0.000714302 -0.000470638 0.0143687 -0.0178807 -1.11
19 1.22241 0 0 -0.00702542 0.00524258 -1.42423
20 1.76707 1.27612 0.036641 1.27804 0.322855 0.136707
21 1.55588 0 0 -0.0225086 0.0235834 -0.467635
22 1.24274 0 0 -0.000596398 0 -0.783974
23 0.784524 0 0 0.00616282 -0.000615286 -0.9415
24 2.85835 9.28793 -4.43253 0.726982 0.410583 -1.99191
25 6.02794 0 0 0.0386858 0.0882943 0.232848
26 11.7344 0 0 0.00140273 0 0.899576
27 8.81167 0 0 0.892519 0 0
28 5.77884 0 0 0.597988 0 0
29 2.23249 0 0 0.294532 0 0
30 11.4725 0 0 0.917486 0.266853 -0.654387
31 0.615814 0.994372 -0.809165 -2.35227 0.0187305 0.46255
32 2.24752 0 0 -0.0459565 0.244746 0.234216
33 1.11936 0 0 -0.0408306 0.257423 0.212558
34 3.71349 0.102639 0.102191 -1.7258 1.11243 -0.263964
35 1.72615 0 0 0.00219624 0.00206199 0.928466
36 1.21112 0 0 -0.00470674 0.0169967 0.327294
37 3.5992 1.06012 0.0708883 -1.81456 1.00851 -0.246313
38 1.66069 0 0 0.00707746 0.0114628 0.775068
39 1.16699 0 0 -0.0493731 -0.0470546 0.50394
40 2.18853 -0.50104 0.0576593 -1.57004 0.000184566 -0.21278
41 1.29609 0 0 -0.0358608 -0.0301293 1.06108
42 1.62202 -0.000713348 -0.000469685 -0.0010343 -0.00157682 1.01338
43 1.22241 0 0 0.0173376 0.0316406 0.340004
44 1.76707 -1.27612 0.0366404 -1.57138 0.117892 -0.216239
45 1.55588 0 0 0.00173182 -0.107165 1.01098
46 1.24273 0 0 0.000590223 -0.000104542 0.855255
47 0.784532 0 0 -0.0059262 0.000840099 1.11775
48 0 0 0 0 0 0
49 5.00489 -19.4071 -5.31916 -0.0183142 -0.0129336 -0.00816022
50 0 -1.51208 1.07027 0 0 0
51 0.572821 -0.371635 1.73556 0.2455 -0.112897 0
52 0 -3.19837 2.17037 0 0 0
53 0 -2.31356 1.88593 -0.0388233 0 0
54 5.02193 -18.6531 -6.16142 -0.0183142 -0.0129336 -0.00816022
55 0 -0.839296 2.17509 0 0 0
56 0 -0.653784 2.06625 0 0 0
time 24
0 7.58967 10.8278 -3.60973 0.000934124 0 -1.06437
1 6.02794 0 0 -1.03481 0.413774 -0.558679
2 11.7344 0 0 -0.00140287 0 -0.780491
3 8.81138 -0.000450134 -0.00011301 0.0985192 0 0.000157701
4 5.77839 0.000286102 0 0.0660078 0 0.00010614
5 2.23163 -0.000329018 -0.000363827 0.0325114 0 0
6 11.4725 0 0 -0.215465 -0.481671 0.613323
7 0.615219 -0.993092 -0.8107 -3.01423 0.324565 -0.386014
8 2.24752 0 0 0.0800071 0.00264713 -0.146496
9 1.11936 0 0 0.0512105 0.0625159 -0.327822
10 3.71348 -0.102642 0.102191 1.38754 0.842929 0.0672858
11 1.72615 0 0 0.00945176 -0.00623863 -1.09905
12 1.21114 0 0 -0.0132694 0.0116176 -1.44917
13 3.59919 -1.06012 0.0708878 1.44276 0.449182 0.0212871
14 1.66068 0 0 0.0118869 0.0599176 -0.0701684
15 1.167 0 0 -0.00874944 0.00593304 -0.0381945
16 2.18853 0.50104 0.057659 1.55548 0.166719 0.138312
17 1.29609 0 0 -0.185212 -0.0418434 -0.654895
18 1.62202 0.000713348 -0.000471592 0.0143688 -0.0178807 -1.11
19 1.22241 0 0 -0.00702549 0.00524257 -1.42423
20 1.76707 1.27612 0.0366408 1.27805 0.322855 0.136707
21 1.55588 0 0 -0.0225085 0.0235833 -0.467635
22 1.24273 0 0 -0.000596391 0 -0.783974
23 0.784524 0 0 0.00616284 -0.000615252 -0.9415
24 2.85835 9.28793 -4.43253 0.726982 0.410583 -1.99191
25 6.02794 0 0 0.0393877 0.087803 0.23191
26 11.7344 0 0 0.00140274 0 0.902949
27 8.81167 0 0 0.89013 0 0
28 5.77884 0 0 0.596387 0 0
29 2.23249 0 0 0.293743 0 0
30 11.4725 0 0 0.914753 0.270157 -0.659563
31 0.615814 0.994372 -0.809165 -2.35227 0.0187307 0.46255
32 2.24752 0 0 -0.0459562 0.244746 0.234216
33 1.11935 0 0 -0.0408309 0.257423 0.212558
34 3.71349 0.10264 0.102191 -1.7258 1.11243 -0.263964
35 1.72615 0 0 0.00219623 0.00206196 0.928465
36 1.21112 0 0 -0.00470666 0.0169965 0.327294
37 3.5992 1.06012 0.0708879 -1.81456 1.00851 -0.246313
38 1.66069 0 0 0.00707754 0.0114628 0.775068
39 1.16699 0 0 -0.049373 -0.0470546 0.50394
40 2.18853 -0.501041 0.0576588 -1.57004 0.000184506 -0.21278
41 1.29609 0 0 -0.0358608 -0.0301294 1.06108
42 1.62202 -0.000713348 -0.000468731 -0.00103442 -0.00157675 1.01338
43 1.22241 0 0 0.0173376 0.0316406 0.340004
44 1.76707 -1.27612 0.0366406 -1.57138 0.117893 -0.216239
45 1.55588 0 0 0.00173181 -0.107165 1.01098
46 1.24273 0 0 0.000590321 -0.000104632 0.855255
47 0.784533 0 0 -0.00592613 0.000839925 1.11775
48 0 0 0 0 0 0
49 5.00423 -19.3909 -5.30988 -0.0151087 -0.011059 -0.00721191
50 0 -1.51208 1.07027 0 0 0
51 0.572821 -0.371635 1.73556 0.2455 -0.112897 0
52 0 -3.19837 2.17037 0 0 0
53 0 -2.31356 1.88593 -0.0388233 0 0
54 5.01898 -18.6342 -6.14973 -0.0151087 -0.011059 -0.00721191
55 0 -0.839479 2.17561 0 0 0
56 0 -0.653339 2.06461 0 0 0
time 25
0 7.58967 10.8278 -3.60973 0.000934124 0 -1.06437
1 6.02794 0 0 -1.03469 0.414355 -0.558262
2 11.7344 0 0 -0.00140281 0 -0.784209
3 8.81138 -0.000450134 -0.00011301 0.0989709 0 0.000157873
4 5.77839 0.000286102 0 0.0663105 0 0.00010623
5 2.23163 -0.000329971 -0.000364304 0.0326603 0 0
6 11.4725 0 0 -0.218818 -0.480649 0.620932
7 0.615219 -0.993091 -0.810701 -3.01423 0.324565 -0.386014
8 2.24752 0 0 0.0800072 0.00264723 -0.146496
9 1.11936 0 0 0.0512105 0.062516 -0.327821
10 3.71348 -0.102641 0.102191 1.38754 0.842929 0.0672858
11 1.72615 0 0 0.00945187 -0.00623858 -1.09905
12 1.21114 0 0 -0.0132693 0.0116176 -1.44917
13 3.59919 -1.06012 0.0708884 1.44368 0.455943 0.0244856
14 1.66069 0 0 0.0135679 0.0592234 -0.0482706
15 1.167 0 0 -0.0079368 0.00537343 -0.0163319
16 2.18852 0.50104 0.0576596 1.55548 0.166718 0.138312
17 1.29609 0 0 -0.185212 -0.0418433 -0.654895
18 1.62202 0.000714302 -0.000471592 0.0143688 -0.0178807 -1.11
19 1.22241 0 0 -0.00702543 0.00524261 -1.42423
20 1.76707 1.27612 0.0366406 1.27805 0.322855 0.136707
21 1.55588 0 0 -0.0225085 0.0235833 -0.467635
22 1.24273 0 0 -0.000596413 0 -0.783974
23 0.784524 0 0 0.00616282 -0.000615285 -0.9415
24 2.85835 9.28793 -4.43253 0.726982 0.410583 -1.99191
25 6.02794 0 0 0.0402035 0.0872392 0.230957
26 11.7344 0 0 0.00140269 0 0.906376
27 8.81167 0 0 0.887387 0 0
28 5.77884 0 0 0.594549 0 0
29 2.23249 0 0 0.292838 0 0
30 11.4725 0 0 0.911414 0.273984 -0.664928
31 0.615812 0.994371 -0.809165 -2.35227 0.0187305 0.46255
32 2.24752 0 0 -0.0459563 0.244746 0.234216
33 1.11936 0 0 -0.0408308 0.257423 0.212558
34 3.71348 0.102639 0.102191 -1.7258 1.11243 -0.263964
35 1.72615 0 0 0.0021962 0.00206197 0.928466
36 1.21112 0 0 -0.00470661 0.0169967 0.327294
37 3.5992 1.06012 0.0708879 -1.81456 1.00851 -0.246313
38 1.66069 0 0 0.00707749 0.0114627 0.775068
39 1.16699 0 0 -0.0493731 -0.0470547 0.50394
40 2.18853 -0.501041 0.057659 -1.57004 0.000184529 -0.21278
41 1.29609 0 0 -0.0358609 -0.0301293 1.06108
42 1.62202 -0.000713348 -0.000470161 -0.00103443 -0.00157682 1.01338
43 1.22241 0 0 0.0173376 0.0316406 0.340004
44 1.76707 -1.27612 0.0366402 -1.57138 0.117892 -0.216239
45 1.55588 0 0 0.00173178 -0.107165 1.01098
46 1.24273 0 0 0.000590328 -0.000104672 0.855255
47 0.784532 0 0 -0.00592625 0.00083997 1.11775
48 0 0 0 0 0 0
49 5.00339 -19.3738 -5.30051 -0.0116403 -0.00876097 -0.00585316
50 0 -1.51208 1.07027 0 0 0
51 0.572821 -0.371634 1.73556 0.2455 -0.112897 0
52 0 -3.19837 2.17037 0 0 0
53 0 -2.31356 1.88593 -0.0388233 0 0
54 5.01517 -18.6141 -6.13775 -0.0116403 -0.00876097 -0.00585316
55 0 -0.839636 2.17605 0 0 0
56 0 -0.652958 2.06321 0 0 0
time 26
0 7.58967 10.8278 -3.60973 0.000934124 0 -1.06437
1 6.02794 0 0 -1.03455 0.414892 -0.55791
2 11.7344 0 0 -0.00140288 0 -0.787783
3 8.81138 -0.000450134 -0.00011158 0.0993264 0 0.00015805
4 5.77839 0.000286102 0 0.0665487 0 0.000106367
5 2.23163 -0.000329971 -0.00036335 0.0327778 0 0
6 11.4725 0 0 -0.222448 -0.479794 0.628628
7 0.615219 -0.993092 -0.810701 -3.01423 0.324565 -0.386014
8 2.24752 0 0 0.0800074 0.00264703 -0.146496
9 1.11936 0 0 0.0512105 0.062516 -0.327821
10 3.71348 -0.102641 0.102191 1.38754 0.842929 0.0672857
11 1.72615 0 0 0.0094517 -0.0062386 -1.09905
12 1.21114 0 0 -0.0132693 0.0116177 -1.44917
13 3.59919 -1.06012 0.0708883 1.4445 0.461695 0.0272295
14 1.66068 0 0 0.0149941 0.0586034 -0.0296269
15 1.167 0 0 -0.00723821 0.00488015 0.00228299
16 2.18853 0.50104 0.0576586 1.55548 0.166718 0.138312
17 1.29609 0 0 -0.185212 -0.0418433 -0.654895
18 1.62202 0.000713348 -0.000471115 0.0143688 -0.0178808 -1.11
19 1.22241 0 0 -0.00702546 0.00524256 -1.42423
20 1.76707 1.27612 0.0366405 1.27805 0.322855 0.136707
21 1.55588 0 0 -0.0225085 0.0235833 -0.467635
22 1.24273 0 0 -0.000596424 0 -0.783974
23 0.784523 0 0 0.00616292 -0.000615272 -0.941499
24 2.85835 9.28793 -4.43253 0.726982 0.410583 -1.99191
25 6.02794 0 0 0.0410529 0.0866575 0.230054
26 11.7344 0 0 0.00140268 0 0.909637
27 8.81167 0 0 0.884558 0 0
28 5.77884 0 0 0.592654 0 0
29 2.23249 0 0 0.291904 0 0
30 11.4725 0 0 0.907833 0.277948 -0.670132
31 0.615814 0.994372 -0.809166 -2.35227 0.0187305 0.46255
32 2.24752 0 0 -0.0459563 0.244746 0.234216
33 1.11936 0 0 -0.0408307 0.257423 0.212558
34 3.71349 0.10264 0.102191 -1.7258 1.11243 -0.263964
35 1.72615 0 0 0.00219632 0.00206193 0.928466
36 1.21112 0 0 -0.0047067 0.0169966 0.327294
37 3.5992 1.06012 0.0708879 -1.81456 1.00851 -0.246314
38 1.66069 0 0 0.0070775 0.0114628 0.775068
39 1.16699 0 0 -0.0493731 -0.0470546 0.50394
40 2.18853 -0.50104 0.0576588 -1.57004 0.000184588 -0.21278
41 1.29609 0 0 -0.0358609 -0.0301293 1.06108
42 1.62202 -0.000713348 -0.000470161 -0.00103434 -0.00157676 1.01338
43 1.22241 0 0 0.0173376 0.0316404 0.340004
44 1.76707 -1.27612 0.0366405 -1.57138 0.117893 -0.21624
45 1.55588 0 0 0.00173157 -0.107165 1.01098
46 1.24273 0 0 0.000590309 -0.000104713 0.855255
47 0.784532 0 0 -0.0059262 0.000839935 1.11775
48 0 0 0 0 0 0
49 5.00245 -19.3571 -5.29161 -0.00818458 -0.00629892 -0.00428675
50 0 -1.51208 1.07027 0 0 0
51 0.572821 -0.371634 1.73556 0.2455 -0.112897 0
52 0 -3.19837 2.17037 0 0 0
53 0 -2.31356 1.88593 -0.0388233 0 0
54 5.01098 -18.5945 -6.12624 -0.00818458 -0.00629892 -0.00428675
55 0 -0.83976 2.17641 0 0 0
56 0 -0.652641 2.06205 0 0 0
time 27
0 7.58967 10.8278 -3.60973 0.000934124 0 -1.06437
1 6.02794 0 0 -1.03442 0.415356 -0.557626
2 11.7344 0 0 -0.00140288 0 -0.790973
3 8.81138 -0.000451088 -0.000112057 0.0995933 0 0.000157866
4 5.77839 0.000286102 0 0.0667275 0 0.000106218
5 2.23163 -0.000329018 -0.000363827 0.0328658 0 0
6 11.4725 0 0 -0.225958 -0.479107 0.63575
7 0.615219 -0.993091 -0.810699 -3.01423 0.324565 -0.386014
8 2.24752 0 0 0.0800072 0.0026471 -0.146496
9 1.11936 0 0 0.0512106 0.062516 -0.327821
10 3.71348 -0.102641 0.102191 1.38754 0.842929 0.0672856
11 1.72615 0 0 0.00945179 -0.00623866 -1.09905
12 1.21114 0 0 -0.0132693 0.0116176 -1.44917
13 3.59919 -1.06012 0.0708883 1.44519 0.466339 0.0294604
14 1.66069 0 0 0.0161429 0.058083 -0.0145615
15 1.167 0 0 -0.00666935 0.00447014 0.0173254
16 2.18852 0.50104 0.0576596 1.55548 0.166718 0.138312
17 1.29609 0 0 -0.185212 -0.0418434 -0.654895
18 1.62202 0.000714302 -0.000471115 0.0143687 -0.0178808 -1.11
19 1.22241 0 0 -0.00702549 0.0052425 -1.42423
20 1.76707 1.27612 0.0366411 1.27805 0.322855 0.136707
21 1.55587 0 0 -0.0225085 0.0235834 -0.467635
22 1.24273 0 0 -0.000596409 0 -0.783974
23 0.784523 0 0 0.0061629 -0.000615232 -0.9415
24 2.85835 9.28793 -4.43253 0.726982 0.410583 -1.99191
25 6.02794 0 0 0.041853 0.0861112 0.229259
26 11.7344 0 0 0.00140273 0 0.912522
27 8.81167 0 0 0.881909 0 0
28 5.77884 0 0 0.59088 0 0
29 2.23249 0 0 0.29103 0 0
30 11.4725 0 0 0.904385 0.281671 -0.674815
31 0.615814 0.994372 -0.809166 -2.35227 0.0187305 0.46255
32 2.24752 0 0 -0.0459564 0.244746 0.234216
33 1.11936 0 0 -0.0408307 0.257423 0.212558
34 3.71349 0.102639 0.102191 -1.7258 1.11243 -0.263963
35 1.72615 0 0 0.00219618 0.00206198 0.928466
36 1.21112 0 0 -0.00470664 0.0169965 0.327294
37 3.5992 1.06012 0.0708879 -1.81456 1.00851 -0.246313
38 1.66069 0 0 0.00707744 0.0114628 0.775068
39 1.16699 0 0 -0.0493731 -0.0470546 0.50394
40 2.18853 -0.50104 0.057659 -1.57004 0.000184543 -0.21278
41 1.29609 0 0 -0.0358608 -0.0301293 1.06108
42 1.62202 -0.000713348 -0.000469685 -0.00103444 -0.00157672 1.01338
43 1.22241 0 0 0.0173377 0.0316406 0.340004
44 1.76707 -1.27612 0.0366402 -1.57138 0.117893 -0.216239
45 1.55588 0 0 0.00173179 -0.107165 1.01098
46 1.24273 0 0 0.00059032 -0.000104672 0.855255
47 0.784532 0 0 -0.00592625 0.000839963 1.11775
48 0 0 0 0 0 0
49 5.00154 -19.342 -5.28372 -0.00501716 -0.00393233 -0.00271546
50 0 -1.51208 1.07027 0 0 0
51 0.572821 -0.371634 1.73556 0.2455 -0.112897 0
52 0 -3.19837 2.17037 0 0 0
53 0 -2.31355 1.88593 -0.0388233 0 0
54 5.00689 -18.5768 -6.11594 -0.00501716 -0.00393233 -0.00271546
55 0 -0.839865 2.17669 0 0 0
56 0 -0.652395 2.06114 0 0 0
time 28
0 7.58967 10.8278 -3.60973 0.000934124 0 -1.06437
1 6.02794 0 0 -1.0343 0.415719 -0.557418
2 11.7344 0 0 -0.00140288 0 -0.793541
3 8.81138 -0.000450134 -0.00011158 0.0997763 0 0.000157815
4 5.77839 0.000286102 0 0.0668502 0 0.000106235
5 2.23164 -0.000329018 -0.00036335 0.0329263 0 0
6 11.4725 0 0 -0.228955 -0.478597 0.641642
7 0.615219 -0.993091 -0.8107 -3.01423 0.324565 -0.386014
8 2.24752 0 0 0.0800072 0.00264713 -0.146496
9 1.11936 0 0 0.0512106 0.0625159 -0.327822
10 3.71348 -0.102641 0.102191 1.38754 0.842929 0.0672857
11 1.72615 0 0 0.00945176 -0.00623861 -1.09905
12 1.21114 0 0 -0.0132693 0.0116177 -1.44917
13 3.59919 -1.06012 0.0708876 1.44571 0.469778 0.0311216
14 1.66069 0 0 0.0169917 0.0576864 -0.00339851
15 1.167 0 0 -0.0062454 0.0041598 0.0284717
16 2.18853 0.50104 0.057659 1.55548 0.166718 0.138312
17 1.29609 0 0 -0.185212 -0.0418433 -0.654895
18 1.62202 0.000712395 -0.000471592 0.0143688 -0.0178808 -1.11
19 1.22241 0 0 -0.00702548 0.00524262 -1.42423
20 1.76707 1.27612 0.036641 1.27805 0.322855 0.136707
21 1.55588 0 0 -0.0225086 0.0235834 -0.467635
22 1.24274 0 0 -0.000596351 0 -0.783974
23 0.784523 0 0 0.00616281 -0.00061532 -0.941499
24 2.85835 9.28793 -4.43253 0.726982 0.410583 -1.99191
25 6.02794 0 0 0.0425247 0.0856545 0.228627
26 11.7344 0 0 0.00140267 0 0.914828
27 8.81167 0 0 0.8797 0 0
28 5.77884 0 0 0.589399 0 0
29 2.23249 0 0 0.290301 0 0
30 11.4725 0 0 0.901446 0.284782 -0.678614
31 0.615814 0.994372 -0.809165 -2.35227 0.0187305 0.46255
32 2.24752 0 0 -0.0459563 0.244746 0.234216
33 1.11936 0 0 -0.0408308 0.257423 0.212558
34 3.71349 0.102639 0.102191 -1.7258 1.11243 -0.263964
35 1.72615 0 0 0.00219627 0.00206189 0.928466
36 1.21112 0 0 -0.00470671 0.0169967 0.327294
37 3.5992 1.06012 0.0708882 -1.81456 1.00851 -0.246313
38 1.66069 0 0 0.00707742 0.0114628 0.775068
39 1.16699 0 0 -0.0493731 -0.0470546 0.50394
40 2.18853 -0.501041 0.0576591 -1.57004 0.000184596 -0.21278
41 1.29609 0 0 -0.0358608 -0.0301294 1.06108
42 1.62202 -0.000715256 -0.000470161 -0.00103432 -0.00157681 1.01338
43 1.22241 0 0 0.0173377 0.0316406 0.340004
44 1.76707 -1.27612 0.0366404 -1.57138 0.117892 -0.21624
45 1.55588 0 0 0.00173176 -0.107165 1.01098
46 1.24273 0 0 0.000590228 -0.000104569 0.855255
47 0.784532 0 0 -0.00592616 0.000839875 1.11775
48 0 0 0 0 0 0
49 5.00076 -19.3297 -5.27741 -0.00241355 -0.00192067 -0.00134205
50 0 -1.51208 1.07027 0 0 0
51 0.572821 -0.371635 1.73556 0.2455 -0.112897 0
52 0 -3.19837 2.17037 0 0 0
53 0 -2.31356 1.88593 -0.0388233 0 0
54 5.00338 -18.5623 -6.10764 -0.00241355 -0.00192067 -0.00134205
55 0 -0.839937 2.1769 0 0 0
56 0 -0.652222 2.06049 0 0 0
time 29
0 7.58967 10.8278 -3.60973 0.000934124 0 -1.06437
1 6.02794 0 0 -1.03422 0.415956 -0.557291
2 11.7344 0 0 -0.0014028 0 -0.795252
3 8.81139 -0.000450134 -0.000112534 0.0998821 0 0.000158066
4 5.77839 0.000286102 0 0.0669211 0 0.00010623
5 2.23164 -0.000329971 -0.000364304 0.0329611 0 0
6 11.4725 0 0 -0.231043 -0.47828 0.645654
7 0.615219 -0.993091 -0.810701 -3.01423 0.324565 -0.386014
8 2.24752 0 0 0.0800073 0.00264712 -0.146496
9 1.11936 0 0 0.0512105 0.062516 -0.327821
10 3.71348 -0.102641 0.102191 1.38754 0.842929 0.0672857
11 1.72615 0 0 0.0094518 -0.00623858 -1.09905
12 1.21114 0 0 -0.0132693 0.0116176 -1.44917
13 3.59919 -1.06012 0.0708883 1.44605 0.471913 0.0321576
14 1.66069 0 0 0.0175181 0.0574352 0.00353751
15 1.167 0 0 -0.00598107 0.00396401 0.0353972
16 2.18852 0.50104 0.057659 1.55548 0.166719 0.138312
17 1.2961 0 0 -0.185212 -0.0418433 -0.654895
18 1.62202 0.000712395 -0.000471115 0.0143688 -0.0178808 -1.11
19 1.22241 0 0 -0.00702544 0.00524254 -1.42423
20 1.76707 1.27612 0.0366405 1.27805 0.322855 0.136707
21 1.55588 0 0 -0.0225086 0.0235834 -0.467635
22 1.24274 0 0 -0.000596405 0 -0.783974
23 0.784523 0 0 0.00616284 -0.000615246 -0.9415
24 2.85835 9.28793 -4.43253 0.726982 0.410583 -1.99191
25 6.02794 0 0 0.0429859 0.0853411 0.228211
26 11.7344 0 0 0.00140271 0 0.916357
27 8.81167 0 0 0.878187 0 0
28 5.77884 0 0 0.588385 0 0
29 2.23249 0 0 0.289801 0 0
30 11.4725 0 0 0.899402 0.286916 -0.681163
31 0.615812 0.994372 -0.809166 -2.35227 0.0187305 0.46255
32 2.24752 0 0 -0.0459564 0.244746 0.234216
33 1.11936 0 0 -0.0408308 0.257423 0.212558
34 3.71349 0.102639 0.102191 -1.7258 1.11243 -0.263964
35 1.72615 0 0 0.00219622 0.00206196 0.928466
36 1.21112 0 0 -0.0047067 0.0169966 0.327294
37 3.5992 1.06012 0.0708878 -1.81456 1.00851 -0.246314
38 1.66069 0 0 0.00707754 0.0114628 0.775068
39 1.16699 0 0 -0.0493731 -0.0470545 0.50394
40 2.18853 -0.50104 0.0576589 -1.57004 0.000184707 -0.21278
41 1.29609 0 0 -0.0358609 -0.0301294 1.06108
42 1.62202 -0.000713348 -0.000469208 -0.00103436 -0.00157685 1.01338
43 1.22241 0 0 0.0173377 0.0316406 0.340004
44 1.76707 -1.27612 0.0366403 -1.57138 0.117893 -0.21624
45 1.55588 0 0 0.0017318 -0.107165 1.01098
46 1.24273 0 0 0.000590249 -0.000104656 0.855255
47 0.784532 0 0 -0.00592616 0.000839945 1.11775
48 0 0 0 0 0 0
49 5.00021 -19.3214 -5.27322 -0.000649311 -0.00052341 -0.000369307
50 0 -1.51208 1.07027 0 0 0
51 0.572821 -0.371634 1.73556 0.2455 -0.112897 0
52 0 -3.19837 2.17037 0 0 0
53 0 -2.31355 1.88593 -0.0388233 0 0
54 5.00093 -18.5525 -6.10209 -0.000649311 -0.00052341 -0.000369307
55 0 -0.839979 2.17702 0 0 0
56 0 -0.652111 2.06009 0 0 0
time 30
0 7.58967 10.8278 -3.60973 0.000934124 0 -1.06437
1 6.02794 0 0 -1.03418 0.416041 -0.557246
2 11.7344 0 0 -0.00140287 0 -0.795875
3 8.81138 -0.000450134 -0.00011158 0.0999164 0 0.000157633
4 5.77839 0.000286102 0 0.0669441 0 0.000106055
5 2.23163 -0.000329971 -0.00036335 0.0329723 0 0
6 11.4725 0 0 -0.231827 -0.47817 0.647136
7 0.615221 -0.993091 -0.8107 -3.01423 0.324565 -0.386014
8 2.24752 0 0 0.0800073 0.0026472 -0.146496
9 1.11936 0 0 0.0512106 0.062516 -0.327822
10 3.71348 -0.102641 0.102191 1.38753 0.842929 0.0672854
11 1.72615 0 0 0.00945168 -0.00623857 -1.09905
12 1.21114 0 0 -0.0132694 0.0116176 -1.44917
13 3.59919 -1.06012 0.0708883 1.44616 0.472648 0.0325141
14 1.66069 0 0 0.0176988 0.0573478 0.00592155
15 1.167 0 0 -0.00589005 0.00389623 0.037778
16 2.18853 0.50104 0.057659 1.55548 0.166718 0.138312
17 1.29609 0 0 -0.185212 -0.0418434 -0.654895
18 1.62202 0.000714302 -0.000470638 0.0143688 -0.0178807 -1.11
19 1.22241 0 0 -0.00702546 0.00524262 -1.42423
20 1.76707 1.27612 0.0366409 1.27805 0.322855 0.136707
21 1.55588 0 0 -0.0225086 0.0235834 -0.467635
22 1.24274 0 0 -0.000596449 0 -0.783974
23 0.784523 0 0 0.00616289 -0.000615218 -0.9415
24 2.85835 9.28793 -4.43253 0.726982 0.410583 -1.99191
25 6.02794 0 0 0.0431585 0.0852248 0.22806
26 11.7344 0 0 0.00140279 0 0.916911
27 8.81167 0 0 0.877625 0 0
28 5.77884 0 0 0.588008 0 0
29 2.23249 0 0 0.289616 0 0
30 11.4725 0 0 0.898635 0.287709 -0.682094
31 0.615814 0.994373 -0.809165 -2.35227 0.0187305 0.46255
32 2.24752 0 0 -0.0459563 0.244746 0.234216
33 1.11936 0 0 -0.0408307 0.257423 0.212558
34 3.71349 0.102639 0.10219 -1.7258 1.11243 -0.263964
35 1.72615 0 0 0.00219633 0.00206195 0.928466
36 1.21112 0 0 -0.00470668 0.0169966 0.327294
37 3.5992 1.06012 0.070888 -1.81456 1.00851 -0.246313
38 1.66069 0 0 0.00707743 0.0114629 0.775068
39 1.16699 0 0 -0.0493731 -0.0470546 0.50394
40 2.18853 -0.501041 0.057659 -1.57004 0.000184469 -0.21278
41 1.29609 0 0 -0.0358609 -0.0301293 1.06108
42 1.62202 -0.000715256 -0.000469685 -0.00103445 -0.0015768 1.01338
43 1.22241 0 0 0.0173377 0.0316406 0.340004
44 1.76707 -1.27612 0.0366406 -1.57138 0.117893 -0.216239
45 1.55587 0 0 0.00173175 -0.107165 1.01098
46 1.24273 0 0 0.000590247 -0.000104643 0.855255
47 0.784532 0 0 -0.00592611 0.00084008 1.11775
48 0 0 0 0 0 0
49 5 -19.3184 -5.2717 0 0 0
50 0 -1.51208 1.07027 0 0 0
51 0.572821 -0.371634 1.73556 0.2455 -0.112897 0
52 0 -3.19837 2.17037 0 0 0
53 0 -2.31355 1.88593 -0.0388233 0 0
54 5 -18.549 -6.10007 0 0 0
55 0 -0.839994 2.17706 0 0 0
56 0 -0.652075 2.05996 0 0 0
end
