//Sequence File generated by the Wall Worm SMD Exporter PRO 1.99
//www.wallworm.com
version 1
nodes
0 "b_l_clav" -1
1 "b_l_upperarm" 0
2 "b_l_forearm" 1
3 "b_l_twist3" 2
4 "b_l_twist2" 2
5 "b_l_twist1" 2
6 "b_l_hand" 2
7 "b_l_thumb001" 6
8 "b_l_thumb002" 7
9 "b_l_thumb003" 8
10 "b_l_middle001" 6
11 "b_l_middle002" 10
12 "b_l_middle003" 11
13 "b_l_index001" 6
14 "b_l_index002" 13
15 "b_l_index003" 14
16 "b_l_hand_ringsqueezer" 6
17 "b_l_ring001" 16
18 "b_l_ring002" 17
19 "b_l_ring003" 18
20 "b_l_hand_pinkysqueezer" 6
21 "b_l_pinky001" 20
22 "b_l_pinky002" 21
23 "b_l_pinky003" 22
24 "b_r_clav" -1
25 "b_r_upperarm" 24
26 "b_r_forearm" 25
27 "b_r_twist3" 26
28 "b_r_twist2" 26
29 "b_r_twist1" 26
30 "b_r_hand" 26
31 "b_r_thumb001" 30
32 "b_r_thumb002" 31
33 "b_r_thumb003" 32
34 "b_r_middle001" 30
35 "b_r_middle002" 34
36 "b_r_middle003" 35
37 "b_r_index001" 30
38 "b_r_index002" 37
39 "b_r_index003" 38
40 "b_r_hand_ringsqueezer" 30
41 "b_r_ring001" 40
42 "b_r_ring002" 41
43 "b_r_ring003" 42
44 "b_r_hand_pinkysqueezer" 30
45 "b_r_pinky001" 44
46 "b_r_pinky002" 45
47 "b_r_pinky003" 46
48 "b_zero" -1
49 "d_gun" -1
50 "d_trig" 49
51 "d_slidelock" 49
52 "d_slide" 49
53 "d_barrel" 49
54 "d_mag" -1
55 "d_magfollower" 54
56 "d_boolet" 54
end
skeleton
time 0
0 7.58967 10.8278 -3.60973 0.000934124 0 -1.06437
1 6.02794 0 0 -1.03418 0.416041 -0.557246
2 11.7344 0 0 -0.00140287 0 -0.795875
3 8.81138 -0.000450134 -0.00011158 0.0999164 0 0.000157633
4 5.77839 0.000286102 0 0.0669441 0 0.000106055
5 2.23163 -0.000329971 -0.00036335 0.0329723 0 0
6 11.4725 0 0 -0.231827 -0.47817 0.647136
7 0.615221 -0.993091 -0.8107 -3.01423 0.324565 -0.386014
8 2.24752 0 0 0.0800073 0.0026472 -0.146496
9 1.11936 0 0 0.0512106 0.062516 -0.327822
10 3.71348 -0.102641 0.102191 1.38753 0.842929 0.0672854
11 1.72615 0 0 0.00945168 -0.00623857 -1.09905
12 1.21114 0 0 -0.0132694 0.0116176 -1.44917
13 3.59919 -1.06012 0.0708883 1.436 0.244349 -0.0655281
14 1.66069 0 0 -0.037484 0.0636747 -0.726307
15 1.167 0 0 -0.0270716 0.0140958 -0.693244
16 2.18853 0.50104 0.057659 1.55548 0.166718 0.138312
17 1.29609 0 0 -0.185212 -0.0418434 -0.654895
18 1.62202 0.000714302 -0.000470638 0.0143688 -0.0178807 -1.11
19 1.22241 0 0 -0.00702546 0.00524262 -1.42423
20 1.76707 1.27612 0.0366409 1.27805 0.322855 0.136707
21 1.55588 0 0 -0.0225086 0.0235834 -0.467635
22 1.24274 0 0 -0.000596449 0 -0.783974
23 0.784523 0 0 0.00616289 -0.000615218 -0.9415
24 2.85835 9.28793 -4.43253 0.726982 0.410583 -1.99191
25 6.02794 0 0 0.0431585 0.0852248 0.22806
26 11.7344 0 0 0.00140279 0 0.916911
27 8.81167 0 0 0.877625 0 0
28 5.77884 0 0 0.588008 0 0
29 2.23249 0 0 0.289616 0 0
30 11.4725 0 0 0.898635 0.287709 -0.682094
31 0.615814 0.994373 -0.809165 -2.35227 0.0187305 0.46255
32 2.24752 0 0 -0.0459563 0.244746 0.234216
33 1.11936 0 0 -0.0408307 0.257423 0.212558
34 3.71349 0.102639 0.10219 -1.7258 1.11243 -0.263964
35 1.72615 0 0 0.00219633 0.00206195 0.928466
36 1.21112 0 0 -0.00470668 0.0169966 0.327294
37 3.5992 1.06012 0.070888 -1.81456 1.00851 -0.246313
38 1.66069 0 0 0.00707743 0.0114629 0.775068
39 1.16699 0 0 -0.0493731 -0.0470546 0.50394
40 2.18853 -0.501041 0.057659 -1.57004 0.000184469 -0.21278
41 1.29609 0 0 -0.0358609 -0.0301293 1.06108
42 1.62202 -0.000715256 -0.000469685 -0.00103445 -0.0015768 1.01338
43 1.22241 0 0 0.0173377 0.0316406 0.340004
44 1.76707 -1.27612 0.0366406 -1.57138 0.117893 -0.216239
45 1.55587 0 0 0.00173175 -0.107165 1.01098
46 1.24273 0 0 0.000590247 -0.000104643 0.855255
47 0.784532 0 0 -0.00592611 0.00084008 1.11775
48 0 0 0 0 0 0
49 5 -19.3184 -5.2717 0 0 0
50 0 -1.51208 1.07027 0 0 0
51 0.540026 -0.371634 1.70232 0 0 0
52 0 -4.95107 2.17037 0 0 0
53 0 -2.31355 1.98216 0 0 0
54 5 -18.549 -6.10007 0 0 0
55 0 -0.804535 2.0769 0 0 0
56 0 -0.73922 2.38034 0 0 0
time 1
0 7.58967 10.8278 -3.60973 0.000934124 0 -1.06437
1 6.02794 0 0 -1.03678 0.412868 -0.557115
2 11.7344 0 0 -0.00140275 0 -0.799914
3 8.81139 -0.000450134 -0.000112057 0.0930659 0 0.000158037
4 5.77839 0.000286102 0 0.0623542 0 0.000106262
5 2.23163 -0.000329018 -0.000363827 0.0307118 0 0
6 11.4725 0 0 -0.246854 -0.457991 0.68343
7 0.615219 -0.993091 -0.8107 -3.01423 0.324565 -0.386014
8 2.24752 0 0 0.0800071 0.0026471 -0.146496
9 1.11936 0 0 0.0512105 0.062516 -0.327822
10 3.71348 -0.102641 0.102191 1.38754 0.842929 0.0672855
11 1.72615 0 0 0.00945167 -0.00623855 -1.09905
12 1.21114 0 0 -0.0132692 0.0116177 -1.44917
13 3.59919 -1.06012 0.0708873 1.436 0.24435 -0.0655282
14 1.66069 0 0 -0.037484 0.0636747 -0.726307
15 1.167 0 0 -0.0270716 0.0140958 -0.693244
16 2.18852 0.501039 0.0576591 1.55548 0.166718 0.138312
17 1.29609 0 0 -0.185212 -0.0418434 -0.654895
18 1.62202 0.000713348 -0.000471592 0.0143688 -0.0178807 -1.11
19 1.22241 0 0 -0.00702549 0.00524253 -1.42423
20 1.76707 1.27612 0.0366408 1.27805 0.322855 0.136707
21 1.55588 0 0 -0.0225085 0.0235834 -0.467635
22 1.24273 0 0 -0.000596463 0 -0.783974
23 0.784523 0 0 0.00616285 -0.00061528 -0.941499
24 2.85835 9.28793 -4.43253 0.726982 0.410583 -1.99191
25 6.02794 0 0 0.0464444 0.0830433 0.228521
26 11.7344 0 0 0.00140269 0 0.923744
27 8.81167 0 0 0.86257 0 0
28 5.77884 0 0 0.577922 0 0
29 2.23249 0 0 0.284648 0 0
30 11.4725 0 0 0.881353 0.308224 -0.718926
31 0.615814 0.994373 -0.809165 -2.35227 0.0187304 0.46255
32 2.24752 0 0 -0.0459564 0.244746 0.234216
33 1.11936 0 0 -0.0408308 0.257423 0.212558
34 3.71349 0.102639 0.102191 -1.7258 1.11243 -0.263964
35 1.72615 0 0 0.00219621 0.00206195 0.928466
36 1.21112 0 0 -0.00470665 0.0169967 0.327294
37 3.5992 1.06012 0.0708879 -1.81456 1.00851 -0.246313
38 1.66069 0 0 0.0070774 0.0114628 0.775068
39 1.16699 0 0 -0.049373 -0.0470546 0.50394
40 2.18853 -0.501041 0.0576591 -1.57004 0.000184387 -0.212779
41 1.29609 0 0 -0.0358609 -0.0301294 1.06108
42 1.62202 -0.000713348 -0.000470638 -0.00103429 -0.00157683 1.01338
43 1.22241 0 0 0.0173376 0.0316406 0.340004
44 1.76707 -1.27612 0.0366405 -1.57138 0.117892 -0.216239
45 1.55588 0 0 0.0017317 -0.107165 1.01098
46 1.24273 0 0 0.000590199 -0.000104613 0.855255
47 0.784531 0 0 -0.00592615 0.000840007 1.11775
48 0 0 0 0 0 0
49 5.00367 -19.3038 -5.28107 0.030546 0.012857 0.000393
50 0 -1.50715 1.083 0.153348 0 0
51 0.540026 -0.371632 1.70233 0 0 0
52 0 -4.26864 2.17037 0 0 0
53 0 -2.24599 1.94401 -0.020964 0 0
54 4.99301 -18.5095 -6.0855 0.030546 0.012857 0.000393
55 0 -0.805422 2.0794 0 0 0
56 0 -0.737041 2.37233 0 0 0
time 2
0 7.58967 10.8278 -3.60973 0.000934124 0 -1.06437
1 6.02794 0 0 -0.978696 0.534019 -0.492528
2 11.7344 0 0 -0.0014027 0 -1.03864
3 8.81138 -0.000452042 -0.00011301 0.17211 0 0.000157751
4 5.77839 0.000284195 0 0.115314 0 0.000106468
5 2.23163 -0.000330925 -0.00036335 0.0567964 0 0
6 11.4725 0 0 -0.231877 -0.541873 0.695184
7 0.615219 -0.993091 -0.8107 -3.01423 0.324565 -0.386014
8 2.24752 0 0 0.0800073 0.00264717 -0.146496
9 1.11936 0 0 0.0512105 0.0625159 -0.327821
10 3.71348 -0.102641 0.102191 1.38754 0.842929 0.0672859
11 1.72615 0 0 0.00945179 -0.00623858 -1.09905
12 1.21114 0 0 -0.0132693 0.0116176 -1.44917
13 3.59919 -1.06012 0.0708872 1.43601 0.244349 -0.065528
14 1.66069 0 0 -0.0374841 0.0636747 -0.726307
15 1.167 0 0 -0.0270716 0.0140958 -0.693245
16 2.18852 0.501039 0.0576587 1.55548 0.166718 0.138312
17 1.29609 0 0 -0.185212 -0.0418434 -0.654895
18 1.62202 0.000712395 -0.000471115 0.0143687 -0.0178807 -1.11
19 1.22241 0 0 -0.00702547 0.00524261 -1.42423
20 1.76707 1.27612 0.0366408 1.27805 0.322855 0.136707
21 1.55588 0 0 -0.0225085 0.0235834 -0.467635
22 1.24274 0 0 -0.000596407 0 -0.783974
23 0.784524 0 0 0.00616286 -0.000615259 -0.9415
24 2.85835 9.28793 -4.43253 0.726982 0.410583 -1.99191
25 6.02794 0 0 0.0204873 0.0961471 0.11692
26 11.7344 0 0 0.00140271 0 1.13542
27 8.81167 0 0 0.860188 0 0
28 5.77884 0 0 0.576326 0 0
29 2.23249 0 0 0.283862 0 0
30 11.4725 0 0 0.91896 0.226955 -0.72195
31 0.615814 0.994372 -0.809165 -2.35227 0.0187304 0.46255
32 2.24752 0 0 -0.0459563 0.244746 0.234216
33 1.11936 0 0 -0.0408308 0.257423 0.212558
34 3.71349 0.102639 0.102191 -1.7258 1.11243 -0.263964
35 1.72615 0 0 0.00219615 0.00206198 0.928466
36 1.21112 0 0 -0.00470665 0.0169966 0.327294
37 3.5992 1.06012 0.0708883 -1.81456 1.00851 -0.246313
38 1.66069 0 0 0.00707746 0.0114628 0.775068
39 1.16699 0 0 -0.0493731 -0.0470546 0.50394
40 2.18853 -0.501041 0.0576593 -1.57004 0.000184409 -0.21278
41 1.29609 0 0 -0.0358608 -0.0301294 1.06108
42 1.62202 -0.000713348 -0.000470161 -0.00103438 -0.00157674 1.01338
43 1.22241 0 0 0.0173376 0.0316406 0.340004
44 1.76707 -1.27612 0.0366405 -1.57138 0.117892 -0.216239
45 1.55588 0 0 0.0017317 -0.107165 1.01097
46 1.24273 0 0 0.000590275 -0.000104644 0.855255
47 0.784531 0 0 -0.00592613 0.000839989 1.11775
48 0 0 0 0 0 0
49 5 -17.9935 -5.2717 -0.079767 -0.010131 0.00081
50 0 -1.50025 1.10082 0.306695 0 0
51 0.540026 -0.371637 1.70232 0 0 0
52 0 -3.13126 2.17037 0 0 0
53 0 -2.17842 1.90586 -0.041928 0 0
54 5.00842 -17.2926 -6.1587 -0.079767 -0.010131 0.00081
55 0 -0.806307 2.08191 0 0 0
56 0 -0.734863 2.36433 0 0 0
time 3
0 7.58967 10.8278 -3.60973 0.000934124 0 -1.06437
1 6.02794 0 0 -0.957504 0.559961 -0.481862
2 11.7344 0 0 -0.00140298 0 -1.07903
3 8.81138 -0.000450134 -0.000112057 0.18792 0 0.000157521
4 5.77839 0.000286102 0 0.125906 0 0.000106327
5 2.23163 -0.000328064 -0.000364304 0.0620137 0 0
6 11.4725 0 0 -0.240513 -0.60679 0.660748
7 0.615219 -0.993091 -0.8107 -3.01423 0.324565 -0.386014
8 2.24752 0 0 0.0800072 0.00264722 -0.146496
9 1.11936 0 0 0.0512106 0.062516 -0.327822
10 3.71348 -0.102641 0.102191 1.38754 0.842929 0.0672857
11 1.72615 0 0 0.00945181 -0.0062386 -1.09905
12 1.21114 0 0 -0.0132693 0.0116177 -1.44917
13 3.59919 -1.06012 0.0708878 1.43601 0.244349 -0.0655281
14 1.66069 0 0 -0.0374841 0.0636747 -0.726308
15 1.167 0 0 -0.0270716 0.0140958 -0.693244
16 2.18853 0.50104 0.0576593 1.55548 0.166718 0.138312
17 1.29609 0 0 -0.185212 -0.0418434 -0.654895
18 1.62202 0.000713348 -0.000471592 0.0143688 -0.0178807 -1.11
19 1.22241 0 0 -0.00702544 0.00524262 -1.42423
20 1.76707 1.27612 0.0366408 1.27805 0.322855 0.136707
21 1.55588 0 0 -0.0225086 0.0235834 -0.467635
22 1.24274 0 0 -0.000596388 0 -0.783974
23 0.784523 0 0 0.00616289 -0.000615219 -0.9415
24 2.85835 9.28793 -4.43253 0.726982 0.410583 -1.99191
25 6.02794 0 0 0.0170732 0.0971832 0.0942062
26 11.7344 0 0 0.0014026 0 1.16875
27 8.81167 0 0 0.854426 0 0
28 5.77884 0 0 0.572465 0 0
29 2.23249 0 0 0.281961 0 0
30 11.4725 0 0 0.909343 0.19316 -0.668352
31 0.615812 0.994372 -0.809165 -2.35227 0.0187305 0.46255
32 2.24752 0 0 -0.0459563 0.244746 0.234216
33 1.11935 0 0 -0.0408308 0.257423 0.212558
34 3.71349 0.10264 0.102191 -1.7258 1.11243 -0.263964
35 1.72615 0 0 0.00219616 0.00206195 0.928466
36 1.21112 0 0 -0.00470668 0.0169966 0.327294
37 3.5992 1.06012 0.0708883 -1.81456 1.00851 -0.246313
38 1.66069 0 0 0.00707742 0.0114628 0.775068
39 1.16699 0 0 -0.0493731 -0.0470546 0.50394
40 2.18853 -0.501041 0.0576593 -1.57004 0.000184402 -0.21278
41 1.29609 0 0 -0.0358609 -0.0301294 1.06108
42 1.62202 -0.000715256 -0.000469685 -0.00103435 -0.0015768 1.01338
43 1.22241 0 0 0.0173377 0.0316405 0.340004
44 1.76707 -1.27612 0.0366402 -1.57138 0.117893 -0.21624
45 1.55588 0 0 0.00173188 -0.107165 1.01098
46 1.24273 0 0 0.00059032 -0.000104582 0.855255
47 0.784532 0 0 -0.00592621 0.00083997 1.11775
48 0 0 0 0 0 0
49 4.97176 -17.6689 -5.19668 -0.151981 -0.0037558 0.0190754
50 0 -1.49729 1.10846 0.306695 0 0
51 0.540026 -0.371632 1.70232 0 0 0
52 0 -3.13126 2.17037 0 0 0
53 0 -2.17842 1.90586 -0.041928 0 0
54 4.96316 -17.0339 -6.13199 -0.151981 -0.0037558 0.0190754
55 0 -0.807194 2.08441 0 0 0
56 0 -0.732691 2.35633 0 0 0
time 4
0 7.58967 10.8278 -3.60973 0.000934124 0 -1.06437
1 6.02794 0 0 -0.970255 0.52796 -0.508527
2 11.7344 0 0 -0.00140284 0 -0.9989
3 8.81138 -0.000450134 -0.000112057 0.15566 0 0.00015822
4 5.77839 0.000286102 0 0.104292 0 0.000106623
5 2.23164 -0.000329971 -0.00036335 0.0513679 0 0
6 11.4725 0 0 -0.252613 -0.646217 0.597549
7 0.615218 -0.993092 -0.8107 -3.01423 0.324565 -0.386014
8 2.24752 0 0 0.0800072 0.00264728 -0.146496
9 1.11936 0 0 0.0512106 0.0625159 -0.327821
10 3.71348 -0.102642 0.102191 1.38754 0.842929 0.067286
11 1.72615 0 0 0.00945176 -0.00623859 -1.09905
12 1.21114 0 0 -0.0132693 0.0116177 -1.44917
13 3.59919 -1.06012 0.0708879 1.43601 0.244349 -0.065528
14 1.66069 0 0 -0.037484 0.0636747 -0.726307
15 1.167 0 0 -0.0270716 0.0140958 -0.693244
16 2.18852 0.50104 0.0576588 1.55548 0.166719 0.138312
17 1.29609 0 0 -0.185212 -0.0418434 -0.654895
18 1.62202 0.000713348 -0.000471115 0.0143687 -0.0178807 -1.11
19 1.22241 0 0 -0.00702546 0.00524259 -1.42423
20 1.76707 1.27612 0.0366406 1.27805 0.322855 0.136707
21 1.55588 0 0 -0.0225085 0.0235834 -0.467635
22 1.24273 0 0 -0.000596424 0 -0.783974
23 0.784523 0 0 0.00616287 -0.000615271 -0.9415
24 2.85835 9.28793 -4.43253 0.726982 0.410583 -1.99191
25 6.02794 0 0 0.0285016 0.0922619 0.129136
26 11.7344 0 0 0.00140259 0 1.08857
27 8.81167 0 0 0.85269 0 0
28 5.77884 0 0 0.571303 0 0
29 2.23249 0 0 0.281388 0 0
30 11.4725 0 0 0.884997 0.189904 -0.583288
31 0.615814 0.994373 -0.809165 -2.35227 0.0187304 0.46255
32 2.24752 0 0 -0.0459563 0.244746 0.234216
33 1.11936 0 0 -0.0408307 0.257423 0.212558
34 3.71349 0.102639 0.102191 -1.7258 1.11243 -0.263964
35 1.72615 0 0 0.00219626 0.00206193 0.928466
36 1.21112 0 0 -0.00470667 0.0169966 0.327294
37 3.5992 1.06012 0.0708883 -1.81456 1.00851 -0.246313
38 1.66069 0 0 0.00707742 0.0114628 0.775068
39 1.16699 0 0 -0.0493731 -0.0470546 0.50394
40 2.18853 -0.501041 0.057659 -1.57004 0.000184521 -0.21278
41 1.29609 0 0 -0.0358609 -0.0301294 1.06108
42 1.62202 -0.000715256 -0.000469685 -0.00103439 -0.00157672 1.01338
43 1.22241 0 0 0.0173377 0.0316405 0.340004
44 1.76707 -1.27612 0.0366406 -1.57138 0.117893 -0.216239
45 1.55588 0 0 0.0017318 -0.107165 1.01098
46 1.24273 0 0 0.000590237 -0.000104665 0.855255
47 0.784532 0 0 -0.00592616 0.000840001 1.11775
48 0 0 0 0 0 0
49 4.92701 -18.082 -5.07949 -0.194009 0.012458 0.039169
50 0 -1.49631 1.11101 0.306695 0 0
51 0.540026 -0.371635 1.70232 0 0 0
52 0 -3.13126 2.17037 0 0 0
53 0 -2.17842 1.90586 -0.041928 0 0
54 4.89174 -17.4877 -6.04059 -0.194009 0.012458 0.039169
55 0 -0.808075 2.0869 0 0 0
56 0 -0.730518 2.34835 0 0 0
time 5
0 7.58967 10.8278 -3.60973 0.000934124 0 -1.06437
1 6.02794 0 0 -0.986956 0.493503 -0.531023
2 11.7344 0 0 -0.00140283 0 -0.924297
3 8.81138 -0.000450134 -0.00011158 0.121443 0 0.000158159
4 5.77839 0.000286102 0 0.0813668 0 0.000106478
5 2.23163 -0.000329018 -0.00036335 0.0400762 0 0
6 11.4725 0 0 -0.253538 -0.645606 0.556164
7 0.615218 -0.993091 -0.8107 -3.01423 0.324565 -0.386015
8 2.24752 0 0 0.0800073 0.0026473 -0.146496
9 1.11936 0 0 0.0512106 0.0625159 -0.327822
10 3.71348 -0.102641 0.102191 1.38754 0.842929 0.0672857
11 1.72615 0 0 0.00945174 -0.00623859 -1.09905
12 1.21114 0 0 -0.0132693 0.0116177 -1.44917
13 3.59919 -1.06012 0.070888 1.43601 0.244349 -0.0655281
14 1.66069 0 0 -0.037484 0.0636747 -0.726307
15 1.167 0 0 -0.0270716 0.0140958 -0.693245
16 2.18852 0.50104 0.0576591 1.55548 0.166718 0.138312
17 1.29609 0 0 -0.185212 -0.0418433 -0.654895
18 1.62202 0.000713348 -0.000471115 0.0143688 -0.0178807 -1.11
19 1.22241 0 0 -0.00702549 0.00524256 -1.42423
20 1.76707 1.27612 0.0366409 1.27805 0.322855 0.136707
21 1.55588 0 0 -0.0225085 0.0235834 -0.467635
22 1.24273 0 0 -0.000596409 0 -0.783974
23 0.784523 0 0 0.00616286 -0.00061526 -0.941499
24 2.85835 9.28793 -4.43253 0.726982 0.410583 -1.99191
25 6.02794 0 0 0.0378017 0.0877013 0.164052
26 11.7344 0 0 0.00140273 0 1.01776
27 8.81167 0 0 0.851845 0 0
28 5.77884 0 0 0.570736 0 0
29 2.23249 0 0 0.281109 0 0
30 11.4725 0 0 0.873845 0.192853 -0.543922
31 0.615812 0.994372 -0.809165 -2.35227 0.0187305 0.46255
32 2.24752 0 0 -0.0459563 0.244746 0.234216
33 1.11936 0 0 -0.0408308 0.257423 0.212558
34 3.71349 0.102639 0.102191 -1.7258 1.11243 -0.263964
35 1.72615 0 0 0.00219621 0.00206193 0.928466
36 1.21112 0 0 -0.00470665 0.0169966 0.327294
37 3.5992 1.06012 0.070888 -1.81456 1.00851 -0.246313
38 1.66069 0 0 0.00707745 0.0114628 0.775068
39 1.16699 0 0 -0.0493731 -0.0470546 0.50394
40 2.18853 -0.50104 0.0576591 -1.57004 0.000184566 -0.21278
41 1.29609 0 0 -0.0358609 -0.0301294 1.06108
42 1.62202 -0.000713348 -0.000469685 -0.00103429 -0.0015768 1.01338
43 1.22241 0 0 0.0173376 0.0316406 0.340004
44 1.76707 -1.27612 0.0366406 -1.57138 0.117893 -0.21624
45 1.55587 0 0 0.0017317 -0.107165 1.01097
46 1.24273 0 0 0.000590288 -0.00010467 0.855255
47 0.784532 0 0 -0.00592617 0.00083998 1.11775
48 0 0 0 0 0 0
49 4.88995 -18.4886 -4.9905 -0.200563 0.0192375 0.0402928
50 0 -1.49729 1.10846 0.306695 0 0
51 0.540026 -0.371635 1.70232 0 0 0
52 0 -3.13126 2.17037 0 0 0
53 0 -2.17842 1.90586 -0.041928 0 0
54 4.84768 -17.9008 -5.95538 -0.200563 0.0192375 0.0402928
55 0 -0.808956 2.08939 0 0 0
56 0 -0.72835 2.34039 0 0 0
time 6
0 7.58967 10.8278 -3.60973 0.000934124 0 -1.06437
1 6.02794 0 0 -0.996975 0.478092 -0.537023
2 11.7344 0 0 -0.00140294 0 -0.903309
3 8.81138 -0.000449181 -0.000112057 0.108093 0 0.000157996
4 5.77839 0.000287056 0 0.0724223 0 0.000106443
5 2.23163 -0.000329018 -0.00036478 0.0356705 0 0
6 11.4725 0 0 -0.257978 -0.611681 0.571922
7 0.615219 -0.993091 -0.810699 -3.01423 0.324565 -0.386014
8 2.24752 0 0 0.0800072 0.00264732 -0.146496
9 1.11936 0 0 0.0512105 0.0625159 -0.327821
10 3.71348 -0.102641 0.102191 1.38754 0.842929 0.0672863
11 1.72615 0 0 0.00945174 -0.00623856 -1.09905
12 1.21114 0 0 -0.0132693 0.0116177 -1.44917
13 3.59919 -1.06012 0.0708884 1.43601 0.24435 -0.065528
14 1.66069 0 0 -0.037484 0.0636747 -0.726308
15 1.167 0 0 -0.0270716 0.0140958 -0.693245
16 2.18853 0.501039 0.057659 1.55548 0.166719 0.138312
17 1.29609 0 0 -0.185212 -0.0418433 -0.654895
18 1.62202 0.000715256 -0.0004704 0.0143688 -0.0178807 -1.11
19 1.22241 0 0 -0.00702546 0.00524262 -1.42423
20 1.76707 1.27612 0.0366409 1.27805 0.322855 0.136708
21 1.55588 0 0 -0.0225085 0.0235834 -0.467635
22 1.24274 0 0 -0.000596419 0 -0.783974
23 0.784523 0 0 0.00616286 -0.000615242 -0.9415
24 2.85835 9.28793 -4.43253 0.726982 0.410583 -1.99191
25 6.02794 0 0 0.0425396 0.0850602 0.176309
26 11.7344 0 0 0.00140268 0 1.00184
27 8.81167 0 0 0.845492 0 0
28 5.77884 0 0 0.566479 0 0
29 2.23249 0 0 0.279012 0 0
30 11.4725 0 0 0.868918 0.206067 -0.57423
31 0.615812 0.994373 -0.809166 -2.35227 0.0187304 0.46255
32 2.24752 0 0 -0.0459564 0.244746 0.234216
33 1.11936 0 0 -0.0408308 0.257423 0.212558
34 3.71349 0.102639 0.102191 -1.7258 1.11243 -0.263964
35 1.72615 0 0 0.00219626 0.00206192 0.928466
36 1.21112 0 0 -0.00470668 0.0169966 0.327294
37 3.5992 1.06012 0.0708885 -1.81456 1.00851 -0.246313
38 1.66069 0 0 0.00707746 0.0114628 0.775068
39 1.16699 0 0 -0.0493731 -0.0470546 0.50394
40 2.18853 -0.50104 0.0576593 -1.57004 0.000184536 -0.21278
41 1.29609 0 0 -0.0358609 -0.0301294 1.06108
42 1.62202 -0.000713348 -0.000469685 -0.00103442 -0.00157672 1.01338
43 1.22241 0 0 0.0173376 0.0316406 0.340004
44 1.76707 -1.27612 0.0366408 -1.57138 0.117892 -0.21624
45 1.55588 0 0 0.00173179 -0.107165 1.01098
46 1.24273 0 0 0.000590248 -0.00010464 0.855255
47 0.784532 0 0 -0.00592619 0.000839973 1.11775
48 0 0 0 0 0 0
49 4.87065 -18.645 -4.96393 -0.169004 0.023091 0.027787
50 0 -1.50025 1.10082 0.306695 0 0
51 0.540026 -0.371632 1.70232 0 0 0
52 0 -4.04117 2.17037 0 0 0
53 0 -2.24599 1.94401 -0.020964 0 0
54 4.83162 -18.0267 -5.90967 -0.169004 0.023091 0.027787
55 0 -0.809835 2.09187 0 0 0
56 0 -0.726192 2.33244 0 0 0
time 7
0 7.58967 10.8278 -3.60973 0.000934124 0 -1.06437
1 6.02794 0 0 -1.00837 0.462458 -0.540854
2 11.7344 0 0 -0.00140286 0 -0.885228
3 8.81139 -0.000450134 -0.00011158 0.0975796 0 0.000157792
4 5.77839 0.000286102 0 0.0653783 0 0.000106087
5 2.23164 -0.000329971 -0.000362873 0.0322011 0 0
6 11.4725 0 0 -0.257351 -0.560509 0.600087
7 0.615218 -0.993092 -0.810699 -3.01423 0.324565 -0.386014
8 2.24752 0 0 0.0800072 0.00264724 -0.146496
9 1.11936 0 0 0.0512105 0.0625161 -0.327822
10 3.71348 -0.102641 0.102191 1.38754 0.842929 0.0672859
11 1.72615 0 0 0.00945176 -0.00623858 -1.09905
12 1.21114 0 0 -0.0132693 0.0116177 -1.44917
13 3.59919 -1.06012 0.0708888 1.43601 0.24435 -0.065528
14 1.66069 0 0 -0.037484 0.0636747 -0.726308
15 1.167 0 0 -0.0270716 0.0140958 -0.693244
16 2.18852 0.50104 0.0576595 1.55548 0.166719 0.138312
17 1.29609 0 0 -0.185212 -0.0418434 -0.654895
18 1.62202 0.000714302 -0.000471115 0.0143688 -0.0178807 -1.11
19 1.22241 0 0 -0.00702548 0.00524261 -1.42423
20 1.76707 1.27612 0.0366415 1.27805 0.322855 0.136707
21 1.55588 0 0 -0.0225085 0.0235834 -0.467635
22 1.24274 0 0 -0.000596416 0 -0.783974
23 0.784523 0 0 0.00616287 -0.000615306 -0.9415
24 2.85835 9.28793 -4.43253 0.726982 0.410583 -1.99191
25 6.02794 0 0 0.045845 0.0831445 0.187355
26 11.7344 0 0 0.00140268 0 0.991271
27 8.81167 0 0 0.84033 0 0
28 5.77884 0 0 0.563021 0 0
29 2.23249 0 0 0.277309 0 0
30 11.4725 0 0 0.868897 0.223998 -0.626148
31 0.615812 0.994373 -0.809166 -2.35227 0.0187305 0.46255
32 2.24752 0 0 -0.0459564 0.244746 0.234216
33 1.11936 0 0 -0.0408308 0.257423 0.212558
34 3.71349 0.102638 0.102191 -1.7258 1.11243 -0.263964
35 1.72615 0 0 0.00219624 0.00206193 0.928466
36 1.21112 0 0 -0.00470664 0.0169966 0.327294
37 3.5992 1.06012 0.0708883 -1.81456 1.00851 -0.246313
38 1.66069 0 0 0.00707748 0.0114628 0.775068
39 1.16699 0 0 -0.0493732 -0.0470545 0.50394
40 2.18853 -0.501041 0.0576588 -1.57004 0.000184566 -0.21278
41 1.29609 0 0 -0.0358609 -0.0301294 1.06108
42 1.62202 -0.000713348 -0.000469685 -0.00103437 -0.00157677 1.01338
43 1.22241 0 0 0.0173376 0.0316406 0.340004
44 1.76707 -1.27612 0.0366405 -1.57138 0.117892 -0.21624
45 1.55588 0 0 0.0017318 -0.107165 1.01098
46 1.24273 0 0 0.000590319 -0.000104639 0.855255
47 0.784531 0 0 -0.00592619 0.00083994 1.11775
48 0 0 0 0 0 0
49 4.86106 -18.7992 -4.97632 -0.119137 0.0236408 0.00881791
50 0 -1.50715 1.083 0.153348 0 0
51 0.540026 -0.371634 1.70233 0 0 0
52 0 -4.95107 2.17037 0 0 0
53 0 -2.31355 1.98216 0 0 0
54 4.83358 -18.134 -5.89002 -0.119137 0.0236408 0.00881791
55 0 -0.810715 2.09435 0 0 0
56 0 -0.724041 2.32453 0 0 0
time 8
0 7.58967 10.8278 -3.60973 0.000934124 0 -1.06437
1 6.02794 0 0 -1.01892 0.447361 -0.544297
2 11.7344 0 0 -0.00140284 0 -0.865748
3 8.81138 -0.000450134 -0.00011158 0.0900835 0 0.000157707
4 5.77839 0.000286102 0 0.0603561 0 0.000106048
5 2.23163 -0.000329018 -0.000363827 0.0297277 0 0
6 11.4725 0 0 -0.24996 -0.511996 0.623576
7 0.61522 -0.993091 -0.8107 -3.01423 0.324565 -0.386014
8 2.24752 0 0 0.080007 0.00264721 -0.146496
9 1.11936 0 0 0.0512106 0.0625159 -0.327821
10 3.71348 -0.102641 0.102191 1.38754 0.842929 0.0672858
11 1.72615 0 0 0.00945176 -0.00623861 -1.09905
12 1.21114 0 0 -0.0132693 0.0116176 -1.44917
13 3.59919 -1.06012 0.070888 1.436 0.244349 -0.0655281
14 1.66069 0 0 -0.037484 0.0636747 -0.726307
15 1.167 0 0 -0.0270716 0.0140958 -0.693245
16 2.18852 0.50104 0.0576586 1.55548 0.166718 0.138312
17 1.29609 0 0 -0.185212 -0.0418433 -0.654895
18 1.62202 0.000713348 -0.000471115 0.0143687 -0.0178807 -1.11
19 1.22241 0 0 -0.00702546 0.00524263 -1.42423
20 1.76707 1.27612 0.0366404 1.27805 0.322855 0.136707
21 1.55588 0 0 -0.0225085 0.0235834 -0.467635
22 1.24274 0 0 -0.00059641 0 -0.783974
23 0.784524 0 0 0.00616289 -0.000615259 -0.9415
24 2.85835 9.28793 -4.43253 0.726982 0.410583 -1.99191
25 6.02794 0 0 0.047657 0.0820739 0.197867
26 11.7344 0 0 0.00140278 0 0.980027
27 8.81167 0 0 0.83914 0 0
28 5.77884 0 0 0.562224 0 0
29 2.23249 0 0 0.276916 0 0
30 11.4725 0 0 0.87359 0.240497 -0.673834
31 0.615812 0.994372 -0.809165 -2.35227 0.0187305 0.46255
32 2.24752 0 0 -0.0459565 0.244746 0.234216
33 1.11936 0 0 -0.0408307 0.257423 0.212558
34 3.71349 0.102639 0.102191 -1.7258 1.11243 -0.263964
35 1.72615 0 0 0.00219617 0.00206201 0.928466
36 1.21112 0 0 -0.00470661 0.0169966 0.327294
37 3.5992 1.06012 0.0708879 -1.81456 1.00851 -0.246313
38 1.66069 0 0 0.00707745 0.0114628 0.775068
39 1.16699 0 0 -0.049373 -0.0470546 0.50394
40 2.18853 -0.50104 0.057659 -1.57004 0.000184484 -0.21278
41 1.29609 0 0 -0.0358609 -0.0301294 1.06108
42 1.62202 -0.000713348 -0.000469208 -0.00103436 -0.00157677 1.01338
43 1.22241 0 0 0.0173376 0.0316405 0.340004
44 1.76707 -1.27612 0.0366403 -1.57138 0.117892 -0.21624
45 1.55588 0 0 0.00173181 -0.107165 1.01098
46 1.24273 0 0 0.000590272 -0.000104597 0.855255
47 0.784532 0 0 -0.00592624 0.000839973 1.11775
48 0 0 0 0 0 0
49 4.85813 -18.9449 -5.01154 -0.0707668 0.0205093 -0.0094479
50 0 -1.51208 1.07027 0 0 0
51 0.540025 -0.371634 1.70233 0 0 0
52 0 -4.95107 2.17037 0 0 0
53 0 -2.31356 1.98216 0 0 0
54 4.84677 -18.2358 -5.89206 -0.0707668 0.0205093 -0.0094479
55 0 -0.811584 2.09681 0 0 0
56 0 -0.721893 2.31665 0 0 0
time 9
0 7.58967 10.8278 -3.60973 0.000934124 0 -1.06437
1 6.02794 0 0 -1.0261 0.434594 -0.548735
2 11.7344 0 0 -0.00140295 0 -0.842746
3 8.81139 -0.000450134 -0.000112534 0.0871074 0 0.000157714
4 5.77839 0.000286102 0 0.058362 0 0.000106134
5 2.23163 -0.000329971 -0.000364304 0.0287456 0 0
6 11.4725 0 0 -0.238491 -0.485592 0.627676
7 0.61522 -0.993091 -0.8107 -3.01424 0.324565 -0.386014
8 2.24752 0 0 0.0800072 0.00264724 -0.146496
9 1.11936 0 0 0.0512107 0.062516 -0.327821
10 3.71348 -0.102641 0.10219 1.38754 0.842929 0.0672862
11 1.72615 0 0 0.00945177 -0.0062386 -1.09905
12 1.21114 0 0 -0.0132693 0.0116176 -1.44917
13 3.59919 -1.06012 0.0708877 1.43601 0.24435 -0.0655281
14 1.66069 0 0 -0.037484 0.0636747 -0.726307
15 1.167 0 0 -0.0270716 0.0140958 -0.693244
16 2.18853 0.50104 0.0576589 1.55548 0.166719 0.138312
17 1.29609 0 0 -0.185212 -0.0418434 -0.654895
18 1.62202 0.000713348 -0.000471115 0.0143687 -0.0178807 -1.11
19 1.22241 0 0 -0.00702547 0.00524261 -1.42423
20 1.76707 1.27612 0.0366405 1.27805 0.322855 0.136707
21 1.55588 0 0 -0.0225085 0.0235833 -0.467635
22 1.24273 0 0 -0.000596441 0 -0.783974
23 0.784524 0 0 0.00616289 -0.000615279 -0.9415
24 2.85835 9.28793 -4.43253 0.726982 0.410583 -1.99191
25 6.02794 0 0 0.0477929 0.0820257 0.207229
26 11.7344 0 0 0.00140267 0 0.964263
27 8.81167 0 0 0.845768 0 0
28 5.77884 0 0 0.566665 0 0
29 2.23249 0 0 0.279103 0 0
30 11.4725 0 0 0.882766 0.249236 -0.692459
31 0.615812 0.994372 -0.809165 -2.35227 0.0187305 0.46255
32 2.24752 0 0 -0.0459564 0.244746 0.234216
33 1.11936 0 0 -0.0408307 0.257423 0.212558
34 3.71348 0.102639 0.102191 -1.7258 1.11243 -0.263964
35 1.72615 0 0 0.00219621 0.00206196 0.928465
36 1.21112 0 0 -0.00470669 0.0169966 0.327294
37 3.5992 1.06012 0.0708882 -1.81456 1.00851 -0.246313
38 1.66069 0 0 0.00707747 0.0114629 0.775068
39 1.16699 0 0 -0.0493731 -0.0470546 0.50394
40 2.18853 -0.50104 0.0576593 -1.57004 0.000184588 -0.21278
41 1.29609 0 0 -0.0358609 -0.0301293 1.06108
42 1.62202 -0.000713348 -0.000468731 -0.00103438 -0.0015767 1.01338
43 1.22241 0 0 0.0173376 0.0316406 0.340004
44 1.76707 -1.27612 0.0366409 -1.57138 0.117893 -0.21624
45 1.55588 0 0 0.00173166 -0.107165 1.01098
46 1.24273 0 0 0.000590302 -0.000104701 0.855255
47 0.784532 0 0 -0.00592613 0.000839989 1.11775
48 0 0 0 0 0 0
49 4.85886 -19.0754 -5.05347 -0.043698 0.013319 -0.019844
50 0 -1.51208 1.07027 0 0 0
51 0.540026 -0.371635 1.70232 0 0 0
52 0 -4.95108 2.17037 0 0 0
53 0 -2.31356 1.98216 0 0 0
54 4.86192 -18.3428 -5.91459 -0.043698 0.013319 -0.019844
55 0 -0.812456 2.09927 0 0 0
56 0 -0.719759 2.3088 0 0 0
time 10
0 7.58967 10.8278 -3.60973 0.000934124 0 -1.06437
1 6.02794 0 0 -1.02942 0.425806 -0.553494
2 11.7344 0 0 -0.00140288 0 -0.82046
3 8.81138 -0.000449181 -0.000112534 0.0947737 0 0.000157938
4 5.77839 0.000286102 0 0.0634983 0 0.000106362
5 2.23163 -0.000329018 -0.000362873 0.0312754 0 0
6 11.4725 0 0 -0.21989 -0.484053 0.611608
7 0.615221 -0.993091 -0.810701 -3.01423 0.324565 -0.386014
8 2.24752 0 0 0.0800072 0.00264716 -0.146496
9 1.11936 0 0 0.0512106 0.0625159 -0.327822
10 3.71348 -0.102641 0.102191 1.38753 0.842929 0.0672856
11 1.72615 0 0 0.00945181 -0.00623852 -1.09905
12 1.21114 0 0 -0.0132693 0.0116176 -1.44917
13 3.5992 -1.06012 0.0708879 1.436 0.244349 -0.0655281
14 1.66068 0 0 -0.037484 0.0636747 -0.726308
15 1.167 0 0 -0.0270716 0.0140958 -0.693244
16 2.18853 0.50104 0.0576591 1.55548 0.166718 0.138312
17 1.29609 0 0 -0.185212 -0.0418434 -0.654895
18 1.62202 0.000713348 -0.000471592 0.0143687 -0.0178808 -1.11
19 1.22241 0 0 -0.00702547 0.00524258 -1.42423
20 1.76707 1.27612 0.0366403 1.27805 0.322855 0.136707
21 1.55588 0 0 -0.0225086 0.0235834 -0.467635
22 1.24274 0 0 -0.000596357 0 -0.783974
23 0.784524 0 0 0.00616287 -0.000615306 -0.941499
24 2.85835 9.28793 -4.43253 0.726982 0.410583 -1.99191
25 6.02794 0 0 0.0461907 0.0830979 0.21486
26 11.7344 0 0 0.00140269 0 0.94483
27 8.81167 0 0 0.865449 0 0
28 5.77884 0 0 0.579851 0 0
29 2.23249 0 0 0.285598 0 0
30 11.4725 0 0 0.901053 0.249002 -0.67788
31 0.615812 0.994372 -0.809165 -2.35227 0.0187305 0.46255
32 2.24752 0 0 -0.0459564 0.244746 0.234216
33 1.11936 0 0 -0.0408308 0.257423 0.212558
34 3.71349 0.102639 0.102191 -1.7258 1.11243 -0.263964
35 1.72615 0 0 0.00219623 0.00206197 0.928466
36 1.21112 0 0 -0.00470667 0.0169966 0.327294
37 3.5992 1.06012 0.0708885 -1.81456 1.00851 -0.246313
38 1.66069 0 0 0.0070775 0.0114628 0.775068
39 1.16699 0 0 -0.0493731 -0.0470546 0.50394
40 2.18853 -0.501041 0.057659 -1.57004 0.000184558 -0.21278
41 1.29609 0 0 -0.035861 -0.0301293 1.06108
42 1.62202 -0.000715256 -0.000470161 -0.0010344 -0.00157675 1.01338
43 1.22241 0 0 0.0173376 0.0316406 0.340004
44 1.76707 -1.27612 0.0366404 -1.57138 0.117893 -0.216239
45 1.55588 0 0 0.00173173 -0.107165 1.01098
46 1.24273 0 0 0.000590272 -0.000104704 0.855255
47 0.784532 0 0 -0.0059261 0.000840093 1.11775
48 0 0 0 0 0 0
49 4.86019 -19.1843 -5.08598 -0.0411478 -0.0025451 -0.0215373
50 0 -1.51208 1.07027 0 0 0
51 0.540026 -0.371634 1.70233 0 0 0
52 0 -4.95107 2.17037 0 0 0
53 0 -2.31355 1.98216 0 0 0
54 4.8782 -18.4498 -5.9453 -0.0411478 -0.0025451 -0.0215373
55 0 -0.813318 2.10171 0 0 0
56 0 -0.717636 2.30099 0 0 0
time 11
0 7.58967 10.8278 -3.60973 0.000934124 0 -1.06437
1 6.02794 0 0 -1.03099 0.41996 -0.557352
2 11.7344 0 0 -0.00140284 0 -0.802643
3 8.81138 -0.000449181 -0.000112057 0.108279 0 0.000157951
4 5.77839 0.000287056 0 0.0725467 0 0.000106337
5 2.23163 -0.000329018 -0.000364304 0.0357318 0 0
6 11.4725 0 0 -0.197995 -0.490753 0.590904
7 0.615218 -0.993091 -0.810701 -3.01424 0.324565 -0.386014
8 2.24752 0 0 0.0800073 0.00264724 -0.146496
9 1.11936 0 0 0.0512105 0.062516 -0.327821
10 3.71348 -0.102642 0.102191 1.38754 0.842929 0.0672861
11 1.72615 0 0 0.0094518 -0.00623862 -1.09905
12 1.21114 0 0 -0.0132693 0.0116176 -1.44917
13 3.59919 -1.06012 0.0708883 1.43601 0.244349 -0.065528
14 1.66069 0 0 -0.037484 0.0636747 -0.726307
15 1.167 0 0 -0.0270716 0.0140958 -0.693244
16 2.18852 0.50104 0.0576596 1.55548 0.166718 0.138312
17 1.29609 0 0 -0.185212 -0.0418433 -0.654895
18 1.62202 0.000713348 -0.000470638 0.0143687 -0.0178808 -1.11
19 1.22241 0 0 -0.00702549 0.00524257 -1.42423
20 1.76707 1.27612 0.0366411 1.27805 0.322855 0.136708
21 1.55588 0 0 -0.0225085 0.0235834 -0.467635
22 1.24273 0 0 -0.000596483 0 -0.783974
23 0.784524 0 0 0.00616286 -0.000615266 -0.941499
24 2.85835 9.28793 -4.43253 0.726982 0.410583 -1.99191
25 6.02794 0 0 0.0438113 0.0846975 0.220406
26 11.7344 0 0 0.00140276 0 0.927923
27 8.81167 0 0 0.889858 0 0
28 5.77884 0 0 0.596205 0 0
29 2.23249 0 0 0.293653 0 0
30 11.4725 0 0 0.923305 0.2456 -0.654275
31 0.615812 0.994372 -0.809166 -2.35227 0.0187305 0.46255
32 2.24752 0 0 -0.0459564 0.244746 0.234216
33 1.11936 0 0 -0.0408309 0.257423 0.212558
34 3.71349 0.102638 0.102191 -1.7258 1.11243 -0.263964
35 1.72615 0 0 0.00219624 0.00206195 0.928466
36 1.21112 0 0 -0.00470661 0.0169965 0.327294
37 3.5992 1.06012 0.070888 -1.81456 1.00851 -0.246313
38 1.66069 0 0 0.00707756 0.0114628 0.775068
39 1.16699 0 0 -0.0493731 -0.0470546 0.50394
40 2.18853 -0.50104 0.0576591 -1.57004 0.000184581 -0.21278
41 1.29609 0 0 -0.0358609 -0.0301294 1.06108
42 1.62202 -0.000713348 -0.000469208 -0.00103435 -0.00157676 1.01338
43 1.22241 0 0 0.0173376 0.0316407 0.340004
44 1.76707 -1.27612 0.0366403 -1.57138 0.117893 -0.216239
45 1.55588 0 0 0.00173178 -0.107165 1.01098
46 1.24273 0 0 0.000590313 -0.000104661 0.855255
47 0.784533 0 0 -0.00592616 0.000839987 1.11775
48 0 0 0 0 0 0
49 4.8636 -19.2655 -5.111 -0.0466958 -0.0222163 -0.0201386
50 0 -1.51208 1.07027 0 0 0
51 0.540026 -0.371634 1.70232 0 0 0
52 0 -4.95108 2.17037 0 0 0
53 0 -2.31355 1.98216 0 0 0
54 4.89747 -18.5361 -5.97417 -0.0466958 -0.0222163 -0.0201386
55 0 -0.814177 2.10414 0 0 0
56 0 -0.715523 2.29322 0 0 0
time 12
0 7.58967 10.8278 -3.60973 0.000934124 0 -1.06437
1 6.02794 0 0 -1.03173 0.416512 -0.559826
2 11.7344 0 0 -0.00140285 0 -0.790362
3 8.81139 -0.000448227 -0.000112534 0.113977 0 0.000158064
4 5.77839 0.000287056 0 0.0763646 0 0.000106311
5 2.23163 -0.000328064 -0.00036335 0.0376124 0 0
6 11.4725 0 0 -0.187573 -0.495864 0.577583
7 0.615219 -0.993091 -0.8107 -3.01423 0.324565 -0.386014
8 2.24752 0 0 0.0800073 0.00264717 -0.146496
9 1.11936 0 0 0.0512106 0.0625161 -0.327822
10 3.71348 -0.102641 0.102191 1.38754 0.842929 0.0672861
11 1.72615 0 0 0.00945177 -0.00623855 -1.09905
12 1.21114 0 0 -0.0132693 0.0116177 -1.44917
13 3.59919 -1.06012 0.0708878 1.436 0.244349 -0.0655281
14 1.66069 0 0 -0.037484 0.0636747 -0.726308
15 1.167 0 0 -0.0270716 0.0140958 -0.693244
16 2.18853 0.501039 0.0576589 1.55548 0.166718 0.138312
17 1.29609 0 0 -0.185212 -0.0418433 -0.654895
18 1.62202 0.000714302 -0.000471592 0.0143688 -0.0178808 -1.11
19 1.22241 0 0 -0.00702543 0.00524255 -1.42423
20 1.76707 1.27612 0.0366408 1.27804 0.322855 0.136707
21 1.55588 0 0 -0.0225085 0.0235834 -0.467635
22 1.24273 0 0 -0.00059646 0 -0.783974
23 0.784524 0 0 0.00616293 -0.000615239 -0.941499
24 2.85835 9.28793 -4.43253 0.726982 0.410583 -1.99191
25 6.02794 0 0 0.0420995 0.0858716 0.224292
26 11.7344 0 0 0.0014027 0 0.915825
27 8.81167 0 0 0.903074 0 0
28 5.77884 0 0 0.60506 0 0
29 2.23249 0 0 0.298015 0 0
30 11.4725 0 0 0.934543 0.243383 -0.638221
31 0.615814 0.994373 -0.809166 -2.35227 0.0187305 0.46255
32 2.24752 0 0 -0.0459563 0.244746 0.234216
33 1.11936 0 0 -0.0408306 0.257423 0.212558
34 3.71349 0.102639 0.102191 -1.7258 1.11243 -0.263964
35 1.72615 0 0 0.00219633 0.00206192 0.928466
36 1.21112 0 0 -0.00470676 0.0169967 0.327294
37 3.5992 1.06012 0.0708882 -1.81456 1.00851 -0.246313
38 1.66069 0 0 0.00707745 0.0114628 0.775068
39 1.16699 0 0 -0.049373 -0.0470546 0.50394
40 2.18853 -0.501041 0.0576594 -1.57004 0.000184648 -0.21278
41 1.29609 0 0 -0.0358608 -0.0301293 1.06108
42 1.62202 -0.000711441 -0.000470161 -0.0010344 -0.00157669 1.01338
43 1.22241 0 0 0.0173377 0.0316405 0.340004
44 1.76707 -1.27612 0.0366404 -1.57138 0.117893 -0.21624
45 1.55588 0 0 0.00173176 -0.107165 1.01097
46 1.24273 0 0 0.000590248 -0.000104623 0.855255
47 0.784532 0 0 -0.00592626 0.000840003 1.11775
48 0 0 0 0 0 0
49 4.87172 -19.3207 -5.1401 -0.05069 -0.03185 -0.018147
50 0 -1.51208 1.07027 0 0 0
51 0.540026 -0.371634 1.70232 0 0 0
52 0 -4.95107 2.17037 0 0 0
53 0 -2.31355 1.98216 0 0 0
54 4.91248 -18.5949 -6.00596 -0.05069 -0.03185 -0.018147
55 0 -0.815029 2.10655 0 0 0
56 0 -0.713427 2.28551 0 0 0
time 13
0 7.58967 10.8278 -3.60973 0.000934124 0 -1.06437
1 6.02794 0 0 -1.03225 0.414476 -0.561177
2 11.7344 0 0 -0.00140286 0 -0.78298
3 8.81139 -0.000450134 -0.00011301 0.109793 0 0.000157741
4 5.77839 0.000287056 0 0.0735611 0 0.000106205
5 2.23164 -0.000328064 -0.000364304 0.0362315 0 0
6 11.4725 0 0 -0.191001 -0.496359 0.575575
7 0.61522 -0.993092 -0.8107 -3.01423 0.324565 -0.386014
8 2.24752 0 0 0.0800074 0.00264708 -0.146496
9 1.11936 0 0 0.0512106 0.062516 -0.327821
10 3.71348 -0.102641 0.102191 1.38754 0.842929 0.0672861
11 1.72615 0 0 0.00945184 -0.00623861 -1.09905
12 1.21114 0 0 -0.0132693 0.0116177 -1.44917
13 3.59919 -1.06012 0.0708882 1.436 0.24435 -0.0655281
14 1.66068 0 0 -0.037484 0.0636747 -0.726308
15 1.167 0 0 -0.0270716 0.0140958 -0.693244
16 2.18853 0.50104 0.057659 1.55548 0.166719 0.138312
17 1.29609 0 0 -0.185212 -0.0418433 -0.654895
18 1.62202 0.000714302 -0.000471115 0.0143687 -0.0178807 -1.11
19 1.22241 0 0 -0.00702551 0.00524259 -1.42423
20 1.76707 1.27612 0.0366408 1.27805 0.322855 0.136707
21 1.55588 0 0 -0.0225085 0.0235834 -0.467635
22 1.24273 0 0 -0.000596389 0 -0.783974
23 0.784524 0 0 0.0061629 -0.000615266 -0.9415
24 2.85835 9.28793 -4.43253 0.726982 0.410583 -1.99191
25 6.02794 0 0 0.0416303 0.086222 0.226904
26 11.7344 0 0 0.00140271 0 0.908787
27 8.81167 0 0 0.902523 0 0
28 5.77884 0 0 0.604691 0 0
29 2.23249 0 0 0.297833 0 0
30 11.4725 0 0 0.932373 0.244774 -0.63443
31 0.615812 0.994372 -0.809165 -2.35227 0.0187305 0.46255
32 2.24752 0 0 -0.0459563 0.244746 0.234216
33 1.11935 0 0 -0.0408306 0.257423 0.212558
34 3.71349 0.102639 0.102191 -1.7258 1.11243 -0.263964
35 1.72615 0 0 0.00219624 0.00206194 0.928466
36 1.21112 0 0 -0.00470659 0.0169966 0.327294
37 3.5992 1.06012 0.070888 -1.81456 1.00851 -0.246313
38 1.66069 0 0 0.00707743 0.0114628 0.775068
39 1.16699 0 0 -0.049373 -0.0470546 0.50394
40 2.18853 -0.501041 0.0576593 -1.57004 0.000184506 -0.21278
41 1.29609 0 0 -0.0358608 -0.0301294 1.06108
42 1.62202 -0.000713348 -0.000469685 -0.00103439 -0.00157674 1.01338
43 1.22241 0 0 0.0173376 0.0316405 0.340004
44 1.76707 -1.27612 0.0366406 -1.57138 0.117893 -0.21624
45 1.55588 0 0 0.00173179 -0.107165 1.01098
46 1.24273 0 0 0.000590255 -0.000104589 0.855255
47 0.784533 0 0 -0.00592618 0.000840027 1.11775
48 0 0 0 0 0 0
49 4.8833 -19.3552 -5.17164 -0.0493471 -0.0293533 -0.0164456
50 0 -1.51208 1.07027 0 0 0
51 0.540026 -0.371635 1.70232 0 0 0
52 0 -4.95108 2.17037 0 0 0
53 0 -2.31355 1.98216 0 0 0
54 4.92066 -18.6281 -6.03659 -0.0493471 -0.0293533 -0.0164456
55 0 -0.81588 2.10894 0 0 0
56 0 -0.711342 2.27785 0 0 0
time 14
0 7.58967 10.8278 -3.60973 0.000934124 0 -1.06437
1 6.02794 0 0 -1.03244 0.413644 -0.56176
2 11.7344 0 0 -0.00140286 0 -0.779079
3 8.81139 -0.000450134 -0.000112534 0.103492 0 0.000157978
4 5.77839 0.000286102 0 0.0693397 0 0.000106383
5 2.23163 -0.000329018 -0.000364304 0.0341524 0 0
6 11.4725 0 0 -0.198927 -0.49565 0.578878
7 0.615219 -0.993092 -0.8107 -3.01423 0.324565 -0.386014
8 2.24752 0 0 0.0800073 0.0026471 -0.146496
9 1.11936 0 0 0.0512106 0.0625161 -0.327822
10 3.71348 -0.102641 0.102191 1.38754 0.842929 0.0672859
11 1.72615 0 0 0.00945176 -0.00623859 -1.09905
12 1.21114 0 0 -0.0132693 0.0116176 -1.44917
13 3.59919 -1.06012 0.0708877 1.43601 0.244349 -0.0655279
14 1.66069 0 0 -0.037484 0.0636747 -0.726308
15 1.167 0 0 -0.0270716 0.0140958 -0.693244
16 2.18852 0.50104 0.0576589 1.55548 0.166718 0.138312
17 1.29609 0 0 -0.185212 -0.0418433 -0.654895
18 1.62202 0.000713348 -0.000470638 0.0143687 -0.0178808 -1.11
19 1.22241 0 0 -0.00702549 0.00524254 -1.42423
20 1.76707 1.27612 0.0366403 1.27805 0.322855 0.136707
21 1.55588 0 0 -0.0225086 0.0235834 -0.467635
22 1.24273 0 0 -0.000596413 0 -0.783974
23 0.784523 0 0 0.00616282 -0.000615272 -0.9415
24 2.85835 9.28793 -4.43253 0.726982 0.410583 -1.99191
25 6.02794 0 0 0.0414826 0.0863426 0.228362
26 11.7344 0 0 0.00140269 0 0.905006
27 8.81167 0 0 0.897751 0 0
28 5.77884 0 0 0.601493 0 0
29 2.23249 0 0 0.296258 0 0
30 11.4725 0 0 0.926077 0.24791 -0.635428
31 0.615814 0.994372 -0.809165 -2.35227 0.0187305 0.46255
32 2.24752 0 0 -0.0459563 0.244746 0.234216
33 1.11936 0 0 -0.0408308 0.257423 0.212558
34 3.71349 0.102639 0.102191 -1.7258 1.11243 -0.263964
35 1.72615 0 0 0.00219612 0.00206197 0.928466
36 1.21112 0 0 -0.00470659 0.0169966 0.327294
37 3.5992 1.06012 0.0708883 -1.81456 1.00851 -0.246313
38 1.66069 0 0 0.00707751 0.0114628 0.775068
39 1.16699 0 0 -0.0493731 -0.0470546 0.50394
40 2.18853 -0.50104 0.0576591 -1.57004 0.00018464 -0.21278
41 1.29609 0 0 -0.0358609 -0.0301293 1.06108
42 1.62202 -0.000713348 -0.000471115 -0.00103436 -0.00157673 1.01338
43 1.22241 0 0 0.0173376 0.0316407 0.340004
44 1.76707 -1.27612 0.0366405 -1.57138 0.117893 -0.21624
45 1.55587 0 0 0.00173171 -0.107165 1.01098
46 1.24273 0 0 0.000590323 -0.000104637 0.855255
47 0.784531 0 0 -0.00592619 0.000839952 1.11775
48 0 0 0 0 0 0
49 4.89711 -19.3741 -5.20396 -0.045902 -0.023179 -0.0143911
50 0 -1.51208 1.07027 0 0 0
51 0.540026 -0.371635 1.70233 0 0 0
52 0 -4.95107 2.17037 0 0 0
53 0 -2.31356 1.98216 0 0 0
54 4.92762 -18.6439 -6.06653 -0.045902 -0.023179 -0.0143911
55 0 -0.816719 2.11132 0 0 0
56 0 -0.709272 2.27024 0 0 0
time 15
0 7.58967 10.8278 -3.60973 0.000934124 0 -1.06437
1 6.02794 0 0 -1.0325 0.413338 -0.561989
2 11.7344 0 0 -0.00140277 0 -0.776928
3 8.81138 -0.000450134 -0.000112534 0.0962893 0 0.000157905
4 5.77839 0.000286102 0 0.064514 0 0.000106202
5 2.23163 -0.000329971 -0.000363827 0.0317756 0 0
6 11.4725 0 0 -0.208931 -0.494146 0.584975
7 0.615219 -0.993091 -0.8107 -3.01423 0.324565 -0.386014
8 2.24752 0 0 0.0800072 0.00264723 -0.146496
9 1.11936 0 0 0.0512104 0.062516 -0.327821
10 3.71348 -0.102641 0.102191 1.38754 0.842929 0.0672858
11 1.72615 0 0 0.00945177 -0.00623859 -1.09905
12 1.21114 0 0 -0.0132693 0.0116176 -1.44917
13 3.59919 -1.06012 0.0708883 1.436 0.244349 -0.065528
14 1.66068 0 0 -0.037484 0.0636747 -0.726308
15 1.167 0 0 -0.0270716 0.0140958 -0.693244
16 2.18852 0.50104 0.0576589 1.55548 0.166719 0.138312
17 1.29609 0 0 -0.185212 -0.0418434 -0.654896
18 1.62202 0.000713348 -0.000471115 0.0143688 -0.0178808 -1.11
19 1.22241 0 0 -0.00702547 0.00524257 -1.42423
20 1.76707 1.27612 0.036641 1.27805 0.322855 0.136707
21 1.55588 0 0 -0.0225085 0.0235834 -0.467635
22 1.24273 0 0 -0.000596389 0 -0.783974
23 0.784523 0 0 0.00616289 -0.000615219 -0.941499
24 2.85835 9.28793 -4.43253 0.726982 0.410583 -1.99191
25 6.02794 0 0 0.0415049 0.0863388 0.229063
26 11.7344 0 0 0.00140274 0 0.903381
27 8.81167 0 0 0.890927 0 0
28 5.77884 0 0 0.596921 0 0
29 2.23249 0 0 0.294006 0 0
30 11.4725 0 0 0.917814 0.251978 -0.639321
31 0.615814 0.994372 -0.809165 -2.35227 0.0187304 0.46255
32 2.24752 0 0 -0.0459565 0.244746 0.234216
33 1.11936 0 0 -0.0408307 0.257423 0.212558
34 3.71349 0.102639 0.102191 -1.7258 1.11243 -0.263964
35 1.72615 0 0 0.0021962 0.00206198 0.928466
36 1.21112 0 0 -0.00470674 0.0169966 0.327294
37 3.5992 1.06012 0.070888 -1.81456 1.00851 -0.246313
38 1.66069 0 0 0.0070775 0.0114628 0.775068
39 1.16699 0 0 -0.049373 -0.0470546 0.50394
40 2.18853 -0.501041 0.0576589 -1.57004 0.000184521 -0.21278
41 1.29609 0 0 -0.0358609 -0.0301293 1.06108
42 1.62201 -0.000711441 -0.000470161 -0.0010344 -0.00157676 1.01338
43 1.22241 0 0 0.0173376 0.0316406 0.340004
44 1.76707 -1.27612 0.0366408 -1.57138 0.117893 -0.21624
45 1.55588 0 0 0.00173173 -0.107165 1.01098
46 1.24273 0 0 0.000590272 -0.000104597 0.855255
47 0.784531 0 0 -0.00592626 0.000839889 1.11775
48 0 0 0 0 0 0
49 4.91188 -19.3827 -5.2354 -0.0412301 -0.0153012 -0.012193
50 0 -1.51208 1.07027 0 0 0
51 0.540027 -0.371634 1.70233 0 0 0
52 0 -4.95107 2.17037 0 0 0
53 0 -2.31355 1.98216 0 0 0
54 4.93399 -18.6483 -6.09469 -0.0412301 -0.0153012 -0.012193
55 0 -0.817554 2.11368 0 0 0
56 0 -0.707222 2.2627 0 0 0
time 16
0 7.58967 10.8278 -3.60973 0.000934124 0 -1.06437
1 6.02794 0 0 -1.03244 0.413586 -0.561821
2 11.7344 0 0 -0.00140295 0 -0.776466
3 8.81139 -0.000450134 -0.000112534 0.089907 0 0.000157802
4 5.77839 0.000286102 0 0.0602376 0 0.000106063
5 2.23163 -0.000329018 -0.000363827 0.0296692 0 0
6 11.4725 0 0 -0.218613 -0.492323 0.592235
7 0.615219 -0.993092 -0.8107 -3.01423 0.324565 -0.386014
8 2.24752 0 0 0.0800073 0.00264714 -0.146496
9 1.11936 0 0 0.0512105 0.062516 -0.327821
10 3.71348 -0.102642 0.10219 1.38754 0.842929 0.0672861
11 1.72615 0 0 0.00945169 -0.00623858 -1.09905
12 1.21114 0 0 -0.0132693 0.0116176 -1.44917
13 3.59919 -1.06012 0.0708876 1.43601 0.244349 -0.065528
14 1.66069 0 0 -0.037484 0.0636747 -0.726308
15 1.167 0 0 -0.0270716 0.0140958 -0.693244
16 2.18853 0.50104 0.0576582 1.55548 0.166719 0.138312
17 1.29609 0 0 -0.185212 -0.0418433 -0.654895
18 1.62202 0.000713348 -0.000471115 0.0143688 -0.0178808 -1.11
19 1.22241 0 0 -0.00702546 0.00524258 -1.42423
20 1.76707 1.27612 0.0366405 1.27805 0.322855 0.136707
21 1.55588 0 0 -0.0225085 0.0235834 -0.467635
22 1.24274 0 0 -0.000596391 0 -0.783974
23 0.784522 0 0 0.00616289 -0.000615245 -0.9415
24 2.85835 9.28793 -4.43253 0.726982 0.410583 -1.99191
25 6.02794 0 0 0.0415511 0.0863138 0.229401
26 11.7344 0 0 0.00140272 0 0.902796
27 8.81167 0 0 0.884203 0 0
28 5.77884 0 0 0.592416 0 0
29 2.23249 0 0 0.291787 0 0
30 11.4725 0 0 0.909756 0.256214 -0.644177
31 0.615812 0.994373 -0.809165 -2.35227 0.0187305 0.46255
32 2.24752 0 0 -0.0459563 0.244746 0.234216
33 1.11936 0 0 -0.0408308 0.257423 0.212558
34 3.71349 0.102639 0.102191 -1.7258 1.11243 -0.263964
35 1.72615 0 0 0.00219617 0.00206191 0.928466
36 1.21112 0 0 -0.0047066 0.0169967 0.327294
37 3.5992 1.06012 0.0708879 -1.81456 1.00851 -0.246313
38 1.66069 0 0 0.00707749 0.0114628 0.775068
39 1.16699 0 0 -0.0493731 -0.0470546 0.50394
40 2.18854 -0.50104 0.0576591 -1.57004 0.000184469 -0.21278
41 1.29609 0 0 -0.0358608 -0.0301293 1.06108
42 1.62202 -0.000711441 -0.000469685 -0.00103435 -0.00157675 1.01338
43 1.22241 0 0 0.0173376 0.0316405 0.340004
44 1.76707 -1.27612 0.0366408 -1.57138 0.117893 -0.216239
45 1.55588 0 0 0.00173182 -0.107165 1.01098
46 1.24273 0 0 0.000590262 -0.000104683 0.855255
47 0.784532 0 0 -0.00592622 0.000840014 1.11775
48 0 0 0 0 0 0
49 4.92637 -19.3862 -5.26432 -0.036207 -0.00769385 -0.0100611
50 0 -1.51208 1.07027 0 0 0
51 0.540026 -0.371634 1.70233 0 0 0
52 0 -4.95107 2.17037 0 0 0
53 0 -2.31355 1.98216 0 0 0
54 4.94039 -18.6474 -6.11998 -0.036207 -0.00769385 -0.0100611
55 0 -0.818384 2.11601 0 0 0
56 0 -0.705189 2.25523 0 0 0
time 17
0 7.58967 10.8278 -3.60973 0.000934124 0 -1.06437
1 6.02794 0 0 -1.03245 0.413708 -0.561685
2 11.7344 0 0 -0.00140294 0 -0.775969
3 8.81139 -0.000450134 -0.000112057 0.0855986 0 0.000157933
4 5.77839 0.000286102 0 0.0573512 0 0.000106242
5 2.23163 -0.000329971 -0.000364304 0.0282475 0 0
6 11.4725 0 0 -0.225611 -0.490738 0.598248
7 0.615219 -0.993091 -0.8107 -3.01423 0.324565 -0.386014
8 2.24752 0 0 0.0800074 0.00264721 -0.146496
9 1.11935 0 0 0.0512105 0.062516 -0.327822
10 3.71348 -0.102641 0.102191 1.38754 0.842929 0.0672858
11 1.72615 0 0 0.00945177 -0.00623851 -1.09905
12 1.21114 0 0 -0.0132693 0.0116176 -1.44917
13 3.59919 -1.06012 0.0708877 1.43601 0.244349 -0.0655281
14 1.66069 0 0 -0.037484 0.0636747 -0.726308
15 1.167 0 0 -0.0270716 0.0140958 -0.693245
16 2.18852 0.50104 0.0576586 1.55548 0.166719 0.138312
17 1.2961 0 0 -0.185212 -0.0418434 -0.654895
18 1.62202 0.000713348 -0.000471115 0.0143687 -0.0178807 -1.11
19 1.22241 0 0 -0.00702546 0.00524268 -1.42423
20 1.76707 1.27612 0.0366406 1.27805 0.322855 0.136707
21 1.55588 0 0 -0.0225085 0.0235835 -0.467635
22 1.24273 0 0 -0.000596378 0 -0.783974
23 0.784523 0 0 0.00616281 -0.0006153 -0.9415
24 2.85835 9.28793 -4.43253 0.726982 0.410583 -1.99191
25 6.02794 0 0 0.0414825 0.0863659 0.229756
26 11.7344 0 0 0.0014027 0 0.902144
27 8.81167 0 0 0.879712 0 0
28 5.77884 0 0 0.589407 0 0
29 2.23249 0 0 0.290305 0 0
30 11.4725 0 0 0.904099 0.259934 -0.648011
31 0.615814 0.994373 -0.809165 -2.35227 0.0187306 0.46255
32 2.24752 0 0 -0.0459563 0.244746 0.234216
33 1.11936 0 0 -0.0408308 0.257423 0.212558
34 3.71349 0.102639 0.102191 -1.7258 1.11243 -0.263964
35 1.72615 0 0 0.00219622 0.00206194 0.928466
36 1.21112 0 0 -0.00470677 0.0169966 0.327294
37 3.5992 1.06012 0.0708885 -1.81456 1.00851 -0.246313
38 1.66069 0 0 0.00707744 0.0114628 0.775068
39 1.16699 0 0 -0.049373 -0.0470546 0.50394
40 2.18853 -0.501041 0.0576589 -1.57004 0.000184521 -0.21278
41 1.29609 0 0 -0.0358609 -0.0301294 1.06108
42 1.62202 -0.000713348 -0.000469685 -0.0010343 -0.00157684 1.01338
43 1.22241 0 0 0.0173376 0.0316406 0.340004
44 1.76707 -1.27612 0.0366405 -1.57138 0.117892 -0.216239
45 1.55588 0 0 0.0017317 -0.107165 1.01098
46 1.24273 0 0 0.000590249 -0.00010462 0.855255
47 0.784532 0 0 -0.00592627 0.000839982 1.11775
48 0 0 0 0 0 0
49 4.93934 -19.3898 -5.28906 -0.0317081 -0.002331 -0.008205
50 0 -1.51208 1.07027 0 0 0
51 0.540026 -0.371634 1.70232 0 0 0
52 0 -4.95107 2.17037 0 0 0
53 0 -2.31355 1.98216 0 0 0
54 4.94742 -18.6471 -6.14141 -0.0317081 -0.002331 -0.008205
55 0 -0.819201 2.11833 0 0 0
56 0 -0.703173 2.24782 0 0 0
time 18
0 7.58967 10.8278 -3.60973 0.000934124 0 -1.06437
1 6.02794 0 0 -1.03275 0.413066 -0.561939
2 11.7344 0 0 -0.00140277 0 -0.774267
3 8.81139 -0.000450134 -0.000113964 0.0835409 0 0.000157721
4 5.77839 0.000286102 0 0.0559723 0 0.000106022
5 2.23164 -0.000329018 -0.00036478 0.0275686 0 0
6 11.4725 0 0 -0.229511 -0.489323 0.602724
7 0.615219 -0.993091 -0.8107 -3.01423 0.324565 -0.386014
8 2.24752 0 0 0.0800071 0.00264731 -0.146496
9 1.11936 0 0 0.0512107 0.062516 -0.327822
10 3.71348 -0.102641 0.102191 1.38754 0.842929 0.0672859
11 1.72615 0 0 0.00945179 -0.00623854 -1.09905
12 1.21114 0 0 -0.0132693 0.0116177 -1.44917
13 3.59919 -1.06012 0.070888 1.43601 0.24435 -0.065528
14 1.66069 0 0 -0.037484 0.0636747 -0.726308
15 1.167 0 0 -0.0270716 0.0140958 -0.693244
16 2.18853 0.50104 0.0576584 1.55548 0.166719 0.138312
17 1.29609 0 0 -0.185212 -0.0418433 -0.654895
18 1.62202 0.000713348 -0.000470638 0.0143688 -0.0178808 -1.11
19 1.22241 0 0 -0.00702549 0.00524253 -1.42423
20 1.76707 1.27612 0.0366406 1.27805 0.322855 0.136707
21 1.55588 0 0 -0.0225085 0.0235834 -0.467635
22 1.24274 0 0 -0.000596453 0 -0.783974
23 0.784523 0 0 0.00616291 -0.000615198 -0.9415
24 2.85835 9.28793 -4.43253 0.726982 0.410583 -1.99191
25 6.02794 0 0 0.0414428 0.0864059 0.230605
26 11.7344 0 0 0.00140265 0 0.900464
27 8.81167 0 0 0.877916 0 0
28 5.77884 0 0 0.588204 0 0
29 2.23249 0 0 0.289712 0 0
30 11.4725 0 0 0.901155 0.263496 -0.650404
31 0.61581 0.994372 -0.809165 -2.35227 0.0187304 0.46255
32 2.24752 0 0 -0.0459564 0.244746 0.234216
33 1.11936 0 0 -0.0408306 0.257423 0.212558
34 3.71349 0.10264 0.102191 -1.7258 1.11243 -0.263964
35 1.72615 0 0 0.0021962 0.00206198 0.928466
36 1.21112 0 0 -0.00470663 0.0169966 0.327294
37 3.5992 1.06012 0.0708882 -1.81456 1.00851 -0.246314
38 1.66069 0 0 0.00707744 0.0114628 0.775068
39 1.16699 0 0 -0.0493731 -0.0470547 0.50394
40 2.18853 -0.50104 0.0576594 -1.57004 0.000184417 -0.21278
41 1.29609 0 0 -0.0358608 -0.0301294 1.06108
42 1.62202 -0.000715256 -0.000468254 -0.00103439 -0.00157671 1.01338
43 1.22241 0 0 0.0173376 0.0316406 0.340004
44 1.76707 -1.27612 0.0366408 -1.57138 0.117892 -0.216239
45 1.55588 0 0 0.0017317 -0.107165 1.01097
46 1.24273 0 0 0.000590231 -0.000104652 0.855255
47 0.784533 0 0 -0.00592615 0.000839957 1.11775
48 0 0 0 0 0 0
49 4.94952 -19.3988 -5.30797 -0.027463 0.000411442 -0.00660575
50 0 -1.51208 1.07027 0 0 0
51 0.540026 -0.371634 1.70232 0 0 0
52 0 -4.95107 2.17037 0 0 0
53 0 -2.31355 1.98216 0 0 0
54 4.95411 -18.6525 -6.15716 -0.027463 0.000411442 -0.00660575
55 0 -0.820015 2.12062 0 0 0
56 0 -0.701181 2.2405 0 0 0
time 19
0 7.58967 10.8278 -3.60973 0.000934124 0 -1.06437
1 6.02794 0 0 -1.03327 0.411928 -0.562402
2 11.7344 0 0 -0.00140282 0 -0.772311
3 8.81138 -0.000450134 -0.00011158 0.0830581 0 0.00015754
4 5.77839 0.000286102 0 0.0556489 0 0.000105845
5 2.23163 -0.000329971 -0.000362873 0.0274092 0 0
6 11.4725 0 0 -0.231752 -0.487695 0.607338
7 0.615215 -0.993091 -0.8107 -3.01423 0.324565 -0.386014
8 2.24752 0 0 0.0800071 0.00264718 -0.146496
9 1.11936 0 0 0.0512106 0.0625159 -0.327822
10 3.71348 -0.102641 0.102191 1.38753 0.842929 0.0672857
11 1.72615 0 0 0.00945179 -0.00623854 -1.09905
12 1.21114 0 0 -0.0132693 0.0116177 -1.44917
13 3.59919 -1.06012 0.0708885 1.43601 0.24435 -0.0655279
14 1.66069 0 0 -0.037484 0.0636747 -0.726307
15 1.167 0 0 -0.0270716 0.0140958 -0.693245
16 2.18852 0.50104 0.0576591 1.55548 0.166718 0.138312
17 1.29609 0 0 -0.185211 -0.0418434 -0.654895
18 1.62202 0.000713348 -0.000471115 0.0143688 -0.0178808 -1.11
19 1.22241 0 0 -0.00702545 0.00524261 -1.42423
20 1.76707 1.27612 0.0366406 1.27805 0.322855 0.136707
21 1.55588 0 0 -0.0225085 0.0235834 -0.467635
22 1.24273 0 0 -0.000596382 0 -0.783974
23 0.784523 0 0 0.0061628 -0.000615306 -0.9415
24 2.85835 9.28793 -4.43253 0.726982 0.410583 -1.99191
25 6.02794 0 0 0.041603 0.0863167 0.231772
26 11.7344 0 0 0.00140268 0 0.898446
27 8.81167 0 0 0.877482 0 0
28 5.77884 0 0 0.587913 0 0
29 2.23249 0 0 0.289569 0 0
30 11.4725 0 0 0.899527 0.267518 -0.65274
31 0.61581 0.994372 -0.809166 -2.35227 0.0187306 0.46255
32 2.24752 0 0 -0.0459563 0.244746 0.234216
33 1.11936 0 0 -0.0408305 0.257423 0.212558
34 3.71349 0.102639 0.102191 -1.7258 1.11243 -0.263964
35 1.72615 0 0 0.00219624 0.00206189 0.928466
36 1.21112 0 0 -0.00470661 0.0169966 0.327294
37 3.5992 1.06012 0.070888 -1.81456 1.00851 -0.246313
38 1.66069 0 0 0.00707748 0.0114628 0.775068
39 1.16699 0 0 -0.0493731 -0.0470546 0.50394
40 2.18853 -0.501041 0.0576593 -1.57004 0.000184484 -0.21278
41 1.29609 0 0 -0.035861 -0.0301294 1.06108
42 1.62202 -0.000715256 -0.000469208 -0.00103432 -0.0015768 1.01338
43 1.22241 0 0 0.0173376 0.0316405 0.340004
44 1.76707 -1.27612 0.0366406 -1.57138 0.117893 -0.21624
45 1.55587 0 0 0.00173184 -0.107165 1.01098
46 1.24273 0 0 0.000590265 -0.000104647 0.855255
47 0.784532 0 0 -0.00592629 0.000840017 1.11775
48 0 0 0 0 0 0
49 4.95724 -19.4091 -5.32023 -0.0227982 0.00172414 -0.00511723
50 0 -1.51208 1.07027 0 0 0
51 0.540027 -0.371634 1.70232 0 0 0
52 0 -4.95108 2.17037 0 0 0
53 0 -2.31355 1.98216 0 0 0
54 4.95962 -18.6587 -6.16593 -0.0227982 0.00172414 -0.00511723
55 0 -0.820816 2.12289 0 0 0
56 0 -0.699211 2.23325 0 0 0
time 20
0 7.58967 10.8278 -3.60973 0.000934124 0 -1.06437
1 6.02794 0 0 -1.03375 0.411078 -0.562632
2 11.7344 0 0 -0.00140277 0 -0.771683
3 8.81138 -0.000450134 -0.000112534 0.0841356 0 0.000157659
4 5.77839 0.000286102 0 0.056371 0 0.000105986
5 2.23163 -0.000329971 -0.000363827 0.0277647 0 0
6 11.4725 0 0 -0.232778 -0.486001 0.612677
7 0.615219 -0.993091 -0.8107 -3.01423 0.324565 -0.386014
8 2.24752 0 0 0.0800073 0.00264717 -0.146496
9 1.11936 0 0 0.0512105 0.062516 -0.327822
10 3.71348 -0.102641 0.102191 1.38754 0.842929 0.0672857
11 1.72615 0 0 0.00945174 -0.00623851 -1.09905
12 1.21114 0 0 -0.0132693 0.0116177 -1.44917
13 3.59919 -1.06012 0.070888 1.436 0.244349 -0.0655281
14 1.66068 0 0 -0.037484 0.0636747 -0.726308
15 1.167 0 0 -0.0270717 0.0140958 -0.693244
16 2.18852 0.50104 0.0576589 1.55548 0.166719 0.138312
17 1.29609 0 0 -0.185212 -0.0418434 -0.654895
18 1.62202 0.000714302 -0.000470161 0.0143688 -0.0178808 -1.11
19 1.22241 0 0 -0.00702553 0.00524252 -1.42423
20 1.76707 1.27612 0.036641 1.27805 0.322855 0.136707
21 1.55588 0 0 -0.0225085 0.0235834 -0.467635
22 1.24274 0 0 -0.000596344 0 -0.783974
23 0.784523 0 0 0.0061629 -0.000615231 -0.9415
24 2.85835 9.28793 -4.43253 0.726982 0.410583 -1.99191
25 6.02794 0 0 0.0418071 0.0861894 0.232356
26 11.7344 0 0 0.00140271 0 0.89797
27 8.81167 0 0 0.877808 0 0
28 5.77884 0 0 0.588131 0 0
29 2.23249 0 0 0.289677 0 0
30 11.4725 0 0 0.898899 0.271719 -0.655904
31 0.615814 0.994373 -0.809165 -2.35227 0.0187304 0.46255
32 2.24752 0 0 -0.0459564 0.244746 0.234216
33 1.11936 0 0 -0.0408308 0.257423 0.212558
34 3.71349 0.102639 0.102191 -1.7258 1.11243 -0.263964
35 1.72615 0 0 0.00219619 0.00206197 0.928466
36 1.21112 0 0 -0.00470663 0.0169966 0.327294
37 3.5992 1.06012 0.0708883 -1.81456 1.00851 -0.246313
38 1.66069 0 0 0.00707742 0.0114628 0.775068
39 1.16699 0 0 -0.049373 -0.0470546 0.50394
40 2.18853 -0.501041 0.0576591 -1.57004 0.000184499 -0.21278
41 1.29609 0 0 -0.0358609 -0.0301294 1.06108
42 1.62202 -0.000713348 -0.000469685 -0.00103437 -0.0015768 1.01338
43 1.22241 0 0 0.0173376 0.0316406 0.340004
44 1.76707 -1.27612 0.0366409 -1.57138 0.117892 -0.216239
45 1.55587 0 0 0.00173175 -0.107165 1.01098
46 1.24273 0 0 0.000590268 -0.000104624 0.855255
47 0.784532 0 0 -0.00592617 0.00084003 1.11775
48 0 0 0 0 0 0
49 4.96375 -19.4135 -5.32672 -0.0179837 0.00198305 -0.00375843
50 0 -1.51208 1.07027 0 0 0
51 0.540025 -0.371634 1.70232 0 0 0
52 0 -4.95108 2.17037 0 0 0
53 0 -2.31355 1.98216 0 0 0
54 4.96491 -18.6591 -6.1688 -0.0179837 0.00198305 -0.00375843
55 0 -0.821609 2.12513 0 0 0
56 0 -0.69726 2.22608 0 0 0
time 21
0 7.58967 10.8278 -3.60973 0.000934124 0 -1.06437
1 6.02794 0 0 -1.03417 0.410518 -0.562651
2 11.7344 0 0 -0.00140292 0 -0.772181
3 8.81138 -0.000448227 -0.000112534 0.0862388 0 0.000157578
4 5.77839 0.000286102 0 0.05778 0 0.000106027
5 2.23163 -0.000329971 -0.000363827 0.0284587 0 0
6 11.4725 0 0 -0.23298 -0.484336 0.618405
7 0.615219 -0.993091 -0.810701 -3.01423 0.324565 -0.386014
8 2.24752 0 0 0.0800072 0.00264708 -0.146496
9 1.11935 0 0 0.0512105 0.0625161 -0.327822
10 3.71348 -0.102641 0.102191 1.38754 0.842929 0.067286
11 1.72615 0 0 0.00945177 -0.00623857 -1.09905
12 1.21113 0 0 -0.0132693 0.0116177 -1.44917
13 3.59919 -1.06012 0.0708876 1.43601 0.24435 -0.0655281
14 1.66069 0 0 -0.037484 0.0636747 -0.726308
15 1.167 0 0 -0.0270716 0.0140958 -0.693244
16 2.18852 0.50104 0.0576593 1.55548 0.166719 0.138312
17 1.29609 0 0 -0.185212 -0.0418434 -0.654895
18 1.62202 0.000713348 -0.000470638 0.0143687 -0.0178807 -1.11
19 1.22241 0 0 -0.00702551 0.00524252 -1.42423
20 1.76707 1.27612 0.0366406 1.27805 0.322855 0.136707
21 1.55588 0 0 -0.0225085 0.0235834 -0.467635
22 1.24273 0 0 -0.00059636 0 -0.783974
23 0.784523 0 0 0.00616283 -0.000615305 -0.9415
24 2.85835 9.28793 -4.43253 0.726982 0.410583 -1.99191
25 6.02794 0 0 0.0420589 0.0860249 0.232605
26 11.7344 0 0 0.00140268 0 0.898447
27 8.81167 0 0 0.878582 0 0
28 5.77884 0 0 0.58865 0 0
29 2.23249 0 0 0.289932 0 0
30 11.4725 0 0 0.898906 0.275866 -0.659472
31 0.615812 0.994373 -0.809165 -2.35227 0.0187305 0.46255
32 2.24752 0 0 -0.0459563 0.244746 0.234216
33 1.11936 0 0 -0.0408307 0.257423 0.212558
34 3.71349 0.10264 0.102191 -1.7258 1.11243 -0.263964
35 1.72615 0 0 0.00219625 0.00206207 0.928466
36 1.21112 0 0 -0.0047067 0.0169966 0.327294
37 3.5992 1.06012 0.0708884 -1.81456 1.00851 -0.246313
38 1.66069 0 0 0.00707744 0.0114628 0.775068
39 1.16699 0 0 -0.0493731 -0.0470547 0.50394
40 2.18853 -0.50104 0.0576593 -1.57004 0.000184506 -0.21278
41 1.29609 0 0 -0.0358609 -0.0301294 1.06108
42 1.62202 -0.000715256 -0.000469685 -0.00103439 -0.00157672 1.01338
43 1.22241 0 0 0.0173376 0.0316405 0.340004
44 1.76707 -1.27612 0.0366408 -1.57138 0.117892 -0.216239
45 1.55587 0 0 0.00173185 -0.107165 1.01098
46 1.24273 0 0 0.000590241 -0.000104628 0.855255
47 0.784532 0 0 -0.0059262 0.000839878 1.11775
48 0 0 0 0 0 0
49 4.96921 -19.413 -5.32835 -0.0132901 0.00156413 -0.00254833
50 0 -1.51208 1.07027 0 0 0
51 0.540026 -0.371634 1.70233 0 0 0
52 0 -4.95107 2.17037 0 0 0
53 0 -2.31355 1.98216 0 0 0
54 4.96983 -18.6547 -6.16688 -0.0132901 0.00156413 -0.00254833
55 0 -0.82239 2.12734 0 0 0
56 0 -0.695335 2.21901 0 0 0
time 22
0 7.58967 10.8278 -3.60973 0.000934124 0 -1.06437
1 6.02794 0 0 -1.03451 0.410253 -0.562482
2 11.7344 0 0 -0.00140286 0 -0.7736
3 8.81138 -0.000450134 -0.00011301 0.0888374 0 0.000157849
4 5.77839 0.000286102 0 0.0595211 0 0.000106028
5 2.23163 -0.000329971 -0.000364304 0.0293163 0 0
6 11.4725 0 0 -0.232748 -0.48279 0.624178
7 0.615221 -0.993091 -0.8107 -3.01423 0.324565 -0.386015
8 2.24752 0 0 0.0800072 0.00264721 -0.146496
9 1.11936 0 0 0.0512106 0.062516 -0.327822
10 3.71348 -0.102641 0.102192 1.38753 0.842929 0.0672854
11 1.72615 0 0 0.00945181 -0.00623855 -1.09905
12 1.21114 0 0 -0.0132693 0.0116176 -1.44917
13 3.59919 -1.06012 0.0708883 1.436 0.24435 -0.0655283
14 1.66069 0 0 -0.037484 0.0636747 -0.726307
15 1.167 0 0 -0.0270716 0.0140958 -0.693244
16 2.18852 0.50104 0.0576589 1.55548 0.166719 0.138312
17 1.29609 0 0 -0.185212 -0.0418433 -0.654895
18 1.62202 0.000713348 -0.000471592 0.0143687 -0.0178807 -1.11
19 1.22241 0 0 -0.0070255 0.00524258 -1.42423
20 1.76707 1.27612 0.0366406 1.27804 0.322855 0.136707
21 1.55588 0 0 -0.0225085 0.0235834 -0.467635
22 1.24273 0 0 -0.000596416 0 -0.783974
23 0.784523 0 0 0.00616288 -0.000615259 -0.9415
24 2.85835 9.28793 -4.43253 0.726982 0.410583 -1.99191
25 6.02794 0 0 0.042355 0.0858284 0.232699
26 11.7344 0 0 0.00140275 0 0.899431
27 8.81167 0 0 0.879475 0 0
28 5.77884 0 0 0.589248 0 0
29 2.23249 0 0 0.290227 0 0
30 11.4725 0 0 0.899187 0.279723 -0.663102
31 0.615812 0.994373 -0.809166 -2.35227 0.0187305 0.46255
32 2.24752 0 0 -0.0459564 0.244746 0.234216
33 1.11935 0 0 -0.0408308 0.257423 0.212558
34 3.71348 0.102639 0.102191 -1.7258 1.11243 -0.263964
35 1.72615 0 0 0.00219622 0.00206196 0.928466
36 1.21112 0 0 -0.00470666 0.0169966 0.327294
37 3.5992 1.06012 0.0708883 -1.81456 1.00851 -0.246313
38 1.66069 0 0 0.0070775 0.0114628 0.775068
39 1.16699 0 0 -0.049373 -0.0470546 0.50394
40 2.18853 -0.50104 0.057659 -1.57004 0.000184469 -0.21278
41 1.29609 0 0 -0.0358609 -0.0301294 1.06108
42 1.62202 -0.000711441 -0.000470161 -0.00103437 -0.00157672 1.01338
43 1.22241 0 0 0.0173375 0.0316406 0.340004
44 1.76707 -1.27612 0.0366406 -1.57138 0.117892 -0.216239
45 1.55587 0 0 0.00173179 -0.107165 1.01098
46 1.24273 0 0 0.000590261 -0.000104629 0.855255
47 0.784532 0 0 -0.00592618 0.000840014 1.11775
48 0 0 0 0 0 0
49 4.97381 -19.4083 -5.32601 -0.00898754 0.000843348 -0.0015059
50 0 -1.51208 1.07027 0 0 0
51 0.540026 -0.371632 1.70232 0 0 0
52 0 -4.95107 2.17037 0 0 0
53 0 -2.31355 1.98216 0 0 0
54 4.97425 -18.6464 -6.16127 -0.00898754 0.000843348 -0.0015059
55 0 -0.823162 2.12952 0 0 0
56 0 -0.693438 2.21203 0 0 0
time 23
0 7.58967 10.8278 -3.60973 0.000934124 0 -1.06437
1 6.02794 0 0 -1.03475 0.410289 -0.562143
2 11.7344 0 0 -0.00140281 0 -0.775742
3 8.81139 -0.000451088 -0.000112057 0.091409 0 0.000157577
4 5.77839 0.000286102 0 0.061244 0 0.00010596
5 2.23163 -0.000329971 -0.000363827 0.0301649 0 0
6 11.4725 0 0 -0.23247 -0.481444 0.629649
7 0.615219 -0.99309 -0.8107 -3.01423 0.324565 -0.386014
8 2.24752 0 0 0.0800072 0.00264714 -0.146496
9 1.11935 0 0 0.0512106 0.062516 -0.327821
10 3.71348 -0.102641 0.102191 1.38754 0.842929 0.0672858
11 1.72615 0 0 0.0094517 -0.00623854 -1.09905
12 1.21114 0 0 -0.0132693 0.0116177 -1.44917
13 3.59919 -1.06012 0.070888 1.43601 0.244349 -0.0655281
14 1.66069 0 0 -0.037484 0.0636747 -0.726307
15 1.167 0 0 -0.0270716 0.0140958 -0.693244
16 2.18852 0.50104 0.0576593 1.55548 0.166719 0.138312
17 1.29609 0 0 -0.185212 -0.0418434 -0.654895
18 1.62202 0.000713348 -0.000471115 0.0143688 -0.0178807 -1.11
19 1.22241 0 0 -0.00702547 0.00524255 -1.42423
20 1.76707 1.27612 0.0366412 1.27805 0.322855 0.136707
21 1.55588 0 0 -0.0225086 0.0235834 -0.467635
22 1.24274 0 0 -0.000596375 0 -0.783974
23 0.784523 0 0 0.00616288 -0.000615259 -0.9415
24 2.85835 9.28793 -4.43253 0.726982 0.410583 -1.99191
25 6.02794 0 0 0.0426607 0.0856188 0.232479
26 11.7344 0 0 0.00140268 0 0.901162
27 8.81167 0 0 0.880079 0 0
28 5.77884 0 0 0.589653 0 0
29 2.23249 0 0 0.290426 0 0
30 11.4725 0 0 0.899387 0.283045 -0.666801
31 0.615812 0.994373 -0.809165 -2.35227 0.0187304 0.46255
32 2.24752 0 0 -0.0459564 0.244746 0.234216
33 1.11936 0 0 -0.0408307 0.257423 0.212558
34 3.71349 0.10264 0.102191 -1.7258 1.11243 -0.263964
35 1.72615 0 0 0.00219627 0.00206182 0.928466
36 1.21112 0 0 -0.00470669 0.0169966 0.327294
37 3.5992 1.06012 0.0708882 -1.81456 1.00851 -0.246313
38 1.66069 0 0 0.00707752 0.0114628 0.775068
39 1.16699 0 0 -0.0493732 -0.0470545 0.50394
40 2.18853 -0.50104 0.0576593 -1.57004 0.000184424 -0.21278
41 1.29609 0 0 -0.0358609 -0.0301294 1.06108
42 1.62202 -0.000711441 -0.000469208 -0.0010344 -0.00157687 1.01338
43 1.22241 0 0 0.0173376 0.0316406 0.340004
44 1.76707 -1.27612 0.0366405 -1.57138 0.117892 -0.21624
45 1.55588 0 0 0.00173181 -0.107165 1.01098
46 1.24273 0 0 0.000590174 -0.000104552 0.855255
47 0.784531 0 0 -0.00592607 0.000839964 1.11775
48 0 0 0 0 0 0
49 4.97771 -19.4003 -5.32059 -0.0053464 0.000196651 -0.000650134
50 0 -1.51208 1.07027 0 0 0
51 0.540026 -0.371634 1.70232 0 0 0
52 0 -4.95107 2.17037 0 0 0
53 0 -2.31355 1.98216 0 0 0
54 4.97804 -18.6353 -6.15307 -0.0053464 0.000196651 -0.000650134
55 0 -0.823925 2.13167 0 0 0
56 0 -0.691566 2.20515 0 0 0
time 24
0 7.58967 10.8278 -3.60973 0.000934124 0 -1.06437
1 6.02794 0 0 -1.03482 0.410854 -0.561508
2 11.7344 0 0 -0.00140298 0 -0.778931
3 8.81138 -0.000449181 -0.000112534 0.0935887 0 0.000157981
4 5.77839 0.00028801 0 0.0627044 0 0.000106136
5 2.23163 -0.000328064 -0.000364304 0.0308844 0 0
6 11.4725 0 0 -0.232531 -0.480372 0.634731
7 0.615221 -0.993092 -0.810701 -3.01423 0.324565 -0.386014
8 2.24752 0 0 0.0800071 0.00264713 -0.146496
9 1.11936 0 0 0.0512107 0.062516 -0.327821
10 3.71348 -0.102641 0.102191 1.38754 0.842929 0.0672859
11 1.72615 0 0 0.00945174 -0.00623861 -1.09905
12 1.21114 0 0 -0.0132693 0.0116177 -1.44917
13 3.59919 -1.06012 0.0708879 1.436 0.244349 -0.065528
14 1.66069 0 0 -0.0374841 0.0636747 -0.726308
15 1.167 0 0 -0.0270716 0.0140958 -0.693244
16 2.18853 0.50104 0.0576589 1.55548 0.166718 0.138312
17 1.29609 0 0 -0.185212 -0.0418434 -0.654895
18 1.62202 0.000714302 -0.000470638 0.0143687 -0.0178807 -1.11
19 1.22241 0 0 -0.00702545 0.00524264 -1.42423
20 1.76707 1.27612 0.0366409 1.27805 0.322855 0.136707
21 1.55588 0 0 -0.0225086 0.0235834 -0.467635
22 1.24274 0 0 -0.000596462 0 -0.783974
23 0.784524 0 0 0.00616288 -0.000615326 -0.9415
24 2.85835 9.28793 -4.43253 0.726982 0.410583 -1.99191
25 6.02794 0 0 0.0429688 0.0854057 0.232068
26 11.7344 0 0 0.00140275 0 0.90331
27 8.81167 0 0 0.88005 0 0
28 5.77884 0 0 0.589634 0 0
29 2.23249 0 0 0.290416 0 0
30 11.4725 0 0 0.899146 0.285584 -0.670289
31 0.615812 0.994373 -0.809165 -2.35227 0.0187305 0.46255
32 2.24752 0 0 -0.0459564 0.244746 0.234216
33 1.11936 0 0 -0.0408307 0.257423 0.212558
34 3.71349 0.102639 0.10219 -1.7258 1.11243 -0.263964
35 1.72615 0 0 0.0021963 0.00206196 0.928466
36 1.21112 0 0 -0.00470672 0.0169966 0.327294
37 3.5992 1.06012 0.070888 -1.81456 1.00851 -0.246313
38 1.66069 0 0 0.00707747 0.0114628 0.775068
39 1.16699 0 0 -0.0493731 -0.0470546 0.50394
40 2.18853 -0.50104 0.0576587 -1.57004 0.000184596 -0.212779
41 1.29609 0 0 -0.0358608 -0.0301294 1.06108
42 1.62202 -0.000713348 -0.000469208 -0.00103435 -0.00157673 1.01338
43 1.22241 0 0 0.0173377 0.0316405 0.340004
44 1.76707 -1.27612 0.0366402 -1.57138 0.117892 -0.216239
45 1.55588 0 0 0.00173184 -0.107165 1.01098
46 1.24273 0 0 0.000590266 -0.000104619 0.855255
47 0.784532 0 0 -0.00592618 0.000840074 1.11775
48 0 0 0 0 0 0
49 4.98109 -19.3897 -5.31299 -0.002637 0 0
50 0 -1.51208 1.07027 0 0 0
51 0.540026 -0.371632 1.70232 0 0 0
52 0 -4.95107 2.17037 0 0 0
53 0 -2.31355 1.98216 0 0 0
54 4.98109 -18.6224 -6.14339 -0.002637 0 0
55 0 -0.824678 2.13379 0 0 0
56 0 -0.689722 2.19837 0 0 0
time 25
0 7.58967 10.8278 -3.60973 0.000934124 0 -1.06437
1 6.02794 0 0 -1.03482 0.411483 -0.560893
2 11.7344 0 0 -0.00140281 0 -0.781865
3 8.81139 -0.000450134 -0.00011301 0.0950423 0 0.000157765
4 5.77839 0.000286102 0 0.0636783 0 0.000106105
5 2.23163 -0.000329971 -0.00036335 0.0313639 0 0
6 11.4725 0 0 -0.23273 -0.479694 0.638357
7 0.615221 -0.993092 -0.8107 -3.01423 0.324565 -0.386014
8 2.24752 0 0 0.0800072 0.00264714 -0.146496
9 1.11935 0 0 0.0512105 0.062516 -0.327821
10 3.71348 -0.102642 0.102191 1.38754 0.842929 0.0672859
11 1.72615 0 0 0.00945187 -0.00623856 -1.09905
12 1.21114 0 0 -0.0132692 0.0116176 -1.44917
13 3.59919 -1.06012 0.0708878 1.436 0.244349 -0.065528
14 1.66069 0 0 -0.037484 0.0636747 -0.726307
15 1.167 0 0 -0.0270716 0.0140958 -0.693244
16 2.18852 0.501039 0.0576594 1.55548 0.166718 0.138312
17 1.29609 0 0 -0.185212 -0.0418433 -0.654895
18 1.62202 0.000712395 -0.000471592 0.0143688 -0.0178808 -1.11
19 1.22241 0 0 -0.00702548 0.00524264 -1.42423
20 1.76707 1.27612 0.0366404 1.27805 0.322855 0.136708
21 1.55588 0 0 -0.0225085 0.0235834 -0.467635
22 1.24274 0 0 -0.000596384 0 -0.783974
23 0.784523 0 0 0.00616283 -0.000615293 -0.9415
24 2.85835 9.28793 -4.43253 0.726982 0.410583 -1.99191
25 6.02794 0 0 0.04321 0.0852382 0.231494
26 11.7344 0 0 0.00140271 0 0.905699
27 8.81167 0 0 0.879569 0 0
28 5.77884 0 0 0.589312 0 0
29 2.23249 0 0 0.290258 0 0
30 11.4725 0 0 0.8987 0.287065 -0.673177
31 0.615814 0.994372 -0.809166 -2.35227 0.0187304 0.46255
32 2.24752 0 0 -0.0459563 0.244746 0.234216
33 1.11935 0 0 -0.0408308 0.257423 0.212557
34 3.71349 0.102639 0.102191 -1.7258 1.11243 -0.263964
35 1.72615 0 0 0.00219614 0.00206198 0.928466
36 1.21112 0 0 -0.0047067 0.0169966 0.327294
37 3.5992 1.06012 0.070888 -1.81456 1.00851 -0.246313
38 1.66069 0 0 0.00707741 0.0114629 0.775068
39 1.16699 0 0 -0.0493731 -0.0470547 0.50394
40 2.18853 -0.50104 0.0576591 -1.57004 0.000184543 -0.21278
41 1.29609 0 0 -0.035861 -0.0301293 1.06108
42 1.62202 -0.000713348 -0.000470161 -0.00103426 -0.00157689 1.01338
43 1.22241 0 0 0.0173376 0.0316406 0.340004
44 1.76707 -1.27612 0.0366405 -1.57138 0.117893 -0.216239
45 1.55588 0 0 0.00173177 -0.107165 1.01097
46 1.24273 0 0 0.000590258 -0.000104673 0.855255
47 0.784531 0 0 -0.00592621 0.000840083 1.11775
48 0 0 0 0 0 0
49 4.98411 -19.3774 -5.30411 -0.00112936 0.000106731 0.000375687
50 0 -1.51208 1.07027 0 0 0
51 0.540026 -0.371635 1.70232 0 0 0
52 0 -4.95107 2.17037 0 0 0
53 0 -2.31356 1.98216 0 0 0
54 4.98374 -18.6089 -6.13335 -0.00112936 0.000106731 0.000375687
55 0 -0.825417 2.13588 0 0 0
56 0 -0.687908 2.19169 0 0 0
time 26
0 7.58967 10.8278 -3.60973 0.000934124 0 -1.06437
1 6.02794 0 0 -1.03472 0.412357 -0.560166
2 11.7344 0 0 -0.00140288 0 -0.784984
3 8.81139 -0.000449181 -0.00011301 0.0962959 0 0.000157935
4 5.77839 0.000286102 0 0.0645182 0 0.000106143
5 2.23163 -0.000329018 -0.00036478 0.0317777 0 0
6 11.4725 0 0 -0.232675 -0.479367 0.640826
7 0.615221 -0.993091 -0.8107 -3.01423 0.324565 -0.386014
8 2.24752 0 0 0.0800074 0.00264715 -0.146496
9 1.11936 0 0 0.0512106 0.062516 -0.327822
10 3.71348 -0.102641 0.102191 1.38754 0.842929 0.0672861
11 1.72615 0 0 0.00945181 -0.00623857 -1.09905
12 1.21114 0 0 -0.0132692 0.0116176 -1.44917
13 3.5992 -1.06012 0.0708882 1.43601 0.244349 -0.065528
14 1.66068 0 0 -0.037484 0.0636747 -0.726307
15 1.167 0 0 -0.0270716 0.0140958 -0.693244
16 2.18853 0.50104 0.057659 1.55548 0.166718 0.138312
17 1.29609 0 0 -0.185212 -0.0418434 -0.654895
18 1.62202 0.000714302 -0.000471115 0.0143687 -0.0178807 -1.11
19 1.22241 0 0 -0.00702547 0.00524255 -1.42423
20 1.76707 1.27612 0.0366408 1.27805 0.322855 0.136707
21 1.55588 0 0 -0.0225086 0.0235835 -0.467635
22 1.24273 0 0 -0.000596415 0 -0.783974
23 0.784523 0 0 0.0061629 -0.000615232 -0.9415
24 2.85835 9.28793 -4.43253 0.726982 0.410583 -1.99191
25 6.02794 0 0 0.0433339 0.0851445 0.230791
26 11.7344 0 0 0.00140272 0 0.908201
27 8.81167 0 0 0.879086 0 0
28 5.77884 0 0 0.588987 0 0
29 2.23249 0 0 0.290098 0 0
30 11.4725 0 0 0.898486 0.287622 -0.67537
31 0.61581 0.994372 -0.809165 -2.35227 0.0187305 0.46255
32 2.24752 0 0 -0.0459564 0.244746 0.234216
33 1.11936 0 0 -0.0408308 0.257423 0.212558
34 3.71349 0.10264 0.102191 -1.7258 1.11243 -0.263964
35 1.72615 0 0 0.00219614 0.00206197 0.928466
36 1.21112 0 0 -0.00470657 0.0169966 0.327294
37 3.5992 1.06012 0.0708882 -1.81456 1.00851 -0.246314
38 1.66069 0 0 0.00707742 0.0114629 0.775068
39 1.16699 0 0 -0.0493731 -0.0470546 0.50394
40 2.18853 -0.501041 0.0576589 -1.57004 0.000184409 -0.21278
41 1.29609 0 0 -0.035861 -0.0301294 1.06108
42 1.62202 -0.000713348 -0.000470638 -0.00103435 -0.00157683 1.01338
43 1.22241 0 0 0.0173376 0.0316405 0.340004
44 1.76707 -1.27612 0.0366408 -1.57138 0.117892 -0.21624
45 1.55587 0 0 0.0017317 -0.107165 1.01098
46 1.24273 0 0 0.000590351 -0.000104711 0.855255
47 0.784531 0 0 -0.00592616 0.000840055 1.11775
48 0 0 0 0 0 0
49 4.98696 -19.3641 -5.29483 -0.000625177 0.000136615 0.000480879
50 0 -1.51208 1.07027 0 0 0
51 0.540026 -0.371634 1.70233 0 0 0
52 0 -4.95107 2.17037 0 0 0
53 0 -2.31355 1.98216 0 0 0
54 4.98648 -18.5952 -6.12368 -0.000625177 0.000136615 0.000480879
55 0 -0.826143 2.13793 0 0 0
56 0 -0.686123 2.18513 0 0 0
time 27
0 7.58967 10.8278 -3.60973 0.000934124 0 -1.06437
1 6.02794 0 0 -1.03457 0.413365 -0.559382
2 11.7344 0 0 -0.00140298 0 -0.788117
3 8.81139 -0.000450134 -0.00011301 0.0973813 0 0.000157812
4 5.77839 0.000286102 0 0.0652455 0 0.000106291
5 2.23163 -0.000329971 -0.000364304 0.0321359 0 0
6 11.4725 0 0 -0.232462 -0.47922 0.642542
7 0.615219 -0.993091 -0.810701 -3.01423 0.324565 -0.386014
8 2.24752 0 0 0.0800072 0.00264708 -0.146496
9 1.11936 0 0 0.0512105 0.062516 -0.327821
10 3.71348 -0.102641 0.102191 1.38754 0.842929 0.067286
11 1.72615 0 0 0.00945171 -0.00623858 -1.09905
12 1.21114 0 0 -0.0132693 0.0116177 -1.44917
13 3.59919 -1.06012 0.0708882 1.43601 0.244349 -0.0655281
14 1.66069 0 0 -0.037484 0.0636747 -0.726308
15 1.167 0 0 -0.0270716 0.0140958 -0.693245
16 2.18852 0.50104 0.0576594 1.55548 0.166719 0.138312
17 1.29609 0 0 -0.185212 -0.0418433 -0.654895
18 1.62202 0.000713348 -0.000471115 0.0143688 -0.0178807 -1.11
19 1.22241 0 0 -0.0070255 0.00524254 -1.42423
20 1.76707 1.27612 0.0366409 1.27805 0.322855 0.136707
21 1.55587 0 0 -0.0225085 0.0235834 -0.467635
22 1.24274 0 0 -0.000596365 0 -0.783974
23 0.784524 0 0 0.00616286 -0.000615285 -0.9415
24 2.85835 9.28793 -4.43253 0.726982 0.410583 -1.99191
25 6.02794 0 0 0.0433683 0.0851118 0.230028
26 11.7344 0 0 0.00140274 0 0.910694
27 8.81167 0 0 0.878621 0 0
28 5.77884 0 0 0.588676 0 0
29 2.23249 0 0 0.289945 0 0
30 11.4725 0 0 0.898437 0.287609 -0.677113
31 0.615814 0.994372 -0.809165 -2.35227 0.0187305 0.46255
32 2.24752 0 0 -0.0459563 0.244746 0.234216
33 1.11935 0 0 -0.0408307 0.257423 0.212558
34 3.71349 0.10264 0.102191 -1.7258 1.11243 -0.263964
35 1.72615 0 0 0.0021962 0.00206205 0.928466
36 1.21112 0 0 -0.00470664 0.0169966 0.327294
37 3.5992 1.06012 0.0708882 -1.81456 1.00851 -0.246313
38 1.66069 0 0 0.00707744 0.0114628 0.775068
39 1.16699 0 0 -0.0493731 -0.0470545 0.50394
40 2.18853 -0.50104 0.0576587 -1.57004 0.000184648 -0.21278
41 1.29609 0 0 -0.0358608 -0.0301293 1.06108
42 1.62202 -0.000713348 -0.000470161 -0.00103443 -0.00157667 1.01338
43 1.22241 0 0 0.0173377 0.0316405 0.340004
44 1.76707 -1.27612 0.0366404 -1.57138 0.117892 -0.216239
45 1.55588 0 0 0.0017318 -0.107165 1.01098
46 1.24273 0 0 0.00059012 -0.000104536 0.855255
47 0.784532 0 0 -0.0059262 0.000839979 1.11775
48 0 0 0 0 0 0
49 4.9898 -19.3508 -5.28605 -0.000692305 0.000115269 0.000405742
50 0 -1.51208 1.07027 0 0 0
51 0.540026 -0.371634 1.70233 0 0 0
52 0 -4.95107 2.17037 0 0 0
53 0 -2.31355 1.98216 0 0 0
54 4.98939 -18.582 -6.11496 -0.000692305 0.000115269 0.000405742
55 0 -0.826855 2.13994 0 0 0
56 0 -0.684368 2.17868 0 0 0
time 28
0 7.58967 10.8278 -3.60973 0.000934124 0 -1.06437
1 6.02794 0 0 -1.03439 0.414391 -0.558596
2 11.7344 0 0 -0.00140289 0 -0.791092
3 8.81138 -0.000449181 -0.00011301 0.0983289 0 0.000157717
4 5.77839 0.000286102 0 0.0658804 0 0.000106132
5 2.23164 -0.000329018 -0.00036478 0.0324485 0 0
6 11.4725 0 0 -0.232186 -0.479085 0.6439
7 0.615219 -0.993092 -0.8107 -3.01424 0.324565 -0.386014
8 2.24752 0 0 0.0800073 0.0026472 -0.146496
9 1.11936 0 0 0.0512106 0.062516 -0.327821
10 3.71348 -0.102641 0.102191 1.38754 0.842929 0.0672857
11 1.72615 0 0 0.00945179 -0.00623854 -1.09905
12 1.21114 0 0 -0.0132693 0.0116176 -1.44917
13 3.59919 -1.06012 0.0708883 1.43601 0.24435 -0.065528
14 1.66069 0 0 -0.037484 0.0636747 -0.726307
15 1.167 0 0 -0.0270716 0.0140958 -0.693245
16 2.18852 0.50104 0.0576596 1.55548 0.166718 0.138312
17 1.29609 0 0 -0.185212 -0.0418433 -0.654895
18 1.62202 0.000713348 -0.000471115 0.0143688 -0.0178808 -1.11
19 1.22241 0 0 -0.00702551 0.00524255 -1.42423
20 1.76707 1.27612 0.0366417 1.27805 0.322855 0.136707
21 1.55587 0 0 -0.0225086 0.0235834 -0.467635
22 1.24274 0 0 -0.000596425 0 -0.783974
23 0.784524 0 0 0.00616283 -0.000615293 -0.941499
24 2.85835 9.28793 -4.43253 0.726982 0.410583 -1.99191
25 6.02794 0 0 0.043333 0.0851234 0.229273
26 11.7344 0 0 0.00140265 0 0.913058
27 8.81167 0 0 0.878206 0 0
28 5.77884 0 0 0.588398 0 0
29 2.23249 0 0 0.289808 0 0
30 11.4725 0 0 0.898491 0.287383 -0.678651
31 0.615812 0.994372 -0.809165 -2.35227 0.0187306 0.46255
32 2.24752 0 0 -0.0459564 0.244746 0.234216
33 1.11936 0 0 -0.0408306 0.257423 0.212558
34 3.71349 0.10264 0.102191 -1.7258 1.11243 -0.263964
35 1.72615 0 0 0.00219629 0.0020619 0.928466
36 1.21112 0 0 -0.00470665 0.0169966 0.327294
37 3.5992 1.06012 0.070888 -1.81456 1.00851 -0.246313
38 1.66069 0 0 0.00707739 0.0114628 0.775068
39 1.16699 0 0 -0.0493731 -0.0470546 0.50394
40 2.18853 -0.50104 0.0576589 -1.57004 0.000184685 -0.21278
41 1.29609 0 0 -0.0358607 -0.0301294 1.06108
42 1.62202 -0.000713348 -0.000469208 -0.00103444 -0.00157673 1.01338
43 1.22241 0 0 0.0173377 0.0316406 0.340004
44 1.76707 -1.27612 0.0366404 -1.57138 0.117893 -0.21624
45 1.55587 0 0 0.00173171 -0.107165 1.01098
46 1.24273 0 0 0.000590136 -0.000104625 0.855255
47 0.784531 0 0 -0.00592609 0.000839998 1.11775
48 0 0 0 0 0 0
49 4.99281 -19.3382 -5.27867 -0.000898588 0 0.00024044
50 0 -1.51208 1.07027 0 0 0
51 0.540026 -0.371634 1.70232 0 0 0
52 0 -4.95108 2.17037 0 0 0
53 0 -2.31356 1.98216 0 0 0
54 4.99256 -18.5695 -6.10774 -0.000898588 0 0.00024044
55 0 -0.827555 2.14192 0 0 0
56 0 -0.682646 2.17236 0 0 0
time 29
0 7.58967 10.8278 -3.60973 0.000934124 0 -1.06437
1 6.02794 0 0 -1.03425 0.415321 -0.557866
2 11.7344 0 0 -0.0014028 0 -0.793734
3 8.81138 -0.000449181 -0.000112057 0.0991646 0 0.000157786
4 5.77839 0.000287056 0 0.0664402 0 0.000106183
5 2.23163 -0.000329018 -0.000364304 0.0327242 0 0
6 11.4725 0 0 -0.231943 -0.478791 0.645298
7 0.615219 -0.993092 -0.8107 -3.01423 0.324565 -0.386014
8 2.24752 0 0 0.0800072 0.00264714 -0.146496
9 1.11936 0 0 0.0512105 0.062516 -0.327821
10 3.71348 -0.102641 0.102191 1.38754 0.842929 0.0672857
11 1.72615 0 0 0.00945174 -0.00623858 -1.09905
12 1.21114 0 0 -0.0132693 0.0116177 -1.44917
13 3.59919 -1.06012 0.0708879 1.43601 0.244349 -0.065528
14 1.66069 0 0 -0.0374841 0.0636747 -0.726307
15 1.167 0 0 -0.0270716 0.0140958 -0.693245
16 2.18852 0.50104 0.0576588 1.55548 0.166719 0.138312
17 1.29609 0 0 -0.185212 -0.0418434 -0.654895
18 1.62202 0.000714302 -0.000471592 0.0143687 -0.0178807 -1.11
19 1.22241 0 0 -0.00702544 0.0052426 -1.42423
20 1.76707 1.27612 0.0366404 1.27805 0.322855 0.136707
21 1.55588 0 0 -0.0225085 0.0235834 -0.467635
22 1.24274 0 0 -0.000596467 0 -0.783974
23 0.784523 0 0 0.00616287 -0.000615239 -0.9415
24 2.85835 9.28793 -4.43253 0.726982 0.410583 -1.99191
25 6.02794 0 0 0.0432558 0.0851662 0.228594
26 11.7344 0 0 0.00140273 0 0.91517
27 8.81167 0 0 0.877864 0 0
28 5.77884 0 0 0.588169 0 0
29 2.23249 0 0 0.289695 0 0
30 11.4725 0 0 0.898579 0.287298 -0.680229
31 0.615814 0.994373 -0.809165 -2.35227 0.0187307 0.46255
32 2.24752 0 0 -0.0459563 0.244746 0.234216
33 1.11936 0 0 -0.0408308 0.257423 0.212558
34 3.71349 0.10264 0.102191 -1.7258 1.11243 -0.263964
35 1.72615 0 0 0.00219624 0.00206188 0.928466
36 1.21112 0 0 -0.00470661 0.0169966 0.327294
37 3.5992 1.06012 0.0708885 -1.81456 1.00851 -0.246313
38 1.66069 0 0 0.00707742 0.0114629 0.775068
39 1.16699 0 0 -0.0493731 -0.0470546 0.50394
40 2.18853 -0.50104 0.0576593 -1.57004 0.000184543 -0.21278
41 1.29609 0 0 -0.035861 -0.0301294 1.06108
42 1.62202 -0.000711441 -0.000470638 -0.00103431 -0.00157673 1.01338
43 1.22241 0 0 0.0173376 0.0316405 0.340004
44 1.76707 -1.27612 0.0366404 -1.57138 0.117893 -0.21624
45 1.55587 0 0 0.0017318 -0.107165 1.01097
46 1.24273 0 0 0.000590222 -0.000104652 0.855255
47 0.784532 0 0 -0.00592615 0.000839958 1.11775
48 0 0 0 0 0 0
49 4.99615 -19.3271 -5.27359 -0.000811872 0 0
50 0 -1.51208 1.07027 0 0 0
51 0.540026 -0.371634 1.70233 0 0 0
52 0 -4.95108 2.17037 0 0 0
53 0 -2.31355 1.98216 0 0 0
54 4.99607 -18.5584 -6.10259 -0.000811872 0 0
55 0 -0.828241 2.14386 0 0 0
56 0 -0.680962 2.16615 0 0 0
time 30
0 7.58967 10.8278 -3.60973 0.000934124 0 -1.06437
1 6.02794 0 0 -1.03418 0.416041 -0.557246
2 11.7344 0 0 -0.00140287 0 -0.795875
3 8.81138 -0.000450134 -0.00011158 0.0999164 0 0.000157633
4 5.77839 0.000286102 0 0.0669441 0 0.000106055
5 2.23163 -0.000329971 -0.00036335 0.0329723 0 0
6 11.4725 0 0 -0.231827 -0.47817 0.647136
7 0.615221 -0.993091 -0.8107 -3.01423 0.324565 -0.386014
8 2.24752 0 0 0.0800073 0.0026472 -0.146496
9 1.11936 0 0 0.0512106 0.062516 -0.327822
10 3.71348 -0.102641 0.102191 1.38753 0.842929 0.0672854
11 1.72615 0 0 0.00945168 -0.00623857 -1.09905
12 1.21114 0 0 -0.0132694 0.0116176 -1.44917
13 3.59919 -1.06012 0.0708883 1.436 0.244349 -0.0655281
14 1.66069 0 0 -0.037484 0.0636747 -0.726307
15 1.167 0 0 -0.0270716 0.0140958 -0.693244
16 2.18853 0.50104 0.057659 1.55548 0.166718 0.138312
17 1.29609 0 0 -0.185212 -0.0418434 -0.654895
18 1.62202 0.000714302 -0.000470638 0.0143688 -0.0178807 -1.11
19 1.22241 0 0 -0.00702546 0.00524262 -1.42423
20 1.76707 1.27612 0.0366409 1.27805 0.322855 0.136707
21 1.55588 0 0 -0.0225086 0.0235834 -0.467635
22 1.24274 0 0 -0.000596449 0 -0.783974
23 0.784523 0 0 0.00616289 -0.000615218 -0.9415
24 2.85835 9.28793 -4.43253 0.726982 0.410583 -1.99191
25 6.02794 0 0 0.0431585 0.0852248 0.22806
26 11.7344 0 0 0.00140279 0 0.916911
27 8.81167 0 0 0.877625 0 0
28 5.77884 0 0 0.588008 0 0
29 2.23249 0 0 0.289616 0 0
30 11.4725 0 0 0.898635 0.287709 -0.682094
31 0.615814 0.994373 -0.809165 -2.35227 0.0187305 0.46255
32 2.24752 0 0 -0.0459563 0.244746 0.234216
33 1.11936 0 0 -0.0408307 0.257423 0.212558
34 3.71349 0.102639 0.10219 -1.7258 1.11243 -0.263964
35 1.72615 0 0 0.00219633 0.00206195 0.928466
36 1.21112 0 0 -0.00470668 0.0169966 0.327294
37 3.5992 1.06012 0.070888 -1.81456 1.00851 -0.246313
38 1.66069 0 0 0.00707743 0.0114629 0.775068
39 1.16699 0 0 -0.0493731 -0.0470546 0.50394
40 2.18853 -0.501041 0.057659 -1.57004 0.000184469 -0.21278
41 1.29609 0 0 -0.0358609 -0.0301293 1.06108
42 1.62202 -0.000715256 -0.000469685 -0.00103445 -0.0015768 1.01338
43 1.22241 0 0 0.0173377 0.0316406 0.340004
44 1.76707 -1.27612 0.0366406 -1.57138 0.117893 -0.216239
45 1.55587 0 0 0.00173175 -0.107165 1.01098
46 1.24273 0 0 0.000590247 -0.000104643 0.855255
47 0.784532 0 0 -0.00592611 0.00084008 1.11775
48 0 0 0 0 0 0
49 5 -19.3184 -5.2717 0 0 0
50 0 -1.51208 1.07027 0 0 0
51 0.540026 -0.371634 1.70232 0 0 0
52 0 -4.95107 2.17037 0 0 0
53 0 -2.31355 1.98216 0 0 0
54 5 -18.549 -6.10007 0 0 0
55 0 -0.828913 2.14576 0 0 0
56 0 -0.679308 2.16008 0 0 0
end
