//Sequence File generated by the Wall Worm SMD Exporter PRO 1.99
//www.wallworm.com
version 1
nodes
0 "b_l_clav" -1
1 "b_l_upperarm" 0
2 "b_l_forearm" 1
3 "b_l_twist3" 2
4 "b_l_twist2" 2
5 "b_l_twist1" 2
6 "b_l_hand" 2
7 "b_l_thumb001" 6
8 "b_l_thumb002" 7
9 "b_l_thumb003" 8
10 "b_l_middle001" 6
11 "b_l_middle002" 10
12 "b_l_middle003" 11
13 "b_l_index001" 6
14 "b_l_index002" 13
15 "b_l_index003" 14
16 "b_l_hand_ringsqueezer" 6
17 "b_l_ring001" 16
18 "b_l_ring002" 17
19 "b_l_ring003" 18
20 "b_l_hand_pinkysqueezer" 6
21 "b_l_pinky001" 20
22 "b_l_pinky002" 21
23 "b_l_pinky003" 22
24 "b_r_clav" -1
25 "b_r_upperarm" 24
26 "b_r_forearm" 25
27 "b_r_twist3" 26
28 "b_r_twist2" 26
29 "b_r_twist1" 26
30 "b_r_hand" 26
31 "b_r_thumb001" 30
32 "b_r_thumb002" 31
33 "b_r_thumb003" 32
34 "b_r_middle001" 30
35 "b_r_middle002" 34
36 "b_r_middle003" 35
37 "b_r_index001" 30
38 "b_r_index002" 37
39 "b_r_index003" 38
40 "b_r_hand_ringsqueezer" 30
41 "b_r_ring001" 40
42 "b_r_ring002" 41
43 "b_r_ring003" 42
44 "b_r_hand_pinkysqueezer" 30
45 "b_r_pinky001" 44
46 "b_r_pinky002" 45
47 "b_r_pinky003" 46
48 "b_zero" -1
49 "d_gun" -1
50 "d_trig" 49
51 "d_slidelock" 49
52 "d_slide" 49
53 "d_barrel" 49
54 "d_mag" -1
55 "d_magfollower" 54
56 "d_boolet" 54
end
skeleton
time 0
0 7.58967 10.8278 -3.60973 0.000934124 0 -1.06437
1 6.02794 0 0 -1.03418 0.416041 -0.557246
2 11.7344 0 0 -0.00140287 0 -0.795875
3 8.81138 -0.000450134 -0.00011158 0.0999164 0 0.000157633
4 5.77839 0.000286102 0 0.0669441 0 0.000106055
5 2.23163 -0.000329971 -0.00036335 0.0329723 0 0
6 11.4725 0 0 -0.231827 -0.47817 0.647136
7 0.615221 -0.993091 -0.8107 -3.01423 0.324565 -0.386014
8 2.24752 0 0 0.0800073 0.0026472 -0.146496
9 1.11936 0 0 0.0512106 0.062516 -0.327822
10 3.71348 -0.102641 0.102191 1.38753 0.842929 0.0672854
11 1.72615 0 0 0.00945168 -0.00623857 -1.09905
12 1.21114 0 0 -0.0132694 0.0116176 -1.44917
13 3.59919 -1.06012 0.0708883 1.436 0.244349 -0.0655281
14 1.66069 0 0 -0.037484 0.0636747 -0.726307
15 1.167 0 0 -0.0270716 0.0140958 -0.693244
16 2.18853 0.50104 0.057659 1.55548 0.166718 0.138312
17 1.29609 0 0 -0.185212 -0.0418434 -0.654895
18 1.62202 0.000714302 -0.000470638 0.0143688 -0.0178807 -1.11
19 1.22241 0 0 -0.00702546 0.00524262 -1.42423
20 1.76707 1.27612 0.0366409 1.27805 0.322855 0.136707
21 1.55588 0 0 -0.0225086 0.0235834 -0.467635
22 1.24274 0 0 -0.000596449 0 -0.783974
23 0.784523 0 0 0.00616289 -0.000615218 -0.9415
24 2.85835 9.28793 -4.43253 0.726982 0.410583 -1.99191
25 6.02794 0 0 0.0431585 0.0852248 0.22806
26 11.7344 0 0 0.00140279 0 0.916911
27 8.81167 0 0 0.877625 0 0
28 5.77884 0 0 0.588008 0 0
29 2.23249 0 0 0.289616 0 0
30 11.4725 0 0 0.898635 0.287709 -0.682094
31 0.615814 0.994373 -0.809165 -2.35227 0.0187305 0.46255
32 2.24752 0 0 -0.0459563 0.244746 0.234216
33 1.11936 0 0 -0.0408307 0.257423 0.212558
34 3.71349 0.102639 0.10219 -1.7258 1.11243 -0.263964
35 1.72615 0 0 0.00219633 0.00206195 0.928466
36 1.21112 0 0 -0.00470668 0.0169966 0.327294
37 3.5992 1.06012 0.070888 -1.81456 1.00851 -0.246313
38 1.66069 0 0 0.00707743 0.0114629 0.775068
39 1.16699 0 0 -0.0493731 -0.0470546 0.50394
40 2.18853 -0.501041 0.057659 -1.57004 0.000184469 -0.21278
41 1.29609 0 0 -0.0358609 -0.0301293 1.06108
42 1.62202 -0.000715256 -0.000469685 -0.00103445 -0.0015768 1.01338
43 1.22241 0 0 0.0173377 0.0316406 0.340004
44 1.76707 -1.27612 0.0366406 -1.57138 0.117893 -0.216239
45 1.55587 0 0 0.00173175 -0.107165 1.01098
46 1.24273 0 0 0.000590247 -0.000104643 0.855255
47 0.784532 0 0 -0.00592611 0.00084008 1.11775
48 0 0 0 0 0 0
49 5 -19.3184 -5.2717 0 0 0
50 0 -1.51208 1.07027 0 0 0
51 0.540026 -0.371634 1.70232 0 0 0
52 0 -4.95107 2.17037 0 0 0
53 0 -2.31355 1.98216 0 0 0
54 5 -18.549 -6.10007 0 0 0
55 0 -0.769075 1.97674 0 0 0
56 0 -0.826365 2.70072 0 0 0
time 1
0 7.58967 10.8278 -3.60973 0.000934124 0 -1.06437
1 6.02794 0 0 -1.03678 0.412868 -0.557115
2 11.7344 0 0 -0.00140275 0 -0.799914
3 8.81139 -0.000450134 -0.000112057 0.0930659 0 0.000158037
4 5.77839 0.000286102 0 0.0623542 0 0.000106262
5 2.23163 -0.000329018 -0.000363827 0.0307118 0 0
6 11.4725 0 0 -0.246854 -0.457991 0.68343
7 0.615219 -0.993091 -0.8107 -3.01423 0.324565 -0.386014
8 2.24752 0 0 0.0800071 0.0026471 -0.146496
9 1.11936 0 0 0.0512105 0.062516 -0.327822
10 3.71348 -0.102641 0.102191 1.38754 0.842929 0.0672855
11 1.72615 0 0 0.00945167 -0.00623855 -1.09905
12 1.21114 0 0 -0.0132692 0.0116177 -1.44917
13 3.59919 -1.06012 0.0708873 1.436 0.24435 -0.0655282
14 1.66069 0 0 -0.037484 0.0636747 -0.726307
15 1.167 0 0 -0.0270716 0.0140958 -0.693244
16 2.18852 0.501039 0.0576591 1.55548 0.166718 0.138312
17 1.29609 0 0 -0.185212 -0.0418434 -0.654895
18 1.62202 0.000713348 -0.000471592 0.0143688 -0.0178807 -1.11
19 1.22241 0 0 -0.00702549 0.00524253 -1.42423
20 1.76707 1.27612 0.0366408 1.27805 0.322855 0.136707
21 1.55588 0 0 -0.0225085 0.0235834 -0.467635
22 1.24273 0 0 -0.000596463 0 -0.783974
23 0.784523 0 0 0.00616285 -0.00061528 -0.941499
24 2.85835 9.28793 -4.43253 0.726982 0.410583 -1.99191
25 6.02794 0 0 0.0464444 0.0830433 0.228521
26 11.7344 0 0 0.00140269 0 0.923744
27 8.81167 0 0 0.86257 0 0
28 5.77884 0 0 0.577922 0 0
29 2.23249 0 0 0.284648 0 0
30 11.4725 0 0 0.881353 0.308224 -0.718926
31 0.615814 0.994373 -0.809165 -2.35227 0.0187304 0.46255
32 2.24752 0 0 -0.0459564 0.244746 0.234216
33 1.11936 0 0 -0.0408308 0.257423 0.212558
34 3.71349 0.102639 0.102191 -1.7258 1.11243 -0.263964
35 1.72615 0 0 0.00219621 0.00206195 0.928466
36 1.21112 0 0 -0.00470665 0.0169967 0.327294
37 3.5992 1.06012 0.0708879 -1.81456 1.00851 -0.246313
38 1.66069 0 0 0.0070774 0.0114628 0.775068
39 1.16699 0 0 -0.049373 -0.0470546 0.50394
40 2.18853 -0.501041 0.0576591 -1.57004 0.000184387 -0.212779
41 1.29609 0 0 -0.0358609 -0.0301294 1.06108
42 1.62202 -0.000713348 -0.000470638 -0.00103429 -0.00157683 1.01338
43 1.22241 0 0 0.0173376 0.0316406 0.340004
44 1.76707 -1.27612 0.0366405 -1.57138 0.117892 -0.216239
45 1.55588 0 0 0.0017317 -0.107165 1.01098
46 1.24273 0 0 0.000590199 -0.000104613 0.855255
47 0.784531 0 0 -0.00592615 0.000840007 1.11775
48 0 0 0 0 0 0
49 5.00367 -19.3038 -5.28107 0.030546 0.012857 0.000393
50 0 -1.50715 1.083 0.153348 0 0
51 0.540026 -0.371632 1.70233 0 0 0
52 0 -4.26864 2.17037 0 0 0
53 0 -2.24599 1.94401 -0.020964 0 0
54 4.99301 -18.5095 -6.0855 0.030546 0.012857 0.000393
55 0 -0.769089 1.97678 0 0 0
56 0 -0.82633 2.70059 0 0 0
time 2
0 7.58967 10.8278 -3.60973 0.000934124 0 -1.06437
1 6.02794 0 0 -0.978696 0.534019 -0.492528
2 11.7344 0 0 -0.0014027 0 -1.03864
3 8.81138 -0.000452042 -0.00011301 0.17211 0 0.000157751
4 5.77839 0.000284195 0 0.115314 0 0.000106468
5 2.23163 -0.000330925 -0.00036335 0.0567964 0 0
6 11.4725 0 0 -0.231877 -0.541873 0.695184
7 0.615219 -0.993091 -0.8107 -3.01423 0.324565 -0.386014
8 2.24752 0 0 0.0800073 0.00264717 -0.146496
9 1.11936 0 0 0.0512105 0.0625159 -0.327821
10 3.71348 -0.102641 0.102191 1.38754 0.842929 0.0672859
11 1.72615 0 0 0.00945179 -0.00623858 -1.09905
12 1.21114 0 0 -0.0132693 0.0116176 -1.44917
13 3.59919 -1.06012 0.0708872 1.43601 0.244349 -0.065528
14 1.66069 0 0 -0.0374841 0.0636747 -0.726307
15 1.167 0 0 -0.0270716 0.0140958 -0.693245
16 2.18852 0.501039 0.0576587 1.55548 0.166718 0.138312
17 1.29609 0 0 -0.185212 -0.0418434 -0.654895
18 1.62202 0.000712395 -0.000471115 0.0143687 -0.0178807 -1.11
19 1.22241 0 0 -0.00702547 0.00524261 -1.42423
20 1.76707 1.27612 0.0366408 1.27805 0.322855 0.136707
21 1.55588 0 0 -0.0225085 0.0235834 -0.467635
22 1.24274 0 0 -0.000596407 0 -0.783974
23 0.784524 0 0 0.00616286 -0.000615259 -0.9415
24 2.85835 9.28793 -4.43253 0.726982 0.410583 -1.99191
25 6.02794 0 0 0.0204873 0.0961471 0.11692
26 11.7344 0 0 0.00140271 0 1.13542
27 8.81167 0 0 0.860188 0 0
28 5.77884 0 0 0.576326 0 0
29 2.23249 0 0 0.283862 0 0
30 11.4725 0 0 0.91896 0.226955 -0.72195
31 0.615814 0.994372 -0.809165 -2.35227 0.0187304 0.46255
32 2.24752 0 0 -0.0459563 0.244746 0.234216
33 1.11936 0 0 -0.0408308 0.257423 0.212558
34 3.71349 0.102639 0.102191 -1.7258 1.11243 -0.263964
35 1.72615 0 0 0.00219615 0.00206198 0.928466
36 1.21112 0 0 -0.00470665 0.0169966 0.327294
37 3.5992 1.06012 0.0708883 -1.81456 1.00851 -0.246313
38 1.66069 0 0 0.00707746 0.0114628 0.775068
39 1.16699 0 0 -0.0493731 -0.0470546 0.50394
40 2.18853 -0.501041 0.0576593 -1.57004 0.000184409 -0.21278
41 1.29609 0 0 -0.0358608 -0.0301294 1.06108
42 1.62202 -0.000713348 -0.000470161 -0.00103438 -0.00157674 1.01338
43 1.22241 0 0 0.0173376 0.0316406 0.340004
44 1.76707 -1.27612 0.0366405 -1.57138 0.117892 -0.216239
45 1.55588 0 0 0.0017317 -0.107165 1.01097
46 1.24273 0 0 0.000590275 -0.000104644 0.855255
47 0.784531 0 0 -0.00592613 0.000839989 1.11775
48 0 0 0 0 0 0
49 5 -17.9935 -5.2717 -0.079767 -0.010131 0.00081
50 0 -1.50025 1.10082 0.306695 0 0
51 0.540026 -0.371637 1.70232 0 0 0
52 0 -3.13126 2.17037 0 0 0
53 0 -2.17842 1.90586 -0.041928 0 0
54 5.00842 -17.2926 -6.1587 -0.079767 -0.010131 0.00081
55 0 -0.769133 1.9769 0 0 0
56 0 -0.82622 2.70019 0 0 0
time 3
0 7.58967 10.8278 -3.60973 0.000934124 0 -1.06437
1 6.02794 0 0 -0.963026 0.560463 -0.475914
2 11.7344 0 0 -0.00140267 0 -1.08689
3 8.81138 -0.000450134 -0.000112534 0.22255 0 0.000157926
4 5.77839 0.000286102 0 0.149108 0 0.000107033
5 2.23163 -0.000329018 -0.000365257 0.0734414 0 0
6 11.4725 0 0 -0.16561 -0.571825 0.642374
7 0.61522 -0.993091 -0.8107 -3.01423 0.324565 -0.386014
8 2.24752 0 0 0.0800074 0.00264707 -0.146496
9 1.11936 0 0 0.0512106 0.0625159 -0.327821
10 3.71348 -0.102641 0.102191 1.38754 0.842929 0.0672857
11 1.72615 0 0 0.00945174 -0.00623856 -1.09905
12 1.21114 0 0 -0.0132693 0.0116177 -1.44917
13 3.59919 -1.06012 0.070888 1.436 0.244349 -0.0655281
14 1.66069 0 0 -0.0374841 0.0636747 -0.726307
15 1.167 0 0 -0.0270716 0.0140957 -0.693244
16 2.18852 0.50104 0.0576589 1.55548 0.166719 0.138312
17 1.29609 0 0 -0.185212 -0.0418433 -0.654895
18 1.62202 0.000713348 -0.000470877 0.0143688 -0.0178807 -1.11
19 1.22241 0 0 -0.00702544 0.00524262 -1.42423
20 1.76707 1.27612 0.0366404 1.27804 0.322855 0.136707
21 1.55588 0 0 -0.0225085 0.0235834 -0.467635
22 1.24273 0 0 -0.000596428 0 -0.783974
23 0.784523 0 0 0.00616286 -0.000615265 -0.9415
24 2.85835 9.28793 -4.43253 0.726982 0.410583 -1.99191
25 6.02794 0 0 0.008112 0.101456 0.0921524
26 11.7344 0 0 0.00140265 0 1.17793
27 8.81167 0 0 0.904743 0 0
28 5.77884 0 0 0.606178 0 0
29 2.23249 0 0 0.298565 0 0
30 11.4725 0 0 0.975764 0.176851 -0.68845
31 0.615812 0.994372 -0.809165 -2.35227 0.0187304 0.46255
32 2.24752 0 0 -0.0459563 0.244746 0.234216
33 1.11936 0 0 -0.0408306 0.257423 0.212558
34 3.71349 0.10264 0.102191 -1.7258 1.11243 -0.263964
35 1.72615 0 0 0.00219623 0.002062 0.928466
36 1.21112 0 0 -0.00470668 0.0169965 0.327294
37 3.5992 1.06012 0.0708882 -1.81456 1.00851 -0.246313
38 1.66069 0 0 0.00707746 0.0114628 0.775068
39 1.16699 0 0 -0.0493731 -0.0470546 0.50394
40 2.18853 -0.50104 0.0576591 -1.57004 0.000184402 -0.21278
41 1.29609 0 0 -0.0358609 -0.0301293 1.06108
42 1.62202 -0.000713348 -0.000469208 -0.00103442 -0.00157678 1.01338
43 1.22241 0 0 0.0173377 0.0316407 0.340004
44 1.76707 -1.27612 0.0366406 -1.57138 0.117892 -0.21624
45 1.55587 0 0 0.00173172 -0.107165 1.01098
46 1.24273 0 0 0.000590311 -0.000104746 0.855255
47 0.784533 0 0 -0.00592611 0.000840011 1.11775
48 0 0 0 0 0 0
49 4.97176 -17.6689 -5.19668 -0.134381 -0.0611965 -0.0070018
50 0 -1.49729 1.10846 0.306695 0 0
51 0.540026 -0.371635 1.70232 0 0 0
52 0 -3.13126 2.17037 0 0 0
53 0 -2.17842 1.90586 -0.041928 0 0
54 5.03283 -17.0179 -6.11894 -0.134381 -0.0611965 -0.0070018
55 0 -0.769208 1.97711 0 0 0
56 0 -0.826045 2.69954 0 0 0
time 4
0 7.58967 10.8278 -3.60973 0.000934124 0 -1.06437
1 6.02794 0 0 -0.981571 0.530067 -0.49427
2 11.7344 0 0 -0.00140292 0 -1.01835
3 8.81138 -0.000450134 -0.000112057 0.238157 0 0.000157745
4 5.77839 0.000286102 0 0.159565 0 0.000106898
5 2.23163 -0.000329971 -0.00036335 0.0785916 0 0
6 11.4725 0 0 -0.0928296 -0.566174 0.557843
7 0.615219 -0.993091 -0.8107 -3.01424 0.324565 -0.386015
8 2.24752 0 0 0.0800073 0.00264711 -0.146496
9 1.11936 0 0 0.0512105 0.062516 -0.327822
10 3.71348 -0.102641 0.102191 1.38754 0.842929 0.0672858
11 1.72615 0 0 0.00945176 -0.0062385 -1.09905
12 1.21114 0 0 -0.0132693 0.0116177 -1.44917
13 3.59919 -1.06012 0.0708879 1.436 0.244349 -0.0655282
14 1.66069 0 0 -0.037484 0.0636747 -0.726308
15 1.167 0 0 -0.0270716 0.0140958 -0.693245
16 2.18852 0.50104 0.0576591 1.55548 0.166719 0.138312
17 1.29609 0 0 -0.185212 -0.0418433 -0.654895
18 1.62202 0.000713348 -0.000471115 0.0143687 -0.0178808 -1.11
19 1.22241 0 0 -0.00702544 0.00524262 -1.42423
20 1.76707 1.27612 0.0366409 1.27805 0.322855 0.136707
21 1.55588 0 0 -0.0225085 0.0235834 -0.467635
22 1.24274 0 0 -0.000596414 0 -0.783974
23 0.784524 0 0 0.0061629 -0.000615266 -0.941499
24 2.85835 9.28793 -4.43253 0.726982 0.410583 -1.99191
25 6.02794 0 0 0.00946232 0.102131 0.124118
26 11.7344 0 0 0.00140265 0 1.11012
27 8.81167 0 0 0.96347 0 0
28 5.77884 0 0 0.645525 0 0
29 2.23249 0 0 0.317945 0 0
30 11.4725 0 0 1.02631 0.150952 -0.630441
31 0.615814 0.994373 -0.809165 -2.35227 0.0187305 0.46255
32 2.24752 0 0 -0.0459564 0.244746 0.234216
33 1.11936 0 0 -0.0408307 0.257423 0.212558
34 3.71348 0.10264 0.102191 -1.7258 1.11243 -0.263964
35 1.72615 0 0 0.00219625 0.00206188 0.928466
36 1.21112 0 0 -0.00470671 0.0169967 0.327294
37 3.5992 1.06012 0.070888 -1.81456 1.00851 -0.246313
38 1.66069 0 0 0.00707743 0.0114629 0.775068
39 1.16699 0 0 -0.0493731 -0.0470546 0.50394
40 2.18853 -0.50104 0.0576591 -1.57004 0.000184566 -0.21278
41 1.29609 0 0 -0.0358609 -0.0301294 1.06108
42 1.62202 -0.000713348 -0.000469685 -0.00103443 -0.00157686 1.01338
43 1.22241 0 0 0.0173376 0.0316405 0.340004
44 1.76707 -1.27612 0.0366402 -1.57138 0.117893 -0.21624
45 1.55588 0 0 0.00173181 -0.107165 1.01098
46 1.24273 0 0 0.000590284 -0.000104643 0.855255
47 0.784532 0 0 -0.00592613 0.000839936 1.11775
48 0 0 0 0 0 0
49 4.92701 -18.082 -5.07949 -0.15629 -0.111399 -0.017211
50 0 -1.49631 1.11101 0.306695 0 0
51 0.540026 -0.371635 1.70233 0 0 0
52 0 -3.13126 2.17037 0 0 0
53 0 -2.17842 1.90586 -0.041928 0 0
54 5.04214 -17.4528 -6.01172 -0.15629 -0.111399 -0.017211
55 0 -0.769306 1.97739 0 0 0
56 0 -0.825796 2.69863 0 0 0
time 5
0 7.58967 10.8278 -3.60973 0.000934124 0 -1.06437
1 6.02794 0 0 -0.999249 0.496432 -0.514075
2 11.7344 0 0 -0.00140278 0 -0.947438
3 8.81139 -0.000449181 -0.000112057 0.224561 0 0.000157947
4 5.77839 0.000287056 0 0.150456 0 0.000106891
5 2.23164 -0.000329018 -0.000364304 0.0741053 0 0
6 11.4725 0 0 -0.071669 -0.554027 0.510296
7 0.615219 -0.993092 -0.8107 -3.01423 0.324565 -0.386014
8 2.24752 0 0 0.0800073 0.00264711 -0.146496
9 1.11936 0 0 0.0512103 0.062516 -0.327822
10 3.71348 -0.102641 0.102191 1.38754 0.842929 0.0672861
11 1.72615 0 0 0.00945174 -0.00623852 -1.09905
12 1.21114 0 0 -0.0132693 0.0116176 -1.44917
13 3.59919 -1.06012 0.0708879 1.436 0.24435 -0.0655281
14 1.66069 0 0 -0.037484 0.0636747 -0.726308
15 1.167 0 0 -0.0270716 0.0140958 -0.693245
16 2.18852 0.50104 0.0576584 1.55548 0.166719 0.138312
17 1.29609 0 0 -0.185212 -0.0418433 -0.654895
18 1.62202 0.000713348 -0.000470638 0.0143687 -0.0178808 -1.11
19 1.22241 0 0 -0.00702541 0.00524264 -1.42423
20 1.76707 1.27612 0.0366409 1.27805 0.322855 0.136707
21 1.55588 0 0 -0.0225086 0.0235834 -0.467635
22 1.24273 0 0 -0.000596405 0 -0.783974
23 0.784524 0 0 0.00616285 -0.000615266 -0.9415
24 2.85835 9.28793 -4.43253 0.726982 0.410583 -1.99191
25 6.02794 0 0 0.016531 0.0996758 0.157395
26 11.7344 0 0 0.00140261 0 1.04392
27 8.81167 0 0 0.980116 0 0
28 5.77884 0 0 0.656678 0 0
29 2.23249 0 0 0.323438 0 0
30 11.4725 0 0 1.03522 0.146648 -0.597558
31 0.615812 0.994372 -0.809166 -2.35227 0.0187305 0.46255
32 2.24752 0 0 -0.0459565 0.244746 0.234216
33 1.11936 0 0 -0.0408307 0.257423 0.212558
34 3.71349 0.102639 0.102191 -1.7258 1.11243 -0.263964
35 1.72615 0 0 0.0021963 0.00206201 0.928466
36 1.21112 0 0 -0.00470669 0.0169966 0.327294
37 3.5992 1.06012 0.070888 -1.81456 1.00851 -0.246313
38 1.66069 0 0 0.00707748 0.0114629 0.775068
39 1.16699 0 0 -0.0493731 -0.0470545 0.50394
40 2.18853 -0.501041 0.0576591 -1.57004 0.000184424 -0.21278
41 1.29609 0 0 -0.035861 -0.0301293 1.06108
42 1.62202 -0.000713348 -0.000469685 -0.00103437 -0.00157681 1.01338
43 1.22241 0 0 0.0173376 0.0316406 0.340004
44 1.76707 -1.27612 0.0366409 -1.57138 0.117893 -0.216239
45 1.55588 0 0 0.00173176 -0.107165 1.01098
46 1.24273 0 0 0.000590331 -0.000104665 0.855255
47 0.784531 0 0 -0.00592623 0.00084 1.11775
48 0 0 0 0 0 0
49 4.88995 -18.4886 -4.9905 -0.15904 -0.122711 -0.024288
50 0 -1.4973 1.10846 0.306695 0 0
51 0.540026 -0.371634 1.70233 0 0 0
52 0 -3.13126 2.17037 0 0 0
53 0 -2.17842 1.90586 -0.041928 0 0
54 5.02021 -17.863 -5.92321 -0.15904 -0.122711 -0.024288
55 0 -0.769434 1.97775 0 0 0
56 0 -0.825481 2.69748 0 0 0
time 6
0 7.58967 10.8278 -3.60973 0.000934124 0 -1.06437
1 6.02794 0 0 -1.00757 0.48025 -0.522621
2 11.7344 0 0 -0.00140287 0 -0.921818
3 8.81139 -0.000449181 -0.00011301 0.201755 0 0.000157756
4 5.77839 0.000286102 0 0.135176 0 0.000106702
5 2.23164 -0.000329018 -0.00036478 0.0665793 0 0
6 11.4725 0 0 -0.0936792 -0.535396 0.528253
7 0.61522 -0.993092 -0.8107 -3.01423 0.324565 -0.386014
8 2.24752 0 0 0.0800071 0.00264716 -0.146496
9 1.11936 0 0 0.0512105 0.062516 -0.327822
10 3.71348 -0.102641 0.102191 1.38754 0.842929 0.067286
11 1.72615 0 0 0.00945179 -0.00623857 -1.09905
12 1.21114 0 0 -0.0132693 0.0116177 -1.44917
13 3.59919 -1.06012 0.0708882 1.436 0.244349 -0.065528
14 1.66068 0 0 -0.0374841 0.0636747 -0.726308
15 1.167 0 0 -0.0270717 0.0140958 -0.693244
16 2.18852 0.50104 0.0576591 1.55548 0.166718 0.138312
17 1.29609 0 0 -0.185212 -0.0418433 -0.654895
18 1.62202 0.000714302 -0.000471592 0.0143688 -0.0178807 -1.11
19 1.22241 0 0 -0.00702545 0.00524258 -1.42423
20 1.76707 1.27612 0.0366411 1.27805 0.322855 0.136707
21 1.55588 0 0 -0.0225085 0.0235834 -0.467635
22 1.24273 0 0 -0.00059644 0 -0.783974
23 0.784523 0 0 0.00616288 -0.000615242 -0.9415
24 2.85835 9.28793 -4.43253 0.726982 0.410583 -1.99191
25 6.02794 0 0 0.0236596 0.0960405 0.170167
26 11.7344 0 0 0.00140279 0 1.02431
27 8.81167 0 0 0.9608 0 0
28 5.77884 0 0 0.643736 0 0
29 2.23249 0 0 0.317064 0 0
30 11.4725 0 0 1.01564 0.165506 -0.6159
31 0.615812 0.994372 -0.809165 -2.35227 0.0187304 0.46255
32 2.24751 0 0 -0.0459564 0.244746 0.234216
33 1.11935 0 0 -0.0408308 0.257423 0.212558
34 3.71349 0.102639 0.102191 -1.7258 1.11243 -0.263964
35 1.72615 0 0 0.00219624 0.00206201 0.928466
36 1.21112 0 0 -0.00470656 0.0169967 0.327294
37 3.5992 1.06012 0.070888 -1.81456 1.00851 -0.246313
38 1.66069 0 0 0.00707748 0.0114628 0.775068
39 1.16699 0 0 -0.0493731 -0.0470546 0.50394
40 2.18853 -0.501041 0.0576588 -1.57004 0.000184536 -0.21278
41 1.29609 0 0 -0.0358609 -0.0301294 1.06108
42 1.62202 -0.000713348 -0.000469685 -0.0010344 -0.00157683 1.01338
43 1.22241 0 0 0.0173377 0.0316406 0.340004
44 1.76707 -1.27612 0.0366405 -1.57138 0.117892 -0.216239
45 1.55588 0 0 0.0017318 -0.107165 1.01097
46 1.24273 0 0 0.00059034 -0.000104591 0.855255
47 0.784531 0 0 -0.00592611 0.000840018 1.11775
48 0 0 0 0 0 0
49 4.87065 -18.645 -4.96468 -0.134967 -0.10478 -0.0301765
50 0 -1.50025 1.10082 0.306695 0 0
51 0.540027 -0.371634 1.70232 0 0 0
52 0 -4.04117 2.17037 0 0 0
53 0 -2.24599 1.94401 -0.020964 0 0
54 4.98693 -17.9973 -5.88399 -0.134967 -0.10478 -0.0301765
55 0 -0.76959 1.97819 0 0 0
56 0 -0.825102 2.69608 0 0 0
time 7
0 7.58967 10.8278 -3.60973 0.000934124 0 -1.06437
1 6.02794 0 0 -1.01567 0.463682 -0.531098
2 11.7344 0 0 -0.00140283 0 -0.896313
3 8.81138 -0.000450134 -0.000112057 0.166618 0 0.000157578
4 5.77839 0.000286102 0 0.111634 0 0.000106512
5 2.23164 -0.000329018 -0.000363827 0.0549839 0 0
6 11.4725 0 0 -0.134989 -0.510946 0.564311
7 0.61522 -0.993091 -0.8107 -3.01423 0.324565 -0.386014
8 2.24752 0 0 0.0800072 0.00264727 -0.146496
9 1.11936 0 0 0.0512107 0.062516 -0.327821
10 3.71348 -0.102641 0.102191 1.38754 0.842929 0.0672859
11 1.72615 0 0 0.0094518 -0.00623858 -1.09905
12 1.21114 0 0 -0.0132693 0.0116177 -1.44917
13 3.59919 -1.06012 0.0708879 1.43601 0.24435 -0.0655281
14 1.66069 0 0 -0.037484 0.0636748 -0.726307
15 1.167 0 0 -0.0270716 0.0140959 -0.693244
16 2.18853 0.50104 0.0576586 1.55548 0.166719 0.138312
17 1.29609 0 0 -0.185212 -0.0418433 -0.654895
18 1.62202 0.000713348 -0.000471592 0.0143688 -0.0178807 -1.11
19 1.22241 0 0 -0.00702542 0.00524258 -1.42423
20 1.76707 1.27612 0.0366408 1.27805 0.322855 0.136707
21 1.55588 0 0 -0.0225085 0.0235834 -0.467635
22 1.24273 0 0 -0.000596431 0 -0.783974
23 0.784524 0 0 0.00616288 -0.000615264 -0.9415
24 2.85835 9.28793 -4.43253 0.726982 0.410583 -1.99191
25 6.02794 0 0 0.0319243 0.0914882 0.182436
26 11.7344 0 0 0.00140267 0 1.00694
27 8.81167 0 0 0.925431 0 0
28 5.77884 0 0 0.620039 0 0
29 2.23249 0 0 0.305392 0 0
30 11.4725 0 0 0.979505 0.194567 -0.649403
31 0.615812 0.994372 -0.809165 -2.35227 0.0187304 0.46255
32 2.24752 0 0 -0.0459563 0.244746 0.234216
33 1.11936 0 0 -0.0408307 0.257423 0.212558
34 3.71349 0.102639 0.102191 -1.7258 1.11243 -0.263964
35 1.72615 0 0 0.00219626 0.0020619 0.928466
36 1.21112 0 0 -0.00470671 0.0169966 0.327294
37 3.5992 1.06012 0.0708882 -1.81456 1.00851 -0.246313
38 1.66069 0 0 0.00707757 0.0114627 0.775068
39 1.16699 0 0 -0.0493731 -0.0470546 0.50394
40 2.18853 -0.50104 0.057659 -1.57004 0.000184469 -0.21278
41 1.29609 0 0 -0.0358609 -0.0301294 1.06108
42 1.62202 -0.000715256 -0.000469685 -0.00103428 -0.00157674 1.01338
43 1.22241 0 0 0.0173376 0.0316406 0.340004
44 1.76707 -1.27612 0.0366404 -1.57138 0.117892 -0.21624
45 1.55588 0 0 0.00173171 -0.107165 1.01098
46 1.24273 0 0 0.000590374 -0.00010466 0.855255
47 0.784532 0 0 -0.00592621 0.000839974 1.11775
48 0 0 0 0 0 0
49 4.86107 -18.7993 -4.97857 -0.0982392 -0.0712352 -0.0344239
50 0 -1.50715 1.083 0.153348 0 0
51 0.540026 -0.371637 1.70232 0 0 0
52 0 -4.95107 2.17037 0 0 0
53 0 -2.31356 1.98216 0 0 0
54 4.94863 -18.1175 -5.87613 -0.0982392 -0.0712352 -0.0344239
55 0 -0.769773 1.9787 0 0 0
56 0 -0.824656 2.69444 0 0 0
time 8
0 7.58967 10.8278 -3.60973 0.000934124 0 -1.06437
1 6.02794 0 0 -1.02277 0.448366 -0.538723
2 11.7344 0 0 -0.00140272 0 -0.87088
3 8.81138 -0.000450134 -0.000112057 0.129598 0 0.000158066
4 5.77839 0.000287056 0 0.0868308 0 0.000106457
5 2.23163 -0.000329018 -0.000364304 0.0427673 0 0
6 11.4725 0 0 -0.176823 -0.486575 0.597399
7 0.615219 -0.993091 -0.8107 -3.01423 0.324565 -0.386014
8 2.24752 0 0 0.0800074 0.00264715 -0.146496
9 1.11935 0 0 0.0512105 0.0625159 -0.327821
10 3.71348 -0.102641 0.102192 1.38754 0.842929 0.067286
11 1.72615 0 0 0.00945178 -0.00623856 -1.09905
12 1.21114 0 0 -0.0132693 0.0116176 -1.44917
13 3.59919 -1.06012 0.0708883 1.43601 0.244349 -0.0655279
14 1.66069 0 0 -0.037484 0.0636747 -0.726307
15 1.167 0 0 -0.0270716 0.0140958 -0.693244
16 2.18853 0.50104 0.0576594 1.55548 0.166718 0.138312
17 1.29609 0 0 -0.185212 -0.0418433 -0.654895
18 1.62202 0.000713348 -0.000471354 0.0143688 -0.0178808 -1.11
19 1.22241 0 0 -0.0070255 0.0052426 -1.42423
20 1.76707 1.27612 0.036641 1.27805 0.322855 0.136707
21 1.55588 0 0 -0.0225086 0.0235834 -0.467635
22 1.24273 0 0 -0.000596371 0 -0.783974
23 0.784523 0 0 0.00616284 -0.000615259 -0.9415
24 2.85835 9.28793 -4.43253 0.726982 0.410583 -1.99191
25 6.02794 0 0 0.0390888 0.0873551 0.194504
26 11.7344 0 0 0.00140271 0 0.988907
27 8.81167 0 0 0.888996 0 0
28 5.77884 0 0 0.595628 0 0
29 2.23249 0 0 0.293369 0 0
30 11.4725 0 0 0.940569 0.220858 -0.682243
31 0.615814 0.994373 -0.809166 -2.35227 0.0187306 0.46255
32 2.24752 0 0 -0.0459563 0.244746 0.234216
33 1.11936 0 0 -0.0408307 0.257423 0.212558
34 3.71349 0.102639 0.102191 -1.7258 1.11243 -0.263964
35 1.72615 0 0 0.00219631 0.0020619 0.928466
36 1.21112 0 0 -0.00470668 0.0169966 0.327294
37 3.5992 1.06012 0.070888 -1.81456 1.00851 -0.246313
38 1.66069 0 0 0.00707749 0.0114628 0.775068
39 1.16699 0 0 -0.0493731 -0.0470545 0.50394
40 2.18853 -0.50104 0.057659 -1.57004 0.000184543 -0.21278
41 1.29609 0 0 -0.035861 -0.0301294 1.06108
42 1.62202 -0.000715256 -0.000469208 -0.00103438 -0.00157678 1.01338
43 1.22241 0 0 0.0173377 0.0316406 0.340004
44 1.76707 -1.27612 0.0366403 -1.57138 0.117893 -0.21624
45 1.55588 0 0 0.0017318 -0.107165 1.01098
46 1.24273 0 0 0.000590273 -0.00010463 0.855255
47 0.784532 0 0 -0.00592619 0.000839951 1.11775
48 0 0 0 0 0 0
49 4.85815 -18.945 -5.01491 -0.0630264 -0.0357082 -0.0365777
50 0 -1.51208 1.07027 0 0 0
51 0.540026 -0.371634 1.70233 0 0 0
52 0 -4.95108 2.17037 0 0 0
53 0 -2.31355 1.98216 0 0 0
54 4.91555 -18.2309 -5.88955 -0.0630264 -0.0357082 -0.0365777
55 0 -0.769981 1.97929 0 0 0
56 0 -0.824144 2.69256 0 0 0
time 9
0 7.58967 10.8278 -3.60973 0.000934124 0 -1.06437
1 6.02794 0 0 -1.02779 0.435837 -0.545453
2 11.7344 0 0 -0.0014029 0 -0.845198
3 8.81139 -0.000450134 -0.000111103 0.102015 0 0.000157821
4 5.77839 0.000286102 0 0.0683502 0 0.000106314
5 2.23163 -0.000329971 -0.00036335 0.033665 0 0
6 11.4725 0 0 -0.203945 -0.472655 0.609894
7 0.615218 -0.993091 -0.8107 -3.01423 0.324565 -0.386014
8 2.24752 0 0 0.0800072 0.00264705 -0.146496
9 1.11935 0 0 0.0512106 0.0625161 -0.327822
10 3.71348 -0.102641 0.102191 1.38754 0.842929 0.0672858
11 1.72615 0 0 0.00945176 -0.00623858 -1.09905
12 1.21114 0 0 -0.0132693 0.0116177 -1.44917
13 3.59919 -1.06012 0.0708882 1.43601 0.244349 -0.065528
14 1.66069 0 0 -0.037484 0.0636747 -0.726307
15 1.167 0 0 -0.0270716 0.0140958 -0.693244
16 2.18853 0.50104 0.0576588 1.55548 0.166718 0.138312
17 1.29609 0 0 -0.185212 -0.0418434 -0.654895
18 1.62202 0.000712395 -0.000471115 0.0143688 -0.0178808 -1.11
19 1.22241 0 0 -0.0070255 0.00524258 -1.42423
20 1.76707 1.27612 0.0366412 1.27805 0.322855 0.136707
21 1.55588 0 0 -0.0225085 0.0235834 -0.467635
22 1.24273 0 0 -0.000596425 0 -0.783974
23 0.784523 0 0 0.00616289 -0.000615266 -0.941499
24 2.85835 9.28793 -4.43253 0.726982 0.410583 -1.99191
25 6.02794 0 0 0.0432391 0.0848973 0.2053
26 11.7344 0 0 0.00140281 0 0.968999
27 8.81167 0 0 0.866678 0 0
28 5.77884 0 0 0.580674 0 0
29 2.23249 0 0 0.286004 0 0
30 11.4725 0 0 0.914098 0.23512 -0.69593
31 0.615812 0.994373 -0.809165 -2.35227 0.0187304 0.46255
32 2.24752 0 0 -0.0459564 0.244746 0.234216
33 1.11936 0 0 -0.0408307 0.257423 0.212558
34 3.71349 0.102639 0.102191 -1.7258 1.11243 -0.263964
35 1.72615 0 0 0.00219615 0.00206195 0.928465
36 1.21112 0 0 -0.00470666 0.0169965 0.327294
37 3.5992 1.06012 0.0708882 -1.81456 1.00851 -0.246313
38 1.66069 0 0 0.00707746 0.0114628 0.775068
39 1.16699 0 0 -0.049373 -0.0470546 0.50394
40 2.18853 -0.50104 0.0576593 -1.57004 0.000184529 -0.21278
41 1.29609 0 0 -0.0358608 -0.0301293 1.06108
42 1.62202 -0.000715256 -0.000469685 -0.00103431 -0.00157675 1.01338
43 1.22241 0 0 0.0173376 0.0316406 0.340004
44 1.76707 -1.27612 0.0366405 -1.57138 0.117893 -0.216239
45 1.55587 0 0 0.00173176 -0.107165 1.01097
46 1.24273 0 0 0.00059029 -0.000104683 0.855255
47 0.784532 0 0 -0.00592624 0.000839986 1.11775
48 0 0 0 0 0 0
49 4.85887 -19.0755 -5.05647 -0.043497 -0.011829 -0.036185
50 0 -1.51208 1.07027 0 0 0
51 0.540026 -0.371635 1.70232 0 0 0
52 0 -4.95107 2.17037 0 0 0
53 0 -2.31355 1.98216 0 0 0
54 4.89556 -18.3437 -5.91745 -0.043497 -0.011829 -0.036185
55 0 -0.770214 1.97995 0 0 0
56 0 -0.823572 2.69045 0 0 0
time 10
0 7.58967 10.8278 -3.60973 0.000934124 0 -1.06437
1 6.02794 0 0 -1.03029 0.426863 -0.551386
2 11.7344 0 0 -0.00140284 0 -0.821897
3 8.81138 -0.000449181 -0.000112534 0.0842469 0 0.000157614
4 5.77839 0.000287056 0 0.0564453 0 0.000105952
5 2.23163 -0.000329971 -0.000364304 0.0278015 0 0
6 11.4725 0 0 -0.21984 -0.4734 0.604447
7 0.615218 -0.993091 -0.8107 -3.01423 0.324565 -0.386014
8 2.24752 0 0 0.0800072 0.0026471 -0.146496
9 1.11935 0 0 0.0512107 0.062516 -0.327822
10 3.71348 -0.102641 0.102191 1.38754 0.842929 0.0672858
11 1.72615 0 0 0.00945178 -0.00623858 -1.09905
12 1.21114 0 0 -0.0132693 0.0116176 -1.44917
13 3.59919 -1.06012 0.070888 1.436 0.244349 -0.0655281
14 1.66069 0 0 -0.037484 0.0636747 -0.726307
15 1.167 0 0 -0.0270716 0.0140958 -0.693244
16 2.18852 0.50104 0.0576588 1.55548 0.166718 0.138312
17 1.29609 0 0 -0.185212 -0.0418433 -0.654895
18 1.62202 0.000714302 -0.000470638 0.0143688 -0.0178807 -1.11
19 1.22241 0 0 -0.00702551 0.00524259 -1.42423
20 1.76707 1.27612 0.0366409 1.27805 0.322855 0.136707
21 1.55588 0 0 -0.0225085 0.0235834 -0.467635
22 1.24274 0 0 -0.00059639 0 -0.783974
23 0.784524 0 0 0.00616287 -0.000615252 -0.9415
24 2.85835 9.28793 -4.43253 0.726982 0.410583 -1.99191
25 6.02794 0 0 0.0453073 0.0836665 0.214429
26 11.7344 0 0 0.00140274 0 0.948067
27 8.81167 0 0 0.856984 0 0
28 5.77884 0 0 0.574179 0 0
29 2.23249 0 0 0.282805 0 0
30 11.4725 0 0 0.898727 0.23917 -0.687582
31 0.615814 0.994373 -0.809165 -2.35227 0.0187305 0.46255
32 2.24752 0 0 -0.0459564 0.244746 0.234216
33 1.11936 0 0 -0.0408308 0.257423 0.212558
34 3.71349 0.102639 0.102191 -1.7258 1.11243 -0.263964
35 1.72615 0 0 0.00219622 0.00206203 0.928466
36 1.21112 0 0 -0.00470665 0.0169966 0.327294
37 3.5992 1.06012 0.0708884 -1.81456 1.00851 -0.246314
38 1.66069 0 0 0.00707748 0.0114628 0.775068
39 1.16699 0 0 -0.0493732 -0.0470546 0.50394
40 2.18853 -0.50104 0.0576591 -1.57004 0.000184484 -0.21278
41 1.29609 0 0 -0.0358609 -0.0301294 1.06108
42 1.62202 -0.000713348 -0.000471592 -0.00103436 -0.00157678 1.01338
43 1.22241 0 0 0.0173376 0.0316405 0.340004
44 1.76707 -1.27612 0.0366406 -1.57138 0.117892 -0.216239
45 1.55587 0 0 0.00173187 -0.107165 1.01098
46 1.24273 0 0 0.000590229 -0.00010461 0.855255
47 0.784531 0 0 -0.00592611 0.000840027 1.11775
48 0 0 0 0 0 0
49 4.86019 -19.1843 -5.08598 -0.0420092 0.00169758 -0.0321547
50 0 -1.51208 1.07027 0 0 0
51 0.540026 -0.371635 1.70232 0 0 0
52 0 -4.95107 2.17037 0 0 0
53 0 -2.31356 1.98216 0 0 0
54 4.88233 -18.4507 -5.94594 -0.0420092 0.00169758 -0.0321547
55 0 -0.77047 1.98068 0 0 0
56 0 -0.822937 2.68811 0 0 0
time 11
0 7.58967 10.8278 -3.60973 0.000934124 0 -1.06437
1 6.02794 0 0 -1.03139 0.420474 -0.556345
2 11.7344 0 0 -0.00140287 0 -0.803359
3 8.81139 -0.000450134 -0.000112534 0.070467 0 0.000157641
4 5.77839 0.000286102 0 0.047213 0 0.000105732
5 2.23164 -0.000329971 -0.000363827 0.023254 0 0
6 11.4725 0 0 -0.233615 -0.480351 0.596431
7 0.615219 -0.99309 -0.8107 -3.01423 0.324565 -0.386014
8 2.24752 0 0 0.0800074 0.00264706 -0.146496
9 1.11936 0 0 0.0512105 0.062516 -0.327821
10 3.71348 -0.10264 0.102191 1.38754 0.842929 0.0672861
11 1.72615 0 0 0.00945179 -0.00623854 -1.09905
12 1.21114 0 0 -0.0132693 0.0116177 -1.44917
13 3.59919 -1.06012 0.0708888 1.43601 0.244349 -0.0655279
14 1.66069 0 0 -0.037484 0.0636747 -0.726308
15 1.167 0 0 -0.0270716 0.0140957 -0.693244
16 2.18852 0.50104 0.0576593 1.55548 0.166718 0.138312
17 1.29609 0 0 -0.185212 -0.0418433 -0.654895
18 1.62202 0.000714302 -0.000471115 0.0143688 -0.0178807 -1.11
19 1.22241 0 0 -0.00702549 0.00524254 -1.42423
20 1.76707 1.27612 0.0366409 1.27805 0.322855 0.136707
21 1.55588 0 0 -0.0225085 0.0235834 -0.467635
22 1.24274 0 0 -0.000596429 0 -0.783974
23 0.784523 0 0 0.00616287 -0.000615279 -0.941499
24 2.85835 9.28793 -4.43253 0.726982 0.410583 -1.99191
25 6.02794 0 0 0.0468817 0.0826995 0.221692
26 11.7344 0 0 0.00140265 0 0.93015
27 8.81167 0 0 0.850171 0 0
28 5.77884 0 0 0.569614 0 0
29 2.23249 0 0 0.280556 0 0
30 11.4725 0 0 0.885871 0.240911 -0.673294
31 0.61581 0.994372 -0.809166 -2.35227 0.0187304 0.46255
32 2.24752 0 0 -0.0459563 0.244746 0.234216
33 1.11935 0 0 -0.0408307 0.257423 0.212558
34 3.71349 0.102639 0.102191 -1.7258 1.11243 -0.263964
35 1.72615 0 0 0.00219623 0.00206197 0.928465
36 1.21112 0 0 -0.00470672 0.0169966 0.327294
37 3.5992 1.06012 0.0708884 -1.81456 1.00851 -0.246313
38 1.66069 0 0 0.00707738 0.0114629 0.775068
39 1.16699 0 0 -0.0493731 -0.0470546 0.50394
40 2.18853 -0.50104 0.057659 -1.57004 0.000184573 -0.21278
41 1.29609 0 0 -0.0358609 -0.0301294 1.06108
42 1.62202 -0.000713348 -0.000470161 -0.00103434 -0.00157676 1.01338
43 1.22241 0 0 0.0173376 0.0316407 0.340004
44 1.76707 -1.27612 0.0366404 -1.57138 0.117892 -0.21624
45 1.55588 0 0 0.00173178 -0.107165 1.01098
46 1.24273 0 0 0.000590237 -0.00010461 0.855255
47 0.784532 0 0 -0.0059262 0.000840036 1.11775
48 0 0 0 0 0 0
49 4.86356 -19.2653 -5.10368 -0.0467591 0.0126632 -0.0258799
50 0 -1.51208 1.07027 0 0 0
51 0.540027 -0.371632 1.70232 0 0 0
52 0 -4.95107 2.17037 0 0 0
53 0 -2.31355 1.98216 0 0 0
54 4.87151 -18.5354 -5.96704 -0.0467591 0.0126632 -0.0258799
55 0 -0.770754 1.98148 0 0 0
56 0 -0.822239 2.68556 0 0 0
time 12
0 7.58967 10.8278 -3.60973 0.000934124 0 -1.06437
1 6.02794 0 0 -1.03198 0.416432 -0.559595
2 11.7344 0 0 -0.00140286 0 -0.790702
3 8.81139 -0.000448227 -0.00011301 0.0640652 0 0.000157874
4 5.77839 0.00028801 0 0.0429236 0 0.000106051
5 2.23164 -0.000328064 -0.000364304 0.0211414 0 0
6 11.4725 0 0 -0.240076 -0.486801 0.589867
7 0.61522 -0.993092 -0.810701 -3.01423 0.324565 -0.386014
8 2.24752 0 0 0.080007 0.00264712 -0.146496
9 1.11936 0 0 0.0512106 0.0625159 -0.327822
10 3.71348 -0.102641 0.102191 1.38754 0.842929 0.0672857
11 1.72615 0 0 0.00945176 -0.00623861 -1.09905
12 1.21114 0 0 -0.0132693 0.0116177 -1.44917
13 3.59919 -1.06012 0.0708877 1.436 0.244349 -0.0655281
14 1.66069 0 0 -0.037484 0.0636748 -0.726308
15 1.167 0 0 -0.0270716 0.0140958 -0.693245
16 2.18853 0.50104 0.057659 1.55548 0.166718 0.138312
17 1.29609 0 0 -0.185212 -0.0418434 -0.654895
18 1.62202 0.000714302 -0.000471115 0.0143687 -0.0178807 -1.11
19 1.22241 0 0 -0.00702548 0.00524262 -1.42423
20 1.76707 1.27612 0.0366405 1.27805 0.322855 0.136707
21 1.55587 0 0 -0.0225085 0.0235834 -0.467635
22 1.24274 0 0 -0.000596406 0 -0.783974
23 0.784524 0 0 0.00616287 -0.000615306 -0.941499
24 2.85835 9.28793 -4.43253 0.726982 0.410583 -1.99191
25 6.02794 0 0 0.0473528 0.0824254 0.226681
26 11.7344 0 0 0.00140266 0 0.917226
27 8.81167 0 0 0.849195 0 0
28 5.77884 0 0 0.568961 0 0
29 2.23249 0 0 0.280234 0 0
30 11.4725 0 0 0.88052 0.24218 -0.660632
31 0.615812 0.994372 -0.809166 -2.35227 0.0187305 0.46255
32 2.24752 0 0 -0.0459563 0.244746 0.234216
33 1.11936 0 0 -0.0408307 0.257423 0.212558
34 3.71349 0.102639 0.102191 -1.7258 1.11243 -0.263964
35 1.72615 0 0 0.00219625 0.00206195 0.928466
36 1.21112 0 0 -0.00470665 0.0169965 0.327294
37 3.59921 1.06012 0.0708882 -1.81456 1.00851 -0.246313
38 1.66069 0 0 0.00707743 0.0114628 0.775068
39 1.16699 0 0 -0.0493731 -0.0470546 0.50394
40 2.18853 -0.50104 0.057659 -1.57004 0.000184454 -0.21278
41 1.29609 0 0 -0.0358609 -0.0301294 1.06108
42 1.62202 -0.000713348 -0.000469685 -0.00103443 -0.00157668 1.01338
43 1.22241 0 0 0.0173377 0.0316404 0.340004
44 1.76707 -1.27612 0.0366406 -1.57138 0.117892 -0.21624
45 1.55588 0 0 0.00173183 -0.107165 1.01097
46 1.24273 0 0 0.000590298 -0.000104658 0.855255
47 0.784532 0 0 -0.00592615 0.000839897 1.11775
48 0 0 0 0 0 0
49 4.87162 -19.3201 -5.12115 -0.050672 0.017182 -0.020634
50 0 -1.51208 1.07027 0 0 0
51 0.540026 -0.371634 1.70233 0 0 0
52 0 -4.95107 2.17037 0 0 0
53 0 -2.31355 1.98216 0 0 0
54 4.87173 -18.5935 -5.98731 -0.050672 0.017182 -0.020634
55 0 -0.771063 1.98235 0 0 0
56 0 -0.821486 2.68278 0 0 0
time 13
0 7.58967 10.8278 -3.60973 0.000934124 0 -1.06437
1 6.02794 0 0 -1.0325 0.414066 -0.561272
2 11.7344 0 0 -0.00140284 0 -0.783235
3 8.81138 -0.000449181 -0.000112534 0.0669274 0 0.00015792
4 5.77839 0.000286102 0 0.0448414 0 0.000106118
5 2.23163 -0.000329971 -0.000364304 0.022086 0 0
6 11.4725 0 0 -0.236925 -0.490916 0.585339
7 0.615219 -0.993091 -0.8107 -3.01424 0.324565 -0.386014
8 2.24752 0 0 0.0800072 0.00264707 -0.146496
9 1.11936 0 0 0.0512105 0.062516 -0.327821
10 3.71348 -0.102641 0.102191 1.38754 0.842929 0.0672858
11 1.72615 0 0 0.00945181 -0.00623858 -1.09905
12 1.21114 0 0 -0.0132693 0.0116176 -1.44917
13 3.59919 -1.06012 0.0708878 1.43601 0.24435 -0.065528
14 1.66069 0 0 -0.037484 0.0636747 -0.726308
15 1.167 0 0 -0.0270717 0.0140958 -0.693244
16 2.18852 0.501039 0.057659 1.55548 0.166719 0.138312
17 1.29609 0 0 -0.185212 -0.0418433 -0.654895
18 1.62202 0.000713348 -0.000470638 0.0143688 -0.0178807 -1.11
19 1.22241 0 0 -0.00702551 0.00524259 -1.42423
20 1.76707 1.27612 0.0366406 1.27805 0.322855 0.136707
21 1.55588 0 0 -0.0225086 0.0235834 -0.467635
22 1.24273 0 0 -0.000596407 0 -0.783974
23 0.784523 0 0 0.00616288 -0.000615239 -0.9415
24 2.85835 9.28793 -4.43253 0.726982 0.410583 -1.99191
25 6.02794 0 0 0.0467147 0.0828735 0.229628
26 11.7344 0 0 0.00140279 0 0.909135
27 8.81167 0 0 0.855729 0 0
28 5.77884 0 0 0.573338 0 0
29 2.23249 0 0 0.282391 0 0
30 11.4725 0 0 0.884658 0.243692 -0.65119
31 0.615812 0.994372 -0.809165 -2.35227 0.0187305 0.46255
32 2.24752 0 0 -0.0459564 0.244746 0.234216
33 1.11936 0 0 -0.0408308 0.257423 0.212558
34 3.71349 0.10264 0.102191 -1.7258 1.11243 -0.263964
35 1.72615 0 0 0.00219619 0.00206207 0.928466
36 1.21112 0 0 -0.00470663 0.0169966 0.327294
37 3.5992 1.06012 0.070888 -1.81456 1.00851 -0.246313
38 1.66069 0 0 0.00707747 0.0114628 0.775068
39 1.16699 0 0 -0.0493731 -0.0470546 0.50394
40 2.18853 -0.50104 0.0576591 -1.57004 0.000184514 -0.212779
41 1.29609 0 0 -0.0358609 -0.0301294 1.06108
42 1.62202 -0.000713348 -0.000469685 -0.0010343 -0.00157674 1.01338
43 1.22241 0 0 0.0173376 0.0316406 0.340004
44 1.76707 -1.27612 0.0366404 -1.57138 0.117892 -0.216239
45 1.55587 0 0 0.00173181 -0.107165 1.01098
46 1.24273 0 0 0.000590353 -0.000104753 0.855255
47 0.784532 0 0 -0.00592616 0.000839989 1.11775
48 0 0 0 0 0 0
49 4.88312 -19.3542 -5.13822 -0.05173 0.0134371 -0.0172136
50 0 -1.51208 1.07027 0 0 0
51 0.540026 -0.371634 1.70232 0 0 0
52 0 -4.95108 2.17037 0 0 0
53 0 -2.31356 1.98216 0 0 0
54 4.88396 -18.6285 -6.00519 -0.05173 0.0134371 -0.0172136
55 0 -0.771391 1.98328 0 0 0
56 0 -0.820669 2.67979 0 0 0
time 14
0 7.58967 10.8278 -3.60973 0.000934124 0 -1.06437
1 6.02794 0 0 -1.03268 0.413134 -0.561959
2 11.7344 0 0 -0.00140277 0 -0.779327
3 8.81138 -0.000449181 -0.000112534 0.0761061 0 0.000157775
4 5.77839 0.000287056 0 0.0509911 0 0.000105987
5 2.23163 -0.000328064 -0.000363827 0.0251151 0 0
6 11.4725 0 0 -0.227741 -0.495252 0.581117
7 0.615219 -0.993091 -0.8107 -3.01423 0.324565 -0.386014
8 2.24752 0 0 0.0800073 0.00264711 -0.146496
9 1.11936 0 0 0.0512105 0.0625158 -0.327821
10 3.71348 -0.102641 0.102191 1.38754 0.842929 0.0672858
11 1.72615 0 0 0.00945171 -0.00623858 -1.09905
12 1.21114 0 0 -0.0132693 0.0116176 -1.44917
13 3.59919 -1.06012 0.0708882 1.43601 0.244349 -0.0655281
14 1.66069 0 0 -0.0374841 0.0636747 -0.726308
15 1.167 0 0 -0.0270716 0.0140958 -0.693244
16 2.18852 0.50104 0.0576587 1.55548 0.166718 0.138312
17 1.29609 0 0 -0.185212 -0.0418434 -0.654895
18 1.62202 0.000714302 -0.000470638 0.0143688 -0.0178807 -1.11
19 1.22241 0 0 -0.00702548 0.00524254 -1.42423
20 1.76707 1.27612 0.0366408 1.27805 0.322855 0.136707
21 1.55587 0 0 -0.0225085 0.0235834 -0.467635
22 1.24274 0 0 -0.000596403 0 -0.783974
23 0.784523 0 0 0.00616284 -0.000615259 -0.9415
24 2.85835 9.28793 -4.43253 0.726982 0.410583 -1.99191
25 6.02794 0 0 0.0453015 0.0838313 0.231062
26 11.7344 0 0 0.00140276 0 0.904091
27 8.81167 0 0 0.867458 0 0
28 5.77884 0 0 0.581197 0 0
29 2.23249 0 0 0.286261 0 0
30 11.4725 0 0 0.894913 0.244872 -0.641812
31 0.615816 0.994373 -0.809166 -2.35227 0.0187306 0.46255
32 2.24752 0 0 -0.0459563 0.244746 0.234216
33 1.11936 0 0 -0.0408307 0.257423 0.212558
34 3.71349 0.102639 0.102191 -1.7258 1.11243 -0.263965
35 1.72615 0 0 0.00219626 0.00206193 0.928466
36 1.21112 0 0 -0.0047067 0.0169966 0.327294
37 3.5992 1.06012 0.0708882 -1.81456 1.00851 -0.246314
38 1.66069 0 0 0.0070775 0.0114628 0.775068
39 1.16699 0 0 -0.0493731 -0.0470546 0.50394
40 2.18853 -0.501041 0.0576591 -1.57004 0.000184596 -0.21278
41 1.29609 0 0 -0.0358609 -0.0301294 1.06108
42 1.62202 -0.000713348 -0.000469208 -0.00103431 -0.00157676 1.01338
43 1.22241 0 0 0.0173376 0.0316405 0.340004
44 1.76707 -1.27612 0.0366404 -1.57138 0.117893 -0.216239
45 1.55588 0 0 0.00173173 -0.107165 1.01097
46 1.24273 0 0 0.000590249 -0.000104665 0.855255
47 0.784532 0 0 -0.00592615 0.000839948 1.11775
48 0 0 0 0 0 0
49 4.89684 -19.3726 -5.15468 -0.052559 0.00429927 -0.0141982
50 0 -1.51208 1.07027 0 0 0
51 0.540025 -0.371634 1.70232 0 0 0
52 0 -4.95108 2.17037 0 0 0
53 0 -2.31356 1.98216 0 0 0
54 4.9034 -18.6478 -6.02232 -0.052559 0.00429927 -0.0141982
55 0 -0.771746 1.98428 0 0 0
56 0 -0.819801 2.67659 0 0 0
time 15
0 7.58967 10.8278 -3.60973 0.000934124 0 -1.06437
1 6.02794 0 0 -1.03272 0.412883 -0.562161
2 11.7344 0 0 -0.0014029 0 -0.777227
3 8.81139 -0.000449181 -0.000112057 0.0879559 0 0.000157411
4 5.77839 0.000286102 0 0.0589303 0 0.000105961
5 2.23163 -0.000329018 -0.000364304 0.0290256 0 0
6 11.4725 0 0 -0.215983 -0.499346 0.577316
7 0.615217 -0.993091 -0.8107 -3.01423 0.324565 -0.386014
8 2.24752 0 0 0.0800072 0.00264711 -0.146496
9 1.11936 0 0 0.0512105 0.062516 -0.327821
10 3.71348 -0.102641 0.102191 1.38754 0.842929 0.0672858
11 1.72615 0 0 0.00945178 -0.0062386 -1.09905
12 1.21114 0 0 -0.0132693 0.0116177 -1.44917
13 3.59919 -1.06012 0.0708883 1.436 0.24435 -0.0655281
14 1.66069 0 0 -0.0374841 0.0636747 -0.726307
15 1.167 0 0 -0.0270716 0.0140958 -0.693244
16 2.18852 0.50104 0.057659 1.55548 0.166718 0.138312
17 1.29609 0 0 -0.185212 -0.0418433 -0.654895
18 1.62202 0.000713348 -0.000470638 0.0143687 -0.0178807 -1.11
19 1.22241 0 0 -0.00702548 0.00524257 -1.42423
20 1.76707 1.27612 0.0366412 1.27805 0.322855 0.136707
21 1.55588 0 0 -0.0225085 0.0235834 -0.467635
22 1.24274 0 0 -0.000596425 0 -0.783974
23 0.784523 0 0 0.00616283 -0.000615273 -0.9415
24 2.85835 9.28793 -4.43253 0.726982 0.410583 -1.99191
25 6.02794 0 0 0.0435348 0.0850204 0.231543
26 11.7344 0 0 0.00140271 0 0.901167
27 8.81167 0 0 0.881202 0 0
28 5.77884 0 0 0.590406 0 0
29 2.23249 0 0 0.290797 0 0
30 11.4725 0 0 0.907747 0.245868 -0.63328
31 0.615814 0.994372 -0.809165 -2.35227 0.0187305 0.46255
32 2.24752 0 0 -0.0459564 0.244746 0.234216
33 1.11936 0 0 -0.0408308 0.257423 0.212558
34 3.71349 0.102639 0.102191 -1.7258 1.11243 -0.263964
35 1.72615 0 0 0.0021962 0.00206195 0.928466
36 1.21112 0 0 -0.00470665 0.0169966 0.327294
37 3.5992 1.06012 0.0708882 -1.81456 1.00851 -0.246314
38 1.66069 0 0 0.00707741 0.0114629 0.775068
39 1.16699 0 0 -0.0493731 -0.0470545 0.50394
40 2.18853 -0.501041 0.0576589 -1.57004 0.000184685 -0.21278
41 1.29609 0 0 -0.0358609 -0.0301294 1.06108
42 1.62202 -0.000713348 -0.000469208 -0.00103432 -0.00157672 1.01338
43 1.22241 0 0 0.0173377 0.0316406 0.340004
44 1.76707 -1.27612 0.0366406 -1.57138 0.117893 -0.21624
45 1.55588 0 0 0.00173185 -0.107165 1.01098
46 1.24273 0 0 0.000590331 -0.000104747 0.855255
47 0.784531 0 0 -0.00592616 0.00084 1.11775
48 0 0 0 0 0 0
49 4.91153 -19.3807 -5.17034 -0.0530505 -0.00708657 -0.011536
50 0 -1.51208 1.07027 0 0 0
51 0.540027 -0.371634 1.70233 0 0 0
52 0 -4.95108 2.17037 0 0 0
53 0 -2.31356 1.98216 0 0 0
54 4.92604 -18.6564 -6.03833 -0.0530505 -0.00708657 -0.011536
55 0 -0.772121 1.98535 0 0 0
56 0 -0.818874 2.67319 0 0 0
time 16
0 7.58967 10.8278 -3.60973 0.000934124 0 -1.06437
1 6.02794 0 0 -1.03261 0.413248 -0.561932
2 11.7344 0 0 -0.00140281 0 -0.776814
3 8.81139 -0.000449181 -0.000112534 0.0993202 0 0.000157637
4 5.77839 0.000286102 0 0.0665444 0 0.000106005
5 2.23164 -0.000329971 -0.00036478 0.0327757 0 0
6 11.4725 0 0 -0.20514 -0.502779 0.574912
7 0.61522 -0.993091 -0.8107 -3.01423 0.324565 -0.386014
8 2.24752 0 0 0.0800071 0.00264718 -0.146496
9 1.11936 0 0 0.0512106 0.0625161 -0.327822
10 3.71348 -0.102641 0.102191 1.38754 0.842929 0.0672856
11 1.72615 0 0 0.00945179 -0.00623862 -1.09905
12 1.21114 0 0 -0.0132693 0.0116176 -1.44917
13 3.59919 -1.06012 0.0708882 1.436 0.24435 -0.0655281
14 1.66069 0 0 -0.0374841 0.0636747 -0.726308
15 1.167 0 0 -0.0270716 0.0140958 -0.693244
16 2.18853 0.50104 0.0576593 1.55548 0.166718 0.138312
17 1.29609 0 0 -0.185212 -0.0418434 -0.654895
18 1.62202 0.000714302 -0.000471115 0.0143688 -0.0178807 -1.11
19 1.22241 0 0 -0.00702549 0.00524261 -1.42423
20 1.76707 1.27612 0.0366405 1.27805 0.322856 0.136707
21 1.55588 0 0 -0.0225086 0.0235834 -0.467635
22 1.24273 0 0 -0.000596455 0 -0.783974
23 0.784524 0 0 0.00616292 -0.000615212 -0.941499
24 2.85835 9.28793 -4.43253 0.726982 0.410583 -1.99191
25 6.02794 0 0 0.041841 0.0861555 0.231631
26 11.7344 0 0 0.00140259 0 0.899402
27 8.81167 0 0 0.893752 0 0
28 5.77884 0 0 0.598814 0 0
29 2.23249 0 0 0.294938 0 0
30 11.4725 0 0 0.919621 0.246889 -0.626346
31 0.615812 0.994373 -0.809165 -2.35227 0.0187304 0.46255
32 2.24752 0 0 -0.0459563 0.244746 0.234216
33 1.11936 0 0 -0.0408306 0.257423 0.212558
34 3.71349 0.10264 0.102191 -1.7258 1.11243 -0.263964
35 1.72615 0 0 0.00219627 0.00206186 0.928466
36 1.21112 0 0 -0.00470668 0.0169966 0.327294
37 3.5992 1.06012 0.070888 -1.81456 1.00851 -0.246313
38 1.66069 0 0 0.00707745 0.0114629 0.775068
39 1.16699 0 0 -0.0493731 -0.0470546 0.50394
40 2.18853 -0.50104 0.0576593 -1.57004 0.000184387 -0.21278
41 1.29609 0 0 -0.0358608 -0.0301294 1.06108
42 1.62202 -0.000713348 -0.000470161 -0.0010343 -0.00157681 1.01338
43 1.22241 0 0 0.0173376 0.0316407 0.340004
44 1.76707 -1.27612 0.0366405 -1.57138 0.117892 -0.216239
45 1.55588 0 0 0.00173167 -0.107165 1.01098
46 1.24273 0 0 0.000590336 -0.000104663 0.855255
47 0.784532 0 0 -0.00592622 0.000840009 1.11775
48 0 0 0 0 0 0
49 4.92594 -19.3838 -5.18502 -0.0530963 -0.0175753 -0.00917519
50 0 -1.51208 1.07027 0 0 0
51 0.540026 -0.371635 1.70233 0 0 0
52 0 -4.95108 2.17037 0 0 0
53 0 -2.31355 1.98216 0 0 0
54 4.94784 -18.6596 -6.05293 -0.0530963 -0.0175753 -0.00917519
55 0 -0.772524 1.98647 0 0 0
56 0 -0.817896 2.66959 0 0 0
time 17
0 7.58967 10.8278 -3.60973 0.000934124 0 -1.06437
1 6.02794 0 0 -1.03256 0.413477 -0.561778
2 11.7344 0 0 -0.00140285 0 -0.776336
3 8.81139 -0.000448227 -0.000112534 0.106595 0 0.000157493
4 5.77839 0.000286102 0 0.0714184 0 0.000105926
5 2.23163 -0.000329018 -0.00036335 0.0351762 0 0
6 11.4725 0 0 -0.198725 -0.505164 0.574086
7 0.615221 -0.993092 -0.8107 -3.01423 0.324565 -0.386014
8 2.24752 0 0 0.0800073 0.00264723 -0.146496
9 1.11936 0 0 0.0512107 0.062516 -0.327821
10 3.71348 -0.102641 0.102191 1.38754 0.842929 0.0672859
11 1.72615 0 0 0.0094518 -0.00623865 -1.09905
12 1.21114 0 0 -0.0132693 0.0116176 -1.44917
13 3.59919 -1.06012 0.0708882 1.43601 0.24435 -0.065528
14 1.66068 0 0 -0.037484 0.0636747 -0.726307
15 1.167 0 0 -0.0270716 0.0140958 -0.693244
16 2.18853 0.50104 0.0576595 1.55548 0.166719 0.138312
17 1.29609 0 0 -0.185212 -0.0418433 -0.654895
18 1.62202 0.000713348 -0.000471592 0.0143687 -0.0178807 -1.11
19 1.22241 0 0 -0.00702548 0.00524262 -1.42423
20 1.76707 1.27612 0.036641 1.27805 0.322855 0.136708
21 1.55588 0 0 -0.0225085 0.0235834 -0.467635
22 1.24274 0 0 -0.000596436 0 -0.783974
23 0.784524 0 0 0.00616286 -0.0006153 -0.941499
24 2.85835 9.28793 -4.43253 0.726982 0.410583 -1.99191
25 6.02794 0 0 0.0406589 0.0869514 0.231874
26 11.7344 0 0 0.00140276 0 0.897843
27 8.81167 0 0 0.901849 0 0
28 5.77884 0 0 0.604239 0 0
29 2.23249 0 0 0.29761 0 0
30 11.4725 0 0 0.926983 0.248206 -0.621762
31 0.615814 0.994373 -0.809165 -2.35227 0.0187306 0.46255
32 2.24752 0 0 -0.0459565 0.244746 0.234216
33 1.11936 0 0 -0.0408308 0.257423 0.212557
34 3.71349 0.102639 0.102191 -1.7258 1.11243 -0.263964
35 1.72615 0 0 0.00219622 0.00206192 0.928466
36 1.21112 0 0 -0.00470665 0.0169966 0.327294
37 3.5992 1.06012 0.0708879 -1.81456 1.00851 -0.246313
38 1.66069 0 0 0.00707748 0.0114628 0.775068
39 1.16699 0 0 -0.049373 -0.0470546 0.50394
40 2.18853 -0.501041 0.0576588 -1.57004 0.000184588 -0.21278
41 1.29609 0 0 -0.0358609 -0.0301294 1.06108
42 1.62202 -0.000713348 -0.000470638 -0.00103445 -0.00157676 1.01338
43 1.22241 0 0 0.0173377 0.0316406 0.340004
44 1.76707 -1.27612 0.0366402 -1.57138 0.117893 -0.216239
45 1.55587 0 0 0.00173177 -0.107165 1.01097
46 1.24273 0 0 0.000590386 -0.000104715 0.855255
47 0.784531 0 0 -0.0059262 0.000840041 1.11775
48 0 0 0 0 0 0
49 4.93885 -19.3871 -5.19853 -0.052588 -0.024022 -0.007064
50 0 -1.51208 1.07027 0 0 0
51 0.540026 -0.371634 1.70232 0 0 0
52 0 -4.95107 2.17037 0 0 0
53 0 -2.31355 1.98216 0 0 0
54 4.96481 -18.6624 -6.06595 -0.052588 -0.024022 -0.007064
55 0 -0.77294 1.98766 0 0 0
56 0 -0.81686 2.66579 0 0 0
time 18
0 7.58967 10.8278 -3.60973 0.000934124 0 -1.06437
1 6.02794 0 0 -1.0327 0.413035 -0.562034
2 11.7344 0 0 -0.00140294 0 -0.774557
3 8.81138 -0.000451088 -0.000112534 0.108347 0 0.000157723
4 5.77839 0.000285149 0 0.0725927 0 0.000106215
5 2.23163 -0.000329971 -0.000363827 0.0357546 0 0
6 11.4725 0 0 -0.197889 -0.50633 0.574485
7 0.615218 -0.993091 -0.810701 -3.01423 0.324565 -0.386014
8 2.24752 0 0 0.0800072 0.00264726 -0.146496
9 1.11936 0 0 0.0512107 0.0625159 -0.327821
10 3.71348 -0.102641 0.102191 1.38754 0.842929 0.0672858
11 1.72615 0 0 0.0094518 -0.00623858 -1.09905
12 1.21114 0 0 -0.0132693 0.0116177 -1.44917
13 3.59919 -1.06012 0.0708884 1.43601 0.244349 -0.0655281
14 1.66068 0 0 -0.0374841 0.0636747 -0.726308
15 1.167 0 0 -0.0270716 0.0140958 -0.693244
16 2.18853 0.50104 0.0576594 1.55548 0.166718 0.138312
17 1.2961 0 0 -0.185212 -0.0418433 -0.654895
18 1.62202 0.000712395 -0.000470638 0.0143687 -0.0178807 -1.11
19 1.22241 0 0 -0.00702548 0.00524258 -1.42423
20 1.76707 1.27612 0.0366404 1.27805 0.322855 0.136708
21 1.55588 0 0 -0.0225086 0.0235834 -0.467635
22 1.24273 0 0 -0.000596373 0 -0.783974
23 0.784523 0 0 0.00616282 -0.00061528 -0.9415
24 2.85835 9.28793 -4.43253 0.726982 0.410583 -1.99191
25 6.02794 0 0 0.0401959 0.0872777 0.232736
26 11.7344 0 0 0.00140274 0 0.895521
27 8.81167 0 0 0.904422 0 0
28 5.77884 0 0 0.605963 0 0
29 2.23249 0 0 0.298459 0 0
30 11.4725 0 0 0.928615 0.249885 -0.619434
31 0.615812 0.994372 -0.809165 -2.35227 0.0187305 0.46255
32 2.24752 0 0 -0.0459563 0.244746 0.234216
33 1.11936 0 0 -0.0408308 0.257423 0.212558
34 3.71349 0.10264 0.102191 -1.7258 1.11243 -0.263964
35 1.72615 0 0 0.00219625 0.00206193 0.928466
36 1.21112 0 0 -0.00470668 0.0169966 0.327294
37 3.5992 1.06012 0.0708883 -1.81456 1.00851 -0.246313
38 1.66069 0 0 0.00707744 0.0114628 0.775068
39 1.16699 0 0 -0.049373 -0.0470546 0.50394
40 2.18853 -0.50104 0.0576589 -1.57004 0.000184603 -0.212779
41 1.29609 0 0 -0.0358609 -0.0301294 1.06108
42 1.62202 -0.000711441 -0.000470161 -0.00103434 -0.00157683 1.01338
43 1.22241 0 0 0.0173376 0.0316405 0.340004
44 1.76707 -1.27612 0.0366403 -1.57138 0.117892 -0.216239
45 1.55587 0 0 0.00173185 -0.107165 1.01098
46 1.24273 0 0 0.000590269 -0.000104649 0.855255
47 0.784532 0 0 -0.00592627 0.000839984 1.11775
48 0 0 0 0 0 0
49 4.949 -19.3958 -5.21066 -0.0515386 -0.0253665 -0.00525767
50 0 -1.51208 1.07027 0 0 0
51 0.540026 -0.371634 1.70233 0 0 0
52 0 -4.95107 2.17037 0 0 0
53 0 -2.31355 1.98216 0 0 0
54 4.9748 -18.6703 -6.07729 -0.0515386 -0.0253665 -0.00525767
55 0 -0.773384 1.98891 0 0 0
56 0 -0.815777 2.6618 0 0 0
time 19
0 7.58967 10.8278 -3.60973 0.000934124 0 -1.06437
1 6.02794 0 0 -1.03293 0.412313 -0.56245
2 11.7344 0 0 -0.00140279 0 -0.772428
3 8.81139 -0.000450134 -0.00011158 0.106564 0 0.0001579
4 5.77839 0.000285149 0 0.0713976 0 0.000106271
5 2.23163 -0.000329018 -0.000363827 0.0351659 0 0
6 11.4725 0 0 -0.200701 -0.506501 0.576009
7 0.615219 -0.993091 -0.8107 -3.01423 0.324565 -0.386014
8 2.24752 0 0 0.0800071 0.00264725 -0.146496
9 1.11936 0 0 0.0512106 0.0625159 -0.327822
10 3.71348 -0.102641 0.102191 1.38753 0.842929 0.0672854
11 1.72615 0 0 0.00945178 -0.00623853 -1.09905
12 1.21114 0 0 -0.0132693 0.0116176 -1.44917
13 3.59919 -1.06012 0.0708879 1.43601 0.244349 -0.065528
14 1.66069 0 0 -0.037484 0.0636747 -0.726307
15 1.167 0 0 -0.0270716 0.0140958 -0.693244
16 2.18853 0.50104 0.0576591 1.55548 0.166718 0.138312
17 1.29609 0 0 -0.185212 -0.0418434 -0.654895
18 1.62202 0.000713348 -0.000471115 0.0143687 -0.0178807 -1.11
19 1.22241 0 0 -0.00702543 0.00524266 -1.42423
20 1.76707 1.27612 0.0366412 1.27805 0.322855 0.136707
21 1.55588 0 0 -0.0225085 0.0235834 -0.467635
22 1.24273 0 0 -0.000596472 0 -0.783974
23 0.784523 0 0 0.00616285 -0.000615266 -0.941499
24 2.85835 9.28793 -4.43253 0.726982 0.410583 -1.99191
25 6.02794 0 0 0.0402207 0.0872804 0.233798
26 11.7344 0 0 0.0014028 0 0.893213
27 8.81167 0 0 0.90323 0 0
28 5.77884 0 0 0.605164 0 0
29 2.23249 0 0 0.298066 0 0
30 11.4725 0 0 0.92646 0.251783 -0.619094
31 0.615812 0.994372 -0.809165 -2.35227 0.0187307 0.46255
32 2.24752 0 0 -0.0459563 0.244746 0.234216
33 1.11936 0 0 -0.0408308 0.257423 0.212558
34 3.71349 0.102639 0.102191 -1.7258 1.11243 -0.263964
35 1.72615 0 0 0.00219629 0.00206191 0.928466
36 1.21112 0 0 -0.00470668 0.0169966 0.327294
37 3.5992 1.06012 0.0708883 -1.81456 1.00851 -0.246313
38 1.66069 0 0 0.00707739 0.0114629 0.775068
39 1.16699 0 0 -0.049373 -0.0470545 0.50394
40 2.18853 -0.50104 0.0576591 -1.57004 0.000184588 -0.21278
41 1.29609 0 0 -0.0358609 -0.0301294 1.06108
42 1.62202 -0.000713348 -0.000470161 -0.00103432 -0.00157679 1.01338
43 1.22241 0 0 0.0173377 0.0316405 0.340004
44 1.76707 -1.27612 0.0366405 -1.57138 0.117893 -0.216239
45 1.55587 0 0 0.00173185 -0.107165 1.01098
46 1.24273 0 0 0.000590304 -0.000104698 0.855255
47 0.784532 0 0 -0.00592617 0.000840041 1.11775
48 0 0 0 0 0 0
49 4.9567 -19.406 -5.22101 -0.0500246 -0.0233523 -0.00380913
50 0 -1.51208 1.07027 0 0 0
51 0.540026 -0.371635 1.70232 0 0 0
52 0 -4.95107 2.17037 0 0 0
53 0 -2.31356 1.98216 0 0 0
54 4.97969 -18.6791 -6.08659 -0.0500246 -0.0233523 -0.00380913
55 0 -0.773848 1.99021 0 0 0
56 0 -0.814642 2.65762 0 0 0
time 20
0 7.58967 10.8278 -3.60973 0.000934124 0 -1.06437
1 6.02794 0 0 -1.03305 0.41201 -0.562593
2 11.7344 0 0 -0.00140286 0 -0.771589
3 8.81139 -0.000449181 -0.00011158 0.10281 0 0.000157701
4 5.77839 0.000286102 0 0.0688823 0 0.000106151
5 2.23164 -0.000329018 -0.000364304 0.0339272 0 0
6 11.4725 0 0 -0.206036 -0.50586 0.579244
7 0.615218 -0.993092 -0.8107 -3.01423 0.324565 -0.386014
8 2.24752 0 0 0.0800072 0.00264707 -0.146496
9 1.11936 0 0 0.0512106 0.0625161 -0.327822
10 3.71348 -0.102641 0.102191 1.38754 0.842929 0.067286
11 1.72615 0 0 0.00945174 -0.00623858 -1.09905
12 1.21114 0 0 -0.0132693 0.0116176 -1.44917
13 3.59919 -1.06012 0.0708877 1.436 0.244349 -0.0655281
14 1.66069 0 0 -0.0374841 0.0636747 -0.726307
15 1.167 0 0 -0.0270716 0.0140958 -0.693244
16 2.18852 0.501039 0.0576588 1.55548 0.166718 0.138312
17 1.29609 0 0 -0.185212 -0.0418434 -0.654895
18 1.62202 0.000713348 -0.000470638 0.0143687 -0.0178807 -1.11
19 1.22241 0 0 -0.00702551 0.00524257 -1.42423
20 1.76707 1.27612 0.0366402 1.27805 0.322855 0.136707
21 1.55588 0 0 -0.0225085 0.0235833 -0.467635
22 1.24273 0 0 -0.000596431 0 -0.783974
23 0.784523 0 0 0.00616286 -0.000615253 -0.9415
24 2.85835 9.28793 -4.43253 0.726982 0.410583 -1.99191
25 6.02794 0 0 0.0405163 0.087094 0.234427
26 11.7344 0 0 0.00140268 0 0.892256
27 8.81167 0 0 0.899292 0 0
28 5.77884 0 0 0.602526 0 0
29 2.23249 0 0 0.296766 0 0
30 11.4725 0 0 0.921725 0.253861 -0.621052
31 0.615814 0.994372 -0.809165 -2.35227 0.0187304 0.46255
32 2.24752 0 0 -0.0459563 0.244746 0.234216
33 1.11936 0 0 -0.0408308 0.257423 0.212558
34 3.71349 0.10264 0.102191 -1.7258 1.11243 -0.263964
35 1.72615 0 0 0.00219621 0.002062 0.928466
36 1.21112 0 0 -0.00470674 0.0169966 0.327294
37 3.5992 1.06012 0.0708882 -1.81456 1.00851 -0.246314
38 1.66069 0 0 0.00707751 0.0114628 0.775068
39 1.16699 0 0 -0.0493731 -0.0470546 0.50394
40 2.18853 -0.50104 0.0576588 -1.57004 0.000184484 -0.21278
41 1.29609 0 0 -0.0358609 -0.0301293 1.06108
42 1.62202 -0.000711441 -0.000471115 -0.00103433 -0.00157672 1.01338
43 1.22241 0 0 0.0173376 0.0316405 0.340004
44 1.76707 -1.27612 0.0366405 -1.57138 0.117892 -0.216239
45 1.55588 0 0 0.00173178 -0.107165 1.01098
46 1.24273 0 0 0.000590361 -0.000104626 0.855255
47 0.784531 0 0 -0.00592631 0.000839981 1.11775
48 0 0 0 0 0 0
49 4.96322 -19.4105 -5.22949 -0.0480331 -0.0190393 -0.00266315
50 0 -1.51208 1.07027 0 0 0
51 0.540026 -0.371637 1.70233 0 0 0
52 0 -4.95108 2.17037 0 0 0
53 0 -2.31356 1.98216 0 0 0
54 4.98162 -18.6818 -6.0937 -0.0480331 -0.0190393 -0.00266315
55 0 -0.77433 1.99158 0 0 0
56 0 -0.813456 2.65326 0 0 0
time 21
0 7.58967 10.8278 -3.60973 0.000934124 0 -1.06437
1 6.02794 0 0 -1.03309 0.412053 -0.5625
2 11.7344 0 0 -0.00140281 0 -0.771876
3 8.81138 -0.000449181 -0.00011158 0.0981272 0 0.000157793
4 5.77839 0.000286102 0 0.0657452 0 0.000106141
5 2.23163 -0.000329018 -0.00036478 0.0323821 0 0
6 11.4725 0 0 -0.212722 -0.504559 0.583831
7 0.615219 -0.993092 -0.8107 -3.01423 0.324565 -0.386014
8 2.24752 0 0 0.0800073 0.00264715 -0.146496
9 1.11936 0 0 0.0512104 0.0625159 -0.327821
10 3.71348 -0.102641 0.102192 1.38754 0.842929 0.0672858
11 1.72615 0 0 0.00945175 -0.00623857 -1.09905
12 1.21114 0 0 -0.0132693 0.0116177 -1.44917
13 3.59919 -1.06012 0.0708886 1.43601 0.24435 -0.065528
14 1.66069 0 0 -0.037484 0.0636747 -0.726308
15 1.167 0 0 -0.0270716 0.0140958 -0.693245
16 2.18852 0.50104 0.057659 1.55548 0.166719 0.138312
17 1.29609 0 0 -0.185212 -0.0418434 -0.654895
18 1.62202 0.000712395 -0.000471115 0.0143687 -0.0178808 -1.11
19 1.22241 0 0 -0.00702546 0.00524268 -1.42423
20 1.76707 1.27612 0.0366409 1.27805 0.322855 0.136708
21 1.55588 0 0 -0.0225086 0.0235833 -0.467635
22 1.24273 0 0 -0.000596407 0 -0.783974
23 0.784522 0 0 0.00616287 -0.000615306 -0.9415
24 2.85835 9.28793 -4.43253 0.726982 0.410583 -1.99191
25 6.02794 0 0 0.0409746 0.086789 0.234663
26 11.7344 0 0 0.00140265 0 0.892457
27 8.81167 0 0 0.893797 0 0
28 5.77884 0 0 0.598844 0 0
29 2.23249 0 0 0.294953 0 0
30 11.4725 0 0 0.915576 0.256127 -0.624768
31 0.615812 0.994373 -0.809165 -2.35227 0.0187306 0.46255
32 2.24752 0 0 -0.0459561 0.244746 0.234216
33 1.11936 0 0 -0.0408307 0.257423 0.212558
34 3.71349 0.102639 0.102191 -1.7258 1.11243 -0.263964
35 1.72615 0 0 0.00219625 0.00206189 0.928465
36 1.21112 0 0 -0.00470664 0.0169967 0.327294
37 3.5992 1.06012 0.0708883 -1.81456 1.00851 -0.246313
38 1.66069 0 0 0.00707748 0.0114628 0.775068
39 1.16699 0 0 -0.0493731 -0.0470546 0.50394
40 2.18853 -0.50104 0.057659 -1.57004 0.000184551 -0.21278
41 1.29609 0 0 -0.0358608 -0.0301293 1.06108
42 1.62202 -0.000711441 -0.000470638 -0.0010344 -0.00157672 1.01338
43 1.22241 0 0 0.0173377 0.0316406 0.340004
44 1.76707 -1.27612 0.0366406 -1.57138 0.117893 -0.216239
45 1.55588 0 0 0.00173191 -0.107165 1.01098
46 1.24273 0 0 0.000590231 -0.000104624 0.855255
47 0.784532 0 0 -0.0059262 0.000840049 1.11775
48 0 0 0 0 0 0
49 4.96871 -19.4101 -5.23636 -0.045551 -0.0134875 -0.00176448
50 0 -1.51208 1.07027 0 0 0
51 0.540027 -0.371634 1.70232 0 0 0
52 0 -4.95107 2.17037 0 0 0
53 0 -2.31355 1.98216 0 0 0
54 4.98163 -18.6793 -6.09884 -0.045551 -0.0134875 -0.00176448
55 0 -0.77483 1.993 0 0 0
56 0 -0.81222 2.64872 0 0 0
time 22
0 7.58967 10.8278 -3.60973 0.000934124 0 -1.06437
1 6.02794 0 0 -1.03308 0.412365 -0.562208
2 11.7344 0 0 -0.00140269 0 -0.773121
3 8.81138 -0.000450134 -0.00011158 0.0935638 0 0.000158204
4 5.77839 0.000286102 0 0.0626878 0 0.00010655
5 2.23163 -0.000329018 -0.000364304 0.030876 0 0
6 11.4725 0 0 -0.219594 -0.502757 0.589414
7 0.615219 -0.993091 -0.8107 -3.01423 0.324565 -0.386014
8 2.24752 0 0 0.0800073 0.00264717 -0.146496
9 1.11936 0 0 0.0512106 0.062516 -0.327822
10 3.71348 -0.102641 0.10219 1.38754 0.842929 0.067286
11 1.72615 0 0 0.00945174 -0.00623858 -1.09905
12 1.21114 0 0 -0.0132693 0.0116177 -1.44917
13 3.59919 -1.06012 0.0708882 1.43601 0.244349 -0.0655281
14 1.66069 0 0 -0.037484 0.0636747 -0.726307
15 1.167 0 0 -0.0270716 0.0140958 -0.693244
16 2.18853 0.501039 0.0576583 1.55548 0.166719 0.138312
17 1.29609 0 0 -0.185212 -0.0418433 -0.654895
18 1.62202 0.000714302 -0.000470638 0.0143688 -0.0178808 -1.11
19 1.22241 0 0 -0.00702549 0.00524257 -1.42423
20 1.76707 1.27612 0.0366412 1.27805 0.322855 0.136707
21 1.55588 0 0 -0.0225085 0.0235834 -0.467635
22 1.24273 0 0 -0.000596457 0 -0.783974
23 0.784523 0 0 0.00616285 -0.0006153 -0.941499
24 2.85835 9.28793 -4.43253 0.726982 0.410583 -1.99191
25 6.02794 0 0 0.0414921 0.086438 0.23455
26 11.7344 0 0 0.0014026 0 0.893622
27 8.81167 0 0 0.887921 0 0
28 5.77884 0 0 0.594907 0 0
29 2.23249 0 0 0.293014 0 0
30 11.4725 0 0 0.90918 0.258601 -0.629703
31 0.615812 0.994372 -0.809165 -2.35227 0.0187306 0.46255
32 2.24752 0 0 -0.0459562 0.244746 0.234216
33 1.11936 0 0 -0.0408308 0.257423 0.212558
34 3.71349 0.102639 0.102191 -1.7258 1.11243 -0.263964
35 1.72615 0 0 0.00219623 0.00206194 0.928465
36 1.21112 0 0 -0.0047067 0.0169966 0.327294
37 3.5992 1.06012 0.0708882 -1.81456 1.00851 -0.246313
38 1.66069 0 0 0.00707748 0.0114628 0.775068
39 1.16699 0 0 -0.0493731 -0.0470545 0.50394
40 2.18853 -0.50104 0.0576596 -1.57004 0.000184417 -0.21278
41 1.29609 0 0 -0.0358608 -0.0301294 1.06108
42 1.62202 -0.000715256 -0.000469208 -0.00103437 -0.00157677 1.01338
43 1.22241 0 0 0.0173377 0.0316406 0.340004
44 1.76707 -1.27612 0.036641 -1.57138 0.117893 -0.21624
45 1.55587 0 0 0.00173178 -0.107165 1.01098
46 1.24273 0 0 0.000590352 -0.000104683 0.855255
47 0.784532 0 0 -0.00592604 0.000840074 1.11775
48 0 0 0 0 0 0
49 4.97334 -19.4057 -5.24191 -0.0425653 -0.00775704 -0.00105789
50 0 -1.51208 1.07027 0 0 0
51 0.540027 -0.371635 1.70233 0 0 0
52 0 -4.95108 2.17037 0 0 0
53 0 -2.31356 1.98216 0 0 0
54 4.98079 -18.6722 -6.10225 -0.0425653 -0.00775704 -0.00105789
55 0 -0.775352 1.99447 0 0 0
56 0 -0.810936 2.64401 0 0 0
time 23
0 7.58967 10.8278 -3.60973 0.000934124 0 -1.06437
1 6.02794 0 0 -1.03305 0.412866 -0.561759
2 11.7344 0 0 -0.00140285 0 -0.775143
3 8.81138 -0.000450134 -0.000112534 0.0901668 0 0.000158124
4 5.77839 0.000286102 0 0.0604116 0 0.000106446
5 2.23163 -0.000329971 -0.000364304 0.029755 0 0
6 11.4725 0 0 -0.225491 -0.500632 0.595644
7 0.615219 -0.993091 -0.810701 -3.01423 0.324565 -0.386014
8 2.24752 0 0 0.0800072 0.00264732 -0.146496
9 1.11936 0 0 0.0512107 0.062516 -0.327822
10 3.71348 -0.102641 0.102191 1.38754 0.842929 0.0672858
11 1.72615 0 0 0.00945179 -0.00623859 -1.09905
12 1.21114 0 0 -0.0132692 0.0116177 -1.44917
13 3.59919 -1.06012 0.0708879 1.43601 0.244349 -0.065528
14 1.66069 0 0 -0.0374841 0.0636747 -0.726308
15 1.167 0 0 -0.0270716 0.0140959 -0.693244
16 2.18852 0.50104 0.0576593 1.55548 0.166719 0.138312
17 1.29609 0 0 -0.185212 -0.0418434 -0.654895
18 1.62202 0.000714302 -0.000471115 0.0143688 -0.0178807 -1.11
19 1.22241 0 0 -0.00702543 0.00524264 -1.42423
20 1.76707 1.27612 0.0366406 1.27805 0.322855 0.136707
21 1.55588 0 0 -0.0225086 0.0235834 -0.467635
22 1.24273 0 0 -0.000596392 0 -0.783974
23 0.784523 0 0 0.00616286 -0.000615266 -0.9415
24 2.85835 9.28793 -4.43253 0.726982 0.410583 -1.99191
25 6.02794 0 0 0.0419659 0.0861117 0.234121
26 11.7344 0 0 0.00140286 0 0.895562
27 8.81167 0 0 0.882827 0 0
28 5.77884 0 0 0.591494 0 0
29 2.23249 0 0 0.291333 0 0
30 11.4725 0 0 0.903702 0.26132 -0.635307
31 0.615812 0.994372 -0.809166 -2.35227 0.0187306 0.46255
32 2.24752 0 0 -0.0459564 0.244746 0.234216
33 1.11936 0 0 -0.0408309 0.257423 0.212558
34 3.71349 0.10264 0.102191 -1.7258 1.11243 -0.263964
35 1.72615 0 0 0.00219622 0.00206199 0.928466
36 1.21112 0 0 -0.00470666 0.0169966 0.327294
37 3.5992 1.06012 0.070888 -1.81456 1.00851 -0.246314
38 1.66069 0 0 0.00707742 0.0114628 0.775068
39 1.16699 0 0 -0.0493731 -0.0470546 0.50394
40 2.18853 -0.501041 0.0576589 -1.57004 0.00018438 -0.21278
41 1.29609 0 0 -0.0358609 -0.0301293 1.06108
42 1.62202 -0.000715256 -0.000470161 -0.00103436 -0.00157668 1.01338
43 1.22241 0 0 0.0173376 0.0316405 0.340004
44 1.76707 -1.27612 0.0366404 -1.57138 0.117892 -0.216239
45 1.55588 0 0 0.00173181 -0.107165 1.01098
46 1.24273 0 0 0.00059025 -0.000104673 0.855255
47 0.784533 0 0 -0.00592616 0.000840002 1.11775
48 0 0 0 0 0 0
49 4.9773 -19.3979 -5.24641 -0.0390628 -0.00290786 -0.000488146
50 0 -1.51208 1.07027 0 0 0
51 0.540026 -0.371634 1.70232 0 0 0
52 0 -4.95108 2.17037 0 0 0
53 0 -2.31355 1.98216 0 0 0
54 4.98015 -18.6614 -6.1042 -0.0390628 -0.00290786 -0.000488146
55 0 -0.775892 1.996 0 0 0
56 0 -0.809608 2.63913 0 0 0
time 24
0 7.58967 10.8278 -3.60973 0.000934124 0 -1.06437
1 6.02794 0 0 -1.03302 0.413476 -0.561196
2 11.7344 0 0 -0.00140292 0 -0.777763
3 8.81138 -0.000450134 -0.00011301 0.0889818 0 0.000157841
4 5.77839 0.000287056 0 0.0596179 0 0.000106053
5 2.23163 -0.000329018 -0.000363827 0.0293641 0 0
6 11.4725 0 0 -0.229265 -0.498383 0.602193
7 0.615217 -0.993091 -0.8107 -3.01423 0.324565 -0.386014
8 2.24752 0 0 0.0800072 0.00264714 -0.146496
9 1.11936 0 0 0.0512105 0.062516 -0.327822
10 3.71348 -0.102641 0.102191 1.38754 0.842929 0.067286
11 1.72615 0 0 0.00945175 -0.00623857 -1.09905
12 1.21114 0 0 -0.0132693 0.0116176 -1.44917
13 3.59919 -1.06012 0.0708877 1.43601 0.244349 -0.0655281
14 1.66069 0 0 -0.037484 0.0636747 -0.726307
15 1.167 0 0 -0.0270716 0.0140958 -0.693245
16 2.18852 0.50104 0.0576593 1.55548 0.166719 0.138312
17 1.29609 0 0 -0.185212 -0.0418434 -0.654895
18 1.62202 0.000712395 -0.000471115 0.0143688 -0.0178808 -1.11
19 1.22241 0 0 -0.00702542 0.00524258 -1.42423
20 1.76707 1.27612 0.0366408 1.27805 0.322855 0.136707
21 1.55588 0 0 -0.0225085 0.0235834 -0.467635
22 1.24273 0 0 -0.000596412 0 -0.783974
23 0.784524 0 0 0.00616284 -0.000615279 -0.9415
24 2.85835 9.28793 -4.43253 0.726982 0.410583 -1.99191
25 6.02794 0 0 0.0422808 0.0858862 0.233232
26 11.7344 0 0 0.00140265 0 0.898447
27 8.81167 0 0 0.87964 0 0
28 5.77884 0 0 0.589359 0 0
29 2.23249 0 0 0.290281 0 0
30 11.4725 0 0 0.90031 0.264346 -0.641199
31 0.615812 0.994372 -0.809165 -2.35227 0.0187304 0.46255
32 2.24752 0 0 -0.0459563 0.244746 0.234216
33 1.11936 0 0 -0.0408306 0.257423 0.212558
34 3.71349 0.102639 0.102191 -1.7258 1.11243 -0.263964
35 1.72615 0 0 0.00219625 0.00206193 0.928466
36 1.21112 0 0 -0.0047066 0.0169966 0.327294
37 3.5992 1.06012 0.0708885 -1.81456 1.00851 -0.246313
38 1.66069 0 0 0.00707751 0.0114628 0.775068
39 1.16699 0 0 -0.0493731 -0.0470545 0.50394
40 2.18853 -0.501041 0.0576591 -1.57004 0.00018429 -0.21278
41 1.29609 0 0 -0.0358609 -0.0301294 1.06108
42 1.62202 -0.000715256 -0.000469208 -0.00103432 -0.0015768 1.01338
43 1.22241 0 0 0.0173377 0.0316406 0.340004
44 1.76707 -1.27612 0.0366406 -1.57138 0.117892 -0.216239
45 1.55588 0 0 0.00173181 -0.107165 1.01098
46 1.24273 0 0 0.000590243 -0.00010467 0.855255
47 0.784532 0 0 -0.00592615 0.000840014 1.11775
48 0 0 0 0 0 0
49 4.98073 -19.3876 -5.25013 -0.0350307 0 0
50 0 -1.51208 1.07027 0 0 0
51 0.540026 -0.371635 1.70232 0 0 0
52 0 -4.95108 2.17037 0 0 0
53 0 -2.31355 1.98216 0 0 0
54 4.98073 -18.6477 -6.10495 -0.0350307 0 0
55 0 -0.776451 1.99757 0 0 0
56 0 -0.808239 2.63408 0 0 0
time 25
0 7.58967 10.8278 -3.60973 0.000934124 0 -1.06437
1 6.02794 0 0 -1.03295 0.414362 -0.560416
2 11.7344 0 0 -0.00140293 0 -0.781225
3 8.81139 -0.000450134 -0.00011158 0.0898243 0 0.000157777
4 5.77839 0.000286102 0 0.0601822 0 0.000106272
5 2.23163 -0.000329971 -0.00036335 0.029642 0 0
6 11.4725 0 0 -0.231004 -0.496089 0.608853
7 0.615219 -0.993091 -0.8107 -3.01423 0.324565 -0.386014
8 2.24752 0 0 0.0800073 0.00264714 -0.146496
9 1.11936 0 0 0.0512105 0.0625159 -0.327822
10 3.71348 -0.102641 0.102191 1.38754 0.842929 0.067286
11 1.72615 0 0 0.00945181 -0.00623861 -1.09905
12 1.21114 0 0 -0.0132693 0.0116177 -1.44917
13 3.59919 -1.06012 0.0708882 1.43601 0.24435 -0.0655281
14 1.66069 0 0 -0.037484 0.0636747 -0.726308
15 1.167 0 0 -0.0270716 0.0140958 -0.693244
16 2.18852 0.50104 0.0576593 1.55548 0.166718 0.138312
17 1.29609 0 0 -0.185212 -0.0418434 -0.654895
18 1.62202 0.000713348 -0.000471592 0.0143688 -0.0178808 -1.11
19 1.22241 0 0 -0.00702549 0.00524261 -1.42423
20 1.76707 1.27612 0.0366411 1.27805 0.322855 0.136708
21 1.55588 0 0 -0.0225085 0.0235833 -0.467635
22 1.24274 0 0 -0.000596439 0 -0.783974
23 0.784524 0 0 0.00616284 -0.000615253 -0.9415
24 2.85835 9.28793 -4.43253 0.726982 0.410583 -1.99191
25 6.02794 0 0 0.0424585 0.0857551 0.232474
26 11.7344 0 0 0.00140272 0 0.901023
27 8.81167 0 0 0.878339 0 0
28 5.77884 0 0 0.588487 0 0
29 2.23249 0 0 0.289852 0 0
30 11.4725 0 0 0.898904 0.267421 -0.646578
31 0.615814 0.994373 -0.809165 -2.35227 0.0187305 0.46255
32 2.24752 0 0 -0.0459564 0.244746 0.234216
33 1.11936 0 0 -0.0408308 0.257423 0.212558
34 3.71349 0.10264 0.102191 -1.7258 1.11243 -0.263964
35 1.72615 0 0 0.00219628 0.00206195 0.928466
36 1.21112 0 0 -0.0047067 0.0169967 0.327294
37 3.5992 1.06012 0.0708879 -1.81456 1.00851 -0.246313
38 1.66069 0 0 0.00707745 0.0114629 0.775068
39 1.16699 0 0 -0.0493731 -0.0470546 0.50394
40 2.18853 -0.501041 0.0576591 -1.57004 0.000184566 -0.21278
41 1.29609 0 0 -0.0358609 -0.0301294 1.06108
42 1.62202 -0.000713348 -0.000470161 -0.00103436 -0.00157673 1.01338
43 1.22241 0 0 0.0173377 0.0316405 0.340004
44 1.76707 -1.27612 0.036641 -1.57138 0.117892 -0.216239
45 1.55587 0 0 0.00173166 -0.107165 1.01098
46 1.24273 0 0 0.000590333 -0.000104752 0.855255
47 0.784532 0 0 -0.00592616 0.000840058 1.11775
48 0 0 0 0 0 0
49 4.98382 -19.3757 -5.25336 -0.0307498 0.00109991 0.000323443
50 0 -1.51208 1.07027 0 0 0
51 0.540026 -0.371635 1.70233 0 0 0
52 0 -4.95108 2.17037 0 0 0
53 0 -2.31355 1.98216 0 0 0
54 4.98264 -18.6321 -6.105 -0.0307498 0.00109991 0.000323443
55 0 -0.777025 1.9992 0 0 0
56 0 -0.80682 2.62888 0 0 0
time 26
0 7.58967 10.8278 -3.60973 0.000934124 0 -1.06437
1 6.02794 0 0 -1.03296 0.415071 -0.559709
2 11.7344 0 0 -0.00140286 0 -0.784376
3 8.81139 -0.000449181 -0.00011158 0.0912512 0 0.000157782
4 5.77839 0.000286102 0 0.0611382 0 0.00010607
5 2.23164 -0.000329971 -0.00036335 0.0301128 0 0
6 11.4725 0 0 -0.231778 -0.493583 0.61517
7 0.615221 -0.993091 -0.8107 -3.01423 0.324565 -0.386014
8 2.24752 0 0 0.0800073 0.00264711 -0.146496
9 1.11936 0 0 0.0512105 0.0625159 -0.327821
10 3.71348 -0.102641 0.102191 1.38754 0.842929 0.0672857
11 1.72615 0 0 0.00945179 -0.00623854 -1.09905
12 1.21114 0 0 -0.0132693 0.0116177 -1.44917
13 3.59919 -1.06012 0.0708889 1.43601 0.244349 -0.065528
14 1.66069 0 0 -0.037484 0.0636747 -0.726307
15 1.167 0 0 -0.0270716 0.0140958 -0.693244
16 2.18852 0.50104 0.0576588 1.55548 0.166718 0.138312
17 1.29609 0 0 -0.185212 -0.0418434 -0.654895
18 1.62202 0.000713348 -0.000471115 0.0143687 -0.0178807 -1.11
19 1.22241 0 0 -0.00702547 0.00524259 -1.42423
20 1.76707 1.27612 0.0366411 1.27804 0.322855 0.136707
21 1.55588 0 0 -0.0225085 0.0235834 -0.467635
22 1.24274 0 0 -0.000596407 0 -0.783974
23 0.784523 0 0 0.00616284 -0.00061532 -0.9415
24 2.85835 9.28793 -4.43253 0.726982 0.410583 -1.99191
25 6.02794 0 0 0.0425363 0.085687 0.231427
26 11.7344 0 0 0.00140267 0 0.904215
27 8.81167 0 0 0.877719 0 0
28 5.77884 0 0 0.588071 0 0
29 2.23249 0 0 0.289647 0 0
30 11.4725 0 0 0.89839 0.270433 -0.652283
31 0.615812 0.994373 -0.809165 -2.35227 0.0187307 0.46255
32 2.24752 0 0 -0.0459564 0.244746 0.234216
33 1.11936 0 0 -0.0408307 0.257423 0.212558
34 3.71349 0.10264 0.102191 -1.7258 1.11243 -0.263964
35 1.72615 0 0 0.00219618 0.00206201 0.928466
36 1.21112 0 0 -0.00470662 0.0169966 0.327294
37 3.5992 1.06012 0.0708885 -1.81456 1.00851 -0.246314
38 1.66069 0 0 0.00707741 0.0114628 0.775068
39 1.16699 0 0 -0.0493731 -0.0470546 0.50394
40 2.18853 -0.50104 0.057659 -1.57004 0.000184491 -0.21278
41 1.29609 0 0 -0.0358609 -0.0301294 1.06108
42 1.62202 -0.000711441 -0.000469208 -0.00103447 -0.00157673 1.01338
43 1.22241 0 0 0.0173377 0.0316405 0.340004
44 1.76707 -1.27612 0.0366404 -1.57138 0.117893 -0.216239
45 1.55588 0 0 0.00173176 -0.107165 1.01098
46 1.24273 0 0 0.0005903 -0.000104671 0.855255
47 0.784531 0 0 -0.00592625 0.000840013 1.11775
48 0 0 0 0 0 0
49 4.98673 -19.3628 -5.25637 -0.0262888 0.00140788 0.000414007
50 0 -1.51208 1.07027 0 0 0
51 0.540026 -0.371634 1.70232 0 0 0
52 0 -4.95107 2.17037 0 0 0
53 0 -2.31356 1.98216 0 0 0
54 4.98523 -18.6155 -6.10468 -0.0262888 0.00140788 0.000414007
55 0 -0.777618 2.00088 0 0 0
56 0 -0.805363 2.62352 0 0 0
time 27
0 7.58967 10.8278 -3.60973 0.000934124 0 -1.06437
1 6.02794 0 0 -1.03304 0.415713 -0.558981
2 11.7344 0 0 -0.00140281 0 -0.787588
3 8.81139 -0.000450134 -0.000110626 0.0932032 0 0.000157677
4 5.77839 0.000286102 0 0.0624462 0 0.000106289
5 2.23164 -0.000329971 -0.00036335 0.0307571 0 0
6 11.4725 0 0 -0.231922 -0.490703 0.621791
7 0.615217 -0.993091 -0.8107 -3.01423 0.324565 -0.386014
8 2.24752 0 0 0.0800072 0.0026472 -0.146496
9 1.11936 0 0 0.0512106 0.0625158 -0.327821
10 3.71348 -0.102641 0.102191 1.38754 0.842929 0.0672859
11 1.72615 0 0 0.00945178 -0.00623855 -1.09905
12 1.21114 0 0 -0.0132693 0.0116177 -1.44917
13 3.59919 -1.06012 0.0708883 1.43601 0.244349 -0.0655281
14 1.66068 0 0 -0.037484 0.0636747 -0.726307
15 1.167 0 0 -0.0270716 0.0140958 -0.693244
16 2.18852 0.50104 0.0576587 1.55548 0.166718 0.138312
17 1.29609 0 0 -0.185212 -0.0418434 -0.654895
18 1.62202 0.000714302 -0.000471115 0.0143688 -0.0178808 -1.11
19 1.22241 0 0 -0.00702548 0.00524254 -1.42423
20 1.76707 1.27612 0.0366416 1.27805 0.322855 0.136707
21 1.55587 0 0 -0.0225086 0.0235834 -0.467635
22 1.24274 0 0 -0.000596396 0 -0.783974
23 0.784524 0 0 0.00616285 -0.000615273 -0.941499
24 2.85835 9.28793 -4.43253 0.726982 0.410583 -1.99191
25 6.02794 0 0 0.0425888 0.0856375 0.230361
26 11.7344 0 0 0.00140272 0 0.907538
27 8.81167 0 0 0.87758 0 0
28 5.77884 0 0 0.587978 0 0
29 2.23249 0 0 0.289601 0 0
30 11.4725 0 0 0.89844 0.273678 -0.65841
31 0.615812 0.994372 -0.809165 -2.35227 0.0187306 0.46255
32 2.24752 0 0 -0.0459564 0.244746 0.234216
33 1.11936 0 0 -0.0408308 0.257423 0.212558
34 3.71348 0.102639 0.10219 -1.7258 1.11243 -0.263964
35 1.72615 0 0 0.00219621 0.00206199 0.928466
36 1.21112 0 0 -0.00470664 0.0169966 0.327294
37 3.5992 1.06012 0.070888 -1.81456 1.00851 -0.246313
38 1.66069 0 0 0.00707749 0.0114629 0.775068
39 1.16699 0 0 -0.0493731 -0.0470546 0.50394
40 2.18853 -0.501041 0.0576591 -1.57004 0.000184499 -0.21278
41 1.29609 0 0 -0.0358609 -0.0301294 1.06108
42 1.62202 -0.000713348 -0.000469685 -0.00103434 -0.00157682 1.01338
43 1.22241 0 0 0.0173376 0.0316405 0.340004
44 1.76707 -1.27612 0.0366405 -1.57138 0.117893 -0.21624
45 1.55588 0 0 0.00173175 -0.107165 1.01098
46 1.24273 0 0 0.00059021 -0.000104634 0.855255
47 0.784531 0 0 -0.00592619 0.000839948 1.11775
48 0 0 0 0 0 0
49 4.98964 -19.3499 -5.25943 -0.0213153 0.0011879 0.000349319
50 0 -1.51208 1.07027 0 0 0
51 0.540026 -0.371634 1.70233 0 0 0
52 0 -4.95108 2.17037 0 0 0
53 0 -2.31355 1.98216 0 0 0
54 4.98837 -18.5983 -6.10401 -0.0213153 0.0011879 0.000349319
55 0 -0.778231 2.0026 0 0 0
56 0 -0.803862 2.618 0 0 0
time 28
0 7.58967 10.8278 -3.60973 0.000934124 0 -1.06437
1 6.02794 0 0 -1.03324 0.416171 -0.55829
2 11.7344 0 0 -0.00140287 0 -0.790695
3 8.81139 -0.000450134 -0.00011158 0.0954538 0 0.000157986
4 5.77839 0.000285149 0 0.063954 0 0.000106102
5 2.23163 -0.000329018 -0.000363827 0.0314998 0 0
6 11.4725 0 0 -0.231766 -0.487287 0.629089
7 0.615219 -0.993091 -0.8107 -3.01423 0.324565 -0.386014
8 2.24752 0 0 0.0800072 0.00264719 -0.146496
9 1.11936 0 0 0.0512106 0.0625159 -0.327822
10 3.71348 -0.102641 0.102192 1.38754 0.842929 0.0672858
11 1.72615 0 0 0.00945168 -0.00623859 -1.09905
12 1.21114 0 0 -0.0132693 0.0116177 -1.44917
13 3.59919 -1.06012 0.0708883 1.43601 0.244349 -0.0655282
14 1.66068 0 0 -0.037484 0.0636747 -0.726307
15 1.167 0 0 -0.0270716 0.0140958 -0.693245
16 2.18852 0.50104 0.0576589 1.55548 0.166718 0.138312
17 1.29609 0 0 -0.185212 -0.0418433 -0.654895
18 1.62202 0.000714302 -0.000471115 0.0143687 -0.0178807 -1.11
19 1.22241 0 0 -0.00702547 0.00524259 -1.42423
20 1.76707 1.27612 0.0366409 1.27805 0.322855 0.136707
21 1.55588 0 0 -0.0225085 0.0235834 -0.467635
22 1.24273 0 0 -0.000596432 0 -0.783974
23 0.784524 0 0 0.0061628 -0.000615313 -0.9415
24 2.85835 9.28793 -4.43253 0.726982 0.410583 -1.99191
25 6.02794 0 0 0.0426692 0.0855682 0.229376
26 11.7344 0 0 0.00140261 0 0.910856
27 8.81167 0 0 0.877683 0 0
28 5.77884 0 0 0.588048 0 0
29 2.23249 0 0 0.289636 0 0
30 11.4725 0 0 0.898726 0.277449 -0.665232
31 0.615812 0.994372 -0.809165 -2.35227 0.0187304 0.46255
32 2.24752 0 0 -0.0459563 0.244746 0.234216
33 1.11936 0 0 -0.0408307 0.257423 0.212558
34 3.71349 0.10264 0.102191 -1.7258 1.11243 -0.263964
35 1.72615 0 0 0.00219618 0.00206199 0.928466
36 1.21112 0 0 -0.00470658 0.0169965 0.327294
37 3.5992 1.06012 0.0708884 -1.81456 1.00851 -0.246314
38 1.66069 0 0 0.00707751 0.0114628 0.775068
39 1.16699 0 0 -0.0493731 -0.0470546 0.50394
40 2.18853 -0.50104 0.0576594 -1.57004 0.000184484 -0.21278
41 1.29609 0 0 -0.0358609 -0.0301295 1.06108
42 1.62202 -0.000711441 -0.000469685 -0.00103442 -0.0015768 1.01338
43 1.22241 0 0 0.0173377 0.0316406 0.340004
44 1.76707 -1.27612 0.0366405 -1.57138 0.117893 -0.216239
45 1.55588 0 0 0.00173166 -0.107165 1.01098
46 1.24273 0 0 0.000590204 -0.00010464 0.855255
47 0.784532 0 0 -0.00592605 0.000839995 1.11775
48 0 0 0 0 0 0
49 4.9927 -19.3376 -5.26282 -0.0154975 0.000703941 0.000207004
50 0 -1.51208 1.07027 0 0 0
51 0.540027 -0.371634 1.70233 0 0 0
52 0 -4.95108 2.17037 0 0 0
53 0 -2.31356 1.98216 0 0 0
54 4.99196 -18.5811 -6.10302 -0.0154975 0.000703941 0.000207004
55 0 -0.778854 2.00437 0 0 0
56 0 -0.802324 2.61234 0 0 0
time 29
0 7.58967 10.8278 -3.60973 0.000934124 0 -1.06437
1 6.02794 0 0 -1.0336 0.416323 -0.557692
2 11.7344 0 0 -0.0014029 0 -0.793519
3 8.81139 -0.000450134 -0.00011158 0.097771 0 0.000157714
4 5.77839 0.000286102 0 0.0655065 0 0.000106232
5 2.23163 -0.000329971 -0.00036335 0.0322644 0 0
6 11.4725 0 0 -0.231631 -0.483168 0.637422
7 0.615219 -0.993091 -0.8107 -3.01423 0.324565 -0.386014
8 2.24752 0 0 0.0800074 0.00264696 -0.146496
9 1.11936 0 0 0.0512106 0.062516 -0.327822
10 3.71348 -0.102641 0.102191 1.38754 0.842929 0.0672858
11 1.72615 0 0 0.00945165 -0.00623854 -1.09905
12 1.21114 0 0 -0.0132693 0.0116177 -1.44917
13 3.5992 -1.06012 0.0708879 1.43601 0.244349 -0.0655281
14 1.66069 0 0 -0.037484 0.0636747 -0.726307
15 1.167 0 0 -0.0270716 0.0140958 -0.693245
16 2.18853 0.50104 0.0576587 1.55548 0.166718 0.138312
17 1.29609 0 0 -0.185212 -0.0418433 -0.654895
18 1.62202 0.000714302 -0.000471592 0.0143687 -0.0178807 -1.11
19 1.22241 0 0 -0.00702546 0.00524265 -1.42423
20 1.76707 1.27612 0.036641 1.27805 0.322855 0.136707
21 1.55588 0 0 -0.0225085 0.0235834 -0.467635
22 1.24273 0 0 -0.000596387 0 -0.783974
23 0.784523 0 0 0.00616287 -0.000615252 -0.9415
24 2.85835 9.28793 -4.43253 0.726982 0.410583 -1.99191
25 6.02794 0 0 0.0428404 0.0854432 0.228574
26 11.7344 0 0 0.00140272 0 0.914029
27 8.81167 0 0 0.877781 0 0
28 5.77884 0 0 0.588113 0 0
29 2.23249 0 0 0.289668 0 0
30 11.4725 0 0 0.898907 0.282033 -0.673032
31 0.615812 0.994373 -0.809165 -2.35227 0.0187305 0.46255
32 2.24752 0 0 -0.0459564 0.244746 0.234216
33 1.11936 0 0 -0.0408307 0.257423 0.212558
34 3.71349 0.10264 0.102191 -1.7258 1.11243 -0.263964
35 1.72615 0 0 0.00219622 0.00206193 0.928466
36 1.21112 0 0 -0.00470665 0.0169966 0.327294
37 3.5992 1.06012 0.0708884 -1.81456 1.00851 -0.246313
38 1.66069 0 0 0.00707746 0.0114628 0.775068
39 1.16699 0 0 -0.0493731 -0.0470546 0.50394
40 2.18853 -0.50104 0.0576591 -1.57004 0.000184447 -0.21278
41 1.29609 0 0 -0.0358608 -0.0301294 1.06108
42 1.62202 -0.000711441 -0.000469685 -0.00103435 -0.00157681 1.01338
43 1.22241 0 0 0.0173376 0.0316405 0.340004
44 1.76707 -1.27612 0.0366403 -1.57138 0.117892 -0.216239
45 1.55588 0 0 0.00173176 -0.107165 1.01098
46 1.24273 0 0 0.000590213 -0.000104628 0.855255
47 0.784532 0 0 -0.00592619 0.00084001 1.11775
48 0 0 0 0 0 0
49 4.9961 -19.3269 -5.26682 -0.00850307 0.000219981 0
50 0 -1.51208 1.07027 0 0 0
51 0.540026 -0.371634 1.70232 0 0 0
52 0 -4.95107 2.17037 0 0 0
53 0 -2.31355 1.98216 0 0 0
54 4.99587 -18.5645 -6.1017 -0.00850307 0.000219981 0
55 0 -0.779499 2.00618 0 0 0
56 0 -0.800747 2.60654 0 0 0
time 30
0 7.58967 10.8278 -3.60973 0.000934124 0 -1.06437
1 6.02794 0 0 -1.03418 0.416041 -0.557246
2 11.7344 0 0 -0.00140287 0 -0.795875
3 8.81138 -0.000450134 -0.00011158 0.0999164 0 0.000157633
4 5.77839 0.000286102 0 0.0669441 0 0.000106055
5 2.23163 -0.000329971 -0.00036335 0.0329723 0 0
6 11.4725 0 0 -0.231827 -0.47817 0.647136
7 0.615221 -0.993091 -0.8107 -3.01423 0.324565 -0.386014
8 2.24752 0 0 0.0800073 0.0026472 -0.146496
9 1.11936 0 0 0.0512106 0.062516 -0.327822
10 3.71348 -0.102641 0.102191 1.38753 0.842929 0.0672854
11 1.72615 0 0 0.00945168 -0.00623857 -1.09905
12 1.21114 0 0 -0.0132694 0.0116176 -1.44917
13 3.59919 -1.06012 0.0708883 1.436 0.244349 -0.0655281
14 1.66069 0 0 -0.037484 0.0636747 -0.726307
15 1.167 0 0 -0.0270716 0.0140958 -0.693244
16 2.18853 0.50104 0.057659 1.55548 0.166718 0.138312
17 1.29609 0 0 -0.185212 -0.0418434 -0.654895
18 1.62202 0.000714302 -0.000470638 0.0143688 -0.0178807 -1.11
19 1.22241 0 0 -0.00702546 0.00524262 -1.42423
20 1.76707 1.27612 0.0366409 1.27805 0.322855 0.136707
21 1.55588 0 0 -0.0225086 0.0235834 -0.467635
22 1.24274 0 0 -0.000596449 0 -0.783974
23 0.784523 0 0 0.00616289 -0.000615218 -0.9415
24 2.85835 9.28793 -4.43253 0.726982 0.410583 -1.99191
25 6.02794 0 0 0.0431585 0.0852248 0.22806
26 11.7344 0 0 0.00140279 0 0.916911
27 8.81167 0 0 0.877625 0 0
28 5.77884 0 0 0.588008 0 0
29 2.23249 0 0 0.289616 0 0
30 11.4725 0 0 0.898635 0.287709 -0.682094
31 0.615814 0.994373 -0.809165 -2.35227 0.0187305 0.46255
32 2.24752 0 0 -0.0459563 0.244746 0.234216
33 1.11936 0 0 -0.0408307 0.257423 0.212558
34 3.71349 0.102639 0.10219 -1.7258 1.11243 -0.263964
35 1.72615 0 0 0.00219633 0.00206195 0.928466
36 1.21112 0 0 -0.00470668 0.0169966 0.327294
37 3.5992 1.06012 0.070888 -1.81456 1.00851 -0.246313
38 1.66069 0 0 0.00707743 0.0114629 0.775068
39 1.16699 0 0 -0.0493731 -0.0470546 0.50394
40 2.18853 -0.501041 0.057659 -1.57004 0.000184469 -0.21278
41 1.29609 0 0 -0.0358609 -0.0301293 1.06108
42 1.62202 -0.000715256 -0.000469685 -0.00103445 -0.0015768 1.01338
43 1.22241 0 0 0.0173377 0.0316406 0.340004
44 1.76707 -1.27612 0.0366406 -1.57138 0.117893 -0.216239
45 1.55587 0 0 0.00173175 -0.107165 1.01098
46 1.24273 0 0 0.000590247 -0.000104643 0.855255
47 0.784532 0 0 -0.00592611 0.00084008 1.11775
48 0 0 0 0 0 0
49 5 -19.3184 -5.2717 0 0 0
50 0 -1.51208 1.07027 0 0 0
51 0.540026 -0.371634 1.70232 0 0 0
52 0 -4.95107 2.17037 0 0 0
53 0 -2.31355 1.98216 0 0 0
54 5 -18.549 -6.10007 0 0 0
55 0 -0.780157 2.00804 0 0 0
56 0 -0.799131 2.6006 0 0 0
end
