//Sequence File generated by the Wall Worm SMD Exporter PRO 1.99
//www.wallworm.com
version 1
nodes
0 "b_l_clav" -1
1 "b_l_upperarm" 0
2 "b_l_forearm" 1
3 "b_l_twist3" 2
4 "b_l_twist2" 2
5 "b_l_twist1" 2
6 "b_l_hand" 2
7 "b_l_thumb001" 6
8 "b_l_thumb002" 7
9 "b_l_thumb003" 8
10 "b_l_middle001" 6
11 "b_l_middle002" 10
12 "b_l_middle003" 11
13 "b_l_index001" 6
14 "b_l_index002" 13
15 "b_l_index003" 14
16 "b_l_hand_ringsqueezer" 6
17 "b_l_ring001" 16
18 "b_l_ring002" 17
19 "b_l_ring003" 18
20 "b_l_hand_pinkysqueezer" 6
21 "b_l_pinky001" 20
22 "b_l_pinky002" 21
23 "b_l_pinky003" 22
24 "b_r_clav" -1
25 "b_r_upperarm" 24
26 "b_r_forearm" 25
27 "b_r_twist3" 26
28 "b_r_twist2" 26
29 "b_r_twist1" 26
30 "b_r_hand" 26
31 "b_r_thumb001" 30
32 "b_r_thumb002" 31
33 "b_r_thumb003" 32
34 "b_r_middle001" 30
35 "b_r_middle002" 34
36 "b_r_middle003" 35
37 "b_r_index001" 30
38 "b_r_index002" 37
39 "b_r_index003" 38
40 "b_r_hand_ringsqueezer" 30
41 "b_r_ring001" 40
42 "b_r_ring002" 41
43 "b_r_ring003" 42
44 "b_r_hand_pinkysqueezer" 30
45 "b_r_pinky001" 44
46 "b_r_pinky002" 45
47 "b_r_pinky003" 46
48 "b_zero" -1
49 "d_gun" -1
50 "d_trig" 49
51 "d_slidelock" 49
52 "d_slide" 49
53 "d_barrel" 49
54 "d_mag" -1
55 "d_magfollower" 54
56 "d_boolet" 54
end
skeleton
time 0
0 7.58967 10.8278 -3.60973 0.000934124 0 -1.06437
1 6.02794 0 0 -1.03418 0.416041 -0.557246
2 11.7344 0 0 -0.00140287 0 -0.795875
3 8.81138 -0.000450134 -0.00011158 0.0999164 0 0.000157633
4 5.77839 0.000286102 0 0.0669441 0 0.000106055
5 2.23163 -0.000329971 -0.00036335 0.0329723 0 0
6 11.4725 0 0 -0.231827 -0.47817 0.647136
7 0.615221 -0.993091 -0.8107 -3.01423 0.324565 -0.386014
8 2.24752 0 0 0.0800073 0.0026472 -0.146496
9 1.11936 0 0 0.0512106 0.062516 -0.327822
10 3.71348 -0.102641 0.102191 1.38753 0.842929 0.0672854
11 1.72615 0 0 0.00945168 -0.00623857 -1.09905
12 1.21114 0 0 -0.0132694 0.0116176 -1.44917
13 3.59919 -1.06012 0.0708883 1.436 0.244349 -0.0655281
14 1.66069 0 0 -0.037484 0.0636747 -0.726307
15 1.167 0 0 -0.0270716 0.0140958 -0.693244
16 2.18853 0.50104 0.057659 1.55548 0.166718 0.138312
17 1.29609 0 0 -0.185212 -0.0418434 -0.654895
18 1.62202 0.000714302 -0.000470638 0.0143688 -0.0178807 -1.11
19 1.22241 0 0 -0.00702546 0.00524262 -1.42423
20 1.76707 1.27612 0.0366409 1.27805 0.322855 0.136707
21 1.55588 0 0 -0.0225086 0.0235834 -0.467635
22 1.24274 0 0 -0.000596449 0 -0.783974
23 0.784523 0 0 0.00616289 -0.000615218 -0.9415
24 2.85835 9.28793 -4.43253 0.726982 0.410583 -1.99191
25 6.02794 0 0 0.0431585 0.0852248 0.22806
26 11.7344 0 0 0.00140279 0 0.916911
27 8.81167 0 0 0.877625 0 0
28 5.77884 0 0 0.588008 0 0
29 2.23249 0 0 0.289616 0 0
30 11.4725 0 0 0.898635 0.287709 -0.682094
31 0.615814 0.994373 -0.809165 -2.35227 0.0187305 0.46255
32 2.24752 0 0 -0.0459563 0.244746 0.234216
33 1.11936 0 0 -0.0408307 0.257423 0.212558
34 3.71349 0.102639 0.10219 -1.7258 1.11243 -0.263964
35 1.72615 0 0 0.00219633 0.00206195 0.928466
36 1.21112 0 0 -0.00470668 0.0169966 0.327294
37 3.5992 1.06012 0.070888 -1.81456 1.00851 -0.246313
38 1.66069 0 0 0.00707743 0.0114629 0.775068
39 1.16699 0 0 -0.0493731 -0.0470546 0.50394
40 2.18853 -0.501041 0.057659 -1.57004 0.000184469 -0.21278
41 1.29609 0 0 -0.0358609 -0.0301293 1.06108
42 1.62202 -0.000715256 -0.000469685 -0.00103445 -0.0015768 1.01338
43 1.22241 0 0 0.0173377 0.0316406 0.340004
44 1.76707 -1.27612 0.0366406 -1.57138 0.117893 -0.216239
45 1.55587 0 0 0.00173175 -0.107165 1.01098
46 1.24273 0 0 0.000590247 -0.000104643 0.855255
47 0.784532 0 0 -0.00592611 0.00084008 1.11775
48 0 0 0 0 0 0
49 5 -19.3184 -5.2717 0 0 0
50 0 -1.51208 1.07027 0 0 0
51 0.540026 -0.371634 1.70232 0 0 0
52 0 -4.95107 2.17037 0 0 0
53 0 -2.31355 1.98216 0 0 0
54 5 -18.549 -6.10007 0 0 0
55 0 -0.780157 2.00804 0 0 0
56 0 -0.799131 2.6006 0 0 0
time 1
0 7.58967 10.8278 -3.60973 0.000934124 0 -1.06437
1 6.02794 0 0 -1.03678 0.412868 -0.557115
2 11.7344 0 0 -0.00140275 0 -0.799914
3 8.81139 -0.000450134 -0.000112057 0.0930659 0 0.000158037
4 5.77839 0.000286102 0 0.0623542 0 0.000106262
5 2.23163 -0.000329018 -0.000363827 0.0307118 0 0
6 11.4725 0 0 -0.246854 -0.457991 0.68343
7 0.615219 -0.993091 -0.8107 -3.01423 0.324565 -0.386014
8 2.24752 0 0 0.0800071 0.0026471 -0.146496
9 1.11936 0 0 0.0512105 0.062516 -0.327822
10 3.71348 -0.102641 0.102191 1.38754 0.842929 0.0672855
11 1.72615 0 0 0.00945167 -0.00623855 -1.09905
12 1.21114 0 0 -0.0132692 0.0116177 -1.44917
13 3.59919 -1.06012 0.0708873 1.436 0.24435 -0.0655282
14 1.66069 0 0 -0.037484 0.0636747 -0.726307
15 1.167 0 0 -0.0270716 0.0140958 -0.693244
16 2.18852 0.501039 0.0576591 1.55548 0.166718 0.138312
17 1.29609 0 0 -0.185212 -0.0418434 -0.654895
18 1.62202 0.000713348 -0.000471592 0.0143688 -0.0178807 -1.11
19 1.22241 0 0 -0.00702549 0.00524253 -1.42423
20 1.76707 1.27612 0.0366408 1.27805 0.322855 0.136707
21 1.55588 0 0 -0.0225085 0.0235834 -0.467635
22 1.24273 0 0 -0.000596463 0 -0.783974
23 0.784523 0 0 0.00616285 -0.00061528 -0.941499
24 2.85835 9.28793 -4.43253 0.726982 0.410583 -1.99191
25 6.02794 0 0 0.0464444 0.0830433 0.228521
26 11.7344 0 0 0.00140269 0 0.923744
27 8.81167 0 0 0.86257 0 0
28 5.77884 0 0 0.577922 0 0
29 2.23249 0 0 0.284648 0 0
30 11.4725 0 0 0.881353 0.308224 -0.718926
31 0.615814 0.994373 -0.809165 -2.35227 0.0187304 0.46255
32 2.24752 0 0 -0.0459564 0.244746 0.234216
33 1.11936 0 0 -0.0408308 0.257423 0.212558
34 3.71349 0.102639 0.102191 -1.7258 1.11243 -0.263964
35 1.72615 0 0 0.00219621 0.00206195 0.928466
36 1.21112 0 0 -0.00470665 0.0169967 0.327294
37 3.5992 1.06012 0.0708879 -1.81456 1.00851 -0.246313
38 1.66069 0 0 0.0070774 0.0114628 0.775068
39 1.16699 0 0 -0.049373 -0.0470546 0.50394
40 2.18853 -0.501041 0.0576591 -1.57004 0.000184387 -0.212779
41 1.29609 0 0 -0.0358609 -0.0301294 1.06108
42 1.62202 -0.000713348 -0.000470638 -0.00103429 -0.00157683 1.01338
43 1.22241 0 0 0.0173376 0.0316406 0.340004
44 1.76707 -1.27612 0.0366405 -1.57138 0.117892 -0.216239
45 1.55588 0 0 0.0017317 -0.107165 1.01098
46 1.24273 0 0 0.000590199 -0.000104613 0.855255
47 0.784531 0 0 -0.00592615 0.000840007 1.11775
48 0 0 0 0 0 0
49 5.00367 -19.3038 -5.28107 0.030546 0.012857 0.000393
50 0 -1.50715 1.083 0.153348 0 0
51 0.540026 -0.371632 1.70233 0 0 0
52 0 -4.26864 2.17037 0 0 0
53 0 -2.24599 1.94401 -0.020964 0 0
54 4.99301 -18.5095 -6.0855 0.030546 0.012857 0.000393
55 0 -0.78083 2.00994 0 0 0
56 0 -0.797482 2.59453 0 0 0
time 2
0 7.58967 10.8278 -3.60973 0.000934124 0 -1.06437
1 6.02794 0 0 -0.978696 0.534019 -0.492528
2 11.7344 0 0 -0.0014027 0 -1.03864
3 8.81138 -0.000452042 -0.00011301 0.17211 0 0.000157751
4 5.77839 0.000284195 0 0.115314 0 0.000106468
5 2.23163 -0.000330925 -0.00036335 0.0567964 0 0
6 11.4725 0 0 -0.231877 -0.541873 0.695184
7 0.615219 -0.993091 -0.8107 -3.01423 0.324565 -0.386014
8 2.24752 0 0 0.0800073 0.00264717 -0.146496
9 1.11936 0 0 0.0512105 0.0625159 -0.327821
10 3.71348 -0.102641 0.102191 1.38754 0.842929 0.0672859
11 1.72615 0 0 0.00945179 -0.00623858 -1.09905
12 1.21114 0 0 -0.0132693 0.0116176 -1.44917
13 3.59919 -1.06012 0.0708872 1.43601 0.244349 -0.065528
14 1.66069 0 0 -0.0374841 0.0636747 -0.726307
15 1.167 0 0 -0.0270716 0.0140958 -0.693245
16 2.18852 0.501039 0.0576587 1.55548 0.166718 0.138312
17 1.29609 0 0 -0.185212 -0.0418434 -0.654895
18 1.62202 0.000712395 -0.000471115 0.0143687 -0.0178807 -1.11
19 1.22241 0 0 -0.00702547 0.00524261 -1.42423
20 1.76707 1.27612 0.0366408 1.27805 0.322855 0.136707
21 1.55588 0 0 -0.0225085 0.0235834 -0.467635
22 1.24274 0 0 -0.000596407 0 -0.783974
23 0.784524 0 0 0.00616286 -0.000615259 -0.9415
24 2.85835 9.28793 -4.43253 0.726982 0.410583 -1.99191
25 6.02794 0 0 0.0204873 0.0961471 0.11692
26 11.7344 0 0 0.00140271 0 1.13542
27 8.81167 0 0 0.860188 0 0
28 5.77884 0 0 0.576326 0 0
29 2.23249 0 0 0.283862 0 0
30 11.4725 0 0 0.91896 0.226955 -0.72195
31 0.615814 0.994372 -0.809165 -2.35227 0.0187304 0.46255
32 2.24752 0 0 -0.0459563 0.244746 0.234216
33 1.11936 0 0 -0.0408308 0.257423 0.212558
34 3.71349 0.102639 0.102191 -1.7258 1.11243 -0.263964
35 1.72615 0 0 0.00219615 0.00206198 0.928466
36 1.21112 0 0 -0.00470665 0.0169966 0.327294
37 3.5992 1.06012 0.0708883 -1.81456 1.00851 -0.246313
38 1.66069 0 0 0.00707746 0.0114628 0.775068
39 1.16699 0 0 -0.0493731 -0.0470546 0.50394
40 2.18853 -0.501041 0.0576593 -1.57004 0.000184409 -0.21278
41 1.29609 0 0 -0.0358608 -0.0301294 1.06108
42 1.62202 -0.000713348 -0.000470161 -0.00103438 -0.00157674 1.01338
43 1.22241 0 0 0.0173376 0.0316406 0.340004
44 1.76707 -1.27612 0.0366405 -1.57138 0.117892 -0.216239
45 1.55588 0 0 0.0017317 -0.107165 1.01097
46 1.24273 0 0 0.000590275 -0.000104644 0.855255
47 0.784531 0 0 -0.00592613 0.000839989 1.11775
48 0 0 0 0 0 0
49 5 -17.9935 -5.2717 -0.079767 -0.010131 0.00081
50 0 -1.50025 1.10082 0.306695 0 0
51 0.540026 -0.371637 1.70232 0 0 0
52 0 -3.13126 2.17037 0 0 0
53 0 -2.17842 1.90586 -0.041928 0 0
54 5.00842 -17.2926 -6.1587 -0.079767 -0.010131 0.00081
55 0 -0.781517 2.01188 0 0 0
56 0 -0.795792 2.58833 0 0 0
time 3
0 7.58967 10.8278 -3.60973 0.000934124 0 -1.06437
1 6.02794 0 0 -0.960146 0.558511 -0.481115
2 11.7344 0 0 -0.00140286 0 -1.08262
3 8.81138 -0.000450134 -0.00011158 0.203925 0 0.00015742
4 5.77839 0.000286102 0 0.13663 0 0.000106543
5 2.23163 -0.000329971 -0.00036335 0.0672954 0 0
6 11.4725 0 0 -0.221309 -0.593434 0.671092
7 0.615219 -0.993092 -0.8107 -3.01423 0.324565 -0.386014
8 2.24752 0 0 0.0800072 0.00264725 -0.146496
9 1.11936 0 0 0.0512106 0.0625158 -0.327821
10 3.71348 -0.102641 0.102191 1.38753 0.842929 0.0672857
11 1.72615 0 0 0.0094518 -0.0062386 -1.09905
12 1.21114 0 0 -0.0132693 0.0116177 -1.44917
13 3.59919 -1.06012 0.070888 1.436 0.244349 -0.065528
14 1.66069 0 0 -0.037484 0.0636747 -0.726308
15 1.167 0 0 -0.0270716 0.0140959 -0.693244
16 2.18852 0.50104 0.0576589 1.55548 0.166718 0.138312
17 1.29609 0 0 -0.185212 -0.0418434 -0.654895
18 1.62202 0.000713348 -0.000471592 0.0143688 -0.0178807 -1.11
19 1.22241 0 0 -0.00702548 0.00524258 -1.42423
20 1.76707 1.27612 0.0366406 1.27805 0.322855 0.136707
21 1.55588 0 0 -0.0225086 0.0235834 -0.467635
22 1.24273 0 0 -0.000596406 0 -0.783974
23 0.784523 0 0 0.00616287 -0.000615253 -0.9415
24 2.85835 9.28793 -4.43253 0.726982 0.410583 -1.99191
25 6.02794 0 0 0.0158848 0.0977498 0.0938295
26 11.7344 0 0 0.00140268 0 1.17274
27 8.81167 0 0 0.870576 0 0
28 5.77884 0 0 0.583286 0 0
29 2.23249 0 0 0.28729 0 0
30 11.4725 0 0 0.928733 0.199678 -0.682124
31 0.615812 0.994373 -0.809165 -2.35227 0.0187306 0.46255
32 2.24752 0 0 -0.0459563 0.244746 0.234216
33 1.11936 0 0 -0.0408308 0.257423 0.212558
34 3.71348 0.102639 0.102191 -1.7258 1.11243 -0.263964
35 1.72615 0 0 0.00219616 0.00206198 0.928466
36 1.21112 0 0 -0.0047067 0.0169966 0.327294
37 3.5992 1.06012 0.0708884 -1.81456 1.00851 -0.246313
38 1.66069 0 0 0.00707746 0.0114628 0.775068
39 1.16699 0 0 -0.0493731 -0.0470546 0.50394
40 2.18853 -0.501041 0.0576589 -1.57004 0.000184588 -0.21278
41 1.29609 0 0 -0.0358608 -0.0301294 1.06108
42 1.62202 -0.000715256 -0.000469208 -0.00103438 -0.00157679 1.01338
43 1.22241 0 0 0.0173376 0.0316406 0.340004
44 1.76707 -1.27612 0.0366402 -1.57138 0.117893 -0.21624
45 1.55588 0 0 0.00173173 -0.107165 1.01098
46 1.24273 0 0 0.000590259 -0.000104644 0.855255
47 0.784533 0 0 -0.00592617 0.000839986 1.11775
48 0 0 0 0 0 0
49 4.97176 -17.6689 -5.19668 -0.135544 -0.0210822 0.0149636
50 0 -1.49729 1.10846 0.306695 0 0
51 0.540026 -0.371634 1.70232 0 0 0
52 0 -3.13126 2.17037 0 0 0
53 0 -2.17842 1.90586 -0.041928 0 0
54 4.98152 -17.0183 -6.12123 -0.135544 -0.0210822 0.0149636
55 0 -0.782215 2.01385 0 0 0
56 0 -0.794075 2.582 0 0 0
time 4
0 7.58967 10.8278 -3.60973 0.000934124 0 -1.06437
1 6.02794 0 0 -0.975327 0.525675 -0.505931
2 11.7344 0 0 -0.0014029 0 -1.00835
3 8.81138 -0.000448227 -0.000113487 0.194214 0 0.00015778
4 5.77839 0.000286102 0 0.130123 0 0.000106536
5 2.23163 -0.000329018 -0.00036478 0.0640906 0 0
6 11.4725 0 0 -0.212111 -0.616427 0.619915
7 0.615219 -0.993091 -0.810701 -3.01423 0.324565 -0.386014
8 2.24752 0 0 0.0800071 0.00264716 -0.146496
9 1.11936 0 0 0.0512106 0.062516 -0.327822
10 3.71348 -0.102641 0.10219 1.38754 0.842929 0.0672859
11 1.72615 0 0 0.00945175 -0.00623859 -1.09905
12 1.21114 0 0 -0.0132693 0.0116177 -1.44917
13 3.59919 -1.06012 0.0708885 1.436 0.244349 -0.065528
14 1.66068 0 0 -0.037484 0.0636747 -0.726308
15 1.167 0 0 -0.0270716 0.0140958 -0.693245
16 2.18853 0.50104 0.0576584 1.55548 0.166718 0.138312
17 1.29609 0 0 -0.185212 -0.0418433 -0.654895
18 1.62202 0.000713348 -0.000471592 0.0143688 -0.0178807 -1.11
19 1.22241 0 0 -0.00702545 0.00524258 -1.42423
20 1.76707 1.27612 0.0366408 1.27805 0.322855 0.136707
21 1.55588 0 0 -0.0225085 0.0235834 -0.467635
22 1.24274 0 0 -0.000596423 0 -0.783974
23 0.784523 0 0 0.00616284 -0.000615258 -0.9415
24 2.85835 9.28793 -4.43253 0.726982 0.410583 -1.99191
25 6.02794 0 0 0.0258437 0.0936352 0.127579
26 11.7344 0 0 0.00140259 0 1.09846
27 8.81167 0 0 0.887422 0 0
28 5.77884 0 0 0.594573 0 0
29 2.23249 0 0 0.292849 0 0
30 11.4725 0 0 0.926239 0.202545 -0.614486
31 0.615814 0.994372 -0.809165 -2.35227 0.0187306 0.46255
32 2.24752 0 0 -0.0459562 0.244746 0.234216
33 1.11936 0 0 -0.0408308 0.257423 0.212558
34 3.71349 0.102639 0.102191 -1.7258 1.11243 -0.263964
35 1.72615 0 0 0.00219624 0.002062 0.928466
36 1.21112 0 0 -0.00470664 0.0169966 0.327294
37 3.5992 1.06012 0.0708882 -1.81456 1.00851 -0.246313
38 1.66069 0 0 0.00707747 0.0114628 0.775068
39 1.16699 0 0 -0.0493731 -0.0470546 0.50394
40 2.18853 -0.501041 0.0576591 -1.57004 0.000184409 -0.21278
41 1.29609 0 0 -0.0358609 -0.0301294 1.06108
42 1.62202 -0.000715256 -0.000469685 -0.00103433 -0.00157677 1.01338
43 1.22241 0 0 0.0173376 0.0316405 0.340004
44 1.76707 -1.27612 0.0366409 -1.57138 0.117892 -0.216239
45 1.55588 0 0 0.00173179 -0.107165 1.01098
46 1.24273 0 0 0.000590312 -0.000104652 0.855255
47 0.784531 0 0 -0.0059262 0.000840044 1.11775
48 0 0 0 0 0 0
49 4.92701 -18.082 -5.07949 -0.158787 -0.02467 0.030358
50 0 -1.49631 1.11101 0.306695 0 0
51 0.540026 -0.371634 1.70232 0 0 0
52 0 -3.13126 2.17037 0 0 0
53 0 -2.17842 1.90586 -0.041928 0 0
54 4.9311 -17.4528 -6.01882 -0.158787 -0.02467 0.030358
55 0 -0.782928 2.01587 0 0 0
56 0 -0.792322 2.57555 0 0 0
time 5
0 7.58967 10.8278 -3.60973 0.000934124 0 -1.06437
1 6.02794 0 0 -0.992159 0.491351 -0.527605
2 11.7344 0 0 -0.00140284 0 -0.935546
3 8.81139 -0.000450134 -0.00011158 0.169738 0 0.00015781
4 5.77839 0.000286102 0 0.113724 0 0.000106519
5 2.23164 -0.000329971 -0.00036335 0.0560135 0 0
6 11.4725 0 0 -0.206384 -0.612866 0.580316
7 0.615219 -0.993091 -0.8107 -3.01423 0.324565 -0.386014
8 2.24752 0 0 0.0800071 0.00264716 -0.146496
9 1.11935 0 0 0.0512105 0.062516 -0.327822
10 3.71348 -0.102641 0.102191 1.38754 0.842929 0.0672856
11 1.72615 0 0 0.00945173 -0.00623855 -1.09905
12 1.21114 0 0 -0.0132693 0.0116177 -1.44917
13 3.59919 -1.06012 0.0708882 1.436 0.244349 -0.065528
14 1.66069 0 0 -0.037484 0.0636747 -0.726307
15 1.167 0 0 -0.0270717 0.0140958 -0.693244
16 2.18852 0.501039 0.0576593 1.55548 0.166718 0.138312
17 1.29609 0 0 -0.185212 -0.0418433 -0.654895
18 1.62202 0.000714302 -0.000471115 0.0143688 -0.0178807 -1.11
19 1.22241 0 0 -0.00702549 0.00524258 -1.42423
20 1.76707 1.27612 0.0366412 1.27805 0.322855 0.136707
21 1.55588 0 0 -0.0225086 0.0235834 -0.467635
22 1.24274 0 0 -0.000596375 0 -0.783974
23 0.784524 0 0 0.00616283 -0.000615293 -0.9415
24 2.85835 9.28793 -4.43253 0.726982 0.410583 -1.99191
25 6.02794 0 0 0.0346509 0.0894778 0.161798
26 11.7344 0 0 0.00140271 0 1.02941
27 8.81167 0 0 0.892815 0 0
28 5.77884 0 0 0.598186 0 0
29 2.23249 0 0 0.294629 0 0
30 11.4725 0 0 0.921593 0.206244 -0.578081
31 0.615812 0.994373 -0.809165 -2.35227 0.0187305 0.46255
32 2.24752 0 0 -0.0459563 0.244746 0.234216
33 1.11936 0 0 -0.0408307 0.257423 0.212558
34 3.71349 0.102639 0.102191 -1.7258 1.11243 -0.263964
35 1.72615 0 0 0.00219628 0.00206201 0.928466
36 1.21112 0 0 -0.00470667 0.0169966 0.327294
37 3.5992 1.06012 0.0708886 -1.81456 1.00851 -0.246313
38 1.66069 0 0 0.00707749 0.0114628 0.775068
39 1.16699 0 0 -0.0493731 -0.0470546 0.50394
40 2.18853 -0.50104 0.057659 -1.57004 0.000184521 -0.21278
41 1.29609 0 0 -0.0358609 -0.0301294 1.06108
42 1.62202 -0.000713348 -0.000469685 -0.00103442 -0.00157676 1.01338
43 1.22241 0 0 0.0173376 0.0316405 0.340004
44 1.76707 -1.27612 0.0366405 -1.57138 0.117893 -0.21624
45 1.55588 0 0 0.0017317 -0.107165 1.01098
46 1.24273 0 0 0.000590215 -0.000104723 0.855255
47 0.784532 0 0 -0.00592619 0.000840007 1.11775
48 0 0 0 0 0 0
49 4.88995 -18.4886 -4.9905 -0.161818 -0.0239438 0.0307195
50 0 -1.49729 1.10846 0.306695 0 0
51 0.540026 -0.371632 1.70232 0 0 0
52 0 -3.13126 2.17037 0 0 0
53 0 -2.17842 1.90586 -0.041928 0 0
54 4.89325 -17.8623 -5.93175 -0.161818 -0.0239438 0.0307195
55 0 -0.783653 2.01792 0 0 0
56 0 -0.790533 2.56899 0 0 0
time 6
0 7.58967 10.8278 -3.60973 0.000934124 0 -1.06437
1 6.02794 0 0 -1.00133 0.47587 -0.534467
2 11.7344 0 0 -0.00140285 0 -0.911659
3 8.81139 -0.000450134 -0.000112534 0.152454 0 0.000158076
4 5.77839 0.000286102 0 0.102144 0 0.000106564
5 2.23164 -0.000329971 -0.000365257 0.0503097 0 0
6 11.4725 0 0 -0.212967 -0.58625 0.58995
7 0.615221 -0.993091 -0.8107 -3.01423 0.324565 -0.386014
8 2.24752 0 0 0.0800071 0.00264712 -0.146496
9 1.11936 0 0 0.0512106 0.062516 -0.327822
10 3.71348 -0.102641 0.102191 1.38754 0.842929 0.0672859
11 1.72615 0 0 0.00945177 -0.00623864 -1.09905
12 1.21114 0 0 -0.0132693 0.0116176 -1.44917
13 3.59919 -1.06012 0.0708884 1.43601 0.244349 -0.065528
14 1.66069 0 0 -0.037484 0.0636747 -0.726308
15 1.167 0 0 -0.0270716 0.0140958 -0.693245
16 2.18852 0.50104 0.0576593 1.55548 0.166718 0.138312
17 1.29609 0 0 -0.185212 -0.0418434 -0.654895
18 1.62202 0.000712395 -0.000471115 0.0143687 -0.0178807 -1.11
19 1.22241 0 0 -0.00702547 0.00524259 -1.42423
20 1.76707 1.27612 0.036641 1.27804 0.322855 0.136707
21 1.55588 0 0 -0.0225085 0.0235834 -0.467635
22 1.24273 0 0 -0.000596425 0 -0.783974
23 0.784523 0 0 0.00616286 -0.000615285 -0.9415
24 2.85835 9.28793 -4.43253 0.726982 0.410583 -1.99191
25 6.02794 0 0 0.0395531 0.0868075 0.174483
26 11.7344 0 0 0.00140266 0 1.01085
27 8.81167 0 0 0.884278 0 0
28 5.77884 0 0 0.592466 0 0
29 2.23249 0 0 0.291812 0 0
30 11.4725 0 0 0.913497 0.21755 -0.599563
31 0.615812 0.994373 -0.809165 -2.35227 0.0187305 0.46255
32 2.24752 0 0 -0.0459563 0.244746 0.234216
33 1.11936 0 0 -0.0408307 0.257423 0.212557
34 3.71348 0.102639 0.102191 -1.7258 1.11243 -0.263964
35 1.72615 0 0 0.00219627 0.00206193 0.928466
36 1.21112 0 0 -0.00470673 0.0169966 0.327294
37 3.5992 1.06012 0.070888 -1.81456 1.00851 -0.246313
38 1.66069 0 0 0.00707748 0.0114628 0.775068
39 1.16699 0 0 -0.0493731 -0.0470546 0.50394
40 2.18853 -0.50104 0.0576593 -1.57004 0.000184603 -0.21278
41 1.29609 0 0 -0.0358609 -0.0301294 1.06108
42 1.62202 -0.000711441 -0.000470161 -0.00103432 -0.00157679 1.01338
43 1.22241 0 0 0.0173376 0.0316406 0.340004
44 1.76707 -1.27612 0.0366408 -1.57138 0.117893 -0.21624
45 1.55588 0 0 0.00173177 -0.107165 1.01098
46 1.24273 0 0 0.000590277 -0.000104685 0.855255
47 0.784532 0 0 -0.00592622 0.000839957 1.11775
48 0 0 0 0 0 0
49 4.87065 -18.645 -4.96393 -0.137303 -0.0173458 0.0202133
50 0 -1.50025 1.10082 0.306695 0 0
51 0.540026 -0.371634 1.70232 0 0 0
52 0 -4.04117 2.17037 0 0 0
53 0 -2.24599 1.94401 -0.020964 0 0
54 4.87359 -17.996 -5.88968 -0.137303 -0.0173458 0.0202133
55 0 -0.784391 2.02001 0 0 0
56 0 -0.788717 2.56232 0 0 0
time 7
0 7.58967 10.8278 -3.60973 0.000934124 0 -1.06437
1 6.02794 0 0 -1.01112 0.460563 -0.53965
2 11.7344 0 0 -0.0014027 0 -0.889336
3 8.81138 -0.000450134 -0.000112057 0.130358 0 0.000158035
4 5.77839 0.000286102 0 0.0873397 0 0.000106416
5 2.23163 -0.000329971 -0.00036335 0.043018 0 0
6 11.4725 0 0 -0.22255 -0.546826 0.609426
7 0.61522 -0.993091 -0.8107 -3.01423 0.324565 -0.386014
8 2.24752 0 0 0.0800074 0.00264717 -0.146496
9 1.11936 0 0 0.0512106 0.062516 -0.327822
10 3.71348 -0.102641 0.10219 1.38754 0.842929 0.0672861
11 1.72615 0 0 0.00945177 -0.00623862 -1.09905
12 1.21114 0 0 -0.0132693 0.0116177 -1.44917
13 3.59919 -1.06012 0.0708873 1.43601 0.24435 -0.065528
14 1.66069 0 0 -0.037484 0.0636747 -0.726307
15 1.167 0 0 -0.0270716 0.0140958 -0.693245
16 2.18853 0.50104 0.0576587 1.55548 0.166719 0.138312
17 1.29609 0 0 -0.185212 -0.0418433 -0.654895
18 1.62202 0.000712395 -0.000470877 0.0143688 -0.0178807 -1.11
19 1.22241 0 0 -0.00702545 0.00524254 -1.42423
20 1.76707 1.27612 0.0366409 1.27805 0.322855 0.136708
21 1.55588 0 0 -0.0225086 0.0235834 -0.467635
22 1.24273 0 0 -0.000596394 0 -0.783974
23 0.784523 0 0 0.0061629 -0.000615245 -0.9415
24 2.85835 9.28793 -4.43253 0.726982 0.410583 -1.99191
25 6.02794 0 0 0.0435267 0.0845449 0.186215
26 11.7344 0 0 0.00140274 0 0.996156
27 8.81167 0 0 0.870648 0 0
28 5.77884 0 0 0.583334 0 0
29 2.23249 0 0 0.287314 0 0
30 11.4725 0 0 0.902923 0.231904 -0.638248
31 0.615814 0.994372 -0.809165 -2.35227 0.0187304 0.46255
32 2.24752 0 0 -0.0459563 0.244746 0.234216
33 1.11936 0 0 -0.0408308 0.257423 0.212558
34 3.71349 0.102639 0.102191 -1.7258 1.11243 -0.263963
35 1.72615 0 0 0.00219622 0.002062 0.928466
36 1.21112 0 0 -0.00470669 0.0169967 0.327294
37 3.5992 1.06012 0.0708882 -1.81456 1.00851 -0.246313
38 1.66069 0 0 0.00707746 0.0114628 0.775068
39 1.16699 0 0 -0.0493731 -0.0470545 0.50394
40 2.18853 -0.50104 0.0576591 -1.57004 0.00018467 -0.21278
41 1.29609 0 0 -0.0358608 -0.0301294 1.06108
42 1.62202 -0.000711441 -0.000470161 -0.00103433 -0.0015768 1.01338
43 1.22241 0 0 0.0173376 0.0316406 0.340004
44 1.76707 -1.27612 0.0366409 -1.57138 0.117893 -0.216239
45 1.55588 0 0 0.00173182 -0.107165 1.01098
46 1.24273 0 0 0.00059032 -0.000104717 0.855255
47 0.784531 0 0 -0.00592607 0.000839976 1.11775
48 0 0 0 0 0 0
49 4.86106 -18.7992 -4.97632 -0.0997631 -0.007312 0.00450616
50 0 -1.50715 1.083 0.153348 0 0
51 0.540026 -0.371634 1.70233 0 0 0
52 0 -4.95107 2.17037 0 0 0
53 0 -2.31355 1.98216 0 0 0
54 4.86457 -18.1161 -5.87719 -0.0997631 -0.007312 0.00450616
55 0 -0.785145 2.02213 0 0 0
56 0 -0.786873 2.55554 0 0 0
time 8
0 7.58967 10.8278 -3.60973 0.000934124 0 -1.06437
1 6.02794 0 0 -1.01995 0.446427 -0.544036
2 11.7344 0 0 -0.00140294 0 -0.866859
3 8.81139 -0.000449181 -0.000112534 0.107393 0 0.000157677
4 5.77839 0.000287056 0 0.0719535 0 0.00010609
5 2.23164 -0.000329018 -0.00036478 0.0354396 0 0
6 11.4725 0 0 -0.231275 -0.508432 0.625752
7 0.61522 -0.993091 -0.8107 -3.01423 0.324565 -0.386014
8 2.24752 0 0 0.0800073 0.00264718 -0.146496
9 1.11936 0 0 0.0512107 0.062516 -0.327822
10 3.71348 -0.102641 0.102191 1.38754 0.842929 0.0672857
11 1.72615 0 0 0.00945179 -0.0062385 -1.09905
12 1.21114 0 0 -0.0132693 0.0116176 -1.44917
13 3.59919 -1.06012 0.0708884 1.43601 0.244349 -0.0655281
14 1.66069 0 0 -0.037484 0.0636747 -0.726308
15 1.167 0 0 -0.0270716 0.0140958 -0.693244
16 2.18853 0.50104 0.0576594 1.55548 0.166719 0.138312
17 1.29609 0 0 -0.185212 -0.0418434 -0.654895
18 1.62202 0.000714302 -0.000471592 0.0143688 -0.0178808 -1.11
19 1.22241 0 0 -0.00702546 0.00524256 -1.42423
20 1.76707 1.27612 0.0366412 1.27805 0.322855 0.136707
21 1.55588 0 0 -0.0225086 0.0235834 -0.467635
22 1.24273 0 0 -0.000596421 0 -0.783974
23 0.784524 0 0 0.00616286 -0.000615232 -0.9415
24 2.85835 9.28793 -4.43253 0.726982 0.410583 -1.99191
25 6.02794 0 0 0.0463367 0.0828926 0.197294
26 11.7344 0 0 0.00140268 0 0.981506
27 8.81167 0 0 0.856167 0 0
28 5.77884 0 0 0.573632 0 0
29 2.23249 0 0 0.282535 0 0
30 11.4725 0 0 0.891991 0.243972 -0.675476
31 0.61581 0.994372 -0.809165 -2.35227 0.0187306 0.46255
32 2.24752 0 0 -0.0459564 0.244746 0.234216
33 1.11935 0 0 -0.0408309 0.257423 0.212558
34 3.71349 0.102639 0.102191 -1.7258 1.11243 -0.263963
35 1.72615 0 0 0.00219616 0.002062 0.928466
36 1.21112 0 0 -0.0047066 0.0169966 0.327294
37 3.5992 1.06012 0.0708883 -1.81456 1.00851 -0.246313
38 1.66069 0 0 0.00707743 0.0114628 0.775068
39 1.16699 0 0 -0.0493731 -0.0470546 0.50394
40 2.18853 -0.501041 0.0576591 -1.57004 0.000184752 -0.21278
41 1.29609 0 0 -0.0358609 -0.0301295 1.06108
42 1.62202 -0.000713348 -0.000471115 -0.00103435 -0.00157679 1.01338
43 1.22241 0 0 0.0173376 0.0316405 0.340004
44 1.76707 -1.27612 0.0366408 -1.57138 0.117893 -0.216239
45 1.55588 0 0 0.0017319 -0.107165 1.01097
46 1.24273 0 0 0.00059019 -0.000104678 0.855255
47 0.784531 0 0 -0.00592626 0.000840067 1.11775
48 0 0 0 0 0 0
49 4.85813 -18.9449 -5.01154 -0.0637209 0.0037216 -0.0107352
50 0 -1.51208 1.07027 0 0 0
51 0.540026 -0.371635 1.70233 0 0 0
52 0 -4.95108 2.17037 0 0 0
53 0 -2.31356 1.98216 0 0 0
54 4.86255 -18.2298 -5.88723 -0.0637209 0.0037216 -0.0107352
55 0 -0.78591 2.02428 0 0 0
56 0 -0.785002 2.54865 0 0 0
time 9
0 7.58967 10.8278 -3.60973 0.000934124 0 -1.06437
1 6.02794 0 0 -1.0261 0.434594 -0.548735
2 11.7344 0 0 -0.00140295 0 -0.842746
3 8.81139 -0.000450134 -0.000112534 0.0871074 0 0.000157714
4 5.77839 0.000286102 0 0.058362 0 0.000106134
5 2.23163 -0.000329971 -0.000364304 0.0287456 0 0
6 11.4725 0 0 -0.238491 -0.485592 0.627676
7 0.61522 -0.993091 -0.8107 -3.01424 0.324565 -0.386014
8 2.24752 0 0 0.0800072 0.00264724 -0.146496
9 1.11936 0 0 0.0512107 0.062516 -0.327821
10 3.71348 -0.102641 0.10219 1.38754 0.842929 0.0672862
11 1.72615 0 0 0.00945177 -0.0062386 -1.09905
12 1.21114 0 0 -0.0132693 0.0116176 -1.44917
13 3.59919 -1.06012 0.0708877 1.43601 0.24435 -0.0655281
14 1.66069 0 0 -0.037484 0.0636747 -0.726307
15 1.167 0 0 -0.0270716 0.0140958 -0.693244
16 2.18853 0.50104 0.0576589 1.55548 0.166719 0.138312
17 1.29609 0 0 -0.185212 -0.0418434 -0.654895
18 1.62202 0.000713348 -0.000471115 0.0143687 -0.0178807 -1.11
19 1.22241 0 0 -0.00702547 0.00524261 -1.42423
20 1.76707 1.27612 0.0366405 1.27805 0.322855 0.136707
21 1.55588 0 0 -0.0225085 0.0235833 -0.467635
22 1.24273 0 0 -0.000596441 0 -0.783974
23 0.784524 0 0 0.00616289 -0.000615279 -0.9415
24 2.85835 9.28793 -4.43253 0.726982 0.410583 -1.99191
25 6.02794 0 0 0.0477929 0.0820257 0.207229
26 11.7344 0 0 0.00140267 0 0.964263
27 8.81167 0 0 0.845768 0 0
28 5.77884 0 0 0.566665 0 0
29 2.23249 0 0 0.279103 0 0
30 11.4725 0 0 0.882766 0.249236 -0.692459
31 0.615812 0.994372 -0.809165 -2.35227 0.0187305 0.46255
32 2.24752 0 0 -0.0459564 0.244746 0.234216
33 1.11936 0 0 -0.0408307 0.257423 0.212558
34 3.71348 0.102639 0.102191 -1.7258 1.11243 -0.263964
35 1.72615 0 0 0.00219621 0.00206196 0.928465
36 1.21112 0 0 -0.00470669 0.0169966 0.327294
37 3.5992 1.06012 0.0708882 -1.81456 1.00851 -0.246313
38 1.66069 0 0 0.00707747 0.0114629 0.775068
39 1.16699 0 0 -0.0493731 -0.0470546 0.50394
40 2.18853 -0.50104 0.0576593 -1.57004 0.000184588 -0.21278
41 1.29609 0 0 -0.0358609 -0.0301293 1.06108
42 1.62202 -0.000713348 -0.000468731 -0.00103438 -0.0015767 1.01338
43 1.22241 0 0 0.0173376 0.0316406 0.340004
44 1.76707 -1.27612 0.0366409 -1.57138 0.117893 -0.21624
45 1.55588 0 0 0.00173166 -0.107165 1.01098
46 1.24273 0 0 0.000590302 -0.000104701 0.855255
47 0.784532 0 0 -0.00592613 0.000839989 1.11775
48 0 0 0 0 0 0
49 4.85886 -19.0754 -5.05347 -0.043698 0.013319 -0.019844
50 0 -1.51208 1.07027 0 0 0
51 0.540026 -0.371635 1.70232 0 0 0
52 0 -4.95108 2.17037 0 0 0
53 0 -2.31356 1.98216 0 0 0
54 4.86192 -18.3428 -5.91459 -0.043698 0.013319 -0.019844
55 0 -0.786678 2.02646 0 0 0
56 0 -0.783104 2.54167 0 0 0
time 10
0 7.58967 10.8278 -3.60973 0.000934124 0 -1.06437
1 6.02794 0 0 -1.02915 0.426231 -0.553403
2 11.7344 0 0 -0.00140276 0 -0.820258
3 8.81138 -0.000449181 -0.000112057 0.0683322 0 0.000157764
4 5.77839 0.000287056 0 0.0457826 0 0.000106025
5 2.23163 -0.000329018 -0.000363827 0.0225497 0 0
6 11.4725 0 0 -0.247897 -0.480475 0.616588
7 0.615221 -0.993091 -0.8107 -3.01423 0.324565 -0.386014
8 2.24752 0 0 0.0800072 0.00264722 -0.146496
9 1.11936 0 0 0.0512105 0.062516 -0.327821
10 3.71348 -0.102641 0.102191 1.38754 0.842929 0.0672856
11 1.72615 0 0 0.00945183 -0.00623855 -1.09905
12 1.21114 0 0 -0.0132693 0.0116177 -1.44917
13 3.5992 -1.06012 0.0708885 1.43601 0.24435 -0.065528
14 1.66069 0 0 -0.037484 0.0636747 -0.726307
15 1.167 0 0 -0.0270716 0.0140958 -0.693244
16 2.18852 0.50104 0.057659 1.55548 0.166719 0.138312
17 1.29609 0 0 -0.185212 -0.0418434 -0.654895
18 1.62202 0.000713348 -0.000472069 0.0143687 -0.0178807 -1.11
19 1.22241 0 0 -0.00702545 0.00524264 -1.42423
20 1.76707 1.27612 0.0366412 1.27805 0.322855 0.136707
21 1.55588 0 0 -0.0225085 0.0235834 -0.467635
22 1.24274 0 0 -0.000596384 0 -0.783974
23 0.784523 0 0 0.0061629 -0.000615212 -0.9415
24 2.85835 9.28793 -4.43253 0.726982 0.410583 -1.99191
25 6.02794 0 0 0.0486127 0.081537 0.215891
26 11.7344 0 0 0.00140271 0 0.94506
27 8.81167 0 0 0.837534 0 0
28 5.77884 0 0 0.561148 0 0
29 2.23249 0 0 0.276386 0 0
30 11.4725 0 0 0.872636 0.247454 -0.687701
31 0.615814 0.994372 -0.809165 -2.35227 0.0187307 0.46255
32 2.24752 0 0 -0.0459564 0.244746 0.234216
33 1.11936 0 0 -0.0408306 0.257423 0.212558
34 3.71348 0.10264 0.10219 -1.7258 1.11243 -0.263964
35 1.72615 0 0 0.0021963 0.00206193 0.928466
36 1.21112 0 0 -0.0047067 0.0169966 0.327294
37 3.5992 1.06012 0.0708882 -1.81456 1.00851 -0.246314
38 1.66069 0 0 0.00707747 0.0114628 0.775068
39 1.16699 0 0 -0.0493731 -0.0470546 0.50394
40 2.18853 -0.50104 0.057659 -1.57004 0.000184491 -0.21278
41 1.29609 0 0 -0.0358608 -0.0301294 1.06108
42 1.62202 -0.000713348 -0.000468254 -0.0010344 -0.0015768 1.01338
43 1.22241 0 0 0.0173377 0.0316406 0.340004
44 1.76707 -1.27612 0.0366405 -1.57138 0.117893 -0.216239
45 1.55588 0 0 0.00173174 -0.107165 1.01098
46 1.24273 0 0 0.000590309 -0.000104749 0.855255
47 0.784532 0 0 -0.00592613 0.000840106 1.11775
48 0 0 0 0 0 0
49 4.86019 -19.1843 -5.08598 -0.0423261 0.0233981 -0.0221736
50 0 -1.51208 1.07027 0 0 0
51 0.540027 -0.371634 1.70233 0 0 0
52 0 -4.95108 2.17037 0 0 0
53 0 -2.31356 1.98216 0 0 0
54 4.85634 -18.4504 -5.94593 -0.0423261 0.0233981 -0.0221736
55 0 -0.787462 2.02867 0 0 0
56 0 -0.781178 2.5346 0 0 0
time 11
0 7.58967 10.8278 -3.60973 0.000934124 0 -1.06437
1 6.02794 0 0 -1.03065 0.420615 -0.557129
2 11.7344 0 0 -0.00140282 0 -0.802395
3 8.81138 -0.000450134 -0.000112534 0.0510115 0 0.000157652
4 5.77839 0.000284195 0 0.0341777 0 0.000105798
5 2.23163 -0.000329971 -0.00036335 0.0168339 0 0
6 11.4725 0 0 -0.258362 -0.481612 0.603567
7 0.615219 -0.993091 -0.8107 -3.01423 0.324565 -0.386014
8 2.24752 0 0 0.0800072 0.00264719 -0.146496
9 1.11936 0 0 0.0512106 0.062516 -0.327822
10 3.71348 -0.102641 0.102191 1.38754 0.842929 0.0672858
11 1.72615 0 0 0.00945174 -0.0062386 -1.09905
12 1.21114 0 0 -0.0132693 0.0116177 -1.44917
13 3.59919 -1.06012 0.070888 1.43601 0.244349 -0.0655281
14 1.66069 0 0 -0.037484 0.0636747 -0.726307
15 1.167 0 0 -0.0270716 0.0140958 -0.693245
16 2.18853 0.50104 0.057659 1.55548 0.166718 0.138312
17 1.29609 0 0 -0.185212 -0.0418433 -0.654895
18 1.62202 0.000713348 -0.000470638 0.0143688 -0.0178807 -1.11
19 1.22241 0 0 -0.00702548 0.00524262 -1.42423
20 1.76707 1.27612 0.0366411 1.27805 0.322855 0.136707
21 1.55588 0 0 -0.0225085 0.0235834 -0.467635
22 1.24273 0 0 -0.000596431 0 -0.783974
23 0.784524 0 0 0.00616288 -0.000615233 -0.9415
24 2.85835 9.28793 -4.43253 0.726982 0.410583 -1.99191
25 6.02794 0 0 0.0491147 0.0812372 0.222535
26 11.7344 0 0 0.00140272 0 0.929035
27 8.81167 0 0 0.829406 0 0
28 5.77884 0 0 0.555702 0 0
29 2.23249 0 0 0.273704 0 0
30 11.4725 0 0 0.862138 0.243442 -0.677696
31 0.615812 0.994373 -0.809166 -2.35227 0.0187303 0.46255
32 2.24752 0 0 -0.0459563 0.244746 0.234216
33 1.11936 0 0 -0.0408307 0.257423 0.212557
34 3.71348 0.10264 0.102191 -1.7258 1.11243 -0.263964
35 1.72615 0 0 0.00219618 0.00206199 0.928466
36 1.21112 0 0 -0.0047066 0.0169966 0.327294
37 3.5992 1.06012 0.0708883 -1.81456 1.00851 -0.246313
38 1.66069 0 0 0.0070774 0.0114628 0.775068
39 1.16699 0 0 -0.0493731 -0.0470546 0.50394
40 2.18853 -0.501041 0.057659 -1.57004 0.000184514 -0.212779
41 1.29609 0 0 -0.0358609 -0.0301294 1.06108
42 1.62202 -0.000715256 -0.000470638 -0.00103441 -0.00157678 1.01338
43 1.22241 0 0 0.0173376 0.0316405 0.340004
44 1.76707 -1.27612 0.0366405 -1.57138 0.117893 -0.216239
45 1.55588 0 0 0.00173181 -0.107165 1.01098
46 1.24273 0 0 0.000590324 -0.000104752 0.855255
47 0.784532 0 0 -0.0059262 0.000840039 1.11775
48 0 0 0 0 0 0
49 4.8636 -19.2655 -5.111 -0.0472923 0.0336651 -0.0221485
50 0 -1.51208 1.07027 0 0 0
51 0.540026 -0.371634 1.70232 0 0 0
52 0 -4.95108 2.17037 0 0 0
53 0 -2.31355 1.98216 0 0 0
54 4.85068 -18.5357 -5.97433 -0.0472923 0.0336651 -0.0221485
55 0 -0.788256 2.03091 0 0 0
56 0 -0.77923 2.52744 0 0 0
time 12
0 7.58967 10.8278 -3.60973 0.000934124 0 -1.06437
1 6.02794 0 0 -1.03145 0.417288 -0.559409
2 11.7344 0 0 -0.00140284 0 -0.790214
3 8.81138 -0.000450134 -0.000112057 0.0412473 0 0.000157671
4 5.77839 0.000285149 0 0.0276357 0 0.000105882
5 2.23163 -0.000329971 -0.000364304 0.0136116 0 0
6 11.4725 0 0 -0.263221 -0.483213 0.59382
7 0.615218 -0.993091 -0.8107 -3.01423 0.324565 -0.386014
8 2.24752 0 0 0.0800072 0.00264729 -0.146496
9 1.11936 0 0 0.0512106 0.062516 -0.327822
10 3.71348 -0.102641 0.102191 1.38754 0.842929 0.0672857
11 1.72615 0 0 0.00945174 -0.00623858 -1.09905
12 1.21114 0 0 -0.0132693 0.0116177 -1.44917
13 3.59919 -1.06012 0.0708885 1.43601 0.244349 -0.065528
14 1.66068 0 0 -0.0374841 0.0636747 -0.726307
15 1.167 0 0 -0.0270716 0.0140958 -0.693244
16 2.18852 0.50104 0.0576594 1.55548 0.166718 0.138312
17 1.29609 0 0 -0.185212 -0.0418433 -0.654895
18 1.62202 0.000713348 -0.000471592 0.0143687 -0.0178807 -1.11
19 1.22241 0 0 -0.00702545 0.00524261 -1.42423
20 1.76707 1.27612 0.0366409 1.27805 0.322855 0.136707
21 1.55588 0 0 -0.0225085 0.0235834 -0.467635
22 1.24274 0 0 -0.000596438 0 -0.783974
23 0.784523 0 0 0.00616287 -0.000615286 -0.9415
24 2.85835 9.28793 -4.43253 0.726982 0.410583 -1.99191
25 6.02794 0 0 0.048707 0.081528 0.226818
26 11.7344 0 0 0.00140268 0 0.917784
27 8.81167 0 0 0.826748 0 0
28 5.77884 0 0 0.553921 0 0
29 2.23249 0 0 0.272827 0 0
30 11.4725 0 0 0.857882 0.240613 -0.669084
31 0.615812 0.994373 -0.809165 -2.35227 0.0187305 0.46255
32 2.24752 0 0 -0.0459564 0.244746 0.234216
33 1.11936 0 0 -0.0408307 0.257423 0.212557
34 3.71348 0.10264 0.102191 -1.7258 1.11243 -0.263964
35 1.72615 0 0 0.00219626 0.00206191 0.928466
36 1.21112 0 0 -0.00470663 0.0169967 0.327294
37 3.5992 1.06012 0.0708882 -1.81456 1.00851 -0.246313
38 1.66069 0 0 0.00707749 0.0114628 0.775068
39 1.16699 0 0 -0.0493731 -0.0470546 0.50394
40 2.18853 -0.50104 0.0576588 -1.57004 0.000184655 -0.212779
41 1.29609 0 0 -0.0358609 -0.0301294 1.06108
42 1.62202 -0.000711441 -0.000469685 -0.00103439 -0.0015768 1.01338
43 1.22241 0 0 0.0173376 0.0316405 0.340004
44 1.76707 -1.27612 0.0366404 -1.57138 0.117893 -0.216239
45 1.55588 0 0 0.00173188 -0.107165 1.01097
46 1.24273 0 0 0.000590232 -0.000104559 0.855255
47 0.784532 0 0 -0.0059262 0.000839995 1.11775
48 0 0 0 0 0 0
49 4.87172 -19.3207 -5.1401 -0.050702 0.038366 -0.021709
50 0 -1.51208 1.07027 0 0 0
51 0.540026 -0.371632 1.70232 0 0 0
52 0 -4.95107 2.17037 0 0 0
53 0 -2.31355 1.98216 0 0 0
54 4.85427 -18.5937 -6.00577 -0.050702 0.038366 -0.021709
55 0 -0.789059 2.03318 0 0 0
56 0 -0.77726 2.52019 0 0 0
time 13
0 7.58967 10.8278 -3.60973 0.000934124 0 -1.06437
1 6.02794 0 0 -1.03206 0.415316 -0.560591
2 11.7344 0 0 -0.00140293 0 -0.782972
3 8.81138 -0.000449181 -0.000112534 0.0425088 0 0.000158048
4 5.77839 0.000287056 0 0.028481 0 0.000105897
5 2.23163 -0.000329018 -0.000363827 0.0140279 0 0
6 11.4725 0 0 -0.259741 -0.483963 0.589407
7 0.615221 -0.993091 -0.8107 -3.01423 0.324565 -0.386014
8 2.24752 0 0 0.0800073 0.0026471 -0.146496
9 1.11936 0 0 0.0512104 0.062516 -0.327822
10 3.71348 -0.102641 0.102192 1.38754 0.842929 0.0672859
11 1.72615 0 0 0.00945178 -0.00623858 -1.09905
12 1.21113 0 0 -0.0132693 0.0116176 -1.44917
13 3.59919 -1.06012 0.0708884 1.43601 0.24435 -0.0655281
14 1.66069 0 0 -0.037484 0.0636747 -0.726307
15 1.167 0 0 -0.0270716 0.0140958 -0.693244
16 2.18853 0.50104 0.0576596 1.55548 0.166719 0.138312
17 1.29609 0 0 -0.185212 -0.0418433 -0.654895
18 1.62202 0.000715256 -0.000470638 0.0143687 -0.0178807 -1.11
19 1.22241 0 0 -0.00702547 0.00524257 -1.42423
20 1.76707 1.27612 0.0366409 1.27805 0.322855 0.136707
21 1.55588 0 0 -0.0225086 0.0235834 -0.467635
22 1.24274 0 0 -0.000596413 0 -0.783974
23 0.784524 0 0 0.00616283 -0.000615272 -0.9415
24 2.85835 9.28793 -4.43253 0.726982 0.410583 -1.99191
25 6.02794 0 0 0.047521 0.0823313 0.229126
26 11.7344 0 0 0.00140279 0 0.910869
27 8.81167 0 0 0.83241 0 0
28 5.77884 0 0 0.557715 0 0
29 2.23249 0 0 0.274696 0 0
30 11.4725 0 0 0.862462 0.241179 -0.663218
31 0.615814 0.994373 -0.809165 -2.35227 0.0187304 0.46255
32 2.24752 0 0 -0.0459562 0.244746 0.234216
33 1.11936 0 0 -0.0408308 0.257423 0.212558
34 3.71349 0.10264 0.102191 -1.7258 1.11243 -0.263964
35 1.72615 0 0 0.00219617 0.00206201 0.928466
36 1.21112 0 0 -0.0047067 0.0169966 0.327294
37 3.5992 1.06012 0.0708883 -1.81456 1.00851 -0.246313
38 1.66069 0 0 0.00707737 0.0114629 0.775068
39 1.16699 0 0 -0.049373 -0.0470546 0.50394
40 2.18854 -0.501041 0.0576589 -1.57004 0.000184447 -0.21278
41 1.29609 0 0 -0.0358608 -0.0301294 1.06108
42 1.62202 -0.000713348 -0.000469208 -0.00103438 -0.00157671 1.01338
43 1.22241 0 0 0.0173376 0.0316406 0.340004
44 1.76707 -1.27612 0.0366409 -1.57138 0.117893 -0.216239
45 1.55587 0 0 0.00173174 -0.107165 1.01098
46 1.24273 0 0 0.000590246 -0.000104655 0.855255
47 0.784532 0 0 -0.00592618 0.000839906 1.11775
48 0 0 0 0 0 0
49 4.8833 -19.3552 -5.17164 -0.0496585 0.034871 -0.0206348
50 0 -1.51208 1.07027 0 0 0
51 0.540026 -0.371634 1.70233 0 0 0
52 0 -4.95107 2.17037 0 0 0
53 0 -2.31355 1.98216 0 0 0
54 4.86814 -18.6274 -6.03666 -0.0496585 0.034871 -0.0206348
55 0 -0.789867 2.03547 0 0 0
56 0 -0.775265 2.51286 0 0 0
time 14
0 7.58967 10.8278 -3.60973 0.000934124 0 -1.06437
1 6.02794 0 0 -1.03226 0.414449 -0.561198
2 11.7344 0 0 -0.00140285 0 -0.779086
3 8.81139 -0.000449181 -0.00011301 0.0512846 0 0.000157803
4 5.77839 0.000287056 0 0.0343607 0 0.000105947
5 2.23164 -0.000329018 -0.000364304 0.0169239 0 0
6 11.4725 0 0 -0.251567 -0.486101 0.588321
7 0.615221 -0.993092 -0.8107 -3.01423 0.324565 -0.386014
8 2.24752 0 0 0.0800073 0.00264708 -0.146496
9 1.11936 0 0 0.0512106 0.062516 -0.327822
10 3.71348 -0.102641 0.102191 1.38754 0.842929 0.067286
11 1.72615 0 0 0.00945181 -0.00623857 -1.09905
12 1.21114 0 0 -0.0132693 0.0116176 -1.44917
13 3.59919 -1.06012 0.0708883 1.436 0.244349 -0.0655281
14 1.66069 0 0 -0.037484 0.0636747 -0.726308
15 1.167 0 0 -0.0270716 0.0140958 -0.693244
16 2.18853 0.50104 0.0576591 1.55548 0.166718 0.138312
17 1.29609 0 0 -0.185212 -0.0418433 -0.654895
18 1.62202 0.000711441 -0.000471592 0.0143688 -0.0178807 -1.11
19 1.22241 0 0 -0.00702548 0.00524258 -1.42423
20 1.76707 1.27612 0.0366412 1.27805 0.322855 0.136707
21 1.55588 0 0 -0.0225086 0.0235834 -0.467635
22 1.24273 0 0 -0.000596387 0 -0.783974
23 0.784523 0 0 0.00616285 -0.000615279 -0.9415
24 2.85835 9.28793 -4.43253 0.726982 0.410583 -1.99191
25 6.02794 0 0 0.0458984 0.0834216 0.230033
26 11.7344 0 0 0.00140281 0 0.906588
27 8.81167 0 0 0.843699 0 0
28 5.77884 0 0 0.565278 0 0
29 2.23249 0 0 0.278421 0 0
30 11.4725 0 0 0.872358 0.244193 -0.657205
31 0.615812 0.994372 -0.809165 -2.35227 0.0187305 0.46255
32 2.24752 0 0 -0.0459563 0.244746 0.234216
33 1.11936 0 0 -0.0408307 0.257423 0.212558
34 3.71349 0.10264 0.102191 -1.7258 1.11243 -0.263964
35 1.72615 0 0 0.00219625 0.00206199 0.928466
36 1.21112 0 0 -0.00470672 0.0169966 0.327294
37 3.5992 1.06012 0.070888 -1.81456 1.00851 -0.246314
38 1.66069 0 0 0.00707743 0.0114628 0.775068
39 1.16699 0 0 -0.0493731 -0.0470546 0.50394
40 2.18853 -0.50104 0.0576587 -1.57004 0.000184417 -0.21278
41 1.29609 0 0 -0.0358609 -0.0301294 1.06108
42 1.62202 -0.000713348 -0.000470638 -0.00103441 -0.00157677 1.01338
43 1.22241 0 0 0.0173377 0.0316406 0.340004
44 1.76707 -1.27612 0.0366404 -1.57138 0.117892 -0.216239
45 1.55588 0 0 0.00173179 -0.107165 1.01098
46 1.24273 0 0 0.00059029 -0.00010463 0.855255
47 0.784532 0 0 -0.00592623 0.000840001 1.11775
48 0 0 0 0 0 0
49 4.89711 -19.3741 -5.20396 -0.0469383 0.0262531 -0.0179462
50 0 -1.51208 1.07027 0 0 0
51 0.540026 -0.371635 1.70232 0 0 0
52 0 -4.95108 2.17037 0 0 0
53 0 -2.31355 1.98216 0 0 0
54 4.88754 -18.6441 -6.06722 -0.0469383 0.0262531 -0.0179462
55 0 -0.790688 2.03778 0 0 0
56 0 -0.773251 2.50546 0 0 0
time 15
0 7.58967 10.8278 -3.60973 0.000934124 0 -1.06437
1 6.02794 0 0 -1.03227 0.414039 -0.561583
2 11.7344 0 0 -0.0014029 0 -0.776858
3 8.81138 -0.000450134 -0.000112534 0.0636285 0 0.000158021
4 5.77839 0.000286102 0 0.042631 0 0.000106168
5 2.23163 -0.000329018 -0.000365257 0.0209974 0 0
6 11.4725 0 0 -0.241361 -0.488813 0.589292
7 0.615221 -0.993091 -0.8107 -3.01423 0.324565 -0.386014
8 2.24752 0 0 0.0800072 0.0026471 -0.146496
9 1.11935 0 0 0.0512106 0.062516 -0.327822
10 3.71348 -0.102641 0.102191 1.38754 0.842929 0.0672861
11 1.72615 0 0 0.00945179 -0.0062386 -1.09905
12 1.21114 0 0 -0.0132694 0.0116176 -1.44917
13 3.59919 -1.06012 0.0708884 1.436 0.244349 -0.065528
14 1.66068 0 0 -0.037484 0.0636747 -0.726308
15 1.167 0 0 -0.0270716 0.0140958 -0.693244
16 2.18852 0.50104 0.0576593 1.55548 0.166718 0.138312
17 1.29609 0 0 -0.185212 -0.0418434 -0.654895
18 1.62202 0.000713348 -0.000471115 0.0143688 -0.0178808 -1.11
19 1.22241 0 0 -0.00702546 0.00524265 -1.42423
20 1.76707 1.27612 0.0366417 1.27805 0.322855 0.136708
21 1.55588 0 0 -0.0225085 0.0235834 -0.467635
22 1.24273 0 0 -0.000596373 0 -0.783974
23 0.784524 0 0 0.00616283 -0.000615272 -0.9415
24 2.85835 9.28793 -4.43253 0.726982 0.410583 -1.99191
25 6.02794 0 0 0.0441184 0.0846102 0.230072
26 11.7344 0 0 0.0014027 0 0.904152
27 8.81167 0 0 0.857471 0 0
28 5.77884 0 0 0.574505 0 0
29 2.23249 0 0 0.282965 0 0
30 11.4725 0 0 0.884614 0.248634 -0.651687
31 0.61581 0.994372 -0.809166 -2.35227 0.0187306 0.46255
32 2.24752 0 0 -0.0459563 0.244746 0.234216
33 1.11935 0 0 -0.0408306 0.257423 0.212558
34 3.71349 0.102639 0.102191 -1.7258 1.11243 -0.263964
35 1.72615 0 0 0.00219617 0.00206199 0.928466
36 1.21112 0 0 -0.00470664 0.0169966 0.327294
37 3.5992 1.06012 0.070888 -1.81456 1.00851 -0.246314
38 1.66069 0 0 0.00707752 0.0114628 0.775068
39 1.16699 0 0 -0.0493731 -0.0470546 0.50394
40 2.18853 -0.501041 0.057659 -1.57004 0.000184551 -0.21278
41 1.29609 0 0 -0.0358609 -0.0301295 1.06108
42 1.62202 -0.000713348 -0.000469208 -0.00103448 -0.0015767 1.01338
43 1.22241 0 0 0.0173377 0.0316407 0.340004
44 1.76707 -1.27612 0.0366406 -1.57138 0.117892 -0.216239
45 1.55587 0 0 0.00173174 -0.107165 1.01098
46 1.24273 0 0 0.000590353 -0.000104716 0.855255
47 0.784532 0 0 -0.00592614 0.000839966 1.11775
48 0 0 0 0 0 0
49 4.91188 -19.3827 -5.2354 -0.0431572 0.015313 -0.0144444
50 0 -1.51208 1.07027 0 0 0
51 0.540026 -0.371634 1.70233 0 0 0
52 0 -4.95108 2.17037 0 0 0
53 0 -2.31355 1.98216 0 0 0
54 4.90929 -18.6496 -6.0961 -0.0431572 0.015313 -0.0144444
55 0 -0.791513 2.04012 0 0 0
56 0 -0.771217 2.49798 0 0 0
time 16
0 7.58967 10.8278 -3.60973 0.000934124 0 -1.06437
1 6.02794 0 0 -1.03215 0.414152 -0.561622
2 11.7344 0 0 -0.00140275 0 -0.776279
3 8.81139 -0.000450134 -0.000111103 0.076123 0 0.000157796
4 5.77839 0.000286102 0 0.0510025 0 0.000105932
5 2.23164 -0.000329971 -0.00036478 0.0251206 0 0
6 11.4725 0 0 -0.231769 -0.491268 0.591883
7 0.615217 -0.993091 -0.8107 -3.01423 0.324565 -0.386014
8 2.24752 0 0 0.0800072 0.0026471 -0.146496
9 1.11935 0 0 0.0512106 0.0625161 -0.327822
10 3.71348 -0.102641 0.102191 1.38754 0.842929 0.0672856
11 1.72615 0 0 0.00945176 -0.00623858 -1.09905
12 1.21114 0 0 -0.0132693 0.0116177 -1.44917
13 3.59919 -1.06012 0.0708884 1.43601 0.244349 -0.0655282
14 1.66069 0 0 -0.037484 0.0636747 -0.726307
15 1.167 0 0 -0.0270716 0.0140958 -0.693245
16 2.18852 0.50104 0.0576589 1.55548 0.166718 0.138312
17 1.29609 0 0 -0.185212 -0.0418434 -0.654895
18 1.62202 0.000714302 -0.000470638 0.0143688 -0.0178808 -1.11
19 1.22241 0 0 -0.0070255 0.00524253 -1.42423
20 1.76707 1.27612 0.0366406 1.27805 0.322855 0.136707
21 1.55588 0 0 -0.0225086 0.0235834 -0.467635
22 1.24274 0 0 -0.000596351 0 -0.783974
23 0.784523 0 0 0.00616283 -0.000615299 -0.9415
24 2.85835 9.28793 -4.43253 0.726982 0.410583 -1.99191
25 6.02794 0 0 0.0424642 0.0857111 0.229777
26 11.7344 0 0 0.0014027 0 0.902758
27 8.81167 0 0 0.870562 0 0
28 5.77884 0 0 0.583276 0 0
29 2.23249 0 0 0.287285 0 0
30 11.4725 0 0 0.896259 0.253476 -0.647339
31 0.615812 0.994372 -0.809166 -2.35227 0.0187304 0.46255
32 2.24752 0 0 -0.0459563 0.244746 0.234216
33 1.11936 0 0 -0.0408309 0.257423 0.212558
34 3.71349 0.10264 0.102191 -1.7258 1.11243 -0.263964
35 1.72615 0 0 0.00219616 0.00206202 0.928466
36 1.21112 0 0 -0.00470668 0.0169965 0.327294
37 3.5992 1.06012 0.0708879 -1.81456 1.00851 -0.246313
38 1.66069 0 0 0.00707751 0.0114628 0.775068
39 1.16699 0 0 -0.0493731 -0.0470546 0.50394
40 2.18853 -0.50104 0.0576589 -1.57004 0.000184491 -0.21278
41 1.29609 0 0 -0.0358608 -0.0301293 1.06108
42 1.62202 -0.000713348 -0.000468731 -0.00103441 -0.0015767 1.01338
43 1.22241 0 0 0.0173376 0.0316405 0.340004
44 1.76707 -1.27612 0.0366402 -1.57138 0.117892 -0.216239
45 1.55588 0 0 0.00173171 -0.107165 1.01098
46 1.24273 0 0 0.000590343 -0.000104683 0.855255
47 0.784532 0 0 -0.00592632 0.000839916 1.11775
48 0 0 0 0 0 0
49 4.92637 -19.3862 -5.26432 -0.0389309 0.00485141 -0.0109303
50 0 -1.51208 1.07027 0 0 0
51 0.540026 -0.371635 1.70232 0 0 0
52 0 -4.95108 2.17037 0 0 0
53 0 -2.31356 1.98216 0 0 0
54 4.93026 -18.6496 -6.122 -0.0389309 0.00485141 -0.0109303
55 0 -0.792349 2.04248 0 0 0
56 0 -0.769167 2.49044 0 0 0
time 17
0 7.58967 10.8278 -3.60973 0.000934124 0 -1.06437
1 6.02794 0 0 -1.03213 0.414162 -0.561633
2 11.7344 0 0 -0.00140277 0 -0.775707
3 8.81139 -0.000449181 -0.000112057 0.0848939 0 0.000157789
4 5.77839 0.000287056 0 0.0568789 0 0.000105967
5 2.23163 -0.000329018 -0.00036478 0.028015 0 0
6 11.4725 0 0 -0.225404 -0.492595 0.594784
7 0.615221 -0.993091 -0.8107 -3.01423 0.324565 -0.386014
8 2.24752 0 0 0.0800072 0.00264717 -0.146496
9 1.11936 0 0 0.0512105 0.062516 -0.327821
10 3.71348 -0.102641 0.102191 1.38754 0.842929 0.0672859
11 1.72615 0 0 0.00945183 -0.00623855 -1.09905
12 1.21114 0 0 -0.0132693 0.0116177 -1.44917
13 3.5992 -1.06012 0.0708877 1.43601 0.244349 -0.0655281
14 1.66069 0 0 -0.037484 0.0636747 -0.726307
15 1.167 0 0 -0.0270716 0.0140957 -0.693244
16 2.18853 0.50104 0.0576588 1.55548 0.166718 0.138312
17 1.29609 0 0 -0.185212 -0.0418433 -0.654895
18 1.62202 0.000712395 -0.000472069 0.0143688 -0.0178808 -1.11
19 1.22241 0 0 -0.00702548 0.00524264 -1.42423
20 1.76707 1.27612 0.0366411 1.27805 0.322855 0.136707
21 1.55588 0 0 -0.0225085 0.0235834 -0.467635
22 1.24273 0 0 -0.000596374 0 -0.783974
23 0.784524 0 0 0.00616287 -0.000615286 -0.9415
24 2.85835 9.28793 -4.43253 0.726982 0.410583 -1.99191
25 6.02794 0 0 0.0412192 0.0865397 0.229681
26 11.7344 0 0 0.00140277 0 0.901602
27 8.81167 0 0 0.879796 0 0
28 5.77884 0 0 0.589463 0 0
29 2.23249 0 0 0.290333 0 0
30 11.4725 0 0 0.904317 0.257686 -0.64489
31 0.615812 0.994373 -0.809165 -2.35227 0.0187306 0.46255
32 2.24752 0 0 -0.0459563 0.244746 0.234216
33 1.11936 0 0 -0.0408307 0.257423 0.212558
34 3.71349 0.10264 0.102191 -1.7258 1.11243 -0.263964
35 1.72615 0 0 0.00219622 0.002062 0.928466
36 1.21112 0 0 -0.00470662 0.0169965 0.327294
37 3.5992 1.06012 0.0708884 -1.81456 1.00851 -0.246314
38 1.66069 0 0 0.00707744 0.0114628 0.775068
39 1.16699 0 0 -0.049373 -0.0470546 0.50394
40 2.18853 -0.50104 0.0576593 -1.57004 0.000184417 -0.21278
41 1.29609 0 0 -0.0358611 -0.0301294 1.06108
42 1.62202 -0.000713348 -0.000470161 -0.00103429 -0.00157687 1.01338
43 1.22241 0 0 0.0173377 0.0316405 0.340004
44 1.76707 -1.27612 0.0366404 -1.57138 0.117893 -0.216239
45 1.55587 0 0 0.00173168 -0.107165 1.01097
46 1.24273 0 0 0.00059023 -0.00010459 0.855255
47 0.784532 0 0 -0.00592621 0.000839912 1.11775
48 0 0 0 0 0 0
49 4.93934 -19.3898 -5.28906 -0.034875 -0.002331 -0.008205
50 0 -1.51208 1.07027 0 0 0
51 0.540026 -0.371634 1.70232 0 0 0
52 0 -4.95107 2.17037 0 0 0
53 0 -2.31355 1.98216 0 0 0
54 4.9474 -18.6498 -6.14376 -0.034875 -0.002331 -0.008205
55 0 -0.79319 2.04486 0 0 0
56 0 -0.767099 2.48284 0 0 0
time 18
0 7.58967 10.8278 -3.60973 0.000934124 0 -1.06437
1 6.02794 0 0 -1.03245 0.413442 -0.561948
2 11.7344 0 0 -0.00140286 0 -0.774002
3 8.81139 -0.000449181 -0.000112534 0.0891021 0 0.00015801
4 5.77839 0.000286102 0 0.0596984 0 0.000106325
5 2.23164 -0.000328064 -0.000363827 0.0294037 0 0
6 11.4725 0 0 -0.222891 -0.492383 0.597985
7 0.615221 -0.993091 -0.8107 -3.01423 0.324565 -0.386014
8 2.24752 0 0 0.0800074 0.00264715 -0.146496
9 1.11936 0 0 0.0512105 0.0625159 -0.327822
10 3.71348 -0.102641 0.102191 1.38754 0.842929 0.0672857
11 1.72615 0 0 0.00945176 -0.00623857 -1.09905
12 1.21114 0 0 -0.0132693 0.0116176 -1.44917
13 3.5992 -1.06012 0.0708872 1.436 0.24435 -0.0655281
14 1.66068 0 0 -0.037484 0.0636747 -0.726307
15 1.167 0 0 -0.0270716 0.0140958 -0.693244
16 2.18853 0.50104 0.0576588 1.55548 0.166719 0.138312
17 1.29609 0 0 -0.185212 -0.0418433 -0.654895
18 1.62202 0.000714302 -0.000471115 0.0143688 -0.0178807 -1.11
19 1.22241 0 0 -0.00702546 0.00524258 -1.42423
20 1.76707 1.27612 0.0366406 1.27804 0.322855 0.136707
21 1.55588 0 0 -0.0225085 0.0235834 -0.467635
22 1.24273 0 0 -0.0005964 0 -0.783974
23 0.784524 0 0 0.00616286 -0.000615286 -0.941499
24 2.85835 9.28793 -4.43253 0.726982 0.410583 -1.99191
25 6.02794 0 0 0.0406255 0.0869459 0.230304
26 11.7344 0 0 0.00140275 0 0.899764
27 8.81167 0 0 0.884543 0 0
28 5.77884 0 0 0.592644 0 0
29 2.23249 0 0 0.291899 0 0
30 11.4725 0 0 0.907974 0.261593 -0.64455
31 0.615814 0.994373 -0.809166 -2.35227 0.0187306 0.46255
32 2.24752 0 0 -0.0459563 0.244746 0.234216
33 1.11936 0 0 -0.0408309 0.257423 0.212558
34 3.71349 0.10264 0.102191 -1.7258 1.11243 -0.263964
35 1.72615 0 0 0.00219621 0.00206195 0.928466
36 1.21112 0 0 -0.00470667 0.0169966 0.327294
37 3.5992 1.06012 0.070888 -1.81456 1.00851 -0.246313
38 1.66069 0 0 0.00707745 0.0114628 0.775068
39 1.16699 0 0 -0.0493731 -0.0470546 0.50394
40 2.18854 -0.50104 0.057659 -1.57004 0.000184663 -0.21278
41 1.29609 0 0 -0.0358608 -0.0301295 1.06108
42 1.62202 -0.000713348 -0.000469208 -0.00103434 -0.00157677 1.01338
43 1.22241 0 0 0.0173377 0.0316405 0.340004
44 1.76707 -1.27612 0.0366406 -1.57138 0.117893 -0.216239
45 1.55588 0 0 0.00173175 -0.107165 1.01098
46 1.24273 0 0 0.000590366 -0.000104697 0.855255
47 0.784532 0 0 -0.00592614 0.000840033 1.11775
48 0 0 0 0 0 0
49 4.94952 -19.3988 -5.30797 -0.0306121 -0.00560707 -0.00630044
50 0 -1.51208 1.07027 0 0 0
51 0.540027 -0.371634 1.70233 0 0 0
52 0 -4.95107 2.17037 0 0 0
53 0 -2.31355 1.98216 0 0 0
54 4.95898 -18.6552 -6.15949 -0.0306121 -0.00560707 -0.00630044
55 0 -0.794039 2.04725 0 0 0
56 0 -0.765015 2.47517 0 0 0
time 19
0 7.58967 10.8278 -3.60973 0.000934124 0 -1.06437
1 6.02794 0 0 -1.033 0.412222 -0.56245
2 11.7344 0 0 -0.0014029 0 -0.772068
3 8.81139 -0.000448227 -0.00011158 0.0911333 0 0.000157813
4 5.77839 0.000287056 0 0.0610594 0 0.000106304
5 2.23163 -0.000328064 -0.00036335 0.030074 0 0
6 11.4725 0 0 -0.222689 -0.491069 0.602505
7 0.615221 -0.993092 -0.8107 -3.01423 0.324565 -0.386014
8 2.24752 0 0 0.0800072 0.0026472 -0.146496
9 1.11936 0 0 0.0512105 0.0625159 -0.327821
10 3.71348 -0.102641 0.102191 1.38754 0.842929 0.0672856
11 1.72615 0 0 0.00945177 -0.00623857 -1.09905
12 1.21114 0 0 -0.0132693 0.0116176 -1.44917
13 3.59919 -1.06012 0.0708879 1.436 0.244349 -0.065528
14 1.66069 0 0 -0.037484 0.0636747 -0.726308
15 1.167 0 0 -0.0270717 0.0140959 -0.693244
16 2.18853 0.50104 0.057659 1.55548 0.166719 0.138312
17 1.29609 0 0 -0.185212 -0.0418434 -0.654895
18 1.62202 0.000713348 -0.000471115 0.0143687 -0.0178808 -1.11
19 1.22241 0 0 -0.00702546 0.00524262 -1.42423
20 1.76707 1.27612 0.0366408 1.27804 0.322855 0.136707
21 1.55588 0 0 -0.0225085 0.0235834 -0.467635
22 1.24273 0 0 -0.000596405 0 -0.783974
23 0.784523 0 0 0.00616284 -0.000615259 -0.9415
24 2.85835 9.28793 -4.43253 0.726982 0.410583 -1.99191
25 6.02794 0 0 0.040596 0.086983 0.231294
26 11.7344 0 0 0.00140283 0 0.897932
27 8.81167 0 0 0.886621 0 0
28 5.77884 0 0 0.594036 0 0
29 2.23249 0 0 0.292585 0 0
30 11.4725 0 0 0.9089 0.266025 -0.646215
31 0.615812 0.994372 -0.809165 -2.35227 0.0187306 0.46255
32 2.24752 0 0 -0.0459564 0.244746 0.234216
33 1.11936 0 0 -0.0408308 0.257423 0.212558
34 3.71348 0.10264 0.102191 -1.7258 1.11243 -0.263964
35 1.72615 0 0 0.00219626 0.00206193 0.928466
36 1.21112 0 0 -0.00470665 0.0169966 0.327294
37 3.5992 1.06012 0.0708884 -1.81456 1.00851 -0.246313
38 1.66069 0 0 0.00707747 0.0114628 0.775068
39 1.16699 0 0 -0.0493731 -0.0470545 0.50394
40 2.18853 -0.501041 0.0576591 -1.57004 0.000184737 -0.21278
41 1.29609 0 0 -0.0358609 -0.0301294 1.06108
42 1.62202 -0.000715256 -0.000470638 -0.00103432 -0.00157675 1.01338
43 1.22241 0 0 0.0173376 0.0316405 0.340004
44 1.76707 -1.27612 0.0366408 -1.57138 0.117893 -0.216239
45 1.55588 0 0 0.00173174 -0.107165 1.01098
46 1.24273 0 0 0.000590217 -0.000104584 0.855255
47 0.784531 0 0 -0.00592619 0.000839944 1.11775
48 0 0 0 0 0 0
49 4.95724 -19.4091 -5.32023 -0.0256057 -0.00663491 -0.00469319
50 0 -1.51208 1.07027 0 0 0
51 0.540026 -0.371632 1.70233 0 0 0
52 0 -4.95107 2.17037 0 0 0
53 0 -2.31355 1.98216 0 0 0
54 4.96638 -18.6612 -6.16801 -0.0256057 -0.00663491 -0.00469319
55 0 -0.794891 2.04966 0 0 0
56 0 -0.762917 2.46746 0 0 0
time 20
0 7.58967 10.8278 -3.60973 0.000934124 0 -1.06437
1 6.02794 0 0 -1.03353 0.411294 -0.562692
2 11.7344 0 0 -0.00140292 0 -0.771484
3 8.81138 -0.000450134 -0.00011158 0.0919852 0 0.000158032
4 5.77839 0.000286102 0 0.06163 0 0.000106402
5 2.23163 -0.000329971 -0.00036335 0.0303551 0 0
6 11.4725 0 0 -0.224137 -0.489021 0.608563
7 0.615221 -0.993092 -0.8107 -3.01424 0.324565 -0.386014
8 2.24752 0 0 0.0800072 0.0026471 -0.146496
9 1.11936 0 0 0.0512106 0.062516 -0.327821
10 3.71348 -0.102641 0.10219 1.38754 0.842929 0.0672861
11 1.72615 0 0 0.00945176 -0.00623852 -1.09905
12 1.21114 0 0 -0.0132693 0.0116177 -1.44917
13 3.59919 -1.06012 0.0708874 1.43601 0.24435 -0.065528
14 1.66069 0 0 -0.037484 0.0636747 -0.726307
15 1.167 0 0 -0.0270716 0.0140958 -0.693245
16 2.18852 0.501039 0.0576588 1.55548 0.166718 0.138312
17 1.2961 0 0 -0.185212 -0.0418433 -0.654895
18 1.62202 0.000713348 -0.000471592 0.0143688 -0.0178808 -1.11
19 1.22241 0 0 -0.00702543 0.00524254 -1.42423
20 1.76707 1.27612 0.0366409 1.27805 0.322855 0.136707
21 1.55588 0 0 -0.0225086 0.0235834 -0.467635
22 1.24274 0 0 -0.000596376 0 -0.783974
23 0.784523 0 0 0.00616287 -0.000615239 -0.941499
24 2.85835 9.28793 -4.43253 0.726982 0.410583 -1.99191
25 6.02794 0 0 0.0408873 0.0867984 0.231984
26 11.7344 0 0 0.00140265 0 0.89739
27 8.81167 0 0 0.886593 0 0
28 5.77884 0 0 0.594017 0 0
29 2.23249 0 0 0.292576 0 0
30 11.4725 0 0 0.90788 0.270643 -0.649958
31 0.61581 0.994372 -0.809165 -2.35227 0.0187306 0.46255
32 2.24752 0 0 -0.0459564 0.244746 0.234216
33 1.11936 0 0 -0.0408306 0.257423 0.212558
34 3.71349 0.10264 0.102191 -1.7258 1.11243 -0.263963
35 1.72615 0 0 0.00219624 0.00206189 0.928466
36 1.21112 0 0 -0.00470671 0.0169966 0.327294
37 3.5992 1.06012 0.0708882 -1.81456 1.00851 -0.246313
38 1.66069 0 0 0.00707738 0.0114628 0.775068
39 1.16699 0 0 -0.0493731 -0.0470546 0.50394
40 2.18853 -0.50104 0.057659 -1.57004 0.000184633 -0.21278
41 1.29609 0 0 -0.0358608 -0.0301294 1.06108
42 1.62202 -0.000715256 -0.000468731 -0.00103435 -0.00157672 1.01338
43 1.22241 0 0 0.0173376 0.0316405 0.340004
44 1.76707 -1.27612 0.0366402 -1.57138 0.117893 -0.216239
45 1.55588 0 0 0.00173186 -0.107165 1.01098
46 1.24273 0 0 0.000590167 -0.000104541 0.855255
47 0.784532 0 0 -0.00592615 0.000839844 1.11775
48 0 0 0 0 0 0
49 4.96375 -19.4135 -5.32672 -0.0202335 -0.00604164 -0.00335135
50 0 -1.51208 1.07027 0 0 0
51 0.540026 -0.371635 1.70232 0 0 0
52 0 -4.95107 2.17037 0 0 0
53 0 -2.31355 1.98216 0 0 0
54 4.97137 -18.661 -6.17048 -0.0202335 -0.00604164 -0.00335135
55 0 -0.795752 2.05209 0 0 0
56 0 -0.760803 2.45969 0 0 0
time 21
0 7.58967 10.8278 -3.60973 0.000934124 0 -1.06437
1 6.02794 0 0 -1.03401 0.410665 -0.562704
2 11.7344 0 0 -0.00140293 0 -0.77204
3 8.81138 -0.000450134 -0.000112534 0.0921479 0 0.000157827
4 5.77839 0.000286102 0 0.061739 0 0.000106134
5 2.23163 -0.000329971 -0.000363827 0.030409 0 0
6 11.4725 0 0 -0.226531 -0.486572 0.615463
7 0.615221 -0.993091 -0.8107 -3.01423 0.324565 -0.386014
8 2.24752 0 0 0.0800074 0.00264715 -0.146496
9 1.11936 0 0 0.0512105 0.062516 -0.327821
10 3.71348 -0.102641 0.102191 1.38754 0.842929 0.0672857
11 1.72615 0 0 0.00945175 -0.00623859 -1.09905
12 1.21114 0 0 -0.0132693 0.0116177 -1.44917
13 3.59919 -1.06012 0.0708874 1.43601 0.244349 -0.065528
14 1.66069 0 0 -0.037484 0.0636747 -0.726307
15 1.167 0 0 -0.0270716 0.0140957 -0.693244
16 2.18853 0.50104 0.0576589 1.55548 0.166718 0.138312
17 1.29609 0 0 -0.185212 -0.0418433 -0.654895
18 1.62202 0.000713348 -0.000471115 0.0143687 -0.0178807 -1.11
19 1.22241 0 0 -0.00702545 0.00524257 -1.42423
20 1.76707 1.27612 0.0366412 1.27805 0.322855 0.136707
21 1.55588 0 0 -0.0225085 0.0235834 -0.467635
22 1.24273 0 0 -0.000596418 0 -0.783974
23 0.784523 0 0 0.00616284 -0.000615253 -0.9415
24 2.85835 9.28793 -4.43253 0.726982 0.410583 -1.99191
25 6.02794 0 0 0.0413885 0.0864723 0.232393
26 11.7344 0 0 0.00140268 0 0.897893
27 8.81167 0 0 0.885184 0 0
28 5.77884 0 0 0.593073 0 0
29 2.23249 0 0 0.292111 0 0
30 11.4725 0 0 0.905642 0.275164 -0.655021
31 0.615814 0.994373 -0.809165 -2.35227 0.0187304 0.46255
32 2.24752 0 0 -0.0459563 0.244746 0.234216
33 1.11936 0 0 -0.0408308 0.257423 0.212558
34 3.71349 0.10264 0.102191 -1.7258 1.11243 -0.263964
35 1.72615 0 0 0.00219622 0.00206194 0.928466
36 1.21112 0 0 -0.00470662 0.0169966 0.327294
37 3.5992 1.06012 0.0708884 -1.81456 1.00851 -0.246313
38 1.66069 0 0 0.00707745 0.0114628 0.775068
39 1.16699 0 0 -0.0493731 -0.0470545 0.50394
40 2.18853 -0.50104 0.0576593 -1.57004 0.000184476 -0.21278
41 1.29609 0 0 -0.0358609 -0.0301294 1.06108
42 1.62202 -0.000713348 -0.000470638 -0.00103441 -0.00157669 1.01338
43 1.22241 0 0 0.0173377 0.0316406 0.340004
44 1.76707 -1.27612 0.0366405 -1.57138 0.117892 -0.21624
45 1.55587 0 0 0.00173181 -0.107165 1.01098
46 1.24273 0 0 0.000590302 -0.000104611 0.855255
47 0.784532 0 0 -0.00592626 0.000839997 1.11775
48 0 0 0 0 0 0
49 4.96921 -19.413 -5.32835 -0.014873 -0.00445438 -0.00224302
50 0 -1.51208 1.07027 0 0 0
51 0.540027 -0.371635 1.70233 0 0 0
52 0 -4.95108 2.17037 0 0 0
53 0 -2.31355 1.98216 0 0 0
54 4.97465 -18.656 -6.16807 -0.014873 -0.00445438 -0.00224302
55 0 -0.796616 2.05453 0 0 0
56 0 -0.75868 2.45189 0 0 0
time 22
0 7.58967 10.8278 -3.60973 0.000934124 0 -1.06437
1 6.02794 0 0 -1.03442 0.410339 -0.562513
2 11.7344 0 0 -0.00140291 0 -0.773519
3 8.81138 -0.000450134 -0.000112534 0.0921116 0 0.00015764
4 5.77839 0.000286102 0 0.0617147 0 0.000106016
5 2.23163 -0.000329971 -0.000363827 0.0303969 0 0
6 11.4725 0 0 -0.229177 -0.484069 0.622521
7 0.615217 -0.993091 -0.8107 -3.01423 0.324565 -0.386014
8 2.24752 0 0 0.0800073 0.00264721 -0.146496
9 1.11935 0 0 0.0512105 0.0625159 -0.327821
10 3.71348 -0.102641 0.102191 1.38754 0.842929 0.0672857
11 1.72615 0 0 0.00945178 -0.00623856 -1.09905
12 1.21114 0 0 -0.0132693 0.0116177 -1.44917
13 3.59919 -1.06012 0.070888 1.43601 0.24435 -0.0655281
14 1.66069 0 0 -0.037484 0.0636747 -0.726308
15 1.167 0 0 -0.0270716 0.0140958 -0.693244
16 2.18852 0.50104 0.0576588 1.55548 0.166719 0.138312
17 1.29609 0 0 -0.185212 -0.0418434 -0.654895
18 1.62202 0.000712395 -0.000471592 0.0143688 -0.0178807 -1.11
19 1.22241 0 0 -0.00702546 0.00524256 -1.42423
20 1.76707 1.27612 0.0366409 1.27805 0.322855 0.136707
21 1.55587 0 0 -0.0225085 0.0235833 -0.467635
22 1.24274 0 0 -0.000596412 0 -0.783974
23 0.784523 0 0 0.00616283 -0.000615298 -0.9415
24 2.85835 9.28793 -4.43253 0.726982 0.410583 -1.99191
25 6.02794 0 0 0.0419765 0.0860792 0.232535
26 11.7344 0 0 0.0014027 0 0.899204
27 8.81167 0 0 0.883136 0 0
28 5.77884 0 0 0.591701 0 0
29 2.23249 0 0 0.291435 0 0
30 11.4725 0 0 0.902939 0.279325 -0.660624
31 0.615814 0.994372 -0.809165 -2.35227 0.0187305 0.46255
32 2.24752 0 0 -0.0459564 0.244746 0.234216
33 1.11935 0 0 -0.0408309 0.257423 0.212558
34 3.71349 0.10264 0.102191 -1.7258 1.11243 -0.263964
35 1.72615 0 0 0.00219625 0.00206189 0.928466
36 1.21112 0 0 -0.00470668 0.0169966 0.327294
37 3.5992 1.06012 0.0708882 -1.81456 1.00851 -0.246313
38 1.66069 0 0 0.00707753 0.0114627 0.775068
39 1.16699 0 0 -0.049373 -0.0470545 0.50394
40 2.18853 -0.50104 0.0576589 -1.57004 0.000184417 -0.21278
41 1.29609 0 0 -0.035861 -0.0301293 1.06108
42 1.62202 -0.000711441 -0.000470638 -0.00103444 -0.00157673 1.01338
43 1.22241 0 0 0.0173377 0.0316407 0.340004
44 1.76707 -1.27612 0.0366404 -1.57138 0.117892 -0.216239
45 1.55588 0 0 0.00173182 -0.107165 1.01098
46 1.24273 0 0 0.000590325 -0.00010467 0.855255
47 0.784533 0 0 -0.00592619 0.000839998 1.11775
48 0 0 0 0 0 0
49 4.97381 -19.4083 -5.32601 -0.00990175 -0.00250027 -0.00133628
50 0 -1.51208 1.07027 0 0 0
51 0.540026 -0.371634 1.70233 0 0 0
52 0 -4.95108 2.17037 0 0 0
53 0 -2.31356 1.98216 0 0 0
54 4.97692 -18.6471 -6.16196 -0.00990175 -0.00250027 -0.00133628
55 0 -0.797482 2.05699 0 0 0
56 0 -0.756544 2.44404 0 0 0
time 23
0 7.58967 10.8278 -3.60973 0.000934124 0 -1.06437
1 6.02794 0 0 -1.03471 0.410327 -0.562151
2 11.7344 0 0 -0.0014029 0 -0.775714
3 8.81139 -0.000449181 -0.000112534 0.0923756 0 0.000158044
4 5.77839 0.000287056 0 0.0618916 0 0.00010614
5 2.23164 -0.000329018 -0.00036478 0.0304841 0 0
6 11.4725 0 0 -0.231398 -0.481877 0.629074
7 0.615219 -0.993091 -0.8107 -3.01423 0.324565 -0.386014
8 2.24752 0 0 0.0800072 0.0026471 -0.146496
9 1.11936 0 0 0.0512106 0.062516 -0.327821
10 3.71348 -0.102641 0.102191 1.38754 0.842929 0.0672859
11 1.72615 0 0 0.00945183 -0.00623855 -1.09905
12 1.21114 0 0 -0.0132693 0.0116176 -1.44917
13 3.59919 -1.06012 0.0708876 1.436 0.244349 -0.0655281
14 1.66069 0 0 -0.037484 0.0636747 -0.726308
15 1.167 0 0 -0.0270716 0.0140958 -0.693244
16 2.18852 0.50104 0.0576593 1.55548 0.166718 0.138312
17 1.29609 0 0 -0.185212 -0.0418434 -0.654895
18 1.62202 0.000713348 -0.000471592 0.0143688 -0.0178807 -1.11
19 1.22241 0 0 -0.00702547 0.00524257 -1.42423
20 1.76707 1.27612 0.036641 1.27804 0.322855 0.136707
21 1.55588 0 0 -0.0225085 0.0235834 -0.467635
22 1.24274 0 0 -0.000596355 0 -0.783974
23 0.784523 0 0 0.00616285 -0.000615332 -0.9415
24 2.85835 9.28793 -4.43253 0.726982 0.410583 -1.99191
25 6.02794 0 0 0.0425425 0.0856989 0.232425
26 11.7344 0 0 0.00140264 0 0.901085
27 8.81167 0 0 0.881178 0 0
28 5.77884 0 0 0.590389 0 0
29 2.23249 0 0 0.290789 0 0
30 11.4725 0 0 0.900519 0.282876 -0.665979
31 0.615812 0.994373 -0.809165 -2.35227 0.0187304 0.46255
32 2.24752 0 0 -0.0459565 0.244746 0.234216
33 1.11936 0 0 -0.0408308 0.257423 0.212558
34 3.71349 0.10264 0.102191 -1.7258 1.11243 -0.263964
35 1.72615 0 0 0.00219627 0.00206196 0.928466
36 1.21112 0 0 -0.00470656 0.0169967 0.327294
37 3.5992 1.06012 0.070888 -1.81456 1.00851 -0.246313
38 1.66069 0 0 0.00707738 0.0114628 0.775068
39 1.16699 0 0 -0.049373 -0.0470546 0.50394
40 2.18853 -0.50104 0.0576589 -1.57004 0.000184566 -0.21278
41 1.29609 0 0 -0.035861 -0.0301294 1.06108
42 1.62202 -0.000713348 -0.000470638 -0.00103448 -0.00157674 1.01338
43 1.22241 0 0 0.0173377 0.0316405 0.340004
44 1.76707 -1.27612 0.0366406 -1.57138 0.117893 -0.216239
45 1.55588 0 0 0.00173178 -0.107165 1.01098
46 1.24273 0 0 0.00059017 -0.000104551 0.855255
47 0.784532 0 0 -0.00592612 0.000840007 1.11775
48 0 0 0 0 0 0
49 4.97771 -19.4003 -5.32059 -0.00569723 -0.000806435 -0.000599248
50 0 -1.51208 1.07027 0 0 0
51 0.540026 -0.371634 1.70233 0 0 0
52 0 -4.95108 2.17037 0 0 0
53 0 -2.31355 1.98216 0 0 0
54 4.97884 -18.6356 -6.15334 -0.00569723 -0.000806435 -0.000599248
55 0 -0.798355 2.05945 0 0 0
56 0 -0.754402 2.43615 0 0 0
time 24
0 7.58967 10.8278 -3.60973 0.000934124 0 -1.06437
1 6.02794 0 0 -1.03482 0.410854 -0.561508
2 11.7344 0 0 -0.00140298 0 -0.778931
3 8.81138 -0.000449181 -0.000112534 0.0935887 0 0.000157981
4 5.77839 0.00028801 0 0.0627044 0 0.000106136
5 2.23163 -0.000328064 -0.000364304 0.0308844 0 0
6 11.4725 0 0 -0.232531 -0.480372 0.634731
7 0.615221 -0.993092 -0.810701 -3.01423 0.324565 -0.386014
8 2.24752 0 0 0.0800071 0.00264713 -0.146496
9 1.11936 0 0 0.0512107 0.062516 -0.327821
10 3.71348 -0.102641 0.102191 1.38754 0.842929 0.0672859
11 1.72615 0 0 0.00945174 -0.00623861 -1.09905
12 1.21114 0 0 -0.0132693 0.0116177 -1.44917
13 3.59919 -1.06012 0.0708879 1.436 0.244349 -0.065528
14 1.66069 0 0 -0.0374841 0.0636747 -0.726308
15 1.167 0 0 -0.0270716 0.0140958 -0.693244
16 2.18853 0.50104 0.0576589 1.55548 0.166718 0.138312
17 1.29609 0 0 -0.185212 -0.0418434 -0.654895
18 1.62202 0.000714302 -0.000470638 0.0143687 -0.0178807 -1.11
19 1.22241 0 0 -0.00702545 0.00524264 -1.42423
20 1.76707 1.27612 0.0366409 1.27805 0.322855 0.136707
21 1.55588 0 0 -0.0225086 0.0235834 -0.467635
22 1.24274 0 0 -0.000596462 0 -0.783974
23 0.784524 0 0 0.00616288 -0.000615326 -0.9415
24 2.85835 9.28793 -4.43253 0.726982 0.410583 -1.99191
25 6.02794 0 0 0.0429688 0.0854057 0.232068
26 11.7344 0 0 0.00140275 0 0.90331
27 8.81167 0 0 0.88005 0 0
28 5.77884 0 0 0.589634 0 0
29 2.23249 0 0 0.290416 0 0
30 11.4725 0 0 0.899146 0.285584 -0.670289
31 0.615812 0.994373 -0.809165 -2.35227 0.0187305 0.46255
32 2.24752 0 0 -0.0459564 0.244746 0.234216
33 1.11936 0 0 -0.0408307 0.257423 0.212558
34 3.71349 0.102639 0.10219 -1.7258 1.11243 -0.263964
35 1.72615 0 0 0.0021963 0.00206196 0.928466
36 1.21112 0 0 -0.00470672 0.0169966 0.327294
37 3.5992 1.06012 0.070888 -1.81456 1.00851 -0.246313
38 1.66069 0 0 0.00707747 0.0114628 0.775068
39 1.16699 0 0 -0.0493731 -0.0470546 0.50394
40 2.18853 -0.50104 0.0576587 -1.57004 0.000184596 -0.212779
41 1.29609 0 0 -0.0358608 -0.0301294 1.06108
42 1.62202 -0.000713348 -0.000469208 -0.00103435 -0.00157673 1.01338
43 1.22241 0 0 0.0173377 0.0316405 0.340004
44 1.76707 -1.27612 0.0366402 -1.57138 0.117892 -0.216239
45 1.55588 0 0 0.00173184 -0.107165 1.01098
46 1.24273 0 0 0.000590266 -0.000104619 0.855255
47 0.784532 0 0 -0.00592618 0.000840074 1.11775
48 0 0 0 0 0 0
49 4.98109 -19.3897 -5.31299 -0.002637 0 0
50 0 -1.51208 1.07027 0 0 0
51 0.540026 -0.371632 1.70232 0 0 0
52 0 -4.95107 2.17037 0 0 0
53 0 -2.31355 1.98216 0 0 0
54 4.98109 -18.6224 -6.14339 -0.002637 0 0
55 0 -0.799236 2.06193 0 0 0
56 0 -0.752249 2.42824 0 0 0
time 25
0 7.58967 10.8278 -3.60973 0.000934124 0 -1.06437
1 6.02794 0 0 -1.03484 0.41146 -0.560896
2 11.7344 0 0 -0.0014028 0 -0.781872
3 8.81139 -0.000450134 -0.00011158 0.095069 0 0.000157964
4 5.77839 0.000286102 0 0.0636962 0 0.000106252
5 2.23163 -0.000329971 -0.000364304 0.0313729 0 0
6 11.4725 0 0 -0.232737 -0.479609 0.638511
7 0.615221 -0.993091 -0.8107 -3.01423 0.324565 -0.386014
8 2.24752 0 0 0.0800073 0.00264702 -0.146496
9 1.11936 0 0 0.0512105 0.062516 -0.327822
10 3.71348 -0.102641 0.102191 1.38754 0.842929 0.0672861
11 1.72615 0 0 0.00945176 -0.00623857 -1.09905
12 1.21114 0 0 -0.0132693 0.0116177 -1.44917
13 3.59919 -1.06012 0.0708884 1.436 0.244349 -0.0655281
14 1.66068 0 0 -0.037484 0.0636747 -0.726307
15 1.167 0 0 -0.0270717 0.0140959 -0.693245
16 2.18852 0.50104 0.057659 1.55548 0.166718 0.138312
17 1.29609 0 0 -0.185212 -0.0418434 -0.654895
18 1.62202 0.000714302 -0.000470638 0.0143689 -0.0178808 -1.11
19 1.22241 0 0 -0.00702548 0.00524254 -1.42423
20 1.76707 1.27612 0.0366412 1.27805 0.322855 0.136707
21 1.55588 0 0 -0.0225086 0.0235835 -0.467635
22 1.24274 0 0 -0.000596422 0 -0.783974
23 0.784524 0 0 0.00616286 -0.000615225 -0.9415
24 2.85835 9.28793 -4.43253 0.726982 0.410583 -1.99191
25 6.02794 0 0 0.0432215 0.0852294 0.231499
26 11.7344 0 0 0.00140273 0 0.905721
27 8.81167 0 0 0.879565 0 0
28 5.77884 0 0 0.589309 0 0
29 2.23249 0 0 0.290257 0 0
30 11.4725 0 0 0.898687 0.287168 -0.67332
31 0.615812 0.994372 -0.809166 -2.35227 0.0187303 0.46255
32 2.24752 0 0 -0.0459564 0.244746 0.234216
33 1.11935 0 0 -0.0408308 0.257423 0.212558
34 3.71348 0.102639 0.102191 -1.7258 1.11243 -0.263964
35 1.72615 0 0 0.00219627 0.00206186 0.928466
36 1.21112 0 0 -0.0047067 0.0169966 0.327294
37 3.5992 1.06012 0.0708883 -1.81456 1.00851 -0.246314
38 1.66069 0 0 0.00707751 0.0114628 0.775068
39 1.16699 0 0 -0.0493731 -0.0470546 0.50394
40 2.18853 -0.50104 0.0576588 -1.57004 0.000184387 -0.21278
41 1.29609 0 0 -0.0358609 -0.0301294 1.06108
42 1.62202 -0.000713348 -0.000469685 -0.00103436 -0.00157667 1.01338
43 1.22241 0 0 0.0173376 0.0316406 0.340004
44 1.76707 -1.27612 0.0366404 -1.57138 0.117892 -0.216239
45 1.55587 0 0 0.00173171 -0.107165 1.01098
46 1.24273 0 0 0.00059023 -0.000104635 0.855255
47 0.784532 0 0 -0.0059261 0.000840036 1.11775
48 0 0 0 0 0 0
49 4.98411 -19.3774 -5.30411 -0.00098435 0.000106731 0.000375687
50 0 -1.51208 1.07027 0 0 0
51 0.540026 -0.37163 1.70233 0 0 0
52 0 -4.95107 2.17037 0 0 0
53 0 -2.31355 1.98216 0 0 0
54 4.98374 -18.6088 -6.13324 -0.00098435 0.000106731 0.000375687
55 0 -0.800114 2.06441 0 0 0
56 0 -0.750088 2.4203 0 0 0
time 26
0 7.58967 10.8278 -3.60973 0.000934124 0 -1.06437
1 6.02794 0 0 -1.03474 0.412328 -0.56017
2 11.7344 0 0 -0.0014029 0 -0.784993
3 8.81138 -0.000450134 -0.00011301 0.0963299 0 0.000157816
4 5.77839 0.000286102 0 0.064541 0 0.000106263
5 2.23163 -0.000329971 -0.00036478 0.0317889 0 0
6 11.4725 0 0 -0.232684 -0.479257 0.641024
7 0.615219 -0.993091 -0.8107 -3.01423 0.324565 -0.386014
8 2.24752 0 0 0.0800072 0.00264729 -0.146496
9 1.11936 0 0 0.0512106 0.062516 -0.327822
10 3.71348 -0.102641 0.102191 1.38754 0.842929 0.0672861
11 1.72615 0 0 0.0094518 -0.00623853 -1.09905
12 1.21114 0 0 -0.0132693 0.0116177 -1.44917
13 3.59919 -1.06012 0.0708879 1.436 0.24435 -0.065528
14 1.66068 0 0 -0.037484 0.0636747 -0.726308
15 1.167 0 0 -0.0270716 0.0140958 -0.693245
16 2.18853 0.501039 0.057659 1.55548 0.166718 0.138312
17 1.29609 0 0 -0.185212 -0.0418434 -0.654895
18 1.62202 0.000713348 -0.000470638 0.0143687 -0.0178808 -1.11
19 1.22241 0 0 -0.00702546 0.00524258 -1.42423
20 1.76707 1.27612 0.0366414 1.27805 0.322855 0.136707
21 1.55588 0 0 -0.0225085 0.0235834 -0.467635
22 1.24274 0 0 -0.000596473 0 -0.783974
23 0.784523 0 0 0.00616289 -0.000615213 -0.941499
24 2.85835 9.28793 -4.43253 0.726982 0.410583 -1.99191
25 6.02794 0 0 0.0433492 0.0851338 0.230798
26 11.7344 0 0 0.00140266 0 0.908229
27 8.81167 0 0 0.879079 0 0
28 5.77884 0 0 0.588983 0 0
29 2.23249 0 0 0.290096 0 0
30 11.4725 0 0 0.898469 0.287753 -0.675554
31 0.615812 0.994372 -0.809165 -2.35227 0.0187304 0.46255
32 2.24752 0 0 -0.0459564 0.244746 0.234216
33 1.11936 0 0 -0.0408308 0.257423 0.212558
34 3.71349 0.102639 0.102191 -1.7258 1.11243 -0.263964
35 1.72615 0 0 0.00219625 0.00206192 0.928466
36 1.21112 0 0 -0.00470657 0.0169966 0.327294
37 3.5992 1.06012 0.0708883 -1.81456 1.00851 -0.246313
38 1.66069 0 0 0.00707743 0.0114629 0.775068
39 1.16699 0 0 -0.049373 -0.0470546 0.50394
40 2.18853 -0.50104 0.0576591 -1.57004 0.000184365 -0.212779
41 1.29609 0 0 -0.0358609 -0.0301293 1.06108
42 1.62202 -0.000715256 -0.000469685 -0.00103438 -0.00157674 1.01338
43 1.22241 0 0 0.0173376 0.0316406 0.340004
44 1.76707 -1.27612 0.0366404 -1.57138 0.117892 -0.216239
45 1.55588 0 0 0.00173182 -0.107165 1.01098
46 1.24273 0 0 0.000590264 -0.000104614 0.855255
47 0.784531 0 0 -0.00592624 0.00083992 1.11775
48 0 0 0 0 0 0
49 4.98696 -19.3641 -5.29483 -0.000439568 0.000136615 0.000480879
50 0 -1.51208 1.07027 0 0 0
51 0.540026 -0.371635 1.70233 0 0 0
52 0 -4.95107 2.17037 0 0 0
53 0 -2.31356 1.98216 0 0 0
54 4.98648 -18.5951 -6.12354 -0.000439568 0.000136615 0.000480879
55 0 -0.800995 2.0669 0 0 0
56 0 -0.747923 2.41233 0 0 0
time 27
0 7.58967 10.8278 -3.60973 0.000934124 0 -1.06437
1 6.02794 0 0 -1.03458 0.41334 -0.559385
2 11.7344 0 0 -0.00140272 0 -0.788124
3 8.81139 -0.000450134 -0.000112534 0.0974102 0 0.000157932
4 5.77839 0.000287056 0 0.0652649 0 0.000106314
5 2.23164 -0.000329018 -0.00036335 0.0321453 0 0
6 11.4725 0 0 -0.232469 -0.479128 0.642708
7 0.615219 -0.993091 -0.8107 -3.01423 0.324565 -0.386014
8 2.24752 0 0 0.0800073 0.00264708 -0.146496
9 1.11936 0 0 0.0512105 0.062516 -0.327822
10 3.71348 -0.102641 0.102191 1.38754 0.842929 0.0672863
11 1.72615 0 0 0.00945181 -0.00623858 -1.09905
12 1.21114 0 0 -0.0132693 0.0116177 -1.44917
13 3.59919 -1.06012 0.0708886 1.43601 0.24435 -0.065528
14 1.66069 0 0 -0.0374841 0.0636747 -0.726307
15 1.167 0 0 -0.0270716 0.0140959 -0.693245
16 2.18852 0.50104 0.0576597 1.55548 0.166719 0.138312
17 1.29609 0 0 -0.185212 -0.0418434 -0.654895
18 1.62202 0.000713348 -0.000470161 0.0143687 -0.0178808 -1.11
19 1.22241 0 0 -0.00702554 0.00524258 -1.42423
20 1.76707 1.27612 0.0366411 1.27805 0.322855 0.136707
21 1.55588 0 0 -0.0225085 0.0235834 -0.467635
22 1.24274 0 0 -0.000596422 0 -0.783974
23 0.784523 0 0 0.00616287 -0.000615239 -0.9415
24 2.85835 9.28793 -4.43253 0.726982 0.410583 -1.99191
25 6.02794 0 0 0.0433818 0.0851027 0.230034
26 11.7344 0 0 0.00140265 0 0.910717
27 8.81167 0 0 0.878615 0 0
28 5.77884 0 0 0.588672 0 0
29 2.23249 0 0 0.289943 0 0
30 11.4725 0 0 0.898422 0.28772 -0.677268
31 0.615814 0.994373 -0.809165 -2.35227 0.0187305 0.46255
32 2.24752 0 0 -0.0459563 0.244746 0.234216
33 1.11935 0 0 -0.0408309 0.257423 0.212558
34 3.71349 0.10264 0.102191 -1.7258 1.11243 -0.263964
35 1.72615 0 0 0.00219633 0.0020619 0.928466
36 1.21112 0 0 -0.00470669 0.0169965 0.327294
37 3.5992 1.06012 0.0708882 -1.81456 1.00851 -0.246313
38 1.66069 0 0 0.00707749 0.0114628 0.775068
39 1.16699 0 0 -0.0493732 -0.0470546 0.50394
40 2.18853 -0.501041 0.0576591 -1.57004 0.000184596 -0.21278
41 1.29609 0 0 -0.035861 -0.0301294 1.06108
42 1.62202 -0.000711441 -0.000470638 -0.00103435 -0.00157676 1.01338
43 1.22241 0 0 0.0173375 0.0316406 0.340004
44 1.76707 -1.27612 0.0366405 -1.57138 0.117893 -0.21624
45 1.55588 0 0 0.00173194 -0.107165 1.01097
46 1.24273 0 0 0.000590249 -0.000104648 0.855255
47 0.784533 0 0 -0.00592613 0.000839991 1.11775
48 0 0 0 0 0 0
49 4.9898 -19.3508 -5.28605 -0.000535698 0.000115269 0.000405742
50 0 -1.51208 1.07027 0 0 0
51 0.540026 -0.371635 1.70233 0 0 0
52 0 -4.95107 2.17037 0 0 0
53 0 -2.31355 1.98216 0 0 0
54 4.98939 -18.5818 -6.11484 -0.000535698 0.000115269 0.000405742
55 0 -0.801878 2.06939 0 0 0
56 0 -0.74575 2.40435 0 0 0
time 28
0 7.58967 10.8278 -3.60973 0.000934124 0 -1.06437
1 6.02794 0 0 -1.0344 0.414376 -0.558598
2 11.7344 0 0 -0.00140289 0 -0.791096
3 8.81138 -0.000448227 -0.000112534 0.0983456 0 0.000157696
4 5.77839 0.000287056 0 0.0658915 0 0.000106143
5 2.23163 -0.000328064 -0.000364304 0.0324541 0 0
6 11.4725 0 0 -0.23219 -0.47903 0.643998
7 0.615219 -0.993091 -0.8107 -3.01423 0.324565 -0.386014
8 2.24752 0 0 0.0800073 0.00264708 -0.146496
9 1.11936 0 0 0.0512106 0.062516 -0.327821
10 3.71348 -0.102641 0.102191 1.38754 0.842929 0.0672856
11 1.72615 0 0 0.00945171 -0.00623852 -1.09905
12 1.21114 0 0 -0.0132693 0.0116176 -1.44917
13 3.59919 -1.06012 0.0708878 1.43601 0.244349 -0.065528
14 1.66069 0 0 -0.037484 0.0636747 -0.726307
15 1.167 0 0 -0.0270716 0.0140958 -0.693244
16 2.18852 0.50104 0.0576594 1.55548 0.166718 0.138312
17 1.29609 0 0 -0.185212 -0.0418434 -0.654895
18 1.62202 0.000712395 -0.000471115 0.0143687 -0.0178807 -1.11
19 1.22241 0 0 -0.00702549 0.00524259 -1.42423
20 1.76707 1.27612 0.0366408 1.27805 0.322855 0.136707
21 1.55588 0 0 -0.0225085 0.0235834 -0.467635
22 1.24273 0 0 -0.00059642 0 -0.783974
23 0.784524 0 0 0.00616288 -0.000615267 -0.941499
24 2.85835 9.28793 -4.43253 0.726982 0.410583 -1.99191
25 6.02794 0 0 0.0433416 0.0851184 0.229276
26 11.7344 0 0 0.00140278 0 0.913071
27 8.81167 0 0 0.878202 0 0
28 5.77884 0 0 0.588395 0 0
29 2.23249 0 0 0.289807 0 0
30 11.4725 0 0 0.898482 0.287449 -0.678742
31 0.615812 0.994372 -0.809166 -2.35227 0.0187304 0.46255
32 2.24752 0 0 -0.0459563 0.244746 0.234216
33 1.11936 0 0 -0.0408308 0.257423 0.212558
34 3.71349 0.102639 0.102191 -1.7258 1.11243 -0.263964
35 1.72615 0 0 0.00219626 0.00206196 0.928466
36 1.21112 0 0 -0.00470664 0.0169966 0.327294
37 3.5992 1.06012 0.070888 -1.81456 1.00851 -0.246314
38 1.66069 0 0 0.00707743 0.0114628 0.775068
39 1.16699 0 0 -0.0493731 -0.0470546 0.50394
40 2.18853 -0.50104 0.057659 -1.57004 0.000184417 -0.21278
41 1.29609 0 0 -0.0358608 -0.0301294 1.06108
42 1.62202 -0.000713348 -0.000468731 -0.00103439 -0.00157674 1.01338
43 1.22241 0 0 0.0173377 0.0316405 0.340004
44 1.76707 -1.27612 0.0366408 -1.57138 0.117892 -0.216239
45 1.55588 0 0 0.00173178 -0.107165 1.01098
46 1.24273 0 0 0.000590285 -0.000104685 0.855255
47 0.784532 0 0 -0.00592611 0.00083997 1.11775
48 0 0 0 0 0 0
49 4.99281 -19.3382 -5.27867 -0.000805784 0 0.00024044
50 0 -1.51208 1.07027 0 0 0
51 0.540026 -0.371634 1.70232 0 0 0
52 0 -4.95107 2.17037 0 0 0
53 0 -2.31355 1.98216 0 0 0
54 4.99256 -18.5695 -6.10767 -0.000805784 0 0.00024044
55 0 -0.802759 2.07189 0 0 0
56 0 -0.743572 2.39635 0 0 0
time 29
0 7.58967 10.8278 -3.60973 0.000934124 0 -1.06437
1 6.02794 0 0 -1.03425 0.415316 -0.557866
2 11.7344 0 0 -0.0014028 0 -0.793736
3 8.81139 -0.000451088 -0.00011301 0.0991692 0 0.000157857
4 5.77839 0.000286102 0 0.0664435 0 0.000106233
5 2.23163 -0.000329971 -0.00036478 0.0327258 0 0
6 11.4725 0 0 -0.231945 -0.478774 0.645329
7 0.615219 -0.993091 -0.8107 -3.01423 0.324565 -0.386014
8 2.24752 0 0 0.0800072 0.00264723 -0.146496
9 1.11936 0 0 0.0512107 0.0625159 -0.327822
10 3.71348 -0.102641 0.102191 1.38753 0.842929 0.0672855
11 1.72615 0 0 0.00945172 -0.00623854 -1.09905
12 1.21114 0 0 -0.0132693 0.0116176 -1.44917
13 3.59919 -1.06012 0.070888 1.436 0.244349 -0.0655281
14 1.66069 0 0 -0.037484 0.0636747 -0.726308
15 1.167 0 0 -0.0270716 0.0140958 -0.693245
16 2.18853 0.50104 0.0576587 1.55548 0.166718 0.138312
17 1.29609 0 0 -0.185212 -0.0418434 -0.654895
18 1.62202 0.000714302 -0.000471115 0.0143687 -0.0178807 -1.11
19 1.22241 0 0 -0.00702546 0.00524262 -1.42423
20 1.76707 1.27612 0.036641 1.27805 0.322855 0.136707
21 1.55588 0 0 -0.0225085 0.0235834 -0.467635
22 1.24274 0 0 -0.000596433 0 -0.783974
23 0.784523 0 0 0.00616285 -0.000615206 -0.941499
24 2.85835 9.28793 -4.43253 0.726982 0.410583 -1.99191
25 6.02794 0 0 0.0432577 0.0851645 0.228596
26 11.7344 0 0 0.00140265 0 0.915174
27 8.81167 0 0 0.877864 0 0
28 5.77884 0 0 0.588169 0 0
29 2.23249 0 0 0.289695 0 0
30 11.4725 0 0 0.898576 0.287319 -0.680257
31 0.615814 0.994373 -0.809165 -2.35227 0.0187305 0.46255
32 2.24752 0 0 -0.0459564 0.244746 0.234216
33 1.11935 0 0 -0.0408306 0.257423 0.212558
34 3.71348 0.10264 0.102191 -1.7258 1.11243 -0.263964
35 1.72615 0 0 0.00219629 0.00206191 0.928466
36 1.21112 0 0 -0.00470664 0.0169965 0.327294
37 3.5992 1.06012 0.070888 -1.81456 1.00851 -0.246313
38 1.66069 0 0 0.00707744 0.0114628 0.775068
39 1.16699 0 0 -0.0493731 -0.0470545 0.50394
40 2.18853 -0.50104 0.0576588 -1.57004 0.000184558 -0.21278
41 1.29609 0 0 -0.0358609 -0.0301294 1.06108
42 1.62202 -0.000715256 -0.000470161 -0.00103437 -0.00157676 1.01338
43 1.22241 0 0 0.0173376 0.0316405 0.340004
44 1.76707 -1.27612 0.0366404 -1.57138 0.117893 -0.216239
45 1.55587 0 0 0.00173167 -0.107165 1.01098
46 1.24273 0 0 0.000590251 -0.000104653 0.855255
47 0.784532 0 0 -0.0059263 0.000840054 1.11775
48 0 0 0 0 0 0
49 4.99615 -19.3271 -5.27359 -0.000782871 0 0
50 0 -1.51208 1.07027 0 0 0
51 0.540026 -0.371634 1.70232 0 0 0
52 0 -4.95108 2.17037 0 0 0
53 0 -2.31356 1.98216 0 0 0
54 4.99607 -18.5584 -6.10257 -0.000782871 0 0
55 0 -0.80365 2.0744 0 0 0
56 0 -0.7414 2.38835 0 0 0
time 30
0 7.58967 10.8278 -3.60973 0.000934124 0 -1.06437
1 6.02794 0 0 -1.03418 0.416041 -0.557246
2 11.7344 0 0 -0.00140287 0 -0.795875
3 8.81138 -0.000450134 -0.00011158 0.0999164 0 0.000157633
4 5.77839 0.000286102 0 0.0669441 0 0.000106055
5 2.23163 -0.000329971 -0.00036335 0.0329723 0 0
6 11.4725 0 0 -0.231827 -0.47817 0.647136
7 0.615221 -0.993091 -0.8107 -3.01423 0.324565 -0.386014
8 2.24752 0 0 0.0800073 0.0026472 -0.146496
9 1.11936 0 0 0.0512106 0.062516 -0.327822
10 3.71348 -0.102641 0.102191 1.38753 0.842929 0.0672854
11 1.72615 0 0 0.00945168 -0.00623857 -1.09905
12 1.21114 0 0 -0.0132694 0.0116176 -1.44917
13 3.59919 -1.06012 0.0708883 1.436 0.244349 -0.0655281
14 1.66069 0 0 -0.037484 0.0636747 -0.726307
15 1.167 0 0 -0.0270716 0.0140958 -0.693244
16 2.18853 0.50104 0.057659 1.55548 0.166718 0.138312
17 1.29609 0 0 -0.185212 -0.0418434 -0.654895
18 1.62202 0.000714302 -0.000470638 0.0143688 -0.0178807 -1.11
19 1.22241 0 0 -0.00702546 0.00524262 -1.42423
20 1.76707 1.27612 0.0366409 1.27805 0.322855 0.136707
21 1.55588 0 0 -0.0225086 0.0235834 -0.467635
22 1.24274 0 0 -0.000596449 0 -0.783974
23 0.784523 0 0 0.00616289 -0.000615218 -0.9415
24 2.85835 9.28793 -4.43253 0.726982 0.410583 -1.99191
25 6.02794 0 0 0.0431585 0.0852248 0.22806
26 11.7344 0 0 0.00140279 0 0.916911
27 8.81167 0 0 0.877625 0 0
28 5.77884 0 0 0.588008 0 0
29 2.23249 0 0 0.289616 0 0
30 11.4725 0 0 0.898635 0.287709 -0.682094
31 0.615814 0.994373 -0.809165 -2.35227 0.0187305 0.46255
32 2.24752 0 0 -0.0459563 0.244746 0.234216
33 1.11936 0 0 -0.0408307 0.257423 0.212558
34 3.71349 0.102639 0.10219 -1.7258 1.11243 -0.263964
35 1.72615 0 0 0.00219633 0.00206195 0.928466
36 1.21112 0 0 -0.00470668 0.0169966 0.327294
37 3.5992 1.06012 0.070888 -1.81456 1.00851 -0.246313
38 1.66069 0 0 0.00707743 0.0114629 0.775068
39 1.16699 0 0 -0.0493731 -0.0470546 0.50394
40 2.18853 -0.501041 0.057659 -1.57004 0.000184469 -0.21278
41 1.29609 0 0 -0.0358609 -0.0301293 1.06108
42 1.62202 -0.000715256 -0.000469685 -0.00103445 -0.0015768 1.01338
43 1.22241 0 0 0.0173377 0.0316406 0.340004
44 1.76707 -1.27612 0.0366406 -1.57138 0.117893 -0.216239
45 1.55587 0 0 0.00173175 -0.107165 1.01098
46 1.24273 0 0 0.000590247 -0.000104643 0.855255
47 0.784532 0 0 -0.00592611 0.00084008 1.11775
48 0 0 0 0 0 0
49 5 -19.3184 -5.2717 0 0 0
50 0 -1.51208 1.07027 0 0 0
51 0.540026 -0.371634 1.70232 0 0 0
52 0 -4.95107 2.17037 0 0 0
53 0 -2.31355 1.98216 0 0 0
54 5 -18.549 -6.10007 0 0 0
55 0 -0.804535 2.0769 0 0 0
56 0 -0.73922 2.38034 0 0 0
end
