//Sequence File generated by the Wall Worm SMD Exporter PRO 1.99
//www.wallworm.com
version 1
nodes
0 "b_l_clav" -1
1 "b_l_upperarm" 0
2 "b_l_forearm" 1
3 "b_l_twist3" 2
4 "b_l_twist2" 2
5 "b_l_twist1" 2
6 "b_l_hand" 2
7 "b_l_thumb001" 6
8 "b_l_thumb002" 7
9 "b_l_thumb003" 8
10 "b_l_middle001" 6
11 "b_l_middle002" 10
12 "b_l_middle003" 11
13 "b_l_index001" 6
14 "b_l_index002" 13
15 "b_l_index003" 14
16 "b_l_hand_ringsqueezer" 6
17 "b_l_ring001" 16
18 "b_l_ring002" 17
19 "b_l_ring003" 18
20 "b_l_hand_pinkysqueezer" 6
21 "b_l_pinky001" 20
22 "b_l_pinky002" 21
23 "b_l_pinky003" 22
24 "b_r_clav" -1
25 "b_r_upperarm" 24
26 "b_r_forearm" 25
27 "b_r_twist3" 26
28 "b_r_twist2" 26
29 "b_r_twist1" 26
30 "b_r_hand" 26
31 "b_r_thumb001" 30
32 "b_r_thumb002" 31
33 "b_r_thumb003" 32
34 "b_r_middle001" 30
35 "b_r_middle002" 34
36 "b_r_middle003" 35
37 "b_r_index001" 30
38 "b_r_index002" 37
39 "b_r_index003" 38
40 "b_r_hand_ringsqueezer" 30
41 "b_r_ring001" 40
42 "b_r_ring002" 41
43 "b_r_ring003" 42
44 "b_r_hand_pinkysqueezer" 30
45 "b_r_pinky001" 44
46 "b_r_pinky002" 45
47 "b_r_pinky003" 46
48 "b_zero" -1
49 "d_nshell001" -1
50 "d_nshell002" -1
51 "d_nshell003" -1
52 "d_walk" -1
53 "d_gun" 52
54 "d_trig" 53
55 "d_safe" 53
56 "d_pump" 53
57 "d_lifter" 53
end
skeleton
time 0
0 0.9054 14.6635 -1.63285 0.000934124 0 -0.959925
1 6.02794 0 0 -0.638705 0.421113 -0.140348
2 11.7344 0 0 -0.00140295 0 -1.00981
3 8.81138 -0.000449181 -0.00011301 -0.760008 0 0.000157509
4 5.77839 0.000286102 0 -0.509205 0 0.000102581
5 2.23163 -0.000329018 -0.000364304 -0.250802 0 0
6 11.4725 0 0 -0.784279 0.298388 0.795344
7 0.61522 -0.993091 -0.8107 -2.8485 0.606238 -0.308841
8 2.24752 0 0 0.303907 -0.0736803 -0.604589
9 1.11936 0 0 -0.0429014 -0.155563 -0.727393
10 3.71348 -0.102641 0.102191 1.62628 1.1947 0.356613
11 1.72615 0 0 0.00722129 -0.00791164 -1.20147
12 1.21114 0 0 -0.00454142 0.0137655 -0.851888
13 3.59919 -1.06012 0.0708876 1.50729 0.287145 0.0898793
14 1.66069 0 0 -0.0059861 0.0768199 -0.302292
15 1.167 0 0 0.00325864 -0.000534597 -0.949486
16 2.18853 0.501039 0.0576587 1.55856 0.173818 0.120989
17 1.29609 0 0 -0.166319 0.0125499 -1.32315
18 1.62202 0.000714302 -0.000470638 0.0275829 -0.0290999 -1.19196
19 1.22241 0 0 0.00397537 -0.000686298 -0.714413
20 1.76707 1.27612 0.0366406 1.50086 0.397927 0.0672732
21 1.55588 0 0 -0.169085 -0.102676 -1.27009
22 1.24274 0 0 -0.000479198 0.00036059 -1.04669
23 0.784525 0 0 0.0113801 0.00651353 -0.550507
24 -4.10422 -4.45234 -10.0641 0.838062 0.114999 -1.99578
25 6.02794 0 0 -0.0532207 0.345662 0.666538
26 11.7344 0 0 0.00140266 0 0.325741
27 8.81167 0 0 2.24146 0 0
28 5.77884 0 0 1.50178 0 0
29 2.23249 0 0 0.739681 0 0
30 11.4725 0 0 2.32309 0.532282 0.0360995
31 0.615812 0.994373 -0.809165 -2.82669 0.205921 0.604216
32 2.24752 0 0 -0.624386 -0.0209251 -0.0555
33 1.11935 0 0 -0.201613 0.15063 -0.0541367
34 3.71349 0.10264 0.10219 -1.40672 0.910975 -0.119285
35 1.72615 0 0 0.00126728 0.0145203 1.21062
36 1.21112 0 0 -0.0238556 0.00632333 -0.222781
37 3.5992 1.06012 0.0708885 -1.59714 0.318734 0.0700833
38 1.66069 0 0 0.0574013 0.0526414 1.05232
39 1.16699 0 0 0.0429014 0.0137363 0.898584
40 2.18853 -0.501041 0.0576591 -1.56657 -0.0478596 -0.112922
41 1.29609 0 0 0.275271 0.0734258 1.19
42 1.62202 -0.000713348 -0.000469208 0.000354882 0.000500577 0.97518
43 1.22241 0 0 -0.00142072 0.0225103 -0.229473
44 1.76707 -1.27612 0.0366402 -1.55745 0.249311 -0.0923493
45 1.55588 0 0 0.429608 0.0164274 1.422
46 1.24273 0 0 0.000478752 0.000360618 0.272614
47 0.784532 0 0 0.00273255 -0.0109978 -0.0782456
48 0 0 0 0 0 0
49 4.75955 -25.4756 -4.65006 0 0 0
50 4.75956 -3.10722 -10.2522 0 0 0
51 6.80118 -3.10722 -10.2522 0 0 0
52 4.774 -5.75588 -4.56645 0 0 0
53 -0.0144377 -9.17112 0.481613 0 0 -1.5708
54 1.01569 0 -1.0878 0 0 0
55 -0.39368 0.152813 -1.39039 0 0 0
56 23.6734 0 -0.790618 0 0 0
57 5.15077 0 -1.06019 0 0 0
time 1
0 0.9054 14.6635 -1.63285 0.000934124 0 -0.959925
1 6.02794 0 0 -0.607611 0.467132 -0.0711808
2 11.7344 0 0 -0.00140278 0 -1.15786
3 8.81138 -0.000450134 -0.000112057 -0.730272 0 0.000157295
4 5.77839 0.000286102 0 -0.489282 0 0.000102611
5 2.23163 -0.000329018 -0.000363827 -0.24099 0 0
6 11.4725 0 0 -0.775764 0.295922 0.868208
7 0.615218 -0.99309 -0.8107 -2.8485 0.606238 -0.308841
8 2.24752 0 0 0.303907 -0.0736803 -0.604589
9 1.11936 0 0 -0.0429014 -0.155562 -0.727393
10 3.71348 -0.10264 0.102191 1.62628 1.1947 0.356613
11 1.72615 0 0 0.00722119 -0.0079117 -1.20147
12 1.21114 0 0 -0.00454135 0.0137656 -0.851888
13 3.59919 -1.06012 0.0708876 1.50729 0.287145 0.0898793
14 1.66069 0 0 -0.0223607 0.0737426 -0.519161
15 1.167 0 0 0.00325868 -0.000534627 -1.01167
16 2.18853 0.501039 0.0576587 1.55856 0.173818 0.120989
17 1.29609 0 0 -0.166319 0.01255 -1.32315
18 1.62202 0.000713348 -0.000471592 0.0275829 -0.0290999 -1.19196
19 1.22241 0 0 0.00397534 -0.000686308 -0.714413
20 1.76707 1.27612 0.0366411 1.50086 0.397927 0.0672732
21 1.55588 0 0 -0.169085 -0.102676 -1.27009
22 1.24274 0 0 -0.000479176 0.000360672 -1.04669
23 0.784525 0 0 0.0113801 0.00651355 -0.550507
24 -4.10422 -4.45234 -10.0641 0.838062 0.114999 -1.99578
25 6.02794 0 0 -0.103992 0.338732 0.523117
26 11.7344 0 0 0.00140279 0 0.629839
27 8.81167 0 0 2.29746 0 0
28 5.77884 0 0 1.5393 0 0
29 2.23249 0 0 0.758162 0 0
30 11.4725 0 0 2.3325 0.522079 -0.129923
31 0.615812 0.994373 -0.809166 -2.82669 0.205921 0.604216
32 2.24752 0 0 -0.624386 -0.0209251 -0.0554999
33 1.11936 0 0 -0.201613 0.15063 -0.0541368
34 3.71348 0.10264 0.10219 -1.40672 0.910975 -0.119285
35 1.72615 0 0 0.00126717 0.0145201 1.21062
36 1.21112 0 0 -0.0238555 0.00632325 -0.222781
37 3.5992 1.06012 0.0708876 -1.59714 0.318734 0.0700833
38 1.66069 0 0 0.0574015 0.0526413 1.05232
39 1.16699 0 0 0.0429011 0.0137363 0.898584
40 2.18853 -0.501041 0.0576582 -1.56657 -0.0478596 -0.112922
41 1.29609 0 0 0.275271 0.0734258 1.19
42 1.62202 -0.000715256 -0.0004673 0.000354959 0.000500722 0.97518
43 1.22241 0 0 -0.00142076 0.0225101 -0.229473
44 1.76707 -1.27612 0.0366402 -1.55745 0.249311 -0.0923494
45 1.55587 0 0 0.429608 0.0164274 1.422
46 1.24273 0 0 0.000478997 0.000360645 0.272614
47 0.784532 0 0 0.00273243 -0.0109978 -0.0782455
48 0 0 0 0 0 0
49 4.72013 -24.5808 -4.67961 0.00169224 -0.00900679 -0.00200842
50 4.81519 -2.20315 -10.2437 0.00169224 -0.00900679 -0.00200842
51 6.85672 -2.20725 -10.2253 0.00169224 -0.00900679 -0.00200842
52 4.774 -5.75588 -4.56645 0 0 0
53 -0.0379338 -8.27734 0.469896 0.0090068 0.00169217 -1.57279
54 0.917262 0.00156641 -1.0207 0 0.127389 0
55 -0.39368 0.152813 -1.39039 0 0 0
56 23.6734 0 -0.790617 0 0 0
57 5.15077 0 -1.06019 0 0 0
time 2
0 0.9054 14.6635 -1.63285 0.000934124 0 -0.959925
1 6.02794 0 0 -0.562642 0.520464 0.0162271
2 11.7344 0 0 -0.00140284 0 -1.33285
3 8.81138 -0.000450134 -0.000112534 -0.680538 0 0.000157464
4 5.77839 0.000286102 0 -0.455961 0 0.000102983
5 2.23163 -0.000329018 -0.000364304 -0.224578 0 0
6 11.4725 0 0 -0.762162 0.277621 0.949535
7 0.61522 -0.993091 -0.8107 -2.8485 0.606238 -0.308841
8 2.24752 0 0 0.303907 -0.0736804 -0.604589
9 1.11936 0 0 -0.0429016 -0.155562 -0.727393
10 3.71348 -0.102641 0.102191 1.62628 1.1947 0.356613
11 1.72615 0 0 0.00722121 -0.00791173 -1.20147
12 1.21114 0 0 -0.00454136 0.0137655 -0.851888
13 3.59919 -1.06012 0.0708876 1.50729 0.287145 0.0898792
14 1.66069 0 0 -0.0223608 0.0737426 -0.519161
15 1.167 0 0 0.00325874 -0.000534497 -1.01167
16 2.18853 0.50104 0.0576587 1.55856 0.173818 0.120989
17 1.29609 0 0 -0.166319 0.0125499 -1.32315
18 1.62202 0.000713348 -0.000471592 0.0275828 -0.0291 -1.19196
19 1.22241 0 0 0.00397549 -0.00068619 -0.714413
20 1.76707 1.27612 0.0366411 1.50086 0.397927 0.0672732
21 1.55588 0 0 -0.169085 -0.102676 -1.27009
22 1.24273 0 0 -0.000479256 0.000360453 -1.04669
23 0.784524 0 0 0.0113802 0.00651363 -0.550507
24 -4.10422 -4.45234 -10.0641 0.838062 0.114999 -1.99578
25 6.02794 0 0 -0.136163 0.330568 0.431295
26 11.7344 0 0 0.00140276 0 0.864644
27 8.81167 0 0 2.36625 0 0
28 5.77884 0 0 1.58539 0 0
29 2.23249 0 0 0.780862 0 0
30 11.4725 0 0 2.34705 0.502241 -0.261926
31 0.615812 0.994373 -0.809165 -2.82669 0.205921 0.604216
32 2.24752 0 0 -0.624385 -0.0209251 -0.0555
33 1.11936 0 0 -0.201613 0.150629 -0.0541367
34 3.71348 0.102638 0.102191 -1.40672 0.910975 -0.119285
35 1.72615 0 0 0.00126714 0.0145201 1.21062
36 1.21112 0 0 -0.0238556 0.00632333 -0.222781
37 3.5992 1.06012 0.0708876 -1.59714 0.318734 0.0700833
38 1.66069 0 0 0.0574013 0.0526415 1.05232
39 1.16699 0 0 0.0429013 0.0137361 0.898584
40 2.18853 -0.501038 0.0576591 -1.56657 -0.0478595 -0.112922
41 1.29609 0 0 0.275271 0.0734258 1.19
42 1.62202 -0.000713348 -0.000469208 0.00035501 0.000500628 0.97518
43 1.22241 0 0 -0.00142084 0.0225103 -0.229473
44 1.76707 -1.27612 0.0366402 -1.55745 0.249311 -0.0923494
45 1.55588 0 0 0.429607 0.0164277 1.422
46 1.24273 0 0 0.000478955 0.00036056 0.272614
47 0.784532 0 0 0.00273243 -0.0109979 -0.0782456
48 0 0 0 0 0 0
49 4.73658 -23.398 -4.58987 -0.00698435 -0.0294753 0.000146593
50 4.90301 -1.06929 -10.3456 -0.00698435 -0.0294753 0.000146593
51 6.94375 -1.06899 -10.2855 -0.00698435 -0.0294753 0.000146593
52 4.774 -5.75588 -4.56645 0 0 0
53 -0.053441 -7.08985 0.467908 0.0294761 -0.00698131 -1.57086
54 0.91726 0.00156641 -1.0207 0 0.127389 0
55 -0.393682 0.152814 -1.39039 0 0 0
56 23.6734 0 -0.790618 0 0 0
57 5.15077 0 -1.06019 0 0 0
time 3
0 0.9054 14.6635 -1.63285 0.000934124 0 -0.959925
1 6.02794 0 0 -0.546107 0.535174 0.0378528
2 11.7344 0 0 -0.00140283 0 -1.37247
3 8.81138 -0.000450134 -0.000112772 -0.634902 0 0.000157368
4 5.77839 0.000286102 0 -0.425384 0 0.000102697
5 2.23163 -0.000329018 -0.00036478 -0.209518 0 0
6 11.4725 0 0 -0.748899 0.224741 0.956246
7 0.615219 -0.993091 -0.8107 -2.8485 0.606238 -0.308841
8 2.24752 0 0 0.303907 -0.0736803 -0.604589
9 1.11936 0 0 -0.0429015 -0.155563 -0.727393
10 3.71348 -0.102641 0.10219 1.62628 1.1947 0.356613
11 1.72615 0 0 0.00722119 -0.0079117 -1.20147
12 1.21114 0 0 -0.00454132 0.0137653 -0.851888
13 3.59919 -1.06012 0.070888 1.50729 0.287145 0.0898793
14 1.66069 0 0 -0.0223609 0.0737426 -0.519161
15 1.167 0 0 0.00325874 -0.000534501 -1.01167
16 2.18852 0.501039 0.0576587 1.55856 0.173818 0.120989
17 1.29609 0 0 -0.166319 0.01255 -1.32315
18 1.62202 0.000714302 -0.000471115 0.027583 -0.0290999 -1.19196
19 1.22241 0 0 0.00397524 -0.000686218 -0.714413
20 1.76707 1.27612 0.0366402 1.50086 0.397927 0.0672733
21 1.55588 0 0 -0.169084 -0.102676 -1.27009
22 1.24273 0 0 -0.00047922 0.000360509 -1.04669
23 0.784524 0 0 0.0113802 0.00651362 -0.550507
24 -4.10422 -4.45234 -10.0641 0.838062 0.114999 -1.99578
25 6.02794 0 0 -0.114995 0.328593 0.476198
26 11.7344 0 0 0.00140272 0 0.838697
27 8.81167 0 0 2.37192 0 0
28 5.77884 0 0 1.58919 0 0
29 2.23249 0 0 0.782734 0 0
30 11.4725 0 0 2.35873 0.477053 -0.234759
31 0.61581 0.994373 -0.809166 -2.82669 0.205921 0.604216
32 2.24752 0 0 -0.624385 -0.0209251 -0.0555002
33 1.11936 0 0 -0.201613 0.15063 -0.0541367
34 3.71348 0.10264 0.10219 -1.40672 0.910974 -0.119285
35 1.72615 0 0 0.00126716 0.0145202 1.21062
36 1.21112 0 0 -0.0238555 0.00632327 -0.222781
37 3.5992 1.06012 0.0708876 -1.59714 0.318734 0.0700832
38 1.66069 0 0 0.0574012 0.0526414 1.05232
39 1.16699 0 0 0.0429012 0.0137362 0.898584
40 2.18853 -0.50104 0.0576591 -1.56657 -0.0478595 -0.112922
41 1.29609 0 0 0.275271 0.0734257 1.19
42 1.62202 -0.000711441 -0.000469208 0.000354924 0.000500656 0.97518
43 1.22241 0 0 -0.00142083 0.0225102 -0.229473
44 1.76707 -1.27612 0.0366402 -1.55745 0.249311 -0.0923494
45 1.55588 0 0 0.429608 0.0164274 1.422
46 1.24273 0 0 0.0004789 0.000360598 0.272614
47 0.784533 0 0 0.00273243 -0.0109978 -0.0782457
48 0 0 0 0 0 0
49 4.9573 -23.1405 -4.15785 -0.0442402 -0.0633387 0.0173852
50 4.98993 -1.03784 -10.7306 -0.0442402 -0.0633387 0.0173852
51 7.02715 -1.00242 -10.6014 -0.0442402 -0.0633387 0.0173852
52 4.774 -5.75588 -4.56645 0 0 0
53 -0.0065403 -6.82303 0.506558 0.0634005 -0.0441514 -1.55621
54 0.917261 0.00156689 -1.0207 0 0.127389 0
55 -0.39368 0.152813 -1.39039 0 0 0
56 23.6734 0 -0.790618 0 0 0
57 5.15077 0 -1.06019 0 0 0
time 4
0 0.9054 14.6635 -1.63285 0.000934124 0 -0.959925
1 6.02794 0 0 -0.539797 0.539045 0.0398973
2 11.7344 0 0 -0.00140286 0 -1.37514
3 8.81138 -0.000449181 -0.00011158 -0.599629 0 0.000156733
4 5.77839 0.00028801 0 -0.401752 0 0.000102412
5 2.23163 -0.000328064 -0.000363827 -0.197878 0 0
6 11.4725 0 0 -0.740891 0.171492 0.945972
7 0.615219 -0.993091 -0.8107 -2.8485 0.606238 -0.308841
8 2.24752 0 0 0.303907 -0.0736803 -0.604589
9 1.11936 0 0 -0.0429015 -0.155562 -0.727393
10 3.71348 -0.102641 0.102191 1.62628 1.1947 0.356613
11 1.72615 0 0 0.00722117 -0.00791167 -1.20147
12 1.21114 0 0 -0.00454136 0.0137655 -0.851888
13 3.59919 -1.06012 0.0708885 1.50729 0.287145 0.0898792
14 1.66069 0 0 -0.0223608 0.0737425 -0.519161
15 1.167 0 0 0.00325874 -0.000534497 -1.01167
16 2.18853 0.501039 0.0576591 1.55856 0.173818 0.120989
17 1.29609 0 0 -0.166319 0.0125501 -1.32315
18 1.62202 0.000712395 -0.000471115 0.0275829 -0.0291 -1.19196
19 1.22241 0 0 0.00397541 -0.000686249 -0.714413
20 1.76707 1.27612 0.0366406 1.50086 0.397927 0.0672732
21 1.55588 0 0 -0.169085 -0.102676 -1.27009
22 1.24274 0 0 -0.000479257 0.000360453 -1.04669
23 0.784524 0 0 0.0113802 0.00651372 -0.550507
24 -4.10422 -4.45234 -10.0641 0.838062 0.114999 -1.99578
25 6.02794 0 0 -0.0846362 0.326545 0.548142
26 11.7344 0 0 0.00140274 0 0.752995
27 8.81167 0 0 2.36 0 0
28 5.77884 0 0 1.5812 0 0
29 2.23249 0 0 0.778799 0 0
30 11.4725 0 0 2.3657 0.457354 -0.173133
31 0.615814 0.994371 -0.809166 -2.82669 0.205921 0.604216
32 2.24752 0 0 -0.624386 -0.020925 -0.0555
33 1.11936 0 0 -0.201613 0.15063 -0.0541369
34 3.71349 0.102636 0.102191 -1.40672 0.910975 -0.119285
35 1.72615 0 0 0.00126713 0.0145201 1.21062
36 1.21112 0 0 -0.0238554 0.00632331 -0.222781
37 3.5992 1.06012 0.0708876 -1.59714 0.318734 0.0700832
38 1.66069 0 0 0.0574013 0.0526414 1.05232
39 1.16699 0 0 0.0429012 0.0137362 0.898584
40 2.18853 -0.501041 0.0576582 -1.56657 -0.0478596 -0.112922
41 1.29609 0 0 0.275271 0.0734257 1.19
42 1.62202 -0.000713348 -0.000469208 0.000354878 0.000500698 0.97518
43 1.22241 0 0 -0.00142067 0.0225104 -0.229473
44 1.76707 -1.27612 0.0366392 -1.55745 0.249311 -0.0923493
45 1.55588 0 0 0.429607 0.0164275 1.422
46 1.24273 0 0 0.000478908 0.000360657 0.272614
47 0.784533 0 0 0.0027326 -0.0109977 -0.0782457
48 0 0 0 0 0 0
49 5.20687 -23.1295 -3.69418 -0.0832736 -0.0913836 0.0390328
50 5.03393 -1.2947 -11.1064 -0.0832736 -0.0913836 0.0390328
51 7.06548 -1.21536 -10.9201 -0.0832736 -0.0913836 0.0390328
52 4.774 -5.75588 -4.56645 0 0 0
53 0.0494761 -6.82146 0.559445 0.0916996 -0.0829253 -1.53938
54 0.917261 0.00156641 -1.0207 0 0.127389 0
55 -0.393681 0.152813 -1.39039 0 0 0
56 23.6734 0 -0.790617 0 0 0
57 5.15077 0 -1.06019 0 0 0
time 5
0 0.9054 14.6635 -1.63285 0.000934124 0 -0.959925
1 6.02794 0 0 -0.539319 0.53929 0.0398619
2 11.7344 0 0 -0.00140297 0 -1.37823
3 8.81138 -0.000451088 -0.000112295 -0.593485 0 0.000157674
4 5.77839 0.000285149 0 -0.397635 0 0.000103024
5 2.23163 -0.000329971 -0.000364304 -0.19585 0 0
6 11.4725 0 0 -0.746733 0.156034 0.947623
7 0.615219 -0.993091 -0.8107 -2.8485 0.606238 -0.308841
8 2.24752 0 0 0.303907 -0.0736803 -0.604589
9 1.11936 0 0 -0.0429015 -0.155562 -0.727393
10 3.71348 -0.102641 0.102191 1.62628 1.1947 0.356613
11 1.72615 0 0 0.0072212 -0.00791172 -1.20147
12 1.21113 0 0 -0.00454141 0.0137656 -0.851888
13 3.59919 -1.06012 0.070888 1.50729 0.287145 0.0898793
14 1.66069 0 0 -0.0223608 0.0737425 -0.519161
15 1.167 0 0 0.00325874 -0.000534497 -1.01167
16 2.18853 0.50104 0.0576591 1.55856 0.173818 0.120989
17 1.29609 0 0 -0.166319 0.01255 -1.32315
18 1.62202 0.000714302 -0.000470638 0.0275829 -0.0291 -1.19196
19 1.22241 0 0 0.00397541 -0.000686155 -0.714413
20 1.76707 1.27612 0.0366411 1.50086 0.397927 0.0672733
21 1.55588 0 0 -0.169085 -0.102676 -1.27009
22 1.24273 0 0 -0.000479168 0.000360539 -1.04669
23 0.784523 0 0 0.0113801 0.00651364 -0.550507
24 -4.10422 -4.45234 -10.0641 0.838062 0.114999 -1.99578
25 6.02794 0 0 -0.071433 0.325881 0.582063
26 11.7344 0 0 0.0014028 0 0.711951
27 8.81167 0 0 2.3489 0 0
28 5.77884 0 0 1.57376 0 0
29 2.23249 0 0 0.775137 0 0
30 11.4725 0 0 2.36299 0.459566 -0.149532
31 0.615812 0.994373 -0.809166 -2.82669 0.205921 0.604216
32 2.24752 0 0 -0.624385 -0.0209251 -0.0554999
33 1.11936 0 0 -0.201613 0.15063 -0.0541367
34 3.71349 0.10264 0.102191 -1.40672 0.910975 -0.119285
35 1.72615 0 0 0.00126722 0.0145202 1.21062
36 1.21112 0 0 -0.0238555 0.00632327 -0.222781
37 3.5992 1.06012 0.0708876 -1.59714 0.318734 0.0700833
38 1.66069 0 0 0.0574012 0.0526415 1.05232
39 1.16699 0 0 0.0429013 0.0137363 0.898584
40 2.18853 -0.50104 0.0576582 -1.56657 -0.0478596 -0.112922
41 1.29609 0 0 0.275271 0.0734258 1.19
42 1.62202 -0.000713348 -0.0004673 0.000354918 0.00050071 0.97518
43 1.22241 0 0 -0.0014209 0.0225103 -0.229473
44 1.76707 -1.27612 0.0366402 -1.55745 0.249311 -0.0923493
45 1.55588 0 0 0.429608 0.0164275 1.422
46 1.24273 0 0 0.000478955 0.00036056 0.272614
47 0.78453 0 0 0.00273243 -0.0109978 -0.0782457
48 0 0 0 0 0 0
49 5.33917 -23.1119 -3.49939 -0.0953794 -0.0915345 0.0506407
50 4.94262 -1.37089 -11.1741 -0.0953794 -0.0915345 0.0506407
51 6.97309 -1.26798 -10.9875 -0.0953794 -0.0915345 0.0506407
52 4.774 -5.75588 -4.56645 0 0 0
53 0.0712657 -6.813 0.626973 0.0919501 -0.0949789 -1.5289
54 0.917261 0.00156641 -1.0207 0 0.127389 0
55 -0.39368 0.152813 -1.39039 0 0 0
56 23.6734 0 -0.790618 0 0 0
57 5.15077 0 -1.06019 0 0 0
time 6
0 0.9054 14.6635 -1.63285 0.000934124 0 -0.959925
1 6.02794 0 0 -0.544547 0.534913 0.0333857
2 11.7344 0 0 -0.00140281 0 -1.37075
3 8.81138 -0.000450134 -0.000112057 -0.610728 0 0.000157807
4 5.77839 0.000286102 0 -0.409188 0 0.000103154
5 2.23163 -0.000329018 -0.00036335 -0.20154 0 0
6 11.4725 0 0 -0.76449 0.162476 0.948157
7 0.61522 -0.993091 -0.8107 -2.8485 0.606238 -0.308841
8 2.24752 0 0 0.303907 -0.0736805 -0.604589
9 1.11936 0 0 -0.0429015 -0.155562 -0.727393
10 3.71348 -0.102641 0.102191 1.62628 1.1947 0.356613
11 1.72615 0 0 0.00722109 -0.00791176 -1.20147
12 1.21114 0 0 -0.00454139 0.0137654 -0.851888
13 3.59919 -1.06012 0.070888 1.50729 0.287145 0.0898792
14 1.66069 0 0 -0.0223608 0.0737425 -0.519161
15 1.167 0 0 0.00325868 -0.000534513 -1.01167
16 2.18853 0.501039 0.0576591 1.55856 0.173818 0.120989
17 1.29609 0 0 -0.166319 0.01255 -1.32315
18 1.62202 0.000713348 -0.000471115 0.0275828 -0.0290999 -1.19196
19 1.22241 0 0 0.00397542 -0.000686089 -0.714413
20 1.76707 1.27612 0.0366406 1.50086 0.397927 0.0672731
21 1.55588 0 0 -0.169085 -0.102676 -1.27009
22 1.24274 0 0 -0.000479183 0.000360565 -1.04669
23 0.784523 0 0 0.0113802 0.00651359 -0.550507
24 -4.10422 -4.45234 -10.0641 0.838062 0.114999 -1.99578
25 6.02794 0 0 -0.0647654 0.32628 0.601075
26 11.7344 0 0 0.00140273 0 0.680586
27 8.81167 0 0 2.32929 0 0
28 5.77884 0 0 1.56062 0 0
29 2.23249 0 0 0.768664 0 0
30 11.4725 0 0 2.35057 0.477024 -0.139729
31 0.615814 0.994371 -0.809166 -2.82669 0.205921 0.604216
32 2.24752 0 0 -0.624386 -0.020925 -0.0555
33 1.11936 0 0 -0.201613 0.15063 -0.0541368
34 3.71349 0.102638 0.102191 -1.40672 0.910975 -0.119285
35 1.72615 0 0 0.00126707 0.0145203 1.21062
36 1.21112 0 0 -0.0238554 0.00632331 -0.222781
37 3.5992 1.06012 0.0708885 -1.59714 0.318734 0.0700833
38 1.66069 0 0 0.0574013 0.0526415 1.05232
39 1.16699 0 0 0.0429012 0.0137361 0.898584
40 2.18853 -0.50104 0.0576591 -1.56657 -0.0478595 -0.112922
41 1.29609 0 0 0.275271 0.0734259 1.19
42 1.62202 -0.000713348 -0.000469208 0.00035478 0.000500513 0.97518
43 1.22241 0 0 -0.00142072 0.0225103 -0.229473
44 1.76707 -1.27612 0.0366402 -1.55745 0.249311 -0.0923494
45 1.55588 0 0 0.429607 0.0164275 1.422
46 1.24273 0 0 0.000478943 0.000360472 0.272614
47 0.784531 0 0 0.00273249 -0.0109978 -0.0782456
48 0 0 0 0 0 0
49 5.40651 -23.1785 -3.45148 -0.0932446 -0.072448 0.0556422
50 4.75059 -1.43169 -11.0919 -0.0932446 -0.072448 0.0556422
51 6.7837 -1.31845 -10.9442 -0.0932446 -0.072448 0.0556422
52 4.774 -5.75588 -4.56645 0 0 0
53 0.0758071 -6.88183 0.696667 0.072763 -0.0929993 -1.52192
54 0.91726 0.00156713 -1.0207 0 0.127389 0
55 -0.393682 0.152814 -1.39039 0 0 0
56 23.6734 0 -0.790618 0 0 0
57 5.15077 0 -1.06019 0 0 0
time 7
0 0.9054 14.6635 -1.63285 0.000934124 0 -0.959925
1 6.02794 0 0 -0.548472 0.53071 0.0250273
2 11.7344 0 0 -0.00140297 0 -1.35457
3 8.81138 -0.000450134 -0.000111818 -0.649167 0 0.000157091
4 5.77839 0.000286102 0 -0.434942 0 0.000102587
5 2.23163 -0.000329971 -0.000363827 -0.214225 0 0
6 11.4725 0 0 -0.796259 0.174342 0.933788
7 0.615219 -0.993091 -0.810701 -2.8485 0.606238 -0.308841
8 2.24752 0 0 0.303907 -0.0736804 -0.604589
9 1.11936 0 0 -0.0429016 -0.155563 -0.727393
10 3.71348 -0.102642 0.10219 1.62628 1.1947 0.356613
11 1.72615 0 0 0.00722119 -0.0079117 -1.20147
12 1.21114 0 0 -0.00454144 0.0137655 -0.851888
13 3.59919 -1.06012 0.0708871 1.50729 0.287145 0.0898793
14 1.66069 0 0 -0.0223608 0.0737425 -0.519161
15 1.167 0 0 0.00325875 -0.000534517 -1.01167
16 2.18853 0.50104 0.0576591 1.55856 0.173818 0.120989
17 1.29609 0 0 -0.166319 0.0125499 -1.32315
18 1.62202 0.000713348 -0.000471115 0.0275829 -0.0290999 -1.19196
19 1.22241 0 0 0.00397534 -0.000686148 -0.714413
20 1.76707 1.27612 0.0366406 1.50086 0.397927 0.0672733
21 1.55587 0 0 -0.169085 -0.102676 -1.27009
22 1.24273 0 0 -0.000479235 0.000360535 -1.04669
23 0.784524 0 0 0.0113802 0.00651362 -0.550507
24 -4.10422 -4.45234 -10.0641 0.838062 0.114999 -1.99578
25 6.02794 0 0 -0.0581355 0.324378 0.615981
26 11.7344 0 0 0.00140274 0 0.64978
27 8.81167 0 0 2.29388 0 0
28 5.77884 0 0 1.5369 0 0
29 2.23249 0 0 0.756981 0 0
30 11.4725 0 0 2.32295 0.5034 -0.13759
31 0.615812 0.994373 -0.809165 -2.82669 0.205921 0.604216
32 2.24752 0 0 -0.624385 -0.0209251 -0.0555002
33 1.11936 0 0 -0.201613 0.15063 -0.0541367
34 3.71349 0.102642 0.102191 -1.40672 0.910975 -0.119285
35 1.72615 0 0 0.00126705 0.0145203 1.21062
36 1.21112 0 0 -0.0238555 0.00632318 -0.222781
37 3.59921 1.06012 0.0708876 -1.59714 0.318734 0.0700832
38 1.66069 0 0 0.0574013 0.0526413 1.05232
39 1.16699 0 0 0.0429013 0.0137363 0.898584
40 2.18853 -0.50104 0.0576582 -1.56657 -0.0478595 -0.112922
41 1.29609 0 0 0.275271 0.0734259 1.19
42 1.62202 -0.000715256 -0.000469208 0.000354924 0.000500656 0.97518
43 1.22241 0 0 -0.00142095 0.0225102 -0.229473
44 1.76707 -1.27612 0.0366411 -1.55745 0.249311 -0.0923493
45 1.55588 0 0 0.429607 0.0164275 1.422
46 1.24273 0 0 0.000478943 0.000360472 0.272614
47 0.784532 0 0 0.00273242 -0.0109977 -0.0782457
48 0 0 0 0 0 0
49 5.42309 -23.2947 -3.45105 -0.0916626 -0.0390878 0.055952
50 4.50367 -1.55041 -11.0714 -0.0916626 -0.0390878 0.055952
51 6.54053 -1.43633 -10.9916 -0.0916626 -0.0390878 0.055952
52 4.774 -5.75588 -4.56645 0 0 0
53 0.0744891 -6.99841 0.713 0.0392524 -0.0915924 -1.51844
54 0.917261 0.00156641 -1.0207 0 0.127389 0
55 -0.39368 0.152813 -1.39039 0 0 0
56 23.6734 0 -0.790618 0 0 0
57 5.15077 0 -1.06019 0 0 0
end
