//Sequence File generated by the Wall Worm SMD Exporter PRO 1.99
//www.wallworm.com
version 1
nodes
0 "b_l_clav" -1
1 "b_l_upperarm" 0
2 "b_l_forearm" 1
3 "b_l_twist3" 2
4 "b_l_twist2" 2
5 "b_l_twist1" 2
6 "b_l_hand" 2
7 "b_l_thumb001" 6
8 "b_l_thumb002" 7
9 "b_l_thumb003" 8
10 "b_l_middle001" 6
11 "b_l_middle002" 10
12 "b_l_middle003" 11
13 "b_l_index001" 6
14 "b_l_index002" 13
15 "b_l_index003" 14
16 "b_l_hand_ringsqueezer" 6
17 "b_l_ring001" 16
18 "b_l_ring002" 17
19 "b_l_ring003" 18
20 "b_l_hand_pinkysqueezer" 6
21 "b_l_pinky001" 20
22 "b_l_pinky002" 21
23 "b_l_pinky003" 22
24 "b_r_clav" -1
25 "b_r_upperarm" 24
26 "b_r_forearm" 25
27 "b_r_twist3" 26
28 "b_r_twist2" 26
29 "b_r_twist1" 26
30 "b_r_hand" 26
31 "b_r_thumb001" 30
32 "b_r_thumb002" 31
33 "b_r_thumb003" 32
34 "b_r_middle001" 30
35 "b_r_middle002" 34
36 "b_r_middle003" 35
37 "b_r_index001" 30
38 "b_r_index002" 37
39 "b_r_index003" 38
40 "b_r_hand_ringsqueezer" 30
41 "b_r_ring001" 40
42 "b_r_ring002" 41
43 "b_r_ring003" 42
44 "b_r_hand_pinkysqueezer" 30
45 "b_r_pinky001" 44
46 "b_r_pinky002" 45
47 "b_r_pinky003" 46
48 "b_zero" -1
end
skeleton
time 0
0 2.07424 6.02945 -10.7131 0 0 -0.74164
1 6.02795 0 0 -0.256088 0.502683 0.459597
2 11.7344 0 0 -0.00140278 0 -2.08224
3 8.81138 -0.000450134 -0.000112534 -0.364758 0 0.000157678
4 5.77839 0.000286102 0 -0.244388 0 0.000104101
5 2.23163 -0.000328064 -0.000364304 -0.12037 0 0
6 11.4725 0 0 -0.363624 -0.0725778 -0.372354
7 0.615219 -0.993091 -0.8107 2.56789 0.376141 -0.375063
8 2.24752 0 0 0.185973 0.17099 -0.383084
9 1.11936 0 0 0.138669 0.26134 -0.857922
10 3.71348 -0.102642 0.102192 1.52536 0.826984 0.025598
11 1.72615 0 0 -0.00632672 -0.0123851 -0.951866
12 1.21114 0 0 -0.0125246 0.0124169 -1.38721
13 3.59919 -1.06012 0.0708885 1.55456 0.812402 -0.07453
14 1.66069 0 0 0.0143186 0.0462917 -0.957319
15 1.167 0 0 -0.00918928 0.0858771 -1.32835
16 2.18852 0.501039 0.0576591 1.544 0.0608264 0.169253
17 1.29609 0 0 0.0276148 -0.0378311 -0.819545
18 1.62202 0.000713825 -0.000471115 -0.0131289 -0.0180831 -1.03514
19 1.22241 0 0 -0.0035073 -0.0321078 -1.42478
20 1.76707 1.27612 0.0366411 1.53257 0.139268 0.15834
21 1.55588 0 0 -0.0299391 0.0129007 -0.869479
22 1.24274 0 0 -0.000572128 -0.000179461 -0.983475
23 0.784524 0 0 0.0239002 0.0165234 -1.1451
24 -1.93761 -1.34664 -10.5891 -0.000932534 0 -2.28859
25 6.02794 0 0 0.603982 0.58631 -0.822858
26 11.7344 0 0 0.00140281 0 2.66793
27 8.81167 0 0 0.527072 0 0
28 5.77884 0 0 0.353138 0 0
29 2.23249 0 0 0.173934 0 0
30 11.4725 0 0 0.471897 0.442315 -0.0373417
31 0.615812 0.99437 -0.809165 -2.65991 0.325617 0.498276
32 2.24752 0 0 -0.255972 0.10044 0.264667
33 1.11936 0 0 -0.0396626 0.124062 0.432169
34 3.71349 0.102639 0.102191 -1.57808 0.747869 -0.0574258
35 1.72615 0 0 0.0113496 -0.00694231 1.34333
36 1.21112 0 0 0.00151754 0.0175709 0.68362
37 3.5992 1.06011 0.0708883 -1.58873 0.569223 0.0362105
38 1.66069 0 0 -0.0387003 0.0164272 1.10331
39 1.16699 0 0 -0.0789583 0.0477316 0.781758
40 2.18853 -0.50104 0.0576591 -1.57808 0.105665 -0.0730343
41 1.29609 0 0 -0.0208085 -0.0419602 0.649302
42 1.62202 -0.000712872 -0.000469208 0.0161804 -0.0104033 1.27165
43 1.2224 0 0 0.0256052 -0.0106537 0.692123
44 1.76707 -1.27612 0.0366406 -1.57721 0.162615 -0.0200826
45 1.55588 0 0 0.0258321 0.0198879 0.620255
46 1.24273 0 0 0.000596932 0 0.772993
47 0.784532 0 0 -0.0205583 0.00568148 1.0354
48 0 0 0 0 0 0
time 1
0 2.0496 4.91309 -10.6919 0 0 -0.74164
1 6.02795 0 0 -0.305299 0.527821 0.483346
2 11.7344 0 0 -0.00140289 0 -2.12757
3 8.81138 -0.000450134 -0.000111103 -0.328863 0 0.000158456
4 5.77839 0.000286102 0 -0.220338 0 0.000104813
5 2.23163 -0.000329971 -0.000364304 -0.108525 0 0
6 11.4725 0 0 -0.33496 -0.0436452 -0.362332
7 0.615218 -0.993092 -0.810699 2.54909 0.338087 -0.425932
8 2.24752 0 0 0.198719 0.156407 -0.305119
9 1.11936 0 0 0.171004 0.216034 -0.62489
10 3.71348 -0.102642 0.102192 1.55279 0.453792 0.0588246
11 1.72615 0 0 0.00299707 -0.0201779 -0.721088
12 1.21114 0 0 -0.00681662 0.0162657 -0.994328
13 3.59919 -1.06012 0.0708885 1.55846 0.438622 -0.0679819
14 1.66069 0 0 0.000162366 0.065429 -0.646429
15 1.167 0 0 -0.0256536 0.0594808 -0.846941
16 2.18852 0.501038 0.0576596 1.5582 0.0335396 0.198547
17 1.29609 0 0 0.01401 -0.0446905 -0.492664
18 1.62202 0.000713348 -0.000471115 -0.0041792 -0.0306442 -0.767188
19 1.22241 0 0 0.01106 -0.0208124 -1.03723
20 1.76707 1.27612 0.0366421 1.55422 0.0939372 0.211845
21 1.55588 0 0 -0.0257564 0.0199853 -0.61646
22 1.24274 0 0 -0.000599714 0 -0.677893
23 0.784523 0 0 0.0192474 0.0139211 -0.714677
24 -1.93761 -1.34664 -10.5891 -0.000932534 0 -2.28859
25 6.02794 0 0 0.710703 0.548657 -0.756351
26 11.7344 0 0 0.00140273 0 2.65633
27 8.81167 0 0 0.570994 0 0
28 5.77884 0 0 0.382566 0 0
29 2.23249 0 0 0.188428 0 0
30 11.4725 0 0 0.504731 0.455864 -0.0573083
31 0.615813 0.994372 -0.809165 -2.66401 0.306381 0.520041
32 2.24752 0 0 -0.258493 0.0819696 0.268181
33 1.11936 0 0 -0.0546291 0.106708 0.370909
34 3.71349 0.10264 0.102191 -1.57791 0.693336 -0.0583249
35 1.72615 0 0 0.0100086 -0.00746422 1.32564
36 1.21112 0 0 0.00018784 0.0176352 0.608109
37 3.5992 1.06012 0.0708878 -1.58669 0.501258 0.0380938
38 1.66069 0 0 -0.0360868 0.0178536 1.06934
39 1.16699 0 0 -0.0774205 0.0424267 0.711208
40 2.18853 -0.50104 0.0576589 -1.57808 0.105665 -0.0730344
41 1.29609 0 0 -0.0186649 -0.0429562 0.598808
42 1.62202 -0.000713348 -0.000469208 0.015042 -0.0114133 1.24021
43 1.2224 0 0 0.0257484 -0.00785332 0.600498
44 1.76707 -1.27612 0.0366414 -1.57721 0.162615 -0.0200827
45 1.55588 0 0 0.0247615 0.0212063 0.568146
46 1.24273 0 0 0.000598832 0 0.724792
47 0.784531 0 0 -0.0198399 0.00497615 0.974594
48 0 0 0 0 0 0
time 2
0 2.02647 3.77649 -10.6716 0 0 -0.74164
1 6.02795 0 0 -0.355756 0.539995 0.491354
2 11.7344 0 0 -0.00140283 0 -2.16818
3 8.81138 -0.000450134 -0.000112057 -0.299646 0 0.000157794
4 5.77839 0.000286102 0 -0.200763 0 0.000104375
5 2.23163 -0.000329971 -0.00036478 -0.0988833 0 0
6 11.4725 0 0 -0.309681 -0.0235049 -0.347247
7 0.615218 -0.993091 -0.8107 2.53694 0.309754 -0.462021
8 2.24752 0 0 0.207718 0.145353 -0.248518
9 1.11936 0 0 0.192722 0.180507 -0.456469
10 3.71348 -0.10264 0.102191 1.55941 0.181668 0.0743204
11 1.72615 0 0 0.00922539 -0.0250832 -0.552965
12 1.21114 0 0 -0.0019484 0.0175282 -0.708168
13 3.59919 -1.06012 0.0708876 1.55948 0.16639 -0.0646191
14 1.66069 0 0 -0.00807234 0.0751329 -0.419575
15 1.167 0 0 -0.0311736 0.0381029 -0.496275
16 2.18852 0.50104 0.0576591 1.56753 0.013617 0.219831
17 1.29609 0 0 0.00307557 -0.0467328 -0.254507
18 1.62202 0.000713825 -0.000471115 0.00170302 -0.0381033 -0.571901
19 1.22241 0 0 0.0194529 -0.0125002 -0.754936
20 1.76707 1.27612 0.0366402 1.5669 0.0605832 0.250442
21 1.55588 0 0 -0.0216578 0.024367 -0.432146
22 1.24274 0 0 -0.000584698 0.000133221 -0.455336
23 0.784523 0 0 0.0149093 0.0104046 -0.401229
24 -1.93761 -1.34664 -10.5891 -0.000932534 0 -2.28859
25 6.02794 0 0 0.808861 0.49953 -0.697358
26 11.7344 0 0 0.00140267 0 2.63962
27 8.81167 0 0 0.608477 0 0
28 5.77884 0 0 0.407679 0 0
29 2.23249 0 0 0.200797 0 0
30 11.4725 0 0 0.533271 0.464074 -0.0769236
31 0.615812 0.994374 -0.809165 -2.66693 0.293853 0.533974
32 2.24752 0 0 -0.26014 0.0700176 0.270451
33 1.11936 0 0 -0.064269 0.0950695 0.331509
34 3.71349 0.102641 0.102191 -1.57776 0.658049 -0.0588455
35 1.72615 0 0 0.00914534 -0.00780068 1.31419
36 1.21112 0 0 -0.000673692 0.0176234 0.55925
37 3.5992 1.06012 0.0708883 -1.58556 0.457276 0.039164
38 1.66069 0 0 -0.0344319 0.018745 1.04736
39 1.16699 0 0 -0.0765354 0.0389345 0.665564
40 2.18853 -0.50104 0.0576591 -1.57808 0.105665 -0.0730344
41 1.29609 0 0 -0.017252 -0.0435424 0.566134
42 1.62202 -0.000713348 -0.000470161 0.0143206 -0.0120526 1.21987
43 1.22241 0 0 0.025934 -0.00599039 0.541214
44 1.76707 -1.27612 0.0366411 -1.57721 0.162615 -0.0200826
45 1.55588 0 0 0.0240325 0.022029 0.534426
46 1.24273 0 0 0.000599314 0 0.693603
47 0.784531 0 0 -0.0193656 0.00448915 0.935249
48 0 0 0 0 0 0
time 3
0 2.00522 2.66013 -10.6524 0 0 -0.74164
1 6.02795 0 0 -0.406857 0.536359 0.480678
2 11.7344 0 0 -0.00140291 0 -2.201
3 8.81138 -0.000450134 -0.00011158 -0.275397 0 0.000157627
4 5.77839 0.000286102 0 -0.184516 0 0.000104491
5 2.23163 -0.000328064 -0.000364304 -0.090881 0 0
6 11.4725 0 0 -0.285669 -0.0136559 -0.326534
7 0.61522 -0.993092 -0.810699 2.53372 0.301592 -0.472169
8 2.24752 0 0 0.210236 0.142139 -0.232416
9 1.11936 0 0 0.198583 0.170036 -0.408663
10 3.71348 -0.102641 0.102191 1.55994 0.104103 0.0782795
11 1.72615 0 0 0.0109319 -0.0263504 -0.505047
12 1.21114 0 0 -0.000514051 0.0176288 -0.626618
13 3.59919 -1.06012 0.070888 1.55959 0.0888102 -0.0637384
14 1.66069 0 0 -0.0102344 0.077191 -0.354874
15 1.167 0 0 -0.0318915 0.0313799 -0.396412
16 2.18852 0.50104 0.0576587 1.57004 0.00793647 0.225892
17 1.29609 0 0 0 -0.0468336 -0.186632
18 1.62202 0.000714302 -0.000473022 0.00332725 -0.0399544 -0.51623
19 1.22241 0 0 0.0215146 -0.010033 -0.674493
20 1.76707 1.27612 0.0366406 1.57004 0.0510505 0.261404
21 1.55588 0 0 -0.0203486 0.0254705 -0.379614
22 1.24274 0 0 -0.000575069 0.000170026 -0.391913
23 0.784523 0 0 0.0134619 0.0092006 -0.311909
24 -1.93761 -1.34664 -10.5891 -0.000932534 0 -2.28859
25 6.02794 0 0 0.893665 0.443208 -0.649222
26 11.7344 0 0 0.00140272 0 2.61767
27 8.81167 0 0 0.636625 0 0
28 5.77884 0 0 0.426539 0 0
29 2.23249 0 0 0.210086 0 0
30 11.4725 0 0 0.555394 0.466531 -0.0946983
31 0.615813 0.994372 -0.809165 -2.66802 0.289387 0.538898
32 2.24752 0 0 -0.260728 0.06577 0.271257
33 1.11936 0 0 -0.0676841 0.0908564 0.317553
34 3.71349 0.102639 0.102191 -1.57769 0.645509 -0.05902
35 1.72615 0 0 0.00883938 -0.00791955 1.31012
36 1.21112 0 0 -0.000979405 0.0176089 0.541886
37 3.5992 1.06012 0.0708878 -1.58518 0.441646 0.0395194
38 1.66069 0 0 -0.0338503 0.0190555 1.03955
39 1.16699 0 0 -0.0762413 0.037681 0.649345
40 2.18853 -0.50104 0.0576591 -1.57808 0.105665 -0.0730342
41 1.29609 0 0 -0.0167453 -0.0437397 0.554522
42 1.62202 -0.00071311 -0.000469208 0.0140672 -0.0122769 1.21264
43 1.2224 0 0 0.026017 -0.00531778 0.520147
44 1.76707 -1.27612 0.0366409 -1.57721 0.162615 -0.0200827
45 1.55588 0 0 0.0237668 0.0223154 0.522443
46 1.24273 0 0 0.000599392 0 0.682519
47 0.784531 0 0 -0.0191951 0.00431016 0.921266
48 0 0 0 0 0 0
time 4
0 1.98623 1.60447 -10.635 0 0 -0.74164
1 6.02795 0 0 -0.464125 0.511904 0.440586
2 11.7344 0 0 -0.00140283 0 -2.21408
3 8.81138 -0.000452042 -0.000112057 -0.24563 0 0.000157726
4 5.77839 0.000282288 0 -0.164572 0 0.000104458
5 2.23163 -0.000329971 -0.000363827 -0.081058 0 0
6 11.4725 0 0 -0.252667 -0.0137124 -0.300424
7 0.615218 -0.993092 -0.8107 2.54184 0.321611 -0.447087
8 2.24752 0 0 0.204002 0.149999 -0.272067
9 1.11936 0 0 0.183889 0.195538 -0.526467
10 3.71348 -0.102641 0.102191 1.55762 0.294989 0.0682741
11 1.72615 0 0 0.00668088 -0.0231257 -0.622972
12 1.21114 0 0 -0.00401801 0.0171724 -0.827319
13 3.59919 -1.06012 0.070888 1.55918 0.279741 -0.0659517
14 1.66069 0 0 -0.00479111 0.0715551 -0.51407
15 1.167 0 0 -0.0294765 0.047375 -0.642252
16 2.18852 0.501039 0.0576596 1.56375 0.0219153 0.210972
17 1.29609 0 0 0.00768567 -0.0461992 -0.353674
18 1.62202 0.000713825 -0.000471115 -0.000703214 -0.0351781 -0.653227
19 1.22241 0 0 0.0161813 -0.0160119 -0.872477
20 1.76707 1.27612 0.0366406 1.56193 0.074494 0.234399
21 1.55588 0 0 -0.023462 0.022635 -0.508894
22 1.24274 0 0 -0.000594527 0 -0.548003
23 0.784523 0 0 0.0168455 0.0120131 -0.531737
24 -1.93761 -1.34664 -10.5891 -0.000932534 0 -2.28859
25 6.02794 0 0 0.963479 0.385312 -0.612948
26 11.7344 0 0 0.00140276 0 2.59347
27 8.81167 0 0 0.654839 0 0
28 5.77884 0 0 0.438742 0 0
29 2.23249 0 0 0.216097 0 0
30 11.4725 0 0 0.570129 0.463768 -0.111005
31 0.615814 0.994373 -0.809165 -2.66348 0.30875 0.517385
32 2.24752 0 0 -0.258182 0.0842368 0.26775
33 1.11936 0 0 -0.0527961 0.10888 0.378405
34 3.71349 0.10264 0.102191 -1.57794 0.70003 -0.058221
35 1.72615 0 0 0.0101727 -0.00740047 1.32781
36 1.21112 0 0 0.000351254 0.0176327 0.617378
37 3.5992 1.06012 0.070888 -1.58693 0.5096 0.0378786
38 1.66069 0 0 -0.036404 0.0176817 1.07351
39 1.16699 0 0 -0.0775979 0.0430836 0.719867
40 2.18853 -0.501039 0.0576589 -1.57808 0.105665 -0.0730343
41 1.29609 0 0 -0.0189307 -0.0428397 0.605006
42 1.62202 -0.000712872 -0.000471115 0.0151801 -0.0112909 1.24407
43 1.22241 0 0 0.0257215 -0.00820213 0.611744
44 1.76707 -1.27612 0.0366416 -1.57721 0.162615 -0.0200826
45 1.55588 0 0 0.0248967 0.0210474 0.574542
46 1.24273 0 0 0.000598725 0 0.730708
47 0.784531 0 0 -0.0199291 0.00506588 0.982058
48 0 0 0 0 0 0
time 5
0 1.96985 0.649999 -10.6197 0 0 -0.74164
1 6.02794 0 0 -0.523431 0.466948 0.376586
2 11.7344 0 0 -0.00140287 0 -2.20119
3 8.81138 -0.000450134 -0.000112057 -0.204953 0 0.000158259
4 5.77839 0.000286102 0 -0.137319 0 0.000105073
5 2.23163 -0.000329971 -0.000363827 -0.0676346 0 0
6 11.4725 0 0 -0.20639 -0.0231851 -0.27437
7 0.615219 -0.993091 -0.810699 2.56 0.360913 -0.39578
8 2.24752 0 0 0.191168 0.165191 -0.351593
9 1.11936 0 0 0.152024 0.243577 -0.763648
10 3.71348 -0.102642 0.102191 1.54002 0.676518 0.0418252
11 1.72615 0 0 -0.00244279 -0.0156652 -0.858763
12 1.21114 0 0 -0.0104075 0.0142381 -1.2287
13 3.59919 -1.06012 0.0708876 1.55665 0.661595 -0.0714383
14 1.66069 0 0 0.00810169 0.0547633 -0.831973
15 1.167 0 0 -0.0171434 0.0753665 -1.13419
16 2.18852 0.50104 0.0576582 1.54992 0.0498303 0.181085
17 1.29609 0 0 0.0224026 -0.0411316 -0.687681
18 1.62202 0.000714064 -0.000471115 -0.00935904 -0.0234587 -0.927055
19 1.22241 0 0 0.00279348 -0.0274939 -1.26843
20 1.76707 1.27612 0.0366406 1.54189 0.121064 0.180016
21 1.55588 0 0 -0.0284686 0.0158848 -0.7674
22 1.24274 0 0 -0.000589819 -0.000107741 -0.860182
23 0.784523 0 0 0.0221437 0.0158147 -0.971431
24 -1.93761 -1.34664 -10.5891 -0.000932534 0 -2.28859
25 6.02794 0 0 1.01925 0.329658 -0.586646
26 11.7344 0 0 0.00140277 0 2.56692
27 8.81167 0 0 0.663486 0 0
28 5.77884 0 0 0.444535 0 0
29 2.23249 0 0 0.21895 0 0
30 11.4725 0 0 0.577604 0.456859 -0.124636
31 0.615813 0.99437 -0.809165 -2.65409 0.357959 0.460556
32 2.24752 0 0 -0.251752 0.131859 0.258669
33 1.11936 0 0 -0.0141089 0.151792 0.537368
34 3.71349 0.102639 0.102191 -1.57814 0.840632 -0.0555761
35 1.72615 0 0 0.0136502 -0.00604776 1.37343
36 1.21112 0 0 0.00375576 0.0172317 0.812065
37 3.5992 1.06012 0.0708878 -1.59314 0.684818 0.0321954
38 1.66069 0 0 -0.0433066 0.0138705 1.16109
39 1.16699 0 0 -0.0820677 0.0565372 0.901787
40 2.18853 -0.50104 0.0576587 -1.57808 0.105665 -0.0730344
41 1.29609 0 0 -0.02433 -0.0400219 0.735183
42 1.62202 -0.000713348 -0.000469208 0.0181851 -0.00862413 1.32513
43 1.22241 0 0 0.0257821 -0.0152409 0.847992
44 1.76707 -1.27612 0.0366411 -1.57721 0.162615 -0.0200826
45 1.55588 0 0 0.0274913 0.0175229 0.708889
46 1.24273 0 0 0.000590263 -0.000104335 0.854986
47 0.784531 0 0 -0.021748 0.00674683 1.13884
48 0 0 0 0 0 0
time 6
0 1.95647 -0.162821 -10.607 0 0 -0.74164
1 6.02795 0 0 -0.573661 0.411363 0.3078
2 11.7344 0 0 -0.00140285 0 -2.16895
3 8.81138 -0.000450134 -0.000110626 -0.159494 0 0.000158292
4 5.77839 0.000284195 0 -0.106861 0 0.000105298
5 2.23163 -0.000329971 -0.00036335 -0.0526331 0 0
6 11.4725 0 0 -0.154468 -0.0398909 -0.255602
7 0.615218 -0.993092 -0.810699 2.58412 0.404703 -0.334742
8 2.24752 0 0 0.175875 0.181733 -0.443334
9 1.11936 0 0 0.11226 0.293179 -1.03883
10 3.71348 -0.102644 0.102191 1.46735 1.11324 -0.0328373
11 1.72615 0 0 -0.0142655 -0.00568071 -1.12958
12 1.21114 0 0 -0.0156558 0.00812053 -1.68981
13 3.59919 -1.06012 0.0708883 1.54617 1.10028 -0.0846987
14 1.66069 0 0 0.0285575 0.0276972 -1.19629
15 1.167 0 0 0.0108796 0.106828 -1.69845
16 2.18852 0.501038 0.0576589 1.53197 0.081751 0.146598
17 1.29609 0 0 0.0361633 -0.0297657 -1.07118
18 1.62202 0.00071454 -0.000471115 -0.0210963 -0.00677687 -1.24138
19 1.22241 0 0 -0.0170349 -0.0414839 -1.72317
20 1.76707 1.27612 0.0366409 1.51253 0.173595 0.116539
21 1.55588 0 0 -0.03187 0.00685797 -1.06434
22 1.24273 0 0 -0.000514473 -0.000307962 -1.21885
23 0.784523 0 0 0.0271379 0.0165227 -1.47665
24 -1.93761 -1.34664 -10.5891 -0.000932534 0 -2.28859
25 6.02794 0 0 1.06247 0.279716 -0.568399
26 11.7344 0 0 0.00140263 0 2.54046
27 8.81167 0 0 0.664265 0 0
28 5.77884 0 0 0.445057 0 0
29 2.23249 0 0 0.219207 0 0
30 11.4725 0 0 0.57877 0.447049 -0.136071
31 0.615813 0.994372 -0.809165 -2.64693 0.423238 0.379202
32 2.24752 0 0 -0.243283 0.196967 0.246134
33 1.11936 0 0 0.0384432 0.202024 0.759037
34 3.71349 0.102638 0.102191 -1.57651 1.03287 -0.0497154
35 1.72615 0 0 0.0184971 -0.00416904 1.4358
36 1.21112 0 0 0.00815624 0.015637 1.07826
37 3.5992 1.06012 0.0708876 -1.60827 0.924269 0.0184294
38 1.66069 0 0 -0.0535306 0.00809585 1.28081
39 1.16699 0 0 -0.0905964 0.0742159 1.15053
40 2.18853 -0.50104 0.0576584 -1.57808 0.105665 -0.0730342
41 1.29609 0 0 -0.0310286 -0.0350858 0.913126
42 1.62202 -0.00071311 -0.000470161 0.0226281 -0.0047136 1.43595
43 1.22241 0 0 0.027932 -0.0243715 1.17103
44 1.76707 -1.27612 0.0366409 -1.57721 0.162615 -0.0200827
45 1.55588 0 0 0.030229 0.0122062 0.89256
46 1.24273 0 0 0.000564122 -0.000202753 1.02492
47 0.784532 0 0 -0.0241544 0.00840358 1.35323
48 0 0 0 0 0 0
time 7
0 1.94646 -0.793514 -10.5974 0 0 -0.74164
1 6.02795 0 0 -0.610576 0.357225 0.247416
2 11.7344 0 0 -0.00140286 0 -2.12677
3 8.81138 -0.000450134 -0.000112534 -0.117324 0 0.000157508
4 5.77839 0.000286102 0 -0.078607 0 0.000104943
5 2.23164 -0.000328064 -0.000363827 -0.0387169 0 0
6 11.4725 0 0 -0.105749 -0.0602204 -0.247244
7 0.615219 -0.993092 -0.810699 2.60671 0.439534 -0.282571
8 2.24752 0 0 0.162887 0.194598 -0.519232
9 1.11936 0 0 0.0780116 0.329117 -1.2676
10 3.71348 -0.102642 0.102192 0.967123 1.45732 -0.529115
11 1.72615 0 0 -0.0253264 0.00338993 -1.3527
12 1.21114 0 0 -0.0175506 0.00173455 -2.06975
13 3.59919 -1.06012 0.0708885 1.46835 1.46141 -0.164583
14 1.66069 0 0 0.0516875 0.000934457 -1.49589
15 1.167 0 0 0.0440735 0.137697 -2.1616
16 2.18852 0.501038 0.0576596 1.51551 0.107857 0.117986
17 1.29609 0 0 0.0436186 -0.0170587 -1.38699
18 1.62202 0.000713825 -0.000473022 -0.0328675 0.00905066 -1.50021
19 1.22241 0 0 -0.0364067 -0.055023 -2.09762
20 1.76707 1.27612 0.0366421 1.4832 0.215664 0.0630836
21 1.55588 0 0 -0.0325818 -0.00106895 -1.309
22 1.24273 0 0 -0.000402336 -0.000444572 -1.51443
23 0.784523 0 0 0.031755 0.0140752 -1.89297
24 -1.93761 -1.34664 -10.5891 -0.000932534 0 -2.28859
25 6.02794 0 0 1.09471 0.238074 -0.556323
26 11.7344 0 0 0.00140268 0 2.51671
27 8.81167 0 0 0.659268 0 0
28 5.77884 0 0 0.441709 0 0
29 2.23249 0 0 0.217558 0 0
30 11.4725 0 0 0.575039 0.43553 -0.146015
31 0.615813 0.994371 -0.809165 -2.6472 0.491086 0.28481
32 2.24752 0 0 -0.234508 0.267893 0.232268
33 1.11936 0 0 0.093124 0.245884 1.00509
34 3.71349 0.102639 0.102191 -1.56759 1.24229 -0.0357656
35 1.72615 0 0 0.0239001 -0.00209193 1.50376
36 1.21112 0 0 0.0122872 0.0126518 1.36828
37 3.5992 1.06012 0.0708885 -1.64764 1.18472 -0.0185304
38 1.66069 0 0 -0.0657794 0.0011846 1.41123
39 1.16699 0 0 -0.103201 0.0933087 1.42134
40 2.18853 -0.50104 0.0576589 -1.57808 0.105665 -0.0730343
41 1.29609 0 0 -0.0372039 -0.028454 1.10693
42 1.62201 -0.000712633 -0.000470161 0.0279422 -0.000153145 1.55668
43 1.22241 0 0 0.0330546 -0.0345147 1.52292
44 1.76707 -1.27612 0.0366409 -1.57721 0.162615 -0.0200827
45 1.55588 0 0 0.0320518 0.00595277 1.09265
46 1.24273 0 0 0.000517175 -0.000303217 1.21007
47 0.784532 0 0 -0.026841 0.00936176 1.58683
48 0 0 0 0 0 0
time 8
0 1.94018 -1.20161 -10.5913 0 0 -0.74164
1 6.02794 0 0 -0.634902 0.315794 0.203639
2 11.7344 0 0 -0.00140296 0 -2.08626
3 8.81138 -0.000448227 -0.00011158 -0.0874613 0 0.000157548
4 5.77839 0.000286102 0 -0.058599 0 0.000105151
5 2.23163 -0.000328064 -0.00036478 -0.0288623 0 0
6 11.4725 0 0 -0.0697519 -0.0802963 -0.247612
7 0.615219 -0.993093 -0.8107 2.61685 0.453644 -0.260345
8 2.24752 0 0 0.157398 0.199735 -0.550863
9 1.11936 0 0 0.0636372 0.342702 -1.36316
10 3.71348 -0.102642 0.10219 -0.677392 1.47986 -2.17052
11 1.72615 0 0 -0.030313 0.0073128 -1.44546
12 1.21114 0 0 -0.017605 -0.00104819 -2.2277
13 3.59919 -1.06012 0.0708876 -1.30789 1.52782 -2.94166
14 1.66069 0 0 0.0632258 -0.0109068 -1.62036
15 1.167 0 0 0.0598756 0.152814 -2.35349
16 2.18852 0.501036 0.0576582 1.50822 0.11864 0.106026
17 1.29609 0 0 0.0454756 -0.0112005 -1.51823
18 1.62202 0.000714302 -0.000471115 -0.0384309 0.0160453 -1.60779
19 1.22241 0 0 -0.0450581 -0.0614231 -2.25319
20 1.76707 1.27612 0.0366406 1.46962 0.232734 0.0404857
21 1.55588 0 0 -0.0323049 -0.00437299 -1.41072
22 1.24274 0 0 -0.000344917 -0.000490359 -1.63731
23 0.784523 0 0 0.0340911 0.0123451 -2.06604
24 -1.93761 -1.34664 -10.5891 -0.000932534 0 -2.28859
25 6.02794 0 0 1.11726 0.206317 -0.548692
26 11.7344 0 0 0.00140268 0 2.49725
27 8.81167 0 0 0.650461 0 0
28 5.77884 0 0 0.435809 0 0
29 2.23249 0 0 0.214652 0 0
30 11.4725 0 0 0.567972 0.423321 -0.154619
31 0.615812 0.994372 -0.809165 -2.65552 0.549616 0.191931
32 2.24752 0 0 -0.226904 0.332976 0.219287
33 1.11936 0 0 0.138669 0.276995 1.23361
34 3.71348 0.102639 0.102191 -1.5232 1.43428 0.0136187
35 1.72615 0 0 0.0289735 -0.000164749 1.56613
36 1.21112 0 0 0.0151822 0.00897457 1.63444
37 3.5992 1.06012 0.0708878 -1.80524 1.42143 -0.172959
38 1.66069 0 0 -0.0781015 -0.00559776 1.53091
39 1.16699 0 0 -0.117763 0.11146 1.6695
40 2.18853 -0.50104 0.0576591 -1.57808 0.105665 -0.0730342
41 1.29609 0 0 -0.0416494 -0.0214239 1.28473
42 1.62202 -0.000712633 -0.000469208 0.0332824 0.00425612 1.66747
43 1.22241 0 0 0.0401124 -0.0448279 1.84572
44 1.76707 -1.27612 0.0366409 -1.57721 0.162615 -0.0200825
45 1.55588 0 0 0.0325999 0 1.27628
46 1.24273 0 0 0.000458319 -0.000386367 1.38
47 0.784532 0 0 -0.029535 0.00949536 1.80123
48 0 0 0 0 0 0
time 9
0 1.938 -1.34664 -10.5891 0 0 -0.74164
1 6.02794 0 0 -0.650767 0.292064 0.176337
2 11.7344 0 0 -0.00140285 0 -2.05311
3 8.81138 -0.000450134 -0.00011158 -0.0752441 0 0.000158056
4 5.77839 0.000284195 0 -0.0504135 0 0.000105633
5 2.23163 -0.000329971 -0.000364304 -0.0248306 0 0
6 11.4725 0 0 -0.0517239 -0.0994551 -0.253305
7 0.615219 -0.993092 -0.8107 2.61685 0.453644 -0.260346
8 2.24752 0 0 0.157398 0.199735 -0.550863
9 1.11936 0 0 0.0636373 0.342702 -1.36316
10 3.71348 -0.102638 0.10219 -0.677391 1.47986 -2.17052
11 1.72615 0 0 -0.0303133 0.00731299 -1.44546
12 1.21114 0 0 -0.017605 -0.00104782 -2.2277
13 3.59919 -1.06012 0.0708871 -1.30789 1.52782 -2.94166
14 1.66069 0 0 0.0632255 -0.0109066 -1.62036
15 1.167 0 0 0.0598755 0.152814 -2.35349
16 2.18852 0.501041 0.0576587 1.50822 0.11864 0.106025
17 1.29609 0 0 0.0454756 -0.0112007 -1.51823
18 1.62202 0.000713587 -0.000469208 -0.0384311 0.0160456 -1.60779
19 1.22241 0 0 -0.045058 -0.0614229 -2.25318
20 1.76707 1.27612 0.0366406 1.46962 0.232734 0.0404856
21 1.55588 0 0 -0.0323047 -0.00437275 -1.41072
22 1.24274 0 0 -0.000345079 -0.000490533 -1.63731
23 0.784524 0 0 0.0340909 0.0123452 -2.06604
24 -1.93761 -1.34664 -10.5891 -0.000932534 0 -2.28859
25 6.02794 0 0 1.13079 0.186049 -0.544436
26 11.7344 0 0 0.00140272 0 2.48429
27 8.81167 0 0 0.639638 0 0
28 5.77884 0 0 0.428558 0 0
29 2.23249 0 0 0.211081 0 0
30 11.4725 0 0 0.559017 0.411197 -0.162353
31 0.615813 0.994372 -0.809165 -2.66685 0.589689 0.119711
32 2.24752 0 0 -0.221643 0.380563 0.2096
33 1.11936 0 0 0.16794 0.294998 1.40147
34 3.71349 0.102639 0.102191 0.343167 1.55852 1.88385
35 1.72615 0 0 0.0327534 0.00125351 1.61175
36 1.21112 0 0 0.0166314 0.00586812 1.82908
37 3.5992 1.06012 0.070888 2.47553 1.52225 -2.1724
38 1.66069 0 0 -0.0877938 -0.010749 1.61843
39 1.16699 0 0 -0.130103 0.125526 1.85065
40 2.18853 -0.50104 0.0576591 -1.57808 0.105665 -0.0730344
41 1.29609 0 0 -0.044075 -0.0158415 1.41473
42 1.62202 -0.000712991 -0.000471115 0.0374809 0.00758678 1.7485
43 1.22241 0 0 0.04646 -0.0533801 2.08166
44 1.76707 -1.27612 0.0366409 -1.57721 0.162615 -0.0200828
45 1.55588 0 0 0.0323058 -0.00436854 1.41058
46 1.24273 0 0 0.000407132 -0.000439979 1.50428
47 0.784532 0 0 -0.0317318 0.0091779 1.95803
48 0 0 0 0 0 0
time 10
0 1.938 -1.34664 -10.5891 0 0 -0.74164
1 6.02794 0 0 -0.662418 0.281168 0.162323
2 11.7344 0 0 -0.00140284 0 -2.03042
3 8.81138 -0.000452042 -0.000111103 -0.0792592 0 0.000158499
4 5.77839 0.000286102 0 -0.0531036 0 0.000105839
5 2.23163 -0.000329971 -0.00036335 -0.0261556 0 0
6 11.4725 0 0 -0.0501129 -0.118961 -0.258713
7 0.615219 -0.99309 -0.8107 2.61685 0.453644 -0.260346
8 2.24752 0 0 0.157398 0.199735 -0.550863
9 1.11936 0 0 0.0636375 0.342702 -1.36316
10 3.71348 -0.102642 0.102191 -0.677391 1.47986 -2.17052
11 1.72615 0 0 -0.0303131 0.00731268 -1.44545
12 1.21114 0 0 -0.0176051 -0.00104799 -2.2277
13 3.59919 -1.06012 0.0708876 -1.30788 1.52782 -2.94165
14 1.66069 0 0 0.0632257 -0.0109068 -1.62036
15 1.167 0 0 0.0598755 0.152814 -2.35349
16 2.18852 0.50104 0.0576591 1.50822 0.11864 0.106026
17 1.29609 0 0 0.0454756 -0.0112004 -1.51823
18 1.62202 0.000713587 -0.000469208 -0.0384311 0.0160453 -1.60779
19 1.22241 0 0 -0.045058 -0.0614231 -2.25319
20 1.76707 1.27612 0.0366411 1.46962 0.232734 0.0404857
21 1.55588 0 0 -0.0323049 -0.00437287 -1.41072
22 1.24273 0 0 -0.000345039 -0.00049049 -1.63731
23 0.784523 0 0 0.0340909 0.0123452 -2.06604
24 -1.93761 -1.34664 -10.5891 -0.000932534 0 -2.28859
25 6.02794 0 0 1.13654 0.177103 -0.542687
26 11.7344 0 0 0.00140267 0 2.47845
27 8.81167 0 0 0.625395 0 0
28 5.77884 0 0 0.419015 0 0
29 2.23249 0 0 0.20638 0 0
30 11.4725 0 0 0.546973 0.39749 -0.170449
31 0.615812 0.994373 -0.809165 -2.67249 0.604523 0.0906575
32 2.24752 0 0 -0.219677 0.399013 0.205792
33 1.11936 0 0 0.178192 0.301066 1.46658
34 3.71349 0.10264 0.102191 1.33974 1.5106 2.88198
35 1.72615 0 0 0.034235 0.00180465 1.62944
36 1.21112 0 0 0.0170267 0.00459742 1.90455
37 3.5992 1.06012 0.0708883 1.95333 1.4652 -2.69328
38 1.66069 0 0 -0.0917098 -0.0127771 1.65237
39 1.16699 0 0 -0.135239 0.131222 1.92081
40 2.18853 -0.50104 0.0576589 -1.57808 0.105665 -0.0730344
41 1.29609 0 0 -0.0448171 -0.0135997 1.46513
42 1.62201 -0.000713587 -0.000471115 0.039177 0.00889714 1.77992
43 1.22241 0 0 0.0491365 -0.0569793 2.17311
44 1.76707 -1.27612 0.0366411 -1.57721 0.162615 -0.0200826
45 1.55588 0 0 0.0320347 -0.00604473 1.46266
46 1.24273 0 0 0.000385457 -0.000459032 1.55247
47 0.784531 0 0 -0.0326484 0.00896839 2.01883
48 0 0 0 0 0 0
time 11
0 1.938 -1.34664 -10.5891 0 0 -0.74164
1 6.02794 0 0 -0.671015 0.279303 0.162769
2 11.7344 0 0 -0.00140287 0 -2.02532
3 8.81138 -0.000450134 -0.000112057 -0.0963279 0 0.000158542
4 5.77839 0.000286102 0 -0.0645397 0 0.000105733
5 2.23163 -0.000328064 -0.000363827 -0.0317882 0 0
6 11.4725 0 0 -0.0626226 -0.137941 -0.257813
7 0.615219 -0.993092 -0.8107 2.61685 0.453644 -0.260345
8 2.24752 0 0 0.157398 0.199735 -0.550863
9 1.11936 0 0 0.0636373 0.342702 -1.36316
10 3.71348 -0.102638 0.102191 -0.67739 1.47986 -2.17052
11 1.72615 0 0 -0.0303132 0.00731296 -1.44546
12 1.21114 0 0 -0.0176051 -0.00104779 -2.2277
13 3.59919 -1.06012 0.0708885 -1.30788 1.52782 -2.94165
14 1.66069 0 0 0.0632257 -0.0109068 -1.62036
15 1.167 0 0 0.0598755 0.152814 -2.35349
16 2.18852 0.50104 0.0576591 1.50822 0.11864 0.106025
17 1.29609 0 0 0.0454756 -0.0112007 -1.51823
18 1.62202 0.000714064 -0.000473022 -0.0384309 0.0160454 -1.60779
19 1.22241 0 0 -0.045058 -0.061423 -2.25319
20 1.76707 1.27612 0.0366411 1.46962 0.232734 0.0404856
21 1.55588 0 0 -0.0323047 -0.00437292 -1.41072
22 1.24273 0 0 -0.000344693 -0.000490731 -1.63731
23 0.784523 0 0 0.0340912 0.012345 -2.06604
24 -1.93761 -1.34664 -10.5891 -0.000932534 0 -2.28859
25 6.02794 0 0 1.13725 0.175989 -0.542475
26 11.7344 0 0 0.00140255 0 2.47772
27 8.81167 0 0 0.608052 0 0
28 5.77884 0 0 0.407395 0 0
29 2.23249 0 0 0.200657 0 0
30 11.4725 0 0 0.532198 0.382008 -0.179052
31 0.615813 0.994372 -0.809165 -2.67249 0.604523 0.0906575
32 2.24752 0 0 -0.219677 0.399013 0.205792
33 1.11936 0 0 0.178192 0.301066 1.46658
34 3.71349 0.102639 0.102191 1.33973 1.5106 2.88198
35 1.72615 0 0 0.0342352 0.00180481 1.62944
36 1.21112 0 0 0.0170264 0.00459756 1.90454
37 3.5992 1.06012 0.070888 1.95333 1.4652 -2.69328
38 1.66069 0 0 -0.0917096 -0.0127771 1.65237
39 1.16699 0 0 -0.135239 0.131222 1.92081
40 2.18853 -0.50104 0.0576589 -1.57808 0.105665 -0.0730344
41 1.29609 0 0 -0.044817 -0.0135998 1.46513
42 1.62202 -0.000713348 -0.000469208 0.0391772 0.00889722 1.77992
43 1.22241 0 0 0.0491368 -0.0569794 2.17311
44 1.76707 -1.27612 0.0366411 -1.57721 0.162615 -0.0200827
45 1.55588 0 0 0.0320346 -0.00604475 1.46266
46 1.24273 0 0 0.000385244 -0.00045925 1.55247
47 0.784531 0 0 -0.0326481 0.00896812 2.01883
48 0 0 0 0 0 0
time 12
0 1.938 -1.34664 -10.5891 0 0 -0.74164
1 6.02794 0 0 -0.677088 0.28276 0.171031
2 11.7344 0 0 -0.00140281 0 -2.03061
3 8.81138 -0.000452042 -0.00011158 -0.11845 0 0.000157958
4 5.77839 0.000286102 0 -0.0793615 0 0.000105158
5 2.23163 -0.000329971 -0.00036335 -0.0390885 0 0
6 11.4725 0 0 -0.0815304 -0.154065 -0.253437
7 0.615219 -0.993092 -0.810699 2.61685 0.453644 -0.260346
8 2.24752 0 0 0.157398 0.199735 -0.550863
9 1.11936 0 0 0.0636373 0.342702 -1.36316
10 3.71348 -0.102642 0.102191 -0.677388 1.47986 -2.17052
11 1.72615 0 0 -0.0303131 0.00731289 -1.44545
12 1.21114 0 0 -0.0176051 -0.00104804 -2.2277
13 3.59919 -1.06012 0.0708876 -1.30788 1.52782 -2.94165
14 1.66069 0 0 0.0632257 -0.0109066 -1.62036
15 1.167 0 0 0.0598756 0.152814 -2.35349
16 2.18852 0.501038 0.0576587 1.50822 0.11864 0.106026
17 1.29609 0 0 0.0454759 -0.0112004 -1.51823
18 1.62202 0.000714302 -0.000471115 -0.0384311 0.0160453 -1.60779
19 1.22241 0 0 -0.0450582 -0.061423 -2.25319
20 1.76707 1.27612 0.0366411 1.46962 0.232734 0.0404856
21 1.55588 0 0 -0.0323048 -0.00437287 -1.41072
22 1.24273 0 0 -0.000344867 -0.000490568 -1.63731
23 0.784523 0 0 0.0340911 0.012345 -2.06604
24 -1.93761 -1.34664 -10.5891 -0.000932534 0 -2.28859
25 6.02794 0 0 1.13511 0.179335 -0.543115
26 11.7344 0 0 0.00140274 0 2.47992
27 8.81167 0 0 0.591309 0 0
28 5.77884 0 0 0.396177 0 0
29 2.23249 0 0 0.195132 0 0
30 11.4725 0 0 0.517954 0.367466 -0.186687
31 0.615812 0.994373 -0.809165 -2.67249 0.604523 0.0906577
32 2.24752 0 0 -0.219677 0.399013 0.205792
33 1.11936 0 0 0.178192 0.301066 1.46658
34 3.71348 0.102639 0.102191 1.33974 1.5106 2.88198
35 1.72615 0 0 0.0342351 0.00180469 1.62944
36 1.21112 0 0 0.0170266 0.00459735 1.90454
37 3.5992 1.06012 0.070888 1.95333 1.4652 -2.69328
38 1.66069 0 0 -0.0917098 -0.0127771 1.65237
39 1.16699 0 0 -0.135239 0.131221 1.92081
40 2.18853 -0.50104 0.0576591 -1.57808 0.105665 -0.0730344
41 1.29609 0 0 -0.0448171 -0.0135999 1.46513
42 1.62202 -0.000712752 -0.000471115 0.039177 0.00889717 1.77992
43 1.22241 0 0 0.0491367 -0.0569795 2.17311
44 1.76707 -1.27612 0.0366409 -1.57721 0.162615 -0.0200827
45 1.55588 0 0 0.0320346 -0.00604466 1.46266
46 1.24273 0 0 0.000385206 -0.000459288 1.55247
47 0.784532 0 0 -0.032648 0.00896831 2.01883
48 0 0 0 0 0 0
time 13
0 1.938 -1.34664 -10.5891 0 0 -0.74164
1 6.02794 0 0 -0.680774 0.287727 0.180698
2 11.7344 0 0 -0.00140282 0 -2.03898
3 8.81138 -0.000450134 -0.00011158 -0.137658 0 0.000157387
4 5.77839 0.000286102 0 -0.0922308 0 0.000104876
5 2.23163 -0.000329971 -0.000364304 -0.0454271 0 0
6 11.4725 0 0 -0.0988767 -0.165187 -0.248734
7 0.615219 -0.993093 -0.8107 2.61685 0.453644 -0.260345
8 2.24752 0 0 0.157398 0.199735 -0.550863
9 1.11936 0 0 0.063637 0.342702 -1.36316
10 3.71348 -0.10264 0.102191 -0.677393 1.47986 -2.17052
11 1.72615 0 0 -0.0303131 0.00731287 -1.44545
12 1.21114 0 0 -0.0176051 -0.00104793 -2.2277
13 3.59919 -1.06012 0.0708876 -1.30789 1.52782 -2.94166
14 1.66069 0 0 0.0632256 -0.0109067 -1.62036
15 1.167 0 0 0.0598754 0.152814 -2.35349
16 2.18852 0.50104 0.0576591 1.50822 0.11864 0.106026
17 1.29609 0 0 0.0454758 -0.0112005 -1.51823
18 1.62202 0.000714064 -0.000469208 -0.0384309 0.0160454 -1.60779
19 1.22241 0 0 -0.0450579 -0.0614229 -2.25318
20 1.76707 1.27612 0.0366411 1.46962 0.232734 0.0404858
21 1.55588 0 0 -0.0323046 -0.00437292 -1.41072
22 1.24273 0 0 -0.000344975 -0.000490508 -1.63731
23 0.784523 0 0 0.034091 0.0123452 -2.06604
24 -1.93761 -1.34664 -10.5891 -0.000932534 0 -2.28859
25 6.02794 0 0 1.13224 0.183809 -0.543989
26 11.7344 0 0 0.0014027 0 2.48284
27 8.81167 0 0 0.57868 0 0
28 5.77884 0 0 0.387716 0 0
29 2.23249 0 0 0.190964 0 0
30 11.4725 0 0 0.507254 0.356628 -0.192045
31 0.615813 0.994371 -0.809165 -2.67249 0.604523 0.0906577
32 2.24752 0 0 -0.219677 0.399013 0.205792
33 1.11936 0 0 0.178192 0.301066 1.46658
34 3.71349 0.102638 0.102191 1.33974 1.5106 2.88198
35 1.72615 0 0 0.0342349 0.00180475 1.62944
36 1.21112 0 0 0.0170264 0.00459751 1.90454
37 3.5992 1.06012 0.0708883 1.95333 1.4652 -2.69328
38 1.66069 0 0 -0.0917095 -0.0127771 1.65237
39 1.16699 0 0 -0.135239 0.131222 1.92081
40 2.18853 -0.50104 0.0576594 -1.57808 0.105665 -0.0730342
41 1.29609 0 0 -0.044817 -0.0135997 1.46513
42 1.62201 -0.000713706 -0.000471115 0.0391768 0.0088971 1.77992
43 1.22241 0 0 0.0491368 -0.0569794 2.17311
44 1.76707 -1.27612 0.0366414 -1.57721 0.162615 -0.0200826
45 1.55588 0 0 0.0320346 -0.00604469 1.46266
46 1.24273 0 0 0.000385259 -0.00045932 1.55247
47 0.784532 0 0 -0.0326479 0.00896793 2.01883
48 0 0 0 0 0 0
time 14
0 1.938 -1.34664 -10.5891 0 0 -0.74164
1 6.02794 0 0 -0.68202 0.290271 0.18536
2 11.7344 0 0 -0.00140288 0 -2.04333
3 8.81138 -0.000448227 -0.00011158 -0.145868 0 0.000158006
4 5.77839 0.00028801 0 -0.0977316 0 0.000105089
5 2.23163 -0.000328064 -0.00036335 -0.0481364 0 0
6 11.4725 0 0 -0.106486 -0.169324 -0.246575
7 0.615219 -0.993092 -0.8107 2.61685 0.453644 -0.260346
8 2.24752 0 0 0.157398 0.199735 -0.550863
9 1.11936 0 0 0.0636372 0.342702 -1.36316
10 3.71348 -0.10264 0.102191 -0.677391 1.47986 -2.17052
11 1.72615 0 0 -0.0303133 0.00731307 -1.44546
12 1.21114 0 0 -0.0176051 -0.00104781 -2.2277
13 3.59919 -1.06012 0.0708885 -1.30789 1.52782 -2.94166
14 1.66069 0 0 0.0632258 -0.0109069 -1.62036
15 1.167 0 0 0.0598756 0.152814 -2.35348
16 2.18852 0.50104 0.0576591 1.50822 0.11864 0.106026
17 1.29609 0 0 0.0454755 -0.0112006 -1.51823
18 1.62202 0.000713825 -0.000471115 -0.0384311 0.0160456 -1.60778
19 1.22241 0 0 -0.045058 -0.061423 -2.25319
20 1.76707 1.27612 0.0366416 1.46962 0.232734 0.0404858
21 1.55588 0 0 -0.0323048 -0.00437278 -1.41072
22 1.24274 0 0 -0.000344952 -0.000490571 -1.63731
23 0.784523 0 0 0.0340909 0.0123451 -2.06604
24 -1.93761 -1.34664 -10.5891 -0.000932534 0 -2.28859
25 6.02794 0 0 1.13078 0.186051 -0.544435
26 11.7344 0 0 0.0014027 0 2.48429
27 8.81167 0 0 0.573679 0 0
28 5.77884 0 0 0.384365 0 0
29 2.23249 0 0 0.189314 0 0
30 11.4725 0 0 0.503031 0.352367 -0.194051
31 0.615812 0.994371 -0.809165 -2.67249 0.604523 0.0906577
32 2.24752 0 0 -0.219677 0.399013 0.205792
33 1.11936 0 0 0.178192 0.301066 1.46658
34 3.71349 0.102638 0.102191 1.33974 1.5106 2.88198
35 1.72615 0 0 0.0342351 0.00180468 1.62944
36 1.21112 0 0 0.0170265 0.0045975 1.90454
37 3.5992 1.06012 0.0708883 1.95333 1.4652 -2.69328
38 1.66069 0 0 -0.0917096 -0.0127771 1.65237
39 1.16699 0 0 -0.135239 0.131222 1.92081
40 2.18853 -0.50104 0.0576587 -1.57808 0.105665 -0.0730342
41 1.29609 0 0 -0.044817 -0.0135996 1.46513
42 1.62201 -0.000713229 -0.000471115 0.039177 0.00889719 1.77992
43 1.22241 0 0 0.0491368 -0.0569794 2.17311
44 1.76707 -1.27612 0.0366409 -1.57721 0.162615 -0.0200828
45 1.55588 0 0 0.0320345 -0.0060447 1.46266
46 1.24273 0 0 0.000385208 -0.000459286 1.55247
47 0.784531 0 0 -0.0326482 0.00896809 2.01883
48 0 0 0 0 0 0
end
