//Sequence File generated by the Wall Worm SMD Exporter PRO 1.99
//www.wallworm.com
version 1
nodes
0 "b_l_clav" -1
1 "b_l_upperarm" 0
2 "b_l_forearm" 1
3 "b_l_twist3" 2
4 "b_l_twist2" 2
5 "b_l_twist1" 2
6 "b_l_hand" 2
7 "b_l_thumb001" 6
8 "b_l_thumb002" 7
9 "b_l_thumb003" 8
10 "b_l_middle001" 6
11 "b_l_middle002" 10
12 "b_l_middle003" 11
13 "b_l_index001" 6
14 "b_l_index002" 13
15 "b_l_index003" 14
16 "b_l_hand_ringsqueezer" 6
17 "b_l_ring001" 16
18 "b_l_ring002" 17
19 "b_l_ring003" 18
20 "b_l_hand_pinkysqueezer" 6
21 "b_l_pinky001" 20
22 "b_l_pinky002" 21
23 "b_l_pinky003" 22
24 "b_r_clav" -1
25 "b_r_upperarm" 24
26 "b_r_forearm" 25
27 "b_r_twist3" 26
28 "b_r_twist2" 26
29 "b_r_twist1" 26
30 "b_r_hand" 26
31 "b_r_thumb001" 30
32 "b_r_thumb002" 31
33 "b_r_thumb003" 32
34 "b_r_middle001" 30
35 "b_r_middle002" 34
36 "b_r_middle003" 35
37 "b_r_index001" 30
38 "b_r_index002" 37
39 "b_r_index003" 38
40 "b_r_hand_ringsqueezer" 30
41 "b_r_ring001" 40
42 "b_r_ring002" 41
43 "b_r_ring003" 42
44 "b_r_hand_pinkysqueezer" 30
45 "b_r_pinky001" 44
46 "b_r_pinky002" 45
47 "b_r_pinky003" 46
48 "b_zero" -1
49 "d_gun" -1
50 "d_trigger" 49
51 "d_stock" 49
52 "d_selector" 49
53 "d_paddle" 49
54 "d_dustcover" 49
55 "d_charger" 49
56 "d_bcg" 49
57 "d_mag" -1
58 "d_boolet" 57
end
skeleton
time 0
0 7.96718 5.13272 -3.24532 0.000934124 0 -0.959925
1 6.02794 0 0 -0.699025 1.05874 -0.290865
2 11.7344 0 0 -0.00140274 0 -1.64072
3 8.81138 -0.000449181 -0.000113487 -0.323205 0 0.000157311
4 5.77839 0.000285149 0 -0.216547 0 0.000103974
5 2.23163 -0.000329018 -0.000364304 -0.106658 0 0
6 11.4725 0 0 -0.498073 -0.284547 0.541322
7 0.615219 -0.993092 -0.8107 2.34511 -0.11076 -0.44386
8 2.24752 0 0 0.101545 0.256935 -0.00235492
9 1.11936 0 0 0.100351 0.152181 -0.151588
10 3.71348 -0.102641 0.10219 1.44717 0.805255 0.453677
11 1.72615 0 0 0.000435653 0.152128 -1.5215
12 1.21114 0 0 -0.0030375 0.0173727 -0.770564
13 3.59919 -1.06012 0.0708876 1.51798 -0.0791176 0.003477
14 1.66069 0 0 -0.0425705 0.0394149 -1.04703
15 1.167 0 0 -0.00883494 0.00165494 -0.482647
16 2.18853 0.50104 0.0576582 1.55893 0.123347 0.226068
17 1.29609 0 0 -0.203075 0.0749011 -0.697922
18 1.62202 0.000711441 -0.000471115 0.0360742 -0.00491092 -1.60563
19 1.22241 0 0 0.00725898 -0.00270849 -0.703281
20 1.76707 1.27612 0.0366402 1.52736 0.172031 0.124018
21 1.55588 0 0 -0.299721 0.178509 -0.619377
22 1.24274 0 0 -0.000462317 -0.000381959 -1.36998
23 0.784525 0 0 0.00430536 0.00338743 -0.7269
24 -2.83583 -0.518291 -10.3275 -0.000932693 0 -2.0944
25 6.02794 0 0 1.00325 0.142299 0.748646
26 11.7344 0 0 0.00140266 0 0.67378
27 8.81167 0 0 2.05665 0 0
28 5.77884 0 0 1.37795 0 0
29 2.23249 0 0 0.678693 0 0
30 11.4725 0 0 2.04437 0.377889 -0.294651
31 0.615812 0.994374 -0.809166 -2.74992 0.371521 0.481775
32 2.24752 0 0 -0.0913848 -0.00666569 -0.225298
33 1.11936 0 0 -0.0659631 0.197557 0.102886
34 3.71349 0.102641 0.10219 -1.55796 0.571139 -0.0724673
35 1.72615 0 0 -0.0103978 -0.0184003 0.607515
36 1.21112 0 0 0.00331376 0.0173223 0.786478
37 3.5992 1.06012 0.0708876 -1.58519 0.28709 -0.0423539
38 1.66069 0 0 0.00583335 0.073164 0.298474
39 1.16699 0 0 0.0397123 0.0124133 0.751671
40 2.18853 -0.50104 0.0576591 -1.57359 0.194888 -0.159461
41 1.29609 0 0 -0.0170079 -0.0436384 0.560533
42 1.62202 -0.000715256 -0.000469208 -0.00806923 -0.0311475 0.638739
43 1.22241 0 0 -0.00974955 0.00244499 0.993006
44 1.76707 -1.27612 0.0366402 -1.57222 0.314887 -0.190364
45 1.55588 0 0 0.0298598 0.0130839 0.863363
46 1.24273 0 0 0.00058726 0.000120472 0.477555
47 0.784531 0 0 -0.0100873 -0.00368621 0.217615
48 0 0 0 0 0 0
49 5 -17.2798 -7.47292 0.000267079 -0.000273704 0
50 0 -1.70357 0.0050807 0 0 0
51 -0.00196028 3.96104 2.21118 0 0 0
52 0.641596 -0.666147 0.75166 0 0 0
53 0.714397 -3.45621 1.13628 0 0 0
54 -0.70623 -4.69238 1.98618 -3.14159 -0.0872663 3.14159
55 0.0133295 1.02904 3.61174 0 0 0
56 0.0133295 -4.73568 2.23877 0 0 0
57 5 -22.4862 -12.5873 0 0 0
58 0.0129194 0.0367718 6.63003 0 0 0
time 1
0 7.96718 5.13272 -3.24532 0.000934124 0 -0.959925
1 6.02794 0 0 -0.621706 1.08721 -0.227737
2 11.7344 0 0 -0.00140291 0 -1.70675
3 8.81138 -0.000449181 -0.000112057 -0.307557 0 0.000156931
4 5.77839 0.000286102 0 -0.206063 0 0.000103849
5 2.23163 -0.000329018 -0.000364304 -0.101494 0 0
6 11.4725 0 0 -0.502796 -0.307253 0.564744
7 0.615219 -0.993091 -0.8107 2.34511 -0.11076 -0.44386
8 2.24752 0 0 0.101544 0.256935 -0.00235487
9 1.11936 0 0 0.100351 0.152181 -0.151588
10 3.71348 -0.102641 0.10219 1.44717 0.805255 0.453677
11 1.72615 0 0 0.000435607 0.152128 -1.5215
12 1.21114 0 0 -0.00303762 0.0173727 -0.770564
13 3.59919 -1.06012 0.0708876 1.51798 -0.0791179 0.00347708
14 1.66069 0 0 -0.0425705 0.0394149 -1.04703
15 1.167 0 0 -0.00883492 0.00165498 -0.482647
16 2.18852 0.50104 0.0576582 1.55893 0.123348 0.226068
17 1.29609 0 0 -0.203075 0.0749011 -0.697922
18 1.62202 0.000715256 -0.000470161 0.0360742 -0.00491092 -1.60563
19 1.22241 0 0 0.00725903 -0.00270857 -0.703282
20 1.76707 1.27612 0.0366402 1.52736 0.172031 0.124018
21 1.55588 0 0 -0.299721 0.178509 -0.619377
22 1.24273 0 0 -0.000462372 -0.000382081 -1.36998
23 0.784525 0 0 0.00430539 0.00338728 -0.7269
24 -2.83583 -0.518291 -10.3275 -0.000932693 0 -2.0944
25 6.02794 0 0 0.99886 0.195987 0.723391
26 11.7344 0 0 0.00140269 0 0.81481
27 8.81167 0 0 2.07168 0 0
28 5.77884 0 0 1.38803 0 0
29 2.23249 0 0 0.683656 0 0
30 11.4725 0 0 2.03967 0.368977 -0.376102
31 0.61581 0.994371 -0.809165 -2.74992 0.371521 0.481775
32 2.24752 0 0 -0.0913849 -0.00666566 -0.225298
33 1.11936 0 0 -0.065963 0.197556 0.102885
34 3.71349 0.102637 0.102191 -1.55796 0.571139 -0.0724674
35 1.72615 0 0 -0.0103977 -0.0184001 0.607515
36 1.21112 0 0 0.00331364 0.0173221 0.786478
37 3.5992 1.06011 0.0708885 -1.58519 0.28709 -0.0423538
38 1.66069 0 0 0.00583316 0.0731642 0.298474
39 1.16699 0 0 0.0397124 0.0124131 0.751671
40 2.18853 -0.501041 0.0576601 -1.57359 0.194888 -0.159461
41 1.29609 0 0 -0.0170081 -0.0436384 0.560533
42 1.62202 -0.000715256 -0.000469208 -0.00806917 -0.0311475 0.638739
43 1.22241 0 0 -0.00974962 0.00244486 0.993006
44 1.76707 -1.27612 0.0366411 -1.57222 0.314887 -0.190364
45 1.55587 0 0 0.0298598 0.0130837 0.863363
46 1.24273 0 0 0.000587318 0.000120335 0.477555
47 0.784532 0 0 -0.0100873 -0.00368617 0.217615
48 0 0 0 0 0 0
49 5.00141 -16.6206 -7.47292 -0.00303297 -0.000268353 0
50 0 -1.56487 0.0050807 0.174533 0 0
51 -0.0019598 3.96104 2.21118 0 0 0
52 0.641596 -0.666147 0.75166 0 0 0
53 0.750528 -3.4562 1.13628 0 0.0991775 0
54 -0.706229 -4.69238 1.98618 -3.14159 -0.0872664 3.14159
55 0.01333 1.02904 3.61174 0 0 0
56 0.01333 -2.98984 2.23877 0 0 0
57 5.00136 -21.8438 -12.5701 -0.00330004 0 0
58 0.0129189 0.0367737 5.95713 0 0 0
time 2
0 7.96718 5.13272 -3.24532 0.000934124 0 -0.959925
1 6.02794 0 0 -0.49674 1.12097 -0.127765
2 11.7344 0 0 -0.0014028 0 -1.78021
3 8.81138 -0.000449181 -0.000112534 -0.28647 0 0.000157331
4 5.77839 0.000286102 0 -0.191935 0 0.000104286
5 2.23163 -0.000329971 -0.000364304 -0.0945351 0 0
6 11.4725 0 0 -0.489966 -0.359683 0.541478
7 0.615219 -0.993092 -0.810699 2.34511 -0.11076 -0.44386
8 2.24752 0 0 0.101545 0.256935 -0.00235503
9 1.11936 0 0 0.100351 0.152181 -0.151587
10 3.71348 -0.102642 0.102192 1.44717 0.805255 0.453676
11 1.72615 0 0 0.00043566 0.152128 -1.5215
12 1.21114 0 0 -0.00303754 0.0173727 -0.770564
13 3.59919 -1.06012 0.0708895 1.51798 -0.0791177 0.00347693
14 1.66069 0 0 -0.0425705 0.0394149 -1.04703
15 1.167 0 0 -0.00883493 0.00165497 -0.482647
16 2.18852 0.501039 0.0576601 1.55893 0.123348 0.226068
17 1.29609 0 0 -0.203075 0.0749011 -0.697922
18 1.62202 0.000713348 -0.000470638 0.0360744 -0.00491083 -1.60563
19 1.22241 0 0 0.00725894 -0.00270844 -0.703281
20 1.76707 1.27612 0.0366411 1.52736 0.172031 0.124017
21 1.55588 0 0 -0.299721 0.178509 -0.619377
22 1.24273 0 0 -0.000462191 -0.000381972 -1.36998
23 0.784523 0 0 0.00430533 0.00338726 -0.7269
24 -2.83583 -0.518291 -10.3275 -0.000932693 0 -2.0944
25 6.02794 0 0 0.993599 0.236334 0.699679
26 11.7344 0 0 0.0014027 0 0.970715
27 8.81167 0 0 2.07083 0 0
28 5.77884 0 0 1.38746 0 0
29 2.23249 0 0 0.683374 0 0
30 11.4725 0 0 2.01808 0.347389 -0.456538
31 0.615812 0.994371 -0.809166 -2.74992 0.371521 0.481775
32 2.24752 0 0 -0.0913849 -0.00666569 -0.225298
33 1.11936 0 0 -0.065963 0.197557 0.102886
34 3.71349 0.102638 0.102191 -1.55796 0.571139 -0.0724673
35 1.72615 0 0 -0.010398 -0.0184001 0.607515
36 1.21112 0 0 0.00331357 0.0173221 0.786478
37 3.5992 1.06011 0.0708885 -1.58519 0.28709 -0.042354
38 1.66069 0 0 0.00583322 0.0731641 0.298474
39 1.16699 0 0 0.0397123 0.0124132 0.751671
40 2.18853 -0.501041 0.0576591 -1.57359 0.194888 -0.159461
41 1.29609 0 0 -0.0170078 -0.0436384 0.560533
42 1.62202 -0.000715256 -0.000469208 -0.00806917 -0.0311476 0.638739
43 1.22241 0 0 -0.00974966 0.00244491 0.993006
44 1.76707 -1.27612 0.0366402 -1.57222 0.314887 -0.190364
45 1.55588 0 0 0.0298599 0.0130838 0.863363
46 1.24273 0 0 0.000587396 0.000120401 0.477555
47 0.784532 0 0 -0.0100875 -0.00368603 0.217615
48 0 0 0 0 0 0
49 5 -15.7061 -7.47292 -0.0486115 -0.000258472 0
50 0 -1.56487 0.00508022 0.174533 0 0
51 -0.0019598 3.96104 2.21118 0 0 0
52 0.641596 -0.66615 0.75166 0 0 0
53 0.786659 -3.45621 1.13628 0 0.198355 0
54 -0.70623 -4.69238 1.98618 -3.14159 -0.0872664 3.14159
55 0.01333 1.02904 3.61174 0 0 0
56 0.01333 -1.24399 2.23877 0 0 0
57 4.99979 -21.1561 -12.3268 -0.0488786 0 0
58 0.0129189 0.0367718 5.95713 0 0 0
time 3
0 7.96718 5.13272 -3.24532 0.000934124 0 -0.959925
1 6.02794 0 0 -0.459901 1.12846 -0.100082
2 11.7344 0 0 -0.00140288 0 -1.80797
3 8.81138 -0.000448227 -0.000113964 -0.278895 0 0.000157543
4 5.77839 0.000286102 0 -0.18686 0 0.00010435
5 2.23163 -0.000329018 -0.00036478 -0.0920355 0 0
6 11.4725 0 0 -0.502258 -0.369375 0.571037
7 0.615219 -0.993092 -0.810699 2.34511 -0.11076 -0.44386
8 2.24752 0 0 0.101544 0.256935 -0.00235493
9 1.11936 0 0 0.100351 0.152181 -0.151587
10 3.71348 -0.102641 0.102191 1.44717 0.805255 0.453677
11 1.72615 0 0 0.000435638 0.152128 -1.5215
12 1.21114 0 0 -0.00303749 0.0173727 -0.770565
13 3.59919 -1.06012 0.0708876 1.51798 -0.0791178 0.00347706
14 1.66069 0 0 -0.0425705 0.0394149 -1.04703
15 1.167 0 0 -0.00883494 0.00165497 -0.482647
16 2.18853 0.50104 0.0576591 1.55893 0.123347 0.226068
17 1.29609 0 0 -0.203075 0.0749011 -0.697923
18 1.62202 0.000715256 -0.000470161 0.0360743 -0.00491085 -1.60563
19 1.22241 0 0 0.00725899 -0.00270855 -0.703282
20 1.76707 1.27612 0.0366402 1.52736 0.172031 0.124018
21 1.55588 0 0 -0.299721 0.178509 -0.619377
22 1.24273 0 0 -0.000462294 -0.00038194 -1.36998
23 0.784525 0 0 0.00430536 0.00338727 -0.7269
24 -2.83583 -0.518291 -10.3275 -0.000932693 0 -2.0944
25 6.02794 0 0 0.991637 0.257225 0.694823
26 11.7344 0 0 0.00140281 0 1.01137
27 8.81167 0 0 2.0826 0 0
28 5.77884 0 0 1.39534 0 0
29 2.23249 0 0 0.687258 0 0
30 11.4725 0 0 2.02032 0.349909 -0.486149
31 0.615812 0.994374 -0.809165 -2.74992 0.371521 0.481775
32 2.24752 0 0 -0.0913848 -0.0066657 -0.225298
33 1.11935 0 0 -0.065963 0.197556 0.102885
34 3.71349 0.102639 0.102191 -1.55796 0.571139 -0.0724675
35 1.72615 0 0 -0.0103978 -0.0184002 0.607515
36 1.21112 0 0 0.00331365 0.017322 0.786478
37 3.5992 1.06012 0.0708885 -1.58519 0.28709 -0.0423539
38 1.66069 0 0 0.00583325 0.0731641 0.298474
39 1.16699 0 0 0.0397121 0.0124133 0.751671
40 2.18853 -0.50104 0.0576591 -1.57359 0.194888 -0.159461
41 1.29609 0 0 -0.0170079 -0.0436383 0.560533
42 1.62202 -0.000713348 -0.000470161 -0.00806911 -0.0311475 0.638739
43 1.22241 0 0 -0.00974954 0.00244513 0.993006
44 1.76707 -1.27612 0.0366402 -1.57222 0.314887 -0.190364
45 1.55587 0 0 0.0298598 0.0130837 0.863363
46 1.24273 0 0 0.000587317 0.000120581 0.477555
47 0.784531 0 0 -0.0100876 -0.00368621 0.217615
48 0 0 0 0 0 0
49 4.98876 -15.4507 -7.47291 -0.0346422 0.00149456 0.00353013
50 0 -1.56487 0.0050807 0.174533 0 0
51 -0.0019598 3.96104 2.21118 0 0 0
52 0.641596 -0.666148 0.75166 0 0 0
53 0.786658 -3.45621 1.13628 0 0.198355 0
54 -0.70623 -4.69238 1.98618 -3.14159 -0.0872664 3.14159
55 0.01333 1.02904 3.61174 0 0 0
56 0.0133295 -1.24399 2.23877 0 0 0
57 4.99922 -20.8324 -12.4025 -0.0349092 0.00176958 0.00356299
58 0.0129194 0.0367718 5.95713 0 0 0
time 4
0 7.96718 5.13272 -3.24532 0.000934124 0 -0.959925
1 6.02794 0 0 -0.48235 1.12367 -0.119626
2 11.7344 0 0 -0.001403 0 -1.80318
3 8.81138 -0.000449181 -0.000110626 -0.278398 0 0.000157311
4 5.77839 0.000286102 0 -0.186526 0 0.000104181
5 2.23163 -0.000329018 -0.000362396 -0.0918713 0 0
6 11.4725 0 0 -0.513388 -0.356681 0.600726
7 0.615218 -0.993092 -0.8107 2.34511 -0.11076 -0.44386
8 2.24752 0 0 0.101545 0.256935 -0.00235475
9 1.11936 0 0 0.100351 0.152181 -0.151588
10 3.71348 -0.102641 0.102191 1.44717 0.805255 0.453677
11 1.72615 0 0 0.000435645 0.152128 -1.5215
12 1.21113 0 0 -0.00303753 0.0173727 -0.770565
13 3.59919 -1.06012 0.0708885 1.51798 -0.0791176 0.00347712
14 1.66069 0 0 -0.0425705 0.0394149 -1.04703
15 1.167 0 0 -0.00883494 0.00165496 -0.482647
16 2.18852 0.50104 0.0576591 1.55893 0.123348 0.226068
17 1.29609 0 0 -0.203075 0.0749011 -0.697922
18 1.62202 0.000713348 -0.000471592 0.0360743 -0.00491092 -1.60563
19 1.22241 0 0 0.00725891 -0.00270851 -0.703282
20 1.76707 1.27612 0.0366402 1.52736 0.172031 0.124018
21 1.55588 0 0 -0.299721 0.178509 -0.619377
22 1.24274 0 0 -0.000462256 -0.000381986 -1.36998
23 0.784521 0 0 0.00430538 0.0033873 -0.7269
24 -2.83583 -0.518291 -10.3275 -0.000932693 0 -2.0944
25 6.02794 0 0 0.991672 0.261197 0.696567
26 11.7344 0 0 0.00140267 0 0.993189
27 8.81167 0 0 2.09359 0 0
28 5.77884 0 0 1.4027 0 0
29 2.23249 0 0 0.690884 0 0
30 11.4725 0 0 2.0314 0.358578 -0.480465
31 0.615812 0.994373 -0.809165 -2.74992 0.371521 0.481775
32 2.24751 0 0 -0.0913849 -0.0066657 -0.225298
33 1.11936 0 0 -0.065963 0.197557 0.102886
34 3.71349 0.10264 0.102191 -1.55796 0.571139 -0.0724674
35 1.72615 0 0 -0.0103979 -0.0184002 0.607515
36 1.21112 0 0 0.00331365 0.0173222 0.786478
37 3.5992 1.06012 0.0708885 -1.58519 0.28709 -0.0423538
38 1.66069 0 0 0.00583331 0.073164 0.298474
39 1.16699 0 0 0.0397125 0.0124133 0.751671
40 2.18853 -0.50104 0.0576591 -1.57359 0.194888 -0.159461
41 1.29609 0 0 -0.0170079 -0.0436383 0.560532
42 1.62201 -0.000711441 -0.000471115 -0.00806921 -0.0311475 0.638739
43 1.22241 0 0 -0.00974962 0.00244486 0.993006
44 1.76707 -1.27612 0.0366411 -1.57222 0.314887 -0.190364
45 1.55588 0 0 0.0298599 0.0130838 0.863363
46 1.24273 0 0 0.000587291 0.000120349 0.477555
47 0.784532 0 0 -0.0100875 -0.00368616 0.217615
48 0 0 0 0 0 0
49 4.96911 -15.5888 -7.47289 -0.00955988 0.000630623 0.00567488
50 0 -1.56487 0.00508118 0.174533 0 0
51 -0.00195932 3.96104 2.21118 0 0 0
52 0.641596 -0.666149 0.751661 0 0 0
53 0.786659 -3.45621 1.13628 0 0.198355 0
54 -0.706229 -4.69238 1.98618 -3.14159 -0.0872664 -3.14159
55 0.0133305 1.02904 3.61174 0 0 0
56 0.0133305 -1.24399 2.23877 0 0 0
57 4.99456 -20.8451 -12.5359 -0.00982693 0.000904731 0.00571463
58 0.0129189 0.0367737 5.95713 0 0 0
time 5
0 7.96718 5.13272 -3.24532 0.000934124 0 -0.959925
1 6.02794 0 0 -0.535676 1.11109 -0.164098
2 11.7344 0 0 -0.00140285 0 -1.77693
3 8.81138 -0.000450134 -0.000112534 -0.284749 0 0.000157843
4 5.77839 0.000286102 0 -0.190782 0 0.000104521
5 2.23164 -0.000329971 -0.000364304 -0.0939671 0 0
6 11.4725 0 0 -0.521519 -0.334458 0.620854
7 0.615219 -0.993091 -0.810699 2.34511 -0.11076 -0.44386
8 2.24752 0 0 0.101544 0.256935 -0.00235487
9 1.11936 0 0 0.100351 0.152181 -0.151588
10 3.71348 -0.10264 0.102191 1.44717 0.805255 0.453677
11 1.72615 0 0 0.000435645 0.152128 -1.5215
12 1.21114 0 0 -0.00303756 0.0173727 -0.770565
13 3.59919 -1.06012 0.0708876 1.51798 -0.0791178 0.00347702
14 1.66069 0 0 -0.0425705 0.0394149 -1.04703
15 1.167 0 0 -0.00883492 0.00165496 -0.482647
16 2.18852 0.50104 0.0576591 1.55893 0.123347 0.226068
17 1.29609 0 0 -0.203075 0.0749011 -0.697922
18 1.62202 0.000715256 -0.000471115 0.0360742 -0.004911 -1.60563
19 1.22241 0 0 0.00725901 -0.00270844 -0.703281
20 1.76707 1.27612 0.0366411 1.52736 0.172031 0.124018
21 1.55588 0 0 -0.299721 0.178509 -0.619377
22 1.24274 0 0 -0.000462252 -0.000381944 -1.36998
23 0.784523 0 0 0.00430534 0.00338723 -0.7269
24 -2.83583 -0.518291 -10.3275 -0.000932693 0 -2.0944
25 6.02794 0 0 0.993281 0.251648 0.702862
26 11.7344 0 0 0.00140265 0 0.939918
27 8.81167 0 0 2.09861 0 0
28 5.77884 0 0 1.40607 0 0
29 2.23249 0 0 0.692542 0 0
30 11.4725 0 0 2.04349 0.370053 -0.453709
31 0.615814 0.994372 -0.809165 -2.74992 0.371521 0.481775
32 2.24752 0 0 -0.0913849 -0.00666568 -0.225298
33 1.11936 0 0 -0.065963 0.197557 0.102885
34 3.71349 0.102639 0.102191 -1.55796 0.571139 -0.0724674
35 1.72615 0 0 -0.0103979 -0.0184001 0.607515
36 1.21112 0 0 0.00331373 0.0173222 0.786478
37 3.5992 1.06012 0.0708885 -1.58519 0.28709 -0.042354
38 1.66069 0 0 0.00583325 0.0731641 0.298474
39 1.16699 0 0 0.0397123 0.0124132 0.751671
40 2.18853 -0.50104 0.0576591 -1.57359 0.194888 -0.159461
41 1.29609 0 0 -0.017008 -0.0436384 0.560533
42 1.62202 -0.000715256 -0.000472069 -0.00806925 -0.0311475 0.638739
43 1.22241 0 0 -0.00974953 0.00244491 0.993006
44 1.76707 -1.27612 0.0366411 -1.57222 0.314887 -0.190364
45 1.55587 0 0 0.0298598 0.0130839 0.863363
46 1.24273 0 0 0.000587234 0.000120494 0.477555
47 0.784531 0 0 -0.0100873 -0.00368617 0.217615
48 0 0 0 0 0 0
49 4.94522 -15.9446 -7.47288 0.0156146 0 0.0066567
50 0 -1.56488 0.0050807 0.174533 0 0
51 -0.00195932 3.96104 2.21118 0 0 0
52 0.641596 -0.666149 0.75166 0 0 0
53 0.786659 -3.45621 1.13628 0 0.198355 0
54 -0.706229 -4.69238 1.98618 -3.14159 -0.0872663 3.14159
55 0.0133305 1.02904 3.61174 0 0 0
56 0.01333 -1.244 2.23877 0 0 0
57 4.97811 -21.0718 -12.6666 0.0153475 0.000284816 0.00670333
58 0.0129194 0.0367737 5.95713 0 0 0
time 6
0 7.96718 5.13272 -3.24532 0.000934124 0 -0.959925
1 6.02794 0 0 -0.589899 1.09592 -0.20991
2 11.7344 0 0 -0.00140269 0 -1.74064
3 8.81138 -0.000450134 -0.000112534 -0.299474 0 0.000157525
4 5.77839 0.000286102 0 -0.200647 0 0.000104245
5 2.23163 -0.000329971 -0.000364304 -0.0988262 0 0
6 11.4725 0 0 -0.526892 -0.316619 0.618712
7 0.615218 -0.993091 -0.810699 2.34511 -0.11076 -0.44386
8 2.24752 0 0 0.101544 0.256935 -0.00235493
9 1.11936 0 0 0.100351 0.152181 -0.151588
10 3.71348 -0.10264 0.102193 1.44717 0.805255 0.453677
11 1.72615 0 0 0.000435683 0.152128 -1.5215
12 1.21114 0 0 -0.00303759 0.0173727 -0.770565
13 3.59919 -1.06012 0.0708885 1.51798 -0.0791176 0.0034771
14 1.66069 0 0 -0.0425705 0.0394149 -1.04703
15 1.167 0 0 -0.00883494 0.00165497 -0.482647
16 2.18852 0.50104 0.0576591 1.55893 0.123348 0.226068
17 1.29609 0 0 -0.203075 0.0749011 -0.697922
18 1.62202 0.000713348 -0.000470161 0.0360743 -0.00491086 -1.60563
19 1.22241 0 0 0.00725901 -0.00270857 -0.703281
20 1.76707 1.27612 0.0366411 1.52736 0.172032 0.124018
21 1.55588 0 0 -0.299721 0.178509 -0.619377
22 1.24273 0 0 -0.000462344 -0.00038202 -1.36998
23 0.784523 0 0 0.00430536 0.00338727 -0.7269
24 -2.83583 -0.518291 -10.3275 -0.000932693 0 -2.0944
25 6.02794 0 0 0.995737 0.23068 0.71138
26 11.7344 0 0 0.00140267 0 0.874288
27 8.81167 0 0 2.0904 0 0
28 5.77884 0 0 1.40057 0 0
29 2.23249 0 0 0.689831 0 0
30 11.4725 0 0 2.046 0.380379 -0.420021
31 0.615812 0.994373 -0.809166 -2.74992 0.371521 0.481775
32 2.24752 0 0 -0.0913849 -0.00666563 -0.225298
33 1.11936 0 0 -0.065963 0.197556 0.102885
34 3.71348 0.10264 0.10219 -1.55796 0.571139 -0.0724674
35 1.72615 0 0 -0.0103977 -0.0184002 0.607515
36 1.21112 0 0 0.00331362 0.017322 0.786478
37 3.5992 1.06012 0.070888 -1.58519 0.28709 -0.0423539
38 1.66069 0 0 0.00583335 0.073164 0.298474
39 1.16699 0 0 0.0397122 0.0124132 0.751671
40 2.18853 -0.501041 0.0576587 -1.57359 0.194888 -0.159461
41 1.29609 0 0 -0.017008 -0.0436383 0.560533
42 1.62202 -0.000715256 -0.000469208 -0.00806923 -0.0311474 0.638739
43 1.22241 0 0 -0.00974956 0.00244485 0.993006
44 1.76707 -1.27612 0.0366402 -1.57222 0.314887 -0.190364
45 1.55587 0 0 0.0298597 0.0130838 0.863363
46 1.24273 0 0 0.000587332 0.000120393 0.477555
47 0.784531 0 0 -0.0100874 -0.00368621 0.217615
48 0 0 0 0 0 0
49 4.92129 -16.3425 -7.47286 0.0271661 0.00444658 0.00617108
50 0 -1.58655 0.0050807 0.147262 0 0
51 -0.0019598 3.96104 2.21118 0 0 0
52 0.641596 -0.666147 0.75166 0 0 0
53 0.786657 -3.45621 1.13628 0 0.198355 0
54 -0.70623 -4.69238 1.98618 -3.14159 -0.0872664 -3.14159
55 0.0133295 1.02904 3.61174 0 0 0
56 0.01333 -1.24399 2.23877 0 0 0
57 4.92802 -21.4095 -12.7254 0.0268993 0.00471904 0.00622086
58 0.0129194 0.0367718 5.95713 0 0 0
time 7
0 7.96718 5.13272 -3.24532 0.000934124 0 -0.959925
1 6.02794 0 0 -0.623278 1.08514 -0.239024
2 11.7344 0 0 -0.00140295 0 -1.71296
3 8.81138 -0.000449181 -0.00011301 -0.316572 0 0.000157293
4 5.77839 0.00028801 0 -0.212103 0 0.000103941
5 2.23164 -0.000328064 -0.00036478 -0.104469 0 0
6 11.4725 0 0 -0.532841 -0.307126 0.606604
7 0.615219 -0.993091 -0.810699 2.34511 -0.11076 -0.44386
8 2.24752 0 0 0.101545 0.256935 -0.00235488
9 1.11936 0 0 0.100351 0.152181 -0.151588
10 3.71348 -0.102641 0.102191 1.44717 0.805255 0.453677
11 1.72615 0 0 0.000435607 0.152128 -1.5215
12 1.21114 0 0 -0.00303755 0.0173728 -0.770564
13 3.59919 -1.06012 0.0708876 1.51798 -0.0791176 0.00347708
14 1.66069 0 0 -0.0425705 0.0394149 -1.04703
15 1.167 0 0 -0.00883495 0.00165496 -0.482647
16 2.18852 0.50104 0.0576601 1.55893 0.123348 0.226068
17 1.29609 0 0 -0.203075 0.074901 -0.697922
18 1.62202 0.000713348 -0.000471115 0.0360743 -0.00491081 -1.60563
19 1.22241 0 0 0.00725897 -0.00270846 -0.703281
20 1.76707 1.27612 0.0366411 1.52736 0.172031 0.124018
21 1.55588 0 0 -0.299721 0.178509 -0.619377
22 1.24273 0 0 -0.000462334 -0.000382127 -1.36998
23 0.784523 0 0 0.00430543 0.00338726 -0.7269
24 -2.83583 -0.518291 -10.3275 -0.000932693 0 -2.0944
25 6.02794 0 0 0.997381 0.212326 0.717103
26 11.7344 0 0 0.00140269 0 0.827864
27 8.81167 0 0 2.07695 0 0
28 5.77884 0 0 1.39156 0 0
29 2.23249 0 0 0.685395 0 0
30 11.4725 0 0 2.04011 0.387201 -0.39896
31 0.615814 0.994373 -0.809165 -2.74992 0.371521 0.481775
32 2.24752 0 0 -0.0913849 -0.00666557 -0.225298
33 1.11936 0 0 -0.065963 0.197556 0.102885
34 3.71349 0.10264 0.102191 -1.55796 0.571139 -0.0724673
35 1.72615 0 0 -0.010398 -0.0184001 0.607515
36 1.21112 0 0 0.00331349 0.0173222 0.786478
37 3.5992 1.06011 0.070888 -1.58519 0.28709 -0.042354
38 1.66069 0 0 0.00583323 0.073164 0.298474
39 1.16699 0 0 0.0397122 0.0124134 0.751671
40 2.18853 -0.50104 0.0576591 -1.57359 0.194888 -0.159462
41 1.29609 0 0 -0.0170081 -0.0436383 0.560533
42 1.62202 -0.000713348 -0.000469208 -0.00806922 -0.0311475 0.638739
43 1.22241 0 0 -0.00974958 0.00244518 0.993006
44 1.76707 -1.27612 0.0366406 -1.57222 0.314887 -0.190364
45 1.55587 0 0 0.0298596 0.0130839 0.863363
46 1.24273 0 0 0.000587372 0.00012043 0.477555
47 0.784532 0 0 -0.0100873 -0.00368623 0.217615
48 0 0 0 0 0 0
49 4.90151 -16.6069 -7.47284 0.0287682 0.0129809 0.00412648
50 0 -1.63422 0.00508022 0.0872664 0 0
51 -0.00196075 3.96104 2.21118 0 0 0
52 0.641595 -0.666147 0.75166 0 0 0
53 0.786658 -3.45621 1.13628 0 0.198355 0
54 -0.70623 -4.69238 1.98618 3.14159 -0.0872664 -3.14159
55 0.0133295 1.02904 3.61174 0 0 0
56 0.013329 -1.24399 2.23877 0 0 0
57 4.85291 -21.6657 -12.7331 0.0285018 0.0132533 0.0041767
58 0.0129194 0.0367737 5.95713 0 0 0
time 8
0 7.96718 5.13272 -3.24532 0.000934124 0 -0.959925
1 6.02794 0 0 -0.638321 1.07971 -0.253424
2 11.7344 0 0 -0.00140286 0 -1.69689
3 8.81138 -0.000450134 -0.000113487 -0.331848 0 0.000157776
4 5.77839 0.000286102 0 -0.222338 0 0.000104214
5 2.23163 -0.000329971 -0.000364304 -0.10951 0 0
6 11.4725 0 0 -0.538765 -0.304603 0.592047
7 0.615219 -0.993092 -0.810699 2.34511 -0.11076 -0.44386
8 2.24752 0 0 0.101544 0.256935 -0.00235493
9 1.11935 0 0 0.100351 0.152181 -0.151588
10 3.71348 -0.10264 0.102192 1.44717 0.805255 0.453677
11 1.72615 0 0 0.000435607 0.152128 -1.5215
12 1.21114 0 0 -0.00303755 0.0173727 -0.770565
13 3.59919 -1.06012 0.0708885 1.51798 -0.0791177 0.00347709
14 1.66068 0 0 -0.0425705 0.0394149 -1.04703
15 1.167 0 0 -0.00883495 0.00165496 -0.482647
16 2.18852 0.50104 0.0576601 1.55893 0.123348 0.226068
17 1.29609 0 0 -0.203075 0.0749011 -0.697922
18 1.62202 0.000713348 -0.000470161 0.0360743 -0.0049109 -1.60563
19 1.22241 0 0 0.007259 -0.00270848 -0.703281
20 1.76707 1.27612 0.0366421 1.52736 0.172031 0.124018
21 1.55587 0 0 -0.299721 0.178509 -0.619377
22 1.24273 0 0 -0.000462275 -0.000381963 -1.36998
23 0.784523 0 0 0.00430549 0.00338719 -0.7269
24 -2.83583 -0.518291 -10.3275 -0.000932693 0 -2.0944
25 6.02794 0 0 0.998006 0.200777 0.718741
26 11.7344 0 0 0.00140275 0 0.805608
27 8.81167 0 0 2.06332 0 0
28 5.77884 0 0 1.38242 0 0
29 2.23249 0 0 0.680894 0 0
30 11.4725 0 0 2.0302 0.390938 -0.391613
31 0.61581 0.994372 -0.809165 -2.74992 0.371521 0.481775
32 2.24752 0 0 -0.0913849 -0.00666566 -0.225298
33 1.11936 0 0 -0.065963 0.197557 0.102885
34 3.71348 0.10264 0.10219 -1.55796 0.571139 -0.0724674
35 1.72615 0 0 -0.0103979 -0.0184003 0.607515
36 1.21112 0 0 0.00331364 0.0173223 0.786478
37 3.5992 1.06012 0.0708876 -1.58519 0.28709 -0.0423538
38 1.66069 0 0 0.00583325 0.0731641 0.298474
39 1.16699 0 0 0.0397123 0.0124133 0.751671
40 2.18853 -0.50104 0.0576591 -1.57359 0.194888 -0.159461
41 1.29609 0 0 -0.0170079 -0.0436383 0.560533
42 1.62201 -0.000713348 -0.0004673 -0.00806922 -0.0311474 0.638739
43 1.22241 0 0 -0.0097495 0.00244483 0.993006
44 1.76707 -1.27612 0.0366402 -1.57222 0.314887 -0.190364
45 1.55587 0 0 0.0298598 0.0130838 0.863363
46 1.24273 0 0 0.000587365 0.000120401 0.477555
47 0.784531 0 0 -0.0100874 -0.00368619 0.217615
48 0 0 0 0 0 0
49 4.88152 -16.7358 -7.47282 0.0244627 0.0226953 0.00139158
50 0 -1.68189 0.0050807 0.0272705 0 0
51 -0.00196028 3.96104 2.21118 0 0 0
52 0.641596 -0.666149 0.75166 0 0 0
53 0.786659 -3.45621 1.13628 0 0.198355 0
54 -0.706229 -4.69238 1.98618 3.14159 -0.0872664 -3.14159
55 0.01333 1.02904 3.61174 0 0 0
56 0.01333 -1.24399 2.23877 0 0 0
57 4.76852 -21.8171 -12.7103 0.0241967 0.0229679 0.00144064
58 0.0129194 0.0367718 5.95712 0 0 0
time 9
0 7.96718 5.13272 -3.24532 0.000934124 0 -0.959925
1 6.02794 0 0 -0.651279 1.07477 -0.266242
2 11.7344 0 0 -0.00140289 0 -1.68174
3 8.81138 -0.000450134 -0.000111103 -0.344698 0 0.000157463
4 5.77839 0.000285149 0 -0.230948 0 0.000104119
5 2.23163 -0.000329971 -0.00036335 -0.11375 0 0
6 11.4725 0 0 -0.542513 -0.303649 0.57634
7 0.615219 -0.993091 -0.8107 2.34511 -0.11076 -0.44386
8 2.24752 0 0 0.101545 0.256935 -0.00235496
9 1.11936 0 0 0.100351 0.152181 -0.151587
10 3.71348 -0.10264 0.102191 1.44717 0.805255 0.453677
11 1.72615 0 0 0.000435562 0.152128 -1.5215
12 1.21114 0 0 -0.00303756 0.0173728 -0.770564
13 3.59919 -1.06012 0.0708876 1.51798 -0.0791177 0.00347707
14 1.66068 0 0 -0.0425705 0.0394149 -1.04703
15 1.167 0 0 -0.00883493 0.00165495 -0.482647
16 2.18852 0.50104 0.0576582 1.55893 0.123347 0.226068
17 1.29609 0 0 -0.203075 0.0749011 -0.697922
18 1.62202 0.000715256 -0.000472069 0.0360743 -0.00491092 -1.60563
19 1.22241 0 0 0.00725899 -0.00270855 -0.703281
20 1.76707 1.27612 0.0366402 1.52736 0.172032 0.124018
21 1.55588 0 0 -0.299721 0.178509 -0.619377
22 1.24273 0 0 -0.000462298 -0.000381982 -1.36998
23 0.784525 0 0 0.00430543 0.00338733 -0.7269
24 -2.83583 -0.518291 -10.3275 -0.000932693 0 -2.0944
25 6.02794 0 0 0.998496 0.189749 0.720049
26 11.7344 0 0 0.00140268 0 0.786078
27 8.81167 0 0 2.05085 0 0
28 5.77884 0 0 1.37407 0 0
29 2.23249 0 0 0.676782 0 0
30 11.4725 0 0 2.02121 0.393463 -0.383935
31 0.615814 0.99437 -0.809165 -2.74992 0.371521 0.481775
32 2.24752 0 0 -0.0913849 -0.00666562 -0.225298
33 1.11935 0 0 -0.065963 0.197556 0.102885
34 3.71349 0.102638 0.10219 -1.55796 0.571139 -0.0724674
35 1.72615 0 0 -0.0103979 -0.0184002 0.607515
36 1.21112 0 0 0.00331369 0.017322 0.786478
37 3.5992 1.06011 0.0708876 -1.58519 0.28709 -0.0423539
38 1.66069 0 0 0.0058331 0.073164 0.298474
39 1.16699 0 0 0.0397126 0.0124132 0.751671
40 2.18853 -0.501042 0.0576591 -1.57359 0.194888 -0.159461
41 1.29609 0 0 -0.0170081 -0.0436384 0.560533
42 1.62202 -0.000715256 -0.0004673 -0.00806914 -0.0311477 0.638739
43 1.22241 0 0 -0.00974947 0.00244502 0.993006
44 1.76707 -1.27612 0.0366406 -1.57222 0.314887 -0.190364
45 1.55588 0 0 0.0298599 0.0130838 0.863363
46 1.24273 0 0 0.00058728 0.000120429 0.477555
47 0.784532 0 0 -0.0100875 -0.00368627 0.217615
48 0 0 0 0 0 0
49 4.85998 -16.8469 -7.4728 0.0182913 0.03067 -0.00116492
50 0 -1.70357 0.00508118 0 0 0
51 -0.00196028 3.96104 2.21118 0 0 0
52 0.641596 -0.666147 0.75166 0 0 0
53 0.786658 -3.45621 1.13628 0 0.198355 0
54 -0.70623 -4.69238 1.98618 -3.14159 -0.0872664 3.14159
55 0.01333 1.02904 3.61174 0 0 0
56 0.0133295 -1.24399 2.23877 0 0 0
57 4.69316 -21.96 -12.6777 0.0180257 0.0309429 -0.00111753
58 0.0129194 0.0367737 5.95713 0 0 0
time 10
0 7.96718 5.13272 -3.24532 0.000934124 0 -0.959925
1 6.02794 0 0 -0.662659 1.07038 -0.276776
2 11.7344 0 0 -0.00140292 0 -1.66953
3 8.81138 -0.000449181 -0.000112057 -0.351459 0 0.000157342
4 5.77839 0.00028801 0 -0.235477 0 0.000103892
5 2.23163 -0.000329018 -0.000362873 -0.115981 0 0
6 11.4725 0 0 -0.542958 -0.302067 0.565683
7 0.615218 -0.993092 -0.810699 2.34511 -0.11076 -0.44386
8 2.24752 0 0 0.101544 0.256935 -0.00235492
9 1.11936 0 0 0.100351 0.152181 -0.151587
10 3.71348 -0.102642 0.102191 1.44717 0.805255 0.453677
11 1.72615 0 0 0.000435638 0.152128 -1.5215
12 1.21114 0 0 -0.00303753 0.0173727 -0.770564
13 3.59919 -1.06012 0.0708885 1.51798 -0.0791176 0.00347713
14 1.66069 0 0 -0.0425705 0.0394149 -1.04703
15 1.167 0 0 -0.00883496 0.00165494 -0.482646
16 2.18852 0.50104 0.0576591 1.55893 0.123348 0.226068
17 1.29609 0 0 -0.203075 0.074901 -0.697922
18 1.62202 0.000713348 -0.000471115 0.0360743 -0.00491082 -1.60563
19 1.22241 0 0 0.00725908 -0.00270852 -0.703281
20 1.76707 1.27612 0.0366411 1.52736 0.172031 0.124018
21 1.55588 0 0 -0.299721 0.178509 -0.619377
22 1.24274 0 0 -0.000462256 -0.000381986 -1.36998
23 0.784525 0 0 0.00430544 0.0033873 -0.7269
24 -2.83583 -0.518291 -10.3275 -0.000932693 0 -2.0944
25 6.02794 0 0 0.999009 0.18043 0.72213
26 11.7344 0 0 0.00140265 0 0.767313
27 8.81167 0 0 2.04376 0 0
28 5.77884 0 0 1.36932 0 0
29 2.23249 0 0 0.674442 0 0
30 11.4725 0 0 2.01728 0.394775 -0.374028
31 0.615814 0.994373 -0.809165 -2.74992 0.371521 0.481775
32 2.24751 0 0 -0.0913849 -0.00666558 -0.225298
33 1.11936 0 0 -0.065963 0.197557 0.102885
34 3.71349 0.10264 0.102191 -1.55796 0.571139 -0.0724674
35 1.72615 0 0 -0.0103979 -0.0184 0.607515
36 1.21112 0 0 0.00331348 0.0173221 0.786478
37 3.5992 1.06012 0.0708885 -1.58519 0.28709 -0.0423539
38 1.66069 0 0 0.00583335 0.073164 0.298474
39 1.16699 0 0 0.0397122 0.0124133 0.751671
40 2.18853 -0.501042 0.0576591 -1.57359 0.194888 -0.159462
41 1.29609 0 0 -0.017008 -0.0436383 0.560533
42 1.62202 -0.000713348 -0.000471115 -0.00806926 -0.0311476 0.638739
43 1.22241 0 0 -0.00974953 0.00244503 0.993006
44 1.76707 -1.27612 0.0366411 -1.57222 0.314887 -0.190364
45 1.55587 0 0 0.0298599 0.0130837 0.863363
46 1.24273 0 0 0.00058726 0.000120349 0.477555
47 0.784532 0 0 -0.0100875 -0.00368617 0.217615
48 0 0 0 0 0 0
49 4.84561 -16.9442 -7.47278 0.0142959 0.0339854 -0.00267435
50 0 -1.70356 0.0050807 0 0 0
51 -0.00196028 3.96104 2.21118 0 0 0
52 0.641596 -0.666143 0.75166 0 0 0
53 0.786658 -3.4562 1.13628 0 0.198355 0
54 -0.70623 -4.69238 1.98618 -3.14159 -0.0872664 3.14159
55 0.0133295 1.02904 3.61174 0 0 0
56 0.0133295 -1.24399 2.23877 0 0 0
57 4.65445 -22.0779 -12.6567 0.0140304 0.0342585 -0.00262805
58 0.0129199 0.0367718 5.95713 0 0 0
time 11
0 7.96718 5.13272 -3.24532 0.000934124 0 -0.959925
1 6.02794 0 0 -0.672816 1.06662 -0.284477
2 11.7344 0 0 -0.00140297 0 -1.6603
3 8.81138 -0.000451088 -0.00011158 -0.350628 0 0.000157568
4 5.77839 0.000286102 0 -0.23492 0 0.00010398
5 2.23163 -0.000329971 -0.000363827 -0.115707 0 0
6 11.4725 0 0 -0.538249 -0.299283 0.559721
7 0.61522 -0.993092 -0.810699 2.34511 -0.11076 -0.44386
8 2.24752 0 0 0.101544 0.256935 -0.00235505
9 1.11936 0 0 0.100351 0.152181 -0.151587
10 3.71348 -0.102641 0.102191 1.44717 0.805255 0.453677
11 1.72615 0 0 0.000435713 0.152128 -1.5215
12 1.21114 0 0 -0.0030376 0.0173727 -0.770565
13 3.59919 -1.06012 0.0708876 1.51798 -0.0791176 0.00347703
14 1.66068 0 0 -0.0425705 0.0394149 -1.04703
15 1.167 0 0 -0.00883495 0.00165496 -0.482647
16 2.18852 0.50104 0.0576591 1.55893 0.123348 0.226068
17 1.29609 0 0 -0.203075 0.0749011 -0.697922
18 1.62202 0.000713348 -0.000471115 0.0360743 -0.00491094 -1.60563
19 1.22241 0 0 0.007259 -0.00270845 -0.703281
20 1.76707 1.27612 0.0366411 1.52736 0.172031 0.124018
21 1.55588 0 0 -0.299721 0.178509 -0.619377
22 1.24273 0 0 -0.000462282 -0.000382238 -1.36998
23 0.784523 0 0 0.00430538 0.00338721 -0.7269
24 -2.83583 -0.518291 -10.3275 -0.000932693 0 -2.0944
25 6.02794 0 0 0.999652 0.172526 0.725543
26 11.7344 0 0 0.00140253 0 0.748494
27 8.81167 0 0 2.04307 0 0
28 5.77884 0 0 1.36886 0 0
29 2.23249 0 0 0.674213 0 0
30 11.4725 0 0 2.01964 0.394059 -0.360309
31 0.615814 0.994371 -0.809165 -2.74992 0.371521 0.481775
32 2.24752 0 0 -0.091385 -0.00666558 -0.225298
33 1.11936 0 0 -0.0659629 0.197556 0.102886
34 3.71349 0.102638 0.102191 -1.55796 0.571139 -0.0724675
35 1.72615 0 0 -0.0103978 -0.0184002 0.607515
36 1.21112 0 0 0.00331355 0.0173221 0.786478
37 3.5992 1.06012 0.0708885 -1.58519 0.28709 -0.042354
38 1.66069 0 0 0.00583348 0.0731642 0.298474
39 1.16699 0 0 0.0397122 0.0124133 0.751671
40 2.18853 -0.50104 0.0576591 -1.57359 0.194888 -0.159461
41 1.29609 0 0 -0.017008 -0.0436383 0.560533
42 1.62202 -0.000715256 -0.0004673 -0.0080693 -0.0311476 0.638739
43 1.22241 0 0 -0.00974947 0.00244489 0.993006
44 1.76707 -1.27612 0.0366411 -1.57222 0.314887 -0.190364
45 1.55588 0 0 0.0298599 0.0130838 0.863363
46 1.24273 0 0 0.000587261 0.000120479 0.477555
47 0.784531 0 0 -0.0100875 -0.00368616 0.217615
48 0 0 0 0 0 0
49 4.84709 -17.0319 -7.47275 0.0120629 0.0311206 -0.00292177
50 0 -1.70357 0.0050807 0 0 0
51 -0.00195932 3.96104 2.21118 0 0 0
52 0.641596 -0.666147 0.75166 0 0 0
53 0.786659 -3.45621 1.13628 0 0.198355 0
54 -0.70623 -4.69238 1.98618 -3.14159 -0.0872663 -3.14159
55 0.0133305 1.02904 3.61174 0 0 0
56 0.01333 -1.24399 2.23877 0 0 0
57 4.66984 -22.1771 -12.6457 0.0117973 0.0313938 -0.00287608
58 0.0129194 0.0367699 5.95713 0 0 0
time 12
0 7.96718 5.13272 -3.24532 0.000934124 0 -0.959925
1 6.02794 0 0 -0.681655 1.06364 -0.28884
2 11.7344 0 0 -0.00140292 0 -1.65298
3 8.81138 -0.000449181 -0.000112534 -0.344959 0 0.000157421
4 5.77839 0.000286102 0 -0.231123 0 0.000104031
5 2.23163 -0.000329971 -0.00036335 -0.113837 0 0
6 11.4725 0 0 -0.5288 -0.295659 0.553939
7 0.615219 -0.993092 -0.810699 2.34511 -0.11076 -0.44386
8 2.24752 0 0 0.101544 0.256935 -0.0023548
9 1.11936 0 0 0.100351 0.152181 -0.151588
10 3.71348 -0.102641 0.102192 1.44717 0.805255 0.453677
11 1.72615 0 0 0.000435607 0.152128 -1.5215
12 1.21114 0 0 -0.00303759 0.0173726 -0.770565
13 3.59919 -1.06012 0.0708876 1.51798 -0.0791176 0.00347704
14 1.66068 0 0 -0.0425705 0.0394149 -1.04703
15 1.167 0 0 -0.00883496 0.00165495 -0.482647
16 2.18853 0.50104 0.0576601 1.55893 0.123348 0.226068
17 1.29609 0 0 -0.203075 0.0749011 -0.697922
18 1.62202 0.000715256 -0.000471115 0.0360743 -0.00491075 -1.60563
19 1.22241 0 0 0.00725899 -0.00270855 -0.703281
20 1.76707 1.27612 0.0366411 1.52736 0.172032 0.124018
21 1.55588 0 0 -0.299721 0.178509 -0.619377
22 1.24274 0 0 -0.000462275 -0.000381963 -1.36998
23 0.784523 0 0 0.00430534 0.00338732 -0.7269
24 -2.83583 -0.518291 -10.3275 -0.000932693 0 -2.0944
25 6.02794 0 0 1.00056 0.164008 0.730938
26 11.7344 0 0 0.0014026 0 0.72778
27 8.81167 0 0 2.04549 0 0
28 5.77884 0 0 1.37048 0 0
29 2.23249 0 0 0.675012 0 0
30 11.4725 0 0 2.02535 0.390832 -0.342761
31 0.615812 0.994371 -0.809165 -2.74992 0.371521 0.481775
32 2.24752 0 0 -0.0913849 -0.00666567 -0.225298
33 1.11936 0 0 -0.065963 0.197557 0.102885
34 3.71349 0.102639 0.102191 -1.55796 0.571139 -0.0724672
35 1.72615 0 0 -0.0103979 -0.0184 0.607515
36 1.21112 0 0 0.00331355 0.0173222 0.786478
37 3.5992 1.06012 0.0708885 -1.58519 0.28709 -0.042354
38 1.66069 0 0 0.0058333 0.073164 0.298474
39 1.16699 0 0 0.0397123 0.0124133 0.751671
40 2.18853 -0.501041 0.0576591 -1.57359 0.194888 -0.159461
41 1.29609 0 0 -0.017008 -0.0436382 0.560533
42 1.62202 -0.000711441 -0.000469208 -0.00806925 -0.0311476 0.638739
43 1.22241 0 0 -0.00974952 0.00244504 0.993006
44 1.76707 -1.27612 0.0366411 -1.57222 0.314887 -0.190364
45 1.55587 0 0 0.0298598 0.0130837 0.863363
46 1.24273 0 0 0.000587352 0.000120473 0.477555
47 0.784532 0 0 -0.0100874 -0.00368627 0.217615
48 0 0 0 0 0 0
49 4.87341 -17.1121 -7.47273 0.00889759 0.0240219 -0.00248629
50 0 -1.70357 0.00508118 0 0 0
51 -0.0019598 3.96104 2.21118 0 0 0
52 0.641596 -0.666147 0.75166 0 0 0
53 0.786659 -3.4562 1.13628 0 0.198355 0
54 -0.70623 -4.69238 1.98618 -3.14159 -0.0872664 3.14159
55 0.0133295 1.02904 3.61174 0 0 0
56 0.01333 -1.24399 2.23877 0 0 0
57 4.73547 -22.2738 -12.6304 0.0086316 0.0242952 -0.00244148
58 0.0129194 0.0367699 5.95713 0 0 0
time 13
0 7.96718 5.13272 -3.24532 0.000934124 0 -0.959925
1 6.02794 0 0 -0.689043 1.06144 -0.290514
2 11.7344 0 0 -0.00140283 0 -1.64746
3 8.81139 -0.000450134 -0.000114441 -0.337012 0 0.000156984
4 5.77839 0.000287056 0 -0.225798 0 0.000103763
5 2.23163 -0.000329971 -0.000364304 -0.111214 0 0
6 11.4725 0 0 -0.517184 -0.291447 0.548574
7 0.615219 -0.993092 -0.8107 2.34511 -0.11076 -0.44386
8 2.24752 0 0 0.101544 0.256935 -0.002355
9 1.11936 0 0 0.100351 0.152181 -0.151588
10 3.71348 -0.102641 0.10219 1.44717 0.805255 0.453677
11 1.72615 0 0 0.000435668 0.152128 -1.5215
12 1.21114 0 0 -0.00303756 0.0173728 -0.770564
13 3.59919 -1.06012 0.0708876 1.51798 -0.0791178 0.0034771
14 1.66069 0 0 -0.0425705 0.0394149 -1.04703
15 1.167 0 0 -0.00883495 0.00165499 -0.482647
16 2.18853 0.50104 0.0576591 1.55893 0.123347 0.226068
17 1.29609 0 0 -0.203075 0.0749011 -0.697922
18 1.62202 0.000715256 -0.000471115 0.0360743 -0.00491086 -1.60563
19 1.22241 0 0 0.00725896 -0.0027085 -0.703282
20 1.76707 1.27612 0.0366402 1.52736 0.172031 0.124018
21 1.55588 0 0 -0.299721 0.178509 -0.619377
22 1.24274 0 0 -0.000462321 -0.000382001 -1.36998
23 0.784523 0 0 0.00430533 0.00338726 -0.7269
24 -2.83583 -0.518291 -10.3275 -0.000932693 0 -2.0944
25 6.02794 0 0 1.00159 0.155508 0.737474
26 11.7344 0 0 0.00140268 0 0.706842
27 8.81167 0 0 2.04944 0 0
28 5.77884 0 0 1.37313 0 0
29 2.23249 0 0 0.676315 0 0
30 11.4725 0 0 2.03247 0.386135 -0.324129
31 0.61581 0.99437 -0.809165 -2.74992 0.371521 0.481775
32 2.24752 0 0 -0.0913849 -0.00666567 -0.225298
33 1.11935 0 0 -0.065963 0.197556 0.102885
34 3.71348 0.10264 0.10219 -1.55796 0.571139 -0.0724674
35 1.72615 0 0 -0.0103979 -0.0184001 0.607515
36 1.21112 0 0 0.0033137 0.017322 0.786478
37 3.5992 1.06011 0.0708885 -1.58519 0.28709 -0.0423538
38 1.66069 0 0 0.00583329 0.0731641 0.298474
39 1.16699 0 0 0.0397123 0.0124133 0.751671
40 2.18853 -0.501042 0.0576591 -1.57359 0.194888 -0.159461
41 1.29609 0 0 -0.0170079 -0.0436384 0.560533
42 1.62202 -0.000713348 -0.0004673 -0.0080692 -0.0311475 0.638739
43 1.22241 0 0 -0.0097495 0.00244495 0.993006
44 1.76707 -1.27612 0.0366402 -1.57222 0.314887 -0.190364
45 1.55588 0 0 0.0298599 0.0130838 0.863363
46 1.24273 0 0 0.000587184 0.000120414 0.477555
47 0.784531 0 0 -0.0100874 -0.0036862 0.217615
48 0 0 0 0 0 0
49 4.9177 -17.1824 -7.47271 0.00542063 0.0149709 -0.00169034
50 0 -1.70357 0.00508022 0 0 0
51 -0.0019598 3.96104 2.21118 0 0 0
52 0.641596 -0.666147 0.75166 0 0 0
53 0.786659 -3.45621 1.13628 0 0.198355 0
54 -0.70623 -4.69238 1.98618 -3.14159 -0.0872664 3.14159
55 0.01333 1.02904 3.61174 0 0 0
56 0.01333 -1.24399 2.23877 0 0 0
57 4.8308 -22.3622 -12.6133 0.00515422 0.0152444 -0.00164649
58 0.0129194 0.0367718 5.95713 0 0 0
time 14
0 7.96718 5.13272 -3.24532 0.000934124 0 -0.959925
1 6.02794 0 0 -0.6949 1.05985 -0.290793
2 11.7344 0 0 -0.00140276 0 -1.64341
3 8.81138 -0.000448227 -0.000112534 -0.329179 0 0.000157426
4 5.77839 0.000286102 0 -0.22055 0 0.000104197
5 2.23163 -0.000329971 -0.000364304 -0.108629 0 0
6 11.4725 0 0 -0.506115 -0.287424 0.544038
7 0.615219 -0.993092 -0.8107 2.34511 -0.11076 -0.44386
8 2.24752 0 0 0.101544 0.256935 -0.00235509
9 1.11936 0 0 0.100351 0.152181 -0.151587
10 3.71348 -0.10264 0.102191 1.44717 0.805255 0.453677
11 1.72615 0 0 0.000435615 0.152128 -1.5215
12 1.21114 0 0 -0.00303761 0.0173727 -0.770564
13 3.59919 -1.06012 0.0708876 1.51798 -0.0791177 0.00347704
14 1.66068 0 0 -0.0425705 0.0394149 -1.04703
15 1.167 0 0 -0.00883496 0.00165498 -0.482647
16 2.18853 0.50104 0.0576582 1.55893 0.123347 0.226068
17 1.29609 0 0 -0.203075 0.0749011 -0.697922
18 1.62202 0.000713348 -0.000472069 0.0360742 -0.00491083 -1.60563
19 1.22241 0 0 0.00725906 -0.00270856 -0.703281
20 1.76707 1.27612 0.0366402 1.52736 0.172031 0.124018
21 1.55588 0 0 -0.299721 0.178509 -0.619377
22 1.24274 0 0 -0.00046228 -0.000382005 -1.36998
23 0.784523 0 0 0.00430537 0.00338724 -0.7269
24 -2.83583 -0.518291 -10.3275 -0.000932693 0 -2.0944
25 6.02794 0 0 1.00255 0.14781 0.743858
26 11.7344 0 0 0.00140273 0 0.687793
27 8.81167 0 0 2.05345 0 0
28 5.77884 0 0 1.37581 0 0
29 2.23249 0 0 0.677639 0 0
30 11.4725 0 0 2.03922 0.38134 -0.307132
31 0.615816 0.994372 -0.809166 -2.74992 0.371521 0.481775
32 2.24752 0 0 -0.0913849 -0.00666564 -0.225298
33 1.11935 0 0 -0.065963 0.197556 0.102885
34 3.71349 0.102639 0.10219 -1.55796 0.571139 -0.0724676
35 1.72615 0 0 -0.010398 -0.0184001 0.607515
36 1.21112 0 0 0.00331374 0.017322 0.786478
37 3.5992 1.06012 0.0708876 -1.58519 0.28709 -0.042354
38 1.66069 0 0 0.00583336 0.073164 0.298474
39 1.16699 0 0 0.0397122 0.0124134 0.751671
40 2.18853 -0.50104 0.0576582 -1.57359 0.194888 -0.159462
41 1.29609 0 0 -0.0170079 -0.0436384 0.560533
42 1.62202 -0.000713348 -0.000471115 -0.00806926 -0.0311475 0.638739
43 1.22241 0 0 -0.00974956 0.00244498 0.993006
44 1.76707 -1.27612 0.0366402 -1.57222 0.314887 -0.190364
45 1.55587 0 0 0.0298599 0.0130836 0.863363
46 1.24273 0 0 0.000587336 0.000120408 0.477555
47 0.784532 0 0 -0.0100875 -0.00368612 0.217615
48 0 0 0 0 0 0
49 4.96492 -17.2394 -7.47269 0.00225252 0.00624908 -0.000856317
50 0 -1.70357 0.0050807 0 0 0
51 -0.0019598 3.96104 2.21118 0 0 0
52 0.641596 -0.666149 0.75166 0 0 0
53 0.786659 -3.4562 1.13628 0 0.198355 0
54 -0.706229 -4.69238 1.98618 3.14159 -0.0872664 -3.14159
55 0.01333 1.02904 3.61174 0 0 0
56 0.0133305 -1.24399 2.23877 0 0 0
57 4.92727 -22.4356 -12.5973 0.00198572 0.0065227 -0.000813335
58 0.0129194 0.0367699 5.95713 0 0 0
time 15
0 7.96718 5.13272 -3.24532 0.000934124 0 -0.959925
1 6.02794 0 0 -0.699061 1.05873 -0.290892
2 11.7344 0 0 -0.00140273 0 -1.64054
3 8.81138 -0.000450134 -0.000112534 -0.323785 0 0.000157333
4 5.77839 0.000286102 0 -0.216936 0 0.00010383
5 2.23163 -0.000329971 -0.000364304 -0.106849 0 0
6 11.4725 0 0 -0.498312 -0.284414 0.540746
7 0.615219 -0.993091 -0.8107 2.34511 -0.11076 -0.44386
8 2.24752 0 0 0.101544 0.256935 -0.00235487
9 1.11936 0 0 0.100351 0.152182 -0.151587
10 3.71348 -0.10264 0.10219 1.44717 0.805255 0.453677
11 1.72615 0 0 0.000435698 0.152128 -1.5215
12 1.21114 0 0 -0.0030376 0.0173727 -0.770565
13 3.59919 -1.06012 0.0708876 1.51798 -0.0791178 0.00347711
14 1.66069 0 0 -0.0425706 0.0394149 -1.04703
15 1.167 0 0 -0.00883492 0.001655 -0.482647
16 2.18852 0.50104 0.0576591 1.55893 0.123347 0.226068
17 1.29609 0 0 -0.203075 0.0749012 -0.697922
18 1.62202 0.000713348 -0.000471115 0.0360743 -0.00491086 -1.60563
19 1.22241 0 0 0.00725897 -0.00270846 -0.703281
20 1.76707 1.27612 0.0366402 1.52736 0.172031 0.124018
21 1.55588 0 0 -0.299721 0.178509 -0.619377
22 1.24274 0 0 -0.000462386 -0.000382016 -1.36998
23 0.784523 0 0 0.00430535 0.00338729 -0.7269
24 -2.83583 -0.518291 -10.3275 -0.000932693 0 -2.0944
25 6.02794 0 0 1.00323 0.142213 0.748503
26 11.7344 0 0 0.00140276 0 0.673968
27 8.81167 0 0 2.05621 0 0
28 5.77884 0 0 1.37766 0 0
29 2.23249 0 0 0.678549 0 0
30 11.4725 0 0 2.04388 0.377863 -0.295061
31 0.615812 0.994372 -0.809165 -2.74992 0.371521 0.481775
32 2.24752 0 0 -0.0913848 -0.00666569 -0.225298
33 1.11936 0 0 -0.065963 0.197557 0.102885
34 3.71349 0.102638 0.102192 -1.55796 0.571139 -0.0724672
35 1.72615 0 0 -0.0103977 -0.0184001 0.607515
36 1.21112 0 0 0.00331361 0.0173222 0.786478
37 3.5992 1.06012 0.0708895 -1.58519 0.28709 -0.0423538
38 1.66069 0 0 0.00583341 0.0731639 0.298474
39 1.16699 0 0 0.0397124 0.0124132 0.751671
40 2.18853 -0.501042 0.0576591 -1.57359 0.194888 -0.159461
41 1.29609 0 0 -0.0170078 -0.0436385 0.560533
42 1.62201 -0.000713348 -0.000469208 -0.00806914 -0.0311474 0.638739
43 1.2224 0 0 -0.00974965 0.00244506 0.993006
44 1.76707 -1.27612 0.0366411 -1.57222 0.314887 -0.190364
45 1.55587 0 0 0.0298598 0.0130839 0.863363
46 1.24273 0 0 0.000587298 0.000120378 0.477555
47 0.784532 0 0 -0.0100873 -0.00368616 0.217615
48 0 0 0 0 0 0
49 5 -17.2801 -7.47268 0 0.000137978 -0.000306641
50 0 -1.70357 0.00508118 0 0 0
51 -0.0019598 3.96104 2.21118 0 0 0
52 0.641597 -0.666147 0.751661 0 0 0
53 0.786659 -3.45621 1.13628 0 0.198355 0
54 -0.706229 -4.69238 1.98618 3.14159 -0.0872664 3.14159
55 0.0133305 1.02904 3.61174 0 0 0
56 0.01333 -1.24399 2.23877 0 0 0
57 4.99652 -22.4878 -12.5858 -0.000253136 0.000411693 -0.000264271
58 0.0129194 0.0367718 5.95713 0 0 0
time 16
0 7.96718 5.13272 -3.24532 0.000934124 0 -0.959925
1 6.02794 0 0 -0.700673 1.05836 -0.290537
2 11.7344 0 0 -0.0014029 0 -1.63957
3 8.81138 -0.000449181 -0.00011158 -0.321017 0 0.000157484
4 5.77839 0.000286102 0 -0.215081 0 0.000104122
5 2.23163 -0.000329971 -0.000364304 -0.105936 0 0
6 11.4725 0 0 -0.494466 -0.282963 0.539333
7 0.615219 -0.993092 -0.810699 2.34511 -0.11076 -0.44386
8 2.24752 0 0 0.101544 0.256935 -0.00235511
9 1.11936 0 0 0.100351 0.152181 -0.151587
10 3.71348 -0.102641 0.102193 1.44717 0.805255 0.453677
11 1.72615 0 0 0.000435713 0.152128 -1.5215
12 1.21114 0 0 -0.00303757 0.0173726 -0.770565
13 3.59919 -1.06012 0.0708895 1.51798 -0.0791176 0.00347704
14 1.66069 0 0 -0.0425705 0.0394149 -1.04703
15 1.167 0 0 -0.00883493 0.00165498 -0.482647
16 2.18852 0.50104 0.0576601 1.55893 0.123347 0.226068
17 1.29609 0 0 -0.203075 0.0749011 -0.697922
18 1.62202 0.000713348 -0.000471115 0.0360742 -0.00491087 -1.60563
19 1.22241 0 0 0.00725899 -0.00270842 -0.703281
20 1.76707 1.27612 0.0366411 1.52736 0.172031 0.124018
21 1.55587 0 0 -0.299721 0.178509 -0.619377
22 1.24273 0 0 -0.000462386 -0.000382016 -1.36998
23 0.784525 0 0 0.00430538 0.00338731 -0.7269
24 -2.83583 -0.518291 -10.3275 -0.000932693 0 -2.0944
25 6.02794 0 0 1.00354 0.139824 0.750632
26 11.7344 0 0 0.00140269 0 0.668048
27 8.81167 0 0 2.05772 0 0
28 5.77884 0 0 1.37867 0 0
29 2.23249 0 0 0.679048 0 0
30 11.4725 0 0 2.04619 0.376049 -0.289648
31 0.615812 0.994372 -0.809166 -2.74992 0.371521 0.481775
32 2.24752 0 0 -0.0913849 -0.00666567 -0.225298
33 1.11936 0 0 -0.065963 0.197557 0.102886
34 3.71348 0.102638 0.102191 -1.55796 0.571139 -0.0724673
35 1.72615 0 0 -0.0103979 -0.0184001 0.607515
36 1.21112 0 0 0.00331375 0.0173221 0.786478
37 3.5992 1.06012 0.0708876 -1.58519 0.28709 -0.0423539
38 1.66069 0 0 0.00583328 0.073164 0.298474
39 1.16699 0 0 0.0397122 0.0124133 0.751671
40 2.18853 -0.501041 0.0576582 -1.57359 0.194888 -0.159461
41 1.29609 0 0 -0.0170079 -0.0436384 0.560533
42 1.62202 -0.000715256 -0.000473022 -0.00806912 -0.0311475 0.638739
43 1.22241 0 0 -0.00974947 0.00244489 0.993006
44 1.76707 -1.27612 0.0366402 -1.57222 0.314887 -0.190364
45 1.55588 0 0 0.0298599 0.0130838 0.863363
46 1.24273 0 0 0.000587247 0.000120422 0.477555
47 0.784532 0 0 -0.0100876 -0.0036862 0.217615
48 0 0 0 0 0 0
49 5.01771 -17.2961 -7.47268 -0.00105048 -0.00291722 0
50 0 -1.70357 0.0050807 0 0 0
51 -0.0019598 3.96104 2.21118 0 0 0
52 0.641597 -0.666149 0.75166 0 0 0
53 0.786659 -3.45621 1.13628 0 0.198355 0
54 -0.706229 -4.69238 1.98618 3.14159 -0.0872664 -3.14159
55 0.01333 1.02904 3.61174 0 0 0
56 0.01333 -1.24399 2.23877 0 0 0
57 5.03108 -22.5092 -12.5802 -0.00131767 -0.00264346 0
58 0.0129194 0.0367737 5.95713 0 0 0
time 17
0 7.96718 5.13272 -3.24532 0.000934124 0 -0.959925
1 6.02794 0 0 -0.699672 1.0589 -0.289008
2 11.7344 0 0 -0.00140268 0 -1.64084
3 8.81138 -0.000448227 -0.000112534 -0.31938 0 0.000157086
4 5.77839 0.000287056 0 -0.213985 0 0.000103958
5 2.23163 -0.000329971 -0.000364304 -0.105395 0 0
6 11.4725 0 0 -0.493005 -0.282761 0.539737
7 0.615219 -0.993092 -0.810701 2.34511 -0.11076 -0.44386
8 2.24752 0 0 0.101544 0.256935 -0.00235502
9 1.11936 0 0 0.100351 0.152181 -0.151588
10 3.71348 -0.102642 0.10219 1.44717 0.805255 0.453677
11 1.72615 0 0 0.000435607 0.152128 -1.5215
12 1.21113 0 0 -0.00303753 0.0173727 -0.770564
13 3.59919 -1.06012 0.0708876 1.51798 -0.0791178 0.00347707
14 1.66069 0 0 -0.0425705 0.0394149 -1.04703
15 1.167 0 0 -0.00883493 0.00165498 -0.482647
16 2.18852 0.50104 0.0576582 1.55893 0.123347 0.226068
17 1.29609 0 0 -0.203075 0.0749011 -0.697923
18 1.62202 0.000713348 -0.000472069 0.0360743 -0.00491094 -1.60563
19 1.22241 0 0 0.00725903 -0.00270834 -0.703281
20 1.76707 1.27612 0.0366411 1.52736 0.172031 0.124018
21 1.55588 0 0 -0.299721 0.178509 -0.619377
22 1.24273 0 0 -0.000462275 -0.000381963 -1.36998
23 0.784523 0 0 0.00430541 0.00338722 -0.7269
24 -2.83583 -0.518291 -10.3275 -0.000932693 0 -2.0944
25 6.02794 0 0 1.00357 0.140372 0.750832
26 11.7344 0 0 0.00140263 0 0.669251
27 8.81167 0 0 2.05892 0 0
28 5.77884 0 0 1.37947 0 0
29 2.23249 0 0 0.679443 0 0
30 11.4725 0 0 2.04725 0.375142 -0.289494
31 0.615812 0.99437 -0.809165 -2.74992 0.371521 0.481775
32 2.24752 0 0 -0.0913849 -0.00666568 -0.225298
33 1.11936 0 0 -0.065963 0.197557 0.102886
34 3.71349 0.102637 0.102191 -1.55796 0.571139 -0.0724672
35 1.72615 0 0 -0.0103977 -0.0184002 0.607515
36 1.21112 0 0 0.00331344 0.0173223 0.786478
37 3.5992 1.06012 0.0708885 -1.58519 0.28709 -0.0423539
38 1.66069 0 0 0.00583324 0.0731639 0.298474
39 1.16699 0 0 0.0397123 0.0124134 0.751671
40 2.18853 -0.501041 0.0576591 -1.57359 0.194888 -0.159461
41 1.29609 0 0 -0.0170078 -0.0436385 0.560532
42 1.62201 -0.000715256 -0.000471115 -0.00806925 -0.0311476 0.638739
43 1.22241 0 0 -0.00974958 0.00244518 0.993006
44 1.76707 -1.27612 0.0366411 -1.57222 0.314887 -0.190364
45 1.55588 0 0 0.0298598 0.0130838 0.863363
46 1.24273 0 0 0.000587135 0.000120464 0.477555
47 0.784532 0 0 -0.0100874 -0.00368629 0.217615
48 0 0 0 0 0 0
49 5.02504 -17.2875 -7.47269 -0.00127279 -0.00428915 0
50 0 -1.70356 0.0050807 0 0 0
51 -0.0019598 3.96104 2.21118 0 0 0
52 0.641596 -0.666147 0.75166 0 0 0
53 0.786658 -3.45621 1.13628 0 0.198355 0
54 -0.70623 -4.69238 1.98618 -3.14159 -0.0872664 3.14159
55 0.01333 1.02904 3.61174 0 0 0
56 0.0133305 -1.24399 2.23877 0 0 0
57 5.04613 -22.5017 -12.579 -0.00154004 -0.00401538 0.000111599
58 0.0129189 0.0367718 5.95712 0 0 0
time 18
0 7.96718 5.13272 -3.24532 0.000934124 0 -0.959925
1 6.02794 0 0 -0.697034 1.06 -0.286809
2 11.7344 0 0 -0.00140278 0 -1.64349
3 8.81138 -0.000450134 -0.000113487 -0.318644 0 0.00015761
4 5.77839 0.000286102 0 -0.213491 0 0.000104221
5 2.23164 -0.000329018 -0.000365257 -0.105153 0 0
6 11.4725 0 0 -0.493255 -0.283373 0.541316
7 0.615218 -0.99309 -0.810699 2.34511 -0.11076 -0.44386
8 2.24752 0 0 0.101544 0.256935 -0.00235488
9 1.11936 0 0 0.100351 0.152181 -0.151587
10 3.71348 -0.10264 0.10219 1.44717 0.805255 0.453677
11 1.72615 0 0 0.000435555 0.152128 -1.5215
12 1.21114 0 0 -0.00303757 0.0173727 -0.770564
13 3.59919 -1.06012 0.0708876 1.51798 -0.0791178 0.00347705
14 1.66069 0 0 -0.0425705 0.0394149 -1.04703
15 1.167 0 0 -0.00883491 0.00165498 -0.482647
16 2.18852 0.50104 0.0576591 1.55893 0.123347 0.226068
17 1.29609 0 0 -0.203075 0.0749011 -0.697922
18 1.62202 0.000711441 -0.000472069 0.0360743 -0.00491088 -1.60563
19 1.22241 0 0 0.00725895 -0.00270847 -0.703282
20 1.76707 1.27612 0.0366402 1.52736 0.172032 0.124018
21 1.55588 0 0 -0.299721 0.178509 -0.619377
22 1.24273 0 0 -0.000462321 -0.000382001 -1.36998
23 0.784523 0 0 0.00430548 0.00338722 -0.7269
24 -2.83583 -0.518291 -10.3275 -0.000932693 0 -2.0944
25 6.02794 0 0 1.00343 0.142782 0.749785
26 11.7344 0 0 0.00140275 0 0.674957
27 8.81167 0 0 2.05979 0 0
28 5.77884 0 0 1.38006 0 0
29 2.23249 0 0 0.679732 0 0
30 11.4725 0 0 2.04738 0.374911 -0.292796
31 0.615814 0.994371 -0.809165 -2.74992 0.371521 0.481775
32 2.24752 0 0 -0.0913849 -0.00666565 -0.225298
33 1.11936 0 0 -0.065963 0.197556 0.102886
34 3.71349 0.102638 0.102191 -1.55796 0.571139 -0.0724674
35 1.72615 0 0 -0.0103976 -0.0184001 0.607515
36 1.21112 0 0 0.00331364 0.0173222 0.786478
37 3.5992 1.06012 0.0708885 -1.58519 0.28709 -0.0423539
38 1.66069 0 0 0.0058332 0.0731641 0.298474
39 1.16699 0 0 0.0397124 0.0124132 0.751671
40 2.18853 -0.50104 0.0576591 -1.57359 0.194888 -0.159461
41 1.29609 0 0 -0.017008 -0.0436384 0.560533
42 1.62202 -0.000713348 -0.000469208 -0.00806924 -0.0311476 0.638739
43 1.22241 0 0 -0.00974959 0.00244492 0.993006
44 1.76707 -1.27612 0.0366402 -1.57222 0.314887 -0.190364
45 1.55588 0 0 0.0298599 0.0130838 0.863363
46 1.24273 0 0 0.000587164 0.000120457 0.477555
47 0.784532 0 0 -0.0100875 -0.00368622 0.217615
48 0 0 0 0 0 0
49 5.02525 -17.2635 -7.4727 -0.00089771 -0.00442298 0.000128076
50 0 -1.70357 0.0050807 0 0 0
51 -0.00195932 3.96104 2.21118 0 0 0
52 0.641596 -0.666149 0.75166 0 0 0
53 0.786658 -3.45621 1.13628 0 0.198355 0
54 -0.706229 -4.69238 1.98618 -3.14159 -0.0872664 -3.14159
55 0.01333 1.02904 3.61174 0 0 0
56 0.0133305 -1.24399 2.23877 0 0 0
57 5.04733 -22.4758 -12.581 -0.00116496 -0.00414923 0.000170196
58 0.0129189 0.0367718 5.95713 0 0 0
time 19
0 7.96718 5.13272 -3.24532 0.000934124 0 -0.959925
1 6.02794 0 0 -0.693738 1.06128 -0.284452
2 11.7344 0 0 -0.00140297 0 -1.64664
3 8.81138 -0.000450134 -0.000112534 -0.31858 0 0.000157208
4 5.77839 0.000286102 0 -0.213449 0 0.000103947
5 2.23164 -0.000329018 -0.000364304 -0.105132 0 0
6 11.4725 0 0 -0.494544 -0.284361 0.54343
7 0.615219 -0.993091 -0.8107 2.34511 -0.11076 -0.44386
8 2.24752 0 0 0.101545 0.256935 -0.00235504
9 1.11936 0 0 0.100351 0.152181 -0.151587
10 3.71348 -0.102642 0.102192 1.44717 0.805255 0.453677
11 1.72615 0 0 0.000435645 0.152128 -1.5215
12 1.21114 0 0 -0.00303753 0.0173727 -0.770565
13 3.59919 -1.06012 0.0708876 1.51798 -0.0791177 0.00347714
14 1.66069 0 0 -0.0425705 0.0394149 -1.04703
15 1.167 0 0 -0.00883495 0.00165496 -0.482647
16 2.18853 0.50104 0.0576591 1.55893 0.123347 0.226068
17 1.29609 0 0 -0.203075 0.0749011 -0.697923
18 1.62202 0.000713348 -0.000471115 0.0360743 -0.00491092 -1.60563
19 1.22241 0 0 0.007259 -0.00270848 -0.703281
20 1.76707 1.27612 0.0366411 1.52736 0.172031 0.124018
21 1.55588 0 0 -0.299721 0.178509 -0.619377
22 1.24273 0 0 -0.000462248 -0.000381902 -1.36998
23 0.784523 0 0 0.00430534 0.00338723 -0.7269
24 -2.83583 -0.518291 -10.3275 -0.000932693 0 -2.0944
25 6.02794 0 0 1.0032 0.145963 0.748176
26 11.7344 0 0 0.00140262 0 0.682509
27 8.81167 0 0 2.06035 0 0
28 5.77884 0 0 1.38043 0 0
29 2.23249 0 0 0.679915 0 0
30 11.4725 0 0 2.04692 0.375124 -0.297732
31 0.61581 0.994375 -0.809165 -2.74992 0.371521 0.481775
32 2.24752 0 0 -0.0913849 -0.00666555 -0.225298
33 1.11936 0 0 -0.065963 0.197556 0.102886
34 3.71348 0.10264 0.102192 -1.55796 0.571139 -0.0724675
35 1.72615 0 0 -0.0103977 -0.0184 0.607515
36 1.21112 0 0 0.00331366 0.0173221 0.786478
37 3.5992 1.06012 0.0708885 -1.58519 0.28709 -0.042354
38 1.66069 0 0 0.00583319 0.073164 0.298474
39 1.16699 0 0 0.0397123 0.0124133 0.751671
40 2.18853 -0.50104 0.0576591 -1.57359 0.194888 -0.159462
41 1.29609 0 0 -0.017008 -0.0436383 0.560533
42 1.62201 -0.000713348 -0.000469208 -0.00806922 -0.0311476 0.638739
43 1.22241 0 0 -0.00974954 0.00244502 0.993006
44 1.76707 -1.27612 0.0366411 -1.57222 0.314887 -0.190364
45 1.55588 0 0 0.0298599 0.0130838 0.863363
46 1.24273 0 0 0.000587318 0.000120335 0.477555
47 0.784532 0 0 -0.0100874 -0.00368615 0.217615
48 0 0 0 0 0 0
49 5.02161 -17.2335 -7.47271 -0.000170067 -0.0037639 0.000134174
50 0 -1.70357 0.0050807 0 0 0
51 -0.00196028 3.96104 2.21118 0 0 0
52 0.641596 -0.666145 0.75166 0 0 0
53 0.786658 -3.4562 1.13628 0 0.198355 0
54 -0.706229 -4.69238 1.98618 3.14159 -0.0872664 3.14159
55 0.0133295 1.02904 3.61174 0 0 0
56 0.0133295 -1.24399 2.23877 0 0 0
57 5.04037 -22.4421 -12.5848 -0.000437294 -0.00349017 0.000176493
58 0.0129189 0.0367718 5.95713 0 0 0
time 20
0 7.96718 5.13272 -3.24532 0.000934124 0 -0.959925
1 6.02794 0 0 -0.69078 1.0624 -0.282459
2 11.7344 0 0 -0.00140287 0 -1.6494
3 8.81138 -0.000451088 -0.00011158 -0.318967 0 0.000157625
4 5.77839 0.000287056 0 -0.213708 0 0.00010426
5 2.23163 -0.000329018 -0.000362396 -0.105259 0 0
6 11.4725 0 0 -0.496199 -0.28528 0.545441
7 0.615218 -0.993092 -0.8107 2.34511 -0.11076 -0.44386
8 2.24752 0 0 0.101545 0.256935 -0.00235498
9 1.11936 0 0 0.100351 0.152181 -0.151587
10 3.71348 -0.102641 0.102191 1.44717 0.805255 0.453677
11 1.72615 0 0 0.000435698 0.152128 -1.5215
12 1.21114 0 0 -0.00303756 0.0173726 -0.770564
13 3.59919 -1.06012 0.0708885 1.51798 -0.0791177 0.00347706
14 1.66069 0 0 -0.0425705 0.0394149 -1.04703
15 1.167 0 0 -0.00883493 0.00165494 -0.482647
16 2.18852 0.50104 0.0576591 1.55893 0.123347 0.226068
17 1.29609 0 0 -0.203075 0.0749011 -0.697922
18 1.62202 0.000715256 -0.000470161 0.0360743 -0.00491081 -1.60563
19 1.22241 0 0 0.00725905 -0.00270846 -0.703281
20 1.76707 1.27612 0.0366402 1.52736 0.172031 0.124018
21 1.55588 0 0 -0.299721 0.178509 -0.619377
22 1.24273 0 0 -0.000462261 -0.000382028 -1.36998
23 0.784525 0 0 0.00430547 0.00338724 -0.7269
24 -2.83583 -0.518291 -10.3275 -0.000932693 0 -2.0944
25 6.02794 0 0 1.00298 0.148855 0.746671
26 11.7344 0 0 0.00140272 0 0.689319
27 8.81167 0 0 2.06057 0 0
28 5.77884 0 0 1.38058 0 0
29 2.23249 0 0 0.679989 0 0
30 11.4725 0 0 2.0462 0.375549 -0.302517
31 0.615814 0.994376 -0.809165 -2.74992 0.371521 0.481775
32 2.24751 0 0 -0.0913849 -0.00666568 -0.225298
33 1.11936 0 0 -0.065963 0.197557 0.102886
34 3.71349 0.10264 0.102192 -1.55796 0.571139 -0.0724672
35 1.72615 0 0 -0.0103978 -0.0184002 0.607515
36 1.21112 0 0 0.00331361 0.0173222 0.786478
37 3.5992 1.06012 0.0708885 -1.58519 0.28709 -0.0423537
38 1.66069 0 0 0.00583318 0.0731642 0.298474
39 1.16699 0 0 0.0397122 0.0124131 0.751671
40 2.18853 -0.50104 0.0576591 -1.57359 0.194888 -0.159461
41 1.29609 0 0 -0.0170079 -0.0436384 0.560532
42 1.62202 -0.000713348 -0.000469208 -0.00806913 -0.0311476 0.638739
43 1.22241 0 0 -0.0097495 0.00244495 0.993006
44 1.76707 -1.27612 0.0366411 -1.57222 0.314887 -0.190364
45 1.55587 0 0 0.0298598 0.0130838 0.863363
46 1.24273 0 0 0.000587283 0.000120443 0.477555
47 0.784532 0 0 -0.0100876 -0.00368617 0.217615
48 0 0 0 0 0 0
49 5.01739 -17.2067 -7.47273 0.000665435 -0.00275707 0.000113388
50 0 -1.70357 0.00508022 0 0 0
51 -0.0019598 3.96104 2.21118 0 0 0
52 0.641596 -0.666149 0.751659 0 0 0
53 0.786658 -3.45621 1.13628 0 0.198355 0
54 -0.70623 -4.69238 1.98618 -3.14159 -0.0872664 3.14159
55 0.0133305 1.02904 3.61174 0 0 0
56 0.01333 -1.24399 2.23877 0 0 0
57 5.0309 -22.4111 -12.5892 0.00039825 -0.00248338 0.000155936
58 0.0129189 0.0367699 5.95713 0 0 0
time 21
0 7.96718 5.13272 -3.24532 0.000934124 0 -0.959925
1 6.02794 0 0 -0.689168 1.06301 -0.281358
2 11.7344 0 0 -0.0014029 0 -1.65093
3 8.81138 -0.000450134 -0.000112534 -0.319582 0 0.00015702
4 5.77839 0.000286102 0 -0.21412 0 0.000103901
5 2.23163 -0.000328064 -0.000365257 -0.105462 0 0
6 11.4725 0 0 -0.497542 -0.285685 0.546714
7 0.61522 -0.993092 -0.8107 2.34511 -0.11076 -0.44386
8 2.24752 0 0 0.101544 0.256935 -0.00235491
9 1.11936 0 0 0.100351 0.152181 -0.151588
10 3.71348 -0.102641 0.102191 1.44717 0.805255 0.453677
11 1.72615 0 0 0.000435653 0.152128 -1.5215
12 1.21114 0 0 -0.00303756 0.0173727 -0.770564
13 3.59919 -1.06012 0.0708876 1.51798 -0.0791178 0.0034772
14 1.66069 0 0 -0.0425705 0.0394149 -1.04703
15 1.167 0 0 -0.00883492 0.00165495 -0.482647
16 2.18852 0.50104 0.0576591 1.55893 0.123347 0.226068
17 1.2961 0 0 -0.203075 0.0749011 -0.697922
18 1.62202 0.000713348 -0.000470161 0.0360743 -0.00491083 -1.60563
19 1.22241 0 0 0.00725899 -0.00270855 -0.703281
20 1.76707 1.27612 0.0366411 1.52736 0.172031 0.124018
21 1.55588 0 0 -0.299721 0.178509 -0.619377
22 1.24273 0 0 -0.000462275 -0.000381963 -1.36998
23 0.784523 0 0 0.00430536 0.00338727 -0.7269
24 -2.83583 -0.518291 -10.3275 -0.000932693 0 -2.0944
25 6.02794 0 0 1.00285 0.150661 0.745768
26 11.7344 0 0 0.00140272 0 0.693439
27 8.81167 0 0 2.06052 0 0
28 5.77884 0 0 1.38055 0 0
29 2.23249 0 0 0.679973 0 0
30 11.4725 0 0 2.04554 0.375954 -0.305689
31 0.615812 0.99437 -0.809165 -2.74992 0.371521 0.481775
32 2.24752 0 0 -0.0913849 -0.00666563 -0.225298
33 1.11935 0 0 -0.065963 0.197556 0.102886
34 3.71348 0.102638 0.102191 -1.55796 0.571139 -0.0724673
35 1.72615 0 0 -0.0103977 -0.0184002 0.607515
36 1.21112 0 0 0.00331368 0.0173222 0.786478
37 3.5992 1.06011 0.0708876 -1.58519 0.28709 -0.0423538
38 1.66069 0 0 0.00583328 0.0731641 0.298474
39 1.16699 0 0 0.0397123 0.0124132 0.751671
40 2.18853 -0.501041 0.0576591 -1.57359 0.194888 -0.159461
41 1.29609 0 0 -0.0170079 -0.0436384 0.560532
42 1.62202 -0.000711441 -0.000471115 -0.00806918 -0.0311476 0.638739
43 1.22241 0 0 -0.0097496 0.00244503 0.993006
44 1.76707 -1.27612 0.0366402 -1.57222 0.314887 -0.190364
45 1.55588 0 0 0.0298598 0.0130838 0.863363
46 1.24273 0 0 0.000587383 0.000120473 0.477555
47 0.784532 0 0 -0.0100875 -0.00368622 0.217615
48 0 0 0 0 0 0
49 5.01584 -17.1925 -7.47274 0.001364 -0.00184768 0
50 0 -1.70357 0.0050807 0 0 0
51 -0.0019598 3.96104 2.21118 0 0 0
52 0.641596 -0.666147 0.75166 0 0 0
53 0.786658 -3.45621 1.13628 0 0.198355 0
54 -0.70623 -4.69238 1.98618 -3.14159 -0.0872663 3.14159
55 0.0133305 1.02904 3.61174 0 0 0
56 0.01333 -1.24399 2.23877 0 0 0
57 5.02459 -22.3933 -12.5928 0.00109685 -0.00157402 0.000133967
58 0.0129194 0.0367718 5.95713 0 0 0
time 22
0 7.96718 5.13272 -3.24532 0.000934124 0 -0.959925
1 6.02794 0 0 -0.688839 1.06314 -0.281119
2 11.7344 0 0 -0.00140285 0 -1.65127
3 8.81138 -0.000450134 -0.000112534 -0.319906 0 0.000157753
4 5.77839 0.000287056 0 -0.214337 0 0.000104432
5 2.23163 -0.000329018 -0.00036335 -0.105569 0 0
6 11.4725 0 0 -0.49806 -0.285707 0.547135
7 0.61522 -0.993091 -0.810699 2.34511 -0.11076 -0.44386
8 2.24752 0 0 0.101545 0.256935 -0.00235493
9 1.11936 0 0 0.100351 0.152181 -0.151588
10 3.71348 -0.10264 0.102191 1.44717 0.805255 0.453677
11 1.72615 0 0 0.00043557 0.152128 -1.5215
12 1.21114 0 0 -0.00303749 0.0173727 -0.770564
13 3.59919 -1.06012 0.0708885 1.51798 -0.0791176 0.00347708
14 1.66069 0 0 -0.0425705 0.0394149 -1.04703
15 1.167 0 0 -0.00883494 0.00165494 -0.482647
16 2.18852 0.501041 0.0576591 1.55893 0.123347 0.226068
17 1.29609 0 0 -0.203075 0.0749011 -0.697922
18 1.62202 0.000715256 -0.000472069 0.0360743 -0.0049109 -1.60563
19 1.22241 0 0 0.007259 -0.00270845 -0.703281
20 1.76707 1.27612 0.0366411 1.52736 0.172031 0.124017
21 1.55588 0 0 -0.299721 0.178509 -0.619377
22 1.24273 0 0 -0.000462307 -0.000382066 -1.36998
23 0.784523 0 0 0.0043054 0.00338725 -0.7269
24 -2.83583 -0.518291 -10.3275 -0.000932693 0 -2.0944
25 6.02794 0 0 1.00283 0.150997 0.74566
26 11.7344 0 0 0.00140267 0 0.694076
27 8.81167 0 0 2.0604 0 0
28 5.77884 0 0 1.38047 0 0
29 2.23249 0 0 0.679932 0 0
30 11.4725 0 0 2.04529 0.376139 -0.306429
31 0.615812 0.994372 -0.809166 -2.74992 0.371521 0.481775
32 2.24752 0 0 -0.0913849 -0.00666565 -0.225298
33 1.11935 0 0 -0.065963 0.197557 0.102885
34 3.71348 0.102639 0.10219 -1.55796 0.571139 -0.0724673
35 1.72615 0 0 -0.0103979 -0.0184 0.607515
36 1.21112 0 0 0.00331362 0.017322 0.786478
37 3.5992 1.06012 0.0708876 -1.58519 0.28709 -0.0423538
38 1.66069 0 0 0.00583328 0.073164 0.298474
39 1.16699 0 0 0.0397122 0.0124134 0.751671
40 2.18853 -0.50104 0.0576591 -1.57359 0.194888 -0.159461
41 1.29609 0 0 -0.0170079 -0.0436385 0.560533
42 1.62202 -0.000713348 -0.000473022 -0.00806907 -0.0311474 0.638739
43 1.22241 0 0 -0.00974984 0.00244509 0.993006
44 1.76707 -1.27612 0.0366402 -1.57222 0.314887 -0.190364
45 1.55588 0 0 0.0298597 0.0130837 0.863363
46 1.24273 0 0 0.000587228 0.000120342 0.477555
47 0.784532 0 0 -0.0100875 -0.00368625 0.217615
48 0 0 0 0 0 0
49 5.01599 -17.1898 -7.47275 0.00168095 -0.0014809 0
50 0 -1.70357 0.0050807 0 0 0
51 -0.0019598 3.96104 2.21118 0 0 0
52 0.641596 -0.666147 0.75166 0 0 0
53 0.786658 -3.45621 1.13628 0 0.198355 0
54 -0.706229 -4.69238 1.98618 3.14159 -0.0872663 3.14159
55 0.01333 1.02904 3.61174 0 0 0
56 0.0133295 -1.24399 2.23877 0 0 0
57 5.02288 -22.3889 -12.5945 0.00141382 -0.00120726 0.000136033
58 0.0129194 0.0367737 5.95713 0 0 0
time 23
0 7.96718 5.13272 -3.24532 0.000934124 0 -0.959925
1 6.02794 0 0 -0.689002 1.06306 -0.281339
2 11.7344 0 0 -0.00140278 0 -1.65111
3 8.81138 -0.000449181 -0.000112534 -0.319927 0 0.000157157
4 5.77839 0.000286102 0 -0.214351 0 0.000103968
5 2.23164 -0.000329971 -0.000364304 -0.105576 0 0
6 11.4725 0 0 -0.498094 -0.285734 0.547144
7 0.615219 -0.993092 -0.810699 2.34511 -0.11076 -0.44386
8 2.24752 0 0 0.101544 0.256935 -0.00235502
9 1.11936 0 0 0.100351 0.152181 -0.151587
10 3.71348 -0.102641 0.10219 1.44717 0.805255 0.453677
11 1.72615 0 0 0.000435645 0.152128 -1.5215
12 1.21114 0 0 -0.00303753 0.0173727 -0.770565
13 3.59919 -1.06012 0.0708885 1.51798 -0.0791177 0.00347698
14 1.66069 0 0 -0.0425705 0.0394149 -1.04703
15 1.167 0 0 -0.00883493 0.00165497 -0.482647
16 2.18852 0.50104 0.0576591 1.55893 0.123347 0.226068
17 1.29609 0 0 -0.203075 0.0749012 -0.697922
18 1.62202 0.000713348 -0.000471115 0.0360744 -0.00491085 -1.60563
19 1.22241 0 0 0.00725903 -0.00270853 -0.703281
20 1.76707 1.27612 0.0366402 1.52736 0.172031 0.124017
21 1.55588 0 0 -0.299721 0.178509 -0.619377
22 1.24273 0 0 -0.000462261 -0.000382028 -1.36998
23 0.784525 0 0 0.00430541 0.00338722 -0.7269
24 -2.83583 -0.518291 -10.3275 -0.000932693 0 -2.0944
25 6.02794 0 0 1.00283 0.150933 0.745642
26 11.7344 0 0 0.00140263 0 0.693889
27 8.81167 0 0 2.06039 0 0
28 5.77884 0 0 1.38046 0 0
29 2.23249 0 0 0.679929 0 0
30 11.4725 0 0 2.04532 0.376212 -0.306298
31 0.615812 0.994372 -0.809166 -2.74992 0.371521 0.481775
32 2.24752 0 0 -0.0913848 -0.00666569 -0.225298
33 1.11936 0 0 -0.065963 0.197556 0.102885
34 3.71349 0.102638 0.10219 -1.55796 0.571139 -0.0724674
35 1.72615 0 0 -0.0103979 -0.0184 0.607515
36 1.21112 0 0 0.00331366 0.017322 0.786478
37 3.5992 1.06012 0.0708876 -1.58519 0.28709 -0.0423539
38 1.66069 0 0 0.00583336 0.073164 0.298474
39 1.16699 0 0 0.0397122 0.0124134 0.751671
40 2.18853 -0.50104 0.0576591 -1.57359 0.194888 -0.159461
41 1.29609 0 0 -0.0170078 -0.0436384 0.560533
42 1.62202 -0.000713348 -0.000469208 -0.00806923 -0.0311475 0.638739
43 1.22241 0 0 -0.0097496 0.00244502 0.993006
44 1.76707 -1.27612 0.0366402 -1.57222 0.314887 -0.190364
45 1.55588 0 0 0.0298598 0.0130837 0.863363
46 1.24273 0 0 0.000587181 0.000120277 0.477555
47 0.784531 0 0 -0.0100872 -0.00368615 0.217615
48 0 0 0 0 0 0
49 5.0149 -17.191 -7.47276 0.00171226 -0.00146955 0.000104645
50 0 -1.70357 0.0050807 0 0 0
51 -0.0019598 3.96104 2.21118 0 0 0
52 0.641597 -0.666145 0.75166 0 0 0
53 0.786659 -3.45621 1.13628 0 0.198355 0
54 -0.706229 -4.69238 1.98618 -3.14159 -0.0872664 -3.14159
55 0.01333 1.02904 3.61174 0 0 0
56 0.01333 -1.24399 2.23877 0 0 0
57 5.02179 -22.39 -12.5947 0.00144513 -0.00119591 0.000147479
58 0.0129189 0.0367737 5.95713 0 0 0
time 24
0 7.96718 5.13272 -3.24532 0.000934124 0 -0.959925
1 6.02794 0 0 -0.689581 1.06279 -0.28198
2 11.7344 0 0 -0.00140282 0 -1.65052
3 8.81138 -0.000450134 -0.00011158 -0.320145 0 0.000157513
4 5.77839 0.000286102 0 -0.214497 0 0.000104185
5 2.23163 -0.000329971 -0.000364304 -0.105648 0 0
6 11.4725 0 0 -0.498196 -0.285716 0.54693
7 0.615218 -0.993091 -0.810699 2.34511 -0.11076 -0.44386
8 2.24752 0 0 0.101544 0.256935 -0.00235497
9 1.11936 0 0 0.100351 0.152181 -0.151588
10 3.71348 -0.102641 0.102192 1.44717 0.805255 0.453677
11 1.72615 0 0 0.0004356 0.152128 -1.5215
12 1.21114 0 0 -0.0030375 0.0173727 -0.770564
13 3.59919 -1.06012 0.0708885 1.51798 -0.0791177 0.00347699
14 1.66069 0 0 -0.0425705 0.0394149 -1.04703
15 1.167 0 0 -0.00883494 0.00165497 -0.482647
16 2.18852 0.50104 0.0576582 1.55893 0.123347 0.226068
17 1.29609 0 0 -0.203074 0.0749011 -0.697922
18 1.62202 0.000713348 -0.000472069 0.0360743 -0.00491083 -1.60563
19 1.22241 0 0 0.00725903 -0.00270857 -0.703282
20 1.76707 1.27612 0.0366411 1.52736 0.172031 0.124017
21 1.55587 0 0 -0.299721 0.178509 -0.619377
22 1.24274 0 0 -0.000462326 -0.000382043 -1.36998
23 0.784523 0 0 0.00430536 0.00338727 -0.7269
24 -2.83583 -0.518291 -10.3275 -0.000932693 0 -2.0944
25 6.02794 0 0 1.00284 0.150563 0.7457
26 11.7344 0 0 0.00140264 0 0.692986
27 8.81167 0 0 2.0602 0 0
28 5.77884 0 0 1.38034 0 0
29 2.23249 0 0 0.679867 0 0
30 11.4725 0 0 2.04526 0.376387 -0.305792
31 0.615812 0.994372 -0.809165 -2.74992 0.371521 0.481775
32 2.24752 0 0 -0.0913849 -0.00666566 -0.225298
33 1.11936 0 0 -0.065963 0.197556 0.102885
34 3.71349 0.102639 0.102191 -1.55796 0.571139 -0.0724675
35 1.72615 0 0 -0.0103979 -0.0184002 0.607515
36 1.21112 0 0 0.00331361 0.0173222 0.786478
37 3.5992 1.06012 0.0708885 -1.58519 0.28709 -0.0423539
38 1.66069 0 0 0.00583336 0.0731641 0.298474
39 1.16699 0 0 0.0397122 0.0124133 0.751671
40 2.18853 -0.501039 0.0576591 -1.57359 0.194888 -0.159461
41 1.29609 0 0 -0.0170079 -0.0436384 0.560533
42 1.62202 -0.000713348 -0.000469208 -0.00806925 -0.0311474 0.638739
43 1.22241 0 0 -0.00974952 0.00244505 0.993006
44 1.76707 -1.27612 0.0366411 -1.57222 0.314887 -0.190364
45 1.55588 0 0 0.0298599 0.0130837 0.863363
46 1.24273 0 0 0.000587339 0.000120422 0.477555
47 0.784532 0 0 -0.0100874 -0.00368624 0.217615
48 0 0 0 0 0 0
49 5.0129 -17.1959 -7.47277 0.00170896 -0.00135182 0
50 0 -1.70357 0.0050807 0 0 0
51 -0.0019598 3.96104 2.21118 0 0 0
52 0.641596 -0.666151 0.75166 0 0 0
53 0.786658 -3.45621 1.13628 0 0.198355 0
54 -0.70623 -4.69238 1.98618 -3.14159 -0.0872664 3.14159
55 0.01333 1.02904 3.61174 0 0 0
56 0.01333 -1.24399 2.23877 0 0 0
57 5.01915 -22.3949 -12.5947 0.00144184 -0.00107817 0.000140217
58 0.0129194 0.0367699 5.95713 0 0 0
time 25
0 7.96718 5.13272 -3.24532 0.000934124 0 -0.959925
1 6.02794 0 0 -0.690528 1.06237 -0.282976
2 11.7344 0 0 -0.00140286 0 -1.64954
3 8.81138 -0.000450134 -0.00011158 -0.320518 0 0.000157462
4 5.77839 0.000286102 0 -0.214747 0 0.00010409
5 2.23163 -0.000329971 -0.000362396 -0.105771 0 0
6 11.4725 0 0 -0.498328 -0.285652 0.546499
7 0.615219 -0.993092 -0.810699 2.34511 -0.11076 -0.44386
8 2.24752 0 0 0.101545 0.256935 -0.00235496
9 1.11936 0 0 0.100351 0.152181 -0.151587
10 3.71348 -0.102641 0.102191 1.44717 0.805255 0.453677
11 1.72615 0 0 0.000435607 0.152128 -1.5215
12 1.21114 0 0 -0.00303761 0.0173728 -0.770565
13 3.59919 -1.06012 0.0708885 1.51798 -0.0791178 0.00347705
14 1.66069 0 0 -0.0425705 0.0394149 -1.04703
15 1.167 0 0 -0.00883494 0.00165494 -0.482647
16 2.18853 0.50104 0.0576601 1.55893 0.123347 0.226068
17 1.29609 0 0 -0.203075 0.0749011 -0.697922
18 1.62202 0.000713348 -0.000471115 0.0360743 -0.00491089 -1.60563
19 1.22241 0 0 0.00725893 -0.00270851 -0.703282
20 1.76707 1.27612 0.0366411 1.52736 0.172031 0.124018
21 1.55588 0 0 -0.299721 0.178509 -0.619377
22 1.24273 0 0 -0.000462391 -0.000382058 -1.36998
23 0.784523 0 0 0.00430536 0.00338727 -0.7269
24 -2.83583 -0.518291 -10.3275 -0.000932693 0 -2.0944
25 6.02794 0 0 1.00288 0.149643 0.746014
26 11.7344 0 0 0.00140263 0 0.690791
27 8.81167 0 0 2.05979 0 0
28 5.77884 0 0 1.38006 0 0
29 2.23249 0 0 0.67973 0 0
30 11.4725 0 0 2.04515 0.376634 -0.304602
31 0.615812 0.994372 -0.809166 -2.74992 0.371521 0.481775
32 2.24752 0 0 -0.0913848 -0.00666569 -0.225298
33 1.11936 0 0 -0.065963 0.197556 0.102885
34 3.71349 0.102637 0.102191 -1.55796 0.571139 -0.0724673
35 1.72615 0 0 -0.0103979 -0.0184002 0.607515
36 1.21112 0 0 0.00331367 0.0173221 0.786478
37 3.5992 1.06011 0.0708876 -1.58519 0.28709 -0.0423539
38 1.66069 0 0 0.00583335 0.0731641 0.298474
39 1.16699 0 0 0.0397122 0.0124133 0.751671
40 2.18853 -0.501043 0.0576591 -1.57359 0.194888 -0.159462
41 1.29609 0 0 -0.0170081 -0.0436385 0.560533
42 1.62202 -0.000715256 -0.0004673 -0.00806919 -0.0311476 0.638739
43 1.22241 0 0 -0.00974955 0.002445 0.993006
44 1.76707 -1.27612 0.0366402 -1.57222 0.314887 -0.190364
45 1.55588 0 0 0.0298598 0.0130838 0.863363
46 1.24273 0 0 0.000587184 0.000120414 0.477555
47 0.784532 0 0 -0.0100873 -0.00368618 0.217615
48 0 0 0 0 0 0
49 5.01032 -17.2041 -7.47278 0.00165856 -0.00116096 0
50 0 -1.70357 0.0050807 0 0 0
51 -0.00195932 3.96104 2.21118 0 0 0
52 0.641596 -0.666149 0.75166 0 0 0
53 0.786659 -3.45621 1.13628 0 0.198355 0
54 -0.706229 -4.69238 1.98618 3.14159 -0.0872664 -3.14159
55 0.0133305 1.02904 3.61174 0 0 0
56 0.01333 -1.24399 2.23877 0 0 0
57 5.01548 -22.4033 -12.5944 0.00139144 -0.000887313 0.000119536
58 0.0129189 0.0367718 5.95713 0 0 0
time 26
0 7.96718 5.13272 -3.24532 0.000934124 0 -0.959925
1 6.02794 0 0 -0.691792 1.06182 -0.284256
2 11.7344 0 0 -0.00140281 0 -1.64823
3 8.81138 -0.000450134 -0.00011158 -0.321003 0 0.000157148
4 5.77839 0.000287056 0 -0.215072 0 0.000103917
5 2.23163 -0.000328064 -0.00036335 -0.105931 0 0
6 11.4725 0 0 -0.498451 -0.285539 0.545858
7 0.615219 -0.993091 -0.810699 2.34511 -0.11076 -0.44386
8 2.24752 0 0 0.101545 0.256935 -0.00235499
9 1.11936 0 0 0.100351 0.152181 -0.151588
10 3.71348 -0.102641 0.102191 1.44717 0.805255 0.453677
11 1.72615 0 0 0.00043563 0.152128 -1.5215
12 1.21113 0 0 -0.00303756 0.0173727 -0.770565
13 3.59919 -1.06012 0.0708885 1.51798 -0.0791177 0.0034771
14 1.66069 0 0 -0.0425705 0.0394149 -1.04703
15 1.167 0 0 -0.00883493 0.00165497 -0.482647
16 2.18852 0.50104 0.0576591 1.55893 0.123348 0.226068
17 1.29609 0 0 -0.203075 0.0749011 -0.697923
18 1.62202 0.000715256 -0.000471115 0.0360744 -0.00491085 -1.60563
19 1.22241 0 0 0.00725897 -0.00270846 -0.703281
20 1.76707 1.27612 0.0366411 1.52736 0.172031 0.124018
21 1.55588 0 0 -0.299721 0.178509 -0.619377
22 1.24273 0 0 -0.000462206 -0.000381907 -1.36998
23 0.784525 0 0 0.0043054 0.00338725 -0.7269
24 -2.83583 -0.518291 -10.3275 -0.000932693 0 -2.0944
25 6.02794 0 0 1.00292 0.148675 0.746282
26 11.7344 0 0 0.00140267 0 0.688512
27 8.81167 0 0 2.05931 0 0
28 5.77884 0 0 1.37974 0 0
29 2.23249 0 0 0.679572 0 0
30 11.4725 0 0 2.04499 0.376922 -0.303328
31 0.615814 0.994373 -0.809165 -2.74992 0.371521 0.481775
32 2.24752 0 0 -0.0913848 -0.00666564 -0.225298
33 1.11936 0 0 -0.065963 0.197556 0.102886
34 3.71349 0.10264 0.102192 -1.55796 0.571139 -0.0724673
35 1.72615 0 0 -0.0103976 -0.0184001 0.607515
36 1.21112 0 0 0.0033136 0.0173221 0.786478
37 3.5992 1.06011 0.0708885 -1.58519 0.28709 -0.0423539
38 1.66069 0 0 0.00583321 0.073164 0.298474
39 1.16699 0 0 0.0397123 0.0124132 0.751671
40 2.18853 -0.501041 0.0576591 -1.57359 0.194888 -0.159461
41 1.29609 0 0 -0.0170079 -0.0436383 0.560533
42 1.62202 -0.000713348 -0.0004673 -0.00806932 -0.0311474 0.638739
43 1.22241 0 0 -0.00974941 0.002445 0.993006
44 1.76707 -1.27612 0.0366411 -1.57222 0.314887 -0.190364
45 1.55588 0 0 0.0298598 0.0130838 0.863363
46 1.24273 0 0 0.000587374 0.000120314 0.477555
47 0.784532 0 0 -0.0100875 -0.0036861 0.217615
48 0 0 0 0 0 0
49 5.00747 -17.2151 -7.47279 0.00154872 -0.000930228 0
50 0 -1.70357 0.0050807 0 0 0
51 -0.0019598 3.96104 2.21118 0 0 0
52 0.641596 -0.666145 0.75166 0 0 0
53 0.786659 -3.45621 1.13628 0 0.198355 0
54 -0.70623 -4.69238 1.98618 -3.14159 -0.0872664 3.14159
55 0.01333 1.02904 3.61174 0 0 0
56 0.01333 -1.24399 2.23877 0 0 0
57 5.01131 -22.4149 -12.5939 0.00128161 -0.000656579 0
58 0.0129199 0.0367737 5.95713 0 0 0
time 27
0 7.96718 5.13272 -3.24532 0.000934124 0 -0.959925
1 6.02794 0 0 -0.693324 1.06116 -0.285754
2 11.7344 0 0 -0.00140289 0 -1.64664
3 8.81138 -0.000450134 -0.000113487 -0.321557 0 0.00015708
4 5.77839 0.000286102 0 -0.215443 0 0.000103847
5 2.23163 -0.000329018 -0.000364304 -0.106114 0 0
6 11.4725 0 0 -0.498525 -0.285374 0.545015
7 0.61522 -0.993092 -0.810699 2.34511 -0.11076 -0.44386
8 2.24752 0 0 0.101544 0.256935 -0.00235492
9 1.11936 0 0 0.100351 0.152181 -0.151588
10 3.71348 -0.102641 0.102192 1.44717 0.805255 0.453677
11 1.72615 0 0 0.000435607 0.152128 -1.5215
12 1.21114 0 0 -0.00303751 0.0173726 -0.770564
13 3.59919 -1.06012 0.0708885 1.51798 -0.0791178 0.0034771
14 1.66069 0 0 -0.0425705 0.0394149 -1.04703
15 1.167 0 0 -0.00883492 0.00165495 -0.482647
16 2.18853 0.501039 0.0576601 1.55893 0.123347 0.226068
17 1.29609 0 0 -0.203075 0.0749011 -0.697923
18 1.62202 0.000713348 -0.000470161 0.0360743 -0.00491087 -1.60563
19 1.22241 0 0 0.00725901 -0.00270851 -0.703281
20 1.76707 1.27612 0.0366411 1.52736 0.172031 0.124018
21 1.55588 0 0 -0.299721 0.178509 -0.619377
22 1.24274 0 0 -0.00046234 -0.000381978 -1.36998
23 0.784523 0 0 0.00430534 0.00338723 -0.7269
24 -2.83583 -0.518291 -10.3275 -0.000932693 0 -2.0944
25 6.02794 0 0 1.00298 0.14744 0.746667
26 11.7344 0 0 0.00140264 0 0.685628
27 8.81167 0 0 2.05873 0 0
28 5.77884 0 0 1.37935 0 0
29 2.23249 0 0 0.679381 0 0
30 11.4725 0 0 2.04482 0.377222 -0.301688
31 0.615812 0.994373 -0.809166 -2.74992 0.371521 0.481775
32 2.24752 0 0 -0.0913848 -0.0066657 -0.225298
33 1.11935 0 0 -0.065963 0.197556 0.102885
34 3.71349 0.102639 0.102191 -1.55796 0.571139 -0.0724674
35 1.72615 0 0 -0.0103977 -0.0184001 0.607515
36 1.21112 0 0 0.00331357 0.0173221 0.786478
37 3.5992 1.06012 0.0708876 -1.58519 0.28709 -0.042354
38 1.66069 0 0 0.00583324 0.0731641 0.298474
39 1.16699 0 0 0.0397123 0.0124131 0.751671
40 2.18853 -0.50104 0.0576582 -1.57359 0.194888 -0.159462
41 1.29609 0 0 -0.0170079 -0.0436384 0.560533
42 1.62201 -0.000713348 -0.000469208 -0.00806927 -0.0311476 0.638739
43 1.22241 0 0 -0.00974928 0.00244499 0.993006
44 1.76707 -1.27612 0.0366402 -1.57222 0.314887 -0.190364
45 1.55587 0 0 0.0298596 0.0130838 0.863363
46 1.24273 0 0 0.00058744 0.000120459 0.477555
47 0.784532 0 0 -0.0100874 -0.00368622 0.217615
48 0 0 0 0 0 0
49 5.00469 -17.2285 -7.47281 0.00136707 -0.000692883 0
50 0 -1.70357 0.0050807 0 0 0
51 -0.0019598 3.96104 2.21118 0 0 0
52 0.641596 -0.666149 0.751661 0 0 0
53 0.786658 -3.45621 1.13628 0 0.198355 0
54 -0.70623 -4.69238 1.98618 -3.14159 -0.0872664 3.14159
55 0.0133305 1.02904 3.61174 0 0 0
56 0.01333 -1.244 2.23877 0 0 0
57 5.00714 -22.4293 -12.5929 0.00109997 -0.000419225 0
58 0.0129194 0.0367718 5.95713 0 0 0
time 28
0 7.96718 5.13272 -3.24532 0.000934124 0 -0.959925
1 6.02794 0 0 -0.695072 1.06041 -0.287399
2 11.7344 0 0 -0.00140299 0 -1.64483
3 8.81138 -0.000450134 -0.000112534 -0.322138 0 0.000157436
4 5.77839 0.000285149 0 -0.215833 0 0.000104019
5 2.23163 -0.000329971 -0.000364304 -0.106306 0 0
6 11.4725 0 0 -0.498513 -0.285155 0.543972
7 0.615219 -0.993092 -0.810699 2.34511 -0.11076 -0.44386
8 2.24752 0 0 0.101544 0.256935 -0.002355
9 1.11936 0 0 0.100351 0.152181 -0.151588
10 3.71348 -0.102642 0.102191 1.44717 0.805255 0.453677
11 1.72615 0 0 0.000435698 0.152128 -1.5215
12 1.21114 0 0 -0.00303757 0.0173727 -0.770565
13 3.59919 -1.06012 0.0708876 1.51798 -0.0791176 0.00347709
14 1.66069 0 0 -0.0425705 0.0394149 -1.04703
15 1.167 0 0 -0.00883492 0.00165496 -0.482647
16 2.18852 0.501039 0.0576582 1.55893 0.123348 0.226068
17 1.29609 0 0 -0.203075 0.0749011 -0.697922
18 1.62202 0.000711441 -0.000472069 0.0360743 -0.00491092 -1.60563
19 1.22241 0 0 0.007259 -0.00270854 -0.703281
20 1.76707 1.27612 0.0366402 1.52736 0.172032 0.124017
21 1.55588 0 0 -0.299721 0.178509 -0.619377
22 1.24274 0 0 -0.000462256 -0.000381986 -1.36998
23 0.784523 0 0 0.00430535 0.00338729 -0.7269
24 -2.83583 -0.518291 -10.3275 -0.000932693 0 -2.0944
25 6.02794 0 0 1.00305 0.145955 0.747182
26 11.7344 0 0 0.00140277 0 0.682182
27 8.81167 0 0 2.05807 0 0
28 5.77884 0 0 1.37891 0 0
29 2.23249 0 0 0.679164 0 0
30 11.4725 0 0 2.04464 0.377503 -0.299691
31 0.615812 0.994371 -0.809165 -2.74992 0.371521 0.481775
32 2.24752 0 0 -0.0913848 -0.00666554 -0.225298
33 1.11936 0 0 -0.065963 0.197556 0.102885
34 3.71349 0.102639 0.102191 -1.55796 0.571139 -0.0724673
35 1.72615 0 0 -0.010398 -0.0184 0.607515
36 1.21112 0 0 0.00331362 0.0173222 0.786478
37 3.5992 1.06012 0.0708885 -1.58519 0.28709 -0.0423537
38 1.66069 0 0 0.00583337 0.0731642 0.298474
39 1.16699 0 0 0.0397122 0.0124134 0.751671
40 2.18853 -0.501041 0.0576591 -1.57359 0.194888 -0.159461
41 1.29609 0 0 -0.0170078 -0.0436384 0.560533
42 1.62202 -0.000713348 -0.000471115 -0.0080692 -0.0311474 0.638739
43 1.22241 0 0 -0.00974968 0.00244488 0.993006
44 1.76707 -1.27612 0.0366402 -1.57222 0.314887 -0.190364
45 1.55587 0 0 0.0298599 0.0130838 0.863363
46 1.24273 0 0 0.000587257 0.000120335 0.477555
47 0.784532 0 0 -0.0100873 -0.00368618 0.217615
48 0 0 0 0 0 0
49 5.0023 -17.2441 -7.47283 0.00110117 -0.000482177 0
50 0 -1.70357 0.0050807 0 0 0
51 -0.00195932 3.96104 2.21118 0 0 0
52 0.641596 -0.666145 0.75166 0 0 0
53 0.786659 -3.4562 1.13628 0 0.198355 0
54 -0.70623 -4.69238 1.98618 -3.14159 -0.0872664 3.14159
55 0.0133305 1.02904 3.61174 0 0 0
56 0.0133305 -1.24399 2.23877 0 0 0
57 5.00352 -22.4462 -12.5916 0.000834081 -0.000208508 0
58 0.0129194 0.0367718 5.95713 0 0 0
time 29
0 7.96718 5.13272 -3.24532 0.000934124 0 -0.959925
1 6.02794 0 0 -0.696989 1.05959 -0.289126
2 11.7344 0 0 -0.00140285 0 -1.64284
3 8.81139 -0.000450134 -0.00011158 -0.322701 0 0.000157202
4 5.77839 0.000286102 0 -0.21621 0 0.000104005
5 2.23164 -0.000330925 -0.000364304 -0.106491 0 0
6 11.4725 0 0 -0.498375 -0.28488 0.542739
7 0.615219 -0.993092 -0.810699 2.34511 -0.11076 -0.44386
8 2.24752 0 0 0.101544 0.256935 -0.00235482
9 1.11936 0 0 0.100351 0.152181 -0.151588
10 3.71348 -0.102641 0.102192 1.44717 0.805255 0.453677
11 1.72615 0 0 0.00043554 0.152128 -1.5215
12 1.21114 0 0 -0.00303756 0.0173726 -0.770565
13 3.59919 -1.06012 0.0708885 1.51798 -0.0791178 0.00347696
14 1.66069 0 0 -0.0425706 0.0394149 -1.04703
15 1.167 0 0 -0.00883494 0.00165499 -0.482647
16 2.18853 0.50104 0.0576591 1.55893 0.123347 0.226068
17 1.29609 0 0 -0.203075 0.0749011 -0.697922
18 1.62202 0.000713348 -0.000471115 0.0360743 -0.00491079 -1.60563
19 1.22241 0 0 0.00725898 -0.00270852 -0.703282
20 1.76707 1.27612 0.0366421 1.52736 0.172031 0.124018
21 1.55588 0 0 -0.299721 0.178509 -0.619377
22 1.24274 0 0 -0.000462275 -0.000381963 -1.36998
23 0.784523 0 0 0.00430537 0.00338724 -0.7269
24 -2.83583 -0.518291 -10.3275 -0.000932693 0 -2.0944
25 6.02794 0 0 1.00314 0.144235 0.747838
26 11.7344 0 0 0.00140267 0 0.678218
27 8.81167 0 0 2.05737 0 0
28 5.77884 0 0 1.37844 0 0
29 2.23249 0 0 0.678932 0 0
30 11.4725 0 0 2.04448 0.377736 -0.297343
31 0.615814 0.994372 -0.809166 -2.74992 0.371521 0.481775
32 2.24752 0 0 -0.0913849 -0.00666559 -0.225298
33 1.11936 0 0 -0.065963 0.197557 0.102885
34 3.71349 0.102641 0.102191 -1.55796 0.571139 -0.0724673
35 1.72615 0 0 -0.0103976 -0.0184001 0.607515
36 1.21112 0 0 0.00331362 0.017322 0.786478
37 3.5992 1.06012 0.0708876 -1.58519 0.28709 -0.0423539
38 1.66069 0 0 0.00583317 0.0731641 0.298474
39 1.16699 0 0 0.0397123 0.0124131 0.751671
40 2.18853 -0.50104 0.0576582 -1.57359 0.194888 -0.159461
41 1.29609 0 0 -0.017008 -0.0436384 0.560533
42 1.62202 -0.000715256 -0.0004673 -0.00806934 -0.0311475 0.638739
43 1.22241 0 0 -0.00974932 0.00244491 0.993006
44 1.76707 -1.27612 0.0366402 -1.57222 0.314887 -0.190364
45 1.55587 0 0 0.0298599 0.0130838 0.863363
46 1.24273 0 0 0.000587343 0.000120437 0.477555
47 0.784532 0 0 -0.0100874 -0.0036861 0.217615
48 0 0 0 0 0 0
49 5.00063 -17.2613 -7.47287 0.000738626 -0.000331365 0
50 0 -1.70357 0.0050807 0 0 0
51 -0.0019598 3.96104 2.21118 0 0 0
52 0.641596 -0.666149 0.75166 0 0 0
53 0.786659 -3.45621 1.13628 0 0.198355 0
54 -0.70623 -4.69238 1.98618 3.14159 -0.0872664 -3.14159
55 0.0133295 1.02904 3.61174 0 0 0
56 0.0133295 -1.24399 2.23877 0 0 0
57 5.00097 -22.4652 -12.5897 0.000471545 0 0
58 0.0129199 0.0367718 5.95713 0 0 0
time 30
0 7.96718 5.13272 -3.24532 0.000934124 0 -0.959925
1 6.02794 0 0 -0.699025 1.05874 -0.290865
2 11.7344 0 0 -0.00140274 0 -1.64072
3 8.81138 -0.000449181 -0.000113487 -0.323205 0 0.000157311
4 5.77839 0.000285149 0 -0.216547 0 0.000103974
5 2.23163 -0.000329018 -0.000364304 -0.106658 0 0
6 11.4725 0 0 -0.498073 -0.284547 0.541322
7 0.615219 -0.993092 -0.8107 2.34511 -0.11076 -0.44386
8 2.24752 0 0 0.101545 0.256935 -0.00235492
9 1.11936 0 0 0.100351 0.152181 -0.151588
10 3.71348 -0.102641 0.10219 1.44717 0.805255 0.453677
11 1.72615 0 0 0.000435653 0.152128 -1.5215
12 1.21114 0 0 -0.0030375 0.0173727 -0.770564
13 3.59919 -1.06012 0.0708876 1.51798 -0.0791176 0.003477
14 1.66069 0 0 -0.0425705 0.0394149 -1.04703
15 1.167 0 0 -0.00883494 0.00165494 -0.482647
16 2.18853 0.50104 0.0576582 1.55893 0.123347 0.226068
17 1.29609 0 0 -0.203075 0.0749011 -0.697922
18 1.62202 0.000711441 -0.000471115 0.0360742 -0.00491092 -1.60563
19 1.22241 0 0 0.00725898 -0.00270849 -0.703281
20 1.76707 1.27612 0.0366402 1.52736 0.172031 0.124018
21 1.55588 0 0 -0.299721 0.178509 -0.619377
22 1.24274 0 0 -0.000462317 -0.000381959 -1.36998
23 0.784525 0 0 0.00430536 0.00338743 -0.7269
24 -2.83583 -0.518291 -10.3275 -0.000932693 0 -2.0944
25 6.02794 0 0 1.00325 0.142299 0.748646
26 11.7344 0 0 0.00140266 0 0.67378
27 8.81167 0 0 2.05665 0 0
28 5.77884 0 0 1.37795 0 0
29 2.23249 0 0 0.678693 0 0
30 11.4725 0 0 2.04437 0.377889 -0.294651
31 0.615812 0.994374 -0.809166 -2.74992 0.371521 0.481775
32 2.24752 0 0 -0.0913848 -0.00666569 -0.225298
33 1.11936 0 0 -0.0659631 0.197557 0.102886
34 3.71349 0.102641 0.10219 -1.55796 0.571139 -0.0724673
35 1.72615 0 0 -0.0103978 -0.0184003 0.607515
36 1.21112 0 0 0.00331376 0.0173223 0.786478
37 3.5992 1.06012 0.0708876 -1.58519 0.28709 -0.0423539
38 1.66069 0 0 0.00583335 0.073164 0.298474
39 1.16699 0 0 0.0397123 0.0124133 0.751671
40 2.18853 -0.50104 0.0576591 -1.57359 0.194888 -0.159461
41 1.29609 0 0 -0.0170079 -0.0436384 0.560533
42 1.62202 -0.000715256 -0.000469208 -0.00806923 -0.0311475 0.638739
43 1.22241 0 0 -0.00974955 0.00244499 0.993006
44 1.76707 -1.27612 0.0366402 -1.57222 0.314887 -0.190364
45 1.55588 0 0 0.0298598 0.0130839 0.863363
46 1.24273 0 0 0.00058726 0.000120472 0.477555
47 0.784531 0 0 -0.0100873 -0.00368621 0.217615
48 0 0 0 0 0 0
49 5 -17.2798 -7.47292 0.000267079 -0.000273704 0
50 0 -1.70357 0.0050807 0 0 0
51 -0.00196028 3.96104 2.21118 0 0 0
52 0.641596 -0.666147 0.75166 0 0 0
53 0.786658 -3.45621 1.13628 0 0.198355 0
54 -0.70623 -4.69238 1.98618 -3.14159 -0.0872663 3.14159
55 0.0133295 1.02904 3.61174 0 0 0
56 0.0133295 -1.24399 2.23877 0 0 0
57 5 -22.4862 -12.5873 0 0 0
58 0.0129194 0.0367718 5.95712 0 0 0
end
