//Sequence File generated by the Wall Worm SMD Exporter PRO 1.99
//www.wallworm.com
version 1
nodes
0 "b_l_clav" -1
1 "b_l_upperarm" 0
2 "b_l_forearm" 1
3 "b_l_twist3" 2
4 "b_l_twist2" 2
5 "b_l_twist1" 2
6 "b_l_hand" 2
7 "b_l_thumb001" 6
8 "b_l_thumb002" 7
9 "b_l_thumb003" 8
10 "b_l_middle001" 6
11 "b_l_middle002" 10
12 "b_l_middle003" 11
13 "b_l_index001" 6
14 "b_l_index002" 13
15 "b_l_index003" 14
16 "b_l_hand_ringsqueezer" 6
17 "b_l_ring001" 16
18 "b_l_ring002" 17
19 "b_l_ring003" 18
20 "b_l_hand_pinkysqueezer" 6
21 "b_l_pinky001" 20
22 "b_l_pinky002" 21
23 "b_l_pinky003" 22
24 "b_r_clav" -1
25 "b_r_upperarm" 24
26 "b_r_forearm" 25
27 "b_r_twist3" 26
28 "b_r_twist2" 26
29 "b_r_twist1" 26
30 "b_r_hand" 26
31 "b_r_thumb001" 30
32 "b_r_thumb002" 31
33 "b_r_thumb003" 32
34 "b_r_middle001" 30
35 "b_r_middle002" 34
36 "b_r_middle003" 35
37 "b_r_index001" 30
38 "b_r_index002" 37
39 "b_r_index003" 38
40 "b_r_hand_ringsqueezer" 30
41 "b_r_ring001" 40
42 "b_r_ring002" 41
43 "b_r_ring003" 42
44 "b_r_hand_pinkysqueezer" 30
45 "b_r_pinky001" 44
46 "b_r_pinky002" 45
47 "b_r_pinky003" 46
48 "b_zero" -1
49 "d_boolet004" -1
50 "d_boolet1" -1
51 "d_boolet3" -1
52 "d_boolet_case" -1
53 "d_walk" -1
54 "d_gun" 53
55 "d_cover" 54
56 "d_carry" 54
57 "d_bolt" 54
58 "d_trig" 54
59 "d_safe" 54
60 "d_lever" 54
61 "d_ham" 54
end
skeleton
time 0
0 4.40254 -0.765094 -3.0277 -0.827034 0.693142 -1.04017
1 6.02794 0 0 0.212735 0.353727 -0.529408
2 11.7344 0 0 -0.0014028 0 -1.19955
3 8.81138 -0.000448227 -0.00011158 -2.10616 0 0.000156956
4 5.77839 0.00028801 0 -1.41113 0 0
5 2.23163 -0.000328064 -0.000363827 -0.695034 0 0
6 11.4725 0 0 -2.08774 0.209252 0.256119
7 0.61522 -0.993093 -0.8107 3.13843 0.250791 -0.497809
8 2.24752 0 0 0.087646 0.074742 0.097919
9 1.11936 0 0 0.10922 0.023622 0.177412
10 3.71348 -0.102643 0.102191 1.46942 0.773555 -0.173756
11 1.72615 0 0 0.0282561 -0.00392495 -1.54455
12 1.21114 0 0 -0.000154093 0.000329125 0.33414
13 3.59919 -1.06012 0.0708876 1.5195 0.284619 -0.269155
14 1.66068 0 0 -0.111391 0.075824 -1.56569
15 1.167 0 0 -0.00198901 -0.00149686 0.182279
16 2.18852 0.501039 0.0576582 1.53255 0.232941 0.064917
17 1.29609 0 0 0.015082 -0.0443411 -0.516749
18 1.62202 0.000713348 -0.000469208 0.0384949 -0.011206 -1.72079
19 1.22241 0 0 0.00168808 -0.023678 0.388832
20 1.76707 1.27612 0.0366411 1.49342 0.346301 0.063775
21 1.55588 0 0 -0.024872 -0.0645979 -0.831289
22 1.24273 0 0 -0.000479028 0.000361046 -1.33483
23 0.784525 0 0 0.0161961 -0.00188104 0.403201
24 -2.4735 7.79394 -0.077753 -0.275371 0.252825 -2.41516
25 6.02794 0 0 0.644464 0.537605 0.136355
26 11.7344 0 0 0.00140276 0 2.02091
27 8.81167 0 0 0.664862 0 0
28 5.77884 0 0 0.445457 0 0
29 2.23249 0 0 0.219404 0 0
30 11.4725 0 0 0.934427 0.139169 -1.06562
31 0.615812 0.994372 -0.809165 2.77788 0.472287 0.10795
32 2.24752 0 0 -0.10444 -0.036817 0.189869
33 1.11936 0 0 0.040943 0.17253 0.992367
34 3.71348 0.102639 0.102191 -1.64963 0.584187 -0.369879
35 1.72615 0 0 -0.0181545 0.00311407 1.72396
36 1.21112 0 0 0.00667247 0.00800492 0.706752
37 3.5992 1.06012 0.0708876 -1.58384 -0.0108442 0.00177542
38 1.66069 0 0 0.0185095 0.075637 0.463161
39 1.16699 0 0 0.0410844 0.016021 0.836655
40 2.18853 -0.50104 0.0576591 -1.57144 -0.0521631 -0.199003
41 1.29609 0 0 0.0937334 0.100102 0.813136
42 1.62201 -0.000712395 -0.000470638 -0.0212591 -0.00856307 1.65517
43 1.2224 0 0 0 0.006533 0.655771
44 1.76707 -1.27612 0.0366402 -1.41856 -0.0419571 -0.220998
45 1.55587 0 0 -0.0176207 0.0420968 0.790849
46 1.24273 0 0 0.000478929 0.000361029 1.35859
47 0.784532 0 0 -0.00138837 0.00235195 0.814052
48 0 0 0 0 0 0
49 -4.77374 3.48664 -7.73453 2.70074 -1.55707 -2.69072
50 -4.4567 -19.5369 -3.77284 -3.14159 -0.785398 3.14159
51 -4.4641 3.0151 -6.74232 0 -1.5708 0
52 -4.4567 -20.1145 -2.89952 0 -1.5708 0
53 -4.99 -8.26755 -4.56645 0 0 0
54 0.533295 -3.57396 -0.116835 0 0 0
55 -0.439463 -5.01739 0.910445 0 0 0
56 0 -2.26997 1.22871 0.02068 0 0
57 0 -5.92124 1.78377 0 0 0
58 0 -2.12202 -0.0619302 0 0 0
59 -0.575001 -1.69351 1.13699 0 0 0
60 0 -4.97524 -0.469842 0 0 0
61 0.694227 -1.89081 0.409987 -0.785398 0 0
time 1
0 4.40254 -0.765094 -3.0277 -0.827034 0.693142 -1.04017
1 6.02794 0 0 0.219652 0.355581 -0.51661
2 11.7344 0 0 -0.00140281 0 -1.23012
3 8.81138 -0.000450134 -0.000112057 -2.10973 0 0.000157276
4 5.77839 0.000286102 0 -1.41352 0 0
5 2.23163 -0.000329971 -0.000364304 -0.69621 0 0
6 11.4725 0 0 -2.08805 0.202096 0.273595
7 0.615219 -0.993093 -0.810699 3.13843 0.250791 -0.497809
8 2.24752 0 0 0.087646 0.074742 0.0979189
9 1.11935 0 0 0.10922 0.023622 0.177412
10 3.71348 -0.10264 0.102191 1.46942 0.773555 -0.173756
11 1.72615 0 0 0.0282561 -0.00392519 -1.54455
12 1.21113 0 0 -0.000154118 0.000329068 0.33414
13 3.59919 -1.06012 0.0708885 1.5195 0.284619 -0.269155
14 1.66069 0 0 -0.111391 0.0758241 -1.56569
15 1.167 0 0 -0.00198898 -0.00149716 0.182279
16 2.18853 0.50104 0.0576591 1.53255 0.232941 0.064917
17 1.29609 0 0 0.015082 -0.0443409 -0.516749
18 1.62202 0.000715256 -0.000471115 0.0384952 -0.0112061 -1.72079
19 1.22241 0 0 0.00168796 -0.023678 0.388832
20 1.76707 1.27612 0.0366411 1.49342 0.346301 0.063775
21 1.55588 0 0 -0.024872 -0.0645981 -0.831289
22 1.24273 0 0 -0.000479098 0.000360991 -1.33483
23 0.784523 0 0 0.0161961 -0.00188113 0.403201
24 -2.4735 7.79394 -0.077753 -0.275371 0.252825 -2.41516
25 6.02794 0 0 0.631325 0.543328 0.122453
26 11.7344 0 0 0.00140261 0 2.04417
27 8.81167 0 0 0.656376 0 0
28 5.77884 0 0 0.439772 0 0
29 2.23249 0 0 0.216604 0 0
30 11.4725 0 0 0.936084 0.134986 -1.07599
31 0.615811 0.994372 -0.809165 2.77788 0.472287 0.10795
32 2.24752 0 0 -0.10444 -0.036817 0.189869
33 1.11936 0 0 0.040943 0.17253 0.992367
34 3.71348 0.102638 0.102191 -1.64963 0.584187 -0.369879
35 1.72615 0 0 -0.0181544 0.00311398 1.72396
36 1.21112 0 0 0.00667257 0.00800493 0.706752
37 3.5992 1.06012 0.070888 -1.58257 -0.012201 -0.107496
38 1.66069 0 0 0.0316345 0.071161 0.641661
39 1.16699 0 0 0.0432847 0.00842699 1.0161
40 2.18853 -0.50104 0.0576596 -1.57144 -0.0521632 -0.199004
41 1.29609 0 0 0.0937335 0.100102 0.813136
42 1.62202 -0.000712395 -0.000470161 -0.0212591 -0.008563 1.65517
43 1.2224 0 0 0 0.00653298 0.655771
44 1.76707 -1.27612 0.0366416 -1.41856 -0.0419571 -0.220998
45 1.55587 0 0 -0.0176207 0.0420968 0.790849
46 1.24273 0 0 0.000478897 0.000360941 1.35859
47 0.784531 0 0 -0.00138831 0.00235201 0.814052
48 0 0 0 0 0 0
49 -4.80602 3.72345 -7.72482 2.5566 -1.56035 -2.5451
50 -4.45136 -19.3018 -3.76954 -3.14098 -0.78929 3.14139
51 -4.47559 3.24885 -6.74867 -0.110028 -1.56688 0.110262
52 -4.44782 -19.8791 -2.89598 -0.110028 -1.56688 0.110262
53 -4.99 -8.26755 -4.56645 0 0 0
54 0.533295 -3.33932 -0.116835 -0.000430114 0.00389252 0.000232299
55 -0.439464 -5.01739 0.910445 0 0 0
56 0 -2.26997 1.22871 0.02068 0 0
57 0 -5.92124 1.78377 0 0 0
58 0 -2.12202 -0.0619302 0.352503 0 0
59 -0.575001 -1.69351 1.13699 0 0 0
60 0 -4.97524 -0.469841 0 0 0
61 0.694226 -1.89081 0.409988 0 0 0
time 2
0 4.40254 -0.765094 -3.0277 -0.827034 0.693142 -1.04017
1 6.02794 0 0 0.227954 0.35802 -0.501872
2 11.7344 0 0 -0.00140293 0 -1.26737
3 8.81138 -0.000452042 -0.00011158 -2.11246 0 0.000157719
4 5.77839 0.000284195 0 -1.41535 0 0.000100064
5 2.23163 -0.000329971 -0.000364304 -0.697112 0 0
6 11.4725 0 0 -2.08665 0.194516 0.295878
7 0.615219 -0.993091 -0.8107 3.13843 0.250791 -0.497809
8 2.24752 0 0 0.087646 0.074742 0.0979189
9 1.11936 0 0 0.10922 0.023622 0.177412
10 3.71348 -0.10264 0.10219 1.46942 0.773555 -0.173756
11 1.72615 0 0 0.028256 -0.00392497 -1.54455
12 1.21114 0 0 -0.000153895 0.000329273 0.33414
13 3.59919 -1.06012 0.0708876 1.5195 0.284619 -0.269155
14 1.66069 0 0 -0.111391 0.075824 -1.56569
15 1.167 0 0 -0.00198899 -0.00149698 0.182279
16 2.18852 0.50104 0.0576591 1.53255 0.232941 0.0649171
17 1.29609 0 0 0.015082 -0.0443411 -0.516749
18 1.62202 0.000715256 -0.000472069 0.038495 -0.0112059 -1.72079
19 1.22241 0 0 0.00168796 -0.0236778 0.388832
20 1.76707 1.27612 0.0366402 1.49342 0.346301 0.063775
21 1.55588 0 0 -0.024872 -0.064598 -0.831289
22 1.24274 0 0 -0.000479088 0.000361074 -1.33483
23 0.784525 0 0 0.016196 -0.00188109 0.403201
24 -2.4735 7.79394 -0.077753 -0.275371 0.252825 -2.41516
25 6.02794 0 0 0.613002 0.55001 0.103937
26 11.7344 0 0 0.0014027 0 2.07351
27 8.81167 0 0 0.648214 0 0
28 5.77884 0 0 0.434303 0 0
29 2.23249 0 0 0.213911 0 0
30 11.4725 0 0 0.941333 0.128319 -1.08768
31 0.615812 0.994372 -0.809165 2.77788 0.472288 0.10795
32 2.24752 0 0 -0.10444 -0.036817 0.189869
33 1.11936 0 0 0.0409429 0.17253 0.992367
34 3.71348 0.102639 0.102191 -1.64963 0.584187 -0.369879
35 1.72615 0 0 -0.0181544 0.00311393 1.72396
36 1.21112 0 0 0.0066725 0.0080051 0.706752
37 3.5992 1.06012 0.070888 -1.58257 -0.012201 -0.107496
38 1.66069 0 0 0.0316344 0.071161 0.641661
39 1.16699 0 0 0.0432846 0.00842698 1.0161
40 2.18853 -0.50104 0.0576591 -1.57144 -0.052163 -0.199004
41 1.29609 0 0 0.0937335 0.100102 0.813136
42 1.62202 -0.000712395 -0.000469685 -0.0212591 -0.00856304 1.65517
43 1.2224 0 0 0 0.00653299 0.655771
44 1.76707 -1.27612 0.0366406 -1.41856 -0.0419571 -0.220998
45 1.55587 0 0 -0.0176207 0.0420968 0.790849
46 1.24273 0 0 0.000478943 0.00036098 1.35859
47 0.784531 0 0 -0.00138832 0.00235205 0.814052
48 0 0 0 0 0 0
49 -4.84226 4.02413 -7.70129 2.42917 -1.5626 -2.41517
50 -4.45086 -19.0013 -3.75903 -3.13903 -0.792203 3.13972
51 -4.47742 3.54525 -6.76893 -0.258175 -1.56376 0.258123
52 -4.44494 -19.5774 -2.88469 -0.258175 -1.56376 0.258123
53 -4.99 -8.26755 -4.56645 0 0 0
54 0.533295 -3.04009 -0.116835 -0.00179769 0.00680679 0
55 -0.439463 -5.01739 0.910445 0 0 0
56 0 -2.26997 1.22871 0.02068 0 0
57 0 -5.92124 1.78377 0 0 0
58 0 -2.12202 -0.0619297 0.352503 0 0
59 -0.575001 -1.69351 1.13699 0 0 0
60 0 -4.97524 -0.469841 0 0 0
61 0.694227 -1.89081 0.409987 0 0 0
time 3
0 4.40254 -0.765094 -3.0277 -0.827034 0.693142 -1.04017
1 6.02794 0 0 0.226246 0.356892 -0.504115
2 11.7344 0 0 -0.0014028 0 -1.26561
3 8.81138 -0.000448227 -0.000112057 -2.10415 0 0.000157275
4 5.77839 0.00028801 0 -1.40978 0 0
5 2.23163 -0.000328064 -0.000363827 -0.69437 0 0
6 11.4725 0 0 -2.07877 0.20304 0.296906
7 0.615219 -0.993091 -0.810699 3.13843 0.250791 -0.497809
8 2.24752 0 0 0.0876461 0.074742 0.0979191
9 1.11936 0 0 0.10922 0.023622 0.177412
10 3.71348 -0.10264 0.102191 1.46942 0.773555 -0.173756
11 1.72615 0 0 0.0282559 -0.00392497 -1.54455
12 1.21114 0 0 -0.000153932 0.000328916 0.33414
13 3.59919 -1.06012 0.0708876 1.5195 0.284619 -0.269155
14 1.66069 0 0 -0.111391 0.0758241 -1.56569
15 1.167 0 0 -0.00198896 -0.0014971 0.182279
16 2.18852 0.50104 0.0576591 1.53255 0.232941 0.0649171
17 1.29609 0 0 0.0150821 -0.044341 -0.516749
18 1.62202 0.000713348 -0.000471115 0.038495 -0.0112061 -1.72079
19 1.22241 0 0 0.00168805 -0.0236781 0.388832
20 1.76707 1.27612 0.0366402 1.49342 0.346301 0.0637749
21 1.55588 0 0 -0.0248719 -0.0645979 -0.831289
22 1.24273 0 0 -0.000479047 0.000360879 -1.33483
23 0.784523 0 0 0.016196 -0.00188085 0.403201
24 -2.4735 7.79394 -0.077753 -0.275371 0.252825 -2.41516
25 6.02794 0 0 0.603937 0.547469 0.101219
26 11.7344 0 0 0.0014027 0 2.07192
27 8.81167 0 0 0.66369 0 0
28 5.77884 0 0 0.444672 0 0
29 2.23249 0 0 0.219018 0 0
30 11.4725 0 0 0.958491 0.120416 -1.08053
31 0.615812 0.994372 -0.809165 2.77788 0.472288 0.10795
32 2.24752 0 0 -0.10444 -0.0368171 0.189869
33 1.11936 0 0 0.0409431 0.17253 0.992367
34 3.71348 0.102639 0.10219 -1.64963 0.584187 -0.369879
35 1.72615 0 0 -0.0181544 0.00311398 1.72396
36 1.21112 0 0 0.0066725 0.00800501 0.706752
37 3.5992 1.06012 0.070888 -1.58257 -0.012201 -0.107496
38 1.66069 0 0 0.0316345 0.071161 0.641661
39 1.16699 0 0 0.0432846 0.00842702 1.0161
40 2.18853 -0.50104 0.0576591 -1.57144 -0.0521629 -0.199004
41 1.29609 0 0 0.0937335 0.100102 0.813136
42 1.62201 -0.000713348 -0.000470161 -0.0212591 -0.00856304 1.65517
43 1.2224 0 0 0 0.00653311 0.655771
44 1.76707 -1.27612 0.0366411 -1.41856 -0.0419568 -0.220998
45 1.55587 0 0 -0.0176206 0.0420968 0.790849
46 1.24273 0 0 0.000478841 0.00036112 1.35859
47 0.784532 0 0 -0.00138833 0.00235196 0.814052
48 0 0 0 0 0 0
49 -4.79023 4.0129 -7.71741 2.9776 -1.55399 -2.96225
50 -4.45784 -19.0055 -3.75034 -3.13353 -0.782377 3.13296
51 -4.38986 3.52898 -6.84874 -2.05443 -1.56434 2.0515
52 -4.46216 -19.5782 -2.87373 -2.05443 -1.56434 2.0515
53 -4.99 -8.26755 -4.56645 0 0 0
54 0.557565 -3.04801 -0.138317 -0.00571856 -0.00300447 -0.00293178
55 -0.439464 -5.01739 0.910444 0 0 0
56 0 -2.26997 1.22871 0.02068 0 0
57 0 -5.92124 1.78377 0 0 0
58 0 -2.12202 -0.0619302 0.352503 0 0
59 -0.575001 -1.69351 1.13699 0 0 0
60 0 -4.97524 -0.469842 0 0 0
61 0.694227 -1.89081 0.409987 0 0 0
time 4
0 4.40254 -0.765094 -3.0277 -0.827034 0.693142 -1.04017
1 6.02794 0 0 0.225398 0.356108 -0.504964
2 11.7344 0 0 -0.00140279 0 -1.26455
3 8.81138 -0.000450134 -0.00011158 -2.10012 0 0.000157279
4 5.77839 0.000284195 0 -1.40708 0 0
5 2.23163 -0.000329971 -0.00036335 -0.693039 0 0
6 11.4725 0 0 -2.07501 0.20733 0.297106
7 0.615219 -0.99309 -0.810699 3.13843 0.250791 -0.497809
8 2.24752 0 0 0.087646 0.0747419 0.0979189
9 1.11936 0 0 0.10922 0.023622 0.177412
10 3.71348 -0.102641 0.102192 1.46942 0.773555 -0.173756
11 1.72615 0 0 0.0282558 -0.00392489 -1.54455
12 1.21114 0 0 -0.000153969 0.000328922 0.33414
13 3.59919 -1.06012 0.0708885 1.5195 0.284619 -0.269155
14 1.66068 0 0 -0.111391 0.0758238 -1.56569
15 1.167 0 0 -0.00198909 -0.00149685 0.182279
16 2.18852 0.501038 0.0576591 1.53255 0.232941 0.064917
17 1.29609 0 0 0.0150821 -0.044341 -0.516749
18 1.62202 0.000713348 -0.000469208 0.0384951 -0.011206 -1.72079
19 1.22241 0 0 0.00168807 -0.023678 0.388832
20 1.76707 1.27612 0.0366421 1.49342 0.346301 0.063775
21 1.55587 0 0 -0.0248721 -0.0645979 -0.831289
22 1.24273 0 0 -0.000478981 0.000361083 -1.33483
23 0.784523 0 0 0.0161959 -0.00188088 0.403201
24 -2.4735 7.79394 -0.077753 -0.275371 0.252825 -2.41516
25 6.02794 0 0 0.599305 0.545807 0.100247
26 11.7344 0 0 0.00140267 0 2.07052
27 8.81167 0 0 0.6719 0 0
28 5.77884 0 0 0.450173 0 0
29 2.23249 0 0 0.221727 0 0
30 11.4725 0 0 0.967207 0.116468 -1.07687
31 0.615812 0.994372 -0.809165 2.77788 0.472287 0.10795
32 2.24752 0 0 -0.10444 -0.0368171 0.189869
33 1.11936 0 0 0.0409431 0.17253 0.992367
34 3.71348 0.102639 0.102191 -1.64963 0.584187 -0.369879
35 1.72615 0 0 -0.0181545 0.00311404 1.72396
36 1.21112 0 0 0.00667255 0.00800501 0.706752
37 3.5992 1.06012 0.0708885 -1.58257 -0.012201 -0.107496
38 1.66069 0 0 0.0316346 0.071161 0.641661
39 1.16699 0 0 0.0432846 0.00842701 1.0161
40 2.18853 -0.50104 0.0576587 -1.57144 -0.0521631 -0.199004
41 1.29609 0 0 0.0937335 0.100102 0.813136
42 1.62202 -0.000713348 -0.000469208 -0.0212592 -0.00856294 1.65517
43 1.2224 0 0 0 0.00653303 0.655771
44 1.76707 -1.27612 0.0366411 -1.41856 -0.0419571 -0.220998
45 1.55587 0 0 -0.0176208 0.0420968 0.790849
46 1.24273 0 0 0.000478916 0.000360944 1.35859
47 0.784531 0 0 -0.00138832 0.00235198 0.814052
48 0 0 0 0 0 0
49 -4.79939 4.00839 -7.66704 3.01639 -1.54842 -2.99683
50 -4.45614 -19.0129 -3.74959 -3.13107 -0.777544 3.12996
51 -4.3446 3.51585 -6.88808 -2.37746 -1.55996 2.37324
52 -4.4654 -19.584 -2.87199 -2.37746 -1.55996 2.37324
53 -4.99 -8.26755 -4.56645 0 0 0
54 0.573637 -3.05718 -0.151241 -0.00749969 -0.00782605 -0.00418879
55 -0.439463 -5.01739 0.910445 0 0 0
56 0 -2.26997 1.22871 0.02068 0 0
57 0 -5.92123 1.78377 0 0 0
58 0 -2.12202 -0.0619297 0.352503 0 0
59 -0.575001 -1.69351 1.13699 0 0 0
60 0 -4.97524 -0.469841 0 0 0
61 0.694227 -1.89081 0.409988 0 0 0
time 5
0 4.40254 -0.765094 -3.0277 -0.827034 0.693142 -1.04017
1 6.02794 0 0 0.224325 0.355361 -0.50634
2 11.7344 0 0 -0.00140278 0 -1.26124
3 8.81138 -0.000452042 -0.000112534 -2.09846 0 0.000157393
4 5.77839 0.000286102 0 -1.40597 0 0
5 2.23163 -0.000328064 -0.000364304 -0.692491 0 0
6 11.4725 0 0 -2.07366 0.209694 0.296217
7 0.615219 -0.993092 -0.810701 3.13843 0.250791 -0.497809
8 2.24752 0 0 0.0876459 0.074742 0.097919
9 1.11936 0 0 0.10922 0.023622 0.177412
10 3.71348 -0.102643 0.10219 1.46942 0.773555 -0.173756
11 1.72615 0 0 0.028256 -0.00392487 -1.54455
12 1.21114 0 0 -0.000153993 0.000329047 0.33414
13 3.59919 -1.06012 0.0708866 1.5195 0.284619 -0.269155
14 1.66069 0 0 -0.111391 0.0758242 -1.56569
15 1.167 0 0 -0.00198893 -0.00149723 0.182279
16 2.18852 0.501039 0.0576591 1.53255 0.232941 0.064917
17 1.29609 0 0 0.0150819 -0.044341 -0.516749
18 1.62202 0.000715256 -0.000470161 0.0384949 -0.0112059 -1.72079
19 1.22241 0 0 0.00168797 -0.0236781 0.388832
20 1.76707 1.27612 0.0366402 1.49342 0.346301 0.0637751
21 1.55587 0 0 -0.024872 -0.0645981 -0.831289
22 1.24274 0 0 -0.000478977 0.000360934 -1.33483
23 0.784521 0 0 0.0161959 -0.00188094 0.403201
24 -2.4735 7.79394 -0.077753 -0.275371 0.252825 -2.41516
25 6.02794 0 0 0.600594 0.544932 0.102064
26 11.7344 0 0 0.00140265 0 2.06732
27 8.81167 0 0 0.675875 0 0
28 5.77884 0 0 0.452836 0 0
29 2.23249 0 0 0.223039 0 0
30 11.4725 0 0 0.969235 0.117092 -1.07453
31 0.615812 0.994372 -0.809165 2.77788 0.472288 0.10795
32 2.24752 0 0 -0.10444 -0.036817 0.189869
33 1.11936 0 0 0.040943 0.17253 0.992367
34 3.71348 0.102639 0.102191 -1.64963 0.584187 -0.369879
35 1.72615 0 0 -0.0181545 0.003114 1.72396
36 1.21112 0 0 0.00667258 0.00800505 0.706752
37 3.5992 1.06012 0.0708876 -1.58257 -0.012201 -0.107496
38 1.66069 0 0 0.0316345 0.071161 0.641661
39 1.16699 0 0 0.0432846 0.008427 1.0161
40 2.18853 -0.50104 0.0576591 -1.57144 -0.0521629 -0.199003
41 1.29609 0 0 0.0937334 0.100102 0.813136
42 1.62201 -0.000711441 -0.000470161 -0.0212591 -0.00856306 1.65517
43 1.2224 0 0 0 0.00653304 0.655771
44 1.76707 -1.27612 0.0366411 -1.41856 -0.041957 -0.220998
45 1.55587 0 0 -0.0176207 0.0420967 0.790849
46 1.24273 0 0 0.000478862 0.000360949 1.35859
47 0.784531 0 0 -0.00138824 0.00235202 0.814052
48 0 0 0 0 0 0
49 -4.86148 3.98793 -7.55469 2.94769 -1.54461 -2.92135
50 -4.45288 -19.0445 -3.74915 -3.13105 -0.775081 3.13012
51 -4.33745 3.48422 -6.88831 -2.50965 -1.55805 2.50559
52 -4.4642 -19.6155 -2.87155 -2.50965 -1.55805 2.50559
53 -4.99 -8.26755 -4.56645 0 0 0
54 0.577973 -3.08873 -0.151022 -0.00753165 -0.0102882 -0.00401815
55 -0.439463 -5.01739 0.910445 0 0 0
56 0 -2.26997 1.22871 0.02068 0 0
57 0 -5.92124 1.78377 0 0 0
58 0 -2.12203 -0.0619297 0.352503 0 0
59 -0.575001 -1.69351 1.13699 0 0 0
60 0 -4.97525 -0.469842 0 0 0
61 0.694227 -1.89081 0.409988 0 0 0
time 6
0 4.40254 -0.765094 -3.0277 -0.827034 0.693142 -1.04017
1 6.02794 0 0 0.223169 0.354762 -0.50808
2 11.7344 0 0 -0.00140278 0 -1.25634
3 8.81138 -0.000448227 -0.00011158 -2.09922 0 0.000158169
4 5.77839 0.00028801 0 -1.40648 0 0.000100084
5 2.23163 -0.000328064 -0.000363827 -0.692743 0 0
6 11.4725 0 0 -2.07473 0.209918 0.294243
7 0.615218 -0.993091 -0.8107 3.13843 0.250791 -0.497809
8 2.24752 0 0 0.0876461 0.074742 0.0979191
9 1.11935 0 0 0.10922 0.023622 0.177412
10 3.71348 -0.102641 0.102191 1.46942 0.773555 -0.173756
11 1.72615 0 0 0.028256 -0.003925 -1.54455
12 1.21114 0 0 -0.000153986 0.000329046 0.33414
13 3.59919 -1.06012 0.0708876 1.5195 0.284619 -0.269155
14 1.66069 0 0 -0.111391 0.075824 -1.56569
15 1.167 0 0 -0.00198902 -0.00149704 0.182279
16 2.18852 0.50104 0.0576582 1.53255 0.232941 0.0649169
17 1.29609 0 0 0.015082 -0.0443409 -0.516749
18 1.62202 0.000713348 -0.000470161 0.0384949 -0.011206 -1.72079
19 1.22241 0 0 0.00168805 -0.023678 0.388832
20 1.76707 1.27612 0.0366411 1.49342 0.346301 0.0637748
21 1.55588 0 0 -0.024872 -0.0645978 -0.831289
22 1.24274 0 0 -0.000478884 0.000361008 -1.33483
23 0.784523 0 0 0.0161959 -0.00188104 0.403201
24 -2.4735 7.79394 -0.077753 -0.275371 0.252825 -2.41516
25 6.02794 0 0 0.60681 0.544792 0.106069
26 11.7344 0 0 0.00140273 0 2.06299
27 8.81167 0 0 0.675188 0 0
28 5.77884 0 0 0.452376 0 0
29 2.23249 0 0 0.222812 0 0
30 11.4725 0 0 0.964969 0.121453 -1.07374
31 0.615812 0.994372 -0.809165 2.77788 0.472288 0.10795
32 2.24752 0 0 -0.10444 -0.0368169 0.189869
33 1.11936 0 0 0.040943 0.17253 0.992367
34 3.71348 0.102639 0.102191 -1.64963 0.584187 -0.369879
35 1.72615 0 0 -0.0181545 0.00311399 1.72396
36 1.21112 0 0 0.00667262 0.00800502 0.706752
37 3.5992 1.06012 0.070888 -1.58277 -0.011989 -0.0904221
38 1.66069 0 0 0.0295836 0.0718604 0.613771
39 1.16699 0 0 0.0429408 0.00961353 0.988062
40 2.18853 -0.50104 0.0576587 -1.57144 -0.0521629 -0.199004
41 1.29609 0 0 0.0937335 0.100102 0.813136
42 1.62202 -0.000713348 -0.000469685 -0.0212592 -0.008563 1.65517
43 1.2224 0 0 0 0.00653303 0.655771
44 1.76707 -1.27612 0.0366406 -1.41856 -0.0419569 -0.220998
45 1.55587 0 0 -0.0176207 0.0420968 0.790849
46 1.24273 0 0 0.000478923 0.000360976 1.35859
47 0.784531 0 0 -0.00138831 0.00235207 0.814052
48 0 0 0 0 0 0
49 -4.97043 3.95679 -7.38846 2.81158 -1.54249 -2.77628
50 -4.44852 -19.0927 -3.74805 -3.133 -0.775292 3.13284
51 -4.36415 3.44043 -6.85575 -2.59516 -1.55899 2.59244
52 -4.4589 -19.665 -2.87124 -2.59516 -1.55899 2.59244
53 -4.99 -8.26755 -4.56645 0 0 0
54 0.571754 -3.13563 -0.139189 -0.00613511 -0.0100874 -0.00268086
55 -0.439463 -5.01739 0.910445 0 0 0
56 0 -2.26997 1.22871 0.02068 0 0
57 0 -5.92124 1.78377 0 0 0
58 0 -2.12202 -0.0619302 0.287225 0 0
59 -0.575001 -1.69351 1.13699 0 0 0
60 0 -4.97524 -0.469842 0 0 0
61 0.694227 -1.89081 0.409987 0 0 0
time 7
0 4.40254 -0.765094 -3.0277 -0.827034 0.693142 -1.04017
1 6.02794 0 0 0.221633 0.354318 -0.510832
2 11.7344 0 0 -0.00140279 0 -1.2504
3 8.81138 -0.000450134 -0.000112057 -2.09965 0 0.000157676
4 5.77839 0.000286102 0 -1.40676 0 0
5 2.23163 -0.000329971 -0.00036478 -0.692884 0 0
6 11.4725 0 0 -2.0756 0.210217 0.291605
7 0.615218 -0.99309 -0.8107 3.13843 0.250791 -0.497809
8 2.24752 0 0 0.087646 0.074742 0.097919
9 1.11936 0 0 0.10922 0.023622 0.177412
10 3.71348 -0.10264 0.102191 1.46942 0.773555 -0.173756
11 1.72615 0 0 0.0282561 -0.00392502 -1.54455
12 1.21114 0 0 -0.000154042 0.000329116 0.33414
13 3.59919 -1.06012 0.0708876 1.5195 0.284619 -0.269155
14 1.66069 0 0 -0.111391 0.0758239 -1.56569
15 1.167 0 0 -0.00198902 -0.00149692 0.182279
16 2.18852 0.50104 0.0576591 1.53255 0.232941 0.064917
17 1.29609 0 0 0.0150821 -0.0443409 -0.516749
18 1.62202 0.000713348 -0.000472069 0.0384953 -0.011206 -1.72079
19 1.22241 0 0 0.001688 -0.0236781 0.388832
20 1.76707 1.27612 0.0366411 1.49342 0.346301 0.063775
21 1.55588 0 0 -0.024872 -0.064598 -0.831289
22 1.24273 0 0 -0.000479088 0.000361074 -1.33483
23 0.784523 0 0 0.0161961 -0.00188102 0.403201
24 -2.4735 7.79394 -0.077753 -0.275371 0.252825 -2.41516
25 6.02794 0 0 0.613325 0.544725 0.110129
26 11.7344 0 0 0.00140261 0 2.05849
27 8.81167 0 0 0.674229 0 0
28 5.77884 0 0 0.451733 0 0
29 2.23249 0 0 0.222496 0 0
30 11.4725 0 0 0.960404 0.125331 -1.07262
31 0.615812 0.994371 -0.809165 2.77788 0.472287 0.10795
32 2.24752 0 0 -0.10444 -0.0368171 0.189869
33 1.11936 0 0 0.0409431 0.17253 0.992367
34 3.71348 0.102639 0.102191 -1.64963 0.584187 -0.369879
35 1.72615 0 0 -0.0181544 0.00311407 1.72396
36 1.21112 0 0 0.00667246 0.00800503 0.706752
37 3.5992 1.06012 0.070888 -1.5832 -0.0115226 -0.0528595
38 1.66069 0 0 0.0250718 0.073399 0.552411
39 1.16699 0 0 0.0421846 0.012224 0.926378
40 2.18853 -0.50104 0.0576591 -1.57144 -0.052163 -0.199004
41 1.29609 0 0 0.0937335 0.100102 0.813136
42 1.62202 -0.000712395 -0.000469685 -0.0212591 -0.00856301 1.65517
43 1.22241 0 0 0 0.00653311 0.655771
44 1.76707 -1.27612 0.0366411 -1.41856 -0.041957 -0.220998
45 1.55587 0 0 -0.0176207 0.0420968 0.790849
46 1.24273 0 0 0.000478915 0.000361021 1.35859
47 0.784531 0 0 -0.00138839 0.00235197 0.814052
48 0 0 0 0 0 0
49 -5.08761 3.92238 -7.21203 2.70554 -1.53993 -2.66065
50 -4.44983 -19.1429 -3.73989 -3.13411 -0.77558 3.13467
51 -4.39012 3.39282 -6.82966 -2.64289 -1.55963 2.64123
52 -4.45936 -19.7159 -2.86354 -2.64289 -1.55963 2.64123
53 -4.99 -8.26755 -4.56645 0 0 0
54 0.562052 -3.185 -0.124911 -0.00533897 -0.00980353 -0.00163363
55 -0.439463 -5.01739 0.910445 0 0 0
56 0 -2.26997 1.22871 0.02068 0 0
57 0 -5.92124 1.78377 0 0 0
58 0 -2.12202 -0.0619297 0.143612 0 0
59 -0.575001 -1.69351 1.13699 0 0 0
60 0 -4.97524 -0.469842 0 0 0
61 0.694227 -1.89081 0.409988 0 0 0
time 8
0 4.40254 -0.765094 -3.0277 -0.827034 0.693142 -1.04017
1 6.02794 0 0 0.219921 0.353974 -0.514096
2 11.7344 0 0 -0.00140296 0 -1.24486
3 8.81138 -0.000450134 -0.000112057 -2.09864 0 0.000156968
4 5.77839 0.000286102 0 -1.40609 0 0
5 2.23163 -0.000328064 -0.000363827 -0.692552 0 0
6 11.4725 0 0 -2.07519 0.211194 0.288648
7 0.615218 -0.99309 -0.8107 3.13843 0.250791 -0.497809
8 2.24752 0 0 0.087646 0.074742 0.0979191
9 1.11936 0 0 0.10922 0.023622 0.177412
10 3.71348 -0.10264 0.102191 1.46942 0.773555 -0.173756
11 1.72615 0 0 0.0282561 -0.00392512 -1.54455
12 1.21114 0 0 -0.000153993 0.000329229 0.33414
13 3.59919 -1.06012 0.0708876 1.5195 0.284619 -0.269155
14 1.66068 0 0 -0.111391 0.075824 -1.56569
15 1.167 0 0 -0.00198887 -0.00149693 0.182279
16 2.18852 0.50104 0.0576591 1.53255 0.232941 0.0649171
17 1.29609 0 0 0.015082 -0.0443409 -0.516749
18 1.62202 0.000713348 -0.000471115 0.038495 -0.0112059 -1.72079
19 1.22241 0 0 0.00168803 -0.0236781 0.388832
20 1.76707 1.27612 0.0366411 1.49342 0.346301 0.0637751
21 1.55588 0 0 -0.0248721 -0.064598 -0.831289
22 1.24274 0 0 -0.000478981 0.000361083 -1.33483
23 0.784523 0 0 0.0161961 -0.00188107 0.403201
24 -2.4735 7.79394 -0.077753 -0.275371 0.252825 -2.41516
25 6.02794 0 0 0.616689 0.544349 0.112594
26 11.7344 0 0 0.00140263 0 2.05483
27 8.81167 0 0 0.674951 0 0
28 5.77884 0 0 0.452217 0 0
29 2.23249 0 0 0.222734 0 0
30 11.4725 0 0 0.958806 0.126094 -1.07031
31 0.615812 0.994372 -0.809166 2.77788 0.472288 0.10795
32 2.24752 0 0 -0.10444 -0.036817 0.189869
33 1.11936 0 0 0.0409431 0.17253 0.992367
34 3.71348 0.102639 0.102191 -1.64963 0.584187 -0.369879
35 1.72615 0 0 -0.0181545 0.00311393 1.72396
36 1.21112 0 0 0.0066726 0.00800503 0.706752
37 3.5992 1.06012 0.070888 -1.58364 -0.0110559 -0.0152982
38 1.66069 0 0 0.0205604 0.0749376 0.491051
39 1.16699 0 0 0.0414283 0.0148344 0.864693
40 2.18853 -0.50104 0.0576587 -1.57144 -0.052163 -0.199004
41 1.29609 0 0 0.0937334 0.100102 0.813136
42 1.62201 -0.000712395 -0.000469685 -0.0212591 -0.00856301 1.65517
43 1.2224 0 0 0 0.006533 0.655771
44 1.76707 -1.27612 0.0366411 -1.41856 -0.041957 -0.220998
45 1.55587 0 0 -0.0176207 0.0420967 0.790849
46 1.24273 0 0 0.000478889 0.000361081 1.35859
47 0.784532 0 0 -0.00138831 0.00235193 0.814052
48 0 0 0 0 0 0
49 -5.19284 3.89568 -7.05392 2.66546 -1.53705 -2.61112
50 -4.45547 -19.1811 -3.7256 -3.13289 -0.775152 3.13393
51 -4.39702 3.35194 -6.83512 -2.59544 -1.55883 2.5939
52 -4.4653 -19.7533 -2.84875 -2.59544 -1.55883 2.5939
53 -4.99 -8.26755 -4.56645 0 0 0
54 0.555943 -3.22399 -0.11736 -0.00621587 -0.0102269 -0.00151097
55 -0.439464 -5.01739 0.910445 0 0 0
56 0 -2.26997 1.22871 0.02068 0 0
57 0 -5.92124 1.78377 0 0 0
58 0 -2.12202 -0.0619297 0 0 0
59 -0.575001 -1.69351 1.13699 0 0 0
60 0 -4.97524 -0.469842 0 0 0
61 0.694226 -1.89081 0.409987 0 0 0
time 9
0 4.40254 -0.765094 -3.0277 -0.827034 0.693142 -1.04017
1 6.02794 0 0 0.218644 0.353736 -0.516563
2 11.7344 0 0 -0.00140281 0 -1.24118
3 8.81138 -0.000450134 -0.00011301 -2.0971 0 0.000157992
4 5.77839 0.000286102 0 -1.40506 0 0
5 2.23163 -0.000329971 -0.00036478 -0.692042 0 0
6 11.4725 0 0 -2.07424 0.211862 0.285837
7 0.615219 -0.993092 -0.810699 3.13843 0.250791 -0.497809
8 2.24752 0 0 0.087646 0.074742 0.097919
9 1.11936 0 0 0.10922 0.023622 0.177412
10 3.71348 -0.102641 0.102192 1.46942 0.773555 -0.173756
11 1.72615 0 0 0.0282561 -0.00392493 -1.54455
12 1.21114 0 0 -0.000154103 0.000329066 0.33414
13 3.59919 -1.06012 0.0708885 1.5195 0.284619 -0.269155
14 1.66069 0 0 -0.111391 0.0758241 -1.56569
15 1.167 0 0 -0.00198901 -0.00149722 0.182279
16 2.18853 0.501038 0.0576591 1.53255 0.232941 0.0649171
17 1.29609 0 0 0.015082 -0.044341 -0.516749
18 1.62202 0.000715256 -0.000472069 0.038495 -0.011206 -1.72079
19 1.22241 0 0 0.00168806 -0.023678 0.388832
20 1.76707 1.27612 0.0366421 1.49342 0.346301 0.0637751
21 1.55588 0 0 -0.0248719 -0.0645978 -0.831289
22 1.24273 0 0 -0.000479037 0.000360962 -1.33483
23 0.784521 0 0 0.016196 -0.00188109 0.403201
24 -2.4735 7.79394 -0.077753 -0.275371 0.252825 -2.41516
25 6.02794 0 0 0.61656 0.543821 0.113115
26 11.7344 0 0 0.00140285 0 2.05254
27 8.81167 0 0 0.676509 0 0
28 5.77884 0 0 0.453261 0 0
29 2.23249 0 0 0.223248 0 0
30 11.4725 0 0 0.959393 0.124273 -1.06741
31 0.615812 0.994372 -0.809165 2.77788 0.472287 0.10795
32 2.24752 0 0 -0.10444 -0.0368171 0.189869
33 1.11936 0 0 0.0409431 0.17253 0.992367
34 3.71348 0.10264 0.102191 -1.64963 0.584187 -0.369879
35 1.72615 0 0 -0.0181544 0.00311397 1.72396
36 1.21112 0 0 0.00667249 0.00800502 0.706752
37 3.5992 1.06012 0.0708876 -1.58384 -0.010844 0.00177537
38 1.66069 0 0 0.0185095 0.075637 0.463161
39 1.16699 0 0 0.0410845 0.016021 0.836655
40 2.18853 -0.50104 0.0576591 -1.57144 -0.052163 -0.199004
41 1.29609 0 0 0.0937334 0.100102 0.813136
42 1.62201 -0.000713348 -0.000469685 -0.0212591 -0.00856304 1.65517
43 1.2224 0 0 0 0.00653299 0.655771
44 1.76707 -1.27612 0.0366411 -1.41856 -0.0419569 -0.220998
45 1.55587 0 0 -0.0176209 0.0420968 0.790849
46 1.24273 0 0 0.000478929 0.000360895 1.35859
47 0.784531 0 0 -0.00138834 0.00235209 0.814052
48 0 0 0 0 0 0
49 -5.29273 3.88494 -6.91054 2.65128 -1.53459 -2.58728
50 -4.45959 -19.2014 -3.71361 -3.13016 -0.774881 3.13165
51 -4.39209 3.3255 -6.86712 -2.47965 -1.55751 2.47776
52 -4.46985 -19.7718 -2.83565 -2.47965 -1.55751 2.47776
53 -4.99 -8.26755 -4.56645 0 0 0
54 0.554885 -3.24619 -0.120381 -0.00816879 -0.0104836 -0.00185714
55 -0.439463 -5.01739 0.910445 0 0 0
56 0 -2.26997 1.22871 0.02068 0 0
57 0 -5.92124 1.78377 0 0 0
58 0 -2.12202 -0.0619297 0 0 0
59 -0.575001 -1.69351 1.13699 0 0 0
60 0 -4.97524 -0.469842 0 0 0
61 0.694226 -1.89081 0.409988 0 0 0
time 10
0 4.40254 -0.765094 -3.0277 -0.827034 0.693142 -1.04017
1 6.02794 0 0 0.217641 0.353638 -0.518614
2 11.7344 0 0 -0.00140288 0 -1.23854
3 8.81138 -0.000450134 -0.00011301 -2.09523 0 0.000158196
4 5.77839 0.000286102 0 -1.40381 0 0.000100155
5 2.23163 -0.000328064 -0.00036478 -0.691427 0 0
6 11.4725 0 0 -2.07296 0.212311 0.283163
7 0.615219 -0.993092 -0.8107 3.13843 0.250791 -0.497809
8 2.24752 0 0 0.087646 0.074742 0.097919
9 1.11936 0 0 0.10922 0.023622 0.177412
10 3.71348 -0.10264 0.102191 1.46942 0.773555 -0.173756
11 1.72615 0 0 0.0282561 -0.00392508 -1.54455
12 1.21114 0 0 -0.000154167 0.000329137 0.33414
13 3.59919 -1.06012 0.0708885 1.5195 0.284619 -0.269155
14 1.66069 0 0 -0.111391 0.0758241 -1.56569
15 1.167 0 0 -0.00198898 -0.00149704 0.182279
16 2.18852 0.50104 0.0576591 1.53255 0.232941 0.064917
17 1.29609 0 0 0.0150818 -0.0443412 -0.516749
18 1.62202 0.000713348 -0.000471115 0.0384948 -0.0112059 -1.72079
19 1.22241 0 0 0.00168804 -0.023678 0.388832
20 1.76707 1.27612 0.0366411 1.49342 0.346301 0.063775
21 1.55588 0 0 -0.0248721 -0.064598 -0.831289
22 1.24273 0 0 -0.000478907 0.000360989 -1.33483
23 0.784525 0 0 0.0161961 -0.00188086 0.403201
24 -2.4735 7.79394 -0.077753 -0.275371 0.252825 -2.41516
25 6.02794 0 0 0.614515 0.543316 0.112453
26 11.7344 0 0 0.0014028 0 2.05112
27 8.81167 0 0 0.678504 0 0
28 5.77884 0 0 0.454598 0 0
29 2.23249 0 0 0.223906 0 0
30 11.4725 0 0 0.961129 0.121035 -1.06419
31 0.615811 0.994372 -0.809165 2.77788 0.472288 0.10795
32 2.24751 0 0 -0.10444 -0.036817 0.189869
33 1.11936 0 0 0.040943 0.17253 0.992367
34 3.71348 0.102639 0.102192 -1.64963 0.584187 -0.369879
35 1.72615 0 0 -0.0181544 0.00311399 1.72396
36 1.21112 0 0 0.00667262 0.00800502 0.706752
37 3.5992 1.06012 0.070889 -1.58384 -0.010844 0.00177545
38 1.66069 0 0 0.0185095 0.075637 0.463161
39 1.16699 0 0 0.0410844 0.016021 0.836655
40 2.18853 -0.50104 0.0576596 -1.57144 -0.0521632 -0.199003
41 1.29609 0 0 0.0937334 0.100102 0.813136
42 1.62202 -0.000713348 -0.000470161 -0.0212591 -0.0085631 1.65517
43 1.2224 0 0 0 0.00653308 0.655771
44 1.76707 -1.27612 0.0366411 -1.41856 -0.041957 -0.220998
45 1.55587 0 0 -0.0176207 0.0420968 0.790849
46 1.24273 0 0 0.000478949 0.000360994 1.35859
47 0.784531 0 0 -0.00138834 0.00235201 0.814052
48 0 0 0 0 0 0
49 -5.39212 3.88504 -6.77232 2.64869 -1.53232 -2.57479
50 -4.4644 -19.2107 -3.703 -3.12659 -0.774684 3.12849
51 -4.38142 3.30803 -6.914 -2.35315 -1.55568 2.3506
52 -4.47518 -19.7789 -2.82358 -2.35315 -1.55568 2.3506
53 -4.99 -8.26755 -4.56645 0 0 0
54 0.555343 -3.25802 -0.129392 -0.0107221 -0.0106572 -0.00249335
55 -0.439464 -5.01739 0.910445 0 0 0
56 0 -2.26997 1.22871 0.02068 0 0
57 0 -5.92124 1.78377 0 0 0
58 0 -2.12202 -0.0619297 0 0 0
59 -0.575001 -1.69351 1.13699 0 0 0
60 0 -4.97524 -0.469842 0 0 0
61 0.694227 -1.89081 0.409987 0 0 0
time 11
0 4.40254 -0.765094 -3.0277 -0.827034 0.693142 -1.04017
1 6.02794 0 0 0.216788 0.353585 -0.520402
2 11.7344 0 0 -0.00140292 0 -1.23639
3 8.81138 -0.000450134 -0.000111103 -2.0933 0 0.000158036
4 5.77839 0.00028801 0 -1.40251 0 0
5 2.23163 -0.000328064 -0.000363827 -0.690789 0 0
6 11.4725 0 0 -2.07158 0.212709 0.280595
7 0.615219 -0.993091 -0.8107 3.13843 0.250791 -0.497809
8 2.24752 0 0 0.087646 0.074742 0.0979189
9 1.11936 0 0 0.10922 0.023622 0.177412
10 3.71348 -0.102641 0.10219 1.46942 0.773555 -0.173756
11 1.72615 0 0 0.028256 -0.00392489 -1.54455
12 1.21114 0 0 -0.00015403 0.000329054 0.33414
13 3.59919 -1.06012 0.0708866 1.5195 0.284619 -0.269155
14 1.66069 0 0 -0.111391 0.0758241 -1.56569
15 1.167 0 0 -0.00198896 -0.00149722 0.182279
16 2.18853 0.50104 0.0576582 1.53255 0.232941 0.064917
17 1.29609 0 0 0.015082 -0.044341 -0.516749
18 1.62202 0.000713348 -0.000470161 0.0384949 -0.0112059 -1.72079
19 1.22241 0 0 0.00168801 -0.0236781 0.388832
20 1.76707 1.27612 0.0366402 1.49342 0.346301 0.0637751
21 1.55587 0 0 -0.0248719 -0.0645979 -0.831289
22 1.24274 0 0 -0.000478967 0.000361018 -1.33483
23 0.784521 0 0 0.016196 -0.00188096 0.403201
24 -2.4735 7.79394 -0.077753 -0.275371 0.252825 -2.41516
25 6.02794 0 0 0.611713 0.542779 0.11137
26 11.7344 0 0 0.00140272 0 2.05003
27 8.81167 0 0 0.680707 0 0
28 5.77884 0 0 0.456074 0 0
29 2.23249 0 0 0.224633 0 0
30 11.4725 0 0 0.963372 0.117304 -1.06095
31 0.615813 0.994372 -0.809165 2.77788 0.472288 0.10795
32 2.24752 0 0 -0.10444 -0.036817 0.189869
33 1.11936 0 0 0.040943 0.17253 0.992367
34 3.71348 0.102639 0.102191 -1.64963 0.584187 -0.369879
35 1.72615 0 0 -0.0181544 0.00311395 1.72396
36 1.21112 0 0 0.00667256 0.00800499 0.706752
37 3.5992 1.06012 0.0708885 -1.58384 -0.0108441 0.00177542
38 1.66069 0 0 0.0185095 0.075637 0.463161
39 1.16699 0 0 0.0410845 0.016021 0.836655
40 2.18853 -0.50104 0.0576582 -1.57144 -0.052163 -0.199004
41 1.29609 0 0 0.0937335 0.100102 0.813136
42 1.62202 -0.000713348 -0.000469685 -0.0212591 -0.00856297 1.65517
43 1.2224 0 0 0 0.00653306 0.655771
44 1.76707 -1.27612 0.0366406 -1.41856 -0.041957 -0.220998
45 1.55587 0 0 -0.0176208 0.0420968 0.790849
46 1.24273 0 0 0.000478916 0.000360963 1.35859
47 0.784531 0 0 -0.00138834 0.00235201 0.814052
48 0 0 0 0 0 0
49 -5.49279 3.89054 -6.63077 2.64766 -1.52997 -2.56353
50 -4.46898 -19.2158 -3.69394 -3.12285 -0.774478 3.1251
51 -4.36799 3.29412 -6.96524 -2.25057 -1.55357 2.24725
52 -4.48035 -19.7817 -2.81301 -2.25057 -1.55357 2.24725
53 -4.99 -8.26755 -4.56645 0 0 0
54 0.556894 -3.26588 -0.140912 -0.0134002 -0.0108311 -0.00324084
55 -0.439464 -5.01739 0.910445 0 0 0
56 0 -2.26997 1.22871 0.02068 0 0
57 0 -5.92124 1.78377 0 0 0
58 0 -2.12203 -0.0619297 0 0 0
59 -0.575002 -1.69351 1.13699 0 0 0
60 0 -4.97524 -0.469842 0 0 0
61 0.694226 -1.89081 0.409987 0 0 0
time 12
0 4.40254 -0.765094 -3.0277 -0.827034 0.693142 -1.04017
1 6.02794 0 0 0.21596 0.353486 -0.522081
2 11.7344 0 0 -0.0014029 0 -1.23412
3 8.81138 -0.000450134 -0.00011158 -2.09154 0 0.00015713
4 5.77839 0.000286102 0 -1.40133 0 0
5 2.23163 -0.000328064 -0.000362873 -0.690209 0 0
6 11.4725 0 0 -2.07037 0.213223 0.278101
7 0.615219 -0.993092 -0.810701 3.13843 0.250791 -0.497809
8 2.24752 0 0 0.087646 0.074742 0.0979189
9 1.11935 0 0 0.10922 0.023622 0.177412
10 3.71348 -0.102642 0.10219 1.46942 0.773555 -0.173756
11 1.72615 0 0 0.028256 -0.00392504 -1.54455
12 1.21114 0 0 -0.000153881 0.000328908 0.33414
13 3.59919 -1.06012 0.0708866 1.5195 0.284619 -0.269155
14 1.66068 0 0 -0.111391 0.075824 -1.56569
15 1.167 0 0 -0.00198905 -0.00149703 0.182279
16 2.18852 0.50104 0.0576572 1.53255 0.232941 0.0649171
17 1.29609 0 0 0.015082 -0.0443411 -0.516749
18 1.62202 0.000715256 -0.000470161 0.038495 -0.0112061 -1.72079
19 1.22241 0 0 0.00168796 -0.023678 0.388832
20 1.76707 1.27612 0.0366402 1.49342 0.346301 0.063775
21 1.55588 0 0 -0.024872 -0.0645981 -0.831289
22 1.24274 0 0 -0.000479024 0.000360897 -1.33483
23 0.784523 0 0 0.016196 -0.0018809 0.403201
24 -2.4735 7.79394 -0.077753 -0.275371 0.252825 -2.41516
25 6.02794 0 0 0.609327 0.542159 0.11063
26 11.7344 0 0 0.00140271 0 2.04871
27 8.81167 0 0 0.682873 0 0
28 5.77884 0 0 0.457525 0 0
29 2.23249 0 0 0.225348 0 0
30 11.4725 0 0 0.965475 0.114014 -1.05799
31 0.615812 0.994372 -0.809165 2.77788 0.472288 0.10795
32 2.24752 0 0 -0.10444 -0.0368171 0.189869
33 1.11936 0 0 0.040943 0.17253 0.992367
34 3.71348 0.102639 0.10219 -1.64963 0.584187 -0.369879
35 1.72615 0 0 -0.0181544 0.00311392 1.72396
36 1.21112 0 0 0.00667252 0.00800501 0.706752
37 3.5992 1.06012 0.0708876 -1.58384 -0.0108439 0.00177538
38 1.66069 0 0 0.0185096 0.075637 0.463161
39 1.16699 0 0 0.0410845 0.016021 0.836655
40 2.18853 -0.50104 0.0576587 -1.57144 -0.0521629 -0.199004
41 1.29609 0 0 0.0937335 0.100102 0.813136
42 1.62201 -0.000713348 -0.000470161 -0.0212591 -0.00856309 1.65517
43 1.2224 0 0 0 0.00653309 0.655771
44 1.76707 -1.27612 0.0366402 -1.41856 -0.0419568 -0.220998
45 1.55587 0 0 -0.0176207 0.0420967 0.790849
46 1.24273 0 0 0.000478968 0.000360979 1.35859
47 0.784532 0 0 -0.00138841 0.00235206 0.814052
48 0 0 0 0 0 0
49 -5.59659 3.89564 -6.47745 2.64068 -1.52724 -2.54597
50 -4.47243 -19.2237 -3.68662 -3.1196 -0.774187 3.12212
51 -4.35474 3.27845 -7.01029 -2.18493 -1.55155 2.18092
52 -4.48442 -19.7875 -2.80438 -2.18493 -1.55155 2.18092
53 -4.99 -8.26755 -4.56645 0 0 0
54 0.559117 -3.27621 -0.151465 -0.0157274 -0.0110889 -0.00392084
55 -0.439464 -5.01739 0.910445 0 0 0
56 0 -2.26997 1.22871 0.02068 0 0
57 0 -5.92124 1.78377 0 0 0
58 0 -2.12202 -0.0619302 0 0 0
59 -0.575001 -1.69351 1.13699 0 0 0
60 0 -4.97525 -0.469842 0 0 0
61 0.694226 -1.89081 0.409987 0 0 0
time 13
0 4.40254 -0.765094 -3.0277 -0.827034 0.693142 -1.04017
1 6.02794 0 0 0.215033 0.353244 -0.523809
2 11.7344 0 0 -0.0014028 0 -1.23115
3 8.81138 -0.000452042 -0.00011301 -2.09021 0 0.000157634
4 5.77839 0.000286102 0 -1.40044 0 0
5 2.23163 -0.000328064 -0.000364304 -0.689769 0 0
6 11.4725 0 0 -2.06954 0.214017 0.275645
7 0.615221 -0.993093 -0.810699 3.13843 0.250791 -0.497809
8 2.24752 0 0 0.0876459 0.074742 0.0979189
9 1.11936 0 0 0.10922 0.023622 0.177412
10 3.71348 -0.102639 0.10219 1.46942 0.773555 -0.173756
11 1.72615 0 0 0.0282559 -0.00392504 -1.54455
12 1.21114 0 0 -0.000154017 0.000329172 0.33414
13 3.59919 -1.06012 0.0708876 1.5195 0.284619 -0.269155
14 1.66069 0 0 -0.111391 0.0758241 -1.56569
15 1.16699 0 0 -0.00198904 -0.00149709 0.182279
16 2.18852 0.50104 0.0576582 1.53255 0.232941 0.064917
17 1.29609 0 0 0.0150819 -0.044341 -0.516749
18 1.62202 0.000713348 -0.000471115 0.038495 -0.011206 -1.72079
19 1.22241 0 0 0.00168796 -0.023678 0.388832
20 1.76707 1.27612 0.0366402 1.49342 0.346301 0.0637751
21 1.55588 0 0 -0.024872 -0.064598 -0.831289
22 1.24273 0 0 -0.000479084 0.000360926 -1.33483
23 0.784525 0 0 0.0161961 -0.00188099 0.403201
24 -2.4735 7.79394 -0.077753 -0.275371 0.252825 -2.41516
25 6.02794 0 0 0.608522 0.54142 0.110989
26 11.7344 0 0 0.00140279 0 2.04663
27 8.81167 0 0 0.684743 0 0
28 5.77884 0 0 0.458778 0 0
29 2.23249 0 0 0.225965 0 0
30 11.4725 0 0 0.966799 0.112107 -1.05558
31 0.615812 0.994372 -0.809165 2.77788 0.472288 0.10795
32 2.24752 0 0 -0.10444 -0.0368169 0.189869
33 1.11936 0 0 0.0409431 0.17253 0.992367
34 3.71348 0.102639 0.102191 -1.64963 0.584187 -0.369879
35 1.72615 0 0 -0.0181545 0.00311401 1.72396
36 1.21112 0 0 0.00667251 0.00800495 0.706752
37 3.5992 1.06012 0.070888 -1.58384 -0.010844 0.0017754
38 1.66069 0 0 0.0185095 0.075637 0.463161
39 1.16699 0 0 0.0410845 0.016021 0.836655
40 2.18853 -0.50104 0.0576591 -1.57144 -0.0521631 -0.199004
41 1.29609 0 0 0.0937335 0.100102 0.813136
42 1.62201 -0.000713348 -0.000470161 -0.0212592 -0.00856291 1.65517
43 1.2224 0 0 0 0.00653292 0.655771
44 1.76707 -1.27612 0.0366411 -1.41856 -0.0419569 -0.220998
45 1.55587 0 0 -0.0176207 0.0420967 0.790849
46 1.24273 0 0 0.000478881 0.000360953 1.35859
47 0.784531 0 0 -0.00138839 0.00235196 0.814052
48 0 0 0 0 0 0
49 -5.70544 3.89407 -6.30391 2.62262 -1.52382 -2.51692
50 -4.47385 -19.2413 -3.68121 -3.11751 -0.773737 3.12021
51 -4.34462 3.25578 -7.03863 -2.15995 -1.55008 2.1555
52 -4.48647 -19.8038 -2.79813 -2.15995 -1.55008 2.1555
53 -4.99 -8.26755 -4.56645 0 0 0
54 0.561591 -3.29538 -0.157575 -0.0172281 -0.0115139 -0.0043546
55 -0.439463 -5.01739 0.910445 0 0 0
56 0 -2.26997 1.22871 0.02068 0 0
57 0 -5.92124 1.78377 0 0 0
58 0 -2.12202 -0.0619297 0 0 0
59 -0.575001 -1.69351 1.13699 0 0 0
60 0 -4.97525 -0.469841 0 0 0
61 0.694227 -1.89081 0.409988 0 0 0
time 14
0 4.40254 -0.765094 -3.0277 -0.827034 0.693142 -1.04017
1 6.02794 0 0 0.213864 0.352765 -0.525785
2 11.7344 0 0 -0.0014028 0 -1.22703
3 8.81138 -0.000448227 -0.000110626 -2.08928 0 0.000157261
4 5.77839 0.000286102 0 -1.39982 0 0
5 2.23163 -0.000328064 -0.000362396 -0.689463 0 0
6 11.4725 0 0 -2.06914 0.215248 0.272993
7 0.615219 -0.993092 -0.810699 3.13843 0.250791 -0.497809
8 2.24752 0 0 0.0876461 0.0747419 0.0979191
9 1.11936 0 0 0.10922 0.023622 0.177412
10 3.71348 -0.102642 0.102191 1.46942 0.773555 -0.173756
11 1.72615 0 0 0.0282562 -0.0039251 -1.54455
12 1.21114 0 0 -0.000154208 0.000329205 0.33414
13 3.59919 -1.06012 0.0708885 1.5195 0.284619 -0.269155
14 1.66069 0 0 -0.111391 0.075824 -1.56569
15 1.167 0 0 -0.00198909 -0.00149697 0.182279
16 2.18852 0.501038 0.0576591 1.53255 0.232941 0.0649169
17 1.29609 0 0 0.0150819 -0.044341 -0.516749
18 1.62202 0.000715256 -0.000472069 0.038495 -0.011206 -1.72079
19 1.22241 0 0 0.00168791 -0.0236779 0.388832
20 1.76707 1.27612 0.0366402 1.49342 0.346301 0.0637751
21 1.55588 0 0 -0.024872 -0.0645982 -0.831289
22 1.24273 0 0 -0.000479051 0.000361028 -1.33483
23 0.784523 0 0 0.0161959 -0.00188092 0.403201
24 -2.4735 7.79394 -0.077753 -0.275371 0.252825 -2.41516
25 6.02794 0 0 0.609597 0.540431 0.112779
26 11.7344 0 0 0.00140273 0 2.04342
27 8.81167 0 0 0.686363 0 0
28 5.77884 0 0 0.459863 0 0
29 2.23249 0 0 0.2265 0 0
30 11.4725 0 0 0.967283 0.111693 -1.05364
31 0.615812 0.994372 -0.809165 2.77788 0.472288 0.10795
32 2.24752 0 0 -0.10444 -0.036817 0.189869
33 1.11936 0 0 0.040943 0.17253 0.992367
34 3.71348 0.102639 0.102191 -1.64963 0.584187 -0.369879
35 1.72615 0 0 -0.0181545 0.00311409 1.72396
36 1.21112 0 0 0.00667256 0.00800498 0.706752
37 3.5992 1.06012 0.0708885 -1.58384 -0.010844 0.00177549
38 1.66069 0 0 0.0185096 0.075637 0.463161
39 1.16699 0 0 0.0410845 0.016021 0.836655
40 2.18853 -0.50104 0.0576591 -1.57144 -0.052163 -0.199004
41 1.29609 0 0 0.0937334 0.100102 0.813136
42 1.62202 -0.000713348 -0.000469685 -0.0212591 -0.00856302 1.65517
43 1.2224 0 0 0 0.00653296 0.655771
44 1.76707 -1.27612 0.0366416 -1.41856 -0.041957 -0.220998
45 1.55587 0 0 -0.0176208 0.0420968 0.79085
46 1.24273 0 0 0.00047885 0.000360978 1.35859
47 0.784532 0 0 -0.00138837 0.00235201 0.814052
48 0 0 0 0 0 0
49 -5.81762 3.88116 -6.11135 2.5979 -1.51966 -2.48088
50 -4.47227 -19.2726 -3.67684 -3.1166 -0.773077 3.1194
51 -4.33698 3.22223 -7.04913 -2.16786 -1.54916 2.16323
52 -4.48556 -19.8345 -2.79339 -2.16786 -1.54916 2.16323
53 -4.99 -8.26755 -4.56645 0 0 0
54 0.565168 -3.32738 -0.158277 -0.0178906 -0.0121622 -0.0045197
55 -0.439463 -5.01739 0.910445 0 0 0
56 0 -2.26997 1.22871 0.02068 0 0
57 0 -5.92124 1.78377 0 0 0
58 0 -2.12203 -0.0619297 0 0 0
59 -0.575 -1.69351 1.13699 0 0 0
60 0 -4.97525 -0.469841 0 0 0
61 0.694227 -1.89081 0.409988 0 0 0
time 15
0 4.40254 -0.765094 -3.0277 -0.827034 0.693142 -1.04017
1 6.02794 0 0 0.212486 0.352094 -0.528001
2 11.7344 0 0 -0.00140278 0 -1.22204
3 8.81138 -0.000448227 -0.00011158 -2.08855 0 0.000157113
4 5.77839 0.000286102 0 -1.39933 0 0
5 2.23163 -0.000328064 -0.00036335 -0.689223 0 0
6 11.4725 0 0 -2.06898 0.21684 0.270071
7 0.615219 -0.993093 -0.810699 3.13843 0.250791 -0.497809
8 2.24752 0 0 0.0876461 0.074742 0.097919
9 1.11936 0 0 0.10922 0.023622 0.177412
10 3.71348 -0.10264 0.102191 1.46942 0.773555 -0.173756
11 1.72615 0 0 0.0282561 -0.00392497 -1.54455
12 1.21114 0 0 -0.000154105 0.000329187 0.33414
13 3.59919 -1.06012 0.0708885 1.5195 0.284619 -0.269155
14 1.66068 0 0 -0.111391 0.0758241 -1.56569
15 1.167 0 0 -0.00198909 -0.00149703 0.182279
16 2.18852 0.501039 0.0576591 1.53255 0.232941 0.064917
17 1.29609 0 0 0.0150819 -0.0443411 -0.516749
18 1.62202 0.000713348 -0.000471115 0.038495 -0.0112059 -1.72079
19 1.22241 0 0 0.00168784 -0.0236779 0.388832
20 1.76707 1.27612 0.0366402 1.49342 0.346301 0.063775
21 1.55588 0 0 -0.024872 -0.0645981 -0.831289
22 1.24273 0 0 -0.000479047 0.000360879 -1.33483
23 0.784523 0 0 0.016196 -0.001881 0.403201
24 -2.4735 7.79394 -0.077753 -0.275371 0.252825 -2.41516
25 6.02794 0 0 0.611779 0.539178 0.115535
26 11.7344 0 0 0.00140267 0 2.03935
27 8.81167 0 0 0.687913 0 0
28 5.77884 0 0 0.460901 0 0
29 2.23249 0 0 0.227011 0 0
30 11.4725 0 0 0.96737 0.112084 -1.05192
31 0.615812 0.994372 -0.809165 2.77788 0.472288 0.10795
32 2.24752 0 0 -0.10444 -0.036817 0.189869
33 1.11936 0 0 0.040943 0.17253 0.992367
34 3.71348 0.102638 0.102191 -1.64963 0.584187 -0.369879
35 1.72615 0 0 -0.0181543 0.00311388 1.72396
36 1.21112 0 0 0.00667245 0.00800504 0.706752
37 3.5992 1.06012 0.0708876 -1.58384 -0.0108439 0.00177531
38 1.66069 0 0 0.0185096 0.075637 0.463161
39 1.16699 0 0 0.0410845 0.016021 0.836655
40 2.18853 -0.501041 0.0576582 -1.57144 -0.052163 -0.199004
41 1.29609 0 0 0.0937335 0.100102 0.813136
42 1.62201 -0.000713348 -0.000469685 -0.0212592 -0.00856292 1.65517
43 1.2224 0 0 0 0.00653298 0.655771
44 1.76707 -1.27612 0.0366402 -1.41856 -0.0419569 -0.220998
45 1.55587 0 0 -0.0176207 0.0420967 0.790849
46 1.24273 0 0 0.000478951 0.000360916 1.35859
47 0.784531 0 0 -0.0013884 0.00235203 0.814052
48 0 0 0 0 0 0
49 -5.92943 3.85935 -5.90995 2.57435 -1.51504 -2.44597
50 -4.46828 -19.3137 -3.67272 -3.11633 -0.772258 3.11918
51 -4.3294 3.18042 -7.04953 -2.19306 -1.54853 2.18839
52 -4.48231 -19.8754 -2.78916 -2.19306 -1.54853 2.18839
53 -4.99 -8.26755 -4.56645 0 0 0
54 0.570302 -3.3687 -0.155698 -0.018093 -0.0129781 -0.00455468
55 -0.439463 -5.01739 0.910444 0 0 0
56 0 -2.26997 1.22871 0.02068 0 0
57 0 -5.92124 1.78377 0 0 0
58 0 -2.12202 -0.0619302 0 0 0
59 -0.575001 -1.69351 1.13699 0 0 0
60 0 -4.97524 -0.469842 0 0 0
61 0.694227 -1.89081 0.409987 0 0 0
time 16
0 4.40254 -0.765094 -3.0277 -0.827034 0.693142 -1.04017
1 6.02794 0 0 0.211035 0.351352 -0.530305
2 11.7344 0 0 -0.00140293 0 -1.21661
3 8.81138 -0.000450134 -0.000112057 -2.088 0 0.000158024
4 5.77839 0.000286102 0 -1.39896 0 0.000100046
5 2.23163 -0.000329971 -0.000363827 -0.689039 0 0
6 11.4725 0 0 -2.069 0.218609 0.267077
7 0.615219 -0.993091 -0.810699 3.13843 0.250791 -0.497809
8 2.24752 0 0 0.087646 0.074742 0.0979192
9 1.11936 0 0 0.10922 0.023622 0.177412
10 3.71348 -0.102641 0.102191 1.46942 0.773555 -0.173756
11 1.72615 0 0 0.028256 -0.00392504 -1.54455
12 1.21114 0 0 -0.000153986 0.000329046 0.33414
13 3.59919 -1.06012 0.0708895 1.5195 0.284619 -0.269155
14 1.66069 0 0 -0.111391 0.0758239 -1.56569
15 1.167 0 0 -0.001989 -0.00149692 0.182279
16 2.18852 0.50104 0.0576591 1.53255 0.232941 0.0649169
17 1.29609 0 0 0.0150821 -0.044341 -0.516749
18 1.62202 0.000713348 -0.000469208 0.038495 -0.011206 -1.72079
19 1.22241 0 0 0.0016879 -0.0236781 0.388832
20 1.76707 1.27612 0.0366421 1.49342 0.346301 0.0637749
21 1.55588 0 0 -0.0248719 -0.064598 -0.831289
22 1.24274 0 0 -0.00047893 0.000360971 -1.33483
23 0.784525 0 0 0.0161959 -0.00188099 0.403201
24 -2.4735 7.79394 -0.077753 -0.275371 0.252825 -2.41516
25 6.02794 0 0 0.614661 0.53778 0.118864
26 11.7344 0 0 0.00140268 0 2.03478
27 8.81167 0 0 0.689368 0 0
28 5.77884 0 0 0.461877 0 0
29 2.23249 0 0 0.227492 0 0
30 11.4725 0 0 0.967174 0.113027 -1.0504
31 0.615812 0.994372 -0.809165 2.77788 0.472288 0.10795
32 2.24752 0 0 -0.10444 -0.036817 0.189869
33 1.11936 0 0 0.040943 0.17253 0.992367
34 3.71348 0.102639 0.10219 -1.64963 0.584187 -0.369879
35 1.72615 0 0 -0.0181545 0.00311404 1.72396
36 1.21112 0 0 0.00667257 0.00800506 0.706752
37 3.5992 1.06012 0.0708876 -1.58384 -0.0108441 0.00177537
38 1.66069 0 0 0.0185095 0.0756369 0.463161
39 1.16699 0 0 0.0410845 0.016021 0.836655
40 2.18853 -0.50104 0.0576582 -1.57144 -0.0521631 -0.199003
41 1.29609 0 0 0.0937335 0.100102 0.813136
42 1.62201 -0.000713348 -0.000469685 -0.0212591 -0.008563 1.65517
43 1.2224 0 0 0 0.00653308 0.655771
44 1.76707 -1.27612 0.0366402 -1.41856 -0.041957 -0.220998
45 1.55587 0 0 -0.0176207 0.0420967 0.790849
46 1.24273 0 0 0.000478914 0.000360984 1.35859
47 0.784532 0 0 -0.00138843 0.00235195 0.814052
48 0 0 0 0 0 0
49 -6.03984 3.83289 -5.70469 2.55316 -1.51014 -2.41354
50 -4.4633 -19.3598 -3.66916 -3.11656 -0.771361 3.11937
51 -4.32215 3.13484 -7.04261 -2.22912 -1.54811 2.22447
52 -4.4781 -19.9216 -2.7857 -2.22912 -1.54811 2.22447
53 -4.99 -8.26755 -4.56645 0 0 0
54 0.575968 -3.41462 -0.150992 -0.0179445 -0.0138777 -0.00452218
55 -0.439464 -5.01739 0.910444 0 0 0
56 0 -2.26997 1.22871 0.02068 0 0
57 0 -5.92124 1.78377 0 0 0
58 0 -2.12202 -0.0619297 0 0 0
59 -0.575001 -1.69351 1.13699 0 0 0
60 0 -4.97524 -0.469842 0 0 0
61 0.694226 -1.89081 0.409987 0 0 0
time 17
0 4.40254 -0.765094 -3.0277 -0.827034 0.693142 -1.04017
1 6.02794 0 0 0.209644 0.350655 -0.532541
2 11.7344 0 0 -0.00140287 0 -1.21121
3 8.81138 -0.000448227 -0.000112534 -2.08759 0 0.000157676
4 5.77839 0.000284195 0 -1.39868 0 0
5 2.23163 -0.000328064 -0.000364304 -0.688904 0 0
6 11.4725 0 0 -2.06913 0.220373 0.264214
7 0.615218 -0.99309 -0.810699 3.13843 0.250791 -0.497809
8 2.24752 0 0 0.087646 0.074742 0.0979191
9 1.11936 0 0 0.10922 0.023622 0.177412
10 3.71348 -0.102642 0.10219 1.46942 0.773555 -0.173756
11 1.72615 0 0 0.028256 -0.003925 -1.54455
12 1.21114 0 0 -0.000154059 0.000329058 0.33414
13 3.59919 -1.06012 0.0708885 1.5195 0.284619 -0.269155
14 1.66068 0 0 -0.111391 0.075824 -1.56569
15 1.167 0 0 -0.00198901 -0.0014971 0.182279
16 2.18853 0.50104 0.0576591 1.53255 0.232941 0.0649171
17 1.29609 0 0 0.015082 -0.0443411 -0.516749
18 1.62202 0.000713348 -0.000472069 0.038495 -0.011206 -1.72079
19 1.22241 0 0 0.00168805 -0.0236781 0.388832
20 1.76707 1.27612 0.0366402 1.49342 0.346301 0.0637751
21 1.55588 0 0 -0.0248721 -0.0645981 -0.831289
22 1.24274 0 0 -0.000479101 0.00036114 -1.33483
23 0.784523 0 0 0.016196 -0.00188099 0.403201
24 -2.4735 7.79394 -0.077753 -0.275371 0.252825 -2.41516
25 6.02794 0 0 0.617747 0.536467 0.122198
26 11.7344 0 0 0.00140272 0 2.03045
27 8.81167 0 0 0.690552 0 0
28 5.77884 0 0 0.46267 0 0
29 2.23249 0 0 0.227882 0 0
30 11.4725 0 0 0.966807 0.114266 -1.04927
31 0.615812 0.994372 -0.809166 2.77788 0.472288 0.10795
32 2.24752 0 0 -0.10444 -0.036817 0.189869
33 1.11936 0 0 0.040943 0.17253 0.992367
34 3.71348 0.102639 0.102191 -1.64963 0.584187 -0.369879
35 1.72615 0 0 -0.0181545 0.00311399 1.72396
36 1.21112 0 0 0.00667253 0.00800499 0.706752
37 3.5992 1.06012 0.0708876 -1.58384 -0.010844 0.00177539
38 1.66069 0 0 0.0185095 0.075637 0.463161
39 1.16699 0 0 0.0410845 0.016021 0.836655
40 2.18853 -0.50104 0.0576587 -1.57144 -0.052163 -0.199004
41 1.29609 0 0 0.0937335 0.100102 0.813136
42 1.62202 -0.000713348 -0.000470161 -0.0212591 -0.00856288 1.65517
43 1.2224 0 0 0 0.00653293 0.655771
44 1.76707 -1.27612 0.0366406 -1.41856 -0.0419568 -0.220998
45 1.55587 0 0 -0.0176207 0.0420967 0.790849
46 1.24273 0 0 0.00047891 0.000361026 1.35859
47 0.784531 0 0 -0.00138841 0.00235199 0.814052
48 0 0 0 0 0 0
49 -6.14774 3.80607 -5.50051 2.53471 -1.50514 -2.38417
50 -4.45874 -19.406 -3.6665 -3.11713 -0.770468 3.11981
51 -4.31552 3.08999 -7.03113 -2.27055 -1.54785 2.26594
52 -4.47431 -19.9681 -2.78327 -2.27055 -1.54785 2.26594
53 -4.99 -8.26755 -4.56645 0 0 0
54 0.58114 -3.46037 -0.145317 -0.0175544 -0.0147775 -0.00448482
55 -0.439464 -5.01739 0.910445 0 0 0
56 0 -2.26997 1.22871 0.02068 0 0
57 0 -5.92124 1.78377 0 0 0
58 0 -2.12203 -0.0619297 0 0 0
59 -0.575001 -1.69351 1.13699 0 0 0
60 0 -4.97524 -0.469841 0 0 0
61 0.694227 -1.89081 0.409988 0 0 0
time 18
0 4.40254 -0.765094 -3.0277 -0.827034 0.693142 -1.04017
1 6.02794 0 0 0.208449 0.35012 -0.534552
2 11.7344 0 0 -0.00140288 0 -1.2063
3 8.81138 -0.000448227 -0.000112534 -2.0873 0 0.000157859
4 5.77839 0.000286102 0 -1.39849 0 0
5 2.23163 -0.000328064 -0.000364304 -0.68881 0 0
6 11.4725 0 0 -2.06933 0.221954 0.261684
7 0.615218 -0.993092 -0.8107 3.13843 0.250791 -0.497809
8 2.24752 0 0 0.087646 0.074742 0.097919
9 1.11936 0 0 0.10922 0.023622 0.177412
10 3.71348 -0.10264 0.10219 1.46942 0.773555 -0.173756
11 1.72615 0 0 0.0282559 -0.00392504 -1.54455
12 1.21114 0 0 -0.000153873 0.000329088 0.33414
13 3.59919 -1.06012 0.0708866 1.5195 0.284619 -0.269155
14 1.66069 0 0 -0.111391 0.075824 -1.56569
15 1.167 0 0 -0.001989 -0.00149698 0.182279
16 2.18852 0.50104 0.0576591 1.53255 0.232941 0.0649169
17 1.29609 0 0 0.0150819 -0.044341 -0.516749
18 1.62202 0.000713348 -0.000471115 0.0384949 -0.0112059 -1.72079
19 1.22241 0 0 0.00168794 -0.0236781 0.388832
20 1.76707 1.27612 0.0366402 1.49342 0.346301 0.0637749
21 1.55588 0 0 -0.024872 -0.0645978 -0.831289
22 1.24274 0 0 -0.000478991 0.000360999 -1.33483
23 0.784523 0 0 0.0161961 -0.00188095 0.403201
24 -2.4735 7.79394 -0.077753 -0.275371 0.252825 -2.41516
25 6.02794 0 0 0.620696 0.535309 0.125254
26 11.7344 0 0 0.00140279 0 2.02652
27 8.81167 0 0 0.69151 0 0
28 5.77884 0 0 0.463312 0 0
29 2.23249 0 0 0.228198 0 0
30 11.4725 0 0 0.966375 0.115553 -1.0484
31 0.615813 0.994372 -0.809165 2.77788 0.472288 0.10795
32 2.24752 0 0 -0.10444 -0.0368169 0.189869
33 1.11936 0 0 0.040943 0.17253 0.992367
34 3.71348 0.102638 0.102191 -1.64963 0.584187 -0.369879
35 1.72615 0 0 -0.0181545 0.00311408 1.72396
36 1.21112 0 0 0.00667249 0.00800494 0.706752
37 3.5992 1.06012 0.070888 -1.58384 -0.0108439 0.00177537
38 1.66069 0 0 0.0185096 0.075637 0.463161
39 1.16699 0 0 0.0410845 0.016021 0.836655
40 2.18853 -0.50104 0.0576591 -1.57144 -0.0521629 -0.199004
41 1.29609 0 0 0.0937334 0.100102 0.813136
42 1.62202 -0.000713348 -0.000470161 -0.021259 -0.00856298 1.65517
43 1.2224 0 0 0 0.00653303 0.655771
44 1.76707 -1.27612 0.0366411 -1.41856 -0.0419569 -0.220998
45 1.55587 0 0 -0.0176207 0.0420968 0.790849
46 1.24273 0 0 0.000478871 0.000361038 1.35859
47 0.784532 0 0 -0.00138836 0.00235204 0.814052
48 0 0 0 0 0 0
49 -6.25193 3.78339 -5.30232 2.51892 -1.50023 -2.35797
50 -4.45603 -19.4474 -3.66503 -3.11788 -0.769661 3.12032
51 -4.30978 3.05034 -7.01787 -2.31217 -1.54771 2.30753
52 -4.47234 -20.01 -2.7821 -2.31217 -1.54771 2.30753
53 -4.99 -8.26755 -4.56645 0 0 0
54 0.584794 -3.50122 -0.139826 -0.017032 -0.0155935 -0.00450524
55 -0.439463 -5.01739 0.910445 0 0 0
56 0 -2.26997 1.22871 0.02068 0 0
57 0 -5.92124 1.78377 0 0 0
58 0 -2.12202 -0.0619297 0 0 0
59 -0.575001 -1.69351 1.13699 0 0 0
60 0 -4.97524 -0.469842 0 0 0
61 0.694227 -1.89081 0.409987 0 0 0
time 19
0 4.40254 -0.765094 -3.0277 -0.827034 0.693142 -1.04017
1 6.02794 0 0 0.207581 0.349862 -0.536174
2 11.7344 0 0 -0.0014029 0 -1.20234
3 8.81138 -0.000450134 -0.000112057 -2.08713 0 0.000158246
4 5.77839 0.000286102 0 -1.39838 0 0.000100218
5 2.23163 -0.000328064 -0.000363827 -0.688752 0 0
6 11.4725 0 0 -2.06952 0.223173 0.25969
7 0.615218 -0.993091 -0.8107 3.13843 0.250791 -0.497809
8 2.24752 0 0 0.0876461 0.074742 0.0979191
9 1.11936 0 0 0.10922 0.023622 0.177412
10 3.71348 -0.102642 0.10219 1.46942 0.773555 -0.173756
11 1.72615 0 0 0.0282561 -0.00392512 -1.54455
12 1.21113 0 0 -0.000154066 0.000329241 0.33414
13 3.59919 -1.06012 0.0708876 1.5195 0.284619 -0.269155
14 1.66069 0 0 -0.111391 0.0758242 -1.56569
15 1.167 0 0 -0.00198901 -0.00149716 0.182279
16 2.18852 0.501039 0.0576591 1.53255 0.232941 0.0649169
17 1.29609 0 0 0.015082 -0.044341 -0.516749
18 1.62202 0.000713348 -0.000472069 0.038495 -0.0112059 -1.72079
19 1.22241 0 0 0.00168815 -0.023678 0.388832
20 1.76707 1.27612 0.0366402 1.49342 0.346301 0.0637749
21 1.55588 0 0 -0.0248719 -0.0645978 -0.831289
22 1.24273 0 0 -0.000478867 0.000360794 -1.33483
23 0.784521 0 0 0.0161961 -0.00188099 0.403201
24 -2.4735 7.79394 -0.077753 -0.275371 0.252825 -2.41516
25 6.02794 0 0 0.623087 0.534501 0.12757
26 11.7344 0 0 0.00140272 0 2.02354
27 8.81167 0 0 0.692125 0 0
28 5.77884 0 0 0.463723 0 0
29 2.23249 0 0 0.228401 0 0
30 11.4725 0 0 0.965974 0.116643 -1.0479
31 0.615811 0.994372 -0.809165 2.77788 0.472287 0.10795
32 2.24752 0 0 -0.10444 -0.036817 0.189869
33 1.11936 0 0 0.040943 0.17253 0.992367
34 3.71348 0.102639 0.102191 -1.64963 0.584187 -0.369879
35 1.72615 0 0 -0.0181544 0.00311402 1.72396
36 1.21112 0 0 0.0066726 0.00800496 0.706752
37 3.5992 1.06012 0.070889 -1.58384 -0.0108441 0.00177545
38 1.66069 0 0 0.0185096 0.075637 0.463161
39 1.16699 0 0 0.0410844 0.016021 0.836655
40 2.18853 -0.50104 0.0576591 -1.57144 -0.0521631 -0.199004
41 1.29609 0 0 0.0937334 0.100102 0.813136
42 1.62202 -0.000713348 -0.000469685 -0.0212591 -0.0085631 1.65517
43 1.2224 0 0 0 0.00653291 0.655771
44 1.76707 -1.27612 0.0366411 -1.41856 -0.0419571 -0.220998
45 1.55587 0 0 -0.0176208 0.0420968 0.79085
46 1.24273 0 0 0.000478905 0.00036101 1.35859
47 0.784531 0 0 -0.0013884 0.00235203 0.814052
48 0 0 0 0 0 0
49 -6.35112 3.76939 -5.115 2.50545 -1.49559 -2.33477
50 -4.45661 -19.4791 -3.66508 -3.11865 -0.769022 3.12072
51 -4.30521 3.02037 -7.00562 -2.34877 -1.54765 2.34399
52 -4.47357 -20.0422 -2.78247 -2.34877 -1.54765 2.34399
53 -4.99 -8.26755 -4.56645 0 0 0
54 0.585904 -3.53243 -0.135675 -0.0164864 -0.0162421 -0.00464606
55 -0.439463 -5.01739 0.910444 0 0 0
56 0 -2.26997 1.22871 0.02068 0 0
57 0 -5.92124 1.78377 0 0 0
58 0 -2.12202 -0.0619302 0 0 0
59 -0.575001 -1.69351 1.13699 0 0 0
60 0 -4.97524 -0.469841 0 0 0
61 0.694226 -1.89081 0.409987 0 0 0
end
