//Sequence File generated by the Wall Worm SMD Exporter PRO 1.99
//www.wallworm.com
version 1
nodes
0 "b_zero" -1
1 "b_r_clav" 0
2 "b_r_upperarm" 1
3 "b_r_forearm" 2
4 "b_r_twist3" 3
5 "b_r_twist2" 3
6 "b_r_twist1" 3
7 "b_r_hand" 3
8 "b_r_thumb001" 7
9 "b_r_thumb002" 8
10 "b_r_thumb003" 9
11 "b_r_middle001" 7
12 "b_r_middle002" 11
13 "b_r_middle003" 12
14 "b_r_index001" 7
15 "b_r_index002" 14
16 "b_r_index003" 15
17 "b_r_hand_ringsqueezer" 7
18 "b_r_ring001" 17
19 "b_r_ring002" 18
20 "b_r_ring003" 19
21 "b_r_hand_pinkysqueezer" 7
22 "b_r_pinky001" 21
23 "b_r_pinky002" 22
24 "b_r_pinky003" 23
25 "b_l_clav" 0
26 "b_l_upperarm" 25
27 "b_l_forearm" 26
28 "b_l_twist3" 27
29 "b_l_twist2" 27
30 "b_l_twist1" 27
31 "b_l_hand" 27
32 "b_l_thumb001" 31
33 "b_l_thumb002" 32
34 "b_l_thumb003" 33
35 "b_l_middle001" 31
36 "b_l_middle002" 35
37 "b_l_middle003" 36
38 "b_l_index001" 31
39 "b_l_index002" 38
40 "b_l_index003" 39
41 "b_l_hand_ringsqueezer" 31
42 "b_l_ring001" 41
43 "b_l_ring002" 42
44 "b_l_ring003" 43
45 "b_l_hand_pinkysqueezer" 31
46 "b_l_pinky001" 45
47 "b_l_pinky002" 46
48 "b_l_pinky003" 47
end
skeleton
time 0
0 0 0 0 0 0 0
1 -1.93761 -1.34664 1.82283 -0.000932693 0 3.14159
2 6.02794 0 0 -0.000187397 0 -0.0558807
3 11.7344 0 0 0.0014027 0 0.113048
4 8.81167 0 0 -0.00105613 0 0
5 5.77884 0 0 -0.000707606 0 0
6 2.23249 0 0 -0.000348522 0 0
7 11.4725 0 0 -0.00105379 0 -0.0571609
8 0.615812 0.994372 -0.809165 -2.33375 0.188502 0.680307
9 2.24752 0 0 -0.0910121 0.0753145 -0.0432825
10 1.11936 0 0 -0.0944248 0.0363586 -0.0310035
11 3.71348 0.102639 0.102191 -1.55999 -0.0420337 -0.0798626
12 1.72615 0 0 0.00207066 -0.0284524 0.0390827
13 1.21112 0 0 -0.00991395 0.014586 0.000446807
14 3.5992 1.06012 0.0708882 -1.55963 0.00161938 0.0627619
15 1.66069 0 0 -0.0179103 0.075781 -0.00940114
16 1.16699 0 0 0.0151709 0.0454569 -0.0402751
17 2.18853 -0.501041 0.057659 -1.57004 -0.0521617 -0.225938
18 1.29609 0 0 0.00692333 -0.0463194 0.0403296
19 1.62202 -0.000713348 -0.000470161 0.0170535 -0.0362868 -0.00632048
20 1.22241 0 0 -0.0104111 -0.0213342 -0.00596808
21 1.76707 -1.27612 0.0366405 -1.57004 -0.0293956 -0.261465
22 1.55588 0 0 0.0101481 0.0309805 0.0220302
23 1.24274 0 0 0.000478944 0.000360597 0.0344315
24 0.784538 0 0 -0.0158299 0.00390861 -0.0455418
25 1.938 -1.34664 1.82283 0.000934124 0 0
26 6.02794 0 0 0.000187746 0 0.0558755
27 11.7344 0 0 -0.00140285 0 -0.11304
28 8.81138 -0.000449687 -0.000112176 -0.000487971 0 0.000157763
29 5.77839 0.000286311 0 -0.00032694 0 0.000105709
30 2.23163 -0.000329345 -0.000363946 -0.00016103 0 0
31 11.4725 0 0 -0.000492816 0 0.0571578
32 0.615219 -0.993091 -0.8107 2.34144 0.189471 -0.680076
33 2.24752 0 0 0.0836854 0.0791542 0.0464054
34 1.11936 0 0 0.0942835 0.0346568 0.0282656
35 3.71348 -0.102641 0.102191 1.55999 -0.0420332 0.0798625
36 1.72615 0 0 -0.00207046 -0.0284524 -0.0390825
37 1.21114 0 0 0.00991423 0.014586 -0.000446801
38 3.5992 -1.06012 0.0708882 1.55963 0.00161932 -0.0627623
39 1.66069 0 0 0.0179106 0.0757813 0.00940095
40 1.16699 0 0 -0.0151707 0.0454569 0.0402757
41 2.18852 0.50104 0.057659 1.57004 -0.0521617 0.225938
42 1.29609 0 0 -0.00692371 -0.0463195 -0.04033
43 1.62202 0.000713587 -0.000471115 -0.0170531 -0.0362868 0.00632033
44 1.22241 0 0 0.010411 -0.0213342 0.00596803
45 1.76707 1.27612 0.036641 1.57004 -0.0293956 0.261465
46 1.55588 0 0 -0.0101482 0.0309801 -0.0220303
47 1.24273 0 0 -0.000479277 0.000360472 -0.0344315
48 0.784523 0 0 0.0158301 0.00390859 0.0455419
time 1
0 0 0 0 0 0 0
1 -1.93761 -1.34664 1.82283 -0.000932693 0 3.14159
2 6.02794 0 0 -0.000187397 0 -0.0558807
3 11.7344 0 0 0.0014027 0 0.113048
4 8.81167 0 0 -0.00105613 0 0
5 5.77884 0 0 -0.000707606 0 0
6 2.23249 0 0 -0.000348522 0 0
7 11.4725 0 0 -0.00105379 0 -0.0571609
8 0.615812 0.994372 -0.809165 -2.33375 0.188502 0.680307
9 2.24752 0 0 -0.0910121 0.0753145 -0.0432825
10 1.11936 0 0 -0.0944248 0.0363586 -0.0310035
11 3.71348 0.102639 0.102191 -1.55999 -0.0420337 -0.0798626
12 1.72615 0 0 0.00207066 -0.0284524 0.0390827
13 1.21112 0 0 -0.00991395 0.014586 0.000446807
14 3.5992 1.06012 0.0708882 -1.55963 0.00161938 0.0627619
15 1.66069 0 0 -0.0179103 0.075781 -0.00940114
16 1.16699 0 0 0.0151709 0.0454569 -0.0402751
17 2.18853 -0.501041 0.057659 -1.57004 -0.0521617 -0.225938
18 1.29609 0 0 0.00692333 -0.0463194 0.0403296
19 1.62202 -0.000713348 -0.000470161 0.0170535 -0.0362868 -0.00632048
20 1.22241 0 0 -0.0104111 -0.0213342 -0.00596808
21 1.76707 -1.27612 0.0366405 -1.57004 -0.0293956 -0.261465
22 1.55588 0 0 0.0101481 0.0309805 0.0220302
23 1.24274 0 0 0.000478944 0.000360597 0.0344315
24 0.784538 0 0 -0.0158299 0.00390861 -0.0455418
25 1.938 -1.34664 1.82283 0.000934124 0 0
26 6.02794 0 0 0.000187746 0 0.0558755
27 11.7344 0 0 -0.00140285 0 -0.11304
28 8.81138 -0.000449687 -0.000112176 -0.000487971 0 0.000157763
29 5.77839 0.000286311 0 -0.00032694 0 0.000105709
30 2.23163 -0.000329345 -0.000363946 -0.00016103 0 0
31 11.4725 0 0 -0.000492816 0 0.0571578
32 0.615219 -0.993091 -0.8107 2.34144 0.189471 -0.680076
33 2.24752 0 0 0.0836854 0.0791542 0.0464054
34 1.11936 0 0 0.0942835 0.0346568 0.0282656
35 3.71348 -0.102641 0.102191 1.55999 -0.0420332 0.0798625
36 1.72615 0 0 -0.00207046 -0.0284524 -0.0390825
37 1.21114 0 0 0.00991423 0.014586 -0.000446801
38 3.5992 -1.06012 0.0708882 1.55963 0.00161932 -0.0627623
39 1.66069 0 0 0.0179106 0.0757813 0.00940095
40 1.16699 0 0 -0.0151707 0.0454569 0.0402757
41 2.18852 0.50104 0.057659 1.57004 -0.0521617 0.225938
42 1.29609 0 0 -0.00692371 -0.0463195 -0.04033
43 1.62202 0.000713587 -0.000471115 -0.0170531 -0.0362868 0.00632033
44 1.22241 0 0 0.010411 -0.0213342 0.00596803
45 1.76707 1.27612 0.036641 1.57004 -0.0293956 0.261465
46 1.55588 0 0 -0.0101482 0.0309801 -0.0220303
47 1.24273 0 0 -0.000479277 0.000360472 -0.0344315
48 0.784523 0 0 0.0158301 0.00390859 0.0455419
time 2
0 0 0 0 0 0 0
1 -1.93761 -1.34664 1.82283 -0.000932693 0 3.14159
2 6.02794 0 0 -0.000187397 0 -0.0558807
3 11.7344 0 0 0.0014027 0 0.113048
4 8.81167 0 0 -0.00105613 0 0
5 5.77884 0 0 -0.000707606 0 0
6 2.23249 0 0 -0.000348522 0 0
7 11.4725 0 0 -0.00105379 0 -0.0571609
8 0.615812 0.994372 -0.809165 -2.33375 0.188502 0.680307
9 2.24752 0 0 -0.0910121 0.0753145 -0.0432825
10 1.11936 0 0 -0.0944248 0.0363586 -0.0310035
11 3.71348 0.102639 0.102191 -1.55999 -0.0420337 -0.0798626
12 1.72615 0 0 0.00207066 -0.0284524 0.0390827
13 1.21112 0 0 -0.00991395 0.014586 0.000446807
14 3.5992 1.06012 0.0708882 -1.55963 0.00161938 0.0627619
15 1.66069 0 0 -0.0179103 0.075781 -0.00940114
16 1.16699 0 0 0.0151709 0.0454569 -0.0402751
17 2.18853 -0.501041 0.057659 -1.57004 -0.0521617 -0.225938
18 1.29609 0 0 0.00692333 -0.0463194 0.0403296
19 1.62202 -0.000713348 -0.000470161 0.0170535 -0.0362868 -0.00632048
20 1.22241 0 0 -0.0104111 -0.0213342 -0.00596808
21 1.76707 -1.27612 0.0366405 -1.57004 -0.0293956 -0.261465
22 1.55588 0 0 0.0101481 0.0309805 0.0220302
23 1.24274 0 0 0.000478944 0.000360597 0.0344315
24 0.784538 0 0 -0.0158299 0.00390861 -0.0455418
25 1.938 -1.34664 1.82283 0.000934124 0 0
26 6.02794 0 0 0.000187746 0 0.0558755
27 11.7344 0 0 -0.00140285 0 -0.11304
28 8.81138 -0.000449687 -0.000112176 -0.000487971 0 0.000157763
29 5.77839 0.000286311 0 -0.00032694 0 0.000105709
30 2.23163 -0.000329345 -0.000363946 -0.00016103 0 0
31 11.4725 0 0 -0.000492816 0 0.0571578
32 0.615219 -0.993091 -0.8107 2.34144 0.189471 -0.680076
33 2.24752 0 0 0.0836854 0.0791542 0.0464054
34 1.11936 0 0 0.0942835 0.0346568 0.0282656
35 3.71348 -0.102641 0.102191 1.55999 -0.0420332 0.0798625
36 1.72615 0 0 -0.00207046 -0.0284524 -0.0390825
37 1.21114 0 0 0.00991423 0.014586 -0.000446801
38 3.5992 -1.06012 0.0708882 1.55963 0.00161932 -0.0627623
39 1.66069 0 0 0.0179106 0.0757813 0.00940095
40 1.16699 0 0 -0.0151707 0.0454569 0.0402757
41 2.18852 0.50104 0.057659 1.57004 -0.0521617 0.225938
42 1.29609 0 0 -0.00692371 -0.0463195 -0.04033
43 1.62202 0.000713587 -0.000471115 -0.0170531 -0.0362868 0.00632033
44 1.22241 0 0 0.010411 -0.0213342 0.00596803
45 1.76707 1.27612 0.036641 1.57004 -0.0293956 0.261465
46 1.55588 0 0 -0.0101482 0.0309801 -0.0220303
47 1.24273 0 0 -0.000479277 0.000360472 -0.0344315
48 0.784523 0 0 0.0158301 0.00390859 0.0455419
time 3
0 0 0 0 0 0 0
1 -1.93761 -1.34664 1.82283 -0.000932693 0 3.14159
2 6.02794 0 0 -0.000187397 0 -0.0558807
3 11.7344 0 0 0.0014027 0 0.113048
4 8.81167 0 0 -0.00105613 0 0
5 5.77884 0 0 -0.000707606 0 0
6 2.23249 0 0 -0.000348522 0 0
7 11.4725 0 0 -0.00105379 0 -0.0571609
8 0.615812 0.994372 -0.809165 -2.33375 0.188502 0.680307
9 2.24752 0 0 -0.0910121 0.0753145 -0.0432825
10 1.11936 0 0 -0.0944248 0.0363586 -0.0310035
11 3.71348 0.102639 0.102191 -1.55999 -0.0420337 -0.0798626
12 1.72615 0 0 0.00207066 -0.0284524 0.0390827
13 1.21112 0 0 -0.00991395 0.014586 0.000446807
14 3.5992 1.06012 0.0708882 -1.55963 0.00161938 0.0627619
15 1.66069 0 0 -0.0179103 0.075781 -0.00940114
16 1.16699 0 0 0.0151709 0.0454569 -0.0402751
17 2.18853 -0.501041 0.057659 -1.57004 -0.0521617 -0.225938
18 1.29609 0 0 0.00692333 -0.0463194 0.0403296
19 1.62202 -0.000713348 -0.000470161 0.0170535 -0.0362868 -0.00632048
20 1.22241 0 0 -0.0104111 -0.0213342 -0.00596808
21 1.76707 -1.27612 0.0366405 -1.57004 -0.0293956 -0.261465
22 1.55588 0 0 0.0101481 0.0309805 0.0220302
23 1.24274 0 0 0.000478944 0.000360597 0.0344315
24 0.784538 0 0 -0.0158299 0.00390861 -0.0455418
25 1.938 -1.34664 1.82283 0.000934124 0 0
26 6.02794 0 0 0.000187746 0 0.0558755
27 11.7344 0 0 -0.00140285 0 -0.11304
28 8.81138 -0.000449687 -0.000112176 -0.000487971 0 0.000157763
29 5.77839 0.000286311 0 -0.00032694 0 0.000105709
30 2.23163 -0.000329345 -0.000363946 -0.00016103 0 0
31 11.4725 0 0 -0.000492816 0 0.0571578
32 0.615219 -0.993091 -0.8107 2.34144 0.189471 -0.680076
33 2.24752 0 0 0.0836854 0.0791542 0.0464054
34 1.11936 0 0 0.0942835 0.0346568 0.0282656
35 3.71348 -0.102641 0.102191 1.55999 -0.0420332 0.0798625
36 1.72615 0 0 -0.00207046 -0.0284524 -0.0390825
37 1.21114 0 0 0.00991423 0.014586 -0.000446801
38 3.5992 -1.06012 0.0708882 1.55963 0.00161932 -0.0627623
39 1.66069 0 0 0.0179106 0.0757813 0.00940095
40 1.16699 0 0 -0.0151707 0.0454569 0.0402757
41 2.18852 0.50104 0.057659 1.57004 -0.0521617 0.225938
42 1.29609 0 0 -0.00692371 -0.0463195 -0.04033
43 1.62202 0.000713587 -0.000471115 -0.0170531 -0.0362868 0.00632033
44 1.22241 0 0 0.010411 -0.0213342 0.00596803
45 1.76707 1.27612 0.036641 1.57004 -0.0293956 0.261465
46 1.55588 0 0 -0.0101482 0.0309801 -0.0220303
47 1.24273 0 0 -0.000479277 0.000360472 -0.0344315
48 0.784523 0 0 0.0158301 0.00390859 0.0455419
time 4
0 0 0 0 0 0 0
1 -1.93761 -1.34664 1.82283 -0.000932693 0 3.14159
2 6.02794 0 0 -0.000187397 0 -0.0558807
3 11.7344 0 0 0.0014027 0 0.113048
4 8.81167 0 0 -0.00105613 0 0
5 5.77884 0 0 -0.000707606 0 0
6 2.23249 0 0 -0.000348522 0 0
7 11.4725 0 0 -0.00105379 0 -0.0571609
8 0.615812 0.994372 -0.809165 -2.33375 0.188502 0.680307
9 2.24752 0 0 -0.0910121 0.0753145 -0.0432825
10 1.11936 0 0 -0.0944248 0.0363586 -0.0310035
11 3.71348 0.102639 0.102191 -1.55999 -0.0420337 -0.0798626
12 1.72615 0 0 0.00207066 -0.0284524 0.0390827
13 1.21112 0 0 -0.00991395 0.014586 0.000446807
14 3.5992 1.06012 0.0708882 -1.55963 0.00161938 0.0627619
15 1.66069 0 0 -0.0179103 0.075781 -0.00940114
16 1.16699 0 0 0.0151709 0.0454569 -0.0402751
17 2.18853 -0.501041 0.057659 -1.57004 -0.0521617 -0.225938
18 1.29609 0 0 0.00692333 -0.0463194 0.0403296
19 1.62202 -0.000713348 -0.000470161 0.0170535 -0.0362868 -0.00632048
20 1.22241 0 0 -0.0104111 -0.0213342 -0.00596808
21 1.76707 -1.27612 0.0366405 -1.57004 -0.0293956 -0.261465
22 1.55588 0 0 0.0101481 0.0309805 0.0220302
23 1.24274 0 0 0.000478944 0.000360597 0.0344315
24 0.784538 0 0 -0.0158299 0.00390861 -0.0455418
25 1.938 -1.34664 1.82283 0.000934124 0 0
26 6.02794 0 0 0.000187746 0 0.0558755
27 11.7344 0 0 -0.00140285 0 -0.11304
28 8.81138 -0.000449687 -0.000112176 -0.000487971 0 0.000157763
29 5.77839 0.000286311 0 -0.00032694 0 0.000105709
30 2.23163 -0.000329345 -0.000363946 -0.00016103 0 0
31 11.4725 0 0 -0.000492816 0 0.0571578
32 0.615219 -0.993091 -0.8107 2.34144 0.189471 -0.680076
33 2.24752 0 0 0.0836854 0.0791542 0.0464054
34 1.11936 0 0 0.0942835 0.0346568 0.0282656
35 3.71348 -0.102641 0.102191 1.55999 -0.0420332 0.0798625
36 1.72615 0 0 -0.00207046 -0.0284524 -0.0390825
37 1.21114 0 0 0.00991423 0.014586 -0.000446801
38 3.5992 -1.06012 0.0708882 1.55963 0.00161932 -0.0627623
39 1.66069 0 0 0.0179106 0.0757813 0.00940095
40 1.16699 0 0 -0.0151707 0.0454569 0.0402757
41 2.18852 0.50104 0.057659 1.57004 -0.0521617 0.225938
42 1.29609 0 0 -0.00692371 -0.0463195 -0.04033
43 1.62202 0.000713587 -0.000471115 -0.0170531 -0.0362868 0.00632033
44 1.22241 0 0 0.010411 -0.0213342 0.00596803
45 1.76707 1.27612 0.036641 1.57004 -0.0293956 0.261465
46 1.55588 0 0 -0.0101482 0.0309801 -0.0220303
47 1.24273 0 0 -0.000479277 0.000360472 -0.0344315
48 0.784523 0 0 0.0158301 0.00390859 0.0455419
time 5
0 0 0 0 0 0 0
1 -1.93761 -1.34664 1.82283 -0.000932693 0 3.14159
2 6.02794 0 0 -0.000187397 0 -0.0558807
3 11.7344 0 0 0.0014027 0 0.113048
4 8.81167 0 0 -0.00105613 0 0
5 5.77884 0 0 -0.000707606 0 0
6 2.23249 0 0 -0.000348522 0 0
7 11.4725 0 0 -0.00105379 0 -0.0571609
8 0.615812 0.994372 -0.809165 -2.33375 0.188502 0.680307
9 2.24752 0 0 -0.0910121 0.0753145 -0.0432825
10 1.11936 0 0 -0.0944248 0.0363586 -0.0310035
11 3.71348 0.102639 0.102191 -1.55999 -0.0420337 -0.0798626
12 1.72615 0 0 0.00207066 -0.0284524 0.0390827
13 1.21112 0 0 -0.00991395 0.014586 0.000446807
14 3.5992 1.06012 0.0708882 -1.55963 0.00161938 0.0627619
15 1.66069 0 0 -0.0179103 0.075781 -0.00940114
16 1.16699 0 0 0.0151709 0.0454569 -0.0402751
17 2.18853 -0.501041 0.057659 -1.57004 -0.0521617 -0.225938
18 1.29609 0 0 0.00692333 -0.0463194 0.0403296
19 1.62202 -0.000713348 -0.000470161 0.0170535 -0.0362868 -0.00632048
20 1.22241 0 0 -0.0104111 -0.0213342 -0.00596808
21 1.76707 -1.27612 0.0366405 -1.57004 -0.0293956 -0.261465
22 1.55588 0 0 0.0101481 0.0309805 0.0220302
23 1.24274 0 0 0.000478944 0.000360597 0.0344315
24 0.784538 0 0 -0.0158299 0.00390861 -0.0455418
25 1.938 -1.34664 1.82283 0.000934124 0 0
26 6.02794 0 0 0.000187746 0 0.0558755
27 11.7344 0 0 -0.00140285 0 -0.11304
28 8.81138 -0.000449687 -0.000112176 -0.000487971 0 0.000157763
29 5.77839 0.000286311 0 -0.00032694 0 0.000105709
30 2.23163 -0.000329345 -0.000363946 -0.00016103 0 0
31 11.4725 0 0 -0.000492816 0 0.0571578
32 0.615219 -0.993091 -0.8107 2.34144 0.189471 -0.680076
33 2.24752 0 0 0.0836854 0.0791542 0.0464054
34 1.11936 0 0 0.0942835 0.0346568 0.0282656
35 3.71348 -0.102641 0.102191 1.55999 -0.0420332 0.0798625
36 1.72615 0 0 -0.00207046 -0.0284524 -0.0390825
37 1.21114 0 0 0.00991423 0.014586 -0.000446801
38 3.5992 -1.06012 0.0708882 1.55963 0.00161932 -0.0627623
39 1.66069 0 0 0.0179106 0.0757813 0.00940095
40 1.16699 0 0 -0.0151707 0.0454569 0.0402757
41 2.18852 0.50104 0.057659 1.57004 -0.0521617 0.225938
42 1.29609 0 0 -0.00692371 -0.0463195 -0.04033
43 1.62202 0.000713587 -0.000471115 -0.0170531 -0.0362868 0.00632033
44 1.22241 0 0 0.010411 -0.0213342 0.00596803
45 1.76707 1.27612 0.036641 1.57004 -0.0293956 0.261465
46 1.55588 0 0 -0.0101482 0.0309801 -0.0220303
47 1.24273 0 0 -0.000479277 0.000360472 -0.0344315
48 0.784523 0 0 0.0158301 0.00390859 0.0455419
time 6
0 0 0 0 0 0 0
1 -1.93761 -1.34664 1.82283 -0.000932693 0 3.14159
2 6.02794 0 0 -0.000187397 0 -0.0558807
3 11.7344 0 0 0.0014027 0 0.113048
4 8.81167 0 0 -0.00105613 0 0
5 5.77884 0 0 -0.000707606 0 0
6 2.23249 0 0 -0.000348522 0 0
7 11.4725 0 0 -0.00105379 0 -0.0571609
8 0.615812 0.994372 -0.809165 -2.33375 0.188502 0.680307
9 2.24752 0 0 -0.0910121 0.0753145 -0.0432825
10 1.11936 0 0 -0.0944248 0.0363586 -0.0310035
11 3.71348 0.102639 0.102191 -1.55999 -0.0420337 -0.0798626
12 1.72615 0 0 0.00207066 -0.0284524 0.0390827
13 1.21112 0 0 -0.00991395 0.014586 0.000446807
14 3.5992 1.06012 0.0708882 -1.55963 0.00161938 0.0627619
15 1.66069 0 0 -0.0179103 0.075781 -0.00940114
16 1.16699 0 0 0.0151709 0.0454569 -0.0402751
17 2.18853 -0.501041 0.057659 -1.57004 -0.0521617 -0.225938
18 1.29609 0 0 0.00692333 -0.0463194 0.0403296
19 1.62202 -0.000713348 -0.000470161 0.0170535 -0.0362868 -0.00632048
20 1.22241 0 0 -0.0104111 -0.0213342 -0.00596808
21 1.76707 -1.27612 0.0366405 -1.57004 -0.0293956 -0.261465
22 1.55588 0 0 0.0101481 0.0309805 0.0220302
23 1.24274 0 0 0.000478944 0.000360597 0.0344315
24 0.784538 0 0 -0.0158299 0.00390861 -0.0455418
25 1.938 -1.34664 1.82283 0.000934124 0 0
26 6.02794 0 0 0.000187746 0 0.0558755
27 11.7344 0 0 -0.00140285 0 -0.11304
28 8.81138 -0.000449687 -0.000112176 -0.000487971 0 0.000157763
29 5.77839 0.000286311 0 -0.00032694 0 0.000105709
30 2.23163 -0.000329345 -0.000363946 -0.00016103 0 0
31 11.4725 0 0 -0.000492816 0 0.0571578
32 0.615219 -0.993091 -0.8107 2.34144 0.189471 -0.680076
33 2.24752 0 0 0.0836854 0.0791542 0.0464054
34 1.11936 0 0 0.0942835 0.0346568 0.0282656
35 3.71348 -0.102641 0.102191 1.55999 -0.0420332 0.0798625
36 1.72615 0 0 -0.00207046 -0.0284524 -0.0390825
37 1.21114 0 0 0.00991423 0.014586 -0.000446801
38 3.5992 -1.06012 0.0708882 1.55963 0.00161932 -0.0627623
39 1.66069 0 0 0.0179106 0.0757813 0.00940095
40 1.16699 0 0 -0.0151707 0.0454569 0.0402757
41 2.18852 0.50104 0.057659 1.57004 -0.0521617 0.225938
42 1.29609 0 0 -0.00692371 -0.0463195 -0.04033
43 1.62202 0.000713587 -0.000471115 -0.0170531 -0.0362868 0.00632033
44 1.22241 0 0 0.010411 -0.0213342 0.00596803
45 1.76707 1.27612 0.036641 1.57004 -0.0293956 0.261465
46 1.55588 0 0 -0.0101482 0.0309801 -0.0220303
47 1.24273 0 0 -0.000479277 0.000360472 -0.0344315
48 0.784523 0 0 0.0158301 0.00390859 0.0455419
time 7
0 0 0 0 0 0 0
1 -1.93761 -1.34664 1.82283 -0.000932693 0 3.14159
2 6.02794 0 0 -0.000187397 0 -0.0558807
3 11.7344 0 0 0.0014027 0 0.113048
4 8.81167 0 0 -0.00105613 0 0
5 5.77884 0 0 -0.000707606 0 0
6 2.23249 0 0 -0.000348522 0 0
7 11.4725 0 0 -0.00105379 0 -0.0571609
8 0.615812 0.994372 -0.809165 -2.33375 0.188502 0.680307
9 2.24752 0 0 -0.0910121 0.0753145 -0.0432825
10 1.11936 0 0 -0.0944248 0.0363586 -0.0310035
11 3.71348 0.102639 0.102191 -1.55999 -0.0420337 -0.0798626
12 1.72615 0 0 0.00207066 -0.0284524 0.0390827
13 1.21112 0 0 -0.00991395 0.014586 0.000446807
14 3.5992 1.06012 0.0708882 -1.55963 0.00161938 0.0627619
15 1.66069 0 0 -0.0179103 0.075781 -0.00940114
16 1.16699 0 0 0.0151709 0.0454569 -0.0402751
17 2.18853 -0.501041 0.057659 -1.57004 -0.0521617 -0.225938
18 1.29609 0 0 0.00692333 -0.0463194 0.0403296
19 1.62202 -0.000713348 -0.000470161 0.0170535 -0.0362868 -0.00632048
20 1.22241 0 0 -0.0104111 -0.0213342 -0.00596808
21 1.76707 -1.27612 0.0366405 -1.57004 -0.0293956 -0.261465
22 1.55588 0 0 0.0101481 0.0309805 0.0220302
23 1.24274 0 0 0.000478944 0.000360597 0.0344315
24 0.784538 0 0 -0.0158299 0.00390861 -0.0455418
25 1.938 -1.34664 1.82283 0.000934124 0 0
26 6.02794 0 0 0.000187746 0 0.0558755
27 11.7344 0 0 -0.00140285 0 -0.11304
28 8.81138 -0.000449687 -0.000112176 -0.000487971 0 0.000157763
29 5.77839 0.000286311 0 -0.00032694 0 0.000105709
30 2.23163 -0.000329345 -0.000363946 -0.00016103 0 0
31 11.4725 0 0 -0.000492816 0 0.0571578
32 0.615219 -0.993091 -0.8107 2.34144 0.189471 -0.680076
33 2.24752 0 0 0.0836854 0.0791542 0.0464054
34 1.11936 0 0 0.0942835 0.0346568 0.0282656
35 3.71348 -0.102641 0.102191 1.55999 -0.0420332 0.0798625
36 1.72615 0 0 -0.00207046 -0.0284524 -0.0390825
37 1.21114 0 0 0.00991423 0.014586 -0.000446801
38 3.5992 -1.06012 0.0708882 1.55963 0.00161932 -0.0627623
39 1.66069 0 0 0.0179106 0.0757813 0.00940095
40 1.16699 0 0 -0.0151707 0.0454569 0.0402757
41 2.18852 0.50104 0.057659 1.57004 -0.0521617 0.225938
42 1.29609 0 0 -0.00692371 -0.0463195 -0.04033
43 1.62202 0.000713587 -0.000471115 -0.0170531 -0.0362868 0.00632033
44 1.22241 0 0 0.010411 -0.0213342 0.00596803
45 1.76707 1.27612 0.036641 1.57004 -0.0293956 0.261465
46 1.55588 0 0 -0.0101482 0.0309801 -0.0220303
47 1.24273 0 0 -0.000479277 0.000360472 -0.0344315
48 0.784523 0 0 0.0158301 0.00390859 0.0455419
time 8
0 0 0 0 0 0 0
1 -1.93761 -1.34664 1.82283 -0.000932693 0 3.14159
2 6.02794 0 0 -0.000187397 0 -0.0558807
3 11.7344 0 0 0.0014027 0 0.113048
4 8.81167 0 0 -0.00105613 0 0
5 5.77884 0 0 -0.000707606 0 0
6 2.23249 0 0 -0.000348522 0 0
7 11.4725 0 0 -0.00105379 0 -0.0571609
8 0.615812 0.994372 -0.809165 -2.33375 0.188502 0.680307
9 2.24752 0 0 -0.0910121 0.0753145 -0.0432825
10 1.11936 0 0 -0.0944248 0.0363586 -0.0310035
11 3.71348 0.102639 0.102191 -1.55999 -0.0420337 -0.0798626
12 1.72615 0 0 0.00207066 -0.0284524 0.0390827
13 1.21112 0 0 -0.00991395 0.014586 0.000446807
14 3.5992 1.06012 0.0708882 -1.55963 0.00161938 0.0627619
15 1.66069 0 0 -0.0179103 0.075781 -0.00940114
16 1.16699 0 0 0.0151709 0.0454569 -0.0402751
17 2.18853 -0.501041 0.057659 -1.57004 -0.0521617 -0.225938
18 1.29609 0 0 0.00692333 -0.0463194 0.0403296
19 1.62202 -0.000713348 -0.000470161 0.0170535 -0.0362868 -0.00632048
20 1.22241 0 0 -0.0104111 -0.0213342 -0.00596808
21 1.76707 -1.27612 0.0366405 -1.57004 -0.0293956 -0.261465
22 1.55588 0 0 0.0101481 0.0309805 0.0220302
23 1.24274 0 0 0.000478944 0.000360597 0.0344315
24 0.784538 0 0 -0.0158299 0.00390861 -0.0455418
25 1.938 -1.34664 1.82283 0.000934124 0 0
26 6.02794 0 0 0.000187746 0 0.0558755
27 11.7344 0 0 -0.00140285 0 -0.11304
28 8.81138 -0.000449687 -0.000112176 -0.000487971 0 0.000157763
29 5.77839 0.000286311 0 -0.00032694 0 0.000105709
30 2.23163 -0.000329345 -0.000363946 -0.00016103 0 0
31 11.4725 0 0 -0.000492816 0 0.0571578
32 0.615219 -0.993091 -0.8107 2.34144 0.189471 -0.680076
33 2.24752 0 0 0.0836854 0.0791542 0.0464054
34 1.11936 0 0 0.0942835 0.0346568 0.0282656
35 3.71348 -0.102641 0.102191 1.55999 -0.0420332 0.0798625
36 1.72615 0 0 -0.00207046 -0.0284524 -0.0390825
37 1.21114 0 0 0.00991423 0.014586 -0.000446801
38 3.5992 -1.06012 0.0708882 1.55963 0.00161932 -0.0627623
39 1.66069 0 0 0.0179106 0.0757813 0.00940095
40 1.16699 0 0 -0.0151707 0.0454569 0.0402757
41 2.18852 0.50104 0.057659 1.57004 -0.0521617 0.225938
42 1.29609 0 0 -0.00692371 -0.0463195 -0.04033
43 1.62202 0.000713587 -0.000471115 -0.0170531 -0.0362868 0.00632033
44 1.22241 0 0 0.010411 -0.0213342 0.00596803
45 1.76707 1.27612 0.036641 1.57004 -0.0293956 0.261465
46 1.55588 0 0 -0.0101482 0.0309801 -0.0220303
47 1.24273 0 0 -0.000479277 0.000360472 -0.0344315
48 0.784523 0 0 0.0158301 0.00390859 0.0455419
time 9
0 0 0 0 0 0 0
1 -1.93761 -1.34664 1.82283 -0.000932693 0 3.14159
2 6.02794 0 0 -0.000187397 0 -0.0558807
3 11.7344 0 0 0.0014027 0 0.113048
4 8.81167 0 0 -0.00105613 0 0
5 5.77884 0 0 -0.000707606 0 0
6 2.23249 0 0 -0.000348522 0 0
7 11.4725 0 0 -0.00105379 0 -0.0571609
8 0.615812 0.994372 -0.809165 -2.33375 0.188502 0.680307
9 2.24752 0 0 -0.0910121 0.0753145 -0.0432825
10 1.11936 0 0 -0.0944248 0.0363586 -0.0310035
11 3.71348 0.102639 0.102191 -1.55999 -0.0420337 -0.0798626
12 1.72615 0 0 0.00207066 -0.0284524 0.0390827
13 1.21112 0 0 -0.00991395 0.014586 0.000446807
14 3.5992 1.06012 0.0708882 -1.55963 0.00161938 0.0627619
15 1.66069 0 0 -0.0179103 0.075781 -0.00940114
16 1.16699 0 0 0.0151709 0.0454569 -0.0402751
17 2.18853 -0.501041 0.057659 -1.57004 -0.0521617 -0.225938
18 1.29609 0 0 0.00692333 -0.0463194 0.0403296
19 1.62202 -0.000713348 -0.000470161 0.0170535 -0.0362868 -0.00632048
20 1.22241 0 0 -0.0104111 -0.0213342 -0.00596808
21 1.76707 -1.27612 0.0366405 -1.57004 -0.0293956 -0.261465
22 1.55588 0 0 0.0101481 0.0309805 0.0220302
23 1.24274 0 0 0.000478944 0.000360597 0.0344315
24 0.784538 0 0 -0.0158299 0.00390861 -0.0455418
25 1.938 -1.34664 1.82283 0.000934124 0 0
26 6.02794 0 0 0.000187746 0 0.0558755
27 11.7344 0 0 -0.00140285 0 -0.11304
28 8.81138 -0.000449687 -0.000112176 -0.000487971 0 0.000157763
29 5.77839 0.000286311 0 -0.00032694 0 0.000105709
30 2.23163 -0.000329345 -0.000363946 -0.00016103 0 0
31 11.4725 0 0 -0.000492816 0 0.0571578
32 0.615219 -0.993091 -0.8107 2.34144 0.189471 -0.680076
33 2.24752 0 0 0.0836854 0.0791542 0.0464054
34 1.11936 0 0 0.0942835 0.0346568 0.0282656
35 3.71348 -0.102641 0.102191 1.55999 -0.0420332 0.0798625
36 1.72615 0 0 -0.00207046 -0.0284524 -0.0390825
37 1.21114 0 0 0.00991423 0.014586 -0.000446801
38 3.5992 -1.06012 0.0708882 1.55963 0.00161932 -0.0627623
39 1.66069 0 0 0.0179106 0.0757813 0.00940095
40 1.16699 0 0 -0.0151707 0.0454569 0.0402757
41 2.18852 0.50104 0.057659 1.57004 -0.0521617 0.225938
42 1.29609 0 0 -0.00692371 -0.0463195 -0.04033
43 1.62202 0.000713587 -0.000471115 -0.0170531 -0.0362868 0.00632033
44 1.22241 0 0 0.010411 -0.0213342 0.00596803
45 1.76707 1.27612 0.036641 1.57004 -0.0293956 0.261465
46 1.55588 0 0 -0.0101482 0.0309801 -0.0220303
47 1.24273 0 0 -0.000479277 0.000360472 -0.0344315
48 0.784523 0 0 0.0158301 0.00390859 0.0455419
time 10
0 0 0 0 0 0 0
1 -1.93761 -1.34664 1.82283 -0.000932693 0 3.14159
2 6.02794 0 0 -0.000187397 0 -0.0558807
3 11.7344 0 0 0.0014027 0 0.113048
4 8.81167 0 0 -0.00105613 0 0
5 5.77884 0 0 -0.000707606 0 0
6 2.23249 0 0 -0.000348522 0 0
7 11.4725 0 0 -0.00105379 0 -0.0571609
8 0.615812 0.994372 -0.809165 -2.33375 0.188502 0.680307
9 2.24752 0 0 -0.0910121 0.0753145 -0.0432825
10 1.11936 0 0 -0.0944248 0.0363586 -0.0310035
11 3.71348 0.102639 0.102191 -1.55999 -0.0420337 -0.0798626
12 1.72615 0 0 0.00207066 -0.0284524 0.0390827
13 1.21112 0 0 -0.00991395 0.014586 0.000446807
14 3.5992 1.06012 0.0708882 -1.55963 0.00161938 0.0627619
15 1.66069 0 0 -0.0179103 0.075781 -0.00940114
16 1.16699 0 0 0.0151709 0.0454569 -0.0402751
17 2.18853 -0.501041 0.057659 -1.57004 -0.0521617 -0.225938
18 1.29609 0 0 0.00692333 -0.0463194 0.0403296
19 1.62202 -0.000713348 -0.000470161 0.0170535 -0.0362868 -0.00632048
20 1.22241 0 0 -0.0104111 -0.0213342 -0.00596808
21 1.76707 -1.27612 0.0366405 -1.57004 -0.0293956 -0.261465
22 1.55588 0 0 0.0101481 0.0309805 0.0220302
23 1.24274 0 0 0.000478944 0.000360597 0.0344315
24 0.784538 0 0 -0.0158299 0.00390861 -0.0455418
25 1.938 -1.34664 1.82283 0.000934124 0 0
26 6.02794 0 0 0.000187746 0 0.0558755
27 11.7344 0 0 -0.00140285 0 -0.11304
28 8.81138 -0.000449687 -0.000112176 -0.000487971 0 0.000157763
29 5.77839 0.000286311 0 -0.00032694 0 0.000105709
30 2.23163 -0.000329345 -0.000363946 -0.00016103 0 0
31 11.4725 0 0 -0.000492816 0 0.0571578
32 0.615219 -0.993091 -0.8107 2.34144 0.189471 -0.680076
33 2.24752 0 0 0.0836854 0.0791542 0.0464054
34 1.11936 0 0 0.0942835 0.0346568 0.0282656
35 3.71348 -0.102641 0.102191 1.55999 -0.0420332 0.0798625
36 1.72615 0 0 -0.00207046 -0.0284524 -0.0390825
37 1.21114 0 0 0.00991423 0.014586 -0.000446801
38 3.5992 -1.06012 0.0708882 1.55963 0.00161932 -0.0627623
39 1.66069 0 0 0.0179106 0.0757813 0.00940095
40 1.16699 0 0 -0.0151707 0.0454569 0.0402757
41 2.18852 0.50104 0.057659 1.57004 -0.0521617 0.225938
42 1.29609 0 0 -0.00692371 -0.0463195 -0.04033
43 1.62202 0.000713587 -0.000471115 -0.0170531 -0.0362868 0.00632033
44 1.22241 0 0 0.010411 -0.0213342 0.00596803
45 1.76707 1.27612 0.036641 1.57004 -0.0293956 0.261465
46 1.55588 0 0 -0.0101482 0.0309801 -0.0220303
47 1.24273 0 0 -0.000479277 0.000360472 -0.0344315
48 0.784523 0 0 0.0158301 0.00390859 0.0455419
time 11
0 0 0 0 0 0 0
1 -1.93761 -1.34664 1.82283 -0.000932693 0 3.14159
2 6.02794 0 0 -0.000187397 0 -0.0558807
3 11.7344 0 0 0.0014027 0 0.113048
4 8.81167 0 0 -0.00105613 0 0
5 5.77884 0 0 -0.000707606 0 0
6 2.23249 0 0 -0.000348522 0 0
7 11.4725 0 0 -0.00105379 0 -0.0571609
8 0.615812 0.994372 -0.809165 -2.33375 0.188502 0.680307
9 2.24752 0 0 -0.0910121 0.0753145 -0.0432825
10 1.11936 0 0 -0.0944248 0.0363586 -0.0310035
11 3.71348 0.102639 0.102191 -1.55999 -0.0420337 -0.0798626
12 1.72615 0 0 0.00207066 -0.0284524 0.0390827
13 1.21112 0 0 -0.00991395 0.014586 0.000446807
14 3.5992 1.06012 0.0708882 -1.55963 0.00161938 0.0627619
15 1.66069 0 0 -0.0179103 0.075781 -0.00940114
16 1.16699 0 0 0.0151709 0.0454569 -0.0402751
17 2.18853 -0.501041 0.057659 -1.57004 -0.0521617 -0.225938
18 1.29609 0 0 0.00692333 -0.0463194 0.0403296
19 1.62202 -0.000713348 -0.000470161 0.0170535 -0.0362868 -0.00632048
20 1.22241 0 0 -0.0104111 -0.0213342 -0.00596808
21 1.76707 -1.27612 0.0366405 -1.57004 -0.0293956 -0.261465
22 1.55588 0 0 0.0101481 0.0309805 0.0220302
23 1.24274 0 0 0.000478944 0.000360597 0.0344315
24 0.784538 0 0 -0.0158299 0.00390861 -0.0455418
25 1.938 -1.34664 1.82283 0.000934124 0 0
26 6.02794 0 0 0.000187746 0 0.0558755
27 11.7344 0 0 -0.00140285 0 -0.11304
28 8.81138 -0.000449687 -0.000112176 -0.000487971 0 0.000157763
29 5.77839 0.000286311 0 -0.00032694 0 0.000105709
30 2.23163 -0.000329345 -0.000363946 -0.00016103 0 0
31 11.4725 0 0 -0.000492816 0 0.0571578
32 0.615219 -0.993091 -0.8107 2.34144 0.189471 -0.680076
33 2.24752 0 0 0.0836854 0.0791542 0.0464054
34 1.11936 0 0 0.0942835 0.0346568 0.0282656
35 3.71348 -0.102641 0.102191 1.55999 -0.0420332 0.0798625
36 1.72615 0 0 -0.00207046 -0.0284524 -0.0390825
37 1.21114 0 0 0.00991423 0.014586 -0.000446801
38 3.5992 -1.06012 0.0708882 1.55963 0.00161932 -0.0627623
39 1.66069 0 0 0.0179106 0.0757813 0.00940095
40 1.16699 0 0 -0.0151707 0.0454569 0.0402757
41 2.18852 0.50104 0.057659 1.57004 -0.0521617 0.225938
42 1.29609 0 0 -0.00692371 -0.0463195 -0.04033
43 1.62202 0.000713587 -0.000471115 -0.0170531 -0.0362868 0.00632033
44 1.22241 0 0 0.010411 -0.0213342 0.00596803
45 1.76707 1.27612 0.036641 1.57004 -0.0293956 0.261465
46 1.55588 0 0 -0.0101482 0.0309801 -0.0220303
47 1.24273 0 0 -0.000479277 0.000360472 -0.0344315
48 0.784523 0 0 0.0158301 0.00390859 0.0455419
time 12
0 0 0 0 0 0 0
1 -1.93761 -1.34664 1.82283 -0.000932693 0 3.14159
2 6.02794 0 0 -0.000187397 0 -0.0558807
3 11.7344 0 0 0.0014027 0 0.113048
4 8.81167 0 0 -0.00105613 0 0
5 5.77884 0 0 -0.000707606 0 0
6 2.23249 0 0 -0.000348522 0 0
7 11.4725 0 0 -0.00105379 0 -0.0571609
8 0.615812 0.994372 -0.809165 -2.33375 0.188502 0.680307
9 2.24752 0 0 -0.0910121 0.0753145 -0.0432825
10 1.11936 0 0 -0.0944248 0.0363586 -0.0310035
11 3.71348 0.102639 0.102191 -1.55999 -0.0420337 -0.0798626
12 1.72615 0 0 0.00207066 -0.0284524 0.0390827
13 1.21112 0 0 -0.00991395 0.014586 0.000446807
14 3.5992 1.06012 0.0708882 -1.55963 0.00161938 0.0627619
15 1.66069 0 0 -0.0179103 0.075781 -0.00940114
16 1.16699 0 0 0.0151709 0.0454569 -0.0402751
17 2.18853 -0.501041 0.057659 -1.57004 -0.0521617 -0.225938
18 1.29609 0 0 0.00692333 -0.0463194 0.0403296
19 1.62202 -0.000713348 -0.000470161 0.0170535 -0.0362868 -0.00632048
20 1.22241 0 0 -0.0104111 -0.0213342 -0.00596808
21 1.76707 -1.27612 0.0366405 -1.57004 -0.0293956 -0.261465
22 1.55588 0 0 0.0101481 0.0309805 0.0220302
23 1.24274 0 0 0.000478944 0.000360597 0.0344315
24 0.784538 0 0 -0.0158299 0.00390861 -0.0455418
25 1.938 -1.34664 1.82283 0.000934124 0 0
26 6.02794 0 0 0.000187746 0 0.0558755
27 11.7344 0 0 -0.00140285 0 -0.11304
28 8.81138 -0.000449687 -0.000112176 -0.000487971 0 0.000157763
29 5.77839 0.000286311 0 -0.00032694 0 0.000105709
30 2.23163 -0.000329345 -0.000363946 -0.00016103 0 0
31 11.4725 0 0 -0.000492816 0 0.0571578
32 0.615219 -0.993091 -0.8107 2.34144 0.189471 -0.680076
33 2.24752 0 0 0.0836854 0.0791542 0.0464054
34 1.11936 0 0 0.0942835 0.0346568 0.0282656
35 3.71348 -0.102641 0.102191 1.55999 -0.0420332 0.0798625
36 1.72615 0 0 -0.00207046 -0.0284524 -0.0390825
37 1.21114 0 0 0.00991423 0.014586 -0.000446801
38 3.5992 -1.06012 0.0708882 1.55963 0.00161932 -0.0627623
39 1.66069 0 0 0.0179106 0.0757813 0.00940095
40 1.16699 0 0 -0.0151707 0.0454569 0.0402757
41 2.18852 0.50104 0.057659 1.57004 -0.0521617 0.225938
42 1.29609 0 0 -0.00692371 -0.0463195 -0.04033
43 1.62202 0.000713587 -0.000471115 -0.0170531 -0.0362868 0.00632033
44 1.22241 0 0 0.010411 -0.0213342 0.00596803
45 1.76707 1.27612 0.036641 1.57004 -0.0293956 0.261465
46 1.55588 0 0 -0.0101482 0.0309801 -0.0220303
47 1.24273 0 0 -0.000479277 0.000360472 -0.0344315
48 0.784523 0 0 0.0158301 0.00390859 0.0455419
time 13
0 0 0 0 0 0 0
1 -1.93761 -1.34664 1.82283 -0.000932693 0 3.14159
2 6.02794 0 0 -0.000187397 0 -0.0558807
3 11.7344 0 0 0.0014027 0 0.113048
4 8.81167 0 0 -0.00105613 0 0
5 5.77884 0 0 -0.000707606 0 0
6 2.23249 0 0 -0.000348522 0 0
7 11.4725 0 0 -0.00105379 0 -0.0571609
8 0.615812 0.994372 -0.809165 -2.33375 0.188502 0.680307
9 2.24752 0 0 -0.0910121 0.0753145 -0.0432825
10 1.11936 0 0 -0.0944248 0.0363586 -0.0310035
11 3.71348 0.102639 0.102191 -1.55999 -0.0420337 -0.0798626
12 1.72615 0 0 0.00207066 -0.0284524 0.0390827
13 1.21112 0 0 -0.00991395 0.014586 0.000446807
14 3.5992 1.06012 0.0708882 -1.55963 0.00161938 0.0627619
15 1.66069 0 0 -0.0179103 0.075781 -0.00940114
16 1.16699 0 0 0.0151709 0.0454569 -0.0402751
17 2.18853 -0.501041 0.057659 -1.57004 -0.0521617 -0.225938
18 1.29609 0 0 0.00692333 -0.0463194 0.0403296
19 1.62202 -0.000713348 -0.000470161 0.0170535 -0.0362868 -0.00632048
20 1.22241 0 0 -0.0104111 -0.0213342 -0.00596808
21 1.76707 -1.27612 0.0366405 -1.57004 -0.0293956 -0.261465
22 1.55588 0 0 0.0101481 0.0309805 0.0220302
23 1.24274 0 0 0.000478944 0.000360597 0.0344315
24 0.784538 0 0 -0.0158299 0.00390861 -0.0455418
25 1.938 -1.34664 1.82283 0.000934124 0 0
26 6.02794 0 0 0.000187746 0 0.0558755
27 11.7344 0 0 -0.00140285 0 -0.11304
28 8.81138 -0.000449687 -0.000112176 -0.000487971 0 0.000157763
29 5.77839 0.000286311 0 -0.00032694 0 0.000105709
30 2.23163 -0.000329345 -0.000363946 -0.00016103 0 0
31 11.4725 0 0 -0.000492816 0 0.0571578
32 0.615219 -0.993091 -0.8107 2.34144 0.189471 -0.680076
33 2.24752 0 0 0.0836854 0.0791542 0.0464054
34 1.11936 0 0 0.0942835 0.0346568 0.0282656
35 3.71348 -0.102641 0.102191 1.55999 -0.0420332 0.0798625
36 1.72615 0 0 -0.00207046 -0.0284524 -0.0390825
37 1.21114 0 0 0.00991423 0.014586 -0.000446801
38 3.5992 -1.06012 0.0708882 1.55963 0.00161932 -0.0627623
39 1.66069 0 0 0.0179106 0.0757813 0.00940095
40 1.16699 0 0 -0.0151707 0.0454569 0.0402757
41 2.18852 0.50104 0.057659 1.57004 -0.0521617 0.225938
42 1.29609 0 0 -0.00692371 -0.0463195 -0.04033
43 1.62202 0.000713587 -0.000471115 -0.0170531 -0.0362868 0.00632033
44 1.22241 0 0 0.010411 -0.0213342 0.00596803
45 1.76707 1.27612 0.036641 1.57004 -0.0293956 0.261465
46 1.55588 0 0 -0.0101482 0.0309801 -0.0220303
47 1.24273 0 0 -0.000479277 0.000360472 -0.0344315
48 0.784523 0 0 0.0158301 0.00390859 0.0455419
time 14
0 0 0 0 0 0 0
1 -1.93761 -1.34664 1.82283 -0.000932693 0 3.14159
2 6.02794 0 0 -0.000187397 0 -0.0558807
3 11.7344 0 0 0.0014027 0 0.113048
4 8.81167 0 0 -0.00105613 0 0
5 5.77884 0 0 -0.000707606 0 0
6 2.23249 0 0 -0.000348522 0 0
7 11.4725 0 0 -0.00105379 0 -0.0571609
8 0.615812 0.994372 -0.809165 -2.33375 0.188502 0.680307
9 2.24752 0 0 -0.0910121 0.0753145 -0.0432825
10 1.11936 0 0 -0.0944248 0.0363586 -0.0310035
11 3.71348 0.102639 0.102191 -1.55999 -0.0420337 -0.0798626
12 1.72615 0 0 0.00207066 -0.0284524 0.0390827
13 1.21112 0 0 -0.00991395 0.014586 0.000446807
14 3.5992 1.06012 0.0708882 -1.55963 0.00161938 0.0627619
15 1.66069 0 0 -0.0179103 0.075781 -0.00940114
16 1.16699 0 0 0.0151709 0.0454569 -0.0402751
17 2.18853 -0.501041 0.057659 -1.57004 -0.0521617 -0.225938
18 1.29609 0 0 0.00692333 -0.0463194 0.0403296
19 1.62202 -0.000713348 -0.000470161 0.0170535 -0.0362868 -0.00632048
20 1.22241 0 0 -0.0104111 -0.0213342 -0.00596808
21 1.76707 -1.27612 0.0366405 -1.57004 -0.0293956 -0.261465
22 1.55588 0 0 0.0101481 0.0309805 0.0220302
23 1.24274 0 0 0.000478944 0.000360597 0.0344315
24 0.784538 0 0 -0.0158299 0.00390861 -0.0455418
25 1.938 -1.34664 1.82283 0.000934124 0 0
26 6.02794 0 0 0.000187746 0 0.0558755
27 11.7344 0 0 -0.00140285 0 -0.11304
28 8.81138 -0.000449687 -0.000112176 -0.000487971 0 0.000157763
29 5.77839 0.000286311 0 -0.00032694 0 0.000105709
30 2.23163 -0.000329345 -0.000363946 -0.00016103 0 0
31 11.4725 0 0 -0.000492816 0 0.0571578
32 0.615219 -0.993091 -0.8107 2.34144 0.189471 -0.680076
33 2.24752 0 0 0.0836854 0.0791542 0.0464054
34 1.11936 0 0 0.0942835 0.0346568 0.0282656
35 3.71348 -0.102641 0.102191 1.55999 -0.0420332 0.0798625
36 1.72615 0 0 -0.00207046 -0.0284524 -0.0390825
37 1.21114 0 0 0.00991423 0.014586 -0.000446801
38 3.5992 -1.06012 0.0708882 1.55963 0.00161932 -0.0627623
39 1.66069 0 0 0.0179106 0.0757813 0.00940095
40 1.16699 0 0 -0.0151707 0.0454569 0.0402757
41 2.18852 0.50104 0.057659 1.57004 -0.0521617 0.225938
42 1.29609 0 0 -0.00692371 -0.0463195 -0.04033
43 1.62202 0.000713587 -0.000471115 -0.0170531 -0.0362868 0.00632033
44 1.22241 0 0 0.010411 -0.0213342 0.00596803
45 1.76707 1.27612 0.036641 1.57004 -0.0293956 0.261465
46 1.55588 0 0 -0.0101482 0.0309801 -0.0220303
47 1.24273 0 0 -0.000479277 0.000360472 -0.0344315
48 0.784523 0 0 0.0158301 0.00390859 0.0455419
time 15
0 0 0 0 0 0 0
1 -1.93761 -1.34664 1.82283 -0.000932693 0 3.14159
2 6.02794 0 0 -0.000187397 0 -0.0558807
3 11.7344 0 0 0.0014027 0 0.113048
4 8.81167 0 0 -0.00105613 0 0
5 5.77884 0 0 -0.000707606 0 0
6 2.23249 0 0 -0.000348522 0 0
7 11.4725 0 0 -0.00105379 0 -0.0571609
8 0.615812 0.994372 -0.809165 -2.33375 0.188502 0.680307
9 2.24752 0 0 -0.0910121 0.0753145 -0.0432825
10 1.11936 0 0 -0.0944248 0.0363586 -0.0310035
11 3.71348 0.102639 0.102191 -1.55999 -0.0420337 -0.0798626
12 1.72615 0 0 0.00207066 -0.0284524 0.0390827
13 1.21112 0 0 -0.00991395 0.014586 0.000446807
14 3.5992 1.06012 0.0708882 -1.55963 0.00161938 0.0627619
15 1.66069 0 0 -0.0179103 0.075781 -0.00940114
16 1.16699 0 0 0.0151709 0.0454569 -0.0402751
17 2.18853 -0.501041 0.057659 -1.57004 -0.0521617 -0.225938
18 1.29609 0 0 0.00692333 -0.0463194 0.0403296
19 1.62202 -0.000713348 -0.000470161 0.0170535 -0.0362868 -0.00632048
20 1.22241 0 0 -0.0104111 -0.0213342 -0.00596808
21 1.76707 -1.27612 0.0366405 -1.57004 -0.0293956 -0.261465
22 1.55588 0 0 0.0101481 0.0309805 0.0220302
23 1.24274 0 0 0.000478944 0.000360597 0.0344315
24 0.784538 0 0 -0.0158299 0.00390861 -0.0455418
25 1.938 -1.34664 1.82283 0.000934124 0 0
26 6.02794 0 0 0.000187746 0 0.0558755
27 11.7344 0 0 -0.00140285 0 -0.11304
28 8.81138 -0.000449687 -0.000112176 -0.000487971 0 0.000157763
29 5.77839 0.000286311 0 -0.00032694 0 0.000105709
30 2.23163 -0.000329345 -0.000363946 -0.00016103 0 0
31 11.4725 0 0 -0.000492816 0 0.0571578
32 0.615219 -0.993091 -0.8107 2.34144 0.189471 -0.680076
33 2.24752 0 0 0.0836854 0.0791542 0.0464054
34 1.11936 0 0 0.0942835 0.0346568 0.0282656
35 3.71348 -0.102641 0.102191 1.55999 -0.0420332 0.0798625
36 1.72615 0 0 -0.00207046 -0.0284524 -0.0390825
37 1.21114 0 0 0.00991423 0.014586 -0.000446801
38 3.5992 -1.06012 0.0708882 1.55963 0.00161932 -0.0627623
39 1.66069 0 0 0.0179106 0.0757813 0.00940095
40 1.16699 0 0 -0.0151707 0.0454569 0.0402757
41 2.18852 0.50104 0.057659 1.57004 -0.0521617 0.225938
42 1.29609 0 0 -0.00692371 -0.0463195 -0.04033
43 1.62202 0.000713587 -0.000471115 -0.0170531 -0.0362868 0.00632033
44 1.22241 0 0 0.010411 -0.0213342 0.00596803
45 1.76707 1.27612 0.036641 1.57004 -0.0293956 0.261465
46 1.55588 0 0 -0.0101482 0.0309801 -0.0220303
47 1.24273 0 0 -0.000479277 0.000360472 -0.0344315
48 0.784523 0 0 0.0158301 0.00390859 0.0455419
time 16
0 0 0 0 0 0 0
1 -1.93761 -1.34664 1.82283 -0.000932693 0 3.14159
2 6.02794 0 0 -0.000187397 0 -0.0558807
3 11.7344 0 0 0.0014027 0 0.113048
4 8.81167 0 0 -0.00105613 0 0
5 5.77884 0 0 -0.000707606 0 0
6 2.23249 0 0 -0.000348522 0 0
7 11.4725 0 0 -0.00105379 0 -0.0571609
8 0.615812 0.994372 -0.809165 -2.33375 0.188502 0.680307
9 2.24752 0 0 -0.0910121 0.0753145 -0.0432825
10 1.11936 0 0 -0.0944248 0.0363586 -0.0310035
11 3.71348 0.102639 0.102191 -1.55999 -0.0420337 -0.0798626
12 1.72615 0 0 0.00207066 -0.0284524 0.0390827
13 1.21112 0 0 -0.00991395 0.014586 0.000446807
14 3.5992 1.06012 0.0708882 -1.55963 0.00161938 0.0627619
15 1.66069 0 0 -0.0179103 0.075781 -0.00940114
16 1.16699 0 0 0.0151709 0.0454569 -0.0402751
17 2.18853 -0.501041 0.057659 -1.57004 -0.0521617 -0.225938
18 1.29609 0 0 0.00692333 -0.0463194 0.0403296
19 1.62202 -0.000713348 -0.000470161 0.0170535 -0.0362868 -0.00632048
20 1.22241 0 0 -0.0104111 -0.0213342 -0.00596808
21 1.76707 -1.27612 0.0366405 -1.57004 -0.0293956 -0.261465
22 1.55588 0 0 0.0101481 0.0309805 0.0220302
23 1.24274 0 0 0.000478944 0.000360597 0.0344315
24 0.784538 0 0 -0.0158299 0.00390861 -0.0455418
25 1.938 -1.34664 1.82283 0.000934124 0 0
26 6.02794 0 0 0.000187746 0 0.0558755
27 11.7344 0 0 -0.00140285 0 -0.11304
28 8.81138 -0.000449687 -0.000112176 -0.000487971 0 0.000157763
29 5.77839 0.000286311 0 -0.00032694 0 0.000105709
30 2.23163 -0.000329345 -0.000363946 -0.00016103 0 0
31 11.4725 0 0 -0.000492816 0 0.0571578
32 0.615219 -0.993091 -0.8107 2.34144 0.189471 -0.680076
33 2.24752 0 0 0.0836854 0.0791542 0.0464054
34 1.11936 0 0 0.0942835 0.0346568 0.0282656
35 3.71348 -0.102641 0.102191 1.55999 -0.0420332 0.0798625
36 1.72615 0 0 -0.00207046 -0.0284524 -0.0390825
37 1.21114 0 0 0.00991423 0.014586 -0.000446801
38 3.5992 -1.06012 0.0708882 1.55963 0.00161932 -0.0627623
39 1.66069 0 0 0.0179106 0.0757813 0.00940095
40 1.16699 0 0 -0.0151707 0.0454569 0.0402757
41 2.18852 0.50104 0.057659 1.57004 -0.0521617 0.225938
42 1.29609 0 0 -0.00692371 -0.0463195 -0.04033
43 1.62202 0.000713587 -0.000471115 -0.0170531 -0.0362868 0.00632033
44 1.22241 0 0 0.010411 -0.0213342 0.00596803
45 1.76707 1.27612 0.036641 1.57004 -0.0293956 0.261465
46 1.55588 0 0 -0.0101482 0.0309801 -0.0220303
47 1.24273 0 0 -0.000479277 0.000360472 -0.0344315
48 0.784523 0 0 0.0158301 0.00390859 0.0455419
time 17
0 0 0 0 0 0 0
1 -1.93761 -1.34664 1.82283 -0.000932693 0 3.14159
2 6.02794 0 0 -0.000187397 0 -0.0558807
3 11.7344 0 0 0.0014027 0 0.113048
4 8.81167 0 0 -0.00105613 0 0
5 5.77884 0 0 -0.000707606 0 0
6 2.23249 0 0 -0.000348522 0 0
7 11.4725 0 0 -0.00105379 0 -0.0571609
8 0.615812 0.994372 -0.809165 -2.33375 0.188502 0.680307
9 2.24752 0 0 -0.0910121 0.0753145 -0.0432825
10 1.11936 0 0 -0.0944248 0.0363586 -0.0310035
11 3.71348 0.102639 0.102191 -1.55999 -0.0420337 -0.0798626
12 1.72615 0 0 0.00207066 -0.0284524 0.0390827
13 1.21112 0 0 -0.00991395 0.014586 0.000446807
14 3.5992 1.06012 0.0708882 -1.55963 0.00161938 0.0627619
15 1.66069 0 0 -0.0179103 0.075781 -0.00940114
16 1.16699 0 0 0.0151709 0.0454569 -0.0402751
17 2.18853 -0.501041 0.057659 -1.57004 -0.0521617 -0.225938
18 1.29609 0 0 0.00692333 -0.0463194 0.0403296
19 1.62202 -0.000713348 -0.000470161 0.0170535 -0.0362868 -0.00632048
20 1.22241 0 0 -0.0104111 -0.0213342 -0.00596808
21 1.76707 -1.27612 0.0366405 -1.57004 -0.0293956 -0.261465
22 1.55588 0 0 0.0101481 0.0309805 0.0220302
23 1.24274 0 0 0.000478944 0.000360597 0.0344315
24 0.784538 0 0 -0.0158299 0.00390861 -0.0455418
25 1.938 -1.34664 1.82283 0.000934124 0 0
26 6.02794 0 0 0.000187746 0 0.0558755
27 11.7344 0 0 -0.00140285 0 -0.11304
28 8.81138 -0.000449687 -0.000112176 -0.000487971 0 0.000157763
29 5.77839 0.000286311 0 -0.00032694 0 0.000105709
30 2.23163 -0.000329345 -0.000363946 -0.00016103 0 0
31 11.4725 0 0 -0.000492816 0 0.0571578
32 0.615219 -0.993091 -0.8107 2.34144 0.189471 -0.680076
33 2.24752 0 0 0.0836854 0.0791542 0.0464054
34 1.11936 0 0 0.0942835 0.0346568 0.0282656
35 3.71348 -0.102641 0.102191 1.55999 -0.0420332 0.0798625
36 1.72615 0 0 -0.00207046 -0.0284524 -0.0390825
37 1.21114 0 0 0.00991423 0.014586 -0.000446801
38 3.5992 -1.06012 0.0708882 1.55963 0.00161932 -0.0627623
39 1.66069 0 0 0.0179106 0.0757813 0.00940095
40 1.16699 0 0 -0.0151707 0.0454569 0.0402757
41 2.18852 0.50104 0.057659 1.57004 -0.0521617 0.225938
42 1.29609 0 0 -0.00692371 -0.0463195 -0.04033
43 1.62202 0.000713587 -0.000471115 -0.0170531 -0.0362868 0.00632033
44 1.22241 0 0 0.010411 -0.0213342 0.00596803
45 1.76707 1.27612 0.036641 1.57004 -0.0293956 0.261465
46 1.55588 0 0 -0.0101482 0.0309801 -0.0220303
47 1.24273 0 0 -0.000479277 0.000360472 -0.0344315
48 0.784523 0 0 0.0158301 0.00390859 0.0455419
time 18
0 0 0 0 0 0 0
1 -1.93761 -1.34664 1.82283 -0.000932693 0 3.14159
2 6.02794 0 0 -0.000187397 0 -0.0558807
3 11.7344 0 0 0.0014027 0 0.113048
4 8.81167 0 0 -0.00105613 0 0
5 5.77884 0 0 -0.000707606 0 0
6 2.23249 0 0 -0.000348522 0 0
7 11.4725 0 0 -0.00105379 0 -0.0571609
8 0.615812 0.994372 -0.809165 -2.33375 0.188502 0.680307
9 2.24752 0 0 -0.0910121 0.0753145 -0.0432825
10 1.11936 0 0 -0.0944248 0.0363586 -0.0310035
11 3.71348 0.102639 0.102191 -1.55999 -0.0420337 -0.0798626
12 1.72615 0 0 0.00207066 -0.0284524 0.0390827
13 1.21112 0 0 -0.00991395 0.014586 0.000446807
14 3.5992 1.06012 0.0708882 -1.55963 0.00161938 0.0627619
15 1.66069 0 0 -0.0179103 0.075781 -0.00940114
16 1.16699 0 0 0.0151709 0.0454569 -0.0402751
17 2.18853 -0.501041 0.057659 -1.57004 -0.0521617 -0.225938
18 1.29609 0 0 0.00692333 -0.0463194 0.0403296
19 1.62202 -0.000713348 -0.000470161 0.0170535 -0.0362868 -0.00632048
20 1.22241 0 0 -0.0104111 -0.0213342 -0.00596808
21 1.76707 -1.27612 0.0366405 -1.57004 -0.0293956 -0.261465
22 1.55588 0 0 0.0101481 0.0309805 0.0220302
23 1.24274 0 0 0.000478944 0.000360597 0.0344315
24 0.784538 0 0 -0.0158299 0.00390861 -0.0455418
25 1.938 -1.34664 1.82283 0.000934124 0 0
26 6.02794 0 0 0.000187746 0 0.0558755
27 11.7344 0 0 -0.00140285 0 -0.11304
28 8.81138 -0.000449687 -0.000112176 -0.000487971 0 0.000157763
29 5.77839 0.000286311 0 -0.00032694 0 0.000105709
30 2.23163 -0.000329345 -0.000363946 -0.00016103 0 0
31 11.4725 0 0 -0.000492816 0 0.0571578
32 0.615219 -0.993091 -0.8107 2.34144 0.189471 -0.680076
33 2.24752 0 0 0.0836854 0.0791542 0.0464054
34 1.11936 0 0 0.0942835 0.0346568 0.0282656
35 3.71348 -0.102641 0.102191 1.55999 -0.0420332 0.0798625
36 1.72615 0 0 -0.00207046 -0.0284524 -0.0390825
37 1.21114 0 0 0.00991423 0.014586 -0.000446801
38 3.5992 -1.06012 0.0708882 1.55963 0.00161932 -0.0627623
39 1.66069 0 0 0.0179106 0.0757813 0.00940095
40 1.16699 0 0 -0.0151707 0.0454569 0.0402757
41 2.18852 0.50104 0.057659 1.57004 -0.0521617 0.225938
42 1.29609 0 0 -0.00692371 -0.0463195 -0.04033
43 1.62202 0.000713587 -0.000471115 -0.0170531 -0.0362868 0.00632033
44 1.22241 0 0 0.010411 -0.0213342 0.00596803
45 1.76707 1.27612 0.036641 1.57004 -0.0293956 0.261465
46 1.55588 0 0 -0.0101482 0.0309801 -0.0220303
47 1.24273 0 0 -0.000479277 0.000360472 -0.0344315
48 0.784523 0 0 0.0158301 0.00390859 0.0455419
time 19
0 0 0 0 0 0 0
1 -1.93761 -1.34664 1.82283 -0.000932693 0 3.14159
2 6.02794 0 0 -0.000187397 0 -0.0558807
3 11.7344 0 0 0.0014027 0 0.113048
4 8.81167 0 0 -0.00105613 0 0
5 5.77884 0 0 -0.000707606 0 0
6 2.23249 0 0 -0.000348522 0 0
7 11.4725 0 0 -0.00105379 0 -0.0571609
8 0.615812 0.994372 -0.809165 -2.33375 0.188502 0.680307
9 2.24752 0 0 -0.0910121 0.0753145 -0.0432825
10 1.11936 0 0 -0.0944248 0.0363586 -0.0310035
11 3.71348 0.102639 0.102191 -1.55999 -0.0420337 -0.0798626
12 1.72615 0 0 0.00207066 -0.0284524 0.0390827
13 1.21112 0 0 -0.00991395 0.014586 0.000446807
14 3.5992 1.06012 0.0708882 -1.55963 0.00161938 0.0627619
15 1.66069 0 0 -0.0179103 0.075781 -0.00940114
16 1.16699 0 0 0.0151709 0.0454569 -0.0402751
17 2.18853 -0.501041 0.057659 -1.57004 -0.0521617 -0.225938
18 1.29609 0 0 0.00692333 -0.0463194 0.0403296
19 1.62202 -0.000713348 -0.000470161 0.0170535 -0.0362868 -0.00632048
20 1.22241 0 0 -0.0104111 -0.0213342 -0.00596808
21 1.76707 -1.27612 0.0366405 -1.57004 -0.0293956 -0.261465
22 1.55588 0 0 0.0101481 0.0309805 0.0220302
23 1.24274 0 0 0.000478944 0.000360597 0.0344315
24 0.784538 0 0 -0.0158299 0.00390861 -0.0455418
25 1.938 -1.34664 1.82283 0.000934124 0 0
26 6.02794 0 0 0.000187746 0 0.0558755
27 11.7344 0 0 -0.00140285 0 -0.11304
28 8.81138 -0.000449687 -0.000112176 -0.000487971 0 0.000157763
29 5.77839 0.000286311 0 -0.00032694 0 0.000105709
30 2.23163 -0.000329345 -0.000363946 -0.00016103 0 0
31 11.4725 0 0 -0.000492816 0 0.0571578
32 0.615219 -0.993091 -0.8107 2.34144 0.189471 -0.680076
33 2.24752 0 0 0.0836854 0.0791542 0.0464054
34 1.11936 0 0 0.0942835 0.0346568 0.0282656
35 3.71348 -0.102641 0.102191 1.55999 -0.0420332 0.0798625
36 1.72615 0 0 -0.00207046 -0.0284524 -0.0390825
37 1.21114 0 0 0.00991423 0.014586 -0.000446801
38 3.5992 -1.06012 0.0708882 1.55963 0.00161932 -0.0627623
39 1.66069 0 0 0.0179106 0.0757813 0.00940095
40 1.16699 0 0 -0.0151707 0.0454569 0.0402757
41 2.18852 0.50104 0.057659 1.57004 -0.0521617 0.225938
42 1.29609 0 0 -0.00692371 -0.0463195 -0.04033
43 1.62202 0.000713587 -0.000471115 -0.0170531 -0.0362868 0.00632033
44 1.22241 0 0 0.010411 -0.0213342 0.00596803
45 1.76707 1.27612 0.036641 1.57004 -0.0293956 0.261465
46 1.55588 0 0 -0.0101482 0.0309801 -0.0220303
47 1.24273 0 0 -0.000479277 0.000360472 -0.0344315
48 0.784523 0 0 0.0158301 0.00390859 0.0455419
time 20
0 0 0 0 0 0 0
1 -1.93761 -1.34664 1.82283 -0.000932693 0 3.14159
2 6.02794 0 0 -0.000187397 0 -0.0558807
3 11.7344 0 0 0.0014027 0 0.113048
4 8.81167 0 0 -0.00105613 0 0
5 5.77884 0 0 -0.000707606 0 0
6 2.23249 0 0 -0.000348522 0 0
7 11.4725 0 0 -0.00105379 0 -0.0571609
8 0.615812 0.994372 -0.809165 -2.33375 0.188502 0.680307
9 2.24752 0 0 -0.0910121 0.0753145 -0.0432825
10 1.11936 0 0 -0.0944248 0.0363586 -0.0310035
11 3.71348 0.102639 0.102191 -1.55999 -0.0420337 -0.0798626
12 1.72615 0 0 0.00207066 -0.0284524 0.0390827
13 1.21112 0 0 -0.00991395 0.014586 0.000446807
14 3.5992 1.06012 0.0708882 -1.55963 0.00161938 0.0627619
15 1.66069 0 0 -0.0179103 0.075781 -0.00940114
16 1.16699 0 0 0.0151709 0.0454569 -0.0402751
17 2.18853 -0.501041 0.057659 -1.57004 -0.0521617 -0.225938
18 1.29609 0 0 0.00692333 -0.0463194 0.0403296
19 1.62202 -0.000713348 -0.000470161 0.0170535 -0.0362868 -0.00632048
20 1.22241 0 0 -0.0104111 -0.0213342 -0.00596808
21 1.76707 -1.27612 0.0366405 -1.57004 -0.0293956 -0.261465
22 1.55588 0 0 0.0101481 0.0309805 0.0220302
23 1.24274 0 0 0.000478944 0.000360597 0.0344315
24 0.784538 0 0 -0.0158299 0.00390861 -0.0455418
25 1.938 -1.34664 1.82283 0.000934124 0 0
26 6.02794 0 0 0.000187746 0 0.0558755
27 11.7344 0 0 -0.00140285 0 -0.11304
28 8.81138 -0.000449687 -0.000112176 -0.000487971 0 0.000157763
29 5.77839 0.000286311 0 -0.00032694 0 0.000105709
30 2.23163 -0.000329345 -0.000363946 -0.00016103 0 0
31 11.4725 0 0 -0.000492816 0 0.0571578
32 0.615219 -0.993091 -0.8107 2.34144 0.189471 -0.680076
33 2.24752 0 0 0.0836854 0.0791542 0.0464054
34 1.11936 0 0 0.0942835 0.0346568 0.0282656
35 3.71348 -0.102641 0.102191 1.55999 -0.0420332 0.0798625
36 1.72615 0 0 -0.00207046 -0.0284524 -0.0390825
37 1.21114 0 0 0.00991423 0.014586 -0.000446801
38 3.5992 -1.06012 0.0708882 1.55963 0.00161932 -0.0627623
39 1.66069 0 0 0.0179106 0.0757813 0.00940095
40 1.16699 0 0 -0.0151707 0.0454569 0.0402757
41 2.18852 0.50104 0.057659 1.57004 -0.0521617 0.225938
42 1.29609 0 0 -0.00692371 -0.0463195 -0.04033
43 1.62202 0.000713587 -0.000471115 -0.0170531 -0.0362868 0.00632033
44 1.22241 0 0 0.010411 -0.0213342 0.00596803
45 1.76707 1.27612 0.036641 1.57004 -0.0293956 0.261465
46 1.55588 0 0 -0.0101482 0.0309801 -0.0220303
47 1.24273 0 0 -0.000479277 0.000360472 -0.0344315
48 0.784523 0 0 0.0158301 0.00390859 0.0455419
time 21
0 0 0 0 0 0 0
1 -1.93761 -1.34664 1.82283 -0.000932693 0 3.14159
2 6.02794 0 0 -0.000187397 0 -0.0558807
3 11.7344 0 0 0.0014027 0 0.113048
4 8.81167 0 0 -0.00105613 0 0
5 5.77884 0 0 -0.000707606 0 0
6 2.23249 0 0 -0.000348522 0 0
7 11.4725 0 0 -0.00105379 0 -0.0571609
8 0.615812 0.994372 -0.809165 -2.33375 0.188502 0.680307
9 2.24752 0 0 -0.0910121 0.0753145 -0.0432825
10 1.11936 0 0 -0.0944248 0.0363586 -0.0310035
11 3.71348 0.102639 0.102191 -1.55999 -0.0420337 -0.0798626
12 1.72615 0 0 0.00207066 -0.0284524 0.0390827
13 1.21112 0 0 -0.00991395 0.014586 0.000446807
14 3.5992 1.06012 0.0708882 -1.55963 0.00161938 0.0627619
15 1.66069 0 0 -0.0179103 0.075781 -0.00940114
16 1.16699 0 0 0.0151709 0.0454569 -0.0402751
17 2.18853 -0.501041 0.057659 -1.57004 -0.0521617 -0.225938
18 1.29609 0 0 0.00692333 -0.0463194 0.0403296
19 1.62202 -0.000713348 -0.000470161 0.0170535 -0.0362868 -0.00632048
20 1.22241 0 0 -0.0104111 -0.0213342 -0.00596808
21 1.76707 -1.27612 0.0366405 -1.57004 -0.0293956 -0.261465
22 1.55588 0 0 0.0101481 0.0309805 0.0220302
23 1.24274 0 0 0.000478944 0.000360597 0.0344315
24 0.784538 0 0 -0.0158299 0.00390861 -0.0455418
25 1.938 -1.34664 1.82283 0.000934124 0 0
26 6.02794 0 0 0.000187746 0 0.0558755
27 11.7344 0 0 -0.00140285 0 -0.11304
28 8.81138 -0.000449687 -0.000112176 -0.000487971 0 0.000157763
29 5.77839 0.000286311 0 -0.00032694 0 0.000105709
30 2.23163 -0.000329345 -0.000363946 -0.00016103 0 0
31 11.4725 0 0 -0.000492816 0 0.0571578
32 0.615219 -0.993091 -0.8107 2.34144 0.189471 -0.680076
33 2.24752 0 0 0.0836854 0.0791542 0.0464054
34 1.11936 0 0 0.0942835 0.0346568 0.0282656
35 3.71348 -0.102641 0.102191 1.55999 -0.0420332 0.0798625
36 1.72615 0 0 -0.00207046 -0.0284524 -0.0390825
37 1.21114 0 0 0.00991423 0.014586 -0.000446801
38 3.5992 -1.06012 0.0708882 1.55963 0.00161932 -0.0627623
39 1.66069 0 0 0.0179106 0.0757813 0.00940095
40 1.16699 0 0 -0.0151707 0.0454569 0.0402757
41 2.18852 0.50104 0.057659 1.57004 -0.0521617 0.225938
42 1.29609 0 0 -0.00692371 -0.0463195 -0.04033
43 1.62202 0.000713587 -0.000471115 -0.0170531 -0.0362868 0.00632033
44 1.22241 0 0 0.010411 -0.0213342 0.00596803
45 1.76707 1.27612 0.036641 1.57004 -0.0293956 0.261465
46 1.55588 0 0 -0.0101482 0.0309801 -0.0220303
47 1.24273 0 0 -0.000479277 0.000360472 -0.0344315
48 0.784523 0 0 0.0158301 0.00390859 0.0455419
time 22
0 0 0 0 0 0 0
1 -1.93761 -1.34664 1.82283 -0.000932693 0 3.14159
2 6.02794 0 0 -0.000187397 0 -0.0558807
3 11.7344 0 0 0.0014027 0 0.113048
4 8.81167 0 0 -0.00105613 0 0
5 5.77884 0 0 -0.000707606 0 0
6 2.23249 0 0 -0.000348522 0 0
7 11.4725 0 0 -0.00105379 0 -0.0571609
8 0.615812 0.994372 -0.809165 -2.33375 0.188502 0.680307
9 2.24752 0 0 -0.0910121 0.0753145 -0.0432825
10 1.11936 0 0 -0.0944248 0.0363586 -0.0310035
11 3.71348 0.102639 0.102191 -1.55999 -0.0420337 -0.0798626
12 1.72615 0 0 0.00207066 -0.0284524 0.0390827
13 1.21112 0 0 -0.00991395 0.014586 0.000446807
14 3.5992 1.06012 0.0708882 -1.55963 0.00161938 0.0627619
15 1.66069 0 0 -0.0179103 0.075781 -0.00940114
16 1.16699 0 0 0.0151709 0.0454569 -0.0402751
17 2.18853 -0.501041 0.057659 -1.57004 -0.0521617 -0.225938
18 1.29609 0 0 0.00692333 -0.0463194 0.0403296
19 1.62202 -0.000713348 -0.000470161 0.0170535 -0.0362868 -0.00632048
20 1.22241 0 0 -0.0104111 -0.0213342 -0.00596808
21 1.76707 -1.27612 0.0366405 -1.57004 -0.0293956 -0.261465
22 1.55588 0 0 0.0101481 0.0309805 0.0220302
23 1.24274 0 0 0.000478944 0.000360597 0.0344315
24 0.784538 0 0 -0.0158299 0.00390861 -0.0455418
25 1.938 -1.34664 1.82283 0.000934124 0 0
26 6.02794 0 0 0.000187746 0 0.0558755
27 11.7344 0 0 -0.00140285 0 -0.11304
28 8.81138 -0.000449687 -0.000112176 -0.000487971 0 0.000157763
29 5.77839 0.000286311 0 -0.00032694 0 0.000105709
30 2.23163 -0.000329345 -0.000363946 -0.00016103 0 0
31 11.4725 0 0 -0.000492816 0 0.0571578
32 0.615219 -0.993091 -0.8107 2.34144 0.189471 -0.680076
33 2.24752 0 0 0.0836854 0.0791542 0.0464054
34 1.11936 0 0 0.0942835 0.0346568 0.0282656
35 3.71348 -0.102641 0.102191 1.55999 -0.0420332 0.0798625
36 1.72615 0 0 -0.00207046 -0.0284524 -0.0390825
37 1.21114 0 0 0.00991423 0.014586 -0.000446801
38 3.5992 -1.06012 0.0708882 1.55963 0.00161932 -0.0627623
39 1.66069 0 0 0.0179106 0.0757813 0.00940095
40 1.16699 0 0 -0.0151707 0.0454569 0.0402757
41 2.18852 0.50104 0.057659 1.57004 -0.0521617 0.225938
42 1.29609 0 0 -0.00692371 -0.0463195 -0.04033
43 1.62202 0.000713587 -0.000471115 -0.0170531 -0.0362868 0.00632033
44 1.22241 0 0 0.010411 -0.0213342 0.00596803
45 1.76707 1.27612 0.036641 1.57004 -0.0293956 0.261465
46 1.55588 0 0 -0.0101482 0.0309801 -0.0220303
47 1.24273 0 0 -0.000479277 0.000360472 -0.0344315
48 0.784523 0 0 0.0158301 0.00390859 0.0455419
time 23
0 0 0 0 0 0 0
1 -1.93761 -1.34664 1.82283 -0.000932693 0 3.14159
2 6.02794 0 0 -0.000187397 0 -0.0558807
3 11.7344 0 0 0.0014027 0 0.113048
4 8.81167 0 0 -0.00105613 0 0
5 5.77884 0 0 -0.000707606 0 0
6 2.23249 0 0 -0.000348522 0 0
7 11.4725 0 0 -0.00105379 0 -0.0571609
8 0.615812 0.994372 -0.809165 -2.33375 0.188502 0.680307
9 2.24752 0 0 -0.0910121 0.0753145 -0.0432825
10 1.11936 0 0 -0.0944248 0.0363586 -0.0310035
11 3.71348 0.102639 0.102191 -1.55999 -0.0420337 -0.0798626
12 1.72615 0 0 0.00207066 -0.0284524 0.0390827
13 1.21112 0 0 -0.00991395 0.014586 0.000446807
14 3.5992 1.06012 0.0708882 -1.55963 0.00161938 0.0627619
15 1.66069 0 0 -0.0179103 0.075781 -0.00940114
16 1.16699 0 0 0.0151709 0.0454569 -0.0402751
17 2.18853 -0.501041 0.057659 -1.57004 -0.0521617 -0.225938
18 1.29609 0 0 0.00692333 -0.0463194 0.0403296
19 1.62202 -0.000713348 -0.000470161 0.0170535 -0.0362868 -0.00632048
20 1.22241 0 0 -0.0104111 -0.0213342 -0.00596808
21 1.76707 -1.27612 0.0366405 -1.57004 -0.0293956 -0.261465
22 1.55588 0 0 0.0101481 0.0309805 0.0220302
23 1.24274 0 0 0.000478944 0.000360597 0.0344315
24 0.784538 0 0 -0.0158299 0.00390861 -0.0455418
25 1.938 -1.34664 1.82283 0.000934124 0 0
26 6.02794 0 0 0.000187746 0 0.0558755
27 11.7344 0 0 -0.00140285 0 -0.11304
28 8.81138 -0.000449687 -0.000112176 -0.000487971 0 0.000157763
29 5.77839 0.000286311 0 -0.00032694 0 0.000105709
30 2.23163 -0.000329345 -0.000363946 -0.00016103 0 0
31 11.4725 0 0 -0.000492816 0 0.0571578
32 0.615219 -0.993091 -0.8107 2.34144 0.189471 -0.680076
33 2.24752 0 0 0.0836854 0.0791542 0.0464054
34 1.11936 0 0 0.0942835 0.0346568 0.0282656
35 3.71348 -0.102641 0.102191 1.55999 -0.0420332 0.0798625
36 1.72615 0 0 -0.00207046 -0.0284524 -0.0390825
37 1.21114 0 0 0.00991423 0.014586 -0.000446801
38 3.5992 -1.06012 0.0708882 1.55963 0.00161932 -0.0627623
39 1.66069 0 0 0.0179106 0.0757813 0.00940095
40 1.16699 0 0 -0.0151707 0.0454569 0.0402757
41 2.18852 0.50104 0.057659 1.57004 -0.0521617 0.225938
42 1.29609 0 0 -0.00692371 -0.0463195 -0.04033
43 1.62202 0.000713587 -0.000471115 -0.0170531 -0.0362868 0.00632033
44 1.22241 0 0 0.010411 -0.0213342 0.00596803
45 1.76707 1.27612 0.036641 1.57004 -0.0293956 0.261465
46 1.55588 0 0 -0.0101482 0.0309801 -0.0220303
47 1.24273 0 0 -0.000479277 0.000360472 -0.0344315
48 0.784523 0 0 0.0158301 0.00390859 0.0455419
time 24
0 0 0 0 0 0 0
1 -1.93761 -1.34664 1.82283 -0.000932693 0 3.14159
2 6.02794 0 0 -0.000187397 0 -0.0558807
3 11.7344 0 0 0.0014027 0 0.113048
4 8.81167 0 0 -0.00105613 0 0
5 5.77884 0 0 -0.000707606 0 0
6 2.23249 0 0 -0.000348522 0 0
7 11.4725 0 0 -0.00105379 0 -0.0571609
8 0.615812 0.994372 -0.809165 -2.33375 0.188502 0.680307
9 2.24752 0 0 -0.0910121 0.0753145 -0.0432825
10 1.11936 0 0 -0.0944248 0.0363586 -0.0310035
11 3.71348 0.102639 0.102191 -1.55999 -0.0420337 -0.0798626
12 1.72615 0 0 0.00207066 -0.0284524 0.0390827
13 1.21112 0 0 -0.00991395 0.014586 0.000446807
14 3.5992 1.06012 0.0708882 -1.55963 0.00161938 0.0627619
15 1.66069 0 0 -0.0179103 0.075781 -0.00940114
16 1.16699 0 0 0.0151709 0.0454569 -0.0402751
17 2.18853 -0.501041 0.057659 -1.57004 -0.0521617 -0.225938
18 1.29609 0 0 0.00692333 -0.0463194 0.0403296
19 1.62202 -0.000713348 -0.000470161 0.0170535 -0.0362868 -0.00632048
20 1.22241 0 0 -0.0104111 -0.0213342 -0.00596808
21 1.76707 -1.27612 0.0366405 -1.57004 -0.0293956 -0.261465
22 1.55588 0 0 0.0101481 0.0309805 0.0220302
23 1.24274 0 0 0.000478944 0.000360597 0.0344315
24 0.784538 0 0 -0.0158299 0.00390861 -0.0455418
25 1.938 -1.34664 1.82283 0.000934124 0 0
26 6.02794 0 0 0.000187746 0 0.0558755
27 11.7344 0 0 -0.00140285 0 -0.11304
28 8.81138 -0.000449687 -0.000112176 -0.000487971 0 0.000157763
29 5.77839 0.000286311 0 -0.00032694 0 0.000105709
30 2.23163 -0.000329345 -0.000363946 -0.00016103 0 0
31 11.4725 0 0 -0.000492816 0 0.0571578
32 0.615219 -0.993091 -0.8107 2.34144 0.189471 -0.680076
33 2.24752 0 0 0.0836854 0.0791542 0.0464054
34 1.11936 0 0 0.0942835 0.0346568 0.0282656
35 3.71348 -0.102641 0.102191 1.55999 -0.0420332 0.0798625
36 1.72615 0 0 -0.00207046 -0.0284524 -0.0390825
37 1.21114 0 0 0.00991423 0.014586 -0.000446801
38 3.5992 -1.06012 0.0708882 1.55963 0.00161932 -0.0627623
39 1.66069 0 0 0.0179106 0.0757813 0.00940095
40 1.16699 0 0 -0.0151707 0.0454569 0.0402757
41 2.18852 0.50104 0.057659 1.57004 -0.0521617 0.225938
42 1.29609 0 0 -0.00692371 -0.0463195 -0.04033
43 1.62202 0.000713587 -0.000471115 -0.0170531 -0.0362868 0.00632033
44 1.22241 0 0 0.010411 -0.0213342 0.00596803
45 1.76707 1.27612 0.036641 1.57004 -0.0293956 0.261465
46 1.55588 0 0 -0.0101482 0.0309801 -0.0220303
47 1.24273 0 0 -0.000479277 0.000360472 -0.0344315
48 0.784523 0 0 0.0158301 0.00390859 0.0455419
time 25
0 0 0 0 0 0 0
1 -1.93761 -1.34664 1.82283 -0.000932693 0 3.14159
2 6.02794 0 0 -0.000187397 0 -0.0558807
3 11.7344 0 0 0.0014027 0 0.113048
4 8.81167 0 0 -0.00105613 0 0
5 5.77884 0 0 -0.000707606 0 0
6 2.23249 0 0 -0.000348522 0 0
7 11.4725 0 0 -0.00105379 0 -0.0571609
8 0.615812 0.994372 -0.809165 -2.33375 0.188502 0.680307
9 2.24752 0 0 -0.0910121 0.0753145 -0.0432825
10 1.11936 0 0 -0.0944248 0.0363586 -0.0310035
11 3.71348 0.102639 0.102191 -1.55999 -0.0420337 -0.0798626
12 1.72615 0 0 0.00207066 -0.0284524 0.0390827
13 1.21112 0 0 -0.00991395 0.014586 0.000446807
14 3.5992 1.06012 0.0708882 -1.55963 0.00161938 0.0627619
15 1.66069 0 0 -0.0179103 0.075781 -0.00940114
16 1.16699 0 0 0.0151709 0.0454569 -0.0402751
17 2.18853 -0.501041 0.057659 -1.57004 -0.0521617 -0.225938
18 1.29609 0 0 0.00692333 -0.0463194 0.0403296
19 1.62202 -0.000713348 -0.000470161 0.0170535 -0.0362868 -0.00632048
20 1.22241 0 0 -0.0104111 -0.0213342 -0.00596808
21 1.76707 -1.27612 0.0366405 -1.57004 -0.0293956 -0.261465
22 1.55588 0 0 0.0101481 0.0309805 0.0220302
23 1.24274 0 0 0.000478944 0.000360597 0.0344315
24 0.784538 0 0 -0.0158299 0.00390861 -0.0455418
25 1.938 -1.34664 1.82283 0.000934124 0 0
26 6.02794 0 0 0.000187746 0 0.0558755
27 11.7344 0 0 -0.00140285 0 -0.11304
28 8.81138 -0.000449687 -0.000112176 -0.000487971 0 0.000157763
29 5.77839 0.000286311 0 -0.00032694 0 0.000105709
30 2.23163 -0.000329345 -0.000363946 -0.00016103 0 0
31 11.4725 0 0 -0.000492816 0 0.0571578
32 0.615219 -0.993091 -0.8107 2.34144 0.189471 -0.680076
33 2.24752 0 0 0.0836854 0.0791542 0.0464054
34 1.11936 0 0 0.0942835 0.0346568 0.0282656
35 3.71348 -0.102641 0.102191 1.55999 -0.0420332 0.0798625
36 1.72615 0 0 -0.00207046 -0.0284524 -0.0390825
37 1.21114 0 0 0.00991423 0.014586 -0.000446801
38 3.5992 -1.06012 0.0708882 1.55963 0.00161932 -0.0627623
39 1.66069 0 0 0.0179106 0.0757813 0.00940095
40 1.16699 0 0 -0.0151707 0.0454569 0.0402757
41 2.18852 0.50104 0.057659 1.57004 -0.0521617 0.225938
42 1.29609 0 0 -0.00692371 -0.0463195 -0.04033
43 1.62202 0.000713587 -0.000471115 -0.0170531 -0.0362868 0.00632033
44 1.22241 0 0 0.010411 -0.0213342 0.00596803
45 1.76707 1.27612 0.036641 1.57004 -0.0293956 0.261465
46 1.55588 0 0 -0.0101482 0.0309801 -0.0220303
47 1.24273 0 0 -0.000479277 0.000360472 -0.0344315
48 0.784523 0 0 0.0158301 0.00390859 0.0455419
time 26
0 0 0 0 0 0 0
1 -1.93761 -1.34664 1.82283 -0.000932693 0 3.14159
2 6.02794 0 0 -0.000187397 0 -0.0558807
3 11.7344 0 0 0.0014027 0 0.113048
4 8.81167 0 0 -0.00105613 0 0
5 5.77884 0 0 -0.000707606 0 0
6 2.23249 0 0 -0.000348522 0 0
7 11.4725 0 0 -0.00105379 0 -0.0571609
8 0.615812 0.994372 -0.809165 -2.33375 0.188502 0.680307
9 2.24752 0 0 -0.0910121 0.0753145 -0.0432825
10 1.11936 0 0 -0.0944248 0.0363586 -0.0310035
11 3.71348 0.102639 0.102191 -1.55999 -0.0420337 -0.0798626
12 1.72615 0 0 0.00207066 -0.0284524 0.0390827
13 1.21112 0 0 -0.00991395 0.014586 0.000446807
14 3.5992 1.06012 0.0708882 -1.55963 0.00161938 0.0627619
15 1.66069 0 0 -0.0179103 0.075781 -0.00940114
16 1.16699 0 0 0.0151709 0.0454569 -0.0402751
17 2.18853 -0.501041 0.057659 -1.57004 -0.0521617 -0.225938
18 1.29609 0 0 0.00692333 -0.0463194 0.0403296
19 1.62202 -0.000713348 -0.000470161 0.0170535 -0.0362868 -0.00632048
20 1.22241 0 0 -0.0104111 -0.0213342 -0.00596808
21 1.76707 -1.27612 0.0366405 -1.57004 -0.0293956 -0.261465
22 1.55588 0 0 0.0101481 0.0309805 0.0220302
23 1.24274 0 0 0.000478944 0.000360597 0.0344315
24 0.784538 0 0 -0.0158299 0.00390861 -0.0455418
25 1.938 -1.34664 1.82283 0.000934124 0 0
26 6.02794 0 0 0.000187746 0 0.0558755
27 11.7344 0 0 -0.00140285 0 -0.11304
28 8.81138 -0.000449687 -0.000112176 -0.000487971 0 0.000157763
29 5.77839 0.000286311 0 -0.00032694 0 0.000105709
30 2.23163 -0.000329345 -0.000363946 -0.00016103 0 0
31 11.4725 0 0 -0.000492816 0 0.0571578
32 0.615219 -0.993091 -0.8107 2.34144 0.189471 -0.680076
33 2.24752 0 0 0.0836854 0.0791542 0.0464054
34 1.11936 0 0 0.0942835 0.0346568 0.0282656
35 3.71348 -0.102641 0.102191 1.55999 -0.0420332 0.0798625
36 1.72615 0 0 -0.00207046 -0.0284524 -0.0390825
37 1.21114 0 0 0.00991423 0.014586 -0.000446801
38 3.5992 -1.06012 0.0708882 1.55963 0.00161932 -0.0627623
39 1.66069 0 0 0.0179106 0.0757813 0.00940095
40 1.16699 0 0 -0.0151707 0.0454569 0.0402757
41 2.18852 0.50104 0.057659 1.57004 -0.0521617 0.225938
42 1.29609 0 0 -0.00692371 -0.0463195 -0.04033
43 1.62202 0.000713587 -0.000471115 -0.0170531 -0.0362868 0.00632033
44 1.22241 0 0 0.010411 -0.0213342 0.00596803
45 1.76707 1.27612 0.036641 1.57004 -0.0293956 0.261465
46 1.55588 0 0 -0.0101482 0.0309801 -0.0220303
47 1.24273 0 0 -0.000479277 0.000360472 -0.0344315
48 0.784523 0 0 0.0158301 0.00390859 0.0455419
time 27
0 0 0 0 0 0 0
1 -1.93761 -1.34664 1.82283 -0.000932693 0 3.14159
2 6.02794 0 0 -0.000187397 0 -0.0558807
3 11.7344 0 0 0.0014027 0 0.113048
4 8.81167 0 0 -0.00105613 0 0
5 5.77884 0 0 -0.000707606 0 0
6 2.23249 0 0 -0.000348522 0 0
7 11.4725 0 0 -0.00105379 0 -0.0571609
8 0.615812 0.994372 -0.809165 -2.33375 0.188502 0.680307
9 2.24752 0 0 -0.0910121 0.0753145 -0.0432825
10 1.11936 0 0 -0.0944248 0.0363586 -0.0310035
11 3.71348 0.102639 0.102191 -1.55999 -0.0420337 -0.0798626
12 1.72615 0 0 0.00207066 -0.0284524 0.0390827
13 1.21112 0 0 -0.00991395 0.014586 0.000446807
14 3.5992 1.06012 0.0708882 -1.55963 0.00161938 0.0627619
15 1.66069 0 0 -0.0179103 0.075781 -0.00940114
16 1.16699 0 0 0.0151709 0.0454569 -0.0402751
17 2.18853 -0.501041 0.057659 -1.57004 -0.0521617 -0.225938
18 1.29609 0 0 0.00692333 -0.0463194 0.0403296
19 1.62202 -0.000713348 -0.000470161 0.0170535 -0.0362868 -0.00632048
20 1.22241 0 0 -0.0104111 -0.0213342 -0.00596808
21 1.76707 -1.27612 0.0366405 -1.57004 -0.0293956 -0.261465
22 1.55588 0 0 0.0101481 0.0309805 0.0220302
23 1.24274 0 0 0.000478944 0.000360597 0.0344315
24 0.784538 0 0 -0.0158299 0.00390861 -0.0455418
25 1.938 -1.34664 1.82283 0.000934124 0 0
26 6.02794 0 0 0.000187746 0 0.0558755
27 11.7344 0 0 -0.00140285 0 -0.11304
28 8.81138 -0.000449687 -0.000112176 -0.000487971 0 0.000157763
29 5.77839 0.000286311 0 -0.00032694 0 0.000105709
30 2.23163 -0.000329345 -0.000363946 -0.00016103 0 0
31 11.4725 0 0 -0.000492816 0 0.0571578
32 0.615219 -0.993091 -0.8107 2.34144 0.189471 -0.680076
33 2.24752 0 0 0.0836854 0.0791542 0.0464054
34 1.11936 0 0 0.0942835 0.0346568 0.0282656
35 3.71348 -0.102641 0.102191 1.55999 -0.0420332 0.0798625
36 1.72615 0 0 -0.00207046 -0.0284524 -0.0390825
37 1.21114 0 0 0.00991423 0.014586 -0.000446801
38 3.5992 -1.06012 0.0708882 1.55963 0.00161932 -0.0627623
39 1.66069 0 0 0.0179106 0.0757813 0.00940095
40 1.16699 0 0 -0.0151707 0.0454569 0.0402757
41 2.18852 0.50104 0.057659 1.57004 -0.0521617 0.225938
42 1.29609 0 0 -0.00692371 -0.0463195 -0.04033
43 1.62202 0.000713587 -0.000471115 -0.0170531 -0.0362868 0.00632033
44 1.22241 0 0 0.010411 -0.0213342 0.00596803
45 1.76707 1.27612 0.036641 1.57004 -0.0293956 0.261465
46 1.55588 0 0 -0.0101482 0.0309801 -0.0220303
47 1.24273 0 0 -0.000479277 0.000360472 -0.0344315
48 0.784523 0 0 0.0158301 0.00390859 0.0455419
time 28
0 0 0 0 0 0 0
1 -1.93761 -1.34664 1.82283 -0.000932693 0 3.14159
2 6.02794 0 0 -0.000187397 0 -0.0558807
3 11.7344 0 0 0.0014027 0 0.113048
4 8.81167 0 0 -0.00105613 0 0
5 5.77884 0 0 -0.000707606 0 0
6 2.23249 0 0 -0.000348522 0 0
7 11.4725 0 0 -0.00105379 0 -0.0571609
8 0.615812 0.994372 -0.809165 -2.33375 0.188502 0.680307
9 2.24752 0 0 -0.0910121 0.0753145 -0.0432825
10 1.11936 0 0 -0.0944248 0.0363586 -0.0310035
11 3.71348 0.102639 0.102191 -1.55999 -0.0420337 -0.0798626
12 1.72615 0 0 0.00207066 -0.0284524 0.0390827
13 1.21112 0 0 -0.00991395 0.014586 0.000446807
14 3.5992 1.06012 0.0708882 -1.55963 0.00161938 0.0627619
15 1.66069 0 0 -0.0179103 0.075781 -0.00940114
16 1.16699 0 0 0.0151709 0.0454569 -0.0402751
17 2.18853 -0.501041 0.057659 -1.57004 -0.0521617 -0.225938
18 1.29609 0 0 0.00692333 -0.0463194 0.0403296
19 1.62202 -0.000713348 -0.000470161 0.0170535 -0.0362868 -0.00632048
20 1.22241 0 0 -0.0104111 -0.0213342 -0.00596808
21 1.76707 -1.27612 0.0366405 -1.57004 -0.0293956 -0.261465
22 1.55588 0 0 0.0101481 0.0309805 0.0220302
23 1.24274 0 0 0.000478944 0.000360597 0.0344315
24 0.784538 0 0 -0.0158299 0.00390861 -0.0455418
25 1.938 -1.34664 1.82283 0.000934124 0 0
26 6.02794 0 0 0.000187746 0 0.0558755
27 11.7344 0 0 -0.00140285 0 -0.11304
28 8.81138 -0.000449687 -0.000112176 -0.000487971 0 0.000157763
29 5.77839 0.000286311 0 -0.00032694 0 0.000105709
30 2.23163 -0.000329345 -0.000363946 -0.00016103 0 0
31 11.4725 0 0 -0.000492816 0 0.0571578
32 0.615219 -0.993091 -0.8107 2.34144 0.189471 -0.680076
33 2.24752 0 0 0.0836854 0.0791542 0.0464054
34 1.11936 0 0 0.0942835 0.0346568 0.0282656
35 3.71348 -0.102641 0.102191 1.55999 -0.0420332 0.0798625
36 1.72615 0 0 -0.00207046 -0.0284524 -0.0390825
37 1.21114 0 0 0.00991423 0.014586 -0.000446801
38 3.5992 -1.06012 0.0708882 1.55963 0.00161932 -0.0627623
39 1.66069 0 0 0.0179106 0.0757813 0.00940095
40 1.16699 0 0 -0.0151707 0.0454569 0.0402757
41 2.18852 0.50104 0.057659 1.57004 -0.0521617 0.225938
42 1.29609 0 0 -0.00692371 -0.0463195 -0.04033
43 1.62202 0.000713587 -0.000471115 -0.0170531 -0.0362868 0.00632033
44 1.22241 0 0 0.010411 -0.0213342 0.00596803
45 1.76707 1.27612 0.036641 1.57004 -0.0293956 0.261465
46 1.55588 0 0 -0.0101482 0.0309801 -0.0220303
47 1.24273 0 0 -0.000479277 0.000360472 -0.0344315
48 0.784523 0 0 0.0158301 0.00390859 0.0455419
time 29
0 0 0 0 0 0 0
1 -1.93761 -1.34664 1.82283 -0.000932693 0 3.14159
2 6.02794 0 0 -0.000187397 0 -0.0558807
3 11.7344 0 0 0.0014027 0 0.113048
4 8.81167 0 0 -0.00105613 0 0
5 5.77884 0 0 -0.000707606 0 0
6 2.23249 0 0 -0.000348522 0 0
7 11.4725 0 0 -0.00105379 0 -0.0571609
8 0.615812 0.994372 -0.809165 -2.33375 0.188502 0.680307
9 2.24752 0 0 -0.0910121 0.0753145 -0.0432825
10 1.11936 0 0 -0.0944248 0.0363586 -0.0310035
11 3.71348 0.102639 0.102191 -1.55999 -0.0420337 -0.0798626
12 1.72615 0 0 0.00207066 -0.0284524 0.0390827
13 1.21112 0 0 -0.00991395 0.014586 0.000446807
14 3.5992 1.06012 0.0708882 -1.55963 0.00161938 0.0627619
15 1.66069 0 0 -0.0179103 0.075781 -0.00940114
16 1.16699 0 0 0.0151709 0.0454569 -0.0402751
17 2.18853 -0.501041 0.057659 -1.57004 -0.0521617 -0.225938
18 1.29609 0 0 0.00692333 -0.0463194 0.0403296
19 1.62202 -0.000713348 -0.000470161 0.0170535 -0.0362868 -0.00632048
20 1.22241 0 0 -0.0104111 -0.0213342 -0.00596808
21 1.76707 -1.27612 0.0366405 -1.57004 -0.0293956 -0.261465
22 1.55588 0 0 0.0101481 0.0309805 0.0220302
23 1.24274 0 0 0.000478944 0.000360597 0.0344315
24 0.784538 0 0 -0.0158299 0.00390861 -0.0455418
25 1.938 -1.34664 1.82283 0.000934124 0 0
26 6.02794 0 0 0.000187746 0 0.0558755
27 11.7344 0 0 -0.00140285 0 -0.11304
28 8.81138 -0.000449687 -0.000112176 -0.000487971 0 0.000157763
29 5.77839 0.000286311 0 -0.00032694 0 0.000105709
30 2.23163 -0.000329345 -0.000363946 -0.00016103 0 0
31 11.4725 0 0 -0.000492816 0 0.0571578
32 0.615219 -0.993091 -0.8107 2.34144 0.189471 -0.680076
33 2.24752 0 0 0.0836854 0.0791542 0.0464054
34 1.11936 0 0 0.0942835 0.0346568 0.0282656
35 3.71348 -0.102641 0.102191 1.55999 -0.0420332 0.0798625
36 1.72615 0 0 -0.00207046 -0.0284524 -0.0390825
37 1.21114 0 0 0.00991423 0.014586 -0.000446801
38 3.5992 -1.06012 0.0708882 1.55963 0.00161932 -0.0627623
39 1.66069 0 0 0.0179106 0.0757813 0.00940095
40 1.16699 0 0 -0.0151707 0.0454569 0.0402757
41 2.18852 0.50104 0.057659 1.57004 -0.0521617 0.225938
42 1.29609 0 0 -0.00692371 -0.0463195 -0.04033
43 1.62202 0.000713587 -0.000471115 -0.0170531 -0.0362868 0.00632033
44 1.22241 0 0 0.010411 -0.0213342 0.00596803
45 1.76707 1.27612 0.036641 1.57004 -0.0293956 0.261465
46 1.55588 0 0 -0.0101482 0.0309801 -0.0220303
47 1.24273 0 0 -0.000479277 0.000360472 -0.0344315
48 0.784523 0 0 0.0158301 0.00390859 0.0455419
time 30
0 0 0 0 0 0 0
1 -1.93761 -1.34664 1.82283 -0.000932693 0 3.14159
2 6.02794 0 0 -0.000187397 0 -0.0558807
3 11.7344 0 0 0.0014027 0 0.113048
4 8.81167 0 0 -0.00105613 0 0
5 5.77884 0 0 -0.000707606 0 0
6 2.23249 0 0 -0.000348522 0 0
7 11.4725 0 0 -0.00105379 0 -0.0571609
8 0.615812 0.994372 -0.809165 -2.33375 0.188502 0.680307
9 2.24752 0 0 -0.0910121 0.0753145 -0.0432825
10 1.11936 0 0 -0.0944248 0.0363586 -0.0310035
11 3.71348 0.102639 0.102191 -1.55999 -0.0420337 -0.0798626
12 1.72615 0 0 0.00207066 -0.0284524 0.0390827
13 1.21112 0 0 -0.00991395 0.014586 0.000446807
14 3.5992 1.06012 0.0708882 -1.55963 0.00161938 0.0627619
15 1.66069 0 0 -0.0179103 0.075781 -0.00940114
16 1.16699 0 0 0.0151709 0.0454569 -0.0402751
17 2.18853 -0.501041 0.057659 -1.57004 -0.0521617 -0.225938
18 1.29609 0 0 0.00692333 -0.0463194 0.0403296
19 1.62202 -0.000713348 -0.000470161 0.0170535 -0.0362868 -0.00632048
20 1.22241 0 0 -0.0104111 -0.0213342 -0.00596808
21 1.76707 -1.27612 0.0366405 -1.57004 -0.0293956 -0.261465
22 1.55588 0 0 0.0101481 0.0309805 0.0220302
23 1.24274 0 0 0.000478944 0.000360597 0.0344315
24 0.784538 0 0 -0.0158299 0.00390861 -0.0455418
25 1.938 -1.34664 1.82283 0.000934124 0 0
26 6.02794 0 0 0.000187746 0 0.0558755
27 11.7344 0 0 -0.00140285 0 -0.11304
28 8.81138 -0.000449687 -0.000112176 -0.000487971 0 0.000157763
29 5.77839 0.000286311 0 -0.00032694 0 0.000105709
30 2.23163 -0.000329345 -0.000363946 -0.00016103 0 0
31 11.4725 0 0 -0.000492816 0 0.0571578
32 0.615219 -0.993091 -0.8107 2.34144 0.189471 -0.680076
33 2.24752 0 0 0.0836854 0.0791542 0.0464054
34 1.11936 0 0 0.0942835 0.0346568 0.0282656
35 3.71348 -0.102641 0.102191 1.55999 -0.0420332 0.0798625
36 1.72615 0 0 -0.00207046 -0.0284524 -0.0390825
37 1.21114 0 0 0.00991423 0.014586 -0.000446801
38 3.5992 -1.06012 0.0708882 1.55963 0.00161932 -0.0627623
39 1.66069 0 0 0.0179106 0.0757813 0.00940095
40 1.16699 0 0 -0.0151707 0.0454569 0.0402757
41 2.18852 0.50104 0.057659 1.57004 -0.0521617 0.225938
42 1.29609 0 0 -0.00692371 -0.0463195 -0.04033
43 1.62202 0.000713587 -0.000471115 -0.0170531 -0.0362868 0.00632033
44 1.22241 0 0 0.010411 -0.0213342 0.00596803
45 1.76707 1.27612 0.036641 1.57004 -0.0293956 0.261465
46 1.55588 0 0 -0.0101482 0.0309801 -0.0220303
47 1.24273 0 0 -0.000479277 0.000360472 -0.0344315
48 0.784523 0 0 0.0158301 0.00390859 0.0455419
end
