//Sequence File generated by the Wall Worm SMD Exporter PRO 1.99
//www.wallworm.com
version 1
nodes
0 "b_l_clav" -1
1 "b_l_upperarm" 0
2 "b_l_forearm" 1
3 "b_l_twist3" 2
4 "b_l_twist2" 2
5 "b_l_twist1" 2
6 "b_l_hand" 2
7 "b_l_thumb001" 6
8 "b_l_thumb002" 7
9 "b_l_thumb003" 8
10 "b_l_middle001" 6
11 "b_l_middle002" 10
12 "b_l_middle003" 11
13 "b_l_index001" 6
14 "b_l_index002" 13
15 "b_l_index003" 14
16 "b_l_hand_ringsqueezer" 6
17 "b_l_ring001" 16
18 "b_l_ring002" 17
19 "b_l_ring003" 18
20 "b_l_hand_pinkysqueezer" 6
21 "b_l_pinky001" 20
22 "b_l_pinky002" 21
23 "b_l_pinky003" 22
24 "b_r_clav" -1
25 "b_r_upperarm" 24
26 "b_r_forearm" 25
27 "b_r_twist3" 26
28 "b_r_twist2" 26
29 "b_r_twist1" 26
30 "b_r_hand" 26
31 "b_r_thumb001" 30
32 "b_r_thumb002" 31
33 "b_r_thumb003" 32
34 "b_r_middle001" 30
35 "b_r_middle002" 34
36 "b_r_middle003" 35
37 "b_r_index001" 30
38 "b_r_index002" 37
39 "b_r_index003" 38
40 "b_r_hand_ringsqueezer" 30
41 "b_r_ring001" 40
42 "b_r_ring002" 41
43 "b_r_ring003" 42
44 "b_r_hand_pinkysqueezer" 30
45 "b_r_pinky001" 44
46 "b_r_pinky002" 45
47 "b_r_pinky003" 46
48 "b_zero" -1
49 "d_gun" -1
50 "d_trigger" 49
51 "d_stock" 49
52 "d_selector" 49
53 "d_paddle" 49
54 "d_dustcover" 49
55 "d_charger" 49
56 "d_bcg" 49
57 "d_mag" -1
58 "d_boolet" 57
end
skeleton
time 0
0 1.29637 -0.499222 -12.0785 0.000934124 0 -0.959925
1 6.02794 0 0 -0.820913 0.0100352 -0.736535
2 11.7344 0 0 -0.00140286 0 -0.637902
3 8.81139 -0.000448227 -0.00011158 -2.28642 0 0.000157369
4 5.77839 0.000286102 0 -1.5319 0 0
5 2.23163 -0.000328064 -0.00036335 -0.75452 0 0
6 11.4725 0 0 -2.28859 0.455474 0.20326
7 0.615219 -0.993091 -0.810699 2.33154 0.49143 -0.467307
8 2.24752 0 0 0.184051 -0.000815328 0.3514
9 1.11936 0 0 0.0719057 0.22699 0.00278388
10 3.71348 -0.102638 0.102191 1.55813 0.550067 0.0727845
11 1.72615 0 0 0.0130939 -0.0253457 -0.58864
12 1.21114 0 0 -0.00463512 0.0170162 -0.863412
13 3.59919 -1.06012 0.0708885 1.55942 0.195064 -0.0649502
14 1.66069 0 0 -0.00432464 0.0777453 -0.278548
15 1.167 0 0 -0.023351 0.0241548 -0.401015
16 2.18852 0.501041 0.0576601 1.57004 0.0330458 0.225874
17 1.29609 0 0 0.0245655 -0.0398781 -0.741083
18 1.62202 0.000715256 -0.000471115 0.00984859 -0.0234243 -0.831087
19 1.22241 0 0 0.00136072 0.00642036 -0.52186
20 1.76707 1.27612 0.0366411 1.57002 0.262026 0.261241
21 1.55587 0 0 -0.0308127 0.0106457 -0.943667
22 1.24274 0 0 -0.00058353 0.000138311 -0.446635
23 0.784523 0 0 0.0133278 0.00939348 -0.326309
24 -3.6471 7.74038 -3.8527 -0.000932693 0 -2.0944
25 6.02794 0 0 0.774048 0.905795 0.0484493
26 11.7344 0 0 0.00140281 0 1.53362
27 8.81167 0 0 0.155703 0 0
28 5.77884 0 0 0.104321 0 0
29 2.23249 0 0 0.0513821 0 0
30 11.4725 0 0 0.383302 -0.23367 -0.714931
31 0.615812 0.994373 -0.809166 -2.95367 0.480861 0.223812
32 2.24752 0 0 -0.083166 0.257048 0.264173
33 1.11936 0 0 0.106547 0.169507 0.93736
34 3.71349 0.102641 0.102191 -1.53196 0.903048 -0.384383
35 1.72615 0 0 -0.00479611 -0.00187107 1.31044
36 1.21112 0 0 0.00977506 0.0146796 1.18496
37 3.5992 1.06012 0.0708878 -1.55949 0.15616 0.0645016
38 1.66069 0 0 0.0444974 0.0639188 0.831692
39 1.16699 0 0 0.0223072 0.0093278 0.798134
40 2.18853 -0.50104 0.0576589 -1.57003 0.119427 -0.225808
41 1.29609 0 0 0.271417 0.0698929 0.770014
42 1.62202 -0.000713348 -0.000470161 -0.0323155 -0.0109793 1.4179
43 1.22241 0 0 -0.00658518 0.00177661 1.04424
44 1.76707 -1.27612 0.0366404 -1.44072 0.1345 -0.261341
45 1.55587 0 0 0.182858 0.0427366 0.752105
46 1.24273 0 0 0.000591788 0 0.838876
47 0.784532 0 0 -0.00599216 0.000868452 1.11469
48 0 0 0 0 0 0
49 -4.82809 -17.2798 -7.47293 0.000267062 -0.000273704 0
50 0 -1.70357 0.0050807 0 0 0
51 -0.00196028 3.96104 2.21118 0 0 0
52 0.641596 -0.666149 0.75166 0 0 0
53 0.714397 -3.45621 1.13628 0 0 0
54 -0.70623 -4.69238 1.98618 -3.14159 -0.0872664 3.14159
55 0.0133295 1.02904 3.61174 0 0 0
56 0.0133295 -4.73569 2.23877 0 0 0
57 -4.83449 -22.4862 -12.5873 0 0 0
58 0.0129194 0.0367718 6.63003 0 0 0
time 1
0 1.29637 -0.499222 -12.0785 0.000934124 0 -0.959925
1 6.02794 0 0 -0.819481 0.0559118 -0.69679
2 11.7344 0 0 -0.0014029 0 -0.786343
3 8.81139 -0.00044632 -0.000112057 -2.31437 0 0.000157201
4 5.77839 0.000289917 0 -1.55063 0 0
5 2.23164 -0.000328064 -0.000364304 -0.763743 0 0
6 11.4725 0 0 -2.28617 0.451454 0.289724
7 0.615219 -0.99309 -0.8107 2.33154 0.49143 -0.467307
8 2.24752 0 0 0.184051 -0.000815382 0.3514
9 1.11936 0 0 0.0719057 0.22699 0.00278408
10 3.71348 -0.10264 0.102191 1.55813 0.550067 0.0727846
11 1.72615 0 0 0.0130937 -0.0253461 -0.58864
12 1.21114 0 0 -0.00463514 0.0170164 -0.863412
13 3.59919 -1.06012 0.0708876 1.55942 0.195064 -0.0649502
14 1.66069 0 0 -0.00432459 0.0777453 -0.278549
15 1.16699 0 0 -0.0233511 0.024155 -0.401015
16 2.18852 0.50104 0.0576582 1.57004 0.0330458 0.225874
17 1.29609 0 0 0.0245655 -0.039878 -0.741083
18 1.62202 0.000711441 -0.000473022 0.00984863 -0.0234245 -0.831087
19 1.22241 0 0 0.00136067 0.00642053 -0.52186
20 1.76707 1.27612 0.0366411 1.57002 0.262026 0.261241
21 1.55588 0 0 -0.0308126 0.0106458 -0.943666
22 1.24274 0 0 -0.000583562 0.000138181 -0.446636
23 0.784523 0 0 0.0133279 0.00939362 -0.326309
24 -3.6471 7.74038 -3.8527 -0.000932693 0 -2.0944
25 6.02794 0 0 0.723235 0.939553 -0.00491778
26 11.7344 0 0 0.0014026 0 1.60947
27 8.81167 0 0 0.140418 0 0
28 5.77884 0 0 0.0940801 0 0
29 2.23249 0 0 0.0463379 0 0
30 11.4725 0 0 0.386515 -0.243279 -0.742056
31 0.615812 0.994372 -0.809165 -2.95367 0.480861 0.223812
32 2.24752 0 0 -0.0831661 0.257048 0.264172
33 1.11936 0 0 0.106547 0.169507 0.937361
34 3.71349 0.102639 0.102191 -1.53196 0.903048 -0.384383
35 1.72615 0 0 -0.0047961 -0.00187113 1.31044
36 1.21112 0 0 0.00977506 0.0146795 1.18496
37 3.5992 1.06012 0.0708885 -1.55949 0.156159 0.0645017
38 1.66069 0 0 0.0572382 0.0528182 1.04924
39 1.16699 0 0 0.0226732 0.00409383 1.01553
40 2.18853 -0.50104 0.0576591 -1.57003 0.119427 -0.225808
41 1.29609 0 0 0.271416 0.0698929 0.770014
42 1.62202 -0.000713348 -0.000470161 -0.0323153 -0.0109794 1.4179
43 1.22241 0 0 -0.0065852 0.00177684 1.04424
44 1.76707 -1.27612 0.0366411 -1.44072 0.1345 -0.261341
45 1.55588 0 0 0.182858 0.0427366 0.752105
46 1.24273 0 0 0.00059191 0 0.838876
47 0.784531 0 0 -0.00599221 0.000868484 1.11469
48 0 0 0 0 0 0
49 -4.82734 -16.6206 -7.47292 -0.00303296 -0.000268353 0
50 0 -1.56487 0.00508118 0.174533 0 0
51 -0.0019598 3.96104 2.21118 0 0 0
52 0.641597 -0.666147 0.751661 0 0 0
53 0.714397 -3.45621 1.13628 0 0 0
54 -0.706229 -4.69238 1.98618 -3.14159 -0.0872664 3.14159
55 0.01333 1.02904 3.61174 0 0 0
56 0.01333 -2.98984 2.23877 0 0 0
57 -4.83379 -21.8438 -12.5701 -0.00330002 0 0
58 0.0128808 0.110157 6.55102 0.0398745 0 0
time 2
0 1.29637 -0.499222 -12.0785 0.000934124 0 -0.959925
1 6.02794 0 0 -0.817445 0.0873048 -0.658479
2 11.7344 0 0 -0.0014028 0 -0.943753
3 8.81138 -0.000450134 -0.00011158 -2.33443 0 0.000158001
4 5.77839 0.000284195 0 -1.56407 0 0.00010014
5 2.23164 -0.000329971 -0.00036335 -0.770363 0 0
6 11.4725 0 0 -2.27186 0.43576 0.376243
7 0.615215 -0.99309 -0.8107 2.33154 0.49143 -0.467307
8 2.24752 0 0 0.184051 -0.000815362 0.3514
9 1.11936 0 0 0.0719058 0.22699 0.00278428
10 3.71348 -0.102638 0.102192 1.55813 0.550067 0.0727845
11 1.72615 0 0 0.0130936 -0.025346 -0.58864
12 1.21114 0 0 -0.00463517 0.0170165 -0.863412
13 3.59919 -1.06012 0.0708885 1.55942 0.195064 -0.0649501
14 1.66069 0 0 -0.00432484 0.077745 -0.278549
15 1.167 0 0 -0.0233511 0.0241548 -0.401015
16 2.18852 0.501042 0.0576591 1.57004 0.0330459 0.225874
17 1.29609 0 0 0.0245654 -0.0398781 -0.741083
18 1.62202 0.000713348 -0.000471115 0.00984866 -0.0234246 -0.831087
19 1.22241 0 0 0.00136063 0.00642046 -0.52186
20 1.76707 1.27612 0.0366411 1.57002 0.262026 0.261241
21 1.55588 0 0 -0.0308127 0.0106455 -0.943666
22 1.24274 0 0 -0.000583467 0.000138569 -0.446635
23 0.784523 0 0 0.0133279 0.00939332 -0.326309
24 -3.6471 7.74038 -3.8527 -0.000932693 0 -2.0944
25 6.02794 0 0 0.637425 0.984568 -0.0895373
26 11.7344 0 0 0.00140274 0 1.70179
27 8.81167 0 0 0.124204 0 0
28 5.77884 0 0 0.083217 0 0
29 2.23249 0 0 0.0409875 0 0
30 11.4725 0 0 0.388664 -0.277285 -0.735257
31 0.615813 0.994372 -0.809165 -2.95367 0.480861 0.223812
32 2.24752 0 0 -0.0831662 0.257048 0.264173
33 1.11936 0 0 0.106547 0.169507 0.937361
34 3.71349 0.10264 0.102191 -1.53196 0.903047 -0.384383
35 1.72615 0 0 -0.0047962 -0.00187111 1.31044
36 1.21112 0 0 0.00977503 0.0146796 1.18496
37 3.5992 1.06012 0.0708885 -1.55949 0.15616 0.0645017
38 1.66069 0 0 0.0572382 0.0528182 1.04923
39 1.16699 0 0 0.0226732 0.00409381 1.01553
40 2.18853 -0.50104 0.0576589 -1.57003 0.119427 -0.225808
41 1.29609 0 0 0.271417 0.0698929 0.770013
42 1.62202 -0.000713348 -0.000470161 -0.0323155 -0.0109794 1.4179
43 1.22241 0 0 -0.00658514 0.00177678 1.04424
44 1.76707 -1.27612 0.0366406 -1.44072 0.1345 -0.261341
45 1.55588 0 0 0.182858 0.0427366 0.752105
46 1.24273 0 0 0.000591854 0 0.838876
47 0.784532 0 0 -0.00599224 0.000868507 1.11469
48 0 0 0 0 0 0
49 -4.82809 -15.7061 -7.47292 -0.0416302 -0.000258472 0
50 0 -1.56487 0.00508118 0.174533 0 0
51 -0.00196028 3.96104 2.21118 0 0 0
52 0.641596 -0.666147 0.75166 0 0 0
53 0.714397 -3.45621 1.13628 0 0 0
54 -0.70623 -4.69238 1.98618 -3.14159 -0.0872663 3.14159
55 0.01333 1.02904 3.61174 0 0 0
56 0.01333 -1.24399 2.23877 0 0 0
57 -4.83468 -21.1221 -12.3648 -0.0418973 0 0
58 0.0129194 0.0367699 6.63003 0 0 0
time 3
0 1.29637 -0.499222 -12.0785 0.000934124 0 -0.959925
1 6.02794 0 0 -0.816219 0.100783 -0.649094
2 11.7344 0 0 -0.00140286 0 -0.986293
3 8.81138 -0.000448227 -0.000111103 -2.336 0 0.000157268
4 5.77839 0.00028801 0 -1.56512 0 0
5 2.23163 -0.000329971 -0.00036335 -0.77088 0 0
6 11.4725 0 0 -2.25894 0.445184 0.41476
7 0.615219 -0.993093 -0.8107 2.33154 0.49143 -0.467307
8 2.24752 0 0 0.184051 -0.000815377 0.3514
9 1.11936 0 0 0.0719059 0.22699 0.0027842
10 3.71348 -0.102643 0.102191 1.55813 0.550067 0.0727845
11 1.72615 0 0 0.0130936 -0.0253461 -0.58864
12 1.21114 0 0 -0.00463512 0.0170164 -0.863412
13 3.59919 -1.06012 0.0708876 1.55942 0.195064 -0.0649501
14 1.66069 0 0 -0.00432474 0.0777452 -0.278548
15 1.167 0 0 -0.023351 0.0241548 -0.401016
16 2.18852 0.501039 0.0576591 1.57004 0.0330459 0.225874
17 1.29609 0 0 0.0245654 -0.0398781 -0.741083
18 1.62202 0.000715256 -0.0004673 0.0098486 -0.0234246 -0.831087
19 1.22241 0 0 0.0013607 0.00642054 -0.52186
20 1.76707 1.27612 0.0366411 1.57002 0.262026 0.261241
21 1.55588 0 0 -0.0308127 0.0106455 -0.943666
22 1.24274 0 0 -0.000583485 0.000138382 -0.446635
23 0.784523 0 0 0.0133279 0.00939344 -0.326309
24 -3.6471 7.74038 -3.8527 -0.000932693 0 -2.0944
25 6.02794 0 0 0.612831 0.995392 -0.113659
26 11.7344 0 0 0.0014028 0 1.7304
27 8.81167 0 0 0.131645 0 0
28 5.77884 0 0 0.0882019 0 0
29 2.23249 0 0 0.0434427 0 0
30 11.4725 0 0 0.407103 -0.276127 -0.754583
31 0.615813 0.994372 -0.809165 -2.95367 0.480861 0.223812
32 2.24752 0 0 -0.0831661 0.257048 0.264172
33 1.11936 0 0 0.106547 0.169508 0.937361
34 3.71349 0.102639 0.102191 -1.53196 0.903048 -0.384383
35 1.72615 0 0 -0.0047962 -0.00187107 1.31044
36 1.21112 0 0 0.00977508 0.0146795 1.18496
37 3.5992 1.06012 0.0708888 -1.55949 0.15616 0.0645017
38 1.66069 0 0 0.0572382 0.0528182 1.04924
39 1.16699 0 0 0.0226732 0.00409381 1.01553
40 2.18853 -0.501041 0.0576591 -1.57003 0.119427 -0.225808
41 1.29609 0 0 0.271417 0.0698929 0.770014
42 1.62202 -0.000713348 -0.000469208 -0.0323155 -0.0109793 1.4179
43 1.22241 0 0 -0.00658511 0.00177662 1.04424
44 1.76707 -1.27612 0.0366414 -1.44072 0.1345 -0.261341
45 1.55588 0 0 0.182858 0.0427367 0.752105
46 1.24273 0 0 0.000591899 0 0.838876
47 0.784532 0 0 -0.00599213 0.000868461 1.11469
48 0 0 0 0 0 0
49 -4.83243 -15.4507 -7.47291 -0.0346422 -0.0159587 0
50 0 -1.56487 0.0050807 0.174533 0 0
51 -0.0019598 3.96104 2.21118 0 0 0
52 0.641596 -0.666148 0.75166 0 0 0
53 0.714397 -3.45621 1.13628 0 0 0
54 -0.70623 -4.69238 1.98618 -3.14159 -0.0872664 3.14159
55 0.01333 1.02904 3.61174 0 0 0
56 0.0133305 -2.55338 2.23877 0 0 0
57 -4.76112 -20.8324 -12.402 -0.0349098 -0.0156837 0
58 0.0131502 -0.403522 7.10409 -0.239247 0 0
time 4
0 1.29637 -0.499222 -12.0785 0.000934124 0 -0.959925
1 6.02794 0 0 -0.815741 0.105142 -0.653408
2 11.7344 0 0 -0.00140294 0 -0.968988
3 8.81138 -0.000452042 -0.000112057 -2.33581 0 0.000158218
4 5.77839 0.000284195 0 -1.56499 0 0.000100134
5 2.23163 -0.000331879 -0.000364304 -0.770816 0 0
6 11.4725 0 0 -2.25919 0.457201 0.414951
7 0.615221 -0.993092 -0.8107 2.33154 0.49143 -0.467307
8 2.24752 0 0 0.184051 -0.000815366 0.3514
9 1.11936 0 0 0.0719059 0.22699 0.00278419
10 3.71348 -0.102641 0.102191 1.55813 0.550067 0.0727845
11 1.72615 0 0 0.0130938 -0.0253461 -0.58864
12 1.21114 0 0 -0.00463515 0.0170161 -0.863412
13 3.59919 -1.06012 0.0708876 1.55942 0.195064 -0.0649503
14 1.66069 0 0 -0.00432462 0.0777452 -0.278549
15 1.167 0 0 -0.023351 0.0241548 -0.401015
16 2.18853 0.50104 0.0576582 1.57004 0.0330459 0.225874
17 1.29609 0 0 0.0245656 -0.0398779 -0.741083
18 1.62202 0.000715256 -0.000469208 0.00984865 -0.0234246 -0.831087
19 1.22241 0 0 0.00136061 0.00642027 -0.52186
20 1.76707 1.27612 0.0366402 1.57002 0.262026 0.261241
21 1.55588 0 0 -0.0308127 0.0106457 -0.943666
22 1.24273 0 0 -0.000583427 0.000138395 -0.446636
23 0.784523 0 0 0.013328 0.00939333 -0.326309
24 -3.6471 7.74038 -3.8527 -0.000932693 0 -2.0944
25 6.02794 0 0 0.629749 0.988249 -0.0984329
26 11.7344 0 0 0.00140283 0 1.72131
27 8.81167 0 0 0.138398 0 0
28 5.77884 0 0 0.0927267 0 0
29 2.23249 0 0 0.0456714 0 0
30 11.4725 0 0 0.416623 -0.260039 -0.778306
31 0.615812 0.994372 -0.809165 -2.95367 0.480861 0.223813
32 2.24752 0 0 -0.083166 0.257048 0.264173
33 1.11936 0 0 0.106547 0.169507 0.937361
34 3.71348 0.102639 0.10219 -1.53196 0.903047 -0.384383
35 1.72615 0 0 -0.00479616 -0.00187114 1.31044
36 1.21112 0 0 0.0097751 0.0146796 1.18496
37 3.5992 1.06012 0.0708878 -1.55949 0.15616 0.0645017
38 1.66069 0 0 0.0572382 0.0528182 1.04924
39 1.16699 0 0 0.0226733 0.0040938 1.01553
40 2.18853 -0.50104 0.0576589 -1.57003 0.119427 -0.225808
41 1.29609 0 0 0.271416 0.0698929 0.770014
42 1.62202 -0.000711441 -0.000471115 -0.0323154 -0.0109794 1.4179
43 1.22241 0 0 -0.0065851 0.00177678 1.04424
44 1.76707 -1.27612 0.0366406 -1.44072 0.1345 -0.261341
45 1.55588 0 0 0.182858 0.0427367 0.752105
46 1.24273 0 0 0.000591832 0 0.838875
47 0.784531 0 0 -0.00599215 0.000868371 1.11469
48 0 0 0 0 0 0
49 -4.83962 -15.5888 -7.4729 -0.0107235 -0.0240533 -0.000890879
50 0 -1.56487 0.0050807 0.174533 0 0
51 -0.00195932 3.96104 2.21118 0 0 0
52 0.641596 -0.666148 0.75166 0 0 0
53 0.714397 -3.4562 1.13628 0 0 0
54 -0.70623 -4.69238 1.98618 -3.14159 -0.0872664 3.14159
55 0.01333 1.02904 3.61174 0 0 0
56 0.01333 -4.73568 2.23877 0 0 0
57 -4.73026 -20.8511 -12.5285 -0.0109915 -0.0237792 -0.00085144
58 0.013329 -2.20708 7.34991 0 0 0
time 5
0 1.29637 -0.499222 -12.0785 0.000934124 0 -0.959925
1 6.02794 0 0 -0.816209 0.100121 -0.666515
2 11.7344 0 0 -0.00140281 0 -0.915054
3 8.81138 -0.000450134 -0.000112057 -2.33161 0 0.00015705
4 5.77839 0.000286102 0 -1.56218 0 0
5 2.23163 -0.000329971 -0.000364304 -0.769431 0 0
6 11.4725 0 0 -2.26624 0.467847 0.389396
7 0.615219 -0.993092 -0.8107 2.33154 0.49143 -0.467307
8 2.24752 0 0 0.184051 -0.000815369 0.3514
9 1.11936 0 0 0.0719056 0.22699 0.0027841
10 3.71348 -0.102641 0.102191 1.55813 0.550067 0.0727847
11 1.72615 0 0 0.0130938 -0.0253459 -0.58864
12 1.21114 0 0 -0.00463512 0.0170164 -0.863412
13 3.59919 -1.06012 0.0708876 1.55942 0.195064 -0.0649502
14 1.66069 0 0 -0.00432481 0.0777452 -0.278549
15 1.167 0 0 -0.0233512 0.0241548 -0.401015
16 2.18852 0.50104 0.0576591 1.57004 0.0330459 0.225874
17 1.29609 0 0 0.0245654 -0.0398781 -0.741084
18 1.62202 0.000711441 -0.000473022 0.00984866 -0.0234245 -0.831087
19 1.22241 0 0 0.00136063 0.00642058 -0.52186
20 1.76707 1.27612 0.0366411 1.57002 0.262026 0.261241
21 1.55588 0 0 -0.0308128 0.0106457 -0.943666
22 1.24273 0 0 -0.000583472 0.000138324 -0.446635
23 0.784523 0 0 0.0133279 0.00939344 -0.326309
24 -3.6471 7.74038 -3.8527 -0.000932693 0 -2.0944
25 6.02794 0 0 0.666911 0.97097 -0.0636241
26 11.7344 0 0 0.00140267 0 1.68926
27 8.81167 0 0 0.144675 0 0
28 5.77884 0 0 0.096932 0 0
29 2.23249 0 0 0.0477426 0 0
30 11.4725 0 0 0.418205 -0.239777 -0.79533
31 0.615814 0.994372 -0.809165 -2.95367 0.480861 0.223813
32 2.24752 0 0 -0.0831661 0.257048 0.264172
33 1.11936 0 0 0.106547 0.169507 0.93736
34 3.71349 0.102639 0.102191 -1.53196 0.903047 -0.384383
35 1.72615 0 0 -0.00479625 -0.00187111 1.31044
36 1.21112 0 0 0.00977515 0.0146796 1.18496
37 3.5992 1.06012 0.0708885 -1.55949 0.15616 0.0645018
38 1.66069 0 0 0.0572382 0.0528182 1.04924
39 1.16699 0 0 0.0226733 0.0040938 1.01553
40 2.18853 -0.501041 0.0576591 -1.57003 0.119427 -0.225808
41 1.29609 0 0 0.271417 0.069893 0.770014
42 1.62202 -0.000713348 -0.000470161 -0.0323156 -0.0109794 1.4179
43 1.22241 0 0 -0.00658517 0.00177673 1.04424
44 1.76707 -1.27612 0.0366402 -1.44072 0.1345 -0.261341
45 1.55587 0 0 0.182858 0.0427366 0.752105
46 1.24273 0 0 0.000591948 0 0.838876
47 0.784531 0 0 -0.00599206 0.000868361 1.11469
48 0 0 0 0 0 0
49 -4.84984 -15.9446 -7.47288 0.0156146 -0.0261681 -0.00206995
50 0 -1.56487 0.0050807 0.174533 0 0
51 -0.0019598 3.96104 2.21118 0 0 0
52 0.641596 -0.666147 0.75166 0 0 0
53 0.714397 -3.45621 1.13628 0 0 0
54 -0.706229 -4.69238 1.98618 3.14159 -0.0872664 -3.14159
55 0.01333 1.02904 3.61174 0 0 0
56 0.01333 -4.73569 2.23877 0 0 0
57 -4.73214 -21.0721 -12.665 0.0153463 -0.0258951 -0.0020233
58 0.0133295 -2.20708 7.34991 0 0 0
time 6
0 1.29637 -0.499222 -12.0785 0.000934124 0 -0.959925
1 6.02794 0 0 -0.81758 0.0843492 -0.684312
2 11.7344 0 0 -0.00140297 0 -0.845298
3 8.81139 -0.000448227 -0.000112057 -2.32381 0 0.000157654
4 5.77839 0.000286102 0 -1.55695 0 0
5 2.23164 -0.000328064 -0.000363827 -0.766858 0 0
6 11.4725 0 0 -2.27609 0.470057 0.346325
7 0.615219 -0.993089 -0.8107 2.33154 0.49143 -0.467307
8 2.24752 0 0 0.184051 -0.000815442 0.3514
9 1.11936 0 0 0.0719058 0.22699 0.00278408
10 3.71348 -0.102639 0.102191 1.55813 0.550067 0.0727845
11 1.72615 0 0 0.0130936 -0.0253459 -0.58864
12 1.21114 0 0 -0.00463517 0.0170165 -0.863412
13 3.59919 -1.06012 0.0708885 1.55942 0.195064 -0.0649502
14 1.66069 0 0 -0.0043248 0.0777451 -0.278549
15 1.167 0 0 -0.023351 0.0241547 -0.401015
16 2.18852 0.50104 0.0576591 1.57004 0.0330459 0.225874
17 1.29609 0 0 0.0245656 -0.039878 -0.741083
18 1.62202 0.000713348 -0.000471115 0.00984861 -0.0234245 -0.831087
19 1.22241 0 0 0.00136089 0.00642028 -0.52186
20 1.76707 1.27612 0.0366411 1.57002 0.262026 0.261241
21 1.55587 0 0 -0.0308127 0.0106458 -0.943666
22 1.24273 0 0 -0.000583477 0.000138078 -0.446635
23 0.784523 0 0 0.0133279 0.00939361 -0.326309
24 -3.6471 7.74038 -3.8527 -0.000932693 0 -2.0944
25 6.02794 0 0 0.703638 0.951658 -0.0283282
26 11.7344 0 0 0.00140266 0 1.64806
27 8.81167 0 0 0.147496 0 0
28 5.77884 0 0 0.0988222 0 0
29 2.23249 0 0 0.0486736 0 0
30 11.4725 0 0 0.41028 -0.2282 -0.79154
31 0.615812 0.994372 -0.809165 -2.95367 0.480861 0.223813
32 2.24752 0 0 -0.0831661 0.257048 0.264173
33 1.11936 0 0 0.106547 0.169507 0.937361
34 3.71349 0.102639 0.102191 -1.53196 0.903048 -0.384383
35 1.72615 0 0 -0.00479617 -0.00187112 1.31044
36 1.21112 0 0 0.00977513 0.0146796 1.18496
37 3.5992 1.06012 0.070888 -1.55949 0.15616 0.0645018
38 1.66069 0 0 0.055412 0.0547312 1.01526
39 1.16699 0 0 0.0227595 0.00495236 0.98156
40 2.18853 -0.50104 0.0576587 -1.57003 0.119427 -0.225808
41 1.29609 0 0 0.271417 0.069893 0.770013
42 1.62202 -0.000713348 -0.000470161 -0.0323155 -0.0109794 1.4179
43 1.22241 0 0 -0.00658508 0.00177672 1.04424
44 1.76707 -1.27612 0.0366402 -1.44072 0.1345 -0.261341
45 1.55587 0 0 0.182858 0.0427367 0.752105
46 1.24273 0 0 0.000591831 0 0.838876
47 0.784531 0 0 -0.00599217 0.000868465 1.11469
48 0 0 0 0 0 0
49 -4.8633 -16.3425 -7.47286 0.0271661 -0.0204667 -0.00266528
50 0 -1.58654 0.0050807 0.147262 0 0
51 -0.00195885 3.96104 2.21118 0 0 0
52 0.641596 -0.666145 0.75166 0 0 0
53 0.714397 -3.4562 1.13628 0 0 0
54 -0.70623 -4.69238 1.98618 -3.14159 -0.0872663 3.14159
55 0.0133305 1.02904 3.61174 0 0 0
56 0.01333 -4.73568 2.23877 0 0 0
57 -4.77688 -21.4097 -12.7245 0.0268981 -0.0201943 -0.00261548
58 0.013329 -2.20708 7.34991 0 0 0
time 7
0 1.29637 -0.499222 -12.0785 0.000934124 0 -0.959925
1 6.02794 0 0 -0.818584 0.0705708 -0.698329
2 11.7344 0 0 -0.00140289 0 -0.793746
3 8.81139 -0.000450134 -0.000112534 -2.32471 0 0.000157164
4 5.77839 0.000286102 0 -1.55756 0 0
5 2.23164 -0.000329971 -0.00036335 -0.767154 0 0
6 11.4725 0 0 -2.29034 0.463888 0.307401
7 0.615219 -0.993092 -0.8107 2.33154 0.49143 -0.467307
8 2.24752 0 0 0.184051 -0.000815354 0.3514
9 1.11936 0 0 0.0719057 0.22699 0.00278406
10 3.71348 -0.102643 0.102191 1.55813 0.550067 0.0727844
11 1.72615 0 0 0.0130938 -0.0253458 -0.58864
12 1.21114 0 0 -0.0046352 0.0170163 -0.863412
13 3.5992 -1.06012 0.070888 1.55942 0.195064 -0.0649502
14 1.66069 0 0 -0.00432464 0.0777452 -0.278549
15 1.167 0 0 -0.0233511 0.0241547 -0.401015
16 2.18853 0.501038 0.0576587 1.57004 0.0330458 0.225874
17 1.29609 0 0 0.0245655 -0.0398779 -0.741083
18 1.62202 0.000713348 -0.000469208 0.00984866 -0.0234246 -0.831087
19 1.22241 0 0 0.00136063 0.00642033 -0.52186
20 1.76707 1.27612 0.0366406 1.57002 0.262026 0.261241
21 1.55588 0 0 -0.0308128 0.0106456 -0.943666
22 1.24274 0 0 -0.00058344 0.000138453 -0.446635
23 0.784523 0 0 0.0133279 0.00939338 -0.326309
24 -3.6471 7.74038 -3.8527 -0.000932693 0 -2.0944
25 6.02794 0 0 0.726463 0.938601 -0.00704766
26 11.7344 0 0 0.00140258 0 1.61904
27 8.81167 0 0 0.14092 0 0
28 5.77884 0 0 0.0944162 0 0
29 2.23249 0 0 0.0465035 0 0
30 11.4725 0 0 0.394061 -0.22491 -0.781041
31 0.615814 0.994373 -0.809165 -2.95367 0.480861 0.223812
32 2.24752 0 0 -0.083166 0.257048 0.264172
33 1.11935 0 0 0.106547 0.169507 0.937361
34 3.71349 0.10264 0.102191 -1.53196 0.903048 -0.384383
35 1.72615 0 0 -0.00479623 -0.00187111 1.31044
36 1.21112 0 0 0.0097751 0.0146795 1.18496
37 3.5992 1.06012 0.0708885 -1.55949 0.15616 0.0645015
38 1.66069 0 0 0.0511715 0.0587147 0.940499
39 1.16699 0 0 0.0227603 0.00679483 0.906833
40 2.18853 -0.50104 0.0576589 -1.57003 0.119427 -0.225808
41 1.29609 0 0 0.271417 0.0698929 0.770014
42 1.62202 -0.000713348 -0.000470638 -0.0323154 -0.0109794 1.4179
43 1.22241 0 0 -0.00658512 0.00177681 1.04424
44 1.76707 -1.27612 0.0366409 -1.44072 0.1345 -0.261341
45 1.55588 0 0 0.182858 0.0427366 0.752105
46 1.24273 0 0 0.000591829 0 0.838876
47 0.784532 0 0 -0.00599213 0.00086837 1.11469
48 0 0 0 0 0 0
49 -4.88016 -16.6069 -7.47285 0.0287682 -0.00640716 -0.00293463
50 0 -1.63422 0.0050807 0.0872665 0 0
51 -0.00196028 3.96104 2.21118 0 0 0
52 0.641596 -0.666147 0.75166 0 0 0
53 0.714397 -3.45621 1.13628 0 0 0
54 -0.70623 -4.69238 1.98618 -3.14159 -0.0872664 3.14159
55 0.0133295 1.02904 3.61174 0 0 0
56 0.0133295 -4.73568 2.23877 0 0 0
57 -4.86888 -21.6655 -12.7335 0.0285008 -0.00613478 -0.00288441
58 0.0133295 -2.20708 7.34991 0 0 0
time 8
0 1.29637 -0.499222 -12.0785 0.000934124 0 -0.959925
1 6.02794 0 0 -0.81914 0.0616066 -0.707319
2 11.7344 0 0 -0.00140282 0 -0.764718
3 8.81138 -0.000452042 -0.000112534 -2.33166 0 0.000157074
4 5.77839 0.00028801 0 -1.56221 0 0
5 2.23164 -0.000329971 -0.000363827 -0.769448 0 0
6 11.4725 0 0 -2.30501 0.452925 0.27951
7 0.615219 -0.993093 -0.8107 2.33154 0.49143 -0.467307
8 2.24752 0 0 0.184051 -0.000815325 0.3514
9 1.11936 0 0 0.0719057 0.22699 0.00278392
10 3.71348 -0.10264 0.10219 1.55813 0.550067 0.0727844
11 1.72615 0 0 0.013094 -0.0253456 -0.58864
12 1.21114 0 0 -0.00463515 0.0170162 -0.863412
13 3.59919 -1.06012 0.0708876 1.55942 0.195064 -0.0649501
14 1.66069 0 0 -0.00432468 0.0777451 -0.278549
15 1.16699 0 0 -0.023351 0.0241548 -0.401015
16 2.18853 0.501038 0.0576591 1.57004 0.0330459 0.225874
17 1.29609 0 0 0.0245657 -0.0398781 -0.741083
18 1.62202 0.000713348 -0.000471115 0.0098487 -0.0234247 -0.831087
19 1.22241 0 0 0.00136061 0.00642039 -0.52186
20 1.76707 1.27612 0.0366402 1.57002 0.262026 0.261241
21 1.55588 0 0 -0.0308127 0.0106457 -0.943666
22 1.24274 0 0 -0.000583562 0.000138181 -0.446635
23 0.784523 0 0 0.0133279 0.00939357 -0.326309
24 -3.6471 7.74038 -3.8527 -0.000932693 0 -2.0944
25 6.02794 0 0 0.737273 0.932407 0.00130942
26 11.7344 0 0 0.00140263 0 1.60402
27 8.81167 0 0 0.129363 0 0
28 5.77884 0 0 0.0866734 0 0
29 2.23249 0 0 0.0426899 0 0
30 11.4725 0 0 0.374812 -0.226162 -0.768968
31 0.615814 0.994372 -0.809165 -2.95367 0.480861 0.223812
32 2.24752 0 0 -0.083166 0.257048 0.264173
33 1.11936 0 0 0.106547 0.169507 0.937361
34 3.71349 0.102639 0.102191 -1.53196 0.903047 -0.384383
35 1.72615 0 0 -0.00479622 -0.00187117 1.31044
36 1.21112 0 0 0.00977503 0.0146796 1.18496
37 3.5992 1.06012 0.0708883 -1.55949 0.15616 0.0645017
38 1.66069 0 0 0.0466437 0.0623708 0.865702
39 1.16699 0 0 0.0225056 0.00855781 0.832103
40 2.18853 -0.50104 0.0576591 -1.57003 0.119427 -0.225808
41 1.29609 0 0 0.271417 0.069893 0.770014
42 1.62202 -0.000715256 -0.000468254 -0.0323155 -0.0109794 1.4179
43 1.22241 0 0 -0.00658512 0.00177669 1.04424
44 1.76707 -1.27612 0.0366409 -1.44072 0.1345 -0.261341
45 1.55588 0 0 0.182858 0.0427366 0.752105
46 1.24273 0 0 0.000591921 0 0.838876
47 0.784531 0 0 -0.00599218 0.000868397 1.11469
48 0 0 0 0 0 0
49 -4.90762 -16.7358 -7.47282 0.0244627 0.0108171 -0.00296675
50 0 -1.6819 0.00508022 0.0272709 0 0
51 -0.0019598 3.96104 2.21118 0 0 0
52 0.641596 -0.666149 0.751659 0 0 0
53 0.714397 -3.45621 1.13628 0 0 0
54 -0.706229 -4.69238 1.98618 3.14159 -0.0872664 3.14159
55 0.01333 1.02904 3.61174 0 0 0
56 0.01333 -4.73569 2.23877 0 0 0
57 -4.98694 -21.8167 -12.7113 0.0241961 0.0110897 -0.0029177
58 0.0133295 -2.20708 7.34991 0 0 0
time 9
0 1.29637 -0.499222 -12.0785 0.000934124 0 -0.959925
1 6.02794 0 0 -0.819646 0.0520969 -0.716289
2 11.7344 0 0 -0.00140279 0 -0.737267
3 8.81138 -0.000450134 -0.000112057 -2.33659 0 0.000157664
4 5.77839 0.000286102 0 -1.56552 0 0
5 2.23163 -0.000329971 -0.00036335 -0.771076 0 0
6 11.4725 0 0 -2.31676 0.441929 0.254036
7 0.615221 -0.993089 -0.8107 2.33154 0.49143 -0.467307
8 2.24752 0 0 0.184051 -0.000815384 0.3514
9 1.11936 0 0 0.0719057 0.22699 0.00278375
10 3.71348 -0.10264 0.102191 1.55813 0.550067 0.0727844
11 1.72615 0 0 0.0130939 -0.0253458 -0.58864
12 1.21114 0 0 -0.00463507 0.0170163 -0.863412
13 3.59919 -1.06011 0.0708876 1.55942 0.195064 -0.0649502
14 1.66069 0 0 -0.00432481 0.0777452 -0.278549
15 1.167 0 0 -0.0233509 0.0241549 -0.401015
16 2.18853 0.50104 0.0576591 1.57004 0.0330459 0.225874
17 1.29609 0 0 0.0245655 -0.0398779 -0.741083
18 1.62202 0.000713348 -0.000469208 0.00984869 -0.0234245 -0.831087
19 1.22241 0 0 0.00136066 0.00642034 -0.52186
20 1.76707 1.27612 0.0366411 1.57002 0.262026 0.261241
21 1.55588 0 0 -0.0308127 0.0106456 -0.943666
22 1.24274 0 0 -0.000583575 0.000138239 -0.446636
23 0.784524 0 0 0.0133278 0.00939349 -0.326309
24 -3.6471 7.74038 -3.8527 -0.000932693 0 -2.0944
25 6.02794 0 0 0.746096 0.927351 0.00732687
26 11.7344 0 0 0.0014028 0 1.5908
27 8.81167 0 0 0.11974 0 0
28 5.77884 0 0 0.0802255 0 0
29 2.23249 0 0 0.0395142 0 0
30 11.4725 0 0 0.357385 -0.227679 -0.755133
31 0.615811 0.994373 -0.809165 -2.95367 0.480861 0.223812
32 2.24752 0 0 -0.0831661 0.257048 0.264172
33 1.11936 0 0 0.106547 0.169507 0.937361
34 3.71348 0.10264 0.102191 -1.53196 0.903048 -0.384383
35 1.72615 0 0 -0.00479613 -0.00187103 1.31044
36 1.21112 0 0 0.00977507 0.0146796 1.18496
37 3.5992 1.06012 0.070888 -1.55949 0.15616 0.0645018
38 1.66069 0 0 0.0444974 0.0639188 0.831692
39 1.16699 0 0 0.0223071 0.00932779 0.798134
40 2.18853 -0.50104 0.0576589 -1.57003 0.119427 -0.225808
41 1.29609 0 0 0.271417 0.0698929 0.770013
42 1.62202 -0.000713348 -0.000470161 -0.0323153 -0.0109794 1.4179
43 1.22241 0 0 -0.0065851 0.00177673 1.04424
44 1.76707 -1.27612 0.0366402 -1.44072 0.1345 -0.261341
45 1.55588 0 0 0.182858 0.0427366 0.752106
46 1.24273 0 0 0.000591956 0 0.838876
47 0.784532 0 0 -0.00599213 0.000868481 1.11469
48 0 0 0 0 0 0
49 -4.94315 -16.8469 -7.4728 0.0182913 0.0260124 -0.00285041
50 0 -1.70357 0.0050807 0 0 0
51 -0.0019598 3.96104 2.21118 0 0 0
52 0.641596 -0.666147 0.75166 0 0 0
53 0.714397 -3.45621 1.13628 0 0 0
54 -0.70623 -4.69238 1.98618 3.14159 -0.0872664 -3.14159
55 0.01333 1.02904 3.61174 0 0 0
56 0.0133295 -4.73568 2.23877 0 0 0
57 -5.10074 -21.9598 -12.6782 0.0180255 0.0262853 -0.00280303
58 0.01333 -2.20708 7.34991 0 0 0
time 10
0 1.29637 -0.499222 -12.0785 0.000934124 0 -0.959925
1 6.02794 0 0 -0.820027 0.0435542 -0.724164
2 11.7344 0 0 -0.00140283 0 -0.712761
3 8.81138 -0.000450134 -0.000112057 -2.33695 0 0.000157726
4 5.77839 0.000286102 0 -1.56576 0 0
5 2.23164 -0.000329971 -0.00036335 -0.771193 0 0
6 11.4725 0 0 -2.32249 0.435679 0.235132
7 0.615217 -0.993091 -0.810701 2.33154 0.49143 -0.467307
8 2.24752 0 0 0.184051 -0.000815196 0.3514
9 1.11936 0 0 0.0719057 0.22699 0.00278414
10 3.71348 -0.10264 0.102191 1.55813 0.550067 0.0727845
11 1.72615 0 0 0.0130937 -0.0253459 -0.58864
12 1.21114 0 0 -0.0046352 0.0170164 -0.863412
13 3.59919 -1.06012 0.0708876 1.55942 0.195064 -0.0649503
14 1.66069 0 0 -0.00432468 0.0777452 -0.278548
15 1.167 0 0 -0.0233511 0.0241547 -0.401015
16 2.18852 0.501039 0.0576591 1.57004 0.0330458 0.225874
17 1.29609 0 0 0.0245654 -0.039878 -0.741083
18 1.62202 0.000713348 -0.000473022 0.00984874 -0.0234245 -0.831087
19 1.22241 0 0 0.00136047 0.00642035 -0.52186
20 1.76707 1.27612 0.0366411 1.57002 0.262026 0.261241
21 1.55588 0 0 -0.0308126 0.0106457 -0.943666
22 1.24274 0 0 -0.000583607 0.00013811 -0.446636
23 0.784523 0 0 0.0133279 0.00939356 -0.326309
24 -3.6471 7.74038 -3.8527 -0.000932693 0 -2.0944
25 6.02794 0 0 0.753746 0.922755 0.0130274
26 11.7344 0 0 0.00140284 0 1.579
27 8.81167 0 0 0.116055 0 0
28 5.77884 0 0 0.0777571 0 0
29 2.23249 0 0 0.0382983 0 0
30 11.4725 0 0 0.347697 -0.227656 -0.744565
31 0.615814 0.994372 -0.809165 -2.95367 0.480861 0.223812
32 2.24752 0 0 -0.0831661 0.257048 0.264172
33 1.11936 0 0 0.106547 0.169507 0.937361
34 3.71349 0.10264 0.102191 -1.53196 0.903048 -0.384383
35 1.72615 0 0 -0.00479609 -0.00187108 1.31044
36 1.21112 0 0 0.00977508 0.0146796 1.18496
37 3.5992 1.06012 0.0708885 -1.55949 0.156159 0.0645017
38 1.66069 0 0 0.0444974 0.0639187 0.831692
39 1.16699 0 0 0.0223072 0.00932779 0.798134
40 2.18853 -0.50104 0.0576596 -1.57003 0.119427 -0.225808
41 1.29609 0 0 0.271417 0.0698931 0.770014
42 1.62202 -0.000711441 -0.000470161 -0.0323156 -0.0109792 1.4179
43 1.22241 0 0 -0.00658514 0.00177683 1.04424
44 1.76707 -1.27612 0.0366411 -1.44072 0.1345 -0.261341
45 1.55587 0 0 0.182858 0.0427367 0.752105
46 1.24273 0 0 0.000591876 0 0.838876
47 0.784532 0 0 -0.00599207 0.000868367 1.11469
48 0 0 0 0 0 0
49 -4.9724 -16.9442 -7.47278 0.014296 0.0339854 -0.00267435
50 0 -1.70356 0.0050807 0 0 0
51 -0.0019598 3.96104 2.21118 0 0 0
52 0.641596 -0.666143 0.75166 0 0 0
53 0.714397 -3.45621 1.13628 0 0 0
54 -0.70623 -4.69238 1.98618 -3.14159 -0.0872663 -3.14159
55 0.0133295 1.02904 3.61174 0 0 0
56 0.0133295 -4.73568 2.23877 0 0 0
57 -5.16995 -22.0778 -12.6565 0.0140305 0.0342585 -0.00262805
58 0.0133295 -2.20708 7.34991 0 0 0
time 11
0 1.29637 -0.499222 -12.0785 0.000934124 0 -0.959925
1 6.02794 0 0 -0.820319 0.0355882 -0.730252
2 11.7344 0 0 -0.00140284 0 -0.691154
3 8.81139 -0.000450134 -0.00011158 -2.33077 0 0.000157157
4 5.77839 0.000286102 0 -1.56161 0 0
5 2.23163 -0.000328064 -0.000363827 -0.769153 0 0
6 11.4725 0 0 -2.32066 0.435689 0.223053
7 0.615219 -0.993093 -0.810701 2.33154 0.49143 -0.467307
8 2.24752 0 0 0.184051 -0.000815328 0.3514
9 1.11936 0 0 0.0719057 0.22699 0.00278386
10 3.71348 -0.102642 0.102191 1.55813 0.550067 0.0727844
11 1.72615 0 0 0.0130937 -0.025346 -0.58864
12 1.21114 0 0 -0.00463504 0.0170163 -0.863412
13 3.59919 -1.06012 0.0708876 1.55942 0.195064 -0.0649503
14 1.66068 0 0 -0.00432474 0.0777452 -0.278549
15 1.167 0 0 -0.023351 0.0241549 -0.401015
16 2.18853 0.501039 0.0576582 1.57004 0.0330459 0.225874
17 1.29609 0 0 0.0245655 -0.039878 -0.741083
18 1.62202 0.000715256 -0.000471115 0.00984864 -0.0234244 -0.831087
19 1.22241 0 0 0.0013607 0.00642041 -0.52186
20 1.76707 1.27612 0.0366402 1.57002 0.262026 0.261241
21 1.55588 0 0 -0.0308128 0.0106456 -0.943666
22 1.24274 0 0 -0.000583472 0.000138324 -0.446635
23 0.784523 0 0 0.0133279 0.00939345 -0.326309
24 -3.6471 7.74038 -3.8527 -0.000932693 0 -2.0944
25 6.02794 0 0 0.760109 0.918501 0.0194552
26 11.7344 0 0 0.00140281 0 1.56821
27 8.81167 0 0 0.119852 0 0
28 5.77884 0 0 0.080301 0 0
29 2.23249 0 0 0.0395513 0 0
30 11.4725 0 0 0.348064 -0.226953 -0.737264
31 0.615812 0.994373 -0.809165 -2.95367 0.480861 0.223812
32 2.24752 0 0 -0.083166 0.257048 0.264172
33 1.11936 0 0 0.106547 0.169507 0.937361
34 3.71349 0.10264 0.102191 -1.53196 0.903047 -0.384383
35 1.72615 0 0 -0.00479621 -0.00187108 1.31044
36 1.21112 0 0 0.00977502 0.0146796 1.18496
37 3.5992 1.06012 0.0708885 -1.55949 0.15616 0.0645017
38 1.66069 0 0 0.0444973 0.0639187 0.831692
39 1.16699 0 0 0.0223071 0.00932779 0.798134
40 2.18853 -0.50104 0.0576591 -1.57003 0.119427 -0.225808
41 1.29609 0 0 0.271417 0.069893 0.770014
42 1.62201 -0.000711441 -0.000469208 -0.0323156 -0.0109793 1.4179
43 1.22241 0 0 -0.00658511 0.00177692 1.04424
44 1.76707 -1.27612 0.0366406 -1.44072 0.1345 -0.261341
45 1.55588 0 0 0.182858 0.0427366 0.752105
46 1.24273 0 0 0.000591826 0 0.838876
47 0.784531 0 0 -0.00599213 0.000868379 1.11469
48 0 0 0 0 0 0
49 -4.981 -17.0319 -7.47275 0.0120629 0.0327961 -0.00236326
50 0 -1.70357 0.0050807 0 0 0
51 -0.0019598 3.96104 2.21118 0 0 0
52 0.641596 -0.666149 0.75166 0 0 0
53 0.714397 -3.45621 1.13628 0 0 0
54 -0.70623 -4.69238 1.98618 -3.14159 -0.0872664 3.14159
55 0.01333 1.02904 3.61174 0 0 0
56 0.0133305 -4.73569 2.23877 0 0 0
57 -5.17044 -22.1771 -12.6452 0.0117973 0.0330693 -0.00231758
58 0.0133286 -2.20708 7.34991 0 0 0
time 12
0 1.29637 -0.499222 -12.0785 0.000934124 0 -0.959925
1 6.02794 0 0 -0.820552 0.0276044 -0.733895
2 11.7344 0 0 -0.00140283 0 -0.672682
3 8.81139 -0.000450134 -0.00011158 -2.31986 0 0.000157181
4 5.77839 0.000286102 0 -1.55431 0 0
5 2.23164 -0.000329971 -0.00036335 -0.765554 0 0
6 11.4725 0 0 -2.31372 0.439497 0.214718
7 0.615219 -0.993091 -0.8107 2.33154 0.49143 -0.467307
8 2.24752 0 0 0.184051 -0.000815354 0.3514
9 1.11936 0 0 0.0719057 0.22699 0.00278401
10 3.71348 -0.102641 0.102191 1.55813 0.550067 0.0727846
11 1.72615 0 0 0.0130938 -0.0253459 -0.58864
12 1.21114 0 0 -0.0046351 0.0170162 -0.863412
13 3.59919 -1.06012 0.0708885 1.55942 0.195064 -0.0649501
14 1.66069 0 0 -0.00432481 0.0777452 -0.278548
15 1.167 0 0 -0.023351 0.0241548 -0.401015
16 2.18853 0.50104 0.0576591 1.57004 0.0330459 0.225874
17 1.29609 0 0 0.0245655 -0.0398779 -0.741083
18 1.62202 0.000713348 -0.000469208 0.00984863 -0.0234245 -0.831087
19 1.22241 0 0 0.00136067 0.00642041 -0.52186
20 1.76707 1.27612 0.0366411 1.57002 0.262026 0.261241
21 1.55588 0 0 -0.0308127 0.0106457 -0.943666
22 1.24273 0 0 -0.000583588 0.000138297 -0.446636
23 0.784524 0 0 0.0133279 0.00939332 -0.326309
24 -3.6471 7.74038 -3.8527 -0.000932693 0 -2.0944
25 6.02794 0 0 0.765136 0.914521 0.0272397
26 11.7344 0 0 0.00140265 0 1.55759
27 8.81167 0 0 0.128171 0 0
28 5.77884 0 0 0.0858748 0 0
29 2.23249 0 0 0.0422966 0 0
30 11.4725 0 0 0.355024 -0.227883 -0.73013
31 0.615812 0.994372 -0.809165 -2.95367 0.480861 0.223812
32 2.24752 0 0 -0.0831661 0.257048 0.264172
33 1.11936 0 0 0.106547 0.169507 0.937361
34 3.71349 0.102639 0.102191 -1.53196 0.903047 -0.384383
35 1.72615 0 0 -0.00479601 -0.00187114 1.31044
36 1.21112 0 0 0.00977512 0.0146796 1.18496
37 3.5992 1.06012 0.070888 -1.55949 0.156159 0.0645016
38 1.66069 0 0 0.0444974 0.0639188 0.831692
39 1.16699 0 0 0.0223072 0.0093278 0.798134
40 2.18853 -0.50104 0.0576591 -1.57003 0.119427 -0.225808
41 1.29609 0 0 0.271416 0.0698928 0.770014
42 1.62202 -0.000713348 -0.000469208 -0.0323155 -0.0109795 1.4179
43 1.22241 0 0 -0.00658507 0.0017767 1.04424
44 1.76707 -1.27612 0.0366411 -1.44072 0.1345 -0.261341
45 1.55588 0 0 0.182858 0.0427367 0.752105
46 1.24273 0 0 0.000591974 0 0.838875
47 0.784532 0 0 -0.00599212 0.000868236 1.11469
48 0 0 0 0 0 0
49 -4.95765 -17.1121 -7.47273 0.00889759 0.0259069 -0.00185798
50 0 -1.70357 0.00508022 0 0 0
51 -0.0019598 3.96104 2.21118 0 0 0
52 0.641596 -0.666149 0.75166 0 0 0
53 0.714397 -3.45621 1.13628 0 0 0
54 -0.70623 -4.69238 1.98618 3.14159 -0.0872663 -3.14159
55 0.01333 1.02904 3.61174 0 0 0
56 0.0133295 -4.73569 2.23877 0 0 0
57 -5.10845 -22.2739 -12.6299 0.0086317 0.0261802 -0.00181316
58 0.0133295 -2.20708 7.34991 0 0 0
time 13
0 1.29637 -0.499222 -12.0785 0.000934124 0 -0.959925
1 6.02794 0 0 -0.820724 0.0202815 -0.735585
2 11.7344 0 0 -0.00140298 0 -0.657629
3 8.81138 -0.000450134 -0.000112534 -2.307 0 0.000156936
4 5.77839 0.000286102 0 -1.54569 0 0
5 2.23164 -0.000329971 -0.00036335 -0.761312 0 0
6 11.4725 0 0 -2.30438 0.445341 0.209144
7 0.615219 -0.993092 -0.810701 2.33154 0.49143 -0.467307
8 2.24752 0 0 0.184051 -0.000815451 0.3514
9 1.11936 0 0 0.0719057 0.22699 0.00278394
10 3.71348 -0.102642 0.10219 1.55813 0.550067 0.0727845
11 1.72615 0 0 0.0130937 -0.0253461 -0.58864
12 1.21114 0 0 -0.00463517 0.0170165 -0.863412
13 3.5992 -1.06012 0.0708876 1.55942 0.195064 -0.0649503
14 1.66069 0 0 -0.00432462 0.0777451 -0.278549
15 1.16699 0 0 -0.0233511 0.0241547 -0.401015
16 2.18853 0.501038 0.0576582 1.57004 0.0330458 0.225873
17 1.29609 0 0 0.0245655 -0.0398777 -0.741083
18 1.62202 0.000713348 -0.000469208 0.00984877 -0.0234245 -0.831087
19 1.22241 0 0 0.00136069 0.00642035 -0.52186
20 1.76707 1.27612 0.0366402 1.57002 0.262026 0.261241
21 1.55588 0 0 -0.0308126 0.0106456 -0.943666
22 1.24274 0 0 -0.000583601 0.000138355 -0.446635
23 0.784523 0 0 0.0133279 0.0093935 -0.326309
24 -3.6471 7.74038 -3.8527 -0.000932693 0 -2.0944
25 6.02794 0 0 0.769017 0.91093 0.0355701
26 11.7344 0 0 0.00140259 0 1.54776
27 8.81167 0 0 0.138484 0 0
28 5.77884 0 0 0.092784 0 0
29 2.23249 0 0 0.0456996 0 0
30 11.4725 0 0 0.365394 -0.229992 -0.723755
31 0.615813 0.994372 -0.809165 -2.95367 0.480861 0.223812
32 2.24752 0 0 -0.083166 0.257048 0.264172
33 1.11936 0 0 0.106547 0.169508 0.937361
34 3.71349 0.102639 0.102191 -1.53196 0.903048 -0.384383
35 1.72615 0 0 -0.00479615 -0.00187103 1.31044
36 1.21112 0 0 0.00977506 0.0146796 1.18496
37 3.5992 1.06012 0.0708883 -1.55949 0.15616 0.0645018
38 1.66069 0 0 0.0444974 0.0639188 0.831692
39 1.16699 0 0 0.0223071 0.00932774 0.798134
40 2.18853 -0.50104 0.0576591 -1.57003 0.119427 -0.225808
41 1.29609 0 0 0.271416 0.0698929 0.770014
42 1.62202 -0.000713348 -0.000469208 -0.0323154 -0.0109794 1.4179
43 1.22241 0 0 -0.00658514 0.00177672 1.04424
44 1.76707 -1.27612 0.0366402 -1.44072 0.1345 -0.261341
45 1.55588 0 0 0.182858 0.0427366 0.752105
46 1.24273 0 0 0.000591927 0 0.838876
47 0.784532 0 0 -0.00599213 0.000868357 1.11469
48 0 0 0 0 0 0
49 -4.91249 -17.1824 -7.47271 0.0054206 0.0162275 -0.00127146
50 0 -1.70357 0.00508022 0 0 0
51 -0.00195932 3.96104 2.21118 0 0 0
52 0.641596 -0.666149 0.75166 0 0 0
53 0.714397 -3.45621 1.13628 0 0 0
54 -0.70623 -4.69238 1.98618 -3.14159 -0.0872663 3.14159
55 0.0133305 1.02904 3.61174 0 0 0
56 0.01333 -4.73569 2.23877 0 0 0
57 -5.01008 -22.3622 -12.6131 0.00515426 0.016501 -0.00122761
58 0.013329 -2.20708 7.34991 0 0 0
time 14
0 1.29637 -0.499222 -12.0785 0.000934124 0 -0.959925
1 6.02794 0 0 -0.820844 0.0141626 -0.736256
2 11.7344 0 0 -0.00140282 0 -0.645883
3 8.81139 -0.000450134 -0.000112534 -2.29497 0 0.000156829
4 5.77839 0.000286102 0 -1.53763 0 0
5 2.23164 -0.000328064 -0.000364304 -0.757338 0 0
6 11.4725 0 0 -2.29523 0.451249 0.205396
7 0.615217 -0.993093 -0.810699 2.33154 0.49143 -0.467307
8 2.24752 0 0 0.184051 -0.000815371 0.3514
9 1.11935 0 0 0.0719058 0.22699 0.00278407
10 3.71348 -0.102643 0.102191 1.55813 0.550067 0.0727844
11 1.72615 0 0 0.0130937 -0.0253458 -0.58864
12 1.21114 0 0 -0.00463507 0.0170163 -0.863412
13 3.59919 -1.06012 0.0708885 1.55942 0.195064 -0.0649502
14 1.66069 0 0 -0.00432463 0.0777452 -0.278549
15 1.167 0 0 -0.0233511 0.0241549 -0.401015
16 2.18852 0.501039 0.0576591 1.57004 0.0330459 0.225874
17 1.29609 0 0 0.0245654 -0.0398781 -0.741083
18 1.62202 0.000713348 -0.000471115 0.00984861 -0.0234245 -0.831087
19 1.22241 0 0 0.00136055 0.0064205 -0.52186
20 1.76707 1.27612 0.0366411 1.57002 0.262026 0.261241
21 1.55588 0 0 -0.0308128 0.0106456 -0.943666
22 1.24273 0 0 -0.000583414 0.000138337 -0.446636
23 0.784524 0 0 0.0133278 0.00939343 -0.326309
24 -3.6471 7.74038 -3.8527 -0.000932693 0 -2.0944
25 6.02794 0 0 0.77194 0.907942 0.0431126
26 11.7344 0 0 0.00140252 0 1.53949
27 8.81167 0 0 0.148342 0 0
28 5.77884 0 0 0.0993892 0 0
29 2.23249 0 0 0.048953 0 0
30 11.4725 0 0 0.375815 -0.232382 -0.718516
31 0.615814 0.994371 -0.809165 -2.95367 0.480861 0.223812
32 2.24752 0 0 -0.083166 0.257048 0.264172
33 1.11936 0 0 0.106547 0.169507 0.937361
34 3.71349 0.102639 0.102191 -1.53196 0.903048 -0.384383
35 1.72615 0 0 -0.00479618 -0.0018711 1.31044
36 1.21112 0 0 0.00977503 0.0146795 1.18496
37 3.5992 1.06012 0.0708885 -1.55949 0.15616 0.0645016
38 1.66069 0 0 0.0444974 0.0639187 0.831692
39 1.16699 0 0 0.0223071 0.00932774 0.798134
40 2.18853 -0.501041 0.0576589 -1.57003 0.119427 -0.225808
41 1.29609 0 0 0.271416 0.0698929 0.770014
42 1.62202 -0.000713348 -0.000469208 -0.0323155 -0.0109794 1.4179
43 1.22241 0 0 -0.00658512 0.00177675 1.04424
44 1.76707 -1.27612 0.0366406 -1.44072 0.1345 -0.261341
45 1.55588 0 0 0.182858 0.0427366 0.752105
46 1.24273 0 0 0.000592016 0 0.838876
47 0.784531 0 0 -0.00599211 0.000868516 1.11469
48 0 0 0 0 0 0
49 -4.86336 -17.2394 -7.47269 0.00225252 0.00666796 -0.000716691
50 0 -1.70356 0.00508118 0 0 0
51 -0.00195932 3.96104 2.21118 0 0 0
52 0.641596 -0.666147 0.75166 0 0 0
53 0.714398 -3.45621 1.13628 0 0 0
54 -0.706229 -4.69238 1.98618 3.14159 -0.0872664 -3.14159
55 0.01333 1.02904 3.61174 0 0 0
56 0.0133305 -4.73568 2.23877 0 0 0
57 -4.90883 -22.4356 -12.5972 0.00198575 0.00694158 -0.000673708
58 0.01333 -2.20708 7.34991 0 0 0
time 15
0 1.29637 -0.499222 -12.0785 0.000934124 0 -0.959925
1 6.02794 0 0 -0.820915 0.00980785 -0.736779
2 11.7344 0 0 -0.00140287 0 -0.637408
3 8.81138 -0.000450134 -0.000112057 -2.28662 0 0.000156752
4 5.77839 0.000286102 0 -1.53203 0 0
5 2.23164 -0.000328064 -0.00036335 -0.754584 0 0
6 11.4725 0 0 -2.28896 0.455286 0.202535
7 0.615219 -0.993089 -0.8107 2.33154 0.49143 -0.467307
8 2.24752 0 0 0.184051 -0.000815351 0.3514
9 1.11936 0 0 0.0719057 0.22699 0.00278409
10 3.71348 -0.10264 0.102191 1.55813 0.550067 0.0727846
11 1.72615 0 0 0.0130938 -0.025346 -0.58864
12 1.21114 0 0 -0.00463522 0.0170164 -0.863412
13 3.59919 -1.06012 0.0708885 1.55942 0.195064 -0.0649501
14 1.66069 0 0 -0.0043248 0.0777451 -0.278548
15 1.167 0 0 -0.023351 0.0241548 -0.401015
16 2.18853 0.50104 0.0576591 1.57004 0.0330459 0.225874
17 1.29609 0 0 0.0245654 -0.0398781 -0.741083
18 1.62202 0.000711441 -0.000471115 0.00984866 -0.0234245 -0.831087
19 1.22241 0 0 0.00136082 0.00642045 -0.52186
20 1.76707 1.27612 0.0366411 1.57002 0.262026 0.261241
21 1.55588 0 0 -0.0308128 0.0106453 -0.943666
22 1.24273 0 0 -0.000583557 0.000138427 -0.446636
23 0.784523 0 0 0.0133279 0.00939344 -0.326309
24 -3.6471 7.74038 -3.8527 -0.000932693 0 -2.0944
25 6.02794 0 0 0.774048 0.905786 0.048498
26 11.7344 0 0 0.00140264 0 1.53357
27 8.81167 0 0 0.155178 0 0
28 5.77884 0 0 0.103969 0 0
29 2.23249 0 0 0.0512088 0 0
30 11.4725 0 0 0.382945 -0.23412 -0.714792
31 0.615812 0.994372 -0.809165 -2.95367 0.480861 0.223812
32 2.24752 0 0 -0.0831661 0.257048 0.264172
33 1.11936 0 0 0.106547 0.169507 0.93736
34 3.71349 0.102639 0.102191 -1.53196 0.903047 -0.384383
35 1.72615 0 0 -0.0047961 -0.00187111 1.31044
36 1.21112 0 0 0.00977504 0.0146796 1.18496
37 3.5992 1.06012 0.0708878 -1.55949 0.15616 0.0645016
38 1.66069 0 0 0.0444974 0.0639187 0.831692
39 1.16699 0 0 0.0223072 0.00932781 0.798134
40 2.18853 -0.50104 0.0576591 -1.57003 0.119427 -0.225808
41 1.29609 0 0 0.271417 0.0698929 0.770014
42 1.62202 -0.000715256 -0.000469208 -0.0323154 -0.0109793 1.4179
43 1.22241 0 0 -0.00658516 0.00177683 1.04424
44 1.76707 -1.27612 0.0366406 -1.44072 0.1345 -0.261341
45 1.55588 0 0 0.182858 0.0427366 0.752105
46 1.24273 0 0 0.00059189 0 0.838876
47 0.784532 0 0 -0.00599213 0.000868412 1.11469
48 0 0 0 0 0 0
49 -4.82809 -17.2801 -7.47268 0 0.000137978 -0.000306641
50 0 -1.70357 0.00508022 0 0 0
51 -0.0019598 3.96104 2.21118 0 0 0
52 0.641597 -0.666149 0.75166 0 0 0
53 0.714398 -3.45621 1.13628 0 0 0
54 -0.706229 -4.69238 1.98618 -3.14159 -0.0872664 3.14159
55 0.0133305 1.02904 3.61174 0 0 0
56 0.0133305 -4.73569 2.23877 0 0 0
57 -4.83797 -22.4878 -12.5858 -0.000253135 0.000411693 -0.000264271
58 0.0129194 0.0367718 6.63003 0 0 0
time 16
0 1.29637 -0.499222 -12.0785 0.000934124 0 -0.959925
1 6.02794 0 0 -0.820943 0.00796608 -0.736916
2 11.7344 0 0 -0.00140282 0 -0.634069
3 8.81138 -0.000450134 -0.000112534 -2.28281 0 0.000157442
4 5.77839 0.00028801 0 -1.52948 0 0
5 2.23164 -0.000329971 -0.000364304 -0.753328 0 0
6 11.4725 0 0 -2.28597 0.457082 0.201648
7 0.615219 -0.993089 -0.8107 2.33154 0.49143 -0.467307
8 2.24752 0 0 0.184051 -0.000815353 0.3514
9 1.11936 0 0 0.0719056 0.22699 0.00278386
10 3.71348 -0.10264 0.102191 1.55813 0.550067 0.0727848
11 1.72615 0 0 0.0130939 -0.0253459 -0.58864
12 1.21114 0 0 -0.0046352 0.0170165 -0.863412
13 3.59919 -1.06012 0.0708876 1.55942 0.195064 -0.0649502
14 1.66069 0 0 -0.00432485 0.0777451 -0.278549
15 1.167 0 0 -0.023351 0.0241547 -0.401016
16 2.18853 0.501039 0.0576582 1.57004 0.0330459 0.225873
17 1.29609 0 0 0.0245654 -0.0398779 -0.741083
18 1.62202 0.000713348 -0.000471115 0.00984857 -0.0234247 -0.831087
19 1.22241 0 0 0.00136081 0.00642057 -0.52186
20 1.76707 1.27612 0.0366402 1.57002 0.262026 0.261241
21 1.55588 0 0 -0.0308127 0.0106457 -0.943666
22 1.24274 0 0 -0.000583575 0.000138239 -0.446635
23 0.784523 0 0 0.0133279 0.00939357 -0.326309
24 -3.6471 7.74038 -3.8527 -0.000932693 0 -2.0944
25 6.02794 0 0 0.774831 0.904944 0.050686
26 11.7344 0 0 0.00140269 0 1.53116
27 8.81167 0 0 0.158395 0 0
28 5.77884 0 0 0.106125 0 0
29 2.23249 0 0 0.0522703 0 0
30 11.4725 0 0 0.386243 -0.234851 -0.7131
31 0.615812 0.994373 -0.809166 -2.95367 0.480861 0.223813
32 2.24752 0 0 -0.0831661 0.257048 0.264173
33 1.11936 0 0 0.106547 0.169507 0.93736
34 3.71349 0.10264 0.102191 -1.53196 0.903048 -0.384383
35 1.72615 0 0 -0.00479616 -0.00187114 1.31044
36 1.21112 0 0 0.00977499 0.0146795 1.18496
37 3.5992 1.06012 0.0708878 -1.55949 0.156159 0.0645018
38 1.66069 0 0 0.0444974 0.0639187 0.831692
39 1.16699 0 0 0.0223071 0.00932778 0.798134
40 2.18853 -0.50104 0.0576591 -1.57003 0.119427 -0.225808
41 1.29609 0 0 0.271416 0.069893 0.770014
42 1.62202 -0.000713348 -0.000469208 -0.0323157 -0.0109794 1.4179
43 1.22241 0 0 -0.00658514 0.00177675 1.04424
44 1.76707 -1.27612 0.0366409 -1.44072 0.1345 -0.261341
45 1.55587 0 0 0.182858 0.0427367 0.752105
46 1.24273 0 0 0.000591885 0 0.838876
47 0.784532 0 0 -0.00599227 0.000868426 1.11469
48 0 0 0 0 0 0
49 -4.81307 -17.2961 -7.47268 -0.00105048 -0.00291722 0
50 0 -1.70357 0.00508118 0 0 0
51 -0.00196028 3.96104 2.21118 0 0 0
52 0.641596 -0.666149 0.75166 0 0 0
53 0.714397 -3.45621 1.13628 0 0 0
54 -0.70623 -4.69238 1.98618 3.14159 -0.0872663 -3.14159
55 0.01333 1.02904 3.61174 0 0 0
56 0.0133295 -4.73569 2.23877 0 0 0
57 -4.8061 -22.5092 -12.5802 -0.00131765 -0.00264346 0
58 0.0129194 0.0367718 6.63003 0 0 0
time 17
0 1.29637 -0.499222 -12.0785 0.000934124 0 -0.959925
1 6.02794 0 0 -0.82094 0.00856789 -0.736008
2 11.7344 0 0 -0.0014029 0 -0.636639
3 8.81139 -0.000450134 -0.00011158 -2.28192 0 0.000157152
4 5.77839 0.000286102 0 -1.52889 0 0
5 2.23164 -0.000329971 -0.000363827 -0.753034 0 0
6 11.4725 0 0 -2.28461 0.457767 0.203824
7 0.615217 -0.99309 -0.8107 2.33154 0.49143 -0.467307
8 2.24752 0 0 0.184051 -0.00081539 0.3514
9 1.11936 0 0 0.0719058 0.22699 0.00278403
10 3.71348 -0.102639 0.102191 1.55813 0.550067 0.0727846
11 1.72615 0 0 0.0130938 -0.0253458 -0.58864
12 1.21114 0 0 -0.00463517 0.0170163 -0.863412
13 3.59919 -1.06012 0.0708885 1.55942 0.195064 -0.0649502
14 1.66069 0 0 -0.00432471 0.0777453 -0.278548
15 1.167 0 0 -0.023351 0.0241547 -0.401015
16 2.18852 0.50104 0.0576591 1.57004 0.0330459 0.225874
17 1.29609 0 0 0.0245654 -0.0398779 -0.741083
18 1.62202 0.000713348 -0.000469208 0.00984855 -0.0234245 -0.831087
19 1.22241 0 0 0.0013608 0.00642038 -0.52186
20 1.76707 1.27612 0.0366402 1.57002 0.262026 0.261241
21 1.55588 0 0 -0.0308128 0.0106456 -0.943666
22 1.24274 0 0 -0.00058353 0.000138311 -0.446636
23 0.784523 0 0 0.0133279 0.00939356 -0.326309
24 -3.6471 7.74038 -3.8527 -0.000932693 0 -2.0944
25 6.02794 0 0 0.774098 0.905414 0.0502176
26 11.7344 0 0 0.00140265 0 1.53205
27 8.81167 0 0 0.159536 0 0
28 5.77884 0 0 0.106889 0 0
29 2.23249 0 0 0.0526469 0 0
30 11.4725 0 0 0.387717 -0.234981 -0.713291
31 0.615813 0.994372 -0.809166 -2.95367 0.480861 0.223813
32 2.24752 0 0 -0.083166 0.257048 0.264173
33 1.11936 0 0 0.106547 0.169507 0.937361
34 3.71349 0.10264 0.102191 -1.53196 0.903048 -0.384383
35 1.72615 0 0 -0.00479609 -0.00187117 1.31044
36 1.21112 0 0 0.00977509 0.0146796 1.18496
37 3.5992 1.06012 0.070888 -1.55949 0.15616 0.0645017
38 1.66069 0 0 0.0444974 0.0639187 0.831692
39 1.16699 0 0 0.0223072 0.00932782 0.798134
40 2.18853 -0.50104 0.0576589 -1.57003 0.119427 -0.225808
41 1.29609 0 0 0.271417 0.069893 0.770014
42 1.62202 -0.000711441 -0.000471115 -0.0323155 -0.0109794 1.4179
43 1.22241 0 0 -0.00658511 0.00177662 1.04424
44 1.76707 -1.27612 0.0366406 -1.44072 0.1345 -0.261341
45 1.55588 0 0 0.182858 0.0427366 0.752105
46 1.24273 0 0 0.000591927 0 0.838876
47 0.784532 0 0 -0.00599218 0.000868447 1.11469
48 0 0 0 0 0 0
49 -4.81008 -17.2875 -7.47269 -0.00127277 -0.00428915 0
50 0 -1.70356 0.0050807 0 0 0
51 -0.0019598 3.96104 2.21118 0 0 0
52 0.641597 -0.666149 0.75166 0 0 0
53 0.714397 -3.45621 1.13628 0 0 0
54 -0.706229 -4.69238 1.98618 -3.14159 -0.0872663 3.14159
55 0.01333 1.02904 3.61174 0 0 0
56 0.0133305 -4.73568 2.23877 0 0 0
57 -4.79539 -22.5017 -12.579 -0.00154 -0.00401538 0.000111599
58 0.0129194 0.0367718 6.63003 0 0 0
time 18
0 1.29637 -0.499222 -12.0785 0.000934124 0 -0.959925
1 6.02794 0 0 -0.82092 0.0105022 -0.734693
2 11.7344 0 0 -0.00140286 0 -0.642228
3 8.81139 -0.000448227 -0.000112057 -2.28295 0 0.000157425
4 5.77839 0.000286102 0 -1.52958 0 0
5 2.23164 -0.000328064 -0.000364304 -0.753373 0 0
6 11.4725 0 0 -2.28447 0.457672 0.20749
7 0.615219 -0.993091 -0.8107 2.33154 0.49143 -0.467307
8 2.24752 0 0 0.184051 -0.000815319 0.3514
9 1.11936 0 0 0.0719059 0.22699 0.00278404
10 3.71348 -0.102641 0.102191 1.55813 0.550067 0.0727844
11 1.72615 0 0 0.0130938 -0.025346 -0.58864
12 1.21114 0 0 -0.0046353 0.0170165 -0.863412
13 3.59919 -1.06012 0.0708876 1.55942 0.195064 -0.0649501
14 1.66069 0 0 -0.00432462 0.0777452 -0.278549
15 1.16699 0 0 -0.0233511 0.0241547 -0.401015
16 2.18853 0.501039 0.0576591 1.57004 0.0330458 0.225874
17 1.2961 0 0 0.0245654 -0.0398781 -0.741083
18 1.62202 0.000713348 -0.000469208 0.00984858 -0.0234244 -0.831087
19 1.22241 0 0 0.00136064 0.0064204 -0.52186
20 1.76707 1.27612 0.0366411 1.57002 0.262026 0.261241
21 1.55588 0 0 -0.0308127 0.0106457 -0.943666
22 1.24274 0 0 -0.000583557 0.000138427 -0.446635
23 0.784523 0 0 0.013328 0.0093934 -0.326309
24 -3.6471 7.74038 -3.8527 -0.000932693 0 -2.0944
25 6.02794 0 0 0.772434 0.906696 0.0480601
26 11.7344 0 0 0.0014026 0 1.53502
27 8.81167 0 0 0.15919 0 0
28 5.77884 0 0 0.106657 0 0
29 2.23249 0 0 0.0525328 0 0
30 11.4725 0 0 0.387857 -0.234699 -0.714729
31 0.615813 0.994373 -0.809165 -2.95367 0.480861 0.223812
32 2.24752 0 0 -0.083166 0.257048 0.264172
33 1.11936 0 0 0.106547 0.169507 0.937361
34 3.71349 0.102639 0.102191 -1.53196 0.903047 -0.384383
35 1.72615 0 0 -0.00479617 -0.00187096 1.31044
36 1.21112 0 0 0.0097751 0.0146795 1.18496
37 3.5992 1.06012 0.0708883 -1.55949 0.15616 0.0645017
38 1.66069 0 0 0.0444974 0.0639188 0.831692
39 1.16699 0 0 0.0223071 0.00932773 0.798133
40 2.18853 -0.50104 0.0576589 -1.57003 0.119427 -0.225808
41 1.29609 0 0 0.271416 0.069893 0.770014
42 1.62202 -0.000713348 -0.000469208 -0.0323155 -0.0109794 1.4179
43 1.22241 0 0 -0.00658513 0.00177673 1.04424
44 1.76707 -1.27612 0.0366406 -1.44072 0.1345 -0.261341
45 1.55587 0 0 0.182858 0.0427366 0.752105
46 1.24273 0 0 0.0005918 0 0.838875
47 0.784532 0 0 -0.00599212 0.000868332 1.11469
48 0 0 0 0 0 0
49 -4.815 -17.2635 -7.4727 -0.000897726 -0.00442298 0.000128076
50 0 -1.70357 0.0050807 0 0 0
51 -0.0019598 3.96104 2.21118 0 0 0
52 0.641596 -0.666145 0.75166 0 0 0
53 0.714397 -3.45621 1.13628 0 0 0
54 -0.70623 -4.69238 1.98618 -3.14159 -0.0872664 3.14159
55 0.01333 1.02904 3.61174 0 0 0
56 0.01333 -4.73568 2.23877 0 0 0
57 -4.79932 -22.4758 -12.581 -0.00116496 -0.00414923 0.000170196
58 0.0129194 0.0367718 6.63003 0 0 0
time 19
0 1.29637 -0.499222 -12.0785 0.000934124 0 -0.959925
1 6.02794 0 0 -0.820883 0.0131751 -0.733133
2 11.7344 0 0 -0.00140285 0 -0.649376
3 8.81139 -0.000448227 -0.00011301 -2.28513 0 0.000157909
4 5.77839 0.000286102 0 -1.53104 0 0
5 2.23163 -0.000328064 -0.000364304 -0.754092 0 0
6 11.4725 0 0 -2.28513 0.457124 0.211797
7 0.615219 -0.993092 -0.8107 2.33154 0.49143 -0.467307
8 2.24752 0 0 0.184051 -0.00081522 0.3514
9 1.11936 0 0 0.0719057 0.22699 0.00278409
10 3.71348 -0.10264 0.102191 1.55813 0.550067 0.0727846
11 1.72615 0 0 0.0130936 -0.025346 -0.58864
12 1.21114 0 0 -0.00463512 0.0170163 -0.863412
13 3.59919 -1.06012 0.0708885 1.55942 0.195064 -0.0649503
14 1.66069 0 0 -0.00432472 0.0777454 -0.278549
15 1.167 0 0 -0.0233511 0.0241547 -0.401015
16 2.18852 0.50104 0.0576591 1.57004 0.0330459 0.225874
17 1.29609 0 0 0.0245655 -0.039878 -0.741083
18 1.62202 0.000713348 -0.000473022 0.00984877 -0.0234245 -0.831087
19 1.22241 0 0 0.00136057 0.00642044 -0.52186
20 1.76707 1.27612 0.0366402 1.57002 0.262026 0.261241
21 1.55588 0 0 -0.0308129 0.0106456 -0.943666
22 1.24273 0 0 -0.000583427 0.000138395 -0.446635
23 0.784523 0 0 0.0133278 0.00939349 -0.326309
24 -3.6471 7.74038 -3.8527 -0.000932693 0 -2.0944
25 6.02794 0 0 0.770429 0.908286 0.0451831
26 11.7344 0 0 0.00140257 0 1.53886
27 8.81167 0 0 0.15796 0 0
28 5.77884 0 0 0.105833 0 0
29 2.23249 0 0 0.0521268 0 0
30 11.4725 0 0 0.387154 -0.234199 -0.716779
31 0.615813 0.994372 -0.809166 -2.95367 0.480861 0.223812
32 2.24752 0 0 -0.0831661 0.257048 0.264172
33 1.11936 0 0 0.106547 0.169507 0.937361
34 3.71348 0.102639 0.102191 -1.53196 0.903048 -0.384383
35 1.72615 0 0 -0.00479605 -0.00187115 1.31044
36 1.21112 0 0 0.00977514 0.0146796 1.18496
37 3.5992 1.06012 0.0708885 -1.55949 0.15616 0.0645018
38 1.66069 0 0 0.0444974 0.0639188 0.831692
39 1.16699 0 0 0.0223071 0.00932781 0.798134
40 2.18853 -0.50104 0.0576587 -1.57003 0.119427 -0.225808
41 1.29609 0 0 0.271417 0.0698929 0.770013
42 1.62202 -0.000713348 -0.000470161 -0.0323156 -0.0109794 1.4179
43 1.22241 0 0 -0.00658512 0.00177688 1.04424
44 1.76707 -1.27612 0.0366411 -1.44072 0.1345 -0.261341
45 1.55588 0 0 0.182858 0.0427366 0.752105
46 1.24273 0 0 0.000591854 0 0.838876
47 0.784531 0 0 -0.00599214 0.000868397 1.11469
48 0 0 0 0 0 0
49 -4.82373 -17.2335 -7.47271 -0.000170086 -0.0037639 0.000134174
50 0 -1.70357 0.00508118 0 0 0
51 -0.00196028 3.96104 2.21118 0 0 0
52 0.641595 -0.666147 0.751661 0 0 0
53 0.714396 -3.45621 1.13628 0 0 0
54 -0.70623 -4.69238 1.98618 -3.14159 -0.0872664 -3.14159
55 0.0133295 1.02904 3.61174 0 0 0
56 0.0133295 -4.73568 2.23877 0 0 0
57 -4.81137 -22.4421 -12.5848 -0.000437296 -0.00349017 0.000176493
58 0.0129194 0.0367718 6.63003 0 0 0
time 20
0 1.29637 -0.499222 -12.0785 0.000934124 0 -0.959925
1 6.02794 0 0 -0.820842 0.0156741 -0.731787
2 11.7344 0 0 -0.00140278 0 -0.655741
3 8.81138 -0.000450134 -0.000112534 -2.28754 0 0.000157619
4 5.77839 0.000286102 0 -1.53265 0 0
5 2.23163 -0.000328064 -0.000363827 -0.754888 0 0
6 11.4725 0 0 -2.28616 0.45645 0.215452
7 0.615217 -0.993092 -0.8107 2.33154 0.49143 -0.467307
8 2.24752 0 0 0.184051 -0.00081534 0.3514
9 1.11936 0 0 0.0719058 0.22699 0.00278381
10 3.71348 -0.102642 0.102192 1.55813 0.550067 0.0727846
11 1.72615 0 0 0.0130937 -0.025346 -0.58864
12 1.21114 0 0 -0.00463507 0.0170163 -0.863412
13 3.59919 -1.06012 0.0708885 1.55942 0.195064 -0.0649502
14 1.66069 0 0 -0.00432474 0.0777452 -0.278548
15 1.167 0 0 -0.023351 0.0241548 -0.401015
16 2.18852 0.50104 0.0576591 1.57004 0.0330458 0.225874
17 1.29609 0 0 0.0245655 -0.0398779 -0.741083
18 1.62202 0.000713348 -0.000473022 0.00984871 -0.0234246 -0.831087
19 1.22241 0 0 0.00136053 0.00642049 -0.52186
20 1.76707 1.27612 0.0366411 1.57002 0.262026 0.261241
21 1.55588 0 0 -0.0308127 0.0106458 -0.943666
22 1.24274 0 0 -0.000583562 0.000138181 -0.446636
23 0.784523 0 0 0.0133278 0.00939343 -0.326309
24 -3.6471 7.74038 -3.8527 -0.000932693 0 -2.0944
25 6.02794 0 0 0.768682 0.909685 0.0425675
26 11.7344 0 0 0.00140277 0 1.54234
27 8.81167 0 0 0.156442 0 0
28 5.77884 0 0 0.104816 0 0
29 2.23249 0 0 0.0516261 0 0
30 11.4725 0 0 0.386096 -0.233675 -0.718816
31 0.615813 0.994372 -0.809165 -2.95367 0.480861 0.223813
32 2.24752 0 0 -0.083166 0.257048 0.264173
33 1.11936 0 0 0.106547 0.169507 0.93736
34 3.71349 0.102641 0.102191 -1.53196 0.903047 -0.384383
35 1.72615 0 0 -0.00479617 -0.00187119 1.31044
36 1.21112 0 0 0.00977507 0.0146797 1.18496
37 3.5992 1.06012 0.0708878 -1.55949 0.15616 0.0645016
38 1.66069 0 0 0.0444974 0.0639187 0.831692
39 1.16699 0 0 0.0223071 0.00932777 0.798134
40 2.18853 -0.50104 0.0576587 -1.57003 0.119427 -0.225808
41 1.29609 0 0 0.271416 0.069893 0.770014
42 1.62202 -0.000713348 -0.000471115 -0.0323155 -0.0109794 1.4179
43 1.22241 0 0 -0.00658515 0.00177673 1.04424
44 1.76707 -1.27612 0.0366404 -1.44072 0.1345 -0.261341
45 1.55588 0 0 0.182858 0.0427366 0.752105
46 1.24273 0 0 0.000591839 0 0.838876
47 0.784532 0 0 -0.00599216 0.000868328 1.11469
48 0 0 0 0 0 0
49 -4.83216 -17.2067 -7.47273 0.000665401 -0.00275707 0.000113388
50 0 -1.70357 0.00508022 0 0 0
51 -0.0019598 3.96104 2.21118 0 0 0
52 0.641596 -0.666147 0.75166 0 0 0
53 0.714397 -3.45621 1.13628 0 0 0
54 -0.70623 -4.69238 1.98618 3.14159 -0.0872663 -3.14159
55 0.0133305 1.02904 3.61174 0 0 0
56 0.01333 -4.73569 2.23877 0 0 0
57 -4.82504 -22.4111 -12.5892 0.000398233 -0.00248338 0.000155936
58 0.0129194 0.0367699 6.63003 0 0 0
time 21
0 1.29637 -0.499222 -12.0785 0.000934124 0 -0.959925
1 6.02794 0 0 -0.820815 0.0172015 -0.731
2 11.7344 0 0 -0.00140295 0 -0.659297
3 8.81139 -0.000452042 -0.00011158 -2.2893 0 0.000157262
4 5.77839 0.000282288 0 -1.53383 0 0
5 2.23164 -0.000331879 -0.00036335 -0.75547 0 0
6 11.4725 0 0 -2.28715 0.455984 0.217319
7 0.615215 -0.99309 -0.810699 2.33154 0.49143 -0.467307
8 2.24752 0 0 0.184051 -0.000815343 0.3514
9 1.11936 0 0 0.0719058 0.22699 0.00278401
10 3.71348 -0.10264 0.102191 1.55813 0.550067 0.0727845
11 1.72615 0 0 0.0130938 -0.0253458 -0.58864
12 1.21114 0 0 -0.00463509 0.0170163 -0.863412
13 3.59919 -1.06012 0.0708885 1.55942 0.195064 -0.0649502
14 1.66069 0 0 -0.00432474 0.0777452 -0.278549
15 1.167 0 0 -0.0233509 0.0241549 -0.401015
16 2.18852 0.501039 0.0576591 1.57004 0.0330459 0.225874
17 1.2961 0 0 0.0245657 -0.0398779 -0.741083
18 1.62202 0.000713348 -0.000471115 0.00984856 -0.0234245 -0.831087
19 1.22241 0 0 0.00136067 0.00642041 -0.52186
20 1.76707 1.27612 0.0366411 1.57002 0.262026 0.261241
21 1.55588 0 0 -0.0308129 0.0106455 -0.943666
22 1.24273 0 0 -0.000583485 0.000138382 -0.446635
23 0.784524 0 0 0.0133279 0.0093935 -0.326309
24 -3.6471 7.74038 -3.8527 -0.000932693 0 -2.0944
25 6.02794 0 0 0.767793 0.910401 0.0411971
26 11.7344 0 0 0.00140272 0 1.54427
27 8.81167 0 0 0.155229 0 0
28 5.77884 0 0 0.104003 0 0
29 2.23249 0 0 0.0512254 0 0
30 11.4725 0 0 0.385175 -0.233321 -0.720214
31 0.615814 0.994373 -0.809166 -2.95367 0.480861 0.223813
32 2.24752 0 0 -0.0831661 0.257048 0.264172
33 1.11936 0 0 0.106547 0.169507 0.93736
34 3.71349 0.102639 0.102191 -1.53196 0.903047 -0.384383
35 1.72615 0 0 -0.00479605 -0.00187113 1.31044
36 1.21112 0 0 0.00977509 0.0146796 1.18496
37 3.5992 1.06012 0.070889 -1.55949 0.15616 0.0645017
38 1.66069 0 0 0.0444974 0.0639187 0.831692
39 1.16699 0 0 0.0223071 0.00932781 0.798134
40 2.18853 -0.501042 0.0576591 -1.57003 0.119427 -0.225808
41 1.29609 0 0 0.271416 0.0698929 0.770014
42 1.62202 -0.000713348 -0.000471115 -0.0323155 -0.0109794 1.4179
43 1.22241 0 0 -0.00658513 0.00177673 1.04424
44 1.76707 -1.27612 0.0366404 -1.44072 0.1345 -0.261341
45 1.55588 0 0 0.182858 0.0427366 0.752105
46 1.24273 0 0 0.000591941 0 0.838876
47 0.784532 0 0 -0.00599216 0.000868478 1.11469
48 0 0 0 0 0 0
49 -4.83618 -17.1925 -7.47274 0.00136399 -0.00184768 0
50 0 -1.70357 0.0050807 0 0 0
51 -0.0019598 3.96104 2.21118 0 0 0
52 0.641596 -0.666149 0.75166 0 0 0
53 0.714397 -3.45621 1.13628 0 0 0
54 -0.70623 -4.69238 1.98618 -3.14159 -0.0872663 3.14159
55 0.0133305 1.02904 3.61174 0 0 0
56 0.0133295 -4.73569 2.23877 0 0 0
57 -4.83383 -22.3933 -12.5929 0.00109686 -0.00157402 0.000133967
58 0.0129194 0.0367718 6.63003 0 0 0
time 22
0 1.29637 -0.499222 -12.0785 0.000934124 0 -0.959925
1 6.02794 0 0 -0.820808 0.0175002 -0.730883
2 11.7344 0 0 -0.00140283 0 -0.659702
3 8.81139 -0.000452042 -0.000112534 -2.28984 0 0.000157905
4 5.77839 0.000286102 0 -1.53419 0 0.000100104
5 2.23163 -0.000329971 -0.000364304 -0.755646 0 0
6 11.4725 0 0 -2.28759 0.455873 0.217425
7 0.615221 -0.993089 -0.8107 2.33154 0.49143 -0.467307
8 2.24752 0 0 0.184051 -0.000815481 0.3514
9 1.11936 0 0 0.0719058 0.22699 0.00278388
10 3.71348 -0.102639 0.102191 1.55813 0.550067 0.0727847
11 1.72615 0 0 0.0130936 -0.025346 -0.58864
12 1.21114 0 0 -0.00463514 0.0170165 -0.863412
13 3.59919 -1.06012 0.0708885 1.55942 0.195064 -0.0649502
14 1.66069 0 0 -0.00432479 0.0777451 -0.278548
15 1.167 0 0 -0.023351 0.0241548 -0.401016
16 2.18853 0.50104 0.0576591 1.57004 0.0330458 0.225874
17 1.29609 0 0 0.0245655 -0.0398781 -0.741083
18 1.62202 0.000713348 -0.000469208 0.00984864 -0.0234244 -0.831087
19 1.22241 0 0 0.00136077 0.00642049 -0.52186
20 1.76707 1.27612 0.0366411 1.57002 0.262026 0.261241
21 1.55588 0 0 -0.0308127 0.0106455 -0.943666
22 1.24274 0 0 -0.000583427 0.000138395 -0.446636
23 0.784524 0 0 0.0133278 0.00939355 -0.326309
24 -3.6471 7.74038 -3.8527 -0.000932693 0 -2.0944
25 6.02794 0 0 0.767787 0.91042 0.04112
26 11.7344 0 0 0.00140264 0 1.54446
27 8.81167 0 0 0.15482 0 0
28 5.77884 0 0 0.103729 0 0
29 2.23249 0 0 0.0510905 0 0
30 11.4725 0 0 0.384814 -0.233175 -0.720621
31 0.615813 0.994372 -0.809165 -2.95367 0.480861 0.223812
32 2.24752 0 0 -0.083166 0.257048 0.264172
33 1.11936 0 0 0.106547 0.169507 0.937361
34 3.71348 0.102639 0.102191 -1.53196 0.903048 -0.384383
35 1.72615 0 0 -0.00479614 -0.00187112 1.31044
36 1.21112 0 0 0.0097751 0.0146796 1.18496
37 3.5992 1.06012 0.0708885 -1.55949 0.15616 0.0645018
38 1.66069 0 0 0.0444974 0.0639187 0.831692
39 1.16699 0 0 0.0223071 0.00932778 0.798134
40 2.18853 -0.50104 0.0576596 -1.57003 0.119427 -0.225808
41 1.29609 0 0 0.271416 0.0698929 0.770014
42 1.62202 -0.000713348 -0.000469208 -0.0323155 -0.0109794 1.4179
43 1.22241 0 0 -0.00658514 0.00177677 1.04424
44 1.76707 -1.27612 0.0366409 -1.44072 0.1345 -0.261341
45 1.55588 0 0 0.182858 0.0427367 0.752106
46 1.24273 0 0 0.000591911 0 0.838875
47 0.784532 0 0 -0.00599216 0.000868379 1.11469
48 0 0 0 0 0 0
49 -4.83626 -17.1916 -7.47276 0.00168093 -0.0014809 0
50 0 -1.70357 0.0050807 0 0 0
51 -0.0019598 3.96104 2.21118 0 0 0
52 0.641596 -0.666145 0.75166 0 0 0
53 0.714397 -3.4562 1.13628 0 0 0
54 -0.706229 -4.69238 1.98618 3.14159 -0.0872664 -3.14159
55 0.01333 1.02904 3.61174 0 0 0
56 0.0133295 -4.73569 2.23877 0 0 0
57 -4.83577 -22.3908 -12.5945 0.00141382 -0.00120726 0.000136033
58 0.0129194 0.0367737 6.63003 0 0 0
time 23
0 1.29637 -0.499222 -12.0785 0.000934124 0 -0.959925
1 6.02794 0 0 -0.820816 0.0170699 -0.731228
2 11.7344 0 0 -0.0014029 0 -0.658322
3 8.81139 -0.000452042 -0.00011301 -2.2896 0 0.000156883
4 5.77839 0.000286102 0 -1.53403 0 0
5 2.23164 -0.000329971 -0.000363827 -0.755569 0 0
6 11.4725 0 0 -2.28763 0.455916 0.216609
7 0.615219 -0.99309 -0.8107 2.33154 0.49143 -0.467307
8 2.24752 0 0 0.184051 -0.000815395 0.3514
9 1.11935 0 0 0.0719057 0.22699 0.00278395
10 3.71348 -0.102641 0.102191 1.55813 0.550067 0.0727844
11 1.72615 0 0 0.0130936 -0.025346 -0.58864
12 1.21114 0 0 -0.00463509 0.0170164 -0.863412
13 3.59919 -1.06012 0.0708885 1.55942 0.195064 -0.0649503
14 1.66069 0 0 -0.00432481 0.0777452 -0.278549
15 1.167 0 0 -0.0233511 0.0241549 -0.401015
16 2.18853 0.50104 0.0576591 1.57004 0.0330458 0.225874
17 1.29609 0 0 0.0245654 -0.0398782 -0.741083
18 1.62202 0.000713348 -0.000471115 0.00984861 -0.0234245 -0.831087
19 1.22241 0 0 0.00136076 0.00642055 -0.52186
20 1.76707 1.27612 0.0366411 1.57002 0.262026 0.261241
21 1.55588 0 0 -0.0308126 0.0106456 -0.943666
22 1.24274 0 0 -0.000583472 0.000138324 -0.446636
23 0.784524 0 0 0.0133279 0.00939338 -0.326309
24 -3.6471 7.74038 -3.8527 -0.000932693 0 -2.0944
25 6.02794 0 0 0.768226 0.910101 0.041622
26 11.7344 0 0 0.00140266 0 1.54375
27 8.81167 0 0 0.154944 0 0
28 5.77884 0 0 0.103812 0 0
29 2.23249 0 0 0.0511315 0 0
30 11.4725 0 0 0.384786 -0.233109 -0.720376
31 0.615814 0.994372 -0.809166 -2.95367 0.480861 0.223813
32 2.24752 0 0 -0.0831661 0.257048 0.264172
33 1.11936 0 0 0.106547 0.169507 0.937361
34 3.71349 0.102639 0.10219 -1.53196 0.903048 -0.384383
35 1.72615 0 0 -0.00479613 -0.00187114 1.31044
36 1.21112 0 0 0.00977506 0.0146796 1.18496
37 3.5992 1.06012 0.0708878 -1.55949 0.15616 0.0645018
38 1.66069 0 0 0.0444974 0.0639187 0.831692
39 1.16699 0 0 0.0223071 0.00932779 0.798134
40 2.18853 -0.501041 0.0576589 -1.57003 0.119427 -0.225808
41 1.29609 0 0 0.271416 0.0698929 0.770014
42 1.62202 -0.000713348 -0.000470161 -0.0323155 -0.0109794 1.4179
43 1.22241 0 0 -0.00658512 0.00177677 1.04424
44 1.76707 -1.27612 0.0366402 -1.44072 0.1345 -0.261341
45 1.55588 0 0 0.182858 0.0427365 0.752105
46 1.24273 0 0 0.000591886 0 0.838876
47 0.784532 0 0 -0.00599211 0.000868437 1.11469
48 0 0 0 0 0 0
49 -4.83571 -17.1976 -7.47278 0.00171156 -0.00147131 0.000105772
50 0 -1.70357 0.0050807 0 0 0
51 -0.00195932 3.96104 2.21118 0 0 0
52 0.641596 -0.666147 0.75166 0 0 0
53 0.714397 -3.4562 1.13628 0 0 0
54 -0.706229 -4.69238 1.98618 3.14159 -0.0872664 -3.14159
55 0.01333 1.02904 3.61174 0 0 0
56 0.01333 -4.73568 2.23877 0 0 0
57 -4.8352 -22.3966 -12.5947 0.00144445 -0.00119767 0.000148606
58 0.0129199 0.0367718 6.63003 0 0 0
time 24
0 1.29637 -0.499222 -12.0785 0.000934124 0 -0.959925
1 6.02794 0 0 -0.820829 0.0162423 -0.731891
2 11.7344 0 0 -0.00140276 0 -0.655719
3 8.81139 -0.000450134 -0.000112057 -2.28923 0 0.00015725
4 5.77839 0.000286102 0 -1.53378 0 0
5 2.23163 -0.000331879 -0.000364304 -0.755445 0 0
6 11.4725 0 0 -2.28777 0.455935 0.214982
7 0.615219 -0.99309 -0.810701 2.33154 0.49143 -0.467307
8 2.24752 0 0 0.184051 -0.000815408 0.3514
9 1.11936 0 0 0.0719057 0.22699 0.00278395
10 3.71348 -0.102642 0.10219 1.55813 0.550067 0.0727845
11 1.72615 0 0 0.0130938 -0.0253459 -0.58864
12 1.21114 0 0 -0.00463509 0.0170164 -0.863412
13 3.59919 -1.06012 0.0708876 1.55942 0.195064 -0.0649503
14 1.66069 0 0 -0.00432493 0.0777452 -0.278548
15 1.167 0 0 -0.0233508 0.024155 -0.401015
16 2.18852 0.50104 0.0576582 1.57004 0.0330458 0.225874
17 1.29609 0 0 0.0245655 -0.0398779 -0.741083
18 1.62202 0.000713348 -0.000471115 0.00984866 -0.0234245 -0.831087
19 1.22241 0 0 0.00136078 0.00642056 -0.52186
20 1.76707 1.27612 0.0366402 1.57002 0.262026 0.261241
21 1.55588 0 0 -0.0308129 0.0106456 -0.943666
22 1.24274 0 0 -0.000583427 0.000138395 -0.446635
23 0.784524 0 0 0.0133279 0.00939332 -0.326309
24 -3.6471 7.74038 -3.8527 -0.000932693 0 -2.0944
25 6.02794 0 0 0.769031 0.909515 0.0425446
26 11.7344 0 0 0.00140271 0 1.54244
27 8.81167 0 0 0.155073 0 0
28 5.77884 0 0 0.103899 0 0
29 2.23249 0 0 0.051174 0 0
30 11.4725 0 0 0.38464 -0.233058 -0.719864
31 0.615812 0.994373 -0.809165 -2.95367 0.480861 0.223813
32 2.24752 0 0 -0.0831661 0.257048 0.264172
33 1.11936 0 0 0.106547 0.169507 0.937361
34 3.71349 0.102639 0.102191 -1.53196 0.903048 -0.384383
35 1.72615 0 0 -0.00479612 -0.00187115 1.31044
36 1.21112 0 0 0.00977508 0.0146796 1.18496
37 3.5992 1.06012 0.0708888 -1.55949 0.15616 0.0645016
38 1.66069 0 0 0.0444974 0.0639187 0.831692
39 1.16699 0 0 0.0223071 0.00932776 0.798134
40 2.18853 -0.50104 0.0576601 -1.57003 0.119427 -0.225808
41 1.29609 0 0 0.271416 0.0698929 0.770014
42 1.62202 -0.000713348 -0.000472069 -0.0323155 -0.0109794 1.4179
43 1.22241 0 0 -0.00658518 0.00177674 1.04424
44 1.76707 -1.27612 0.0366406 -1.44072 0.1345 -0.261341
45 1.55587 0 0 0.182858 0.0427366 0.752106
46 1.24273 0 0 0.000591898 0 0.838876
47 0.784531 0 0 -0.00599214 0.000868367 1.11469
48 0 0 0 0 0 0
49 -4.83469 -17.2086 -7.47281 0.00170653 -0.00135784 0.000101248
50 0 -1.70357 0.0050807 0 0 0
51 -0.0019598 3.96104 2.21118 0 0 0
52 0.641596 -0.666147 0.751661 0 0 0
53 0.714398 -3.45621 1.13628 0 0 0
54 -0.706229 -4.69238 1.98618 3.14159 -0.0872663 -3.14159
55 0.01333 1.02904 3.61174 0 0 0
56 0.0133305 -4.73568 2.23877 0 0 0
57 -4.83478 -22.4076 -12.5947 0.00143942 -0.0010842 0.00014408
58 0.0129199 0.0367737 6.63003 0 0 0
time 25
0 1.29637 -0.499222 -12.0785 0.000934124 0 -0.959925
1 6.02794 0 0 -0.820847 0.0151422 -0.732767
2 11.7344 0 0 -0.00140293 0 -0.652307
3 8.81138 -0.000448227 -0.000112534 -2.28875 0 0.000157349
4 5.77839 0.00028801 0 -1.53346 0 0
5 2.23164 -0.000328064 -0.000363827 -0.755287 0 0
6 11.4725 0 0 -2.28798 0.455929 0.212811
7 0.615217 -0.99309 -0.8107 2.33154 0.49143 -0.467307
8 2.24752 0 0 0.184051 -0.000815312 0.3514
9 1.11935 0 0 0.0719057 0.22699 0.00278404
10 3.71348 -0.102639 0.102191 1.55813 0.550067 0.0727845
11 1.72615 0 0 0.0130937 -0.0253461 -0.58864
12 1.21114 0 0 -0.00463511 0.0170164 -0.863412
13 3.59919 -1.06012 0.0708876 1.55942 0.195064 -0.0649503
14 1.66069 0 0 -0.00432493 0.0777452 -0.278548
15 1.167 0 0 -0.0233512 0.0241549 -0.401015
16 2.18852 0.501041 0.0576582 1.57004 0.0330458 0.225874
17 1.29609 0 0 0.0245653 -0.039878 -0.741083
18 1.62202 0.000715256 -0.000473022 0.00984872 -0.0234244 -0.831087
19 1.22241 0 0 0.00136084 0.00642045 -0.52186
20 1.76707 1.27612 0.0366402 1.57002 0.262026 0.261241
21 1.55588 0 0 -0.0308127 0.0106457 -0.943666
22 1.24274 0 0 -0.00058344 0.000138453 -0.446635
23 0.784524 0 0 0.0133279 0.00939345 -0.326309
24 -3.6471 7.74038 -3.8527 -0.000932693 0 -2.0944
25 6.02794 0 0 0.770067 0.908757 0.0437366
26 11.7344 0 0 0.00140277 0 1.54074
27 8.81167 0 0 0.155202 0 0
28 5.77884 0 0 0.103985 0 0
29 2.23249 0 0 0.0512167 0 0
30 11.4725 0 0 0.384412 -0.233033 -0.719154
31 0.615813 0.994372 -0.809165 -2.95367 0.480861 0.223812
32 2.24752 0 0 -0.0831661 0.257048 0.264172
33 1.11936 0 0 0.106547 0.169507 0.937361
34 3.71349 0.10264 0.102191 -1.53196 0.903048 -0.384383
35 1.72615 0 0 -0.00479613 -0.00187109 1.31044
36 1.21112 0 0 0.00977513 0.0146796 1.18496
37 3.5992 1.06012 0.0708888 -1.55949 0.15616 0.0645016
38 1.66069 0 0 0.0444974 0.0639188 0.831692
39 1.16699 0 0 0.0223071 0.00932778 0.798134
40 2.18853 -0.50104 0.0576591 -1.57003 0.119427 -0.225808
41 1.29609 0 0 0.271416 0.0698928 0.770014
42 1.62202 -0.000713348 -0.000470161 -0.0323154 -0.0109793 1.4179
43 1.22241 0 0 -0.00658516 0.00177674 1.04424
44 1.76707 -1.27612 0.0366406 -1.44072 0.1345 -0.261341
45 1.55588 0 0 0.182858 0.0427367 0.752105
46 1.24273 0 0 0.000591877 0 0.838876
47 0.784532 0 0 -0.00599215 0.000868426 1.11469
48 0 0 0 0 0 0
49 -4.83336 -17.2229 -7.47284 0.00165404 -0.00117225 0
50 0 -1.70357 0.0050807 0 0 0
51 -0.0019598 3.96104 2.21118 0 0 0
52 0.641596 -0.666147 0.751659 0 0 0
53 0.714397 -3.4562 1.13628 0 0 0
54 -0.706229 -4.69238 1.98618 -3.14159 -0.0872663 3.14159
55 0.0133305 1.02904 3.61174 0 0 0
56 0.01333 -4.73569 2.23877 0 0 0
57 -4.8345 -22.4222 -12.5945 0.00138694 -0.000898603 0.000126779
58 0.0129194 0.0367699 6.63003 0 0 0
time 26
0 1.29637 -0.499222 -12.0785 0.000934124 0 -0.959925
1 6.02794 0 0 -0.820864 0.0138934 -0.733753
2 11.7344 0 0 -0.00140292 0 -0.648496
3 8.81139 -0.000448227 -0.000112057 -2.28822 0 0.00015714
4 5.77839 0.000286102 0 -1.53311 0 0
5 2.23163 -0.000329971 -0.00036335 -0.755112 0 0
6 11.4725 0 0 -2.28822 0.455896 0.210362
7 0.615219 -0.993092 -0.8107 2.33154 0.49143 -0.467307
8 2.24752 0 0 0.184051 -0.000815423 0.3514
9 1.11936 0 0 0.0719057 0.22699 0.00278386
10 3.71348 -0.102643 0.102191 1.55813 0.550067 0.0727844
11 1.72615 0 0 0.0130937 -0.0253458 -0.58864
12 1.21114 0 0 -0.00463525 0.0170164 -0.863412
13 3.59919 -1.06012 0.0708876 1.55942 0.195064 -0.0649503
14 1.66069 0 0 -0.00432464 0.0777452 -0.278549
15 1.16699 0 0 -0.0233512 0.0241549 -0.401015
16 2.18853 0.501038 0.0576591 1.57004 0.0330459 0.225873
17 1.29609 0 0 0.0245655 -0.0398781 -0.741083
18 1.62202 0.000713348 -0.000473022 0.00984865 -0.0234247 -0.831087
19 1.22241 0 0 0.0013607 0.00642066 -0.52186
20 1.76707 1.27612 0.0366411 1.57002 0.262026 0.261241
21 1.55588 0 0 -0.0308127 0.0106456 -0.943666
22 1.24273 0 0 -0.000583472 0.000138324 -0.446635
23 0.784524 0 0 0.0133279 0.00939337 -0.326309
24 -3.6471 7.74038 -3.8527 -0.000932693 0 -2.0944
25 6.02794 0 0 0.771199 0.907925 0.0450459
26 11.7344 0 0 0.0014029 0 1.53884
27 8.81167 0 0 0.155327 0 0
28 5.77884 0 0 0.104069 0 0
29 2.23249 0 0 0.051258 0 0
30 11.4725 0 0 0.38414 -0.233045 -0.71831
31 0.615812 0.994372 -0.809165 -2.95367 0.480861 0.223813
32 2.24752 0 0 -0.083166 0.257048 0.264173
33 1.11936 0 0 0.106547 0.169507 0.937361
34 3.71348 0.10264 0.102191 -1.53196 0.903048 -0.384383
35 1.72615 0 0 -0.00479617 -0.0018711 1.31044
36 1.21112 0 0 0.00977508 0.0146796 1.18496
37 3.5992 1.06012 0.0708888 -1.55949 0.15616 0.0645017
38 1.66069 0 0 0.0444974 0.0639187 0.831692
39 1.16699 0 0 0.0223071 0.0093278 0.798134
40 2.18853 -0.501041 0.0576596 -1.57003 0.119427 -0.225808
41 1.29609 0 0 0.271417 0.0698929 0.770014
42 1.62201 -0.000713348 -0.000468254 -0.0323155 -0.0109793 1.4179
43 1.22241 0 0 -0.0065851 0.00177676 1.04424
44 1.76707 -1.27612 0.0366411 -1.44072 0.1345 -0.261341
45 1.55588 0 0 0.182858 0.0427365 0.752106
46 1.24273 0 0 0.000591771 0 0.838875
47 0.784532 0 0 -0.00599213 0.000868358 1.11469
48 0 0 0 0 0 0
49 -4.83191 -17.2386 -7.47286 0.0015423 -0.000946284 0
50 0 -1.70357 0.0050807 0 0 0
51 -0.0019598 3.96104 2.21118 0 0 0
52 0.641597 -0.666147 0.751661 0 0 0
53 0.714398 -3.45621 1.13628 0 0 0
54 -0.706229 -4.69238 1.98618 -3.14159 -0.0872663 3.14159
55 0.0133305 1.02904 3.61174 0 0 0
56 0.01333 -4.73568 2.23877 0 0 0
57 -4.83434 -22.4384 -12.5939 0.00127521 -0.000672634 0.000101028
58 0.0129189 0.0367737 6.63003 0 0 0
time 27
0 1.29637 -0.499222 -12.0785 0.000934124 0 -0.959925
1 6.02794 0 0 -0.820882 0.0126255 -0.734735
2 11.7344 0 0 -0.00140291 0 -0.644715
3 8.81139 -0.000452042 -0.000112534 -2.28768 0 0.000157435
4 5.77839 0.000284195 0 -1.53274 0 0
5 2.23164 -0.000331879 -0.000364304 -0.754933 0 0
6 11.4725 0 0 -2.28844 0.455837 0.207905
7 0.615219 -0.993089 -0.8107 2.33154 0.49143 -0.467307
8 2.24752 0 0 0.184051 -0.00081536 0.3514
9 1.11936 0 0 0.0719057 0.22699 0.00278382
10 3.71348 -0.102641 0.102191 1.55813 0.550067 0.0727847
11 1.72615 0 0 0.0130939 -0.0253458 -0.58864
12 1.21114 0 0 -0.0046351 0.0170161 -0.863412
13 3.59919 -1.06012 0.0708885 1.55942 0.195064 -0.0649502
14 1.66069 0 0 -0.00432465 0.0777454 -0.278549
15 1.167 0 0 -0.0233511 0.0241546 -0.401015
16 2.18853 0.50104 0.0576591 1.57004 0.0330459 0.225874
17 1.29609 0 0 0.0245656 -0.0398779 -0.741083
18 1.62202 0.000715256 -0.000469208 0.00984879 -0.0234246 -0.831087
19 1.22241 0 0 0.00136073 0.00642042 -0.52186
20 1.76707 1.27612 0.0366411 1.57002 0.262026 0.261241
21 1.55588 0 0 -0.0308126 0.0106456 -0.943666
22 1.24274 0 0 -0.00058353 0.000138311 -0.446635
23 0.784523 0 0 0.013328 0.00939345 -0.326309
24 -3.6471 7.74038 -3.8527 -0.000932693 0 -2.0944
25 6.02794 0 0 0.772295 0.907115 0.046322
26 11.7344 0 0 0.00140275 0 1.53698
27 8.81167 0 0 0.155444 0 0
28 5.77884 0 0 0.104148 0 0
29 2.23249 0 0 0.0512966 0 0
30 11.4725 0 0 0.383856 -0.233105 -0.717399
31 0.615812 0.994373 -0.809165 -2.95367 0.480861 0.223812
32 2.24752 0 0 -0.083166 0.257048 0.264172
33 1.11936 0 0 0.106547 0.169507 0.937361
34 3.71349 0.102639 0.102191 -1.53196 0.903048 -0.384383
35 1.72615 0 0 -0.00479615 -0.00187106 1.31044
36 1.21112 0 0 0.00977508 0.0146796 1.18496
37 3.5992 1.06012 0.0708885 -1.55949 0.15616 0.0645017
38 1.66069 0 0 0.0444974 0.0639187 0.831692
39 1.16699 0 0 0.0223071 0.00932778 0.798134
40 2.18853 -0.50104 0.0576594 -1.57003 0.119427 -0.225808
41 1.29609 0 0 0.271417 0.0698929 0.770014
42 1.62202 -0.000713348 -0.000468254 -0.0323155 -0.0109794 1.4179
43 1.22241 0 0 -0.00658502 0.00177671 1.04424
44 1.76707 -1.27612 0.0366404 -1.44072 0.1345 -0.261341
45 1.55587 0 0 0.182858 0.0427366 0.752105
46 1.24273 0 0 0.000591885 0 0.838876
47 0.784532 0 0 -0.00599218 0.000868503 1.11469
48 0 0 0 0 0 0
49 -4.83049 -17.2539 -7.47289 0.00135952 -0.000711697 0
50 0 -1.70357 0.0050807 0 0 0
51 -0.00195932 3.96104 2.21118 0 0 0
52 0.641596 -0.666145 0.75166 0 0 0
53 0.714397 -3.45621 1.13628 0 0 0
54 -0.70623 -4.69238 1.98618 3.14159 -0.0872664 -3.14159
55 0.01333 1.02904 3.61174 0 0 0
56 0.01333 -4.73568 2.23877 0 0 0
57 -4.83427 -22.4547 -12.593 0.00109244 -0.000438039 0
58 0.0129194 0.0367718 6.63003 0 0 0
time 28
0 1.29637 -0.499222 -12.0785 0.000934124 0 -0.959925
1 6.02794 0 0 -0.820896 0.0114695 -0.735603
2 11.7344 0 0 -0.00140274 0 -0.641395
3 8.81138 -0.000448227 -0.00011301 -2.28717 0 0.000158001
4 5.77839 0.00028801 0 -1.5324 0 0
5 2.23164 -0.000329971 -0.000363827 -0.754766 0 0
6 11.4725 0 0 -2.2886 0.455746 0.205717
7 0.615219 -0.993093 -0.8107 2.33154 0.49143 -0.467307
8 2.24752 0 0 0.184051 -0.000815312 0.3514
9 1.11936 0 0 0.0719058 0.22699 0.00278413
10 3.71348 -0.102642 0.102191 1.55813 0.550067 0.0727847
11 1.72615 0 0 0.0130937 -0.0253461 -0.58864
12 1.21114 0 0 -0.00463507 0.0170163 -0.863412
13 3.59919 -1.06012 0.0708876 1.55942 0.195064 -0.0649501
14 1.66068 0 0 -0.00432465 0.0777454 -0.278549
15 1.167 0 0 -0.0233511 0.0241547 -0.401015
16 2.18853 0.501038 0.0576591 1.57004 0.0330459 0.225874
17 1.29609 0 0 0.0245654 -0.0398781 -0.741083
18 1.62202 0.000713348 -0.000473022 0.00984848 -0.0234245 -0.831087
19 1.22241 0 0 0.00136079 0.00642044 -0.52186
20 1.76707 1.27612 0.0366411 1.57002 0.262026 0.261241
21 1.55588 0 0 -0.0308125 0.0106458 -0.943666
22 1.24274 0 0 -0.00058353 0.000138311 -0.446636
23 0.784523 0 0 0.013328 0.0093934 -0.326309
24 -3.6471 7.74038 -3.8527 -0.000932693 0 -2.0944
25 6.02794 0 0 0.773222 0.906425 0.0474131
26 11.7344 0 0 0.0014027 0 1.53534
27 8.81167 0 0 0.155549 0 0
28 5.77884 0 0 0.104218 0 0
29 2.23249 0 0 0.0513312 0 0
30 11.4725 0 0 0.383599 -0.233222 -0.716487
31 0.615813 0.994373 -0.809165 -2.95367 0.480861 0.223812
32 2.24752 0 0 -0.083166 0.257048 0.264173
33 1.11936 0 0 0.106547 0.169507 0.937361
34 3.71348 0.10264 0.102191 -1.53196 0.903047 -0.384383
35 1.72615 0 0 -0.00479621 -0.00187105 1.31044
36 1.21112 0 0 0.00977508 0.0146796 1.18496
37 3.5992 1.06012 0.0708885 -1.55949 0.15616 0.0645016
38 1.66069 0 0 0.0444974 0.0639188 0.831692
39 1.16699 0 0 0.0223071 0.00932774 0.798134
40 2.18853 -0.501041 0.0576594 -1.57003 0.119427 -0.225808
41 1.29609 0 0 0.271417 0.069893 0.770014
42 1.62201 -0.000713348 -0.000469208 -0.0323155 -0.0109794 1.4179
43 1.22241 0 0 -0.00658522 0.00177679 1.04424
44 1.76707 -1.27612 0.0366411 -1.44072 0.1345 -0.261341
45 1.55588 0 0 0.182858 0.0427367 0.752105
46 1.24273 0 0 0.000591844 0 0.838876
47 0.784531 0 0 -0.00599219 0.000868509 1.11469
48 0 0 0 0 0 0
49 -4.82927 -17.2671 -7.47291 0.00109392 -0.000500238 0
50 0 -1.70357 0.0050807 0 0 0
51 -0.00195932 3.96104 2.21118 0 0 0
52 0.641596 -0.666145 0.75166 0 0 0
53 0.714398 -3.4562 1.13628 0 0 0
54 -0.70623 -4.69238 1.98618 3.14159 -0.0872664 -3.14159
55 0.0133305 1.02904 3.61174 0 0 0
56 0.0133305 -4.73568 2.23877 0 0 0
57 -4.83429 -22.4692 -12.5916 0.000826844 -0.000226569 0
58 0.0129194 0.0367718 6.63003 0 0 0
time 29
0 1.29637 -0.499222 -12.0785 0.000934124 0 -0.959925
1 6.02794 0 0 -0.820907 0.0105607 -0.736242
2 11.7344 0 0 -0.0014028 0 -0.638975
3 8.81138 -0.000450134 -0.000113487 -2.28674 0 0.000156927
4 5.77839 0.000286102 0 -1.53211 0 0
5 2.23163 -0.000329971 -0.000364304 -0.754623 0 0
6 11.4725 0 0 -2.28867 0.455626 0.204074
7 0.615217 -0.993091 -0.8107 2.33154 0.49143 -0.467307
8 2.24752 0 0 0.184051 -0.000815256 0.3514
9 1.11936 0 0 0.0719057 0.22699 0.00278393
10 3.71348 -0.10264 0.102191 1.55813 0.550067 0.0727848
11 1.72615 0 0 0.0130937 -0.0253461 -0.58864
12 1.21114 0 0 -0.00463493 0.0170164 -0.863412
13 3.59919 -1.06012 0.0708876 1.55942 0.195064 -0.0649502
14 1.66069 0 0 -0.00432477 0.0777453 -0.278548
15 1.167 0 0 -0.0233511 0.0241547 -0.401015
16 2.18852 0.501038 0.0576591 1.57004 0.0330459 0.225874
17 1.29609 0 0 0.0245655 -0.039878 -0.741083
18 1.62202 0.000713348 -0.000473022 0.00984852 -0.0234246 -0.831087
19 1.22241 0 0 0.00136077 0.00642049 -0.52186
20 1.76707 1.27612 0.0366411 1.57002 0.262026 0.261241
21 1.55588 0 0 -0.0308128 0.0106456 -0.943666
22 1.24274 0 0 -0.000583459 0.000138266 -0.446636
23 0.784523 0 0 0.0133278 0.00939342 -0.326309
24 -3.6471 7.74038 -3.8527 -0.000932693 0 -2.0944
25 6.02794 0 0 0.77385 0.905953 0.0481712
26 11.7344 0 0 0.00140258 0 1.53415
27 8.81167 0 0 0.155637 0 0
28 5.77884 0 0 0.104277 0 0
29 2.23249 0 0 0.0513601 0 0
30 11.4725 0 0 0.383402 -0.233406 -0.715641
31 0.615812 0.994372 -0.809166 -2.95367 0.480861 0.223813
32 2.24752 0 0 -0.0831661 0.257048 0.264172
33 1.11936 0 0 0.106547 0.169507 0.937361
34 3.71349 0.10264 0.102191 -1.53196 0.903048 -0.384383
35 1.72615 0 0 -0.00479629 -0.00187102 1.31044
36 1.21112 0 0 0.00977507 0.0146796 1.18496
37 3.5992 1.06012 0.070888 -1.55949 0.156159 0.0645016
38 1.66069 0 0 0.0444974 0.0639187 0.831692
39 1.16699 0 0 0.0223072 0.00932779 0.798134
40 2.18853 -0.501041 0.0576591 -1.57003 0.119427 -0.225808
41 1.29609 0 0 0.271416 0.0698929 0.770014
42 1.62202 -0.000713348 -0.000470161 -0.0323155 -0.0109794 1.4179
43 1.22241 0 0 -0.00658506 0.0017767 1.04424
44 1.76707 -1.27612 0.0366404 -1.44072 0.1345 -0.261341
45 1.55587 0 0 0.182858 0.0427366 0.752105
46 1.24273 0 0 0.000591792 0 0.838876
47 0.784531 0 0 -0.00599203 0.000868308 1.11469
48 0 0 0 0 0 0
49 -4.82841 -17.2763 -7.47292 0.000733693 -0.000343657 0
50 0 -1.70357 0.0050807 0 0 0
51 -0.0019598 3.96104 2.21118 0 0 0
52 0.641596 -0.666147 0.75166 0 0 0
53 0.714398 -3.45621 1.13628 0 0 0
54 -0.706229 -4.69238 1.98618 3.14159 -0.0872664 -3.14159
55 0.0133305 1.02904 3.61174 0 0 0
56 0.01333 -4.73569 2.23877 0 0 0
57 -4.83437 -22.4803 -12.5897 0.000466628 0 0
58 0.0129189 0.0367718 6.63003 0 0 0
time 30
0 1.29637 -0.499222 -12.0785 0.000934124 0 -0.959925
1 6.02794 0 0 -0.820913 0.0100352 -0.736535
2 11.7344 0 0 -0.00140286 0 -0.637902
3 8.81139 -0.000448227 -0.00011158 -2.28642 0 0.000157369
4 5.77839 0.000286102 0 -1.5319 0 0
5 2.23163 -0.000328064 -0.00036335 -0.75452 0 0
6 11.4725 0 0 -2.28859 0.455474 0.20326
7 0.615219 -0.993091 -0.810699 2.33154 0.49143 -0.467307
8 2.24752 0 0 0.184051 -0.000815328 0.3514
9 1.11936 0 0 0.0719057 0.22699 0.00278388
10 3.71348 -0.102638 0.102191 1.55813 0.550067 0.0727845
11 1.72615 0 0 0.0130939 -0.0253457 -0.58864
12 1.21114 0 0 -0.00463512 0.0170162 -0.863412
13 3.59919 -1.06012 0.0708885 1.55942 0.195064 -0.0649502
14 1.66069 0 0 -0.00432464 0.0777453 -0.278548
15 1.167 0 0 -0.023351 0.0241548 -0.401015
16 2.18852 0.501041 0.0576601 1.57004 0.0330458 0.225874
17 1.29609 0 0 0.0245655 -0.0398781 -0.741083
18 1.62202 0.000715256 -0.000471115 0.00984859 -0.0234243 -0.831087
19 1.22241 0 0 0.00136072 0.00642036 -0.52186
20 1.76707 1.27612 0.0366411 1.57002 0.262026 0.261241
21 1.55587 0 0 -0.0308127 0.0106457 -0.943667
22 1.24274 0 0 -0.00058353 0.000138311 -0.446635
23 0.784523 0 0 0.0133278 0.00939348 -0.326309
24 -3.6471 7.74038 -3.8527 -0.000932693 0 -2.0944
25 6.02794 0 0 0.774048 0.905795 0.0484493
26 11.7344 0 0 0.00140281 0 1.53362
27 8.81167 0 0 0.155703 0 0
28 5.77884 0 0 0.104321 0 0
29 2.23249 0 0 0.0513821 0 0
30 11.4725 0 0 0.383302 -0.23367 -0.714931
31 0.615812 0.994373 -0.809166 -2.95367 0.480861 0.223812
32 2.24752 0 0 -0.083166 0.257048 0.264173
33 1.11936 0 0 0.106547 0.169507 0.93736
34 3.71349 0.102641 0.102191 -1.53196 0.903048 -0.384383
35 1.72615 0 0 -0.00479611 -0.00187107 1.31044
36 1.21112 0 0 0.00977506 0.0146796 1.18496
37 3.5992 1.06012 0.0708878 -1.55949 0.15616 0.0645016
38 1.66069 0 0 0.0444974 0.0639188 0.831692
39 1.16699 0 0 0.0223072 0.0093278 0.798134
40 2.18853 -0.50104 0.0576589 -1.57003 0.119427 -0.225808
41 1.29609 0 0 0.271417 0.0698929 0.770014
42 1.62202 -0.000713348 -0.000470161 -0.0323155 -0.0109793 1.4179
43 1.22241 0 0 -0.00658518 0.00177661 1.04424
44 1.76707 -1.27612 0.0366404 -1.44072 0.1345 -0.261341
45 1.55587 0 0 0.182858 0.0427366 0.752105
46 1.24273 0 0 0.000591788 0 0.838876
47 0.784532 0 0 -0.00599216 0.000868452 1.11469
48 0 0 0 0 0 0
49 -4.82809 -17.2798 -7.47293 0.000267062 -0.000273704 0
50 0 -1.70357 0.0050807 0 0 0
51 -0.00196028 3.96104 2.21118 0 0 0
52 0.641596 -0.666149 0.75166 0 0 0
53 0.714397 -3.45621 1.13628 0 0 0
54 -0.70623 -4.69238 1.98618 -3.14159 -0.0872664 3.14159
55 0.0133295 1.02904 3.61174 0 0 0
56 0.0133295 -4.73569 2.23877 0 0 0
57 -4.83449 -22.4862 -12.5873 0 0 0
58 0.0129194 0.0367718 6.63003 0 0 0
end
