//Sequence File generated by the Wall Worm SMD Exporter PRO 1.99
//www.wallworm.com
version 1
nodes
0 "b_l_clav" -1
1 "b_l_upperarm" 0
2 "b_l_forearm" 1
3 "b_l_twist3" 2
4 "b_l_twist2" 2
5 "b_l_twist1" 2
6 "b_l_hand" 2
7 "b_l_thumb001" 6
8 "b_l_thumb002" 7
9 "b_l_thumb003" 8
10 "b_l_middle001" 6
11 "b_l_middle002" 10
12 "b_l_middle003" 11
13 "b_l_index001" 6
14 "b_l_index002" 13
15 "b_l_index003" 14
16 "b_l_hand_ringsqueezer" 6
17 "b_l_ring001" 16
18 "b_l_ring002" 17
19 "b_l_ring003" 18
20 "b_l_hand_pinkysqueezer" 6
21 "b_l_pinky001" 20
22 "b_l_pinky002" 21
23 "b_l_pinky003" 22
24 "b_r_clav" -1
25 "b_r_upperarm" 24
26 "b_r_forearm" 25
27 "b_r_twist3" 26
28 "b_r_twist2" 26
29 "b_r_twist1" 26
30 "b_r_hand" 26
31 "b_r_thumb001" 30
32 "b_r_thumb002" 31
33 "b_r_thumb003" 32
34 "b_r_middle001" 30
35 "b_r_middle002" 34
36 "b_r_middle003" 35
37 "b_r_index001" 30
38 "b_r_index002" 37
39 "b_r_index003" 38
40 "b_r_hand_ringsqueezer" 30
41 "b_r_ring001" 40
42 "b_r_ring002" 41
43 "b_r_ring003" 42
44 "b_r_hand_pinkysqueezer" 30
45 "b_r_pinky001" 44
46 "b_r_pinky002" 45
47 "b_r_pinky003" 46
48 "b_zero" -1
49 "d_gun" -1
50 "d_trigger" 49
51 "d_stock" 49
52 "d_selector" 49
53 "d_paddle" 49
54 "d_dustcover" 49
55 "d_charger" 49
56 "d_bcg" 49
57 "d_mag" -1
58 "d_boolet" 57
end
skeleton
time 0
0 1.29637 -0.499222 -12.0785 0.000934124 0 -0.959925
1 6.02794 0 0 -0.820913 0.0100352 -0.736535
2 11.7344 0 0 -0.00140286 0 -0.637902
3 8.81139 -0.000448227 -0.00011158 -2.28642 0 0.000157369
4 5.77839 0.000286102 0 -1.5319 0 0
5 2.23163 -0.000328064 -0.00036335 -0.75452 0 0
6 11.4725 0 0 -2.28859 0.455474 0.20326
7 0.615219 -0.993091 -0.810699 2.33154 0.49143 -0.467307
8 2.24752 0 0 0.184051 -0.000815328 0.3514
9 1.11936 0 0 0.0719057 0.22699 0.00278388
10 3.71348 -0.102638 0.102191 1.55813 0.550067 0.0727845
11 1.72615 0 0 0.0130939 -0.0253457 -0.58864
12 1.21114 0 0 -0.00463512 0.0170162 -0.863412
13 3.59919 -1.06012 0.0708885 1.55942 0.195064 -0.0649502
14 1.66069 0 0 -0.00432464 0.0777453 -0.278548
15 1.167 0 0 -0.023351 0.0241548 -0.401015
16 2.18852 0.501041 0.0576601 1.57004 0.0330458 0.225874
17 1.29609 0 0 0.0245655 -0.0398781 -0.741083
18 1.62202 0.000715256 -0.000471115 0.00984859 -0.0234243 -0.831087
19 1.22241 0 0 0.00136072 0.00642036 -0.52186
20 1.76707 1.27612 0.0366411 1.57002 0.262026 0.261241
21 1.55587 0 0 -0.0308127 0.0106457 -0.943667
22 1.24274 0 0 -0.00058353 0.000138311 -0.446635
23 0.784523 0 0 0.0133278 0.00939348 -0.326309
24 -3.6471 7.74038 -3.8527 -0.000932693 0 -2.0944
25 6.02794 0 0 0.774048 0.905795 0.0484493
26 11.7344 0 0 0.00140281 0 1.53362
27 8.81167 0 0 0.155703 0 0
28 5.77884 0 0 0.104321 0 0
29 2.23249 0 0 0.0513821 0 0
30 11.4725 0 0 0.383302 -0.23367 -0.714931
31 0.615812 0.994373 -0.809166 -2.95367 0.480861 0.223812
32 2.24752 0 0 -0.083166 0.257048 0.264173
33 1.11936 0 0 0.106547 0.169507 0.93736
34 3.71349 0.102641 0.102191 -1.53196 0.903048 -0.384383
35 1.72615 0 0 -0.00479611 -0.00187107 1.31044
36 1.21112 0 0 0.00977506 0.0146796 1.18496
37 3.5992 1.06012 0.0708878 -1.55949 0.15616 0.0645016
38 1.66069 0 0 0.0444974 0.0639188 0.831692
39 1.16699 0 0 0.0223072 0.0093278 0.798134
40 2.18853 -0.50104 0.0576589 -1.57003 0.119427 -0.225808
41 1.29609 0 0 0.271417 0.0698929 0.770014
42 1.62202 -0.000713348 -0.000470161 -0.0323155 -0.0109793 1.4179
43 1.22241 0 0 -0.00658518 0.00177661 1.04424
44 1.76707 -1.27612 0.0366404 -1.44072 0.1345 -0.261341
45 1.55587 0 0 0.182858 0.0427366 0.752105
46 1.24273 0 0 0.000591788 0 0.838876
47 0.784532 0 0 -0.00599216 0.000868452 1.11469
48 0 0 0 0 0 0
49 -4.82809 -17.2798 -7.47293 0.000267062 -0.000273704 0
50 0 -1.70357 0.0050807 0 0 0
51 -0.00196028 3.96104 2.21118 0 0 0
52 0.641596 -0.666149 0.75166 0 0 0
53 0.714397 -3.45621 1.13628 0 0 0
54 -0.70623 -4.69238 1.98618 -3.14159 -0.0872664 3.14159
55 0.0133295 1.02904 3.61174 0 0 0
56 0.0133295 -4.73569 2.23877 0 0 0
57 -4.83449 -22.4862 -12.5873 0 0 0
58 0.0129194 0.0367718 6.63003 0 0 0
time 1
0 1.29637 -0.499222 -12.0785 0.000934124 0 -0.959925
1 6.02794 0 0 -0.819481 0.0559272 -0.696744
2 11.7344 0 0 -0.00140277 0 -0.786392
3 8.81138 -0.000450134 -0.000112534 -2.31438 0 0.000157457
4 5.77839 0.000284195 0 -1.55064 0 0
5 2.23163 -0.000331879 -0.000363827 -0.763746 0 0
6 11.4725 0 0 -2.28618 0.451475 0.289725
7 0.615219 -0.993091 -0.8107 2.33154 0.49143 -0.467307
8 2.24752 0 0 0.184051 -0.000815289 0.3514
9 1.11936 0 0 0.0719058 0.22699 0.00278408
10 3.71348 -0.102641 0.102192 1.55813 0.550067 0.0727846
11 1.72615 0 0 0.0130939 -0.0253459 -0.58864
12 1.21114 0 0 -0.00463509 0.0170163 -0.863412
13 3.59919 -1.06012 0.0708876 1.55942 0.195064 -0.0649501
14 1.66069 0 0 -0.00432463 0.0777452 -0.278549
15 1.167 0 0 -0.0233512 0.0241548 -0.401015
16 2.18853 0.501039 0.0576591 1.57004 0.0330458 0.225874
17 1.29609 0 0 0.0245655 -0.039878 -0.741083
18 1.62202 0.000713348 -0.000471115 0.00984861 -0.0234245 -0.831087
19 1.22241 0 0 0.00136078 0.00642025 -0.52186
20 1.76707 1.27612 0.0366411 1.57002 0.262026 0.261241
21 1.55588 0 0 -0.0308128 0.0106456 -0.943666
22 1.24274 0 0 -0.00058344 0.000138453 -0.446635
23 0.784523 0 0 0.0133279 0.00939327 -0.326309
24 -3.6471 7.74038 -3.8527 -0.000932693 0 -2.0944
25 6.02794 0 0 0.723231 0.939548 -0.00487557
26 11.7344 0 0 0.00140257 0 1.60946
27 8.81167 0 0 0.140399 0 0
28 5.77884 0 0 0.0940671 0 0
29 2.23249 0 0 0.0463315 0 0
30 11.4725 0 0 0.386532 -0.243317 -0.742078
31 0.615814 0.994372 -0.809165 -2.95367 0.480861 0.223812
32 2.24752 0 0 -0.0831662 0.257048 0.264172
33 1.11936 0 0 0.106547 0.169507 0.937361
34 3.71348 0.102639 0.102191 -1.53196 0.903047 -0.384383
35 1.72615 0 0 -0.0047962 -0.00187106 1.31044
36 1.21112 0 0 0.00977502 0.0146796 1.18496
37 3.5992 1.06012 0.070888 -1.55949 0.15616 0.0645017
38 1.66069 0 0 0.0572382 0.0528182 1.04924
39 1.16699 0 0 0.0226733 0.00409384 1.01553
40 2.18853 -0.50104 0.0576587 -1.57003 0.119427 -0.225808
41 1.29609 0 0 0.271416 0.0698928 0.770014
42 1.62202 -0.000713348 -0.000470161 -0.0323154 -0.0109794 1.4179
43 1.22241 0 0 -0.00658517 0.00177669 1.04424
44 1.76707 -1.27612 0.0366406 -1.44072 0.1345 -0.261341
45 1.55588 0 0 0.182858 0.0427367 0.752105
46 1.24273 0 0 0.000591967 0 0.838876
47 0.784532 0 0 -0.00599215 0.000868422 1.11469
48 0 0 0 0 0 0
49 -4.82668 -16.6206 -7.47292 -0.00303296 -0.000268353 0
50 0 -1.56487 0.00508118 0.174533 0 0
51 -0.0019598 3.96104 2.21118 0 0 0
52 0.641596 -0.666147 0.75166 0 0 0
53 0.714397 -3.45621 1.13628 0 0 0
54 -0.706229 -4.69238 1.98618 -3.14159 -0.0872664 3.14159
55 0.01333 1.02904 3.61174 0 0 0
56 0.01333 -2.98984 2.23877 0 0 0
57 -4.83313 -21.8438 -12.5701 -0.00330002 0 0
58 0.0128808 0.110157 6.55102 0.0398745 0 0
time 2
0 1.29637 -0.499222 -12.0785 0.000934124 0 -0.959925
1 6.02794 0 0 -0.817765 0.08369 -0.659116
2 11.7344 0 0 -0.00140284 0 -0.941634
3 8.81138 -0.000450134 -0.00011301 -2.33057 0 0.000157294
4 5.77839 0.000289917 0 -1.56148 0 0
5 2.23163 -0.000328064 -0.00036478 -0.769086 0 0
6 11.4725 0 0 -2.26965 0.433741 0.373059
7 0.615219 -0.993092 -0.8107 2.33154 0.49143 -0.467307
8 2.24752 0 0 0.184051 -0.00081531 0.3514
9 1.11936 0 0 0.0719057 0.22699 0.00278389
10 3.71348 -0.102642 0.102191 1.55813 0.550067 0.0727846
11 1.72615 0 0 0.0130938 -0.0253459 -0.58864
12 1.21114 0 0 -0.00463513 0.0170161 -0.863412
13 3.5992 -1.06012 0.0708876 1.55942 0.195064 -0.0649501
14 1.66069 0 0 -0.00432468 0.0777452 -0.278549
15 1.167 0 0 -0.023351 0.0241548 -0.401015
16 2.18853 0.501039 0.0576591 1.57004 0.0330458 0.225874
17 1.29609 0 0 0.0245654 -0.0398781 -0.741083
18 1.62202 0.000715256 -0.000471115 0.00984854 -0.0234243 -0.831087
19 1.22241 0 0 0.00136079 0.00642019 -0.52186
20 1.76707 1.27612 0.0366411 1.57002 0.262026 0.261241
21 1.55588 0 0 -0.0308126 0.0106455 -0.943666
22 1.24274 0 0 -0.000583543 0.000138369 -0.446635
23 0.784523 0 0 0.0133279 0.00939339 -0.326309
24 -3.6471 7.74038 -3.8527 -0.000932693 0 -2.0944
25 6.02794 0 0 0.636383 0.984944 -0.0899313
26 11.7344 0 0 0.00140278 0 1.69996
27 8.81167 0 0 0.125303 0 0
28 5.77884 0 0 0.0839534 0 0
29 2.23249 0 0 0.0413501 0 0
30 11.4725 0 0 0.388006 -0.281271 -0.726758
31 0.615813 0.994373 -0.809165 -2.95367 0.480861 0.223813
32 2.24752 0 0 -0.0831661 0.257048 0.264173
33 1.11936 0 0 0.106547 0.169507 0.937361
34 3.71348 0.102639 0.102191 -1.53196 0.903048 -0.384383
35 1.72615 0 0 -0.00479612 -0.00187112 1.31044
36 1.21112 0 0 0.0097751 0.0146796 1.18496
37 3.5992 1.06012 0.0708888 -1.55949 0.15616 0.0645017
38 1.66069 0 0 0.0572382 0.0528182 1.04924
39 1.16699 0 0 0.0226732 0.00409383 1.01553
40 2.18853 -0.50104 0.0576589 -1.57003 0.119427 -0.225808
41 1.29609 0 0 0.271416 0.069893 0.770014
42 1.62202 -0.000713348 -0.000470161 -0.0323155 -0.0109795 1.4179
43 1.22241 0 0 -0.00658511 0.00177673 1.04424
44 1.76707 -1.27612 0.0366406 -1.44072 0.1345 -0.261341
45 1.55587 0 0 0.182858 0.0427366 0.752105
46 1.24273 0 0 0.000591849 0 0.838876
47 0.784532 0 0 -0.00599212 0.000868453 1.11469
48 0 0 0 0 0 0
49 -4.82809 -15.7061 -7.47292 -0.0486115 -0.000258472 0
50 0 -1.56487 0.00508022 0.174533 0 0
51 -0.0019598 3.96104 2.21118 0 0 0
52 0.641596 -0.666149 0.75166 0 0 0
53 0.714398 -3.45621 1.13628 0 0 0
54 -0.70623 -4.69238 1.98618 -3.14159 -0.0872664 3.14159
55 0.01333 1.02904 3.61174 0 0 0
56 0.01333 -1.24399 2.23877 0 0 0
57 -4.8347 -21.1561 -12.3268 -0.0488786 0 0
58 0.0129194 0.0367718 6.63003 0 0 0
time 3
0 1.29637 -0.499222 -12.0785 0.000934124 0 -0.959925
1 6.02794 0 0 -0.815868 0.104367 -0.646142
2 11.7344 0 0 -0.00140287 0 -0.991445
3 8.81138 -0.000448227 -0.000112057 -2.35229 0 0.000157197
4 5.77839 0.00028801 0 -1.57604 0 0
5 2.23163 -0.000329971 -0.00036335 -0.776256 0 0
6 11.4725 0 0 -2.27419 0.433826 0.409442
7 0.615221 -0.993092 -0.8107 2.33154 0.49143 -0.467307
8 2.24752 0 0 0.184051 -0.000815405 0.3514
9 1.11936 0 0 0.0719058 0.22699 0.00278418
10 3.71348 -0.102641 0.102191 1.55813 0.550067 0.0727843
11 1.72615 0 0 0.0130938 -0.0253458 -0.58864
12 1.21114 0 0 -0.0046352 0.0170163 -0.863412
13 3.59919 -1.06012 0.0708885 1.55942 0.195064 -0.0649502
14 1.66069 0 0 -0.00432479 0.0777451 -0.278548
15 1.167 0 0 -0.023351 0.0241549 -0.401015
16 2.18853 0.501039 0.0576591 1.57004 0.0330458 0.225874
17 1.29609 0 0 0.0245656 -0.0398779 -0.741083
18 1.62202 0.000713348 -0.000473022 0.00984863 -0.0234245 -0.831087
19 1.22241 0 0 0.00136083 0.00642026 -0.52186
20 1.76707 1.27612 0.0366402 1.57002 0.262026 0.261241
21 1.55588 0 0 -0.0308128 0.0106456 -0.943666
22 1.24274 0 0 -0.000583472 0.000138324 -0.446635
23 0.784523 0 0 0.013328 0.00939327 -0.326309
24 -3.6471 7.74038 -3.8527 -0.000932693 0 -2.0944
25 6.02794 0 0 0.614495 0.995202 -0.115383
26 11.7344 0 0 0.00140263 0 1.7309
27 8.81167 0 0 0.118567 0 0
28 5.77884 0 0 0.0794398 0 0
29 2.23249 0 0 0.039127 0 0
30 11.4725 0 0 0.38755 -0.272353 -0.751203
31 0.615814 0.994373 -0.809165 -2.95367 0.480861 0.223813
32 2.24752 0 0 -0.0831661 0.257048 0.264173
33 1.11936 0 0 0.106547 0.169507 0.937361
34 3.71349 0.102641 0.102191 -1.53196 0.903048 -0.384383
35 1.72615 0 0 -0.00479619 -0.0018711 1.31044
36 1.21112 0 0 0.00977508 0.0146796 1.18496
37 3.5992 1.06012 0.0708885 -1.55949 0.15616 0.0645018
38 1.66069 0 0 0.0572382 0.0528182 1.04924
39 1.16699 0 0 0.0226733 0.0040938 1.01553
40 2.18853 -0.50104 0.0576594 -1.57003 0.119427 -0.225808
41 1.29609 0 0 0.271416 0.069893 0.770013
42 1.62202 -0.000713348 -0.000470161 -0.0323154 -0.0109793 1.4179
43 1.22241 0 0 -0.00658511 0.00177668 1.04424
44 1.76707 -1.27612 0.0366411 -1.44072 0.1345 -0.261341
45 1.55587 0 0 0.182858 0.0427366 0.752105
46 1.24273 0 0 0.000591833 0 0.838876
47 0.784531 0 0 -0.00599222 0.000868503 1.11469
48 0 0 0 0 0 0
49 -4.83932 -15.4507 -7.47291 -0.0346422 0.00149456 0.00353013
50 0 -1.56487 0.00508118 0.174533 0 0
51 -0.0019598 3.96104 2.21118 0 0 0
52 0.641596 -0.666148 0.75166 0 0 0
53 0.714397 -3.45621 1.13628 0 0 0
54 -0.706229 -4.69238 1.98618 -3.14159 -0.0872664 3.14159
55 0.0133305 1.02904 3.61174 0 0 0
56 0.01333 -2.55338 2.23877 0 0 0
57 -4.83527 -20.8324 -12.4025 -0.0349092 0.00176958 0.00356299
58 0.0131502 -0.403524 7.10409 -0.239247 0 0
time 4
0 1.29637 -0.499222 -12.0785 0.000934124 0 -0.959925
1 6.02794 0 0 -0.815141 0.110978 -0.649029
2 11.7344 0 0 -0.00140295 0 -0.977182
3 8.81139 -0.000448227 -0.000111103 -2.36006 0 0.000157532
4 5.77839 0.00028801 0 -1.58124 0 0
5 2.23164 -0.000328064 -0.000363827 -0.778821 0 0
6 11.4725 0 0 -2.28097 0.440659 0.409158
7 0.615221 -0.993091 -0.8107 2.33154 0.49143 -0.467307
8 2.24752 0 0 0.184051 -0.000815358 0.3514
9 1.11936 0 0 0.0719058 0.22699 0.0027841
10 3.71348 -0.10264 0.102191 1.55813 0.550067 0.0727845
11 1.72615 0 0 0.0130937 -0.0253459 -0.58864
12 1.21114 0 0 -0.00463501 0.0170164 -0.863412
13 3.59919 -1.06012 0.0708885 1.55942 0.195064 -0.0649502
14 1.66069 0 0 -0.00432479 0.0777451 -0.278549
15 1.167 0 0 -0.023351 0.0241549 -0.401015
16 2.18852 0.50104 0.0576601 1.57004 0.0330458 0.225873
17 1.29609 0 0 0.0245654 -0.0398779 -0.741083
18 1.62202 0.000713348 -0.000469208 0.00984869 -0.0234245 -0.831087
19 1.22241 0 0 0.00136066 0.00642046 -0.52186
20 1.76707 1.27612 0.0366411 1.57002 0.262026 0.261241
21 1.55588 0 0 -0.0308129 0.0106452 -0.943666
22 1.24274 0 0 -0.000583628 0.000138472 -0.446635
23 0.784523 0 0 0.013328 0.00939339 -0.326309
24 -3.6471 7.74038 -3.8527 -0.000932693 0 -2.0944
25 6.02794 0 0 0.632502 0.987949 -0.101569
26 11.7344 0 0 0.00140252 0 1.72223
27 8.81167 0 0 0.121304 0 0
28 5.77884 0 0 0.081274 0 0
29 2.23249 0 0 0.0400305 0 0
30 11.4725 0 0 0.388321 -0.252377 -0.773915
31 0.615814 0.994373 -0.809165 -2.95367 0.480861 0.223812
32 2.24752 0 0 -0.083166 0.257048 0.264172
33 1.11936 0 0 0.106547 0.169507 0.937361
34 3.71349 0.10264 0.10219 -1.53196 0.903048 -0.384383
35 1.72615 0 0 -0.00479616 -0.00187109 1.31044
36 1.21112 0 0 0.00977508 0.0146796 1.18496
37 3.5992 1.06012 0.0708885 -1.55949 0.15616 0.0645017
38 1.66069 0 0 0.0572382 0.0528182 1.04924
39 1.16699 0 0 0.0226732 0.00409377 1.01553
40 2.18853 -0.50104 0.0576591 -1.57003 0.119427 -0.225808
41 1.29609 0 0 0.271417 0.0698929 0.770014
42 1.62202 -0.000713348 -0.000471115 -0.0323156 -0.0109793 1.4179
43 1.22241 0 0 -0.00658512 0.00177667 1.04424
44 1.76707 -1.27612 0.0366406 -1.44072 0.1345 -0.261341
45 1.55588 0 0 0.182858 0.0427367 0.752106
46 1.24273 0 0 0.000591727 0 0.838875
47 0.784532 0 0 -0.00599214 0.000868376 1.11469
48 0 0 0 0 0 0
49 -4.85898 -15.5888 -7.4729 -0.0095599 0.000630623 0.00567488
50 0 -1.56487 0.00508118 0.174533 0 0
51 -0.00195932 3.96104 2.21118 0 0 0
52 0.641596 -0.666147 0.751661 0 0 0
53 0.714397 -3.45621 1.13628 0 0 0
54 -0.70623 -4.69238 1.98618 -3.14159 -0.0872664 -3.14159
55 0.01333 1.02904 3.61174 0 0 0
56 0.0133295 -4.73568 2.23877 0 0 0
57 -4.83992 -20.8451 -12.5359 -0.00982693 0.000904732 0.00571463
58 0.0133295 -2.20708 7.34991 0 0 0
time 5
0 1.29637 -0.499222 -12.0785 0.000934124 0 -0.959925
1 6.02794 0 0 -0.815644 0.105934 -0.661939
2 11.7344 0 0 -0.00140289 0 -0.924189
3 8.81138 -0.000448227 -0.00011158 -2.35734 0 0.000157588
4 5.77839 0.000286102 0 -1.57942 0 0
5 2.23163 -0.000329971 -0.000364304 -0.777921 0 0
6 11.4725 0 0 -2.28877 0.448946 0.384214
7 0.615223 -0.993092 -0.8107 2.33154 0.49143 -0.467307
8 2.24752 0 0 0.184051 -0.000815354 0.3514
9 1.11936 0 0 0.0719058 0.22699 0.00278397
10 3.71348 -0.102641 0.102191 1.55813 0.550067 0.0727843
11 1.72615 0 0 0.0130938 -0.0253458 -0.58864
12 1.21114 0 0 -0.00463504 0.0170164 -0.863412
13 3.5992 -1.06012 0.0708885 1.55942 0.195064 -0.0649501
14 1.66069 0 0 -0.00432485 0.0777451 -0.278548
15 1.167 0 0 -0.0233511 0.0241549 -0.401015
16 2.18853 0.50104 0.0576591 1.57004 0.0330458 0.225874
17 1.29609 0 0 0.0245653 -0.0398781 -0.741083
18 1.62202 0.000713348 -0.000471115 0.00984853 -0.0234245 -0.831087
19 1.22241 0 0 0.00136079 0.00642044 -0.52186
20 1.76707 1.27612 0.0366411 1.57002 0.262026 0.261241
21 1.55588 0 0 -0.0308128 0.0106455 -0.943666
22 1.24273 0 0 -0.000583498 0.00013844 -0.446635
23 0.784523 0 0 0.0133277 0.00939353 -0.326309
24 -3.6471 7.74038 -3.8527 -0.000932693 0 -2.0944
25 6.02794 0 0 0.669794 0.970748 -0.0679681
26 11.7344 0 0 0.00140278 0 1.68983
27 8.81167 0 0 0.128239 0 0
28 5.77884 0 0 0.0859201 0 0
29 2.23249 0 0 0.0423188 0 0
30 11.4725 0 0 0.387242 -0.230619 -0.788098
31 0.615813 0.994373 -0.809165 -2.95367 0.480861 0.223812
32 2.24752 0 0 -0.0831659 0.257048 0.264173
33 1.11936 0 0 0.106547 0.169508 0.93736
34 3.71349 0.102639 0.102191 -1.53196 0.903047 -0.384383
35 1.72615 0 0 -0.00479619 -0.0018711 1.31044
36 1.21112 0 0 0.00977509 0.0146796 1.18496
37 3.5992 1.06012 0.070889 -1.55949 0.15616 0.0645016
38 1.66069 0 0 0.0572382 0.0528182 1.04923
39 1.16699 0 0 0.0226733 0.00409381 1.01553
40 2.18853 -0.50104 0.0576591 -1.57003 0.119427 -0.225808
41 1.29609 0 0 0.271417 0.0698929 0.770014
42 1.62202 -0.000715256 -0.000469685 -0.0323156 -0.0109794 1.4179
43 1.22241 0 0 -0.00658514 0.00177677 1.04424
44 1.76707 -1.27612 0.0366411 -1.44072 0.1345 -0.261341
45 1.55588 0 0 0.182858 0.0427367 0.752105
46 1.24273 0 0 0.000591989 0 0.838875
47 0.784532 0 0 -0.00599211 0.000868454 1.11469
48 0 0 0 0 0 0
49 -4.88287 -15.9446 -7.47288 0.0156146 0 0.0066567
50 0 -1.56487 0.0050807 0.174533 0 0
51 -0.0019598 3.96104 2.21118 0 0 0
52 0.641596 -0.666147 0.75166 0 0 0
53 0.714397 -3.45621 1.13628 0 0 0
54 -0.706229 -4.69238 1.98618 -3.14159 -0.0872663 3.14159
55 0.0133305 1.02904 3.61174 0 0 0
56 0.01333 -4.73569 2.23877 0 0 0
57 -4.85638 -21.0718 -12.6666 0.0153476 0.000284816 0.00670333
58 0.013329 -2.20708 7.34991 0 0 0
time 6
0 1.29637 -0.499222 -12.0785 0.000934124 0 -0.959925
1 6.02794 0 0 -0.817128 0.0899034 -0.68046
2 11.7344 0 0 -0.00140289 0 -0.854016
3 8.81138 -0.000450134 -0.000112057 -2.34845 0 0.000157282
4 5.77839 0.000286102 0 -1.57346 0 0
5 2.23164 -0.000328064 -0.000363827 -0.774988 0 0
6 11.4725 0 0 -2.29732 0.45144 0.342104
7 0.615221 -0.993091 -0.8107 2.33154 0.49143 -0.467307
8 2.24752 0 0 0.184051 -0.000815367 0.3514
9 1.11936 0 0 0.0719057 0.22699 0.00278384
10 3.71348 -0.102641 0.102191 1.55813 0.550067 0.0727845
11 1.72615 0 0 0.0130937 -0.0253461 -0.58864
12 1.21114 0 0 -0.00463504 0.0170165 -0.863412
13 3.5992 -1.06012 0.0708876 1.55942 0.195064 -0.0649503
14 1.66069 0 0 -0.00432477 0.0777453 -0.278549
15 1.167 0 0 -0.023351 0.0241548 -0.401015
16 2.18853 0.50104 0.0576591 1.57004 0.0330459 0.225874
17 1.29609 0 0 0.0245656 -0.039878 -0.741083
18 1.62202 0.000713348 -0.000471115 0.0098486 -0.0234246 -0.831087
19 1.22241 0 0 0.00136074 0.00642049 -0.52186
20 1.76707 1.27612 0.0366411 1.57002 0.262026 0.261241
21 1.55588 0 0 -0.0308126 0.0106456 -0.943666
22 1.24273 0 0 -0.000583556 0.000138427 -0.446635
23 0.784523 0 0 0.013328 0.00939334 -0.326309
24 -3.6471 7.74038 -3.8527 -0.000932693 0 -2.0944
25 6.02794 0 0 0.706433 0.95147 -0.0331805
26 11.7344 0 0 0.00140277 0 1.6486
27 8.81167 0 0 0.132261 0 0
28 5.77884 0 0 0.0886152 0 0
29 2.23249 0 0 0.0436463 0 0
30 11.4725 0 0 0.380388 -0.218694 -0.784165
31 0.615813 0.994373 -0.809165 -2.95367 0.480861 0.223813
32 2.24752 0 0 -0.0831661 0.257048 0.264173
33 1.11936 0 0 0.106547 0.169507 0.93736
34 3.71349 0.10264 0.102191 -1.53196 0.903047 -0.384383
35 1.72615 0 0 -0.00479618 -0.00187099 1.31044
36 1.21112 0 0 0.00977503 0.0146795 1.18496
37 3.5992 1.06012 0.0708885 -1.55949 0.15616 0.0645017
38 1.66069 0 0 0.0554121 0.0547312 1.01526
39 1.16699 0 0 0.0227595 0.00495238 0.98156
40 2.18853 -0.50104 0.0576594 -1.57003 0.119427 -0.225808
41 1.29609 0 0 0.271417 0.0698929 0.770014
42 1.62202 -0.000713348 -0.000468731 -0.0323156 -0.0109794 1.4179
43 1.22241 0 0 -0.00658512 0.00177679 1.04424
44 1.76707 -1.27612 0.0366406 -1.44072 0.1345 -0.261341
45 1.55588 0 0 0.182858 0.0427367 0.752105
46 1.24273 0 0 0.000591956 0 0.838876
47 0.784532 0 0 -0.00599222 0.000868516 1.11469
48 0 0 0 0 0 0
49 -4.9068 -16.3425 -7.47286 0.0271661 0.00444658 0.00617108
50 0 -1.58655 0.00508022 0.147262 0 0
51 -0.0019598 3.96104 2.21118 0 0 0
52 0.641596 -0.666147 0.75166 0 0 0
53 0.714398 -3.45621 1.13628 0 0 0
54 -0.70623 -4.69238 1.98618 3.14159 -0.0872664 -3.14159
55 0.01333 1.02904 3.61174 0 0 0
56 0.01333 -4.73569 2.23877 0 0 0
57 -4.90646 -21.4096 -12.7254 0.0268993 0.00471904 0.00622086
58 0.013329 -2.20708 7.34991 0 0 0
time 7
0 1.29637 -0.499222 -12.0785 0.000934124 0 -0.959925
1 6.02794 0 0 -0.818304 0.0747272 -0.696058
2 11.7344 0 0 -0.0014029 0 -0.799994
3 8.81139 -0.000448227 -0.00011158 -2.34364 0 0.000157485
4 5.77839 0.000286102 0 -1.57024 0 0
5 2.23164 -0.000328064 -0.000363827 -0.7734 0 0
6 11.4725 0 0 -2.3065 0.44882 0.304541
7 0.615217 -0.993092 -0.810701 2.33154 0.49143 -0.467307
8 2.24752 0 0 0.184051 -0.000815397 0.3514
9 1.11936 0 0 0.0719058 0.22699 0.00278407
10 3.71348 -0.102641 0.102191 1.55813 0.550067 0.0727846
11 1.72615 0 0 0.0130939 -0.025346 -0.58864
12 1.21114 0 0 -0.00463522 0.0170164 -0.863412
13 3.59919 -1.06012 0.0708876 1.55942 0.195064 -0.0649502
14 1.66069 0 0 -0.0043246 0.0777454 -0.278549
15 1.167 0 0 -0.0233511 0.0241547 -0.401015
16 2.18852 0.50104 0.0576591 1.57004 0.0330458 0.225874
17 1.29609 0 0 0.0245653 -0.0398782 -0.741083
18 1.62202 0.000713348 -0.000473022 0.00984856 -0.0234244 -0.831087
19 1.22241 0 0 0.00136076 0.00642055 -0.52186
20 1.76707 1.27612 0.0366402 1.57002 0.262026 0.261241
21 1.55588 0 0 -0.0308128 0.0106457 -0.943666
22 1.24273 0 0 -0.000583517 0.000138252 -0.446636
23 0.784524 0 0 0.0133278 0.00939337 -0.326309
24 -3.6471 7.74038 -3.8527 -0.000932693 0 -2.0944
25 6.02794 0 0 0.728728 0.938514 -0.0115625
26 11.7344 0 0 0.00140268 0 1.61951
27 8.81167 0 0 0.129405 0 0
28 5.77884 0 0 0.0867015 0 0
29 2.23249 0 0 0.0427038 0 0
30 11.4725 0 0 0.370451 -0.216715 -0.774814
31 0.615812 0.994373 -0.809165 -2.95367 0.480861 0.223813
32 2.24752 0 0 -0.083166 0.257048 0.264173
33 1.11936 0 0 0.106547 0.169507 0.937361
34 3.71348 0.10264 0.102191 -1.53196 0.903047 -0.384383
35 1.72615 0 0 -0.00479611 -0.0018711 1.31044
36 1.21112 0 0 0.00977509 0.0146796 1.18496
37 3.5992 1.06012 0.0708883 -1.55949 0.15616 0.0645017
38 1.66069 0 0 0.0511715 0.0587147 0.940499
39 1.16699 0 0 0.0227603 0.00679486 0.906832
40 2.18853 -0.50104 0.0576589 -1.57003 0.119427 -0.225808
41 1.29609 0 0 0.271417 0.069893 0.770014
42 1.62202 -0.000713348 -0.000468731 -0.0323155 -0.0109793 1.4179
43 1.22241 0 0 -0.00658514 0.00177677 1.04424
44 1.76707 -1.27612 0.0366399 -1.44072 0.1345 -0.261341
45 1.55588 0 0 0.182858 0.0427366 0.752106
46 1.24273 0 0 0.000591846 0 0.838876
47 0.784532 0 0 -0.0059921 0.00086843 1.11469
48 0 0 0 0 0 0
49 -4.92658 -16.6069 -7.47285 0.0287682 0.0129809 0.00412648
50 0 -1.63422 0.00508022 0.0872664 0 0
51 -0.00196028 3.96104 2.21118 0 0 0
52 0.641596 -0.666147 0.75166 0 0 0
53 0.714397 -3.45621 1.13628 0 0 0
54 -0.70623 -4.69238 1.98618 3.14159 -0.0872664 -3.14159
55 0.0133295 1.02904 3.61174 0 0 0
56 0.0133295 -4.73568 2.23877 0 0 0
57 -4.98157 -21.6657 -12.733 0.0285018 0.0132533 0.0041767
58 0.013329 -2.20708 7.34991 0 0 0
time 8
0 1.29637 -0.499222 -12.0785 0.000934124 0 -0.959925
1 6.02794 0 0 -0.819006 0.0639655 -0.706589
2 11.7344 0 0 -0.00140291 0 -0.767943
3 8.81139 -0.000450134 -0.000112057 -2.34297 0 0.000156641
4 5.77839 0.000284195 0 -1.56979 0 0
5 2.23164 -0.000329971 -0.000363827 -0.773181 0 0
6 11.4725 0 0 -2.31461 0.443264 0.277975
7 0.615217 -0.993091 -0.8107 2.33154 0.49143 -0.467307
8 2.24752 0 0 0.184051 -0.000815434 0.3514
9 1.11935 0 0 0.0719059 0.22699 0.00278412
10 3.71348 -0.10264 0.102191 1.55813 0.550067 0.0727846
11 1.72615 0 0 0.0130939 -0.0253459 -0.58864
12 1.21114 0 0 -0.0046352 0.0170164 -0.863412
13 3.59919 -1.06012 0.0708885 1.55942 0.195064 -0.0649502
14 1.66068 0 0 -0.00432464 0.0777453 -0.278548
15 1.167 0 0 -0.023351 0.0241549 -0.401015
16 2.18852 0.501041 0.0576601 1.57004 0.0330459 0.225874
17 1.29609 0 0 0.0245652 -0.0398781 -0.741083
18 1.62202 0.000713348 -0.000473022 0.00984867 -0.0234242 -0.831087
19 1.22241 0 0 0.00136055 0.0064205 -0.52186
20 1.76707 1.27612 0.0366411 1.57002 0.262026 0.261241
21 1.55588 0 0 -0.0308127 0.0106456 -0.943666
22 1.24273 0 0 -0.000583543 0.000138369 -0.446635
23 0.784523 0 0 0.013328 0.00939333 -0.326309
24 -3.6471 7.74038 -3.8527 -0.000932693 0 -2.0944
25 6.02794 0 0 0.738763 0.93242 -0.00207719
26 11.7344 0 0 0.00140267 0 1.60435
27 8.81167 0 0 0.12261 0 0
28 5.77884 0 0 0.0821487 0 0
29 2.23249 0 0 0.0404614 0 0
30 11.4725 0 0 0.360087 -0.220475 -0.76476
31 0.615814 0.994373 -0.809165 -2.95367 0.480861 0.223813
32 2.24752 0 0 -0.083166 0.257048 0.264173
33 1.11936 0 0 0.106547 0.169507 0.937361
34 3.71349 0.10264 0.102191 -1.53196 0.903047 -0.384383
35 1.72615 0 0 -0.00479611 -0.00187112 1.31044
36 1.21112 0 0 0.00977515 0.0146795 1.18496
37 3.5992 1.06012 0.0708888 -1.55949 0.15616 0.0645018
38 1.66069 0 0 0.0466437 0.0623708 0.865702
39 1.16699 0 0 0.0225056 0.00855782 0.832103
40 2.18853 -0.501041 0.0576587 -1.57003 0.119427 -0.225808
41 1.29609 0 0 0.271416 0.0698928 0.770014
42 1.62202 -0.000713348 -0.000470161 -0.0323155 -0.0109795 1.4179
43 1.22241 0 0 -0.00658504 0.00177669 1.04424
44 1.76707 -1.27612 0.0366404 -1.44072 0.1345 -0.261341
45 1.55587 0 0 0.182858 0.0427366 0.752105
46 1.24273 0 0 0.00059197 0 0.838876
47 0.784531 0 0 -0.00599215 0.000868494 1.11469
48 0 0 0 0 0 0
49 -4.94657 -16.7358 -7.47282 0.0244627 0.0226953 0.00139158
50 0 -1.6819 0.0050807 0.0272709 0 0
51 -0.0019598 3.96104 2.21118 0 0 0
52 0.641596 -0.666149 0.75166 0 0 0
53 0.714398 -3.45621 1.13628 0 0 0
54 -0.706229 -4.69238 1.98618 3.14159 -0.0872664 3.14159
55 0.01333 1.02904 3.61174 0 0 0
56 0.01333 -4.73569 2.23877 0 0 0
57 -5.06596 -21.8171 -12.7102 0.0241967 0.0229679 0.00144064
58 0.0133295 -2.20708 7.34991 0 0 0
time 9
0 1.29637 -0.499222 -12.0785 0.000934124 0 -0.959925
1 6.02794 0 0 -0.819615 0.0527779 -0.716694
2 11.7344 0 0 -0.00140295 0 -0.737765
3 8.81139 -0.000448227 -0.000112057 -2.34082 0 0.000157221
4 5.77839 0.00028801 0 -1.56835 0 0
5 2.23164 -0.000328064 -0.000364304 -0.772469 0 0
6 11.4725 0 0 -2.32032 0.437817 0.253418
7 0.615221 -0.993092 -0.8107 2.33154 0.49143 -0.467307
8 2.24752 0 0 0.184051 -0.000815423 0.3514
9 1.11936 0 0 0.0719058 0.22699 0.00278413
10 3.71348 -0.10264 0.102191 1.55813 0.550067 0.0727846
11 1.72615 0 0 0.0130938 -0.0253458 -0.58864
12 1.21114 0 0 -0.00463502 0.0170162 -0.863412
13 3.59919 -1.06012 0.0708876 1.55942 0.195064 -0.0649503
14 1.66069 0 0 -0.00432487 0.0777452 -0.278549
15 1.167 0 0 -0.0233509 0.024155 -0.401015
16 2.18853 0.50104 0.0576591 1.57004 0.0330459 0.225874
17 1.29609 0 0 0.0245656 -0.039878 -0.741083
18 1.62202 0.000713348 -0.000473022 0.00984849 -0.0234247 -0.831087
19 1.22241 0 0 0.00136068 0.00642047 -0.52186
20 1.76707 1.27612 0.0366411 1.57002 0.262026 0.261241
21 1.55588 0 0 -0.0308128 0.0106455 -0.943666
22 1.24274 0 0 -0.00058366 0.000138342 -0.446636
23 0.784523 0 0 0.013328 0.0093934 -0.326309
24 -3.6471 7.74038 -3.8527 -0.000932693 0 -2.0944
25 6.02794 0 0 0.746772 0.927426 0.00542817
26 11.7344 0 0 0.00140271 0 1.59098
27 8.81167 0 0 0.117333 0 0
28 5.77884 0 0 0.0786131 0 0
29 2.23249 0 0 0.0387199 0 0
30 11.4725 0 0 0.351387 -0.224907 -0.753174
31 0.615811 0.994373 -0.809165 -2.95367 0.480861 0.223812
32 2.24752 0 0 -0.083166 0.257048 0.264172
33 1.11936 0 0 0.106547 0.169507 0.93736
34 3.71349 0.10264 0.102191 -1.53196 0.903048 -0.384383
35 1.72615 0 0 -0.00479619 -0.00187102 1.31044
36 1.21112 0 0 0.00977503 0.0146795 1.18496
37 3.5992 1.06012 0.0708878 -1.55949 0.15616 0.0645016
38 1.66069 0 0 0.0444974 0.0639187 0.831692
39 1.16699 0 0 0.0223072 0.00932779 0.798134
40 2.18853 -0.50104 0.0576587 -1.57003 0.119427 -0.225808
41 1.29609 0 0 0.271416 0.0698929 0.770013
42 1.62202 -0.000713348 -0.000470638 -0.0323154 -0.0109794 1.4179
43 1.22241 0 0 -0.00658514 0.00177675 1.04424
44 1.76707 -1.27612 0.0366406 -1.44072 0.1345 -0.261341
45 1.55588 0 0 0.182858 0.0427367 0.752106
46 1.24273 0 0 0.000591873 0 0.838876
47 0.784531 0 0 -0.00599215 0.000868304 1.11469
48 0 0 0 0 0 0
49 -4.9681 -16.8469 -7.4728 0.0182913 0.03067 -0.00116492
50 0 -1.70357 0.00508118 0 0 0
51 -0.00196028 3.96104 2.21118 0 0 0
52 0.641597 -0.666147 0.75166 0 0 0
53 0.714397 -3.45621 1.13628 0 0 0
54 -0.70623 -4.69238 1.98618 -3.14159 -0.0872664 3.14159
55 0.01333 1.02904 3.61174 0 0 0
56 0.01333 -4.73568 2.23877 0 0 0
57 -5.14132 -21.96 -12.6775 0.0180257 0.0309429 -0.00111753
58 0.0133295 -2.20708 7.34991 0 0 0
time 10
0 1.29637 -0.499222 -12.0785 0.000934124 0 -0.959925
1 6.02794 0 0 -0.820039 0.0432859 -0.724894
2 11.7344 0 0 -0.00140287 0 -0.711921
3 8.81138 -0.000452042 -0.00011301 -2.33679 0 0.000157708
4 5.77839 0.000286102 0 -1.56565 0 0
5 2.23163 -0.000331879 -0.000364304 -0.771139 0 0
6 11.4725 0 0 -2.32233 0.435359 0.235052
7 0.615221 -0.993091 -0.8107 2.33154 0.49143 -0.467307
8 2.24752 0 0 0.184051 -0.000815412 0.3514
9 1.11936 0 0 0.0719057 0.22699 0.00278406
10 3.71348 -0.102641 0.102191 1.55813 0.550067 0.0727845
11 1.72615 0 0 0.0130937 -0.0253458 -0.58864
12 1.21114 0 0 -0.00463509 0.0170163 -0.863412
13 3.59919 -1.06012 0.0708876 1.55942 0.195064 -0.0649503
14 1.66069 0 0 -0.00432468 0.0777452 -0.278548
15 1.167 0 0 -0.0233511 0.0241549 -0.401015
16 2.18852 0.50104 0.0576582 1.57004 0.0330458 0.225874
17 1.29609 0 0 0.0245656 -0.0398779 -0.741083
18 1.62202 0.000715256 -0.000473022 0.00984877 -0.0234245 -0.831087
19 1.22241 0 0 0.00136063 0.00642033 -0.52186
20 1.76707 1.27612 0.0366402 1.57002 0.262026 0.261241
21 1.55588 0 0 -0.0308128 0.0106456 -0.943666
22 1.24274 0 0 -0.000583512 0.000138498 -0.446635
23 0.784523 0 0 0.0133279 0.0093935 -0.326309
24 -3.6471 7.74038 -3.8527 -0.000932693 0 -2.0944
25 6.02794 0 0 0.753842 0.922833 0.0124224
26 11.7344 0 0 0.00140267 0 1.57906
27 8.81167 0 0 0.116333 0 0
28 5.77884 0 0 0.0779434 0 0
29 2.23249 0 0 0.03839 0 0
30 11.4725 0 0 0.347445 -0.227098 -0.744249
31 0.615812 0.994373 -0.809165 -2.95367 0.480861 0.223813
32 2.24752 0 0 -0.0831659 0.257048 0.264173
33 1.11936 0 0 0.106547 0.169507 0.937361
34 3.71348 0.10264 0.102191 -1.53196 0.903048 -0.384383
35 1.72615 0 0 -0.00479615 -0.00187115 1.31044
36 1.21112 0 0 0.00977508 0.0146796 1.18496
37 3.5992 1.06012 0.0708885 -1.55949 0.15616 0.0645017
38 1.66069 0 0 0.0444974 0.0639187 0.831692
39 1.16699 0 0 0.0223071 0.00932779 0.798134
40 2.18853 -0.50104 0.0576594 -1.57003 0.119427 -0.225808
41 1.29609 0 0 0.271417 0.0698929 0.770013
42 1.62202 -0.000713348 -0.000469685 -0.0323155 -0.0109794 1.4179
43 1.22241 0 0 -0.00658513 0.0017768 1.04424
44 1.76707 -1.27612 0.0366406 -1.44072 0.1345 -0.261341
45 1.55588 0 0 0.182858 0.0427366 0.752105
46 1.24273 0 0 0.000591853 0 0.838876
47 0.784532 0 0 -0.00599209 0.00086836 1.11469
48 0 0 0 0 0 0
49 -4.98248 -16.9442 -7.47278 0.014296 0.0339854 -0.00267435
50 0 -1.70357 0.0050807 0 0 0
51 -0.0019598 3.96104 2.21118 0 0 0
52 0.641596 -0.666145 0.75166 0 0 0
53 0.714397 -3.45621 1.13628 0 0 0
54 -0.70623 -4.69238 1.98618 -3.14159 -0.0872663 -3.14159
55 0.01333 1.02904 3.61174 0 0 0
56 0.01333 -4.73569 2.23877 0 0 0
57 -5.18003 -22.0778 -12.6565 0.0140305 0.0342585 -0.00262805
58 0.013329 -2.20708 7.34991 0 0 0
time 11
0 1.29637 -0.499222 -12.0785 0.000934124 0 -0.959925
1 6.02794 0 0 -0.820335 0.0351075 -0.730739
2 11.7344 0 0 -0.00140281 0 -0.690239
3 8.81138 -0.000448227 -0.000112534 -2.32911 0 0.000156105
4 5.77839 0.000286102 0 -1.56051 0 0
5 2.23164 -0.000328064 -0.000364304 -0.768607 0 0
6 11.4725 0 0 -2.31924 0.436867 0.223227
7 0.615215 -0.99309 -0.8107 2.33154 0.49143 -0.467307
8 2.24752 0 0 0.184051 -0.00081549 0.3514
9 1.11936 0 0 0.0719057 0.22699 0.00278388
10 3.71348 -0.10264 0.10219 1.55813 0.550067 0.0727845
11 1.72615 0 0 0.0130937 -0.025346 -0.58864
12 1.21114 0 0 -0.00463517 0.0170163 -0.863412
13 3.59919 -1.06012 0.0708876 1.55942 0.195064 -0.0649501
14 1.66069 0 0 -0.00432463 0.0777452 -0.278548
15 1.167 0 0 -0.023351 0.0241548 -0.401015
16 2.18852 0.50104 0.0576591 1.57004 0.0330459 0.225874
17 1.2961 0 0 0.0245654 -0.039878 -0.741083
18 1.62202 0.000715256 -0.000471115 0.00984863 -0.0234245 -0.831087
19 1.22241 0 0 0.00136081 0.00642057 -0.52186
20 1.76707 1.27612 0.0366402 1.57002 0.262026 0.261241
21 1.55588 0 0 -0.0308127 0.0106456 -0.943666
22 1.24274 0 0 -0.000583601 0.000138355 -0.446636
23 0.784523 0 0 0.0133279 0.00939345 -0.326309
24 -3.6471 7.74038 -3.8527 -0.000932693 0 -2.0944
25 6.02794 0 0 0.759957 0.918545 0.0195888
26 11.7344 0 0 0.00140265 0 1.56819
27 8.81167 0 0 0.121018 0 0
28 5.77884 0 0 0.0810823 0 0
29 2.23249 0 0 0.0399361 0 0
30 11.4725 0 0 0.349975 -0.22741 -0.73766
31 0.615812 0.994373 -0.809165 -2.95367 0.480861 0.223812
32 2.24752 0 0 -0.0831659 0.257048 0.264173
33 1.11936 0 0 0.106547 0.169507 0.93736
34 3.71348 0.10264 0.102191 -1.53196 0.903047 -0.384383
35 1.72615 0 0 -0.00479626 -0.00187108 1.31044
36 1.21112 0 0 0.00977507 0.0146796 1.18496
37 3.5992 1.06012 0.0708888 -1.55949 0.156159 0.0645016
38 1.66069 0 0 0.0444974 0.0639188 0.831692
39 1.16699 0 0 0.0223072 0.00932781 0.798134
40 2.18853 -0.501041 0.0576591 -1.57003 0.119427 -0.225808
41 1.29609 0 0 0.271417 0.0698929 0.770014
42 1.62202 -0.000713348 -0.000469685 -0.0323155 -0.0109795 1.4179
43 1.22241 0 0 -0.00658512 0.00177677 1.04424
44 1.76707 -1.27612 0.0366409 -1.44072 0.1345 -0.261341
45 1.55588 0 0 0.182858 0.0427366 0.752105
46 1.24273 0 0 0.000591931 0 0.838875
47 0.784531 0 0 -0.00599212 0.000868488 1.11469
48 0 0 0 0 0 0
49 -4.981 -17.0319 -7.47275 0.0120629 0.0311206 -0.00292177
50 0 -1.70357 0.00508118 0 0 0
51 -0.0019598 3.96104 2.21118 0 0 0
52 0.641596 -0.666147 0.751661 0 0 0
53 0.714397 -3.45621 1.13628 0 0 0
54 -0.70623 -4.69238 1.98618 3.14159 -0.0872663 -3.14159
55 0.0133305 1.02904 3.61174 0 0 0
56 0.01333 -4.73568 2.23877 0 0 0
57 -5.16464 -22.1771 -12.6455 0.0117973 0.0313938 -0.00287608
58 0.013329 -2.20708 7.34991 0 0 0
time 12
0 1.29637 -0.499222 -12.0785 0.000934124 0 -0.959925
1 6.02794 0 0 -0.820564 0.0271365 -0.734239
2 11.7344 0 0 -0.00140289 0 -0.67188
3 8.81138 -0.000450134 -0.000112534 -2.31803 0 0.000157251
4 5.77839 0.000286102 0 -1.55308 0 0
5 2.23163 -0.000329971 -0.000364304 -0.764951 0 0
6 11.4725 0 0 -2.31216 0.44091 0.214933
7 0.615223 -0.993091 -0.8107 2.33154 0.49143 -0.467307
8 2.24752 0 0 0.184051 -0.000815347 0.3514
9 1.11936 0 0 0.0719057 0.22699 0.00278412
10 3.71348 -0.102639 0.102191 1.55813 0.550067 0.0727844
11 1.72615 0 0 0.0130936 -0.025346 -0.58864
12 1.21114 0 0 -0.00463499 0.0170163 -0.863412
13 3.59919 -1.06012 0.0708876 1.55942 0.195064 -0.0649501
14 1.66068 0 0 -0.00432469 0.0777452 -0.278549
15 1.167 0 0 -0.023351 0.0241549 -0.401015
16 2.18853 0.50104 0.0576591 1.57004 0.0330459 0.225874
17 1.29609 0 0 0.0245655 -0.0398781 -0.741083
18 1.62202 0.000711441 -0.000471115 0.00984859 -0.0234243 -0.831087
19 1.22241 0 0 0.00136079 0.00642044 -0.52186
20 1.76707 1.27612 0.0366402 1.57002 0.262026 0.261241
21 1.55588 0 0 -0.0308127 0.0106456 -0.943666
22 1.24274 0 0 -0.000583446 0.000138208 -0.446635
23 0.784524 0 0 0.0133279 0.00939356 -0.326309
24 -3.6471 7.74038 -3.8527 -0.000932693 0 -2.0944
25 6.02794 0 0 0.764941 0.914548 0.02757
26 11.7344 0 0 0.00140267 0 1.55755
27 8.81167 0 0 0.12942 0 0
28 5.77884 0 0 0.0867117 0 0
29 2.23249 0 0 0.0427089 0 0
30 11.4725 0 0 0.357246 -0.228564 -0.730669
31 0.615813 0.994373 -0.809165 -2.95367 0.480861 0.223812
32 2.24752 0 0 -0.0831661 0.257048 0.264172
33 1.11936 0 0 0.106547 0.169507 0.937361
34 3.71349 0.102639 0.10219 -1.53196 0.903047 -0.384383
35 1.72615 0 0 -0.00479611 -0.00187109 1.31044
36 1.21112 0 0 0.00977507 0.0146797 1.18496
37 3.5992 1.06012 0.070888 -1.55949 0.15616 0.0645017
38 1.66069 0 0 0.0444974 0.0639187 0.831692
39 1.16699 0 0 0.0223071 0.00932777 0.798134
40 2.18853 -0.50104 0.0576591 -1.57003 0.119427 -0.225808
41 1.29609 0 0 0.271417 0.069893 0.770014
42 1.62202 -0.000713348 -0.000469685 -0.0323154 -0.0109794 1.4179
43 1.22241 0 0 -0.00658519 0.0017769 1.04424
44 1.76707 -1.27612 0.0366406 -1.44072 0.1345 -0.261341
45 1.55587 0 0 0.182858 0.0427366 0.752105
46 1.24273 0 0 0.000591889 0 0.838876
47 0.784531 0 0 -0.00599212 0.000868406 1.11469
48 0 0 0 0 0 0
49 -4.95468 -17.1121 -7.47273 0.00889759 0.0240219 -0.00248629
50 0 -1.70357 0.0050807 0 0 0
51 -0.0019598 3.96104 2.21118 0 0 0
52 0.641596 -0.666149 0.75166 0 0 0
53 0.714398 -3.45621 1.13628 0 0 0
54 -0.70623 -4.69238 1.98618 -3.14159 -0.0872664 3.14159
55 0.0133305 1.02904 3.61174 0 0 0
56 0.01333 -4.73569 2.23877 0 0 0
57 -5.09901 -22.2738 -12.6302 0.00863162 0.0242952 -0.00244148
58 0.0133295 -2.20708 7.34991 0 0 0
time 13
0 1.29637 -0.499222 -12.0785 0.000934124 0 -0.959925
1 6.02794 0 0 -0.820731 0.0199675 -0.735812
2 11.7344 0 0 -0.00140282 0 -0.657088
3 8.81139 -0.000448227 -0.00011158 -2.30578 0 0.000157321
4 5.77839 0.000286102 0 -1.54487 0 0
5 2.23164 -0.000328064 -0.000364304 -0.760906 0 0
6 11.4725 0 0 -2.30333 0.446283 0.209285
7 0.615219 -0.99309 -0.810699 2.33154 0.49143 -0.467307
8 2.24752 0 0 0.184051 -0.000815358 0.3514
9 1.11936 0 0 0.0719057 0.22699 0.00278423
10 3.71348 -0.102641 0.102192 1.55813 0.550067 0.0727847
11 1.72615 0 0 0.0130936 -0.0253461 -0.58864
12 1.21114 0 0 -0.00463511 0.0170164 -0.863412
13 3.59919 -1.06012 0.0708885 1.55942 0.195064 -0.0649501
14 1.66069 0 0 -0.00432484 0.077745 -0.278548
15 1.167 0 0 -0.0233511 0.0241549 -0.401015
16 2.18852 0.50104 0.0576601 1.57004 0.0330459 0.225874
17 1.29609 0 0 0.0245656 -0.0398781 -0.741083
18 1.62202 0.000713348 -0.000471115 0.00984852 -0.0234246 -0.831087
19 1.22241 0 0 0.0013606 0.00642045 -0.52186
20 1.76707 1.27612 0.0366411 1.57002 0.262025 0.261241
21 1.55587 0 0 -0.0308127 0.0106457 -0.943666
22 1.24274 0 0 -0.000583485 0.000138382 -0.446636
23 0.784523 0 0 0.0133279 0.00939338 -0.326309
24 -3.6471 7.74038 -3.8527 -0.000932693 0 -2.0944
25 6.02794 0 0 0.76889 0.910946 0.0358014
26 11.7344 0 0 0.00140262 0 1.54773
27 8.81167 0 0 0.139325 0 0
28 5.77884 0 0 0.0933479 0 0
29 2.23249 0 0 0.0459773 0 0
30 11.4725 0 0 0.366877 -0.230456 -0.724118
31 0.615812 0.994373 -0.809166 -2.95367 0.480861 0.223812
32 2.24752 0 0 -0.0831661 0.257048 0.264173
33 1.11936 0 0 0.106547 0.169507 0.937361
34 3.71348 0.10264 0.10219 -1.53196 0.903047 -0.384383
35 1.72615 0 0 -0.00479625 -0.00187102 1.31044
36 1.21112 0 0 0.00977503 0.0146796 1.18496
37 3.5992 1.06012 0.070888 -1.55949 0.156159 0.0645016
38 1.66069 0 0 0.0444974 0.0639187 0.831692
39 1.16699 0 0 0.0223072 0.00932776 0.798133
40 2.18853 -0.501041 0.0576584 -1.57003 0.119427 -0.225808
41 1.29609 0 0 0.271417 0.0698929 0.770014
42 1.62202 -0.000711441 -0.000469685 -0.0323156 -0.0109795 1.4179
43 1.22241 0 0 -0.00658506 0.00177668 1.04424
44 1.76707 -1.27612 0.0366404 -1.44072 0.1345 -0.261341
45 1.55588 0 0 0.182858 0.0427366 0.752105
46 1.24273 0 0 0.000591974 0 0.838876
47 0.784531 0 0 -0.00599228 0.000868468 1.11469
48 0 0 0 0 0 0
49 -4.91039 -17.1824 -7.47271 0.0054206 0.0149709 -0.00169034
50 0 -1.70357 0.0050807 0 0 0
51 -0.0019598 3.96104 2.21118 0 0 0
52 0.641596 -0.666147 0.75166 0 0 0
53 0.714397 -3.45621 1.13628 0 0 0
54 -0.70623 -4.69238 1.98618 -3.14159 -0.0872664 -3.14159
55 0.01333 1.02904 3.61174 0 0 0
56 0.0133305 -4.73568 2.23877 0 0 0
57 -5.00368 -22.3622 -12.6132 0.00515421 0.0152444 -0.00164649
58 0.0133295 -2.20708 7.34991 0 0 0
time 14
0 1.29637 -0.499222 -12.0785 0.000934124 0 -0.959925
1 6.02794 0 0 -0.820845 0.0140415 -0.736373
2 11.7344 0 0 -0.00140295 0 -0.645652
3 8.81139 -0.000450134 -0.000112534 -2.29454 0 0.000157231
4 5.77839 0.000286102 0 -1.53734 0 0
5 2.23164 -0.000329971 -0.000363827 -0.7572 0 0
6 11.4725 0 0 -2.29488 0.451545 0.205437
7 0.615221 -0.993089 -0.8107 2.33154 0.49143 -0.467307
8 2.24752 0 0 0.184051 -0.000815412 0.3514
9 1.11936 0 0 0.0719058 0.22699 0.00278407
10 3.71348 -0.10264 0.102191 1.55813 0.550067 0.0727846
11 1.72614 0 0 0.0130937 -0.0253461 -0.58864
12 1.21114 0 0 -0.00463506 0.0170165 -0.863412
13 3.59919 -1.06012 0.0708885 1.55942 0.195064 -0.0649503
14 1.66069 0 0 -0.00432479 0.0777451 -0.278548
15 1.167 0 0 -0.0233512 0.0241548 -0.401015
16 2.18853 0.50104 0.0576591 1.57004 0.0330458 0.225873
17 1.29609 0 0 0.0245655 -0.0398779 -0.741083
18 1.62202 0.000715256 -0.000473022 0.00984863 -0.0234247 -0.831087
19 1.22241 0 0 0.00136055 0.00642062 -0.52186
20 1.76707 1.27612 0.0366411 1.57002 0.262026 0.261241
21 1.55587 0 0 -0.0308127 0.0106457 -0.943666
22 1.24274 0 0 -0.000583575 0.000138239 -0.446635
23 0.784524 0 0 0.0133279 0.00939345 -0.326309
24 -3.6471 7.74038 -3.8527 -0.000932693 0 -2.0944
25 6.02794 0 0 0.771903 0.907951 0.0431603
26 11.7344 0 0 0.00140271 0 1.53948
27 8.81167 0 0 0.14864 0 0
28 5.77884 0 0 0.0995887 0 0
29 2.23249 0 0 0.0490511 0 0
30 11.4725 0 0 0.376297 -0.232511 -0.718622
31 0.615813 0.994372 -0.809165 -2.95367 0.480861 0.223813
32 2.24752 0 0 -0.083166 0.257048 0.264173
33 1.11936 0 0 0.106547 0.169507 0.937361
34 3.71349 0.10264 0.102191 -1.53196 0.903048 -0.384383
35 1.72615 0 0 -0.00479616 -0.00187108 1.31044
36 1.21112 0 0 0.00977502 0.0146797 1.18496
37 3.5992 1.06012 0.070888 -1.55949 0.15616 0.0645017
38 1.66069 0 0 0.0444974 0.0639187 0.831692
39 1.16699 0 0 0.0223071 0.0093278 0.798134
40 2.18853 -0.50104 0.0576591 -1.57003 0.119427 -0.225808
41 1.29609 0 0 0.271417 0.069893 0.770014
42 1.62202 -0.000713348 -0.000470161 -0.0323154 -0.0109794 1.4179
43 1.22241 0 0 -0.00658512 0.00177693 1.04424
44 1.76707 -1.27612 0.0366406 -1.44072 0.1345 -0.261341
45 1.55588 0 0 0.182858 0.0427366 0.752105
46 1.24273 0 0 0.000591988 0 0.838875
47 0.784532 0 0 -0.0059922 0.000868571 1.11469
48 0 0 0 0 0 0
49 -4.86317 -17.2394 -7.47269 0.00225252 0.00624908 -0.000856317
50 0 -1.70357 0.00508118 0 0 0
51 -0.0019598 3.96104 2.21118 0 0 0
52 0.641596 -0.666149 0.75166 0 0 0
53 0.714398 -3.4562 1.13628 0 0 0
54 -0.706229 -4.69238 1.98618 -3.14159 -0.0872664 3.14159
55 0.0133305 1.02904 3.61174 0 0 0
56 0.01333 -4.73569 2.23877 0 0 0
57 -4.90722 -22.4356 -12.5973 0.00198574 0.0065227 -0.000813335
58 0.01333 -2.20708 7.34991 0 0 0
time 15
0 1.29637 -0.499222 -12.0785 0.000934124 0 -0.959925
1 6.02794 0 0 -0.820915 0.00980785 -0.736779
2 11.7344 0 0 -0.00140287 0 -0.637408
3 8.81138 -0.000450134 -0.000112057 -2.28662 0 0.000156752
4 5.77839 0.000286102 0 -1.53203 0 0
5 2.23164 -0.000328064 -0.00036335 -0.754584 0 0
6 11.4725 0 0 -2.28896 0.455286 0.202535
7 0.615219 -0.993089 -0.8107 2.33154 0.49143 -0.467307
8 2.24752 0 0 0.184051 -0.000815351 0.3514
9 1.11936 0 0 0.0719057 0.22699 0.00278409
10 3.71348 -0.10264 0.102191 1.55813 0.550067 0.0727846
11 1.72615 0 0 0.0130938 -0.025346 -0.58864
12 1.21114 0 0 -0.00463522 0.0170164 -0.863412
13 3.59919 -1.06012 0.0708885 1.55942 0.195064 -0.0649501
14 1.66069 0 0 -0.0043248 0.0777451 -0.278548
15 1.167 0 0 -0.023351 0.0241548 -0.401015
16 2.18853 0.50104 0.0576591 1.57004 0.0330459 0.225874
17 1.29609 0 0 0.0245654 -0.0398781 -0.741083
18 1.62202 0.000711441 -0.000471115 0.00984866 -0.0234245 -0.831087
19 1.22241 0 0 0.00136082 0.00642045 -0.52186
20 1.76707 1.27612 0.0366411 1.57002 0.262026 0.261241
21 1.55588 0 0 -0.0308128 0.0106453 -0.943666
22 1.24273 0 0 -0.000583557 0.000138427 -0.446636
23 0.784523 0 0 0.0133279 0.00939344 -0.326309
24 -3.6471 7.74038 -3.8527 -0.000932693 0 -2.0944
25 6.02794 0 0 0.774048 0.905786 0.048498
26 11.7344 0 0 0.00140264 0 1.53357
27 8.81167 0 0 0.155178 0 0
28 5.77884 0 0 0.103969 0 0
29 2.23249 0 0 0.0512088 0 0
30 11.4725 0 0 0.382945 -0.23412 -0.714792
31 0.615812 0.994372 -0.809165 -2.95367 0.480861 0.223812
32 2.24752 0 0 -0.0831661 0.257048 0.264172
33 1.11936 0 0 0.106547 0.169507 0.93736
34 3.71349 0.102639 0.102191 -1.53196 0.903047 -0.384383
35 1.72615 0 0 -0.0047961 -0.00187111 1.31044
36 1.21112 0 0 0.00977504 0.0146796 1.18496
37 3.5992 1.06012 0.0708878 -1.55949 0.15616 0.0645016
38 1.66069 0 0 0.0444974 0.0639187 0.831692
39 1.16699 0 0 0.0223072 0.00932781 0.798134
40 2.18853 -0.50104 0.0576591 -1.57003 0.119427 -0.225808
41 1.29609 0 0 0.271417 0.0698929 0.770014
42 1.62202 -0.000715256 -0.000469208 -0.0323154 -0.0109793 1.4179
43 1.22241 0 0 -0.00658516 0.00177683 1.04424
44 1.76707 -1.27612 0.0366406 -1.44072 0.1345 -0.261341
45 1.55588 0 0 0.182858 0.0427366 0.752105
46 1.24273 0 0 0.00059189 0 0.838876
47 0.784532 0 0 -0.00599213 0.000868412 1.11469
48 0 0 0 0 0 0
49 -4.82809 -17.2801 -7.47268 0 0.000137978 -0.000306641
50 0 -1.70357 0.00508022 0 0 0
51 -0.0019598 3.96104 2.21118 0 0 0
52 0.641597 -0.666149 0.75166 0 0 0
53 0.714398 -3.45621 1.13628 0 0 0
54 -0.706229 -4.69238 1.98618 -3.14159 -0.0872664 3.14159
55 0.0133305 1.02904 3.61174 0 0 0
56 0.0133305 -4.73569 2.23877 0 0 0
57 -4.83797 -22.4878 -12.5858 -0.000253135 0.000411693 -0.000264271
58 0.0129194 0.0367718 6.63003 0 0 0
time 16
0 1.29637 -0.499222 -12.0785 0.000934124 0 -0.959925
1 6.02794 0 0 -0.820943 0.00804504 -0.736716
2 11.7344 0 0 -0.00140292 0 -0.634312
3 8.81138 -0.000452042 -0.000112534 -2.28285 0 0.000156826
4 5.77839 0.000286102 0 -1.52951 0 0
5 2.23163 -0.000329971 -0.000364304 -0.753342 0 0
6 11.4725 0 0 -2.28601 0.457167 0.201679
7 0.615219 -0.993091 -0.810701 2.33154 0.49143 -0.467307
8 2.24752 0 0 0.184051 -0.000815341 0.3514
9 1.11936 0 0 0.0719058 0.22699 0.00278404
10 3.71348 -0.102639 0.10219 1.55813 0.550067 0.0727845
11 1.72615 0 0 0.0130938 -0.0253458 -0.58864
12 1.21114 0 0 -0.00463515 0.0170163 -0.863412
13 3.59919 -1.06012 0.0708876 1.55942 0.195064 -0.0649502
14 1.66069 0 0 -0.0043248 0.0777451 -0.278549
15 1.167 0 0 -0.0233512 0.0241546 -0.401015
16 2.18852 0.50104 0.0576591 1.57004 0.0330458 0.225874
17 1.29609 0 0 0.0245654 -0.0398782 -0.741083
18 1.62202 0.000715256 -0.000471115 0.00984869 -0.0234244 -0.831087
19 1.22241 0 0 0.0013607 0.00642041 -0.52186
20 1.76707 1.27612 0.0366402 1.57002 0.262026 0.261241
21 1.55588 0 0 -0.0308126 0.0106458 -0.943666
22 1.24273 0 0 -0.000583504 0.000138194 -0.446636
23 0.784523 0 0 0.013328 0.00939363 -0.326309
24 -3.6471 7.74038 -3.8527 -0.000932693 0 -2.0944
25 6.02794 0 0 0.774809 0.904923 0.0508474
26 11.7344 0 0 0.00140277 0 1.53114
27 8.81167 0 0 0.158328 0 0
28 5.77884 0 0 0.106079 0 0
29 2.23249 0 0 0.0522481 0 0
30 11.4725 0 0 0.386306 -0.234997 -0.713182
31 0.615813 0.994373 -0.809165 -2.95367 0.480861 0.223813
32 2.24752 0 0 -0.0831661 0.257048 0.264173
33 1.11936 0 0 0.106547 0.169507 0.937361
34 3.71349 0.10264 0.102191 -1.53196 0.903047 -0.384383
35 1.72615 0 0 -0.0047962 -0.00187105 1.31044
36 1.21112 0 0 0.00977513 0.0146796 1.18496
37 3.5992 1.06012 0.0708888 -1.55949 0.15616 0.0645018
38 1.66069 0 0 0.0444974 0.0639188 0.831692
39 1.16699 0 0 0.0223071 0.00932779 0.798134
40 2.18853 -0.50104 0.0576591 -1.57003 0.119427 -0.225808
41 1.29609 0 0 0.271417 0.069893 0.770014
42 1.62202 -0.000713348 -0.000470161 -0.0323155 -0.0109794 1.4179
43 1.22241 0 0 -0.00658517 0.00177687 1.04424
44 1.76707 -1.27612 0.0366411 -1.44072 0.1345 -0.261341
45 1.55587 0 0 0.182858 0.0427366 0.752105
46 1.24273 0 0 0.000591944 0 0.838876
47 0.784531 0 0 -0.00599218 0.000868475 1.11469
48 0 0 0 0 0 0
49 -4.81038 -17.2961 -7.47268 -0.00105048 -0.00291722 0
50 0 -1.70357 0.0050807 0 0 0
51 -0.00196028 3.96104 2.21118 0 0 0
52 0.641596 -0.666149 0.75166 0 0 0
53 0.714397 -3.45621 1.13628 0 0 0
54 -0.70623 -4.69238 1.98618 3.14159 -0.0872663 -3.14159
55 0.01333 1.02904 3.61174 0 0 0
56 0.0133295 -4.73569 2.23877 0 0 0
57 -4.8034 -22.5092 -12.5802 -0.00131765 -0.00264346 0
58 0.0129194 0.0367718 6.63003 0 0 0
time 17
0 1.29637 -0.499222 -12.0785 0.000934124 0 -0.959925
1 6.02794 0 0 -0.820944 0.00854485 -0.735699
2 11.7344 0 0 -0.00140293 0 -0.636639
3 8.81139 -0.000450134 -0.000113487 -2.28193 0 0.000157511
4 5.77839 0.000286102 0 -1.52889 0 0
5 2.23164 -0.000329971 -0.000364304 -0.753035 0 0
6 11.4725 0 0 -2.28472 0.457989 0.203584
7 0.615219 -0.993091 -0.8107 2.33154 0.49143 -0.467307
8 2.24752 0 0 0.184051 -0.000815306 0.3514
9 1.11936 0 0 0.0719058 0.22699 0.00278399
10 3.71348 -0.10264 0.102191 1.55813 0.550067 0.0727844
11 1.72615 0 0 0.0130938 -0.0253458 -0.58864
12 1.21114 0 0 -0.00463515 0.0170162 -0.863412
13 3.5992 -1.06012 0.0708885 1.55942 0.195064 -0.0649502
14 1.66069 0 0 -0.00432484 0.0777454 -0.278549
15 1.167 0 0 -0.0233509 0.0241548 -0.401015
16 2.18853 0.501039 0.0576601 1.57004 0.0330459 0.225874
17 1.29609 0 0 0.0245654 -0.0398781 -0.741083
18 1.62202 0.000713348 -0.000471115 0.00984872 -0.0234244 -0.831087
19 1.22241 0 0 0.00136073 0.0064203 -0.52186
20 1.76707 1.27612 0.0366411 1.57002 0.262026 0.261241
21 1.55588 0 0 -0.0308126 0.0106456 -0.943666
22 1.24274 0 0 -0.000583588 0.000138297 -0.446635
23 0.784523 0 0 0.013328 0.00939352 -0.326309
24 -3.6471 7.74038 -3.8527 -0.000932693 0 -2.0944
25 6.02794 0 0 0.774041 0.905359 0.0506384
26 11.7344 0 0 0.00140277 0 1.532
27 8.81167 0 0 0.15936 0 0
28 5.77884 0 0 0.106772 0 0
29 2.23249 0 0 0.052589 0 0
30 11.4725 0 0 0.387883 -0.235361 -0.713501
31 0.615813 0.994373 -0.809165 -2.95367 0.480861 0.223812
32 2.24752 0 0 -0.083166 0.257048 0.264172
33 1.11936 0 0 0.106547 0.169507 0.937361
34 3.71349 0.102639 0.102191 -1.53196 0.903048 -0.384383
35 1.72615 0 0 -0.00479609 -0.00187116 1.31044
36 1.21112 0 0 0.00977503 0.0146796 1.18496
37 3.5992 1.06012 0.070888 -1.55949 0.15616 0.0645016
38 1.66069 0 0 0.0444974 0.0639187 0.831692
39 1.16699 0 0 0.0223071 0.0093278 0.798134
40 2.18853 -0.501041 0.0576591 -1.57003 0.119427 -0.225808
41 1.29609 0 0 0.271417 0.069893 0.770014
42 1.62202 -0.000711441 -0.000470161 -0.0323155 -0.0109794 1.4179
43 1.22241 0 0 -0.00658517 0.00177684 1.04424
44 1.76707 -1.27612 0.0366406 -1.44072 0.1345 -0.261341
45 1.55588 0 0 0.182858 0.0427367 0.752105
46 1.24273 0 0 0.000591887 0 0.838876
47 0.784531 0 0 -0.00599212 0.000868556 1.11469
48 0 0 0 0 0 0
49 -4.80305 -17.2875 -7.47269 -0.00127277 -0.00428915 0
50 0 -1.70356 0.00508118 0 0 0
51 -0.0019598 3.96104 2.21118 0 0 0
52 0.641596 -0.666147 0.75166 0 0 0
53 0.714397 -3.45621 1.13628 0 0 0
54 -0.706229 -4.69238 1.98618 -3.14159 -0.0872663 3.14159
55 0.01333 1.02904 3.61174 0 0 0
56 0.0133305 -4.73568 2.23877 0 0 0
57 -4.78836 -22.5017 -12.579 -0.00154 -0.00401538 0.000111599
58 0.0129194 0.0367699 6.63003 0 0 0
time 18
0 1.29637 -0.499222 -12.0785 0.000934124 0 -0.959925
1 6.02794 0 0 -0.82092 0.0108559 -0.733792
2 11.7344 0 0 -0.0014029 0 -0.643318
3 8.81139 -0.000450134 -0.000111103 -2.28313 0 0.000157823
4 5.77839 0.000284195 0 -1.5297 0 0
5 2.23164 -0.000329971 -0.00036335 -0.753434 0 0
6 11.4725 0 0 -2.28466 0.458055 0.207625
7 0.615217 -0.99309 -0.810699 2.33154 0.49143 -0.467307
8 2.24752 0 0 0.184051 -0.000815405 0.3514
9 1.11936 0 0 0.0719058 0.22699 0.00278399
10 3.71348 -0.102641 0.102191 1.55813 0.550067 0.0727845
11 1.72615 0 0 0.0130937 -0.0253458 -0.58864
12 1.21114 0 0 -0.00463501 0.0170164 -0.863412
13 3.59919 -1.06012 0.0708885 1.55942 0.195064 -0.0649501
14 1.66069 0 0 -0.00432463 0.0777452 -0.278548
15 1.167 0 0 -0.0233511 0.0241547 -0.401015
16 2.18852 0.50104 0.0576591 1.57004 0.0330458 0.225874
17 1.29609 0 0 0.0245656 -0.0398779 -0.741083
18 1.62202 0.000711441 -0.000471115 0.00984866 -0.0234245 -0.831087
19 1.22241 0 0 0.0013607 0.00642041 -0.52186
20 1.76707 1.27612 0.0366411 1.57002 0.262026 0.261241
21 1.55588 0 0 -0.0308127 0.0106457 -0.943666
22 1.24274 0 0 -0.000583472 0.000138324 -0.446635
23 0.784524 0 0 0.0133279 0.00939339 -0.326309
24 -3.6471 7.74038 -3.8527 -0.000932693 0 -2.0944
25 6.02794 0 0 0.772336 0.906599 0.0487897
26 11.7344 0 0 0.00140272 0 1.53493
27 8.81167 0 0 0.158886 0 0
28 5.77884 0 0 0.106453 0 0
29 2.23249 0 0 0.0524323 0 0
30 11.4725 0 0 0.388146 -0.235358 -0.715094
31 0.615813 0.994373 -0.809165 -2.95367 0.480861 0.223812
32 2.24752 0 0 -0.083166 0.257048 0.264172
33 1.11936 0 0 0.106547 0.169507 0.937361
34 3.71348 0.102639 0.102191 -1.53196 0.903047 -0.384383
35 1.72615 0 0 -0.00479609 -0.0018711 1.31044
36 1.21112 0 0 0.00977509 0.0146796 1.18496
37 3.5992 1.06012 0.0708885 -1.55949 0.15616 0.0645017
38 1.66069 0 0 0.0444974 0.0639187 0.831692
39 1.16699 0 0 0.0223071 0.00932778 0.798134
40 2.18853 -0.501041 0.0576594 -1.57003 0.119427 -0.225808
41 1.29609 0 0 0.271416 0.0698929 0.770013
42 1.62202 -0.000713348 -0.000469208 -0.0323155 -0.0109794 1.4179
43 1.22241 0 0 -0.00658514 0.0017768 1.04424
44 1.76707 -1.27612 0.0366409 -1.44072 0.1345 -0.261341
45 1.55588 0 0 0.182858 0.0427366 0.752105
46 1.24273 0 0 0.000591913 0 0.838875
47 0.784532 0 0 -0.00599212 0.000868484 1.11469
48 0 0 0 0 0 0
49 -4.80284 -17.2635 -7.4727 -0.000897726 -0.00442298 0.000128076
50 0 -1.70357 0.0050807 0 0 0
51 -0.00195885 3.96104 2.21118 0 0 0
52 0.641596 -0.666147 0.75166 0 0 0
53 0.714398 -3.45621 1.13628 0 0 0
54 -0.70623 -4.69238 1.98618 -3.14159 -0.0872664 3.14159
55 0.0133305 1.02904 3.61174 0 0 0
56 0.01333 -4.73569 2.23877 0 0 0
57 -4.78715 -22.4758 -12.581 -0.00116496 -0.00414923 0.000170196
58 0.0129194 0.0367718 6.63003 0 0 0
time 19
0 1.29637 -0.499222 -12.0785 0.000934124 0 -0.959925
1 6.02794 0 0 -0.820883 0.0136715 -0.73186
2 11.7344 0 0 -0.00140293 0 -0.650909
3 8.81138 -0.000448227 -0.000112057 -2.28539 0 0.000156711
4 5.77839 0.00028801 0 -1.53121 0 0
5 2.23164 -0.000328064 -0.000364304 -0.754179 0 0
6 11.4725 0 0 -2.28539 0.457667 0.211983
7 0.615219 -0.993092 -0.8107 2.33154 0.49143 -0.467307
8 2.24752 0 0 0.184051 -0.000815475 0.3514
9 1.11936 0 0 0.0719056 0.22699 0.00278416
10 3.71348 -0.10264 0.10219 1.55813 0.550067 0.0727846
11 1.72615 0 0 0.0130936 -0.0253459 -0.58864
12 1.21114 0 0 -0.0046352 0.0170163 -0.863412
13 3.59919 -1.06012 0.0708876 1.55942 0.195064 -0.0649503
14 1.66069 0 0 -0.00432464 0.0777453 -0.278549
15 1.167 0 0 -0.0233511 0.0241547 -0.401015
16 2.18853 0.50104 0.0576591 1.57004 0.0330459 0.225874
17 1.29609 0 0 0.0245654 -0.0398781 -0.741083
18 1.62202 0.000713348 -0.000469208 0.00984874 -0.0234245 -0.831087
19 1.22241 0 0 0.00136062 0.00642027 -0.52186
20 1.76707 1.27612 0.0366402 1.57002 0.262026 0.261241
21 1.55588 0 0 -0.0308127 0.0106455 -0.943666
22 1.24274 0 0 -0.000583485 0.000138382 -0.446635
23 0.784523 0 0 0.0133281 0.00939341 -0.326309
24 -3.6471 7.74038 -3.8527 -0.000932693 0 -2.0944
25 6.02794 0 0 0.770289 0.908149 0.0462196
26 11.7344 0 0 0.00140272 0 1.53873
27 8.81167 0 0 0.157525 0 0
28 5.77884 0 0 0.105541 0 0
29 2.23249 0 0 0.0519832 0 0
30 11.4725 0 0 0.387564 -0.235136 -0.7173
31 0.615813 0.994373 -0.809165 -2.95367 0.480861 0.223813
32 2.24752 0 0 -0.083166 0.257048 0.264172
33 1.11936 0 0 0.106547 0.169507 0.937361
34 3.71349 0.10264 0.102191 -1.53196 0.903048 -0.384383
35 1.72615 0 0 -0.00479611 -0.00187101 1.31044
36 1.21112 0 0 0.00977501 0.0146797 1.18496
37 3.5992 1.06012 0.0708885 -1.55949 0.15616 0.0645019
38 1.66069 0 0 0.0444974 0.0639187 0.831692
39 1.16699 0 0 0.0223071 0.0093278 0.798134
40 2.18853 -0.501041 0.0576591 -1.57003 0.119428 -0.225808
41 1.29609 0 0 0.271417 0.0698929 0.770013
42 1.62202 -0.000711441 -0.000470161 -0.0323155 -0.0109795 1.4179
43 1.22241 0 0 -0.00658512 0.00177681 1.04424
44 1.76707 -1.27612 0.0366406 -1.44072 0.1345 -0.261341
45 1.55587 0 0 0.182858 0.0427366 0.752105
46 1.24273 0 0 0.000591967 0 0.838876
47 0.784532 0 0 -0.00599209 0.00086848 1.11469
48 0 0 0 0 0 0
49 -4.80648 -17.2335 -7.47271 -0.000170086 -0.0037639 0.000134174
50 0 -1.70357 0.00508118 0 0 0
51 -0.0019598 3.96104 2.21118 0 0 0
52 0.641596 -0.666147 0.75166 0 0 0
53 0.714397 -3.45621 1.13628 0 0 0
54 -0.706229 -4.69238 1.98618 -3.14159 -0.0872664 -3.14159
55 0.01333 1.02904 3.61174 0 0 0
56 0.0133295 -4.73568 2.23877 0 0 0
57 -4.79411 -22.4421 -12.5848 -0.000437296 -0.00349017 0.000176493
58 0.0129194 0.0367718 6.63003 0 0 0
time 20
0 1.29637 -0.499222 -12.0785 0.000934124 0 -0.959925
1 6.02794 0 0 -0.82084 0.0162864 -0.730206
2 11.7344 0 0 -0.00140286 0 -0.657633
3 8.81139 -0.000452042 -0.000112057 -2.28787 0 0.000157266
4 5.77839 0.000286102 0 -1.53287 0 0
5 2.23164 -0.000329971 -0.000363827 -0.754997 0 0
6 11.4725 0 0 -2.28649 0.457128 0.215674
7 0.615219 -0.993091 -0.8107 2.33154 0.49143 -0.467307
8 2.24752 0 0 0.184051 -0.000815366 0.3514
9 1.11936 0 0 0.0719059 0.22699 0.00278407
10 3.71348 -0.10264 0.102191 1.55813 0.550067 0.0727843
11 1.72615 0 0 0.0130939 -0.0253458 -0.58864
12 1.21114 0 0 -0.00463509 0.0170163 -0.863412
13 3.59919 -1.06012 0.0708885 1.55942 0.195064 -0.0649504
14 1.66069 0 0 -0.00432475 0.0777452 -0.278549
15 1.167 0 0 -0.0233512 0.0241549 -0.401015
16 2.18852 0.501039 0.0576591 1.57004 0.0330458 0.225873
17 1.29609 0 0 0.0245656 -0.0398779 -0.741083
18 1.62202 0.000713348 -0.000473022 0.00984859 -0.0234244 -0.831087
19 1.22241 0 0 0.00136079 0.00642044 -0.52186
20 1.76707 1.27612 0.0366411 1.57002 0.262026 0.261241
21 1.55587 0 0 -0.0308127 0.0106455 -0.943666
22 1.24274 0 0 -0.00058353 0.000138311 -0.446635
23 0.784523 0 0 0.0133278 0.00939348 -0.326309
24 -3.6471 7.74038 -3.8527 -0.000932693 0 -2.0944
25 6.02794 0 0 0.768506 0.909515 0.0438573
26 11.7344 0 0 0.00140271 0 1.54219
27 8.81167 0 0 0.155897 0 0
28 5.77884 0 0 0.104451 0 0
29 2.23249 0 0 0.0514461 0 0
30 11.4725 0 0 0.386608 -0.234841 -0.719464
31 0.615812 0.994372 -0.809165 -2.95367 0.480861 0.223813
32 2.24752 0 0 -0.0831659 0.257048 0.264173
33 1.11936 0 0 0.106547 0.169507 0.937361
34 3.71349 0.102639 0.102191 -1.53196 0.903048 -0.384383
35 1.72615 0 0 -0.00479611 -0.00187116 1.31044
36 1.21112 0 0 0.00977502 0.0146797 1.18496
37 3.5992 1.06012 0.0708885 -1.55949 0.15616 0.0645018
38 1.66069 0 0 0.0444974 0.0639187 0.831692
39 1.16699 0 0 0.0223071 0.00932774 0.798134
40 2.18853 -0.501041 0.0576596 -1.57003 0.119427 -0.225808
41 1.29609 0 0 0.271416 0.0698929 0.770014
42 1.62202 -0.000715256 -0.000470161 -0.0323155 -0.0109795 1.4179
43 1.22241 0 0 -0.00658514 0.00177684 1.04424
44 1.76707 -1.27612 0.0366406 -1.44072 0.1345 -0.261341
45 1.55587 0 0 0.182858 0.0427366 0.752105
46 1.24273 0 0 0.000591989 0 0.838876
47 0.784532 0 0 -0.00599216 0.000868492 1.11469
48 0 0 0 0 0 0
49 -4.8107 -17.2067 -7.47273 0.000665401 -0.00275707 0.000113388
50 0 -1.70357 0.00508022 0 0 0
51 -0.00195932 3.96104 2.21118 0 0 0
52 0.641596 -0.666147 0.75166 0 0 0
53 0.714397 -3.45621 1.13628 0 0 0
54 -0.70623 -4.69238 1.98618 3.14159 -0.0872663 -3.14159
55 0.0133305 1.02904 3.61174 0 0 0
56 0.01333 -4.73569 2.23877 0 0 0
57 -4.80359 -22.4111 -12.5892 0.000398233 -0.00248338 0.000155936
58 0.0129194 0.0367718 6.63003 0 0 0
time 21
0 1.29637 -0.499222 -12.0785 0.000934124 0 -0.959925
1 6.02794 0 0 -0.820812 0.0178812 -0.72924
2 11.7344 0 0 -0.00140291 0 -0.661399
3 8.81139 -0.000448227 -0.00011301 -2.28967 0 0.000157452
4 5.77839 0.000286102 0 -1.53408 0 0
5 2.23164 -0.000328064 -0.000364304 -0.75559 0 0
6 11.4725 0 0 -2.28752 0.45674 0.217564
7 0.615219 -0.99309 -0.810699 2.33154 0.49143 -0.467307
8 2.24752 0 0 0.184051 -0.000815336 0.3514
9 1.11936 0 0 0.0719057 0.22699 0.00278396
10 3.71348 -0.102641 0.102192 1.55813 0.550067 0.0727846
11 1.72615 0 0 0.0130938 -0.0253459 -0.58864
12 1.21114 0 0 -0.00463515 0.0170164 -0.863412
13 3.5992 -1.06012 0.0708885 1.55942 0.195064 -0.0649503
14 1.66069 0 0 -0.00432482 0.0777453 -0.278549
15 1.16699 0 0 -0.0233512 0.0241548 -0.401015
16 2.18853 0.501039 0.0576591 1.57004 0.0330459 0.225873
17 1.29609 0 0 0.0245656 -0.039878 -0.741083
18 1.62202 0.000713348 -0.000471115 0.00984863 -0.0234245 -0.831087
19 1.22241 0 0 0.00136072 0.00642036 -0.52186
20 1.76707 1.27612 0.0366411 1.57002 0.262026 0.261241
21 1.55588 0 0 -0.0308127 0.0106457 -0.943666
22 1.24274 0 0 -0.000583517 0.000138252 -0.446635
23 0.784524 0 0 0.0133277 0.00939353 -0.326309
24 -3.6471 7.74038 -3.8527 -0.000932693 0 -2.0944
25 6.02794 0 0 0.767598 0.910211 0.0426367
26 11.7344 0 0 0.00140267 0 1.54409
27 8.81167 0 0 0.154618 0 0
28 5.77884 0 0 0.103594 0 0
29 2.23249 0 0 0.0510239 0 0
30 11.4725 0 0 0.385747 -0.234622 -0.720939
31 0.615813 0.994372 -0.809165 -2.95367 0.480861 0.223812
32 2.24752 0 0 -0.083166 0.257048 0.264172
33 1.11936 0 0 0.106547 0.169507 0.93736
34 3.71349 0.10264 0.102191 -1.53196 0.903048 -0.384383
35 1.72615 0 0 -0.00479608 -0.00187112 1.31044
36 1.21112 0 0 0.0097751 0.0146795 1.18496
37 3.5992 1.06012 0.070888 -1.55949 0.15616 0.0645017
38 1.66069 0 0 0.0444974 0.0639187 0.831692
39 1.16699 0 0 0.0223071 0.00932783 0.798134
40 2.18853 -0.501041 0.0576596 -1.57003 0.119427 -0.225808
41 1.29609 0 0 0.271416 0.0698929 0.770014
42 1.62202 -0.000715256 -0.000468254 -0.0323154 -0.0109795 1.4179
43 1.22241 0 0 -0.00658515 0.00177675 1.04424
44 1.76707 -1.27612 0.0366406 -1.44072 0.1345 -0.261341
45 1.55588 0 0 0.182858 0.0427366 0.752105
46 1.24273 0 0 0.00059191 0 0.838876
47 0.784532 0 0 -0.00599215 0.000868336 1.11469
48 0 0 0 0 0 0
49 -4.81225 -17.1925 -7.47274 0.00136399 -0.00184768 0
50 0 -1.70357 0.0050807 0 0 0
51 -0.0019598 3.96104 2.21118 0 0 0
52 0.641596 -0.666149 0.75166 0 0 0
53 0.714397 -3.45621 1.13628 0 0 0
54 -0.70623 -4.69238 1.98618 -3.14159 -0.0872663 3.14159
55 0.0133305 1.02904 3.61174 0 0 0
56 0.0133295 -4.73569 2.23877 0 0 0
57 -4.8099 -22.3933 -12.5929 0.00109686 -0.00157402 0.000133967
58 0.0129194 0.0367718 6.63003 0 0 0
time 22
0 1.29637 -0.499222 -12.0785 0.000934124 0 -0.959925
1 6.02794 0 0 -0.820805 0.0181859 -0.729106
2 11.7344 0 0 -0.00140292 0 -0.661822
3 8.81138 -0.000450134 -0.000112057 -2.29021 0 0.000158129
4 5.77839 0.00028801 0 -1.53444 0 0.000100196
5 2.23164 -0.000328064 -0.000363827 -0.755768 0 0
6 11.4725 0 0 -2.28796 0.456636 0.217671
7 0.615219 -0.993089 -0.8107 2.33154 0.49143 -0.467307
8 2.24752 0 0 0.184051 -0.00081549 0.3514
9 1.11936 0 0 0.0719057 0.22699 0.00278394
10 3.71348 -0.10264 0.102191 1.55813 0.550067 0.0727846
11 1.72615 0 0 0.0130938 -0.0253458 -0.58864
12 1.21114 0 0 -0.00463523 0.0170163 -0.863412
13 3.59919 -1.06012 0.0708885 1.55942 0.195064 -0.0649503
14 1.66069 0 0 -0.00432473 0.0777451 -0.278548
15 1.16699 0 0 -0.0233511 0.0241548 -0.401015
16 2.18852 0.501039 0.0576591 1.57004 0.0330458 0.225874
17 1.29609 0 0 0.0245654 -0.0398781 -0.741083
18 1.62202 0.000715256 -0.000473022 0.00984866 -0.0234245 -0.831087
19 1.22241 0 0 0.00136071 0.00642048 -0.52186
20 1.76707 1.27612 0.0366411 1.57002 0.262026 0.261241
21 1.55588 0 0 -0.0308127 0.0106455 -0.943666
22 1.24273 0 0 -0.000583498 0.00013844 -0.446636
23 0.784524 0 0 0.0133278 0.00939355 -0.326309
24 -3.6471 7.74038 -3.8527 -0.000932693 0 -2.0944
25 6.02794 0 0 0.767589 0.910228 0.0425741
26 11.7344 0 0 0.00140272 0 1.54429
27 8.81167 0 0 0.154202 0 0
28 5.77884 0 0 0.103315 0 0
29 2.23249 0 0 0.0508868 0 0
30 11.4725 0 0 0.385392 -0.23449 -0.721354
31 0.615813 0.994372 -0.809165 -2.95367 0.480861 0.223813
32 2.24752 0 0 -0.0831661 0.257048 0.264172
33 1.11936 0 0 0.106547 0.169507 0.937361
34 3.71349 0.102639 0.10219 -1.53196 0.903048 -0.384383
35 1.72615 0 0 -0.00479618 -0.00187107 1.31044
36 1.21112 0 0 0.00977506 0.0146797 1.18496
37 3.5992 1.06012 0.070888 -1.55949 0.15616 0.0645017
38 1.66069 0 0 0.0444974 0.0639187 0.831692
39 1.16699 0 0 0.0223071 0.00932776 0.798134
40 2.18853 -0.501041 0.0576587 -1.57003 0.119427 -0.225808
41 1.29609 0 0 0.271417 0.0698929 0.770014
42 1.62202 -0.000713348 -0.000471115 -0.0323155 -0.0109792 1.4179
43 1.22241 0 0 -0.0065851 0.0017767 1.04424
44 1.76707 -1.27612 0.0366402 -1.44072 0.1345 -0.261341
45 1.55587 0 0 0.182858 0.0427367 0.752105
46 1.24273 0 0 0.000591864 0 0.838876
47 0.784532 0 0 -0.00599217 0.000868374 1.11469
48 0 0 0 0 0 0
49 -4.8121 -17.1916 -7.47276 0.00168093 -0.0014809 0
50 0 -1.70357 0.0050807 0 0 0
51 -0.0019598 3.96104 2.21118 0 0 0
52 0.641596 -0.666145 0.75166 0 0 0
53 0.714397 -3.4562 1.13628 0 0 0
54 -0.706229 -4.69238 1.98618 3.14159 -0.0872664 -3.14159
55 0.01333 1.02904 3.61174 0 0 0
56 0.0133295 -4.73568 2.23877 0 0 0
57 -4.81161 -22.3908 -12.5945 0.00141382 -0.00120726 0.000136033
58 0.0129194 0.0367737 6.63003 0 0 0
time 23
0 1.29637 -0.499222 -12.0785 0.000934124 0 -0.959925
1 6.02794 0 0 -0.820813 0.0176789 -0.729579
2 11.7344 0 0 -0.00140286 0 -0.660275
3 8.81138 -0.000450134 -0.000113487 -2.28992 0 0.000156496
4 5.77839 0.000286102 0 -1.53425 0 0
5 2.23163 -0.000329971 -0.000364304 -0.755675 0 0
6 11.4725 0 0 -2.28796 0.456609 0.216806
7 0.615219 -0.993091 -0.8107 2.33154 0.49143 -0.467307
8 2.24752 0 0 0.184051 -0.000815442 0.3514
9 1.11936 0 0 0.0719057 0.22699 0.00278411
10 3.71348 -0.10264 0.10219 1.55813 0.550067 0.0727846
11 1.72615 0 0 0.0130938 -0.025346 -0.58864
12 1.21114 0 0 -0.00463502 0.0170163 -0.863412
13 3.59919 -1.06012 0.0708876 1.55942 0.195064 -0.0649502
14 1.66069 0 0 -0.00432464 0.0777453 -0.278549
15 1.167 0 0 -0.023351 0.0241548 -0.401015
16 2.18852 0.50104 0.0576582 1.57004 0.0330459 0.225874
17 1.29609 0 0 0.0245655 -0.0398779 -0.741083
18 1.62202 0.000713348 -0.000469208 0.00984853 -0.0234244 -0.831087
19 1.22241 0 0 0.0013607 0.00642041 -0.52186
20 1.76707 1.27612 0.0366402 1.57002 0.262026 0.261241
21 1.55588 0 0 -0.0308127 0.0106455 -0.943666
22 1.24274 0 0 -0.000583498 0.00013844 -0.446635
23 0.784523 0 0 0.0133278 0.00939331 -0.326309
24 -3.6471 7.74038 -3.8527 -0.000932693 0 -2.0944
25 6.02794 0 0 0.768035 0.909926 0.0429747
26 11.7344 0 0 0.00140269 0 1.54358
27 8.81167 0 0 0.154375 0 0
28 5.77884 0 0 0.103431 0 0
29 2.23249 0 0 0.0509438 0 0
30 11.4725 0 0 0.38532 -0.234367 -0.72099
31 0.615812 0.994372 -0.809165 -2.95367 0.480861 0.223812
32 2.24752 0 0 -0.0831661 0.257048 0.264172
33 1.11936 0 0 0.106547 0.169507 0.937361
34 3.71348 0.10264 0.102191 -1.53196 0.903048 -0.384383
35 1.72615 0 0 -0.00479616 -0.00187118 1.31044
36 1.21112 0 0 0.00977507 0.0146795 1.18496
37 3.5992 1.06012 0.070888 -1.55949 0.15616 0.0645018
38 1.66069 0 0 0.0444974 0.0639188 0.831692
39 1.16699 0 0 0.0223071 0.00932781 0.798134
40 2.18853 -0.501042 0.0576594 -1.57003 0.119427 -0.225808
41 1.29609 0 0 0.271416 0.0698929 0.770014
42 1.62202 -0.000713348 -0.000469208 -0.0323154 -0.0109795 1.4179
43 1.22241 0 0 -0.00658519 0.00177663 1.04424
44 1.76707 -1.27612 0.0366402 -1.44072 0.1345 -0.261341
45 1.55587 0 0 0.182858 0.0427367 0.752105
46 1.24273 0 0 0.000591959 0 0.838876
47 0.784532 0 0 -0.00599216 0.000868409 1.11469
48 0 0 0 0 0 0
49 -4.81319 -17.1976 -7.47278 0.00165428 -0.00146955 0.000104645
50 0 -1.70357 0.0050807 0 0 0
51 -0.0019598 3.96104 2.21118 0 0 0
52 0.641595 -0.666147 0.75166 0 0 0
53 0.714397 -3.45621 1.13628 0 0 0
54 -0.70623 -4.69238 1.98618 -3.14159 -0.0872663 3.14159
55 0.0133295 1.02904 3.61174 0 0 0
56 0.0133295 -4.73568 2.23877 0 0 0
57 -4.81269 -22.3969 -12.5944 0.00138716 -0.00119591 0.000147464
58 0.0129194 0.0367737 6.63003 0 0 0
time 24
0 1.29637 -0.499222 -12.0785 0.000934124 0 -0.959925
1 6.02794 0 0 -0.820829 0.016692 -0.730484
2 11.7344 0 0 -0.00140288 0 -0.657348
3 8.81139 -0.000450134 -0.000110626 -2.28944 0 0.00015757
4 5.77839 0.000286102 0 -1.53392 0 0
5 2.23164 -0.000329971 -0.00036335 -0.755514 0 0
6 11.4725 0 0 -2.28801 0.456488 0.215072
7 0.615219 -0.993091 -0.8107 2.33154 0.49143 -0.467307
8 2.24752 0 0 0.184051 -0.000815423 0.3514
9 1.11936 0 0 0.0719057 0.22699 0.00278414
10 3.71348 -0.102641 0.102191 1.55813 0.550067 0.0727845
11 1.72615 0 0 0.0130937 -0.025346 -0.58864
12 1.21114 0 0 -0.0046352 0.0170163 -0.863412
13 3.59919 -1.06012 0.0708876 1.55942 0.195064 -0.06495
14 1.66069 0 0 -0.00432479 0.0777451 -0.278549
15 1.167 0 0 -0.023351 0.0241549 -0.401015
16 2.18853 0.50104 0.0576591 1.57004 0.0330459 0.225874
17 1.29609 0 0 0.0245654 -0.0398781 -0.741083
18 1.62202 0.000713348 -0.000473022 0.00984856 -0.0234244 -0.831087
19 1.22241 0 0 0.00136083 0.00642039 -0.52186
20 1.76707 1.27612 0.0366411 1.57002 0.262026 0.261241
21 1.55588 0 0 -0.0308126 0.0106455 -0.943666
22 1.24273 0 0 -0.00058353 0.000138311 -0.446636
23 0.784523 0 0 0.0133279 0.00939343 -0.326309
24 -3.6471 7.74038 -3.8527 -0.000932693 0 -2.0944
25 6.02794 0 0 0.768848 0.909373 0.0437109
26 11.7344 0 0 0.00140276 0 1.54225
27 8.81167 0 0 0.154596 0 0
28 5.77884 0 0 0.10358 0 0
29 2.23249 0 0 0.0510169 0 0
30 11.4725 0 0 0.385091 -0.234233 -0.720222
31 0.615812 0.994372 -0.809166 -2.95367 0.480861 0.223812
32 2.24752 0 0 -0.0831659 0.257048 0.264172
33 1.11936 0 0 0.106547 0.169507 0.93736
34 3.71349 0.102639 0.10219 -1.53196 0.903048 -0.384383
35 1.72615 0 0 -0.00479617 -0.00187111 1.31044
36 1.21112 0 0 0.00977503 0.0146796 1.18496
37 3.5992 1.06012 0.070888 -1.55949 0.15616 0.0645017
38 1.66069 0 0 0.0444974 0.0639188 0.831692
39 1.16699 0 0 0.0223071 0.00932778 0.798134
40 2.18853 -0.501041 0.0576589 -1.57003 0.119427 -0.225808
41 1.29609 0 0 0.271417 0.0698929 0.770013
42 1.62202 -0.000715256 -0.000471115 -0.0323155 -0.0109794 1.4179
43 1.22241 0 0 -0.0065851 0.00177682 1.04424
44 1.76707 -1.27612 0.0366397 -1.44072 0.1345 -0.261341
45 1.55588 0 0 0.182858 0.0427366 0.752105
46 1.24273 0 0 0.000591925 0 0.838875
47 0.784532 0 0 -0.00599221 0.000868354 1.11469
48 0 0 0 0 0 0
49 -4.81519 -17.2086 -7.47281 0.00151012 -0.00135182 0
50 0 -1.70357 0.0050807 0 0 0
51 -0.00196028 3.96104 2.21118 0 0 0
52 0.641595 -0.666147 0.75166 0 0 0
53 0.714397 -3.45621 1.13628 0 0 0
54 -0.70623 -4.69238 1.98618 -3.14159 -0.0872664 3.14159
55 0.0133295 1.02904 3.61174 0 0 0
56 0.0133295 -4.73569 2.23877 0 0 0
57 -4.81533 -22.4086 -12.5937 0.00124301 -0.00107817 0.000140163
58 0.0129194 0.0367737 6.63003 0 0 0
time 25
0 1.29637 -0.499222 -12.0785 0.000934124 0 -0.959925
1 6.02794 0 0 -0.820849 0.0153873 -0.731673
2 11.7344 0 0 -0.00140286 0 -0.653513
3 8.81138 -0.000450134 -0.000112534 -2.28882 0 0.000157345
4 5.77839 0.000286102 0 -1.53351 0 0
5 2.23163 -0.000329971 -0.000363827 -0.755311 0 0
6 11.4725 0 0 -2.28811 0.456303 0.212763
7 0.615221 -0.993091 -0.8107 2.33154 0.49143 -0.467307
8 2.24752 0 0 0.184051 -0.000815431 0.3514
9 1.11936 0 0 0.0719057 0.22699 0.00278414
10 3.71348 -0.10264 0.102191 1.55813 0.550067 0.0727845
11 1.72615 0 0 0.0130938 -0.0253459 -0.58864
12 1.21114 0 0 -0.00463506 0.0170163 -0.863412
13 3.59919 -1.06011 0.0708885 1.55942 0.195064 -0.0649501
14 1.66069 0 0 -0.00432479 0.0777451 -0.278548
15 1.167 0 0 -0.0233511 0.024155 -0.401015
16 2.18853 0.50104 0.0576591 1.57004 0.0330459 0.225874
17 1.29609 0 0 0.0245655 -0.039878 -0.741083
18 1.62202 0.000715256 -0.000471115 0.00984856 -0.0234244 -0.831087
19 1.22241 0 0 0.00136081 0.00642045 -0.52186
20 1.76707 1.27612 0.0366411 1.57002 0.262026 0.261241
21 1.55588 0 0 -0.0308127 0.0106455 -0.943666
22 1.24274 0 0 -0.00058353 0.000138311 -0.446636
23 0.784523 0 0 0.0133278 0.00939348 -0.326309
24 -3.6471 7.74038 -3.8527 -0.000932693 0 -2.0944
25 6.02794 0 0 0.769897 0.908657 0.0446636
26 11.7344 0 0 0.00140283 0 1.54053
27 8.81167 0 0 0.154844 0 0
28 5.77884 0 0 0.103745 0 0
29 2.23249 0 0 0.0510984 0 0
30 11.4725 0 0 0.384756 -0.234095 -0.719189
31 0.615812 0.994372 -0.809166 -2.95367 0.480861 0.223812
32 2.24752 0 0 -0.0831661 0.257048 0.264172
33 1.11936 0 0 0.106547 0.169507 0.937361
34 3.71348 0.102639 0.102191 -1.53196 0.903048 -0.384383
35 1.72615 0 0 -0.00479612 -0.00187112 1.31044
36 1.21112 0 0 0.00977503 0.0146796 1.18496
37 3.5992 1.06012 0.0708876 -1.55949 0.15616 0.0645017
38 1.66069 0 0 0.0444974 0.0639187 0.831691
39 1.16699 0 0 0.0223071 0.00932785 0.798134
40 2.18853 -0.50104 0.0576587 -1.57003 0.119427 -0.225808
41 1.29609 0 0 0.271417 0.069893 0.770014
42 1.62202 -0.000713348 -0.000470161 -0.0323155 -0.0109794 1.4179
43 1.22241 0 0 -0.00658514 0.00177678 1.04424
44 1.76707 -1.27612 0.0366402 -1.44072 0.1345 -0.261341
45 1.55588 0 0 0.182858 0.0427366 0.752105
46 1.24273 0 0 0.000591855 0 0.838876
47 0.784532 0 0 -0.00599212 0.000868327 1.11469
48 0 0 0 0 0 0
49 -4.81777 -17.2229 -7.47284 0.00128576 -0.00116096 0
50 0 -1.70357 0.0050807 0 0 0
51 -0.0019598 3.96104 2.21118 0 0 0
52 0.641596 -0.666149 0.75166 0 0 0
53 0.714398 -3.45621 1.13628 0 0 0
54 -0.70623 -4.69238 1.98618 -3.14159 -0.0872664 3.14159
55 0.01333 1.02904 3.61174 0 0 0
56 0.01333 -4.73568 2.23877 0 0 0
57 -4.819 -22.424 -12.5925 0.00101866 -0.000887298 0.000119434
58 0.0129194 0.0367737 6.63003 0 0 0
time 26
0 1.29637 -0.499222 -12.0785 0.000934124 0 -0.959925
1 6.02794 0 0 -0.820869 0.0139317 -0.732998
2 11.7344 0 0 -0.00140289 0 -0.649254
3 8.81139 -0.000450134 -0.00011158 -2.28815 0 0.000157726
4 5.77839 0.00028801 0 -1.53306 0 0
5 2.23163 -0.000329971 -0.000363827 -0.755091 0 0
6 11.4725 0 0 -2.28824 0.456085 0.21018
7 0.615221 -0.993092 -0.810701 2.33154 0.49143 -0.467307
8 2.24752 0 0 0.184051 -0.000815289 0.3514
9 1.11936 0 0 0.0719058 0.22699 0.00278401
10 3.71348 -0.10264 0.10219 1.55813 0.550067 0.0727846
11 1.72615 0 0 0.0130937 -0.0253461 -0.58864
12 1.21114 0 0 -0.00463528 0.0170164 -0.863412
13 3.59919 -1.06012 0.0708876 1.55942 0.195064 -0.0649501
14 1.66069 0 0 -0.0043248 0.0777451 -0.278549
15 1.167 0 0 -0.0233509 0.0241548 -0.401015
16 2.18853 0.50104 0.0576582 1.57004 0.0330459 0.225874
17 1.29609 0 0 0.0245654 -0.0398781 -0.741083
18 1.62202 0.000713348 -0.000471115 0.00984869 -0.0234245 -0.831087
19 1.22241 0 0 0.00136054 0.00642056 -0.52186
20 1.76707 1.27612 0.0366402 1.57002 0.262026 0.261241
21 1.55588 0 0 -0.0308129 0.0106455 -0.943666
22 1.24273 0 0 -0.000583427 0.000138395 -0.446636
23 0.784523 0 0 0.0133279 0.00939345 -0.326309
24 -3.6471 7.74038 -3.8527 -0.000932693 0 -2.0944
25 6.02794 0 0 0.771046 0.90787 0.0457092
26 11.7344 0 0 0.0014028 0 1.53863
27 8.81167 0 0 0.155096 0 0
28 5.77884 0 0 0.103914 0 0
29 2.23249 0 0 0.0511815 0 0
30 11.4725 0 0 0.384368 -0.233964 -0.718029
31 0.615813 0.994372 -0.809166 -2.95367 0.480861 0.223813
32 2.24752 0 0 -0.0831661 0.257048 0.264172
33 1.11936 0 0 0.106547 0.169507 0.937361
34 3.71349 0.102639 0.10219 -1.53196 0.903048 -0.384383
35 1.72615 0 0 -0.00479619 -0.00187113 1.31044
36 1.21112 0 0 0.00977505 0.0146795 1.18496
37 3.5992 1.06012 0.0708873 -1.55949 0.15616 0.0645017
38 1.66069 0 0 0.0444974 0.0639187 0.831692
39 1.16699 0 0 0.0223072 0.0093278 0.798134
40 2.18853 -0.501041 0.0576584 -1.57003 0.119427 -0.225808
41 1.29609 0 0 0.271416 0.0698929 0.770014
42 1.62202 -0.000715256 -0.000469208 -0.0323155 -0.0109795 1.4179
43 1.22241 0 0 -0.00658506 0.00177682 1.04424
44 1.76707 -1.27612 0.0366397 -1.44072 0.1345 -0.261341
45 1.55588 0 0 0.182858 0.0427366 0.752105
46 1.24273 0 0 0.000591876 0 0.838876
47 0.784532 0 0 -0.0059921 0.000868255 1.11469
48 0 0 0 0 0 0
49 -4.82062 -17.2386 -7.47286 0.00101853 -0.000930228 0
50 0 -1.70357 0.0050807 0 0 0
51 -0.0019598 3.96104 2.21118 0 0 0
52 0.641596 -0.666147 0.75166 0 0 0
53 0.714397 -3.45621 1.13628 0 0 0
54 -0.70623 -4.69238 1.98618 -3.14159 -0.0872664 3.14159
55 0.01333 1.02904 3.61174 0 0 0
56 0.01333 -4.73569 2.23877 0 0 0
57 -4.82318 -22.4411 -12.5912 0.000751441 -0.000656556 0
58 0.0129194 0.0367718 6.63003 0 0 0
time 27
0 1.29637 -0.499222 -12.0785 0.000934124 0 -0.959925
1 6.02794 0 0 -0.820887 0.0124936 -0.734304
2 11.7344 0 0 -0.00140291 0 -0.645057
3 8.81139 -0.000450134 -0.000112534 -2.28751 0 0.0001575
4 5.77839 0.000286102 0 -1.53263 0 0
5 2.23164 -0.000329971 -0.000364304 -0.754877 0 0
6 11.4725 0 0 -2.28837 0.455862 0.207626
7 0.615219 -0.993091 -0.8107 2.33154 0.49143 -0.467307
8 2.24752 0 0 0.184051 -0.000815436 0.3514
9 1.11936 0 0 0.0719057 0.22699 0.00278404
10 3.71348 -0.102639 0.102192 1.55813 0.550067 0.0727846
11 1.72615 0 0 0.0130938 -0.0253458 -0.58864
12 1.21114 0 0 -0.00463499 0.0170164 -0.863412
13 3.59919 -1.06012 0.0708885 1.55942 0.195064 -0.06495
14 1.66069 0 0 -0.00432464 0.0777453 -0.278548
15 1.167 0 0 -0.0233512 0.0241548 -0.401015
16 2.18853 0.50104 0.0576591 1.57004 0.0330459 0.225874
17 1.29609 0 0 0.0245654 -0.039878 -0.741083
18 1.62202 0.000715256 -0.000473022 0.00984866 -0.0234246 -0.831087
19 1.22241 0 0 0.00136073 0.00642054 -0.52186
20 1.76707 1.27612 0.0366411 1.57002 0.262026 0.261241
21 1.55588 0 0 -0.0308128 0.0106458 -0.943666
22 1.24274 0 0 -0.00058353 0.000138311 -0.446636
23 0.784523 0 0 0.0133279 0.0093935 -0.326309
24 -3.6471 7.74038 -3.8527 -0.000932693 0 -2.0944
25 6.02794 0 0 0.772165 0.907099 0.04673
26 11.7344 0 0 0.00140264 0 1.53677
27 8.81167 0 0 0.155329 0 0
28 5.77884 0 0 0.104071 0 0
29 2.23249 0 0 0.0512586 0 0
30 11.4725 0 0 0.383978 -0.233848 -0.716884
31 0.615812 0.994372 -0.809165 -2.95367 0.480861 0.223812
32 2.24752 0 0 -0.083166 0.257048 0.264172
33 1.11936 0 0 0.106547 0.169507 0.93736
34 3.71348 0.10264 0.102191 -1.53196 0.903048 -0.384383
35 1.72615 0 0 -0.0047961 -0.00187109 1.31044
36 1.21112 0 0 0.00977503 0.0146795 1.18496
37 3.5992 1.06012 0.070888 -1.55949 0.15616 0.0645017
38 1.66069 0 0 0.0444974 0.0639188 0.831692
39 1.16699 0 0 0.0223071 0.00932778 0.798134
40 2.18853 -0.501041 0.0576589 -1.57003 0.119427 -0.225808
41 1.29609 0 0 0.271416 0.0698929 0.770014
42 1.62202 -0.000713348 -0.000471115 -0.0323155 -0.0109795 1.4179
43 1.22241 0 0 -0.00658508 0.0017767 1.04424
44 1.76707 -1.27612 0.0366399 -1.44072 0.1345 -0.261341
45 1.55588 0 0 0.182858 0.0427367 0.752105
46 1.24273 0 0 0.000591857 0 0.838876
47 0.784532 0 0 -0.00599219 0.000868416 1.11469
48 0 0 0 0 0 0
49 -4.8234 -17.2539 -7.47289 0.000745732 -0.000692882 0
50 0 -1.70357 0.0050807 0 0 0
51 -0.0019598 3.96104 2.21118 0 0 0
52 0.641596 -0.666149 0.75166 0 0 0
53 0.714397 -3.45621 1.13628 0 0 0
54 -0.70623 -4.69238 1.98618 -3.14159 -0.0872664 3.14159
55 0.0133305 1.02904 3.61174 0 0 0
56 0.01333 -4.73569 2.23877 0 0 0
57 -4.82734 -22.4578 -12.5898 0.000478652 -0.000419198 0
58 0.0129194 0.0367699 6.63003 0 0 0
time 28
0 1.29637 -0.499222 -12.0785 0.000934124 0 -0.959925
1 6.02794 0 0 -0.820901 0.0112465 -0.735436
2 11.7344 0 0 -0.00140281 0 -0.641425
3 8.81139 -0.000450134 -0.000112057 -2.28695 0 0.000157735
4 5.77839 0.000286102 0 -1.53226 0 0
5 2.23164 -0.000331879 -0.000364304 -0.754695 0 0
6 11.4725 0 0 -2.28848 0.455667 0.205411
7 0.615221 -0.993089 -0.8107 2.33154 0.49143 -0.467307
8 2.24752 0 0 0.184051 -0.000815455 0.3514
9 1.11936 0 0 0.0719058 0.22699 0.00278386
10 3.71348 -0.102639 0.102191 1.55813 0.550067 0.0727847
11 1.72615 0 0 0.0130938 -0.0253459 -0.58864
12 1.21114 0 0 -0.00463507 0.0170163 -0.863412
13 3.5992 -1.06012 0.0708876 1.55942 0.195064 -0.0649502
14 1.66069 0 0 -0.00432469 0.0777452 -0.278549
15 1.167 0 0 -0.0233511 0.0241549 -0.401015
16 2.18853 0.50104 0.0576591 1.57004 0.0330459 0.225874
17 1.29609 0 0 0.0245653 -0.039878 -0.741083
18 1.62202 0.000713348 -0.000471115 0.0098485 -0.0234245 -0.831087
19 1.22241 0 0 0.00136075 0.00642068 -0.52186
20 1.76707 1.27612 0.0366402 1.57002 0.262026 0.261241
21 1.55588 0 0 -0.0308127 0.0106458 -0.943666
22 1.24274 0 0 -0.000583562 0.000138181 -0.446635
23 0.784524 0 0 0.0133279 0.00939345 -0.326309
24 -3.6471 7.74038 -3.8527 -0.000932693 0 -2.0944
25 6.02794 0 0 0.773126 0.906435 0.0476064
26 11.7344 0 0 0.00140267 0 1.53517
27 8.81167 0 0 0.155522 0 0
28 5.77884 0 0 0.1042 0 0
29 2.23249 0 0 0.0513224 0 0
30 11.4725 0 0 0.383636 -0.233754 -0.715893
31 0.615812 0.994372 -0.809165 -2.95367 0.480861 0.223813
32 2.24752 0 0 -0.083166 0.257048 0.264173
33 1.11936 0 0 0.106547 0.169507 0.93736
34 3.71348 0.102639 0.102191 -1.53196 0.903047 -0.384383
35 1.72615 0 0 -0.00479613 -0.00187109 1.31044
36 1.21112 0 0 0.00977506 0.0146796 1.18496
37 3.5992 1.06012 0.0708883 -1.55949 0.15616 0.0645017
38 1.66069 0 0 0.0444974 0.0639188 0.831692
39 1.16699 0 0 0.0223071 0.00932781 0.798134
40 2.18853 -0.50104 0.0576594 -1.57003 0.119427 -0.225808
41 1.29609 0 0 0.271416 0.0698928 0.770014
42 1.62202 -0.000715256 -0.000470161 -0.0323155 -0.0109794 1.4179
43 1.22241 0 0 -0.00658506 0.00177679 1.04424
44 1.76707 -1.27612 0.0366404 -1.44072 0.1345 -0.261341
45 1.55587 0 0 0.182858 0.0427367 0.752105
46 1.24273 0 0 0.000591877 0 0.838876
47 0.784532 0 0 -0.00599203 0.000868374 1.11469
48 0 0 0 0 0 0
49 -4.82579 -17.2671 -7.47291 0.000504679 -0.000482175 0
50 0 -1.70357 0.0050807 0 0 0
51 -0.0019598 3.96104 2.21118 0 0 0
52 0.641596 -0.666147 0.75166 0 0 0
53 0.714398 -3.45621 1.13628 0 0 0
54 -0.706229 -4.69238 1.98618 -3.14159 -0.0872663 3.14159
55 0.01333 1.02904 3.61174 0 0 0
56 0.01333 -4.73569 2.23877 0 0 0
57 -4.83096 -22.4723 -12.5885 0.000237608 -0.000208481 0
58 0.0129194 0.0367718 6.63003 0 0 0
time 29
0 1.29637 -0.499222 -12.0785 0.000934124 0 -0.959925
1 6.02794 0 0 -0.82091 0.0103676 -0.736233
2 11.7344 0 0 -0.00140279 0 -0.638869
3 8.81139 -0.000450134 -0.00011301 -2.28657 0 0.000157219
4 5.77839 0.000286102 0 -1.532 0 0
5 2.23163 -0.000329971 -0.000363827 -0.754568 0 0
6 11.4725 0 0 -2.28856 0.455527 0.20385
7 0.615219 -0.99309 -0.8107 2.33154 0.49143 -0.467307
8 2.24752 0 0 0.184051 -0.000815449 0.3514
9 1.11936 0 0 0.0719057 0.22699 0.00278394
10 3.71348 -0.102641 0.102191 1.55813 0.550067 0.0727846
11 1.72615 0 0 0.0130938 -0.0253459 -0.58864
12 1.21114 0 0 -0.00463512 0.0170162 -0.863412
13 3.59919 -1.06012 0.0708876 1.55942 0.195064 -0.0649501
14 1.66069 0 0 -0.00432494 0.0777453 -0.278548
15 1.167 0 0 -0.023351 0.0241548 -0.401015
16 2.18852 0.50104 0.0576582 1.57004 0.033046 0.225874
17 1.29609 0 0 0.0245652 -0.0398782 -0.741083
18 1.62202 0.000713348 -0.000471115 0.00984867 -0.0234243 -0.831087
19 1.22241 0 0 0.00136077 0.00642037 -0.52186
20 1.76707 1.27612 0.0366402 1.57002 0.262026 0.261241
21 1.55588 0 0 -0.0308127 0.0106456 -0.943666
22 1.24274 0 0 -0.000583459 0.000138266 -0.446636
23 0.784523 0 0 0.0133278 0.00939361 -0.326309
24 -3.6471 7.74038 -3.8527 -0.000932693 0 -2.0944
25 6.02794 0 0 0.773797 0.905971 0.0482187
26 11.7344 0 0 0.00140271 0 1.53405
27 8.81167 0 0 0.155654 0 0
28 5.77884 0 0 0.104288 0 0
29 2.23249 0 0 0.0513659 0 0
30 11.4725 0 0 0.383394 -0.233692 -0.715195
31 0.615811 0.994372 -0.809165 -2.95367 0.480861 0.223813
32 2.24752 0 0 -0.083166 0.257048 0.264172
33 1.11936 0 0 0.106547 0.169508 0.937361
34 3.71349 0.10264 0.102191 -1.53196 0.903048 -0.384383
35 1.72615 0 0 -0.00479613 -0.00187116 1.31044
36 1.21112 0 0 0.0097751 0.0146797 1.18496
37 3.5992 1.06012 0.0708883 -1.55949 0.15616 0.0645017
38 1.66069 0 0 0.0444974 0.0639187 0.831692
39 1.16699 0 0 0.0223071 0.00932781 0.798134
40 2.18853 -0.501041 0.0576596 -1.57003 0.119427 -0.225808
41 1.29609 0 0 0.271416 0.069893 0.770013
42 1.62202 -0.000713348 -0.000469208 -0.0323155 -0.0109794 1.4179
43 1.22241 0 0 -0.00658504 0.00177662 1.04424
44 1.76707 -1.27612 0.0366411 -1.44072 0.1345 -0.261341
45 1.55587 0 0 0.182858 0.0427367 0.752105
46 1.24273 0 0 0.000591959 0 0.838876
47 0.784532 0 0 -0.00599219 0.000868481 1.11469
48 0 0 0 0 0 0
49 -4.82746 -17.2763 -7.47292 0.000332685 -0.000331365 0
50 0 -1.70357 0.00508118 0 0 0
51 -0.00196028 3.96104 2.21118 0 0 0
52 0.641596 -0.666149 0.75166 0 0 0
53 0.714398 -3.45621 1.13628 0 0 0
54 -0.70623 -4.69238 1.98618 -3.14159 -0.0872664 3.14159
55 0.0133295 1.02904 3.61174 0 0 0
56 0.01333 -4.73569 2.23877 0 0 0
57 -4.83352 -22.4824 -12.5877 0 0 0
58 0.0129194 0.0367718 6.63003 0 0 0
time 30
0 1.29637 -0.499222 -12.0785 0.000934124 0 -0.959925
1 6.02794 0 0 -0.820913 0.0100352 -0.736535
2 11.7344 0 0 -0.00140286 0 -0.637902
3 8.81139 -0.000448227 -0.00011158 -2.28642 0 0.000157369
4 5.77839 0.000286102 0 -1.5319 0 0
5 2.23163 -0.000328064 -0.00036335 -0.75452 0 0
6 11.4725 0 0 -2.28859 0.455474 0.20326
7 0.615219 -0.993091 -0.810699 2.33154 0.49143 -0.467307
8 2.24752 0 0 0.184051 -0.000815328 0.3514
9 1.11936 0 0 0.0719057 0.22699 0.00278388
10 3.71348 -0.102638 0.102191 1.55813 0.550067 0.0727845
11 1.72615 0 0 0.0130939 -0.0253457 -0.58864
12 1.21114 0 0 -0.00463512 0.0170162 -0.863412
13 3.59919 -1.06012 0.0708885 1.55942 0.195064 -0.0649502
14 1.66069 0 0 -0.00432464 0.0777453 -0.278548
15 1.167 0 0 -0.023351 0.0241548 -0.401015
16 2.18852 0.501041 0.0576601 1.57004 0.0330458 0.225874
17 1.29609 0 0 0.0245655 -0.0398781 -0.741083
18 1.62202 0.000715256 -0.000471115 0.00984859 -0.0234243 -0.831087
19 1.22241 0 0 0.00136072 0.00642036 -0.52186
20 1.76707 1.27612 0.0366411 1.57002 0.262026 0.261241
21 1.55587 0 0 -0.0308127 0.0106457 -0.943667
22 1.24274 0 0 -0.00058353 0.000138311 -0.446635
23 0.784523 0 0 0.0133278 0.00939348 -0.326309
24 -3.6471 7.74038 -3.8527 -0.000932693 0 -2.0944
25 6.02794 0 0 0.774048 0.905795 0.0484493
26 11.7344 0 0 0.00140281 0 1.53362
27 8.81167 0 0 0.155703 0 0
28 5.77884 0 0 0.104321 0 0
29 2.23249 0 0 0.0513821 0 0
30 11.4725 0 0 0.383302 -0.23367 -0.714931
31 0.615812 0.994373 -0.809166 -2.95367 0.480861 0.223812
32 2.24752 0 0 -0.083166 0.257048 0.264173
33 1.11936 0 0 0.106547 0.169507 0.93736
34 3.71349 0.102641 0.102191 -1.53196 0.903048 -0.384383
35 1.72615 0 0 -0.00479611 -0.00187107 1.31044
36 1.21112 0 0 0.00977506 0.0146796 1.18496
37 3.5992 1.06012 0.0708878 -1.55949 0.15616 0.0645016
38 1.66069 0 0 0.0444974 0.0639188 0.831692
39 1.16699 0 0 0.0223072 0.0093278 0.798134
40 2.18853 -0.50104 0.0576589 -1.57003 0.119427 -0.225808
41 1.29609 0 0 0.271417 0.0698929 0.770014
42 1.62202 -0.000713348 -0.000470161 -0.0323155 -0.0109793 1.4179
43 1.22241 0 0 -0.00658518 0.00177661 1.04424
44 1.76707 -1.27612 0.0366404 -1.44072 0.1345 -0.261341
45 1.55587 0 0 0.182858 0.0427366 0.752105
46 1.24273 0 0 0.000591788 0 0.838876
47 0.784532 0 0 -0.00599216 0.000868452 1.11469
48 0 0 0 0 0 0
49 -4.82809 -17.2798 -7.47293 0.000267062 -0.000273704 0
50 0 -1.70357 0.0050807 0 0 0
51 -0.00196028 3.96104 2.21118 0 0 0
52 0.641596 -0.666149 0.75166 0 0 0
53 0.714397 -3.45621 1.13628 0 0 0
54 -0.70623 -4.69238 1.98618 -3.14159 -0.0872664 3.14159
55 0.0133295 1.02904 3.61174 0 0 0
56 0.0133295 -4.73569 2.23877 0 0 0
57 -4.83449 -22.4862 -12.5873 0 0 0
58 0.0129194 0.0367718 6.63003 0 0 0
end
