//Sequence File generated by the Wall Worm SMD Exporter PRO 1.99
//www.wallworm.com
version 1
nodes
0 "b_l_clav" -1
1 "b_l_upperarm" 0
2 "b_l_forearm" 1
3 "b_l_twist3" 2
4 "b_l_twist2" 2
5 "b_l_twist1" 2
6 "b_l_hand" 2
7 "b_l_thumb001" 6
8 "b_l_thumb002" 7
9 "b_l_thumb003" 8
10 "b_l_middle001" 6
11 "b_l_middle002" 10
12 "b_l_middle003" 11
13 "b_l_index001" 6
14 "b_l_index002" 13
15 "b_l_index003" 14
16 "b_l_hand_ringsqueezer" 6
17 "b_l_ring001" 16
18 "b_l_ring002" 17
19 "b_l_ring003" 18
20 "b_l_hand_pinkysqueezer" 6
21 "b_l_pinky001" 20
22 "b_l_pinky002" 21
23 "b_l_pinky003" 22
24 "b_r_clav" -1
25 "b_r_upperarm" 24
26 "b_r_forearm" 25
27 "b_r_twist3" 26
28 "b_r_twist2" 26
29 "b_r_twist1" 26
30 "b_r_hand" 26
31 "b_r_thumb001" 30
32 "b_r_thumb002" 31
33 "b_r_thumb003" 32
34 "b_r_middle001" 30
35 "b_r_middle002" 34
36 "b_r_middle003" 35
37 "b_r_index001" 30
38 "b_r_index002" 37
39 "b_r_index003" 38
40 "b_r_hand_ringsqueezer" 30
41 "b_r_ring001" 40
42 "b_r_ring002" 41
43 "b_r_ring003" 42
44 "b_r_hand_pinkysqueezer" 30
45 "b_r_pinky001" 44
46 "b_r_pinky002" 45
47 "b_r_pinky003" 46
48 "b_zero" -1
49 "d_gun" -1
50 "d_trigger" 49
51 "d_stock" 49
52 "d_selector" 49
53 "d_paddle" 49
54 "d_dustcover" 49
55 "d_charger" 49
56 "d_bcg" 49
57 "d_mag" -1
58 "d_boolet" 57
end
skeleton
time 0
0 1.29637 -0.499222 -12.0785 0.000934124 0 -0.959925
1 6.02794 0 0 -0.820914 0.00998298 -0.736548
2 11.7344 0 0 -0.00140293 0 -0.637906
3 8.81139 -0.000450134 -0.00011158 -2.28644 0 0.000157078
4 5.77839 0.000286102 0 -1.53191 0 0
5 2.23164 -0.000329971 -0.000362873 -0.754524 0 0
6 11.4725 0 0 -2.28859 0.455482 0.203319
7 0.615219 -0.993091 -0.8107 2.33154 0.49143 -0.467307
8 2.24752 0 0 0.184051 -0.000815271 0.3514
9 1.11936 0 0 0.0719057 0.22699 0.00278418
10 3.71348 -0.102641 0.102192 1.55813 0.550067 0.0727847
11 1.72615 0 0 0.0130937 -0.0253458 -0.58864
12 1.21114 0 0 -0.00463504 0.0170163 -0.863412
13 3.59919 -1.06012 0.0708885 1.55942 0.195064 -0.0649501
14 1.66069 0 0 -0.00432475 0.0777452 -0.278549
15 1.167 0 0 -0.0233509 0.0241548 -0.401015
16 2.18852 0.50104 0.0576591 1.57004 0.0330459 0.225874
17 1.2961 0 0 0.0245654 -0.0398778 -0.741083
18 1.62202 0.000713348 -0.000471115 0.00984866 -0.0234245 -0.831087
19 1.22241 0 0 0.00136073 0.00642042 -0.52186
20 1.76707 1.27612 0.0366411 1.57002 0.262026 0.261241
21 1.55588 0 0 -0.0308128 0.0106456 -0.943666
22 1.24274 0 0 -0.000583454 0.000138511 -0.446636
23 0.784523 0 0 0.0133279 0.00939337 -0.326309
24 -3.6471 7.74038 -3.8527 -0.000932693 0 -2.0944
25 6.02794 0 0 0.774048 0.905795 0.0484493
26 11.7344 0 0 0.00140281 0 1.53362
27 8.81167 0 0 0.155703 0 0
28 5.77884 0 0 0.104321 0 0
29 2.23249 0 0 0.0513821 0 0
30 11.4725 0 0 0.383302 -0.23367 -0.714931
31 0.615812 0.994373 -0.809166 -2.95367 0.480861 0.223812
32 2.24752 0 0 -0.083166 0.257048 0.264173
33 1.11936 0 0 0.106547 0.169507 0.93736
34 3.71349 0.102641 0.102191 -1.53196 0.903048 -0.384383
35 1.72615 0 0 -0.00479611 -0.00187107 1.31044
36 1.21112 0 0 0.00977506 0.0146796 1.18496
37 3.5992 1.06012 0.0708878 -1.55949 0.15616 0.0645016
38 1.66069 0 0 0.0444974 0.0639188 0.831692
39 1.16699 0 0 0.0223072 0.0093278 0.798134
40 2.18853 -0.50104 0.0576589 -1.57003 0.119427 -0.225808
41 1.29609 0 0 0.271417 0.0698929 0.770014
42 1.62202 -0.000713348 -0.000470161 -0.0323155 -0.0109793 1.4179
43 1.22241 0 0 -0.00658518 0.00177661 1.04424
44 1.76707 -1.27612 0.0366404 -1.44072 0.1345 -0.261341
45 1.55587 0 0 0.182858 0.0427366 0.752105
46 1.24273 0 0 0.000591788 0 0.838876
47 0.784532 0 0 -0.00599216 0.000868452 1.11469
48 0 0 0 0 0 0
49 -4.82809 -17.2798 -7.47293 0.000267062 -0.000273704 0
50 0 -1.70357 0.0050807 0 0 0
51 -0.00196028 3.96104 2.21118 0 0 0
52 0.641596 -0.666149 0.75166 0 0 0
53 0.714397 -3.45621 1.13628 0 0 0
54 -0.70623 -4.69238 1.98618 -3.14159 -0.0872664 3.14159
55 0.0133295 1.02904 3.61174 0 0 0
56 0.0133295 -4.73569 2.23877 0 0 0
57 -4.82942 -22.4764 -12.5963 0 0 0
58 0.0129194 0.0367718 6.63003 0 0 0
time 1
0 1.29637 -0.499222 -12.0785 0.000934124 0 -0.959925
1 6.02794 0 0 -0.819484 0.0558723 -0.696758
2 11.7344 0 0 -0.00140291 0 -0.786393
3 8.81138 -0.000448227 -0.00011301 -2.3144 0 0.000157246
4 5.77839 0.000286102 0 -1.55065 0 0
5 2.23164 -0.000328064 -0.000364304 -0.763752 0 0
6 11.4725 0 0 -2.28617 0.451484 0.289784
7 0.615219 -0.993092 -0.8107 2.33154 0.49143 -0.467307
8 2.24752 0 0 0.184051 -0.000815377 0.3514
9 1.11936 0 0 0.0719058 0.22699 0.00278403
10 3.71348 -0.102641 0.102191 1.55813 0.550067 0.0727849
11 1.72615 0 0 0.0130937 -0.025346 -0.58864
12 1.21114 0 0 -0.00463517 0.0170163 -0.863412
13 3.59919 -1.06012 0.0708885 1.55942 0.195064 -0.0649501
14 1.66069 0 0 -0.00432486 0.0777451 -0.278548
15 1.167 0 0 -0.023351 0.0241548 -0.401015
16 2.18852 0.50104 0.0576591 1.57004 0.0330459 0.225874
17 1.29609 0 0 0.0245654 -0.039878 -0.741083
18 1.62202 0.000713348 -0.000471115 0.00984866 -0.0234245 -0.831087
19 1.22241 0 0 0.00136067 0.00642041 -0.52186
20 1.76707 1.27612 0.0366411 1.57002 0.262026 0.261241
21 1.55588 0 0 -0.0308127 0.0106456 -0.943666
22 1.24274 0 0 -0.000583512 0.000138498 -0.446635
23 0.784523 0 0 0.0133278 0.00939331 -0.326309
24 -3.6471 7.74038 -3.8527 -0.000932693 0 -2.0944
25 6.02794 0 0 0.723231 0.939548 -0.00487557
26 11.7344 0 0 0.00140257 0 1.60946
27 8.81167 0 0 0.140399 0 0
28 5.77884 0 0 0.0940671 0 0
29 2.23249 0 0 0.0463315 0 0
30 11.4725 0 0 0.386532 -0.243317 -0.742078
31 0.615814 0.994372 -0.809165 -2.95367 0.480861 0.223812
32 2.24752 0 0 -0.0831662 0.257048 0.264172
33 1.11936 0 0 0.106547 0.169507 0.937361
34 3.71348 0.102639 0.102191 -1.53196 0.903047 -0.384383
35 1.72615 0 0 -0.0047962 -0.00187106 1.31044
36 1.21112 0 0 0.00977502 0.0146796 1.18496
37 3.5992 1.06012 0.070888 -1.55949 0.15616 0.0645017
38 1.66069 0 0 0.0572382 0.0528182 1.04924
39 1.16699 0 0 0.0226733 0.00409384 1.01553
40 2.18853 -0.50104 0.0576587 -1.57003 0.119427 -0.225808
41 1.29609 0 0 0.271416 0.0698928 0.770014
42 1.62202 -0.000713348 -0.000470161 -0.0323154 -0.0109794 1.4179
43 1.22241 0 0 -0.00658517 0.00177669 1.04424
44 1.76707 -1.27612 0.0366406 -1.44072 0.1345 -0.261341
45 1.55588 0 0 0.182858 0.0427367 0.752105
46 1.24273 0 0 0.000591967 0 0.838876
47 0.784532 0 0 -0.00599215 0.000868422 1.11469
48 0 0 0 0 0 0
49 -4.82668 -16.6206 -7.47292 -0.00303296 -0.000268353 0
50 0 -1.56487 0.00508118 0.174533 0 0
51 -0.0019598 3.96104 2.21118 0 0 0
52 0.641596 -0.666147 0.75166 0 0 0
53 0.750528 -3.45621 1.13628 0 0.0991776 0
54 -0.706229 -4.69238 1.98618 -3.14159 -0.0872664 3.14159
55 0.01333 1.02904 3.61174 0 0 0
56 0.01333 -2.98984 2.23877 0 0 0
57 -4.82806 -21.8341 -12.5791 -0.003312 0 0
58 0.0129199 0.0367737 6.63003 0 0 0
time 2
0 1.29637 -0.499222 -12.0785 0.000934124 0 -0.959925
1 6.02794 0 0 -0.81777 0.0836346 -0.659131
2 11.7344 0 0 -0.00140289 0 -0.941638
3 8.81138 -0.000448227 -0.000112534 -2.33059 0 0.000157411
4 5.77839 0.000286102 0 -1.56149 0 0
5 2.23163 -0.000328064 -0.000363827 -0.769094 0 0
6 11.4725 0 0 -2.26965 0.433749 0.373121
7 0.615217 -0.993089 -0.8107 2.33154 0.49143 -0.467307
8 2.24752 0 0 0.184051 -0.000815211 0.3514
9 1.11936 0 0 0.0719057 0.22699 0.00278402
10 3.71348 -0.102641 0.102191 1.55813 0.550067 0.0727845
11 1.72615 0 0 0.0130936 -0.025346 -0.58864
12 1.21114 0 0 -0.00463516 0.0170165 -0.863412
13 3.59919 -1.06012 0.0708885 1.55942 0.195064 -0.0649502
14 1.66069 0 0 -0.00432464 0.0777452 -0.278549
15 1.167 0 0 -0.0233512 0.0241548 -0.401015
16 2.18852 0.50104 0.0576591 1.57004 0.033046 0.225874
17 1.29609 0 0 0.0245654 -0.039878 -0.741083
18 1.62202 0.000713348 -0.000469208 0.00984869 -0.0234244 -0.831087
19 1.22241 0 0 0.00136067 0.00642041 -0.52186
20 1.76707 1.27612 0.0366411 1.57002 0.262026 0.261241
21 1.55587 0 0 -0.0308127 0.0106458 -0.943666
22 1.24273 0 0 -0.000583588 0.000138297 -0.446636
23 0.784523 0 0 0.013328 0.0093934 -0.326309
24 -3.6471 7.74038 -3.8527 -0.000932693 0 -2.0944
25 6.02794 0 0 0.636383 0.984944 -0.0899313
26 11.7344 0 0 0.00140278 0 1.69996
27 8.81167 0 0 0.125303 0 0
28 5.77884 0 0 0.0839534 0 0
29 2.23249 0 0 0.0413501 0 0
30 11.4725 0 0 0.388006 -0.281271 -0.726758
31 0.615813 0.994373 -0.809165 -2.95367 0.480861 0.223813
32 2.24752 0 0 -0.0831661 0.257048 0.264173
33 1.11936 0 0 0.106547 0.169507 0.937361
34 3.71348 0.102639 0.102191 -1.53196 0.903048 -0.384383
35 1.72615 0 0 -0.00479612 -0.00187112 1.31044
36 1.21112 0 0 0.0097751 0.0146796 1.18496
37 3.5992 1.06012 0.0708888 -1.55949 0.15616 0.0645017
38 1.66069 0 0 0.0572382 0.0528182 1.04924
39 1.16699 0 0 0.0226732 0.00409383 1.01553
40 2.18853 -0.50104 0.0576589 -1.57003 0.119427 -0.225808
41 1.29609 0 0 0.271416 0.069893 0.770014
42 1.62202 -0.000713348 -0.000470161 -0.0323155 -0.0109795 1.4179
43 1.22241 0 0 -0.00658511 0.00177673 1.04424
44 1.76707 -1.27612 0.0366406 -1.44072 0.1345 -0.261341
45 1.55587 0 0 0.182858 0.0427366 0.752105
46 1.24273 0 0 0.000591849 0 0.838876
47 0.784532 0 0 -0.00599212 0.000868453 1.11469
48 0 0 0 0 0 0
49 -4.82809 -15.7061 -7.47292 -0.0486115 -0.000258472 0
50 0 -1.56487 0.00508022 0.174533 0 0
51 -0.0019598 3.96104 2.21118 0 0 0
52 0.641596 -0.666149 0.75166 0 0 0
53 0.786659 -3.45621 1.13628 0 0.198355 0
54 -0.70623 -4.69238 1.98618 -3.14159 -0.0872664 3.14159
55 0.01333 1.02904 3.61174 0 0 0
56 0.01333 -1.24399 2.23877 0 0 0
57 -4.82963 -21.1468 -12.3363 -0.0488906 0 0
58 0.0129199 0.0367718 6.63003 0 0 0
time 3
0 1.29637 -0.499222 -12.0785 0.000934124 0 -0.959925
1 6.02794 0 0 -0.815875 0.10431 -0.646158
2 11.7344 0 0 -0.00140291 0 -0.991447
3 8.81139 -0.000448227 -0.000112057 -2.35232 0 0.000156813
4 5.77839 0.00028801 0 -1.57605 0 0
5 2.23164 -0.000328064 -0.000364304 -0.776264 0 0
6 11.4725 0 0 -2.27418 0.433835 0.409503
7 0.615219 -0.993092 -0.810699 2.33154 0.49143 -0.467307
8 2.24752 0 0 0.184051 -0.000815367 0.3514
9 1.11936 0 0 0.0719057 0.22699 0.00278398
10 3.71348 -0.10264 0.102191 1.55813 0.550067 0.0727845
11 1.72615 0 0 0.0130937 -0.0253461 -0.58864
12 1.21114 0 0 -0.00463514 0.0170164 -0.863412
13 3.59919 -1.06012 0.0708876 1.55942 0.195064 -0.0649501
14 1.66069 0 0 -0.00432473 0.0777451 -0.278549
15 1.167 0 0 -0.023351 0.0241547 -0.401015
16 2.18853 0.50104 0.0576591 1.57004 0.0330459 0.225874
17 1.29609 0 0 0.0245653 -0.039878 -0.741083
18 1.62202 0.000713348 -0.000473022 0.00984871 -0.0234246 -0.831087
19 1.22241 0 0 0.00136054 0.00642056 -0.52186
20 1.76707 1.27612 0.0366411 1.57002 0.262026 0.261241
21 1.55588 0 0 -0.0308127 0.0106456 -0.943666
22 1.24274 0 0 -0.000583633 0.000138226 -0.446636
23 0.784524 0 0 0.0133279 0.0093935 -0.326309
24 -3.6471 7.74038 -3.8527 -0.000932693 0 -2.0944
25 6.02794 0 0 0.614495 0.995202 -0.115383
26 11.7344 0 0 0.00140263 0 1.7309
27 8.81167 0 0 0.118567 0 0
28 5.77884 0 0 0.0794398 0 0
29 2.23249 0 0 0.039127 0 0
30 11.4725 0 0 0.38755 -0.272353 -0.751203
31 0.615814 0.994373 -0.809165 -2.95367 0.480861 0.223813
32 2.24752 0 0 -0.0831661 0.257048 0.264173
33 1.11936 0 0 0.106547 0.169507 0.937361
34 3.71349 0.102641 0.102191 -1.53196 0.903048 -0.384383
35 1.72615 0 0 -0.00479619 -0.0018711 1.31044
36 1.21112 0 0 0.00977508 0.0146796 1.18496
37 3.5992 1.06012 0.0708885 -1.55949 0.15616 0.0645018
38 1.66069 0 0 0.0572382 0.0528182 1.04924
39 1.16699 0 0 0.0226733 0.0040938 1.01553
40 2.18853 -0.50104 0.0576594 -1.57003 0.119427 -0.225808
41 1.29609 0 0 0.271416 0.069893 0.770013
42 1.62202 -0.000713348 -0.000470161 -0.0323154 -0.0109793 1.4179
43 1.22241 0 0 -0.00658511 0.00177668 1.04424
44 1.76707 -1.27612 0.0366411 -1.44072 0.1345 -0.261341
45 1.55587 0 0 0.182858 0.0427366 0.752105
46 1.24273 0 0 0.000591833 0 0.838876
47 0.784531 0 0 -0.00599222 0.000868503 1.11469
48 0 0 0 0 0 0
49 -4.83932 -15.4507 -7.47291 -0.0346422 0.00149456 0.00353013
50 0 -1.56487 0.00508118 0.174533 0 0
51 -0.0019598 3.96104 2.21118 0 0 0
52 0.641596 -0.666148 0.75166 0 0 0
53 0.786659 -3.45621 1.13628 0 0.198355 0
54 -0.706229 -4.69238 1.98618 -3.14159 -0.0872664 3.14159
55 0.0133305 1.02904 3.61174 0 0 0
56 0.01333 -1.244 2.23877 0 0 0
57 -4.83025 -20.823 -12.4118 -0.0349212 0.00176478 0.00358239
58 0.0129194 0.0367756 6.63003 0 0 0
time 4
0 1.29637 -0.499222 -12.0785 0.000934124 0 -0.959925
1 6.02794 0 0 -0.815147 0.11092 -0.649046
2 11.7344 0 0 -0.00140284 0 -0.977181
3 8.81139 -0.000448227 -0.000112534 -2.36009 0 0.000157176
4 5.77839 0.00028801 0 -1.58126 0 0
5 2.23164 -0.000328064 -0.000364304 -0.778829 0 0
6 11.4725 0 0 -2.28097 0.440669 0.409218
7 0.615221 -0.993091 -0.8107 2.33154 0.49143 -0.467307
8 2.24752 0 0 0.184051 -0.000815332 0.3514
9 1.11936 0 0 0.0719057 0.22699 0.00278394
10 3.71348 -0.10264 0.102191 1.55813 0.550067 0.0727846
11 1.72615 0 0 0.0130938 -0.025346 -0.58864
12 1.21114 0 0 -0.00463511 0.0170164 -0.863412
13 3.5992 -1.06012 0.0708876 1.55942 0.195064 -0.0649502
14 1.66069 0 0 -0.00432473 0.0777451 -0.278549
15 1.167 0 0 -0.023351 0.0241547 -0.401015
16 2.18853 0.50104 0.0576591 1.57004 0.0330459 0.225874
17 1.29609 0 0 0.0245655 -0.039878 -0.741083
18 1.62202 0.000713348 -0.000473022 0.00984858 -0.0234244 -0.831087
19 1.22241 0 0 0.00136072 0.00642036 -0.52186
20 1.76707 1.27612 0.0366411 1.57002 0.262026 0.261241
21 1.55587 0 0 -0.0308128 0.0106454 -0.943666
22 1.24274 0 0 -0.00058344 0.000138453 -0.446635
23 0.784523 0 0 0.0133279 0.00939338 -0.326309
24 -3.6471 7.74038 -3.8527 -0.000932693 0 -2.0944
25 6.02794 0 0 0.632502 0.987949 -0.101569
26 11.7344 0 0 0.00140252 0 1.72223
27 8.81167 0 0 0.121304 0 0
28 5.77884 0 0 0.081274 0 0
29 2.23249 0 0 0.0400305 0 0
30 11.4725 0 0 0.388321 -0.252377 -0.773915
31 0.615814 0.994373 -0.809165 -2.95367 0.480861 0.223812
32 2.24752 0 0 -0.083166 0.257048 0.264172
33 1.11936 0 0 0.106547 0.169507 0.937361
34 3.71349 0.10264 0.10219 -1.53196 0.903048 -0.384383
35 1.72615 0 0 -0.00479616 -0.00187109 1.31044
36 1.21112 0 0 0.00977508 0.0146796 1.18496
37 3.5992 1.06012 0.0708885 -1.55949 0.15616 0.0645017
38 1.66069 0 0 0.0572382 0.0528182 1.04924
39 1.16699 0 0 0.0226732 0.00409377 1.01553
40 2.18853 -0.50104 0.0576591 -1.57003 0.119427 -0.225808
41 1.29609 0 0 0.271417 0.0698929 0.770014
42 1.62202 -0.000713348 -0.000471115 -0.0323156 -0.0109793 1.4179
43 1.22241 0 0 -0.00658512 0.00177667 1.04424
44 1.76707 -1.27612 0.0366406 -1.44072 0.1345 -0.261341
45 1.55588 0 0 0.182858 0.0427367 0.752106
46 1.24273 0 0 0.000591727 0 0.838875
47 0.784532 0 0 -0.00599214 0.000868376 1.11469
48 0 0 0 0 0 0
49 -4.85898 -15.5888 -7.4729 -0.0095599 0.000630623 0.00567488
50 0 -1.56487 0.00508118 0.174533 0 0
51 -0.00195932 3.96104 2.21118 0 0 0
52 0.641596 -0.666147 0.751661 0 0 0
53 0.786658 -3.4562 1.13628 0 0.198355 0
54 -0.70623 -4.69238 1.98618 -3.14159 -0.0872664 -3.14159
55 0.01333 1.02904 3.61174 0 0 0
56 0.01333 -1.24399 2.23877 0 0 0
57 -4.83492 -20.8355 -12.545 -0.00983893 0.00089944 0.0057339
58 0.0129194 0.0367718 6.63003 0 0 0
time 5
0 1.29637 -0.499222 -12.0785 0.000934124 0 -0.959925
1 6.02794 0 0 -0.815649 0.105876 -0.661956
2 11.7344 0 0 -0.00140291 0 -0.924185
3 8.81139 -0.000448227 -0.000111103 -2.35736 0 0.000157138
4 5.77839 0.000284195 0 -1.57943 0 0
5 2.23164 -0.000329971 -0.00036335 -0.777928 0 0
6 11.4725 0 0 -2.28877 0.448956 0.384272
7 0.615219 -0.99309 -0.8107 2.33154 0.49143 -0.467307
8 2.24752 0 0 0.184051 -0.000815431 0.3514
9 1.11936 0 0 0.0719057 0.22699 0.00278422
10 3.71348 -0.10264 0.10219 1.55813 0.550067 0.0727846
11 1.72615 0 0 0.0130938 -0.025346 -0.58864
12 1.21114 0 0 -0.0046352 0.0170163 -0.863412
13 3.59919 -1.06012 0.0708876 1.55942 0.195064 -0.0649502
14 1.66069 0 0 -0.00432463 0.0777452 -0.278549
15 1.167 0 0 -0.0233511 0.0241549 -0.401015
16 2.18852 0.50104 0.0576582 1.57004 0.0330458 0.225874
17 1.29609 0 0 0.0245655 -0.039878 -0.741083
18 1.62202 0.000713348 -0.000469208 0.00984855 -0.0234245 -0.831087
19 1.22241 0 0 0.00136074 0.00642049 -0.52186
20 1.76707 1.27612 0.0366402 1.57002 0.262026 0.261241
21 1.55588 0 0 -0.0308127 0.0106457 -0.943666
22 1.24273 0 0 -0.000583485 0.000138382 -0.446635
23 0.784524 0 0 0.0133279 0.00939344 -0.326309
24 -3.6471 7.74038 -3.8527 -0.000932693 0 -2.0944
25 6.02794 0 0 0.669794 0.970748 -0.0679681
26 11.7344 0 0 0.00140278 0 1.68983
27 8.81167 0 0 0.128239 0 0
28 5.77884 0 0 0.0859201 0 0
29 2.23249 0 0 0.0423188 0 0
30 11.4725 0 0 0.387242 -0.230619 -0.788098
31 0.615813 0.994373 -0.809165 -2.95367 0.480861 0.223812
32 2.24752 0 0 -0.0831659 0.257048 0.264173
33 1.11936 0 0 0.106547 0.169508 0.93736
34 3.71349 0.102639 0.102191 -1.53196 0.903047 -0.384383
35 1.72615 0 0 -0.00479619 -0.0018711 1.31044
36 1.21112 0 0 0.00977509 0.0146796 1.18496
37 3.5992 1.06012 0.070889 -1.55949 0.15616 0.0645016
38 1.66069 0 0 0.0572382 0.0528182 1.04923
39 1.16699 0 0 0.0226733 0.00409381 1.01553
40 2.18853 -0.50104 0.0576591 -1.57003 0.119427 -0.225808
41 1.29609 0 0 0.271417 0.0698929 0.770014
42 1.62202 -0.000715256 -0.000469685 -0.0323156 -0.0109794 1.4179
43 1.22241 0 0 -0.00658514 0.00177677 1.04424
44 1.76707 -1.27612 0.0366411 -1.44072 0.1345 -0.261341
45 1.55588 0 0 0.182858 0.0427367 0.752105
46 1.24273 0 0 0.000591989 0 0.838875
47 0.784532 0 0 -0.00599211 0.000868454 1.11469
48 0 0 0 0 0 0
49 -4.88287 -15.9446 -7.47288 0.0156146 0 0.0066567
50 0 -1.56487 0.0050807 0.174533 0 0
51 -0.0019598 3.96104 2.21118 0 0 0
52 0.641596 -0.666147 0.75166 0 0 0
53 0.786658 -3.45621 1.13628 0 0.198355 0
54 -0.706229 -4.69238 1.98618 -3.14159 -0.0872663 3.14159
55 0.0133305 1.02904 3.61174 0 0 0
56 0.01333 -1.24399 2.23877 0 0 0
57 -4.85138 -21.0619 -12.6754 0.0153355 0.000279051 0.00672246
58 0.0129189 0.0367718 6.63003 0 0 0
time 6
0 1.29637 -0.499222 -12.0785 0.000934124 0 -0.959925
1 6.02794 0 0 -0.817133 0.0898458 -0.680477
2 11.7344 0 0 -0.00140284 0 -0.854012
3 8.81138 -0.000448227 -0.000112057 -2.34847 0 0.000157208
4 5.77839 0.000286102 0 -1.57347 0 0
5 2.23163 -0.000328064 -0.00036478 -0.774994 0 0
6 11.4725 0 0 -2.29731 0.45145 0.342162
7 0.615217 -0.99309 -0.8107 2.33154 0.49143 -0.467307
8 2.24752 0 0 0.184051 -0.000815269 0.3514
9 1.11936 0 0 0.0719057 0.22699 0.002784
10 3.71348 -0.102641 0.102191 1.55813 0.550067 0.0727846
11 1.72615 0 0 0.0130939 -0.0253458 -0.58864
12 1.21114 0 0 -0.00463515 0.0170163 -0.863412
13 3.59919 -1.06012 0.0708885 1.55942 0.195064 -0.06495
14 1.66069 0 0 -0.00432479 0.0777451 -0.278549
15 1.167 0 0 -0.0233509 0.024155 -0.401015
16 2.18852 0.501039 0.0576591 1.57004 0.0330459 0.225874
17 1.29609 0 0 0.0245655 -0.039878 -0.741083
18 1.62202 0.000715256 -0.000469208 0.00984877 -0.0234245 -0.831087
19 1.22241 0 0 0.0013607 0.00642029 -0.52186
20 1.76707 1.27612 0.0366411 1.57002 0.262026 0.261241
21 1.55588 0 0 -0.0308127 0.0106458 -0.943666
22 1.24274 0 0 -0.000583472 0.000138324 -0.446635
23 0.784523 0 0 0.0133279 0.00939344 -0.326309
24 -3.6471 7.74038 -3.8527 -0.000932693 0 -2.0944
25 6.02794 0 0 0.706433 0.95147 -0.0331805
26 11.7344 0 0 0.00140277 0 1.6486
27 8.81167 0 0 0.132261 0 0
28 5.77884 0 0 0.0886152 0 0
29 2.23249 0 0 0.0436463 0 0
30 11.4725 0 0 0.380388 -0.218694 -0.784165
31 0.615813 0.994373 -0.809165 -2.95367 0.480861 0.223813
32 2.24752 0 0 -0.0831661 0.257048 0.264173
33 1.11936 0 0 0.106547 0.169507 0.93736
34 3.71349 0.10264 0.102191 -1.53196 0.903047 -0.384383
35 1.72615 0 0 -0.00479618 -0.00187099 1.31044
36 1.21112 0 0 0.00977503 0.0146795 1.18496
37 3.5992 1.06012 0.0708885 -1.55949 0.15616 0.0645017
38 1.66069 0 0 0.055412 0.0547311 1.01526
39 1.16699 0 0 0.0227595 0.00495231 0.981561
40 2.18853 -0.50104 0.0576594 -1.57003 0.119427 -0.225808
41 1.29609 0 0 0.271417 0.0698929 0.770014
42 1.62202 -0.000713348 -0.000468731 -0.0323156 -0.0109794 1.4179
43 1.22241 0 0 -0.00658512 0.00177679 1.04424
44 1.76707 -1.27612 0.0366406 -1.44072 0.1345 -0.261341
45 1.55588 0 0 0.182858 0.0427367 0.752105
46 1.24273 0 0 0.000591956 0 0.838876
47 0.784532 0 0 -0.00599222 0.000868516 1.11469
48 0 0 0 0 0 0
49 -4.9068 -16.3425 -7.47286 0.0271661 0.00444658 0.00617108
50 0 -1.58655 0.00508022 0.147262 0 0
51 -0.0019598 3.96104 2.21118 0 0 0
52 0.641596 -0.666147 0.75166 0 0 0
53 0.786659 -3.45621 1.13628 0 0.198355 0
54 -0.70623 -4.69238 1.98618 3.14159 -0.0872664 -3.14159
55 0.01333 1.02904 3.61174 0 0 0
56 0.0133305 -1.24399 2.23877 0 0 0
57 -4.9015 -21.3995 -12.7341 0.0268874 0.00471305 0.00623993
58 0.0129189 0.0367737 6.63003 0 0 0
time 7
0 1.29637 -0.499222 -12.0785 0.000934124 0 -0.959925
1 6.02794 0 0 -0.818308 0.0746704 -0.696074
2 11.7344 0 0 -0.00140282 0 -0.799991
3 8.81139 -0.000448227 -0.00011158 -2.34365 0 0.000157757
4 5.77839 0.00028801 0 -1.57025 0 0
5 2.23164 -0.000328064 -0.000364304 -0.773405 0 0
6 11.4725 0 0 -2.3065 0.44883 0.304597
7 0.615221 -0.993092 -0.8107 2.33154 0.49143 -0.467307
8 2.24752 0 0 0.184051 -0.000815408 0.3514
9 1.11936 0 0 0.0719057 0.22699 0.00278391
10 3.71348 -0.102642 0.102191 1.55813 0.550067 0.0727844
11 1.72615 0 0 0.0130937 -0.0253459 -0.58864
12 1.21114 0 0 -0.0046352 0.0170163 -0.863412
13 3.59919 -1.06012 0.0708876 1.55942 0.195064 -0.0649502
14 1.66069 0 0 -0.00432458 0.0777453 -0.278549
15 1.167 0 0 -0.0233512 0.0241547 -0.401015
16 2.18853 0.50104 0.0576582 1.57004 0.0330458 0.225874
17 1.29609 0 0 0.0245657 -0.039878 -0.741083
18 1.62202 0.000713348 -0.000471115 0.00984849 -0.0234247 -0.831087
19 1.22241 0 0 0.00136067 0.00642053 -0.52186
20 1.76707 1.27612 0.0366402 1.57002 0.262026 0.261241
21 1.55588 0 0 -0.0308128 0.0106455 -0.943666
22 1.24274 0 0 -0.000583628 0.000138472 -0.446636
23 0.784523 0 0 0.0133279 0.00939339 -0.326309
24 -3.6471 7.74038 -3.8527 -0.000932693 0 -2.0944
25 6.02794 0 0 0.728728 0.938514 -0.0115625
26 11.7344 0 0 0.00140268 0 1.61951
27 8.81167 0 0 0.129405 0 0
28 5.77884 0 0 0.0867015 0 0
29 2.23249 0 0 0.0427038 0 0
30 11.4725 0 0 0.370451 -0.216715 -0.774814
31 0.615812 0.994373 -0.809165 -2.95367 0.480861 0.223813
32 2.24752 0 0 -0.083166 0.257048 0.264173
33 1.11936 0 0 0.106547 0.169507 0.937361
34 3.71348 0.10264 0.102191 -1.53196 0.903047 -0.384383
35 1.72615 0 0 -0.00479611 -0.0018711 1.31044
36 1.21112 0 0 0.00977509 0.0146796 1.18496
37 3.5992 1.06012 0.0708883 -1.55949 0.15616 0.0645017
38 1.66069 0 0 0.0511715 0.0587147 0.940499
39 1.16699 0 0 0.0227603 0.00679486 0.906832
40 2.18853 -0.50104 0.0576589 -1.57003 0.119427 -0.225808
41 1.29609 0 0 0.271417 0.069893 0.770014
42 1.62202 -0.000713348 -0.000468731 -0.0323155 -0.0109793 1.4179
43 1.22241 0 0 -0.00658514 0.00177677 1.04424
44 1.76707 -1.27612 0.0366399 -1.44072 0.1345 -0.261341
45 1.55588 0 0 0.182858 0.0427366 0.752106
46 1.24273 0 0 0.000591846 0 0.838876
47 0.784532 0 0 -0.0059921 0.00086843 1.11469
48 0 0 0 0 0 0
49 -4.92658 -16.6069 -7.47285 0.0287682 0.0129809 0.00412648
50 0 -1.63422 0.00508022 0.0872664 0 0
51 -0.00196028 3.96104 2.21118 0 0 0
52 0.641596 -0.666147 0.75166 0 0 0
53 0.786658 -3.45621 1.13628 0 0.198355 0
54 -0.70623 -4.69238 1.98618 3.14159 -0.0872664 -3.14159
55 0.0133295 1.02904 3.61174 0 0 0
56 0.0133295 -1.24399 2.23877 0 0 0
57 -4.97666 -21.6557 -12.7418 0.0284901 0.0132473 0.00419576
58 0.0129194 0.0367699 6.63004 0 0 0
time 8
0 1.29637 -0.499222 -12.0785 0.000934124 0 -0.959925
1 6.02794 0 0 -0.819008 0.0639097 -0.706604
2 11.7344 0 0 -0.00140285 0 -0.767941
3 8.81139 -0.000452042 -0.00011158 -2.34299 0 0.000157251
4 5.77839 0.000286102 0 -1.5698 0 0
5 2.23164 -0.000329971 -0.00036335 -0.773187 0 0
6 11.4725 0 0 -2.3146 0.443274 0.278032
7 0.615219 -0.993092 -0.8107 2.33154 0.49143 -0.467307
8 2.24752 0 0 0.184051 -0.000815315 0.3514
9 1.11936 0 0 0.0719058 0.22699 0.00278414
10 3.71348 -0.102642 0.102191 1.55813 0.550067 0.0727844
11 1.72615 0 0 0.0130939 -0.0253459 -0.58864
12 1.21114 0 0 -0.00463514 0.0170164 -0.863412
13 3.59919 -1.06012 0.0708885 1.55942 0.195064 -0.0649501
14 1.66069 0 0 -0.00432487 0.0777452 -0.278548
15 1.167 0 0 -0.0233511 0.0241546 -0.401015
16 2.18852 0.50104 0.0576591 1.57004 0.0330458 0.225874
17 1.29609 0 0 0.0245656 -0.039878 -0.741083
18 1.62202 0.000713348 -0.000471115 0.0098487 -0.0234247 -0.831087
19 1.22241 0 0 0.00136076 0.00642043 -0.52186
20 1.76707 1.27612 0.0366411 1.57002 0.262026 0.261241
21 1.55588 0 0 -0.0308128 0.0106457 -0.943666
22 1.24274 0 0 -0.000583543 0.000138369 -0.446636
23 0.784524 0 0 0.013328 0.00939346 -0.326309
24 -3.6471 7.74038 -3.8527 -0.000932693 0 -2.0944
25 6.02794 0 0 0.738763 0.93242 -0.00207719
26 11.7344 0 0 0.00140267 0 1.60435
27 8.81167 0 0 0.12261 0 0
28 5.77884 0 0 0.0821487 0 0
29 2.23249 0 0 0.0404614 0 0
30 11.4725 0 0 0.360087 -0.220475 -0.76476
31 0.615814 0.994373 -0.809165 -2.95367 0.480861 0.223813
32 2.24752 0 0 -0.083166 0.257048 0.264173
33 1.11936 0 0 0.106547 0.169507 0.937361
34 3.71349 0.10264 0.102191 -1.53196 0.903047 -0.384383
35 1.72615 0 0 -0.00479611 -0.00187112 1.31044
36 1.21112 0 0 0.00977515 0.0146795 1.18496
37 3.5992 1.06012 0.0708888 -1.55949 0.15616 0.0645018
38 1.66069 0 0 0.0466437 0.0623708 0.865701
39 1.16699 0 0 0.0225056 0.00855784 0.832102
40 2.18853 -0.501041 0.0576587 -1.57003 0.119427 -0.225808
41 1.29609 0 0 0.271416 0.0698928 0.770014
42 1.62202 -0.000713348 -0.000470161 -0.0323155 -0.0109795 1.4179
43 1.22241 0 0 -0.00658504 0.00177669 1.04424
44 1.76707 -1.27612 0.0366404 -1.44072 0.1345 -0.261341
45 1.55587 0 0 0.182858 0.0427366 0.752105
46 1.24273 0 0 0.00059197 0 0.838876
47 0.784531 0 0 -0.00599215 0.000868494 1.11469
48 0 0 0 0 0 0
49 -4.94657 -16.7358 -7.47282 0.0244627 0.0226953 0.00139158
50 0 -1.6819 0.0050807 0.0272705 0 0
51 -0.0019598 3.96104 2.21118 0 0 0
52 0.641596 -0.666149 0.75166 0 0 0
53 0.786658 -3.45621 1.13628 0 0.198355 0
54 -0.706229 -4.69238 1.98618 3.14159 -0.0872664 3.14159
55 0.01333 1.02904 3.61174 0 0 0
56 0.01333 -1.24399 2.23877 0 0 0
57 -5.06111 -21.8071 -12.719 0.0241851 0.0229619 0.00145974
58 0.0129194 0.0367718 5.95713 0 0 0
time 9
0 1.29637 -0.499222 -12.0785 0.000934124 0 -0.959925
1 6.02794 0 0 -0.819618 0.0527235 -0.716707
2 11.7344 0 0 -0.00140279 0 -0.737767
3 8.81138 -0.000448227 -0.000112057 -2.34083 0 0.000157635
4 5.77839 0.00028801 0 -1.56836 0 0
5 2.23163 -0.000328064 -0.00036335 -0.772475 0 0
6 11.4725 0 0 -2.32032 0.437827 0.253477
7 0.615221 -0.993091 -0.8107 2.33154 0.49143 -0.467307
8 2.24752 0 0 0.184051 -0.000815336 0.3514
9 1.11935 0 0 0.0719057 0.22699 0.00278394
10 3.71348 -0.10264 0.102191 1.55813 0.550067 0.0727845
11 1.72615 0 0 0.0130937 -0.025346 -0.58864
12 1.21114 0 0 -0.00463515 0.0170162 -0.863412
13 3.5992 -1.06012 0.0708885 1.55942 0.195064 -0.0649502
14 1.66069 0 0 -0.0043248 0.0777451 -0.278549
15 1.167 0 0 -0.0233511 0.0241547 -0.401015
16 2.18853 0.50104 0.0576591 1.57004 0.0330458 0.225874
17 1.29609 0 0 0.0245655 -0.0398781 -0.741083
18 1.62202 0.000715256 -0.000471115 0.00984861 -0.0234245 -0.831087
19 1.22241 0 0 0.00136073 0.0064203 -0.52186
20 1.76707 1.27612 0.0366411 1.57002 0.262026 0.261241
21 1.55588 0 0 -0.0308127 0.0106456 -0.943666
22 1.24274 0 0 -0.000583427 0.000138395 -0.446635
23 0.784524 0 0 0.0133279 0.00939332 -0.326309
24 -3.6471 7.74038 -3.8527 -0.000932693 0 -2.0944
25 6.02794 0 0 0.746772 0.927426 0.00542817
26 11.7344 0 0 0.00140271 0 1.59098
27 8.81167 0 0 0.117333 0 0
28 5.77884 0 0 0.0786131 0 0
29 2.23249 0 0 0.0387199 0 0
30 11.4725 0 0 0.351387 -0.224907 -0.753174
31 0.615811 0.994373 -0.809165 -2.95367 0.480861 0.223812
32 2.24752 0 0 -0.083166 0.257048 0.264172
33 1.11936 0 0 0.106547 0.169507 0.93736
34 3.71349 0.10264 0.102191 -1.53196 0.903048 -0.384383
35 1.72615 0 0 -0.00479619 -0.00187102 1.31044
36 1.21112 0 0 0.00977503 0.0146795 1.18496
37 3.5992 1.06012 0.0708878 -1.55949 0.15616 0.0645016
38 1.66069 0 0 0.0444974 0.0639187 0.831692
39 1.16699 0 0 0.0223072 0.00932779 0.798134
40 2.18853 -0.50104 0.0576587 -1.57003 0.119427 -0.225808
41 1.29609 0 0 0.271416 0.0698929 0.770013
42 1.62202 -0.000713348 -0.000470638 -0.0323154 -0.0109794 1.4179
43 1.22241 0 0 -0.00658514 0.00177675 1.04424
44 1.76707 -1.27612 0.0366406 -1.44072 0.1345 -0.261341
45 1.55588 0 0 0.182858 0.0427367 0.752106
46 1.24273 0 0 0.000591873 0 0.838876
47 0.784531 0 0 -0.00599215 0.000868304 1.11469
48 0 0 0 0 0 0
49 -4.9681 -16.8469 -7.4728 0.0182913 0.03067 -0.00116492
50 0 -1.70357 0.00508118 0 0 0
51 -0.00196028 3.96104 2.21118 0 0 0
52 0.641597 -0.666147 0.75166 0 0 0
53 0.786658 -3.4562 1.13628 0 0.198355 0
54 -0.70623 -4.69238 1.98618 -3.14159 -0.0872664 3.14159
55 0.01333 1.02904 3.61174 0 0 0
56 0.0133295 -1.24399 2.23877 0 0 0
57 -5.13652 -21.9501 -12.6865 0.0180143 0.0309371 -0.00109841
58 0.0129194 0.0367718 5.95712 0 0 0
time 10
0 1.29637 -0.499222 -12.0785 0.000934124 0 -0.959925
1 6.02794 0 0 -0.820042 0.0432323 -0.724906
2 11.7344 0 0 -0.00140282 0 -0.711924
3 8.81139 -0.000450134 -0.00011158 -2.3368 0 0.000156682
4 5.77839 0.00028801 0 -1.56566 0 0
5 2.23164 -0.000329971 -0.000363827 -0.771144 0 0
6 11.4725 0 0 -2.32233 0.435369 0.235111
7 0.615221 -0.993092 -0.810701 2.33154 0.49143 -0.467307
8 2.24752 0 0 0.184051 -0.00081534 0.3514
9 1.11936 0 0 0.0719058 0.22699 0.00278403
10 3.71348 -0.102641 0.10219 1.55813 0.550067 0.0727845
11 1.72615 0 0 0.0130937 -0.0253458 -0.58864
12 1.21114 0 0 -0.00463504 0.0170163 -0.863412
13 3.59919 -1.06012 0.0708876 1.55942 0.195064 -0.0649501
14 1.66069 0 0 -0.00432473 0.0777451 -0.278548
15 1.167 0 0 -0.023351 0.024155 -0.401015
16 2.18853 0.501038 0.0576582 1.57004 0.0330458 0.225874
17 1.29609 0 0 0.0245655 -0.039878 -0.741084
18 1.62202 0.000715256 -0.000473022 0.00984852 -0.0234241 -0.831087
19 1.22241 0 0 0.00136089 0.0064204 -0.52186
20 1.76707 1.27612 0.0366402 1.57002 0.262026 0.261241
21 1.55588 0 0 -0.0308128 0.0106457 -0.943666
22 1.24274 0 0 -0.000583633 0.000138226 -0.446636
23 0.784523 0 0 0.0133279 0.00939356 -0.326309
24 -3.6471 7.74038 -3.8527 -0.000932693 0 -2.0944
25 6.02794 0 0 0.753842 0.922833 0.0124224
26 11.7344 0 0 0.00140267 0 1.57906
27 8.81167 0 0 0.116333 0 0
28 5.77884 0 0 0.0779434 0 0
29 2.23249 0 0 0.03839 0 0
30 11.4725 0 0 0.347445 -0.227098 -0.744249
31 0.615812 0.994373 -0.809165 -2.95367 0.480861 0.223813
32 2.24752 0 0 -0.0831659 0.257048 0.264173
33 1.11936 0 0 0.106547 0.169507 0.937361
34 3.71348 0.10264 0.102191 -1.53196 0.903048 -0.384383
35 1.72615 0 0 -0.00479615 -0.00187115 1.31044
36 1.21112 0 0 0.00977508 0.0146796 1.18496
37 3.5992 1.06012 0.0708885 -1.55949 0.15616 0.0645017
38 1.66069 0 0 0.0444974 0.0639187 0.831692
39 1.16699 0 0 0.0223071 0.00932779 0.798134
40 2.18853 -0.50104 0.0576594 -1.57003 0.119427 -0.225808
41 1.29609 0 0 0.271417 0.0698929 0.770013
42 1.62202 -0.000713348 -0.000469685 -0.0323155 -0.0109794 1.4179
43 1.22241 0 0 -0.00658513 0.0017768 1.04424
44 1.76707 -1.27612 0.0366406 -1.44072 0.1345 -0.261341
45 1.55588 0 0 0.182858 0.0427366 0.752105
46 1.24273 0 0 0.000591853 0 0.838876
47 0.784532 0 0 -0.00599209 0.00086836 1.11469
48 0 0 0 0 0 0
49 -4.98248 -16.9442 -7.47278 0.014296 0.0339854 -0.00267435
50 0 -1.70357 0.0050807 0 0 0
51 -0.0019598 3.96104 2.21118 0 0 0
52 0.641596 -0.666145 0.75166 0 0 0
53 0.786658 -3.45621 1.13628 0 0.198355 0
54 -0.70623 -4.69238 1.98618 -3.14159 -0.0872663 -3.14159
55 0.01333 1.02904 3.61174 0 0 0
56 0.0133295 -1.24399 2.23877 0 0 0
57 -5.17524 -22.068 -12.6655 0.0140191 0.0342528 -0.0026089
58 0.0129194 0.0367699 5.95713 0 0 0
time 11
0 1.29637 -0.499222 -12.0785 0.000934124 0 -0.959925
1 6.02794 0 0 -0.820337 0.0350545 -0.73075
2 11.7344 0 0 -0.00140283 0 -0.690243
3 8.81138 -0.000448227 -0.000112534 -2.32913 0 0.000157123
4 5.77839 0.000286102 0 -1.56051 0 0
5 2.23163 -0.000328064 -0.000364304 -0.768612 0 0
6 11.4725 0 0 -2.31923 0.436877 0.223286
7 0.615219 -0.993093 -0.810699 2.33154 0.49143 -0.467307
8 2.24752 0 0 0.184051 -0.000815321 0.3514
9 1.11936 0 0 0.0719059 0.22699 0.00278397
10 3.71348 -0.102641 0.102191 1.55813 0.550067 0.0727846
11 1.72615 0 0 0.0130937 -0.025346 -0.58864
12 1.21114 0 0 -0.00463507 0.0170163 -0.863412
13 3.59919 -1.06012 0.0708885 1.55942 0.195064 -0.0649501
14 1.66069 0 0 -0.00432476 0.0777453 -0.278548
15 1.167 0 0 -0.023351 0.0241547 -0.401015
16 2.18853 0.501039 0.0576591 1.57004 0.0330458 0.225873
17 1.29609 0 0 0.0245655 -0.039878 -0.741083
18 1.62202 0.000715256 -0.000471115 0.00984858 -0.0234246 -0.831087
19 1.22241 0 0 0.00136086 0.0064204 -0.52186
20 1.76707 1.27612 0.0366411 1.57002 0.262026 0.261241
21 1.55588 0 0 -0.0308128 0.0106456 -0.943666
22 1.24274 0 0 -0.000583387 0.000138221 -0.446636
23 0.784523 0 0 0.0133278 0.00939348 -0.326309
24 -3.6471 7.74038 -3.8527 -0.000932693 0 -2.0944
25 6.02794 0 0 0.759957 0.918545 0.0195888
26 11.7344 0 0 0.00140265 0 1.56819
27 8.81167 0 0 0.121018 0 0
28 5.77884 0 0 0.0810823 0 0
29 2.23249 0 0 0.0399361 0 0
30 11.4725 0 0 0.349975 -0.22741 -0.73766
31 0.615812 0.994373 -0.809165 -2.95367 0.480861 0.223812
32 2.24752 0 0 -0.0831659 0.257048 0.264173
33 1.11936 0 0 0.106547 0.169507 0.93736
34 3.71348 0.10264 0.102191 -1.53196 0.903047 -0.384383
35 1.72615 0 0 -0.00479626 -0.00187108 1.31044
36 1.21112 0 0 0.00977507 0.0146796 1.18496
37 3.5992 1.06012 0.0708888 -1.55949 0.156159 0.0645016
38 1.66069 0 0 0.0444974 0.0639188 0.831692
39 1.16699 0 0 0.0223072 0.00932781 0.798134
40 2.18853 -0.501041 0.0576591 -1.57003 0.119427 -0.225808
41 1.29609 0 0 0.271417 0.0698929 0.770014
42 1.62202 -0.000713348 -0.000469685 -0.0323155 -0.0109795 1.4179
43 1.22241 0 0 -0.00658512 0.00177677 1.04424
44 1.76707 -1.27612 0.0366409 -1.44072 0.1345 -0.261341
45 1.55588 0 0 0.182858 0.0427366 0.752105
46 1.24273 0 0 0.000591931 0 0.838875
47 0.784531 0 0 -0.00599212 0.000868488 1.11469
48 0 0 0 0 0 0
49 -4.981 -17.0319 -7.47275 0.0120629 0.0311206 -0.00292177
50 0 -1.70357 0.00508118 0 0 0
51 -0.0019598 3.96104 2.21118 0 0 0
52 0.641596 -0.666147 0.751661 0 0 0
53 0.786659 -3.4562 1.13628 0 0.198355 0
54 -0.70623 -4.69238 1.98618 3.14159 -0.0872663 -3.14159
55 0.0133305 1.02904 3.61174 0 0 0
56 0.0133295 -1.24399 2.23877 0 0 0
57 -5.15983 -22.1672 -12.6545 0.0117859 0.0313881 -0.00285691
58 0.0129189 0.0367699 5.95713 0 0 0
time 12
0 1.29637 -0.499222 -12.0785 0.000934124 0 -0.959925
1 6.02794 0 0 -0.820566 0.0270837 -0.734251
2 11.7344 0 0 -0.00140286 0 -0.671884
3 8.81139 -0.000450134 -0.000112057 -2.31805 0 0.00015648
4 5.77839 0.000284195 0 -1.55309 0 0
5 2.23164 -0.000329971 -0.000364304 -0.764955 0 0
6 11.4725 0 0 -2.31216 0.440919 0.214992
7 0.615221 -0.993091 -0.8107 2.33154 0.49143 -0.467307
8 2.24752 0 0 0.184051 -0.000815297 0.3514
9 1.11936 0 0 0.0719057 0.22699 0.00278402
10 3.71348 -0.10264 0.102191 1.55813 0.550067 0.0727846
11 1.72615 0 0 0.0130937 -0.0253459 -0.58864
12 1.21114 0 0 -0.00463503 0.0170165 -0.863412
13 3.59919 -1.06012 0.0708876 1.55942 0.195064 -0.06495
14 1.66069 0 0 -0.00432477 0.0777453 -0.278549
15 1.167 0 0 -0.023351 0.0241548 -0.401015
16 2.18852 0.50104 0.0576591 1.57004 0.0330459 0.225874
17 1.29609 0 0 0.0245655 -0.039878 -0.741084
18 1.62202 0.000715256 -0.000469208 0.0098486 -0.0234246 -0.831087
19 1.22241 0 0 0.00136061 0.00642051 -0.52186
20 1.76707 1.27612 0.0366411 1.57002 0.262026 0.261241
21 1.55588 0 0 -0.0308129 0.0106457 -0.943666
22 1.24274 0 0 -0.000583414 0.000138337 -0.446636
23 0.784523 0 0 0.013328 0.0093934 -0.326309
24 -3.6471 7.74038 -3.8527 -0.000932693 0 -2.0944
25 6.02794 0 0 0.764941 0.914548 0.02757
26 11.7344 0 0 0.00140267 0 1.55755
27 8.81167 0 0 0.12942 0 0
28 5.77884 0 0 0.0867117 0 0
29 2.23249 0 0 0.0427089 0 0
30 11.4725 0 0 0.357246 -0.228564 -0.730669
31 0.615813 0.994373 -0.809165 -2.95367 0.480861 0.223812
32 2.24752 0 0 -0.0831661 0.257048 0.264172
33 1.11936 0 0 0.106547 0.169507 0.937361
34 3.71349 0.102639 0.10219 -1.53196 0.903047 -0.384383
35 1.72615 0 0 -0.00479611 -0.00187109 1.31044
36 1.21112 0 0 0.00977507 0.0146797 1.18496
37 3.5992 1.06012 0.070888 -1.55949 0.15616 0.0645017
38 1.66069 0 0 0.0444974 0.0639187 0.831692
39 1.16699 0 0 0.0223071 0.00932777 0.798134
40 2.18853 -0.50104 0.0576591 -1.57003 0.119427 -0.225808
41 1.29609 0 0 0.271417 0.069893 0.770014
42 1.62202 -0.000713348 -0.000469685 -0.0323154 -0.0109794 1.4179
43 1.22241 0 0 -0.00658519 0.0017769 1.04424
44 1.76707 -1.27612 0.0366406 -1.44072 0.1345 -0.261341
45 1.55587 0 0 0.182858 0.0427366 0.752105
46 1.24273 0 0 0.000591889 0 0.838876
47 0.784531 0 0 -0.00599212 0.000868406 1.11469
48 0 0 0 0 0 0
49 -4.95468 -17.1121 -7.47273 0.00889759 0.0240219 -0.00248629
50 0 -1.70357 0.0050807 0 0 0
51 -0.0019598 3.96104 2.21118 0 0 0
52 0.641596 -0.666149 0.75166 0 0 0
53 0.786658 -3.45621 1.13628 0 0.198355 0
54 -0.70623 -4.69238 1.98618 -3.14159 -0.0872664 3.14159
55 0.0133305 1.02904 3.61174 0 0 0
56 0.01333 -1.24399 2.23877 0 0 0
57 -5.09414 -22.264 -12.6392 0.00862004 0.0242896 -0.00242231
58 0.0129189 0.0367699 5.95713 0 0 0
time 13
0 1.29637 -0.499222 -12.0785 0.000934124 0 -0.959925
1 6.02794 0 0 -0.820732 0.0199147 -0.735825
2 11.7344 0 0 -0.001403 0 -0.657092
3 8.81138 -0.000450134 -0.00011301 -2.30579 0 0.000157594
4 5.77839 0.000286102 0 -1.54488 0 0
5 2.23163 -0.000329971 -0.000364304 -0.76091 0 0
6 11.4725 0 0 -2.30333 0.446292 0.209345
7 0.615219 -0.993088 -0.8107 2.33154 0.49143 -0.467307
8 2.24752 0 0 0.184051 -0.000815328 0.3514
9 1.11936 0 0 0.0719058 0.22699 0.00278412
10 3.71348 -0.102641 0.102191 1.55813 0.550067 0.0727844
11 1.72615 0 0 0.0130937 -0.0253459 -0.58864
12 1.21114 0 0 -0.00463507 0.0170163 -0.863412
13 3.59919 -1.06012 0.0708885 1.55942 0.195064 -0.0649503
14 1.66069 0 0 -0.00432468 0.0777452 -0.278549
15 1.167 0 0 -0.0233512 0.0241548 -0.401015
16 2.18852 0.50104 0.0576591 1.57004 0.0330459 0.225874
17 1.2961 0 0 0.0245653 -0.0398781 -0.741083
18 1.62202 0.000713348 -0.000473022 0.00984858 -0.0234246 -0.831087
19 1.22241 0 0 0.00136073 0.00642042 -0.52186
20 1.76707 1.27612 0.0366411 1.57002 0.262026 0.261241
21 1.55588 0 0 -0.0308129 0.0106454 -0.943666
22 1.24273 0 0 -0.000583382 0.000138466 -0.446635
23 0.784523 0 0 0.013328 0.00939334 -0.326309
24 -3.6471 7.74038 -3.8527 -0.000932693 0 -2.0944
25 6.02794 0 0 0.76889 0.910946 0.0358014
26 11.7344 0 0 0.00140262 0 1.54773
27 8.81167 0 0 0.139325 0 0
28 5.77884 0 0 0.0933479 0 0
29 2.23249 0 0 0.0459773 0 0
30 11.4725 0 0 0.366877 -0.230456 -0.724118
31 0.615812 0.994373 -0.809166 -2.95367 0.480861 0.223812
32 2.24752 0 0 -0.0831661 0.257048 0.264173
33 1.11936 0 0 0.106547 0.169507 0.937361
34 3.71348 0.10264 0.10219 -1.53196 0.903047 -0.384383
35 1.72615 0 0 -0.00479625 -0.00187102 1.31044
36 1.21112 0 0 0.00977503 0.0146796 1.18496
37 3.5992 1.06012 0.070888 -1.55949 0.156159 0.0645016
38 1.66069 0 0 0.0444974 0.0639187 0.831692
39 1.16699 0 0 0.0223072 0.00932776 0.798133
40 2.18853 -0.501041 0.0576584 -1.57003 0.119427 -0.225808
41 1.29609 0 0 0.271417 0.0698929 0.770014
42 1.62202 -0.000711441 -0.000469685 -0.0323156 -0.0109795 1.4179
43 1.22241 0 0 -0.00658506 0.00177668 1.04424
44 1.76707 -1.27612 0.0366404 -1.44072 0.1345 -0.261341
45 1.55588 0 0 0.182858 0.0427366 0.752105
46 1.24273 0 0 0.000591974 0 0.838876
47 0.784531 0 0 -0.00599228 0.000868468 1.11469
48 0 0 0 0 0 0
49 -4.91039 -17.1824 -7.47271 0.0054206 0.0149709 -0.00169034
50 0 -1.70357 0.0050807 0 0 0
51 -0.0019598 3.96104 2.21118 0 0 0
52 0.641596 -0.666147 0.75166 0 0 0
53 0.786658 -3.45621 1.13628 0 0.198355 0
54 -0.70623 -4.69238 1.98618 -3.14159 -0.0872664 -3.14159
55 0.01333 1.02904 3.61174 0 0 0
56 0.0133295 -1.24399 2.23877 0 0 0
57 -4.99873 -22.3524 -12.6222 0.00514251 0.0152388 -0.00162729
58 0.0129194 0.0367718 5.95713 0 0 0
time 14
0 1.29637 -0.499222 -12.0785 0.000934124 0 -0.959925
1 6.02794 0 0 -0.820847 0.0139892 -0.736385
2 11.7344 0 0 -0.0014029 0 -0.645656
3 8.81138 -0.000452042 -0.000112534 -2.29456 0 0.000157354
4 5.77839 0.000286102 0 -1.53735 0 0
5 2.23163 -0.000329971 -0.00036335 -0.757204 0 0
6 11.4725 0 0 -2.29487 0.451553 0.205496
7 0.615219 -0.993093 -0.8107 2.33154 0.49143 -0.467307
8 2.24752 0 0 0.184052 -0.000815425 0.3514
9 1.11936 0 0 0.0719055 0.22699 0.00278394
10 3.71348 -0.102642 0.102191 1.55813 0.550067 0.0727848
11 1.72615 0 0 0.0130937 -0.0253459 -0.58864
12 1.21114 0 0 -0.00463504 0.0170164 -0.863412
13 3.59919 -1.06012 0.0708876 1.55942 0.195064 -0.0649501
14 1.66069 0 0 -0.00432463 0.0777452 -0.278549
15 1.167 0 0 -0.0233512 0.0241547 -0.401015
16 2.18852 0.50104 0.0576591 1.57004 0.0330458 0.225874
17 1.29609 0 0 0.0245655 -0.0398778 -0.741083
18 1.62202 0.000713348 -0.000473022 0.00984881 -0.0234246 -0.831087
19 1.22241 0 0 0.0013607 0.00642029 -0.52186
20 1.76707 1.27612 0.0366411 1.57002 0.262026 0.261241
21 1.55588 0 0 -0.0308127 0.0106456 -0.943666
22 1.24274 0 0 -0.000583543 0.000138369 -0.446636
23 0.784523 0 0 0.0133278 0.00939331 -0.326309
24 -3.6471 7.74038 -3.8527 -0.000932693 0 -2.0944
25 6.02794 0 0 0.771903 0.907951 0.0431603
26 11.7344 0 0 0.00140271 0 1.53948
27 8.81167 0 0 0.14864 0 0
28 5.77884 0 0 0.0995887 0 0
29 2.23249 0 0 0.0490511 0 0
30 11.4725 0 0 0.376297 -0.232511 -0.718622
31 0.615813 0.994372 -0.809165 -2.95367 0.480861 0.223813
32 2.24752 0 0 -0.083166 0.257048 0.264173
33 1.11936 0 0 0.106547 0.169507 0.937361
34 3.71349 0.10264 0.102191 -1.53196 0.903048 -0.384383
35 1.72615 0 0 -0.00479616 -0.00187108 1.31044
36 1.21112 0 0 0.00977502 0.0146797 1.18496
37 3.5992 1.06012 0.070888 -1.55949 0.15616 0.0645017
38 1.66069 0 0 0.0444974 0.0639187 0.831692
39 1.16699 0 0 0.0223071 0.0093278 0.798134
40 2.18853 -0.50104 0.0576591 -1.57003 0.119427 -0.225808
41 1.29609 0 0 0.271417 0.069893 0.770014
42 1.62202 -0.000713348 -0.000470161 -0.0323154 -0.0109794 1.4179
43 1.22241 0 0 -0.00658512 0.00177693 1.04424
44 1.76707 -1.27612 0.0366406 -1.44072 0.1345 -0.261341
45 1.55588 0 0 0.182858 0.0427366 0.752105
46 1.24273 0 0 0.000591988 0 0.838875
47 0.784532 0 0 -0.0059922 0.000868571 1.11469
48 0 0 0 0 0 0
49 -4.86317 -17.2394 -7.47269 0.00225252 0.00624908 -0.000856317
50 0 -1.70357 0.00508118 0 0 0
51 -0.0019598 3.96104 2.21118 0 0 0
52 0.641596 -0.666149 0.75166 0 0 0
53 0.786659 -3.4562 1.13628 0 0.198355 0
54 -0.706229 -4.69238 1.98618 -3.14159 -0.0872664 3.14159
55 0.0133305 1.02904 3.61174 0 0 0
56 0.01333 -1.24399 2.23877 0 0 0
57 -4.9022 -22.4259 -12.6063 0.00197385 0.00651718 -0.00079412
58 0.0129194 0.0367718 5.95713 0 0 0
time 15
0 1.29637 -0.499222 -12.0785 0.000934124 0 -0.959925
1 6.02794 0 0 -0.820916 0.00975547 -0.736793
2 11.7344 0 0 -0.00140284 0 -0.637412
3 8.81138 -0.000448227 -0.000112534 -2.28663 0 0.000157437
4 5.77839 0.00028801 0 -1.53204 0 0
5 2.23163 -0.000328064 -0.000363827 -0.754588 0 0
6 11.4725 0 0 -2.28895 0.455293 0.202594
7 0.615219 -0.993089 -0.8107 2.33154 0.49143 -0.467307
8 2.24752 0 0 0.184051 -0.000815362 0.3514
9 1.11935 0 0 0.0719057 0.22699 0.00278386
10 3.71348 -0.102641 0.102191 1.55813 0.550067 0.0727845
11 1.72615 0 0 0.0130938 -0.0253458 -0.58864
12 1.21114 0 0 -0.00463512 0.0170162 -0.863412
13 3.59919 -1.06012 0.0708876 1.55942 0.195064 -0.0649501
14 1.66069 0 0 -0.00432481 0.0777452 -0.278548
15 1.167 0 0 -0.023351 0.0241548 -0.401015
16 2.18852 0.501039 0.0576582 1.57004 0.0330459 0.225874
17 1.29609 0 0 0.0245654 -0.039878 -0.741083
18 1.62202 0.000711441 -0.000471115 0.00984866 -0.0234246 -0.831087
19 1.22241 0 0 0.0013608 0.00642038 -0.52186
20 1.76707 1.27612 0.0366411 1.57002 0.262026 0.261241
21 1.55588 0 0 -0.0308128 0.0106457 -0.943666
22 1.24274 0 0 -0.000583633 0.000138226 -0.446636
23 0.784524 0 0 0.013328 0.00939357 -0.326309
24 -3.6471 7.74038 -3.8527 -0.000932693 0 -2.0944
25 6.02794 0 0 0.774048 0.905786 0.048498
26 11.7344 0 0 0.00140264 0 1.53357
27 8.81167 0 0 0.155178 0 0
28 5.77884 0 0 0.103969 0 0
29 2.23249 0 0 0.0512088 0 0
30 11.4725 0 0 0.382945 -0.23412 -0.714792
31 0.615812 0.994372 -0.809165 -2.95367 0.480861 0.223812
32 2.24752 0 0 -0.0831661 0.257048 0.264172
33 1.11936 0 0 0.106547 0.169507 0.93736
34 3.71349 0.102639 0.102191 -1.53196 0.903047 -0.384383
35 1.72615 0 0 -0.0047961 -0.00187111 1.31044
36 1.21112 0 0 0.00977504 0.0146796 1.18496
37 3.5992 1.06012 0.0708878 -1.55949 0.15616 0.0645016
38 1.66069 0 0 0.0444974 0.0639187 0.831692
39 1.16699 0 0 0.0223072 0.00932781 0.798134
40 2.18853 -0.50104 0.0576591 -1.57003 0.119427 -0.225808
41 1.29609 0 0 0.271417 0.0698929 0.770014
42 1.62202 -0.000715256 -0.000469208 -0.0323154 -0.0109793 1.4179
43 1.22241 0 0 -0.00658516 0.00177683 1.04424
44 1.76707 -1.27612 0.0366406 -1.44072 0.1345 -0.261341
45 1.55588 0 0 0.182858 0.0427366 0.752105
46 1.24273 0 0 0.00059189 0 0.838876
47 0.784532 0 0 -0.00599213 0.000868412 1.11469
48 0 0 0 0 0 0
49 -4.82809 -17.2801 -7.47268 0 0.000137978 -0.000306641
50 0 -1.70357 0.00508022 0 0 0
51 -0.0019598 3.96104 2.21118 0 0 0
52 0.641597 -0.666149 0.75166 0 0 0
53 0.786659 -3.45621 1.13628 0 0.198355 0
54 -0.706229 -4.69238 1.98618 -3.14159 -0.0872664 3.14159
55 0.0133305 1.02904 3.61174 0 0 0
56 0.01333 -1.24399 2.23877 0 0 0
57 -4.8329 -22.478 -12.5948 -0.000265097 0.000406225 -0.000245051
58 0.0129189 0.0367718 5.95713 0 0 0
time 16
0 1.29637 -0.499222 -12.0785 0.000934124 0 -0.959925
1 6.02794 0 0 -0.820944 0.00799305 -0.736729
2 11.7344 0 0 -0.00140288 0 -0.634317
3 8.81139 -0.000450134 -0.000112057 -2.28286 0 0.000157389
4 5.77839 0.000286102 0 -1.52952 0 0
5 2.23164 -0.000329971 -0.000363827 -0.753345 0 0
6 11.4725 0 0 -2.286 0.457175 0.201739
7 0.615219 -0.99309 -0.8107 2.33154 0.49143 -0.467307
8 2.24752 0 0 0.184051 -0.00081549 0.3514
9 1.11935 0 0 0.0719057 0.22699 0.002784
10 3.71348 -0.10264 0.102191 1.55813 0.550067 0.0727845
11 1.72615 0 0 0.0130938 -0.0253459 -0.58864
12 1.21114 0 0 -0.0046352 0.0170163 -0.863412
13 3.59919 -1.06012 0.0708885 1.55942 0.195064 -0.0649503
14 1.66069 0 0 -0.00432463 0.0777452 -0.278549
15 1.167 0 0 -0.023351 0.0241547 -0.401015
16 2.18852 0.50104 0.0576591 1.57004 0.0330457 0.225874
17 1.29609 0 0 0.0245656 -0.0398779 -0.741083
18 1.62202 0.000715256 -0.000471115 0.00984868 -0.0234246 -0.831087
19 1.22241 0 0 0.00136066 0.00642059 -0.52186
20 1.76707 1.27612 0.0366411 1.57002 0.262026 0.261241
21 1.55588 0 0 -0.0308127 0.0106456 -0.943666
22 1.24274 0 0 -0.00058353 0.00013831 -0.446636
23 0.784523 0 0 0.0133279 0.00939349 -0.326309
24 -3.6471 7.74038 -3.8527 -0.000932693 0 -2.0944
25 6.02794 0 0 0.774809 0.904923 0.0508474
26 11.7344 0 0 0.00140277 0 1.53114
27 8.81167 0 0 0.158328 0 0
28 5.77884 0 0 0.106079 0 0
29 2.23249 0 0 0.0522481 0 0
30 11.4725 0 0 0.386306 -0.234997 -0.713182
31 0.615813 0.994373 -0.809165 -2.95367 0.480861 0.223813
32 2.24752 0 0 -0.0831661 0.257048 0.264173
33 1.11936 0 0 0.106547 0.169507 0.937361
34 3.71349 0.10264 0.102191 -1.53196 0.903047 -0.384383
35 1.72615 0 0 -0.0047962 -0.00187105 1.31044
36 1.21112 0 0 0.00977513 0.0146796 1.18496
37 3.5992 1.06012 0.0708888 -1.55949 0.15616 0.0645018
38 1.66069 0 0 0.0444974 0.0639188 0.831692
39 1.16699 0 0 0.0223071 0.00932779 0.798134
40 2.18853 -0.50104 0.0576591 -1.57003 0.119427 -0.225808
41 1.29609 0 0 0.271417 0.069893 0.770014
42 1.62202 -0.000713348 -0.000470161 -0.0323155 -0.0109794 1.4179
43 1.22241 0 0 -0.00658517 0.00177687 1.04424
44 1.76707 -1.27612 0.0366411 -1.44072 0.1345 -0.261341
45 1.55587 0 0 0.182858 0.0427366 0.752105
46 1.24273 0 0 0.000591944 0 0.838876
47 0.784531 0 0 -0.00599218 0.000868475 1.11469
48 0 0 0 0 0 0
49 -4.81038 -17.2961 -7.47268 -0.00105048 -0.00291722 0
50 0 -1.70357 0.0050807 0 0 0
51 -0.00196028 3.96104 2.21118 0 0 0
52 0.641596 -0.666149 0.75166 0 0 0
53 0.786658 -3.45621 1.13628 0 0.198355 0
54 -0.70623 -4.69238 1.98618 3.14159 -0.0872663 -3.14159
55 0.01333 1.02904 3.61174 0 0 0
56 0.01333 -1.24399 2.23877 0 0 0
57 -4.79831 -22.4995 -12.5892 -0.00132967 -0.00264892 0
58 0.0129199 0.0367718 5.95712 0 0 0
time 17
0 1.29637 -0.499222 -12.0785 0.000934124 0 -0.959925
1 6.02794 0 0 -0.820944 0.00849135 -0.735714
2 11.7344 0 0 -0.00140291 0 -0.636639
3 8.81139 -0.000450134 -0.000112057 -2.28194 0 0.000157548
4 5.77839 0.000286102 0 -1.5289 0 0
5 2.23164 -0.000328064 -0.00036335 -0.753039 0 0
6 11.4725 0 0 -2.28471 0.457997 0.203641
7 0.615221 -0.993091 -0.8107 2.33154 0.49143 -0.467307
8 2.24752 0 0 0.184051 -0.000815367 0.3514
9 1.11935 0 0 0.0719058 0.22699 0.0027842
10 3.71348 -0.102641 0.102191 1.55813 0.550067 0.0727845
11 1.72615 0 0 0.0130938 -0.0253458 -0.58864
12 1.21114 0 0 -0.00463494 0.0170163 -0.863412
13 3.5992 -1.06012 0.0708876 1.55942 0.195064 -0.0649501
14 1.66069 0 0 -0.00432458 0.0777452 -0.278549
15 1.167 0 0 -0.0233512 0.0241546 -0.401015
16 2.18853 0.50104 0.0576591 1.57004 0.0330458 0.225874
17 1.29609 0 0 0.0245654 -0.0398781 -0.741083
18 1.62202 0.000713348 -0.000471115 0.00984869 -0.0234244 -0.831087
19 1.22241 0 0 0.00136057 0.00642044 -0.52186
20 1.76707 1.27612 0.0366402 1.57002 0.262026 0.261241
21 1.55588 0 0 -0.0308127 0.0106456 -0.943666
22 1.24274 0 0 -0.000583337 0.000138538 -0.446635
23 0.784523 0 0 0.0133278 0.00939331 -0.326309
24 -3.6471 7.74038 -3.8527 -0.000932693 0 -2.0944
25 6.02794 0 0 0.774041 0.905359 0.0506384
26 11.7344 0 0 0.00140277 0 1.532
27 8.81167 0 0 0.15936 0 0
28 5.77884 0 0 0.106772 0 0
29 2.23249 0 0 0.052589 0 0
30 11.4725 0 0 0.387883 -0.235361 -0.713501
31 0.615813 0.994373 -0.809165 -2.95367 0.480861 0.223812
32 2.24752 0 0 -0.083166 0.257048 0.264172
33 1.11936 0 0 0.106547 0.169507 0.937361
34 3.71349 0.102639 0.102191 -1.53196 0.903048 -0.384383
35 1.72615 0 0 -0.00479609 -0.00187116 1.31044
36 1.21112 0 0 0.00977503 0.0146796 1.18496
37 3.5992 1.06012 0.070888 -1.55949 0.15616 0.0645016
38 1.66069 0 0 0.0444974 0.0639187 0.831692
39 1.16699 0 0 0.0223071 0.0093278 0.798134
40 2.18853 -0.501041 0.0576591 -1.57003 0.119427 -0.225808
41 1.29609 0 0 0.271417 0.069893 0.770014
42 1.62202 -0.000711441 -0.000470161 -0.0323155 -0.0109794 1.4179
43 1.22241 0 0 -0.00658517 0.00177684 1.04424
44 1.76707 -1.27612 0.0366406 -1.44072 0.1345 -0.261341
45 1.55588 0 0 0.182858 0.0427367 0.752105
46 1.24273 0 0 0.000591887 0 0.838876
47 0.784531 0 0 -0.00599212 0.000868556 1.11469
48 0 0 0 0 0 0
49 -4.80305 -17.2875 -7.47269 -0.00127277 -0.00428915 0
50 0 -1.70356 0.00508118 0 0 0
51 -0.0019598 3.96104 2.21118 0 0 0
52 0.641596 -0.666147 0.75166 0 0 0
53 0.786659 -3.45621 1.13628 0 0.198355 0
54 -0.706229 -4.69238 1.98618 -3.14159 -0.0872663 3.14159
55 0.01333 1.02904 3.61174 0 0 0
56 0.0133305 -1.24399 2.23877 0 0 0
57 -4.78326 -22.492 -12.588 -0.00155211 -0.00402081 0.000130828
58 0.0129194 0.0367699 5.95712 0 0 0
time 18
0 1.29637 -0.499222 -12.0785 0.000934124 0 -0.959925
1 6.02794 0 0 -0.820921 0.0108039 -0.733805
2 11.7344 0 0 -0.00140289 0 -0.643322
3 8.81138 -0.000450134 -0.000112057 -2.28315 0 0.000157474
4 5.77839 0.000286102 0 -1.52971 0 0
5 2.23163 -0.000329971 -0.000363827 -0.753438 0 0
6 11.4725 0 0 -2.28465 0.458063 0.207685
7 0.615221 -0.993089 -0.810701 2.33154 0.49143 -0.467307
8 2.24752 0 0 0.184051 -0.000815325 0.3514
9 1.11936 0 0 0.0719058 0.22699 0.00278381
10 3.71348 -0.102639 0.102191 1.55813 0.550067 0.0727845
11 1.72615 0 0 0.0130938 -0.0253461 -0.58864
12 1.21114 0 0 -0.00463515 0.0170163 -0.863412
13 3.5992 -1.06012 0.0708876 1.55942 0.195064 -0.0649502
14 1.66069 0 0 -0.0043248 0.0777451 -0.278549
15 1.167 0 0 -0.023351 0.024155 -0.401015
16 2.18853 0.50104 0.0576591 1.57004 0.0330459 0.225874
17 1.29609 0 0 0.0245654 -0.0398781 -0.741083
18 1.62202 0.000715256 -0.000471115 0.00984867 -0.0234243 -0.831087
19 1.22241 0 0 0.0013607 0.00642041 -0.52186
20 1.76707 1.27612 0.0366402 1.57002 0.262026 0.261241
21 1.55588 0 0 -0.0308128 0.0106456 -0.943666
22 1.24274 0 0 -0.000583543 0.000138369 -0.446636
23 0.784524 0 0 0.0133281 0.00939342 -0.326309
24 -3.6471 7.74038 -3.8527 -0.000932693 0 -2.0944
25 6.02794 0 0 0.772336 0.906599 0.0487897
26 11.7344 0 0 0.00140272 0 1.53493
27 8.81167 0 0 0.158886 0 0
28 5.77884 0 0 0.106453 0 0
29 2.23249 0 0 0.0524323 0 0
30 11.4725 0 0 0.388146 -0.235358 -0.715094
31 0.615813 0.994373 -0.809165 -2.95367 0.480861 0.223812
32 2.24752 0 0 -0.083166 0.257048 0.264172
33 1.11936 0 0 0.106547 0.169507 0.937361
34 3.71348 0.102639 0.102191 -1.53196 0.903047 -0.384383
35 1.72615 0 0 -0.00479609 -0.0018711 1.31044
36 1.21112 0 0 0.00977509 0.0146796 1.18496
37 3.5992 1.06012 0.0708885 -1.55949 0.15616 0.0645017
38 1.66069 0 0 0.0444974 0.0639187 0.831692
39 1.16699 0 0 0.0223071 0.00932778 0.798134
40 2.18853 -0.501041 0.0576594 -1.57003 0.119427 -0.225808
41 1.29609 0 0 0.271416 0.0698929 0.770013
42 1.62202 -0.000713348 -0.000469208 -0.0323155 -0.0109794 1.4179
43 1.22241 0 0 -0.00658514 0.0017768 1.04424
44 1.76707 -1.27612 0.0366409 -1.44072 0.1345 -0.261341
45 1.55588 0 0 0.182858 0.0427366 0.752105
46 1.24273 0 0 0.000591913 0 0.838875
47 0.784532 0 0 -0.00599212 0.000868484 1.11469
48 0 0 0 0 0 0
49 -4.80284 -17.2635 -7.4727 -0.000897726 -0.00442298 0.000128076
50 0 -1.70357 0.0050807 0 0 0
51 -0.00195885 3.96104 2.21118 0 0 0
52 0.641596 -0.666147 0.75166 0 0 0
53 0.786658 -3.45621 1.13628 0 0.198355 0
54 -0.70623 -4.69238 1.98618 -3.14159 -0.0872664 3.14159
55 0.0133305 1.02904 3.61174 0 0 0
56 0.0133305 -1.24399 2.23877 0 0 0
57 -4.78205 -22.4661 -12.59 -0.00117702 -0.00415467 0.000189418
58 0.0129194 0.0367718 5.95712 0 0 0
time 19
0 1.29637 -0.499222 -12.0785 0.000934124 0 -0.959925
1 6.02794 0 0 -0.820884 0.0136192 -0.731873
2 11.7344 0 0 -0.00140286 0 -0.650913
3 8.81138 -0.000448227 -0.000112534 -2.2854 0 0.000157042
4 5.77839 0.00028801 0 -1.53122 0 0
5 2.23163 -0.000329971 -0.000364304 -0.754183 0 0
6 11.4725 0 0 -2.28539 0.457675 0.212042
7 0.615219 -0.993092 -0.810699 2.33154 0.49143 -0.467307
8 2.24752 0 0 0.184051 -0.000815414 0.3514
9 1.11936 0 0 0.0719058 0.22699 0.00278395
10 3.71348 -0.102643 0.102191 1.55813 0.550067 0.0727845
11 1.72615 0 0 0.0130936 -0.0253461 -0.58864
12 1.21114 0 0 -0.00463509 0.0170165 -0.863412
13 3.59919 -1.06012 0.0708876 1.55942 0.195064 -0.0649502
14 1.66069 0 0 -0.00432462 0.0777452 -0.278549
15 1.167 0 0 -0.0233511 0.0241547 -0.401015
16 2.18853 0.50104 0.0576591 1.57004 0.0330459 0.225874
17 1.29609 0 0 0.0245654 -0.0398781 -0.741083
18 1.62202 0.000713348 -0.000473022 0.00984858 -0.0234246 -0.831087
19 1.22241 0 0 0.00136066 0.00642046 -0.52186
20 1.76707 1.27612 0.0366411 1.57002 0.262026 0.261241
21 1.55588 0 0 -0.0308129 0.0106454 -0.943666
22 1.24274 0 0 -0.000583485 0.000138382 -0.446636
23 0.784523 0 0 0.0133279 0.00939333 -0.326309
24 -3.6471 7.74038 -3.8527 -0.000932693 0 -2.0944
25 6.02794 0 0 0.770289 0.908149 0.0462196
26 11.7344 0 0 0.00140272 0 1.53873
27 8.81167 0 0 0.157525 0 0
28 5.77884 0 0 0.105541 0 0
29 2.23249 0 0 0.0519832 0 0
30 11.4725 0 0 0.387564 -0.235136 -0.7173
31 0.615813 0.994373 -0.809165 -2.95367 0.480861 0.223813
32 2.24752 0 0 -0.083166 0.257048 0.264172
33 1.11936 0 0 0.106547 0.169507 0.937361
34 3.71349 0.10264 0.102191 -1.53196 0.903048 -0.384383
35 1.72615 0 0 -0.00479611 -0.00187101 1.31044
36 1.21112 0 0 0.00977501 0.0146797 1.18496
37 3.5992 1.06012 0.0708885 -1.55949 0.15616 0.0645019
38 1.66069 0 0 0.0444974 0.0639187 0.831692
39 1.16699 0 0 0.0223071 0.0093278 0.798134
40 2.18853 -0.501041 0.0576591 -1.57003 0.119428 -0.225808
41 1.29609 0 0 0.271417 0.0698929 0.770013
42 1.62202 -0.000711441 -0.000470161 -0.0323155 -0.0109795 1.4179
43 1.22241 0 0 -0.00658512 0.00177681 1.04424
44 1.76707 -1.27612 0.0366406 -1.44072 0.1345 -0.261341
45 1.55587 0 0 0.182858 0.0427366 0.752105
46 1.24273 0 0 0.000591967 0 0.838876
47 0.784532 0 0 -0.00599209 0.00086848 1.11469
48 0 0 0 0 0 0
49 -4.80648 -17.2335 -7.47271 -0.000170086 -0.0037639 0.000134174
50 0 -1.70357 0.00508118 0 0 0
51 -0.0019598 3.96104 2.21118 0 0 0
52 0.641596 -0.666147 0.75166 0 0 0
53 0.786658 -3.45621 1.13628 0 0.198355 0
54 -0.706229 -4.69238 1.98618 -3.14159 -0.0872664 -3.14159
55 0.01333 1.02904 3.61174 0 0 0
56 0.0133295 -1.24399 2.23877 0 0 0
57 -4.78901 -22.4324 -12.5938 -0.000449315 -0.00349564 0.000195727
58 0.0129194 0.0367699 5.95712 0 0 0
time 20
0 1.29637 -0.499222 -12.0785 0.000934124 0 -0.959925
1 6.02794 0 0 -0.820842 0.0162339 -0.73022
2 11.7344 0 0 -0.00140292 0 -0.657636
3 8.81139 -0.000448227 -0.000113487 -2.28788 0 0.000157291
4 5.77839 0.00028801 0 -1.53288 0 0
5 2.23164 -0.000328064 -0.000364304 -0.755001 0 0
6 11.4725 0 0 -2.28648 0.457136 0.215734
7 0.615219 -0.993093 -0.8107 2.33154 0.49143 -0.467307
8 2.24752 0 0 0.184051 -0.000815325 0.3514
9 1.11936 0 0 0.0719057 0.22699 0.00278408
10 3.71348 -0.10264 0.102191 1.55813 0.550067 0.0727846
11 1.72615 0 0 0.0130938 -0.025346 -0.58864
12 1.21114 0 0 -0.00463509 0.0170163 -0.863412
13 3.59919 -1.06012 0.0708885 1.55942 0.195064 -0.0649502
14 1.66069 0 0 -0.0043247 0.0777453 -0.278549
15 1.167 0 0 -0.0233512 0.0241545 -0.401015
16 2.18852 0.501039 0.0576591 1.57004 0.033046 0.225874
17 1.29609 0 0 0.0245651 -0.0398782 -0.741083
18 1.62202 0.000713348 -0.000471115 0.00984875 -0.0234244 -0.831087
19 1.22241 0 0 0.00136074 0.00642049 -0.52186
20 1.76707 1.27612 0.0366411 1.57002 0.262026 0.261241
21 1.55588 0 0 -0.0308127 0.0106456 -0.943666
22 1.24273 0 0 -0.000583427 0.000138395 -0.446635
23 0.784523 0 0 0.0133279 0.00939332 -0.326309
24 -3.6471 7.74038 -3.8527 -0.000932693 0 -2.0944
25 6.02794 0 0 0.768506 0.909515 0.0438573
26 11.7344 0 0 0.00140271 0 1.54219
27 8.81167 0 0 0.155897 0 0
28 5.77884 0 0 0.104451 0 0
29 2.23249 0 0 0.0514461 0 0
30 11.4725 0 0 0.386608 -0.234841 -0.719464
31 0.615812 0.994372 -0.809165 -2.95367 0.480861 0.223813
32 2.24752 0 0 -0.0831659 0.257048 0.264173
33 1.11936 0 0 0.106547 0.169507 0.937361
34 3.71349 0.102639 0.102191 -1.53196 0.903048 -0.384383
35 1.72615 0 0 -0.00479611 -0.00187116 1.31044
36 1.21112 0 0 0.00977502 0.0146797 1.18496
37 3.5992 1.06012 0.0708885 -1.55949 0.15616 0.0645018
38 1.66069 0 0 0.0444974 0.0639187 0.831692
39 1.16699 0 0 0.0223071 0.00932774 0.798134
40 2.18853 -0.501041 0.0576596 -1.57003 0.119427 -0.225808
41 1.29609 0 0 0.271416 0.0698929 0.770014
42 1.62202 -0.000715256 -0.000470161 -0.0323155 -0.0109795 1.4179
43 1.22241 0 0 -0.00658514 0.00177684 1.04424
44 1.76707 -1.27612 0.0366406 -1.44072 0.1345 -0.261341
45 1.55587 0 0 0.182858 0.0427366 0.752105
46 1.24273 0 0 0.000591989 0 0.838876
47 0.784532 0 0 -0.00599216 0.000868492 1.11469
48 0 0 0 0 0 0
49 -4.8107 -17.2067 -7.47273 0.000665401 -0.00275707 0.000113388
50 0 -1.70357 0.00508022 0 0 0
51 -0.00195932 3.96104 2.21118 0 0 0
52 0.641596 -0.666147 0.75166 0 0 0
53 0.786658 -3.45621 1.13628 0 0.198355 0
54 -0.70623 -4.69238 1.98618 3.14159 -0.0872663 -3.14159
55 0.0133305 1.02904 3.61174 0 0 0
56 0.01333 -1.24399 2.23877 0 0 0
57 -4.79849 -22.4013 -12.5982 0.0003862 -0.00248887 0.000175148
58 0.0129189 0.0367718 5.95712 0 0 0
time 21
0 1.29637 -0.499222 -12.0785 0.000934124 0 -0.959925
1 6.02794 0 0 -0.820812 0.0178284 -0.729253
2 11.7344 0 0 -0.00140278 0 -0.661402
3 8.81138 -0.000450134 -0.000112057 -2.28968 0 0.000157068
4 5.77839 0.000286102 0 -1.53409 0 0
5 2.23164 -0.000329971 -0.000363827 -0.755595 0 0
6 11.4725 0 0 -2.28751 0.456748 0.217622
7 0.615221 -0.993092 -0.8107 2.33154 0.49143 -0.467307
8 2.24752 0 0 0.184051 -0.000815226 0.3514
9 1.11936 0 0 0.0719057 0.22699 0.00278419
10 3.71348 -0.102642 0.10219 1.55813 0.550067 0.0727845
11 1.72615 0 0 0.0130938 -0.0253459 -0.58864
12 1.21114 0 0 -0.00463517 0.0170163 -0.863412
13 3.59919 -1.06012 0.0708876 1.55942 0.195064 -0.0649502
14 1.66068 0 0 -0.00432473 0.0777451 -0.278548
15 1.167 0 0 -0.0233511 0.0241549 -0.401015
16 2.18853 0.50104 0.0576591 1.57004 0.0330458 0.225874
17 1.29609 0 0 0.0245655 -0.0398779 -0.741083
18 1.62202 0.000713348 -0.000471115 0.00984864 -0.0234244 -0.831087
19 1.22241 0 0 0.00136057 0.00642069 -0.52186
20 1.76707 1.27612 0.0366402 1.57002 0.262026 0.261241
21 1.55588 0 0 -0.0308127 0.0106456 -0.943666
22 1.24273 0 0 -0.000583633 0.000138226 -0.446636
23 0.784523 0 0 0.013328 0.00939345 -0.326309
24 -3.6471 7.74038 -3.8527 -0.000932693 0 -2.0944
25 6.02794 0 0 0.767598 0.910211 0.0426367
26 11.7344 0 0 0.00140267 0 1.54409
27 8.81167 0 0 0.154618 0 0
28 5.77884 0 0 0.103594 0 0
29 2.23249 0 0 0.0510239 0 0
30 11.4725 0 0 0.385747 -0.234622 -0.720939
31 0.615813 0.994372 -0.809165 -2.95367 0.480861 0.223812
32 2.24752 0 0 -0.083166 0.257048 0.264172
33 1.11936 0 0 0.106547 0.169507 0.93736
34 3.71349 0.10264 0.102191 -1.53196 0.903048 -0.384383
35 1.72615 0 0 -0.00479608 -0.00187112 1.31044
36 1.21112 0 0 0.0097751 0.0146795 1.18496
37 3.5992 1.06012 0.070888 -1.55949 0.15616 0.0645017
38 1.66069 0 0 0.0444974 0.0639187 0.831692
39 1.16699 0 0 0.0223071 0.00932783 0.798134
40 2.18853 -0.501041 0.0576596 -1.57003 0.119427 -0.225808
41 1.29609 0 0 0.271416 0.0698929 0.770014
42 1.62202 -0.000715256 -0.000468254 -0.0323154 -0.0109795 1.4179
43 1.22241 0 0 -0.00658515 0.00177675 1.04424
44 1.76707 -1.27612 0.0366406 -1.44072 0.1345 -0.261341
45 1.55588 0 0 0.182858 0.0427366 0.752105
46 1.24273 0 0 0.00059191 0 0.838876
47 0.784532 0 0 -0.00599215 0.000868336 1.11469
48 0 0 0 0 0 0
49 -4.81225 -17.1925 -7.47274 0.00136399 -0.00184768 0
50 0 -1.70357 0.0050807 0 0 0
51 -0.0019598 3.96104 2.21118 0 0 0
52 0.641596 -0.666149 0.75166 0 0 0
53 0.786658 -3.45621 1.13628 0 0.198355 0
54 -0.70623 -4.69238 1.98618 -3.14159 -0.0872663 3.14159
55 0.0133305 1.02904 3.61174 0 0 0
56 0.01333 -1.244 2.23877 0 0 0
57 -4.80481 -22.3835 -12.6018 0.0010848 -0.0015795 0.000153188
58 0.0129194 0.0367718 5.95713 0 0 0
time 22
0 1.29637 -0.499222 -12.0785 0.000934124 0 -0.959925
1 6.02794 0 0 -0.820802 0.0183681 -0.728903
2 11.7344 0 0 -0.00140291 0 -0.662556
3 8.81139 -0.000450134 -0.00011158 -2.29035 0 0.000157244
4 5.77839 0.000286102 0 -1.53454 0 0
5 2.23164 -0.000329971 -0.000363827 -0.755817 0 0
6 11.4725 0 0 -2.28796 0.456642 0.21814
7 0.615219 -0.99309 -0.8107 2.33154 0.49143 -0.467307
8 2.24752 0 0 0.184051 -0.000815434 0.3514
9 1.11936 0 0 0.0719058 0.22699 0.00278404
10 3.71348 -0.10264 0.102191 1.55813 0.550067 0.0727845
11 1.72615 0 0 0.0130936 -0.025346 -0.58864
12 1.21114 0 0 -0.00463514 0.0170164 -0.863412
13 3.59919 -1.06012 0.0708885 1.55942 0.195064 -0.0649503
14 1.66069 0 0 -0.00432457 0.0777452 -0.278549
15 1.167 0 0 -0.0233511 0.0241548 -0.401015
16 2.18852 0.50104 0.0576591 1.57004 0.0330458 0.225873
17 1.29609 0 0 0.0245653 -0.0398781 -0.741083
18 1.62202 0.000713348 -0.0004673 0.00984864 -0.0234244 -0.831087
19 1.22241 0 0 0.0013606 0.00642045 -0.52186
20 1.76707 1.27612 0.0366411 1.57002 0.262026 0.261241
21 1.55588 0 0 -0.0308128 0.0106456 -0.943666
22 1.24273 0 0 -0.000583324 0.00013848 -0.446636
23 0.784523 0 0 0.0133279 0.00939343 -0.326309
24 -3.6471 7.74038 -3.8527 -0.000932693 0 -2.0944
25 6.02794 0 0 0.767375 0.910376 0.0423692
26 11.7344 0 0 0.00140268 0 1.54462
27 8.81167 0 0 0.154124 0 0
28 5.77884 0 0 0.103263 0 0
29 2.23249 0 0 0.050861 0 0
30 11.4725 0 0 0.385415 -0.234541 -0.721505
31 0.615812 0.994372 -0.809166 -2.95367 0.480861 0.223813
32 2.24752 0 0 -0.083166 0.257048 0.264172
33 1.11936 0 0 0.106547 0.169507 0.937361
34 3.71348 0.102639 0.10219 -1.53196 0.903048 -0.384383
35 1.72615 0 0 -0.00479616 -0.00187114 1.31044
36 1.21112 0 0 0.00977502 0.0146796 1.18496
37 3.5992 1.06012 0.0708876 -1.55949 0.15616 0.0645017
38 1.66069 0 0 0.0444974 0.0639187 0.831692
39 1.16699 0 0 0.0223071 0.00932777 0.798134
40 2.18853 -0.501041 0.0576587 -1.57003 0.119427 -0.225808
41 1.29609 0 0 0.271417 0.0698929 0.770014
42 1.62202 -0.000713348 -0.000471115 -0.0323155 -0.0109793 1.4179
43 1.22241 0 0 -0.00658511 0.00177667 1.04424
44 1.76707 -1.27612 0.0366406 -1.44072 0.1345 -0.261341
45 1.55587 0 0 0.182858 0.0427365 0.752105
46 1.24273 0 0 0.000591782 0 0.838876
47 0.784531 0 0 -0.00599212 0.00086837 1.11469
48 0 0 0 0 0 0
49 -4.81175 -17.1888 -7.47276 0.00168093 -0.0014809 0
50 0 -1.70357 0.00508118 0 0 0
51 -0.00195932 3.96104 2.21118 0 0 0
52 0.641597 -0.666145 0.75166 0 0 0
53 0.786659 -3.4562 1.13628 0 0.198355 0
54 -0.706229 -4.69238 1.98618 3.14159 -0.0872664 -3.14159
55 0.01333 1.02904 3.61174 0 0 0
56 0.0133295 -1.24399 2.23877 0 0 0
57 -4.80618 -22.3782 -12.6035 0.00140179 -0.00121276 0.000155251
58 0.0129194 0.0367699 5.95712 0 0 0
time 23
0 1.29637 -0.499222 -12.0785 0.000934124 0 -0.959925
1 6.02794 0 0 -0.820801 0.0184441 -0.72883
2 11.7344 0 0 -0.00140284 0 -0.662837
3 8.81138 -0.000450134 -0.000112057 -2.29036 0 0.000157817
4 5.77839 0.000286102 0 -1.53454 0 0
5 2.23164 -0.000329971 -0.00036335 -0.755819 0 0
6 11.4725 0 0 -2.2879 0.456636 0.218336
7 0.615217 -0.993092 -0.8107 2.33154 0.49143 -0.467307
8 2.24752 0 0 0.184051 -0.000815317 0.3514
9 1.11936 0 0 0.0719056 0.22699 0.00278391
10 3.71348 -0.102642 0.102191 1.55813 0.550067 0.0727846
11 1.72615 0 0 0.0130938 -0.0253459 -0.58864
12 1.21114 0 0 -0.00463519 0.0170165 -0.863412
13 3.59919 -1.06012 0.0708876 1.55942 0.195064 -0.0649501
14 1.66069 0 0 -0.00432485 0.0777451 -0.278549
15 1.167 0 0 -0.023351 0.0241549 -0.401015
16 2.18852 0.50104 0.0576591 1.57004 0.0330458 0.225874
17 1.29609 0 0 0.0245654 -0.039878 -0.741084
18 1.62202 0.000713348 -0.000471115 0.00984869 -0.0234244 -0.831087
19 1.22241 0 0 0.0013605 0.00642036 -0.52186
20 1.76707 1.27612 0.0366411 1.57002 0.262025 0.261241
21 1.55588 0 0 -0.0308127 0.0106458 -0.943666
22 1.24273 0 0 -0.000583575 0.000138239 -0.446636
23 0.784523 0 0 0.0133279 0.00939357 -0.326309
24 -3.6471 7.74038 -3.8527 -0.000932693 0 -2.0944
25 6.02794 0 0 0.767283 0.910443 0.042259
26 11.7344 0 0 0.00140281 0 1.54476
27 8.81167 0 0 0.154151 0 0
28 5.77884 0 0 0.103281 0 0
29 2.23249 0 0 0.0508699 0 0
30 11.4725 0 0 0.385448 -0.234537 -0.721515
31 0.615812 0.994372 -0.809165 -2.95367 0.480861 0.223812
32 2.24752 0 0 -0.0831661 0.257048 0.264173
33 1.11936 0 0 0.106547 0.169507 0.93736
34 3.71349 0.10264 0.102191 -1.53196 0.903047 -0.384383
35 1.72615 0 0 -0.00479622 -0.00187121 1.31044
36 1.21112 0 0 0.00977511 0.0146795 1.18496
37 3.5992 1.06012 0.0708883 -1.55949 0.156159 0.0645018
38 1.66069 0 0 0.0444974 0.0639188 0.831692
39 1.16699 0 0 0.0223071 0.00932781 0.798134
40 2.18853 -0.50104 0.0576589 -1.57003 0.119427 -0.225808
41 1.29609 0 0 0.271416 0.0698929 0.770014
42 1.62202 -0.000713348 -0.000469208 -0.0323155 -0.0109793 1.4179
43 1.22241 0 0 -0.00658515 0.00177682 1.04424
44 1.76707 -1.27612 0.0366406 -1.44072 0.1345 -0.261341
45 1.55588 0 0 0.182858 0.0427367 0.752105
46 1.24273 0 0 0.000591841 0 0.838876
47 0.784532 0 0 -0.00599214 0.000868326 1.11469
48 0 0 0 0 0 0
49 -4.81196 -17.1876 -7.47276 0.00165427 -0.00151907 0.000110209
50 0 -1.70357 0.0050807 0 0 0
51 -0.00196028 3.96104 2.21118 0 0 0
52 0.641596 -0.666147 0.75166 0 0 0
53 0.786658 -3.45621 1.13628 0 0.198355 0
54 -0.70623 -4.69238 1.98618 3.14159 -0.0872663 -3.14159
55 0.0133295 1.02904 3.61174 0 0 0
56 0.0133295 -1.24399 2.23877 0 0 0
57 -4.8061 -22.3771 -12.6034 0.00137517 -0.00125092 0.000172239
58 0.0129189 0.0367737 5.95712 0 0 0
time 24
0 1.29637 -0.499222 -12.0785 0.000934124 0 -0.959925
1 6.02794 0 0 -0.820805 0.018213 -0.729019
2 11.7344 0 0 -0.00140287 0 -0.662299
3 8.81139 -0.000450134 -0.000113487 -2.2902 0 0.000156418
4 5.77839 0.000286102 0 -1.53444 0 0
5 2.23164 -0.000328064 -0.000365257 -0.755766 0 0
6 11.4725 0 0 -2.28784 0.45657 0.218022
7 0.615219 -0.993089 -0.810701 2.33154 0.49143 -0.467307
8 2.24752 0 0 0.184051 -0.000815384 0.3514
9 1.11936 0 0 0.0719058 0.22699 0.00278393
10 3.71348 -0.102639 0.10219 1.55813 0.550067 0.0727845
11 1.72615 0 0 0.0130939 -0.0253458 -0.58864
12 1.21114 0 0 -0.00463517 0.0170163 -0.863412
13 3.59919 -1.06012 0.0708866 1.55942 0.195064 -0.0649503
14 1.66069 0 0 -0.00432492 0.0777452 -0.278548
15 1.16699 0 0 -0.023351 0.0241548 -0.401015
16 2.18853 0.50104 0.0576582 1.57004 0.0330459 0.225874
17 1.29609 0 0 0.0245656 -0.039878 -0.741083
18 1.62202 0.000713348 -0.000469208 0.00984858 -0.0234246 -0.831087
19 1.22241 0 0 0.00136069 0.00642035 -0.52186
20 1.76707 1.27612 0.0366402 1.57002 0.262026 0.261241
21 1.55588 0 0 -0.0308127 0.0106457 -0.943666
22 1.24273 0 0 -0.000583646 0.000138284 -0.446635
23 0.784524 0 0 0.0133281 0.00939347 -0.326309
24 -3.6471 7.74038 -3.8527 -0.000932693 0 -2.0944
25 6.02794 0 0 0.767396 0.910372 0.0423333
26 11.7344 0 0 0.0014027 0 1.54453
27 8.81167 0 0 0.154241 0 0
28 5.77884 0 0 0.103342 0 0
29 2.23249 0 0 0.0508998 0 0
30 11.4725 0 0 0.385413 -0.234547 -0.72123
31 0.615812 0.994373 -0.809165 -2.95367 0.480861 0.223812
32 2.24752 0 0 -0.0831659 0.257048 0.264173
33 1.11936 0 0 0.106547 0.169507 0.93736
34 3.71349 0.102639 0.10219 -1.53196 0.903047 -0.384383
35 1.72615 0 0 -0.00479619 -0.00187108 1.31044
36 1.21112 0 0 0.00977506 0.0146796 1.18496
37 3.5992 1.06012 0.070888 -1.55949 0.15616 0.0645017
38 1.66069 0 0 0.0444974 0.0639188 0.831692
39 1.16699 0 0 0.0223071 0.00932782 0.798134
40 2.18853 -0.50104 0.0576591 -1.57003 0.119427 -0.225808
41 1.29609 0 0 0.271416 0.0698929 0.770013
42 1.62201 -0.000713348 -0.000470161 -0.0323155 -0.0109794 1.4179
43 1.22241 0 0 -0.00658513 0.00177679 1.04424
44 1.76707 -1.27612 0.0366402 -1.44072 0.1345 -0.261341
45 1.55587 0 0 0.182858 0.0427366 0.752105
46 1.24273 0 0 0.000591916 0 0.838875
47 0.784532 0 0 -0.00599214 0.000868533 1.11469
48 0 0 0 0 0 0
49 -4.81282 -17.1892 -7.47277 0.00151011 -0.00152158 0.000116459
50 0 -1.70357 0.00508118 0 0 0
51 -0.00196028 3.96104 2.21118 0 0 0
52 0.641596 -0.666149 0.75166 0 0 0
53 0.786658 -3.45621 1.13628 0 0.198355 0
54 -0.70623 -4.69238 1.98618 -3.14159 -0.0872664 3.14159
55 0.0133305 1.02904 3.61174 0 0 0
56 0.01333 -1.244 2.23877 0 0 0
57 -4.80692 -22.3795 -12.6026 0.00123096 -0.00125343 0.000178456
58 0.0129189 0.0367699 5.95713 0 0 0
time 25
0 1.29637 -0.499222 -12.0785 0.000934124 0 -0.959925
1 6.02794 0 0 -0.820815 0.0176694 -0.729485
2 11.7344 0 0 -0.00140282 0 -0.660875
3 8.81138 -0.000450134 -0.00011158 -2.28989 0 0.000157634
4 5.77839 0.000286102 0 -1.53422 0 0
5 2.23163 -0.000329971 -0.00036335 -0.755663 0 0
6 11.4725 0 0 -2.2878 0.456455 0.217163
7 0.615217 -0.99309 -0.8107 2.33154 0.49143 -0.467307
8 2.24752 0 0 0.184051 -0.000815338 0.3514
9 1.11936 0 0 0.0719058 0.22699 0.00278404
10 3.71348 -0.102641 0.102191 1.55813 0.550067 0.0727846
11 1.72615 0 0 0.0130937 -0.025346 -0.58864
12 1.21114 0 0 -0.00463504 0.0170163 -0.863412
13 3.59919 -1.06012 0.0708885 1.55942 0.195064 -0.0649501
14 1.66069 0 0 -0.00432461 0.0777451 -0.278549
15 1.167 0 0 -0.0233512 0.0241549 -0.401015
16 2.18852 0.501041 0.0576591 1.57004 0.033046 0.225874
17 1.29609 0 0 0.0245655 -0.039878 -0.741083
18 1.62202 0.000713348 -0.000469208 0.00984868 -0.0234246 -0.831087
19 1.22241 0 0 0.00136064 0.00642064 -0.52186
20 1.76707 1.27612 0.0366411 1.57002 0.262026 0.261241
21 1.55587 0 0 -0.0308129 0.0106455 -0.943666
22 1.24274 0 0 -0.000583543 0.000138369 -0.446635
23 0.784523 0 0 0.0133278 0.00939355 -0.326309
24 -3.6471 7.74038 -3.8527 -0.000932693 0 -2.0944
25 6.02794 0 0 0.767746 0.91014 0.0426251
26 11.7344 0 0 0.00140274 0 1.5439
27 8.81167 0 0 0.154386 0 0
28 5.77884 0 0 0.103439 0 0
29 2.23249 0 0 0.0509476 0 0
30 11.4725 0 0 0.3853 -0.234546 -0.72068
31 0.615813 0.994372 -0.809165 -2.95367 0.480861 0.223812
32 2.24752 0 0 -0.0831663 0.257048 0.264172
33 1.11936 0 0 0.106547 0.169507 0.937361
34 3.71348 0.102638 0.102191 -1.53196 0.903047 -0.384383
35 1.72615 0 0 -0.00479619 -0.00187108 1.31044
36 1.21112 0 0 0.00977509 0.0146796 1.18496
37 3.5992 1.06012 0.0708885 -1.55949 0.15616 0.0645016
38 1.66069 0 0 0.0444974 0.0639188 0.831692
39 1.16699 0 0 0.0223071 0.00932779 0.798134
40 2.18853 -0.501041 0.0576596 -1.57003 0.119427 -0.225808
41 1.29609 0 0 0.271417 0.069893 0.770014
42 1.62202 -0.000713348 -0.000469208 -0.0323155 -0.0109794 1.4179
43 1.22241 0 0 -0.00658512 0.00177679 1.04424
44 1.76707 -1.27612 0.0366406 -1.44072 0.1345 -0.261341
45 1.55587 0 0 0.182858 0.0427367 0.752105
46 1.24273 0 0 0.000591842 0 0.838876
47 0.784532 0 0 -0.00599218 0.00086849 1.11469
48 0 0 0 0 0 0
49 -4.81426 -17.1941 -7.47278 0.00128576 -0.00147926 0.000112482
50 0 -1.70357 0.00508118 0 0 0
51 -0.0019598 3.96104 2.21118 0 0 0
52 0.641596 -0.666151 0.75166 0 0 0
53 0.786658 -3.45621 1.13628 0 0.198355 0
54 -0.70623 -4.69238 1.98618 3.14159 -0.0872664 -3.14159
55 0.01333 1.02904 3.61174 0 0 0
56 0.01333 -1.244 2.23877 0 0 0
57 -4.8086 -22.3856 -12.6015 0.00100662 -0.0012111 0.000174408
58 0.0129199 0.0367718 5.95712 0 0 0
time 26
0 1.29637 -0.499222 -12.0785 0.000934124 0 -0.959925
1 6.02794 0 0 -0.820828 0.0168078 -0.730241
2 11.7344 0 0 -0.00140281 0 -0.658499
3 8.81138 -0.000450134 -0.000112534 -2.28943 0 0.000157117
4 5.77839 0.000286102 0 -1.53392 0 0
5 2.23163 -0.000329971 -0.000363827 -0.755513 0 0
6 11.4725 0 0 -2.28779 0.4563 0.215723
7 0.615221 -0.993093 -0.8107 2.33154 0.49143 -0.467307
8 2.24752 0 0 0.184051 -0.000815405 0.3514
9 1.11936 0 0 0.0719058 0.22699 0.00278402
10 3.71348 -0.10264 0.10219 1.55813 0.550067 0.0727844
11 1.72615 0 0 0.0130939 -0.0253459 -0.58864
12 1.21114 0 0 -0.00463486 0.0170161 -0.863412
13 3.59919 -1.06012 0.0708866 1.55942 0.195064 -0.0649501
14 1.66069 0 0 -0.00432471 0.0777453 -0.278548
15 1.167 0 0 -0.0233511 0.0241549 -0.401015
16 2.18853 0.501038 0.0576582 1.57004 0.0330459 0.225874
17 1.29609 0 0 0.0245654 -0.039878 -0.741083
18 1.62202 0.000713348 -0.000473022 0.00984872 -0.0234244 -0.831087
19 1.22241 0 0 0.00136081 0.00642057 -0.52186
20 1.76707 1.27612 0.0366402 1.57002 0.262026 0.261241
21 1.55588 0 0 -0.0308128 0.0106456 -0.943666
22 1.24273 0 0 -0.000583601 0.000138356 -0.446635
23 0.784523 0 0 0.013328 0.00939339 -0.326309
24 -3.6471 7.74038 -3.8527 -0.000932693 0 -2.0944
25 6.02794 0 0 0.768359 0.909726 0.0431658
26 11.7344 0 0 0.00140272 0 1.54285
27 8.81167 0 0 0.154581 0 0
28 5.77884 0 0 0.103569 0 0
29 2.23249 0 0 0.0510116 0 0
30 11.4725 0 0 0.385102 -0.234516 -0.719893
31 0.615813 0.994373 -0.809165 -2.95367 0.480861 0.223813
32 2.24752 0 0 -0.0831661 0.257048 0.264173
33 1.11936 0 0 0.106547 0.169507 0.937361
34 3.71349 0.10264 0.102191 -1.53196 0.903047 -0.384383
35 1.72615 0 0 -0.00479621 -0.00187118 1.31044
36 1.21112 0 0 0.00977505 0.0146796 1.18496
37 3.5992 1.06012 0.070888 -1.55949 0.15616 0.0645017
38 1.66069 0 0 0.0444974 0.0639188 0.831692
39 1.16699 0 0 0.0223071 0.00932781 0.798134
40 2.18853 -0.50104 0.0576594 -1.57003 0.119427 -0.225808
41 1.29609 0 0 0.271417 0.069893 0.770013
42 1.62202 -0.000713348 -0.000470161 -0.0323155 -0.0109793 1.4179
43 1.22241 0 0 -0.00658515 0.00177673 1.04424
44 1.76707 -1.27612 0.0366411 -1.44072 0.1345 -0.261341
45 1.55587 0 0 0.182858 0.0427367 0.752105
46 1.24273 0 0 0.000591828 0 0.838876
47 0.784532 0 0 -0.00599212 0.000868537 1.11469
48 0 0 0 0 0 0
49 -4.81623 -17.2027 -7.47279 0.00101853 -0.00138293 0
50 0 -1.70357 0.0050807 0 0 0
51 -0.00195932 3.96104 2.21118 0 0 0
52 0.641596 -0.666149 0.75166 0 0 0
53 0.786659 -3.45621 1.13628 0 0.198355 0
54 -0.706229 -4.69238 1.98618 3.14159 -0.0872664 -3.14159
55 0.0133305 1.02904 3.61174 0 0 0
56 0.0133305 -1.24399 2.23877 0 0 0
57 -4.81113 -22.3954 -12.6001 0.000739396 -0.00111472 0.000160655
58 0.0129194 0.0367737 5.95712 0 0 0
time 27
0 1.29637 -0.499222 -12.0785 0.000934124 0 -0.959925
1 6.02794 0 0 -0.820847 0.0156204 -0.731305
2 11.7344 0 0 -0.0014028 0 -0.655098
3 8.81139 -0.000450134 -0.000112057 -2.28885 0 0.000157588
4 5.77839 0.000286102 0 -1.53353 0 0
5 2.23163 -0.000329971 -0.000364304 -0.75532 0 0
6 11.4725 0 0 -2.28785 0.456116 0.213663
7 0.615219 -0.993092 -0.8107 2.33154 0.49143 -0.467307
8 2.24752 0 0 0.184051 -0.000815392 0.3514
9 1.11936 0 0 0.0719058 0.22699 0.00278412
10 3.71348 -0.10264 0.10219 1.55813 0.550067 0.0727845
11 1.72615 0 0 0.0130938 -0.0253458 -0.58864
12 1.21114 0 0 -0.00463504 0.0170164 -0.863412
13 3.59919 -1.06012 0.0708876 1.55942 0.195064 -0.0649503
14 1.66069 0 0 -0.00432474 0.0777452 -0.278549
15 1.167 0 0 -0.0233512 0.0241549 -0.401015
16 2.18853 0.501039 0.0576582 1.57004 0.0330459 0.225874
17 1.29609 0 0 0.0245655 -0.0398779 -0.741083
18 1.62202 0.000713348 -0.000469208 0.00984855 -0.0234245 -0.831087
19 1.22241 0 0 0.0013607 0.00642054 -0.52186
20 1.76707 1.27612 0.0366402 1.57002 0.262026 0.261241
21 1.55588 0 0 -0.0308129 0.0106455 -0.943666
22 1.24274 0 0 -0.000583395 0.000138525 -0.446635
23 0.784524 0 0 0.0133279 0.00939332 -0.326309
24 -3.6471 7.74038 -3.8527 -0.000932693 0 -2.0944
25 6.02794 0 0 0.769268 0.909107 0.0439879
26 11.7344 0 0 0.00140285 0 1.54133
27 8.81167 0 0 0.154816 0 0
28 5.77884 0 0 0.103727 0 0
29 2.23249 0 0 0.0510893 0 0
30 11.4725 0 0 0.384811 -0.234434 -0.718897
31 0.615812 0.994372 -0.809165 -2.95367 0.480861 0.223813
32 2.24752 0 0 -0.083166 0.257048 0.264172
33 1.11936 0 0 0.106547 0.169507 0.93736
34 3.71349 0.10264 0.10219 -1.53196 0.903048 -0.384383
35 1.72615 0 0 -0.00479617 -0.00187107 1.31044
36 1.21112 0 0 0.00977507 0.0146796 1.18496
37 3.5992 1.06012 0.0708876 -1.55949 0.156159 0.0645017
38 1.66069 0 0 0.0444974 0.0639187 0.831692
39 1.16699 0 0 0.0223071 0.00932779 0.798134
40 2.18853 -0.50104 0.0576587 -1.57003 0.119427 -0.225808
41 1.29609 0 0 0.271417 0.0698929 0.770014
42 1.62201 -0.000713348 -0.000470161 -0.0323156 -0.0109793 1.4179
43 1.22241 0 0 -0.00658507 0.00177662 1.04424
44 1.76707 -1.27612 0.0366406 -1.44072 0.1345 -0.261341
45 1.55588 0 0 0.182858 0.0427366 0.752105
46 1.24273 0 0 0.000591866 0 0.838875
47 0.784532 0 0 -0.00599209 0.000868475 1.11469
48 0 0 0 0 0 0
49 -4.81866 -17.2151 -7.47281 0.000745733 -0.00122339 0
50 0 -1.70357 0.0050807 0 0 0
51 -0.0019598 3.96104 2.21118 0 0 0
52 0.641596 -0.666149 0.75166 0 0 0
53 0.786658 -3.45621 1.13628 0 0.198355 0
54 -0.70623 -4.69238 1.98618 3.14159 -0.0872664 -3.14159
55 0.01333 1.02904 3.61174 0 0 0
56 0.01333 -1.24399 2.23877 0 0 0
57 -4.8145 -22.4093 -12.5987 0.000466624 -0.000955174 0.000137747
58 0.0129185 0.0367699 5.95712 0 0 0
time 28
0 1.29637 -0.499222 -12.0785 0.000934124 0 -0.959925
1 6.02794 0 0 -0.820868 0.0140966 -0.732696
2 11.7344 0 0 -0.00140285 0 -0.650593
3 8.81138 -0.000450134 -0.000112534 -2.28815 0 0.00015742
4 5.77839 0.000286102 0 -1.53306 0 0
5 2.23164 -0.000329971 -0.000363827 -0.755089 0 0
6 11.4725 0 0 -2.28798 0.455911 0.210941
7 0.615217 -0.993092 -0.8107 2.33154 0.49143 -0.467307
8 2.24752 0 0 0.184051 -0.000815475 0.3514
9 1.11936 0 0 0.0719058 0.22699 0.00278396
10 3.71348 -0.102643 0.102191 1.55813 0.550067 0.0727846
11 1.72615 0 0 0.0130937 -0.025346 -0.58864
12 1.21114 0 0 -0.0046351 0.0170162 -0.863412
13 3.59919 -1.06012 0.0708885 1.55942 0.195064 -0.0649502
14 1.66069 0 0 -0.00432475 0.0777452 -0.278549
15 1.167 0 0 -0.0233511 0.0241549 -0.401015
16 2.18852 0.501039 0.0576591 1.57004 0.0330458 0.225874
17 1.29609 0 0 0.0245655 -0.0398779 -0.741083
18 1.62202 0.000713348 -0.000469208 0.00984871 -0.0234246 -0.831087
19 1.22241 0 0 0.00136068 0.00642047 -0.52186
20 1.76707 1.27612 0.0366411 1.57002 0.262026 0.261241
21 1.55588 0 0 -0.0308128 0.0106455 -0.943666
22 1.24274 0 0 -0.000583356 0.00013835 -0.446635
23 0.784524 0 0 0.0133278 0.00939343 -0.326309
24 -3.6471 7.74038 -3.8527 -0.000932693 0 -2.0944
25 6.02794 0 0 0.770501 0.908262 0.0451222
26 11.7344 0 0 0.00140256 0 1.53931
27 8.81167 0 0 0.155086 0 0
28 5.77884 0 0 0.103908 0 0
29 2.23249 0 0 0.0511785 0 0
30 11.4725 0 0 0.384419 -0.234279 -0.71772
31 0.615811 0.994372 -0.809165 -2.95367 0.480861 0.223812
32 2.24752 0 0 -0.0831659 0.257048 0.264173
33 1.11936 0 0 0.106547 0.169507 0.937361
34 3.71348 0.102639 0.102191 -1.53196 0.903048 -0.384383
35 1.72615 0 0 -0.00479622 -0.00187111 1.31044
36 1.21112 0 0 0.00977506 0.0146796 1.18496
37 3.5992 1.06012 0.070889 -1.55949 0.15616 0.0645016
38 1.66069 0 0 0.0444974 0.0639187 0.831692
39 1.16699 0 0 0.0223071 0.00932782 0.798134
40 2.18853 -0.50104 0.0576591 -1.57003 0.119427 -0.225808
41 1.29609 0 0 0.271416 0.0698929 0.770014
42 1.62201 -0.000711441 -0.000469208 -0.0323155 -0.0109794 1.4179
43 1.22241 0 0 -0.00658509 0.00177676 1.04424
44 1.76707 -1.27612 0.0366409 -1.44072 0.1345 -0.261341
45 1.55588 0 0 0.182858 0.0427366 0.752105
46 1.24273 0 0 0.000591861 0 0.838876
47 0.784531 0 0 -0.00599213 0.000868381 1.11469
48 0 0 0 0 0 0
49 -4.82148 -17.2319 -7.47283 0.000504681 -0.000991465 0
50 0 -1.70357 0.0050807 0 0 0
51 -0.0019598 3.96104 2.21118 0 0 0
52 0.641596 -0.666147 0.75166 0 0 0
53 0.786658 -3.45621 1.13628 0 0.198355 0
54 -0.70623 -4.69238 1.98618 3.14159 -0.0872663 3.14159
55 0.01333 1.02904 3.61174 0 0 0
56 0.01333 -1.244 2.23877 0 0 0
57 -4.81868 -22.4273 -12.5975 0.000225595 -0.00072324 0.000106164
58 0.0129194 0.0367718 5.95712 0 0 0
time 29
0 1.29637 -0.499222 -12.0785 0.000934124 0 -0.959925
1 6.02794 0 0 -0.820891 0.0122229 -0.734436
2 11.7344 0 0 -0.00140276 0 -0.644893
3 8.81139 -0.000450134 -0.00011158 -2.28734 0 0.000157388
4 5.77839 0.000284195 0 -1.53252 0 0
5 2.23163 -0.000329971 -0.000363827 -0.754822 0 0
6 11.4725 0 0 -2.28822 0.455696 0.207509
7 0.615219 -0.993091 -0.8107 2.33154 0.49143 -0.467307
8 2.24752 0 0 0.184051 -0.000815431 0.3514
9 1.11936 0 0 0.0719057 0.22699 0.00278402
10 3.71348 -0.102642 0.102191 1.55813 0.550067 0.0727847
11 1.72615 0 0 0.0130937 -0.025346 -0.58864
12 1.21114 0 0 -0.00463509 0.0170164 -0.863412
13 3.59919 -1.06012 0.0708885 1.55942 0.195064 -0.0649502
14 1.66069 0 0 -0.00432458 0.0777453 -0.278549
15 1.167 0 0 -0.0233511 0.0241549 -0.401015
16 2.18853 0.50104 0.0576591 1.57004 0.0330459 0.225874
17 1.29609 0 0 0.0245656 -0.039878 -0.741083
18 1.62202 0.000715256 -0.000471115 0.00984868 -0.0234246 -0.831087
19 1.22241 0 0 0.0013608 0.00642075 -0.52186
20 1.76707 1.27612 0.0366402 1.57002 0.262026 0.261241
21 1.55588 0 0 -0.0308129 0.0106455 -0.943666
22 1.24274 0 0 -0.000583472 0.000138324 -0.446636
23 0.784523 0 0 0.0133279 0.00939338 -0.326309
24 -3.6471 7.74038 -3.8527 -0.000932693 0 -2.0944
25 6.02794 0 0 0.772085 0.907165 0.0465989
26 11.7344 0 0 0.00140267 0 1.53675
27 8.81167 0 0 0.155385 0 0
28 5.77884 0 0 0.104108 0 0
29 2.23249 0 0 0.051277 0 0
30 11.4725 0 0 0.383919 -0.234031 -0.716388
31 0.615812 0.994372 -0.809165 -2.95367 0.480861 0.223812
32 2.24752 0 0 -0.083166 0.257048 0.264172
33 1.11936 0 0 0.106547 0.169507 0.937361
34 3.71348 0.102639 0.10219 -1.53196 0.903048 -0.384383
35 1.72615 0 0 -0.00479613 -0.00187118 1.31044
36 1.21112 0 0 0.00977504 0.0146796 1.18496
37 3.5992 1.06012 0.0708885 -1.55949 0.156159 0.0645016
38 1.66069 0 0 0.0444974 0.0639188 0.831692
39 1.16699 0 0 0.0223071 0.00932776 0.798134
40 2.18853 -0.50104 0.0576589 -1.57003 0.119427 -0.225808
41 1.29609 0 0 0.271416 0.0698929 0.770014
42 1.62202 -0.000713348 -0.000469208 -0.0323154 -0.0109793 1.4179
43 1.22241 0 0 -0.00658517 0.00177681 1.04424
44 1.76707 -1.27612 0.0366404 -1.44072 0.1345 -0.261341
45 1.55588 0 0 0.182858 0.0427366 0.752105
46 1.24273 0 0 0.000591914 0 0.838876
47 0.784532 0 0 -0.00599219 0.000868373 1.11469
48 0 0 0 0 0 0
49 -4.82465 -17.2533 -7.47287 0.000332686 -0.000677965 0
50 0 -1.70357 0.00508118 0 0 0
51 -0.0019598 3.96104 2.21118 0 0 0
52 0.641596 -0.666149 0.75166 0 0 0
53 0.786659 -3.45621 1.13628 0 0.198355 0
54 -0.706229 -4.69238 1.98618 -3.14159 -0.0872664 3.14159
55 0.0133305 1.02904 3.61174 0 0 0
56 0.0133305 -1.24399 2.23877 0 0 0
57 -4.82366 -22.4496 -12.5966 0 -0.000409732 0
58 0.0129199 0.0367718 5.95713 0 0 0
time 30
0 1.29637 -0.499222 -12.0785 0.000934124 0 -0.959925
1 6.02794 0 0 -0.820914 0.00998298 -0.736548
2 11.7344 0 0 -0.00140293 0 -0.637906
3 8.81139 -0.000450134 -0.00011158 -2.28644 0 0.000157078
4 5.77839 0.000286102 0 -1.53191 0 0
5 2.23164 -0.000329971 -0.000362873 -0.754524 0 0
6 11.4725 0 0 -2.28859 0.455482 0.203319
7 0.615219 -0.993091 -0.8107 2.33154 0.49143 -0.467307
8 2.24752 0 0 0.184051 -0.000815271 0.3514
9 1.11936 0 0 0.0719057 0.22699 0.00278418
10 3.71348 -0.102641 0.102192 1.55813 0.550067 0.0727847
11 1.72615 0 0 0.0130937 -0.0253458 -0.58864
12 1.21114 0 0 -0.00463504 0.0170163 -0.863412
13 3.59919 -1.06012 0.0708885 1.55942 0.195064 -0.0649501
14 1.66069 0 0 -0.00432475 0.0777452 -0.278549
15 1.167 0 0 -0.0233509 0.0241548 -0.401015
16 2.18852 0.50104 0.0576591 1.57004 0.0330459 0.225874
17 1.2961 0 0 0.0245654 -0.0398778 -0.741083
18 1.62202 0.000713348 -0.000471115 0.00984866 -0.0234245 -0.831087
19 1.22241 0 0 0.00136073 0.00642042 -0.52186
20 1.76707 1.27612 0.0366411 1.57002 0.262026 0.261241
21 1.55588 0 0 -0.0308128 0.0106456 -0.943666
22 1.24274 0 0 -0.000583454 0.000138511 -0.446636
23 0.784523 0 0 0.0133279 0.00939337 -0.326309
24 -3.6471 7.74038 -3.8527 -0.000932693 0 -2.0944
25 6.02794 0 0 0.774048 0.905795 0.0484493
26 11.7344 0 0 0.00140281 0 1.53362
27 8.81167 0 0 0.155703 0 0
28 5.77884 0 0 0.104321 0 0
29 2.23249 0 0 0.0513821 0 0
30 11.4725 0 0 0.383302 -0.23367 -0.714931
31 0.615812 0.994373 -0.809166 -2.95367 0.480861 0.223812
32 2.24752 0 0 -0.083166 0.257048 0.264173
33 1.11936 0 0 0.106547 0.169507 0.93736
34 3.71349 0.102641 0.102191 -1.53196 0.903048 -0.384383
35 1.72615 0 0 -0.00479611 -0.00187107 1.31044
36 1.21112 0 0 0.00977506 0.0146796 1.18496
37 3.5992 1.06012 0.0708878 -1.55949 0.15616 0.0645016
38 1.66069 0 0 0.0444974 0.0639188 0.831692
39 1.16699 0 0 0.0223072 0.0093278 0.798134
40 2.18853 -0.50104 0.0576589 -1.57003 0.119427 -0.225808
41 1.29609 0 0 0.271417 0.0698929 0.770014
42 1.62202 -0.000713348 -0.000470161 -0.0323155 -0.0109793 1.4179
43 1.22241 0 0 -0.00658518 0.00177661 1.04424
44 1.76707 -1.27612 0.0366404 -1.44072 0.1345 -0.261341
45 1.55587 0 0 0.182858 0.0427366 0.752105
46 1.24273 0 0 0.000591788 0 0.838876
47 0.784532 0 0 -0.00599216 0.000868452 1.11469
48 0 0 0 0 0 0
49 -4.82809 -17.2798 -7.47293 0.000267062 -0.000273704 0
50 0 -1.70357 0.0050807 0 0 0
51 -0.00196028 3.96104 2.21118 0 0 0
52 0.641596 -0.666149 0.75166 0 0 0
53 0.786658 -3.45621 1.13628 0 0.198355 0
54 -0.70623 -4.69238 1.98618 -3.14159 -0.0872664 3.14159
55 0.0133295 1.02904 3.61174 0 0 0
56 0.0133295 -1.24399 2.23877 0 0 0
57 -4.82942 -22.4764 -12.5963 0 0 0
58 0.0129189 0.0367718 5.95712 0 0 0
end
