//Sequence File generated by the Wall Worm SMD Exporter PRO 1.99
//www.wallworm.com
version 1
nodes
0 "b_l_clav" -1
1 "b_l_upperarm" 0
2 "b_l_forearm" 1
3 "b_l_twist3" 2
4 "b_l_twist2" 2
5 "b_l_twist1" 2
6 "b_l_hand" 2
7 "b_l_thumb001" 6
8 "b_l_thumb002" 7
9 "b_l_thumb003" 8
10 "b_l_middle001" 6
11 "b_l_middle002" 10
12 "b_l_middle003" 11
13 "b_l_index001" 6
14 "b_l_index002" 13
15 "b_l_index003" 14
16 "b_l_hand_ringsqueezer" 6
17 "b_l_ring001" 16
18 "b_l_ring002" 17
19 "b_l_ring003" 18
20 "b_l_hand_pinkysqueezer" 6
21 "b_l_pinky001" 20
22 "b_l_pinky002" 21
23 "b_l_pinky003" 22
24 "b_r_clav" -1
25 "b_r_upperarm" 24
26 "b_r_forearm" 25
27 "b_r_twist3" 26
28 "b_r_twist2" 26
29 "b_r_twist1" 26
30 "b_r_hand" 26
31 "b_r_thumb001" 30
32 "b_r_thumb002" 31
33 "b_r_thumb003" 32
34 "b_r_middle001" 30
35 "b_r_middle002" 34
36 "b_r_middle003" 35
37 "b_r_index001" 30
38 "b_r_index002" 37
39 "b_r_index003" 38
40 "b_r_hand_ringsqueezer" 30
41 "b_r_ring001" 40
42 "b_r_ring002" 41
43 "b_r_ring003" 42
44 "b_r_hand_pinkysqueezer" 30
45 "b_r_pinky001" 44
46 "b_r_pinky002" 45
47 "b_r_pinky003" 46
48 "b_zero" -1
49 "d_gun" -1
50 "d_trigger" 49
51 "d_stock" 49
52 "d_selector" 49
53 "d_paddle" 49
54 "d_dustcover" 49
55 "d_charger" 49
56 "d_bcg" 49
57 "d_mag" -1
58 "d_boolet" 57
end
skeleton
time 0
0 1.29637 -0.499222 -12.0785 0.000934124 0 -0.959925
1 6.02794 0 0 -0.820913 0.0100352 -0.736535
2 11.7344 0 0 -0.00140286 0 -0.637902
3 8.81139 -0.000448227 -0.00011158 -2.28642 0 0.000157369
4 5.77839 0.000286102 0 -1.5319 0 0
5 2.23163 -0.000328064 -0.00036335 -0.75452 0 0
6 11.4725 0 0 -2.28859 0.455474 0.20326
7 0.615219 -0.993091 -0.810699 2.33154 0.49143 -0.467307
8 2.24752 0 0 0.184051 -0.000815328 0.3514
9 1.11936 0 0 0.0719057 0.22699 0.00278388
10 3.71348 -0.102638 0.102191 1.55813 0.550067 0.0727845
11 1.72615 0 0 0.0130939 -0.0253457 -0.58864
12 1.21114 0 0 -0.00463512 0.0170162 -0.863412
13 3.59919 -1.06012 0.0708885 1.55942 0.195064 -0.0649502
14 1.66069 0 0 -0.00432464 0.0777453 -0.278548
15 1.167 0 0 -0.023351 0.0241548 -0.401015
16 2.18852 0.501041 0.0576601 1.57004 0.0330458 0.225874
17 1.29609 0 0 0.0245655 -0.0398781 -0.741083
18 1.62202 0.000715256 -0.000471115 0.00984859 -0.0234243 -0.831087
19 1.22241 0 0 0.00136072 0.00642036 -0.52186
20 1.76707 1.27612 0.0366411 1.57002 0.262026 0.261241
21 1.55587 0 0 -0.0308127 0.0106457 -0.943667
22 1.24274 0 0 -0.00058353 0.000138311 -0.446635
23 0.784523 0 0 0.0133278 0.00939348 -0.326309
24 -3.6471 7.74038 -3.8527 -0.000932693 0 -2.0944
25 6.02794 0 0 0.774048 0.905795 0.0484493
26 11.7344 0 0 0.00140281 0 1.53362
27 8.81167 0 0 0.155703 0 0
28 5.77884 0 0 0.104321 0 0
29 2.23249 0 0 0.0513821 0 0
30 11.4725 0 0 0.383302 -0.23367 -0.714931
31 0.615812 0.994373 -0.809166 -2.95367 0.480861 0.223812
32 2.24752 0 0 -0.083166 0.257048 0.264173
33 1.11936 0 0 0.106547 0.169507 0.93736
34 3.71349 0.102641 0.102191 -1.53196 0.903048 -0.384383
35 1.72615 0 0 -0.00479611 -0.00187107 1.31044
36 1.21112 0 0 0.00977506 0.0146796 1.18496
37 3.5992 1.06012 0.0708878 -1.55949 0.15616 0.0645016
38 1.66069 0 0 0.0444974 0.0639188 0.831692
39 1.16699 0 0 0.0223072 0.0093278 0.798134
40 2.18853 -0.50104 0.0576589 -1.57003 0.119427 -0.225808
41 1.29609 0 0 0.271417 0.0698929 0.770014
42 1.62202 -0.000713348 -0.000470161 -0.0323155 -0.0109793 1.4179
43 1.22241 0 0 -0.00658518 0.00177661 1.04424
44 1.76707 -1.27612 0.0366404 -1.44072 0.1345 -0.261341
45 1.55587 0 0 0.182858 0.0427366 0.752105
46 1.24273 0 0 0.000591788 0 0.838876
47 0.784532 0 0 -0.00599216 0.000868452 1.11469
48 0 0 0 0 0 0
49 -4.82809 -17.2798 -7.47293 0.000267062 -0.000273704 0
50 0 -1.70357 0.0050807 0 0 0
51 -0.00196028 3.96104 2.21118 0 0 0
52 0.641596 -0.666149 0.75166 0 0 0
53 0.714397 -3.45621 1.13628 0 0 0
54 -0.70623 -4.69238 1.98618 -3.14159 -0.0872664 3.14159
55 0.0133295 1.02904 3.61174 0 0 0
56 0.0133295 -4.73569 2.23877 0 0 0
57 -4.83449 -22.4862 -12.5873 0 0 0
58 0.0129194 0.0367718 6.63003 0 0 0
time 1
0 1.29637 -0.499222 -12.0785 0.000934124 0 -0.959925
1 6.02794 0 0 -0.819481 0.0559118 -0.69679
2 11.7344 0 0 -0.0014029 0 -0.786343
3 8.81139 -0.00044632 -0.000112057 -2.31437 0 0.000157201
4 5.77839 0.000289917 0 -1.55063 0 0
5 2.23164 -0.000328064 -0.000364304 -0.763743 0 0
6 11.4725 0 0 -2.28617 0.451454 0.289724
7 0.615219 -0.99309 -0.8107 2.33154 0.49143 -0.467307
8 2.24752 0 0 0.184051 -0.000815382 0.3514
9 1.11936 0 0 0.0719057 0.22699 0.00278408
10 3.71348 -0.10264 0.102191 1.55813 0.550067 0.0727846
11 1.72615 0 0 0.0130937 -0.0253461 -0.58864
12 1.21114 0 0 -0.00463514 0.0170164 -0.863412
13 3.59919 -1.06012 0.0708876 1.55942 0.195064 -0.0649502
14 1.66069 0 0 -0.00432459 0.0777453 -0.278549
15 1.16699 0 0 -0.0233511 0.024155 -0.401015
16 2.18852 0.50104 0.0576582 1.57004 0.0330458 0.225874
17 1.29609 0 0 0.0245655 -0.039878 -0.741083
18 1.62202 0.000711441 -0.000473022 0.00984863 -0.0234245 -0.831087
19 1.22241 0 0 0.00136067 0.00642053 -0.52186
20 1.76707 1.27612 0.0366411 1.57002 0.262026 0.261241
21 1.55588 0 0 -0.0308126 0.0106458 -0.943666
22 1.24274 0 0 -0.000583562 0.000138181 -0.446636
23 0.784523 0 0 0.0133279 0.00939362 -0.326309
24 -3.6471 7.74038 -3.8527 -0.000932693 0 -2.0944
25 6.02794 0 0 0.723235 0.939553 -0.00491778
26 11.7344 0 0 0.0014026 0 1.60947
27 8.81167 0 0 0.140418 0 0
28 5.77884 0 0 0.0940801 0 0
29 2.23249 0 0 0.0463379 0 0
30 11.4725 0 0 0.386515 -0.243279 -0.742056
31 0.615812 0.994372 -0.809165 -2.95367 0.480861 0.223812
32 2.24752 0 0 -0.0831661 0.257048 0.264172
33 1.11936 0 0 0.106547 0.169507 0.937361
34 3.71349 0.102639 0.102191 -1.53196 0.903048 -0.384383
35 1.72615 0 0 -0.0047961 -0.00187113 1.31044
36 1.21112 0 0 0.00977506 0.0146795 1.18496
37 3.5992 1.06012 0.0708885 -1.55949 0.156159 0.0645017
38 1.66069 0 0 0.0572382 0.0528182 1.04924
39 1.16699 0 0 0.0226732 0.00409383 1.01553
40 2.18853 -0.50104 0.0576591 -1.57003 0.119427 -0.225808
41 1.29609 0 0 0.271416 0.0698929 0.770014
42 1.62202 -0.000713348 -0.000470161 -0.0323153 -0.0109794 1.4179
43 1.22241 0 0 -0.0065852 0.00177684 1.04424
44 1.76707 -1.27612 0.0366411 -1.44072 0.1345 -0.261341
45 1.55588 0 0 0.182858 0.0427366 0.752105
46 1.24273 0 0 0.00059191 0 0.838876
47 0.784531 0 0 -0.00599221 0.000868484 1.11469
48 0 0 0 0 0 0
49 -4.82734 -16.6206 -7.47292 -0.00303296 -0.000268353 0
50 0 -1.56487 0.00508118 0.174533 0 0
51 -0.0019598 3.96104 2.21118 0 0 0
52 0.641597 -0.666147 0.751661 0 0 0
53 0.714397 -3.45621 1.13628 0 0 0
54 -0.706229 -4.69238 1.98618 -3.14159 -0.0872664 3.14159
55 0.01333 1.02904 3.61174 0 0 0
56 0.01333 -2.98984 2.23877 0 0 0
57 -4.83379 -21.8438 -12.5701 -0.00330002 0 0
58 0.0128808 0.110157 6.55102 0.0398745 0 0
time 2
0 1.29637 -0.499222 -12.0785 0.000934124 0 -0.959925
1 6.02794 0 0 -0.817445 0.0873048 -0.658479
2 11.7344 0 0 -0.0014028 0 -0.943753
3 8.81138 -0.000450134 -0.00011158 -2.33443 0 0.000158001
4 5.77839 0.000284195 0 -1.56407 0 0.00010014
5 2.23164 -0.000329971 -0.00036335 -0.770363 0 0
6 11.4725 0 0 -2.27186 0.43576 0.376243
7 0.615215 -0.99309 -0.8107 2.33154 0.49143 -0.467307
8 2.24752 0 0 0.184051 -0.000815362 0.3514
9 1.11936 0 0 0.0719058 0.22699 0.00278428
10 3.71348 -0.102638 0.102192 1.55813 0.550067 0.0727845
11 1.72615 0 0 0.0130936 -0.025346 -0.58864
12 1.21114 0 0 -0.00463517 0.0170165 -0.863412
13 3.59919 -1.06012 0.0708885 1.55942 0.195064 -0.0649501
14 1.66069 0 0 -0.00432484 0.077745 -0.278549
15 1.167 0 0 -0.0233511 0.0241548 -0.401015
16 2.18852 0.501042 0.0576591 1.57004 0.0330459 0.225874
17 1.29609 0 0 0.0245654 -0.0398781 -0.741083
18 1.62202 0.000713348 -0.000471115 0.00984866 -0.0234246 -0.831087
19 1.22241 0 0 0.00136063 0.00642046 -0.52186
20 1.76707 1.27612 0.0366411 1.57002 0.262026 0.261241
21 1.55588 0 0 -0.0308127 0.0106455 -0.943666
22 1.24274 0 0 -0.000583467 0.000138569 -0.446635
23 0.784523 0 0 0.0133279 0.00939332 -0.326309
24 -3.6471 7.74038 -3.8527 -0.000932693 0 -2.0944
25 6.02794 0 0 0.637425 0.984568 -0.0895373
26 11.7344 0 0 0.00140274 0 1.70179
27 8.81167 0 0 0.124204 0 0
28 5.77884 0 0 0.083217 0 0
29 2.23249 0 0 0.0409875 0 0
30 11.4725 0 0 0.388664 -0.277285 -0.735257
31 0.615813 0.994372 -0.809165 -2.95367 0.480861 0.223812
32 2.24752 0 0 -0.0831662 0.257048 0.264173
33 1.11936 0 0 0.106547 0.169507 0.937361
34 3.71349 0.10264 0.102191 -1.53196 0.903047 -0.384383
35 1.72615 0 0 -0.0047962 -0.00187111 1.31044
36 1.21112 0 0 0.00977503 0.0146796 1.18496
37 3.5992 1.06012 0.0708885 -1.55949 0.15616 0.0645017
38 1.66069 0 0 0.0572382 0.0528182 1.04923
39 1.16699 0 0 0.0226732 0.00409381 1.01553
40 2.18853 -0.50104 0.0576589 -1.57003 0.119427 -0.225808
41 1.29609 0 0 0.271417 0.0698929 0.770013
42 1.62202 -0.000713348 -0.000470161 -0.0323155 -0.0109794 1.4179
43 1.22241 0 0 -0.00658514 0.00177678 1.04424
44 1.76707 -1.27612 0.0366406 -1.44072 0.1345 -0.261341
45 1.55588 0 0 0.182858 0.0427366 0.752105
46 1.24273 0 0 0.000591854 0 0.838876
47 0.784532 0 0 -0.00599224 0.000868507 1.11469
48 0 0 0 0 0 0
49 -4.82809 -15.7061 -7.47292 -0.0416302 -0.000258472 0
50 0 -1.56487 0.00508118 0.174533 0 0
51 -0.00196028 3.96104 2.21118 0 0 0
52 0.641596 -0.666147 0.75166 0 0 0
53 0.714397 -3.45621 1.13628 0 0 0
54 -0.70623 -4.69238 1.98618 -3.14159 -0.0872663 3.14159
55 0.01333 1.02904 3.61174 0 0 0
56 0.01333 -1.24399 2.23877 0 0 0
57 -4.83468 -21.1221 -12.3648 -0.0418973 0 0
58 0.0129194 0.0367699 6.63003 0 0 0
time 3
0 1.29637 -0.499222 -12.0785 0.000934124 0 -0.959925
1 6.02794 0 0 -0.815387 0.108814 -0.646704
2 11.7344 0 0 -0.0014029 0 -0.992307
3 8.81139 -0.000450134 -0.000112534 -2.38139 0 0.00015763
4 5.77839 0.000286102 0 -1.59553 0 0
5 2.23164 -0.000329971 -0.000363827 -0.78586 0 0
6 11.4725 0 0 -2.30668 0.415575 0.387631
7 0.615221 -0.993091 -0.810699 2.33154 0.49143 -0.467307
8 2.24752 0 0 0.184051 -0.000815339 0.3514
9 1.11936 0 0 0.0719057 0.22699 0.00278414
10 3.71348 -0.102641 0.102191 1.55813 0.550067 0.0727845
11 1.72615 0 0 0.0130939 -0.0253457 -0.58864
12 1.21114 0 0 -0.00463514 0.0170164 -0.863412
13 3.5992 -1.06012 0.0708885 1.55942 0.195064 -0.0649501
14 1.66069 0 0 -0.00432476 0.0777453 -0.278548
15 1.167 0 0 -0.0233511 0.0241547 -0.401015
16 2.18852 0.50104 0.0576591 1.57004 0.0330458 0.225874
17 1.29609 0 0 0.0245655 -0.039878 -0.741083
18 1.62202 0.000715256 -0.000471115 0.00984869 -0.0234245 -0.831087
19 1.22241 0 0 0.00136077 0.00642037 -0.52186
20 1.76707 1.27612 0.0366411 1.57002 0.262026 0.261241
21 1.55588 0 0 -0.0308128 0.0106455 -0.943667
22 1.24274 0 0 -0.00058344 0.000138453 -0.446635
23 0.784524 0 0 0.0133279 0.00939343 -0.326309
24 -3.6471 7.74038 -3.8527 -0.000932693 0 -2.0944
25 6.02794 0 0 0.616564 0.994675 -0.115632
26 11.7344 0 0 0.00140271 0 1.73255
27 8.81167 0 0 0.0837187 0 0
28 5.77884 0 0 0.0560916 0 0
29 2.23249 0 0 0.0276272 0 0
30 11.4725 0 0 0.352385 -0.278274 -0.752505
31 0.615813 0.994373 -0.809165 -2.95367 0.480861 0.223812
32 2.24752 0 0 -0.0831661 0.257048 0.264172
33 1.11936 0 0 0.106547 0.169507 0.937361
34 3.71348 0.102639 0.102191 -1.53196 0.903048 -0.384383
35 1.72615 0 0 -0.00479618 -0.00187103 1.31044
36 1.21112 0 0 0.00977509 0.0146795 1.18496
37 3.5992 1.06012 0.070888 -1.55949 0.156159 0.0645017
38 1.66069 0 0 0.0572382 0.0528183 1.04924
39 1.16699 0 0 0.0226732 0.0040938 1.01553
40 2.18853 -0.50104 0.0576591 -1.57003 0.119427 -0.225808
41 1.29609 0 0 0.271416 0.0698929 0.770014
42 1.62201 -0.000713348 -0.000470161 -0.0323155 -0.0109794 1.4179
43 1.22241 0 0 -0.00658511 0.00177668 1.04424
44 1.76707 -1.27612 0.0366406 -1.44072 0.1345 -0.261341
45 1.55587 0 0 0.182858 0.0427366 0.752105
46 1.24273 0 0 0.000591962 0 0.838876
47 0.784532 0 0 -0.0059921 0.000868416 1.11469
48 0 0 0 0 0 0
49 -4.83625 -15.4507 -7.47291 -0.0346609 0.0363884 -0.000692844
50 0 -1.56487 0.00508022 0.174533 0 0
51 -0.0019598 3.96104 2.21118 0 0 0
52 0.641596 -0.666144 0.75166 0 0 0
53 0.714397 -3.4562 1.13628 0 0 0
54 -0.70623 -4.69238 1.98618 3.14159 -0.0872664 -3.14159
55 0.01333 1.02904 3.61174 0 0 0
56 0.01333 -2.55338 2.23877 0 0 0
57 -5.02688 -20.8324 -12.3988 -0.0349267 0.0366634 -0.000659968
58 0.0131502 -0.403528 7.10409 -0.239247 0 0
time 4
0 1.29637 -0.499222 -12.0785 0.000934124 0 -0.959925
1 6.02794 0 0 -0.814484 0.116927 -0.65101
2 11.7344 0 0 -0.00140282 0 -0.97687
3 8.81138 -0.000452042 -0.000112057 -2.40452 0 0.000157026
4 5.77839 0.000284195 0 -1.61103 0 0
5 2.23163 -0.000329971 -0.00036478 -0.793492 0 0
6 11.4725 0 0 -2.33188 0.412034 0.373139
7 0.615221 -0.993092 -0.810701 2.33154 0.49143 -0.467307
8 2.24752 0 0 0.184051 -0.000815317 0.3514
9 1.11936 0 0 0.0719057 0.22699 0.00278411
10 3.71348 -0.102642 0.10219 1.55813 0.550067 0.0727845
11 1.72615 0 0 0.0130938 -0.0253459 -0.58864
12 1.21114 0 0 -0.00463504 0.0170163 -0.863412
13 3.5992 -1.06012 0.0708876 1.55942 0.195064 -0.0649502
14 1.66069 0 0 -0.00432474 0.0777452 -0.278549
15 1.167 0 0 -0.023351 0.0241547 -0.401015
16 2.18853 0.501038 0.0576582 1.57004 0.0330459 0.225874
17 1.29609 0 0 0.0245655 -0.0398781 -0.741083
18 1.62202 0.000713348 -0.000473022 0.00984863 -0.0234245 -0.831087
19 1.22241 0 0 0.00136064 0.00642064 -0.52186
20 1.76707 1.27612 0.0366402 1.57002 0.262026 0.261241
21 1.55588 0 0 -0.0308128 0.0106455 -0.943666
22 1.24273 0 0 -0.000583467 0.000138569 -0.446635
23 0.784523 0 0 0.013328 0.0093934 -0.326309
24 -3.6471 7.74038 -3.8527 -0.000932693 0 -2.0944
25 6.02794 0 0 0.635424 0.987069 -0.101388
26 11.7344 0 0 0.00140271 0 1.7245
27 8.81167 0 0 0.066629 0 0
28 5.77884 0 0 0.0446414 0 0
29 2.23249 0 0 0.0219875 0 0
30 11.4725 0 0 0.333716 -0.264509 -0.775782
31 0.615813 0.994372 -0.809166 -2.95367 0.480861 0.223813
32 2.24752 0 0 -0.083166 0.257048 0.264173
33 1.11936 0 0 0.106547 0.169507 0.937361
34 3.71348 0.102639 0.10219 -1.53196 0.903048 -0.384383
35 1.72615 0 0 -0.00479625 -0.00187111 1.31044
36 1.21112 0 0 0.00977512 0.0146796 1.18496
37 3.5992 1.06012 0.0708876 -1.55949 0.15616 0.0645018
38 1.66069 0 0 0.0572382 0.0528182 1.04924
39 1.16699 0 0 0.0226732 0.00409382 1.01553
40 2.18853 -0.50104 0.057658 -1.57003 0.119427 -0.225808
41 1.29609 0 0 0.271416 0.0698929 0.770014
42 1.62202 -0.000713348 -0.000470161 -0.0323154 -0.0109795 1.4179
43 1.22241 0 0 -0.00658509 0.00177683 1.04424
44 1.76707 -1.27612 0.0366397 -1.44072 0.1345 -0.261341
45 1.55588 0 0 0.182858 0.0427366 0.752105
46 1.24273 0 0 0.000591846 0 0.838876
47 0.784532 0 0 -0.00599219 0.000868347 1.11469
48 0 0 0 0 0 0
49 -4.85108 -15.5888 -7.4729 -0.0107368 0.0554747 -0.00141396
50 0 -1.56487 0.0050807 0.174533 0 0
51 -0.00195932 3.96104 2.21118 0 0 0
52 0.641596 -0.666146 0.75166 0 0 0
53 0.714397 -3.45621 1.13628 0 0 0
54 -0.70623 -4.69238 1.98618 -3.14159 -0.0872663 3.14159
55 0.0133305 1.02904 3.61174 0 0 0
56 0.0133305 -4.73568 2.23877 0 0 0
57 -5.14646 -20.8507 -12.5215 -0.0110017 0.0557489 -0.00137447
58 0.0133295 -2.20708 7.34991 0 0 0
time 5
0 1.29637 -0.499222 -12.0785 0.000934124 0 -0.959925
1 6.02794 0 0 -0.814956 0.112847 -0.665102
2 11.7344 0 0 -0.0014028 0 -0.92275
3 8.81138 -0.000448227 -0.000113487 -2.40937 0 0.000157217
4 5.77839 0.000286102 0 -1.61427 0 0
5 2.23163 -0.000328064 -0.000364304 -0.795091 0 0
6 11.4725 0 0 -2.34815 0.417399 0.341713
7 0.615219 -0.993092 -0.810701 2.33154 0.49143 -0.467307
8 2.24752 0 0 0.184051 -0.000815395 0.3514
9 1.11936 0 0 0.0719057 0.22699 0.00278424
10 3.71348 -0.102642 0.102191 1.55813 0.550067 0.0727846
11 1.72615 0 0 0.0130936 -0.0253461 -0.58864
12 1.21114 0 0 -0.00463504 0.0170163 -0.863412
13 3.59919 -1.06012 0.0708876 1.55942 0.195064 -0.0649503
14 1.66069 0 0 -0.00432474 0.0777452 -0.278549
15 1.167 0 0 -0.0233511 0.0241547 -0.401015
16 2.18853 0.50104 0.0576582 1.57004 0.0330459 0.225874
17 1.29609 0 0 0.0245655 -0.039878 -0.741083
18 1.62202 0.000713348 -0.000471115 0.00984861 -0.0234245 -0.831087
19 1.22241 0 0 0.00136066 0.00642034 -0.52186
20 1.76707 1.27612 0.0366402 1.57002 0.262026 0.261241
21 1.55588 0 0 -0.0308128 0.0106455 -0.943666
22 1.24273 0 0 -0.000583395 0.000138525 -0.446635
23 0.784523 0 0 0.0133279 0.0093935 -0.326309
24 -3.6471 7.74038 -3.8527 -0.000932693 0 -2.0944
25 6.02794 0 0 0.672997 0.969475 -0.0668027
26 11.7344 0 0 0.00140279 0 1.69266
27 8.81167 0 0 0.0648191 0 0
28 5.77884 0 0 0.043429 0 0
29 2.23249 0 0 0.0213903 0 0
30 11.4725 0 0 0.325875 -0.246711 -0.79344
31 0.615813 0.994373 -0.809165 -2.95367 0.480861 0.223812
32 2.24752 0 0 -0.0831661 0.257048 0.264172
33 1.11936 0 0 0.106547 0.169508 0.937361
34 3.71349 0.10264 0.10219 -1.53196 0.903048 -0.384383
35 1.72615 0 0 -0.00479616 -0.00187108 1.31044
36 1.21112 0 0 0.00977517 0.0146796 1.18496
37 3.5992 1.06012 0.0708883 -1.55949 0.15616 0.0645017
38 1.66069 0 0 0.0572382 0.0528183 1.04924
39 1.16699 0 0 0.0226732 0.00409379 1.01553
40 2.18853 -0.501041 0.0576584 -1.57003 0.119427 -0.225808
41 1.29609 0 0 0.271417 0.0698929 0.770014
42 1.62202 -0.000715256 -0.000470161 -0.0323156 -0.0109794 1.4179
43 1.22241 0 0 -0.00658506 0.0017768 1.04424
44 1.76707 -1.27612 0.0366404 -1.44072 0.1345 -0.261341
45 1.55587 0 0 0.182858 0.0427367 0.752105
46 1.24273 0 0 0.000591947 0 0.838876
47 0.784531 0 0 -0.00599211 0.000868498 1.11469
48 0 0 0 0 0 0
49 -4.86703 -15.9446 -7.47288 0.0156146 0.0628437 -0.00206995
50 0 -1.56487 0.0050807 0.174533 0 0
51 -0.0019598 3.96104 2.21118 0 0 0
52 0.641595 -0.666149 0.751661 0 0 0
53 0.714397 -3.45621 1.13628 0 0 0
54 -0.70623 -4.69238 1.98618 -3.14159 -0.0872664 3.14159
55 0.0133295 1.02904 3.61174 0 0 0
56 0.013329 -4.73568 2.23877 0 0 0
57 -5.21139 -21.0712 -12.6558 0.0153505 0.0631167 -0.00202322
58 0.01333 -2.20708 7.34991 0 0 0
time 6
0 1.29637 -0.499222 -12.0785 0.000934124 0 -0.959925
1 6.02794 0 0 -0.816659 0.0956696 -0.683376
2 11.7344 0 0 -0.00140289 0 -0.852085
3 8.81139 -0.000450134 -0.000112534 -2.3952 0 0.00015656
4 5.77839 0.000286102 0 -1.60478 0 0
5 2.23163 -0.000329971 -0.000364304 -0.790415 0 0
6 11.4725 0 0 -2.35042 0.424657 0.30298
7 0.615221 -0.993092 -0.8107 2.33154 0.49143 -0.467307
8 2.24752 0 0 0.184051 -0.000815328 0.3514
9 1.11936 0 0 0.0719057 0.22699 0.00278396
10 3.71348 -0.102642 0.102191 1.55813 0.550067 0.0727846
11 1.72615 0 0 0.0130937 -0.025346 -0.58864
12 1.21114 0 0 -0.00463515 0.0170162 -0.863412
13 3.59919 -1.06012 0.0708876 1.55942 0.195064 -0.0649502
14 1.66069 0 0 -0.00432482 0.0777453 -0.278548
15 1.167 0 0 -0.023351 0.0241548 -0.401015
16 2.18853 0.50104 0.0576591 1.57004 0.0330459 0.225874
17 1.29609 0 0 0.0245655 -0.039878 -0.741083
18 1.62202 0.000713348 -0.000471115 0.00984863 -0.0234245 -0.831087
19 1.22241 0 0 0.00136058 0.00642051 -0.52186
20 1.76707 1.27612 0.0366402 1.57002 0.262026 0.261241
21 1.55588 0 0 -0.0308127 0.0106455 -0.943666
22 1.24274 0 0 -0.000583628 0.000138472 -0.446636
23 0.784523 0 0 0.013328 0.00939327 -0.326309
24 -3.6471 7.74038 -3.8527 -0.000932693 0 -2.0944
25 6.02794 0 0 0.708775 0.950193 -0.0311299
26 11.7344 0 0 0.0014026 0 1.65107
27 8.81167 0 0 0.0749218 0 0
28 5.77884 0 0 0.0501977 0 0
29 2.23249 0 0 0.0247242 0 0
30 11.4725 0 0 0.327191 -0.235521 -0.790304
31 0.615813 0.994372 -0.809165 -2.95367 0.480861 0.223812
32 2.24752 0 0 -0.083166 0.257048 0.264172
33 1.11936 0 0 0.106547 0.169507 0.937361
34 3.71348 0.102639 0.102191 -1.53196 0.903048 -0.384383
35 1.72615 0 0 -0.00479629 -0.00187108 1.31044
36 1.21112 0 0 0.00977507 0.0146795 1.18496
37 3.5992 1.06012 0.0708885 -1.55949 0.15616 0.0645016
38 1.66069 0 0 0.055412 0.0547312 1.01526
39 1.16699 0 0 0.0227595 0.00495236 0.98156
40 2.18853 -0.50104 0.0576596 -1.57003 0.119427 -0.225808
41 1.29609 0 0 0.271416 0.0698929 0.770014
42 1.62202 -0.000713348 -0.000470161 -0.0323154 -0.0109794 1.4179
43 1.22241 0 0 -0.00658513 0.00177679 1.04424
44 1.76707 -1.27612 0.0366404 -1.44072 0.1345 -0.261341
45 1.55588 0 0 0.182858 0.0427367 0.752105
46 1.24273 0 0 0.000591979 0 0.838875
47 0.784532 0 0 -0.00599215 0.000868424 1.11469
48 0 0 0 0 0 0
49 -4.87858 -16.3425 -7.47286 0.0271704 0.059949 -0.00249789
50 0 -1.58654 0.00508022 0.147262 0 0
51 -0.0019598 3.96104 2.21118 0 0 0
52 0.641597 -0.666147 0.75166 0 0 0
53 0.714397 -3.45621 1.13628 0 0 0
54 -0.706229 -4.69238 1.98618 3.14159 -0.0872663 -3.14159
55 0.01333 1.02904 3.61174 0 0 0
56 0.01333 -4.73568 2.23877 0 0 0
57 -5.2135 -21.4086 -12.7156 0.0269063 0.0602215 -0.00244802
58 0.0133295 -2.20708 7.34991 0 0 0
time 7
0 1.29637 -0.499222 -12.0785 0.000934124 0 -0.959925
1 6.02794 0 0 -0.818083 0.0780202 -0.696986
2 11.7344 0 0 -0.00140279 0 -0.798981
3 8.81139 -0.000450134 -0.000112057 -2.3709 0 0.00015709
4 5.77839 0.000286102 0 -1.5885 0 0
5 2.23164 -0.000329971 -0.000363827 -0.782398 0 0
6 11.4725 0 0 -2.33794 0.435302 0.279919
7 0.615219 -0.99309 -0.8107 2.33154 0.49143 -0.467307
8 2.24752 0 0 0.184051 -0.000815313 0.3514
9 1.11936 0 0 0.0719057 0.22699 0.00278414
10 3.71348 -0.102641 0.102191 1.55813 0.550067 0.0727846
11 1.72615 0 0 0.0130938 -0.0253459 -0.58864
12 1.21114 0 0 -0.00463512 0.0170163 -0.863412
13 3.59919 -1.06012 0.0708876 1.55942 0.195064 -0.0649501
14 1.66069 0 0 -0.00432475 0.0777452 -0.278549
15 1.167 0 0 -0.0233511 0.0241547 -0.401015
16 2.18853 0.501039 0.0576591 1.57004 0.0330459 0.225874
17 1.29609 0 0 0.0245654 -0.0398778 -0.741083
18 1.62202 0.000713348 -0.000473022 0.00984869 -0.0234244 -0.831087
19 1.22241 0 0 0.00136067 0.00642028 -0.52186
20 1.76707 1.27612 0.0366411 1.57002 0.262026 0.261241
21 1.55588 0 0 -0.0308127 0.0106457 -0.943666
22 1.24274 0 0 -0.000583575 0.000138239 -0.446635
23 0.784523 0 0 0.0133279 0.00939349 -0.326309
24 -3.6471 7.74038 -3.8527 -0.000932693 0 -2.0944
25 6.02794 0 0 0.72951 0.937561 -0.00829289
26 11.7344 0 0 0.00140264 0 1.62088
27 8.81167 0 0 0.0941044 0 0
28 5.77884 0 0 0.0630501 0 0
29 2.23249 0 0 0.0310545 0 0
30 11.4725 0 0 0.341401 -0.230198 -0.780566
31 0.615813 0.994372 -0.809165 -2.95367 0.480861 0.223813
32 2.24752 0 0 -0.083166 0.257048 0.264172
33 1.11936 0 0 0.106547 0.169507 0.937361
34 3.71349 0.102639 0.102191 -1.53196 0.903048 -0.384383
35 1.72615 0 0 -0.00479619 -0.00187112 1.31044
36 1.21112 0 0 0.00977505 0.0146795 1.18496
37 3.5992 1.06012 0.0708885 -1.55949 0.15616 0.0645018
38 1.66069 0 0 0.0511715 0.0587147 0.940499
39 1.16699 0 0 0.0227603 0.00679481 0.906832
40 2.18853 -0.501041 0.0576594 -1.57003 0.119427 -0.225808
41 1.29609 0 0 0.271417 0.069893 0.770014
42 1.62202 -0.000715256 -0.000469685 -0.0323155 -0.0109794 1.4179
43 1.22241 0 0 -0.00658515 0.00177679 1.04424
44 1.76707 -1.27612 0.0366411 -1.44072 0.1345 -0.261341
45 1.55588 0 0 0.182858 0.0427366 0.752105
46 1.24273 0 0 0.000591853 0 0.838876
47 0.784531 0 0 -0.00599222 0.000868374 1.11469
48 0 0 0 0 0 0
49 -4.88016 -16.6069 -7.47285 0.028773 0.044843 -0.00274632
50 0 -1.63422 0.00508022 0.0872665 0 0
51 -0.0019598 3.96104 2.21118 0 0 0
52 0.641596 -0.666145 0.75166 0 0 0
53 0.714397 -3.45621 1.13628 0 0 0
54 -0.70623 -4.69238 1.98618 -3.14159 -0.0872664 3.14159
55 0.01333 1.02904 3.61174 0 0 0
56 0.0133295 -4.73568 2.23877 0 0 0
57 -5.13745 -21.6647 -12.7279 0.0285082 0.0451154 -0.00269605
58 0.0133295 -2.20708 7.34991 0 0 0
time 8
0 1.29637 -0.499222 -12.0785 0.000934124 0 -0.959925
1 6.02794 0 0 -0.818962 0.0646013 -0.703983
2 11.7344 0 0 -0.00140293 0 -0.769446
3 8.81139 -0.000448227 -0.00011158 -2.34439 0 0.000157336
4 5.77839 0.000286102 0 -1.57074 0 0
5 2.23163 -0.000328064 -0.000363827 -0.77365 0 0
6 11.4725 0 0 -2.31797 0.44678 0.272753
7 0.615219 -0.993091 -0.810699 2.33154 0.49143 -0.467307
8 2.24752 0 0 0.184051 -0.000815429 0.3514
9 1.11936 0 0 0.0719058 0.22699 0.00278413
10 3.71348 -0.102641 0.102191 1.55813 0.550067 0.0727845
11 1.72615 0 0 0.0130939 -0.0253457 -0.58864
12 1.21114 0 0 -0.00463504 0.0170162 -0.863412
13 3.59919 -1.06012 0.0708885 1.55942 0.195064 -0.0649504
14 1.66069 0 0 -0.00432475 0.0777452 -0.278548
15 1.167 0 0 -0.023351 0.0241549 -0.401015
16 2.18852 0.50104 0.0576591 1.57004 0.0330459 0.225874
17 1.29609 0 0 0.0245655 -0.0398779 -0.741083
18 1.62202 0.000713348 -0.000471115 0.00984858 -0.0234246 -0.831087
19 1.22241 0 0 0.0013607 0.00642054 -0.52186
20 1.76707 1.27612 0.0366411 1.57002 0.262026 0.261241
21 1.55588 0 0 -0.0308128 0.0106456 -0.943666
22 1.24274 0 0 -0.000583615 0.000138414 -0.446636
23 0.784523 0 0 0.013328 0.00939345 -0.326309
24 -3.6471 7.74038 -3.8527 -0.000932693 0 -2.0944
25 6.02794 0 0 0.737707 0.93181 0.00343257
26 11.7344 0 0 0.00140281 0 1.60422
27 8.81167 0 0 0.116052 0 0
28 5.77884 0 0 0.0777546 0 0
29 2.23249 0 0 0.038297 0 0
30 11.4725 0 0 0.362156 -0.229636 -0.770039
31 0.615814 0.994372 -0.809165 -2.95367 0.480861 0.223812
32 2.24752 0 0 -0.083166 0.257048 0.264173
33 1.11936 0 0 0.106547 0.169507 0.937361
34 3.71348 0.102639 0.102191 -1.53196 0.903047 -0.384383
35 1.72615 0 0 -0.00479618 -0.00187111 1.31044
36 1.21112 0 0 0.00977508 0.0146796 1.18496
37 3.5992 1.06012 0.070889 -1.55949 0.156159 0.0645017
38 1.66069 0 0 0.0466437 0.0623708 0.865702
39 1.16699 0 0 0.0225056 0.00855782 0.832103
40 2.18853 -0.501041 0.0576596 -1.57003 0.119427 -0.225808
41 1.29609 0 0 0.271417 0.069893 0.770013
42 1.62202 -0.000713348 -0.000468731 -0.0323155 -0.0109794 1.4179
43 1.22241 0 0 -0.00658512 0.00177684 1.04424
44 1.76707 -1.27612 0.0366404 -1.44072 0.1345 -0.261341
45 1.55588 0 0 0.182858 0.0427367 0.752105
46 1.24273 0 0 0.000591858 0 0.838876
47 0.784532 0 0 -0.00599222 0.000868365 1.11469
48 0 0 0 0 0 0
49 -4.86733 -16.7358 -7.47282 0.0244659 0.0241097 -0.00284121
50 0 -1.68189 0.00508118 0.0272709 0 0
51 -0.00195932 3.96104 2.21118 0 0 0
52 0.641597 -0.666147 0.75166 0 0 0
53 0.714398 -3.45621 1.13628 0 0 0
54 -0.706229 -4.69238 1.98618 3.14159 -0.0872664 -3.14159
55 0.0133309 1.02904 3.61174 0 0 0
56 0.0133305 -4.73569 2.23877 0 0 0
57 -5.01564 -21.8165 -12.71 0.0242 0.0243823 -0.00279215
58 0.0133295 -2.20708 7.34991 0 0 0
time 9
0 1.29637 -0.499222 -12.0785 0.000934124 0 -0.959925
1 6.02794 0 0 -0.819677 0.0513996 -0.70996
2 11.7344 0 0 -0.00140283 0 -0.742723
3 8.81139 -0.000448227 -0.00011158 -2.31836 0 0.000157705
4 5.77839 0.000286102 0 -1.5533 0 0
5 2.23164 -0.000328064 -0.000364304 -0.765059 0 0
6 11.4725 0 0 -2.29812 0.4571 0.266187
7 0.615223 -0.99309 -0.8107 2.33154 0.49143 -0.467307
8 2.24752 0 0 0.184051 -0.000815354 0.3514
9 1.11936 0 0 0.0719057 0.22699 0.00278408
10 3.71348 -0.102641 0.102191 1.55813 0.550067 0.0727847
11 1.72615 0 0 0.0130937 -0.0253459 -0.58864
12 1.21114 0 0 -0.00463512 0.0170164 -0.863412
13 3.5992 -1.06012 0.0708885 1.55942 0.195064 -0.0649502
14 1.66069 0 0 -0.00432473 0.0777451 -0.278548
15 1.167 0 0 -0.0233511 0.0241547 -0.401015
16 2.18853 0.501041 0.0576591 1.57004 0.0330458 0.225874
17 1.29609 0 0 0.0245655 -0.0398779 -0.741083
18 1.62202 0.000713348 -0.000473022 0.00984866 -0.0234246 -0.831087
19 1.22241 0 0 0.00136082 0.00642032 -0.52186
20 1.76707 1.27612 0.0366411 1.57002 0.262026 0.261241
21 1.55588 0 0 -0.0308128 0.0106455 -0.943666
22 1.24274 0 0 -0.000583601 0.000138355 -0.446635
23 0.784524 0 0 0.0133278 0.00939343 -0.326309
24 -3.6471 7.74038 -3.8527 -0.000932693 0 -2.0944
25 6.02794 0 0 0.744021 0.926998 0.0139091
26 11.7344 0 0 0.00140277 0 1.58936
27 8.81167 0 0 0.137088 0 0
28 5.77884 0 0 0.0918492 0 0
29 2.23249 0 0 0.0452392 0 0
30 11.4725 0 0 0.382153 -0.230961 -0.758469
31 0.615812 0.994371 -0.809165 -2.95367 0.480861 0.223812
32 2.24752 0 0 -0.083166 0.257048 0.264172
33 1.11936 0 0 0.106547 0.169507 0.937361
34 3.71348 0.102638 0.102191 -1.53196 0.903047 -0.384383
35 1.72615 0 0 -0.00479621 -0.00187103 1.31044
36 1.21112 0 0 0.00977511 0.0146796 1.18496
37 3.5992 1.06012 0.070889 -1.55949 0.15616 0.0645017
38 1.66069 0 0 0.0444974 0.0639188 0.831692
39 1.16699 0 0 0.0223071 0.00932782 0.798134
40 2.18853 -0.501041 0.0576599 -1.57003 0.119427 -0.225808
41 1.29609 0 0 0.271416 0.0698929 0.770014
42 1.62202 -0.000715256 -0.000469208 -0.0323155 -0.0109794 1.4179
43 1.22241 0 0 -0.00658505 0.00177676 1.04424
44 1.76707 -1.27612 0.0366411 -1.44072 0.1345 -0.261341
45 1.55587 0 0 0.182858 0.0427366 0.752105
46 1.24273 0 0 0.000591887 0 0.838876
47 0.784531 0 0 -0.00599209 0.000868352 1.11469
48 0 0 0 0 0 0
49 -4.84526 -16.8469 -7.4728 0.0182924 0.0043332 -0.00280856
50 0 -1.70357 0.00508022 0 0 0
51 -0.0019598 3.96104 2.21118 0 0 0
52 0.641596 -0.666147 0.75166 0 0 0
53 0.714398 -3.45621 1.13628 0 0 0
54 -0.70623 -4.69238 1.98618 3.14159 -0.0872663 -3.14159
55 0.01333 1.02904 3.61174 0 0 0
56 0.0133305 -4.73569 2.23877 0 0 0
57 -4.88977 -21.9601 -12.6801 0.0180255 0.0046061 -0.0027612
58 0.013329 -2.20708 7.34991 0 0 0
time 10
0 1.29637 -0.499222 -12.0785 0.000934124 0 -0.959925
1 6.02794 0 0 -0.82013 0.0411724 -0.714951
2 11.7344 0 0 -0.00140288 0 -0.719964
3 8.81138 -0.000448227 -0.000112534 -2.30084 0 0.000157176
4 5.77839 0.000286102 0 -1.54157 0 0
5 2.23164 -0.000329971 -0.000364304 -0.759279 0 0
6 11.4725 0 0 -2.28586 0.463712 0.258231
7 0.615219 -0.993092 -0.810701 2.33154 0.49143 -0.467307
8 2.24752 0 0 0.184051 -0.00081534 0.3514
9 1.11936 0 0 0.0719057 0.22699 0.00278379
10 3.71348 -0.10264 0.10219 1.55813 0.550067 0.0727846
11 1.72615 0 0 0.0130937 -0.0253459 -0.58864
12 1.21114 0 0 -0.0046352 0.0170164 -0.863412
13 3.59919 -1.06012 0.0708876 1.55942 0.195064 -0.06495
14 1.66069 0 0 -0.00432469 0.0777452 -0.278549
15 1.167 0 0 -0.0233512 0.0241547 -0.401015
16 2.18853 0.50104 0.0576591 1.57004 0.0330459 0.225874
17 1.29609 0 0 0.0245657 -0.0398779 -0.741083
18 1.62202 0.000713348 -0.000471115 0.00984856 -0.0234244 -0.831087
19 1.22241 0 0 0.00136065 0.00642059 -0.52186
20 1.76707 1.27612 0.0366402 1.57002 0.262026 0.261241
21 1.55588 0 0 -0.0308127 0.0106455 -0.943666
22 1.24274 0 0 -0.000583472 0.000138324 -0.446636
23 0.784523 0 0 0.0133279 0.00939355 -0.326309
24 -3.6471 7.74038 -3.8527 -0.000932693 0 -2.0944
25 6.02794 0 0 0.750111 0.922398 0.0233415
26 11.7344 0 0 0.00140262 0 1.57648
27 8.81167 0 0 0.150902 0 0
28 5.77884 0 0 0.101104 0 0
29 2.23249 0 0 0.0497977 0 0
30 11.4725 0 0 0.394555 -0.232019 -0.749873
31 0.615813 0.994372 -0.809166 -2.95367 0.480861 0.223812
32 2.24752 0 0 -0.0831661 0.257048 0.264172
33 1.11936 0 0 0.106547 0.169507 0.937361
34 3.71349 0.102639 0.102191 -1.53196 0.903048 -0.384383
35 1.72615 0 0 -0.00479608 -0.00187105 1.31044
36 1.21112 0 0 0.00977502 0.0146795 1.18496
37 3.5992 1.06012 0.0708888 -1.55949 0.15616 0.0645017
38 1.66069 0 0 0.0444974 0.0639187 0.831692
39 1.16699 0 0 0.0223071 0.00932781 0.798134
40 2.18853 -0.50104 0.0576584 -1.57003 0.119427 -0.225808
41 1.29609 0 0 0.271416 0.0698929 0.770014
42 1.62202 -0.000713348 -0.000469685 -0.0323155 -0.0109794 1.4179
43 1.22241 0 0 -0.00658516 0.00177675 1.04424
44 1.76707 -1.27612 0.0366411 -1.44072 0.1345 -0.261341
45 1.55588 0 0 0.182858 0.0427366 0.752105
46 1.24273 0 0 0.000591837 0 0.838876
47 0.784531 0 0 -0.00599209 0.000868393 1.11469
48 0 0 0 0 0 0
49 -4.82288 -16.9442 -7.47278 0.014296 -0.00790248 -0.00267435
50 0 -1.70357 0.0050807 0 0 0
51 -0.00195932 3.96104 2.21118 0 0 0
52 0.641596 -0.666149 0.75166 0 0 0
53 0.714397 -3.45621 1.13628 0 0 0
54 -0.706229 -4.69238 1.98618 3.14159 -0.0872664 3.14159
55 0.01333 1.02904 3.61174 0 0 0
56 0.01333 -4.73569 2.23877 0 0 0
57 -4.8032 -22.0784 -12.6596 0.0140285 -0.0076294 -0.00262808
58 0.013329 -2.20708 7.34991 0 0 0
time 11
0 1.29637 -0.499222 -12.0785 0.000934124 0 -0.959925
1 6.02794 0 0 -0.820403 0.033664 -0.719415
2 11.7344 0 0 -0.00140281 0 -0.700417
3 8.81138 -0.000448227 -0.00011158 -2.29283 0 0.000157415
4 5.77839 0.00028801 0 -1.5362 0 0
5 2.23163 -0.000329971 -0.000363827 -0.756635 0 0
6 11.4725 0 0 -2.28226 0.465612 0.247762
7 0.615219 -0.993091 -0.8107 2.33154 0.49143 -0.467307
8 2.24752 0 0 0.184051 -0.000815328 0.3514
9 1.11936 0 0 0.0719058 0.22699 0.00278404
10 3.71348 -0.10264 0.102192 1.55813 0.550067 0.0727846
11 1.72615 0 0 0.0130937 -0.0253461 -0.58864
12 1.21114 0 0 -0.00463504 0.0170165 -0.863412
13 3.59919 -1.06012 0.0708885 1.55942 0.195064 -0.0649503
14 1.66069 0 0 -0.00432475 0.0777452 -0.278549
15 1.167 0 0 -0.0233511 0.0241547 -0.401015
16 2.18852 0.50104 0.0576591 1.57004 0.0330459 0.225874
17 1.29609 0 0 0.0245654 -0.0398781 -0.741083
18 1.62202 0.000715256 -0.000473022 0.00984852 -0.0234246 -0.831087
19 1.22241 0 0 0.00136077 0.00642062 -0.52186
20 1.76707 1.27612 0.0366411 1.57002 0.262026 0.261241
21 1.55588 0 0 -0.0308127 0.0106455 -0.943666
22 1.24274 0 0 -0.000583414 0.000138337 -0.446635
23 0.784524 0 0 0.013328 0.00939333 -0.326309
24 -3.6471 7.74038 -3.8527 -0.000932693 0 -2.0944
25 6.02794 0 0 0.7562 0.918015 0.0311882
26 11.7344 0 0 0.00140282 0 1.56545
27 8.81167 0 0 0.156407 0 0
28 5.77884 0 0 0.104792 0 0
29 2.23249 0 0 0.0516142 0 0
30 11.4725 0 0 0.397738 -0.232388 -0.743313
31 0.615813 0.994372 -0.809165 -2.95367 0.480861 0.223812
32 2.24752 0 0 -0.083166 0.257048 0.264172
33 1.11936 0 0 0.106547 0.169507 0.937361
34 3.71349 0.102639 0.102191 -1.53196 0.903047 -0.384383
35 1.72615 0 0 -0.00479611 -0.00187112 1.31044
36 1.21112 0 0 0.00977512 0.0146796 1.18496
37 3.5992 1.06012 0.070888 -1.55949 0.156159 0.0645017
38 1.66069 0 0 0.0444974 0.0639188 0.831692
39 1.16699 0 0 0.0223071 0.00932775 0.798134
40 2.18853 -0.50104 0.0576594 -1.57003 0.119427 -0.225808
41 1.29609 0 0 0.271416 0.0698929 0.770014
42 1.62202 -0.000713348 -0.000468731 -0.0323155 -0.0109793 1.4179
43 1.22241 0 0 -0.00658523 0.00177682 1.04424
44 1.76707 -1.27612 0.0366404 -1.44072 0.1345 -0.261341
45 1.55587 0 0 0.182858 0.0427366 0.752105
46 1.24273 0 0 0.000591942 0 0.838876
47 0.784532 0 0 -0.00599212 0.000868491 1.11469
48 0 0 0 0 0 0
49 -4.8091 -17.0319 -7.47275 0.0120629 -0.0113138 -0.00236326
50 0 -1.70357 0.00508022 0 0 0
51 -0.0019598 3.96104 2.21118 0 0 0
52 0.641596 -0.666149 0.751659 0 0 0
53 0.714397 -3.45621 1.13628 0 0 0
54 -0.706229 -4.69238 1.98618 3.14159 -0.0872664 3.14159
55 0.01333 1.02904 3.61174 0 0 0
56 0.01333 -4.73568 2.23877 0 0 0
57 -4.77028 -22.1777 -12.648 0.0117953 -0.0110407 -0.0023176
58 0.0133286 -2.20708 7.34991 0 0 0
time 12
0 1.29637 -0.499222 -12.0785 0.000934124 0 -0.959925
1 6.02794 0 0 -0.82062 0.0262001 -0.724514
2 11.7344 0 0 -0.00140285 0 -0.680788
3 8.81139 -0.000452042 -0.000112534 -2.28864 0 0.000156597
4 5.77839 0.000284195 0 -1.53339 0 0
5 2.23164 -0.000329971 -0.00036335 -0.755252 0 0
6 11.4725 0 0 -2.2823 0.464286 0.234972
7 0.615217 -0.993092 -0.8107 2.33154 0.49143 -0.467307
8 2.24752 0 0 0.184051 -0.000815384 0.3514
9 1.11936 0 0 0.0719057 0.22699 0.00278382
10 3.71348 -0.10264 0.102191 1.55813 0.550067 0.0727846
11 1.72615 0 0 0.0130937 -0.0253459 -0.58864
12 1.21114 0 0 -0.00463498 0.0170165 -0.863412
13 3.59919 -1.06012 0.0708885 1.55942 0.195064 -0.0649501
14 1.66069 0 0 -0.0043248 0.0777451 -0.278549
15 1.167 0 0 -0.0233511 0.0241549 -0.401015
16 2.18852 0.501039 0.0576591 1.57004 0.0330459 0.225874
17 1.29609 0 0 0.0245654 -0.0398779 -0.741083
18 1.62202 0.000713348 -0.000473022 0.00984885 -0.0234244 -0.831087
19 1.22241 0 0 0.00136074 0.00642036 -0.52186
20 1.76707 1.27612 0.0366411 1.57002 0.262026 0.261241
21 1.55588 0 0 -0.0308128 0.0106456 -0.943666
22 1.24273 0 0 -0.000583369 0.000138408 -0.446635
23 0.784524 0 0 0.013328 0.00939333 -0.326309
24 -3.6471 7.74038 -3.8527 -0.000932693 0 -2.0944
25 6.02794 0 0 0.761899 0.914051 0.0374164
26 11.7344 0 0 0.00140253 0 1.55525
27 8.81167 0 0 0.158155 0 0
28 5.77884 0 0 0.105964 0 0
29 2.23249 0 0 0.052191 0 0
30 11.4725 0 0 0.395982 -0.232902 -0.735391
31 0.615813 0.994372 -0.809165 -2.95367 0.480861 0.223813
32 2.24752 0 0 -0.083166 0.257048 0.264173
33 1.11936 0 0 0.106547 0.169507 0.93736
34 3.71349 0.102639 0.10219 -1.53196 0.903047 -0.384383
35 1.72615 0 0 -0.00479614 -0.00187112 1.31044
36 1.21112 0 0 0.00977506 0.0146796 1.18496
37 3.5992 1.06012 0.070888 -1.55949 0.15616 0.0645017
38 1.66069 0 0 0.0444974 0.0639187 0.831692
39 1.16699 0 0 0.0223071 0.00932781 0.798134
40 2.18853 -0.50104 0.0576591 -1.57003 0.119427 -0.225808
41 1.29609 0 0 0.271416 0.0698929 0.770013
42 1.62202 -0.000713348 -0.000471592 -0.0323154 -0.0109795 1.4179
43 1.22241 0 0 -0.00658516 0.00177683 1.04424
44 1.76707 -1.27612 0.0366402 -1.44072 0.1345 -0.261341
45 1.55588 0 0 0.182858 0.0427367 0.752105
46 1.24273 0 0 0.000591745 0 0.838876
47 0.784532 0 0 -0.00599218 0.000868365 1.11469
48 0 0 0 0 0 0
49 -4.80777 -17.1121 -7.47273 0.00889759 -0.0102903 -0.00185798
50 0 -1.70357 0.0050807 0 0 0
51 -0.0019598 3.96104 2.21118 0 0 0
52 0.641596 -0.666147 0.75166 0 0 0
53 0.714397 -3.45621 1.13628 0 0 0
54 -0.70623 -4.69238 1.98618 -3.14159 -0.0872664 3.14159
55 0.0133305 1.02904 3.61174 0 0 0
56 0.01333 -4.73569 2.23877 0 0 0
57 -4.77185 -22.2742 -12.6317 0.00863008 -0.0100169 -0.00181317
58 0.0133295 -2.20708 7.34991 0 0 0
time 13
0 1.29637 -0.499222 -12.0785 0.000934124 0 -0.959925
1 6.02794 0 0 -0.820771 0.0195019 -0.729409
2 11.7344 0 0 -0.00140287 0 -0.663083
3 8.81139 -0.000450134 -0.000112057 -2.28713 0 0.000157344
4 5.77839 0.000286102 0 -1.53238 0 0
5 2.23163 -0.000329971 -0.00036335 -0.754752 0 0
6 11.4725 0 0 -2.28446 0.461173 0.222047
7 0.615219 -0.99309 -0.8107 2.33154 0.49143 -0.467307
8 2.24752 0 0 0.184051 -0.000815384 0.3514
9 1.11936 0 0 0.0719057 0.22699 0.00278411
10 3.71348 -0.102641 0.102191 1.55813 0.550067 0.0727845
11 1.72615 0 0 0.0130939 -0.0253459 -0.58864
12 1.21114 0 0 -0.00463512 0.0170164 -0.863412
13 3.59919 -1.06012 0.0708885 1.55942 0.195064 -0.0649502
14 1.66069 0 0 -0.00432485 0.0777451 -0.278548
15 1.167 0 0 -0.0233511 0.024155 -0.401015
16 2.18853 0.50104 0.0576591 1.57004 0.0330459 0.225874
17 1.29609 0 0 0.0245655 -0.039878 -0.741083
18 1.62202 0.000713348 -0.000469208 0.00984866 -0.0234245 -0.831087
19 1.22241 0 0 0.00136068 0.00642047 -0.52186
20 1.76707 1.27612 0.0366411 1.57002 0.262026 0.261241
21 1.55587 0 0 -0.0308128 0.0106455 -0.943666
22 1.24274 0 0 -0.000583369 0.000138408 -0.446636
23 0.784523 0 0 0.0133278 0.0093936 -0.326309
24 -3.6471 7.74038 -3.8527 -0.000932693 0 -2.0944
25 6.02794 0 0 0.766965 0.910598 0.0422729
26 11.7344 0 0 0.00140262 0 1.54623
27 8.81167 0 0 0.157562 0 0
28 5.77884 0 0 0.105567 0 0
29 2.23249 0 0 0.0519956 0 0
30 11.4725 0 0 0.391477 -0.233437 -0.727227
31 0.615812 0.994372 -0.809165 -2.95367 0.480861 0.223812
32 2.24752 0 0 -0.083166 0.257048 0.264172
33 1.11936 0 0 0.106547 0.169507 0.937361
34 3.71348 0.102639 0.102191 -1.53196 0.903047 -0.384383
35 1.72615 0 0 -0.0047961 -0.00187115 1.31044
36 1.21112 0 0 0.009775 0.0146796 1.18496
37 3.5992 1.06012 0.070888 -1.55949 0.15616 0.0645016
38 1.66069 0 0 0.0444974 0.0639187 0.831692
39 1.16699 0 0 0.0223072 0.00932781 0.798134
40 2.18853 -0.50104 0.0576591 -1.57003 0.119427 -0.225808
41 1.29609 0 0 0.271417 0.069893 0.770014
42 1.62202 -0.000713348 -0.000469208 -0.0323157 -0.0109794 1.4179
43 1.22241 0 0 -0.00658513 0.0017768 1.04424
44 1.76707 -1.27612 0.0366411 -1.44072 0.1345 -0.261341
45 1.55588 0 0 0.182858 0.0427367 0.752105
46 1.24273 0 0 0.000591831 0 0.838876
47 0.784532 0 0 -0.00599208 0.000868232 1.11469
48 0 0 0 0 0 0
49 -4.81364 -17.1824 -7.47271 0.0054206 -0.00675695 -0.00127146
50 0 -1.70357 0.0050807 0 0 0
51 -0.0019598 3.96104 2.21118 0 0 0
52 0.641596 -0.666145 0.75166 0 0 0
53 0.714397 -3.45621 1.13628 0 0 0
54 -0.70623 -4.69238 1.98618 3.14159 -0.0872664 3.14159
55 0.0133295 1.02904 3.61174 0 0 0
56 0.01333 -4.73569 2.23877 0 0 0
57 -4.79307 -22.3623 -12.6138 0.00515326 -0.00648347 -0.00122761
58 0.013329 -2.20708 7.34991 0 0 0
time 14
0 1.29637 -0.499222 -12.0785 0.000934124 0 -0.959925
1 6.02794 0 0 -0.820865 0.0138869 -0.733676
2 11.7344 0 0 -0.00140287 0 -0.648201
3 8.81138 -0.000450134 -0.000112534 -2.2869 0 0.000157626
4 5.77839 0.000286102 0 -1.53222 0 0
5 2.23163 -0.000329971 -0.00036335 -0.754677 0 0
6 11.4725 0 0 -2.28718 0.457693 0.210635
7 0.615221 -0.99309 -0.8107 2.33154 0.49143 -0.467307
8 2.24752 0 0 0.184051 -0.000815358 0.3514
9 1.11936 0 0 0.0719057 0.22699 0.00278401
10 3.71348 -0.102642 0.102191 1.55813 0.550067 0.0727845
11 1.72615 0 0 0.0130938 -0.025346 -0.58864
12 1.21114 0 0 -0.0046352 0.0170164 -0.863412
13 3.59919 -1.06012 0.0708876 1.55942 0.195064 -0.0649503
14 1.66069 0 0 -0.00432483 0.0777453 -0.278548
15 1.167 0 0 -0.0233511 0.0241549 -0.401015
16 2.18853 0.501038 0.0576591 1.57004 0.0330459 0.225874
17 1.29609 0 0 0.0245656 -0.0398781 -0.741083
18 1.62202 0.000715256 -0.000471115 0.0098488 -0.0234245 -0.831087
19 1.22241 0 0 0.00136051 0.0064203 -0.52186
20 1.76707 1.27612 0.0366411 1.57002 0.262026 0.261241
21 1.55588 0 0 -0.0308129 0.0106455 -0.943666
22 1.24273 0 0 -0.00058353 0.000138311 -0.446636
23 0.784524 0 0 0.0133279 0.0093935 -0.326309
24 -3.6471 7.74038 -3.8527 -0.000932693 0 -2.0944
25 6.02794 0 0 0.771112 0.907795 0.045916
26 11.7344 0 0 0.00140251 0 1.53885
27 8.81167 0 0 0.156082 0 0
28 5.77884 0 0 0.104575 0 0
29 2.23249 0 0 0.0515071 0 0
30 11.4725 0 0 0.386404 -0.233872 -0.71997
31 0.615812 0.994372 -0.809166 -2.95367 0.480861 0.223813
32 2.24752 0 0 -0.0831661 0.257048 0.264172
33 1.11936 0 0 0.106547 0.169507 0.937361
34 3.71349 0.102639 0.10219 -1.53196 0.903048 -0.384383
35 1.72615 0 0 -0.00479624 -0.0018711 1.31044
36 1.21112 0 0 0.00977504 0.0146796 1.18496
37 3.5992 1.06012 0.070888 -1.55949 0.15616 0.0645018
38 1.66069 0 0 0.0444974 0.0639188 0.831692
39 1.16699 0 0 0.0223071 0.00932779 0.798134
40 2.18853 -0.50104 0.0576587 -1.57003 0.119427 -0.225808
41 1.29609 0 0 0.271416 0.0698928 0.770014
42 1.62202 -0.000713348 -0.000470161 -0.0323154 -0.0109794 1.4179
43 1.22241 0 0 -0.00658509 0.00177686 1.04424
44 1.76707 -1.27612 0.0366404 -1.44072 0.1345 -0.261341
45 1.55588 0 0 0.182858 0.0427366 0.752105
46 1.24273 0 0 0.00059195 0 0.838876
47 0.784532 0 0 -0.0059922 0.000868482 1.11469
48 0 0 0 0 0 0
49 -4.82199 -17.2394 -7.47269 0.00225252 -0.00263914 -0.000716691
50 0 -1.70357 0.0050807 0 0 0
51 -0.00195932 3.96104 2.21118 0 0 0
52 0.641596 -0.666147 0.751661 0 0 0
53 0.714397 -3.45621 1.13628 0 0 0
54 -0.70623 -4.69238 1.98618 -3.14159 -0.0872664 3.14159
55 0.0133305 1.02904 3.61174 0 0 0
56 0.01333 -4.73568 2.23877 0 0 0
57 -4.81977 -22.4356 -12.5974 0.00198535 -0.00236552 -0.000673709
58 0.013329 -2.20708 7.34991 0 0 0
time 15
0 1.29637 -0.499222 -12.0785 0.000934124 0 -0.959925
1 6.02794 0 0 -0.820915 0.00980785 -0.736779
2 11.7344 0 0 -0.00140287 0 -0.637408
3 8.81138 -0.000450134 -0.000112057 -2.28662 0 0.000156752
4 5.77839 0.000286102 0 -1.53203 0 0
5 2.23164 -0.000328064 -0.00036335 -0.754584 0 0
6 11.4725 0 0 -2.28896 0.455286 0.202535
7 0.615219 -0.993089 -0.8107 2.33154 0.49143 -0.467307
8 2.24752 0 0 0.184051 -0.000815351 0.3514
9 1.11936 0 0 0.0719057 0.22699 0.00278409
10 3.71348 -0.10264 0.102191 1.55813 0.550067 0.0727846
11 1.72615 0 0 0.0130938 -0.025346 -0.58864
12 1.21114 0 0 -0.00463522 0.0170164 -0.863412
13 3.59919 -1.06012 0.0708885 1.55942 0.195064 -0.0649501
14 1.66069 0 0 -0.0043248 0.0777451 -0.278548
15 1.167 0 0 -0.023351 0.0241548 -0.401015
16 2.18853 0.50104 0.0576591 1.57004 0.0330459 0.225874
17 1.29609 0 0 0.0245654 -0.0398781 -0.741083
18 1.62202 0.000711441 -0.000471115 0.00984866 -0.0234245 -0.831087
19 1.22241 0 0 0.00136082 0.00642045 -0.52186
20 1.76707 1.27612 0.0366411 1.57002 0.262026 0.261241
21 1.55588 0 0 -0.0308128 0.0106453 -0.943666
22 1.24273 0 0 -0.000583557 0.000138427 -0.446636
23 0.784523 0 0 0.0133279 0.00939344 -0.326309
24 -3.6471 7.74038 -3.8527 -0.000932693 0 -2.0944
25 6.02794 0 0 0.774048 0.905786 0.048498
26 11.7344 0 0 0.00140264 0 1.53357
27 8.81167 0 0 0.155178 0 0
28 5.77884 0 0 0.103969 0 0
29 2.23249 0 0 0.0512088 0 0
30 11.4725 0 0 0.382945 -0.23412 -0.714792
31 0.615812 0.994372 -0.809165 -2.95367 0.480861 0.223812
32 2.24752 0 0 -0.0831661 0.257048 0.264172
33 1.11936 0 0 0.106547 0.169507 0.93736
34 3.71349 0.102639 0.102191 -1.53196 0.903047 -0.384383
35 1.72615 0 0 -0.0047961 -0.00187111 1.31044
36 1.21112 0 0 0.00977504 0.0146796 1.18496
37 3.5992 1.06012 0.0708878 -1.55949 0.15616 0.0645016
38 1.66069 0 0 0.0444974 0.0639187 0.831692
39 1.16699 0 0 0.0223072 0.00932781 0.798134
40 2.18853 -0.50104 0.0576591 -1.57003 0.119427 -0.225808
41 1.29609 0 0 0.271417 0.0698929 0.770014
42 1.62202 -0.000715256 -0.000469208 -0.0323154 -0.0109793 1.4179
43 1.22241 0 0 -0.00658516 0.00177683 1.04424
44 1.76707 -1.27612 0.0366406 -1.44072 0.1345 -0.261341
45 1.55588 0 0 0.182858 0.0427366 0.752105
46 1.24273 0 0 0.00059189 0 0.838876
47 0.784532 0 0 -0.00599213 0.000868412 1.11469
48 0 0 0 0 0 0
49 -4.82809 -17.2801 -7.47268 0 0.000137978 -0.000306641
50 0 -1.70357 0.00508022 0 0 0
51 -0.0019598 3.96104 2.21118 0 0 0
52 0.641597 -0.666149 0.75166 0 0 0
53 0.714398 -3.45621 1.13628 0 0 0
54 -0.706229 -4.69238 1.98618 -3.14159 -0.0872664 3.14159
55 0.0133305 1.02904 3.61174 0 0 0
56 0.0133305 -4.73569 2.23877 0 0 0
57 -4.83797 -22.4878 -12.5858 -0.000253135 0.000411693 -0.000264271
58 0.0129194 0.0367718 6.63003 0 0 0
time 16
0 1.29637 -0.499222 -12.0785 0.000934124 0 -0.959925
1 6.02794 0 0 -0.820931 0.00817844 -0.737992
2 11.7344 0 0 -0.00140276 0 -0.633162
3 8.81139 -0.000450134 -0.000112534 -2.28686 0 0.000157378
4 5.77839 0.000286102 0 -1.5322 0 0
5 2.23164 -0.000328064 -0.000364304 -0.754664 0 0
6 11.4725 0 0 -2.29 0.453977 0.199089
7 0.615219 -0.993092 -0.8107 2.33154 0.49143 -0.467307
8 2.24752 0 0 0.184051 -0.000815362 0.3514
9 1.11936 0 0 0.0719057 0.22699 0.002784
10 3.71348 -0.102642 0.102192 1.55813 0.550067 0.0727846
11 1.72615 0 0 0.0130937 -0.0253461 -0.58864
12 1.21114 0 0 -0.00463509 0.0170164 -0.863412
13 3.59919 -1.06012 0.0708885 1.55942 0.195064 -0.0649501
14 1.66069 0 0 -0.0043247 0.0777452 -0.278549
15 1.167 0 0 -0.0233512 0.0241548 -0.401015
16 2.18852 0.501039 0.0576591 1.57004 0.0330458 0.225874
17 1.29609 0 0 0.0245654 -0.0398778 -0.741083
18 1.62202 0.000713348 -0.000473022 0.00984866 -0.0234245 -0.831087
19 1.22241 0 0 0.00136063 0.00642033 -0.52186
20 1.76707 1.27612 0.0366411 1.57002 0.262026 0.261241
21 1.55588 0 0 -0.0308129 0.0106456 -0.943666
22 1.24274 0 0 -0.000583485 0.000138382 -0.446636
23 0.784524 0 0 0.0133279 0.00939356 -0.326309
24 -3.6471 7.74038 -3.8527 -0.000932693 0 -2.0944
25 6.02794 0 0 0.775214 0.904998 0.0494478
26 11.7344 0 0 0.00140272 0 1.53146
27 8.81167 0 0 0.154477 0 0
28 5.77884 0 0 0.1035 0 0
29 2.23249 0 0 0.0509775 0 0
30 11.4725 0 0 0.381065 -0.234241 -0.712454
31 0.615812 0.994373 -0.809166 -2.95367 0.480861 0.223812
32 2.24752 0 0 -0.0831659 0.257048 0.264173
33 1.11936 0 0 0.106547 0.169507 0.937361
34 3.71348 0.10264 0.102191 -1.53196 0.903048 -0.384383
35 1.72615 0 0 -0.00479617 -0.00187111 1.31044
36 1.21112 0 0 0.00977512 0.0146796 1.18496
37 3.5992 1.06012 0.0708878 -1.55949 0.15616 0.0645017
38 1.66069 0 0 0.0444974 0.0639188 0.831692
39 1.16699 0 0 0.0223071 0.00932775 0.798134
40 2.18853 -0.50104 0.0576591 -1.57003 0.119427 -0.225808
41 1.29609 0 0 0.271417 0.069893 0.770014
42 1.62202 -0.000713348 -0.000470161 -0.0323156 -0.0109794 1.4179
43 1.22241 0 0 -0.00658516 0.0017768 1.04424
44 1.76707 -1.27612 0.0366402 -1.44072 0.1345 -0.261341
45 1.55588 0 0 0.182858 0.0427367 0.752105
46 1.24273 0 0 0.000591845 0 0.838876
47 0.784531 0 0 -0.00599211 0.000868405 1.11469
48 0 0 0 0 0 0
49 -4.83098 -17.2961 -7.47268 -0.00105048 0.00168831 0
50 0 -1.70357 0.0050807 0 0 0
51 -0.0019598 3.96104 2.21118 0 0 0
52 0.641596 -0.666149 0.751661 0 0 0
53 0.714397 -3.45621 1.13628 0 0 0
54 -0.70623 -4.69238 1.98618 -3.14159 -0.0872664 3.14159
55 0.01333 1.02904 3.61174 0 0 0
56 0.01333 -4.73569 2.23877 0 0 0
57 -4.84753 -22.5092 -12.5802 -0.00131745 0.00196207 0
58 0.0129199 0.0367718 6.63003 0 0 0
time 17
0 1.29637 -0.499222 -12.0785 0.000934124 0 -0.959925
1 6.02794 0 0 -0.820923 0.00902929 -0.737371
2 11.7344 0 0 -0.00140276 0 -0.635501
3 8.81138 -0.000448227 -0.000112057 -2.28868 0 0.00015788
4 5.77839 0.000286102 0 -1.53342 0 0
5 2.23164 -0.000329971 -0.00036335 -0.755265 0 0
6 11.4725 0 0 -2.29138 0.452839 0.199544
7 0.615217 -0.993091 -0.810699 2.33154 0.49143 -0.467307
8 2.24752 0 0 0.184051 -0.000815468 0.3514
9 1.11936 0 0 0.0719058 0.22699 0.00278387
10 3.71348 -0.102639 0.102192 1.55813 0.550067 0.0727845
11 1.72614 0 0 0.0130936 -0.0253459 -0.58864
12 1.21114 0 0 -0.00463506 0.0170165 -0.863412
13 3.59919 -1.06012 0.0708885 1.55942 0.195064 -0.0649502
14 1.66069 0 0 -0.00432479 0.0777451 -0.278549
15 1.167 0 0 -0.023351 0.0241548 -0.401015
16 2.18852 0.50104 0.0576601 1.57004 0.0330458 0.225874
17 1.29609 0 0 0.0245655 -0.0398777 -0.741083
18 1.62202 0.000713348 -0.000471115 0.00984858 -0.0234246 -0.831087
19 1.22241 0 0 0.00136074 0.00642061 -0.52186
20 1.76707 1.27612 0.0366411 1.57002 0.262026 0.261241
21 1.55588 0 0 -0.0308129 0.0106456 -0.943666
22 1.24273 0 0 -0.000583556 0.000138427 -0.446635
23 0.784523 0 0 0.0133278 0.00939355 -0.326309
24 -3.6471 7.74038 -3.8527 -0.000932693 0 -2.0944
25 6.02794 0 0 0.774677 0.905451 0.0485679
26 11.7344 0 0 0.00140274 0 1.5325
27 8.81167 0 0 0.152887 0 0
28 5.77884 0 0 0.102434 0 0
29 2.23249 0 0 0.0504529 0 0
30 11.4725 0 0 0.379306 -0.234332 -0.71242
31 0.615813 0.994372 -0.809166 -2.95367 0.480861 0.223813
32 2.24752 0 0 -0.083166 0.257048 0.264173
33 1.11936 0 0 0.106547 0.169507 0.937361
34 3.71349 0.102639 0.102191 -1.53196 0.903047 -0.384383
35 1.72615 0 0 -0.00479615 -0.00187104 1.31044
36 1.21112 0 0 0.00977508 0.0146796 1.18496
37 3.5992 1.06012 0.0708878 -1.55949 0.15616 0.0645019
38 1.66069 0 0 0.0444974 0.0639187 0.831692
39 1.16699 0 0 0.0223071 0.0093278 0.798134
40 2.18853 -0.501041 0.0576589 -1.57003 0.119427 -0.225808
41 1.29609 0 0 0.271417 0.0698929 0.770014
42 1.62202 -0.000713348 -0.000468254 -0.0323156 -0.0109792 1.4179
43 1.22241 0 0 -0.00658509 0.00177674 1.04424
44 1.76707 -1.27612 0.0366404 -1.44072 0.1345 -0.261341
45 1.55588 0 0 0.182858 0.0427366 0.752105
46 1.24273 0 0 0.000591813 0 0.838876
47 0.784531 0 0 -0.0059922 0.000868387 1.11469
48 0 0 0 0 0 0
49 -4.833 -17.2875 -7.47269 -0.00127277 0.00333331 0
50 0 -1.70356 0.0050807 0 0 0
51 -0.00195932 3.96104 2.21118 0 0 0
52 0.641596 -0.666145 0.75166 0 0 0
53 0.714397 -3.4562 1.13628 0 0 0
54 -0.706229 -4.69238 1.98618 -3.14159 -0.0872663 3.14159
55 0.01333 1.02904 3.61174 0 0 0
56 0.01333 -4.73568 2.23877 0 0 0
57 -4.85724 -22.5017 -12.579 -0.00153968 0.00360708 0.000111599
58 0.0129194 0.0367718 6.63003 0 0 0
time 18
0 1.29637 -0.499222 -12.0785 0.000934124 0 -0.959925
1 6.02794 0 0 -0.820897 0.0114414 -0.735613
2 11.7344 0 0 -0.00140279 0 -0.641932
3 8.81139 -0.000450134 -0.000112057 -2.29144 0 0.000157943
4 5.77839 0.000286102 0 -1.53527 0 0.000100022
5 2.23164 -0.000328064 -0.000364304 -0.756176 0 0
6 11.4725 0 0 -2.29294 0.451881 0.20248
7 0.615219 -0.99309 -0.8107 2.33154 0.49143 -0.467307
8 2.24752 0 0 0.184051 -0.000815403 0.3514
9 1.11936 0 0 0.0719056 0.22699 0.00278403
10 3.71348 -0.10264 0.102191 1.55813 0.550067 0.0727845
11 1.72615 0 0 0.0130937 -0.0253458 -0.58864
12 1.21114 0 0 -0.00463498 0.0170164 -0.863412
13 3.59919 -1.06012 0.0708885 1.55942 0.195064 -0.06495
14 1.66069 0 0 -0.00432468 0.0777452 -0.278548
15 1.167 0 0 -0.0233511 0.0241546 -0.401016
16 2.18852 0.501039 0.0576591 1.57004 0.0330459 0.225874
17 1.29609 0 0 0.0245654 -0.0398779 -0.741083
18 1.62202 0.000713348 -0.000471115 0.00984861 -0.0234245 -0.831087
19 1.22241 0 0 0.00136061 0.00642051 -0.52186
20 1.76707 1.27612 0.0366411 1.57002 0.262026 0.261241
21 1.55588 0 0 -0.0308128 0.0106455 -0.943666
22 1.24274 0 0 -0.000583633 0.000138226 -0.446636
23 0.784523 0 0 0.0133282 0.00939342 -0.326309
24 -3.6471 7.74038 -3.8527 -0.000932693 0 -2.0944
25 6.02794 0 0 0.773077 0.90667 0.0465614
26 11.7344 0 0 0.00140279 0 1.53551
27 8.81167 0 0 0.150798 0 0
28 5.77884 0 0 0.101035 0 0
29 2.23249 0 0 0.0497635 0 0
30 11.4725 0 0 0.377714 -0.234381 -0.713923
31 0.615812 0.994372 -0.809166 -2.95367 0.480861 0.223812
32 2.24752 0 0 -0.0831661 0.257048 0.264172
33 1.11936 0 0 0.106547 0.169507 0.937361
34 3.71349 0.102639 0.102191 -1.53196 0.903047 -0.384383
35 1.72615 0 0 -0.00479609 -0.00187114 1.31044
36 1.21112 0 0 0.00977514 0.0146796 1.18496
37 3.5992 1.06012 0.070888 -1.55949 0.156159 0.0645017
38 1.66069 0 0 0.0444974 0.0639188 0.831692
39 1.16699 0 0 0.0223071 0.00932782 0.798134
40 2.18853 -0.501041 0.0576591 -1.57003 0.119427 -0.225808
41 1.29609 0 0 0.271416 0.0698929 0.770014
42 1.62202 -0.000713348 -0.000471115 -0.0323155 -0.0109794 1.4179
43 1.22241 0 0 -0.0065851 0.00177688 1.04424
44 1.76707 -1.27612 0.0366402 -1.44072 0.1345 -0.261341
45 1.55587 0 0 0.182858 0.0427367 0.752105
46 1.24273 0 0 0.000591881 0 0.838875
47 0.784532 0 0 -0.00599211 0.000868501 1.11469
48 0 0 0 0 0 0
49 -4.83434 -17.2635 -7.4727 -0.000897726 0.00495905 0.000128076
50 0 -1.70357 0.0050807 0 0 0
51 -0.00195932 3.96104 2.21118 0 0 0
52 0.641596 -0.666147 0.75166 0 0 0
53 0.714397 -3.4562 1.13628 0 0 0
54 -0.70623 -4.69238 1.98618 3.14159 -0.0872664 3.14159
55 0.01333 1.02904 3.61174 0 0 0
56 0.0133305 -4.73569 2.23877 0 0 0
57 -4.86658 -22.4758 -12.5809 -0.00116457 0.0052328 0.000170196
58 0.0129199 0.0367718 6.63003 0 0 0
time 19
0 1.29637 -0.499222 -12.0785 0.000934124 0 -0.959925
1 6.02794 0 0 -0.820856 0.0144734 -0.733434
2 11.7344 0 0 -0.00140284 0 -0.6499
3 8.81138 -0.000452042 -0.000113487 -2.29451 0 0.000157891
4 5.77839 0.00028801 0 -1.53732 0 0
5 2.23163 -0.000329971 -0.000364304 -0.757188 0 0
6 11.4725 0 0 -2.29449 0.451116 0.206447
7 0.615221 -0.99309 -0.810699 2.33154 0.49143 -0.467307
8 2.24752 0 0 0.184051 -0.000815345 0.3514
9 1.11936 0 0 0.0719057 0.22699 0.00278388
10 3.71348 -0.10264 0.102192 1.55813 0.550067 0.0727846
11 1.72615 0 0 0.0130937 -0.0253461 -0.58864
12 1.21114 0 0 -0.00463525 0.0170164 -0.863412
13 3.5992 -1.06012 0.0708885 1.55942 0.195064 -0.0649502
14 1.66069 0 0 -0.00432468 0.0777452 -0.278549
15 1.167 0 0 -0.0233511 0.0241548 -0.401015
16 2.18852 0.50104 0.0576601 1.57004 0.0330458 0.225874
17 1.29609 0 0 0.0245655 -0.039878 -0.741083
18 1.62202 0.000713348 -0.000471115 0.0098488 -0.0234243 -0.831087
19 1.22241 0 0 0.00136063 0.00642046 -0.52186
20 1.76707 1.27612 0.0366411 1.57002 0.262026 0.261241
21 1.55587 0 0 -0.0308128 0.0106456 -0.943666
22 1.24274 0 0 -0.00058353 0.000138311 -0.446635
23 0.784524 0 0 0.013328 0.00939363 -0.326309
24 -3.6471 7.74038 -3.8527 -0.000932693 0 -2.0944
25 6.02794 0 0 0.771056 0.908182 0.04413
26 11.7344 0 0 0.00140268 0 1.53932
27 8.81167 0 0 0.148597 0 0
28 5.77884 0 0 0.0995604 0 0
29 2.23249 0 0 0.0490371 0 0
30 11.4725 0 0 0.376336 -0.234378 -0.716195
31 0.615812 0.994372 -0.809165 -2.95367 0.480861 0.223813
32 2.24752 0 0 -0.083166 0.257048 0.264173
33 1.11936 0 0 0.106547 0.169507 0.93736
34 3.71348 0.102639 0.102191 -1.53196 0.903047 -0.384383
35 1.72615 0 0 -0.00479615 -0.00187106 1.31044
36 1.21112 0 0 0.00977507 0.0146797 1.18496
37 3.5992 1.06012 0.0708885 -1.55949 0.15616 0.0645018
38 1.66069 0 0 0.0444974 0.0639188 0.831692
39 1.16699 0 0 0.0223072 0.0093278 0.798134
40 2.18853 -0.501041 0.0576596 -1.57003 0.119427 -0.225808
41 1.29609 0 0 0.271417 0.069893 0.770014
42 1.62201 -0.000713348 -0.000470161 -0.0323155 -0.0109794 1.4179
43 1.22241 0 0 -0.00658527 0.00177681 1.04424
44 1.76707 -1.27612 0.0366404 -1.44072 0.1345 -0.261341
45 1.55587 0 0 0.182858 0.0427366 0.752105
46 1.24273 0 0 0.000591857 0 0.838876
47 0.784531 0 0 -0.00599217 0.000868335 1.11469
48 0 0 0 0 0 0
49 -4.83519 -17.2335 -7.47271 -0.000170086 0.00645162 0.000134174
50 0 -1.70357 0.00508118 0 0 0
51 -0.0019598 3.96104 2.21118 0 0 0
52 0.641596 -0.666147 0.75166 0 0 0
53 0.714397 -3.45621 1.13628 0 0 0
54 -0.706229 -4.69238 1.98618 -3.14159 -0.0872664 3.14159
55 0.01333 1.02904 3.61174 0 0 0
56 0.01333 -4.73568 2.23877 0 0 0
57 -4.87505 -22.4421 -12.5847 -0.000436864 0.00672534 0.000176494
58 0.0129189 0.0367718 6.63003 0 0 0
time 20
0 1.29637 -0.499222 -12.0785 0.000934124 0 -0.959925
1 6.02794 0 0 -0.82081 0.0172315 -0.731504
2 11.7344 0 0 -0.00140286 0 -0.65698
3 8.81138 -0.000450134 -0.00011301 -2.29725 0 0.000157494
4 5.77839 0.000286102 0 -1.53916 0 0
5 2.23164 -0.000329971 -0.000364304 -0.758092 0 0
6 11.4725 0 0 -2.29586 0.450554 0.210058
7 0.615221 -0.993093 -0.8107 2.33154 0.49143 -0.467307
8 2.24752 0 0 0.184051 -0.000815446 0.3514
9 1.11936 0 0 0.0719057 0.22699 0.00278402
10 3.71348 -0.102642 0.102191 1.55813 0.550067 0.0727846
11 1.72615 0 0 0.0130936 -0.0253458 -0.58864
12 1.21114 0 0 -0.0046352 0.0170163 -0.863412
13 3.59919 -1.06012 0.0708876 1.55942 0.195064 -0.0649502
14 1.66068 0 0 -0.00432464 0.0777452 -0.278549
15 1.167 0 0 -0.0233512 0.0241547 -0.401015
16 2.18852 0.50104 0.0576591 1.57004 0.0330459 0.225874
17 1.29609 0 0 0.0245654 -0.039878 -0.741083
18 1.62202 0.000715256 -0.000473022 0.00984866 -0.0234246 -0.831087
19 1.22241 0 0 0.00136068 0.00642047 -0.52186
20 1.76707 1.27612 0.0366402 1.57002 0.262026 0.261241
21 1.55588 0 0 -0.0308127 0.0106456 -0.943666
22 1.24274 0 0 -0.00058353 0.000138311 -0.446635
23 0.784524 0 0 0.0133279 0.00939343 -0.326309
24 -3.6471 7.74038 -3.8527 -0.000932693 0 -2.0944
25 6.02794 0 0 0.769259 0.909514 0.0419825
26 11.7344 0 0 0.0014027 0 1.54275
27 8.81167 0 0 0.14667 0 0
28 5.77884 0 0 0.098269 0 0
29 2.23249 0 0 0.0484011 0 0
30 11.4725 0 0 0.375221 -0.234308 -0.718467
31 0.615812 0.994373 -0.809165 -2.95367 0.480861 0.223813
32 2.24752 0 0 -0.083166 0.257048 0.264173
33 1.11936 0 0 0.106547 0.169507 0.937361
34 3.71349 0.102639 0.102191 -1.53196 0.903047 -0.384383
35 1.72615 0 0 -0.00479621 -0.00187104 1.31044
36 1.21112 0 0 0.0097751 0.0146796 1.18496
37 3.5992 1.06012 0.0708885 -1.55949 0.15616 0.0645017
38 1.66069 0 0 0.0444974 0.0639188 0.831692
39 1.16699 0 0 0.0223071 0.00932776 0.798134
40 2.18853 -0.501041 0.0576589 -1.57003 0.119427 -0.225808
41 1.29609 0 0 0.271417 0.069893 0.770014
42 1.62202 -0.000711441 -0.000469208 -0.0323155 -0.0109795 1.4179
43 1.22241 0 0 -0.00658517 0.00177675 1.04424
44 1.76707 -1.27612 0.0366406 -1.44072 0.1345 -0.261341
45 1.55588 0 0 0.182858 0.0427366 0.752105
46 1.24273 0 0 0.000591875 0 0.838876
47 0.784532 0 0 -0.00599223 0.000868566 1.11469
48 0 0 0 0 0 0
49 -4.83574 -17.2067 -7.47273 0.000665401 0.0076971 0.000113388
50 0 -1.70357 0.00508118 0 0 0
51 -0.0019598 3.96104 2.21118 0 0 0
52 0.641596 -0.666147 0.751661 0 0 0
53 0.714397 -3.45621 1.13628 0 0 0
54 -0.70623 -4.69238 1.98618 3.14159 -0.0872664 -3.14159
55 0.01333 1.02904 3.61174 0 0 0
56 0.0133295 -4.73568 2.23877 0 0 0
57 -4.88211 -22.4111 -12.589 0.000398678 0.00797078 0.000155937
58 0.0129189 0.0367718 6.63003 0 0 0
time 21
0 1.29637 -0.499222 -12.0785 0.000934124 0 -0.959925
1 6.02794 0 0 -0.82078 0.0188525 -0.730463
2 11.7344 0 0 -0.00140285 0 -0.660833
3 8.81139 -0.000452042 -0.000112534 -2.29903 0 0.000157693
4 5.77839 0.000286102 0 -1.54035 0 0
5 2.23164 -0.000329971 -0.000363827 -0.75868 0 0
6 11.4725 0 0 -2.29687 0.450212 0.21197
7 0.615219 -0.993092 -0.8107 2.33154 0.49143 -0.467307
8 2.24752 0 0 0.184051 -0.000815271 0.3514
9 1.11936 0 0 0.0719058 0.22699 0.00278418
10 3.71348 -0.102643 0.102192 1.55813 0.550067 0.0727846
11 1.72615 0 0 0.0130936 -0.025346 -0.58864
12 1.21114 0 0 -0.00463506 0.0170165 -0.863412
13 3.5992 -1.06012 0.0708885 1.55942 0.195064 -0.06495
14 1.66069 0 0 -0.00432485 0.0777451 -0.278548
15 1.167 0 0 -0.0233509 0.0241549 -0.401015
16 2.18852 0.501038 0.0576591 1.57004 0.0330458 0.225874
17 1.29609 0 0 0.0245655 -0.0398779 -0.741083
18 1.62202 0.000713348 -0.000471115 0.00984872 -0.0234244 -0.831087
19 1.22241 0 0 0.00136069 0.00642035 -0.52186
20 1.76707 1.27612 0.0366411 1.57002 0.262026 0.261241
21 1.55588 0 0 -0.0308127 0.0106456 -0.943666
22 1.24274 0 0 -0.000583446 0.000138207 -0.446636
23 0.784524 0 0 0.0133278 0.00939354 -0.326309
24 -3.6471 7.74038 -3.8527 -0.000932693 0 -2.0944
25 6.02794 0 0 0.768343 0.910201 0.0408315
26 11.7344 0 0 0.00140276 0 1.54465
27 8.81167 0 0 0.145398 0 0
28 5.77884 0 0 0.0974165 0 0
29 2.23249 0 0 0.0479814 0 0
30 11.4725 0 0 0.374411 -0.234153 -0.719978
31 0.615812 0.994372 -0.809165 -2.95367 0.480861 0.223813
32 2.24752 0 0 -0.0831661 0.257048 0.264173
33 1.11936 0 0 0.106547 0.169507 0.937361
34 3.71348 0.102639 0.102191 -1.53196 0.903048 -0.384383
35 1.72615 0 0 -0.00479614 -0.00187112 1.31044
36 1.21112 0 0 0.00977504 0.0146796 1.18496
37 3.5992 1.06012 0.070888 -1.55949 0.15616 0.0645017
38 1.66069 0 0 0.0444974 0.0639187 0.831692
39 1.16699 0 0 0.0223071 0.0093278 0.798134
40 2.18853 -0.50104 0.0576596 -1.57003 0.119427 -0.225807
41 1.29609 0 0 0.271416 0.0698929 0.770014
42 1.62202 -0.000713348 -0.000469208 -0.0323155 -0.0109794 1.4179
43 1.22241 0 0 -0.00658512 0.00177671 1.04424
44 1.76707 -1.27612 0.0366406 -1.44072 0.1345 -0.261341
45 1.55587 0 0 0.182858 0.0427366 0.752105
46 1.24273 0 0 0.00059172 0 0.838876
47 0.784531 0 0 -0.00599216 0.000868382 1.11469
48 0 0 0 0 0 0
49 -4.83618 -17.1925 -7.47274 0.00136399 0.00858155 0
50 0 -1.70357 0.0050807 0 0 0
51 -0.00196028 3.96104 2.21118 0 0 0
52 0.641596 -0.666147 0.75166 0 0 0
53 0.714397 -3.45621 1.13628 0 0 0
54 -0.70623 -4.69238 1.98618 -3.14159 -0.0872664 3.14159
55 0.0133295 1.02904 3.61174 0 0 0
56 0.0133295 -4.73569 2.23877 0 0 0
57 -4.88723 -22.3933 -12.5926 0.0010973 0.00885521 0.000133969
58 0.0129194 0.0367737 6.63003 0 0 0
time 22
0 1.29637 -0.499222 -12.0785 0.000934124 0 -0.959925
1 6.02794 0 0 -0.820774 0.0191564 -0.730349
2 11.7344 0 0 -0.00140277 0 -0.661239
3 8.81139 -0.000450134 -0.000112057 -2.2996 0 0.000156707
4 5.77839 0.000284195 0 -1.54073 0 0
5 2.23164 -0.000329971 -0.00036335 -0.758869 0 0
6 11.4725 0 0 -2.29735 0.450076 0.212053
7 0.615221 -0.993092 -0.8107 2.33154 0.49143 -0.467307
8 2.24752 0 0 0.184051 -0.000815321 0.3514
9 1.11936 0 0 0.0719057 0.22699 0.00278381
10 3.71348 -0.10264 0.102191 1.55813 0.550067 0.0727846
11 1.72615 0 0 0.0130938 -0.025346 -0.58864
12 1.21114 0 0 -0.00463509 0.0170163 -0.863412
13 3.59919 -1.06012 0.0708876 1.55942 0.195064 -0.0649501
14 1.66069 0 0 -0.00432474 0.0777452 -0.278548
15 1.167 0 0 -0.0233512 0.0241548 -0.401015
16 2.18853 0.50104 0.0576591 1.57004 0.0330458 0.225873
17 1.29609 0 0 0.0245656 -0.0398778 -0.741083
18 1.62202 0.000715256 -0.000471115 0.00984862 -0.0234248 -0.831087
19 1.22241 0 0 0.00136081 0.00642044 -0.52186
20 1.76707 1.27612 0.0366411 1.57002 0.262026 0.261241
21 1.55588 0 0 -0.0308126 0.0106455 -0.943666
22 1.24274 0 0 -0.000583557 0.000138427 -0.446635
23 0.784523 0 0 0.0133279 0.00939338 -0.326309
24 -3.6471 7.74038 -3.8527 -0.000932693 0 -2.0944
25 6.02794 0 0 0.768338 0.910219 0.0407536
26 11.7344 0 0 0.00140264 0 1.54485
27 8.81167 0 0 0.144951 0 0
28 5.77884 0 0 0.0971172 0 0
29 2.23249 0 0 0.0478339 0 0
30 11.4725 0 0 0.374007 -0.234015 -0.720387
31 0.615814 0.994373 -0.809165 -2.95367 0.480861 0.223812
32 2.24752 0 0 -0.0831661 0.257048 0.264172
33 1.11936 0 0 0.106547 0.169507 0.937361
34 3.71349 0.102641 0.102191 -1.53196 0.903047 -0.384383
35 1.72615 0 0 -0.00479612 -0.00187115 1.31044
36 1.21112 0 0 0.00977506 0.0146796 1.18496
37 3.5992 1.06012 0.0708883 -1.55949 0.15616 0.0645016
38 1.66069 0 0 0.0444974 0.0639187 0.831692
39 1.16699 0 0 0.0223071 0.00932777 0.798134
40 2.18853 -0.50104 0.0576591 -1.57003 0.119427 -0.225808
41 1.29609 0 0 0.271416 0.0698929 0.770014
42 1.62201 -0.000713348 -0.000470161 -0.0323155 -0.0109793 1.4179
43 1.22241 0 0 -0.0065851 0.00177673 1.04424
44 1.76707 -1.27612 0.0366406 -1.44072 0.1345 -0.261341
45 1.55588 0 0 0.182858 0.0427366 0.752105
46 1.24273 0 0 0.000591846 0 0.838876
47 0.784531 0 0 -0.00599213 0.000868352 1.11469
48 0 0 0 0 0 0
49 -4.83626 -17.1916 -7.47276 0.00168093 0.00899107 0
50 0 -1.70357 0.00508118 0 0 0
51 -0.0019598 3.96104 2.21118 0 0 0
52 0.641595 -0.666151 0.75166 0 0 0
53 0.714397 -3.45621 1.13628 0 0 0
54 -0.70623 -4.69238 1.98618 -3.14159 -0.0872664 3.14159
55 0.01333 1.02904 3.61174 0 0 0
56 0.0133295 -4.73569 2.23877 0 0 0
57 -4.8894 -22.3908 -12.5942 0.00141426 0.00926472 0.000136035
58 0.0129189 0.0367718 6.63003 0 0 0
time 23
0 1.29637 -0.499222 -12.0785 0.000934124 0 -0.959925
1 6.02794 0 0 -0.820783 0.018678 -0.730708
2 11.7344 0 0 -0.00140276 0 -0.659815
3 8.81138 -0.000448227 -0.000112534 -2.29909 0 0.000157055
4 5.77839 0.000286102 0 -1.54039 0 0
5 2.23163 -0.000328064 -0.000363827 -0.758699 0 0
6 11.4725 0 0 -2.29711 0.450288 0.211393
7 0.615219 -0.993092 -0.810699 2.33154 0.49143 -0.467307
8 2.24752 0 0 0.184051 -0.000815377 0.3514
9 1.11936 0 0 0.0719057 0.22699 0.00278405
10 3.71348 -0.102641 0.102191 1.55813 0.550067 0.0727844
11 1.72615 0 0 0.0130937 -0.0253459 -0.58864
12 1.21114 0 0 -0.00463506 0.0170163 -0.863412
13 3.59919 -1.06012 0.0708885 1.55942 0.195064 -0.0649503
14 1.66069 0 0 -0.00432468 0.0777451 -0.278549
15 1.167 0 0 -0.0233512 0.0241548 -0.401015
16 2.18853 0.50104 0.0576591 1.57004 0.033046 0.225874
17 1.29609 0 0 0.0245654 -0.039878 -0.741083
18 1.62202 0.000713348 -0.000473022 0.00984861 -0.0234245 -0.831087
19 1.22241 0 0 0.0013607 0.00642042 -0.52186
20 1.76707 1.27612 0.0366411 1.57002 0.262026 0.261241
21 1.55588 0 0 -0.0308126 0.0106456 -0.943666
22 1.24273 0 0 -0.000583588 0.000138297 -0.446636
23 0.784523 0 0 0.0133279 0.00939332 -0.326309
24 -3.6471 7.74038 -3.8527 -0.000932693 0 -2.0944
25 6.02794 0 0 0.768761 0.909906 0.0412661
26 11.7344 0 0 0.00140269 0 1.54413
27 8.81167 0 0 0.145361 0 0
28 5.77884 0 0 0.0973918 0 0
29 2.23249 0 0 0.0479692 0 0
30 11.4725 0 0 0.374294 -0.233925 -0.720148
31 0.615813 0.994373 -0.809166 -2.95367 0.480861 0.223813
32 2.24752 0 0 -0.0831661 0.257048 0.264172
33 1.11936 0 0 0.106547 0.169507 0.937361
34 3.71348 0.10264 0.10219 -1.53196 0.903048 -0.384383
35 1.72615 0 0 -0.00479627 -0.00187109 1.31044
36 1.21112 0 0 0.00977503 0.0146796 1.18496
37 3.5992 1.06012 0.0708878 -1.55949 0.15616 0.0645017
38 1.66069 0 0 0.0444974 0.0639188 0.831692
39 1.16699 0 0 0.0223071 0.00932776 0.798134
40 2.18853 -0.50104 0.0576589 -1.57003 0.119427 -0.225808
41 1.29609 0 0 0.271416 0.0698929 0.770014
42 1.62201 -0.000713348 -0.000471115 -0.0323154 -0.0109794 1.4179
43 1.22241 0 0 -0.00658514 0.00177687 1.04424
44 1.76707 -1.27612 0.0366402 -1.44072 0.1345 -0.261341
45 1.55588 0 0 0.182858 0.0427366 0.752105
46 1.24273 0 0 0.000591973 0 0.838876
47 0.784531 0 0 -0.00599217 0.000868333 1.11469
48 0 0 0 0 0 0
49 -4.83571 -17.1976 -7.47278 0.00171156 0.00869563 0.000105772
50 0 -1.70357 0.00508022 0 0 0
51 -0.0019598 3.96104 2.21118 0 0 0
52 0.641596 -0.666147 0.75166 0 0 0
53 0.714397 -3.45621 1.13628 0 0 0
54 -0.706229 -4.69238 1.98618 3.14159 -0.0872664 -3.14159
55 0.01333 1.02904 3.61174 0 0 0
56 0.01333 -4.73569 2.23877 0 0 0
57 -4.88727 -22.3966 -12.5944 0.00144488 0.00896927 0.000148608
58 0.0129199 0.0367699 6.63003 0 0 0
time 24
0 1.29637 -0.499222 -12.0785 0.000934124 0 -0.959925
1 6.02794 0 0 -0.820801 0.017676 -0.731426
2 11.7344 0 0 -0.00140286 0 -0.657055
3 8.81138 -0.000452042 -0.000112057 -2.29768 0 0.00015815
4 5.77839 0.000286102 0 -1.53944 0 0.000100206
5 2.23164 -0.000328064 -0.000363827 -0.758233 0 0
6 11.4725 0 0 -2.29622 0.450927 0.210338
7 0.615219 -0.993093 -0.810701 2.33154 0.49143 -0.467307
8 2.24752 0 0 0.184051 -0.000815412 0.3514
9 1.11936 0 0 0.0719058 0.22699 0.00278414
10 3.71348 -0.102642 0.102191 1.55813 0.550067 0.0727844
11 1.72615 0 0 0.0130938 -0.0253458 -0.58864
12 1.21114 0 0 -0.00463509 0.0170164 -0.863412
13 3.59919 -1.06012 0.0708876 1.55942 0.195064 -0.0649502
14 1.66069 0 0 -0.00432469 0.0777452 -0.278548
15 1.167 0 0 -0.0233511 0.0241547 -0.401015
16 2.18852 0.501039 0.0576582 1.57004 0.0330459 0.225874
17 1.29609 0 0 0.0245654 -0.0398781 -0.741083
18 1.62202 0.000713348 -0.000469208 0.00984867 -0.0234243 -0.831087
19 1.22241 0 0 0.00136079 0.00642044 -0.52186
20 1.76707 1.27612 0.0366402 1.57002 0.262026 0.261241
21 1.55588 0 0 -0.0308127 0.0106456 -0.943666
22 1.24274 0 0 -0.00058353 0.000138311 -0.446635
23 0.784524 0 0 0.0133279 0.00939343 -0.326309
24 -3.6471 7.74038 -3.8527 -0.000932693 0 -2.0944
25 6.02794 0 0 0.769506 0.909341 0.0422272
26 11.7344 0 0 0.00140269 0 1.54278
27 8.81167 0 0 0.146536 0 0
28 5.77884 0 0 0.0981792 0 0
29 2.23249 0 0 0.0483569 0 0
30 11.4725 0 0 0.375299 -0.233785 -0.719662
31 0.615812 0.994373 -0.809165 -2.95367 0.480861 0.223813
32 2.24752 0 0 -0.083166 0.257048 0.264173
33 1.11936 0 0 0.106547 0.169507 0.937361
34 3.71349 0.10264 0.10219 -1.53196 0.903047 -0.384383
35 1.72615 0 0 -0.00479613 -0.00187111 1.31044
36 1.21112 0 0 0.00977508 0.0146796 1.18496
37 3.5992 1.06012 0.070888 -1.55949 0.15616 0.0645017
38 1.66069 0 0 0.0444974 0.0639188 0.831692
39 1.16699 0 0 0.0223071 0.00932778 0.798134
40 2.18853 -0.50104 0.0576591 -1.57003 0.119427 -0.225808
41 1.29609 0 0 0.271416 0.0698929 0.770013
42 1.62202 -0.000713348 -0.000469208 -0.0323154 -0.0109794 1.4179
43 1.22241 0 0 -0.00658511 0.00177689 1.04424
44 1.76707 -1.27612 0.0366406 -1.44072 0.1345 -0.261341
45 1.55588 0 0 0.182858 0.0427366 0.752105
46 1.24273 0 0 0.000591858 0 0.838876
47 0.784532 0 0 -0.00599226 0.000868458 1.11469
48 0 0 0 0 0 0
49 -4.83469 -17.2086 -7.47281 0.00170653 0.00769429 0.000101248
50 0 -1.70357 0.0050807 0 0 0
51 -0.00196028 3.96104 2.21118 0 0 0
52 0.641596 -0.666147 0.75166 0 0 0
53 0.714397 -3.4562 1.13628 0 0 0
54 -0.70623 -4.69238 1.98618 -3.14159 -0.0872664 3.14159
55 0.0133295 1.02904 3.61174 0 0 0
56 0.01333 -4.73568 2.23877 0 0 0
57 -4.88115 -22.4076 -12.5945 0.00143981 0.00796793 0.000144082
58 0.0129199 0.0367737 6.63003 0 0 0
time 25
0 1.29637 -0.499222 -12.0785 0.000934124 0 -0.959925
1 6.02794 0 0 -0.820824 0.0163145 -0.732385
2 11.7344 0 0 -0.00140287 0 -0.653404
3 8.81138 -0.000450134 -0.000113487 -2.29565 0 0.000157551
4 5.77839 0.000286102 0 -1.53809 0 0
5 2.23164 -0.000329971 -0.000363827 -0.757566 0 0
6 11.4725 0 0 -2.29488 0.451844 0.209022
7 0.615219 -0.99309 -0.8107 2.33154 0.49143 -0.467307
8 2.24752 0 0 0.184051 -0.000815366 0.3514
9 1.11936 0 0 0.0719058 0.22699 0.00278407
10 3.71348 -0.10264 0.102191 1.55813 0.550067 0.0727847
11 1.72615 0 0 0.0130937 -0.0253458 -0.58864
12 1.21114 0 0 -0.00463504 0.0170164 -0.863412
13 3.5992 -1.06012 0.0708876 1.55942 0.195064 -0.0649502
14 1.66069 0 0 -0.00432462 0.0777451 -0.278549
15 1.167 0 0 -0.023351 0.0241547 -0.401015
16 2.18852 0.50104 0.0576591 1.57004 0.0330458 0.225874
17 1.29609 0 0 0.0245654 -0.0398781 -0.741083
18 1.62202 0.000713348 -0.000471115 0.00984859 -0.0234244 -0.831087
19 1.22241 0 0 0.00136058 0.00642051 -0.52186
20 1.76707 1.27612 0.0366411 1.57002 0.262026 0.261241
21 1.55588 0 0 -0.0308128 0.0106457 -0.943666
22 1.24273 0 0 -0.000583588 0.000138297 -0.446636
23 0.784523 0 0 0.013328 0.00939351 -0.326309
24 -3.6471 7.74038 -3.8527 -0.000932693 0 -2.0944
25 6.02794 0 0 0.770453 0.908616 0.0434761
26 11.7344 0 0 0.00140264 0 1.54101
27 8.81167 0 0 0.148229 0 0
28 5.77884 0 0 0.0993134 0 0
29 2.23249 0 0 0.0489156 0 0
30 11.4725 0 0 0.376788 -0.233627 -0.71899
31 0.615813 0.994373 -0.809165 -2.95367 0.480861 0.223813
32 2.24752 0 0 -0.083166 0.257048 0.264173
33 1.11935 0 0 0.106547 0.169507 0.937361
34 3.71349 0.10264 0.10219 -1.53196 0.903048 -0.384383
35 1.72615 0 0 -0.00479613 -0.00187103 1.31044
36 1.21112 0 0 0.00977506 0.0146796 1.18496
37 3.5992 1.06012 0.0708885 -1.55949 0.15616 0.0645017
38 1.66069 0 0 0.0444974 0.0639188 0.831692
39 1.16699 0 0 0.0223071 0.00932778 0.798134
40 2.18853 -0.501041 0.0576584 -1.57003 0.119427 -0.225808
41 1.29609 0 0 0.271417 0.069893 0.770014
42 1.62202 -0.000715256 -0.000470161 -0.0323155 -0.0109793 1.4179
43 1.22241 0 0 -0.00658511 0.00177688 1.04424
44 1.76707 -1.27612 0.0366402 -1.44072 0.1345 -0.261341
45 1.55588 0 0 0.182858 0.0427367 0.752105
46 1.24273 0 0 0.000591822 0 0.838876
47 0.784532 0 0 -0.00599214 0.000868267 1.11469
48 0 0 0 0 0 0
49 -4.83336 -17.2229 -7.47284 0.00165404 0.00621676 0
50 0 -1.70357 0.00508118 0 0 0
51 -0.0019598 3.96104 2.21118 0 0 0
52 0.641596 -0.666147 0.751661 0 0 0
53 0.714398 -3.45621 1.13628 0 0 0
54 -0.706229 -4.69238 1.98618 3.14159 -0.0872664 -3.14159
55 0.0133305 1.02904 3.61174 0 0 0
56 0.01333 -4.73568 2.23877 0 0 0
57 -4.87234 -22.4222 -12.5943 0.00138725 0.00649041 0.00012678
58 0.0129199 0.0367699 6.63003 0 0 0
time 26
0 1.29637 -0.499222 -12.0785 0.000934124 0 -0.959925
1 6.02794 0 0 -0.820849 0.0147576 -0.733469
2 11.7344 0 0 -0.00140283 0 -0.649309
3 8.81139 -0.000450134 -0.00011301 -2.29331 0 0.000157509
4 5.77839 0.000284195 0 -1.53651 0 0
5 2.23164 -0.000328064 -0.000364304 -0.756791 0 0
6 11.4725 0 0 -2.29329 0.452892 0.207572
7 0.615219 -0.993092 -0.8107 2.33154 0.49143 -0.467307
8 2.24752 0 0 0.184051 -0.000815392 0.3514
9 1.11936 0 0 0.0719057 0.22699 0.002784
10 3.71348 -0.102641 0.102191 1.55813 0.550067 0.0727845
11 1.72615 0 0 0.0130937 -0.025346 -0.58864
12 1.21114 0 0 -0.00463504 0.0170163 -0.863412
13 3.59919 -1.06012 0.0708876 1.55942 0.195064 -0.0649502
14 1.66069 0 0 -0.00432485 0.0777451 -0.278548
15 1.167 0 0 -0.023351 0.0241549 -0.401015
16 2.18853 0.50104 0.0576591 1.57004 0.0330459 0.225873
17 1.29609 0 0 0.0245656 -0.039878 -0.741083
18 1.62202 0.000715256 -0.000471115 0.0098489 -0.0234245 -0.831087
19 1.22241 0 0 0.00136077 0.00642037 -0.52186
20 1.76707 1.27612 0.0366411 1.57002 0.262026 0.261241
21 1.55587 0 0 -0.0308127 0.0106456 -0.943666
22 1.24274 0 0 -0.00058353 0.000138311 -0.446636
23 0.784524 0 0 0.0133278 0.00939337 -0.326309
24 -3.6471 7.74038 -3.8527 -0.000932693 0 -2.0944
25 6.02794 0 0 0.771482 0.907821 0.0448539
26 11.7344 0 0 0.0014028 0 1.53905
27 8.81167 0 0 0.15019 0 0
28 5.77884 0 0 0.100627 0 0
29 2.23249 0 0 0.0495627 0 0
30 11.4725 0 0 0.378527 -0.233483 -0.718189
31 0.615813 0.994373 -0.809166 -2.95367 0.480861 0.223813
32 2.24752 0 0 -0.083166 0.257048 0.264173
33 1.11936 0 0 0.106547 0.169507 0.937361
34 3.71349 0.10264 0.102191 -1.53196 0.903048 -0.384383
35 1.72615 0 0 -0.00479623 -0.00187112 1.31044
36 1.21112 0 0 0.00977506 0.0146796 1.18496
37 3.5992 1.06012 0.0708888 -1.55949 0.15616 0.0645018
38 1.66069 0 0 0.0444974 0.0639188 0.831692
39 1.16699 0 0 0.0223071 0.00932777 0.798134
40 2.18853 -0.50104 0.0576591 -1.57003 0.119427 -0.225808
41 1.29609 0 0 0.271416 0.0698929 0.770014
42 1.62201 -0.000713348 -0.000469208 -0.0323155 -0.0109794 1.4179
43 1.22241 0 0 -0.00658516 0.00177665 1.04424
44 1.76707 -1.27612 0.0366411 -1.44072 0.1345 -0.261341
45 1.55587 0 0 0.182858 0.0427367 0.752105
46 1.24273 0 0 0.000591796 0 0.838876
47 0.784531 0 0 -0.00599208 0.000868449 1.11469
48 0 0 0 0 0 0
49 -4.83191 -17.2386 -7.47286 0.0015423 0.00449276 0
50 0 -1.70357 0.00508022 0 0 0
51 -0.0019598 3.96104 2.21118 0 0 0
52 0.641596 -0.666145 0.75166 0 0 0
53 0.714397 -3.45621 1.13628 0 0 0
54 -0.70623 -4.69238 1.98618 -3.14159 -0.0872663 3.14159
55 0.0133295 1.02904 3.61174 0 0 0
56 0.01333 -4.73568 2.23877 0 0 0
57 -4.86219 -22.4384 -12.5938 0.00127544 0.00476641 0.000101028
58 0.0129194 0.0367718 6.63003 0 0 0
time 27
0 1.29637 -0.499222 -12.0785 0.000934124 0 -0.959925
1 6.02794 0 0 -0.820873 0.013177 -0.734552
2 11.7344 0 0 -0.00140273 0 -0.645237
3 8.81138 -0.000450134 -0.00011158 -2.29092 0 0.000157503
4 5.77839 0.000286102 0 -1.53492 0 0
5 2.23163 -0.000329971 -0.000363827 -0.756004 0 0
6 11.4725 0 0 -2.29167 0.453924 0.206129
7 0.615223 -0.993089 -0.8107 2.33154 0.49143 -0.467307
8 2.24752 0 0 0.184051 -0.000815289 0.3514
9 1.11936 0 0 0.0719059 0.22699 0.00278422
10 3.71348 -0.102641 0.102191 1.55813 0.550067 0.0727845
11 1.72615 0 0 0.0130936 -0.025346 -0.58864
12 1.21113 0 0 -0.00463514 0.0170163 -0.863412
13 3.5992 -1.06012 0.0708885 1.55942 0.195064 -0.0649501
14 1.66069 0 0 -0.00432479 0.0777451 -0.278548
15 1.167 0 0 -0.0233509 0.0241549 -0.401015
16 2.18853 0.50104 0.0576591 1.57004 0.0330458 0.225874
17 1.29609 0 0 0.0245654 -0.0398781 -0.741083
18 1.62202 0.000713348 -0.000471115 0.00984864 -0.0234244 -0.831087
19 1.22241 0 0 0.0013606 0.00642045 -0.52186
20 1.76707 1.27612 0.0366411 1.57002 0.262026 0.261241
21 1.55588 0 0 -0.0308126 0.0106456 -0.943666
22 1.24274 0 0 -0.000583588 0.000138297 -0.446636
23 0.784524 0 0 0.013328 0.00939352 -0.326309
24 -3.6471 7.74038 -3.8527 -0.000932693 0 -2.0944
25 6.02794 0 0 0.772475 0.90705 0.0461982
26 11.7344 0 0 0.00140275 0 1.5371
27 8.81167 0 0 0.152171 0 0
28 5.77884 0 0 0.101954 0 0
29 2.23249 0 0 0.0502164 0 0
30 11.4725 0 0 0.380282 -0.233383 -0.717321
31 0.615813 0.994373 -0.809165 -2.95367 0.480861 0.223812
32 2.24752 0 0 -0.0831661 0.257048 0.264172
33 1.11936 0 0 0.106547 0.169507 0.93736
34 3.71349 0.102639 0.10219 -1.53196 0.903048 -0.384383
35 1.72615 0 0 -0.00479606 -0.00187109 1.31044
36 1.21112 0 0 0.00977507 0.0146797 1.18496
37 3.5992 1.06012 0.0708883 -1.55949 0.156159 0.0645017
38 1.66069 0 0 0.0444974 0.0639187 0.831691
39 1.16699 0 0 0.0223072 0.00932782 0.798134
40 2.18853 -0.50104 0.0576591 -1.57003 0.119427 -0.225808
41 1.29609 0 0 0.271416 0.0698929 0.770013
42 1.62202 -0.000713348 -0.000469208 -0.0323156 -0.0109794 1.4179
43 1.22241 0 0 -0.00658518 0.00177671 1.04424
44 1.76707 -1.27612 0.0366406 -1.44072 0.1345 -0.261341
45 1.55588 0 0 0.182858 0.0427367 0.752106
46 1.24273 0 0 0.000591922 0 0.838876
47 0.784532 0 0 -0.00599219 0.000868498 1.11469
48 0 0 0 0 0 0
49 -4.83049 -17.2539 -7.47289 0.00135952 0.002752 0
50 0 -1.70357 0.00508118 0 0 0
51 -0.0019598 3.96104 2.21118 0 0 0
52 0.641596 -0.666147 0.75166 0 0 0
53 0.714397 -3.45621 1.13628 0 0 0
54 -0.70623 -4.69238 1.98618 -3.14159 -0.0872664 3.14159
55 0.01333 1.02904 3.61174 0 0 0
56 0.01333 -4.73568 2.23877 0 0 0
57 -4.85201 -22.4547 -12.5929 0.00109259 0.00302566 0
58 0.0129194 0.0367699 6.63003 0 0 0
time 28
0 1.29637 -0.499222 -12.0785 0.000934124 0 -0.959925
1 6.02794 0 0 -0.820892 0.0117448 -0.735512
2 11.7344 0 0 -0.00140284 0 -0.641656
3 8.81139 -0.000450134 -0.000112534 -2.28878 0 0.000158045
4 5.77839 0.000286102 0 -1.53348 0 0.000100287
5 2.23164 -0.000328064 -0.00036335 -0.755299 0 0
6 11.4725 0 0 -2.29021 0.454795 0.204833
7 0.615221 -0.993092 -0.810701 2.33154 0.49143 -0.467307
8 2.24752 0 0 0.184051 -0.00081538 0.3514
9 1.11936 0 0 0.0719058 0.22699 0.00278405
10 3.71348 -0.102641 0.102191 1.55813 0.550067 0.0727845
11 1.72615 0 0 0.0130937 -0.0253459 -0.58864
12 1.21114 0 0 -0.00463504 0.0170164 -0.863412
13 3.5992 -1.06012 0.0708876 1.55942 0.195064 -0.0649503
14 1.66069 0 0 -0.00432493 0.0777452 -0.278548
15 1.167 0 0 -0.023351 0.0241549 -0.401016
16 2.18853 0.501039 0.0576591 1.57004 0.0330459 0.225873
17 1.29609 0 0 0.0245655 -0.0398779 -0.741083
18 1.62202 0.000713348 -0.000471115 0.00984874 -0.0234245 -0.831087
19 1.22241 0 0 0.0013608 0.00642038 -0.52186
20 1.76707 1.27612 0.0366411 1.57002 0.262026 0.261241
21 1.55588 0 0 -0.0308127 0.0106457 -0.943666
22 1.24274 0 0 -0.000583601 0.000138355 -0.446636
23 0.784524 0 0 0.013328 0.00939351 -0.326309
24 -3.6471 7.74038 -3.8527 -0.000932693 0 -2.0944
25 6.02794 0 0 0.773312 0.906392 0.0473517
26 11.7344 0 0 0.00140268 0 1.53541
27 8.81167 0 0 0.153917 0 0
28 5.77884 0 0 0.103125 0 0
29 2.23249 0 0 0.0507928 0 0
30 11.4725 0 0 0.381819 -0.23336 -0.716448
31 0.615813 0.994372 -0.809165 -2.95367 0.480861 0.223812
32 2.24752 0 0 -0.0831661 0.257048 0.264173
33 1.11936 0 0 0.106547 0.169507 0.937361
34 3.71349 0.102639 0.102191 -1.53196 0.903048 -0.384383
35 1.72615 0 0 -0.00479619 -0.00187108 1.31044
36 1.21112 0 0 0.00977502 0.0146795 1.18496
37 3.5992 1.06012 0.0708885 -1.55949 0.15616 0.0645017
38 1.66069 0 0 0.0444974 0.0639187 0.831692
39 1.16699 0 0 0.0223071 0.00932776 0.798134
40 2.18853 -0.50104 0.0576594 -1.57003 0.119427 -0.225808
41 1.29609 0 0 0.271416 0.069893 0.770014
42 1.62202 -0.000713348 -0.000470161 -0.0323154 -0.0109795 1.4179
43 1.22241 0 0 -0.0065851 0.00177692 1.04424
44 1.76707 -1.27612 0.0366406 -1.44072 0.1345 -0.261341
45 1.55588 0 0 0.182858 0.0427366 0.752105
46 1.24273 0 0 0.000591907 0 0.838876
47 0.784532 0 0 -0.00599219 0.000868445 1.11469
48 0 0 0 0 0 0
49 -4.82927 -17.2671 -7.47291 0.00109392 0.00122419 0
50 0 -1.70357 0.00508118 0 0 0
51 -0.0019598 3.96104 2.21118 0 0 0
52 0.641596 -0.666151 0.75166 0 0 0
53 0.714397 -3.45621 1.13628 0 0 0
54 -0.70623 -4.69238 1.98618 3.14159 -0.0872664 -3.14159
55 0.0133305 1.02904 3.61174 0 0 0
56 0.01333 -4.73569 2.23877 0 0 0
57 -4.84312 -22.4692 -12.5916 0.000826917 0.00149786 0
58 0.0129199 0.0367718 6.63003 0 0 0
time 29
0 1.29637 -0.499222 -12.0785 0.000934124 0 -0.959925
1 6.02794 0 0 -0.820906 0.0106382 -0.736216
2 11.7344 0 0 -0.00140287 0 -0.639049
3 8.81138 -0.000450134 -0.00011158 -2.28719 0 0.000157282
4 5.77839 0.000286102 0 -1.53242 0 0
5 2.23164 -0.000331879 -0.00036335 -0.754772 0 0
6 11.4725 0 0 -2.28912 0.45536 0.203827
7 0.615219 -0.99309 -0.8107 2.33154 0.49143 -0.467307
8 2.24752 0 0 0.184051 -0.000815366 0.3514
9 1.11936 0 0 0.0719058 0.22699 0.00278398
10 3.71348 -0.10264 0.102191 1.55813 0.550067 0.0727847
11 1.72615 0 0 0.0130936 -0.025346 -0.58864
12 1.21114 0 0 -0.00463504 0.0170164 -0.863412
13 3.59919 -1.06012 0.0708876 1.55942 0.195064 -0.0649502
14 1.66069 0 0 -0.0043247 0.0777453 -0.278549
15 1.167 0 0 -0.0233512 0.0241548 -0.401015
16 2.18852 0.50104 0.0576591 1.57004 0.0330459 0.225874
17 1.29609 0 0 0.0245654 -0.039878 -0.741083
18 1.62202 0.000715256 -0.000471115 0.00984863 -0.0234245 -0.831087
19 1.22241 0 0 0.0013607 0.00642029 -0.52186
20 1.76707 1.27612 0.0366411 1.57002 0.262026 0.261241
21 1.55588 0 0 -0.0308128 0.0106457 -0.943666
22 1.24274 0 0 -0.000583575 0.000138239 -0.446636
23 0.784524 0 0 0.0133278 0.00939331 -0.326309
24 -3.6471 7.74038 -3.8527 -0.000932693 0 -2.0944
25 6.02794 0 0 0.773875 0.905943 0.0481545
26 11.7344 0 0 0.00140281 0 1.53417
27 8.81167 0 0 0.15518 0 0
28 5.77884 0 0 0.10397 0 0
29 2.23249 0 0 0.0512093 0 0
30 11.4725 0 0 0.382904 -0.233445 -0.715631
31 0.615814 0.994372 -0.809165 -2.95367 0.480861 0.223812
32 2.24752 0 0 -0.0831662 0.257048 0.264173
33 1.11935 0 0 0.106547 0.169507 0.937361
34 3.71349 0.102639 0.102191 -1.53196 0.903048 -0.384383
35 1.72615 0 0 -0.00479627 -0.00187106 1.31044
36 1.21112 0 0 0.00977508 0.0146796 1.18496
37 3.5992 1.06012 0.0708885 -1.55949 0.156159 0.0645016
38 1.66069 0 0 0.0444974 0.0639188 0.831692
39 1.16699 0 0 0.0223071 0.00932773 0.798134
40 2.18853 -0.50104 0.0576596 -1.57003 0.119427 -0.225808
41 1.29609 0 0 0.271417 0.069893 0.770014
42 1.62201 -0.000713348 -0.000470161 -0.0323154 -0.0109795 1.4179
43 1.22241 0 0 -0.00658506 0.00177676 1.04424
44 1.76707 -1.27612 0.0366406 -1.44072 0.1345 -0.261341
45 1.55587 0 0 0.182858 0.0427367 0.752106
46 1.24273 0 0 0.000591892 0 0.838876
47 0.784532 0 0 -0.0059922 0.000868443 1.11469
48 0 0 0 0 0 0
49 -4.82841 -17.2763 -7.47292 0.000733693 0.000139054 0
50 0 -1.70357 0.0050807 0 0 0
51 -0.00195932 3.96104 2.21118 0 0 0
52 0.641596 -0.666147 0.75166 0 0 0
53 0.714398 -3.45621 1.13628 0 0 0
54 -0.706229 -4.69238 1.98618 -3.14159 -0.0872664 3.14159
55 0.0133305 1.02904 3.61174 0 0 0
56 0.01333 -4.73569 2.23877 0 0 0
57 -4.83684 -22.4803 -12.5897 0.000466648 0.000412739 0
58 0.0129194 0.0367718 6.63003 0 0 0
time 30
0 1.29637 -0.499222 -12.0785 0.000934124 0 -0.959925
1 6.02794 0 0 -0.820913 0.0100352 -0.736535
2 11.7344 0 0 -0.00140286 0 -0.637902
3 8.81139 -0.000448227 -0.00011158 -2.28642 0 0.000157369
4 5.77839 0.000286102 0 -1.5319 0 0
5 2.23163 -0.000328064 -0.00036335 -0.75452 0 0
6 11.4725 0 0 -2.28859 0.455474 0.20326
7 0.615219 -0.993091 -0.810699 2.33154 0.49143 -0.467307
8 2.24752 0 0 0.184051 -0.000815328 0.3514
9 1.11936 0 0 0.0719057 0.22699 0.00278388
10 3.71348 -0.102638 0.102191 1.55813 0.550067 0.0727845
11 1.72615 0 0 0.0130939 -0.0253457 -0.58864
12 1.21114 0 0 -0.00463512 0.0170162 -0.863412
13 3.59919 -1.06012 0.0708885 1.55942 0.195064 -0.0649502
14 1.66069 0 0 -0.00432464 0.0777453 -0.278548
15 1.167 0 0 -0.023351 0.0241548 -0.401015
16 2.18852 0.501041 0.0576601 1.57004 0.0330458 0.225874
17 1.29609 0 0 0.0245655 -0.0398781 -0.741083
18 1.62202 0.000715256 -0.000471115 0.00984859 -0.0234243 -0.831087
19 1.22241 0 0 0.00136072 0.00642036 -0.52186
20 1.76707 1.27612 0.0366411 1.57002 0.262026 0.261241
21 1.55587 0 0 -0.0308127 0.0106457 -0.943667
22 1.24274 0 0 -0.00058353 0.000138311 -0.446635
23 0.784523 0 0 0.0133278 0.00939348 -0.326309
24 -3.6471 7.74038 -3.8527 -0.000932693 0 -2.0944
25 6.02794 0 0 0.774048 0.905795 0.0484493
26 11.7344 0 0 0.00140281 0 1.53362
27 8.81167 0 0 0.155703 0 0
28 5.77884 0 0 0.104321 0 0
29 2.23249 0 0 0.0513821 0 0
30 11.4725 0 0 0.383302 -0.23367 -0.714931
31 0.615812 0.994373 -0.809166 -2.95367 0.480861 0.223812
32 2.24752 0 0 -0.083166 0.257048 0.264173
33 1.11936 0 0 0.106547 0.169507 0.93736
34 3.71349 0.102641 0.102191 -1.53196 0.903048 -0.384383
35 1.72615 0 0 -0.00479611 -0.00187107 1.31044
36 1.21112 0 0 0.00977506 0.0146796 1.18496
37 3.5992 1.06012 0.0708878 -1.55949 0.15616 0.0645016
38 1.66069 0 0 0.0444974 0.0639188 0.831692
39 1.16699 0 0 0.0223072 0.0093278 0.798134
40 2.18853 -0.50104 0.0576589 -1.57003 0.119427 -0.225808
41 1.29609 0 0 0.271417 0.0698929 0.770014
42 1.62202 -0.000713348 -0.000470161 -0.0323155 -0.0109793 1.4179
43 1.22241 0 0 -0.00658518 0.00177661 1.04424
44 1.76707 -1.27612 0.0366404 -1.44072 0.1345 -0.261341
45 1.55587 0 0 0.182858 0.0427366 0.752105
46 1.24273 0 0 0.000591788 0 0.838876
47 0.784532 0 0 -0.00599216 0.000868452 1.11469
48 0 0 0 0 0 0
49 -4.82809 -17.2798 -7.47293 0.000267062 -0.000273704 0
50 0 -1.70357 0.0050807 0 0 0
51 -0.00196028 3.96104 2.21118 0 0 0
52 0.641596 -0.666149 0.75166 0 0 0
53 0.714397 -3.45621 1.13628 0 0 0
54 -0.70623 -4.69238 1.98618 -3.14159 -0.0872664 3.14159
55 0.0133295 1.02904 3.61174 0 0 0
56 0.0133295 -4.73569 2.23877 0 0 0
57 -4.83449 -22.4862 -12.5873 0 0 0
58 0.0129194 0.0367718 6.63003 0 0 0
end
