//Sequence File generated by the Wall Worm SMD Exporter PRO 1.99
//www.wallworm.com
version 1
nodes
0 "b_l_clav" -1
1 "b_l_upperarm" 0
2 "b_l_forearm" 1
3 "b_l_twist3" 2
4 "b_l_twist2" 2
5 "b_l_twist1" 2
6 "b_l_hand" 2
7 "b_l_thumb001" 6
8 "b_l_thumb002" 7
9 "b_l_thumb003" 8
10 "b_l_middle001" 6
11 "b_l_middle002" 10
12 "b_l_middle003" 11
13 "b_l_index001" 6
14 "b_l_index002" 13
15 "b_l_index003" 14
16 "b_l_hand_ringsqueezer" 6
17 "b_l_ring001" 16
18 "b_l_ring002" 17
19 "b_l_ring003" 18
20 "b_l_hand_pinkysqueezer" 6
21 "b_l_pinky001" 20
22 "b_l_pinky002" 21
23 "b_l_pinky003" 22
24 "b_r_clav" -1
25 "b_r_upperarm" 24
26 "b_r_forearm" 25
27 "b_r_twist3" 26
28 "b_r_twist2" 26
29 "b_r_twist1" 26
30 "b_r_hand" 26
31 "b_r_thumb001" 30
32 "b_r_thumb002" 31
33 "b_r_thumb003" 32
34 "b_r_middle001" 30
35 "b_r_middle002" 34
36 "b_r_middle003" 35
37 "b_r_index001" 30
38 "b_r_index002" 37
39 "b_r_index003" 38
40 "b_r_hand_ringsqueezer" 30
41 "b_r_ring001" 40
42 "b_r_ring002" 41
43 "b_r_ring003" 42
44 "b_r_hand_pinkysqueezer" 30
45 "b_r_pinky001" 44
46 "b_r_pinky002" 45
47 "b_r_pinky003" 46
48 "b_zero" -1
49 "d_clip" -1
50 "d_magfollower" 49
51 "d_boolet" 49
52 "d_gun" -1
53 "d_trig" 52
54 "d_slidelock" 52
55 "d_slide" 52
56 "d_ham" 52
57 "d_barrel" 52
58 "d_maglite" -1
end
skeleton
time 0
0 6.78963 4.11825 -5.6679 0.000934124 0 -1.53243
1 6.02795 0 0 -1.10536 0.365476 -0.419382
2 11.7344 0 0 -0.00140273 0 -0.678616
3 8.81139 -0.000450134 -0.00011158 -0.585301 0 0.000157672
4 5.77839 0.000286102 0 -0.392151 0 0.000103231
5 2.23164 -0.000329971 -0.000363588 -0.193149 0 0
6 11.4725 0 0 -0.766749 -0.413863 0.555192
7 0.615221 -0.993091 -0.8107 2.36302 0.0866628 -0.357379
8 2.24752 0 0 0.0605673 0.267265 -0.222262
9 1.11936 0 0 0.0749173 0.0546635 -0.249677
10 3.71348 -0.102641 0.102191 1.77126 0.869992 0.142171
11 1.72615 0 0 0.013477 -0.00733088 -0.811382
12 1.21114 0 0 0.00873811 0.0151279 -0.772911
13 3.59919 -1.06012 0.070888 1.87281 0.766148 0.187135
14 1.66069 0 0 -0.0195999 0.0443892 -0.726687
15 1.167 0 0 0.00841046 -0.00839377 -0.438998
16 2.18852 0.50104 0.0576589 1.57366 -0.028125 0.156362
17 1.29609 0 0 0.0785581 0.0270526 -1.07235
18 1.62202 0.000713348 -0.000471115 0.00740292 -0.022111 -0.784237
19 1.22241 0 0 0.000237454 0.00593041 -0.707337
20 1.76707 1.27612 0.0366406 1.57458 0.205155 0.106808
21 1.55588 0 0 -0.0273743 0.0177045 -0.702262
22 1.24273 0 0 -0.000479282 0.00036055 -1.15419
23 0.784523 0 0 0.00636382 -0.00322814 -0.741041
24 -6.70653 7.12182 -4.00061 -0.000932693 0 -1.8749
25 6.02794 0 0 1.17417 0.471342 0.259099
26 11.7344 0 0 0.00140282 0 0.756263
27 8.81167 0 0 0.0753826 0 0
28 5.77884 0 0 0.0505064 0 0
29 2.23249 0 0 0.0248763 0 0
30 11.4725 0 0 0.136965 -0.424482 -0.163792
31 0.615812 0.994373 -0.809166 -2.83171 0.442997 0.480737
32 2.24752 0 0 -0.045362 0.233136 0.363247
33 1.11935 0 0 -0.000327986 0.159957 0.657165
34 3.71349 0.10264 0.102191 -1.54675 0.834836 -0.400578
35 1.72615 0 0 -0.00689867 -0.00732658 1.09674
36 1.21112 0 0 0.0103137 0.0102 1.33017
37 3.5992 1.06012 0.070888 -1.53662 0.394253 -0.182897
38 1.66069 0 0 0.00129286 0.0778541 0.239537
39 1.16699 0 0 0.0426518 0.021851 0.735105
40 2.18853 -0.50104 0.0576593 -1.5728 0.133573 -0.17288
41 1.29609 0 0 0.120501 0.0520644 0.782584
42 1.62201 -0.000711441 -0.000470161 0.0811907 -0.0245018 1.19712
43 1.22241 0 0 -0.0119317 -0.00594714 1.29801
44 1.76707 -1.27612 0.0366402 -1.48212 0.284875 -0.100851
45 1.55588 0 0 0.223724 0.08684 0.700865
46 1.24273 0 0 0.000478936 0.000360568 0.964696
47 0.784532 0 0 -0.00618631 0.00024959 0.884667
48 0 0 0 0 0 0
49 -5.90508 -23.5497 -6.07014 0 0 0
50 0 -0.611115 2.11238 0 0 0
51 -0.0145798 -2.38072 2.91209 0 0 0
52 -5.90508 -24.9106 -5.82486 0 0 0
53 0 -0.675064 1.41593 0 0 0
54 0 0.979376 2.2232 0 0 0
55 0 -3.93659 2.85382 0 0 0
56 0 2.062 1.89702 0.0872663 0 0
57 0 -1.66928 2.73772 0 0 0
58 6.98255 2.1009 -16.1176 0 0 0
time 1
0 6.78963 4.11825 -5.6679 0.000934124 0 -1.53243
1 6.02795 0 0 -1.09864 0.383466 -0.412927
2 11.7344 0 0 -0.0014028 0 -0.720307
3 8.81138 -0.000449181 -0.00011301 -0.57367 0 0.000157823
4 5.77839 0.00028801 0 -0.384359 0 0.000103328
5 2.23163 -0.000329018 -0.000364065 -0.189311 0 0
6 11.4725 0 0 -0.766104 -0.42258 0.56943
7 0.615221 -0.993092 -0.8107 2.36302 0.0866628 -0.35738
8 2.24752 0 0 0.0605672 0.267265 -0.222262
9 1.11936 0 0 0.0749173 0.0546634 -0.249677
10 3.71348 -0.102641 0.102191 1.77126 0.869992 0.142171
11 1.72615 0 0 0.013477 -0.00733089 -0.811382
12 1.21114 0 0 0.0087381 0.015128 -0.772911
13 3.59919 -1.06012 0.0708879 1.87281 0.766148 0.187134
14 1.66069 0 0 -0.0195999 0.0443892 -0.726687
15 1.167 0 0 0.00841045 -0.00839377 -0.438998
16 2.18852 0.501039 0.057659 1.57366 -0.0281251 0.156362
17 1.29609 0 0 0.0785581 0.0270526 -1.07235
18 1.62202 0.000715256 -0.000471115 0.0074029 -0.0221109 -0.784236
19 1.22241 0 0 0.000237463 0.00593043 -0.707337
20 1.76707 1.27612 0.0366406 1.57458 0.205155 0.106808
21 1.55588 0 0 -0.0273743 0.0177045 -0.702263
22 1.24273 0 0 -0.000479175 0.000360548 -1.15419
23 0.784524 0 0 0.00636378 -0.00322819 -0.741041
24 -6.70653 7.12182 -4.00061 -0.000932693 0 -1.8749
25 6.02794 0 0 1.16848 0.492364 0.249985
26 11.7344 0 0 0.00140267 0 0.800354
27 8.81167 0 0 0.0682141 0 0
28 5.77884 0 0 0.0457036 0 0
29 2.23249 0 0 0.0225106 0 0
30 11.4725 0 0 0.135729 -0.429527 -0.174676
31 0.615812 0.994371 -0.809165 -2.83171 0.442997 0.480737
32 2.24752 0 0 -0.045362 0.233136 0.363247
33 1.11936 0 0 -0.000328091 0.159957 0.657165
34 3.71349 0.102638 0.102192 -1.54675 0.834836 -0.400578
35 1.72615 0 0 -0.0068987 -0.0073266 1.09674
36 1.21112 0 0 0.0103137 0.0102 1.33017
37 3.5992 1.06012 0.070888 -1.53662 0.394252 -0.182897
38 1.66069 0 0 0.0202863 0.075181 0.48674
39 1.16699 0 0 0.0438697 0.0101366 0.981335
40 2.18853 -0.501041 0.05766 -1.5728 0.133573 -0.17288
41 1.29609 0 0 0.120501 0.0520644 0.782583
42 1.62202 -0.000713348 -0.000469685 0.0811908 -0.0245018 1.19712
43 1.22241 0 0 -0.0119317 -0.0059471 1.29801
44 1.76707 -1.27612 0.0366406 -1.48212 0.284875 -0.100851
45 1.55588 0 0 0.223724 0.0868401 0.700865
46 1.24273 0 0 0.000478921 0.000360559 0.964696
47 0.784533 0 0 -0.0061863 0.000249579 0.884667
48 0 0 0 0 0 0
49 -5.90508 -23.3468 -6.03071 -0.0109621 0 0
50 0 -0.611115 2.11238 0 0 0
51 -0.0145802 -1.67948 2.80613 -0.126871 0.00396596 -0.00657002
52 -5.90508 -24.7049 -5.77053 -0.0109622 0 0
53 0 -0.515924 1.48105 0.253209 0 0
54 0 0.97938 2.2232 0 0 0
55 0 -2.93409 2.85382 0 0 0
56 0 2.062 1.89702 -0.349066 0 0
57 0 -1.66928 2.68516 -0.0179903 0 0
58 6.98255 2.1009 -16.1176 0 0 0
time 2
0 6.78963 4.11825 -5.6679 0.000934124 0 -1.53243
1 6.02795 0 0 -1.06302 0.46187 -0.383754
2 11.7344 0 0 -0.00140303 0 -0.905266
3 8.81138 -0.000448227 -0.00011158 -0.497474 0 0.000157804
4 5.77839 0.000286102 0 -0.333308 0 0.00010363
5 2.23163 -0.000329971 -0.00036335 -0.164166 0 0
6 11.4725 0 0 -0.756612 -0.474048 0.641679
7 0.615217 -0.993091 -0.8107 2.36302 0.0866628 -0.35738
8 2.24752 0 0 0.0605672 0.267265 -0.222263
9 1.11936 0 0 0.0749173 0.0546634 -0.249677
10 3.71348 -0.102641 0.102191 1.77126 0.869992 0.142171
11 1.72615 0 0 0.013477 -0.0073309 -0.811382
12 1.21114 0 0 0.00873809 0.015128 -0.772911
13 3.59919 -1.06012 0.070888 1.87281 0.766148 0.187134
14 1.66069 0 0 -0.0195999 0.0443892 -0.726687
15 1.167 0 0 0.00841045 -0.00839376 -0.438997
16 2.18853 0.501039 0.0576588 1.57366 -0.028125 0.156362
17 1.29609 0 0 0.0785581 0.0270526 -1.07235
18 1.62202 0.000711441 -0.000471115 0.00740292 -0.0221109 -0.784237
19 1.22241 0 0 0.000237482 0.00593043 -0.707337
20 1.76707 1.27612 0.036641 1.57458 0.205155 0.106808
21 1.55587 0 0 -0.0273743 0.0177045 -0.702262
22 1.24273 0 0 -0.000479241 0.000360541 -1.15419
23 0.784523 0 0 0.00636384 -0.0032282 -0.741041
24 -6.70653 7.12182 -4.00061 -0.000932693 0 -1.8749
25 6.02794 0 0 1.13789 0.584733 0.206855
26 11.7344 0 0 0.00140264 0 0.991356
27 8.81167 0 0 0.053276 0 0
28 5.77884 0 0 0.0356949 0 0
29 2.23249 0 0 0.0175811 0 0
30 11.4725 0 0 0.144144 -0.445707 -0.218791
31 0.61581 0.994371 -0.809165 -2.83171 0.442997 0.480737
32 2.24752 0 0 -0.045362 0.233136 0.363247
33 1.11936 0 0 -0.000328136 0.159957 0.657165
34 3.71348 0.102638 0.102191 -1.54675 0.834836 -0.400578
35 1.72615 0 0 -0.00689871 -0.00732661 1.09674
36 1.21112 0 0 0.0103137 0.0102 1.33017
37 3.5992 1.06012 0.0708886 -1.53662 0.394253 -0.182897
38 1.66069 0 0 0.0202863 0.0751809 0.48674
39 1.16699 0 0 0.0438697 0.0101366 0.981334
40 2.18853 -0.501041 0.0576591 -1.5728 0.133573 -0.17288
41 1.29609 0 0 0.120501 0.0520645 0.782583
42 1.62201 -0.000713348 -0.000470161 0.0811908 -0.0245018 1.19712
43 1.22241 0 0 -0.0119317 -0.00594711 1.29801
44 1.76707 -1.27612 0.0366412 -1.48212 0.284875 -0.100851
45 1.55587 0 0 0.223724 0.08684 0.700865
46 1.24273 0 0 0.000478921 0.000360577 0.964696
47 0.784532 0 0 -0.00618632 0.000249592 0.884667
48 0 0 0 0 0 0
49 -5.87743 -22.3297 -5.87702 -0.0602193 -0.0115467 0.0110335
50 0 -0.611115 2.11238 0 0 0
51 -0.0145807 -0.978231 2.70018 -0.217493 0.00679878 -0.0112629
52 -5.86638 -23.6733 -5.55031 -0.0602194 -0.0115465 0.0110341
53 0 -0.515924 1.48105 0.253209 0 0
54 0 0.97938 2.2232 0 0 0
55 0 -1.9316 2.85382 0 0 0
56 0 2.062 1.89702 -0.785398 0 0
57 0 -1.66928 2.6326 -0.0359804 0 0
58 6.98255 2.1009 -16.1176 0 0 0
time 3
0 6.78963 4.11825 -5.6679 0.000934124 0 -1.53243
1 6.02795 0 0 -1.03426 0.505549 -0.369369
2 11.7344 0 0 -0.00140294 0 -1.03939
3 8.81138 -0.000450134 -0.000112057 -0.511442 0 0.000158074
4 5.77839 0.000286102 0 -0.342666 0 0.000103825
5 2.23163 -0.000328064 -0.000363827 -0.168776 0 0
6 11.4725 0 0 -0.771461 -0.532338 0.633391
7 0.615221 -0.993091 -0.8107 2.36302 0.0866627 -0.357379
8 2.24752 0 0 0.0605674 0.267265 -0.222262
9 1.11936 0 0 0.0749173 0.0546634 -0.249677
10 3.71348 -0.10264 0.102191 1.77126 0.869992 0.142171
11 1.72615 0 0 0.013477 -0.00733088 -0.811382
12 1.21114 0 0 0.00873809 0.015128 -0.77291
13 3.59919 -1.06012 0.0708879 1.87281 0.766148 0.187134
14 1.66069 0 0 -0.0195999 0.0443892 -0.726687
15 1.167 0 0 0.00841046 -0.00839377 -0.438998
16 2.18853 0.50104 0.0576593 1.57366 -0.0281251 0.156362
17 1.29609 0 0 0.0785581 0.0270526 -1.07235
18 1.62202 0.000715256 -0.000471592 0.0074029 -0.0221109 -0.784236
19 1.22241 0 0 0.000237512 0.00593042 -0.707337
20 1.76707 1.27612 0.0366412 1.57458 0.205155 0.106808
21 1.55588 0 0 -0.0273743 0.0177045 -0.702262
22 1.24274 0 0 -0.000479216 0.000360557 -1.15419
23 0.784524 0 0 0.00636379 -0.00322819 -0.741041
24 -6.70653 7.12182 -4.00061 -0.000932693 0 -1.8749
25 6.02794 0 0 1.11695 0.650602 0.167722
26 11.7344 0 0 0.0014025 0 1.15892
27 8.81166 0 0 -0.032238 0 0
28 5.77884 0 0 -0.0215995 0 0
29 2.23249 0 0 -0.0106386 0 0
30 11.4725 0 0 0.0607396 -0.472088 -0.195578
31 0.615814 0.994371 -0.809165 -2.83171 0.442997 0.480737
32 2.24752 0 0 -0.0453622 0.233135 0.363247
33 1.11936 0 0 -0.000327918 0.159957 0.657165
34 3.71349 0.102638 0.102191 -1.54675 0.834836 -0.400578
35 1.72615 0 0 -0.00689871 -0.00732659 1.09674
36 1.21112 0 0 0.0103137 0.0102 1.33017
37 3.5992 1.06012 0.0708883 -1.53662 0.394253 -0.182897
38 1.66069 0 0 0.0202862 0.075181 0.48674
39 1.16699 0 0 0.0438697 0.0101366 0.981334
40 2.18853 -0.50104 0.0576591 -1.5728 0.133573 -0.17288
41 1.29609 0 0 0.120501 0.0520645 0.782583
42 1.62202 -0.000715256 -0.000469208 0.0811908 -0.0245018 1.19712
43 1.22241 0 0 -0.0119317 -0.00594712 1.29801
44 1.76707 -1.27612 0.0366408 -1.48212 0.284875 -0.100851
45 1.55588 0 0 0.223724 0.0868401 0.700864
46 1.24273 0 0 0.000478919 0.000360571 0.964696
47 0.784531 0 0 -0.00618631 0.000249586 0.884667
48 0 0 0 0 0 0
49 -5.92683 -21.2768 -5.24757 -0.159357 0.0415395 -0.00186014
50 0 -0.611113 2.11238 0 0 0
51 -0.0150847 -1.13472 2.69746 -0.271867 0.00849848 -0.0140786
52 -5.91023 -22.5816 -4.78984 -0.159357 0.0415397 -0.0018596
53 0 -0.515924 1.48105 0.253209 0 0
54 0 0.979378 2.2232 0 0 0
55 0 -1.9316 2.85382 0 0 0
56 0 2.062 1.89703 -0.785398 0 0
57 0 -1.66928 2.6326 -0.0359804 0 0
58 6.98255 2.1009 -16.1176 0 0 0
time 4
0 6.78963 4.11825 -5.6679 0.000934124 0 -1.53243
1 6.02795 0 0 -1.03044 0.509562 -0.368785
2 11.7344 0 0 -0.00140288 0 -1.05716
3 8.81138 -0.000450134 -0.000112057 -0.56869 0 0.000157899
4 5.77839 0.000286102 0 -0.381022 0 0.000103518
5 2.23163 -0.000328064 -0.000363827 -0.187668 0 0
6 11.4725 0 0 -0.771525 -0.561999 0.560327
7 0.615221 -0.993092 -0.8107 2.36302 0.0866628 -0.35738
8 2.24752 0 0 0.0605672 0.267265 -0.222262
9 1.11936 0 0 0.0749173 0.0546635 -0.249677
10 3.71348 -0.102641 0.102191 1.77126 0.869992 0.142171
11 1.72615 0 0 0.013477 -0.00733085 -0.811382
12 1.21114 0 0 0.00873812 0.015128 -0.772911
13 3.5992 -1.06012 0.0708882 1.87281 0.766148 0.187134
14 1.66069 0 0 -0.0195999 0.0443892 -0.726687
15 1.167 0 0 0.00841051 -0.00839375 -0.438997
16 2.18853 0.50104 0.0576587 1.57366 -0.028125 0.156362
17 1.29609 0 0 0.0785581 0.0270526 -1.07235
18 1.62202 0.000713348 -0.000471115 0.00740285 -0.0221109 -0.784237
19 1.22241 0 0 0.00023748 0.00593041 -0.707337
20 1.76707 1.27612 0.0366404 1.57458 0.205155 0.106808
21 1.55587 0 0 -0.0273742 0.0177045 -0.702263
22 1.24273 0 0 -0.000479219 0.00036052 -1.15419
23 0.784524 0 0 0.00636381 -0.00322816 -0.741041
24 -6.70653 7.12182 -4.00061 -0.000932693 0 -1.8749
25 6.02794 0 0 1.11316 0.661434 0.160866
26 11.7344 0 0 0.00140265 0 1.19278
27 8.81167 0 0 -0.0824032 0 0
28 5.77884 0 0 -0.0552102 0 0
29 2.23249 0 0 -0.027193 0 0
30 11.4725 0 0 -0.014905 -0.490947 -0.123416
31 0.615812 0.994373 -0.809165 -2.83171 0.442997 0.480737
32 2.24752 0 0 -0.0453621 0.233136 0.363247
33 1.11936 0 0 -0.000328129 0.159957 0.657165
34 3.71348 0.10264 0.102191 -1.54675 0.834836 -0.400578
35 1.72615 0 0 -0.00689871 -0.0073266 1.09674
36 1.21112 0 0 0.0103137 0.0102 1.33017
37 3.5992 1.06012 0.0708884 -1.53662 0.394252 -0.182897
38 1.66069 0 0 0.0202862 0.0751809 0.48674
39 1.16699 0 0 0.0438697 0.0101367 0.981334
40 2.18853 -0.50104 0.0576589 -1.5728 0.133573 -0.17288
41 1.29609 0 0 0.120501 0.0520644 0.782583
42 1.62202 -0.000713348 -0.000470161 0.0811908 -0.0245018 1.19712
43 1.22241 0 0 -0.0119317 -0.00594714 1.29801
44 1.76707 -1.27612 0.0366405 -1.48212 0.284875 -0.100851
45 1.55588 0 0 0.223724 0.08684 0.700865
46 1.24273 0 0 0.000478928 0.000360564 0.964696
47 0.784531 0 0 -0.00618631 0.000249594 0.884667
48 0 0 0 0 0 0
49 -5.91857 -20.9824 -4.90129 -0.236623 0.0876138 -0.0224982
50 0 -0.611113 2.11238 0 0 0
51 -0.0155888 -1.29121 2.69473 -0.289991 0.00906505 -0.0150172
52 -5.89827 -22.2487 -4.34596 -0.236623 0.087614 -0.0224977
53 0 -0.515923 1.48105 0.253209 0 0
54 0 0.979376 2.2232 0 0 0
55 0 -1.9316 2.85382 0 0 0
56 0 2.062 1.89702 -0.785398 0 0
57 0 -1.66928 2.6326 -0.0359803 0 0
58 6.98255 2.1009 -16.1176 0 0 0
time 5
0 6.78963 4.11825 -5.6679 0.000934124 0 -1.53243
1 6.02795 0 0 -1.04485 0.491742 -0.373187
2 11.7344 0 0 -0.00140284 0 -1.01392
3 8.81138 -0.000450134 -0.000111341 -0.522951 0 0.000157226
4 5.77839 0.000286102 0 -0.350377 0 0.000103179
5 2.23163 -0.000329971 -0.00036335 -0.172574 0 0
6 11.4725 0 0 -0.747291 -0.537236 0.579374
7 0.615219 -0.993091 -0.8107 2.36302 0.0866628 -0.357379
8 2.24752 0 0 0.0605672 0.267265 -0.222262
9 1.11936 0 0 0.0749172 0.0546635 -0.249677
10 3.71348 -0.102641 0.102191 1.77126 0.869992 0.142171
11 1.72615 0 0 0.013477 -0.0073309 -0.811382
12 1.21114 0 0 0.00873808 0.0151279 -0.772911
13 3.59919 -1.06012 0.070888 1.87281 0.766148 0.187134
14 1.66069 0 0 -0.0195999 0.0443892 -0.726687
15 1.167 0 0 0.00841048 -0.00839376 -0.438998
16 2.18852 0.50104 0.057659 1.57366 -0.0281251 0.156362
17 1.2961 0 0 0.0785581 0.0270526 -1.07235
18 1.62202 0.000713348 -0.000471115 0.00740291 -0.022111 -0.784236
19 1.22241 0 0 0.000237485 0.00593043 -0.707337
20 1.76707 1.27612 0.0366411 1.57458 0.205155 0.106808
21 1.55587 0 0 -0.0273743 0.0177045 -0.702263
22 1.24274 0 0 -0.000479222 0.000360553 -1.15419
23 0.784523 0 0 0.00636382 -0.00322821 -0.741041
24 -6.70653 7.12182 -4.00061 -0.000932693 0 -1.8749
25 6.02794 0 0 1.12332 0.634896 0.176842
26 11.7344 0 0 0.00140267 0 1.13245
27 8.81167 0 0 -0.0277916 0 0
28 5.77884 0 0 -0.0186203 0 0
29 2.23249 0 0 -0.0091711 0 0
30 11.4725 0 0 0.0449135 -0.483602 -0.14906
31 0.615814 0.994373 -0.809165 -2.83171 0.442997 0.480737
32 2.24752 0 0 -0.0453619 0.233136 0.363247
33 1.11936 0 0 -0.000328012 0.159957 0.657165
34 3.71349 0.10264 0.102191 -1.54675 0.834836 -0.400578
35 1.72615 0 0 -0.00689869 -0.0073266 1.09674
36 1.21112 0 0 0.0103137 0.0102 1.33017
37 3.5992 1.06012 0.0708886 -1.53662 0.394253 -0.182897
38 1.66069 0 0 0.015362 0.075874 0.42265
39 1.16699 0 0 0.043554 0.0131737 0.917497
40 2.18853 -0.501041 0.0576589 -1.5728 0.133573 -0.17288
41 1.29609 0 0 0.120501 0.0520644 0.782583
42 1.62202 -0.000713348 -0.000470161 0.0811908 -0.0245018 1.19712
43 1.22241 0 0 -0.0119317 -0.00594712 1.29801
44 1.76707 -1.27612 0.0366401 -1.48212 0.284875 -0.100851
45 1.55588 0 0 0.223724 0.0868401 0.700865
46 1.24273 0 0 0.000478927 0.000360567 0.964696
47 0.784531 0 0 -0.00618631 0.000249586 0.884667
48 0 0 0 0 0 0
49 -5.90123 -21.4115 -5.06726 -0.194189 0.0459988 -0.00765943
50 0 -0.611115 2.11238 0 0 0
51 -0.0160933 -1.44769 2.69201 -0.271867 0.00849848 -0.0140786
52 -5.88795 -22.6997 -4.56451 -0.194189 0.045999 -0.00765889
53 0 -0.580759 1.45452 0.15005 0 0
54 0 0.979378 2.2232 0 0 0
55 0 -1.9316 2.85382 0 0 0
56 0 2.062 1.89702 -0.785398 0 0
57 0 -1.66928 2.6326 -0.0359804 0 0
58 6.98255 2.1009 -16.1176 0 0 0
time 6
0 6.78963 4.11825 -5.6679 0.000934124 0 -1.53243
1 6.02795 0 0 -1.05879 0.472968 -0.37781
2 11.7344 0 0 -0.0014028 0 -0.970492
3 8.81139 -0.000450134 -0.000112295 -0.450934 0 0.000157892
4 5.77839 0.000286102 0 -0.302126 0 0.000103861
5 2.23164 -0.000329971 -0.00036335 -0.148808 0 0
6 11.4725 0 0 -0.718699 -0.502466 0.628759
7 0.615219 -0.993092 -0.8107 2.36302 0.0866629 -0.357379
8 2.24752 0 0 0.0605673 0.267265 -0.222262
9 1.11936 0 0 0.0749173 0.0546635 -0.249677
10 3.71348 -0.102642 0.102191 1.77126 0.869992 0.142171
11 1.72615 0 0 0.013477 -0.0073309 -0.811382
12 1.21114 0 0 0.0087381 0.015128 -0.772911
13 3.59919 -1.06012 0.0708883 1.87281 0.766148 0.187135
14 1.66069 0 0 -0.0195999 0.0443892 -0.726687
15 1.167 0 0 0.00841044 -0.00839377 -0.438997
16 2.18853 0.50104 0.0576591 1.57366 -0.028125 0.156362
17 1.29609 0 0 0.0785581 0.0270526 -1.07235
18 1.62202 0.000711441 -0.000470638 0.0074029 -0.022111 -0.784237
19 1.22241 0 0 0.000237501 0.00593038 -0.707337
20 1.76707 1.27612 0.036641 1.57458 0.205155 0.106808
21 1.55588 0 0 -0.0273742 0.0177045 -0.702262
22 1.24274 0 0 -0.000479212 0.000360524 -1.15419
23 0.784524 0 0 0.00636382 -0.00322816 -0.741041
24 -6.70653 7.12182 -4.00061 -0.000932693 0 -1.8749
25 6.02794 0 0 1.13308 0.607437 0.192582
26 11.7344 0 0 0.00140263 0 1.06894
27 8.81167 0 0 0.04196 0 0
28 5.77884 0 0 0.0281133 0 0
29 2.23249 0 0 0.0138467 0 0
30 11.4725 0 0 0.131669 -0.467697 -0.20587
31 0.615812 0.994373 -0.809165 -2.83171 0.442997 0.480737
32 2.24752 0 0 -0.0453619 0.233136 0.363247
33 1.11936 0 0 -0.000327955 0.159957 0.657165
34 3.71349 0.10264 0.102191 -1.54675 0.834836 -0.400578
35 1.72615 0 0 -0.0068987 -0.00732661 1.09674
36 1.21112 0 0 0.0103137 0.0102 1.33017
37 3.5992 1.06012 0.0708885 -1.53662 0.394253 -0.182897
38 1.66069 0 0 0.00621719 0.0771611 0.303627
39 1.16699 0 0 0.0429675 0.018814 0.798942
40 2.18853 -0.50104 0.0576598 -1.5728 0.133574 -0.17288
41 1.29609 0 0 0.120501 0.0520644 0.782583
42 1.62202 -0.000711441 -0.000469208 0.0811908 -0.0245018 1.19712
43 1.22241 0 0 -0.0119317 -0.0059471 1.29801
44 1.76707 -1.27612 0.0366408 -1.48212 0.284875 -0.100851
45 1.55588 0 0 0.223724 0.0868401 0.700865
46 1.24273 0 0 0.00047892 0.000360574 0.964696
47 0.784532 0 0 -0.00618631 0.00024959 0.884667
48 0 0 0 0 0 0
49 -5.89648 -21.8619 -5.33375 -0.125231 -0.015453 0.00791501
50 0 -0.611115 2.11238 0 0 0
51 -0.0155883 -1.88622 2.76537 -0.217493 0.00679878 -0.0112629
52 -5.89242 -23.1816 -4.92046 -0.125232 -0.0154529 0.00791556
53 0 -0.645594 1.42799 0.0468908 0 0
54 0 0.979376 2.2232 0 0 0
55 0 -2.59993 2.85382 0 0 0
56 0 2.062 1.89702 -0.785398 0 0
57 0 -1.66928 2.66764 -0.0239872 0 0
58 6.98255 2.1009 -16.1176 0 0 0
time 7
0 6.78963 4.11825 -5.6679 0.000934124 0 -1.53243
1 6.02795 0 0 -1.06537 0.462841 -0.380719
2 11.7344 0 0 -0.00140287 0 -0.946991
3 8.81139 -0.000450134 -0.000112057 -0.426548 0 0.000157872
4 5.77839 0.000286102 0 -0.285787 0 0.000103974
5 2.23164 -0.000329971 -0.00036335 -0.140761 0 0
6 11.4725 0 0 -0.703519 -0.488079 0.639014
7 0.615219 -0.993091 -0.8107 2.36302 0.0866627 -0.357379
8 2.24752 0 0 0.0605672 0.267265 -0.222262
9 1.11936 0 0 0.0749173 0.0546635 -0.249677
10 3.71348 -0.102641 0.102191 1.77126 0.869992 0.142171
11 1.72615 0 0 0.013477 -0.0073309 -0.811382
12 1.21114 0 0 0.00873812 0.0151279 -0.772911
13 3.59919 -1.06012 0.0708883 1.87281 0.766148 0.187134
14 1.66069 0 0 -0.0195999 0.0443892 -0.726687
15 1.167 0 0 0.00841046 -0.00839377 -0.438998
16 2.18852 0.50104 0.0576593 1.57366 -0.0281251 0.156362
17 1.29609 0 0 0.0785581 0.0270526 -1.07235
18 1.62202 0.000713348 -0.000471592 0.0074029 -0.0221109 -0.784236
19 1.22241 0 0 0.000237475 0.00593042 -0.707337
20 1.76707 1.27612 0.0366406 1.57458 0.205155 0.106808
21 1.55588 0 0 -0.0273743 0.0177045 -0.702262
22 1.24273 0 0 -0.000479216 0.000360557 -1.15419
23 0.784524 0 0 0.00636383 -0.0032282 -0.741041
24 -6.70653 7.12182 -4.00061 -0.000932693 0 -1.8749
25 6.02794 0 0 1.13737 0.594585 0.19971
26 11.7344 0 0 0.00140266 0 1.03919
27 8.81167 0 0 0.0698286 0 0
28 5.77884 0 0 0.0467851 0 0
29 2.23249 0 0 0.0230435 0 0
30 11.4725 0 0 0.16357 -0.463377 -0.222018
31 0.615812 0.994372 -0.809165 -2.83171 0.442997 0.480737
32 2.24752 0 0 -0.0453619 0.233136 0.363247
33 1.11935 0 0 -0.000328257 0.159957 0.657165
34 3.71349 0.102639 0.102191 -1.54675 0.834836 -0.400578
35 1.72615 0 0 -0.00689871 -0.00732661 1.09674
36 1.21112 0 0 0.0103137 0.0102 1.33017
37 3.5992 1.06012 0.0708884 -1.53662 0.394253 -0.182897
38 1.66069 0 0 0.00129289 0.0778541 0.239538
39 1.16699 0 0 0.0426518 0.021851 0.735105
40 2.18853 -0.50104 0.0576589 -1.5728 0.133573 -0.17288
41 1.29609 0 0 0.120501 0.0520645 0.782583
42 1.62201 -0.000713348 -0.000469685 0.0811908 -0.0245018 1.19712
43 1.22241 0 0 -0.0119317 -0.00594712 1.29801
44 1.76707 -1.27612 0.0366408 -1.48212 0.284875 -0.100851
45 1.55587 0 0 0.223724 0.08684 0.700865
46 1.24273 0 0 0.000478919 0.000360572 0.964696
47 0.784532 0 0 -0.00618631 0.000249586 0.884667
48 0 0 0 0 0 0
49 -5.90044 -22.0572 -5.43296 -0.101939 -0.0397432 0.0100456
50 0 -0.611115 2.11238 0 0 0
51 -0.0150843 -2.32476 2.83873 -0.126871 0.00396595 -0.00657002
52 -5.90229 -23.3862 -5.05077 -0.101939 -0.039743 0.0100462
53 0 -0.675062 1.41593 0 0 0
54 0 0.979378 2.2232 0 0 0
55 0 -3.26826 2.85382 0 0 0
56 0 2.062 1.89702 -0.785398 0 0
57 0 -1.66928 2.70268 -0.0119933 0 0
58 6.98255 2.1009 -16.1176 0 0 0
time 8
0 6.78963 4.11825 -5.6679 0.000934124 0 -1.53243
1 6.02795 0 0 -1.07062 0.453291 -0.384106
2 11.7344 0 0 -0.00140297 0 -0.919642
3 8.81139 -0.000450134 -0.000112534 -0.436469 0 0.000158129
4 5.77839 0.000285149 0 -0.292434 0 0.000104123
5 2.23163 -0.000329971 -0.00036335 -0.144035 0 0
6 11.4725 0 0 -0.696914 -0.482006 0.61848
7 0.615219 -0.993091 -0.8107 2.36302 0.0866629 -0.357379
8 2.24752 0 0 0.0605672 0.267265 -0.222262
9 1.11936 0 0 0.0749173 0.0546636 -0.249677
10 3.71348 -0.102641 0.102191 1.77126 0.869992 0.142171
11 1.72615 0 0 0.013477 -0.0073309 -0.811382
12 1.21114 0 0 0.00873811 0.0151279 -0.772911
13 3.59919 -1.06012 0.0708883 1.87281 0.766148 0.187134
14 1.66069 0 0 -0.0195999 0.0443892 -0.726687
15 1.167 0 0 0.00841046 -0.00839376 -0.438997
16 2.18852 0.50104 0.0576594 1.57366 -0.0281252 0.156362
17 1.29609 0 0 0.0785581 0.0270526 -1.07235
18 1.62202 0.000715256 -0.000470638 0.00740289 -0.022111 -0.784237
19 1.22241 0 0 0.000237464 0.00593042 -0.707337
20 1.76707 1.27612 0.0366411 1.57458 0.205155 0.106808
21 1.55588 0 0 -0.0273743 0.0177045 -0.702262
22 1.24274 0 0 -0.0004792 0.000360532 -1.15419
23 0.784523 0 0 0.00636383 -0.0032282 -0.741041
24 -6.70653 7.12182 -4.00061 -0.000932693 0 -1.8749
25 6.02794 0 0 1.14089 0.582696 0.20639
26 11.7344 0 0 0.00140276 0 1.00938
27 8.81167 0 0 0.0796398 0 0
28 5.77884 0 0 0.0533586 0 0
29 2.23249 0 0 0.0262812 0 0
30 11.4725 0 0 0.165988 -0.467068 -0.207309
31 0.615812 0.994372 -0.809165 -2.83171 0.442997 0.480737
32 2.24752 0 0 -0.0453619 0.233136 0.363247
33 1.11936 0 0 -0.00032805 0.159957 0.657165
34 3.71349 0.102639 0.10219 -1.54675 0.834836 -0.400578
35 1.72615 0 0 -0.00689869 -0.0073266 1.09674
36 1.21112 0 0 0.0103137 0.0102 1.33017
37 3.5992 1.06012 0.0708885 -1.53662 0.394253 -0.182897
38 1.66069 0 0 0.00129289 0.0778541 0.239538
39 1.16699 0 0 0.0426518 0.021851 0.735105
40 2.18853 -0.501041 0.0576589 -1.5728 0.133573 -0.17288
41 1.29609 0 0 0.120501 0.0520644 0.782583
42 1.62202 -0.000713348 -0.000469685 0.0811908 -0.0245018 1.19712
43 1.22241 0 0 -0.0119317 -0.00594712 1.29801
44 1.76707 -1.27612 0.0366401 -1.48212 0.284875 -0.100851
45 1.55587 0 0 0.223724 0.0868401 0.700865
46 1.24273 0 0 0.000478917 0.00036057 0.964696
47 0.784532 0 0 -0.0061863 0.000249602 0.884667
48 0 0 0 0 0 0
49 -5.90551 -22.2217 -5.4828 -0.101799 -0.0424143 0.00681725
50 0 -0.611118 2.11238 0 0 0
51 -0.0145802 -2.76329 2.91209 0 0 0
52 -5.91266 -23.5507 -5.10083 -0.101799 -0.0424142 0.0068178
53 0 -0.675066 1.41593 0 0 0
54 0 0.979374 2.2232 0 0 0
55 0 -3.93659 2.85382 0 0 0
56 0 2.062 1.89702 -0.785398 0 0
57 0 -1.66928 2.73772 0 0 0
58 6.98255 2.1009 -16.1176 0 0 0
time 9
0 6.78963 4.11825 -5.6679 0.000934124 0 -1.53243
1 6.02795 0 0 -1.07481 0.444279 -0.387811
2 11.7344 0 0 -0.00140284 0 -0.890147
3 8.81139 -0.000450134 -0.000112057 -0.464963 0 0.000157907
4 5.77839 0.000286102 0 -0.311525 0 0.000103761
5 2.23163 -0.000329971 -0.000363827 -0.153438 0 0
6 11.4725 0 0 -0.696686 -0.480584 0.582084
7 0.615219 -0.993091 -0.8107 2.36302 0.0866629 -0.357379
8 2.24752 0 0 0.0605673 0.267265 -0.222262
9 1.11936 0 0 0.0749174 0.0546635 -0.249677
10 3.71348 -0.102641 0.102191 1.77126 0.869992 0.142171
11 1.72615 0 0 0.013477 -0.00733089 -0.811382
12 1.21114 0 0 0.00873808 0.015128 -0.772911
13 3.59919 -1.06012 0.0708883 1.87281 0.766148 0.187135
14 1.66069 0 0 -0.0195999 0.0443892 -0.726687
15 1.167 0 0 0.00841045 -0.00839377 -0.438997
16 2.18853 0.50104 0.0576594 1.57366 -0.0281249 0.156362
17 1.2961 0 0 0.0785581 0.0270526 -1.07235
18 1.62202 0.000713348 -0.000471592 0.0074029 -0.0221109 -0.784236
19 1.22241 0 0 0.000237482 0.00593043 -0.707337
20 1.76707 1.27612 0.036641 1.57458 0.205155 0.106808
21 1.55588 0 0 -0.0273743 0.0177045 -0.702262
22 1.24274 0 0 -0.000479233 0.000360528 -1.15419
23 0.784524 0 0 0.00636383 -0.00322818 -0.741041
24 -6.70653 7.12182 -4.00061 -0.000932693 0 -1.8749
25 6.02794 0 0 1.14375 0.571905 0.212511
26 11.7344 0 0 0.00140275 0 0.980333
27 8.81167 0 0 0.0789955 0 0
28 5.77884 0 0 0.0529269 0 0
29 2.23249 0 0 0.0260684 0 0
30 11.4725 0 0 0.151773 -0.474546 -0.176342
31 0.615812 0.994371 -0.809166 -2.83171 0.442997 0.480737
32 2.24752 0 0 -0.045362 0.233136 0.363247
33 1.11935 0 0 -0.000328042 0.159957 0.657165
34 3.71348 0.102639 0.102192 -1.54675 0.834836 -0.400578
35 1.72615 0 0 -0.0068987 -0.00732661 1.09674
36 1.21112 0 0 0.0103137 0.0102 1.33017
37 3.5992 1.06012 0.0708879 -1.53662 0.394252 -0.182897
38 1.66069 0 0 0.00129289 0.0778541 0.239538
39 1.16699 0 0 0.0426519 0.021851 0.735105
40 2.18853 -0.501041 0.057659 -1.5728 0.133573 -0.17288
41 1.29609 0 0 0.120501 0.0520644 0.782584
42 1.62202 -0.000713348 -0.000469685 0.0811908 -0.0245018 1.19712
43 1.22241 0 0 -0.0119317 -0.0059471 1.29801
44 1.76707 -1.27612 0.0366409 -1.48212 0.284875 -0.100851
45 1.55587 0 0 0.223724 0.0868401 0.700864
46 1.24273 0 0 0.000478927 0.000360566 0.964696
47 0.784532 0 0 -0.00618631 0.000249589 0.884667
48 0 0 0 0 0 0
49 -5.91083 -22.367 -5.51327 -0.113528 -0.0326269 0.00118364
50 0 -0.611116 2.11238 0 0 0
51 -0.0145798 -2.7459 2.91209 0 0 0
52 -5.92225 -23.6914 -5.11561 -0.113528 -0.0326267 0.00118419
53 0 -0.675066 1.41593 0 0 0
54 0 0.979376 2.2232 0 0 0
55 0 -3.93659 2.85382 0 0 0
56 0 2.062 1.89702 -0.785398 0 0
57 0 -1.66928 2.73772 0 0 0
58 6.98255 2.1009 -16.1176 0 0 0
time 10
0 6.78963 4.11825 -5.6679 0.000934124 0 -1.53243
1 6.02795 0 0 -1.07827 0.435692 -0.391699
2 11.7344 0 0 -0.0014029 0 -0.860072
3 8.81139 -0.000450134 -0.000112057 -0.497197 0 0.000158087
4 5.77839 0.000286102 0 -0.333122 0 0.000103862
5 2.23163 -0.000329971 -0.000364304 -0.164075 0 0
6 11.4725 0 0 -0.69994 -0.480331 0.544376
7 0.615219 -0.993091 -0.8107 2.36302 0.0866627 -0.357379
8 2.24752 0 0 0.0605674 0.267265 -0.222262
9 1.11935 0 0 0.0749173 0.0546634 -0.249677
10 3.71348 -0.102641 0.102191 1.77126 0.869992 0.142171
11 1.72615 0 0 0.013477 -0.0073309 -0.811382
12 1.21114 0 0 0.0087381 0.0151279 -0.772911
13 3.59919 -1.06012 0.0708879 1.87281 0.766148 0.187134
14 1.66069 0 0 -0.0195999 0.0443892 -0.726687
15 1.167 0 0 0.00841045 -0.00839376 -0.438997
16 2.18852 0.50104 0.0576595 1.57366 -0.0281252 0.156362
17 1.29609 0 0 0.0785581 0.0270527 -1.07235
18 1.62202 0.000713348 -0.000471115 0.0074029 -0.022111 -0.784237
19 1.22241 0 0 0.000237498 0.00593045 -0.707337
20 1.76707 1.27612 0.0366412 1.57458 0.205155 0.106808
21 1.55588 0 0 -0.0273743 0.0177045 -0.702262
22 1.24273 0 0 -0.000479225 0.000360516 -1.15419
23 0.784525 0 0 0.00636383 -0.00322819 -0.741041
24 -6.70653 7.12182 -4.00061 -0.000932693 0 -1.8749
25 6.02794 0 0 1.14619 0.561938 0.218173
26 11.7344 0 0 0.00140265 0 0.951958
27 8.81167 0 0 0.0756852 0 0
28 5.77884 0 0 0.050709 0 0
29 2.23249 0 0 0.0249761 0 0
30 11.4725 0 0 0.133859 -0.481378 -0.143187
31 0.615812 0.994373 -0.809165 -2.83171 0.442997 0.480737
32 2.24752 0 0 -0.0453619 0.233136 0.363247
33 1.11936 0 0 -0.000328136 0.159957 0.657165
34 3.71349 0.102639 0.102191 -1.54675 0.834836 -0.400578
35 1.72615 0 0 -0.00689869 -0.0073266 1.09674
36 1.21112 0 0 0.0103137 0.0102 1.33017
37 3.5992 1.06012 0.0708882 -1.53662 0.394253 -0.182897
38 1.66069 0 0 0.0012929 0.0778541 0.239537
39 1.16699 0 0 0.0426518 0.0218511 0.735105
40 2.18853 -0.50104 0.0576589 -1.5728 0.133574 -0.17288
41 1.29609 0 0 0.120501 0.0520645 0.782583
42 1.62202 -0.000713348 -0.000470161 0.0811908 -0.0245018 1.19712
43 1.22241 0 0 -0.0119317 -0.00594711 1.29801
44 1.76707 -1.27612 0.0366404 -1.48212 0.284875 -0.100851
45 1.55588 0 0 0.223724 0.0868401 0.700864
46 1.24273 0 0 0.000478921 0.000360575 0.964696
47 0.784532 0 0 -0.00618631 0.000249583 0.884667
48 0 0 0 0 0 0
49 -5.91574 -22.504 -5.5546 -0.125979 -0.0197481 -0.00455357
50 0 -0.611115 2.11238 0 0 0
51 -0.0145798 -2.72851 2.91209 0 0 0
52 -5.92993 -23.8232 -5.14035 -0.125979 -0.019748 -0.00455302
53 0 -0.675064 1.41593 0 0 0
54 0 0.979378 2.2232 0 0 0
55 0 -3.93659 2.85382 0 0 0
56 0 2.062 1.89702 -0.785398 0 0
57 0 -1.66928 2.73772 0 0 0
58 6.98255 2.1009 -16.1176 0 0 0
time 11
0 6.78963 4.11825 -5.6679 0.000934124 0 -1.53243
1 6.02795 0 0 -1.08118 0.427758 -0.395432
2 11.7344 0 0 -0.00140295 0 -0.83165
3 8.81138 -0.000450134 -0.000111818 -0.519615 0 0.000157589
4 5.77839 0.000286102 0 -0.348142 0 0.000103372
5 2.23164 -0.000329018 -0.000364304 -0.171473 0 0
6 11.4725 0 0 -0.703798 -0.477963 0.520272
7 0.615217 -0.993091 -0.8107 2.36302 0.0866628 -0.357379
8 2.24752 0 0 0.0605673 0.267265 -0.222262
9 1.11935 0 0 0.0749173 0.0546635 -0.249677
10 3.71348 -0.10264 0.102191 1.77126 0.869992 0.142172
11 1.72615 0 0 0.013477 -0.00733089 -0.811382
12 1.21114 0 0 0.0087381 0.015128 -0.772911
13 3.59919 -1.06012 0.070888 1.87281 0.766148 0.187134
14 1.66069 0 0 -0.0195999 0.0443892 -0.726687
15 1.167 0 0 0.00841046 -0.00839376 -0.438997
16 2.18852 0.50104 0.0576589 1.57366 -0.028125 0.156362
17 1.29609 0 0 0.0785581 0.0270526 -1.07235
18 1.62202 0.000715256 -0.000471115 0.00740289 -0.0221109 -0.784237
19 1.22241 0 0 0.000237463 0.00593043 -0.707337
20 1.76707 1.27612 0.0366406 1.57458 0.205155 0.106808
21 1.55588 0 0 -0.0273743 0.0177045 -0.702262
22 1.24273 0 0 -0.000479241 0.000360541 -1.15419
23 0.784523 0 0 0.0063638 -0.0032282 -0.741041
24 -6.70653 7.12182 -4.00061 -0.000932693 0 -1.8749
25 6.02794 0 0 1.14859 0.551983 0.223741
26 11.7344 0 0 0.00140279 0 0.922946
27 8.81167 0 0 0.0777761 0 0
28 5.77884 0 0 0.05211 0 0
29 2.23249 0 0 0.0256661 0 0
30 11.4725 0 0 0.125673 -0.48351 -0.121623
31 0.615812 0.994373 -0.809165 -2.83171 0.442997 0.480737
32 2.24752 0 0 -0.0453619 0.233136 0.363247
33 1.11935 0 0 -0.00032814 0.159957 0.657165
34 3.71349 0.10264 0.102192 -1.54675 0.834836 -0.400578
35 1.72615 0 0 -0.00689871 -0.00732661 1.09674
36 1.21112 0 0 0.0103137 0.0102 1.33017
37 3.5992 1.06012 0.070889 -1.53662 0.394253 -0.182897
38 1.66069 0 0 0.00129288 0.0778541 0.239537
39 1.16699 0 0 0.0426518 0.021851 0.735105
40 2.18853 -0.50104 0.0576599 -1.5728 0.133573 -0.17288
41 1.29609 0 0 0.120501 0.0520645 0.782583
42 1.62202 -0.000715256 -0.000469685 0.0811908 -0.0245018 1.19712
43 1.22241 0 0 -0.0119317 -0.00594711 1.29801
44 1.76707 -1.27612 0.0366412 -1.48212 0.284875 -0.100851
45 1.55588 0 0 0.223724 0.0868401 0.700865
46 1.24273 0 0 0.000478922 0.000360571 0.964696
47 0.784531 0 0 -0.00618631 0.000249584 0.884667
48 0 0 0 0 0 0
49 -5.92017 -22.6445 -5.63654 -0.127929 -0.0129908 -0.00750995
50 0 -0.611113 2.11238 0 0 0
51 -0.0145793 -2.71112 2.91209 0 0 0
52 -5.93549 -23.9629 -5.21967 -0.127929 -0.0129906 -0.0075094
53 0 -0.675064 1.41593 0 0 0
54 0 0.979378 2.2232 0 0 0
55 0 -3.93659 2.85382 0 0 0
56 0 2.062 1.89702 -0.785398 0 0
57 0 -1.66928 2.73772 0 0 0
58 6.98255 2.1009 -16.1176 0 0 0
time 12
0 6.78963 4.11825 -5.6679 0.000934124 0 -1.53243
1 6.02795 0 0 -1.08356 0.420795 -0.398799
2 11.7344 0 0 -0.00140287 0 -0.80589
3 8.81139 -0.000450134 -0.000113249 -0.532907 0 0.00015791
4 5.77839 0.000286102 0 -0.357047 0 0.000103658
5 2.23164 -0.000329018 -0.000364304 -0.175859 0 0
6 11.4725 0 0 -0.709703 -0.473192 0.512829
7 0.615219 -0.993091 -0.8107 2.36302 0.0866629 -0.357379
8 2.24752 0 0 0.0605673 0.267265 -0.222262
9 1.11936 0 0 0.0749174 0.0546635 -0.249677
10 3.71348 -0.10264 0.102191 1.77126 0.869992 0.142172
11 1.72615 0 0 0.013477 -0.00733091 -0.811382
12 1.21114 0 0 0.0087381 0.0151279 -0.772911
13 3.59919 -1.06012 0.0708883 1.87281 0.766148 0.187135
14 1.66069 0 0 -0.0195999 0.0443892 -0.726687
15 1.167 0 0 0.00841045 -0.00839376 -0.438997
16 2.18853 0.50104 0.057659 1.57366 -0.0281249 0.156362
17 1.29609 0 0 0.0785582 0.0270526 -1.07235
18 1.62202 0.000715256 -0.000471592 0.0074029 -0.022111 -0.784236
19 1.22241 0 0 0.000237478 0.00593042 -0.707337
20 1.76707 1.27612 0.0366406 1.57458 0.205155 0.106808
21 1.55588 0 0 -0.0273743 0.0177045 -0.702263
22 1.24273 0 0 -0.000479192 0.00036052 -1.15419
23 0.784524 0 0 0.00636383 -0.0032282 -0.741041
24 -6.70653 7.12182 -4.00061 -0.000932693 0 -1.8749
25 6.02794 0 0 1.15092 0.542384 0.228993
26 11.7344 0 0 0.00140264 0 0.894703
27 8.81167 0 0 0.08401 0 0
28 5.77884 0 0 0.0562866 0 0
29 2.23249 0 0 0.0277233 0 0
30 11.4725 0 0 0.127633 -0.479574 -0.114632
31 0.615814 0.994372 -0.809165 -2.83171 0.442997 0.480737
32 2.24752 0 0 -0.0453618 0.233136 0.363247
33 1.11936 0 0 -0.000328106 0.159957 0.657165
34 3.71349 0.102639 0.102191 -1.54675 0.834836 -0.400578
35 1.72615 0 0 -0.00689871 -0.00732661 1.09674
36 1.21112 0 0 0.0103137 0.0102 1.33017
37 3.5992 1.06012 0.070888 -1.53662 0.394253 -0.182897
38 1.66069 0 0 0.00129288 0.0778541 0.239537
39 1.16699 0 0 0.0426518 0.021851 0.735105
40 2.18853 -0.501041 0.0576593 -1.5728 0.133573 -0.17288
41 1.29609 0 0 0.120501 0.0520645 0.782583
42 1.62202 -0.000715256 -0.000469685 0.0811908 -0.0245018 1.19712
43 1.22241 0 0 -0.0119317 -0.00594712 1.29801
44 1.76707 -1.27612 0.0366408 -1.48212 0.284875 -0.100851
45 1.55587 0 0 0.223724 0.0868401 0.700865
46 1.24273 0 0 0.00047892 0.000360567 0.964696
47 0.784532 0 0 -0.00618631 0.000249587 0.884667
48 0 0 0 0 0 0
49 -5.92046 -22.79 -5.76039 -0.11723 -0.0119615 -0.00677832
50 0 -0.611115 2.11238 0 0 0
51 -0.0145798 -2.69373 2.91209 0 0 0
52 -5.93425 -24.1129 -5.35764 -0.11723 -0.0119613 -0.00677777
53 0 -0.675064 1.41593 0 0 0
54 0 0.97938 2.2232 0 0 0
55 0 -3.93659 2.85382 0 0 0
56 0 2.062 1.89702 -0.785398 0 0
57 0 -1.66928 2.73772 0 0 0
58 6.98255 2.1009 -16.1176 0 0 0
time 13
0 6.78963 4.11825 -5.6679 0.000934124 0 -1.53243
1 6.02795 0 0 -1.08541 0.414827 -0.401805
2 11.7344 0 0 -0.00140288 0 -0.782603
3 8.81138 -0.000450134 -0.000112057 -0.545719 0 0.000157627
4 5.77839 0.000286102 0 -0.365632 0 0.000103305
5 2.23163 -0.000330925 -0.000362873 -0.180087 0 0
6 11.4725 0 0 -0.719641 -0.467952 0.513483
7 0.615219 -0.993091 -0.810701 2.36302 0.0866628 -0.357379
8 2.24752 0 0 0.0605672 0.267265 -0.222262
9 1.11936 0 0 0.0749173 0.0546635 -0.249677
10 3.71348 -0.10264 0.102191 1.77126 0.869992 0.142171
11 1.72615 0 0 0.013477 -0.00733091 -0.811382
12 1.21114 0 0 0.00873808 0.015128 -0.772911
13 3.59919 -1.06012 0.070888 1.87281 0.766148 0.187134
14 1.66068 0 0 -0.0195999 0.0443892 -0.726687
15 1.167 0 0 0.00841045 -0.00839377 -0.438997
16 2.18852 0.50104 0.0576589 1.57366 -0.0281251 0.156362
17 1.29609 0 0 0.0785582 0.0270526 -1.07235
18 1.62202 0.000713348 -0.000471592 0.00740291 -0.022111 -0.784236
19 1.22241 0 0 0.000237474 0.00593039 -0.707337
20 1.76707 1.27612 0.0366406 1.57458 0.205155 0.106808
21 1.55588 0 0 -0.0273743 0.0177045 -0.702262
22 1.24273 0 0 -0.000479258 0.000360512 -1.15419
23 0.784522 0 0 0.00636383 -0.0032282 -0.741041
24 -6.70653 7.12182 -4.00061 -0.000932693 0 -1.8749
25 6.02794 0 0 1.15317 0.533152 0.233931
26 11.7344 0 0 0.00140272 0 0.867906
27 8.81167 0 0 0.0884557 0 0
28 5.77884 0 0 0.0592653 0 0
29 2.23249 0 0 0.0291904 0 0
30 11.4725 0 0 0.130651 -0.471785 -0.113669
31 0.615814 0.994373 -0.809166 -2.83171 0.442997 0.480737
32 2.24752 0 0 -0.0453619 0.233136 0.363247
33 1.11935 0 0 -0.00032788 0.159957 0.657165
34 3.71349 0.10264 0.102191 -1.54675 0.834836 -0.400578
35 1.72615 0 0 -0.00689871 -0.00732659 1.09674
36 1.21112 0 0 0.0103137 0.0102 1.33017
37 3.5992 1.06012 0.0708886 -1.53662 0.394253 -0.182897
38 1.66069 0 0 0.00129288 0.0778541 0.239538
39 1.16699 0 0 0.0426518 0.0218511 0.735105
40 2.18853 -0.50104 0.0576593 -1.5728 0.133573 -0.17288
41 1.29609 0 0 0.120501 0.0520644 0.782584
42 1.62202 -0.000713348 -0.000470161 0.0811908 -0.0245018 1.19712
43 1.22241 0 0 -0.0119317 -0.0059471 1.29801
44 1.76707 -1.27612 0.0366409 -1.48212 0.284875 -0.100851
45 1.55587 0 0 0.223724 0.0868401 0.700865
46 1.24273 0 0 0.000478923 0.000360565 0.964696
47 0.784532 0 0 -0.00618631 0.0002496 0.884667
48 0 0 0 0 0 0
49 -5.91433 -22.9308 -5.89779 -0.100952 -0.0104048 -0.00408631
50 0 -0.611115 2.11238 0 0 0
51 -0.0145802 -2.67634 2.91209 0 0 0
52 -5.92372 -24.2601 -5.51663 -0.100952 -0.0104047 -0.00408576
53 0 -0.675062 1.41593 0 0 0
54 0 0.979378 2.2232 0 0 0
55 0 -3.93659 2.85382 0 0 0
56 0 2.062 1.89702 -0.785398 0 0
57 0 -1.66928 2.73772 0 0 0
58 6.98255 2.1009 -16.1176 0 0 0
time 14
0 6.78963 4.11825 -5.6679 0.000934124 0 -1.53243
1 6.02795 0 0 -1.08708 0.409076 -0.404756
2 11.7344 0 0 -0.0014029 0 -0.760848
3 8.81138 -0.000450134 -0.000111341 -0.557844 0 0.000157943
4 5.77839 0.000286102 0 -0.373756 0 0.000103473
5 2.23163 -0.000328064 -0.000364304 -0.184089 0 0
6 11.4725 0 0 -0.731635 -0.462367 0.519061
7 0.615219 -0.993091 -0.8107 2.36302 0.0866628 -0.357379
8 2.24752 0 0 0.0605672 0.267265 -0.222262
9 1.11936 0 0 0.0749173 0.0546635 -0.249677
10 3.71348 -0.102641 0.102191 1.77126 0.869992 0.142171
11 1.72615 0 0 0.013477 -0.00733091 -0.811382
12 1.21114 0 0 0.00873809 0.015128 -0.772911
13 3.59919 -1.06012 0.070888 1.87281 0.766148 0.187135
14 1.66069 0 0 -0.0195999 0.0443892 -0.726687
15 1.167 0 0 0.00841045 -0.00839377 -0.438997
16 2.18853 0.50104 0.0576591 1.57366 -0.028125 0.156362
17 1.29609 0 0 0.0785581 0.0270526 -1.07235
18 1.62202 0.000713348 -0.000471115 0.00740289 -0.0221109 -0.784236
19 1.22241 0 0 0.000237478 0.00593042 -0.707337
20 1.76707 1.27612 0.0366411 1.57458 0.205155 0.106808
21 1.55588 0 0 -0.0273743 0.0177045 -0.702262
22 1.24273 0 0 -0.0004792 0.000360532 -1.15419
23 0.784523 0 0 0.0063638 -0.00322815 -0.741041
24 -6.70653 7.12182 -4.00061 -0.000932693 0 -1.8749
25 6.02794 0 0 1.15552 0.523789 0.238779
26 11.7344 0 0 0.0014027 0 0.842005
27 8.81167 0 0 0.0916465 0 0
28 5.77884 0 0 0.0614032 0 0
29 2.23249 0 0 0.0302434 0 0
30 11.4725 0 0 0.134068 -0.4616 -0.11629
31 0.615814 0.994371 -0.809166 -2.83171 0.442997 0.480737
32 2.24752 0 0 -0.045362 0.233136 0.363247
33 1.11936 0 0 -0.000328106 0.159957 0.657165
34 3.71349 0.102639 0.102191 -1.54675 0.834836 -0.400578
35 1.72615 0 0 -0.00689873 -0.00732661 1.09674
36 1.21112 0 0 0.0103137 0.0102 1.33017
37 3.5992 1.06012 0.0708884 -1.53662 0.394253 -0.182897
38 1.66069 0 0 0.0012929 0.0778541 0.239537
39 1.16699 0 0 0.0426518 0.021851 0.735105
40 2.18853 -0.501041 0.0576593 -1.5728 0.133573 -0.17288
41 1.29609 0 0 0.120501 0.0520645 0.782583
42 1.62202 -0.000715256 -0.000469685 0.0811908 -0.0245018 1.19712
43 1.22241 0 0 -0.0119317 -0.00594712 1.29801
44 1.76707 -1.27612 0.0366408 -1.48212 0.284875 -0.100851
45 1.55588 0 0 0.223724 0.0868401 0.700865
46 1.24273 0 0 0.000478918 0.000360576 0.964696
47 0.784531 0 0 -0.00618631 0.000249589 0.884667
48 0 0 0 0 0 0
49 -5.90382 -23.0623 -6.03395 -0.0816116 -0.00863073 -0.000153323
50 0 -0.611116 2.11238 0 0 0
51 -0.0145798 -2.65895 2.91209 0 0 0
52 -5.90709 -24.3987 -5.67855 -0.0816117 -0.0086306 -0.000152767
53 0 -0.675066 1.41593 0 0 0
54 0 0.979376 2.2232 0 0 0
55 0 -3.93659 2.85382 0 0 0
56 0 2.062 1.89702 -0.785398 0 0
57 0 -1.66928 2.73772 0 0 0
58 6.98255 2.1009 -16.1176 0 0 0
time 15
0 6.78963 4.11825 -5.6679 0.000934124 0 -1.53243
1 6.02795 0 0 -1.08869 0.403782 -0.407351
2 11.7344 0 0 -0.0014028 0 -0.742023
3 8.81138 -0.000450134 -0.00011158 -0.568079 0 0.000158215
4 5.77839 0.000286102 0 -0.380613 0 0.000103504
5 2.23163 -0.000329018 -0.000363827 -0.187466 0 0
6 11.4725 0 0 -0.743649 -0.456593 0.527586
7 0.615219 -0.993091 -0.8107 2.36302 0.0866628 -0.357379
8 2.24752 0 0 0.0605674 0.267265 -0.222262
9 1.11936 0 0 0.0749173 0.0546635 -0.249677
10 3.71348 -0.102641 0.102191 1.77126 0.869992 0.142171
11 1.72615 0 0 0.013477 -0.0073309 -0.811382
12 1.21114 0 0 0.00873811 0.015128 -0.772911
13 3.59919 -1.06012 0.0708883 1.87281 0.766148 0.187135
14 1.66069 0 0 -0.0195999 0.0443892 -0.726687
15 1.167 0 0 0.00841046 -0.00839376 -0.438998
16 2.18852 0.50104 0.0576595 1.57366 -0.028125 0.156362
17 1.29609 0 0 0.0785582 0.0270526 -1.07235
18 1.62202 0.000715256 -0.000471115 0.00740289 -0.0221109 -0.784236
19 1.22241 0 0 0.000237484 0.00593044 -0.707337
20 1.76707 1.27612 0.036641 1.57458 0.205155 0.106808
21 1.55588 0 0 -0.0273743 0.0177045 -0.702263
22 1.24274 0 0 -0.000479212 0.000360524 -1.15419
23 0.784522 0 0 0.00636381 -0.00322818 -0.741041
24 -6.70653 7.12182 -4.00061 -0.000932693 0 -1.8749
25 6.02794 0 0 1.15786 0.514873 0.243209
26 11.7344 0 0 0.00140268 0 0.818821
27 8.81167 0 0 0.0936248 0 0
28 5.77884 0 0 0.0627285 0 0
29 2.23249 0 0 0.030896 0 0
30 11.4725 0 0 0.137395 -0.450593 -0.12135
31 0.615814 0.994371 -0.809165 -2.83171 0.442997 0.480737
32 2.24752 0 0 -0.045362 0.233136 0.363247
33 1.11936 0 0 -0.00032805 0.159957 0.657165
34 3.71348 0.102638 0.102191 -1.54675 0.834836 -0.400578
35 1.72615 0 0 -0.00689868 -0.00732658 1.09674
36 1.21112 0 0 0.0103137 0.0102 1.33017
37 3.5992 1.06012 0.0708889 -1.53662 0.394252 -0.182897
38 1.66069 0 0 0.00129288 0.0778541 0.239538
39 1.16699 0 0 0.0426518 0.021851 0.735105
40 2.18853 -0.501041 0.0576596 -1.5728 0.133573 -0.17288
41 1.29609 0 0 0.120501 0.0520644 0.782584
42 1.62201 -0.000711441 -0.000469685 0.0811908 -0.0245018 1.19712
43 1.22241 0 0 -0.0119317 -0.00594713 1.29801
44 1.76707 -1.27612 0.0366405 -1.48212 0.284875 -0.100851
45 1.55588 0 0 0.223724 0.08684 0.700865
46 1.24273 0 0 0.000478919 0.000360567 0.964696
47 0.784532 0 0 -0.00618631 0.000249588 0.884667
48 0 0 0 0 0 0
49 -5.89134 -23.1806 -6.1538 -0.0617334 -0.00700972 0.0042157
50 0 -0.611115 2.11238 0 0 0
51 -0.0145798 -2.64157 2.91209 0 0 0
52 -5.88798 -24.5238 -5.82504 -0.0617335 -0.0070096 0.00421626
53 0 -0.675062 1.41593 0 0 0
54 0 0.97938 2.2232 0 0 0
55 0 -3.93658 2.85382 0 0 0
56 0 2.062 1.89702 -0.785398 0 0
57 0 -1.66928 2.73772 0 0 0
58 6.98255 2.1009 -16.1176 0 0 0
time 16
0 6.78963 4.11825 -5.6679 0.000934124 0 -1.53243
1 6.02795 0 0 -1.09053 0.398448 -0.409697
2 11.7344 0 0 -0.00140284 0 -0.725857
3 8.81138 -0.000450134 -0.00011301 -0.575595 0 0.000158359
4 5.77839 0.000286102 0 -0.385649 0 0.000103662
5 2.23164 -0.000329018 -0.000364304 -0.189946 0 0
6 11.4725 0 0 -0.753555 -0.450843 0.536245
7 0.615219 -0.993091 -0.8107 2.36302 0.0866629 -0.357379
8 2.24752 0 0 0.0605673 0.267265 -0.222262
9 1.11936 0 0 0.0749172 0.0546634 -0.249677
10 3.71348 -0.102641 0.102191 1.77126 0.869992 0.142171
11 1.72615 0 0 0.013477 -0.00733086 -0.811382
12 1.21114 0 0 0.00873811 0.0151279 -0.772911
13 3.59919 -1.06012 0.0708878 1.87281 0.766148 0.187135
14 1.66069 0 0 -0.0195999 0.0443892 -0.726687
15 1.167 0 0 0.00841045 -0.00839376 -0.438998
16 2.18853 0.50104 0.0576589 1.57366 -0.0281249 0.156362
17 1.29609 0 0 0.0785581 0.0270526 -1.07235
18 1.62202 0.000713348 -0.000471115 0.00740293 -0.0221109 -0.784237
19 1.22241 0 0 0.000237473 0.00593041 -0.707337
20 1.76707 1.27612 0.0366404 1.57458 0.205155 0.106808
21 1.55588 0 0 -0.0273743 0.0177045 -0.702263
22 1.24273 0 0 -0.000479237 0.000360508 -1.15419
23 0.784524 0 0 0.00636378 -0.00322816 -0.741041
24 -6.70653 7.12182 -4.00061 -0.000932693 0 -1.8749
25 6.02794 0 0 1.16027 0.506353 0.247215
26 11.7344 0 0 0.00140254 0 0.798765
27 8.81167 0 0 0.0949222 0 0
28 5.77884 0 0 0.0635979 0 0
29 2.23249 0 0 0.0313243 0 0
30 11.4725 0 0 0.140385 -0.440457 -0.127114
31 0.615812 0.994372 -0.809165 -2.83171 0.442997 0.480737
32 2.24752 0 0 -0.045362 0.233136 0.363247
33 1.11936 0 0 -0.000328091 0.159957 0.657165
34 3.71349 0.102638 0.102191 -1.54675 0.834836 -0.400578
35 1.72615 0 0 -0.0068987 -0.00732661 1.09674
36 1.21112 0 0 0.0103137 0.0102 1.33017
37 3.5992 1.06012 0.0708883 -1.53662 0.394253 -0.182897
38 1.66069 0 0 0.00129288 0.0778541 0.239538
39 1.16699 0 0 0.0426519 0.021851 0.735105
40 2.18853 -0.50104 0.057659 -1.5728 0.133573 -0.17288
41 1.29609 0 0 0.120501 0.0520644 0.782583
42 1.62202 -0.000713348 -0.000469208 0.0811907 -0.0245018 1.19712
43 1.22241 0 0 -0.0119317 -0.00594712 1.29801
44 1.76707 -1.27612 0.0366404 -1.48212 0.284875 -0.100851
45 1.55588 0 0 0.223724 0.08684 0.700865
46 1.24273 0 0 0.000478917 0.000360574 0.964696
47 0.784531 0 0 -0.0061863 0.000249584 0.884667
48 0 0 0 0 0 0
49 -5.87966 -23.2826 -6.24206 -0.0438492 -0.00598364 0.0081132
50 0 -0.611115 2.11238 0 0 0
51 -0.0145798 -2.62418 2.91209 0 0 0
52 -5.87054 -24.6315 -5.93736 -0.0438493 -0.00598353 0.00811376
53 0 -0.675064 1.41593 0 0 0
54 0 0.979378 2.2232 0 0 0
55 0 -3.93659 2.85382 0 0 0
56 0 2.062 1.89703 -0.785398 0 0
57 0 -1.66928 2.73772 0 0 0
58 6.98255 2.1009 -16.1176 0 0 0
time 17
0 6.78963 4.11825 -5.6679 0.000934124 0 -1.53243
1 6.02795 0 0 -1.09282 0.392492 -0.412016
2 11.7344 0 0 -0.00140292 0 -0.711514
3 8.81139 -0.000450134 -0.000111341 -0.579822 0 0.000157472
4 5.77839 0.000286102 0 -0.388481 0 0.000103074
5 2.23164 -0.000329971 -0.00036335 -0.191341 0 0
6 11.4725 0 0 -0.759267 -0.445472 0.541858
7 0.615219 -0.993091 -0.8107 2.36302 0.0866629 -0.357379
8 2.24752 0 0 0.0605672 0.267265 -0.222262
9 1.11936 0 0 0.0749174 0.0546636 -0.249677
10 3.71348 -0.102641 0.102191 1.77126 0.869992 0.142171
11 1.72615 0 0 0.013477 -0.0073309 -0.811382
12 1.21114 0 0 0.00873811 0.015128 -0.772911
13 3.59919 -1.06012 0.0708879 1.87281 0.766148 0.187134
14 1.66069 0 0 -0.0195999 0.0443892 -0.726687
15 1.167 0 0 0.00841045 -0.00839376 -0.438998
16 2.18852 0.501039 0.0576591 1.57366 -0.0281249 0.156362
17 1.29609 0 0 0.0785581 0.0270526 -1.07235
18 1.62202 0.000711441 -0.000471115 0.00740289 -0.0221109 -0.784236
19 1.22241 0 0 0.000237489 0.00593043 -0.707337
20 1.76707 1.27612 0.0366406 1.57458 0.205155 0.106808
21 1.55588 0 0 -0.0273743 0.0177045 -0.702262
22 1.24273 0 0 -0.000479171 0.000360515 -1.15419
23 0.784524 0 0 0.00636379 -0.00322819 -0.741041
24 -6.70653 7.12182 -4.00061 -0.000932693 0 -1.8749
25 6.02794 0 0 1.1628 0.498302 0.250687
26 11.7344 0 0 0.00140277 0 0.782135
27 8.81167 0 0 0.0962256 0 0
28 5.77884 0 0 0.0644712 0 0
29 2.23249 0 0 0.0317543 0 0
30 11.4725 0 0 0.142973 -0.432926 -0.131685
31 0.615812 0.994372 -0.809166 -2.83171 0.442997 0.480737
32 2.24752 0 0 -0.045362 0.233136 0.363247
33 1.11936 0 0 -0.000328114 0.159957 0.657165
34 3.71349 0.10264 0.10219 -1.54675 0.834836 -0.400578
35 1.72615 0 0 -0.0068987 -0.00732661 1.09674
36 1.21112 0 0 0.0103137 0.0102 1.33017
37 3.5992 1.06012 0.0708877 -1.53662 0.394253 -0.182897
38 1.66069 0 0 0.00129288 0.0778541 0.239538
39 1.16699 0 0 0.0426518 0.021851 0.735105
40 2.18853 -0.501041 0.0576584 -1.5728 0.133573 -0.17288
41 1.29609 0 0 0.120501 0.0520645 0.782583
42 1.62202 -0.000711441 -0.000469685 0.0811908 -0.0245018 1.19712
43 1.22241 0 0 -0.0119317 -0.0059471 1.29801
44 1.76707 -1.27612 0.03664 -1.48212 0.284875 -0.100851
45 1.55588 0 0 0.223724 0.08684 0.700865
46 1.24273 0 0 0.000478921 0.00036058 0.964696
47 0.784533 0 0 -0.00618632 0.000249594 0.884667
48 0 0 0 0 0 0
49 -5.87428 -23.3685 -6.28749 -0.0304974 -0.00604762 0.0105401
50 0 -0.611113 2.11238 0 0 0
51 -0.0145802 -2.60678 2.91209 0 0 0
52 -5.86175 -24.7213 -6.00083 -0.0304975 -0.00604751 0.0105407
53 0 -0.675064 1.41593 0 0 0
54 0 0.979378 2.2232 0 0 0
55 0 -3.93659 2.85382 0 0 0
56 0 2.062 1.89702 -0.785398 0 0
57 0 -1.66928 2.73772 0 0 0
58 6.98255 2.1009 -16.1176 0 0 0
time 18
0 6.78963 4.11825 -5.6679 0.000934124 0 -1.53243
1 6.02795 0 0 -1.09546 0.385987 -0.414323
2 11.7344 0 0 -0.00140267 0 -0.698766
3 8.81138 -0.000449181 -0.00011158 -0.579953 0 0.000158125
4 5.77839 0.000287056 0 -0.388569 0 0.000103613
5 2.23163 -0.000329971 -0.000363827 -0.191385 0 0
6 11.4725 0 0 -0.760197 -0.440673 0.544468
7 0.615217 -0.993091 -0.8107 2.36302 0.0866627 -0.357379
8 2.24752 0 0 0.0605672 0.267265 -0.222262
9 1.11936 0 0 0.0749173 0.0546635 -0.249677
10 3.71348 -0.102641 0.102191 1.77126 0.869992 0.142172
11 1.72615 0 0 0.013477 -0.0073309 -0.811382
12 1.21114 0 0 0.0087381 0.015128 -0.772911
13 3.59919 -1.06012 0.070888 1.87281 0.766148 0.187135
14 1.66069 0 0 -0.0195999 0.0443892 -0.726687
15 1.167 0 0 0.00841045 -0.00839377 -0.438997
16 2.18852 0.50104 0.0576591 1.57366 -0.0281251 0.156362
17 1.29609 0 0 0.0785582 0.0270526 -1.07235
18 1.62202 0.000715256 -0.000471115 0.0074029 -0.0221109 -0.784236
19 1.22241 0 0 0.000237484 0.00593044 -0.707337
20 1.76707 1.27612 0.0366409 1.57458 0.205155 0.106808
21 1.55588 0 0 -0.0273743 0.0177044 -0.702262
22 1.24273 0 0 -0.000479212 0.000360524 -1.15419
23 0.784524 0 0 0.0063638 -0.00322812 -0.741041
24 -6.70653 7.12182 -4.00061 -0.000932693 0 -1.8749
25 6.02794 0 0 1.16552 0.4904 0.253808
26 11.7344 0 0 0.00140276 0 0.767644
27 8.81167 0 0 0.0989 0 0
28 5.77884 0 0 0.066263 0 0
29 2.23249 0 0 0.032637 0 0
30 11.4725 0 0 0.146252 -0.428092 -0.134574
31 0.615812 0.994372 -0.809165 -2.83171 0.442997 0.480737
32 2.24752 0 0 -0.0453619 0.233136 0.363247
33 1.11935 0 0 -0.000328069 0.159957 0.657165
34 3.71348 0.102639 0.102191 -1.54675 0.834836 -0.400578
35 1.72615 0 0 -0.0068987 -0.0073266 1.09674
36 1.21112 0 0 0.0103137 0.0102001 1.33017
37 3.5992 1.06012 0.0708883 -1.53662 0.394253 -0.182897
38 1.66069 0 0 0.00129289 0.0778541 0.239538
39 1.16699 0 0 0.0426518 0.0218511 0.735105
40 2.18853 -0.50104 0.0576586 -1.5728 0.133573 -0.17288
41 1.29609 0 0 0.120501 0.0520645 0.782583
42 1.62201 -0.000713348 -0.000470161 0.0811908 -0.0245018 1.19712
43 1.22241 0 0 -0.0119317 -0.00594709 1.29801
44 1.76707 -1.27612 0.0366402 -1.48212 0.284875 -0.100851
45 1.55588 0 0 0.223724 0.0868401 0.700865
46 1.24273 0 0 0.000478945 0.000360577 0.964696
47 0.784532 0 0 -0.00618631 0.000249607 0.884667
48 0 0 0 0 0 0
49 -5.87676 -23.4404 -6.29574 -0.0215661 -0.00802129 0.0115424
50 0 -0.611113 2.11238 0 0 0
51 -0.0145802 -2.5894 2.91209 0 0 0
52 -5.86332 -24.7956 -6.02118 -0.0215662 -0.00802119 0.011543
53 0 -0.675064 1.41593 0 0 0
54 0 0.979376 2.2232 0 0 0
55 0 -3.93659 2.85382 0 0 0
56 0 2.062 1.89702 -0.785398 0 0
57 0 -1.66928 2.73772 0 0 0
58 6.98255 2.1009 -16.1176 0 0 0
time 19
0 6.78963 4.11825 -5.6679 0.000934124 0 -1.53243
1 6.02795 0 0 -1.09823 0.379348 -0.416525
2 11.7344 0 0 -0.00140287 0 -0.687697
3 8.81138 -0.000450134 -0.000112057 -0.577136 0 0.000157913
4 5.77839 0.000287056 0 -0.386681 0 0.00010342
5 2.23164 -0.000328064 -0.00036335 -0.190455 0 0
6 11.4725 0 0 -0.758423 -0.436224 0.546351
7 0.615217 -0.993092 -0.8107 2.36302 0.0866629 -0.35738
8 2.24752 0 0 0.0605672 0.267265 -0.222262
9 1.11936 0 0 0.0749173 0.0546635 -0.249677
10 3.71348 -0.102641 0.102191 1.77126 0.869992 0.142171
11 1.72615 0 0 0.013477 -0.00733089 -0.811382
12 1.21114 0 0 0.0087381 0.015128 -0.772911
13 3.59919 -1.06012 0.070888 1.87281 0.766148 0.187134
14 1.66069 0 0 -0.0195999 0.0443892 -0.726687
15 1.167 0 0 0.00841045 -0.00839376 -0.438998
16 2.18852 0.501039 0.0576594 1.57366 -0.028125 0.156362
17 1.29609 0 0 0.0785582 0.0270526 -1.07235
18 1.62202 0.000713348 -0.000471115 0.00740293 -0.0221109 -0.784236
19 1.22241 0 0 0.00023747 0.00593044 -0.707337
20 1.76707 1.27612 0.0366411 1.57458 0.205155 0.106808
21 1.55588 0 0 -0.0273743 0.0177045 -0.702262
22 1.24274 0 0 -0.000479237 0.000360508 -1.15419
23 0.784523 0 0 0.00636382 -0.00322821 -0.741041
24 -6.70653 7.12182 -4.00061 -0.000932693 0 -1.8749
25 6.02794 0 0 1.1681 0.483489 0.256288
26 11.7344 0 0 0.00140265 0 0.756658
27 8.81167 0 0 0.101942 0 0
28 5.77884 0 0 0.0683009 0 0
29 2.23249 0 0 0.0336406 0 0
30 11.4725 0 0 0.150257 -0.424639 -0.138162
31 0.615814 0.994373 -0.809165 -2.83171 0.442997 0.480737
32 2.24752 0 0 -0.0453619 0.233136 0.363247
33 1.11936 0 0 -0.000328148 0.159957 0.657165
34 3.71349 0.10264 0.102191 -1.54675 0.834836 -0.400578
35 1.72615 0 0 -0.00689873 -0.00732659 1.09674
36 1.21112 0 0 0.0103137 0.0102 1.33017
37 3.5992 1.06012 0.0708877 -1.53662 0.394253 -0.182897
38 1.66069 0 0 0.00129289 0.0778541 0.239537
39 1.16699 0 0 0.0426518 0.0218511 0.735105
40 2.18853 -0.50104 0.057659 -1.5728 0.133573 -0.17288
41 1.29609 0 0 0.120501 0.0520645 0.782583
42 1.62202 -0.000713348 -0.000470161 0.0811908 -0.0245018 1.19712
43 1.22241 0 0 -0.0119317 -0.00594712 1.29801
44 1.76707 -1.27612 0.0366404 -1.48212 0.284875 -0.100851
45 1.55588 0 0 0.223724 0.08684 0.700865
46 1.24273 0 0 0.000478917 0.000360574 0.964696
47 0.784532 0 0 -0.00618631 0.00024959 0.884667
48 0 0 0 0 0 0
49 -5.88242 -23.4984 -6.28008 -0.0148486 -0.0112837 0.0118352
50 0 -0.611115 2.11238 0 0 0
51 -0.0145802 -2.57201 2.91209 0 0 0
52 -5.86935 -24.8555 -6.01464 -0.0148487 -0.0112836 0.0118357
53 0 -0.675066 1.41593 0 0 0
54 0 0.979376 2.2232 0 0 0
55 0 -3.93659 2.85382 0 0 0
56 0 2.062 1.89702 -0.785398 0 0
57 0 -1.66928 2.73772 0 0 0
58 6.98255 2.1009 -16.1176 0 0 0
time 20
0 6.78963 4.11825 -5.6679 0.000934124 0 -1.53243
1 6.02795 0 0 -1.10075 0.373639 -0.418188
2 11.7344 0 0 -0.00140282 0 -0.679779
3 8.81139 -0.000448227 -0.000111103 -0.573458 0 0.000157346
4 5.77839 0.00028801 0 -0.384217 0 0.00010314
5 2.23163 -0.000329018 -0.000363588 -0.189241 0 0
6 11.4725 0 0 -0.756046 -0.431992 0.548396
7 0.615219 -0.993091 -0.8107 2.36302 0.0866627 -0.357379
8 2.24752 0 0 0.0605671 0.267265 -0.222262
9 1.11936 0 0 0.0749173 0.0546634 -0.249677
10 3.71348 -0.10264 0.102191 1.77126 0.869992 0.142171
11 1.72615 0 0 0.013477 -0.00733089 -0.811382
12 1.21114 0 0 0.00873809 0.015128 -0.77291
13 3.59919 -1.06012 0.0708884 1.87281 0.766148 0.187135
14 1.66069 0 0 -0.0195999 0.0443892 -0.726687
15 1.167 0 0 0.00841045 -0.00839376 -0.438998
16 2.18852 0.50104 0.0576599 1.57366 -0.0281252 0.156362
17 1.29609 0 0 0.0785581 0.0270526 -1.07235
18 1.62202 0.000715256 -0.000470638 0.00740294 -0.022111 -0.784237
19 1.22241 0 0 0.000237464 0.00593045 -0.707337
20 1.76707 1.27612 0.0366414 1.57458 0.205155 0.106808
21 1.55588 0 0 -0.0273743 0.0177045 -0.702263
22 1.24274 0 0 -0.000479209 0.000360491 -1.15419
23 0.784525 0 0 0.00636382 -0.00322817 -0.741041
24 -6.70653 7.12182 -4.00061 -0.000932693 0 -1.8749
25 6.02794 0 0 1.17037 0.477714 0.258193
26 11.7344 0 0 0.00140272 0 0.74903
27 8.81167 0 0 0.103749 0 0
28 5.77884 0 0 0.0695118 0 0
29 2.23249 0 0 0.0342371 0 0
30 11.4725 0 0 0.153466 -0.422308 -0.142328
31 0.615812 0.994373 -0.809166 -2.83171 0.442997 0.480737
32 2.24752 0 0 -0.045362 0.233136 0.363247
33 1.11936 0 0 -0.000328167 0.159957 0.657165
34 3.71349 0.102639 0.10219 -1.54675 0.834836 -0.400578
35 1.72615 0 0 -0.00689869 -0.0073266 1.09674
36 1.21112 0 0 0.0103137 0.0102 1.33017
37 3.5992 1.06012 0.0708878 -1.53662 0.394253 -0.182897
38 1.66069 0 0 0.00129289 0.0778541 0.239537
39 1.16699 0 0 0.0426518 0.021851 0.735105
40 2.18853 -0.50104 0.0576588 -1.5728 0.133573 -0.17288
41 1.29609 0 0 0.120501 0.0520645 0.782583
42 1.62202 -0.000713348 -0.000469685 0.0811908 -0.0245018 1.19712
43 1.22241 0 0 -0.0119317 -0.00594711 1.29801
44 1.76707 -1.27612 0.0366403 -1.48212 0.284875 -0.100851
45 1.55588 0 0 0.223724 0.08684 0.700865
46 1.24273 0 0 0.000478906 0.000360584 0.964696
47 0.784532 0 0 -0.00618631 0.000249567 0.884667
48 0 0 0 0 0 0
49 -5.88832 -23.5418 -6.24842 -0.00973951 -0.014171 0.0114342
50 0 -0.611115 2.11238 0 0 0
51 -0.0145802 -2.55462 2.91209 0 0 0
52 -5.87645 -24.9002 -5.98993 -0.0097396 -0.0141709 0.0114347
53 0 -0.675066 1.41593 0 0 0
54 0 0.979376 2.2232 0 0 0
55 0 -3.93659 2.85382 0 0 0
56 0 2.062 1.89702 -0.785398 0 0
57 0 -1.66928 2.73772 0 0 0
58 6.98255 2.1009 -16.1176 0 0 0
time 21
0 6.78963 4.11825 -5.6679 0.000934124 0 -1.53243
1 6.02795 0 0 -1.10268 0.369681 -0.419113
2 11.7344 0 0 -0.00140281 0 -0.67594
3 8.81139 -0.000450134 -0.000112534 -0.571254 0 0.000157319
4 5.77839 0.000286102 0 -0.38274 0 0.000103008
5 2.23164 -0.000329018 -0.000364304 -0.188514 0 0
6 11.4725 0 0 -0.755288 -0.427917 0.551293
7 0.615217 -0.993091 -0.8107 2.36302 0.0866628 -0.357379
8 2.24752 0 0 0.0605672 0.267265 -0.222263
9 1.11936 0 0 0.0749173 0.0546635 -0.249677
10 3.71348 -0.102641 0.102191 1.77126 0.869992 0.142171
11 1.72614 0 0 0.013477 -0.00733088 -0.811382
12 1.21114 0 0 0.00873811 0.0151279 -0.772911
13 3.59919 -1.06012 0.0708882 1.87281 0.766148 0.187135
14 1.66069 0 0 -0.0195999 0.0443892 -0.726687
15 1.167 0 0 0.00841045 -0.00839377 -0.438997
16 2.18853 0.50104 0.0576593 1.57366 -0.0281251 0.156362
17 1.29609 0 0 0.0785581 0.0270526 -1.07235
18 1.62202 0.000713348 -0.000470638 0.00740292 -0.0221109 -0.784237
19 1.22241 0 0 0.000237471 0.00593039 -0.707337
20 1.76707 1.27612 0.0366408 1.57458 0.205155 0.106808
21 1.55588 0 0 -0.0273743 0.0177045 -0.702262
22 1.24273 0 0 -0.000479241 0.000360541 -1.15419
23 0.784524 0 0 0.00636381 -0.00322815 -0.741041
24 -6.70653 7.12182 -4.00061 -0.000932693 0 -1.8749
25 6.02794 0 0 1.17205 0.473843 0.259302
26 11.7344 0 0 0.00140275 0 0.745925
27 8.81167 0 0 0.102407 0 0
28 5.77884 0 0 0.0686129 0 0
29 2.23249 0 0 0.0337944 0 0
30 11.4725 0 0 0.154331 -0.420833 -0.147584
31 0.615814 0.994373 -0.809166 -2.83171 0.442997 0.480737
32 2.24752 0 0 -0.0453621 0.233136 0.363247
33 1.11936 0 0 -0.000328035 0.159957 0.657165
34 3.71349 0.102639 0.102191 -1.54675 0.834836 -0.400578
35 1.72615 0 0 -0.00689866 -0.00732661 1.09674
36 1.21112 0 0 0.0103137 0.0102 1.33017
37 3.5992 1.06012 0.0708889 -1.53662 0.394253 -0.182897
38 1.66069 0 0 0.00129288 0.0778541 0.239537
39 1.16699 0 0 0.0426518 0.021851 0.735105
40 2.18853 -0.50104 0.05766 -1.5728 0.133574 -0.17288
41 1.29609 0 0 0.120501 0.0520645 0.782584
42 1.62202 -0.000713348 -0.000470161 0.0811907 -0.0245018 1.19712
43 1.22241 0 0 -0.0119317 -0.00594711 1.29801
44 1.76707 -1.27612 0.0366413 -1.48212 0.284875 -0.100851
45 1.55587 0 0 0.223724 0.08684 0.700865
46 1.24273 0 0 0.000478909 0.000360566 0.964696
47 0.784531 0 0 -0.00618631 0.000249576 0.884667
48 0 0 0 0 0 0
49 -5.89195 -23.5654 -6.20875 -0.0056275 -0.0150045 0.0103943
50 0 -0.611115 2.11238 0 0 0
51 -0.0145802 -2.53723 2.91209 0 0 0
52 -5.88162 -24.9249 -5.95584 -0.0056276 -0.0150045 0.0103948
53 0 -0.675064 1.41593 0 0 0
54 0 0.979378 2.2232 0 0 0
55 0 -3.93659 2.85382 0 0 0
56 0 2.062 1.89702 -0.785398 0 0
57 0 -1.66928 2.73772 0 0 0
58 6.98255 2.1009 -16.1176 0 0 0
time 22
0 6.78963 4.11825 -5.6679 0.000934124 0 -1.53243
1 6.02795 0 0 -1.10391 0.367517 -0.419421
2 11.7344 0 0 -0.00140265 0 -0.675539
3 8.81139 -0.000449181 -0.000112534 -0.572589 0 0.000157679
4 5.77839 0.000287056 0 -0.383635 0 0.000103354
5 2.23163 -0.000328064 -0.000363588 -0.188954 0 0
6 11.4725 0 0 -0.757194 -0.423807 0.553912
7 0.615219 -0.993091 -0.8107 2.36302 0.0866627 -0.357379
8 2.24752 0 0 0.0605672 0.267265 -0.222262
9 1.11936 0 0 0.0749172 0.0546635 -0.249677
10 3.71348 -0.102641 0.102191 1.77126 0.869992 0.142171
11 1.72615 0 0 0.013477 -0.00733089 -0.811382
12 1.21114 0 0 0.00873811 0.015128 -0.772911
13 3.59919 -1.06012 0.070888 1.87281 0.766148 0.187134
14 1.66069 0 0 -0.0195999 0.0443892 -0.726687
15 1.167 0 0 0.00841045 -0.00839377 -0.438997
16 2.18852 0.50104 0.0576589 1.57366 -0.028125 0.156362
17 1.2961 0 0 0.0785581 0.0270526 -1.07235
18 1.62202 0.000715256 -0.000471592 0.0074029 -0.0221109 -0.784236
19 1.22241 0 0 0.000237499 0.0059304 -0.707337
20 1.76707 1.27612 0.0366409 1.57458 0.205155 0.106808
21 1.55588 0 0 -0.0273743 0.0177045 -0.702262
22 1.24273 0 0 -0.000479241 0.000360541 -1.15419
23 0.784525 0 0 0.00636383 -0.00322817 -0.741041
24 -6.70653 7.12182 -4.00061 -0.000932693 0 -1.8749
25 6.02794 0 0 1.17309 0.471976 0.259626
26 11.7344 0 0 0.00140262 0 0.747088
27 8.81167 0 0 0.0968266 0 0
28 5.77884 0 0 0.0648739 0 0
29 2.23249 0 0 0.0319528 0 0
30 11.4725 0 0 0.151577 -0.420621 -0.153154
31 0.615814 0.994372 -0.809165 -2.83171 0.442997 0.480737
32 2.24752 0 0 -0.045362 0.233136 0.363247
33 1.11936 0 0 -0.000328061 0.159957 0.657165
34 3.71349 0.10264 0.102191 -1.54675 0.834836 -0.400578
35 1.72615 0 0 -0.00689871 -0.0073266 1.09674
36 1.21112 0 0 0.0103137 0.0102001 1.33017
37 3.5992 1.06012 0.0708882 -1.53662 0.394253 -0.182897
38 1.66069 0 0 0.00129288 0.0778541 0.239538
39 1.16699 0 0 0.0426518 0.021851 0.735105
40 2.18853 -0.501041 0.0576591 -1.5728 0.133573 -0.17288
41 1.29609 0 0 0.120501 0.0520645 0.782584
42 1.62201 -0.000711441 -0.000469685 0.0811908 -0.0245018 1.19712
43 1.22241 0 0 -0.0119317 -0.00594712 1.29801
44 1.76707 -1.27612 0.0366401 -1.48212 0.284875 -0.100851
45 1.55588 0 0 0.223724 0.08684 0.700865
46 1.24273 0 0 0.000478889 0.00036058 0.964696
47 0.784532 0 0 -0.00618629 0.000249541 0.884667
48 0 0 0 0 0 0
49 -5.89477 -23.5702 -6.16582 -0.00274318 -0.0126255 0.00829055
50 0 -0.611116 2.11238 0 0 0
51 -0.0145793 -2.51984 2.91209 0 0 0
52 -5.88664 -24.9304 -5.91683 -0.00274328 -0.0126254 0.00829112
53 0 -0.675064 1.41593 0 0 0
54 0 0.979376 2.2232 0 0 0
55 0 -3.93659 2.85382 0 0 0
56 0 2.062 1.89703 -0.785398 0 0
57 0 -1.66928 2.73772 0 0 0
58 6.98255 2.1009 -16.1176 0 0 0
time 23
0 6.78963 4.11825 -5.6679 0.000934124 0 -1.53243
1 6.02795 0 0 -1.10465 0.36643 -0.419434
2 11.7344 0 0 -0.0014028 0 -0.676727
3 8.81139 -0.000449181 -0.000112295 -0.576635 0 0.000157931
4 5.77839 0.000286102 0 -0.386346 0 0.000103524
5 2.23163 -0.000329971 -0.000365019 -0.19029 0 0
6 11.4725 0 0 -0.760539 -0.419804 0.55512
7 0.615219 -0.993091 -0.8107 2.36302 0.0866629 -0.357379
8 2.24752 0 0 0.0605673 0.267265 -0.222262
9 1.11936 0 0 0.0749173 0.0546635 -0.249677
10 3.71348 -0.102641 0.102191 1.77126 0.869992 0.142171
11 1.72615 0 0 0.013477 -0.0073309 -0.811382
12 1.21114 0 0 0.00873811 0.0151279 -0.772911
13 3.59919 -1.06012 0.0708879 1.87281 0.766148 0.187134
14 1.66069 0 0 -0.0195999 0.0443892 -0.726687
15 1.167 0 0 0.00841044 -0.00839377 -0.438997
16 2.18852 0.50104 0.0576588 1.57366 -0.028125 0.156362
17 1.29609 0 0 0.0785581 0.0270526 -1.07235
18 1.62202 0.000715256 -0.000471115 0.00740291 -0.0221109 -0.784237
19 1.22241 0 0 0.000237494 0.00593048 -0.707337
20 1.76707 1.27612 0.0366409 1.57458 0.205155 0.106808
21 1.55588 0 0 -0.0273743 0.0177045 -0.702262
22 1.24274 0 0 -0.000479184 0.000360507 -1.15419
23 0.784522 0 0 0.00636383 -0.00322817 -0.741041
24 -6.70653 7.12182 -4.00061 -0.000932693 0 -1.8749
25 6.02794 0 0 1.17367 0.471414 0.259487
26 11.7344 0 0 0.00140261 0 0.75055
27 8.81167 0 0 0.0887887 0 0
28 5.77884 0 0 0.0594886 0 0
29 2.23249 0 0 0.0293003 0 0
30 11.4725 0 0 0.146388 -0.421745 -0.157933
31 0.615812 0.994372 -0.809165 -2.83171 0.442997 0.480737
32 2.24752 0 0 -0.045362 0.233136 0.363247
33 1.11936 0 0 -0.00032805 0.159957 0.657165
34 3.71349 0.102639 0.102191 -1.54675 0.834836 -0.400578
35 1.72615 0 0 -0.0068987 -0.00732661 1.09674
36 1.21112 0 0 0.0103137 0.0102 1.33017
37 3.5992 1.06012 0.0708879 -1.53662 0.394253 -0.182897
38 1.66069 0 0 0.0012929 0.0778541 0.239537
39 1.16699 0 0 0.0426518 0.0218511 0.735105
40 2.18854 -0.50104 0.0576588 -1.5728 0.133573 -0.17288
41 1.29609 0 0 0.120501 0.0520644 0.782583
42 1.62202 -0.000713348 -0.000469685 0.0811907 -0.0245018 1.19712
43 1.22241 0 0 -0.0119317 -0.00594711 1.29801
44 1.76707 -1.27612 0.0366405 -1.48212 0.284875 -0.100851
45 1.55588 0 0 0.223724 0.0868401 0.700864
46 1.24273 0 0 0.000478936 0.000360573 0.964696
47 0.784532 0 0 -0.00618631 0.000249602 0.884667
48 0 0 0 0 0 0
49 -5.89842 -23.5637 -6.12374 -0.00128719 -0.00816549 0.00525405
50 0 -0.611113 2.11238 0 0 0
51 -0.0145802 -2.50245 2.91209 0 0 0
52 -5.89329 -24.9243 -5.87672 -0.00128728 -0.0081654 0.00525461
53 0 -0.675064 1.41593 0 0 0
54 0 0.979376 2.2232 0 0 0
55 0 -3.93659 2.85382 0 0 0
56 0 2.062 1.89702 -0.785398 0 0
57 0 -1.66928 2.73772 0 0 0
58 6.98255 2.1009 -16.1176 0 0 0
time 24
0 6.78963 4.11825 -5.6679 0.000934124 0 -1.53243
1 6.02795 0 0 -1.10508 0.365914 -0.419356
2 11.7344 0 0 -0.0014028 0 -0.678185
3 8.81138 -0.000450134 -0.00011301 -0.581504 0 0.000157604
4 5.77839 0.000286102 0 -0.389608 0 0.000103218
5 2.23163 -0.000329971 -0.00036478 -0.191896 0 0
6 11.4725 0 0 -0.764126 -0.416342 0.555385
7 0.615219 -0.993091 -0.8107 2.36302 0.0866627 -0.35738
8 2.24752 0 0 0.0605672 0.267265 -0.222262
9 1.11936 0 0 0.0749173 0.0546635 -0.249677
10 3.71348 -0.102641 0.102191 1.77126 0.869992 0.142171
11 1.72615 0 0 0.013477 -0.00733087 -0.811382
12 1.21114 0 0 0.00873809 0.015128 -0.772911
13 3.59919 -1.06012 0.0708883 1.87281 0.766148 0.187134
14 1.66069 0 0 -0.0195999 0.0443892 -0.726687
15 1.167 0 0 0.00841045 -0.00839376 -0.438998
16 2.18852 0.50104 0.057659 1.57366 -0.0281252 0.156362
17 1.29609 0 0 0.0785581 0.0270526 -1.07235
18 1.62202 0.000713348 -0.000470638 0.00740291 -0.0221109 -0.784236
19 1.22241 0 0 0.0002375 0.0059304 -0.707337
20 1.76707 1.27612 0.0366414 1.57458 0.205155 0.106808
21 1.55588 0 0 -0.0273743 0.0177045 -0.702262
22 1.24273 0 0 -0.000479209 0.000360491 -1.15419
23 0.784523 0 0 0.00636382 -0.0032282 -0.741041
24 -6.70653 7.12182 -4.00061 -0.000932693 0 -1.8749
25 6.02794 0 0 1.17397 0.471437 0.259208
26 11.7344 0 0 0.00140272 0 0.754274
27 8.81167 0 0 0.0807983 0 0
28 5.77884 0 0 0.0541347 0 0
29 2.23249 0 0 0.0266634 0 0
30 11.4725 0 0 0.140829 -0.423326 -0.161586
31 0.615812 0.994373 -0.809165 -2.83171 0.442997 0.480737
32 2.24752 0 0 -0.0453622 0.233135 0.363247
33 1.11936 0 0 -0.00032805 0.159957 0.657165
34 3.71349 0.102639 0.102191 -1.54675 0.834836 -0.400578
35 1.72615 0 0 -0.00689871 -0.0073266 1.09674
36 1.21112 0 0 0.0103137 0.0102 1.33017
37 3.5992 1.06012 0.0708887 -1.53662 0.394253 -0.182897
38 1.66069 0 0 0.0012929 0.0778541 0.239537
39 1.16699 0 0 0.0426518 0.021851 0.735105
40 2.18854 -0.50104 0.0576586 -1.5728 0.133573 -0.17288
41 1.29609 0 0 0.120501 0.0520644 0.782584
42 1.62202 -0.000711441 -0.000469685 0.0811908 -0.0245018 1.19712
43 1.22241 0 0 -0.0119317 -0.00594709 1.29801
44 1.76707 -1.27612 0.0366408 -1.48212 0.284875 -0.100851
45 1.55588 0 0 0.223724 0.0868401 0.700865
46 1.24273 0 0 0.000478915 0.000360579 0.964696
47 0.784532 0 0 -0.0061863 0.000249568 0.884667
48 0 0 0 0 0 0
49 -5.90213 -23.5542 -6.08951 -0.000596908 -0.00337471 0.00218658
50 0 -0.611113 2.11238 0 0 0
51 -0.0145802 -2.48506 2.91209 0 0 0
52 -5.89998 -24.915 -5.84342 -0.000596998 -0.00337462 0.00218715
53 0 -0.675066 1.41593 0 0 0
54 0 0.979376 2.2232 0 0 0
55 0 -3.93659 2.85382 0 0 0
56 0 2.062 1.89702 -0.785398 0 0
57 0 -1.66928 2.73772 0 0 0
58 6.98255 2.1009 -16.1176 0 0 0
time 25
0 6.78963 4.11825 -5.6679 0.000934124 0 -1.53243
1 6.02795 0 0 -1.10536 0.365476 -0.419382
2 11.7344 0 0 -0.00140273 0 -0.678616
3 8.81139 -0.000450134 -0.00011158 -0.585301 0 0.000157718
4 5.77839 0.000286102 0 -0.392152 0 0.000103272
5 2.23164 -0.000329971 -0.000363588 -0.193149 0 0
6 11.4725 0 0 -0.766749 -0.413863 0.555192
7 0.615217 -0.993091 -0.8107 2.36302 0.0866629 -0.357379
8 2.24752 0 0 0.0605672 0.267265 -0.222262
9 1.11936 0 0 0.0749173 0.0546635 -0.249677
10 3.71348 -0.102641 0.102191 1.77126 0.869992 0.142171
11 1.72615 0 0 0.013477 -0.00733092 -0.811382
12 1.21114 0 0 0.0087381 0.015128 -0.772911
13 3.59919 -1.06012 0.0708883 1.87281 0.766148 0.187135
14 1.66069 0 0 -0.0195999 0.0443892 -0.726687
15 1.167 0 0 0.00841045 -0.00839376 -0.438998
16 2.18852 0.50104 0.0576594 1.57366 -0.0281249 0.156362
17 1.29609 0 0 0.0785581 0.0270526 -1.07235
18 1.62202 0.000713348 -0.000470638 0.00740289 -0.0221109 -0.784237
19 1.22241 0 0 0.000237478 0.00593046 -0.707337
20 1.76707 1.27612 0.0366409 1.57458 0.205155 0.106808
21 1.55588 0 0 -0.0273743 0.0177045 -0.702262
22 1.24274 0 0 -0.000479225 0.000360516 -1.15419
23 0.784523 0 0 0.00636382 -0.00322821 -0.741041
24 -6.70653 7.12182 -4.00061 -0.000932693 0 -1.8749
25 6.02794 0 0 1.17417 0.471342 0.259099
26 11.7344 0 0 0.00140279 0 0.756263
27 8.81167 0 0 0.0753824 0 0
28 5.77884 0 0 0.0505062 0 0
29 2.23249 0 0 0.0248762 0 0
30 11.4725 0 0 0.136965 -0.424482 -0.163791
31 0.615812 0.994373 -0.809165 -2.83171 0.442997 0.480737
32 2.24752 0 0 -0.0453621 0.233136 0.363247
33 1.11936 0 0 -0.000328038 0.159957 0.657165
34 3.71348 0.10264 0.102191 -1.54675 0.834836 -0.400578
35 1.72615 0 0 -0.00689867 -0.00732661 1.09674
36 1.21112 0 0 0.0103137 0.0102 1.33017
37 3.5992 1.06012 0.0708883 -1.53662 0.394253 -0.182897
38 1.66069 0 0 0.00129287 0.0778541 0.239537
39 1.16699 0 0 0.0426518 0.021851 0.735105
40 2.18853 -0.50104 0.0576593 -1.5728 0.133573 -0.17288
41 1.29609 0 0 0.120501 0.0520645 0.782583
42 1.62201 -0.000715256 -0.000470161 0.0811908 -0.0245018 1.19712
43 1.22241 0 0 -0.0119317 -0.00594711 1.29801
44 1.76707 -1.27612 0.0366408 -1.48212 0.284875 -0.100851
45 1.55588 0 0 0.223724 0.0868401 0.700865
46 1.24273 0 0 0.000478925 0.000360574 0.964696
47 0.784532 0 0 -0.00618631 0.000249584 0.884667
48 0 0 0 0 0 0
49 -5.90508 -23.5497 -6.07014 0 0 0
50 0 -0.611115 2.11238 0 0 0
51 -0.0145802 -2.46767 2.91209 0 0 0
52 -5.90508 -24.9106 -5.82486 0 0 0
53 0 -0.675064 1.41593 0 0 0
54 0 0.979376 2.2232 0 0 0
55 0 -3.93659 2.85382 0 0 0
56 0 2.062 1.89702 -0.785398 0 0
57 0 -1.66928 2.73772 0 0 0
58 6.98255 2.1009 -16.1176 0 0 0
time 26
0 6.78963 4.11825 -5.6679 0.000934124 0 -1.53243
1 6.02795 0 0 -1.10556 0.365026 -0.419493
2 11.7344 0 0 -0.00140287 0 -0.678207
3 8.81138 -0.000450134 -0.000112295 -0.587403 0 0.0001581
4 5.77839 0.000286102 0 -0.39356 0 0.00010341
5 2.23163 -0.000329971 -0.000365019 -0.193843 0 0
6 11.4725 0 0 -0.768139 -0.41239 0.554984
7 0.615219 -0.993091 -0.8107 2.36302 0.0866628 -0.357379
8 2.24752 0 0 0.0605672 0.267265 -0.222262
9 1.11936 0 0 0.0749174 0.0546635 -0.249677
10 3.71348 -0.102641 0.102191 1.77126 0.869992 0.142171
11 1.72615 0 0 0.013477 -0.00733089 -0.811382
12 1.21114 0 0 0.00873811 0.015128 -0.772911
13 3.59919 -1.06012 0.070888 1.87281 0.766148 0.187135
14 1.66069 0 0 -0.0195999 0.0443892 -0.726687
15 1.167 0 0 0.00841045 -0.00839376 -0.438997
16 2.18852 0.50104 0.0576589 1.57366 -0.0281249 0.156362
17 1.29609 0 0 0.0785581 0.0270526 -1.07235
18 1.62202 0.000713348 -0.000471115 0.00740291 -0.0221109 -0.784237
19 1.22241 0 0 0.000237503 0.00593043 -0.707337
20 1.76707 1.27612 0.036641 1.57458 0.205155 0.106808
21 1.55588 0 0 -0.0273743 0.0177045 -0.702262
22 1.24274 0 0 -0.0004792 0.000360532 -1.15419
23 0.784523 0 0 0.00636382 -0.00322824 -0.741041
24 -6.70653 7.12182 -4.00061 -0.000932693 0 -1.8749
25 6.02794 0 0 1.17433 0.471035 0.25916
26 11.7344 0 0 0.00140262 0 0.756633
27 8.81167 0 0 0.0727562 0 0
28 5.77884 0 0 0.0487466 0 0
29 2.23249 0 0 0.0240094 0 0
30 11.4725 0 0 0.135103 -0.425001 -0.164895
31 0.615814 0.994372 -0.809165 -2.83171 0.442997 0.480737
32 2.24752 0 0 -0.0453621 0.233136 0.363247
33 1.11936 0 0 -0.000328061 0.159957 0.657165
34 3.71349 0.102638 0.102191 -1.54675 0.834836 -0.400578
35 1.72615 0 0 -0.00689869 -0.00732661 1.09674
36 1.21112 0 0 0.0103137 0.0102 1.33017
37 3.5992 1.06012 0.0708886 -1.53662 0.394253 -0.182897
38 1.66069 0 0 0.00129289 0.0778541 0.239537
39 1.16699 0 0 0.0426518 0.021851 0.735105
40 2.18853 -0.501041 0.0576593 -1.5728 0.133573 -0.17288
41 1.29609 0 0 0.120501 0.0520644 0.782584
42 1.62202 -0.000711441 -0.000468731 0.0811908 -0.0245018 1.19712
43 1.22241 0 0 -0.0119317 -0.00594711 1.29801
44 1.76707 -1.27612 0.0366411 -1.48212 0.284875 -0.100851
45 1.55587 0 0 0.223724 0.0868401 0.700865
46 1.24273 0 0 0.000478907 0.000360584 0.964696
47 0.784532 0 0 -0.00618631 0.000249591 0.884667
48 0 0 0 0 0 0
49 -5.9069 -23.5503 -6.06246 0.000620015 0.00166869 -0.00114989
50 0 -0.611111 2.11238 0 0 0
51 -0.0145802 -2.45028 2.91209 0 0 0
52 -5.90806 -24.9114 -5.81803 0.000619929 0.00166878 -0.00114933
53 0 -0.675066 1.41593 0 0 0
54 0 0.979376 2.2232 0 0 0
55 0 -3.93659 2.85382 0 0 0
56 0 2.062 1.89702 -0.785398 0 0
57 0 -1.66928 2.73772 0 0 0
58 6.98255 2.1009 -16.1176 0 0 0
time 27
0 6.78963 4.11825 -5.6679 0.000934124 0 -1.53243
1 6.02795 0 0 -1.10567 0.364801 -0.419549
2 11.7344 0 0 -0.00140285 0 -0.678003
3 8.81138 -0.000449181 -0.000112772 -0.588455 0 0.000158162
4 5.77839 0.000287056 0 -0.394265 0 0.000103617
5 2.23164 -0.000329971 -0.000364065 -0.19419 0 0
6 11.4725 0 0 -0.768835 -0.411654 0.55488
7 0.615219 -0.993091 -0.8107 2.36302 0.0866628 -0.357379
8 2.24752 0 0 0.0605673 0.267265 -0.222262
9 1.11936 0 0 0.0749173 0.0546635 -0.249677
10 3.71348 -0.102641 0.102191 1.77126 0.869992 0.142171
11 1.72615 0 0 0.013477 -0.00733089 -0.811382
12 1.21114 0 0 0.00873812 0.0151279 -0.772911
13 3.59919 -1.06012 0.070888 1.87281 0.766148 0.187134
14 1.66069 0 0 -0.0195999 0.0443892 -0.726687
15 1.167 0 0 0.00841044 -0.00839377 -0.438998
16 2.18853 0.50104 0.0576586 1.57366 -0.028125 0.156362
17 1.29609 0 0 0.0785581 0.0270526 -1.07235
18 1.62202 0.000713348 -0.000470638 0.00740288 -0.022111 -0.784237
19 1.22241 0 0 0.000237461 0.00593042 -0.707337
20 1.76707 1.27612 0.036641 1.57458 0.205155 0.106808
21 1.55588 0 0 -0.0273743 0.0177044 -0.702262
22 1.24273 0 0 -0.000479217 0.00036045 -1.15419
23 0.784525 0 0 0.00636383 -0.00322814 -0.741041
24 -6.70653 7.12182 -4.00061 -0.000932693 0 -1.8749
25 6.02794 0 0 1.17441 0.470881 0.259191
26 11.7344 0 0 0.00140264 0 0.756817
27 8.81167 0 0 0.0714428 0 0
28 5.77884 0 0 0.0478667 0 0
29 2.23249 0 0 0.0235762 0 0
30 11.4725 0 0 0.134172 -0.425259 -0.165447
31 0.615812 0.994373 -0.809165 -2.83171 0.442997 0.480737
32 2.24752 0 0 -0.045362 0.233136 0.363247
33 1.11936 0 0 -0.000327918 0.159957 0.657165
34 3.71348 0.10264 0.102191 -1.54675 0.834836 -0.400578
35 1.72615 0 0 -0.0068987 -0.0073266 1.09674
36 1.21112 0 0 0.0103137 0.0102 1.33017
37 3.5992 1.06012 0.0708883 -1.53662 0.394252 -0.182897
38 1.66069 0 0 0.00129288 0.0778541 0.239537
39 1.16699 0 0 0.0426518 0.021851 0.735105
40 2.18853 -0.50104 0.0576594 -1.5728 0.133573 -0.17288
41 1.29609 0 0 0.120501 0.0520645 0.782583
42 1.62202 -0.000713348 -0.000470161 0.0811908 -0.0245018 1.19712
43 1.22241 0 0 -0.0119317 -0.00594711 1.29801
44 1.76707 -1.27612 0.0366412 -1.48212 0.284875 -0.100851
45 1.55587 0 0 0.223724 0.0868401 0.700865
46 1.24273 0 0 0.000478911 0.000360581 0.964696
47 0.784532 0 0 -0.00618631 0.000249599 0.884667
48 0 0 0 0 0 0
49 -5.90782 -23.5506 -6.05862 0.000929835 0.00250335 -0.00172385
50 0 -0.611113 2.11238 0 0 0
51 -0.0145798 -2.43289 2.91209 0 0 0
52 -5.90955 -24.9117 -5.81461 0.000929749 0.00250343 -0.00172329
53 0 -0.675064 1.41593 0 0 0
54 0 0.97938 2.2232 0 0 0
55 0 -3.93658 2.85382 0 0 0
56 0 2.062 1.89702 -0.785398 0 0
57 0 -1.66928 2.73772 0 0 0
58 6.98255 2.1009 -16.1176 0 0 0
time 28
0 6.78963 4.11825 -5.6679 0.000934124 0 -1.53243
1 6.02795 0 0 -1.10567 0.364801 -0.419549
2 11.7344 0 0 -0.00140289 0 -0.678004
3 8.81139 -0.000449181 -0.000111103 -0.588454 0 0.000156973
4 5.77839 0.000286102 0 -0.394264 0 0.000102781
5 2.23164 -0.000329018 -0.000363827 -0.19419 0 0
6 11.4725 0 0 -0.768835 -0.411653 0.55488
7 0.615219 -0.993091 -0.8107 2.36302 0.0866628 -0.357379
8 2.24752 0 0 0.0605673 0.267265 -0.222262
9 1.11936 0 0 0.0749173 0.0546636 -0.249677
10 3.71348 -0.102641 0.102191 1.77126 0.869992 0.142171
11 1.72615 0 0 0.013477 -0.00733089 -0.811382
12 1.21114 0 0 0.0087381 0.0151279 -0.772911
13 3.59919 -1.06012 0.0708883 1.87281 0.766148 0.187135
14 1.66069 0 0 -0.0195999 0.0443892 -0.726687
15 1.167 0 0 0.00841045 -0.00839377 -0.438997
16 2.18853 0.50104 0.0576591 1.57366 -0.0281252 0.156362
17 1.29609 0 0 0.0785581 0.0270527 -1.07235
18 1.62202 0.000713348 -0.000471115 0.00740288 -0.0221109 -0.784237
19 1.22241 0 0 0.000237479 0.00593046 -0.707337
20 1.76707 1.27612 0.0366409 1.57458 0.205155 0.106808
21 1.55588 0 0 -0.0273743 0.0177044 -0.702262
22 1.24273 0 0 -0.000479216 0.000360557 -1.15419
23 0.784524 0 0 0.00636384 -0.0032282 -0.741041
24 -6.70653 7.12182 -4.00061 -0.000932693 0 -1.8749
25 6.02794 0 0 1.17441 0.470881 0.259191
26 11.7344 0 0 0.00140268 0 0.756817
27 8.81167 0 0 0.0714424 0 0
28 5.77884 0 0 0.0478664 0 0
29 2.23249 0 0 0.0235759 0 0
30 11.4725 0 0 0.134172 -0.425261 -0.165447
31 0.615814 0.994372 -0.809166 -2.83171 0.442997 0.480737
32 2.24752 0 0 -0.0453619 0.233136 0.363247
33 1.11936 0 0 -0.000328069 0.159957 0.657165
34 3.71349 0.102639 0.102191 -1.54675 0.834836 -0.400578
35 1.72615 0 0 -0.00689872 -0.00732661 1.09674
36 1.21112 0 0 0.0103137 0.0102 1.33017
37 3.5992 1.06012 0.0708885 -1.53662 0.394253 -0.182897
38 1.66069 0 0 0.00129287 0.0778541 0.239537
39 1.16699 0 0 0.0426519 0.0218511 0.735105
40 2.18853 -0.50104 0.0576588 -1.5728 0.133573 -0.17288
41 1.29609 0 0 0.120501 0.0520644 0.782584
42 1.62202 -0.000715256 -0.000470161 0.0811908 -0.0245018 1.19712
43 1.22241 0 0 -0.0119317 -0.0059471 1.29801
44 1.76707 -1.27612 0.03664 -1.48212 0.284875 -0.100851
45 1.55587 0 0 0.223724 0.0868401 0.700865
46 1.24273 0 0 0.000478927 0.000360573 0.964696
47 0.784533 0 0 -0.00618631 0.000249591 0.884667
48 0 0 0 0 0 0
49 -5.90782 -23.5506 -6.05862 0.000929946 0.00250353 -0.00172486
50 0 -0.611115 2.11238 0 0 0
51 -0.0145802 -2.4155 2.91209 0 0 0
52 -5.90956 -24.9117 -5.81461 0.00092986 0.00250362 -0.0017243
53 0 -0.675066 1.41593 0 0 0
54 0 0.979378 2.2232 0 0 0
55 0 -3.93659 2.85382 0 0 0
56 0 2.062 1.89702 -0.785398 0 0
57 0 -1.66928 2.73772 0 0 0
58 6.98255 2.1009 -16.1176 0 0 0
time 29
0 6.78963 4.11825 -5.6679 0.000934124 0 -1.53243
1 6.02795 0 0 -1.10556 0.365026 -0.419493
2 11.7344 0 0 -0.00140292 0 -0.678209
3 8.81138 -0.000449181 -0.000111341 -0.587404 0 0.000157967
4 5.77839 0.000286102 0 -0.39356 0 0.000103445
5 2.23163 -0.000329018 -0.000364065 -0.193843 0 0
6 11.4725 0 0 -0.76814 -0.41239 0.554984
7 0.615219 -0.993091 -0.8107 2.36302 0.0866627 -0.357379
8 2.24752 0 0 0.0605673 0.267265 -0.222262
9 1.11936 0 0 0.0749174 0.0546634 -0.249677
10 3.71348 -0.102641 0.102191 1.77126 0.869992 0.142171
11 1.72615 0 0 0.013477 -0.00733089 -0.811382
12 1.21114 0 0 0.0087381 0.015128 -0.772911
13 3.59919 -1.06012 0.070888 1.87281 0.766148 0.187134
14 1.66069 0 0 -0.0195999 0.0443892 -0.726687
15 1.167 0 0 0.00841045 -0.00839376 -0.438997
16 2.18853 0.50104 0.0576595 1.57366 -0.0281251 0.156362
17 1.29609 0 0 0.0785581 0.0270526 -1.07235
18 1.62202 0.000713348 -0.000471115 0.00740291 -0.0221109 -0.784237
19 1.22241 0 0 0.000237475 0.00593042 -0.707337
20 1.76707 1.27612 0.0366409 1.57458 0.205155 0.106808
21 1.55587 0 0 -0.0273743 0.0177045 -0.702262
22 1.24274 0 0 -0.000479249 0.000360607 -1.15419
23 0.784523 0 0 0.0063638 -0.00322815 -0.741041
24 -6.70653 7.12182 -4.00061 -0.000932693 0 -1.8749
25 6.02794 0 0 1.17433 0.471036 0.25916
26 11.7344 0 0 0.00140254 0 0.756633
27 8.81167 0 0 0.0727567 0 0
28 5.77884 0 0 0.0487471 0 0
29 2.23249 0 0 0.0240098 0 0
30 11.4725 0 0 0.135103 -0.425002 -0.164896
31 0.615812 0.994371 -0.809165 -2.83171 0.442997 0.480737
32 2.24752 0 0 -0.0453621 0.233135 0.363247
33 1.11936 0 0 -0.000328012 0.159957 0.657165
34 3.71349 0.102638 0.102191 -1.54675 0.834836 -0.400578
35 1.72615 0 0 -0.0068987 -0.0073266 1.09674
36 1.21112 0 0 0.0103137 0.0102 1.33017
37 3.5992 1.06012 0.0708882 -1.53662 0.394253 -0.182897
38 1.66069 0 0 0.00129288 0.0778541 0.239537
39 1.16699 0 0 0.0426518 0.021851 0.735105
40 2.18853 -0.501041 0.0576591 -1.5728 0.133573 -0.17288
41 1.29609 0 0 0.120501 0.0520645 0.782583
42 1.62202 -0.000713348 -0.000470161 0.0811908 -0.0245018 1.19712
43 1.22241 0 0 -0.0119317 -0.00594711 1.29801
44 1.76707 -1.27612 0.0366409 -1.48212 0.284875 -0.100851
45 1.55588 0 0 0.223724 0.08684 0.700865
46 1.24273 0 0 0.000478905 0.00036058 0.964696
47 0.784532 0 0 -0.0061863 0.000249594 0.884667
48 0 0 0 0 0 0
49 -5.9069 -23.5503 -6.06246 0.000620104 0.00166893 -0.00114997
50 0 -0.611113 2.11238 0 0 0
51 -0.0145798 -2.39811 2.91209 0 0 0
52 -5.90806 -24.9114 -5.81803 0.000620018 0.00166901 -0.0011494
53 0 -0.675066 1.41593 0 0 0
54 0 0.979376 2.2232 0 0 0
55 0 -3.93659 2.85382 0 0 0
56 0 2.062 1.89702 -0.785398 0 0
57 0 -1.66928 2.73772 0 0 0
58 6.98255 2.1009 -16.1176 0 0 0
end
