//Sequence File generated by the Wall Worm SMD Exporter PRO 1.99
//www.wallworm.com
version 1
nodes
0 "b_l_clav" -1
1 "b_l_upperarm" 0
2 "b_l_forearm" 1
3 "b_l_twist3" 2
4 "b_l_twist2" 2
5 "b_l_twist1" 2
6 "b_l_hand" 2
7 "b_l_thumb001" 6
8 "b_l_thumb002" 7
9 "b_l_thumb003" 8
10 "b_l_middle001" 6
11 "b_l_middle002" 10
12 "b_l_middle003" 11
13 "b_l_index001" 6
14 "b_l_index002" 13
15 "b_l_index003" 14
16 "b_l_hand_ringsqueezer" 6
17 "b_l_ring001" 16
18 "b_l_ring002" 17
19 "b_l_ring003" 18
20 "b_l_hand_pinkysqueezer" 6
21 "b_l_pinky001" 20
22 "b_l_pinky002" 21
23 "b_l_pinky003" 22
24 "b_r_clav" -1
25 "b_r_upperarm" 24
26 "b_r_forearm" 25
27 "b_r_twist3" 26
28 "b_r_twist2" 26
29 "b_r_twist1" 26
30 "b_r_hand" 26
31 "b_r_thumb001" 30
32 "b_r_thumb002" 31
33 "b_r_thumb003" 32
34 "b_r_middle001" 30
35 "b_r_middle002" 34
36 "b_r_middle003" 35
37 "b_r_index001" 30
38 "b_r_index002" 37
39 "b_r_index003" 38
40 "b_r_hand_ringsqueezer" 30
41 "b_r_ring001" 40
42 "b_r_ring002" 41
43 "b_r_ring003" 42
44 "b_r_hand_pinkysqueezer" 30
45 "b_r_pinky001" 44
46 "b_r_pinky002" 45
47 "b_r_pinky003" 46
48 "b_zero" -1
49 "d_clip" -1
50 "d_magfollower" 49
51 "d_boolet" 49
52 "d_gun" -1
53 "d_trig" 52
54 "d_slidelock" 52
55 "d_slide" 52
56 "d_ham" 52
57 "d_barrel" 52
58 "d_maglite" -1
end
skeleton
time 0
0 6.78963 4.11825 -5.6679 0.000934124 0 -1.53243
1 6.02795 0 0 -1.10536 0.365476 -0.419382
2 11.7344 0 0 -0.00140281 0 -0.678617
3 8.81139 -0.000449181 -0.000111341 -0.5853 0 0.000157946
4 5.77839 0.000287056 0 -0.392151 0 0.000103383
5 2.23164 -0.000328064 -0.000364542 -0.193149 0 0
6 11.4725 0 0 -0.766749 -0.413863 0.555192
7 0.615219 -0.993091 -0.8107 2.36302 0.0866628 -0.35738
8 2.24752 0 0 0.0605672 0.267265 -0.222262
9 1.11936 0 0 0.0749173 0.0546634 -0.249677
10 3.71348 -0.102641 0.102191 1.77126 0.869992 0.142171
11 1.72615 0 0 0.013477 -0.00733089 -0.811382
12 1.21114 0 0 0.00873811 0.015128 -0.772911
13 3.5992 -1.06012 0.070888 1.87281 0.766148 0.187134
14 1.66069 0 0 -0.0195999 0.0443892 -0.726687
15 1.167 0 0 0.00841045 -0.00839376 -0.438998
16 2.18852 0.50104 0.0576588 1.57366 -0.0281251 0.156362
17 1.29609 0 0 0.0785581 0.0270526 -1.07235
18 1.62202 0.000713348 -0.000471115 0.00740291 -0.0221109 -0.784237
19 1.22241 0 0 0.000237472 0.00593045 -0.707337
20 1.76707 1.27612 0.0366409 1.57458 0.205155 0.106808
21 1.55588 0 0 -0.0273742 0.0177044 -0.702262
22 1.24273 0 0 -0.000479209 0.000360491 -1.15419
23 0.784523 0 0 0.00636382 -0.00322814 -0.741041
24 -6.70653 7.12182 -4.00061 -0.000932693 0 -1.8749
25 6.02794 0 0 1.17417 0.471342 0.259099
26 11.7344 0 0 0.00140282 0 0.756263
27 8.81167 0 0 0.0753828 0 0
28 5.77884 0 0 0.0505064 0 0
29 2.23249 0 0 0.0248763 0 0
30 11.4725 0 0 0.136965 -0.424482 -0.163791
31 0.615816 0.994373 -0.809165 -2.83171 0.442997 0.480737
32 2.24752 0 0 -0.0453619 0.233136 0.363247
33 1.11936 0 0 -0.000328095 0.159957 0.657165
34 3.71349 0.10264 0.102191 -1.54675 0.834836 -0.400578
35 1.72615 0 0 -0.00689869 -0.00732658 1.09674
36 1.21112 0 0 0.0103137 0.0102 1.33017
37 3.5992 1.06012 0.0708886 -1.53662 0.394253 -0.182897
38 1.66069 0 0 0.00129288 0.0778541 0.239537
39 1.16699 0 0 0.0426518 0.021851 0.735105
40 2.18853 -0.501041 0.0576594 -1.5728 0.133573 -0.17288
41 1.29609 0 0 0.120501 0.0520644 0.782584
42 1.62202 -0.000713348 -0.000470161 0.0811908 -0.0245018 1.19712
43 1.22241 0 0 -0.0119317 -0.0059471 1.29801
44 1.76707 -1.27612 0.0366409 -1.48212 0.284875 -0.100851
45 1.55588 0 0 0.223724 0.08684 0.700865
46 1.24273 0 0 0.000478905 0.00036058 0.964696
47 0.784532 0 0 -0.0061863 0.000249575 0.884667
48 0 0 0 0 0 0
49 -5.90508 -23.5497 -6.07014 0 0 0
50 0 -0.611113 2.11238 0 0 0
51 -0.0145802 -0.807732 1.90703 -0.856012 0 0
52 -5.90508 -24.9106 -5.82486 0 0 0
53 0 -0.675066 1.41593 0 0 0
54 0 0.979376 2.2232 0 0 0
55 0 -3.93659 2.85382 0 0 0
56 0 2.062 1.89702 -0.785398 0 0
57 0 -1.66928 2.73772 0 0 0
58 6.98255 2.1009 -16.1176 0 0 0
time 1
0 6.78963 4.11825 -5.6679 0.000934124 0 -1.53243
1 6.02795 0 0 -1.1003 0.379045 -0.414563
2 11.7344 0 0 -0.00140285 0 -0.709412
3 8.81139 -0.000450134 -0.000111341 -0.576216 0 0.00015778
4 5.77839 0.000286102 0 -0.386065 0 0.000103397
5 2.23164 -0.000329018 -0.00036335 -0.190151 0 0
6 11.4725 0 0 -0.770104 -0.415248 0.575087
7 0.615219 -0.993091 -0.8107 2.36302 0.0866628 -0.357379
8 2.24752 0 0 0.0605673 0.267265 -0.222262
9 1.11936 0 0 0.0749173 0.0546634 -0.249677
10 3.71348 -0.102641 0.102191 1.77126 0.869992 0.142171
11 1.72615 0 0 0.013477 -0.00733091 -0.811382
12 1.21114 0 0 0.00873808 0.015128 -0.772911
13 3.59919 -1.06012 0.070888 1.87281 0.766148 0.187135
14 1.66069 0 0 -0.0195999 0.0443892 -0.726687
15 1.167 0 0 0.00841045 -0.00839377 -0.438998
16 2.18852 0.50104 0.0576591 1.57366 -0.028125 0.156362
17 1.29609 0 0 0.0785581 0.0270526 -1.07235
18 1.62202 0.000713348 -0.000471115 0.0074029 -0.022111 -0.784237
19 1.22241 0 0 0.000237489 0.00593043 -0.707337
20 1.76707 1.27612 0.0366408 1.57458 0.205155 0.106808
21 1.55588 0 0 -0.0273743 0.0177045 -0.702262
22 1.24274 0 0 -0.000479207 0.000360598 -1.15419
23 0.784523 0 0 0.00636383 -0.0032282 -0.741041
24 -6.70653 7.12182 -4.00061 -0.000932693 0 -1.8749
25 6.02794 0 0 1.1701 0.48658 0.252506
26 11.7344 0 0 0.00140262 0 0.788237
27 8.81167 0 0 0.0687796 0 0
28 5.77884 0 0 0.0460823 0 0
29 2.23249 0 0 0.0226973 0 0
30 11.4725 0 0 0.138857 -0.425155 -0.182081
31 0.615814 0.994372 -0.809166 -2.83171 0.442997 0.480737
32 2.24752 0 0 -0.045362 0.233136 0.363247
33 1.11935 0 0 -0.000328121 0.159957 0.657165
34 3.71349 0.102639 0.102191 -1.54675 0.834836 -0.400578
35 1.72615 0 0 -0.00689868 -0.00732661 1.09674
36 1.21112 0 0 0.0103137 0.0102 1.33017
37 3.5992 1.06012 0.0708884 -1.53662 0.394252 -0.182897
38 1.66069 0 0 0.0208113 0.0750376 0.493738
39 1.16699 0 0 0.0437781 0.00979422 0.988304
40 2.18853 -0.50104 0.057659 -1.5728 0.133573 -0.17288
41 1.29609 0 0 0.120501 0.0520645 0.782584
42 1.62202 -0.000713348 -0.000470161 0.0811908 -0.0245018 1.19712
43 1.22241 0 0 -0.0119317 -0.00594709 1.29801
44 1.76707 -1.27612 0.0366401 -1.48212 0.284875 -0.100851
45 1.55588 0 0 0.223724 0.0868401 0.700864
46 1.24273 0 0 0.000478902 0.000360582 0.964696
47 0.784532 0 0 -0.00618631 0.000249581 0.884667
48 0 0 0 0 0 0
49 -5.90645 -23.4107 -6.07719 0.002039 -0.000840984 -0.000203342
50 0 -0.611116 2.11238 0 0 0
51 -0.0145807 -0.638901 1.79916 -0.947889 0 0
52 -5.90693 -24.7721 -5.83469 0.00203891 -0.000840898 -0.000202778
53 0 -0.565039 1.41593 0.349066 0 0
54 0 0.979378 2.2232 0 0 0
55 0 -3.93659 2.85382 0 0 0
56 0 2.062 1.89702 0.261799 0 0
57 0 -1.66928 2.73772 0 0 0
58 6.98255 2.1009 -16.1176 0 0 0
time 2
0 6.78963 4.11825 -5.6679 0.000934124 0 -1.53243
1 6.02795 0 0 -1.04068 0.501478 -0.367685
2 11.7344 0 0 -0.00140266 0 -1.02452
3 8.81138 -0.000452042 -0.000111341 -0.459893 0 0.000157916
4 5.77839 0.000286102 0 -0.308129 0 0.000103906
5 2.23163 -0.000329971 -0.000363827 -0.151765 0 0
6 11.4725 0 0 -0.781306 -0.490822 0.718187
7 0.615217 -0.993091 -0.8107 2.36302 0.0866629 -0.357379
8 2.24752 0 0 0.0605672 0.267265 -0.222262
9 1.11936 0 0 0.0749173 0.0546635 -0.249677
10 3.71348 -0.102641 0.102191 1.77126 0.869992 0.142172
11 1.72615 0 0 0.013477 -0.00733089 -0.811382
12 1.21114 0 0 0.00873811 0.015128 -0.772911
13 3.59919 -1.06012 0.0708882 1.87281 0.766148 0.187135
14 1.66069 0 0 -0.0195999 0.0443892 -0.726687
15 1.167 0 0 0.00841045 -0.00839377 -0.438997
16 2.18852 0.50104 0.057659 1.57366 -0.0281251 0.156362
17 1.29609 0 0 0.0785581 0.0270526 -1.07235
18 1.62202 0.000713348 -0.000470638 0.00740289 -0.0221109 -0.784237
19 1.22241 0 0 0.000237475 0.00593042 -0.707337
20 1.76707 1.27612 0.0366412 1.57458 0.205155 0.106808
21 1.55588 0 0 -0.0273743 0.0177045 -0.702262
22 1.24274 0 0 -0.000479221 0.000360483 -1.15419
23 0.784524 0 0 0.00636382 -0.00322817 -0.741041
24 -6.70653 7.12182 -4.00061 -0.000932693 0 -1.8749
25 6.02794 0 0 1.12052 0.635099 0.178265
26 11.7344 0 0 0.00140276 0 1.12315
27 8.81167 0 0 0.00331238 0 0
28 5.77884 0 0 0.00221935 0 0
29 2.23249 0 0 0.00109312 0 0
30 11.4725 0 0 0.127179 -0.445016 -0.282076
31 0.615812 0.994372 -0.809166 -2.83171 0.442997 0.480737
32 2.24752 0 0 -0.0453621 0.233136 0.363247
33 1.11936 0 0 -0.000327974 0.159957 0.657165
34 3.71348 0.102639 0.10219 -1.54675 0.834836 -0.400578
35 1.72615 0 0 -0.0068987 -0.00732658 1.09674
36 1.21112 0 0 0.0103137 0.0102 1.33017
37 3.5992 1.06012 0.070888 -1.53662 0.394253 -0.182897
38 1.66069 0 0 0.0208112 0.0750376 0.493738
39 1.16699 0 0 0.0437781 0.00979424 0.988304
40 2.18853 -0.50104 0.0576591 -1.5728 0.133573 -0.17288
41 1.29609 0 0 0.120501 0.0520645 0.782584
42 1.62202 -0.000713348 -0.000469685 0.0811908 -0.0245018 1.19712
43 1.22241 0 0 -0.0119317 -0.00594709 1.29801
44 1.76707 -1.27612 0.0366406 -1.48212 0.284875 -0.100851
45 1.55588 0 0 0.223724 0.08684 0.700865
46 1.24273 0 0 0.00047891 0.000360578 0.964696
47 0.784532 0 0 -0.0061863 0.000249588 0.884667
48 0 0 0 0 0 0
49 -5.85752 -21.5768 -5.59112 -0.0679132 0.00337689 0.0124694
50 0 -0.657108 2.25476 0 0 0
51 -0.0145807 -0.508621 1.71592 -1.01879 0 0
52 -5.83965 -22.9179 -5.25406 -0.0679133 0.00337702 0.01247
53 0 -0.565039 1.41593 0.349066 0 0
54 0 0.979378 2.27945 0.0872665 0 0
55 0 -2.92814 2.85382 0 0 0
56 0 2.062 1.89703 -0.2618 0 0
57 0 -1.66928 2.67088 -0.0184056 0 0
58 6.98255 2.1009 -16.1176 0 0 0
time 3
0 6.78963 4.11825 -5.6679 0.000934124 0 -1.53243
1 6.02795 0 0 -1.02904 0.514809 -0.364843
2 11.7344 0 0 -0.00140299 0 -1.07297
3 8.81138 -0.000450134 -0.000112534 -0.440367 0 0.00015761
4 5.77839 0.00028801 0 -0.295045 0 0.000103644
5 2.23163 -0.000328064 -0.000364304 -0.145321 0 0
6 11.4725 0 0 -0.665797 -0.55367 0.543071
7 0.615219 -0.993091 -0.8107 2.36302 0.0866629 -0.357379
8 2.24752 0 0 0.0605672 0.267265 -0.222262
9 1.11936 0 0 0.0749173 0.0546635 -0.249677
10 3.71348 -0.102641 0.102191 1.77126 0.869992 0.142172
11 1.72615 0 0 0.013477 -0.00733091 -0.811382
12 1.21114 0 0 0.00873811 0.0151279 -0.772911
13 3.59919 -1.06012 0.070888 1.87281 0.766148 0.187135
14 1.66069 0 0 -0.0195999 0.0443892 -0.726687
15 1.167 0 0 0.00841049 -0.00839375 -0.438997
16 2.18853 0.50104 0.0576593 1.57366 -0.0281249 0.156362
17 1.29609 0 0 0.0785581 0.0270526 -1.07235
18 1.62202 0.000715256 -0.000471115 0.0074029 -0.022111 -0.784237
19 1.22241 0 0 0.000237501 0.00593042 -0.707337
20 1.76707 1.27612 0.0366406 1.57458 0.205155 0.106808
21 1.55588 0 0 -0.0273742 0.0177045 -0.702262
22 1.24273 0 0 -0.000479219 0.00036052 -1.15419
23 0.784524 0 0 0.00636383 -0.00322815 -0.741041
24 -6.70653 7.12182 -4.00061 -0.000932693 0 -1.8749
25 6.02794 0 0 1.10266 0.674915 0.154886
26 11.7344 0 0 0.00140246 0 1.20147
27 8.81167 0 0 0.0116119 0 0
28 5.77884 0 0 0.00777995 0 0
29 2.23249 0 0 0.00383201 0 0
30 11.4725 0 0 0.0749121 -0.539345 -0.125903
31 0.615813 0.994373 -0.809165 -2.83171 0.442997 0.480737
32 2.24752 0 0 -0.0453619 0.233136 0.363247
33 1.11936 0 0 -0.000328155 0.159957 0.657165
34 3.71349 0.10264 0.102192 -1.54675 0.834836 -0.400578
35 1.72615 0 0 -0.0068987 -0.00732661 1.09674
36 1.21112 0 0 0.0103137 0.0102 1.33017
37 3.5992 1.06012 0.0708888 -1.53662 0.394252 -0.182897
38 1.66069 0 0 0.0208112 0.0750376 0.493738
39 1.16699 0 0 0.0437781 0.00979418 0.988304
40 2.18853 -0.50104 0.0576594 -1.5728 0.133573 -0.17288
41 1.29609 0 0 0.120501 0.0520645 0.782583
42 1.62201 -0.000711441 -0.000469208 0.0811908 -0.0245018 1.19712
43 1.22241 0 0 -0.0119317 -0.00594711 1.29801
44 1.76707 -1.27612 0.0366412 -1.48212 0.284875 -0.100851
45 1.55588 0 0 0.223724 0.0868401 0.700864
46 1.24273 0 0 0.000478931 0.00036058 0.964696
47 0.784531 0 0 -0.00618631 0.000249583 0.884667
48 0 0 0 0 0 0
49 -6.02758 -20.8637 -4.97638 -0.25936 -0.00393252 -0.0228003
50 0 -0.703102 2.39715 0 0 0
51 -0.0145812 -0.456413 1.68256 -1.0472 0 0
52 -6.05843 -22.1159 -4.39028 -0.25936 -0.00393229 -0.0227998
53 0 -0.565039 1.41593 0.349066 0 0
54 0 0.979378 2.33571 0.174533 0 0
55 0 -1.91969 2.85382 0 0 0
56 0 2.062 1.89703 -0.785398 0 0
57 0 -1.66928 2.60403 -0.0368113 0 0
58 6.98255 2.1009 -16.1176 0 0 0
time 4
0 6.78963 4.11825 -5.6679 0.000934124 0 -1.53243
1 6.02795 0 0 -1.01825 0.522167 -0.366704
2 11.7344 0 0 -0.00140298 0 -1.08316
3 8.81138 -0.000448227 -0.00011158 -0.45189 0 0.000157785
4 5.77839 0.000286102 0 -0.302766 0 0.000103695
5 2.23163 -0.000328064 -0.000363827 -0.149123 0 0
6 11.4725 0 0 -0.680263 -0.531703 0.5576
7 0.615219 -0.993091 -0.8107 2.36302 0.0866627 -0.357379
8 2.24752 0 0 0.0605673 0.267265 -0.222262
9 1.11936 0 0 0.0749173 0.0546635 -0.249677
10 3.71348 -0.102641 0.102191 1.77126 0.869992 0.142171
11 1.72615 0 0 0.013477 -0.00733089 -0.811382
12 1.21114 0 0 0.00873811 0.0151279 -0.772911
13 3.59919 -1.06012 0.0708882 1.87281 0.766148 0.187134
14 1.66069 0 0 -0.0195999 0.0443892 -0.726687
15 1.167 0 0 0.00841046 -0.00839376 -0.438998
16 2.18852 0.50104 0.0576591 1.57366 -0.0281251 0.156362
17 1.29609 0 0 0.0785581 0.0270526 -1.07235
18 1.62202 0.000715256 -0.000471115 0.00740289 -0.0221109 -0.784237
19 1.22241 0 0 0.000237515 0.00593042 -0.707337
20 1.76707 1.27612 0.036641 1.57458 0.205155 0.106808
21 1.55588 0 0 -0.0273743 0.0177045 -0.702262
22 1.24273 0 0 -0.000479196 0.000360499 -1.15419
23 0.784525 0 0 0.0063638 -0.00322818 -0.741041
24 -6.70653 7.12182 -4.00061 -0.000932693 0 -1.8749
25 6.02794 0 0 1.09503 0.695097 0.141216
26 11.7344 0 0 0.00140259 0 1.23347
27 8.81167 0 0 -0.0129396 0 0
28 5.77884 0 0 -0.00866946 0 0
29 2.23249 0 0 -0.00427002 0 0
30 11.4725 0 0 0.0744337 -0.559346 -0.16008
31 0.615812 0.994373 -0.809165 -2.83171 0.442997 0.480737
32 2.24752 0 0 -0.045362 0.233136 0.363247
33 1.11936 0 0 -0.000328016 0.159957 0.657165
34 3.71348 0.102638 0.102191 -1.54675 0.834836 -0.400578
35 1.72615 0 0 -0.0068987 -0.0073266 1.09674
36 1.21112 0 0 0.0103137 0.0102 1.33017
37 3.5992 1.06012 0.0708889 -1.53662 0.394253 -0.182897
38 1.66069 0 0 0.0208112 0.0750376 0.493738
39 1.16699 0 0 0.0437781 0.00979421 0.988304
40 2.18853 -0.50104 0.0576594 -1.5728 0.133573 -0.17288
41 1.29609 0 0 0.120501 0.0520645 0.782583
42 1.62202 -0.000713348 -0.000469208 0.0811908 -0.0245018 1.19712
43 1.22241 0 0 -0.0119317 -0.00594711 1.29801
44 1.76707 -1.27612 0.0366411 -1.48212 0.284875 -0.100851
45 1.55588 0 0 0.223724 0.0868401 0.700864
46 1.24273 0 0 0.000478924 0.000360566 0.964696
47 0.784532 0 0 -0.0061863 0.00024958 0.884667
48 0 0 0 0 0 0
49 -6.21205 -20.6794 -5.12448 -0.24178 -0.00731216 -0.050407
50 0 -0.7031 2.39715 0 0 0
51 -0.0145812 -0.456415 1.68256 -1.0472 0 0
52 -6.27979 -21.9402 -4.5605 -0.24178 -0.00731194 -0.0504065
53 0 -0.565039 1.41593 0.349066 0 0
54 0 0.979378 2.33571 0.174533 0 0
55 0 -1.9197 2.85382 0 0 0
56 0 2.062 1.89703 -0.785398 0 0
57 0 -1.66928 2.60403 -0.0368113 0 0
58 6.98255 2.1009 -16.1176 0 0 0
time 5
0 6.78963 4.11825 -5.6679 0.000934124 0 -1.53243
1 6.02795 0 0 -1.0068 0.530831 -0.367514
2 11.7344 0 0 -0.00140289 0 -1.09002
3 8.81138 -0.000450134 -0.00011301 -0.466461 0 0.000157709
4 5.77839 0.00028801 0 -0.312529 0 0.000103783
5 2.23163 -0.000329971 -0.00036478 -0.153932 0 0
6 11.4725 0 0 -0.737845 -0.48317 0.64656
7 0.615219 -0.993091 -0.810701 2.36302 0.0866628 -0.357379
8 2.24752 0 0 0.0605673 0.267265 -0.222262
9 1.11936 0 0 0.0749173 0.0546635 -0.249677
10 3.71348 -0.102641 0.102191 1.77126 0.869992 0.142171
11 1.72615 0 0 0.013477 -0.00733088 -0.811382
12 1.21114 0 0 0.0087381 0.0151279 -0.772911
13 3.59919 -1.06012 0.0708876 1.87281 0.766148 0.187135
14 1.66069 0 0 -0.0195999 0.0443892 -0.726687
15 1.167 0 0 0.00841046 -0.00839376 -0.438997
16 2.18852 0.50104 0.0576589 1.57366 -0.028125 0.156362
17 1.29609 0 0 0.0785581 0.0270526 -1.07235
18 1.62202 0.000713348 -0.000471115 0.0074029 -0.0221109 -0.784237
19 1.22241 0 0 0.000237489 0.00593043 -0.707337
20 1.76707 1.27612 0.0366403 1.57458 0.205155 0.106808
21 1.55588 0 0 -0.0273743 0.0177045 -0.702262
22 1.24273 0 0 -0.000479225 0.000360516 -1.15419
23 0.784523 0 0 0.00636382 -0.00322816 -0.741041
24 -6.70653 7.12182 -4.00061 -0.000932693 0 -1.8749
25 6.02794 0 0 1.08971 0.710021 0.130548
26 11.7344 0 0 0.0014027 0 1.25551
27 8.81167 0 0 -0.0481382 0 0
28 5.77884 0 0 -0.0322526 0 0
29 2.23249 0 0 -0.0158856 0 0
30 11.4725 0 0 0.102409 -0.550546 -0.271046
31 0.615814 0.994373 -0.809165 -2.83171 0.442997 0.480737
32 2.24752 0 0 -0.0453619 0.233136 0.363247
33 1.11936 0 0 -0.000328148 0.159957 0.657165
34 3.71349 0.10264 0.102191 -1.54675 0.834836 -0.400578
35 1.72615 0 0 -0.0068987 -0.00732659 1.09674
36 1.21112 0 0 0.0103137 0.0102 1.33017
37 3.5992 1.06012 0.070888 -1.53662 0.394252 -0.182897
38 1.66069 0 0 0.0208113 0.0750375 0.493738
39 1.16699 0 0 0.0437781 0.00979422 0.988304
40 2.18853 -0.50104 0.0576586 -1.5728 0.133573 -0.17288
41 1.29609 0 0 0.120501 0.0520644 0.782584
42 1.62202 -0.000713348 -0.000470161 0.0811908 -0.0245018 1.19712
43 1.22241 0 0 -0.0119317 -0.00594712 1.29801
44 1.76707 -1.27612 0.0366405 -1.48212 0.284875 -0.100851
45 1.55588 0 0 0.223724 0.0868401 0.700864
46 1.24273 0 0 0.00047892 0.000360573 0.964696
47 0.784533 0 0 -0.00618631 0.000249588 0.884667
48 0 0 0 0 0 0
49 -6.36726 -20.6492 -5.52065 -0.14918 -0.00897506 -0.0706063
50 0 -0.703102 2.39715 0 0 0
51 -0.0145812 -0.456411 1.68256 -1.0472 0 0
52 -6.46361 -21.955 -5.07584 -0.14918 -0.00897488 -0.0706058
53 0 -0.565042 1.41593 0.349066 0 0
54 0 0.979376 2.33571 0.174533 0 0
55 0 -1.9197 2.85382 0 0 0
56 0 2.062 1.89703 -0.785398 0 0
57 0 -1.66928 2.60403 -0.0368113 0 0
58 6.98255 2.1009 -16.1176 0 0 0
time 6
0 6.78963 4.11825 -5.6679 0.000934124 0 -1.53243
1 6.02795 0 0 -0.997668 0.539076 -0.366483
2 11.7344 0 0 -0.0014029 0 -1.10349
3 8.81138 -0.000450134 -0.000112534 -0.469298 0 0.000157927
4 5.77839 0.00028801 0 -0.31443 0 0.000103886
5 2.23163 -0.000328064 -0.000364304 -0.154869 0 0
6 11.4725 0 0 -0.758971 -0.473292 0.679682
7 0.615217 -0.993091 -0.810701 2.36302 0.0866628 -0.357379
8 2.24752 0 0 0.0605673 0.267265 -0.222262
9 1.11936 0 0 0.0749173 0.0546634 -0.249677
10 3.71348 -0.102641 0.102191 1.77126 0.869992 0.142171
11 1.72615 0 0 0.013477 -0.00733091 -0.811382
12 1.21114 0 0 0.00873808 0.0151279 -0.77291
13 3.59919 -1.06012 0.0708883 1.87281 0.766148 0.187134
14 1.66068 0 0 -0.0195999 0.0443892 -0.726687
15 1.167 0 0 0.00841045 -0.00839377 -0.438997
16 2.18852 0.50104 0.057659 1.57366 -0.0281249 0.156362
17 1.29609 0 0 0.0785581 0.0270526 -1.07235
18 1.62202 0.000715256 -0.000471115 0.00740291 -0.0221109 -0.784237
19 1.22241 0 0 0.000237482 0.00593043 -0.707337
20 1.76707 1.27612 0.0366405 1.57458 0.205155 0.106808
21 1.55588 0 0 -0.0273743 0.0177044 -0.702263
22 1.24274 0 0 -0.000479229 0.000360549 -1.15419
23 0.784523 0 0 0.00636383 -0.00322819 -0.741041
24 -6.70653 7.12182 -4.00061 -0.000932693 0 -1.8749
25 6.02794 0 0 1.08415 0.722841 0.121493
26 11.7344 0 0 0.00140276 0 1.27624
27 8.81167 0 0 -0.0614249 0 0
28 5.77884 0 0 -0.0411547 0 0
29 2.23249 0 0 -0.0202702 0 0
30 11.4725 0 0 0.109255 -0.546448 -0.307121
31 0.615814 0.994373 -0.809165 -2.83171 0.442997 0.480737
32 2.24752 0 0 -0.045362 0.233136 0.363247
33 1.11935 0 0 -0.000328072 0.159957 0.657165
34 3.71349 0.10264 0.10219 -1.54675 0.834836 -0.400578
35 1.72615 0 0 -0.0068987 -0.00732662 1.09674
36 1.21112 0 0 0.0103137 0.0102 1.33017
37 3.5992 1.06012 0.070888 -1.53662 0.394253 -0.182897
38 1.66069 0 0 0.0208112 0.0750376 0.493738
39 1.16699 0 0 0.0437781 0.00979419 0.988304
40 2.18853 -0.50104 0.0576598 -1.5728 0.133573 -0.17288
41 1.29609 0 0 0.120501 0.0520644 0.782583
42 1.62201 -0.000715256 -0.000469208 0.0811908 -0.0245018 1.19712
43 1.22241 0 0 -0.0119317 -0.0059471 1.29801
44 1.76707 -1.27612 0.0366406 -1.48212 0.284875 -0.100851
45 1.55588 0 0 0.223724 0.0868401 0.700864
46 1.24273 0 0 0.00047892 0.000360574 0.964696
47 0.784531 0 0 -0.00618631 0.000249588 0.884667
48 0 0 0 0 0 0
49 -6.43382 -20.532 -5.66808 -0.122367 -0.00801731 -0.0755099
50 0 -0.7031 2.39715 0 0 0
51 -0.0145812 -0.456409 1.68256 -1.0472 0 0
52 -6.53673 -21.8488 -5.25853 -0.122367 -0.00801715 -0.0755094
53 0 -0.565039 1.41593 0.349066 0 0
54 0 0.979376 2.33571 0.174533 0 0
55 0 -1.91969 2.85382 0 0 0
56 0 2.062 1.89703 -0.785398 0 0
57 0 -1.66928 2.60403 -0.0368113 0 0
58 6.98255 2.1009 -16.1176 0 0 0
time 7
0 6.78963 4.11825 -5.6679 0.000934124 0 -1.53243
1 6.02795 0 0 -0.992804 0.543438 -0.365842
2 11.7344 0 0 -0.00140287 0 -1.1096
3 8.81138 -0.000448227 -0.00011301 -0.469039 0 0.000158104
4 5.77839 0.00028801 0 -0.314256 0 0.000103909
5 2.23163 -0.000328064 -0.000362873 -0.154783 0 0
6 11.4725 0 0 -0.769456 -0.483321 0.692715
7 0.615217 -0.993091 -0.8107 2.36302 0.0866629 -0.357379
8 2.24752 0 0 0.0605673 0.267265 -0.222262
9 1.11936 0 0 0.0749173 0.0546635 -0.249677
10 3.71348 -0.102641 0.102191 1.77126 0.869992 0.142171
11 1.72615 0 0 0.013477 -0.00733089 -0.811382
12 1.21114 0 0 0.00873812 0.015128 -0.772911
13 3.59919 -1.06012 0.0708885 1.87281 0.766148 0.187134
14 1.66069 0 0 -0.0195999 0.0443892 -0.726687
15 1.167 0 0 0.00841046 -0.00839376 -0.438998
16 2.18852 0.50104 0.0576588 1.57366 -0.0281251 0.156362
17 1.29609 0 0 0.0785581 0.0270527 -1.07235
18 1.62202 0.000715256 -0.000471115 0.0074029 -0.022111 -0.784237
19 1.22241 0 0 0.00023749 0.0059304 -0.707337
20 1.76707 1.27612 0.0366408 1.57458 0.205155 0.106808
21 1.55587 0 0 -0.0273743 0.0177045 -0.702262
22 1.24273 0 0 -0.00047925 0.0003605 -1.15419
23 0.784523 0 0 0.00636383 -0.00322819 -0.741041
24 -6.70653 7.12182 -4.00061 -0.000932693 0 -1.8749
25 6.02794 0 0 1.08234 0.728145 0.117477
26 11.7344 0 0 0.00140257 0 1.28263
27 8.81167 0 0 -0.0585202 0 0
28 5.77884 0 0 -0.0392085 0 0
29 2.23249 0 0 -0.0193117 0 0
30 11.4725 0 0 0.109034 -0.535046 -0.308268
31 0.615811 0.994373 -0.809166 -2.83171 0.442997 0.480737
32 2.24752 0 0 -0.045362 0.233136 0.363247
33 1.11936 0 0 -0.000327948 0.159957 0.657165
34 3.71348 0.10264 0.102191 -1.54675 0.834836 -0.400578
35 1.72615 0 0 -0.0068987 -0.00732658 1.09674
36 1.21112 0 0 0.0103137 0.0102 1.33017
37 3.5992 1.06012 0.0708879 -1.53662 0.394253 -0.182897
38 1.66069 0 0 0.0208113 0.0750376 0.493738
39 1.16699 0 0 0.0437781 0.00979424 0.988304
40 2.18853 -0.50104 0.0576591 -1.5728 0.133574 -0.17288
41 1.29609 0 0 0.120501 0.0520644 0.782583
42 1.62202 -0.000713348 -0.000470161 0.0811908 -0.0245018 1.19712
43 1.22241 0 0 -0.0119317 -0.00594711 1.29801
44 1.76707 -1.27612 0.0366407 -1.48212 0.284875 -0.100851
45 1.55588 0 0 0.223724 0.0868401 0.700865
46 1.24273 0 0 0.000478918 0.000360574 0.964696
47 0.784532 0 0 -0.00618631 0.000249578 0.884667
48 0 0 0 0 0 0
49 -6.43296 -20.4888 -5.72439 -0.118319 -0.00525107 -0.0660815
50 0 -0.7031 2.39715 0 0 0
51 -0.0145812 -0.456411 1.68256 -1.0472 0 0
52 -6.52241 -21.8083 -5.32018 -0.118319 -0.00525091 -0.066081
53 0 -0.565037 1.41593 0.349066 0 0
54 0 0.979376 2.33571 0.174533 0 0
55 0 -1.91969 2.85382 0 0 0
56 0 2.062 1.89703 -0.785398 0 0
57 0 -1.66928 2.60403 -0.0368113 0 0
58 6.98255 2.1009 -16.1176 0 0 0
time 8
0 6.78963 4.11825 -5.6679 0.000934124 0 -1.53243
1 6.02795 0 0 -0.991929 0.544076 -0.365878
2 11.7344 0 0 -0.00140301 0 -1.10813
3 8.81138 -0.000450134 -0.00011158 -0.46773 0 0.000157577
4 5.77839 0.000286102 0 -0.313379 0 0.000103614
5 2.23163 -0.000329971 -0.000362396 -0.154351 0 0
6 11.4725 0 0 -0.772148 -0.505219 0.691125
7 0.615219 -0.993092 -0.8107 2.36302 0.0866627 -0.357379
8 2.24752 0 0 0.0605673 0.267265 -0.222262
9 1.11936 0 0 0.0749173 0.0546636 -0.249677
10 3.71348 -0.102642 0.102191 1.77126 0.869992 0.142171
11 1.72615 0 0 0.013477 -0.00733091 -0.811382
12 1.21114 0 0 0.0087381 0.015128 -0.772911
13 3.59919 -1.06012 0.0708882 1.87281 0.766148 0.187134
14 1.66069 0 0 -0.0195999 0.0443892 -0.726687
15 1.167 0 0 0.00841045 -0.00839376 -0.438998
16 2.18853 0.50104 0.0576593 1.57366 -0.0281251 0.156362
17 1.29609 0 0 0.0785581 0.0270526 -1.07235
18 1.62202 0.000713348 -0.000470638 0.00740289 -0.0221109 -0.784237
19 1.22241 0 0 0.00023748 0.00593041 -0.707337
20 1.76707 1.27612 0.0366412 1.57458 0.205155 0.106808
21 1.55588 0 0 -0.0273743 0.0177045 -0.702263
22 1.24273 0 0 -0.000479201 0.000360478 -1.15419
23 0.784524 0 0 0.00636382 -0.00322819 -0.741041
24 -6.70653 7.12182 -4.00061 -0.000932693 0 -1.8749
25 6.02794 0 0 1.08412 0.726455 0.118308
26 11.7344 0 0 0.00140263 0 1.27562
27 8.81167 0 0 -0.0447389 0 0
28 5.77884 0 0 -0.029975 0 0
29 2.23249 0 0 -0.0147639 0 0
30 11.4725 0 0 0.104946 -0.519206 -0.285872
31 0.615813 0.994372 -0.809165 -2.83171 0.442997 0.480737
32 2.24752 0 0 -0.045362 0.233136 0.363247
33 1.11935 0 0 -0.000328035 0.159957 0.657165
34 3.71349 0.102639 0.102191 -1.54675 0.834836 -0.400578
35 1.72615 0 0 -0.00689871 -0.0073266 1.09674
36 1.21112 0 0 0.0103137 0.0102 1.33017
37 3.5992 1.06012 0.0708878 -1.53662 0.394253 -0.182897
38 1.66069 0 0 0.0208113 0.0750376 0.493738
39 1.16699 0 0 0.0437781 0.00979423 0.988304
40 2.18853 -0.50104 0.057659 -1.5728 0.133574 -0.17288
41 1.29609 0 0 0.120501 0.0520645 0.782583
42 1.62201 -0.000713348 -0.000470161 0.0811908 -0.0245018 1.19712
43 1.22241 0 0 -0.0119317 -0.00594711 1.29801
44 1.76707 -1.27612 0.0366405 -1.48212 0.284875 -0.100851
45 1.55588 0 0 0.223724 0.08684 0.700865
46 1.24273 0 0 0.000478917 0.000360568 0.964696
47 0.784532 0 0 -0.00618631 0.000249583 0.884667
48 0 0 0 0 0 0
49 -6.38682 -20.5173 -5.71935 -0.128651 -0.00153267 -0.0478163
50 0 -0.7031 2.39715 0 0 0
51 -0.0145817 -0.456411 1.68256 -1.0472 0 0
52 -6.45047 -21.834 -5.3015 -0.128651 -0.00153251 -0.0478157
53 0 -0.565039 1.41593 0.349066 0 0
54 0 0.979376 2.33571 0.174533 0 0
55 0 -1.91969 2.85382 0 0 0
56 0 2.062 1.89703 -0.785398 0 0
57 0 -1.66928 2.60403 -0.0368113 0 0
58 6.98255 2.1009 -16.1176 0 0 0
time 9
0 6.78963 4.11825 -5.6679 0.000934124 0 -1.53243
1 6.02795 0 0 -0.994643 0.541083 -0.366861
2 11.7344 0 0 -0.00140276 0 -1.09875
3 8.81139 -0.000450134 -0.000110865 -0.467533 0 0.000157452
4 5.77839 0.000286102 0 -0.313247 0 0.000103556
5 2.23163 -0.000329971 -0.000364304 -0.154286 0 0
6 11.4725 0 0 -0.769617 -0.530758 0.679852
7 0.615219 -0.993092 -0.8107 2.36302 0.0866627 -0.357379
8 2.24752 0 0 0.0605673 0.267265 -0.222262
9 1.11936 0 0 0.0749175 0.0546636 -0.249677
10 3.71348 -0.102641 0.102191 1.77126 0.869992 0.142171
11 1.72615 0 0 0.013477 -0.00733088 -0.811382
12 1.21114 0 0 0.0087381 0.0151279 -0.772911
13 3.59919 -1.06012 0.0708876 1.87281 0.766148 0.187134
14 1.66069 0 0 -0.0195999 0.0443892 -0.726687
15 1.167 0 0 0.00841045 -0.00839376 -0.438997
16 2.18852 0.50104 0.057659 1.57366 -0.028125 0.156362
17 1.29609 0 0 0.0785582 0.0270526 -1.07235
18 1.62202 0.000711441 -0.000471115 0.00740289 -0.022111 -0.784237
19 1.22241 0 0 0.000237448 0.00593044 -0.707337
20 1.76707 1.27612 0.0366411 1.57458 0.205155 0.106808
21 1.55588 0 0 -0.0273743 0.0177045 -0.702262
22 1.24273 0 0 -0.000479229 0.000360549 -1.15419
23 0.784524 0 0 0.00636386 -0.00322821 -0.741041
24 -6.70653 7.12182 -4.00061 -0.000932693 0 -1.8749
25 6.02794 0 0 1.08878 0.719061 0.123026
26 11.7344 0 0 0.0014028 0 1.25791
27 8.81167 0 0 -0.0258017 0 0
28 5.77884 0 0 -0.0172871 0 0
29 2.23249 0 0 -0.00851455 0 0
30 11.4725 0 0 0.100118 -0.501452 -0.252099
31 0.615811 0.994372 -0.809165 -2.83171 0.442997 0.480737
32 2.24752 0 0 -0.045362 0.233135 0.363247
33 1.11936 0 0 -0.000327986 0.159957 0.657165
34 3.71349 0.102639 0.102191 -1.54675 0.834836 -0.400578
35 1.72615 0 0 -0.00689872 -0.00732661 1.09674
36 1.21112 0 0 0.0103137 0.0102 1.33017
37 3.5992 1.06012 0.0708888 -1.53662 0.394253 -0.182897
38 1.66069 0 0 0.0208112 0.0750376 0.493738
39 1.16699 0 0 0.0437781 0.00979422 0.988304
40 2.18853 -0.501041 0.057659 -1.5728 0.133573 -0.17288
41 1.29609 0 0 0.120501 0.0520645 0.782584
42 1.62202 -0.000715256 -0.000469685 0.0811908 -0.0245018 1.19712
43 1.22241 0 0 -0.0119317 -0.00594711 1.29801
44 1.76707 -1.27612 0.0366408 -1.48212 0.284875 -0.100851
45 1.55588 0 0 0.223724 0.0868401 0.700865
46 1.24273 0 0 0.000478919 0.000360571 0.964696
47 0.784532 0 0 -0.00618631 0.00024959 0.884667
48 0 0 0 0 0 0
49 -6.3169 -20.6131 -5.68367 -0.14494 0.00248106 -0.0259909
50 0 -0.7031 2.39715 0 0 0
51 -0.0145807 -0.456415 1.68256 -1.0472 0 0
52 -6.34988 -21.9239 -5.2444 -0.14494 0.00248123 -0.0259904
53 0 -0.565037 1.41593 0.349066 0 0
54 0 0.979378 2.33571 0.174533 0 0
55 0 -1.91969 2.85382 0 0 0
56 0 2.062 1.89703 -0.785398 0 0
57 0 -1.66928 2.60403 -0.0368113 0 0
58 6.98255 2.1009 -16.1176 0 0 0
time 10
0 6.78963 4.11825 -5.6679 0.000934124 0 -1.53243
1 6.02795 0 0 -1.00053 0.534422 -0.369052
2 11.7344 0 0 -0.00140262 0 -1.08088
3 8.81138 -0.000450134 -0.000111818 -0.47072 0 0.000157972
4 5.77839 0.000286102 0 -0.315382 0 0.000103855
5 2.23163 -0.000328064 -0.00036335 -0.155338 0 0
6 11.4725 0 0 -0.765037 -0.551596 0.663881
7 0.615221 -0.993092 -0.8107 2.36302 0.0866626 -0.35738
8 2.24752 0 0 0.0605672 0.267265 -0.222263
9 1.11936 0 0 0.0749174 0.0546635 -0.249677
10 3.71348 -0.10264 0.102191 1.77126 0.869992 0.142171
11 1.72615 0 0 0.013477 -0.00733088 -0.811382
12 1.21114 0 0 0.0087381 0.0151279 -0.772911
13 3.59919 -1.06012 0.0708883 1.87281 0.766148 0.187134
14 1.66069 0 0 -0.0195999 0.0443892 -0.726687
15 1.167 0 0 0.00841046 -0.00839377 -0.438998
16 2.18852 0.50104 0.0576591 1.57366 -0.0281251 0.156362
17 1.29609 0 0 0.0785581 0.0270526 -1.07235
18 1.62202 0.000715256 -0.000471115 0.00740291 -0.0221109 -0.784236
19 1.22241 0 0 0.000237506 0.0059304 -0.707337
20 1.76707 1.27612 0.0366409 1.57458 0.205155 0.106808
21 1.55588 0 0 -0.0273743 0.0177045 -0.702262
22 1.24273 0 0 -0.000479206 0.000360528 -1.15419
23 0.784523 0 0 0.00636383 -0.00322823 -0.741041
24 -6.70653 7.12182 -4.00061 -0.000932693 0 -1.8749
25 6.02794 0 0 1.09576 0.706563 0.131042
26 11.7344 0 0 0.00140275 0 1.23064
27 8.81167 0 0 -0.00663598 0 0
28 5.77884 0 0 -0.00444609 0 0
29 2.23249 0 0 -0.00218993 0 0
30 11.4725 0 0 0.0967764 -0.484389 -0.217867
31 0.61581 0.994373 -0.809166 -2.83171 0.442997 0.480737
32 2.24752 0 0 -0.0453619 0.233136 0.363247
33 1.11936 0 0 -0.000328204 0.159957 0.657165
34 3.71349 0.102639 0.10219 -1.54675 0.834836 -0.400578
35 1.72615 0 0 -0.0068987 -0.0073266 1.09674
36 1.21112 0 0 0.0103137 0.0102 1.33017
37 3.5992 1.06012 0.0708876 -1.53662 0.394253 -0.182897
38 1.66069 0 0 0.0208112 0.0750376 0.493738
39 1.16699 0 0 0.0437781 0.00979419 0.988304
40 2.18853 -0.501041 0.057659 -1.5728 0.133573 -0.17288
41 1.29609 0 0 0.120501 0.0520644 0.782583
42 1.62201 -0.000713348 -0.000470161 0.0811908 -0.0245018 1.19712
43 1.22241 0 0 -0.0119317 -0.00594713 1.29801
44 1.76707 -1.27612 0.0366405 -1.48212 0.284875 -0.100851
45 1.55588 0 0 0.223724 0.0868401 0.700865
46 1.24273 0 0 0.000478922 0.000360575 0.964696
47 0.784532 0 0 -0.00618632 0.000249584 0.884667
48 0 0 0 0 0 0
49 -6.24423 -20.7743 -5.64763 -0.158781 0.00610086 -0.00584521
50 0 -0.7031 2.39715 0 0 0
51 -0.0145812 -0.456411 1.68256 -1.0472 0 0
52 -6.24907 -22.0793 -5.19027 -0.158781 0.00610104 -0.00584467
53 0 -0.565039 1.41593 0.349066 0 0
54 0 0.979374 2.33571 0.174533 0 0
55 0 -1.9197 2.85382 0 0 0
56 0 2.062 1.89702 -0.785398 0 0
57 0 -1.66928 2.60403 -0.0368112 0 0
58 6.98255 2.1009 -16.1176 0 0 0
time 11
0 6.78963 4.11825 -5.6679 0.000934124 0 -1.53243
1 6.02795 0 0 -1.00916 0.523946 -0.372691
2 11.7344 0 0 -0.00140282 0 -1.05377
3 8.81138 -0.000448227 -0.000113487 -0.47942 0 0.000157715
4 5.77839 0.000286102 0 -0.321212 0 0.000103714
5 2.23163 -0.000328064 -0.00036335 -0.158209 0 0
6 11.4725 0 0 -0.762367 -0.559389 0.64858
7 0.615219 -0.993091 -0.8107 2.36302 0.0866628 -0.357379
8 2.24752 0 0 0.0605673 0.267265 -0.222262
9 1.11936 0 0 0.0749173 0.0546635 -0.249677
10 3.71348 -0.10264 0.102191 1.77126 0.869992 0.142171
11 1.72615 0 0 0.013477 -0.00733092 -0.811382
12 1.21114 0 0 0.00873812 0.015128 -0.772911
13 3.59919 -1.06012 0.0708882 1.87281 0.766148 0.187135
14 1.66069 0 0 -0.0195999 0.0443892 -0.726687
15 1.167 0 0 0.00841045 -0.00839377 -0.438998
16 2.18853 0.50104 0.0576588 1.57366 -0.0281251 0.156362
17 1.2961 0 0 0.0785581 0.0270526 -1.07235
18 1.62202 0.000713348 -0.000471115 0.00740291 -0.022111 -0.784236
19 1.22241 0 0 0.00023747 0.00593044 -0.707337
20 1.76707 1.27612 0.0366408 1.57458 0.205155 0.106808
21 1.55588 0 0 -0.0273743 0.0177045 -0.702262
22 1.24274 0 0 -0.000479225 0.000360516 -1.15419
23 0.784523 0 0 0.00636384 -0.0032282 -0.741041
24 -6.70653 7.12182 -4.00061 -0.000932693 0 -1.8749
25 6.02794 0 0 1.10445 0.689575 0.141699
26 11.7344 0 0 0.00140262 0 1.19495
27 8.81167 0 0 0.00824126 0 0
28 5.77884 0 0 0.00552163 0 0
29 2.23249 0 0 0.00271961 0 0
30 11.4725 0 0 0.0961507 -0.470713 -0.193692
31 0.615812 0.994373 -0.809165 -2.83171 0.442997 0.480737
32 2.24752 0 0 -0.0453618 0.233136 0.363247
33 1.11936 0 0 -0.000328129 0.159957 0.657165
34 3.71349 0.102638 0.102191 -1.54675 0.834836 -0.400578
35 1.72615 0 0 -0.00689872 -0.0073266 1.09674
36 1.21112 0 0 0.0103137 0.0102 1.33017
37 3.5992 1.06012 0.0708889 -1.53662 0.394253 -0.182897
38 1.66069 0 0 0.0208113 0.0750375 0.493738
39 1.16699 0 0 0.0437781 0.00979421 0.988304
40 2.18853 -0.50104 0.0576591 -1.5728 0.133573 -0.17288
41 1.29609 0 0 0.120501 0.0520644 0.782583
42 1.62202 -0.000711441 -0.000469208 0.0811908 -0.0245018 1.19712
43 1.22241 0 0 -0.0119317 -0.00594712 1.29801
44 1.76707 -1.27612 0.0366413 -1.48212 0.284875 -0.100851
45 1.55588 0 0 0.223724 0.0868401 0.700865
46 1.24273 0 0 0.000478921 0.000360569 0.964696
47 0.784532 0 0 -0.00618631 0.000249584 0.884667
48 0 0 0 0 0 0
49 -6.18926 -21.0021 -5.64088 -0.161789 0.00855969 0.00737258
50 0 -0.7031 2.39715 0 0 0
51 -0.0145802 -0.456411 1.68256 -1.0472 0 0
52 -6.1757 -22.3057 -5.1796 -0.161789 0.00855987 0.00737313
53 0 -0.565037 1.41593 0.349066 0 0
54 0 0.979378 2.33571 0.174533 0 0
55 0 -1.91969 2.85382 0 0 0
56 0 2.062 1.89703 -0.785398 0 0
57 0 -1.66928 2.60403 -0.0368113 0 0
58 6.98255 2.1009 -16.1176 0 0 0
time 12
0 6.78963 4.11825 -5.6679 0.000934124 0 -1.53243
1 6.02795 0 0 -1.01986 0.509945 -0.377669
2 11.7344 0 0 -0.00140284 0 -1.01821
3 8.81138 -0.000448227 -0.00011158 -0.492841 0 0.000157836
4 5.77839 0.000286102 0 -0.330204 0 0.000103642
5 2.23163 -0.000328064 -0.00036335 -0.162638 0 0
6 11.4725 0 0 -0.762984 -0.554423 0.636034
7 0.615219 -0.993092 -0.810699 2.36302 0.0866627 -0.35738
8 2.24752 0 0 0.0605673 0.267265 -0.222262
9 1.11936 0 0 0.0749174 0.0546635 -0.249677
10 3.71348 -0.102641 0.102191 1.77126 0.869992 0.142171
11 1.72615 0 0 0.013477 -0.00733088 -0.811382
12 1.21114 0 0 0.00873809 0.015128 -0.77291
13 3.59919 -1.06012 0.070888 1.87281 0.766148 0.187134
14 1.66068 0 0 -0.0195999 0.0443892 -0.726687
15 1.167 0 0 0.00841046 -0.00839377 -0.438998
16 2.18853 0.50104 0.0576595 1.57366 -0.0281252 0.156362
17 1.29609 0 0 0.0785581 0.0270527 -1.07235
18 1.62202 0.000715256 -0.000471592 0.00740291 -0.022111 -0.784236
19 1.22241 0 0 0.000237479 0.00593042 -0.707337
20 1.76707 1.27612 0.0366411 1.57458 0.205155 0.106808
21 1.55588 0 0 -0.0273743 0.0177045 -0.702262
22 1.24273 0 0 -0.000479204 0.000360565 -1.15419
23 0.784523 0 0 0.00636386 -0.00322819 -0.741041
24 -6.70653 7.12182 -4.00061 -0.000932693 0 -1.8749
25 6.02794 0 0 1.1142 0.668877 0.154249
26 11.7344 0 0 0.0014029 0 1.15233
27 8.81167 0 0 0.0187622 0 0
28 5.77884 0 0 0.0125707 0 0
29 2.23249 0 0 0.0061915 0 0
30 11.4725 0 0 0.0979228 -0.45999 -0.180777
31 0.615813 0.994372 -0.809166 -2.83171 0.442997 0.480737
32 2.24752 0 0 -0.045362 0.233135 0.363247
33 1.11936 0 0 -0.000327963 0.159957 0.657165
34 3.71349 0.102639 0.102191 -1.54675 0.834836 -0.400578
35 1.72615 0 0 -0.00689871 -0.0073266 1.09674
36 1.21112 0 0 0.0103137 0.0102 1.33017
37 3.5992 1.06012 0.0708882 -1.53662 0.394253 -0.182897
38 1.66069 0 0 0.0157511 0.0757678 0.427834
39 1.16699 0 0 0.0434863 0.0129201 0.92266
40 2.18853 -0.50104 0.0576587 -1.5728 0.133573 -0.17288
41 1.29609 0 0 0.120501 0.0520645 0.782583
42 1.62202 -0.000711441 -0.000470161 0.0811908 -0.0245018 1.19712
43 1.22241 0 0 -0.0119317 -0.00594711 1.29801
44 1.76707 -1.27612 0.0366405 -1.48212 0.284875 -0.100851
45 1.55587 0 0 0.223724 0.0868401 0.700865
46 1.24273 0 0 0.000478921 0.000360572 0.964696
47 0.784532 0 0 -0.00618631 0.000249587 0.884667
48 0 0 0 0 0 0
49 -6.15199 -21.2857 -5.66771 -0.15306 0.00982315 0.0139567
50 0 -0.703102 2.39715 0 0 0
51 -0.0145798 -0.456415 1.68256 -1.0472 0 0
52 -6.12932 -22.5931 -5.21783 -0.15306 0.00982332 0.0139573
53 0 -0.593563 1.41593 0.258567 0 0
54 0 0.979376 2.33571 0.174533 0 0
55 0 -1.91969 2.85382 0 0 0
56 0 2.062 1.89703 -0.785398 0 0
57 0 -1.66928 2.60403 -0.0368112 0 0
58 6.98255 2.1009 -16.1176 0 0 0
time 13
0 6.78963 4.11825 -5.6679 0.000934124 0 -1.53243
1 6.02795 0 0 -1.03167 0.49348 -0.383365
2 11.7344 0 0 -0.00140287 0 -0.977203
3 8.81138 -0.000448227 -0.000111818 -0.508034 0 0.000157147
4 5.77839 0.000286102 0 -0.340383 0 0.000103232
5 2.23163 -0.000328064 -0.000363827 -0.167651 0 0
6 11.4725 0 0 -0.765182 -0.543574 0.624806
7 0.615217 -0.993092 -0.8107 2.36302 0.0866629 -0.357379
8 2.24752 0 0 0.0605672 0.267265 -0.222262
9 1.11936 0 0 0.0749173 0.0546635 -0.249677
10 3.71348 -0.102641 0.102191 1.77126 0.869992 0.142172
11 1.72615 0 0 0.013477 -0.00733092 -0.811382
12 1.21114 0 0 0.00873809 0.015128 -0.772911
13 3.59919 -1.06012 0.0708885 1.87281 0.766148 0.187135
14 1.66069 0 0 -0.0195999 0.0443892 -0.726687
15 1.167 0 0 0.00841046 -0.00839376 -0.438997
16 2.18852 0.501039 0.0576593 1.57366 -0.028125 0.156362
17 1.29609 0 0 0.0785581 0.0270526 -1.07235
18 1.62202 0.000713348 -0.000471115 0.00740289 -0.022111 -0.784237
19 1.22241 0 0 0.000237477 0.00593039 -0.707337
20 1.76707 1.27612 0.0366408 1.57458 0.205155 0.106808
21 1.55588 0 0 -0.0273743 0.0177045 -0.702262
22 1.24274 0 0 -0.000479241 0.000360541 -1.15419
23 0.784524 0 0 0.00636388 -0.00322821 -0.741041
24 -6.70653 7.12182 -4.00061 -0.000932693 0 -1.8749
25 6.02794 0 0 1.12442 0.645219 0.168032
26 11.7344 0 0 0.00140276 0 1.10414
27 8.81167 0 0 0.0278841 0 0
28 5.77884 0 0 0.0186823 0 0
29 2.23249 0 0 0.00920165 0 0
30 11.4725 0 0 0.100911 -0.450027 -0.172432
31 0.615814 0.994371 -0.809166 -2.83171 0.442997 0.480737
32 2.24752 0 0 -0.045362 0.233136 0.363247
33 1.11935 0 0 -0.000328197 0.159957 0.657165
34 3.71349 0.102639 0.102191 -1.54675 0.834836 -0.400578
35 1.72615 0 0 -0.00689872 -0.00732661 1.09674
36 1.21112 0 0 0.0103137 0.0102 1.33017
37 3.5992 1.06012 0.0708879 -1.53662 0.394253 -0.182897
38 1.66069 0 0 0.00635307 0.0771239 0.305441
39 1.16699 0 0 0.0429437 0.0187252 0.800749
40 2.18854 -0.501041 0.057659 -1.5728 0.133573 -0.17288
41 1.29609 0 0 0.120501 0.0520645 0.782583
42 1.62202 -0.000713348 -0.000470161 0.0811908 -0.0245018 1.19712
43 1.22241 0 0 -0.0119317 -0.00594712 1.29801
44 1.76707 -1.27612 0.0366403 -1.48212 0.284875 -0.100851
45 1.55588 0 0 0.223724 0.0868401 0.700865
46 1.24273 0 0 0.00047892 0.000360573 0.964696
47 0.784532 0 0 -0.00618631 0.000249584 0.884667
48 0 0 0 0 0 0
49 -6.11875 -21.6024 -5.71034 -0.138293 0.0104763 0.0180025
50 0 -0.7031 2.39715 0 0 0
51 -0.0145802 -0.456409 1.68256 -1.0472 0 0
52 -6.09058 -22.9162 -5.27982 -0.138293 0.0104764 0.0180031
53 0 -0.646542 1.41593 0.0904985 0 0
54 0 0.979376 2.33571 0.174533 0 0
55 0 -1.9197 2.85382 0 0 0
56 0 2.062 1.89703 -0.785398 0 0
57 0 -1.66928 2.60403 -0.0368113 0 0
58 6.98255 2.1009 -16.1176 0 0 0
time 14
0 6.78963 4.11825 -5.6679 0.000934124 0 -1.53243
1 6.02795 0 0 -1.04397 0.475009 -0.389615
2 11.7344 0 0 -0.00140276 0 -0.931988
3 8.81138 -0.000450134 -0.000111818 -0.524195 0 0.00015785
4 5.77839 0.000286102 0 -0.351211 0 0.000103569
5 2.23163 -0.000329971 -0.00036335 -0.172984 0 0
6 11.4725 0 0 -0.768497 -0.528422 0.614563
7 0.615219 -0.993091 -0.8107 2.36302 0.0866628 -0.357379
8 2.24752 0 0 0.0605673 0.267265 -0.222262
9 1.11936 0 0 0.0749174 0.0546636 -0.249677
10 3.71348 -0.10264 0.102191 1.77126 0.869992 0.142171
11 1.72615 0 0 0.013477 -0.00733088 -0.811382
12 1.21114 0 0 0.00873812 0.0151279 -0.772911
13 3.59919 -1.06012 0.0708878 1.87281 0.766148 0.187135
14 1.66069 0 0 -0.0195999 0.0443892 -0.726687
15 1.167 0 0 0.00841046 -0.00839377 -0.438998
16 2.18853 0.50104 0.0576588 1.57366 -0.028125 0.156362
17 1.29609 0 0 0.0785581 0.0270526 -1.07235
18 1.62202 0.000715256 -0.000471115 0.00740289 -0.0221109 -0.784237
19 1.22241 0 0 0.000237477 0.00593041 -0.707337
20 1.76707 1.27612 0.0366403 1.57458 0.205155 0.106808
21 1.55588 0 0 -0.0273742 0.0177045 -0.702262
22 1.24274 0 0 -0.000479225 0.000360516 -1.15419
23 0.784525 0 0 0.00636379 -0.00322818 -0.741041
24 -6.70653 7.12182 -4.00061 -0.000932693 0 -1.8749
25 6.02794 0 0 1.13456 0.619504 0.182388
26 11.7344 0 0 0.00140254 0 1.05209
27 8.81167 0 0 0.0358054 0 0
28 5.77884 0 0 0.0239896 0 0
29 2.23249 0 0 0.0118159 0 0
30 11.4725 0 0 0.104652 -0.440819 -0.167569
31 0.615814 0.994372 -0.809165 -2.83171 0.442997 0.480737
32 2.24752 0 0 -0.045362 0.233136 0.363247
33 1.11935 0 0 -0.000328155 0.159957 0.657165
34 3.71349 0.102638 0.102191 -1.54675 0.834836 -0.400578
35 1.72615 0 0 -0.00689869 -0.0073266 1.09674
36 1.21112 0 0 0.0103137 0.0102 1.33017
37 3.5992 1.06012 0.0708883 -1.53662 0.394253 -0.182897
38 1.66069 0 0 0.00129291 0.0778541 0.239537
39 1.16699 0 0 0.0426518 0.021851 0.735105
40 2.18853 -0.501041 0.0576596 -1.5728 0.133573 -0.17288
41 1.29609 0 0 0.120501 0.0520644 0.782584
42 1.62202 -0.000713348 -0.000469685 0.0811908 -0.0245018 1.19712
43 1.22241 0 0 -0.0119317 -0.00594711 1.29801
44 1.76707 -1.27612 0.0366416 -1.48212 0.284875 -0.100851
45 1.55587 0 0 0.223724 0.0868401 0.700864
46 1.24273 0 0 0.000478918 0.000360572 0.964696
47 0.784532 0 0 -0.00618631 0.000249585 0.884667
48 0 0 0 0 0 0
49 -6.08907 -21.9362 -5.76519 -0.119012 0.0106861 0.0199849
50 0 -0.7031 2.39715 0 0 0
51 -0.0145807 -0.456411 1.68256 -1.0472 0 0
52 -6.05832 -23.258 -5.36009 -0.119012 0.0106862 0.0199854
53 0 -0.675066 1.41593 0 0 0
54 0 0.979376 2.33571 0.174533 0 0
55 0 -1.9197 2.85382 0 0 0
56 0 2.062 1.89703 -0.785398 0 0
57 0 -1.66928 2.60403 -0.0368113 0 0
58 6.98255 2.1009 -16.1176 0 0 0
time 15
0 6.78963 4.11825 -5.6679 0.000934124 0 -1.53243
1 6.02795 0 0 -1.05614 0.455263 -0.396133
2 11.7344 0 0 -0.00140281 0 -0.884368
3 8.81138 -0.000448227 -0.000111818 -0.540419 0 0.000157991
4 5.77839 0.000287056 0 -0.362081 0 0.00010363
5 2.23163 -0.000328064 -0.000362873 -0.178338 0 0
6 11.4725 0 0 -0.772448 -0.510489 0.605204
7 0.615219 -0.993092 -0.8107 2.36302 0.0866628 -0.357379
8 2.24752 0 0 0.0605672 0.267265 -0.222262
9 1.11936 0 0 0.0749173 0.0546635 -0.249677
10 3.71348 -0.102641 0.102191 1.77126 0.869992 0.142172
11 1.72615 0 0 0.013477 -0.00733088 -0.811382
12 1.21114 0 0 0.00873811 0.015128 -0.772911
13 3.59919 -1.06012 0.0708883 1.87281 0.766148 0.187135
14 1.66069 0 0 -0.0195999 0.0443892 -0.726687
15 1.167 0 0 0.00841046 -0.00839376 -0.438998
16 2.18853 0.50104 0.0576591 1.57366 -0.028125 0.156362
17 1.29609 0 0 0.0785581 0.0270526 -1.07235
18 1.62202 0.000713348 -0.000471115 0.00740291 -0.022111 -0.784236
19 1.22241 0 0 0.000237464 0.00593045 -0.707337
20 1.76707 1.27612 0.0366408 1.57458 0.205155 0.106808
21 1.55587 0 0 -0.0273743 0.0177045 -0.702262
22 1.24274 0 0 -0.000479229 0.000360549 -1.15419
23 0.784525 0 0 0.00636382 -0.00322817 -0.741041
24 -6.70653 7.12182 -4.00061 -0.000932693 0 -1.8749
25 6.02794 0 0 1.14425 0.592506 0.196841
26 11.7344 0 0 0.0014026 0 0.997574
27 8.81167 0 0 0.0428233 0 0
28 5.77884 0 0 0.0286916 0 0
29 2.23249 0 0 0.0141317 0 0
30 11.4725 0 0 0.108785 -0.432382 -0.164989
31 0.615814 0.994371 -0.809166 -2.83171 0.442997 0.480737
32 2.24752 0 0 -0.0453619 0.233136 0.363247
33 1.11936 0 0 -0.00032811 0.159957 0.657165
34 3.71349 0.102638 0.102191 -1.54675 0.834836 -0.400578
35 1.72615 0 0 -0.00689872 -0.00732661 1.09674
36 1.21112 0 0 0.0103137 0.0102 1.33017
37 3.5992 1.06012 0.0708879 -1.53662 0.394253 -0.182897
38 1.66069 0 0 0.00129291 0.0778541 0.239537
39 1.16699 0 0 0.0426518 0.021851 0.735105
40 2.18854 -0.501041 0.0576587 -1.5728 0.133573 -0.17288
41 1.29609 0 0 0.120501 0.0520645 0.782583
42 1.62202 -0.000713348 -0.000469685 0.0811908 -0.0245018 1.19712
43 1.22241 0 0 -0.0119317 -0.00594711 1.29801
44 1.76707 -1.27612 0.0366401 -1.48212 0.284875 -0.100851
45 1.55588 0 0 0.223724 0.08684 0.700865
46 1.24273 0 0 0.000478919 0.000360571 0.964696
47 0.784532 0 0 -0.00618631 0.000249587 0.884667
48 0 0 0 0 0 0
49 -6.06262 -22.271 -5.82858 -0.0967472 0.0105969 0.0203619
50 0 -0.703102 2.39715 0 0 0
51 -0.0145802 -0.456411 1.68256 -1.0472 0 0
52 -6.03154 -23.6015 -5.45301 -0.0967472 0.0105971 0.0203625
53 0 -0.675064 1.41593 0 0 0
54 0 0.979376 2.33571 0.174533 0 0
55 0 -1.91969 2.85382 0 0 0
56 0 2.062 1.89703 -0.785398 0 0
57 0 -1.66928 2.60403 -0.0368113 0 0
58 6.98255 2.1009 -16.1176 0 0 0
time 16
0 6.78963 4.11825 -5.6679 0.000934124 0 -1.53243
1 6.02795 0 0 -1.06764 0.434977 -0.402712
2 11.7344 0 0 -0.00140281 0 -0.836073
3 8.81139 -0.000450134 -0.000111818 -0.556036 0 0.000158004
4 5.77839 0.000286102 0 -0.372544 0 0.000103626
5 2.23164 -0.000329018 -0.00036478 -0.183492 0 0
6 11.4725 0 0 -0.776608 -0.491234 0.596575
7 0.615221 -0.993092 -0.8107 2.36302 0.0866627 -0.357379
8 2.24752 0 0 0.0605673 0.267265 -0.222262
9 1.11936 0 0 0.0749173 0.0546634 -0.249677
10 3.71348 -0.102641 0.102191 1.77126 0.869992 0.142171
11 1.72615 0 0 0.013477 -0.00733087 -0.811382
12 1.21114 0 0 0.0087381 0.0151279 -0.772911
13 3.59919 -1.06012 0.0708882 1.87281 0.766148 0.187134
14 1.66069 0 0 -0.0195999 0.0443892 -0.726687
15 1.167 0 0 0.00841046 -0.00839377 -0.438998
16 2.18853 0.50104 0.0576594 1.57366 -0.0281251 0.156362
17 1.29609 0 0 0.0785582 0.0270526 -1.07235
18 1.62202 0.000713348 -0.000471592 0.0074029 -0.0221109 -0.784236
19 1.22241 0 0 0.000237494 0.00593041 -0.707337
20 1.76707 1.27612 0.036641 1.57458 0.205155 0.106808
21 1.55588 0 0 -0.0273743 0.0177044 -0.702262
22 1.24274 0 0 -0.000479245 0.000360574 -1.15419
23 0.784522 0 0 0.00636384 -0.00322814 -0.741041
24 -6.70653 7.12182 -4.00061 -0.000932693 0 -1.8749
25 6.02794 0 0 1.15307 0.565486 0.210743
26 11.7344 0 0 0.00140266 0 0.943066
27 8.81167 0 0 0.0489714 0 0
28 5.77884 0 0 0.0328109 0 0
29 2.23249 0 0 0.0161606 0 0
30 11.4725 0 0 0.113029 -0.424791 -0.164104
31 0.615812 0.994373 -0.809165 -2.83171 0.442997 0.480737
32 2.24752 0 0 -0.0453619 0.233136 0.363247
33 1.11936 0 0 -0.000328095 0.159957 0.657165
34 3.71348 0.10264 0.102191 -1.54675 0.834836 -0.400578
35 1.72615 0 0 -0.00689869 -0.00732661 1.09674
36 1.21112 0 0 0.0103137 0.0102 1.33017
37 3.5992 1.06012 0.0708884 -1.53662 0.394253 -0.182897
38 1.66069 0 0 0.00129288 0.0778541 0.239537
39 1.16699 0 0 0.0426518 0.021851 0.735105
40 2.18853 -0.50104 0.057659 -1.5728 0.133573 -0.17288
41 1.29609 0 0 0.120501 0.0520645 0.782583
42 1.62202 -0.000713348 -0.000470161 0.0811908 -0.0245018 1.19712
43 1.22241 0 0 -0.0119317 -0.00594714 1.29801
44 1.76707 -1.27612 0.0366408 -1.48212 0.284875 -0.100851
45 1.55588 0 0 0.223724 0.08684 0.700865
46 1.24273 0 0 0.000478919 0.000360571 0.964696
47 0.784532 0 0 -0.00618631 0.000249592 0.884667
48 0 0 0 0 0 0
49 -6.03919 -22.5912 -5.89665 -0.0730361 0.0103205 0.0195554
50 0 -0.703102 2.39715 0 0 0
51 -0.0145807 -0.456413 1.68256 -1.0472 0 0
52 -6.00945 -23.9302 -5.55274 -0.0730361 0.0103206 0.019556
53 0 -0.675066 1.41593 0 0 0
54 0 0.979376 2.33571 0.174533 0 0
55 0 -1.91969 2.85382 0 0 0
56 0 2.062 1.89702 -0.785398 0 0
57 0 -1.66928 2.60403 -0.0368113 0 0
58 6.98255 2.1009 -16.1176 0 0 0
time 17
0 6.78963 4.11825 -5.6679 0.000934124 0 -1.53243
1 6.02795 0 0 -1.0779 0.415434 -0.408894
2 11.7344 0 0 -0.00140284 0 -0.790015
3 8.81138 -0.000451088 -0.000112295 -0.570105 0 0.00015812
4 5.77839 0.000287056 0 -0.38197 0 0.000103517
5 2.23163 -0.000329018 -0.000363827 -0.188135 0 0
6 11.4725 0 0 -0.780618 -0.472049 0.589106
7 0.615221 -0.993092 -0.8107 2.36302 0.0866628 -0.357379
8 2.24752 0 0 0.0605674 0.267265 -0.222262
9 1.11936 0 0 0.0749173 0.0546635 -0.249677
10 3.71348 -0.102641 0.102191 1.77126 0.869992 0.142171
11 1.72615 0 0 0.013477 -0.0073309 -0.811382
12 1.21114 0 0 0.00873811 0.015128 -0.772911
13 3.59919 -1.06012 0.070888 1.87281 0.766148 0.187135
14 1.66069 0 0 -0.0195999 0.0443892 -0.726687
15 1.167 0 0 0.00841045 -0.00839377 -0.438998
16 2.18853 0.50104 0.057659 1.57366 -0.0281252 0.156362
17 1.29609 0 0 0.0785582 0.0270526 -1.07235
18 1.62202 0.000713348 -0.000471592 0.00740288 -0.0221109 -0.784237
19 1.22241 0 0 0.000237482 0.00593043 -0.707337
20 1.76707 1.27612 0.0366412 1.57458 0.205155 0.106808
21 1.55588 0 0 -0.0273742 0.0177045 -0.702263
22 1.24273 0 0 -0.000479204 0.000360565 -1.15419
23 0.784524 0 0 0.00636388 -0.00322821 -0.741041
24 -6.70653 7.12182 -4.00061 -0.000932693 0 -1.8749
25 6.02794 0 0 1.16073 0.539719 0.223552
26 11.7344 0 0 0.00140272 0 0.891059
27 8.81167 0 0 0.0542938 0 0
28 5.77884 0 0 0.0363768 0 0
29 2.23249 0 0 0.0179169 0 0
30 11.4725 0 0 0.117168 -0.418173 -0.164379
31 0.615812 0.994371 -0.809165 -2.83171 0.442997 0.480737
32 2.24752 0 0 -0.0453621 0.233136 0.363247
33 1.11936 0 0 -0.000328035 0.159957 0.657165
34 3.71349 0.102638 0.10219 -1.54675 0.834836 -0.400578
35 1.72615 0 0 -0.0068987 -0.00732662 1.09674
36 1.21112 0 0 0.0103137 0.0102 1.33017
37 3.5992 1.06012 0.0708885 -1.53662 0.394253 -0.182897
38 1.66069 0 0 0.00129291 0.0778541 0.239538
39 1.16699 0 0 0.0426518 0.0218511 0.735105
40 2.18853 -0.501041 0.0576586 -1.5728 0.133574 -0.17288
41 1.29609 0 0 0.120501 0.0520645 0.782583
42 1.62202 -0.000715256 -0.000469208 0.0811908 -0.0245018 1.19712
43 1.22241 0 0 -0.0119317 -0.00594708 1.29801
44 1.76707 -1.27612 0.0366405 -1.48212 0.284875 -0.100851
45 1.55588 0 0 0.223724 0.08684 0.700865
46 1.24273 0 0 0.000478929 0.000360568 0.964696
47 0.784532 0 0 -0.0061863 0.000249574 0.884667
48 0 0 0 0 0 0
49 -6.01877 -22.8814 -5.96534 -0.0494233 0.00992963 0.017952
50 0 -0.7031 2.39715 0 0 0
51 -0.0145807 -0.456411 1.68256 -1.0472 0 0
52 -5.99149 -24.2283 -5.65315 -0.0494234 0.00992974 0.0179526
53 0 -0.675064 1.41593 0 0 0
54 0 0.979376 2.33571 0.174533 0 0
55 0 -1.91969 2.85382 0 0 0
56 0 2.062 1.89702 -0.785398 0 0
57 0 -1.66928 2.60403 -0.0368113 0 0
58 6.98255 2.1009 -16.1176 0 0 0
time 18
0 6.78963 4.11825 -5.6679 0.000934124 0 -1.53243
1 6.02795 0 0 -1.08654 0.397683 -0.414447
2 11.7344 0 0 -0.00140291 0 -0.748489
3 8.81138 -0.000450134 -0.000112057 -0.582135 0 0.000157794
4 5.77839 0.000286102 0 -0.390031 0 0.00010322
5 2.23163 -0.000329971 -0.000364304 -0.192105 0 0
6 11.4725 0 0 -0.784211 -0.454262 0.582903
7 0.615219 -0.993091 -0.8107 2.36302 0.0866629 -0.357379
8 2.24752 0 0 0.0605672 0.267265 -0.222262
9 1.11936 0 0 0.0749174 0.0546636 -0.249677
10 3.71348 -0.102641 0.102191 1.77126 0.869992 0.142172
11 1.72615 0 0 0.013477 -0.00733093 -0.811382
12 1.21114 0 0 0.00873809 0.015128 -0.772911
13 3.59919 -1.06012 0.0708882 1.87281 0.766148 0.187135
14 1.66069 0 0 -0.0195999 0.0443892 -0.726687
15 1.167 0 0 0.00841045 -0.00839376 -0.438998
16 2.18852 0.50104 0.0576589 1.57366 -0.028125 0.156362
17 1.29609 0 0 0.0785582 0.0270526 -1.07235
18 1.62202 0.000713348 -0.000470638 0.00740287 -0.022111 -0.784236
19 1.22241 0 0 0.000237472 0.00593045 -0.707337
20 1.76707 1.27612 0.0366409 1.57458 0.205155 0.106808
21 1.55588 0 0 -0.0273743 0.0177045 -0.702263
22 1.24273 0 0 -0.000479241 0.000360541 -1.15419
23 0.784524 0 0 0.00636381 -0.00322818 -0.741041
24 -6.70653 7.12182 -4.00061 -0.000932693 0 -1.8749
25 6.02794 0 0 1.16695 0.51677 0.23466
26 11.7344 0 0 0.00140262 0 0.844672
27 8.81167 0 0 0.05869 0 0
28 5.77884 0 0 0.0393224 0 0
29 2.23249 0 0 0.0193677 0 0
30 11.4725 0 0 0.12103 -0.412723 -0.165633
31 0.615814 0.994371 -0.809165 -2.83171 0.442997 0.480737
32 2.24752 0 0 -0.0453621 0.233136 0.363247
33 1.11935 0 0 -0.00032811 0.159957 0.657165
34 3.71349 0.102639 0.102191 -1.54675 0.834836 -0.400578
35 1.72615 0 0 -0.00689871 -0.00732662 1.09674
36 1.21112 0 0 0.0103137 0.0102 1.33017
37 3.5992 1.06012 0.0708886 -1.53662 0.394253 -0.182897
38 1.66069 0 0 0.0012929 0.0778541 0.239537
39 1.16699 0 0 0.0426518 0.0218511 0.735105
40 2.18853 -0.501041 0.0576595 -1.5728 0.133573 -0.17288
41 1.29609 0 0 0.120501 0.0520645 0.782583
42 1.62202 -0.000713348 -0.000469685 0.0811908 -0.0245018 1.19712
43 1.22241 0 0 -0.0119317 -0.00594712 1.29801
44 1.76707 -1.27612 0.0366414 -1.48212 0.284875 -0.100851
45 1.55588 0 0 0.223724 0.0868401 0.700865
46 1.24273 0 0 0.000478917 0.000360566 0.964696
47 0.784532 0 0 -0.00618631 0.000249587 0.884667
48 0 0 0 0 0 0
49 -6.00146 -23.127 -6.0304 -0.0274605 0.00946347 0.0158942
50 0 -0.703102 2.39715 0 0 0
51 -0.0145807 -0.456413 1.68256 -1.0472 0 0
52 -5.97727 -24.4805 -5.74786 -0.0274606 0.00946357 0.0158948
53 0 -0.675066 1.41593 0 0 0
54 0 0.979376 2.33571 0.174533 0 0
55 0 -1.91969 2.85382 0 0 0
56 0 2.062 1.89703 -0.785398 0 0
57 0 -1.66928 2.60403 -0.0368113 0 0
58 6.98255 2.1009 -16.1176 0 0 0
time 19
0 6.78963 4.11825 -5.6679 0.000934124 0 -1.53243
1 6.02795 0 0 -1.09304 0.383673 -0.418689
2 11.7344 0 0 -0.00140284 0 -0.715801
3 8.81138 -0.000451088 -0.000112295 -0.591072 0 0.000158087
4 5.77839 0.000285149 0 -0.396018 0 0.000103545
5 2.23164 -0.000329971 -0.000364304 -0.195054 0 0
6 11.4725 0 0 -0.787208 -0.439154 0.579093
7 0.615219 -0.993091 -0.8107 2.36302 0.0866628 -0.357379
8 2.24752 0 0 0.0605674 0.267265 -0.222262
9 1.11936 0 0 0.0749172 0.0546635 -0.249677
10 3.71348 -0.102641 0.102191 1.77126 0.869992 0.142171
11 1.72615 0 0 0.013477 -0.00733091 -0.811382
12 1.21114 0 0 0.00873809 0.015128 -0.772911
13 3.59919 -1.06012 0.070888 1.87281 0.766148 0.187134
14 1.66069 0 0 -0.0195999 0.0443892 -0.726687
15 1.167 0 0 0.00841045 -0.00839376 -0.438997
16 2.18852 0.50104 0.0576593 1.57366 -0.0281252 0.156362
17 1.29609 0 0 0.0785581 0.0270526 -1.07235
18 1.62202 0.000713348 -0.000470161 0.00740289 -0.0221109 -0.784237
19 1.22241 0 0 0.000237502 0.00593037 -0.707337
20 1.76707 1.27612 0.0366408 1.57458 0.205155 0.106808
21 1.55588 0 0 -0.0273743 0.0177045 -0.702263
22 1.24273 0 0 -0.000479216 0.000360557 -1.15419
23 0.784523 0 0 0.00636383 -0.00322817 -0.741041
24 -6.70653 7.12182 -4.00061 -0.000932693 0 -1.8749
25 6.02794 0 0 1.17146 0.498552 0.24335
26 11.7344 0 0 0.00140262 0 0.807786
27 8.81167 0 0 0.0618818 0 0
28 5.77884 0 0 0.0414608 0 0
29 2.23249 0 0 0.020421 0 0
30 11.4725 0 0 0.124469 -0.408687 -0.168102
31 0.615812 0.994372 -0.809166 -2.83171 0.442997 0.480737
32 2.24752 0 0 -0.0453621 0.233136 0.363247
33 1.11936 0 0 -0.000327967 0.159957 0.657165
34 3.71348 0.102638 0.10219 -1.54675 0.834836 -0.400578
35 1.72615 0 0 -0.00689871 -0.00732658 1.09674
36 1.21112 0 0 0.0103137 0.0102 1.33017
37 3.5992 1.06012 0.0708878 -1.53662 0.394253 -0.182897
38 1.66069 0 0 0.00129287 0.0778541 0.239537
39 1.16699 0 0 0.0426518 0.0218511 0.735105
40 2.18853 -0.501041 0.0576589 -1.5728 0.133573 -0.17288
41 1.29609 0 0 0.120501 0.0520644 0.782583
42 1.62202 -0.000713348 -0.000470161 0.0811908 -0.0245018 1.19712
43 1.22241 0 0 -0.0119317 -0.00594709 1.29801
44 1.76707 -1.27612 0.0366403 -1.48212 0.284875 -0.100851
45 1.55588 0 0 0.223724 0.0868401 0.700864
46 1.24273 0 0 0.000478925 0.000360579 0.964696
47 0.784532 0 0 -0.00618632 0.000249599 0.884667
48 0 0 0 0 0 0
49 -5.98749 -23.3137 -6.08744 -0.00870422 0.00893664 0.0136888
50 0 -0.703104 2.39715 0 0 0
51 -0.0145802 -0.456413 1.68256 -1.0472 0 0
52 -5.9666 -24.6723 -5.83034 -0.00870431 0.00893673 0.0136894
53 0 -0.675064 1.41593 0 0 0
54 0 0.979376 2.33571 0.174533 0 0
55 0 -1.91969 2.85382 0 0 0
56 0 2.062 1.89702 -0.785398 0 0
57 0 -1.66928 2.60403 -0.0368113 0 0
58 6.98255 2.1009 -16.1176 0 0 0
time 20
0 6.78963 4.11825 -5.6679 0.000934124 0 -1.53243
1 6.02795 0 0 -1.09693 0.375298 -0.421014
2 11.7344 0 0 -0.00140284 0 -0.6961
3 8.81139 -0.000449181 -0.000112057 -0.596035 0 0.00015735
4 5.77839 0.000287056 0 -0.399344 0 0.000103042
5 2.23164 -0.000329018 -0.000364542 -0.196692 0 0
6 11.4725 0 0 -0.789486 -0.427978 0.578718
7 0.615219 -0.993091 -0.8107 2.36302 0.0866627 -0.357379
8 2.24752 0 0 0.0605673 0.267265 -0.222262
9 1.11936 0 0 0.0749173 0.0546636 -0.249677
10 3.71348 -0.102641 0.102191 1.77126 0.869992 0.142171
11 1.72615 0 0 0.013477 -0.00733089 -0.811382
12 1.21114 0 0 0.00873812 0.015128 -0.772911
13 3.5992 -1.06012 0.0708882 1.87281 0.766148 0.187134
14 1.66069 0 0 -0.0195999 0.0443892 -0.726687
15 1.167 0 0 0.00841046 -0.00839377 -0.438997
16 2.18852 0.50104 0.0576589 1.57366 -0.028125 0.156362
17 1.29609 0 0 0.0785582 0.0270526 -1.07235
18 1.62202 0.000715256 -0.000471115 0.00740289 -0.0221109 -0.784237
19 1.22241 0 0 0.000237482 0.00593043 -0.707337
20 1.76707 1.27612 0.0366414 1.57458 0.205155 0.106808
21 1.55588 0 0 -0.0273743 0.0177045 -0.702263
22 1.24274 0 0 -0.0004792 0.000360532 -1.15419
23 0.784523 0 0 0.00636381 -0.00322818 -0.741041
24 -6.70653 7.12182 -4.00061 -0.000932693 0 -1.8749
25 6.02794 0 0 1.17394 0.487287 0.248783
26 11.7344 0 0 0.0014027 0 0.784956
27 8.81167 0 0 0.0634246 0 0
28 5.77884 0 0 0.0424946 0 0
29 2.23249 0 0 0.0209302 0 0
30 11.4725 0 0 0.127343 -0.406359 -0.172374
31 0.615814 0.994371 -0.809165 -2.83171 0.442997 0.480737
32 2.24752 0 0 -0.0453621 0.233135 0.363247
33 1.11935 0 0 -0.00032811 0.159957 0.657165
34 3.71349 0.102639 0.102191 -1.54675 0.834836 -0.400578
35 1.72615 0 0 -0.00689872 -0.00732661 1.09674
36 1.21112 0 0 0.0103137 0.0102 1.33017
37 3.5992 1.06012 0.0708882 -1.53662 0.394253 -0.182897
38 1.66069 0 0 0.00129289 0.0778541 0.239538
39 1.16699 0 0 0.0426518 0.0218511 0.735105
40 2.18853 -0.50104 0.0576595 -1.5728 0.133573 -0.17288
41 1.29609 0 0 0.120501 0.0520644 0.782584
42 1.62201 -0.000713348 -0.000470161 0.0811908 -0.0245018 1.19712
43 1.22241 0 0 -0.0119317 -0.00594709 1.29801
44 1.76707 -1.27612 0.0366403 -1.48212 0.284875 -0.100851
45 1.55588 0 0 0.223724 0.0868401 0.700865
46 1.24273 0 0 0.000478906 0.00036058 0.964696
47 0.784531 0 0 -0.00618633 0.000249584 0.884667
48 0 0 0 0 0 0
49 -5.97718 -23.4277 -6.13201 0.0052861 0.00834922 0.0116178
50 0 -0.7031 2.39715 0 0 0
51 -0.0145812 -0.456413 1.68256 -1.0472 0 0
52 -5.95937 -24.7898 -5.89394 0.00528602 0.0083493 0.0116183
53 0 -0.675062 1.41593 0 0 0
54 0 0.979378 2.33571 0.174533 0 0
55 0 -1.91969 2.85382 0 0 0
56 0 2.062 1.89702 -0.785398 0 0
57 0 -1.66928 2.60403 -0.0368113 0 0
58 6.98255 2.1009 -16.1176 0 0 0
time 21
0 6.78963 4.11825 -5.6679 0.000934124 0 -1.53243
1 6.02795 0 0 -1.09916 0.371066 -0.421855
2 11.7344 0 0 -0.00140285 0 -0.686217
3 8.81139 -0.000450134 -0.000113249 -0.597805 0 0.00015813
4 5.77839 0.000286102 0 -0.40053 0 0.000103494
5 2.23164 -0.000328064 -0.000364065 -0.197276 0 0
6 11.4725 0 0 -0.789918 -0.421223 0.578546
7 0.615217 -0.993092 -0.8107 2.36302 0.0866628 -0.357379
8 2.24752 0 0 0.0605672 0.267265 -0.222262
9 1.11935 0 0 0.0749172 0.0546634 -0.249677
10 3.71348 -0.102641 0.102191 1.77126 0.869992 0.142172
11 1.72615 0 0 0.013477 -0.00733089 -0.811382
12 1.21114 0 0 0.0087381 0.015128 -0.772911
13 3.59919 -1.06012 0.0708882 1.87281 0.766148 0.187134
14 1.66069 0 0 -0.0195999 0.0443892 -0.726687
15 1.167 0 0 0.00841046 -0.00839376 -0.438998
16 2.18852 0.501039 0.0576591 1.57366 -0.0281252 0.156362
17 1.29609 0 0 0.0785581 0.0270526 -1.07235
18 1.62202 0.000713348 -0.000471592 0.0074029 -0.0221109 -0.784237
19 1.22241 0 0 0.000237468 0.00593042 -0.707337
20 1.76707 1.27612 0.0366409 1.57458 0.205155 0.106808
21 1.55587 0 0 -0.0273743 0.0177045 -0.702262
22 1.24273 0 0 -0.000479216 0.000360557 -1.15419
23 0.784525 0 0 0.00636386 -0.00322822 -0.741041
24 -6.70653 7.12182 -4.00061 -0.000932693 0 -1.8749
25 6.02794 0 0 1.17493 0.481079 0.252032
26 11.7344 0 0 0.00140259 0 0.772513
27 8.81167 0 0 0.064513 0 0
28 5.77884 0 0 0.0432237 0 0
29 2.23249 0 0 0.0212893 0 0
30 11.4725 0 0 0.129495 -0.406049 -0.175271
31 0.615814 0.994373 -0.809165 -2.83171 0.442997 0.480737
32 2.24752 0 0 -0.0453618 0.233136 0.363247
33 1.11936 0 0 -0.000328242 0.159957 0.657165
34 3.71349 0.10264 0.102191 -1.54675 0.834836 -0.400578
35 1.72615 0 0 -0.00689869 -0.00732659 1.09674
36 1.21112 0 0 0.0103137 0.0102001 1.33017
37 3.5992 1.06012 0.0708886 -1.53662 0.394253 -0.182897
38 1.66069 0 0 0.00129287 0.0778541 0.239537
39 1.16699 0 0 0.0426518 0.021851 0.735105
40 2.18853 -0.50104 0.0576595 -1.5728 0.133573 -0.17288
41 1.29609 0 0 0.120501 0.0520644 0.782584
42 1.62202 -0.000711441 -0.000469685 0.0811908 -0.0245018 1.19712
43 1.22241 0 0 -0.0119317 -0.00594712 1.29801
44 1.76707 -1.27612 0.0366408 -1.48212 0.284875 -0.100851
45 1.55588 0 0 0.223724 0.0868401 0.700864
46 1.24273 0 0 0.000478917 0.000360574 0.964696
47 0.784531 0 0 -0.00618633 0.000249598 0.884667
48 0 0 0 0 0 0
49 -5.96491 -23.4856 -6.15533 0.0129505 0.00770142 0.00996028
50 0 -0.7031 2.39715 0 0 0
51 -0.0145812 -0.456413 1.68256 -1.0472 0 0
52 -5.94958 -24.8495 -5.92771 0.0129504 0.0077015 0.00996085
53 0 -0.675062 1.41593 0 0 0
54 0 0.979378 2.33571 0.174533 0 0
55 0 -1.9197 2.85382 0 0 0
56 0 2.062 1.89702 -0.785398 0 0
57 0 -1.66928 2.60403 -0.0368113 0 0
58 6.98255 2.1009 -16.1176 0 0 0
time 22
0 6.78963 4.11825 -5.6679 0.000934124 0 -1.53243
1 6.02795 0 0 -1.10089 0.368765 -0.421734
2 11.7344 0 0 -0.00140291 0 -0.681419
3 8.81138 -0.000450134 -0.000111818 -0.597236 0 0.000158067
4 5.77839 0.000286102 0 -0.400148 0 0.000103432
5 2.23163 -0.000329971 -0.000363827 -0.197088 0 0
6 11.4725 0 0 -0.787232 -0.417551 0.575222
7 0.615219 -0.993091 -0.8107 2.36302 0.0866628 -0.357379
8 2.24752 0 0 0.0605673 0.267265 -0.222262
9 1.11935 0 0 0.0749173 0.0546635 -0.249677
10 3.71348 -0.102641 0.102191 1.77126 0.869992 0.142171
11 1.72615 0 0 0.013477 -0.00733089 -0.811382
12 1.21114 0 0 0.00873809 0.015128 -0.772911
13 3.59919 -1.06012 0.0708878 1.87281 0.766148 0.187134
14 1.66069 0 0 -0.0195999 0.0443892 -0.726687
15 1.167 0 0 0.00841046 -0.00839376 -0.438997
16 2.18852 0.50104 0.057659 1.57366 -0.0281251 0.156362
17 1.29609 0 0 0.0785581 0.0270526 -1.07235
18 1.62202 0.000713348 -0.000471592 0.00740289 -0.0221109 -0.784237
19 1.22241 0 0 0.000237464 0.00593039 -0.707337
20 1.76707 1.27612 0.036641 1.57458 0.205155 0.106808
21 1.55588 0 0 -0.0273743 0.0177045 -0.702262
22 1.24273 0 0 -0.000479225 0.000360516 -1.15419
23 0.784524 0 0 0.0063638 -0.00322815 -0.741041
24 -6.70653 7.12182 -4.00061 -0.000932693 0 -1.8749
25 6.02794 0 0 1.17517 0.477232 0.254362
26 11.7344 0 0 0.00140283 0 0.765216
27 8.81167 0 0 0.0660868 0 0
28 5.77884 0 0 0.0442782 0 0
29 2.23249 0 0 0.0218087 0 0
30 11.4725 0 0 0.131021 -0.408445 -0.17468
31 0.61581 0.994373 -0.809166 -2.83171 0.442997 0.480737
32 2.24752 0 0 -0.0453619 0.233136 0.363247
33 1.11936 0 0 -0.000328182 0.159957 0.657165
34 3.71348 0.10264 0.102191 -1.54675 0.834836 -0.400578
35 1.72615 0 0 -0.00689869 -0.00732659 1.09674
36 1.21112 0 0 0.0103137 0.0102001 1.33017
37 3.5992 1.06012 0.0708876 -1.53662 0.394253 -0.182897
38 1.66069 0 0 0.00129286 0.0778541 0.239537
39 1.16699 0 0 0.0426518 0.0218511 0.735105
40 2.18853 -0.50104 0.0576593 -1.5728 0.133573 -0.17288
41 1.29609 0 0 0.120501 0.0520645 0.782583
42 1.62202 -0.000715256 -0.000469208 0.0811908 -0.0245018 1.19712
43 1.22241 0 0 -0.0119317 -0.00594712 1.29801
44 1.76707 -1.27612 0.0366405 -1.48212 0.284875 -0.100851
45 1.55587 0 0 0.223724 0.0868401 0.700865
46 1.24273 0 0 0.000478924 0.000360587 0.964696
47 0.784533 0 0 -0.00618632 0.00024959 0.884667
48 0 0 0 0 0 0
49 -5.94988 -23.5182 -6.1537 0.0142198 0.00679453 0.00796282
50 0 -0.703102 2.39715 0 0 0
51 -0.0145807 -0.456413 1.68256 -1.0472 0 0
52 -5.93748 -24.8824 -5.9278 0.0142197 0.00679461 0.00796339
53 0 -0.675064 1.41593 0 0 0
54 0 0.979378 2.33571 0.174533 0 0
55 0 -1.91969 2.85382 0 0 0
56 0 2.062 1.89703 -0.785398 0 0
57 0 -1.66928 2.60403 -0.0368113 0 0
58 6.98255 2.1009 -16.1176 0 0 0
time 23
0 6.78963 4.11825 -5.6679 0.000934124 0 -1.53243
1 6.02795 0 0 -1.10229 0.367509 -0.421163
2 11.7344 0 0 -0.00140287 0 -0.679463
3 8.81138 -0.000450134 -0.000112057 -0.59526 0 0.000158359
4 5.77839 0.000287056 0 -0.398824 0 0.000103624
5 2.23164 -0.000329018 -0.000363588 -0.196436 0 0
6 11.4725 0 0 -0.782335 -0.415321 0.569441
7 0.615219 -0.993091 -0.8107 2.36302 0.0866628 -0.357379
8 2.24752 0 0 0.0605672 0.267265 -0.222262
9 1.11936 0 0 0.0749173 0.0546635 -0.249677
10 3.71348 -0.102641 0.102191 1.77126 0.869992 0.142172
11 1.72615 0 0 0.013477 -0.00733089 -0.811382
12 1.21114 0 0 0.0087381 0.015128 -0.772911
13 3.59919 -1.06012 0.070888 1.87281 0.766148 0.187135
14 1.66069 0 0 -0.0195999 0.0443892 -0.726687
15 1.167 0 0 0.00841045 -0.00839376 -0.438997
16 2.18853 0.50104 0.0576589 1.57366 -0.0281251 0.156362
17 1.29609 0 0 0.0785581 0.0270526 -1.07235
18 1.62202 0.000711441 -0.000470638 0.00740291 -0.0221109 -0.784236
19 1.22241 0 0 0.000237489 0.00593036 -0.707337
20 1.76707 1.27612 0.0366406 1.57458 0.205155 0.106808
21 1.55588 0 0 -0.0273743 0.0177045 -0.702262
22 1.24274 0 0 -0.000479216 0.000360557 -1.15419
23 0.784524 0 0 0.00636387 -0.00322819 -0.741041
24 -6.70653 7.12182 -4.00061 -0.000932693 0 -1.8749
25 6.02794 0 0 1.17492 0.475049 0.25601
26 11.7344 0 0 0.00140276 0 0.761486
27 8.81167 0 0 0.0678397 0 0
28 5.77884 0 0 0.0454526 0 0
29 2.23249 0 0 0.0223871 0 0
30 11.4725 0 0 0.132225 -0.413149 -0.172216
31 0.615812 0.994373 -0.809165 -2.83171 0.442997 0.480737
32 2.24752 0 0 -0.045362 0.233136 0.363247
33 1.11936 0 0 -0.000328016 0.159957 0.657165
34 3.71349 0.102639 0.102191 -1.54675 0.834836 -0.400578
35 1.72615 0 0 -0.00689871 -0.00732662 1.09674
36 1.21112 0 0 0.0103137 0.0102 1.33017
37 3.5992 1.06012 0.0708883 -1.53662 0.394253 -0.182897
38 1.66069 0 0 0.00129286 0.0778541 0.239537
39 1.16699 0 0 0.0426518 0.0218511 0.735105
40 2.18853 -0.501041 0.0576588 -1.5728 0.133573 -0.17288
41 1.29609 0 0 0.120501 0.0520644 0.782584
42 1.62202 -0.000713348 -0.000469685 0.0811908 -0.0245018 1.19712
43 1.22241 0 0 -0.0119317 -0.0059471 1.29801
44 1.76707 -1.27612 0.0366406 -1.48212 0.284875 -0.100851
45 1.55587 0 0 0.223724 0.0868401 0.700865
46 1.24273 0 0 0.000478883 0.000360579 0.964696
47 0.784533 0 0 -0.0061863 0.000249587 0.884667
48 0 0 0 0 0 0
49 -5.93672 -23.5331 -6.13633 0.0114197 0.0055604 0.00511326
50 0 -0.703102 2.39715 0 0 0
51 -0.0145798 -0.456415 1.68256 -1.0472 0 0
52 -5.92847 -24.8967 -5.90662 0.0114196 0.00556048 0.00511382
53 0 -0.675066 1.41593 0 0 0
54 0 0.979378 2.33571 0.174533 0 0
55 0 -1.9197 2.85382 0 0 0
56 0 2.062 1.89702 -0.785398 0 0
57 0 -1.66928 2.60403 -0.0368113 0 0
58 6.98255 2.1009 -16.1176 0 0 0
time 24
0 6.78963 4.11825 -5.6679 0.000934124 0 -1.53243
1 6.02795 0 0 -1.10342 0.3669 -0.420402
2 11.7344 0 0 -0.00140284 0 -0.679184
3 8.81139 -0.000449181 -0.000112295 -0.592646 0 0.000157941
4 5.77839 0.000287056 0 -0.397073 0 0.000103384
5 2.23164 -0.000329018 -0.000364304 -0.195573 0 0
6 11.4725 0 0 -0.776601 -0.414072 0.562763
7 0.615217 -0.993092 -0.8107 2.36302 0.0866627 -0.35738
8 2.24752 0 0 0.0605673 0.267265 -0.222262
9 1.11936 0 0 0.0749173 0.0546635 -0.249677
10 3.71348 -0.102641 0.102191 1.77126 0.869992 0.142171
11 1.72615 0 0 0.013477 -0.00733089 -0.811382
12 1.21114 0 0 0.00873809 0.0151279 -0.772911
13 3.59919 -1.06012 0.0708882 1.87281 0.766148 0.187134
14 1.66069 0 0 -0.0195999 0.0443892 -0.726687
15 1.167 0 0 0.00841046 -0.00839376 -0.438997
16 2.18852 0.501039 0.0576588 1.57366 -0.0281252 0.156362
17 1.29609 0 0 0.0785581 0.0270527 -1.07235
18 1.62202 0.000713348 -0.000471115 0.00740288 -0.0221109 -0.784237
19 1.22241 0 0 0.000237482 0.00593043 -0.707337
20 1.76707 1.27612 0.0366408 1.57458 0.205155 0.106808
21 1.55588 0 0 -0.0273743 0.0177045 -0.702262
22 1.24273 0 0 -0.000479209 0.000360491 -1.15419
23 0.784523 0 0 0.00636379 -0.00322815 -0.741041
24 -6.70653 7.12182 -4.00061 -0.000932693 0 -1.8749
25 6.02794 0 0 1.17444 0.47393 0.257161
26 11.7344 0 0 0.00140264 0 0.75997
27 8.81167 0 0 0.0696152 0 0
28 5.77884 0 0 0.0466423 0 0
29 2.23249 0 0 0.0229731 0 0
30 11.4725 0 0 0.133152 -0.418714 -0.168862
31 0.615814 0.994373 -0.809165 -2.83171 0.442997 0.480737
32 2.24751 0 0 -0.0453621 0.233136 0.363247
33 1.11936 0 0 -0.000328023 0.159957 0.657165
34 3.71349 0.10264 0.102191 -1.54675 0.834836 -0.400578
35 1.72615 0 0 -0.00689872 -0.0073266 1.09674
36 1.21112 0 0 0.0103137 0.0102 1.33017
37 3.59921 1.06012 0.0708883 -1.53662 0.394253 -0.182897
38 1.66069 0 0 0.00129287 0.0778541 0.239537
39 1.16699 0 0 0.0426518 0.021851 0.735105
40 2.18853 -0.50104 0.0576595 -1.5728 0.133573 -0.17288
41 1.29609 0 0 0.120501 0.0520644 0.782583
42 1.62202 -0.000715256 -0.000469685 0.0811908 -0.0245018 1.19712
43 1.22241 0 0 -0.0119317 -0.0059471 1.29801
44 1.76707 -1.27612 0.0366406 -1.48212 0.284875 -0.100851
45 1.55588 0 0 0.223724 0.08684 0.700865
46 1.24273 0 0 0.000478897 0.000360564 0.964696
47 0.784532 0 0 -0.0061863 0.000249561 0.884667
48 0 0 0 0 0 0
49 -5.92566 -23.5373 -6.11156 0.00658608 0.00420946 0.00207033
50 0 -0.703102 2.39715 0 0 0
51 -0.0145812 -0.456411 1.68256 -1.0472 0 0
52 -5.92184 -24.8998 -5.87525 0.00658599 0.00420954 0.00207089
53 0 -0.675062 1.41593 0 0 0
54 0 0.979378 2.33571 0.174533 0 0
55 0 -1.91969 2.85382 0 0 0
56 0 2.062 1.89702 -0.785398 0 0
57 0 -1.66928 2.60403 -0.0368113 0 0
58 6.98255 2.1009 -16.1176 0 0 0
time 25
0 6.78963 4.11825 -5.6679 0.000934124 0 -1.53243
1 6.02795 0 0 -1.10432 0.366529 -0.419718
2 11.7344 0 0 -0.00140297 0 -0.679385
3 8.81138 -0.000450134 -0.00011158 -0.590138 0 0.000157631
4 5.77839 0.000286102 0 -0.395392 0 0.000103159
5 2.23163 -0.000329018 -0.000364304 -0.194746 0 0
6 11.4725 0 0 -0.771367 -0.413373 0.556725
7 0.615217 -0.993091 -0.8107 2.36302 0.0866628 -0.357379
8 2.24752 0 0 0.0605673 0.267265 -0.222262
9 1.11936 0 0 0.0749172 0.0546636 -0.249677
10 3.71348 -0.102641 0.102191 1.77126 0.869992 0.142171
11 1.72615 0 0 0.013477 -0.00733089 -0.811382
12 1.21114 0 0 0.00873811 0.0151279 -0.772911
13 3.59919 -1.06012 0.0708879 1.87281 0.766148 0.187134
14 1.66069 0 0 -0.0195999 0.0443892 -0.726687
15 1.167 0 0 0.00841045 -0.00839376 -0.438997
16 2.18852 0.50104 0.0576588 1.57366 -0.0281251 0.156362
17 1.29609 0 0 0.0785582 0.0270526 -1.07235
18 1.62202 0.000711441 -0.000471115 0.00740289 -0.0221109 -0.784236
19 1.22241 0 0 0.000237517 0.00593037 -0.707337
20 1.76707 1.27612 0.036641 1.57458 0.205155 0.106808
21 1.55588 0 0 -0.0273743 0.0177044 -0.702262
22 1.24273 0 0 -0.0004792 0.000360532 -1.15419
23 0.784523 0 0 0.00636378 -0.00322819 -0.741041
24 -6.70653 7.12182 -4.00061 -0.000932693 0 -1.8749
25 6.02794 0 0 1.17399 0.473257 0.257999
26 11.7344 0 0 0.00140278 0 0.759273
27 8.81167 0 0 0.0712682 0 0
28 5.77884 0 0 0.0477497 0 0
29 2.23249 0 0 0.0235186 0 0
30 11.4725 0 0 0.133888 -0.42369 -0.165597
31 0.615814 0.994372 -0.809166 -2.83171 0.442997 0.480737
32 2.24752 0 0 -0.0453619 0.233136 0.363247
33 1.11936 0 0 -0.000328155 0.159957 0.657165
34 3.71349 0.102639 0.102191 -1.54675 0.834836 -0.400578
35 1.72615 0 0 -0.0068987 -0.00732663 1.09674
36 1.21112 0 0 0.0103137 0.0102 1.33017
37 3.5992 1.06012 0.0708877 -1.53662 0.394253 -0.182897
38 1.66069 0 0 0.00129289 0.0778541 0.239537
39 1.16699 0 0 0.0426518 0.021851 0.735105
40 2.18853 -0.50104 0.0576583 -1.5728 0.133573 -0.17288
41 1.29609 0 0 0.120501 0.0520644 0.782583
42 1.62202 -0.000713348 -0.000469208 0.0811908 -0.0245018 1.19712
43 1.22241 0 0 -0.0119317 -0.00594711 1.29801
44 1.76707 -1.27612 0.0366402 -1.48212 0.284875 -0.100851
45 1.55587 0 0 0.223724 0.08684 0.700865
46 1.24273 0 0 0.00047893 0.000360568 0.964696
47 0.784531 0 0 -0.0061863 0.000249597 0.884667
48 0 0 0 0 0 0
49 -5.91694 -23.5379 -6.08768 0.00175406 0.00294581 -0.000519409
50 0 -0.703102 2.39715 0 0 0
51 -0.0145802 -0.456415 1.68256 -1.0472 0 0
52 -5.91693 -24.8992 -5.84479 0.00175397 0.00294589 -0.000518845
53 0 -0.675066 1.41593 0 0 0
54 0 0.979378 2.33571 0.174533 0 0
55 0 -1.9197 2.85382 0 0 0
56 0 2.062 1.89702 -0.785398 0 0
57 0 -1.66928 2.60403 -0.0368113 0 0
58 6.98255 2.1009 -16.1176 0 0 0
time 26
0 6.78963 4.11825 -5.6679 0.000934124 0 -1.53243
1 6.02795 0 0 -1.10502 0.365975 -0.419376
2 11.7344 0 0 -0.00140294 0 -0.678852
3 8.81138 -0.000450134 -0.000111341 -0.588449 0 0.000157972
4 5.77839 0.000286102 0 -0.394261 0 0.000103587
5 2.23163 -0.000329971 -0.000363827 -0.194188 0 0
6 11.4725 0 0 -0.767938 -0.412813 0.552858
7 0.615219 -0.993091 -0.8107 2.36302 0.0866629 -0.357379
8 2.24752 0 0 0.0605672 0.267265 -0.222262
9 1.11936 0 0 0.0749175 0.0546635 -0.249677
10 3.71348 -0.102641 0.102191 1.77126 0.869992 0.142171
11 1.72615 0 0 0.013477 -0.00733089 -0.811382
12 1.21114 0 0 0.00873811 0.0151279 -0.772911
13 3.59919 -1.06012 0.070888 1.87281 0.766148 0.187135
14 1.66069 0 0 -0.0195999 0.0443892 -0.726687
15 1.167 0 0 0.00841045 -0.00839376 -0.438998
16 2.18852 0.50104 0.0576593 1.57366 -0.028125 0.156362
17 1.29609 0 0 0.0785582 0.0270526 -1.07235
18 1.62202 0.000713348 -0.000471115 0.00740287 -0.0221109 -0.784237
19 1.22241 0 0 0.000237486 0.00593046 -0.707337
20 1.76707 1.27612 0.0366411 1.57458 0.205155 0.106808
21 1.55588 0 0 -0.0273743 0.0177045 -0.702262
22 1.24273 0 0 -0.000479175 0.000360548 -1.15419
23 0.784524 0 0 0.00636382 -0.00322814 -0.741041
24 -6.70653 7.12182 -4.00061 -0.000932693 0 -1.8749
25 6.02794 0 0 1.17381 0.472415 0.258712
26 11.7344 0 0 0.00140266 0 0.758003
27 8.81167 0 0 0.0726605 0 0
28 5.77884 0 0 0.0486827 0 0
29 2.23249 0 0 0.023978 0 0
30 11.4725 0 0 0.134579 -0.426643 -0.16342
31 0.615814 0.994372 -0.809166 -2.83171 0.442997 0.480737
32 2.24752 0 0 -0.0453619 0.233136 0.363247
33 1.11936 0 0 -0.000328212 0.159957 0.657165
34 3.71349 0.102639 0.102191 -1.54675 0.834836 -0.400578
35 1.72615 0 0 -0.00689872 -0.00732662 1.09674
36 1.21112 0 0 0.0103137 0.0102 1.33017
37 3.5992 1.06012 0.070888 -1.53662 0.394253 -0.182897
38 1.66069 0 0 0.00129289 0.0778541 0.239537
39 1.16699 0 0 0.0426518 0.0218511 0.735105
40 2.18853 -0.501041 0.0576588 -1.5728 0.133573 -0.17288
41 1.29609 0 0 0.120501 0.0520645 0.782584
42 1.62202 -0.000715256 -0.000469208 0.0811907 -0.0245018 1.19712
43 1.22241 0 0 -0.0119317 -0.00594715 1.29801
44 1.76707 -1.27612 0.0366411 -1.48212 0.284875 -0.100851
45 1.55588 0 0 0.223724 0.0868401 0.700865
46 1.24273 0 0 0.000478897 0.000360581 0.964696
47 0.784532 0 0 -0.00618629 0.000249566 0.884667
48 0 0 0 0 0 0
49 -5.91087 -23.5419 -6.07296 -0.00104144 0.00196346 -0.00203495
50 0 -0.7031 2.39715 0 0 0
51 -0.0145807 -0.456413 1.68256 -1.0472 0 0
52 -5.91315 -24.9026 -5.82627 -0.00104153 0.00196354 -0.00203438
53 0 -0.675062 1.41593 0 0 0
54 0 0.97938 2.33571 0.174533 0 0
55 0 -1.91969 2.85382 0 0 0
56 0 2.062 1.89702 -0.785398 0 0
57 0 -1.66927 2.60403 -0.0368113 0 0
58 6.98255 2.1009 -16.1176 0 0 0
time 27
0 6.78963 4.11825 -5.6679 0.000934124 0 -1.53243
1 6.02795 0 0 -1.10542 0.365453 -0.419331
2 11.7344 0 0 -0.00140287 0 -0.678078
3 8.81138 -0.000449181 -0.000112057 -0.58737 0 0.000157967
4 5.77839 0.000286102 0 -0.393538 0 0.000103363
5 2.23164 -0.000329018 -0.00036335 -0.193832 0 0
6 11.4725 0 0 -0.766573 -0.412627 0.551942
7 0.615219 -0.993091 -0.8107 2.36302 0.0866628 -0.357379
8 2.24752 0 0 0.0605673 0.267265 -0.222262
9 1.11936 0 0 0.0749173 0.0546635 -0.249677
10 3.71348 -0.102641 0.102191 1.77126 0.869992 0.142171
11 1.72615 0 0 0.013477 -0.0073309 -0.811382
12 1.21114 0 0 0.00873809 0.015128 -0.772911
13 3.59919 -1.06012 0.070888 1.87281 0.766148 0.187134
14 1.66068 0 0 -0.0195999 0.0443892 -0.726687
15 1.167 0 0 0.00841046 -0.00839376 -0.438997
16 2.18853 0.50104 0.0576588 1.57366 -0.0281249 0.156362
17 1.29609 0 0 0.0785581 0.0270526 -1.07235
18 1.62202 0.000715256 -0.000470161 0.0074029 -0.0221109 -0.784236
19 1.22241 0 0 0.000237489 0.00593043 -0.707337
20 1.76707 1.27612 0.0366412 1.57458 0.205155 0.106808
21 1.55588 0 0 -0.0273743 0.0177045 -0.702262
22 1.24274 0 0 -0.000479209 0.000360491 -1.15419
23 0.784525 0 0 0.0063638 -0.00322815 -0.741041
24 -6.70653 7.12182 -4.00061 -0.000932693 0 -1.8749
25 6.02794 0 0 1.17389 0.471608 0.259172
26 11.7344 0 0 0.00140266 0 0.75659
27 8.81167 0 0 0.0737721 0 0
28 5.77884 0 0 0.0494273 0 0
29 2.23249 0 0 0.0243447 0 0
30 11.4725 0 0 0.135361 -0.427129 -0.162749
31 0.615816 0.994372 -0.809165 -2.83171 0.442997 0.480737
32 2.24752 0 0 -0.045362 0.233136 0.363247
33 1.11935 0 0 -0.000328148 0.159957 0.657165
34 3.71349 0.10264 0.102191 -1.54675 0.834836 -0.400578
35 1.72615 0 0 -0.00689868 -0.00732661 1.09674
36 1.21112 0 0 0.0103137 0.0102 1.33017
37 3.5992 1.06012 0.0708884 -1.53662 0.394253 -0.182897
38 1.66069 0 0 0.00129289 0.0778541 0.239537
39 1.16699 0 0 0.0426518 0.021851 0.735105
40 2.18853 -0.50104 0.0576591 -1.5728 0.133573 -0.17288
41 1.29609 0 0 0.120501 0.0520645 0.782583
42 1.62201 -0.000715256 -0.000469208 0.0811908 -0.0245018 1.19712
43 1.22241 0 0 -0.0119317 -0.00594707 1.29801
44 1.76707 -1.27612 0.0366408 -1.48212 0.284875 -0.100851
45 1.55588 0 0 0.223724 0.08684 0.700865
46 1.24273 0 0 0.000478939 0.000360571 0.964696
47 0.784532 0 0 -0.0061863 0.000249598 0.884667
48 0 0 0 0 0 0
49 -5.90736 -23.5477 -6.06837 -0.00149711 0.00121861 -0.00215228
50 0 -0.7031 2.39715 0 0 0
51 -0.0145812 -0.456413 1.68256 -1.0472 0 0
52 -5.90999 -24.9083 -5.82105 -0.0014972 0.0012187 -0.00215171
53 0 -0.675064 1.41593 0 0 0
54 0 0.979376 2.33571 0.174533 0 0
55 0 -1.91969 2.85382 0 0 0
56 0 2.062 1.89702 -0.785398 0 0
57 0 -1.66928 2.60403 -0.0368113 0 0
58 6.98255 2.1009 -16.1176 0 0 0
time 28
0 6.78963 4.11825 -5.6679 0.000934124 0 -1.53243
1 6.02795 0 0 -1.1055 0.365331 -0.419338
2 11.7344 0 0 -0.00140276 0 -0.678079
3 8.81138 -0.000448227 -0.00011158 -0.586354 0 0.00015782
4 5.77839 0.00028801 0 -0.392857 0 0.000103268
5 2.23163 -0.000328064 -0.000363827 -0.193497 0 0
6 11.4725 0 0 -0.766294 -0.413027 0.552886
7 0.615217 -0.993091 -0.8107 2.36302 0.0866627 -0.357379
8 2.24752 0 0 0.0605672 0.267265 -0.222262
9 1.11936 0 0 0.0749173 0.0546635 -0.249677
10 3.71348 -0.102641 0.102191 1.77126 0.869992 0.142171
11 1.72615 0 0 0.013477 -0.00733092 -0.811382
12 1.21114 0 0 0.00873809 0.015128 -0.772911
13 3.59919 -1.06012 0.070888 1.87281 0.766148 0.187134
14 1.66069 0 0 -0.0195999 0.0443892 -0.726687
15 1.167 0 0 0.00841046 -0.00839376 -0.438997
16 2.18852 0.50104 0.0576593 1.57366 -0.0281252 0.156362
17 1.29609 0 0 0.0785582 0.0270527 -1.07235
18 1.62202 0.000715256 -0.000471115 0.00740291 -0.022111 -0.784237
19 1.22241 0 0 0.000237479 0.00593046 -0.707337
20 1.76707 1.27612 0.0366409 1.57458 0.205155 0.106808
21 1.55588 0 0 -0.0273743 0.0177045 -0.702263
22 1.24273 0 0 -0.000479159 0.000360523 -1.15419
23 0.784524 0 0 0.00636378 -0.00322816 -0.741041
24 -6.70653 7.12182 -4.00061 -0.000932693 0 -1.8749
25 6.02794 0 0 1.17401 0.47131 0.259261
26 11.7344 0 0 0.00140275 0 0.756119
27 8.81167 0 0 0.0746325 0 0
28 5.77884 0 0 0.0500038 0 0
29 2.23249 0 0 0.0246288 0 0
30 11.4725 0 0 0.136136 -0.426295 -0.162958
31 0.615812 0.994373 -0.809165 -2.83171 0.442997 0.480737
32 2.24752 0 0 -0.045362 0.233135 0.363247
33 1.11936 0 0 -0.000327936 0.159957 0.657165
34 3.71348 0.10264 0.10219 -1.54675 0.834836 -0.400578
35 1.72615 0 0 -0.00689869 -0.00732658 1.09674
36 1.21112 0 0 0.0103137 0.0102 1.33017
37 3.5992 1.06012 0.0708879 -1.53662 0.394252 -0.182897
38 1.66069 0 0 0.00129287 0.0778541 0.239537
39 1.16699 0 0 0.0426518 0.0218511 0.735105
40 2.18853 -0.50104 0.0576587 -1.5728 0.133573 -0.17288
41 1.29609 0 0 0.120501 0.0520644 0.782584
42 1.62202 -0.000711441 -0.000469208 0.0811908 -0.0245018 1.19712
43 1.22241 0 0 -0.0119317 -0.0059471 1.29801
44 1.76707 -1.27612 0.0366403 -1.48212 0.284875 -0.100851
45 1.55588 0 0 0.223724 0.08684 0.700865
46 1.24273 0 0 0.00047891 0.000360569 0.964696
47 0.784532 0 0 -0.00618631 0.000249594 0.884667
48 0 0 0 0 0 0
49 -5.90566 -23.5499 -6.06786 -0.00107062 0.000592227 -0.00140407
50 0 -0.7031 2.39715 0 0 0
51 -0.0145807 -0.456413 1.68256 -1.0472 0 0
52 -5.90742 -24.9105 -5.82113 -0.00107071 0.000592315 -0.00140351
53 0 -0.675062 1.41593 0 0 0
54 0 0.979376 2.33571 0.174533 0 0
55 0 -1.91969 2.85382 0 0 0
56 0 2.062 1.89702 -0.785398 0 0
57 0 -1.66928 2.60403 -0.0368113 0 0
58 6.98255 2.1009 -16.1176 0 0 0
time 29
0 6.78963 4.11825 -5.6679 0.000934124 0 -1.53243
1 6.02795 0 0 -1.10542 0.365406 -0.419365
2 11.7344 0 0 -0.00140274 0 -0.678408
3 8.81139 -0.000450134 -0.000111103 -0.585598 0 0.000157615
4 5.77839 0.000286102 0 -0.39235 0 0.0001033
5 2.23164 -0.000329971 -0.000363588 -0.193247 0 0
6 11.4725 0 0 -0.766541 -0.413583 0.554401
7 0.615219 -0.993091 -0.8107 2.36302 0.0866628 -0.35738
8 2.24752 0 0 0.0605672 0.267265 -0.222262
9 1.11936 0 0 0.0749175 0.0546635 -0.249677
10 3.71348 -0.102642 0.102191 1.77126 0.869992 0.142171
11 1.72615 0 0 0.013477 -0.0073309 -0.811382
12 1.21114 0 0 0.00873809 0.0151279 -0.772911
13 3.59919 -1.06012 0.0708879 1.87281 0.766148 0.187134
14 1.66069 0 0 -0.0195999 0.0443892 -0.726687
15 1.167 0 0 0.00841045 -0.00839377 -0.438997
16 2.18852 0.50104 0.0576593 1.57366 -0.0281249 0.156362
17 1.2961 0 0 0.0785581 0.0270526 -1.07235
18 1.62202 0.000715256 -0.000471115 0.00740292 -0.0221109 -0.784236
19 1.22241 0 0 0.000237503 0.00593037 -0.707337
20 1.76707 1.27612 0.0366404 1.57458 0.205155 0.106808
21 1.55588 0 0 -0.0273743 0.0177045 -0.702262
22 1.24274 0 0 -0.000479225 0.000360516 -1.15419
23 0.784522 0 0 0.00636384 -0.0032282 -0.741041
24 -6.70653 7.12182 -4.00061 -0.000932693 0 -1.8749
25 6.02794 0 0 1.17412 0.471297 0.259172
26 11.7344 0 0 0.00140268 0 0.756154
27 8.81167 0 0 0.0751872 0 0
28 5.77884 0 0 0.0503755 0 0
29 2.23249 0 0 0.0248119 0 0
30 11.4725 0 0 0.13673 -0.425095 -0.16349
31 0.615812 0.994372 -0.809165 -2.83171 0.442997 0.480737
32 2.24752 0 0 -0.045362 0.233136 0.363247
33 1.11936 0 0 -0.000327963 0.159957 0.657165
34 3.71349 0.102638 0.102191 -1.54675 0.834836 -0.400578
35 1.72615 0 0 -0.00689867 -0.00732658 1.09674
36 1.21112 0 0 0.0103137 0.0102 1.33017
37 3.59921 1.06012 0.0708885 -1.53662 0.394253 -0.182897
38 1.66069 0 0 0.00129288 0.0778541 0.239537
39 1.16699 0 0 0.0426518 0.0218511 0.735105
40 2.18853 -0.501041 0.0576591 -1.5728 0.133573 -0.17288
41 1.29609 0 0 0.120501 0.0520644 0.782583
42 1.62202 -0.000713348 -0.000469685 0.0811908 -0.0245018 1.19712
43 1.22241 0 0 -0.0119317 -0.0059471 1.29801
44 1.76707 -1.27612 0.0366407 -1.48212 0.284875 -0.100851
45 1.55588 0 0 0.223724 0.0868401 0.700865
46 1.24273 0 0 0.000478952 0.00036056 0.964696
47 0.784532 0 0 -0.00618633 0.000249615 0.884667
48 0 0 0 0 0 0
49 -5.90511 -23.55 -6.0692 -0.00036923 0.000160491 -0.000463057
50 0 -0.7031 2.39715 0 0 0
51 -0.0145812 -0.456413 1.68256 -1.0472 0 0
52 -5.9057 -24.9109 -5.82342 -0.000369318 0.000160579 -0.000462493
53 0 -0.675066 1.41593 0 0 0
54 0 0.979376 2.33571 0.174533 0 0
55 0 -1.91969 2.85382 0 0 0
56 0 2.062 1.89702 -0.785398 0 0
57 0 -1.66928 2.60403 -0.0368113 0 0
58 6.98255 2.1009 -16.1176 0 0 0
time 30
0 6.78963 4.11825 -5.6679 0.000934124 0 -1.53243
1 6.02795 0 0 -1.10536 0.365476 -0.419382
2 11.7344 0 0 -0.00140281 0 -0.678617
3 8.81139 -0.000449181 -0.000111341 -0.5853 0 0.000157946
4 5.77839 0.000287056 0 -0.392151 0 0.000103383
5 2.23164 -0.000328064 -0.000364542 -0.193149 0 0
6 11.4725 0 0 -0.766749 -0.413863 0.555192
7 0.615219 -0.993091 -0.8107 2.36302 0.0866628 -0.35738
8 2.24752 0 0 0.0605672 0.267265 -0.222262
9 1.11936 0 0 0.0749173 0.0546634 -0.249677
10 3.71348 -0.102641 0.102191 1.77126 0.869992 0.142171
11 1.72615 0 0 0.013477 -0.00733089 -0.811382
12 1.21114 0 0 0.00873811 0.015128 -0.772911
13 3.5992 -1.06012 0.070888 1.87281 0.766148 0.187134
14 1.66069 0 0 -0.0195999 0.0443892 -0.726687
15 1.167 0 0 0.00841045 -0.00839376 -0.438998
16 2.18852 0.50104 0.0576588 1.57366 -0.0281251 0.156362
17 1.29609 0 0 0.0785581 0.0270526 -1.07235
18 1.62202 0.000713348 -0.000471115 0.00740291 -0.0221109 -0.784237
19 1.22241 0 0 0.000237472 0.00593045 -0.707337
20 1.76707 1.27612 0.0366409 1.57458 0.205155 0.106808
21 1.55588 0 0 -0.0273742 0.0177044 -0.702262
22 1.24273 0 0 -0.000479209 0.000360491 -1.15419
23 0.784523 0 0 0.00636382 -0.00322814 -0.741041
24 -6.70653 7.12182 -4.00061 -0.000932693 0 -1.8749
25 6.02794 0 0 1.17417 0.471342 0.259099
26 11.7344 0 0 0.00140282 0 0.756263
27 8.81167 0 0 0.0753828 0 0
28 5.77884 0 0 0.0505064 0 0
29 2.23249 0 0 0.0248763 0 0
30 11.4725 0 0 0.136965 -0.424482 -0.163791
31 0.615816 0.994373 -0.809165 -2.83171 0.442997 0.480737
32 2.24752 0 0 -0.0453619 0.233136 0.363247
33 1.11936 0 0 -0.000328095 0.159957 0.657165
34 3.71349 0.10264 0.102191 -1.54675 0.834836 -0.400578
35 1.72615 0 0 -0.00689869 -0.00732658 1.09674
36 1.21112 0 0 0.0103137 0.0102 1.33017
37 3.5992 1.06012 0.0708886 -1.53662 0.394253 -0.182897
38 1.66069 0 0 0.00129288 0.0778541 0.239537
39 1.16699 0 0 0.0426518 0.021851 0.735105
40 2.18853 -0.501041 0.0576594 -1.5728 0.133573 -0.17288
41 1.29609 0 0 0.120501 0.0520644 0.782584
42 1.62202 -0.000713348 -0.000470161 0.0811908 -0.0245018 1.19712
43 1.22241 0 0 -0.0119317 -0.0059471 1.29801
44 1.76707 -1.27612 0.0366409 -1.48212 0.284875 -0.100851
45 1.55588 0 0 0.223724 0.08684 0.700865
46 1.24273 0 0 0.000478905 0.00036058 0.964696
47 0.784532 0 0 -0.0061863 0.000249575 0.884667
48 0 0 0 0 0 0
49 -5.90508 -23.5497 -6.07014 0 0 0
50 0 -0.7031 2.39715 0 0 0
51 -0.0145807 -0.456411 1.68256 -1.0472 0 0
52 -5.90508 -24.9106 -5.82486 0 0 0
53 0 -0.675066 1.41593 0 0 0
54 0 0.979376 2.33571 0.174533 0 0
55 0 -1.91969 2.85382 0 0 0
56 0 2.062 1.89702 -0.785398 0 0
57 0 -1.66928 2.60403 -0.0368113 0 0
58 6.98255 2.1009 -16.1176 0 0 0
end
