//Sequence File generated by the Wall Worm SMD Exporter PRO 1.99
//www.wallworm.com
version 1
nodes
0 "b_l_clav" -1
1 "b_l_upperarm" 0
2 "b_l_forearm" 1
3 "b_l_twist3" 2
4 "b_l_twist2" 2
5 "b_l_twist1" 2
6 "b_l_hand" 2
7 "b_l_thumb001" 6
8 "b_l_thumb002" 7
9 "b_l_thumb003" 8
10 "b_l_middle001" 6
11 "b_l_middle002" 10
12 "b_l_middle003" 11
13 "b_l_index001" 6
14 "b_l_index002" 13
15 "b_l_index003" 14
16 "b_l_hand_ringsqueezer" 6
17 "b_l_ring001" 16
18 "b_l_ring002" 17
19 "b_l_ring003" 18
20 "b_l_hand_pinkysqueezer" 6
21 "b_l_pinky001" 20
22 "b_l_pinky002" 21
23 "b_l_pinky003" 22
24 "b_r_clav" -1
25 "b_r_upperarm" 24
26 "b_r_forearm" 25
27 "b_r_twist3" 26
28 "b_r_twist2" 26
29 "b_r_twist1" 26
30 "b_r_hand" 26
31 "b_r_thumb001" 30
32 "b_r_thumb002" 31
33 "b_r_thumb003" 32
34 "b_r_middle001" 30
35 "b_r_middle002" 34
36 "b_r_middle003" 35
37 "b_r_index001" 30
38 "b_r_index002" 37
39 "b_r_index003" 38
40 "b_r_hand_ringsqueezer" 30
41 "b_r_ring001" 40
42 "b_r_ring002" 41
43 "b_r_ring003" 42
44 "b_r_hand_pinkysqueezer" 30
45 "b_r_pinky001" 44
46 "b_r_pinky002" 45
47 "b_r_pinky003" 46
48 "b_zero" -1
49 "d_clip" -1
50 "d_magfollower" 49
51 "d_boolet" 49
52 "d_gun" -1
53 "d_trig" 52
54 "d_slidelock" 52
55 "d_slide" 52
56 "d_ham" 52
57 "d_barrel" 52
58 "d_maglite" -1
end
skeleton
time 0
0 6.78963 4.11825 -5.6679 0.000934124 0 -1.53243
1 6.02795 0 0 -1.10536 0.365476 -0.419382
2 11.7344 0 0 -0.00140281 0 -0.678616
3 8.81138 -0.000450134 -0.000112534 -0.5853 0 0.000157501
4 5.77839 0.000286102 0 -0.392151 0 0.000103115
5 2.23163 -0.000329971 -0.000364065 -0.193149 0 0
6 11.4725 0 0 -0.766749 -0.413863 0.555191
7 0.615219 -0.993091 -0.8107 2.36302 0.0866629 -0.357379
8 2.24752 0 0 0.0605674 0.267265 -0.222262
9 1.11936 0 0 0.0749172 0.0546635 -0.249677
10 3.71348 -0.102641 0.102191 1.77126 0.869992 0.142171
11 1.72615 0 0 0.013477 -0.00733092 -0.811382
12 1.21114 0 0 0.00873809 0.015128 -0.772911
13 3.59919 -1.06012 0.070888 1.87281 0.766148 0.187134
14 1.66069 0 0 -0.0195999 0.0443892 -0.726687
15 1.167 0 0 0.00841045 -0.00839377 -0.438998
16 2.18852 0.50104 0.057659 1.57366 -0.0281249 0.156362
17 1.29609 0 0 0.0785581 0.0270526 -1.07235
18 1.62202 0.000715256 -0.000471115 0.00740289 -0.022111 -0.784236
19 1.22241 0 0 0.000237478 0.00593046 -0.707337
20 1.76707 1.27612 0.0366406 1.57458 0.205155 0.106808
21 1.55587 0 0 -0.0273742 0.0177045 -0.702262
22 1.24273 0 0 -0.000479175 0.000360548 -1.15419
23 0.784523 0 0 0.00636378 -0.00322819 -0.741041
24 -6.70653 7.12182 -4.00061 -0.000932693 0 -1.8749
25 6.02794 0 0 1.17417 0.471342 0.259099
26 11.7344 0 0 0.00140282 0 0.756263
27 8.81167 0 0 0.0753828 0 0
28 5.77884 0 0 0.0505065 0 0
29 2.23249 0 0 0.0248763 0 0
30 11.4725 0 0 0.136965 -0.424482 -0.163792
31 0.615812 0.994372 -0.809165 -2.83171 0.442997 0.480737
32 2.24752 0 0 -0.0453619 0.233136 0.363247
33 1.11936 0 0 -0.000328125 0.159957 0.657165
34 3.71349 0.102639 0.10219 -1.54675 0.834836 -0.400578
35 1.72615 0 0 -0.00689874 -0.00732661 1.09674
36 1.21112 0 0 0.0103137 0.0102 1.33017
37 3.5992 1.06012 0.0708873 -1.53662 0.394253 -0.182897
38 1.66069 0 0 0.00129288 0.0778541 0.239537
39 1.16699 0 0 0.0426519 0.021851 0.735105
40 2.18853 -0.50104 0.0576589 -1.5728 0.133573 -0.17288
41 1.29609 0 0 0.120501 0.0520644 0.782583
42 1.62202 -0.000711441 -0.000469685 0.0811908 -0.0245018 1.19712
43 1.22241 0 0 -0.0119317 -0.00594711 1.29801
44 1.76707 -1.27612 0.0366399 -1.48212 0.284875 -0.100851
45 1.55587 0 0 0.223724 0.08684 0.700865
46 1.24273 0 0 0.000478944 0.000360552 0.964696
47 0.784532 0 0 -0.00618632 0.000249593 0.884667
48 0 0 0 0 0 0
49 -5.90508 -23.5497 -6.07014 0 0 0
50 0 -0.611116 2.11238 0 0 0
51 -0.0145793 -2.38072 2.91209 0 0 0
52 -5.90508 -24.9106 -5.82486 0 0 0
53 0 -0.675064 1.41593 0 0 0
54 0 0.979378 2.2232 0 0 0
55 0 -3.93659 2.85382 0 0 0
56 0 2.062 1.89702 0.0872663 0 0
57 0 -1.66928 2.73772 0 0 0
58 6.98255 2.1009 -16.1176 0 0 0
time 1
0 6.78963 4.11825 -5.6679 0.000934124 0 -1.53243
1 6.02795 0 0 -1.10018 0.379445 -0.414382
2 11.7344 0 0 -0.00140275 0 -0.711171
3 8.81139 -0.000449181 -0.00011158 -0.576298 0 0.000157839
4 5.77839 0.000286102 0 -0.38612 0 0.000103369
5 2.23164 -0.000328064 -0.000363111 -0.190178 0 0
6 11.4725 0 0 -0.764837 -0.420888 0.56353
7 0.615219 -0.993092 -0.8107 2.36302 0.0866627 -0.35738
8 2.24752 0 0 0.0605672 0.267265 -0.222263
9 1.11936 0 0 0.0749173 0.0546635 -0.249677
10 3.71348 -0.102641 0.102191 1.77126 0.869992 0.142171
11 1.72615 0 0 0.013477 -0.00733091 -0.811382
12 1.21114 0 0 0.00873808 0.015128 -0.772911
13 3.59919 -1.06012 0.0708883 1.87281 0.766148 0.187134
14 1.66069 0 0 -0.0195999 0.0443892 -0.726687
15 1.167 0 0 0.00841045 -0.00839377 -0.438997
16 2.18853 0.50104 0.0576593 1.57366 -0.0281251 0.156362
17 1.29609 0 0 0.0785582 0.0270527 -1.07235
18 1.62202 0.000715256 -0.000470161 0.00740287 -0.022111 -0.784237
19 1.22241 0 0 0.000237473 0.00593041 -0.707337
20 1.76707 1.27612 0.0366408 1.57458 0.205155 0.106808
21 1.55588 0 0 -0.0273743 0.0177045 -0.702263
22 1.24273 0 0 -0.0004792 0.000360532 -1.15419
23 0.784524 0 0 0.00636382 -0.00322814 -0.741041
24 -6.70653 7.12182 -4.00061 -0.000932693 0 -1.8749
25 6.02794 0 0 1.16965 0.488177 0.251817
26 11.7344 0 0 0.0014027 0 0.791577
27 8.81167 0 0 0.0697304 0 0
28 5.77884 0 0 0.0467193 0 0
29 2.23249 0 0 0.023011 0 0
30 11.4725 0 0 0.135446 -0.430208 -0.17063
31 0.61581 0.994372 -0.809166 -2.83171 0.442997 0.480737
32 2.24752 0 0 -0.0453619 0.233136 0.363247
33 1.11936 0 0 -0.000328057 0.159957 0.657165
34 3.71349 0.10264 0.102191 -1.54675 0.834836 -0.400578
35 1.72615 0 0 -0.0068987 -0.0073266 1.09674
36 1.21112 0 0 0.0103137 0.0102 1.33017
37 3.5992 1.06012 0.0708879 -1.53662 0.394253 -0.182897
38 1.66069 0 0 0.0202863 0.075181 0.48674
39 1.16699 0 0 0.0438697 0.0101366 0.981334
40 2.18853 -0.50104 0.0576586 -1.5728 0.133573 -0.17288
41 1.29609 0 0 0.120501 0.0520644 0.782583
42 1.62202 -0.000713348 -0.000470161 0.0811908 -0.0245018 1.19712
43 1.22241 0 0 -0.0119317 -0.00594712 1.29801
44 1.76707 -1.27612 0.0366402 -1.48212 0.284875 -0.100851
45 1.55587 0 0 0.223724 0.0868401 0.700865
46 1.24273 0 0 0.000478907 0.000360575 0.964696
47 0.784532 0 0 -0.00618632 0.000249594 0.884667
48 0 0 0 0 0 0
49 -5.90887 -23.3879 -6.03071 -0.0109621 0 -0.0010555
50 0 -0.611115 2.11238 0 0 0
51 -0.0145798 -1.67948 2.80613 -0.126871 0.00396596 -0.00657002
52 -5.9103 -24.746 -5.77053 -0.0109622 0 -0.00105494
53 0 -0.515924 1.48105 0.253209 0 0
54 0 0.979376 2.2232 0 0 0
55 0 -2.93409 2.85382 0 0 0
56 0 2.062 1.89702 -0.349066 0 0
57 0 -1.66928 2.68516 -0.0179903 0 0
58 6.98255 2.1009 -16.1176 0 0 0
time 2
0 6.78963 4.11825 -5.6679 0.000934124 0 -1.53243
1 6.02795 0 0 -1.05713 0.471711 -0.38045
2 11.7344 0 0 -0.0014028 0 -0.921354
3 8.81138 -0.000449181 -0.00011158 -0.495564 0 0.000157574
4 5.77839 0.000285149 0 -0.332028 0 0.000103557
5 2.23163 -0.000329971 -0.000362873 -0.163536 0 0
6 11.4725 0 0 -0.762777 -0.475359 0.653595
7 0.615221 -0.993091 -0.8107 2.36302 0.0866627 -0.357379
8 2.24752 0 0 0.0605674 0.267265 -0.222262
9 1.11936 0 0 0.0749172 0.0546634 -0.249677
10 3.71348 -0.102641 0.102191 1.77126 0.869993 0.142171
11 1.72615 0 0 0.013477 -0.00733088 -0.811382
12 1.21114 0 0 0.00873811 0.0151279 -0.772911
13 3.5992 -1.06012 0.0708882 1.87281 0.766148 0.187134
14 1.66069 0 0 -0.0195999 0.0443892 -0.726687
15 1.167 0 0 0.00841045 -0.00839376 -0.438998
16 2.18853 0.50104 0.0576594 1.57366 -0.028125 0.156362
17 1.2961 0 0 0.0785581 0.0270526 -1.07235
18 1.62202 0.000711441 -0.000471592 0.0074029 -0.0221109 -0.784237
19 1.22241 0 0 0.00023748 0.00593041 -0.707337
20 1.76707 1.27612 0.0366406 1.57458 0.205155 0.106808
21 1.55588 0 0 -0.0273743 0.0177045 -0.702262
22 1.24274 0 0 -0.000479184 0.000360507 -1.15419
23 0.784524 0 0 0.00636382 -0.00322821 -0.741041
24 -6.70653 7.12182 -4.00061 -0.000932693 0 -1.8749
25 6.02794 0 0 1.13281 0.595537 0.201932
26 11.7344 0 0 0.00140268 0 1.00774
27 8.81167 0 0 0.0506206 0 0
28 5.77884 0 0 0.0339158 0 0
29 2.23249 0 0 0.016705 0 0
30 11.4725 0 0 0.146241 -0.446648 -0.228332
31 0.615812 0.994373 -0.809166 -2.83171 0.442997 0.480737
32 2.24752 0 0 -0.045362 0.233136 0.363247
33 1.11936 0 0 -0.000328012 0.159957 0.657165
34 3.71349 0.10264 0.102191 -1.54675 0.834836 -0.400578
35 1.72615 0 0 -0.0068987 -0.00732661 1.09674
36 1.21112 0 0 0.0103137 0.0102 1.33017
37 3.5992 1.06012 0.0708876 -1.53662 0.394253 -0.182897
38 1.66069 0 0 0.0202862 0.075181 0.48674
39 1.16699 0 0 0.0438697 0.0101366 0.981334
40 2.18853 -0.50104 0.0576586 -1.5728 0.133573 -0.17288
41 1.29609 0 0 0.120501 0.0520645 0.782583
42 1.62201 -0.000715256 -0.000470161 0.0811908 -0.0245018 1.19712
43 1.22241 0 0 -0.0119317 -0.0059471 1.29801
44 1.76707 -1.27612 0.0366403 -1.48212 0.284875 -0.100851
45 1.55588 0 0 0.223724 0.08684 0.700865
46 1.24273 0 0 0.000478914 0.000360567 0.964696
47 0.784533 0 0 -0.0061863 0.000249579 0.884667
48 0 0 0 0 0 0
49 -5.87743 -22.2315 -5.9578 -0.0561414 -0.0115915 0.0109861
50 0 -0.611115 2.11238 0 0 0
51 -0.0145798 -0.97823 2.70018 -0.217493 0.00679878 -0.0112629
52 -5.86638 -23.5765 -5.63657 -0.0561415 -0.0115914 0.0109867
53 0 -0.515924 1.48105 0.253209 0 0
54 0 0.979376 2.2232 0 0 0
55 0 -1.93161 2.85382 0 0 0
56 0 2.062 1.89702 -0.785398 0 0
57 0 -1.66928 2.6326 -0.0359804 0 0
58 6.98255 2.1009 -16.1176 0 0 0
time 3
0 6.78963 4.11825 -5.6679 0.000934124 0 -1.53243
1 6.02795 0 0 -1.00881 0.54568 -0.350327
2 11.7344 0 0 -0.001403 0 -1.11512
3 8.81138 -0.000450134 -0.000112057 -0.456188 0 0.000158213
4 5.77839 0.000286102 0 -0.305646 0 0.000104008
5 2.23163 -0.000329971 -0.000363827 -0.150542 0 0
6 11.4725 0 0 -0.775967 -0.565493 0.691522
7 0.615217 -0.993091 -0.8107 2.36302 0.0866628 -0.357379
8 2.24752 0 0 0.0605673 0.267265 -0.222262
9 1.11936 0 0 0.0749173 0.0546635 -0.249677
10 3.71348 -0.102641 0.102191 1.77126 0.869992 0.142171
11 1.72615 0 0 0.013477 -0.00733088 -0.811382
12 1.21114 0 0 0.00873807 0.015128 -0.772911
13 3.59919 -1.06012 0.0708882 1.87281 0.766148 0.187135
14 1.66069 0 0 -0.0195999 0.0443892 -0.726687
15 1.167 0 0 0.00841045 -0.00839376 -0.438997
16 2.18853 0.50104 0.0576589 1.57366 -0.0281251 0.156362
17 1.2961 0 0 0.0785581 0.0270526 -1.07235
18 1.62202 0.000713348 -0.000471115 0.00740289 -0.0221109 -0.784237
19 1.22241 0 0 0.000237487 0.00593043 -0.707337
20 1.76707 1.27612 0.0366404 1.57458 0.205155 0.106808
21 1.55588 0 0 -0.0273743 0.0177045 -0.702262
22 1.24274 0 0 -0.000479209 0.000360491 -1.15419
23 0.784524 0 0 0.00636383 -0.00322819 -0.741041
24 -6.70653 7.12182 -4.00061 -0.000932693 0 -1.8749
25 6.02794 0 0 1.091 0.689126 0.14822
26 11.7344 0 0 0.00140261 0 1.21865
27 8.81167 0 0 -0.00905672 0 0
28 5.77884 0 0 -0.00606794 0 0
29 2.23249 0 0 -0.00298873 0 0
30 11.4725 0 0 0.0911966 -0.465316 -0.218723
31 0.615812 0.994372 -0.809166 -2.83171 0.442997 0.480737
32 2.24752 0 0 -0.045362 0.233136 0.363247
33 1.11936 0 0 -0.000328095 0.159957 0.657165
34 3.71348 0.102639 0.102191 -1.54675 0.834836 -0.400578
35 1.72615 0 0 -0.0068987 -0.00732662 1.09674
36 1.21112 0 0 0.0103137 0.0102 1.33017
37 3.5992 1.06012 0.0708879 -1.53662 0.394253 -0.182897
38 1.66069 0 0 0.0202863 0.075181 0.48674
39 1.16699 0 0 0.0438697 0.0101366 0.981335
40 2.18853 -0.50104 0.0576589 -1.5728 0.133573 -0.17288
41 1.29609 0 0 0.120501 0.0520644 0.782584
42 1.62202 -0.000713348 -0.000469685 0.0811908 -0.0245018 1.19712
43 1.22241 0 0 -0.0119317 -0.00594712 1.29801
44 1.76707 -1.27612 0.0366408 -1.48212 0.284875 -0.100851
45 1.55587 0 0 0.223724 0.0868401 0.700865
46 1.24273 0 0 0.000478921 0.000360572 0.964696
47 0.784532 0 0 -0.00618631 0.000249585 0.884667
48 0 0 0 0 0 0
49 -5.78662 -20.8335 -5.48321 -0.156449 0.0251188 0.0251776
50 0 -0.611116 2.11238 0 0 0
51 -0.0150852 -1.13472 2.69746 -0.271867 0.00849847 -0.0140786
52 -5.74233 -22.1389 -5.02902 -0.156449 0.025119 0.0251782
53 0 -0.515923 1.48105 0.253209 0 0
54 0 0.979378 2.2232 0 0 0
55 0 -1.9316 2.85382 0 0 0
56 0 2.062 1.89702 -0.785398 0 0
57 0 -1.66928 2.6326 -0.0359804 0 0
58 6.98255 2.1009 -16.1176 0 0 0
time 4
0 6.78963 4.11825 -5.6679 0.000934124 0 -1.53243
1 6.02795 0 0 -0.997455 0.560102 -0.344003
2 11.7344 0 0 -0.00140277 0 -1.15915
3 8.81138 -0.000448227 -0.000111341 -0.482724 0 0.00015751
4 5.77839 0.00028801 0 -0.323425 0 0.000103549
5 2.23163 -0.000328064 -0.000363827 -0.159299 0 0
6 11.4725 0 0 -0.770651 -0.621838 0.644831
7 0.615219 -0.993092 -0.8107 2.36302 0.0866628 -0.357379
8 2.24752 0 0 0.0605672 0.267265 -0.222262
9 1.11936 0 0 0.0749173 0.0546635 -0.249677
10 3.71348 -0.102641 0.102191 1.77126 0.869992 0.142171
11 1.72615 0 0 0.013477 -0.00733089 -0.811382
12 1.21114 0 0 0.00873809 0.0151279 -0.772911
13 3.59919 -1.06012 0.0708878 1.87281 0.766148 0.187135
14 1.66069 0 0 -0.0195999 0.0443892 -0.726687
15 1.167 0 0 0.00841045 -0.00839377 -0.438998
16 2.18852 0.50104 0.0576587 1.57366 -0.0281251 0.156362
17 1.29609 0 0 0.0785581 0.0270526 -1.07235
18 1.62202 0.000713348 -0.000471115 0.00740288 -0.0221109 -0.784236
19 1.22241 0 0 0.000237458 0.00593045 -0.707337
20 1.76707 1.27612 0.0366406 1.57458 0.205155 0.106808
21 1.55588 0 0 -0.0273743 0.0177044 -0.702262
22 1.24273 0 0 -0.000479254 0.000360533 -1.15419
23 0.784524 0 0 0.00636375 -0.00322817 -0.741041
24 -6.70653 7.12182 -4.00061 -0.000932693 0 -1.8749
25 6.02794 0 0 1.0812 0.708161 0.135736
26 11.7344 0 0 0.00140277 0 1.26846
27 8.81167 0 0 -0.0385805 0 0
28 5.77884 0 0 -0.025849 0 0
29 2.23249 0 0 -0.0127316 0 0
30 11.4725 0 0 0.0333121 -0.469462 -0.149476
31 0.615813 0.994371 -0.809165 -2.83171 0.442997 0.480737
32 2.24752 0 0 -0.0453622 0.233135 0.363247
33 1.11936 0 0 -0.000328061 0.159957 0.657165
34 3.71349 0.10264 0.102192 -1.54675 0.834836 -0.400578
35 1.72615 0 0 -0.00689871 -0.0073266 1.09674
36 1.21112 0 0 0.0103137 0.0102 1.33017
37 3.5992 1.06011 0.0708883 -1.53662 0.394253 -0.182897
38 1.66069 0 0 0.0202862 0.075181 0.48674
39 1.16699 0 0 0.0438697 0.0101366 0.981334
40 2.18853 -0.501041 0.0576595 -1.5728 0.133573 -0.17288
41 1.29609 0 0 0.120501 0.0520645 0.782583
42 1.62202 -0.000715256 -0.000469208 0.0811908 -0.0245018 1.19712
43 1.22241 0 0 -0.0119317 -0.00594711 1.29801
44 1.76707 -1.27612 0.036641 -1.48212 0.284875 -0.100851
45 1.55588 0 0 0.223724 0.0868401 0.700865
46 1.24273 0 0 0.000478923 0.000360559 0.964696
47 0.784531 0 0 -0.0061863 0.000249588 0.884667
48 0 0 0 0 0 0
49 -5.70145 -20.3954 -5.1412 -0.235812 0.0638246 0.0306932
50 0 -0.611113 2.11238 0 0 0
51 -0.0155888 -1.2912 2.69473 -0.289991 0.00906504 -0.0150172
52 -5.62712 -21.6597 -4.58589 -0.235812 0.0638248 0.0306937
53 0 -0.515923 1.48105 0.253209 0 0
54 0 0.979376 2.2232 0 0 0
55 0 -1.9316 2.85382 0 0 0
56 0 2.062 1.89702 -0.785398 0 0
57 0 -1.66928 2.6326 -0.0359801 0 0
58 6.98255 2.1009 -16.1176 0 0 0
time 5
0 6.78963 4.11825 -5.6679 0.000934124 0 -1.53243
1 6.02795 0 0 -1.01589 0.537256 -0.353314
2 11.7344 0 0 -0.00140283 0 -1.10588
3 8.81139 -0.000450134 -0.000112057 -0.491677 0 0.00015732
4 5.77839 0.000286102 0 -0.329424 0 0.000103314
5 2.23164 -0.000331879 -0.000363827 -0.162253 0 0
6 11.4725 0 0 -0.775906 -0.586458 0.650267
7 0.615217 -0.993091 -0.810699 2.36302 0.0866628 -0.357379
8 2.24752 0 0 0.0605673 0.267265 -0.222262
9 1.11936 0 0 0.0749174 0.0546634 -0.249677
10 3.71348 -0.10264 0.102191 1.77126 0.869992 0.142172
11 1.72615 0 0 0.013477 -0.0073309 -0.811382
12 1.21114 0 0 0.00873809 0.015128 -0.772911
13 3.59919 -1.06012 0.0708885 1.87281 0.766148 0.187135
14 1.66069 0 0 -0.0195999 0.0443892 -0.726687
15 1.167 0 0 0.00841045 -0.00839377 -0.438997
16 2.18853 0.50104 0.0576594 1.57366 -0.028125 0.156362
17 1.29609 0 0 0.0785581 0.0270526 -1.07235
18 1.62202 0.000713348 -0.000471115 0.0074029 -0.022111 -0.784237
19 1.22241 0 0 0.000237473 0.00593044 -0.707337
20 1.76707 1.27612 0.0366409 1.57458 0.205155 0.106808
21 1.55588 0 0 -0.0273742 0.0177045 -0.702263
22 1.24274 0 0 -0.000479202 0.000360495 -1.15419
23 0.784523 0 0 0.00636381 -0.00322818 -0.741041
24 -6.70653 7.12182 -4.00061 -0.000932693 0 -1.8749
25 6.02794 0 0 1.09836 0.678164 0.154208
26 11.7344 0 0 0.00140254 0 1.20989
27 8.81167 0 0 -0.027415 0 0
28 5.77884 0 0 -0.018368 0 0
29 2.23249 0 0 -0.00904685 0 0
30 11.4725 0 0 0.0515808 -0.460193 -0.170694
31 0.615812 0.994371 -0.809165 -2.83171 0.442997 0.480737
32 2.24752 0 0 -0.0453619 0.233136 0.363247
33 1.11936 0 0 -0.000328178 0.159957 0.657165
34 3.71349 0.10264 0.102191 -1.54675 0.834836 -0.400578
35 1.72615 0 0 -0.0068987 -0.00732661 1.09674
36 1.21112 0 0 0.0103137 0.0102 1.33017
37 3.5992 1.06012 0.0708883 -1.53662 0.394253 -0.182897
38 1.66069 0 0 0.015362 0.075874 0.42265
39 1.16699 0 0 0.043554 0.0131737 0.917497
40 2.18853 -0.50104 0.0576592 -1.5728 0.133573 -0.17288
41 1.29609 0 0 0.120501 0.0520645 0.782583
42 1.62202 -0.000713348 -0.000470161 0.0811907 -0.0245018 1.19712
43 1.22241 0 0 -0.0119317 -0.00594711 1.29801
44 1.76707 -1.27612 0.0366412 -1.48212 0.284875 -0.100851
45 1.55588 0 0 0.223724 0.08684 0.700865
46 1.24273 0 0 0.000478928 0.000360575 0.964696
47 0.784532 0 0 -0.00618631 0.00024958 0.884667
48 0 0 0 0 0 0
49 -5.72703 -20.8619 -5.22282 -0.194763 0.0536589 0.0282059
50 0 -0.611113 2.11238 0 0 0
51 -0.0160933 -1.44769 2.69201 -0.271867 0.00849847 -0.0140786
52 -5.66369 -22.1484 -4.71952 -0.194763 0.0536591 0.0282064
53 0 -0.580757 1.45452 0.15005 0 0
54 0 0.979378 2.2232 0 0 0
55 0 -1.9316 2.85382 0 0 0
56 0 2.062 1.89703 -0.785398 0 0
57 0 -1.66928 2.6326 -0.0359804 0 0
58 6.98255 2.1009 -16.1176 0 0 0
time 6
0 6.78963 4.11825 -5.6679 0.000934124 0 -1.53243
1 6.02795 0 0 -1.0334 0.513115 -0.362788
2 11.7344 0 0 -0.00140283 0 -1.04913
3 8.81139 -0.000450134 -0.000111103 -0.486408 0 0.000157369
4 5.77839 0.000284195 0 -0.325893 0 0.000103387
5 2.23163 -0.000329971 -0.000362873 -0.160514 0 0
6 11.4725 0 0 -0.784193 -0.534276 0.680544
7 0.615219 -0.993091 -0.8107 2.36302 0.0866627 -0.35738
8 2.24752 0 0 0.0605674 0.267265 -0.222262
9 1.11936 0 0 0.0749174 0.0546635 -0.249677
10 3.71348 -0.102641 0.102191 1.77126 0.869992 0.142171
11 1.72615 0 0 0.013477 -0.0073309 -0.811382
12 1.21114 0 0 0.00873812 0.015128 -0.772911
13 3.5992 -1.06012 0.0708882 1.87281 0.766148 0.187134
14 1.66068 0 0 -0.0195999 0.0443892 -0.726687
15 1.167 0 0 0.00841045 -0.00839377 -0.438997
16 2.18852 0.50104 0.0576593 1.57366 -0.0281252 0.156362
17 1.29609 0 0 0.0785581 0.0270526 -1.07235
18 1.62202 0.000713348 -0.000471115 0.00740289 -0.0221109 -0.784236
19 1.22241 0 0 0.000237467 0.00593044 -0.707337
20 1.76707 1.27612 0.0366411 1.57458 0.205155 0.106808
21 1.55587 0 0 -0.0273743 0.0177045 -0.702262
22 1.24273 0 0 -0.000479212 0.000360524 -1.15419
23 0.784523 0 0 0.00636381 -0.00322815 -0.741041
24 -6.70653 7.12182 -4.00061 -0.000932693 0 -1.8749
25 6.02794 0 0 1.11433 0.646839 0.1722
26 11.7344 0 0 0.00140281 0 1.14687
27 8.81167 0 0 -0.0110669 0 0
28 5.77884 0 0 -0.00741481 0 0
29 2.23249 0 0 -0.00365213 0 0
30 11.4725 0 0 0.0875989 -0.448465 -0.222386
31 0.615813 0.994372 -0.809165 -2.83171 0.442997 0.480737
32 2.24752 0 0 -0.045362 0.233136 0.363247
33 1.11936 0 0 -0.000328148 0.159957 0.657165
34 3.71349 0.102639 0.102191 -1.54675 0.834836 -0.400578
35 1.72615 0 0 -0.00689871 -0.00732661 1.09674
36 1.21112 0 0 0.0103137 0.0102 1.33017
37 3.5992 1.06012 0.0708885 -1.53662 0.394253 -0.182897
38 1.66069 0 0 0.0062172 0.077161 0.303627
39 1.16699 0 0 0.0429675 0.018814 0.798942
40 2.18853 -0.50104 0.0576593 -1.5728 0.133573 -0.17288
41 1.29609 0 0 0.120501 0.0520644 0.782583
42 1.62202 -0.000713348 -0.000469685 0.0811908 -0.0245018 1.19712
43 1.22241 0 0 -0.0119317 -0.00594711 1.29801
44 1.76707 -1.27612 0.0366403 -1.48212 0.284875 -0.100851
45 1.55588 0 0 0.223724 0.08684 0.700865
46 1.24273 0 0 0.000478919 0.000360571 0.964696
47 0.784533 0 0 -0.00618631 0.000249586 0.884667
48 0 0 0 0 0 0
49 -5.77856 -21.3616 -5.41663 -0.125323 0.0316699 0.0229078
50 0 -0.611113 2.11238 0 0 0
51 -0.0155888 -1.88622 2.76537 -0.217493 0.00679878 -0.0112629
52 -5.73525 -22.6806 -5.00337 -0.125323 0.0316701 0.0229083
53 0 -0.645592 1.42799 0.0468908 0 0
54 0 0.979378 2.2232 0 0 0
55 0 -2.59993 2.85382 0 0 0
56 0 2.062 1.89702 -0.785398 0 0
57 0 -1.66928 2.66764 -0.0239872 0 0
58 6.98255 2.1009 -16.1176 0 0 0
time 7
0 6.78963 4.11825 -5.6679 0.000934124 0 -1.53243
1 6.02795 0 0 -1.04098 0.501924 -0.367002
2 11.7344 0 0 -0.00140285 0 -1.02425
3 8.81139 -0.000448227 -0.00011158 -0.479791 0 0.000157566
4 5.77839 0.000286102 0 -0.32146 0 0.000103592
5 2.23163 -0.000328064 -0.000363827 -0.158331 0 0
6 11.4725 0 0 -0.780738 -0.515443 0.687751
7 0.615219 -0.993091 -0.8107 2.36302 0.0866627 -0.357379
8 2.24752 0 0 0.0605673 0.267265 -0.222262
9 1.11935 0 0 0.0749173 0.0546636 -0.249677
10 3.71348 -0.102641 0.102191 1.77126 0.869992 0.142171
11 1.72615 0 0 0.013477 -0.0073309 -0.811382
12 1.21114 0 0 0.0087381 0.015128 -0.772911
13 3.59919 -1.06012 0.0708883 1.87281 0.766148 0.187134
14 1.66069 0 0 -0.0195999 0.0443892 -0.726687
15 1.167 0 0 0.00841045 -0.00839377 -0.438998
16 2.18852 0.50104 0.0576593 1.57366 -0.0281251 0.156362
17 1.29609 0 0 0.0785582 0.0270526 -1.07235
18 1.62202 0.000711441 -0.000471115 0.00740288 -0.0221109 -0.784236
19 1.22241 0 0 0.000237465 0.00593043 -0.707337
20 1.76707 1.27612 0.0366411 1.57458 0.205155 0.106808
21 1.55588 0 0 -0.0273743 0.0177045 -0.702262
22 1.24274 0 0 -0.00047925 0.0003605 -1.15419
23 0.784524 0 0 0.00636383 -0.0032282 -0.741041
24 -6.70653 7.12182 -4.00061 -0.000932693 0 -1.8749
25 6.02794 0 0 1.12074 0.633359 0.179536
26 11.7344 0 0 0.00140265 0 1.11982
27 8.81167 0 0 -0.000197321 0 0
28 5.77884 0 0 -0.000132143 0 0
29 2.23249 0 0 0 0 0
30 11.4725 0 0 0.104016 -0.444342 -0.238631
31 0.615813 0.994371 -0.809165 -2.83171 0.442997 0.480737
32 2.24752 0 0 -0.0453619 0.233136 0.363247
33 1.11936 0 0 -0.000328219 0.159957 0.657165
34 3.71349 0.102639 0.102191 -1.54675 0.834836 -0.400578
35 1.72615 0 0 -0.00689871 -0.0073266 1.09674
36 1.21112 0 0 0.0103137 0.0102 1.33017
37 3.5992 1.06012 0.0708883 -1.53662 0.394253 -0.182897
38 1.66069 0 0 0.00129288 0.0778541 0.239538
39 1.16699 0 0 0.0426518 0.021851 0.735105
40 2.18853 -0.501041 0.057659 -1.5728 0.133573 -0.17288
41 1.29609 0 0 0.120501 0.0520645 0.782583
42 1.62201 -0.000715256 -0.000469208 0.0811908 -0.0245018 1.19712
43 1.22241 0 0 -0.0119317 -0.00594712 1.29801
44 1.76707 -1.27612 0.0366409 -1.48212 0.284875 -0.100851
45 1.55587 0 0 0.223724 0.08684 0.700865
46 1.24273 0 0 0.000478926 0.000360569 0.964696
47 0.784532 0 0 -0.00618631 0.000249589 0.884667
48 0 0 0 0 0 0
49 -5.79927 -21.5616 -5.47911 -0.101521 0.0199365 0.0209763
50 0 -0.611115 2.11238 0 0 0
51 -0.0150847 -2.32476 2.83873 -0.126871 0.00396596 -0.00657002
52 -5.76378 -22.8902 -5.09724 -0.101521 0.0199366 0.0209768
53 0 -0.675064 1.41593 0 0 0
54 0 0.979378 2.2232 0 0 0
55 0 -3.26826 2.85382 0 0 0
56 0 2.062 1.89702 -0.785398 0 0
57 0 -1.66928 2.70268 -0.0119933 0 0
58 6.98255 2.1009 -16.1176 0 0 0
time 8
0 6.78963 4.11825 -5.6679 0.000934124 0 -1.53243
1 6.02795 0 0 -1.04817 0.490725 -0.371197
2 11.7344 0 0 -0.00140279 0 -0.997456
3 8.81138 -0.000450134 -0.00011158 -0.478029 0 0.000158308
4 5.77839 0.000286102 0 -0.320279 0 0.00010401
5 2.23163 -0.000328064 -0.00036335 -0.15775 0 0
6 11.4725 0 0 -0.767529 -0.510771 0.670898
7 0.615221 -0.993091 -0.8107 2.36302 0.0866628 -0.357379
8 2.24752 0 0 0.0605672 0.267265 -0.222263
9 1.11936 0 0 0.0749174 0.0546635 -0.249677
10 3.71348 -0.102641 0.102191 1.77126 0.869992 0.142172
11 1.72615 0 0 0.013477 -0.00733087 -0.811382
12 1.21114 0 0 0.0087381 0.015128 -0.772911
13 3.59919 -1.06012 0.070888 1.87281 0.766148 0.187135
14 1.66069 0 0 -0.0195999 0.0443892 -0.726687
15 1.167 0 0 0.00841046 -0.00839377 -0.438997
16 2.18853 0.50104 0.0576591 1.57366 -0.028125 0.156362
17 1.29609 0 0 0.0785581 0.0270526 -1.07235
18 1.62202 0.000715256 -0.000471115 0.00740293 -0.0221109 -0.784236
19 1.22241 0 0 0.000237482 0.00593043 -0.707337
20 1.76707 1.27612 0.0366412 1.57458 0.205155 0.106808
21 1.55588 0 0 -0.0273743 0.0177045 -0.702262
22 1.24274 0 0 -0.000479229 0.000360549 -1.15419
23 0.784524 0 0 0.00636382 -0.0032282 -0.741041
24 -6.70653 7.12182 -4.00061 -0.000932693 0 -1.8749
25 6.02794 0 0 1.12639 0.620012 0.186847
26 11.7344 0 0 0.00140278 0 1.08979
27 8.81167 0 0 0.0155275 0 0
28 5.77884 0 0 0.0104034 0 0
29 2.23249 0 0 0.00512404 0 0
30 11.4725 0 0 0.112952 -0.444955 -0.226181
31 0.615812 0.994372 -0.809165 -2.83171 0.442997 0.480737
32 2.24752 0 0 -0.045362 0.233136 0.363247
33 1.11936 0 0 -0.000328099 0.159957 0.657165
34 3.71349 0.102639 0.102191 -1.54675 0.834836 -0.400578
35 1.72615 0 0 -0.00689873 -0.0073266 1.09674
36 1.21112 0 0 0.0103137 0.0102 1.33017
37 3.5992 1.06012 0.0708879 -1.53662 0.394253 -0.182897
38 1.66069 0 0 0.0012929 0.0778541 0.239537
39 1.16699 0 0 0.0426518 0.021851 0.735105
40 2.18853 -0.50104 0.0576596 -1.5728 0.133573 -0.17288
41 1.29609 0 0 0.120501 0.0520644 0.782584
42 1.62201 -0.000713348 -0.000469685 0.0811908 -0.0245018 1.19712
43 1.22241 0 0 -0.0119317 -0.00594711 1.29801
44 1.76707 -1.27612 0.0366403 -1.48212 0.284875 -0.100851
45 1.55588 0 0 0.223724 0.0868401 0.700865
46 1.24273 0 0 0.000478927 0.000360569 0.964696
47 0.784533 0 0 -0.00618631 0.00024959 0.884667
48 0 0 0 0 0 0
49 -5.80921 -21.7428 -5.49346 -0.101234 0.0110655 0.0210518
50 0 -0.611115 2.11238 0 0 0
51 -0.0145802 -2.76329 2.91209 0 0 0
52 -5.77701 -23.0716 -5.11192 -0.101234 0.0110656 0.0210524
53 0 -0.675064 1.41593 0 0 0
54 0 0.979376 2.2232 0 0 0
55 0 -3.93659 2.85382 0 0 0
56 0 2.062 1.89702 -0.785398 0 0
57 0 -1.66928 2.73772 0 0 0
58 6.98255 2.1009 -16.1176 0 0 0
time 9
0 6.78963 4.11825 -5.6679 0.000934124 0 -1.53243
1 6.02795 0 0 -1.05482 0.479648 -0.375395
2 11.7344 0 0 -0.00140275 0 -0.968945
3 8.81138 -0.000450134 -0.000111341 -0.48077 0 0.000157615
4 5.77839 0.00028801 0 -0.322116 0 0.000103613
5 2.23163 -0.000329971 -0.000363827 -0.158654 0 0
6 11.4725 0 0 -0.750737 -0.51354 0.640812
7 0.615221 -0.993091 -0.810701 2.36302 0.0866628 -0.357379
8 2.24752 0 0 0.0605672 0.267265 -0.222262
9 1.11936 0 0 0.0749173 0.0546635 -0.249677
10 3.71348 -0.10264 0.102191 1.77126 0.869992 0.142171
11 1.72615 0 0 0.013477 -0.00733089 -0.811382
12 1.21114 0 0 0.00873809 0.0151279 -0.772911
13 3.59919 -1.06012 0.0708878 1.87281 0.766148 0.187134
14 1.66069 0 0 -0.0195999 0.0443892 -0.726687
15 1.167 0 0 0.00841045 -0.00839376 -0.438998
16 2.18853 0.50104 0.0576586 1.57366 -0.0281251 0.156362
17 1.29609 0 0 0.0785582 0.0270527 -1.07235
18 1.62202 0.000715256 -0.000471115 0.0074029 -0.022111 -0.784236
19 1.22241 0 0 0.000237494 0.00593043 -0.707337
20 1.76707 1.27612 0.0366409 1.57458 0.205155 0.106808
21 1.55588 0 0 -0.0273743 0.0177045 -0.702263
22 1.24273 0 0 -0.000479196 0.000360499 -1.15419
23 0.784524 0 0 0.00636381 -0.00322821 -0.741041
24 -6.70653 7.12182 -4.00061 -0.000932693 0 -1.8749
25 6.02794 0 0 1.13133 0.607071 0.193954
26 11.7344 0 0 0.00140279 0 1.05821
27 8.81167 0 0 0.0331967 0 0
28 5.77884 0 0 0.0222417 0 0
29 2.23249 0 0 0.0109549 0 0
30 11.4725 0 0 0.117004 -0.44806 -0.198205
31 0.615814 0.994373 -0.809166 -2.83171 0.442997 0.480737
32 2.24752 0 0 -0.045362 0.233136 0.363247
33 1.11936 0 0 -0.000328125 0.159957 0.657165
34 3.71349 0.102639 0.102191 -1.54675 0.834836 -0.400578
35 1.72615 0 0 -0.0068987 -0.0073266 1.09674
36 1.21112 0 0 0.0103137 0.0102 1.33017
37 3.5992 1.06012 0.0708883 -1.53662 0.394253 -0.182897
38 1.66069 0 0 0.00129288 0.0778541 0.239537
39 1.16699 0 0 0.0426518 0.021851 0.735105
40 2.18853 -0.50104 0.0576592 -1.5728 0.133573 -0.17288
41 1.29609 0 0 0.120501 0.0520644 0.782583
42 1.62202 -0.000711441 -0.000470161 0.0811908 -0.0245018 1.19712
43 1.22241 0 0 -0.0119317 -0.00594712 1.29801
44 1.76707 -1.27612 0.0366405 -1.48212 0.284875 -0.100851
45 1.55588 0 0 0.223724 0.0868401 0.700865
46 1.24273 0 0 0.000478924 0.000360568 0.964696
47 0.784532 0 0 -0.00618631 0.000249588 0.884667
48 0 0 0 0 0 0
49 -5.81316 -21.9157 -5.49176 -0.113143 0.00475067 0.0223737
50 0 -0.611113 2.11238 0 0 0
51 -0.0145802 -2.7459 2.91209 0 0 0
52 -5.78164 -23.2399 -5.0944 -0.113143 0.00475082 0.0223743
53 0 -0.675062 1.41593 0 0 0
54 0 0.979378 2.2232 0 0 0
55 0 -3.93659 2.85382 0 0 0
56 0 2.062 1.89702 -0.785398 0 0
57 0 -1.66928 2.73772 0 0 0
58 6.98255 2.1009 -16.1176 0 0 0
time 10
0 6.78963 4.11825 -5.6679 0.000934124 0 -1.53243
1 6.02795 0 0 -1.06089 0.468695 -0.379697
2 11.7344 0 0 -0.00140282 0 -0.938641
3 8.81138 -0.000450134 -0.000113249 -0.487714 0 0.000157757
4 5.77839 0.000284195 0 -0.326768 0 0.000103628
5 2.23164 -0.000330925 -0.000363827 -0.160946 0 0
6 11.4725 0 0 -0.736012 -0.517181 0.608095
7 0.615217 -0.993092 -0.8107 2.36302 0.0866627 -0.357379
8 2.24752 0 0 0.0605673 0.267265 -0.222263
9 1.11936 0 0 0.0749173 0.0546636 -0.249677
10 3.71348 -0.10264 0.102191 1.77126 0.869992 0.142171
11 1.72615 0 0 0.013477 -0.00733089 -0.811382
12 1.21114 0 0 0.00873812 0.0151279 -0.772911
13 3.59919 -1.06012 0.0708878 1.87281 0.766148 0.187135
14 1.66068 0 0 -0.0195999 0.0443892 -0.726687
15 1.167 0 0 0.00841045 -0.00839377 -0.438998
16 2.18852 0.50104 0.0576594 1.57366 -0.028125 0.156362
17 1.29609 0 0 0.0785581 0.0270526 -1.07235
18 1.62202 0.000713348 -0.000471115 0.00740287 -0.0221109 -0.784236
19 1.22241 0 0 0.0002375 0.0059304 -0.707337
20 1.76707 1.27612 0.0366406 1.57458 0.205155 0.106808
21 1.55588 0 0 -0.0273743 0.0177045 -0.702263
22 1.24274 0 0 -0.000479176 0.000360495 -1.15419
23 0.784524 0 0 0.00636383 -0.0032282 -0.741041
24 -6.70653 7.12182 -4.00061 -0.000932693 0 -1.8749
25 6.02794 0 0 1.13584 0.594078 0.20109
26 11.7344 0 0 0.00140256 0 1.02483
27 8.81167 0 0 0.0501626 0 0
28 5.77884 0 0 0.033609 0 0
29 2.23249 0 0 0.0165537 0 0
30 11.4725 0 0 0.118745 -0.451232 -0.166947
31 0.615814 0.994372 -0.809165 -2.83171 0.442997 0.480737
32 2.24752 0 0 -0.045362 0.233136 0.363247
33 1.11936 0 0 -0.00032808 0.159957 0.657165
34 3.71349 0.102639 0.102191 -1.54675 0.834836 -0.400578
35 1.72615 0 0 -0.0068987 -0.0073266 1.09674
36 1.21112 0 0 0.0103137 0.0102 1.33017
37 3.5992 1.06012 0.0708881 -1.53662 0.394253 -0.182897
38 1.66069 0 0 0.00129288 0.0778541 0.239537
39 1.16699 0 0 0.0426518 0.0218511 0.735105
40 2.18853 -0.50104 0.0576591 -1.5728 0.133573 -0.17288
41 1.29609 0 0 0.120501 0.0520645 0.782583
42 1.62202 -0.000715256 -0.000469685 0.0811908 -0.0245018 1.19712
43 1.22241 0 0 -0.0119317 -0.0059471 1.29801
44 1.76707 -1.27612 0.0366403 -1.48212 0.284875 -0.100851
45 1.55588 0 0 0.223724 0.08684 0.700865
46 1.24273 0 0 0.000478917 0.000360571 0.964696
47 0.784533 0 0 -0.00618631 0.000249587 0.884667
48 0 0 0 0 0 0
49 -5.81555 -22.0894 -5.50647 -0.125925 0.000579164 0.0238196
50 0 -0.611115 2.11238 0 0 0
51 -0.0145802 -2.72851 2.91209 0 0 0
52 -5.78389 -23.4084 -5.09221 -0.125925 0.000579321 0.0238201
53 0 -0.675066 1.41593 0 0 0
54 0 0.979374 2.2232 0 0 0
55 0 -3.93659 2.85382 0 0 0
56 0 2.062 1.89702 -0.785398 0 0
57 0 -1.66928 2.73772 0 0 0
58 6.98255 2.1009 -16.1176 0 0 0
time 11
0 6.78963 4.11825 -5.6679 0.000934124 0 -1.53243
1 6.02795 0 0 -1.06628 0.458007 -0.384091
2 11.7344 0 0 -0.00140294 0 -0.906843
3 8.81139 -0.000449181 -0.000112534 -0.498525 0 0.000157928
4 5.77839 0.000287056 0 -0.334012 0 0.000103683
5 2.23163 -0.000329018 -0.000364304 -0.164513 0 0
6 11.4725 0 0 -0.728978 -0.515322 0.583748
7 0.615217 -0.993092 -0.8107 2.36302 0.0866628 -0.357379
8 2.24752 0 0 0.0605672 0.267265 -0.222262
9 1.11936 0 0 0.0749175 0.0546635 -0.249677
10 3.71348 -0.102641 0.102191 1.77126 0.869992 0.142171
11 1.72615 0 0 0.013477 -0.00733087 -0.811382
12 1.21114 0 0 0.0087381 0.0151279 -0.772911
13 3.59919 -1.06012 0.070888 1.87281 0.766148 0.187134
14 1.66068 0 0 -0.0195999 0.0443892 -0.726687
15 1.167 0 0 0.00841044 -0.00839377 -0.438998
16 2.18852 0.50104 0.0576586 1.57366 -0.0281251 0.156362
17 1.29609 0 0 0.0785581 0.0270526 -1.07235
18 1.62202 0.000713348 -0.000471115 0.00740289 -0.0221109 -0.784237
19 1.22241 0 0 0.000237484 0.00593043 -0.707337
20 1.76707 1.27612 0.0366411 1.57458 0.205155 0.106808
21 1.55588 0 0 -0.0273743 0.0177045 -0.702263
22 1.24274 0 0 -0.000479225 0.000360516 -1.15419
23 0.784523 0 0 0.00636384 -0.0032282 -0.741041
24 -6.70653 7.12182 -4.00061 -0.000932693 0 -1.8749
25 6.02794 0 0 1.14008 0.580919 0.208271
26 11.7344 0 0 0.00140263 0 0.990176
27 8.81167 0 0 0.0633432 0 0
28 5.77884 0 0 0.0424399 0 0
29 2.23249 0 0 0.0209033 0 0
30 11.4725 0 0 0.120956 -0.45229 -0.145162
31 0.615814 0.994373 -0.809166 -2.83171 0.442997 0.480737
32 2.24752 0 0 -0.0453619 0.233136 0.363247
33 1.11936 0 0 -0.000328178 0.159957 0.657165
34 3.71349 0.10264 0.102191 -1.54675 0.834836 -0.400578
35 1.72615 0 0 -0.0068987 -0.00732662 1.09674
36 1.21112 0 0 0.0103137 0.0102 1.33017
37 3.5992 1.06012 0.0708882 -1.53662 0.394252 -0.182897
38 1.66069 0 0 0.00129288 0.0778541 0.239537
39 1.16699 0 0 0.0426518 0.021851 0.735105
40 2.18853 -0.50104 0.0576584 -1.5728 0.133573 -0.17288
41 1.29609 0 0 0.120501 0.0520644 0.782584
42 1.62202 -0.000715256 -0.000470161 0.0811908 -0.0245018 1.19712
43 1.22241 0 0 -0.0119317 -0.00594711 1.29801
44 1.76707 -1.27612 0.0366405 -1.48212 0.284875 -0.100851
45 1.55588 0 0 0.223724 0.0868401 0.700865
46 1.24273 0 0 0.000478919 0.000360571 0.964696
47 0.784532 0 0 -0.00618631 0.000249586 0.884667
48 0 0 0 0 0 0
49 -5.82135 -22.2747 -5.56941 -0.128288 -0.00207694 0.0239069
50 0 -0.611115 2.11238 0 0 0
51 -0.0145802 -2.71112 2.91209 0 0 0
52 -5.7907 -23.5927 -5.15204 -0.128288 -0.00207678 0.0239075
53 0 -0.675064 1.41593 0 0 0
54 0 0.979376 2.2232 0 0 0
55 0 -3.93659 2.85382 0 0 0
56 0 2.062 1.89702 -0.785398 0 0
57 0 -1.66928 2.73772 0 0 0
58 6.98255 2.1009 -16.1176 0 0 0
time 12
0 6.78963 4.11825 -5.6679 0.000934124 0 -1.53243
1 6.02795 0 0 -1.07099 0.447688 -0.38855
2 11.7344 0 0 -0.00140289 0 -0.874089
3 8.81138 -0.000451088 -0.000111103 -0.514685 0 0.000157857
4 5.77839 0.000285149 0 -0.344839 0 0.000103632
5 2.23163 -0.000329971 -0.00036335 -0.169846 0 0
6 11.4725 0 0 -0.73188 -0.50714 0.569969
7 0.615221 -0.993092 -0.8107 2.36302 0.0866627 -0.357379
8 2.24752 0 0 0.0605674 0.267265 -0.222262
9 1.11936 0 0 0.0749173 0.0546635 -0.249677
10 3.71348 -0.102641 0.102191 1.77126 0.869992 0.142171
11 1.72615 0 0 0.013477 -0.0073309 -0.811382
12 1.21114 0 0 0.00873811 0.015128 -0.772911
13 3.59919 -1.06012 0.0708879 1.87281 0.766148 0.187135
14 1.66069 0 0 -0.0195999 0.0443892 -0.726687
15 1.167 0 0 0.00841045 -0.00839377 -0.438997
16 2.18853 0.50104 0.057659 1.57366 -0.028125 0.156362
17 1.29609 0 0 0.0785581 0.0270526 -1.07235
18 1.62202 0.000715256 -0.000471115 0.00740289 -0.0221109 -0.784237
19 1.22241 0 0 0.00023747 0.00593042 -0.707337
20 1.76707 1.27612 0.036641 1.57458 0.205155 0.106808
21 1.55588 0 0 -0.0273743 0.0177045 -0.702262
22 1.24273 0 0 -0.00047922 0.000360537 -1.15419
23 0.784524 0 0 0.00636384 -0.00322818 -0.741041
24 -6.70653 7.12182 -4.00061 -0.000932693 0 -1.8749
25 6.02794 0 0 1.14409 0.56769 0.215405
26 11.7344 0 0 0.00140259 0 0.95517
27 8.81167 0 0 0.0703067 0 0
28 5.77884 0 0 0.0471055 0 0
29 2.23249 0 0 0.0232013 0 0
30 11.4725 0 0 0.122574 -0.450458 -0.135158
31 0.615814 0.994372 -0.809166 -2.83171 0.442997 0.480737
32 2.24752 0 0 -0.0453619 0.233136 0.363247
33 1.11936 0 0 -0.000328106 0.159957 0.657165
34 3.71348 0.102639 0.102191 -1.54675 0.834836 -0.400578
35 1.72615 0 0 -0.00689869 -0.00732661 1.09674
36 1.21112 0 0 0.0103137 0.0102 1.33017
37 3.5992 1.06012 0.0708881 -1.53662 0.394253 -0.182897
38 1.66069 0 0 0.00129286 0.0778541 0.239537
39 1.16699 0 0 0.0426518 0.021851 0.735105
40 2.18853 -0.50104 0.0576584 -1.5728 0.133574 -0.17288
41 1.29609 0 0 0.120501 0.0520645 0.782583
42 1.62201 -0.000713348 -0.000469208 0.0811908 -0.0245018 1.19712
43 1.22241 0 0 -0.0119317 -0.00594712 1.29801
44 1.76707 -1.27612 0.0366401 -1.48212 0.284875 -0.100851
45 1.55587 0 0 0.223724 0.0868401 0.700865
46 1.24273 0 0 0.000478917 0.000360569 0.964696
47 0.784533 0 0 -0.00618631 0.000249581 0.884667
48 0 0 0 0 0 0
49 -5.82944 -22.4703 -5.68028 -0.118382 -0.00192863 0.0223089
50 0 -0.611115 2.11238 0 0 0
51 -0.0145798 -2.69373 2.91209 0 0 0
52 -5.80072 -23.7925 -5.27599 -0.118383 -0.00192848 0.0223094
53 0 -0.675064 1.41593 0 0 0
54 0 0.979378 2.2232 0 0 0
55 0 -3.93659 2.85382 0 0 0
56 0 2.062 1.89702 -0.785398 0 0
57 0 -1.66928 2.73772 0 0 0
58 6.98255 2.1009 -16.1176 0 0 0
time 13
0 6.78963 4.11825 -5.6679 0.000934124 0 -1.53243
1 6.02795 0 0 -1.07524 0.437401 -0.393199
2 11.7344 0 0 -0.00140296 0 -0.840744
3 8.81138 -0.000450134 -0.000112534 -0.535913 0 0.000157875
4 5.77839 0.000286102 0 -0.359062 0 0.00010356
5 2.23163 -0.000328064 -0.000364304 -0.176851 0 0
6 11.4725 0 0 -0.741235 -0.49663 0.560479
7 0.615221 -0.993092 -0.8107 2.36302 0.0866628 -0.357379
8 2.24752 0 0 0.0605673 0.267265 -0.222262
9 1.11935 0 0 0.0749173 0.0546635 -0.249677
10 3.71348 -0.102641 0.102191 1.77126 0.869992 0.142171
11 1.72615 0 0 0.013477 -0.00733088 -0.811382
12 1.21114 0 0 0.00873808 0.015128 -0.772911
13 3.59919 -1.06012 0.0708883 1.87281 0.766148 0.187135
14 1.66069 0 0 -0.0195999 0.0443892 -0.726687
15 1.167 0 0 0.00841045 -0.00839377 -0.438997
16 2.18852 0.501039 0.0576595 1.57366 -0.0281251 0.156362
17 1.29609 0 0 0.0785581 0.0270526 -1.07235
18 1.62202 0.000713348 -0.000471115 0.0074029 -0.022111 -0.784236
19 1.22241 0 0 0.000237455 0.00593048 -0.707337
20 1.76707 1.27612 0.0366408 1.57458 0.205155 0.106808
21 1.55588 0 0 -0.0273743 0.0177045 -0.702262
22 1.24274 0 0 -0.000479229 0.000360549 -1.15419
23 0.784523 0 0 0.00636385 -0.00322816 -0.741041
24 -6.70653 7.12182 -4.00061 -0.000932693 0 -1.8749
25 6.02794 0 0 1.14801 0.55415 0.222584
26 11.7344 0 0 0.00140277 0 0.919902
27 8.81167 0 0 0.072163 0 0
28 5.77884 0 0 0.0483492 0 0
29 2.23249 0 0 0.0238137 0 0
30 11.4725 0 0 0.12138 -0.446802 -0.129418
31 0.615814 0.994372 -0.809165 -2.83171 0.442997 0.480737
32 2.24752 0 0 -0.045362 0.233136 0.363247
33 1.11936 0 0 -0.000328023 0.159957 0.657165
34 3.71349 0.10264 0.102191 -1.54675 0.834836 -0.400578
35 1.72615 0 0 -0.00689869 -0.00732658 1.09674
36 1.21112 0 0 0.0103137 0.0102 1.33017
37 3.5992 1.06012 0.0708882 -1.53662 0.394253 -0.182897
38 1.66069 0 0 0.00129292 0.0778541 0.239538
39 1.16699 0 0 0.0426518 0.021851 0.735105
40 2.18853 -0.50104 0.0576592 -1.5728 0.133573 -0.17288
41 1.29609 0 0 0.120501 0.0520644 0.782584
42 1.62202 -0.000713348 -0.000470161 0.0811907 -0.0245018 1.19712
43 1.22241 0 0 -0.0119317 -0.00594714 1.29801
44 1.76707 -1.27612 0.0366409 -1.48212 0.284875 -0.100851
45 1.55588 0 0 0.223724 0.0868401 0.700865
46 1.24273 0 0 0.000478918 0.000360573 0.964696
47 0.784532 0 0 -0.00618631 0.000249589 0.884667
48 0 0 0 0 0 0
49 -5.83571 -22.6627 -5.80762 -0.103353 0.00177151 0.0200547
50 0 -0.611115 2.11238 0 0 0
51 -0.0145798 -2.67634 2.91209 0 0 0
52 -5.80839 -23.9907 -5.42324 -0.103353 0.00177165 0.0200552
53 0 -0.675064 1.41593 0 0 0
54 0 0.979376 2.2232 0 0 0
55 0 -3.93659 2.85382 0 0 0
56 0 2.062 1.89702 -0.785398 0 0
57 0 -1.66928 2.73772 0 0 0
58 6.98255 2.1009 -16.1176 0 0 0
time 14
0 6.78963 4.11825 -5.6679 0.000934124 0 -1.53243
1 6.02795 0 0 -1.0791 0.42742 -0.397763
2 11.7344 0 0 -0.00140292 0 -0.808653
3 8.81139 -0.000450134 -0.00011301 -0.558769 0 0.000157959
4 5.77839 0.000286102 0 -0.374376 0 0.000103423
5 2.23164 -0.000329971 -0.000364304 -0.184394 0 0
6 11.4725 0 0 -0.75406 -0.484742 0.554552
7 0.615217 -0.993092 -0.8107 2.36302 0.0866628 -0.357379
8 2.24752 0 0 0.0605673 0.267265 -0.222262
9 1.11936 0 0 0.0749173 0.0546634 -0.249677
10 3.71348 -0.102641 0.102191 1.77126 0.869992 0.142171
11 1.72615 0 0 0.013477 -0.0073309 -0.811382
12 1.21114 0 0 0.00873811 0.015128 -0.772911
13 3.59919 -1.06012 0.070888 1.87281 0.766148 0.187134
14 1.66069 0 0 -0.0195999 0.0443892 -0.726687
15 1.167 0 0 0.00841046 -0.00839376 -0.438998
16 2.18852 0.50104 0.0576591 1.57366 -0.0281251 0.156362
17 1.2961 0 0 0.0785581 0.0270526 -1.07235
18 1.62202 0.000713348 -0.000470638 0.00740291 -0.022111 -0.784236
19 1.22241 0 0 0.00023747 0.0059304 -0.707337
20 1.76707 1.27612 0.0366406 1.57458 0.205155 0.106808
21 1.55588 0 0 -0.0273743 0.0177044 -0.702262
22 1.24273 0 0 -0.000479237 0.000360508 -1.15419
23 0.784525 0 0 0.00636379 -0.00322815 -0.741041
24 -6.70653 7.12182 -4.00061 -0.000932693 0 -1.8749
25 6.02794 0 0 1.15174 0.540961 0.229406
26 11.7344 0 0 0.00140271 0 0.886434
27 8.81167 0 0 0.0704276 0 0
28 5.77884 0 0 0.0471865 0 0
29 2.23249 0 0 0.0232412 0 0
30 11.4725 0 0 0.118526 -0.442006 -0.127404
31 0.615814 0.994372 -0.809165 -2.83171 0.442997 0.480737
32 2.24752 0 0 -0.045362 0.233136 0.363247
33 1.11936 0 0 -0.000328008 0.159957 0.657165
34 3.71349 0.102639 0.10219 -1.54675 0.834836 -0.400578
35 1.72615 0 0 -0.0068987 -0.0073266 1.09674
36 1.21112 0 0 0.0103137 0.0102 1.33017
37 3.5992 1.06012 0.070888 -1.53662 0.394253 -0.182897
38 1.66069 0 0 0.00129287 0.0778541 0.239537
39 1.16699 0 0 0.0426518 0.021851 0.735105
40 2.18853 -0.50104 0.0576593 -1.5728 0.133573 -0.17288
41 1.29609 0 0 0.120501 0.0520644 0.782583
42 1.62201 -0.000711441 -0.000469685 0.0811908 -0.0245018 1.19712
43 1.22241 0 0 -0.0119317 -0.00594709 1.29801
44 1.76707 -1.27612 0.0366405 -1.48212 0.284875 -0.100851
45 1.55588 0 0 0.223724 0.08684 0.700865
46 1.24273 0 0 0.000478926 0.000360572 0.964696
47 0.784532 0 0 -0.00618631 0.000249594 0.884667
48 0 0 0 0 0 0
49 -5.84082 -22.8445 -5.93622 -0.0854216 0.00749709 0.0175775
50 0 -0.611113 2.11238 0 0 0
51 -0.0145798 -2.65896 2.91209 0 0 0
52 -5.81465 -24.1793 -5.57574 -0.0854216 0.00749723 0.0175781
53 0 -0.675064 1.41593 0 0 0
54 0 0.979378 2.2232 0 0 0
55 0 -3.93659 2.85382 0 0 0
56 0 2.062 1.89702 -0.785398 0 0
57 0 -1.66928 2.73772 0 0 0
58 6.98255 2.1009 -16.1176 0 0 0
time 15
0 6.78963 4.11825 -5.6679 0.000934124 0 -1.53243
1 6.02795 0 0 -1.08269 0.417887 -0.402036
2 11.7344 0 0 -0.00140292 0 -0.779328
3 8.81138 -0.000450134 -0.000112295 -0.580031 0 0.000158309
4 5.77839 0.000286102 0 -0.388621 0 0.000103648
5 2.23163 -0.000329018 -0.000363827 -0.19141 0 0
6 11.4725 0 0 -0.767396 -0.47243 0.551335
7 0.615217 -0.993092 -0.810701 2.36302 0.0866629 -0.357379
8 2.24752 0 0 0.0605672 0.267265 -0.222262
9 1.11936 0 0 0.0749174 0.0546635 -0.249677
10 3.71348 -0.102642 0.102191 1.77126 0.869992 0.142171
11 1.72615 0 0 0.013477 -0.0073309 -0.811382
12 1.21114 0 0 0.00873809 0.015128 -0.772911
13 3.59919 -1.06012 0.0708878 1.87281 0.766148 0.187135
14 1.66069 0 0 -0.0195999 0.0443892 -0.726687
15 1.167 0 0 0.00841045 -0.00839377 -0.438997
16 2.18852 0.50104 0.0576589 1.57366 -0.0281252 0.156362
17 1.29609 0 0 0.0785582 0.0270526 -1.07235
18 1.62202 0.000713348 -0.000471115 0.0074029 -0.022111 -0.784236
19 1.22241 0 0 0.000237482 0.00593046 -0.707337
20 1.76707 1.27612 0.0366402 1.57458 0.205155 0.106808
21 1.55588 0 0 -0.0273743 0.0177045 -0.702263
22 1.24273 0 0 -0.000479229 0.000360549 -1.15419
23 0.784523 0 0 0.00636385 -0.0032282 -0.741041
24 -6.70653 7.12182 -4.00061 -0.000932693 0 -1.8749
25 6.02794 0 0 1.15534 0.528188 0.235792
26 11.7344 0 0 0.0014027 0 0.855482
27 8.81167 0 0 0.067023 0 0
28 5.77884 0 0 0.0449054 0 0
29 2.23249 0 0 0.0221175 0 0
30 11.4725 0 0 0.115228 -0.436806 -0.127923
31 0.615812 0.994373 -0.809165 -2.83171 0.442997 0.480737
32 2.24752 0 0 -0.045362 0.233136 0.363247
33 1.11936 0 0 -0.000328178 0.159957 0.657165
34 3.71348 0.10264 0.102191 -1.54675 0.834836 -0.400578
35 1.72615 0 0 -0.00689873 -0.00732661 1.09674
36 1.21112 0 0 0.0103137 0.0102 1.33017
37 3.5992 1.06012 0.0708886 -1.53662 0.394253 -0.182897
38 1.66069 0 0 0.00129291 0.0778541 0.239537
39 1.16699 0 0 0.0426518 0.0218511 0.735105
40 2.18853 -0.50104 0.05766 -1.5728 0.133573 -0.17288
41 1.29609 0 0 0.120501 0.0520644 0.782584
42 1.62201 -0.000711441 -0.000469685 0.0811908 -0.0245018 1.19712
43 1.22241 0 0 -0.0119317 -0.00594711 1.29801
44 1.76707 -1.27612 0.0366411 -1.48212 0.284875 -0.100851
45 1.55587 0 0 0.223724 0.0868401 0.700865
46 1.24273 0 0 0.000478922 0.000360567 0.964696
47 0.784531 0 0 -0.00618632 0.000249587 0.884667
48 0 0 0 0 0 0
49 -5.84557 -23.0092 -6.05073 -0.0668041 0.0136473 0.0151845
50 0 -0.611111 2.11238 0 0 0
51 -0.0145793 -2.64156 2.91209 0 0 0
52 -5.82062 -24.3505 -5.71518 -0.0668042 0.0136474 0.015185
53 0 -0.675064 1.41593 0 0 0
54 0 0.979376 2.2232 0 0 0
55 0 -3.93658 2.85382 0 0 0
56 0 2.062 1.89702 -0.785398 0 0
57 0 -1.66928 2.73772 0 0 0
58 6.98255 2.1009 -16.1176 0 0 0
time 16
0 6.78963 4.11825 -5.6679 0.000934124 0 -1.53243
1 6.02795 0 0 -1.08632 0.408236 -0.406207
2 11.7344 0 0 -0.0014029 0 -0.752648
3 8.81139 -0.000450134 -0.000112534 -0.597069 0 0.00015802
4 5.77839 0.000286102 0 -0.400037 0 0.000103501
5 2.23164 -0.000329971 -0.000363827 -0.197033 0 0
6 11.4725 0 0 -0.778311 -0.460669 0.549226
7 0.615217 -0.993091 -0.8107 2.36302 0.0866629 -0.357379
8 2.24752 0 0 0.0605673 0.267265 -0.222262
9 1.11936 0 0 0.0749173 0.0546634 -0.249677
10 3.71348 -0.102641 0.102191 1.77126 0.869992 0.142171
11 1.72615 0 0 0.013477 -0.00733087 -0.811382
12 1.21114 0 0 0.0087381 0.015128 -0.772911
13 3.59919 -1.06012 0.0708879 1.87281 0.766148 0.187134
14 1.66069 0 0 -0.0195999 0.0443892 -0.726687
15 1.167 0 0 0.00841045 -0.00839376 -0.438997
16 2.18852 0.50104 0.0576589 1.57366 -0.028125 0.156362
17 1.29609 0 0 0.0785581 0.0270526 -1.07235
18 1.62202 0.000717163 -0.000471115 0.00740286 -0.022111 -0.784237
19 1.22241 0 0 0.000237475 0.00593042 -0.707337
20 1.76707 1.27612 0.0366411 1.57458 0.205155 0.106808
21 1.55588 0 0 -0.0273743 0.0177045 -0.702262
22 1.24273 0 0 -0.000479175 0.000360548 -1.15419
23 0.784522 0 0 0.00636381 -0.00322818 -0.741041
24 -6.70653 7.12182 -4.00061 -0.000932693 0 -1.8749
25 6.02794 0 0 1.1588 0.516283 0.241466
26 11.7344 0 0 0.00140269 0 0.828596
27 8.81167 0 0 0.0637198 0 0
28 5.77884 0 0 0.0426923 0 0
29 2.23249 0 0 0.0210275 0 0
30 11.4725 0 0 0.112809 -0.43201 -0.130253
31 0.615812 0.994372 -0.809165 -2.83171 0.442997 0.480737
32 2.24752 0 0 -0.045362 0.233136 0.363247
33 1.11936 0 0 -0.000328042 0.159957 0.657165
34 3.71349 0.102638 0.102191 -1.54675 0.834836 -0.400578
35 1.72615 0 0 -0.00689869 -0.00732659 1.09674
36 1.21112 0 0 0.0103137 0.0102 1.33017
37 3.5992 1.06012 0.0708882 -1.53662 0.394253 -0.182897
38 1.66069 0 0 0.00129288 0.0778541 0.239537
39 1.16699 0 0 0.0426518 0.021851 0.735105
40 2.18853 -0.501041 0.0576588 -1.5728 0.133573 -0.17288
41 1.29609 0 0 0.120501 0.0520644 0.782583
42 1.62202 -0.000711441 -0.000470161 0.0811908 -0.0245018 1.19712
43 1.22241 0 0 -0.0119317 -0.00594712 1.29801
44 1.76707 -1.27612 0.036641 -1.48212 0.284875 -0.100851
45 1.55588 0 0 0.223724 0.0868401 0.700864
46 1.24273 0 0 0.000478916 0.000360583 0.964696
47 0.784532 0 0 -0.00618631 0.000249581 0.884667
48 0 0 0 0 0 0
49 -5.85085 -23.1505 -6.13554 -0.0497075 0.0185251 0.0129997
50 0 -0.611116 2.11238 0 0 0
51 -0.0145798 -2.62418 2.91209 0 0 0
52 -5.82754 -24.4973 -5.823 -0.0497076 0.0185252 0.0130002
53 0 -0.675064 1.41593 0 0 0
54 0 0.979378 2.2232 0 0 0
55 0 -3.93659 2.85382 0 0 0
56 0 2.062 1.89702 -0.785398 0 0
57 0 -1.66928 2.73772 0 0 0
58 6.98255 2.1009 -16.1176 0 0 0
time 17
0 6.78963 4.11825 -5.6679 0.000934124 0 -1.53243
1 6.02795 0 0 -1.09014 0.398545 -0.410024
2 11.7344 0 0 -0.001403 0 -0.729221
3 8.81139 -0.000449181 -0.000111103 -0.607179 0 0.000157419
4 5.77839 0.000286102 0 -0.40681 0 0.000102976
5 2.23164 -0.000328064 -0.00036335 -0.200369 0 0
6 11.4725 0 0 -0.783846 -0.450406 0.546645
7 0.615219 -0.993091 -0.8107 2.36302 0.0866628 -0.357379
8 2.24752 0 0 0.0605673 0.267265 -0.222262
9 1.11936 0 0 0.0749173 0.0546636 -0.249677
10 3.71348 -0.102641 0.102191 1.77126 0.869992 0.142171
11 1.72615 0 0 0.013477 -0.00733087 -0.811382
12 1.21114 0 0 0.0087381 0.015128 -0.772911
13 3.59919 -1.06012 0.070888 1.87281 0.766148 0.187134
14 1.66069 0 0 -0.0195999 0.0443892 -0.726687
15 1.167 0 0 0.00841045 -0.00839377 -0.438998
16 2.18853 0.50104 0.057659 1.57366 -0.0281249 0.156362
17 1.29609 0 0 0.0785582 0.0270526 -1.07235
18 1.62202 0.000713348 -0.000471592 0.00740286 -0.022111 -0.784237
19 1.22241 0 0 0.000237489 0.00593043 -0.707337
20 1.76707 1.27612 0.0366408 1.57458 0.205155 0.106808
21 1.55588 0 0 -0.0273743 0.0177045 -0.702262
22 1.24273 0 0 -0.000479225 0.000360516 -1.15419
23 0.784523 0 0 0.00636388 -0.00322818 -0.741041
24 -6.70653 7.12182 -4.00061 -0.000932693 0 -1.8749
25 6.02794 0 0 1.16228 0.504853 0.246603
26 11.7344 0 0 0.00140285 0 0.804814
27 8.81167 0 0 0.0630709 0 0
28 5.77884 0 0 0.0422575 0 0
29 2.23249 0 0 0.0208134 0 0
30 11.4725 0 0 0.112705 -0.428511 -0.132147
31 0.615812 0.994373 -0.809165 -2.83171 0.442997 0.480737
32 2.24752 0 0 -0.045362 0.233136 0.363247
33 1.11936 0 0 -0.000328072 0.159957 0.657165
34 3.71349 0.102639 0.102191 -1.54675 0.834836 -0.400578
35 1.72615 0 0 -0.0068987 -0.00732662 1.09674
36 1.21112 0 0 0.0103137 0.0102 1.33017
37 3.5992 1.06012 0.0708882 -1.53662 0.394253 -0.182897
38 1.66069 0 0 0.00129287 0.0778541 0.239538
39 1.16699 0 0 0.0426518 0.021851 0.735105
40 2.18853 -0.501041 0.057659 -1.5728 0.133573 -0.17288
41 1.29609 0 0 0.120501 0.0520645 0.782583
42 1.62202 -0.000715256 -0.000469208 0.0811907 -0.0245018 1.19712
43 1.22241 0 0 -0.0119317 -0.00594712 1.29801
44 1.76707 -1.27612 0.0366409 -1.48212 0.284875 -0.100851
45 1.55588 0 0 0.223724 0.08684 0.700865
46 1.24273 0 0 0.000478935 0.000360573 0.964696
47 0.784532 0 0 -0.00618631 0.000249597 0.884667
48 0 0 0 0 0 0
49 -5.85836 -23.2731 -6.18292 -0.0363331 0.0203558 0.0109773
50 0 -0.611113 2.11238 0 0 0
51 -0.0145798 -2.60678 2.91209 0 0 0
52 -5.83753 -24.624 -5.88843 -0.0363331 0.0203559 0.0109779
53 0 -0.675062 1.41593 0 0 0
54 0 0.979376 2.2232 0 0 0
55 0 -3.93659 2.85382 0 0 0
56 0 2.062 1.89702 -0.785398 0 0
57 0 -1.66928 2.73772 0 0 0
58 6.98255 2.1009 -16.1176 0 0 0
time 18
0 6.78963 4.11825 -5.6679 0.000934124 0 -1.53243
1 6.02795 0 0 -1.09421 0.3885 -0.413688
2 11.7344 0 0 -0.00140276 0 -0.70756
3 8.81138 -0.000449181 -0.000111818 -0.610816 0 0.000158076
4 5.77839 0.000286102 0 -0.409247 0 0.000103304
5 2.23163 -0.000329018 -0.000363827 -0.201569 0 0
6 11.4725 0 0 -0.783849 -0.441295 0.542857
7 0.615217 -0.993091 -0.8107 2.36302 0.086663 -0.357379
8 2.24752 0 0 0.0605672 0.267265 -0.222262
9 1.11936 0 0 0.0749174 0.0546635 -0.249677
10 3.71348 -0.102641 0.102191 1.77126 0.869992 0.142172
11 1.72615 0 0 0.013477 -0.00733092 -0.811382
12 1.21114 0 0 0.00873808 0.015128 -0.772911
13 3.59919 -1.06012 0.0708882 1.87281 0.766148 0.187135
14 1.66069 0 0 -0.0195999 0.0443892 -0.726687
15 1.167 0 0 0.00841046 -0.00839376 -0.438997
16 2.18853 0.501039 0.0576594 1.57366 -0.0281249 0.156362
17 1.29609 0 0 0.0785581 0.0270526 -1.07235
18 1.62202 0.000713348 -0.000471115 0.0074029 -0.022111 -0.784236
19 1.22241 0 0 0.000237468 0.00593042 -0.707337
20 1.76707 1.27612 0.0366411 1.57458 0.205155 0.106808
21 1.55588 0 0 -0.0273742 0.0177045 -0.702262
22 1.24273 0 0 -0.00047925 0.0003605 -1.15419
23 0.784524 0 0 0.00636381 -0.00322821 -0.741041
24 -6.70653 7.12182 -4.00061 -0.000932693 0 -1.8749
25 6.02794 0 0 1.1657 0.49392 0.251262
26 11.7344 0 0 0.00140288 0 0.783418
27 8.81167 0 0 0.0657082 0 0
28 5.77884 0 0 0.0440244 0 0
29 2.23249 0 0 0.0216838 0 0
30 11.4725 0 0 0.115524 -0.426636 -0.133546
31 0.615812 0.994373 -0.809166 -2.83171 0.442997 0.480737
32 2.24752 0 0 -0.045362 0.233136 0.363247
33 1.11936 0 0 -0.00032814 0.159957 0.657165
34 3.71348 0.102639 0.10219 -1.54675 0.834836 -0.400578
35 1.72615 0 0 -0.00689875 -0.00732662 1.09674
36 1.21112 0 0 0.0103137 0.0102 1.33017
37 3.5992 1.06012 0.0708881 -1.53662 0.394253 -0.182897
38 1.66069 0 0 0.00129287 0.0778541 0.239537
39 1.16699 0 0 0.0426518 0.021851 0.735105
40 2.18853 -0.501041 0.0576587 -1.5728 0.133573 -0.17288
41 1.29609 0 0 0.120501 0.0520644 0.782584
42 1.62202 -0.000713348 -0.000470161 0.0811908 -0.0245018 1.19712
43 1.22241 0 0 -0.0119317 -0.00594713 1.29801
44 1.76707 -1.27612 0.0366403 -1.48212 0.284875 -0.100851
45 1.55588 0 0 0.223724 0.08684 0.700865
46 1.24273 0 0 0.000478934 0.00036057 0.964696
47 0.784531 0 0 -0.00618631 0.000249591 0.884667
48 0 0 0 0 0 0
49 -5.86975 -23.3827 -6.20208 -0.0262851 0.0186845 0.00871876
50 0 -0.611115 2.11238 0 0 0
51 -0.0145802 -2.5894 2.91209 0 0 0
52 -5.85269 -24.7366 -5.92117 -0.0262852 0.0186846 0.00871932
53 0 -0.675066 1.41593 0 0 0
54 0 0.979374 2.2232 0 0 0
55 0 -3.93659 2.85382 0 0 0
56 0 2.062 1.89702 -0.785398 0 0
57 0 -1.66928 2.73772 0 0 0
58 6.98255 2.1009 -16.1176 0 0 0
time 19
0 6.78963 4.11825 -5.6679 0.000934124 0 -1.53243
1 6.02795 0 0 -1.0981 0.378896 -0.417009
2 11.7344 0 0 -0.00140284 0 -0.688579
3 8.81139 -0.000450134 -0.000112534 -0.610483 0 0.000157802
4 5.77839 0.000286102 0 -0.409023 0 0.000103222
5 2.23163 -0.000329971 -0.000363827 -0.201459 0 0
6 11.4725 0 0 -0.781155 -0.432724 0.539796
7 0.615221 -0.993091 -0.8107 2.36302 0.0866628 -0.35738
8 2.24752 0 0 0.0605673 0.267265 -0.222262
9 1.11936 0 0 0.0749173 0.0546635 -0.249677
10 3.71348 -0.102641 0.102191 1.77126 0.869992 0.142171
11 1.72615 0 0 0.013477 -0.00733091 -0.811382
12 1.21114 0 0 0.00873809 0.015128 -0.772911
13 3.59919 -1.06012 0.0708883 1.87281 0.766148 0.187134
14 1.66069 0 0 -0.0195999 0.0443892 -0.726687
15 1.167 0 0 0.00841045 -0.00839377 -0.438998
16 2.18852 0.50104 0.0576589 1.57366 -0.0281251 0.156362
17 1.29609 0 0 0.0785581 0.0270526 -1.07235
18 1.62202 0.000711441 -0.000471115 0.00740289 -0.0221109 -0.784237
19 1.22241 0 0 0.000237468 0.00593042 -0.707337
20 1.76707 1.27612 0.0366409 1.57458 0.205155 0.106808
21 1.55588 0 0 -0.0273743 0.0177045 -0.702263
22 1.24273 0 0 -0.000479225 0.000360516 -1.15419
23 0.784524 0 0 0.0063638 -0.00322818 -0.741041
24 -6.70653 7.12182 -4.00061 -0.000932693 0 -1.8749
25 6.02794 0 0 1.1689 0.4838 0.255392
26 11.7344 0 0 0.00140272 0 0.7647
27 8.81167 0 0 0.0696559 0 0
28 5.77884 0 0 0.0466694 0 0
29 2.23249 0 0 0.0229865 0 0
30 11.4725 0 0 0.119993 -0.425696 -0.135823
31 0.61581 0.994371 -0.809165 -2.83171 0.442997 0.480737
32 2.24752 0 0 -0.0453621 0.233136 0.363247
33 1.11935 0 0 -0.000327914 0.159957 0.657165
34 3.71349 0.102638 0.102191 -1.54675 0.834836 -0.400578
35 1.72615 0 0 -0.00689872 -0.0073266 1.09674
36 1.21112 0 0 0.0103137 0.0102 1.33017
37 3.5992 1.06012 0.0708884 -1.53662 0.394253 -0.182897
38 1.66069 0 0 0.00129289 0.0778541 0.239537
39 1.16699 0 0 0.0426518 0.0218511 0.735105
40 2.18853 -0.501041 0.057659 -1.5728 0.133573 -0.17288
41 1.29609 0 0 0.120501 0.0520645 0.782583
42 1.62202 -0.000713348 -0.000469685 0.0811908 -0.0245018 1.19712
43 1.22241 0 0 -0.0119317 -0.00594709 1.29801
44 1.76707 -1.27612 0.0366403 -1.48212 0.284875 -0.100851
45 1.55588 0 0 0.223724 0.08684 0.700865
46 1.24273 0 0 0.000478905 0.000360581 0.964696
47 0.784533 0 0 -0.00618631 0.000249575 0.884667
48 0 0 0 0 0 0
49 -5.88318 -23.475 -6.20388 -0.01774 0.0151271 0.00616109
50 0 -0.611113 2.11238 0 0 0
51 -0.0145788 -2.57201 2.91209 0 0 0
52 -5.87075 -24.8313 -5.93453 -0.01774 0.0151272 0.00616165
53 0 -0.675068 1.41593 0 0 0
54 0 0.979376 2.2232 0 0 0
55 0 -3.93659 2.85382 0 0 0
56 0 2.062 1.89702 -0.785398 0 0
57 0 -1.66928 2.73772 0 0 0
58 6.98255 2.1009 -16.1176 0 0 0
time 20
0 6.78963 4.11825 -5.6679 0.000934124 0 -1.53243
1 6.02795 0 0 -1.10136 0.371012 -0.419527
2 11.7344 0 0 -0.0014029 0 -0.674499
3 8.81138 -0.000450134 -0.000112295 -0.607588 0 0.000158054
4 5.77839 0.000286102 0 -0.407084 0 0.000103462
5 2.23163 -0.000329971 -0.000363588 -0.200504 0 0
6 11.4725 0 0 -0.77744 -0.425332 0.538546
7 0.615221 -0.993091 -0.8107 2.36302 0.0866628 -0.357379
8 2.24752 0 0 0.0605672 0.267265 -0.222262
9 1.11936 0 0 0.0749172 0.0546634 -0.249677
10 3.71348 -0.102642 0.102191 1.77126 0.869992 0.142171
11 1.72615 0 0 0.013477 -0.00733087 -0.811382
12 1.21114 0 0 0.0087381 0.015128 -0.772911
13 3.59919 -1.06012 0.0708879 1.87281 0.766148 0.187134
14 1.66069 0 0 -0.0195999 0.0443892 -0.726687
15 1.167 0 0 0.00841045 -0.00839377 -0.438997
16 2.18852 0.50104 0.0576593 1.57366 -0.028125 0.156362
17 1.29609 0 0 0.0785582 0.0270527 -1.07235
18 1.62202 0.000711441 -0.000472069 0.00740289 -0.022111 -0.784236
19 1.22241 0 0 0.000237472 0.00593045 -0.707337
20 1.76707 1.27612 0.036641 1.57458 0.205155 0.106808
21 1.55588 0 0 -0.0273742 0.0177045 -0.702262
22 1.24274 0 0 -0.000479225 0.000360516 -1.15419
23 0.784524 0 0 0.00636381 -0.00322815 -0.741041
24 -6.70653 7.12182 -4.00061 -0.000932693 0 -1.8749
25 6.02794 0 0 1.17148 0.475883 0.258446
26 11.7344 0 0 0.00140276 0 0.751304
27 8.81167 0 0 0.0732727 0 0
28 5.77884 0 0 0.0490928 0 0
29 2.23249 0 0 0.02418 0 0
30 11.4725 0 0 0.124838 -0.425242 -0.139589
31 0.615812 0.994373 -0.809165 -2.83171 0.442997 0.480737
32 2.24752 0 0 -0.045362 0.233136 0.363247
33 1.11935 0 0 -0.000328038 0.159957 0.657165
34 3.71349 0.10264 0.10219 -1.54675 0.834836 -0.400578
35 1.72615 0 0 -0.00689868 -0.00732659 1.09674
36 1.21112 0 0 0.0103137 0.0102 1.33017
37 3.5992 1.06012 0.0708882 -1.53662 0.394253 -0.182897
38 1.66069 0 0 0.00129288 0.0778541 0.239538
39 1.16699 0 0 0.0426518 0.021851 0.735105
40 2.18853 -0.50104 0.0576589 -1.5728 0.133573 -0.17288
41 1.29609 0 0 0.120501 0.0520645 0.782583
42 1.62202 -0.000713348 -0.000469208 0.0811908 -0.0245018 1.19712
43 1.22241 0 0 -0.0119317 -0.00594709 1.29801
44 1.76707 -1.27612 0.0366408 -1.48212 0.284875 -0.100851
45 1.55588 0 0 0.223724 0.0868401 0.700865
46 1.24273 0 0 0.00047892 0.000360569 0.964696
47 0.784533 0 0 -0.00618632 0.000249582 0.884667
48 0 0 0 0 0 0
49 -5.89553 -23.5438 -6.19233 -0.0107578 0.0109974 0.00372256
50 0 -0.611116 2.11238 0 0 0
51 -0.0145798 -2.55462 2.91209 0 0 0
52 -5.88761 -24.902 -5.93245 -0.0107579 0.0109975 0.00372312
53 0 -0.675064 1.41593 0 0 0
54 0 0.979378 2.2232 0 0 0
55 0 -3.93659 2.85382 0 0 0
56 0 2.062 1.89702 -0.785398 0 0
57 0 -1.66928 2.73772 0 0 0
58 6.98255 2.1009 -16.1176 0 0 0
time 21
0 6.78963 4.11825 -5.6679 0.000934124 0 -1.53243
1 6.02795 0 0 -1.10352 0.366203 -0.420817
2 11.7344 0 0 -0.00140278 0 -0.667701
3 8.81139 -0.000450134 -0.00011158 -0.603506 0 0.000157883
4 5.77839 0.000286102 0 -0.404349 0 0.00010328
5 2.23163 -0.000329971 -0.000364304 -0.199157 0 0
6 11.4725 0 0 -0.774461 -0.419788 0.540312
7 0.615219 -0.993091 -0.8107 2.36302 0.0866627 -0.35738
8 2.24752 0 0 0.0605672 0.267265 -0.222262
9 1.11936 0 0 0.0749174 0.0546636 -0.249677
10 3.71348 -0.102641 0.102191 1.77126 0.869992 0.142171
11 1.72615 0 0 0.013477 -0.0073309 -0.811382
12 1.21114 0 0 0.0087381 0.0151279 -0.772911
13 3.59919 -1.06012 0.070888 1.87281 0.766148 0.187134
14 1.66068 0 0 -0.0195999 0.0443892 -0.726687
15 1.167 0 0 0.00841046 -0.00839376 -0.438997
16 2.18852 0.50104 0.0576587 1.57366 -0.0281251 0.156362
17 1.29609 0 0 0.0785581 0.0270526 -1.07235
18 1.62202 0.000713348 -0.000471115 0.00740292 -0.022111 -0.784237
19 1.22241 0 0 0.000237485 0.00593039 -0.707337
20 1.76707 1.27612 0.0366406 1.57458 0.205155 0.106808
21 1.55588 0 0 -0.0273743 0.0177044 -0.702262
22 1.24273 0 0 -0.0004792 0.000360532 -1.15419
23 0.784523 0 0 0.00636383 -0.00322817 -0.741041
24 -6.70653 7.12182 -4.00061 -0.000932693 0 -1.8749
25 6.02794 0 0 1.17315 0.471211 0.26008
26 11.7344 0 0 0.00140259 0 0.745075
27 8.81167 0 0 0.0750917 0 0
28 5.77884 0 0 0.0503115 0 0
29 2.23249 0 0 0.0247803 0 0
30 11.4725 0 0 0.128767 -0.424846 -0.145043
31 0.615814 0.994372 -0.809166 -2.83171 0.442997 0.480737
32 2.24752 0 0 -0.0453619 0.233136 0.363247
33 1.11936 0 0 -0.000328235 0.159957 0.657165
34 3.71349 0.102639 0.10219 -1.54675 0.834836 -0.400578
35 1.72615 0 0 -0.00689871 -0.00732662 1.09674
36 1.21112 0 0 0.0103137 0.0102 1.33017
37 3.5992 1.06012 0.0708884 -1.53662 0.394253 -0.182897
38 1.66069 0 0 0.00129291 0.0778541 0.239537
39 1.16699 0 0 0.0426518 0.0218511 0.735105
40 2.18853 -0.50104 0.0576594 -1.5728 0.133573 -0.17288
41 1.29609 0 0 0.120501 0.0520645 0.782583
42 1.62202 -0.000715256 -0.000469685 0.0811908 -0.0245018 1.19712
43 1.22241 0 0 -0.0119317 -0.00594711 1.29801
44 1.76707 -1.27612 0.0366403 -1.48212 0.284875 -0.100851
45 1.55587 0 0 0.223724 0.0868401 0.700865
46 1.24273 0 0 0.000478903 0.000360573 0.964696
47 0.784532 0 0 -0.00618629 0.000249572 0.884667
48 0 0 0 0 0 0
49 -5.90349 -23.5798 -6.1715 -0.005392 0.00762635 0.0018708
50 0 -0.611113 2.11238 0 0 0
51 -0.0145802 -2.53723 2.91209 0 0 0
52 -5.89902 -24.9394 -5.91889 -0.00539208 0.00762644 0.00187136
53 0 -0.675066 1.41593 0 0 0
54 0 0.979376 2.2232 0 0 0
55 0 -3.93659 2.85382 0 0 0
56 0 2.062 1.89702 -0.785398 0 0
57 0 -1.66928 2.73772 0 0 0
58 6.98255 2.1009 -16.1176 0 0 0
time 22
0 6.78963 4.11825 -5.6679 0.000934124 0 -1.53243
1 6.02795 0 0 -1.10463 0.364434 -0.420948
2 11.7344 0 0 -0.00140285 0 -0.667717
3 8.81138 -0.000451088 -0.000112534 -0.598723 0 0.000157809
4 5.77839 0.000287056 0 -0.401145 0 0.000103288
5 2.23164 -0.000329018 -0.000364065 -0.197579 0 0
6 11.4725 0 0 -0.772278 -0.416515 0.544312
7 0.615217 -0.993091 -0.8107 2.36302 0.0866627 -0.357379
8 2.24752 0 0 0.0605672 0.267265 -0.222262
9 1.11936 0 0 0.0749174 0.0546636 -0.249677
10 3.71348 -0.102641 0.10219 1.77126 0.869992 0.142172
11 1.72615 0 0 0.013477 -0.0073309 -0.811382
12 1.21114 0 0 0.00873811 0.015128 -0.772911
13 3.59919 -1.06012 0.0708879 1.87281 0.766148 0.187135
14 1.66069 0 0 -0.0195999 0.0443892 -0.726687
15 1.167 0 0 0.00841046 -0.00839376 -0.438997
16 2.18852 0.50104 0.0576589 1.57366 -0.0281251 0.156362
17 1.29609 0 0 0.0785581 0.0270526 -1.07235
18 1.62202 0.000711441 -0.000471115 0.00740291 -0.022111 -0.784236
19 1.22241 0 0 0.000237472 0.00593045 -0.707337
20 1.76707 1.27612 0.0366402 1.57458 0.205155 0.106808
21 1.55588 0 0 -0.0273743 0.0177045 -0.702263
22 1.24273 0 0 -0.000479192 0.000360466 -1.15419
23 0.784524 0 0 0.0063638 -0.00322821 -0.741041
24 -6.70653 7.12182 -4.00061 -0.000932693 0 -1.8749
25 6.02794 0 0 1.17394 0.469638 0.26042
26 11.7344 0 0 0.00140263 0 0.745366
27 8.81167 0 0 0.075338 0 0
28 5.77884 0 0 0.0504765 0 0
29 2.23249 0 0 0.0248615 0 0
30 11.4725 0 0 0.131524 -0.424479 -0.151102
31 0.615812 0.994373 -0.809166 -2.83171 0.442997 0.480737
32 2.24752 0 0 -0.0453619 0.233136 0.363247
33 1.11936 0 0 -0.000328031 0.159957 0.657165
34 3.71349 0.10264 0.102191 -1.54675 0.834836 -0.400578
35 1.72615 0 0 -0.00689869 -0.00732661 1.09674
36 1.21112 0 0 0.0103137 0.0102 1.33017
37 3.5992 1.06012 0.0708879 -1.53662 0.394253 -0.182897
38 1.66069 0 0 0.00129288 0.0778541 0.239537
39 1.16699 0 0 0.0426518 0.021851 0.735105
40 2.18853 -0.501041 0.057659 -1.5728 0.133573 -0.17288
41 1.29609 0 0 0.120501 0.0520644 0.782584
42 1.62202 -0.000713348 -0.000469685 0.0811908 -0.0245018 1.19712
43 1.22241 0 0 -0.0119317 -0.00594713 1.29801
44 1.76707 -1.27612 0.0366411 -1.48212 0.284875 -0.100851
45 1.55588 0 0 0.223724 0.08684 0.700865
46 1.24273 0 0 0.000478926 0.000360561 0.964696
47 0.784532 0 0 -0.00618629 0.000249587 0.884667
48 0 0 0 0 0 0
49 -5.90636 -23.5858 -6.14342 -0.00213488 0.00520183 0.000842209
50 0 -0.611115 2.11238 0 0 0
51 -0.0145802 -2.51984 2.91209 0 0 0
52 -5.90392 -24.9462 -5.89524 -0.00213496 0.00520192 0.000842773
53 0 -0.675064 1.41593 0 0 0
54 0 0.979378 2.2232 0 0 0
55 0 -3.93659 2.85382 0 0 0
56 0 2.062 1.89702 -0.785398 0 0
57 0 -1.66928 2.73772 0 0 0
58 6.98255 2.1009 -16.1176 0 0 0
time 23
0 6.78963 4.11825 -5.6679 0.000934124 0 -1.53243
1 6.02795 0 0 -1.10508 0.364485 -0.420423
2 11.7344 0 0 -0.0014029 0 -0.671562
3 8.81139 -0.000449181 -0.000112772 -0.593319 0 0.00015799
4 5.77839 0.000287056 0 -0.397523 0 0.000103452
5 2.23164 -0.000329018 -0.00036478 -0.195795 0 0
6 11.4725 0 0 -0.770075 -0.415002 0.548858
7 0.615221 -0.993091 -0.8107 2.36302 0.0866629 -0.357379
8 2.24752 0 0 0.0605674 0.267265 -0.222262
9 1.11936 0 0 0.0749173 0.0546634 -0.249677
10 3.71348 -0.102641 0.102191 1.77126 0.869993 0.142171
11 1.72615 0 0 0.013477 -0.00733092 -0.811382
12 1.21114 0 0 0.00873809 0.015128 -0.77291
13 3.5992 -1.06012 0.0708879 1.87281 0.766148 0.187134
14 1.66069 0 0 -0.0195999 0.0443892 -0.726687
15 1.167 0 0 0.00841045 -0.00839376 -0.438998
16 2.18853 0.50104 0.0576594 1.57366 -0.0281252 0.156362
17 1.29609 0 0 0.0785581 0.0270527 -1.07235
18 1.62202 0.000713348 -0.000471592 0.0074029 -0.022111 -0.784236
19 1.22241 0 0 0.000237469 0.00593048 -0.707337
20 1.76707 1.27612 0.0366406 1.57458 0.205155 0.106808
21 1.55587 0 0 -0.0273743 0.0177045 -0.702262
22 1.24273 0 0 -0.0004792 0.000360532 -1.15419
23 0.784524 0 0 0.00636384 -0.00322813 -0.741041
24 -6.70653 7.12182 -4.00061 -0.000932693 0 -1.8749
25 6.02794 0 0 1.17417 0.469956 0.260007
26 11.7344 0 0 0.00140263 0 0.749287
27 8.81167 0 0 0.0752456 0 0
28 5.77884 0 0 0.0504146 0 0
29 2.23249 0 0 0.0248312 0 0
30 11.4725 0 0 0.133781 -0.424376 -0.156638
31 0.615812 0.994373 -0.809165 -2.83171 0.442997 0.480737
32 2.24752 0 0 -0.045362 0.233136 0.363247
33 1.11936 0 0 -0.000328103 0.159957 0.657165
34 3.71349 0.10264 0.102191 -1.54675 0.834836 -0.400578
35 1.72615 0 0 -0.00689869 -0.0073266 1.09674
36 1.21112 0 0 0.0103137 0.0102001 1.33017
37 3.5992 1.06012 0.0708874 -1.53662 0.394253 -0.182897
38 1.66069 0 0 0.00129288 0.0778541 0.239538
39 1.16699 0 0 0.0426518 0.021851 0.735105
40 2.18853 -0.501041 0.0576587 -1.5728 0.133573 -0.17288
41 1.29609 0 0 0.120501 0.0520644 0.782583
42 1.62202 -0.000713348 -0.000470161 0.0811908 -0.0245018 1.19712
43 1.22241 0 0 -0.0119317 -0.00594711 1.29801
44 1.76707 -1.27612 0.0366406 -1.48212 0.284875 -0.100851
45 1.55588 0 0 0.223724 0.0868401 0.700865
46 1.24273 0 0 0.00047888 0.000360577 0.964696
47 0.784532 0 0 -0.0061863 0.000249563 0.884667
48 0 0 0 0 0 0
49 -5.90644 -23.5742 -6.1123 -0.00079888 0.00307038 0.0003675
50 0 -0.611111 2.11238 0 0 0
51 -0.0145802 -2.50245 2.91209 0 0 0
52 -5.90518 -24.9349 -5.86594 -0.000798966 0.00307047 0.000368064
53 0 -0.675066 1.41593 0 0 0
54 0 0.979374 2.2232 0 0 0
55 0 -3.93659 2.85382 0 0 0
56 0 2.062 1.89702 -0.785398 0 0
57 0 -1.66928 2.73772 0 0 0
58 6.98255 2.1009 -16.1176 0 0 0
time 24
0 6.78963 4.11825 -5.6679 0.000934124 0 -1.53243
1 6.02795 0 0 -1.10521 0.365205 -0.419741
2 11.7344 0 0 -0.00140275 0 -0.67619
3 8.81139 -0.000450134 -0.000110865 -0.588455 0 0.000158161
4 5.77839 0.000286102 0 -0.394265 0 0.000103459
5 2.23163 -0.000329971 -0.00036335 -0.19419 0 0
6 11.4725 0 0 -0.768141 -0.414399 0.552844
7 0.615223 -0.993091 -0.810701 2.36302 0.0866627 -0.357379
8 2.24752 0 0 0.0605671 0.267265 -0.222262
9 1.11936 0 0 0.0749173 0.0546635 -0.249677
10 3.71348 -0.102641 0.102191 1.77126 0.869992 0.142171
11 1.72615 0 0 0.013477 -0.00733087 -0.811382
12 1.21114 0 0 0.00873811 0.015128 -0.772911
13 3.5992 -1.06012 0.0708883 1.87281 0.766148 0.187135
14 1.66069 0 0 -0.0195999 0.0443892 -0.726687
15 1.167 0 0 0.00841045 -0.00839376 -0.438997
16 2.18853 0.501039 0.0576589 1.57366 -0.0281252 0.156362
17 1.29609 0 0 0.0785581 0.0270526 -1.07235
18 1.62202 0.000713348 -0.000471115 0.00740291 -0.0221109 -0.784237
19 1.22241 0 0 0.000237479 0.00593046 -0.707337
20 1.76707 1.27612 0.0366409 1.57458 0.205155 0.106808
21 1.55587 0 0 -0.0273742 0.0177045 -0.702262
22 1.24273 0 0 -0.000479184 0.000360507 -1.15419
23 0.784524 0 0 0.00636381 -0.00322818 -0.741041
24 -6.70653 7.12182 -4.00061 -0.000932693 0 -1.8749
25 6.02794 0 0 1.17415 0.470928 0.259388
26 11.7344 0 0 0.00140265 0 0.753885
27 8.81167 0 0 0.0751514 0 0
28 5.77884 0 0 0.0503513 0 0
29 2.23249 0 0 0.0247999 0 0
30 11.4725 0 0 0.135581 -0.424418 -0.161057
31 0.615814 0.994373 -0.809165 -2.83171 0.442997 0.480737
32 2.24752 0 0 -0.0453619 0.233136 0.363247
33 1.11935 0 0 -0.000328133 0.159957 0.657165
34 3.71349 0.10264 0.10219 -1.54675 0.834836 -0.400578
35 1.72615 0 0 -0.00689872 -0.00732658 1.09674
36 1.21112 0 0 0.0103137 0.0102 1.33017
37 3.5992 1.06012 0.0708884 -1.53662 0.394253 -0.182897
38 1.66069 0 0 0.00129289 0.0778541 0.239537
39 1.16699 0 0 0.0426518 0.0218511 0.735105
40 2.18853 -0.50104 0.0576589 -1.5728 0.133573 -0.17288
41 1.29609 0 0 0.120501 0.0520644 0.782584
42 1.62202 -0.000715256 -0.000469208 0.0811908 -0.0245018 1.19712
43 1.22241 0 0 -0.0119317 -0.00594715 1.29801
44 1.76707 -1.27612 0.0366404 -1.48212 0.284875 -0.100851
45 1.55587 0 0 0.223724 0.0868401 0.700865
46 1.24273 0 0 0.000478902 0.000360565 0.964696
47 0.784531 0 0 -0.0061863 0.00024957 0.884667
48 0 0 0 0 0 0
49 -5.90545 -23.5578 -6.08544 -0.000411597 0.00131063 0.000178189
50 0 -0.611113 2.11238 0 0 0
51 -0.0145802 -2.48506 2.91209 0 0 0
52 -5.90488 -24.9187 -5.8396 -0.000411684 0.00131072 0.000178753
53 0 -0.675066 1.41593 0 0 0
54 0 0.979372 2.2232 0 0 0
55 0 -3.93659 2.85382 0 0 0
56 0 2.062 1.89702 -0.785398 0 0
57 0 -1.66928 2.73772 0 0 0
58 6.98255 2.1009 -16.1176 0 0 0
time 25
0 6.78963 4.11825 -5.6679 0.000934124 0 -1.53243
1 6.02795 0 0 -1.10536 0.365476 -0.419382
2 11.7344 0 0 -0.00140273 0 -0.678616
3 8.81139 -0.000450134 -0.00011158 -0.585301 0 0.000157672
4 5.77839 0.000286102 0 -0.392151 0 0.000103231
5 2.23164 -0.000329971 -0.000363588 -0.193149 0 0
6 11.4725 0 0 -0.766749 -0.413863 0.555192
7 0.615221 -0.993091 -0.8107 2.36302 0.0866628 -0.357379
8 2.24752 0 0 0.0605673 0.267265 -0.222262
9 1.11936 0 0 0.0749173 0.0546635 -0.249677
10 3.71348 -0.102641 0.102191 1.77126 0.869992 0.142171
11 1.72615 0 0 0.013477 -0.00733088 -0.811382
12 1.21114 0 0 0.00873811 0.0151279 -0.772911
13 3.59919 -1.06012 0.070888 1.87281 0.766148 0.187135
14 1.66069 0 0 -0.0195999 0.0443892 -0.726687
15 1.167 0 0 0.00841046 -0.00839377 -0.438998
16 2.18852 0.50104 0.0576589 1.57366 -0.028125 0.156362
17 1.29609 0 0 0.0785581 0.0270526 -1.07235
18 1.62202 0.000713348 -0.000471115 0.00740292 -0.022111 -0.784237
19 1.22241 0 0 0.000237454 0.00593041 -0.707337
20 1.76707 1.27612 0.0366406 1.57458 0.205155 0.106808
21 1.55588 0 0 -0.0273743 0.0177045 -0.702262
22 1.24273 0 0 -0.000479282 0.00036055 -1.15419
23 0.784523 0 0 0.00636382 -0.00322814 -0.741041
24 -6.70653 7.12182 -4.00061 -0.000932693 0 -1.8749
25 6.02794 0 0 1.17417 0.471342 0.259099
26 11.7344 0 0 0.00140279 0 0.756263
27 8.81167 0 0 0.0753824 0 0
28 5.77884 0 0 0.0505062 0 0
29 2.23249 0 0 0.0248762 0 0
30 11.4725 0 0 0.136965 -0.424482 -0.163791
31 0.615812 0.994372 -0.809165 -2.83171 0.442997 0.480737
32 2.24752 0 0 -0.045362 0.233136 0.363247
33 1.11936 0 0 -0.000328012 0.159957 0.657165
34 3.71349 0.102639 0.102191 -1.54675 0.834836 -0.400578
35 1.72615 0 0 -0.00689872 -0.00732659 1.09674
36 1.21112 0 0 0.0103137 0.0102 1.33017
37 3.5992 1.06012 0.0708873 -1.53662 0.394253 -0.182897
38 1.66069 0 0 0.00129285 0.0778541 0.239537
39 1.16699 0 0 0.0426518 0.021851 0.735105
40 2.18853 -0.50104 0.0576589 -1.5728 0.133573 -0.17288
41 1.29609 0 0 0.120501 0.0520644 0.782584
42 1.62201 -0.000713348 -0.000469208 0.0811908 -0.0245018 1.19712
43 1.22241 0 0 -0.0119317 -0.00594711 1.29801
44 1.76707 -1.27612 0.0366399 -1.48212 0.284875 -0.100851
45 1.55587 0 0 0.223724 0.0868401 0.700865
46 1.24273 0 0 0.000478915 0.000360571 0.964696
47 0.784532 0 0 -0.00618631 0.000249595 0.884667
48 0 0 0 0 0 0
49 -5.90508 -23.5497 -6.07014 0 0 0
50 0 -0.611115 2.11238 0 0 0
51 -0.0145802 -2.46767 2.91209 0 0 0
52 -5.90508 -24.9106 -5.82486 0 0 0
53 0 -0.675064 1.41593 0 0 0
54 0 0.979376 2.2232 0 0 0
55 0 -3.93659 2.85382 0 0 0
56 0 2.062 1.89702 -0.785398 0 0
57 0 -1.66928 2.73772 0 0 0
58 6.98255 2.1009 -16.1176 0 0 0
time 26
0 6.78963 4.11825 -5.6679 0.000934124 0 -1.53243
1 6.02795 0 0 -1.10557 0.365218 -0.419348
2 11.7344 0 0 -0.0014029 0 -0.678889
3 8.81139 -0.000450134 -0.000112534 -0.583775 0 0.000157692
4 5.77839 0.000286102 0 -0.391129 0 0.000103241
5 2.23163 -0.000329971 -0.00036335 -0.192646 0 0
6 11.4725 0 0 -0.765926 -0.413236 0.556131
7 0.615217 -0.993092 -0.8107 2.36302 0.0866627 -0.35738
8 2.24752 0 0 0.0605672 0.267265 -0.222262
9 1.11936 0 0 0.0749173 0.0546634 -0.249677
10 3.71348 -0.102641 0.102191 1.77126 0.869992 0.142171
11 1.72615 0 0 0.013477 -0.00733087 -0.811382
12 1.21114 0 0 0.0087381 0.015128 -0.772911
13 3.59919 -1.06012 0.070888 1.87281 0.766148 0.187134
14 1.66069 0 0 -0.0195999 0.0443892 -0.726687
15 1.167 0 0 0.00841045 -0.00839376 -0.438997
16 2.18853 0.50104 0.0576589 1.57366 -0.0281252 0.156362
17 1.29609 0 0 0.0785581 0.0270526 -1.07235
18 1.62202 0.000715256 -0.000471115 0.00740292 -0.0221109 -0.784237
19 1.22241 0 0 0.000237482 0.00593043 -0.707337
20 1.76707 1.27612 0.0366412 1.57458 0.205155 0.106808
21 1.55588 0 0 -0.0273743 0.0177045 -0.702263
22 1.24274 0 0 -0.000479216 0.000360557 -1.15419
23 0.784523 0 0 0.00636382 -0.00322821 -0.741041
24 -6.70653 7.12182 -4.00061 -0.000932693 0 -1.8749
25 6.02794 0 0 1.17428 0.471131 0.259139
26 11.7344 0 0 0.00140273 0 0.756512
27 8.81167 0 0 0.0757858 0 0
28 5.77884 0 0 0.0507766 0 0
29 2.23249 0 0 0.0250094 0 0
30 11.4725 0 0 0.137918 -0.424508 -0.165156
31 0.615814 0.994372 -0.809166 -2.83171 0.442997 0.480737
32 2.24752 0 0 -0.0453619 0.233136 0.363247
33 1.11936 0 0 -0.000328087 0.159957 0.657165
34 3.71349 0.10264 0.102191 -1.54675 0.834836 -0.400578
35 1.72615 0 0 -0.00689867 -0.00732663 1.09674
36 1.21112 0 0 0.0103137 0.0102 1.33017
37 3.5992 1.06012 0.070888 -1.53662 0.394253 -0.182897
38 1.6607 0 0 0.00129291 0.0778541 0.239538
39 1.16699 0 0 0.0426518 0.0218511 0.735105
40 2.18853 -0.50104 0.0576588 -1.5728 0.133574 -0.17288
41 1.29609 0 0 0.120501 0.0520644 0.782583
42 1.62202 -0.000713348 -0.000469208 0.0811908 -0.0245018 1.19712
43 1.22241 0 0 -0.0119317 -0.00594709 1.29801
44 1.76707 -1.27612 0.0366408 -1.48212 0.284875 -0.100851
45 1.55588 0 0 0.223724 0.0868401 0.700865
46 1.24273 0 0 0.000478923 0.000360567 0.964696
47 0.784532 0 0 -0.00618632 0.000249577 0.884667
48 0 0 0 0 0 0
49 -5.90548 -23.5499 -6.06448 0.000597581 -0.000848921 -0.000212819
50 0 -0.611115 2.11238 0 0 0
51 -0.0145798 -2.45028 2.91209 0 0 0
52 -5.90597 -24.911 -5.82002 0.000597493 -0.000848834 -0.000212254
53 0 -0.675064 1.41593 0 0 0
54 0 0.979378 2.2232 0 0 0
55 0 -3.93658 2.85382 0 0 0
56 0 2.062 1.89702 -0.785398 0 0
57 0 -1.66928 2.73772 0 0 0
58 6.98255 2.1009 -16.1176 0 0 0
time 27
0 6.78963 4.11825 -5.6679 0.000934124 0 -1.53243
1 6.02795 0 0 -1.10567 0.365089 -0.419332
2 11.7344 0 0 -0.00140263 0 -0.679024
3 8.81139 -0.000450134 -0.000112534 -0.583013 0 0.000157836
4 5.77839 0.000286102 0 -0.390619 0 0.000103325
5 2.23164 -0.000329971 -0.000364065 -0.192394 0 0
6 11.4725 0 0 -0.765514 -0.412922 0.5566
7 0.615221 -0.993092 -0.8107 2.36302 0.0866627 -0.357379
8 2.24752 0 0 0.0605673 0.267265 -0.222262
9 1.11936 0 0 0.0749172 0.0546635 -0.249677
10 3.71348 -0.102641 0.102191 1.77126 0.869992 0.142171
11 1.72615 0 0 0.013477 -0.00733088 -0.811382
12 1.21114 0 0 0.00873809 0.015128 -0.772911
13 3.59919 -1.06012 0.0708878 1.87281 0.766148 0.187134
14 1.66069 0 0 -0.0195999 0.0443892 -0.726687
15 1.167 0 0 0.00841045 -0.00839377 -0.438997
16 2.18852 0.50104 0.057659 1.57366 -0.0281252 0.156362
17 1.29609 0 0 0.0785581 0.0270526 -1.07235
18 1.62202 0.000713348 -0.000471115 0.0074029 -0.0221109 -0.784236
19 1.22241 0 0 0.000237492 0.0059304 -0.707337
20 1.76707 1.27612 0.0366408 1.57458 0.205155 0.106808
21 1.55588 0 0 -0.0273743 0.0177045 -0.702262
22 1.24273 0 0 -0.0004792 0.000360532 -1.15419
23 0.784523 0 0 0.00636382 -0.00322817 -0.741041
24 -6.70653 7.12182 -4.00061 -0.000932693 0 -1.8749
25 6.02794 0 0 1.17434 0.471024 0.259159
26 11.7344 0 0 0.00140277 0 0.756636
27 8.81167 0 0 0.0759871 0 0
28 5.77884 0 0 0.0509114 0 0
29 2.23249 0 0 0.0250757 0 0
30 11.4725 0 0 0.138394 -0.42452 -0.165839
31 0.615814 0.994373 -0.809165 -2.83171 0.442997 0.480737
32 2.24752 0 0 -0.045362 0.233136 0.363247
33 1.11936 0 0 -0.000328144 0.159957 0.657165
34 3.71349 0.102639 0.102191 -1.54675 0.834836 -0.400578
35 1.72615 0 0 -0.00689868 -0.0073266 1.09674
36 1.21112 0 0 0.0103137 0.0102 1.33017
37 3.5992 1.06012 0.0708877 -1.53662 0.394253 -0.182897
38 1.66069 0 0 0.00129289 0.0778541 0.239538
39 1.16699 0 0 0.0426518 0.021851 0.735105
40 2.18853 -0.50104 0.057659 -1.5728 0.133573 -0.17288
41 1.29609 0 0 0.120501 0.0520645 0.782584
42 1.62202 -0.000715256 -0.000469685 0.0811908 -0.0245018 1.19712
43 1.22241 0 0 -0.0119317 -0.00594714 1.29801
44 1.76707 -1.27612 0.0366395 -1.48212 0.284875 -0.100851
45 1.55587 0 0 0.223724 0.0868401 0.700864
46 1.24273 0 0 0.000478924 0.000360575 0.964696
47 0.784532 0 0 -0.00618633 0.000249588 0.884667
48 0 0 0 0 0 0
49 -5.90568 -23.55 -6.06165 0.00089641 -0.00127355 -0.000319636
50 0 -0.611115 2.11238 0 0 0
51 -0.0145802 -2.43289 2.91209 0 0 0
52 -5.90643 -24.9112 -5.81759 0.000896322 -0.00127346 -0.000319072
53 0 -0.675062 1.41593 0 0 0
54 0 0.979378 2.2232 0 0 0
55 0 -3.93659 2.85382 0 0 0
56 0 2.062 1.89702 -0.785398 0 0
57 0 -1.66928 2.73772 0 0 0
58 6.98255 2.1009 -16.1176 0 0 0
time 28
0 6.78963 4.11825 -5.6679 0.000934124 0 -1.53243
1 6.02795 0 0 -1.10567 0.365088 -0.419332
2 11.7344 0 0 -0.00140281 0 -0.679023
3 8.81138 -0.000451088 -0.000112772 -0.583014 0 0.000158218
4 5.77839 0.000285149 0 -0.390619 0 0.000103558
5 2.23163 -0.000330925 -0.00036478 -0.192395 0 0
6 11.4725 0 0 -0.765515 -0.412922 0.5566
7 0.615221 -0.993091 -0.8107 2.36302 0.0866627 -0.357379
8 2.24752 0 0 0.0605672 0.267265 -0.222262
9 1.11936 0 0 0.0749174 0.0546635 -0.249677
10 3.71348 -0.102641 0.102191 1.77126 0.869992 0.142171
11 1.72615 0 0 0.013477 -0.00733092 -0.811382
12 1.21114 0 0 0.0087381 0.015128 -0.772911
13 3.59919 -1.06012 0.0708878 1.87281 0.766148 0.187134
14 1.66069 0 0 -0.0195999 0.0443892 -0.726687
15 1.167 0 0 0.00841046 -0.00839376 -0.438997
16 2.18853 0.501039 0.0576593 1.57366 -0.0281251 0.156362
17 1.29609 0 0 0.0785581 0.0270526 -1.07235
18 1.62202 0.000715256 -0.000471115 0.00740289 -0.0221109 -0.784236
19 1.22241 0 0 0.000237468 0.00593042 -0.707337
20 1.76707 1.27612 0.0366412 1.57458 0.205155 0.106808
21 1.55588 0 0 -0.0273742 0.0177045 -0.702262
22 1.24273 0 0 -0.0004792 0.000360532 -1.15419
23 0.784523 0 0 0.0063638 -0.00322818 -0.741041
24 -6.70653 7.12182 -4.00061 -0.000932693 0 -1.8749
25 6.02794 0 0 1.17434 0.471025 0.259159
26 11.7344 0 0 0.00140275 0 0.756636
27 8.81167 0 0 0.0759866 0 0
28 5.77884 0 0 0.050911 0 0
29 2.23249 0 0 0.0250755 0 0
30 11.4725 0 0 0.138393 -0.424521 -0.165839
31 0.615814 0.994373 -0.809165 -2.83171 0.442997 0.480737
32 2.24752 0 0 -0.0453619 0.233136 0.363247
33 1.11936 0 0 -0.000328053 0.159957 0.657165
34 3.71349 0.10264 0.102191 -1.54675 0.834836 -0.400578
35 1.72615 0 0 -0.00689869 -0.0073266 1.09674
36 1.21112 0 0 0.0103137 0.0102001 1.33017
37 3.5992 1.06012 0.070888 -1.53662 0.394253 -0.182897
38 1.66069 0 0 0.00129288 0.0778541 0.239537
39 1.16699 0 0 0.0426518 0.0218511 0.735105
40 2.18854 -0.50104 0.0576593 -1.5728 0.133573 -0.17288
41 1.29609 0 0 0.120501 0.0520645 0.782584
42 1.62202 -0.000713348 -0.000469208 0.0811907 -0.0245018 1.19712
43 1.22241 0 0 -0.0119317 -0.00594715 1.29801
44 1.76707 -1.27612 0.0366408 -1.48212 0.284875 -0.100851
45 1.55587 0 0 0.223724 0.0868401 0.700865
46 1.24273 0 0 0.000478929 0.000360576 0.964696
47 0.784531 0 0 -0.00618631 0.00024962 0.884667
48 0 0 0 0 0 0
49 -5.90568 -23.55 -6.06165 0.000896604 -0.00127314 -0.000320245
50 0 -0.611113 2.11238 0 0 0
51 -0.0145798 -2.4155 2.91209 0 0 0
52 -5.90643 -24.9112 -5.81759 0.000896516 -0.00127305 -0.000319681
53 0 -0.675062 1.41593 0 0 0
54 0 0.97938 2.2232 0 0 0
55 0 -3.93659 2.85382 0 0 0
56 0 2.062 1.89702 -0.785398 0 0
57 0 -1.66928 2.73772 0 0 0
58 6.98255 2.1009 -16.1176 0 0 0
time 29
0 6.78963 4.11825 -5.6679 0.000934124 0 -1.53243
1 6.02795 0 0 -1.10557 0.365218 -0.419348
2 11.7344 0 0 -0.00140276 0 -0.678888
3 8.81138 -0.000450134 -0.000112772 -0.583776 0 0.000157652
4 5.77839 0.000286102 0 -0.39113 0 0.000103265
5 2.23163 -0.000329018 -0.000364065 -0.192646 0 0
6 11.4725 0 0 -0.765926 -0.413235 0.55613
7 0.615221 -0.993092 -0.8107 2.36302 0.0866627 -0.35738
8 2.24752 0 0 0.0605672 0.267265 -0.222262
9 1.11936 0 0 0.0749173 0.0546635 -0.249677
10 3.71348 -0.102642 0.102191 1.77126 0.869992 0.142171
11 1.72615 0 0 0.013477 -0.00733086 -0.811382
12 1.21114 0 0 0.0087381 0.0151279 -0.772911
13 3.59919 -1.06012 0.070888 1.87281 0.766148 0.187135
14 1.66069 0 0 -0.0195999 0.0443892 -0.726687
15 1.167 0 0 0.00841045 -0.00839376 -0.438997
16 2.18853 0.50104 0.0576591 1.57366 -0.0281253 0.156362
17 1.29609 0 0 0.0785582 0.0270526 -1.07235
18 1.62202 0.000713348 -0.000471115 0.00740289 -0.0221109 -0.784236
19 1.22241 0 0 0.000237489 0.00593043 -0.707337
20 1.76707 1.27612 0.0366414 1.57458 0.205155 0.106808
21 1.55588 0 0 -0.0273743 0.0177045 -0.702262
22 1.24273 0 0 -0.000479209 0.000360491 -1.15419
23 0.784524 0 0 0.00636378 -0.00322819 -0.741041
24 -6.70653 7.12182 -4.00061 -0.000932693 0 -1.8749
25 6.02794 0 0 1.17428 0.471131 0.259139
26 11.7344 0 0 0.00140264 0 0.756512
27 8.81167 0 0 0.075786 0 0
28 5.77884 0 0 0.0507766 0 0
29 2.23249 0 0 0.0250094 0 0
30 11.4725 0 0 0.137918 -0.424509 -0.165157
31 0.615812 0.994373 -0.809166 -2.83171 0.442997 0.480737
32 2.24752 0 0 -0.045362 0.233136 0.363247
33 1.11936 0 0 -0.000328163 0.159957 0.657165
34 3.71349 0.10264 0.102191 -1.54675 0.834836 -0.400578
35 1.72615 0 0 -0.0068987 -0.0073266 1.09674
36 1.21112 0 0 0.0103137 0.0102 1.33017
37 3.5992 1.06012 0.0708883 -1.53662 0.394253 -0.182897
38 1.66069 0 0 0.00129289 0.077854 0.239537
39 1.16699 0 0 0.0426518 0.021851 0.735105
40 2.18853 -0.50104 0.0576592 -1.5728 0.133573 -0.17288
41 1.29609 0 0 0.120501 0.0520644 0.782584
42 1.62201 -0.000711441 -0.000469685 0.0811908 -0.0245018 1.19712
43 1.22241 0 0 -0.0119317 -0.00594714 1.29801
44 1.76707 -1.27612 0.0366408 -1.48212 0.284875 -0.100851
45 1.55588 0 0 0.223724 0.0868401 0.700865
46 1.24273 0 0 0.000478898 0.00036058 0.964696
47 0.78453 0 0 -0.0061863 0.000249567 0.884667
48 0 0 0 0 0 0
49 -5.90548 -23.5499 -6.06448 0.000597588 -0.000848913 -0.000213275
50 0 -0.611115 2.11238 0 0 0
51 -0.0145802 -2.39811 2.91209 0 0 0
52 -5.90598 -24.911 -5.82002 0.0005975 -0.000848826 -0.000212711
53 0 -0.675064 1.41593 0 0 0
54 0 0.979378 2.2232 0 0 0
55 0 -3.93658 2.85382 0 0 0
56 0 2.062 1.89702 -0.785398 0 0
57 0 -1.66928 2.73772 0 0 0
58 6.98255 2.1009 -16.1176 0 0 0
time 30
0 6.78963 4.11825 -5.6679 0.000934124 0 -1.53243
1 6.02795 0 0 -1.10536 0.365476 -0.419382
2 11.7344 0 0 -0.00140273 0 -0.678616
3 8.81139 -0.000450134 -0.00011158 -0.585301 0 0.000157672
4 5.77839 0.000286102 0 -0.392151 0 0.000103231
5 2.23164 -0.000329971 -0.000363588 -0.193149 0 0
6 11.4725 0 0 -0.766749 -0.413863 0.555192
7 0.615221 -0.993091 -0.8107 2.36302 0.0866628 -0.357379
8 2.24752 0 0 0.0605673 0.267265 -0.222262
9 1.11936 0 0 0.0749173 0.0546635 -0.249677
10 3.71348 -0.102641 0.102191 1.77126 0.869992 0.142171
11 1.72615 0 0 0.013477 -0.00733088 -0.811382
12 1.21114 0 0 0.00873811 0.0151279 -0.772911
13 3.59919 -1.06012 0.070888 1.87281 0.766148 0.187135
14 1.66069 0 0 -0.0195999 0.0443892 -0.726687
15 1.167 0 0 0.00841046 -0.00839377 -0.438998
16 2.18852 0.50104 0.0576589 1.57366 -0.028125 0.156362
17 1.29609 0 0 0.0785581 0.0270526 -1.07235
18 1.62202 0.000713348 -0.000471115 0.00740292 -0.022111 -0.784237
19 1.22241 0 0 0.000237454 0.00593041 -0.707337
20 1.76707 1.27612 0.0366406 1.57458 0.205155 0.106808
21 1.55588 0 0 -0.0273743 0.0177045 -0.702262
22 1.24273 0 0 -0.000479282 0.00036055 -1.15419
23 0.784523 0 0 0.00636382 -0.00322814 -0.741041
24 -6.70653 7.12182 -4.00061 -0.000932693 0 -1.8749
25 6.02794 0 0 1.17417 0.471342 0.259099
26 11.7344 0 0 0.00140282 0 0.756263
27 8.81167 0 0 0.0753826 0 0
28 5.77884 0 0 0.0505064 0 0
29 2.23249 0 0 0.0248763 0 0
30 11.4725 0 0 0.136965 -0.424482 -0.163792
31 0.615812 0.994373 -0.809166 -2.83171 0.442997 0.480737
32 2.24752 0 0 -0.045362 0.233136 0.363247
33 1.11935 0 0 -0.000327986 0.159957 0.657165
34 3.71349 0.10264 0.102191 -1.54675 0.834836 -0.400578
35 1.72615 0 0 -0.00689867 -0.00732658 1.09674
36 1.21112 0 0 0.0103137 0.0102 1.33017
37 3.5992 1.06012 0.070888 -1.53662 0.394253 -0.182897
38 1.66069 0 0 0.00129286 0.0778541 0.239537
39 1.16699 0 0 0.0426518 0.021851 0.735105
40 2.18853 -0.50104 0.0576593 -1.5728 0.133573 -0.17288
41 1.29609 0 0 0.120501 0.0520644 0.782584
42 1.62201 -0.000711441 -0.000470161 0.0811907 -0.0245018 1.19712
43 1.22241 0 0 -0.0119317 -0.00594714 1.29801
44 1.76707 -1.27612 0.0366402 -1.48212 0.284875 -0.100851
45 1.55588 0 0 0.223724 0.08684 0.700865
46 1.24273 0 0 0.000478936 0.000360568 0.964696
47 0.784532 0 0 -0.00618631 0.00024959 0.884667
48 0 0 0 0 0 0
49 -5.90508 -23.5497 -6.07014 0 0 0
50 0 -0.611115 2.11238 0 0 0
51 -0.0145798 -2.38072 2.91209 0 0 0
52 -5.90508 -24.9106 -5.82486 0 0 0
53 0 -0.675064 1.41593 0 0 0
54 0 0.979376 2.2232 0 0 0
55 0 -3.93659 2.85382 0 0 0
56 0 2.062 1.89702 -0.785398 0 0
57 0 -1.66928 2.73772 0 0 0
58 6.98255 2.1009 -16.1176 0 0 0
end
