//Sequence File generated by the Wall Worm SMD Exporter PRO 1.99
//www.wallworm.com
version 1
nodes
0 "b_l_clav" -1
1 "b_l_upperarm" 0
2 "b_l_forearm" 1
3 "b_l_twist3" 2
4 "b_l_twist2" 2
5 "b_l_twist1" 2
6 "b_l_hand" 2
7 "b_l_thumb001" 6
8 "b_l_thumb002" 7
9 "b_l_thumb003" 8
10 "b_l_middle001" 6
11 "b_l_middle002" 10
12 "b_l_middle003" 11
13 "b_l_index001" 6
14 "b_l_index002" 13
15 "b_l_index003" 14
16 "b_l_hand_ringsqueezer" 6
17 "b_l_ring001" 16
18 "b_l_ring002" 17
19 "b_l_ring003" 18
20 "b_l_hand_pinkysqueezer" 6
21 "b_l_pinky001" 20
22 "b_l_pinky002" 21
23 "b_l_pinky003" 22
24 "b_r_clav" -1
25 "b_r_upperarm" 24
26 "b_r_forearm" 25
27 "b_r_twist3" 26
28 "b_r_twist2" 26
29 "b_r_twist1" 26
30 "b_r_hand" 26
31 "b_r_thumb001" 30
32 "b_r_thumb002" 31
33 "b_r_thumb003" 32
34 "b_r_middle001" 30
35 "b_r_middle002" 34
36 "b_r_middle003" 35
37 "b_r_index001" 30
38 "b_r_index002" 37
39 "b_r_index003" 38
40 "b_r_hand_ringsqueezer" 30
41 "b_r_ring001" 40
42 "b_r_ring002" 41
43 "b_r_ring003" 42
44 "b_r_hand_pinkysqueezer" 30
45 "b_r_pinky001" 44
46 "b_r_pinky002" 45
47 "b_r_pinky003" 46
48 "b_zero" -1
49 "d_clip" -1
50 "d_magfollower" 49
51 "d_boolet" 49
52 "d_gun" -1
53 "d_trig" 52
54 "d_slidelock" 52
55 "d_slide" 52
56 "d_ham" 52
57 "d_barrel" 52
58 "d_maglite" -1
end
skeleton
time 0
0 6.78963 4.11825 -5.6679 0.000934124 0 -1.53243
1 6.02795 0 0 -1.10536 0.365476 -0.419382
2 11.7344 0 0 -0.00140273 0 -0.678616
3 8.81139 -0.000450134 -0.00011158 -0.585301 0 0.000157672
4 5.77839 0.000286102 0 -0.392151 0 0.000103231
5 2.23164 -0.000329971 -0.000363588 -0.193149 0 0
6 11.4725 0 0 -0.766749 -0.413863 0.555192
7 0.615221 -0.993091 -0.8107 2.36302 0.0866628 -0.357379
8 2.24752 0 0 0.0605673 0.267265 -0.222262
9 1.11936 0 0 0.0749173 0.0546635 -0.249677
10 3.71348 -0.102641 0.102191 1.77126 0.869992 0.142171
11 1.72615 0 0 0.013477 -0.00733088 -0.811382
12 1.21114 0 0 0.00873811 0.0151279 -0.772911
13 3.59919 -1.06012 0.070888 1.87281 0.766148 0.187135
14 1.66069 0 0 -0.0195999 0.0443892 -0.726687
15 1.167 0 0 0.00841046 -0.00839377 -0.438998
16 2.18852 0.50104 0.0576589 1.57366 -0.028125 0.156362
17 1.29609 0 0 0.0785581 0.0270526 -1.07235
18 1.62202 0.000713348 -0.000471115 0.00740292 -0.022111 -0.784237
19 1.22241 0 0 0.000237454 0.00593041 -0.707337
20 1.76707 1.27612 0.0366406 1.57458 0.205155 0.106808
21 1.55588 0 0 -0.0273743 0.0177045 -0.702262
22 1.24273 0 0 -0.000479282 0.00036055 -1.15419
23 0.784523 0 0 0.00636382 -0.00322814 -0.741041
24 -6.70653 7.12182 -4.00061 -0.000932693 0 -1.8749
25 6.02794 0 0 1.17417 0.471342 0.259099
26 11.7344 0 0 0.00140282 0 0.756263
27 8.81167 0 0 0.0753826 0 0
28 5.77884 0 0 0.0505064 0 0
29 2.23249 0 0 0.0248763 0 0
30 11.4725 0 0 0.136965 -0.424482 -0.163792
31 0.615812 0.994373 -0.809166 -2.83171 0.442997 0.480737
32 2.24752 0 0 -0.045362 0.233136 0.363247
33 1.11935 0 0 -0.000327986 0.159957 0.657165
34 3.71349 0.10264 0.102191 -1.54675 0.834836 -0.400578
35 1.72615 0 0 -0.00689867 -0.00732658 1.09674
36 1.21112 0 0 0.0103137 0.0102 1.33017
37 3.5992 1.06012 0.070888 -1.53662 0.394253 -0.182897
38 1.66069 0 0 0.00129286 0.0778541 0.239537
39 1.16699 0 0 0.0426518 0.021851 0.735105
40 2.18853 -0.50104 0.0576593 -1.5728 0.133573 -0.17288
41 1.29609 0 0 0.120501 0.0520644 0.782584
42 1.62201 -0.000711441 -0.000470161 0.0811907 -0.0245018 1.19712
43 1.22241 0 0 -0.0119317 -0.00594714 1.29801
44 1.76707 -1.27612 0.0366402 -1.48212 0.284875 -0.100851
45 1.55588 0 0 0.223724 0.08684 0.700865
46 1.24273 0 0 0.000478936 0.000360568 0.964696
47 0.784532 0 0 -0.00618631 0.00024959 0.884667
48 0 0 0 0 0 0
49 -5.90508 -23.5497 -6.07014 0 0 0
50 0 -0.611115 2.11238 0 0 0
51 -0.0145798 -2.38072 2.91209 0 0 0
52 -5.90508 -24.9106 -5.82486 0 0 0
53 0 -0.675064 1.41593 0 0 0
54 0 0.979376 2.2232 0 0 0
55 0 -3.93659 2.85382 0 0 0
56 0 2.062 1.89702 0.0872663 0 0
57 0 -1.66928 2.73772 0 0 0
58 6.98255 2.1009 -16.1176 0 0 0
time 1
0 6.78963 4.11825 -5.6679 0.000934124 0 -1.53243
1 6.02795 0 0 -1.09567 0.390919 -0.410275
2 11.7344 0 0 -0.00140288 0 -0.737289
3 8.81139 -0.000448227 -0.000112534 -0.569075 0 0.000157986
4 5.77839 0.000287056 0 -0.38128 0 0.000103564
5 2.23164 -0.000328064 -0.000364304 -0.187795 0 0
6 11.4725 0 0 -0.768037 -0.424092 0.57945
7 0.615223 -0.993091 -0.8107 2.36302 0.0866629 -0.357379
8 2.24752 0 0 0.0605672 0.267265 -0.222262
9 1.11936 0 0 0.0749173 0.0546635 -0.249677
10 3.71348 -0.102641 0.102191 1.77126 0.869992 0.142171
11 1.72615 0 0 0.013477 -0.00733091 -0.811382
12 1.21114 0 0 0.00873809 0.015128 -0.772911
13 3.59919 -1.06012 0.0708883 1.87281 0.766148 0.187134
14 1.66069 0 0 -0.0195999 0.0443892 -0.726687
15 1.167 0 0 0.00841045 -0.00839377 -0.438998
16 2.18853 0.50104 0.0576594 1.57366 -0.028125 0.156362
17 1.29609 0 0 0.0785582 0.0270526 -1.07235
18 1.62202 0.000713348 -0.000471115 0.00740292 -0.022111 -0.784237
19 1.22241 0 0 0.000237477 0.00593044 -0.707337
20 1.76707 1.27612 0.0366409 1.57458 0.205155 0.106808
21 1.55588 0 0 -0.0273743 0.0177045 -0.702262
22 1.24273 0 0 -0.000479234 0.000360475 -1.15419
23 0.784523 0 0 0.00636382 -0.00322821 -0.741041
24 -6.70653 7.12182 -4.00061 -0.000932693 0 -1.8749
25 6.02794 0 0 1.16609 0.50077 0.246274
26 11.7344 0 0 0.00140276 0 0.817988
27 8.81167 0 0 0.0643459 0 0
28 5.77884 0 0 0.0431118 0 0
29 2.23249 0 0 0.0212341 0 0
30 11.4725 0 0 0.136091 -0.430148 -0.183447
31 0.615814 0.994372 -0.809165 -2.83171 0.442997 0.480737
32 2.24752 0 0 -0.0453621 0.233135 0.363247
33 1.11935 0 0 -0.000328001 0.159957 0.657165
34 3.71349 0.10264 0.102191 -1.54675 0.834836 -0.400578
35 1.72615 0 0 -0.0068987 -0.00732662 1.09674
36 1.21112 0 0 0.0103137 0.0102 1.33017
37 3.5992 1.06012 0.0708885 -1.53662 0.394253 -0.182897
38 1.66069 0 0 0.0202863 0.075181 0.48674
39 1.16699 0 0 0.0438697 0.0101366 0.981334
40 2.18853 -0.50104 0.0576595 -1.5728 0.133573 -0.17288
41 1.29609 0 0 0.120501 0.0520644 0.782583
42 1.62202 -0.000713348 -0.000469208 0.0811908 -0.0245018 1.19712
43 1.22241 0 0 -0.0119317 -0.00594711 1.29801
44 1.76707 -1.27612 0.0366402 -1.48212 0.284875 -0.100851
45 1.55588 0 0 0.223724 0.0868401 0.700865
46 1.24273 0 0 0.000478918 0.000360582 0.964696
47 0.784531 0 0 -0.00618631 0.000249591 0.884667
48 0 0 0 0 0 0
49 -5.90508 -23.265 -6.03071 -0.0109621 0 0
50 0 -0.611116 2.11238 0 0 0
51 -0.0145802 -1.67948 2.80613 -0.126871 0.00396596 -0.00657002
52 -5.90508 -24.6231 -5.77053 -0.0109622 0 0
53 0 -0.515926 1.48105 0.253209 0 0
54 0 0.979378 2.2232 0 0 0
55 0 -2.9341 2.85382 0 0 0
56 0 2.062 1.89702 -0.349066 0 0
57 0 -1.66928 2.68516 -0.0179903 0 0
58 6.98255 2.1009 -16.1176 0 0 0
time 2
0 6.78963 4.11825 -5.6679 0.000934124 0 -1.53243
1 6.02795 0 0 -1.03297 0.511255 -0.364958
2 11.7344 0 0 -0.00140288 0 -1.01792
3 8.81138 -0.000452042 -0.000111818 -0.459414 0 0.000157878
4 5.77839 0.000284195 0 -0.307808 0 0.0001039
5 2.23163 -0.000329971 -0.00036335 -0.151607 0 0
6 11.4725 0 0 -0.765442 -0.500522 0.691732
7 0.615221 -0.993092 -0.8107 2.36302 0.0866627 -0.357379
8 2.24752 0 0 0.0605673 0.267265 -0.222262
9 1.11936 0 0 0.0749173 0.0546635 -0.249677
10 3.71348 -0.102641 0.102191 1.77126 0.869992 0.142171
11 1.72615 0 0 0.013477 -0.0073309 -0.811382
12 1.21114 0 0 0.00873811 0.015128 -0.772911
13 3.59919 -1.06012 0.0708882 1.87281 0.766148 0.187134
14 1.66069 0 0 -0.0195999 0.0443892 -0.726687
15 1.167 0 0 0.00841045 -0.00839377 -0.438997
16 2.18853 0.50104 0.0576589 1.57366 -0.028125 0.156362
17 1.29609 0 0 0.0785581 0.0270526 -1.07235
18 1.62202 0.000711441 -0.000471592 0.00740292 -0.0221109 -0.784237
19 1.22241 0 0 0.00023748 0.00593041 -0.707337
20 1.76707 1.27612 0.0366404 1.57458 0.205155 0.106808
21 1.55588 0 0 -0.0273742 0.0177045 -0.702262
22 1.24273 0 0 -0.000479258 0.000360512 -1.15419
23 0.784525 0 0 0.00636387 -0.00322818 -0.741041
24 -6.70653 7.12182 -4.00061 -0.000932693 0 -1.8749
25 6.02794 0 0 1.11118 0.645667 0.174886
26 11.7344 0 0 0.00140266 0 1.11303
27 8.81167 0 0 0.031139 0 0
28 5.77884 0 0 0.0208631 0 0
29 2.23249 0 0 0.0102758 0 0
30 11.4725 0 0 0.143384 -0.460412 -0.254398
31 0.615812 0.994372 -0.809165 -2.83171 0.442997 0.480737
32 2.24752 0 0 -0.045362 0.233135 0.363247
33 1.11935 0 0 -0.000327906 0.159957 0.657165
34 3.71349 0.102639 0.102191 -1.54675 0.834836 -0.400578
35 1.72615 0 0 -0.00689871 -0.0073266 1.09674
36 1.21112 0 0 0.0103137 0.0102 1.33017
37 3.5992 1.06012 0.0708885 -1.53662 0.394253 -0.182897
38 1.66069 0 0 0.0202862 0.075181 0.48674
39 1.16699 0 0 0.0438697 0.0101366 0.981335
40 2.18853 -0.50104 0.0576591 -1.5728 0.133573 -0.17288
41 1.29609 0 0 0.120501 0.0520645 0.782583
42 1.62202 -0.000713348 -0.000470161 0.0811908 -0.0245018 1.19712
43 1.22241 0 0 -0.0119317 -0.00594711 1.29801
44 1.76707 -1.27612 0.0366403 -1.48212 0.284875 -0.100851
45 1.55588 0 0 0.223724 0.08684 0.700865
46 1.24273 0 0 0.000478917 0.000360572 0.964696
47 0.784533 0 0 -0.00618631 0.000249591 0.884667
48 0 0 0 0 0 0
49 -5.87743 -21.5833 -5.86885 -0.0813028 -0.0113115 0.0112746
50 0 -0.611115 2.11238 0 0 0
51 -0.0145807 -0.978233 2.70018 -0.217493 0.00679878 -0.0112629
52 -5.86638 -22.9198 -5.51388 -0.0813029 -0.0113114 0.0112752
53 0 -0.515924 1.48105 0.253209 0 0
54 0 0.979376 2.2232 0 0 0
55 0 -1.9316 2.85382 0 0 0
56 0 2.062 1.89702 -0.785398 0 0
57 0 -1.66928 2.6326 -0.0359804 0 0
58 6.98255 2.1009 -16.1176 0 0 0
time 3
0 6.78963 4.11825 -5.6679 0.000934124 0 -1.53243
1 6.02795 0 0 -1.00996 0.549032 -0.345926
2 11.7344 0 0 -0.00140267 0 -1.14801
3 8.81138 -0.000450134 -0.000112057 -0.422346 0 0.00015798
4 5.77839 0.000286102 0 -0.282972 0 0.000104016
5 2.23163 -0.000328064 -0.000364304 -0.139374 0 0
6 11.4725 0 0 -0.733626 -0.519124 0.678896
7 0.615219 -0.993092 -0.810701 2.36302 0.0866628 -0.357379
8 2.24752 0 0 0.0605672 0.267265 -0.222262
9 1.11936 0 0 0.0749173 0.0546634 -0.249677
10 3.71348 -0.102642 0.102191 1.77126 0.869992 0.142171
11 1.72615 0 0 0.013477 -0.00733089 -0.811382
12 1.21114 0 0 0.00873812 0.015128 -0.772911
13 3.59919 -1.06012 0.0708883 1.87281 0.766148 0.187135
14 1.66069 0 0 -0.0195999 0.0443892 -0.726687
15 1.167 0 0 0.00841045 -0.00839376 -0.438997
16 2.18852 0.50104 0.057659 1.57366 -0.028125 0.156362
17 1.29609 0 0 0.0785581 0.0270526 -1.07235
18 1.62202 0.000715256 -0.000471115 0.00740291 -0.022111 -0.784236
19 1.22241 0 0 0.000237461 0.00593043 -0.707337
20 1.76707 1.27612 0.0366408 1.57458 0.205155 0.106808
21 1.55588 0 0 -0.0273743 0.0177045 -0.702262
22 1.24273 0 0 -0.000479239 0.000360524 -1.15419
23 0.784524 0 0 0.00636381 -0.00322816 -0.741041
24 -6.70653 7.12182 -4.00061 -0.000932693 0 -1.8749
25 6.02794 0 0 1.08062 0.702361 0.141174
26 11.7344 0 0 0.00140276 0 1.26593
27 8.81166 0 0 -0.0362815 0 0
28 5.77884 0 0 -0.0243086 0 0
29 2.23249 0 0 -0.0119729 0 0
30 11.4725 0 0 0.102679 -0.528561 -0.262479
31 0.615812 0.994371 -0.809165 -2.83171 0.442997 0.480737
32 2.24752 0 0 -0.0453621 0.233136 0.363247
33 1.11936 0 0 -0.000328019 0.159957 0.657165
34 3.71348 0.102639 0.102191 -1.54675 0.834836 -0.400578
35 1.72615 0 0 -0.00689871 -0.00732661 1.09674
36 1.21112 0 0 0.0103137 0.0102 1.33017
37 3.5992 1.06012 0.0708879 -1.53662 0.394252 -0.182897
38 1.66069 0 0 0.0202863 0.0751809 0.48674
39 1.16699 0 0 0.0438697 0.0101366 0.981335
40 2.18853 -0.501041 0.0576586 -1.5728 0.133573 -0.17288
41 1.29609 0 0 0.120501 0.0520644 0.782584
42 1.62202 -0.000713348 -0.000469685 0.0811908 -0.0245018 1.19712
43 1.22241 0 0 -0.0119317 -0.00594711 1.29801
44 1.76707 -1.27612 0.0366407 -1.48212 0.284875 -0.100851
45 1.55587 0 0 0.223724 0.0868401 0.700865
46 1.24273 0 0 0.000478917 0.000360571 0.964696
47 0.784532 0 0 -0.00618631 0.000249586 0.884667
48 0 0 0 0 0 0
49 -5.89002 -20.5349 -5.26439 -0.166959 0.00124847 -0.0271279
50 0 -0.611115 2.11238 0 0 0
51 -0.0150843 -1.13472 2.69746 -0.271867 0.00849847 -0.0140786
52 -5.92473 -21.8357 -4.79636 -0.166959 0.00124864 -0.0271274
53 0 -0.515924 1.48105 0.253209 0 0
54 0 0.979376 2.2232 0 0 0
55 0 -1.9316 2.85382 0 0 0
56 0 2.062 1.89702 -0.785398 0 0
57 0 -1.66928 2.6326 -0.0359804 0 0
58 6.98255 2.1009 -16.1176 0 0 0
time 4
0 6.78963 4.11825 -5.6679 0.000934124 0 -1.53243
1 6.02795 0 0 -1.01254 0.544218 -0.34886
2 11.7344 0 0 -0.00140274 0 -1.15353
3 8.81138 -0.000448227 -0.000112534 -0.4529 0 0.000157759
4 5.77839 0.000286102 0 -0.303443 0 0.000103726
5 2.23163 -0.000328064 -0.000363827 -0.149457 0 0
6 11.4725 0 0 -0.709703 -0.507563 0.610541
7 0.615219 -0.993092 -0.8107 2.36302 0.0866628 -0.357379
8 2.24752 0 0 0.0605672 0.267265 -0.222262
9 1.11936 0 0 0.0749174 0.0546635 -0.249677
10 3.71348 -0.102641 0.102191 1.77126 0.869992 0.142171
11 1.72615 0 0 0.013477 -0.00733092 -0.811382
12 1.21114 0 0 0.00873811 0.0151279 -0.772911
13 3.59919 -1.06012 0.0708879 1.87281 0.766148 0.187134
14 1.66069 0 0 -0.0195999 0.0443892 -0.726687
15 1.167 0 0 0.00841045 -0.00839377 -0.438998
16 2.18853 0.50104 0.057659 1.57366 -0.0281249 0.156362
17 1.29609 0 0 0.0785581 0.0270526 -1.07235
18 1.62202 0.000713348 -0.000472069 0.00740291 -0.0221109 -0.784236
19 1.22241 0 0 0.000237471 0.00593042 -0.707337
20 1.76707 1.27612 0.036641 1.57458 0.205155 0.106808
21 1.55588 0 0 -0.0273742 0.0177045 -0.702262
22 1.24273 0 0 -0.000479221 0.000360483 -1.15419
23 0.784524 0 0 0.00636384 -0.0032282 -0.741041
24 -6.70653 7.12182 -4.00061 -0.000932693 0 -1.8749
25 6.02794 0 0 1.07842 0.708122 0.136948
26 11.7344 0 0 0.00140267 0 1.29228
27 8.81167 0 0 -0.0801541 0 0
28 5.77884 0 0 -0.0537033 0 0
29 2.23249 0 0 -0.0264508 0 0
30 11.4725 0 0 0.0555124 -0.577075 -0.22456
31 0.615813 0.994374 -0.809165 -2.83171 0.442997 0.480737
32 2.24752 0 0 -0.0453621 0.233136 0.363247
33 1.11936 0 0 -0.000327952 0.159957 0.657165
34 3.71349 0.102639 0.102191 -1.54675 0.834836 -0.400578
35 1.72615 0 0 -0.0068987 -0.00732659 1.09674
36 1.21112 0 0 0.0103137 0.0102 1.33017
37 3.5992 1.06012 0.0708875 -1.53662 0.394253 -0.182897
38 1.66069 0 0 0.0202863 0.0751809 0.48674
39 1.16699 0 0 0.0438697 0.0101366 0.981334
40 2.18853 -0.50104 0.0576585 -1.5728 0.133573 -0.17288
41 1.29609 0 0 0.120501 0.0520644 0.782583
42 1.62201 -0.000714302 -0.000469208 0.0811908 -0.0245018 1.19712
43 1.22241 0 0 -0.0119317 -0.00594711 1.29801
44 1.76707 -1.27612 0.0366402 -1.48212 0.284875 -0.100851
45 1.55587 0 0 0.223724 0.0868401 0.700865
46 1.24273 0 0 0.000478919 0.000360573 0.964696
47 0.784532 0 0 -0.00618631 0.000249586 0.884667
48 0 0 0 0 0 0
49 -5.99888 -20.3125 -4.94522 -0.222723 0.0151489 -0.0697594
50 0 -0.611113 2.11238 0 0 0
51 -0.0155888 -1.29121 2.69473 -0.289991 0.00906505 -0.0150172
52 -6.07946 -21.5831 -4.40545 -0.222723 0.0151491 -0.0697589
53 0 -0.515924 1.48105 0.25321 0 0
54 0 0.979376 2.2232 0 0 0
55 0 -1.9316 2.85382 0 0 0
56 0 2.062 1.89703 -0.785398 0 0
57 0 -1.66928 2.63261 -0.0359803 0 0
58 6.98255 2.1009 -16.1176 0 0 0
time 5
0 6.78963 4.11825 -5.6679 0.000934124 0 -1.53243
1 6.02795 0 0 -1.02899 0.519184 -0.360592
2 11.7344 0 0 -0.00140293 0 -1.09143
3 8.81138 -0.000450134 -0.000111103 -0.457103 0 0.000157671
4 5.77839 0.000286102 0 -0.306259 0 0.00010355
5 2.23164 -0.000329971 -0.00036335 -0.150844 0 0
6 11.4725 0 0 -0.711138 -0.488889 0.613392
7 0.615217 -0.993092 -0.8107 2.36302 0.0866627 -0.35738
8 2.24752 0 0 0.0605673 0.267265 -0.222263
9 1.11936 0 0 0.0749173 0.0546634 -0.249677
10 3.71348 -0.102642 0.102191 1.77126 0.869992 0.142171
11 1.72615 0 0 0.013477 -0.0073309 -0.811382
12 1.21114 0 0 0.00873809 0.0151279 -0.772911
13 3.59919 -1.06012 0.0708882 1.87281 0.766148 0.187134
14 1.66069 0 0 -0.0195999 0.0443892 -0.726687
15 1.167 0 0 0.00841045 -0.00839376 -0.438997
16 2.18852 0.50104 0.0576595 1.57366 -0.0281249 0.156362
17 1.29609 0 0 0.0785581 0.0270526 -1.07235
18 1.62202 0.000711441 -0.000471115 0.00740289 -0.0221109 -0.784236
19 1.22241 0 0 0.000237488 0.00593046 -0.707337
20 1.76707 1.27612 0.0366409 1.57458 0.205155 0.106808
21 1.55588 0 0 -0.0273743 0.0177044 -0.702262
22 1.24273 0 0 -0.000479217 0.000360503 -1.15419
23 0.784524 0 0 0.00636382 -0.00322817 -0.741041
24 -6.70653 7.12182 -4.00061 -0.000932693 0 -1.8749
25 6.02794 0 0 1.09828 0.678282 0.154147
26 11.7344 0 0 0.00140271 0 1.22701
27 8.81167 0 0 -0.0495834 0 0
28 5.77884 0 0 -0.0332209 0 0
29 2.23249 0 0 -0.0163625 0 0
30 11.4725 0 0 0.081654 -0.554326 -0.233518
31 0.615812 0.994371 -0.809166 -2.83171 0.442997 0.480737
32 2.24752 0 0 -0.0453622 0.233135 0.363247
33 1.11936 0 0 -0.000327967 0.159957 0.657165
34 3.71348 0.10264 0.102192 -1.54675 0.834836 -0.400578
35 1.72615 0 0 -0.00689871 -0.0073266 1.09674
36 1.21112 0 0 0.0103137 0.0102 1.33017
37 3.5992 1.06012 0.0708884 -1.53662 0.394253 -0.182897
38 1.66069 0 0 0.015362 0.075874 0.422651
39 1.16699 0 0 0.043554 0.0131737 0.917497
40 2.18853 -0.50104 0.0576591 -1.5728 0.133573 -0.17288
41 1.29609 0 0 0.120501 0.0520645 0.782583
42 1.62202 -0.000715256 -0.000470161 0.0811908 -0.0245018 1.19712
43 1.22241 0 0 -0.0119317 -0.00594712 1.29801
44 1.76707 -1.27612 0.0366409 -1.48212 0.284875 -0.100851
45 1.55588 0 0 0.223724 0.0868401 0.700865
46 1.24273 0 0 0.000478916 0.000360575 0.964696
47 0.784532 0 0 -0.00618632 0.000249588 0.884667
48 0 0 0 0 0 0
49 -6.05017 -20.8153 -5.06441 -0.185985 0.00317026 -0.060343
50 0 -0.611116 2.11238 0 0 0
51 -0.0160928 -1.44769 2.69201 -0.271867 0.00849847 -0.0140786
52 -6.12653 -22.1052 -4.57171 -0.185985 0.00317045 -0.0603424
53 0 -0.580759 1.45452 0.15005 0 0
54 0 0.979378 2.2232 0 0 0
55 0 -1.9316 2.85382 0 0 0
56 0 2.062 1.89702 -0.785398 0 0
57 0 -1.66928 2.6326 -0.0359804 0 0
58 6.98255 2.1009 -16.1176 0 0 0
time 6
0 6.78963 4.11825 -5.6679 0.000934124 0 -1.53243
1 6.02795 0 0 -1.04284 0.496442 -0.370557
2 11.7344 0 0 -0.00140277 0 -1.03315
3 8.81138 -0.000450134 -0.000112057 -0.447816 0 0.000157482
4 5.77839 0.000284195 0 -0.300037 0 0.000103625
5 2.23163 -0.000329971 -0.000363827 -0.147779 0 0
6 11.4725 0 0 -0.722325 -0.471717 0.648563
7 0.615217 -0.993091 -0.8107 2.36302 0.0866628 -0.357379
8 2.24752 0 0 0.0605672 0.267265 -0.222262
9 1.11936 0 0 0.0749173 0.0546636 -0.249677
10 3.71348 -0.102641 0.102191 1.77126 0.869992 0.142171
11 1.72615 0 0 0.013477 -0.00733089 -0.811382
12 1.21114 0 0 0.00873812 0.015128 -0.772911
13 3.59919 -1.06012 0.070888 1.87281 0.766148 0.187135
14 1.66069 0 0 -0.0195999 0.0443892 -0.726687
15 1.167 0 0 0.00841045 -0.00839377 -0.438998
16 2.18852 0.501039 0.0576593 1.57366 -0.0281251 0.156362
17 1.29609 0 0 0.0785581 0.0270526 -1.07235
18 1.62202 0.000713348 -0.000471115 0.00740291 -0.0221109 -0.784237
19 1.22241 0 0 0.000237502 0.00593042 -0.707337
20 1.76707 1.27612 0.0366409 1.57458 0.205155 0.106808
21 1.55588 0 0 -0.0273743 0.0177045 -0.702262
22 1.24274 0 0 -0.000479229 0.000360549 -1.15419
23 0.784524 0 0 0.00636383 -0.0032282 -0.741041
24 -6.70653 7.12182 -4.00061 -0.000932693 0 -1.8749
25 6.02794 0 0 1.11621 0.647492 0.170644
26 11.7344 0 0 0.00140276 0 1.15874
27 8.81167 0 0 -0.0110989 0 0
28 5.77884 0 0 -0.00743626 0 0
29 2.23249 0 0 -0.00366268 0 0
30 11.4725 0 0 0.122205 -0.513914 -0.263894
31 0.615812 0.994373 -0.809166 -2.83171 0.442997 0.480737
32 2.24752 0 0 -0.045362 0.233136 0.363247
33 1.11936 0 0 -0.000327982 0.159957 0.657165
34 3.71349 0.10264 0.102191 -1.54675 0.834836 -0.400578
35 1.72615 0 0 -0.00689872 -0.00732661 1.09674
36 1.21112 0 0 0.0103137 0.0102 1.33017
37 3.5992 1.06012 0.0708888 -1.53662 0.394253 -0.182897
38 1.66069 0 0 0.00621717 0.0771611 0.303627
39 1.16699 0 0 0.0429675 0.018814 0.798942
40 2.18853 -0.50104 0.0576593 -1.5728 0.133573 -0.17288
41 1.29609 0 0 0.120501 0.0520644 0.782584
42 1.62202 -0.000713348 -0.000469685 0.0811908 -0.0245018 1.19712
43 1.22241 0 0 -0.0119317 -0.0059471 1.29801
44 1.76707 -1.27612 0.0366405 -1.48212 0.284875 -0.100851
45 1.55587 0 0 0.223724 0.0868401 0.700865
46 1.24273 0 0 0.000478923 0.000360578 0.964696
47 0.784531 0 0 -0.00618631 0.000249584 0.884667
48 0 0 0 0 0 0
49 -6.05651 -21.3313 -5.28354 -0.125137 -0.0141364 -0.0385252
50 0 -0.611113 2.11238 0 0 0
51 -0.0155883 -1.88622 2.76537 -0.217493 0.00679878 -0.0112629
52 -6.11317 -22.6498 -4.87036 -0.125137 -0.0141363 -0.0385247
53 0 -0.645594 1.42799 0.0468908 0 0
54 0 0.979376 2.2232 0 0 0
55 0 -2.59993 2.85382 0 0 0
56 0 2.062 1.89702 -0.785398 0 0
57 0 -1.66928 2.66764 -0.0239872 0 0
58 6.98255 2.1009 -16.1176 0 0 0
time 7
0 6.78963 4.11825 -5.6679 0.000934124 0 -1.53243
1 6.02795 0 0 -1.05015 0.483917 -0.375708
2 11.7344 0 0 -0.00140288 0 -1.00233
3 8.81139 -0.000448227 -0.000111818 -0.442861 0 0.000157733
4 5.77839 0.00028801 0 -0.296717 0 0.000103657
5 2.23163 -0.000329971 -0.00036335 -0.146144 0 0
6 11.4725 0 0 -0.725102 -0.465511 0.661263
7 0.615219 -0.993092 -0.8107 2.36302 0.0866627 -0.357379
8 2.24752 0 0 0.0605673 0.267265 -0.222262
9 1.11936 0 0 0.0749174 0.0546635 -0.249677
10 3.71348 -0.102641 0.102191 1.77126 0.869992 0.142171
11 1.72615 0 0 0.013477 -0.00733089 -0.811382
12 1.21114 0 0 0.00873812 0.0151279 -0.772911
13 3.59919 -1.06012 0.0708878 1.87281 0.766148 0.187134
14 1.66069 0 0 -0.0195999 0.0443892 -0.726687
15 1.167 0 0 0.00841045 -0.00839376 -0.438997
16 2.18852 0.501039 0.0576594 1.57366 -0.0281251 0.156362
17 1.29609 0 0 0.0785581 0.0270526 -1.07235
18 1.62202 0.000715256 -0.000470638 0.0074029 -0.0221109 -0.784237
19 1.22241 0 0 0.000237484 0.00593041 -0.707337
20 1.76707 1.27612 0.036641 1.57458 0.205155 0.106808
21 1.55588 0 0 -0.0273743 0.0177045 -0.702263
22 1.24273 0 0 -0.000479242 0.000360487 -1.15419
23 0.784523 0 0 0.00636381 -0.00322816 -0.741041
24 -6.70653 7.12182 -4.00061 -0.000932693 0 -1.8749
25 6.02794 0 0 1.12494 0.630776 0.179191
26 11.7344 0 0 0.00140272 0 1.1224
27 8.81167 0 0 0.00902391 0 0
28 5.77884 0 0 0.00604607 0 0
29 2.23249 0 0 0.00297779 0 0
30 11.4725 0 0 0.139619 -0.49365 -0.27223
31 0.615812 0.994373 -0.809165 -2.83171 0.442997 0.480737
32 2.24752 0 0 -0.0453619 0.233136 0.363247
33 1.11936 0 0 -0.000328118 0.159957 0.657165
34 3.71349 0.102639 0.102191 -1.54675 0.834836 -0.400578
35 1.72615 0 0 -0.00689873 -0.00732661 1.09674
36 1.21112 0 0 0.0103137 0.0102 1.33017
37 3.5992 1.06012 0.0708885 -1.53662 0.394253 -0.182897
38 1.66069 0 0 0.00129287 0.0778541 0.239537
39 1.16699 0 0 0.0426518 0.021851 0.735105
40 2.18853 -0.501041 0.057659 -1.5728 0.133574 -0.17288
41 1.29609 0 0 0.120501 0.0520644 0.782583
42 1.62202 -0.000713348 -0.000469685 0.0811908 -0.0245018 1.19712
43 1.22241 0 0 -0.0119317 -0.00594713 1.29801
44 1.76707 -1.27612 0.0366405 -1.48212 0.284875 -0.100851
45 1.55588 0 0 0.223724 0.0868401 0.700865
46 1.24273 0 0 0.00047892 0.00036057 0.964696
47 0.784531 0 0 -0.00618631 0.000249593 0.884667
48 0 0 0 0 0 0
49 -6.05033 -21.5871 -5.37563 -0.0991782 -0.022956 -0.027086
50 0 -0.611116 2.11238 0 0 0
51 -0.0150843 -2.32476 2.83873 -0.126871 0.00396595 -0.00657002
52 -6.09504 -22.9163 -4.9969 -0.0991783 -0.0229559 -0.0270855
53 0 -0.675064 1.41593 0 0 0
54 0 0.979378 2.2232 0 0 0
55 0 -3.26826 2.85382 0 0 0
56 0 2.062 1.89702 -0.785398 0 0
57 0 -1.66928 2.70268 -0.0119933 0 0
58 6.98255 2.1009 -16.1176 0 0 0
time 8
0 6.78963 4.11825 -5.6679 0.000934124 0 -1.53243
1 6.02795 0 0 -1.0566 0.472248 -0.380454
2 11.7344 0 0 -0.00140276 0 -0.970643
3 8.81138 -0.000450134 -0.000111818 -0.446548 0 0.000157543
4 5.77839 0.000286102 0 -0.299187 0 0.000103748
5 2.23163 -0.000329971 -0.000363827 -0.147361 0 0
6 11.4725 0 0 -0.722655 -0.46601 0.652709
7 0.615217 -0.993091 -0.8107 2.36302 0.0866627 -0.357379
8 2.24752 0 0 0.0605673 0.267265 -0.222262
9 1.11936 0 0 0.0749173 0.0546634 -0.249677
10 3.71348 -0.102641 0.102191 1.77126 0.869992 0.142171
11 1.72615 0 0 0.013477 -0.0073309 -0.811383
12 1.21114 0 0 0.00873811 0.0151279 -0.772911
13 3.59919 -1.06012 0.0708878 1.87281 0.766148 0.187134
14 1.66069 0 0 -0.0195999 0.0443892 -0.726687
15 1.167 0 0 0.00841045 -0.00839377 -0.438998
16 2.18852 0.50104 0.0576589 1.57366 -0.0281252 0.156362
17 1.29609 0 0 0.0785581 0.0270526 -1.07235
18 1.62202 0.000713348 -0.000471592 0.00740289 -0.0221109 -0.784236
19 1.22241 0 0 0.000237477 0.00593044 -0.707337
20 1.76707 1.27612 0.0366408 1.57458 0.205155 0.106808
21 1.55588 0 0 -0.0273743 0.0177045 -0.702262
22 1.24274 0 0 -0.000479216 0.000360557 -1.15419
23 0.784524 0 0 0.0063638 -0.00322818 -0.741041
24 -6.70653 7.12182 -4.00061 -0.000932693 0 -1.8749
25 6.02794 0 0 1.13186 0.615196 0.187328
26 11.7344 0 0 0.00140263 0 1.08528
27 8.81167 0 0 0.0277381 0 0
28 5.77884 0 0 0.0185845 0 0
29 2.23249 0 0 0.00915364 0 0
30 11.4725 0 0 0.147093 -0.481925 -0.258849
31 0.615812 0.994373 -0.809166 -2.83171 0.442997 0.480737
32 2.24752 0 0 -0.0453619 0.233136 0.363247
33 1.11936 0 0 -0.000328148 0.159957 0.657165
34 3.71349 0.10264 0.10219 -1.54675 0.834836 -0.400578
35 1.72615 0 0 -0.00689874 -0.00732662 1.09674
36 1.21112 0 0 0.0103137 0.0102 1.33017
37 3.5992 1.06012 0.0708877 -1.53662 0.394253 -0.182897
38 1.66069 0 0 0.00129287 0.0778541 0.239537
39 1.16699 0 0 0.0426518 0.021851 0.735105
40 2.18853 -0.501041 0.0576582 -1.5728 0.133573 -0.17288
41 1.29609 0 0 0.120501 0.0520645 0.782583
42 1.62201 -0.000713348 -0.000470161 0.0811908 -0.0245018 1.19712
43 1.22241 0 0 -0.0119317 -0.00594712 1.29801
44 1.76707 -1.27612 0.0366398 -1.48212 0.284875 -0.100851
45 1.55587 0 0 0.223724 0.08684 0.700865
46 1.24273 0 0 0.00047892 0.000360567 0.964696
47 0.784532 0 0 -0.00618631 0.000249592 0.884667
48 0 0 0 0 0 0
49 -6.04119 -21.8143 -5.4406 -0.0914283 -0.0275436 -0.0183712
50 0 -0.611116 2.11238 0 0 0
51 -0.0145798 -2.76329 2.91209 0 0 0
52 -6.07582 -23.1467 -5.07223 -0.0914284 -0.0275434 -0.0183706
53 0 -0.675066 1.41593 0 0 0
54 0 0.979374 2.2232 0 0 0
55 0 -3.93659 2.85382 0 0 0
56 0 2.062 1.89702 -0.785398 0 0
57 0 -1.66928 2.73772 0 0 0
58 6.98255 2.1009 -16.1176 0 0 0
time 9
0 6.78963 4.11825 -5.6679 0.000934124 0 -1.53243
1 6.02795 0 0 -1.06233 0.461273 -0.384917
2 11.7344 0 0 -0.00140289 0 -0.93833
3 8.81138 -0.000449181 -0.000112772 -0.456273 0 0.000157931
4 5.77839 0.00028801 0 -0.305703 0 0.000103803
5 2.23164 -0.000328064 -0.000364304 -0.15057 0 0
6 11.4725 0 0 -0.71714 -0.470613 0.63016
7 0.615221 -0.993091 -0.8107 2.36302 0.0866627 -0.357379
8 2.24752 0 0 0.0605672 0.267265 -0.222262
9 1.11936 0 0 0.0749173 0.0546635 -0.249677
10 3.71348 -0.102642 0.102191 1.77126 0.869992 0.142171
11 1.72615 0 0 0.013477 -0.00733089 -0.811382
12 1.21114 0 0 0.00873813 0.0151279 -0.772911
13 3.59919 -1.06012 0.0708883 1.87281 0.766148 0.187134
14 1.66069 0 0 -0.0195999 0.0443892 -0.726687
15 1.167 0 0 0.00841045 -0.00839377 -0.438998
16 2.18853 0.501039 0.0576593 1.57366 -0.028125 0.156362
17 1.29609 0 0 0.0785581 0.0270526 -1.07235
18 1.62202 0.000713348 -0.000471115 0.0074029 -0.0221109 -0.784237
19 1.22241 0 0 0.000237484 0.00593041 -0.707337
20 1.76707 1.27612 0.0366414 1.57458 0.205155 0.106808
21 1.55588 0 0 -0.0273743 0.0177045 -0.702262
22 1.24274 0 0 -0.000479208 0.000360545 -1.15419
23 0.784524 0 0 0.00636383 -0.00322822 -0.741041
24 -6.70653 7.12182 -4.00061 -0.000932693 0 -1.8749
25 6.02794 0 0 1.13724 0.60097 0.194936
26 11.7344 0 0 0.0014027 0 1.04868
27 8.81167 0 0 0.045041 0 0
28 5.77884 0 0 0.0301776 0 0
29 2.23249 0 0 0.0148636 0 0
30 11.4725 0 0 0.148534 -0.476348 -0.23229
31 0.61581 0.994372 -0.809165 -2.83171 0.442997 0.480737
32 2.24752 0 0 -0.0453619 0.233136 0.363247
33 1.11935 0 0 -0.00032825 0.159957 0.657165
34 3.71349 0.102639 0.102191 -1.54675 0.834836 -0.400578
35 1.72615 0 0 -0.00689875 -0.00732659 1.09674
36 1.21112 0 0 0.0103137 0.0102 1.33017
37 3.5992 1.06012 0.070888 -1.53662 0.394253 -0.182897
38 1.66069 0 0 0.00129288 0.0778541 0.239537
39 1.16699 0 0 0.0426518 0.021851 0.735105
40 2.18853 -0.50104 0.0576587 -1.5728 0.133573 -0.17288
41 1.29609 0 0 0.120501 0.0520644 0.782584
42 1.62201 -0.000715256 -0.000469685 0.0811908 -0.0245018 1.19712
43 1.22241 0 0 -0.0119317 -0.00594712 1.29801
44 1.76707 -1.27612 0.0366399 -1.48212 0.284875 -0.100851
45 1.55588 0 0 0.223724 0.0868401 0.700864
46 1.24273 0 0 0.000478917 0.000360578 0.964696
47 0.784533 0 0 -0.00618631 0.00024958 0.884667
48 0 0 0 0 0 0
49 -6.03026 -22.0203 -5.49243 -0.0953482 -0.0291601 -0.0116468
50 0 -0.611116 2.11238 0 0 0
51 -0.0145798 -2.7459 2.91209 0 0 0
52 -6.05666 -23.3515 -5.11886 -0.0953484 -0.02916 -0.0116463
53 0 -0.675064 1.41593 0 0 0
54 0 0.979374 2.2232 0 0 0
55 0 -3.93659 2.85382 0 0 0
56 0 2.062 1.89702 -0.785398 0 0
57 0 -1.66928 2.73772 0 0 0
58 6.98255 2.1009 -16.1176 0 0 0
time 10
0 6.78963 4.11825 -5.6679 0.000934124 0 -1.53243
1 6.02795 0 0 -1.06738 0.451073 -0.389067
2 11.7344 0 0 -0.00140287 0 -0.906144
3 8.81138 -0.000450134 -0.000112534 -0.469261 0 0.000157712
4 5.77839 0.000287056 0 -0.314405 0 0.00010371
5 2.23163 -0.000329018 -0.000363827 -0.154856 0 0
6 11.4725 0 0 -0.710741 -0.476728 0.601132
7 0.615217 -0.993091 -0.8107 2.36302 0.0866629 -0.35738
8 2.24752 0 0 0.0605673 0.267265 -0.222262
9 1.11936 0 0 0.0749173 0.0546635 -0.249677
10 3.71348 -0.10264 0.102191 1.77126 0.869992 0.142171
11 1.72615 0 0 0.013477 -0.0073309 -0.811382
12 1.21114 0 0 0.00873811 0.0151279 -0.772911
13 3.59919 -1.06012 0.0708879 1.87281 0.766148 0.187134
14 1.66069 0 0 -0.0195999 0.0443892 -0.726687
15 1.167 0 0 0.00841045 -0.00839376 -0.438998
16 2.18853 0.50104 0.0576591 1.57366 -0.028125 0.156362
17 1.29609 0 0 0.0785582 0.0270527 -1.07235
18 1.62202 0.000713348 -0.000471115 0.0074029 -0.022111 -0.784237
19 1.22241 0 0 0.000237456 0.00593043 -0.707337
20 1.76707 1.27612 0.036641 1.57458 0.205155 0.106808
21 1.55588 0 0 -0.0273743 0.0177045 -0.702262
22 1.24273 0 0 -0.000479221 0.000360483 -1.15419
23 0.784524 0 0 0.00636378 -0.00322816 -0.741041
24 -6.70653 7.12182 -4.00061 -0.000932693 0 -1.8749
25 6.02794 0 0 1.14159 0.587451 0.202353
26 11.7344 0 0 0.00140271 0 1.01196
27 8.81167 0 0 0.0613177 0 0
28 5.77884 0 0 0.0410829 0 0
29 2.23249 0 0 0.0202348 0 0
30 11.4725 0 0 0.147051 -0.474185 -0.199637
31 0.615812 0.994372 -0.809166 -2.83171 0.442997 0.480737
32 2.24752 0 0 -0.0453621 0.233136 0.363247
33 1.11935 0 0 -0.000328136 0.159957 0.657165
34 3.71349 0.102639 0.10219 -1.54675 0.834836 -0.400578
35 1.72615 0 0 -0.0068987 -0.00732659 1.09674
36 1.21112 0 0 0.0103137 0.0102 1.33017
37 3.5992 1.06012 0.0708875 -1.53662 0.394253 -0.182897
38 1.6607 0 0 0.00129288 0.0778541 0.239537
39 1.16699 0 0 0.0426518 0.021851 0.735105
40 2.18853 -0.50104 0.057659 -1.5728 0.133573 -0.17288
41 1.29609 0 0 0.120501 0.0520644 0.782583
42 1.62202 -0.000711441 -0.000469685 0.0811908 -0.0245018 1.19712
43 1.22241 0 0 -0.0119317 -0.00594712 1.29801
44 1.76707 -1.27612 0.036641 -1.48212 0.284875 -0.100851
45 1.55588 0 0 0.223724 0.08684 0.700865
46 1.24273 0 0 0.000478918 0.000360571 0.964696
47 0.784532 0 0 -0.00618631 0.000249589 0.884667
48 0 0 0 0 0 0
49 -6.01751 -22.2108 -5.54579 -0.104377 -0.0290195 -0.00629405
50 0 -0.611115 2.11238 0 0 0
51 -0.0145802 -2.72851 2.91209 0 0 0
52 -6.03706 -23.5387 -5.16022 -0.104377 -0.0290193 -0.0062935
53 0 -0.675064 1.41593 0 0 0
54 0 0.979378 2.2232 0 0 0
55 0 -3.93659 2.85382 0 0 0
56 0 2.062 1.89702 -0.785398 0 0
57 0 -1.66928 2.73772 0 0 0
58 6.98255 2.1009 -16.1176 0 0 0
time 11
0 6.78963 4.11825 -5.6679 0.000934124 0 -1.53243
1 6.02795 0 0 -1.07179 0.441718 -0.392875
2 11.7344 0 0 -0.00140286 0 -0.874813
3 8.81139 -0.000450134 -0.000112295 -0.483031 0 0.000157834
4 5.77839 0.000287056 0 -0.323631 0 0.000103738
5 2.23164 -0.000329018 -0.000363827 -0.1594 0 0
6 11.4725 0 0 -0.705738 -0.481824 0.573191
7 0.615217 -0.993091 -0.8107 2.36302 0.0866627 -0.35738
8 2.24752 0 0 0.0605673 0.267265 -0.222262
9 1.11936 0 0 0.0749173 0.0546635 -0.249677
10 3.71348 -0.102641 0.102191 1.77126 0.869992 0.142171
11 1.72615 0 0 0.013477 -0.00733089 -0.811382
12 1.21114 0 0 0.0087381 0.0151279 -0.772911
13 3.59919 -1.06012 0.0708884 1.87281 0.766148 0.187134
14 1.66069 0 0 -0.0195999 0.0443892 -0.726687
15 1.167 0 0 0.00841045 -0.00839376 -0.438997
16 2.18853 0.50104 0.0576591 1.57366 -0.028125 0.156362
17 1.29609 0 0 0.0785582 0.0270526 -1.07235
18 1.62202 0.000711441 -0.000471115 0.0074029 -0.022111 -0.784236
19 1.22241 0 0 0.000237482 0.00593043 -0.707337
20 1.76707 1.27612 0.0366408 1.57458 0.205155 0.106808
21 1.55588 0 0 -0.0273743 0.0177044 -0.702262
22 1.24274 0 0 -0.000479229 0.000360549 -1.15419
23 0.784523 0 0 0.00636381 -0.00322816 -0.741041
24 -6.70653 7.12182 -4.00061 -0.000932693 0 -1.8749
25 6.02794 0 0 1.14516 0.574602 0.209534
26 11.7344 0 0 0.00140265 0 0.975829
27 8.81167 0 0 0.0763615 0 0
28 5.77884 0 0 0.0511622 0 0
29 2.23249 0 0 0.0251995 0 0
30 11.4725 0 0 0.145554 -0.472727 -0.168569
31 0.615814 0.994372 -0.809166 -2.83171 0.442997 0.480737
32 2.24752 0 0 -0.0453619 0.233136 0.363247
33 1.11935 0 0 -0.000328295 0.159957 0.657165
34 3.71349 0.102639 0.102191 -1.54675 0.834836 -0.400578
35 1.72615 0 0 -0.0068987 -0.0073266 1.09674
36 1.21112 0 0 0.0103137 0.0102 1.33017
37 3.5992 1.06012 0.0708881 -1.53662 0.394253 -0.182897
38 1.66069 0 0 0.00129288 0.0778541 0.239538
39 1.16699 0 0 0.0426518 0.0218511 0.735105
40 2.18853 -0.50104 0.0576586 -1.5728 0.133573 -0.17288
41 1.29609 0 0 0.120501 0.0520644 0.782583
42 1.62201 -0.000713348 -0.000469685 0.0811908 -0.0245018 1.19712
43 1.22241 0 0 -0.0119317 -0.00594711 1.29801
44 1.76707 -1.27612 0.0366408 -1.48212 0.284875 -0.100851
45 1.55587 0 0 0.223724 0.08684 0.700865
46 1.24273 0 0 0.000478924 0.000360561 0.964696
47 0.784532 0 0 -0.00618631 0.000249586 0.884667
48 0 0 0 0 0 0
49 -6.00281 -22.3918 -5.61528 -0.11196 -0.0283722 -0.00176266
50 0 -0.611116 2.11238 0 0 0
51 -0.0145798 -2.71112 2.91209 0 0 0
52 -6.01638 -23.7168 -5.21964 -0.11196 -0.028372 -0.00176211
53 0 -0.675064 1.41593 0 0 0
54 0 0.979376 2.2232 0 0 0
55 0 -3.93659 2.85382 0 0 0
56 0 2.062 1.89702 -0.785398 0 0
57 0 -1.66928 2.73772 0 0 0
58 6.98255 2.1009 -16.1176 0 0 0
time 12
0 6.78963 4.11825 -5.6679 0.000934124 0 -1.53243
1 6.02795 0 0 -1.07569 0.432948 -0.396504
2 11.7344 0 0 -0.00140287 0 -0.844287
3 8.81138 -0.000450134 -0.000112295 -0.495745 0 0.000157708
4 5.77839 0.000286102 0 -0.332149 0 0.000103726
5 2.23163 -0.000329971 -0.000364304 -0.163596 0 0
6 11.4725 0 0 -0.704515 -0.483439 0.553582
7 0.615221 -0.993091 -0.810701 2.36302 0.0866628 -0.357379
8 2.24752 0 0 0.0605672 0.267265 -0.222262
9 1.11936 0 0 0.0749173 0.0546634 -0.249677
10 3.71348 -0.10264 0.102191 1.77126 0.869992 0.142171
11 1.72615 0 0 0.013477 -0.00733089 -0.811382
12 1.21114 0 0 0.00873811 0.015128 -0.772911
13 3.59919 -1.06012 0.0708879 1.87281 0.766148 0.187135
14 1.66069 0 0 -0.0195999 0.0443892 -0.726687
15 1.167 0 0 0.00841045 -0.00839376 -0.438998
16 2.18853 0.50104 0.0576593 1.57366 -0.0281251 0.156362
17 1.29609 0 0 0.0785581 0.0270526 -1.07235
18 1.62202 0.000715256 -0.000470638 0.0074029 -0.022111 -0.784236
19 1.22241 0 0 0.000237492 0.00593043 -0.707337
20 1.76707 1.27612 0.036641 1.57458 0.205155 0.106808
21 1.55588 0 0 -0.0273743 0.0177045 -0.702262
22 1.24273 0 0 -0.000479233 0.000360528 -1.15419
23 0.784524 0 0 0.00636382 -0.0032282 -0.741041
24 -6.70653 7.12182 -4.00061 -0.000932693 0 -1.8749
25 6.02794 0 0 1.14828 0.56207 0.216591
26 11.7344 0 0 0.00140279 0 0.940249
27 8.81167 0 0 0.0899671 0 0
28 5.77884 0 0 0.0602779 0 0
29 2.23249 0 0 0.0296893 0 0
30 11.4725 0 0 0.146947 -0.46936 -0.146377
31 0.615812 0.994372 -0.809165 -2.83171 0.442997 0.480737
32 2.24752 0 0 -0.045362 0.233136 0.363247
33 1.11936 0 0 -0.000328038 0.159957 0.657165
34 3.71348 0.10264 0.102191 -1.54675 0.834836 -0.400578
35 1.72615 0 0 -0.00689872 -0.0073266 1.09674
36 1.21112 0 0 0.0103137 0.0102 1.33017
37 3.5992 1.06012 0.070888 -1.53662 0.394253 -0.182897
38 1.66069 0 0 0.00129288 0.0778541 0.239537
39 1.16699 0 0 0.0426518 0.021851 0.735105
40 2.18853 -0.50104 0.0576588 -1.5728 0.133573 -0.17288
41 1.29609 0 0 0.120501 0.0520644 0.782584
42 1.62202 -0.000715256 -0.000469685 0.0811908 -0.0245018 1.19712
43 1.22241 0 0 -0.0119317 -0.00594711 1.29801
44 1.76707 -1.27612 0.036641 -1.48212 0.284875 -0.100851
45 1.55587 0 0 0.223724 0.08684 0.700865
46 1.24273 0 0 0.000478924 0.000360571 0.964696
47 0.784532 0 0 -0.0061863 0.000249593 0.884667
48 0 0 0 0 0 0
49 -5.98618 -22.5696 -5.71526 -0.111554 -0.0285095 0.00247206
50 0 -0.611115 2.11238 0 0 0
51 -0.0145798 -2.69373 2.91209 0 0 0
52 -5.99417 -23.8948 -5.32016 -0.111554 -0.0285094 0.00247261
53 0 -0.675064 1.41593 0 0 0
54 0 0.979376 2.2232 0 0 0
55 0 -3.93659 2.85382 0 0 0
56 0 2.062 1.89702 -0.785398 0 0
57 0 -1.66928 2.73772 0 0 0
58 6.98255 2.1009 -16.1176 0 0 0
time 13
0 6.78963 4.11825 -5.6679 0.000934124 0 -1.53243
1 6.02795 0 0 -1.07913 0.424864 -0.399854
2 11.7344 0 0 -0.00140283 0 -0.815479
3 8.81138 -0.000449181 -0.000112295 -0.507382 0 0.000158032
4 5.77839 0.000287056 0 -0.339946 0 0.000103775
5 2.23163 -0.000329971 -0.000364304 -0.167436 0 0
6 11.4725 0 0 -0.707535 -0.481085 0.543501
7 0.615221 -0.993092 -0.8107 2.36302 0.0866627 -0.357379
8 2.24752 0 0 0.0605673 0.267265 -0.222262
9 1.11936 0 0 0.0749173 0.0546635 -0.249677
10 3.71348 -0.102641 0.102191 1.77126 0.869992 0.142171
11 1.72615 0 0 0.013477 -0.00733088 -0.811382
12 1.21114 0 0 0.00873811 0.0151279 -0.772911
13 3.59919 -1.06012 0.0708882 1.87281 0.766148 0.187134
14 1.66069 0 0 -0.0195999 0.0443892 -0.726687
15 1.167 0 0 0.00841046 -0.00839376 -0.438997
16 2.18852 0.50104 0.0576588 1.57366 -0.0281251 0.156362
17 1.29609 0 0 0.0785581 0.0270526 -1.07235
18 1.62202 0.000713348 -0.000470638 0.00740292 -0.0221109 -0.784236
19 1.22241 0 0 0.000237503 0.0059304 -0.707337
20 1.76707 1.27612 0.036641 1.57458 0.205155 0.106808
21 1.55588 0 0 -0.0273743 0.0177045 -0.702263
22 1.24273 0 0 -0.000479241 0.000360541 -1.15419
23 0.784525 0 0 0.00636384 -0.00322816 -0.741041
24 -6.70653 7.12182 -4.00061 -0.000932693 0 -1.8749
25 6.02794 0 0 1.15114 0.549801 0.223461
26 11.7344 0 0 0.00140273 0 0.905842
27 8.81167 0 0 0.101166 0 0
28 5.77884 0 0 0.0677812 0 0
29 2.23249 0 0 0.0333849 0 0
30 11.4725 0 0 0.15083 -0.463819 -0.134134
31 0.615812 0.994373 -0.809166 -2.83171 0.442997 0.480737
32 2.24752 0 0 -0.0453621 0.233136 0.363247
33 1.11936 0 0 -0.000328046 0.159957 0.657165
34 3.71349 0.102639 0.10219 -1.54675 0.834836 -0.400578
35 1.72615 0 0 -0.00689869 -0.00732661 1.09674
36 1.21112 0 0 0.0103137 0.0102 1.33017
37 3.5992 1.06012 0.0708885 -1.53662 0.394253 -0.182897
38 1.66069 0 0 0.00129286 0.0778541 0.239537
39 1.16699 0 0 0.0426518 0.021851 0.735105
40 2.18853 -0.50104 0.0576592 -1.5728 0.133573 -0.17288
41 1.29609 0 0 0.120501 0.0520644 0.782583
42 1.62202 -0.000713348 -0.000469685 0.0811908 -0.0245018 1.19712
43 1.22241 0 0 -0.0119317 -0.00594712 1.29801
44 1.76707 -1.27612 0.0366406 -1.48212 0.284875 -0.100851
45 1.55588 0 0 0.223724 0.08684 0.700865
46 1.24273 0 0 0.000478917 0.000360579 0.964696
47 0.784532 0 0 -0.00618631 0.000249585 0.884667
48 0 0 0 0 0 0
49 -5.96901 -22.7437 -5.83973 -0.102612 -0.029173 0.00617053
50 0 -0.611115 2.11238 0 0 0
51 -0.0145798 -2.67634 2.91209 0 0 0
52 -5.97199 -24.0724 -5.4565 -0.102612 -0.0291729 0.00617108
53 0 -0.675064 1.41593 0 0 0
54 0 0.979376 2.2232 0 0 0
55 0 -3.93659 2.85382 0 0 0
56 0 2.062 1.89702 -0.785398 0 0
57 0 -1.66928 2.73772 0 0 0
58 6.98255 2.1009 -16.1176 0 0 0
time 14
0 6.78963 4.11825 -5.6679 0.000934124 0 -1.53243
1 6.02795 0 0 -1.08232 0.41711 -0.403044
2 11.7344 0 0 -0.00140302 0 -0.788476
3 8.81139 -0.000449181 -0.000111818 -0.519035 0 0.000157982
4 5.77839 0.000286102 0 -0.347753 0 0.000103648
5 2.23163 -0.000329971 -0.000363827 -0.171281 0 0
6 11.4725 0 0 -0.713106 -0.476253 0.538289
7 0.615219 -0.993091 -0.8107 2.36302 0.0866628 -0.357379
8 2.24752 0 0 0.0605673 0.267265 -0.222262
9 1.11936 0 0 0.0749173 0.0546636 -0.249677
10 3.71348 -0.102641 0.102191 1.77126 0.869992 0.142171
11 1.72615 0 0 0.013477 -0.0073309 -0.811382
12 1.21114 0 0 0.00873811 0.015128 -0.772911
13 3.59919 -1.06012 0.0708883 1.87281 0.766148 0.187134
14 1.66069 0 0 -0.0195999 0.0443892 -0.726687
15 1.167 0 0 0.00841045 -0.00839377 -0.438998
16 2.18852 0.50104 0.057659 1.57366 -0.028125 0.156362
17 1.29609 0 0 0.0785582 0.0270526 -1.07235
18 1.62202 0.000713348 -0.000471592 0.00740289 -0.0221109 -0.784236
19 1.22241 0 0 0.000237471 0.00593042 -0.707337
20 1.76707 1.27612 0.0366409 1.57458 0.205155 0.106808
21 1.55588 0 0 -0.0273742 0.0177045 -0.702262
22 1.24273 0 0 -0.000479212 0.000360524 -1.15419
23 0.784525 0 0 0.00636383 -0.00322819 -0.741041
24 -6.70653 7.12182 -4.00061 -0.000932693 0 -1.8749
25 6.02794 0 0 1.15385 0.537938 0.229981
26 11.7344 0 0 0.00140279 0 0.873641
27 8.81167 0 0 0.109229 0 0
28 5.77884 0 0 0.0731834 0 0
29 2.23249 0 0 0.0360455 0 0
30 11.4725 0 0 0.154623 -0.457618 -0.127581
31 0.615814 0.994373 -0.809165 -2.83171 0.442997 0.480737
32 2.24752 0 0 -0.045362 0.233136 0.363247
33 1.11936 0 0 -0.000327986 0.159957 0.657165
34 3.71349 0.102639 0.102191 -1.54675 0.834836 -0.400578
35 1.72615 0 0 -0.00689871 -0.00732661 1.09674
36 1.21112 0 0 0.0103137 0.0102 1.33017
37 3.5992 1.06012 0.070889 -1.53662 0.394253 -0.182897
38 1.66069 0 0 0.00129288 0.0778541 0.239537
39 1.16699 0 0 0.0426518 0.021851 0.735105
40 2.18853 -0.501041 0.057659 -1.5728 0.133573 -0.17288
41 1.29609 0 0 0.120501 0.0520644 0.782583
42 1.62202 -0.000715256 -0.000469208 0.0811908 -0.0245018 1.19712
43 1.22241 0 0 -0.0119317 -0.0059471 1.29801
44 1.76707 -1.27612 0.0366406 -1.48212 0.284875 -0.100851
45 1.55587 0 0 0.223724 0.0868401 0.700865
46 1.24273 0 0 0.000478921 0.00036057 0.964696
47 0.784532 0 0 -0.0061863 0.000249606 0.884667
48 0 0 0 0 0 0
49 -5.95313 -22.9071 -5.96501 -0.0897621 -0.0292412 0.00884421
50 0 -0.611113 2.11238 0 0 0
51 -0.0145793 -2.65895 2.91209 0 0 0
52 -5.95204 -24.2406 -5.59888 -0.0897622 -0.0292411 0.00884476
53 0 -0.675064 1.41593 0 0 0
54 0 0.979376 2.2232 0 0 0
55 0 -3.93659 2.85382 0 0 0
56 0 2.062 1.89702 -0.785398 0 0
57 0 -1.66928 2.73772 0 0 0
58 6.98255 2.1009 -16.1176 0 0 0
time 15
0 6.78963 4.11825 -5.6679 0.000934124 0 -1.53243
1 6.02795 0 0 -1.08548 0.409228 -0.406261
2 11.7344 0 0 -0.00140271 0 -0.763087
3 8.81139 -0.000448227 -0.000112295 -0.530347 0 0.00015799
4 5.77839 0.000286102 0 -0.355332 0 0.000103525
5 2.23163 -0.000329018 -0.000364304 -0.175014 0 0
6 11.4725 0 0 -0.720406 -0.469463 0.536964
7 0.615219 -0.993091 -0.8107 2.36302 0.086663 -0.357379
8 2.24752 0 0 0.0605673 0.267265 -0.222262
9 1.11935 0 0 0.0749174 0.0546635 -0.249677
10 3.71348 -0.10264 0.102191 1.77126 0.869992 0.142172
11 1.72615 0 0 0.013477 -0.0073309 -0.811382
12 1.21114 0 0 0.00873809 0.015128 -0.772911
13 3.59919 -1.06012 0.0708879 1.87281 0.766148 0.187135
14 1.66069 0 0 -0.0195999 0.0443892 -0.726687
15 1.167 0 0 0.00841045 -0.00839376 -0.438997
16 2.18852 0.50104 0.0576595 1.57366 -0.0281249 0.156362
17 1.29609 0 0 0.0785581 0.0270526 -1.07235
18 1.62202 0.000713348 -0.000471115 0.00740289 -0.0221109 -0.784237
19 1.22241 0 0 0.00023748 0.00593041 -0.707337
20 1.76707 1.27612 0.0366409 1.57458 0.205155 0.106808
21 1.55588 0 0 -0.0273743 0.0177045 -0.702262
22 1.24273 0 0 -0.000479196 0.000360499 -1.15419
23 0.784525 0 0 0.00636381 -0.00322818 -0.741041
24 -6.70653 7.12182 -4.00061 -0.000932693 0 -1.8749
25 6.02794 0 0 1.15664 0.526187 0.236197
26 11.7344 0 0 0.00140262 0 0.843678
27 8.81167 0 0 0.114353 0 0
28 5.77884 0 0 0.0766162 0 0
29 2.23249 0 0 0.0377364 0 0
30 11.4725 0 0 0.157927 -0.450816 -0.12568
31 0.615814 0.994372 -0.809166 -2.83171 0.442997 0.480737
32 2.24752 0 0 -0.0453619 0.233136 0.363247
33 1.11936 0 0 -0.000328031 0.159957 0.657165
34 3.71349 0.102639 0.102191 -1.54675 0.834836 -0.400578
35 1.72615 0 0 -0.00689872 -0.0073266 1.09674
36 1.21112 0 0 0.0103137 0.0102 1.33017
37 3.5992 1.06012 0.0708883 -1.53662 0.394253 -0.182897
38 1.66069 0 0 0.00129288 0.0778541 0.239537
39 1.16699 0 0 0.0426518 0.021851 0.735105
40 2.18853 -0.50104 0.0576588 -1.5728 0.133573 -0.17288
41 1.29609 0 0 0.120501 0.0520644 0.782584
42 1.62202 -0.000717163 -0.000469685 0.0811908 -0.0245018 1.19712
43 1.22241 0 0 -0.0119317 -0.00594712 1.29801
44 1.76707 -1.27612 0.0366409 -1.48212 0.284875 -0.100851
45 1.55587 0 0 0.223724 0.0868401 0.700865
46 1.24273 0 0 0.000478918 0.000360574 0.964696
47 0.784532 0 0 -0.0061863 0.000249586 0.884667
48 0 0 0 0 0 0
49 -5.93922 -23.0566 -6.07895 -0.0742298 -0.0287078 0.0106611
50 0 -0.611115 2.11238 0 0 0
51 -0.0145802 -2.64156 2.91209 0 0 0
52 -5.93486 -24.3956 -5.73356 -0.0742299 -0.0287077 0.0106616
53 0 -0.675064 1.41593 0 0 0
54 0 0.979376 2.2232 0 0 0
55 0 -3.93659 2.85382 0 0 0
56 0 2.062 1.89702 -0.785398 0 0
57 0 -1.66928 2.73772 0 0 0
58 6.98255 2.1009 -16.1176 0 0 0
time 16
0 6.78963 4.11825 -5.6679 0.000934124 0 -1.53243
1 6.02795 0 0 -1.08862 0.401443 -0.409286
2 11.7344 0 0 -0.00140278 0 -0.740681
3 8.81138 -0.000448227 -0.000112295 -0.540399 0 0.00015779
4 5.77839 0.000286102 0 -0.362067 0 0.000103491
5 2.23163 -0.000329018 -0.000363827 -0.178332 0 0
6 11.4725 0 0 -0.728612 -0.461254 0.539345
7 0.615219 -0.993091 -0.8107 2.36302 0.0866628 -0.357379
8 2.24752 0 0 0.0605672 0.267265 -0.222262
9 1.11936 0 0 0.0749174 0.0546635 -0.249677
10 3.71348 -0.102641 0.102191 1.77126 0.869992 0.142171
11 1.72615 0 0 0.013477 -0.00733089 -0.811382
12 1.21114 0 0 0.0087381 0.015128 -0.772911
13 3.59919 -1.06012 0.0708878 1.87281 0.766148 0.187135
14 1.66069 0 0 -0.0195999 0.0443892 -0.726687
15 1.167 0 0 0.00841045 -0.00839376 -0.438998
16 2.18852 0.50104 0.0576593 1.57366 -0.0281251 0.156362
17 1.29609 0 0 0.0785581 0.0270526 -1.07235
18 1.62202 0.000715256 -0.000470638 0.00740291 -0.022111 -0.784236
19 1.22241 0 0 0.000237472 0.00593041 -0.707338
20 1.76707 1.27612 0.0366409 1.57458 0.205155 0.106808
21 1.55588 0 0 -0.0273743 0.0177045 -0.702263
22 1.24273 0 0 -0.0004792 0.000360532 -1.15419
23 0.784522 0 0 0.0063638 -0.00322818 -0.741041
24 -6.70653 7.12182 -4.00061 -0.000932693 0 -1.8749
25 6.02794 0 0 1.15956 0.514977 0.241775
26 11.7344 0 0 0.0014026 0 0.817591
27 8.81167 0 0 0.116345 0 0
28 5.77884 0 0 0.0779514 0 0
29 2.23249 0 0 0.0383939 0 0
30 11.4725 0 0 0.16038 -0.443514 -0.128223
31 0.615812 0.994371 -0.809166 -2.83171 0.442997 0.480737
32 2.24752 0 0 -0.045362 0.233135 0.363247
33 1.11935 0 0 -0.000328121 0.159957 0.657165
34 3.71349 0.102639 0.10219 -1.54675 0.834836 -0.400578
35 1.72615 0 0 -0.00689872 -0.00732662 1.09674
36 1.21112 0 0 0.0103137 0.0102 1.33017
37 3.5992 1.06012 0.070888 -1.53662 0.394253 -0.182897
38 1.66069 0 0 0.00129288 0.0778541 0.239537
39 1.16699 0 0 0.0426518 0.0218511 0.735105
40 2.18853 -0.50104 0.057659 -1.5728 0.133574 -0.17288
41 1.29609 0 0 0.120501 0.0520645 0.782584
42 1.62202 -0.000713348 -0.000470161 0.0811908 -0.0245018 1.19712
43 1.22241 0 0 -0.0119317 -0.0059471 1.29801
44 1.76707 -1.27612 0.0366403 -1.48212 0.284875 -0.100851
45 1.55588 0 0 0.223724 0.08684 0.700865
46 1.24273 0 0 0.000478911 0.000360578 0.964696
47 0.784532 0 0 -0.0061863 0.000249574 0.884667
48 0 0 0 0 0 0
49 -5.92802 -23.1893 -6.16928 -0.0572431 -0.027583 0.0117821
50 0 -0.611116 2.11238 0 0 0
51 -0.0145798 -2.62418 2.91209 0 0 0
52 -5.92108 -24.534 -5.84667 -0.0572432 -0.0275828 0.0117826
53 0 -0.675062 1.41593 0 0 0
54 0 0.979376 2.2232 0 0 0
55 0 -3.93659 2.85382 0 0 0
56 0 2.062 1.89703 -0.785398 0 0
57 0 -1.66928 2.73772 0 0 0
58 6.98255 2.1009 -16.1176 0 0 0
time 17
0 6.78963 4.11825 -5.6679 0.000934124 0 -1.53243
1 6.02795 0 0 -1.09189 0.393673 -0.412064
2 11.7344 0 0 -0.00140288 0 -0.721125
3 8.81138 -0.000450134 -0.000113249 -0.549056 0 0.000157845
4 5.77839 0.000286102 0 -0.367867 0 0.000103365
5 2.23164 -0.000329018 -0.000364304 -0.181188 0 0
6 11.4725 0 0 -0.736893 -0.452154 0.544096
7 0.615221 -0.993092 -0.8107 2.36302 0.0866627 -0.357379
8 2.24752 0 0 0.0605673 0.267265 -0.222262
9 1.11936 0 0 0.0749173 0.0546635 -0.249677
10 3.71348 -0.102641 0.102191 1.77126 0.869992 0.142171
11 1.72615 0 0 0.013477 -0.00733089 -0.811382
12 1.21114 0 0 0.00873811 0.0151279 -0.772911
13 3.59919 -1.06012 0.0708883 1.87281 0.766148 0.187134
14 1.66069 0 0 -0.0195999 0.0443892 -0.726687
15 1.167 0 0 0.00841045 -0.00839376 -0.438997
16 2.18853 0.50104 0.0576595 1.57366 -0.0281251 0.156362
17 1.29609 0 0 0.0785581 0.0270527 -1.07235
18 1.62202 0.000713348 -0.000470638 0.00740287 -0.0221109 -0.784236
19 1.22241 0 0 0.000237484 0.00593044 -0.707337
20 1.76707 1.27612 0.0366412 1.57458 0.205155 0.106808
21 1.55588 0 0 -0.0273743 0.0177045 -0.702263
22 1.24273 0 0 -0.0004792 0.000360532 -1.15419
23 0.784523 0 0 0.00636387 -0.00322819 -0.741041
24 -6.70653 7.12182 -4.00061 -0.000932693 0 -1.8749
25 6.02794 0 0 1.16258 0.504189 0.246818
26 11.7344 0 0 0.00140264 0 0.795134
27 8.81167 0 0 0.115752 0 0
28 5.77884 0 0 0.0775541 0 0
29 2.23249 0 0 0.0381984 0 0
30 11.4725 0 0 0.161809 -0.436142 -0.133869
31 0.615814 0.994372 -0.809166 -2.83171 0.442997 0.480737
32 2.24752 0 0 -0.045362 0.233136 0.363247
33 1.11936 0 0 -0.000327944 0.159957 0.657165
34 3.71349 0.102639 0.102191 -1.54675 0.834836 -0.400578
35 1.72615 0 0 -0.00689872 -0.00732658 1.09674
36 1.21112 0 0 0.0103137 0.0102 1.33017
37 3.5992 1.06012 0.0708885 -1.53662 0.394253 -0.182897
38 1.66069 0 0 0.00129286 0.0778541 0.239537
39 1.16699 0 0 0.0426518 0.021851 0.735105
40 2.18853 -0.50104 0.0576596 -1.5728 0.133573 -0.17288
41 1.29609 0 0 0.120501 0.0520645 0.782584
42 1.62202 -0.000713348 -0.000470161 0.0811908 -0.0245018 1.19712
43 1.22241 0 0 -0.0119317 -0.0059471 1.29801
44 1.76707 -1.27612 0.0366403 -1.48212 0.284875 -0.100851
45 1.55588 0 0 0.223724 0.0868401 0.700864
46 1.24273 0 0 0.000478927 0.000360569 0.964696
47 0.784531 0 0 -0.00618632 0.000249585 0.884667
48 0 0 0 0 0 0
49 -5.9177 -23.3059 -6.23146 -0.0400334 -0.0258994 0.0123358
50 0 -0.611115 2.11238 0 0 0
51 -0.0145798 -2.60678 2.91209 0 0 0
52 -5.9088 -24.6559 -5.93202 -0.0400335 -0.0258993 0.0123364
53 0 -0.675064 1.41593 0 0 0
54 0 0.97938 2.2232 0 0 0
55 0 -3.93659 2.85382 0 0 0
56 0 2.062 1.89702 -0.785398 0 0
57 0 -1.66928 2.73772 0 0 0
58 6.98255 2.1009 -16.1176 0 0 0
time 18
0 6.78963 4.11825 -5.6679 0.000934124 0 -1.53243
1 6.02795 0 0 -1.09512 0.386322 -0.414419
2 11.7344 0 0 -0.00140283 0 -0.704569
3 8.81138 -0.000449181 -0.00011158 -0.556462 0 0.000157923
4 5.77839 0.000287056 0 -0.37283 0 0.000103609
5 2.23164 -0.000329018 -0.000362873 -0.183632 0 0
6 11.4725 0 0 -0.744647 -0.442872 0.549796
7 0.615219 -0.993091 -0.8107 2.36302 0.0866628 -0.35738
8 2.24752 0 0 0.0605672 0.267265 -0.222262
9 1.11936 0 0 0.0749174 0.0546635 -0.249677
10 3.71348 -0.102641 0.102191 1.77126 0.869992 0.142171
11 1.72615 0 0 0.013477 -0.0073309 -0.811382
12 1.21114 0 0 0.00873811 0.015128 -0.772911
13 3.59919 -1.06012 0.0708879 1.87281 0.766148 0.187134
14 1.66069 0 0 -0.0195999 0.0443892 -0.726687
15 1.167 0 0 0.00841045 -0.00839377 -0.438997
16 2.18853 0.50104 0.0576594 1.57366 -0.0281252 0.156362
17 1.29609 0 0 0.0785582 0.0270526 -1.07235
18 1.62202 0.000713348 -0.000470638 0.00740288 -0.022111 -0.784237
19 1.22241 0 0 0.000237476 0.00593044 -0.707337
20 1.76707 1.27612 0.036641 1.57458 0.205155 0.106807
21 1.55587 0 0 -0.0273743 0.0177045 -0.702263
22 1.24273 0 0 -0.000479261 0.000360599 -1.15419
23 0.784524 0 0 0.00636387 -0.00322822 -0.741041
24 -6.70653 7.12182 -4.00061 -0.000932693 0 -1.8749
25 6.02794 0 0 1.16553 0.493882 0.251435
26 11.7344 0 0 0.00140283 0 0.775612
27 8.81167 0 0 0.113474 0 0
28 5.77884 0 0 0.0760276 0 0
29 2.23249 0 0 0.0374464 0 0
30 11.4725 0 0 0.162193 -0.429322 -0.140733
31 0.615816 0.994371 -0.809166 -2.83171 0.442997 0.480737
32 2.24752 0 0 -0.0453619 0.233136 0.363247
33 1.11936 0 0 -0.000328148 0.159957 0.657165
34 3.71348 0.102639 0.102191 -1.54675 0.834836 -0.400578
35 1.72615 0 0 -0.0068987 -0.00732657 1.09674
36 1.21112 0 0 0.0103137 0.0102 1.33017
37 3.5992 1.06012 0.0708878 -1.53662 0.394253 -0.182897
38 1.66069 0 0 0.00129288 0.0778541 0.239537
39 1.16699 0 0 0.0426518 0.021851 0.735105
40 2.18853 -0.501041 0.0576594 -1.5728 0.133573 -0.17288
41 1.29609 0 0 0.120501 0.0520644 0.782584
42 1.62202 -0.000713348 -0.000469685 0.0811908 -0.0245018 1.19712
43 1.22241 0 0 -0.0119317 -0.0059471 1.29801
44 1.76707 -1.27612 0.0366405 -1.48212 0.284875 -0.100851
45 1.55587 0 0 0.223724 0.0868401 0.700865
46 1.24273 0 0 0.000478921 0.000360576 0.964696
47 0.784533 0 0 -0.00618631 0.00024959 0.884667
48 0 0 0 0 0 0
49 -5.90695 -23.4068 -6.26961 -0.0238368 -0.0237186 0.0124198
50 0 -0.611115 2.11238 0 0 0
51 -0.0145793 -2.5894 2.91209 0 0 0
52 -5.89671 -24.7615 -5.99204 -0.0238369 -0.0237185 0.0124204
53 0 -0.675064 1.41593 0 0 0
54 0 0.979378 2.2232 0 0 0
55 0 -3.93659 2.85382 0 0 0
56 0 2.062 1.89702 -0.785398 0 0
57 0 -1.66928 2.73772 0 0 0
58 6.98255 2.1009 -16.1176 0 0 0
time 19
0 6.78963 4.11825 -5.6679 0.000934124 0 -1.53243
1 6.02795 0 0 -1.0982 0.379429 -0.416486
2 11.7344 0 0 -0.00140286 0 -0.690702
3 8.81139 -0.000450134 -0.000112295 -0.562848 0 0.00015718
4 5.77839 0.000287056 0 -0.377108 0 0.000103028
5 2.23163 -0.000329018 -0.000364304 -0.18574 0 0
6 11.4725 0 0 -0.751424 -0.434207 0.555096
7 0.615219 -0.993091 -0.810701 2.36302 0.0866627 -0.35738
8 2.24752 0 0 0.0605672 0.267265 -0.222262
9 1.11936 0 0 0.0749173 0.0546635 -0.249677
10 3.71348 -0.102641 0.102191 1.77126 0.869992 0.142171
11 1.72615 0 0 0.013477 -0.00733089 -0.811382
12 1.21114 0 0 0.00873811 0.0151279 -0.772911
13 3.59919 -1.06012 0.070888 1.87281 0.766148 0.187134
14 1.66069 0 0 -0.0195999 0.0443892 -0.726687
15 1.167 0 0 0.00841045 -0.00839376 -0.438998
16 2.18853 0.50104 0.057659 1.57366 -0.0281252 0.156362
17 1.29609 0 0 0.0785582 0.0270527 -1.07235
18 1.62202 0.000711441 -0.000472069 0.0074029 -0.022111 -0.784236
19 1.22241 0 0 0.000237482 0.00593043 -0.707337
20 1.76707 1.27612 0.036641 1.57458 0.205155 0.106808
21 1.55587 0 0 -0.0273743 0.0177045 -0.702262
22 1.24273 0 0 -0.000479237 0.000360508 -1.15419
23 0.784525 0 0 0.00636383 -0.0032282 -0.741041
24 -6.70653 7.12182 -4.00061 -0.000932693 0 -1.8749
25 6.02794 0 0 1.16824 0.484758 0.255316
26 11.7344 0 0 0.00140275 0 0.760008
27 8.81167 0 0 0.109856 0 0
28 5.77884 0 0 0.0736035 0 0
29 2.23249 0 0 0.0362526 0 0
30 11.4725 0 0 0.161462 -0.42351 -0.147859
31 0.615812 0.994371 -0.809165 -2.83171 0.442997 0.480737
32 2.24752 0 0 -0.0453618 0.233136 0.363247
33 1.11936 0 0 -0.000328159 0.159957 0.657165
34 3.71349 0.102639 0.102191 -1.54675 0.834836 -0.400578
35 1.72615 0 0 -0.00689872 -0.0073266 1.09674
36 1.21112 0 0 0.0103137 0.0102001 1.33017
37 3.5992 1.06012 0.070888 -1.53662 0.394253 -0.182897
38 1.66069 0 0 0.00129289 0.0778541 0.239537
39 1.16699 0 0 0.0426518 0.021851 0.735105
40 2.18853 -0.501041 0.0576588 -1.5728 0.133573 -0.17288
41 1.29609 0 0 0.120501 0.0520644 0.782583
42 1.62202 -0.000713348 -0.000470638 0.0811908 -0.0245018 1.19712
43 1.2224 0 0 -0.0119318 -0.00594711 1.29801
44 1.76707 -1.27612 0.0366409 -1.48212 0.284875 -0.100851
45 1.55588 0 0 0.223724 0.0868401 0.700865
46 1.24273 0 0 0.000478887 0.000360582 0.964696
47 0.784534 0 0 -0.0061863 0.000249566 0.884667
48 0 0 0 0 0 0
49 -5.8975 -23.4891 -6.28435 -0.00989079 -0.0211257 0.012088
50 0 -0.611116 2.11238 0 0 0
51 -0.0145798 -2.57201 2.91209 0 0 0
52 -5.88654 -24.8475 -6.02568 -0.00989089 -0.0211256 0.0120886
53 0 -0.675064 1.41593 0 0 0
54 0 0.979378 2.2232 0 0 0
55 0 -3.93659 2.85382 0 0 0
56 0 2.062 1.89702 -0.785398 0 0
57 0 -1.66928 2.73772 0 0 0
58 6.98255 2.1009 -16.1176 0 0 0
time 20
0 6.78963 4.11825 -5.6679 0.000934124 0 -1.53243
1 6.02795 0 0 -1.10088 0.373573 -0.4181
2 11.7344 0 0 -0.00140282 0 -0.680461
3 8.81138 -0.000450134 -0.000112772 -0.568017 0 0.000157525
4 5.77839 0.000286102 0 -0.380571 0 0.000103163
5 2.23163 -0.000329971 -0.000364542 -0.187446 0 0
6 11.4725 0 0 -0.756802 -0.42694 0.559294
7 0.615219 -0.993091 -0.8107 2.36302 0.0866629 -0.357379
8 2.24752 0 0 0.0605672 0.267265 -0.222262
9 1.11936 0 0 0.0749174 0.0546635 -0.249677
10 3.71348 -0.102641 0.102191 1.77126 0.869992 0.142171
11 1.72615 0 0 0.013477 -0.0073309 -0.811382
12 1.21114 0 0 0.0087381 0.0151279 -0.772911
13 3.59919 -1.06012 0.070888 1.87281 0.766148 0.187135
14 1.66069 0 0 -0.0195999 0.0443892 -0.726687
15 1.167 0 0 0.00841045 -0.00839377 -0.438998
16 2.18853 0.50104 0.057659 1.57366 -0.0281251 0.156362
17 1.29609 0 0 0.0785581 0.0270526 -1.07235
18 1.62202 0.000713348 -0.000471592 0.0074029 -0.0221109 -0.784236
19 1.22241 0 0 0.000237479 0.00593046 -0.707337
20 1.76707 1.27612 0.0366405 1.57458 0.205155 0.106808
21 1.55588 0 0 -0.0273743 0.0177044 -0.702262
22 1.24273 0 0 -0.000479225 0.000360516 -1.15419
23 0.784522 0 0 0.00636381 -0.00322814 -0.741041
24 -6.70653 7.12182 -4.00061 -0.000932693 0 -1.8749
25 6.02794 0 0 1.1706 0.477294 0.258273
26 11.7344 0 0 0.00140262 0 0.74882
27 8.81167 0 0 0.105343 0 0
28 5.77884 0 0 0.07058 0 0
29 2.23249 0 0 0.0347632 0 0
30 11.4725 0 0 0.159582 -0.419185 -0.154067
31 0.615812 0.994372 -0.809165 -2.83171 0.442997 0.480737
32 2.24752 0 0 -0.0453619 0.233135 0.363247
33 1.11936 0 0 -0.000327831 0.159957 0.657165
34 3.71349 0.102639 0.10219 -1.54675 0.834836 -0.400578
35 1.72615 0 0 -0.00689867 -0.00732662 1.09674
36 1.21112 0 0 0.0103137 0.0102 1.33017
37 3.5992 1.06012 0.0708876 -1.53662 0.394253 -0.182897
38 1.66069 0 0 0.00129286 0.0778541 0.239537
39 1.16699 0 0 0.0426518 0.021851 0.735105
40 2.18853 -0.50104 0.057659 -1.5728 0.133573 -0.17288
41 1.29609 0 0 0.120501 0.0520645 0.782583
42 1.62202 -0.000713348 -0.000470161 0.0811907 -0.0245018 1.19712
43 1.22241 0 0 -0.0119317 -0.00594711 1.29801
44 1.76707 -1.27612 0.0366401 -1.48212 0.284875 -0.100851
45 1.55588 0 0 0.223724 0.08684 0.700865
46 1.24273 0 0 0.000478899 0.000360579 0.964696
47 0.784532 0 0 -0.0061863 0.000249573 0.884667
48 0 0 0 0 0 0
49 -5.89115 -23.55 -6.27627 0.000565541 -0.0182247 0.0113565
50 0 -0.611115 2.11238 0 0 0
51 -0.0145798 -2.55462 2.91209 0 0 0
52 -5.88015 -24.9111 -6.0318 0.000565443 -0.0182247 0.0113571
53 0 -0.675066 1.41593 0 0 0
54 0 0.979376 2.2232 0 0 0
55 0 -3.93659 2.85382 0 0 0
56 0 2.062 1.89702 -0.785398 0 0
57 0 -1.66928 2.73772 0 0 0
58 6.98255 2.1009 -16.1176 0 0 0
time 21
0 6.78963 4.11825 -5.6679 0.000934124 0 -1.53243
1 6.02795 0 0 -1.10283 0.369537 -0.419056
2 11.7344 0 0 -0.00140288 0 -0.675221
3 8.81138 -0.000450134 -0.000112534 -0.571679 0 0.000158108
4 5.77839 0.000286102 0 -0.383025 0 0.000103579
5 2.23163 -0.000329971 -0.000364304 -0.188654 0 0
6 11.4725 0 0 -0.760455 -0.421899 0.561963
7 0.615219 -0.993092 -0.8107 2.36302 0.086663 -0.357379
8 2.24752 0 0 0.0605674 0.267265 -0.222262
9 1.11936 0 0 0.0749173 0.0546636 -0.249677
10 3.71348 -0.102641 0.102191 1.77126 0.869992 0.142172
11 1.72615 0 0 0.013477 -0.00733088 -0.811382
12 1.21114 0 0 0.00873811 0.0151279 -0.772911
13 3.59919 -1.06012 0.0708883 1.87281 0.766148 0.187135
14 1.66069 0 0 -0.0195999 0.0443892 -0.726687
15 1.167 0 0 0.00841045 -0.00839377 -0.438997
16 2.18852 0.50104 0.0576593 1.57366 -0.028125 0.156362
17 1.29609 0 0 0.0785581 0.0270526 -1.07235
18 1.62202 0.000711441 -0.000471115 0.00740292 -0.0221109 -0.784237
19 1.22241 0 0 0.000237496 0.00593043 -0.707337
20 1.76707 1.27612 0.0366406 1.57458 0.205155 0.106808
21 1.55588 0 0 -0.0273742 0.0177045 -0.702262
22 1.24273 0 0 -0.000479266 0.000360525 -1.15419
23 0.784523 0 0 0.00636385 -0.00322816 -0.741041
24 -6.70653 7.12182 -4.00061 -0.000932693 0 -1.8749
25 6.02794 0 0 1.17233 0.472579 0.259898
26 11.7344 0 0 0.00140276 0 0.743854
27 8.81167 0 0 0.100093 0 0
28 5.77884 0 0 0.067062 0 0
29 2.23249 0 0 0.0330305 0 0
30 11.4725 0 0 0.15659 -0.416921 -0.158874
31 0.615814 0.994372 -0.809166 -2.83171 0.442997 0.480737
32 2.24752 0 0 -0.045362 0.233136 0.363247
33 1.11935 0 0 -0.000328065 0.159957 0.657165
34 3.71349 0.10264 0.102191 -1.54675 0.834836 -0.400578
35 1.72615 0 0 -0.00689869 -0.00732658 1.09674
36 1.21112 0 0 0.0103137 0.0102 1.33017
37 3.5992 1.06012 0.0708885 -1.53662 0.394253 -0.182897
38 1.66069 0 0 0.00129288 0.0778541 0.239537
39 1.16699 0 0 0.0426518 0.021851 0.735105
40 2.18854 -0.50104 0.0576589 -1.5728 0.133573 -0.17288
41 1.29609 0 0 0.120501 0.0520645 0.782584
42 1.62202 -0.000713348 -0.000469685 0.0811908 -0.0245018 1.19712
43 1.22241 0 0 -0.0119317 -0.00594713 1.29801
44 1.76707 -1.27612 0.0366405 -1.48212 0.284875 -0.100851
45 1.55587 0 0 0.223724 0.0868401 0.700865
46 1.24273 0 0 0.000478914 0.000360559 0.964696
47 0.784533 0 0 -0.0061863 0.000249582 0.884667
48 0 0 0 0 0 0
49 -5.88843 -23.5818 -6.24593 0.00629418 -0.0151276 0.0102148
50 0 -0.611115 2.11238 0 0 0
51 -0.0145802 -2.53723 2.91209 0 0 0
52 -5.87809 -24.9442 -6.00925 0.00629409 -0.0151275 0.0102154
53 0 -0.675066 1.41593 0 0 0
54 0 0.979376 2.2232 0 0 0
55 0 -3.93659 2.85382 0 0 0
56 0 2.062 1.89702 -0.785398 0 0
57 0 -1.66928 2.73772 0 0 0
58 6.98255 2.1009 -16.1176 0 0 0
time 22
0 6.78963 4.11825 -5.6679 0.000934124 0 -1.53243
1 6.02795 0 0 -1.10403 0.367378 -0.419386
2 11.7344 0 0 -0.00140302 0 -0.674507
3 8.81138 -0.000449181 -0.000113487 -0.574911 0 0.000157553
4 5.77839 0.000286102 0 -0.385191 0 0.000103153
5 2.23163 -0.000329971 -0.000364065 -0.189721 0 0
6 11.4725 0 0 -0.762726 -0.418767 0.562183
7 0.615219 -0.993091 -0.810701 2.36302 0.0866629 -0.357379
8 2.24752 0 0 0.0605673 0.267265 -0.222262
9 1.11936 0 0 0.0749173 0.0546635 -0.249677
10 3.71348 -0.102641 0.102191 1.77126 0.869992 0.142171
11 1.72615 0 0 0.013477 -0.00733088 -0.811382
12 1.21114 0 0 0.00873809 0.015128 -0.772911
13 3.59919 -1.06012 0.0708879 1.87281 0.766148 0.187135
14 1.66069 0 0 -0.0195999 0.0443892 -0.726687
15 1.167 0 0 0.00841046 -0.00839376 -0.438997
16 2.18853 0.50104 0.0576593 1.57366 -0.028125 0.156362
17 1.29609 0 0 0.0785581 0.0270526 -1.07235
18 1.62202 0.000713348 -0.000470638 0.00740293 -0.0221109 -0.784236
19 1.22241 0 0 0.000237492 0.0059304 -0.707337
20 1.76707 1.27612 0.0366412 1.57458 0.205155 0.106808
21 1.55588 0 0 -0.0273743 0.0177045 -0.702262
22 1.24274 0 0 -0.000479216 0.000360557 -1.15419
23 0.784524 0 0 0.00636387 -0.00322825 -0.741041
24 -6.70653 7.12182 -4.00061 -0.000932693 0 -1.8749
25 6.02794 0 0 1.17332 0.470696 0.260268
26 11.7344 0 0 0.00140279 0 0.744833
27 8.81167 0 0 0.0936948 0 0
28 5.77884 0 0 0.0627755 0 0
29 2.23249 0 0 0.0309193 0 0
30 11.4725 0 0 0.15204 -0.417303 -0.161849
31 0.61581 0.994373 -0.809166 -2.83171 0.442997 0.480737
32 2.24752 0 0 -0.045362 0.233136 0.363247
33 1.11936 0 0 -0.000328182 0.159957 0.657165
34 3.71348 0.102639 0.102191 -1.54675 0.834836 -0.400578
35 1.72615 0 0 -0.0068987 -0.00732661 1.09674
36 1.21112 0 0 0.0103137 0.0102001 1.33017
37 3.5992 1.06012 0.0708884 -1.53662 0.394253 -0.182897
38 1.66069 0 0 0.00129287 0.0778541 0.239538
39 1.16699 0 0 0.0426518 0.021851 0.735105
40 2.18853 -0.50104 0.057659 -1.5728 0.133573 -0.17288
41 1.29609 0 0 0.120501 0.0520644 0.782583
42 1.62202 -0.000713348 -0.000470161 0.0811908 -0.0245018 1.19712
43 1.22241 0 0 -0.0119317 -0.00594713 1.29801
44 1.76707 -1.27612 0.03664 -1.48212 0.284875 -0.100851
45 1.55588 0 0 0.223724 0.0868401 0.700865
46 1.24273 0 0 0.000478923 0.000360571 0.964696
47 0.784532 0 0 -0.00618633 0.000249599 0.884667
48 0 0 0 0 0 0
49 -5.8899 -23.5857 -6.19804 0.00713755 -0.0113771 0.00813823
50 0 -0.611113 2.11238 0 0 0
51 -0.0145798 -2.51984 2.91209 0 0 0
52 -5.88149 -24.9484 -5.9625 0.00713746 -0.0113771 0.0081388
53 0 -0.675064 1.41593 0 0 0
54 0 0.979376 2.2232 0 0 0
55 0 -3.93659 2.85382 0 0 0
56 0 2.062 1.89702 -0.785398 0 0
57 0 -1.66928 2.73772 0 0 0
58 6.98255 2.1009 -16.1176 0 0 0
time 23
0 6.78963 4.11825 -5.6679 0.000934124 0 -1.53243
1 6.02795 0 0 -1.10471 0.366363 -0.419413
2 11.7344 0 0 -0.00140293 0 -0.676015
3 8.81138 -0.000451088 -0.000111818 -0.578605 0 0.000157733
4 5.77839 0.000285149 0 -0.387665 0 0.000103416
5 2.23164 -0.000329018 -0.000364065 -0.19094 0 0
6 11.4725 0 0 -0.764413 -0.416566 0.560333
7 0.615221 -0.993091 -0.8107 2.36302 0.0866628 -0.357379
8 2.24752 0 0 0.0605673 0.267265 -0.222262
9 1.11936 0 0 0.0749173 0.0546635 -0.249677
10 3.71348 -0.102641 0.102191 1.77126 0.869992 0.142171
11 1.72615 0 0 0.013477 -0.00733091 -0.811382
12 1.21114 0 0 0.0087381 0.015128 -0.772911
13 3.59919 -1.06012 0.0708878 1.87281 0.766148 0.187134
14 1.66069 0 0 -0.0195999 0.0443892 -0.726687
15 1.167 0 0 0.00841045 -0.00839377 -0.438998
16 2.18853 0.50104 0.057659 1.57366 -0.028125 0.156362
17 1.29609 0 0 0.0785582 0.0270526 -1.07235
18 1.62202 0.000715256 -0.000470638 0.00740289 -0.0221109 -0.784237
19 1.22241 0 0 0.000237465 0.00593045 -0.707337
20 1.76707 1.27612 0.0366403 1.57458 0.205155 0.106808
21 1.55588 0 0 -0.0273743 0.0177045 -0.702263
22 1.24273 0 0 -0.000479216 0.000360557 -1.15419
23 0.784524 0 0 0.00636386 -0.00322816 -0.741041
24 -6.70653 7.12182 -4.00061 -0.000932693 0 -1.8749
25 6.02794 0 0 1.17381 0.470576 0.259913
26 11.7344 0 0 0.00140272 0 0.749051
27 8.81167 0 0 0.0864649 0 0
28 5.77884 0 0 0.0579315 0 0
29 2.23249 0 0 0.0285334 0 0
30 11.4725 0 0 0.14635 -0.419597 -0.163405
31 0.61581 0.994373 -0.809165 -2.83171 0.442997 0.480737
32 2.24752 0 0 -0.045362 0.233136 0.363247
33 1.11936 0 0 -0.000328129 0.159957 0.657165
34 3.71349 0.10264 0.10219 -1.54675 0.834836 -0.400578
35 1.72615 0 0 -0.00689869 -0.00732659 1.09674
36 1.21112 0 0 0.0103137 0.0102 1.33017
37 3.5992 1.06012 0.070888 -1.53662 0.394252 -0.182897
38 1.66069 0 0 0.00129287 0.0778541 0.239537
39 1.16699 0 0 0.0426518 0.021851 0.735105
40 2.18853 -0.50104 0.0576589 -1.5728 0.133573 -0.17288
41 1.29609 0 0 0.120501 0.0520644 0.782583
42 1.62202 -0.000713348 -0.000469685 0.0811908 -0.0245018 1.19712
43 1.22241 0 0 -0.0119317 -0.00594705 1.29801
44 1.76707 -1.27612 0.0366399 -1.48212 0.284875 -0.100851
45 1.55588 0 0 0.223724 0.08684 0.700865
46 1.24273 0 0 0.000478934 0.00036057 0.964696
47 0.784532 0 0 -0.00618632 0.000249578 0.884667
48 0 0 0 0 0 0
49 -5.895 -23.5739 -6.14483 0.00506482 -0.00702739 0.00516908
50 0 -0.611115 2.11238 0 0 0
51 -0.0145793 -2.50245 2.91209 0 0 0
52 -5.88964 -24.9361 -5.90646 0.00506473 -0.0070273 0.00516964
53 0 -0.675064 1.41593 0 0 0
54 0 0.979378 2.2232 0 0 0
55 0 -3.93658 2.85382 0 0 0
56 0 2.062 1.89702 -0.785398 0 0
57 0 -1.66928 2.73772 0 0 0
58 6.98255 2.1009 -16.1176 0 0 0
time 24
0 6.78963 4.11825 -5.6679 0.000934124 0 -1.53243
1 6.02795 0 0 -1.10509 0.365915 -0.419345
2 11.7344 0 0 -0.0014027 0 -0.677965
3 8.81139 -0.000450134 -0.000112057 -0.582243 0 0.000158116
4 5.77839 0.000286102 0 -0.390103 0 0.000103578
5 2.23164 -0.000329971 -0.000363111 -0.19214 0 0
6 11.4725 0 0 -0.765698 -0.415019 0.557603
7 0.615219 -0.993091 -0.810701 2.36302 0.0866628 -0.357379
8 2.24752 0 0 0.0605672 0.267265 -0.222262
9 1.11936 0 0 0.0749174 0.0546635 -0.249677
10 3.71348 -0.102641 0.102191 1.77126 0.869992 0.142171
11 1.72615 0 0 0.013477 -0.00733088 -0.811382
12 1.21114 0 0 0.0087381 0.015128 -0.772911
13 3.5992 -1.06012 0.0708882 1.87281 0.766148 0.187134
14 1.66069 0 0 -0.0195999 0.0443892 -0.726687
15 1.167 0 0 0.00841045 -0.00839376 -0.438998
16 2.18853 0.50104 0.0576587 1.57366 -0.0281249 0.156362
17 1.29609 0 0 0.0785581 0.0270526 -1.07235
18 1.62202 0.000713348 -0.000471115 0.00740291 -0.022111 -0.784236
19 1.22241 0 0 0.000237486 0.00593046 -0.707337
20 1.76707 1.27612 0.0366404 1.57458 0.205155 0.106808
21 1.55588 0 0 -0.0273742 0.0177045 -0.702262
22 1.24274 0 0 -0.000479184 0.000360507 -1.15419
23 0.784525 0 0 0.00636378 -0.00322816 -0.741041
24 -6.70653 7.12182 -4.00061 -0.000932693 0 -1.8749
25 6.02794 0 0 1.17403 0.471142 0.259355
26 11.7344 0 0 0.00140277 0 0.753759
27 8.81167 0 0 0.0798631 0 0
28 5.77884 0 0 0.0535083 0 0
29 2.23249 0 0 0.0263548 0 0
30 11.4725 0 0 0.140865 -0.422439 -0.163915
31 0.615812 0.994372 -0.809165 -2.83171 0.442997 0.480737
32 2.24752 0 0 -0.0453619 0.233136 0.363247
33 1.11936 0 0 -0.000327989 0.159957 0.657165
34 3.71348 0.102639 0.102191 -1.54675 0.834836 -0.400578
35 1.72615 0 0 -0.0068987 -0.00732659 1.09674
36 1.21112 0 0 0.0103137 0.0102 1.33017
37 3.5992 1.06012 0.0708881 -1.53662 0.394253 -0.182897
38 1.66069 0 0 0.00129289 0.0778541 0.239537
39 1.16699 0 0 0.0426518 0.0218511 0.735105
40 2.18853 -0.501041 0.0576594 -1.5728 0.133573 -0.17288
41 1.29609 0 0 0.120501 0.0520644 0.782583
42 1.62202 -0.000713348 -0.000470161 0.0811908 -0.0245018 1.19712
43 1.22241 0 0 -0.0119317 -0.00594711 1.29801
44 1.76707 -1.27612 0.0366409 -1.48212 0.284875 -0.100851
45 1.55587 0 0 0.223724 0.0868401 0.700864
46 1.24273 0 0 0.000478904 0.000360581 0.964696
47 0.784531 0 0 -0.0061863 0.00024957 0.884667
48 0 0 0 0 0 0
49 -5.90098 -23.558 -6.09823 0.00203243 -0.00294801 0.00216066
50 0 -0.611113 2.11238 0 0 0
51 -0.0145798 -2.48506 2.91209 0 0 0
52 -5.89875 -24.9194 -5.85572 0.00203234 -0.00294792 0.00216122
53 0 -0.675064 1.41593 0 0 0
54 0 0.979376 2.2232 0 0 0
55 0 -3.93659 2.85382 0 0 0
56 0 2.062 1.89702 -0.785398 0 0
57 0 -1.66928 2.73772 0 0 0
58 6.98255 2.1009 -16.1176 0 0 0
time 25
0 6.78963 4.11825 -5.6679 0.000934124 0 -1.53243
1 6.02795 0 0 -1.10536 0.365476 -0.419382
2 11.7344 0 0 -0.00140273 0 -0.678616
3 8.81139 -0.000450134 -0.00011158 -0.585301 0 0.000157718
4 5.77839 0.000286102 0 -0.392152 0 0.000103272
5 2.23164 -0.000329971 -0.000363588 -0.193149 0 0
6 11.4725 0 0 -0.766749 -0.413863 0.555192
7 0.615217 -0.993091 -0.8107 2.36302 0.0866629 -0.357379
8 2.24752 0 0 0.0605672 0.267265 -0.222262
9 1.11936 0 0 0.0749173 0.0546635 -0.249677
10 3.71348 -0.102641 0.102191 1.77126 0.869992 0.142171
11 1.72615 0 0 0.013477 -0.00733092 -0.811382
12 1.21114 0 0 0.0087381 0.015128 -0.772911
13 3.59919 -1.06012 0.0708883 1.87281 0.766148 0.187135
14 1.66069 0 0 -0.0195999 0.0443892 -0.726687
15 1.167 0 0 0.00841045 -0.00839376 -0.438998
16 2.18852 0.50104 0.0576594 1.57366 -0.0281249 0.156362
17 1.29609 0 0 0.0785581 0.0270526 -1.07235
18 1.62202 0.000713348 -0.000470638 0.00740289 -0.0221109 -0.784237
19 1.22241 0 0 0.000237478 0.00593046 -0.707337
20 1.76707 1.27612 0.0366409 1.57458 0.205155 0.106808
21 1.55588 0 0 -0.0273743 0.0177045 -0.702262
22 1.24274 0 0 -0.000479225 0.000360516 -1.15419
23 0.784523 0 0 0.00636382 -0.00322821 -0.741041
24 -6.70653 7.12182 -4.00061 -0.000932693 0 -1.8749
25 6.02794 0 0 1.17417 0.471342 0.259099
26 11.7344 0 0 0.00140279 0 0.756263
27 8.81167 0 0 0.0753824 0 0
28 5.77884 0 0 0.0505062 0 0
29 2.23249 0 0 0.0248762 0 0
30 11.4725 0 0 0.136965 -0.424482 -0.163791
31 0.615812 0.994373 -0.809165 -2.83171 0.442997 0.480737
32 2.24752 0 0 -0.0453621 0.233136 0.363247
33 1.11936 0 0 -0.000328038 0.159957 0.657165
34 3.71348 0.10264 0.102191 -1.54675 0.834836 -0.400578
35 1.72615 0 0 -0.00689867 -0.00732661 1.09674
36 1.21112 0 0 0.0103137 0.0102 1.33017
37 3.5992 1.06012 0.0708883 -1.53662 0.394253 -0.182897
38 1.66069 0 0 0.00129287 0.0778541 0.239537
39 1.16699 0 0 0.0426518 0.021851 0.735105
40 2.18853 -0.50104 0.0576593 -1.5728 0.133573 -0.17288
41 1.29609 0 0 0.120501 0.0520645 0.782583
42 1.62201 -0.000715256 -0.000470161 0.0811908 -0.0245018 1.19712
43 1.22241 0 0 -0.0119317 -0.00594711 1.29801
44 1.76707 -1.27612 0.0366408 -1.48212 0.284875 -0.100851
45 1.55588 0 0 0.223724 0.0868401 0.700865
46 1.24273 0 0 0.000478925 0.000360574 0.964696
47 0.784532 0 0 -0.00618631 0.000249584 0.884667
48 0 0 0 0 0 0
49 -5.90508 -23.5497 -6.07014 0 0 0
50 0 -0.611115 2.11238 0 0 0
51 -0.0145802 -2.46767 2.91209 0 0 0
52 -5.90508 -24.9106 -5.82486 0 0 0
53 0 -0.675064 1.41593 0 0 0
54 0 0.979376 2.2232 0 0 0
55 0 -3.93659 2.85382 0 0 0
56 0 2.062 1.89702 -0.785398 0 0
57 0 -1.66928 2.73772 0 0 0
58 6.98255 2.1009 -16.1176 0 0 0
time 26
0 6.78963 4.11825 -5.6679 0.000934124 0 -1.53243
1 6.02795 0 0 -1.10558 0.364982 -0.419504
2 11.7344 0 0 -0.001403 0 -0.678155
3 8.81139 -0.000449181 -0.000111818 -0.58737 0 0.000157768
4 5.77839 0.000286102 0 -0.393538 0 0.000103299
5 2.23164 -0.000329018 -0.00036335 -0.193832 0 0
6 11.4725 0 0 -0.767538 -0.413026 0.553711
7 0.615217 -0.993091 -0.8107 2.36302 0.0866628 -0.357379
8 2.24752 0 0 0.0605673 0.267265 -0.222262
9 1.11936 0 0 0.0749173 0.0546635 -0.249677
10 3.71348 -0.102641 0.102191 1.77126 0.869992 0.142172
11 1.72615 0 0 0.013477 -0.00733089 -0.811382
12 1.21114 0 0 0.00873811 0.0151279 -0.772911
13 3.59919 -1.06012 0.070888 1.87281 0.766148 0.187134
14 1.66069 0 0 -0.0195999 0.0443892 -0.726687
15 1.167 0 0 0.00841045 -0.00839377 -0.438997
16 2.18852 0.50104 0.0576594 1.57366 -0.0281251 0.156362
17 1.29609 0 0 0.0785581 0.0270526 -1.07235
18 1.62202 0.000713348 -0.000471115 0.00740289 -0.0221109 -0.784237
19 1.22241 0 0 0.000237489 0.00593043 -0.707337
20 1.76707 1.27612 0.0366409 1.57458 0.205155 0.106808
21 1.55588 0 0 -0.0273743 0.0177045 -0.702262
22 1.24274 0 0 -0.000479191 0.000360573 -1.15419
23 0.784524 0 0 0.00636378 -0.00322816 -0.741041
24 -6.70653 7.12182 -4.00061 -0.000932693 0 -1.8749
25 6.02794 0 0 1.17431 0.471081 0.259147
26 11.7344 0 0 0.00140282 0 0.756675
27 8.81167 0 0 0.0730499 0 0
28 5.77884 0 0 0.0489434 0 0
29 2.23249 0 0 0.0241064 0 0
30 11.4725 0 0 0.134851 -0.425442 -0.163556
31 0.615812 0.994372 -0.809166 -2.83171 0.442997 0.480737
32 2.24752 0 0 -0.0453619 0.233136 0.363247
33 1.11936 0 0 -0.000328186 0.159957 0.657165
34 3.71349 0.102638 0.10219 -1.54675 0.834836 -0.400578
35 1.72615 0 0 -0.00689873 -0.00732659 1.09674
36 1.21112 0 0 0.0103137 0.0102 1.33017
37 3.5992 1.06012 0.0708879 -1.53662 0.394253 -0.182897
38 1.66069 0 0 0.00129288 0.0778541 0.239537
39 1.16699 0 0 0.0426518 0.021851 0.735105
40 2.18853 -0.50104 0.0576587 -1.5728 0.133573 -0.17288
41 1.29609 0 0 0.120501 0.0520644 0.782583
42 1.62202 -0.000715256 -0.000470161 0.0811908 -0.0245018 1.19712
43 1.22241 0 0 -0.0119317 -0.00594712 1.29801
44 1.76707 -1.27612 0.0366402 -1.48212 0.284875 -0.100851
45 1.55588 0 0 0.223724 0.08684 0.700865
46 1.24273 0 0 0.000478961 0.00036056 0.964696
47 0.784532 0 0 -0.00618632 0.0002496 0.884667
48 0 0 0 0 0 0
49 -5.90688 -23.5492 -6.05826 -0.000704204 0.00167664 -0.00114904
50 0 -0.611115 2.11238 0 0 0
51 -0.0145802 -2.45028 2.91209 0 0 0
52 -5.90804 -24.91 -5.81202 -0.000704291 0.00167672 -0.00114847
53 0 -0.675066 1.41593 0 0 0
54 0 0.979376 2.2232 0 0 0
55 0 -3.93659 2.85382 0 0 0
56 0 2.062 1.89702 -0.785398 0 0
57 0 -1.66928 2.73772 0 0 0
58 6.98255 2.1009 -16.1176 0 0 0
time 27
0 6.78963 4.11825 -5.6679 0.000934124 0 -1.53243
1 6.02795 0 0 -1.1057 0.364735 -0.419565
2 11.7344 0 0 -0.00140278 0 -0.677924
3 8.81138 -0.000449181 -0.000111818 -0.588404 0 0.000157897
4 5.77839 0.000286102 0 -0.394231 0 0.000103406
5 2.23164 -0.000329971 -0.000364065 -0.194173 0 0
6 11.4725 0 0 -0.767934 -0.412607 0.552971
7 0.615221 -0.99309 -0.8107 2.36302 0.0866628 -0.35738
8 2.24752 0 0 0.0605673 0.267265 -0.222262
9 1.11936 0 0 0.0749174 0.0546635 -0.249677
10 3.71348 -0.102641 0.102191 1.77126 0.869992 0.142171
11 1.72615 0 0 0.013477 -0.00733087 -0.811382
12 1.21114 0 0 0.00873811 0.0151279 -0.772911
13 3.5992 -1.06012 0.0708879 1.87281 0.766148 0.187135
14 1.66069 0 0 -0.0195999 0.0443892 -0.726687
15 1.167 0 0 0.00841046 -0.00839376 -0.438997
16 2.18853 0.50104 0.0576586 1.57366 -0.028125 0.156362
17 1.29609 0 0 0.0785581 0.0270526 -1.07235
18 1.62202 0.000713348 -0.000471115 0.00740294 -0.0221109 -0.784237
19 1.22241 0 0 0.000237492 0.00593046 -0.707337
20 1.76707 1.27612 0.0366412 1.57458 0.205155 0.106808
21 1.55588 0 0 -0.0273743 0.0177045 -0.702262
22 1.24273 0 0 -0.00047925 0.0003605 -1.15419
23 0.784523 0 0 0.00636383 -0.00322817 -0.741041
24 -6.70653 7.12182 -4.00061 -0.000932693 0 -1.8749
25 6.02794 0 0 1.17438 0.470949 0.259171
26 11.7344 0 0 0.00140257 0 0.756879
27 8.81167 0 0 0.0718834 0 0
28 5.77884 0 0 0.0481619 0 0
29 2.23249 0 0 0.0237216 0 0
30 11.4725 0 0 0.133793 -0.425922 -0.163437
31 0.615812 0.994371 -0.809166 -2.83171 0.442997 0.480737
32 2.24752 0 0 -0.0453619 0.233136 0.363247
33 1.11936 0 0 -0.000328004 0.159957 0.657165
34 3.71349 0.102638 0.102191 -1.54675 0.834836 -0.400578
35 1.72615 0 0 -0.00689871 -0.0073266 1.09674
36 1.21112 0 0 0.0103137 0.0102 1.33017
37 3.5992 1.06012 0.070888 -1.53662 0.394253 -0.182897
38 1.66069 0 0 0.00129289 0.0778541 0.239538
39 1.16699 0 0 0.0426518 0.0218511 0.735105
40 2.18853 -0.501041 0.0576589 -1.5728 0.133573 -0.17288
41 1.29609 0 0 0.120501 0.0520644 0.782584
42 1.62202 -0.000713348 -0.000469685 0.0811908 -0.0245018 1.19712
43 1.22241 0 0 -0.0119317 -0.00594709 1.29801
44 1.76707 -1.27612 0.0366404 -1.48212 0.284875 -0.100851
45 1.55588 0 0 0.223724 0.08684 0.700865
46 1.24273 0 0 0.000478917 0.000360566 0.964696
47 0.784532 0 0 -0.00618632 0.000249587 0.884667
48 0 0 0 0 0 0
49 -5.90779 -23.549 -6.05231 -0.00105653 0.00251469 -0.00172495
50 0 -0.611113 2.11238 0 0 0
51 -0.0145798 -2.43289 2.91209 0 0 0
52 -5.90952 -24.9097 -5.8056 -0.00105661 0.00251478 -0.00172438
53 0 -0.675064 1.41593 0 0 0
54 0 0.979378 2.2232 0 0 0
55 0 -3.93659 2.85382 0 0 0
56 0 2.062 1.89702 -0.785398 0 0
57 0 -1.66928 2.73772 0 0 0
58 6.98255 2.1009 -16.1176 0 0 0
time 28
0 6.78963 4.11825 -5.6679 0.000934124 0 -1.53243
1 6.02795 0 0 -1.1057 0.364734 -0.419566
2 11.7344 0 0 -0.00140288 0 -0.677924
3 8.81139 -0.000450134 -0.000111341 -0.588405 0 0.000158012
4 5.77839 0.000286102 0 -0.394231 0 0.000103563
5 2.23163 -0.000329018 -0.000363588 -0.194174 0 0
6 11.4725 0 0 -0.767934 -0.412607 0.552971
7 0.615219 -0.993091 -0.8107 2.36302 0.0866628 -0.357379
8 2.24752 0 0 0.0605673 0.267265 -0.222262
9 1.11936 0 0 0.0749173 0.0546635 -0.249677
10 3.71348 -0.102641 0.102191 1.77126 0.869992 0.142172
11 1.72615 0 0 0.013477 -0.00733089 -0.811382
12 1.21114 0 0 0.00873811 0.015128 -0.77291
13 3.59919 -1.06012 0.070888 1.87281 0.766148 0.187135
14 1.66069 0 0 -0.0195999 0.0443892 -0.726687
15 1.167 0 0 0.00841046 -0.00839376 -0.438997
16 2.18852 0.50104 0.0576593 1.57366 -0.0281251 0.156362
17 1.29609 0 0 0.0785582 0.0270526 -1.07235
18 1.62202 0.000713348 -0.000471115 0.0074029 -0.022111 -0.784236
19 1.22241 0 0 0.000237474 0.00593042 -0.707337
20 1.76707 1.27612 0.0366409 1.57458 0.205155 0.106808
21 1.55588 0 0 -0.0273743 0.0177045 -0.702262
22 1.24273 0 0 -0.000479216 0.000360557 -1.15419
23 0.784524 0 0 0.00636382 -0.00322814 -0.741041
24 -6.70653 7.12182 -4.00061 -0.000932693 0 -1.8749
25 6.02794 0 0 1.17438 0.470949 0.259171
26 11.7344 0 0 0.0014028 0 0.75688
27 8.81167 0 0 0.0718823 0 0
28 5.77884 0 0 0.0481611 0 0
29 2.23249 0 0 0.0237211 0 0
30 11.4725 0 0 0.133792 -0.425922 -0.163438
31 0.615812 0.994372 -0.809165 -2.83171 0.442997 0.480737
32 2.24752 0 0 -0.0453621 0.233136 0.363247
33 1.11935 0 0 -0.000328016 0.159957 0.657165
34 3.71349 0.102639 0.102191 -1.54675 0.834836 -0.400578
35 1.72615 0 0 -0.0068987 -0.0073266 1.09674
36 1.21112 0 0 0.0103137 0.0102 1.33017
37 3.5992 1.06012 0.0708882 -1.53662 0.394253 -0.182897
38 1.66069 0 0 0.00129289 0.0778541 0.239537
39 1.16699 0 0 0.0426518 0.021851 0.735105
40 2.18853 -0.501041 0.0576584 -1.5728 0.133573 -0.17288
41 1.29609 0 0 0.120501 0.0520645 0.782583
42 1.62202 -0.000713348 -0.000469208 0.0811908 -0.0245018 1.19712
43 1.22241 0 0 -0.0119317 -0.0059471 1.29801
44 1.76707 -1.27612 0.0366399 -1.48212 0.284875 -0.100851
45 1.55588 0 0 0.223724 0.0868401 0.700865
46 1.24273 0 0 0.000478915 0.00036058 0.964696
47 0.784532 0 0 -0.00618631 0.000249591 0.884667
48 0 0 0 0 0 0
49 -5.90779 -23.549 -6.05231 -0.00105632 0.00251512 -0.00172556
50 0 -0.611113 2.11238 0 0 0
51 -0.0145802 -2.4155 2.91209 0 0 0
52 -5.90952 -24.9097 -5.8056 -0.00105641 0.00251521 -0.00172499
53 0 -0.675064 1.41593 0 0 0
54 0 0.979378 2.2232 0 0 0
55 0 -3.93659 2.85382 0 0 0
56 0 2.062 1.89702 -0.785398 0 0
57 0 -1.66928 2.73772 0 0 0
58 6.98255 2.1009 -16.1176 0 0 0
time 29
0 6.78963 4.11825 -5.6679 0.000934124 0 -1.53243
1 6.02795 0 0 -1.10559 0.364982 -0.419504
2 11.7344 0 0 -0.00140294 0 -0.678155
3 8.81139 -0.000450134 -0.00011158 -0.587371 0 0.000158018
4 5.77839 0.000286102 0 -0.393538 0 0.000103468
5 2.23164 -0.000328064 -0.000363588 -0.193832 0 0
6 11.4725 0 0 -0.767538 -0.413026 0.553711
7 0.615219 -0.993091 -0.8107 2.36302 0.0866629 -0.357379
8 2.24752 0 0 0.0605673 0.267265 -0.222262
9 1.11936 0 0 0.0749175 0.0546636 -0.249677
10 3.71348 -0.102641 0.102191 1.77126 0.869992 0.142171
11 1.72615 0 0 0.013477 -0.0073309 -0.811382
12 1.21114 0 0 0.0087381 0.015128 -0.772911
13 3.59919 -1.06012 0.0708877 1.87281 0.766148 0.187134
14 1.66069 0 0 -0.0195999 0.0443892 -0.726687
15 1.167 0 0 0.00841045 -0.00839376 -0.438997
16 2.18853 0.50104 0.0576589 1.57366 -0.028125 0.156362
17 1.29609 0 0 0.0785581 0.0270526 -1.07235
18 1.62202 0.000713348 -0.000472069 0.00740295 -0.0221109 -0.784237
19 1.22241 0 0 0.000237468 0.00593042 -0.707337
20 1.76707 1.27612 0.0366406 1.57458 0.205155 0.106808
21 1.55588 0 0 -0.0273743 0.0177044 -0.702262
22 1.24273 0 0 -0.000479257 0.000360566 -1.15419
23 0.784524 0 0 0.00636381 -0.00322818 -0.741041
24 -6.70653 7.12182 -4.00061 -0.000932693 0 -1.8749
25 6.02794 0 0 1.17431 0.471081 0.259147
26 11.7344 0 0 0.0014027 0 0.756675
27 8.81167 0 0 0.0730499 0 0
28 5.77884 0 0 0.0489434 0 0
29 2.23249 0 0 0.0241065 0 0
30 11.4725 0 0 0.134851 -0.425442 -0.163556
31 0.615812 0.994373 -0.809166 -2.83171 0.442997 0.480737
32 2.24752 0 0 -0.0453619 0.233136 0.363247
33 1.11936 0 0 -0.000328204 0.159957 0.657165
34 3.71349 0.102639 0.102191 -1.54675 0.834836 -0.400578
35 1.72615 0 0 -0.00689865 -0.00732659 1.09674
36 1.21112 0 0 0.0103137 0.0102001 1.33017
37 3.5992 1.06012 0.0708882 -1.53662 0.394253 -0.182897
38 1.66069 0 0 0.00129288 0.0778541 0.239537
39 1.16699 0 0 0.0426518 0.0218511 0.735105
40 2.18853 -0.50104 0.0576586 -1.5728 0.133573 -0.17288
41 1.29609 0 0 0.120501 0.0520644 0.782583
42 1.62202 -0.000713348 -0.000469685 0.0811908 -0.0245018 1.19712
43 1.22241 0 0 -0.0119317 -0.00594711 1.29801
44 1.76707 -1.27612 0.0366405 -1.48212 0.284875 -0.100851
45 1.55588 0 0 0.223724 0.0868401 0.700864
46 1.24273 0 0 0.000478901 0.000360578 0.964696
47 0.784532 0 0 -0.0061863 0.000249587 0.884667
48 0 0 0 0 0 0
49 -5.90689 -23.5492 -6.05826 -0.000704138 0.00167684 -0.00114962
50 0 -0.611113 2.11238 0 0 0
51 -0.0145798 -2.39811 2.91209 0 0 0
52 -5.90804 -24.91 -5.81202 -0.000704224 0.00167693 -0.00114905
53 0 -0.675064 1.41593 0 0 0
54 0 0.979376 2.2232 0 0 0
55 0 -3.93659 2.85382 0 0 0
56 0 2.062 1.89702 -0.785398 0 0
57 0 -1.66928 2.73772 0 0 0
58 6.98255 2.1009 -16.1176 0 0 0
end
