//Sequence File generated by the Wall Worm SMD Exporter PRO 1.99
//www.wallworm.com
version 1
nodes
0 "b_l_clav" -1
1 "b_l_upperarm" 0
2 "b_l_forearm" 1
3 "b_l_twist3" 2
4 "b_l_twist2" 2
5 "b_l_twist1" 2
6 "b_l_hand" 2
7 "b_l_thumb001" 6
8 "b_l_thumb002" 7
9 "b_l_thumb003" 8
10 "b_l_middle001" 6
11 "b_l_middle002" 10
12 "b_l_middle003" 11
13 "b_l_index001" 6
14 "b_l_index002" 13
15 "b_l_index003" 14
16 "b_l_hand_ringsqueezer" 6
17 "b_l_ring001" 16
18 "b_l_ring002" 17
19 "b_l_ring003" 18
20 "b_l_hand_pinkysqueezer" 6
21 "b_l_pinky001" 20
22 "b_l_pinky002" 21
23 "b_l_pinky003" 22
24 "b_r_clav" -1
25 "b_r_upperarm" 24
26 "b_r_forearm" 25
27 "b_r_twist3" 26
28 "b_r_twist2" 26
29 "b_r_twist1" 26
30 "b_r_hand" 26
31 "b_r_thumb001" 30
32 "b_r_thumb002" 31
33 "b_r_thumb003" 32
34 "b_r_middle001" 30
35 "b_r_middle002" 34
36 "b_r_middle003" 35
37 "b_r_index001" 30
38 "b_r_index002" 37
39 "b_r_index003" 38
40 "b_r_hand_ringsqueezer" 30
41 "b_r_ring001" 40
42 "b_r_ring002" 41
43 "b_r_ring003" 42
44 "b_r_hand_pinkysqueezer" 30
45 "b_r_pinky001" 44
46 "b_r_pinky002" 45
47 "b_r_pinky003" 46
48 "b_zero" -1
end
skeleton
time 0
0 2.07424 6.02945 -10.7131 0 0 -0.74164
1 6.02795 0 0 -0.222801 0.46876 0.395416
2 11.7344 0 0 -0.00140285 0 -2.03184
3 8.81138 -0.000450134 -0.00011301 -0.340838 0 0.000158026
4 5.77839 0.000286102 0 -0.228361 0 0.000104399
5 2.23164 -0.000328064 -0.000363827 -0.112476 0 0
6 11.4725 0 0 -0.33257 -0.0839278 -0.343948
7 0.615219 -0.993091 -0.8107 2.61685 0.453644 -0.260346
8 2.24752 0 0 0.157398 0.199735 -0.550863
9 1.11936 0 0 0.0636372 0.342702 -1.36316
10 3.71348 -0.102642 0.102191 -0.677387 1.47986 -2.17051
11 1.72615 0 0 -0.0303132 0.00731296 -1.44545
12 1.21114 0 0 -0.0176051 -0.00104782 -2.2277
13 3.59919 -1.06012 0.0708876 -1.30788 1.52782 -2.94165
14 1.66069 0 0 0.0632258 -0.0109068 -1.62036
15 1.167 0 0 0.0598756 0.152814 -2.35349
16 2.18852 0.50104 0.0576596 1.50822 0.11864 0.106025
17 1.29609 0 0 0.0454756 -0.0112007 -1.51823
18 1.62202 0.000713348 -0.000471115 -0.0384309 0.0160454 -1.60779
19 1.22241 0 0 -0.045058 -0.0614229 -2.25318
20 1.76707 1.27612 0.0366411 1.46962 0.232734 0.0404856
21 1.55588 0 0 -0.0323047 -0.00437303 -1.41072
22 1.24273 0 0 -0.000344941 -0.00049056 -1.63731
23 0.784523 0 0 0.0340911 0.012345 -2.06604
24 -1.93761 -1.34664 -10.5891 -0.000932534 0 -2.28859
25 6.02794 0 0 0.554429 0.553922 -0.775653
26 11.7344 0 0 0.00140265 0 2.61067
27 8.81167 0 0 0.454674 0 0
28 5.77884 0 0 0.304631 0 0
29 2.23249 0 0 0.150042 0 0
30 11.4725 0 0 0.40492 0.398528 -0.0583919
31 0.615812 0.994371 -0.809165 -2.66431 0.336507 0.486064
32 2.24752 0 0 -0.256249 0.109831 0.258728
33 1.11936 0 0 -0.0291068 0.124062 0.432169
34 3.71349 0.102638 0.102191 -1.57768 0.882979 -0.0524466
35 1.72615 0 0 0.0162266 -0.00475156 1.41319
36 1.21112 0 0 0.0040357 0.0171684 0.828343
37 3.5992 1.06012 0.0708888 -1.59768 0.718334 0.0289419
38 1.66069 0 0 -0.0492942 0.0109408 1.19148
39 1.16699 0 0 -0.0915268 0.0530807 0.924399
40 2.18853 -0.501041 0.0576594 -1.57944 0.0165191 -0.160245
41 1.29609 0 0 -0.0249966 -0.0396092 0.751928
42 1.62202 -0.000712395 -0.000471115 0.0204585 -0.00666072 1.3727
43 1.22241 0 0 0.0309052 -0.0106538 0.692123
44 1.76707 -1.27612 0.0366411 -1.58463 0.0553188 -0.15843
45 1.55588 0 0 0.0278777 0.0169012 0.731342
46 1.24273 0 0 0.00058869 -0.000113067 0.869321
47 0.784531 0 0 -0.0220527 0.00609206 1.1794
48 0 0 0 0 0 0
time 1
0 2.0496 4.91309 -10.6919 0 0 -0.74164
1 6.02795 0 0 -0.277545 0.501868 0.439763
2 11.7344 0 0 -0.00140283 0 -2.09385
3 8.81138 -0.000450134 -0.00011158 -0.306814 0 0.000157974
4 5.77839 0.000286102 0 -0.205565 0 0.000104506
5 2.23164 -0.000328064 -0.000364304 -0.101249 0 0
6 11.4725 0 0 -0.307109 -0.0525813 -0.342236
7 0.61522 -0.993091 -0.8107 2.61685 0.453644 -0.260346
8 2.24752 0 0 0.157398 0.199735 -0.550863
9 1.11936 0 0 0.0636372 0.342702 -1.36316
10 3.71348 -0.10264 0.10219 -0.677393 1.47986 -2.17052
11 1.72615 0 0 -0.0303131 0.00731291 -1.44546
12 1.21114 0 0 -0.0176049 -0.00104792 -2.2277
13 3.59919 -1.06012 0.0708876 -1.30789 1.52782 -2.94166
14 1.66069 0 0 0.0632258 -0.0109068 -1.62036
15 1.167 0 0 0.0598756 0.152814 -2.35348
16 2.18853 0.50104 0.0576582 1.50822 0.11864 0.106026
17 1.29609 0 0 0.0454756 -0.0112007 -1.51823
18 1.62202 0.000713825 -0.000471115 -0.0384308 0.0160454 -1.60779
19 1.22241 0 0 -0.045058 -0.0614231 -2.25319
20 1.76707 1.27612 0.0366397 1.46962 0.232734 0.0404857
21 1.55588 0 0 -0.0323049 -0.00437283 -1.41072
22 1.24274 0 0 -0.000344821 -0.000490693 -1.63731
23 0.784523 0 0 0.0340911 0.0123451 -2.06604
24 -1.93761 -1.34664 -10.5891 -0.000932534 0 -2.28859
25 6.02794 0 0 0.621431 0.507563 -0.694853
26 11.7344 0 0 0.00140273 0 2.56584
27 8.81167 0 0 0.449154 0 0
28 5.77884 0 0 0.300933 0 0
29 2.23249 0 0 0.148221 0 0
30 11.4725 0 0 0.395549 0.388527 -0.0788095
31 0.615813 0.994373 -0.809165 -2.66723 0.314975 0.510624
32 2.24752 0 0 -0.258698 0.0893178 0.26354
33 1.11936 0 0 -0.0463703 0.106708 0.370909
34 3.71349 0.102639 0.10219 -1.57808 0.799051 -0.0549538
35 1.72615 0 0 0.0137867 -0.00576233 1.38029
36 1.21112 0 0 0.00217922 0.0175011 0.721343
37 3.5992 1.06012 0.0708878 -1.59259 0.617948 0.0333231
38 1.66069 0 0 -0.0441912 0.0137056 1.13833
39 1.16699 0 0 -0.0868342 0.0467884 0.822805
40 2.18853 -0.501041 0.0576584 -1.57858 0.0059096 -0.17042
41 1.29609 0 0 -0.0220496 -0.0413217 0.679113
42 1.62202 -0.000712872 -0.000471115 0.0182862 -0.00857186 1.31928
43 1.2224 0 0 0.0298953 -0.0078535 0.600498
44 1.76707 -1.27612 0.0366406 -1.58352 0.0422949 -0.174434
45 1.55588 0 0 0.0265088 0.0189765 0.655067
46 1.24273 0 0 0.00059508 0 0.800159
47 0.784532 0 0 -0.0210386 0.00543446 1.08726
48 0 0 0 0 0 0
time 2
0 2.02647 3.77649 -10.6716 0 0 -0.74164
1 6.02795 0 0 -0.338887 0.526076 0.469513
2 11.7344 0 0 -0.00140286 0 -2.15159
3 8.81138 -0.000450134 -0.000112057 -0.284879 0 0.0001576
4 5.77839 0.000284195 0 -0.190869 0 0.000104314
5 2.23163 -0.000328064 -0.00036478 -0.0940101 0 0
6 11.4725 0 0 -0.291882 -0.0277261 -0.336829
7 0.615218 -0.993092 -0.8107 2.61047 0.44486 -0.274262
8 2.24752 0 0 0.160831 0.196542 -0.531107
9 1.11936 0 0 0.072614 0.334313 -1.30346
10 3.71348 -0.102643 0.102191 0.504341 1.49437 -0.990833
11 1.72615 0 0 -0.0271719 0.00485511 -1.38754
12 1.21114 0 0 -0.0176227 0.000690817 -2.12907
13 3.59919 -1.06012 0.070888 1.36062 1.51726 -0.272625
14 1.66069 0 0 0.0558836 -0.00347914 -1.54264
15 1.167 0 0 0.0498986 0.143195 -2.23371
16 2.18852 0.501039 0.0576587 1.51281 0.111912 0.113499
17 1.29609 0 0 0.0444061 -0.0148876 -1.43628
18 1.62202 0.000713348 -0.000471115 -0.0349083 0.0116537 -1.54062
19 1.22241 0 0 -0.0396227 -0.0573679 -2.15605
20 1.76707 1.27612 0.0366416 1.47819 0.222107 0.0546241
21 1.55588 0 0 -0.032517 -0.00231284 -1.3472
22 1.24274 0 0 -0.000381711 -0.000462704 -1.56058
23 0.784523 0 0 0.032596 0.0134695 -1.95797
24 -1.93761 -1.34664 -10.5891 -0.000932534 0 -2.28859
25 6.02794 0 0 0.677164 0.45746 -0.623703
26 11.7344 0 0 0.0014027 0 2.5151
27 8.81167 0 0 0.434006 0 0
28 5.77884 0 0 0.290784 0 0
29 2.23249 0 0 0.143222 0 0
30 11.4725 0 0 0.380094 0.374564 -0.0916871
31 0.615813 0.994372 -0.809165 -2.66871 0.298865 0.528565
32 2.24752 0 0 -0.260254 0.074279 0.267762
33 1.11936 0 0 -0.0594798 0.0950695 0.331509
34 3.71349 0.10264 0.102191 -1.57806 0.719353 -0.0571008
35 1.72615 0 0 0.0113166 -0.0068203 1.34588
36 1.21112 0 0 0.000484028 0.0176296 0.624912
37 3.5992 1.06012 0.0708878 -1.58853 0.524952 0.0367415
38 1.66069 0 0 -0.0390446 0.0164134 1.08737
39 1.16699 0 0 -0.0818056 0.0415608 0.730271
40 2.18853 -0.50104 0.0576589 -1.57754 -0.00435439 -0.180244
41 1.29609 0 0 -0.0192597 -0.0426927 0.612705
42 1.62202 -0.000713348 -0.000469208 0.0161516 -0.0104505 1.26572
43 1.22241 0 0 0.0283387 -0.00599051 0.541214
44 1.76707 -1.27612 0.0366406 -1.58204 0.0296647 -0.189867
45 1.55588 0 0 0.0251119 0.02079 0.584833
46 1.24273 0 0 0.000598423 0 0.737307
47 0.784532 0 0 -0.0200792 0.00481926 1.00058
48 0 0 0 0 0 0
time 3
0 2.00522 2.66013 -10.6524 0 0 -0.74164
1 6.02795 0 0 -0.406857 0.536359 0.480678
2 11.7344 0 0 -0.00140291 0 -2.201
3 8.81138 -0.000450134 -0.00011158 -0.275397 0 0.000157627
4 5.77839 0.000286102 0 -0.184516 0 0.000104491
5 2.23163 -0.000328064 -0.000364304 -0.090881 0 0
6 11.4725 0 0 -0.285669 -0.0136559 -0.326534
7 0.61522 -0.993092 -0.810699 2.59491 0.42197 -0.309327
8 2.24752 0 0 0.169533 0.188144 -0.480598
9 1.11936 0 0 0.0955282 0.311413 -1.15104
10 3.71348 -0.102641 0.102191 1.37213 1.28784 -0.12673
11 1.72615 0 0 -0.0195407 -0.00129915 -1.23923
12 1.21114 0 0 -0.0168911 0.00507291 -1.87652
13 3.59919 -1.06012 0.070888 1.53212 1.27788 -0.0997735
14 1.66069 0 0 0.0391366 0.0149243 -1.34357
15 1.167 0 0 0.0262115 0.12115 -1.9263
16 2.18852 0.50104 0.0576587 1.52407 0.0946064 0.132563
17 1.29609 0 0 0.0403295 -0.0238167 -1.2264
18 1.62202 0.000713825 -0.000471115 -0.0266106 0.000802428 -1.36859
19 1.22241 0 0 -0.026264 -0.0478394 -1.90722
20 1.76707 1.27612 0.0366406 1.4987 0.194432 0.0904197
21 1.55588 0 0 -0.0324625 0.0029846 -1.18457
22 1.24273 0 0 -0.000464557 -0.000378937 -1.3641
23 0.784523 0 0 0.0292695 0.015644 -1.68123
24 -1.93761 -1.34664 -10.5891 -0.000932534 0 -2.28859
25 6.02794 0 0 0.721617 0.406849 -0.562539
26 11.7344 0 0 0.00140282 0 2.46016
27 8.81167 0 0 0.410663 0 0
28 5.77884 0 0 0.275144 0 0
29 2.23249 0 0 0.135519 0 0
30 11.4725 0 0 0.359467 0.357234 -0.0971081
31 0.615813 0.994372 -0.809165 -2.66802 0.289387 0.538898
32 2.24752 0 0 -0.260728 0.0657701 0.271257
33 1.11936 0 0 -0.0676841 0.0908565 0.317553
34 3.71349 0.102639 0.102191 -1.57769 0.645509 -0.0590201
35 1.72615 0 0 0.00883937 -0.00791956 1.31012
36 1.21112 0 0 -0.000979497 0.017609 0.541886
37 3.5992 1.06012 0.0708883 -1.58518 0.441646 0.0395193
38 1.66069 0 0 -0.0338503 0.0190556 1.03955
39 1.16699 0 0 -0.0762413 0.0376811 0.649345
40 2.18853 -0.50104 0.0576591 -1.57636 -0.0140893 -0.189551
41 1.29609 0 0 -0.0167454 -0.0437398 0.554522
42 1.62202 -0.000712395 -0.000469208 0.0140672 -0.0122769 1.21264
43 1.22241 0 0 0.026017 -0.00531782 0.520147
44 1.76707 -1.27612 0.0366409 -1.58028 0.0176632 -0.204471
45 1.55588 0 0 0.0237668 0.0223154 0.522443
46 1.24273 0 0 0.000599447 0 0.682519
47 0.784531 0 0 -0.0191951 0.00431024 0.921266
48 0 0 0 0 0 0
time 4
0 1.98623 1.60447 -10.635 0 0 -0.74164
1 6.02795 0 0 -0.488787 0.525512 0.463735
2 11.7344 0 0 -0.00140287 0 -2.23144
3 8.81138 -0.000450134 -0.000111103 -0.27143 0 0.000158072
4 5.77839 0.000286102 0 -0.181858 0 0.00010484
5 2.23163 -0.000328064 -0.00036478 -0.0895718 0 0
6 11.4725 0 0 -0.280079 -0.0142346 -0.309879
7 0.615218 -0.99309 -0.8107 2.57563 0.390177 -0.3555
8 2.24752 0 0 0.18107 0.176291 -0.412489
9 1.11936 0 0 0.125902 0.277238 -0.946127
10 3.71348 -0.10264 0.10219 1.50417 0.967035 0.0037905
11 1.72615 0 0 -0.010114 -0.00917836 -1.03867
12 1.21114 0 0 -0.0142165 0.0104374 -1.535
13 3.59919 -1.06012 0.0708876 1.55152 0.953009 -0.0784576
14 1.66069 0 0 0.0208533 0.0375752 -1.07408
15 1.167 0 0 -0.000168557 0.0958642 -1.50922
16 2.18852 0.50104 0.0576582 1.53824 0.0710586 0.1582
17 1.29609 0 0 0.032044 -0.0341611 -0.942464
18 1.62202 0.000714302 -0.000471115 -0.0168823 -0.0127234 -1.13588
19 1.22241 0 0 -0.00987811 -0.0365696 -1.57054
20 1.76707 1.27612 0.0366411 1.52315 0.156111 0.138
21 1.55588 0 0 -0.0310294 0.00999658 -0.96465
22 1.24274 0 0 -0.000547651 -0.000243913 -1.09843
23 0.784523 0 0 0.0254756 0.0167463 -1.30703
24 -1.93761 -1.34664 -10.5891 -0.000932534 0 -2.28859
25 6.02794 0 0 0.755942 0.358301 -0.510646
26 11.7344 0 0 0.00140266 0 2.40333
27 8.81167 0 0 0.381297 0 0
28 5.77884 0 0 0.255469 0 0
29 2.23249 0 0 0.125828 0 0
30 11.4725 0 0 0.334995 0.337379 -0.0962435
31 0.615813 0.99437 -0.809165 -2.65891 0.281424 0.541205
32 2.24752 0 0 -0.257851 0.0616229 0.274876
33 1.11936 0 0 -0.0742866 0.0987343 0.326583
34 3.71349 0.102636 0.102191 -1.57676 0.562558 -0.061668
35 1.72615 0 0 0.00537514 -0.00957022 1.25674
36 1.21112 0 0 -0.00223931 0.0174934 0.470139
37 3.5992 1.06011 0.0708883 -1.58109 0.357825 0.0427413
38 1.66069 0 0 -0.0262565 0.0240357 0.983843
39 1.16699 0 0 -0.0660807 0.0353524 0.57471
40 2.18853 -0.501041 0.0576589 -1.57511 -0.0231126 -0.198172
41 1.29609 0 0 -0.0143632 -0.0445784 0.500571
42 1.62202 -0.000712633 -0.000469208 0.0112191 -0.0153428 1.14126
43 1.22241 0 0 0.0214178 -0.00569902 0.523006
44 1.76707 -1.27612 0.0366404 -1.57834 0.00652376 -0.217987
45 1.55587 0 0 0.0223639 0.0237212 0.461507
46 1.24273 0 0 0.000598853 0 0.632708
47 0.784532 0 0 -0.0182801 0.00436604 0.835562
48 0 0 0 0 0 0
time 5
0 1.96985 0.649999 -10.6197 0 0 -0.74164
1 6.02794 0 0 -0.577317 0.489471 0.42412
2 11.7344 0 0 -0.00140285 0 -2.23665
3 8.81138 -0.000450134 -0.000112534 -0.266307 0 0.000158127
4 5.77839 0.000286102 0 -0.178426 0 0.000104885
5 2.23163 -0.000328064 -0.000364304 -0.0878814 0 0
6 11.4725 0 0 -0.268067 -0.0325994 -0.287447
7 0.615219 -0.993092 -0.8107 2.55716 0.355182 -0.403448
8 2.24752 0 0 0.19309 0.162996 -0.339845
9 1.11936 0 0 0.156909 0.236761 -0.728531
10 3.71348 -0.102642 0.102191 1.54406 0.620287 0.0467137
11 1.72615 0 0 -0.00103643 -0.0168443 -0.823993
12 1.21114 0 0 -0.00954695 0.0148288 -1.16951
13 3.59919 -1.06012 0.070888 1.55722 0.605279 -0.0704697
14 1.66069 0 0 0.00596728 0.0576746 -0.785135
15 1.167 0 0 -0.0196546 0.071426 -1.06165
16 2.18852 0.50104 0.0576589 1.55207 0.0457191 0.185499
17 1.29609 0 0 0.020351 -0.0421838 -0.638431
18 1.62202 0.000714064 -0.000471115 -0.00801061 -0.0253613 -0.886685
19 1.22241 0 0 0.00500044 -0.025799 -1.21004
20 1.76707 1.27612 0.0366406 1.54517 0.114234 0.188078
21 1.55588 0 0 -0.0278425 0.0169584 -0.729279
22 1.24274 0 0 -0.000594231 0 -0.814141
23 0.784523 0 0 0.0214531 0.0154291 -0.906582
24 -1.93761 -1.34664 -10.5891 -0.000932534 0 -2.28859
25 6.02794 0 0 0.781651 0.313635 -0.466921
26 11.7344 0 0 0.00140275 0 2.34677
27 8.81167 0 0 0.34831 0 0
28 5.77884 0 0 0.233368 0 0
29 2.23249 0 0 0.114942 0 0
30 11.4725 0 0 0.308199 0.31593 -0.0905759
31 0.615813 0.994372 -0.809165 -2.63851 0.270171 0.537235
32 2.24752 0 0 -0.250639 0.0587988 0.279243
33 1.11936 0 0 -0.0824522 0.118973 0.350009
34 3.71349 0.102638 0.102191 -1.57476 0.461861 -0.0652664
35 1.72615 0 0 0.000514719 -0.0119823 1.17761
36 1.21112 0 0 -0.00334916 0.0173154 0.406392
37 3.5992 1.06012 0.0708885 -1.57589 0.266663 0.0468174
38 1.66069 0 0 -0.0151933 0.0325444 0.914061
39 1.16699 0 0 -0.0494041 0.034304 0.501738
40 2.18853 -0.50104 0.0576591 -1.57386 -0.0312417 -0.205937
41 1.29609 0 0 -0.0119772 -0.0452774 0.44746
42 1.62202 -0.000713348 -0.000469208 0.00731888 -0.0201896 1.04187
43 1.22241 0 0 0.0139994 -0.00668215 0.530381
44 1.76707 -1.27612 0.0366411 -1.57633 -0.00352161 -0.230154
45 1.55588 0 0 0.0208001 0.0251036 0.397463
46 1.24273 0 0 0.000596774 0 0.584973
47 0.784532 0 0 -0.0172337 0.00514756 0.735203
48 0 0 0 0 0 0
time 6
0 1.95647 -0.162821 -10.607 0 0 -0.74164
1 6.02795 0 0 -0.653778 0.436238 0.380304
2 11.7344 0 0 -0.00140282 0 -2.22217
3 8.81138 -0.000450134 -0.000113487 -0.25834 0 0.000157231
4 5.77839 0.000284195 0 -0.173088 0 0.000104258
5 2.23163 -0.000328064 -0.000364304 -0.0852522 0 0
6 11.4725 0 0 -0.250364 -0.0645166 -0.263351
7 0.615219 -0.993092 -0.8107 2.54259 0.323366 -0.444856
8 2.24752 0 0 0.203446 0.150685 -0.27557
9 1.11936 0 0 0.18255 0.197745 -0.536889
10 3.71348 -0.102641 0.102191 1.55724 0.311835 0.0673362
11 1.72615 0 0 0.00629691 -0.0228241 -0.63338
12 1.21114 0 0 -0.0043214 0.0170987 -0.845033
13 3.59919 -1.06012 0.0708883 1.55912 0.296593 -0.0661564
14 1.66069 0 0 -0.00428753 0.0709661 -0.528115
15 1.167 0 0 -0.0291539 0.0487038 -0.66396
16 2.18852 0.50104 0.0576591 1.56318 0.0231487 0.209654
17 1.29609 0 0 0.00836554 -0.046081 -0.368417
18 1.62202 0.000713825 -0.000469208 -0.00106554 -0.034721 -0.665317
19 1.22241 0 0 0.0156681 -0.0165265 -0.889952
20 1.76707 1.27612 0.0366404 1.56116 0.0765597 0.232011
21 1.55588 0 0 -0.0237188 0.0223659 -0.520303
22 1.24274 0 0 -0.000595616 0 -0.56178
23 0.784523 0 0 0.0171167 0.0122355 -0.551141
24 -1.93761 -1.34664 -10.5891 -0.000932534 0 -2.28859
25 6.02794 0 0 0.800129 0.274287 -0.430498
26 11.7344 0 0 0.00140269 0 2.29296
27 8.81167 0 0 0.314146 0 0
28 5.77884 0 0 0.210478 0 0
29 2.23249 0 0 0.103668 0 0
30 11.4725 0 0 0.280655 0.293807 -0.0818665
31 0.615812 0.994371 -0.809165 -2.61133 0.257265 0.529196
32 2.24752 0 0 -0.240832 0.0570478 0.283883
33 1.11936 0 0 -0.0912024 0.146462 0.382361
34 3.71349 0.102636 0.102191 -1.57168 0.354531 -0.0690814
35 1.72615 0 0 -0.00490427 -0.0147047 1.0851
36 1.21112 0 0 -0.0042896 0.0171066 0.351751
37 3.5992 1.06012 0.0708885 -1.57065 0.175527 0.0511491
38 1.66069 0 0 -0.00249421 0.0428229 0.838398
39 1.16699 0 0 -0.0291839 0.0341599 0.434003
40 2.18853 -0.501041 0.0576591 -1.57266 -0.0382956 -0.212677
41 1.29609 0 0 -0.00972073 -0.0458144 0.397908
42 1.62202 -0.000713348 -0.000469208 0.00307526 -0.0257292 0.928638
43 1.22241 0 0 0.00504855 -0.00802525 0.540464
44 1.76707 -1.27612 0.0366411 -1.57439 -0.0122433 -0.240709
45 1.55588 0 0 0.0191889 0.0263555 0.334859
46 1.24273 0 0 0.000593835 0 0.541351
47 0.784531 0 0 -0.016103 0.00631875 0.630332
48 0 0 0 0 0 0
time 7
0 1.94646 -0.793514 -10.5974 0 0 -0.74164
1 6.02795 0 0 -0.709538 0.380455 0.343547
2 11.7344 0 0 -0.0014028 0 -2.19662
3 8.81138 -0.000450134 -0.000112057 -0.247769 0 0.000157659
4 5.77839 0.000286102 0 -0.166005 0 0.000104579
5 2.23164 -0.000329971 -0.00036335 -0.0817637 0 0
6 11.4725 0 0 -0.230338 -0.100274 -0.242811
7 0.615219 -0.993092 -0.8107 2.53372 0.301592 -0.472169
8 2.24752 0 0 0.210236 0.142139 -0.232415
9 1.11936 0 0 0.198583 0.170037 -0.408663
10 3.71348 -0.102642 0.102191 1.55994 0.104103 0.0782796
11 1.72615 0 0 0.0109318 -0.0263504 -0.505047
12 1.21114 0 0 -0.000513813 0.0176288 -0.626618
13 3.59919 -1.06012 0.0708883 1.55959 0.0888104 -0.0637384
14 1.66069 0 0 -0.0102345 0.077191 -0.354874
15 1.167 0 0 -0.0318916 0.0313798 -0.396412
16 2.18852 0.501038 0.0576594 1.57004 0.00793661 0.225893
17 1.29609 0 0 0 -0.0468337 -0.186632
18 1.62202 0.000714302 -0.000471115 0.00332695 -0.0399544 -0.51623
19 1.22241 0 0 0.0215146 -0.0100328 -0.674492
20 1.76707 1.27612 0.0366418 1.57004 0.0510505 0.261404
21 1.55588 0 0 -0.0203485 0.0254704 -0.379614
22 1.24274 0 0 -0.00057525 0.000170021 -0.391913
23 0.784523 0 0 0.0134619 0.00920057 -0.311909
24 -1.93761 -1.34664 -10.5891 -0.000932534 0 -2.28859
25 6.02794 0 0 0.812503 0.241467 -0.400836
26 11.7344 0 0 0.00140279 0 2.24443
27 8.81167 0 0 0.281082 0 0
28 5.77884 0 0 0.188325 0 0
29 2.23249 0 0 0.0927572 0 0
30 11.4725 0 0 0.25391 0.271873 -0.0718515
31 0.615813 0.994374 -0.809165 -2.58194 0.244338 0.519269
32 2.24752 0 0 -0.23017 0.0561199 0.28832
33 1.11936 0 0 -0.0995689 0.176166 0.418035
34 3.71349 0.10264 0.102191 -1.5679 0.251689 -0.0726534
35 1.72615 0 0 -0.0101409 -0.017324 0.991591
36 1.21112 0 0 -0.00504496 0.0168991 0.307325
37 3.5992 1.06012 0.070888 -1.56609 0.0917943 0.0552887
38 1.66069 0 0 0.0101271 0.0532395 0.765085
39 1.16699 0 0 -0.00836179 0.0345785 0.375083
40 2.18853 -0.501038 0.0576587 -1.57161 -0.0440938 -0.21822
41 1.29609 0 0 -0.00773043 -0.0461918 0.354634
42 1.62202 -0.00071311 -0.000469208 -0.000951969 -0.0310314 0.815784
43 1.22241 0 0 -0.00414845 -0.00948707 0.55145
44 1.76707 -1.27612 0.0366406 -1.57266 -0.0194151 -0.249386
45 1.55588 0 0 0.017667 0.0273987 0.278246
46 1.24273 0 0 0.000590386 0.000104868 0.503878
47 0.784532 0 0 -0.014966 0.00760205 0.531098
48 0 0 0 0 0 0
time 8
0 1.94018 -1.20161 -10.5913 0 0 -0.74164
1 6.02794 0 0 -0.74382 0.33758 0.318493
2 11.7344 0 0 -0.00140282 0 -2.17114
3 8.81138 -0.000448227 -0.000112057 -0.237466 0 0.000158045
4 5.77839 0.000286102 0 -0.159102 0 0.00010477
5 2.23163 -0.000329971 -0.00036335 -0.0783639 0 0
6 11.4725 0 0 -0.213176 -0.128774 -0.229687
7 0.615219 -0.993092 -0.810699 2.52969 0.29097 -0.485221
8 2.24752 0 0 0.213464 0.137935 -0.211586
9 1.11936 0 0 0.20594 0.156271 -0.346885
10 3.71348 -0.102642 0.102191 1.5598 0.00367697 0.0833207
11 1.72615 0 0 0.0131046 -0.0279012 -0.443003
12 1.21114 0 0 0.00134646 0.0175848 -0.521035
13 3.59919 -1.06012 0.070888 1.55963 -0.0116325 -0.0626144
14 1.66069 0 0 -0.0129717 0.0793771 -0.271077
15 1.167 0 0 -0.0323458 0.022157 -0.267192
16 2.18852 0.501038 0.0576594 1.57318 0.000581548 0.23374
17 1.29609 0 0 -0.00420817 -0.0466444 -0.0987557
18 1.62202 0.000713825 -0.000473022 0.00541535 -0.0421671 -0.44414
19 1.22241 0 0 0.0239785 -0.00674078 -0.570348
20 1.76707 1.27612 0.0366409 1.5738 0.0386994 0.275582
21 1.55588 0 0 -0.0185706 0.0267943 -0.311597
22 1.24273 0 0 -0.000559197 0.000216518 -0.309799
23 0.784523 0 0 0.0114276 0.00753407 -0.196269
24 -1.93761 -1.34664 -10.5891 -0.000932534 0 -2.28859
25 6.02794 0 0 0.819586 0.216314 -0.377758
26 11.7344 0 0 0.00140268 0 2.20377
27 8.81167 0 0 0.251115 0 0
28 5.77884 0 0 0.168247 0 0
29 2.23249 0 0 0.082868 0 0
30 11.4725 0 0 0.229415 0.250905 -0.0621509
31 0.615813 0.99437 -0.809165 -2.55504 0.233036 0.509589
32 2.24752 0 0 -0.220397 0.0557656 0.292079
33 1.11936 0 0 -0.106619 0.203197 0.45117
34 3.71348 0.102636 0.102191 -1.5641 0.164458 -0.075649
35 1.72615 0 0 -0.0145613 -0.0194979 0.909467
36 1.21112 0 0 -0.00560176 0.0167229 0.274221
37 3.5992 1.06011 0.070888 -1.56261 0.0228484 0.0588308
38 1.66069 0 0 0.0210618 0.0623177 0.702402
39 1.16699 0 0 0.0101372 0.0352473 0.328559
40 2.18853 -0.501041 0.0576591 -1.57078 -0.0484568 -0.222393
41 1.29609 0 0 -0.00614337 -0.0464294 0.320358
42 1.62202 -0.000712395 -0.000471115 -0.00432293 -0.0353907 0.717532
43 1.22241 0 0 -0.0123063 -0.0108275 0.561535
44 1.76707 -1.27612 0.0366411 -1.57128 -0.0248121 -0.255917
45 1.55588 0 0 0.0163867 0.0281831 0.232174
46 1.24273 0 0 0.000586943 0.000122104 0.47459
47 0.784534 0 0 -0.013945 0.00876868 0.447649
48 0 0 0 0 0 0
time 9
0 1.938 -1.34664 -10.5891 0 0 -0.74164
1 6.02794 0 0 -0.760055 0.315978 0.302242
2 11.7344 0 0 -0.00140286 0 -2.15154
3 8.81138 -0.000452042 -0.000112534 -0.228323 0 0.00015825
4 5.77839 0.000286102 0 -0.152976 0 0.000104999
5 2.23163 -0.000329971 -0.000363827 -0.0753464 0 0
6 11.4725 0 0 -0.200602 -0.142464 -0.226274
7 0.615219 -0.993092 -0.810699 2.52817 0.286824 -0.490272
8 2.24752 0 0 0.214709 0.136288 -0.203491
9 1.11936 0 0 0.208729 0.150858 -0.322894
10 3.71348 -0.102642 0.102191 1.55951 -0.0353769 0.085283
11 1.72615 0 0 0.0139393 -0.0284762 -0.418873
12 1.21114 0 0 0.00206724 0.0175147 -0.479975
13 3.59919 -1.06012 0.0708885 1.55962 -0.0506936 -0.0621777
14 1.66069 0 0 -0.0140258 0.0800804 -0.238482
15 1.167 0 0 -0.0323931 0.0183992 -0.216967
16 2.18852 0.501038 0.0576591 1.57437 -0.00227874 0.236792
17 1.29609 0 0 -0.00579885 -0.0464736 -0.0645822
18 1.62202 0.000713825 -0.000471115 0.00622573 -0.0429714 -0.416102
19 1.22241 0 0 0.0248767 -0.00542615 -0.52985
20 1.76707 1.27612 0.0366406 1.57517 0.0338952 0.281092
21 1.55588 0 0 -0.0178556 0.027276 -0.285145
22 1.24273 0 0 -0.000551926 0.000234375 -0.277866
23 0.784522 0 0 0.0105848 0.00685741 -0.151299
24 -1.93761 -1.34664 -10.5891 -0.000932534 0 -2.28859
25 6.02794 0 0 0.821872 0.199862 -0.361316
26 11.7344 0 0 0.00140264 0 2.17316
27 8.81167 0 0 0.225858 0 0
28 5.77884 0 0 0.151325 0 0
29 2.23249 0 0 0.0745332 0 0
30 11.4725 0 0 0.20849 0.231575 -0.0539956
31 0.615813 0.994372 -0.809165 -2.53538 0.225026 0.502256
32 2.24752 0 0 -0.213254 0.0557358 0.294684
33 1.11936 0 0 -0.11147 0.222825 0.475642
34 3.71349 0.102638 0.102191 -1.56114 0.103962 -0.0777361
35 1.72615 0 0 -0.0176087 -0.0209636 0.851109
36 1.21112 0 0 -0.00594623 0.0166036 0.253546
37 3.5992 1.06012 0.070888 -1.56041 -0.0239297 0.0613314
38 1.66069 0 0 0.0287595 0.0687152 0.658674
39 1.16699 0 0 0.0233907 0.035871 0.298015
40 2.18853 -0.501041 0.0576591 -1.57023 -0.0512056 -0.225023
41 1.29609 0 0 -0.00509475 -0.0465558 0.297798
42 1.62202 -0.000713348 -0.000471115 -0.0066468 -0.0383089 0.648128
43 1.2224 0 0 -0.0181421 -0.0118067 0.56891
44 1.76707 -1.27612 0.0366416 -1.57037 -0.0282128 -0.260033
45 1.55588 0 0 0.0155058 0.028677 0.201193
46 1.24273 0 0 0.000584533 0.000133422 0.455524
47 0.784533 0 0 -0.0132024 0.00961841 0.390136
48 0 0 0 0 0 0
time 10
0 1.938 -1.34664 -10.5891 0 0 -0.74164
1 6.02794 0 0 -0.765262 0.311157 0.294061
2 11.7344 0 0 -0.00140278 0 -2.14257
3 8.81138 -0.000450134 -0.00011301 -0.22284 0 0.000158393
4 5.77839 0.000286102 0 -0.149303 0 0.000105162
5 2.23163 -0.000329971 -0.000363827 -0.0735371 0 0
6 11.4725 0 0 -0.194448 -0.144107 -0.227381
7 0.615219 -0.99309 -0.8107 2.52839 0.287416 -0.489551
8 2.24752 0 0 0.214532 0.136524 -0.204647
9 1.11936 0 0 0.208333 0.151633 -0.32632
10 3.71348 -0.102638 0.102191 1.55956 -0.029798 0.0850023
11 1.72615 0 0 0.0138205 -0.0283949 -0.42232
12 1.21114 0 0 0.00196437 0.0175265 -0.485841
13 3.59919 -1.06012 0.0708878 1.55962 -0.0451136 -0.0622401
14 1.66069 0 0 -0.0138752 0.079985 -0.243138
15 1.167 0 0 -0.0323904 0.018942 -0.224141
16 2.18852 0.50104 0.0576591 1.5742 -0.00187028 0.236356
17 1.29609 0 0 -0.00557178 -0.0465015 -0.0694641
18 1.62202 0.000713825 -0.000473022 0.00610978 -0.0428585 -0.420107
19 1.22241 0 0 0.0247501 -0.00561524 -0.535635
20 1.76707 1.27612 0.0366406 1.57498 0.0345813 0.280305
21 1.55588 0 0 -0.0179585 0.0272082 -0.288924
22 1.24273 0 0 -0.000552934 0.000231799 -0.282428
23 0.784523 0 0 0.0107069 0.00695494 -0.157723
24 -1.93761 -1.34664 -10.5891 -0.000932534 0 -2.28859
25 6.02794 0 0 0.819037 0.192309 -0.350542
26 11.7344 0 0 0.00140266 0 2.15252
27 8.81167 0 0 0.202353 0 0
28 5.77884 0 0 0.135577 0 0
29 2.23249 0 0 0.0667767 0 0
30 11.4725 0 0 0.18852 0.211144 -0.0479104
31 0.615813 0.994373 -0.809165 -2.52776 0.221983 0.499348
32 2.24752 0 0 -0.210486 0.0557812 0.295658
33 1.11936 0 0 -0.113276 0.230403 0.485186
34 3.71349 0.10264 0.102191 -1.55996 0.0813258 -0.0785279
35 1.72615 0 0 -0.0187483 -0.0215029 0.828904
36 1.21112 0 0 -0.00606453 0.0165608 0.246409
37 3.5992 1.06012 0.0708876 -1.55962 -0.0411617 0.0622841
38 1.66069 0 0 0.0316754 0.0711427 0.642246
39 1.16699 0 0 0.0284644 0.0361498 0.287037
40 2.18853 -0.501038 0.0576591 -1.57004 -0.0521617 -0.225938
41 1.29609 0 0 -0.00471682 -0.0465957 0.289675
42 1.62202 -0.000712872 -0.000469208 -0.00751862 -0.0393819 0.621827
43 1.2224 0 0 -0.0203723 -0.0121864 0.57177
44 1.76707 -1.27612 0.0366411 -1.57004 -0.0293957 -0.261465
45 1.55588 0 0 0.0151799 0.028851 0.189855
46 1.24273 0 0 0.0005836 0.000137415 0.448716
47 0.784532 0 0 -0.0129177 0.00995001 0.36871
48 0 0 0 0 0 0
time 11
0 1.938 -1.34664 -10.5891 0 0 -0.74164
1 6.02794 0 0 -0.764373 0.317168 0.297315
2 11.7344 0 0 -0.00140284 0 -2.14898
3 8.81138 -0.000450134 -0.000112534 -0.224814 0 0.000157731
4 5.77839 0.000284195 0 -0.150625 0 0.000104521
5 2.23163 -0.000329971 -0.00036478 -0.0741885 0 0
6 11.4725 0 0 -0.197831 -0.138973 -0.226721
7 0.615218 -0.993091 -0.810699 2.52969 0.29097 -0.485221
8 2.24752 0 0 0.213464 0.137935 -0.211586
9 1.11936 0 0 0.20594 0.156271 -0.346885
10 3.71348 -0.102642 0.102191 1.5598 0.0036768 0.0833209
11 1.72615 0 0 0.0131047 -0.027901 -0.443003
12 1.21114 0 0 0.00134646 0.0175847 -0.521035
13 3.59919 -1.06012 0.0708878 1.55963 -0.0116326 -0.0626143
14 1.66069 0 0 -0.0129715 0.079377 -0.271077
15 1.167 0 0 -0.0323459 0.0221568 -0.267192
16 2.18852 0.50104 0.0576594 1.57318 0.000581421 0.23374
17 1.29609 0 0 -0.00420804 -0.0466445 -0.0987557
18 1.62202 0.000714302 -0.000473022 0.00541523 -0.0421672 -0.44414
19 1.22241 0 0 0.0239784 -0.00674094 -0.570348
20 1.76707 1.27612 0.0366416 1.5738 0.0386992 0.275582
21 1.55588 0 0 -0.0185704 0.0267943 -0.311597
22 1.24273 0 0 -0.000559389 0.000216593 -0.309799
23 0.784523 0 0 0.0114274 0.00753399 -0.196269
24 -1.93761 -1.34664 -10.5891 -0.000932534 0 -2.28859
25 6.02794 0 0 0.812658 0.19046 -0.34291
26 11.7344 0 0 0.00140269 0 2.13716
27 8.81167 0 0 0.178879 0 0
28 5.77884 0 0 0.119849 0 0
29 2.23249 0 0 0.05903 0 0
30 11.4725 0 0 0.168184 0.188954 -0.0423723
31 0.615813 0.994373 -0.809165 -2.52776 0.221983 0.499348
32 2.24752 0 0 -0.210486 0.0557812 0.295658
33 1.11936 0 0 -0.113276 0.230403 0.485186
34 3.71349 0.102638 0.10219 -1.55996 0.0813257 -0.078528
35 1.72615 0 0 -0.0187484 -0.021503 0.828904
36 1.21112 0 0 -0.00606467 0.0165607 0.246409
37 3.5992 1.06012 0.070888 -1.55962 -0.0411616 0.062284
38 1.66069 0 0 0.0316755 0.0711426 0.642246
39 1.16699 0 0 0.0284643 0.0361497 0.287037
40 2.18853 -0.501038 0.0576596 -1.57004 -0.0521618 -0.225938
41 1.29609 0 0 -0.0047166 -0.0465958 0.289674
42 1.62202 -0.000712872 -0.000471115 -0.00751889 -0.0393816 0.621827
43 1.22241 0 0 -0.0203723 -0.0121865 0.57177
44 1.76707 -1.27612 0.0366416 -1.57004 -0.0293958 -0.261465
45 1.55588 0 0 0.0151799 0.028851 0.189855
46 1.24273 0 0 0.00058346 0.000137202 0.448716
47 0.784532 0 0 -0.0129176 0.00995 0.36871
48 0 0 0 0 0 0
time 12
0 1.938 -1.34664 -10.5891 0 0 -0.74164
1 6.02794 0 0 -0.760075 0.328455 0.306604
2 11.7344 0 0 -0.00140277 0 -2.16301
3 8.81138 -0.000448227 -0.000112057 -0.230701 0 0.000158175
4 5.77839 0.000286102 0 -0.15457 0 0.000104884
5 2.23163 -0.000328064 -0.000364304 -0.0761313 0 0
6 11.4725 0 0 -0.206059 -0.130749 -0.225264
7 0.615219 -0.993092 -0.8107 2.53146 0.295698 -0.479432
8 2.24752 0 0 0.212034 0.139809 -0.220841
9 1.11936 0 0 0.202703 0.162417 -0.374326
10 3.71348 -0.102644 0.102191 1.55997 0.0483107 0.0810842
11 1.72615 0 0 0.0121437 -0.0272246 -0.470579
12 1.21114 0 0 0.000520358 0.0176285 -0.567961
13 3.59919 -1.06012 0.0708878 1.55963 0.0330089 -0.0631129
14 1.66069 0 0 -0.0117613 0.0784724 -0.308323
15 1.167 0 0 -0.0322059 0.026332 -0.324612
16 2.18852 0.501038 0.0576589 1.5718 0.00385066 0.230252
17 1.29609 0 0 -0.00238422 -0.046773 -0.137812
18 1.62202 0.000713348 -0.000471115 0.00448851 -0.0412093 -0.476181
19 1.22241 0 0 0.0229114 -0.008219 -0.616633
20 1.76707 1.27612 0.0366414 1.57217 0.0441899 0.269282
21 1.55588 0 0 -0.0193719 0.0262209 -0.341827
22 1.24273 0 0 -0.000566593 0.000196069 -0.346295
23 0.784524 0 0 0.0123545 0.00828848 -0.247664
24 -1.93761 -1.34664 -10.5891 -0.000932534 0 -2.28859
25 6.02794 0 0 0.805218 0.191992 -0.33803
26 11.7344 0 0 0.0014026 0 2.12685
27 8.81167 0 0 0.158682 0 0
28 5.77884 0 0 0.106317 0 0
29 2.23249 0 0 0.0523652 0 0
30 11.4725 0 0 0.150377 0.168624 -0.0378126
31 0.615813 0.994373 -0.809165 -2.52776 0.221983 0.499348
32 2.24752 0 0 -0.210486 0.0557812 0.295658
33 1.11936 0 0 -0.113276 0.230403 0.485185
34 3.71349 0.10264 0.102191 -1.55996 0.0813258 -0.0785279
35 1.72615 0 0 -0.0187483 -0.021503 0.828904
36 1.21112 0 0 -0.00606454 0.0165608 0.246409
37 3.5992 1.06012 0.070888 -1.55962 -0.0411617 0.062284
38 1.66069 0 0 0.0316755 0.0711427 0.642246
39 1.16699 0 0 0.0284644 0.0361497 0.287037
40 2.18853 -0.50104 0.0576591 -1.57004 -0.0521618 -0.225938
41 1.29609 0 0 -0.00471678 -0.0465959 0.289675
42 1.62202 -0.000713348 -0.000469208 -0.00751865 -0.0393817 0.621827
43 1.2224 0 0 -0.0203724 -0.0121866 0.57177
44 1.76707 -1.27612 0.0366411 -1.57004 -0.0293956 -0.261465
45 1.55588 0 0 0.0151799 0.0288511 0.189855
46 1.24273 0 0 0.000583443 0.000137328 0.448716
47 0.784534 0 0 -0.0129176 0.0099499 0.36871
48 0 0 0 0 0 0
time 13
0 1.938 -1.34664 -10.5891 0 0 -0.74164
1 6.02794 0 0 -0.755165 0.339296 0.316352
2 11.7344 0 0 -0.00140282 0 -2.17657
3 8.81138 -0.000450134 -0.000112057 -0.236923 0 0.000157923
4 5.77839 0.000286102 0 -0.158738 0 0.000104624
5 2.23163 -0.000329971 -0.000364304 -0.0781845 0 0
6 11.4725 0 0 -0.21442 -0.123135 -0.224117
7 0.615219 -0.993091 -0.8107 2.53303 0.299826 -0.474351
8 2.24752 0 0 0.210777 0.141441 -0.228943
9 1.11936 0 0 0.199828 0.167758 -0.398357
10 3.71348 -0.10264 0.102191 1.55998 0.0873653 0.0791235
11 1.72615 0 0 0.011297 -0.0266158 -0.494707
12 1.21114 0 0 -0.000203871 0.0176351 -0.609021
13 3.59919 -1.06012 0.070888 1.5596 0.0720698 -0.06355
14 1.66069 0 0 -0.0106945 0.077593 -0.34091
15 1.167 0 0 -0.0320028 0.0298849 -0.374869
16 2.18852 0.50104 0.0576587 1.57057 0.00671057 0.227201
17 1.29609 0 0 -0.000785233 -0.0468271 -0.171986
18 1.62202 0.00071454 -0.000473022 0.00367596 -0.0403377 -0.504216
19 1.22241 0 0 0.0219412 -0.00949244 -0.657135
20 1.76707 1.27612 0.0366411 1.57069 0.0489924 0.263768
21 1.55588 0 0 -0.0200584 0.0256995 -0.368278
22 1.24274 0 0 -0.000572646 0.000177913 -0.378228
23 0.784522 0 0 0.0131356 0.00893078 -0.292635
24 -1.93761 -1.34664 -10.5891 -0.000932534 0 -2.28859
25 6.02794 0 0 0.799056 0.194518 -0.335396
26 11.7344 0 0 0.0014027 0 2.12089
27 8.81167 0 0 0.144566 0 0
28 5.77884 0 0 0.0968591 0 0
29 2.23249 0 0 0.0477067 0 0
30 11.4725 0 0 0.137774 0.153755 -0.0345725
31 0.615812 0.994371 -0.809165 -2.52776 0.221983 0.499348
32 2.24752 0 0 -0.210486 0.0557812 0.295658
33 1.11936 0 0 -0.113276 0.230403 0.485186
34 3.71349 0.102638 0.102191 -1.55996 0.0813257 -0.078528
35 1.72615 0 0 -0.0187483 -0.021503 0.828904
36 1.21112 0 0 -0.0060646 0.0165609 0.246409
37 3.5992 1.06012 0.0708871 -1.55962 -0.0411618 0.0622838
38 1.66069 0 0 0.0316754 0.0711427 0.642246
39 1.16699 0 0 0.0284644 0.0361497 0.287037
40 2.18853 -0.501041 0.0576591 -1.57004 -0.0521618 -0.225938
41 1.29609 0 0 -0.00471665 -0.0465958 0.289675
42 1.62202 -0.000712872 -0.000471115 -0.00751862 -0.0393817 0.621827
43 1.2224 0 0 -0.0203724 -0.0121864 0.57177
44 1.76707 -1.27612 0.0366406 -1.57004 -0.0293956 -0.261465
45 1.55588 0 0 0.0151797 0.028851 0.189855
46 1.24273 0 0 0.000583502 0.000137253 0.448716
47 0.784531 0 0 -0.0129177 0.00994977 0.36871
48 0 0 0 0 0 0
time 14
0 1.938 -1.34664 -10.5891 0 0 -0.74164
1 6.02794 0 0 -0.752742 0.344259 0.321024
2 11.7344 0 0 -0.00140283 0 -2.18298
3 8.81138 -0.000450134 -0.000112534 -0.239801 0 0.00015843
4 5.77839 0.000284195 0 -0.160666 0 0.000105056
5 2.23163 -0.000329971 -0.000364304 -0.0791341 0 0
6 11.4725 0 0 -0.21824 -0.11979 -0.223497
7 0.615219 -0.993092 -0.810699 2.53372 0.301592 -0.472169
8 2.24752 0 0 0.210236 0.142139 -0.232416
9 1.11936 0 0 0.198583 0.170036 -0.408663
10 3.71348 -0.10264 0.102191 1.55994 0.104103 0.0782797
11 1.72615 0 0 0.0109318 -0.0263504 -0.505047
12 1.21114 0 0 -0.00051405 0.0176288 -0.626618
13 3.59919 -1.06012 0.0708885 1.55959 0.0888103 -0.0637383
14 1.66069 0 0 -0.0102344 0.077191 -0.354874
15 1.167 0 0 -0.0318915 0.03138 -0.396412
16 2.18852 0.50104 0.0576596 1.57004 0.00793672 0.225893
17 1.29609 0 0 0 -0.0468336 -0.186632
18 1.62202 0.000714064 -0.000471115 0.00332706 -0.0399543 -0.51623
19 1.22241 0 0 0.0215147 -0.0100329 -0.674493
20 1.76707 1.27612 0.0366406 1.57004 0.0510506 0.261404
21 1.55588 0 0 -0.0203487 0.0254706 -0.379614
22 1.24273 0 0 -0.000575122 0.000169986 -0.391913
23 0.784523 0 0 0.0134619 0.0092006 -0.311909
24 -1.93761 -1.34664 -10.5891 -0.000932534 0 -2.28859
25 6.02794 0 0 0.796464 0.195923 -0.334688
26 11.7344 0 0 0.00140272 0 2.1192
27 8.81167 0 0 0.139257 0 0
28 5.77884 0 0 0.0933018 0 0
29 2.23249 0 0 0.0459547 0 0
30 11.4725 0 0 0.132984 0.147984 -0.0334567
31 0.615813 0.99437 -0.809166 -2.52776 0.221983 0.499348
32 2.24752 0 0 -0.210486 0.0557812 0.295658
33 1.11936 0 0 -0.113276 0.230403 0.485186
34 3.71349 0.102636 0.10219 -1.55996 0.0813258 -0.0785279
35 1.72615 0 0 -0.0187485 -0.021503 0.828904
36 1.21112 0 0 -0.00606464 0.0165608 0.246409
37 3.5992 1.06012 0.070888 -1.55962 -0.0411616 0.062284
38 1.66069 0 0 0.0316755 0.0711426 0.642246
39 1.16699 0 0 0.0284645 0.0361498 0.287037
40 2.18853 -0.501041 0.0576591 -1.57004 -0.0521616 -0.225938
41 1.29609 0 0 -0.00471663 -0.0465958 0.289674
42 1.62202 -0.000712872 -0.000469208 -0.00751877 -0.0393817 0.621827
43 1.2224 0 0 -0.0203724 -0.0121864 0.571769
44 1.76707 -1.27612 0.0366411 -1.57004 -0.0293957 -0.261465
45 1.55588 0 0 0.0151799 0.028851 0.189855
46 1.24273 0 0 0.000583443 0.000137328 0.448716
47 0.784532 0 0 -0.0129176 0.00994995 0.36871
48 0 0 0 0 0 0
end
