//Sequence File generated by the Wall Worm SMD Exporter PRO 1.99
//www.wallworm.com
version 1
nodes
0 "b_l_clav" -1
1 "b_l_upperarm" 0
2 "b_l_forearm" 1
3 "b_l_twist3" 2
4 "b_l_twist2" 2
5 "b_l_twist1" 2
6 "b_l_hand" 2
7 "b_l_thumb001" 6
8 "b_l_thumb002" 7
9 "b_l_thumb003" 8
10 "b_l_middle001" 6
11 "b_l_middle002" 10
12 "b_l_middle003" 11
13 "b_l_index001" 6
14 "b_l_index002" 13
15 "b_l_index003" 14
16 "b_l_hand_ringsqueezer" 6
17 "b_l_ring001" 16
18 "b_l_ring002" 17
19 "b_l_ring003" 18
20 "b_l_hand_pinkysqueezer" 6
21 "b_l_pinky001" 20
22 "b_l_pinky002" 21
23 "b_l_pinky003" 22
24 "b_r_clav" -1
25 "b_r_upperarm" 24
26 "b_r_forearm" 25
27 "b_r_twist3" 26
28 "b_r_twist2" 26
29 "b_r_twist1" 26
30 "b_r_hand" 26
31 "b_r_thumb001" 30
32 "b_r_thumb002" 31
33 "b_r_thumb003" 32
34 "b_r_middle001" 30
35 "b_r_middle002" 34
36 "b_r_middle003" 35
37 "b_r_index001" 30
38 "b_r_index002" 37
39 "b_r_index003" 38
40 "b_r_hand_ringsqueezer" 30
41 "b_r_ring001" 40
42 "b_r_ring002" 41
43 "b_r_ring003" 42
44 "b_r_hand_pinkysqueezer" 30
45 "b_r_pinky001" 44
46 "b_r_pinky002" 45
47 "b_r_pinky003" 46
48 "b_zero" -1
end
skeleton
time 0
0 1.938 -1.34664 -10.5891 0 0 -0.74164
1 6.02794 0 0 -1.02035 0.527737 0.0808827
2 11.7344 0 0 -0.00140299 0 -2.23171
3 8.81138 -0.000448227 -0.000111818 -0.526871 0 0.000157969
4 5.77839 0.000286102 0 -0.353003 0 0.000103592
5 2.23163 -0.000329971 -0.000363827 -0.173867 0 0
6 11.4725 0 0 -0.528287 -0.220096 0.0671518
7 0.61522 -0.993091 -0.8107 2.48067 0.119291 -0.723802
8 2.24752 0 0 0.220296 0.0664475 0.0649406
9 1.11936 0 0 0.177922 0.0768779 -0.120435
10 3.71348 -0.102641 0.102191 1.55977 -0.201795 0.0816181
11 1.72615 0 0 0.00248676 -0.0284191 -0.199022
12 1.21114 0 0 0.00481929 0.016965 -0.320656
13 3.59919 -1.06012 0.0708876 1.55936 -0.217087 -0.0602815
14 1.66069 0 0 0.012272 0.0695705 -0.0482202
15 1.167 0 0 -0.0166714 0.0247501 -0.0905153
16 2.18852 0.50104 0.0576591 1.57004 0.00793672 0.225893
17 1.29609 0 0 -0.0142092 -0.0446277 0.119599
18 1.62202 0.000713825 -0.000471115 -0.00886653 -0.0391003 -0.210074
19 1.22241 0 0 0.0142301 -0.00896698 -0.368595
20 1.76707 1.27612 0.0366411 1.57004 0.0510505 0.261404
21 1.55588 0 0 -0.0117318 0.0304159 -0.0736172
22 1.24273 0 0 -0.000497075 0.000335319 -0.0859969
23 0.784523 0 0 0.0156076 0.00471936 -0.00601768
24 -1.93761 -1.34664 -10.5891 -0.000932534 0 -2.28859
25 6.02794 0 0 1.09006 0.455362 -0.27661
26 11.7344 0 0 0.00140271 0 2.35777
27 8.81167 0 0 0.639509 0 0
28 5.77884 0 0 0.428471 0 0
29 2.23249 0 0 0.211038 0 0
30 11.4725 0 0 0.677992 -0.128522 -0.282634
31 0.615812 0.994372 -0.809166 -2.49743 0.0744555 0.703463
32 2.24752 0 0 -0.204226 0.00232429 0.0518021
33 1.11936 0 0 -0.132133 0.168472 0.240035
34 3.71349 0.102639 0.10219 -1.55984 -0.168533 -0.0812463
35 1.72615 0 0 -0.0128484 -0.025471 0.578993
36 1.21112 0 0 -0.0099716 0.0145468 -0.00348703
37 3.5992 1.06012 0.0708876 -1.55914 -0.291019 0.0593995
38 1.66069 0 0 0.0122584 0.0719991 0.391734
39 1.16699 0 0 0.0148817 0.0323129 0.0370955
40 2.18853 -0.50104 0.0576582 -1.57004 -0.0521616 -0.225938
41 1.29609 0 0 0.00696042 -0.0463138 0.03953
42 1.62202 -0.000713348 -0.000471115 0.00245829 -0.0400174 0.371756
43 1.22241 0 0 -0.0142986 -0.0121249 0.321896
44 1.76707 -1.27612 0.0366402 -1.57004 -0.0293956 -0.261465
45 1.55588 0 0 0.00757231 0.0317085 -0.0601171
46 1.24273 0 0 0.000531493 0.000277394 0.198843
47 0.784532 0 0 -0.0149767 0.00644666 0.118852
48 0 0 0 0 0 0
time 1
0 1.938 -1.34664 -10.5891 0 0 -0.74164
1 6.02794 0 0 -1.02035 0.527737 0.0808827
2 11.7344 0 0 -0.00140299 0 -2.23171
3 8.81138 -0.000448227 -0.000111818 -0.526871 0 0.000157969
4 5.77839 0.000286102 0 -0.353003 0 0.000103592
5 2.23163 -0.000329971 -0.000363827 -0.173867 0 0
6 11.4725 0 0 -0.528287 -0.220096 0.0671518
7 0.61522 -0.993091 -0.8107 2.48067 0.119291 -0.723802
8 2.24752 0 0 0.220296 0.0664475 0.0649406
9 1.11936 0 0 0.177922 0.0768779 -0.120435
10 3.71348 -0.102641 0.102191 1.55977 -0.201795 0.0816181
11 1.72615 0 0 0.00248676 -0.0284191 -0.199022
12 1.21114 0 0 0.00481929 0.016965 -0.320656
13 3.59919 -1.06012 0.0708876 1.55936 -0.217087 -0.0602815
14 1.66069 0 0 0.012272 0.0695705 -0.0482202
15 1.167 0 0 -0.0166714 0.0247501 -0.0905153
16 2.18852 0.50104 0.0576591 1.57004 0.00793672 0.225893
17 1.29609 0 0 -0.0142092 -0.0446277 0.119599
18 1.62202 0.000713825 -0.000471115 -0.00886653 -0.0391003 -0.210074
19 1.22241 0 0 0.0142301 -0.00896698 -0.368595
20 1.76707 1.27612 0.0366411 1.57004 0.0510505 0.261404
21 1.55588 0 0 -0.0117318 0.0304159 -0.0736172
22 1.24273 0 0 -0.000497075 0.000335319 -0.0859969
23 0.784523 0 0 0.0156076 0.00471936 -0.00601768
24 -1.93761 -1.34664 -10.5891 -0.000932534 0 -2.28859
25 6.02794 0 0 1.09006 0.455362 -0.27661
26 11.7344 0 0 0.00140271 0 2.35777
27 8.81167 0 0 0.639509 0 0
28 5.77884 0 0 0.428471 0 0
29 2.23249 0 0 0.211038 0 0
30 11.4725 0 0 0.677992 -0.128522 -0.282634
31 0.615812 0.994372 -0.809166 -2.49743 0.0744555 0.703463
32 2.24752 0 0 -0.204226 0.00232429 0.0518021
33 1.11936 0 0 -0.132133 0.168472 0.240035
34 3.71349 0.102639 0.10219 -1.55984 -0.168533 -0.0812463
35 1.72615 0 0 -0.0128484 -0.025471 0.578993
36 1.21112 0 0 -0.0099716 0.0145468 -0.00348703
37 3.5992 1.06012 0.0708876 -1.55914 -0.291019 0.0593995
38 1.66069 0 0 0.0122584 0.0719991 0.391734
39 1.16699 0 0 0.0148817 0.0323129 0.0370955
40 2.18853 -0.50104 0.0576582 -1.57004 -0.0521616 -0.225938
41 1.29609 0 0 0.00696042 -0.0463138 0.03953
42 1.62202 -0.000713348 -0.000471115 0.00245829 -0.0400174 0.371756
43 1.22241 0 0 -0.0142986 -0.0121249 0.321896
44 1.76707 -1.27612 0.0366402 -1.57004 -0.0293956 -0.261465
45 1.55588 0 0 0.00757231 0.0317085 -0.0601171
46 1.24273 0 0 0.000531493 0.000277394 0.198843
47 0.784532 0 0 -0.0149767 0.00644666 0.118852
48 0 0 0 0 0 0
time 2
0 1.938 -1.34664 -10.5891 0 0 -0.74164
1 6.02794 0 0 -1.02035 0.527737 0.0808827
2 11.7344 0 0 -0.00140299 0 -2.23171
3 8.81138 -0.000448227 -0.000111818 -0.526871 0 0.000157969
4 5.77839 0.000286102 0 -0.353003 0 0.000103592
5 2.23163 -0.000329971 -0.000363827 -0.173867 0 0
6 11.4725 0 0 -0.528287 -0.220096 0.0671518
7 0.61522 -0.993091 -0.8107 2.48067 0.119291 -0.723802
8 2.24752 0 0 0.220296 0.0664475 0.0649406
9 1.11936 0 0 0.177922 0.0768779 -0.120435
10 3.71348 -0.102641 0.102191 1.55977 -0.201795 0.0816181
11 1.72615 0 0 0.00248676 -0.0284191 -0.199022
12 1.21114 0 0 0.00481929 0.016965 -0.320656
13 3.59919 -1.06012 0.0708876 1.55936 -0.217087 -0.0602815
14 1.66069 0 0 0.012272 0.0695705 -0.0482202
15 1.167 0 0 -0.0166714 0.0247501 -0.0905153
16 2.18852 0.50104 0.0576591 1.57004 0.00793672 0.225893
17 1.29609 0 0 -0.0142092 -0.0446277 0.119599
18 1.62202 0.000713825 -0.000471115 -0.00886653 -0.0391003 -0.210074
19 1.22241 0 0 0.0142301 -0.00896698 -0.368595
20 1.76707 1.27612 0.0366411 1.57004 0.0510505 0.261404
21 1.55588 0 0 -0.0117318 0.0304159 -0.0736172
22 1.24273 0 0 -0.000497075 0.000335319 -0.0859969
23 0.784523 0 0 0.0156076 0.00471936 -0.00601768
24 -1.93761 -1.34664 -10.5891 -0.000932534 0 -2.28859
25 6.02794 0 0 1.09006 0.455362 -0.27661
26 11.7344 0 0 0.00140271 0 2.35777
27 8.81167 0 0 0.639509 0 0
28 5.77884 0 0 0.428471 0 0
29 2.23249 0 0 0.211038 0 0
30 11.4725 0 0 0.677992 -0.128522 -0.282634
31 0.615812 0.994372 -0.809166 -2.49743 0.0744555 0.703463
32 2.24752 0 0 -0.204226 0.00232429 0.0518021
33 1.11936 0 0 -0.132133 0.168472 0.240035
34 3.71349 0.102639 0.10219 -1.55984 -0.168533 -0.0812463
35 1.72615 0 0 -0.0128484 -0.025471 0.578993
36 1.21112 0 0 -0.0099716 0.0145468 -0.00348703
37 3.5992 1.06012 0.0708876 -1.55914 -0.291019 0.0593995
38 1.66069 0 0 0.0122584 0.0719991 0.391734
39 1.16699 0 0 0.0148817 0.0323129 0.0370955
40 2.18853 -0.50104 0.0576582 -1.57004 -0.0521616 -0.225938
41 1.29609 0 0 0.00696042 -0.0463138 0.03953
42 1.62202 -0.000713348 -0.000471115 0.00245829 -0.0400174 0.371756
43 1.22241 0 0 -0.0142986 -0.0121249 0.321896
44 1.76707 -1.27612 0.0366402 -1.57004 -0.0293956 -0.261465
45 1.55588 0 0 0.00757231 0.0317085 -0.0601171
46 1.24273 0 0 0.000531493 0.000277394 0.198843
47 0.784532 0 0 -0.0149767 0.00644666 0.118852
48 0 0 0 0 0 0
time 3
0 1.938 -1.34664 -10.5891 0 0 -0.74164
1 6.02794 0 0 -1.02035 0.527737 0.0808827
2 11.7344 0 0 -0.00140299 0 -2.23171
3 8.81138 -0.000448227 -0.000111818 -0.526871 0 0.000157969
4 5.77839 0.000286102 0 -0.353003 0 0.000103592
5 2.23163 -0.000329971 -0.000363827 -0.173867 0 0
6 11.4725 0 0 -0.528287 -0.220096 0.0671518
7 0.61522 -0.993091 -0.8107 2.48067 0.119291 -0.723802
8 2.24752 0 0 0.220296 0.0664475 0.0649406
9 1.11936 0 0 0.177922 0.0768779 -0.120435
10 3.71348 -0.102641 0.102191 1.55977 -0.201795 0.0816181
11 1.72615 0 0 0.00248676 -0.0284191 -0.199022
12 1.21114 0 0 0.00481929 0.016965 -0.320656
13 3.59919 -1.06012 0.0708876 1.55936 -0.217087 -0.0602815
14 1.66069 0 0 0.012272 0.0695705 -0.0482202
15 1.167 0 0 -0.0166714 0.0247501 -0.0905153
16 2.18852 0.50104 0.0576591 1.57004 0.00793672 0.225893
17 1.29609 0 0 -0.0142092 -0.0446277 0.119599
18 1.62202 0.000713825 -0.000471115 -0.00886653 -0.0391003 -0.210074
19 1.22241 0 0 0.0142301 -0.00896698 -0.368595
20 1.76707 1.27612 0.0366411 1.57004 0.0510505 0.261404
21 1.55588 0 0 -0.0117318 0.0304159 -0.0736172
22 1.24273 0 0 -0.000497075 0.000335319 -0.0859969
23 0.784523 0 0 0.0156076 0.00471936 -0.00601768
24 -1.93761 -1.34664 -10.5891 -0.000932534 0 -2.28859
25 6.02794 0 0 1.09006 0.455362 -0.27661
26 11.7344 0 0 0.00140271 0 2.35777
27 8.81167 0 0 0.639509 0 0
28 5.77884 0 0 0.428471 0 0
29 2.23249 0 0 0.211038 0 0
30 11.4725 0 0 0.677992 -0.128522 -0.282634
31 0.615812 0.994372 -0.809166 -2.49743 0.0744555 0.703463
32 2.24752 0 0 -0.204226 0.00232429 0.0518021
33 1.11936 0 0 -0.132133 0.168472 0.240035
34 3.71349 0.102639 0.10219 -1.55984 -0.168533 -0.0812463
35 1.72615 0 0 -0.0128484 -0.025471 0.578993
36 1.21112 0 0 -0.0099716 0.0145468 -0.00348703
37 3.5992 1.06012 0.0708876 -1.55914 -0.291019 0.0593995
38 1.66069 0 0 0.0122584 0.0719991 0.391734
39 1.16699 0 0 0.0148817 0.0323129 0.0370955
40 2.18853 -0.50104 0.0576582 -1.57004 -0.0521616 -0.225938
41 1.29609 0 0 0.00696042 -0.0463138 0.03953
42 1.62202 -0.000713348 -0.000471115 0.00245829 -0.0400174 0.371756
43 1.22241 0 0 -0.0142986 -0.0121249 0.321896
44 1.76707 -1.27612 0.0366402 -1.57004 -0.0293956 -0.261465
45 1.55588 0 0 0.00757231 0.0317085 -0.0601171
46 1.24273 0 0 0.000531493 0.000277394 0.198843
47 0.784532 0 0 -0.0149767 0.00644666 0.118852
48 0 0 0 0 0 0
time 4
0 1.938 -1.34664 -10.5891 0 0 -0.74164
1 6.02794 0 0 -1.02035 0.527737 0.0808827
2 11.7344 0 0 -0.00140299 0 -2.23171
3 8.81138 -0.000448227 -0.000111818 -0.526871 0 0.000157969
4 5.77839 0.000286102 0 -0.353003 0 0.000103592
5 2.23163 -0.000329971 -0.000363827 -0.173867 0 0
6 11.4725 0 0 -0.528287 -0.220096 0.0671518
7 0.61522 -0.993091 -0.8107 2.48067 0.119291 -0.723802
8 2.24752 0 0 0.220296 0.0664475 0.0649406
9 1.11936 0 0 0.177922 0.0768779 -0.120435
10 3.71348 -0.102641 0.102191 1.55977 -0.201795 0.0816181
11 1.72615 0 0 0.00248676 -0.0284191 -0.199022
12 1.21114 0 0 0.00481929 0.016965 -0.320656
13 3.59919 -1.06012 0.0708876 1.55936 -0.217087 -0.0602815
14 1.66069 0 0 0.012272 0.0695705 -0.0482202
15 1.167 0 0 -0.0166714 0.0247501 -0.0905153
16 2.18852 0.50104 0.0576591 1.57004 0.00793672 0.225893
17 1.29609 0 0 -0.0142092 -0.0446277 0.119599
18 1.62202 0.000713825 -0.000471115 -0.00886653 -0.0391003 -0.210074
19 1.22241 0 0 0.0142301 -0.00896698 -0.368595
20 1.76707 1.27612 0.0366411 1.57004 0.0510505 0.261404
21 1.55588 0 0 -0.0117318 0.0304159 -0.0736172
22 1.24273 0 0 -0.000497075 0.000335319 -0.0859969
23 0.784523 0 0 0.0156076 0.00471936 -0.00601768
24 -1.93761 -1.34664 -10.5891 -0.000932534 0 -2.28859
25 6.02794 0 0 1.09006 0.455362 -0.27661
26 11.7344 0 0 0.00140271 0 2.35777
27 8.81167 0 0 0.639509 0 0
28 5.77884 0 0 0.428471 0 0
29 2.23249 0 0 0.211038 0 0
30 11.4725 0 0 0.677992 -0.128522 -0.282634
31 0.615812 0.994372 -0.809166 -2.49743 0.0744555 0.703463
32 2.24752 0 0 -0.204226 0.00232429 0.0518021
33 1.11936 0 0 -0.132133 0.168472 0.240035
34 3.71349 0.102639 0.10219 -1.55984 -0.168533 -0.0812463
35 1.72615 0 0 -0.0128484 -0.025471 0.578993
36 1.21112 0 0 -0.0099716 0.0145468 -0.00348703
37 3.5992 1.06012 0.0708876 -1.55914 -0.291019 0.0593995
38 1.66069 0 0 0.0122584 0.0719991 0.391734
39 1.16699 0 0 0.0148817 0.0323129 0.0370955
40 2.18853 -0.50104 0.0576582 -1.57004 -0.0521616 -0.225938
41 1.29609 0 0 0.00696042 -0.0463138 0.03953
42 1.62202 -0.000713348 -0.000471115 0.00245829 -0.0400174 0.371756
43 1.22241 0 0 -0.0142986 -0.0121249 0.321896
44 1.76707 -1.27612 0.0366402 -1.57004 -0.0293956 -0.261465
45 1.55588 0 0 0.00757231 0.0317085 -0.0601171
46 1.24273 0 0 0.000531493 0.000277394 0.198843
47 0.784532 0 0 -0.0149767 0.00644666 0.118852
48 0 0 0 0 0 0
time 5
0 1.938 -1.34664 -10.5891 0 0 -0.74164
1 6.02794 0 0 -1.02035 0.527737 0.0808827
2 11.7344 0 0 -0.00140299 0 -2.23171
3 8.81138 -0.000448227 -0.000111818 -0.526871 0 0.000157969
4 5.77839 0.000286102 0 -0.353003 0 0.000103592
5 2.23163 -0.000329971 -0.000363827 -0.173867 0 0
6 11.4725 0 0 -0.528287 -0.220096 0.0671518
7 0.61522 -0.993091 -0.8107 2.48067 0.119291 -0.723802
8 2.24752 0 0 0.220296 0.0664475 0.0649406
9 1.11936 0 0 0.177922 0.0768779 -0.120435
10 3.71348 -0.102641 0.102191 1.55977 -0.201795 0.0816181
11 1.72615 0 0 0.00248676 -0.0284191 -0.199022
12 1.21114 0 0 0.00481929 0.016965 -0.320656
13 3.59919 -1.06012 0.0708876 1.55936 -0.217087 -0.0602815
14 1.66069 0 0 0.012272 0.0695705 -0.0482202
15 1.167 0 0 -0.0166714 0.0247501 -0.0905153
16 2.18852 0.50104 0.0576591 1.57004 0.00793672 0.225893
17 1.29609 0 0 -0.0142092 -0.0446277 0.119599
18 1.62202 0.000713825 -0.000471115 -0.00886653 -0.0391003 -0.210074
19 1.22241 0 0 0.0142301 -0.00896698 -0.368595
20 1.76707 1.27612 0.0366411 1.57004 0.0510505 0.261404
21 1.55588 0 0 -0.0117318 0.0304159 -0.0736172
22 1.24273 0 0 -0.000497075 0.000335319 -0.0859969
23 0.784523 0 0 0.0156076 0.00471936 -0.00601768
24 -1.93761 -1.34664 -10.5891 -0.000932534 0 -2.28859
25 6.02794 0 0 1.09006 0.455362 -0.27661
26 11.7344 0 0 0.00140271 0 2.35777
27 8.81167 0 0 0.639509 0 0
28 5.77884 0 0 0.428471 0 0
29 2.23249 0 0 0.211038 0 0
30 11.4725 0 0 0.677992 -0.128522 -0.282634
31 0.615812 0.994372 -0.809166 -2.49743 0.0744555 0.703463
32 2.24752 0 0 -0.204226 0.00232429 0.0518021
33 1.11936 0 0 -0.132133 0.168472 0.240035
34 3.71349 0.102639 0.10219 -1.55984 -0.168533 -0.0812463
35 1.72615 0 0 -0.0128484 -0.025471 0.578993
36 1.21112 0 0 -0.0099716 0.0145468 -0.00348703
37 3.5992 1.06012 0.0708876 -1.55914 -0.291019 0.0593995
38 1.66069 0 0 0.0122584 0.0719991 0.391734
39 1.16699 0 0 0.0148817 0.0323129 0.0370955
40 2.18853 -0.50104 0.0576582 -1.57004 -0.0521616 -0.225938
41 1.29609 0 0 0.00696042 -0.0463138 0.03953
42 1.62202 -0.000713348 -0.000471115 0.00245829 -0.0400174 0.371756
43 1.22241 0 0 -0.0142986 -0.0121249 0.321896
44 1.76707 -1.27612 0.0366402 -1.57004 -0.0293956 -0.261465
45 1.55588 0 0 0.00757231 0.0317085 -0.0601171
46 1.24273 0 0 0.000531493 0.000277394 0.198843
47 0.784532 0 0 -0.0149767 0.00644666 0.118852
48 0 0 0 0 0 0
time 6
0 1.938 -1.34664 -10.5891 0 0 -0.74164
1 6.02794 0 0 -1.02035 0.527737 0.0808827
2 11.7344 0 0 -0.00140299 0 -2.23171
3 8.81138 -0.000448227 -0.000111818 -0.526871 0 0.000157969
4 5.77839 0.000286102 0 -0.353003 0 0.000103592
5 2.23163 -0.000329971 -0.000363827 -0.173867 0 0
6 11.4725 0 0 -0.528287 -0.220096 0.0671518
7 0.61522 -0.993091 -0.8107 2.48067 0.119291 -0.723802
8 2.24752 0 0 0.220296 0.0664475 0.0649406
9 1.11936 0 0 0.177922 0.0768779 -0.120435
10 3.71348 -0.102641 0.102191 1.55977 -0.201795 0.0816181
11 1.72615 0 0 0.00248676 -0.0284191 -0.199022
12 1.21114 0 0 0.00481929 0.016965 -0.320656
13 3.59919 -1.06012 0.0708876 1.55936 -0.217087 -0.0602815
14 1.66069 0 0 0.012272 0.0695705 -0.0482202
15 1.167 0 0 -0.0166714 0.0247501 -0.0905153
16 2.18852 0.50104 0.0576591 1.57004 0.00793672 0.225893
17 1.29609 0 0 -0.0142092 -0.0446277 0.119599
18 1.62202 0.000713825 -0.000471115 -0.00886653 -0.0391003 -0.210074
19 1.22241 0 0 0.0142301 -0.00896698 -0.368595
20 1.76707 1.27612 0.0366411 1.57004 0.0510505 0.261404
21 1.55588 0 0 -0.0117318 0.0304159 -0.0736172
22 1.24273 0 0 -0.000497075 0.000335319 -0.0859969
23 0.784523 0 0 0.0156076 0.00471936 -0.00601768
24 -1.93761 -1.34664 -10.5891 -0.000932534 0 -2.28859
25 6.02794 0 0 1.09006 0.455362 -0.27661
26 11.7344 0 0 0.00140271 0 2.35777
27 8.81167 0 0 0.639509 0 0
28 5.77884 0 0 0.428471 0 0
29 2.23249 0 0 0.211038 0 0
30 11.4725 0 0 0.677992 -0.128522 -0.282634
31 0.615812 0.994372 -0.809166 -2.49743 0.0744555 0.703463
32 2.24752 0 0 -0.204226 0.00232429 0.0518021
33 1.11936 0 0 -0.132133 0.168472 0.240035
34 3.71349 0.102639 0.10219 -1.55984 -0.168533 -0.0812463
35 1.72615 0 0 -0.0128484 -0.025471 0.578993
36 1.21112 0 0 -0.0099716 0.0145468 -0.00348703
37 3.5992 1.06012 0.0708876 -1.55914 -0.291019 0.0593995
38 1.66069 0 0 0.0122584 0.0719991 0.391734
39 1.16699 0 0 0.0148817 0.0323129 0.0370955
40 2.18853 -0.50104 0.0576582 -1.57004 -0.0521616 -0.225938
41 1.29609 0 0 0.00696042 -0.0463138 0.03953
42 1.62202 -0.000713348 -0.000471115 0.00245829 -0.0400174 0.371756
43 1.22241 0 0 -0.0142986 -0.0121249 0.321896
44 1.76707 -1.27612 0.0366402 -1.57004 -0.0293956 -0.261465
45 1.55588 0 0 0.00757231 0.0317085 -0.0601171
46 1.24273 0 0 0.000531493 0.000277394 0.198843
47 0.784532 0 0 -0.0149767 0.00644666 0.118852
48 0 0 0 0 0 0
time 7
0 1.938 -1.34664 -10.5891 0 0 -0.74164
1 6.02794 0 0 -1.02035 0.527737 0.0808827
2 11.7344 0 0 -0.00140299 0 -2.23171
3 8.81138 -0.000448227 -0.000111818 -0.526871 0 0.000157969
4 5.77839 0.000286102 0 -0.353003 0 0.000103592
5 2.23163 -0.000329971 -0.000363827 -0.173867 0 0
6 11.4725 0 0 -0.528287 -0.220096 0.0671518
7 0.61522 -0.993091 -0.8107 2.48067 0.119291 -0.723802
8 2.24752 0 0 0.220296 0.0664475 0.0649406
9 1.11936 0 0 0.177922 0.0768779 -0.120435
10 3.71348 -0.102641 0.102191 1.55977 -0.201795 0.0816181
11 1.72615 0 0 0.00248676 -0.0284191 -0.199022
12 1.21114 0 0 0.00481929 0.016965 -0.320656
13 3.59919 -1.06012 0.0708876 1.55936 -0.217087 -0.0602815
14 1.66069 0 0 0.012272 0.0695705 -0.0482202
15 1.167 0 0 -0.0166714 0.0247501 -0.0905153
16 2.18852 0.50104 0.0576591 1.57004 0.00793672 0.225893
17 1.29609 0 0 -0.0142092 -0.0446277 0.119599
18 1.62202 0.000713825 -0.000471115 -0.00886653 -0.0391003 -0.210074
19 1.22241 0 0 0.0142301 -0.00896698 -0.368595
20 1.76707 1.27612 0.0366411 1.57004 0.0510505 0.261404
21 1.55588 0 0 -0.0117318 0.0304159 -0.0736172
22 1.24273 0 0 -0.000497075 0.000335319 -0.0859969
23 0.784523 0 0 0.0156076 0.00471936 -0.00601768
24 -1.93761 -1.34664 -10.5891 -0.000932534 0 -2.28859
25 6.02794 0 0 1.09006 0.455362 -0.27661
26 11.7344 0 0 0.00140271 0 2.35777
27 8.81167 0 0 0.639509 0 0
28 5.77884 0 0 0.428471 0 0
29 2.23249 0 0 0.211038 0 0
30 11.4725 0 0 0.677992 -0.128522 -0.282634
31 0.615812 0.994372 -0.809166 -2.49743 0.0744555 0.703463
32 2.24752 0 0 -0.204226 0.00232429 0.0518021
33 1.11936 0 0 -0.132133 0.168472 0.240035
34 3.71349 0.102639 0.10219 -1.55984 -0.168533 -0.0812463
35 1.72615 0 0 -0.0128484 -0.025471 0.578993
36 1.21112 0 0 -0.0099716 0.0145468 -0.00348703
37 3.5992 1.06012 0.0708876 -1.55914 -0.291019 0.0593995
38 1.66069 0 0 0.0122584 0.0719991 0.391734
39 1.16699 0 0 0.0148817 0.0323129 0.0370955
40 2.18853 -0.50104 0.0576582 -1.57004 -0.0521616 -0.225938
41 1.29609 0 0 0.00696042 -0.0463138 0.03953
42 1.62202 -0.000713348 -0.000471115 0.00245829 -0.0400174 0.371756
43 1.22241 0 0 -0.0142986 -0.0121249 0.321896
44 1.76707 -1.27612 0.0366402 -1.57004 -0.0293956 -0.261465
45 1.55588 0 0 0.00757231 0.0317085 -0.0601171
46 1.24273 0 0 0.000531493 0.000277394 0.198843
47 0.784532 0 0 -0.0149767 0.00644666 0.118852
48 0 0 0 0 0 0
time 8
0 1.938 -1.34664 -10.5891 0 0 -0.74164
1 6.02794 0 0 -1.02035 0.527737 0.0808827
2 11.7344 0 0 -0.00140299 0 -2.23171
3 8.81138 -0.000448227 -0.000111818 -0.526871 0 0.000157969
4 5.77839 0.000286102 0 -0.353003 0 0.000103592
5 2.23163 -0.000329971 -0.000363827 -0.173867 0 0
6 11.4725 0 0 -0.528287 -0.220096 0.0671518
7 0.61522 -0.993091 -0.8107 2.48067 0.119291 -0.723802
8 2.24752 0 0 0.220296 0.0664475 0.0649406
9 1.11936 0 0 0.177922 0.0768779 -0.120435
10 3.71348 -0.102641 0.102191 1.55977 -0.201795 0.0816181
11 1.72615 0 0 0.00248676 -0.0284191 -0.199022
12 1.21114 0 0 0.00481929 0.016965 -0.320656
13 3.59919 -1.06012 0.0708876 1.55936 -0.217087 -0.0602815
14 1.66069 0 0 0.012272 0.0695705 -0.0482202
15 1.167 0 0 -0.0166714 0.0247501 -0.0905153
16 2.18852 0.50104 0.0576591 1.57004 0.00793672 0.225893
17 1.29609 0 0 -0.0142092 -0.0446277 0.119599
18 1.62202 0.000713825 -0.000471115 -0.00886653 -0.0391003 -0.210074
19 1.22241 0 0 0.0142301 -0.00896698 -0.368595
20 1.76707 1.27612 0.0366411 1.57004 0.0510505 0.261404
21 1.55588 0 0 -0.0117318 0.0304159 -0.0736172
22 1.24273 0 0 -0.000497075 0.000335319 -0.0859969
23 0.784523 0 0 0.0156076 0.00471936 -0.00601768
24 -1.93761 -1.34664 -10.5891 -0.000932534 0 -2.28859
25 6.02794 0 0 1.09006 0.455362 -0.27661
26 11.7344 0 0 0.00140271 0 2.35777
27 8.81167 0 0 0.639509 0 0
28 5.77884 0 0 0.428471 0 0
29 2.23249 0 0 0.211038 0 0
30 11.4725 0 0 0.677992 -0.128522 -0.282634
31 0.615812 0.994372 -0.809166 -2.49743 0.0744555 0.703463
32 2.24752 0 0 -0.204226 0.00232429 0.0518021
33 1.11936 0 0 -0.132133 0.168472 0.240035
34 3.71349 0.102639 0.10219 -1.55984 -0.168533 -0.0812463
35 1.72615 0 0 -0.0128484 -0.025471 0.578993
36 1.21112 0 0 -0.0099716 0.0145468 -0.00348703
37 3.5992 1.06012 0.0708876 -1.55914 -0.291019 0.0593995
38 1.66069 0 0 0.0122584 0.0719991 0.391734
39 1.16699 0 0 0.0148817 0.0323129 0.0370955
40 2.18853 -0.50104 0.0576582 -1.57004 -0.0521616 -0.225938
41 1.29609 0 0 0.00696042 -0.0463138 0.03953
42 1.62202 -0.000713348 -0.000471115 0.00245829 -0.0400174 0.371756
43 1.22241 0 0 -0.0142986 -0.0121249 0.321896
44 1.76707 -1.27612 0.0366402 -1.57004 -0.0293956 -0.261465
45 1.55588 0 0 0.00757231 0.0317085 -0.0601171
46 1.24273 0 0 0.000531493 0.000277394 0.198843
47 0.784532 0 0 -0.0149767 0.00644666 0.118852
48 0 0 0 0 0 0
time 9
0 1.938 -1.34664 -10.5891 0 0 -0.74164
1 6.02794 0 0 -1.02035 0.527737 0.0808827
2 11.7344 0 0 -0.00140299 0 -2.23171
3 8.81138 -0.000448227 -0.000111818 -0.526871 0 0.000157969
4 5.77839 0.000286102 0 -0.353003 0 0.000103592
5 2.23163 -0.000329971 -0.000363827 -0.173867 0 0
6 11.4725 0 0 -0.528287 -0.220096 0.0671518
7 0.61522 -0.993091 -0.8107 2.48067 0.119291 -0.723802
8 2.24752 0 0 0.220296 0.0664475 0.0649406
9 1.11936 0 0 0.177922 0.0768779 -0.120435
10 3.71348 -0.102641 0.102191 1.55977 -0.201795 0.0816181
11 1.72615 0 0 0.00248676 -0.0284191 -0.199022
12 1.21114 0 0 0.00481929 0.016965 -0.320656
13 3.59919 -1.06012 0.0708876 1.55936 -0.217087 -0.0602815
14 1.66069 0 0 0.012272 0.0695705 -0.0482202
15 1.167 0 0 -0.0166714 0.0247501 -0.0905153
16 2.18852 0.50104 0.0576591 1.57004 0.00793672 0.225893
17 1.29609 0 0 -0.0142092 -0.0446277 0.119599
18 1.62202 0.000713825 -0.000471115 -0.00886653 -0.0391003 -0.210074
19 1.22241 0 0 0.0142301 -0.00896698 -0.368595
20 1.76707 1.27612 0.0366411 1.57004 0.0510505 0.261404
21 1.55588 0 0 -0.0117318 0.0304159 -0.0736172
22 1.24273 0 0 -0.000497075 0.000335319 -0.0859969
23 0.784523 0 0 0.0156076 0.00471936 -0.00601768
24 -1.93761 -1.34664 -10.5891 -0.000932534 0 -2.28859
25 6.02794 0 0 1.09006 0.455362 -0.27661
26 11.7344 0 0 0.00140271 0 2.35777
27 8.81167 0 0 0.639509 0 0
28 5.77884 0 0 0.428471 0 0
29 2.23249 0 0 0.211038 0 0
30 11.4725 0 0 0.677992 -0.128522 -0.282634
31 0.615812 0.994372 -0.809166 -2.49743 0.0744555 0.703463
32 2.24752 0 0 -0.204226 0.00232429 0.0518021
33 1.11936 0 0 -0.132133 0.168472 0.240035
34 3.71349 0.102639 0.10219 -1.55984 -0.168533 -0.0812463
35 1.72615 0 0 -0.0128484 -0.025471 0.578993
36 1.21112 0 0 -0.0099716 0.0145468 -0.00348703
37 3.5992 1.06012 0.0708876 -1.55914 -0.291019 0.0593995
38 1.66069 0 0 0.0122584 0.0719991 0.391734
39 1.16699 0 0 0.0148817 0.0323129 0.0370955
40 2.18853 -0.50104 0.0576582 -1.57004 -0.0521616 -0.225938
41 1.29609 0 0 0.00696042 -0.0463138 0.03953
42 1.62202 -0.000713348 -0.000471115 0.00245829 -0.0400174 0.371756
43 1.22241 0 0 -0.0142986 -0.0121249 0.321896
44 1.76707 -1.27612 0.0366402 -1.57004 -0.0293956 -0.261465
45 1.55588 0 0 0.00757231 0.0317085 -0.0601171
46 1.24273 0 0 0.000531493 0.000277394 0.198843
47 0.784532 0 0 -0.0149767 0.00644666 0.118852
48 0 0 0 0 0 0
time 10
0 1.938 -1.34664 -10.5891 0 0 -0.74164
1 6.02794 0 0 -1.02035 0.527737 0.0808827
2 11.7344 0 0 -0.00140299 0 -2.23171
3 8.81138 -0.000448227 -0.000111818 -0.526871 0 0.000157969
4 5.77839 0.000286102 0 -0.353003 0 0.000103592
5 2.23163 -0.000329971 -0.000363827 -0.173867 0 0
6 11.4725 0 0 -0.528287 -0.220096 0.0671518
7 0.61522 -0.993091 -0.8107 2.48067 0.119291 -0.723802
8 2.24752 0 0 0.220296 0.0664475 0.0649406
9 1.11936 0 0 0.177922 0.0768779 -0.120435
10 3.71348 -0.102641 0.102191 1.55977 -0.201795 0.0816181
11 1.72615 0 0 0.00248676 -0.0284191 -0.199022
12 1.21114 0 0 0.00481929 0.016965 -0.320656
13 3.59919 -1.06012 0.0708876 1.55936 -0.217087 -0.0602815
14 1.66069 0 0 0.012272 0.0695705 -0.0482202
15 1.167 0 0 -0.0166714 0.0247501 -0.0905153
16 2.18852 0.50104 0.0576591 1.57004 0.00793672 0.225893
17 1.29609 0 0 -0.0142092 -0.0446277 0.119599
18 1.62202 0.000713825 -0.000471115 -0.00886653 -0.0391003 -0.210074
19 1.22241 0 0 0.0142301 -0.00896698 -0.368595
20 1.76707 1.27612 0.0366411 1.57004 0.0510505 0.261404
21 1.55588 0 0 -0.0117318 0.0304159 -0.0736172
22 1.24273 0 0 -0.000497075 0.000335319 -0.0859969
23 0.784523 0 0 0.0156076 0.00471936 -0.00601768
24 -1.93761 -1.34664 -10.5891 -0.000932534 0 -2.28859
25 6.02794 0 0 1.09006 0.455362 -0.27661
26 11.7344 0 0 0.00140271 0 2.35777
27 8.81167 0 0 0.639509 0 0
28 5.77884 0 0 0.428471 0 0
29 2.23249 0 0 0.211038 0 0
30 11.4725 0 0 0.677992 -0.128522 -0.282634
31 0.615812 0.994372 -0.809166 -2.49743 0.0744555 0.703463
32 2.24752 0 0 -0.204226 0.00232429 0.0518021
33 1.11936 0 0 -0.132133 0.168472 0.240035
34 3.71349 0.102639 0.10219 -1.55984 -0.168533 -0.0812463
35 1.72615 0 0 -0.0128484 -0.025471 0.578993
36 1.21112 0 0 -0.0099716 0.0145468 -0.00348703
37 3.5992 1.06012 0.0708876 -1.55914 -0.291019 0.0593995
38 1.66069 0 0 0.0122584 0.0719991 0.391734
39 1.16699 0 0 0.0148817 0.0323129 0.0370955
40 2.18853 -0.50104 0.0576582 -1.57004 -0.0521616 -0.225938
41 1.29609 0 0 0.00696042 -0.0463138 0.03953
42 1.62202 -0.000713348 -0.000471115 0.00245829 -0.0400174 0.371756
43 1.22241 0 0 -0.0142986 -0.0121249 0.321896
44 1.76707 -1.27612 0.0366402 -1.57004 -0.0293956 -0.261465
45 1.55588 0 0 0.00757231 0.0317085 -0.0601171
46 1.24273 0 0 0.000531493 0.000277394 0.198843
47 0.784532 0 0 -0.0149767 0.00644666 0.118852
48 0 0 0 0 0 0
end
