//Reference File generated by the Wall Worm SMD Exporter PRO 1.99
//www.wallworm.com
version 1
nodes
0 "b_l_clav" -1
1 "b_l_upperarm" 0
2 "b_l_forearm" 1
3 "b_l_twist3" 2
4 "b_l_twist2" 2
5 "b_l_twist1" 2
6 "b_l_hand" 2
7 "b_l_thumb001" 6
8 "b_l_thumb002" 7
9 "b_l_thumb003" 8
10 "b_l_middle001" 6
11 "b_l_middle002" 10
12 "b_l_middle003" 11
13 "b_l_index001" 6
14 "b_l_index002" 13
15 "b_l_index003" 14
16 "b_l_hand_ringsqueezer" 6
17 "b_l_ring001" 16
18 "b_l_ring002" 17
19 "b_l_ring003" 18
20 "b_l_hand_pinkysqueezer" 6
21 "b_l_pinky001" 20
22 "b_l_pinky002" 21
23 "b_l_pinky003" 22
24 "b_r_clav" -1
25 "b_r_upperarm" 24
26 "b_r_forearm" 25
27 "b_r_twist3" 26
28 "b_r_twist2" 26
29 "b_r_twist1" 26
30 "b_r_hand" 26
31 "b_r_thumb001" 30
32 "b_r_thumb002" 31
33 "b_r_thumb003" 32
34 "b_r_middle001" 30
35 "b_r_middle002" 34
36 "b_r_middle003" 35
37 "b_r_index001" 30
38 "b_r_index002" 37
39 "b_r_index003" 38
40 "b_r_hand_ringsqueezer" 30
41 "b_r_ring001" 40
42 "b_r_ring002" 41
43 "b_r_ring003" 42
44 "b_r_hand_pinkysqueezer" 30
45 "b_r_pinky001" 44
46 "b_r_pinky002" 45
47 "b_r_pinky003" 46
48 "b_zero" -1
end
skeleton
time 0
0 1.938 -1.34664 -10.5891 0 0 -0.74164
1 6.02794 0 0 -1.02669 0.523636 0.0851593
2 11.7344 0 0 -0.0014029 0 -2.29065
3 8.81138 -0.000449181 -0.00011158 -0.523297 0 0.000158162
4 5.77839 0.000287056 0 -0.350609 0 0.000103746
5 2.23163 -0.000328064 -0.000362873 -0.172688 0 0
6 11.4725 0 0 -0.537643 -0.216095 0.129696
7 0.61522 -0.993092 -0.810701 2.53372 0.301592 -0.472169
8 2.24752 0 0 0.210236 0.142139 -0.232416
9 1.11936 0 0 0.198583 0.170036 -0.408663
10 3.71348 -0.102641 0.10219 1.55994 0.104103 0.0782799
11 1.72615 0 0 0.0109321 -0.0263506 -0.505047
12 1.21114 0 0 -0.000514217 0.0176287 -0.626618
13 3.59919 -1.06012 0.0708871 1.55959 0.0888102 -0.0637382
14 1.66069 0 0 -0.0102345 0.077191 -0.354874
15 1.167 0 0 -0.0318915 0.0313799 -0.396412
16 2.18852 0.50104 0.0576587 1.57004 0.00793654 0.225893
17 1.29609 0 0 0 -0.0468335 -0.186632
18 1.62202 0.000712872 -0.000472069 0.00332725 -0.0399544 -0.51623
19 1.22241 0 0 0.0215144 -0.0100331 -0.674493
20 1.76707 1.27612 0.0366402 1.57004 0.0510505 0.261404
21 1.55588 0 0 -0.0203485 0.0254705 -0.379614
22 1.24273 0 0 -0.000575139 0.000170073 -0.391913
23 0.784523 0 0 0.0134621 0.00920057 -0.311909
24 -1.93761 -1.34664 -10.5891 -0.000932534 0 -2.28859
25 6.02794 0 0 1.07437 0.431281 -0.231774
26 11.7344 0 0 0.00140259 0 2.38843
27 8.81167 0 0 0.580749 0 0
28 5.77884 0 0 0.389102 0 0
29 2.23249 0 0 0.191647 0 0
30 11.4725 0 0 0.6397 -0.148039 -0.348283
31 0.615812 0.994371 -0.809164 -2.52776 0.221983 0.499348
32 2.24752 0 0 -0.210486 0.0557811 0.295658
33 1.11936 0 0 -0.113276 0.230403 0.485186
34 3.71349 0.102639 0.102191 -1.55996 0.081326 -0.0785278
35 1.72615 0 0 -0.0187484 -0.021503 0.828904
36 1.21112 0 0 -0.00606443 0.0165608 0.246409
37 3.5992 1.06012 0.070889 -1.55962 -0.0411615 0.0622841
38 1.66069 0 0 0.0316755 0.0711428 0.642246
39 1.16699 0 0 0.0284644 0.0361497 0.287037
40 2.18853 -0.50104 0.0576591 -1.57004 -0.0521616 -0.225938
41 1.29609 0 0 -0.00471672 -0.0465957 0.289674
42 1.62202 -0.000713348 -0.000470161 -0.0075187 -0.0393818 0.621827
43 1.2224 0 0 -0.0203722 -0.0121865 0.571769
44 1.76707 -1.27612 0.0366411 -1.57004 -0.0293956 -0.261465
45 1.55588 0 0 0.0151799 0.0288511 0.189855
46 1.24273 0 0 0.000583482 0.000137197 0.448716
47 0.78453 0 0 -0.0129176 0.00994994 0.36871
48 0 0 0 0 0 0
end
triangles
end
