//Sequence File generated by the Wall Worm SMD Exporter PRO 1.99
//www.wallworm.com
version 1
nodes
0 "b_l_clav" -1
1 "b_l_upperarm" 0
2 "b_l_forearm" 1
3 "b_l_twist3" 2
4 "b_l_twist2" 2
5 "b_l_twist1" 2
6 "b_l_hand" 2
7 "b_l_thumb001" 6
8 "b_l_thumb002" 7
9 "b_l_thumb003" 8
10 "b_l_middle001" 6
11 "b_l_middle002" 10
12 "b_l_middle003" 11
13 "b_l_index001" 6
14 "b_l_index002" 13
15 "b_l_index003" 14
16 "b_l_hand_ringsqueezer" 6
17 "b_l_ring001" 16
18 "b_l_ring002" 17
19 "b_l_ring003" 18
20 "b_l_hand_pinkysqueezer" 6
21 "b_l_pinky001" 20
22 "b_l_pinky002" 21
23 "b_l_pinky003" 22
24 "b_r_clav" -1
25 "b_r_upperarm" 24
26 "b_r_forearm" 25
27 "b_r_twist3" 26
28 "b_r_twist2" 26
29 "b_r_twist1" 26
30 "b_r_hand" 26
31 "b_r_thumb001" 30
32 "b_r_thumb002" 31
33 "b_r_thumb003" 32
34 "b_r_middle001" 30
35 "b_r_middle002" 34
36 "b_r_middle003" 35
37 "b_r_index001" 30
38 "b_r_index002" 37
39 "b_r_index003" 38
40 "b_r_hand_ringsqueezer" 30
41 "b_r_ring001" 40
42 "b_r_ring002" 41
43 "b_r_ring003" 42
44 "b_r_hand_pinkysqueezer" 30
45 "b_r_pinky001" 44
46 "b_r_pinky002" 45
47 "b_r_pinky003" 46
48 "b_zero" -1
end
skeleton
time 0
0 2.07424 6.02945 -10.7131 0 0 -0.74164
1 6.02795 0 0 -0.256088 0.502683 0.459597
2 11.7344 0 0 -0.00140278 0 -2.08224
3 8.81138 -0.000450134 -0.000112534 -0.364758 0 0.000157678
4 5.77839 0.000286102 0 -0.244388 0 0.000104101
5 2.23163 -0.000328064 -0.000364304 -0.12037 0 0
6 11.4725 0 0 -0.363624 -0.0725778 -0.372354
7 0.615219 -0.993091 -0.8107 2.61685 0.453644 -0.260346
8 2.24752 0 0 0.157398 0.199735 -0.550863
9 1.11936 0 0 0.0636372 0.342702 -1.36316
10 3.71348 -0.102642 0.102192 -0.677391 1.47986 -2.17052
11 1.72615 0 0 -0.0303132 0.00731288 -1.44545
12 1.21114 0 0 -0.0176049 -0.00104786 -2.2277
13 3.59919 -1.06012 0.0708885 -1.30788 1.52782 -2.94166
14 1.66069 0 0 0.0632258 -0.0109068 -1.62036
15 1.167 0 0 0.0598755 0.152814 -2.35349
16 2.18852 0.501039 0.0576591 1.50822 0.11864 0.106025
17 1.29609 0 0 0.0454756 -0.0112005 -1.51823
18 1.62202 0.000713825 -0.000471115 -0.0384311 0.0160455 -1.60779
19 1.22241 0 0 -0.045058 -0.0614229 -2.25319
20 1.76707 1.27612 0.0366411 1.46962 0.232734 0.0404855
21 1.55588 0 0 -0.0323048 -0.0043728 -1.41072
22 1.24273 0 0 -0.000345044 -0.000490321 -1.63731
23 0.784523 0 0 0.034091 0.0123451 -2.06604
24 -1.93761 -1.34664 -10.5891 -0.000932534 0 -2.28859
25 6.02794 0 0 0.603982 0.58631 -0.822858
26 11.7344 0 0 0.00140281 0 2.66793
27 8.81167 0 0 0.527072 0 0
28 5.77884 0 0 0.353138 0 0
29 2.23249 0 0 0.173934 0 0
30 11.4725 0 0 0.471897 0.442315 -0.0373417
31 0.615812 0.99437 -0.809165 -2.66431 0.336507 0.486064
32 2.24752 0 0 -0.256249 0.109831 0.258728
33 1.11936 0 0 -0.0291069 0.124062 0.432169
34 3.71349 0.102639 0.102191 -1.57768 0.882979 -0.0524465
35 1.72615 0 0 0.0162264 -0.00475133 1.41319
36 1.21112 0 0 0.00403567 0.0171683 0.828343
37 3.5992 1.06011 0.0708883 -1.59768 0.718334 0.0289419
38 1.66069 0 0 -0.0492944 0.010941 1.19148
39 1.16699 0 0 -0.0915267 0.0530806 0.924399
40 2.18853 -0.50104 0.0576591 -1.57945 0.016519 -0.160245
41 1.29609 0 0 -0.0249966 -0.0396093 0.751928
42 1.62201 -0.000712395 -0.000470161 0.0204584 -0.00666057 1.3727
43 1.22241 0 0 0.0309052 -0.010654 0.692123
44 1.76707 -1.27612 0.0366406 -1.58463 0.0553188 -0.15843
45 1.55587 0 0 0.0278777 0.0169012 0.731342
46 1.24273 0 0 0.000588726 -0.000113026 0.869321
47 0.784531 0 0 -0.0220527 0.00609196 1.1794
48 0 0 0 0 0 0
time 1
0 2.0496 4.91309 -10.6919 0 0 -0.74164
1 6.02795 0 0 -0.305299 0.527821 0.483346
2 11.7344 0 0 -0.00140289 0 -2.12757
3 8.81138 -0.000450134 -0.000111103 -0.328863 0 0.000158456
4 5.77839 0.000286102 0 -0.220338 0 0.000104813
5 2.23163 -0.000329971 -0.000364304 -0.108525 0 0
6 11.4725 0 0 -0.33496 -0.0436452 -0.362332
7 0.615218 -0.993092 -0.810699 2.61685 0.453644 -0.260346
8 2.24752 0 0 0.157398 0.199735 -0.550863
9 1.11936 0 0 0.0636371 0.342702 -1.36316
10 3.71348 -0.102642 0.102192 -0.677387 1.47986 -2.17051
11 1.72615 0 0 -0.0303133 0.00731295 -1.44545
12 1.21114 0 0 -0.0176051 -0.00104777 -2.2277
13 3.59919 -1.06012 0.0708885 -1.30788 1.52782 -2.94166
14 1.66069 0 0 0.0632259 -0.0109069 -1.62036
15 1.167 0 0 0.0598755 0.152814 -2.35349
16 2.18852 0.501038 0.0576596 1.50822 0.11864 0.106026
17 1.29609 0 0 0.0454756 -0.0112006 -1.51823
18 1.62202 0.000713348 -0.000471115 -0.038431 0.0160456 -1.60779
19 1.22241 0 0 -0.0450579 -0.0614228 -2.25319
20 1.76707 1.27612 0.0366421 1.46962 0.232734 0.0404856
21 1.55588 0 0 -0.0323048 -0.00437299 -1.41072
22 1.24274 0 0 -0.000344766 -0.000490459 -1.63731
23 0.784523 0 0 0.0340911 0.0123449 -2.06604
24 -1.93761 -1.34664 -10.5891 -0.000932534 0 -2.28859
25 6.02794 0 0 0.710703 0.548657 -0.756351
26 11.7344 0 0 0.00140273 0 2.65633
27 8.81167 0 0 0.570994 0 0
28 5.77884 0 0 0.382566 0 0
29 2.23249 0 0 0.188428 0 0
30 11.4725 0 0 0.504731 0.455864 -0.0573083
31 0.615813 0.994372 -0.809165 -2.66723 0.314975 0.510624
32 2.24752 0 0 -0.258698 0.0893178 0.263541
33 1.11936 0 0 -0.0463703 0.106708 0.370909
34 3.71349 0.10264 0.102191 -1.57808 0.799051 -0.0549539
35 1.72615 0 0 0.0137867 -0.00576244 1.38029
36 1.21112 0 0 0.00217934 0.0175011 0.721343
37 3.5992 1.06012 0.0708878 -1.59259 0.617948 0.033323
38 1.66069 0 0 -0.0441913 0.0137058 1.13833
39 1.16699 0 0 -0.0868341 0.0467885 0.822804
40 2.18853 -0.50104 0.0576589 -1.57858 0.0059096 -0.17042
41 1.29609 0 0 -0.0220495 -0.0413218 0.679113
42 1.62202 -0.000712872 -0.000470161 0.0182863 -0.00857179 1.31928
43 1.22241 0 0 0.0298951 -0.00785331 0.600498
44 1.76707 -1.27612 0.0366414 -1.58352 0.042295 -0.174434
45 1.55588 0 0 0.0265087 0.0189767 0.655067
46 1.24273 0 0 0.000595067 0 0.800159
47 0.784531 0 0 -0.0210386 0.00543451 1.08726
48 0 0 0 0 0 0
time 2
0 2.02647 3.77649 -10.6716 0 0 -0.74164
1 6.02795 0 0 -0.355756 0.539995 0.491354
2 11.7344 0 0 -0.00140283 0 -2.16818
3 8.81138 -0.000450134 -0.000112057 -0.299646 0 0.000157794
4 5.77839 0.000286102 0 -0.200763 0 0.000104375
5 2.23163 -0.000329971 -0.00036478 -0.0988833 0 0
6 11.4725 0 0 -0.309681 -0.0235049 -0.347247
7 0.615218 -0.993091 -0.8107 2.61047 0.44486 -0.274262
8 2.24752 0 0 0.160831 0.196542 -0.531107
9 1.11936 0 0 0.0726139 0.334313 -1.30346
10 3.71348 -0.10264 0.102191 0.504343 1.49437 -0.99083
11 1.72615 0 0 -0.0271718 0.0048551 -1.38754
12 1.21114 0 0 -0.0176227 0.000690945 -2.12907
13 3.59919 -1.06012 0.0708876 1.36062 1.51726 -0.272625
14 1.66069 0 0 0.0558836 -0.00347889 -1.54264
15 1.167 0 0 0.0498986 0.143195 -2.23371
16 2.18852 0.50104 0.0576591 1.51281 0.111912 0.113499
17 1.29609 0 0 0.0444061 -0.0148876 -1.43628
18 1.62202 0.000713825 -0.000473022 -0.0349082 0.0116538 -1.54062
19 1.22241 0 0 -0.0396228 -0.0573678 -2.15605
20 1.76707 1.27612 0.0366402 1.47819 0.222107 0.0546242
21 1.55588 0 0 -0.0325172 -0.00231307 -1.3472
22 1.24274 0 0 -0.000381542 -0.000462452 -1.56058
23 0.784523 0 0 0.0325958 0.0134697 -1.95797
24 -1.93761 -1.34664 -10.5891 -0.000932534 0 -2.28859
25 6.02794 0 0 0.808861 0.49953 -0.697358
26 11.7344 0 0 0.00140267 0 2.63962
27 8.81167 0 0 0.608477 0 0
28 5.77884 0 0 0.407679 0 0
29 2.23249 0 0 0.200797 0 0
30 11.4725 0 0 0.533271 0.464074 -0.0769236
31 0.615812 0.994374 -0.809165 -2.66871 0.298865 0.528565
32 2.24752 0 0 -0.260254 0.074279 0.267762
33 1.11936 0 0 -0.0594798 0.0950695 0.331509
34 3.71349 0.102641 0.102191 -1.57806 0.719353 -0.0571008
35 1.72615 0 0 0.0113166 -0.00682044 1.34588
36 1.21112 0 0 0.000484259 0.0176295 0.624912
37 3.5992 1.06012 0.0708883 -1.58853 0.524953 0.0367418
38 1.66069 0 0 -0.0390445 0.0164132 1.08737
39 1.16699 0 0 -0.0818057 0.0415609 0.730271
40 2.18853 -0.50104 0.0576591 -1.57754 -0.00435431 -0.180244
41 1.29609 0 0 -0.0192599 -0.0426928 0.612705
42 1.62202 -0.000712872 -0.000470161 0.0161516 -0.0104506 1.26572
43 1.2224 0 0 0.0283386 -0.00599043 0.541214
44 1.76707 -1.27612 0.0366411 -1.58204 0.0296648 -0.189867
45 1.55588 0 0 0.0251118 0.0207901 0.584833
46 1.24273 0 0 0.000598519 0 0.737307
47 0.78453 0 0 -0.0200792 0.00481937 1.00058
48 0 0 0 0 0 0
time 3
0 2.00522 2.66013 -10.6524 0 0 -0.74164
1 6.02795 0 0 -0.406857 0.536359 0.480678
2 11.7344 0 0 -0.00140291 0 -2.201
3 8.81138 -0.000450134 -0.00011158 -0.275397 0 0.000157627
4 5.77839 0.000286102 0 -0.184516 0 0.000104491
5 2.23163 -0.000328064 -0.000364304 -0.090881 0 0
6 11.4725 0 0 -0.285669 -0.0136559 -0.326534
7 0.61522 -0.993092 -0.810699 2.59491 0.42197 -0.309327
8 2.24752 0 0 0.169533 0.188144 -0.480598
9 1.11936 0 0 0.0955282 0.311413 -1.15104
10 3.71348 -0.102641 0.102191 1.37213 1.28784 -0.12673
11 1.72615 0 0 -0.0195407 -0.00129915 -1.23923
12 1.21114 0 0 -0.0168911 0.00507291 -1.87652
13 3.59919 -1.06012 0.070888 1.53212 1.27788 -0.0997735
14 1.66069 0 0 0.0391366 0.0149243 -1.34357
15 1.167 0 0 0.0262115 0.12115 -1.9263
16 2.18852 0.50104 0.0576587 1.52407 0.0946064 0.132563
17 1.29609 0 0 0.0403295 -0.0238167 -1.2264
18 1.62202 0.000713825 -0.000471115 -0.0266106 0.000802428 -1.36859
19 1.22241 0 0 -0.026264 -0.0478394 -1.90722
20 1.76707 1.27612 0.0366406 1.4987 0.194432 0.0904197
21 1.55588 0 0 -0.0324625 0.0029846 -1.18457
22 1.24273 0 0 -0.000464557 -0.000378937 -1.3641
23 0.784523 0 0 0.0292695 0.015644 -1.68123
24 -1.93761 -1.34664 -10.5891 -0.000932534 0 -2.28859
25 6.02794 0 0 0.893665 0.443208 -0.649222
26 11.7344 0 0 0.00140272 0 2.61767
27 8.81167 0 0 0.636625 0 0
28 5.77884 0 0 0.426539 0 0
29 2.23249 0 0 0.210086 0 0
30 11.4725 0 0 0.555394 0.466531 -0.0946983
31 0.615813 0.994372 -0.809165 -2.66802 0.289387 0.538898
32 2.24752 0 0 -0.260728 0.06577 0.271257
33 1.11936 0 0 -0.0676841 0.0908564 0.317553
34 3.71349 0.102639 0.102191 -1.57769 0.645509 -0.05902
35 1.72615 0 0 0.00883938 -0.00791955 1.31012
36 1.21112 0 0 -0.000979405 0.0176089 0.541886
37 3.5992 1.06012 0.0708878 -1.58518 0.441646 0.0395194
38 1.66069 0 0 -0.0338503 0.0190555 1.03955
39 1.16699 0 0 -0.0762413 0.037681 0.649345
40 2.18853 -0.50104 0.0576591 -1.57636 -0.0140894 -0.189551
41 1.29609 0 0 -0.0167455 -0.0437398 0.554522
42 1.62202 -0.00071311 -0.000470161 0.0140672 -0.0122769 1.21264
43 1.2224 0 0 0.026017 -0.00531791 0.520147
44 1.76707 -1.27612 0.0366409 -1.58028 0.0176631 -0.204471
45 1.55588 0 0 0.0237669 0.0223153 0.522443
46 1.24273 0 0 0.000599427 0 0.682519
47 0.784531 0 0 -0.0191951 0.00431022 0.921267
48 0 0 0 0 0 0
time 4
0 1.98623 1.60447 -10.635 0 0 -0.74164
1 6.02795 0 0 -0.464125 0.511904 0.440586
2 11.7344 0 0 -0.00140283 0 -2.21408
3 8.81138 -0.000452042 -0.000112057 -0.24563 0 0.000157726
4 5.77839 0.000282288 0 -0.164572 0 0.000104458
5 2.23163 -0.000329971 -0.000363827 -0.081058 0 0
6 11.4725 0 0 -0.252667 -0.0137124 -0.300424
7 0.615218 -0.993092 -0.8107 2.57563 0.390177 -0.3555
8 2.24752 0 0 0.18107 0.176291 -0.412489
9 1.11936 0 0 0.125902 0.277238 -0.946127
10 3.71348 -0.102641 0.102191 1.50417 0.967035 0.00379019
11 1.72615 0 0 -0.010114 -0.00917822 -1.03867
12 1.21114 0 0 -0.0142163 0.0104374 -1.535
13 3.59919 -1.06012 0.070888 1.55152 0.953008 -0.078458
14 1.66069 0 0 0.0208533 0.037575 -1.07408
15 1.167 0 0 -0.000168531 0.0958643 -1.50922
16 2.18852 0.501039 0.0576596 1.53824 0.0710587 0.1582
17 1.29609 0 0 0.032044 -0.0341611 -0.942463
18 1.62202 0.00071454 -0.000471115 -0.0168823 -0.0127233 -1.13588
19 1.22241 0 0 -0.009878 -0.0365697 -1.57054
20 1.76707 1.27612 0.0366406 1.52315 0.156111 0.138
21 1.55588 0 0 -0.0310294 0.00999653 -0.96465
22 1.24273 0 0 -0.000547773 -0.000244057 -1.09843
23 0.784523 0 0 0.0254757 0.0167462 -1.30703
24 -1.93761 -1.34664 -10.5891 -0.000932534 0 -2.28859
25 6.02794 0 0 0.963479 0.385312 -0.612948
26 11.7344 0 0 0.00140276 0 2.59347
27 8.81167 0 0 0.654839 0 0
28 5.77884 0 0 0.438742 0 0
29 2.23249 0 0 0.216097 0 0
30 11.4725 0 0 0.570129 0.463768 -0.111005
31 0.615814 0.994373 -0.809165 -2.65891 0.281424 0.541205
32 2.24752 0 0 -0.257851 0.0616229 0.274876
33 1.11936 0 0 -0.0742867 0.0987343 0.326583
34 3.71349 0.10264 0.102191 -1.57676 0.562558 -0.0616681
35 1.72615 0 0 0.00537497 -0.00957012 1.25674
36 1.21112 0 0 -0.00223928 0.0174934 0.470139
37 3.5992 1.06012 0.070888 -1.58109 0.357825 0.0427415
38 1.66069 0 0 -0.0262566 0.0240358 0.983843
39 1.16699 0 0 -0.0660806 0.0353522 0.57471
40 2.18853 -0.501039 0.0576589 -1.57511 -0.0231126 -0.198172
41 1.29609 0 0 -0.0143632 -0.0445782 0.500571
42 1.62202 -0.000712633 -0.000469208 0.0112192 -0.0153428 1.14126
43 1.22241 0 0 0.0214179 -0.00569903 0.523006
44 1.76707 -1.27612 0.0366416 -1.57834 0.00652366 -0.217987
45 1.55587 0 0 0.0223637 0.0237212 0.461507
46 1.24273 0 0 0.000598931 0 0.632708
47 0.784532 0 0 -0.0182801 0.00436581 0.835562
48 0 0 0 0 0 0
time 5
0 1.96985 0.649999 -10.6197 0 0 -0.74164
1 6.02794 0 0 -0.523431 0.466948 0.376586
2 11.7344 0 0 -0.00140287 0 -2.20119
3 8.81138 -0.000450134 -0.000112057 -0.204953 0 0.000158259
4 5.77839 0.000286102 0 -0.137319 0 0.000105073
5 2.23163 -0.000329971 -0.000363827 -0.0676346 0 0
6 11.4725 0 0 -0.20639 -0.0231851 -0.27437
7 0.615219 -0.993091 -0.810699 2.55716 0.355182 -0.403448
8 2.24752 0 0 0.19309 0.162996 -0.339845
9 1.11936 0 0 0.156909 0.236761 -0.728531
10 3.71348 -0.102642 0.102191 1.54406 0.620286 0.0467136
11 1.72615 0 0 -0.00103637 -0.0168443 -0.823993
12 1.21114 0 0 -0.00954709 0.0148289 -1.16951
13 3.59919 -1.06012 0.0708876 1.55722 0.605279 -0.0704697
14 1.66069 0 0 0.00596736 0.0576747 -0.785135
15 1.167 0 0 -0.0196546 0.0714261 -1.06165
16 2.18852 0.50104 0.0576582 1.55207 0.045719 0.185499
17 1.29609 0 0 0.0203511 -0.042184 -0.638431
18 1.62202 0.000714064 -0.000469208 -0.00801053 -0.0253614 -0.886685
19 1.22241 0 0 0.00500052 -0.025799 -1.21004
20 1.76707 1.27612 0.0366406 1.54517 0.114234 0.188078
21 1.55588 0 0 -0.0278424 0.0169584 -0.729279
22 1.24273 0 0 -0.000594231 0 -0.814141
23 0.784523 0 0 0.0214534 0.0154291 -0.906582
24 -1.93761 -1.34664 -10.5891 -0.000932534 0 -2.28859
25 6.02794 0 0 1.01925 0.329658 -0.586646
26 11.7344 0 0 0.00140277 0 2.56692
27 8.81167 0 0 0.663486 0 0
28 5.77884 0 0 0.444535 0 0
29 2.23249 0 0 0.21895 0 0
30 11.4725 0 0 0.577604 0.456859 -0.124636
31 0.615813 0.99437 -0.809165 -2.63851 0.270171 0.537235
32 2.24752 0 0 -0.25064 0.0587988 0.279243
33 1.11936 0 0 -0.0824522 0.118973 0.350009
34 3.71349 0.102639 0.102191 -1.57476 0.46186 -0.0652663
35 1.72615 0 0 0.000514705 -0.0119823 1.17761
36 1.21112 0 0 -0.0033492 0.0173153 0.406392
37 3.5992 1.06012 0.0708878 -1.57589 0.266663 0.0468175
38 1.66069 0 0 -0.0151932 0.0325444 0.914061
39 1.16699 0 0 -0.0494042 0.0343039 0.501738
40 2.18853 -0.50104 0.0576587 -1.57386 -0.0312418 -0.205937
41 1.29609 0 0 -0.0119773 -0.0452772 0.44746
42 1.62202 -0.000713348 -0.000470161 0.0073189 -0.0201896 1.04187
43 1.2224 0 0 0.0139995 -0.00668235 0.530381
44 1.76707 -1.27612 0.0366411 -1.57633 -0.00352187 -0.230154
45 1.55587 0 0 0.0208 0.0251036 0.397463
46 1.24273 0 0 0.000596842 0 0.584973
47 0.784531 0 0 -0.0172338 0.0051476 0.735203
48 0 0 0 0 0 0
time 6
0 1.95647 -0.162821 -10.607 0 0 -0.74164
1 6.02795 0 0 -0.573661 0.411363 0.3078
2 11.7344 0 0 -0.00140285 0 -2.16895
3 8.81138 -0.000450134 -0.000110626 -0.159494 0 0.000158292
4 5.77839 0.000284195 0 -0.106861 0 0.000105298
5 2.23163 -0.000329971 -0.00036335 -0.0526331 0 0
6 11.4725 0 0 -0.154468 -0.0398909 -0.255602
7 0.615218 -0.993092 -0.810699 2.54259 0.323366 -0.444856
8 2.24752 0 0 0.203445 0.150685 -0.27557
9 1.11936 0 0 0.18255 0.197745 -0.536889
10 3.71348 -0.102644 0.102191 1.55724 0.311835 0.0673362
11 1.72615 0 0 0.00629703 -0.0228241 -0.633379
12 1.21114 0 0 -0.00432153 0.0170987 -0.845033
13 3.59919 -1.06012 0.0708883 1.55912 0.296593 -0.0661565
14 1.66069 0 0 -0.00428758 0.0709661 -0.528115
15 1.167 0 0 -0.0291538 0.0487039 -0.66396
16 2.18852 0.501038 0.0576589 1.56318 0.0231489 0.209654
17 1.29609 0 0 0.00836596 -0.046081 -0.368417
18 1.62202 0.000714064 -0.000471115 -0.00106569 -0.0347211 -0.665317
19 1.22241 0 0 0.0156681 -0.0165264 -0.889952
20 1.76707 1.27612 0.0366409 1.56116 0.0765599 0.232011
21 1.55588 0 0 -0.0237187 0.0223658 -0.520304
22 1.24273 0 0 -0.000595681 0 -0.56178
23 0.784524 0 0 0.0171168 0.0122355 -0.551141
24 -1.93761 -1.34664 -10.5891 -0.000932534 0 -2.28859
25 6.02794 0 0 1.06247 0.279716 -0.568399
26 11.7344 0 0 0.00140263 0 2.54046
27 8.81167 0 0 0.664265 0 0
28 5.77884 0 0 0.445057 0 0
29 2.23249 0 0 0.219207 0 0
30 11.4725 0 0 0.57877 0.447049 -0.136071
31 0.615813 0.994372 -0.809165 -2.61133 0.257265 0.529196
32 2.24752 0 0 -0.240832 0.0570477 0.283883
33 1.11936 0 0 -0.0912024 0.146462 0.382361
34 3.71349 0.102638 0.102191 -1.57168 0.354531 -0.0690814
35 1.72615 0 0 -0.00490424 -0.0147047 1.0851
36 1.21112 0 0 -0.00428957 0.0171065 0.351751
37 3.5992 1.06012 0.0708876 -1.57065 0.175527 0.051149
38 1.66069 0 0 -0.00249425 0.0428231 0.838398
39 1.16699 0 0 -0.0291841 0.0341598 0.434003
40 2.18853 -0.50104 0.0576584 -1.57266 -0.0382956 -0.212677
41 1.29609 0 0 -0.00972079 -0.0458144 0.397908
42 1.62202 -0.000712872 -0.000468254 0.0030751 -0.0257292 0.928638
43 1.22241 0 0 0.00504863 -0.00802535 0.540464
44 1.76707 -1.27612 0.0366409 -1.57439 -0.0122433 -0.240709
45 1.55588 0 0 0.0191888 0.0263555 0.334859
46 1.24273 0 0 0.000593777 0 0.541351
47 0.784532 0 0 -0.0161029 0.00631865 0.630333
48 0 0 0 0 0 0
time 7
0 1.94646 -0.793514 -10.5974 0 0 -0.74164
1 6.02795 0 0 -0.610576 0.357225 0.247416
2 11.7344 0 0 -0.00140286 0 -2.12677
3 8.81138 -0.000450134 -0.000112534 -0.117324 0 0.000157508
4 5.77839 0.000286102 0 -0.078607 0 0.000104943
5 2.23164 -0.000328064 -0.000363827 -0.0387169 0 0
6 11.4725 0 0 -0.105749 -0.0602204 -0.247244
7 0.615219 -0.993092 -0.810699 2.53372 0.301592 -0.472169
8 2.24752 0 0 0.210236 0.142139 -0.232416
9 1.11936 0 0 0.198583 0.170036 -0.408663
10 3.71348 -0.102642 0.102192 1.55994 0.104103 0.0782798
11 1.72615 0 0 0.0109318 -0.0263504 -0.505047
12 1.21114 0 0 -0.000514173 0.0176288 -0.626618
13 3.59919 -1.06012 0.0708885 1.55959 0.0888102 -0.0637383
14 1.66069 0 0 -0.0102341 0.077191 -0.354874
15 1.167 0 0 -0.0318915 0.0313799 -0.396412
16 2.18852 0.501038 0.0576596 1.57004 0.00793652 0.225893
17 1.29609 0 0 0 -0.0468337 -0.186632
18 1.62202 0.000713825 -0.000473022 0.00332726 -0.0399544 -0.51623
19 1.22241 0 0 0.0215144 -0.010033 -0.674493
20 1.76707 1.27612 0.0366421 1.57004 0.0510505 0.261404
21 1.55588 0 0 -0.0203484 0.0254705 -0.379614
22 1.24274 0 0 -0.000575081 0.000170085 -0.391913
23 0.784523 0 0 0.0134618 0.0092005 -0.311909
24 -1.93761 -1.34664 -10.5891 -0.000932534 0 -2.28859
25 6.02794 0 0 1.09471 0.238074 -0.556323
26 11.7344 0 0 0.00140268 0 2.51671
27 8.81167 0 0 0.659268 0 0
28 5.77884 0 0 0.441709 0 0
29 2.23249 0 0 0.217558 0 0
30 11.4725 0 0 0.575039 0.43553 -0.146015
31 0.615813 0.994371 -0.809165 -2.58194 0.244338 0.519269
32 2.24752 0 0 -0.23017 0.0561199 0.28832
33 1.11936 0 0 -0.0995689 0.176165 0.418035
34 3.71349 0.102639 0.102191 -1.5679 0.251689 -0.0726534
35 1.72615 0 0 -0.0101408 -0.0173241 0.991592
36 1.21112 0 0 -0.00504517 0.0168993 0.307325
37 3.5992 1.06012 0.0708885 -1.56609 0.0917942 0.0552887
38 1.66069 0 0 0.0101271 0.0532395 0.765085
39 1.16699 0 0 -0.00836175 0.0345783 0.375083
40 2.18853 -0.50104 0.0576589 -1.57161 -0.0440937 -0.21822
41 1.29609 0 0 -0.0077303 -0.0461918 0.354635
42 1.62202 -0.000712633 -0.000470161 -0.000952004 -0.0310314 0.815784
43 1.2224 0 0 -0.0041485 -0.00948697 0.55145
44 1.76707 -1.27612 0.0366409 -1.57266 -0.0194149 -0.249386
45 1.55588 0 0 0.0176672 0.0273988 0.278246
46 1.24273 0 0 0.000590278 0.000104988 0.503878
47 0.784531 0 0 -0.0149661 0.00760185 0.531098
48 0 0 0 0 0 0
time 8
0 1.94018 -1.20161 -10.5913 0 0 -0.74164
1 6.02794 0 0 -0.634902 0.315794 0.203639
2 11.7344 0 0 -0.00140296 0 -2.08626
3 8.81138 -0.000448227 -0.00011158 -0.0874613 0 0.000157548
4 5.77839 0.000286102 0 -0.058599 0 0.000105151
5 2.23163 -0.000328064 -0.00036478 -0.0288623 0 0
6 11.4725 0 0 -0.0697519 -0.0802963 -0.247612
7 0.615219 -0.993093 -0.8107 2.52969 0.29097 -0.485221
8 2.24752 0 0 0.213464 0.137935 -0.211586
9 1.11936 0 0 0.20594 0.156271 -0.346885
10 3.71348 -0.102642 0.10219 1.5598 0.00367688 0.0833208
11 1.72615 0 0 0.0131046 -0.0279011 -0.443003
12 1.21114 0 0 0.00134639 0.0175848 -0.521035
13 3.59919 -1.06012 0.0708876 1.55963 -0.0116325 -0.0626144
14 1.66069 0 0 -0.0129716 0.0793771 -0.271077
15 1.167 0 0 -0.0323459 0.0221569 -0.267192
16 2.18852 0.501036 0.0576582 1.57318 0.000581414 0.23374
17 1.29609 0 0 -0.00420822 -0.0466444 -0.0987558
18 1.62202 0.000713825 -0.000471115 0.00541523 -0.0421671 -0.44414
19 1.22241 0 0 0.0239786 -0.00674085 -0.570348
20 1.76707 1.27612 0.0366406 1.5738 0.0386993 0.275582
21 1.55588 0 0 -0.0185707 0.0267943 -0.311597
22 1.24274 0 0 -0.00055902 0.000216545 -0.309799
23 0.784523 0 0 0.0114275 0.00753403 -0.196269
24 -1.93761 -1.34664 -10.5891 -0.000932534 0 -2.28859
25 6.02794 0 0 1.11726 0.206317 -0.548692
26 11.7344 0 0 0.00140268 0 2.49725
27 8.81167 0 0 0.650461 0 0
28 5.77884 0 0 0.435809 0 0
29 2.23249 0 0 0.214652 0 0
30 11.4725 0 0 0.567972 0.423321 -0.154619
31 0.615812 0.994372 -0.809165 -2.55504 0.233036 0.509589
32 2.24752 0 0 -0.220397 0.0557656 0.292079
33 1.11936 0 0 -0.106619 0.203197 0.45117
34 3.71348 0.102639 0.102191 -1.5641 0.164458 -0.0756489
35 1.72615 0 0 -0.0145614 -0.0194979 0.909467
36 1.21112 0 0 -0.00560171 0.0167231 0.274221
37 3.5992 1.06012 0.0708878 -1.56261 0.0228485 0.0588308
38 1.66069 0 0 0.0210617 0.0623177 0.702402
39 1.16699 0 0 0.0101373 0.0352472 0.328559
40 2.18853 -0.50104 0.0576591 -1.57078 -0.0484567 -0.222393
41 1.29609 0 0 -0.0061435 -0.0464292 0.320358
42 1.62202 -0.000712872 -0.000470161 -0.00432278 -0.0353908 0.717532
43 1.2224 0 0 -0.0123065 -0.0108272 0.561534
44 1.76707 -1.27612 0.0366409 -1.57128 -0.0248122 -0.255917
45 1.55588 0 0 0.0163865 0.0281832 0.232174
46 1.24273 0 0 0.000586979 0.000122095 0.47459
47 0.784531 0 0 -0.013945 0.00876897 0.447649
48 0 0 0 0 0 0
time 9
0 1.938 -1.34664 -10.5891 0 0 -0.74164
1 6.02794 0 0 -0.650767 0.292064 0.176337
2 11.7344 0 0 -0.00140285 0 -2.05311
3 8.81138 -0.000450134 -0.00011158 -0.0752441 0 0.000158056
4 5.77839 0.000284195 0 -0.0504135 0 0.000105633
5 2.23163 -0.000329971 -0.000364304 -0.0248306 0 0
6 11.4725 0 0 -0.0517239 -0.0994551 -0.253305
7 0.615219 -0.993092 -0.8107 2.52817 0.286824 -0.490272
8 2.24752 0 0 0.214709 0.136288 -0.203491
9 1.11936 0 0 0.208729 0.150858 -0.322894
10 3.71348 -0.102638 0.10219 1.55951 -0.0353769 0.0852831
11 1.72615 0 0 0.0139392 -0.0284763 -0.418873
12 1.21114 0 0 0.002067 0.0175147 -0.479975
13 3.59919 -1.06012 0.0708871 1.55962 -0.0506935 -0.0621777
14 1.66069 0 0 -0.0140256 0.0800803 -0.238482
15 1.167 0 0 -0.032393 0.0183992 -0.216967
16 2.18852 0.501041 0.0576587 1.57437 -0.00227858 0.236792
17 1.29609 0 0 -0.00579867 -0.0464737 -0.0645822
18 1.62202 0.000714779 -0.000469208 0.00622582 -0.0429715 -0.416102
19 1.22241 0 0 0.0248766 -0.00542622 -0.529849
20 1.76707 1.27612 0.0366406 1.57517 0.0338952 0.281092
21 1.55588 0 0 -0.0178555 0.027276 -0.285145
22 1.24273 0 0 -0.000551929 0.000234397 -0.277866
23 0.784523 0 0 0.010585 0.00685729 -0.151299
24 -1.93761 -1.34664 -10.5891 -0.000932534 0 -2.28859
25 6.02794 0 0 1.13079 0.186049 -0.544436
26 11.7344 0 0 0.00140272 0 2.48429
27 8.81167 0 0 0.639638 0 0
28 5.77884 0 0 0.428558 0 0
29 2.23249 0 0 0.211081 0 0
30 11.4725 0 0 0.559017 0.411197 -0.162353
31 0.615813 0.994372 -0.809165 -2.53538 0.225026 0.502256
32 2.24752 0 0 -0.213254 0.0557359 0.294684
33 1.11936 0 0 -0.111471 0.222825 0.475642
34 3.71349 0.102639 0.102191 -1.56114 0.103962 -0.0777362
35 1.72615 0 0 -0.0176086 -0.0209636 0.851109
36 1.21112 0 0 -0.00594609 0.0166036 0.253546
37 3.5992 1.06012 0.070888 -1.56041 -0.0239298 0.0613313
38 1.66069 0 0 0.0287595 0.0687151 0.658675
39 1.16699 0 0 0.0233906 0.0358709 0.298015
40 2.18853 -0.50104 0.0576591 -1.57023 -0.0512058 -0.225023
41 1.29609 0 0 -0.00509493 -0.0465559 0.297799
42 1.62202 -0.000713348 -0.000470161 -0.00664683 -0.0383089 0.648128
43 1.22241 0 0 -0.018142 -0.0118068 0.56891
44 1.76707 -1.27612 0.0366409 -1.57037 -0.0282128 -0.260033
45 1.55588 0 0 0.0155059 0.0286771 0.201193
46 1.24273 0 0 0.000584447 0.000133381 0.455524
47 0.784531 0 0 -0.0132025 0.0096183 0.390136
48 0 0 0 0 0 0
time 10
0 1.938 -1.34664 -10.5891 0 0 -0.74164
1 6.02794 0 0 -0.662418 0.281168 0.162323
2 11.7344 0 0 -0.00140284 0 -2.03042
3 8.81138 -0.000452042 -0.000111103 -0.0792592 0 0.000158499
4 5.77839 0.000286102 0 -0.0531036 0 0.000105839
5 2.23163 -0.000329971 -0.00036335 -0.0261556 0 0
6 11.4725 0 0 -0.0501129 -0.118961 -0.258713
7 0.615219 -0.99309 -0.8107 2.52839 0.287416 -0.489551
8 2.24752 0 0 0.214532 0.136524 -0.204647
9 1.11936 0 0 0.208333 0.151633 -0.32632
10 3.71348 -0.102642 0.102191 1.55956 -0.0297976 0.0850022
11 1.72615 0 0 0.0138206 -0.028395 -0.42232
12 1.21114 0 0 0.00196413 0.0175265 -0.485841
13 3.59919 -1.06012 0.0708876 1.55962 -0.0451134 -0.0622401
14 1.66069 0 0 -0.0138752 0.079985 -0.243138
15 1.167 0 0 -0.0323902 0.0189421 -0.224141
16 2.18852 0.50104 0.0576591 1.5742 -0.00186993 0.236356
17 1.29609 0 0 -0.00557197 -0.0465014 -0.069464
18 1.62202 0.000714302 -0.00047493 0.00611015 -0.0428585 -0.420107
19 1.22241 0 0 0.0247502 -0.00561522 -0.535635
20 1.76707 1.27612 0.0366411 1.57498 0.0345816 0.280305
21 1.55588 0 0 -0.0179583 0.0272083 -0.288924
22 1.24274 0 0 -0.000553135 0.000231943 -0.282428
23 0.784524 0 0 0.0107071 0.00695495 -0.157723
24 -1.93761 -1.34664 -10.5891 -0.000932534 0 -2.28859
25 6.02794 0 0 1.13654 0.177103 -0.542687
26 11.7344 0 0 0.00140267 0 2.47845
27 8.81167 0 0 0.625395 0 0
28 5.77884 0 0 0.419015 0 0
29 2.23249 0 0 0.20638 0 0
30 11.4725 0 0 0.546973 0.39749 -0.170449
31 0.615812 0.994373 -0.809165 -2.52776 0.221983 0.499348
32 2.24752 0 0 -0.210486 0.0557812 0.295658
33 1.11936 0 0 -0.113276 0.230403 0.485186
34 3.71349 0.10264 0.102191 -1.55996 0.0813258 -0.0785279
35 1.72615 0 0 -0.0187482 -0.021503 0.828904
36 1.21112 0 0 -0.00606453 0.0165608 0.246409
37 3.5992 1.06012 0.0708883 -1.55962 -0.0411617 0.062284
38 1.66069 0 0 0.0316755 0.0711428 0.642246
39 1.16699 0 0 0.0284644 0.0361498 0.287037
40 2.18853 -0.50104 0.0576589 -1.57004 -0.0521617 -0.225938
41 1.29609 0 0 -0.0047166 -0.0465955 0.289674
42 1.62202 -0.00071311 -0.000469208 -0.00751883 -0.0393818 0.621827
43 1.2224 0 0 -0.0203724 -0.0121864 0.57177
44 1.76707 -1.27612 0.0366411 -1.57004 -0.0293957 -0.261465
45 1.55587 0 0 0.0151798 0.028851 0.189855
46 1.24273 0 0 0.000583536 0.000137368 0.448716
47 0.784532 0 0 -0.0129176 0.0099499 0.36871
48 0 0 0 0 0 0
time 11
0 1.938 -1.34664 -10.5891 0 0 -0.74164
1 6.02794 0 0 -0.671015 0.279303 0.162769
2 11.7344 0 0 -0.00140287 0 -2.02532
3 8.81138 -0.000450134 -0.000112057 -0.0963279 0 0.000158542
4 5.77839 0.000286102 0 -0.0645397 0 0.000105733
5 2.23163 -0.000328064 -0.000363827 -0.0317882 0 0
6 11.4725 0 0 -0.0626226 -0.137941 -0.257813
7 0.615219 -0.993092 -0.8107 2.52969 0.29097 -0.485221
8 2.24752 0 0 0.213464 0.137935 -0.211586
9 1.11936 0 0 0.20594 0.156271 -0.346885
10 3.71348 -0.102638 0.102191 1.5598 0.0036769 0.0833206
11 1.72615 0 0 0.0131044 -0.0279011 -0.443003
12 1.21114 0 0 0.00134639 0.0175848 -0.521035
13 3.59919 -1.06012 0.0708885 1.55963 -0.0116326 -0.0626142
14 1.66069 0 0 -0.0129714 0.079377 -0.271077
15 1.167 0 0 -0.0323457 0.0221568 -0.267192
16 2.18852 0.50104 0.0576591 1.57318 0.000581451 0.23374
17 1.29609 0 0 -0.00420798 -0.0466445 -0.0987559
18 1.62202 0.000714302 -0.000471115 0.00541511 -0.0421672 -0.44414
19 1.22241 0 0 0.0239787 -0.00674083 -0.570348
20 1.76707 1.27612 0.0366411 1.5738 0.0386994 0.275582
21 1.55588 0 0 -0.0185705 0.0267942 -0.311597
22 1.24274 0 0 -0.000559326 0.000216573 -0.309799
23 0.784523 0 0 0.0114272 0.00753404 -0.196269
24 -1.93761 -1.34664 -10.5891 -0.000932534 0 -2.28859
25 6.02794 0 0 1.13725 0.175989 -0.542475
26 11.7344 0 0 0.00140255 0 2.47772
27 8.81167 0 0 0.608052 0 0
28 5.77884 0 0 0.407395 0 0
29 2.23249 0 0 0.200657 0 0
30 11.4725 0 0 0.532198 0.382008 -0.179052
31 0.615813 0.994372 -0.809165 -2.52776 0.221983 0.499348
32 2.24752 0 0 -0.210486 0.0557812 0.295658
33 1.11936 0 0 -0.113276 0.230403 0.485186
34 3.71349 0.102639 0.102191 -1.55996 0.0813259 -0.0785279
35 1.72615 0 0 -0.0187484 -0.0215031 0.828904
36 1.21112 0 0 -0.00606453 0.0165608 0.246409
37 3.5992 1.06012 0.070888 -1.55962 -0.0411615 0.0622841
38 1.66069 0 0 0.0316754 0.0711427 0.642246
39 1.16699 0 0 0.0284645 0.0361497 0.287037
40 2.18853 -0.50104 0.0576589 -1.57004 -0.0521616 -0.225938
41 1.29609 0 0 -0.00471664 -0.0465958 0.289674
42 1.62202 -0.000713348 -0.000469208 -0.00751868 -0.0393818 0.621827
43 1.2224 0 0 -0.0203724 -0.0121864 0.57177
44 1.76707 -1.27612 0.0366411 -1.57004 -0.0293956 -0.261465
45 1.55588 0 0 0.0151798 0.0288509 0.189855
46 1.24273 0 0 0.00058358 0.000137358 0.448716
47 0.784531 0 0 -0.0129177 0.00994977 0.36871
48 0 0 0 0 0 0
time 12
0 1.938 -1.34664 -10.5891 0 0 -0.74164
1 6.02794 0 0 -0.677088 0.28276 0.171031
2 11.7344 0 0 -0.00140281 0 -2.03061
3 8.81138 -0.000452042 -0.00011158 -0.11845 0 0.000157958
4 5.77839 0.000286102 0 -0.0793615 0 0.000105158
5 2.23163 -0.000329971 -0.00036335 -0.0390885 0 0
6 11.4725 0 0 -0.0815304 -0.154065 -0.253437
7 0.615219 -0.993092 -0.810699 2.53146 0.295698 -0.479432
8 2.24752 0 0 0.212034 0.139809 -0.220841
9 1.11936 0 0 0.202703 0.162417 -0.374326
10 3.71348 -0.102642 0.102191 1.55997 0.0483106 0.0810842
11 1.72615 0 0 0.0121437 -0.0272245 -0.470579
12 1.21114 0 0 0.00052017 0.0176285 -0.567961
13 3.59919 -1.06012 0.0708876 1.55963 0.0330086 -0.0631128
14 1.66069 0 0 -0.0117611 0.0784724 -0.308323
15 1.167 0 0 -0.0322059 0.026332 -0.324612
16 2.18852 0.501038 0.0576587 1.5718 0.00385041 0.230252
17 1.29609 0 0 -0.00238428 -0.0467731 -0.137812
18 1.62202 0.000713825 -0.000469208 0.00448845 -0.0412093 -0.476182
19 1.22241 0 0 0.0229114 -0.00821896 -0.616633
20 1.76707 1.27612 0.0366411 1.57217 0.0441895 0.269282
21 1.55588 0 0 -0.019372 0.0262209 -0.341828
22 1.24273 0 0 -0.000566588 0.000196039 -0.346294
23 0.784523 0 0 0.0123547 0.00828851 -0.247664
24 -1.93761 -1.34664 -10.5891 -0.000932534 0 -2.28859
25 6.02794 0 0 1.13511 0.179335 -0.543115
26 11.7344 0 0 0.00140274 0 2.47992
27 8.81167 0 0 0.591309 0 0
28 5.77884 0 0 0.396177 0 0
29 2.23249 0 0 0.195132 0 0
30 11.4725 0 0 0.517954 0.367466 -0.186687
31 0.615812 0.994373 -0.809165 -2.52776 0.221983 0.499349
32 2.24752 0 0 -0.210486 0.0557812 0.295658
33 1.11936 0 0 -0.113276 0.230403 0.485185
34 3.71348 0.102639 0.102191 -1.55996 0.0813259 -0.0785279
35 1.72615 0 0 -0.0187484 -0.0215031 0.828904
36 1.21112 0 0 -0.00606452 0.0165607 0.246409
37 3.5992 1.06012 0.070888 -1.55962 -0.0411616 0.0622839
38 1.66069 0 0 0.0316752 0.0711427 0.642246
39 1.16699 0 0 0.0284645 0.0361497 0.287037
40 2.18853 -0.50104 0.0576591 -1.57004 -0.0521616 -0.225938
41 1.29609 0 0 -0.00471663 -0.0465958 0.289675
42 1.62202 -0.00071311 -0.000470161 -0.00751873 -0.0393818 0.621827
43 1.2224 0 0 -0.0203722 -0.0121865 0.571769
44 1.76707 -1.27612 0.0366409 -1.57004 -0.0293955 -0.261465
45 1.55587 0 0 0.0151799 0.0288512 0.189855
46 1.24273 0 0 0.000583547 0.000137182 0.448716
47 0.784532 0 0 -0.0129176 0.00994978 0.36871
48 0 0 0 0 0 0
time 13
0 1.938 -1.34664 -10.5891 0 0 -0.74164
1 6.02794 0 0 -0.680774 0.287727 0.180698
2 11.7344 0 0 -0.00140282 0 -2.03898
3 8.81138 -0.000450134 -0.00011158 -0.137658 0 0.000157387
4 5.77839 0.000286102 0 -0.0922308 0 0.000104876
5 2.23163 -0.000329971 -0.000364304 -0.0454271 0 0
6 11.4725 0 0 -0.0988767 -0.165187 -0.248734
7 0.615219 -0.993093 -0.8107 2.53303 0.299826 -0.474351
8 2.24752 0 0 0.210777 0.141441 -0.228942
9 1.11936 0 0 0.199828 0.167758 -0.398358
10 3.71348 -0.10264 0.102191 1.55998 0.0873652 0.0791237
11 1.72615 0 0 0.0112972 -0.026616 -0.494707
12 1.21114 0 0 -0.000204189 0.0176349 -0.609021
13 3.59919 -1.06012 0.0708876 1.5596 0.0720699 -0.06355
14 1.66069 0 0 -0.0106943 0.0775928 -0.34091
15 1.167 0 0 -0.0320028 0.029885 -0.374869
16 2.18852 0.50104 0.0576591 1.57057 0.00671077 0.227201
17 1.29609 0 0 -0.000785298 -0.046827 -0.171986
18 1.62202 0.000714302 -0.000473022 0.00367608 -0.0403377 -0.504216
19 1.22241 0 0 0.0219411 -0.00949249 -0.657135
20 1.76707 1.27612 0.0366411 1.57069 0.0489925 0.263768
21 1.55588 0 0 -0.0200585 0.0256994 -0.368278
22 1.24273 0 0 -0.000572618 0.000177767 -0.378228
23 0.784523 0 0 0.0131355 0.00893073 -0.292636
24 -1.93761 -1.34664 -10.5891 -0.000932534 0 -2.28859
25 6.02794 0 0 1.13224 0.183809 -0.543989
26 11.7344 0 0 0.0014027 0 2.48284
27 8.81167 0 0 0.57868 0 0
28 5.77884 0 0 0.387716 0 0
29 2.23249 0 0 0.190964 0 0
30 11.4725 0 0 0.507254 0.356628 -0.192045
31 0.615813 0.994371 -0.809165 -2.52776 0.221983 0.499348
32 2.24752 0 0 -0.210486 0.0557813 0.295658
33 1.11936 0 0 -0.113276 0.230403 0.485185
34 3.71349 0.102638 0.102191 -1.55996 0.0813259 -0.0785279
35 1.72615 0 0 -0.0187483 -0.0215031 0.828904
36 1.21112 0 0 -0.00606455 0.0165607 0.246409
37 3.5992 1.06012 0.0708883 -1.55962 -0.0411616 0.062284
38 1.66069 0 0 0.0316753 0.0711427 0.642246
39 1.16699 0 0 0.0284644 0.0361498 0.287037
40 2.18853 -0.50104 0.0576594 -1.57004 -0.0521617 -0.225938
41 1.29609 0 0 -0.00471664 -0.0465958 0.289674
42 1.62202 -0.00071311 -0.000469208 -0.00751857 -0.0393818 0.621827
43 1.2224 0 0 -0.0203722 -0.0121865 0.571769
44 1.76707 -1.27612 0.0366414 -1.57004 -0.0293955 -0.261465
45 1.55588 0 0 0.0151798 0.028851 0.189855
46 1.24273 0 0 0.000583657 0.000137463 0.448716
47 0.784531 0 0 -0.0129177 0.00994986 0.36871
48 0 0 0 0 0 0
time 14
0 1.938 -1.34664 -10.5891 0 0 -0.74164
1 6.02794 0 0 -0.68202 0.290271 0.18536
2 11.7344 0 0 -0.00140288 0 -2.04333
3 8.81138 -0.000448227 -0.00011158 -0.145868 0 0.000158006
4 5.77839 0.00028801 0 -0.0977316 0 0.000105089
5 2.23163 -0.000328064 -0.00036335 -0.0481364 0 0
6 11.4725 0 0 -0.106486 -0.169324 -0.246575
7 0.615219 -0.993092 -0.8107 2.53372 0.301592 -0.472169
8 2.24752 0 0 0.210236 0.142139 -0.232416
9 1.11936 0 0 0.198583 0.170036 -0.408663
10 3.71348 -0.10264 0.102191 1.55994 0.104103 0.0782797
11 1.72615 0 0 0.0109321 -0.0263503 -0.505047
12 1.21114 0 0 -0.000513992 0.0176288 -0.626618
13 3.59919 -1.06012 0.0708885 1.55959 0.0888104 -0.0637382
14 1.66069 0 0 -0.0102345 0.0771909 -0.354874
15 1.167 0 0 -0.0318915 0.0313799 -0.396412
16 2.18852 0.50104 0.0576591 1.57004 0.00793675 0.225893
17 1.29609 0 0 0 -0.0468336 -0.186632
18 1.62202 0.000714302 -0.000471115 0.00332719 -0.0399544 -0.51623
19 1.22241 0 0 0.0215147 -0.0100329 -0.674493
20 1.76707 1.27612 0.0366416 1.57004 0.0510504 0.261404
21 1.55588 0 0 -0.0203487 0.0254705 -0.379614
22 1.24273 0 0 -0.000575133 0.000170044 -0.391913
23 0.784522 0 0 0.0134618 0.00920046 -0.311909
24 -1.93761 -1.34664 -10.5891 -0.000932534 0 -2.28859
25 6.02794 0 0 1.13078 0.186051 -0.544435
26 11.7344 0 0 0.0014027 0 2.48429
27 8.81167 0 0 0.573679 0 0
28 5.77884 0 0 0.384365 0 0
29 2.23249 0 0 0.189314 0 0
30 11.4725 0 0 0.503031 0.352367 -0.194051
31 0.615812 0.994371 -0.809165 -2.52776 0.221983 0.499348
32 2.24752 0 0 -0.210486 0.0557813 0.295658
33 1.11936 0 0 -0.113276 0.230403 0.485186
34 3.71349 0.102638 0.102191 -1.55996 0.0813258 -0.0785279
35 1.72615 0 0 -0.0187483 -0.0215031 0.828904
36 1.21112 0 0 -0.00606464 0.0165607 0.246409
37 3.5992 1.06012 0.0708883 -1.55962 -0.0411616 0.0622841
38 1.66069 0 0 0.0316755 0.0711427 0.642246
39 1.16699 0 0 0.0284643 0.0361496 0.287037
40 2.18853 -0.50104 0.0576587 -1.57004 -0.0521618 -0.225938
41 1.29609 0 0 -0.00471662 -0.0465958 0.289675
42 1.62202 -0.000712872 -0.000470161 -0.00751872 -0.0393818 0.621827
43 1.2224 0 0 -0.0203722 -0.0121865 0.571769
44 1.76707 -1.27612 0.0366409 -1.57004 -0.0293956 -0.261465
45 1.55588 0 0 0.0151798 0.028851 0.189855
46 1.24273 0 0 0.000583655 0.000137219 0.448716
47 0.784531 0 0 -0.0129178 0.00994994 0.36871
48 0 0 0 0 0 0
end
