//Sequence File generated by the Wall Worm SMD Exporter PRO 1.99
//www.wallworm.com
version 1
nodes
0 "b_l_clav" -1
1 "b_l_upperarm" 0
2 "b_l_forearm" 1
3 "b_l_twist3" 2
4 "b_l_twist2" 2
5 "b_l_twist1" 2
6 "b_l_hand" 2
7 "b_l_thumb001" 6
8 "b_l_thumb002" 7
9 "b_l_thumb003" 8
10 "b_l_middle001" 6
11 "b_l_middle002" 10
12 "b_l_middle003" 11
13 "b_l_index001" 6
14 "b_l_index002" 13
15 "b_l_index003" 14
16 "b_l_hand_ringsqueezer" 6
17 "b_l_ring001" 16
18 "b_l_ring002" 17
19 "b_l_ring003" 18
20 "b_l_hand_pinkysqueezer" 6
21 "b_l_pinky001" 20
22 "b_l_pinky002" 21
23 "b_l_pinky003" 22
24 "b_r_clav" -1
25 "b_r_upperarm" 24
26 "b_r_forearm" 25
27 "b_r_twist3" 26
28 "b_r_twist2" 26
29 "b_r_twist1" 26
30 "b_r_hand" 26
31 "b_r_thumb001" 30
32 "b_r_thumb002" 31
33 "b_r_thumb003" 32
34 "b_r_middle001" 30
35 "b_r_middle002" 34
36 "b_r_middle003" 35
37 "b_r_index001" 30
38 "b_r_index002" 37
39 "b_r_index003" 38
40 "b_r_hand_ringsqueezer" 30
41 "b_r_ring001" 40
42 "b_r_ring002" 41
43 "b_r_ring003" 42
44 "b_r_hand_pinkysqueezer" 30
45 "b_r_pinky001" 44
46 "b_r_pinky002" 45
47 "b_r_pinky003" 46
48 "b_zero" -1
end
skeleton
time 0
0 1.938 -1.34664 -10.5891 0 0 -0.74164
1 6.02794 0 0 -0.68202 0.290271 0.18536
2 11.7344 0 0 -0.00140288 0 -2.04333
3 8.81138 -0.000448227 -0.00011158 -0.145868 0 0.000158006
4 5.77839 0.00028801 0 -0.0977316 0 0.000105089
5 2.23163 -0.000328064 -0.00036335 -0.0481364 0 0
6 11.4725 0 0 -0.106486 -0.169324 -0.246575
7 0.615219 -0.993092 -0.8107 2.53372 0.301592 -0.472169
8 2.24752 0 0 0.210236 0.142139 -0.232416
9 1.11936 0 0 0.198583 0.170036 -0.408663
10 3.71348 -0.10264 0.102191 1.55994 0.104103 0.0782797
11 1.72615 0 0 0.0109321 -0.0263503 -0.505047
12 1.21114 0 0 -0.000513992 0.0176288 -0.626618
13 3.59919 -1.06012 0.0708885 1.55959 0.0888104 -0.0637382
14 1.66069 0 0 -0.0102345 0.0771909 -0.354874
15 1.167 0 0 -0.0318915 0.0313799 -0.396412
16 2.18852 0.50104 0.0576591 1.57004 0.00793675 0.225893
17 1.29609 0 0 0 -0.0468336 -0.186632
18 1.62202 0.000714302 -0.000471115 0.00332719 -0.0399544 -0.51623
19 1.22241 0 0 0.0215147 -0.0100329 -0.674493
20 1.76707 1.27612 0.0366416 1.57004 0.0510504 0.261404
21 1.55588 0 0 -0.0203487 0.0254705 -0.379614
22 1.24273 0 0 -0.000575133 0.000170044 -0.391913
23 0.784522 0 0 0.0134618 0.00920046 -0.311909
24 -1.93761 -1.34664 -10.5891 -0.000932534 0 -2.28859
25 6.02794 0 0 1.13078 0.186051 -0.544435
26 11.7344 0 0 0.0014027 0 2.48429
27 8.81167 0 0 0.573679 0 0
28 5.77884 0 0 0.384365 0 0
29 2.23249 0 0 0.189314 0 0
30 11.4725 0 0 0.503031 0.352367 -0.194051
31 0.615812 0.994371 -0.809165 -2.52776 0.221983 0.499348
32 2.24752 0 0 -0.210486 0.0557813 0.295658
33 1.11936 0 0 -0.113276 0.230403 0.485186
34 3.71349 0.102638 0.102191 -1.55996 0.0813258 -0.0785279
35 1.72615 0 0 -0.0187483 -0.0215031 0.828904
36 1.21112 0 0 -0.00606464 0.0165607 0.246409
37 3.5992 1.06012 0.0708883 -1.55962 -0.0411616 0.0622841
38 1.66069 0 0 0.0316755 0.0711427 0.642246
39 1.16699 0 0 0.0284643 0.0361496 0.287037
40 2.18853 -0.50104 0.0576587 -1.57004 -0.0521618 -0.225938
41 1.29609 0 0 -0.00471662 -0.0465958 0.289675
42 1.62202 -0.000712872 -0.000470161 -0.00751872 -0.0393818 0.621827
43 1.2224 0 0 -0.0203722 -0.0121865 0.571769
44 1.76707 -1.27612 0.0366409 -1.57004 -0.0293956 -0.261465
45 1.55588 0 0 0.0151798 0.028851 0.189855
46 1.24273 0 0 0.000583655 0.000137219 0.448716
47 0.784531 0 0 -0.0129178 0.00994994 0.36871
48 0 0 0 0 0 0
time 1
0 1.938 -1.34664 -10.5891 0 0 -0.74164
1 6.02794 0 0 -0.693966 0.301204 0.181572
2 11.7344 0 0 -0.00140279 0 -2.05081
3 8.81138 -0.000452042 -0.000111103 -0.15539 0 0.000158146
4 5.77839 0.000286102 0 -0.104111 0 0.000105181
5 2.23163 -0.000329971 -0.000363827 -0.0512788 0 0
6 11.4725 0 0 -0.119369 -0.164541 -0.232989
7 0.615219 -0.993092 -0.8107 2.53372 0.301592 -0.472169
8 2.24752 0 0 0.210236 0.142139 -0.232416
9 1.11936 0 0 0.198583 0.170036 -0.408663
10 3.71348 -0.10264 0.102191 1.55994 0.104103 0.0782795
11 1.72615 0 0 0.0109321 -0.0263503 -0.505047
12 1.21114 0 0 -0.000514031 0.0176287 -0.626618
13 3.59919 -1.06012 0.0708883 1.55959 0.0888104 -0.0637385
14 1.66069 0 0 -0.0102345 0.077191 -0.354874
15 1.167 0 0 -0.0318915 0.0313799 -0.396412
16 2.18853 0.50104 0.0576589 1.57004 0.00793657 0.225892
17 1.29609 0 0 0 -0.0468336 -0.186632
18 1.62202 0.000713587 -0.000473022 0.0033272 -0.0399544 -0.51623
19 1.22241 0 0 0.0215146 -0.010033 -0.674493
20 1.76707 1.27612 0.0366409 1.57004 0.0510505 0.261404
21 1.55588 0 0 -0.0203485 0.0254705 -0.379614
22 1.24273 0 0 -0.000575142 0.000170088 -0.391913
23 0.784523 0 0 0.0134617 0.00920057 -0.311909
24 -1.93761 -1.34664 -10.5891 -0.000932534 0 -2.28859
25 6.02794 0 0 1.12682 0.192439 -0.535125
26 11.7344 0 0 0.00140268 0 2.48261
27 8.81167 0 0 0.573569 0 0
28 5.77884 0 0 0.384291 0 0
29 2.23249 0 0 0.189278 0 0
30 11.4725 0 0 0.503242 0.342994 -0.209313
31 0.615813 0.994372 -0.809165 -2.52776 0.221983 0.499348
32 2.24752 0 0 -0.210486 0.0557813 0.295658
33 1.11936 0 0 -0.113276 0.230403 0.485186
34 3.71349 0.102638 0.102191 -1.55996 0.0813259 -0.0785278
35 1.72615 0 0 -0.0187481 -0.021503 0.828904
36 1.21112 0 0 -0.00606435 0.0165608 0.246409
37 3.5992 1.06012 0.070888 -1.55962 -0.0411617 0.062284
38 1.66069 0 0 0.0316755 0.0711428 0.642246
39 1.16699 0 0 0.0284645 0.0361498 0.287037
40 2.18853 -0.50104 0.0576596 -1.57004 -0.0521619 -0.225938
41 1.29609 0 0 -0.0047166 -0.0465957 0.289674
42 1.62202 -0.000712872 -0.000472069 -0.00751877 -0.0393818 0.621827
43 1.22241 0 0 -0.0203723 -0.0121865 0.571769
44 1.76707 -1.27612 0.0366411 -1.57004 -0.0293958 -0.261465
45 1.55588 0 0 0.0151799 0.0288511 0.189855
46 1.24273 0 0 0.0005835 0.000137376 0.448716
47 0.784531 0 0 -0.0129176 0.00994988 0.36871
48 0 0 0 0 0 0
time 2
0 1.938 -1.34664 -10.5891 0 0 -0.74164
1 6.02794 0 0 -0.725613 0.329318 0.17134
2 11.7344 0 0 -0.0014028 0 -2.07095
3 8.81138 -0.000450134 -0.00011158 -0.181949 0 0.00015846
4 5.77839 0.000286102 0 -0.121906 0 0.000105343
5 2.23163 -0.000329971 -0.000364304 -0.0600433 0 0
6 11.4725 0 0 -0.153589 -0.153827 -0.196914
7 0.615219 -0.99309 -0.8107 2.53372 0.301592 -0.472169
8 2.24752 0 0 0.210236 0.142139 -0.232416
9 1.11936 0 0 0.198583 0.170037 -0.408663
10 3.71348 -0.102642 0.102191 1.55994 0.104103 0.0782798
11 1.72615 0 0 0.010932 -0.0263504 -0.505047
12 1.21114 0 0 -0.000514059 0.0176288 -0.626618
13 3.59919 -1.06012 0.0708878 1.55959 0.0888103 -0.0637383
14 1.66069 0 0 -0.0102344 0.077191 -0.354874
15 1.167 0 0 -0.0318913 0.0313799 -0.396412
16 2.18852 0.50104 0.0576591 1.57004 0.00793648 0.225893
17 1.29609 0 0 0 -0.0468336 -0.186633
18 1.62202 0.000714302 -0.0004673 0.00332737 -0.0399544 -0.51623
19 1.22241 0 0 0.0215143 -0.0100331 -0.674493
20 1.76707 1.27612 0.0366409 1.57004 0.0510503 0.261404
21 1.55588 0 0 -0.0203483 0.0254705 -0.379614
22 1.24273 0 0 -0.00057513 0.000170029 -0.391913
23 0.784524 0 0 0.0134617 0.00920054 -0.311909
24 -1.93761 -1.34664 -10.5891 -0.000932534 0 -2.28859
25 6.02794 0 0 1.1169 0.210221 -0.509754
26 11.7344 0 0 0.00140279 0 2.47774
27 8.81167 0 0 0.571832 0 0
28 5.77884 0 0 0.383127 0 0
29 2.23249 0 0 0.188704 0 0
30 11.4725 0 0 0.504811 0.315541 -0.24767
31 0.615813 0.99437 -0.809165 -2.52776 0.221983 0.499348
32 2.24752 0 0 -0.210486 0.0557813 0.295658
33 1.11936 0 0 -0.113276 0.230403 0.485186
34 3.71349 0.102639 0.102191 -1.55996 0.0813257 -0.0785279
35 1.72615 0 0 -0.0187483 -0.0215031 0.828904
36 1.21112 0 0 -0.00606453 0.0165609 0.246409
37 3.5992 1.06011 0.070888 -1.55962 -0.0411616 0.0622838
38 1.66069 0 0 0.0316755 0.0711429 0.642246
39 1.16699 0 0 0.0284645 0.0361498 0.287037
40 2.18853 -0.50104 0.0576587 -1.57004 -0.0521617 -0.225938
41 1.29609 0 0 -0.00471662 -0.0465957 0.289674
42 1.62202 -0.000712872 -0.000471115 -0.00751869 -0.0393817 0.621827
43 1.2224 0 0 -0.0203723 -0.0121864 0.571769
44 1.76707 -1.27612 0.0366411 -1.57004 -0.0293957 -0.261465
45 1.55588 0 0 0.0151797 0.0288509 0.189855
46 1.24273 0 0 0.0005835 0.000137376 0.448716
47 0.784532 0 0 -0.0129177 0.00994984 0.36871
48 0 0 0 0 0 0
time 3
0 1.938 -1.34664 -10.5891 0 0 -0.74164
1 6.02794 0 0 -0.770242 0.366723 0.156567
2 11.7344 0 0 -0.00140276 0 -2.10008
3 8.81138 -0.000448227 -0.00011158 -0.222575 0 0.000157885
4 5.77839 0.000284195 0 -0.149125 0 0.000104736
5 2.23163 -0.000329971 -0.000364304 -0.0734498 0 0
6 11.4725 0 0 -0.202488 -0.143825 -0.146022
7 0.615219 -0.993092 -0.8107 2.53372 0.301592 -0.472169
8 2.24752 0 0 0.210236 0.142139 -0.232415
9 1.11936 0 0 0.198583 0.170036 -0.408663
10 3.71348 -0.102642 0.10219 1.55994 0.104103 0.0782797
11 1.72615 0 0 0.010932 -0.0263503 -0.505047
12 1.21114 0 0 -0.000514318 0.0176286 -0.626618
13 3.59919 -1.06012 0.0708873 1.55959 0.0888104 -0.0637384
14 1.66069 0 0 -0.0102345 0.077191 -0.354874
15 1.167 0 0 -0.0318914 0.03138 -0.396412
16 2.18852 0.50104 0.0576591 1.57004 0.00793665 0.225893
17 1.29609 0 0 0 -0.0468337 -0.186633
18 1.62202 0.000713825 -0.000469208 0.00332723 -0.0399543 -0.51623
19 1.22241 0 0 0.0215146 -0.010033 -0.674493
20 1.76707 1.27612 0.0366411 1.57004 0.0510505 0.261404
21 1.55588 0 0 -0.0203486 0.0254706 -0.379614
22 1.24273 0 0 -0.000575013 0.000170053 -0.391913
23 0.784524 0 0 0.0134619 0.00920054 -0.311909
24 -1.93761 -1.34664 -10.5891 -0.000932534 0 -2.28859
25 6.02794 0 0 1.10444 0.237207 -0.472237
26 11.7344 0 0 0.00140277 0 2.46924
27 8.81167 0 0 0.566424 0 0
28 5.77884 0 0 0.379504 0 0
29 2.23249 0 0 0.18692 0 0
30 11.4725 0 0 0.510055 0.270086 -0.295447
31 0.615813 0.994371 -0.809165 -2.52776 0.221983 0.499348
32 2.24752 0 0 -0.210486 0.0557813 0.295658
33 1.11936 0 0 -0.113276 0.230403 0.485185
34 3.71349 0.102639 0.102191 -1.55996 0.0813258 -0.0785279
35 1.72615 0 0 -0.0187483 -0.0215029 0.828904
36 1.21112 0 0 -0.00606452 0.0165607 0.246409
37 3.5992 1.06012 0.0708879 -1.55962 -0.0411617 0.0622839
38 1.66069 0 0 0.0316755 0.0711427 0.642246
39 1.16699 0 0 0.0284644 0.0361497 0.287037
40 2.18853 -0.50104 0.0576587 -1.57004 -0.0521617 -0.225938
41 1.29609 0 0 -0.00471675 -0.0465957 0.289674
42 1.62202 -0.00071311 -0.000469208 -0.00751863 -0.0393817 0.621827
43 1.22241 0 0 -0.0203726 -0.0121864 0.57177
44 1.76707 -1.27612 0.0366406 -1.57004 -0.0293957 -0.261465
45 1.55588 0 0 0.0151798 0.0288509 0.189855
46 1.24273 0 0 0.000583471 0.000137383 0.448716
47 0.784531 0 0 -0.0129177 0.00994986 0.36871
48 0 0 0 0 0 0
time 4
0 1.938 -1.34664 -10.5891 0 0 -0.74164
1 6.02794 0 0 -0.82132 0.406304 0.13973
2 11.7344 0 0 -0.00140289 0 -2.13505
3 8.81138 -0.000450134 -0.000113487 -0.273379 0 0.000158493
4 5.77839 0.00028801 0 -0.183164 0 0.000104926
5 2.23163 -0.000329971 -0.000364304 -0.0902151 0 0
6 11.4725 0 0 -0.26036 -0.14019 -0.0877901
7 0.615219 -0.993092 -0.8107 2.53372 0.301592 -0.472169
8 2.24752 0 0 0.210236 0.142139 -0.232416
9 1.11936 0 0 0.198583 0.170036 -0.408663
10 3.71348 -0.102642 0.102191 1.55994 0.104103 0.0782796
11 1.72615 0 0 0.0109318 -0.0263505 -0.505047
12 1.21114 0 0 -0.000514147 0.0176287 -0.626618
13 3.59919 -1.06012 0.0708877 1.55959 0.0888104 -0.0637385
14 1.66069 0 0 -0.0102345 0.077191 -0.354874
15 1.167 0 0 -0.0318915 0.0313799 -0.396412
16 2.18852 0.50104 0.0576589 1.57004 0.0079366 0.225893
17 1.29609 0 0 0 -0.0468335 -0.186632
18 1.62202 0.000713706 -0.000469208 0.00332724 -0.0399543 -0.51623
19 1.22241 0 0 0.0215145 -0.010033 -0.674493
20 1.76707 1.27612 0.0366409 1.57004 0.0510505 0.261404
21 1.55588 0 0 -0.0203485 0.0254704 -0.379614
22 1.24273 0 0 -0.000575313 0.000170031 -0.391913
23 0.784523 0 0 0.0134618 0.00920059 -0.311909
24 -1.93761 -1.34664 -10.5891 -0.000932534 0 -2.28859
25 6.02794 0 0 1.0925 0.271435 -0.427334
26 11.7344 0 0 0.00140274 0 2.45865
27 8.81167 0 0 0.557803 0 0
28 5.77884 0 0 0.373728 0 0
29 2.23249 0 0 0.184075 0 0
30 11.4725 0 0 0.521472 0.20789 -0.340012
31 0.615813 0.994372 -0.809165 -2.52776 0.221983 0.499348
32 2.24752 0 0 -0.210486 0.0557813 0.295658
33 1.11936 0 0 -0.113276 0.230403 0.485186
34 3.71349 0.102639 0.102191 -1.55996 0.0813258 -0.0785279
35 1.72615 0 0 -0.0187486 -0.021503 0.828904
36 1.21112 0 0 -0.0060645 0.0165608 0.246409
37 3.5992 1.06012 0.070888 -1.55962 -0.0411616 0.062284
38 1.66069 0 0 0.0316754 0.0711427 0.642246
39 1.16699 0 0 0.0284646 0.0361497 0.287037
40 2.18853 -0.50104 0.0576589 -1.57004 -0.0521617 -0.225938
41 1.29609 0 0 -0.00471651 -0.0465958 0.289675
42 1.62202 -0.000712991 -0.000469208 -0.0075187 -0.0393817 0.621827
43 1.2224 0 0 -0.0203724 -0.0121864 0.57177
44 1.76707 -1.27612 0.0366409 -1.57004 -0.0293955 -0.261465
45 1.55588 0 0 0.0151798 0.0288509 0.189855
46 1.24273 0 0 0.000583487 0.000137196 0.448716
47 0.784531 0 0 -0.0129176 0.00994984 0.36871
48 0 0 0 0 0 0
time 5
0 1.938 -1.34664 -10.5891 0 0 -0.74164
1 6.02794 0 0 -0.873368 0.442664 0.123116
2 11.7344 0 0 -0.00140294 0 -2.17214
3 8.81138 -0.000450134 -0.000112534 -0.329551 0 0.00015834
4 5.77839 0.000286102 0 -0.220799 0 0.000104676
5 2.23163 -0.000328064 -0.00036335 -0.108752 0 0
6 11.4725 0 0 -0.322599 -0.145561 -0.0293282
7 0.61522 -0.993092 -0.810701 2.53372 0.301592 -0.472169
8 2.24752 0 0 0.210236 0.142139 -0.232416
9 1.11936 0 0 0.198583 0.170037 -0.408663
10 3.71348 -0.102642 0.102191 1.55994 0.104103 0.0782797
11 1.72615 0 0 0.010932 -0.0263503 -0.505047
12 1.21114 0 0 -0.00051407 0.0176287 -0.626618
13 3.59919 -1.06012 0.0708878 1.55959 0.0888102 -0.0637383
14 1.66069 0 0 -0.0102344 0.077191 -0.354874
15 1.167 0 0 -0.0318915 0.0313799 -0.396412
16 2.18852 0.501038 0.0576589 1.57004 0.00793639 0.225893
17 1.29609 0 0 0 -0.0468336 -0.186633
18 1.62202 0.000713825 -0.000471115 0.00332712 -0.0399543 -0.51623
19 1.22241 0 0 0.0215148 -0.0100329 -0.674492
20 1.76707 1.27612 0.0366414 1.57004 0.0510505 0.261404
21 1.55588 0 0 -0.0203485 0.0254704 -0.379614
22 1.24273 0 0 -0.000575259 0.000170065 -0.391913
23 0.784523 0 0 0.0134618 0.00920049 -0.311909
24 -1.93761 -1.34664 -10.5891 -0.000932534 0 -2.28859
25 6.02794 0 0 1.08323 0.308948 -0.379449
26 11.7344 0 0 0.00140266 0 2.44481
27 8.81167 0 0 0.549521 0 0
28 5.77884 0 0 0.368179 0 0
29 2.23249 0 0 0.181342 0 0
30 11.4725 0 0 0.540156 0.133175 -0.370584
31 0.615813 0.994372 -0.809165 -2.52776 0.221983 0.499348
32 2.24752 0 0 -0.210486 0.0557812 0.295658
33 1.11936 0 0 -0.113276 0.230403 0.485186
34 3.71349 0.102638 0.102191 -1.55996 0.0813257 -0.0785278
35 1.72615 0 0 -0.0187484 -0.021503 0.828904
36 1.21112 0 0 -0.00606424 0.0165608 0.246409
37 3.5992 1.06012 0.0708882 -1.55962 -0.0411615 0.0622839
38 1.66069 0 0 0.0316752 0.0711428 0.642246
39 1.16699 0 0 0.0284644 0.0361497 0.287037
40 2.18853 -0.50104 0.057659 -1.57004 -0.0521617 -0.225938
41 1.29609 0 0 -0.00471672 -0.0465958 0.289674
42 1.62202 -0.000712872 -0.000470161 -0.00751869 -0.0393817 0.621827
43 1.2224 0 0 -0.0203723 -0.0121864 0.57177
44 1.76707 -1.27612 0.0366409 -1.57004 -0.0293956 -0.261465
45 1.55588 0 0 0.0151797 0.028851 0.189855
46 1.24273 0 0 0.00058357 0.000137299 0.448716
47 0.784532 0 0 -0.0129178 0.00994985 0.36871
48 0 0 0 0 0 0
time 6
0 1.938 -1.34664 -10.5891 0 0 -0.74164
1 6.02794 0 0 -0.922097 0.472777 0.108689
2 11.7344 0 0 -0.00140283 0 -2.20816
3 8.81138 -0.000452042 -0.00011158 -0.386106 0 0.00015813
4 5.77839 0.000284195 0 -0.258691 0 0.000104381
5 2.23163 -0.000329971 -0.00036335 -0.127415 0 0
6 11.4725 0 0 -0.385017 -0.159153 0.0238432
7 0.61522 -0.993092 -0.8107 2.53372 0.301592 -0.472169
8 2.24752 0 0 0.210236 0.142139 -0.232416
9 1.11936 0 0 0.198583 0.170037 -0.408663
10 3.71348 -0.10264 0.102191 1.55994 0.104103 0.0782797
11 1.72615 0 0 0.0109318 -0.0263504 -0.505047
12 1.21114 0 0 -0.000514168 0.0176288 -0.626618
13 3.59919 -1.06012 0.0708876 1.55959 0.0888102 -0.0637383
14 1.66069 0 0 -0.0102344 0.0771909 -0.354874
15 1.167 0 0 -0.0318916 0.0313799 -0.396412
16 2.18852 0.501038 0.0576589 1.57004 0.00793652 0.225892
17 1.29609 0 0 0 -0.0468336 -0.186632
18 1.62202 0.000714302 -0.000469208 0.00332707 -0.0399544 -0.51623
19 1.22241 0 0 0.0215146 -0.010033 -0.674493
20 1.76707 1.27612 0.0366404 1.57004 0.0510504 0.261404
21 1.55588 0 0 -0.0203486 0.0254706 -0.379614
22 1.24274 0 0 -0.000575023 0.0001701 -0.391913
23 0.784523 0 0 0.0134619 0.00920058 -0.311909
24 -1.93761 -1.34664 -10.5891 -0.000932534 0 -2.28859
25 6.02794 0 0 1.07732 0.346546 -0.333373
26 11.7344 0 0 0.00140266 0 2.43008
27 8.81167 0 0 0.546428 0 0
28 5.77884 0 0 0.366107 0 0
29 2.23249 0 0 0.180321 0 0
30 11.4725 0 0 0.564731 0.0530909 -0.383756
31 0.615812 0.994372 -0.809166 -2.52776 0.221983 0.499348
32 2.24752 0 0 -0.210486 0.0557814 0.295658
33 1.11936 0 0 -0.113276 0.230403 0.485186
34 3.71349 0.102639 0.10219 -1.55996 0.0813259 -0.0785278
35 1.72615 0 0 -0.0187482 -0.021503 0.828904
36 1.21112 0 0 -0.00606453 0.0165609 0.246409
37 3.5992 1.06012 0.070888 -1.55962 -0.0411616 0.062284
38 1.66069 0 0 0.0316755 0.0711428 0.642246
39 1.16699 0 0 0.0284644 0.0361497 0.287037
40 2.18853 -0.501039 0.0576589 -1.57004 -0.0521617 -0.225938
41 1.29609 0 0 -0.00471668 -0.0465956 0.289674
42 1.62202 -0.000713587 -0.000470161 -0.00751873 -0.0393819 0.621827
43 1.2224 0 0 -0.0203725 -0.0121864 0.571769
44 1.76707 -1.27612 0.0366406 -1.57004 -0.0293956 -0.261465
45 1.55588 0 0 0.0151799 0.0288511 0.189855
46 1.24273 0 0 0.000583558 0.000137363 0.448716
47 0.784532 0 0 -0.0129177 0.00994981 0.36871
48 0 0 0 0 0 0
time 7
0 1.938 -1.34664 -10.5891 0 0 -0.74164
1 6.02794 0 0 -0.964205 0.495718 0.0977671
2 11.7344 0 0 -0.00140287 0 -2.24077
3 8.81138 -0.000450134 -0.000112534 -0.438404 0 0.000158153
4 5.77839 0.000284195 0 -0.293731 0 0.000104071
5 2.23163 -0.000329971 -0.00036335 -0.144673 0 0
6 11.4725 0 0 -0.443107 -0.177623 0.0682495
7 0.615219 -0.993091 -0.8107 2.53372 0.301592 -0.472169
8 2.24752 0 0 0.210236 0.142139 -0.232415
9 1.11936 0 0 0.198583 0.170036 -0.408663
10 3.71348 -0.10264 0.102191 1.55994 0.104103 0.0782796
11 1.72615 0 0 0.0109319 -0.0263504 -0.505047
12 1.21114 0 0 -0.000514031 0.0176287 -0.626618
13 3.59919 -1.06012 0.070888 1.55959 0.0888101 -0.0637383
14 1.66069 0 0 -0.0102344 0.077191 -0.354874
15 1.167 0 0 -0.0318916 0.0313799 -0.396412
16 2.18852 0.50104 0.0576591 1.57004 0.00793649 0.225893
17 1.29609 0 0 0 -0.0468336 -0.186632
18 1.62202 0.000714302 -0.000471115 0.0033272 -0.0399544 -0.51623
19 1.22241 0 0 0.0215146 -0.010033 -0.674493
20 1.76707 1.27612 0.0366421 1.57004 0.0510506 0.261404
21 1.55588 0 0 -0.0203484 0.0254706 -0.379614
22 1.24273 0 0 -0.000575208 0.000170116 -0.391913
23 0.784523 0 0 0.0134618 0.00920053 -0.311909
24 -1.93761 -1.34664 -10.5891 -0.000932534 0 -2.28859
25 6.02794 0 0 1.07453 0.380232 -0.29269
26 11.7344 0 0 0.00140262 0 2.41492
27 8.81167 0 0 0.551452 0 0
28 5.77884 0 0 0.369473 0 0
29 2.23249 0 0 0.181979 0 0
30 11.4725 0 0 0.591551 -0.0235827 -0.380733
31 0.615812 0.994371 -0.809165 -2.52776 0.221983 0.499348
32 2.24752 0 0 -0.210486 0.0557813 0.295658
33 1.11936 0 0 -0.113276 0.230403 0.485186
34 3.71349 0.102638 0.102191 -1.55996 0.0813258 -0.0785278
35 1.72615 0 0 -0.0187484 -0.021503 0.828904
36 1.21112 0 0 -0.00606439 0.0165608 0.246409
37 3.5992 1.06012 0.0708876 -1.55962 -0.0411615 0.0622841
38 1.66069 0 0 0.0316754 0.0711428 0.642246
39 1.16699 0 0 0.0284645 0.0361497 0.287037
40 2.18853 -0.50104 0.0576582 -1.57004 -0.0521616 -0.225938
41 1.29609 0 0 -0.00471673 -0.0465959 0.289675
42 1.62202 -0.000712872 -0.000469208 -0.00751867 -0.0393817 0.621827
43 1.2224 0 0 -0.0203723 -0.0121865 0.571769
44 1.76707 -1.27612 0.0366402 -1.57004 -0.0293954 -0.261465
45 1.55588 0 0 0.01518 0.0288511 0.189855
46 1.24273 0 0 0.000583537 0.000137307 0.448716
47 0.784532 0 0 -0.0129177 0.00994989 0.36871
48 0 0 0 0 0 0
time 8
0 1.938 -1.34664 -10.5891 0 0 -0.74164
1 6.02794 0 0 -0.997277 0.511276 0.0903641
2 11.7344 0 0 -0.00140288 0 -2.26656
3 8.81138 -0.000448227 -0.000112057 -0.482059 0 0.00015796
4 5.77839 0.000286102 0 -0.32298 0 0.000103759
5 2.23163 -0.00032711 -0.000364304 -0.15908 0 0
6 11.4725 0 0 -0.491731 -0.196356 0.10128
7 0.615219 -0.993091 -0.8107 2.53372 0.301592 -0.472169
8 2.24752 0 0 0.210236 0.142139 -0.232416
9 1.11936 0 0 0.198583 0.170037 -0.408663
10 3.71348 -0.10264 0.10219 1.55994 0.104103 0.0782798
11 1.72615 0 0 0.010932 -0.0263505 -0.505047
12 1.21114 0 0 -0.000514279 0.0176287 -0.626618
13 3.59919 -1.06012 0.070888 1.55959 0.0888103 -0.0637383
14 1.66069 0 0 -0.0102344 0.0771909 -0.354874
15 1.167 0 0 -0.0318914 0.03138 -0.396412
16 2.18852 0.50104 0.0576596 1.57004 0.00793668 0.225893
17 1.29609 0 0 0 -0.0468335 -0.186632
18 1.62202 0.000713825 -0.000471115 0.00332713 -0.0399544 -0.51623
19 1.22241 0 0 0.0215146 -0.0100331 -0.674493
20 1.76707 1.27612 0.0366411 1.57004 0.0510504 0.261404
21 1.55588 0 0 -0.0203485 0.0254704 -0.379614
22 1.24274 0 0 -0.000574876 0.000169974 -0.391913
23 0.784523 0 0 0.0134617 0.00920056 -0.311909
24 -1.93761 -1.34664 -10.5891 -0.000932534 0 -2.28859
25 6.02794 0 0 1.07385 0.40714 -0.260527
26 11.7344 0 0 0.00140276 0 2.40154
27 8.81167 0 0 0.563034 0 0
28 5.77884 0 0 0.377233 0 0
29 2.23249 0 0 0.185801 0 0
30 11.4725 0 0 0.615898 -0.087944 -0.368016
31 0.615814 0.994371 -0.809165 -2.52776 0.221983 0.499348
32 2.24752 0 0 -0.210486 0.0557813 0.295658
33 1.11936 0 0 -0.113276 0.230403 0.485186
34 3.71349 0.102639 0.102191 -1.55996 0.0813258 -0.078528
35 1.72615 0 0 -0.0187485 -0.021503 0.828904
36 1.21112 0 0 -0.00606453 0.0165608 0.246409
37 3.5992 1.06012 0.070888 -1.55962 -0.0411616 0.062284
38 1.66069 0 0 0.0316754 0.0711427 0.642246
39 1.16699 0 0 0.0284645 0.0361498 0.287037
40 2.18853 -0.50104 0.0576591 -1.57004 -0.0521618 -0.225938
41 1.29609 0 0 -0.00471673 -0.0465958 0.289675
42 1.62202 -0.000712872 -0.000470161 -0.00751863 -0.0393817 0.621827
43 1.2224 0 0 -0.0203725 -0.0121865 0.571769
44 1.76707 -1.27612 0.0366411 -1.57004 -0.0293956 -0.261465
45 1.55587 0 0 0.0151798 0.028851 0.189855
46 1.24273 0 0 0.000583565 0.000137361 0.448716
47 0.784532 0 0 -0.0129176 0.00994986 0.36871
48 0 0 0 0 0 0
time 9
0 1.938 -1.34664 -10.5891 0 0 -0.74164
1 6.02794 0 0 -1.01887 0.52054 0.0864312
2 11.7344 0 0 -0.00140287 0 -2.28426
3 8.81138 -0.000450134 -0.000112534 -0.512098 0 0.000158293
4 5.77839 0.000286102 0 -0.343105 0 0.000103922
5 2.23163 -0.000329018 -0.000364304 -0.168992 0 0
6 11.4725 0 0 -0.525205 -0.210583 0.122313
7 0.615219 -0.993092 -0.8107 2.53372 0.301592 -0.472169
8 2.24752 0 0 0.210236 0.142139 -0.232415
9 1.11936 0 0 0.198583 0.170036 -0.408663
10 3.71348 -0.102642 0.102191 1.55994 0.104103 0.0782797
11 1.72615 0 0 0.010932 -0.0263504 -0.505047
12 1.21114 0 0 -0.000514046 0.0176288 -0.626618
13 3.59919 -1.06012 0.0708885 1.55959 0.0888103 -0.0637384
14 1.66069 0 0 -0.0102346 0.077191 -0.354874
15 1.167 0 0 -0.0318913 0.0313799 -0.396412
16 2.18852 0.501039 0.0576591 1.57004 0.00793669 0.225893
17 1.29609 0 0 0 -0.0468336 -0.186632
18 1.62202 0.000713825 -0.000471115 0.00332733 -0.0399544 -0.51623
19 1.22241 0 0 0.0215147 -0.0100329 -0.674493
20 1.76707 1.27612 0.0366411 1.57004 0.0510507 0.261404
21 1.55588 0 0 -0.0203486 0.0254706 -0.379614
22 1.24274 0 0 -0.000575022 0.000170096 -0.391913
23 0.784523 0 0 0.0134618 0.00920058 -0.311909
24 -1.93761 -1.34664 -10.5891 -0.000932534 0 -2.28859
25 6.02794 0 0 1.07413 0.424868 -0.239409
26 11.7344 0 0 0.00140263 0 2.39203
27 8.81167 0 0 0.575288 0 0
28 5.77884 0 0 0.385443 0 0
29 2.23249 0 0 0.189845 0 0
30 11.4725 0 0 0.633212 -0.13186 -0.354331
31 0.615813 0.994372 -0.809165 -2.52776 0.221983 0.499348
32 2.24752 0 0 -0.210486 0.0557813 0.295658
33 1.11936 0 0 -0.113276 0.230403 0.485186
34 3.71349 0.10264 0.102191 -1.55996 0.0813259 -0.078528
35 1.72615 0 0 -0.0187484 -0.021503 0.828904
36 1.21112 0 0 -0.00606452 0.0165608 0.246409
37 3.5992 1.06012 0.0708876 -1.55962 -0.0411615 0.062284
38 1.66069 0 0 0.0316753 0.0711428 0.642246
39 1.16699 0 0 0.0284644 0.0361498 0.287037
40 2.18853 -0.50104 0.0576587 -1.57004 -0.0521616 -0.225938
41 1.29609 0 0 -0.00471675 -0.0465957 0.289674
42 1.62202 -0.000712872 -0.000469208 -0.0075187 -0.0393816 0.621827
43 1.2224 0 0 -0.0203722 -0.0121865 0.571769
44 1.76707 -1.27612 0.0366416 -1.57004 -0.0293956 -0.261465
45 1.55588 0 0 0.0151796 0.028851 0.189855
46 1.24273 0 0 0.000583639 0.000137283 0.448716
47 0.784531 0 0 -0.0129176 0.00994996 0.36871
48 0 0 0 0 0 0
time 10
0 1.938 -1.34664 -10.5891 0 0 -0.74164
1 6.02794 0 0 -1.02669 0.523636 0.0851593
2 11.7344 0 0 -0.0014029 0 -2.29065
3 8.81138 -0.000449181 -0.00011158 -0.523297 0 0.000158162
4 5.77839 0.000287056 0 -0.350609 0 0.000103746
5 2.23163 -0.000328064 -0.000362873 -0.172688 0 0
6 11.4725 0 0 -0.537643 -0.216095 0.129696
7 0.61522 -0.993092 -0.810701 2.53372 0.301592 -0.472169
8 2.24752 0 0 0.210236 0.142139 -0.232416
9 1.11936 0 0 0.198583 0.170036 -0.408663
10 3.71348 -0.102641 0.10219 1.55994 0.104103 0.0782799
11 1.72615 0 0 0.0109321 -0.0263506 -0.505047
12 1.21114 0 0 -0.000514217 0.0176287 -0.626618
13 3.59919 -1.06012 0.0708871 1.55959 0.0888102 -0.0637382
14 1.66069 0 0 -0.0102345 0.077191 -0.354874
15 1.167 0 0 -0.0318915 0.0313799 -0.396412
16 2.18852 0.50104 0.0576587 1.57004 0.00793654 0.225893
17 1.29609 0 0 0 -0.0468335 -0.186632
18 1.62202 0.000712872 -0.000472069 0.00332725 -0.0399544 -0.51623
19 1.22241 0 0 0.0215144 -0.0100331 -0.674493
20 1.76707 1.27612 0.0366402 1.57004 0.0510505 0.261404
21 1.55588 0 0 -0.0203485 0.0254705 -0.379614
22 1.24273 0 0 -0.000575139 0.000170073 -0.391913
23 0.784523 0 0 0.0134621 0.00920057 -0.311909
24 -1.93761 -1.34664 -10.5891 -0.000932534 0 -2.28859
25 6.02794 0 0 1.07437 0.431281 -0.231774
26 11.7344 0 0 0.00140259 0 2.38843
27 8.81167 0 0 0.580749 0 0
28 5.77884 0 0 0.389102 0 0
29 2.23249 0 0 0.191647 0 0
30 11.4725 0 0 0.6397 -0.148039 -0.348283
31 0.615812 0.994371 -0.809164 -2.52776 0.221983 0.499348
32 2.24752 0 0 -0.210486 0.0557811 0.295658
33 1.11936 0 0 -0.113276 0.230403 0.485186
34 3.71349 0.102639 0.102191 -1.55996 0.081326 -0.0785278
35 1.72615 0 0 -0.0187484 -0.021503 0.828904
36 1.21112 0 0 -0.00606443 0.0165608 0.246409
37 3.5992 1.06012 0.070889 -1.55962 -0.0411615 0.0622841
38 1.66069 0 0 0.0316755 0.0711428 0.642246
39 1.16699 0 0 0.0284644 0.0361497 0.287037
40 2.18853 -0.50104 0.0576591 -1.57004 -0.0521616 -0.225938
41 1.29609 0 0 -0.00471672 -0.0465957 0.289674
42 1.62202 -0.000713348 -0.000470161 -0.0075187 -0.0393818 0.621827
43 1.2224 0 0 -0.0203722 -0.0121865 0.571769
44 1.76707 -1.27612 0.0366411 -1.57004 -0.0293956 -0.261465
45 1.55588 0 0 0.0151799 0.0288511 0.189855
46 1.24273 0 0 0.000583482 0.000137197 0.448716
47 0.78453 0 0 -0.0129176 0.00994994 0.36871
48 0 0 0 0 0 0
end
