//Sequence File generated by the Wall Worm SMD Exporter PRO 1.99
//www.wallworm.com
version 1
nodes
0 "b_l_clav" -1
1 "b_l_upperarm" 0
2 "b_l_forearm" 1
3 "b_l_twist3" 2
4 "b_l_twist2" 2
5 "b_l_twist1" 2
6 "b_l_hand" 2
7 "b_l_thumb001" 6
8 "b_l_thumb002" 7
9 "b_l_thumb003" 8
10 "b_l_middle001" 6
11 "b_l_middle002" 10
12 "b_l_middle003" 11
13 "b_l_index001" 6
14 "b_l_index002" 13
15 "b_l_index003" 14
16 "b_l_hand_ringsqueezer" 6
17 "b_l_ring001" 16
18 "b_l_ring002" 17
19 "b_l_ring003" 18
20 "b_l_hand_pinkysqueezer" 6
21 "b_l_pinky001" 20
22 "b_l_pinky002" 21
23 "b_l_pinky003" 22
24 "b_r_clav" -1
25 "b_r_upperarm" 24
26 "b_r_forearm" 25
27 "b_r_twist3" 26
28 "b_r_twist2" 26
29 "b_r_twist1" 26
30 "b_r_hand" 26
31 "b_r_thumb001" 30
32 "b_r_thumb002" 31
33 "b_r_thumb003" 32
34 "b_r_middle001" 30
35 "b_r_middle002" 34
36 "b_r_middle003" 35
37 "b_r_index001" 30
38 "b_r_index002" 37
39 "b_r_index003" 38
40 "b_r_hand_ringsqueezer" 30
41 "b_r_ring001" 40
42 "b_r_ring002" 41
43 "b_r_ring003" 42
44 "b_r_hand_pinkysqueezer" 30
45 "b_r_pinky001" 44
46 "b_r_pinky002" 45
47 "b_r_pinky003" 46
48 "b_zero" -1
49 "d_wepinbone" -1
end
skeleton
time 0
0 2.57209 1.18619 -12.0998 0 0 -0.814469
1 6.02794 0 0 -0.788574 0.526084 -1.67827
2 11.7344 0 0 -0.00140274 0 -1.24384
3 8.81138 -0.000448227 -0.000112534 -2.15763 0 0.000156682
4 5.77839 0.00028801 0 -1.44561 0 0
5 2.23163 -0.000329971 -0.000363827 -0.712018 0 0
6 11.4725 0 0 -2.40674 0.86203 -0.105599
7 0.61522 -0.993092 -0.8107 2.92227 0.454999 -0.33141
8 2.24752 0 0 0.0643998 0.0920015 -0.245251
9 1.11936 0 0 0.0124088 0.0391455 -1.16006
10 3.71348 -0.102641 0.102192 1.44559 1.26927 -0.122846
11 1.72615 0 0 -0.0132947 0.0045437 -1.35296
12 1.21114 0 0 -0.0138878 0.0108707 -1.50415
13 3.59919 -1.06012 0.0708876 1.59719 1.13552 0.0844623
14 1.66069 0 0 0.0206527 0.106434 -1.46129
15 1.16699 0 0 0.140204 0.107864 -1.2636
16 2.18852 0.501039 0.0576591 1.58026 0.110062 0.0312637
17 1.29609 0 0 -0.0214547 0.0115008 -1.06235
18 1.62202 0.000713348 -0.000472069 -0.0075699 0.00444274 -1.4728
19 1.22241 0 0 -0.0469829 -0.00376777 -1.43289
20 1.76707 1.27612 0.0366402 1.57845 0.182304 -0.0214509
21 1.55588 0 0 -0.155246 -0.00355038 -0.857709
22 1.24273 0 0 -0.000505051 -0.000322986 -1.24825
23 0.784524 0 0 0.0082203 0.0140818 -0.754785
24 -2.25941 2.84874 -12.9412 -0.000932534 0 -2.53187
25 6.02794 0 0 2.76059 -0.122148 2.13316
26 11.7344 0 0 0.00140274 0 2.76497
27 8.81167 0 0 2.82956 0 0
28 5.77884 0 0 1.89581 0 0
29 2.23249 0 0 0.933756 0 0
30 11.4725 0 0 2.90426 0.205624 0.63103
31 0.615813 0.994371 -0.809165 -2.72226 0.463503 0.286233
32 2.24752 0 0 -0.0835969 0.0959307 0.272288
33 1.11936 0 0 -0.401236 0.450129 0.842933
34 3.71349 0.102639 0.102191 -1.41386 1.26431 0.0816931
35 1.72615 0 0 0.000698307 0.000241742 1.34896
36 1.21112 0 0 0.0115404 0.0133367 1.31081
37 3.5992 1.06012 0.0708876 -1.68043 1.04215 -0.112109
38 1.66069 0 0 0.00620716 0.00200636 1.47997
39 1.16699 0 0 -0.0701392 0.164234 1.21657
40 2.18853 -0.50104 0.0576591 -1.57605 0.00117792 -0.0469346
41 1.29609 0 0 -0.0326374 -0.0616157 1.17811
42 1.62201 -0.000713348 -0.000470161 -0.00508025 -0.00330941 1.42626
43 1.22241 0 0 0.0247019 -0.0856982 1.42308
44 1.76707 -1.27612 0.0366402 -1.56655 0.103701 0.0275535
45 1.55588 0 0 0.103891 -0.075653 0.975564
46 1.24273 0 0 -0.00469952 -0.0380689 1.28397
47 0.784532 0 0 -0.0127428 -0.0577753 1.00048
48 0 0 0 0 0 0
49 -16.1351 -6.60267 -12.4846 -2.2771 1.56505 1.47926
time 1
0 2.57209 1.18619 -12.0744 0 0 -0.814469
1 6.02794 0 0 -0.66545 0.686904 -1.47423
2 11.7344 0 0 -0.00140283 0 -1.55561
3 8.81138 -0.000450134 -0.00011301 -2.42939 0 0.000156181
4 5.77839 0.000284195 0 -1.62769 0 0
5 2.23163 -0.000329971 -0.00036478 -0.801699 0 0
6 11.4725 0 0 -2.58792 0.749319 -0.020479
7 0.615219 -0.993091 -0.8107 2.92227 0.454999 -0.33141
8 2.24752 0 0 0.0643998 0.0920015 -0.24525
9 1.11936 0 0 0.012409 0.0391455 -1.16006
10 3.71348 -0.102639 0.102191 1.44559 1.26927 -0.122845
11 1.72615 0 0 -0.0132949 0.00454336 -1.35296
12 1.21113 0 0 -0.0138876 0.0108708 -1.50415
13 3.59919 -1.06012 0.0708876 1.59719 1.13552 0.0844621
14 1.66068 0 0 0.0206525 0.106434 -1.46129
15 1.167 0 0 0.140204 0.107864 -1.2636
16 2.18852 0.50104 0.0576591 1.58026 0.110062 0.0312637
17 1.29609 0 0 -0.0214548 0.0115006 -1.06235
18 1.62202 0.000715256 -0.000472069 -0.00757012 0.00444246 -1.4728
19 1.22241 0 0 -0.0469831 -0.00376783 -1.43289
20 1.76707 1.27612 0.0366411 1.57845 0.182304 -0.0214512
21 1.55588 0 0 -0.155246 -0.00355054 -0.857709
22 1.24274 0 0 -0.000505454 -0.000323019 -1.24825
23 0.784524 0 0 0.00822065 0.0140817 -0.754785
24 -2.24457 2.64526 -14.5961 -0.000932534 0 -2.53187
25 6.02794 0 0 2.27768 0.331587 2.1935
26 11.7344 0 0 0.0014027 0 2.68493
27 8.81167 0 0 2.32835 0 0
28 5.77884 0 0 1.55999 0 0
29 2.23249 0 0 0.768354 0 0
30 11.4725 0 0 2.13481 0.0333338 0.859987
31 0.615813 0.994372 -0.809165 -2.72226 0.463503 0.286233
32 2.24752 0 0 -0.0835968 0.0959307 0.272288
33 1.11936 0 0 -0.401235 0.450129 0.842933
34 3.71349 0.102638 0.102191 -1.41386 1.26431 0.0816929
35 1.72615 0 0 0.000698367 0.00024177 1.34896
36 1.21112 0 0 0.0115403 0.0133365 1.31081
37 3.5992 1.06012 0.0708876 -1.68043 1.04215 -0.11211
38 1.66069 0 0 0.00620711 0.0020064 1.47997
39 1.16699 0 0 -0.0701393 0.164234 1.21657
40 2.18853 -0.50104 0.0576591 -1.57605 0.00117797 -0.0469345
41 1.29609 0 0 -0.0326377 -0.0616156 1.17811
42 1.62201 -0.000712872 -0.000470161 -0.00508015 -0.00330965 1.42626
43 1.22241 0 0 0.024702 -0.0856983 1.42308
44 1.76707 -1.27612 0.0366421 -1.56655 0.103701 0.0275536
45 1.55588 0 0 0.103891 -0.0756529 0.975564
46 1.24273 0 0 -0.00469954 -0.0380688 1.28397
47 0.784532 0 0 -0.012743 -0.0577753 1.00048
48 0 0 0 0 0 0
49 -13.7056 -7.18572 -13.6785 -2.60079 1.36511 1.24048
time 2
0 2.57209 1.18619 -12.0018 0 0 -0.814469
1 6.02794 0 0 -0.512321 0.7989 -1.20538
2 11.7344 0 0 -0.00140286 0 -1.84171
3 8.81138 -0.000452042 -0.000112057 -2.73776 0 0.000157731
4 5.77839 0.000286102 0 -1.8343 0 0.000100201
5 2.23163 -0.000331879 -0.000364304 -0.903461 0 0
6 11.4725 0 0 -2.7444 0.723071 0.143889
7 0.615219 -0.993091 -0.810699 2.92227 0.454999 -0.33141
8 2.24752 0 0 0.0643999 0.0920015 -0.24525
9 1.11936 0 0 0.012409 0.0391455 -1.16006
10 3.71348 -0.102641 0.102192 1.44559 1.26927 -0.122845
11 1.72615 0 0 -0.0132951 0.00454342 -1.35296
12 1.21114 0 0 -0.0138878 0.0108707 -1.50415
13 3.59919 -1.06012 0.0708885 1.59719 1.13552 0.0844622
14 1.66069 0 0 0.0206524 0.106434 -1.46129
15 1.167 0 0 0.140204 0.107864 -1.2636
16 2.18852 0.50104 0.0576601 1.58026 0.110062 0.0312636
17 1.29609 0 0 -0.0214551 0.0115005 -1.06235
18 1.62202 0.000714302 -0.000471115 -0.00756999 0.00444249 -1.4728
19 1.22241 0 0 -0.0469828 -0.00376776 -1.43289
20 1.76707 1.27612 0.0366411 1.57845 0.182304 -0.0214512
21 1.55588 0 0 -0.155246 -0.00355047 -0.857709
22 1.24273 0 0 -0.000505215 -0.000323067 -1.24825
23 0.784524 0 0 0.0082205 0.0140818 -0.754785
24 -2.22664 2.3993 -16.8064 -0.000932534 0 -2.53187
25 6.02795 0 0 1.32676 0.315529 1.29906
26 11.7344 0 0 0.00140277 0 2.43738
27 8.81167 0 0 0.920271 0 0
28 5.77884 0 0 0.616582 0 0
29 2.23249 0 0 0.303689 0 0
30 11.4725 0 0 0.976776 -0.629703 1.21989
31 0.615812 0.994373 -0.809164 -2.72226 0.463503 0.286233
32 2.24752 0 0 -0.0835969 0.0959307 0.272288
33 1.11936 0 0 -0.401236 0.450129 0.842934
34 3.71349 0.10264 0.102191 -1.41386 1.26431 0.0816934
35 1.72615 0 0 0.000698447 0.000241631 1.34896
36 1.21112 0 0 0.0115404 0.0133367 1.31081
37 3.5992 1.06012 0.0708885 -1.68043 1.04215 -0.112109
38 1.66069 0 0 0.00620708 0.00200627 1.47997
39 1.16699 0 0 -0.0701392 0.164234 1.21657
40 2.18853 -0.50104 0.0576591 -1.57605 0.0011779 -0.0469345
41 1.29609 0 0 -0.0326375 -0.0616158 1.17811
42 1.62201 -0.000713348 -0.000470161 -0.0050801 -0.00330946 1.42626
43 1.22241 0 0 0.0247019 -0.0856984 1.42308
44 1.76707 -1.27612 0.0366421 -1.56655 0.103701 0.0275535
45 1.55588 0 0 0.103891 -0.075653 0.975564
46 1.24273 0 0 -0.00469955 -0.0380689 1.28397
47 0.784532 0 0 -0.0127429 -0.0577753 1.00048
48 0 0 0 0 0 0
49 -10.9193 -8.13167 -14.6343 -2.87518 1.17482 1.09586
time 3
0 2.57209 1.18619 -11.8872 0 0 -0.814469
1 6.02794 0 0 -0.38054 0.859943 -0.980293
2 11.7344 0 0 -0.00140282 0 -2.04219
3 8.81138 -0.000449181 -0.00011158 -2.98079 0 0.000157774
4 5.77839 0.000287056 0 -1.99713 0 0.000100733
5 2.23164 -0.000329018 -0.00036335 -0.983662 0 0
6 11.4725 0 0 -2.78946 0.751542 0.340432
7 0.615219 -0.99309 -0.8107 2.92227 0.454999 -0.331411
8 2.24752 0 0 0.0643997 0.0920016 -0.24525
9 1.11936 0 0 0.0124088 0.0391455 -1.16006
10 3.71348 -0.10264 0.102191 1.44559 1.26927 -0.122846
11 1.72615 0 0 -0.0132948 0.00454352 -1.35296
12 1.21114 0 0 -0.0138877 0.010871 -1.50415
13 3.59919 -1.06012 0.0708876 1.59719 1.13552 0.0844621
14 1.66069 0 0 0.0206528 0.106434 -1.46129
15 1.167 0 0 0.140204 0.107864 -1.2636
16 2.18852 0.50104 0.0576591 1.58026 0.110062 0.0312635
17 1.29609 0 0 -0.0214548 0.0115007 -1.06235
18 1.62202 0.000714302 -0.000471115 -0.00756958 0.00444259 -1.4728
19 1.22241 0 0 -0.046983 -0.00376784 -1.43289
20 1.76707 1.27612 0.0366411 1.57845 0.182304 -0.0214512
21 1.55588 0 0 -0.155246 -0.00355038 -0.857709
22 1.24273 0 0 -0.000505139 -0.000322829 -1.24825
23 0.784523 0 0 0.00822039 0.0140817 -0.754785
24 -2.20706 2.13068 -19.2107 -0.000932534 0 -2.53187
25 6.02795 0 0 1.016 -0.189922 0.879288
26 11.7344 0 0 0.00140268 0 2.1764
27 8.81167 0 0 0.87007 0 0
28 5.77884 0 0 0.582947 0 0
29 2.23249 0 0 0.287123 0 0
30 11.4725 0 0 -0.137286 -0.878096 2.00074
31 0.615813 0.994371 -0.809164 -2.72226 0.463503 0.286233
32 2.24752 0 0 -0.0835969 0.0959307 0.272288
33 1.11936 0 0 -0.401236 0.450129 0.842933
34 3.71349 0.102638 0.102192 -1.41386 1.26431 0.081693
35 1.72615 0 0 0.000698521 0.000241724 1.34896
36 1.21112 0 0 0.0115402 0.0133368 1.31081
37 3.5992 1.06012 0.070889 -1.68043 1.04215 -0.112109
38 1.66069 0 0 0.00620724 0.00200645 1.47997
39 1.16699 0 0 -0.0701392 0.164234 1.21657
40 2.18853 -0.501041 0.0576606 -1.57605 0.00117802 -0.0469347
41 1.29609 0 0 -0.0326375 -0.0616157 1.17811
42 1.62202 -0.00071311 -0.000470161 -0.00508021 -0.00330952 1.42626
43 1.22241 0 0 0.0247018 -0.0856983 1.42308
44 1.76707 -1.27612 0.0366421 -1.56655 0.103701 0.0275535
45 1.55588 0 0 0.103891 -0.075653 0.975564
46 1.24273 0 0 -0.00469951 -0.0380689 1.28397
47 0.784532 0 0 -0.0127429 -0.0577752 1.00048
48 0 0 0 0 0 0
49 -8.64266 -8.69905 -15.247 -3.10077 1.0552 1.00371
time 4
0 2.57209 1.18619 -11.7359 0 0 -0.814469
1 6.02794 0 0 -0.261833 0.898264 -0.814749
2 11.7344 0 0 -0.00140305 0 -2.19946
3 8.81138 -0.000450134 -0.00011158 -3.10567 0 0.000157653
4 5.77839 0.000285149 0 -2.0808 0 0.000101148
5 2.23163 -0.000329018 -0.00036335 -1.02487 0 0
6 11.4725 0 0 -2.69634 0.725854 0.590599
7 0.61522 -0.993091 -0.810699 2.92227 0.454999 -0.331411
8 2.24752 0 0 0.0643999 0.0920016 -0.24525
9 1.11936 0 0 0.0124088 0.0391454 -1.16006
10 3.71348 -0.102641 0.102191 1.44559 1.26927 -0.122845
11 1.72615 0 0 -0.0132949 0.00454381 -1.35296
12 1.21114 0 0 -0.0138879 0.0108707 -1.50415
13 3.59919 -1.06012 0.0708876 1.59719 1.13552 0.0844625
14 1.66069 0 0 0.0206526 0.106434 -1.46129
15 1.167 0 0 0.140204 0.107864 -1.2636
16 2.18852 0.50104 0.0576591 1.58026 0.110062 0.0312635
17 1.29609 0 0 -0.0214549 0.0115007 -1.06235
18 1.62202 0.000714302 -0.000471115 -0.00756975 0.00444244 -1.4728
19 1.22241 0 0 -0.046983 -0.00376773 -1.43289
20 1.76707 1.27612 0.0366411 1.57845 0.182304 -0.0214512
21 1.55588 0 0 -0.155246 -0.00355034 -0.857709
22 1.24273 0 0 -0.000505268 -0.000323032 -1.24825
23 0.784524 0 0 0.00822041 0.0140818 -0.754785
24 -2.18727 1.85921 -21.4475 -0.000932534 0 -2.53187
25 6.02794 0 0 0.938748 -0.697766 0.483133
26 11.7344 0 0 0.00140284 0 1.95667
27 8.81167 0 0 1.2306 0 0
28 5.77884 0 0 0.824504 0 0
29 2.23249 0 0 0.406099 0 0
30 11.4725 0 0 -1.14445 -0.638003 2.77782
31 0.615812 0.994371 -0.809165 -2.72226 0.463503 0.286233
32 2.24752 0 0 -0.0835969 0.0959307 0.272288
33 1.11936 0 0 -0.401235 0.450129 0.842933
34 3.71349 0.102639 0.102191 -1.41386 1.26431 0.081694
35 1.72615 0 0 0.000698284 0.000241761 1.34896
36 1.21112 0 0 0.0115403 0.0133365 1.31081
37 3.5992 1.06012 0.070888 -1.68043 1.04215 -0.112109
38 1.66069 0 0 0.00620716 0.00200643 1.47997
39 1.16699 0 0 -0.0701395 0.164234 1.21657
40 2.18853 -0.50104 0.0576591 -1.57605 0.00117805 -0.0469346
41 1.29609 0 0 -0.0326376 -0.0616157 1.17811
42 1.62202 -0.000712872 -0.000470161 -0.00508012 -0.00330953 1.42626
43 1.22241 0 0 0.0247019 -0.0856983 1.42308
44 1.76707 -1.27612 0.0366416 -1.56655 0.103701 0.0275536
45 1.55588 0 0 0.103891 -0.075653 0.975564
46 1.24273 0 0 -0.00469962 -0.0380689 1.28397
47 0.784532 0 0 -0.012743 -0.0577751 1.00048
48 0 0 0 0 0 0
49 -6.82116 -8.90821 -15.408 3.0006 1.02901 0.97639
time 5
0 2.57209 1.18619 -11.553 0 0 -0.814469
1 6.02794 0 0 -0.129296 0.925039 -0.640215
2 11.7344 0 0 -0.00140286 0 -2.35424
3 8.81138 -0.000449181 -0.000112057 -3.13918 0 0.000157545
4 5.77839 0.000285149 0 -2.10325 0 0.000100807
5 2.23163 -0.000328064 -0.000365257 -1.03593 0 0
6 11.4725 0 0 -2.57129 0.603594 0.84419
7 0.615219 -0.993092 -0.810699 2.92227 0.454999 -0.33141
8 2.24752 0 0 0.0643999 0.0920016 -0.24525
9 1.11936 0 0 0.0124089 0.0391454 -1.16006
10 3.71348 -0.102641 0.102191 1.44559 1.26927 -0.122845
11 1.72615 0 0 -0.0132949 0.00454364 -1.35296
12 1.21114 0 0 -0.0138879 0.0108708 -1.50415
13 3.59919 -1.06012 0.0708876 1.59719 1.13552 0.0844624
14 1.66069 0 0 0.0206525 0.106434 -1.46129
15 1.167 0 0 0.140204 0.107864 -1.2636
16 2.18852 0.501038 0.0576591 1.58026 0.110062 0.0312635
17 1.29609 0 0 -0.021455 0.0115006 -1.06235
18 1.62202 0.000714302 -0.000471115 -0.00756991 0.00444245 -1.4728
19 1.22241 0 0 -0.0469829 -0.00376783 -1.43289
20 1.76707 1.27612 0.0366411 1.57845 0.182304 -0.0214511
21 1.55588 0 0 -0.155246 -0.00355033 -0.857709
22 1.24273 0 0 -0.000505137 -0.000323011 -1.24825
23 0.784523 0 0 0.00822045 0.0140817 -0.754785
24 -2.16872 1.60468 -23.1551 -0.000932534 0 -2.53187
25 6.02794 0 0 1.05957 -1.03555 0.0872011
26 11.7344 0 0 0.00140271 0 1.76764
27 8.81167 0 0 1.58483 0 0
28 5.77884 0 0 1.06184 0 0
29 2.23249 0 0 0.522994 0 0
30 11.4725 0 0 -1.58515 -0.220868 3.07732
31 0.615813 0.994371 -0.809165 -2.72226 0.463503 0.286233
32 2.24752 0 0 -0.0835969 0.0959307 0.272288
33 1.11936 0 0 -0.401236 0.450129 0.842934
34 3.71349 0.102639 0.10219 -1.41386 1.26431 0.0816938
35 1.72615 0 0 0.000698494 0.000241822 1.34896
36 1.21112 0 0 0.0115404 0.0133365 1.31081
37 3.5992 1.06012 0.070888 -1.68043 1.04215 -0.112109
38 1.66069 0 0 0.00620712 0.00200639 1.47997
39 1.16699 0 0 -0.0701394 0.164234 1.21657
40 2.18853 -0.50104 0.0576582 -1.57605 0.00117793 -0.0469346
41 1.29609 0 0 -0.0326375 -0.0616158 1.17811
42 1.62202 -0.000713348 -0.000470161 -0.00508012 -0.00330944 1.42626
43 1.22241 0 0 0.0247019 -0.0856983 1.42308
44 1.76707 -1.27612 0.0366406 -1.56655 0.103701 0.0275536
45 1.55588 0 0 0.103891 -0.075653 0.975564
46 1.24273 0 0 -0.00469957 -0.0380688 1.28397
47 0.784531 0 0 -0.0127428 -0.0577752 1.00048
48 0 0 0 0 0 0
49 -4.85884 -9.26028 -15.1509 2.86122 1.06317 1.04579
time 6
0 2.57209 1.18619 -11.344 0 0 -0.814469
1 6.02794 0 0 0.00093237 0.938261 -0.467239
2 11.7344 0 0 -0.00140304 0 -2.4903
3 8.81138 -0.000449181 -0.000112057 -3.09303 0 0.000156708
4 5.77839 0.000286102 0 -2.07233 0 0
5 2.23163 -0.000329971 -0.000364304 -1.0207 0 0
6 11.4725 0 0 -2.48089 0.408436 1.04741
7 0.615219 -0.993092 -0.810699 2.92227 0.454999 -0.331411
8 2.24752 0 0 0.0643999 0.0920016 -0.24525
9 1.11936 0 0 0.0124088 0.0391455 -1.16006
10 3.71348 -0.102642 0.102191 1.44559 1.26927 -0.122845
11 1.72615 0 0 -0.0132948 0.00454365 -1.35296
12 1.21114 0 0 -0.0138877 0.0108711 -1.50415
13 3.59919 -1.06012 0.0708885 1.59719 1.13552 0.0844623
14 1.66069 0 0 0.0206526 0.106434 -1.46129
15 1.167 0 0 0.140204 0.107864 -1.2636
16 2.18852 0.501039 0.0576591 1.58026 0.110062 0.0312636
17 1.29609 0 0 -0.0214549 0.0115006 -1.06235
18 1.62202 0.000714302 -0.000471115 -0.0075699 0.0044427 -1.4728
19 1.22241 0 0 -0.046983 -0.00376759 -1.43289
20 1.76707 1.27612 0.0366411 1.57845 0.182304 -0.0214511
21 1.55588 0 0 -0.155245 -0.00355037 -0.857709
22 1.24274 0 0 -0.000505032 -0.000323156 -1.24825
23 0.784523 0 0 0.00822046 0.0140818 -0.754785
24 -2.15057 1.3557 -24.1472 -0.000932534 0 -2.53187
25 6.02794 0 0 1.15942 -1.1552 -0.0228559
26 11.7344 0 0 0.00140277 0 1.6403
27 8.81167 0 0 1.67256 0 0
28 5.77884 0 0 1.12062 0 0
29 2.23249 0 0 0.551945 0 0
30 11.4725 0 0 -1.67248 0.0318326 -3.09348
31 0.615812 0.994372 -0.809166 -2.72226 0.463503 0.286233
32 2.24752 0 0 -0.0835969 0.0959308 0.272288
33 1.11936 0 0 -0.401235 0.450129 0.842933
34 3.71348 0.102639 0.102191 -1.41386 1.26431 0.081693
35 1.72615 0 0 0.000698437 0.000241791 1.34896
36 1.21112 0 0 0.0115404 0.0133365 1.31081
37 3.5992 1.06012 0.0708885 -1.68043 1.04215 -0.112109
38 1.66069 0 0 0.00620719 0.0020064 1.47997
39 1.16699 0 0 -0.0701393 0.164234 1.21657
40 2.18853 -0.50104 0.0576591 -1.57605 0.00117795 -0.0469346
41 1.29609 0 0 -0.0326375 -0.0616157 1.17811
42 1.62201 -0.000713348 -0.000469685 -0.00508032 -0.00330959 1.42626
43 1.22241 0 0 0.0247019 -0.0856984 1.42308
44 1.76707 -1.27612 0.0366411 -1.56655 0.103701 0.0275535
45 1.55587 0 0 0.103891 -0.075653 0.975564
46 1.24273 0 0 -0.00469943 -0.0380689 1.28397
47 0.784532 0 0 -0.012743 -0.0577751 1.00048
48 0 0 0 0 0 0
49 -2.81029 -9.73487 -14.5843 2.76928 1.13492 1.19957
time 7
0 2.57209 1.18619 -11.1139 0 0 -0.814469
1 6.02794 0 0 0.0944291 0.942832 -0.307149
2 11.7344 0 0 -0.00140265 0 -2.59361
3 8.81138 -0.000450134 -0.00011158 -3.01014 0 0.000156799
4 5.77839 0.000285149 0 -2.01679 0 0.00010009
5 2.23163 -0.000329018 -0.000364304 -0.993346 0 0
6 11.4725 0 0 -2.4277 0.199431 1.19979
7 0.615219 -0.993091 -0.810699 2.92227 0.454999 -0.33141
8 2.24752 0 0 0.0643998 0.0920015 -0.24525
9 1.11936 0 0 0.012409 0.0391455 -1.16006
10 3.71348 -0.102641 0.102192 1.44559 1.26927 -0.122845
11 1.72615 0 0 -0.0132949 0.00454344 -1.35296
12 1.21114 0 0 -0.0138876 0.0108708 -1.50415
13 3.59919 -1.06012 0.0708895 1.59719 1.13552 0.0844625
14 1.66069 0 0 0.0206526 0.106433 -1.46129
15 1.167 0 0 0.140204 0.107864 -1.2636
16 2.18852 0.501039 0.0576591 1.58026 0.110062 0.0312637
17 1.29609 0 0 -0.021455 0.0115008 -1.06235
18 1.62202 0.000714302 -0.000471115 -0.00756993 0.0044426 -1.4728
19 1.22241 0 0 -0.046983 -0.00376782 -1.43289
20 1.76707 1.27612 0.0366421 1.57845 0.182304 -0.0214512
21 1.55588 0 0 -0.155246 -0.00355033 -0.857709
22 1.24274 0 0 -0.000505233 -0.00032308 -1.24825
23 0.784523 0 0 0.00822038 0.0140818 -0.754785
24 -2.13127 1.09091 -24.5314 -0.000932534 0 -2.53187
25 6.02794 0 0 0.937776 -1.03704 0.609988
26 11.7344 0 0 0.00140269 0 1.57641
27 8.81167 0 0 1.40759 0 0
28 5.77884 0 0 0.943086 0 0
29 2.23249 0 0 0.464505 0 0
30 11.4725 0 0 -1.4094 -0.0953871 -2.97863
31 0.615813 0.994371 -0.809165 -2.72226 0.463503 0.286233
32 2.24752 0 0 -0.0835969 0.0959305 0.272288
33 1.11936 0 0 -0.401235 0.450129 0.842934
34 3.71349 0.102639 0.102191 -1.41386 1.26431 0.0816939
35 1.72615 0 0 0.000698324 0.000241728 1.34896
36 1.21112 0 0 0.0115403 0.0133365 1.31081
37 3.5992 1.06012 0.0708885 -1.68043 1.04215 -0.112109
38 1.66069 0 0 0.00620714 0.00200637 1.47997
39 1.16699 0 0 -0.0701392 0.164234 1.21657
40 2.18853 -0.50104 0.0576591 -1.57605 0.00117794 -0.0469345
41 1.29609 0 0 -0.0326375 -0.0616157 1.17811
42 1.62201 -0.00071311 -0.000470161 -0.00508032 -0.0033095 1.42626
43 1.22241 0 0 0.0247019 -0.0856984 1.42308
44 1.76707 -1.27612 0.0366402 -1.56655 0.103701 0.0275536
45 1.55588 0 0 0.103891 -0.0756531 0.975564
46 1.24273 0 0 -0.00469951 -0.0380688 1.28397
47 0.784531 0 0 -0.0127429 -0.0577752 1.00048
48 0 0 0 0 0 0
49 -0.730131 -10.3116 -13.8172 2.72982 1.22148 1.42538
time 8
0 2.57209 1.18619 -10.8681 0 0 -0.814469
1 6.02794 0 0 0.114415 0.955128 -0.156919
2 11.7344 0 0 -0.00140275 0 -2.65956
3 8.81138 -0.000450134 -0.000112534 -2.94565 0 0.000157216
4 5.77839 0.000286102 0 -1.97358 0 0.000100139
5 2.23164 -0.000329018 -0.000365257 -0.972064 0 0
6 11.4725 0 0 -2.38351 0.0458407 1.31187
7 0.615219 -0.993091 -0.8107 2.92227 0.454999 -0.33141
8 2.24752 0 0 0.0644 0.0920015 -0.24525
9 1.11936 0 0 0.0124089 0.0391456 -1.16006
10 3.71348 -0.102641 0.102191 1.44559 1.26927 -0.122845
11 1.72615 0 0 -0.013295 0.00454362 -1.35296
12 1.21113 0 0 -0.0138877 0.0108708 -1.50415
13 3.59919 -1.06012 0.0708885 1.59719 1.13552 0.0844628
14 1.66069 0 0 0.0206524 0.106434 -1.46129
15 1.167 0 0 0.140204 0.107864 -1.2636
16 2.18852 0.50104 0.0576591 1.58026 0.110062 0.0312635
17 1.29609 0 0 -0.0214549 0.0115005 -1.06235
18 1.62202 0.000713348 -0.000472069 -0.00756993 0.0044426 -1.4728
19 1.22241 0 0 -0.0469831 -0.0037678 -1.43289
20 1.76707 1.27612 0.0366411 1.57845 0.182304 -0.0214511
21 1.55588 0 0 -0.155245 -0.00355043 -0.857709
22 1.24273 0 0 -0.000505199 -0.000323129 -1.24825
23 0.784523 0 0 0.00822033 0.0140818 -0.754785
24 -2.11117 0.815204 -24.3877 -0.000932534 0 -2.53187
25 6.02794 0 0 0.989172 -0.673381 1.3548
26 11.7344 0 0 0.00140265 0 1.56327
27 8.81167 0 0 1.00941 0 0
28 5.77884 0 0 0.676302 0 0
29 2.23249 0 0 0.333104 0 0
30 11.4725 0 0 -0.968181 -0.606114 -2.93628
31 0.615813 0.994372 -0.809166 -2.72226 0.463503 0.286233
32 2.24752 0 0 -0.0835969 0.0959307 0.272288
33 1.11936 0 0 -0.401236 0.450129 0.842933
34 3.71349 0.102639 0.102191 -1.41386 1.26431 0.0816928
35 1.72615 0 0 0.000698295 0.000241752 1.34896
36 1.21112 0 0 0.0115403 0.0133366 1.31081
37 3.5992 1.06012 0.0708885 -1.68043 1.04215 -0.112109
38 1.66069 0 0 0.00620718 0.00200654 1.47997
39 1.16699 0 0 -0.0701395 0.164234 1.21657
40 2.18853 -0.50104 0.0576591 -1.57605 0.001178 -0.0469346
41 1.29609 0 0 -0.0326375 -0.0616159 1.17811
42 1.62202 -0.000712395 -0.000470161 -0.00508032 -0.00330955 1.42626
43 1.22241 0 0 0.0247018 -0.0856984 1.42308
44 1.76707 -1.27612 0.0366411 -1.56655 0.103701 0.0275535
45 1.55587 0 0 0.103891 -0.0756531 0.975564
46 1.24273 0 0 -0.00469953 -0.0380688 1.28397
47 0.784532 0 0 -0.012743 -0.0577751 1.00048
48 0 0 0 0 0 0
49 1.32703 -10.9702 -12.9582 2.74786 1.30009 1.71087
time 9
0 2.57209 1.18619 -10.6117 0 0 -0.814469
1 6.02794 0 0 0.030656 0.998833 -0.0232178
2 11.7344 0 0 -0.00140281 0 -2.6866
3 8.81138 -0.000450134 -0.000111103 -2.93537 0 0.000157765
4 5.77839 0.000286102 0 -1.9667 0 0.000100665
5 2.23163 -0.000329971 -0.00036335 -0.968674 0 0
6 11.4725 0 0 -2.31631 -0.00852056 1.38449
7 0.615218 -0.993091 -0.8107 2.92227 0.454999 -0.33141
8 2.24752 0 0 0.0643999 0.0920015 -0.24525
9 1.11936 0 0 0.012409 0.0391455 -1.16006
10 3.71348 -0.102641 0.102191 1.44559 1.26927 -0.122845
11 1.72615 0 0 -0.0132949 0.00454353 -1.35296
12 1.21114 0 0 -0.0138878 0.0108707 -1.50415
13 3.59919 -1.06012 0.0708885 1.59719 1.13552 0.0844628
14 1.66069 0 0 0.0206525 0.106433 -1.46129
15 1.167 0 0 0.140204 0.107864 -1.2636
16 2.18852 0.50104 0.0576601 1.58026 0.110062 0.0312637
17 1.29609 0 0 -0.0214548 0.0115008 -1.06235
18 1.62202 0.000713348 -0.000471115 -0.0075701 0.00444244 -1.4728
19 1.22241 0 0 -0.0469831 -0.00376785 -1.43289
20 1.76707 1.27612 0.0366421 1.57845 0.182304 -0.021451
21 1.55588 0 0 -0.155246 -0.00355 -0.857709
22 1.24274 0 0 -0.000505386 -0.00032297 -1.24825
23 0.784523 0 0 0.00822046 0.0140818 -0.754785
24 -2.09063 0.533467 -23.7961 -0.000932534 0 -2.53187
25 6.02794 0 0 1.11545 -0.510454 1.56409
26 11.7344 0 0 0.00140276 0 1.56871
27 8.81167 0 0 0.946703 0 0
28 5.77884 0 0 0.634291 0 0
29 2.23249 0 0 0.312412 0 0
30 11.4725 0 0 -0.946403 -0.741216 -2.74939
31 0.615813 0.994372 -0.809166 -2.72226 0.463503 0.286233
32 2.24752 0 0 -0.083597 0.0959307 0.272288
33 1.11936 0 0 -0.401235 0.450129 0.842933
34 3.71349 0.102639 0.10219 -1.41386 1.26431 0.0816934
35 1.72615 0 0 0.00069853 0.00024164 1.34896
36 1.21112 0 0 0.0115405 0.0133367 1.31081
37 3.5992 1.06012 0.0708876 -1.68043 1.04215 -0.112109
38 1.66069 0 0 0.00620715 0.00200644 1.47997
39 1.16699 0 0 -0.0701393 0.164234 1.21657
40 2.18853 -0.50104 0.0576591 -1.57605 0.00117795 -0.0469346
41 1.29609 0 0 -0.0326376 -0.0616159 1.17811
42 1.62201 -0.000712395 -0.000469685 -0.00508037 -0.0033095 1.42626
43 1.22241 0 0 0.024702 -0.0856984 1.42308
44 1.76707 -1.27612 0.0366411 -1.56655 0.103701 0.0275537
45 1.55588 0 0 0.103891 -0.075653 0.975564
46 1.24273 0 0 -0.00469966 -0.0380688 1.28397
47 0.784532 0 0 -0.0127429 -0.0577753 1.00048
48 0 0 0 0 0 0
49 3.30659 -11.6901 -12.1162 2.82843 1.348 2.04369
time 10
0 2.57209 1.18619 -10.3502 0 0 -0.814469
1 6.02794 0 0 -0.176444 1.07789 0.0393405
2 11.7344 0 0 -0.00140289 0 -2.67269
3 8.81138 -0.000450134 -0.000112534 -2.96903 0 0.000156471
4 5.77839 0.000286102 0 -1.98925 0 0
5 2.23163 -0.000329971 -0.000364304 -0.979779 0 0
6 11.4725 0 0 -2.23104 0.0199632 1.41974
7 0.61522 -0.993092 -0.810699 2.92227 0.454999 -0.33141
8 2.24752 0 0 0.0643998 0.0920015 -0.24525
9 1.11936 0 0 0.0124089 0.0391455 -1.16006
10 3.71348 -0.102642 0.102191 1.44559 1.26927 -0.122846
11 1.72615 0 0 -0.0132951 0.0045434 -1.35296
12 1.21114 0 0 -0.0138875 0.0108707 -1.50415
13 3.59919 -1.06012 0.0708876 1.59719 1.13552 0.0844625
14 1.66069 0 0 0.0206525 0.106433 -1.46129
15 1.167 0 0 0.140204 0.107864 -1.2636
16 2.18852 0.501038 0.0576591 1.58026 0.110062 0.0312636
17 1.29609 0 0 -0.0214551 0.0115005 -1.06235
18 1.62202 0.000714302 -0.000471115 -0.00756997 0.00444216 -1.4728
19 1.22241 0 0 -0.0469828 -0.00376778 -1.43289
20 1.76707 1.27612 0.0366411 1.57845 0.182304 -0.0214511
21 1.55588 0 0 -0.155246 -0.00355047 -0.857709
22 1.24273 0 0 -0.000505424 -0.000323071 -1.24825
23 0.784522 0 0 0.00822045 0.0140816 -0.754785
24 -2.07001 0.250587 -22.8364 -0.000932534 0 -2.53187
25 6.02794 0 0 1.16341 -0.422823 1.57324
26 11.7344 0 0 0.0014028 0 1.55362
27 8.81167 0 0 0.979218 0 0
28 5.77884 0 0 0.656076 0 0
29 2.23249 0 0 0.323142 0 0
30 11.4725 0 0 -1.10659 -0.648919 -2.4691
31 0.615813 0.994372 -0.809165 -2.72226 0.463503 0.286233
32 2.24752 0 0 -0.0835969 0.0959308 0.272288
33 1.11936 0 0 -0.401236 0.450129 0.842933
34 3.71349 0.102639 0.102191 -1.41386 1.26431 0.0816937
35 1.72615 0 0 0.000698353 0.000241801 1.34896
36 1.21112 0 0 0.0115403 0.0133366 1.31081
37 3.5992 1.06012 0.070888 -1.68043 1.04215 -0.112109
38 1.66069 0 0 0.00620712 0.00200649 1.47997
39 1.16699 0 0 -0.0701395 0.164234 1.21657
40 2.18853 -0.50104 0.0576596 -1.57605 0.00117795 -0.0469347
41 1.29609 0 0 -0.0326374 -0.0616158 1.17811
42 1.62202 -0.000713348 -0.000469923 -0.00508031 -0.00330948 1.42626
43 1.22241 0 0 0.0247019 -0.0856984 1.42308
44 1.76707 -1.27612 0.0366402 -1.56655 0.103701 0.0275537
45 1.55587 0 0 0.103891 -0.0756529 0.975564
46 1.24273 0 0 -0.00469966 -0.038069 1.28397
47 0.784531 0 0 -0.0127428 -0.0577751 1.00048
48 0 0 0 0 0 0
49 5.15393 -12.4511 -11.3999 2.97656 1.34242 2.41151
time 11
0 2.57209 1.18619 -10.0886 0 0 -0.814469
1 6.02794 0 0 -0.596063 1.09991 -0.180671
2 11.7344 0 0 -0.00140289 0 -2.54696
3 8.81138 -0.000450134 -0.000112057 -2.92597 0 0.00015685
4 5.77839 0.000286102 0 -1.9604 0 0
5 2.23163 -0.000329971 -0.000363827 -0.96557 0 0
6 11.4725 0 0 -2.20084 0.00146797 1.40949
7 0.615219 -0.993091 -0.810699 2.92227 0.454999 -0.331411
8 2.24752 0 0 0.0643998 0.0920016 -0.24525
9 1.11936 0 0 0.0124089 0.0391454 -1.16006
10 3.71348 -0.102641 0.102191 1.44559 1.26927 -0.122847
11 1.72615 0 0 -0.0132949 0.00454351 -1.35296
12 1.21114 0 0 -0.0138876 0.0108709 -1.50415
13 3.59919 -1.06012 0.070888 1.59719 1.13552 0.084462
14 1.66069 0 0 0.0206524 0.106434 -1.46129
15 1.167 0 0 0.140204 0.107864 -1.2636
16 2.18852 0.501039 0.0576591 1.58026 0.110062 0.0312635
17 1.29609 0 0 -0.0214549 0.0115006 -1.06235
18 1.62202 0.000713348 -0.000472069 -0.00757008 0.00444254 -1.4728
19 1.22241 0 0 -0.0469828 -0.00376763 -1.43289
20 1.76707 1.27612 0.0366411 1.57845 0.182304 -0.0214512
21 1.55588 0 0 -0.155245 -0.00355032 -0.857709
22 1.24273 0 0 -0.000505115 -0.000323142 -1.24825
23 0.784523 0 0 0.00822022 0.0140817 -0.754785
24 -2.04967 -0.0285479 -21.5887 -0.000932534 0 -2.53187
25 6.02794 0 0 1.18394 -0.35856 1.47532
26 11.7344 0 0 0.00140284 0 1.49421
27 8.81167 0 0 1.0981 0 0
28 5.77884 0 0 0.735724 0 0
29 2.23249 0 0 0.362372 0 0
30 11.4725 0 0 -1.32682 -0.439329 -2.1298
31 0.615812 0.994372 -0.809165 -2.72226 0.463503 0.286233
32 2.24752 0 0 -0.0835969 0.0959306 0.272288
33 1.11936 0 0 -0.401235 0.450129 0.842933
34 3.71349 0.102639 0.102191 -1.41386 1.26431 0.0816931
35 1.72615 0 0 0.000698502 0.000241891 1.34896
36 1.21112 0 0 0.0115403 0.0133366 1.31081
37 3.5992 1.06012 0.0708876 -1.68043 1.04215 -0.112109
38 1.66069 0 0 0.00620705 0.00200646 1.47997
39 1.16699 0 0 -0.0701393 0.164234 1.21657
40 2.18853 -0.50104 0.0576591 -1.57605 0.00117793 -0.0469346
41 1.29609 0 0 -0.0326374 -0.0616156 1.17811
42 1.62202 -0.000713348 -0.000470161 -0.00508024 -0.00330953 1.42626
43 1.22241 0 0 0.024702 -0.0856984 1.42308
44 1.76707 -1.27612 0.0366406 -1.56655 0.103701 0.0275536
45 1.55588 0 0 0.103891 -0.0756531 0.975564
46 1.24273 0 0 -0.00469956 -0.0380689 1.28397
47 0.784531 0 0 -0.0127428 -0.0577753 1.00048
48 0 0 0 0 0 0
49 6.41383 -13.8936 -10.586 -3.03391 1.27748 2.88832
time 12
0 2.57209 1.18619 -9.8323 0 0 -0.814469
1 6.02794 0 0 -0.859504 1.03882 -0.374955
2 11.7344 0 0 -0.0014028 0 -2.33959
3 8.81138 -0.000450134 -0.000112057 -2.588 0 0.000157301
4 5.77839 0.000286102 0 -1.73396 0 0
5 2.23163 -0.000329018 -0.00036335 -0.85404 0 0
6 11.4725 0 0 -2.22215 -0.192211 1.24022
7 0.615219 -0.993092 -0.810701 2.92227 0.454999 -0.33141
8 2.24752 0 0 0.0643998 0.0920014 -0.24525
9 1.11936 0 0 0.0124089 0.0391454 -1.16006
10 3.71348 -0.102641 0.102191 1.44559 1.26927 -0.122846
11 1.72615 0 0 -0.0132951 0.00454338 -1.35296
12 1.21114 0 0 -0.0138878 0.0108708 -1.50415
13 3.59919 -1.06012 0.0708876 1.59719 1.13552 0.0844626
14 1.66069 0 0 0.0206525 0.106434 -1.46129
15 1.167 0 0 0.140204 0.107864 -1.2636
16 2.18852 0.501039 0.0576591 1.58026 0.110062 0.0312634
17 1.29609 0 0 -0.0214551 0.0115007 -1.06235
18 1.62202 0.000713348 -0.000471115 -0.00756997 0.00444248 -1.4728
19 1.22241 0 0 -0.046983 -0.00376787 -1.43289
20 1.76707 1.27612 0.0366402 1.57845 0.182304 -0.021451
21 1.55588 0 0 -0.155246 -0.00355018 -0.857709
22 1.24274 0 0 -0.000505341 -0.000323084 -1.24825
23 0.784523 0 0 0.00822038 0.0140817 -0.754785
24 -2.02995 -0.299051 -20.1329 -0.000932534 0 -2.53187
25 6.02794 0 0 1.196 -0.264331 1.36318
26 11.7344 0 0 0.00140265 0 1.45879
27 8.81167 0 0 1.13604 0 0
28 5.77884 0 0 0.761145 0 0
29 2.23249 0 0 0.374893 0 0
30 11.4725 0 0 -1.50292 -0.209861 -1.7286
31 0.615812 0.994372 -0.809164 -2.72226 0.463503 0.286233
32 2.24752 0 0 -0.083597 0.0959306 0.272288
33 1.11936 0 0 -0.401235 0.450129 0.842934
34 3.71349 0.102639 0.102191 -1.41386 1.26431 0.0816932
35 1.72615 0 0 0.000698544 0.000241801 1.34896
36 1.21112 0 0 0.0115403 0.0133365 1.31081
37 3.5992 1.06012 0.0708885 -1.68043 1.04215 -0.112109
38 1.66069 0 0 0.0062071 0.00200634 1.47997
39 1.16699 0 0 -0.0701392 0.164234 1.21657
40 2.18853 -0.50104 0.0576591 -1.57605 0.00117797 -0.0469346
41 1.29609 0 0 -0.0326375 -0.0616157 1.17811
42 1.62201 -0.000713348 -0.000470042 -0.00508016 -0.0033093 1.42626
43 1.22241 0 0 0.0247017 -0.0856984 1.42308
44 1.76707 -1.27612 0.0366416 -1.56655 0.103701 0.0275535
45 1.55588 0 0 0.103891 -0.0756531 0.975564
46 1.24273 0 0 -0.00469955 -0.0380689 1.28397
47 0.784532 0 0 -0.0127429 -0.0577752 1.00048
48 0 0 0 0 0 0
49 7.22456 -15.6715 -9.69256 -2.62207 1.17148 -2.77339
time 13
0 2.57209 1.18619 -9.58649 0 0 -0.814469
1 6.02794 0 0 -0.949 1.0066 -0.437492
2 11.7344 0 0 -0.0014028 0 -2.11491
3 8.81138 -0.000450134 -0.000111818 -2.10355 0 0.000156974
4 5.77839 0.000286102 0 -1.40938 0 0
5 2.23164 -0.000328064 -0.00036335 -0.69417 0 0
6 11.4725 0 0 -2.07526 -0.469935 0.871937
7 0.615219 -0.993091 -0.8107 2.92227 0.454999 -0.33141
8 2.24752 0 0 0.0643998 0.0920015 -0.24525
9 1.11936 0 0 0.0124088 0.0391452 -1.16006
10 3.71348 -0.102641 0.102192 1.44559 1.26927 -0.122847
11 1.72615 0 0 -0.0132949 0.00454345 -1.35296
12 1.21114 0 0 -0.0138875 0.0108709 -1.50415
13 3.59919 -1.06012 0.0708876 1.59719 1.13552 0.084462
14 1.66069 0 0 0.0206526 0.106434 -1.46129
15 1.167 0 0 0.140204 0.107864 -1.2636
16 2.18852 0.501039 0.0576582 1.58026 0.110062 0.0312636
17 1.29609 0 0 -0.0214551 0.0115006 -1.06235
18 1.62202 0.000711441 -0.000471115 -0.00756996 0.00444249 -1.4728
19 1.22241 0 0 -0.0469827 -0.00376785 -1.43289
20 1.76707 1.27612 0.0366402 1.57845 0.182304 -0.021451
21 1.55588 0 0 -0.155246 -0.00355041 -0.857709
22 1.24273 0 0 -0.000505227 -0.000323076 -1.24825
23 0.784523 0 0 0.00822047 0.0140816 -0.754785
24 -2.01121 -0.556035 -18.5489 -0.000932534 0 -2.53187
25 6.02794 0 0 1.18735 -0.0633135 1.24199
26 11.7344 0 0 0.00140272 0 1.54813
27 8.81167 0 0 -1.26325 0 0
28 5.77884 0 0 -0.84638 0 0
29 2.23249 0 0 -0.416873 0 0
30 11.4725 0 0 -1.47321 -0.0298136 -1.26051
31 0.615813 0.994372 -0.809164 -2.72226 0.463503 0.286233
32 2.24752 0 0 -0.0835969 0.0959307 0.272288
33 1.11936 0 0 -0.401235 0.450129 0.842934
34 3.71348 0.102639 0.102192 -1.41386 1.26431 0.0816935
35 1.72615 0 0 0.000698467 0.000241895 1.34896
36 1.21112 0 0 0.0115401 0.0133366 1.31081
37 3.5992 1.06012 0.0708885 -1.68043 1.04215 -0.112109
38 1.66069 0 0 0.00620733 0.00200651 1.47997
39 1.16699 0 0 -0.0701393 0.164234 1.21657
40 2.18853 -0.50104 0.0576591 -1.57605 0.00117795 -0.0469345
41 1.29609 0 0 -0.0326373 -0.0616158 1.17811
42 1.62201 -0.000712395 -0.000469685 -0.00508037 -0.00330945 1.42626
43 1.22241 0 0 0.0247019 -0.0856985 1.42308
44 1.76707 -1.27612 0.0366411 -1.56655 0.103701 0.0275537
45 1.55588 0 0 0.103891 -0.0756529 0.975564
46 1.24273 0 0 -0.00469958 -0.0380689 1.28397
47 0.784532 0 0 -0.0127431 -0.0577752 1.00048
48 0 0 0 0 0 0
49 7.94927 -17.0492 -9.04173 -2.1298 1.03786 -2.07716
time 14
0 2.57209 1.18619 -9.35642 0 0 -0.814469
1 6.02794 0 0 -1.03947 0.976043 -0.480963
2 11.7344 0 0 -0.00140279 0 -1.84958
3 8.81138 -0.000450134 -0.00011301 -1.61534 0 0.000157463
4 5.77839 0.000286102 0 -1.08228 0 0.000100403
5 2.23163 -0.000329971 -0.00036478 -0.533063 0 0
6 11.4725 0 0 -1.62255 -0.619846 0.363085
7 0.615218 -0.993092 -0.810701 2.92227 0.454999 -0.33141
8 2.24752 0 0 0.0643999 0.0920015 -0.24525
9 1.11936 0 0 0.0124088 0.0391455 -1.16006
10 3.71348 -0.102642 0.10219 1.44559 1.26927 -0.122845
11 1.72615 0 0 -0.0132949 0.00454342 -1.35296
12 1.21113 0 0 -0.0138876 0.0108709 -1.50415
13 3.59919 -1.06012 0.0708866 1.59719 1.13552 0.0844621
14 1.66069 0 0 0.0206525 0.106434 -1.46129
15 1.167 0 0 0.140204 0.107864 -1.2636
16 2.18853 0.501039 0.0576572 1.58026 0.110062 0.0312637
17 1.29609 0 0 -0.0214549 0.0115005 -1.06235
18 1.62202 0.000713348 -0.000471234 -0.0075702 0.00444251 -1.4728
19 1.22241 0 0 -0.0469829 -0.00376771 -1.43289
20 1.76707 1.27612 0.0366402 1.57845 0.182304 -0.0214509
21 1.55588 0 0 -0.155245 -0.00355057 -0.857709
22 1.24273 0 0 -0.000505134 -0.000323155 -1.24825
23 0.784523 0 0 0.00822033 0.0140817 -0.754785
24 -1.99382 -0.794611 -16.9167 -0.000932534 0 -2.53187
25 6.02794 0 0 1.13021 0.219156 1.11459
26 11.7344 0 0 0.0014026 0 1.57271
27 8.81167 0 0 -1.09532 0 0
28 5.77884 0 0 -0.733867 0 0
29 2.23249 0 0 -0.361457 0 0
30 11.4725 0 0 -1.17747 -0.025139 -0.644476
31 0.615813 0.994371 -0.809166 -2.72226 0.463503 0.286233
32 2.24752 0 0 -0.0835969 0.0959307 0.272288
33 1.11936 0 0 -0.401235 0.450129 0.842933
34 3.71349 0.102638 0.102192 -1.41386 1.26431 0.0816936
35 1.72615 0 0 0.000698395 0.000241709 1.34896
36 1.21112 0 0 0.0115403 0.0133366 1.31081
37 3.5992 1.06012 0.0708885 -1.68043 1.04215 -0.112109
38 1.66069 0 0 0.00620713 0.00200638 1.47997
39 1.16699 0 0 -0.0701394 0.164234 1.21657
40 2.18853 -0.50104 0.0576591 -1.57605 0.00117807 -0.0469347
41 1.29609 0 0 -0.0326375 -0.0616158 1.17811
42 1.62201 -0.000712395 -0.000470161 -0.00508019 -0.00330952 1.42626
43 1.22241 0 0 0.0247019 -0.0856983 1.42308
44 1.76707 -1.27612 0.0366402 -1.56655 0.103701 0.0275535
45 1.55587 0 0 0.103891 -0.0756529 0.975564
46 1.24273 0 0 -0.00469957 -0.0380688 1.28397
47 0.784531 0 0 -0.0127431 -0.0577752 1.00048
48 0 0 0 0 0 0
49 8.42522 -18.2825 -8.5924 -1.61582 0.890092 -1.37609
time 15
0 2.57209 1.18619 -9.14734 0 0 -0.814469
1 6.02794 0 0 -1.15272 0.944983 -0.505881
2 11.7344 0 0 -0.00140284 0 -1.63369
3 8.81138 -0.000450134 -0.000112534 -1.1654 0 0.000157358
4 5.77839 0.000284195 0 -0.780815 0 0.000101334
5 2.23163 -0.000329971 -0.000364304 -0.384581 0 0
6 11.4725 0 0 -1.10434 -0.569615 0.0412284
7 0.615218 -0.993092 -0.810699 2.92227 0.454999 -0.33141
8 2.24752 0 0 0.0643998 0.0920015 -0.24525
9 1.11936 0 0 0.0124087 0.0391455 -1.16006
10 3.71348 -0.102641 0.102192 1.44559 1.26927 -0.122846
11 1.72615 0 0 -0.0132948 0.00454341 -1.35296
12 1.21114 0 0 -0.0138877 0.0108708 -1.50415
13 3.59919 -1.06012 0.0708885 1.59719 1.13552 0.0844626
14 1.66069 0 0 0.0206525 0.106434 -1.46129
15 1.16699 0 0 0.140204 0.107864 -1.2636
16 2.18852 0.50104 0.0576591 1.58026 0.110062 0.0312638
17 1.29609 0 0 -0.0214549 0.0115008 -1.06235
18 1.62202 0.000713348 -0.000471115 -0.00756983 0.00444249 -1.4728
19 1.22241 0 0 -0.0469829 -0.00376777 -1.43289
20 1.76707 1.27612 0.0366402 1.57845 0.182304 -0.0214509
21 1.55588 0 0 -0.155245 -0.00355054 -0.857709
22 1.24274 0 0 -0.000505268 -0.000323032 -1.24825
23 0.784527 0 0 0.00822039 0.0140817 -0.754785
24 -1.97813 -1.00989 -15.3163 -0.000932534 0 -2.53187
25 6.02794 0 0 1.01209 0.390274 1.08407
26 11.7344 0 0 0.00140265 0 1.35624
27 8.81167 0 0 -0.792187 0 0
28 5.77884 0 0 -0.530765 0 0
29 2.23249 0 0 -0.261422 0 0
30 11.4725 0 0 -0.770096 -0.22197 -0.115834
31 0.615811 0.994372 -0.809166 -2.72226 0.463503 0.286233
32 2.24752 0 0 -0.083597 0.0959307 0.272288
33 1.11936 0 0 -0.401236 0.450129 0.842933
34 3.71348 0.102638 0.10219 -1.41386 1.26431 0.0816932
35 1.72615 0 0 0.000698554 0.000241669 1.34896
36 1.21112 0 0 0.0115404 0.0133367 1.31081
37 3.5992 1.06011 0.0708866 -1.68043 1.04215 -0.112109
38 1.66069 0 0 0.00620728 0.00200647 1.47997
39 1.16699 0 0 -0.0701393 0.164234 1.21657
40 2.18853 -0.50104 0.0576591 -1.57605 0.00117774 -0.0469347
41 1.29609 0 0 -0.0326375 -0.0616158 1.17811
42 1.62201 -0.000713348 -0.000473022 -0.0050803 -0.00330942 1.42626
43 1.22241 0 0 0.0247017 -0.0856984 1.42308
44 1.76707 -1.27612 0.0366402 -1.56655 0.103701 0.0275537
45 1.55588 0 0 0.103891 -0.075653 0.975564
46 1.24273 0 0 -0.00469939 -0.0380689 1.28397
47 0.784531 0 0 -0.0127429 -0.0577752 1.00048
48 0 0 0 0 0 0
49 8.6993 -19.3594 -8.27001 -1.13883 0.74163 -0.740071
time 16
0 2.57209 1.18619 -8.96451 0 0 -0.814469
1 6.02794 0 0 -1.23189 0.928644 -0.510037
2 11.7344 0 0 -0.00140278 0 -1.54017
3 8.81138 -0.000450134 -0.00011158 -0.797619 0 0.000156631
4 5.77839 0.000284195 0 -0.534405 0 0.00010175
5 2.23163 -0.000328064 -0.00036335 -0.263214 0 0
6 11.4725 0 0 -0.734153 -0.532846 0.0377365
7 0.615218 -0.993091 -0.8107 2.92227 0.454999 -0.33141
8 2.24752 0 0 0.0643997 0.0920017 -0.24525
9 1.11936 0 0 0.012409 0.0391455 -1.16006
10 3.71348 -0.10264 0.102192 1.44559 1.26927 -0.122846
11 1.72615 0 0 -0.0132948 0.00454342 -1.35296
12 1.21114 0 0 -0.0138877 0.010871 -1.50415
13 3.59919 -1.06012 0.0708885 1.59719 1.13552 0.0844624
14 1.66069 0 0 0.0206528 0.106434 -1.46129
15 1.167 0 0 0.140204 0.107864 -1.2636
16 2.18852 0.50104 0.0576591 1.58026 0.110062 0.0312636
17 1.29609 0 0 -0.0214548 0.0115005 -1.06235
18 1.62202 0.000715256 -0.000471115 -0.00756984 0.0044425 -1.4728
19 1.22241 0 0 -0.046983 -0.00376744 -1.43289
20 1.76707 1.27612 0.0366421 1.57845 0.182304 -0.0214511
21 1.55588 0 0 -0.155246 -0.00355047 -0.857709
22 1.24273 0 0 -0.000505189 -0.000322938 -1.24825
23 0.784523 0 0 0.0082206 0.014082 -0.754785
24 -1.96449 -1.19699 -13.8276 -0.000932534 0 -2.53187
25 6.02794 0 0 0.909676 0.42857 1.15105
26 11.7344 0 0 0.00140268 0 1.07428
27 8.81167 0 0 -0.347961 0 0
28 5.77884 0 0 -0.233134 0 0
29 2.23249 0 0 -0.114827 0 0
30 11.4725 0 0 -0.363773 -0.385714 0.112521
31 0.615813 0.994373 -0.809165 -2.72226 0.463503 0.286233
32 2.24752 0 0 -0.0835969 0.0959306 0.272288
33 1.11936 0 0 -0.401235 0.450129 0.842934
34 3.71349 0.10264 0.102192 -1.41386 1.26431 0.0816935
35 1.72615 0 0 0.000698426 0.000241819 1.34896
36 1.21112 0 0 0.0115403 0.0133367 1.31081
37 3.5992 1.06012 0.0708885 -1.68043 1.04215 -0.112109
38 1.66069 0 0 0.00620721 0.00200648 1.47997
39 1.16699 0 0 -0.0701394 0.164234 1.21657
40 2.18853 -0.501041 0.0576591 -1.57605 0.0011781 -0.0469345
41 1.29609 0 0 -0.0326373 -0.0616159 1.17811
42 1.62202 -0.000714302 -0.000469208 -0.0050803 -0.00330955 1.42626
43 1.22241 0 0 0.0247019 -0.0856984 1.42308
44 1.76707 -1.27612 0.0366421 -1.56655 0.103701 0.0275534
45 1.55588 0 0 0.103891 -0.0756531 0.975564
46 1.24273 0 0 -0.00469954 -0.038069 1.28397
47 0.784532 0 0 -0.0127429 -0.0577752 1.00048
48 0 0 0 0 0 0
49 8.81841 -20.2677 -7.99996 -0.757535 0.605935 -0.239005
time 17
0 2.57209 1.18619 -8.81317 0 0 -0.814469
1 6.02794 0 0 -1.26999 0.90955 -0.517502
2 11.7344 0 0 -0.00140281 0 -1.50869
3 8.81138 -0.000450134 -0.00011158 -0.540015 0 0.000156972
4 5.77839 0.000284195 0 -0.36181 0 0.000102972
5 2.23163 -0.000328064 -0.000362873 -0.178205 0 0
6 11.4725 0 0 -0.527647 -0.563839 0.133269
7 0.615218 -0.993088 -0.8107 2.92227 0.454999 -0.33141
8 2.24752 0 0 0.0643998 0.0920015 -0.24525
9 1.11936 0 0 0.0124091 0.0391454 -1.16006
10 3.71348 -0.102638 0.102191 1.44559 1.26927 -0.122847
11 1.72615 0 0 -0.013295 0.00454329 -1.35296
12 1.21114 0 0 -0.0138875 0.0108708 -1.50415
13 3.59919 -1.06012 0.0708885 1.59719 1.13552 0.0844623
14 1.66069 0 0 0.0206525 0.106433 -1.46129
15 1.16699 0 0 0.140204 0.107864 -1.2636
16 2.18852 0.501041 0.0576591 1.58026 0.110062 0.0312636
17 1.29609 0 0 -0.021455 0.0115006 -1.06235
18 1.62202 0.000713348 -0.000471115 -0.00757003 0.00444231 -1.4728
19 1.22241 0 0 -0.0469827 -0.00376775 -1.43289
20 1.76706 1.27612 0.0366421 1.57845 0.182304 -0.0214511
21 1.55588 0 0 -0.155246 -0.00355032 -0.857709
22 1.24273 0 0 -0.000505262 -0.00032299 -1.24825
23 0.784523 0 0 0.0082203 0.0140817 -0.754785
24 -1.95326 -1.35102 -12.5305 -0.000932534 0 -2.53187
25 6.02794 0 0 0.845508 0.436287 1.21526
26 11.7344 0 0 0.00140269 0 0.89398
27 8.81167 0 0 0.00736706 0 0
28 5.77884 0 0 0.00493594 0 0
29 2.23249 0 0 0.00243113 0 0
30 11.4725 0 0 -0.0671007 -0.439196 0.172246
31 0.615813 0.99437 -0.809165 -2.72226 0.463503 0.286233
32 2.24752 0 0 -0.0835969 0.0959307 0.272288
33 1.11936 0 0 -0.401235 0.450129 0.842934
34 3.71349 0.102638 0.102191 -1.41386 1.26431 0.0816935
35 1.72615 0 0 0.000698361 0.000241738 1.34896
36 1.21112 0 0 0.0115403 0.0133366 1.31081
37 3.5992 1.06011 0.070888 -1.68043 1.04215 -0.112109
38 1.66069 0 0 0.00620726 0.00200652 1.47997
39 1.16699 0 0 -0.0701394 0.164234 1.21657
40 2.18853 -0.501041 0.0576591 -1.57605 0.001178 -0.0469344
41 1.29609 0 0 -0.0326374 -0.0616157 1.17811
42 1.62201 -0.000713348 -0.000469208 -0.00508019 -0.00330945 1.42626
43 1.22241 0 0 0.0247019 -0.0856984 1.42308
44 1.76707 -1.27612 0.0366411 -1.56655 0.103701 0.0275536
45 1.55588 0 0 0.103891 -0.0756531 0.975564
46 1.24273 0 0 -0.00469957 -0.0380688 1.28397
47 0.784533 0 0 -0.0127428 -0.0577751 1.00048
48 0 0 0 0 0 0
49 8.82943 -20.9953 -7.70767 -0.530644 0.496469 0.0572042
time 18
0 2.57209 1.18619 -8.69857 0 0 -0.814469
1 6.02794 0 0 -1.30372 0.880527 -0.527211
2 11.7344 0 0 -0.00140284 0 -1.47595
3 8.81138 -0.000450134 -0.00011158 -0.385238 0 0.000157201
4 5.77839 0.000286102 0 -0.258109 0 0.000103622
5 2.23163 -0.000328064 -0.000362396 -0.127128 0 0
6 11.4725 0 0 -0.404111 -0.528026 0.145299
7 0.615219 -0.99309 -0.8107 2.92227 0.454999 -0.33141
8 2.24752 0 0 0.0643998 0.0920016 -0.24525
9 1.11936 0 0 0.012409 0.0391455 -1.16006
10 3.71348 -0.10264 0.10219 1.44559 1.26927 -0.122845
11 1.72615 0 0 -0.013295 0.00454365 -1.35296
12 1.21114 0 0 -0.0138879 0.0108707 -1.50415
13 3.59919 -1.06012 0.070888 1.59719 1.13552 0.0844622
14 1.66068 0 0 0.0206525 0.106434 -1.46129
15 1.167 0 0 0.140204 0.107864 -1.2636
16 2.18853 0.50104 0.0576591 1.58026 0.110062 0.0312636
17 1.29609 0 0 -0.0214549 0.0115007 -1.06235
18 1.62202 0.000713348 -0.000469208 -0.00757007 0.00444253 -1.4728
19 1.22241 0 0 -0.0469831 -0.00376777 -1.43289
20 1.76707 1.27612 0.0366406 1.57845 0.182304 -0.0214511
21 1.55587 0 0 -0.155246 -0.00355035 -0.857709
22 1.24273 0 0 -0.000505301 -0.000323037 -1.24825
23 0.784523 0 0 0.00822043 0.0140818 -0.754785
24 -1.9448 -1.4671 -11.5051 -0.000932534 0 -2.53187
25 6.02794 0 0 0.809862 0.429763 1.26897
26 11.7344 0 0 0.00140288 0 0.76398
27 8.81167 0 0 0.214213 0 0
28 5.77884 0 0 0.143523 0 0
29 2.23249 0 0 0.0706905 0 0
30 11.4725 0 0 0.0771322 -0.525806 0.226805
31 0.615814 0.994373 -0.809165 -2.72226 0.463503 0.286233
32 2.24752 0 0 -0.0835969 0.0959307 0.272288
33 1.11936 0 0 -0.401235 0.450129 0.842934
34 3.71349 0.102638 0.102191 -1.41386 1.26431 0.0816933
35 1.72615 0 0 0.000698446 0.00024169 1.34896
36 1.21112 0 0 0.0115403 0.0133366 1.31081
37 3.5992 1.06012 0.0708885 -1.68043 1.04215 -0.112109
38 1.66069 0 0 0.0062071 0.00200628 1.47997
39 1.16699 0 0 -0.0701392 0.164234 1.21657
40 2.18853 -0.501041 0.0576587 -1.57605 0.00117786 -0.0469346
41 1.29609 0 0 -0.0326375 -0.0616157 1.17811
42 1.62201 -0.000714302 -0.000469208 -0.00508026 -0.00330964 1.42626
43 1.2224 0 0 0.0247019 -0.0856984 1.42308
44 1.76707 -1.27612 0.0366416 -1.56655 0.103701 0.0275536
45 1.55587 0 0 0.103891 -0.075653 0.975564
46 1.24273 0 0 -0.00469945 -0.0380689 1.28397
47 0.784529 0 0 -0.0127428 -0.0577752 1.00048
48 0 0 0 0 0 0
49 8.77925 -21.53 -7.31855 -0.460424 0.393848 0.135306
time 19
0 2.57209 1.18619 -8.62596 0 0 -0.814469
1 6.02794 0 0 -1.34161 0.844046 -0.53387
2 11.7344 0 0 -0.00140282 0 -1.44617
3 8.81138 -0.000450134 -0.000112534 -0.30271 0 0.000157004
4 5.77839 0.000286102 0 -0.202815 0 0.000103991
5 2.23163 -0.000328064 -0.000363827 -0.0998942 0 0
6 11.4725 0 0 -0.320709 -0.42514 0.111005
7 0.615221 -0.993092 -0.8107 2.92227 0.454999 -0.331411
8 2.24752 0 0 0.0643999 0.0920016 -0.24525
9 1.11936 0 0 0.012409 0.0391455 -1.16006
10 3.71348 -0.102642 0.10219 1.44559 1.26927 -0.122845
11 1.72615 0 0 -0.013295 0.00454366 -1.35296
12 1.21114 0 0 -0.0138878 0.0108709 -1.50415
13 3.59919 -1.06012 0.0708876 1.59719 1.13552 0.0844622
14 1.66069 0 0 0.0206525 0.106434 -1.46129
15 1.167 0 0 0.140204 0.107864 -1.2636
16 2.18853 0.50104 0.0576591 1.58026 0.110062 0.0312637
17 1.29609 0 0 -0.021455 0.0115007 -1.06235
18 1.62202 0.000715256 -0.000471115 -0.00756992 0.00444245 -1.4728
19 1.22241 0 0 -0.0469829 -0.00376794 -1.43289
20 1.76707 1.27612 0.0366406 1.57845 0.182304 -0.0214508
21 1.55588 0 0 -0.155246 -0.00355044 -0.857709
22 1.24274 0 0 -0.000505126 -0.000323076 -1.24825
23 0.784521 0 0 0.00822045 0.0140818 -0.754785
24 -1.93947 -1.54032 -10.8312 -0.000932534 0 -2.53187
25 6.02794 0 0 0.80056 0.401184 1.32659
26 11.7344 0 0 0.00140276 0 0.645348
27 8.81167 0 0 0.358127 0 0
28 5.77884 0 0 0.239945 0 0
29 2.23249 0 0 0.118182 0 0
30 11.4725 0 0 0.136003 -0.648282 0.279915
31 0.615814 0.994373 -0.809165 -2.72226 0.463503 0.286233
32 2.24752 0 0 -0.0835968 0.0959309 0.272288
33 1.11936 0 0 -0.401235 0.450129 0.842933
34 3.71349 0.10264 0.102191 -1.41386 1.26431 0.0816933
35 1.72615 0 0 0.000698437 0.000241776 1.34896
36 1.21112 0 0 0.0115401 0.0133365 1.31081
37 3.5992 1.06012 0.0708876 -1.68043 1.04215 -0.112109
38 1.66069 0 0 0.00620714 0.00200644 1.47997
39 1.16699 0 0 -0.0701393 0.164234 1.21657
40 2.18853 -0.50104 0.0576591 -1.57605 0.00117791 -0.0469345
41 1.29609 0 0 -0.0326375 -0.0616157 1.17811
42 1.62201 -0.000715256 -0.000469208 -0.00508026 -0.00330941 1.42626
43 1.22241 0 0 0.0247019 -0.0856984 1.42308
44 1.76707 -1.27612 0.0366406 -1.56655 0.103701 0.0275537
45 1.55588 0 0 0.103891 -0.0756531 0.975564
46 1.24273 0 0 -0.00469947 -0.0380688 1.28397
47 0.784533 0 0 -0.0127429 -0.0577751 1.00048
48 0 0 0 0 0 0
49 8.71476 -21.8598 -6.75801 -0.466331 0.299509 0.101753
time 20
0 2.57209 1.18619 -8.6006 0 0 -0.814469
1 6.02794 0 0 -1.36879 0.798743 -0.542169
2 11.7344 0 0 -0.00140278 0 -1.43692
3 8.81138 -0.000448227 -0.00011158 -0.270686 0 0.000156265
4 5.77839 0.000286102 0 -0.181359 0 0.000103457
5 2.23163 -0.000329971 -0.00036335 -0.0893263 0 0
6 11.4725 0 0 -0.294423 -0.35879 0.118047
7 0.615219 -0.993092 -0.8107 2.92227 0.454999 -0.33141
8 2.24752 0 0 0.0643999 0.0920014 -0.24525
9 1.11936 0 0 0.0124089 0.0391454 -1.16006
10 3.71348 -0.102642 0.10219 1.44559 1.26927 -0.122846
11 1.72615 0 0 -0.0132949 0.00454343 -1.35296
12 1.21114 0 0 -0.0138876 0.0108708 -1.50415
13 3.59919 -1.06012 0.0708876 1.59719 1.13552 0.0844625
14 1.66069 0 0 0.0206524 0.106434 -1.46129
15 1.167 0 0 0.140204 0.107864 -1.2636
16 2.18852 0.501038 0.0576587 1.58026 0.110062 0.0312636
17 1.29609 0 0 -0.0214551 0.0115007 -1.06235
18 1.62202 0.000713348 -0.000471115 -0.00756982 0.00444235 -1.4728
19 1.22241 0 0 -0.0469826 -0.00376776 -1.43289
20 1.76707 1.27612 0.0366406 1.57845 0.182304 -0.021451
21 1.55588 0 0 -0.155246 -0.00355036 -0.857709
22 1.24273 0 0 -0.000505255 -0.000322949 -1.24825
23 0.784523 0 0 0.0082204 0.0140817 -0.754785
24 -1.93761 -1.56582 -10.5888 -0.000932534 0 -2.53187
25 6.02795 0 0 0.807576 0.366389 1.34985
26 11.7344 0 0 0.00140264 0 0.606703
27 8.81167 0 0 0.398098 0 0
28 5.77884 0 0 0.266726 0 0
29 2.23249 0 0 0.131372 0 0
30 11.4725 0 0 0.150569 -0.697544 0.278271
31 0.615815 0.994371 -0.809165 -2.72226 0.463503 0.286233
32 2.24752 0 0 -0.083597 0.0959306 0.272288
33 1.11936 0 0 -0.401236 0.450129 0.842933
34 3.71349 0.102636 0.102191 -1.41386 1.26431 0.0816931
35 1.72615 0 0 0.00069843 0.000241606 1.34896
36 1.21112 0 0 0.0115404 0.0133365 1.31081
37 3.5992 1.06011 0.0708885 -1.68043 1.04215 -0.112109
38 1.66069 0 0 0.00620718 0.00200642 1.47997
39 1.16699 0 0 -0.0701393 0.164234 1.21657
40 2.18853 -0.501041 0.0576591 -1.57605 0.00117806 -0.0469345
41 1.29609 0 0 -0.0326376 -0.0616158 1.17811
42 1.62201 -0.000713348 -0.000469208 -0.00508022 -0.00330952 1.42626
43 1.22241 0 0 0.024702 -0.0856983 1.42308
44 1.76707 -1.27612 0.0366411 -1.56655 0.103701 0.0275537
45 1.55588 0 0 0.103891 -0.075653 0.975564
46 1.24273 0 0 -0.00469952 -0.0380689 1.28397
47 0.784531 0 0 -0.0127429 -0.0577752 1.00048
48 0 0 0 0 0 0
49 8.68284 -21.9724 -5.95148 -0.482858 0.258133 0.0662012
end
