//Sequence File generated by the Wall Worm SMD Exporter PRO 1.99
//www.wallworm.com
version 1
nodes
0 "b_l_clav" -1
1 "b_l_upperarm" 0
2 "b_l_forearm" 1
3 "b_l_twist3" 2
4 "b_l_twist2" 2
5 "b_l_twist1" 2
6 "b_l_hand" 2
7 "b_l_thumb001" 6
8 "b_l_thumb002" 7
9 "b_l_thumb003" 8
10 "b_l_middle001" 6
11 "b_l_middle002" 10
12 "b_l_middle003" 11
13 "b_l_index001" 6
14 "b_l_index002" 13
15 "b_l_index003" 14
16 "b_l_hand_ringsqueezer" 6
17 "b_l_ring001" 16
18 "b_l_ring002" 17
19 "b_l_ring003" 18
20 "b_l_hand_pinkysqueezer" 6
21 "b_l_pinky001" 20
22 "b_l_pinky002" 21
23 "b_l_pinky003" 22
24 "b_r_clav" -1
25 "b_r_upperarm" 24
26 "b_r_forearm" 25
27 "b_r_twist3" 26
28 "b_r_twist2" 26
29 "b_r_twist1" 26
30 "b_r_hand" 26
31 "b_r_thumb001" 30
32 "b_r_thumb002" 31
33 "b_r_thumb003" 32
34 "b_r_middle001" 30
35 "b_r_middle002" 34
36 "b_r_middle003" 35
37 "b_r_index001" 30
38 "b_r_index002" 37
39 "b_r_index003" 38
40 "b_r_hand_ringsqueezer" 30
41 "b_r_ring001" 40
42 "b_r_ring002" 41
43 "b_r_ring003" 42
44 "b_r_hand_pinkysqueezer" 30
45 "b_r_pinky001" 44
46 "b_r_pinky002" 45
47 "b_r_pinky003" 46
48 "b_zero" -1
49 "d_wepinbone" -1
end
skeleton
time 0
0 2.57209 1.18619 -8.6006 0 0 -0.814469
1 6.02794 0 0 -1.36879 0.798743 -0.542169
2 11.7344 0 0 -0.00140278 0 -1.43692
3 8.81138 -0.000448227 -0.00011158 -0.270686 0 0.000156265
4 5.77839 0.000286102 0 -0.181359 0 0.000103457
5 2.23163 -0.000329971 -0.00036335 -0.0893263 0 0
6 11.4725 0 0 -0.294423 -0.35879 0.118047
7 0.615219 -0.993092 -0.8107 2.92227 0.454999 -0.33141
8 2.24752 0 0 0.0643999 0.0920014 -0.24525
9 1.11936 0 0 0.0124089 0.0391454 -1.16006
10 3.71348 -0.102642 0.10219 1.44559 1.26927 -0.122846
11 1.72615 0 0 -0.0132949 0.00454343 -1.35296
12 1.21114 0 0 -0.0138876 0.0108708 -1.50415
13 3.59919 -1.06012 0.0708876 1.59719 1.13552 0.0844625
14 1.66069 0 0 0.0206524 0.106434 -1.46129
15 1.167 0 0 0.140204 0.107864 -1.2636
16 2.18852 0.501038 0.0576587 1.58026 0.110062 0.0312636
17 1.29609 0 0 -0.0214551 0.0115007 -1.06235
18 1.62202 0.000713348 -0.000471115 -0.00756982 0.00444235 -1.4728
19 1.22241 0 0 -0.0469826 -0.00376776 -1.43289
20 1.76707 1.27612 0.0366406 1.57845 0.182304 -0.021451
21 1.55588 0 0 -0.155246 -0.00355036 -0.857709
22 1.24273 0 0 -0.000505255 -0.000322949 -1.24825
23 0.784523 0 0 0.0082204 0.0140817 -0.754785
24 -1.93761 -1.56582 -10.5888 -0.000932534 0 -2.53187
25 6.02795 0 0 0.807576 0.366389 1.34985
26 11.7344 0 0 0.00140264 0 0.606703
27 8.81167 0 0 0.398098 0 0
28 5.77884 0 0 0.266726 0 0
29 2.23249 0 0 0.131372 0 0
30 11.4725 0 0 0.150569 -0.697544 0.278271
31 0.615815 0.994371 -0.809165 -2.72226 0.463503 0.286233
32 2.24752 0 0 -0.083597 0.0959306 0.272288
33 1.11936 0 0 -0.401236 0.450129 0.842933
34 3.71349 0.102636 0.102191 -1.41386 1.26431 0.0816931
35 1.72615 0 0 0.00069843 0.000241606 1.34896
36 1.21112 0 0 0.0115404 0.0133365 1.31081
37 3.5992 1.06011 0.0708885 -1.68043 1.04215 -0.112109
38 1.66069 0 0 0.00620718 0.00200642 1.47997
39 1.16699 0 0 -0.0701393 0.164234 1.21657
40 2.18853 -0.501041 0.0576591 -1.57605 0.00117806 -0.0469345
41 1.29609 0 0 -0.0326376 -0.0616158 1.17811
42 1.62201 -0.000713348 -0.000469208 -0.00508022 -0.00330952 1.42626
43 1.22241 0 0 0.024702 -0.0856983 1.42308
44 1.76707 -1.27612 0.0366411 -1.56655 0.103701 0.0275537
45 1.55588 0 0 0.103891 -0.075653 0.975564
46 1.24273 0 0 -0.00469952 -0.0380689 1.28397
47 0.784531 0 0 -0.0127429 -0.0577752 1.00048
48 0 0 0 0 0 0
49 8.68284 -21.9724 -5.95148 -0.482858 0.258133 0.0662012
time 1
0 2.57209 1.18619 -8.6006 0 0 -0.814469
1 6.02794 0 0 -1.35327 0.886715 -0.512067
2 11.7344 0 0 -0.00140288 0 -1.98567
3 8.81138 -0.000450134 -0.000112057 -0.120707 0 0.000156696
4 5.77839 0.00028801 0 -0.0808734 0 0.00010442
5 2.23163 -0.000328064 -0.000363827 -0.0398331 0 0
6 11.4725 0 0 -0.19908 -0.46079 0.20172
7 0.615218 -0.993092 -0.8107 2.92227 0.454999 -0.33141
8 2.24752 0 0 0.0643998 0.0920016 -0.24525
9 1.11936 0 0 0.012409 0.0391455 -1.16006
10 3.71348 -0.10264 0.102191 1.44559 1.26927 -0.122845
11 1.72615 0 0 -0.013295 0.00454362 -1.35296
12 1.21113 0 0 -0.0138878 0.0108706 -1.50415
13 3.59919 -1.06012 0.0708876 1.59719 1.13552 0.0844623
14 1.66069 0 0 0.0206523 0.106434 -1.46129
15 1.167 0 0 0.140204 0.107864 -1.2636
16 2.18852 0.50104 0.0576591 1.58026 0.110062 0.0312637
17 1.29609 0 0 -0.021455 0.0115006 -1.06235
18 1.62202 0.000714302 -0.000471115 -0.00756991 0.00444245 -1.4728
19 1.22241 0 0 -0.0469828 -0.00376794 -1.43289
20 1.76707 1.27612 0.0366411 1.57845 0.182304 -0.0214509
21 1.55588 0 0 -0.155245 -0.00355044 -0.857709
22 1.24273 0 0 -0.000505329 -0.000323049 -1.24825
23 0.784522 0 0 0.00822037 0.0140817 -0.754785
24 -1.93761 -1.56582 -10.5888 -0.000932534 0 -2.53187
25 6.02795 0 0 0.789432 0.418025 1.23791
26 11.7344 0 0 0.00140269 0 1.22079
27 8.81167 0 0 0.0189372 0 0
28 5.77884 0 0 0.0126879 0 0
29 2.23249 0 0 0.00624936 0 0
30 11.4725 0 0 -0.112885 -0.629039 0.215918
31 0.615813 0.994371 -0.809165 -2.72226 0.463503 0.286233
32 2.24752 0 0 -0.0835969 0.0959307 0.272288
33 1.11936 0 0 -0.401235 0.450129 0.842934
34 3.71349 0.102638 0.102191 -1.41386 1.26431 0.0816933
35 1.72615 0 0 0.000698536 0.000241779 1.34896
36 1.21112 0 0 0.0115404 0.0133367 1.31081
37 3.5992 1.06012 0.070888 -1.68043 1.04215 -0.112109
38 1.66069 0 0 0.00620717 0.00200627 1.47997
39 1.16699 0 0 -0.0701393 0.164234 1.21657
40 2.18853 -0.50104 0.0576587 -1.57605 0.00117799 -0.0469346
41 1.29609 0 0 -0.0326375 -0.0616158 1.17811
42 1.62201 -0.000712872 -0.000471115 -0.00508027 -0.00330947 1.42626
43 1.22241 0 0 0.0247018 -0.0856984 1.42308
44 1.76707 -1.27612 0.0366411 -1.56655 0.103701 0.0275536
45 1.55587 0 0 0.103891 -0.0756531 0.975564
46 1.24273 0 0 -0.00469944 -0.038069 1.28397
47 0.784532 0 0 -0.0127429 -0.0577751 1.00048
48 0 0 0 0 0 0
49 8.01087 -15.6129 -3.01532 -0.847389 0.258133 0.0662012
time 2
0 2.57209 1.18619 -8.6006 0 0 -0.814469
1 6.02794 0 0 -1.37697 0.635948 -0.597776
2 11.7344 0 0 -0.00140282 0 -2.43232
3 8.81138 -0.000451088 -0.00011158 0.259241 0 0.000156819
4 5.77839 0.000285149 0 0.173691 0 0.000106362
5 2.23163 -0.000329971 -0.00036335 0.0855493 0 0
6 11.4725 0 0 -0.0548966 -0.550597 0.548892
7 0.615219 -0.993091 -0.8107 2.92227 0.454999 -0.331411
8 2.24752 0 0 0.0643998 0.0920016 -0.24525
9 1.11936 0 0 0.012409 0.0391454 -1.16006
10 3.71348 -0.10264 0.10219 1.44559 1.26927 -0.122846
11 1.72615 0 0 -0.0132949 0.00454353 -1.35296
12 1.21114 0 0 -0.0138877 0.0108709 -1.50415
13 3.59919 -1.06012 0.0708876 1.59719 1.13552 0.0844621
14 1.66069 0 0 0.0206524 0.106434 -1.46129
15 1.167 0 0 0.140204 0.107864 -1.2636
16 2.18852 0.50104 0.0576582 1.58026 0.110062 0.0312638
17 1.29609 0 0 -0.0214548 0.0115007 -1.06235
18 1.62202 0.000714779 -0.000470161 -0.0075699 0.00444226 -1.4728
19 1.22241 0 0 -0.0469829 -0.00376787 -1.43289
20 1.76707 1.27612 0.0366406 1.57845 0.182304 -0.0214509
21 1.55588 0 0 -0.155246 -0.00355035 -0.857708
22 1.24273 0 0 -0.000505255 -0.00032305 -1.24825
23 0.784523 0 0 0.00822029 0.0140817 -0.754785
24 -1.93761 -1.56582 -10.5888 -0.000932534 0 -2.53187
25 6.02795 0 0 0.839314 0.295921 1.28269
26 11.7344 0 0 0.00140272 0 1.65669
27 8.81167 0 0 -0.291618 0 0
28 5.77884 0 0 -0.195384 0 0
29 2.23249 0 0 -0.096234 0 0
30 11.4725 0 0 -0.249753 -0.50582 -0.0155504
31 0.615813 0.994372 -0.809165 -2.72226 0.463503 0.286233
32 2.24752 0 0 -0.083597 0.0959307 0.272288
33 1.11936 0 0 -0.401235 0.450129 0.842933
34 3.71349 0.102638 0.102191 -1.41386 1.26431 0.0816935
35 1.72615 0 0 0.000698305 0.000241835 1.34896
36 1.21112 0 0 0.0115404 0.0133366 1.31081
37 3.5992 1.06012 0.0708878 -1.68043 1.04215 -0.112109
38 1.66069 0 0 0.00620727 0.00200644 1.47997
39 1.16699 0 0 -0.0701393 0.164234 1.21657
40 2.18853 -0.50104 0.0576589 -1.57605 0.00117777 -0.0469345
41 1.29609 0 0 -0.0326375 -0.0616158 1.17811
42 1.62202 -0.000712633 -0.000469208 -0.00508015 -0.0033095 1.42626
43 1.22241 0 0 0.0247018 -0.0856983 1.42308
44 1.76707 -1.27612 0.0366404 -1.56655 0.103701 0.0275535
45 1.55588 0 0 0.103891 -0.075653 0.975564
46 1.24273 0 0 -0.00469964 -0.0380688 1.28397
47 0.784531 0 0 -0.012743 -0.0577753 1.00048
48 0 0 0 0 0 0
49 6.6901 -8.53538 -0.14864 -1.15933 0.258133 0.0662012
time 3
0 2.57209 1.18619 -8.6006 0 0 -0.814469
1 6.02794 0 0 -1.23589 0.670736 -0.69099
2 11.7344 0 0 -0.00140285 0 -2.45277
3 8.81138 -0.000449657 -0.000112534 0.503577 0 0.000156717
4 5.77839 0.000285625 0 0.337396 0 0.000107555
5 2.23163 -0.000328541 -0.000364304 0.16618 0 0
6 11.4725 0 0 -0.0989571 -0.692238 0.870823
7 0.615219 -0.993092 -0.8107 2.92227 0.454999 -0.33141
8 2.24752 0 0 0.0643998 0.0920015 -0.24525
9 1.11936 0 0 0.0124088 0.0391453 -1.16006
10 3.71348 -0.10264 0.102191 1.44559 1.26927 -0.122845
11 1.72615 0 0 -0.013295 0.0045436 -1.35296
12 1.21114 0 0 -0.0138879 0.0108708 -1.50415
13 3.59919 -1.06012 0.0708876 1.59719 1.13552 0.0844621
14 1.66069 0 0 0.0206526 0.106434 -1.46129
15 1.167 0 0 0.140204 0.107864 -1.2636
16 2.18852 0.501039 0.0576591 1.58026 0.110062 0.0312637
17 1.29609 0 0 -0.0214548 0.0115008 -1.06235
18 1.62202 0.000713348 -0.000471115 -0.00757004 0.00444267 -1.4728
19 1.22241 0 0 -0.0469832 -0.00376789 -1.43289
20 1.76707 1.27612 0.0366406 1.57845 0.182304 -0.0214511
21 1.55587 0 0 -0.155245 -0.00355038 -0.857709
22 1.24274 0 0 -0.00050523 -0.000322983 -1.24825
23 0.784523 0 0 0.00822031 0.0140817 -0.754785
24 -1.93761 -1.56582 -10.5888 -0.000932534 0 -2.53187
25 6.02795 0 0 0.769396 0.468964 1.12928
26 11.7344 0 0 0.00140273 0 1.94069
27 8.81167 0 0 -0.348933 0 0
28 5.77884 0 0 -0.233785 0 0
29 2.23249 0 0 -0.115148 0 0
30 11.4725 0 0 -0.0654025 -0.602941 -0.43767
31 0.615812 0.994373 -0.809165 -2.72226 0.463503 0.286233
32 2.24752 0 0 -0.0835969 0.0959307 0.272288
33 1.11936 0 0 -0.401235 0.450129 0.842933
34 3.71349 0.102639 0.102191 -1.41386 1.26431 0.0816935
35 1.72615 0 0 0.000698475 0.000241852 1.34896
36 1.21112 0 0 0.0115403 0.0133365 1.31081
37 3.5992 1.06012 0.0708879 -1.68043 1.04215 -0.112109
38 1.66069 0 0 0.00620723 0.00200647 1.47997
39 1.16699 0 0 -0.0701394 0.164234 1.21657
40 2.18853 -0.50104 0.0576589 -1.57605 0.00117796 -0.0469345
41 1.29609 0 0 -0.0326375 -0.0616159 1.17811
42 1.62202 -0.000712633 -0.000471115 -0.00508021 -0.00330952 1.42626
43 1.22241 0 0 0.0247019 -0.0856985 1.42308
44 1.76707 -1.27612 0.0366411 -1.56655 0.103701 0.0275536
45 1.55588 0 0 0.103891 -0.075653 0.975564
46 1.24273 0 0 -0.0046995 -0.0380689 1.28397
47 0.784532 0 0 -0.0127429 -0.0577751 1.00048
48 0 0 0 0 0 0
49 5.24189 -9.74029 -0.376193 -0.832437 0.258133 0.0662012
time 4
0 2.57209 1.18619 -8.6006 0 0 -0.814469
1 6.02794 0 0 -1.11699 0.766715 -0.701266
2 11.7344 0 0 -0.00140278 0 -2.16917
3 8.81138 -0.000450134 -0.000110626 0.439227 0 0.000157052
4 5.77839 0.000286102 0 0.294282 0 0.000107403
5 2.23163 -0.000328064 -0.000363827 0.144945 0 0
6 11.4725 0 0 -0.524969 -0.543022 1.3873
7 0.61522 -0.993091 -0.8107 2.92227 0.454999 -0.33141
8 2.24752 0 0 0.0643999 0.0920015 -0.24525
9 1.11936 0 0 0.0124089 0.0391456 -1.16006
10 3.71348 -0.102641 0.102191 1.44559 1.26927 -0.122846
11 1.72615 0 0 -0.0132949 0.00454356 -1.35296
12 1.21114 0 0 -0.0138878 0.0108709 -1.50415
13 3.59919 -1.06012 0.0708883 1.59719 1.13552 0.0844626
14 1.66069 0 0 0.0206527 0.106434 -1.46129
15 1.167 0 0 0.140204 0.107864 -1.2636
16 2.18853 0.50104 0.0576591 1.58026 0.110062 0.0312637
17 1.29609 0 0 -0.0214549 0.0115007 -1.06235
18 1.62202 0.000713348 -0.000471115 -0.00756994 0.00444258 -1.4728
19 1.22241 0 0 -0.046983 -0.00376778 -1.43289
20 1.76707 1.27612 0.0366411 1.57845 0.182304 -0.0214509
21 1.55588 0 0 -0.155246 -0.00355036 -0.857709
22 1.24273 0 0 -0.000505226 -0.000323002 -1.24825
23 0.784523 0 0 0.00822036 0.0140818 -0.754785
24 -1.93761 -1.56582 -10.5888 -0.000932534 0 -2.53187
25 6.02795 0 0 0.576254 0.697798 0.817064
26 11.7344 0 0 0.00140268 0 2.1254
27 8.81167 0 0 -0.331412 0 0
28 5.77884 0 0 -0.222046 0 0
29 2.23249 0 0 -0.109366 0 0
30 11.4725 0 0 0.468944 -0.543709 -1.1938
31 0.615812 0.994371 -0.809165 -2.72226 0.463503 0.286233
32 2.24752 0 0 -0.0835968 0.0959307 0.272288
33 1.11936 0 0 -0.401235 0.450129 0.842934
34 3.71349 0.102638 0.102191 -1.41386 1.26431 0.0816932
35 1.72615 0 0 0.00069843 0.000241777 1.34896
36 1.21112 0 0 0.0115403 0.0133366 1.31081
37 3.5992 1.06012 0.070888 -1.68043 1.04215 -0.112109
38 1.66069 0 0 0.00620723 0.00200636 1.47997
39 1.16699 0 0 -0.0701393 0.164234 1.21657
40 2.18853 -0.50104 0.0576589 -1.57605 0.00117801 -0.0469347
41 1.29609 0 0 -0.0326375 -0.0616158 1.17811
42 1.62202 -0.000714302 -0.000470161 -0.00508029 -0.00330938 1.42626
43 1.22241 0 0 0.024702 -0.0856984 1.42308
44 1.76707 -1.27612 0.036641 -1.56655 0.103701 0.0275534
45 1.55587 0 0 0.103891 -0.075653 0.975564
46 1.24273 0 0 -0.00469955 -0.0380688 1.28397
47 0.784532 0 0 -0.0127429 -0.0577752 1.00048
48 0 0 0 0 0 0
49 3.49244 -16.2275 -2.68973 -0.0621277 0.258133 0.0662012
time 5
0 2.57209 1.18619 -8.6006 0 0 -0.814469
1 6.02794 0 0 -1.28804 0.256947 -0.855334
2 11.7344 0 0 -0.00140288 0 -0.842534
3 8.81138 -0.000450134 -0.00011158 -0.171732 0 0.000156813
4 5.77839 0.000286102 0 -0.11506 0 0.000104293
5 2.23163 -0.000328064 -0.000363827 -0.0566715 0 0
6 11.4725 0 0 -0.421895 0.186147 1.60333
7 0.615219 -0.993088 -0.8107 2.92227 0.454999 -0.33141
8 2.24752 0 0 0.0643998 0.0920016 -0.245251
9 1.11936 0 0 0.0124089 0.0391455 -1.16006
10 3.71348 -0.10264 0.102191 1.44559 1.26927 -0.122845
11 1.72615 0 0 -0.013295 0.00454345 -1.35296
12 1.21114 0 0 -0.0138877 0.010871 -1.50415
13 3.59919 -1.06012 0.0708879 1.59719 1.13552 0.0844623
14 1.66069 0 0 0.0206526 0.106434 -1.46129
15 1.16699 0 0 0.140204 0.107864 -1.2636
16 2.18852 0.501041 0.057659 1.58026 0.110062 0.0312637
17 1.29609 0 0 -0.0214551 0.0115006 -1.06235
18 1.62202 0.000713348 -0.000469208 -0.00756991 0.00444253 -1.4728
19 1.22241 0 0 -0.0469828 -0.00376776 -1.43289
20 1.76707 1.27612 0.0366408 1.57845 0.182304 -0.021451
21 1.55588 0 0 -0.155245 -0.00355042 -0.857709
22 1.24274 0 0 -0.000505106 -0.000322952 -1.24825
23 0.784523 0 0 0.00822024 0.0140817 -0.754785
24 -1.93761 -1.56582 -10.5888 -0.000932534 0 -2.53187
25 6.02795 0 0 0.867075 0.407304 0.89577
26 11.7344 0 0 0.00140277 0 1.57754
27 8.81167 0 0 -0.0189572 0 0
28 5.77884 0 0 -0.0127013 0 0
29 2.23249 0 0 -0.00625585 0 0
30 11.4725 0 0 0.47087 0.217701 -2.00553
31 0.615812 0.99437 -0.809165 -2.72226 0.463503 0.286233
32 2.24752 0 0 -0.0835969 0.0959307 0.272288
33 1.11936 0 0 -0.401235 0.450129 0.842933
34 3.71348 0.102639 0.102191 -1.41386 1.26431 0.0816939
35 1.72615 0 0 0.000698366 0.000241733 1.34896
36 1.21112 0 0 0.0115403 0.0133366 1.31081
37 3.5992 1.06011 0.0708879 -1.68043 1.04215 -0.112109
38 1.66069 0 0 0.00620709 0.0020065 1.47997
39 1.16699 0 0 -0.0701393 0.164234 1.21657
40 2.18853 -0.50104 0.0576591 -1.57605 0.00117797 -0.0469347
41 1.29609 0 0 -0.0326375 -0.0616158 1.17811
42 1.62202 -0.000713348 -0.000468254 -0.00508028 -0.00330941 1.42626
43 1.22241 0 0 0.0247021 -0.0856984 1.42308
44 1.76707 -1.27612 0.0366411 -1.56655 0.103701 0.0275535
45 1.55588 0 0 0.103891 -0.075653 0.975564
46 1.24273 0 0 -0.00469951 -0.0380688 1.28397
47 0.784533 0 0 -0.012743 -0.0577751 1.00048
48 0 0 0 0 0 0
49 1.44177 -27.9969 -7.08925 1.1516 0.258133 0.0662012
time 6
0 2.57209 1.18619 -8.6006 0 0 -0.814469
1 6.02794 0 0 -1.27023 0.500528 -0.760904
2 11.7344 0 0 -0.00140283 0 -1.31534
3 8.81138 -0.000452042 -0.00011301 -0.0490705 0 0.000156424
4 5.77839 0.000284195 0 -0.0328773 0 0.000104645
5 2.23163 -0.000329971 -0.000365257 -0.0161933 0 0
6 11.4725 0 0 -0.480509 0.0108454 1.49743
7 0.615219 -0.993091 -0.8107 2.92227 0.454999 -0.33141
8 2.24752 0 0 0.0643998 0.0920015 -0.24525
9 1.11935 0 0 0.0124089 0.0391455 -1.16006
10 3.71348 -0.102641 0.102191 1.44559 1.26927 -0.122845
11 1.72615 0 0 -0.0132949 0.00454367 -1.35296
12 1.21114 0 0 -0.0138877 0.0108708 -1.50415
13 3.59919 -1.06012 0.070888 1.59719 1.13552 0.0844629
14 1.66069 0 0 0.0206526 0.106434 -1.46129
15 1.167 0 0 0.140204 0.107864 -1.2636
16 2.18853 0.501038 0.057659 1.58026 0.110062 0.0312635
17 1.29609 0 0 -0.0214549 0.0115007 -1.06235
18 1.62202 0.000713348 -0.000472069 -0.00757022 0.00444261 -1.4728
19 1.22241 0 0 -0.046983 -0.00376798 -1.43289
20 1.76707 1.27612 0.0366408 1.57845 0.182304 -0.021451
21 1.55588 0 0 -0.155245 -0.00355041 -0.857709
22 1.24273 0 0 -0.000505268 -0.000323032 -1.24825
23 0.784523 0 0 0.00822046 0.0140819 -0.754785
24 -1.93761 -1.56582 -10.5888 -0.000932534 0 -2.53187
25 6.02795 0 0 0.746197 0.553322 0.881507
26 11.7344 0 0 0.00140274 0 1.72646
27 8.81167 0 0 -0.104327 0 0
28 5.77884 0 0 -0.0698988 0 0
29 2.23249 0 0 -0.0344278 0 0
30 11.4725 0 0 0.636796 -0.0160738 -1.69106
31 0.615812 0.994371 -0.809165 -2.72226 0.463503 0.286233
32 2.24752 0 0 -0.0835969 0.0959306 0.272288
33 1.11936 0 0 -0.401236 0.450129 0.842934
34 3.71349 0.102639 0.102191 -1.41386 1.26431 0.0816933
35 1.72615 0 0 0.000698422 0.000241803 1.34896
36 1.21112 0 0 0.0115403 0.0133366 1.31081
37 3.5992 1.06012 0.070888 -1.68043 1.04215 -0.112109
38 1.66069 0 0 0.00620721 0.00200641 1.47997
39 1.16699 0 0 -0.0701393 0.164234 1.21657
40 2.18853 -0.50104 0.057659 -1.57605 0.00117784 -0.0469346
41 1.29609 0 0 -0.0326374 -0.0616158 1.17811
42 1.62201 -0.000711441 -0.000471115 -0.00508027 -0.00330948 1.42626
43 1.2224 0 0 0.024702 -0.0856984 1.42308
44 1.76707 -1.27612 0.0366411 -1.56655 0.103701 0.0275535
45 1.55588 0 0 0.103891 -0.0756531 0.975564
46 1.24273 0 0 -0.0046996 -0.0380689 1.28397
47 0.784532 0 0 -0.0127429 -0.0577753 1.00048
48 0 0 0 0 0 0
49 2.93164 -25.7383 -6.23384 0.779587 0.253175 0.0610954
time 7
0 2.57209 1.18619 -8.6006 0 0 -0.814469
1 6.02794 0 0 -1.2573 0.647018 -0.688425
2 11.7344 0 0 -0.00140288 0 -1.56838
3 8.81138 -0.000448227 -0.000112057 0.00122583 0 0.000156824
4 5.77839 0.000286102 0 0.000821351 0 0.000105012
5 2.23163 -0.000328064 -0.000364304 0.000404596 0 0
6 11.4725 0 0 -0.484628 -0.136258 1.3207
7 0.615219 -0.993091 -0.8107 2.92227 0.454999 -0.33141
8 2.24752 0 0 0.0643999 0.0920016 -0.24525
9 1.11936 0 0 0.0124089 0.0391456 -1.16006
10 3.71348 -0.102641 0.102191 1.44559 1.26927 -0.122845
11 1.72615 0 0 -0.013295 0.00454358 -1.35296
12 1.21114 0 0 -0.0138879 0.0108708 -1.50415
13 3.59919 -1.06012 0.0708876 1.59719 1.13552 0.0844628
14 1.66069 0 0 0.0206524 0.106434 -1.46129
15 1.167 0 0 0.140204 0.107864 -1.2636
16 2.18852 0.501039 0.0576586 1.58026 0.110062 0.0312635
17 1.29609 0 0 -0.0214549 0.0115007 -1.06235
18 1.62202 0.000713348 -0.000471592 -0.00756998 0.00444239 -1.4728
19 1.22241 0 0 -0.046983 -0.00376784 -1.43289
20 1.76707 1.27612 0.036641 1.57845 0.182304 -0.0214511
21 1.55588 0 0 -0.155246 -0.00355033 -0.857709
22 1.24274 0 0 -0.000505251 -0.000323056 -1.24825
23 0.784525 0 0 0.00822038 0.0140817 -0.754785
24 -1.93761 -1.56582 -10.5888 -0.000932534 0 -2.53187
25 6.02795 0 0 0.664199 0.624488 0.895267
26 11.7344 0 0 0.00140255 0 1.73178
27 8.81167 0 0 -0.12087 0 0
28 5.77884 0 0 -0.0809826 0 0
29 2.23249 0 0 -0.0398871 0 0
30 11.4725 0 0 0.670154 -0.26164 -1.39651
31 0.615812 0.994373 -0.809165 -2.72226 0.463503 0.286233
32 2.24751 0 0 -0.083597 0.0959306 0.272288
33 1.11936 0 0 -0.401235 0.450129 0.842934
34 3.71349 0.102639 0.102191 -1.41386 1.26431 0.0816936
35 1.72615 0 0 0.000698455 0.000241772 1.34896
36 1.21112 0 0 0.0115403 0.0133366 1.31081
37 3.5992 1.06012 0.070888 -1.68043 1.04215 -0.112109
38 1.66069 0 0 0.00620717 0.00200641 1.47997
39 1.16699 0 0 -0.0701393 0.164234 1.21657
40 2.18853 -0.50104 0.0576589 -1.57605 0.00117813 -0.0469345
41 1.29609 0 0 -0.0326375 -0.0616158 1.17811
42 1.62201 -0.000713348 -0.000470161 -0.0050803 -0.00330946 1.42626
43 1.22241 0 0 0.0247019 -0.0856984 1.42308
44 1.76707 -1.27612 0.0366409 -1.56655 0.103701 0.0275537
45 1.55587 0 0 0.103891 -0.0756531 0.975564
46 1.24273 0 0 -0.00469956 -0.0380689 1.28397
47 0.78453 0 0 -0.0127429 -0.0577753 1.00048
48 0 0 0 0 0 0
49 4.2011 -23.7696 -5.5021 0.461854 0.253175 0.0610954
time 8
0 2.57209 1.18619 -8.6006 0 0 -0.814469
1 6.02794 0 0 -1.25427 0.742145 -0.631364
2 11.7344 0 0 -0.00140286 0 -1.71924
3 8.81138 -0.000448227 -0.00011158 0.0124 0 0.000156982
4 5.77839 0.000286102 0 0.00830793 0 0.000105207
5 2.23163 -0.000328064 -0.000364304 0.00409195 0 0
6 11.4725 0 0 -0.460009 -0.246595 1.13495
7 0.615219 -0.993091 -0.8107 2.92227 0.454999 -0.33141
8 2.24752 0 0 0.0643999 0.0920014 -0.24525
9 1.11936 0 0 0.0124089 0.0391455 -1.16006
10 3.71348 -0.102641 0.102191 1.44559 1.26927 -0.122845
11 1.72615 0 0 -0.013295 0.00454355 -1.35296
12 1.21114 0 0 -0.0138877 0.0108708 -1.50415
13 3.59919 -1.06012 0.0708883 1.59719 1.13552 0.0844628
14 1.66069 0 0 0.0206525 0.106434 -1.46129
15 1.167 0 0 0.140204 0.107864 -1.2636
16 2.18852 0.501039 0.0576594 1.58026 0.110062 0.0312636
17 1.29609 0 0 -0.0214549 0.0115007 -1.06235
18 1.62202 0.000715256 -0.000471115 -0.00756998 0.00444255 -1.4728
19 1.22241 0 0 -0.0469829 -0.00376783 -1.43289
20 1.76707 1.27612 0.0366418 1.57845 0.182304 -0.0214512
21 1.55588 0 0 -0.155246 -0.00355033 -0.857709
22 1.24274 0 0 -0.000505272 -0.000322925 -1.24825
23 0.784523 0 0 0.0082204 0.0140817 -0.754785
24 -1.93761 -1.56582 -10.5888 -0.000932534 0 -2.53187
25 6.02795 0 0 0.636732 0.643129 0.934734
26 11.7344 0 0 0.00140274 0 1.67614
27 8.81167 0 0 -0.0969493 0 0
28 5.77884 0 0 -0.0649561 0 0
29 2.23249 0 0 -0.0319933 0 0
30 11.4725 0 0 0.607136 -0.446879 -1.12168
31 0.615814 0.994371 -0.809165 -2.72226 0.463502 0.286233
32 2.24752 0 0 -0.0835968 0.0959306 0.272288
33 1.11936 0 0 -0.401235 0.450129 0.842933
34 3.71349 0.102639 0.102191 -1.41386 1.26431 0.0816933
35 1.72615 0 0 0.000698408 0.000241756 1.34896
36 1.21112 0 0 0.0115403 0.0133366 1.31081
37 3.5992 1.06012 0.070888 -1.68043 1.04215 -0.112109
38 1.66069 0 0 0.00620717 0.00200646 1.47997
39 1.16699 0 0 -0.0701393 0.164234 1.21657
40 2.18853 -0.501041 0.0576591 -1.57605 0.00117788 -0.0469346
41 1.29609 0 0 -0.0326374 -0.0616158 1.17811
42 1.62201 -0.000711441 -0.000470161 -0.00508027 -0.00330948 1.42626
43 1.2224 0 0 0.0247019 -0.0856984 1.42308
44 1.76707 -1.27612 0.0366411 -1.56655 0.103701 0.0275536
45 1.55587 0 0 0.103891 -0.075653 0.975564
46 1.24273 0 0 -0.00469954 -0.0380689 1.28397
47 0.784531 0 0 -0.0127429 -0.0577752 1.00048
48 0 0 0 0 0 0
49 5.25016 -22.0909 -4.89401 0.198398 0.258133 0.0662012
time 9
0 2.57209 1.18619 -8.6006 0 0 -0.814469
1 6.02794 0 0 -1.25733 0.796078 -0.595685
2 11.7344 0 0 -0.00140292 0 -1.80858
3 8.81138 -0.000448227 -0.000112057 0.0147164 0 0.00015674
4 5.77839 0.000286102 0 0.00986002 0 0.000104977
5 2.23164 -0.000326157 -0.000364304 0.00485638 0 0
6 11.4725 0 0 -0.438481 -0.32691 0.995033
7 0.615219 -0.993092 -0.8107 2.92227 0.454999 -0.33141
8 2.24752 0 0 0.0643998 0.0920015 -0.24525
9 1.11936 0 0 0.012409 0.0391455 -1.16006
10 3.71348 -0.102641 0.102191 1.44559 1.26927 -0.122847
11 1.72615 0 0 -0.0132948 0.00454355 -1.35296
12 1.21113 0 0 -0.0138877 0.010871 -1.50415
13 3.59919 -1.06012 0.070889 1.59719 1.13552 0.0844618
14 1.66069 0 0 0.0206526 0.106434 -1.46129
15 1.167 0 0 0.140204 0.107864 -1.2636
16 2.18852 0.501039 0.0576591 1.58026 0.110062 0.0312638
17 1.29609 0 0 -0.0214549 0.0115006 -1.06235
18 1.62202 0.000713348 -0.000471592 -0.00756983 0.00444254 -1.4728
19 1.22241 0 0 -0.0469829 -0.0037677 -1.43289
20 1.76707 1.27612 0.0366414 1.57845 0.182304 -0.0214511
21 1.55588 0 0 -0.155246 -0.00355034 -0.857709
22 1.24274 0 0 -0.000505238 -0.00032301 -1.24825
23 0.784525 0 0 0.00822042 0.0140818 -0.754785
24 -1.93761 -1.56582 -10.5888 -0.000932534 0 -2.53187
25 6.02795 0 0 0.643046 0.634627 0.974471
26 11.7344 0 0 0.00140266 0 1.62151
27 8.81167 0 0 -0.066923 0 0
28 5.77884 0 0 -0.0448384 0 0
29 2.23249 0 0 -0.0220846 0 0
30 11.4725 0 0 0.501464 -0.537415 -0.896441
31 0.615812 0.994371 -0.809165 -2.72226 0.463503 0.286233
32 2.24752 0 0 -0.083597 0.0959307 0.272288
33 1.11936 0 0 -0.401235 0.450129 0.842933
34 3.71349 0.102639 0.102191 -1.41386 1.26431 0.0816935
35 1.72615 0 0 0.000698431 0.000241778 1.34896
36 1.21112 0 0 0.0115403 0.0133366 1.31081
37 3.5992 1.06012 0.0708883 -1.68043 1.04215 -0.112109
38 1.66069 0 0 0.00620724 0.0020065 1.47997
39 1.16699 0 0 -0.0701393 0.164234 1.21657
40 2.18853 -0.50104 0.0576591 -1.57605 0.00117792 -0.0469345
41 1.29609 0 0 -0.0326375 -0.0616158 1.17811
42 1.62202 -0.000711441 -0.000471115 -0.00508027 -0.00330948 1.42626
43 1.2224 0 0 0.024702 -0.0856984 1.42308
44 1.76707 -1.27612 0.0366406 -1.56655 0.103701 0.0275536
45 1.55588 0 0 0.103891 -0.075653 0.975564
46 1.24273 0 0 -0.00469954 -0.0380689 1.28397
47 0.784531 0 0 -0.0127429 -0.0577752 1.00048
48 0 0 0 0 0 0
49 5.9876 -20.7971 -4.42885 0.00904623 0.272218 0.0809291
time 10
0 2.57209 1.18619 -8.6006 0 0 -0.814469
1 6.02794 0 0 -1.25656 0.820718 -0.580554
2 11.7344 0 0 -0.0014029 0 -1.86302
3 8.81138 -0.000450134 -0.00011301 0.0310062 0 0.000156342
4 5.77839 0.000286102 0 0.0207741 0 0.000104907
5 2.23163 -0.000329971 -0.00036478 0.010232 0 0
6 11.4725 0 0 -0.438636 -0.395614 0.930404
7 0.615219 -0.993091 -0.8107 2.92227 0.454999 -0.33141
8 2.24752 0 0 0.0643998 0.0920015 -0.24525
9 1.11936 0 0 0.012409 0.0391453 -1.16006
10 3.71348 -0.102641 0.102192 1.44559 1.26927 -0.122845
11 1.72615 0 0 -0.013295 0.0045436 -1.35296
12 1.21114 0 0 -0.0138879 0.0108708 -1.50415
13 3.59919 -1.06012 0.0708883 1.59719 1.13552 0.0844631
14 1.66069 0 0 0.0206524 0.106434 -1.46129
15 1.16699 0 0 0.140204 0.107864 -1.2636
16 2.18852 0.501039 0.0576594 1.58026 0.110062 0.0312638
17 1.29609 0 0 -0.0214549 0.0115007 -1.06235
18 1.62202 0.000715256 -0.000471115 -0.00756996 0.00444261 -1.4728
19 1.22241 0 0 -0.046983 -0.0037678 -1.43289
20 1.76707 1.27612 0.0366418 1.57845 0.182304 -0.0214509
21 1.55588 0 0 -0.155246 -0.00355032 -0.857709
22 1.24273 0 0 -0.000505308 -0.000322932 -1.24825
23 0.784522 0 0 0.00822037 0.0140818 -0.754785
24 -1.93761 -1.56582 -10.5888 -0.000932534 0 -2.53187
25 6.02795 0 0 0.655144 0.622213 0.991796
26 11.7344 0 0 0.00140275 0 1.60093
27 8.81167 0 0 -0.046048 0 0
28 5.77884 0 0 -0.0308521 0 0
29 2.23249 0 0 -0.0151958 0 0
30 11.4725 0 0 0.410399 -0.546265 -0.755348
31 0.615811 0.994371 -0.809165 -2.72226 0.463503 0.286233
32 2.24752 0 0 -0.083597 0.0959306 0.272288
33 1.11936 0 0 -0.401235 0.450129 0.842934
34 3.71348 0.102638 0.102191 -1.41386 1.26431 0.0816937
35 1.72615 0 0 0.000698403 0.00024172 1.34896
36 1.21112 0 0 0.0115402 0.0133366 1.31081
37 3.5992 1.06012 0.0708883 -1.68043 1.04215 -0.112109
38 1.66069 0 0 0.00620718 0.00200645 1.47997
39 1.16699 0 0 -0.0701393 0.164234 1.21657
40 2.18853 -0.501041 0.0576596 -1.57605 0.00117784 -0.0469346
41 1.29609 0 0 -0.0326375 -0.0616158 1.17811
42 1.62201 -0.000714302 -0.000469208 -0.00508032 -0.00330947 1.42626
43 1.22241 0 0 0.0247019 -0.0856984 1.42308
44 1.76707 -1.27612 0.0366411 -1.56655 0.103701 0.0275536
45 1.55588 0 0 0.103891 -0.075653 0.975564
46 1.24273 0 0 -0.0046995 -0.0380689 1.28397
47 0.784533 0 0 -0.0127429 -0.0577752 1.00048
48 0 0 0 0 0 0
49 6.38302 -19.9199 -4.11304 -0.0995932 0.296817 0.106785
time 11
0 2.57209 1.18619 -8.6006 0 0 -0.814469
1 6.02794 0 0 -1.24836 0.829616 -0.578393
2 11.7344 0 0 -0.00140276 0 -1.89824
3 8.81138 -0.000450134 -0.000112534 0.0643682 0 0.000157259
4 5.77839 0.000286102 0 0.0431267 0 0.000105721
5 2.23163 -0.000328064 -0.000363827 0.0212415 0 0
6 11.4725 0 0 -0.459442 -0.460487 0.926078
7 0.615218 -0.993092 -0.8107 2.92227 0.454999 -0.331411
8 2.24752 0 0 0.0643998 0.0920016 -0.24525
9 1.11936 0 0 0.0124089 0.0391456 -1.16006
10 3.71348 -0.102642 0.102191 1.44559 1.26927 -0.122846
11 1.72615 0 0 -0.0132948 0.00454348 -1.35296
12 1.21114 0 0 -0.0138877 0.0108708 -1.50415
13 3.59919 -1.06012 0.0708878 1.59719 1.13552 0.0844616
14 1.66069 0 0 0.0206525 0.106434 -1.46129
15 1.167 0 0 0.140204 0.107864 -1.2636
16 2.18853 0.501038 0.0576591 1.58026 0.110062 0.0312637
17 1.29609 0 0 -0.0214549 0.0115007 -1.06235
18 1.62202 0.000713348 -0.000471115 -0.00756993 0.0044426 -1.4728
19 1.22241 0 0 -0.046983 -0.00376781 -1.43289
20 1.76707 1.27612 0.0366411 1.57845 0.182304 -0.021451
21 1.55588 0 0 -0.155246 -0.00355031 -0.857709
22 1.24273 0 0 -0.000505218 -0.000322885 -1.24825
23 0.784522 0 0 0.00822039 0.0140818 -0.754785
24 -1.93761 -1.56582 -10.5888 -0.000932534 0 -2.53187
25 6.02795 0 0 0.662293 0.615739 0.986977
26 11.7344 0 0 0.00140283 0 1.61132
27 8.81167 0 0 -0.0317474 0 0
28 5.77884 0 0 -0.0212708 0 0
29 2.23249 0 0 -0.0104767 0 0
30 11.4725 0 0 0.352292 -0.511201 -0.689696
31 0.615813 0.994373 -0.809165 -2.72226 0.463503 0.286233
32 2.24752 0 0 -0.083597 0.0959307 0.272288
33 1.11935 0 0 -0.401235 0.450129 0.842933
34 3.71349 0.10264 0.102191 -1.41386 1.26431 0.0816934
35 1.72615 0 0 0.000698443 0.000241781 1.34896
36 1.21112 0 0 0.0115403 0.0133366 1.31081
37 3.5992 1.06012 0.0708876 -1.68043 1.04215 -0.112109
38 1.66069 0 0 0.00620722 0.00200635 1.47997
39 1.16699 0 0 -0.0701393 0.164234 1.21657
40 2.18853 -0.50104 0.0576587 -1.57605 0.00117783 -0.0469346
41 1.29609 0 0 -0.0326374 -0.0616158 1.17811
42 1.62201 -0.000714302 -0.000471115 -0.00508028 -0.0033094 1.42626
43 1.22241 0 0 0.0247018 -0.0856984 1.42308
44 1.76707 -1.27612 0.0366409 -1.56655 0.103701 0.0275536
45 1.55588 0 0 0.103891 -0.075653 0.975564
46 1.24273 0 0 -0.00469954 -0.0380689 1.28397
47 0.784532 0 0 -0.0127429 -0.0577752 1.00048
48 0 0 0 0 0 0
49 6.52762 -19.3642 -3.92731 -0.147346 0.327764 0.139251
time 12
0 2.57209 1.18619 -8.6006 0 0 -0.814469
1 6.02794 0 0 -1.23405 0.831113 -0.58346
2 11.7344 0 0 -0.00140285 0 -1.92156
3 8.81138 -0.000450134 -0.00011158 0.110436 0 0.000157089
4 5.77839 0.000286102 0 0.0739921 0 0.000105706
5 2.23163 -0.000329971 -0.00036335 0.0364439 0 0
6 11.4725 0 0 -0.497618 -0.519486 0.961706
7 0.61522 -0.993091 -0.8107 2.92227 0.454999 -0.331411
8 2.24752 0 0 0.0643998 0.0920015 -0.24525
9 1.11936 0 0 0.0124089 0.0391455 -1.16006
10 3.71348 -0.102641 0.102191 1.44559 1.26927 -0.122846
11 1.72615 0 0 -0.0132949 0.00454359 -1.35296
12 1.21114 0 0 -0.0138878 0.0108709 -1.50415
13 3.59919 -1.06012 0.0708878 1.59719 1.13552 0.0844625
14 1.66069 0 0 0.0206525 0.106434 -1.46129
15 1.167 0 0 0.140204 0.107864 -1.2636
16 2.18852 0.50104 0.0576589 1.58026 0.110062 0.0312637
17 1.29609 0 0 -0.0214548 0.0115006 -1.06235
18 1.62202 0.000715256 -0.000471115 -0.00756986 0.00444268 -1.4728
19 1.22241 0 0 -0.0469831 -0.00376782 -1.43289
20 1.76707 1.27612 0.0366409 1.57845 0.182304 -0.021451
21 1.55588 0 0 -0.155245 -0.0035503 -0.857709
22 1.24274 0 0 -0.000505224 -0.00032289 -1.24825
23 0.784524 0 0 0.00822035 0.0140818 -0.754785
24 -1.93761 -1.56582 -10.5888 -0.000932534 0 -2.53187
25 6.02795 0 0 0.663708 0.616235 0.966615
26 11.7344 0 0 0.00140268 0 1.64141
27 8.81167 0 0 -0.0196358 0 0
28 5.77884 0 0 -0.013156 0 0
29 2.23249 0 0 -0.0064798 0 0
30 11.4725 0 0 0.319832 -0.457295 -0.67551
31 0.615812 0.994371 -0.809165 -2.72226 0.463503 0.286233
32 2.24752 0 0 -0.0835969 0.0959307 0.272288
33 1.11935 0 0 -0.401235 0.450129 0.842933
34 3.71348 0.102638 0.102191 -1.41386 1.26431 0.0816932
35 1.72615 0 0 0.000698436 0.000241689 1.34896
36 1.21112 0 0 0.0115403 0.0133366 1.31081
37 3.5992 1.06012 0.0708883 -1.68043 1.04215 -0.112109
38 1.66069 0 0 0.00620713 0.0020064 1.47997
39 1.16699 0 0 -0.0701394 0.164234 1.21657
40 2.18853 -0.501041 0.0576589 -1.57605 0.00117788 -0.0469346
41 1.29609 0 0 -0.0326375 -0.0616158 1.17811
42 1.62201 -0.000713348 -0.000471115 -0.00508027 -0.00330948 1.42626
43 1.22241 0 0 0.0247019 -0.0856984 1.42308
44 1.76707 -1.27612 0.0366411 -1.56655 0.103701 0.0275535
45 1.55587 0 0 0.103891 -0.075653 0.975564
46 1.24273 0 0 -0.00469954 -0.0380688 1.28397
47 0.784533 0 0 -0.0127429 -0.0577752 1.00048
48 0 0 0 0 0 0
49 6.51264 -19.0353 -3.8524 -0.154038 0.360892 0.173813
time 13
0 2.57209 1.18619 -8.6006 0 0 -0.814469
1 6.02794 0 0 -1.21711 0.831433 -0.590498
2 11.7344 0 0 -0.00140287 0 -1.93802
3 8.81138 -0.000448227 -0.000112534 0.160103 0 0.000156562
4 5.77839 0.00028801 0 0.107269 0 0.000105702
5 2.23163 -0.000328064 -0.00036335 0.0528341 0 0
6 11.4725 0 0 -0.545419 -0.567809 1.01451
7 0.615218 -0.993092 -0.8107 2.92227 0.454999 -0.331411
8 2.24752 0 0 0.0643998 0.0920016 -0.24525
9 1.11935 0 0 0.0124088 0.0391455 -1.16006
10 3.71348 -0.102642 0.102191 1.44559 1.26927 -0.122846
11 1.72615 0 0 -0.0132949 0.00454363 -1.35296
12 1.21114 0 0 -0.0138878 0.0108708 -1.50415
13 3.59919 -1.06012 0.0708878 1.59719 1.13552 0.0844625
14 1.66069 0 0 0.0206525 0.106434 -1.46129
15 1.167 0 0 0.140204 0.107864 -1.2636
16 2.18852 0.501039 0.0576591 1.58026 0.110062 0.0312636
17 1.29609 0 0 -0.0214548 0.0115007 -1.06235
18 1.62202 0.000713348 -0.000471115 -0.00756995 0.00444269 -1.4728
19 1.22241 0 0 -0.0469831 -0.00376776 -1.43289
20 1.76707 1.27612 0.0366409 1.57845 0.182304 -0.0214512
21 1.55588 0 0 -0.155246 -0.00355033 -0.857709
22 1.24273 0 0 -0.000505327 -0.000323001 -1.24825
23 0.784523 0 0 0.00822038 0.0140817 -0.754785
24 -1.93761 -1.56582 -10.5888 -0.000932534 0 -2.53187
25 6.02795 0 0 0.661083 0.621442 0.93993
26 11.7344 0 0 0.00140266 0 1.67801
27 8.81167 0 0 -0.00870425 0 0
28 5.77884 0 0 -0.00583181 0 0
29 2.23249 0 0 -0.00287242 0 0
30 11.4725 0 0 0.300837 -0.402133 -0.686311
31 0.615811 0.994371 -0.809165 -2.72226 0.463503 0.286233
32 2.24752 0 0 -0.0835969 0.0959309 0.272288
33 1.11936 0 0 -0.401235 0.450129 0.842934
34 3.71349 0.102638 0.102192 -1.41386 1.26431 0.0816936
35 1.72615 0 0 0.000698392 0.000241754 1.34896
36 1.21112 0 0 0.0115403 0.0133366 1.31081
37 3.5992 1.06012 0.0708883 -1.68043 1.04215 -0.112109
38 1.66069 0 0 0.00620716 0.0020064 1.47997
39 1.16699 0 0 -0.0701394 0.164234 1.21657
40 2.18853 -0.50104 0.0576599 -1.57605 0.00117793 -0.0469345
41 1.29609 0 0 -0.0326374 -0.0616158 1.17811
42 1.62202 -0.000714302 -0.000469208 -0.00508027 -0.00330952 1.42626
43 1.22241 0 0 0.0247019 -0.0856984 1.42308
44 1.76707 -1.27612 0.0366411 -1.56655 0.103701 0.0275537
45 1.55588 0 0 0.103891 -0.075653 0.975564
46 1.24273 0 0 -0.00469955 -0.0380689 1.28397
47 0.784531 0 0 -0.0127428 -0.0577752 1.00048
48 0 0 0 0 0 0
49 6.42929 -18.8381 -3.86904 -0.139494 0.392034 0.205953
time 14
0 2.57209 1.18619 -8.6006 0 0 -0.814469
1 6.02794 0 0 -1.201 0.836494 -0.593672
2 11.7344 0 0 -0.00140281 0 -1.95257
3 8.81138 -0.000450134 -0.00011158 0.200403 0 0.000156574
4 5.77839 0.000286102 0 0.13427 0 0.000105801
5 2.23163 -0.000329971 -0.000364304 0.0661329 0 0
6 11.4725 0 0 -0.588657 -0.602861 1.05909
7 0.61522 -0.993091 -0.8107 2.92227 0.454999 -0.331411
8 2.24752 0 0 0.0644 0.0920016 -0.24525
9 1.11936 0 0 0.012409 0.0391454 -1.16006
10 3.71348 -0.10264 0.102191 1.44559 1.26927 -0.122846
11 1.72615 0 0 -0.013295 0.00454355 -1.35296
12 1.21113 0 0 -0.0138878 0.0108709 -1.50415
13 3.59919 -1.06012 0.0708883 1.59719 1.13552 0.0844621
14 1.66068 0 0 0.0206525 0.106434 -1.46129
15 1.167 0 0 0.140204 0.107864 -1.2636
16 2.18852 0.501039 0.0576594 1.58026 0.110062 0.0312636
17 1.29609 0 0 -0.0214549 0.0115006 -1.06235
18 1.62202 0.000715256 -0.000471115 -0.00756997 0.00444248 -1.4728
19 1.22241 0 0 -0.0469829 -0.00376775 -1.43289
20 1.76707 1.27612 0.0366418 1.57845 0.182304 -0.021451
21 1.55588 0 0 -0.155245 -0.00355033 -0.857709
22 1.24274 0 0 -0.000505281 -0.000323005 -1.24825
23 0.784522 0 0 0.00822038 0.0140817 -0.754785
24 -1.93761 -1.56582 -10.5888 -0.000932534 0 -2.53187
25 6.02795 0 0 0.655598 0.628858 0.917295
26 11.7344 0 0 0.00140267 0 1.70837
27 8.81167 0 0 -0.001338 0 0
28 5.77884 0 0 -0.000896357 0 0
29 2.23249 0 0 -0.000441544 0 0
30 11.4725 0 0 0.286836 -0.361297 -0.69811
31 0.615813 0.994373 -0.809165 -2.72226 0.463503 0.286233
32 2.24752 0 0 -0.083597 0.0959307 0.272288
33 1.11936 0 0 -0.401235 0.450129 0.842934
34 3.71349 0.10264 0.102191 -1.41386 1.26431 0.0816935
35 1.72615 0 0 0.000698447 0.000241822 1.34896
36 1.21113 0 0 0.0115403 0.0133366 1.31081
37 3.5992 1.06012 0.0708885 -1.68043 1.04215 -0.112109
38 1.66069 0 0 0.0062072 0.00200636 1.47997
39 1.16699 0 0 -0.0701393 0.164234 1.21657
40 2.18853 -0.501038 0.0576591 -1.57605 0.00117796 -0.0469346
41 1.29609 0 0 -0.0326375 -0.0616158 1.17811
42 1.62202 -0.000713348 -0.000469208 -0.00508025 -0.00330955 1.42626
43 1.22241 0 0 0.0247019 -0.0856984 1.42308
44 1.76707 -1.27612 0.0366409 -1.56655 0.103701 0.0275536
45 1.55587 0 0 0.103891 -0.0756531 0.975564
46 1.24273 0 0 -0.00469955 -0.0380689 1.28397
47 0.784534 0 0 -0.0127429 -0.0577753 1.00048
48 0 0 0 0 0 0
49 6.3688 -18.6776 -3.95797 -0.123541 0.417021 0.231155
time 15
0 2.57209 1.18619 -8.6006 0 0 -0.814469
1 6.02794 0 0 -1.18822 0.852898 -0.586167
2 11.7344 0 0 -0.00140292 0 -1.97131
3 8.81138 -0.000448227 -0.000112057 0.2161 0 0.000156476
4 5.77839 0.000286102 0 0.144787 0 0.000105896
5 2.23163 -0.000328064 -0.00036335 0.071313 0 0
6 11.4725 0 0 -0.60828 -0.625644 1.06857
7 0.61522 -0.993092 -0.8107 2.92227 0.454999 -0.331411
8 2.24752 0 0 0.0643998 0.0920016 -0.24525
9 1.11936 0 0 0.012409 0.0391454 -1.16006
10 3.71348 -0.102642 0.102191 1.44559 1.26927 -0.122845
11 1.72615 0 0 -0.0132948 0.00454358 -1.35296
12 1.21114 0 0 -0.0138878 0.0108709 -1.50415
13 3.59919 -1.06012 0.0708878 1.59719 1.13552 0.0844624
14 1.66068 0 0 0.0206525 0.106434 -1.46129
15 1.167 0 0 0.140204 0.107864 -1.2636
16 2.18852 0.501038 0.0576589 1.58026 0.110062 0.0312635
17 1.29609 0 0 -0.0214549 0.0115007 -1.06235
18 1.62202 0.000713348 -0.000471115 -0.00757003 0.00444262 -1.4728
19 1.22241 0 0 -0.0469831 -0.00376772 -1.43289
20 1.76707 1.27612 0.0366409 1.57845 0.182304 -0.0214513
21 1.55588 0 0 -0.155246 -0.0035504 -0.857709
22 1.24273 0 0 -0.000505178 -0.00032304 -1.24825
23 0.784522 0 0 0.00822039 0.0140817 -0.754785
24 -1.93761 -1.56582 -10.5888 -0.000932534 0 -2.53187
25 6.02795 0 0 0.647088 0.637002 0.908893
26 11.7344 0 0 0.0014027 0 1.72199
27 8.81167 0 0 -0.00221235 0 0
28 5.77884 0 0 -0.00148227 0 0
29 2.23249 0 0 -0.000730027 0 0
30 11.4725 0 0 0.273358 -0.350233 -0.689789
31 0.615812 0.994371 -0.809165 -2.72226 0.463503 0.286233
32 2.24752 0 0 -0.0835969 0.0959306 0.272288
33 1.11936 0 0 -0.401236 0.450129 0.842933
34 3.71349 0.10264 0.102191 -1.41386 1.26431 0.0816939
35 1.72615 0 0 0.000698424 0.000241769 1.34896
36 1.21112 0 0 0.0115403 0.0133366 1.31081
37 3.5992 1.06012 0.0708878 -1.68043 1.04215 -0.112109
38 1.66069 0 0 0.00620719 0.00200644 1.47997
39 1.16699 0 0 -0.0701394 0.164234 1.21657
40 2.18853 -0.50104 0.0576591 -1.57605 0.00117786 -0.0469346
41 1.29609 0 0 -0.0326375 -0.0616157 1.17811
42 1.62201 -0.000714302 -0.000469208 -0.00508028 -0.00330941 1.42626
43 1.2224 0 0 0.0247018 -0.0856984 1.42308
44 1.76707 -1.27612 0.0366406 -1.56655 0.103701 0.0275536
45 1.55588 0 0 0.103891 -0.075653 0.975564
46 1.24273 0 0 -0.00469956 -0.0380689 1.28397
47 0.784533 0 0 -0.0127429 -0.0577751 1.00048
48 0 0 0 0 0 0
49 6.42238 -18.459 -4.09991 -0.126005 0.431689 0.244903
time 16
0 2.57209 1.18619 -8.6006 0 0 -0.814469
1 6.02794 0 0 -1.17404 0.884633 -0.565547
2 11.7344 0 0 -0.00140285 0 -1.99666
3 8.81138 -0.000450134 -0.00011158 0.20671 0 0.000157106
4 5.77839 0.000284195 0 0.138496 0 0.000106226
5 2.23163 -0.000328064 -0.00036335 0.0682144 0 0
6 11.4725 0 0 -0.606103 -0.630253 1.05362
7 0.61522 -0.993092 -0.810699 2.92227 0.454999 -0.331411
8 2.24752 0 0 0.0643998 0.0920016 -0.245251
9 1.11936 0 0 0.012409 0.0391454 -1.16006
10 3.71348 -0.102642 0.102191 1.44559 1.26927 -0.122846
11 1.72615 0 0 -0.013295 0.00454359 -1.35296
12 1.21114 0 0 -0.0138878 0.0108708 -1.50415
13 3.59919 -1.06012 0.0708878 1.59719 1.13552 0.0844622
14 1.66069 0 0 0.0206527 0.106434 -1.46129
15 1.167 0 0 0.140204 0.107864 -1.2636
16 2.18853 0.501039 0.0576594 1.58026 0.110062 0.0312637
17 1.29609 0 0 -0.021455 0.0115007 -1.06235
18 1.62202 0.000713348 -0.000470161 -0.00757006 0.0044424 -1.4728
19 1.22241 0 0 -0.0469829 -0.00376801 -1.43289
20 1.76707 1.27612 0.0366409 1.57845 0.182304 -0.021451
21 1.55588 0 0 -0.155246 -0.00355026 -0.857709
22 1.24274 0 0 -0.00050528 -0.000323041 -1.24825
23 0.784523 0 0 0.00822044 0.0140816 -0.754785
24 -1.93761 -1.56582 -10.5888 -0.000932534 0 -2.53187
25 6.02795 0 0 0.628344 0.652281 0.909056
26 11.7344 0 0 0.00140265 0 1.72959
27 8.81167 0 0 -0.0154189 0 0
28 5.77884 0 0 -0.0103306 0 0
29 2.23249 0 0 -0.00508832 0 0
30 11.4725 0 0 0.268586 -0.371827 -0.679838
31 0.615813 0.994371 -0.809165 -2.72226 0.463503 0.286233
32 2.24752 0 0 -0.0835968 0.0959306 0.272288
33 1.11936 0 0 -0.401235 0.450129 0.842934
34 3.71349 0.102638 0.102191 -1.41386 1.26431 0.0816935
35 1.72615 0 0 0.000698436 0.000241761 1.34896
36 1.21112 0 0 0.0115402 0.0133366 1.31081
37 3.5992 1.06012 0.0708883 -1.68043 1.04215 -0.112109
38 1.66069 0 0 0.0062071 0.00200634 1.47997
39 1.16699 0 0 -0.0701394 0.164234 1.21657
40 2.18853 -0.501041 0.0576591 -1.57605 0.00117802 -0.0469345
41 1.29609 0 0 -0.0326374 -0.0616158 1.17811
42 1.62202 -0.000714302 -0.000471115 -0.00508023 -0.00330946 1.42626
43 1.2224 0 0 0.0247019 -0.0856983 1.42308
44 1.76707 -1.27612 0.0366409 -1.56655 0.103701 0.0275537
45 1.55587 0 0 0.103891 -0.075653 0.975564
46 1.24273 0 0 -0.00469953 -0.0380689 1.28397
47 0.784531 0 0 -0.0127429 -0.0577752 1.00048
48 0 0 0 0 0 0
49 6.55253 -18.2138 -4.36868 -0.132488 0.43299 0.246913
time 17
0 2.57209 1.18619 -8.6006 0 0 -0.814469
1 6.02794 0 0 -1.15212 0.928226 -0.534444
2 11.7344 0 0 -0.0014029 0 -2.02491
3 8.81138 -0.000450134 -0.000112057 0.183613 0 0.000157005
4 5.77839 0.000286102 0 0.123021 0 0.000106031
5 2.23164 -0.000328064 -0.000363827 0.0605923 0 0
6 11.4725 0 0 -0.598882 -0.614153 1.04049
7 0.615218 -0.993091 -0.8107 2.92227 0.454999 -0.33141
8 2.24752 0 0 0.0643998 0.0920016 -0.24525
9 1.11936 0 0 0.0124089 0.0391454 -1.16006
10 3.71348 -0.102641 0.102191 1.44559 1.26927 -0.122846
11 1.72615 0 0 -0.0132949 0.00454355 -1.35296
12 1.21113 0 0 -0.0138877 0.0108709 -1.50415
13 3.59919 -1.06012 0.0708878 1.59719 1.13552 0.0844621
14 1.66069 0 0 0.0206524 0.106434 -1.46129
15 1.167 0 0 0.140204 0.107864 -1.2636
16 2.18852 0.50104 0.0576594 1.58026 0.110062 0.0312637
17 1.29609 0 0 -0.0214549 0.0115007 -1.06235
18 1.62202 0.000713348 -0.000471115 -0.00757001 0.00444248 -1.4728
19 1.22241 0 0 -0.0469829 -0.00376781 -1.43289
20 1.76707 1.27612 0.0366411 1.57845 0.182304 -0.0214511
21 1.55588 0 0 -0.155246 -0.00355034 -0.857709
22 1.24273 0 0 -0.000505181 -0.000323042 -1.24825
23 0.784523 0 0 0.00822034 0.0140818 -0.754785
24 -1.93761 -1.56582 -10.5888 -0.000932534 0 -2.53187
25 6.02795 0 0 0.594999 0.678481 0.905409
26 11.7344 0 0 0.00140268 0 1.74476
27 8.81167 0 0 -0.0394363 0 0
28 5.77884 0 0 -0.0264222 0 0
29 2.23249 0 0 -0.0130139 0 0
30 11.4725 0 0 0.280207 -0.414421 -0.693547
31 0.615813 0.994373 -0.809165 -2.72226 0.463503 0.286233
32 2.24752 0 0 -0.0835969 0.0959307 0.272288
33 1.11936 0 0 -0.401236 0.450129 0.842934
34 3.71349 0.102638 0.102191 -1.41386 1.26431 0.0816932
35 1.72615 0 0 0.000698389 0.000241809 1.34896
36 1.21112 0 0 0.0115402 0.0133366 1.31081
37 3.5992 1.06012 0.0708878 -1.68043 1.04215 -0.112109
38 1.66069 0 0 0.00620712 0.00200647 1.47997
39 1.16699 0 0 -0.0701393 0.164234 1.21657
40 2.18853 -0.50104 0.0576589 -1.57605 0.00117783 -0.0469346
41 1.29609 0 0 -0.0326375 -0.0616158 1.17811
42 1.62201 -0.000711441 -0.000469208 -0.00508027 -0.00330947 1.42626
43 1.22241 0 0 0.0247018 -0.0856984 1.42308
44 1.76707 -1.27612 0.0366406 -1.56655 0.103701 0.0275537
45 1.55588 0 0 0.103891 -0.075653 0.975564
46 1.24273 0 0 -0.00469946 -0.0380689 1.28397
47 0.78453 0 0 -0.0127429 -0.0577752 1.00048
48 0 0 0 0 0 0
49 6.66565 -18.0369 -4.80599 -0.120571 0.423615 0.241104
time 18
0 2.57209 1.18619 -8.6006 0 0 -0.814469
1 6.02794 0 0 -1.12389 0.977318 -0.494723
2 11.7344 0 0 -0.00140283 0 -2.0497
3 8.81138 -0.000448227 -0.000112534 0.147893 0 0.000156752
4 5.77839 0.000286102 0 0.099088 0 0.00010576
5 2.23163 -0.000328064 -0.000365257 0.0488047 0 0
6 11.4725 0 0 -0.587634 -0.584103 1.02369
7 0.615219 -0.993092 -0.8107 2.92227 0.454999 -0.33141
8 2.24752 0 0 0.0643999 0.0920016 -0.24525
9 1.11935 0 0 0.0124089 0.0391453 -1.16006
10 3.71348 -0.102641 0.102191 1.44559 1.26927 -0.122846
11 1.72615 0 0 -0.0132949 0.00454343 -1.35296
12 1.21114 0 0 -0.0138875 0.0108708 -1.50415
13 3.59919 -1.06012 0.0708878 1.59719 1.13552 0.0844623
14 1.66069 0 0 0.0206525 0.106434 -1.46129
15 1.167 0 0 0.140204 0.107864 -1.2636
16 2.18853 0.501039 0.0576589 1.58026 0.110062 0.0312636
17 1.29609 0 0 -0.0214549 0.0115007 -1.06235
18 1.62202 0.000717163 -0.000472069 -0.00756994 0.00444248 -1.4728
19 1.22241 0 0 -0.0469829 -0.00376786 -1.43289
20 1.76707 1.27612 0.0366406 1.57845 0.182304 -0.0214509
21 1.55588 0 0 -0.155246 -0.0035503 -0.857709
22 1.24273 0 0 -0.00050522 -0.000323145 -1.24825
23 0.784523 0 0 0.00822039 0.0140817 -0.754785
24 -1.93761 -1.56582 -10.5888 -0.000932534 0 -2.53187
25 6.02795 0 0 0.553121 0.70911 0.90052
26 11.7344 0 0 0.00140286 0 1.75893
27 8.81167 0 0 -0.0698867 0 0
28 5.77884 0 0 -0.0468241 0 0
29 2.23249 0 0 -0.0230627 0 0
30 11.4725 0 0 0.30448 -0.46999 -0.720075
31 0.615812 0.994373 -0.809165 -2.72226 0.463503 0.286233
32 2.24752 0 0 -0.0835968 0.0959307 0.272288
33 1.11936 0 0 -0.401235 0.450129 0.842933
34 3.71349 0.10264 0.102191 -1.41386 1.26431 0.0816934
35 1.72615 0 0 0.000698456 0.000241679 1.34896
36 1.21112 0 0 0.0115403 0.0133366 1.31081
37 3.5992 1.06012 0.0708885 -1.68043 1.04215 -0.112109
38 1.66069 0 0 0.0062072 0.0020065 1.47997
39 1.16699 0 0 -0.0701393 0.164234 1.21657
40 2.18853 -0.501038 0.0576591 -1.57605 0.00117794 -0.0469346
41 1.29609 0 0 -0.0326375 -0.0616158 1.17811
42 1.62202 -0.000710487 -0.000471115 -0.00508028 -0.00330952 1.42626
43 1.22241 0 0 0.024702 -0.0856984 1.42308
44 1.76707 -1.27612 0.0366411 -1.56655 0.103701 0.0275536
45 1.55588 0 0 0.103891 -0.075653 0.975564
46 1.24273 0 0 -0.00469949 -0.0380689 1.28397
47 0.78453 0 0 -0.0127429 -0.0577752 1.00048
48 0 0 0 0 0 0
49 6.76886 -17.9285 -5.34447 -0.0980393 0.407997 0.229267
time 19
0 2.57209 1.18619 -8.6006 0 0 -0.814469
1 6.02794 0 0 -1.09222 1.02578 -0.449616
2 11.7344 0 0 -0.0014028 0 -2.06657
3 8.81138 -0.000450134 -0.000112057 0.102674 0 0.000156944
4 5.77839 0.000286102 0 0.0687915 0 0.000105591
5 2.23163 -0.000328064 -0.00036478 0.0338825 0 0
6 11.4725 0 0 -0.573429 -0.546723 0.999531
7 0.615219 -0.993091 -0.8107 2.92227 0.454999 -0.331411
8 2.24752 0 0 0.0643998 0.0920015 -0.24525
9 1.11936 0 0 0.0124089 0.0391453 -1.16006
10 3.71348 -0.10264 0.102191 1.44559 1.26927 -0.122845
11 1.72615 0 0 -0.0132949 0.0045436 -1.35296
12 1.21114 0 0 -0.0138878 0.0108709 -1.50415
13 3.59919 -1.06012 0.070888 1.59719 1.13552 0.0844623
14 1.66069 0 0 0.0206525 0.106434 -1.46129
15 1.167 0 0 0.140204 0.107864 -1.2636
16 2.18852 0.501039 0.0576589 1.58026 0.110062 0.0312635
17 1.29609 0 0 -0.0214549 0.0115007 -1.06235
18 1.62202 0.000715256 -0.000471115 -0.00756994 0.00444251 -1.4728
19 1.22241 0 0 -0.0469829 -0.00376774 -1.43289
20 1.76707 1.27612 0.0366409 1.57845 0.182304 -0.0214511
21 1.55587 0 0 -0.155246 -0.00355033 -0.857709
22 1.24273 0 0 -0.000505147 -0.000323018 -1.24825
23 0.784522 0 0 0.00822039 0.0140818 -0.754785
24 -1.93761 -1.56582 -10.5888 -0.000932534 0 -2.53187
25 6.02795 0 0 0.510087 0.738336 0.897187
26 11.7344 0 0 0.00140272 0 1.76514
27 8.81167 0 0 -0.101684 0 0
28 5.77884 0 0 -0.0681282 0 0
29 2.23249 0 0 -0.0335558 0 0
30 11.4725 0 0 0.336543 -0.529702 -0.749366
31 0.615812 0.994371 -0.809165 -2.72226 0.463503 0.286233
32 2.24752 0 0 -0.0835969 0.0959306 0.272288
33 1.11936 0 0 -0.401235 0.450129 0.842934
34 3.71349 0.10264 0.102191 -1.41386 1.26431 0.081694
35 1.72615 0 0 0.000698463 0.000241758 1.34896
36 1.21112 0 0 0.0115404 0.0133366 1.31081
37 3.5992 1.06012 0.0708885 -1.68043 1.04215 -0.112109
38 1.66069 0 0 0.00620723 0.00200635 1.47997
39 1.16699 0 0 -0.0701393 0.164234 1.21657
40 2.18853 -0.50104 0.0576594 -1.57605 0.00117801 -0.0469345
41 1.29609 0 0 -0.0326375 -0.0616158 1.17811
42 1.62201 -0.000714302 -0.000469208 -0.00508022 -0.00330947 1.42626
43 1.2224 0 0 0.0247019 -0.0856984 1.42308
44 1.76707 -1.27612 0.0366416 -1.56655 0.103701 0.0275536
45 1.55588 0 0 0.103891 -0.0756531 0.975564
46 1.24273 0 0 -0.00469952 -0.0380689 1.28397
47 0.784532 0 0 -0.0127429 -0.0577752 1.00048
48 0 0 0 0 0 0
49 6.86925 -17.8885 -5.91673 -0.0726813 0.39057 0.21319
time 20
0 2.57209 1.18619 -8.6006 0 0 -0.814469
1 6.02794 0 0 -1.06255 1.06766 -0.405234
2 11.7344 0 0 -0.00140286 0 -2.07209
3 8.81138 -0.000450134 -0.00011301 0.0515144 0 0.000156607
4 5.77839 0.000286102 0 0.0345147 0 0.000105068
5 2.23163 -0.000328064 -0.00036478 0.0169997 0 0
6 11.4725 0 0 -0.558322 -0.508448 0.965806
7 0.615218 -0.993091 -0.8107 2.92227 0.454999 -0.331411
8 2.24752 0 0 0.0643998 0.0920016 -0.24525
9 1.11936 0 0 0.0124089 0.0391456 -1.16006
10 3.71348 -0.10264 0.102191 1.44559 1.26927 -0.122846
11 1.72615 0 0 -0.013295 0.00454367 -1.35296
12 1.21114 0 0 -0.0138878 0.0108709 -1.50415
13 3.59919 -1.06012 0.070888 1.59719 1.13552 0.0844622
14 1.66069 0 0 0.0206526 0.106434 -1.46129
15 1.167 0 0 0.140204 0.107864 -1.2636
16 2.18852 0.50104 0.0576596 1.58026 0.110062 0.0312636
17 1.29609 0 0 -0.0214549 0.0115007 -1.06235
18 1.62202 0.000713348 -0.000472069 -0.00757005 0.0044425 -1.4728
19 1.22241 0 0 -0.046983 -0.00376784 -1.43289
20 1.76707 1.27612 0.0366409 1.57845 0.182304 -0.0214512
21 1.55588 0 0 -0.155246 -0.00355036 -0.857709
22 1.24273 0 0 -0.000505188 -0.000323048 -1.24825
23 0.784523 0 0 0.00822042 0.0140817 -0.754785
24 -1.93761 -1.56582 -10.5888 -0.000932534 0 -2.53187
25 6.02795 0 0 0.473908 0.76165 0.897535
26 11.7344 0 0 0.00140273 0 1.75915
27 8.81167 0 0 -0.128974 0 0
28 5.77884 0 0 -0.0864123 0 0
29 2.23249 0 0 -0.0425612 0 0
30 11.4725 0 0 0.368164 -0.584986 -0.770993
31 0.615814 0.994371 -0.809165 -2.72226 0.463503 0.286233
32 2.24752 0 0 -0.0835969 0.0959307 0.272288
33 1.11936 0 0 -0.401235 0.450129 0.842934
34 3.71348 0.102638 0.102191 -1.41386 1.26431 0.0816936
35 1.72615 0 0 0.000698409 0.000241715 1.34896
36 1.21112 0 0 0.0115403 0.0133366 1.31081
37 3.5992 1.06012 0.070888 -1.68043 1.04215 -0.112109
38 1.66069 0 0 0.00620716 0.00200642 1.47997
39 1.16699 0 0 -0.0701394 0.164234 1.21657
40 2.18853 -0.50104 0.0576591 -1.57605 0.00117788 -0.0469345
41 1.29609 0 0 -0.0326374 -0.0616158 1.17811
42 1.62201 -0.000712395 -0.000469208 -0.00508024 -0.00330944 1.42626
43 1.22241 0 0 0.0247019 -0.0856984 1.42308
44 1.76707 -1.27612 0.0366406 -1.56655 0.103701 0.0275537
45 1.55588 0 0 0.103891 -0.075653 0.975564
46 1.24273 0 0 -0.00469957 -0.0380689 1.28397
47 0.784532 0 0 -0.0127429 -0.0577752 1.00048
48 0 0 0 0 0 0
49 6.97393 -17.917 -6.4554 -0.0522839 0.37577 0.194663
time 21
0 2.57209 1.18619 -8.6006 0 0 -0.814469
1 6.02794 0 0 -1.04281 1.09764 -0.3707
2 11.7344 0 0 -0.0014029 0 -2.0641
3 8.81138 -0.000450134 -0.00011158 -0.00280813 0 0.000156551
4 5.77839 0.000284195 0 -0.00188154 0 0.000104782
5 2.23163 -0.000329971 -0.00036335 -0.000926674 0 0
6 11.4725 0 0 -0.545663 -0.47566 0.921476
7 0.615221 -0.993091 -0.8107 2.92227 0.454999 -0.331411
8 2.24752 0 0 0.0643999 0.0920016 -0.24525
9 1.11936 0 0 0.0124091 0.0391454 -1.16006
10 3.71348 -0.102641 0.10219 1.44559 1.26927 -0.122845
11 1.72615 0 0 -0.0132949 0.00454365 -1.35296
12 1.21114 0 0 -0.0138878 0.0108708 -1.50415
13 3.59919 -1.06012 0.0708878 1.59719 1.13552 0.084462
14 1.66068 0 0 0.0206524 0.106434 -1.46129
15 1.16699 0 0 0.140204 0.107864 -1.2636
16 2.18852 0.50104 0.0576584 1.58026 0.110062 0.0312636
17 1.29609 0 0 -0.0214549 0.0115008 -1.06235
18 1.62202 0.000715256 -0.000471115 -0.00757002 0.00444267 -1.4728
19 1.22241 0 0 -0.046983 -0.00376794 -1.43289
20 1.76707 1.27612 0.0366409 1.57845 0.182304 -0.0214512
21 1.55588 0 0 -0.155246 -0.00355037 -0.857709
22 1.24274 0 0 -0.000505357 -0.000322986 -1.24825
23 0.784523 0 0 0.00822034 0.0140818 -0.754785
24 -1.93761 -1.56582 -10.5888 -0.000932534 0 -2.53187
25 6.02795 0 0 0.452019 0.775682 0.902456
26 11.7344 0 0 0.00140271 0 1.73912
27 8.81167 0 0 -0.145837 0 0
28 5.77884 0 0 -0.0977106 0 0
29 2.23249 0 0 -0.0481262 0 0
30 11.4725 0 0 0.387005 -0.628493 -0.773005
31 0.615812 0.994371 -0.809165 -2.72226 0.463503 0.286233
32 2.24752 0 0 -0.0835972 0.0959308 0.272288
33 1.11936 0 0 -0.401235 0.450129 0.842933
34 3.71348 0.10264 0.102191 -1.41386 1.26431 0.0816933
35 1.72615 0 0 0.000698453 0.000241747 1.34896
36 1.21112 0 0 0.0115402 0.0133365 1.31081
37 3.5992 1.06012 0.070888 -1.68043 1.04215 -0.112109
38 1.66069 0 0 0.00620726 0.00200643 1.47997
39 1.16699 0 0 -0.0701393 0.164234 1.21657
40 2.18853 -0.50104 0.0576594 -1.57605 0.0011781 -0.0469346
41 1.29609 0 0 -0.0326375 -0.0616157 1.17811
42 1.62202 -0.000713348 -0.000469208 -0.00508032 -0.0033095 1.42626
43 1.22241 0 0 0.0247019 -0.0856985 1.42308
44 1.76707 -1.27612 0.0366409 -1.56655 0.103701 0.0275535
45 1.55587 0 0 0.103891 -0.075653 0.975564
46 1.24273 0 0 -0.00469954 -0.0380689 1.28397
47 0.784532 0 0 -0.0127429 -0.0577752 1.00048
48 0 0 0 0 0 0
49 7.09 -18.0141 -6.89309 -0.0446344 0.368031 0.175475
time 22
0 2.57209 1.18619 -8.6006 0 0 -0.814469
1 6.02794 0 0 -1.04172 1.1109 -0.35639
2 11.7344 0 0 -0.00140274 0 -2.04122
3 8.81138 -0.000450134 -0.000111103 -0.0594631 0 0.000156666
4 5.77839 0.000284195 0 -0.0398402 0 0.000104664
5 2.23163 -0.000329971 -0.000363827 -0.0196228 0 0
6 11.4725 0 0 -0.53987 -0.455149 0.866034
7 0.615219 -0.993091 -0.810699 2.92227 0.454999 -0.33141
8 2.24752 0 0 0.0643997 0.0920015 -0.24525
9 1.11936 0 0 0.0124088 0.0391454 -1.16006
10 3.71348 -0.102641 0.102191 1.44559 1.26927 -0.122846
11 1.72615 0 0 -0.0132949 0.00454354 -1.35296
12 1.21114 0 0 -0.0138878 0.0108709 -1.50415
13 3.59919 -1.06012 0.0708885 1.59719 1.13552 0.084462
14 1.66069 0 0 0.0206525 0.106434 -1.46129
15 1.167 0 0 0.140204 0.107864 -1.2636
16 2.18852 0.50104 0.0576596 1.58026 0.110062 0.0312638
17 1.29609 0 0 -0.0214549 0.0115008 -1.06235
18 1.62202 0.000715256 -0.000471115 -0.00756993 0.00444245 -1.4728
19 1.22241 0 0 -0.046983 -0.0037679 -1.43289
20 1.76707 1.27612 0.0366411 1.57845 0.182304 -0.021451
21 1.55587 0 0 -0.155245 -0.00355032 -0.857709
22 1.24274 0 0 -0.000505254 -0.000323096 -1.24825
23 0.784525 0 0 0.00822034 0.0140818 -0.754785
24 -1.93761 -1.56582 -10.5888 -0.000932534 0 -2.53187
25 6.02795 0 0 0.450458 0.77748 0.911618
26 11.7344 0 0 0.0014028 0 1.70469
27 8.81167 0 0 -0.147873 0 0
28 5.77884 0 0 -0.0990752 0 0
29 2.23249 0 0 -0.0487982 0 0
30 11.4725 0 0 0.378067 -0.653678 -0.742099
31 0.615814 0.994373 -0.809165 -2.72226 0.463503 0.286233
32 2.24752 0 0 -0.0835967 0.0959306 0.272288
33 1.11936 0 0 -0.401235 0.450129 0.842933
34 3.71349 0.102638 0.102191 -1.41386 1.26431 0.0816932
35 1.72615 0 0 0.000698382 0.000241753 1.34896
36 1.21112 0 0 0.0115402 0.0133366 1.31081
37 3.5992 1.06012 0.070888 -1.68043 1.04215 -0.112109
38 1.66069 0 0 0.00620719 0.00200641 1.47997
39 1.16699 0 0 -0.0701393 0.164234 1.21657
40 2.18853 -0.50104 0.0576591 -1.57605 0.00117803 -0.0469346
41 1.29609 0 0 -0.0326375 -0.0616157 1.17811
42 1.62201 -0.000712395 -0.000471115 -0.00508023 -0.00330948 1.42626
43 1.22241 0 0 0.0247019 -0.0856984 1.42308
44 1.76707 -1.27612 0.0366411 -1.56655 0.103701 0.0275536
45 1.55588 0 0 0.103891 -0.0756531 0.975564
46 1.24273 0 0 -0.00469952 -0.0380689 1.28397
47 0.784533 0 0 -0.0127429 -0.0577752 1.00048
48 0 0 0 0 0 0
49 7.22456 -18.1797 -7.16243 -0.0575199 0.371786 0.157416
time 23
0 2.57209 1.18619 -8.6006 0 0 -0.814469
1 6.02794 0 0 -1.06399 1.10329 -0.368899
2 11.7344 0 0 -0.00140289 0 -1.9949
3 8.81138 -0.000450134 -0.00011301 -0.136135 0 0.000157404
4 5.77839 0.000284195 0 -0.0912104 0 0.00010488
5 2.23163 -0.000329971 -0.00036478 -0.0449246 0 0
6 11.4725 0 0 -0.55475 -0.446615 0.797921
7 0.615218 -0.993092 -0.810699 2.92227 0.454999 -0.331411
8 2.24752 0 0 0.0643998 0.0920015 -0.24525
9 1.11936 0 0 0.0124089 0.0391454 -1.16006
10 3.71348 -0.102641 0.102191 1.44559 1.26927 -0.122846
11 1.72615 0 0 -0.0132948 0.00454353 -1.35296
12 1.21114 0 0 -0.0138877 0.0108708 -1.50415
13 3.59919 -1.06012 0.0708885 1.59719 1.13552 0.0844619
14 1.66069 0 0 0.0206525 0.106434 -1.46129
15 1.167 0 0 0.140204 0.107864 -1.2636
16 2.18852 0.501038 0.0576591 1.58026 0.110062 0.0312637
17 1.29609 0 0 -0.0214549 0.0115007 -1.06235
18 1.62202 0.000713348 -0.000470161 -0.00756995 0.00444248 -1.4728
19 1.22241 0 0 -0.0469829 -0.00376788 -1.43289
20 1.76707 1.27612 0.0366411 1.57845 0.182304 -0.021451
21 1.55587 0 0 -0.155246 -0.00355041 -0.857709
22 1.24274 0 0 -0.00050513 -0.000322896 -1.24825
23 0.784521 0 0 0.00822036 0.0140818 -0.754785
24 -1.93761 -1.56582 -10.5888 -0.000932534 0 -2.53187
25 6.02795 0 0 0.47164 0.76486 0.92168
26 11.7344 0 0 0.00140278 0 1.65377
27 8.81167 0 0 -0.142103 0 0
28 5.77884 0 0 -0.0952089 0 0
29 2.23249 0 0 -0.0468939 0 0
30 11.4725 0 0 0.327262 -0.65305 -0.673473
31 0.615812 0.994371 -0.809165 -2.72226 0.463503 0.286233
32 2.24752 0 0 -0.083597 0.0959306 0.272288
33 1.11936 0 0 -0.401235 0.450129 0.842933
34 3.71349 0.102638 0.102191 -1.41386 1.26431 0.0816933
35 1.72615 0 0 0.000698495 0.000241751 1.34896
36 1.21112 0 0 0.0115402 0.0133366 1.31081
37 3.5992 1.06012 0.0708878 -1.68043 1.04215 -0.112109
38 1.66069 0 0 0.00620721 0.00200639 1.47997
39 1.16699 0 0 -0.0701393 0.164234 1.21657
40 2.18853 -0.501041 0.0576594 -1.57605 0.00117799 -0.0469346
41 1.29609 0 0 -0.0326375 -0.0616159 1.17811
42 1.62201 -0.000713348 -0.000469208 -0.00508022 -0.00330946 1.42626
43 1.22241 0 0 0.024702 -0.0856984 1.42308
44 1.76707 -1.27612 0.0366411 -1.56655 0.103701 0.0275535
45 1.55588 0 0 0.103891 -0.075653 0.975564
46 1.24273 0 0 -0.00469951 -0.0380689 1.28397
47 0.784532 0 0 -0.0127429 -0.0577752 1.00048
48 0 0 0 0 0 0
49 7.39915 -18.4958 -7.28463 -0.0918622 0.398229 0.137081
time 24
0 2.57209 1.18619 -8.6006 0 0 -0.814469
1 6.02794 0 0 -1.10344 1.07683 -0.401281
2 11.7344 0 0 -0.00140298 0 -1.9248
3 8.81138 -0.000452042 -0.000112534 -0.235498 0 0.000156453
4 5.77839 0.000284195 0 -0.157784 0 0.000103793
5 2.23164 -0.000329971 -0.00036335 -0.0777143 0 0
6 11.4725 0 0 -0.588258 -0.445464 0.721238
7 0.615218 -0.993091 -0.8107 2.92227 0.454999 -0.331411
8 2.24752 0 0 0.0643999 0.0920016 -0.245251
9 1.11936 0 0 0.0124088 0.0391452 -1.16006
10 3.71348 -0.102641 0.102191 1.44559 1.26927 -0.122847
11 1.72615 0 0 -0.0132949 0.00454348 -1.35296
12 1.21113 0 0 -0.0138877 0.0108709 -1.50415
13 3.59919 -1.06012 0.0708876 1.59719 1.13552 0.0844624
14 1.66069 0 0 0.0206526 0.106434 -1.46129
15 1.167 0 0 0.140204 0.107864 -1.2636
16 2.18853 0.501039 0.0576587 1.58026 0.110062 0.0312635
17 1.29609 0 0 -0.021455 0.0115007 -1.06235
18 1.62202 0.000713348 -0.000471115 -0.00756992 0.0044424 -1.4728
19 1.22241 0 0 -0.0469828 -0.00376782 -1.43289
20 1.76707 1.27612 0.0366406 1.57845 0.182304 -0.0214511
21 1.55587 0 0 -0.155246 -0.00355026 -0.857709
22 1.24273 0 0 -0.000505164 -0.000323104 -1.24825
23 0.784525 0 0 0.00822037 0.0140817 -0.754785
24 -1.93761 -1.56582 -10.5888 -0.000932534 0 -2.53187
25 6.02795 0 0 0.51104 0.739283 0.935104
26 11.7344 0 0 0.00140269 0 1.58449
27 8.81167 0 0 -0.135618 0 0
28 5.77884 0 0 -0.0908639 0 0
29 2.23249 0 0 -0.0447538 0 0
30 11.4725 0 0 0.248387 -0.629577 -0.579615
31 0.615813 0.994371 -0.809165 -2.72226 0.463503 0.286233
32 2.24752 0 0 -0.083597 0.0959307 0.272288
33 1.11936 0 0 -0.401235 0.450129 0.842934
34 3.71349 0.102638 0.102191 -1.41386 1.26431 0.0816935
35 1.72615 0 0 0.000698458 0.000241692 1.34896
36 1.21112 0 0 0.0115403 0.0133366 1.31081
37 3.5992 1.06012 0.0708876 -1.68043 1.04215 -0.112109
38 1.66069 0 0 0.00620716 0.00200645 1.47997
39 1.16699 0 0 -0.0701393 0.164234 1.21657
40 2.18853 -0.50104 0.0576587 -1.57605 0.00117795 -0.0469346
41 1.29609 0 0 -0.0326375 -0.0616158 1.17811
42 1.62201 -0.000716209 -0.000469208 -0.00508029 -0.00330946 1.42626
43 1.22241 0 0 0.0247019 -0.0856983 1.42308
44 1.76707 -1.27612 0.0366411 -1.56655 0.103701 0.0275535
45 1.55587 0 0 0.103891 -0.0756531 0.975564
46 1.24273 0 0 -0.00469951 -0.0380688 1.28397
47 0.784532 0 0 -0.0127429 -0.0577752 1.00048
48 0 0 0 0 0 0
49 7.61688 -18.9973 -7.32654 -0.139874 0.442925 0.112682
time 25
0 2.57209 1.18619 -8.6006 0 0 -0.814469
1 6.02794 0 0 -1.15133 1.03565 -0.442144
2 11.7344 0 0 -0.00140284 0 -1.8384
3 8.81138 -0.000450134 -0.00011301 -0.335237 0 0.00015673
4 5.77839 0.000286102 0 -0.224609 0 0.000103591
5 2.23163 -0.000328064 -0.000364304 -0.110628 0 0
6 11.4725 0 0 -0.620353 -0.450605 0.63931
7 0.615217 -0.993092 -0.810699 2.92227 0.454999 -0.33141
8 2.24752 0 0 0.0643999 0.0920015 -0.24525
9 1.11935 0 0 0.0124089 0.0391454 -1.16006
10 3.71348 -0.102642 0.10219 1.44559 1.26927 -0.122845
11 1.72615 0 0 -0.013295 0.00454353 -1.35296
12 1.21114 0 0 -0.0138877 0.0108708 -1.50415
13 3.59919 -1.06012 0.070888 1.59719 1.13552 0.084462
14 1.66069 0 0 0.0206524 0.106434 -1.46129
15 1.16699 0 0 0.140204 0.107864 -1.2636
16 2.18852 0.501038 0.0576582 1.58026 0.110062 0.0312635
17 1.29609 0 0 -0.021455 0.0115007 -1.06235
18 1.62202 0.000711441 -0.000470161 -0.00757007 0.00444244 -1.4728
19 1.22241 0 0 -0.046983 -0.00376784 -1.43289
20 1.76707 1.27612 0.0366406 1.57845 0.182304 -0.0214511
21 1.55587 0 0 -0.155246 -0.0035504 -0.857709
22 1.24273 0 0 -0.000505165 -0.000322958 -1.24825
23 0.784523 0 0 0.00822031 0.0140819 -0.754785
24 -1.93761 -1.56582 -10.5888 -0.000932534 0 -2.53187
25 6.02795 0 0 0.562777 0.702204 0.959688
26 11.7344 0 0 0.00140263 0 1.49375
27 8.81167 0 0 -0.12324 0 0
28 5.77884 0 0 -0.0825707 0 0
29 2.23249 0 0 -0.0406693 0 0
30 11.4725 0 0 0.167871 -0.594335 -0.470197
31 0.615813 0.994371 -0.809165 -2.72226 0.463503 0.286233
32 2.24752 0 0 -0.083597 0.0959305 0.272288
33 1.11936 0 0 -0.401235 0.450129 0.842933
34 3.71349 0.102636 0.102191 -1.41386 1.26431 0.0816932
35 1.72615 0 0 0.000698449 0.000241801 1.34896
36 1.21112 0 0 0.0115403 0.0133366 1.31081
37 3.5992 1.06011 0.0708885 -1.68043 1.04215 -0.112109
38 1.66069 0 0 0.00620731 0.00200633 1.47997
39 1.16699 0 0 -0.0701393 0.164234 1.21657
40 2.18853 -0.50104 0.0576591 -1.57605 0.00117798 -0.0469345
41 1.29609 0 0 -0.0326375 -0.0616158 1.17811
42 1.62201 -0.000715256 -0.000469208 -0.00508026 -0.00330949 1.42626
43 1.2224 0 0 0.024702 -0.0856984 1.42308
44 1.76707 -1.27612 0.0366411 -1.56655 0.103701 0.0275536
45 1.55587 0 0 0.103891 -0.0756531 0.975564
46 1.24273 0 0 -0.00469948 -0.0380688 1.28397
47 0.784531 0 0 -0.0127429 -0.0577752 1.00048
48 0 0 0 0 0 0
49 7.85728 -19.6141 -7.28923 -0.196279 0.486868 0.0884291
time 26
0 2.57209 1.18619 -8.6006 0 0 -0.814469
1 6.02794 0 0 -1.20074 0.985642 -0.481037
2 11.7344 0 0 -0.00140294 0 -1.74353
3 8.81138 -0.000450134 -0.00011158 -0.410158 0 0.000156605
4 5.77839 0.000286102 0 -0.274806 0 0.000103272
5 2.23163 -0.000328064 -0.00036335 -0.135352 0 0
6 11.4725 0 0 -0.629801 -0.457134 0.550737
7 0.615219 -0.993091 -0.8107 2.92227 0.454999 -0.331411
8 2.24752 0 0 0.0643999 0.0920015 -0.24525
9 1.11936 0 0 0.0124088 0.0391455 -1.16006
10 3.71348 -0.10264 0.102191 1.44559 1.26927 -0.122845
11 1.72615 0 0 -0.0132949 0.00454355 -1.35296
12 1.21114 0 0 -0.0138876 0.0108708 -1.50415
13 3.59919 -1.06012 0.0708885 1.59719 1.13552 0.0844624
14 1.66069 0 0 0.0206525 0.106434 -1.46129
15 1.167 0 0 0.140204 0.107864 -1.2636
16 2.18852 0.50104 0.0576591 1.58026 0.110062 0.0312638
17 1.29609 0 0 -0.021455 0.0115008 -1.06235
18 1.62202 0.000713348 -0.000472069 -0.00756995 0.00444235 -1.4728
19 1.22241 0 0 -0.0469829 -0.00376778 -1.43289
20 1.76707 1.27612 0.0366406 1.57845 0.182304 -0.021451
21 1.55588 0 0 -0.155246 -0.00355048 -0.857709
22 1.24273 0 0 -0.000505249 -0.000322982 -1.24825
23 0.784523 0 0 0.00822037 0.0140817 -0.754785
24 -1.93761 -1.56582 -10.5888 -0.000932534 0 -2.53187
25 6.02795 0 0 0.619002 0.655323 1.00048
26 11.7344 0 0 0.00140272 0 1.37754
27 8.81167 0 0 -0.0955235 0 0
28 5.77884 0 0 -0.0640008 0 0
29 2.23249 0 0 -0.0315228 0 0
30 11.4725 0 0 0.107882 -0.563398 -0.349274
31 0.615813 0.994373 -0.809165 -2.72226 0.463503 0.286233
32 2.24752 0 0 -0.0835968 0.0959306 0.272288
33 1.11936 0 0 -0.401235 0.450129 0.842934
34 3.71349 0.10264 0.10219 -1.41386 1.26431 0.0816941
35 1.72615 0 0 0.000698423 0.000241769 1.34896
36 1.21112 0 0 0.0115403 0.0133366 1.31081
37 3.5992 1.06012 0.0708876 -1.68043 1.04215 -0.112109
38 1.66069 0 0 0.00620718 0.00200638 1.47997
39 1.16699 0 0 -0.0701393 0.164234 1.21657
40 2.18853 -0.50104 0.0576587 -1.57605 0.00117788 -0.0469345
41 1.29609 0 0 -0.0326375 -0.0616158 1.17811
42 1.62202 -0.000714302 -0.000469208 -0.00508031 -0.00330936 1.42626
43 1.22241 0 0 0.0247019 -0.0856985 1.42308
44 1.76707 -1.27612 0.0366402 -1.56655 0.103701 0.0275537
45 1.55588 0 0 0.103891 -0.0756531 0.975564
46 1.24273 0 0 -0.00469956 -0.0380689 1.28397
47 0.784533 0 0 -0.0127429 -0.0577752 1.00048
48 0 0 0 0 0 0
49 8.09989 -20.276 -7.17375 -0.255802 0.511052 0.068533
time 27
0 2.57209 1.18619 -8.6006 0 0 -0.814469
1 6.02794 0 0 -1.24897 0.933351 -0.511075
2 11.7344 0 0 -0.00140278 0 -1.64799
3 8.81138 -0.000450134 -0.000112534 -0.435673 0 0.000156726
4 5.77839 0.000286102 0 -0.291901 0 0.000103271
5 2.23163 -0.000329971 -0.000365257 -0.143772 0 0
6 11.4725 0 0 -0.595064 -0.455561 0.45032
7 0.615216 -0.993092 -0.810699 2.92227 0.454999 -0.33141
8 2.24752 0 0 0.0644 0.0920014 -0.24525
9 1.11936 0 0 0.0124089 0.0391455 -1.16006
10 3.71348 -0.102641 0.102191 1.44559 1.26927 -0.122845
11 1.72615 0 0 -0.013295 0.00454359 -1.35296
12 1.21114 0 0 -0.0138876 0.0108708 -1.50415
13 3.59919 -1.06012 0.070888 1.59719 1.13552 0.0844622
14 1.66069 0 0 0.0206527 0.106434 -1.46129
15 1.167 0 0 0.140204 0.107864 -1.2636
16 2.18852 0.50104 0.0576591 1.58026 0.110062 0.0312636
17 1.29609 0 0 -0.021455 0.0115006 -1.06235
18 1.62202 0.000715256 -0.000470161 -0.00756988 0.00444268 -1.4728
19 1.22241 0 0 -0.046983 -0.00376783 -1.43289
20 1.76707 1.27612 0.0366406 1.57845 0.182304 -0.021451
21 1.55588 0 0 -0.155246 -0.00355043 -0.857709
22 1.24273 0 0 -0.000505172 -0.000322962 -1.24825
23 0.784523 0 0 0.00822044 0.014082 -0.754785
24 -1.93761 -1.56582 -10.5888 -0.000932534 0 -2.53187
25 6.02795 0 0 0.672913 0.600166 1.06221
26 11.7344 0 0 0.00140277 0 1.22996
27 8.81167 0 0 -0.0349802 0 0
28 5.77884 0 0 -0.0234367 0 0
29 2.23249 0 0 -0.0115435 0 0
30 11.4725 0 0 0.084761 -0.556692 -0.214972
31 0.615812 0.994373 -0.809165 -2.72226 0.463503 0.286233
32 2.24752 0 0 -0.0835969 0.0959307 0.272288
33 1.11936 0 0 -0.401236 0.450129 0.842933
34 3.71349 0.102638 0.102191 -1.41386 1.26431 0.0816938
35 1.72615 0 0 0.000698399 0.000241858 1.34896
36 1.21112 0 0 0.0115402 0.0133365 1.31081
37 3.5992 1.06012 0.0708876 -1.68043 1.04215 -0.112109
38 1.66069 0 0 0.00620722 0.00200649 1.47997
39 1.16699 0 0 -0.0701394 0.164234 1.21657
40 2.18853 -0.50104 0.0576591 -1.57605 0.00117798 -0.0469347
41 1.29609 0 0 -0.0326374 -0.0616158 1.17811
42 1.62202 -0.000711441 -0.000471115 -0.00508033 -0.00330938 1.42626
43 1.22241 0 0 0.024702 -0.0856984 1.42308
44 1.76707 -1.27612 0.0366411 -1.56655 0.103701 0.0275536
45 1.55588 0 0 0.103891 -0.075653 0.975564
46 1.24273 0 0 -0.00469942 -0.0380689 1.28397
47 0.78453 0 0 -0.0127429 -0.0577752 1.00048
48 0 0 0 0 0 0
49 8.32422 -20.913 -6.98118 -0.313166 0.496469 0.0572043
time 28
0 2.57209 1.18619 -8.6006 0 0 -0.814469
1 6.02794 0 0 -1.29901 0.889285 -0.525548
2 11.7344 0 0 -0.00140296 0 -1.57154
3 8.81138 -0.000450134 -0.00011158 -0.37856 0 0.000156341
4 5.77839 0.000286102 0 -0.253635 0 0.000103233
5 2.23164 -0.000328064 -0.000363827 -0.124925 0 0
6 11.4725 0 0 -0.493213 -0.412474 0.355635
7 0.615217 -0.993092 -0.8107 2.92227 0.454999 -0.33141
8 2.24752 0 0 0.0643999 0.0920014 -0.24525
9 1.11936 0 0 0.0124088 0.0391456 -1.16006
10 3.71348 -0.10264 0.102191 1.44559 1.26927 -0.122846
11 1.72615 0 0 -0.0132949 0.00454361 -1.35296
12 1.21114 0 0 -0.0138877 0.0108707 -1.50415
13 3.59919 -1.06012 0.0708876 1.59719 1.13552 0.0844621
14 1.66069 0 0 0.0206525 0.106434 -1.46129
15 1.167 0 0 0.140204 0.107864 -1.2636
16 2.18852 0.50104 0.0576591 1.58026 0.110062 0.0312636
17 1.29609 0 0 -0.021455 0.0115007 -1.06235
18 1.62202 0.000713348 -0.000470161 -0.00757017 0.00444246 -1.4728
19 1.22241 0 0 -0.0469829 -0.00376791 -1.43289
20 1.76707 1.27612 0.0366411 1.57845 0.182304 -0.021451
21 1.55588 0 0 -0.155246 -0.00355026 -0.857709
22 1.24273 0 0 -0.000505429 -0.000323038 -1.24825
23 0.784523 0 0 0.00822024 0.0140816 -0.754785
24 -1.93761 -1.56582 -10.5888 -0.000932534 0 -2.53187
25 6.02795 0 0 0.7158 0.544368 1.15037
26 11.7344 0 0 0.00140266 0 1.06093
27 8.81167 0 0 0.0872136 0 0
28 5.77884 0 0 0.0584331 0 0
29 2.23249 0 0 0.0287805 0 0
30 11.4725 0 0 0.12862 -0.606939 -0.099866
31 0.615812 0.99437 -0.809166 -2.72226 0.463503 0.286233
32 2.24752 0 0 -0.0835969 0.0959306 0.272288
33 1.11936 0 0 -0.401235 0.450129 0.842933
34 3.71349 0.102638 0.10219 -1.41386 1.26431 0.0816931
35 1.72615 0 0 0.000698472 0.000241674 1.34896
36 1.21112 0 0 0.0115404 0.0133366 1.31081
37 3.5992 1.06012 0.0708876 -1.68043 1.04215 -0.112109
38 1.66069 0 0 0.00620733 0.00200638 1.47997
39 1.16699 0 0 -0.0701394 0.164234 1.21657
40 2.18853 -0.501041 0.0576587 -1.57605 0.00117791 -0.0469346
41 1.29609 0 0 -0.0326374 -0.0616158 1.17811
42 1.62201 -0.000713348 -0.000471115 -0.00508032 -0.00330945 1.42626
43 1.2224 0 0 0.0247019 -0.0856985 1.42308
44 1.76707 -1.27612 0.0366402 -1.56655 0.103701 0.0275536
45 1.55588 0 0 0.103891 -0.0756531 0.975564
46 1.24273 0 0 -0.00469953 -0.0380688 1.28397
47 0.784532 0 0 -0.0127429 -0.0577752 1.00048
48 0 0 0 0 0 0
49 8.50981 -21.4548 -6.71257 -0.343787 0.416766 0.0570294
time 29
0 2.57209 1.18619 -8.6006 0 0 -0.814469
1 6.02794 0 0 -1.34393 0.848842 -0.531304
2 11.7344 0 0 -0.00140283 0 -1.5109
3 8.81138 -0.000452042 -0.000112057 -0.292923 0 0.000156915
4 5.77839 0.000286102 0 -0.196258 0 0.000103835
5 2.23163 -0.000329971 -0.000363827 -0.0966646 0 0
6 11.4725 0 0 -0.369368 -0.35571 0.26444
7 0.615215 -0.993092 -0.8107 2.92227 0.454999 -0.331411
8 2.24752 0 0 0.0643999 0.0920015 -0.24525
9 1.11936 0 0 0.012409 0.0391455 -1.16006
10 3.71348 -0.102642 0.10219 1.44559 1.26927 -0.122845
11 1.72615 0 0 -0.013295 0.00454352 -1.35296
12 1.21114 0 0 -0.0138877 0.0108708 -1.50415
13 3.59919 -1.06012 0.070888 1.59719 1.13552 0.0844629
14 1.66069 0 0 0.0206526 0.106434 -1.46129
15 1.167 0 0 0.140204 0.107864 -1.2636
16 2.18852 0.501038 0.0576587 1.58026 0.110062 0.0312637
17 1.29609 0 0 -0.0214549 0.0115006 -1.06235
18 1.62202 0.000715256 -0.000471115 -0.00757001 0.00444238 -1.4728
19 1.22241 0 0 -0.046983 -0.00376787 -1.43289
20 1.76707 1.27612 0.0366411 1.57845 0.182304 -0.0214511
21 1.55588 0 0 -0.155246 -0.00355038 -0.857709
22 1.24274 0 0 -0.000505216 -0.000322976 -1.24825
23 0.784521 0 0 0.00822039 0.0140818 -0.754785
24 -1.93761 -1.56582 -10.5888 -0.000932534 0 -2.53187
25 6.02795 0 0 0.757041 0.477048 1.2529
26 11.7344 0 0 0.00140272 0 0.868053
27 8.81167 0 0 0.260245 0 0
28 5.77884 0 0 0.174364 0 0
29 2.23249 0 0 0.0858806 0 0
30 11.4725 0 0 0.189841 -0.678222 0.0243256
31 0.615814 0.994371 -0.809165 -2.72226 0.463503 0.286233
32 2.24752 0 0 -0.083597 0.0959306 0.272288
33 1.11935 0 0 -0.401235 0.450129 0.842933
34 3.71349 0.102638 0.10219 -1.41386 1.26431 0.081694
35 1.72615 0 0 0.000698458 0.000241835 1.34896
36 1.21112 0 0 0.0115403 0.0133365 1.31081
37 3.5992 1.06011 0.0708876 -1.68043 1.04215 -0.112109
38 1.66069 0 0 0.00620722 0.00200641 1.47997
39 1.16699 0 0 -0.0701392 0.164234 1.21657
40 2.18853 -0.501041 0.0576591 -1.57605 0.00117786 -0.0469346
41 1.29609 0 0 -0.0326373 -0.0616158 1.17811
42 1.62201 -0.000713348 -0.000469208 -0.0050803 -0.00330946 1.42626
43 1.22241 0 0 0.0247019 -0.0856984 1.42308
44 1.76707 -1.27612 0.0366411 -1.56655 0.103701 0.0275536
45 1.55588 0 0 0.103891 -0.0756531 0.975564
46 1.24273 0 0 -0.00469952 -0.0380689 1.28397
47 0.784532 0 0 -0.0127429 -0.0577751 1.00048
48 0 0 0 0 0 0
49 8.63617 -21.8313 -6.36898 -0.375766 0.310968 0.062615
time 30
0 2.57209 1.18619 -8.6006 0 0 -0.814469
1 6.02794 0 0 -1.36879 0.798743 -0.542169
2 11.7344 0 0 -0.00140278 0 -1.43692
3 8.81138 -0.000448227 -0.00011158 -0.270686 0 0.000156265
4 5.77839 0.000286102 0 -0.181359 0 0.000103457
5 2.23163 -0.000329971 -0.00036335 -0.0893263 0 0
6 11.4725 0 0 -0.294423 -0.35879 0.118047
7 0.615219 -0.993092 -0.8107 2.92227 0.454999 -0.33141
8 2.24752 0 0 0.0643999 0.0920014 -0.24525
9 1.11936 0 0 0.0124089 0.0391454 -1.16006
10 3.71348 -0.102642 0.10219 1.44559 1.26927 -0.122846
11 1.72615 0 0 -0.0132949 0.00454343 -1.35296
12 1.21114 0 0 -0.0138876 0.0108708 -1.50415
13 3.59919 -1.06012 0.0708876 1.59719 1.13552 0.0844625
14 1.66069 0 0 0.0206524 0.106434 -1.46129
15 1.167 0 0 0.140204 0.107864 -1.2636
16 2.18852 0.501038 0.0576587 1.58026 0.110062 0.0312636
17 1.29609 0 0 -0.0214551 0.0115007 -1.06235
18 1.62202 0.000713348 -0.000471115 -0.00756982 0.00444235 -1.4728
19 1.22241 0 0 -0.0469826 -0.00376776 -1.43289
20 1.76707 1.27612 0.0366406 1.57845 0.182304 -0.021451
21 1.55588 0 0 -0.155246 -0.00355036 -0.857709
22 1.24273 0 0 -0.000505255 -0.000322949 -1.24825
23 0.784523 0 0 0.0082204 0.0140817 -0.754785
24 -1.93761 -1.56582 -10.5888 -0.000932534 0 -2.53187
25 6.02795 0 0 0.807576 0.366389 1.34985
26 11.7344 0 0 0.00140264 0 0.606703
27 8.81167 0 0 0.398098 0 0
28 5.77884 0 0 0.266726 0 0
29 2.23249 0 0 0.131372 0 0
30 11.4725 0 0 0.150569 -0.697544 0.278271
31 0.615815 0.994371 -0.809165 -2.72226 0.463503 0.286233
32 2.24752 0 0 -0.083597 0.0959306 0.272288
33 1.11936 0 0 -0.401236 0.450129 0.842933
34 3.71349 0.102636 0.102191 -1.41386 1.26431 0.0816931
35 1.72615 0 0 0.00069843 0.000241606 1.34896
36 1.21112 0 0 0.0115404 0.0133365 1.31081
37 3.5992 1.06011 0.0708885 -1.68043 1.04215 -0.112109
38 1.66069 0 0 0.00620718 0.00200642 1.47997
39 1.16699 0 0 -0.0701393 0.164234 1.21657
40 2.18853 -0.501041 0.0576591 -1.57605 0.00117806 -0.0469345
41 1.29609 0 0 -0.0326376 -0.0616158 1.17811
42 1.62201 -0.000713348 -0.000469208 -0.00508022 -0.00330952 1.42626
43 1.22241 0 0 0.024702 -0.0856983 1.42308
44 1.76707 -1.27612 0.0366411 -1.56655 0.103701 0.0275537
45 1.55588 0 0 0.103891 -0.075653 0.975564
46 1.24273 0 0 -0.00469952 -0.0380689 1.28397
47 0.784531 0 0 -0.0127429 -0.0577752 1.00048
48 0 0 0 0 0 0
49 8.68284 -21.9724 -5.95148 -0.482858 0.258133 0.0662012
end
