//Sequence File generated by the Wall Worm SMD Exporter PRO 1.99
//www.wallworm.com
version 1
nodes
0 "b_l_clav" -1
1 "b_l_upperarm" 0
2 "b_l_forearm" 1
3 "b_l_twist3" 2
4 "b_l_twist2" 2
5 "b_l_twist1" 2
6 "b_l_hand" 2
7 "b_l_thumb001" 6
8 "b_l_thumb002" 7
9 "b_l_thumb003" 8
10 "b_l_middle001" 6
11 "b_l_middle002" 10
12 "b_l_middle003" 11
13 "b_l_index001" 6
14 "b_l_index002" 13
15 "b_l_index003" 14
16 "b_l_hand_ringsqueezer" 6
17 "b_l_ring001" 16
18 "b_l_ring002" 17
19 "b_l_ring003" 18
20 "b_l_hand_pinkysqueezer" 6
21 "b_l_pinky001" 20
22 "b_l_pinky002" 21
23 "b_l_pinky003" 22
24 "b_r_clav" -1
25 "b_r_upperarm" 24
26 "b_r_forearm" 25
27 "b_r_twist3" 26
28 "b_r_twist2" 26
29 "b_r_twist1" 26
30 "b_r_hand" 26
31 "b_r_thumb001" 30
32 "b_r_thumb002" 31
33 "b_r_thumb003" 32
34 "b_r_middle001" 30
35 "b_r_middle002" 34
36 "b_r_middle003" 35
37 "b_r_index001" 30
38 "b_r_index002" 37
39 "b_r_index003" 38
40 "b_r_hand_ringsqueezer" 30
41 "b_r_ring001" 40
42 "b_r_ring002" 41
43 "b_r_ring003" 42
44 "b_r_hand_pinkysqueezer" 30
45 "b_r_pinky001" 44
46 "b_r_pinky002" 45
47 "b_r_pinky003" 46
48 "b_zero" -1
49 "d_clip" -1
50 "d_magfollower" 49
51 "d_boolet" 49
52 "d_gun" -1
53 "d_trig" 52
54 "d_slidelock" 52
55 "d_slide" 52
56 "d_ham" 52
57 "d_barrel" 52
end
skeleton
time 0
0 2.90881 6.05823 -3.71544 0.000934124 0 -0.725437
1 6.02794 0 0 -1.12166 0.400355 -0.757989
2 11.7344 0 0 -0.00140303 0 -0.635403
3 8.81138 -0.000450134 -0.000112534 -0.119459 0 0.000157794
4 5.77839 0.000286102 0 -0.0800377 0 0.00010508
5 2.23163 -0.000329971 -0.000364304 -0.0394217 0 0
6 11.4725 0 0 -0.204133 -0.329561 0.269127
7 0.615219 -0.993091 -0.8107 2.8564 0.427913 -0.348126
8 2.24752 0 0 0.742483 0.196537 -0.184311
9 1.11936 0 0 0.0569244 -0.0187488 -0.38543
10 3.71348 -0.102641 0.102191 1.55999 0.843181 0.0798625
11 1.72615 0 0 0.00870227 0.00432157 -1.08945
12 1.21114 0 0 0.00379982 0.017222 -1.3256
13 3.59919 -1.06012 0.0708878 1.52729 0.379604 0.0109444
14 1.66069 0 0 -0.00089167 0.07786 -0.234384
15 1.167 0 0 -0.0449929 0.0164959 -0.8571
16 2.18852 0.50104 0.0576588 1.52613 0.0997979 0.154747
17 1.2961 0 0 0.0247846 -0.039742 -0.746595
18 1.62202 0.000713348 -0.000471115 0.00528193 -0.0126014 -1.12707
19 1.22241 0 0 -0.0199585 0.00621243 -1.25809
20 1.76707 1.27612 0.0366408 1.35857 0.244319 0.100604
21 1.55588 0 0 -0.0216193 0.0244014 -0.43056
22 1.24273 0 0 -0.000479213 0.000360516 -0.969327
23 0.784523 0 0 0.00427085 0.00619489 -0.802021
24 -2.4735 6.38035 -5.29598 -0.000932693 0 -1.67936
25 6.02794 0 0 1.31002 0.414364 0.356656
26 11.7344 0 0 0.00140258 0 0.65049
27 8.81167 0 0 0.435875 0 0
28 5.77884 0 0 0.292036 0 0
29 2.23249 0 0 0.143839 0 0
30 11.4725 0 0 0.473415 -0.216745 -0.214179
31 0.615814 0.994373 -0.809166 -2.63072 -0.0229901 0.302397
32 2.24752 0 0 -0.233939 0.119313 0.186604
33 1.11936 0 0 -0.10034 0.146391 0.154007
34 3.71349 0.10264 0.102191 -1.62656 0.647308 -0.011774
35 1.72615 0 0 -0.0140398 -0.0034342 1.05412
36 1.21112 0 0 -0.0114086 0.0134492 0.623938
37 3.5992 1.06012 0.0708878 -1.82885 0.552225 -0.0809854
38 1.66069 0 0 0.0185625 0.0357885 0.837463
39 1.16699 0 0 -0.0214546 -0.0188799 0.512602
40 2.18854 -0.50104 0.0576591 -1.57595 -0.0519128 -0.112472
41 1.29609 0 0 -0.020726 -0.0420008 0.647344
42 1.62201 -0.000713348 -0.000469685 -0.0176409 -0.0302896 0.960613
43 1.22241 0 0 -0.0109008 -0.000363339 0.883798
44 1.76707 -1.27612 0.03664 -1.57501 0.0279593 -0.0920013
45 1.55588 0 0 -0.0274839 -0.0875848 0.552803
46 1.24273 0 0 0.000478931 0.000360589 1.16748
47 0.784531 0 0 -0.00207171 0.00549203 0.856291
48 0 0 -9.79273 0 0 0
49 5.84575 -23.557 -6.07331 -0.00317329 0 0
50 0 -0.659983 2.32196 0 0 0
51 -0.013092 -0.0336647 1.41425 -1.27079 0 0
52 5.84656 -24.9106 -5.82486 0 0 0
53 0 -0.675064 1.41593 0 0 0
54 0 0.979378 2.2232 0 0 0
55 0 -3.93658 2.85382 0 0 0
56 0 2.062 1.89702 -0.785398 0 0
57 0 -1.66928 2.73772 0 0 0
time 1
0 2.90881 6.05823 -3.71544 0.000934124 0 -0.725437
1 6.02794 0 0 -1.09496 0.495078 -0.707694
2 11.7344 0 0 -0.00140281 0 -0.840624
3 8.81138 -0.000450134 -0.00011301 -0.109423 0 0.000158427
4 5.77839 0.000287056 0 -0.0733133 0 0.000105596
5 2.23163 -0.000329018 -0.00036478 -0.0361096 0 0
6 11.4725 0 0 -0.235032 -0.354964 0.356879
7 0.615219 -0.993091 -0.8107 2.8564 0.427913 -0.348126
8 2.24752 0 0 0.742483 0.196537 -0.184311
9 1.11936 0 0 0.0569243 -0.0187487 -0.38543
10 3.71348 -0.102641 0.102191 1.55999 0.843181 0.0798625
11 1.72615 0 0 0.00870229 0.00432155 -1.08945
12 1.21114 0 0 0.00379983 0.017222 -1.3256
13 3.59919 -1.06012 0.0708883 1.52729 0.379604 0.0109444
14 1.66069 0 0 -0.000891684 0.07786 -0.234384
15 1.167 0 0 -0.0449929 0.0164959 -0.8571
16 2.18852 0.50104 0.0576588 1.52613 0.099798 0.154747
17 1.29609 0 0 0.0247847 -0.039742 -0.746595
18 1.62202 0.000713348 -0.000471115 0.00528192 -0.0126014 -1.12707
19 1.22241 0 0 -0.0199585 0.00621244 -1.25809
20 1.76707 1.27612 0.0366408 1.35857 0.244319 0.100604
21 1.55588 0 0 -0.0216193 0.0244014 -0.43056
22 1.24273 0 0 -0.000479223 0.000360521 -0.969327
23 0.784523 0 0 0.00427085 0.00619491 -0.802021
24 -2.4735 6.38035 -5.29598 -0.000932693 0 -1.67936
25 6.02794 0 0 1.28064 0.499334 0.334863
26 11.7344 0 0 0.00140265 0 0.83262
27 8.81167 0 0 0.39429 0 0
28 5.77884 0 0 0.264174 0 0
29 2.23249 0 0 0.130116 0 0
30 11.4725 0 0 0.453725 -0.221399 -0.285919
31 0.61581 0.994372 -0.809165 -2.63072 -0.0229902 0.302397
32 2.24752 0 0 -0.233939 0.119313 0.186604
33 1.11936 0 0 -0.10034 0.146391 0.154007
34 3.71348 0.102639 0.102191 -1.62656 0.647308 -0.011774
35 1.72615 0 0 -0.0140398 -0.00343421 1.05412
36 1.21112 0 0 -0.0114086 0.0134492 0.623938
37 3.5992 1.06012 0.0708879 -1.82885 0.552225 -0.0809853
38 1.66069 0 0 0.0185625 0.0357885 0.837463
39 1.16699 0 0 -0.0214546 -0.0188799 0.512602
40 2.18853 -0.50104 0.0576594 -1.57595 -0.0519129 -0.112472
41 1.29609 0 0 -0.020726 -0.0420008 0.647344
42 1.62201 -0.000713348 -0.000469208 -0.0176409 -0.0302896 0.960613
43 1.22241 0 0 -0.0109008 -0.000363368 0.883798
44 1.76707 -1.27612 0.0366405 -1.57501 0.0279592 -0.0920012
45 1.55588 0 0 -0.0274838 -0.0875848 0.552803
46 1.24273 0 0 0.000478905 0.000360584 1.16748
47 0.784532 0 0 -0.00207166 0.00549202 0.856291
48 0 0 -9.79273 0 0 0
49 5.90759 -22.6914 -5.95679 -0.0307745 0.0268475 0.0119286
50 0 -0.659985 2.32196 0 0 0
51 -0.013092 -0.0336666 1.41425 -1.27079 0 0
52 5.93213 -24.0375 -5.67121 -0.0276016 0.0268476 0.0119295
53 0 -0.565039 1.41593 0.349066 0 0
54 0 0.979378 2.2232 0 0 0
55 0 -3.93659 2.85382 0 0 0
56 0 2.062 1.89702 0.261799 0 0
57 0 -1.66928 2.73772 0 0 0
time 2
0 2.90881 6.05823 -3.71544 0.000934124 0 -0.725437
1 6.02794 0 0 -1.08994 0.518075 -0.693396
2 11.7344 0 0 -0.00140273 0 -0.900773
3 8.81138 -0.000450134 -0.000112057 -0.125055 0 0.000158192
4 5.77839 0.000286102 0 -0.0837871 0 0.000105486
5 2.23163 -0.000329971 -0.000362873 -0.0412682 0 0
6 11.4725 0 0 -0.252692 -0.401054 0.334653
7 0.615221 -0.993091 -0.8107 2.8564 0.427913 -0.348126
8 2.24752 0 0 0.742483 0.196537 -0.184311
9 1.11936 0 0 0.0569243 -0.0187487 -0.38543
10 3.71348 -0.10264 0.102191 1.55999 0.843181 0.0798628
11 1.72615 0 0 0.00870228 0.00432158 -1.08945
12 1.21114 0 0 0.00379987 0.017222 -1.32561
13 3.59919 -1.06012 0.0708886 1.52729 0.379604 0.0109445
14 1.66069 0 0 -0.000891665 0.0778601 -0.234384
15 1.167 0 0 -0.0449929 0.0164959 -0.8571
16 2.18853 0.50104 0.0576593 1.52613 0.0997979 0.154747
17 1.29609 0 0 0.0247846 -0.039742 -0.746595
18 1.62202 0.000711441 -0.000471592 0.00528192 -0.0126014 -1.12707
19 1.22241 0 0 -0.0199585 0.00621243 -1.25809
20 1.76707 1.27612 0.0366417 1.35857 0.244319 0.100604
21 1.55588 0 0 -0.0216193 0.0244014 -0.43056
22 1.24273 0 0 -0.00047922 0.000360506 -0.969327
23 0.784523 0 0 0.00427084 0.0061949 -0.802021
24 -2.4735 6.38035 -5.29598 -0.000932693 0 -1.67936
25 6.02794 0 0 1.28023 0.506331 0.332314
26 11.7344 0 0 0.00140266 0 0.867286
27 8.81167 0 0 0.356607 0 0
28 5.77884 0 0 0.238926 0 0
29 2.23249 0 0 0.11768 0 0
30 11.4725 0 0 0.403031 -0.214709 -0.238448
31 0.615812 0.994372 -0.809166 -2.63072 -0.0229901 0.302397
32 2.24752 0 0 -0.233939 0.119313 0.186604
33 1.11936 0 0 -0.10034 0.146391 0.154007
34 3.71349 0.102639 0.102191 -1.62656 0.647308 -0.0117741
35 1.72615 0 0 -0.0140398 -0.00343418 1.05412
36 1.21112 0 0 -0.0114087 0.0134492 0.623938
37 3.5992 1.06012 0.0708883 -1.82885 0.552225 -0.0809854
38 1.66069 0 0 0.0185625 0.0357885 0.837463
39 1.16699 0 0 -0.0214546 -0.0188799 0.512602
40 2.18853 -0.50104 0.0576588 -1.57595 -0.0519128 -0.112472
41 1.29609 0 0 -0.020726 -0.0420008 0.647344
42 1.62202 -0.000713348 -0.000469208 -0.0176409 -0.0302896 0.960613
43 1.22241 0 0 -0.0109008 -0.000363343 0.883798
44 1.76707 -1.27612 0.0366408 -1.57501 0.0279591 -0.0920012
45 1.55587 0 0 -0.0274839 -0.0875848 0.552803
46 1.24273 0 0 0.000478907 0.000360574 1.16748
47 0.784531 0 0 -0.00207166 0.00549204 0.856291
48 0 0 -9.79273 0 0 0
49 5.9969 -22.3835 -5.55574 -0.105019 0.0522443 0.027802
50 0 -0.659983 2.32196 0 0 0
51 -0.0130916 -0.0336609 1.41425 -1.27079 0 0
52 6.05452 -23.7038 -5.17152 -0.101846 0.0522445 0.0278028
53 0 -0.565039 1.41593 0.349066 0 0
54 0 0.979378 2.2232 0 0 0
55 0 -2.92814 2.85382 0 0 0
56 0 2.062 1.89702 -0.2618 0 0
57 0 -1.66928 2.67087 -0.0184056 0 0
time 3
0 2.90881 6.05823 -3.71544 0.000934124 0 -0.725437
1 6.02794 0 0 -1.10039 0.498517 -0.702946
2 11.7344 0 0 -0.00140294 0 -0.876326
3 8.81139 -0.000449181 -0.000112534 -0.119648 0 0.0001585
4 5.77839 0.000286102 0 -0.0801639 0 0.00010557
5 2.23163 -0.000328064 -0.000364304 -0.0394838 0 0
6 11.4725 0 0 -0.193847 -0.460681 0.192542
7 0.615217 -0.993092 -0.8107 2.8564 0.427913 -0.348126
8 2.24752 0 0 0.742483 0.196537 -0.184311
9 1.11936 0 0 0.0569243 -0.0187487 -0.38543
10 3.71348 -0.102641 0.102191 1.55999 0.843181 0.0798625
11 1.72615 0 0 0.00870228 0.00432156 -1.08945
12 1.21114 0 0 0.00379982 0.0172221 -1.32561
13 3.59919 -1.06012 0.0708874 1.52729 0.379604 0.0109444
14 1.66069 0 0 -0.00089171 0.0778601 -0.234384
15 1.167 0 0 -0.0449929 0.0164959 -0.8571
16 2.18852 0.50104 0.0576591 1.52613 0.0997978 0.154747
17 1.29609 0 0 0.0247846 -0.039742 -0.746595
18 1.62202 0.000711441 -0.000471115 0.00528195 -0.0126014 -1.12707
19 1.22241 0 0 -0.0199585 0.00621245 -1.25809
20 1.76707 1.27612 0.036641 1.35857 0.244319 0.100604
21 1.55587 0 0 -0.0216193 0.0244014 -0.43056
22 1.24274 0 0 -0.000479229 0.000360531 -0.969327
23 0.784524 0 0 0.00427084 0.00619489 -0.802021
24 -2.4735 6.38035 -5.29598 -0.000932693 0 -1.67936
25 6.02794 0 0 1.29668 0.464561 0.343556
26 11.7344 0 0 0.00140262 0 0.801588
27 8.81167 0 0 0.367467 0 0
28 5.77884 0 0 0.246203 0 0
29 2.23249 0 0 0.121264 0 0
30 11.4725 0 0 0.373824 -0.220843 -0.0715489
31 0.615812 0.994373 -0.809165 -2.63072 -0.02299 0.302397
32 2.24752 0 0 -0.233939 0.119313 0.186604
33 1.11936 0 0 -0.10034 0.146391 0.154007
34 3.71348 0.10264 0.102191 -1.62656 0.647308 -0.011774
35 1.72615 0 0 -0.0140398 -0.00343417 1.05412
36 1.21112 0 0 -0.0114086 0.0134492 0.623938
37 3.5992 1.06012 0.070889 -1.82885 0.552225 -0.0809854
38 1.66069 0 0 0.0185625 0.0357885 0.837463
39 1.16699 0 0 -0.0214546 -0.0188799 0.512602
40 2.18853 -0.50104 0.0576596 -1.57595 -0.0519128 -0.112472
41 1.29609 0 0 -0.020726 -0.0420008 0.647344
42 1.62202 -0.000711441 -0.000469208 -0.0176409 -0.0302896 0.960613
43 1.22241 0 0 -0.0109008 -0.000363375 0.883798
44 1.76707 -1.27612 0.0366411 -1.57501 0.0279592 -0.0920012
45 1.55588 0 0 -0.0274838 -0.0875849 0.552803
46 1.24273 0 0 0.000478923 0.000360598 1.16748
47 0.784532 0 0 -0.00207168 0.00549202 0.856291
48 0 0 -9.79273 0 0 0
49 6.01879 -22.4218 -4.87755 -0.241581 0.0245122 0.0387077
50 0 -0.659983 2.32196 0 0 0
51 -0.013092 -0.0336666 1.41425 -1.27079 0 0
52 6.08197 -23.677 -4.31664 -0.238408 0.0245125 0.0387085
53 0 -0.565037 1.41593 0.349066 0 0
54 0 0.979378 2.2232 0 0 0
55 0 -1.91969 2.85382 0 0 0
56 0 2.062 1.89702 -0.785398 0 0
57 0 -1.66928 2.60403 -0.0368113 0 0
time 4
0 2.90881 6.05823 -3.71544 0.000934124 0 -0.725437
1 6.02794 0 0 -1.10935 0.479186 -0.712286
2 11.7344 0 0 -0.00140296 0 -0.850011
3 8.81138 -0.000450134 -0.00011301 -0.109603 0 0.00015804
4 5.77839 0.000286102 0 -0.0734339 0 0.000105391
5 2.23163 -0.000329971 -0.000364304 -0.0361691 0 0
6 11.4725 0 0 -0.115585 -0.504714 0.0408704
7 0.615219 -0.993092 -0.810699 2.8564 0.427914 -0.348126
8 2.24752 0 0 0.742483 0.196537 -0.184311
9 1.11936 0 0 0.0569243 -0.0187487 -0.38543
10 3.71348 -0.102642 0.102191 1.55999 0.843181 0.0798625
11 1.72615 0 0 0.0087023 0.00432158 -1.08945
12 1.21114 0 0 0.00379984 0.017222 -1.3256
13 3.59919 -1.06012 0.0708878 1.52729 0.379605 0.0109444
14 1.66069 0 0 -0.00089167 0.0778601 -0.234383
15 1.167 0 0 -0.0449929 0.0164959 -0.8571
16 2.18852 0.501039 0.0576599 1.52613 0.0997979 0.154747
17 1.29609 0 0 0.0247846 -0.039742 -0.746595
18 1.62202 0.000713348 -0.000472069 0.00528192 -0.0126014 -1.12707
19 1.22241 0 0 -0.0199585 0.00621246 -1.25809
20 1.76707 1.27612 0.036641 1.35857 0.244319 0.100604
21 1.55588 0 0 -0.0216194 0.0244014 -0.43056
22 1.24274 0 0 -0.000479237 0.000360547 -0.969327
23 0.784523 0 0 0.00427085 0.00619488 -0.802021
24 -2.4735 6.38035 -5.29598 -0.000932693 0 -1.67936
25 6.02794 0 0 1.30995 0.423068 0.353792
26 11.7344 0 0 0.00140262 0 0.733518
27 8.81167 0 0 0.384001 0 0
28 5.77884 0 0 0.257281 0 0
29 2.23249 0 0 0.12672 0 0
30 11.4725 0 0 0.357526 -0.231064 0.093458
31 0.615812 0.994372 -0.809166 -2.63072 -0.02299 0.302397
32 2.24752 0 0 -0.233939 0.119313 0.186604
33 1.11936 0 0 -0.10034 0.146391 0.154007
34 3.71349 0.102638 0.102191 -1.62656 0.647308 -0.0117742
35 1.72615 0 0 -0.0140398 -0.0034342 1.05412
36 1.21112 0 0 -0.0114086 0.0134492 0.623938
37 3.5992 1.06011 0.0708888 -1.82885 0.552225 -0.0809854
38 1.66069 0 0 0.0185625 0.0357885 0.837463
39 1.16699 0 0 -0.0214546 -0.0188799 0.512602
40 2.18853 -0.501041 0.0576594 -1.57595 -0.0519128 -0.112472
41 1.29609 0 0 -0.020726 -0.0420007 0.647344
42 1.62202 -0.000712395 -0.000470161 -0.0176409 -0.0302896 0.960613
43 1.22241 0 0 -0.0109008 -0.000363335 0.883798
44 1.76707 -1.27612 0.0366409 -1.57501 0.0279593 -0.0920013
45 1.55588 0 0 -0.0274838 -0.0875848 0.552803
46 1.24273 0 0 0.00047889 0.000360602 1.16748
47 0.784531 0 0 -0.00207171 0.00549203 0.856291
48 0 0 -9.79273 0 0 0
49 5.99163 -22.4022 -4.26814 -0.373133 -0.0131037 0.0503863
50 0 -0.659985 2.32196 0 0 0
51 -0.0130925 -0.0336666 1.41425 -1.27079 0 0
52 6.04204 -23.5733 -3.5471 -0.36996 -0.0131032 0.050387
53 0 -0.565037 1.41593 0.349066 0 0
54 0 0.979378 2.33571 0.174533 0 0
55 0 -1.91969 2.85382 0 0 0
56 0 2.062 1.89702 -0.785398 0 0
57 0 -1.66928 2.60403 -0.0368112 0 0
time 5
0 2.90881 6.05823 -3.71544 0.000934124 0 -0.725437
1 6.02794 0 0 -1.1132 0.473789 -0.714152
2 11.7344 0 0 -0.00140285 0 -0.849359
3 8.81138 -0.000450134 -0.000112057 -0.104623 0 0.000157904
4 5.77839 0.000286102 0 -0.0700977 0 0.000105209
5 2.23163 -0.000329018 -0.000363827 -0.0345257 0 0
6 11.4725 0 0 -0.0869305 -0.513791 -0.00860029
7 0.615219 -0.993091 -0.8107 2.8564 0.427914 -0.348126
8 2.24752 0 0 0.742483 0.196537 -0.184311
9 1.11936 0 0 0.0569243 -0.0187488 -0.38543
10 3.71348 -0.10264 0.102191 1.55999 0.843182 0.0798625
11 1.72615 0 0 0.00870229 0.0043216 -1.08945
12 1.21114 0 0 0.00379984 0.0172221 -1.3256
13 3.59919 -1.06012 0.0708878 1.52729 0.379604 0.0109443
14 1.66069 0 0 -0.000891671 0.07786 -0.234384
15 1.167 0 0 -0.044993 0.016496 -0.8571
16 2.18853 0.50104 0.0576589 1.52613 0.0997979 0.154747
17 1.29609 0 0 0.0247846 -0.039742 -0.746595
18 1.62202 0.000713348 -0.000472069 0.00528191 -0.0126014 -1.12707
19 1.22241 0 0 -0.0199585 0.00621243 -1.25809
20 1.76707 1.27612 0.0366411 1.35857 0.244319 0.100604
21 1.55588 0 0 -0.0216193 0.0244014 -0.43056
22 1.24274 0 0 -0.000479237 0.000360547 -0.969327
23 0.784524 0 0 0.00427087 0.0061949 -0.802021
24 -2.4735 6.38035 -5.29598 -0.000932693 0 -1.67936
25 6.02794 0 0 1.31433 0.410431 0.35648
26 11.7344 0 0 0.00140261 0 0.719745
27 8.81167 0 0 0.385483 0 0
28 5.77884 0 0 0.258274 0 0
29 2.23249 0 0 0.127209 0 0
30 11.4725 0 0 0.349763 -0.236466 0.143391
31 0.615813 0.994372 -0.809166 -2.63072 -0.02299 0.302397
32 2.24752 0 0 -0.233939 0.119313 0.186604
33 1.11936 0 0 -0.10034 0.146391 0.154007
34 3.71348 0.102639 0.10219 -1.62656 0.647308 -0.011774
35 1.72615 0 0 -0.0140398 -0.00343421 1.05412
36 1.21112 0 0 -0.0114086 0.0134492 0.623938
37 3.5992 1.06012 0.070888 -1.82885 0.552225 -0.0809854
38 1.66069 0 0 0.0185626 0.0357885 0.837463
39 1.16699 0 0 -0.0214547 -0.0188799 0.512602
40 2.18853 -0.501041 0.0576589 -1.57595 -0.0519128 -0.112472
41 1.29609 0 0 -0.020726 -0.0420008 0.647344
42 1.62202 -0.000713348 -0.000469208 -0.0176408 -0.0302896 0.960613
43 1.22241 0 0 -0.0109009 -0.000363334 0.883798
44 1.76707 -1.27612 0.0366404 -1.57501 0.0279593 -0.0920013
45 1.55588 0 0 -0.0274838 -0.0875848 0.552803
46 1.24273 0 0 0.000478874 0.000360578 1.16748
47 0.784532 0 0 -0.0020717 0.00549205 0.856291
48 0 0 -9.79273 0 0 0
49 5.9672 -22.3436 -3.99853 -0.41985 -0.0254785 0.0524464
50 0 -0.659981 2.32196 0 0 0
51 -0.013092 -0.033659 1.41425 -1.27079 0 0
52 6.00791 -23.4803 -3.22372 -0.416677 -0.025478 0.0524471
53 0 -0.565041 1.41593 0.349066 0 0
54 0 0.979376 2.33571 0.174533 0 0
55 0 -1.91969 2.85382 0 0 0
56 0 2.062 1.89702 -0.785398 0 0
57 0 -1.66928 2.60403 -0.0368114 0 0
time 6
0 2.90881 6.05823 -3.71544 0.000934124 0 -0.725437
1 6.02794 0 0 -1.11726 0.467759 -0.716272
2 11.7344 0 0 -0.00140286 0 -0.846104
3 8.81138 -0.000450134 -0.000112057 -0.103884 0 0.000157776
4 5.77839 0.000286102 0 -0.069602 0 0.000105257
5 2.23163 -0.000329971 -0.000363827 -0.0342816 0 0
6 11.4725 0 0 -0.0934083 -0.503232 0.005018
7 0.615218 -0.993092 -0.8107 2.8564 0.427913 -0.348126
8 2.24752 0 0 0.742483 0.196537 -0.184311
9 1.11936 0 0 0.0569244 -0.0187488 -0.38543
10 3.71348 -0.102641 0.102191 1.55999 0.843181 0.0798625
11 1.72615 0 0 0.00870224 0.00432157 -1.08945
12 1.21114 0 0 0.00379983 0.0172221 -1.3256
13 3.59919 -1.06012 0.0708882 1.52729 0.379605 0.0109444
14 1.66069 0 0 -0.000891703 0.0778601 -0.234384
15 1.167 0 0 -0.0449929 0.016496 -0.8571
16 2.18852 0.50104 0.0576583 1.52613 0.0997979 0.154747
17 1.29609 0 0 0.0247846 -0.039742 -0.746595
18 1.62202 0.000714302 -0.000471115 0.0052819 -0.0126014 -1.12707
19 1.22241 0 0 -0.0199585 0.00621247 -1.25809
20 1.76707 1.27612 0.0366404 1.35857 0.244319 0.100604
21 1.55588 0 0 -0.0216193 0.0244014 -0.43056
22 1.24273 0 0 -0.000479182 0.000360505 -0.969328
23 0.784523 0 0 0.0042708 0.00619485 -0.802021
24 -2.4735 6.38035 -5.29598 -0.000932693 0 -1.67936
25 6.02794 0 0 1.31682 0.406997 0.356732
26 11.7344 0 0 0.00140274 0 0.721919
27 8.81167 0 0 0.381143 0 0
28 5.77884 0 0 0.255365 0 0
29 2.23249 0 0 0.125777 0 0
30 11.4725 0 0 0.348088 -0.237324 0.125871
31 0.615812 0.994372 -0.809166 -2.63072 -0.02299 0.302397
32 2.24752 0 0 -0.233939 0.119313 0.186604
33 1.11935 0 0 -0.10034 0.146391 0.154007
34 3.71349 0.102638 0.102191 -1.62656 0.647308 -0.0117741
35 1.72615 0 0 -0.0140398 -0.00343409 1.05412
36 1.21112 0 0 -0.0114087 0.0134492 0.623938
37 3.5992 1.06012 0.070888 -1.82885 0.552225 -0.0809855
38 1.66069 0 0 0.0185624 0.0357885 0.837463
39 1.16699 0 0 -0.0214546 -0.0188799 0.512602
40 2.18853 -0.501041 0.0576594 -1.57595 -0.0519128 -0.112472
41 1.29609 0 0 -0.0207261 -0.0420008 0.647344
42 1.62202 -0.000715256 -0.000469208 -0.0176409 -0.0302897 0.960613
43 1.22241 0 0 -0.0109007 -0.000363318 0.883798
44 1.76707 -1.27612 0.0366406 -1.57501 0.0279593 -0.0920013
45 1.55587 0 0 -0.0274838 -0.0875848 0.552803
46 1.24273 0 0 0.000478895 0.000360528 1.16748
47 0.784532 0 0 -0.00207166 0.00549197 0.856291
48 0 0 -9.79273 0 0 0
49 5.95428 -22.3845 -3.92796 -0.4088 -0.0228672 0.046386
50 0 -0.659983 2.32196 0 0 0
51 -0.0130925 -0.0336628 1.41425 -1.27079 0 0
52 5.9908 -23.5298 -3.16572 -0.405627 -0.0228667 0.0463867
53 0 -0.565041 1.41593 0.349066 0 0
54 0 0.979378 2.33571 0.174533 0 0
55 0 -1.91969 2.85382 0 0 0
56 0 2.062 1.89702 -0.785398 0 0
57 0 -1.66928 2.60403 -0.0368113 0 0
time 7
0 2.90881 6.05823 -3.71544 0.000934124 0 -0.725437
1 6.02794 0 0 -1.12102 0.461473 -0.71862
2 11.7344 0 0 -0.00140294 0 -0.840125
3 8.81138 -0.000449181 -0.000112057 -0.104873 0 0.000158752
4 5.77839 0.000287056 0 -0.0702649 0 0.000105867
5 2.23163 -0.000329018 -0.00036478 -0.034608 0 0
6 11.4725 0 0 -0.118329 -0.482408 0.0550592
7 0.615219 -0.99309 -0.8107 2.8564 0.427913 -0.348126
8 2.24752 0 0 0.742483 0.196537 -0.184311
9 1.11935 0 0 0.0569242 -0.0187488 -0.38543
10 3.71348 -0.10264 0.102191 1.55999 0.843181 0.0798626
11 1.72615 0 0 0.00870228 0.00432156 -1.08945
12 1.21114 0 0 0.00379978 0.0172221 -1.3256
13 3.59919 -1.06012 0.0708883 1.52729 0.379604 0.0109444
14 1.66069 0 0 -0.000891646 0.0778601 -0.234383
15 1.167 0 0 -0.0449929 0.0164959 -0.8571
16 2.18852 0.50104 0.0576592 1.52613 0.099798 0.154747
17 1.29609 0 0 0.0247846 -0.039742 -0.746595
18 1.62202 0.000713348 -0.000471115 0.00528191 -0.0126014 -1.12707
19 1.22241 0 0 -0.0199585 0.00621242 -1.25809
20 1.76707 1.27612 0.0366406 1.35857 0.244319 0.100604
21 1.55588 0 0 -0.0216193 0.0244014 -0.43056
22 1.24273 0 0 -0.00047922 0.000360514 -0.969328
23 0.784523 0 0 0.00427086 0.00619488 -0.802021
24 -2.4735 6.38035 -5.29598 -0.000932693 0 -1.67936
25 6.02794 0 0 1.31801 0.408672 0.355785
26 11.7344 0 0 0.00140272 0 0.731321
27 8.81167 0 0 0.374795 0 0
28 5.77884 0 0 0.251113 0 0
29 2.23249 0 0 0.123682 0 0
30 11.4725 0 0 0.35204 -0.234349 0.0697808
31 0.615812 0.994372 -0.809165 -2.63072 -0.02299 0.302397
32 2.24752 0 0 -0.233939 0.119313 0.186604
33 1.11936 0 0 -0.10034 0.146391 0.154007
34 3.71348 0.102639 0.102191 -1.62656 0.647308 -0.0117741
35 1.72615 0 0 -0.0140398 -0.00343415 1.05412
36 1.21112 0 0 -0.0114087 0.0134492 0.623938
37 3.5992 1.06012 0.070888 -1.82885 0.552225 -0.0809853
38 1.66069 0 0 0.0185625 0.0357885 0.837463
39 1.16699 0 0 -0.0214546 -0.0188799 0.512602
40 2.18853 -0.50104 0.0576587 -1.57595 -0.0519128 -0.112472
41 1.29609 0 0 -0.0207261 -0.0420007 0.647344
42 1.62201 -0.000714302 -0.000468254 -0.0176409 -0.0302897 0.960613
43 1.22241 0 0 -0.0109008 -0.000363375 0.883798
44 1.76707 -1.27612 0.0366414 -1.57501 0.0279594 -0.0920012
45 1.55588 0 0 -0.0274839 -0.0875849 0.552803
46 1.24273 0 0 0.000478944 0.000360549 1.16748
47 0.784531 0 0 -0.00207169 0.00549207 0.856291
48 0 0 -9.79273 0 0 0
49 5.95218 -22.488 -3.99495 -0.362844 -0.0120203 0.0377976
50 0 -0.659981 2.32196 0 0 0
51 -0.013092 -0.0336628 1.41425 -1.27079 0 0
52 5.98905 -23.667 -3.28601 -0.359672 -0.0120198 0.0377984
53 0 -0.565037 1.41593 0.349066 0 0
54 0 0.979378 2.33571 0.174533 0 0
55 0 -1.91969 2.85382 0 0 0
56 0 2.062 1.89702 -0.785398 0 0
57 0 -1.66928 2.60403 -0.0368113 0 0
time 8
0 2.90881 6.05823 -3.71544 0.000934124 0 -0.725437
1 6.02794 0 0 -1.124 0.455327 -0.721177
2 11.7344 0 0 -0.00140273 0 -0.831282
3 8.81138 -0.000450134 -0.00011158 -0.10512 0 0.000158859
4 5.77839 0.000286102 0 -0.0704303 0 0.000106025
5 2.23163 -0.000328064 -0.00036335 -0.0346895 0 0
6 11.4725 0 0 -0.14523 -0.459698 0.114777
7 0.615219 -0.993091 -0.8107 2.8564 0.427913 -0.348127
8 2.24752 0 0 0.742483 0.196537 -0.184311
9 1.11936 0 0 0.0569243 -0.0187487 -0.38543
10 3.71348 -0.102641 0.102191 1.55999 0.843181 0.0798625
11 1.72615 0 0 0.00870232 0.0043216 -1.08945
12 1.21114 0 0 0.00379987 0.017222 -1.3256
13 3.59919 -1.06012 0.0708879 1.52729 0.379604 0.0109444
14 1.66069 0 0 -0.000891611 0.07786 -0.234384
15 1.167 0 0 -0.0449929 0.016496 -0.8571
16 2.18852 0.50104 0.0576589 1.52613 0.0997978 0.154747
17 1.29609 0 0 0.0247846 -0.039742 -0.746595
18 1.62202 0.000715256 -0.000470161 0.00528196 -0.0126013 -1.12707
19 1.22241 0 0 -0.0199585 0.00621243 -1.25809
20 1.76707 1.27612 0.0366408 1.35857 0.244319 0.100604
21 1.55588 0 0 -0.0216193 0.0244014 -0.43056
22 1.24273 0 0 -0.000479222 0.000360518 -0.969327
23 0.784523 0 0 0.00427083 0.00619488 -0.802021
24 -2.4735 6.38035 -5.29598 -0.000932693 0 -1.67936
25 6.02794 0 0 1.31843 0.411434 0.354759
26 11.7344 0 0 0.00140271 0 0.739393
27 8.81167 0 0 0.370369 0 0
28 5.77884 0 0 0.248147 0 0
29 2.23249 0 0 0.122222 0 0
30 11.4725 0 0 0.360825 -0.227833 0.00404582
31 0.615814 0.994371 -0.809165 -2.63072 -0.0229901 0.302397
32 2.24752 0 0 -0.233939 0.119313 0.186604
33 1.11936 0 0 -0.10034 0.146391 0.154007
34 3.71349 0.102638 0.10219 -1.62656 0.647308 -0.0117741
35 1.72615 0 0 -0.0140398 -0.00343416 1.05412
36 1.21112 0 0 -0.0114087 0.0134492 0.623938
37 3.5992 1.06012 0.0708883 -1.82885 0.552225 -0.0809855
38 1.66069 0 0 0.0185625 0.0357885 0.837463
39 1.16699 0 0 -0.0214546 -0.0188799 0.512602
40 2.18853 -0.50104 0.0576589 -1.57595 -0.0519128 -0.112472
41 1.29609 0 0 -0.020726 -0.0420008 0.647344
42 1.62202 -0.000712395 -0.000470161 -0.0176409 -0.0302897 0.960613
43 1.22241 0 0 -0.0109008 -0.000363324 0.883798
44 1.76707 -1.27612 0.0366409 -1.57501 0.0279593 -0.0920014
45 1.55588 0 0 -0.0274838 -0.0875848 0.552803
46 1.24273 0 0 0.000478959 0.000360611 1.16748
47 0.784531 0 0 -0.00207171 0.00549204 0.856291
48 0 0 -9.79273 0 0 0
49 5.95881 -22.6117 -4.1411 -0.304784 0 0.0323523
50 0 -0.659985 2.32196 0 0 0
51 -0.013092 -0.0336666 1.41425 -1.27079 0 0
52 5.9991 -23.8297 -3.50175 -0.301611 0 0.0323531
53 0 -0.565037 1.41593 0.349066 0 0
54 0 0.979376 2.33571 0.174533 0 0
55 0 -1.91969 2.85382 0 0 0
56 0 2.062 1.89703 -0.785398 0 0
57 0 -1.66928 2.60403 -0.0368113 0 0
time 9
0 2.90881 6.05823 -3.71544 0.000934124 0 -0.725437
1 6.02794 0 0 -1.12627 0.448594 -0.724402
2 11.7344 0 0 -0.00140276 0 -0.817026
3 8.81138 -0.000450134 -0.000112057 -0.105023 0 0.000158914
4 5.77839 0.000285149 0 -0.0703653 0 0.000106145
5 2.23163 -0.000329971 -0.000363827 -0.0346576 0 0
6 11.4725 0 0 -0.178054 -0.431372 0.194654
7 0.615219 -0.993092 -0.810699 2.8564 0.427913 -0.348127
8 2.24752 0 0 0.742483 0.196537 -0.184311
9 1.11936 0 0 0.0569244 -0.0187488 -0.38543
10 3.71348 -0.102641 0.102192 1.55999 0.843181 0.0798625
11 1.72615 0 0 0.0087023 0.00432158 -1.08945
12 1.21114 0 0 0.00379985 0.0172221 -1.3256
13 3.59919 -1.06012 0.0708882 1.52729 0.379604 0.0109444
14 1.66069 0 0 -0.000891692 0.0778601 -0.234384
15 1.167 0 0 -0.0449929 0.0164959 -0.8571
16 2.18852 0.501039 0.0576597 1.52613 0.0997977 0.154747
17 1.29609 0 0 0.0247846 -0.039742 -0.746595
18 1.62202 0.000715256 -0.000470161 0.00528194 -0.0126014 -1.12707
19 1.22241 0 0 -0.0199585 0.00621242 -1.25809
20 1.76707 1.27612 0.0366419 1.35857 0.244319 0.100604
21 1.55588 0 0 -0.0216193 0.0244014 -0.43056
22 1.24274 0 0 -0.000479224 0.000360521 -0.969328
23 0.784523 0 0 0.00427084 0.00619489 -0.802021
24 -2.4735 6.38035 -5.29598 -0.000932693 0 -1.67936
25 6.02794 0 0 1.3179 0.415972 0.353485
26 11.7344 0 0 0.00140263 0 0.746469
27 8.81167 0 0 0.367572 0 0
28 5.77884 0 0 0.246274 0 0
29 2.23249 0 0 0.121299 0 0
30 11.4725 0 0 0.376321 -0.214298 -0.0825733
31 0.615814 0.994372 -0.809165 -2.63072 -0.0229901 0.302397
32 2.24752 0 0 -0.233939 0.119313 0.186604
33 1.11936 0 0 -0.10034 0.146391 0.154007
34 3.71348 0.102639 0.102191 -1.62656 0.647308 -0.0117742
35 1.72615 0 0 -0.0140398 -0.0034342 1.05412
36 1.21112 0 0 -0.0114086 0.0134492 0.623938
37 3.5992 1.06012 0.0708883 -1.82885 0.552225 -0.0809854
38 1.66069 0 0 0.0185625 0.0357885 0.837463
39 1.16699 0 0 -0.0214546 -0.0188799 0.512602
40 2.18853 -0.501041 0.0576594 -1.57595 -0.0519127 -0.112472
41 1.29609 0 0 -0.0207261 -0.0420007 0.647344
42 1.62201 -0.000713348 -0.000469208 -0.0176409 -0.0302897 0.960613
43 1.22241 0 0 -0.0109008 -0.000363326 0.883798
44 1.76707 -1.27612 0.0366404 -1.57501 0.0279593 -0.0920012
45 1.55588 0 0 -0.0274839 -0.0875848 0.552803
46 1.24273 0 0 0.000478918 0.000360549 1.16748
47 0.784532 0 0 -0.00207162 0.00549203 0.856291
48 0 0 -9.79273 0 0 0
49 5.97934 -22.7712 -4.41979 -0.222922 0.0156221 0.0312562
50 0 -0.659983 2.32196 0 0 0
51 -0.0130916 -0.0336666 1.41425 -1.27079 0 0
52 6.02813 -24.0373 -3.88232 -0.219749 0.0156224 0.031257
53 0 -0.565039 1.41593 0.349066 0 0
54 0 0.979378 2.33571 0.174533 0 0
55 0 -1.91969 2.85382 0 0 0
56 0 2.062 1.89702 -0.785398 0 0
57 0 -1.66928 2.60403 -0.0368113 0 0
time 10
0 2.90881 6.05823 -3.71544 0.000934124 0 -0.725437
1 6.02794 0 0 -1.12731 0.441098 -0.728686
2 11.7344 0 0 -0.00140291 0 -0.794384
3 8.81138 -0.000450134 -0.00011158 -0.108782 0 0.000158533
4 5.77839 0.000286102 0 -0.0728836 0 0.000105791
5 2.23164 -0.000329018 -0.000364304 -0.035898 0 0
6 11.4725 0 0 -0.214124 -0.393397 0.285248
7 0.615221 -0.993091 -0.8107 2.8564 0.427913 -0.348127
8 2.24752 0 0 0.742483 0.196537 -0.184311
9 1.11936 0 0 0.0569242 -0.0187488 -0.38543
10 3.71348 -0.10264 0.102191 1.55999 0.843181 0.0798624
11 1.72615 0 0 0.00870228 0.0043216 -1.08945
12 1.21114 0 0 0.00379985 0.017222 -1.3256
13 3.59919 -1.06012 0.0708883 1.52729 0.379604 0.0109443
14 1.66069 0 0 -0.000891708 0.07786 -0.234384
15 1.167 0 0 -0.0449929 0.0164959 -0.8571
16 2.18852 0.50104 0.0576588 1.52613 0.0997978 0.154747
17 1.29609 0 0 0.0247847 -0.039742 -0.746595
18 1.62202 0.000715256 -0.000471115 0.00528192 -0.0126014 -1.12707
19 1.22241 0 0 -0.0199585 0.00621244 -1.25809
20 1.76707 1.27612 0.0366409 1.35857 0.244319 0.100604
21 1.55588 0 0 -0.0216193 0.0244014 -0.43056
22 1.24273 0 0 -0.000479223 0.000360517 -0.969327
23 0.784522 0 0 0.00427085 0.00619489 -0.802021
24 -2.4735 6.38035 -5.29598 -0.000932693 0 -1.67936
25 6.02794 0 0 1.31627 0.422964 0.351771
26 11.7344 0 0 0.00140276 0 0.751946
27 8.81167 0 0 0.364957 0 0
28 5.77884 0 0 0.244521 0 0
29 2.23249 0 0 0.120436 0 0
30 11.4725 0 0 0.395865 -0.197536 -0.185188
31 0.615814 0.994371 -0.809166 -2.63072 -0.02299 0.302397
32 2.24752 0 0 -0.233939 0.119313 0.186604
33 1.11936 0 0 -0.10034 0.146391 0.154007
34 3.71348 0.102638 0.102191 -1.62656 0.647308 -0.0117741
35 1.72615 0 0 -0.0140398 -0.00343416 1.05412
36 1.21112 0 0 -0.0114086 0.0134492 0.623938
37 3.5992 1.06012 0.0708884 -1.82885 0.552225 -0.0809853
38 1.66069 0 0 0.0185625 0.0357885 0.837463
39 1.16699 0 0 -0.0214546 -0.0188799 0.512602
40 2.18853 -0.501041 0.0576593 -1.57595 -0.0519127 -0.112472
41 1.29609 0 0 -0.020726 -0.0420008 0.647344
42 1.62202 -0.000714302 -0.000470161 -0.0176409 -0.0302896 0.960613
43 1.22241 0 0 -0.0109008 -0.000363346 0.883798
44 1.76707 -1.27612 0.0366408 -1.57501 0.0279593 -0.0920013
45 1.55588 0 0 -0.0274839 -0.0875848 0.552803
46 1.24273 0 0 0.000478939 0.000360588 1.16748
47 0.784531 0 0 -0.00207171 0.00549202 0.856291
48 0 0 -9.79273 0 0 0
49 5.99274 -22.952 -4.8502 -0.120994 0.033452 0.0308462
50 0 -0.659981 2.32196 0 0 0
51 -0.013092 -0.0336609 1.41425 -1.27079 0 0
52 6.04767 -24.266 -4.44462 -0.117821 0.0334522 0.030847
53 0 -0.565039 1.41593 0.349066 0 0
54 0 0.979378 2.33571 0.174533 0 0
55 0 -1.91969 2.85382 0 0 0
56 0 2.062 1.89702 -0.785398 0 0
57 0 -1.66928 2.60403 -0.0368113 0 0
time 11
0 2.90881 6.05823 -3.71544 0.000934124 0 -0.725437
1 6.02794 0 0 -1.12661 0.433935 -0.733641
2 11.7344 0 0 -0.00140291 0 -0.765762
3 8.81138 -0.000450134 -0.000112534 -0.116104 0 0.000158739
4 5.77839 0.000286102 0 -0.0777898 0 0.00010583
5 2.23163 -0.000329018 -0.000363827 -0.0383143 0 0
6 11.4725 0 0 -0.235853 -0.361601 0.338953
7 0.615217 -0.993091 -0.8107 2.8564 0.427913 -0.348126
8 2.24752 0 0 0.742483 0.196537 -0.184311
9 1.11936 0 0 0.0569243 -0.0187488 -0.38543
10 3.71348 -0.102641 0.10219 1.55999 0.843181 0.0798625
11 1.72615 0 0 0.00870229 0.0043216 -1.08945
12 1.21114 0 0 0.00379987 0.0172221 -1.3256
13 3.59919 -1.06012 0.0708882 1.52729 0.379604 0.0109443
14 1.66069 0 0 -0.000891669 0.07786 -0.234383
15 1.167 0 0 -0.0449929 0.0164959 -0.8571
16 2.18852 0.50104 0.057659 1.52613 0.0997979 0.154747
17 1.29609 0 0 0.0247846 -0.039742 -0.746595
18 1.62202 0.000713348 -0.000471592 0.00528193 -0.0126014 -1.12707
19 1.22241 0 0 -0.0199585 0.00621244 -1.25809
20 1.76707 1.27612 0.0366409 1.35857 0.244319 0.100604
21 1.55588 0 0 -0.0216193 0.0244014 -0.43056
22 1.24273 0 0 -0.000479222 0.000360518 -0.969328
23 0.784523 0 0 0.00427085 0.00619487 -0.802021
24 -2.4735 6.38035 -5.29598 -0.000932693 0 -1.67936
25 6.02794 0 0 1.3143 0.428111 0.35073
26 11.7344 0 0 0.00140281 0 0.747589
27 8.81167 0 0 0.366573 0 0
28 5.77884 0 0 0.245604 0 0
29 2.23249 0 0 0.120969 0 0
30 11.4725 0 0 0.41272 -0.188162 -0.25285
31 0.615816 0.994372 -0.809165 -2.63072 -0.0229899 0.302397
32 2.24752 0 0 -0.233939 0.119313 0.186604
33 1.11935 0 0 -0.10034 0.146391 0.154007
34 3.71349 0.102639 0.102191 -1.62656 0.647308 -0.011774
35 1.72615 0 0 -0.0140398 -0.00343418 1.05412
36 1.21112 0 0 -0.0114086 0.0134492 0.623938
37 3.5992 1.06012 0.0708884 -1.82885 0.552225 -0.0809855
38 1.66069 0 0 0.0185625 0.0357885 0.837463
39 1.16699 0 0 -0.0214546 -0.0188799 0.512602
40 2.18853 -0.50104 0.0576591 -1.57595 -0.0519126 -0.112472
41 1.29609 0 0 -0.020726 -0.0420008 0.647344
42 1.62202 -0.000711441 -0.000469685 -0.0176409 -0.0302897 0.960613
43 1.22241 0 0 -0.0109008 -0.000363351 0.883798
44 1.76707 -1.27612 0.0366405 -1.57501 0.0279592 -0.0920013
45 1.55588 0 0 -0.0274838 -0.0875848 0.552803
46 1.24273 0 0 0.000478891 0.000360535 1.16748
47 0.784532 0 0 -0.00207165 0.00549204 0.856291
48 0 0 -9.79273 0 0 0
49 5.98219 -23.1018 -5.26541 -0.0454687 0.0433897 0.0282727
50 0 -0.659981 2.32196 0 0 0
51 -0.013092 -0.0336647 1.41425 -1.27079 0 0
52 6.03418 -24.4428 -4.96028 -0.0422958 0.0433899 0.0282735
53 0 -0.565037 1.41593 0.349066 0 0
54 0 0.979376 2.33571 0.174533 0 0
55 0 -1.91969 2.85382 0 0 0
56 0 2.062 1.89702 -0.785398 0 0
57 0 -1.66928 2.60403 -0.0368113 0 0
time 12
0 2.90881 6.05823 -3.71544 0.000934124 0 -0.725437
1 6.02794 0 0 -1.12443 0.428035 -0.738595
2 11.7344 0 0 -0.00140278 0 -0.736101
3 8.81139 -0.000450134 -0.000112534 -0.122676 0 0.000158392
4 5.77839 0.000286102 0 -0.0821931 0 0.000105603
5 2.23164 -0.000329018 -0.000363827 -0.0404831 0 0
6 11.4725 0 0 -0.237302 -0.349421 0.335187
7 0.615219 -0.993091 -0.8107 2.8564 0.427913 -0.348126
8 2.24752 0 0 0.742483 0.196537 -0.184311
9 1.11936 0 0 0.0569243 -0.0187487 -0.38543
10 3.71348 -0.102641 0.10219 1.55999 0.843181 0.0798624
11 1.72615 0 0 0.00870229 0.00432155 -1.08945
12 1.21114 0 0 0.00379983 0.0172221 -1.3256
13 3.59919 -1.06012 0.0708877 1.52729 0.379604 0.0109444
14 1.66069 0 0 -0.00089169 0.07786 -0.234383
15 1.167 0 0 -0.0449929 0.016496 -0.8571
16 2.18852 0.50104 0.0576585 1.52613 0.0997978 0.154747
17 1.29609 0 0 0.0247846 -0.039742 -0.746595
18 1.62202 0.000713348 -0.000471115 0.00528192 -0.0126014 -1.12707
19 1.22241 0 0 -0.0199585 0.00621244 -1.25809
20 1.76707 1.27612 0.0366402 1.35857 0.244319 0.100604
21 1.55588 0 0 -0.0216193 0.0244014 -0.43056
22 1.24274 0 0 -0.0004792 0.000360525 -0.969327
23 0.784523 0 0 0.00427083 0.00619487 -0.802021
24 -2.4735 6.38035 -5.29598 -0.000932693 0 -1.67936
25 6.02794 0 0 1.31265 0.428347 0.351179
26 11.7344 0 0 0.00140293 0 0.729303
27 8.81167 0 0 0.37707 0 0
28 5.77884 0 0 0.252637 0 0
29 2.23249 0 0 0.124433 0 0
30 11.4725 0 0 0.424831 -0.192036 -0.257895
31 0.61581 0.994372 -0.809166 -2.63072 -0.0229902 0.302397
32 2.24752 0 0 -0.233939 0.119313 0.186604
33 1.11936 0 0 -0.10034 0.146391 0.154007
34 3.71348 0.102639 0.10219 -1.62656 0.647308 -0.011774
35 1.72615 0 0 -0.0140398 -0.00343417 1.05412
36 1.21112 0 0 -0.0114086 0.0134492 0.623938
37 3.5992 1.06012 0.070888 -1.82885 0.552225 -0.0809853
38 1.66069 0 0 0.0185625 0.0357885 0.837463
39 1.16699 0 0 -0.0214546 -0.0188799 0.512602
40 2.18853 -0.501041 0.0576588 -1.57595 -0.0519128 -0.112472
41 1.29609 0 0 -0.020726 -0.0420008 0.647344
42 1.62202 -0.000713348 -0.000469208 -0.0176409 -0.0302897 0.960613
43 1.22241 0 0 -0.0109008 -0.000363345 0.883798
44 1.76707 -1.27612 0.0366405 -1.57501 0.0279591 -0.0920012
45 1.55588 0 0 -0.0274838 -0.0875848 0.552803
46 1.24273 0 0 0.000478927 0.000360583 1.16748
47 0.784532 0 0 -0.00207169 0.00549201 0.856291
48 0 0 -9.79273 0 0 0
49 5.95354 -23.2159 -5.53342 -0.0230278 0.0398082 0.0221701
50 0 -0.659981 2.32196 0 0 0
51 -0.013092 -0.0336628 1.41425 -1.27079 0 0
52 5.99519 -24.5637 -5.2584 -0.0198549 0.0398083 0.0221709
53 0 -0.593563 1.41593 0.258567 0 0
54 0 0.979376 2.33571 0.174533 0 0
55 0 -1.91969 2.85382 0 0 0
56 0 2.062 1.89702 -0.785398 0 0
57 0 -1.66928 2.60403 -0.0368113 0 0
time 13
0 2.90881 6.05823 -3.71544 0.000934124 0 -0.725437
1 6.02794 0 0 -1.12147 0.423067 -0.743417
2 11.7344 0 0 -0.00140292 0 -0.707071
3 8.81138 -0.000450134 -0.000112057 -0.1272 0 0.000157311
4 5.77839 0.000286102 0 -0.0852243 0 0.0001048
5 2.23163 -0.000329971 -0.000363827 -0.0419762 0 0
6 11.4725 0 0 -0.226801 -0.351348 0.296824
7 0.615221 -0.993092 -0.8107 2.8564 0.427913 -0.348126
8 2.24752 0 0 0.742483 0.196537 -0.184311
9 1.11936 0 0 0.0569244 -0.0187487 -0.38543
10 3.71348 -0.102641 0.102191 1.55999 0.843181 0.0798625
11 1.72615 0 0 0.00870228 0.00432159 -1.08945
12 1.21114 0 0 0.00379985 0.017222 -1.3256
13 3.59919 -1.06012 0.0708884 1.52729 0.379604 0.0109443
14 1.66069 0 0 -0.000891689 0.07786 -0.234384
15 1.167 0 0 -0.0449929 0.016496 -0.8571
16 2.18852 0.50104 0.0576589 1.52613 0.0997978 0.154747
17 1.29609 0 0 0.0247846 -0.039742 -0.746595
18 1.62202 0.000713348 -0.000470638 0.00528193 -0.0126014 -1.12707
19 1.22241 0 0 -0.0199585 0.00621243 -1.25809
20 1.76707 1.27612 0.0366418 1.35857 0.244319 0.100604
21 1.55588 0 0 -0.0216193 0.0244014 -0.43056
22 1.24273 0 0 -0.000479215 0.000360504 -0.969327
23 0.784524 0 0 0.00427084 0.00619487 -0.802021
24 -2.4735 6.38035 -5.29598 -0.000932693 0 -1.67936
25 6.02794 0 0 1.31123 0.425028 0.352728
26 11.7344 0 0 0.00140269 0 0.702082
27 8.81167 0 0 0.394132 0 0
28 5.77884 0 0 0.264068 0 0
29 2.23249 0 0 0.130063 0 0
30 11.4725 0 0 0.434101 -0.204019 -0.223121
31 0.615812 0.994373 -0.809165 -2.63072 -0.0229902 0.302397
32 2.24752 0 0 -0.233939 0.119313 0.186604
33 1.11936 0 0 -0.10034 0.146391 0.154007
34 3.71349 0.10264 0.102191 -1.62656 0.647308 -0.0117741
35 1.72615 0 0 -0.0140398 -0.00343416 1.05412
36 1.21112 0 0 -0.0114086 0.0134492 0.623938
37 3.5992 1.06012 0.0708884 -1.82885 0.552225 -0.0809855
38 1.66069 0 0 0.0185625 0.0357885 0.837463
39 1.16699 0 0 -0.0214546 -0.0188799 0.512602
40 2.18853 -0.50104 0.0576587 -1.57595 -0.0519128 -0.112472
41 1.29609 0 0 -0.020726 -0.0420008 0.647344
42 1.62202 -0.000713348 -0.000469208 -0.0176409 -0.0302896 0.960613
43 1.22241 0 0 -0.0109008 -0.000363317 0.883798
44 1.76707 -1.27612 0.0366402 -1.57501 0.0279593 -0.0920012
45 1.55587 0 0 -0.0274839 -0.0875848 0.552803
46 1.24273 0 0 0.000478902 0.000360532 1.16748
47 0.784532 0 0 -0.00207168 0.00549203 0.856291
48 0 0 -9.79273 0 0 0
49 5.91896 -23.3092 -5.69549 -0.0346133 0.0274541 0.0147269
50 0 -0.659981 2.32196 0 0 0
51 -0.0130925 -0.0336628 1.41425 -1.27079 0 0
52 5.94756 -24.6541 -5.40475 -0.0314404 0.0274543 0.0147278
53 0 -0.64654 1.41593 0.0904985 0 0
54 0 0.979378 2.33571 0.174533 0 0
55 0 -1.91969 2.85382 0 0 0
56 0 2.062 1.89702 -0.785398 0 0
57 0 -1.66928 2.60403 -0.0368113 0 0
time 14
0 2.90881 6.05823 -3.71544 0.000934124 0 -0.725437
1 6.02794 0 0 -1.11843 0.418679 -0.747964
2 11.7344 0 0 -0.0014028 0 -0.680081
3 8.81139 -0.000450134 -0.000112534 -0.130802 0 0.000157581
4 5.77839 0.000286102 0 -0.0876377 0 0.000105051
5 2.23163 -0.000329971 -0.000364304 -0.0431648 0 0
6 11.4725 0 0 -0.212595 -0.358699 0.247897
7 0.615217 -0.993092 -0.8107 2.8564 0.427913 -0.348127
8 2.24752 0 0 0.742483 0.196537 -0.184311
9 1.11936 0 0 0.0569243 -0.0187489 -0.38543
10 3.71348 -0.102641 0.102191 1.55999 0.843181 0.0798626
11 1.72615 0 0 0.0087023 0.00432158 -1.08945
12 1.21114 0 0 0.00379984 0.0172221 -1.3256
13 3.59919 -1.06012 0.070888 1.52729 0.379604 0.0109444
14 1.66069 0 0 -0.000891696 0.07786 -0.234384
15 1.167 0 0 -0.0449929 0.0164959 -0.8571
16 2.18852 0.50104 0.0576595 1.52613 0.0997979 0.154747
17 1.29609 0 0 0.0247846 -0.039742 -0.746595
18 1.62202 0.000713348 -0.000471115 0.00528193 -0.0126014 -1.12707
19 1.22241 0 0 -0.0199585 0.00621243 -1.25809
20 1.76707 1.27612 0.036641 1.35857 0.244319 0.100604
21 1.55588 0 0 -0.0216193 0.0244014 -0.43056
22 1.24274 0 0 -0.000479207 0.000360521 -0.969327
23 0.784523 0 0 0.00427085 0.00619489 -0.802021
24 -2.4735 6.38035 -5.29598 -0.000932693 0 -1.67936
25 6.02794 0 0 1.31004 0.419813 0.354843
26 11.7344 0 0 0.00140285 0 0.67199
27 8.81167 0 0 0.412425 0 0
28 5.77884 0 0 0.276325 0 0
29 2.23249 0 0 0.1361 0 0
30 11.4725 0 0 0.441007 -0.218199 -0.174886
31 0.615812 0.994372 -0.809165 -2.63072 -0.0229902 0.302397
32 2.24752 0 0 -0.233939 0.119313 0.186604
33 1.11935 0 0 -0.10034 0.146391 0.154007
34 3.71349 0.102639 0.10219 -1.62656 0.647308 -0.011774
35 1.72615 0 0 -0.0140398 -0.00343419 1.05412
36 1.21112 0 0 -0.0114086 0.0134492 0.623938
37 3.5992 1.06012 0.070888 -1.82885 0.552225 -0.0809854
38 1.66069 0 0 0.0185625 0.0357885 0.837463
39 1.16699 0 0 -0.0214546 -0.0188799 0.512602
40 2.18853 -0.501041 0.0576589 -1.57595 -0.0519128 -0.112472
41 1.29609 0 0 -0.0207261 -0.0420008 0.647344
42 1.62202 -0.000713348 -0.000470161 -0.0176409 -0.0302897 0.960613
43 1.22241 0 0 -0.0109008 -0.000363384 0.883798
44 1.76707 -1.27612 0.0366405 -1.57501 0.0279591 -0.0920011
45 1.55588 0 0 -0.0274838 -0.0875848 0.552803
46 1.24273 0 0 0.000478923 0.00036059 1.16748
47 0.784531 0 0 -0.00207169 0.00549204 0.856291
48 0 0 -9.79273 0 0 0
49 5.88504 -23.3831 -5.8055 -0.0584092 0.0127494 0.00797896
50 0 -0.659981 2.32196 0 0 0
51 -0.0130916 -0.0336647 1.41425 -1.27079 0 0
52 5.90064 -24.7209 -5.48274 -0.0552363 0.0127496 0.00797981
53 0 -0.675064 1.41593 0 0 0
54 0 0.979376 2.33571 0.174533 0 0
55 0 -1.91969 2.85382 0 0 0
56 0 2.062 1.89702 -0.785398 0 0
57 0 -1.66928 2.60403 -0.0368113 0 0
time 15
0 2.90881 6.05823 -3.71544 0.000934124 0 -0.725437
1 6.02794 0 0 -1.11587 0.415146 -0.751728
2 11.7344 0 0 -0.00140281 0 -0.657944
3 8.81138 -0.000450134 -0.000112534 -0.133983 0 0.000158038
4 5.77839 0.000286102 0 -0.0897689 0 0.000105183
5 2.23163 -0.000329971 -0.000364304 -0.0442146 0 0
6 11.4725 0 0 -0.202856 -0.362789 0.213151
7 0.615217 -0.993092 -0.8107 2.8564 0.427913 -0.348126
8 2.24752 0 0 0.742483 0.196537 -0.184311
9 1.11936 0 0 0.0569244 -0.0187488 -0.38543
10 3.71348 -0.102642 0.102191 1.55999 0.843181 0.0798624
11 1.72615 0 0 0.00870228 0.00432158 -1.08945
12 1.21114 0 0 0.00379982 0.0172221 -1.3256
13 3.59919 -1.06012 0.0708876 1.52729 0.379604 0.0109443
14 1.66069 0 0 -0.000891695 0.07786 -0.234384
15 1.167 0 0 -0.0449929 0.016496 -0.8571
16 2.18852 0.50104 0.0576591 1.52613 0.0997979 0.154747
17 1.29609 0 0 0.0247846 -0.039742 -0.746595
18 1.62202 0.000713348 -0.000471115 0.00528191 -0.0126014 -1.12707
19 1.22241 0 0 -0.0199585 0.00621243 -1.25809
20 1.76707 1.27612 0.0366405 1.35857 0.244319 0.100604
21 1.55588 0 0 -0.0216193 0.0244014 -0.43056
22 1.24274 0 0 -0.000479224 0.000360521 -0.969328
23 0.784524 0 0 0.00427085 0.00619489 -0.802021
24 -2.4735 6.38035 -5.29598 -0.000932693 0 -1.67936
25 6.02794 0 0 1.30879 0.416148 0.356478
26 11.7344 0 0 0.00140274 0 0.648571
27 8.81167 0 0 0.426743 0 0
28 5.77884 0 0 0.285918 0 0
29 2.23249 0 0 0.140825 0 0
30 11.4725 0 0 0.447172 -0.228613 -0.141368
31 0.615814 0.994373 -0.809165 -2.63072 -0.0229901 0.302397
32 2.24752 0 0 -0.233939 0.119313 0.186604
33 1.11936 0 0 -0.10034 0.146391 0.154007
34 3.71349 0.10264 0.102191 -1.62656 0.647308 -0.011774
35 1.72615 0 0 -0.0140398 -0.00343422 1.05412
36 1.21112 0 0 -0.0114086 0.0134492 0.623938
37 3.5992 1.06012 0.0708878 -1.82885 0.552225 -0.0809853
38 1.66069 0 0 0.0185625 0.0357885 0.837463
39 1.16699 0 0 -0.0214546 -0.0188799 0.512602
40 2.18853 -0.50104 0.0576589 -1.57595 -0.0519128 -0.112472
41 1.29609 0 0 -0.020726 -0.0420008 0.647344
42 1.62202 -0.000712395 -0.000469208 -0.0176409 -0.0302896 0.960613
43 1.22241 0 0 -0.0109008 -0.00036337 0.883798
44 1.76707 -1.27612 0.0366406 -1.57501 0.0279593 -0.0920011
45 1.55588 0 0 -0.0274838 -0.0875849 0.552803
46 1.24273 0 0 0.000478893 0.000360538 1.16748
47 0.784532 0 0 -0.00207167 0.00549201 0.856291
48 0 0 -9.79273 0 0 0
49 5.85863 -23.4409 -5.91695 -0.0726062 0.00202061 0.00300872
50 0 -0.659983 2.32196 0 0 0
51 -0.013092 -0.0336647 1.41425 -1.27079 0 0
52 5.86414 -24.774 -5.57519 -0.0694333 0.00202077 0.00300961
53 0 -0.675062 1.41593 0 0 0
54 0 0.979376 2.33571 0.174533 0 0
55 0 -1.91969 2.85382 0 0 0
56 0 2.062 1.89702 -0.785398 0 0
57 0 -1.66928 2.60403 -0.0368113 0 0
time 16
0 2.90881 6.05823 -3.71544 0.000934124 0 -0.725437
1 6.02794 0 0 -1.11419 0.413232 -0.753953
2 11.7344 0 0 -0.00140291 0 -0.644665
3 8.81139 -0.000449181 -0.00011158 -0.135711 0 0.000157318
4 5.77839 0.000286102 0 -0.0909263 0 0.000104789
5 2.23164 -0.000329018 -0.000363827 -0.0447847 0 0
6 11.4725 0 0 -0.199565 -0.361222 0.20086
7 0.615219 -0.993092 -0.8107 2.8564 0.427913 -0.348126
8 2.24752 0 0 0.742483 0.196537 -0.184311
9 1.11936 0 0 0.0569243 -0.0187488 -0.38543
10 3.71348 -0.102641 0.102191 1.55999 0.843181 0.0798625
11 1.72615 0 0 0.00870228 0.00432154 -1.08945
12 1.21114 0 0 0.00379983 0.0172221 -1.3256
13 3.59919 -1.06012 0.070888 1.52729 0.379604 0.0109443
14 1.66069 0 0 -0.000891707 0.07786 -0.234384
15 1.167 0 0 -0.0449929 0.0164959 -0.8571
16 2.18853 0.50104 0.0576594 1.52613 0.0997979 0.154747
17 1.29609 0 0 0.0247847 -0.039742 -0.746595
18 1.62202 0.000713348 -0.000471115 0.00528193 -0.0126014 -1.12707
19 1.22241 0 0 -0.0199585 0.00621244 -1.25809
20 1.76707 1.27612 0.0366411 1.35857 0.244319 0.100604
21 1.55587 0 0 -0.0216193 0.0244014 -0.43056
22 1.24274 0 0 -0.000479218 0.000360519 -0.969327
23 0.784524 0 0 0.00427085 0.00619488 -0.802021
24 -2.4735 6.38035 -5.29598 -0.000932693 0 -1.67936
25 6.02794 0 0 1.30743 0.415826 0.357042
26 11.7344 0 0 0.00140266 0 0.637794
27 8.81167 0 0 0.435094 0 0
28 5.77884 0 0 0.291513 0 0
29 2.23249 0 0 0.143581 0 0
30 11.4725 0 0 0.453099 -0.233787 -0.131992
31 0.61581 0.994373 -0.809166 -2.63072 -0.0229902 0.302397
32 2.24752 0 0 -0.233939 0.119313 0.186604
33 1.11936 0 0 -0.10034 0.146391 0.154007
34 3.71349 0.10264 0.102191 -1.62656 0.647308 -0.0117739
35 1.72615 0 0 -0.0140398 -0.00343416 1.05412
36 1.21112 0 0 -0.0114087 0.0134492 0.623938
37 3.5992 1.06012 0.0708878 -1.82885 0.552225 -0.0809853
38 1.66069 0 0 0.0185625 0.0357885 0.837463
39 1.16699 0 0 -0.0214547 -0.0188799 0.512602
40 2.18853 -0.50104 0.0576591 -1.57595 -0.0519129 -0.112472
41 1.29609 0 0 -0.020726 -0.0420008 0.647344
42 1.62202 -0.000712395 -0.000470161 -0.0176409 -0.0302897 0.960613
43 1.22241 0 0 -0.0109008 -0.000363369 0.883798
44 1.76707 -1.27612 0.0366408 -1.57501 0.0279592 -0.0920011
45 1.55588 0 0 -0.0274839 -0.0875848 0.552803
46 1.24273 0 0 0.000478932 0.000360624 1.16748
47 0.78453 0 0 -0.00207167 0.00549201 0.856291
48 0 0 -9.79273 0 0 0
49 5.84164 -23.4766 -6.02165 -0.0720921 -0.0029982 -0.000482833
50 0 -0.659985 2.32196 0 0 0
51 -0.013093 -0.0336628 1.41425 -1.27079 0 0
52 5.84078 -24.8099 -5.68057 -0.0689192 -0.00299803 -0.000481952
53 0 -0.675064 1.41593 0 0 0
54 0 0.979376 2.33571 0.174533 0 0
55 0 -1.91969 2.85382 0 0 0
56 0 2.062 1.89702 -0.785398 0 0
57 0 -1.66928 2.60403 -0.0368113 0 0
time 17
0 2.90881 6.05823 -3.71544 0.000934124 0 -0.725437
1 6.02794 0 0 -1.11297 0.414447 -0.753849
2 11.7344 0 0 -0.00140303 0 -0.643552
3 8.81139 -0.000450134 -0.00011158 -0.134822 0 0.000158078
4 5.77839 0.000286102 0 -0.090331 0 0.000105335
5 2.23164 -0.000329971 -0.000364304 -0.0444914 0 0
6 11.4725 0 0 -0.198657 -0.357656 0.201948
7 0.615223 -0.993092 -0.8107 2.8564 0.427913 -0.348126
8 2.24752 0 0 0.742483 0.196537 -0.184311
9 1.11936 0 0 0.0569243 -0.0187488 -0.38543
10 3.71348 -0.10264 0.102191 1.55999 0.843181 0.0798625
11 1.72615 0 0 0.00870226 0.0043216 -1.08945
12 1.21114 0 0 0.00379984 0.017222 -1.32561
13 3.59919 -1.06012 0.0708882 1.52729 0.379604 0.0109444
14 1.66069 0 0 -0.000891666 0.07786 -0.234383
15 1.167 0 0 -0.0449929 0.0164959 -0.8571
16 2.18853 0.50104 0.0576591 1.52613 0.0997978 0.154747
17 1.29609 0 0 0.0247846 -0.039742 -0.746595
18 1.62202 0.000713348 -0.000471115 0.00528192 -0.0126014 -1.12707
19 1.22241 0 0 -0.0199585 0.00621243 -1.25809
20 1.76707 1.27612 0.0366414 1.35857 0.244319 0.100604
21 1.55588 0 0 -0.0216193 0.0244014 -0.43056
22 1.24274 0 0 -0.000479218 0.000360518 -0.969328
23 0.784523 0 0 0.00427085 0.00619489 -0.802021
24 -2.4735 6.38035 -5.29598 -0.000932693 0 -1.67936
25 6.02794 0 0 1.30584 0.418966 0.356518
26 11.7344 0 0 0.00140282 0 0.639804
27 8.81167 0 0 0.438943 0 0
28 5.77884 0 0 0.294092 0 0
29 2.23249 0 0 0.144851 0 0
30 11.4725 0 0 0.457914 -0.236677 -0.136359
31 0.615812 0.994373 -0.809166 -2.63072 -0.02299 0.302397
32 2.24752 0 0 -0.233939 0.119313 0.186604
33 1.11936 0 0 -0.10034 0.146391 0.154007
34 3.71349 0.102639 0.102191 -1.62656 0.647308 -0.011774
35 1.72615 0 0 -0.0140398 -0.00343417 1.05412
36 1.21112 0 0 -0.0114086 0.0134492 0.623938
37 3.5992 1.06012 0.0708884 -1.82885 0.552225 -0.0809854
38 1.66069 0 0 0.0185625 0.0357885 0.837463
39 1.16699 0 0 -0.0214546 -0.0188799 0.512602
40 2.18853 -0.50104 0.0576594 -1.57595 -0.0519128 -0.112472
41 1.29609 0 0 -0.020726 -0.0420007 0.647344
42 1.62202 -0.000711441 -0.000469208 -0.0176409 -0.0302897 0.960613
43 1.22241 0 0 -0.0109008 -0.000363358 0.883798
44 1.76707 -1.27612 0.0366404 -1.57501 0.0279594 -0.0920013
45 1.55588 0 0 -0.0274839 -0.0875848 0.552803
46 1.24273 0 0 0.000478924 0.000360572 1.16748
47 0.784531 0 0 -0.00207168 0.00549201 0.856291
48 0 0 -9.79273 0 0 0
49 5.83005 -23.4762 -6.08239 -0.0671321 -0.00517543 -0.00314382
50 0 -0.659983 2.32196 0 0 0
51 -0.0130925 -0.0336666 1.41425 -1.27079 0 0
52 5.82493 -24.8112 -5.74793 -0.0639591 -0.00517526 -0.00314294
53 0 -0.675064 1.41593 0 0 0
54 0 0.979376 2.33571 0.174533 0 0
55 0 -1.91969 2.85382 0 0 0
56 0 2.062 1.89702 -0.785398 0 0
57 0 -1.66928 2.60403 -0.0368113 0 0
time 18
0 2.90881 6.05823 -3.71544 0.000934124 0 -0.725437
1 6.02794 0 0 -1.11182 0.418184 -0.752025
2 11.7344 0 0 -0.00140294 0 -0.650893
3 8.81138 -0.000450134 -0.000112534 -0.132649 0 0.000157553
4 5.77839 0.000286102 0 -0.0888751 0 0.000104893
5 2.23164 -0.000329971 -0.00036478 -0.0437743 0 0
6 11.4725 0 0 -0.19981 -0.352954 0.212248
7 0.615219 -0.993091 -0.810699 2.8564 0.427913 -0.348127
8 2.24752 0 0 0.742483 0.196537 -0.184311
9 1.11936 0 0 0.0569243 -0.0187488 -0.38543
10 3.71348 -0.10264 0.102191 1.55999 0.843181 0.0798626
11 1.72615 0 0 0.00870229 0.00432158 -1.08945
12 1.21114 0 0 0.00379987 0.017222 -1.3256
13 3.5992 -1.06012 0.0708883 1.52729 0.379604 0.0109443
14 1.66069 0 0 -0.000891675 0.0778601 -0.234384
15 1.167 0 0 -0.0449929 0.0164959 -0.8571
16 2.18853 0.50104 0.0576593 1.52613 0.0997979 0.154747
17 1.29609 0 0 0.0247846 -0.039742 -0.746595
18 1.62202 0.000715256 -0.000471115 0.00528194 -0.0126014 -1.12707
19 1.22241 0 0 -0.0199585 0.00621243 -1.25809
20 1.76707 1.27612 0.0366414 1.35857 0.244319 0.100604
21 1.55587 0 0 -0.0216193 0.0244014 -0.43056
22 1.24273 0 0 -0.000479218 0.000360518 -0.969327
23 0.784523 0 0 0.00427084 0.00619489 -0.802021
24 -2.4735 6.38035 -5.29598 -0.000932693 0 -1.67936
25 6.02794 0 0 1.30392 0.424809 0.355173
26 11.7344 0 0 0.0014026 0 0.650606
27 8.81167 0 0 0.439576 0 0
28 5.77884 0 0 0.294516 0 0
29 2.23249 0 0 0.14506 0 0
30 11.4725 0 0 0.461908 -0.237859 -0.150007
31 0.615812 0.994372 -0.809166 -2.63072 -0.02299 0.302397
32 2.24752 0 0 -0.233939 0.119313 0.186604
33 1.11936 0 0 -0.10034 0.146391 0.154007
34 3.71349 0.102639 0.102191 -1.62656 0.647308 -0.0117743
35 1.72615 0 0 -0.0140398 -0.00343424 1.05412
36 1.21112 0 0 -0.0114086 0.0134492 0.623938
37 3.5992 1.06012 0.0708878 -1.82885 0.552225 -0.0809856
38 1.66069 0 0 0.0185625 0.0357885 0.837463
39 1.16699 0 0 -0.0214547 -0.0188799 0.512602
40 2.18853 -0.50104 0.0576586 -1.57595 -0.0519127 -0.112472
41 1.29609 0 0 -0.020726 -0.0420008 0.647344
42 1.62202 -0.000714302 -0.000470161 -0.0176409 -0.0302896 0.960613
43 1.22241 0 0 -0.0109008 -0.000363359 0.883798
44 1.76707 -1.27612 0.0366405 -1.57501 0.0279594 -0.0920014
45 1.55587 0 0 -0.0274839 -0.0875848 0.552803
46 1.24273 0 0 0.00047892 0.000360587 1.16748
47 0.784533 0 0 -0.00207172 0.00549205 0.856291
48 0 0 -9.79273 0 0 0
49 5.8229 -23.45 -6.12105 -0.058981 -0.00513131 -0.0050842
50 0 -0.659981 2.32196 0 0 0
51 -0.0130916 -0.0336647 1.41425 -1.27079 0 0
52 5.81525 -24.7877 -5.79748 -0.0558081 -0.00513114 -0.00508332
53 0 -0.675064 1.41593 0 0 0
54 0 0.97938 2.33571 0.174533 0 0
55 0 -1.91969 2.85382 0 0 0
56 0 2.062 1.89702 -0.785398 0 0
57 0 -1.66928 2.60403 -0.0368113 0 0
time 19
0 2.90881 6.05823 -3.71544 0.000934124 0 -0.725437
1 6.02794 0 0 -1.11085 0.42288 -0.74944
2 11.7344 0 0 -0.00140278 0 -0.662146
3 8.81139 -0.000450134 -0.00011158 -0.130176 0 0.00015879
4 5.77839 0.000287056 0 -0.0872177 0 0.000105816
5 2.23164 -0.000329018 -0.000363827 -0.0429579 0 0
6 11.4725 0 0 -0.202411 -0.347693 0.227659
7 0.615219 -0.993092 -0.8107 2.8564 0.427914 -0.348126
8 2.24752 0 0 0.742483 0.196537 -0.184311
9 1.11936 0 0 0.0569243 -0.0187487 -0.38543
10 3.71348 -0.102642 0.102191 1.55999 0.843181 0.0798624
11 1.72615 0 0 0.00870225 0.00432159 -1.08945
12 1.21114 0 0 0.00379982 0.017222 -1.3256
13 3.59919 -1.06012 0.0708883 1.52729 0.379605 0.0109443
14 1.66069 0 0 -0.000891654 0.07786 -0.234383
15 1.167 0 0 -0.0449929 0.0164959 -0.8571
16 2.18852 0.50104 0.0576599 1.52613 0.0997979 0.154747
17 1.29609 0 0 0.0247847 -0.039742 -0.746595
18 1.62202 0.000713348 -0.000471592 0.00528193 -0.0126014 -1.12707
19 1.22241 0 0 -0.0199585 0.00621243 -1.25809
20 1.76707 1.27612 0.0366411 1.35857 0.244319 0.100604
21 1.55588 0 0 -0.0216193 0.0244014 -0.43056
22 1.24273 0 0 -0.000479228 0.000360514 -0.969327
23 0.784523 0 0 0.00427085 0.00619489 -0.802021
24 -2.4735 6.38035 -5.29598 -0.000932693 0 -1.67936
25 6.02794 0 0 1.30199 0.431585 0.353474
26 11.7344 0 0 0.00140266 0 0.665387
27 8.81167 0 0 0.437965 0 0
28 5.77884 0 0 0.293436 0 0
29 2.23249 0 0 0.144528 0 0
30 11.4725 0 0 0.465051 -0.23765 -0.168598
31 0.615812 0.994371 -0.809165 -2.63072 -0.0229902 0.302397
32 2.24752 0 0 -0.233939 0.119313 0.186604
33 1.11936 0 0 -0.10034 0.146391 0.154007
34 3.71348 0.102639 0.10219 -1.62656 0.647308 -0.011774
35 1.72615 0 0 -0.0140398 -0.0034342 1.05412
36 1.21112 0 0 -0.0114086 0.0134492 0.623938
37 3.5992 1.06012 0.0708884 -1.82885 0.552225 -0.0809855
38 1.66069 0 0 0.0185625 0.0357885 0.837463
39 1.16699 0 0 -0.0214546 -0.0188799 0.512602
40 2.18853 -0.501041 0.0576591 -1.57595 -0.0519128 -0.112472
41 1.29609 0 0 -0.020726 -0.0420008 0.647344
42 1.62202 -0.000713348 -0.000469208 -0.0176409 -0.0302896 0.960613
43 1.22241 0 0 -0.0109008 -0.000363366 0.883798
44 1.76707 -1.27612 0.0366406 -1.57501 0.0279592 -0.0920014
45 1.55587 0 0 -0.0274838 -0.0875848 0.552803
46 1.24273 0 0 0.000478923 0.000360563 1.16748
47 0.784531 0 0 -0.00207165 0.00549205 0.856291
48 0 0 -9.79273 0 0 0
49 5.8193 -23.4121 -6.14594 -0.0488978 -0.00347849 -0.0063789
50 0 -0.659983 2.32196 0 0 0
51 -0.0130925 -0.0336628 1.41425 -1.27079 0 0
52 5.81047 -24.7529 -5.83588 -0.0457249 -0.00347835 -0.00637804
53 0 -0.675068 1.41593 0 0 0
54 0 0.979376 2.33571 0.174533 0 0
55 0 -1.91969 2.85382 0 0 0
56 0 2.062 1.89702 -0.785398 0 0
57 0 -1.66928 2.60403 -0.0368113 0 0
time 20
0 2.90881 6.05823 -3.71544 0.000934124 0 -0.725437
1 6.02794 0 0 -1.11019 0.427035 -0.74703
2 11.7344 0 0 -0.00140289 0 -0.672903
3 8.81138 -0.000450134 -0.000112057 -0.128308 0 0.000158874
4 5.77839 0.000286102 0 -0.0859661 0 0.000105792
5 2.23163 -0.000329018 -0.000364304 -0.0423414 0 0
6 11.4725 0 0 -0.205883 -0.342466 0.244165
7 0.615219 -0.993092 -0.810701 2.8564 0.427913 -0.348127
8 2.24752 0 0 0.742483 0.196537 -0.184311
9 1.11936 0 0 0.0569243 -0.0187487 -0.38543
10 3.71348 -0.102642 0.102191 1.55999 0.843181 0.0798626
11 1.72615 0 0 0.0087023 0.00432155 -1.08945
12 1.21114 0 0 0.0037998 0.0172221 -1.3256
13 3.59919 -1.06012 0.0708882 1.52729 0.379605 0.0109442
14 1.66068 0 0 -0.000891693 0.0778601 -0.234383
15 1.167 0 0 -0.0449929 0.016496 -0.8571
16 2.18852 0.50104 0.0576586 1.52613 0.0997979 0.154747
17 1.29609 0 0 0.0247846 -0.039742 -0.746595
18 1.62201 0.000713348 -0.000471592 0.00528191 -0.0126014 -1.12707
19 1.22241 0 0 -0.0199585 0.00621245 -1.25809
20 1.76707 1.27612 0.0366411 1.35857 0.244319 0.100604
21 1.55588 0 0 -0.0216193 0.0244014 -0.43056
22 1.24273 0 0 -0.000479223 0.000360519 -0.969327
23 0.784523 0 0 0.00427085 0.00619489 -0.802021
24 -2.4735 6.38035 -5.29598 -0.000932693 0 -1.67936
25 6.02794 0 0 1.3004 0.437632 0.351886
26 11.7344 0 0 0.00140259 0 0.679545
27 8.81167 0 0 0.435142 0 0
28 5.77884 0 0 0.291545 0 0
29 2.23249 0 0 0.143597 0 0
30 11.4725 0 0 0.46729 -0.236379 -0.187902
31 0.615816 0.994373 -0.809165 -2.63072 -0.02299 0.302397
32 2.24752 0 0 -0.233939 0.119313 0.186604
33 1.11936 0 0 -0.10034 0.146391 0.154007
34 3.71349 0.10264 0.102191 -1.62656 0.647308 -0.0117741
35 1.72615 0 0 -0.0140398 -0.00343416 1.05412
36 1.21112 0 0 -0.0114086 0.0134492 0.623938
37 3.5992 1.06012 0.0708884 -1.82885 0.552225 -0.0809855
38 1.66069 0 0 0.0185625 0.0357885 0.837463
39 1.16699 0 0 -0.0214546 -0.0188799 0.512602
40 2.18853 -0.50104 0.0576587 -1.57595 -0.0519128 -0.112472
41 1.29609 0 0 -0.020726 -0.0420008 0.647344
42 1.62202 -0.000714302 -0.000470161 -0.0176409 -0.0302896 0.960613
43 1.22241 0 0 -0.0109008 -0.000363379 0.883798
44 1.76707 -1.27612 0.0366402 -1.57501 0.0279593 -0.0920013
45 1.55588 0 0 -0.0274839 -0.0875849 0.552803
46 1.24273 0 0 0.000478934 0.00036056 1.16748
47 0.784532 0 0 -0.00207165 0.00549205 0.856291
48 0 0 -9.79273 0 0 0
49 5.81837 -23.3765 -6.16538 -0.0381433 -0.000826898 -0.00709684
50 0 -0.659981 2.32196 0 0 0
51 -0.013093 -0.0336609 1.41425 -1.27079 0 0
52 5.8094 -24.7206 -5.86976 -0.0349704 -0.000826756 -0.00709597
53 0 -0.675064 1.41593 0 0 0
54 0 0.979376 2.33571 0.174533 0 0
55 0 -1.9197 2.85382 0 0 0
56 0 2.062 1.89702 -0.785398 0 0
57 0 -1.66928 2.60403 -0.0368113 0 0
time 21
0 2.90881 6.05823 -3.71544 0.000934124 0 -0.725437
1 6.02794 0 0 -1.10993 0.429258 -0.74568
2 11.7344 0 0 -0.00140289 0 -0.678999
3 8.81139 -0.000449181 -0.00011158 -0.127859 0 0.000158504
4 5.77839 0.000286102 0 -0.0856652 0 0.000105584
5 2.23163 -0.000328064 -0.00036335 -0.0421935 0 0
6 11.4725 0 0 -0.209684 -0.337883 0.257883
7 0.615219 -0.993092 -0.8107 2.8564 0.427913 -0.348126
8 2.24752 0 0 0.742483 0.196537 -0.184311
9 1.11936 0 0 0.0569243 -0.0187488 -0.38543
10 3.71348 -0.102641 0.102191 1.55999 0.843181 0.0798625
11 1.72615 0 0 0.00870229 0.00432155 -1.08945
12 1.21114 0 0 0.00379983 0.0172221 -1.32561
13 3.59919 -1.06012 0.0708879 1.52729 0.379604 0.0109443
14 1.66069 0 0 -0.000891678 0.0778601 -0.234384
15 1.167 0 0 -0.0449929 0.0164959 -0.8571
16 2.18853 0.50104 0.0576589 1.52613 0.0997979 0.154747
17 1.29609 0 0 0.0247846 -0.039742 -0.746595
18 1.62202 0.000713348 -0.000471115 0.00528192 -0.0126014 -1.12707
19 1.22241 0 0 -0.0199585 0.00621243 -1.25809
20 1.76707 1.27612 0.0366411 1.35857 0.244319 0.100604
21 1.55587 0 0 -0.0216193 0.0244014 -0.43056
22 1.24273 0 0 -0.000479206 0.000360519 -0.969327
23 0.784523 0 0 0.00427084 0.00619488 -0.802021
24 -2.4735 6.38035 -5.29598 -0.000932693 0 -1.67936
25 6.02794 0 0 1.2995 0.441464 0.350833
26 11.7344 0 0 0.00140265 0 0.688824
27 8.81167 0 0 0.432203 0 0
28 5.77884 0 0 0.289576 0 0
29 2.23249 0 0 0.142627 0 0
30 11.4725 0 0 0.468579 -0.234393 -0.203855
31 0.615812 0.994373 -0.809166 -2.63072 -0.0229901 0.302397
32 2.24752 0 0 -0.233939 0.119313 0.186604
33 1.11936 0 0 -0.10034 0.146391 0.154007
34 3.71349 0.10264 0.102191 -1.62656 0.647308 -0.011774
35 1.72615 0 0 -0.0140398 -0.00343416 1.05412
36 1.21112 0 0 -0.0114087 0.0134492 0.623938
37 3.5992 1.06012 0.0708883 -1.82885 0.552225 -0.0809854
38 1.66069 0 0 0.0185625 0.0357885 0.837463
39 1.16699 0 0 -0.0214546 -0.0188799 0.512602
40 2.18853 -0.50104 0.0576589 -1.57595 -0.0519128 -0.112472
41 1.29609 0 0 -0.020726 -0.0420008 0.647344
42 1.62202 -0.000713348 -0.000469208 -0.0176409 -0.0302896 0.960613
43 1.22241 0 0 -0.0109008 -0.000363321 0.883798
44 1.76707 -1.27612 0.0366402 -1.57501 0.0279592 -0.0920013
45 1.55588 0 0 -0.0274838 -0.0875848 0.552803
46 1.24273 0 0 0.000478926 0.000360561 1.16748
47 0.784532 0 0 -0.00207172 0.00549201 0.856291
48 0 0 -9.79273 0 0 0
49 5.81934 -23.3575 -6.18763 -0.0279787 0.00221372 -0.00732013
50 0 -0.659979 2.32196 0 0 0
51 -0.013092 -0.0336628 1.41425 -1.27079 0 0
52 5.81091 -24.7046 -5.90569 -0.0248058 0.00221387 -0.00731927
53 0 -0.675064 1.41593 0 0 0
54 0 0.979378 2.33571 0.174533 0 0
55 0 -1.91969 2.85382 0 0 0
56 0 2.062 1.89702 -0.785398 0 0
57 0 -1.66928 2.60403 -0.0368113 0 0
time 22
0 2.90881 6.05823 -3.71544 0.000934124 0 -0.725437
1 6.02794 0 0 -1.11034 0.428939 -0.745672
2 11.7344 0 0 -0.0014029 0 -0.67947
3 8.81138 -0.000450134 -0.000112534 -0.128501 0 0.00015858
4 5.77839 0.000286102 0 -0.0860958 0 0.000105799
5 2.23164 -0.000329018 -0.000364304 -0.0424055 0 0
6 11.4725 0 0 -0.212988 -0.334281 0.267102
7 0.615219 -0.993091 -0.8107 2.8564 0.427913 -0.348126
8 2.24752 0 0 0.742483 0.196537 -0.184311
9 1.11936 0 0 0.0569243 -0.0187487 -0.38543
10 3.71348 -0.10264 0.102192 1.55999 0.843181 0.0798625
11 1.72614 0 0 0.00870229 0.00432155 -1.08945
12 1.21114 0 0 0.00379984 0.0172221 -1.3256
13 3.59919 -1.06012 0.0708883 1.52729 0.379604 0.0109444
14 1.66069 0 0 -0.000891671 0.07786 -0.234383
15 1.167 0 0 -0.0449929 0.0164959 -0.8571
16 2.18852 0.50104 0.0576589 1.52613 0.0997978 0.154747
17 1.2961 0 0 0.0247847 -0.039742 -0.746595
18 1.62202 0.000713348 -0.000471115 0.00528193 -0.0126014 -1.12707
19 1.22241 0 0 -0.0199585 0.00621243 -1.25809
20 1.76707 1.27612 0.0366406 1.35857 0.244319 0.100604
21 1.55588 0 0 -0.0216193 0.0244014 -0.43056
22 1.24273 0 0 -0.000479229 0.000360531 -0.969327
23 0.784523 0 0 0.00427085 0.00619488 -0.802021
24 -2.4735 6.38035 -5.29598 -0.000932693 0 -1.67936
25 6.02794 0 0 1.29952 0.442622 0.350422
26 11.7344 0 0 0.00140263 0 0.692577
27 8.81167 0 0 0.42956 0 0
28 5.77884 0 0 0.287805 0 0
29 2.23249 0 0 0.141755 0 0
30 11.4725 0 0 0.468845 -0.232017 -0.214931
31 0.615814 0.994372 -0.809166 -2.63072 -0.02299 0.302397
32 2.24752 0 0 -0.233939 0.119313 0.186604
33 1.11936 0 0 -0.10034 0.146391 0.154007
34 3.71349 0.102639 0.102191 -1.62656 0.647308 -0.011774
35 1.72615 0 0 -0.0140398 -0.00343417 1.05412
36 1.21112 0 0 -0.0114086 0.0134492 0.623938
37 3.59921 1.06012 0.0708882 -1.82885 0.552225 -0.0809855
38 1.66069 0 0 0.0185625 0.0357885 0.837463
39 1.16699 0 0 -0.0214546 -0.0188799 0.512602
40 2.18853 -0.50104 0.0576591 -1.57595 -0.0519128 -0.112472
41 1.29609 0 0 -0.020726 -0.0420008 0.647344
42 1.62202 -0.000714302 -0.000470161 -0.0176409 -0.0302896 0.960613
43 1.22241 0 0 -0.0109008 -0.000363376 0.883798
44 1.76707 -1.27612 0.0366406 -1.57501 0.0279593 -0.0920013
45 1.55588 0 0 -0.0274839 -0.0875848 0.552803
46 1.24273 0 0 0.000478918 0.000360604 1.16748
47 0.784531 0 0 -0.00207166 0.00549203 0.856291
48 0 0 -9.79273 0 0 0
49 5.82148 -23.3596 -6.20434 -0.0196651 0.00503224 -0.0071531
50 0 -0.659979 2.32196 0 0 0
51 -0.0130925 -0.0336628 1.41425 -1.27079 0 0
52 5.814 -24.709 -5.93362 -0.0164922 0.00503236 -0.00715222
53 0 -0.675064 1.41593 0 0 0
54 0 0.979378 2.33571 0.174533 0 0
55 0 -1.91969 2.85382 0 0 0
56 0 2.062 1.89702 -0.785398 0 0
57 0 -1.66928 2.60403 -0.0368113 0 0
time 23
0 2.90881 6.05823 -3.71544 0.000934124 0 -0.725437
1 6.02794 0 0 -1.11143 0.426733 -0.746543
2 11.7344 0 0 -0.00140293 0 -0.676707
3 8.81139 -0.000450134 -0.00011158 -0.129106 0 0.000158191
4 5.77839 0.000286102 0 -0.0865011 0 0.000105356
5 2.23164 -0.000329971 -0.00036335 -0.0426051 0 0
6 11.4725 0 0 -0.214895 -0.331944 0.272015
7 0.615219 -0.993092 -0.8107 2.8564 0.427913 -0.348126
8 2.24752 0 0 0.742483 0.196537 -0.184311
9 1.11936 0 0 0.0569243 -0.0187488 -0.38543
10 3.71348 -0.102641 0.102191 1.55999 0.843181 0.0798625
11 1.72615 0 0 0.00870226 0.00432158 -1.08945
12 1.21114 0 0 0.00379982 0.0172221 -1.3256
13 3.59919 -1.06012 0.0708888 1.52729 0.379604 0.0109443
14 1.66069 0 0 -0.000891695 0.0778601 -0.234384
15 1.167 0 0 -0.0449929 0.016496 -0.8571
16 2.18852 0.50104 0.0576594 1.52613 0.0997978 0.154747
17 1.29609 0 0 0.0247847 -0.039742 -0.746595
18 1.62202 0.000713348 -0.000470638 0.00528191 -0.0126014 -1.12707
19 1.22241 0 0 -0.0199585 0.00621245 -1.25809
20 1.76707 1.27612 0.0366411 1.35857 0.244319 0.100604
21 1.55588 0 0 -0.0216193 0.0244014 -0.43056
22 1.24273 0 0 -0.000479225 0.000360507 -0.969327
23 0.784524 0 0 0.00427085 0.00619488 -0.802021
24 -2.4735 6.38035 -5.29598 -0.000932693 0 -1.67936
25 6.02794 0 0 1.3005 0.440768 0.350769
26 11.7344 0 0 0.00140253 0 0.690939
27 8.81167 0 0 0.427593 0 0
28 5.77884 0 0 0.286487 0 0
29 2.23249 0 0 0.141106 0 0
30 11.4725 0 0 0.468225 -0.229733 -0.220329
31 0.61581 0.994372 -0.809166 -2.63072 -0.0229901 0.302397
32 2.24752 0 0 -0.233939 0.119313 0.186604
33 1.11936 0 0 -0.10034 0.146391 0.154007
34 3.71349 0.102639 0.102191 -1.62656 0.647308 -0.011774
35 1.72615 0 0 -0.0140398 -0.00343417 1.05412
36 1.21112 0 0 -0.0114086 0.0134492 0.623938
37 3.5992 1.06012 0.0708879 -1.82885 0.552225 -0.0809853
38 1.66069 0 0 0.0185625 0.0357885 0.837463
39 1.16699 0 0 -0.0214546 -0.0188799 0.512602
40 2.18853 -0.501041 0.0576594 -1.57595 -0.0519127 -0.112472
41 1.29609 0 0 -0.020726 -0.0420008 0.647344
42 1.62202 -0.000714302 -0.000469208 -0.0176409 -0.0302897 0.960613
43 1.22241 0 0 -0.0109008 -0.000363348 0.883798
44 1.76707 -1.27612 0.036641 -1.57501 0.0279593 -0.0920012
45 1.55588 0 0 -0.0274838 -0.0875849 0.552803
46 1.24273 0 0 0.00047892 0.000360587 1.16748
47 0.784531 0 0 -0.00207164 0.00549204 0.856291
48 0 0 -9.79273 0 0 0
49 5.8241 -23.3747 -6.20057 -0.0144632 0.00701615 -0.00672193
50 0 -0.659983 2.32196 0 0 0
51 -0.0130925 -0.0336647 1.41425 -1.27079 0 0
52 5.81767 -24.7254 -5.93687 -0.0112903 0.00701627 -0.00672104
53 0 -0.675064 1.41593 0 0 0
54 0 0.979376 2.33571 0.174533 0 0
55 0 -1.91969 2.85382 0 0 0
56 0 2.062 1.89702 -0.785398 0 0
57 0 -1.66928 2.60403 -0.0368113 0 0
time 24
0 2.90881 6.05823 -3.71544 0.000934124 0 -0.725437
1 6.02794 0 0 -1.11303 0.423147 -0.748047
2 11.7344 0 0 -0.00140297 0 -0.671538
3 8.81139 -0.000450134 -0.000112057 -0.13044 0 0.000158149
4 5.77839 0.000287056 0 -0.0873946 0 0.000105253
5 2.23163 -0.000329018 -0.000364304 -0.0430452 0 0
6 11.4725 0 0 -0.216367 -0.330592 0.273331
7 0.615219 -0.993092 -0.810699 2.8564 0.427913 -0.348126
8 2.24752 0 0 0.742483 0.196537 -0.184311
9 1.11936 0 0 0.0569243 -0.0187487 -0.38543
10 3.71348 -0.102641 0.102191 1.55999 0.843181 0.0798625
11 1.72615 0 0 0.00870227 0.00432157 -1.08945
12 1.21114 0 0 0.00379987 0.017222 -1.3256
13 3.59919 -1.06012 0.0708879 1.52729 0.379604 0.0109444
14 1.66069 0 0 -0.0008917 0.07786 -0.234383
15 1.16699 0 0 -0.0449929 0.0164959 -0.8571
16 2.18853 0.50104 0.0576597 1.52613 0.0997978 0.154747
17 1.29609 0 0 0.0247847 -0.039742 -0.746595
18 1.62202 0.000715256 -0.000471115 0.00528194 -0.0126014 -1.12707
19 1.22241 0 0 -0.0199585 0.00621242 -1.25809
20 1.76707 1.27612 0.0366411 1.35857 0.244319 0.100604
21 1.55588 0 0 -0.0216193 0.0244014 -0.43056
22 1.24274 0 0 -0.000479219 0.000360529 -0.969327
23 0.784524 0 0 0.00427086 0.00619489 -0.802021
24 -2.4735 6.38035 -5.29598 -0.000932693 0 -1.67936
25 6.02794 0 0 1.30216 0.437348 0.351443
26 11.7344 0 0 0.00140258 0 0.686805
27 8.81167 0 0 0.42516 0 0
28 5.77884 0 0 0.284857 0 0
29 2.23249 0 0 0.140303 0 0
30 11.4725 0 0 0.466141 -0.227697 -0.221937
31 0.615814 0.994372 -0.809165 -2.63072 -0.0229902 0.302397
32 2.24752 0 0 -0.233939 0.119313 0.186604
33 1.11936 0 0 -0.10034 0.146391 0.154007
34 3.71349 0.102639 0.102191 -1.62656 0.647308 -0.011774
35 1.72615 0 0 -0.0140398 -0.00343417 1.05412
36 1.21112 0 0 -0.0114086 0.0134492 0.623938
37 3.5992 1.06012 0.0708883 -1.82885 0.552225 -0.0809854
38 1.66069 0 0 0.0185625 0.0357885 0.837463
39 1.16699 0 0 -0.0214546 -0.0188799 0.512602
40 2.18853 -0.50104 0.0576589 -1.57595 -0.0519128 -0.112472
41 1.29609 0 0 -0.020726 -0.0420008 0.647344
42 1.62202 -0.000712395 -0.000469208 -0.0176409 -0.0302896 0.960613
43 1.22241 0 0 -0.0109008 -0.000363347 0.883798
44 1.76707 -1.27612 0.0366404 -1.57501 0.0279591 -0.0920013
45 1.55587 0 0 -0.0274838 -0.0875848 0.552803
46 1.24273 0 0 0.000478943 0.000360601 1.16748
47 0.784531 0 0 -0.00207168 0.00549203 0.856291
48 0 0 -9.79273 0 0 0
49 5.82677 -23.399 -6.17995 -0.0120644 0.00897695 -0.00627914
50 0 -0.659983 2.32196 0 0 0
51 -0.013092 -0.0336666 1.41425 -1.27079 0 0
52 5.82143 -24.7504 -5.91949 -0.00889148 0.00897707 -0.00627827
53 0 -0.675064 1.41593 0 0 0
54 0 0.979378 2.33571 0.174533 0 0
55 0 -1.91969 2.85382 0 0 0
56 0 2.062 1.89702 -0.785398 0 0
57 0 -1.66928 2.60403 -0.0368113 0 0
time 25
0 2.90881 6.05823 -3.71544 0.000934124 0 -0.725437
1 6.02794 0 0 -1.11492 0.418631 -0.749976
2 11.7344 0 0 -0.00140293 0 -0.664665
3 8.81138 -0.000450134 -0.000112534 -0.132365 0 0.000158447
4 5.77839 0.000286102 0 -0.0886848 0 0.000105521
5 2.23163 -0.000329971 -0.000364304 -0.0436806 0 0
6 11.4725 0 0 -0.217846 -0.329493 0.27299
7 0.615219 -0.993091 -0.8107 2.8564 0.427913 -0.348126
8 2.24752 0 0 0.742483 0.196537 -0.184311
9 1.11936 0 0 0.0569244 -0.0187487 -0.38543
10 3.71348 -0.102641 0.102191 1.55999 0.843181 0.0798625
11 1.72615 0 0 0.00870228 0.00432158 -1.08945
12 1.21114 0 0 0.00379983 0.017222 -1.3256
13 3.59919 -1.06012 0.0708882 1.52729 0.379604 0.0109444
14 1.66069 0 0 -0.000891699 0.07786 -0.234383
15 1.167 0 0 -0.0449929 0.016496 -0.8571
16 2.18852 0.50104 0.0576593 1.52613 0.0997978 0.154747
17 1.29609 0 0 0.0247846 -0.039742 -0.746595
18 1.62202 0.000711441 -0.000470638 0.0052819 -0.0126014 -1.12707
19 1.22241 0 0 -0.0199585 0.00621243 -1.25809
20 1.76707 1.27612 0.036641 1.35857 0.244319 0.100604
21 1.55588 0 0 -0.0216193 0.0244014 -0.43056
22 1.24273 0 0 -0.000479217 0.000360508 -0.969327
23 0.784523 0 0 0.00427086 0.0061949 -0.802021
24 -2.4735 6.38035 -5.29598 -0.000932693 0 -1.67936
25 6.02794 0 0 1.30421 0.43285 0.352341
26 11.7344 0 0 0.00140275 0 0.680855
27 8.81167 0 0 0.422369 0 0
28 5.77884 0 0 0.282987 0 0
29 2.23249 0 0 0.139382 0 0
30 11.4725 0 0 0.463241 -0.225717 -0.221805
31 0.615812 0.994373 -0.809165 -2.63072 -0.02299 0.302397
32 2.24752 0 0 -0.233939 0.119313 0.186604
33 1.11936 0 0 -0.10034 0.146391 0.154007
34 3.71348 0.10264 0.102191 -1.62656 0.647308 -0.011774
35 1.72615 0 0 -0.0140398 -0.00343418 1.05412
36 1.21112 0 0 -0.0114086 0.0134492 0.623938
37 3.5992 1.06012 0.070888 -1.82885 0.552225 -0.0809853
38 1.66069 0 0 0.0185625 0.0357885 0.837463
39 1.16699 0 0 -0.0214546 -0.0188799 0.512602
40 2.18853 -0.50104 0.0576591 -1.57595 -0.0519128 -0.112472
41 1.29609 0 0 -0.020726 -0.0420007 0.647344
42 1.62202 -0.000714302 -0.000469208 -0.0176409 -0.0302897 0.960613
43 1.22241 0 0 -0.0109008 -0.000363334 0.883798
44 1.76707 -1.27612 0.0366404 -1.57501 0.0279593 -0.0920011
45 1.55587 0 0 -0.0274838 -0.0875849 0.552803
46 1.24273 0 0 0.000478933 0.000360599 1.16748
47 0.784532 0 0 -0.00207167 0.00549203 0.856291
48 0 0 -9.79273 0 0 0
49 5.82933 -23.4299 -6.15202 -0.0106775 0.0111274 -0.00589811
50 0 -0.659981 2.32196 0 0 0
51 -0.013093 -0.0336609 1.41425 -1.27079 0 0
52 5.82504 -24.7816 -5.89345 -0.00750465 0.0111275 -0.00589723
53 0 -0.675064 1.41593 0 0 0
54 0 0.979376 2.33571 0.174533 0 0
55 0 -1.91969 2.85382 0 0 0
56 0 2.062 1.89702 -0.785398 0 0
57 0 -1.66928 2.60403 -0.0368113 0 0
time 26
0 2.90881 6.05823 -3.71544 0.000934124 0 -0.725437
1 6.02794 0 0 -1.11689 0.413663 -0.752122
2 11.7344 0 0 -0.00140292 0 -0.656878
3 8.81138 -0.000450134 -0.000112057 -0.133096 0 0.000158704
4 5.77839 0.000285149 0 -0.0891741 0 0.000105829
5 2.23164 -0.000329971 -0.00036335 -0.0439215 0 0
6 11.4725 0 0 -0.217928 -0.328508 0.271878
7 0.615217 -0.993091 -0.8107 2.8564 0.427913 -0.348126
8 2.24752 0 0 0.742483 0.196537 -0.184311
9 1.11936 0 0 0.0569243 -0.0187488 -0.38543
10 3.71348 -0.102641 0.102191 1.55999 0.843181 0.0798626
11 1.72615 0 0 0.00870227 0.00432158 -1.08945
12 1.21114 0 0 0.00379985 0.0172221 -1.3256
13 3.59919 -1.06012 0.0708883 1.52729 0.379604 0.0109444
14 1.66069 0 0 -0.000891691 0.0778601 -0.234384
15 1.167 0 0 -0.0449929 0.0164959 -0.8571
16 2.18852 0.50104 0.05766 1.52613 0.099798 0.154747
17 1.29609 0 0 0.0247846 -0.039742 -0.746595
18 1.62202 0.000715256 -0.000471115 0.00528192 -0.0126014 -1.12707
19 1.22241 0 0 -0.0199585 0.00621243 -1.25809
20 1.76707 1.27612 0.036641 1.35857 0.244319 0.100604
21 1.55588 0 0 -0.0216193 0.0244014 -0.43056
22 1.24274 0 0 -0.000479203 0.000360515 -0.969328
23 0.784524 0 0 0.00427084 0.00619488 -0.802021
24 -2.4735 6.38035 -5.29598 -0.000932693 0 -1.67936
25 6.02794 0 0 1.30625 0.427928 0.353362
26 11.7344 0 0 0.00140277 0 0.67382
27 8.81167 0 0 0.421162 0 0
28 5.77884 0 0 0.282178 0 0
29 2.23249 0 0 0.138983 0 0
30 11.4725 0 0 0.461639 -0.22386 -0.220807
31 0.615812 0.994373 -0.809165 -2.63072 -0.0229902 0.302397
32 2.24752 0 0 -0.233939 0.119313 0.186604
33 1.11936 0 0 -0.10034 0.146391 0.154007
34 3.71349 0.102639 0.102191 -1.62656 0.647308 -0.011774
35 1.72615 0 0 -0.0140398 -0.00343421 1.05412
36 1.21112 0 0 -0.0114086 0.0134492 0.623938
37 3.5992 1.06012 0.0708886 -1.82885 0.552225 -0.0809853
38 1.66069 0 0 0.0185625 0.0357885 0.837463
39 1.16699 0 0 -0.0214546 -0.0188799 0.512602
40 2.18853 -0.50104 0.0576594 -1.57595 -0.0519129 -0.112472
41 1.29609 0 0 -0.020726 -0.0420008 0.647344
42 1.62201 -0.000714302 -0.000469685 -0.0176409 -0.0302897 0.960613
43 1.22241 0 0 -0.0109008 -0.000363348 0.883798
44 1.76707 -1.27612 0.0366408 -1.57501 0.0279592 -0.0920012
45 1.55588 0 0 -0.0274839 -0.0875848 0.552803
46 1.24273 0 0 0.000478902 0.000360579 1.16748
47 0.784531 0 0 -0.00207166 0.00549203 0.856291
48 0 0 -9.79273 0 0 0
49 5.8314 -23.4639 -6.12397 -0.00933797 0.0119547 -0.00545285
50 0 -0.659979 2.32196 0 0 0
51 -0.0130925 -0.0336628 1.41425 -1.27079 0 0
52 5.82791 -24.816 -5.86722 -0.00616508 0.0119548 -0.00545197
53 0 -0.675062 1.41593 0 0 0
54 0 0.979376 2.33571 0.174533 0 0
55 0 -1.91969 2.85382 0 0 0
56 0 2.062 1.89702 -0.785398 0 0
57 0 -1.66928 2.60403 -0.0368113 0 0
time 27
0 2.90881 6.05823 -3.71544 0.000934124 0 -0.725437
1 6.02794 0 0 -1.11873 0.408759 -0.754267
2 11.7344 0 0 -0.00140291 0 -0.64905
3 8.81139 -0.000450134 -0.000112534 -0.130699 0 0.000157236
4 5.77839 0.000286102 0 -0.0875681 0 0.000104663
5 2.23164 -0.000329971 -0.000364304 -0.0431304 0 0
6 11.4725 0 0 -0.21516 -0.328122 0.27078
7 0.615219 -0.993091 -0.8107 2.8564 0.427913 -0.348126
8 2.24752 0 0 0.742483 0.196537 -0.184311
9 1.11936 0 0 0.0569242 -0.0187487 -0.38543
10 3.71348 -0.102641 0.102191 1.55999 0.843181 0.0798626
11 1.72615 0 0 0.0087023 0.00432157 -1.08945
12 1.21114 0 0 0.00379983 0.017222 -1.32561
13 3.59919 -1.06012 0.0708875 1.52729 0.379604 0.0109444
14 1.66069 0 0 -0.000891695 0.07786 -0.234384
15 1.167 0 0 -0.0449929 0.0164959 -0.8571
16 2.18853 0.50104 0.0576589 1.52613 0.0997979 0.154747
17 1.29609 0 0 0.0247846 -0.039742 -0.746595
18 1.62202 0.000715256 -0.000471115 0.00528191 -0.0126014 -1.12707
19 1.22241 0 0 -0.0199585 0.00621243 -1.25809
20 1.76707 1.27612 0.0366412 1.35857 0.244319 0.100604
21 1.55587 0 0 -0.0216193 0.0244014 -0.43056
22 1.24273 0 0 -0.000479214 0.000360503 -0.969327
23 0.784523 0 0 0.00427085 0.0061949 -0.802021
24 -2.4735 6.38035 -5.29598 -0.000932693 0 -1.67936
25 6.02794 0 0 1.30791 0.423045 0.354466
26 11.7344 0 0 0.00140256 0 0.666055
27 8.81167 0 0 0.423592 0 0
28 5.77884 0 0 0.283807 0 0
29 2.23249 0 0 0.139786 0 0
30 11.4725 0 0 0.463334 -0.221748 -0.219133
31 0.615812 0.994372 -0.809166 -2.63072 -0.0229901 0.302397
32 2.24752 0 0 -0.233939 0.119313 0.186604
33 1.11936 0 0 -0.10034 0.146391 0.154007
34 3.71349 0.102639 0.102191 -1.62656 0.647308 -0.011774
35 1.72615 0 0 -0.0140398 -0.00343419 1.05412
36 1.21112 0 0 -0.0114086 0.0134492 0.623938
37 3.5992 1.06012 0.0708882 -1.82885 0.552225 -0.0809854
38 1.66069 0 0 0.0185625 0.0357885 0.837463
39 1.16699 0 0 -0.0214547 -0.0188799 0.512602
40 2.18853 -0.50104 0.0576593 -1.57595 -0.0519127 -0.112472
41 1.29609 0 0 -0.020726 -0.0420008 0.647344
42 1.62202 -0.000714302 -0.000470161 -0.0176409 -0.0302896 0.960613
43 1.22241 0 0 -0.0109008 -0.000363342 0.883798
44 1.76707 -1.27612 0.0366402 -1.57501 0.0279592 -0.0920013
45 1.55587 0 0 -0.0274839 -0.0875848 0.552803
46 1.24273 0 0 0.000478906 0.000360552 1.16748
47 0.784532 0 0 -0.00207167 0.00549205 0.856291
48 0 0 -9.79273 0 0 0
49 5.83459 -23.4979 -6.10159 -0.00745208 0.00989676 -0.00430494
50 0 -0.659981 2.32196 0 0 0
51 -0.013092 -0.0336628 1.41425 -1.27079 0 0
52 5.83209 -24.8505 -5.84738 -0.0042792 0.0098969 -0.00430408
53 0 -0.675066 1.41593 0 0 0
54 0 0.979376 2.33571 0.174533 0 0
55 0 -1.91969 2.85382 0 0 0
56 0 2.062 1.89702 -0.785398 0 0
57 0 -1.66928 2.60403 -0.0368113 0 0
time 28
0 2.90881 6.05823 -3.71544 0.000934124 0 -0.725437
1 6.02794 0 0 -1.12025 0.404502 -0.756146
2 11.7344 0 0 -0.0014029 0 -0.642174
3 8.81138 -0.000450134 -0.000112534 -0.126039 0 0.000157796
4 5.77839 0.000286102 0 -0.0844459 0 0.000105141
5 2.23163 -0.000329971 -0.000364304 -0.0415928 0 0
6 11.4725 0 0 -0.210486 -0.328544 0.269914
7 0.615219 -0.993092 -0.8107 2.8564 0.427913 -0.348126
8 2.24752 0 0 0.742483 0.196537 -0.184311
9 1.11936 0 0 0.0569243 -0.0187488 -0.38543
10 3.71348 -0.102641 0.102191 1.55999 0.843181 0.0798625
11 1.72615 0 0 0.00870227 0.00432157 -1.08945
12 1.21114 0 0 0.00379984 0.017222 -1.3256
13 3.59919 -1.06012 0.0708885 1.52729 0.379604 0.0109444
14 1.66069 0 0 -0.0008917 0.07786 -0.234383
15 1.167 0 0 -0.0449929 0.0164959 -0.8571
16 2.18852 0.50104 0.0576593 1.52613 0.0997979 0.154747
17 1.29609 0 0 0.0247847 -0.039742 -0.746595
18 1.62202 0.000715256 -0.000470638 0.00528192 -0.0126014 -1.12707
19 1.22241 0 0 -0.0199585 0.00621244 -1.25809
20 1.76707 1.27612 0.036641 1.35857 0.244319 0.100604
21 1.55588 0 0 -0.0216193 0.0244014 -0.43056
22 1.24273 0 0 -0.000479229 0.000360516 -0.969327
23 0.784523 0 0 0.00427086 0.0061949 -0.802021
24 -2.4735 6.38035 -5.29598 -0.000932693 0 -1.67936
25 6.02794 0 0 1.30909 0.418677 0.355534
26 11.7344 0 0 0.00140272 0 0.658468
27 8.81167 0 0 0.428639 0 0
28 5.77884 0 0 0.287188 0 0
29 2.23249 0 0 0.141451 0 0
30 11.4725 0 0 0.467394 -0.219412 -0.216913
31 0.615812 0.994372 -0.809166 -2.63072 -0.02299 0.302397
32 2.24752 0 0 -0.233939 0.119313 0.186604
33 1.11936 0 0 -0.10034 0.146391 0.154007
34 3.71349 0.102639 0.102191 -1.62656 0.647308 -0.0117741
35 1.72615 0 0 -0.0140398 -0.0034342 1.05412
36 1.21112 0 0 -0.0114086 0.0134492 0.623938
37 3.5992 1.06012 0.070888 -1.82885 0.552225 -0.0809854
38 1.66069 0 0 0.0185625 0.0357885 0.837463
39 1.16699 0 0 -0.0214546 -0.0188799 0.512602
40 2.18853 -0.50104 0.0576589 -1.57595 -0.0519127 -0.112472
41 1.29609 0 0 -0.020726 -0.0420008 0.647344
42 1.62201 -0.000711441 -0.000469685 -0.0176409 -0.0302896 0.960613
43 1.22241 0 0 -0.0109008 -0.000363363 0.883798
44 1.76707 -1.27612 0.0366404 -1.57501 0.0279592 -0.0920013
45 1.55588 0 0 -0.0274838 -0.0875848 0.552803
46 1.24273 0 0 0.000478945 0.000360624 1.16748
47 0.784532 0 0 -0.0020717 0.00549201 0.856291
48 0 0 -9.79273 0 0 0
49 5.8394 -23.5277 -6.08578 -0.0054341 0.00580884 -0.0024605
50 0 -0.659983 2.32196 0 0 0
51 -0.013092 -0.0336666 1.41425 -1.27079 0 0
52 5.83834 -24.8808 -5.83429 -0.00226122 0.00580896 -0.00245963
53 0 -0.675066 1.41593 0 0 0
54 0 0.979374 2.33571 0.174533 0 0
55 0 -1.9197 2.85382 0 0 0
56 0 2.062 1.89702 -0.785398 0 0
57 0 -1.66928 2.60403 -0.0368113 0 0
time 29
0 2.90881 6.05823 -3.71544 0.000934124 0 -0.725437
1 6.02794 0 0 -1.12128 0.401497 -0.757479
2 11.7344 0 0 -0.00140286 0 -0.637278
3 8.81138 -0.000451088 -0.000112534 -0.121499 0 0.000158586
4 5.77839 0.000285149 0 -0.0814043 0 0.000105626
5 2.23163 -0.000329971 -0.00036335 -0.0400946 0 0
6 11.4725 0 0 -0.206084 -0.329212 0.26934
7 0.615219 -0.993091 -0.8107 2.8564 0.427913 -0.348126
8 2.24752 0 0 0.742483 0.196537 -0.184311
9 1.11936 0 0 0.0569244 -0.0187487 -0.38543
10 3.71348 -0.102641 0.102192 1.55999 0.843181 0.0798625
11 1.72615 0 0 0.00870227 0.00432157 -1.08945
12 1.21114 0 0 0.00379982 0.0172221 -1.3256
13 3.59919 -1.06012 0.0708878 1.52729 0.379604 0.0109443
14 1.66069 0 0 -0.000891679 0.0778601 -0.234383
15 1.167 0 0 -0.0449929 0.0164959 -0.8571
16 2.18852 0.50104 0.057659 1.52613 0.0997979 0.154747
17 1.29609 0 0 0.0247846 -0.039742 -0.746595
18 1.62202 0.000711441 -0.000471592 0.00528193 -0.0126014 -1.12707
19 1.22241 0 0 -0.0199585 0.00621244 -1.25809
20 1.76707 1.27612 0.0366409 1.35857 0.244319 0.100604
21 1.55587 0 0 -0.0216193 0.0244014 -0.43056
22 1.24273 0 0 -0.000479216 0.000360506 -0.969328
23 0.784523 0 0 0.00427084 0.00619488 -0.802021
24 -2.4735 6.38035 -5.29598 -0.000932693 0 -1.67936
25 6.02794 0 0 1.3098 0.415527 0.356343
26 11.7344 0 0 0.00140272 0 0.652692
27 8.81167 0 0 0.433623 0 0
28 5.77884 0 0 0.290527 0 0
29 2.23249 0 0 0.143096 0 0
30 11.4725 0 0 0.471517 -0.217516 -0.214966
31 0.615812 0.994373 -0.809166 -2.63072 -0.0229901 0.302397
32 2.24752 0 0 -0.233939 0.119313 0.186604
33 1.11935 0 0 -0.10034 0.146391 0.154007
34 3.71349 0.10264 0.102191 -1.62656 0.647308 -0.0117741
35 1.72615 0 0 -0.0140398 -0.0034342 1.05412
36 1.21112 0 0 -0.0114086 0.0134492 0.623938
37 3.5992 1.06012 0.0708883 -1.82885 0.552225 -0.0809855
38 1.66069 0 0 0.0185625 0.0357885 0.837463
39 1.16699 0 0 -0.0214546 -0.0188799 0.512602
40 2.18853 -0.50104 0.0576593 -1.57595 -0.0519127 -0.112472
41 1.29609 0 0 -0.020726 -0.0420008 0.647344
42 1.62202 -0.000713348 -0.000469685 -0.0176409 -0.0302896 0.960613
43 1.22241 0 0 -0.0109009 -0.000363373 0.883798
44 1.76707 -1.27612 0.0366404 -1.57501 0.0279593 -0.0920013
45 1.55588 0 0 -0.0274839 -0.0875848 0.552803
46 1.24273 0 0 0.000478926 0.000360568 1.16748
47 0.784532 0 0 -0.00207168 0.00549203 0.856291
48 0 0 -9.79273 0 0 0
49 5.84382 -23.5489 -6.0764 -0.00382808 0.00180471 -0.000752054
50 0 -0.659979 2.32196 0 0 0
51 -0.0130925 -0.0336609 1.41425 -1.27079 0 0
52 5.84406 -24.9024 -5.82707 -0.000655177 0.00180483 -0.000751173
53 0 -0.675066 1.41593 0 0 0
54 0 0.979378 2.33571 0.174533 0 0
55 0 -1.91969 2.85382 0 0 0
56 0 2.062 1.89702 -0.785398 0 0
57 0 -1.66928 2.60403 -0.0368113 0 0
time 30
0 2.90881 6.05823 -3.71544 0.000934124 0 -0.725437
1 6.02794 0 0 -1.12166 0.400354 -0.75799
2 11.7344 0 0 -0.00140289 0 -0.635402
3 8.81138 -0.000450134 -0.000112534 -0.11946 0 0.000158715
4 5.77839 0.000286102 0 -0.0800383 0 0.000105814
5 2.23163 -0.000329018 -0.00036335 -0.0394218 0 0
6 11.4725 0 0 -0.204133 -0.329562 0.269127
7 0.615219 -0.993091 -0.8107 2.8564 0.427914 -0.348126
8 2.24752 0 0 0.742483 0.196537 -0.184311
9 1.11936 0 0 0.0569243 -0.0187488 -0.38543
10 3.71348 -0.102641 0.102191 1.55999 0.843181 0.0798623
11 1.72615 0 0 0.00870228 0.00432157 -1.08945
12 1.21114 0 0 0.00379982 0.0172221 -1.32561
13 3.59919 -1.06012 0.0708882 1.52729 0.379604 0.0109443
14 1.66069 0 0 -0.000891693 0.0778601 -0.234384
15 1.167 0 0 -0.0449929 0.0164959 -0.8571
16 2.18852 0.50104 0.0576593 1.52613 0.0997979 0.154747
17 1.29609 0 0 0.0247846 -0.039742 -0.746595
18 1.62202 0.000713348 -0.000471592 0.00528193 -0.0126014 -1.12707
19 1.22241 0 0 -0.0199585 0.00621242 -1.25809
20 1.76707 1.27612 0.0366412 1.35857 0.244319 0.100604
21 1.55588 0 0 -0.0216193 0.0244014 -0.43056
22 1.24273 0 0 -0.000479213 0.000360516 -0.969327
23 0.784523 0 0 0.00427085 0.00619488 -0.802021
24 -2.4735 6.38035 -5.29598 -0.000932693 0 -1.67936
25 6.02794 0 0 1.31004 0.414315 0.356666
26 11.7344 0 0 0.00140266 0 0.650394
27 8.81167 0 0 0.435876 0 0
28 5.77884 0 0 0.292037 0 0
29 2.23249 0 0 0.143839 0 0
30 11.4725 0 0 0.473402 -0.216736 -0.214129
31 0.615814 0.994372 -0.809166 -2.63072 -0.02299 0.302397
32 2.24751 0 0 -0.233939 0.119313 0.186604
33 1.11936 0 0 -0.10034 0.146391 0.154007
34 3.71349 0.102639 0.102191 -1.62656 0.647308 -0.0117741
35 1.72615 0 0 -0.0140398 -0.00343417 1.05412
36 1.21112 0 0 -0.0114086 0.0134492 0.623938
37 3.5992 1.06012 0.070888 -1.82885 0.552225 -0.0809854
38 1.66069 0 0 0.0185625 0.0357885 0.837463
39 1.16699 0 0 -0.0214546 -0.0188799 0.512602
40 2.18853 -0.501041 0.0576591 -1.57595 -0.0519126 -0.112472
41 1.29609 0 0 -0.020726 -0.0420007 0.647344
42 1.62202 -0.000712395 -0.000469685 -0.0176409 -0.0302896 0.960613
43 1.22241 0 0 -0.0109009 -0.000363407 0.883798
44 1.76707 -1.27612 0.0366406 -1.57501 0.0279594 -0.0920013
45 1.55588 0 0 -0.0274838 -0.0875848 0.552803
46 1.24273 0 0 0.000478933 0.000360674 1.16748
47 0.784532 0 0 -0.00207171 0.00549202 0.856291
48 0 0 -9.79273 0 0 0
49 5.84575 -23.557 -6.07331 -0.00317329 0 0
50 0 -0.659983 2.32196 0 0 0
51 -0.013092 -0.0336647 1.41425 -1.27079 0 0
52 5.84656 -24.9106 -5.82486 0 0 0
53 0 -0.675064 1.41593 0 0 0
54 0 0.979378 2.33571 0.174533 0 0
55 0 -1.91969 2.85382 0 0 0
56 0 2.062 1.89702 -0.785398 0 0
57 0 -1.66928 2.60403 -0.0368113 0 0
end
