//Sequence File generated by the Wall Worm SMD Exporter PRO 1.99
//www.wallworm.com
version 1
nodes
0 "b_l_clav" -1
1 "b_l_upperarm" 0
2 "b_l_forearm" 1
3 "b_l_twist3" 2
4 "b_l_twist2" 2
5 "b_l_twist1" 2
6 "b_l_hand" 2
7 "b_l_thumb001" 6
8 "b_l_thumb002" 7
9 "b_l_thumb003" 8
10 "b_l_middle001" 6
11 "b_l_middle002" 10
12 "b_l_middle003" 11
13 "b_l_index001" 6
14 "b_l_index002" 13
15 "b_l_index003" 14
16 "b_l_hand_ringsqueezer" 6
17 "b_l_ring001" 16
18 "b_l_ring002" 17
19 "b_l_ring003" 18
20 "b_l_hand_pinkysqueezer" 6
21 "b_l_pinky001" 20
22 "b_l_pinky002" 21
23 "b_l_pinky003" 22
24 "b_r_clav" -1
25 "b_r_upperarm" 24
26 "b_r_forearm" 25
27 "b_r_twist3" 26
28 "b_r_twist2" 26
29 "b_r_twist1" 26
30 "b_r_hand" 26
31 "b_r_thumb001" 30
32 "b_r_thumb002" 31
33 "b_r_thumb003" 32
34 "b_r_middle001" 30
35 "b_r_middle002" 34
36 "b_r_middle003" 35
37 "b_r_index001" 30
38 "b_r_index002" 37
39 "b_r_index003" 38
40 "b_r_hand_ringsqueezer" 30
41 "b_r_ring001" 40
42 "b_r_ring002" 41
43 "b_r_ring003" 42
44 "b_r_hand_pinkysqueezer" 30
45 "b_r_pinky001" 44
46 "b_r_pinky002" 45
47 "b_r_pinky003" 46
48 "b_zero" -1
49 "d_clip" -1
50 "d_magfollower" 49
51 "d_boolet" 49
52 "d_gun" -1
53 "d_trig" 52
54 "d_slidelock" 52
55 "d_slide" 52
56 "d_ham" 52
57 "d_barrel" 52
end
skeleton
time 0
0 2.90881 6.05823 -3.71544 0.000934124 0 -0.725437
1 6.02794 0 0 -1.12166 0.400354 -0.75799
2 11.7344 0 0 -0.00140284 0 -0.635402
3 8.81138 -0.000450134 -0.00011301 -0.11946 0 0.00015899
4 5.77839 0.000286102 0 -0.0800382 0 0.000106139
5 2.23163 -0.000329018 -0.00036478 -0.0394217 0 0
6 11.4725 0 0 -0.204133 -0.329562 0.269127
7 0.615221 -0.993092 -0.8107 2.8564 0.427914 -0.348126
8 2.24752 0 0 0.742483 0.196537 -0.184311
9 1.11935 0 0 0.0569244 -0.0187487 -0.38543
10 3.71348 -0.102641 0.102191 1.55999 0.843182 0.0798624
11 1.72615 0 0 0.00870224 0.00432159 -1.08945
12 1.21114 0 0 0.00379986 0.017222 -1.32561
13 3.59919 -1.06012 0.0708874 1.52729 0.379604 0.0109443
14 1.66069 0 0 -0.000891705 0.0778601 -0.234384
15 1.167 0 0 -0.0449929 0.0164959 -0.8571
16 2.18852 0.50104 0.0576588 1.52613 0.099798 0.154747
17 1.29609 0 0 0.0247846 -0.039742 -0.746595
18 1.62202 0.000715256 -0.000471115 0.00528193 -0.0126014 -1.12707
19 1.22241 0 0 -0.0199585 0.00621245 -1.25809
20 1.76707 1.27612 0.0366408 1.35857 0.244319 0.100604
21 1.55588 0 0 -0.0216193 0.0244014 -0.43056
22 1.24273 0 0 -0.000479204 0.000360516 -0.969327
23 0.784523 0 0 0.00427084 0.00619487 -0.802021
24 -2.4735 6.38035 -5.29598 -0.000932693 0 -1.67936
25 6.02794 0 0 1.30986 0.415211 0.356429
26 11.7344 0 0 0.00140258 0 0.653476
27 8.81167 0 0 0.435757 0 0
28 5.77884 0 0 0.291957 0 0
29 2.23249 0 0 0.1438 0 0
30 11.4725 0 0 0.474608 -0.216101 -0.219437
31 0.615812 0.994372 -0.809165 -2.63072 -0.0229901 0.302397
32 2.24752 0 0 -0.233939 0.119313 0.186604
33 1.11935 0 0 -0.10034 0.146391 0.154007
34 3.71349 0.102639 0.102191 -1.62656 0.647308 -0.011774
35 1.72615 0 0 -0.0140398 -0.00343418 1.05412
36 1.21112 0 0 -0.0114087 0.0134492 0.623938
37 3.5992 1.06012 0.0708884 -1.82885 0.552225 -0.0809853
38 1.66069 0 0 0.0185625 0.0357885 0.837463
39 1.16699 0 0 -0.0214546 -0.0188799 0.512602
40 2.18853 -0.50104 0.0576594 -1.57595 -0.0519129 -0.112472
41 1.29609 0 0 -0.020726 -0.0420008 0.647344
42 1.62202 -0.000713348 -0.000470161 -0.0176409 -0.0302896 0.960613
43 1.22241 0 0 -0.0109008 -0.000363346 0.883798
44 1.76707 -1.27612 0.0366409 -1.57501 0.0279592 -0.0920012
45 1.55588 0 0 -0.0274838 -0.0875848 0.552803
46 1.24273 0 0 0.000478912 0.000360595 1.16748
47 0.784532 0 0 -0.0020717 0.00549201 0.856291
48 0 0 -9.79273 0 0 0
49 5.84656 -23.5497 -6.07014 0 0 0
50 0 -0.584455 2.04671 0 0 0
51 -0.0130916 -0.755096 2.39133 0 0 0
52 5.84656 -24.9106 -5.82486 0 0 0
53 0 -0.675064 1.41593 0 0 0
54 0 0.979378 2.2232 0 0 0
55 0 -3.93658 2.85382 0 0 0
56 0 2.062 1.89702 0.0872663 0 0
57 0 -1.66928 2.73772 0 0 0
time 1
0 2.90881 6.05823 -3.71544 0.000934124 0 -0.725437
1 6.02794 0 0 -1.09592 0.489468 -0.711231
2 11.7344 0 0 -0.00140288 0 -0.829041
3 8.81138 -0.000449181 -0.00011158 -0.0602575 0 0.000158445
4 5.77839 0.000286102 0 -0.0403726 0 0.000106017
5 2.23163 -0.000329971 -0.00036335 -0.019885 0 0
6 11.4725 0 0 -0.180885 -0.336546 0.354486
7 0.615219 -0.993091 -0.8107 2.8564 0.427913 -0.348126
8 2.24752 0 0 0.742483 0.196537 -0.184311
9 1.11936 0 0 0.0569243 -0.0187488 -0.38543
10 3.71348 -0.102641 0.102191 1.55999 0.843181 0.0798626
11 1.72615 0 0 0.00870228 0.00432156 -1.08945
12 1.21114 0 0 0.00379982 0.017222 -1.3256
13 3.59919 -1.06012 0.0708879 1.52729 0.379604 0.0109444
14 1.66069 0 0 -0.000891683 0.07786 -0.234383
15 1.167 0 0 -0.0449929 0.0164959 -0.8571
16 2.18852 0.501039 0.0576595 1.52613 0.0997978 0.154747
17 1.29609 0 0 0.0247847 -0.039742 -0.746595
18 1.62202 0.000715256 -0.000471115 0.00528191 -0.0126013 -1.12707
19 1.22241 0 0 -0.0199585 0.00621245 -1.25809
20 1.76707 1.27612 0.0366406 1.35857 0.244319 0.100604
21 1.55588 0 0 -0.0216193 0.0244014 -0.43056
22 1.24273 0 0 -0.00047922 0.000360513 -0.969328
23 0.784523 0 0 0.00427084 0.00619488 -0.802021
24 -2.4735 6.38035 -5.29598 -0.000932693 0 -1.67936
25 6.02794 0 0 1.27419 0.502961 0.334925
26 11.7344 0 0 0.00140265 0 0.829545
27 8.81167 0 0 0.454861 0 0
28 5.77884 0 0 0.304757 0 0
29 2.23249 0 0 0.150104 0 0
30 11.4725 0 0 0.51891 -0.23675 -0.30221
31 0.615814 0.994372 -0.809165 -2.63072 -0.0229901 0.302397
32 2.24752 0 0 -0.233939 0.119313 0.186604
33 1.11936 0 0 -0.10034 0.146391 0.154007
34 3.71349 0.102639 0.102191 -1.62656 0.647308 -0.011774
35 1.72615 0 0 -0.0140398 -0.00343421 1.05412
36 1.21112 0 0 -0.0114086 0.0134492 0.623938
37 3.5992 1.06012 0.0708882 -1.82885 0.552225 -0.0809855
38 1.66069 0 0 0.0185625 0.0357885 0.837463
39 1.16699 0 0 -0.0214546 -0.0188799 0.512602
40 2.18853 -0.501041 0.0576589 -1.57595 -0.0519128 -0.112472
41 1.29609 0 0 -0.020726 -0.0420008 0.647344
42 1.62202 -0.000713348 -0.000469685 -0.0176409 -0.0302896 0.960613
43 1.22241 0 0 -0.0109009 -0.00036338 0.883798
44 1.76707 -1.27612 0.0366402 -1.57501 0.0279591 -0.0920012
45 1.55587 0 0 -0.0274839 -0.0875849 0.552803
46 1.24273 0 0 0.000478934 0.000360601 1.16748
47 0.784532 0 0 -0.00207164 0.00549207 0.856291
48 0 0 -9.79273 0 0 0
49 5.83334 -22.7382 -6.06295 -0.00497986 -0.0260965 0.000116676
50 0 -0.584455 2.04671 0 0 0
51 -0.0130916 -0.755098 2.39133 0 0 0
52 5.82692 -24.0979 -5.81098 -0.00497996 -0.0260964 0.00011724
53 0 -0.515924 1.48105 0.253209 0 0
54 0 0.979376 2.2232 0 0 0
55 0 -2.93409 2.85382 0 0 0
56 0 2.062 1.89702 -0.349066 0 0
57 0 -1.66928 2.68516 -0.0179903 0 0
time 2
0 2.90881 6.05823 -3.71544 0.000934124 0 -0.725437
1 6.02794 0 0 -1.09086 0.512907 -0.696733
2 11.7344 0 0 -0.00140295 0 -0.896369
3 8.81138 -0.000451088 -0.000111103 -0.00535212 0 0.000158929
4 5.77839 0.000286102 0 -0.00358594 0 0.000106475
5 2.23163 -0.000330925 -0.000362396 -0.00176624 0 0
6 11.4725 0 0 -0.125737 -0.346278 0.342776
7 0.615219 -0.993092 -0.8107 2.8564 0.427913 -0.348127
8 2.24752 0 0 0.742483 0.196537 -0.184311
9 1.11936 0 0 0.0569243 -0.0187487 -0.38543
10 3.71348 -0.102641 0.10219 1.55999 0.843181 0.0798624
11 1.72615 0 0 0.00870227 0.00432161 -1.08945
12 1.21114 0 0 0.00379992 0.0172221 -1.3256
13 3.59919 -1.06012 0.0708884 1.52729 0.379604 0.0109442
14 1.66069 0 0 -0.000891651 0.0778601 -0.234384
15 1.167 0 0 -0.0449929 0.0164959 -0.8571
16 2.18853 0.50104 0.0576588 1.52613 0.0997979 0.154747
17 1.29609 0 0 0.0247846 -0.039742 -0.746595
18 1.62202 0.000713348 -0.000471592 0.00528193 -0.0126014 -1.12707
19 1.22241 0 0 -0.0199585 0.00621244 -1.25809
20 1.76707 1.27612 0.0366409 1.35857 0.244319 0.100604
21 1.55588 0 0 -0.0216193 0.0244014 -0.43056
22 1.24273 0 0 -0.000479228 0.000360506 -0.969327
23 0.784523 0 0 0.00427085 0.00619488 -0.802021
24 -2.4735 6.38035 -5.29598 -0.000932693 0 -1.67936
25 6.02794 0 0 1.26172 0.523083 0.329577
26 11.7344 0 0 0.00140271 0 0.880079
27 8.81167 0 0 0.495098 0 0
28 5.77884 0 0 0.331715 0 0
29 2.23249 0 0 0.163382 0 0
30 11.4725 0 0 0.556356 -0.263285 -0.290343
31 0.615814 0.994373 -0.809165 -2.63072 -0.0229901 0.302397
32 2.24752 0 0 -0.233939 0.119313 0.186604
33 1.11935 0 0 -0.10034 0.146391 0.154007
34 3.71349 0.10264 0.102191 -1.62656 0.647308 -0.011774
35 1.72615 0 0 -0.0140398 -0.0034342 1.05412
36 1.21112 0 0 -0.0114087 0.0134492 0.623938
37 3.5992 1.06012 0.0708882 -1.82885 0.552225 -0.0809854
38 1.66069 0 0 0.0185625 0.0357885 0.837463
39 1.16699 0 0 -0.0214546 -0.0188799 0.512602
40 2.18853 -0.50104 0.0576591 -1.57595 -0.0519127 -0.112472
41 1.29609 0 0 -0.020726 -0.0420008 0.647344
42 1.62201 -0.000712395 -0.000469208 -0.0176409 -0.0302896 0.960613
43 1.22241 0 0 -0.0109008 -0.00036336 0.883798
44 1.76707 -1.27612 0.0366409 -1.57501 0.0279592 -0.0920012
45 1.55588 0 0 -0.0274839 -0.0875848 0.552803
46 1.24273 0 0 0.00047891 0.000360585 1.16748
47 0.784531 0 0 -0.0020717 0.00549201 0.856291
48 0 0 -9.79273 0 0 0
49 5.78568 -22.4156 -5.76649 -0.0446945 -0.0733109 -0.0032557
50 0 -0.584455 2.04671 0 0 0
51 -0.013092 -0.755095 2.39133 0 0 0
52 5.75889 -23.7642 -5.46148 -0.0446946 -0.0733107 -0.00325514
53 0 -0.515924 1.48105 0.253209 0 0
54 0 0.979374 2.2232 0 0 0
55 0 -1.9316 2.85382 0 0 0
56 0 2.062 1.89702 -0.785398 0 0
57 0 -1.66928 2.6326 -0.0359804 0 0
time 3
0 2.90881 6.05823 -3.71544 0.000934124 0 -0.725437
1 6.02794 0 0 -1.10112 0.498341 -0.702755
2 11.7344 0 0 -0.00140295 0 -0.891342
3 8.81139 -0.000451088 -0.000112534 0.0254301 0 0.000158682
4 5.77839 0.000286102 0 0.0170381 0 0.000106489
5 2.23163 -0.000329971 -0.000364304 0.00839197 0 0
6 11.4725 0 0 -0.0551542 -0.362003 0.221225
7 0.615219 -0.993092 -0.8107 2.8564 0.427913 -0.348126
8 2.24752 0 0 0.742483 0.196537 -0.184311
9 1.11936 0 0 0.0569243 -0.0187487 -0.38543
10 3.71348 -0.102641 0.102191 1.55999 0.843181 0.0798627
11 1.72615 0 0 0.00870228 0.00432153 -1.08945
12 1.21114 0 0 0.0037998 0.0172221 -1.3256
13 3.59919 -1.06012 0.0708883 1.52729 0.379604 0.0109445
14 1.66069 0 0 -0.000891673 0.07786 -0.234384
15 1.167 0 0 -0.0449929 0.0164959 -0.8571
16 2.18853 0.50104 0.0576588 1.52613 0.0997979 0.154747
17 1.29609 0 0 0.0247846 -0.039742 -0.746595
18 1.62202 0.000713348 -0.000471115 0.00528193 -0.0126014 -1.12707
19 1.22241 0 0 -0.0199585 0.0062124 -1.25809
20 1.76707 1.27612 0.036641 1.35857 0.244319 0.100604
21 1.55588 0 0 -0.0216193 0.0244014 -0.43056
22 1.24273 0 0 -0.00047922 0.000360514 -0.969328
23 0.784523 0 0 0.00427084 0.00619489 -0.802021
24 -2.4735 6.38035 -5.29598 -0.000932693 0 -1.67936
25 6.02794 0 0 1.27297 0.496691 0.337628
26 11.7344 0 0 0.0014027 0 0.848012
27 8.81167 0 0 0.525239 0 0
28 5.77884 0 0 0.35191 0 0
29 2.23249 0 0 0.173329 0 0
30 11.4725 0 0 0.549215 -0.309723 -0.169184
31 0.615816 0.994372 -0.809166 -2.63072 -0.0229901 0.302397
32 2.24752 0 0 -0.233939 0.119313 0.186604
33 1.11936 0 0 -0.10034 0.146391 0.154007
34 3.71349 0.102639 0.10219 -1.62656 0.647308 -0.011774
35 1.72615 0 0 -0.0140398 -0.0034342 1.05412
36 1.21112 0 0 -0.0114086 0.0134492 0.623938
37 3.5992 1.06012 0.0708883 -1.82885 0.552225 -0.0809854
38 1.66069 0 0 0.0185625 0.0357885 0.837463
39 1.16699 0 0 -0.0214546 -0.0188799 0.512602
40 2.18853 -0.50104 0.0576587 -1.57595 -0.0519127 -0.112472
41 1.29609 0 0 -0.020726 -0.0420008 0.647344
42 1.62202 -0.000714302 -0.000469208 -0.0176409 -0.0302897 0.960613
43 1.22241 0 0 -0.0109008 -0.000363317 0.883798
44 1.76707 -1.27612 0.0366402 -1.57501 0.0279592 -0.0920013
45 1.55588 0 0 -0.0274838 -0.0875849 0.552803
46 1.24273 0 0 0.000478917 0.000360576 1.16748
47 0.784532 0 0 -0.00207169 0.00549207 0.856291
48 0 0 -9.79273 0 0 0
49 5.66941 -22.4006 -5.09246 -0.158622 -0.123316 -0.0121889
50 0 -0.584454 2.04671 0 0 0
51 -0.0130916 -0.755095 2.39133 0 0 0
52 5.59728 -23.7049 -4.63876 -0.158622 -0.123316 -0.0121883
53 0 -0.515923 1.48105 0.253209 0 0
54 0 0.979376 2.2232 0 0 0
55 0 -1.9316 2.85382 0 0 0
56 0 2.062 1.89702 -0.785398 0 0
57 0 -1.66928 2.6326 -0.0359804 0 0
time 4
0 2.90881 6.05823 -3.71544 0.000934124 0 -0.725437
1 6.02794 0 0 -1.10937 0.484395 -0.708743
2 11.7344 0 0 -0.00140293 0 -0.880851
3 8.81139 -0.000450134 -0.000112057 0.0415803 0 0.000158667
4 5.77839 0.000286102 0 0.0278588 0 0.000106412
5 2.23163 -0.000329971 -0.00036335 0.0137215 0 0
6 11.4725 0 0 0.0068658 -0.372848 0.0878616
7 0.615217 -0.993092 -0.8107 2.8564 0.427913 -0.348126
8 2.24752 0 0 0.742483 0.196537 -0.184311
9 1.11936 0 0 0.0569242 -0.0187487 -0.38543
10 3.71348 -0.102642 0.102191 1.55999 0.843181 0.0798626
11 1.72615 0 0 0.00870228 0.00432156 -1.08945
12 1.21114 0 0 0.0037999 0.017222 -1.32561
13 3.59919 -1.06012 0.0708881 1.52729 0.379604 0.0109445
14 1.66069 0 0 -0.000891702 0.07786 -0.234384
15 1.167 0 0 -0.0449929 0.016496 -0.8571
16 2.18852 0.50104 0.0576593 1.52613 0.0997979 0.154747
17 1.29609 0 0 0.0247846 -0.039742 -0.746595
18 1.62202 0.000710487 -0.000470161 0.00528196 -0.0126014 -1.12707
19 1.22241 0 0 -0.0199585 0.00621245 -1.25809
20 1.76707 1.27612 0.0366411 1.35857 0.244319 0.100604
21 1.55588 0 0 -0.0216193 0.0244014 -0.43056
22 1.24273 0 0 -0.000479206 0.000360488 -0.969328
23 0.784523 0 0 0.00427086 0.00619489 -0.802021
24 -2.4735 6.38035 -5.29598 -0.000932693 0 -1.67936
25 6.02794 0 0 1.28457 0.46854 0.34539
26 11.7344 0 0 0.00140273 0 0.809114
27 8.81167 0 0 0.543105 0 0
28 5.77884 0 0 0.363881 0 0
29 2.23249 0 0 0.179225 0 0
30 11.4725 0 0 0.524425 -0.353847 -0.0342087
31 0.615814 0.994372 -0.809165 -2.63072 -0.0229901 0.302397
32 2.24752 0 0 -0.233939 0.119313 0.186604
33 1.11935 0 0 -0.10034 0.146391 0.154007
34 3.71349 0.102639 0.102191 -1.62656 0.647308 -0.0117742
35 1.72615 0 0 -0.0140398 -0.00343419 1.05412
36 1.21112 0 0 -0.0114086 0.0134493 0.623938
37 3.5992 1.06012 0.0708883 -1.82885 0.552225 -0.0809855
38 1.66069 0 0 0.0185626 0.0357885 0.837463
39 1.16699 0 0 -0.0214547 -0.0188799 0.512602
40 2.18853 -0.501041 0.0576584 -1.57595 -0.0519128 -0.112472
41 1.29609 0 0 -0.020726 -0.0420008 0.647344
42 1.62202 -0.000713348 -0.000470161 -0.0176408 -0.0302897 0.960613
43 1.22241 0 0 -0.0109007 -0.000363285 0.883798
44 1.76707 -1.27612 0.0366414 -1.57501 0.0279594 -0.0920013
45 1.55587 0 0 -0.0274839 -0.0875848 0.552803
46 1.24273 0 0 0.000478932 0.000360503 1.16748
47 0.784532 0 0 -0.00207169 0.00549208 0.856291
48 0 0 -9.79273 0 0 0
49 5.54114 -22.3481 -4.47748 -0.279722 -0.164931 -0.0167425
50 0 -0.584455 2.04671 0 0 0
51 -0.0130916 -0.755096 2.39133 0 0 0
52 5.41999 -23.5865 -3.8743 -0.279723 -0.164931 -0.016742
53 0 -0.515923 1.48105 0.253209 0 0
54 0 0.979378 2.2232 0 0 0
55 0 -1.9316 2.85382 0 0 0
56 0 2.062 1.89702 -0.785398 0 0
57 0 -1.66928 2.6326 -0.0359803 0 0
time 5
0 2.90881 6.05823 -3.71544 0.000934124 0 -0.725437
1 6.02794 0 0 -1.11109 0.48214 -0.709498
2 11.7344 0 0 -0.00140288 0 -0.881272
3 8.81138 -0.000450134 -0.000112057 0.0403443 0 0.000158867
4 5.77839 0.000286102 0 0.0270306 0 0.00010672
5 2.23163 -0.000329018 -0.000363827 0.0133135 0 0
6 11.4725 0 0 0.0246792 -0.375068 0.0353572
7 0.615217 -0.993091 -0.8107 2.8564 0.427913 -0.348126
8 2.24752 0 0 0.742483 0.196537 -0.184311
9 1.11935 0 0 0.0569243 -0.0187487 -0.38543
10 3.71348 -0.10264 0.102191 1.55999 0.843181 0.0798625
11 1.72615 0 0 0.00870228 0.00432156 -1.08945
12 1.21114 0 0 0.00379983 0.017222 -1.3256
13 3.59919 -1.06012 0.0708882 1.52729 0.379604 0.0109443
14 1.66068 0 0 -0.000891733 0.0778601 -0.234384
15 1.167 0 0 -0.044993 0.016496 -0.8571
16 2.18852 0.50104 0.0576588 1.52613 0.0997978 0.154747
17 1.29609 0 0 0.0247847 -0.039742 -0.746595
18 1.62202 0.000712395 -0.000471115 0.00528191 -0.0126014 -1.12707
19 1.22241 0 0 -0.0199585 0.00621244 -1.25809
20 1.76707 1.27612 0.0366405 1.35857 0.244319 0.100604
21 1.55588 0 0 -0.0216193 0.0244014 -0.43056
22 1.24273 0 0 -0.000479283 0.000360506 -0.969328
23 0.784523 0 0 0.00427085 0.00619492 -0.802021
24 -2.4735 6.38035 -5.29598 -0.000932693 0 -1.67936
25 6.02794 0 0 1.28812 0.460953 0.347205
26 11.7344 0 0 0.00140272 0 0.800221
27 8.81167 0 0 0.541964 0 0
28 5.77884 0 0 0.363116 0 0
29 2.23249 0 0 0.178848 0 0
30 11.4725 0 0 0.506321 -0.371556 0.0181019
31 0.615812 0.994372 -0.809166 -2.63072 -0.0229902 0.302397
32 2.24752 0 0 -0.233939 0.119313 0.186604
33 1.11936 0 0 -0.10034 0.146391 0.154007
34 3.71349 0.102639 0.102191 -1.62656 0.647308 -0.0117739
35 1.72615 0 0 -0.0140398 -0.00343417 1.05412
36 1.21112 0 0 -0.0114087 0.0134492 0.623938
37 3.5992 1.06012 0.0708883 -1.82885 0.552225 -0.0809853
38 1.66069 0 0 0.0185625 0.0357885 0.837463
39 1.16699 0 0 -0.0214546 -0.0188799 0.512602
40 2.18853 -0.501041 0.0576594 -1.57595 -0.0519129 -0.112472
41 1.29609 0 0 -0.020726 -0.0420008 0.647344
42 1.62202 -0.000713348 -0.000471115 -0.0176409 -0.0302896 0.960613
43 1.22241 0 0 -0.0109007 -0.000363345 0.883798
44 1.76707 -1.27612 0.0366411 -1.57501 0.0279593 -0.0920013
45 1.55587 0 0 -0.0274838 -0.0875848 0.552803
46 1.24273 0 0 0.000478903 0.000360487 1.16748
47 0.784532 0 0 -0.00207162 0.00549204 0.856291
48 0 0 -9.79273 0 0 0
49 5.48495 -22.283 -4.25765 -0.329266 -0.175705 -0.0202412
50 0 -0.584455 2.04671 0 0 0
51 -0.0130925 -0.755098 2.39133 0 0 0
52 5.34302 -23.4889 -3.59584 -0.329266 -0.175705 -0.0202406
53 0 -0.580759 1.45452 0.15005 0 0
54 0 0.97938 2.2232 0 0 0
55 0 -1.9316 2.85382 0 0 0
56 0 2.062 1.89702 -0.785398 0 0
57 0 -1.66928 2.6326 -0.0359804 0 0
time 6
0 2.90881 6.05823 -3.71544 0.000934124 0 -0.725437
1 6.02794 0 0 -1.11165 0.478837 -0.711471
2 11.7344 0 0 -0.00140285 0 -0.870669
3 8.81138 -0.000451088 -0.00011158 0.0215804 0 0.000158794
4 5.77839 0.000287056 0 0.0144588 0 0.000106615
5 2.23163 -0.000329971 -0.00036335 0.00712161 0 0
6 11.4725 0 0 0.00696747 -0.372539 0.0362679
7 0.615217 -0.993092 -0.8107 2.8564 0.427914 -0.348126
8 2.24752 0 0 0.742483 0.196537 -0.184311
9 1.11936 0 0 0.0569244 -0.0187487 -0.38543
10 3.71348 -0.102641 0.102191 1.55999 0.843181 0.0798625
11 1.72615 0 0 0.00870227 0.00432152 -1.08945
12 1.21114 0 0 0.00379989 0.0172221 -1.32561
13 3.59919 -1.06012 0.0708876 1.52729 0.379604 0.0109444
14 1.66069 0 0 -0.000891739 0.07786 -0.234384
15 1.167 0 0 -0.0449929 0.0164959 -0.8571
16 2.18852 0.501038 0.0576586 1.52613 0.0997979 0.154747
17 1.29609 0 0 0.0247846 -0.0397419 -0.746595
18 1.62202 0.000713348 -0.000471115 0.00528196 -0.0126014 -1.12707
19 1.22241 0 0 -0.0199585 0.00621248 -1.25809
20 1.76707 1.27612 0.0366403 1.35857 0.244319 0.100604
21 1.55588 0 0 -0.0216193 0.0244014 -0.43056
22 1.24274 0 0 -0.00047919 0.000360522 -0.969327
23 0.784523 0 0 0.0042708 0.00619488 -0.802021
24 -2.4735 6.38035 -5.29598 -0.000932693 0 -1.67936
25 6.02794 0 0 1.29024 0.459403 0.347174
26 11.7344 0 0 0.00140277 0 0.795901
27 8.81167 0 0 0.526124 0 0
28 5.77884 0 0 0.352503 0 0
29 2.23249 0 0 0.173621 0 0
30 11.4725 0 0 0.492318 -0.369564 0.014408
31 0.615815 0.994373 -0.809165 -2.63072 -0.02299 0.302397
32 2.24752 0 0 -0.233939 0.119313 0.186604
33 1.11935 0 0 -0.10034 0.146391 0.154007
34 3.71349 0.10264 0.102191 -1.62656 0.647308 -0.011774
35 1.72615 0 0 -0.0140397 -0.00343413 1.05412
36 1.21112 0 0 -0.0114087 0.0134492 0.623938
37 3.5992 1.06012 0.0708885 -1.82885 0.552225 -0.0809854
38 1.66069 0 0 0.0185624 0.0357885 0.837463
39 1.16699 0 0 -0.0214546 -0.0188799 0.512602
40 2.18853 -0.50104 0.0576594 -1.57595 -0.0519128 -0.112472
41 1.29609 0 0 -0.020726 -0.0420008 0.647344
42 1.62202 -0.000713348 -0.000469208 -0.0176409 -0.0302896 0.960613
43 1.22241 0 0 -0.0109008 -0.000363352 0.883798
44 1.76707 -1.27612 0.0366406 -1.57501 0.0279592 -0.0920013
45 1.55588 0 0 -0.0274838 -0.0875848 0.552803
46 1.24273 0 0 0.000478911 0.000360553 1.16748
47 0.784531 0 0 -0.00207164 0.005492 0.856291
48 0 0 -9.79273 0 0 0
49 5.48524 -22.3352 -4.30037 -0.323983 -0.161352 -0.0277222
50 0 -0.584455 2.04671 0 0 0
51 -0.0170536 -1.43898 2.62601 -0.259841 0.0132238 -0.0236805
52 5.34473 -23.5438 -3.64325 -0.323983 -0.161352 -0.0277217
53 0 -0.645594 1.42799 0.0468908 0 0
54 0 0.979378 2.2232 0 0 0
55 0 -2.59993 2.85382 0 0 0
56 0 2.062 1.89702 -0.785398 0 0
57 0 -1.66928 2.66764 -0.0239872 0 0
time 7
0 2.90881 6.05823 -3.71544 0.000934124 0 -0.725437
1 6.02794 0 0 -1.11163 0.474544 -0.714371
2 11.7344 0 0 -0.00140287 0 -0.852731
3 8.81138 -0.000449181 -0.000112534 -0.00768649 0 0.00015862
4 5.77839 0.00028801 0 -0.00515 0 0.000106318
5 2.23163 -0.000329018 -0.000364304 -0.00253657 0 0
6 11.4725 0 0 -0.0332884 -0.36676 0.0728321
7 0.615219 -0.993091 -0.8107 2.8564 0.427913 -0.348127
8 2.24752 0 0 0.742483 0.196537 -0.184311
9 1.11936 0 0 0.0569244 -0.0187488 -0.38543
10 3.71348 -0.10264 0.10219 1.55999 0.843181 0.0798624
11 1.72615 0 0 0.0087023 0.00432158 -1.08945
12 1.21114 0 0 0.00379991 0.017222 -1.3256
13 3.59919 -1.06012 0.0708873 1.52729 0.379604 0.0109442
14 1.66069 0 0 -0.000891677 0.0778601 -0.234384
15 1.167 0 0 -0.0449929 0.0164959 -0.8571
16 2.18853 0.50104 0.0576587 1.52613 0.099798 0.154747
17 1.29609 0 0 0.0247846 -0.039742 -0.746595
18 1.62202 0.000715256 -0.000471115 0.00528195 -0.0126014 -1.12707
19 1.22241 0 0 -0.0199585 0.00621243 -1.25809
20 1.76707 1.27612 0.0366406 1.35857 0.244319 0.100604
21 1.55588 0 0 -0.0216193 0.0244014 -0.43056
22 1.24273 0 0 -0.00047921 0.000360528 -0.969327
23 0.784523 0 0 0.00427084 0.00619486 -0.802021
24 -2.4735 6.38035 -5.29598 -0.000932693 0 -1.67936
25 6.02794 0 0 1.29153 0.461413 0.346092
26 11.7344 0 0 0.00140266 0 0.794475
27 8.81167 0 0 0.500627 0 0
28 5.77884 0 0 0.33542 0 0
29 2.23249 0 0 0.165207 0 0
30 11.4725 0 0 0.481577 -0.35421 -0.0267453
31 0.61581 0.994371 -0.809165 -2.63072 -0.0229901 0.302397
32 2.24752 0 0 -0.233939 0.119313 0.186604
33 1.11936 0 0 -0.10034 0.146391 0.154007
34 3.71348 0.10264 0.10219 -1.62656 0.647308 -0.011774
35 1.72615 0 0 -0.0140398 -0.00343423 1.05412
36 1.21112 0 0 -0.0114086 0.0134492 0.623938
37 3.5992 1.06012 0.0708878 -1.82885 0.552225 -0.0809855
38 1.66069 0 0 0.0185625 0.0357885 0.837463
39 1.16699 0 0 -0.0214546 -0.0188799 0.512602
40 2.18853 -0.50104 0.0576589 -1.57595 -0.0519127 -0.112472
41 1.29609 0 0 -0.020726 -0.0420008 0.647344
42 1.62202 -0.000711441 -0.000469208 -0.0176409 -0.0302896 0.960613
43 1.22241 0 0 -0.0109008 -0.000363332 0.883798
44 1.76707 -1.27612 0.0366402 -1.57501 0.0279593 -0.0920014
45 1.55588 0 0 -0.0274839 -0.0875848 0.552803
46 1.24273 0 0 0.000478919 0.000360565 1.16748
47 0.784531 0 0 -0.00207168 0.00549207 0.856291
48 0 0 -9.79273 0 0 0
49 5.5244 -22.462 -4.51131 -0.282762 -0.130264 -0.0356559
50 0 -0.584455 2.04671 0 0 0
51 -0.00251198 -2.19047 2.90547 -0.0426537 0.00661199 -0.0118402
52 5.40038 -23.6968 -3.90128 -0.282762 -0.130264 -0.0356554
53 0 -0.675062 1.41593 0 0 0
54 0 0.979378 2.2232 0 0 0
55 0 -3.26826 2.85382 0 0 0
56 0 2.062 1.89702 -0.785398 0 0
57 0 -1.66927 2.70268 -0.0119933 0 0
time 8
0 2.90881 6.05823 -3.71544 0.000934124 0 -0.725437
1 6.02794 0 0 -1.11141 0.470098 -0.717473
2 11.7344 0 0 -0.00140294 0 -0.832794
3 8.81138 -0.000450134 -0.000112057 -0.040853 0 0.000158691
4 5.77839 0.000286102 0 -0.0273715 0 0.000106052
5 2.23163 -0.000329971 -0.000363827 -0.0134816 0 0
6 11.4725 0 0 -0.08345 -0.358245 0.127936
7 0.615219 -0.993092 -0.8107 2.8564 0.427913 -0.348126
8 2.24752 0 0 0.742483 0.196537 -0.184311
9 1.11936 0 0 0.0569244 -0.0187488 -0.38543
10 3.71348 -0.102641 0.10219 1.55999 0.843181 0.0798625
11 1.72615 0 0 0.0087023 0.00432158 -1.08945
12 1.21114 0 0 0.00379984 0.017222 -1.3256
13 3.59919 -1.06012 0.0708882 1.52729 0.379604 0.0109443
14 1.66068 0 0 -0.000891704 0.07786 -0.234384
15 1.167 0 0 -0.044993 0.016496 -0.8571
16 2.18852 0.50104 0.0576586 1.52613 0.0997979 0.154747
17 1.29609 0 0 0.0247847 -0.039742 -0.746595
18 1.62202 0.000715256 -0.000471115 0.00528189 -0.0126014 -1.12707
19 1.22241 0 0 -0.0199585 0.00621245 -1.25809
20 1.76707 1.27612 0.0366412 1.35857 0.244319 0.100604
21 1.55588 0 0 -0.0216193 0.0244014 -0.43056
22 1.24274 0 0 -0.000479235 0.000360511 -0.969327
23 0.784523 0 0 0.00427085 0.00619488 -0.802021
24 -2.4735 6.38035 -5.29598 -0.000932693 0 -1.67936
25 6.02794 0 0 1.29262 0.464472 0.344692
26 11.7344 0 0 0.00140274 0 0.794377
27 8.81167 0 0 0.469722 0 0
28 5.77884 0 0 0.314714 0 0
29 2.23249 0 0 0.155008 0 0
30 11.4725 0 0 0.47156 -0.330877 -0.0861528
31 0.615814 0.994372 -0.809166 -2.63072 -0.02299 0.302397
32 2.24752 0 0 -0.233939 0.119313 0.186604
33 1.11936 0 0 -0.10034 0.146391 0.154007
34 3.71349 0.10264 0.10219 -1.62656 0.647308 -0.0117741
35 1.72615 0 0 -0.0140398 -0.00343417 1.05412
36 1.21112 0 0 -0.0114086 0.0134492 0.623938
37 3.5992 1.06012 0.070888 -1.82885 0.552225 -0.0809855
38 1.66069 0 0 0.0185625 0.0357885 0.837463
39 1.16699 0 0 -0.0214547 -0.0188799 0.512602
40 2.18853 -0.501041 0.057659 -1.57595 -0.0519126 -0.112472
41 1.29609 0 0 -0.020726 -0.0420008 0.647344
42 1.62202 -0.000714302 -0.000469208 -0.0176409 -0.0302897 0.960613
43 1.22241 0 0 -0.0109008 -0.000363329 0.883798
44 1.76707 -1.27612 0.0366404 -1.57501 0.0279594 -0.0920014
45 1.55588 0 0 -0.0274839 -0.0875848 0.552803
46 1.24273 0 0 0.000478969 0.000360586 1.16748
47 0.784531 0 0 -0.0020717 0.00549202 0.856291
48 0 0 -9.79273 0 0 0
49 5.58402 -22.6117 -4.80034 -0.224479 -0.0906836 -0.0398917
50 0 -0.584455 2.04671 0 0 0
51 -0.0130916 -3.02063 3.02549 0 0 0
52 5.48423 -23.881 -4.2605 -0.22448 -0.0906834 -0.0398911
53 0 -0.675064 1.41593 0 0 0
54 0 0.979378 2.2232 0 0 0
55 0 -3.93658 2.85382 0 0 0
56 0 2.062 1.89702 -0.785398 0 0
57 0 -1.66928 2.73772 0 0 0
time 9
0 2.90881 6.05823 -3.71544 0.000934124 0 -0.725437
1 6.02794 0 0 -1.11143 0.466006 -0.720214
2 11.7344 0 0 -0.00140281 0 -0.815508
3 8.81138 -0.000449181 -0.00011158 -0.0707305 0 0.000158844
4 5.77839 0.000287056 0 -0.0473893 0 0.000106194
5 2.23164 -0.000329018 -0.000363827 -0.023341 0 0
6 11.4725 0 0 -0.130628 -0.348527 0.184392
7 0.615221 -0.993091 -0.810699 2.8564 0.427913 -0.348126
8 2.24752 0 0 0.742483 0.196537 -0.184311
9 1.11936 0 0 0.0569242 -0.0187487 -0.38543
10 3.71348 -0.102641 0.102191 1.55999 0.843181 0.0798627
11 1.72615 0 0 0.00870229 0.00432153 -1.08945
12 1.21114 0 0 0.00379983 0.017222 -1.3256
13 3.59919 -1.06012 0.0708885 1.52729 0.379604 0.0109444
14 1.66069 0 0 -0.000891739 0.0778601 -0.234384
15 1.167 0 0 -0.0449929 0.016496 -0.8571
16 2.18853 0.50104 0.0576593 1.52613 0.099798 0.154747
17 1.29609 0 0 0.0247846 -0.039742 -0.746595
18 1.62202 0.000715256 -0.000472069 0.00528194 -0.0126014 -1.12707
19 1.22241 0 0 -0.0199585 0.00621243 -1.25809
20 1.76707 1.27612 0.0366409 1.35857 0.244319 0.100604
21 1.55588 0 0 -0.0216193 0.0244014 -0.43056
22 1.24273 0 0 -0.000479224 0.000360513 -0.969328
23 0.784523 0 0 0.00427085 0.00619488 -0.802021
24 -2.4735 6.38035 -5.29598 -0.000932693 0 -1.67936
25 6.02794 0 0 1.29387 0.466787 0.343524
26 11.7344 0 0 0.00140262 0 0.79493
27 8.81167 0 0 0.439557 0 0
28 5.77884 0 0 0.294503 0 0
29 2.23249 0 0 0.145054 0 0
30 11.4725 0 0 0.46154 -0.306047 -0.145606
31 0.615812 0.994373 -0.809166 -2.63072 -0.0229901 0.302397
32 2.24752 0 0 -0.233939 0.119313 0.186604
33 1.11936 0 0 -0.10034 0.146391 0.154007
34 3.71349 0.10264 0.102191 -1.62656 0.647308 -0.011774
35 1.72615 0 0 -0.0140398 -0.00343416 1.05412
36 1.21112 0 0 -0.0114087 0.0134492 0.623938
37 3.5992 1.06012 0.0708884 -1.82885 0.552225 -0.0809855
38 1.66069 0 0 0.0185625 0.0357885 0.837463
39 1.16699 0 0 -0.0214546 -0.0188799 0.512602
40 2.18853 -0.50104 0.0576591 -1.57595 -0.0519128 -0.112472
41 1.29609 0 0 -0.020726 -0.0420007 0.647344
42 1.62202 -0.000712395 -0.000469208 -0.0176409 -0.0302896 0.960613
43 1.22241 0 0 -0.0109009 -0.000363372 0.883798
44 1.76707 -1.27612 0.0366409 -1.57501 0.0279592 -0.0920013
45 1.55588 0 0 -0.0274838 -0.0875848 0.552803
46 1.24273 0 0 0.000478947 0.000360654 1.16748
47 0.784532 0 0 -0.00207175 0.00549205 0.856291
48 0 0 -9.79273 0 0 0
49 5.64517 -22.7391 -5.074 -0.166973 -0.0523319 -0.0390761
50 0 -0.584455 2.04671 0 0 0
51 -0.013092 -3.02063 3.02549 0 0 0
52 5.56987 -24.0384 -4.60659 -0.166973 -0.0523318 -0.0390756
53 0 -0.675062 1.41593 0 0 0
54 0 0.979378 2.2232 0 0 0
55 0 -3.93658 2.85382 0 0 0
56 0 2.062 1.89702 -0.785398 0 0
57 0 -1.66928 2.73772 0 0 0
time 10
0 2.90881 6.05823 -3.71544 0.000934124 0 -0.725437
1 6.02794 0 0 -1.11103 0.463339 -0.722203
2 11.7344 0 0 -0.00140286 0 -0.802346
3 8.81138 -0.000450134 -0.000112534 -0.0912045 0 0.000158923
4 5.77839 0.000286102 0 -0.0611071 0 0.000106158
5 2.23163 -0.000329971 -0.000365257 -0.0300976 0 0
6 11.4725 0 0 -0.162597 -0.3419 0.222245
7 0.615221 -0.993091 -0.8107 2.8564 0.427913 -0.348126
8 2.24752 0 0 0.742483 0.196537 -0.184311
9 1.11936 0 0 0.0569244 -0.0187488 -0.38543
10 3.71348 -0.10264 0.102191 1.55999 0.843181 0.0798625
11 1.72615 0 0 0.00870227 0.00432157 -1.08945
12 1.21114 0 0 0.00379984 0.017222 -1.3256
13 3.5992 -1.06012 0.070888 1.52729 0.379604 0.0109443
14 1.66069 0 0 -0.00089167 0.0778601 -0.234383
15 1.167 0 0 -0.0449929 0.0164959 -0.8571
16 2.18853 0.50104 0.0576584 1.52613 0.0997979 0.154747
17 1.29609 0 0 0.0247846 -0.039742 -0.746595
18 1.62202 0.000715256 -0.000471115 0.00528195 -0.0126014 -1.12707
19 1.22241 0 0 -0.0199585 0.00621241 -1.25809
20 1.76707 1.27612 0.0366414 1.35857 0.244319 0.100604
21 1.55588 0 0 -0.0216193 0.0244014 -0.43056
22 1.24274 0 0 -0.000479221 0.000360519 -0.969327
23 0.784523 0 0 0.00427085 0.00619488 -0.802021
24 -2.4735 6.38035 -5.29598 -0.000932693 0 -1.67936
25 6.02794 0 0 1.29463 0.467949 0.342908
26 11.7344 0 0 0.00140263 0 0.793078
27 8.81167 0 0 0.419842 0 0
28 5.77884 0 0 0.281294 0 0
29 2.23249 0 0 0.138548 0 0
30 11.4725 0 0 0.454309 -0.287879 -0.184471
31 0.615814 0.994372 -0.809165 -2.63072 -0.0229901 0.302397
32 2.24752 0 0 -0.233939 0.119313 0.186604
33 1.11936 0 0 -0.10034 0.146391 0.154007
34 3.71349 0.102639 0.102191 -1.62656 0.647308 -0.011774
35 1.72615 0 0 -0.0140399 -0.00343418 1.05412
36 1.21112 0 0 -0.0114087 0.0134492 0.623938
37 3.5992 1.06012 0.0708883 -1.82885 0.552225 -0.0809853
38 1.66069 0 0 0.0185625 0.0357885 0.837463
39 1.16699 0 0 -0.0214546 -0.0188799 0.512602
40 2.18853 -0.50104 0.0576587 -1.57595 -0.0519128 -0.112472
41 1.29609 0 0 -0.020726 -0.0420008 0.647344
42 1.62202 -0.000712395 -0.000471115 -0.0176409 -0.0302897 0.960613
43 1.22241 0 0 -0.0109008 -0.000363337 0.883798
44 1.76707 -1.27612 0.0366409 -1.57501 0.0279592 -0.0920012
45 1.55588 0 0 -0.0274838 -0.0875848 0.552803
46 1.24273 0 0 0.000478937 0.000360599 1.16748
47 0.784532 0 0 -0.00207166 0.00549203 0.856291
48 0 0 -9.79273 0 0 0
49 5.68954 -22.8245 -5.28321 -0.127257 -0.0261665 -0.0355476
50 0 -0.584455 2.04671 0 0 0
51 -0.0130916 -3.02063 3.02549 0 0 0
52 5.63179 -24.142 -4.86733 -0.127257 -0.0261664 -0.0355471
53 0 -0.675064 1.41593 0 0 0
54 0 0.97938 2.2232 0 0 0
55 0 -3.93659 2.85382 0 0 0
56 0 2.062 1.89702 -0.785398 0 0
57 0 -1.66928 2.73772 0 0 0
time 11
0 2.90881 6.05823 -3.71544 0.000934124 0 -0.725437
1 6.02794 0 0 -1.10971 0.461964 -0.723771
2 11.7344 0 0 -0.00140288 0 -0.79052
3 8.81139 -0.000450134 -0.000112057 -0.103685 0 0.000158654
4 5.77839 0.000286102 0 -0.0694689 0 0.000105925
5 2.23164 -0.000329971 -0.00036335 -0.0342161 0 0
6 11.4725 0 0 -0.182564 -0.339293 0.245842
7 0.615217 -0.993092 -0.810699 2.8564 0.427913 -0.348126
8 2.24752 0 0 0.742483 0.196537 -0.184311
9 1.11936 0 0 0.0569243 -0.0187487 -0.38543
10 3.71348 -0.10264 0.102191 1.55999 0.843181 0.0798624
11 1.72615 0 0 0.00870228 0.00432156 -1.08945
12 1.21114 0 0 0.00379985 0.017222 -1.3256
13 3.59919 -1.06012 0.0708878 1.52729 0.379604 0.0109443
14 1.66069 0 0 -0.000891706 0.07786 -0.234384
15 1.167 0 0 -0.0449929 0.016496 -0.8571
16 2.18852 0.50104 0.0576589 1.52613 0.0997979 0.154747
17 1.29609 0 0 0.0247846 -0.039742 -0.746595
18 1.62202 0.000713348 -0.000471115 0.00528193 -0.0126014 -1.12707
19 1.22241 0 0 -0.0199585 0.00621242 -1.25809
20 1.76707 1.27612 0.0366405 1.35857 0.244319 0.100604
21 1.55588 0 0 -0.0216193 0.0244014 -0.43056
22 1.24273 0 0 -0.000479219 0.000360517 -0.969327
23 0.784523 0 0 0.00427085 0.00619488 -0.802021
24 -2.4735 6.38035 -5.29598 -0.000932693 0 -1.67936
25 6.02794 0 0 1.29442 0.468745 0.342679
26 11.7344 0 0 0.00140277 0 0.787614
27 8.81167 0 0 0.411236 0 0
28 5.77884 0 0 0.275528 0 0
29 2.23249 0 0 0.135708 0 0
30 11.4725 0 0 0.452188 -0.27418 -0.20679
31 0.615812 0.994372 -0.809166 -2.63072 -0.02299 0.302397
32 2.24752 0 0 -0.233939 0.119313 0.186604
33 1.11936 0 0 -0.10034 0.146391 0.154007
34 3.71349 0.102639 0.102191 -1.62656 0.647308 -0.0117739
35 1.72615 0 0 -0.0140398 -0.00343415 1.05412
36 1.21112 0 0 -0.0114086 0.0134492 0.623938
37 3.5992 1.06012 0.0708883 -1.82885 0.552225 -0.0809853
38 1.66069 0 0 0.0185625 0.0357885 0.837463
39 1.16699 0 0 -0.0214547 -0.0188799 0.512602
40 2.18853 -0.50104 0.0576587 -1.57595 -0.0519127 -0.112472
41 1.29609 0 0 -0.020726 -0.0420008 0.647344
42 1.62202 -0.000713348 -0.000470161 -0.0176409 -0.0302897 0.960613
43 1.22241 0 0 -0.0109008 -0.000363317 0.883798
44 1.76707 -1.27612 0.0366402 -1.57501 0.0279593 -0.0920012
45 1.55588 0 0 -0.0274838 -0.0875849 0.552803
46 1.24273 0 0 0.00047894 0.000360596 1.16748
47 0.784532 0 0 -0.00207167 0.00549201 0.856291
48 0 0 -9.79273 0 0 0
49 5.72509 -22.8897 -5.47234 -0.0994853 -0.0106831 -0.0301033
50 0 -0.584455 2.04671 0 0 0
51 -0.0130916 -0.755095 2.39133 0 0 0
52 5.68102 -24.2188 -5.09312 -0.0994854 -0.0106829 -0.0301027
53 0 -0.675062 1.41593 0 0 0
54 0 0.97938 2.2232 0 0 0
55 0 -3.93659 2.85382 0 0 0
56 0 2.062 1.89702 -0.785398 0 0
57 0 -1.66928 2.73772 0 0 0
time 12
0 2.90881 6.05823 -3.71544 0.000934124 0 -0.725437
1 6.02794 0 0 -1.10817 0.4609 -0.725245
2 11.7344 0 0 -0.00140286 0 -0.77899
3 8.81139 -0.000449181 -0.000112057 -0.112894 0 0.000158936
4 5.77839 0.000286102 0 -0.0756389 0 0.000105759
5 2.23163 -0.000329018 -0.000363827 -0.0372551 0 0
6 11.4725 0 0 -0.20084 -0.33722 0.272743
7 0.615219 -0.993092 -0.8107 2.8564 0.427913 -0.348126
8 2.24752 0 0 0.742483 0.196537 -0.184311
9 1.11936 0 0 0.0569245 -0.0187487 -0.38543
10 3.71348 -0.102642 0.102191 1.55999 0.843181 0.0798623
11 1.72615 0 0 0.00870228 0.00432153 -1.08945
12 1.21114 0 0 0.00379983 0.017222 -1.3256
13 3.59919 -1.06012 0.0708876 1.52729 0.379605 0.0109444
14 1.66069 0 0 -0.000891657 0.0778601 -0.234384
15 1.167 0 0 -0.0449929 0.0164959 -0.8571
16 2.18852 0.50104 0.0576586 1.52613 0.099798 0.154747
17 1.29609 0 0 0.0247846 -0.039742 -0.746595
18 1.62202 0.000713348 -0.000471115 0.00528192 -0.0126013 -1.12707
19 1.22241 0 0 -0.0199585 0.00621244 -1.25809
20 1.76707 1.27612 0.0366408 1.35857 0.244319 0.100604
21 1.55588 0 0 -0.0216193 0.0244014 -0.43056
22 1.24273 0 0 -0.000479219 0.000360513 -0.969327
23 0.784523 0 0 0.00427085 0.00619489 -0.802021
24 -2.4735 6.38035 -5.29598 -0.000932693 0 -1.67936
25 6.02794 0 0 1.29381 0.469635 0.342523
26 11.7344 0 0 0.00140277 0 0.781485
27 8.81167 0 0 0.406116 0 0
28 5.77884 0 0 0.272097 0 0
29 2.23249 0 0 0.134018 0 0
30 11.4725 0 0 0.453216 -0.258039 -0.230665
31 0.61581 0.994372 -0.809165 -2.63072 -0.0229901 0.302397
32 2.24752 0 0 -0.233939 0.119313 0.186604
33 1.11936 0 0 -0.10034 0.146391 0.154007
34 3.71348 0.102639 0.102191 -1.62656 0.647308 -0.0117741
35 1.72615 0 0 -0.0140398 -0.0034342 1.05412
36 1.21112 0 0 -0.0114086 0.0134492 0.623938
37 3.5992 1.06012 0.070888 -1.82885 0.552225 -0.0809853
38 1.66069 0 0 0.0185625 0.0357885 0.837463
39 1.16699 0 0 -0.0214546 -0.0188799 0.512602
40 2.18853 -0.50104 0.0576595 -1.57595 -0.0519127 -0.112472
41 1.29609 0 0 -0.020726 -0.0420008 0.647344
42 1.62202 -0.000711441 -0.000470161 -0.0176409 -0.0302896 0.960613
43 1.22241 0 0 -0.0109008 -0.000363323 0.883798
44 1.76707 -1.27612 0.0366406 -1.57501 0.0279592 -0.0920011
45 1.55588 0 0 -0.0274839 -0.0875848 0.552803
46 1.24273 0 0 0.000478924 0.000360531 1.16748
47 0.784531 0 0 -0.00207168 0.00549202 0.856291
48 0 0 -9.79273 0 0 0
49 5.76747 -22.9526 -5.6794 -0.0685475 0.00275577 -0.0216589
50 0 -0.584455 2.04671 0 0 0
51 -0.0130911 -0.755096 2.39133 0 0 0
52 5.73936 -24.2932 -5.34148 -0.0685476 0.0027559 -0.0216584
53 0 -0.675064 1.41593 0 0 0
54 0 0.979378 2.2232 0 0 0
55 0 -3.93659 2.85382 0 0 0
56 0 2.062 1.89702 -0.785398 0 0
57 0 -1.66928 2.73772 0 0 0
time 13
0 2.90881 6.05823 -3.71544 0.000934124 0 -0.725437
1 6.02794 0 0 -1.10691 0.459298 -0.726955
2 11.7344 0 0 -0.00140292 0 -0.767089
3 8.81138 -0.000450134 -0.000112534 -0.119215 0 0.000158272
4 5.77839 0.000286102 0 -0.0798742 0 0.000105628
5 2.23164 -0.000329971 -0.00036335 -0.0393412 0 0
6 11.4725 0 0 -0.21649 -0.335208 0.299575
7 0.615219 -0.993091 -0.810699 2.8564 0.427913 -0.348126
8 2.24752 0 0 0.742483 0.196537 -0.184311
9 1.11936 0 0 0.0569245 -0.0187488 -0.38543
10 3.71348 -0.10264 0.102191 1.55999 0.843182 0.0798626
11 1.72615 0 0 0.00870229 0.00432158 -1.08945
12 1.21113 0 0 0.00379986 0.017222 -1.3256
13 3.59919 -1.06012 0.0708883 1.52729 0.379604 0.0109443
14 1.66069 0 0 -0.00089168 0.0778601 -0.234384
15 1.167 0 0 -0.0449929 0.016496 -0.8571
16 2.18853 0.50104 0.0576589 1.52613 0.0997978 0.154747
17 1.29609 0 0 0.0247847 -0.039742 -0.746595
18 1.62202 0.000711441 -0.000471115 0.00528191 -0.0126014 -1.12707
19 1.22241 0 0 -0.0199585 0.00621242 -1.25809
20 1.76707 1.27612 0.0366406 1.35857 0.244319 0.100604
21 1.55587 0 0 -0.0216193 0.0244014 -0.43056
22 1.24273 0 0 -0.000479222 0.000360518 -0.969327
23 0.784523 0 0 0.00427085 0.00619488 -0.802021
24 -2.4735 6.38035 -5.29598 -0.000932693 0 -1.67936
25 6.02794 0 0 1.2932 0.469855 0.342609
26 11.7344 0 0 0.00140273 0 0.774358
27 8.81167 0 0 0.403866 0 0
28 5.77884 0 0 0.27059 0 0
29 2.23249 0 0 0.133276 0 0
30 11.4725 0 0 0.456136 -0.241255 -0.253672
31 0.615812 0.994372 -0.809166 -2.63072 -0.0229901 0.302397
32 2.24752 0 0 -0.233939 0.119313 0.186604
33 1.11936 0 0 -0.10034 0.146391 0.154007
34 3.71348 0.102639 0.102191 -1.62656 0.647308 -0.011774
35 1.72615 0 0 -0.0140398 -0.00343419 1.05412
36 1.21112 0 0 -0.0114086 0.0134492 0.623938
37 3.5992 1.06012 0.070888 -1.82885 0.552225 -0.0809855
38 1.66069 0 0 0.0185625 0.0357885 0.837463
39 1.16699 0 0 -0.0214546 -0.0188799 0.512602
40 2.18853 -0.501041 0.0576595 -1.57595 -0.0519128 -0.112472
41 1.29609 0 0 -0.020726 -0.0420008 0.647344
42 1.62202 -0.000713348 -0.000469208 -0.0176409 -0.0302897 0.960613
43 1.22241 0 0 -0.0109008 -0.000363364 0.883798
44 1.76707 -1.27612 0.0366409 -1.57501 0.0279593 -0.0920012
45 1.55588 0 0 -0.0274839 -0.0875849 0.552803
46 1.24273 0 0 0.000478921 0.000360582 1.16748
47 0.784531 0 0 -0.0020717 0.00549205 0.856291
48 0 0 -9.79273 0 0 0
49 5.81086 -23.0102 -5.88034 -0.0374095 0.0135788 -0.0118178
50 0 -0.584455 2.04671 0 0 0
51 -0.0130916 -0.755098 2.39133 0 0 0
52 5.79891 -24.361 -5.58436 -0.0374096 0.0135789 -0.0118172
53 0 -0.675062 1.41593 0 0 0
54 0 0.97938 2.2232 0 0 0
55 0 -3.93659 2.85382 0 0 0
56 0 2.062 1.89702 -0.785398 0 0
57 0 -1.66928 2.73772 0 0 0
time 14
0 2.90881 6.05823 -3.71544 0.000934124 0 -0.725437
1 6.02794 0 0 -1.10618 0.457336 -0.728653
2 11.7344 0 0 -0.00140282 0 -0.756488
3 8.81138 -0.000450134 -0.000112057 -0.12244 0 0.000159052
4 5.77839 0.000286102 0 -0.0820348 0 0.000105993
5 2.23164 -0.000329971 -0.000362873 -0.0404052 0 0
6 11.4725 0 0 -0.228392 -0.332991 0.32414
7 0.615221 -0.99309 -0.8107 2.8564 0.427913 -0.348126
8 2.24752 0 0 0.742483 0.196537 -0.184311
9 1.11936 0 0 0.0569243 -0.0187488 -0.38543
10 3.71348 -0.102641 0.102191 1.55999 0.843182 0.0798622
11 1.72614 0 0 0.00870227 0.00432155 -1.08945
12 1.21114 0 0 0.00379982 0.017222 -1.3256
13 3.59919 -1.06012 0.0708878 1.52729 0.379604 0.0109443
14 1.66069 0 0 -0.000891678 0.07786 -0.234384
15 1.167 0 0 -0.0449929 0.0164959 -0.8571
16 2.18853 0.50104 0.0576593 1.52613 0.0997979 0.154747
17 1.29609 0 0 0.0247846 -0.039742 -0.746595
18 1.62202 0.000713348 -0.000471115 0.00528193 -0.0126014 -1.12707
19 1.22241 0 0 -0.0199585 0.00621245 -1.25809
20 1.76707 1.27612 0.0366408 1.35857 0.244319 0.100604
21 1.55588 0 0 -0.0216193 0.0244014 -0.43056
22 1.24273 0 0 -0.000479218 0.000360511 -0.969327
23 0.784523 0 0 0.00427086 0.0061949 -0.802021
24 -2.4735 6.38035 -5.29598 -0.000932693 0 -1.67936
25 6.02794 0 0 1.29284 0.469469 0.342842
26 11.7344 0 0 0.00140274 0 0.767609
27 8.81167 0 0 0.403703 0 0
28 5.77884 0 0 0.270481 0 0
29 2.23249 0 0 0.133222 0 0
30 11.4725 0 0 0.46004 -0.225709 -0.274361
31 0.615812 0.994372 -0.809166 -2.63072 -0.0229901 0.302397
32 2.24752 0 0 -0.233939 0.119313 0.186605
33 1.11936 0 0 -0.10034 0.146391 0.154007
34 3.71349 0.102639 0.102191 -1.62656 0.647308 -0.0117741
35 1.72615 0 0 -0.0140398 -0.00343421 1.05412
36 1.21112 0 0 -0.0114086 0.0134492 0.623938
37 3.5992 1.06012 0.0708879 -1.82885 0.552225 -0.0809855
38 1.66069 0 0 0.0185625 0.0357885 0.837463
39 1.16699 0 0 -0.0214546 -0.0188799 0.512602
40 2.18853 -0.50104 0.0576593 -1.57595 -0.0519128 -0.112472
41 1.29609 0 0 -0.020726 -0.0420008 0.647344
42 1.62201 -0.000713348 -0.000470638 -0.0176409 -0.0302897 0.960613
43 1.22241 0 0 -0.0109008 -0.000363373 0.883798
44 1.76707 -1.27612 0.0366404 -1.57501 0.0279594 -0.0920013
45 1.55588 0 0 -0.0274838 -0.0875848 0.552803
46 1.24273 0 0 0.00047891 0.000360558 1.16748
47 0.784532 0 0 -0.00207166 0.00549202 0.856291
48 0 0 -9.79273 0 0 0
49 5.84965 -23.0612 -6.05078 -0.00905694 0.0212389 -0.00226281
50 0 -0.584455 2.04671 0 0 0
51 -0.0130916 -0.755102 2.39133 0 0 0
52 5.85205 -24.4199 -5.79324 -0.00905702 0.021239 -0.00226225
53 0 -0.675066 1.41593 0 0 0
54 0 0.979376 2.2232 0 0 0
55 0 -3.93658 2.85382 0 0 0
56 0 2.062 1.89702 -0.785398 0 0
57 0 -1.66928 2.73772 0 0 0
time 15
0 2.90881 6.05823 -3.71544 0.000934124 0 -0.725437
1 6.02794 0 0 -1.10643 0.454396 -0.730532
2 11.7344 0 0 -0.00140286 0 -0.747045
3 8.81138 -0.000449181 -0.000112057 -0.122611 0 0.000158349
4 5.77839 0.000286102 0 -0.0821493 0 0.000105707
5 2.23163 -0.000329971 -0.000362873 -0.0404615 0 0
6 11.4725 0 0 -0.235289 -0.330491 0.343331
7 0.615219 -0.993091 -0.810699 2.8564 0.427913 -0.348126
8 2.24752 0 0 0.742483 0.196537 -0.184311
9 1.11936 0 0 0.0569242 -0.0187487 -0.38543
10 3.71348 -0.102641 0.102191 1.55999 0.843181 0.0798625
11 1.72615 0 0 0.00870227 0.00432159 -1.08945
12 1.21114 0 0 0.00379986 0.0172221 -1.3256
13 3.59919 -1.06012 0.070888 1.52729 0.379604 0.0109443
14 1.66069 0 0 -0.000891683 0.0778601 -0.234384
15 1.167 0 0 -0.0449929 0.0164959 -0.8571
16 2.18852 0.50104 0.0576587 1.52613 0.0997979 0.154747
17 1.29609 0 0 0.0247846 -0.039742 -0.746595
18 1.62202 0.000711441 -0.000471592 0.00528193 -0.0126014 -1.12707
19 1.22241 0 0 -0.0199585 0.00621242 -1.25809
20 1.76707 1.27612 0.0366409 1.35857 0.244319 0.100604
21 1.55588 0 0 -0.0216193 0.0244014 -0.43056
22 1.24274 0 0 -0.000479227 0.000360527 -0.969328
23 0.784523 0 0 0.00427087 0.0061949 -0.802021
24 -2.4735 6.38035 -5.29598 -0.000932693 0 -1.67936
25 6.02794 0 0 1.2931 0.467853 0.343352
26 11.7344 0 0 0.00140275 0 0.761141
27 8.81167 0 0 0.405176 0 0
28 5.77884 0 0 0.271468 0 0
29 2.23249 0 0 0.133708 0 0
30 11.4725 0 0 0.46433 -0.213328 -0.290608
31 0.615816 0.994372 -0.809165 -2.63072 -0.0229901 0.302397
32 2.24752 0 0 -0.233939 0.119313 0.186604
33 1.11936 0 0 -0.10034 0.146391 0.154007
34 3.71349 0.102638 0.102191 -1.62656 0.647308 -0.011774
35 1.72615 0 0 -0.0140398 -0.00343414 1.05412
36 1.21112 0 0 -0.0114086 0.0134492 0.623938
37 3.5992 1.06012 0.0708883 -1.82885 0.552225 -0.0809854
38 1.66069 0 0 0.0185625 0.0357885 0.837463
39 1.16699 0 0 -0.0214546 -0.0188799 0.512602
40 2.18853 -0.501041 0.057659 -1.57595 -0.0519129 -0.112472
41 1.29609 0 0 -0.020726 -0.0420008 0.647344
42 1.62201 -0.000712395 -0.000470161 -0.0176409 -0.0302896 0.960613
43 1.22241 0 0 -0.0109008 -0.000363368 0.883798
44 1.76707 -1.27612 0.0366402 -1.57501 0.0279593 -0.0920012
45 1.55588 0 0 -0.0274838 -0.0875848 0.552803
46 1.24273 0 0 0.000478947 0.000360594 1.16748
47 0.784532 0 0 -0.00207168 0.00549205 0.856291
48 0 0 -9.79273 0 0 0
49 5.87854 -23.1057 -6.16612 0.0135055 0.0252258 0.0053212
50 0 -0.584454 2.04671 0 0 0
51 -0.0130916 -0.755096 2.39133 0 0 0
52 5.89152 -24.4698 -5.93931 0.0135055 0.0252259 0.00532176
53 0 -0.675066 1.41593 0 0 0
54 0 0.979374 2.2232 0 0 0
55 0 -3.93658 2.85382 0 0 0
56 0 2.062 1.89702 -0.785398 0 0
57 0 -1.66928 2.73772 0 0 0
time 16
0 2.90881 6.05823 -3.71544 0.000934124 0 -0.725437
1 6.02794 0 0 -1.10792 0.450501 -0.732425
2 11.7344 0 0 -0.00140289 0 -0.740043
3 8.81139 -0.000450134 -0.000112534 -0.119459 0 0.000158618
4 5.77839 0.000286102 0 -0.0800376 0 0.000105628
5 2.23163 -0.000329971 -0.00036335 -0.0394215 0 0
6 11.4725 0 0 -0.235907 -0.327762 0.354779
7 0.615219 -0.993091 -0.8107 2.8564 0.427914 -0.348126
8 2.24752 0 0 0.742483 0.196537 -0.184311
9 1.11936 0 0 0.0569242 -0.0187488 -0.38543
10 3.71348 -0.102641 0.102191 1.55999 0.843181 0.0798624
11 1.72615 0 0 0.00870229 0.00432158 -1.08945
12 1.21114 0 0 0.00379985 0.017222 -1.3256
13 3.59919 -1.06012 0.070888 1.52729 0.379604 0.0109443
14 1.66069 0 0 -0.000891702 0.07786 -0.234384
15 1.167 0 0 -0.0449929 0.016496 -0.8571
16 2.18853 0.50104 0.0576594 1.52613 0.0997979 0.154747
17 1.29609 0 0 0.0247846 -0.039742 -0.746595
18 1.62202 0.000713348 -0.000472069 0.00528192 -0.0126014 -1.12707
19 1.22241 0 0 -0.0199585 0.00621244 -1.25809
20 1.76707 1.27612 0.0366415 1.35857 0.244319 0.100604
21 1.55588 0 0 -0.0216193 0.0244014 -0.43056
22 1.24274 0 0 -0.000479217 0.000360508 -0.969327
23 0.784523 0 0 0.00427087 0.0061949 -0.802021
24 -2.4735 6.38035 -5.29598 -0.000932693 0 -1.67936
25 6.02794 0 0 1.29414 0.46497 0.3441
26 11.7344 0 0 0.00140277 0 0.756061
27 8.81167 0 0 0.407795 0 0
28 5.77884 0 0 0.273223 0 0
29 2.23249 0 0 0.134573 0 0
30 11.4725 0 0 0.468665 -0.206104 -0.300942
31 0.615812 0.994373 -0.809165 -2.63072 -0.0229901 0.302397
32 2.24752 0 0 -0.233939 0.119313 0.186604
33 1.11936 0 0 -0.10034 0.146391 0.154007
34 3.71349 0.102639 0.102191 -1.62656 0.647308 -0.011774
35 1.72615 0 0 -0.0140398 -0.00343416 1.05412
36 1.21112 0 0 -0.0114086 0.0134492 0.623938
37 3.5992 1.06012 0.0708883 -1.82885 0.552225 -0.0809854
38 1.66069 0 0 0.0185625 0.0357885 0.837463
39 1.16699 0 0 -0.0214546 -0.0188799 0.512602
40 2.18853 -0.50104 0.0576589 -1.57595 -0.0519129 -0.112472
41 1.29609 0 0 -0.0207261 -0.0420008 0.647344
42 1.62202 -0.000713348 -0.000469208 -0.0176409 -0.0302896 0.960613
43 1.22241 0 0 -0.0109008 -0.000363358 0.883798
44 1.76707 -1.27612 0.0366408 -1.57501 0.0279592 -0.0920013
45 1.55587 0 0 -0.0274839 -0.0875848 0.552803
46 1.24273 0 0 0.000478913 0.000360582 1.16748
47 0.784531 0 0 -0.0020717 0.00549201 0.856291
48 0 0 -9.79273 0 0 0
49 5.89245 -23.1408 -6.20183 0.0272612 0.0250616 0.00932562
50 0 -0.584454 2.04671 0 0 0
51 -0.0130916 -0.755095 2.39133 0 0 0
52 5.91042 -24.5079 -5.99381 0.0272611 0.0250617 0.00932619
53 0 -0.675062 1.41593 0 0 0
54 0 0.979378 2.2232 0 0 0
55 0 -3.93659 2.85382 0 0 0
56 0 2.062 1.89702 -0.785398 0 0
57 0 -1.66928 2.73772 0 0 0
time 17
0 2.90881 6.05823 -3.71544 0.000934124 0 -0.725437
1 6.02794 0 0 -1.11024 0.446087 -0.734211
2 11.7344 0 0 -0.00140286 0 -0.735447
3 8.81139 -0.000449181 -0.000112057 -0.112491 0 0.000158646
4 5.77839 0.000286102 0 -0.0753692 0 0.000105631
5 2.23164 -0.000329018 -0.000364304 -0.0371222 0 0
6 11.4725 0 0 -0.229458 -0.325237 0.357502
7 0.615219 -0.993091 -0.8107 2.8564 0.427913 -0.348126
8 2.24752 0 0 0.742483 0.196537 -0.184311
9 1.11936 0 0 0.0569243 -0.0187488 -0.38543
10 3.71348 -0.102641 0.102191 1.55999 0.843182 0.0798624
11 1.72615 0 0 0.00870227 0.00432157 -1.08945
12 1.21114 0 0 0.00379985 0.017222 -1.3256
13 3.59919 -1.06012 0.0708875 1.52729 0.379605 0.0109443
14 1.66069 0 0 -0.0008917 0.07786 -0.234383
15 1.16699 0 0 -0.0449929 0.0164959 -0.8571
16 2.18853 0.50104 0.0576593 1.52613 0.0997979 0.154747
17 1.29609 0 0 0.0247846 -0.039742 -0.746595
18 1.62202 0.000713348 -0.000470638 0.00528192 -0.0126014 -1.12707
19 1.22241 0 0 -0.0199585 0.00621247 -1.25809
20 1.76707 1.27612 0.036641 1.35857 0.244319 0.100604
21 1.55588 0 0 -0.0216193 0.0244014 -0.43056
22 1.24273 0 0 -0.000479222 0.000360518 -0.969328
23 0.784524 0 0 0.00427087 0.00619491 -0.802021
24 -2.4735 6.38035 -5.29598 -0.000932693 0 -1.67936
25 6.02794 0 0 1.29555 0.461332 0.345006
26 11.7344 0 0 0.0014027 0 0.752224
27 8.81167 0 0 0.412969 0 0
28 5.77884 0 0 0.276689 0 0
29 2.23249 0 0 0.13628 0 0
30 11.4725 0 0 0.474423 -0.204632 -0.304404
31 0.615812 0.994372 -0.809165 -2.63072 -0.02299 0.302397
32 2.24752 0 0 -0.233939 0.119313 0.186604
33 1.11936 0 0 -0.10034 0.146391 0.154007
34 3.71349 0.10264 0.102191 -1.62656 0.647308 -0.011774
35 1.72615 0 0 -0.0140398 -0.0034342 1.05412
36 1.21112 0 0 -0.0114086 0.0134493 0.623938
37 3.5992 1.06012 0.070888 -1.82885 0.552225 -0.0809855
38 1.66069 0 0 0.0185625 0.0357885 0.837463
39 1.16699 0 0 -0.0214546 -0.0188799 0.512602
40 2.18853 -0.50104 0.0576589 -1.57595 -0.0519127 -0.112472
41 1.29609 0 0 -0.0207261 -0.0420008 0.647344
42 1.62202 -0.000712395 -0.000469685 -0.0176409 -0.0302897 0.960613
43 1.22241 0 0 -0.0109008 -0.000363364 0.883798
44 1.76707 -1.27612 0.0366405 -1.57501 0.0279594 -0.0920012
45 1.55587 0 0 -0.0274839 -0.0875848 0.552803
46 1.24273 0 0 0.000478913 0.000360569 1.16748
47 0.784531 0 0 -0.00207168 0.00549201 0.856291
48 0 0 -9.79273 0 0 0
49 5.89058 -23.167 -6.16765 0.0318376 0.0198528 0.009488
50 0 -0.584455 2.04671 0 0 0
51 -0.0130911 -0.755095 2.39133 0 0 0
52 5.90756 -24.535 -5.96586 0.0318376 0.0198529 0.00948857
53 0 -0.675064 1.41593 0 0 0
54 0 0.979376 2.2232 0 0 0
55 0 -3.93659 2.85382 0 0 0
56 0 2.062 1.89702 -0.785398 0 0
57 0 -1.66928 2.73772 0 0 0
time 18
0 2.90881 6.05823 -3.71544 0.000934124 0 -0.725437
1 6.02794 0 0 -1.11292 0.441281 -0.736036
2 11.7344 0 0 -0.00140285 0 -0.731375
3 8.81139 -0.000450134 -0.000112057 -0.104444 0 0.0001588
4 5.77839 0.000284195 0 -0.0699774 0 0.000105948
5 2.23163 -0.000329971 -0.000364304 -0.0344665 0 0
6 11.4725 0 0 -0.220588 -0.323237 0.356353
7 0.615219 -0.993091 -0.8107 2.8564 0.427913 -0.348127
8 2.24752 0 0 0.742483 0.196537 -0.184311
9 1.11936 0 0 0.0569244 -0.0187488 -0.38543
10 3.71348 -0.102641 0.102191 1.55999 0.843181 0.0798625
11 1.72615 0 0 0.00870227 0.00432159 -1.08945
12 1.21114 0 0 0.00379982 0.017222 -1.32561
13 3.59919 -1.06012 0.0708884 1.52729 0.379604 0.0109443
14 1.66069 0 0 -0.000891692 0.0778601 -0.234384
15 1.167 0 0 -0.0449929 0.0164959 -0.8571
16 2.18852 0.501039 0.0576591 1.52613 0.0997979 0.154747
17 1.2961 0 0 0.0247847 -0.039742 -0.746595
18 1.62202 0.000711441 -0.000471115 0.00528191 -0.0126014 -1.12707
19 1.22241 0 0 -0.0199585 0.00621244 -1.25809
20 1.76707 1.27612 0.0366406 1.35857 0.244319 0.100604
21 1.55588 0 0 -0.0216193 0.0244014 -0.43056
22 1.24274 0 0 -0.000479216 0.000360506 -0.969327
23 0.784523 0 0 0.00427084 0.00619488 -0.802021
24 -2.4735 6.38035 -5.29598 -0.000932693 0 -1.67936
25 6.02794 0 0 1.29723 0.457041 0.346052
26 11.7344 0 0 0.00140268 0 0.74821
27 8.81167 0 0 0.418867 0 0
28 5.77884 0 0 0.280641 0 0
29 2.23249 0 0 0.138226 0 0
30 11.4725 0 0 0.480208 -0.20517 -0.304362
31 0.615814 0.994372 -0.809165 -2.63072 -0.02299 0.302397
32 2.24752 0 0 -0.233939 0.119313 0.186604
33 1.11936 0 0 -0.10034 0.146391 0.154007
34 3.71349 0.102639 0.102191 -1.62656 0.647308 -0.011774
35 1.72615 0 0 -0.0140398 -0.0034342 1.05412
36 1.21112 0 0 -0.0114086 0.0134492 0.623938
37 3.5992 1.06012 0.0708879 -1.82885 0.552225 -0.0809854
38 1.66069 0 0 0.0185625 0.0357885 0.837463
39 1.16699 0 0 -0.0214546 -0.0188799 0.512602
40 2.18853 -0.501041 0.0576591 -1.57595 -0.0519128 -0.112472
41 1.29609 0 0 -0.020726 -0.0420008 0.647344
42 1.62202 -0.000714302 -0.000470161 -0.0176409 -0.0302897 0.960613
43 1.22241 0 0 -0.0109008 -0.000363341 0.883798
44 1.76707 -1.27612 0.0366406 -1.57501 0.0279593 -0.0920011
45 1.55588 0 0 -0.0274839 -0.0875848 0.552803
46 1.24273 0 0 0.000478927 0.000360617 1.16748
47 0.784531 0 0 -0.00207172 0.00549201 0.856291
48 0 0 -9.79273 0 0 0
49 5.88382 -23.1915 -6.10425 0.0323303 0.012994 0.0084374
50 0 -0.584455 2.04671 0 0 0
51 -0.0130906 -0.755096 2.39133 0 0 0
52 5.89798 -24.5596 -5.90311 0.0323303 0.012994 0.00843797
53 0 -0.675064 1.41593 0 0 0
54 0 0.979376 2.2232 0 0 0
55 0 -3.93659 2.85382 0 0 0
56 0 2.062 1.89702 -0.785398 0 0
57 0 -1.66928 2.73772 0 0 0
time 19
0 2.90881 6.05823 -3.71544 0.000934124 0 -0.725437
1 6.02794 0 0 -1.11544 0.436331 -0.737994
2 11.7344 0 0 -0.00140285 0 -0.726232
3 8.81138 -0.000450134 -0.00011158 -0.0983759 0 0.000158854
4 5.77839 0.000286102 0 -0.0659118 0 0.000106062
5 2.23164 -0.000329971 -0.00036335 -0.0324641 0 0
6 11.4725 0 0 -0.212723 -0.32254 0.351769
7 0.615219 -0.993091 -0.8107 2.8564 0.427913 -0.348126
8 2.24752 0 0 0.742483 0.196537 -0.184311
9 1.11936 0 0 0.0569243 -0.0187489 -0.38543
10 3.71348 -0.102641 0.102191 1.55999 0.843181 0.0798624
11 1.72615 0 0 0.00870227 0.00432157 -1.08945
12 1.21114 0 0 0.00379984 0.017222 -1.3256
13 3.59919 -1.06012 0.0708885 1.52729 0.379604 0.0109443
14 1.66069 0 0 -0.000891681 0.07786 -0.234384
15 1.167 0 0 -0.0449929 0.0164959 -0.8571
16 2.18852 0.50104 0.0576593 1.52613 0.0997979 0.154747
17 1.29609 0 0 0.0247846 -0.039742 -0.746595
18 1.62202 0.000715256 -0.000470161 0.00528192 -0.0126014 -1.12707
19 1.22241 0 0 -0.0199585 0.00621243 -1.25809
20 1.76707 1.27612 0.0366409 1.35857 0.244319 0.100604
21 1.55587 0 0 -0.0216193 0.0244014 -0.43056
22 1.24274 0 0 -0.000479229 0.000360499 -0.969327
23 0.784523 0 0 0.00427081 0.00619488 -0.802021
24 -2.4735 6.38035 -5.29598 -0.000932693 0 -1.67936
25 6.02794 0 0 1.29912 0.452133 0.347231
26 11.7344 0 0 0.00140274 0 0.7425
27 8.81167 0 0 0.423658 0 0
28 5.77884 0 0 0.283851 0 0
29 2.23249 0 0 0.139807 0 0
30 11.4725 0 0 0.483866 -0.206259 -0.300364
31 0.615812 0.994372 -0.809165 -2.63072 -0.02299 0.302397
32 2.24752 0 0 -0.233939 0.119313 0.186604
33 1.11936 0 0 -0.10034 0.146391 0.154007
34 3.71349 0.10264 0.102191 -1.62656 0.647308 -0.011774
35 1.72615 0 0 -0.0140398 -0.00343417 1.05412
36 1.21112 0 0 -0.0114086 0.0134492 0.623938
37 3.5992 1.06012 0.070888 -1.82885 0.552225 -0.0809854
38 1.66069 0 0 0.0185625 0.0357885 0.837463
39 1.16699 0 0 -0.0214546 -0.0188799 0.512602
40 2.18853 -0.50104 0.0576591 -1.57595 -0.0519128 -0.112472
41 1.29609 0 0 -0.020726 -0.0420008 0.647344
42 1.62202 -0.000712395 -0.000469685 -0.0176409 -0.0302897 0.960613
43 1.22241 0 0 -0.0109008 -0.000363369 0.883798
44 1.76707 -1.27612 0.0366409 -1.57501 0.0279593 -0.0920012
45 1.55588 0 0 -0.0274839 -0.0875848 0.552803
46 1.24273 0 0 0.000478937 0.000360578 1.16748
47 0.784531 0 0 -0.00207173 0.00549199 0.856291
48 0 0 -9.79273 0 0 0
49 5.87752 -23.219 -6.0372 0.0297763 0.00711158 0.00737241
50 0 -0.584457 2.04671 0 0 0
51 -0.0130906 -0.755098 2.39133 0 0 0
52 5.88905 -24.5865 -5.83256 0.0297762 0.00711165 0.00737298
53 0 -0.675062 1.41593 0 0 0
54 0 0.979378 2.2232 0 0 0
55 0 -3.93659 2.85382 0 0 0
56 0 2.062 1.89702 -0.785398 0 0
57 0 -1.66928 2.73772 0 0 0
time 20
0 2.90881 6.05823 -3.71544 0.000934124 0 -0.725437
1 6.02794 0 0 -1.11724 0.431529 -0.740196
2 11.7344 0 0 -0.00140293 0 -0.71858
3 8.81138 -0.000450134 -0.000112534 -0.0945343 0 0.000158857
4 5.77839 0.000286102 0 -0.063338 0 0.00010605
5 2.23163 -0.000329018 -0.000364304 -0.0311963 0 0
6 11.4725 0 0 -0.205131 -0.323645 0.340685
7 0.615219 -0.993091 -0.810699 2.8564 0.427913 -0.348126
8 2.24752 0 0 0.742483 0.196537 -0.184311
9 1.11936 0 0 0.0569242 -0.0187489 -0.38543
10 3.71348 -0.10264 0.102192 1.55999 0.843181 0.0798625
11 1.72615 0 0 0.00870227 0.00432159 -1.08945
12 1.21114 0 0 0.00379986 0.0172221 -1.32561
13 3.59919 -1.06012 0.070888 1.52729 0.379605 0.0109444
14 1.66069 0 0 -0.000891682 0.0778601 -0.234383
15 1.16699 0 0 -0.0449929 0.0164959 -0.8571
16 2.18852 0.50104 0.0576595 1.52613 0.0997979 0.154747
17 1.29609 0 0 0.0247847 -0.039742 -0.746595
18 1.62202 0.000713348 -0.000471115 0.00528192 -0.0126014 -1.12707
19 1.22241 0 0 -0.0199585 0.00621242 -1.25809
20 1.76707 1.27612 0.0366412 1.35857 0.244319 0.100604
21 1.55588 0 0 -0.0216193 0.0244014 -0.43056
22 1.24274 0 0 -0.000479214 0.000360535 -0.969328
23 0.784523 0 0 0.00427088 0.0061949 -0.802021
24 -2.4735 6.38035 -5.29598 -0.000932693 0 -1.67936
25 6.02794 0 0 1.30079 0.446955 0.348542
26 11.7344 0 0 0.00140276 0 0.733562
27 8.81166 0 0 0.429047 0 0
28 5.77884 0 0 0.287462 0 0
29 2.23249 0 0 0.141586 0 0
30 11.4725 0 0 0.486358 -0.208967 -0.289433
31 0.615814 0.994373 -0.809166 -2.63072 -0.0229901 0.302397
32 2.24752 0 0 -0.233939 0.119313 0.186604
33 1.11936 0 0 -0.10034 0.146391 0.154007
34 3.71349 0.10264 0.102191 -1.62656 0.647308 -0.0117742
35 1.72615 0 0 -0.0140398 -0.0034342 1.05412
36 1.21112 0 0 -0.0114086 0.0134492 0.623938
37 3.5992 1.06012 0.0708879 -1.82885 0.552225 -0.0809855
38 1.66069 0 0 0.0185625 0.0357885 0.837463
39 1.16699 0 0 -0.0214546 -0.0188799 0.512602
40 2.18853 -0.50104 0.0576588 -1.57595 -0.0519129 -0.112472
41 1.29609 0 0 -0.020726 -0.0420007 0.647344
42 1.62202 -0.000712395 -0.000470161 -0.0176409 -0.0302897 0.960613
43 1.22241 0 0 -0.0109008 -0.00036332 0.883798
44 1.76707 -1.27612 0.0366403 -1.57501 0.0279592 -0.0920013
45 1.55587 0 0 -0.0274839 -0.0875848 0.552803
46 1.24273 0 0 0.000478914 0.000360584 1.16748
47 0.784532 0 0 -0.00207166 0.00549204 0.856291
48 0 0 -9.79273 0 0 0
49 5.86933 -23.2524 -5.98527 0.023 0.00114593 0.00584757
50 0 -0.584455 2.04671 0 0 0
51 -0.0130911 -0.755098 2.39133 0 0 0
52 5.87757 -24.6186 -5.77135 0.0229999 0.001146 0.00584813
53 0 -0.675062 1.41593 0 0 0
54 0 0.97938 2.2232 0 0 0
55 0 -3.93658 2.85382 0 0 0
56 0 2.062 1.89702 -0.785398 0 0
57 0 -1.66928 2.73772 0 0 0
time 21
0 2.90881 6.05823 -3.71544 0.000934124 0 -0.725437
1 6.02794 0 0 -1.11828 0.426432 -0.742974
2 11.7344 0 0 -0.00140287 0 -0.706603
3 8.81139 -0.000450134 -0.000112534 -0.0935412 0 0.000158763
4 5.77839 0.000286102 0 -0.0626725 0 0.000105943
5 2.23163 -0.000329971 -0.000364304 -0.0308685 0 0
6 11.4725 0 0 -0.198549 -0.326108 0.323804
7 0.615217 -0.993091 -0.8107 2.8564 0.427913 -0.348127
8 2.24752 0 0 0.742483 0.196537 -0.184311
9 1.11936 0 0 0.0569244 -0.0187488 -0.38543
10 3.71348 -0.102641 0.102191 1.55999 0.843181 0.0798625
11 1.72614 0 0 0.00870227 0.00432159 -1.08945
12 1.21114 0 0 0.00379985 0.0172221 -1.3256
13 3.59919 -1.06012 0.0708889 1.52729 0.379604 0.0109444
14 1.66069 0 0 -0.000891655 0.07786 -0.234384
15 1.167 0 0 -0.0449929 0.0164959 -0.8571
16 2.18852 0.50104 0.0576593 1.52613 0.0997979 0.154747
17 1.29609 0 0 0.0247847 -0.039742 -0.746595
18 1.62202 0.000713348 -0.000471115 0.00528192 -0.0126014 -1.12707
19 1.22241 0 0 -0.0199585 0.00621243 -1.25809
20 1.76707 1.27612 0.0366408 1.35857 0.244319 0.100604
21 1.55588 0 0 -0.0216193 0.0244014 -0.43056
22 1.24273 0 0 -0.000479191 0.000360507 -0.969327
23 0.784523 0 0 0.00427084 0.00619489 -0.802021
24 -2.4735 6.38035 -5.29598 -0.000932693 0 -1.67936
25 6.02794 0 0 1.30227 0.441218 0.350078
26 11.7344 0 0 0.00140284 0 0.719983
27 8.81167 0 0 0.435134 0 0
28 5.77884 0 0 0.291539 0 0
29 2.23249 0 0 0.143594 0 0
30 11.4725 0 0 0.487889 -0.212591 -0.272282
31 0.61581 0.994372 -0.809165 -2.63072 -0.0229901 0.302397
32 2.24752 0 0 -0.233939 0.119313 0.186604
33 1.11936 0 0 -0.10034 0.146391 0.154007
34 3.71348 0.102639 0.10219 -1.62656 0.647308 -0.0117741
35 1.72615 0 0 -0.0140398 -0.0034342 1.05412
36 1.21112 0 0 -0.0114086 0.0134492 0.623938
37 3.5992 1.06012 0.0708884 -1.82885 0.552225 -0.0809854
38 1.66069 0 0 0.0185625 0.0357885 0.837463
39 1.16699 0 0 -0.0214546 -0.0188799 0.512602
40 2.18853 -0.50104 0.057659 -1.57595 -0.0519129 -0.112472
41 1.29609 0 0 -0.020726 -0.0420008 0.647344
42 1.62202 -0.000712395 -0.000469685 -0.0176409 -0.0302897 0.960613
43 1.22241 0 0 -0.0109008 -0.000363317 0.883798
44 1.76707 -1.27612 0.036641 -1.57501 0.0279592 -0.0920013
45 1.55587 0 0 -0.0274839 -0.0875848 0.552803
46 1.24273 0 0 0.000478916 0.000360519 1.16748
47 0.784532 0 0 -0.00207164 0.00549203 0.856291
48 0 0 -9.79273 0 0 0
49 5.8603 -23.2987 -5.96455 0.0138724 -0.00447345 0.00414499
50 0 -0.584455 2.04671 0 0 0
51 -0.0130901 -0.755096 2.39133 0 0 0
52 5.86494 -24.6629 -5.73817 0.0138723 -0.00447337 0.00414555
53 0 -0.675064 1.41593 0 0 0
54 0 0.979376 2.2232 0 0 0
55 0 -3.93659 2.85382 0 0 0
56 0 2.062 1.89702 -0.785398 0 0
57 0 -1.66928 2.73772 0 0 0
time 22
0 2.90881 6.05823 -3.71544 0.000934124 0 -0.725437
1 6.02794 0 0 -1.11901 0.420507 -0.746446
2 11.7344 0 0 -0.00140277 0 -0.690505
3 8.81138 -0.000449181 -0.000112534 -0.0949311 0 0.000158503
4 5.77839 0.000287056 0 -0.0636038 0 0.000105748
5 2.23163 -0.000329018 -0.000364304 -0.0313273 0 0
6 11.4725 0 0 -0.193212 -0.329097 0.303694
7 0.615219 -0.993092 -0.8107 2.8564 0.427914 -0.348126
8 2.24752 0 0 0.742483 0.196537 -0.184311
9 1.11935 0 0 0.0569243 -0.0187488 -0.38543
10 3.71348 -0.102641 0.102191 1.55999 0.843182 0.0798624
11 1.72615 0 0 0.00870228 0.00432157 -1.08945
12 1.21114 0 0 0.00379984 0.0172221 -1.3256
13 3.59919 -1.06012 0.0708878 1.52729 0.379605 0.0109443
14 1.66069 0 0 -0.000891678 0.0778601 -0.234384
15 1.167 0 0 -0.0449929 0.0164959 -0.8571
16 2.18852 0.50104 0.0576591 1.52613 0.099798 0.154747
17 1.29609 0 0 0.0247846 -0.039742 -0.746595
18 1.62202 0.000711441 -0.000471592 0.00528194 -0.0126014 -1.12707
19 1.22241 0 0 -0.0199585 0.00621244 -1.25809
20 1.76707 1.27612 0.036641 1.35857 0.244319 0.100604
21 1.55587 0 0 -0.0216193 0.0244014 -0.43056
22 1.24274 0 0 -0.000479211 0.000360513 -0.969328
23 0.784524 0 0 0.00427085 0.0061949 -0.802021
24 -2.4735 6.38035 -5.29598 -0.000932693 0 -1.67936
25 6.02794 0 0 1.30376 0.434849 0.351801
26 11.7344 0 0 0.00140269 0 0.70302
27 8.81167 0 0 0.44113 0 0
28 5.77884 0 0 0.295557 0 0
29 2.23249 0 0 0.145573 0 0
30 11.4725 0 0 0.488507 -0.216296 -0.252031
31 0.615816 0.994372 -0.809166 -2.63072 -0.0229901 0.302397
32 2.24752 0 0 -0.233939 0.119313 0.186604
33 1.11936 0 0 -0.10034 0.146391 0.154007
34 3.71349 0.10264 0.102191 -1.62656 0.647308 -0.011774
35 1.72615 0 0 -0.0140398 -0.00343417 1.05412
36 1.21112 0 0 -0.0114086 0.0134492 0.623938
37 3.5992 1.06012 0.0708882 -1.82885 0.552225 -0.0809853
38 1.66069 0 0 0.0185625 0.0357885 0.837463
39 1.16699 0 0 -0.0214546 -0.0188799 0.512602
40 2.18853 -0.50104 0.0576587 -1.57595 -0.0519128 -0.112472
41 1.29609 0 0 -0.020726 -0.0420008 0.647344
42 1.62202 -0.000713348 -0.000469208 -0.0176409 -0.0302896 0.960613
43 1.22241 0 0 -0.0109008 -0.000363363 0.883798
44 1.76707 -1.27612 0.0366403 -1.57501 0.0279594 -0.0920013
45 1.55588 0 0 -0.0274838 -0.0875849 0.552803
46 1.24273 0 0 0.000478937 0.000360592 1.16748
47 0.784532 0 0 -0.00207168 0.00549202 0.856291
48 0 0 -9.79273 0 0 0
49 5.85148 -23.3561 -5.96681 0.00426474 -0.00932015 0.00250133
50 0 -0.584455 2.04671 0 0 0
51 -0.0130916 -0.755098 2.39133 0 0 0
52 5.85266 -24.7181 -5.72735 0.00426465 -0.00932006 0.00250189
53 0 -0.675064 1.41593 0 0 0
54 0 0.979378 2.2232 0 0 0
55 0 -3.93658 2.85382 0 0 0
56 0 2.062 1.89702 -0.785398 0 0
57 0 -1.66928 2.73772 0 0 0
time 23
0 2.90881 6.05823 -3.71544 0.000934124 0 -0.725437
1 6.02794 0 0 -1.11952 0.414491 -0.750081
2 11.7344 0 0 -0.00140283 0 -0.673146
3 8.81138 -0.000450134 -0.00011158 -0.0977926 0 0.000158544
4 5.77839 0.000287056 0 -0.065521 0 0.000105816
5 2.23163 -0.000329971 -0.000363827 -0.0322715 0 0
6 11.4725 0 0 -0.189447 -0.331855 0.284223
7 0.615217 -0.993092 -0.8107 2.8564 0.427913 -0.348126
8 2.24752 0 0 0.742483 0.196537 -0.184311
9 1.11936 0 0 0.0569243 -0.0187488 -0.38543
10 3.71348 -0.102641 0.102191 1.55999 0.843181 0.0798625
11 1.72615 0 0 0.00870227 0.00432157 -1.08945
12 1.21114 0 0 0.00379984 0.017222 -1.3256
13 3.59919 -1.06012 0.0708882 1.52729 0.379604 0.0109443
14 1.66069 0 0 -0.000891669 0.07786 -0.234383
15 1.167 0 0 -0.0449929 0.0164959 -0.8571
16 2.18852 0.50104 0.0576589 1.52613 0.0997979 0.154747
17 1.29609 0 0 0.0247846 -0.039742 -0.746595
18 1.62202 0.000711441 -0.000471115 0.00528192 -0.0126014 -1.12707
19 1.22241 0 0 -0.0199585 0.00621244 -1.25809
20 1.76707 1.27612 0.0366409 1.35857 0.244319 0.100604
21 1.55588 0 0 -0.0216193 0.0244014 -0.43056
22 1.24273 0 0 -0.00047923 0.000360501 -0.969327
23 0.784523 0 0 0.00427085 0.00619489 -0.802021
24 -2.4735 6.38035 -5.29598 -0.000932693 0 -1.67936
25 6.02794 0 0 1.30522 0.428172 0.35361
26 11.7344 0 0 0.00140263 0 0.68458
27 8.81167 0 0 0.446377 0 0
28 5.77884 0 0 0.299072 0 0
29 2.23249 0 0 0.147304 0 0
30 11.4725 0 0 0.488479 -0.219393 -0.232098
31 0.615812 0.994372 -0.809165 -2.63072 -0.02299 0.302397
32 2.24751 0 0 -0.233939 0.119313 0.186604
33 1.11936 0 0 -0.10034 0.146391 0.154007
34 3.71349 0.10264 0.102191 -1.62656 0.647308 -0.0117741
35 1.72615 0 0 -0.0140398 -0.00343422 1.05412
36 1.21112 0 0 -0.0114086 0.0134492 0.623938
37 3.5992 1.06012 0.0708882 -1.82885 0.552225 -0.0809855
38 1.66069 0 0 0.0185625 0.0357885 0.837463
39 1.16699 0 0 -0.0214546 -0.0188799 0.512602
40 2.18853 -0.50104 0.0576594 -1.57595 -0.0519128 -0.112472
41 1.29609 0 0 -0.020726 -0.0420008 0.647344
42 1.62202 -0.000714302 -0.000469685 -0.0176409 -0.0302896 0.960613
43 1.22241 0 0 -0.0109008 -0.000363337 0.883798
44 1.76707 -1.27612 0.0366409 -1.57501 0.0279593 -0.0920012
45 1.55588 0 0 -0.0274839 -0.0875848 0.552803
46 1.24273 0 0 0.000478924 0.000360585 1.16748
47 0.784531 0 0 -0.00207169 0.00549203 0.856291
48 0 0 -9.79273 0 0 0
49 5.84404 -23.4164 -5.98528 -0.00395136 -0.0129698 0.00112083
50 0 -0.584455 2.04671 0 0 0
51 -0.0130916 -0.7551 2.39133 0 0 0
52 5.84231 -24.7763 -5.73465 -0.00395146 -0.0129697 0.00112139
53 0 -0.675066 1.41593 0 0 0
54 0 0.979376 2.2232 0 0 0
55 0 -3.93659 2.85382 0 0 0
56 0 2.062 1.89702 -0.785398 0 0
57 0 -1.66928 2.73772 0 0 0
time 24
0 2.90881 6.05823 -3.71544 0.000934124 0 -0.725437
1 6.02794 0 0 -1.11996 0.408922 -0.753447
2 11.7344 0 0 -0.00140287 0 -0.656933
3 8.81138 -0.000450134 -0.000112534 -0.101281 0 0.000158659
4 5.77839 0.000286102 0 -0.0678585 0 0.000105855
5 2.23164 -0.000329971 -0.000364304 -0.0334229 0 0
6 11.4725 0 0 -0.18761 -0.333639 0.269034
7 0.615219 -0.993091 -0.8107 2.8564 0.427913 -0.348126
8 2.24752 0 0 0.742483 0.196537 -0.184311
9 1.11936 0 0 0.0569243 -0.0187487 -0.38543
10 3.71348 -0.102641 0.102191 1.55999 0.843181 0.0798624
11 1.72615 0 0 0.00870228 0.00432156 -1.08945
12 1.21114 0 0 0.00379983 0.0172221 -1.3256
13 3.59919 -1.06012 0.0708879 1.52729 0.379604 0.0109442
14 1.66069 0 0 -0.000891675 0.07786 -0.234383
15 1.167 0 0 -0.0449929 0.0164959 -0.8571
16 2.18852 0.50104 0.0576587 1.52613 0.0997979 0.154747
17 1.29609 0 0 0.0247847 -0.039742 -0.746595
18 1.62202 0.000713348 -0.000471592 0.00528193 -0.0126014 -1.12707
19 1.22241 0 0 -0.0199585 0.00621244 -1.25809
20 1.76707 1.27612 0.0366403 1.35857 0.244319 0.100604
21 1.55588 0 0 -0.0216193 0.0244014 -0.43056
22 1.24274 0 0 -0.000479223 0.000360519 -0.969327
23 0.784523 0 0 0.00427086 0.00619489 -0.802021
24 -2.4735 6.38035 -5.29598 -0.000932693 0 -1.67936
25 6.02794 0 0 1.30649 0.422367 0.355157
26 11.7344 0 0 0.00140256 0 0.668338
27 8.81167 0 0 0.450039 0 0
28 5.77884 0 0 0.301526 0 0
29 2.23249 0 0 0.148513 0 0
30 11.4725 0 0 0.488103 -0.2212 -0.216788
31 0.615814 0.994373 -0.809166 -2.63072 -0.0229901 0.302397
32 2.24752 0 0 -0.233939 0.119313 0.186604
33 1.11936 0 0 -0.10034 0.146391 0.154007
34 3.71349 0.10264 0.102191 -1.62656 0.647308 -0.0117741
35 1.72615 0 0 -0.0140398 -0.00343418 1.05412
36 1.21112 0 0 -0.0114086 0.0134492 0.623938
37 3.5992 1.06012 0.0708882 -1.82885 0.552225 -0.0809856
38 1.66069 0 0 0.0185625 0.0357885 0.837463
39 1.16699 0 0 -0.0214546 -0.0188799 0.512602
40 2.18853 -0.50104 0.057659 -1.57595 -0.0519127 -0.112472
41 1.29609 0 0 -0.020726 -0.0420007 0.647344
42 1.62201 -0.000713348 -0.000469208 -0.0176409 -0.0302897 0.960613
43 1.22241 0 0 -0.0109008 -0.000363355 0.883798
44 1.76707 -1.27612 0.0366408 -1.57501 0.0279593 -0.0920013
45 1.55588 0 0 -0.0274838 -0.0875848 0.552803
46 1.24273 0 0 0.000478915 0.000360546 1.16748
47 0.78453 0 0 -0.00207167 0.00549201 0.856291
48 0 0 -9.79273 0 0 0
49 5.83918 -23.4715 -6.01315 -0.00890386 -0.0149987 0.000192124
50 0 -0.584455 2.04671 0 0 0
51 -0.0130911 -0.755098 2.39133 0 0 0
52 5.83558 -24.8302 -5.75579 -0.00890396 -0.0149986 0.000192688
53 0 -0.675062 1.41593 0 0 0
54 0 0.979378 2.2232 0 0 0
55 0 -3.93658 2.85382 0 0 0
56 0 2.062 1.89702 -0.785398 0 0
57 0 -1.66928 2.73772 0 0 0
time 25
0 2.90881 6.05823 -3.71544 0.000934124 0 -0.725437
1 6.02794 0 0 -1.12043 0.4046 -0.755976
2 11.7344 0 0 -0.00140288 0 -0.644842
3 8.81138 -0.000449181 -0.000112534 -0.105093 0 0.000158813
4 5.77839 0.000287056 0 -0.0704123 0 0.000105899
5 2.23163 -0.000329018 -0.000364304 -0.0346808 0 0
6 11.4725 0 0 -0.188302 -0.334056 0.260737
7 0.615219 -0.993091 -0.8107 2.8564 0.427914 -0.348126
8 2.24752 0 0 0.742483 0.196537 -0.184311
9 1.11936 0 0 0.0569243 -0.0187488 -0.38543
10 3.71348 -0.102641 0.102191 1.55999 0.843181 0.0798625
11 1.72615 0 0 0.00870226 0.00432156 -1.08945
12 1.21114 0 0 0.00379986 0.017222 -1.32561
13 3.59919 -1.06012 0.0708877 1.52729 0.379604 0.0109444
14 1.66069 0 0 -0.00089172 0.07786 -0.234384
15 1.167 0 0 -0.0449929 0.0164959 -0.8571
16 2.18852 0.50104 0.0576594 1.52613 0.0997979 0.154747
17 1.29609 0 0 0.0247846 -0.039742 -0.746595
18 1.62202 0.000715256 -0.000471115 0.00528193 -0.0126014 -1.12707
19 1.22241 0 0 -0.0199585 0.00621244 -1.25809
20 1.76707 1.27612 0.0366412 1.35857 0.244319 0.100604
21 1.55588 0 0 -0.0216193 0.0244014 -0.43056
22 1.24273 0 0 -0.000479232 0.000360521 -0.969327
23 0.784523 0 0 0.00427084 0.00619488 -0.802021
24 -2.4735 6.38035 -5.29598 -0.000932693 0 -1.67936
25 6.02794 0 0 1.30758 0.418142 0.356215
26 11.7344 0 0 0.00140285 0 0.657098
27 8.81167 0 0 0.450824 0 0
28 5.77884 0 0 0.302052 0 0
29 2.23249 0 0 0.148772 0 0
30 11.4725 0 0 0.486776 -0.221453 -0.208725
31 0.615814 0.994373 -0.809166 -2.63072 -0.0229901 0.302397
32 2.24752 0 0 -0.233939 0.119313 0.186604
33 1.11936 0 0 -0.10034 0.146391 0.154007
34 3.71349 0.10264 0.102191 -1.62656 0.647308 -0.011774
35 1.72615 0 0 -0.0140398 -0.00343419 1.05412
36 1.21112 0 0 -0.0114086 0.0134493 0.623938
37 3.5992 1.06012 0.0708878 -1.82885 0.552225 -0.0809854
38 1.66069 0 0 0.0185625 0.0357885 0.837463
39 1.16699 0 0 -0.0214546 -0.0188799 0.512602
40 2.18853 -0.50104 0.057659 -1.57595 -0.0519128 -0.112472
41 1.29609 0 0 -0.020726 -0.0420008 0.647344
42 1.62201 -0.000713348 -0.000469685 -0.0176409 -0.0302897 0.960613
43 1.22241 0 0 -0.0109008 -0.000363343 0.883798
44 1.76707 -1.27612 0.0366403 -1.57501 0.0279591 -0.0920012
45 1.55588 0 0 -0.0274838 -0.0875848 0.552803
46 1.24273 0 0 0.000478926 0.000360548 1.16748
47 0.784532 0 0 -0.00207165 0.00549202 0.856291
48 0 0 -9.79273 0 0 0
49 5.83752 -23.5128 -6.03814 -0.0101157 -0.0146372 -0.000277649
50 0 -0.584454 2.04671 0 0 0
51 -0.0130925 -0.755098 2.39133 0 0 0
52 5.83335 -24.8712 -5.77914 -0.0101158 -0.0146371 -0.000277086
53 0 -0.675064 1.41593 0 0 0
54 0 0.979376 2.2232 0 0 0
55 0 -3.93659 2.85382 0 0 0
56 0 2.062 1.89702 -0.785398 0 0
57 0 -1.66928 2.73772 0 0 0
time 26
0 2.90881 6.05823 -3.71544 0.000934124 0 -0.725437
1 6.02794 0 0 -1.12088 0.401979 -0.757404
2 11.7344 0 0 -0.00140281 0 -0.638119
3 8.81139 -0.000449181 -0.000112057 -0.109043 0 0.000158366
4 5.77839 0.000286102 0 -0.0730586 0 0.0001057
5 2.23164 -0.000329971 -0.000363827 -0.0359841 0 0
6 11.4725 0 0 -0.19117 -0.333464 0.258612
7 0.615223 -0.993091 -0.8107 2.8564 0.427913 -0.348126
8 2.24752 0 0 0.742483 0.196537 -0.184311
9 1.11936 0 0 0.0569244 -0.0187488 -0.38543
10 3.71348 -0.102641 0.102191 1.55999 0.843181 0.0798625
11 1.72615 0 0 0.00870229 0.00432155 -1.08945
12 1.21114 0 0 0.00379982 0.017222 -1.3256
13 3.5992 -1.06012 0.0708879 1.52729 0.379604 0.0109443
14 1.66069 0 0 -0.000891693 0.07786 -0.234384
15 1.167 0 0 -0.0449929 0.0164959 -0.8571
16 2.18852 0.50104 0.0576593 1.52613 0.0997977 0.154747
17 1.29609 0 0 0.0247846 -0.039742 -0.746595
18 1.62202 0.000715256 -0.000471115 0.00528194 -0.0126014 -1.12707
19 1.22241 0 0 -0.0199585 0.00621242 -1.25809
20 1.76707 1.27612 0.0366409 1.35857 0.244319 0.100604
21 1.55588 0 0 -0.0216193 0.0244014 -0.43056
22 1.24273 0 0 -0.000479226 0.00036051 -0.969327
23 0.784524 0 0 0.00427085 0.00619489 -0.802021
24 -2.4735 6.38035 -5.29598 -0.000932693 0 -1.67936
25 6.02794 0 0 1.30846 0.415784 0.35671
26 11.7344 0 0 0.00140277 0 0.651713
27 8.81167 0 0 0.448619 0 0
28 5.77884 0 0 0.300575 0 0
29 2.23249 0 0 0.148044 0 0
30 11.4725 0 0 0.484176 -0.22067 -0.207102
31 0.615814 0.994373 -0.809166 -2.63072 -0.02299 0.302397
32 2.24751 0 0 -0.233939 0.119313 0.186604
33 1.11936 0 0 -0.10034 0.146391 0.154007
34 3.71348 0.102639 0.102191 -1.62656 0.647308 -0.0117739
35 1.72615 0 0 -0.0140398 -0.00343418 1.05412
36 1.21112 0 0 -0.0114086 0.0134492 0.623938
37 3.5992 1.06012 0.0708883 -1.82885 0.552225 -0.0809854
38 1.66069 0 0 0.0185625 0.0357885 0.837463
39 1.16699 0 0 -0.0214546 -0.0188799 0.512602
40 2.18853 -0.50104 0.0576591 -1.57595 -0.0519127 -0.112472
41 1.29609 0 0 -0.020726 -0.0420008 0.647344
42 1.62202 -0.000713348 -0.000470161 -0.0176409 -0.0302896 0.960613
43 1.22241 0 0 -0.0109008 -0.000363369 0.883798
44 1.76707 -1.27612 0.0366409 -1.57501 0.0279592 -0.0920011
45 1.55588 0 0 -0.0274838 -0.0875848 0.552803
46 1.24273 0 0 0.00047892 0.000360545 1.16748
47 0.784531 0 0 -0.00207169 0.00549204 0.856291
48 0 0 -9.79273 0 0 0
49 5.83827 -23.5365 -6.05227 -0.00898859 -0.0120724 -0.000462346
50 0 -0.584455 2.04671 0 0 0
51 -0.0130916 -0.755095 2.39133 0 0 0
52 5.83453 -24.8952 -5.79479 -0.00898869 -0.0120723 -0.000461782
53 0 -0.675064 1.41593 0 0 0
54 0 0.979378 2.2232 0 0 0
55 0 -3.93659 2.85382 0 0 0
56 0 2.062 1.89702 -0.785398 0 0
57 0 -1.66928 2.73772 0 0 0
time 27
0 2.90881 6.05823 -3.71544 0.000934124 0 -0.725437
1 6.02794 0 0 -1.12123 0.400642 -0.758061
2 11.7344 0 0 -0.00140276 0 -0.635033
3 8.81138 -0.000450134 -0.000112057 -0.112917 0 0.000158791
4 5.77839 0.000286102 0 -0.0756543 0 0.000105761
5 2.23163 -0.000329971 -0.000363827 -0.0372627 0 0
6 11.4725 0 0 -0.195251 -0.332336 0.260307
7 0.615221 -0.993091 -0.8107 2.8564 0.427913 -0.348126
8 2.24752 0 0 0.742483 0.196537 -0.184311
9 1.11936 0 0 0.0569243 -0.0187487 -0.38543
10 3.71348 -0.102641 0.102192 1.55999 0.843181 0.0798625
11 1.72615 0 0 0.00870228 0.00432156 -1.08945
12 1.21114 0 0 0.00379986 0.0172221 -1.3256
13 3.59919 -1.06012 0.0708879 1.52729 0.379604 0.0109444
14 1.66069 0 0 -0.000891689 0.07786 -0.234384
15 1.167 0 0 -0.0449929 0.0164959 -0.8571
16 2.18852 0.50104 0.0576591 1.52613 0.0997978 0.154747
17 1.29609 0 0 0.0247846 -0.039742 -0.746595
18 1.62202 0.000715256 -0.000471592 0.00528193 -0.0126014 -1.12707
19 1.22241 0 0 -0.0199585 0.00621244 -1.25809
20 1.76707 1.27612 0.0366411 1.35857 0.244319 0.100604
21 1.55588 0 0 -0.0216193 0.0244014 -0.43056
22 1.24273 0 0 -0.000479203 0.00036053 -0.969328
23 0.784523 0 0 0.00427084 0.00619488 -0.802021
24 -2.4735 6.38035 -5.29598 -0.000932693 0 -1.67936
25 6.02794 0 0 1.3091 0.414802 0.35682
26 11.7344 0 0 0.00140273 0 0.65019
27 8.81167 0 0 0.444804 0 0
28 5.77884 0 0 0.298019 0 0
29 2.23249 0 0 0.146785 0 0
30 11.4725 0 0 0.480996 -0.219313 -0.209417
31 0.615814 0.994373 -0.809166 -2.63072 -0.0229901 0.302397
32 2.24752 0 0 -0.233939 0.119313 0.186604
33 1.11936 0 0 -0.10034 0.146391 0.154007
34 3.71348 0.10264 0.10219 -1.62656 0.647308 -0.0117739
35 1.72615 0 0 -0.0140398 -0.00343418 1.05412
36 1.21112 0 0 -0.0114086 0.0134492 0.623938
37 3.5992 1.06012 0.0708878 -1.82885 0.552225 -0.0809853
38 1.66069 0 0 0.0185625 0.0357885 0.837463
39 1.16699 0 0 -0.0214546 -0.0188799 0.512602
40 2.18853 -0.50104 0.0576593 -1.57595 -0.0519129 -0.112472
41 1.29609 0 0 -0.020726 -0.0420007 0.647344
42 1.62201 -0.000712395 -0.000469208 -0.0176409 -0.0302896 0.960613
43 1.22241 0 0 -0.0109008 -0.000363361 0.883798
44 1.76707 -1.27612 0.0366404 -1.57501 0.0279591 -0.0920012
45 1.55588 0 0 -0.0274838 -0.0875848 0.552803
46 1.24273 0 0 0.000478923 0.000360563 1.16748
47 0.784532 0 0 -0.00207167 0.00549205 0.856291
48 0 0 -9.79273 0 0 0
49 5.84048 -23.5481 -6.06156 -0.00646928 -0.00831391 -0.000434612
50 0 -0.584459 2.04671 0 0 0
51 -0.013092 -0.755098 2.39133 0 0 0
52 5.83778 -24.9074 -5.80749 -0.00646937 -0.00831382 -0.000434048
53 0 -0.675064 1.41593 0 0 0
54 0 0.979378 2.2232 0 0 0
55 0 -3.93658 2.85382 0 0 0
56 0 2.062 1.89702 -0.785398 0 0
57 0 -1.66928 2.73772 0 0 0
time 28
0 2.90881 6.05823 -3.71544 0.000934124 0 -0.725437
1 6.02794 0 0 -1.12147 0.400204 -0.7582
2 11.7344 0 0 -0.0014029 0 -0.634396
3 8.81139 -0.000450134 -0.00011158 -0.116248 0 0.00015856
4 5.77839 0.000286102 0 -0.0778862 0 0.000105673
5 2.23164 -0.000329971 -0.00036335 -0.0383618 0 0
6 11.4725 0 0 -0.19948 -0.331053 0.263917
7 0.615219 -0.993092 -0.8107 2.8564 0.427913 -0.348126
8 2.24752 0 0 0.742483 0.196537 -0.184311
9 1.11936 0 0 0.0569243 -0.0187488 -0.38543
10 3.71348 -0.102641 0.102191 1.55999 0.843181 0.0798625
11 1.72615 0 0 0.00870229 0.00432157 -1.08945
12 1.21114 0 0 0.00379982 0.0172221 -1.32561
13 3.59919 -1.06012 0.070888 1.52729 0.379604 0.0109443
14 1.66069 0 0 -0.000891691 0.07786 -0.234384
15 1.167 0 0 -0.0449929 0.0164959 -0.8571
16 2.18852 0.50104 0.0576588 1.52613 0.0997979 0.154747
17 1.29609 0 0 0.0247846 -0.039742 -0.746595
18 1.62202 0.000711441 -0.000471115 0.00528193 -0.0126014 -1.12707
19 1.22241 0 0 -0.0199585 0.00621243 -1.25809
20 1.76707 1.27612 0.0366409 1.35857 0.244319 0.100604
21 1.55588 0 0 -0.0216193 0.0244014 -0.43056
22 1.24274 0 0 -0.000479222 0.000360518 -0.969327
23 0.784523 0 0 0.00427085 0.00619489 -0.802021
24 -2.4735 6.38035 -5.29598 -0.000932693 0 -1.67936
25 6.02794 0 0 1.30953 0.414707 0.356705
26 11.7344 0 0 0.00140278 0 0.651001
27 8.81167 0 0 0.440585 0 0
28 5.77884 0 0 0.295192 0 0
29 2.23249 0 0 0.145393 0 0
30 11.4725 0 0 0.477897 -0.217815 -0.213617
31 0.615816 0.994373 -0.809166 -2.63072 -0.02299 0.302397
32 2.24752 0 0 -0.233939 0.119313 0.186604
33 1.11935 0 0 -0.10034 0.146391 0.154007
34 3.71349 0.102639 0.10219 -1.62656 0.647308 -0.011774
35 1.72615 0 0 -0.0140398 -0.00343416 1.05412
36 1.21112 0 0 -0.0114087 0.0134492 0.623938
37 3.5992 1.06012 0.0708885 -1.82885 0.552225 -0.0809853
38 1.66069 0 0 0.0185625 0.0357885 0.837463
39 1.16699 0 0 -0.0214546 -0.0188799 0.512602
40 2.18853 -0.50104 0.057659 -1.57595 -0.0519128 -0.112472
41 1.29609 0 0 -0.020726 -0.0420008 0.647344
42 1.62202 -0.000713348 -0.000469208 -0.0176409 -0.0302896 0.960613
43 1.22241 0 0 -0.0109009 -0.000363356 0.883798
44 1.76707 -1.27612 0.0366403 -1.57501 0.0279593 -0.0920012
45 1.55588 0 0 -0.0274839 -0.0875848 0.552803
46 1.24273 0 0 0.00047891 0.000360572 1.16748
47 0.784532 0 0 -0.00207168 0.00549202 0.856291
48 0 0 -9.79273 0 0 0
49 5.84323 -23.5516 -6.06698 -0.00350304 -0.00437269 -0.000275779
50 0 -0.584457 2.04671 0 0 0
51 -0.0130906 -0.755098 2.39133 0 0 0
52 5.84176 -24.9117 -5.81694 -0.00350313 -0.0043726 -0.000275216
53 0 -0.675064 1.41593 0 0 0
54 0 0.979376 2.2232 0 0 0
55 0 -3.93659 2.85382 0 0 0
56 0 2.062 1.89702 -0.785398 0 0
57 0 -1.66928 2.73772 0 0 0
time 29
0 2.90881 6.05823 -3.71544 0.000934124 0 -0.725437
1 6.02794 0 0 -1.12161 0.400247 -0.758087
2 11.7344 0 0 -0.00140285 0 -0.63494
3 8.81138 -0.000448227 -0.000112057 -0.118581 0 0.000158808
4 5.77839 0.000287056 0 -0.0794491 0 0.000105887
5 2.23163 -0.000328064 -0.000363827 -0.0391318 0 0
6 11.4725 0 0 -0.202794 -0.329999 0.267502
7 0.615217 -0.993092 -0.8107 2.8564 0.427914 -0.348126
8 2.24752 0 0 0.742483 0.196537 -0.184311
9 1.11935 0 0 0.0569243 -0.0187487 -0.38543
10 3.71348 -0.102641 0.102191 1.55999 0.843182 0.0798627
11 1.72615 0 0 0.00870227 0.00432159 -1.08945
12 1.21114 0 0 0.00379986 0.017222 -1.3256
13 3.59919 -1.06012 0.0708878 1.52729 0.379604 0.0109444
14 1.66069 0 0 -0.000891686 0.0778601 -0.234383
15 1.167 0 0 -0.0449929 0.0164959 -0.8571
16 2.18852 0.501039 0.0576594 1.52613 0.099798 0.154747
17 1.29609 0 0 0.0247847 -0.039742 -0.746595
18 1.62202 0.000711441 -0.000471115 0.00528192 -0.0126014 -1.12707
19 1.22241 0 0 -0.0199585 0.00621244 -1.25809
20 1.76707 1.27612 0.0366403 1.35857 0.244319 0.100604
21 1.55588 0 0 -0.0216193 0.0244014 -0.43056
22 1.24273 0 0 -0.000479212 0.000360499 -0.969327
23 0.784523 0 0 0.00427084 0.00619488 -0.802021
24 -2.4735 6.38035 -5.29598 -0.000932693 0 -1.67936
25 6.02794 0 0 1.30978 0.415005 0.356524
26 11.7344 0 0 0.00140274 0 0.652605
27 8.81167 0 0 0.437166 0 0
28 5.77884 0 0 0.292901 0 0
29 2.23249 0 0 0.144265 0 0
30 11.4725 0 0 0.475543 -0.216602 -0.21764
31 0.615812 0.994373 -0.809165 -2.63072 -0.02299 0.302397
32 2.24752 0 0 -0.233939 0.119313 0.186604
33 1.11936 0 0 -0.10034 0.146391 0.154007
34 3.71348 0.102639 0.102191 -1.62656 0.647308 -0.011774
35 1.72615 0 0 -0.0140398 -0.00343417 1.05412
36 1.21112 0 0 -0.0114086 0.0134492 0.623938
37 3.5992 1.06012 0.0708885 -1.82885 0.552225 -0.0809854
38 1.66069 0 0 0.0185625 0.0357885 0.837463
39 1.16699 0 0 -0.0214546 -0.0188799 0.512602
40 2.18853 -0.50104 0.057659 -1.57595 -0.0519129 -0.112472
41 1.29609 0 0 -0.020726 -0.0420008 0.647344
42 1.62202 -0.000713348 -0.000469208 -0.0176409 -0.0302896 0.960613
43 1.22241 0 0 -0.0109008 -0.000363356 0.883798
44 1.76707 -1.27612 0.0366403 -1.57501 0.0279592 -0.0920012
45 1.55588 0 0 -0.0274839 -0.0875848 0.552803
46 1.24273 0 0 0.000478933 0.000360586 1.16748
47 0.784532 0 0 -0.00207168 0.00549202 0.856291
48 0 0 -9.79273 0 0 0
49 5.84557 -23.5508 -6.06951 -0.00103287 -0.00126269 0
50 0 -0.584455 2.04671 0 0 0
51 -0.0130906 -0.755098 2.39133 0 0 0
52 5.84514 -24.9115 -5.82283 -0.00103295 -0.0012626 0
53 0 -0.675064 1.41593 0 0 0
54 0 0.979378 2.2232 0 0 0
55 0 -3.93658 2.85382 0 0 0
56 0 2.062 1.89702 -0.785398 0 0
57 0 -1.66927 2.73772 0 0 0
time 30
0 2.90881 6.05823 -3.71544 0.000934124 0 -0.725437
1 6.02794 0 0 -1.12166 0.400354 -0.75799
2 11.7344 0 0 -0.00140289 0 -0.635402
3 8.81138 -0.000450134 -0.000112534 -0.11946 0 0.000158715
4 5.77839 0.000286102 0 -0.0800383 0 0.000105814
5 2.23163 -0.000329018 -0.00036335 -0.0394218 0 0
6 11.4725 0 0 -0.204133 -0.329561 0.269126
7 0.615217 -0.993091 -0.810699 2.8564 0.427913 -0.348126
8 2.24752 0 0 0.742483 0.196537 -0.184311
9 1.11935 0 0 0.0569244 -0.0187488 -0.38543
10 3.71348 -0.102641 0.102191 1.55999 0.843182 0.0798625
11 1.72615 0 0 0.00870226 0.00432157 -1.08945
12 1.21114 0 0 0.00379981 0.0172221 -1.3256
13 3.59919 -1.06012 0.0708884 1.52729 0.379604 0.0109444
14 1.66069 0 0 -0.000891697 0.07786 -0.234384
15 1.167 0 0 -0.0449929 0.0164959 -0.8571
16 2.18852 0.50104 0.0576589 1.52613 0.0997979 0.154747
17 1.29609 0 0 0.0247846 -0.039742 -0.746595
18 1.62202 0.000715256 -0.000471115 0.00528192 -0.0126014 -1.12707
19 1.22241 0 0 -0.0199585 0.00621244 -1.25809
20 1.76707 1.27612 0.0366408 1.35857 0.244319 0.100604
21 1.55588 0 0 -0.0216193 0.0244014 -0.43056
22 1.24274 0 0 -0.000479225 0.000360524 -0.969327
23 0.784523 0 0 0.00427086 0.00619489 -0.802021
24 -2.4735 6.38035 -5.29598 -0.000932693 0 -1.67936
25 6.02794 0 0 1.30986 0.415211 0.356429
26 11.7344 0 0 0.00140258 0 0.653476
27 8.81167 0 0 0.435757 0 0
28 5.77884 0 0 0.291957 0 0
29 2.23249 0 0 0.1438 0 0
30 11.4725 0 0 0.474608 -0.216101 -0.219437
31 0.615812 0.994372 -0.809165 -2.63072 -0.0229901 0.302397
32 2.24752 0 0 -0.233939 0.119313 0.186604
33 1.11935 0 0 -0.10034 0.146391 0.154007
34 3.71349 0.102639 0.102191 -1.62656 0.647308 -0.011774
35 1.72615 0 0 -0.0140398 -0.00343418 1.05412
36 1.21112 0 0 -0.0114087 0.0134492 0.623938
37 3.5992 1.06012 0.0708884 -1.82885 0.552225 -0.0809853
38 1.66069 0 0 0.0185625 0.0357885 0.837463
39 1.16699 0 0 -0.0214546 -0.0188799 0.512602
40 2.18853 -0.50104 0.0576594 -1.57595 -0.0519129 -0.112472
41 1.29609 0 0 -0.020726 -0.0420008 0.647344
42 1.62202 -0.000713348 -0.000470161 -0.0176409 -0.0302896 0.960613
43 1.22241 0 0 -0.0109008 -0.000363346 0.883798
44 1.76707 -1.27612 0.0366409 -1.57501 0.0279592 -0.0920012
45 1.55588 0 0 -0.0274838 -0.0875848 0.552803
46 1.24273 0 0 0.000478912 0.000360595 1.16748
47 0.784532 0 0 -0.0020717 0.00549201 0.856291
48 0 0 -9.79273 0 0 0
49 5.84656 -23.5497 -6.07014 0 0 0
50 0 -0.584455 2.04671 0 0 0
51 -0.013092 -0.755096 2.39133 0 0 0
52 5.84656 -24.9106 -5.82486 0 0 0
53 0 -0.675064 1.41593 0 0 0
54 0 0.979378 2.2232 0 0 0
55 0 -3.93658 2.85382 0 0 0
56 0 2.062 1.89702 -0.785398 0 0
57 0 -1.66928 2.73772 0 0 0
end
