//Sequence File generated by the Wall Worm SMD Exporter PRO 1.99
//www.wallworm.com
version 1
nodes
0 "b_l_clav" -1
1 "b_l_upperarm" 0
2 "b_l_forearm" 1
3 "b_l_twist3" 2
4 "b_l_twist2" 2
5 "b_l_twist1" 2
6 "b_l_hand" 2
7 "b_l_thumb001" 6
8 "b_l_thumb002" 7
9 "b_l_thumb003" 8
10 "b_l_middle001" 6
11 "b_l_middle002" 10
12 "b_l_middle003" 11
13 "b_l_index001" 6
14 "b_l_index002" 13
15 "b_l_index003" 14
16 "b_l_hand_ringsqueezer" 6
17 "b_l_ring001" 16
18 "b_l_ring002" 17
19 "b_l_ring003" 18
20 "b_l_hand_pinkysqueezer" 6
21 "b_l_pinky001" 20
22 "b_l_pinky002" 21
23 "b_l_pinky003" 22
24 "b_r_clav" -1
25 "b_r_upperarm" 24
26 "b_r_forearm" 25
27 "b_r_twist3" 26
28 "b_r_twist2" 26
29 "b_r_twist1" 26
30 "b_r_hand" 26
31 "b_r_thumb001" 30
32 "b_r_thumb002" 31
33 "b_r_thumb003" 32
34 "b_r_middle001" 30
35 "b_r_middle002" 34
36 "b_r_middle003" 35
37 "b_r_index001" 30
38 "b_r_index002" 37
39 "b_r_index003" 38
40 "b_r_hand_ringsqueezer" 30
41 "b_r_ring001" 40
42 "b_r_ring002" 41
43 "b_r_ring003" 42
44 "b_r_hand_pinkysqueezer" 30
45 "b_r_pinky001" 44
46 "b_r_pinky002" 45
47 "b_r_pinky003" 46
48 "b_zero" -1
49 "d_wepinbone" -1
end
skeleton
time 0
0 2.57209 1.18619 -8.6006 0 0 -0.814469
1 6.02794 0 0 -1.36879 0.798743 -0.542169
2 11.7344 0 0 -0.00140278 0 -1.43692
3 8.81138 -0.000448227 -0.00011158 -0.270686 0 0.000156265
4 5.77839 0.000286102 0 -0.181359 0 0.000103457
5 2.23163 -0.000329971 -0.00036335 -0.0893263 0 0
6 11.4725 0 0 -0.294423 -0.35879 0.118047
7 0.615219 -0.993092 -0.8107 2.92227 0.454999 -0.33141
8 2.24752 0 0 0.0643999 0.0920014 -0.24525
9 1.11936 0 0 0.0124089 0.0391454 -1.16006
10 3.71348 -0.102642 0.10219 1.44559 1.26927 -0.122846
11 1.72615 0 0 -0.0132949 0.00454343 -1.35296
12 1.21114 0 0 -0.0138876 0.0108708 -1.50415
13 3.59919 -1.06012 0.0708876 1.59719 1.13552 0.0844625
14 1.66069 0 0 0.0206524 0.106434 -1.46129
15 1.167 0 0 0.140204 0.107864 -1.2636
16 2.18852 0.501038 0.0576587 1.58026 0.110062 0.0312636
17 1.29609 0 0 -0.0214551 0.0115007 -1.06235
18 1.62202 0.000713348 -0.000471115 -0.00756982 0.00444235 -1.4728
19 1.22241 0 0 -0.0469826 -0.00376776 -1.43289
20 1.76707 1.27612 0.0366406 1.57845 0.182304 -0.021451
21 1.55588 0 0 -0.155246 -0.00355036 -0.857709
22 1.24273 0 0 -0.000505255 -0.000322949 -1.24825
23 0.784523 0 0 0.0082204 0.0140817 -0.754785
24 -1.93761 -1.56582 -10.5888 -0.000932534 0 -2.53187
25 6.02795 0 0 0.807576 0.366389 1.34985
26 11.7344 0 0 0.00140264 0 0.606703
27 8.81167 0 0 0.398098 0 0
28 5.77884 0 0 0.266726 0 0
29 2.23249 0 0 0.131372 0 0
30 11.4725 0 0 0.150569 -0.697544 0.278271
31 0.615815 0.994371 -0.809165 -2.72226 0.463503 0.286233
32 2.24752 0 0 -0.083597 0.0959306 0.272288
33 1.11936 0 0 -0.401236 0.450129 0.842933
34 3.71349 0.102636 0.102191 -1.41386 1.26431 0.0816931
35 1.72615 0 0 0.00069843 0.000241606 1.34896
36 1.21112 0 0 0.0115404 0.0133365 1.31081
37 3.5992 1.06011 0.0708885 -1.68043 1.04215 -0.112109
38 1.66069 0 0 0.00620718 0.00200642 1.47997
39 1.16699 0 0 -0.0701393 0.164234 1.21657
40 2.18853 -0.501041 0.0576591 -1.57605 0.00117806 -0.0469345
41 1.29609 0 0 -0.0326376 -0.0616158 1.17811
42 1.62201 -0.000713348 -0.000469208 -0.00508022 -0.00330952 1.42626
43 1.22241 0 0 0.024702 -0.0856983 1.42308
44 1.76707 -1.27612 0.0366411 -1.56655 0.103701 0.0275537
45 1.55588 0 0 0.103891 -0.075653 0.975564
46 1.24273 0 0 -0.00469952 -0.0380689 1.28397
47 0.784531 0 0 -0.0127429 -0.0577752 1.00048
48 0 0 0 0 0 0
49 8.68284 -21.9724 -5.95148 -0.482858 0.258133 0.0662012
time 1
0 2.57209 1.18619 -8.6006 0 0 -0.814469
1 6.02794 0 0 -1.55172 1.01331 -0.456197
2 11.7344 0 0 -0.00140287 0 -1.83245
3 8.81138 -0.000450134 -0.000112057 -0.5069 0 0.000156886
4 5.77839 0.000284195 0 -0.339623 0 0.000103011
5 2.23163 -0.000329971 -0.000364304 -0.167277 0 0
6 11.4725 0 0 -0.426909 -0.395952 -0.165769
7 0.615219 -0.99309 -0.8107 2.92227 0.454999 -0.33141
8 2.24752 0 0 0.0643998 0.0920016 -0.24525
9 1.11936 0 0 0.0124091 0.0391454 -1.16006
10 3.71348 -0.10264 0.10219 1.44559 1.26927 -0.122846
11 1.72615 0 0 -0.0132949 0.00454372 -1.35296
12 1.21114 0 0 -0.0138877 0.0108706 -1.50415
13 3.59919 -1.06012 0.0708876 1.59719 1.13552 0.0844619
14 1.66069 0 0 0.0206525 0.106434 -1.46129
15 1.167 0 0 0.140204 0.107864 -1.2636
16 2.18852 0.50104 0.0576572 1.58026 0.110062 0.0312636
17 1.29609 0 0 -0.021455 0.0115007 -1.06235
18 1.62202 0.000712395 -0.000471115 -0.00756995 0.00444249 -1.4728
19 1.22241 0 0 -0.0469828 -0.00376785 -1.43289
20 1.76707 1.27612 0.0366392 1.57845 0.182304 -0.0214511
21 1.55588 0 0 -0.155246 -0.00355037 -0.857709
22 1.24273 0 0 -0.000505137 -0.000323112 -1.24825
23 0.784522 0 0 0.0082203 0.0140816 -0.754785
24 -1.94048 -1.05341 -10.5888 -0.000932534 0 -2.53187
25 6.02795 0 0 0.914949 0.269796 1.51714
26 11.7344 0 0 0.00140273 0 0.606416
27 8.81167 0 0 -0.0743383 0 0
28 5.77884 0 0 -0.0498067 0 0
29 2.23249 0 0 -0.0245316 0 0
30 11.4725 0 0 -0.447694 -0.426599 0.75242
31 0.615811 0.99437 -0.809165 -2.72226 0.463503 0.286233
32 2.24752 0 0 -0.083597 0.0959306 0.272288
33 1.11936 0 0 -0.401235 0.450129 0.842933
34 3.71348 0.102636 0.102191 -1.41386 1.26431 0.0816935
35 1.72615 0 0 0.000698378 0.00024179 1.34896
36 1.21112 0 0 0.0115404 0.0133366 1.31081
37 3.5992 1.06011 0.0708876 -1.68043 1.04215 -0.112109
38 1.66069 0 0 0.00620723 0.00200645 1.47997
39 1.16699 0 0 -0.0701395 0.164234 1.21657
40 2.18853 -0.50104 0.0576591 -1.57605 0.00117795 -0.0469346
41 1.29609 0 0 -0.0326375 -0.0616158 1.17811
42 1.62201 -0.000713825 -0.000469208 -0.00508025 -0.0033095 1.42626
43 1.22241 0 0 0.024702 -0.0856984 1.42308
44 1.76707 -1.27612 0.0366411 -1.56655 0.103701 0.0275536
45 1.55588 0 0 0.103891 -0.0756531 0.975564
46 1.24273 0 0 -0.0046995 -0.038069 1.28397
47 0.784531 0 0 -0.0127428 -0.0577752 1.00048
48 0 0 0 0 0 0
49 11.8882 -15.5331 -5.84368 -1.06618 0.426099 -0.0186559
time 2
0 2.57209 1.18619 -8.6006 0 0 -0.814469
1 6.02794 0 0 -1.95377 1.02609 -0.461153
2 11.7344 0 0 -0.00140288 0 -2.22452
3 8.81138 -0.000450134 -0.00011301 -0.87085 0 0.000157049
4 5.77839 0.000284195 0 -0.583469 0 0.000101862
5 2.23163 -0.000329971 -0.000363827 -0.28738 0 0
6 11.4725 0 0 -0.800721 -0.569931 0.0554627
7 0.61522 -0.993091 -0.810699 2.92227 0.454999 -0.33141
8 2.24752 0 0 0.0643998 0.0920016 -0.24525
9 1.11936 0 0 0.0124088 0.0391456 -1.16006
10 3.71348 -0.102641 0.10219 1.44559 1.26927 -0.122846
11 1.72615 0 0 -0.013295 0.00454355 -1.35296
12 1.21114 0 0 -0.0138879 0.0108709 -1.50415
13 3.59919 -1.06012 0.0708866 1.59719 1.13552 0.0844621
14 1.66069 0 0 0.0206526 0.106434 -1.46129
15 1.167 0 0 0.140204 0.107864 -1.2636
16 2.18852 0.50104 0.0576591 1.58026 0.110062 0.0312636
17 1.29609 0 0 -0.0214549 0.0115007 -1.06235
18 1.62202 0.000713348 -0.000471115 -0.00756999 0.00444244 -1.4728
19 1.22241 0 0 -0.0469829 -0.00376787 -1.43289
20 1.76707 1.27612 0.0366411 1.57845 0.182304 -0.0214512
21 1.55588 0 0 -0.155246 -0.00355037 -0.857709
22 1.24273 0 0 -0.000505246 -0.000322961 -1.24825
23 0.784525 0 0 0.00822042 0.0140818 -0.754785
24 -1.96059 0.168472 -10.5888 -0.000932534 0 -2.53187
25 6.02794 0 0 1.12207 0.0632095 1.79534
26 11.7344 0 0 0.00140264 0 0.5755
27 8.81167 0 0 -0.786855 0 0
28 5.77884 0 0 -0.527193 0 0
29 2.23249 0 0 -0.259662 0 0
30 11.4725 0 0 -0.801122 0.267736 0.683558
31 0.615813 0.994372 -0.809164 -2.72226 0.463503 0.286233
32 2.24752 0 0 -0.0835969 0.0959306 0.272288
33 1.11936 0 0 -0.401235 0.450129 0.842933
34 3.71349 0.10264 0.102192 -1.41386 1.26431 0.0816933
35 1.72615 0 0 0.000698365 0.000241696 1.34896
36 1.21112 0 0 0.0115404 0.0133365 1.31081
37 3.5992 1.06012 0.0708885 -1.68043 1.04215 -0.112109
38 1.66069 0 0 0.00620707 0.00200644 1.47997
39 1.16699 0 0 -0.0701391 0.164234 1.21657
40 2.18853 -0.501038 0.0576611 -1.57605 0.00117802 -0.0469345
41 1.29609 0 0 -0.0326373 -0.0616159 1.17811
42 1.62202 -0.000713587 -0.000471115 -0.00508029 -0.0033095 1.42626
43 1.22241 0 0 0.0247017 -0.0856985 1.42308
44 1.76707 -1.27612 0.0366421 -1.56655 0.103701 0.0275536
45 1.55588 0 0 0.103891 -0.0756529 0.975564
46 1.24273 0 0 -0.00469947 -0.038069 1.28397
47 0.784531 0 0 -0.0127431 -0.0577751 1.00048
48 0 0 0 0 0 0
49 14.827 -8.22948 -5.67268 -1.71376 0.700855 -0.213873
time 3
0 2.57209 1.18619 -8.6006 0 0 -0.814469
1 6.02794 0 0 -1.56732 1.11807 -0.455323
2 11.7344 0 0 -0.00140285 0 -2.42236
3 8.81138 -0.000451088 -0.000112057 -0.965339 0 0.000156842
4 5.77839 0.000286102 0 -0.646777 0 0.000101442
5 2.23164 -0.000329971 -0.000364304 -0.318562 0 0
6 11.4725 0 0 -1.01138 -0.802064 0.53722
7 0.61522 -0.993092 -0.810699 2.92227 0.454999 -0.33141
8 2.24752 0 0 0.0643999 0.0920016 -0.24525
9 1.11936 0 0 0.0124091 0.0391454 -1.16006
10 3.71348 -0.102641 0.102191 1.44559 1.26927 -0.122845
11 1.72615 0 0 -0.0132949 0.00454348 -1.35296
12 1.21114 0 0 -0.0138876 0.0108708 -1.50415
13 3.59919 -1.06012 0.0708866 1.59719 1.13552 0.0844624
14 1.66069 0 0 0.0206525 0.106434 -1.46129
15 1.167 0 0 0.140204 0.107864 -1.2636
16 2.18852 0.501038 0.0576591 1.58026 0.110062 0.0312637
17 1.29609 0 0 -0.0214549 0.0115007 -1.06235
18 1.62202 0.000714302 -0.000469685 -0.00756993 0.00444255 -1.4728
19 1.22241 0 0 -0.0469829 -0.00376793 -1.43289
20 1.76707 1.27612 0.0366411 1.57845 0.182304 -0.0214509
21 1.55588 0 0 -0.155246 -0.00355027 -0.857709
22 1.24273 0 0 -0.000505597 -0.000323085 -1.24825
23 0.784523 0 0 0.00822046 0.0140817 -0.754785
24 -2.01518 1.62685 -10.5888 -0.000932534 0 -2.53187
25 6.02794 0 0 1.45772 0.375934 1.68683
26 11.7344 0 0 0.0014027 0 1.22935
27 8.81167 0 0 -1.19715 0 0
28 5.77884 0 0 -0.802092 0 0
29 2.23249 0 0 -0.39506 0 0
30 11.4725 0 0 -1.16533 0.460131 -0.0820904
31 0.615812 0.994372 -0.809165 -2.72226 0.463503 0.286233
32 2.24752 0 0 -0.0835969 0.0959307 0.272288
33 1.11936 0 0 -0.401235 0.450129 0.842933
34 3.71349 0.102637 0.10219 -1.41386 1.26431 0.081694
35 1.72615 0 0 0.000698428 0.000241846 1.34896
36 1.21112 0 0 0.0115401 0.0133366 1.31081
37 3.5992 1.06011 0.0708876 -1.68043 1.04215 -0.112109
38 1.66069 0 0 0.00620715 0.00200653 1.47997
39 1.16699 0 0 -0.0701395 0.164234 1.21657
40 2.18853 -0.50104 0.0576591 -1.57605 0.00117794 -0.0469345
41 1.29609 0 0 -0.0326376 -0.0616157 1.17811
42 1.62202 -0.00071311 -0.000469208 -0.00508018 -0.0033095 1.42626
43 1.22241 0 0 0.024702 -0.0856985 1.42308
44 1.76707 -1.27612 0.0366402 -1.56655 0.103701 0.0275536
45 1.55588 0 0 0.103891 -0.075653 0.975564
46 1.24273 0 0 -0.00469958 -0.038069 1.28397
47 0.784531 0 0 -0.0127429 -0.0577753 1.00048
48 0 0 0 0 0 0
49 12.4912 -9.07191 -5.55278 -1.5988 0.910547 -0.474934
time 4
0 2.57209 1.18619 -8.6006 0 0 -0.814469
1 6.02794 0 0 -0.965651 0.943835 -0.55872
2 11.7344 0 0 -0.00140292 0 -2.22347
3 8.81138 -0.000450134 -0.000112057 -1.52032 0 0.000156162
4 5.77839 0.000284195 0 -1.01862 0 0
5 2.23163 -0.000329018 -0.000364304 -0.501707 0 0
6 11.4725 0 0 -1.5437 -0.643079 1.11011
7 0.615219 -0.993091 -0.8107 2.92227 0.454999 -0.33141
8 2.24752 0 0 0.0643997 0.0920016 -0.24525
9 1.11936 0 0 0.012409 0.0391454 -1.16006
10 3.71348 -0.102641 0.102191 1.44559 1.26927 -0.122846
11 1.72615 0 0 -0.0132952 0.00454367 -1.35296
12 1.21114 0 0 -0.0138877 0.0108708 -1.50415
13 3.59919 -1.06012 0.0708876 1.59719 1.13552 0.0844629
14 1.66069 0 0 0.0206525 0.106434 -1.46129
15 1.167 0 0 0.140204 0.107864 -1.2636
16 2.18852 0.501039 0.0576582 1.58026 0.110062 0.0312636
17 1.29609 0 0 -0.021455 0.0115007 -1.06235
18 1.62202 0.000713348 -0.000471354 -0.00756996 0.0044424 -1.4728
19 1.22241 0 0 -0.0469829 -0.00376804 -1.43289
20 1.76707 1.27612 0.0366411 1.57845 0.182304 -0.021451
21 1.55588 0 0 -0.155246 -0.00355049 -0.857709
22 1.24274 0 0 -0.00050537 -0.000322958 -1.24825
23 0.784521 0 0 0.00822036 0.0140816 -0.754785
24 -2.12149 2.84874 -10.5888 -0.000932534 0 -2.53187
25 6.02794 0 0 2.07387 0.577986 1.74884
26 11.7344 0 0 0.00140276 0 1.79967
27 8.81167 0 0 -1.78904 0 0
28 5.77884 0 0 -1.19866 0 0
29 2.23249 0 0 -0.590384 0 0
30 11.4725 0 0 -1.73498 0.0784118 -0.7437
31 0.615814 0.994372 -0.809165 -2.72226 0.463503 0.286233
32 2.24752 0 0 -0.083597 0.0959307 0.272288
33 1.11936 0 0 -0.401235 0.450129 0.842933
34 3.71349 0.102639 0.102191 -1.41386 1.26431 0.081693
35 1.72615 0 0 0.000698448 0.000241871 1.34896
36 1.21112 0 0 0.0115403 0.0133365 1.31081
37 3.5992 1.06012 0.0708885 -1.68043 1.04215 -0.112109
38 1.66069 0 0 0.00620716 0.00200645 1.47997
39 1.16699 0 0 -0.0701391 0.164234 1.21657
40 2.18853 -0.50104 0.0576591 -1.57605 0.00117791 -0.0469344
41 1.29609 0 0 -0.0326374 -0.0616158 1.17811
42 1.62201 -0.000712872 -0.000470161 -0.0050804 -0.00330963 1.42626
43 1.22241 0 0 0.0247019 -0.0856984 1.42308
44 1.76707 -1.27612 0.0366411 -1.56655 0.103701 0.0275536
45 1.55587 0 0 0.103891 -0.0756529 0.975564
46 1.24273 0 0 -0.0046996 -0.0380688 1.28397
47 0.784532 0 0 -0.0127429 -0.0577753 1.00048
48 0 0 0 0 0 0
49 6.5501 -15.0569 -5.44586 -0.996909 1.11246 -0.816679
time 5
0 2.57209 1.18619 -8.6006 0 0 -0.814469
1 6.02794 0 0 -1.20479 0.343525 -0.948633
2 11.7344 0 0 -0.00140291 0 -0.931649
3 8.81138 -0.000450134 -0.00011301 -1.60147 0 0.000157238
4 5.77839 0.000286102 0 -1.07299 0 0.000100143
5 2.23163 -0.000328064 -0.00036478 -0.528487 0 0
6 11.4725 0 0 -1.61336 0.848363 0.379419
7 0.615218 -0.99309 -0.810699 2.92227 0.454999 -0.33141
8 2.24752 0 0 0.0643999 0.0920015 -0.24525
9 1.11936 0 0 0.0124089 0.0391455 -1.16006
10 3.71348 -0.10264 0.102191 1.44559 1.26927 -0.122846
11 1.72615 0 0 -0.0132949 0.00454351 -1.35296
12 1.21114 0 0 -0.0138878 0.0108707 -1.50415
13 3.59919 -1.06012 0.0708885 1.59719 1.13552 0.0844622
14 1.66069 0 0 0.0206524 0.106434 -1.46129
15 1.167 0 0 0.140204 0.107864 -1.2636
16 2.18852 0.501038 0.0576591 1.58026 0.110062 0.0312636
17 1.29609 0 0 -0.0214549 0.0115007 -1.06235
18 1.62202 0.000717163 -0.000471115 -0.00757015 0.0044424 -1.4728
19 1.22241 0 0 -0.0469829 -0.00376793 -1.43289
20 1.76707 1.27612 0.0366421 1.57845 0.182304 -0.0214512
21 1.55587 0 0 -0.155246 -0.00355038 -0.857709
22 1.24273 0 0 -0.0005054 -0.000323053 -1.24825
23 0.784523 0 0 0.00822023 0.0140818 -0.754785
24 -2.29676 3.36114 -10.5888 -0.000932534 0 -2.53187
25 6.02794 0 0 2.16675 0.271793 1.58936
26 11.7344 0 0 0.00140261 0 1.23027
27 8.81167 0 0 -2.16018 0 0
28 5.77884 0 0 -1.44732 0 0
29 2.23249 0 0 -0.712858 0 0
30 11.4725 0 0 -2.72107 -0.977917 0.596006
31 0.615813 0.994372 -0.809165 -2.72226 0.463503 0.286233
32 2.24752 0 0 -0.0835969 0.0959306 0.272288
33 1.11936 0 0 -0.401236 0.450129 0.842933
34 3.71349 0.10264 0.10219 -1.41386 1.26431 0.0816941
35 1.72615 0 0 0.000698405 0.00024174 1.34896
36 1.21112 0 0 0.0115403 0.0133365 1.31081
37 3.5992 1.06012 0.0708876 -1.68043 1.04215 -0.112109
38 1.66069 0 0 0.00620725 0.00200651 1.47997
39 1.16699 0 0 -0.0701395 0.164234 1.21657
40 2.18853 -0.50104 0.0576582 -1.57605 0.00117792 -0.0469345
41 1.29609 0 0 -0.0326375 -0.0616159 1.17811
42 1.62201 -0.000713348 -0.000469208 -0.0050803 -0.00330952 1.42626
43 1.22241 0 0 0.0247018 -0.0856984 1.42308
44 1.76707 -1.27612 0.0366402 -1.56655 0.103701 0.0275536
45 1.55588 0 0 0.103891 -0.0756531 0.975564
46 1.24273 0 0 -0.00469959 -0.0380688 1.28397
47 0.784532 0 0 -0.0127427 -0.0577753 1.00048
48 0 0 0 0 0 0
49 -2.99628 -26.1845 -5.35194 0.0919219 1.3066 -1.23911
time 6
0 2.57209 1.18619 -8.96451 0 0 -0.814469
1 6.02794 0 0 -1.18293 0.460981 -0.886129
2 11.7344 0 0 -0.00140287 0 -1.25092
3 8.81138 -0.000450134 -0.00011158 -1.55227 0 0.000157377
4 5.77839 0.000286102 0 -1.04002 0 0.000100499
5 2.23163 -0.000328064 -0.00036478 -0.51225 0 0
6 11.4725 0 0 -1.55246 0.606848 0.62966
7 0.615218 -0.993089 -0.810699 2.92227 0.454999 -0.331411
8 2.24752 0 0 0.0643998 0.0920015 -0.24525
9 1.11936 0 0 0.0124089 0.0391454 -1.16006
10 3.71348 -0.102641 0.102192 1.44559 1.26927 -0.122846
11 1.72615 0 0 -0.0132948 0.00454349 -1.35296
12 1.21114 0 0 -0.0138877 0.0108708 -1.50415
13 3.59919 -1.06012 0.0708885 1.59719 1.13552 0.084462
14 1.66069 0 0 0.0206528 0.106434 -1.46129
15 1.16699 0 0 0.140204 0.107864 -1.2636
16 2.18852 0.50104 0.0576591 1.58026 0.110062 0.0312638
17 1.29609 0 0 -0.021455 0.0115005 -1.06235
18 1.62202 0.000715256 -0.000472069 -0.00756997 0.00444264 -1.4728
19 1.22241 0 0 -0.046983 -0.0037677 -1.43289
20 1.76707 1.27612 0.0366421 1.57845 0.182304 -0.021451
21 1.55588 0 0 -0.155246 -0.00355049 -0.857709
22 1.24273 0 0 -0.000505102 -0.000323059 -1.24825
23 0.784523 0 0 0.0082203 0.0140819 -0.754785
24 -3.08286 3.33938 -10.8334 -0.000932534 0 -2.53187
25 6.02795 0 0 2.22006 0.308941 1.70349
26 11.7344 0 0 0.00140265 0 1.39746
27 8.81167 0 0 -2.16941 0 0
28 5.77884 0 0 -1.45351 0 0
29 2.23249 0 0 -0.715906 0 0
30 11.4725 0 0 -2.45927 -0.858856 0.219346
31 0.615812 0.994372 -0.809166 -2.72226 0.463503 0.286233
32 2.24752 0 0 -0.0835969 0.0959307 0.272288
33 1.11936 0 0 -0.401235 0.450129 0.842934
34 3.71348 0.102638 0.102191 -1.41386 1.26431 0.0816935
35 1.72615 0 0 0.000698349 0.000241747 1.34896
36 1.21112 0 0 0.0115403 0.0133366 1.31081
37 3.5992 1.06011 0.0708876 -1.68043 1.04215 -0.112109
38 1.66069 0 0 0.00620705 0.00200641 1.47997
39 1.16699 0 0 -0.0701394 0.164234 1.21657
40 2.18853 -0.50104 0.0576582 -1.57605 0.001178 -0.0469345
41 1.29609 0 0 -0.0326375 -0.0616158 1.17811
42 1.62201 -0.000711441 -0.000470161 -0.0050803 -0.00330941 1.42626
43 1.22241 0 0 0.0247019 -0.0856984 1.42308
44 1.76707 -1.27612 0.0366402 -1.56655 0.103701 0.0275536
45 1.55588 0 0 0.103891 -0.0756532 0.975564
46 1.24273 0 0 -0.00469957 -0.038069 1.28397
47 0.784531 0 0 -0.0127428 -0.0577752 1.00048
48 0 0 0 0 0 0
49 -1.33982 -24.7574 -5.0694 -0.0350308 1.24987 -1.11287
time 7
0 2.57209 1.18619 -9.83231 0 0 -0.814469
1 6.02794 0 0 -1.17083 0.489814 -0.844245
2 11.7344 0 0 -0.00140282 0 -1.44447
3 8.81138 -0.000450134 -0.000112295 -1.49516 0 0.000157719
4 5.77839 0.00028801 0 -1.00176 0 0.000100834
5 2.23163 -0.000328064 -0.000365257 -0.493402 0 0
6 11.4725 0 0 -1.51283 0.410089 0.815303
7 0.615221 -0.993093 -0.810699 2.92227 0.454999 -0.331411
8 2.24752 0 0 0.0643998 0.0920015 -0.24525
9 1.11936 0 0 0.0124088 0.0391455 -1.16006
10 3.71348 -0.102641 0.10219 1.44559 1.26927 -0.122846
11 1.72615 0 0 -0.0132945 0.00454344 -1.35296
12 1.21114 0 0 -0.0138879 0.0108709 -1.50415
13 3.59919 -1.06012 0.0708866 1.59719 1.13552 0.0844626
14 1.66069 0 0 0.0206527 0.106434 -1.46129
15 1.16699 0 0 0.140204 0.107864 -1.2636
16 2.18853 0.501038 0.0576591 1.58026 0.110062 0.0312635
17 1.29609 0 0 -0.0214548 0.0115008 -1.06235
18 1.62202 0.000713348 -0.000471115 -0.0075699 0.0044427 -1.4728
19 1.22241 0 0 -0.0469831 -0.0037678 -1.43289
20 1.76707 1.27612 0.0366411 1.57845 0.182304 -0.0214511
21 1.55588 0 0 -0.155246 -0.00355037 -0.857709
22 1.24273 0 0 -0.000505373 -0.000322887 -1.24825
23 0.784525 0 0 0.00822045 0.0140817 -0.754785
24 -4.64576 3.27537 -11.4168 -0.000932534 0 -2.53187
25 6.02795 0 0 2.32846 0.248453 1.86285
26 11.7344 0 0 0.0014027 0 1.42786
27 8.81167 0 0 -2.26011 0 0
28 5.77884 0 0 -1.51427 0 0
29 2.23249 0 0 -0.745837 0 0
30 11.4725 0 0 -2.42971 -0.688066 0.128856
31 0.615813 0.994372 -0.809166 -2.72226 0.463503 0.286233
32 2.24752 0 0 -0.083597 0.0959307 0.272288
33 1.11936 0 0 -0.401235 0.450129 0.842933
34 3.71349 0.102638 0.10219 -1.41386 1.26431 0.0816946
35 1.72615 0 0 0.000698516 0.000241766 1.34896
36 1.21112 0 0 0.0115402 0.0133366 1.31081
37 3.5992 1.06012 0.0708866 -1.68043 1.04215 -0.112109
38 1.66069 0 0 0.00620704 0.0020063 1.47997
39 1.16699 0 0 -0.0701393 0.164234 1.21657
40 2.18853 -0.501041 0.0576582 -1.57605 0.00117806 -0.0469345
41 1.29609 0 0 -0.0326375 -0.0616157 1.17811
42 1.62202 -0.000712395 -0.000469685 -0.0050803 -0.00330953 1.42626
43 1.2224 0 0 0.0247019 -0.0856985 1.42308
44 1.76707 -1.27612 0.0366402 -1.56655 0.103701 0.0275537
45 1.55587 0 0 0.103891 -0.075653 0.975564
46 1.24273 0 0 -0.0046995 -0.0380689 1.28397
47 0.784533 0 0 -0.012743 -0.0577752 1.00048
48 0 0 0 0 0 0
49 0.118171 -23.4595 -4.82113 -0.135515 1.19428 -0.992888
time 8
0 2.57209 1.18619 -10.8681 0 0 -0.814469
1 6.02794 0 0 -1.17068 0.472703 -0.813985
2 11.7344 0 0 -0.00140277 0 -1.56794
3 8.81138 -0.000450134 -0.000112057 -1.41297 0 0.000157392
4 5.77839 0.000286102 0 -0.94669 0 0.000100784
5 2.23163 -0.000329971 -0.000363827 -0.46628 0 0
6 11.4725 0 0 -1.47426 0.256798 0.966254
7 0.615218 -0.993091 -0.810699 2.92227 0.454999 -0.331411
8 2.24752 0 0 0.0643998 0.0920016 -0.24525
9 1.11936 0 0 0.012409 0.0391455 -1.16006
10 3.71348 -0.102641 0.102192 1.44559 1.26927 -0.122845
11 1.72615 0 0 -0.0132949 0.00454349 -1.35296
12 1.21114 0 0 -0.0138875 0.010871 -1.50415
13 3.59919 -1.06012 0.0708885 1.59719 1.13552 0.0844621
14 1.66069 0 0 0.0206526 0.106434 -1.46129
15 1.167 0 0 0.140204 0.107864 -1.2636
16 2.18852 0.501039 0.0576591 1.58026 0.110062 0.0312638
17 1.29609 0 0 -0.0214551 0.0115007 -1.06235
18 1.62202 0.000717163 -0.000470638 -0.00756994 0.00444243 -1.4728
19 1.22241 0 0 -0.0469829 -0.00376762 -1.43289
20 1.76707 1.27612 0.0366411 1.57845 0.182304 -0.021451
21 1.55588 0 0 -0.155246 -0.00355031 -0.857709
22 1.24274 0 0 -0.000505113 -0.000322993 -1.24825
23 0.784525 0 0 0.00822032 0.0140816 -0.754785
24 -6.43887 3.171 -12.1132 -0.000932534 0 -2.53187
25 6.02794 0 0 2.48493 0.120444 2.02902
26 11.7344 0 0 0.00140267 0 1.37053
27 8.81167 0 0 -2.40512 0 0
28 5.77884 0 0 -1.61143 0 0
29 2.23249 0 0 -0.793689 0 0
30 11.4725 0 0 -2.50751 -0.484916 0.165485
31 0.615812 0.994371 -0.809165 -2.72226 0.463503 0.286233
32 2.24752 0 0 -0.083597 0.0959306 0.272288
33 1.11936 0 0 -0.401235 0.450129 0.842933
34 3.71348 0.102638 0.102191 -1.41386 1.26431 0.0816934
35 1.72615 0 0 0.000698467 0.000241728 1.34896
36 1.21112 0 0 0.0115403 0.0133365 1.31081
37 3.5992 1.06012 0.0708885 -1.68043 1.04215 -0.112109
38 1.66069 0 0 0.00620724 0.00200636 1.47997
39 1.16699 0 0 -0.0701392 0.164234 1.21657
40 2.18853 -0.50104 0.0576591 -1.57605 0.0011779 -0.0469348
41 1.29609 0 0 -0.0326375 -0.0616158 1.17811
42 1.62201 -0.000713348 -0.000469923 -0.00508023 -0.00330943 1.42626
43 1.22241 0 0 0.0247017 -0.0856984 1.42308
44 1.76707 -1.27612 0.0366411 -1.56655 0.103701 0.0275536
45 1.55588 0 0 0.103891 -0.075653 0.975564
46 1.24273 0 0 -0.00469946 -0.0380688 1.28397
47 0.784531 0 0 -0.0127429 -0.0577751 1.00048
48 0 0 0 0 0 0
49 1.37768 -22.2908 -4.60713 -0.209531 1.13982 -0.879151
time 9
0 2.57209 1.18619 -11.7359 0 0 -0.814469
1 6.02794 0 0 -1.17822 0.44617 -0.788817
2 11.7344 0 0 -0.0014029 0 -1.65408
3 8.81138 -0.000450134 -0.000112534 -1.28571 0 0.000157186
4 5.77839 0.000284195 0 -0.861428 0 0.000100927
5 2.23163 -0.000329971 -0.000364304 -0.424285 0 0
6 11.4725 0 0 -1.42829 0.139352 1.08468
7 0.615219 -0.993091 -0.810699 2.92227 0.454999 -0.331411
8 2.24752 0 0 0.0643998 0.0920016 -0.24525
9 1.11936 0 0 0.0124088 0.0391454 -1.16006
10 3.71348 -0.102641 0.10219 1.44559 1.26927 -0.122846
11 1.72615 0 0 -0.0132949 0.00454354 -1.35296
12 1.21114 0 0 -0.0138878 0.0108708 -1.50415
13 3.59919 -1.06012 0.0708876 1.59719 1.13552 0.084463
14 1.66069 0 0 0.0206525 0.106434 -1.46129
15 1.167 0 0 0.140204 0.107864 -1.2636
16 2.18852 0.50104 0.0576591 1.58026 0.110062 0.0312635
17 1.29609 0 0 -0.0214549 0.0115007 -1.06235
18 1.62202 0.000715256 -0.000470877 -0.00757015 0.00444255 -1.4728
19 1.22241 0 0 -0.046983 -0.00376781 -1.43289
20 1.76707 1.27612 0.0366411 1.57845 0.182304 -0.021451
21 1.55588 0 0 -0.155245 -0.00355038 -0.857709
22 1.24273 0 0 -0.000505346 -0.000322721 -1.24825
23 0.784523 0 0 0.00822043 0.0140817 -0.754786
24 -7.91558 3.02816 -12.6966 -0.000932534 0 -2.53187
25 6.02794 0 0 2.67071 -0.0300908 2.15676
26 11.7344 0 0 0.00140268 0 1.28307
27 8.81167 0 0 -2.56155 0 0
28 5.77884 0 0 -1.71624 0 0
29 2.23249 0 0 -0.84531 0 0
30 11.4725 0 0 -2.60785 -0.263281 0.213341
31 0.615814 0.994372 -0.809166 -2.72226 0.463503 0.286233
32 2.24752 0 0 -0.0835969 0.0959307 0.272288
33 1.11936 0 0 -0.401235 0.450129 0.842933
34 3.71349 0.102639 0.10219 -1.41386 1.26431 0.081694
35 1.72615 0 0 0.000698353 0.000241705 1.34896
36 1.21112 0 0 0.0115403 0.0133366 1.31081
37 3.5992 1.06012 0.0708885 -1.68043 1.04215 -0.112109
38 1.66069 0 0 0.0062071 0.00200639 1.47997
39 1.16699 0 0 -0.0701394 0.164234 1.21657
40 2.18853 -0.50104 0.0576572 -1.57605 0.00117809 -0.0469346
41 1.29609 0 0 -0.0326374 -0.0616158 1.17811
42 1.62201 -0.000713348 -0.000470161 -0.00508021 -0.00330936 1.42626
43 1.22241 0 0 0.0247019 -0.0856984 1.42308
44 1.76707 -1.27612 0.0366421 -1.56655 0.103701 0.0275536
45 1.55587 0 0 0.103891 -0.0756531 0.975564
46 1.24273 0 0 -0.00469945 -0.0380688 1.28397
47 0.784531 0 0 -0.0127429 -0.0577752 1.00048
48 0 0 0 0 0 0
49 2.43872 -21.2513 -4.4274 -0.257079 1.0865 -0.77166
time 10
0 2.57209 1.18619 -12.0998 0 0 -0.814469
1 6.02794 0 0 -1.18755 0.446511 -0.764867
2 11.7344 0 0 -0.00140288 0 -1.73207
3 8.81138 -0.000450134 -0.000112057 -1.10444 0 0.000157181
4 5.77839 0.000286102 0 -0.739973 0 0.000101277
5 2.23164 -0.000328064 -0.000363827 -0.364464 0 0
6 11.4725 0 0 -1.37126 0.0462732 1.1673
7 0.615221 -0.993091 -0.810699 2.92227 0.454999 -0.33141
8 2.24752 0 0 0.0643998 0.0920015 -0.245251
9 1.11936 0 0 0.0124088 0.0391454 -1.16006
10 3.71348 -0.102641 0.102192 1.44559 1.26927 -0.122845
11 1.72615 0 0 -0.0132948 0.00454358 -1.35296
12 1.21114 0 0 -0.0138879 0.0108709 -1.50415
13 3.59919 -1.06012 0.0708885 1.59719 1.13552 0.0844626
14 1.66069 0 0 0.0206526 0.106434 -1.46129
15 1.167 0 0 0.140204 0.107864 -1.2636
16 2.18852 0.501039 0.0576591 1.58026 0.110062 0.0312637
17 1.29609 0 0 -0.0214549 0.0115007 -1.06235
18 1.62202 0.000713348 -0.000470638 -0.00756981 0.00444254 -1.4728
19 1.22241 0 0 -0.046983 -0.00376779 -1.43289
20 1.76707 1.27612 0.0366411 1.57845 0.182304 -0.0214511
21 1.55588 0 0 -0.155246 -0.00355031 -0.857709
22 1.24274 0 0 -0.000505123 -0.000322928 -1.24825
23 0.784521 0 0 0.00822052 0.0140817 -0.754785
24 -8.52929 2.84874 -12.9412 -0.000932534 0 -2.53187
25 6.02794 0 0 2.78198 -0.104184 2.22189
26 11.7344 0 0 0.00140268 0 1.24751
27 8.81167 0 0 -2.61257 0 0
28 5.77884 0 0 -1.75042 0 0
29 2.23249 0 0 -0.862149 0 0
30 11.4725 0 0 -2.62662 -0.12806 0.188819
31 0.615811 0.994372 -0.809166 -2.72226 0.463503 0.286233
32 2.24752 0 0 -0.083597 0.0959307 0.272288
33 1.11936 0 0 -0.401236 0.450129 0.842933
34 3.71349 0.102639 0.10219 -1.41386 1.26431 0.0816928
35 1.72615 0 0 0.0006984 0.000241763 1.34896
36 1.21112 0 0 0.0115402 0.0133366 1.31081
37 3.5992 1.06012 0.0708866 -1.68043 1.04215 -0.112109
38 1.66069 0 0 0.00620726 0.0020064 1.47997
39 1.16699 0 0 -0.0701394 0.164234 1.21657
40 2.18853 -0.50104 0.0576582 -1.57605 0.00117788 -0.0469346
41 1.29609 0 0 -0.0326375 -0.0616156 1.17811
42 1.62202 -0.000712395 -0.000470161 -0.00508028 -0.00330935 1.42626
43 1.2224 0 0 0.0247019 -0.0856983 1.42308
44 1.76707 -1.27612 0.0366402 -1.56655 0.103701 0.0275536
45 1.55587 0 0 0.103891 -0.0756529 0.975564
46 1.24273 0 0 -0.00469957 -0.0380689 1.28397
47 0.784531 0 0 -0.012743 -0.0577752 1.00048
48 0 0 0 0 0 0
49 3.30128 -20.3411 -4.28193 -0.278159 1.03431 -0.670417
time 11
0 2.57209 1.18619 -12.0744 0 0 -0.814469
1 6.02794 0 0 -1.19864 0.471473 -0.739739
2 11.7344 0 0 -0.00140287 0 -1.81372
3 8.81138 -0.000452042 -0.000111341 -0.877309 0 0.000157125
4 5.77839 0.000284195 0 -0.587797 0 0.00010182
5 2.23164 -0.000329971 -0.000363827 -0.289512 0 0
6 11.4725 0 0 -1.30269 -0.00344951 1.23311
7 0.61522 -0.993091 -0.8107 2.92227 0.454999 -0.33141
8 2.24752 0 0 0.0643998 0.0920015 -0.24525
9 1.11936 0 0 0.0124089 0.0391453 -1.16006
10 3.71348 -0.102641 0.102191 1.44559 1.26927 -0.122846
11 1.72615 0 0 -0.0132949 0.00454353 -1.35296
12 1.21114 0 0 -0.0138877 0.0108707 -1.50415
13 3.59919 -1.06012 0.0708885 1.59719 1.13552 0.084462
14 1.66069 0 0 0.0206524 0.106434 -1.46129
15 1.167 0 0 0.140204 0.107864 -1.2636
16 2.18853 0.501039 0.0576582 1.58026 0.110062 0.0312637
17 1.29609 0 0 -0.0214549 0.0115007 -1.06235
18 1.62202 0.000715256 -0.000470877 -0.00756999 0.00444253 -1.4728
19 1.22241 0 0 -0.046983 -0.0037677 -1.43289
20 1.76707 1.27612 0.0366411 1.57845 0.182304 -0.0214511
21 1.55588 0 0 -0.155246 -0.00355031 -0.857709
22 1.24273 0 0 -0.000505448 -0.000323088 -1.24825
23 0.784523 0 0 0.00822028 0.0140816 -0.754785
24 -8.4815 2.63887 -12.9242 -0.000932534 0 -2.53187
25 6.02794 0 0 2.77534 -0.0798011 2.26493
26 11.7344 0 0 0.0014027 0 1.27765
27 8.81167 0 0 -2.53337 0 0
28 5.77884 0 0 -1.69736 0 0
29 2.23249 0 0 -0.836013 0 0
30 11.4725 0 0 -2.54367 -0.120264 0.143546
31 0.615812 0.994372 -0.809164 -2.72226 0.463503 0.286233
32 2.24752 0 0 -0.083597 0.0959308 0.272288
33 1.11936 0 0 -0.401235 0.450129 0.842933
34 3.71349 0.102639 0.102191 -1.41386 1.26431 0.0816941
35 1.72615 0 0 0.000698372 0.000241776 1.34896
36 1.21112 0 0 0.0115403 0.0133365 1.31081
37 3.5992 1.06012 0.0708885 -1.68043 1.04215 -0.112109
38 1.66069 0 0 0.00620707 0.00200653 1.47997
39 1.16699 0 0 -0.0701394 0.164234 1.21657
40 2.18853 -0.50104 0.0576591 -1.57605 0.0011779 -0.0469346
41 1.29609 0 0 -0.0326374 -0.0616158 1.17811
42 1.62201 -0.000713348 -0.000470161 -0.00508027 -0.00330947 1.42626
43 1.22241 0 0 0.0247018 -0.0856983 1.42308
44 1.76707 -1.27612 0.0366402 -1.56655 0.103701 0.0275536
45 1.55588 0 0 0.103891 -0.0756532 0.975564
46 1.24273 0 0 -0.00469946 -0.0380688 1.28397
47 0.784533 0 0 -0.0127429 -0.0577753 1.00048
48 0 0 0 0 0 0
49 3.96537 -19.5601 -4.17074 -0.256867 0.984072 -0.575938
time 12
0 2.57209 1.18619 -12.0018 0 0 -0.814469
1 6.02794 0 0 -1.20788 0.491788 -0.721697
2 11.7344 0 0 -0.00140288 0 -1.8882
3 8.81138 -0.000450134 -0.000111103 -0.626686 0 0.000157664
4 5.77839 0.000286102 0 -0.41988 0 0.000103101
5 2.23163 -0.000328064 -0.00036335 -0.206806 0 0
6 11.4725 0 0 -1.23251 -0.0171669 1.30736
7 0.615219 -0.993091 -0.810699 2.92227 0.454999 -0.33141
8 2.24752 0 0 0.0643998 0.0920015 -0.24525
9 1.11936 0 0 0.0124089 0.0391455 -1.16006
10 3.71348 -0.102642 0.102192 1.44559 1.26927 -0.122845
11 1.72615 0 0 -0.0132949 0.0045434 -1.35296
12 1.21114 0 0 -0.0138876 0.0108708 -1.50415
13 3.59919 -1.06012 0.0708885 1.59719 1.13552 0.0844624
14 1.66069 0 0 0.0206527 0.106434 -1.46129
15 1.167 0 0 0.140204 0.107864 -1.2636
16 2.18852 0.501039 0.0576591 1.58026 0.110062 0.0312638
17 1.29609 0 0 -0.0214549 0.0115007 -1.06235
18 1.62202 0.000715256 -0.000470638 -0.00756996 0.00444256 -1.4728
19 1.22241 0 0 -0.0469828 -0.00376774 -1.43289
20 1.76707 1.27612 0.0366421 1.57845 0.182304 -0.021451
21 1.55588 0 0 -0.155246 -0.00355034 -0.857708
22 1.24274 0 0 -0.000505258 -0.000323098 -1.24825
23 0.784525 0 0 0.00822018 0.0140817 -0.754785
24 -8.34472 2.40586 -12.8754 -0.000932534 0 -2.53187
25 6.02794 0 0 2.72802 -0.0242677 2.31288
26 11.7344 0 0 0.00140271 0 1.33666
27 8.81167 0 0 -2.41943 0 0
28 5.77884 0 0 -1.62102 0 0
29 2.23249 0 0 -0.798411 0 0
30 11.4725 0 0 -2.43496 -0.171664 0.119356
31 0.615812 0.994372 -0.809165 -2.72226 0.463503 0.286233
32 2.24752 0 0 -0.0835971 0.0959306 0.272288
33 1.11935 0 0 -0.401236 0.450129 0.842933
34 3.71348 0.102639 0.102191 -1.41386 1.26431 0.081693
35 1.72615 0 0 0.000698451 0.00024178 1.34896
36 1.21112 0 0 0.0115403 0.0133366 1.31081
37 3.5992 1.06012 0.0708876 -1.68043 1.04215 -0.11211
38 1.66069 0 0 0.00620714 0.00200642 1.47997
39 1.16699 0 0 -0.0701392 0.164234 1.21657
40 2.18853 -0.50104 0.0576591 -1.57605 0.00117781 -0.0469346
41 1.29609 0 0 -0.0326374 -0.0616158 1.17811
42 1.62201 -0.000713348 -0.000470161 -0.00508029 -0.00330941 1.42626
43 1.22241 0 0 0.0247019 -0.0856984 1.42308
44 1.76707 -1.27612 0.0366411 -1.56655 0.103701 0.0275536
45 1.55588 0 0 0.103891 -0.075653 0.975564
46 1.24273 0 0 -0.00469955 -0.038069 1.28397
47 0.784532 0 0 -0.012743 -0.0577752 1.00048
48 0 0 0 0 0 0
49 4.33176 -18.8839 -4.08217 -0.198506 0.93552 -0.488051
time 13
0 2.57209 1.18619 -11.8872 0 0 -0.814469
1 6.02794 0 0 -1.20925 0.507847 -0.714724
2 11.7344 0 0 -0.00140287 0 -1.9483
3 8.81138 -0.000450134 -0.000112057 -0.391391 0 0.000157777
4 5.77839 0.000285149 0 -0.262232 0 0.000104023
5 2.23163 -0.000328064 -0.000364304 -0.129159 0 0
6 11.4725 0 0 -1.16967 -0.0353194 1.38016
7 0.615219 -0.993091 -0.810699 2.92227 0.454999 -0.331411
8 2.24752 0 0 0.0643997 0.0920016 -0.24525
9 1.11936 0 0 0.0124089 0.0391454 -1.16006
10 3.71348 -0.102641 0.102191 1.44559 1.26927 -0.122847
11 1.72615 0 0 -0.0132949 0.00454373 -1.35296
12 1.21114 0 0 -0.0138878 0.0108708 -1.50415
13 3.59919 -1.06012 0.0708885 1.59719 1.13552 0.0844622
14 1.66069 0 0 0.0206525 0.106434 -1.46129
15 1.167 0 0 0.140204 0.107864 -1.2636
16 2.18852 0.50104 0.0576591 1.58026 0.110062 0.0312634
17 1.29609 0 0 -0.021455 0.0115007 -1.06235
18 1.62202 0.000715256 -0.000470877 -0.00756992 0.00444244 -1.4728
19 1.22241 0 0 -0.0469829 -0.0037679 -1.43289
20 1.76707 1.27612 0.0366421 1.57845 0.182304 -0.0214513
21 1.55588 0 0 -0.155246 -0.00355025 -0.857709
22 1.24273 0 0 -0.000505223 -0.000323146 -1.24825
23 0.784521 0 0 0.00822021 0.0140818 -0.754785
24 -8.12884 2.15339 -12.7983 -0.000932534 0 -2.53187
25 6.02795 0 0 2.63479 0.0708999 2.33843
26 11.7344 0 0 0.0014027 0 1.41494
27 8.81167 0 0 -2.25513 0 0
28 5.77884 0 0 -1.51094 0 0
29 2.23249 0 0 -0.744193 0 0
30 11.4725 0 0 -2.28083 -0.276397 0.0679488
31 0.615813 0.994371 -0.809165 -2.72226 0.463503 0.286233
32 2.24752 0 0 -0.0835968 0.0959307 0.272288
33 1.11936 0 0 -0.401235 0.450129 0.842933
34 3.71349 0.102639 0.10219 -1.41386 1.26431 0.0816939
35 1.72615 0 0 0.000698298 0.000241588 1.34896
36 1.21112 0 0 0.0115403 0.0133365 1.31081
37 3.5992 1.06012 0.0708876 -1.68043 1.04215 -0.112109
38 1.66069 0 0 0.00620708 0.00200641 1.47997
39 1.16699 0 0 -0.0701394 0.164234 1.21657
40 2.18853 -0.50104 0.0576591 -1.57605 0.00117795 -0.0469345
41 1.29609 0 0 -0.0326375 -0.0616157 1.17811
42 1.62201 -0.000714302 -0.000470161 -0.00508021 -0.00330932 1.42626
43 1.22241 0 0 0.0247019 -0.0856984 1.42308
44 1.76707 -1.27612 0.0366411 -1.56655 0.103701 0.0275537
45 1.55587 0 0 0.103891 -0.0756529 0.975564
46 1.24273 0 0 -0.00469952 -0.038069 1.28397
47 0.784532 0 0 -0.0127429 -0.0577752 1.00048
48 0 0 0 0 0 0
49 4.43353 -18.3205 -4.02012 -0.13488 0.887006 -0.405722
time 14
0 2.57209 1.18619 -11.7359 0 0 -0.814469
1 6.02794 0 0 -1.20323 0.528059 -0.712404
2 11.7344 0 0 -0.00140285 0 -1.98923
3 8.81138 -0.000449181 -0.000112295 -0.210028 0 0.000157755
4 5.77839 0.000286102 0 -0.140719 0 0.000104771
5 2.23163 -0.000329018 -0.000364304 -0.0693093 0 0
6 11.4725 0 0 -1.11591 -0.0847739 1.42557
7 0.615218 -0.993091 -0.8107 2.92227 0.454999 -0.33141
8 2.24752 0 0 0.0643999 0.0920017 -0.24525
9 1.11936 0 0 0.0124089 0.0391455 -1.16006
10 3.71348 -0.102641 0.102191 1.44559 1.26927 -0.122845
11 1.72615 0 0 -0.0132949 0.00454356 -1.35296
12 1.21114 0 0 -0.0138876 0.010871 -1.50415
13 3.59919 -1.06012 0.0708885 1.59719 1.13552 0.0844624
14 1.66069 0 0 0.0206526 0.106434 -1.46129
15 1.167 0 0 0.140204 0.107864 -1.2636
16 2.18852 0.501039 0.0576591 1.58026 0.110062 0.0312637
17 1.29609 0 0 -0.0214549 0.0115007 -1.06235
18 1.62202 0.000715256 -0.000471115 -0.00756971 0.00444263 -1.4728
19 1.22241 0 0 -0.046983 -0.00376758 -1.43289
20 1.76707 1.27612 0.0366411 1.57845 0.182304 -0.0214509
21 1.55587 0 0 -0.155246 -0.0035505 -0.857709
22 1.24274 0 0 -0.000505258 -0.000323098 -1.24825
23 0.784523 0 0 0.00822042 0.0140818 -0.754785
24 -7.84375 1.8851 -12.6966 -0.000932534 0 -2.53187
25 6.02794 0 0 2.50577 0.198825 2.31202
26 11.7344 0 0 0.00140272 0 1.48408
27 8.81167 0 0 -2.03307 0 0
28 5.77884 0 0 -1.36216 0 0
29 2.23249 0 0 -0.670913 0 0
30 11.4725 0 0 -2.06108 -0.389334 -0.0403684
31 0.615812 0.994372 -0.809165 -2.72226 0.463503 0.286233
32 2.24752 0 0 -0.0835969 0.0959307 0.272288
33 1.11936 0 0 -0.401235 0.450129 0.842934
34 3.71349 0.102639 0.102191 -1.41386 1.26431 0.0816931
35 1.72615 0 0 0.000698393 0.000241755 1.34896
36 1.21112 0 0 0.0115404 0.0133365 1.31081
37 3.5992 1.06012 0.0708876 -1.68043 1.04215 -0.112109
38 1.66069 0 0 0.00620724 0.0020064 1.47997
39 1.16699 0 0 -0.0701394 0.164234 1.21657
40 2.18853 -0.50104 0.0576587 -1.57605 0.00117794 -0.0469346
41 1.29609 0 0 -0.0326375 -0.0616157 1.17811
42 1.62201 -0.000712395 -0.000470161 -0.00508029 -0.00330936 1.42626
43 1.22241 0 0 0.0247018 -0.0856983 1.42308
44 1.76707 -1.27612 0.0366406 -1.56655 0.103701 0.0275536
45 1.55587 0 0 0.103891 -0.075653 0.975564
46 1.24273 0 0 -0.00469958 -0.038069 1.28397
47 0.784531 0 0 -0.0127428 -0.0577751 1.00048
48 0 0 0 0 0 0
49 4.46911 -17.9191 -4.00785 -0.0977974 0.836885 -0.327919
time 15
0 2.57209 1.18619 -11.553 0 0 -0.814469
1 6.02794 0 0 -1.19485 0.561634 -0.70379
2 11.7344 0 0 -0.00140282 0 -2.00884
3 8.81139 -0.000450134 -0.000112534 -0.106795 0 0.000157644
4 5.77839 0.000287056 0 -0.071553 0 0.000105133
5 2.23164 -0.000328064 -0.000364304 -0.0352425 0 0
6 11.4725 0 0 -1.06221 -0.169453 1.41852
7 0.615218 -0.993091 -0.8107 2.92227 0.454999 -0.33141
8 2.24752 0 0 0.0643998 0.0920016 -0.24525
9 1.11936 0 0 0.0124089 0.0391455 -1.16006
10 3.71348 -0.102641 0.102191 1.44559 1.26927 -0.122846
11 1.72615 0 0 -0.0132948 0.00454364 -1.35296
12 1.21114 0 0 -0.0138878 0.010871 -1.50415
13 3.59919 -1.06012 0.070888 1.59719 1.13552 0.0844624
14 1.66069 0 0 0.0206524 0.106434 -1.46129
15 1.167 0 0 0.140204 0.107864 -1.2636
16 2.18852 0.501039 0.0576591 1.58026 0.110062 0.0312637
17 1.29609 0 0 -0.0214549 0.0115008 -1.06235
18 1.62202 0.000715256 -0.000471115 -0.00756986 0.00444249 -1.4728
19 1.22241 0 0 -0.046983 -0.00376793 -1.43289
20 1.76707 1.27612 0.0366411 1.57845 0.182304 -0.021451
21 1.55587 0 0 -0.155246 -0.00355043 -0.857709
22 1.24274 0 0 -0.000505161 -0.000323028 -1.24825
23 0.784521 0 0 0.00822037 0.0140818 -0.754785
24 -7.49934 1.60468 -12.5737 -0.000932534 0 -2.53187
25 6.02795 0 0 2.3502 0.338198 2.22094
26 11.7344 0 0 0.00140271 0 1.51478
27 8.81167 0 0 -1.75501 0 0
28 5.77884 0 0 -1.17585 0 0
29 2.23249 0 0 -0.579152 0 0
30 11.4725 0 0 -1.76788 -0.446577 -0.186871
31 0.615812 0.994371 -0.809165 -2.72226 0.463503 0.286233
32 2.24752 0 0 -0.083597 0.0959307 0.272288
33 1.11936 0 0 -0.401235 0.450129 0.842933
34 3.71348 0.102638 0.102191 -1.41386 1.26431 0.0816933
35 1.72615 0 0 0.000698467 0.000241848 1.34896
36 1.21112 0 0 0.0115403 0.0133365 1.31081
37 3.5992 1.06012 0.0708885 -1.68043 1.04215 -0.112109
38 1.66069 0 0 0.00620724 0.00200649 1.47997
39 1.16699 0 0 -0.0701394 0.164234 1.21657
40 2.18853 -0.50104 0.0576591 -1.57605 0.00117793 -0.0469346
41 1.29609 0 0 -0.0326375 -0.0616157 1.17811
42 1.62201 -0.000712395 -0.000470161 -0.00508025 -0.00330945 1.42626
43 1.22241 0 0 0.0247019 -0.0856984 1.42308
44 1.76707 -1.27612 0.0366416 -1.56655 0.103701 0.0275535
45 1.55587 0 0 0.103891 -0.0756531 0.975564
46 1.24273 0 0 -0.00469941 -0.0380688 1.28397
47 0.78453 0 0 -0.012743 -0.0577753 1.00048
48 0 0 0 0 0 0
49 4.63697 -17.7284 -4.06865 -0.102642 0.782279 -0.252834
time 16
0 2.57209 1.18619 -11.3439 0 0 -0.814469
1 6.02794 0 0 -1.19079 0.611181 -0.680655
2 11.7344 0 0 -0.00140281 0 -2.00059
3 8.81138 -0.000450134 -0.000112295 -0.0936746 0 0.000156563
4 5.77839 0.000286102 0 -0.0627619 0 0.000104477
5 2.23163 -0.000329971 -0.000363827 -0.0309126 0 0
6 11.4725 0 0 -0.995382 -0.26549 1.34437
7 0.615219 -0.993092 -0.8107 2.92227 0.454999 -0.33141
8 2.24752 0 0 0.0643997 0.0920014 -0.24525
9 1.11936 0 0 0.0124086 0.0391453 -1.16006
10 3.71348 -0.102641 0.102191 1.44559 1.26927 -0.122846
11 1.72615 0 0 -0.0132949 0.00454355 -1.35296
12 1.21113 0 0 -0.0138877 0.010871 -1.50415
13 3.59919 -1.06012 0.070888 1.59719 1.13552 0.084462
14 1.66069 0 0 0.0206526 0.106434 -1.46129
15 1.167 0 0 0.140204 0.107864 -1.2636
16 2.18853 0.501039 0.0576587 1.58026 0.110062 0.0312635
17 1.29609 0 0 -0.0214549 0.0115005 -1.06235
18 1.62202 0.000713348 -0.000471115 -0.00756981 0.00444263 -1.4728
19 1.22241 0 0 -0.046983 -0.00376781 -1.43289
20 1.76707 1.27612 0.0366411 1.57845 0.182304 -0.0214511
21 1.55588 0 0 -0.155246 -0.00355043 -0.857709
22 1.24273 0 0 -0.000505087 -0.000322901 -1.24825
23 0.784523 0 0 0.00822038 0.0140817 -0.754785
24 -7.10549 1.31578 -12.4331 -0.000932534 0 -2.53187
25 6.02794 0 0 2.13012 0.473048 2.05034
26 11.7344 0 0 0.00140277 0 1.48298
27 8.81167 0 0 -1.41832 0 0
28 5.77884 0 0 -0.950272 0 0
29 2.23249 0 0 -0.468044 0 0
30 11.4725 0 0 -1.40643 -0.443428 -0.306166
31 0.615813 0.994371 -0.809165 -2.72226 0.463503 0.286233
32 2.24752 0 0 -0.0835969 0.0959307 0.272288
33 1.11936 0 0 -0.401236 0.450129 0.842934
34 3.71349 0.102638 0.10219 -1.41386 1.26431 0.0816931
35 1.72615 0 0 0.000698341 0.00024169 1.34896
36 1.21112 0 0 0.0115403 0.0133365 1.31081
37 3.5992 1.06012 0.0708876 -1.68043 1.04215 -0.112109
38 1.66069 0 0 0.00620728 0.00200647 1.47997
39 1.16699 0 0 -0.0701393 0.164234 1.21657
40 2.18853 -0.50104 0.0576587 -1.57605 0.00117796 -0.0469346
41 1.29609 0 0 -0.0326375 -0.0616157 1.17811
42 1.62201 -0.000711441 -0.000469208 -0.00508032 -0.00330938 1.42626
43 1.22241 0 0 0.0247019 -0.0856984 1.42308
44 1.76707 -1.27612 0.0366406 -1.56655 0.103701 0.0275535
45 1.55587 0 0 0.103891 -0.075653 0.975564
46 1.24273 0 0 -0.00469957 -0.0380689 1.28397
47 0.78453 0 0 -0.012743 -0.0577752 1.00048
48 0 0 0 0 0 0
49 5.01954 -17.8598 -4.25096 -0.137832 0.722896 -0.180282
time 17
0 2.57209 1.18619 -11.1139 0 0 -0.814469
1 6.02794 0 0 -1.19188 0.666768 -0.649202
2 11.7344 0 0 -0.00140287 0 -1.95758
3 8.81138 -0.000450134 -0.000112057 -0.142095 0 0.000157264
4 5.77839 0.000286102 0 -0.0952039 0 0.000104776
5 2.23163 -0.000328064 -0.00036478 -0.0468914 0 0
6 11.4725 0 0 -0.912822 -0.361797 1.20401
7 0.615219 -0.993091 -0.810701 2.92227 0.454999 -0.33141
8 2.24752 0 0 0.0643997 0.0920016 -0.24525
9 1.11936 0 0 0.012409 0.0391456 -1.16006
10 3.71348 -0.10264 0.102191 1.44559 1.26927 -0.122845
11 1.72615 0 0 -0.013295 0.00454367 -1.35296
12 1.21114 0 0 -0.0138878 0.0108708 -1.50415
13 3.59919 -1.06012 0.0708876 1.59719 1.13552 0.0844632
14 1.66069 0 0 0.0206525 0.106434 -1.46129
15 1.167 0 0 0.140204 0.107864 -1.2636
16 2.18852 0.50104 0.0576591 1.58026 0.110062 0.0312637
17 1.29609 0 0 -0.0214551 0.0115008 -1.06235
18 1.62202 0.000715256 -0.000471592 -0.00757005 0.00444249 -1.4728
19 1.22241 0 0 -0.0469829 -0.00376807 -1.43289
20 1.76707 1.27612 0.0366406 1.57845 0.182304 -0.0214509
21 1.55588 0 0 -0.155246 -0.00355032 -0.857709
22 1.24274 0 0 -0.000505262 -0.000323028 -1.24825
23 0.784523 0 0 0.00822034 0.0140818 -0.754785
24 -6.67208 1.02208 -12.2784 -0.000932534 0 -2.53187
25 6.02795 0 0 1.7972 0.562206 1.79072
26 11.7344 0 0 0.00140253 0 1.38397
27 8.81167 0 0 -1.04519 0 0
28 5.77884 0 0 -0.700279 0 0
29 2.23249 0 0 -0.344913 0 0
30 11.4725 0 0 -0.993959 -0.410396 -0.347584
31 0.615812 0.994371 -0.809165 -2.72226 0.463503 0.286233
32 2.24752 0 0 -0.0835969 0.0959306 0.272288
33 1.11936 0 0 -0.401235 0.450129 0.842934
34 3.71348 0.102638 0.10219 -1.41386 1.26431 0.0816937
35 1.72615 0 0 0.000698381 0.000241715 1.34896
36 1.21112 0 0 0.0115403 0.0133365 1.31081
37 3.5992 1.06012 0.070888 -1.68043 1.04215 -0.112109
38 1.66069 0 0 0.0062071 0.00200653 1.47997
39 1.16699 0 0 -0.0701393 0.164234 1.21657
40 2.18853 -0.50104 0.0576591 -1.57605 0.00117798 -0.0469345
41 1.29609 0 0 -0.0326374 -0.0616158 1.17811
42 1.62201 -0.000713348 -0.000470161 -0.00508026 -0.00330939 1.42626
43 1.22241 0 0 0.024702 -0.0856985 1.42308
44 1.76707 -1.27612 0.0366406 -1.56655 0.103701 0.0275536
45 1.55588 0 0 0.103891 -0.075653 0.975564
46 1.24273 0 0 -0.00469948 -0.0380689 1.28397
47 0.784532 0 0 -0.0127429 -0.0577752 1.00048
48 0 0 0 0 0 0
49 5.52747 -18.3094 -4.55205 -0.194724 0.660967 -0.111666
time 18
0 2.57209 1.18619 -10.8681 0 0 -0.814469
1 6.02794 0 0 -1.20175 0.714255 -0.618595
2 11.7344 0 0 -0.00140289 0 -1.88302
3 8.81138 -0.000450134 -0.00011158 -0.208794 0 0.000156567
4 5.77839 0.000286102 0 -0.139892 0 0.000103936
5 2.23164 -0.000329971 -0.000364304 -0.068902 0 0
6 11.4725 0 0 -0.813686 -0.446851 1.01531
7 0.61522 -0.993092 -0.810699 2.92227 0.454999 -0.33141
8 2.24752 0 0 0.0643998 0.0920015 -0.24525
9 1.11936 0 0 0.012409 0.0391455 -1.16006
10 3.71348 -0.102641 0.102192 1.44559 1.26927 -0.122845
11 1.72615 0 0 -0.0132949 0.00454367 -1.35296
12 1.21113 0 0 -0.0138878 0.010871 -1.50415
13 3.59919 -1.06012 0.0708885 1.59719 1.13552 0.0844627
14 1.66068 0 0 0.0206526 0.106434 -1.46129
15 1.167 0 0 0.140204 0.107864 -1.2636
16 2.18853 0.501039 0.0576596 1.58026 0.110062 0.0312638
17 1.29609 0 0 -0.021455 0.0115007 -1.06235
18 1.62202 0.000715256 -0.000471115 -0.0075701 0.00444256 -1.4728
19 1.22241 0 0 -0.0469831 -0.00376797 -1.43289
20 1.76707 1.27612 0.0366411 1.57845 0.182304 -0.0214509
21 1.55588 0 0 -0.155246 -0.00355039 -0.857709
22 1.24273 0 0 -0.000505296 -0.000322869 -1.24825
23 0.784525 0 0 0.00822041 0.0140817 -0.754785
24 -6.20902 0.727228 -12.1132 -0.000932534 0 -2.53187
25 6.02794 0 0 1.42283 0.5483 1.53141
26 11.7344 0 0 0.00140275 0 1.22175
27 8.81167 0 0 -0.689506 0 0
28 5.77884 0 0 -0.461969 0 0
29 2.23249 0 0 -0.227537 0 0
30 11.4725 0 0 -0.599729 -0.390245 -0.281549
31 0.615813 0.994372 -0.809165 -2.72226 0.463503 0.286233
32 2.24752 0 0 -0.083597 0.0959307 0.272288
33 1.11936 0 0 -0.401235 0.450129 0.842933
34 3.71349 0.10264 0.102191 -1.41386 1.26431 0.0816934
35 1.72615 0 0 0.000698492 0.000241759 1.34896
36 1.21112 0 0 0.0115403 0.0133366 1.31081
37 3.5992 1.06012 0.070888 -1.68043 1.04215 -0.112109
38 1.66069 0 0 0.00620715 0.0020065 1.47997
39 1.16699 0 0 -0.0701393 0.164234 1.21657
40 2.18853 -0.501038 0.0576591 -1.57605 0.00117802 -0.0469346
41 1.29609 0 0 -0.0326374 -0.0616157 1.17811
42 1.62202 -0.000711441 -0.000469208 -0.00508023 -0.00330955 1.42626
43 1.22241 0 0 0.024702 -0.0856983 1.42308
44 1.76707 -1.27612 0.0366411 -1.56655 0.103701 0.0275536
45 1.55588 0 0 0.103891 -0.075653 0.975564
46 1.24273 0 0 -0.00469952 -0.0380689 1.28397
47 0.784531 0 0 -0.0127429 -0.0577754 1.00048
48 0 0 0 0 0 0
49 6.10152 -18.9535 -4.91844 -0.264676 0.598723 -0.0483871
time 19
0 2.57209 1.18619 -10.6117 0 0 -0.814469
1 6.02794 0 0 -1.22165 0.745263 -0.595603
2 11.7344 0 0 -0.00140281 0 -1.78641
3 8.81138 -0.000450134 -0.000112534 -0.265197 0 0.000157778
4 5.77839 0.000286102 0 -0.177682 0 0.000104444
5 2.23163 -0.000329971 -0.000364304 -0.0875151 0 0
6 11.4725 0 0 -0.702253 -0.511903 0.801568
7 0.615218 -0.993092 -0.8107 2.92227 0.454998 -0.33141
8 2.24752 0 0 0.0643998 0.0920015 -0.24525
9 1.11936 0 0 0.0124089 0.0391455 -1.16006
10 3.71348 -0.102639 0.10219 1.44559 1.26927 -0.122845
11 1.72615 0 0 -0.0132951 0.00454352 -1.35296
12 1.21114 0 0 -0.0138878 0.0108708 -1.50415
13 3.59919 -1.06012 0.0708876 1.59719 1.13552 0.0844632
14 1.66069 0 0 0.0206525 0.106434 -1.46129
15 1.167 0 0 0.140204 0.107864 -1.2636
16 2.18852 0.50104 0.0576591 1.58026 0.110062 0.0312636
17 1.29609 0 0 -0.0214549 0.0115009 -1.06235
18 1.62202 0.000717163 -0.000471115 -0.00757012 0.00444248 -1.4728
19 1.22241 0 0 -0.046983 -0.0037679 -1.43289
20 1.76707 1.27612 0.0366406 1.57845 0.182304 -0.0214511
21 1.55588 0 0 -0.155246 -0.00355033 -0.857709
22 1.24274 0 0 -0.000505472 -0.000323068 -1.24825
23 0.784523 0 0 0.00822034 0.0140817 -0.754785
24 -5.72618 0.434902 -11.9408 -0.000932534 0 -2.53187
25 6.02795 0 0 1.16354 0.460795 1.40048
26 11.7344 0 0 0.00140266 0 1.00555
27 8.81167 0 0 -0.382942 0 0
28 5.77884 0 0 -0.256571 0 0
29 2.23249 0 0 -0.126371 0 0
30 11.4725 0 0 -0.316379 -0.398371 -0.119484
31 0.615813 0.994371 -0.809165 -2.72226 0.463503 0.286233
32 2.24752 0 0 -0.0835969 0.0959306 0.272288
33 1.11936 0 0 -0.401235 0.450129 0.842934
34 3.71349 0.10264 0.102191 -1.41386 1.26431 0.0816941
35 1.72615 0 0 0.000698518 0.00024172 1.34896
36 1.21112 0 0 0.0115402 0.0133365 1.31081
37 3.5992 1.06012 0.070888 -1.68043 1.04215 -0.112109
38 1.66069 0 0 0.00620718 0.00200646 1.47997
39 1.16699 0 0 -0.0701394 0.164234 1.21657
40 2.18853 -0.50104 0.0576587 -1.57605 0.00117794 -0.0469345
41 1.29609 0 0 -0.0326375 -0.0616158 1.17811
42 1.62201 -0.000711441 -0.000469208 -0.0050803 -0.00330947 1.42626
43 1.22241 0 0 0.024702 -0.0856985 1.42308
44 1.76707 -1.27612 0.0366411 -1.56655 0.103701 0.0275536
45 1.55587 0 0 0.103891 -0.0756531 0.975564
46 1.24273 0 0 -0.00469965 -0.0380688 1.28397
47 0.784531 0 0 -0.012743 -0.0577752 1.00048
48 0 0 0 0 0 0
49 6.68245 -19.6683 -5.29668 -0.339043 0.538396 0.00815265
time 20
0 2.57209 1.18619 -10.3502 0 0 -0.814469
1 6.02794 0 0 -1.24818 0.759692 -0.581504
2 11.7344 0 0 -0.00140288 0 -1.68384
3 8.81138 -0.000448227 -0.000112057 -0.299046 0 0.000156835
4 5.77839 0.000286102 0 -0.200361 0 0.000103796
5 2.23164 -0.000329971 -0.000364304 -0.0986851 0 0
6 11.4725 0 0 -0.588607 -0.552774 0.59038
7 0.615219 -0.993091 -0.8107 2.92227 0.454999 -0.33141
8 2.24752 0 0 0.0643997 0.0920016 -0.24525
9 1.11936 0 0 0.012409 0.0391456 -1.16006
10 3.71348 -0.102641 0.10219 1.44559 1.26927 -0.122845
11 1.72615 0 0 -0.013295 0.00454358 -1.35296
12 1.21114 0 0 -0.0138877 0.010871 -1.50415
13 3.59919 -1.06012 0.070888 1.59719 1.13552 0.0844623
14 1.66069 0 0 0.0206525 0.106434 -1.46129
15 1.167 0 0 0.140204 0.107864 -1.2636
16 2.18853 0.501039 0.0576591 1.58026 0.110062 0.0312639
17 1.29609 0 0 -0.0214549 0.0115007 -1.06235
18 1.62202 0.000711441 -0.000471115 -0.00756993 0.00444237 -1.4728
19 1.22241 0 0 -0.0469828 -0.00376777 -1.43289
20 1.76707 1.27612 0.0366411 1.57845 0.182304 -0.0214509
21 1.55588 0 0 -0.155245 -0.00355037 -0.857709
22 1.24274 0 0 -0.0005054 -0.000323053 -1.24825
23 0.784523 0 0 0.00822031 0.0140817 -0.754785
24 -5.23345 0.148764 -11.765 -0.000932534 0 -2.53187
25 6.02794 0 0 1.02737 0.358071 1.3856
26 11.7344 0 0 0.00140275 0 0.750297
27 8.81167 0 0 -0.118495 0 0
28 5.77884 0 0 -0.0793914 0 0
29 2.23249 0 0 -0.0391033 0 0
30 11.4725 0 0 -0.14585 -0.426112 0.0917547
31 0.615814 0.994371 -0.809165 -2.72226 0.463503 0.286233
32 2.24752 0 0 -0.0835971 0.0959305 0.272288
33 1.11936 0 0 -0.401235 0.450129 0.842933
34 3.71349 0.102638 0.102191 -1.41386 1.26431 0.0816934
35 1.72615 0 0 0.000698554 0.000241574 1.34896
36 1.21112 0 0 0.0115404 0.0133366 1.31081
37 3.5992 1.06012 0.0708876 -1.68043 1.04215 -0.112109
38 1.66069 0 0 0.00620717 0.0020066 1.47997
39 1.16699 0 0 -0.0701393 0.164234 1.21657
40 2.18853 -0.501041 0.0576591 -1.57605 0.00117803 -0.0469346
41 1.29609 0 0 -0.0326372 -0.0616158 1.17811
42 1.62201 -0.000713348 -0.000471115 -0.00508021 -0.00330942 1.42626
43 1.22241 0 0 0.0247019 -0.0856984 1.42308
44 1.76707 -1.27612 0.0366411 -1.56655 0.103701 0.0275536
45 1.55588 0 0 0.103891 -0.075653 0.975564
46 1.24273 0 0 -0.00469954 -0.0380689 1.28397
47 0.784532 0 0 -0.0127429 -0.0577752 1.00048
48 0 0 0 0 0 0
49 7.21099 -20.3304 -5.63327 -0.409183 0.482217 0.0565511
time 21
0 2.57209 1.18619 -10.0886 0 0 -0.814469
1 6.02794 0 0 -1.27433 0.764811 -0.573234
2 11.7344 0 0 -0.0014029 0 -1.5969
3 8.81138 -0.000450134 -0.000110626 -0.30834 0 0.000157088
4 5.77839 0.000286102 0 -0.206588 0 0.000103894
5 2.23163 -0.000328064 -0.000362873 -0.101752 0 0
6 11.4725 0 0 -0.486232 -0.570967 0.41205
7 0.615218 -0.993093 -0.810699 2.92227 0.454999 -0.331411
8 2.24752 0 0 0.0643998 0.0920015 -0.24525
9 1.11936 0 0 0.0124088 0.0391454 -1.16006
10 3.71348 -0.102642 0.102192 1.44559 1.26927 -0.122846
11 1.72615 0 0 -0.0132949 0.00454358 -1.35296
12 1.21114 0 0 -0.0138877 0.0108709 -1.50415
13 3.59919 -1.06012 0.0708885 1.59719 1.13552 0.0844617
14 1.66069 0 0 0.0206526 0.106434 -1.46129
15 1.167 0 0 0.140204 0.107864 -1.2636
16 2.18852 0.501038 0.0576596 1.58026 0.110062 0.0312637
17 1.29609 0 0 -0.0214549 0.0115007 -1.06235
18 1.62202 0.000715256 -0.000471115 -0.00757002 0.00444252 -1.4728
19 1.22241 0 0 -0.046983 -0.00376791 -1.43289
20 1.76707 1.27612 0.0366416 1.57845 0.182304 -0.021451
21 1.55588 0 0 -0.155246 -0.00355045 -0.857709
22 1.24274 0 0 -0.000505244 -0.000323015 -1.24825
23 0.784523 0 0 0.00822032 0.0140818 -0.754785
24 -4.74072 -0.12752 -11.5891 -0.000932534 0 -2.53187
25 6.02794 0 0 0.960346 0.261029 1.42868
26 11.7344 0 0 0.00140269 0 0.485472
27 8.81167 0 0 0.0983217 0 0
28 5.77884 0 0 0.0658756 0 0
29 2.23249 0 0 0.0324463 0 0
30 11.4725 0 0 -0.0467523 -0.461133 0.303514
31 0.615813 0.994373 -0.809165 -2.72226 0.463503 0.286233
32 2.24752 0 0 -0.083597 0.0959307 0.272288
33 1.11936 0 0 -0.401235 0.450129 0.842933
34 3.71348 0.10264 0.10219 -1.41386 1.26431 0.0816939
35 1.72615 0 0 0.000698402 0.00024185 1.34896
36 1.21112 0 0 0.0115403 0.0133366 1.31081
37 3.5992 1.06012 0.0708878 -1.68043 1.04215 -0.112109
38 1.66069 0 0 0.00620727 0.00200647 1.47997
39 1.16699 0 0 -0.0701392 0.164234 1.21657
40 2.18853 -0.50104 0.0576587 -1.57605 0.00117805 -0.0469345
41 1.29609 0 0 -0.0326375 -0.0616159 1.17811
42 1.62201 -0.000712395 -0.000471115 -0.00508032 -0.00330949 1.42626
43 1.22241 0 0 0.0247019 -0.0856984 1.42308
44 1.76707 -1.27612 0.0366404 -1.56655 0.103701 0.0275535
45 1.55588 0 0 0.103891 -0.0756531 0.975564
46 1.24273 0 0 -0.0046995 -0.0380688 1.28397
47 0.784533 0 0 -0.0127429 -0.0577752 1.00048
48 0 0 0 0 0 0
49 7.62792 -20.8158 -5.87477 -0.466452 0.432419 0.0954065
time 22
0 2.57209 1.18619 -9.83231 0 0 -0.814469
1 6.02794 0 0 -1.29633 0.768319 -0.567135
2 11.7344 0 0 -0.00140293 0 -1.53644
3 8.81138 -0.000450134 -0.00011301 -0.301396 0 0.00015743
4 5.77839 0.000284195 0 -0.201936 0 0.000104018
5 2.23163 -0.000329971 -0.000363827 -0.0994608 0 0
6 11.4725 0 0 -0.407267 -0.569024 0.286102
7 0.61522 -0.99309 -0.8107 2.92227 0.454999 -0.33141
8 2.24752 0 0 0.0643998 0.0920016 -0.24525
9 1.11936 0 0 0.012409 0.0391455 -1.16006
10 3.71348 -0.102642 0.102191 1.44559 1.26927 -0.122846
11 1.72615 0 0 -0.0132949 0.00454349 -1.35296
12 1.21114 0 0 -0.0138877 0.0108709 -1.50415
13 3.59919 -1.06012 0.0708876 1.59719 1.13552 0.0844622
14 1.66069 0 0 0.0206525 0.106434 -1.46129
15 1.167 0 0 0.140204 0.107864 -1.2636
16 2.18852 0.501038 0.0576591 1.58026 0.110062 0.0312637
17 1.29609 0 0 -0.021455 0.0115008 -1.06235
18 1.62202 0.000713348 -0.000473022 -0.00756992 0.00444241 -1.4728
19 1.22241 0 0 -0.0469828 -0.00376778 -1.43289
20 1.76707 1.27612 0.0366416 1.57845 0.182304 -0.0214509
21 1.55587 0 0 -0.155246 -0.00355036 -0.857709
22 1.24273 0 0 -0.000505456 -0.000322873 -1.24825
23 0.784523 0 0 0.00822049 0.0140818 -0.754785
24 -4.25788 -0.390285 -11.4168 -0.000932534 0 -2.53187
25 6.02795 0 0 0.925551 0.175485 1.49124
26 11.7344 0 0 0.00140268 0 0.237538
27 8.81167 0 0 0.260429 0 0
28 5.77884 0 0 0.174487 0 0
29 2.23249 0 0 0.0859414 0 0
30 11.4725 0 0 0.0150894 -0.49632 0.482529
31 0.615812 0.994373 -0.809164 -2.72226 0.463503 0.286233
32 2.24752 0 0 -0.083597 0.0959307 0.272288
33 1.11936 0 0 -0.401235 0.450129 0.842934
34 3.71348 0.10264 0.102191 -1.41386 1.26431 0.0816936
35 1.72615 0 0 0.000698448 0.000241549 1.34896
36 1.21112 0 0 0.0115404 0.0133366 1.31081
37 3.5992 1.06011 0.0708888 -1.68043 1.04215 -0.112109
38 1.66069 0 0 0.00620718 0.00200634 1.47997
39 1.16699 0 0 -0.0701393 0.164234 1.21657
40 2.18853 -0.501041 0.0576589 -1.57605 0.00117804 -0.0469345
41 1.29609 0 0 -0.0326374 -0.0616157 1.17811
42 1.62202 -0.000713348 -0.0004673 -0.00508027 -0.00330955 1.42626
43 1.22241 0 0 0.0247022 -0.0856984 1.42308
44 1.76707 -1.27612 0.0366414 -1.56655 0.103701 0.0275536
45 1.55588 0 0 0.103891 -0.075653 0.975564
46 1.24273 0 0 -0.00469958 -0.0380689 1.28397
47 0.784532 0 0 -0.0127428 -0.0577752 1.00048
48 0 0 0 0 0 0
49 7.93461 -21.1381 -6.01291 -0.502206 0.391232 0.123317
time 23
0 2.57209 1.18619 -9.58649 0 0 -0.814469
1 6.02794 0 0 -1.31543 0.771398 -0.56189
2 11.7344 0 0 -0.00140284 0 -1.49369
3 8.81138 -0.000450134 -0.000112534 -0.291636 0 0.000156855
4 5.77839 0.000284195 0 -0.195396 0 0.000103713
5 2.23163 -0.000329971 -0.000363827 -0.0962398 0 0
6 11.4725 0 0 -0.354512 -0.547732 0.205336
7 0.61522 -0.99309 -0.8107 2.92227 0.454999 -0.33141
8 2.24752 0 0 0.0643998 0.0920015 -0.24525
9 1.11936 0 0 0.012409 0.0391454 -1.16006
10 3.71348 -0.10264 0.102191 1.44559 1.26927 -0.122846
11 1.72615 0 0 -0.013295 0.00454337 -1.35296
12 1.21113 0 0 -0.0138876 0.0108709 -1.50415
13 3.59919 -1.06012 0.070888 1.59719 1.13552 0.0844623
14 1.66069 0 0 0.0206524 0.106433 -1.46129
15 1.16699 0 0 0.140204 0.107864 -1.2636
16 2.18853 0.50104 0.0576587 1.58026 0.110062 0.0312637
17 1.29609 0 0 -0.021455 0.0115008 -1.06235
18 1.62202 0.000715256 -0.000471115 -0.00757 0.00444227 -1.4728
19 1.22241 0 0 -0.0469827 -0.00376784 -1.43289
20 1.76707 1.27612 0.0366416 1.57845 0.182304 -0.0214511
21 1.55587 0 0 -0.155245 -0.00355046 -0.857709
22 1.24273 0 0 -0.00050536 -0.000323006 -1.24825
23 0.784525 0 0 0.00822042 0.0140818 -0.754785
24 -3.79481 -0.635864 -11.2516 -0.000932534 0 -2.53187
25 6.02795 0 0 0.905751 0.0947135 1.5619
26 11.7344 0 0 0.00140272 0 -0.00396431
27 8.81167 0 0 0.381873 0 0
28 5.77884 0 0 0.255855 0 0
29 2.23249 0 0 0.126018 0 0
30 11.4725 0 0 0.0572979 -0.532561 0.631305
31 0.615813 0.99437 -0.809165 -2.72226 0.463503 0.286233
32 2.24752 0 0 -0.0835971 0.0959306 0.272288
33 1.11936 0 0 -0.401235 0.450129 0.842934
34 3.71349 0.102638 0.10219 -1.41386 1.26431 0.0816936
35 1.72615 0 0 0.000698466 0.000241817 1.34896
36 1.21112 0 0 0.0115402 0.0133366 1.31081
37 3.5992 1.06012 0.0708876 -1.68043 1.04215 -0.112109
38 1.66069 0 0 0.00620719 0.00200645 1.47997
39 1.16699 0 0 -0.0701393 0.164234 1.21657
40 2.18853 -0.501043 0.0576594 -1.57605 0.00117797 -0.0469344
41 1.29609 0 0 -0.0326375 -0.0616158 1.17811
42 1.62202 -0.000713348 -0.000469208 -0.00508027 -0.00330945 1.42626
43 1.22241 0 0 0.0247019 -0.0856985 1.42308
44 1.76707 -1.27612 0.0366414 -1.56655 0.103701 0.0275537
45 1.55587 0 0 0.103891 -0.0756531 0.975564
46 1.24273 0 0 -0.00469956 -0.0380686 1.28397
47 0.784532 0 0 -0.0127429 -0.0577751 1.00048
48 0 0 0 0 0 0
49 8.17679 -21.3971 -6.08489 -0.517383 0.357309 0.136294
time 24
0 2.57209 1.18619 -9.35642 0 0 -0.814469
1 6.02794 0 0 -1.33169 0.775092 -0.55699
2 11.7344 0 0 -0.00140273 0 -1.46504
3 8.81138 -0.000450134 -0.000112057 -0.282894 0 0.000157927
4 5.77839 0.000286102 0 -0.189539 0 0.000104561
5 2.23163 -0.000328064 -0.000364304 -0.0933549 0 0
6 11.4725 0 0 -0.321671 -0.513041 0.155539
7 0.615219 -0.993092 -0.810699 2.92227 0.454999 -0.33141
8 2.24752 0 0 0.0643999 0.0920014 -0.24525
9 1.11936 0 0 0.0124088 0.0391454 -1.16006
10 3.71348 -0.102642 0.102191 1.44559 1.26927 -0.122845
11 1.72615 0 0 -0.013295 0.00454366 -1.35296
12 1.21114 0 0 -0.0138876 0.0108709 -1.50415
13 3.59919 -1.06012 0.0708885 1.59719 1.13552 0.0844626
14 1.66069 0 0 0.0206526 0.106434 -1.46129
15 1.167 0 0 0.140204 0.107864 -1.2636
16 2.18852 0.501038 0.0576591 1.58026 0.110062 0.0312636
17 1.29609 0 0 -0.0214549 0.0115007 -1.06235
18 1.62202 0.000713348 -0.000471115 -0.00756992 0.00444246 -1.4728
19 1.22241 0 0 -0.046983 -0.00376788 -1.43289
20 1.76707 1.27612 0.0366411 1.57845 0.182304 -0.021451
21 1.55588 0 0 -0.155246 -0.00355041 -0.857709
22 1.24274 0 0 -0.000505207 -0.000323117 -1.24825
23 0.784523 0 0 0.00822062 0.0140818 -0.754785
24 -3.36141 -0.860593 -11.0969 -0.000932534 0 -2.53187
25 6.02795 0 0 0.887767 0.107201 1.56163
26 11.7344 0 0 0.00140259 0 -0.00396543
27 8.81167 0 0 0.436038 0 0
28 5.77884 0 0 0.292145 0 0
29 2.23249 0 0 0.143893 0 0
30 11.4725 0 0 0.0864458 -0.570807 0.63974
31 0.615814 0.994371 -0.809164 -2.72226 0.463503 0.286233
32 2.24752 0 0 -0.0835969 0.0959306 0.272288
33 1.11936 0 0 -0.401235 0.450129 0.842934
34 3.71349 0.102638 0.102191 -1.41386 1.26431 0.0816938
35 1.72615 0 0 0.000698346 0.000241729 1.34896
36 1.21112 0 0 0.0115402 0.0133365 1.31081
37 3.5992 1.06012 0.070888 -1.68043 1.04215 -0.112109
38 1.66069 0 0 0.00620723 0.00200631 1.47997
39 1.16699 0 0 -0.0701394 0.164234 1.21657
40 2.18853 -0.501041 0.0576591 -1.57605 0.00117789 -0.0469346
41 1.29609 0 0 -0.0326374 -0.0616158 1.17811
42 1.62201 -0.000713348 -0.000469208 -0.00508021 -0.00330946 1.42626
43 1.22241 0 0 0.024702 -0.0856984 1.42308
44 1.76707 -1.27612 0.0366411 -1.56655 0.103701 0.0275536
45 1.55588 0 0 0.10389 -0.0756531 0.975564
46 1.24273 0 0 -0.0046995 -0.0380691 1.28397
47 0.784532 0 0 -0.012743 -0.0577752 1.00048
48 0 0 0 0 0 0
49 8.36174 -21.599 -6.10543 -0.520938 0.32797 0.134412
time 25
0 2.57209 1.18619 -9.14734 0 0 -0.814469
1 6.02794 0 0 -1.34499 0.779587 -0.552485
2 11.7344 0 0 -0.00140285 0 -1.44791
3 8.81138 -0.000450134 -0.00011158 -0.276081 0 0.000157631
4 5.77839 0.000286102 0 -0.184975 0 0.00010452
5 2.23164 -0.000328064 -0.00036335 -0.0911068 0 0
6 11.4725 0 0 -0.303782 -0.472076 0.129253
7 0.61522 -0.993092 -0.8107 2.92227 0.454999 -0.331411
8 2.24752 0 0 0.0643998 0.0920016 -0.24525
9 1.11936 0 0 0.0124089 0.0391455 -1.16006
10 3.71348 -0.102642 0.102192 1.44559 1.26927 -0.122847
11 1.72615 0 0 -0.0132949 0.00454359 -1.35296
12 1.21114 0 0 -0.0138877 0.0108709 -1.50415
13 3.59919 -1.06012 0.0708876 1.59719 1.13552 0.084462
14 1.66069 0 0 0.0206525 0.106434 -1.46129
15 1.167 0 0 0.140204 0.107864 -1.2636
16 2.18853 0.501038 0.0576582 1.58026 0.110062 0.0312636
17 1.29609 0 0 -0.0214549 0.0115007 -1.06235
18 1.62202 0.000715256 -0.000473022 -0.00756998 0.00444257 -1.4728
19 1.22241 0 0 -0.046983 -0.0037678 -1.43289
20 1.76707 1.27612 0.0366411 1.57845 0.182304 -0.0214511
21 1.55588 0 0 -0.155246 -0.00355022 -0.857709
22 1.24273 0 0 -0.000505393 -0.000323012 -1.24825
23 0.784523 0 0 0.0082202 0.0140818 -0.754785
24 -2.96756 -1.0608 -10.9563 -0.000932534 0 -2.53187
25 6.02794 0 0 0.865436 0.199387 1.49212
26 11.7344 0 0 0.00140278 0 0.212091
27 8.81167 0 0 0.433992 0 0
28 5.77884 0 0 0.290775 0 0
29 2.23249 0 0 0.143218 0 0
30 11.4725 0 0 0.107873 -0.608373 0.525325
31 0.615814 0.994373 -0.809166 -2.72226 0.463503 0.286233
32 2.24752 0 0 -0.0835968 0.0959307 0.272288
33 1.11936 0 0 -0.401235 0.450129 0.842934
34 3.71349 0.102642 0.10219 -1.41386 1.26431 0.0816935
35 1.72615 0 0 0.000698465 0.000241906 1.34896
36 1.21112 0 0 0.0115403 0.0133366 1.31081
37 3.5992 1.06012 0.070888 -1.68043 1.04215 -0.112109
38 1.66069 0 0 0.00620719 0.00200645 1.47997
39 1.16699 0 0 -0.0701393 0.164234 1.21657
40 2.18853 -0.501038 0.0576587 -1.57605 0.00117807 -0.0469346
41 1.29609 0 0 -0.0326375 -0.0616159 1.17811
42 1.62201 -0.000712395 -0.000469208 -0.00508026 -0.0033096 1.42626
43 1.2224 0 0 0.0247021 -0.0856984 1.42308
44 1.76707 -1.27612 0.0366414 -1.56655 0.103701 0.0275537
45 1.55588 0 0 0.103891 -0.075653 0.975564
46 1.24273 0 0 -0.00469947 -0.038069 1.28397
47 0.784531 0 0 -0.012743 -0.0577752 1.00048
48 0 0 0 0 0 0
49 8.49675 -21.7501 -6.08925 -0.516256 0.303447 0.122359
time 26
0 2.57209 1.18619 -8.96451 0 0 -0.814469
1 6.02794 0 0 -1.35541 0.784595 -0.548532
2 11.7344 0 0 -0.00140272 0 -1.43943
3 8.81138 -0.000450134 -0.00011158 -0.271703 0 0.000157095
4 5.77839 0.000286102 0 -0.182041 0 0.000104134
5 2.23163 -0.000328064 -0.000364304 -0.089662 0 0
6 11.4725 0 0 -0.295845 -0.430684 0.118963
7 0.61522 -0.993092 -0.810699 2.92227 0.454999 -0.33141
8 2.24752 0 0 0.0643998 0.0920015 -0.24525
9 1.11936 0 0 0.0124088 0.0391455 -1.16006
10 3.71348 -0.102642 0.102191 1.44559 1.26927 -0.122845
11 1.72615 0 0 -0.013295 0.0045435 -1.35296
12 1.21114 0 0 -0.0138875 0.010871 -1.50415
13 3.59919 -1.06012 0.0708885 1.59719 1.13552 0.0844626
14 1.66069 0 0 0.0206527 0.106434 -1.46129
15 1.167 0 0 0.140204 0.107864 -1.2636
16 2.18852 0.501038 0.0576591 1.58026 0.110062 0.0312636
17 1.29609 0 0 -0.021455 0.0115006 -1.06235
18 1.62202 0.000713348 -0.000469208 -0.00756998 0.00444261 -1.4728
19 1.22241 0 0 -0.0469829 -0.00376786 -1.43289
20 1.76707 1.27612 0.0366406 1.57845 0.182304 -0.021451
21 1.55588 0 0 -0.155245 -0.0035503 -0.857709
22 1.24273 0 0 -0.00050526 -0.000323044 -1.24825
23 0.784523 0 0 0.0082204 0.0140819 -0.754785
24 -2.62314 -1.23283 -10.8334 -0.000932534 0 -2.53187
25 6.02794 0 0 0.84619 0.262023 1.44261
26 11.7344 0 0 0.00140269 0 0.358759
27 8.81167 0 0 0.430127 0 0
28 5.77884 0 0 0.288185 0 0
29 2.23249 0 0 0.141942 0 0
30 11.4725 0 0 0.12454 -0.642655 0.437379
31 0.615816 0.994373 -0.809165 -2.72226 0.463503 0.286233
32 2.24752 0 0 -0.083597 0.0959306 0.272288
33 1.11936 0 0 -0.401236 0.450129 0.842933
34 3.71349 0.102642 0.10219 -1.41386 1.26431 0.0816936
35 1.72615 0 0 0.000698459 0.000241867 1.34896
36 1.21112 0 0 0.0115403 0.0133365 1.31081
37 3.5992 1.06012 0.070888 -1.68043 1.04215 -0.112109
38 1.66069 0 0 0.00620727 0.00200632 1.47997
39 1.16699 0 0 -0.0701394 0.164234 1.21657
40 2.18853 -0.50104 0.0576589 -1.57605 0.00117788 -0.0469346
41 1.29609 0 0 -0.0326374 -0.0616157 1.17811
42 1.62201 -0.000711441 -0.000469208 -0.00508027 -0.00330946 1.42626
43 1.22241 0 0 0.0247019 -0.0856984 1.42308
44 1.76707 -1.27612 0.0366409 -1.56655 0.103701 0.0275537
45 1.55588 0 0 0.103891 -0.075653 0.975564
46 1.24273 0 0 -0.00469953 -0.0380689 1.28397
47 0.784532 0 0 -0.012743 -0.0577752 1.00048
48 0 0 0 0 0 0
49 8.58908 -21.8568 -6.05105 -0.506722 0.283969 0.104823
time 27
0 2.57209 1.18619 -8.81317 0 0 -0.814469
1 6.02794 0 0 -1.36296 0.789625 -0.545342
2 11.7344 0 0 -0.00140292 0 -1.43672
3 8.81138 -0.000450134 -0.000112057 -0.26971 0 0.000157024
4 5.77839 0.000286102 0 -0.180706 0 0.000104072
5 2.23164 -0.000328064 -0.000364304 -0.0890043 0 0
6 11.4725 0 0 -0.293702 -0.394301 0.117875
7 0.615218 -0.99309 -0.810699 2.92227 0.454999 -0.331411
8 2.24752 0 0 0.0643998 0.0920016 -0.24525
9 1.11936 0 0 0.0124089 0.0391454 -1.16006
10 3.71348 -0.10264 0.102191 1.44559 1.26927 -0.122847
11 1.72615 0 0 -0.013295 0.00454347 -1.35296
12 1.21113 0 0 -0.0138877 0.0108709 -1.50415
13 3.59919 -1.06012 0.0708876 1.59719 1.13552 0.0844618
14 1.66069 0 0 0.0206526 0.106433 -1.46129
15 1.167 0 0 0.140204 0.107864 -1.2636
16 2.18852 0.50104 0.0576591 1.58026 0.110062 0.0312637
17 1.29609 0 0 -0.021455 0.0115006 -1.06235
18 1.62202 0.000713348 -0.000471115 -0.00756992 0.00444236 -1.4728
19 1.22241 0 0 -0.0469828 -0.00376773 -1.43289
20 1.76707 1.27612 0.0366411 1.57845 0.182304 -0.0214511
21 1.55587 0 0 -0.155246 -0.00355043 -0.857709
22 1.24273 0 0 -0.000505222 -0.000322943 -1.24825
23 0.784523 0 0 0.00822048 0.0140818 -0.754785
24 -2.33805 -1.37302 -10.7317 -0.000932534 0 -2.53187
25 6.02795 0 0 0.82996 0.30882 1.40361
26 11.7344 0 0 0.0014027 0 0.46956
27 8.81167 0 0 0.421224 0 0
28 5.77884 0 0 0.28222 0 0
29 2.23249 0 0 0.139004 0 0
30 11.4725 0 0 0.137475 -0.671009 0.364497
31 0.615811 0.994373 -0.809164 -2.72226 0.463503 0.286233
32 2.24752 0 0 -0.0835969 0.0959306 0.272288
33 1.11936 0 0 -0.401235 0.450129 0.842933
34 3.71349 0.10264 0.102191 -1.41386 1.26431 0.0816923
35 1.72615 0 0 0.000698464 0.000241767 1.34896
36 1.21112 0 0 0.0115402 0.0133366 1.31081
37 3.5992 1.06012 0.0708885 -1.68043 1.04215 -0.11211
38 1.66069 0 0 0.00620717 0.00200651 1.47997
39 1.16699 0 0 -0.0701393 0.164234 1.21657
40 2.18853 -0.501041 0.0576601 -1.57605 0.00117787 -0.0469347
41 1.29609 0 0 -0.0326374 -0.0616157 1.17811
42 1.62202 -0.000712395 -0.000469208 -0.00508029 -0.00330949 1.42626
43 1.2224 0 0 0.0247019 -0.0856984 1.42308
44 1.76707 -1.27612 0.0366411 -1.56655 0.103701 0.0275536
45 1.55587 0 0 0.103891 -0.0756529 0.975564
46 1.24273 0 0 -0.0046996 -0.0380689 1.28397
47 0.784531 0 0 -0.0127428 -0.0577752 1.00048
48 0 0 0 0 0 0
49 8.64602 -21.9252 -6.00554 -0.495721 0.26977 0.086492
time 28
0 2.57209 1.18619 -8.69857 0 0 -0.814469
1 6.02794 0 0 -1.36753 0.794115 -0.543157
2 11.7344 0 0 -0.00140291 0 -1.43694
3 8.81138 -0.000450134 -0.00011158 -0.269532 0 0.000157675
4 5.77839 0.000286102 0 -0.180587 0 0.000104588
5 2.23164 -0.000328064 -0.000363827 -0.0889456 0 0
6 11.4725 0 0 -0.294152 -0.368408 0.119971
7 0.615219 -0.993092 -0.8107 2.92227 0.454999 -0.331411
8 2.24752 0 0 0.0643998 0.0920016 -0.245251
9 1.11936 0 0 0.0124089 0.0391454 -1.16006
10 3.71348 -0.102642 0.102191 1.44559 1.26927 -0.122846
11 1.72615 0 0 -0.013295 0.00454359 -1.35296
12 1.21113 0 0 -0.0138877 0.0108709 -1.50415
13 3.59919 -1.06012 0.0708885 1.59719 1.13552 0.0844622
14 1.66069 0 0 0.0206524 0.106434 -1.46129
15 1.167 0 0 0.140204 0.107864 -1.2636
16 2.18853 0.50104 0.0576591 1.58026 0.110062 0.0312637
17 1.29609 0 0 -0.021455 0.0115007 -1.06235
18 1.62202 0.000713348 -0.000471115 -0.00757008 0.00444263 -1.4728
19 1.22241 0 0 -0.046983 -0.0037678 -1.43289
20 1.76707 1.27612 0.0366416 1.57845 0.182304 -0.021451
21 1.55588 0 0 -0.155245 -0.00355035 -0.857709
22 1.24274 0 0 -0.00050527 -0.000322877 -1.24825
23 0.784521 0 0 0.00822032 0.0140818 -0.754785
24 -2.12217 -1.47768 -10.6546 -0.000932534 0 -2.53187
25 6.02794 0 0 0.817378 0.342153 1.3741
26 11.7344 0 0 0.00140269 0 0.549381
27 8.81167 0 0 0.409742 0 0
28 5.77884 0 0 0.274527 0 0
29 2.23249 0 0 0.135215 0 0
30 11.4725 0 0 0.146388 -0.690433 0.310281
31 0.615812 0.994373 -0.809165 -2.72226 0.463503 0.286234
32 2.24752 0 0 -0.083597 0.0959308 0.272288
33 1.11936 0 0 -0.401236 0.450129 0.842934
34 3.71349 0.102638 0.102191 -1.41386 1.26431 0.0816929
35 1.72615 0 0 0.000698402 0.000241816 1.34896
36 1.21112 0 0 0.0115403 0.0133366 1.31081
37 3.5992 1.06012 0.0708876 -1.68043 1.04215 -0.112109
38 1.66069 0 0 0.00620712 0.0020065 1.47997
39 1.16699 0 0 -0.0701393 0.164234 1.21657
40 2.18853 -0.50104 0.0576591 -1.57605 0.00117796 -0.0469344
41 1.29609 0 0 -0.0326375 -0.0616158 1.17811
42 1.62201 -0.000713348 -0.0004673 -0.00508024 -0.00330958 1.42626
43 1.22241 0 0 0.024702 -0.0856984 1.42308
44 1.76707 -1.27612 0.0366411 -1.56655 0.103701 0.0275537
45 1.55587 0 0 0.103891 -0.075653 0.975564
46 1.24273 0 0 -0.00469945 -0.038069 1.28397
47 0.784529 0 0 -0.0127428 -0.0577752 1.00048
48 0 0 0 0 0 0
49 8.67485 -21.9616 -5.96745 -0.486638 0.261081 0.0720553
time 29
0 2.57209 1.18619 -8.62596 0 0 -0.814469
1 6.02794 0 0 -1.36892 0.797458 -0.542253
2 11.7344 0 0 -0.00140278 0 -1.43724
3 8.81138 -0.000450134 -0.000111103 -0.270255 0 0.000156313
4 5.77839 0.000286102 0 -0.181071 0 0.000103574
5 2.23163 -0.000328064 -0.00036335 -0.0891841 0 0
6 11.4725 0 0 -0.29461 -0.358667 0.119708
7 0.615219 -0.993092 -0.810699 2.92227 0.454999 -0.33141
8 2.24752 0 0 0.0643998 0.0920016 -0.24525
9 1.11936 0 0 0.012409 0.0391454 -1.16006
10 3.71348 -0.102642 0.102191 1.44559 1.26927 -0.122846
11 1.72615 0 0 -0.0132947 0.00454348 -1.35296
12 1.21114 0 0 -0.0138876 0.0108709 -1.50415
13 3.59919 -1.06012 0.070888 1.59719 1.13552 0.0844625
14 1.66069 0 0 0.0206526 0.106434 -1.46129
15 1.167 0 0 0.140204 0.107864 -1.2636
16 2.18852 0.501038 0.0576601 1.58026 0.110062 0.0312636
17 1.29609 0 0 -0.021455 0.0115007 -1.06235
18 1.62202 0.000715256 -0.000469208 -0.00756982 0.00444243 -1.4728
19 1.22241 0 0 -0.0469828 -0.00376766 -1.43289
20 1.76707 1.27612 0.0366406 1.57845 0.182304 -0.0214511
21 1.55588 0 0 -0.155246 -0.00355041 -0.857709
22 1.24274 0 0 -0.00050521 -0.000323164 -1.24825
23 0.784523 0 0 0.00822046 0.0140817 -0.754785
24 -1.9854 -1.54317 -10.6058 -0.000932534 0 -2.53187
25 6.02794 0 0 0.809906 0.360757 1.35601
26 11.7344 0 0 0.0014027 0 0.593615
27 8.81167 0 0 0.401074 0 0
28 5.77884 0 0 0.26872 0 0
29 2.23249 0 0 0.132355 0 0
30 11.4725 0 0 0.150176 -0.697609 0.28356
31 0.615811 0.994373 -0.809165 -2.72226 0.463503 0.286233
32 2.24752 0 0 -0.0835968 0.0959308 0.272288
33 1.11936 0 0 -0.401235 0.450129 0.842933
34 3.71348 0.102638 0.102191 -1.41386 1.26431 0.0816927
35 1.72615 0 0 0.000698402 0.000241686 1.34896
36 1.21112 0 0 0.0115403 0.0133366 1.31081
37 3.5992 1.06012 0.070888 -1.68043 1.04215 -0.112109
38 1.66069 0 0 0.00620716 0.00200631 1.47997
39 1.16699 0 0 -0.0701392 0.164234 1.21657
40 2.18853 -0.501041 0.0576596 -1.57605 0.00117804 -0.0469345
41 1.29609 0 0 -0.0326374 -0.0616157 1.17811
42 1.62202 -0.000713348 -0.000469208 -0.00508026 -0.00330938 1.42626
43 1.22241 0 0 0.0247019 -0.0856985 1.42308
44 1.76707 -1.27612 0.0366411 -1.56655 0.103701 0.0275536
45 1.55588 0 0 0.103891 -0.075653 0.975564
46 1.24273 0 0 -0.00469956 -0.0380689 1.28397
47 0.784531 0 0 -0.0127428 -0.0577751 1.00048
48 0 0 0 0 0 0
49 8.68284 -21.9724 -5.95148 -0.482858 0.258133 0.0662012
time 30
0 2.57209 1.18619 -8.6006 0 0 -0.814469
1 6.02794 0 0 -1.36879 0.798743 -0.542169
2 11.7344 0 0 -0.00140278 0 -1.43692
3 8.81138 -0.000448227 -0.00011158 -0.270686 0 0.000156265
4 5.77839 0.000286102 0 -0.181359 0 0.000103457
5 2.23163 -0.000329971 -0.00036335 -0.0893263 0 0
6 11.4725 0 0 -0.294423 -0.35879 0.118047
7 0.615219 -0.993092 -0.8107 2.92227 0.454999 -0.33141
8 2.24752 0 0 0.0643999 0.0920014 -0.24525
9 1.11936 0 0 0.0124089 0.0391454 -1.16006
10 3.71348 -0.102642 0.10219 1.44559 1.26927 -0.122846
11 1.72615 0 0 -0.0132949 0.00454343 -1.35296
12 1.21114 0 0 -0.0138876 0.0108708 -1.50415
13 3.59919 -1.06012 0.0708876 1.59719 1.13552 0.0844625
14 1.66069 0 0 0.0206524 0.106434 -1.46129
15 1.167 0 0 0.140204 0.107864 -1.2636
16 2.18852 0.501038 0.0576587 1.58026 0.110062 0.0312636
17 1.29609 0 0 -0.0214551 0.0115007 -1.06235
18 1.62202 0.000713348 -0.000471115 -0.00756982 0.00444235 -1.4728
19 1.22241 0 0 -0.0469826 -0.00376776 -1.43289
20 1.76707 1.27612 0.0366406 1.57845 0.182304 -0.021451
21 1.55588 0 0 -0.155246 -0.00355036 -0.857709
22 1.24273 0 0 -0.000505255 -0.000322949 -1.24825
23 0.784523 0 0 0.0082204 0.0140817 -0.754785
24 -1.93761 -1.56582 -10.5888 -0.000932534 0 -2.53187
25 6.02795 0 0 0.807576 0.366389 1.34985
26 11.7344 0 0 0.00140264 0 0.606703
27 8.81167 0 0 0.398098 0 0
28 5.77884 0 0 0.266726 0 0
29 2.23249 0 0 0.131372 0 0
30 11.4725 0 0 0.150569 -0.697544 0.278271
31 0.615815 0.994371 -0.809165 -2.72226 0.463503 0.286233
32 2.24752 0 0 -0.083597 0.0959306 0.272288
33 1.11936 0 0 -0.401236 0.450129 0.842933
34 3.71349 0.102636 0.102191 -1.41386 1.26431 0.0816931
35 1.72615 0 0 0.00069843 0.000241606 1.34896
36 1.21112 0 0 0.0115404 0.0133365 1.31081
37 3.5992 1.06011 0.0708885 -1.68043 1.04215 -0.112109
38 1.66069 0 0 0.00620718 0.00200642 1.47997
39 1.16699 0 0 -0.0701393 0.164234 1.21657
40 2.18853 -0.501041 0.0576591 -1.57605 0.00117806 -0.0469345
41 1.29609 0 0 -0.0326376 -0.0616158 1.17811
42 1.62201 -0.000713348 -0.000469208 -0.00508022 -0.00330952 1.42626
43 1.22241 0 0 0.024702 -0.0856983 1.42308
44 1.76707 -1.27612 0.0366411 -1.56655 0.103701 0.0275537
45 1.55588 0 0 0.103891 -0.075653 0.975564
46 1.24273 0 0 -0.00469952 -0.0380689 1.28397
47 0.784531 0 0 -0.0127429 -0.0577752 1.00048
48 0 0 0 0 0 0
49 8.68284 -21.9724 -5.95148 -0.482858 0.258133 0.0662012
end
