//Sequence File generated by the Wall Worm SMD Exporter PRO 1.99
//www.wallworm.com
version 1
nodes
0 "rat_hip" -1
1 "rat_tail001" 0
2 "rat_tail002" 1
3 "rat_tail003" 2
4 "rat_tail004" 3
5 "rat_spine" 0
6 "rat_r_forearm" 5
7 "rat_r_ulna" 6
8 "rat_r_paw" 7
9 "rat_r_pawtoe" 8
10 "rat_neck" 5
11 "rat_face" 10
12 "rat_nose" 11
13 "rat_l_forearm" 5
14 "rat_l_ulna" 13
15 "rat_l_paw" 14
16 "rat_l_pawtoe" 15
17 "rat_r_femur" 0
18 "rat_r_radius" 17
19 "rat_r_foot" 18
20 "rat_r_toes" 19
21 "rat_l_femur" 0
22 "rat_l_radius" 21
23 "rat_l_foot" 22
24 "rat_l_toes" 23
end
skeleton
time 0
0 0 5.80079 4.65458 1.56249 0.00734157 -1.65846
1 -1.44506 -1.45657 0 0 0 -2.8175
2 3.15237 0 0 0 0 -0.240052
3 2.79334 0 0 0 0 -0.124805
4 3.38194 0 0 0 0 -0.0621486
5 3.8672 0 0 0.0175669 0.347334 0.114837
6 3.46652 -1.90644 0.948191 -0.0386359 -0.321916 -2.35307
7 1.49066 0 0 0.0130806 0.0227224 1.41086
8 1.99771 0 0 0.252834 -0.490319 0.763874
9 0.358219 -0.000130177 -0.000133336 -1.5708 0.000372443 -0.000364249
10 3.57113 0 0 0 0.352178 0.0155119
11 2.11638 0 0 -0.0931516 0.33113 -0.0466361
12 1.97852 0 0 0 0 0
13 3.46652 -1.90644 -0.948 0.40398 -0.0832437 -2.08063
14 1.49066 0 0 0.0199866 0.0219654 1.26417
15 1.9977 0 0 0.242239 0.0683001 0.673256
16 0.358218 -0.000129908 -0.000133693 -1.58682 0.0112587 -0.00451036
17 0.635818 -1.41048 1.8265 0.00963696 -0.0863832 -1.68747
18 1.5758 0 0 -0.138053 0.107128 -0.659871
19 1.24879 0 0 -0.0591471 -0.0558387 1.88604
20 1.03455 0 0 0 0 0.261799
21 0.635815 -1.41048 -1.8265 -0.0395411 -0.0122455 -1.89942
22 1.5758 0 0 -0.117219 0.0728611 -0.42912
23 1.24879 0 0 -0.0576081 0.0551941 1.85795
24 1.03455 0 0 -0.00452565 0.00122014 0.261797
end
