//Sequence File generated by the Wall Worm SMD Exporter PRO 1.99
//www.wallworm.com
version 1
nodes
0 "rat_hip" -1
1 "rat_tail001" 0
2 "rat_tail002" 1
3 "rat_tail003" 2
4 "rat_tail004" 3
5 "rat_spine" 0
6 "rat_r_forearm" 5
7 "rat_r_ulna" 6
8 "rat_r_paw" 7
9 "rat_r_pawtoe" 8
10 "rat_neck" 5
11 "rat_face" 10
12 "rat_nose" 11
13 "rat_l_forearm" 5
14 "rat_l_ulna" 13
15 "rat_l_paw" 14
16 "rat_l_pawtoe" 15
17 "rat_r_femur" 0
18 "rat_r_radius" 17
19 "rat_r_foot" 18
20 "rat_r_toes" 19
21 "rat_l_femur" 0
22 "rat_l_radius" 21
23 "rat_l_foot" 22
24 "rat_l_toes" 23
end
skeleton
time 0
0 0 5.80079 4.65458 1.56249 -0.00734196 -1.65846
1 -1.44506 -1.45657 0 0 0 -2.8175
2 3.15237 0 0 0 0 -0.240052
3 2.79334 0 0 0 0 -0.124805
4 3.38194 0 0 0 0 -0.0621486
5 3.8672 0 0 0.0431951 0.344546 0.192875
6 3.46652 -1.90644 0.948191 -0.132654 -0.277483 -2.26063
7 1.49066 0 0 0.0130807 0.0198838 1.0427
8 1.99771 0 0 0.20849 -0.502647 0.98007
9 0.358219 -0.000130117 -0.000133336 -1.5708 0.000372462 -0.000364213
10 3.57113 0 0 0.210632 0.280397 0.657242
11 2.11638 0 0 0.0508618 0.339535 -0.0469299
12 1.97852 0 0 0 0 0
13 3.46652 -1.90644 -0.948 0.352483 -0.126613 -2.04353
14 1.49066 0 0 0.0128132 0.0182008 0.910687
15 1.9977 0 0 0.238258 0.0379855 0.894686
16 0.358219 -0.000129938 -0.000133634 -1.58682 0.0112582 -0.00451019
17 0.635817 -1.41048 1.8265 0.0127609 -0.0827954 -1.7279
18 1.5758 0 0 -0.138052 0.100475 -0.61333
19 1.24879 0 0 -0.0542495 -0.0608018 1.8658
20 1.03455 0 0 0 0 0.261799
21 0.635814 -1.41048 -1.8265 -0.0383844 -0.00856331 -1.94818
22 1.5758 0 0 -0.112742 0.0621744 -0.362779
23 1.24879 0 0 -0.0482761 0.0538326 1.82703
24 1.03455 0 0 -0.00452553 0.00122013 0.261796
end
