//Sequence File generated by the Wall Worm SMD Exporter PRO 1.99
//www.wallworm.com
version 1
nodes
0 "rat_hip" -1
1 "rat_tail001" 0
2 "rat_tail002" 1
3 "rat_tail003" 2
4 "rat_tail004" 3
5 "rat_spine" 0
6 "rat_r_forearm" 5
7 "rat_r_ulna" 6
8 "rat_r_paw" 7
9 "rat_r_pawtoe" 8
10 "rat_neck" 5
11 "rat_face" 10
12 "rat_nose" 11
13 "rat_l_forearm" 5
14 "rat_l_ulna" 13
15 "rat_l_paw" 14
16 "rat_l_pawtoe" 15
17 "rat_r_femur" 0
18 "rat_r_radius" 17
19 "rat_r_foot" 18
20 "rat_r_toes" 19
21 "rat_l_femur" 0
22 "rat_l_radius" 21
23 "rat_l_foot" 22
24 "rat_l_toes" 23
end
skeleton
time 0
0 0 5.80079 4.65458 1.5708 -0.00770422 -1.5708
1 -1.44506 -1.45657 0 0 0 -2.8175
2 3.15237 0 0 0 0 -0.240052
3 2.79335 0 0 0 0 -0.124805
4 3.38194 0 0 0 0 -0.0621485
5 3.86721 0 0 0 0 0.181426
6 3.46652 -1.90644 0.948191 -0.239394 -0.109183 -2.18114
7 1.49066 0 0 0.0130806 0.0201981 1.07044
8 1.99771 0 0 -0.0253315 -0.264441 0.941757
9 0.358219 -0.000130177 -0.000133336 -1.5708 0.000372323 -0.000364183
10 3.57113 0 0 0 0 0.713644
11 2.11638 0 0 0 0 -0.381614
12 1.97852 0 0 0 0 0
13 3.46652 -1.90644 -0.948 0.250837 0.0850296 -2.1859
14 1.49066 0 0 0.0158496 0.0201949 1.06853
15 1.9977 0 0 0.0191912 0.252583 0.940444
16 0.358218 -0.000129938 -0.000133574 -1.58682 0.0112582 -0.00451002
17 0.635818 -1.41048 1.8265 0.0226441 -0.0649967 -1.85338
18 1.5758 0 0 -0.138053 0.0775018 -0.460216
19 1.24879 0 0 -0.0130264 -0.156007 1.84215
20 1.03455 0 0 0 0 0.261799
21 0.635816 -1.41048 -1.8265 -0.0394667 -0.00943568 -1.80687
22 1.5758 0 0 -0.128145 0.0930334 -0.560793
23 1.24879 0 0 -0.0493205 -0.0262291 1.8911
24 1.03455 0 0 -0.00452547 0.00122012 0.261796
end
