//Sequence File generated by the Wall Worm SMD Exporter PRO 1.99
//www.wallworm.com
version 1
nodes
0 "rat_hip" -1
1 "rat_tail001" 0
2 "rat_tail002" 1
3 "rat_tail003" 2
4 "rat_tail004" 3
5 "rat_spine" 0
6 "rat_r_forearm" 5
7 "rat_r_ulna" 6
8 "rat_r_paw" 7
9 "rat_r_pawtoe" 8
10 "rat_neck" 5
11 "rat_face" 10
12 "rat_nose" 11
13 "rat_l_forearm" 5
14 "rat_l_ulna" 13
15 "rat_l_paw" 14
16 "rat_l_pawtoe" 15
17 "rat_r_femur" 0
18 "rat_r_radius" 17
19 "rat_r_foot" 18
20 "rat_r_toes" 19
21 "rat_l_femur" 0
22 "rat_l_radius" 21
23 "rat_l_foot" 22
24 "rat_l_toes" 23
end
skeleton
time 0
0 0 5.80079 4.65458 1.5708 -0.0949706 -1.5708
1 -1.44506 -1.45657 0 0 0 -2.8175
2 3.15237 0 0 0 0 -0.240052
3 2.79334 0 0 0 0 -0.124805
4 3.38194 0 0 0 0 -0.0621483
5 3.86721 0 0 0 0 -0.0803737
6 3.46652 -1.90644 0.948191 -0.20366 -0.121727 -2.02866
7 1.49066 0 0 0.0130808 0.0222078 1.30462
8 1.99771 0 0 -0.00403606 -0.244275 0.725891
9 0.358219 -0.000130236 -0.000133336 -1.5708 0.000372227 -0.000364082
10 3.57113 0 0 0 0 -0.508087
11 2.11638 0 0 0 0 -0.381614
12 1.97852 0 0 0 0 0
13 3.46652 -1.90644 -0.948 0.259738 0.130175 -2.02542
14 1.49066 0 0 0.0208401 0.0222175 1.3028
15 1.9977 0 0 -0.0185452 0.275711 0.720583
16 0.358219 -0.000129908 -0.000133574 -1.58682 0.011258 -0.00450981
17 0.635818 -1.41048 1.8265 0.0371144 -0.0194185 -2.18655
18 1.5758 0 0 -0.138052 -0.0067483 0.038261
19 1.24879 0 0 0.0651605 -0.180179 1.58645
20 1.03455 0 0 0 0 0.261799
21 0.635815 -1.41048 -1.8265 -0.0360275 0.0206653 -2.15268
22 1.5758 0 0 -0.101464 0.0067319 -0.0383836
23 1.24879 0 0 0.0267399 -0.0345331 1.6313
24 1.03455 0 0 -0.00452552 0.00122019 0.261796
end
