//Sequence File generated by the Wall Worm SMD Exporter PRO 1.99
//www.wallworm.com
version 1
nodes
0 "rat_hip" -1
1 "rat_tail001" 0
2 "rat_tail002" 1
3 "rat_tail003" 2
4 "rat_tail004" 3
5 "rat_spine" 0
6 "rat_r_forearm" 5
7 "rat_r_ulna" 6
8 "rat_r_paw" 7
9 "rat_r_pawtoe" 8
10 "rat_neck" 5
11 "rat_face" 10
12 "rat_nose" 11
13 "rat_l_forearm" 5
14 "rat_l_ulna" 13
15 "rat_l_paw" 14
16 "rat_l_pawtoe" 15
17 "rat_r_femur" 0
18 "rat_r_radius" 17
19 "rat_r_foot" 18
20 "rat_r_toes" 19
21 "rat_l_femur" 0
22 "rat_l_radius" 21
23 "rat_l_foot" 22
24 "rat_l_toes" 23
end
skeleton
time 0
0 0 5.80079 4.65458 1.56249 -0.00734178 -1.48314
1 -1.44506 -1.45657 0 0 0 -2.8175
2 3.15237 0 0 0 0 -0.240052
3 2.79334 0 0 0 0 -0.124805
4 3.38194 0 0 0 0 -0.0621486
5 3.86721 0 0 -0.0317116 -0.347681 0.186995
6 3.46652 -1.90644 0.948191 -0.356535 0.109992 -2.0303
7 1.49066 0 0 0.0130807 0.0180826 0.903258
8 1.99771 0 0 -0.242946 -0.0614497 0.896959
9 0.358218 -0.000130177 -0.000133336 -1.5708 0.000372441 -0.000364162
10 3.57113 0 0 -0.205809 -0.283968 0.655899
11 2.11638 0 0 -0.0508619 -0.339535 -0.0469298
12 1.97852 0 0 0 0 0
13 3.46652 -1.90644 -0.948 0.127792 0.25535 -2.26754
14 1.49066 0 0 0.0153734 0.019926 1.04479
15 1.9977 0 0 -0.216542 0.482112 0.974473
16 0.358219 -0.000129908 -0.000133514 -1.58681 0.0112579 -0.00451008
17 0.635819 -1.41048 1.8265 0.0341841 0.0131271 -2.12004
18 1.5758 0 0 -0.138053 -0.00674837 0.038261
19 1.24879 0 0 0.0776175 -0.255645 1.60523
20 1.03455 0 0 0 0 0.261799
21 0.635816 -1.41048 -1.8265 -0.0334789 0.00884021 -1.67129
22 1.5758 0 0 -0.147974 0.118741 -0.747854
23 1.24879 0 0 -0.0538105 -0.100603 1.95239
24 1.03455 0 0 -0.00452552 0.00122019 0.261796
end
