//Sequence File generated by the Wall Worm SMD Exporter PRO 1.99
//www.wallworm.com
version 1
nodes
0 "rat_hip" -1
1 "rat_tail001" 0
2 "rat_tail002" 1
3 "rat_tail003" 2
4 "rat_tail004" 3
5 "rat_spine" 0
6 "rat_r_forearm" 5
7 "rat_r_ulna" 6
8 "rat_r_paw" 7
9 "rat_r_pawtoe" 8
10 "rat_neck" 5
11 "rat_face" 10
12 "rat_nose" 11
13 "rat_l_forearm" 5
14 "rat_l_ulna" 13
15 "rat_l_paw" 14
16 "rat_l_pawtoe" 15
17 "rat_r_femur" 0
18 "rat_r_radius" 17
19 "rat_r_foot" 18
20 "rat_r_toes" 19
21 "rat_l_femur" 0
22 "rat_l_radius" 21
23 "rat_l_foot" 22
24 "rat_l_toes" 23
end
skeleton
time 0
0 0 5.80079 4.65458 1.56249 -0.181875 -1.48314
1 -1.44506 -1.45657 0 0 0 -2.8175
2 3.15237 0 0 0 0 -0.240052
3 2.79335 0 0 0 0 -0.124805
4 3.38194 0 0 0 0 -0.0621485
5 3.8672 0 0 0.0939253 -0.336691 -0.183615
6 3.46652 -1.90644 0.948191 -0.271099 0.0383598 -1.72928
7 1.49066 0 0 0.0130806 0.0178632 0.888294
8 1.99771 0 0 -0.183205 -0.0178112 0.805088
9 0.358218 -0.000130177 -0.000133336 -1.5708 0.000372291 -0.000364142
10 3.57113 0 0 0.152624 -0.315167 -0.445118
11 2.11638 0 0 0.0112813 -0.342999 -0.232137
12 1.97852 0 0 0 0 0
13 3.46652 -1.90644 -0.948 0.22409 0.165613 -1.88155
14 1.49066 0 0 0.0130332 0.0183694 0.922722
15 1.9977 0 0 -0.199006 0.498837 0.910619
16 0.358219 -0.000129908 -0.000133634 -1.58682 0.0112579 -0.00450983
17 0.635818 -1.41048 1.8265 0.0391398 0.0119457 -2.33803
18 1.5758 0 0 -0.138052 -0.00674795 0.038261
19 1.24879 0 0 0.074006 -0.249163 1.64945
20 1.03455 0 0 0 0 0.261799
21 0.635816 -1.41048 -1.8265 -0.0345884 0.0492704 -2.23147
22 1.5758 0 0 -0.101335 0 0
23 1.24879 0 0 0.0551773 -0.106678 1.58882
24 1.03455 0 0 -0.00452573 0.0012204 0.261796
end
