//Sequence File generated by the Wall Worm SMD Exporter PRO 1.99
//www.wallworm.com
version 1
nodes
0 "rat_hip" -1
1 "rat_tail001" 0
2 "rat_tail002" 1
3 "rat_tail003" 2
4 "rat_tail004" 3
5 "rat_spine" 0
6 "rat_r_forearm" 5
7 "rat_r_ulna" 6
8 "rat_r_paw" 7
9 "rat_r_pawtoe" 8
10 "rat_neck" 5
11 "rat_face" 10
12 "rat_nose" 11
13 "rat_l_forearm" 5
14 "rat_l_ulna" 13
15 "rat_l_paw" 14
16 "rat_l_pawtoe" 15
17 "rat_r_femur" 0
18 "rat_r_radius" 17
19 "rat_r_foot" 18
20 "rat_r_toes" 19
21 "rat_l_femur" 0
22 "rat_l_radius" 21
23 "rat_l_foot" 22
24 "rat_l_toes" 23
end
skeleton
time 0
0 0 5.80079 4.65458 1.56249 -0.181875 -1.65846
1 -1.44506 -1.45657 0 0 0 -2.8175
2 3.15237 0 0 0 0 -0.240052
3 2.79335 0 0 0 0 -0.124805
4 3.38194 0 0 0 0 -0.0621485
5 3.86721 0 0 -0.0766115 0.339676 -0.177871
6 3.46652 -1.90644 0.948191 -0.180932 -0.167944 -1.88281
7 1.49066 0 0 0.0130807 0.0184052 0.925302
8 1.99771 0 0 0.182412 -0.470377 0.919429
9 0.358219 -0.000130177 -0.000133395 -1.5708 0.000372442 -0.000364208
10 3.57113 0 0 -0.152624 0.315168 -0.445118
11 2.11638 0 0 -0.0112809 0.342999 -0.232138
12 1.97852 0 0 0 0 0
13 3.46652 -1.90644 -0.948 0.336301 -0.0286541 -1.72434
14 1.49066 0 0 0.0123531 0.0178341 0.885145
15 1.9977 0 0 0.153171 0.065451 0.806557
16 0.358218 -0.000129908 -0.000133634 -1.58682 0.0112582 -0.00450993
17 0.635818 -1.41048 1.8265 0.0387126 -0.0243963 -2.24176
18 1.5758 0 0 -0.138052 -0.00674788 0.0382611
19 1.24879 0 0 0.0402983 -0.0945347 1.55839
20 1.03455 0 0 0 0 0.261799
21 0.635816 -1.41048 -1.8265 -0.0341513 0.0117613 -2.32891
22 1.5758 0 0 -0.101335 0 -0.000340764
23 1.24879 0 0 0.00172773 0.0518163 1.67701
24 1.03455 0 0 -0.00452558 0.00122019 0.261796
end
