//Sequence File generated by the Wall Worm SMD Exporter PRO 1.99
//www.wallworm.com
version 1
nodes
0 "rat_hip" -1
1 "rat_tail001" 0
2 "rat_tail002" 1
3 "rat_tail003" 2
4 "rat_tail004" 3
5 "rat_spine" 0
6 "rat_r_forearm" 5
7 "rat_r_ulna" 6
8 "rat_r_paw" 7
9 "rat_r_pawtoe" 8
10 "rat_neck" 5
11 "rat_face" 10
12 "rat_nose" 11
13 "rat_l_forearm" 5
14 "rat_l_ulna" 13
15 "rat_l_paw" 14
16 "rat_l_pawtoe" 15
17 "rat_r_femur" 0
18 "rat_r_radius" 17
19 "rat_r_foot" 18
20 "rat_r_toes" 19
21 "rat_l_femur" 0
22 "rat_l_radius" 21
23 "rat_l_foot" 22
24 "rat_l_toes" 23
end
skeleton
time 0
0 0 6.66537 2.96565 1.5708 -0.827187 -1.5708
1 -1.69177 -0.760828 0 0 0 2.58729
2 3.15237 0 0 0 0 -0.240052
3 2.79335 0 0 0 0 -0.124805
4 3.38194 0 0 0 0 -0.0621485
5 3.86721 0 0 0 0 0.0941591
6 3.46652 -1.90644 0.948191 0.0652891 -0.29281 2.91638
7 1.49066 0 0 0.0130807 0.0192711 2.15057
8 1.99771 0 0 0.491467 0.106433 -0.298521
9 0.358219 -0.000130177 -0.000133395 -1.5708 0.00037244 -0.328895
10 3.57113 0 0 0 0 -0.519694
11 2.11638 0 0 0 0 -0.294347
12 1.97852 0 0 0 0 0
13 3.46652 -1.90644 -0.948 -0.0220175 0.250222 2.91739
14 1.49066 0 0 0.0396062 0.0192467 2.15288
15 1.9977 0 0 -0.408536 -0.103663 -0.309632
16 0.358219 -0.000130177 -0.000133514 -1.58959 0.0054867 -0.333002
17 0.635817 -1.41048 1.8265 0.125233 0.0183227 -1.86714
18 1.5758 0 0 -0.138052 0.16951 -1.82304
19 1.24879 0 0 -0.291769 0.00704645 2.39508
20 1.03455 0 0 0 0 0.261799
21 0.635816 -1.41048 -1.8265 -0.274572 -0.303372 -1.80208
22 1.5758 0 0 -0.319245 0.167983 -1.82968
23 1.24879 0 0 0.104929 0.12021 2.36153
24 1.03455 0 0 -0.00452576 0.00121998 0.261796
time 1
0 0 6.66537 2.96565 1.5708 -0.827187 -1.5708
1 -1.69177 -0.760828 0 0 0 2.58729
2 3.15237 0 0 0 0 -0.240052
3 2.79335 0 0 0 0 -0.124805
4 3.38194 0 0 0 0 -0.0621485
5 3.86721 0 0 0 0 0.0941591
6 3.46652 -1.90644 0.948191 0.0652891 -0.29281 2.91638
7 1.49066 0 0 0.0130807 0.0192711 2.15057
8 1.99771 0 0 0.491467 0.106433 -0.298521
9 0.358219 -0.000130177 -0.000133395 -1.5708 0.00037244 -0.328895
10 3.57113 0 0 0 0 -0.519694
11 2.11638 0 0 0 0 -0.294347
12 1.97852 0 0 0 0 0
13 3.46652 -1.90644 -0.948 -0.0220175 0.250222 2.91739
14 1.49066 0 0 0.0396062 0.0192467 2.15288
15 1.9977 0 0 -0.408536 -0.103663 -0.309632
16 0.358219 -0.000130177 -0.000133514 -1.58959 0.0054867 -0.333002
17 0.635817 -1.41048 1.8265 0.125233 0.0183227 -1.86714
18 1.5758 0 0 -0.138052 0.16951 -1.82304
19 1.24879 0 0 -0.291769 0.00704645 2.39508
20 1.03455 0 0 0 0 0.261799
21 0.635816 -1.41048 -1.8265 -0.274572 -0.303372 -1.80208
22 1.5758 0 0 -0.319245 0.167983 -1.82968
23 1.24879 0 0 0.104929 0.12021 2.36153
24 1.03455 0 0 -0.00452576 0.00121998 0.261796
time 2
0 0 6.66537 2.96565 1.5708 -0.827187 -1.5708
1 -1.69177 -0.760828 0 0 0 2.58729
2 3.15237 0 0 0 0 -0.240052
3 2.79335 0 0 0 0 -0.124805
4 3.38194 0 0 0 0 -0.0621485
5 3.86721 0 0 0 0 0.0941591
6 3.46652 -1.90644 0.948191 0.0652891 -0.29281 2.91638
7 1.49066 0 0 0.0130807 0.0192711 2.15057
8 1.99771 0 0 0.491467 0.106433 -0.298521
9 0.358219 -0.000130177 -0.000133395 -1.5708 0.00037244 -0.328895
10 3.57113 0 0 0 0 -0.519694
11 2.11638 0 0 0 0 -0.294347
12 1.97852 0 0 0 0 0
13 3.46652 -1.90644 -0.948 -0.0220175 0.250222 2.91739
14 1.49066 0 0 0.0396062 0.0192467 2.15288
15 1.9977 0 0 -0.408536 -0.103663 -0.309632
16 0.358219 -0.000130177 -0.000133514 -1.58959 0.0054867 -0.333002
17 0.635817 -1.41048 1.8265 0.125233 0.0183227 -1.86714
18 1.5758 0 0 -0.138052 0.16951 -1.82304
19 1.24879 0 0 -0.291769 0.00704645 2.39508
20 1.03455 0 0 0 0 0.261799
21 0.635816 -1.41048 -1.8265 -0.274572 -0.303372 -1.80208
22 1.5758 0 0 -0.319245 0.167983 -1.82968
23 1.24879 0 0 0.104929 0.12021 2.36153
24 1.03455 0 0 -0.00452576 0.00121998 0.261796
time 3
0 0 6.66537 2.96565 1.5708 -0.827187 -1.5708
1 -1.69177 -0.760828 0 0 0 2.58729
2 3.15237 0 0 0 0 -0.240052
3 2.79335 0 0 0 0 -0.124805
4 3.38194 0 0 0 0 -0.0621485
5 3.86721 0 0 0 0 0.0941591
6 3.46652 -1.90644 0.948191 0.0652891 -0.29281 2.91638
7 1.49066 0 0 0.0130807 0.0192711 2.15057
8 1.99771 0 0 0.491467 0.106433 -0.298521
9 0.358219 -0.000130177 -0.000133395 -1.5708 0.00037244 -0.328895
10 3.57113 0 0 0 0 -0.519694
11 2.11638 0 0 0 0 -0.294347
12 1.97852 0 0 0 0 0
13 3.46652 -1.90644 -0.948 -0.0220175 0.250222 2.91739
14 1.49066 0 0 0.0396062 0.0192467 2.15288
15 1.9977 0 0 -0.408536 -0.103663 -0.309632
16 0.358219 -0.000130177 -0.000133514 -1.58959 0.0054867 -0.333002
17 0.635817 -1.41048 1.8265 0.125233 0.0183227 -1.86714
18 1.5758 0 0 -0.138052 0.16951 -1.82304
19 1.24879 0 0 -0.291769 0.00704645 2.39508
20 1.03455 0 0 0 0 0.261799
21 0.635816 -1.41048 -1.8265 -0.274572 -0.303372 -1.80208
22 1.5758 0 0 -0.319245 0.167983 -1.82968
23 1.24879 0 0 0.104929 0.12021 2.36153
24 1.03455 0 0 -0.00452576 0.00121998 0.261796
time 4
0 0 6.66537 2.96565 1.5708 -0.827187 -1.5708
1 -1.69177 -0.760828 0 0 0 2.58729
2 3.15237 0 0 0 0 -0.240052
3 2.79335 0 0 0 0 -0.124805
4 3.38194 0 0 0 0 -0.0621485
5 3.86721 0 0 0 0 0.0941591
6 3.46652 -1.90644 0.948191 0.0652891 -0.29281 2.91638
7 1.49066 0 0 0.0130807 0.0192711 2.15057
8 1.99771 0 0 0.491467 0.106433 -0.298521
9 0.358219 -0.000130177 -0.000133395 -1.5708 0.00037244 -0.328895
10 3.57113 0 0 0 0 -0.519694
11 2.11638 0 0 0 0 -0.294347
12 1.97852 0 0 0 0 0
13 3.46652 -1.90644 -0.948 -0.0220175 0.250222 2.91739
14 1.49066 0 0 0.0396062 0.0192467 2.15288
15 1.9977 0 0 -0.408536 -0.103663 -0.309632
16 0.358219 -0.000130177 -0.000133514 -1.58959 0.0054867 -0.333002
17 0.635817 -1.41048 1.8265 0.125233 0.0183227 -1.86714
18 1.5758 0 0 -0.138052 0.16951 -1.82304
19 1.24879 0 0 -0.291769 0.00704645 2.39508
20 1.03455 0 0 0 0 0.261799
21 0.635816 -1.41048 -1.8265 -0.274572 -0.303372 -1.80208
22 1.5758 0 0 -0.319245 0.167983 -1.82968
23 1.24879 0 0 0.104929 0.12021 2.36153
24 1.03455 0 0 -0.00452576 0.00121998 0.261796
time 5
0 0 6.66537 2.96565 1.5708 -0.827187 -1.5708
1 -1.69177 -0.760828 0 0 0 2.58729
2 3.15237 0 0 0 0 -0.240052
3 2.79335 0 0 0 0 -0.124805
4 3.38194 0 0 0 0 -0.0621485
5 3.86721 0 0 0 0 0.0941591
6 3.46652 -1.90644 0.948191 0.0652891 -0.29281 2.91638
7 1.49066 0 0 0.0130807 0.0192711 2.15057
8 1.99771 0 0 0.491467 0.106433 -0.298521
9 0.358219 -0.000130177 -0.000133395 -1.5708 0.00037244 -0.328895
10 3.57113 0 0 0 0 -0.519694
11 2.11638 0 0 0 0 -0.294347
12 1.97852 0 0 0 0 0
13 3.46652 -1.90644 -0.948 -0.0220175 0.250222 2.91739
14 1.49066 0 0 0.0396062 0.0192467 2.15288
15 1.9977 0 0 -0.408536 -0.103663 -0.309632
16 0.358219 -0.000130177 -0.000133514 -1.58959 0.0054867 -0.333002
17 0.635817 -1.41048 1.8265 0.125233 0.0183227 -1.86714
18 1.5758 0 0 -0.138052 0.16951 -1.82304
19 1.24879 0 0 -0.291769 0.00704645 2.39508
20 1.03455 0 0 0 0 0.261799
21 0.635816 -1.41048 -1.8265 -0.274572 -0.303372 -1.80208
22 1.5758 0 0 -0.319245 0.167983 -1.82968
23 1.24879 0 0 0.104929 0.12021 2.36153
24 1.03455 0 0 -0.00452576 0.00121998 0.261796
time 6
0 0 6.66537 2.96565 1.5708 -0.827187 -1.5708
1 -1.69177 -0.760828 0 0 0 2.58729
2 3.15237 0 0 0 0 -0.240052
3 2.79335 0 0 0 0 -0.124805
4 3.38194 0 0 0 0 -0.0621485
5 3.86721 0 0 0 0 0.0941591
6 3.46652 -1.90644 0.948191 0.0652891 -0.29281 2.91638
7 1.49066 0 0 0.0130807 0.0192711 2.15057
8 1.99771 0 0 0.491467 0.106433 -0.298521
9 0.358219 -0.000130177 -0.000133395 -1.5708 0.00037244 -0.328895
10 3.57113 0 0 0 0 -0.519694
11 2.11638 0 0 0 0 -0.294347
12 1.97852 0 0 0 0 0
13 3.46652 -1.90644 -0.948 -0.0220175 0.250222 2.91739
14 1.49066 0 0 0.0396062 0.0192467 2.15288
15 1.9977 0 0 -0.408536 -0.103663 -0.309632
16 0.358219 -0.000130177 -0.000133514 -1.58959 0.0054867 -0.333002
17 0.635817 -1.41048 1.8265 0.125233 0.0183227 -1.86714
18 1.5758 0 0 -0.138052 0.16951 -1.82304
19 1.24879 0 0 -0.291769 0.00704645 2.39508
20 1.03455 0 0 0 0 0.261799
21 0.635816 -1.41048 -1.8265 -0.274572 -0.303372 -1.80208
22 1.5758 0 0 -0.319245 0.167983 -1.82968
23 1.24879 0 0 0.104929 0.12021 2.36153
24 1.03455 0 0 -0.00452576 0.00121998 0.261796
time 7
0 0 6.66537 2.96565 1.5708 -0.827187 -1.5708
1 -1.69177 -0.760828 0 0 0 2.58729
2 3.15237 0 0 0 0 -0.240052
3 2.79335 0 0 0 0 -0.124805
4 3.38194 0 0 0 0 -0.0621485
5 3.86721 0 0 0 0 0.0941591
6 3.46652 -1.90644 0.948191 0.0652891 -0.29281 2.91638
7 1.49066 0 0 0.0130807 0.0192711 2.15057
8 1.99771 0 0 0.491467 0.106433 -0.298521
9 0.358219 -0.000130177 -0.000133395 -1.5708 0.00037244 -0.328895
10 3.57113 0 0 0 0 -0.519694
11 2.11638 0 0 0 0 -0.294347
12 1.97852 0 0 0 0 0
13 3.46652 -1.90644 -0.948 -0.0220175 0.250222 2.91739
14 1.49066 0 0 0.0396062 0.0192467 2.15288
15 1.9977 0 0 -0.408536 -0.103663 -0.309632
16 0.358219 -0.000130177 -0.000133514 -1.58959 0.0054867 -0.333002
17 0.635817 -1.41048 1.8265 0.125233 0.0183227 -1.86714
18 1.5758 0 0 -0.138052 0.16951 -1.82304
19 1.24879 0 0 -0.291769 0.00704645 2.39508
20 1.03455 0 0 0 0 0.261799
21 0.635816 -1.41048 -1.8265 -0.274572 -0.303372 -1.80208
22 1.5758 0 0 -0.319245 0.167983 -1.82968
23 1.24879 0 0 0.104929 0.12021 2.36153
24 1.03455 0 0 -0.00452576 0.00121998 0.261796
time 8
0 0 6.66537 2.96565 1.5708 -0.827187 -1.5708
1 -1.69177 -0.760828 0 0 0 2.58729
2 3.15237 0 0 0 0 -0.240052
3 2.79335 0 0 0 0 -0.124805
4 3.38194 0 0 0 0 -0.0621485
5 3.86721 0 0 0 0 0.0941591
6 3.46652 -1.90644 0.948191 0.0652891 -0.29281 2.91638
7 1.49066 0 0 0.0130807 0.0192711 2.15057
8 1.99771 0 0 0.491467 0.106433 -0.298521
9 0.358219 -0.000130177 -0.000133395 -1.5708 0.00037244 -0.328895
10 3.57113 0 0 0 0 -0.519694
11 2.11638 0 0 0 0 -0.294347
12 1.97852 0 0 0 0 0
13 3.46652 -1.90644 -0.948 -0.0220175 0.250222 2.91739
14 1.49066 0 0 0.0396062 0.0192467 2.15288
15 1.9977 0 0 -0.408536 -0.103663 -0.309632
16 0.358219 -0.000130177 -0.000133514 -1.58959 0.0054867 -0.333002
17 0.635817 -1.41048 1.8265 0.125233 0.0183227 -1.86714
18 1.5758 0 0 -0.138052 0.16951 -1.82304
19 1.24879 0 0 -0.291769 0.00704645 2.39508
20 1.03455 0 0 0 0 0.261799
21 0.635816 -1.41048 -1.8265 -0.274572 -0.303372 -1.80208
22 1.5758 0 0 -0.319245 0.167983 -1.82968
23 1.24879 0 0 0.104929 0.12021 2.36153
24 1.03455 0 0 -0.00452576 0.00121998 0.261796
time 9
0 0 6.66537 2.96565 1.5708 -0.827187 -1.5708
1 -1.69177 -0.760828 0 0 0 2.58729
2 3.15237 0 0 0 0 -0.240052
3 2.79335 0 0 0 0 -0.124805
4 3.38194 0 0 0 0 -0.0621485
5 3.86721 0 0 0 0 0.0941591
6 3.46652 -1.90644 0.948191 0.0652891 -0.29281 2.91638
7 1.49066 0 0 0.0130807 0.0192711 2.15057
8 1.99771 0 0 0.491467 0.106433 -0.298521
9 0.358219 -0.000130177 -0.000133395 -1.5708 0.00037244 -0.328895
10 3.57113 0 0 0 0 -0.519694
11 2.11638 0 0 0 0 -0.294347
12 1.97852 0 0 0 0 0
13 3.46652 -1.90644 -0.948 -0.0220175 0.250222 2.91739
14 1.49066 0 0 0.0396062 0.0192467 2.15288
15 1.9977 0 0 -0.408536 -0.103663 -0.309632
16 0.358219 -0.000130177 -0.000133514 -1.58959 0.0054867 -0.333002
17 0.635817 -1.41048 1.8265 0.125233 0.0183227 -1.86714
18 1.5758 0 0 -0.138052 0.16951 -1.82304
19 1.24879 0 0 -0.291769 0.00704645 2.39508
20 1.03455 0 0 0 0 0.261799
21 0.635816 -1.41048 -1.8265 -0.274572 -0.303372 -1.80208
22 1.5758 0 0 -0.319245 0.167983 -1.82968
23 1.24879 0 0 0.104929 0.12021 2.36153
24 1.03455 0 0 -0.00452576 0.00121998 0.261796
time 10
0 0 6.66537 2.96565 1.5708 -0.827187 -1.5708
1 -1.69177 -0.760828 0 0 0 2.58729
2 3.15237 0 0 0 0 -0.240052
3 2.79335 0 0 0 0 -0.124805
4 3.38194 0 0 0 0 -0.0621485
5 3.86721 0 0 0 0 0.0941591
6 3.46652 -1.90644 0.948191 0.0652891 -0.29281 2.91638
7 1.49066 0 0 0.0130807 0.0192711 2.15057
8 1.99771 0 0 0.491467 0.106433 -0.298521
9 0.358219 -0.000130177 -0.000133395 -1.5708 0.00037244 -0.328895
10 3.57113 0 0 0 0 -0.519694
11 2.11638 0 0 0 0 -0.294347
12 1.97852 0 0 0 0 0
13 3.46652 -1.90644 -0.948 -0.0220175 0.250222 2.91739
14 1.49066 0 0 0.0396062 0.0192467 2.15288
15 1.9977 0 0 -0.408536 -0.103663 -0.309632
16 0.358219 -0.000130177 -0.000133514 -1.58959 0.0054867 -0.333002
17 0.635817 -1.41048 1.8265 0.125233 0.0183227 -1.86714
18 1.5758 0 0 -0.138052 0.16951 -1.82304
19 1.24879 0 0 -0.291769 0.00704645 2.39508
20 1.03455 0 0 0 0 0.261799
21 0.635816 -1.41048 -1.8265 -0.274572 -0.303372 -1.80208
22 1.5758 0 0 -0.319245 0.167983 -1.82968
23 1.24879 0 0 0.104929 0.12021 2.36153
24 1.03455 0 0 -0.00452576 0.00121998 0.261796
end
