//Sequence File generated by the Wall Worm SMD Exporter PRO 1.99
//www.wallworm.com
version 1
nodes
0 "rat_hip" -1
1 "rat_spine" 0
2 "rat_r_forearm" 1
3 "rat_r_ulna" 2
4 "rat_r_paw" 3
5 "rat_r_pawtoe" 4
6 "rat_neck" 1
7 "rat_face" 6
8 "rat_nose" 7
9 "rat_r_femur" 0
10 "rat_r_radius" 9
11 "rat_r_foot" 10
12 "rat_r_toes" 11
13 "rat_l_femur" -1
14 "rat_l_foot" -1
15 "rat_l_forearm" -1
16 "rat_l_paw" -1
17 "rat_l_pawtoe" -1
18 "rat_l_radius" -1
19 "rat_l_toes" -1
20 "rat_l_ulna" -1
21 "rat_tail001" -1
22 "rat_tail002" 21
23 "rat_tail003" 22
24 "rat_tail004" 23
end
skeleton
time 0
0 0 5.80079 4.65458 1.5708 -0.0949707 -1.5708
1 3.86721 0 0 0 0 0.0941592
2 3.46652 -1.90644 0.948191 -0.257504 -0.0366411 -1.91387
3 1.49066 0 0 0.0130807 0.0125568 0.576236
4 1.99771 0 0 -0.0216077 -0.25346 1.15866
5 0.358219 -0.000130117 -0.000133336 -1.5708 0.000372345 -0.000364161
6 3.57113 0 0 0 0 0.015512
7 2.11638 0 0 0 0 -0.294347
8 1.97852 0 0 0 0 0
9 0.635818 -1.41048 1.8265 0.0371144 -0.019419 -2.18655
10 1.5758 0 0 -0.138052 -0.00674848 0.0382611
11 1.24879 0 0 0.0651613 -0.180179 1.58645
12 1.03455 0 0 0 0 0.2618
13 1.8265 5.03409 3.31075 -1.64136 1.04969 1.53177
14 1.89152 6.39752 0.838472 1.67789 0.459407 -1.4571
15 0.948001 -1.81211 3.80052 -1.54471 1.4127 1.33618
16 0.762237 -2.35933 0.503161 1.5708 0 -1.5708
17 0.76237 -2.71755 0.503031 0 0.00036484 -1.5708
18 1.85711 5.81799 1.94412 -1.52122 1.08729 1.51149
19 1.99673 5.47622 0.379738 1.66869 0.198964 -1.48532
20 1.00256 -1.58385 2.32845 1.51937 1.15228 -1.87131
21 0 7.10122 3.06755 -1.5708 0.419067 1.5708
22 3.15237 0 0 0 0 -0.240052
23 2.79335 0 0 0 0 -0.124805
24 3.38194 0 0 0 0 -0.0621484
time 1
0 0 5.80079 4.65458 1.5708 -0.0949707 -1.5708
1 3.86721 0 0 0 0 0.0941592
2 3.46652 -1.90644 0.948191 -0.257504 -0.0366411 -1.91387
3 1.49066 0 0 0.0130807 0.0125568 0.576236
4 1.99771 0 0 -0.0216077 -0.25346 1.15866
5 0.358219 -0.000130117 -0.000133336 -1.5708 0.000372345 -0.000364161
6 3.57113 0 0 0 0 0.015512
7 2.11638 0 0 0 0 -0.294347
8 1.97852 0 0 0 0 0
9 0.635818 -1.41048 1.8265 0.0371144 -0.019419 -2.18655
10 1.5758 0 0 -0.138052 -0.00674848 0.0382611
11 1.24879 0 0 0.0651613 -0.180179 1.58645
12 1.03455 0 0 0 0 0.2618
13 1.8265 5.03409 3.31075 -1.64136 1.04969 1.53177
14 1.89152 6.39752 0.838472 1.67789 0.459407 -1.4571
15 0.948001 -1.81211 3.80052 -1.54471 1.4127 1.33618
16 0.762237 -2.35933 0.503161 1.5708 0 -1.5708
17 0.76237 -2.71755 0.503031 0 0.00036484 -1.5708
18 1.85711 5.81799 1.94412 -1.52122 1.08729 1.51149
19 1.99673 5.47622 0.379738 1.66869 0.198964 -1.48532
20 1.00256 -1.58385 2.32845 1.51937 1.15228 -1.87131
21 0 7.10122 3.06755 -1.5708 0.419067 1.5708
22 3.15237 0 0 0 0 -0.240052
23 2.79335 0 0 0 0 -0.124805
24 3.38194 0 0 0 0 -0.0621484
time 2
0 0 5.80079 4.65458 1.5708 -0.0949707 -1.5708
1 3.86721 0 0 0 0 0.0941592
2 3.46652 -1.90644 0.948191 -0.257504 -0.0366411 -1.91387
3 1.49066 0 0 0.0130807 0.0125568 0.576236
4 1.99771 0 0 -0.0216077 -0.25346 1.15866
5 0.358219 -0.000130117 -0.000133336 -1.5708 0.000372345 -0.000364161
6 3.57113 0 0 0 0 0.015512
7 2.11638 0 0 0 0 -0.294347
8 1.97852 0 0 0 0 0
9 0.635818 -1.41048 1.8265 0.0371144 -0.019419 -2.18655
10 1.5758 0 0 -0.138052 -0.00674848 0.0382611
11 1.24879 0 0 0.0651613 -0.180179 1.58645
12 1.03455 0 0 0 0 0.2618
13 1.8265 5.03409 3.31075 -1.64136 1.04969 1.53177
14 1.89152 6.39752 0.838472 1.67789 0.459407 -1.4571
15 0.948001 -1.81211 3.80052 -1.54471 1.4127 1.33618
16 0.762237 -2.35933 0.503161 1.5708 0 -1.5708
17 0.76237 -2.71755 0.503031 0 0.00036484 -1.5708
18 1.85711 5.81799 1.94412 -1.52122 1.08729 1.51149
19 1.99673 5.47622 0.379738 1.66869 0.198964 -1.48532
20 1.00256 -1.58385 2.32845 1.51937 1.15228 -1.87131
21 0 7.10122 3.06755 -1.5708 0.419067 1.5708
22 3.15237 0 0 0 0 -0.240052
23 2.79335 0 0 0 0 -0.124805
24 3.38194 0 0 0 0 -0.0621484
time 3
0 0 5.80079 4.65458 1.5708 -0.0949707 -1.5708
1 3.86721 0 0 0 0 0.0941592
2 3.46652 -1.90644 0.948191 -0.257504 -0.0366411 -1.91387
3 1.49066 0 0 0.0130807 0.0125568 0.576236
4 1.99771 0 0 -0.0216077 -0.25346 1.15866
5 0.358219 -0.000130117 -0.000133336 -1.5708 0.000372345 -0.000364161
6 3.57113 0 0 0 0 0.015512
7 2.11638 0 0 0 0 -0.294347
8 1.97852 0 0 0 0 0
9 0.635818 -1.41048 1.8265 0.0371144 -0.019419 -2.18655
10 1.5758 0 0 -0.138052 -0.00674848 0.0382611
11 1.24879 0 0 0.0651613 -0.180179 1.58645
12 1.03455 0 0 0 0 0.2618
13 1.8265 5.03409 3.31075 -1.64136 1.04969 1.53177
14 1.89152 6.39752 0.838472 1.67789 0.459407 -1.4571
15 0.948001 -1.81211 3.80052 -1.54471 1.4127 1.33618
16 0.762237 -2.35933 0.503161 1.5708 0 -1.5708
17 0.76237 -2.71755 0.503031 0 0.00036484 -1.5708
18 1.85711 5.81799 1.94412 -1.52122 1.08729 1.51149
19 1.99673 5.47622 0.379738 1.66869 0.198964 -1.48532
20 1.00256 -1.58385 2.32845 1.51937 1.15228 -1.87131
21 0 7.10122 3.06755 -1.5708 0.419067 1.5708
22 3.15237 0 0 0 0 -0.240052
23 2.79335 0 0 0 0 -0.124805
24 3.38194 0 0 0 0 -0.0621484
time 4
0 0 5.80079 4.65458 1.5708 -0.0949707 -1.5708
1 3.86721 0 0 0 0 0.0941592
2 3.46652 -1.90644 0.948191 -0.257504 -0.0366411 -1.91387
3 1.49066 0 0 0.0130807 0.0125568 0.576236
4 1.99771 0 0 -0.0216077 -0.25346 1.15866
5 0.358219 -0.000130117 -0.000133336 -1.5708 0.000372345 -0.000364161
6 3.57113 0 0 0 0 0.015512
7 2.11638 0 0 0 0 -0.294347
8 1.97852 0 0 0 0 0
9 0.635818 -1.41048 1.8265 0.0371144 -0.019419 -2.18655
10 1.5758 0 0 -0.138052 -0.00674848 0.0382611
11 1.24879 0 0 0.0651613 -0.180179 1.58645
12 1.03455 0 0 0 0 0.2618
13 1.8265 5.03409 3.31075 -1.64136 1.04969 1.53177
14 1.89152 6.39752 0.838472 1.67789 0.459407 -1.4571
15 0.948001 -1.81211 3.80052 -1.54471 1.4127 1.33618
16 0.762237 -2.35933 0.503161 1.5708 0 -1.5708
17 0.76237 -2.71755 0.503031 0 0.00036484 -1.5708
18 1.85711 5.81799 1.94412 -1.52122 1.08729 1.51149
19 1.99673 5.47622 0.379738 1.66869 0.198964 -1.48532
20 1.00256 -1.58385 2.32845 1.51937 1.15228 -1.87131
21 0 7.10122 3.06755 -1.5708 0.419067 1.5708
22 3.15237 0 0 0 0 -0.240052
23 2.79335 0 0 0 0 -0.124805
24 3.38194 0 0 0 0 -0.0621484
time 5
0 0 5.80079 4.65458 1.5708 -0.0949707 -1.5708
1 3.86721 0 0 0 0 0.0941592
2 3.46652 -1.90644 0.948191 -0.257504 -0.0366411 -1.91387
3 1.49066 0 0 0.0130807 0.0125568 0.576236
4 1.99771 0 0 -0.0216077 -0.25346 1.15866
5 0.358219 -0.000130117 -0.000133336 -1.5708 0.000372345 -0.000364161
6 3.57113 0 0 0 0 0.015512
7 2.11638 0 0 0 0 -0.294347
8 1.97852 0 0 0 0 0
9 0.635818 -1.41048 1.8265 0.0371144 -0.019419 -2.18655
10 1.5758 0 0 -0.138052 -0.00674848 0.0382611
11 1.24879 0 0 0.0651613 -0.180179 1.58645
12 1.03455 0 0 0 0 0.2618
13 1.8265 5.03409 3.31075 -1.64136 1.04969 1.53177
14 1.89152 6.39752 0.838472 1.67789 0.459407 -1.4571
15 0.948001 -1.81211 3.80052 -1.54471 1.4127 1.33618
16 0.762237 -2.35933 0.503161 1.5708 0 -1.5708
17 0.76237 -2.71755 0.503031 0 0.00036484 -1.5708
18 1.85711 5.81799 1.94412 -1.52122 1.08729 1.51149
19 1.99673 5.47622 0.379738 1.66869 0.198964 -1.48532
20 1.00256 -1.58385 2.32845 1.51937 1.15228 -1.87131
21 0 7.10122 3.06755 -1.5708 0.419067 1.5708
22 3.15237 0 0 0 0 -0.240052
23 2.79335 0 0 0 0 -0.124805
24 3.38194 0 0 0 0 -0.0621484
time 6
0 0 5.80079 4.65458 1.5708 -0.0949707 -1.5708
1 3.86721 0 0 0 0 0.0941592
2 3.46652 -1.90644 0.948191 -0.257504 -0.0366411 -1.91387
3 1.49066 0 0 0.0130807 0.0125568 0.576236
4 1.99771 0 0 -0.0216077 -0.25346 1.15866
5 0.358219 -0.000130117 -0.000133336 -1.5708 0.000372345 -0.000364161
6 3.57113 0 0 0 0 0.015512
7 2.11638 0 0 0 0 -0.294347
8 1.97852 0 0 0 0 0
9 0.635818 -1.41048 1.8265 0.0371144 -0.019419 -2.18655
10 1.5758 0 0 -0.138052 -0.00674848 0.0382611
11 1.24879 0 0 0.0651613 -0.180179 1.58645
12 1.03455 0 0 0 0 0.2618
13 1.8265 5.03409 3.31075 -1.64136 1.04969 1.53177
14 1.89152 6.39752 0.838472 1.67789 0.459407 -1.4571
15 0.948001 -1.81211 3.80052 -1.54471 1.4127 1.33618
16 0.762237 -2.35933 0.503161 1.5708 0 -1.5708
17 0.76237 -2.71755 0.503031 0 0.00036484 -1.5708
18 1.85711 5.81799 1.94412 -1.52122 1.08729 1.51149
19 1.99673 5.47622 0.379738 1.66869 0.198964 -1.48532
20 1.00256 -1.58385 2.32845 1.51937 1.15228 -1.87131
21 0 7.10122 3.06755 -1.5708 0.419067 1.5708
22 3.15237 0 0 0 0 -0.240052
23 2.79335 0 0 0 0 -0.124805
24 3.38194 0 0 0 0 -0.0621484
time 7
0 0 5.80079 4.65458 1.5708 -0.0949707 -1.5708
1 3.86721 0 0 0 0 0.0941592
2 3.46652 -1.90644 0.948191 -0.257504 -0.0366411 -1.91387
3 1.49066 0 0 0.0130807 0.0125568 0.576236
4 1.99771 0 0 -0.0216077 -0.25346 1.15866
5 0.358219 -0.000130117 -0.000133336 -1.5708 0.000372345 -0.000364161
6 3.57113 0 0 0 0 0.015512
7 2.11638 0 0 0 0 -0.294347
8 1.97852 0 0 0 0 0
9 0.635818 -1.41048 1.8265 0.0371144 -0.019419 -2.18655
10 1.5758 0 0 -0.138052 -0.00674848 0.0382611
11 1.24879 0 0 0.0651613 -0.180179 1.58645
12 1.03455 0 0 0 0 0.2618
13 1.8265 5.03409 3.31075 -1.64136 1.04969 1.53177
14 1.89152 6.39752 0.838472 1.67789 0.459407 -1.4571
15 0.948001 -1.81211 3.80052 -1.54471 1.4127 1.33618
16 0.762237 -2.35933 0.503161 1.5708 0 -1.5708
17 0.76237 -2.71755 0.503031 0 0.00036484 -1.5708
18 1.85711 5.81799 1.94412 -1.52122 1.08729 1.51149
19 1.99673 5.47622 0.379738 1.66869 0.198964 -1.48532
20 1.00256 -1.58385 2.32845 1.51937 1.15228 -1.87131
21 0 7.10122 3.06755 -1.5708 0.419067 1.5708
22 3.15237 0 0 0 0 -0.240052
23 2.79335 0 0 0 0 -0.124805
24 3.38194 0 0 0 0 -0.0621484
time 8
0 0 5.80079 4.65458 1.5708 -0.0949707 -1.5708
1 3.86721 0 0 0 0 0.0941592
2 3.46652 -1.90644 0.948191 -0.257504 -0.0366411 -1.91387
3 1.49066 0 0 0.0130807 0.0125568 0.576236
4 1.99771 0 0 -0.0216077 -0.25346 1.15866
5 0.358219 -0.000130117 -0.000133336 -1.5708 0.000372345 -0.000364161
6 3.57113 0 0 0 0 0.015512
7 2.11638 0 0 0 0 -0.294347
8 1.97852 0 0 0 0 0
9 0.635818 -1.41048 1.8265 0.0371144 -0.019419 -2.18655
10 1.5758 0 0 -0.138052 -0.00674848 0.0382611
11 1.24879 0 0 0.0651613 -0.180179 1.58645
12 1.03455 0 0 0 0 0.2618
13 1.8265 5.03409 3.31075 -1.64136 1.04969 1.53177
14 1.89152 6.39752 0.838472 1.67789 0.459407 -1.4571
15 0.948001 -1.81211 3.80052 -1.54471 1.4127 1.33618
16 0.762237 -2.35933 0.503161 1.5708 0 -1.5708
17 0.76237 -2.71755 0.503031 0 0.00036484 -1.5708
18 1.85711 5.81799 1.94412 -1.52122 1.08729 1.51149
19 1.99673 5.47622 0.379738 1.66869 0.198964 -1.48532
20 1.00256 -1.58385 2.32845 1.51937 1.15228 -1.87131
21 0 7.10122 3.06755 -1.5708 0.419067 1.5708
22 3.15237 0 0 0 0 -0.240052
23 2.79335 0 0 0 0 -0.124805
24 3.38194 0 0 0 0 -0.0621484
time 9
0 0 5.80079 4.65458 1.5708 -0.0949707 -1.5708
1 3.86721 0 0 0 0 0.0941592
2 3.46652 -1.90644 0.948191 -0.257504 -0.0366411 -1.91387
3 1.49066 0 0 0.0130807 0.0125568 0.576236
4 1.99771 0 0 -0.0216077 -0.25346 1.15866
5 0.358219 -0.000130117 -0.000133336 -1.5708 0.000372345 -0.000364161
6 3.57113 0 0 0 0 0.015512
7 2.11638 0 0 0 0 -0.294347
8 1.97852 0 0 0 0 0
9 0.635818 -1.41048 1.8265 0.0371144 -0.019419 -2.18655
10 1.5758 0 0 -0.138052 -0.00674848 0.0382611
11 1.24879 0 0 0.0651613 -0.180179 1.58645
12 1.03455 0 0 0 0 0.2618
13 1.8265 5.03409 3.31075 -1.64136 1.04969 1.53177
14 1.89152 6.39752 0.838472 1.67789 0.459407 -1.4571
15 0.948001 -1.81211 3.80052 -1.54471 1.4127 1.33618
16 0.762237 -2.35933 0.503161 1.5708 0 -1.5708
17 0.76237 -2.71755 0.503031 0 0.00036484 -1.5708
18 1.85711 5.81799 1.94412 -1.52122 1.08729 1.51149
19 1.99673 5.47622 0.379738 1.66869 0.198964 -1.48532
20 1.00256 -1.58385 2.32845 1.51937 1.15228 -1.87131
21 0 7.10122 3.06755 -1.5708 0.419067 1.5708
22 3.15237 0 0 0 0 -0.240052
23 2.79335 0 0 0 0 -0.124805
24 3.38194 0 0 0 0 -0.0621484
time 10
0 0 5.80079 4.65458 1.5708 -0.0949707 -1.5708
1 3.86721 0 0 0 0 0.0941592
2 3.46652 -1.90644 0.948191 -0.257504 -0.0366411 -1.91387
3 1.49066 0 0 0.0130807 0.0125568 0.576236
4 1.99771 0 0 -0.0216077 -0.25346 1.15866
5 0.358219 -0.000130117 -0.000133336 -1.5708 0.000372345 -0.000364161
6 3.57113 0 0 0 0 0.015512
7 2.11638 0 0 0 0 -0.294347
8 1.97852 0 0 0 0 0
9 0.635818 -1.41048 1.8265 0.0371144 -0.019419 -2.18655
10 1.5758 0 0 -0.138052 -0.00674848 0.0382611
11 1.24879 0 0 0.0651613 -0.180179 1.58645
12 1.03455 0 0 0 0 0.2618
13 1.8265 5.03409 3.31075 -1.64136 1.04969 1.53177
14 1.89152 6.39752 0.838472 1.67789 0.459407 -1.4571
15 0.948001 -1.81211 3.80052 -1.54471 1.4127 1.33618
16 0.762237 -2.35933 0.503161 1.5708 0 -1.5708
17 0.76237 -2.71755 0.503031 0 0.00036484 -1.5708
18 1.85711 5.81799 1.94412 -1.52122 1.08729 1.51149
19 1.99673 5.47622 0.379738 1.66869 0.198964 -1.48532
20 1.00256 -1.58385 2.32845 1.51937 1.15228 -1.87131
21 0 7.10122 3.06755 -1.5708 0.419067 1.5708
22 3.15237 0 0 0 0 -0.240052
23 2.79335 0 0 0 0 -0.124805
24 3.38194 0 0 0 0 -0.0621484
time 11
0 0 5.80079 4.65458 1.5708 -0.0949707 -1.5708
1 3.86721 0 0 0 0 0.0941592
2 3.46652 -1.90644 0.948191 -0.257504 -0.0366411 -1.91387
3 1.49066 0 0 0.0130807 0.0125568 0.576236
4 1.99771 0 0 -0.0216077 -0.25346 1.15866
5 0.358219 -0.000130117 -0.000133336 -1.5708 0.000372345 -0.000364161
6 3.57113 0 0 0 0 0.015512
7 2.11638 0 0 0 0 -0.294347
8 1.97852 0 0 0 0 0
9 0.635818 -1.41048 1.8265 0.0371144 -0.019419 -2.18655
10 1.5758 0 0 -0.138052 -0.00674848 0.0382611
11 1.24879 0 0 0.0651613 -0.180179 1.58645
12 1.03455 0 0 0 0 0.2618
13 1.8265 5.03409 3.31075 -1.64136 1.04969 1.53177
14 1.89152 6.39752 0.838472 1.67789 0.459407 -1.4571
15 0.948001 -1.81211 3.80052 -1.54471 1.4127 1.33618
16 0.762237 -2.35933 0.503161 1.5708 0 -1.5708
17 0.76237 -2.71755 0.503031 0 0.00036484 -1.5708
18 1.85711 5.81799 1.94412 -1.52122 1.08729 1.51149
19 1.99673 5.47622 0.379738 1.66869 0.198964 -1.48532
20 1.00256 -1.58385 2.32845 1.51937 1.15228 -1.87131
21 0 7.10122 3.06755 -1.5708 0.419067 1.5708
22 3.15237 0 0 0 0 -0.240052
23 2.79335 0 0 0 0 -0.124805
24 3.38194 0 0 0 0 -0.0621484
time 12
0 0 5.80079 4.65458 1.5708 -0.0949707 -1.5708
1 3.86721 0 0 0 0 0.0941592
2 3.46652 -1.90644 0.948191 -0.257504 -0.0366411 -1.91387
3 1.49066 0 0 0.0130807 0.0125568 0.576236
4 1.99771 0 0 -0.0216077 -0.25346 1.15866
5 0.358219 -0.000130117 -0.000133336 -1.5708 0.000372345 -0.000364161
6 3.57113 0 0 0 0 0.015512
7 2.11638 0 0 0 0 -0.294347
8 1.97852 0 0 0 0 0
9 0.635818 -1.41048 1.8265 0.0371144 -0.019419 -2.18655
10 1.5758 0 0 -0.138052 -0.00674848 0.0382611
11 1.24879 0 0 0.0651613 -0.180179 1.58645
12 1.03455 0 0 0 0 0.2618
13 1.8265 5.03409 3.31075 -1.64136 1.04969 1.53177
14 1.89152 6.39752 0.838472 1.67789 0.459407 -1.4571
15 0.948001 -1.81211 3.80052 -1.54471 1.4127 1.33618
16 0.762237 -2.35933 0.503161 1.5708 0 -1.5708
17 0.76237 -2.71755 0.503031 0 0.00036484 -1.5708
18 1.85711 5.81799 1.94412 -1.52122 1.08729 1.51149
19 1.99673 5.47622 0.379738 1.66869 0.198964 -1.48532
20 1.00256 -1.58385 2.32845 1.51937 1.15228 -1.87131
21 0 7.10122 3.06755 -1.5708 0.419067 1.5708
22 3.15237 0 0 0 0 -0.240052
23 2.79335 0 0 0 0 -0.124805
24 3.38194 0 0 0 0 -0.0621484
time 13
0 0 5.80079 4.65458 1.5708 -0.0949707 -1.5708
1 3.86721 0 0 0 0 0.0941592
2 3.46652 -1.90644 0.948191 -0.257504 -0.0366411 -1.91387
3 1.49066 0 0 0.0130807 0.0125568 0.576236
4 1.99771 0 0 -0.0216077 -0.25346 1.15866
5 0.358219 -0.000130117 -0.000133336 -1.5708 0.000372345 -0.000364161
6 3.57113 0 0 0 0 0.015512
7 2.11638 0 0 0 0 -0.294347
8 1.97852 0 0 0 0 0
9 0.635818 -1.41048 1.8265 0.0371144 -0.019419 -2.18655
10 1.5758 0 0 -0.138052 -0.00674848 0.0382611
11 1.24879 0 0 0.0651613 -0.180179 1.58645
12 1.03455 0 0 0 0 0.2618
13 1.8265 5.03409 3.31075 -1.64136 1.04969 1.53177
14 1.89152 6.39752 0.838472 1.67789 0.459407 -1.4571
15 0.948001 -1.81211 3.80052 -1.54471 1.4127 1.33618
16 0.762237 -2.35933 0.503161 1.5708 0 -1.5708
17 0.76237 -2.71755 0.503031 0 0.00036484 -1.5708
18 1.85711 5.81799 1.94412 -1.52122 1.08729 1.51149
19 1.99673 5.47622 0.379738 1.66869 0.198964 -1.48532
20 1.00256 -1.58385 2.32845 1.51937 1.15228 -1.87131
21 0 7.10122 3.06755 -1.5708 0.419067 1.5708
22 3.15237 0 0 0 0 -0.240052
23 2.79335 0 0 0 0 -0.124805
24 3.38194 0 0 0 0 -0.0621484
time 14
0 0 5.80079 4.65458 1.5708 -0.0949707 -1.5708
1 3.86721 0 0 0 0 0.0941592
2 3.46652 -1.90644 0.948191 -0.257504 -0.0366411 -1.91387
3 1.49066 0 0 0.0130807 0.0125568 0.576236
4 1.99771 0 0 -0.0216077 -0.25346 1.15866
5 0.358219 -0.000130117 -0.000133336 -1.5708 0.000372345 -0.000364161
6 3.57113 0 0 0 0 0.015512
7 2.11638 0 0 0 0 -0.294347
8 1.97852 0 0 0 0 0
9 0.635818 -1.41048 1.8265 0.0371144 -0.019419 -2.18655
10 1.5758 0 0 -0.138052 -0.00674848 0.0382611
11 1.24879 0 0 0.0651613 -0.180179 1.58645
12 1.03455 0 0 0 0 0.2618
13 1.8265 5.03409 3.31075 -1.64136 1.04969 1.53177
14 1.89152 6.39752 0.838472 1.67789 0.459407 -1.4571
15 0.948001 -1.81211 3.80052 -1.54471 1.4127 1.33618
16 0.762237 -2.35933 0.503161 1.5708 0 -1.5708
17 0.76237 -2.71755 0.503031 0 0.00036484 -1.5708
18 1.85711 5.81799 1.94412 -1.52122 1.08729 1.51149
19 1.99673 5.47622 0.379738 1.66869 0.198964 -1.48532
20 1.00256 -1.58385 2.32845 1.51937 1.15228 -1.87131
21 0 7.10122 3.06755 -1.5708 0.419067 1.5708
22 3.15237 0 0 0 0 -0.240052
23 2.79335 0 0 0 0 -0.124805
24 3.38194 0 0 0 0 -0.0621484
time 15
0 0 5.80079 4.65458 1.5708 -0.0949707 -1.5708
1 3.86721 0 0 0 0 0.0941592
2 3.46652 -1.90644 0.948191 -0.257504 -0.0366411 -1.91387
3 1.49066 0 0 0.0130807 0.0125568 0.576236
4 1.99771 0 0 -0.0216077 -0.25346 1.15866
5 0.358219 -0.000130117 -0.000133336 -1.5708 0.000372345 -0.000364161
6 3.57113 0 0 0 0 0.015512
7 2.11638 0 0 0 0 -0.294347
8 1.97852 0 0 0 0 0
9 0.635818 -1.41048 1.8265 0.0371144 -0.019419 -2.18655
10 1.5758 0 0 -0.138052 -0.00674848 0.0382611
11 1.24879 0 0 0.0651613 -0.180179 1.58645
12 1.03455 0 0 0 0 0.2618
13 1.8265 5.03409 3.31075 -1.64136 1.04969 1.53177
14 1.89152 6.39752 0.838472 1.67789 0.459407 -1.4571
15 0.948001 -1.81211 3.80052 -1.54471 1.4127 1.33618
16 0.762237 -2.35933 0.503161 1.5708 0 -1.5708
17 0.76237 -2.71755 0.503031 0 0.00036484 -1.5708
18 1.85711 5.81799 1.94412 -1.52122 1.08729 1.51149
19 1.99673 5.47622 0.379738 1.66869 0.198964 -1.48532
20 1.00256 -1.58385 2.32845 1.51937 1.15228 -1.87131
21 0 7.10122 3.06755 -1.5708 0.419067 1.5708
22 3.15237 0 0 0 0 -0.240052
23 2.79335 0 0 0 0 -0.124805
24 3.38194 0 0 0 0 -0.0621484
time 16
0 0 5.80079 4.65458 1.5708 -0.0949707 -1.5708
1 3.86721 0 0 0 0 0.0941592
2 3.46652 -1.90644 0.948191 -0.257504 -0.0366411 -1.91387
3 1.49066 0 0 0.0130807 0.0125568 0.576236
4 1.99771 0 0 -0.0216077 -0.25346 1.15866
5 0.358219 -0.000130117 -0.000133336 -1.5708 0.000372345 -0.000364161
6 3.57113 0 0 0 0 0.015512
7 2.11638 0 0 0 0 -0.294347
8 1.97852 0 0 0 0 0
9 0.635818 -1.41048 1.8265 0.0371144 -0.019419 -2.18655
10 1.5758 0 0 -0.138052 -0.00674848 0.0382611
11 1.24879 0 0 0.0651613 -0.180179 1.58645
12 1.03455 0 0 0 0 0.2618
13 1.8265 5.03409 3.31075 -1.64136 1.04969 1.53177
14 1.89152 6.39752 0.838472 1.67789 0.459407 -1.4571
15 0.948001 -1.81211 3.80052 -1.54471 1.4127 1.33618
16 0.762237 -2.35933 0.503161 1.5708 0 -1.5708
17 0.76237 -2.71755 0.503031 0 0.00036484 -1.5708
18 1.85711 5.81799 1.94412 -1.52122 1.08729 1.51149
19 1.99673 5.47622 0.379738 1.66869 0.198964 -1.48532
20 1.00256 -1.58385 2.32845 1.51937 1.15228 -1.87131
21 0 7.10122 3.06755 -1.5708 0.419067 1.5708
22 3.15237 0 0 0 0 -0.240052
23 2.79335 0 0 0 0 -0.124805
24 3.38194 0 0 0 0 -0.0621484
time 17
0 0 5.80079 4.65458 1.5708 -0.0949707 -1.5708
1 3.86721 0 0 0 0 0.0941592
2 3.46652 -1.90644 0.948191 -0.257504 -0.0366411 -1.91387
3 1.49066 0 0 0.0130807 0.0125568 0.576236
4 1.99771 0 0 -0.0216077 -0.25346 1.15866
5 0.358219 -0.000130117 -0.000133336 -1.5708 0.000372345 -0.000364161
6 3.57113 0 0 0 0 0.015512
7 2.11638 0 0 0 0 -0.294347
8 1.97852 0 0 0 0 0
9 0.635818 -1.41048 1.8265 0.0371144 -0.019419 -2.18655
10 1.5758 0 0 -0.138052 -0.00674848 0.0382611
11 1.24879 0 0 0.0651613 -0.180179 1.58645
12 1.03455 0 0 0 0 0.2618
13 1.8265 5.03409 3.31075 -1.64136 1.04969 1.53177
14 1.89152 6.39752 0.838472 1.67789 0.459407 -1.4571
15 0.948001 -1.81211 3.80052 -1.54471 1.4127 1.33618
16 0.762237 -2.35933 0.503161 1.5708 0 -1.5708
17 0.76237 -2.71755 0.503031 0 0.00036484 -1.5708
18 1.85711 5.81799 1.94412 -1.52122 1.08729 1.51149
19 1.99673 5.47622 0.379738 1.66869 0.198964 -1.48532
20 1.00256 -1.58385 2.32845 1.51937 1.15228 -1.87131
21 0 7.10122 3.06755 -1.5708 0.419067 1.5708
22 3.15237 0 0 0 0 -0.240052
23 2.79335 0 0 0 0 -0.124805
24 3.38194 0 0 0 0 -0.0621484
time 18
0 0 5.80079 4.65458 1.5708 -0.0949707 -1.5708
1 3.86721 0 0 0 0 0.0941592
2 3.46652 -1.90644 0.948191 -0.257504 -0.0366411 -1.91387
3 1.49066 0 0 0.0130807 0.0125568 0.576236
4 1.99771 0 0 -0.0216077 -0.25346 1.15866
5 0.358219 -0.000130117 -0.000133336 -1.5708 0.000372345 -0.000364161
6 3.57113 0 0 0 0 0.015512
7 2.11638 0 0 0 0 -0.294347
8 1.97852 0 0 0 0 0
9 0.635818 -1.41048 1.8265 0.0371144 -0.019419 -2.18655
10 1.5758 0 0 -0.138052 -0.00674848 0.0382611
11 1.24879 0 0 0.0651613 -0.180179 1.58645
12 1.03455 0 0 0 0 0.2618
13 1.8265 5.03409 3.31075 -1.64136 1.04969 1.53177
14 1.89152 6.39752 0.838472 1.67789 0.459407 -1.4571
15 0.948001 -1.81211 3.80052 -1.54471 1.4127 1.33618
16 0.762237 -2.35933 0.503161 1.5708 0 -1.5708
17 0.76237 -2.71755 0.503031 0 0.00036484 -1.5708
18 1.85711 5.81799 1.94412 -1.52122 1.08729 1.51149
19 1.99673 5.47622 0.379738 1.66869 0.198964 -1.48532
20 1.00256 -1.58385 2.32845 1.51937 1.15228 -1.87131
21 0 7.10122 3.06755 -1.5708 0.419067 1.5708
22 3.15237 0 0 0 0 -0.240052
23 2.79335 0 0 0 0 -0.124805
24 3.38194 0 0 0 0 -0.0621484
time 19
0 0 5.80079 4.65458 1.5708 -0.0949707 -1.5708
1 3.86721 0 0 0 0 0.0941592
2 3.46652 -1.90644 0.948191 -0.257504 -0.0366411 -1.91387
3 1.49066 0 0 0.0130807 0.0125568 0.576236
4 1.99771 0 0 -0.0216077 -0.25346 1.15866
5 0.358219 -0.000130117 -0.000133336 -1.5708 0.000372345 -0.000364161
6 3.57113 0 0 0 0 0.015512
7 2.11638 0 0 0 0 -0.294347
8 1.97852 0 0 0 0 0
9 0.635818 -1.41048 1.8265 0.0371144 -0.019419 -2.18655
10 1.5758 0 0 -0.138052 -0.00674848 0.0382611
11 1.24879 0 0 0.0651613 -0.180179 1.58645
12 1.03455 0 0 0 0 0.2618
13 1.8265 5.03409 3.31075 -1.64136 1.04969 1.53177
14 1.89152 6.39752 0.838472 1.67789 0.459407 -1.4571
15 0.948001 -1.81211 3.80052 -1.54471 1.4127 1.33618
16 0.762237 -2.35933 0.503161 1.5708 0 -1.5708
17 0.76237 -2.71755 0.503031 0 0.00036484 -1.5708
18 1.85711 5.81799 1.94412 -1.52122 1.08729 1.51149
19 1.99673 5.47622 0.379738 1.66869 0.198964 -1.48532
20 1.00256 -1.58385 2.32845 1.51937 1.15228 -1.87131
21 0 7.10122 3.06755 -1.5708 0.419067 1.5708
22 3.15237 0 0 0 0 -0.240052
23 2.79335 0 0 0 0 -0.124805
24 3.38194 0 0 0 0 -0.0621484
time 20
0 0 5.80079 4.65458 1.5708 -0.0949707 -1.5708
1 3.86721 0 0 0 0 0.0941592
2 3.46652 -1.90644 0.948191 -0.257504 -0.0366411 -1.91387
3 1.49066 0 0 0.0130807 0.0125568 0.576236
4 1.99771 0 0 -0.0216077 -0.25346 1.15866
5 0.358219 -0.000130117 -0.000133336 -1.5708 0.000372345 -0.000364161
6 3.57113 0 0 0 0 0.015512
7 2.11638 0 0 0 0 -0.294347
8 1.97852 0 0 0 0 0
9 0.635818 -1.41048 1.8265 0.0371144 -0.019419 -2.18655
10 1.5758 0 0 -0.138052 -0.00674848 0.0382611
11 1.24879 0 0 0.0651613 -0.180179 1.58645
12 1.03455 0 0 0 0 0.2618
13 1.8265 5.03409 3.31075 -1.64136 1.04969 1.53177
14 1.89152 6.39752 0.838472 1.67789 0.459407 -1.4571
15 0.948001 -1.81211 3.80052 -1.54471 1.4127 1.33618
16 0.762237 -2.35933 0.503161 1.5708 0 -1.5708
17 0.76237 -2.71755 0.503031 0 0.00036484 -1.5708
18 1.85711 5.81799 1.94412 -1.52122 1.08729 1.51149
19 1.99673 5.47622 0.379738 1.66869 0.198964 -1.48532
20 1.00256 -1.58385 2.32845 1.51937 1.15228 -1.87131
21 0 7.10122 3.06755 -1.5708 0.419067 1.5708
22 3.15237 0 0 0 0 -0.240052
23 2.79335 0 0 0 0 -0.124805
24 3.38194 0 0 0 0 -0.0621484
time 21
0 0 5.80079 4.65458 1.5708 -0.0949707 -1.5708
1 3.86721 0 0 0 0 0.0941592
2 3.46652 -1.90644 0.948191 -0.257504 -0.0366411 -1.91387
3 1.49066 0 0 0.0130807 0.0125568 0.576236
4 1.99771 0 0 -0.0216077 -0.25346 1.15866
5 0.358219 -0.000130117 -0.000133336 -1.5708 0.000372345 -0.000364161
6 3.57113 0 0 0 0 0.015512
7 2.11638 0 0 0 0 -0.294347
8 1.97852 0 0 0 0 0
9 0.635818 -1.41048 1.8265 0.0371144 -0.019419 -2.18655
10 1.5758 0 0 -0.138052 -0.00674848 0.0382611
11 1.24879 0 0 0.0651613 -0.180179 1.58645
12 1.03455 0 0 0 0 0.2618
13 1.8265 5.03409 3.31075 -1.64136 1.04969 1.53177
14 1.89152 6.39752 0.838472 1.67789 0.459407 -1.4571
15 0.948001 -1.81211 3.80052 -1.54471 1.4127 1.33618
16 0.762237 -2.35933 0.503161 1.5708 0 -1.5708
17 0.76237 -2.71755 0.503031 0 0.00036484 -1.5708
18 1.85711 5.81799 1.94412 -1.52122 1.08729 1.51149
19 1.99673 5.47622 0.379738 1.66869 0.198964 -1.48532
20 1.00256 -1.58385 2.32845 1.51937 1.15228 -1.87131
21 0 7.10122 3.06755 -1.5708 0.419067 1.5708
22 3.15237 0 0 0 0 -0.240052
23 2.79335 0 0 0 0 -0.124805
24 3.38194 0 0 0 0 -0.0621484
time 22
0 0 5.80079 4.65458 1.5708 -0.0949707 -1.5708
1 3.86721 0 0 0 0 0.0941592
2 3.46652 -1.90644 0.948191 -0.257504 -0.0366411 -1.91387
3 1.49066 0 0 0.0130807 0.0125568 0.576236
4 1.99771 0 0 -0.0216077 -0.25346 1.15866
5 0.358219 -0.000130117 -0.000133336 -1.5708 0.000372345 -0.000364161
6 3.57113 0 0 0 0 0.015512
7 2.11638 0 0 0 0 -0.294347
8 1.97852 0 0 0 0 0
9 0.635818 -1.41048 1.8265 0.0371144 -0.019419 -2.18655
10 1.5758 0 0 -0.138052 -0.00674848 0.0382611
11 1.24879 0 0 0.0651613 -0.180179 1.58645
12 1.03455 0 0 0 0 0.2618
13 1.8265 5.03409 3.31075 -1.64136 1.04969 1.53177
14 1.89152 6.39752 0.838472 1.67789 0.459407 -1.4571
15 0.948001 -1.81211 3.80052 -1.54471 1.4127 1.33618
16 0.762237 -2.35933 0.503161 1.5708 0 -1.5708
17 0.76237 -2.71755 0.503031 0 0.00036484 -1.5708
18 1.85711 5.81799 1.94412 -1.52122 1.08729 1.51149
19 1.99673 5.47622 0.379738 1.66869 0.198964 -1.48532
20 1.00256 -1.58385 2.32845 1.51937 1.15228 -1.87131
21 0 7.10122 3.06755 -1.5708 0.419067 1.5708
22 3.15237 0 0 0 0 -0.240052
23 2.79335 0 0 0 0 -0.124805
24 3.38194 0 0 0 0 -0.0621484
time 23
0 0 5.80079 4.65458 1.5708 -0.0949707 -1.5708
1 3.86721 0 0 0 0 0.0941592
2 3.46652 -1.90644 0.948191 -0.257504 -0.0366411 -1.91387
3 1.49066 0 0 0.0130807 0.0125568 0.576236
4 1.99771 0 0 -0.0216077 -0.25346 1.15866
5 0.358219 -0.000130117 -0.000133336 -1.5708 0.000372345 -0.000364161
6 3.57113 0 0 0 0 0.015512
7 2.11638 0 0 0 0 -0.294347
8 1.97852 0 0 0 0 0
9 0.635818 -1.41048 1.8265 0.0371144 -0.019419 -2.18655
10 1.5758 0 0 -0.138052 -0.00674848 0.0382611
11 1.24879 0 0 0.0651613 -0.180179 1.58645
12 1.03455 0 0 0 0 0.2618
13 1.8265 5.03409 3.31075 -1.64136 1.04969 1.53177
14 1.89152 6.39752 0.838472 1.67789 0.459407 -1.4571
15 0.948001 -1.81211 3.80052 -1.54471 1.4127 1.33618
16 0.762237 -2.35933 0.503161 1.5708 0 -1.5708
17 0.76237 -2.71755 0.503031 0 0.00036484 -1.5708
18 1.85711 5.81799 1.94412 -1.52122 1.08729 1.51149
19 1.99673 5.47622 0.379738 1.66869 0.198964 -1.48532
20 1.00256 -1.58385 2.32845 1.51937 1.15228 -1.87131
21 0 7.10122 3.06755 -1.5708 0.419067 1.5708
22 3.15237 0 0 0 0 -0.240052
23 2.79335 0 0 0 0 -0.124805
24 3.38194 0 0 0 0 -0.0621484
time 24
0 0 5.80079 4.65458 1.5708 -0.0949707 -1.5708
1 3.86721 0 0 0 0 0.0941592
2 3.46652 -1.90644 0.948191 -0.257504 -0.0366411 -1.91387
3 1.49066 0 0 0.0130807 0.0125568 0.576236
4 1.99771 0 0 -0.0216077 -0.25346 1.15866
5 0.358219 -0.000130117 -0.000133336 -1.5708 0.000372345 -0.000364161
6 3.57113 0 0 0 0 0.015512
7 2.11638 0 0 0 0 -0.294347
8 1.97852 0 0 0 0 0
9 0.635818 -1.41048 1.8265 0.0371144 -0.019419 -2.18655
10 1.5758 0 0 -0.138052 -0.00674848 0.0382611
11 1.24879 0 0 0.0651613 -0.180179 1.58645
12 1.03455 0 0 0 0 0.2618
13 1.8265 5.03409 3.31075 -1.64136 1.04969 1.53177
14 1.89152 6.39752 0.838472 1.67789 0.459407 -1.4571
15 0.948001 -1.81211 3.80052 -1.54471 1.4127 1.33618
16 0.762237 -2.35933 0.503161 1.5708 0 -1.5708
17 0.76237 -2.71755 0.503031 0 0.00036484 -1.5708
18 1.85711 5.81799 1.94412 -1.52122 1.08729 1.51149
19 1.99673 5.47622 0.379738 1.66869 0.198964 -1.48532
20 1.00256 -1.58385 2.32845 1.51937 1.15228 -1.87131
21 0 7.10122 3.06755 -1.5708 0.419067 1.5708
22 3.15237 0 0 0 0 -0.240052
23 2.79335 0 0 0 0 -0.124805
24 3.38194 0 0 0 0 -0.0621484
time 25
0 0 5.80079 4.65458 1.5708 -0.0949707 -1.5708
1 3.86721 0 0 0 0 0.0941592
2 3.46652 -1.90644 0.948191 -0.257504 -0.0366411 -1.91387
3 1.49066 0 0 0.0130807 0.0125568 0.576236
4 1.99771 0 0 -0.0216077 -0.25346 1.15866
5 0.358219 -0.000130117 -0.000133336 -1.5708 0.000372345 -0.000364161
6 3.57113 0 0 0 0 0.015512
7 2.11638 0 0 0 0 -0.294347
8 1.97852 0 0 0 0 0
9 0.635818 -1.41048 1.8265 0.0371144 -0.019419 -2.18655
10 1.5758 0 0 -0.138052 -0.00674848 0.0382611
11 1.24879 0 0 0.0651613 -0.180179 1.58645
12 1.03455 0 0 0 0 0.2618
13 1.8265 5.03409 3.31075 -1.64136 1.04969 1.53177
14 1.89152 6.39752 0.838472 1.67789 0.459407 -1.4571
15 0.948001 -1.81211 3.80052 -1.54471 1.4127 1.33618
16 0.762237 -2.35933 0.503161 1.5708 0 -1.5708
17 0.76237 -2.71755 0.503031 0 0.00036484 -1.5708
18 1.85711 5.81799 1.94412 -1.52122 1.08729 1.51149
19 1.99673 5.47622 0.379738 1.66869 0.198964 -1.48532
20 1.00256 -1.58385 2.32845 1.51937 1.15228 -1.87131
21 0 7.10122 3.06755 -1.5708 0.419067 1.5708
22 3.15237 0 0 0 0 -0.240052
23 2.79335 0 0 0 0 -0.124805
24 3.38194 0 0 0 0 -0.0621484
time 26
0 0 5.80079 4.65458 1.5708 -0.0949707 -1.5708
1 3.86721 0 0 0 0 0.0941592
2 3.46652 -1.90644 0.948191 -0.257504 -0.0366411 -1.91387
3 1.49066 0 0 0.0130807 0.0125568 0.576236
4 1.99771 0 0 -0.0216077 -0.25346 1.15866
5 0.358219 -0.000130117 -0.000133336 -1.5708 0.000372345 -0.000364161
6 3.57113 0 0 0 0 0.015512
7 2.11638 0 0 0 0 -0.294347
8 1.97852 0 0 0 0 0
9 0.635818 -1.41048 1.8265 0.0371144 -0.019419 -2.18655
10 1.5758 0 0 -0.138052 -0.00674848 0.0382611
11 1.24879 0 0 0.0651613 -0.180179 1.58645
12 1.03455 0 0 0 0 0.2618
13 1.8265 5.03409 3.31075 -1.64136 1.04969 1.53177
14 1.89152 6.39752 0.838472 1.67789 0.459407 -1.4571
15 0.948001 -1.81211 3.80052 -1.54471 1.4127 1.33618
16 0.762237 -2.35933 0.503161 1.5708 0 -1.5708
17 0.76237 -2.71755 0.503031 0 0.00036484 -1.5708
18 1.85711 5.81799 1.94412 -1.52122 1.08729 1.51149
19 1.99673 5.47622 0.379738 1.66869 0.198964 -1.48532
20 1.00256 -1.58385 2.32845 1.51937 1.15228 -1.87131
21 0 7.10122 3.06755 -1.5708 0.419067 1.5708
22 3.15237 0 0 0 0 -0.240052
23 2.79335 0 0 0 0 -0.124805
24 3.38194 0 0 0 0 -0.0621484
time 27
0 0 5.80079 4.65458 1.5708 -0.0949707 -1.5708
1 3.86721 0 0 0 0 0.0941592
2 3.46652 -1.90644 0.948191 -0.257504 -0.0366411 -1.91387
3 1.49066 0 0 0.0130807 0.0125568 0.576236
4 1.99771 0 0 -0.0216077 -0.25346 1.15866
5 0.358219 -0.000130117 -0.000133336 -1.5708 0.000372345 -0.000364161
6 3.57113 0 0 0 0 0.015512
7 2.11638 0 0 0 0 -0.294347
8 1.97852 0 0 0 0 0
9 0.635818 -1.41048 1.8265 0.0371144 -0.019419 -2.18655
10 1.5758 0 0 -0.138052 -0.00674848 0.0382611
11 1.24879 0 0 0.0651613 -0.180179 1.58645
12 1.03455 0 0 0 0 0.2618
13 1.8265 5.03409 3.31075 -1.64136 1.04969 1.53177
14 1.89152 6.39752 0.838472 1.67789 0.459407 -1.4571
15 0.948001 -1.81211 3.80052 -1.54471 1.4127 1.33618
16 0.762237 -2.35933 0.503161 1.5708 0 -1.5708
17 0.76237 -2.71755 0.503031 0 0.00036484 -1.5708
18 1.85711 5.81799 1.94412 -1.52122 1.08729 1.51149
19 1.99673 5.47622 0.379738 1.66869 0.198964 -1.48532
20 1.00256 -1.58385 2.32845 1.51937 1.15228 -1.87131
21 0 7.10122 3.06755 -1.5708 0.419067 1.5708
22 3.15237 0 0 0 0 -0.240052
23 2.79335 0 0 0 0 -0.124805
24 3.38194 0 0 0 0 -0.0621484
time 28
0 0 5.80079 4.65458 1.5708 -0.0949707 -1.5708
1 3.86721 0 0 0 0 0.0941592
2 3.46652 -1.90644 0.948191 -0.257504 -0.0366411 -1.91387
3 1.49066 0 0 0.0130807 0.0125568 0.576236
4 1.99771 0 0 -0.0216077 -0.25346 1.15866
5 0.358219 -0.000130117 -0.000133336 -1.5708 0.000372345 -0.000364161
6 3.57113 0 0 0 0 0.015512
7 2.11638 0 0 0 0 -0.294347
8 1.97852 0 0 0 0 0
9 0.635818 -1.41048 1.8265 0.0371144 -0.019419 -2.18655
10 1.5758 0 0 -0.138052 -0.00674848 0.0382611
11 1.24879 0 0 0.0651613 -0.180179 1.58645
12 1.03455 0 0 0 0 0.2618
13 1.8265 5.03409 3.31075 -1.64136 1.04969 1.53177
14 1.89152 6.39752 0.838472 1.67789 0.459407 -1.4571
15 0.948001 -1.81211 3.80052 -1.54471 1.4127 1.33618
16 0.762237 -2.35933 0.503161 1.5708 0 -1.5708
17 0.76237 -2.71755 0.503031 0 0.00036484 -1.5708
18 1.85711 5.81799 1.94412 -1.52122 1.08729 1.51149
19 1.99673 5.47622 0.379738 1.66869 0.198964 -1.48532
20 1.00256 -1.58385 2.32845 1.51937 1.15228 -1.87131
21 0 7.10122 3.06755 -1.5708 0.419067 1.5708
22 3.15237 0 0 0 0 -0.240052
23 2.79335 0 0 0 0 -0.124805
24 3.38194 0 0 0 0 -0.0621484
time 29
0 0 5.80079 4.65458 1.5708 -0.0949707 -1.5708
1 3.86721 0 0 0 0 0.0941592
2 3.46652 -1.90644 0.948191 -0.257504 -0.0366411 -1.91387
3 1.49066 0 0 0.0130807 0.0125568 0.576236
4 1.99771 0 0 -0.0216077 -0.25346 1.15866
5 0.358219 -0.000130117 -0.000133336 -1.5708 0.000372345 -0.000364161
6 3.57113 0 0 0 0 0.015512
7 2.11638 0 0 0 0 -0.294347
8 1.97852 0 0 0 0 0
9 0.635818 -1.41048 1.8265 0.0371144 -0.019419 -2.18655
10 1.5758 0 0 -0.138052 -0.00674848 0.0382611
11 1.24879 0 0 0.0651613 -0.180179 1.58645
12 1.03455 0 0 0 0 0.2618
13 1.8265 5.03409 3.31075 -1.64136 1.04969 1.53177
14 1.89152 6.39752 0.838472 1.67789 0.459407 -1.4571
15 0.948001 -1.81211 3.80052 -1.54471 1.4127 1.33618
16 0.762237 -2.35933 0.503161 1.5708 0 -1.5708
17 0.76237 -2.71755 0.503031 0 0.00036484 -1.5708
18 1.85711 5.81799 1.94412 -1.52122 1.08729 1.51149
19 1.99673 5.47622 0.379738 1.66869 0.198964 -1.48532
20 1.00256 -1.58385 2.32845 1.51937 1.15228 -1.87131
21 0 7.10122 3.06755 -1.5708 0.419067 1.5708
22 3.15237 0 0 0 0 -0.240052
23 2.79335 0 0 0 0 -0.124805
24 3.38194 0 0 0 0 -0.0621484
time 30
0 0 5.80079 4.65458 1.5708 -0.0949707 -1.5708
1 3.86721 0 0 0 0 0.0941592
2 3.46652 -1.90644 0.948191 -0.257504 -0.0366411 -1.91387
3 1.49066 0 0 0.0130807 0.0125568 0.576236
4 1.99771 0 0 -0.0216077 -0.25346 1.15866
5 0.358219 -0.000130117 -0.000133336 -1.5708 0.000372345 -0.000364161
6 3.57113 0 0 0 0 0.015512
7 2.11638 0 0 0 0 -0.294347
8 1.97852 0 0 0 0 0
9 0.635818 -1.41048 1.8265 0.0371144 -0.019419 -2.18655
10 1.5758 0 0 -0.138052 -0.00674848 0.0382611
11 1.24879 0 0 0.0651613 -0.180179 1.58645
12 1.03455 0 0 0 0 0.2618
13 1.8265 5.03409 3.31075 -1.64136 1.04969 1.53177
14 1.89152 6.39752 0.838472 1.67789 0.459407 -1.4571
15 0.948001 -1.81211 3.80052 -1.54471 1.4127 1.33618
16 0.762237 -2.35933 0.503161 1.5708 0 -1.5708
17 0.76237 -2.71755 0.503031 0 0.00036484 -1.5708
18 1.85711 5.81799 1.94412 -1.52122 1.08729 1.51149
19 1.99673 5.47622 0.379738 1.66869 0.198964 -1.48532
20 1.00256 -1.58385 2.32845 1.51937 1.15228 -1.87131
21 0 7.10122 3.06755 -1.5708 0.419067 1.5708
22 3.15237 0 0 0 0 -0.240052
23 2.79335 0 0 0 0 -0.124805
24 3.38194 0 0 0 0 -0.0621484
end
