//Sequence File generated by the Wall Worm SMD Exporter PRO 1.99
//www.wallworm.com
version 1
nodes
0 "rat_hip" -1
1 "rat_tail001" 0
2 "rat_tail002" 1
3 "rat_tail003" 2
4 "rat_tail004" 3
5 "rat_spine" 0
6 "rat_r_forearm" 5
7 "rat_r_ulna" 6
8 "rat_r_paw" 7
9 "rat_r_pawtoe" 8
10 "rat_neck" 5
11 "rat_face" 10
12 "rat_nose" 11
13 "rat_l_forearm" 5
14 "rat_l_ulna" 13
15 "rat_l_paw" 14
16 "rat_l_pawtoe" 15
17 "rat_r_femur" 0
18 "rat_r_radius" 17
19 "rat_r_foot" 18
20 "rat_r_toes" 19
21 "rat_l_femur" 0
22 "rat_l_radius" 21
23 "rat_l_foot" 22
24 "rat_l_toes" 23
end
skeleton
time 0
0 0 5.80079 2.80903 1.5708 -0.319137 -1.5708
1 -1.57202 -1.84079 0 0 0 2.94626
2 3.15237 0 0 0 0 -0.240052
3 2.79335 0 0 0 0 -0.124805
4 3.38194 0 0 0 0 -0.0621486
5 3.86721 0 0 0 0 -0.0944725
6 3.46652 -1.90644 0.948191 -0.219967 0.143677 -1.25778
7 1.49066 0 0 0.0130807 0.005193 0.227171
8 1.99771 0 0 -0.021977 -0.256649 0.795011
9 0.358219 -0.000130162 -0.000133365 -1.5708 0.000372497 -0.000364239
10 3.57113 0 0 0 0 0.0347795
11 2.11638 0 0 0 0 -0.294347
12 1.97852 0 0 0 0 0
13 3.46652 -1.90644 -0.948 0.181457 0.246587 -3.01406
14 1.49066 0 0 0.0162691 0.0204196 1.08919
15 1.9977 0 0 -0.13361 0.27146 1.00386
16 0.358219 -0.000129938 -0.000133753 -1.57744 0.0184172 0.607527
17 0.635818 -1.41048 1.8265 -0.0840877 -0.170684 -0.98041
18 1.5758 0 0 -0.138052 0.15117 -2.09747
19 1.24879 0 0 0.035106 0.0928816 2.79924
20 1.03455 0 0 -0.0444361 -0.0239487 -0.323042
21 0.635816 -1.41048 -1.8265 -0.124384 0.0254307 -0.261731
22 1.5758 0 0 -0.386175 0.133681 -2.26806
23 1.24879 0 0 -0.0768128 -0.247211 1.74012
24 1.03455 0 0 -0.0045257 0.00122015 0.261797
time 1
0 0 5.80079 2.80903 1.5708 -0.319137 -1.5708
1 -1.57202 -1.84079 0 0 0 2.94626
2 3.15237 0 0 0 0 -0.240052
3 2.79335 0 0 0 0 -0.124805
4 3.38194 0 0 0 0 -0.0621486
5 3.86721 0 0 0 0 -0.0944725
6 3.46652 -1.90644 0.948191 -0.219967 0.143677 -1.25778
7 1.49066 0 0 0.0130807 0.005193 0.227171
8 1.99771 0 0 -0.021977 -0.256649 0.795011
9 0.358219 -0.000130162 -0.000133365 -1.5708 0.000372497 -0.000364239
10 3.57113 0 0 0 0 0.0347795
11 2.11638 0 0 0 0 -0.294347
12 1.97852 0 0 0 0 0
13 3.46652 -1.90644 -0.948 0.181457 0.246587 -3.01406
14 1.49066 0 0 0.0162691 0.0204196 1.08919
15 1.9977 0 0 -0.13361 0.27146 1.00386
16 0.358219 -0.000129938 -0.000133753 -1.57744 0.0184172 0.607527
17 0.635818 -1.41048 1.8265 -0.0840877 -0.170684 -0.98041
18 1.5758 0 0 -0.138052 0.15117 -2.09747
19 1.24879 0 0 0.035106 0.0928816 2.79924
20 1.03455 0 0 -0.0444361 -0.0239487 -0.323042
21 0.635816 -1.41048 -1.8265 -0.124384 0.0254307 -0.261731
22 1.5758 0 0 -0.386175 0.133681 -2.26806
23 1.24879 0 0 -0.0768128 -0.247211 1.74012
24 1.03455 0 0 -0.0045257 0.00122015 0.261797
time 2
0 0 5.80079 2.80903 1.5708 -0.319137 -1.5708
1 -1.57202 -1.84079 0 0 0 2.94626
2 3.15237 0 0 0 0 -0.240052
3 2.79335 0 0 0 0 -0.124805
4 3.38194 0 0 0 0 -0.0621486
5 3.86721 0 0 0 0 -0.0944725
6 3.46652 -1.90644 0.948191 -0.219967 0.143677 -1.25778
7 1.49066 0 0 0.0130807 0.005193 0.227171
8 1.99771 0 0 -0.021977 -0.256649 0.795011
9 0.358219 -0.000130162 -0.000133365 -1.5708 0.000372497 -0.000364239
10 3.57113 0 0 0 0 0.0347795
11 2.11638 0 0 0 0 -0.294347
12 1.97852 0 0 0 0 0
13 3.46652 -1.90644 -0.948 0.181457 0.246587 -3.01406
14 1.49066 0 0 0.0162691 0.0204196 1.08919
15 1.9977 0 0 -0.13361 0.27146 1.00386
16 0.358219 -0.000129938 -0.000133753 -1.57744 0.0184172 0.607527
17 0.635818 -1.41048 1.8265 -0.0840877 -0.170684 -0.98041
18 1.5758 0 0 -0.138052 0.15117 -2.09747
19 1.24879 0 0 0.035106 0.0928816 2.79924
20 1.03455 0 0 -0.0444361 -0.0239487 -0.323042
21 0.635816 -1.41048 -1.8265 -0.124384 0.0254307 -0.261731
22 1.5758 0 0 -0.386175 0.133681 -2.26806
23 1.24879 0 0 -0.0768128 -0.247211 1.74012
24 1.03455 0 0 -0.0045257 0.00122015 0.261797
time 3
0 0 5.80079 2.80903 1.5708 -0.319137 -1.5708
1 -1.57202 -1.84079 0 0 0 2.94626
2 3.15237 0 0 0 0 -0.240052
3 2.79335 0 0 0 0 -0.124805
4 3.38194 0 0 0 0 -0.0621486
5 3.86721 0 0 0 0 -0.0944725
6 3.46652 -1.90644 0.948191 -0.219967 0.143677 -1.25778
7 1.49066 0 0 0.0130807 0.005193 0.227171
8 1.99771 0 0 -0.021977 -0.256649 0.795011
9 0.358219 -0.000130162 -0.000133365 -1.5708 0.000372497 -0.000364239
10 3.57113 0 0 0 0 0.0347795
11 2.11638 0 0 0 0 -0.294347
12 1.97852 0 0 0 0 0
13 3.46652 -1.90644 -0.948 0.181457 0.246587 -3.01406
14 1.49066 0 0 0.0162691 0.0204196 1.08919
15 1.9977 0 0 -0.13361 0.27146 1.00386
16 0.358219 -0.000129938 -0.000133753 -1.57744 0.0184172 0.607527
17 0.635818 -1.41048 1.8265 -0.0840877 -0.170684 -0.98041
18 1.5758 0 0 -0.138052 0.15117 -2.09747
19 1.24879 0 0 0.035106 0.0928816 2.79924
20 1.03455 0 0 -0.0444361 -0.0239487 -0.323042
21 0.635816 -1.41048 -1.8265 -0.124384 0.0254307 -0.261731
22 1.5758 0 0 -0.386175 0.133681 -2.26806
23 1.24879 0 0 -0.0768128 -0.247211 1.74012
24 1.03455 0 0 -0.0045257 0.00122015 0.261797
time 4
0 0 5.80079 2.80903 1.5708 -0.319137 -1.5708
1 -1.57202 -1.84079 0 0 0 2.94626
2 3.15237 0 0 0 0 -0.240052
3 2.79335 0 0 0 0 -0.124805
4 3.38194 0 0 0 0 -0.0621486
5 3.86721 0 0 0 0 -0.0944725
6 3.46652 -1.90644 0.948191 -0.219967 0.143677 -1.25778
7 1.49066 0 0 0.0130807 0.005193 0.227171
8 1.99771 0 0 -0.021977 -0.256649 0.795011
9 0.358219 -0.000130162 -0.000133365 -1.5708 0.000372497 -0.000364239
10 3.57113 0 0 0 0 0.0347795
11 2.11638 0 0 0 0 -0.294347
12 1.97852 0 0 0 0 0
13 3.46652 -1.90644 -0.948 0.181457 0.246587 -3.01406
14 1.49066 0 0 0.0162691 0.0204196 1.08919
15 1.9977 0 0 -0.13361 0.27146 1.00386
16 0.358219 -0.000129938 -0.000133753 -1.57744 0.0184172 0.607527
17 0.635818 -1.41048 1.8265 -0.0840877 -0.170684 -0.98041
18 1.5758 0 0 -0.138052 0.15117 -2.09747
19 1.24879 0 0 0.035106 0.0928816 2.79924
20 1.03455 0 0 -0.0444361 -0.0239487 -0.323042
21 0.635816 -1.41048 -1.8265 -0.124384 0.0254307 -0.261731
22 1.5758 0 0 -0.386175 0.133681 -2.26806
23 1.24879 0 0 -0.0768128 -0.247211 1.74012
24 1.03455 0 0 -0.0045257 0.00122015 0.261797
time 5
0 0 5.80079 2.80903 1.5708 -0.319137 -1.5708
1 -1.57202 -1.84079 0 0 0 2.94626
2 3.15237 0 0 0 0 -0.240052
3 2.79335 0 0 0 0 -0.124805
4 3.38194 0 0 0 0 -0.0621486
5 3.86721 0 0 0 0 -0.0944725
6 3.46652 -1.90644 0.948191 -0.219967 0.143677 -1.25778
7 1.49066 0 0 0.0130807 0.005193 0.227171
8 1.99771 0 0 -0.021977 -0.256649 0.795011
9 0.358219 -0.000130162 -0.000133365 -1.5708 0.000372497 -0.000364239
10 3.57113 0 0 0 0 0.0347795
11 2.11638 0 0 0 0 -0.294347
12 1.97852 0 0 0 0 0
13 3.46652 -1.90644 -0.948 0.181457 0.246587 -3.01406
14 1.49066 0 0 0.0162691 0.0204196 1.08919
15 1.9977 0 0 -0.13361 0.27146 1.00386
16 0.358219 -0.000129938 -0.000133753 -1.57744 0.0184172 0.607527
17 0.635818 -1.41048 1.8265 -0.0840877 -0.170684 -0.98041
18 1.5758 0 0 -0.138052 0.15117 -2.09747
19 1.24879 0 0 0.035106 0.0928816 2.79924
20 1.03455 0 0 -0.0444361 -0.0239487 -0.323042
21 0.635816 -1.41048 -1.8265 -0.124384 0.0254307 -0.261731
22 1.5758 0 0 -0.386175 0.133681 -2.26806
23 1.24879 0 0 -0.0768128 -0.247211 1.74012
24 1.03455 0 0 -0.0045257 0.00122015 0.261797
time 6
0 0 5.80079 2.80903 1.5708 -0.319137 -1.5708
1 -1.57202 -1.84079 0 0 0 2.94626
2 3.15237 0 0 0 0 -0.240052
3 2.79335 0 0 0 0 -0.124805
4 3.38194 0 0 0 0 -0.0621486
5 3.86721 0 0 0 0 -0.0944725
6 3.46652 -1.90644 0.948191 -0.219967 0.143677 -1.25778
7 1.49066 0 0 0.0130807 0.005193 0.227171
8 1.99771 0 0 -0.021977 -0.256649 0.795011
9 0.358219 -0.000130162 -0.000133365 -1.5708 0.000372497 -0.000364239
10 3.57113 0 0 0 0 0.0347795
11 2.11638 0 0 0 0 -0.294347
12 1.97852 0 0 0 0 0
13 3.46652 -1.90644 -0.948 0.181457 0.246587 -3.01406
14 1.49066 0 0 0.0162691 0.0204196 1.08919
15 1.9977 0 0 -0.13361 0.27146 1.00386
16 0.358219 -0.000129938 -0.000133753 -1.57744 0.0184172 0.607527
17 0.635818 -1.41048 1.8265 -0.0840877 -0.170684 -0.98041
18 1.5758 0 0 -0.138052 0.15117 -2.09747
19 1.24879 0 0 0.035106 0.0928816 2.79924
20 1.03455 0 0 -0.0444361 -0.0239487 -0.323042
21 0.635816 -1.41048 -1.8265 -0.124384 0.0254307 -0.261731
22 1.5758 0 0 -0.386175 0.133681 -2.26806
23 1.24879 0 0 -0.0768128 -0.247211 1.74012
24 1.03455 0 0 -0.0045257 0.00122015 0.261797
time 7
0 0 5.80079 2.80903 1.5708 -0.319137 -1.5708
1 -1.57202 -1.84079 0 0 0 2.94626
2 3.15237 0 0 0 0 -0.240052
3 2.79335 0 0 0 0 -0.124805
4 3.38194 0 0 0 0 -0.0621486
5 3.86721 0 0 0 0 -0.0944725
6 3.46652 -1.90644 0.948191 -0.219967 0.143677 -1.25778
7 1.49066 0 0 0.0130807 0.005193 0.227171
8 1.99771 0 0 -0.021977 -0.256649 0.795011
9 0.358219 -0.000130162 -0.000133365 -1.5708 0.000372497 -0.000364239
10 3.57113 0 0 0 0 0.0347795
11 2.11638 0 0 0 0 -0.294347
12 1.97852 0 0 0 0 0
13 3.46652 -1.90644 -0.948 0.181457 0.246587 -3.01406
14 1.49066 0 0 0.0162691 0.0204196 1.08919
15 1.9977 0 0 -0.13361 0.27146 1.00386
16 0.358219 -0.000129938 -0.000133753 -1.57744 0.0184172 0.607527
17 0.635818 -1.41048 1.8265 -0.0840877 -0.170684 -0.98041
18 1.5758 0 0 -0.138052 0.15117 -2.09747
19 1.24879 0 0 0.035106 0.0928816 2.79924
20 1.03455 0 0 -0.0444361 -0.0239487 -0.323042
21 0.635816 -1.41048 -1.8265 -0.124384 0.0254307 -0.261731
22 1.5758 0 0 -0.386175 0.133681 -2.26806
23 1.24879 0 0 -0.0768128 -0.247211 1.74012
24 1.03455 0 0 -0.0045257 0.00122015 0.261797
time 8
0 0 5.80079 2.80903 1.5708 -0.319137 -1.5708
1 -1.57202 -1.84079 0 0 0 2.94626
2 3.15237 0 0 0 0 -0.240052
3 2.79335 0 0 0 0 -0.124805
4 3.38194 0 0 0 0 -0.0621486
5 3.86721 0 0 0 0 -0.0944725
6 3.46652 -1.90644 0.948191 -0.219967 0.143677 -1.25778
7 1.49066 0 0 0.0130807 0.005193 0.227171
8 1.99771 0 0 -0.021977 -0.256649 0.795011
9 0.358219 -0.000130162 -0.000133365 -1.5708 0.000372497 -0.000364239
10 3.57113 0 0 0 0 0.0347795
11 2.11638 0 0 0 0 -0.294347
12 1.97852 0 0 0 0 0
13 3.46652 -1.90644 -0.948 0.181457 0.246587 -3.01406
14 1.49066 0 0 0.0162691 0.0204196 1.08919
15 1.9977 0 0 -0.13361 0.27146 1.00386
16 0.358219 -0.000129938 -0.000133753 -1.57744 0.0184172 0.607527
17 0.635818 -1.41048 1.8265 -0.0840877 -0.170684 -0.98041
18 1.5758 0 0 -0.138052 0.15117 -2.09747
19 1.24879 0 0 0.035106 0.0928816 2.79924
20 1.03455 0 0 -0.0444361 -0.0239487 -0.323042
21 0.635816 -1.41048 -1.8265 -0.124384 0.0254307 -0.261731
22 1.5758 0 0 -0.386175 0.133681 -2.26806
23 1.24879 0 0 -0.0768128 -0.247211 1.74012
24 1.03455 0 0 -0.0045257 0.00122015 0.261797
time 9
0 0 5.80079 2.80903 1.5708 -0.319137 -1.5708
1 -1.57202 -1.84079 0 0 0 2.94626
2 3.15237 0 0 0 0 -0.240052
3 2.79335 0 0 0 0 -0.124805
4 3.38194 0 0 0 0 -0.0621486
5 3.86721 0 0 0 0 -0.0944725
6 3.46652 -1.90644 0.948191 -0.219967 0.143677 -1.25778
7 1.49066 0 0 0.0130807 0.005193 0.227171
8 1.99771 0 0 -0.021977 -0.256649 0.795011
9 0.358219 -0.000130162 -0.000133365 -1.5708 0.000372497 -0.000364239
10 3.57113 0 0 0 0 0.0347795
11 2.11638 0 0 0 0 -0.294347
12 1.97852 0 0 0 0 0
13 3.46652 -1.90644 -0.948 0.181457 0.246587 -3.01406
14 1.49066 0 0 0.0162691 0.0204196 1.08919
15 1.9977 0 0 -0.13361 0.27146 1.00386
16 0.358219 -0.000129938 -0.000133753 -1.57744 0.0184172 0.607527
17 0.635818 -1.41048 1.8265 -0.0840877 -0.170684 -0.98041
18 1.5758 0 0 -0.138052 0.15117 -2.09747
19 1.24879 0 0 0.035106 0.0928816 2.79924
20 1.03455 0 0 -0.0444361 -0.0239487 -0.323042
21 0.635816 -1.41048 -1.8265 -0.124384 0.0254307 -0.261731
22 1.5758 0 0 -0.386175 0.133681 -2.26806
23 1.24879 0 0 -0.0768128 -0.247211 1.74012
24 1.03455 0 0 -0.0045257 0.00122015 0.261797
time 10
0 0 5.80079 2.80903 1.5708 -0.319137 -1.5708
1 -1.57202 -1.84079 0 0 0 2.94626
2 3.15237 0 0 0 0 -0.240052
3 2.79335 0 0 0 0 -0.124805
4 3.38194 0 0 0 0 -0.0621486
5 3.86721 0 0 0 0 -0.0944725
6 3.46652 -1.90644 0.948191 -0.219967 0.143677 -1.25778
7 1.49066 0 0 0.0130807 0.005193 0.227171
8 1.99771 0 0 -0.021977 -0.256649 0.795011
9 0.358219 -0.000130162 -0.000133365 -1.5708 0.000372497 -0.000364239
10 3.57113 0 0 0 0 0.0347795
11 2.11638 0 0 0 0 -0.294347
12 1.97852 0 0 0 0 0
13 3.46652 -1.90644 -0.948 0.181457 0.246587 -3.01406
14 1.49066 0 0 0.0162691 0.0204196 1.08919
15 1.9977 0 0 -0.13361 0.27146 1.00386
16 0.358219 -0.000129938 -0.000133753 -1.57744 0.0184172 0.607527
17 0.635818 -1.41048 1.8265 -0.0840877 -0.170684 -0.98041
18 1.5758 0 0 -0.138052 0.15117 -2.09747
19 1.24879 0 0 0.035106 0.0928816 2.79924
20 1.03455 0 0 -0.0444361 -0.0239487 -0.323042
21 0.635816 -1.41048 -1.8265 -0.124384 0.0254307 -0.261731
22 1.5758 0 0 -0.386175 0.133681 -2.26806
23 1.24879 0 0 -0.0768128 -0.247211 1.74012
24 1.03455 0 0 -0.0045257 0.00122015 0.261797
end
