//Sequence File generated by the Wall Worm SMD Exporter PRO 1.99
//www.wallworm.com
version 1
nodes
0 "rat_hip" -1
1 "rat_spine" 0
2 "rat_r_forearm" 1
3 "rat_r_ulna" 2
4 "rat_r_paw" 3
5 "rat_r_pawtoe" 4
6 "rat_neck" 1
7 "rat_face" 6
8 "rat_nose" 7
9 "rat_r_femur" 0
10 "rat_r_radius" 9
11 "rat_r_foot" 10
12 "rat_r_toes" 11
13 "rat_l_femur" -1
14 "rat_l_foot" -1
15 "rat_l_forearm" -1
16 "rat_l_paw" -1
17 "rat_l_pawtoe" -1
18 "rat_l_radius" -1
19 "rat_l_toes" -1
20 "rat_l_ulna" -1
21 "rat_tail001" -1
22 "rat_tail002" 21
23 "rat_tail003" 22
24 "rat_tail004" 23
end
skeleton
time 0
0 0 5.88481 4.37859 1.5708 -0.19839 -1.5708
1 3.86721 0 0 0 0 -0.244779
2 3.46652 -1.90644 0.948191 -0.0344954 0.0624033 -1.17352
3 1.49066 0 0 0.0130807 0.0226971 1.73812
4 1.99771 0 0 -0.00974799 -0.0925895 -0.943078
5 0.358219 -0.0001297 -0.000133336 -1.5708 0.000372529 -0.15304
6 3.57113 0 0 0 0 0.159629
7 2.11638 0 0 0 0 -0.294347
8 1.97852 0 0 0 0 0
9 0.635818 -1.41048 1.8265 -0.0011438 -0.117422 -1.61719
10 1.5758 0 0 -0.138052 0.15338 -1.06924
11 1.24879 0 0 -0.062285 -0.069093 2.01594
12 1.03455 0 0 0 0 0.261799
13 1.8265 4.98348 3.12109 1.75216 1.0329 -1.39744
14 1.89238 4.64834 0.609191 1.65743 0.286599 -1.46458
15 0.948001 -1.28093 3.07558 -1.57425 0.617305 1.35939
16 0.761614 -2.04074 2.20179 1.5708 0.483488 -1.5708
17 0.761748 -2.3578 2.03517 0 0.823488 -1.5708
18 1.96576 4.18824 1.76781 -1.33634 1.18846 1.72894
19 1.99759 3.66159 0.316734 1.65392 0.0257322 -1.48699
20 1.20306 -0.0924458 2.21273 1.56046 0.00547829 -1.79362
21 0 7.30597 2.38743 -1.5708 0.522486 1.5708
22 3.15237 0 0 0 0 -0.453797
23 2.79335 0 0 0 0 -0.338549
24 3.38194 0 0 0 0 -0.275893
time 1
0 0 2.93305 4.37859 1.5708 -0.189821 -1.5708
1 3.86721 0 0 0 0 -0.191482
2 3.46652 -1.90644 0.948191 -0.0238642 0.0433631 -0.61467
3 1.49066 0 0 0.0130806 0.0108255 0.48897
4 1.99771 0 0 -0.00972567 -0.0611723 -0.043659
5 0.358219 -0.000129938 -0.000133336 -1.5708 0.000372291 -0.511207
6 3.57113 0 0 0 0 0.0711409
7 2.11638 0 0 0 0 -0.294347
8 1.97852 0 0 0 0 0
9 0.635818 -1.41048 1.8265 0.0184978 -0.0934444 -2.10008
10 1.5758 0 0 -0.138053 0.120393 -0.760056
11 1.24879 0 0 -0.0412417 -0.116172 1.87533
12 1.03455 0 0 0.0260906 0.00135697 0.561574
13 1.8265 2.04252 3.11341 2.58292 1.42699 -0.55437
14 1.89236 2.9818 0.902819 1.69122 0.558547 -1.45059
15 0.948001 -4.32805 3.19601 1.70626 1.3865 -1.51253
16 0.762312 -6.55857 2.07285 1.5708 0.310522 -1.5708
17 0.762445 -6.8996 1.96328 0 0.44309 -1.5708
18 2.01851 1.92364 1.55388 -1.4804 0.548434 1.68945
19 1.99756 2.1108 0.354555 1.671 0.225286 -1.48484
20 0.963908 -4.60075 1.7306 1.58685 -0.172174 -1.6734
21 0 4.37883 3.09228 -1.5708 0.497582 1.5708
22 3.15237 0 0 0 0 -0.317452
23 2.79334 0 0 0 0 -0.218607
24 3.38194 0 0 0 0 -0.453331
time 2
0 0 -0.0229158 4.37859 1.5708 -0.155566 -1.5708
1 3.8672 0 0 0 0 -0.103134
2 3.46652 -1.90644 0.948191 -0.0963468 0.022623 -0.886427
3 1.49066 0 0 0.0130807 0.0108256 0.48897
4 1.99771 0 0 0.0555432 -0.0808015 0.0736882
5 0.358219 -0.000130177 -0.000133395 -1.5708 0.000372425 -0.229037
6 3.57113 0 0 0 0 -0.0414034
7 2.11638 0 0 0 0 -0.294347
8 1.97852 0 0 0 0 0
9 0.635818 -1.41048 1.8265 0.0228087 -0.0609797 -2.43786
10 1.5758 0 0 -0.138052 0.0707237 -0.417322
11 1.24879 0 0 0.0628434 -0.170693 1.06457
12 1.03455 0 0 0.0887704 -0.0348855 1.41401
13 1.8265 -0.869594 3.08366 -1.7344 1.01305 1.38516
14 1.89235 1.1759 1.52498 2.31148 1.41045 -0.880283
15 0.948001 -7.40509 3.25557 1.56377 1.19663 -1.63518
16 0.762314 -9.78881 2.63128 1.5708 0.378552 -1.5708
17 0.762448 -10.1216 2.49876 0 0.12589 -1.5708
18 1.98044 -0.0498901 1.74667 -1.49732 0.178466 1.64254
19 1.99756 1.04857 0.503706 1.68835 0.410894 -1.47939
20 0.912948 -7.9488 1.86804 1.56445 -0.39202 -1.65248
21 0 1.38704 3.85589 -1.5708 0.446992 1.5708
22 3.15237 0 0 0 0 -0.0866642
23 2.79334 0 0 0 0 -0.00422079
24 3.38194 0 0 0 0 -0.760467
time 3
0 0 -3.30089 5.33201 1.5708 -0.0442731 -1.5708
1 3.86721 0 0 0 0 -0.110683
2 3.46652 -1.90644 0.948191 -0.0749225 0.0423713 -0.661932
3 1.49066 0 0 0.0130806 0.00460824 0.201355
4 1.99771 0 0 0.0392617 -0.070246 0.190862
5 0.358218 -0.000130653 -0.000133336 -1.5708 0.000372423 0.0531332
6 3.57113 0 0 0 0 0.0851413
7 2.11638 0 0 0 0 -0.294347
8 1.97852 0 0 0 0 0
9 0.635818 -1.41048 1.8265 -0.0487984 -0.0898423 -2.67161
10 1.5758 0 0 -0.138053 0.149147 -1.02074
11 1.24879 0 0 -0.0110679 -0.171408 1.45421
12 1.03455 0 0 -0.033595 -0.01472 -0.160352
13 1.8265 -3.99851 3.95106 -1.59765 0.627096 1.44467
14 1.89238 -1.65313 3.64697 -1.86486 1.2815 1.20631
15 0.948001 -10.4967 3.37084 1.48826 0.70198 -1.66241
16 0.76239 -13.5687 2.88395 1.5708 0.417509 -1.5708
17 0.762524 -13.8961 2.73857 0 -0.0425846 -1.5708
18 1.98701 -2.73267 3.02639 -1.55103 -0.52008 1.65823
19 1.99758 -1.37739 2.65541 -1.58534 0.84876 1.44383
20 0.843876 -11.6301 2.40827 1.49743 -0.240423 -1.61281
21 0 -1.97917 4.99059 -1.5708 0.411085 1.5708
22 3.15237 0 0 0 0 0.112864
23 2.79335 0 0 0 0 0.228112
24 3.38194 0 0 0 0 -0.923655
time 4
0 0 -6.68623 5.8294 1.5708 0.0792142 -1.5708
1 3.86721 0 0 0 0 -0.0255294
2 3.46652 -1.90644 0.948191 -0.0919266 0.0388263 -0.738448
3 1.49066 0 0 0.0130807 0.00519282 0.227171
4 1.99771 0 0 0.038694 -0.0849509 0.385942
5 0.358219 -0.000130177 -0.000133276 -1.5708 0.000372328 -0.186139
6 3.57113 0 0 0 0 0.0321115
7 2.11638 0 0 0 0 -0.294347
8 1.97852 0 0 0 0 0
9 0.635818 -1.41048 1.8265 -0.0303883 -0.0796001 -2.69416
10 1.5758 0 0 -0.138052 0.124988 -0.797265
11 1.24879 0 0 0.0594123 -0.189003 0.953332
12 1.03455 0 0 -0.0567565 -0.039466 -0.549563
13 1.8265 -7.20845 4.37303 -1.52292 -0.0757807 1.53431
14 1.8923 -4.44551 4.86228 -1.58705 0.618128 1.44569
15 0.948001 -13.7895 3.2649 1.49511 0.376162 -1.63595
16 0.762325 -17.1667 2.63487 1.5708 -0.244079 -1.5708
17 0.762458 -17.5144 2.72131 0 -0.325016 -1.5708
18 1.88381 -5.63821 4.49233 -1.39475 -0.300756 1.56368
19 1.99751 -3.60898 4.26275 -1.49082 0.0116428 1.48701
20 0.857734 -15.173 2.7173 1.48695 0.0412764 -1.61861
21 0 -5.40571 5.65323 -1.5708 0.297971 1.5708
22 3.15237 0 0 0 0 0.244386
23 2.79335 0 0 0 0 0.359634
24 3.38194 0 0 0 0 -0.145083
time 5
0 0 -9.91793 5.82699 1.5708 0.218684 -1.5708
1 3.8672 0 0 0 0 0.128651
2 3.46652 -1.90644 0.948191 -0.127239 0.0290824 -0.91009
3 1.49066 0 0 0.0130807 0.00663494 0.292144
4 1.99771 0 0 0.0201267 -0.121747 0.789547
5 0.358217 -0.000130177 -0.000133395 -1.5708 0.000372343 -0.144844
6 3.57113 0 0 0 0 -0.00112563
7 2.11638 0 0 0 0 -0.294347
8 1.97852 0 0 0 0 0
9 0.635816 -1.41048 1.8265 -0.121231 -0.116186 -2.49776
10 1.5758 0 0 -0.138053 0.161428 -1.96887
11 1.24879 0 0 0.00932306 0.0123337 2.64822
12 1.03455 0 0 -0.0354711 -0.0161084 -0.186995
13 1.8265 -10.2326 4.31217 -1.50885 0.337553 1.45757
14 1.89239 -8.40744 4.98532 -1.7079 1.08242 1.35233
15 0.948001 -16.9741 2.77757 1.60142 1.02947 -1.60978
16 0.762112 -19.6964 1.11908 1.5708 -0.192844 -1.5708
17 0.762245 -20.048 1.1876 0 0.105376 -1.5708
18 1.9945 -8.75526 3.7903 -1.8201 -1.27628 1.85635
19 1.9976 -7.93357 4.07171 -1.5387 0.526765 1.47384
20 0.918068 -17.7416 1.50003 1.57046 0.191868 -1.65041
21 0 -8.46839 5.86626 -1.5708 0.0518009 1.5708
22 3.15237 0 0 0 0 0.16211
23 2.79335 0 0 0 0 0.304226
24 3.38194 0 0 0 0 0.277658
time 6
0 0 -13.0846 5.70246 1.5708 0.050835 -1.5708
1 3.8672 0 0 0 0 -0.161032
2 3.46652 -1.90644 0.948191 -0.195675 -0.142761 -2.14786
3 1.49066 0 0 0.0130807 0.0228993 1.467
4 1.99771 0 0 -0.0792324 -0.238779 0.966727
5 0.358215 -0.000130057 -0.000133276 -1.5708 0.00037241 -0.158898
6 3.57113 0 0 0 0 0.18776
7 2.11638 0 0 0 0 -0.294347
8 1.97852 0 0 0 0 0
9 0.635817 -1.41048 1.8265 -0.0811562 -0.19949 -1.39598
10 1.5758 0 0 -0.138053 0.132643 -2.27959
11 1.24879 0 0 0.028935 0.132006 2.76002
12 1.03455 0 0 -0.0404181 -0.0201673 -0.260055
13 1.8265 -13.6479 4.26149 -1.72302 0.955907 1.30061
14 1.89239 -11.9646 3.91052 1.90707 1.21626 -1.27351
15 0.948001 -19.9349 2.91312 1.62308 1.0302 -1.64143
16 0.762221 -22.0808 0.197173 1.5708 -0.24894 -1.5708
17 0.762354 -22.428 0.285299 0 -0.053047 -1.5708
18 2.06913 -12.7719 2.97432 -1.76514 -0.847585 1.78633
19 1.99759 -12.308 2.94031 -1.84073 1.33117 1.21045
20 0.893859 -20.7002 1.63503 1.59108 0.803448 -1.66586
21 0 -11.558 5.34984 -1.5708 -0.000511527 1.5708
22 3.15237 0 0 0 0 -0.0336875
23 2.79334 0 0 0 0 0.179161
24 3.38194 0 0 0 0 0.279369
time 7
0 0 -15.8037 5.40487 1.5708 -0.0351688 -1.5708
1 3.86721 0 0 0 0 -0.118293
2 3.46652 -1.90644 0.948191 -0.245672 0.0320575 -2.25078
3 1.49066 0 0 0.0130807 0.00321616 0.139904
4 1.99771 0 0 -0.0373616 -0.233512 1.43283
5 0.358218 -0.000131607 -0.000133336 -1.5708 0.00037235 0.505811
6 3.57113 0 0 0 0 0.101783
7 2.11638 0 0 0 0 -0.294347
8 1.97852 0 0 0 0 0
9 0.63582 -1.41048 1.8265 -0.151134 -0.052778 -0.382283
10 1.5758 0 0 -0.138052 0.17205 -1.3843
11 1.24879 0 0 0.0348126 -0.192872 1.48735
12 1.03455 0 0 -0.0351 -0.0158275 -0.181681
13 1.8265 -16.4888 4.01762 1.74654 0.213105 -1.49599
14 1.89239 -17.3524 2.63307 1.62606 -0.0120867 -1.46892
15 0.948001 -22.9648 3.35311 -1.5164 1.19855 1.37816
16 0.762318 -23.3098 0.193202 1.5708 -0.218452 -1.5708
17 0.762452 -23.6595 0.270707 0 0.170899 -1.5708
18 1.94161 -18.0246 3.68434 -1.49616 1.00067 1.64389
19 1.9976 -18.3815 2.64557 1.69027 0.429877 -1.4786
20 1.0518 -22.4327 1.96455 1.48166 1.09013 -1.88957
21 0 -14.241 4.57898 -1.5708 0.184117 1.5708
22 3.15237 0 0 0 0 -0.266455
23 2.79335 0 0 0 0 0.0461775
24 3.38194 0 0 0 0 0.279614
time 8
0 0 -19.2239 4.82546 1.5708 -0.127043 -1.5708
1 3.8672 0 0 0 0 -0.266364
2 3.46652 -1.90644 0.948191 -0.12647 -0.236731 -2.76269
3 1.49066 0 0 0.0130804 0.0163627 2.35098
4 1.99771 0 0 0.275907 -0.0485988 -1.154
5 0.358218 -0.0001297 -0.000133276 -1.5708 0.00037241 -0.515005
6 3.57113 0 0 0 0 0.266439
7 2.11638 0 0 0 0 -0.294347
8 1.97852 0 0 0 0 0
9 0.635818 -1.41048 1.8265 -0.168861 -0.0348323 -0.348869
10 1.5758 0 0 -0.138052 0.159555 -1.14806
11 1.24879 0 0 0.111188 -0.238409 1.19731
12 1.03455 0 0 -0.0230169 -0.00819148 -0.0182733
13 1.8265 -20.0333 3.50691 1.75018 0.190606 -1.53683
14 1.89232 -21.8169 1.98238 1.62795 0.00640742 -1.46893
15 0.948001 -26.2281 2.94602 -1.36012 -0.0595431 1.41016
16 0.762315 -24.4845 1.1019 -1.5708 1.32426 1.57079
17 0.762449 -24.397 0.754588 3.14159 0.941057 1.5708
18 1.87904 -21.5797 3.20836 1.79783 1.37937 -1.5149
19 1.99752 -22.8461 1.97575 1.69971 0.518669 -1.47429
20 1.18601 -24.7593 3.03473 -0.43057 1.31525 2.5663
21 0 -17.7144 3.50549 -1.5708 0.391848 1.5708
22 3.15237 0 0 0 0 -0.658559
23 2.79335 0 0 0 0 -0.105284
24 3.38194 0 0 0 0 0.101115
time 9
0 0 -22.455 4.46603 1.5708 -0.255866 -1.5708
1 3.86721 0 0 0 0 -0.435397
2 3.46652 -1.90644 0.948191 -0.0998244 -0.0429038 -1.81753
3 1.49066 0 0 0.0130806 0.0188146 2.18472
4 1.99771 0 0 0.0726734 -0.108302 -0.8698
5 0.358219 -0.0001297 -0.000133395 -1.5708 0.000372395 -0.344744
6 3.57113 0 0 0 0 0.359241
7 2.11638 0 0 0 0 -0.294347
8 1.97852 0 0 0 0 0
9 0.635817 -1.41048 1.8265 -0.122491 -0.0381802 -0.779628
10 1.5758 0 0 -0.138052 0.0935738 -0.565458
11 1.24879 0 0 0.198115 -0.233424 0.786806
12 1.03455 0 0 -0.0338368 -0.0148944 -0.163754
13 1.8265 -23.4271 3.26239 1.70431 0.72994 -1.53017
14 1.89238 -25.32 1.1911 1.62243 -0.0476039 -1.46881
15 0.948001 -29.2667 2.94989 -1.48553 0.114719 1.32094
16 0.761421 -29.4821 1.7984 -1.5708 1.08235 1.57079
17 0.761554 -29.3139 1.48216 3.14159 0.716256 1.5708
18 1.8742 -24.6005 2.2116 1.82647 0.956522 -1.54553
19 1.99758 -26.348 1.24033 1.69025 0.429732 -1.47861
20 1.31417 -27.8319 2.77926 1.45273 0.513231 -1.89401
21 0 -21.1729 2.58264 -1.5708 0.328197 1.5708
22 3.15237 0 0 0 0 -0.564897
23 2.79334 0 0 0 0 -0.264664
24 3.38194 0 0 0 0 -0.230383
time 10
0 0 -25.6217 4.2869 1.5708 -0.309711 -1.5708
1 3.86721 0 0 0 0 -0.528971
2 3.46652 -1.90644 0.948191 -0.0160604 0.0827819 -1.04358
3 1.49066 0 0 0.0130806 0.0229144 1.66474
4 1.99771 0 0 -0.0588036 -0.0835947 -0.644681
5 0.358219 -0.0001297 -0.000133336 -1.5708 0.000372358 -0.15304
6 3.57113 0 0 0 0 0.467055
7 2.11637 0 0 0 0 -0.294347
8 1.97852 0 0 0 0 0
9 0.635818 -1.41048 1.8265 -0.0346445 -0.0400494 -1.36611
10 1.5758 0 0 -0.138052 0.0454847 -0.263854
11 1.24879 0 0 0.111213 -0.222465 1.12021
12 1.03455 0 0 -0.0220843 -0.0077111 -0.00628858
13 1.8265 -26.6572 3.13731 1.68573 0.979475 -1.47804
14 1.89236 -27.7076 0.592806 1.64325 0.154813 -1.46769
15 0.948001 -32.2738 2.85071 -1.54205 1.37846 1.51884
16 0.762169 -33.9597 1.64828 -1.57081 1.50011 1.57079
17 0.762303 -33.9342 1.29101 3.14159 1.16011 1.5708
18 1.90786 -27.5318 1.82907 1.63352 1.42906 -1.65879
19 1.99757 -28.7243 0.433284 1.67766 0.29921 -1.48311
20 0.962798 -31.9892 1.38754 1.55505 -0.130896 -1.67227
21 0 -24.4951 2.10831 -1.5708 0.331322 1.5708
22 3.15237 0 0 0 0 -0.453797
23 2.79335 0 0 0 0 -0.338549
24 3.38194 0 0 0 0 -0.408882
end
