//Sequence File generated by the Wall Worm SMD Exporter PRO 1.99
//www.wallworm.com
version 1
nodes
0 "rat_hip" -1
1 "rat_spine" 0
2 "rat_r_forearm" 1
3 "rat_r_ulna" 2
4 "rat_r_paw" 3
5 "rat_r_pawtoe" 4
6 "rat_neck" 1
7 "rat_face" 6
8 "rat_nose" 7
9 "rat_r_femur" 0
10 "rat_r_radius" 9
11 "rat_r_foot" 10
12 "rat_r_toes" 11
13 "rat_l_femur" -1
14 "rat_l_foot" -1
15 "rat_l_forearm" -1
16 "rat_l_paw" -1
17 "rat_l_pawtoe" -1
18 "rat_l_radius" -1
19 "rat_l_toes" -1
20 "rat_l_ulna" -1
21 "rat_tail001" -1
22 "rat_tail002" 21
23 "rat_tail003" 22
24 "rat_tail004" 23
end
skeleton
time 0
0 0 5.80079 4.6089 1.62325 0.0594955 -1.60377
1 3.86721 0 0 -0.05236 0.0257826 -0.0765032
2 3.46652 -1.90644 0.948191 -0.0520774 0.0741735 -0.732862
3 1.49066 0 0 0.0130807 0.0133888 0.620649
4 1.99771 0 0 -0.0507288 -0.0903462 0.333324
5 0.358219 -0.000130177 -0.000133336 -1.5708 0.000372482 -0.000364397
6 3.57113 0 0 0 0 -0.116766
7 2.11638 0 0 0 0 -0.294347
8 1.97852 0 0 0 0 0
9 0.635818 -1.41048 1.8265 -0.0574092 -0.214874 -1.66689
10 1.5758 0 0 -0.138052 0.168887 -1.30487
11 1.24879 0 0 -0.0591243 -0.0757074 1.52891
12 1.03455 0 0 0.0797433 -0.0241813 1.25408
13 1.87856 5.18189 3.26064 1.74826 0.738759 -1.56189
14 1.89238 3.99398 0.950971 1.64096 0.132799 -1.46802
15 0.818952 -1.24038 2.02865 -1.39284 -0.0308986 1.45918
16 0.762335 1.33834 0.420738 1.5708 0.497879 -1.5708
17 0.762468 1.02362 0.249537 0 0.116102 -1.5708
18 1.88893 4.01694 2.19955 1.97172 1.5522 -1.42153
19 1.99759 2.97395 0.813988 1.64091 -0.128363 -1.48632
20 0.984915 0.240296 2.0747 -1.23183 0.975409 1.77079
21 0.182781 7.50217 2.29511 -1.62769 0.401732 1.56688
22 3.15237 0 0 0.0132795 -0.0026322 -0.206757
23 2.79335 0 0 0.00073964 0.00992442 -0.122909
24 3.38194 0 0 0 0.00995186 -0.0602484
time 1
0 0 5.28079 4.61524 1.62353 0.0603305 -1.59504
1 3.86721 0 0 -0.0577063 0.022957 -0.0940949
2 3.46652 -1.90644 0.948191 -0.0832641 0.0286303 -1.12135
3 1.49066 0 0 0.0130807 0.0210648 1.15576
4 1.99771 0 0 -0.0209523 -0.111263 0.14874
5 0.358219 -0.000130191 -0.000133336 -1.5708 0.000372436 0.000698579
6 3.57113 0 0 0 0 -0.109256
7 2.11638 0 0 0 0 -0.294347
8 1.97852 0 0 0 0 0
9 0.635818 -1.41048 1.8265 -0.015465 -0.178817 -2.01119
10 1.5758 0 0 -0.138052 0.135175 -0.884288
11 1.24879 0 0 0.00416003 -0.14196 1.38106
12 1.03455 0 0 0.0765631 -0.0230433 1.21438
13 1.88429 4.6794 3.26705 1.73212 0.887544 -1.55556
14 1.89238 3.58644 0.800082 1.6373 0.117415 -1.46857
15 0.865157 -1.70974 1.96861 -1.38534 -0.183504 1.469
16 0.762346 0.951747 0.66608 1.5708 0.651538 -1.57079
17 0.762479 0.666919 0.448723 0 0.0789545 -1.5708
18 1.89944 3.68468 2.04498 1.7553 1.49185 -1.64256
19 1.99723 2.56438 0.678889 1.64417 -0.0575817 -1.4869
20 1.01409 -0.251692 2.24062 -1.25686 0.907841 1.77701
21 0.159435 6.98853 2.28973 -1.62794 0.402732 1.57178
22 3.15237 0 0 0.0141568 0.000744801 -0.206092
23 2.79335 0 0 0.000817748 0.0108836 -0.122979
24 3.38194 0 0 0.000109636 0.0109139 -0.0603189
time 2
0 0 4.76079 4.6214 1.62372 0.060887 -1.58535
1 3.86721 0 0 -0.0663485 0.0160983 -0.123101
2 3.46652 -1.90644 0.948191 -0.100427 -0.00945127 -1.40474
3 1.49066 0 0 0.0130805 0.0229586 1.4998
4 1.99771 0 0 0.00811743 -0.132576 0.0439461
5 0.358218 -0.000130177 -0.000133336 -1.5708 0.000372296 0.0050984
6 3.57113 0 0 0 0 -0.0921435
7 2.11638 0 0 0 0 -0.294347
8 1.97852 0 0 0 0 0
9 0.635817 -1.41048 1.8265 0.012716 -0.135661 -2.30101
10 1.5758 0 0 -0.138052 0.0814713 -0.485338
11 1.24879 0 0 0.0816421 -0.178554 1.17297
12 1.03455 0 0 0.0682394 -0.0200483 1.11038
13 1.89028 4.17841 3.27326 1.7036 1.19673 -1.57079
14 1.89232 3.10154 0.66257 1.63929 0.116725 -1.46823
15 0.899106 -2.15116 1.87192 -1.3448 -0.530672 1.4158
16 0.762315 0.162525 0.956138 1.5708 0.920903 -1.57079
17 0.762449 -0.0541359 0.670857 0 0.852325 -1.5708
18 1.89029 3.60262 1.80642 1.84526 1.15791 -1.56674
19 1.99753 2.07944 0.542086 1.65389 0.0535573 -1.48783
20 1.09758 -0.880925 2.62636 -1.18603 0.990079 1.88168
21 0.120785 6.47456 2.28388 -1.62809 0.403861 1.57694
22 3.15237 0 0 0.0150786 0.00442336 -0.205412
23 2.79334 0 0 0.000953081 0.0125142 -0.123164
24 3.38194 0 0 0.000148623 0.0125496 -0.0605064
time 3
0 0 4.24079 4.60345 1.62382 0.0611653 -1.57579
1 3.8672 0 0 -0.0738893 0.00763646 -0.150624
2 3.46652 -1.90644 0.948191 -0.112847 -0.0499129 -1.69254
3 1.49066 0 0 0.0130806 0.0222909 1.82316
4 1.99771 0 0 0.0225791 -0.158085 0.0229876
5 0.358219 -0.000130147 -0.000133395 -1.5708 0.000372259 0.0146515
6 3.57113 0 0 0 0 -0.0735491
7 2.11638 0 0 0 0 -0.294347
8 1.97852 0 0 0 0 0
9 0.635818 -1.41048 1.8265 0.00433408 -0.137808 -2.30414
10 1.5758 0 0 -0.138053 0.100453 -0.613177
11 1.24879 0 0 0.0651843 -0.181275 1.25819
12 1.03455 0 0 0.0565959 -0.0158269 0.964755
13 1.89589 3.67688 3.25533 1.66127 1.29701 -1.58004
14 1.89248 2.8669 0.549921 1.63896 0.141912 -1.46801
15 0.926657 -2.59538 1.75987 -1.26853 -0.72952 1.33198
16 0.762293 -0.753255 0.957006 1.5708 1.12041 -1.57079
17 0.762427 -0.909062 0.634526 3.14159 1.4284 1.5708
18 1.89195 3.25084 1.73822 1.80936 1.25828 -1.56942
19 1.99756 1.84815 0.403599 1.65344 0.0940845 -1.48782
20 1.18954 -1.51564 2.75341 -0.999665 1.11801 2.08159
21 0.0786479 5.95925 2.25441 -1.62815 0.405059 1.58191
22 3.15237 0 0 0.0160186 0.00827848 -0.204788
23 2.79335 0 0 0.00112585 0.0145863 -0.123428
24 3.38194 0 0 0.000200222 0.0146281 -0.060775
time 4
0 0 3.72079 4.53953 1.62382 0.0611653 -1.56745
1 3.8672 0 0 -0.0759324 0 -0.16377
2 3.46652 -1.90644 0.948191 -0.120799 -0.111851 -2.04888
3 1.49066 0 0 0.0130808 0.0198298 2.10333
4 1.9977 0 0 0.0213558 -0.198092 0.127997
5 0.358219 -0.000130177 -0.000133336 -1.5708 0.00037241 0.031174
6 3.57113 0 0 0 0 -0.0615959
7 2.11638 0 0 0 0 -0.294347
8 1.97852 0 0 0 0 0
9 0.635818 -1.41048 1.8265 -0.0375694 -0.179517 -2.07029
10 1.5758 0 0 -0.138052 0.163483 -1.20563
11 1.24879 0 0 -0.0180493 -0.109127 1.65729
12 1.03455 0 0 0.0434567 -0.0110094 0.800152
13 1.90053 3.1727 3.19142 1.66298 1.30044 -1.54037
14 1.89238 2.69612 0.425497 1.6488 0.207324 -1.46669
15 0.955382 -3.07798 1.65261 -1.13187 -0.871869 1.17775
16 0.762145 -1.92098 0.895572 1.5708 1.13945 -1.57079
17 0.762279 -2.07063 0.570215 3.14159 1.17218 1.5708
18 1.91333 2.75203 1.67286 1.41019 1.52296 -1.92933
19 1.99758 1.68921 0.212544 1.65737 0.112943 -1.48732
20 1.32272 -2.19203 2.79376 -0.39933 1.25383 2.6912
21 0.044885 5.44215 2.18025 -1.62812 0.406265 1.58625
22 3.15237 0 0 0.0169512 0.0121845 -0.204288
23 2.79335 0 0 0.00131713 0.0168699 -0.123737
24 3.38194 0 0 0.00025794 0.0169191 -0.0610884
time 5
0 0 3.20079 4.4793 1.62372 0.0608871 -1.56009
1 3.86721 0 0 -0.0730404 -0.00672519 -0.157271
2 3.46652 -1.90644 0.948191 -0.114774 -0.196937 -2.50023
3 1.49066 0 0 0.0130808 0.0173628 2.28706
4 1.99771 0 0 -0.0158628 -0.254021 0.413244
5 0.358219 -0.000130177 -0.000133336 -1.5708 0.000372361 0.0564826
6 3.57113 0 0 0 0 -0.0644057
7 2.11638 0 0 0 0 -0.294347
8 1.97852 0 0 0 0 0
9 0.635818 -1.41048 1.8265 -0.0920413 -0.218417 -1.81935
10 1.5758 0 0 -0.138052 0.17085 -1.79433
11 1.24879 0 0 -0.0185534 0.0160375 2.09049
12 1.03455 0 0 0.0306465 -0.00622502 0.639237
13 1.90439 2.66635 3.13116 1.72296 1.04889 -1.44268
14 1.89237 2.56301 0.721064 1.74775 0.438051 -1.42096
15 0.9867 -3.61488 1.6135 -1.12861 -0.713008 1.10962
16 0.760297 -3.17783 0.818624 1.5708 1.02361 -1.57079
17 0.76043 -3.36409 0.512747 3.14159 1.25178 1.5708
18 2.00477 1.88719 1.76515 -1.33273 0.99009 1.7356
19 2.03222 1.63664 0.282234 1.73705 0.251762 -1.46123
20 1.48845 -2.60514 2.58855 0.757451 1.0886 -2.47514
21 0.0290476 4.92327 2.11184 -1.628 0.407425 1.59083
22 3.15237 0 0 0.0178508 0.0160162 -0.203982
23 2.79335 0 0 0.0015068 0.0191351 -0.124055
24 3.38194 0 0 0.000315356 0.0191919 -0.0614104
time 6
0 0 2.68079 4.48228 1.62353 0.0603304 -1.55306
1 3.86721 0 0 -0.066116 -0.0134343 -0.140693
2 3.46652 -1.90644 0.948191 -0.100873 -0.255959 -2.9073
3 1.49066 0 0 0.0130806 0.0173352 2.28889
4 1.99771 0 0 -0.0918145 -0.278572 0.809228
5 0.358219 -0.000130147 -0.000133336 -1.5708 0.000372481 0.0923937
6 3.57113 0 0 0 0 -0.0898525
7 2.11638 0 0 0 0 -0.294347
8 1.97852 0 0 0 0 0
9 0.635818 -1.41048 1.8265 -0.152767 -0.257526 -1.52914
10 1.5758 0 0 -0.138052 0.133207 -2.27463
11 1.24879 0 0 0.0436133 0.10922 2.4337
12 1.03455 0 0 0.0199894 -0.0021044 0.504672
13 1.90787 2.15901 3.13409 1.78811 1.18102 -1.34407
14 1.89238 2.44398 0.791738 1.58603 0.492269 -1.51419
15 1.02236 -4.17984 1.67348 -1.39056 0.0532373 1.30416
16 0.760632 -4.47702 0.846167 1.5708 0.821669 -1.57079
17 0.760766 -4.72083 0.583859 3.14159 1.48625 1.57079
18 2.04246 1.57556 1.67649 -1.38733 0.78735 1.74192
19 1.94397 1.53374 0.302783 1.57739 0.174393 -1.5142
20 1.41458 -2.74389 1.59416 1.35934 0.383776 -1.9316
21 0.0400276 4.40284 2.10949 -1.62778 0.408603 1.59754
22 3.15237 0 0 0.0189218 0.0207685 -0.203963
23 2.79334 0 0 0.0017794 0.0224104 -0.124484
24 3.38194 0 0 0.000395482 0.0224775 -0.0618446
time 7
0 0 2.16079 4.52864 1.62325 0.0594954 -1.54689
1 3.86721 0 0 -0.0512738 -0.0191705 -0.123388
2 3.46652 -1.90644 0.948191 -0.0901937 -0.263627 -3.13386
3 1.49066 0 0 0.0130807 0.0194924 2.13219
4 1.99771 0 0 -0.13769 -0.261566 1.12937
5 0.358219 -0.000130177 -0.000133336 -1.5708 0.00037232 0.140723
6 3.57113 0 0 0 0 -0.129897
7 2.11638 0 0 0 0 -0.294347
8 1.97852 0 0 0 0 0
9 0.635818 -1.41048 1.8265 -0.214503 -0.289199 -1.11903
10 1.5758 0 0 -0.138052 0.0994337 -2.53541
11 1.24879 0 0 0.0621332 0.161872 2.47415
12 1.03455 0 0 0.0133094 0.000722989 0.419115
13 1.9107 1.64968 3.18038 2.02067 1.37848 -1.08676
14 1.89239 2.31483 0.817386 1.62346 0.606551 -1.51314
15 1.07086 -4.74757 1.78959 -1.44102 0.996572 1.488
16 0.761757 -5.85788 0.954667 1.5708 0.582376 -1.57079
17 0.76189 -6.15692 0.757613 0 1.34712 -1.57079
18 2.05086 1.3831 1.63363 -1.41288 0.712366 1.73927
19 1.94137 1.46623 0.227654 1.59958 0.141284 -1.51875
20 1.13782 -3.94064 0.538015 1.48927 -0.210107 -1.76448
21 0.0887099 3.88125 2.15414 -1.62747 0.409659 1.60173
22 3.15237 0 0 0.0195673 0.0235401 -0.203907
23 2.79335 0 0 0.00189562 0.0237639 -0.124741
24 3.38194 0 0 0.000434618 0.0238354 -0.062105
time 8
0 0 1.64079 4.58265 1.57735 0.0594954 -1.54211
1 3.86721 0 0 -0.017474 -0.0240607 -0.10547
2 3.46652 -1.90644 0.948191 -0.150147 -0.220339 3.10667
3 1.49066 0 0 0.0130808 0.0220527 1.86182
4 1.99771 0 0 -0.162421 -0.216107 1.31518
5 0.358219 -0.000130057 -0.000133336 -1.5708 0.000372343 0.203289
6 3.57113 0 0 0 0 -0.168791
7 2.11638 0 0 0 0 -0.294347
8 1.97852 0 0 0 0 0
9 0.635818 -1.41048 1.8265 -0.159913 -0.172239 -0.586337
10 1.5758 0 0 -0.138052 0.11538 -2.42011
11 1.24879 0 0 -0.0319533 0.0523612 2.00196
12 1.03455 0 0 0.0124308 0.00162645 0.40523
13 1.85077 1.14213 3.14884 2.76589 1.43687 -0.355752
14 1.89238 2.17071 1.02044 1.62565 0.800756 -1.54505
15 1.0458 -5.31718 1.88881 -0.162495 1.50878 2.87715
16 0.762197 -7.16931 1.05875 1.5708 0.354499 -1.57079
17 0.762331 -7.50515 0.934333 0 0.973765 -1.5708
18 2.04801 1.06885 1.58716 -1.49153 0.471039 1.71111
19 1.91092 1.45073 0.277755 1.59157 0.18279 -1.54326
20 0.956632 -5.29304 0.401014 1.50046 -0.335506 -1.67406
21 0.0820065 3.35881 2.20507 -1.57757 0.40851 1.61529
22 3.15237 0 0 0.0187722 0.0193993 -0.20335
23 2.79335 0 0 0.00142967 0.0179903 -0.124288
24 3.38194 0 0 0.000313395 0.0180444 -0.0616477
time 9
0 0 1.12079 4.60859 1.54457 0.0594953 -1.53924
1 3.86721 0 0 0.0242438 -0.027978 -0.0868258
2 3.46652 -1.90644 0.948191 -0.162629 -0.178063 3.13056
3 1.49066 0 0 0.0130806 0.0230239 1.53617
4 1.99771 0 0 -0.136828 -0.20116 1.3941
5 0.358218 -0.000130057 -0.000133336 -1.5708 0.00037241 0.382181
6 3.57113 0 0 0 0 -0.19079
7 2.11638 0 0 0 0 -0.294347
8 1.97852 0 0 0 0 0
9 0.635818 -1.41048 1.8265 -0.130518 -0.076103 -0.328998
10 1.5758 0 0 -0.138052 0.155751 -2.04413
11 1.24879 0 0 0.000423249 -0.0850773 1.5435
12 1.03455 0 0 0.0183428 0.000326945 0.474768
13 1.80529 0.629504 3.11547 -2.17606 1.34784 0.964825
14 1.89242 2.0655 1.10381 1.64242 0.916655 -1.56014
15 1.06084 -5.88934 1.98381 1.39371 1.25634 -1.8248
16 0.762319 -8.25758 1.07959 1.5708 0.1868 -1.5708
17 0.762453 -8.6095 1.01295 0 0.607411 -1.5708
18 2.00374 0.915897 1.57868 -1.50901 0.390075 1.66733
19 1.89912 1.43604 0.282826 1.59174 0.0858636 -1.5594
20 0.944986 -6.33562 0.566252 1.50742 -0.259877 -1.66555
21 0.0903668 2.83704 2.22534 -1.54195 0.407433 1.60991
22 3.15237 0 0 0.0171425 0.0112873 -0.202572
23 2.79335 0 0 0.000639695 0.00823848 -0.123459
24 3.38194 0 0 0.000105687 0.0082626 -0.0608104
time 10
0 0 0.600794 4.58731 1.5249 0.0594954 -1.5388
1 3.86721 0 0 0.0446461 -0.0295815 -0.0764574
2 3.46652 -1.90644 0.948191 -0.178237 -0.121882 -3.07127
3 1.49066 0 0 0.0130807 0.0210841 1.15778
4 1.99771 0 0 -0.104544 -0.184653 1.43294
5 0.358219 -0.000130415 -0.000133336 -1.5708 0.00037244 0.640774
6 3.57113 0 0 0 0 -0.186936
7 2.11638 0 0 0 0 -0.294347
8 1.97852 0 0 0 0 0
9 0.635818 -1.41048 1.8265 -0.124367 -0.0241674 -0.338456
10 1.5758 0 0 -0.138053 0.175099 -1.56018
11 1.24879 0 0 0.0836672 -0.19142 1.21121
12 1.03455 0 0 0.0282833 -0.00224218 0.593598
13 1.77643 0.111439 3.05935 -1.79567 1.10859 1.33048
14 1.89238 1.94052 1.15679 1.69858 1.10886 -1.5254
15 1.05644 -6.43785 1.99818 1.45948 1.17445 -1.75383
16 0.762327 -8.96748 0.93697 1.5708 0.128043 -1.5708
17 0.762461 -9.32273 0.891104 0 0.32021 -1.5708
18 1.94368 0.793931 1.6489 -1.49202 0.405057 1.61551
19 1.9133 1.47992 0.230668 1.60144 0.0464779 -1.56064
20 0.951694 -7.0037 0.623076 1.51783 -0.157781 -1.66693
21 0.0245166 2.31526 2.19892 -1.52056 0.406982 1.59464
22 3.15237 0 0 0.015881 0.00504357 -0.202145
23 2.79335 0 0 0 0.000867853 -0.122953
24 3.38194 0 0 0 0.000870247 -0.0602965
time 11
0 0 0.0807943 4.54107 1.51834 0.0594953 -1.54145
1 3.86721 0 0 0.0339248 -0.0273339 -0.0830054
2 3.46652 -1.90644 0.948191 -0.191115 -0.0380865 -2.93262
3 1.49066 0 0 0.0130807 0.0148303 0.699966
4 1.99771 0 0 -0.0856917 -0.146517 1.5272
5 0.358218 -0.000130415 -0.000133336 -1.5708 0.00037235 0.772807
6 3.57113 0 0 0 0 -0.165103
7 2.11638 0 0 0 0 -0.294347
8 1.97852 0 0 0 0 0
9 0.635818 -1.41048 1.8265 -0.12937 0.000917753 -0.461999
10 1.5758 0 0 -0.138052 0.154078 -1.07724
11 1.24879 0 0 0.182947 -0.253108 0.934586
12 1.03455 0 0 0.0384501 -0.0048926 0.715552
13 1.76528 -0.412872 3.00163 -1.66954 0.850655 1.45074
14 1.89228 1.7391 1.2652 1.74651 1.2716 -1.48072
15 1.00915 -6.94175 1.91578 1.46807 1.33179 -1.74225
16 0.762318 -9.2779 0.513717 1.5708 0.186925 -1.57079
17 0.762452 -9.62987 0.447015 0 0.0698425 -1.5708
18 1.88975 0.618874 1.81708 -1.472 0.457747 1.56854
19 1.91971 1.4354 0.276616 1.59891 0.116328 -1.54714
20 0.948944 -7.28947 0.467495 1.53395 -0.0231398 -1.66438
21 -0.0679307 1.79389 2.15154 -1.5134 0.406694 1.57839
22 3.15237 0 0 0.0157816 0.0045125 -0.202397
23 2.79335 0 0 0 0 -0.123169
24 3.38194 0 0 0 0 -0.0605095
time 12
0 0 -0.439206 4.49627 1.5249 0.0594954 -1.54675
1 3.86721 0 0 0.00765918 -0.0216554 -0.103468
2 3.46652 -1.90644 0.948191 -0.181729 -0.0516057 3.03538
3 1.49066 0 0 0.0130807 0.020427 1.09063
4 1.99771 0 0 -0.0929057 -0.123504 1.28421
5 0.358219 -0.000130177 -0.000133276 -1.5708 0.00037244 0.301697
6 3.57113 0 0 0 0 -0.134789
7 2.11638 0 0 0 0 -0.294347
8 1.97852 0 0 0 0 0
9 0.635818 -1.41048 1.8265 -0.134999 0.00312747 -0.562608
10 1.5758 0 0 -0.138053 0.125123 -0.798357
11 1.24879 0 0 0.238572 -0.259994 0.77032
12 1.03455 0 0 0.0450404 -0.00643436 0.794466
13 1.77248 -0.94267 2.96831 -1.75692 1.03161 1.33661
14 1.89252 1.08085 1.45517 1.62862 1.27542 -1.58384
15 0.950987 -7.40867 1.78837 -1.30637 1.54169 1.76808
16 0.762312 -9.354 0.215997 1.5708 0.239825 -1.5708
17 0.762446 -9.70198 0.130779 0 -0.114258 -1.5708
18 1.96022 -0.155679 1.61607 -1.51135 0.12921 1.6255
19 1.88859 0.779713 0.465422 1.5724 0.277077 -1.5236
20 0.942485 -7.36614 0.298338 1.54915 0.0412295 -1.66119
21 -0.11454 1.27411 2.10706 -1.52051 0.406199 1.57111
22 3.15237 0 0 0.0164433 0.00774771 -0.203138
23 2.79334 0 0 0.000336866 0.00371906 -0.123876
24 3.38194 0 0 0.000106894 0.0037327 -0.0612146
time 13
0 0 -0.959206 4.4793 1.54457 0.0594953 -1.55359
1 3.86721 0 0 -0.0253037 -0.0141426 -0.129388
2 3.46652 -1.90644 0.948191 -0.179053 -0.100801 2.587
3 1.49066 0 0 0.0130806 0.0226471 1.75014
4 1.99771 0 0 -0.120358 -0.119829 0.994562
5 0.358219 -0.000130177 -0.000133395 -1.5708 0.000372395 -0.321382
6 3.57113 0 0 0 0 -0.105493
7 2.11638 0 0 0 0 -0.294347
8 1.97852 0 0 0 0 0
9 0.635818 -1.41048 1.8265 -0.135584 -0.0207942 -0.537339
10 1.5758 0 0 -0.138052 0.141991 -0.947806
11 1.24879 0 0 0.193138 -0.250179 0.858925
12 1.03455 0 0 0.0458144 -0.00598217 0.802619
13 1.79805 -1.47636 2.98618 -2.17609 1.30325 0.907483
14 1.89238 0.0711452 1.68235 1.51764 1.16825 -1.67529
15 0.906915 -7.85838 1.67915 -1.57552 1.23268 1.4976
16 0.762318 -9.35394 0.216042 1.5708 0.239825 -1.5708
17 0.762452 -9.70192 0.130825 0 -0.114258 -1.5708
18 2.05455 -1.1481 1.46644 -1.61999 -0.173764 1.70303
19 1.85011 -0.331943 0.730494 1.54503 0.470126 -1.50933
20 0.943076 -7.36524 0.27289 1.55866 0.0284602 -1.66144
21 -0.0892253 0.755302 2.09151 -1.5419 0.405866 1.57508
22 3.15237 0 0 0.0172769 0.0119023 -0.20416
23 2.79335 0 0 0.000781714 0.00871677 -0.124821
24 3.38194 0 0 0.000275439 0.00874793 -0.0621591
time 14
0 0 -1.47921 4.50362 1.57735 0.0594953 -1.56086
1 3.86721 0 0 -0.0561165 -0.00639161 -0.152308
2 3.46652 -1.90644 0.948191 -0.194506 -0.17551 2.45476
3 1.49066 0 0 0.0130808 0.0191786 2.15752
4 1.99771 0 0 -0.152707 -0.168752 0.857674
5 0.358219 -0.0001297 -0.000133276 -1.5708 0.000372261 -0.409178
6 3.57113 0 0 0 0 -0.0867148
7 2.11638 0 0 0 0 -0.294347
8 1.97852 0 0 0 0 0
9 0.635818 -1.41048 1.8265 -0.143107 -0.0726248 -0.507758
10 1.5758 0 0 -0.138052 0.166797 -1.26133
11 1.24879 0 0 0.102045 -0.209786 1.076
12 1.03455 0 0 0.043208 -0.00436007 0.769769
13 1.8411 -2.01248 3.06981 2.78045 1.37731 -0.39098
14 1.89253 -0.926556 1.77605 1.48434 1.01882 -1.69357
15 0.901463 -8.31417 1.63628 -1.58559 0.895484 1.45114
16 0.762286 -9.35417 0.215721 1.5708 0.239825 -1.5708
17 0.76242 -9.70215 0.130504 0 -0.109068 -1.5708
18 2.12123 -2.12795 1.52342 -1.65562 -0.203711 1.7589
19 1.82609 -1.46496 0.895146 1.52276 0.578949 -1.51058
20 1.0127 -7.38896 0.472799 1.56449 0.129045 -1.69754
21 -0.0166567 0.236096 2.12043 -1.57754 0.406094 1.5816
22 3.15237 0 0 0.0176941 0.0141285 -0.205254
23 2.79334 0 0 0.00108805 0.0119579 -0.125753
24 3.38194 0 0 0.000415093 0.0120013 -0.0630906
time 15
0 0 -1.99921 4.54697 1.62325 0.0594954 -1.56745
1 3.8672 0 0 -0.0759323 0 -0.16377
2 3.46652 -1.90644 0.948191 -0.140315 -0.283696 2.64739
3 1.49066 0 0 0.0130806 0.0145626 2.45671
4 1.99771 0 0 -0.124205 -0.288517 0.679487
5 0.358219 -0.000130653 -0.000133395 -1.5708 0.000372425 -0.253817
6 3.57113 0 0 0 0 -0.0807728
7 2.11638 0 0 0 0 -0.294347
8 1.97852 0 0 0 0 0
9 0.635818 -1.41048 1.8265 -0.175296 -0.15389 -0.542816
10 1.5758 0 0 -0.138052 0.175107 -1.55156
11 1.24879 0 0 0.0299291 -0.128522 1.31121
12 1.03455 0 0 0.0404355 -0.00294261 0.735967
13 1.89979 -2.54949 3.19871 2.01847 1.22462 -1.10938
14 1.89238 -1.80639 1.637 1.49228 0.826561 -1.67766
15 0.954 -8.80277 1.67089 -1.53411 0.526994 1.39528
16 0.761936 -9.35503 0.213145 1.5708 0.239825 -1.5708
17 0.76207 -9.70301 0.127927 0 -0.103564 -1.5708
18 2.13783 -3.02824 1.71639 -1.57164 0.0636178 1.76904
19 1.81763 -2.50321 0.875978 1.50314 0.525444 -1.52365
20 1.17898 -7.53416 0.921178 1.51702 0.362297 -1.79595
21 0.0979976 -0.284568 2.17416 -1.62742 0.407507 1.5883
22 3.15237 0 0 0.0171059 0.0115791 -0.206211
23 2.79335 0 0 0.00100117 0.0103388 -0.126421
24 3.38194 0 0 0.000455549 0.0103792 -0.0637563
time 16
0 0 -2.51921 4.58217 1.62325 0.0594954 -1.57372
1 3.8672 0 0 -0.0820809 0.00550745 -0.159329
2 3.46652 -1.90644 0.948191 -0.164523 -0.290382 -3.10546
3 1.49066 0 0 0.0130808 0.0130835 2.53716
4 1.99771 0 0 -0.0925111 -0.32837 0.436809
5 0.358218 -0.000130177 -0.000133336 -1.5708 0.000372395 -0.138989
6 3.57113 0 0 0 0 -0.0821079
7 2.11638 0 0 0 0 -0.294347
8 1.97852 0 0 0 0 0
9 0.635818 -1.41048 1.8265 -0.157847 -0.178592 -0.691343
10 1.5758 0 0 -0.138052 0.174354 -1.66178
11 1.24879 0 0 -0.000621216 -0.0925284 1.46604
12 1.03455 0 0 0.0407094 -0.00310509 0.741263
13 1.8963 -3.08138 3.23391 1.82286 1.07194 -1.32275
14 1.89238 -2.67654 1.36637 1.49079 0.59517 -1.66396
15 0.917742 -9.33523 1.71572 -1.49534 0.148715 1.3452
16 0.762263 -9.35394 0.215516 1.5708 0.239825 -1.5708
17 0.762397 -9.70192 0.130299 0 -0.104734 -1.5708
18 2.0814 -3.8122 1.85015 -1.49025 0.397804 1.73572
19 1.81269 -3.52949 0.786354 1.47457 0.371141 -1.54465
20 1.24751 -7.89838 1.49485 1.446 0.695023 -1.89258
21 0.106756 -0.806516 2.21954 -1.62738 0.408438 1.58303
22 3.15237 0 0 0.0152013 0.00273608 -0.207124
23 2.79335 0 0 0.000443566 0.00285912 -0.126822
24 3.38194 0 0 0.000381527 0.00287939 -0.0641547
time 17
0 0 -3.03921 4.59894 1.62325 0.0594954 -1.58048
1 3.86721 0 0 -0.0799262 0.0112893 -0.143735
2 3.46652 -1.90644 0.948191 -0.182342 -0.190163 -2.51549
3 1.49066 0 0 0.0130807 0.0126835 2.55822
4 1.99771 0 0 -0.0678124 -0.275589 0.133059
5 0.358218 -0.000130177 -0.000133336 -1.5708 0.000372335 -0.505071
6 3.57113 0 0 0 0 -0.0884003
7 2.11638 0 0 0 0 -0.294347
8 1.97852 0 0 0 0 0
9 0.635818 -1.41048 1.8265 -0.138418 -0.199219 -0.869253
10 1.5758 0 0 -0.138052 0.173809 -1.69504
11 1.24879 0 0 -0.0173318 -0.0646462 1.56813
12 1.03455 0 0 0.0466045 -0.00620011 0.819041
13 1.89246 -3.61419 3.25067 1.75486 0.975919 -1.41925
14 1.89238 -3.53993 1.14279 1.4809 0.401665 -1.64876
15 0.892845 -9.89868 1.78265 -1.44142 -0.0743159 1.31676
16 0.759776 -9.44841 0.232942 1.5708 0.261354 -1.57578
17 0.758184 -9.79448 0.140253 0 -0.0898446 -1.57578
18 2.02578 -4.48715 1.94557 -1.42105 0.698205 1.71071
19 1.81822 -4.48925 0.738334 1.45349 0.206504 -1.55862
20 1.26644 -8.45985 1.89332 1.29585 0.981163 -2.04441
21 0.122179 -1.32884 2.24782 -1.62738 0.40861 1.56557
22 3.15237 0 0 0.0133058 -0.00594727 -0.207855
23 2.79335 0 0 -0.000181735 -0.00541199 -0.127129
24 3.38194 0 0 0.000286131 -0.00541494 -0.0644594
time 18
0 0 -3.55921 4.60755 1.62325 0.0594953 -1.58729
1 3.86721 0 0 -0.0726722 0.0167767 -0.122322
2 3.46652 -1.90644 0.948191 -0.158362 -0.0295105 -1.85889
3 1.49066 0 0 0.0130807 0.0168463 2.32157
4 1.99771 0 0 -0.0628657 -0.177688 -0.135604
5 0.358218 -0.000130177 -0.000133395 -1.5708 0.000372291 -0.927633
6 3.57113 0 0 0 0 -0.0973314
7 2.11638 0 0 0 0 -0.294347
8 1.97852 0 0 0 0 0
9 0.635818 -1.41048 1.8265 -0.116575 -0.214876 -1.08095
10 1.5758 0 0 -0.138052 0.174273 -1.66674
11 1.24879 0 0 -0.0260527 -0.0460093 1.63324
12 1.03455 0 0 0.0565143 -0.0115399 0.949275
13 1.8885 -4.14707 3.25929 1.74389 0.841116 -1.47669
14 1.92069 -4.51152 1.04031 1.4938 0.281035 -1.61869
15 0.874533 -10.4772 1.86405 -1.40426 -0.171656 1.31549
16 0.75465 -9.64603 0.274278 1.5708 0.314735 -1.58576
17 0.749688 -9.98662 0.163256 0 -0.0460405 -1.58576
18 1.98721 -5.1929 2.08471 -1.38498 0.990553 1.66811
19 1.8731 -5.50434 0.753373 1.46889 0.0795394 -1.55716
20 1.24546 -9.05601 2.11868 1.06487 1.17648 -2.26466
21 0.140875 -1.8514 2.26817 -1.62739 0.407657 1.56114
22 3.15237 0 0 0.0125888 -0.00866759 -0.207976
23 2.79335 0 0 -0.000594753 -0.0108356 -0.127283
24 3.38194 0 0 0.000218301 -0.0108535 -0.0646111
time 19
0 0 -4.07921 4.61167 1.62325 0.0594954 -1.59374
1 3.86721 0 0 -0.0635238 0.0214007 -0.100423
2 3.46652 -1.90644 0.948191 -0.100354 0.0358967 -1.40389
3 1.49066 0 0 0.0130806 0.0222644 1.82746
4 1.9977 0 0 -0.0568267 -0.128339 -0.0978198
5 0.358218 -0.000129938 -0.000133336 -1.5708 0.00037241 -0.737433
6 3.57113 0 0 0 0 -0.106582
7 2.11638 0 0 0 0 -0.294347
8 1.97852 0 0 0 0 0
9 0.635817 -1.41048 1.8265 -0.0953602 -0.221752 -1.29153
10 1.5758 0 0 -0.138052 0.175079 -1.58115
11 1.24879 0 0 -0.0341956 -0.0421175 1.64288
12 1.03455 0 0 0.0673799 -0.0174399 1.0919
13 1.88467 -4.67923 3.26341 1.76902 0.733327 -1.50553
14 1.96788 -5.55309 0.995084 1.53461 0.20787 -1.57496
15 0.858526 -11.0556 1.94509 -1.38206 -0.217995 1.33455
16 0.750902 -9.81978 0.328974 1.5708 0.383156 -1.59324
17 0.74358 -10.1519 0.194924 0 0.0124027 -1.59324
18 1.96103 -5.84748 2.20866 -1.42379 1.33275 1.54753
19 1.96367 -6.56536 0.781578 1.51901 -0.0179329 -1.54377
20 1.19916 -9.64066 2.26748 0.551257 1.32674 -2.76143
21 0.159456 -2.37398 2.28316 -1.62746 0.405692 1.56191
22 3.15237 0 0 0.0126603 -0.00735948 -0.207629
23 2.79335 0 0 -0.000843514 -0.0139831 -0.127238
24 3.38194 0 0 0.00016537 -0.0140106 -0.0645653
time 20
0 0 -4.59921 4.61106 1.62325 0.0594953 -1.59937
1 3.86721 0 0 -0.0556848 0.0245925 -0.0833724
2 3.46652 -1.90644 0.948191 -0.0640078 0.0584754 -1.00498
3 1.49066 0 0 0.0130807 0.0211051 1.15998
4 1.99771 0 0 -0.0543103 -0.108401 0.111862
5 0.35822 -0.000130177 -0.000133395 -1.5708 0.000372469 -0.265869
6 3.57113 0 0 0 0 -0.113833
7 2.11638 0 0 0 0 -0.294347
8 1.97852 0 0 0 0 0
9 0.635818 -1.41048 1.8265 -0.0768986 -0.217756 -1.45058
10 1.5758 0 0 -0.138052 0.174574 -1.49442
11 1.24879 0 0 -0.0528707 -0.0525131 1.60245
12 1.03455 0 0 0.0761426 -0.0222153 1.20686
13 1.88126 -5.20984 3.2628 1.78531 0.720316 -1.5226
14 1.97732 -6.43463 0.975889 1.58899 0.165898 -1.52305
15 0.841103 -11.6207 2.00577 -1.37741 -0.208478 1.37818
16 0.752186 -9.84079 0.381971 1.5708 0.449808 -1.59074
17 0.745886 -10.1633 0.226091 0 0.0712091 -1.59074
18 1.93832 -6.39283 2.22337 2.55851 1.52501 -0.820044
19 2.02601 -7.45381 0.805046 1.58376 -0.0847264 -1.52112
20 1.12027 -10.1893 2.3143 -0.606926 1.31425 2.38351
21 0.174547 -2.89626 2.29144 -1.62757 0.403459 1.56483
22 3.15237 0 0 0.0130482 -0.00451646 -0.207121
23 2.79335 0 0 -0.000950357 -0.0151756 -0.127027
24 3.38194 0 0 0.000125475 -0.0152072 -0.0643542
time 21
0 0 -5.11921 4.6089 1.62325 0.0594955 -1.60377
1 3.86721 0 0 -0.05236 0.0257826 -0.0765032
2 3.46652 -1.90644 0.948191 -0.0520507 0.0741888 -0.732605
3 1.49066 0 0 0.0130807 0.0133815 0.620259
4 1.99771 0 0 -0.0507336 -0.090332 0.333457
5 0.358219 -0.000130117 -0.000133336 -1.5708 0.000372424 -0.000364308
6 3.57113 0 0 0 0 -0.116766
7 2.11638 0 0 0 0 -0.294347
8 1.97852 0 0 0 0 0
9 0.635818 -1.41048 1.8265 -0.0574325 -0.214882 -1.66675
10 1.5758 0 0 -0.138052 0.168894 -1.30505
11 1.24879 0 0 -0.0591401 -0.0756857 1.52893
12 1.03455 0 0 0.0797433 -0.0241813 1.25408
13 1.87856 -5.73811 3.26064 1.74827 0.73876 -1.5619
14 1.89238 -6.92624 0.950974 1.64096 0.132798 -1.46802
15 0.818952 -12.1604 2.02865 -1.39284 -0.0309849 1.45915
16 0.762334 -9.58188 0.420735 1.5708 0.49788 -1.5708
17 0.762468 -9.8966 0.249533 0 0.116103 -1.5708
18 1.88892 -6.90306 2.19954 1.97081 1.55203 -1.42247
19 1.99759 -7.94627 0.813991 1.64091 -0.128363 -1.48632
20 0.984956 -10.6797 2.07483 -1.23176 0.975527 1.77087
21 0.182781 -3.41783 2.29511 -1.62769 0.401732 1.56688
22 3.15237 0 0 0.0132795 -0.0026322 -0.206757
23 2.79335 0 0 -0.000938371 -0.0147333 -0.126682
24 3.38194 0 0 0 -0.014765 -0.0640098
end
