//Sequence File generated by the Wall Worm SMD Exporter PRO 1.99
//www.wallworm.com
version 1
nodes
0 "rat_hip" -1
1 "rat_spine" 0
2 "rat_r_forearm" 1
3 "rat_r_ulna" 2
4 "rat_r_paw" 3
5 "rat_r_pawtoe" 4
6 "rat_neck" 1
7 "rat_face" 6
8 "rat_nose" 7
9 "rat_r_femur" 0
10 "rat_r_radius" 9
11 "rat_r_foot" 10
12 "rat_r_toes" 11
13 "rat_l_femur" -1
14 "rat_l_foot" -1
15 "rat_l_forearm" -1
16 "rat_l_paw" -1
17 "rat_l_pawtoe" -1
18 "rat_l_radius" -1
19 "rat_l_toes" -1
20 "rat_l_ulna" -1
21 "rat_tail001" -1
22 "rat_tail002" 21
23 "rat_tail003" 22
24 "rat_tail004" 23
end
skeleton
time 0
0 0 5.80079 4.6089 1.62325 0.0594954 -1.60377
1 3.86721 0 0 -0.0523599 0.0257828 -0.0765034
2 3.46652 -1.90644 0.948191 0.673043 -0.78832 -2.72893
3 1.49066 0 0 0.0130807 0.0229604 1.50077
4 1.9977 0 0 0.881968 -0.439736 0.955883
5 0.358219 -0.000130177 -0.000133276 -1.5708 0.000372401 -0.000364281
6 3.57113 0 0 0 0 -0.116766
7 2.11638 0 0 0 0 -0.294347
8 1.97852 0 0 0 0 0
9 0.635817 -1.41048 1.8265 -0.010601 -0.117063 -1.24603
10 1.5758 0 0 -0.138052 0.173418 -1.7132
11 1.24879 0 0 -0.179862 -0.156099 1.5278
12 1.03455 0 0 0.0797433 -0.0241813 1.25408
13 1.87856 5.18189 3.26064 2.92389 0.924987 -0.525514
14 2.92443 5.90816 1.74968 1.55361 0.845459 -1.70285
15 0.818958 -1.24038 2.02865 -1.75081 -0.0873853 0.951422
16 2.46133 0.568588 0.420314 1.5708 0.497881 -1.5708
17 2.46146 0.253873 0.249112 0 0.116104 -1.5708
18 2.69898 4.70612 2.00219 -2.0427 0.203605 1.38539
19 2.83407 5.22783 0.975555 1.55713 0.583692 -1.69751
20 1.68102 -0.0312563 2.15874 -1.91458 1.05564 0.655382
21 0.182786 7.50216 2.29511 -1.62769 0.401732 1.56688
22 3.15237 0 0 0.0108058 -0.00214187 -0.20989
23 2.79335 0 0 0.00062517 0.00838916 -0.123055
24 3.38194 0 0 0 0.00841207 -0.0603949
time 1
0 0.520006 5.80079 4.61106 1.62325 0.0594954 -1.59937
1 3.86721 0 0 -0.0556848 0.0245924 -0.0833722
2 3.46652 -1.90644 0.948191 0.752853 -0.914787 -2.67362
3 1.49066 0 0 0.0130807 0.0224751 1.35104
4 1.99771 0 0 1.02994 -0.433844 0.945951
5 0.358219 -0.000130236 -0.000133753 -1.5708 0.00037238 -0.198461
6 3.57113 0 0 0 0 -0.113833
7 2.11638 0 0 0 0 -0.294347
8 1.97852 0 0 0 0 0
9 0.635818 -1.41048 1.8265 -0.140392 -0.297614 -1.37848
10 1.5758 0 0 -0.138052 0.174439 -1.48506
11 1.24879 0 0 -0.0138553 0.0261443 1.58892
12 1.03455 0 0 0.0761427 -0.0222154 1.20686
13 2.40126 5.19015 3.2628 2.72871 0.989053 -0.662461
14 3.18163 5.88367 1.73016 1.57008 0.91552 -1.67914
15 1.36111 -1.22071 2.00577 -1.65776 -0.168865 1.10794
16 2.4185 0.616066 0.370194 1.5708 0.436481 -1.56683
17 2.41992 0.291442 0.218627 0 0.057882 -1.56683
18 3.08399 4.65759 1.94621 -1.94261 0.173883 1.49133
19 3.11346 5.25693 0.90989 1.57079 0.664957 -1.67073
20 2.01723 0.0941316 2.2563 -1.77989 1.23496 0.915359
21 0.694552 7.50374 2.29144 -1.62757 0.403459 1.56483
22 3.15237 0 0 0.0108462 -0.00214988 -0.209839
23 2.79335 0 0 0.000625871 0.00839917 -0.123054
24 3.38194 0 0 0 0.00842232 -0.0603939
time 2
0 1.04001 5.80079 4.61167 1.62325 0.0594954 -1.59374
1 3.86721 0 0 -0.0635237 0.0214007 -0.100423
2 3.46652 -1.90644 0.948191 0.995039 -0.906922 -2.81733
3 1.49066 0 0 0.0130807 0.0229256 1.48139
4 1.9977 0 0 1.17728 -0.416926 0.829939
5 0.358219 -0.000130117 -0.000133276 -1.5708 0.00037232 -0.602617
6 3.57113 0 0 0 0 -0.106582
7 2.11638 0 0 0 0 -0.294347
8 1.97852 0 0 0 0 0
9 0.635818 -1.41048 1.8265 -0.216552 -0.47114 -1.50054
10 1.5758 0 0 -0.138052 0.165867 -1.24569
11 1.24879 0 0 0.188068 0.11747 1.61631
12 1.03455 0 0 0.06738 -0.0174399 1.0919
13 2.92468 5.20077 3.26341 2.70856 0.948534 -0.684245
14 3.7648 5.82823 1.69375 1.57869 0.981344 -1.67167
15 1.89853 -1.17561 1.94509 -1.55425 -0.215646 1.21821
16 2.48366 0.6434 0.320006 1.5708 0.37451 -1.5708
17 2.48379 0.310011 0.188834 0 0.00375691 -1.5708
18 3.63642 4.6202 1.98298 -1.96837 0.233733 1.46491
19 3.70689 5.25604 0.833782 1.58254 0.754193 -1.64246
20 2.40137 0.190946 2.26406 -1.41554 1.33851 1.39088
21 1.19946 7.50601 2.28316 -1.62746 0.405692 1.56191
22 3.15237 0 0 0.0109605 -0.0021726 -0.209693
23 2.79335 0 0 0.000627976 0.0084282 -0.123052
24 3.38194 0 0 0 0.00845149 -0.0603911
time 3
0 1.56001 5.80079 4.60755 1.62325 0.0594955 -1.58729
1 3.86721 0 0 -0.0726723 0.0167766 -0.122322
2 3.46652 -1.90644 0.948191 1.14081 -0.860492 -2.82214
3 1.49066 0 0 0.0130807 0.0230122 1.59312
4 1.9977 0 0 1.27255 -0.331331 0.730791
5 0.358219 -0.000130177 -0.000133395 -1.5708 0.00037241 -0.927633
6 3.57113 0 0 0 0 -0.0973314
7 2.11638 0 0 0 0 -0.294347
8 1.97852 0 0 0 0 0
9 0.635818 -1.41048 1.8265 -0.271899 -0.554789 -1.47923
10 1.5758 0 0 -0.138052 0.165942 -1.24695
11 1.24879 0 0 0.2677 0.178779 1.62628
12 1.03455 0 0 0.0565142 -0.0115399 0.949275
13 3.4485 5.21292 3.25929 2.71883 0.892811 -0.683739
14 4.39312 5.77043 1.67024 1.57829 1.04419 -1.67831
15 2.43454 -1.11715 1.86405 -1.40854 -0.238133 1.33435
16 2.48735 0.667473 0.274783 1.5708 0.316653 -1.5708
17 2.48749 0.327058 0.163108 0 -0.0441213 -1.5708
18 4.21471 4.58857 2.032 -2.01929 0.293899 1.42097
19 4.33732 5.25346 0.775853 1.59602 0.837381 -1.61218
20 2.77388 0.291131 2.21568 -0.724657 1.33175 2.22151
21 1.70088 7.5086 2.26817 -1.62739 0.407657 1.56114
22 3.15237 0 0 0.011138 -0.00220772 -0.209468
23 2.79334 0 0 0.000631438 0.0084741 -0.123047
24 3.38194 0 0 0 0.0084973 -0.0603868
time 4
0 2.08001 5.80079 4.59894 1.62325 0.0594954 -1.58048
1 3.86721 0 0 -0.079926 0.0112893 -0.143735
2 3.46652 -1.90644 0.948191 1.11085 -0.863531 -2.70902
3 1.49066 0 0 0.0130807 0.0230176 1.56729
4 1.9977 0 0 1.26681 -0.284251 0.730064
5 0.358219 -0.000130117 -0.000133276 -1.5708 0.000372469 -1.08838
6 3.57113 0 0 0 0 -0.0884005
7 2.11638 0 0 0 0 -0.294347
8 1.97852 0 0 0 0 0
9 0.635818 -1.41048 1.8265 -0.330588 -0.558449 -1.39056
10 1.5758 0 0 -0.138053 0.173864 -1.44527
11 1.24879 0 0 0.269358 0.222619 1.73969
12 1.03455 0 0 0.0466042 -0.00620026 0.819041
13 3.97247 5.22581 3.25068 2.75337 0.817377 -0.669412
14 5.05885 5.71088 1.6895 1.56949 1.10507 -1.69572
15 2.97285 -1.05868 1.78265 -1.2444 -0.213725 1.45546
16 2.48927 0.68585 0.233812 1.5708 0.263274 -1.5708
17 2.4894 0.339963 0.140459 0 -0.0879244 -1.5708
18 4.81787 4.55685 2.10136 -2.1007 0.336095 1.36493
19 5.00097 5.24991 0.765141 1.61169 0.900623 -1.58159
20 3.14049 0.38838 2.09882 -0.377689 1.20426 2.71311
21 2.20219 7.51116 2.24782 -1.62738 0.40861 1.56557
22 3.15237 0 0 0.0113682 -0.00225329 -0.209175
23 2.79335 0 0 0.000636079 0.00853487 -0.123041
24 3.38194 0 0 0 0.0085585 -0.060381
time 5
0 2.60001 5.80079 4.58217 1.62325 0.0594955 -1.57372
1 3.86721 0 0 -0.0820809 0.00550733 -0.159329
2 3.46652 -1.90644 0.948191 1.03129 -0.843352 -2.63124
3 1.49066 0 0 0.0130806 0.0230177 1.56678
4 1.9977 0 0 1.2088 -0.308779 0.752704
5 0.358219 -0.000130177 -0.000133336 -1.5708 0.000372291 -1.18325
6 3.57113 0 0 0 0 -0.0821079
7 2.11638 0 0 0 0 -0.294347
8 1.97852 0 0 0 0 0
9 0.635818 -1.41048 1.8265 -0.385454 -0.563762 -1.33467
10 1.5758 0 0 -0.138053 0.175041 -1.6198
11 1.24879 0 0 0.288572 0.264123 1.85858
12 1.03455 0 0 0.0407093 -0.00310518 0.741263
13 4.49631 5.23862 3.23391 2.83029 0.710362 -0.619363
14 5.82862 5.64347 1.73328 1.55507 1.16495 -1.71871
15 3.51775 -1.01523 1.71572 -1.08349 -0.150767 1.59671
16 2.49733 0.693115 0.216012 1.5708 0.239825 -1.5708
17 2.49747 0.345135 0.130794 0 -0.104734 -1.5708
18 5.46906 4.5451 2.20632 -2.23581 0.388498 1.25443
19 5.76843 5.23949 0.782767 1.62484 0.930452 -1.55621
20 3.47956 0.458027 1.93961 -0.313479 1.04076 2.90667
21 2.70676 7.51348 2.21954 -1.62738 0.408438 1.58303
22 3.15237 0 0 0.0116412 -0.00230747 -0.208828
23 2.79335 0 0 0.000641738 0.00860879 -0.123034
24 3.38194 0 0 0 0.00863246 -0.0603739
time 6
0 3.12001 5.80079 4.54697 1.62325 0.0594955 -1.56745
1 3.8672 0 0 -0.0759322 0 -0.16377
2 3.46652 -1.90644 0.948191 0.975876 -0.686073 -2.56507
3 1.49066 0 0 0.0130807 0.0225454 1.77429
4 1.9977 0 0 1.10646 -0.248832 0.687058
5 0.358219 -0.000130206 -0.000133321 -1.5708 0.00037241 -1.20228
6 3.57113 0 0 0 0 -0.0807729
7 2.11638 0 0 0 0 -0.294347
8 1.97852 0 0 0 0 0
9 0.635818 -1.41048 1.8265 -0.446481 -0.611537 -1.36292
10 1.5758 0 0 -0.138052 0.174183 -1.67218
11 1.24879 0 0 0.367555 0.299811 1.95465
12 1.03455 0 0 0.0404353 -0.00294261 0.735967
13 5.0198 5.25051 3.19871 2.86537 0.623231 -0.594737
14 6.52394 5.58365 1.7696 1.54144 1.22498 -1.7389
15 4.07401 -1.00277 1.67089 -0.955652 -0.0926396 1.74795
16 2.57586 0.688306 0.256755 1.5516 0.295988 -1.58385
17 2.57151 0.345687 0.152136 -0.0183858 -0.0473419 -1.57738
18 6.07964 4.5336 2.27898 -2.34377 0.420143 1.17051
19 6.46527 5.23791 0.796302 1.62795 0.913866 -1.54388
20 3.81243 0.458266 1.80878 -0.358461 0.889735 2.95767
21 3.218 7.51543 2.17416 -1.62742 0.407507 1.5883
22 3.15237 0 0 0.0119461 -0.00236781 -0.20844
23 2.79335 0 0 0.000647911 0.00869337 -0.123026
24 3.38194 0 0 0 0.00871745 -0.0603659
time 7
0 3.64001 5.80079 4.50362 1.57735 0.0594954 -1.56086
1 3.86721 0 0 -0.0561167 -0.0063918 -0.152308
2 3.46652 -1.90644 0.948191 0.753883 -0.322279 -2.48948
3 1.49066 0 0 0.0130806 0.0181519 2.2343
4 1.99771 0 0 0.832843 -0.079481 0.487749
5 0.358219 -0.000130177 -0.000133276 -1.5708 0.00037238 -1.13555
6 3.57113 0 0 0 0 -0.0867147
7 2.11638 0 0 0 0 -0.294347
8 1.97852 0 0 0 0 0
9 0.635818 -1.41048 1.8265 -0.431517 -0.604189 -1.44256
10 1.5758 0 0 -0.138053 0.174291 -1.66562
11 1.24879 0 0 0.398656 0.317858 2.00336
12 1.03455 0 0 0.0432081 -0.00436009 0.769769
13 5.4811 5.26751 3.06981 2.84774 0.559264 -0.632375
14 6.97943 5.55062 1.75224 1.54206 1.28651 -1.74117
15 4.54147 -1.03418 1.63628 -0.872945 -0.0835475 1.83522
16 2.75786 0.677742 0.358376 1.48146 0.412455 -1.62212
17 2.74115 0.350002 0.21464 -0.0820089 0.0648131 -1.59155
18 6.55853 4.47802 2.23375 -2.39246 0.395844 1.19685
19 6.93023 5.26465 0.759212 1.61872 0.837675 -1.54843
20 4.15323 0.399651 1.76067 -0.412698 0.778137 2.94488
21 3.62335 7.51609 2.12043 -1.57754 0.406094 1.5816
22 3.15237 0 0 0.0122728 -0.0024325 -0.208025
23 2.79335 0 0 0.000654867 0.00878707 -0.123018
24 3.38194 0 0 0 0.00881152 -0.0603569
time 8
0 4.16001 5.80079 4.4793 1.54457 0.0594954 -1.55359
1 3.86721 0 0 -0.0253037 -0.0141424 -0.129388
2 3.46652 -1.90644 0.948192 0.120098 -0.147887 -2.53187
3 1.49066 0 0 0.0130806 0.0128153 2.55128
4 1.99771 0 0 0.196998 -0.12726 0.260747
5 0.358219 -0.000130236 -0.000133276 -1.5708 0.00037238 -0.973119
6 3.57113 0 0 0 0 -0.105493
7 2.11638 0 0 0 0 -0.294347
8 1.97852 0 0 0 0 0
9 0.635818 -1.41048 1.8265 -0.419673 -0.603004 -1.52471
10 1.5758 0 0 -0.138052 0.174654 -1.64341
11 1.24879 0 0 0.425294 0.328669 2.03164
12 1.03455 0 0 0.0458143 -0.00598231 0.802619
13 5.95805 5.28364 2.98618 2.69068 0.612783 -0.768103
14 7.10243 5.54616 1.66633 1.72512 1.35754 -1.57975
15 5.06692 -1.09838 1.67915 -0.824337 -0.0441355 1.95375
16 3.00424 0.667057 0.490091 1.37102 0.512015 -1.6783
17 2.97085 0.356601 0.314438 -0.176274 0.164022 -1.6085
18 6.8852 4.38802 2.07986 -2.25321 0.337522 1.38538
19 7.10047 5.32721 0.655214 1.63924 0.652019 -1.5621
20 4.51047 0.282959 1.74492 -0.489175 0.679154 2.89191
21 4.07078 7.5153 2.09151 -1.5419 0.405866 1.57508
22 3.15237 0 0 0.0126105 -0.00249957 -0.207595
23 2.79335 0 0 0.000662444 0.00888774 -0.123008
24 3.38194 0 0 0 0.00891221 -0.0603472
time 9
0 4.68001 5.80079 4.49627 1.5249 0.0594954 -1.54675
1 3.86721 0 0 0.00765918 -0.0216554 -0.103468
2 3.46652 -1.90644 0.948191 -0.669053 -0.090639 -2.2047
3 1.49066 0 0 0.0130807 0.0163697 2.3506
4 1.99771 0 0 -0.413182 -0.547659 0.12114
5 0.358219 -0.000130177 -0.000133038 -1.5708 0.000372499 -0.705042
6 3.57113 0 0 0 0 -0.134789
7 2.11638 0 0 0 0 -0.294347
8 1.97852 0 0 0 0 0
9 0.635818 -1.41048 1.8265 -0.408838 -0.590754 -1.55864
10 1.5758 0 0 -0.138052 0.174526 -1.65127
11 1.24879 0 0 0.418457 0.344979 2.025
12 1.03455 0 0 0.0450405 -0.00643446 0.794466
13 6.45249 5.29733 2.96831 2.3369 0.775879 -0.991894
14 7.03998 5.56198 1.54252 2.21769 1.39217 -1.13094
15 5.63099 -1.16867 1.78836 -0.790959 0.0527554 2.11946
16 3.27606 0.661779 0.621214 1.30739 0.549117 -1.71063
17 3.23357 0.359233 0.434094 -0.228862 0.205443 -1.61828
18 7.06788 4.35579 1.86471 -1.92869 0.260953 1.59392
19 7.11826 5.39565 0.52443 1.68988 0.414713 -1.60516
20 4.85463 0.101421 1.70976 -0.570671 0.576268 2.80049
21 4.56546 7.51411 2.10706 -1.52051 0.406199 1.57111
22 3.15237 0 0 0.0129493 -0.00256679 -0.207165
23 2.79335 0 0 0.000670137 0.00899337 -0.122998
24 3.38194 0 0 0 0.0090182 -0.060337
time 10
0 5.20001 5.80079 4.54107 1.51834 0.0594953 -1.54145
1 3.86721 0 0 0.0339247 -0.0273339 -0.0830055
2 3.46652 -1.90644 0.948191 -0.935701 0.208216 -2.01871
3 1.49066 0 0 0.0130807 0.0216587 1.91621
4 1.99771 0 0 -0.416841 -0.895621 -0.0638874
5 0.358219 -0.000130177 -0.000133514 -1.5708 0.000372306 -0.321382
6 3.57113 0 0 0 0 -0.165103
7 2.11638 0 0 0 0 -0.294347
8 1.97852 0 0 0 0 0
9 0.635818 -1.41048 1.8265 -0.420452 -0.578175 -1.50991
10 1.5758 0 0 -0.138053 0.17301 -1.72609
11 1.24879 0 0 0.381584 0.390103 1.98219
12 1.03455 0 0 0.0384499 -0.00489273 0.715552
13 6.96529 5.30713 3.00163 1.81775 0.942513 -1.3221
14 6.97763 5.59913 1.4143 2.49136 1.38312 -0.882536
15 6.20916 -1.22175 1.91578 -0.758313 0.172816 2.31815
16 3.60265 0.647562 0.778385 1.46778 0.397389 -1.63052
17 3.58306 0.31788 0.639613 -0.0988516 0.2809 -1.61802
18 7.19326 4.40944 1.72675 -1.54095 0.252884 1.7501
19 7.10024 5.45004 0.397919 1.71967 0.282831 -1.65071
20 5.21105 -0.14465 1.65945 -0.653559 0.456757 2.68393
21 5.13208 7.51389 2.15154 -1.5134 0.406694 1.57839
22 3.15237 0 0 0.0132781 -0.00263175 -0.206747
23 2.79335 0 0 0.000678529 0.00910179 -0.122987
24 3.38194 0 0 0 0.00912693 -0.0603269
time 11
0 5.72001 5.80079 4.58731 1.5249 0.0594954 -1.5388
1 3.86721 0 0 0.0446461 -0.0295815 -0.0764574
2 3.46652 -1.90644 0.94819 -0.991165 0.401528 -2.05351
3 1.49066 0 0 0.0130806 0.0230193 1.55887
4 1.9977 0 0 -0.0661028 -1.06334 -0.37923
5 0.358219 -0.000130177 -0.000133514 -1.5708 0.000372335 0.336903
6 3.57113 0 0 0 0 -0.186936
7 2.11638 0 0 0 0 -0.294347
8 1.97852 0 0 0 0 0
9 0.635817 -1.41048 1.8265 -0.463422 -0.577026 -1.39477
10 1.5758 0 0 -0.138052 0.168013 -1.85512
11 1.24879 0 0 0.323133 0.46121 1.90904
12 1.03455 0 0 0.0282833 -0.0022425 0.593598
13 7.49643 5.31144 3.05935 1.25711 1.1469 -1.73936
14 6.98723 5.80121 1.26941 1.88831 1.26511 -1.43195
15 6.77644 -1.23785 1.99818 -0.796562 0.188849 2.37885
16 4.12207 0.687267 0.93762 1.5708 0.128042 -1.57079
17 4.12221 0.332022 0.891755 0 0.32021 -1.5708
18 7.3877 4.67247 1.62302 -1.24525 0.287095 1.91174
19 7.03032 5.49287 0.282817 1.65367 0.209488 -1.63703
20 5.71794 -0.22626 1.71834 -0.737145 0.401509 2.62169
21 5.74452 7.51526 2.19892 -1.52056 0.406982 1.59465
22 3.15237 0 0 0.0135872 -0.00269303 -0.206354
23 2.79334 0 0 0.000686478 0.00921156 -0.122977
24 3.38194 0 0 0 0.00923681 -0.0603164
time 12
0 6.24001 5.80079 4.60859 1.54457 0.0594953 -1.53924
1 3.86721 0 0 0.0242438 -0.027978 -0.0868258
2 3.46652 -1.90644 0.948192 -0.969326 0.374539 -2.17352
3 1.49066 0 0 0.0130807 0.0230243 1.53617
4 1.99771 0 0 0.00321194 -1.03865 -0.409705
5 0.358219 -0.000130296 -0.000133038 -1.5708 0.000372529 0.772807
6 3.57113 0 0 0 0 -0.19079
7 2.11638 0 0 0 0 -0.294347
8 1.97852 0 0 0 0 0
9 0.635818 -1.41048 1.8265 -0.524918 -0.577236 -1.2436
10 1.5758 0 0 -0.138052 0.157184 -2.02514
11 1.24879 0 0 0.23711 0.532066 1.8275
12 1.03455 0 0 0.0183428 0.000327189 0.474768
13 8.04529 5.3095 3.11547 0.333724 1.25938 -2.57603
14 7.05487 6.05092 1.14692 1.61888 1.0156 -1.64562
15 7.30085 -1.20935 1.98381 -0.939516 0.100327 2.29
16 4.80399 0.935958 1.04627 1.57156 0.00663273 -1.55215
17 4.8108 0.577865 1.04377 0.000836508 0.427243 -1.55181
18 7.63763 5.05076 1.61547 -1.03917 0.384617 2.09837
19 7.0141 5.50713 0.267759 1.57919 0.18493 -1.62719
20 6.32376 -0.093519 1.83451 -0.885633 0.405606 2.5462
21 6.33037 7.51704 2.22534 -1.54195 0.407433 1.60991
22 3.15237 0 0 0.0138656 -0.00274846 -0.206
23 2.79335 0 0 0.000694652 0.00932015 -0.122967
24 3.38194 0 0 0 0.0093459 -0.060306
time 13
0 6.76001 5.80079 4.58265 1.57735 0.0594953 -1.54211
1 3.86721 0 0 -0.0174738 -0.0240606 -0.105471
2 3.46652 -1.90644 0.948191 -0.864936 0.17181 -2.26777
3 1.49066 0 0 0.0130807 0.0223401 1.81519
4 1.9977 0 0 -0.235351 -0.872346 -0.148077
5 0.358219 -0.000130177 -0.000133038 -1.5708 0.00037235 0.772807
6 3.57113 0 0 0 0 -0.168791
7 2.11638 0 0 0 0 -0.294347
8 1.97852 0 0 0 0 0
9 0.635819 -1.41048 1.8265 -0.583259 -0.569208 -1.097
10 1.5758 0 0 -0.138053 0.138207 -2.23067
11 1.24879 0 0 0.136074 0.572997 1.78218
12 1.03455 0 0 0.0124308 0.00162656 0.40523
13 8.61078 5.30213 3.14884 -0.389958 1.10463 3.0407
14 7.16542 6.14926 1.10164 1.5802 0.853416 -1.68077
15 7.80581 -1.15718 1.88881 -1.09504 -0.0167095 2.17211
16 5.58709 1.28317 1.1191 1.56756 -0.0200735 -1.54487
17 5.5965 0.925216 1.12619 -0.00391899 0.599189 -1.54715
18 7.90611 5.37347 1.74119 -0.843556 0.537668 2.33306
19 7.09078 5.47324 0.322076 1.56095 0.235909 -1.65188
20 6.96263 0.0718336 1.91371 -1.05582 0.409076 2.41959
21 6.84201 7.51881 2.20507 -1.57757 0.40851 1.61529
22 3.15237 0 0 0.014103 -0.00279533 -0.205699
23 2.79334 0 0 0.000702532 0.00942573 -0.122957
24 3.38194 0 0 0 0.00945172 -0.0602959
time 14
0 7.28001 5.80079 4.52864 1.62325 0.0594954 -1.54689
1 3.86721 0 0 -0.0512738 -0.0191705 -0.123388
2 3.46652 -1.90644 0.948192 -0.684518 -0.0323491 -2.40618
3 1.49066 0 0 0.0130805 0.0199809 2.09042
4 1.99771 0 0 -0.273018 -0.668694 -0.03141
5 0.358219 -0.000130177 -0.000133991 -1.5708 0.000372261 0.739585
6 3.57113 0 0 0 0 -0.129897
7 2.11638 0 0 0 0 -0.294347
8 1.97852 0 0 0 0 0
9 0.635818 -1.41048 1.8265 -0.573301 -0.535544 -1.02085
10 1.5758 0 0 -0.138052 0.112274 -2.44314
11 1.24879 0 0 0.0474236 0.526576 1.81774
12 1.03455 0 0 0.0133093 0.000722871 0.419115
13 9.19071 5.28968 3.18038 -0.749628 0.847625 2.6782
14 7.50309 6.17487 1.09667 1.56888 0.762126 -1.69184
15 8.35086 -1.10757 1.78959 -1.20614 -0.236693 2.00911
16 6.539 1.4583 1.14592 1.5741 0.021404 -1.54591
17 6.54804 1.10037 1.13816 0.00467453 0.786147 -1.54267
18 8.25787 5.7558 1.99898 -0.643781 0.807486 2.63476
19 7.41273 5.43198 0.382352 1.55739 0.297132 -1.67204
20 7.73585 0.204549 2.13914 -1.16223 0.520347 2.33298
21 7.36872 7.52125 2.15414 -1.62747 0.409659 1.60173
22 3.15237 0 0 0.0142895 -0.00283246 -0.205463
23 2.79335 0 0 0.000709789 0.00952638 -0.122947
24 3.38194 0 0 0 0.00955252 -0.0602864
time 15
0 7.80001 5.80079 4.48228 1.62325 0.0594954 -1.55306
1 3.86721 0 0 -0.0661161 -0.0134343 -0.140693
2 3.46652 -1.90644 0.94819 -0.466434 -0.160227 -2.5511
3 1.49066 0 0 0.0130807 0.017588 2.27196
4 1.99771 0 0 -0.182216 -0.47971 0.0558668
5 0.358219 -0.000130177 -0.000133038 -1.5708 0.00037238 0.651999
6 3.57113 0 0 0 0 -0.0898523
7 2.11638 0 0 0 0 -0.294347
8 1.97852 0 0 0 0 0
9 0.635818 -1.41048 1.8265 -0.228402 -0.297334 -1.07921
10 1.5758 0 0 -0.138052 0.0930536 -2.57973
11 1.24879 0 0 -0.076557 0.147998 1.88963
12 1.03455 0 0 0.0199893 -0.00210433 0.504671
13 9.70752 5.27791 3.13402 -0.445409 1.07991 3.0457
14 8.17258 6.14573 1.204 1.5694 0.738993 -1.69185
15 8.82173 -1.06218 1.67897 -1.20771 -0.679241 1.63472
16 7.92557 1.16528 1.14228 1.58315 0.106579 -1.5515
17 7.93258 0.809269 1.1041 0.0208252 0.940155 -1.53599
18 8.96809 5.34903 1.74429 -0.869012 0.447431 2.35545
19 8.08024 5.38664 0.507189 1.56392 0.421152 -1.68617
20 8.74764 0.0952577 2.6154 -1.13456 0.829221 2.22589
21 7.83932 7.52066 2.10903 -1.62747 0.409435 1.59768
22 3.15237 0 0 0.0144137 -0.00285701 -0.205306
23 2.79335 0 0 0.000717065 0.00961986 -0.122938
24 3.38194 0 0 0 0.00964665 -0.0602774
time 16
0 8.32001 5.80079 4.4793 1.62325 0.0594955 -1.56009
1 3.86721 0 0 -0.0730403 -0.00672511 -0.157271
2 3.46652 -1.90644 0.948191 -0.149274 -0.224227 -2.68991
3 1.49066 0 0 0.0130807 0.0160137 2.37226
4 1.99771 0 0 0.0227098 -0.289976 0.146271
5 0.358219 -0.000130236 -0.000133514 -1.5708 0.00037235 0.528171
6 3.57113 0 0 0 0 -0.0644059
7 2.11638 0 0 0 0 -0.294347
8 1.97852 0 0 0 0 0
9 0.635819 -1.41048 1.8265 0.388271 0.155491 -1.08568
10 1.5758 0 0 -0.138053 0.127082 -2.32755
11 1.24879 0 0 -0.358937 -0.582541 1.84706
12 1.03455 0 0 0.0306465 -0.00622518 0.639237
13 10.2238 5.26452 3.13104 -0.0190695 1.21275 -2.80327
14 8.99543 6.08371 1.42272 1.57245 0.729686 -1.68959
15 9.30559 -1.01885 1.62257 -1.27645 -0.969054 1.19466
16 9.41008 0.731023 1.11435 1.58448 0.210768 -1.55899
17 9.41435 0.380871 1.03935 0.0282156 1.07682 -1.53701
18 9.70287 5.08123 1.65517 -1.02781 0.187232 2.18533
19 8.90404 5.31801 0.733053 1.57116 0.539684 -1.69676
20 9.61556 -0.234011 2.85139 -1.20695 1.05423 1.78059
21 8.34775 7.51934 2.11274 -1.62747 0.408812 1.59107
22 3.15237 0 0 0.014466 -0.00286737 -0.20524
23 2.79335 0 0 0.000723163 0.00970479 -0.12293
24 3.38194 0 0 0 0.00973153 -0.0602693
time 17
0 8.84001 5.80079 4.53953 1.62325 0.0594954 -1.56745
1 3.86721 0 0 -0.0759323 0 -0.16377
2 3.46652 -1.90644 0.948191 0.168388 -0.257957 -2.72839
3 1.49066 0 0 0.0130808 0.0168465 2.32157
4 1.99771 0 0 0.283217 -0.161916 0.274831
5 0.358219 -0.000130177 -0.000133038 -1.5708 0.000372365 0.386221
6 3.57113 0 0 0 0 -0.0615957
7 2.11638 0 0 0 0 -0.294347
8 1.97852 0 0 0 0 0
9 0.635818 -1.41048 1.8265 0.625325 0.458701 -1.18921
10 1.5758 0 0 -0.138053 0.174721 -1.63938
11 1.24879 0 0 -0.685894 -0.899408 1.67154
12 1.03455 0 0 0.0434568 -0.0110092 0.800152
13 10.7398 5.25051 3.19127 0.571854 1.28479 -2.28491
14 9.89142 6.02881 1.59318 1.57445 0.727934 -1.68806
15 9.79401 -1.00277 1.66345 -1.51823 -0.934275 1.01877
16 10.5409 0.455263 1.01391 1.57689 0.307987 -1.56674
17 10.5424 0.114021 0.90526 0.0138416 1.13792 -1.55602
18 10.4486 4.91456 1.67948 -1.17619 0.0691649 2.0345
19 9.80106 5.26177 0.904866 1.57582 0.632253 -1.70472
20 10.2587 -0.248329 2.86219 -1.4533 1.18157 1.18936
21 8.8832 7.51709 2.18332 -1.62749 0.407775 1.58663
22 3.15237 0 0 0.0144355 -0.0028613 -0.20528
23 2.79335 0 0 0.000728779 0.00977859 -0.122923
24 3.38194 0 0 0 0.00980543 -0.0602623
time 18
0 9.36001 5.80079 4.60345 1.62325 0.0594954 -1.57609
1 3.86721 0 0 -0.0734705 0.00763667 -0.149202
2 3.46652 -1.90644 0.948193 0.381372 -0.352886 -2.7081
3 1.49066 0 0 0.0130805 0.0193968 2.14032
4 1.99771 0 0 0.499635 -0.149267 0.450077
5 0.358219 -0.000130117 -0.000133514 -1.5708 0.000372298 0.244272
6 3.57113 0 0 0 0 -0.073549
7 2.11638 0 0 0 0 -0.294347
8 1.97852 0 0 0 0 0
9 0.635817 -1.41048 1.8265 0.538093 0.504572 -1.27726
10 1.5758 0 0 -0.138052 0.171267 -1.358
11 1.24879 0 0 -0.622864 -0.897076 1.46592
12 1.03455 0 0 0.0565958 -0.015827 0.964755
13 11.255 5.23413 3.25519 1.66602 1.27608 -1.39018
14 11.0187 5.98883 1.66949 1.57454 0.746103 -1.68826
15 10.2838 -1.04419 1.77533 -1.69448 -0.749631 0.92692
16 11.5456 0.323466 0.953239 1.5708 0.372455 -1.5708
17 11.5458 -0.0100858 0.822807 0 0.965235 -1.5708
18 11.3372 4.78386 1.74733 -1.45008 0.0623677 1.82924
19 10.9296 5.23435 0.96726 1.57705 0.69701 -1.70991
20 10.9387 -0.171572 2.79102 -1.76461 1.16795 0.684244
21 9.43733 7.51383 2.25947 -1.62752 0.40626 1.5822
22 3.15237 0 0 0.0143121 -0.00283677 -0.205438
23 2.79334 0 0 0.000733487 0.00983937 -0.122918
24 3.38194 0 0 0 0.00986662 -0.0602565
time 19
0 9.88001 5.8008 4.62174 1.62325 0.0594953 -1.58615
1 3.86721 0 0 -0.0652318 0.0160983 -0.119308
2 3.46652 -1.90644 0.948192 0.512102 -0.490337 -2.7116
3 1.49066 0 0 0.0130806 0.0216149 1.92154
4 1.99771 0 0 0.65478 -0.219792 0.643364
5 0.358219 -0.000130147 -0.000133991 -1.5708 0.000372425 0.120443
6 3.57113 0 0 0 0 -0.0921435
7 2.11638 0 0 0 0 -0.294347
8 1.97852 0 0 0 0 0
9 0.635818 -1.41048 1.8265 0.367333 0.284249 -1.21558
10 1.5758 0 0 -0.138052 0.175041 -1.6198
11 1.24879 0 0 -0.449535 -0.66355 1.50096
12 1.03455 0 0 0.0682394 -0.0200484 1.11038
13 11.7692 5.21509 3.27348 2.59056 1.07105 -0.728078
14 12.321 5.9494 1.71816 1.57064 0.786455 -1.69117
15 10.7738 -1.12549 1.89394 -1.64991 -0.551448 0.875247
16 12.408 0.657902 1.0429 1.5708 0.422635 -1.5708
17 12.4082 0.331248 0.895852 0 0.354057 -1.5708
18 12.3328 4.71261 1.89039 -1.83797 0.138362 1.58038
19 12.2332 5.22393 0.985849 1.57304 0.722004 -1.71142
20 11.5874 -0.150743 2.67493 -1.66818 0.956103 0.778052
21 10.0005 7.50968 2.29009 -1.62757 0.404554 1.57682
22 3.15237 0 0 0.0140853 -0.00279187 -0.205728
23 2.79335 0 0 0.000736716 0.00988525 -0.122913
24 3.38194 0 0 0 0.00991256 -0.0602522
time 20
0 10.4 5.8008 4.61593 1.62325 0.0594956 -1.59594
1 3.86721 0 0 -0.0564501 0.0229567 -0.0898278
2 3.46652 -1.90644 0.948192 0.616207 -0.628316 -2.73945
3 1.49066 0 0 0.0130807 0.0227113 1.73469
4 1.99771 0 0 0.772026 -0.338711 0.82106
5 0.358219 -0.000130177 -0.000133514 -1.5708 0.000372427 0.0328576
6 3.57113 0 0 0 0 -0.109256
7 2.11638 0 0 0 0 -0.294347
8 1.97852 0 0 0 0 0
9 0.635817 -1.41048 1.8265 0.176519 0.0862471 -1.18986
10 1.5758 0 0 -0.138052 0.173102 -1.72319
11 1.24879 0 0 -0.311594 -0.410948 1.51524
12 1.03455 0 0 0.0765634 -0.0230431 1.21438
13 12.2834 5.19662 3.26767 2.95185 0.903638 -0.496902
14 13.3967 5.91987 1.74273 1.5605 0.827041 -1.69811
15 11.2596 -1.20331 1.98926 -1.72277 -0.236808 0.89047
16 13.0784 0.66468 0.721008 1.5708 0.474194 -1.5708
17 13.0785 0.345975 0.557309 0 -0.0983901 -1.5708
18 13.1405 4.73182 2.02975 -2.06663 0.231907 1.35838
19 13.3078 5.22509 0.981375 1.56377 0.651148 -1.70426
20 12.1711 -0.0768582 2.33897 -1.8071 0.944003 0.68522
21 10.5599 7.50535 2.29493 -1.62763 0.402946 1.57141
22 3.15237 0 0 0.0137446 -0.00272445 -0.206164
23 2.79335 0 0 0.000738793 0.00991434 -0.12291
24 3.38194 0 0 0 0.0099419 -0.0602492
time 21
0 10.92 5.8008 4.6089 1.62325 0.0594955 -1.60377
1 3.86721 0 0 -0.05236 0.0257826 -0.0765032
2 3.46652 -1.90644 0.948189 0.673043 -0.78832 -2.72892
3 1.49066 0 0 0.0130806 0.0229607 1.50076
4 1.9977 0 0 0.881968 -0.439733 0.955882
5 0.358219 -0.000130177 -0.000133038 -1.5708 0.000372426 -0.000364341
6 3.57113 0 0 0 0 -0.116766
7 2.11638 0 0 0 0 -0.294347
8 1.97852 0 0 0 0 0
9 0.635818 -1.41048 1.8265 -0.0106005 -0.117062 -1.24603
10 1.5758 0 0 -0.138052 0.173418 -1.7132
11 1.24879 0 0 -0.179862 -0.1561 1.5278
12 1.03455 0 0 0.0797434 -0.0241812 1.25408
13 12.7986 5.18189 3.26064 2.92389 0.924987 -0.525516
14 13.8444 5.90816 1.74968 1.55361 0.84546 -1.70285
15 11.739 -1.24038 2.02865 -1.75081 -0.0873858 0.951422
16 13.3813 0.568589 0.420314 1.5708 0.49788 -1.5708
17 13.3815 0.253874 0.249113 0 0.116103 -1.5708
18 13.619 4.70613 2.00219 -2.0427 0.203605 1.38539
19 13.7541 5.22783 0.975555 1.55713 0.583692 -1.69751
20 12.601 -0.0312541 2.15874 -1.91458 1.05564 0.655382
21 11.1028 7.50217 2.29511 -1.62769 0.401732 1.56688
22 3.15237 0 0 0.0132795 -0.0026322 -0.206757
23 2.79335 0 0 0.00073964 0.00992442 -0.122909
24 3.38194 0 0 0 0.00995186 -0.0602484
end
