//Sequence File generated by the Wall Worm SMD Exporter PRO 1.99
//www.wallworm.com
version 1
nodes
0 "rat_hip" -1
1 "rat_tail001" 0
2 "rat_tail002" 1
3 "rat_tail003" 2
4 "rat_tail004" 3
5 "rat_spine" 0
6 "rat_r_forearm" 5
7 "rat_r_ulna" 6
8 "rat_r_paw" 7
9 "rat_r_pawtoe" 8
10 "rat_neck" 5
11 "rat_face" 10
12 "rat_nose" 11
13 "rat_l_forearm" 5
14 "rat_l_ulna" 13
15 "rat_l_paw" 14
16 "rat_l_pawtoe" 15
17 "rat_r_femur" 0
18 "rat_r_radius" 17
19 "rat_r_foot" 18
20 "rat_r_toes" 19
21 "rat_l_femur" 0
22 "rat_l_radius" 21
23 "rat_l_foot" 22
24 "rat_l_toes" 23
end
skeleton
time 0
0 0 5.8008 4.6089 1.62325 0.0594954 -1.60377
1 -1.56588 -2.41449 0 -0.021236 -0.0500582 -2.68202
2 3.15237 0 0 0.013585 -0.00269273 -0.20637
3 2.79335 0 0 0.000739454 0.00992453 -0.122909
4 3.38194 0 0 0 0.0099518 -0.0602484
5 3.86721 0 0 -0.0523598 0.0257828 -0.0765034
6 3.46652 -1.90644 0.948191 0.662515 -0.688906 -2.73379
7 1.49066 0 0 0.0130806 0.0229261 1.65946
8 1.99771 0 0 0.82073 -0.389682 0.884764
9 0.358219 -0.000130147 -0.000133514 -1.5708 0.00037229 -0.000364218
10 3.57113 0 0 0 0 -0.116766
11 2.11638 0 0 0 0 -0.294347
12 1.97852 0 0 0 0 0
13 3.46652 -1.90644 -0.948 -0.142441 0.566627 -3.01642
14 1.49066 0 0 0.0140873 0.0191216 0.978934
15 1.9977 0 0 -0.428619 0.420476 1.5431
16 0.358219 -0.000129908 -0.000133753 -1.58146 0.01642 0.377634
17 0.635818 -1.41048 1.8265 0.216264 0.183008 -0.802671
18 1.5758 0 0 -0.138053 0.173302 -1.71685
19 1.24879 0 0 -0.189718 -0.597854 1.16737
20 1.03455 0 0 0.0797432 -0.0241814 1.25408
21 0.635816 -1.41048 -1.8265 -0.260008 -0.40448 -0.932706
22 1.5758 0 0 -0.127043 0.0912621 -0.548813
23 1.24879 0 0 0.428049 -0.136807 1.44978
24 1.03455 0 0 -0.00452584 0.00122002 0.261796
time 1
0 0.367601 6.16839 4.61106 1.62325 0.0594953 -1.59937
1 -1.56629 -2.4203 0.00108051 -0.0186852 -0.0441942 -2.68007
2 3.15237 0 0 0.0135919 -0.00269411 -0.206361
3 2.79335 0 0 0.000739555 0.00992435 -0.122909
4 3.38194 0 0 0 0.00995174 -0.0602486
5 3.86721 0 0 -0.0556848 0.0245925 -0.0833724
6 3.46652 -1.90644 0.948191 0.726245 -0.65146 -2.46263
7 1.49066 0 0 0.0130807 0.0227939 1.71517
8 1.99771 0 0 0.904068 -0.139429 0.676027
9 0.358219 -0.000130177 -0.000133038 -1.5708 0.000372477 -0.198461
10 3.57113 0 0 0 0 -0.113833
11 2.11638 0 0 0 0 -0.294347
12 1.97852 0 0 0 0 0
13 3.46652 -1.90644 -0.948 -0.265104 0.466491 3.09733
14 1.49066 0 0 0.024241 0.0228807 1.45335
15 1.9977 0 0 -0.40228 0.349256 1.29374
16 0.358219 -0.000129983 -0.000133514 -1.58151 0.0163851 0.374455
17 0.635818 -1.41048 1.8265 0.061794 0.0410403 -0.755431
18 1.5758 0 0 -0.138053 0.172718 -1.7353
19 1.24879 0 0 -0.123538 -0.38527 1.21501
20 1.03455 0 0 0.0761426 -0.0222152 1.20686
21 0.635816 -1.41048 -1.8265 -0.204287 -0.426445 -1.00557
22 1.5758 0 0 -0.102434 0.0196069 -0.112013
23 1.24879 0 0 0.492298 -0.119381 1.0194
24 1.03455 0 0 -0.00903981 0.00761265 0.250519
time 2
0 0.735199 6.53599 4.61167 1.62325 0.0594954 -1.59374
1 -1.56695 -2.42895 0.00706089 -0.0153045 -0.0364234 -2.67753
2 3.15237 0 0 0.0136109 -0.00269782 -0.206337
3 2.79335 0 0 0.00073964 0.00992442 -0.122909
4 3.38194 0 0 0 0.00995175 -0.0602485
5 3.86721 0 0 -0.0635237 0.0214007 -0.100423
6 3.46652 -1.90644 0.948191 0.873527 -0.568278 -2.41596
7 1.49066 0 0 0.0130807 0.0219085 1.88523
8 1.99771 0 0 0.987073 0 0.555699
9 0.358219 -0.000130177 -0.000133395 -1.5708 0.00037238 -0.602616
10 3.57113 0 0 0 0 -0.106582
11 2.11638 0 0 0 0 -0.294347
12 1.97852 0 0 0 0 0
13 3.46652 -1.90644 -0.948 -0.255151 0.373413 3.04366
14 1.49066 0 0 0.0311437 0.022653 1.75428
15 1.9977 0 0 -0.313683 0.312267 1.16518
16 0.358219 -0.000129938 -0.000133753 -1.58164 0.0163007 0.366609
17 0.635818 -1.41048 1.8265 -0.0796132 -0.10277 -0.743664
18 1.5758 0 0 -0.138052 0.173905 -1.68917
19 1.24879 0 0 -0.0621717 -0.183592 1.30826
20 1.03455 0 0 0.06738 -0.0174398 1.0919
21 0.635817 -1.41048 -1.8265 -0.306849 -0.371912 -0.705946
22 1.5758 0 0 -0.135585 0.103888 -0.636443
23 1.24879 0 0 0.377342 -0.157148 1.13349
24 1.03455 0 0 -0.0205208 0.0241199 0.22666
time 3
0 1.1028 6.90359 4.60755 1.62325 0.0594953 -1.58729
1 -1.56777 -2.43947 0.0152389 -0.0124628 -0.0298908 -2.67528
2 3.15237 0 0 0.0136402 -0.00270372 -0.2063
3 2.79334 0 0 0.000739578 0.00992448 -0.122909
4 3.38194 0 0 0 0.00995186 -0.0602485
5 3.86721 0 0 -0.0726722 0.0167768 -0.122322
6 3.46652 -1.90644 0.948191 0.949742 -0.46292 -2.28496
7 1.49066 0 0 0.0130807 0.0207908 2.01421
8 1.99771 0 0 1.00268 0.176339 0.441056
9 0.358218 -0.000130296 -0.000133395 -1.5708 0.000372261 -0.927633
10 3.57113 0 0 0 0 -0.0973315
11 2.11638 0 0 0 0 -0.294347
12 1.97852 0 0 0 0 0
13 3.46652 -1.90644 -0.948 -0.206104 0.295282 3.0701
14 1.49066 0 0 0.0370789 0.0206895 2.02648
15 1.9977 0 0 -0.229822 0.266318 0.990896
16 0.358219 -0.000129953 -0.000133753 -1.5818 0.0161916 0.35663
17 0.635818 -1.41048 1.8265 -0.20564 -0.237944 -0.69404
18 1.5758 0 0 -0.138052 0.175126 -1.53253
19 1.24879 0 0 0.0462615 -0.0338812 1.29462
20 1.03455 0 0 0.0565143 -0.0115399 0.949275
21 0.635814 -1.41048 -1.8265 -0.344039 -0.265822 -0.497402
22 1.5758 0 0 -0.205627 0.159332 -1.15803
23 1.24879 0 0 0.251153 -0.216166 1.25095
24 1.03455 0 0 -0.0358781 0.0467402 0.205178
time 4
0 1.4704 7.27119 4.59894 1.62325 0.0594953 -1.58048
1 -1.56865 -2.45089 0.0229127 -0.011526 -0.0277412 -2.67423
2 3.15237 0 0 0.0136771 -0.002711 -0.206253
3 2.79334 0 0 0.000739636 0.00992448 -0.122909
4 3.38194 0 0 0 0.0099518 -0.0602485
5 3.86721 0 0 -0.0799261 0.0112893 -0.143735
6 3.46652 -1.90644 0.948191 0.874242 -0.393109 -2.08571
7 1.49066 0 0 0.0130807 0.0206251 2.03091
8 1.99771 0 0 0.852634 0.289795 0.295231
9 0.358218 -0.000130236 -0.000133395 -1.5708 0.00037244 -1.08838
10 3.57113 0 0 0 0 -0.0884004
11 2.11638 0 0 0 0 -0.294347
12 1.97852 0 0 0 0 0
13 3.46652 -1.90644 -0.948 -0.0691069 0.250701 -3.07863
14 1.49066 0 0 0.0407329 0.0184559 2.21265
15 1.9977 0 0 -0.0993704 0.231879 0.783161
16 0.358219 -0.000129953 -0.000133514 -1.58196 0.0160856 0.347053
17 0.635818 -1.41048 1.8265 -0.283116 -0.364816 -0.684007
18 1.5758 0 0 -0.138052 0.167357 -1.27074
19 1.24879 0 0 0.175383 0.0593444 1.22198
20 1.03455 0 0 0.0466044 -0.0062002 0.819041
21 0.635815 -1.41048 -1.8265 -0.284719 -0.132797 -0.409561
22 1.5758 0 0 -0.278757 0.17362 -1.59256
23 1.24879 0 0 0.132964 -0.324883 1.35615
24 1.03455 0 0 -0.0520262 0.0714719 0.201032
time 5
0 1.83799 7.63879 4.58217 1.62325 0.0594955 -1.57372
1 -1.56948 -2.46225 0.0273798 -0.0157617 -0.0375456 -2.67482
2 3.15237 0 0 0.0137197 -0.00271948 -0.206199
3 2.79335 0 0 0.000739547 0.00992448 -0.122909
4 3.38194 0 0 0 0.0099518 -0.0602485
5 3.86721 0 0 -0.0820808 0.00550752 -0.159329
6 3.46652 -1.90644 0.948191 0.774729 -0.366902 -2.06139
7 1.49066 0 0 0.0130807 0.0205573 2.03774
8 1.99771 0 0 0.706748 0.205802 0.191312
9 0.358219 -0.000130177 -0.000133395 -1.5708 0.00037232 -1.18325
10 3.57113 0 0 0 0 -0.0821079
11 2.11638 0 0 0 0 -0.294347
12 1.97852 0 0 0 0 0
13 3.46652 -1.90644 -0.948 0.162666 0.231122 -2.81563
14 1.49066 0 0 0.0420853 0.0173627 2.28814
15 1.9977 0 0 0.0780586 0.255379 0.526346
16 0.358219 -0.000129938 -0.000133514 -1.58206 0.0160112 0.340413
17 0.635818 -1.41048 1.8265 -0.310161 -0.470139 -0.683452
18 1.5758 0 0 -0.138052 0.145005 -0.977882
19 1.24879 0 0 0.298359 0.120212 1.08236
20 1.03455 0 0 0.0407093 -0.00310527 0.741263
21 0.635816 -1.41048 -1.8265 -0.124597 0.0130146 -0.443016
22 1.5758 0 0 -0.328441 0.165311 -1.88511
23 1.24879 0 0 0.0229839 -0.497697 1.46066
24 1.03455 0 0 -0.0658758 0.0943143 0.229184
time 6
0 2.20559 8.00639 4.54697 1.62325 0.0594954 -1.56745
1 -1.57018 -2.47258 0.025938 -0.0153685 -0.0365917 -2.67572
2 3.15237 0 0 0.0137652 -0.00272852 -0.206142
3 2.79335 0 0 0.000739699 0.00992442 -0.122909
4 3.38194 0 0 0 0.00995186 -0.0602485
5 3.86721 0 0 -0.0759323 0 -0.16377
6 3.46652 -1.90644 0.948191 0.739035 -0.318485 -2.25509
7 1.49066 0 0 0.0130806 0.0190502 2.16711
8 1.99771 0 0 0.64976 0.0420441 0.123356
9 0.358219 -0.000130177 -0.000133347 -1.5708 0.000372291 -1.20228
10 3.57113 0 0 0 0 -0.0807728
11 2.11638 0 0 0 0 -0.294347
12 1.97852 0 0 0 0 0
13 3.46652 -1.90644 -0.948 0.432434 0.172075 -2.44666
14 1.49066 0 0 0.0409464 0.0182945 2.22427
15 1.9977 0 0 0.229362 0.372934 0.272979
16 0.358219 -0.000129923 -0.000133276 -1.58208 0.0159985 0.339243
17 0.635817 -1.41048 1.8265 -0.260591 -0.560402 -0.751437
18 1.5758 0 0 -0.138052 0.0874798 -0.525113
19 1.24879 0 0 0.424963 0.197318 0.806348
20 1.03455 0 0 0.0404355 -0.00294248 0.735968
21 0.635815 -1.41048 -1.8265 0.0873864 0.149627 -0.565485
22 1.5758 0 0 -0.346831 0.158243 -1.99916
23 1.24879 0 0 -0.0877693 -0.680601 1.55406
24 1.03455 0 0 -0.0743176 0.111259 0.304598
time 7
0 2.57319 8.37398 4.50362 1.57735 0.0594954 -1.56086
1 -1.57064 -2.48092 0.0158856 -0.00122963 -0.00373979 -2.67602
2 3.15237 0 0 0.0138116 -0.00273754 -0.206083
3 2.79335 0 0 0.000739607 0.00992448 -0.122909
4 3.38194 0 0 0 0.00995181 -0.0602485
5 3.86721 0 0 -0.0561165 -0.00639173 -0.152308
6 3.46652 -1.90644 0.948191 0.686816 -0.179158 -2.80866
7 1.49066 0 0 0.0130806 0.0138624 2.4961
8 1.99771 0 0 0.660592 -0.249803 0.157257
9 0.358219 -0.000130177 -0.000133306 -1.5708 0.00037241 -1.13555
10 3.57113 0 0 0 0 -0.0867148
11 2.11638 0 0 0 0 -0.294347
12 1.97852 0 0 0 0 0
13 3.46652 -1.90644 -0.948001 0.567201 0.0980355 -2.11945
14 1.49066 0 0 0.0381718 0.0201172 2.08005
15 1.9977 0 0 0.251303 0.500509 0.0810118
16 0.358219 -0.000129938 -0.000133514 -1.582 0.0160611 0.344747
17 0.635817 -1.41048 1.8265 -0.124971 -0.551464 -0.943983
18 1.5758 0 0 -0.138052 -0.00674836 0.038261
19 1.24879 0 0 0.531777 0.288821 0.478927
20 1.03455 0 0 0.0432083 -0.00435997 0.769769
21 0.635815 -1.41048 -1.8265 0.333377 0.295634 -0.673312
22 1.5758 0 0 -0.346647 0.158325 -1.99799
23 1.24879 0 0 -0.200187 -0.82113 1.62412
24 1.03455 0 0 -0.0741957 0.118284 0.442243
time 8
0 2.94079 8.74158 4.4793 1.54457 0.0594954 -1.55359
1 -1.57077 -2.48629 -0.00548029 0.0105555 0.0236383 -2.67662
2 3.15237 0 0 0.0138567 -0.00274646 -0.206026
3 2.79335 0 0 0.000739644 0.00992436 -0.122909
4 3.38194 0 0 0 0.00995186 -0.0602482
5 3.86721 0 0 -0.0253035 -0.0141424 -0.129388
6 3.46652 -1.90644 0.948191 0.512098 -0.0819401 2.50177
7 1.49066 0 0 0.0130805 0.00856675 2.76074
8 1.99771 0 0 0.442381 -0.670093 0.72608
9 0.358219 -0.000130177 -0.000133336 -1.5708 0.000372231 -0.973119
10 3.57113 0 0 0 0 -0.105493
11 2.11638 0 0 0 0 -0.294347
12 1.97852 0 0 0 0 0
13 3.46652 -1.90644 -0.948 0.666096 -0.0465886 -1.83547
14 1.49066 0 0 0.0325606 0.0223438 1.81724
15 1.9977 0 0 0.240668 0.607993 -0.00040845
16 0.358219 -0.000129923 -0.000133753 -1.58191 0.0161188 0.349937
17 0.635818 -1.41048 1.8265 -0.144006 -0.546071 -0.859181
18 1.5758 0 0 -0.138052 -0.0067483 0.0382611
19 1.24879 0 0 0.54503 0.326974 0.424659
20 1.03455 0 0 0.0458144 -0.00598242 0.802619
21 0.635817 -1.41048 -1.8265 0.476601 0.393709 -0.834317
22 1.5758 0 0 -0.321948 0.167255 -1.84588
23 1.24879 0 0 -0.282208 -0.82063 1.62342
24 1.03455 0 0 -0.0639427 0.116782 0.697468
time 9
0 3.30839 9.10918 4.49627 1.5249 0.0594954 -1.54675
1 -1.57048 -2.48773 -0.0408614 0.0186247 0.0423861 -2.67711
2 3.15237 0 0 0.0138981 -0.00275487 -0.205973
3 2.79335 0 0 0.000739663 0.00992454 -0.122909
4 3.38194 0 0 0 0.00995186 -0.0602484
5 3.86721 0 0 0.00765912 -0.0216553 -0.103468
6 3.46652 -1.90644 0.948191 0.0152277 -0.245937 2.14123
7 1.49066 0 0 0.0130807 0.0120525 2.59104
8 1.99771 0 0 -0.179799 -0.513429 1.41486
9 0.358219 -0.000130236 -0.000133276 -1.5708 0.000372291 -0.705042
10 3.57113 0 0 0 0 -0.134789
11 2.11638 0 0 0 0 -0.294347
12 1.97852 0 0 0 0 0
13 3.46652 -1.90644 -0.948001 0.700547 -0.242697 -1.57818
14 1.49066 0 0 0.0239164 0.0228404 1.43915
15 1.9977 0 0 0.211428 0.687244 0.0241956
16 0.358219 -0.000129938 -0.000133753 -1.58191 0.0161187 0.349937
17 0.635818 -1.41048 1.8265 -0.157545 -0.544891 -0.798701
18 1.5758 0 0 -0.138052 -0.00674788 0.0382611
19 1.24879 0 0 0.53428 0.375471 0.342672
20 1.03455 0 0 0.0450403 -0.0064345 0.794466
21 0.635817 -1.41048 -1.8265 0.51208 0.479102 -1.02518
22 1.5758 0 0 -0.277416 0.173644 -1.5848
23 1.24879 0 0 -0.293525 -0.739982 1.51979
24 1.03455 0 0 -0.0489709 0.110443 0.994994
time 10
0 3.67599 9.47678 4.54107 1.51834 0.0594954 -1.54145
1 -1.56924 -2.48474 -0.112785 0.0191062 0.0435259 -2.67681
2 3.15237 0 0 0.0139338 -0.00276192 -0.205928
3 2.79335 0 0 0.000739517 0.00992447 -0.122909
4 3.38194 0 0 0 0.0099518 -0.0602484
5 3.86721 0 0 0.0339247 -0.027334 -0.0830054
6 3.46652 -1.90644 0.948191 -0.259407 -0.147493 2.42715
7 1.49066 0 0 0.0130808 0.0195028 2.13131
8 1.99771 0 0 -0.253065 -0.291555 1.33641
9 0.358219 -0.000129819 -0.000133276 -1.5708 0.000372574 -0.321383
10 3.57113 0 0 0 0 -0.165103
11 2.11638 0 0 0 0 -0.294347
12 1.97852 0 0 0 0 0
13 3.46652 -1.90644 -0.947999 0.755358 -0.366777 -1.43075
14 1.49066 0 0 0.0205746 0.0221429 1.29083
15 1.9977 0 0 0.196188 0.777242 0.00533659
16 0.35822 -0.000129938 -0.000133991 -1.58539 0.0130582 0.112932
17 0.635818 -1.41048 1.8265 -0.167197 -0.538793 -0.756057
18 1.5758 0 0 -0.138052 -0.00674788 0.0382611
19 1.24879 0 0 0.468121 0.444214 0.17681
20 1.03455 0 0 0.0384499 -0.00489253 0.715552
21 0.635818 -1.41048 -1.8265 0.459479 0.5164 -1.10965
22 1.5758 0 0 -0.241912 0.170511 -1.37817
23 1.24879 0 0 -0.192882 -0.690989 1.34108
24 1.03455 0 0 -0.0370464 0.0991101 1.1538
time 11
0 4.04358 9.84438 4.58731 1.5249 0.0594954 -1.5388
1 -1.56776 -2.47975 -0.193321 0.0124544 0.0281096 -2.67583
2 3.15237 0 0 0.0139609 -0.0027672 -0.205894
3 2.79335 0 0 0.000739539 0.00992459 -0.12291
4 3.38194 0 0 0 0.00995169 -0.0602484
5 3.86721 0 0 0.0446461 -0.0295815 -0.0764574
6 3.46652 -1.90644 0.948191 -0.363713 0.0829802 2.93872
7 1.49066 0 0 0.0130807 0.0222873 1.31839
8 1.99771 0 0 -0.334308 -0.194254 1.2902
9 0.358219 -0.000129938 -0.000133753 -1.5708 0.000372276 0.336903
10 3.57113 0 0 0 0 -0.186936
11 2.11638 0 0 0 0 -0.294347
12 1.97852 0 0 0 0 0
13 3.46652 -1.90644 -0.948001 0.871982 -0.338163 -1.45978
14 1.49066 0 0 0.0253142 0.022982 1.50016
15 1.9977 0 0 0.202767 0.864516 -0.112673
16 0.35822 -0.000129938 -0.000133514 -1.58867 0.00799887 -0.196295
17 0.635818 -1.41048 1.8265 -0.175567 -0.514165 -0.72036
18 1.5758 0 0 -0.138052 -0.0067486 0.0382611
19 1.24879 0 0 0.326618 0.503565 -0.101315
20 1.03455 0 0 0.0282833 -0.00224236 0.593598
21 0.635816 -1.41048 -1.8265 0.306735 0.398012 -0.973673
22 1.5758 0 0 -0.252659 0.172232 -1.44117
23 1.24879 0 0 -0.10858 -0.657211 1.34244
24 1.03455 0 0 -0.0322642 0.0805266 1.06089
time 12
0 4.41118 10.212 4.60859 1.54457 0.0594953 -1.53924
1 -1.5678 -2.47622 -0.209478 0.0024318 0.00487053 -2.67463
2 3.15237 0 0 0.0139777 -0.00277047 -0.205873
3 2.79335 0 0 0.000739759 0.00992443 -0.122909
4 3.38194 0 0 0 0.0099518 -0.0602484
5 3.86721 0 0 0.0242438 -0.0279779 -0.0868257
6 3.46652 -1.90644 0.948191 -0.293471 0.267253 -2.82733
7 1.49066 0 0 0.0130806 0.0103777 0.467427
8 1.99771 0 0 -0.365156 -0.150922 1.50008
9 0.358219 -0.000130177 -0.000133038 -1.5708 0.000372261 0.772807
10 3.57113 0 0 0 0 -0.19079
11 2.11638 0 0 0 0 -0.294347
12 1.97852 0 0 0 0 0
13 3.46652 -1.90644 -0.948 0.934747 -0.223607 -1.71901
14 1.49066 0 0 0.0330386 0.0222175 1.83871
15 1.9977 0 0 0.386139 0.848972 -0.0658247
16 0.358219 -0.000129938 -0.000133514 -1.59002 0.00374387 -0.424703
17 0.635818 -1.41048 1.8265 -0.418261 -0.387911 -0.12786
18 1.5758 0 0 -0.138052 0.158916 -1.13938
19 1.24879 0 0 0.0783647 0.310079 0.173475
20 1.03455 0 0 0.0183427 0.000326864 0.474768
21 0.635817 -1.41048 -1.8265 0.182114 0.28963 -0.98199
22 1.5758 0 0 -0.250434 0.171932 -1.42818
23 1.24879 0 0 -0.22026 -0.569882 1.5685
24 1.03455 0 0 -0.0306284 0.057078 0.829303
time 13
0 4.77878 10.5796 4.58265 1.57735 0.0594953 -1.54211
1 -1.57055 -2.47614 -0.115015 -0.00719712 -0.0174611 -2.67364
2 3.15237 0 0 0.0139817 -0.00277129 -0.205867
3 2.79334 0 0 0.00073964 0.00992442 -0.122909
4 3.38194 0 0 0 0.00995186 -0.0602484
5 3.86721 0 0 -0.0174739 -0.0240606 -0.105471
6 3.46652 -1.90644 0.948191 -0.330354 0.109649 -3.03229
7 1.49066 0 0 0.0130807 0.0191726 0.984179
8 1.99771 0 0 -0.322132 -0.130665 1.41548
9 0.358218 -0.000130177 -0.000133038 -1.5708 0.000372291 0.772807
10 3.57113 0 0 0 0 -0.168791
11 2.11638 0 0 0 0 -0.294347
12 1.97852 0 0 0 0 0
13 3.46652 -1.90644 -0.948 0.941368 -0.0609521 -2.28233
14 1.49066 0 0 0.0411648 0.0181245 2.23627
15 1.9977 0 0 0.704283 0.635346 0.190977
16 0.358219 -0.000129998 -0.000133514 -1.59038 -0.000121534 -0.623321
17 0.635819 -1.41048 1.8265 -0.411579 -0.202198 0.154363
18 1.5758 0 0 -0.138052 0.164533 -1.91821
19 1.24879 0 0 -0.0673761 0.119561 0.336432
20 1.03455 0 0 0.0124308 0.00162645 0.40523
21 0.635818 -1.41048 -1.8265 0.0324039 0.140279 -0.805677
22 1.5758 0 0 -0.269122 0.173562 -1.5368
23 1.24879 0 0 -0.0830139 -0.500276 1.5636
24 1.03455 0 0 -0.028093 0.0362523 0.617043
time 14
0 5.14638 10.9472 4.52864 1.62325 0.0594954 -1.54689
1 -1.57362 -2.47585 0 -0.0126694 -0.0301523 -2.67329
2 3.15237 0 0 0.0139705 -0.00276905 -0.205881
3 2.79334 0 0 0.000739577 0.00992448 -0.122909
4 3.38194 0 0 0 0.00995187 -0.0602483
5 3.86721 0 0 -0.0512738 -0.0191704 -0.123388
6 3.46652 -1.90644 0.948191 -0.278181 -0.0534078 3.08919
7 1.49066 0 0 0.0130808 0.022729 1.41249
8 1.99771 0 0 -0.254658 -0.156772 1.35485
9 0.358218 -0.000130653 -0.000133514 -1.5708 0.000372201 0.739584
10 3.57113 0 0 0 0 -0.129896
11 2.11638 0 0 0 0 -0.294347
12 1.97852 0 0 0 0 0
13 3.46652 -1.90644 -0.948 0.759104 0.181261 -3.10074
14 1.49066 0 0 0.0458937 0.0131004 2.53687
15 1.9977 0 0 0.714492 0.244963 0.580116
16 0.358219 -0.000129879 -0.000133991 -1.59015 -0.00295875 -0.768775
17 0.635818 -1.41048 1.8265 -0.114417 0.0422251 0.14654
18 1.5758 0 0 -0.138052 0.11562 -2.41833
19 1.24879 0 0 0.129279 -0.179054 0.594639
20 1.03455 0 0 0.0133094 0.000722982 0.419116
21 0.635818 -1.41048 -1.8265 -0.125229 -0.0128696 -0.707373
22 1.5758 0 0 -0.259687 0.172991 -1.48208
23 1.24879 0 0 0.0369322 -0.399598 1.48787
24 1.03455 0 0 -0.0216788 0.0201827 0.464892
time 15
0 5.51398 11.3148 4.48228 1.62325 0.0594955 -1.55306
1 -1.57474 -2.47152 0.0598512 -0.0135 -0.0320786 -2.67359
2 3.15237 0 0 0.013942 -0.00276348 -0.205917
3 2.79335 0 0 0.000739818 0.00992443 -0.122909
4 3.38194 0 0 0 0.00995192 -0.0602485
5 3.8672 0 0 -0.0661161 -0.0134343 -0.140693
6 3.46652 -1.90644 0.948191 -0.193644 -0.163579 2.98521
7 1.49066 0 0 0.0130807 0.0227758 1.71947
8 1.99771 0 0 -0.174644 -0.188113 1.30322
9 0.358219 -0.000130177 -0.000133038 -1.5708 0.000372291 0.651999
10 3.57113 0 0 0 0 -0.0898526
11 2.11638 0 0 0 0 -0.294347
12 1.97852 0 0 0 0 0
13 3.46652 -1.90644 -0.948001 0.119175 0.260111 2.49433
14 1.49066 0 0 0.0462547 0.0125615 2.56501
15 1.9977 0 0 0.217212 0.20149 1.0192
16 0.358219 -0.000130177 -0.000133038 -1.5899 -0.00428496 -0.837686
17 0.635816 -1.41048 1.8265 0.506765 0.322521 -0.26129
18 1.5758 0 0 -0.138052 0.119782 -2.38605
19 1.24879 0 0 0.386006 -0.827278 0.826699
20 1.03455 0 0 0.0199893 -0.00210439 0.504672
21 0.635814 -1.41048 -1.8265 -0.214325 -0.108819 -0.663232
22 1.5758 0 0 -0.228343 0.167338 -1.29751
23 1.24879 0 0 0.0753746 -0.345787 1.41384
24 1.03455 0 0 -0.0123235 0.00622273 0.317818
time 16
0 5.88157 11.6824 4.4793 1.62325 0.0594955 -1.56009
1 -1.57439 -2.46356 0.0831261 -0.0136532 -0.0324358 -2.67423
2 3.15237 0 0 0.013894 -0.00275401 -0.205978
3 2.79335 0 0 0.000739577 0.00992448 -0.122909
4 3.38194 0 0 0 0.00995181 -0.0602483
5 3.86721 0 0 -0.0730402 -0.00672517 -0.157271
6 3.46652 -1.90644 0.948191 -0.0420055 -0.257298 2.92424
7 1.49066 0 0 0.0130808 0.0213495 1.95447
8 1.99771 0 0 -0.0504447 -0.258287 1.2326
9 0.358219 -0.000129938 -0.000133514 -1.5708 0.00037232 0.52817
10 3.57113 0 0 0 0 -0.0644058
11 2.11638 0 0 0 0 -0.294347
12 1.97852 0 0 0 0 0
13 3.46652 -1.90644 -0.948001 -0.239409 0.283603 2.41384
14 1.49066 0 0 0.0414772 0.0178742 2.25367
15 1.9977 0 0 -0.108998 0.368276 1.22631
16 0.358219 -0.000130177 -0.000133991 -1.58975 -0.00490432 -0.87021
17 0.635818 -1.41048 1.8265 0.730036 0.418508 -0.8743
18 1.5758 0 0 -0.138052 0.161429 -1.96887
19 1.24879 0 0 -0.513976 -1.06048 1.61542
20 1.03455 0 0 0.0306466 -0.00622509 0.639237
21 0.635816 -1.41048 -1.8265 -0.267954 -0.234192 -0.73286
22 1.5758 0 0 -0.175491 0.142562 -0.958283
23 1.24879 0 0 0.206396 -0.236465 1.33614
24 1.03455 0 0 -0.00217854 -0.00494533 0.190027
time 17
0 6.24917 12.05 4.53953 1.62325 0.0594954 -1.56745
1 -1.573 -2.45327 0.0798016 -0.0147878 -0.0350726 -2.67538
2 3.15237 0 0 0.0138241 -0.00274002 -0.206067
3 2.79334 0 0 0.000739673 0.00992436 -0.122909
4 3.38194 0 0 0 0.00995192 -0.0602482
5 3.86721 0 0 -0.0759323 0 -0.16377
6 3.46652 -1.90644 0.948191 0.149775 -0.326421 2.96772
7 1.49066 0 0 0.0130807 0.0203389 2.05977
8 1.99771 0 0 0.130831 -0.341402 1.12547
9 0.358219 -0.000130177 -0.000133514 -1.5708 0.000372365 0.386221
10 3.57113 0 0 0 0 -0.0615958
11 2.11638 0 0 0 0 -0.294347
12 1.97852 0 0 0 0 0
13 3.46652 -1.90644 -0.948 -0.319515 0.408653 2.53338
14 1.49066 0 0 0.0331367 0.0221912 1.84311
15 1.9977 0 0 -0.242177 0.46589 1.37428
16 0.35822 -0.0001297 -0.000133514 -1.58992 -0.00421409 -0.833982
17 0.635818 -1.41048 1.8265 0.659102 0.538562 -1.21676
18 1.5758 0 0 -0.138053 0.174229 -1.47056
19 1.24879 0 0 -0.742835 -0.968673 1.61554
20 1.03455 0 0 0.0434568 -0.0110093 0.800152
21 0.635818 -1.41048 -1.8265 -0.171654 -0.353036 -1.11374
22 1.5758 0 0 -0.101335 0 -0.000481378
23 1.24879 0 0 0.480699 -0.0830716 0.872576
24 1.03455 0 0 0.00657193 -0.0126377 0.0957236
time 18
0 6.61677 12.4176 4.60345 1.62325 0.0594954 -1.57609
1 -1.57101 -2.44193 0.0598507 -0.016419 -0.0388641 -2.67706
2 3.15237 0 0 0.0137298 -0.0027214 -0.206186
3 2.79335 0 0 0.000739492 0.00992441 -0.122909
4 3.38194 0 0 0 0.00995174 -0.0602485
5 3.8672 0 0 -0.0734705 0.00763655 -0.149202
6 3.46652 -1.90644 0.948191 0.317803 -0.394457 3.10472
7 1.49066 0 0 0.0130807 0.0206863 2.02477
8 1.99771 0 0 0.329372 -0.390847 1.01703
9 0.358219 -0.000130177 -0.000133514 -1.5708 0.000372402 0.244272
10 3.57113 0 0 0 0 -0.0735491
11 2.11638 0 0 0 0 -0.294347
12 1.97852 0 0 0 0 0
13 3.46652 -1.90644 -0.948 -0.267805 0.519848 2.7142
14 1.49066 0 0 0.0240564 0.0228585 1.44528
15 1.9977 0 0 -0.29617 0.509144 1.52954
16 0.358219 -0.000129938 -0.000133514 -1.59037 0.000396669 -0.596839
17 0.635817 -1.41048 1.8265 0.549284 0.607604 -1.37261
18 1.5758 0 0 -0.138053 0.157659 -1.12233
19 1.24879 0 0 -0.685762 -0.944617 1.40126
20 1.03455 0 0 0.0565958 -0.0158271 0.964755
21 0.635815 -1.41048 -1.8265 -0.169207 -0.365475 -1.12476
22 1.5758 0 0 -0.101335 0 0
23 1.24879 0 0 0.517372 -0.10012 0.95374
24 1.03455 0 0 0.0117288 -0.0161786 0.0491169
time 19
0 6.98437 12.7852 4.62174 1.62325 0.0594954 -1.58615
1 -1.56887 -2.43083 0.0332503 -0.0182416 -0.0430985 -2.67893
2 3.15237 0 0 0.0136092 -0.00269744 -0.206339
3 2.79335 0 0 0.0007397 0.00992442 -0.122909
4 3.38194 0 0 0 0.00995192 -0.0602484
5 3.8672 0 0 -0.0652317 0.0160984 -0.119308
6 3.46652 -1.90644 0.948191 0.45247 -0.480968 -3.03695
7 1.49066 0 0 0.0130807 0.0216318 1.91956
8 1.99771 0 0 0.505002 -0.413785 0.95709
9 0.358219 -0.000130117 -0.000133514 -1.5708 0.000372358 0.120444
10 3.57113 0 0 0 0 -0.0921433
11 2.11638 0 0 0 0 -0.294347
12 1.97852 0 0 0 0 0
13 3.46652 -1.90644 -0.948 -0.211724 0.574564 2.81972
14 1.49066 0 0 0.0190045 0.0216301 1.21913
15 1.9977 0 0 -0.300355 0.540997 1.66953
16 0.35822 -0.000130177 -0.000133514 -1.586 0.0123353 0.0644289
17 0.635818 -1.41048 1.8265 0.467908 0.457417 -1.20346
18 1.5758 0 0 -0.138052 0.171267 -1.358
19 1.24879 0 0 -0.524755 -0.859724 1.3682
20 1.03455 0 0 0.0682394 -0.0200482 1.11038
21 0.635814 -1.41048 -1.8265 -0.157946 -0.328936 -1.18382
22 1.5758 0 0 -0.101335 0 0
23 1.24879 0 0 0.484371 -0.160299 1.05081
24 1.03455 0 0 0.0111041 -0.0148996 0.0644181
time 20
0 7.35197 13.1528 4.61593 1.62325 0.0594955 -1.59594
1 -1.56701 -2.42126 0.00997543 -0.0199488 -0.047067 -2.68069
2 3.15237 0 0 0.0134598 -0.00266792 -0.206529
3 2.79334 0 0 0.00073964 0.00992442 -0.122909
4 3.38194 0 0 0 0.0099518 -0.0602485
5 3.8672 0 0 -0.0564502 0.0229568 -0.0898278
6 3.46652 -1.90644 0.94819 0.585002 -0.579792 -2.92742
7 1.49066 0 0 0.0130807 0.0223548 1.81274
8 1.99771 0 0 0.664314 -0.442995 0.94173
9 0.358219 -0.000130177 -0.000133514 -1.5708 0.000372406 0.032858
10 3.57113 0 0 0 0 -0.109256
11 2.11638 0 0 0 0 -0.294347
12 1.97852 0 0 0 0 0
13 3.46652 -1.90644 -0.948001 -0.143004 0.594448 3.12555
14 1.49066 0 0 0.0138576 0.0189653 0.96688
15 1.9977 0 0 -0.383483 0.488632 1.666
16 0.358219 -0.000129938 -0.000134468 -1.57815 0.0181444 0.568461
17 0.635816 -1.41048 1.8265 0.361748 0.326307 -1.00981
18 1.5758 0 0 -0.138052 0.175116 -1.54207
19 1.24879 0 0 -0.361442 -0.754562 1.29241
20 1.03455 0 0 0.0765632 -0.023043 1.21438
21 0.635816 -1.41048 -1.8265 -0.233771 -0.312026 -0.959187
22 1.5758 0 0 -0.130437 0.0965705 -0.585004
23 1.24879 0 0 0.360976 -0.210934 1.46808
24 1.03455 0 0 0.00221487 -0.00585926 0.175855
time 21
0 7.71957 13.5204 4.6089 1.62325 0.0594954 -1.60377
1 -1.56588 -2.41449 0 -0.021236 -0.0500582 -2.68202
2 3.15237 0 0 0.0132794 -0.0026322 -0.206757
3 2.79335 0 0 0.000739732 0.00992436 -0.122909
4 3.38194 0 0 0 0.00995192 -0.0602485
5 3.86721 0 0 -0.0523598 0.0257828 -0.0765034
6 3.46652 -1.90644 0.948191 0.662517 -0.688906 -2.73379
7 1.49066 0 0 0.0130806 0.0229268 1.65946
8 1.9977 0 0 0.820731 -0.389681 0.884764
9 0.358219 -0.000130177 -0.000133514 -1.5708 0.000372386 -0.000364222
10 3.57113 0 0 0 0 -0.116766
11 2.11638 0 0 0 0 -0.294347
12 1.97852 0 0 0 0 0
13 3.46652 -1.90644 -0.948 -0.142441 0.566627 -3.01642
14 1.49066 0 0 0.0140872 0.0191215 0.978934
15 1.9977 0 0 -0.428619 0.420477 1.5431
16 0.358219 -0.000129938 -0.000133514 -1.58146 0.0164196 0.377634
17 0.635818 -1.41048 1.8265 0.216264 0.183007 -0.802669
18 1.5758 0 0 -0.138052 0.173302 -1.71686
19 1.24879 0 0 -0.189718 -0.597853 1.16737
20 1.03455 0 0 0.0797433 -0.0241813 1.25408
21 0.635817 -1.41048 -1.8265 -0.260008 -0.404481 -0.932707
22 1.5758 0 0 -0.127042 0.0912617 -0.548812
23 1.24879 0 0 0.428049 -0.136807 1.44978
24 1.03455 0 0 -0.00452559 0.00122011 0.261796
end
