//Sequence File generated by the Wall Worm SMD Exporter PRO 1.99
//www.wallworm.com
version 1
nodes
0 "rat_hip" -1
1 "rat_tail001" 0
2 "rat_tail002" 1
3 "rat_tail003" 2
4 "rat_tail004" 3
5 "rat_spine" 0
6 "rat_r_forearm" 5
7 "rat_r_ulna" 6
8 "rat_r_paw" 7
9 "rat_r_pawtoe" 8
10 "rat_neck" 5
11 "rat_face" 10
12 "rat_nose" 11
13 "rat_l_forearm" 5
14 "rat_l_ulna" 13
15 "rat_l_paw" 14
16 "rat_l_pawtoe" 15
17 "rat_r_femur" 0
18 "rat_r_radius" 17
19 "rat_r_foot" 18
20 "rat_r_toes" 19
21 "rat_l_femur" 0
22 "rat_l_radius" 21
23 "rat_l_foot" 22
24 "rat_l_toes" 23
end
skeleton
time 0
0 0 5.8008 4.6089 1.62325 0.0594954 -1.60377
1 -1.56588 -2.41449 0 -0.021236 -0.0500582 -2.68202
2 3.15237 0 0 0.00947455 -0.00187783 -0.211583
3 2.79335 0 0 0.000550618 0.00738827 -0.123151
4 3.38194 0 0 0 0.00740873 -0.0604909
5 3.86721 0 0 -0.0523598 0.0257828 -0.0765034
6 3.46652 -1.90644 0.948191 -0.0807449 -0.739489 -2.61261
7 1.49066 0 0 0.013081 0.00791661 0.350947
8 1.99771 0 0 0.173503 -0.708945 2.44461
9 0.358219 -0.000130177 -0.000133276 -1.5708 0.000372336 -0.000364359
10 3.57113 0 0 0 0 -0.116766
11 2.11638 0 0 0 0 -0.294347
12 1.97852 0 0 0 0 0
13 3.46652 -1.90644 -0.948 -0.650321 0.525337 -2.60465
14 1.49066 0 0 0.029449 0.0229028 1.67991
15 1.9977 0 0 -0.815024 -0.23874 0.49522
16 0.358219 -0.000129938 -0.000133514 -1.58146 0.0164181 0.377634
17 0.635818 -1.41048 1.8265 -0.415216 -0.550686 -0.971045
18 1.5758 0 0 -0.138052 0.175072 -1.5875
19 1.24879 0 0 0.0359233 0.342052 1.20977
20 1.03455 0 0 0.0797433 -0.0241814 1.25408
21 0.635816 -1.41048 -1.8265 0.233185 0.239635 -0.823117
22 1.5758 0 0 -0.324639 0.166482 -1.86209
23 1.24879 0 0 -0.553258 -0.540547 2.09214
24 1.03455 0 0 -0.00452561 0.0012202 0.261796
time 1
0 -0.367598 6.16839 4.61593 1.62325 0.0594955 -1.59594
1 -1.56701 -2.42126 0.00997511 -0.0199486 -0.047067 -2.68069
2 3.15237 0 0 0.00931386 -0.00184612 -0.211788
3 2.79335 0 0 0.000541428 0.00726445 -0.123163
4 3.38194 0 0 0 0.00728466 -0.0605027
5 3.8672 0 0 -0.0564502 0.0229568 -0.0898278
6 3.46652 -1.90644 0.948191 0.0749125 -0.725932 -2.8035
7 1.49066 0 0 0.0130806 0.0146474 0.689522
8 1.99771 0 0 0.247864 -0.675357 2.1531
9 0.358219 -0.000130177 -0.000133276 -1.5708 0.000372434 0.032858
10 3.57113 0 0 0 0 -0.109256
11 2.11638 0 0 0 0 -0.294347
12 1.97852 0 0 0 0 0
13 3.46652 -1.90644 -0.948 -0.739377 0.552825 -2.52931
14 1.49066 0 0 0.029529 0.022894 1.68339
15 1.9977 0 0 -0.872625 -0.332761 0.47254
16 0.358219 -0.000129938 -0.000133753 -1.57815 0.0181421 0.568462
17 0.635818 -1.41048 1.8265 -0.356177 -0.397307 -0.740821
18 1.5758 0 0 -0.138052 0.169142 -1.83093
19 1.24879 0 0 -0.0774331 0.202242 1.1253
20 1.03455 0 0 0.0765632 -0.0230431 1.21438
21 0.635814 -1.41048 -1.8265 0.101415 0.126548 -0.860965
22 1.5758 0 0 -0.327486 0.165614 -1.87931
23 1.24879 0 0 -0.393297 -0.44093 2.07307
24 1.03455 0 0 0.00221494 -0.00585915 0.175855
time 2
0 -0.735196 6.53599 4.62174 1.62325 0.0594954 -1.58615
1 -1.56887 -2.43083 0.0332505 -0.0182411 -0.043099 -2.67893
2 3.15237 0 0 0.00915188 -0.00181398 -0.211994
3 2.79335 0 0 0.00053213 0.00713949 -0.123175
4 3.38194 0 0 0 0.00715916 -0.0605147
5 3.8672 0 0 -0.0652317 0.0160984 -0.119308
6 3.46652 -1.90644 0.948191 0.24106 -0.706618 -2.96672
7 1.49066 0 0 0.0130807 0.0199927 1.05231
8 1.99771 0 0 0.390971 -0.631348 1.75488
9 0.358219 -0.000130191 -0.000133276 -1.5708 0.000372451 0.120444
10 3.57113 0 0 0 0 -0.0921433
11 2.11638 0 0 0 0 -0.294347
12 1.97852 0 0 0 0 0
13 3.46652 -1.90644 -0.948 -0.874587 0.438935 -2.66032
14 1.49066 0 0 0.0346867 0.0216989 1.91372
15 1.9977 0 0 -0.935081 -0.320609 0.477527
16 0.358219 -0.000129998 -0.000133753 -1.586 0.012333 0.0644289
17 0.635817 -1.41048 1.8265 -0.244996 -0.22578 -0.509997
18 1.5758 0 0 -0.138052 0.157941 -2.0151
19 1.24879 0 0 -0.101597 -0.0105587 0.963514
20 1.03455 0 0 0.0682394 -0.0200483 1.11038
21 0.635816 -1.41048 -1.8265 -0.259418 -0.306941 -1.24357
22 1.5758 0 0 -0.273259 0.173652 -1.56075
23 1.24879 0 0 0.129737 -0.123902 2.09284
24 1.03455 0 0 0.0111046 -0.0148999 0.0644185
time 3
0 -1.10279 6.90359 4.60345 1.62325 0.0594954 -1.57609
1 -1.57101 -2.44193 0.0598509 -0.0164192 -0.0388636 -2.67706
2 3.15237 0 0 0.00898934 -0.00178187 -0.212201
3 2.79335 0 0 0.000522769 0.00701363 -0.123187
4 3.38194 0 0 0 0.00703283 -0.0605269
5 3.86721 0 0 -0.0734707 0.00763631 -0.149202
6 3.46652 -1.90644 0.948191 0.438911 -0.61349 3.10196
7 1.49066 0 0 0.0130806 0.0230215 1.54846
8 1.99771 0 0 0.501155 -0.562494 1.3388
9 0.358219 -0.000130206 -0.000133753 -1.5708 0.000372417 0.244272
10 3.57113 0 0 0 0 -0.0735491
11 2.11638 0 0 0 0 -0.294347
12 1.97852 0 0 0 0 0
13 3.46652 -1.90644 -0.948 -0.930289 0.285076 -2.82282
14 1.49066 0 0 0.0395501 0.0192835 2.14998
15 1.9977 0 0 -0.952977 -0.230905 0.508085
16 0.358219 -0.000129819 -0.000133872 -1.59037 0.000394821 -0.596839
17 0.635818 -1.41048 1.8265 -0.0927658 -0.0177125 -0.186071
18 1.5758 0 0 -0.138053 0.141534 -2.19795
19 1.24879 0 0 0.0393328 -0.234135 0.721637
20 1.03455 0 0 0.0565958 -0.015827 0.964755
21 0.635817 -1.41048 -1.8265 0.000742259 -0.595817 -2.17774
22 1.5758 0 0 -0.101335 0 0
23 1.24879 0 0 0.651828 -0.151315 1.43942
24 1.03455 0 0 0.0117286 -0.0161792 0.0491173
time 4
0 -1.47039 7.27119 4.53953 1.62325 0.0594954 -1.56745
1 -1.573 -2.45327 0.0798011 -0.014788 -0.0350723 -2.67538
2 3.15237 0 0 0.00882574 -0.0017493 -0.212409
3 2.79335 0 0 0.000513331 0.00688663 -0.123199
4 3.38194 0 0 0 0.0069056 -0.0605389
5 3.8672 0 0 -0.0759323 0 -0.16377
6 3.46652 -1.90644 0.948191 0.544973 -0.501638 3.00691
7 1.49066 0 0 0.0130807 0.0216202 1.92097
8 1.99771 0 0 0.588465 -0.457675 0.990058
9 0.358219 -0.000130177 -0.000133276 -1.5708 0.00037244 0.386221
10 3.57113 0 0 0 0 -0.0615958
11 2.11638 0 0 0 0 -0.294347
12 1.97852 0 0 0 0 0
13 3.46652 -1.90644 -0.948 -0.886879 0.116691 -3.11764
14 1.49066 0 0 0.043397 0.0161257 2.36642
15 1.9977 0 0 -0.890457 -0.00632123 0.632845
16 0.358219 -0.000129879 -0.000133693 -1.58992 -0.00421498 -0.833982
17 0.635818 -1.41048 1.8265 0.0253023 0.138122 -0.00283613
18 1.5758 0 0 -0.138053 0.150182 -2.10857
19 1.24879 0 0 0.26672 -0.324638 0.358907
20 1.03455 0 0 0.0434568 -0.0110094 0.800152
21 0.635815 -1.41048 -1.8265 0.0114957 -0.633117 -2.25243
22 1.5758 0 0 -0.101335 0 -0.000340871
23 1.24879 0 0 0.690281 -0.196558 1.5087
24 1.03455 0 0 0.00657199 -0.0126379 0.0957233
time 5
0 -1.83799 7.63879 4.4793 1.62325 0.0594955 -1.56009
1 -1.57439 -2.46356 0.0831261 -0.0136532 -0.0324358 -2.67423
2 3.15237 0 0 0.00866139 -0.00171672 -0.212618
3 2.79335 0 0 0.000503699 0.00675891 -0.123212
4 3.38194 0 0 0 0.00677772 -0.0605512
5 3.86721 0 0 -0.0730402 -0.00672523 -0.157271
6 3.46652 -1.90644 0.948191 0.53819 -0.392775 3.04735
7 1.49066 0 0 0.0130807 0.0189096 2.17764
8 1.99771 0 0 0.603011 -0.294385 0.672457
9 0.358219 -0.000130147 -0.000133276 -1.5708 0.000372469 0.52817
10 3.57113 0 0 0 0 -0.0644058
11 2.11638 0 0 0 0 -0.294347
12 1.97852 0 0 0 0 0
13 3.46652 -1.90644 -0.948 -0.663001 0.0730616 2.76152
14 1.49066 0 0 0.045238 0.0140018 2.4885
15 1.9977 0 0 -0.595671 0.309312 0.92182
16 0.358219 -0.000129938 -0.000133634 -1.58975 -0.00490444 -0.87021
17 0.635818 -1.41048 1.8265 0.0700971 0.20354 0.0901538
18 1.5758 0 0 -0.138052 0.152404 -2.08359
19 1.24879 0 0 0.382641 -0.314648 0.185591
20 1.03455 0 0 0.0306466 -0.0062251 0.639237
21 0.635816 -1.41048 -1.8265 -0.00328824 -0.558005 -2.19973
22 1.5758 0 0 -0.101335 0 0
23 1.24879 0 0 0.622512 -0.191913 1.46617
24 1.03455 0 0 -0.0021788 -0.0049456 0.190026
time 6
0 -2.20559 8.00638 4.48228 1.62325 0.0594954 -1.55306
1 -1.57474 -2.47151 0.0598507 -0.0135001 -0.0320787 -2.67359
2 3.15237 0 0 0.00849636 -0.00168413 -0.212827
3 2.79335 0 0 0.000494279 0.00663071 -0.123224
4 3.38194 0 0 0 0.00664899 -0.0605636
5 3.86721 0 0 -0.0661161 -0.0134343 -0.140693
6 3.46652 -1.90644 0.948191 0.408264 -0.310934 -3.06091
7 1.49066 0 0 0.0130807 0.0168465 2.32157
8 1.99771 0 0 0.500041 -0.123734 0.333442
9 0.358219 -0.000130206 -0.000133038 -1.5708 0.00037235 0.651999
10 3.57113 0 0 0 0 -0.0898525
11 2.11638 0 0 0 0 -0.294347
12 1.97852 0 0 0 0 0
13 3.46652 -1.90644 -0.948 -0.315096 0.195838 2.60364
14 1.49066 0 0 0.0445625 0.0148436 2.44164
15 1.9977 0 0 -0.134155 0.372609 1.27058
16 0.358219 -0.000129998 -0.000133634 -1.5899 -0.00428466 -0.837686
17 0.635817 -1.41048 1.8265 0.0725878 0.194961 0.0811638
18 1.5758 0 0 -0.138052 0.148547 -2.12696
19 1.24879 0 0 0.377257 -0.315326 0.222138
20 1.03455 0 0 0.0199894 -0.00210416 0.504672
21 0.635815 -1.41048 -1.8265 -0.243429 -0.483614 -1.6054
22 1.5758 0 0 -0.176123 0.143 -0.962725
23 1.24879 0 0 0.393319 -0.157843 1.90812
24 1.03455 0 0 -0.0123238 0.00622289 0.317818
time 7
0 -2.57319 8.37398 4.52864 1.62325 0.0594954 -1.54689
1 -1.57361 -2.47585 0 -0.0126694 -0.0301523 -2.67329
2 3.15237 0 0 0.00833082 -0.00165126 -0.213037
3 2.79334 0 0 0.000484419 0.00650189 -0.123236
4 3.38194 0 0 0 0.0065198 -0.0605758
5 3.86721 0 0 -0.0512738 -0.0191704 -0.123388
6 3.46652 -1.90644 0.948191 0.206323 -0.258078 -2.79716
7 1.49066 0 0 0.0130807 0.0161925 2.3614
8 1.99771 0 0 0.323917 -0.0509143 -0.0565219
9 0.358219 -0.000130236 -0.000133276 -1.5708 0.000372291 0.739584
10 3.57113 0 0 0 0 -0.129896
11 2.11638 0 0 0 0 -0.294347
12 1.97852 0 0 0 0 0
13 3.46652 -1.90644 -0.948 0.0099821 0.248758 2.70185
14 1.49066 0 0 0.041858 0.0175589 2.27511
15 1.9977 0 0 0.151194 0.240417 1.4852
16 0.358219 -0.000129879 -0.000133514 -1.59015 -0.00295937 -0.768775
17 0.635819 -1.41048 1.8265 0.0363241 0.12591 -0.0204266
18 1.5758 0 0 -0.138052 0.139449 -2.21845
19 1.24879 0 0 0.263132 -0.322067 0.456929
20 1.03455 0 0 0.0133093 0.000722694 0.419116
21 0.635818 -1.41048 -1.8265 -0.261197 -0.363593 -1.31786
22 1.5758 0 0 -0.228691 0.167433 -1.2996
23 1.24879 0 0 0.247395 -0.149365 1.93202
24 1.03455 0 0 -0.0216791 0.0201826 0.464891
time 8
0 -2.94079 8.74158 4.58265 1.57735 0.0594954 -1.54211
1 -1.57055 -2.47614 -0.115015 -0.00719689 -0.0174612 -2.67364
2 3.15237 0 0 0.00816458 -0.00161838 -0.213248
3 2.79335 0 0 0.000474895 0.0063725 -0.123249
4 3.38194 0 0 0 0.00638994 -0.0605883
5 3.86721 0 0 -0.017474 -0.0240608 -0.105471
6 3.46652 -1.90644 0.948191 -0.0968457 -0.192561 -2.47069
7 1.49066 0 0 0.0130806 0.0172232 2.29638
8 1.99771 0 0 0.172839 -0.159351 -0.465409
9 0.358218 -0.000130177 -0.000133514 -1.5708 0.00037235 0.772807
10 3.57113 0 0 0 0 -0.168791
11 2.11638 0 0 0 0 -0.294347
12 1.97852 0 0 0 0 0
13 3.46652 -1.90644 -0.948001 0.186167 0.219905 2.80651
14 1.49066 0 0 0.0378337 0.0203021 2.06332
15 1.9977 0 0 0.282227 0.138594 1.63644
16 0.358219 -0.000129938 -0.000133991 -1.59037 -0.000122547 -0.623321
17 0.635818 -1.41048 1.8265 0.0212395 0.0532794 -0.241396
18 1.5758 0 0 -0.138053 0.136267 -2.24772
19 1.24879 0 0 0.112932 -0.287202 0.802173
20 1.03455 0 0 0.0124308 0.00162639 0.40523
21 0.635816 -1.41048 -1.8265 -0.189081 -0.183638 -1.05206
22 1.5758 0 0 -0.274603 0.17366 -1.56852
23 1.24879 0 0 0.106203 -0.188024 1.82699
24 1.03455 0 0 -0.0280932 0.0362523 0.617043
time 9
0 -3.30838 9.10918 4.60859 1.54457 0.0594953 -1.53924
1 -1.5678 -2.47622 -0.209478 0.00243214 0.00487014 -2.67463
2 3.15237 0 0 0.00799811 -0.00158549 -0.21346
3 2.79335 0 0 0.000465407 0.00624257 -0.123261
4 3.38194 0 0 0 0.00625979 -0.0606006
5 3.86721 0 0 0.0242438 -0.027978 -0.0868258
6 3.46652 -1.90644 0.948191 -0.305697 -0.0962614 -2.17528
7 1.49066 0 0 0.0130807 0.0184903 2.209
8 1.99771 0 0 0.180638 -0.29087 -0.894102
9 0.358219 -0.000130057 -0.000133514 -1.5708 0.00037238 0.772807
10 3.57113 0 0 0 0 -0.19079
11 2.11638 0 0 0 0 -0.294347
12 1.97852 0 0 0 0 0
13 3.46652 -1.90644 -0.948 0.339271 0.132812 2.92656
14 1.49066 0 0 0.0322062 0.0224302 1.80141
15 1.9977 0 0 0.369081 0.0405539 1.72315
16 0.358219 -0.000129938 -0.000133514 -1.59001 0.00374331 -0.424702
17 0.635818 -1.41048 1.8265 -0.0428666 -0.0564749 -0.490416
18 1.5758 0 0 -0.138052 0.13406 -2.26712
19 1.24879 0 0 -0.0318764 -0.139463 1.17181
20 1.03455 0 0 0.0183428 0.00032701 0.474768
21 0.635818 -1.41048 -1.8265 -0.0818787 -0.00909983 -0.794168
22 1.5758 0 0 -0.29677 0.172303 -1.69714
23 1.24879 0 0 0.0770456 -0.315309 1.53114
24 1.03455 0 0 -0.0306286 0.057078 0.829303
time 10
0 -3.67598 9.47678 4.58731 1.5249 0.0594954 -1.5388
1 -1.56776 -2.47975 -0.193321 0.0124539 0.0281102 -2.67583
2 3.15237 0 0 0.00783129 -0.00155238 -0.213672
3 2.79334 0 0 0.000455506 0.00611255 -0.123273
4 3.38194 0 0 0 0.0061294 -0.0606132
5 3.86721 0 0 0.0446461 -0.0295815 -0.0764574
6 3.46652 -1.90644 0.948191 -0.427287 -0.0159837 -2.00693
7 1.49066 0 0 0.0130807 0.0196078 2.1223
8 1.99771 0 0 0.141316 -0.426644 -0.837584
9 0.358219 -0.000130266 -0.000133276 -1.5708 0.000372365 0.336903
10 3.57113 0 0 0 0 -0.186936
11 2.11638 0 0 0 0 -0.294347
12 1.97852 0 0 0 0 0
13 3.46652 -1.90644 -0.948001 0.422169 0.0403399 3.00706
14 1.49066 0 0 0.0266574 0.023038 1.55852
15 1.9977 0 0 0.426347 -0.00210127 1.72851
16 0.35822 -0.000129879 -0.000133753 -1.58867 0.00799793 -0.196294
17 0.635818 -1.41048 1.8265 -0.145503 -0.18624 -0.731803
18 1.5758 0 0 -0.138052 0.135901 -2.25094
19 1.24879 0 0 -0.0694802 0.0840584 1.48547
20 1.03455 0 0 0.0282835 -0.00224218 0.593598
21 0.635816 -1.41048 -1.8265 0.0298497 0.173927 -0.491338
22 1.5758 0 0 -0.301409 0.171659 -1.72425
23 1.24879 0 0 0.348946 -0.421024 0.980306
24 1.03455 0 0 -0.0322639 0.0805271 1.06089
time 11
0 -4.04358 9.84438 4.54107 1.51834 0.0594953 -1.54145
1 -1.56924 -2.48474 -0.112785 0.0191062 0.0435258 -2.67681
2 3.15237 0 0 0.00766417 -0.00151915 -0.213885
3 2.79335 0 0 0.000445812 0.00598213 -0.123286
4 3.38194 0 0 0 0.00599865 -0.0606256
5 3.86721 0 0 0.0339248 -0.0273338 -0.0830054
6 3.46652 -1.90644 0.948192 -0.512664 -0.0139209 -2.02089
7 1.49066 0 0 0.0130807 0.0186561 2.19657
8 1.99771 0 0 -0.0694897 -0.520463 -0.419879
9 0.358219 -0.000130117 -0.000133514 -1.5708 0.000372469 -0.321382
10 3.57113 0 0 0 0 -0.165103
11 2.11638 0 0 0 0 -0.294347
12 1.97852 0 0 0 0 0
13 3.46652 -1.90644 -0.948 0.453172 -0.0164414 3.04742
14 1.49066 0 0 0.0229754 0.022696 1.39783
15 1.9977 0 0 0.383857 0.0255583 1.56826
16 0.358219 -0.000130057 -0.000133991 -1.58539 0.0130571 0.112932
17 0.635818 -1.41048 1.8265 -0.259759 -0.314733 -0.940673
18 1.5758 0 0 -0.138052 0.143144 -2.18214
19 1.24879 0 0 0.0155571 0.275518 1.73182
20 1.03455 0 0 0.03845 -0.00489261 0.715552
21 0.635816 -1.41048 -1.8265 0.0869862 0.343947 -0.206242
22 1.5758 0 0 -0.279236 0.173609 -1.59534
23 1.24879 0 0 0.74312 -0.3332 0.410965
24 1.03455 0 0 -0.037046 0.0991111 1.1538
time 12
0 -4.41118 10.212 4.49627 1.5249 0.0594954 -1.54675
1 -1.57048 -2.48773 -0.0408616 0.0186246 0.042386 -2.67711
2 3.15237 0 0 0.00749702 -0.00148601 -0.214098
3 2.79335 0 0 0.000436058 0.00585171 -0.123298
4 3.38194 0 0 0 0.00586785 -0.0606383
5 3.86721 0 0 0.00765912 -0.0216553 -0.103468
6 3.46652 -1.90644 0.948192 -0.566301 -0.0994381 -2.17123
7 1.49066 0 0 0.0130806 0.0157756 2.38674
8 1.99771 0 0 -0.299403 -0.498956 0.00677158
9 0.358219 -0.000130177 -0.000133514 -1.5708 0.00037235 -0.705042
10 3.57113 0 0 0 0 -0.134789
11 2.11638 0 0 0 0 -0.294347
12 1.97852 0 0 0 0 0
13 3.46652 -1.90644 -0.947999 0.46333 -0.0391217 3.06052
14 1.49066 0 0 0.0215527 0.0224008 1.33475
15 1.9977 0 0 0.290233 0.0216535 1.46391
16 0.358219 -0.0001297 -0.000133991 -1.58191 0.0161177 0.349938
17 0.635818 -1.41048 1.8265 -0.357632 -0.425719 -1.10399
18 1.5758 0 0 -0.138052 0.15343 -2.07205
19 1.24879 0 0 0.154596 0.361176 1.9019
20 1.03455 0 0 0.0450405 -0.00643447 0.794466
21 0.635815 -1.41048 -1.8265 0.0820344 0.449588 -0.0545525
22 1.5758 0 0 -0.250905 0.171998 -1.43093
23 1.24879 0 0 0.891204 -0.287292 0.0913479
24 1.03455 0 0 -0.0489711 0.110443 0.994994
time 13
0 -4.77878 10.5796 4.4793 1.54457 0.0594954 -1.55359
1 -1.57078 -2.48629 -0.00548029 0.0105555 0.0236381 -2.67662
2 3.15237 0 0 0.0073296 -0.0014527 -0.214312
3 2.79335 0 0 0.000426411 0.00572105 -0.123311
4 3.38194 0 0 0 0.00573715 -0.0606508
5 3.86721 0 0 -0.0253035 -0.0141423 -0.129388
6 3.46652 -1.90644 0.948191 -0.518205 -0.272385 -2.5194
7 1.49066 0 0 0.0130807 0.0114606 2.62055
8 1.99771 0 0 -0.409374 -0.409385 0.372024
9 0.358219 -0.000130057 -0.000133514 -1.5708 0.00037232 -0.97312
10 3.57113 0 0 0 0 -0.105493
11 2.11638 0 0 0 0 -0.294347
12 1.97852 0 0 0 0 0
13 3.46652 -1.90644 -0.948 0.453894 -0.0286215 3.07329
14 1.49066 0 0 0.0221626 0.0225391 1.36189
15 1.9977 0 0 0.34134 0.0291072 1.49859
16 0.35822 -0.0001297 -0.000133038 -1.58191 0.0161175 0.349938
17 0.635817 -1.41048 1.8265 -0.432879 -0.514522 -1.2076
18 1.5758 0 0 -0.138053 0.161428 -1.96887
19 1.24879 0 0 0.264764 0.344396 1.99113
20 1.03455 0 0 0.0458142 -0.0059824 0.802619
21 0.635814 -1.41048 -1.8265 0.0915228 0.475109 0.00752731
22 1.5758 0 0 -0.252603 0.172225 -1.44085
23 1.24879 0 0 0.882483 -0.366086 0.0155644
24 1.03455 0 0 -0.0639428 0.116782 0.697468
time 14
0 -5.14638 10.9472 4.50362 1.57735 0.0594953 -1.56086
1 -1.57064 -2.48092 0.0158854 -0.00122986 -0.00373974 -2.67602
2 3.15237 0 0 0.00716247 -0.00141969 -0.214526
3 2.79334 0 0 0.000416744 0.00559075 -0.123323
4 3.38194 0 0 0 0.00560635 -0.0606634
5 3.86721 0 0 -0.0561165 -0.00639161 -0.152308
6 3.46652 -1.90644 0.948191 -0.178462 -0.37831 3.07169
7 1.49066 0 0 0.0130808 0.00746097 2.81166
8 1.99771 0 0 -0.310035 -0.263982 0.888443
9 0.358219 -0.000130177 -0.000133038 -1.5708 0.000372589 -1.13555
10 3.57113 0 0 0 0 -0.0867147
11 2.11638 0 0 0 0 -0.294348
12 1.97852 0 0 0 0 0
13 3.46652 -1.90644 -0.948001 0.422843 0.0142431 3.08377
14 1.49066 0 0 0.0248419 0.0229439 1.47958
15 1.9977 0 0 0.390861 0.0465837 1.51723
16 0.358219 -0.000129938 -0.000133514 -1.582 0.0160597 0.344748
17 0.635818 -1.41048 1.8265 -0.490055 -0.608329 -1.269
18 1.5758 0 0 -0.138052 0.170851 -1.79433
19 1.24879 0 0 0.332005 0.273973 1.94196
20 1.03455 0 0 0.0432083 -0.00435991 0.769769
21 0.635814 -1.41048 -1.8265 0.116707 0.442985 0.00160572
22 1.5758 0 0 -0.275007 0.17366 -1.57086
23 1.24879 0 0 0.787118 -0.537555 0.165011
24 1.03455 0 0 -0.0741956 0.118284 0.442243
time 15
0 -5.51397 11.3148 4.54697 1.62325 0.0594954 -1.56745
1 -1.57018 -2.47258 0.0259371 -0.0153685 -0.0365917 -2.67572
2 3.15237 0 0 0.00699546 -0.00138676 -0.214741
3 2.79334 0 0 0.00040698 0.00546056 -0.123336
4 3.38194 0 0 0 0.00547566 -0.060676
5 3.8672 0 0 -0.0759323 0 -0.16377
6 3.46652 -1.90644 0.94819 0.350332 -0.155254 2.53273
7 1.49066 0 0 0.0130806 0.00854284 2.76185
8 1.99771 0 0 0.0601501 -0.388491 1.38156
9 0.358219 -0.000130177 -0.000133514 -1.5708 0.00037238 -1.20228
10 3.57113 0 0 0 0 -0.0807728
11 2.11638 0 0 0 0 -0.294347
12 1.97852 0 0 0 0 0
13 3.46652 -1.90644 -0.948002 0.368132 0.0832916 3.06139
14 1.49066 0 0 0.0296391 0.0228812 1.6882
15 1.9977 0 0 0.370077 0.0697062 1.48026
16 0.358219 -0.000129938 -0.000133991 -1.58208 0.0159977 0.339244
17 0.635818 -1.41048 1.8265 -0.521044 -0.72259 -1.33091
18 1.5758 0 0 -0.138052 0.175116 -1.54224
19 1.24879 0 0 0.3883 0.19323 1.80484
20 1.03455 0 0 0.0404356 -0.00294245 0.735968
21 0.635815 -1.41048 -1.8265 0.112731 0.372722 -0.108419
22 1.5758 0 0 -0.291104 0.172919 -1.66416
23 1.24879 0 0 0.553595 -0.703657 0.52492
24 1.03455 0 0 -0.0743175 0.111259 0.304598
time 16
0 -5.88157 11.6824 4.58217 1.62325 0.0594955 -1.57372
1 -1.56948 -2.46225 0.02738 -0.0157617 -0.0375456 -2.67482
2 3.15237 0 0 0.00682853 -0.00135349 -0.214956
3 2.79334 0 0 0.000397208 0.00533056 -0.123348
4 3.38194 0 0 0 0.00534533 -0.0606887
5 3.86721 0 0 -0.0820808 0.00550752 -0.159329
6 3.46652 -1.90644 0.948191 0.510696 -0.26129 2.54457
7 1.49066 0 0 0.0130805 0.0152015 2.42077
8 1.99771 0 0 0.0956476 -0.570206 1.63304
9 0.358218 -0.000130177 -0.000133514 -1.5708 0.00037235 -1.18325
10 3.57113 0 0 0 0 -0.0821078
11 2.11638 0 0 0 0 -0.294347
12 1.97852 0 0 0 0 0
13 3.46652 -1.90644 -0.948 0.194829 0.197347 2.99203
14 1.49066 0 0 0.0350258 0.0215752 1.92937
15 1.9977 0 0 0.238763 0.174942 1.37287
16 0.358219 -0.000130057 -0.000133991 -1.58206 0.016011 0.340413
17 0.635818 -1.41048 1.8265 -0.438676 -0.763194 -1.43225
18 1.5758 0 0 -0.138053 0.167357 -1.27074
19 1.24879 0 0 0.393672 0.130129 1.63905
20 1.03455 0 0 0.0407093 -0.00310519 0.741263
21 0.635816 -1.41048 -1.8265 0.151254 0.335815 -0.207579
22 1.5758 0 0 -0.311954 0.16972 -1.7863
23 1.24879 0 0 0.215706 -0.806276 1.04962
24 1.03455 0 0 -0.0658755 0.0943138 0.229184
time 17
0 -6.24917 12.05 4.59894 1.62325 0.0594953 -1.58048
1 -1.56865 -2.45089 0.0229125 -0.011526 -0.0277412 -2.67423
2 3.15237 0 0 0.00666197 -0.00132046 -0.215171
3 2.79334 0 0 0.000387623 0.00520092 -0.123361
4 3.38194 0 0 0 0.00521536 -0.0607013
5 3.86721 0 0 -0.079926 0.0112892 -0.143735
6 3.46652 -1.90644 0.948192 0.50935 -0.409534 2.66599
7 1.49066 0 0 0.0130807 0.0206186 2.03157
8 1.99771 0 0 0.0909958 -0.637157 1.81397
9 0.358219 -0.000130177 -0.000132561 -1.5708 0.000372469 -1.08838
10 3.57113 0 0 0 0 -0.0884003
11 2.11638 0 0 0 0 -0.294347
12 1.97852 0 0 0 0 0
13 3.46652 -1.90644 -0.947999 -0.0251474 0.25844 2.97074
14 1.49066 0 0 0.0378234 0.0203078 2.0628
15 1.9977 0 0 0.0125456 0.267891 1.18159
16 0.358219 -0.000130057 -0.000133991 -1.58196 0.0160858 0.347053
17 0.635818 -1.41048 1.8265 -0.279693 -0.801251 -1.67373
18 1.5758 0 0 -0.138052 0.133924 -0.87314
19 1.24879 0 0 0.474475 0.116838 1.4721
20 1.03455 0 0 0.0466043 -0.00620029 0.819041
21 0.635818 -1.41048 -1.8265 0.17034 0.25989 -0.394108
22 1.5758 0 0 -0.338127 0.161887 -1.94456
23 1.24879 0 0 -0.209233 -0.73449 1.68838
24 1.03455 0 0 -0.0520258 0.0714724 0.201032
time 18
0 -6.61677 12.4176 4.60755 1.62325 0.0594953 -1.58729
1 -1.56777 -2.43947 0.0152392 -0.0124628 -0.0298908 -2.67528
2 3.15237 0 0 0.00649595 -0.00128752 -0.215388
3 2.79335 0 0 0.000377889 0.00507181 -0.123374
4 3.38194 0 0 0 0.00508563 -0.0607141
5 3.86721 0 0 -0.0726722 0.0167768 -0.122322
6 3.46652 -1.90644 0.948191 0.448144 -0.539682 2.84176
7 1.49066 0 0 0.0130807 0.0229565 1.64589
8 1.99771 0 0 0.10471 -0.6712 1.95944
9 0.358219 -0.000130177 -0.000133514 -1.5708 0.00037232 -0.927633
10 3.57113 0 0 0 0 -0.0973315
11 2.11638 0 0 0 0 -0.294347
12 1.97852 0 0 0 0 0
13 3.46652 -1.90644 -0.948001 -0.251674 0.286439 3.03262
14 1.49066 0 0 0.0384506 0.0199589 2.09397
15 1.9977 0 0 -0.272611 0.275556 0.945655
16 0.358219 -0.000129938 -0.000133991 -1.5818 0.0161917 0.35663
17 0.63582 -1.41048 1.8265 0.0152957 -0.790247 -2.09272
18 1.5758 0 0 -0.138052 0.0386975 -0.223538
19 1.24879 0 0 0.628761 0.168726 1.19696
20 1.03455 0 0 0.0565143 -0.0115399 0.949275
21 0.635818 -1.41048 -1.8265 0.148951 0.174055 -0.643082
22 1.5758 0 0 -0.35175 0.15593 -2.0306
23 1.24879 0 0 -0.402412 -0.539417 2.08215
24 1.03455 0 0 -0.035878 0.0467403 0.205178
time 19
0 -6.98437 12.7852 4.61167 1.62325 0.0594954 -1.59374
1 -1.56695 -2.42895 0.007061 -0.0153046 -0.0364233 -2.67753
2 3.15237 0 0 0.00633009 -0.00125484 -0.215604
3 2.79335 0 0 0.00036843 0.00494307 -0.123387
4 3.38194 0 0 0 0.00495667 -0.0607266
5 3.86721 0 0 -0.0635238 0.0214007 -0.100423
6 3.46652 -1.90644 0.948191 0.33013 -0.649159 3.06225
7 1.49066 0 0 0.0130806 0.0217856 1.24203
8 1.99771 0 0 0.124686 -0.69089 2.10858
9 0.358219 -0.000130057 -0.000133514 -1.5708 0.000372261 -0.602616
10 3.57113 0 0 0 0 -0.106582
11 2.11638 0 0 0 0 -0.294347
12 1.97852 0 0 0 0 0
13 3.46652 -1.90644 -0.948001 -0.443328 0.323713 -3.09612
14 1.49066 0 0 0.0371886 0.0206356 2.03177
15 1.9977 0 0 -0.534382 0.167526 0.734467
16 0.358219 -0.000130057 -0.000133514 -1.58164 0.0163004 0.366609
17 0.635818 -1.41048 1.8265 -0.162978 -0.782541 -1.77345
18 1.5758 0 0 -0.138052 0.100862 -0.616038
19 1.24879 0 0 0.537602 0.246245 1.35627
20 1.03455 0 0 0.06738 -0.0174398 1.0919
21 0.635816 -1.41048 -1.8265 0.120189 0.119191 -0.850499
22 1.5758 0 0 -0.350528 0.156522 -2.02275
23 1.24879 0 0 -0.431576 -0.400195 2.2373
24 1.03455 0 0 -0.0205207 0.0241198 0.226661
time 20
0 -7.35197 13.1528 4.61106 1.62325 0.0594953 -1.59937
1 -1.56629 -2.4203 0.00108099 -0.0186852 -0.0441942 -2.68007
2 3.15237 0 0 0.0061652 -0.00122203 -0.21582
3 2.79334 0 0 0.000358723 0.00481504 -0.123399
4 3.38194 0 0 0 0.00482825 -0.0607393
5 3.86721 0 0 -0.0556848 0.0245925 -0.0833724
6 3.46652 -1.90644 0.948192 0.0267248 -0.740295 -2.77851
7 1.49066 0 0 0.0130807 0.0121192 0.55421
8 1.99771 0 0 0.148015 -0.711768 2.39681
9 0.358219 -0.000130177 -0.000133514 -1.5708 0.000372328 -0.198461
10 3.57113 0 0 0 0 -0.113833
11 2.11638 0 0 0 0 -0.294347
12 1.97852 0 0 0 0 0
13 3.46652 -1.90644 -0.947999 -0.579045 0.400897 -2.87443
14 1.49066 0 0 0.0341979 0.0218671 1.89128
15 1.9977 0 0 -0.715975 -0.0297411 0.575634
16 0.358219 -0.000129938 -0.000133991 -1.58151 0.0163845 0.374455
17 0.635818 -1.41048 1.8265 -0.382317 -0.686572 -1.27905
18 1.5758 0 0 -0.138052 0.165097 -1.23276
19 1.24879 0 0 0.27372 0.363731 1.36578
20 1.03455 0 0 0.0761427 -0.0222152 1.20686
21 0.635815 -1.41048 -1.8265 0.139355 0.131931 -0.928264
22 1.5758 0 0 -0.341867 0.160389 -1.96787
23 1.24879 0 0 -0.462195 -0.389267 2.23614
24 1.03455 0 0 -0.00903977 0.0076122 0.25052
time 21
0 -7.71956 13.5204 4.6089 1.62325 0.0594954 -1.60377
1 -1.56588 -2.41449 0 -0.021236 -0.0500582 -2.68202
2 3.15237 0 0 0.00600071 -0.0011894 -0.216037
3 2.79335 0 0 0.000349481 0.00468769 -0.123412
4 3.38194 0 0 0 0.0047006 -0.0607521
5 3.86721 0 0 -0.0523598 0.0257828 -0.0765034
6 3.46652 -1.90644 0.94819 -0.0807502 -0.739489 -2.61261
7 1.49066 0 0 0.0130808 0.0079164 0.350937
8 1.99771 0 0 0.173502 -0.708945 2.44461
9 0.358219 -0.000130177 -0.000133514 -1.5708 0.000372339 -0.000364407
10 3.57113 0 0 0 0 -0.116766
11 2.11638 0 0 0 0 -0.294347
12 1.97852 0 0 0 0 0
13 3.46652 -1.90644 -0.947999 -0.650321 0.525336 -2.60465
14 1.49066 0 0 0.0294489 0.0229022 1.67991
15 1.9977 0 0 -0.815022 -0.238736 0.495221
16 0.358219 -0.000129938 -0.000133038 -1.58146 0.0164179 0.377634
17 0.635818 -1.41048 1.8265 -0.415215 -0.550685 -0.971044
18 1.5758 0 0 -0.138052 0.175073 -1.5875
19 1.24879 0 0 0.0359222 0.342051 1.20977
20 1.03455 0 0 0.0797433 -0.0241815 1.25408
21 0.635817 -1.41048 -1.8265 0.233184 0.239635 -0.823118
22 1.5758 0 0 -0.32464 0.166482 -1.86209
23 1.24879 0 0 -0.553262 -0.540549 2.09214
24 1.03455 0 0 -0.00452575 0.00122004 0.261796
end
