//Sequence File generated by the Wall Worm SMD Exporter PRO 1.99
//www.wallworm.com
version 1
nodes
0 "rat_hip" -1
1 "rat_spine" 0
2 "rat_r_forearm" 1
3 "rat_r_ulna" 2
4 "rat_r_paw" 3
5 "rat_r_pawtoe" 4
6 "rat_neck" 1
7 "rat_face" 6
8 "rat_nose" 7
9 "rat_r_femur" 0
10 "rat_r_radius" 9
11 "rat_r_foot" 10
12 "rat_r_toes" 11
13 "rat_l_femur" -1
14 "rat_l_foot" -1
15 "rat_l_forearm" -1
16 "rat_l_paw" -1
17 "rat_l_pawtoe" -1
18 "rat_l_radius" -1
19 "rat_l_toes" -1
20 "rat_l_ulna" -1
21 "rat_tail001" -1
22 "rat_tail002" 21
23 "rat_tail003" 22
24 "rat_tail004" 23
end
skeleton
time 0
0 0 5.8008 4.6089 1.62325 0.0594955 -1.60377
1 3.86721 0 0 -0.05236 0.0257826 -0.0765032
2 3.46652 -1.90644 0.948191 -0.0538909 0.0795545 -0.616428
3 1.49066 0 0 0.0130808 0.0071294 0.314437
4 1.99771 0 0 -0.0415199 -0.0895103 0.522543
5 0.358219 -0.000130162 -0.000133336 -1.5708 0.000372418 -0.000364296
6 3.57113 0 0 0 0 -0.116766
7 2.11638 0 0 0 0 -0.294347
8 1.97852 0 0 0 0 0
9 0.635818 -1.41048 1.8265 -0.0574087 -0.214874 -1.66689
10 1.5758 0 0 -0.138052 0.168886 -1.30487
11 1.24879 0 0 -0.0591247 -0.0757073 1.52891
12 1.03455 0 0 0.0797434 -0.0241813 1.25408
13 1.87856 5.18189 3.26064 2.01381 1.36898 -1.14856
14 1.89239 5.8719 0.949135 1.6838 0.504718 -1.45436
15 0.818952 -1.24038 2.02865 -1.39284 -0.0308986 1.45918
16 0.762335 1.33834 0.420737 1.5708 0.49788 -1.5708
17 0.762468 1.02362 0.249536 0 0.116103 -1.5708
18 2.008 4.89376 1.71683 -1.42065 0.662067 1.68844
19 1.9976 4.97248 0.448868 1.6727 0.244408 -1.48444
20 0.984915 0.240296 2.0747 -1.23183 0.975409 1.77079
21 0.182781 7.50217 2.29511 -1.62769 0.401732 1.56688
22 3.15237 0 0 0.00455389 -0.000902666 -0.218092
23 2.79335 0 0 0.000266917 0.00358099 -0.12353
24 3.38194 0 0 0 0.00359091 -0.0608706
time 1
0 0 6.3208 4.61593 1.62325 0.0594956 -1.59594
1 3.86721 0 0 -0.0564501 0.0229568 -0.0898277
2 3.46652 -1.90644 0.948191 -0.0657979 0.0483984 -0.88203
3 1.49066 0 0 0.0130807 0.0164149 0.793868
4 1.99771 0 0 -0.0249052 -0.0971902 0.244706
5 0.358218 -0.000130162 -0.000133336 -1.5708 0.000372446 -0.000364211
6 3.57113 0 0 0 0 -0.109257
7 2.11638 0 0 0 0 -0.294347
8 1.97852 0 0 0 0 0
9 0.635818 -1.41048 1.8265 -0.096258 -0.227218 -1.34137
10 1.5758 0 0 -0.138053 0.175041 -1.6198
11 1.24879 0 0 -0.0865278 -0.0389406 1.51807
12 1.03455 0 0 0.0795883 -0.0247358 1.25283
13 1.88334 5.71662 3.26767 2.38573 1.44181 -0.759201
14 1.89238 6.63976 1.06371 1.61631 0.498105 -1.47778
15 0.8596 -0.683308 1.98926 -1.37442 -0.198807 1.40294
16 0.76232 1.33907 0.403248 1.58025 0.477448 -1.56758
17 0.763476 1.02092 0.238514 0.00850158 0.103439 -1.57039
18 2.03038 5.5771 1.70496 -1.44783 0.539248 1.69993
19 1.97679 5.73485 0.569447 1.61078 0.21562 -1.48869
20 1.10373 0.757451 2.28367 -0.901336 1.22643 2.10161
21 0.159887 8.02535 2.29493 -1.62763 0.402946 1.57141
22 3.15237 0 0 0.00438533 -0.000869259 -0.218397
23 2.79335 0 0 0.000257204 0.00345026 -0.123548
24 3.38194 0 0 0 0.00345974 -0.0608886
time 2
0 0 6.8408 4.62174 1.62325 0.0594953 -1.58615
1 3.86721 0 0 -0.0652318 0.0160983 -0.119308
2 3.46652 -1.90644 0.948191 -0.109803 -0.0204672 -1.54785
3 1.49066 0 0 0.0130806 0.0227923 1.71552
4 1.99771 0 0 0.0164191 -0.142654 -0.111147
5 0.358219 -0.000130117 -0.000133395 -1.5708 0.000372245 -0.000364308
6 3.57113 0 0 0 0 -0.0921435
7 2.11638 0 0 0 0 -0.294347
8 1.97852 0 0 0 0 0
9 0.635818 -1.41048 1.8265 -0.13235 -0.220825 -1.01894
10 1.5758 0 0 -0.138052 0.170332 -1.80543
11 1.24879 0 0 -0.0935113 -0.039882 1.38486
12 1.03455 0 0 0.0785029 -0.0257656 1.24407
13 1.88917 6.25509 3.27348 -2.62523 1.45391 0.531018
14 1.89238 7.47454 1.19206 1.59822 0.581367 -1.46273
15 0.893789 -0.0854878 1.89394 -1.35721 -0.285572 1.3459
16 0.762463 1.33751 0.367786 1.58752 0.429011 -1.56533
17 0.76438 1.01177 0.218649 0.0154072 0.0760267 -1.56866
18 2.04764 6.34816 1.70843 -1.4742 0.426295 1.70777
19 1.98564 6.615 0.623917 1.59122 0.24231 -1.46435
20 1.21276 1.30878 2.31387 0.084998 1.34297 3.07787
21 0.120487 8.54968 2.29009 -1.62757 0.404554 1.57682
22 3.15237 0 0 0.00420375 -0.000833253 -0.218731
23 2.79335 0 0 0.000246797 0.00330905 -0.123567
24 3.38194 0 0 0 0.00331825 -0.0609084
time 3
0 0 7.3608 4.60345 1.62325 0.0594954 -1.57609
1 3.86721 0 0 -0.0734707 0.00763636 -0.149202
2 3.46652 -1.90644 0.948191 -0.132696 -0.100614 -2.06243
3 1.49066 0 0 0.0130806 0.0184284 2.2136
4 1.99771 0 0 0.0385698 -0.194597 -0.159312
5 0.358219 -0.000130117 -0.000133276 -1.5708 0.000372398 -0.000364413
6 3.57113 0 0 0 0 -0.0735489
7 2.11638 0 0 0 0 -0.294347
8 1.97852 0 0 0 0 0
9 0.635818 -1.41048 1.8265 -0.16875 -0.196802 -0.701734
10 1.5758 0 0 -0.138052 0.166777 -1.8816
11 1.24879 0 0 -0.0747009 -0.0644765 1.14841
12 1.03455 0 0 0.0755575 -0.02632 1.22031
13 1.89497 6.79413 3.25519 -2.01751 1.31792 1.1531
14 1.89238 8.32499 1.32579 1.5444 0.831438 -1.52107
15 0.923766 0.515815 1.77533 -1.3663 -0.267241 1.30922
16 0.762174 1.33983 0.328516 1.5708 0.372455 -1.5708
17 0.762307 1.00618 0.198029 0.00016378 0.0503816 -1.56573
18 2.0549 7.15448 1.7295 -1.49686 0.329196 1.70875
19 1.92703 7.62875 0.561361 1.54793 0.410444 -1.49224
20 1.29557 1.90465 2.16897 0.977237 1.17138 -2.32758
21 0.0773227 9.07383 2.25947 -1.62752 0.40626 1.5822
22 3.15237 0 0 0.0040112 -0.000795046 -0.219092
23 2.79335 0 0 0.000235247 0.00315928 -0.123589
24 3.38194 0 0 0 0.00316788 -0.0609296
time 4
0 0 7.8808 4.53953 1.62325 0.0594954 -1.56745
1 3.86721 0 0 -0.0759323 0 -0.16377
2 3.46652 -1.90644 0.948191 -0.123814 -0.168414 -2.43186
3 1.49066 0 0 0.0130806 0.0144124 2.46514
4 1.99771 0 0 0.0484892 -0.231614 -0.114904
5 0.358219 -0.000130206 -0.000133276 -1.5708 0.000372356 -0.000364287
6 3.57113 0 0 0 0 -0.0615957
7 2.11638 0 0 0 0 -0.294347
8 1.97852 0 0 0 0 0
9 0.635818 -1.41048 1.8265 -0.196799 -0.172204 -0.483655
10 1.5758 0 0 -0.138052 0.166294 -1.88948
11 1.24879 0 0 -0.04231 -0.0697427 1.05904
12 1.03455 0 0 0.0616626 -0.0192362 1.04361
13 1.89979 7.33051 3.19127 -1.85631 1.15979 1.32268
14 1.89238 9.14307 1.45034 1.60413 1.01399 -1.48578
15 0.953999 1.07723 1.66345 -1.41387 -0.0980048 1.31747
16 0.762081 1.33941 0.294437 1.5203 0.292403 -1.58653
17 0.756812 0.996445 0.191042 -0.0484992 0.00849982 -1.56418
18 2.0544 7.94082 1.74671 -1.51493 0.239612 1.70475
19 1.93881 8.5983 0.572063 1.58812 0.493104 -1.4757
20 1.3258 2.51339 1.80931 1.29734 0.860709 -2.01846
21 0.0431904 9.59709 2.18332 -1.62749 0.407775 1.58663
22 3.15237 0 0 0.00380954 -0.000755112 -0.219472
23 2.79334 0 0 0.000223931 0.00300236 -0.123611
24 3.38194 0 0 0 0.00301076 -0.0609518
time 5
0 0 8.4008 4.4793 1.62325 0.0594955 -1.56009
1 3.8672 0 0 -0.0730402 -0.00672505 -0.157271
2 3.46652 -1.90644 0.948191 -0.0765233 -0.279234 -3.07933
3 1.49066 0 0 0.0130807 0.0107816 2.65445
4 1.99771 0 0 0.00391382 -0.304103 0.250416
5 0.358219 -0.000130206 -0.000133276 -1.5708 0.000372356 -0.000364392
6 3.57113 0 0 0 0 -0.0644057
7 2.11638 0 0 0 0 -0.294347
8 1.97852 0 0 0 0 0
9 0.635817 -1.41048 1.8265 -0.211958 -0.154084 -0.366099
10 1.5758 0 0 -0.138052 0.16922 -1.82927
11 1.24879 0 0 -0.00731428 -0.0707045 1.14445
12 1.03455 0 0 0.0402434 -0.00608056 0.750841
13 1.90379 7.86452 3.13104 -1.79276 1.03182 1.39072
14 1.89238 9.87876 1.55441 1.73664 1.20358 -1.39505
15 0.985586 1.58115 1.62257 -1.47312 0.253237 1.36336
16 0.762065 1.33882 0.258016 1.48705 0.182881 -1.59969
17 0.752011 0.98671 0.192729 -0.0835942 -0.0594059 -1.56795
18 2.04865 8.66024 1.77863 -1.52414 0.180527 1.69834
19 1.95733 9.51305 0.588837 1.64267 0.577433 -1.46812
20 1.2828 2.99333 1.2491 1.43946 0.519114 -1.87572
21 0.0277475 10.1193 2.11274 -1.62747 0.408812 1.59107
22 3.15237 0 0 0.0036015 -0.00071377 -0.21987
23 2.79335 0 0 0.00021154 0.00284018 -0.123634
24 3.38194 0 0 0 0.00284811 -0.0609752
time 6
0 0 8.9208 4.48228 1.62325 0.0594954 -1.55306
1 3.86721 0 0 -0.0661161 -0.0134343 -0.140693
2 3.46652 -1.90644 0.948191 -0.0457034 -0.303915 2.69369
3 1.49066 0 0 0.0130807 0.0119478 2.59626
4 1.99771 0 0 -0.0876872 -0.300651 0.706272
5 0.358219 -0.000130177 -0.000133336 -1.5708 0.000372366 -0.00036436
6 3.57113 0 0 0 0 -0.0898525
7 2.11638 0 0 0 0 -0.294347
8 1.97852 0 0 0 0 0
9 0.635817 -1.41048 1.8265 -0.202646 -0.141888 -0.395699
10 1.5758 0 0 -0.138052 0.175108 -1.55009
11 1.24879 0 0 0.0433 -0.115256 1.1584
12 1.03455 0 0 0.0291394 0.00100328 0.596661
13 1.90751 8.39791 3.13402 -1.77947 0.984533 1.40788
14 1.89239 10.4817 1.62636 2.00008 1.34229 -1.17205
15 1.02172 2.05782 1.67897 -1.50575 0.667451 1.4107
16 0.762243 1.33888 0.229786 1.49736 0.0937057 -1.60734
17 0.749336 0.982464 0.196129 -0.077261 -0.0636572 -1.5775
18 2.04892 9.25818 1.82136 -1.52904 0.156787 1.69804
19 1.98338 10.2657 0.618707 1.69281 0.622231 -1.46558
20 1.20836 3.21362 0.75627 1.49968 0.266695 -1.80442
21 0.0393126 10.6407 2.10903 -1.62747 0.409435 1.59768
22 3.15237 0 0 0.00338908 -0.000671774 -0.220279
23 2.79335 0 0 0.000199365 0.00267455 -0.123658
24 3.38194 0 0 0 0.0026821 -0.0609992
time 7
0 0 9.44079 4.52864 1.62325 0.0594954 -1.54689
1 3.86721 0 0 -0.0512738 -0.0191705 -0.123388
2 3.46652 -1.90644 0.948191 -0.0443062 -0.259146 2.56668
3 1.49066 0 0 0.0130807 0.0160682 2.36894
4 1.99771 0 0 -0.0896694 -0.259856 0.910251
5 0.358219 -0.000130177 -0.000133395 -1.5708 0.000372366 -0.000364276
6 3.57113 0 0 0 0 -0.129897
7 2.11638 0 0 0 0 -0.294347
8 1.97852 0 0 0 0 0
9 0.635819 -1.41048 1.8265 -0.192618 -0.129161 -0.463085
10 1.5758 0 0 -0.138053 0.160385 -1.15932
11 1.24879 0 0 0.125043 -0.168184 0.951373
12 1.03455 0 0 0.0291394 0.00100334 0.59666
13 1.9107 8.92968 3.18038 -1.82983 1.06359 1.35769
14 1.89238 10.9043 1.65243 2.21788 1.38925 -0.972524
15 1.07086 2.53243 1.78959 -1.50711 1.0444 1.44835
16 0.762302 1.33903 0.218094 1.51226 0.0605835 -1.61088
17 0.748097 0.981749 0.196267 -0.06436 -0.0325848 -1.58213
18 2.07259 9.67779 1.80296 -1.54194 0.120835 1.71668
19 1.99759 10.75 0.634886 1.70797 0.589617 -1.46994
20 1.16233 3.27576 0.500731 1.52235 0.141957 -1.77448
21 0.0887099 11.1612 2.15414 -1.62747 0.409659 1.60173
22 3.15237 0 0 0.00317438 -0.000629386 -0.220695
23 2.79335 0 0 0.000186788 0.00250728 -0.123683
24 3.38194 0 0 0 0.00251408 -0.0610237
time 8
0 0 9.96079 4.58265 1.57735 0.0594954 -1.54211
1 3.8672 0 0 -0.017474 -0.0240607 -0.10547
2 3.46652 -1.90644 0.948191 -0.10724 -0.21222 2.64432
3 1.49066 0 0 0.0130807 0.0200665 2.08304
4 1.99771 0 0 -0.087326 -0.2206 0.942169
5 0.358218 -0.000130415 -0.000133336 -1.5708 0.00037224 -0.00036436
6 3.57113 0 0 0 0 -0.168791
7 2.11638 0 0 0 0 -0.294347
8 1.97852 0 0 0 0 0
9 0.635819 -1.41048 1.8265 -0.148761 -0.080025 -0.533871
10 1.5758 0 0 -0.138052 0.160292 -1.15806
11 1.24879 0 0 0.128296 -0.203324 0.993839
12 1.03455 0 0 0.0257752 0.00088052 0.560675
13 1.85077 9.46213 3.14884 -2.07007 1.27331 1.07132
14 1.89237 11.1021 1.58561 2.06919 1.37984 -1.11599
15 1.0458 3.00282 1.88881 -1.51141 1.36788 1.49912
16 0.762302 1.339 0.222216 1.49162 0.0954798 -1.60934
17 0.748683 0.982667 0.187924 -0.0836834 -0.0444765 -1.57688
18 2.07201 9.86761 1.64226 -1.56795 0.0453834 1.7153
19 1.97863 10.9257 0.569861 1.67191 0.460837 -1.48459
20 1.06732 3.30245 0.42873 1.54331 0.103561 -1.72491
21 0.0820065 11.6788 2.20507 -1.57757 0.40851 1.61529
22 3.15237 0 0 0.0029596 -0.000586551 -0.221113
23 2.79334 0 0 0.000174334 0.00233953 -0.123707
24 3.38194 0 0 0 0.00234611 -0.0610484
time 9
0 0 10.4808 4.60859 1.54457 0.0594953 -1.53924
1 3.86721 0 0 0.0242438 -0.027978 -0.0868258
2 3.46652 -1.90644 0.948191 -0.112052 -0.18288 2.71363
3 1.49066 0 0 0.0130807 0.0221414 1.84737
4 1.99771 0 0 -0.0493946 -0.21228 0.890043
5 0.358219 -0.0001297 -0.000133336 -1.5708 0.000372395 0.146513
6 3.57113 0 0 0 0 -0.19079
7 2.11638 0 0 0 0 -0.294347
8 1.97852 0 0 0 0 0
9 0.635818 -1.41048 1.8265 -0.110393 -0.0546582 -0.55615
10 1.5758 0 0 -0.138052 0.171778 -1.37516
11 1.24879 0 0 0.07233 -0.200014 1.18162
12 1.03455 0 0 0.0183743 0.0004305 0.481507
13 1.80529 9.9895 3.11547 2.94936 1.39831 -0.213418
14 1.8925 11.1622 1.43977 1.81579 1.33789 -1.36002
15 1.06084 3.47066 1.98381 1.51654 1.45613 -1.7381
16 0.762331 1.33918 0.251326 1.46136 0.194317 -1.60776
17 0.749461 0.987945 0.182011 -0.109765 -0.00226353 -1.56769
18 2.06961 9.93222 1.56306 -1.58774 0.098886 1.7138
19 1.94246 10.9287 0.433152 1.61859 0.293148 -1.4961
20 1.03244 3.30249 0.502945 1.54862 0.126289 -1.70752
21 0.0903668 12.197 2.22534 -1.54195 0.407433 1.60991
22 3.15237 0 0 0.00274732 -0.000544549 -0.22153
23 2.79334 0 0 0.000161877 0.00217382 -0.123732
24 3.38194 0 0 0 0.00217963 -0.061073
time 10
0 0 11.0008 4.58731 1.5249 0.0594954 -1.5388
1 3.86721 0 0 0.0446461 -0.0295815 -0.0764574
2 3.46652 -1.90644 0.948191 -0.119064 -0.165019 2.74499
3 1.49066 0 0 0.0130807 0.0227495 1.72571
4 1.9977 0 0 -0.0443371 -0.201342 0.901196
5 0.358219 -0.000130177 -0.000133336 -1.5708 0.00037244 0.419286
6 3.57113 0 0 0 0 -0.186936
7 2.11638 0 0 0 0 -0.294347
8 1.97852 0 0 0 0 0
9 0.635818 -1.41048 1.8265 -0.0706868 -0.0543236 -0.602648
10 1.5758 0 0 -0.138053 0.174217 -1.67015
11 1.24879 0 0 -0.00367624 -0.154588 1.44511
12 1.03455 0 0 0.0109731 -0.000469298 0.402339
13 1.77643 10.5114 3.05935 2.12134 1.19811 -1.04647
14 1.89238 11.2191 1.30961 1.67726 1.26622 -1.49256
15 1.05644 3.96215 1.99818 1.54075 1.10547 -1.68674
16 0.762461 1.34036 0.330617 1.46782 0.334683 -1.60438
17 0.75122 1.00223 0.212812 -0.0979418 0.116864 -1.56496
18 2.06368 10.0147 1.59173 -1.59121 0.227881 1.71207
19 1.91663 10.9098 0.322676 1.58225 0.166479 -1.49943
20 0.979059 3.29777 0.666011 1.54088 0.168688 -1.681
21 0.0245166 12.7153 2.19892 -1.52056 0.406982 1.59464
22 3.15237 0 0 0.00253877 -0.000503245 -0.221939
23 2.79334 0 0 0.000149917 0.00201125 -0.123756
24 3.38194 0 0 0 0.00201667 -0.061097
time 11
0 0 11.5208 4.54107 1.51834 0.0594953 -1.54145
1 3.86721 0 0 0.0339248 -0.0273338 -0.0830054
2 3.46652 -1.90644 0.948191 -0.149088 -0.159024 2.78641
3 1.49066 0 0 0.0130807 0.022683 1.7415
4 1.99771 0 0 -0.0727256 -0.194264 0.936278
5 0.358219 -0.0001297 -0.000133276 -1.5708 0.00037238 0.566164
6 3.57113 0 0 0 0 -0.165103
7 2.11638 0 0 0 0 -0.294347
8 1.97852 0 0 0 0 0
9 0.635818 -1.41048 1.8265 -0.0362024 -0.0752766 -0.734095
10 1.5758 0 0 -0.138052 0.164432 -1.91986
11 1.24879 0 0 -0.0669878 -0.082602 1.72363
12 1.03455 0 0 0.00760912 -0.00194119 0.366354
13 1.76528 11.0271 3.00163 1.92088 0.966598 -1.24605
14 1.89239 11.3183 1.21936 1.69465 1.15116 -1.47868
15 1.00915 4.49825 1.91578 1.48782 1.06822 -1.7002
16 0.762355 1.79466 0.582134 1.51773 0.471214 -1.59124
17 0.755956 1.47558 0.419381 -0.0467453 0.230523 -1.56299
18 2.05092 10.1787 1.70481 -1.57472 0.399264 1.70902
19 1.93116 10.8986 0.274569 1.59792 0.109316 -1.50368
20 0.916494 3.78623 0.609452 1.5175 0.0136741 -1.64804
21 -0.0679307 13.2339 2.15154 -1.5134 0.406694 1.57839
22 3.15237 0 0 0.00233728 -0.00046335 -0.222337
23 2.79335 0 0 0.000138177 0.00185388 -0.123779
24 3.38194 0 0 0 0.0018589 -0.0611205
time 12
0 0 12.0408 4.49627 1.5249 0.0594954 -1.54675
1 3.86721 0 0 0.00765912 -0.0216553 -0.103468
2 3.46652 -1.90644 0.948191 -0.185835 -0.180779 2.81549
3 1.49066 0 0 0.0130806 0.0216021 1.92318
4 1.99771 0 0 -0.118668 -0.202205 0.942715
5 0.358219 -0.000130177 -0.000133336 -1.5708 0.000372291 0.514258
6 3.57113 0 0 0 0 -0.134789
7 2.11638 0 0 0 0 -0.294347
8 1.97852 0 0 0 0 0
9 0.635818 -1.41048 1.8265 -0.0224041 -0.108266 -0.935417
10 1.5758 0 0 -0.138053 0.154846 -2.05613
11 1.24879 0 0 -0.0988955 -0.0104235 1.94421
12 1.03455 0 0 0.00962876 -0.00402122 0.39121
13 1.77248 11.5373 2.96831 1.81968 0.759902 -1.34991
14 1.8924 11.4179 1.13964 1.70977 1.0124 -1.46219
15 0.950987 5.07133 1.78837 1.26502 1.37114 -1.90779
16 0.762317 2.84828 0.778236 1.55387 0.564803 -1.57986
17 0.759706 2.54575 0.586374 -0.0123431 0.302225 -1.56183
18 2.02276 10.4228 1.88282 -1.52946 0.637418 1.70106
19 1.95181 10.873 0.262228 1.62735 0.113567 -1.50403
20 0.85323 4.79231 0.32732 1.50172 -0.227679 -1.61753
21 -0.11454 13.7541 2.10706 -1.52051 0.406199 1.57111
22 3.15237 0 0 0.00214453 -0.00042497 -0.222719
23 2.79334 0 0 0.000126961 0.00170305 -0.123802
24 3.38194 0 0 0 0.00170787 -0.0611429
time 13
0 0 12.5608 4.4793 1.54457 0.0594953 -1.55359
1 3.86721 0 0 -0.0253037 -0.0141426 -0.129388
2 3.46652 -1.90644 0.948191 -0.217834 -0.22822 2.87437
3 1.49066 0 0 0.0130807 0.0189599 2.17384
4 1.99771 0 0 -0.173539 -0.224495 0.92487
5 0.358219 -0.000130177 -0.000133336 -1.5708 0.00037238 0.382336
6 3.57113 0 0 0 0 -0.105493
7 2.11638 0 0 0 0 -0.294347
8 1.97852 0 0 0 0 0
9 0.635818 -1.41048 1.8265 -0.0358538 -0.148136 -1.1586
10 1.5758 0 0 -0.138053 0.15143 -2.09454
11 1.24879 0 0 -0.102472 0.0372855 2.03673
12 1.03455 0 0 0.0151109 -0.00655688 0.458678
13 1.79805 12.0436 2.98618 1.76202 0.631623 -1.42564
14 1.89238 11.5375 1.06296 1.66153 0.892626 -1.49714
15 0.906915 5.66162 1.67915 -1.44926 1.23374 1.63781
16 0.761951 4.21725 0.751174 1.53692 0.611145 -1.58923
17 0.756674 3.92397 0.5455 -0.0267311 0.328198 -1.56786
18 1.98201 10.7852 2.05574 -1.45773 0.918993 1.68938
19 1.94015 10.8902 0.257335 1.6211 0.174458 -1.50863
20 0.873904 6.1535 0.27237 1.52117 -0.242033 -1.62855
21 -0.0892253 14.2753 2.09151 -1.5419 0.405866 1.57508
22 3.15237 0 0 0.00196262 -0.000388886 -0.223081
23 2.79335 0 0 0.000116271 0.00156116 -0.123823
24 3.38194 0 0 0 0.00156531 -0.0611642
time 14
0 0 13.0808 4.50362 1.57735 0.0594953 -1.56086
1 3.86721 0 0 -0.0561165 -0.00639161 -0.152308
2 3.46652 -1.90644 0.948191 -0.218312 -0.262995 3.09944
3 1.49066 0 0 0.0130807 0.0167842 2.32534
4 1.99771 0 0 -0.188212 -0.265441 0.85033
5 0.358219 -0.000130296 -0.000133395 -1.5708 0.000372313 0.20609
6 3.57113 0 0 0 0 -0.0867149
7 2.11638 0 0 0 0 -0.294347
8 1.97852 0 0 0 0 0
9 0.635818 -1.41048 1.8265 -0.0685626 -0.191521 -1.39238
10 1.5758 0 0 -0.138053 0.156653 -2.03217
11 1.24879 0 0 -0.0873284 0.0480451 1.99357
12 1.03455 0 0 0.02319 -0.00938948 0.558103
13 1.8411 12.5475 3.06981 1.73161 0.610165 -1.49786
14 1.89238 11.6168 0.971057 1.61303 0.774666 -1.52611
15 0.901463 6.24583 1.63628 -1.53694 0.255311 1.39627
16 0.76155 5.78799 0.702517 1.50055 0.630714 -1.60936
17 0.750522 5.49895 0.491138 -0.0577876 0.328755 -1.57803
18 1.9352 11.2595 2.16687 -1.33755 1.27848 1.69008
19 1.92541 10.8782 0.247415 1.60102 0.229855 -1.51744
20 1.15192 7.66625 1.25982 1.52016 0.282721 -1.77571
21 -0.0166567 14.7961 2.12043 -1.57754 0.406094 1.5816
22 3.15237 0 0 0.00179401 -0.000355477 -0.223417
23 2.79334 0 0 0.000106608 0.00142924 -0.123842
24 3.38194 0 0 0 0.00143325 -0.0611839
time 15
0 0 13.6008 4.54697 1.62325 0.0594954 -1.56745
1 3.86721 0 0 -0.0759323 0 -0.16377
2 3.46652 -1.90644 0.948191 -0.145578 -0.244791 -2.83367
3 1.49066 0 0 0.0130807 0.0164254 2.34719
4 1.99771 0 0 -0.117565 -0.27939 0.709689
5 0.358219 -0.000130147 -0.000133336 -1.5708 0.000372367 0.0212112
6 3.57113 0 0 0 0 -0.0807728
7 2.11638 0 0 0 0 -0.294347
8 1.97852 0 0 0 0 0
9 0.635819 -1.41048 1.8265 -0.107315 -0.23613 -1.60924
10 1.5758 0 0 -0.138053 0.165984 -1.89454
11 1.24879 0 0 -0.0479173 0.0278354 1.8899
12 1.03455 0 0 0.0330004 -0.01236 0.678834
13 1.89979 13.0505 3.19871 1.7181 0.714337 -1.5547
14 1.89238 11.8999 0.918503 1.58674 0.657293 -1.51466
15 0.954 6.79723 1.67089 -1.26477 -0.557853 1.21594
16 0.76199 7.32873 0.681243 1.46356 0.6381 -1.62979
17 0.745147 7.04154 0.467729 -0.0890413 0.318728 -1.58708
18 1.91895 11.8601 2.16638 -0.767393 1.53244 2.15907
19 1.93833 11.0822 0.286418 1.58457 0.231511 -1.50303
20 1.39341 7.9831 2.45999 0.930368 1.09821 -2.33834
21 0.0979976 15.3154 2.17416 -1.62742 0.407507 1.5883
22 3.15237 0 0 0.0016407 -0.000325345 -0.223724
23 2.79334 0 0 0 0.00130971 -0.123861
24 3.38194 0 0 0 0.00131306 -0.061202
time 16
0 0 14.1208 4.58217 1.62325 0.0594954 -1.57372
1 3.8672 0 0 -0.0820809 0.00550745 -0.159329
2 3.46652 -1.90644 0.948191 -0.167814 -0.174481 -2.40652
3 1.49066 0 0 0.0130804 0.0184922 2.2088
4 1.99771 0 0 -0.0920832 -0.251944 0.584558
5 0.358219 -0.000130177 -0.000133395 -1.5708 0.000372268 -0.136608
6 3.57113 0 0 0 0 -0.0821078
7 2.11638 0 0 0 0 -0.294347
8 1.97852 0 0 0 0 0
9 0.635818 -1.41048 1.8265 -0.0822167 -0.219838 -1.78634
10 1.5758 0 0 -0.138053 0.174315 -1.66415
11 1.24879 0 0 -0.0504904 -0.0223761 1.75819
12 1.03455 0 0 0.0436762 -0.0153099 0.810218
13 1.8963 13.5586 3.23391 1.71785 0.744887 -1.54813
14 1.89239 12.5281 0.923806 1.59572 0.527863 -1.51016
15 0.917742 7.30477 1.71572 -1.22838 -0.771255 1.26883
16 0.762284 8.85604 0.887931 1.44365 0.651029 -1.64089
17 0.742446 8.57183 0.670713 -0.105125 0.315571 -1.59145
18 1.92255 12.4004 2.16569 -1.13571 1.46559 1.80291
19 1.94655 11.636 0.402716 1.59251 0.167059 -1.5079
20 1.23562 8.32526 2.75476 -0.768436 1.20682 2.29905
21 0.106756 15.8335 2.21954 -1.62738 0.408438 1.58303
22 3.15237 0 0 0.00150502 -0.000298281 -0.223995
23 2.79334 0 0 0 0.00120335 -0.123876
24 3.38194 0 0 0 0.00120664 -0.0612181
time 17
0 0 14.6408 4.59894 1.62325 0.0594954 -1.58048
1 3.86721 0 0 -0.0799262 0.0112893 -0.143735
2 3.46652 -1.90644 0.948191 -0.163475 -0.106904 -2.05005
3 1.49066 0 0 0.0130807 0.0208252 2.01067
4 1.99771 0 0 -0.0620282 -0.217503 0.46643
5 0.358219 -0.000130057 -0.000133336 -1.5708 0.000372365 -0.228184
6 3.57113 0 0 0 0 -0.0884003
7 2.11638 0 0 0 0 -0.294347
8 1.97852 0 0 0 0 0
9 0.635819 -1.41048 1.8265 -0.0452446 -0.193384 -1.99572
10 1.5758 0 0 -0.138052 0.166807 -1.2615
11 1.24879 0 0 -0.029248 -0.0977453 1.59513
12 1.03455 0 0 0.0543521 -0.0180797 0.941602
13 1.89246 14.0658 3.25067 1.71657 0.792338 -1.53101
14 1.89238 13.2889 0.924758 1.55503 0.439629 -1.5278
15 0.892845 7.78132 1.78265 -1.31917 -0.663516 1.39013
16 0.762304 10.0724 1.09322 1.47105 0.681397 -1.62628
17 0.746998 9.79464 0.867449 -0.0809938 0.33027 -1.5864
18 1.93648 12.9602 2.12871 -1.26886 1.302 1.70415
19 1.93262 12.3536 0.48445 1.55617 0.124204 -1.51668
20 1.10387 8.93659 2.70073 -1.21391 0.935137 1.86292
21 0.122179 16.3512 2.24782 -1.62738 0.40861 1.56557
22 3.15237 0 0 0.00138891 -0.000275313 -0.224228
23 2.79334 0 0 0 0.00111276 -0.12389
24 3.38194 0 0 0 0.00111579 -0.0612316
time 18
0 0 15.1608 4.60755 1.62325 0.0594953 -1.58729
1 3.86721 0 0 -0.0726722 0.0167767 -0.122322
2 3.46652 -1.90644 0.948191 -0.146662 -0.0532513 -1.74401
3 1.49066 0 0 0.0130807 0.0225739 1.76741
4 1.9977 0 0 -0.0275705 -0.184446 0.303175
5 0.358219 -0.000130177 -0.000133336 -1.5708 0.000372231 -0.192587
6 3.57113 0 0 0 0 -0.0973314
7 2.11638 0 0 0 0 -0.294347
8 1.97852 0 0 0 0 0
9 0.635818 -1.41048 1.8265 0.00241504 -0.147907 -2.26338
10 1.5758 0 0 -0.138052 0.10326 -0.632815
11 1.24879 0 0 0.0516954 -0.174831 1.29413
12 1.03455 0 0 0.0641623 -0.0205108 1.06233
13 1.8885 14.5729 3.25929 1.72227 0.883269 -1.50006
14 1.89238 14.1418 0.930518 1.62046 0.453268 -1.49453
15 0.874533 8.24285 1.86405 -1.3672 -0.432082 1.44781
16 0.762328 10.8759 0.988212 1.53392 0.711271 -1.59153
17 0.756832 10.6047 0.754242 -0.0291589 0.346657 -1.57546
18 1.95917 13.5754 2.04148 -1.33034 1.09654 1.68818
19 1.96325 13.2144 0.477483 1.61613 0.166773 -1.50578
20 1.0406 9.58628 2.48828 -1.27559 0.84942 1.78331
21 0.140875 16.8686 2.26817 -1.62739 0.407657 1.56114
22 3.15237 0 0 0.00129491 -0.000256805 -0.224417
23 2.79335 0 0 0 0.00103913 -0.123901
24 3.38194 0 0 0 0.00104183 -0.0612429
time 19
0 0 15.6808 4.61167 1.62325 0.0594954 -1.59374
1 3.86721 0 0 -0.0635238 0.0214007 -0.100423
2 3.46652 -1.90644 0.948191 -0.125705 -0.00995226 -1.45199
3 1.49066 0 0 0.0130808 0.0228912 1.46248
4 1.9977 0 0 -0.0196744 -0.150998 0.250731
5 0.358218 -0.000130177 -0.000133336 -1.5708 0.000372354 -0.114274
6 3.57113 0 0 0 0 -0.106582
7 2.11638 0 0 0 0 -0.294347
8 1.97852 0 0 0 0 0
9 0.635818 -1.41048 1.8265 0.0274232 -0.117678 -2.39511
10 1.5758 0 0 -0.138052 0.0386979 -0.223538
11 1.24879 0 0 0.116156 -0.173992 1.08389
12 1.03455 0 0 0.0722414 -0.022444 1.16176
13 1.88467 15.0808 3.26341 1.7479 1.02538 -1.44895
14 1.89238 15.0401 0.937943 1.65004 0.471297 -1.47733
15 0.858526 8.70439 1.94509 -1.39002 -0.14742 1.48934
16 0.762347 11.5757 0.757142 1.5708 0.722968 -1.5708
17 0.762481 11.3071 0.520018 0.000254521 0.34898 -1.56983
18 1.98403 14.2693 1.91624 -1.37342 0.900116 1.68916
19 1.97841 14.1223 0.468214 1.64294 0.201504 -1.49782
20 0.978499 10.174 2.16405 -1.31135 0.781381 1.7238
21 0.159456 17.386 2.28316 -1.62746 0.405692 1.56191
22 3.15237 0 0 0.00122499 -0.000242827 -0.224558
23 2.79334 0 0 0 0.000984418 -0.123909
24 3.38194 0 0 0 0.000987252 -0.0612514
time 20
0 0 16.2008 4.61106 1.62325 0.0594953 -1.59937
1 3.86721 0 0 -0.0556848 0.0245925 -0.0833724
2 3.46652 -1.90644 0.948191 -0.100342 0.0303912 -1.13
3 1.49066 0 0 0.0130806 0.0201042 1.06216
4 1.9977 0 0 -0.0277022 -0.120749 0.297063
5 0.358219 -0.000130236 -0.000133336 -1.5708 0.000372348 -0.035961
6 3.57113 0 0 0 0 -0.113833
7 2.11638 0 0 0 0 -0.294347
8 1.97852 0 0 0 0 0
9 0.635819 -1.41048 1.8265 -0.0114313 -0.176333 -2.02625
10 1.5758 0 0 -0.138052 0.128402 -0.824911
11 1.24879 0 0 0.00800055 -0.144986 1.38343
12 1.03455 0 0 0.0777235 -0.0237205 1.22923
13 1.88126 15.5902 3.2628 1.8188 1.20041 -1.35763
14 1.8924 15.9388 0.941598 1.66461 0.483225 -1.46749
15 0.841103 9.17929 2.00577 -1.39366 0.0496647 1.50424
16 0.762301 12.0721 0.525103 1.5708 0.610424 -1.5708
17 0.762435 11.7786 0.31964 0 0.230662 -1.57055
18 2.00193 15.0327 1.79386 -1.40316 0.751136 1.69109
19 1.98687 15.0276 0.460909 1.65595 0.220872 -1.49227
20 0.940127 10.6648 1.93177 -1.31725 0.781214 1.69649
21 0.174547 17.9037 2.29144 -1.62757 0.403459 1.56483
22 3.15237 0 0 0.00118154 -0.000234239 -0.224646
23 2.79335 0 0 0 0.000950405 -0.123914
24 3.38194 0 0 0 0.000953129 -0.0612564
time 21
0 0 16.7208 4.6089 1.62325 0.0594954 -1.60377
1 3.86721 0 0 -0.0523598 0.0257828 -0.0765034
2 3.46652 -1.90644 0.948191 -0.0538907 0.0795547 -0.616428
3 1.49066 0 0 0.0130805 0.00712956 0.314437
4 1.99771 0 0 -0.04152 -0.0895104 0.522543
5 0.358219 -0.000130177 -0.000133336 -1.5708 0.000372272 -0.000364247
6 3.57113 0 0 0 0 -0.116766
7 2.11638 0 0 0 0 -0.294347
8 1.97852 0 0 0 0 0
9 0.635826 -1.41048 1.8265 -0.0574121 -0.214871 -1.6669
10 1.5758 0 0 -0.138052 0.168886 -1.30487
11 1.24879 0 0 -0.0591212 -0.0757111 1.52891
12 1.03455 0 0 0.0797435 -0.0241813 1.25408
13 1.87856 16.1019 3.26064 2.01381 1.36898 -1.14856
14 1.89239 16.7919 0.949135 1.6838 0.504718 -1.45435
15 0.818952 9.67962 2.02865 -1.39284 -0.0308992 1.45918
16 0.762335 12.2583 0.420737 1.5708 0.49788 -1.5708
17 0.762469 11.9436 0.249536 0 0.116103 -1.5708
18 2.008 15.8138 1.71683 -1.42065 0.662066 1.68844
19 1.9976 15.8925 0.448868 1.6727 0.244409 -1.48444
20 0.984916 11.1603 2.0747 -1.23183 0.975408 1.77079
21 0.182781 18.4222 2.29511 -1.62769 0.401732 1.56688
22 3.15237 0 0 0.00116651 -0.000231238 -0.224676
23 2.79334 0 0 0 0.000938709 -0.123917
24 3.38194 0 0 0 0.000941321 -0.0612582
end
