//Sequence File generated by the Wall Worm SMD Exporter PRO 1.99
//www.wallworm.com
version 1
nodes
0 "rat_hip" -1
1 "rat_spine" 0
2 "rat_r_forearm" 1
3 "rat_r_ulna" 2
4 "rat_r_paw" 3
5 "rat_r_pawtoe" 4
6 "rat_neck" 1
7 "rat_face" 6
8 "rat_nose" 7
9 "rat_r_femur" 0
10 "rat_r_radius" 9
11 "rat_r_foot" 10
12 "rat_r_toes" 11
13 "rat_l_femur" -1
14 "rat_l_foot" -1
15 "rat_l_forearm" -1
16 "rat_l_paw" -1
17 "rat_l_pawtoe" -1
18 "rat_l_radius" -1
19 "rat_l_toes" -1
20 "rat_l_ulna" -1
21 "rat_tail001" -1
22 "rat_tail002" 21
23 "rat_tail003" 22
24 "rat_tail004" 23
end
skeleton
time 0
0 0 5.8008 4.6089 1.62325 0.0594955 -1.60377
1 3.86721 0 0 -0.05236 0.0257826 -0.0765032
2 3.46652 -1.90644 0.948191 0.662516 -0.688907 -2.73379
3 1.49066 0 0 0.0130806 0.0229261 1.65946
4 1.99771 0 0 0.82073 -0.389682 0.884765
5 0.358219 -0.000130147 -0.000133514 -1.5708 0.000372353 -0.000364374
6 3.57113 0 0 0 0 -0.116766
7 2.11638 0 0 0 0 -0.294347
8 1.97852 0 0 0 0 0
9 0.635818 -1.41048 1.8265 0.216263 0.183008 -0.80267
10 1.5758 0 0 -0.138052 0.173302 -1.71685
11 1.24879 0 0 -0.189717 -0.597853 1.16737
12 1.03455 0 0 0.0797433 -0.0241814 1.25408
13 1.87856 5.18189 3.26064 1.05855 0.96391 -2.21164
14 0.889905 4.46012 0.801864 1.64095 0.132799 -1.65903
15 0.818952 -1.24038 2.02865 -1.70856 -0.0155364 0.96996
16 2.46123 0.81967 0.420407 1.5708 0.497879 -1.5708
17 2.46136 0.504955 0.249206 0 0.116102 -1.5708
18 1.34125 4.4615 1.96624 0.341354 1.201 -3.13852
19 0.799542 3.43867 0.664881 1.64091 -0.128363 -1.67733
20 1.66157 -0.010938 2.05181 -1.79637 0.95556 0.804382
21 0.182781 7.50217 2.29511 -1.62769 0.401732 1.56688
22 3.15237 0 0 0.0132794 -0.0026322 -0.206757
23 2.79335 0 0 0.000739606 0.00992448 -0.12291
24 3.38194 0 0 0 0.0099518 -0.0602484
time 1
0 -0.367598 5.4332 4.61593 1.62325 0.0594956 -1.59594
1 3.86721 0 0 -0.0564501 0.0229568 -0.0898277
2 3.46652 -1.90644 0.948191 0.585002 -0.579792 -2.92743
3 1.49066 0 0 0.0130808 0.0223551 1.81274
4 1.9977 0 0 0.664313 -0.442995 0.941731
5 0.358219 -0.000130147 -0.000133276 -1.5708 0.000372438 0.0328578
6 3.57113 0 0 0 0 -0.109256
7 2.11638 0 0 0 0 -0.294347
8 1.97852 0 0 0 0 0
9 0.635817 -1.41048 1.8265 0.354112 0.312998 -1.02459
10 1.5758 0 0 -0.138052 0.175102 -1.55694
11 1.24879 0 0 -0.36821 -0.73403 1.31724
12 1.03455 0 0 0.0765632 -0.0230432 1.21438
13 1.51575 4.82902 3.26767 1.12726 1.00867 -2.10397
14 0.704916 4.23364 0.752951 1.64942 0.145176 -1.62279
15 0.492002 -1.57091 1.98926 -1.65242 -0.137585 0.964077
16 2.18064 0.692971 0.720749 1.5708 0.533712 -1.5708
17 2.18077 0.384567 0.538382 0 -0.0388718 -1.5708
18 1.08886 4.10572 1.93435 -0.0287934 1.24077 2.81998
19 0.651711 3.21135 0.603287 1.65565 -0.0295938 -1.64321
20 1.33391 -0.357869 2.19371 -1.68291 0.829104 0.892551
21 -0.207711 7.13775 2.29493 -1.62763 0.402946 1.57141
22 3.15237 0 0 0.0132853 -0.00263332 -0.206749
23 2.79334 0 0 0.000739666 0.00992448 -0.122909
24 3.38194 0 0 0 0.00995174 -0.0602484
time 2
0 -0.735196 5.0656 4.62174 1.62325 0.0594953 -1.58615
1 3.86721 0 0 -0.0652318 0.0160983 -0.119308
2 3.46652 -1.90644 0.948191 0.452469 -0.480968 -3.03695
3 1.49066 0 0 0.0130808 0.0216315 1.91956
4 1.99771 0 0 0.505002 -0.413785 0.95709
5 0.358219 -0.000130206 -0.000133514 -1.5708 0.000372283 0.120444
6 3.57113 0 0 0 0 -0.0921435
7 2.11638 0 0 0 0 -0.294347
8 1.97852 0 0 0 0 0
9 0.635818 -1.41048 1.8265 0.467908 0.457417 -1.20346
10 1.5758 0 0 -0.138052 0.171267 -1.358
11 1.24879 0 0 -0.524757 -0.859724 1.36821
12 1.03455 0 0 0.0682394 -0.0200483 1.11038
13 1.15397 4.4799 3.27348 0.837819 1.16133 -2.45089
14 0.290714 3.71682 0.695141 1.66189 0.181435 -1.62284
15 0.158592 -1.86068 1.89394 -1.57716 -0.410851 0.971529
16 1.68071 0.423087 1.04303 1.5708 0.602644 -1.5708
17 1.68084 0.128038 0.839876 0 0.534066 -1.5708
18 0.670406 4.08022 1.82794 1.04216 1.13639 -2.3781
19 0.237781 2.70063 0.508466 1.675 0.118708 -1.64398
20 0.92941 -0.732209 2.48929 -1.56964 0.809527 0.994205
21 -0.614709 6.77448 2.29009 -1.62757 0.404554 1.57682
22 3.15237 0 0 0.0132943 -0.00263522 -0.206738
23 2.79334 0 0 0.000739422 0.00992459 -0.122909
24 3.38194 0 0 0 0.00995175 -0.0602485
time 3
0 -1.10279 4.698 4.60345 1.62325 0.0594954 -1.57609
1 3.86721 0 0 -0.0734706 0.00763649 -0.149202
2 3.46652 -1.90644 0.948191 0.317802 -0.394457 3.10472
3 1.49066 0 0 0.0130806 0.0206863 2.02477
4 1.99771 0 0 0.329371 -0.390847 1.01703
5 0.358219 -0.000130177 -0.000133514 -1.5708 0.000372283 0.244272
6 3.57113 0 0 0 0 -0.0735492
7 2.11638 0 0 0 0 -0.294347
8 1.97852 0 0 0 0 0
9 0.635818 -1.41048 1.8265 0.549284 0.607604 -1.37261
10 1.5758 0 0 -0.138052 0.157659 -1.12233
11 1.24879 0 0 -0.685762 -0.944617 1.40126
12 1.03455 0 0 0.0565958 -0.0158271 0.964755
13 0.792173 4.13133 3.25519 0.950555 1.10065 -2.36165
14 -0.114429 3.18587 0.753286 1.65857 0.238326 -1.64174
15 -0.179029 -2.14698 1.77533 -1.5549 -0.534934 0.988296
16 1.13258 -0.0156162 0.954455 1.5708 0.646824 -1.5708
17 1.13272 -0.301353 0.73853 0 1.2396 -1.5708
18 0.284652 3.62932 1.85036 1.13988 1.07273 -2.30358
19 -0.18569 2.18309 0.509054 1.6709 0.190871 -1.66277
20 0.526446 -1.07605 2.53525 -1.53188 0.91294 1.05152
21 -1.02547 6.41103 2.25947 -1.62752 0.40626 1.5822
22 3.15237 0 0 0.0133059 -0.00263729 -0.206723
23 2.79335 0 0 0.000739614 0.00992436 -0.122909
24 3.38194 0 0 0 0.0099518 -0.0602483
time 4
0 -1.47039 4.3304 4.53953 1.62325 0.0594954 -1.56745
1 3.86721 0 0 -0.0759323 0 -0.16377
2 3.46652 -1.90644 0.948191 0.149776 -0.326422 2.96772
3 1.49066 0 0 0.0130807 0.0203389 2.05977
4 1.99771 0 0 0.130831 -0.341402 1.12547
5 0.358219 -0.000130177 -0.000133038 -1.5708 0.000372365 0.386221
6 3.57113 0 0 0 0 -0.0615957
7 2.11638 0 0 0 0 -0.294347
8 1.97852 0 0 0 0 0
9 0.635818 -1.41048 1.8265 0.659101 0.538561 -1.21676
10 1.5758 0 0 -0.138052 0.17423 -1.47056
11 1.24879 0 0 -0.742835 -0.968672 1.61554
12 1.03455 0 0 0.0434567 -0.0110093 0.800152
13 0.429397 3.78012 3.19127 1.01663 1.10262 -2.29103
14 -0.408037 2.77679 0.687798 1.62442 0.311582 -1.66269
15 -0.516394 -2.47316 1.66345 -1.53554 -0.735795 1.03326
16 0.408961 -0.701954 0.879057 1.5708 0.623979 -1.5708
17 0.409095 -0.99254 0.669745 0 1.45395 -1.5708
18 -0.0396166 3.24562 1.78504 1.20256 1.07301 -2.23683
19 -0.4984 1.79621 0.370642 1.63142 0.216718 -1.68132
20 0.0493997 -1.52398 2.66394 -1.48141 1.10501 1.15846
21 -1.4272 6.04669 2.18332 -1.62749 0.407775 1.58663
22 3.15237 0 0 0.0133198 -0.00264022 -0.206706
23 2.79334 0 0 0.000739576 0.00992448 -0.122909
24 3.38194 0 0 0 0.00995186 -0.0602484
time 5
0 -1.83799 3.9628 4.4793 1.62325 0.0594955 -1.56009
1 3.86721 0 0 -0.0730402 -0.00672505 -0.157271
2 3.46652 -1.90644 0.948192 -0.0420051 -0.257298 2.92424
3 1.49066 0 0 0.0130807 0.0213496 1.95447
4 1.99771 0 0 -0.0504444 -0.258287 1.2326
5 0.358219 -0.000130177 -0.000133276 -1.5708 0.00037235 0.528171
6 3.57113 0 0 0 0 -0.0644057
7 2.11638 0 0 0 0 -0.294347
8 1.97852 0 0 0 0 0
9 0.635818 -1.41048 1.8265 0.730035 0.418509 -0.874299
10 1.5758 0 0 -0.138052 0.161428 -1.96887
11 1.24879 0 0 -0.51397 -1.06048 1.61542
12 1.03455 0 0 0.0306466 -0.00622503 0.639237
13 0.0657992 3.42653 3.13104 1.42692 0.819074 -1.78804
14 -0.432168 2.62241 0.784963 1.52549 0.418607 -1.70654
15 -0.852405 -2.85684 1.62257 -1.47909 -0.883484 1.12753
16 -0.438673 -1.57128 0.824182 1.5708 0.54573 -1.5708
17 -0.438539 -1.87734 0.638229 0 1.41193 -1.5708
18 -0.166145 2.37571 1.97989 -0.501508 1.27602 2.39388
19 -0.560081 1.68588 0.364431 1.52936 0.228536 -1.70374
20 -0.44677 -2.00248 2.77478 -1.22623 1.3532 1.55202
21 -1.81024 5.68135 2.11274 -1.62747 0.408812 1.59107
22 3.15237 0 0 0.0133356 -0.00264326 -0.206686
23 2.79335 0 0 0.000739691 0.00992454 -0.12291
24 3.38194 0 0 0 0.0099518 -0.0602483
time 6
0 -2.20559 3.59521 4.48228 1.62325 0.0594954 -1.55306
1 3.86721 0 0 -0.0661161 -0.0134343 -0.140693
2 3.46652 -1.90644 0.948191 -0.193644 -0.16358 2.98521
3 1.49066 0 0 0.0130808 0.0227759 1.71947
4 1.9977 0 0 -0.174644 -0.188114 1.30322
5 0.358219 -0.000130177 -0.000133276 -1.5708 0.00037235 0.651999
6 3.57113 0 0 0 0 -0.0898525
7 2.11638 0 0 0 0 -0.294347
8 1.97852 0 0 0 0 0
9 0.635818 -1.41048 1.8265 0.506766 0.322522 -0.261292
10 1.5758 0 0 -0.138052 0.119782 -2.38605
11 1.24879 0 0 0.386005 -0.82728 0.8267
12 1.03455 0 0 0.0199893 -0.00210439 0.504671
13 -0.298077 3.07232 3.13402 1.62986 0.754142 -1.56415
14 -0.432292 2.47 0.941107 1.4876 0.596405 -1.73456
15 -1.18387 -3.26777 1.67897 -1.16643 -0.792243 1.14237
16 -1.35513 -2.55703 0.852063 1.5708 0.435066 -1.5708
17 -1.35499 -2.88176 0.701045 0 1.26874 -1.5708
18 -0.29044 1.92381 2.05513 -1.19353 1.10192 1.8249
19 -0.571836 1.6255 0.36003 1.49269 0.279831 -1.7026
20 -0.748973 -2.31557 2.74021 0.477013 1.23808 -2.7625
21 -2.16628 5.31507 2.10903 -1.62747 0.409435 1.59768
22 3.15237 0 0 0.0133532 -0.00264667 -0.206663
23 2.79335 0 0 0.000739614 0.00992436 -0.122909
24 3.38194 0 0 0 0.00995192 -0.0602484
time 7
0 -2.57319 3.22761 4.52864 1.62325 0.0594954 -1.54689
1 3.86721 0 0 -0.0512738 -0.0191705 -0.123388
2 3.46652 -1.90644 0.948191 -0.27818 -0.0534079 3.08919
3 1.49066 0 0 0.0130808 0.0227291 1.41249
4 1.99771 0 0 -0.254658 -0.156772 1.35485
5 0.358219 -0.000130296 -0.000133514 -1.5708 0.000372291 0.739585
6 3.57113 0 0 0 0 -0.129897
7 2.11638 0 0 0 0 -0.294347
8 1.97852 0 0 0 0 0
9 0.635818 -1.41048 1.8265 -0.114417 0.0422251 0.14654
10 1.5758 0 0 -0.138053 0.115621 -2.41833
11 1.24879 0 0 0.129279 -0.179055 0.594639
12 1.03455 0 0 0.0133093 0.000722697 0.419116
13 -0.662487 2.7165 3.18038 1.81866 0.780872 -1.3745
14 -0.506622 2.39514 1.0951 1.56888 0.762126 -1.69184
15 -1.50233 -3.68075 1.78959 -0.848273 0.0093581 1.24166
16 -2.28405 -3.58222 0.955343 1.5708 0.314976 -1.5708
17 -2.28392 -3.9227 0.844307 0 1.07972 -1.5708
18 -0.444186 1.6187 2.07117 -1.49611 0.897249 1.65104
19 -0.596986 1.65226 0.380785 1.55739 0.297132 -1.67204
20 -1.02054 -2.27017 1.77564 0.737674 0.423135 -2.33735
21 -2.48448 4.94806 2.15414 -1.62747 0.409659 1.60173
22 3.15237 0 0 0.0133721 -0.00265068 -0.20664
23 2.79334 0 0 0.00073964 0.00992442 -0.122909
24 3.38194 0 0 0 0.00995186 -0.0602483
time 8
0 -2.94079 2.86001 4.58265 1.57735 0.0594954 -1.54211
1 3.86721 0 0 -0.017474 -0.0240607 -0.10547
2 3.46652 -1.90644 0.948191 -0.330354 0.109649 -3.03229
3 1.49066 0 0 0.0130808 0.0191726 0.98418
4 1.99771 0 0 -0.322132 -0.130665 1.41548
5 0.358219 -0.000130177 -0.000133276 -1.5708 0.00037235 0.772807
6 3.57113 0 0 0 0 -0.168791
7 2.11638 0 0 0 0 -0.294347
8 1.97852 0 0 0 0 0
9 0.635818 -1.41048 1.8265 -0.411578 -0.202197 0.154363
10 1.5758 0 0 -0.138052 0.164533 -1.91821
11 1.24879 0 0 -0.0673748 0.11956 0.336432
12 1.03455 0 0 0.0124308 0.00162639 0.40523
13 -1.09001 2.36135 3.14884 2.09824 0.827487 -1.12472
14 -0.593011 2.31932 1.14507 1.59557 0.881494 -1.66951
15 -1.89498 -4.09797 1.88881 -0.644304 0.787663 1.58376
16 -3.16875 -4.58004 1.05781 1.5708 0.208449 -1.57079
17 -3.16862 -4.93041 0.983586 0 0.827715 -1.5708
18 -0.629947 1.39931 1.98869 -1.74506 0.741706 1.53067
19 -0.657854 1.66455 0.34672 1.57191 0.263737 -1.64963
20 -1.90862 -3.04639 0.832368 0.95641 -0.113089 -2.25861
21 -2.85878 4.57802 2.20507 -1.57757 0.40851 1.61529
22 3.15237 0 0 0.0133919 -0.00265443 -0.206614
23 2.79334 0 0 0.000739615 0.00992436 -0.122909
24 3.38194 0 0 0 0.00995175 -0.0602484
time 9
0 -3.30838 2.49241 4.60859 1.54457 0.0594953 -1.53924
1 3.86721 0 0 0.0242438 -0.027978 -0.0868258
2 3.46652 -1.90644 0.948192 -0.293471 0.267253 -2.82734
3 1.49066 0 0 0.0130807 0.0103773 0.467429
4 1.99771 0 0 -0.365156 -0.150922 1.50008
5 0.358218 -0.000130177 -0.000133276 -1.5708 0.00037238 0.772807
6 3.57113 0 0 0 0 -0.19079
7 2.11638 0 0 0 0 -0.294347
8 1.97852 0 0 0 0 0
9 0.635818 -1.41048 1.8265 -0.41826 -0.387911 -0.12786
10 1.5758 0 0 -0.138053 0.158916 -1.13938
11 1.24879 0 0 0.0783643 0.310079 0.173473
12 1.03455 0 0 0.0183428 0.000327069 0.474768
13 -1.5031 2.00112 3.11547 2.46466 0.894349 -0.809335
14 -0.645634 2.27732 1.14665 1.61888 1.0156 -1.64562
15 -2.24754 -4.51773 1.98381 -0.0740488 1.10773 2.25946
16 -3.95005 -5.4766 1.07961 1.5708 0.138475 -1.57079
17 -3.94991 -5.83132 1.03005 0 0.559086 -1.5708
18 -0.822438 1.28707 1.88666 -1.94103 0.634262 1.39411
19 -0.6864 1.73353 0.26749 1.57919 0.184931 -1.62719
20 -2.6707 -4.00362 0.650142 1.08943 -0.216672 -2.28596
21 -3.21802 4.20865 2.22534 -1.54195 0.407433 1.60991
22 3.15237 0 0 0.0134125 -0.0026587 -0.206588
23 2.79335 0 0 0.000739512 0.00992453 -0.12291
24 3.38194 0 0 0 0.0099518 -0.0602484
time 10
0 -3.67598 2.12481 4.58731 1.5249 0.0594954 -1.5388
1 3.86721 0 0 0.0446461 -0.0295815 -0.0764574
2 3.46652 -1.90644 0.94819 -0.363713 0.0829793 2.93872
3 1.49066 0 0 0.0130807 0.0222873 1.3184
4 1.99771 0 0 -0.334307 -0.194254 1.2902
5 0.358219 -0.000130177 -0.000133514 -1.5708 0.000372291 0.336903
6 3.57113 0 0 0 0 -0.186936
7 2.11638 0 0 0 0 -0.294347
8 1.97852 0 0 0 0 0
9 0.635818 -1.41048 1.8265 -0.175567 -0.514164 -0.720361
10 1.5758 0 0 -0.138053 -0.00674854 0.0382611
11 1.24879 0 0 0.326618 0.503564 -0.101315
12 1.03455 0 0 0.0282834 -0.00224229 0.593598
13 -1.89956 1.63546 3.05935 2.63004 0.803666 -0.696678
14 -0.783933 1.94811 1.25132 1.88831 1.26511 -1.43195
15 -2.61955 -4.91383 1.99818 0.44189 1.10881 2.86191
16 -4.57846 -6.20452 0.936949 1.5708 0.128042 -1.5708
17 -4.57833 -6.55977 0.891083 0 0.32021 -1.5708
18 -1.0607 0.933648 1.92493 -2.09841 0.569728 1.30446
19 -0.740843 1.63977 0.264735 1.65367 0.209488 -1.63703
20 -3.25815 -4.73042 0.663784 1.14219 -0.137169 -2.30121
21 -3.65147 3.83928 2.19892 -1.52056 0.406982 1.59464
22 3.15237 0 0 0.0134333 -0.00266277 -0.206562
23 2.79335 0 0 0.000739451 0.00992459 -0.122909
24 3.38194 0 0 0 0.00995175 -0.0602483
time 11
0 -4.04358 1.75721 4.54107 1.51834 0.0594953 -1.54145
1 3.86721 0 0 0.0339249 -0.0273339 -0.0830054
2 3.46652 -1.90644 0.948191 -0.259407 -0.147493 2.42715
3 1.49066 0 0 0.0130807 0.019503 2.13131
4 1.99771 0 0 -0.253065 -0.291555 1.33641
5 0.358219 -0.000130177 -0.000133514 -1.5708 0.000372469 -0.321382
6 3.57113 0 0 0 0 -0.165103
7 2.11638 0 0 0 0 -0.294347
8 1.97852 0 0 0 0 0
9 0.635818 -1.41048 1.8265 -0.167197 -0.538792 -0.756058
10 1.5758 0 0 -0.138052 -0.00674931 0.0382611
11 1.24879 0 0 0.468121 0.444214 0.17681
12 1.03455 0 0 0.0384502 -0.00489251 0.715552
13 -2.2783 1.26355 3.00163 2.92548 0.746714 -0.485249
14 -0.839774 1.78152 1.41292 2.49136 1.38312 -0.882535
15 -3.03443 -5.26533 1.91578 0.457495 1.09213 2.99235
16 -4.99613 -6.6927 0.51401 1.5708 0.190684 -1.57079
17 -4.99599 -7.04442 0.445987 0 0.0736012 -1.5708
18 -1.25529 0.724114 1.9313 -2.23759 0.428058 1.19638
19 -0.717166 1.63244 0.396534 1.71967 0.282831 -1.65071
20 -3.71339 -5.16324 0.592662 1.13029 0.0393802 -2.26868
21 -4.11151 3.47031 2.15154 -1.5134 0.406694 1.57839
22 3.15237 0 0 0.0134538 -0.00266675 -0.206536
23 2.79335 0 0 0.000739734 0.00992437 -0.122909
24 3.38194 0 0 0 0.00995186 -0.0602484
time 12
0 -4.41118 1.38961 4.49627 1.5249 0.0594954 -1.54675
1 3.86721 0 0 0.00765918 -0.0216555 -0.103468
2 3.46652 -1.90644 0.948192 0.0152282 -0.245937 2.14123
3 1.49066 0 0 0.0130806 0.0120529 2.59105
4 1.99771 0 0 -0.1798 -0.513429 1.41486
5 0.358219 -0.000130177 -0.000133514 -1.5708 0.00037244 -0.705042
6 3.57113 0 0 0 0 -0.134789
7 2.11638 0 0 0 0 -0.294347
8 1.97852 0 0 0 0 0
9 0.635818 -1.41048 1.8265 -0.157545 -0.544892 -0.7987
10 1.5758 0 0 -0.138052 -0.00674848 0.0382611
11 1.24879 0 0 0.534281 0.375472 0.342672
12 1.03455 0 0 0.0450404 -0.00643441 0.794466
13 -2.6387 0.886149 2.96831 2.86965 0.68827 -0.587856
14 -1.28551 1.33756 1.54916 2.32839 1.39466 -1.02939
15 -3.46019 -5.57985 1.78837 0.00103484 1.14121 2.596
16 -5.14824 -6.87145 0.21605 1.5708 0.239825 -1.5708
17 -5.14811 -7.21943 0.130832 0 -0.114258 -1.5708
18 -1.62594 0.211195 1.96736 -2.26424 0.341483 1.27729
19 -1.19209 1.1822 0.530615 1.70702 0.426656 -1.60557
20 -3.9909 -5.25768 0.433149 1.12253 0.108889 -2.19295
21 -4.52572 3.10293 2.10706 -1.52051 0.406199 1.57111
22 3.15237 0 0 0.0134742 -0.00267079 -0.20651
23 2.79334 0 0 0.00073967 0.00992442 -0.122909
24 3.38194 0 0 0 0.00995198 -0.0602484
time 13
0 -4.77878 1.02202 4.4793 1.54457 0.0594953 -1.55359
1 3.86721 0 0 -0.0253037 -0.0141426 -0.129388
2 3.46652 -1.90644 0.948191 0.5121 -0.0819408 2.50177
3 1.49066 0 0 0.0130807 0.00856626 2.76074
4 1.99771 0 0 0.442383 -0.670093 0.726077
5 0.358219 -0.000130415 -0.000133276 -1.5708 0.000372529 -0.973119
6 3.57113 0 0 0 0 -0.105493
7 2.11638 0 0 0 0 -0.294347
8 1.97852 0 0 0 0 0
9 0.635818 -1.41048 1.8265 -0.144006 -0.546072 -0.859182
10 1.5758 0 0 -0.138052 -0.00674824 0.0382611
11 1.24879 0 0 0.545031 0.326974 0.424659
12 1.03455 0 0 0.0458142 -0.00598242 0.802619
13 -2.98073 0.504864 2.98618 2.67955 0.614971 -0.779038
14 -1.8638 0.765751 1.67532 1.87828 1.3814 -1.44303
15 -3.87186 -5.87716 1.67915 -0.670353 1.0257 1.92984
16 -5.1505 -6.86845 0.215439 1.5708 0.239825 -1.5708
17 -5.15037 -7.21643 0.130221 0 -0.114258 -1.5708
18 -2.06484 -0.399443 2.07705 -2.24433 0.327515 1.39994
19 -1.83899 0.572563 0.659272 1.67669 0.677191 -1.55237
20 -4.14345 -5.15353 0.404522 1.13487 0.0947922 -2.10178
21 -4.868 2.73652 2.09151 -1.5419 0.405866 1.57508
22 3.15237 0 0 0.0134938 -0.00267451 -0.206485
23 2.79335 0 0 0.000739729 0.00992442 -0.122909
24 3.38194 0 0 0 0.0099518 -0.0602484
time 14
0 -5.14638 0.654418 4.50362 1.57735 0.0594953 -1.56086
1 3.86721 0 0 -0.0561166 -0.00639162 -0.152308
2 3.46652 -1.90644 0.948191 0.686817 -0.179158 -2.80867
3 1.49066 0 0 0.0130806 0.0138624 2.4961
4 1.99771 0 0 0.660594 -0.249804 0.157259
5 0.358219 -0.000130117 -0.000133038 -1.5708 0.000372529 -1.13555
6 3.57113 0 0 0 0 -0.0867147
7 2.11638 0 0 0 0 -0.294347
8 1.97852 0 0 0 0 0
9 0.635818 -1.41048 1.8265 -0.124971 -0.551465 -0.943984
10 1.5758 0 0 -0.138052 -0.00674753 0.038261
11 1.24879 0 0 0.531778 0.288821 0.478927
12 1.03455 0 0 0.0432082 -0.00436 0.769769
13 -3.30528 0.12114 3.06981 2.44891 0.575272 -0.960381
14 -2.45276 0.194361 1.75121 1.54206 1.28651 -1.74117
15 -4.24491 -6.18055 1.63628 -1.03397 0.770337 1.59484
16 -5.15547 -6.86052 0.214513 1.5708 0.239825 -1.5708
17 -5.15534 -7.2085 0.129295 0 -0.109068 -1.5708
18 -2.5474 -0.962254 2.21248 -2.12678 0.37833 1.48915
19 -2.50196 -0.0916039 0.758188 1.61872 0.837675 -1.54843
20 -4.27063 -5.11105 0.598216 1.17008 0.193273 -2.03905
21 -5.16303 2.36972 2.12043 -1.57754 0.406094 1.5816
22 3.15237 0 0 0.0135125 -0.00267823 -0.206462
23 2.79334 0 0 0.000739614 0.00992436 -0.122909
24 3.38194 0 0 0 0.00995186 -0.0602484
time 15
0 -5.51397 0.286819 4.54697 1.62325 0.0594954 -1.56745
1 3.8672 0 0 -0.0759323 0 -0.16377
2 3.46652 -1.90644 0.948192 0.739036 -0.318486 -2.25509
3 1.49066 0 0 0.0130807 0.0190503 2.16711
4 1.9977 0 0 0.64976 0.0420439 0.123356
5 0.358218 -0.000130117 -0.000133038 -1.5708 0.000372201 -1.20228
6 3.57113 0 0 0 0 -0.0807728
7 2.11638 0 0 0 0 -0.294347
8 1.97852 0 0 0 0 0
9 0.635818 -1.41048 1.8265 -0.26059 -0.560402 -0.751439
10 1.5758 0 0 -0.138052 0.0874791 -0.525111
11 1.24879 0 0 0.424964 0.197318 0.806348
12 1.03455 0 0 0.0404356 -0.00294246 0.735967
13 -3.61418 -0.263462 3.19871 2.13745 0.57405 -1.18257
14 -3.08496 -0.402651 1.72635 1.42692 1.1196 -1.82814
15 -4.55997 -6.51674 1.67089 -1.23938 0.458452 1.43486
16 -5.16084 -6.84975 0.216002 1.5708 0.239825 -1.5708
17 -5.16071 -7.19773 0.130785 0 -0.103564 -1.5708
18 -3.11329 -1.4882 2.34299 -1.88107 0.516447 1.54471
19 -3.19978 -0.838907 0.795331 1.527 0.820076 -1.60448
20 -4.37883 -5.19235 1.01118 1.22559 0.409385 -2.01166
21 -5.41598 2.00146 2.17416 -1.62742 0.407507 1.5883
22 3.15237 0 0 0.0135297 -0.00268187 -0.20644
23 2.79335 0 0 0.000739572 0.00992453 -0.12291
24 3.38194 0 0 0 0.0099518 -0.0602483
time 16
0 -5.88157 -0.0807786 4.58217 1.62325 0.0594954 -1.57372
1 3.86721 0 0 -0.0820809 0.00550745 -0.159329
2 3.46652 -1.90644 0.948191 0.774728 -0.366902 -2.06139
3 1.49066 0 0 0.0130806 0.0205573 2.03774
4 1.99771 0 0 0.706747 0.205803 0.191312
5 0.358218 -0.000130117 -0.000134468 -1.5708 0.00037235 -1.18325
6 3.57113 0 0 0 0 -0.0821079
7 2.11638 0 0 0 0 -0.294347
8 1.97852 0 0 0 0 0
9 0.635818 -1.41048 1.8265 -0.310162 -0.470139 -0.683451
10 1.5758 0 0 -0.138052 0.145005 -0.977882
11 1.24879 0 0 0.29836 0.120212 1.08236
12 1.03455 0 0 0.0407093 -0.00310501 0.741263
13 -3.98527 -0.642955 3.23391 1.82324 0.516887 -1.42846
14 -3.82823 -1.08756 1.60237 1.40772 0.90853 -1.83395
15 -4.96383 -6.8968 1.71572 -1.45275 0.112324 1.34469
16 -5.16808 -6.84086 0.215334 1.5708 0.239825 -1.5708
17 -5.16794 -7.18884 0.130117 0 -0.104734 -1.5708
18 -3.79093 -1.99904 2.45519 -1.57697 0.751743 1.61169
19 -3.99371 -1.70181 0.786525 1.45665 0.689779 -1.66637
20 -4.63176 -5.45324 1.54864 1.38412 0.730733 -1.93961
21 -5.77482 1.63191 2.21954 -1.62738 0.408438 1.58303
22 3.15237 0 0 0.0135451 -0.00268484 -0.206421
23 2.79335 0 0 0.000739644 0.00992436 -0.122909
24 3.38194 0 0 0 0.00995186 -0.0602485
time 17
0 -6.24917 -0.448377 4.59894 1.62325 0.0594954 -1.58048
1 3.86721 0 0 -0.0799262 0.0112893 -0.143735
2 3.46652 -1.90644 0.948192 0.874244 -0.39311 -2.08571
3 1.49066 0 0 0.0130805 0.0206244 2.03091
4 1.9977 0 0 0.852636 0.289796 0.295232
5 0.358219 -0.000130296 -0.000133514 -1.5708 0.00037238 -1.08838
6 3.57113 0 0 0 0 -0.0884003
7 2.11638 0 0 0 0 -0.294347
8 1.97852 0 0 0 0 0
9 0.635818 -1.41048 1.8265 -0.283117 -0.364816 -0.684007
10 1.5758 0 0 -0.138052 0.167357 -1.27074
11 1.24879 0 0 0.175384 0.0593442 1.22198
12 1.03455 0 0 0.0466044 -0.00620017 0.819041
13 -4.35671 -1.02336 3.25067 1.58909 0.501701 -1.65151
14 -4.61413 -1.78718 1.41487 1.43951 0.683371 -1.80756
15 -5.35633 -7.30785 1.78265 -1.61163 -0.131397 1.27621
16 -5.18372 -6.8371 0.235809 1.5708 0.261354 -1.57578
17 -5.18532 -7.18316 0.14312 0 -0.0898449 -1.57578
18 -4.4681 -2.40047 2.49284 -1.15913 1.0416 1.80455
19 -4.8023 -2.56703 0.761644 1.44565 0.490306 -1.69854
20 -4.92726 -5.8937 1.97795 1.60761 1.05942 -1.83624
21 -6.12699 1.26199 2.24782 -1.62738 0.40861 1.56557
22 3.15237 0 0 0.0135585 -0.00268746 -0.206403
23 2.79335 0 0 0.000739576 0.00992447 -0.122909
24 3.38194 0 0 0 0.00995198 -0.0602483
time 18
0 -6.61677 -0.815975 4.60755 1.62325 0.0594953 -1.58729
1 3.86721 0 0 -0.0726722 0.0167767 -0.122322
2 3.46652 -1.90644 0.948191 0.949742 -0.462921 -2.28497
3 1.49066 0 0 0.0130807 0.0207907 2.01421
4 1.99771 0 0 1.00268 0.176339 0.441057
5 0.358218 -0.000130177 -0.000133514 -1.5708 0.000372469 -0.927633
6 3.57113 0 0 0 0 -0.0973314
7 2.11638 0 0 0 0 -0.294347
8 1.97852 0 0 0 0 0
9 0.635818 -1.41048 1.8265 -0.205641 -0.237944 -0.69404
10 1.5758 0 0 -0.138052 0.175127 -1.53253
11 1.24879 0 0 0.0462617 -0.0338818 1.29462
12 1.03455 0 0 0.0565142 -0.01154 0.949275
13 -4.72827 -1.40384 3.25929 1.43649 0.581695 -1.84563
14 -5.37505 -2.42761 1.20334 1.49767 0.471062 -1.77204
15 -5.74224 -7.73392 1.86405 -1.69093 -0.245402 1.20011
16 -5.20851 -6.84067 0.280919 1.5708 0.314734 -1.58576
17 -5.21347 -7.18126 0.169898 0 -0.0460403 -1.58576
18 -5.08559 -2.67106 2.39348 -0.363932 1.26308 2.44232
19 -5.55932 -3.33088 0.733833 1.48452 0.268978 -1.70921
20 -5.21841 -6.38614 2.2262 1.99392 1.3412 -1.549
21 -6.47589 0.89183 2.26817 -1.62739 0.407657 1.56114
22 3.15237 0 0 0.0135696 -0.00268976 -0.206389
23 2.79334 0 0 0.000739584 0.00992435 -0.122909
24 3.38194 0 0 0 0.00995186 -0.0602484
time 19
0 -6.98437 -1.18357 4.61167 1.62325 0.0594954 -1.59374
1 3.86721 0 0 -0.0635238 0.0214007 -0.100423
2 3.46652 -1.90644 0.948191 0.902311 -0.615557 -2.52063
3 1.49066 0 0 0.0130807 0.0221321 1.84896
4 1.99771 0 0 1.02524 -0.0967803 0.613456
5 0.358218 -0.000129998 -0.000132561 -1.5708 0.00037241 -0.602616
6 3.57113 0 0 0 0 -0.106582
7 2.11638 0 0 0 0 -0.294347
8 1.97852 0 0 0 0 0
9 0.635818 -1.41048 1.8265 -0.0796122 -0.10277 -0.743663
10 1.5758 0 0 -0.138053 0.173905 -1.68917
11 1.24879 0 0 -0.0621723 -0.183592 1.30826
12 1.03455 0 0 0.0673801 -0.0174398 1.0919
13 -5.0997 -1.7836 3.26341 1.28632 0.76754 -2.05287
14 -6.04445 -2.93703 1.00227 1.56385 0.295342 -1.73604
15 -6.12584 -8.15998 1.94509 -1.71586 -0.246577 1.1219
16 -5.23054 -6.8523 0.329293 1.5708 0.383156 -1.59324
17 -5.23786 -7.18446 0.195244 0 0.0124026 -1.59324
18 -5.62543 -2.78834 2.16923 0.749219 1.20677 -2.8006
19 -6.20726 -3.91331 0.701148 1.54977 0.0687145 -1.71136
20 -5.4985 -6.85762 2.30894 -2.65556 1.43623 0.0198763
21 -6.82491 0.521647 2.28316 -1.62746 0.405692 1.56191
22 3.15237 0 0 0.0135777 -0.00269139 -0.206379
23 2.79335 0 0 0.000739637 0.00992448 -0.122909
24 3.38194 0 0 0 0.00995186 -0.0602484
time 20
0 -7.35197 -1.55117 4.61106 1.62325 0.0594953 -1.59937
1 3.86721 0 0 -0.0556848 0.0245925 -0.0833724
2 3.46652 -1.90644 0.948191 0.750785 -0.727958 -2.59372
3 1.49066 0 0 0.0130806 0.0229893 1.63087
4 1.99771 0 0 0.942891 -0.276262 0.784958
5 0.358217 -0.000130177 -0.000133514 -1.5708 0.000372469 -0.198461
6 3.57113 0 0 0 0 -0.113833
7 2.11638 0 0 0 0 -0.294347
8 1.97852 0 0 0 0 0
9 0.635818 -1.41048 1.8265 0.0617951 0.0410406 -0.755432
10 1.5758 0 0 -0.138052 0.172719 -1.7353
11 1.24879 0 0 -0.123539 -0.385271 1.21501
12 1.03455 0 0 0.0761427 -0.0222152 1.20686
13 -5.47071 -2.16181 3.2628 0.996887 1.01845 -2.38011
14 -6.54218 -3.22882 0.877686 1.61856 0.176536 -1.69985
15 -6.51086 -8.57267 2.00577 -1.7211 -0.179466 1.05259
16 -5.27918 -6.92099 0.37632 1.5708 0.449808 -1.59074
17 -5.28548 -7.24351 0.220439 0 0.0712093 -1.59074
18 -6.06916 -2.73229 1.92133 1.17544 0.989449 -2.33196
19 -6.67325 -4.23882 0.695999 1.61297 -0.074038 -1.70526
20 -5.78437 -7.29852 2.27186 -1.99324 1.24961 0.641779
21 -7.17742 0.151771 2.29144 -1.62757 0.403459 1.56483
22 3.15237 0 0 0.013583 -0.0026922 -0.206372
23 2.79335 0 0 0.000739673 0.00992436 -0.122909
24 3.38194 0 0 0 0.00995186 -0.0602486
time 21
0 -7.71956 -1.91877 4.6089 1.62325 0.0594955 -1.60377
1 3.86721 0 0 -0.05236 0.0257826 -0.0765032
2 3.46652 -1.90644 0.948189 0.662516 -0.688907 -2.73379
3 1.49066 0 0 0.0130807 0.0229267 1.65945
4 1.99771 0 0 0.82073 -0.389683 0.884766
5 0.358218 -0.000130177 -0.000132561 -1.5708 0.000372306 -0.000364295
6 3.57113 0 0 0 0 -0.116766
7 2.11638 0 0 0 0 -0.294347
8 1.97852 0 0 0 0 0
9 0.635818 -1.41048 1.8265 0.216264 0.183008 -0.80267
10 1.5758 0 0 -0.138052 0.173303 -1.71685
11 1.24879 0 0 -0.189719 -0.597854 1.16737
12 1.03455 0 0 0.0797434 -0.0241813 1.25408
13 -5.84101 -2.53767 3.26064 1.05854 0.963911 -2.21164
14 -6.82966 -3.25945 0.801865 1.64096 0.132798 -1.65903
15 -6.90061 -8.95994 2.02865 -1.70856 -0.0155365 0.96996
16 -5.25834 -6.8999 0.420407 1.5708 0.49788 -1.5708
17 -5.2582 -7.21461 0.249206 0 0.116103 -1.5708
18 -6.37831 -3.25806 1.96624 0.341351 1.201 -3.13853
19 -6.92002 -4.2809 0.664882 1.64091 -0.128363 -1.67733
20 -6.058 -7.7305 2.05181 -1.79637 0.955559 0.804381
21 -7.53678 -0.217398 2.29511 -1.62769 0.401732 1.56688
22 3.15237 0 0 0.013585 -0.00269273 -0.20637
23 2.79335 0 0 0.000739454 0.00992453 -0.122909
24 3.38194 0 0 0 0.00995187 -0.0602483
end
