//Sequence File generated by the Wall Worm SMD Exporter PRO 1.99
//www.wallworm.com
version 1
nodes
0 "rat_hip" -1
1 "rat_tail001" 0
2 "rat_tail002" 1
3 "rat_tail003" 2
4 "rat_tail004" 3
5 "rat_spine" 0
6 "rat_r_forearm" 5
7 "rat_r_ulna" 6
8 "rat_r_paw" 7
9 "rat_r_pawtoe" 8
10 "rat_neck" 5
11 "rat_face" 10
12 "rat_nose" 11
13 "rat_l_forearm" 5
14 "rat_l_ulna" 13
15 "rat_l_paw" 14
16 "rat_l_pawtoe" 15
17 "rat_r_femur" 0
18 "rat_r_radius" 17
19 "rat_r_foot" 18
20 "rat_r_toes" 19
21 "rat_l_femur" 0
22 "rat_l_radius" 21
23 "rat_l_foot" 22
24 "rat_l_toes" 23
end
skeleton
time 0
0 0 5.8008 4.6089 1.62325 0.0594954 -1.60377
1 -1.56588 -2.41449 0 -0.021236 -0.0500582 -2.68202
2 3.15237 0 0 0.0132794 -0.0026322 -0.206757
3 2.79335 0 0 0.000739606 0.00992448 -0.12291
4 3.38193 0 0 0 0.00995174 -0.0602483
5 3.86721 0 0 -0.0523598 0.0257828 -0.0765034
6 3.46652 -1.90644 0.948191 0.673043 -0.78832 -2.72892
7 1.49066 0 0 0.0130806 0.0229605 1.50077
8 1.9977 0 0 0.881968 -0.439732 0.955881
9 0.358219 -0.000130147 -0.000133276 -1.5708 0.000372282 -0.000364295
10 3.57113 0 0 0 0 -0.116766
11 2.11638 0 0 0 0 -0.294347
12 1.97852 0 0 0 0 0
13 3.46652 -1.90644 -0.948 -0.251322 0.55866 -3.0936
14 1.49066 0 0 0.0178485 0.0211701 1.16511
15 1.9977 0 0 -0.49684 0.387316 1.39733
16 0.358219 -0.000129923 -0.000133753 -1.58146 0.0164193 0.377634
17 0.635818 -1.41048 1.8265 -0.010601 -0.117063 -1.24603
18 1.5758 0 0 -0.138052 0.173418 -1.7132
19 1.24879 0 0 -0.179862 -0.156099 1.5278
20 1.03455 0 0 0.0797433 -0.0241813 1.25408
21 0.635816 -1.41048 -1.8265 0.276589 0.283387 -1.23841
22 1.5758 0 0 -0.286348 0.173293 -1.63654
23 1.24879 0 0 -0.679328 -0.341674 2.25607
24 1.03455 0 0 -0.00452529 0.0012201 0.261797
time 1
0 -0.52 5.8008 4.61593 1.62325 0.0594955 -1.59594
1 -1.56701 -2.42126 0.00997505 -0.0199486 -0.047067 -2.68069
2 3.15237 0 0 0.0132153 -0.0026194 -0.206838
3 2.79334 0 0 0.000739031 0.00991829 -0.12291
4 3.38194 0 0 0 0.0099453 -0.0602492
5 3.8672 0 0 -0.0564502 0.0229568 -0.0898278
6 3.46652 -1.90644 0.948191 0.616208 -0.628316 -2.73945
7 1.49066 0 0 0.0130807 0.0227118 1.73469
8 1.9977 0 0 0.772026 -0.338711 0.821061
9 0.358219 -0.000130177 -0.000133514 -1.5708 0.000372387 0.0328579
10 3.57113 0 0 0 0 -0.109256
11 2.11638 0 0 0 0 -0.294347
12 1.97852 0 0 0 0 0
13 3.46652 -1.90644 -0.948 -0.333357 0.60821 3.02434
14 1.49066 0 0 0.0179244 0.0212024 1.1687
15 1.9977 0 0 -0.510202 0.48558 1.53255
16 0.358219 -0.000129968 -0.000133514 -1.57815 0.0181441 0.568462
17 0.635817 -1.41048 1.8265 0.173797 0.0837142 -1.23831
18 1.5758 0 0 -0.138052 0.173784 -1.69656
19 1.24879 0 0 -0.318865 -0.397259 1.53575
20 1.03455 0 0 0.0765633 -0.0230432 1.21438
21 0.635814 -1.41048 -1.8265 0.28859 0.309242 -1.27621
22 1.5758 0 0 -0.274933 0.17366 -1.57044
23 1.24879 0 0 -0.703804 -0.306405 2.2361
24 1.03455 0 0 0.00221473 -0.00585925 0.175855
time 2
0 -1.04 5.8008 4.62174 1.62325 0.0594954 -1.58615
1 -1.56887 -2.43083 0.0332505 -0.0182411 -0.043099 -2.67893
2 3.15237 0 0 0.0131413 -0.00260472 -0.206932
3 2.79335 0 0 0.000737794 0.00989988 -0.122912
4 3.38194 0 0 0 0.00992723 -0.0602507
5 3.86721 0 0 -0.0652317 0.0160984 -0.119308
6 3.46652 -1.90644 0.948191 0.512102 -0.490337 -2.7116
7 1.49066 0 0 0.0130807 0.0216157 1.92154
8 1.99771 0 0 0.654779 -0.219792 0.643364
9 0.358219 -0.000130177 -0.000133276 -1.5708 0.000372373 0.120444
10 3.57113 0 0 0 0 -0.0921433
11 2.11638 0 0 0 0 -0.294347
12 1.97852 0 0 0 0 0
13 3.46652 -1.90644 -0.948 -0.480666 0.542961 2.65944
14 1.49066 0 0 0.0255236 0.0229959 1.50926
15 1.9977 0 0 -0.414853 0.600724 1.60164
16 0.358219 -0.000129938 -0.000133634 -1.586 0.0123353 0.0644294
17 0.635818 -1.41048 1.8265 0.367334 0.28425 -1.21558
18 1.5758 0 0 -0.138052 0.175042 -1.6198
19 1.24879 0 0 -0.449537 -0.66355 1.50096
20 1.03455 0 0 0.0682394 -0.0200483 1.11038
21 0.635817 -1.41048 -1.8265 0.100958 0.096159 -1.22164
22 1.5758 0 0 -0.31214 0.16968 -1.78741
23 1.24879 0 0 -0.449806 -0.234875 2.33856
24 1.03455 0 0 0.0111043 -0.0149 0.0644185
time 3
0 -1.56 5.8008 4.60345 1.62325 0.0594954 -1.57609
1 -1.57101 -2.44193 0.0598507 -0.0164192 -0.0388636 -2.67706
2 3.15237 0 0 0.0130587 -0.00258836 -0.207036
3 2.79335 0 0 0.000735564 0.00987037 -0.122915
4 3.38194 0 0 0 0.00989782 -0.0602534
5 3.86721 0 0 -0.0734706 0.00763649 -0.149202
6 3.46652 -1.90644 0.948191 0.381372 -0.352886 -2.7081
7 1.49066 0 0 0.0130807 0.0193973 2.14032
8 1.99771 0 0 0.499635 -0.149267 0.450077
9 0.358219 -0.000130177 -0.000133276 -1.5708 0.00037241 0.244272
10 3.57113 0 0 0 0 -0.073549
11 2.11638 0 0 0 0 -0.294347
12 1.97852 0 0 0 0 0
13 3.46652 -1.90644 -0.948 -0.590486 0.377449 2.53373
14 1.49066 0 0 0.0349636 0.0215977 1.92652
15 1.9977 0 0 -0.434868 0.558154 1.41363
16 0.358219 -0.000129998 -0.000133574 -1.59037 0.000396252 -0.596839
17 0.635818 -1.41048 1.8265 0.538092 0.504572 -1.27726
18 1.5758 0 0 -0.138053 0.171267 -1.358
19 1.24879 0 0 -0.622862 -0.897076 1.46591
20 1.03455 0 0 0.0565958 -0.015827 0.964755
21 0.635816 -1.41048 -1.8265 -0.214579 -0.222419 -1.17826
22 1.5758 0 0 -0.319631 0.167882 -1.83199
23 1.24879 0 0 -0.00807181 -0.130941 2.3295
24 1.03455 0 0 0.0117287 -0.0161795 0.0491169
time 4
0 -2.08 5.8008 4.53953 1.62325 0.0594954 -1.56745
1 -1.573 -2.45327 0.0798011 -0.014788 -0.0350723 -2.67538
2 3.15237 0 0 0.0129676 -0.00257036 -0.207152
3 2.79335 0 0 0.000732682 0.00983054 -0.122919
4 3.38194 0 0 0 0.00985809 -0.0602573
5 3.8672 0 0 -0.0759323 0 -0.16377
6 3.46652 -1.90644 0.948191 0.168387 -0.257957 -2.72839
7 1.49066 0 0 0.0130805 0.0168463 2.32157
8 1.99771 0 0 0.283216 -0.161916 0.27483
9 0.358219 -0.000130177 -0.000133514 -1.5708 0.00037241 0.386221
10 3.57113 0 0 0 0 -0.0615957
11 2.11638 0 0 0 0 -0.294347
12 1.97852 0 0 0 0 0
13 3.46652 -1.90644 -0.948001 -0.384547 0.333263 2.33637
14 1.49066 0 0 0.0389578 0.0196575 2.11957
15 1.9977 0 0 -0.0623217 0.519023 1.65082
16 0.358219 -0.000129938 -0.000133634 -1.58992 -0.00421397 -0.833982
17 0.635817 -1.41048 1.8265 0.625326 0.4587 -1.1892
18 1.5758 0 0 -0.138052 0.174721 -1.63939
19 1.24879 0 0 -0.685893 -0.899408 1.67154
20 1.03455 0 0 0.0434567 -0.0110094 0.800152
21 0.635816 -1.41048 -1.8265 -0.4127 -0.466366 -1.1778
22 1.5758 0 0 -0.287679 0.173201 -1.64426
23 1.24879 0 0 0.321841 -0.0622298 2.21032
24 1.03455 0 0 0.00657206 -0.0126381 0.0957237
time 5
0 -2.6 5.8008 4.4793 1.62325 0.0594955 -1.56009
1 -1.57439 -2.46356 0.0831261 -0.0136532 -0.0324358 -2.67423
2 3.15237 0 0 0.0128689 -0.00255077 -0.207277
3 2.79335 0 0 0.000728844 0.00978146 -0.122923
4 3.38194 0 0 0 0.00980847 -0.060262
5 3.86721 0 0 -0.0730402 -0.00672523 -0.157271
6 3.46652 -1.90644 0.948191 -0.149291 -0.224427 -2.68988
7 1.49066 0 0 0.0130808 0.0160142 2.37226
8 1.99771 0 0 0.0228261 -0.290145 0.146237
9 0.358219 -0.000130177 -0.000133038 -1.5708 0.00037232 0.52817
10 3.57113 0 0 0 0 -0.0644058
11 2.11638 0 0 0 0 -0.294347
12 1.97852 0 0 0 0 0
13 3.46652 -1.90644 -0.948 0.0383373 0.330075 2.35005
14 1.49066 0 0 0.0381132 0.0201497 2.07713
15 1.9977 0 0 0.310706 0.229996 1.89502
16 0.358219 -0.000129879 -0.000133872 -1.58975 -0.0049045 -0.87021
17 0.635818 -1.41048 1.8265 0.388273 0.155492 -1.08568
18 1.5758 0 0 -0.138052 0.127082 -2.32755
19 1.24879 0 0 -0.358938 -0.582543 1.84706
20 1.03455 0 0 0.0306465 -0.00622513 0.639237
21 0.635816 -1.41048 -1.8265 -0.432704 -0.598584 -1.26445
22 1.5758 0 0 -0.233586 0.168699 -1.32886
23 1.24879 0 0 0.487685 -0.0437922 2.01926
24 1.03455 0 0 -0.00217866 -0.00494568 0.190027
time 6
0 -3.12 5.8008 4.48228 1.62325 0.0594954 -1.55306
1 -1.57474 -2.47151 0.0598507 -0.0135001 -0.0320787 -2.67359
2 3.15237 0 0 0.0127634 -0.00252986 -0.20741
3 2.79335 0 0 0.000724615 0.00972357 -0.122929
4 3.38194 0 0 0 0.00975038 -0.0602676
5 3.86721 0 0 -0.0661161 -0.0134343 -0.140693
6 3.46652 -1.90644 0.948191 -0.466434 -0.160228 -2.5511
7 1.49066 0 0 0.0130806 0.0175886 2.27196
8 1.99771 0 0 -0.182215 -0.479711 0.0558653
9 0.358219 -0.000130236 -0.000133514 -1.5708 0.000372291 0.651999
10 3.57113 0 0 0 0 -0.0898525
11 2.11638 0 0 0 0 -0.294347
12 1.97852 0 0 0 0 0
13 3.46652 -1.90644 -0.948 0.507398 0.0510505 2.71086
14 1.49066 0 0 0.0275556 0.0230314 1.5975
15 1.9977 0 0 0.503689 -0.177884 2.03598
16 0.35822 -0.000129938 -0.000133514 -1.5899 -0.00428612 -0.837685
17 0.635818 -1.41048 1.8265 -0.228405 -0.297336 -1.07921
18 1.5758 0 0 -0.138053 0.0930528 -2.57973
19 1.24879 0 0 -0.076556 0.148002 1.88963
20 1.03455 0 0 0.0199893 -0.00210438 0.504671
21 0.635815 -1.41048 -1.8265 -0.30743 -0.683509 -1.48407
22 1.5758 0 0 -0.157175 0.127875 -0.822627
23 1.24879 0 0 0.610315 -0.039234 1.70892
24 1.03455 0 0 -0.0123238 0.00622255 0.317818
time 7
0 -3.64 5.80079 4.52864 1.62325 0.0594954 -1.54689
1 -1.57361 -2.47585 0 -0.0126694 -0.0301523 -2.67329
2 3.15237 0 0 0.0126515 -0.00250773 -0.207552
3 2.79335 0 0 0.000719696 0.00965794 -0.122935
4 3.38194 0 0 0 0.00968452 -0.0602737
5 3.86721 0 0 -0.0512738 -0.0191704 -0.123388
6 3.46652 -1.90644 0.948192 -0.684517 -0.0323483 -2.40618
7 1.49066 0 0 0.0130807 0.0199804 2.09042
8 1.99771 0 0 -0.273019 -0.668693 -0.0314103
9 0.358219 -0.000130177 -0.000133276 -1.5708 0.00037238 0.739585
10 3.57113 0 0 0 0 -0.129896
11 2.11638 0 0 0 0 -0.294347
12 1.97852 0 0 0 0 0
13 3.46652 -1.90644 -0.948001 0.584848 -0.380925 3.09064
14 1.49066 0 0 0.0111601 0.0167877 0.816263
15 1.9977 0 0 0.562314 -0.41398 2.30642
16 0.35822 -0.000129819 -0.000133514 -1.59015 -0.0029614 -0.768774
17 0.635818 -1.41048 1.8265 -0.573302 -0.535543 -1.02085
18 1.5758 0 0 -0.138053 0.112274 -2.44314
19 1.24879 0 0 0.0474245 0.526576 1.81774
20 1.03455 0 0 0.0133093 0.000722694 0.419115
21 0.635815 -1.41048 -1.8265 -0.106481 -0.701901 -1.78496
22 1.5758 0 0 -0.107362 0.0455677 -0.26295
23 1.24879 0 0 0.708507 -0.0133839 1.36717
24 1.03455 0 0 -0.0216791 0.0201828 0.464891
time 8
0 -4.16 5.80079 4.58265 1.57735 0.0594954 -1.54211
1 -1.57055 -2.47615 -0.115014 -0.00719689 -0.0174612 -2.67364
2 3.15237 0 0 0.0125339 -0.00248436 -0.207701
3 2.79335 0 0 0.000714338 0.0095853 -0.122942
4 3.38194 0 0 0 0.00961169 -0.0602807
5 3.86721 0 0 -0.017474 -0.0240608 -0.105471
6 3.46652 -1.90644 0.948191 -0.864819 0.172005 -2.26801
7 1.49066 0 0 0.0130805 0.0223402 1.81519
8 1.99771 0 0 -0.235801 -0.872158 -0.147734
9 0.358219 -0.000130177 -0.000133276 -1.5708 0.00037244 0.772807
10 3.57113 0 0 0 0 -0.168791
11 2.11638 0 0 0 0 -0.294347
12 1.97852 0 0 0 0 0
13 3.46652 -1.90644 -0.948 0.528141 -0.591169 -2.98126
14 1.49066 0 0 0.00655871 0.0107436 0.485051
15 1.9977 0 0 0.621394 -0.501041 2.36401
16 0.35822 -0.000130057 -0.000133514 -1.59038 -0.000124514 -0.62332
17 0.635818 -1.41048 1.8265 -0.58326 -0.569208 -1.097
18 1.5758 0 0 -0.138053 0.138206 -2.23067
19 1.24879 0 0 0.136074 0.572998 1.78218
20 1.03455 0 0 0.0124309 0.00162668 0.40523
21 0.635816 -1.41048 -1.8265 -0.254072 -0.592377 -1.5066
22 1.5758 0 0 -0.149954 0.120825 -0.764421
23 1.24879 0 0 0.577276 0.0189951 1.55261
24 1.03455 0 0 -0.0280934 0.0362525 0.617043
time 9
0 -4.68 5.80079 4.60859 1.54457 0.0594953 -1.53924
1 -1.5678 -2.47622 -0.209478 0.00243214 0.00487014 -2.67463
2 3.15237 0 0 0.0124117 -0.00246027 -0.207856
3 2.79335 0 0 0.000708474 0.00950635 -0.122949
4 3.38194 0 0 0 0.00953284 -0.0602882
5 3.86721 0 0 0.0242438 -0.027978 -0.0868258
6 3.46652 -1.90644 0.948192 -0.969326 0.374539 -2.17352
7 1.49066 0 0 0.0130807 0.023024 1.53617
8 1.99771 0 0 0.00321097 -1.03865 -0.409705
9 0.358219 -0.000130296 -0.000133038 -1.5708 0.00037238 0.772807
10 3.57113 0 0 0 0 -0.19079
11 2.11638 0 0 0 0 -0.294347
12 1.97852 0 0 0 0 0
13 3.46652 -1.90644 -0.948 0.497946 -0.731965 -2.86493
14 1.49066 0 0 0.00557865 0.00863156 0.383962
15 1.9977 0 0 0.717837 -0.531137 2.23243
16 0.35822 -0.000129938 -0.000133991 -1.59002 0.00374203 -0.424701
17 0.635818 -1.41048 1.8265 -0.52492 -0.577237 -1.2436
18 1.5758 0 0 -0.138052 0.157184 -2.02514
19 1.24879 0 0 0.237111 0.532067 1.8275
20 1.03455 0 0 0.0183429 0.000327183 0.474768
21 0.635816 -1.41048 -1.8265 -0.289069 -0.413868 -1.27925
22 1.5758 0 0 -0.21924 0.164552 -1.24241
23 1.24879 0 0 0.392914 0.0420918 1.62422
24 1.03455 0 0 -0.0306286 0.0570779 0.829303
time 10
0 -5.2 5.80079 4.58731 1.5249 0.0594954 -1.5388
1 -1.56776 -2.47975 -0.19332 0.0124539 0.0281102 -2.67583
2 3.15237 0 0 0.0122852 -0.00243522 -0.208016
3 2.79335 0 0 0.000702065 0.00942259 -0.122957
4 3.38194 0 0 0 0.00944832 -0.0602962
5 3.86721 0 0 0.0446461 -0.0295815 -0.0764574
6 3.46652 -1.90644 0.948191 -0.991164 0.401529 -2.05351
7 1.49066 0 0 0.0130807 0.0230191 1.55887
8 1.99771 0 0 -0.0661023 -1.06334 -0.379231
9 0.358219 -0.000130057 -0.000133276 -1.5708 0.000372365 0.336903
10 3.57113 0 0 0 0 -0.186936
11 2.11638 0 0 0 0 -0.294347
12 1.97852 0 0 0 0 0
13 3.46652 -1.90644 -0.948001 0.450153 -0.81946 -2.74629
14 1.49066 0 0 0.00495827 0.00690048 0.304123
15 1.9977 0 0 0.83428 -0.462334 2.046
16 0.35822 -0.000129998 -0.000133991 -1.58867 0.00799697 -0.196293
17 0.635817 -1.41048 1.8265 -0.463423 -0.577026 -1.39477
18 1.5758 0 0 -0.138052 0.168013 -1.85512
19 1.24879 0 0 0.323133 0.46121 1.90904
20 1.03455 0 0 0.0282834 -0.00224245 0.593598
21 0.635815 -1.41048 -1.8265 -0.237852 -0.236443 -1.03879
22 1.5758 0 0 -0.292885 0.172745 -1.67451
23 1.24879 0 0 0.276525 0.0439336 1.52056
24 1.03455 0 0 -0.0322645 0.080527 1.06089
time 11
0 -5.72 5.80079 4.54107 1.51834 0.0594953 -1.54145
1 -1.56924 -2.48474 -0.112785 0.0191062 0.0435258 -2.67681
2 3.15237 0 0 0.0121548 -0.00240925 -0.20818
3 2.79335 0 0 0.000695603 0.00933388 -0.122966
4 3.38194 0 0 0 0.00935968 -0.0603046
5 3.86721 0 0 0.0339249 -0.0273339 -0.0830054
6 3.46652 -1.90644 0.948192 -0.935702 0.208216 -2.01871
7 1.49066 0 0 0.0130807 0.021659 1.91621
8 1.99771 0 0 -0.416841 -0.895622 -0.063886
9 0.358219 -0.000130177 -0.000133514 -1.5708 0.00037232 -0.321382
10 3.57113 0 0 0 0 -0.165103
11 2.11638 0 0 0 0 -0.294347
12 1.97852 0 0 0 0 0
13 3.46652 -1.90644 -0.948 0.503839 -0.770644 -2.78027
14 1.49066 0 0 0.00612634 0.00988027 0.443137
15 1.9977 0 0 0.829739 -0.25134 1.72887
16 0.35822 -0.000129938 -0.000133991 -1.58539 0.013057 0.112933
17 0.635819 -1.41048 1.8265 -0.420452 -0.578176 -1.50991
18 1.5758 0 0 -0.138052 0.17301 -1.72609
19 1.24879 0 0 0.381584 0.390104 1.98219
20 1.03455 0 0 0.03845 -0.00489252 0.715552
21 0.635817 -1.41048 -1.8265 -0.0624558 -0.0293942 -0.869017
22 1.5758 0 0 -0.340304 0.161027 -1.9581
23 1.24879 0 0 0.208092 -0.134653 1.44236
24 1.03455 0 0 -0.0370462 0.0991109 1.1538
time 12
0 -6.24 5.80079 4.49627 1.5249 0.0594954 -1.54675
1 -1.57048 -2.48773 -0.0408611 0.0186246 0.042386 -2.67711
2 3.15237 0 0 0.0120219 -0.00238289 -0.208349
3 2.79335 0 0 0.000688748 0.00924186 -0.122974
4 3.38194 0 0 0 0.00926723 -0.0603135
5 3.86721 0 0 0.00765929 -0.0216553 -0.103468
6 3.46652 -1.90644 0.948191 -0.669054 -0.0906372 -2.2047
7 1.49066 0 0 0.0130806 0.01637 2.3506
8 1.99771 0 0 -0.413183 -0.54766 0.121139
9 0.358219 -0.000130177 -0.000132561 -1.5708 0.00037238 -0.705042
10 3.57113 0 0 0 0 -0.134789
11 2.11638 0 0 0 0 -0.294347
12 1.97852 0 0 0 0 0
13 3.46652 -1.90644 -0.948 0.622877 -0.603386 -2.94705
14 1.49066 0 0 0.0112182 0.016842 0.819708
15 1.9977 0 0 0.689499 -0.128167 1.42933
16 0.358219 -0.000129938 -0.000133991 -1.58191 0.0161175 0.349938
17 0.635818 -1.41048 1.8265 -0.408839 -0.590754 -1.55864
18 1.5758 0 0 -0.138052 0.174525 -1.65127
19 1.24879 0 0 0.418458 0.344979 2.025
20 1.03455 0 0 0.0450404 -0.00643447 0.794466
21 0.635817 -1.41048 -1.8265 0.228944 0.204806 -0.82656
22 1.5758 0 0 -0.347742 0.157829 -2.00494
23 1.24879 0 0 0.00399317 -0.527408 1.53503
24 1.03455 0 0 -0.048971 0.110443 0.994994
time 13
0 -6.76 5.80079 4.4793 1.54457 0.0594954 -1.55359
1 -1.57077 -2.48629 -0.00548029 0.0105555 0.0236381 -2.67662
2 3.15237 0 0 0.0118865 -0.00235595 -0.208521
3 2.79335 0 0 0.00068162 0.00914695 -0.122983
4 3.38194 0 0 0 0.00917215 -0.0603224
5 3.86721 0 0 -0.0253035 -0.0141423 -0.129388
6 3.46652 -1.90644 0.948191 0.120104 -0.147887 -2.53187
7 1.49066 0 0 0.0130805 0.0128145 2.55128
8 1.99771 0 0 0.197003 -0.127257 0.260748
9 0.358219 -0.000130177 -0.000133514 -1.5708 0.00037232 -0.973119
10 3.57113 0 0 0 0 -0.105493
11 2.11638 0 0 0 0 -0.294347
12 1.97852 0 0 0 0 0
13 3.46652 -1.90644 -0.948001 0.660483 -0.443818 -3.03833
14 1.49066 0 0 0.0169457 0.0207592 1.12205
15 1.9977 0 0 0.676591 -0.103148 1.35696
16 0.358219 -0.000129879 -0.000133991 -1.58191 0.0161172 0.349938
17 0.635819 -1.41048 1.8265 -0.419672 -0.603003 -1.52471
18 1.5758 0 0 -0.138052 0.174654 -1.64341
19 1.24879 0 0 0.425293 0.328668 2.03164
20 1.03455 0 0 0.0458143 -0.00598239 0.802619
21 0.635817 -1.41048 -1.8265 0.482985 0.403146 -0.839219
22 1.5758 0 0 -0.31824 0.168242 -1.82368
23 1.24879 0 0 -0.344458 -0.837995 1.66456
24 1.03455 0 0 -0.0639423 0.116782 0.697468
time 14
0 -7.28 5.80079 4.50362 1.57735 0.0594953 -1.56086
1 -1.57064 -2.48092 0.0158858 -0.00122986 -0.00373974 -2.67602
2 3.15237 0 0 0.0117498 -0.00232904 -0.208694
3 2.79335 0 0 0.000674462 0.00905013 -0.122992
4 3.38194 0 0 0 0.0090751 -0.0603318
5 3.86721 0 0 -0.0561164 -0.0063916 -0.152308
6 3.46652 -1.90644 0.948189 0.753888 -0.32228 -2.48948
7 1.49066 0 0 0.0130807 0.0181524 2.2343
8 1.99771 0 0 0.832848 -0.0794815 0.48775
9 0.358219 -0.000130177 -0.000132561 -1.5708 0.00037235 -1.13555
10 3.57113 0 0 0 0 -0.0867146
11 2.11638 0 0 0 0 -0.294347
12 1.97852 0 0 0 0 0
13 3.46652 -1.90644 -0.948001 0.640774 -0.319957 -3.05569
14 1.49066 0 0 0.0209846 0.0222568 1.30931
15 1.9977 0 0 0.678625 -0.0973483 1.38238
16 0.358219 -0.000129938 -0.000132561 -1.582 0.0160593 0.344748
17 0.635818 -1.41048 1.8265 -0.431518 -0.60419 -1.44256
18 1.5758 0 0 -0.138053 0.174291 -1.66562
19 1.24879 0 0 0.398657 0.317859 2.00336
20 1.03455 0 0 0.0432081 -0.00436009 0.769769
21 0.635817 -1.41048 -1.8265 0.551486 0.51161 -0.913292
22 1.5758 0 0 -0.276623 0.173653 -1.58022
23 1.24879 0 0 -0.608703 -0.904201 1.75679
24 1.03455 0 0 -0.0741956 0.118284 0.442243
time 15
0 -7.8 5.80079 4.54697 1.62325 0.0594954 -1.56745
1 -1.57018 -2.47258 0.025938 -0.0153685 -0.0365917 -2.67572
2 3.15237 0 0 0.0116121 -0.00230178 -0.208868
3 2.79335 0 0 0.000667242 0.00895235 -0.123002
4 3.38194 0 0 0 0.0089768 -0.0603411
5 3.86721 0 0 -0.0759323 0 -0.16377
6 3.46652 -1.90644 0.94819 0.975875 -0.686073 -2.56507
7 1.49066 0 0 0.0130807 0.0225455 1.77429
8 1.9977 0 0 1.10646 -0.248831 0.687058
9 0.358219 -0.000130206 -0.000133514 -1.5708 0.000372469 -1.20228
10 3.57113 0 0 0 0 -0.0807728
11 2.11638 0 0 0 0 -0.294347
12 1.97852 0 0 0 0 0
13 3.46652 -1.90644 -0.948 0.595768 -0.221863 -3.05005
14 1.49066 0 0 0.023472 0.0227771 1.41967
15 1.9977 0 0 0.628016 -0.0969809 1.44663
16 0.35822 -0.000129938 -0.000134468 -1.58208 0.0159975 0.339244
17 0.635818 -1.41048 1.8265 -0.446481 -0.611539 -1.36292
18 1.5758 0 0 -0.138053 0.174184 -1.67218
19 1.24879 0 0 0.367555 0.299812 1.95465
20 1.03455 0 0 0.0404354 -0.00294262 0.735967
21 0.635816 -1.41048 -1.8265 0.454241 0.482489 -0.985156
22 1.5758 0 0 -0.261326 0.173127 -1.4916
23 1.24879 0 0 -0.601519 -0.850087 1.75266
24 1.03455 0 0 -0.0743172 0.111259 0.304598
time 16
0 -8.32 5.80079 4.58217 1.62325 0.0594955 -1.57372
1 -1.56948 -2.46225 0.02738 -0.0157617 -0.0375456 -2.67482
2 3.15237 0 0 0.0114743 -0.00227443 -0.209043
3 2.79335 0 0 0.000659705 0.00885395 -0.123011
4 3.38194 0 0 0 0.00887857 -0.0603503
5 3.86721 0 0 -0.0820808 0.00550752 -0.159329
6 3.46652 -1.90644 0.948191 1.03129 -0.843353 -2.63124
7 1.49066 0 0 0.0130807 0.0230176 1.56678
8 1.9977 0 0 1.2088 -0.30878 0.752705
9 0.358219 -0.000130177 -0.000133514 -1.5708 0.00037241 -1.18325
10 3.57113 0 0 0 0 -0.0821078
11 2.11638 0 0 0 0 -0.294347
12 1.97852 0 0 0 0 0
13 3.46652 -1.90644 -0.948 0.479084 -0.0483531 -3.09091
14 1.49066 0 0 0.0269384 0.0230399 1.57071
15 1.9977 0 0 0.501798 -0.00584244 1.47849
16 0.35822 -0.000129938 -0.000134468 -1.58207 0.0160111 0.340413
17 0.635818 -1.41048 1.8265 -0.385454 -0.563763 -1.33467
18 1.5758 0 0 -0.138052 0.175041 -1.6198
19 1.24879 0 0 0.288571 0.264124 1.85858
20 1.03455 0 0 0.0407094 -0.00310512 0.741263
21 0.635816 -1.41048 -1.8265 0.386719 0.410793 -1.02586
22 1.5758 0 0 -0.272581 0.173644 -1.55682
23 1.24879 0 0 -0.597288 -0.733458 1.85693
24 1.03455 0 0 -0.0658757 0.0943138 0.229184
time 17
0 -8.84 5.80079 4.59894 1.62325 0.0594953 -1.58048
1 -1.56865 -2.45089 0.022912 -0.011526 -0.0277412 -2.67423
2 3.15237 0 0 0.0113369 -0.0022473 -0.209217
3 2.79335 0 0 0.000652558 0.00875648 -0.123021
4 3.38194 0 0 0 0.0087808 -0.0603599
5 3.86721 0 0 -0.079926 0.0112892 -0.143735
6 3.46652 -1.90644 0.948191 1.11085 -0.863533 -2.70902
7 1.49066 0 0 0.0130807 0.0230174 1.56729
8 1.99771 0 0 1.26681 -0.284253 0.730065
9 0.358219 -0.000130117 -0.000132561 -1.5708 0.00037244 -1.08838
10 3.57113 0 0 0 0 -0.0884003
11 2.11638 0 0 0 0 -0.294347
12 1.97852 0 0 0 0 0
13 3.46652 -1.90644 -0.948001 0.313736 0.110778 3.12327
14 1.49066 0 0 0.0290012 0.0229476 1.66036
15 1.9977 0 0 0.327431 0.125655 1.47001
16 0.358219 -0.000129953 -0.000134468 -1.58196 0.0160856 0.347053
17 0.635818 -1.41048 1.8265 -0.330588 -0.55845 -1.39056
18 1.5758 0 0 -0.138053 0.173864 -1.44527
19 1.24879 0 0 0.269359 0.22262 1.73969
20 1.03455 0 0 0.0466045 -0.00619999 0.819041
21 0.635816 -1.41048 -1.8265 0.296746 0.313016 -1.06447
22 1.5758 0 0 -0.287658 0.173203 -1.64415
23 1.24879 0 0 -0.551859 -0.599953 1.96233
24 1.03455 0 0 -0.0520258 0.0714722 0.201032
time 18
0 -9.36 5.80079 4.60755 1.62325 0.0594953 -1.58729
1 -1.56777 -2.43947 0.0152397 -0.0124628 -0.0298908 -2.67528
2 3.15237 0 0 0.0112006 -0.00221997 -0.209389
3 2.79335 0 0 0.000645548 0.0086602 -0.12303
4 3.38194 0 0 0 0.00868429 -0.0603689
5 3.86721 0 0 -0.0726722 0.0167768 -0.122322
6 3.46652 -1.90644 0.948192 1.14081 -0.860492 -2.82213
7 1.49066 0 0 0.0130807 0.0230114 1.59312
8 1.9977 0 0 1.27255 -0.331329 0.730791
9 0.358219 -0.000130177 -0.000133514 -1.5708 0.000372261 -0.927633
10 3.57113 0 0 0 0 -0.0973315
11 2.11638 0 0 0 0 -0.294347
12 1.97852 0 0 0 0 0
13 3.46652 -1.90644 -0.947997 0.132744 0.234766 3.07412
14 1.49066 0 0 0.0288558 0.0229597 1.65406
15 1.9977 0 0 0.127851 0.251016 1.44543
16 0.358219 -0.000129938 -0.000132561 -1.5818 0.0161917 0.35663
17 0.635818 -1.41048 1.8265 -0.271901 -0.55479 -1.47922
18 1.5758 0 0 -0.138052 0.165942 -1.24695
19 1.24879 0 0 0.2677 0.17878 1.62628
20 1.03455 0 0 0.0565145 -0.0115399 0.949276
21 0.635815 -1.41048 -1.8265 0.241254 0.254407 -1.10657
22 1.5758 0 0 -0.293596 0.172671 -1.67865
23 1.24879 0 0 -0.538973 -0.495939 2.05829
24 1.03455 0 0 -0.0358777 0.0467407 0.205178
time 19
0 -9.88 5.80079 4.61167 1.62325 0.0594954 -1.59374
1 -1.56695 -2.42895 0.007061 -0.0153046 -0.0364233 -2.67753
2 3.15237 0 0 0.0110663 -0.0021936 -0.20956
3 2.79335 0 0 0.00063838 0.00856655 -0.123039
4 3.38194 0 0 0 0.00859011 -0.0603779
5 3.86721 0 0 -0.0635238 0.0214007 -0.100423
6 3.46652 -1.90644 0.948191 0.995971 -0.907029 -2.82121
7 1.49066 0 0 0.0130807 0.0229264 1.48182
8 1.9977 0 0 1.17828 -0.414899 0.828512
9 0.358219 -0.000130177 -0.000132561 -1.5708 0.000372469 -0.602616
10 3.57113 0 0 0 0 -0.106582
11 2.11638 0 0 0 0 -0.294347
12 1.97852 0 0 0 0 0
13 3.46652 -1.90644 -0.948002 -0.0303656 0.339001 3.06946
14 1.49066 0 0 0.0266138 0.0230366 1.55662
15 1.9977 0 0 -0.0842792 0.340336 1.41908
16 0.358219 -0.000129968 -0.000134468 -1.58164 0.0163007 0.366609
17 0.635818 -1.41048 1.8265 -0.216553 -0.471141 -1.50054
18 1.5758 0 0 -0.138052 0.165867 -1.24569
19 1.24879 0 0 0.188068 0.117472 1.61631
20 1.03455 0 0 0.06738 -0.0174399 1.0919
21 0.635816 -1.41048 -1.8265 0.207206 0.210915 -1.14535
22 1.5758 0 0 -0.301226 0.171688 -1.72318
23 1.24879 0 0 -0.541953 -0.407541 2.16696
24 1.03455 0 0 -0.0205204 0.0241198 0.226661
time 20
0 -10.4 5.80079 4.61106 1.62325 0.0594953 -1.59937
1 -1.56629 -2.4203 0.00108147 -0.0186852 -0.0441942 -2.68007
2 3.15237 0 0 0.0109347 -0.00216753 -0.209727
3 2.79335 0 0 0.000631594 0.0084759 -0.123047
4 3.38194 0 0 0 0.00849921 -0.0603864
5 3.86721 0 0 -0.0556848 0.0245925 -0.0833724
6 3.46652 -1.90644 0.948192 0.753795 -0.914905 -2.67875
7 1.49066 0 0 0.0130807 0.0224787 1.35166
8 1.9977 0 0 1.03203 -0.428391 0.941729
9 0.358219 -0.000130117 -0.000133514 -1.5708 0.000372402 -0.198461
10 3.57113 0 0 0 0 -0.113833
11 2.11638 0 0 0 0 -0.294347
12 1.97852 0 0 0 0 0
13 3.46652 -1.90644 -0.948002 -0.14447 0.430835 3.10073
14 1.49066 0 0 0.023215 0.0227366 1.40837
15 1.9977 0 0 -0.274121 0.380778 1.39516
16 0.358219 -0.000129953 -0.000134468 -1.58151 0.0163854 0.374455
17 0.635818 -1.41048 1.8265 -0.140393 -0.297614 -1.37847
18 1.5758 0 0 -0.138052 0.174439 -1.48507
19 1.24879 0 0 -0.0100173 0.0251992 1.58867
20 1.03455 0 0 0.0761428 -0.0222152 1.20686
21 0.635816 -1.41048 -1.8265 0.189685 0.18476 -1.1851
22 1.5758 0 0 -0.307032 0.170709 -1.75725
23 1.24879 0 0 -0.551136 -0.340082 2.25927
24 1.03455 0 0 -0.00903977 0.00761244 0.25052
time 21
0 -10.92 5.80079 4.6089 1.62325 0.0594954 -1.60377
1 -1.56588 -2.41449 0 -0.021236 -0.0500582 -2.68202
2 3.15237 0 0 0.010806 -0.00214198 -0.20989
3 2.79335 0 0 0.00062527 0.00838898 -0.123055
4 3.38194 0 0 0 0.00841224 -0.0603948
5 3.86721 0 0 -0.0523598 0.0257828 -0.0765034
6 3.46652 -1.90644 0.948189 0.673043 -0.78832 -2.72892
7 1.49066 0 0 0.0130806 0.0229607 1.50077
8 1.99771 0 0 0.881968 -0.439735 0.955883
9 0.358219 -0.000130206 -0.000133514 -1.5708 0.00037248 -0.000364213
10 3.57113 0 0 0 0 -0.116766
11 2.11638 0 0 0 0 -0.294347
12 1.97852 0 0 0 0 0
13 3.46652 -1.90644 -0.948002 -0.251322 0.55866 -3.0936
14 1.49066 0 0 0.0178484 0.0211699 1.16511
15 1.9977 0 0 -0.496839 0.387316 1.39733
16 0.358219 -0.000129938 -0.000131607 -1.58146 0.0164195 0.377634
17 0.635818 -1.41048 1.8265 -0.010601 -0.117063 -1.24603
18 1.5758 0 0 -0.138052 0.173418 -1.7132
19 1.24879 0 0 -0.179862 -0.156099 1.5278
20 1.03455 0 0 0.0797433 -0.0241814 1.25408
21 0.635815 -1.41048 -1.8265 0.27659 0.283388 -1.23841
22 1.5758 0 0 -0.286348 0.173293 -1.63654
23 1.24879 0 0 -0.679329 -0.341674 2.25607
24 1.03455 0 0 -0.00452585 0.00122017 0.261796
end
