//Sequence File generated by the Wall Worm SMD Exporter PRO 1.99
//www.wallworm.com
version 1
nodes
0 "rat_hip" -1
1 "rat_tail001" 0
2 "rat_tail002" 1
3 "rat_tail003" 2
4 "rat_tail004" 3
5 "rat_spine" 0
6 "rat_r_forearm" 5
7 "rat_r_ulna" 6
8 "rat_r_paw" 7
9 "rat_r_pawtoe" 8
10 "rat_neck" 5
11 "rat_face" 10
12 "rat_nose" 11
13 "rat_l_forearm" 5
14 "rat_l_ulna" 13
15 "rat_l_paw" 14
16 "rat_l_pawtoe" 15
17 "rat_r_femur" 0
18 "rat_r_radius" 17
19 "rat_r_foot" 18
20 "rat_r_toes" 19
21 "rat_l_femur" 0
22 "rat_l_radius" 21
23 "rat_l_foot" 22
24 "rat_l_toes" 23
end
skeleton
time 0
0 0 5.80079 4.6089 1.62325 0.0594954 -1.60377
1 -1.56588 -2.41449 0 -0.021236 -0.0500582 -2.68202
2 3.15237 0 0 0.00600071 -0.0011894 -0.216037
3 2.79335 0 0 0.000349481 0.00468769 -0.123412
4 3.38194 0 0 0 0.0047006 -0.0607521
5 3.86721 0 0 -0.0523598 0.0257828 -0.0765034
6 3.46652 -1.90644 0.948191 -0.0807453 -0.739489 -2.61261
7 1.49066 0 0 0.0130808 0.00791672 0.350946
8 1.99771 0 0 0.173502 -0.708944 2.44461
9 0.358219 -0.000130177 -0.000133276 -1.5708 0.000372234 -0.000364222
10 3.57113 0 0 0 0 -0.116766
11 2.11638 0 0 0 0 -0.294347
12 1.97852 0 0 0 0 0
13 3.46652 -1.90644 -0.948 -0.650321 0.525337 -2.60465
14 1.49066 0 0 0.0294491 0.0229027 1.67991
15 1.9977 0 0 -0.815023 -0.238737 0.49522
16 0.358219 -0.000129998 -0.000133514 -1.58146 0.0164177 0.377634
17 0.635818 -1.41048 1.8265 -0.415216 -0.550686 -0.971044
18 1.5758 0 0 -0.138053 0.175073 -1.5875
19 1.24879 0 0 0.0359224 0.342053 1.20977
20 1.03455 0 0 0.0797433 -0.0241813 1.25408
21 0.635816 -1.41048 -1.8265 0.233185 0.239634 -0.823117
22 1.5758 0 0 -0.324639 0.166482 -1.86209
23 1.24879 0 0 -0.553261 -0.540549 2.09214
24 1.03455 0 0 -0.00452571 0.00121991 0.261796
time 1
0 0.367599 5.43319 4.61106 1.62325 0.0594953 -1.59937
1 -1.56629 -2.4203 0.00108051 -0.0186852 -0.0441942 -2.68007
2 3.15237 0 0 0.00602373 -0.00119406 -0.216008
3 2.79335 0 0 0.000350677 0.00470562 -0.12341
4 3.38194 0 0 0 0.00471843 -0.0607504
5 3.86721 0 0 -0.0556848 0.0245925 -0.0833724
6 3.46652 -1.90644 0.948191 0.0208945 -0.739547 -2.76826
7 1.49066 0 0 0.0130806 0.0119348 0.544901
8 1.99771 0 0 0.149385 -0.710787 2.39766
9 0.358219 -0.000130177 -0.000133276 -1.5708 0.000372298 -0.198461
10 3.57113 0 0 0 0 -0.113833
11 2.11638 0 0 0 0 -0.294347
12 1.97852 0 0 0 0 0
13 3.46652 -1.90644 -0.948 -0.579045 0.400897 -2.87443
14 1.49066 0 0 0.0341979 0.021867 1.89128
15 1.9977 0 0 -0.715975 -0.0297413 0.575635
16 0.358219 -0.000129938 -0.000133514 -1.58151 0.0163847 0.374455
17 0.635818 -1.41048 1.8265 -0.382317 -0.686572 -1.27905
18 1.5758 0 0 -0.138052 0.165097 -1.23276
19 1.24879 0 0 0.27372 0.363731 1.36578
20 1.03455 0 0 0.0761427 -0.0222151 1.20686
21 0.635816 -1.41048 -1.8265 0.132156 0.130494 -0.932193
22 1.5758 0 0 -0.337344 0.162187 -1.93971
23 1.24879 0 0 -0.463214 -0.397715 2.21016
24 1.03455 0 0 -0.00904 0.00761229 0.250519
time 2
0 0.735198 5.0656 4.61167 1.62325 0.0594954 -1.59374
1 -1.56695 -2.42895 0.00706089 -0.0153045 -0.0364234 -2.67753
2 3.15237 0 0 0.00608924 -0.00120705 -0.215924
3 2.79334 0 0 0.000354342 0.00475666 -0.123405
4 3.38194 0 0 0 0.00476961 -0.0607454
5 3.86721 0 0 -0.0635237 0.0214007 -0.100423
6 3.46652 -1.90644 0.948191 0.33013 -0.649161 3.06225
7 1.49066 0 0 0.0130807 0.0217856 1.24203
8 1.9977 0 0 0.124686 -0.690891 2.10858
9 0.358219 -0.000130117 -0.000133276 -1.5708 0.00037232 -0.602616
10 3.57113 0 0 0 0 -0.106582
11 2.11638 0 0 0 0 -0.294347
12 1.97852 0 0 0 0 0
13 3.46652 -1.90644 -0.948 -0.443328 0.323713 -3.09612
14 1.49066 0 0 0.0371884 0.0206353 2.03178
15 1.9977 0 0 -0.534381 0.167526 0.734466
16 0.358219 -0.000129879 -0.000133753 -1.58164 0.0163002 0.366609
17 0.635819 -1.41048 1.8265 -0.162975 -0.782541 -1.77345
18 1.5758 0 0 -0.138052 0.100861 -0.616031
19 1.24879 0 0 0.537603 0.246245 1.35627
20 1.03455 0 0 0.06738 -0.0174397 1.0919
21 0.635817 -1.41048 -1.8265 0.111198 0.117 -0.856732
22 1.5758 0 0 -0.344852 0.15912 -1.98664
23 1.24879 0 0 -0.426674 -0.407151 2.20349
24 1.03455 0 0 -0.0205207 0.02412 0.22666
time 3
0 1.1028 4.698 4.60755 1.62325 0.0594953 -1.58729
1 -1.56777 -2.43947 0.0152389 -0.0124628 -0.0298908 -2.67528
2 3.15237 0 0 0.00619311 -0.00122756 -0.21579
3 2.79335 0 0 0.000360516 0.0048373 -0.123398
4 3.38194 0 0 0 0.00485073 -0.0607374
5 3.86721 0 0 -0.0726722 0.0167768 -0.122322
6 3.46652 -1.90644 0.948191 0.448144 -0.539681 2.84175
7 1.49066 0 0 0.0130807 0.0229561 1.6459
8 1.99771 0 0 0.10471 -0.6712 1.95944
9 0.358219 -0.000130177 -0.000133395 -1.5708 0.00037238 -0.927633
10 3.57113 0 0 0 0 -0.0973315
11 2.11638 0 0 0 0 -0.294347
12 1.97852 0 0 0 0 0
13 3.46652 -1.90644 -0.948 -0.251675 0.286439 3.03262
14 1.49066 0 0 0.0384511 0.0199588 2.09397
15 1.9977 0 0 -0.272612 0.275556 0.945654
16 0.358219 -0.000129998 -0.000133514 -1.5818 0.0161918 0.35663
17 0.635818 -1.41048 1.8265 0.0152953 -0.790248 -2.09271
18 1.5758 0 0 -0.138053 0.038698 -0.223538
19 1.24879 0 0 0.628762 0.168727 1.19695
20 1.03455 0 0 0.0565143 -0.0115399 0.949275
21 0.635814 -1.41048 -1.8265 0.1399 0.171101 -0.653533
22 1.5758 0 0 -0.347053 0.158142 -2.00057
23 1.24879 0 0 -0.392197 -0.537973 2.05569
24 1.03455 0 0 -0.0358783 0.0467404 0.205178
time 4
0 1.47039 4.3304 4.59894 1.62325 0.0594953 -1.58048
1 -1.56865 -2.45089 0.0229126 -0.011526 -0.0277412 -2.67423
2 3.15237 0 0 0.00633086 -0.00125491 -0.215614
3 2.79335 0 0 0.000368594 0.00494427 -0.123387
4 3.38194 0 0 0 0.00495803 -0.0607271
5 3.86721 0 0 -0.0799261 0.0112893 -0.143735
6 3.46652 -1.90644 0.948191 0.50935 -0.409533 2.66599
7 1.49066 0 0 0.0130807 0.0206186 2.03157
8 1.99771 0 0 0.0909963 -0.637157 1.81397
9 0.358219 -0.000130177 -0.000133336 -1.5708 0.000372261 -1.08838
10 3.57113 0 0 0 0 -0.0884005
11 2.11638 0 0 0 0 -0.294347
12 1.97852 0 0 0 0 0
13 3.46652 -1.90644 -0.948001 -0.025147 0.258439 2.97074
14 1.49066 0 0 0.0378235 0.0203077 2.0628
15 1.9977 0 0 0.0125458 0.267891 1.18159
16 0.358219 -0.000129938 -0.000133753 -1.58196 0.0160859 0.347053
17 0.635818 -1.41048 1.8265 -0.279693 -0.801252 -1.67373
18 1.5758 0 0 -0.138053 0.133924 -0.873139
19 1.24879 0 0 0.474475 0.116838 1.4721
20 1.03455 0 0 0.0466044 -0.0062002 0.819041
21 0.635816 -1.41048 -1.8265 0.164637 0.257417 -0.404765
22 1.5758 0 0 -0.335391 0.162919 -1.92764
23 1.24879 0 0 -0.204453 -0.728394 1.67784
24 1.03455 0 0 -0.052026 0.0714724 0.201032
time 5
0 1.83799 3.9628 4.58217 1.62325 0.0594955 -1.57372
1 -1.56948 -2.46225 0.0273798 -0.0157617 -0.0375456 -2.67482
2 3.15237 0 0 0.00649792 -0.00128817 -0.2154
3 2.79335 0 0 0.000378037 0.0050742 -0.123375
4 3.38194 0 0 0 0.00508813 -0.0607147
5 3.86721 0 0 -0.0820808 0.00550752 -0.159329
6 3.46652 -1.90644 0.948191 0.510695 -0.261289 2.54457
7 1.49066 0 0 0.0130807 0.0152012 2.42077
8 1.99771 0 0 0.0956472 -0.570205 1.63304
9 0.358219 -0.000130296 -0.000133336 -1.5708 0.00037241 -1.18325
10 3.57113 0 0 0 0 -0.0821079
11 2.11638 0 0 0 0 -0.294347
12 1.97852 0 0 0 0 0
13 3.46652 -1.90644 -0.948 0.194829 0.197347 2.99203
14 1.49066 0 0 0.0350254 0.0215751 1.92937
15 1.9977 0 0 0.238763 0.174942 1.37287
16 0.358219 -0.000129938 -0.000133514 -1.58206 0.0160111 0.340413
17 0.635818 -1.41048 1.8265 -0.438676 -0.763194 -1.43225
18 1.5758 0 0 -0.138052 0.167357 -1.27074
19 1.24879 0 0 0.393672 0.130128 1.63904
20 1.03455 0 0 0.0407094 -0.00310503 0.741263
21 0.635815 -1.41048 -1.8265 0.149673 0.334922 -0.211909
22 1.5758 0 0 -0.311111 0.1699 -1.78132
23 1.24879 0 0 0.214267 -0.804387 1.0493
24 1.03455 0 0 -0.0658755 0.0943139 0.229184
time 6
0 2.20559 3.5952 4.54697 1.62325 0.0594954 -1.56745
1 -1.57018 -2.47258 0.025938 -0.0153685 -0.0365917 -2.67572
2 3.15237 0 0 0.00668946 -0.00132594 -0.215154
3 2.79335 0 0 0.000389211 0.00522311 -0.12336
4 3.38194 0 0 0 0.00523767 -0.0607003
5 3.86721 0 0 -0.0759323 0 -0.16377
6 3.46652 -1.90644 0.948191 0.350331 -0.155255 2.53273
7 1.49066 0 0 0.0130807 0.00854285 2.76185
8 1.99771 0 0 0.0601487 -0.38849 1.38156
9 0.358219 -0.000130236 -0.000133276 -1.5708 0.000372529 -1.20228
10 3.57113 0 0 0 0 -0.0807728
11 2.11638 0 0 0 0 -0.294347
12 1.97852 0 0 0 0 0
13 3.46652 -1.90644 -0.948001 0.368132 0.0832919 3.06139
14 1.49066 0 0 0.0296388 0.0228811 1.6882
15 1.9977 0 0 0.370077 0.0697063 1.48026
16 0.358219 -0.000129879 -0.000133514 -1.58208 0.0159977 0.339243
17 0.635818 -1.41048 1.8265 -0.521046 -0.72259 -1.33091
18 1.5758 0 0 -0.138053 0.175116 -1.54224
19 1.24879 0 0 0.3883 0.193231 1.80484
20 1.03455 0 0 0.0404354 -0.00294252 0.735968
21 0.635815 -1.41048 -1.8265 0.112731 0.372722 -0.108419
22 1.5758 0 0 -0.291104 0.172919 -1.66416
23 1.24879 0 0 0.553594 -0.703657 0.524919
24 1.03455 0 0 -0.0743172 0.111259 0.304597
time 7
0 2.57319 3.2276 4.50362 1.57735 0.0594954 -1.56086
1 -1.57064 -2.48092 0.0158856 -0.00122963 -0.00373979 -2.67602
2 3.15237 0 0 0.00690128 -0.00136783 -0.214882
3 2.79335 0 0 0.000401595 0.00538786 -0.123344
4 3.38194 0 0 0 0.00540277 -0.0606844
5 3.86721 0 0 -0.0561167 -0.0063918 -0.152308
6 3.46652 -1.90644 0.948191 -0.178463 -0.378311 3.07169
7 1.49066 0 0 0.0130807 0.00746133 2.81166
8 1.99771 0 0 -0.310036 -0.263983 0.888443
9 0.358219 -0.000130177 -0.000133395 -1.5708 0.00037232 -1.13555
10 3.57113 0 0 0 0 -0.0867147
11 2.11638 0 0 0 0 -0.294347
12 1.97852 0 0 0 0 0
13 3.46652 -1.90644 -0.948 0.422842 0.0142432 3.08377
14 1.49066 0 0 0.0248419 0.0229437 1.47958
15 1.9977 0 0 0.39086 0.0465839 1.51723
16 0.358219 -0.000129938 -0.000133753 -1.582 0.0160597 0.344748
17 0.635818 -1.41048 1.8265 -0.490056 -0.608329 -1.269
18 1.5758 0 0 -0.138052 0.17085 -1.79433
19 1.24879 0 0 0.332006 0.273973 1.94196
20 1.03455 0 0 0.0432083 -0.00435992 0.769769
21 0.635815 -1.41048 -1.8265 0.116708 0.442984 0.00160546
22 1.5758 0 0 -0.275006 0.17366 -1.57086
23 1.24879 0 0 0.787117 -0.537555 0.165014
24 1.03455 0 0 -0.0741961 0.118284 0.442243
time 8
0 2.94079 2.86001 4.4793 1.54457 0.0594954 -1.55359
1 -1.57078 -2.48629 -0.00548029 0.0105555 0.0236383 -2.67662
2 3.15237 0 0 0.00712889 -0.00141283 -0.21459
3 2.79335 0 0 0.000414746 0.00556489 -0.123327
4 3.38194 0 0 0 0.00558016 -0.0606671
5 3.8672 0 0 -0.0253035 -0.0141424 -0.129388
6 3.46652 -1.90644 0.948191 -0.518206 -0.272387 -2.51941
7 1.49066 0 0 0.0130807 0.0114612 2.62055
8 1.99771 0 0 -0.409376 -0.409386 0.372027
9 0.358219 -0.000130236 -0.000133276 -1.5708 0.00037238 -0.973119
10 3.57113 0 0 0 0 -0.105493
11 2.11638 0 0 0 0 -0.294347
12 1.97852 0 0 0 0 0
13 3.46652 -1.90644 -0.948 0.453894 -0.028621 3.07329
14 1.49066 0 0 0.0221626 0.0225387 1.36189
15 1.9977 0 0 0.34134 0.0291078 1.49859
16 0.358219 -0.000129819 -0.000133514 -1.58191 0.0161175 0.349938
17 0.635817 -1.41048 1.8265 -0.43288 -0.514522 -1.2076
18 1.5758 0 0 -0.138052 0.161428 -1.96887
19 1.24879 0 0 0.264765 0.344395 1.99114
20 1.03455 0 0 0.0458142 -0.00598236 0.802619
21 0.635815 -1.41048 -1.8265 0.091524 0.475108 0.00752765
22 1.5758 0 0 -0.252604 0.172225 -1.44085
23 1.24879 0 0 0.882482 -0.366087 0.0155663
24 1.03455 0 0 -0.0639427 0.116782 0.697468
time 9
0 3.30839 2.49241 4.49627 1.5249 0.0594954 -1.54675
1 -1.57048 -2.48773 -0.0408614 0.0186247 0.0423861 -2.67711
2 3.15237 0 0 0.0073679 -0.00146049 -0.214284
3 2.79334 0 0 0.000428561 0.00575062 -0.123309
4 3.38194 0 0 0 0.00576656 -0.0606493
5 3.86721 0 0 0.00765918 -0.0216554 -0.103468
6 3.46652 -1.90644 0.948191 -0.566297 -0.0994359 -2.17123
7 1.49066 0 0 0.0130807 0.0157759 2.38675
8 1.99771 0 0 -0.299404 -0.498951 0.00677211
9 0.358219 -0.000130177 -0.000133276 -1.5708 0.00037244 -0.705042
10 3.57113 0 0 0 0 -0.134789
11 2.11638 0 0 0 0 -0.294347
12 1.97852 0 0 0 0 0
13 3.46652 -1.90644 -0.948 0.46333 -0.0391224 3.06052
14 1.49066 0 0 0.0215523 0.022401 1.33474
15 1.9977 0 0 0.290233 0.0216531 1.46391
16 0.358219 -0.0001297 -0.000133514 -1.58191 0.0161176 0.349938
17 0.635818 -1.41048 1.8265 -0.357631 -0.425718 -1.10399
18 1.5758 0 0 -0.138052 0.153431 -2.07205
19 1.24879 0 0 0.154595 0.361175 1.9019
20 1.03455 0 0 0.0450405 -0.00643447 0.794466
21 0.635816 -1.41048 -1.8265 0.0820333 0.449588 -0.0545535
22 1.5758 0 0 -0.250906 0.171999 -1.43093
23 1.24879 0 0 0.891205 -0.287292 0.0913471
24 1.03455 0 0 -0.048971 0.110443 0.994995
time 10
0 3.67598 2.12481 4.54107 1.51834 0.0594954 -1.54145
1 -1.56924 -2.48474 -0.112785 0.0191062 0.0435259 -2.67681
2 3.15237 0 0 0.00761365 -0.00150891 -0.213969
3 2.79335 0 0 0.000442742 0.00594164 -0.123291
4 3.38194 0 0 0 0.00595804 -0.0606308
5 3.86721 0 0 0.0339247 -0.0273341 -0.0830053
6 3.46652 -1.90644 0.948191 -0.512663 -0.0139243 -2.02089
7 1.49066 0 0 0.0130805 0.0186563 2.19657
8 1.99771 0 0 -0.0694844 -0.520462 -0.419882
9 0.358219 -0.000129938 -0.000133276 -1.5708 0.00037241 -0.321382
10 3.57113 0 0 0 0 -0.165103
11 2.11638 0 0 0 0 -0.294347
12 1.97852 0 0 0 0 0
13 3.46652 -1.90644 -0.948001 0.453173 -0.0164435 3.04742
14 1.49066 0 0 0.0229753 0.0226956 1.39783
15 1.9977 0 0 0.383858 0.025557 1.56826
16 0.358219 -0.000129819 -0.000133753 -1.58539 0.013057 0.112932
17 0.635818 -1.41048 1.8265 -0.259758 -0.314731 -0.940671
18 1.5758 0 0 -0.138052 0.143143 -2.18214
19 1.24879 0 0 0.0155585 0.275516 1.73182
20 1.03455 0 0 0.03845 -0.00489256 0.715552
21 0.635816 -1.41048 -1.8265 0.0869865 0.343946 -0.206241
22 1.5758 0 0 -0.279236 0.173609 -1.59534
23 1.24879 0 0 0.743119 -0.333199 0.410965
24 1.03455 0 0 -0.037046 0.0991109 1.1538
time 11
0 4.04358 1.75721 4.58731 1.5249 0.0594954 -1.5388
1 -1.56776 -2.47975 -0.193321 0.0124544 0.0281096 -2.67583
2 3.15237 0 0 0.00786166 -0.00155831 -0.213651
3 2.79335 0 0 0.000457107 0.00613457 -0.123272
4 3.38194 0 0 0 0.00615135 -0.060612
5 3.86721 0 0 0.0446461 -0.0295815 -0.0764574
6 3.46652 -1.90644 0.948191 -0.427287 -0.0159837 -2.00693
7 1.49066 0 0 0.0130808 0.0196082 2.1223
8 1.99771 0 0 0.141317 -0.426645 -0.837584
9 0.358219 -0.000130177 -0.000133038 -1.5708 0.000372261 0.336903
10 3.57113 0 0 0 0 -0.186936
11 2.11638 0 0 0 0 -0.294347
12 1.97852 0 0 0 0 0
13 3.46652 -1.90644 -0.948 0.422169 0.0403396 3.00706
14 1.49066 0 0 0.0266576 0.023038 1.55852
15 1.9977 0 0 0.426347 -0.00210132 1.72851
16 0.358219 -0.000129938 -0.000133038 -1.58867 0.00799775 -0.196294
17 0.635818 -1.41048 1.8265 -0.145504 -0.186238 -0.731801
18 1.5758 0 0 -0.138052 0.135901 -2.25094
19 1.24879 0 0 -0.0694774 0.0840572 1.48547
20 1.03455 0 0 0.0282834 -0.00224239 0.593598
21 0.635816 -1.41048 -1.8265 0.0298513 0.173925 -0.491337
22 1.5758 0 0 -0.30141 0.171659 -1.72425
23 1.24879 0 0 0.348943 -0.421024 0.980309
24 1.03455 0 0 -0.0322642 0.0805272 1.06089
time 12
0 4.41118 1.38961 4.60859 1.54457 0.0594953 -1.53924
1 -1.5678 -2.47622 -0.209478 0.0024318 0.00487053 -2.67463
2 3.15237 0 0 0.00810716 -0.00160685 -0.213336
3 2.79335 0 0 0.000471492 0.00632529 -0.123254
4 3.38194 0 0 0 0.00634289 -0.0605935
5 3.86721 0 0 0.0242438 -0.0279779 -0.0868257
6 3.46652 -1.90644 0.948191 -0.305697 -0.0962614 -2.17528
7 1.49066 0 0 0.0130807 0.0184901 2.209
8 1.99771 0 0 0.180638 -0.290869 -0.894102
9 0.358219 -0.000130177 -0.000133514 -1.5708 0.000372291 0.772807
10 3.57113 0 0 0 0 -0.19079
11 2.11638 0 0 0 0 -0.294347
12 1.97852 0 0 0 0 0
13 3.46652 -1.90644 -0.948 0.33927 0.132813 2.92656
14 1.49066 0 0 0.0322061 0.02243 1.80141
15 1.9977 0 0 0.369081 0.0405543 1.72315
16 0.358219 -0.000129938 -0.000134468 -1.59001 0.00374354 -0.424702
17 0.635818 -1.41048 1.8265 -0.0428657 -0.0564746 -0.490413
18 1.5758 0 0 -0.138052 0.134061 -2.26712
19 1.24879 0 0 -0.0318766 -0.139464 1.1718
20 1.03455 0 0 0.0183428 0.000326964 0.474768
21 0.635816 -1.41048 -1.8265 -0.0818779 -0.00909965 -0.794167
22 1.5758 0 0 -0.296771 0.172303 -1.69714
23 1.24879 0 0 0.0770447 -0.31531 1.53114
24 1.03455 0 0 -0.0306284 0.057078 0.829303
time 13
0 4.77878 1.02202 4.58265 1.57735 0.0594953 -1.54211
1 -1.57055 -2.47615 -0.115015 -0.00719712 -0.0174611 -2.67364
2 3.15237 0 0 0.00834624 -0.00165426 -0.21303
3 2.79335 0 0 0.000485219 0.0065112 -0.123236
4 3.38194 0 0 0 0.00652923 -0.0605757
5 3.8672 0 0 -0.0174739 -0.0240606 -0.105471
6 3.46652 -1.90644 0.948191 -0.0968447 -0.192561 -2.47069
7 1.49066 0 0 0.0130807 0.0172234 2.29638
8 1.99771 0 0 0.172839 -0.159351 -0.465409
9 0.358219 -0.000130177 -0.000132561 -1.5708 0.000372291 0.772807
10 3.57113 0 0 0 0 -0.168791
11 2.11638 0 0 0 0 -0.294347
12 1.97852 0 0 0 0 0
13 3.46652 -1.90644 -0.948 0.186167 0.219905 2.80651
14 1.49066 0 0 0.0378335 0.0203023 2.06332
15 1.9977 0 0 0.282226 0.138595 1.63643
16 0.35822 -0.000129968 -0.000133991 -1.59038 -0.000122547 -0.623321
17 0.635818 -1.41048 1.8265 0.0212389 0.0532789 -0.241396
18 1.5758 0 0 -0.138052 0.136268 -2.24772
19 1.24879 0 0 0.112931 -0.287201 0.802173
20 1.03455 0 0 0.0124308 0.00162644 0.40523
21 0.635816 -1.41048 -1.8265 -0.18908 -0.183638 -1.05206
22 1.5758 0 0 -0.274603 0.17366 -1.56852
23 1.24879 0 0 0.106203 -0.188024 1.82699
24 1.03455 0 0 -0.028093 0.0362523 0.617042
time 14
0 5.14638 0.654417 4.52864 1.62325 0.0594954 -1.54689
1 -1.57361 -2.47585 0 -0.0126694 -0.0301523 -2.67329
2 3.15237 0 0 0.00857383 -0.00169943 -0.212737
3 2.79335 0 0 0.000498513 0.00668818 -0.123219
4 3.38194 0 0 0 0.00670685 -0.0605585
5 3.86721 0 0 -0.0512738 -0.0191704 -0.123388
6 3.46652 -1.90644 0.948191 0.206323 -0.258078 -2.79716
7 1.49066 0 0 0.0130806 0.0161923 2.3614
8 1.99771 0 0 0.323917 -0.0509138 -0.0565224
9 0.358219 -0.00013113 -0.000133514 -1.5708 0.000372291 0.739585
10 3.57113 0 0 0 0 -0.129896
11 2.11638 0 0 0 0 -0.294347
12 1.97852 0 0 0 0 0
13 3.46652 -1.90644 -0.948 0.00998186 0.248758 2.70185
14 1.49066 0 0 0.0418586 0.0175593 2.27511
15 1.9977 0 0 0.151193 0.240418 1.4852
16 0.35822 -0.000129879 -0.000133038 -1.59015 -0.00295929 -0.768775
17 0.635818 -1.41048 1.8265 0.0363229 0.125909 -0.0204262
18 1.5758 0 0 -0.138053 0.139449 -2.21845
19 1.24879 0 0 0.263131 -0.322066 0.456929
20 1.03455 0 0 0.0133093 0.000722872 0.419115
21 0.635816 -1.41048 -1.8265 -0.261197 -0.363593 -1.31786
22 1.5758 0 0 -0.228691 0.167433 -1.2996
23 1.24879 0 0 0.247397 -0.149365 1.93202
24 1.03455 0 0 -0.021679 0.0201825 0.464891
time 15
0 5.51398 0.286819 4.48228 1.62543 0.0659315 -1.55306
1 -1.57546 -2.47722 0.0598507 -0.0135002 -0.0320787 -2.67359
2 3.15237 0 0 0.00878572 -0.00174145 -0.212466
3 2.79335 0 0 0.00051089 0.00685292 -0.123203
4 3.38194 0 0 0 0.00687202 -0.0605426
5 3.8672 0 0 -0.0661158 -0.0134341 -0.140693
6 3.46652 -1.90644 0.948191 0.434877 -0.3024 -3.07334
7 1.49066 0 0 0.0130807 0.0164233 2.34736
8 1.99771 0 0 0.516902 -0.114352 0.3249
9 0.358219 -0.000130177 -0.000133038 -1.5708 0.00037232 0.651999
10 3.57113 0 0 0 0 -0.0898524
11 2.11638 0 0 0 0 -0.294347
12 1.97852 0 0 0 0 0
13 3.46652 -1.90644 -0.947999 -0.326022 0.184252 2.57074
14 1.49066 0 0 0.0449929 0.0143155 2.47122
15 1.9977 0 0 -0.13785 0.376219 1.28078
16 0.358219 -0.000129938 -0.000133514 -1.5899 -0.00428511 -0.837686
17 0.635818 -1.41048 1.8265 0.0675404 0.195483 0.096514
18 1.5758 0 0 -0.138052 0.148559 -2.12683
19 1.24879 0 0 0.377963 -0.309791 0.213138
20 1.03455 0 0 0.0199894 -0.00210415 0.504671
21 0.635816 -1.41048 -1.8265 -0.24659 -0.486776 -1.59334
22 1.5758 0 0 -0.176662 0.143369 -0.966502
23 1.24879 0 0 0.394786 -0.157376 1.90718
24 1.03455 0 0 -0.0123238 0.00622271 0.317818
time 16
0 5.88157 -0.0807796 4.4793 1.62689 0.0702223 -1.56009
1 -1.57679 -2.48257 0.0831261 -0.0136533 -0.0324358 -2.67423
2 3.15237 0 0 0.00897755 -0.00177957 -0.21222
3 2.79335 0 0 0.000521715 0.0070021 -0.123188
4 3.38194 0 0 0 0.00702144 -0.060528
5 3.8672 0 0 -0.0730402 -0.00672493 -0.157271
6 3.46652 -1.90644 0.948191 0.58997 -0.379977 3.00783
7 1.49066 0 0 0.0130807 0.0183118 2.22232
8 1.99771 0 0 0.637256 -0.299726 0.662497
9 0.358219 -0.000130177 -0.000133514 -1.5708 0.00037235 0.528171
10 3.57113 0 0 0 0 -0.0644059
11 2.11638 0 0 0 0 -0.294347
12 1.97852 0 0 0 0 0
13 3.46652 -1.90644 -0.948 -0.694188 0.0297973 2.73694
14 1.49066 0 0 0.0458376 0.013183 2.53254
15 1.9977 0 0 -0.631513 0.307542 0.923991
16 0.358219 -0.000130057 -0.000133991 -1.58975 -0.00490426 -0.87021
17 0.635818 -1.41048 1.8265 0.0618048 0.204305 0.114962
18 1.5758 0 0 -0.138053 0.152462 -2.08294
19 1.24879 0 0 0.383557 -0.305605 0.170971
20 1.03455 0 0 0.0306466 -0.00622498 0.639237
21 0.635816 -1.41048 -1.8265 -0.00331071 -0.564293 -2.18533
22 1.5758 0 0 -0.101335 0 -0.000480892
23 1.24879 0 0 0.625751 -0.191025 1.46235
24 1.03455 0 0 -0.00217916 -0.00494563 0.190026
time 17
0 6.24917 -0.448378 4.53953 1.62762 0.0723676 -1.56745
1 -1.57731 -2.48748 0.0798006 -0.0149228 -0.0353903 -2.67452
2 3.15237 0 0 0.00914444 -0.00181262 -0.212006
3 2.79335 0 0 0.000531586 0.00713182 -0.123176
4 3.38194 0 0 0 0.00715147 -0.0605155
5 3.8672 0 0 -0.0759324 0 -0.16377
6 3.46652 -1.90644 0.948191 0.604863 -0.494364 2.9478
7 1.49066 0 0 0.0130806 0.0212042 1.9725
8 1.99771 0 0 0.619459 -0.480781 0.979495
9 0.358218 -0.000130415 -0.000133991 -1.5708 0.00037241 0.386221
10 3.57113 0 0 0 0 -0.0615957
11 2.11638 0 0 0 0 -0.294347
12 1.97852 0 0 0 0 0
13 3.46652 -1.90644 -0.948001 -0.929552 0.0780907 -3.09483
14 1.49066 0 0 0.0440551 0.0154255 2.40814
15 1.9977 0 0 -0.934402 -0.0437135 0.619707
16 0.358219 -0.000129938 -0.000134468 -1.58992 -0.00421519 -0.833983
17 0.635818 -1.41048 1.8265 0.0155548 0.138908 0.0278302
18 1.5758 0 0 -0.138052 0.15013 -2.10916
19 1.24879 0 0 0.269126 -0.315422 0.341286
20 1.03455 0 0 0.0434567 -0.0110094 0.800152
21 0.635815 -1.41048 -1.8265 0.0118219 -0.640408 -2.23608
22 1.5758 0 0 -0.101335 0 0
23 1.24879 0 0 0.694188 -0.195656 1.50383
24 1.03455 0 0 0.00657209 -0.0126382 0.0957234
time 18
0 6.61677 -0.815975 4.60345 1.62762 0.0723675 -1.5763
1 -1.57676 -2.48755 0.0598502 -0.0168235 -0.0398174 -2.67448
2 3.15237 0 0 0.00928211 -0.00183989 -0.211829
3 2.79335 0 0 0.000539509 0.00723878 -0.123165
4 3.38194 0 0 0 0.00725901 -0.060505
5 3.86721 0 0 -0.0745657 0.00763656 -0.152922
6 3.46652 -1.90644 0.948191 0.50122 -0.612723 3.03117
7 1.49066 0 0 0.0130807 0.0230079 1.61403
8 1.99771 0 0 0.520506 -0.591519 1.32497
9 0.358218 -0.000130177 -0.000133514 -1.5708 0.000372335 0.244272
10 3.57113 0 0 0 0 -0.0735489
11 2.11638 0 0 0 0 -0.294347
12 1.97852 0 0 0 0 0
13 3.46652 -1.90644 -0.948 -0.973311 0.26463 -2.78071
14 1.49066 0 0 0.0402894 0.0187793 2.18883
15 1.9977 0 0 -0.987879 -0.283744 0.483231
16 0.358219 -0.000129938 -0.000133514 -1.59037 0.000394881 -0.596839
17 0.635818 -1.41048 1.8265 -0.102796 -0.0173791 -0.152927
18 1.5758 0 0 -0.138052 0.141168 -2.20156
19 1.24879 0 0 0.0415788 -0.228335 0.704761
20 1.03455 0 0 0.0565958 -0.0158271 0.964755
21 0.635816 -1.41048 -1.8265 0.000662085 -0.603425 -2.16045
22 1.5758 0 0 -0.101335 0 -0.000480836
23 1.24879 0 0 0.658606 -0.147973 1.43872
24 1.03455 0 0 0.0117287 -0.0161792 0.049117
time 19
0 6.98437 -1.18357 4.62079 1.62689 0.0702222 -1.58671
1 -1.57486 -2.47835 0.0332499 -0.0188482 -0.0445288 -2.67506
2 3.15237 0 0 0.00938601 -0.00186045 -0.211696
3 2.79335 0 0 0.000545513 0.00731959 -0.123158
4 3.38194 0 0 0 0.00733996 -0.0604974
5 3.8672 0 0 -0.0681522 0.0160984 -0.129228
6 3.46652 -1.90644 0.948192 0.310463 -0.712384 -3.0541
7 1.49066 0 0 0.0130807 0.020995 1.14846
8 1.9977 0 0 0.397373 -0.658956 1.73154
9 0.358219 -0.000130177 -0.000133514 -1.5708 0.000372387 0.120443
10 3.57113 0 0 0 0 -0.0921434
11 2.11638 0 0 0 0 -0.294347
12 1.97852 0 0 0 0 0
13 3.46652 -1.90644 -0.947999 -0.918411 0.429516 -2.61818
14 1.49066 0 0 0.035496 0.0213923 1.95132
15 1.9977 0 0 -0.962804 -0.3737 0.446936
16 0.358218 -0.000130415 -0.000134468 -1.586 0.012333 0.0644289
17 0.635818 -1.41048 1.8265 -0.254176 -0.227422 -0.48211
18 1.5758 0 0 -0.138052 0.157333 -2.02315
19 1.24879 0 0 -0.104532 -0.0100666 0.932963
20 1.03455 0 0 0.0682394 -0.0200484 1.11038
21 0.635815 -1.41048 -1.8265 -0.265552 -0.311343 -1.22401
22 1.5758 0 0 -0.273975 0.173658 -1.56489
23 1.24879 0 0 0.143238 -0.112758 2.09574
24 1.03455 0 0 0.0111044 -0.0149002 0.0644186
time 20
0 7.35197 -1.55117 4.61403 1.62544 0.0659316 -1.59657
1 -1.57132 -2.45547 0.00997543 -0.0204882 -0.0483382 -2.67725
2 3.15237 0 0 0.00945169 -0.00187358 -0.211612
3 2.79335 0 0 0.000549276 0.00737069 -0.123153
4 3.38194 0 0 0 0.00739107 -0.0604923
5 3.86721 0 0 -0.0597358 0.0229567 -0.100988
6 3.46652 -1.90644 0.948192 0.0980056 -0.7502 -2.82879
7 1.49066 0 0 0.0130806 0.0149423 0.706359
8 1.99771 0 0 0.25117 -0.70289 2.16397
9 0.358219 -0.000130177 -0.000133514 -1.5708 0.000372432 0.0328577
10 3.57113 0 0 0 0 -0.109257
11 2.11638 0 0 0 0 -0.294347
12 1.97852 0 0 0 0 0
13 3.46652 -1.90643 -0.948001 -0.781258 0.54303 -2.53319
14 1.49066 0 0 0.0303678 0.0227834 1.72013
15 1.9977 0 0 -0.895865 -0.355226 0.464566
16 0.358219 -0.000130177 -0.000133514 -1.57815 0.018142 0.568462
17 0.635818 -1.41048 1.8265 -0.368071 -0.40094 -0.716846
18 1.5758 0 0 -0.138053 0.168067 -1.85397
19 1.24879 0 0 -0.0945916 0.205801 1.08614
20 1.03455 0 0 0.0765632 -0.0230431 1.21438
21 0.635815 -1.41048 -1.8265 0.0978817 0.124909 -0.849676
22 1.5758 0 0 -0.327975 0.165459 -1.88227
23 1.24879 0 0 -0.375929 -0.426974 2.06968
24 1.03455 0 0 0.00221499 -0.00585927 0.175855
time 21
0 7.71957 -1.91877 4.6089 1.62325 0.0594954 -1.60377
1 -1.56588 -2.41449 0 -0.021236 -0.0500582 -2.68202
2 3.15237 0 0 0.00947455 -0.00187783 -0.211583
3 2.79335 0 0 0.000550618 0.00738827 -0.123151
4 3.38194 0 0 0 0.00740873 -0.0604909
5 3.86721 0 0 -0.0523598 0.0257828 -0.0765034
6 3.46652 -1.90644 0.948192 -0.0807406 -0.73949 -2.61262
7 1.49066 0 0 0.0130807 0.00791693 0.350955
8 1.99771 0 0 0.173502 -0.708945 2.4446
9 0.358219 -0.000130177 -0.000133991 -1.5708 0.000372419 -0.000364368
10 3.57113 0 0 0 0 -0.116766
11 2.11638 0 0 0 0 -0.294347
12 1.97852 0 0 0 0 0
13 3.46651 -1.90644 -0.948002 -0.65032 0.525337 -2.60465
14 1.49066 0 0 0.0294493 0.0229024 1.67991
15 1.9977 0 0 -0.815023 -0.23874 0.495218
16 0.358218 -0.000130177 -0.000131607 -1.58146 0.0164178 0.377634
17 0.635818 -1.41048 1.8265 -0.415216 -0.550686 -0.971044
18 1.5758 0 0 -0.138052 0.175072 -1.5875
19 1.24879 0 0 0.0359225 0.342052 1.20977
20 1.03455 0 0 0.0797433 -0.0241813 1.25408
21 0.635816 -1.41048 -1.8265 0.233184 0.239636 -0.823118
22 1.5758 0 0 -0.324641 0.166483 -1.86209
23 1.24879 0 0 -0.553259 -0.540549 2.09214
24 1.03455 0 0 -0.00452561 0.0012202 0.261796
end
