//Sequence File generated by the Wall Worm SMD Exporter PRO 1.99
//www.wallworm.com
version 1
nodes
0 "b_l_clav" -1
1 "b_l_upperarm" 0
2 "b_l_forearm" 1
3 "b_l_twist3" 2
4 "b_l_twist2" 2
5 "b_l_twist1" 2
6 "b_l_hand" 2
7 "b_l_thumb001" 6
8 "b_l_thumb002" 7
9 "b_l_thumb003" 8
10 "b_l_middle001" 6
11 "b_l_middle002" 10
12 "b_l_middle003" 11
13 "b_l_index001" 6
14 "b_l_index002" 13
15 "b_l_index003" 14
16 "b_l_hand_ringsqueezer" 6
17 "b_l_ring001" 16
18 "b_l_ring002" 17
19 "b_l_ring003" 18
20 "b_l_hand_pinkysqueezer" 6
21 "b_l_pinky001" 20
22 "b_l_pinky002" 21
23 "b_l_pinky003" 22
24 "b_r_clav" -1
25 "b_r_upperarm" 24
26 "b_r_forearm" 25
27 "b_r_twist3" 26
28 "b_r_twist2" 26
29 "b_r_twist1" 26
30 "b_r_hand" 26
31 "b_r_thumb001" 30
32 "b_r_thumb002" 31
33 "b_r_thumb003" 32
34 "b_r_middle001" 30
35 "b_r_middle002" 34
36 "b_r_middle003" 35
37 "b_r_index001" 30
38 "b_r_index002" 37
39 "b_r_index003" 38
40 "b_r_hand_ringsqueezer" 30
41 "b_r_ring001" 40
42 "b_r_ring002" 41
43 "b_r_ring003" 42
44 "b_r_hand_pinkysqueezer" 30
45 "b_r_pinky001" 44
46 "b_r_pinky002" 45
47 "b_r_pinky003" 46
48 "b_zero" -1
49 "d_mag" -1
50 "d_magwell" 49
51 "d_boolet" 49
52 "d_walk" -1
53 "d_gun" 52
54 "d_chamber" 53
55 "d_bolt" 53
56 "d_trigger" 53
57 "d_stockbar" 53
58 "d_stockpivot" 57
59 "d_mainswivel" 53
60 "d_hookswivel" 59
61 "d_ringswiveltop" 60
62 "d_ringswivelbottom" 61
63 "d_strap1" 62
64 "d_strap2" 63
65 "d_strap3" 64
end
skeleton
time 0
0 5.56284 9.62242 -3.17563 0.000934124 0 -1.04975
1 6.02794 0 0 -0.953582 0.63726 -0.351451
2 11.7344 0 0 -0.00140298 0 -1.01758
3 8.81138 -0.000449181 -0.000113487 -0.189481 0 0.000158008
4 5.77839 0.000287056 0 -0.126952 0 0.000104997
5 2.23163 -0.000329018 -0.000365257 -0.0625286 0 0
6 11.4725 0 0 -0.439308 -0.43889 0.558232
7 0.615217 -0.993091 -0.8107 3.07196 0.47568 -0.191083
8 2.24752 0 0 0.0893819 0.100772 -0.129848
9 1.11936 0 0 0.0339425 0.0778112 -0.80599
10 3.71348 -0.102641 0.102191 1.55999 0.645291 0.0798625
11 1.72615 0 0 0.0194279 -0.0124617 -1.02549
12 1.21114 0 0 -0.00915483 0.0139676 -1.15628
13 3.59919 -1.06012 0.0708886 1.53849 0.357878 -0.138954
14 1.66069 0 0 -0.00234033 0.0720157 -0.267084
15 1.167 0 0 -0.0212855 0.0283246 -0.23815
16 2.18852 0.50104 0.0576593 1.55917 0.13705 0.146564
17 1.29609 0 0 0.00533155 -0.0465293 -0.302891
18 1.62202 0.000714302 -0.000471115 0.0228114 -0.0295792 -1.09019
19 1.22241 0 0 0.00650224 0.000457277 -1.08964
20 1.76707 1.27612 0.0366411 1.55741 0.17263 0.0984099
21 1.55587 0 0 -0.0150432 -0.0389028 -0.183922
22 1.24274 0 0 -0.000479232 0.000360509 -0.237287
23 0.784525 0 0 0.00416578 0.0145277 -1.01407
24 2.01306 0.806315 -13.2419 -0.000932693 0 -2.00317
25 6.02794 0 0 1.40031 0.443183 0.586403
26 11.7344 0 0 0.0014027 0 1.13572
27 8.81167 0 0 0.333459 0 0
28 5.77884 0 0 0.223417 0 0
29 2.23249 0 0 0.110041 0 0
30 11.4725 0 0 0.341064 -0.0478399 -0.127227
31 0.615814 0.994373 -0.809165 -2.97025 0.377536 0.373134
32 2.24752 0 0 -0.0863609 0.0306542 0.18756
33 1.11936 0 0 -0.129536 0.16338 -0.247734
34 3.71348 0.102642 0.102191 -1.57338 1.20801 -0.0947637
35 1.72615 0 0 -0.014004 -0.00309799 1.06922
36 1.21112 0 0 0.00907728 0.0151213 1.87168
37 3.5992 1.06012 0.0708885 -1.7608 1.02808 -0.234437
38 1.66069 0 0 0.0535003 0.0663869 0.806995
39 1.16699 0 0 -0.0256994 0.00585793 1.96948
40 2.18853 -0.501038 0.0576582 -1.57144 0.106396 -0.0540188
41 1.29609 0 0 0.0966379 0.0743868 0.990738
42 1.62202 -0.000715256 -0.000471115 -0.00454888 -0.031158 1.37171
43 1.22241 0 0 0.0245549 0.0111943 1.72151
44 1.76707 -1.27612 0.0366411 -1.54714 0.313946 0.0233514
45 1.55588 0 0 0.240314 -0.011401 1.10726
46 1.24273 0 0 0.000478804 -0.000351854 1.02076
47 0.784534 0 0 0.00744973 -0.00523566 1.65775
48 0 0 0 0 0 0
49 6 -19.5151 -9.80378 0 0 0
50 0 0.175507 4.39833 0 0 0
51 -0.243587 0.175507 5.00562 0 0 0
52 -8.98651 -15.2233 -5.2717 0 0 0
53 14.9865 -3.79351 -0.23805 0 0 0
54 0 -0.0303917 1.6467 0 0 0
55 0 -2.3184 2.62787 0 0 0
56 0 -2.34127 -0.129979 0 0 0
57 0 10.015 0.00570393 0 0 0
58 0 0.899643 -0.657643 0 0 0
59 0 -6.47112 1.19749 0 0 0
60 0 -0.221874 -1.53505 0 0 0
61 0 0.174824 -0.766596 0 0 0
62 0 0 -0.605335 0 0 0
63 0 -0.0467033 -0.715623 0 0 0
64 0 -0.0772591 -1.03217 0 0 0
65 0 0.00226593 -1.16841 0 0 0
time 1
0 5.56284 9.62242 -3.17563 0.000934124 0 -1.04975
1 6.02794 0 0 -0.93932 0.660288 -0.334316
2 11.7344 0 0 -0.00140291 0 -1.06399
3 8.81138 -0.000450134 -0.000112057 -0.18033 0 0.000157909
4 5.77839 0.000286102 0 -0.120821 0 0.000105031
5 2.23163 -0.000329971 -0.000363827 -0.0595091 0 0
6 11.4725 0 0 -0.44054 -0.449203 0.567485
7 0.615219 -0.993091 -0.8107 3.07196 0.47568 -0.191083
8 2.24752 0 0 0.0893818 0.100772 -0.129848
9 1.11936 0 0 0.0339425 0.077811 -0.80599
10 3.71348 -0.102641 0.102191 1.55999 0.645291 0.0798625
11 1.72615 0 0 0.0194279 -0.0124616 -1.02549
12 1.21114 0 0 -0.00915478 0.0139676 -1.15628
13 3.59919 -1.06012 0.0708883 1.53831 0.372596 -0.139468
14 1.66069 0 0 -0.0122688 0.0702524 -0.407674
15 1.167 0 0 -0.0238643 0.0241151 -0.378377
16 2.18852 0.50104 0.0576593 1.55917 0.13705 0.146564
17 1.29609 0 0 0.00533152 -0.0465293 -0.302891
18 1.62202 0.000713348 -0.000471115 0.0228114 -0.0295792 -1.0902
19 1.22241 0 0 0.00650225 0.00045729 -1.08964
20 1.76707 1.27612 0.0366402 1.55741 0.17263 0.0984098
21 1.55588 0 0 -0.0150432 -0.0389028 -0.183922
22 1.24273 0 0 -0.000479219 0.000360526 -0.237287
23 0.784523 0 0 0.00416578 0.0145277 -1.01407
24 2.01306 0.806315 -13.2419 -0.000932693 0 -2.00317
25 6.02794 0 0 1.39888 0.444079 0.5993
26 11.7344 0 0 0.00140257 0 1.14042
27 8.81167 0 0 0.358726 0 0
28 5.77884 0 0 0.240347 0 0
29 2.23249 0 0 0.11838 0 0
30 11.4725 0 0 0.369846 -0.0784813 -0.133538
31 0.615815 0.994373 -0.809165 -2.97025 0.377536 0.373134
32 2.24752 0 0 -0.086361 0.030654 0.18756
33 1.11936 0 0 -0.129536 0.16338 -0.247734
34 3.71349 0.102638 0.10219 -1.57338 1.20801 -0.0947637
35 1.72615 0 0 -0.0140041 -0.00309796 1.06922
36 1.21112 0 0 0.00907724 0.0151213 1.87168
37 3.5992 1.06012 0.070888 -1.7608 1.02808 -0.234437
38 1.66069 0 0 0.0535003 0.0663869 0.806995
39 1.16699 0 0 -0.0256994 0.00585791 1.96948
40 2.18853 -0.501041 0.0576587 -1.57144 0.106396 -0.0540187
41 1.29609 0 0 0.0966379 0.0743869 0.990738
42 1.62202 -0.000711441 -0.000469208 -0.00454886 -0.0311579 1.37171
43 1.22241 0 0 0.0245549 0.0111942 1.72151
44 1.76707 -1.27612 0.0366406 -1.54714 0.313946 0.0233513
45 1.55588 0 0 0.240314 -0.0114011 1.10726
46 1.24273 0 0 0.000478847 -0.0003519 1.02076
47 0.784531 0 0 0.00744981 -0.00523569 1.65775
48 0 0 0 0 0 0
49 6 -19.2602 -9.79706 -0.0127974 0 0
50 0 0.175505 4.39833 0 0 0
51 -0.243587 0.175507 5.00562 0 0 0
52 -8.98651 -15.2233 -5.2717 0 0 0
53 14.9865 -3.48372 -0.23805 -0.0127974 0 0
54 0 -2.36279 1.64671 0 0 0
55 0 -4.34546 2.62787 0 0 0
56 0 -2.26398 -0.124172 0.150936 0 0
57 0 10.015 0.00570393 0 0 0
58 0 0.899643 -0.657643 0 0 0
59 0 -6.47112 1.19749 0 -0.0374081 0
60 0 -0.221874 -1.53505 -0.293999 -0.00175538 -0.00464259
61 0 0.174822 -0.766596 0.315193 -0.00137937 0.00675488
62 0 0 -0.605335 0 0 0
63 0 -0.0467014 -0.715623 0 0 0
64 0 -0.0772572 -1.03217 0 0 0
65 0 0.00226402 -1.1684 0 0 0
time 2
0 5.56284 9.62242 -3.17563 0.000934124 0 -1.04975
1 6.02794 0 0 -0.883418 0.738317 -0.265381
2 11.7344 0 0 -0.00140291 0 -1.25291
3 8.81138 -0.000449181 -0.000112057 -0.134047 0 0.000158121
4 5.77839 0.000287056 0 -0.0898116 0 0.000105354
5 2.23163 -0.000329018 -0.00036335 -0.0442357 0 0
6 11.4725 0 0 -0.459865 -0.471396 0.649099
7 0.61522 -0.993091 -0.8107 3.07196 0.47568 -0.191084
8 2.24752 0 0 0.0893817 0.100772 -0.129849
9 1.11935 0 0 0.0339425 0.0778112 -0.80599
10 3.71348 -0.102641 0.102191 1.55999 0.645291 0.0798624
11 1.72615 0 0 0.0194279 -0.0124617 -1.02549
12 1.21114 0 0 -0.0091548 0.0139676 -1.15628
13 3.59919 -1.06012 0.0708885 1.53812 0.387314 -0.139981
14 1.66069 0 0 -0.0221972 0.0684893 -0.548264
15 1.167 0 0 -0.026443 0.0199056 -0.518605
16 2.18852 0.50104 0.0576587 1.55917 0.13705 0.146564
17 1.29609 0 0 0.00533152 -0.0465293 -0.302891
18 1.62202 0.000714302 -0.000470638 0.0228114 -0.0295792 -1.0902
19 1.22241 0 0 0.00650224 0.000457285 -1.08964
20 1.76707 1.27612 0.0366408 1.55741 0.17263 0.0984097
21 1.55588 0 0 -0.0150433 -0.0389028 -0.183922
22 1.24273 0 0 -0.000479212 0.000360526 -0.237287
23 0.784523 0 0 0.00416578 0.0145277 -1.01407
24 2.01306 0.806315 -13.2419 -0.000932693 0 -2.00317
25 6.02794 0 0 1.39375 0.48494 0.606076
26 11.7344 0 0 0.00140275 0 1.28293
27 8.81167 0 0 0.345593 0 0
28 5.77884 0 0 0.231548 0 0
29 2.23249 0 0 0.114046 0 0
30 11.4725 0 0 0.373697 -0.096695 -0.237707
31 0.61581 0.994373 -0.809166 -2.97025 0.377536 0.373134
32 2.24752 0 0 -0.0863609 0.0306543 0.18756
33 1.11936 0 0 -0.129536 0.16338 -0.247734
34 3.71348 0.10264 0.10219 -1.57338 1.20801 -0.0947638
35 1.72615 0 0 -0.014004 -0.003098 1.06922
36 1.21112 0 0 0.00907726 0.0151213 1.87168
37 3.5992 1.06012 0.0708885 -1.7608 1.02808 -0.234437
38 1.66069 0 0 0.0535004 0.0663869 0.806995
39 1.16699 0 0 -0.0256995 0.00585792 1.96948
40 2.18853 -0.50104 0.0576587 -1.57144 0.106396 -0.0540187
41 1.29609 0 0 0.096638 0.0743869 0.990738
42 1.62202 -0.000715256 -0.000469208 -0.00454886 -0.0311579 1.37171
43 1.22241 0 0 0.0245549 0.0111943 1.72151
44 1.76707 -1.27612 0.0366406 -1.54714 0.313946 0.0233514
45 1.55588 0 0 0.240314 -0.011401 1.10726
46 1.24273 0 0 0.000478815 -0.000351895 1.02076
47 0.784533 0 0 0.00744982 -0.00523566 1.65775
48 0 0 0 0 0 0
49 5.94393 -18.1032 -9.55829 -0.0358479 0.0133341 0.001398
50 0 0.175508 4.39833 0 0 0
51 -0.243587 0.175508 5.00562 0 0 0
52 -8.98651 -15.2233 -5.2717 0 0 0
53 14.9865 -2.228 -0.0135541 -0.0358479 0.0133341 0.001398
54 0 -2.36278 1.6467 0 0 0
55 0 -4.34546 2.62787 0 0 0
56 0 -2.21761 -0.120687 0.241497 0 0
57 0 10.015 0.00570393 0 0 0
58 0 0.899643 -0.657643 0 0 0
59 0 -6.47112 1.19749 0 -0.0641601 0
60 0 -0.221872 -1.53505 -0.533394 -0.00319163 -0.00844107
61 0 0.174824 -0.766598 0.581223 -0.000740183 0.0102832
62 0 0 -0.605336 0 0 0
63 0 -0.0467033 -0.715623 0 0 0
64 0 -0.0772591 -1.03217 0 0 0
65 0 0.00226593 -1.16841 0 0 0
time 3
0 5.56284 9.62242 -3.17563 0.000934124 0 -1.04975
1 6.02794 0 0 -0.900198 0.714388 -0.291926
2 11.7344 0 0 -0.00140287 0 -1.19937
3 8.81138 -0.000450134 -0.000112057 -0.169325 0 0.00015798
4 5.77839 0.000286102 0 -0.113448 0 0.000105035
5 2.23163 -0.000329971 -0.00036335 -0.0558772 0 0
6 11.4725 0 0 -0.470935 -0.481508 0.610882
7 0.615218 -0.993091 -0.8107 3.07196 0.475681 -0.191084
8 2.24752 0 0 0.0893818 0.100772 -0.129849
9 1.11936 0 0 0.0339425 0.0778111 -0.80599
10 3.71348 -0.102641 0.102191 1.55999 0.645291 0.0798626
11 1.72615 0 0 0.0194279 -0.0124617 -1.02549
12 1.21114 0 0 -0.0091548 0.0139676 -1.15628
13 3.59919 -1.06012 0.0708877 1.53812 0.387314 -0.139981
14 1.66069 0 0 -0.0221973 0.0684892 -0.548264
15 1.167 0 0 -0.026443 0.0199056 -0.518605
16 2.18852 0.50104 0.0576589 1.55917 0.13705 0.146564
17 1.29609 0 0 0.0053315 -0.0465293 -0.302891
18 1.62202 0.000713348 -0.000470638 0.0228114 -0.0295792 -1.0902
19 1.22241 0 0 0.00650224 0.000457287 -1.08964
20 1.76707 1.27612 0.0366402 1.55741 0.17263 0.0984098
21 1.55588 0 0 -0.0150433 -0.0389028 -0.183922
22 1.24274 0 0 -0.000479223 0.000360525 -0.237287
23 0.784525 0 0 0.00416577 0.0145277 -1.01407
24 2.01306 0.806315 -13.2419 -0.000932693 0 -2.00317
25 6.02794 0 0 1.39888 0.438736 0.604642
26 11.7344 0 0 0.00140265 0 1.20792
27 8.81167 0 0 0.35446 0 0
28 5.77884 0 0 0.237488 0 0
29 2.23249 0 0 0.116972 0 0
30 11.4725 0 0 0.375133 -0.0895997 -0.197257
31 0.615813 0.994373 -0.809165 -2.97025 0.377536 0.373134
32 2.24752 0 0 -0.086361 0.0306541 0.18756
33 1.11936 0 0 -0.129536 0.16338 -0.247734
34 3.71349 0.10264 0.102191 -1.57338 1.20801 -0.0947638
35 1.72615 0 0 -0.0140042 -0.00309802 1.06922
36 1.21112 0 0 0.00907717 0.0151212 1.87168
37 3.5992 1.06012 0.070888 -1.7608 1.02808 -0.234437
38 1.66069 0 0 0.0535003 0.0663869 0.806995
39 1.16699 0 0 -0.0256995 0.00585791 1.96948
40 2.18853 -0.50104 0.0576587 -1.57144 0.106396 -0.0540188
41 1.29609 0 0 0.0966379 0.0743869 0.990738
42 1.62202 -0.000715256 -0.000471115 -0.00454884 -0.031158 1.37171
43 1.22241 0 0 0.0245549 0.0111943 1.72151
44 1.76707 -1.27612 0.0366411 -1.54714 0.313946 0.0233513
45 1.55587 0 0 0.240314 -0.011401 1.10726
46 1.24273 0 0 0.000478851 -0.000351923 1.02076
47 0.784529 0 0 0.00744981 -0.00523567 1.65775
48 0 0 0 0 0 0
49 5.81262 -18.5049 -9.47002 -0.0571713 0.0257588 0.00127172
50 0 0.175505 4.39833 0 0 0
51 -0.243587 0.175508 5.00562 0 0 0
52 -8.98651 -15.2233 -5.2717 0 0 0
53 14.9079 -2.53863 0.0588136 -0.0571713 0.0257588 0.00127172
54 0 -2.36278 1.64671 0 0 0
55 0 -4.34546 2.62787 0 0 0
56 0 -2.21761 -0.120687 0.241497 0 0
57 0 10.015 0.00570393 0 0 0
58 0 0.899643 -0.657643 0 0 0
59 0 -6.47112 1.19749 0 -0.080256 0
60 0 -0.221872 -1.53505 -0.718184 -0.0043087 -0.0113955
61 0 0.174823 -0.766596 0.775713 0.000687119 0.0117032
62 0 0 -0.605336 0 0 0
63 0 -0.0467033 -0.715623 0 0 0
64 0 -0.077261 -1.03217 0 0 0
65 0 0.00226784 -1.16841 0 0 0
time 4
0 5.56284 9.62242 -3.17563 0.000934124 0 -1.04975
1 6.02794 0 0 -0.915361 0.693626 -0.310387
2 11.7344 0 0 -0.00140286 0 -1.15689
3 8.81138 -0.000449181 -0.000112534 -0.179413 0 0.000157912
4 5.77839 0.000287056 0 -0.120207 0 0.000104996
5 2.23163 -0.000329971 -0.00036335 -0.0592064 0 0
6 11.4725 0 0 -0.458748 -0.475246 0.58184
7 0.615219 -0.993091 -0.8107 3.07196 0.475681 -0.191084
8 2.24752 0 0 0.0893818 0.100772 -0.129849
9 1.11936 0 0 0.0339424 0.0778112 -0.80599
10 3.71348 -0.102641 0.102191 1.55999 0.645291 0.0798623
11 1.72615 0 0 0.0194279 -0.0124617 -1.02549
12 1.21114 0 0 -0.00915478 0.0139676 -1.15628
13 3.59919 -1.06012 0.0708879 1.53812 0.387314 -0.139981
14 1.66069 0 0 -0.0221972 0.0684893 -0.548264
15 1.167 0 0 -0.026443 0.0199056 -0.518605
16 2.18852 0.50104 0.0576595 1.55917 0.13705 0.146564
17 1.29609 0 0 0.00533153 -0.0465293 -0.302891
18 1.62202 0.000714302 -0.000471115 0.0228114 -0.0295792 -1.0902
19 1.22241 0 0 0.00650225 0.000457284 -1.08964
20 1.76707 1.27612 0.0366412 1.55741 0.17263 0.0984098
21 1.55588 0 0 -0.0150433 -0.0389028 -0.183922
22 1.24274 0 0 -0.000479222 0.000360522 -0.237287
23 0.784525 0 0 0.00416578 0.0145277 -1.01407
24 2.01306 0.806315 -13.2419 -0.000932693 0 -2.00317
25 6.02794 0 0 1.40225 0.406243 0.602253
26 11.7344 0 0 0.00140279 0 1.14169
27 8.81167 0 0 0.358472 0 0
28 5.77884 0 0 0.240176 0 0
29 2.23249 0 0 0.118296 0 0
30 11.4725 0 0 0.37157 -0.0957296 -0.137142
31 0.615816 0.99437 -0.809164 -2.97025 0.377536 0.373134
32 2.24752 0 0 -0.0863609 0.0306541 0.18756
33 1.11936 0 0 -0.129536 0.16338 -0.247734
34 3.71349 0.102638 0.102191 -1.57338 1.20801 -0.0947638
35 1.72615 0 0 -0.014004 -0.00309798 1.06922
36 1.21112 0 0 0.00907725 0.0151214 1.87168
37 3.5992 1.06012 0.0708885 -1.7608 1.02808 -0.234437
38 1.66069 0 0 0.0535004 0.0663869 0.806995
39 1.16699 0 0 -0.0256994 0.00585806 1.96948
40 2.18853 -0.501041 0.0576587 -1.57144 0.106396 -0.0540188
41 1.29609 0 0 0.0966379 0.0743869 0.990738
42 1.62202 -0.000711441 -0.000471115 -0.00454884 -0.031158 1.37171
43 1.22241 0 0 0.0245549 0.0111943 1.72151
44 1.76707 -1.27612 0.0366416 -1.54714 0.313946 0.0233514
45 1.55587 0 0 0.240314 -0.0114011 1.10726
46 1.24273 0 0 0.000478906 -0.000351856 1.02076
47 0.784533 0 0 0.00744983 -0.00523561 1.65775
48 0 0 0 0 0 0
49 5.77305 -18.8015 -9.41187 -0.0619292 0.0186551 -0.00618272
50 0 0.175507 4.39833 0 0 0
51 -0.243587 0.175505 5.00562 0 0 0
52 -8.98651 -15.2233 -5.2717 0 0 0
53 14.8437 -2.8156 0.114058 -0.0619292 0.0186551 -0.00618272
54 0 -1.19659 1.64671 0 0 0
55 0 -3.33193 2.62787 0 0 0
56 0 -2.21761 -0.120687 0.241497 0 0
57 0 10.015 0.00570393 0 0 0
58 0 0.899643 -0.657643 0 0 0
59 0 -6.47112 1.19749 0 -0.081632 0
60 0 -0.221874 -1.53505 -0.818675 -0.00493972 -0.0130644
61 0 0.174826 -0.766596 0.854479 0.00173452 0.011694
62 0 0 -0.605335 0 0 0
63 0 -0.0467033 -0.715622 0 0 0
64 0 -0.0772572 -1.03217 0 0 0
65 0 0.00226402 -1.1684 0 0 0
time 5
0 5.56284 9.62242 -3.17563 0.000934124 0 -1.04975
1 6.02794 0 0 -0.92849 0.675998 -0.323045
2 11.7344 0 0 -0.00140282 0 -1.12312
3 8.81138 -0.000450134 -0.00011158 -0.174197 0 0.000158232
4 5.77839 0.000287056 0 -0.116712 0 0.000105248
5 2.23163 -0.000329971 -0.000363827 -0.057485 0 0
6 11.4725 0 0 -0.434746 -0.460216 0.559916
7 0.615219 -0.993091 -0.810701 3.07196 0.47568 -0.191083
8 2.24752 0 0 0.0893818 0.100772 -0.129848
9 1.11936 0 0 0.0339426 0.0778112 -0.80599
10 3.71348 -0.102641 0.102191 1.55999 0.645291 0.0798624
11 1.72615 0 0 0.0194279 -0.0124617 -1.02549
12 1.21114 0 0 -0.00915481 0.0139676 -1.15628
13 3.59919 -1.06012 0.070888 1.53812 0.387314 -0.139981
14 1.66069 0 0 -0.0221972 0.0684893 -0.548264
15 1.167 0 0 -0.026443 0.0199056 -0.518605
16 2.18852 0.50104 0.0576596 1.55917 0.13705 0.146564
17 1.29609 0 0 0.0053315 -0.0465293 -0.302891
18 1.62202 0.000713348 -0.000471115 0.0228114 -0.0295792 -1.0902
19 1.22241 0 0 0.00650225 0.00045729 -1.08964
20 1.76707 1.27612 0.0366409 1.55741 0.17263 0.0984097
21 1.55588 0 0 -0.0150433 -0.0389028 -0.183922
22 1.24273 0 0 -0.000479224 0.000360521 -0.237287
23 0.784523 0 0 0.00416577 0.0145277 -1.01407
24 2.01306 0.806315 -13.2419 -0.000932693 0 -2.00317
25 6.02794 0 0 1.4042 0.389463 0.597951
26 11.7344 0 0 0.00140258 0 1.09872
27 8.81167 0 0 0.358192 0 0
28 5.77884 0 0 0.239989 0 0
29 2.23249 0 0 0.118203 0 0
30 11.4725 0 0 0.366301 -0.104699 -0.0927037
31 0.615812 0.99437 -0.809165 -2.97025 0.377536 0.373134
32 2.24752 0 0 -0.0863611 0.0306542 0.18756
33 1.11936 0 0 -0.129536 0.16338 -0.247734
34 3.71348 0.102638 0.10219 -1.57338 1.20801 -0.094764
35 1.72615 0 0 -0.0140041 -0.00309803 1.06922
36 1.21112 0 0 0.00907732 0.0151214 1.87168
37 3.5992 1.06012 0.0708876 -1.7608 1.02808 -0.234438
38 1.66069 0 0 0.0535003 0.0663868 0.806995
39 1.16699 0 0 -0.0256994 0.00585797 1.96948
40 2.18853 -0.501041 0.0576587 -1.57144 0.106396 -0.0540187
41 1.29609 0 0 0.0966379 0.0743869 0.990738
42 1.62202 -0.000713348 -0.000469208 -0.00454883 -0.0311579 1.37171
43 1.22241 0 0 0.024555 0.0111942 1.72151
44 1.76707 -1.27612 0.0366411 -1.54714 0.313946 0.0233514
45 1.55587 0 0 0.240314 -0.0114009 1.10726
46 1.24273 0 0 0.00047883 -0.000351899 1.02076
47 0.784531 0 0 0.00744979 -0.00523564 1.65775
48 0 0 0 0 0 0
49 5.78978 -19.024 -9.37821 -0.0569733 0.00114653 -0.0171096
50 0 0.175505 4.39833 0 0 0
51 -0.243587 0.175505 5.00562 0 0 0
52 -8.98651 -15.2233 -5.2717 0 0 0
53 14.7939 -3.05891 0.152177 -0.0569733 0.00114653 -0.0171096
54 0 -0.0303898 1.6467 0 0 0
55 0 -2.3184 2.62787 0 0 0
56 0 -2.21761 -0.120687 0.241497 0 0
57 0 10.015 0.00570393 0 0 0
58 0 0.899643 -0.657643 0 0 0
59 0 -6.47111 1.19749 0 -0.0696427 0
60 0 -0.221872 -1.53505 -0.82002 -0.00500128 -0.0132271
61 0 0.174822 -0.766596 0.832248 0.00279137 0.0100294
62 0 0 -0.605335 0 0 0
63 0 -0.0467033 -0.715623 0 0 0
64 0 -0.0772591 -1.03217 0 0 0
65 0 0.00226784 -1.16841 0 0 0
time 6
0 5.56284 9.62242 -3.17563 0.000934124 0 -1.04975
1 6.02794 0 0 -0.939197 0.660491 -0.334146
2 11.7344 0 0 -0.00140292 0 -1.09291
3 8.81138 -0.000449181 -0.000111103 -0.167804 0 0.000158409
4 5.77839 0.00028801 0 -0.112429 0 0.000105472
5 2.23163 -0.000328064 -0.000361919 -0.0553756 0 0
6 11.4725 0 0 -0.415891 -0.450082 0.544503
7 0.61522 -0.993092 -0.8107 3.07196 0.47568 -0.191084
8 2.24752 0 0 0.0893819 0.100772 -0.129848
9 1.11936 0 0 0.0339424 0.0778111 -0.80599
10 3.71348 -0.102641 0.102191 1.55999 0.645291 0.0798624
11 1.72615 0 0 0.0194279 -0.0124617 -1.02549
12 1.21114 0 0 -0.00915479 0.0139676 -1.15628
13 3.59919 -1.06012 0.0708883 1.53812 0.387314 -0.139981
14 1.66069 0 0 -0.0221973 0.0684893 -0.548264
15 1.167 0 0 -0.026443 0.0199055 -0.518605
16 2.18852 0.50104 0.0576589 1.55917 0.13705 0.146564
17 1.29609 0 0 0.00533152 -0.0465293 -0.302891
18 1.62202 0.000712395 -0.000471115 0.0228114 -0.0295792 -1.0902
19 1.22241 0 0 0.00650225 0.000457282 -1.08964
20 1.76707 1.27612 0.0366408 1.55741 0.17263 0.0984098
21 1.55587 0 0 -0.0150433 -0.0389028 -0.183922
22 1.24274 0 0 -0.000479233 0.000360517 -0.237287
23 0.784523 0 0 0.00416578 0.0145277 -1.01407
24 2.01306 0.806315 -13.2419 -0.000932693 0 -2.00317
25 6.02794 0 0 1.40508 0.384749 0.593313
26 11.7344 0 0 0.00140259 0 1.08204
27 8.81167 0 0 0.357296 0 0
28 5.77884 0 0 0.239388 0 0
29 2.23249 0 0 0.117908 0 0
30 11.4725 0 0 0.364287 -0.10511 -0.0832556
31 0.615809 0.994371 -0.809166 -2.97025 0.377536 0.373134
32 2.24752 0 0 -0.0863609 0.0306541 0.18756
33 1.11936 0 0 -0.129536 0.16338 -0.247734
34 3.71348 0.10264 0.10219 -1.57338 1.20801 -0.0947638
35 1.72615 0 0 -0.0140041 -0.003098 1.06922
36 1.21112 0 0 0.0090773 0.0151214 1.87168
37 3.5992 1.06012 0.070888 -1.7608 1.02808 -0.234437
38 1.66069 0 0 0.0535003 0.0663869 0.806994
39 1.16699 0 0 -0.0256995 0.00585794 1.96948
40 2.18853 -0.501041 0.0576582 -1.57144 0.106396 -0.0540187
41 1.29609 0 0 0.0966378 0.0743869 0.990738
42 1.62202 -0.000713348 -0.000469208 -0.00454887 -0.031158 1.37171
43 1.22241 0 0 0.0245549 0.0111942 1.72151
44 1.76707 -1.27612 0.0366406 -1.54714 0.313946 0.0233515
45 1.55587 0 0 0.240314 -0.0114009 1.10726
46 1.24273 0 0 0.000478751 -0.000351889 1.02076
47 0.784533 0 0 0.00744981 -0.00523569 1.65775
48 0 0 0 0 0 0
49 5.81377 -19.209 -9.36127 -0.0508792 -0.0136405 -0.0228642
50 0 0.175505 4.39833 0 0 0
51 -0.243587 0.175505 5.00562 0 0 0
52 -8.98651 -15.2233 -5.2717 0 0 0
53 14.7585 -3.26855 0.173172 -0.0508792 -0.0136405 -0.0228642
54 0 -0.0303917 1.64671 0 0 0
55 0 -2.3184 2.62787 0 0 0
56 0 -2.21761 -0.120687 0.241497 0 0
57 0 10.015 0.0057044 0 0 0
58 0 0.899643 -0.657643 0 0 0
59 0 -6.47112 1.19749 0 -0.0524157 0
60 0 -0.221874 -1.53505 -0.744488 -0.00461848 -0.0122147
61 0 0.174826 -0.766594 0.752642 0.00373282 0.00758745
62 0 0 -0.605335 0 0 0
63 0 -0.0467033 -0.715623 0 0 0
64 0 -0.0772591 -1.03217 0 0 0
65 0 0.00226593 -1.16841 0 0 0
time 7
0 5.56284 9.62242 -3.17563 0.000934124 0 -1.04975
1 6.02794 0 0 -0.946397 0.648536 -0.343909
2 11.7344 0 0 -0.00140279 0 -1.06756
3 8.81138 -0.000448227 -0.000112534 -0.162214 0 0.000158203
4 5.77839 0.000286102 0 -0.108683 0 0.000105315
5 2.23163 -0.000329971 -0.000364304 -0.0535304 0 0
6 11.4725 0 0 -0.407251 -0.452169 0.537045
7 0.61522 -0.993091 -0.8107 3.07196 0.47568 -0.191083
8 2.24752 0 0 0.0893817 0.100772 -0.129849
9 1.11936 0 0 0.0339426 0.0778113 -0.80599
10 3.71348 -0.102641 0.102191 1.55999 0.645291 0.0798624
11 1.72615 0 0 0.0194279 -0.0124617 -1.02549
12 1.21114 0 0 -0.00915481 0.0139676 -1.15628
13 3.59919 -1.06012 0.0708879 1.53818 0.382715 -0.139821
14 1.66069 0 0 -0.0190946 0.0690403 -0.50433
15 1.167 0 0 -0.0256371 0.0212211 -0.474784
16 2.18853 0.50104 0.0576589 1.55917 0.13705 0.146564
17 1.2961 0 0 0.00533152 -0.0465293 -0.302891
18 1.62202 0.000713348 -0.000471115 0.0228114 -0.0295792 -1.0902
19 1.22241 0 0 0.00650224 0.000457292 -1.08964
20 1.76707 1.27612 0.0366406 1.55741 0.17263 0.0984097
21 1.55588 0 0 -0.0150433 -0.0389028 -0.183922
22 1.24273 0 0 -0.000479225 0.000360525 -0.237287
23 0.784523 0 0 0.00416578 0.0145277 -1.01407
24 2.01306 0.806315 -13.2419 -0.000932693 0 -2.00317
25 6.02794 0 0 1.40457 0.392578 0.591583
26 11.7344 0 0 0.00140282 0 1.09996
27 8.81167 0 0 0.363447 0 0
28 5.77884 0 0 0.243509 0 0
29 2.23249 0 0 0.119937 0 0
30 11.4725 0 0 0.376126 -0.0966927 -0.133472
31 0.615812 0.994373 -0.809165 -2.97025 0.377536 0.373134
32 2.24752 0 0 -0.0863609 0.0306541 0.18756
33 1.11936 0 0 -0.129536 0.16338 -0.247734
34 3.71348 0.10264 0.102191 -1.57338 1.20801 -0.0947636
35 1.72615 0 0 -0.014004 -0.00309803 1.06922
36 1.21112 0 0 0.00907726 0.0151214 1.87168
37 3.5992 1.06012 0.0708876 -1.7608 1.02808 -0.234437
38 1.66069 0 0 0.0535004 0.0663869 0.806995
39 1.16699 0 0 -0.0256994 0.00585807 1.96948
40 2.18853 -0.50104 0.0576591 -1.57144 0.106396 -0.0540188
41 1.29609 0 0 0.0966379 0.0743869 0.990738
42 1.62202 -0.000715256 -0.000469208 -0.00454884 -0.0311579 1.37171
43 1.22241 0 0 0.0245549 0.0111942 1.72151
44 1.76707 -1.27612 0.0366416 -1.54714 0.313946 0.0233514
45 1.55588 0 0 0.240314 -0.011401 1.10726
46 1.24273 0 0 0.000478903 -0.000351982 1.02076
47 0.784533 0 0 0.00744979 -0.00523567 1.65775
48 0 0 0 0 0 0
49 5.84126 -19.358 -9.36815 -0.0468824 -0.0223396 -0.0179133
50 0 0.175505 4.39833 0 0 0
51 -0.243587 0.175507 5.00562 0 0 0
52 -8.98651 -15.2233 -5.2717 0 0 0
53 14.745 -3.43413 0.168446 -0.0468824 -0.0223396 -0.0179133
54 0 -0.0303898 1.64671 0 0 0
55 0 -2.3184 2.62787 0 0 0
56 0 -2.23113 -0.121704 0.215083 0 0
57 0 10.015 0.00570393 0 0 0
58 0 0.899643 -0.657643 0 0 0
59 0 -6.47111 1.19749 0 -0.0380786 0
60 0 -0.221874 -1.53505 -0.614353 -0.00391652 -0.0103582
61 0 0.174822 -0.766596 0.659285 0.0044341 0.00524671
62 0 0 -0.605335 0 0 0
63 0 -0.0467033 -0.715623 0 0 0
64 0 -0.0772591 -1.03217 0 0 0
65 0 0.00226402 -1.1684 0 0 0
time 8
0 5.56284 9.62242 -3.17563 0.000934124 0 -1.04975
1 6.02794 0 0 -0.950535 0.640967 -0.350585
2 11.7344 0 0 -0.00140293 0 -1.04939
3 8.81139 -0.000449181 -0.00011158 -0.155456 0 0.000157817
4 5.77839 0.000286102 0 -0.104156 0 0.000105124
5 2.23164 -0.000329018 -0.00036335 -0.0513007 0 0
6 11.4725 0 0 -0.40354 -0.459239 0.536542
7 0.615219 -0.993092 -0.8107 3.07196 0.47568 -0.191084
8 2.24752 0 0 0.0893816 0.100772 -0.129849
9 1.11936 0 0 0.0339425 0.0778111 -0.80599
10 3.71348 -0.102641 0.102192 1.55999 0.645291 0.0798624
11 1.72615 0 0 0.0194279 -0.0124617 -1.02549
12 1.21114 0 0 -0.0091548 0.0139676 -1.15628
13 3.59919 -1.06012 0.0708883 1.53831 0.372596 -0.139468
14 1.66069 0 0 -0.0122688 0.0702525 -0.407674
15 1.167 0 0 -0.0238643 0.0241151 -0.378377
16 2.18852 0.50104 0.0576592 1.55917 0.13705 0.146564
17 1.29609 0 0 0.00533152 -0.0465293 -0.302891
18 1.62201 0.000713348 -0.000471115 0.0228114 -0.0295792 -1.0902
19 1.22241 0 0 0.00650223 0.000457292 -1.08964
20 1.76707 1.27612 0.0366406 1.55741 0.17263 0.0984097
21 1.55588 0 0 -0.0150432 -0.0389028 -0.183922
22 1.24273 0 0 -0.000479217 0.000360518 -0.237287
23 0.784521 0 0 0.00416577 0.0145277 -1.01407
24 2.01306 0.806315 -13.2419 -0.000932693 0 -2.00317
25 6.02794 0 0 1.40329 0.405849 0.592488
26 11.7344 0 0 0.00140268 0 1.12876
27 8.81167 0 0 0.370983 0 0
28 5.77884 0 0 0.248558 0 0
29 2.23249 0 0 0.122424 0 0
30 11.4725 0 0 0.39049 -0.0865476 -0.192182
31 0.615812 0.994373 -0.809165 -2.97025 0.377536 0.373134
32 2.24752 0 0 -0.0863608 0.0306542 0.18756
33 1.11936 0 0 -0.129536 0.16338 -0.247734
34 3.71349 0.102638 0.102191 -1.57338 1.20801 -0.0947636
35 1.72615 0 0 -0.0140041 -0.00309801 1.06922
36 1.21112 0 0 0.00907732 0.0151213 1.87168
37 3.5992 1.06012 0.070888 -1.7608 1.02808 -0.234437
38 1.66069 0 0 0.0535004 0.0663869 0.806995
39 1.16699 0 0 -0.0256994 0.00585798 1.96948
40 2.18853 -0.501041 0.0576591 -1.57144 0.106396 -0.0540188
41 1.29609 0 0 0.0966379 0.0743869 0.990738
42 1.62202 -0.000713348 -0.000471115 -0.00454884 -0.0311579 1.37171
43 1.2224 0 0 0.0245549 0.0111942 1.72151
44 1.76707 -1.27612 0.0366411 -1.54714 0.313946 0.0233513
45 1.55587 0 0 0.240314 -0.011401 1.10726
46 1.24273 0 0 0.000478856 -0.000351853 1.02076
47 0.784531 0 0 0.0074498 -0.00523574 1.65775
48 0 0 0 0 0 0
49 5.88491 -19.455 -9.4041 -0.0421244 -0.028317 -0.00779
50 0 0.175507 4.39833 0 0 0
51 -0.243587 0.175505 5.00562 0 0 0
52 -8.98651 -15.2233 -5.2717 0 0 0
53 14.7558 -3.55217 0.135133 -0.0421244 -0.028317 -0.00779
54 0 -0.0303936 1.6467 0 0 0
55 0 -2.3184 2.62787 0 0 0
56 0 -2.26399 -0.124171 0.150936 0 0
57 0 10.015 0.00570393 0 0 0
58 0 0.899643 -0.657643 0 0 0
59 0 -6.47111 1.19749 0 -0.0277617 0
60 0 -0.221876 -1.53505 -0.451883 -0.00302057 -0.00798868
61 0 0.174824 -0.766596 0.536523 0.00493056 0.00275827
62 0 0 -0.605335 0 0 0
63 0 -0.0467033 -0.715623 0 0 0
64 0 -0.0772591 -1.03217 0 0 0
65 0 0.00226784 -1.16841 0 0 0
time 9
0 5.56284 9.62242 -3.17563 0.000934124 0 -1.04975
1 6.02794 0 0 -0.952672 0.636928 -0.354175
2 11.7344 0 0 -0.00140279 0 -1.03732
3 8.81138 -0.000451088 -0.000112057 -0.154726 0 0.000158316
4 5.77839 0.000285149 0 -0.103666 0 0.000105355
5 2.23163 -0.000329971 -0.000363827 -0.0510596 0 0
6 11.4725 0 0 -0.405807 -0.462729 0.539229
7 0.615219 -0.993091 -0.8107 3.07196 0.47568 -0.191083
8 2.24752 0 0 0.089382 0.100772 -0.129848
9 1.11936 0 0 0.0339424 0.0778111 -0.80599
10 3.71348 -0.102641 0.102191 1.55999 0.645291 0.0798625
11 1.72615 0 0 0.0194279 -0.0124617 -1.02549
12 1.21114 0 0 -0.0091548 0.0139676 -1.15628
13 3.59919 -1.06012 0.0708879 1.53844 0.362478 -0.139115
14 1.66069 0 0 -0.00544295 0.0714647 -0.311018
15 1.167 0 0 -0.0220914 0.0270091 -0.281971
16 2.18852 0.50104 0.0576584 1.55917 0.13705 0.146564
17 1.29609 0 0 0.00533152 -0.0465293 -0.302891
18 1.62202 0.000714302 -0.000471115 0.0228114 -0.0295791 -1.0902
19 1.22241 0 0 0.00650224 0.000457277 -1.08964
20 1.76707 1.27612 0.0366409 1.55741 0.17263 0.0984098
21 1.55588 0 0 -0.0150433 -0.0389028 -0.183922
22 1.24274 0 0 -0.000479245 0.000360508 -0.237287
23 0.784525 0 0 0.00416577 0.0145277 -1.01407
24 2.01306 0.806315 -13.2419 -0.000932693 0 -2.00317
25 6.02794 0 0 1.4023 0.417359 0.591721
26 11.7344 0 0 0.00140261 0 1.14601
27 8.81167 0 0 0.368002 0 0
28 5.77884 0 0 0.246561 0 0
29 2.23249 0 0 0.121441 0 0
30 11.4725 0 0 0.38849 -0.0754218 -0.210758
31 0.615816 0.994373 -0.809165 -2.97025 0.377536 0.373134
32 2.24752 0 0 -0.086361 0.030654 0.18756
33 1.11936 0 0 -0.129536 0.16338 -0.247734
34 3.71349 0.102642 0.102191 -1.57338 1.20801 -0.0947639
35 1.72615 0 0 -0.0140041 -0.00309797 1.06922
36 1.21112 0 0 0.0090772 0.0151212 1.87168
37 3.5992 1.06012 0.070888 -1.7608 1.02808 -0.234437
38 1.66069 0 0 0.0535004 0.0663869 0.806995
39 1.16699 0 0 -0.0256995 0.00585794 1.96948
40 2.18853 -0.501038 0.0576596 -1.57144 0.106396 -0.0540188
41 1.29608 0 0 0.0966379 0.0743869 0.990738
42 1.62202 -0.000715256 -0.000469208 -0.00454884 -0.0311579 1.37171
43 1.22241 0 0 0.0245549 0.0111942 1.72151
44 1.76707 -1.27612 0.0366416 -1.54714 0.313946 0.0233514
45 1.55588 0 0 0.240314 -0.011401 1.10726
46 1.24273 0 0 0.000478809 -0.000351845 1.02076
47 0.784531 0 0 0.00744977 -0.00523567 1.65775
48 0 0 0 0 0 0
49 5.91874 -19.5091 -9.46142 -0.0360397 -0.0285459 -0.000448877
50 0 0.175507 4.39832 0 0 0
51 -0.243587 0.175507 5.00562 0 0 0
52 -8.98651 -15.2233 -5.2717 0 0 0
53 14.7836 -3.63309 0.0818295 -0.0360397 -0.0285459 -0.000448877
54 0 -0.0303898 1.6467 0 0 0
55 0 -2.3184 2.62787 0 0 0
56 0 -2.30456 -0.127221 0.0716943 0 0
57 0 10.015 0.00570345 0 0 0
58 0 0.899642 -0.657643 0 0 0
59 0 -6.47111 1.19749 0 -0.0173565 0
60 0 -0.221872 -1.53505 -0.279351 -0.00205577 -0.00543705
61 0 0.174824 -0.766597 0.370187 0.0052659 -0.000185309
62 0 0 -0.605335 0 0 0
63 0 -0.0467072 -0.715623 0 0 0
64 0 -0.0772572 -1.03217 0 0 0
65 0 0.00226593 -1.16841 0 0 0
time 10
0 5.56284 9.62242 -3.17563 0.000934124 0 -1.04975
1 6.02794 0 0 -0.953691 0.635196 -0.355454
2 11.7344 0 0 -0.00140289 0 -1.02957
3 8.81138 -0.000450134 -0.00011301 -0.163578 0 0.00015788
4 5.77839 0.000286102 0 -0.109598 0 0.000105085
5 2.23163 -0.000329971 -0.00036335 -0.0539808 0 0
6 11.4725 0 0 -0.41488 -0.458828 0.543583
7 0.615221 -0.993091 -0.8107 3.07196 0.47568 -0.191083
8 2.24752 0 0 0.0893818 0.100772 -0.129848
9 1.11936 0 0 0.0339425 0.0778111 -0.80599
10 3.71348 -0.102641 0.102191 1.55999 0.645291 0.0798625
11 1.72615 0 0 0.0194279 -0.0124617 -1.02549
12 1.21114 0 0 -0.00915481 0.0139676 -1.15628
13 3.59919 -1.06012 0.0708882 1.53849 0.357879 -0.138954
14 1.66069 0 0 -0.00234034 0.0720157 -0.267084
15 1.16699 0 0 -0.0212856 0.0283246 -0.23815
16 2.18853 0.50104 0.0576588 1.55917 0.137051 0.146564
17 1.29609 0 0 0.00533152 -0.0465293 -0.302891
18 1.62202 0.000713348 -0.000471115 0.0228114 -0.0295792 -1.0902
19 1.22241 0 0 0.00650226 0.000457292 -1.08964
20 1.76707 1.27612 0.0366409 1.55741 0.17263 0.0984098
21 1.55587 0 0 -0.0150433 -0.0389028 -0.183922
22 1.24273 0 0 -0.000479228 0.00036051 -0.237287
23 0.784523 0 0 0.00416577 0.0145277 -1.01407
24 2.01306 0.806315 -13.2419 -0.000932693 0 -2.00317
25 6.02794 0 0 1.4015 0.429798 0.587797
26 11.7344 0 0 0.00140273 0 1.16476
27 8.81167 0 0 0.355593 0 0
28 5.77884 0 0 0.238247 0 0
29 2.23249 0 0 0.117346 0 0
30 11.4725 0 0 0.375729 -0.0631526 -0.223698
31 0.615812 0.994371 -0.809166 -2.97025 0.377536 0.373134
32 2.24752 0 0 -0.0863609 0.0306542 0.18756
33 1.11936 0 0 -0.129536 0.16338 -0.247734
34 3.71348 0.102638 0.102191 -1.57338 1.20801 -0.0947639
35 1.72615 0 0 -0.0140041 -0.00309801 1.06922
36 1.21112 0 0 0.00907726 0.0151213 1.87168
37 3.5992 1.06012 0.0708876 -1.7608 1.02808 -0.234437
38 1.66069 0 0 0.0535004 0.0663869 0.806995
39 1.16699 0 0 -0.0256994 0.00585793 1.96948
40 2.18853 -0.501041 0.0576591 -1.57144 0.106396 -0.0540189
41 1.29609 0 0 0.0966379 0.0743868 0.990738
42 1.62202 -0.000715256 -0.000469208 -0.00454884 -0.0311579 1.37171
43 1.22241 0 0 0.0245549 0.0111942 1.72151
44 1.76707 -1.27612 0.0366406 -1.54714 0.313946 0.0233513
45 1.55588 0 0 0.240314 -0.0114011 1.10726
46 1.24273 0 0 0.000478827 -0.000351905 1.02076
47 0.784534 0 0 0.00744983 -0.00523569 1.65775
48 0 0 0 0 0 0
49 5.92584 -19.529 -9.53196 -0.0280631 -0.0212827 0.000839142
50 0 0.175505 4.39833 0 0 0
51 -0.243587 0.175508 5.00562 0 0 0
52 -8.98651 -15.2233 -5.2717 0 0 0
53 14.8208 -3.68727 0.0171337 -0.0280631 -0.0212827 0.000839142
54 0 -0.0303936 1.6467 0 0 0
55 0 -2.3184 2.62787 0 0 0
56 0 -2.34128 -0.129979 0 0 0
57 0 10.015 0.00570393 0 0 0
58 0 0.899643 -0.657643 0 0 0
59 0 -6.47112 1.19749 0 -0.00713195 0
60 0 -0.221876 -1.53505 -0.119026 -0.0011473 -0.00303437
61 0 0.174826 -0.766596 0.206122 0.00532776 -0.0027935
62 0 0 -0.605335 0 0 0
63 0 -0.0467014 -0.715623 0 0 0
64 0 -0.077261 -1.03217 0 0 0
65 0 0.00226784 -1.16841 0 0 0
time 11
0 5.56284 9.62242 -3.17563 0.000934124 0 -1.04975
1 6.02794 0 0 -0.953877 0.634985 -0.355469
2 11.7344 0 0 -0.0014028 0 -1.02579
3 8.81138 -0.000450134 -0.00011158 -0.175757 0 0.000158211
4 5.77839 0.000286102 0 -0.117757 0 0.000105219
5 2.23163 -0.000329971 -0.000364304 -0.0579998 0 0
6 11.4725 0 0 -0.42846 -0.451746 0.552524
7 0.615219 -0.993092 -0.8107 3.07196 0.47568 -0.191083
8 2.24752 0 0 0.0893814 0.100772 -0.129849
9 1.11936 0 0 0.0339425 0.0778113 -0.80599
10 3.71348 -0.102641 0.10219 1.55999 0.645291 0.0798624
11 1.72615 0 0 0.0194279 -0.0124616 -1.02549
12 1.21114 0 0 -0.00915481 0.0139676 -1.15628
13 3.59919 -1.06012 0.0708871 1.53849 0.357878 -0.138954
14 1.66069 0 0 -0.00234033 0.0720157 -0.267084
15 1.167 0 0 -0.0212856 0.0283246 -0.23815
16 2.18852 0.501039 0.0576584 1.55917 0.13705 0.146564
17 1.29609 0 0 0.00533153 -0.0465293 -0.302891
18 1.62202 0.000714302 -0.000471115 0.0228114 -0.0295792 -1.0902
19 1.22241 0 0 0.00650225 0.000457285 -1.08964
20 1.76707 1.27612 0.03664 1.55741 0.17263 0.0984097
21 1.55588 0 0 -0.0150433 -0.0389028 -0.183922
22 1.24274 0 0 -0.000479223 0.000360525 -0.237287
23 0.784523 0 0 0.00416578 0.0145277 -1.01407
24 2.01306 0.806315 -13.2419 -0.000932693 0 -2.00317
25 6.02794 0 0 1.40064 0.443934 0.582603
26 11.7344 0 0 0.00140257 0 1.19247
27 8.81167 0 0 0.342044 0 0
28 5.77884 0 0 0.22917 0 0
29 2.23249 0 0 0.112875 0 0
30 11.4725 0 0 0.363991 -0.0486202 -0.260338
31 0.615812 0.994373 -0.809165 -2.97025 0.377536 0.373134
32 2.24752 0 0 -0.0863609 0.0306543 0.18756
33 1.11936 0 0 -0.129536 0.16338 -0.247734
34 3.71349 0.102642 0.10219 -1.57338 1.20801 -0.0947642
35 1.72615 0 0 -0.0140041 -0.00309805 1.06922
36 1.21112 0 0 0.00907735 0.0151213 1.87168
37 3.5992 1.06012 0.0708876 -1.7608 1.02808 -0.234437
38 1.66069 0 0 0.0535005 0.0663869 0.806995
39 1.16699 0 0 -0.0256995 0.00585795 1.96948
40 2.18853 -0.50104 0.0576591 -1.57144 0.106396 -0.0540188
41 1.29609 0 0 0.0966379 0.0743869 0.990738
42 1.62202 -0.000711441 -0.000473022 -0.00454887 -0.0311579 1.37171
43 1.2224 0 0 0.0245549 0.0111942 1.72151
44 1.76707 -1.27612 0.0366411 -1.54714 0.313946 0.0233515
45 1.55588 0 0 0.240314 -0.0114011 1.10726
46 1.24273 0 0 0.000478804 -0.000351854 1.02076
47 0.784531 0 0 0.0074498 -0.00523566 1.65775
48 0 0 0 0 0 0
49 5.9156 -19.5223 -9.60644 -0.0176292 -0.00973973 0.00058385
50 0 0.175505 4.39833 0 0 0
51 -0.243588 0.175507 5.00562 0 0 0
52 -8.98651 -15.2233 -5.2717 0 0 0
53 14.86 -3.72514 -0.0503573 -0.0176292 -0.00973973 0.00058385
54 0 -0.0303917 1.6467 0 0 0
55 0 -2.3184 2.62787 0 0 0
56 0 -2.34127 -0.129979 0 0 0
57 0 10.015 0.00570393 0 0 0
58 0 0.899642 -0.657644 0 0 0
59 0 -6.47111 1.19749 0 0.00264284 0
60 0 -0.221874 -1.53505 0.00682042 -0.000420308 -0.00111168
61 0 0.174824 -0.766595 0.0901719 0.00500383 -0.0042758
62 0 0 -0.605335 0 0 0
63 0 -0.0467014 -0.715623 0 0 0
64 0 -0.0772591 -1.03217 0 0 0
65 0 0.00226593 -1.16841 0 0 0
time 12
0 5.56284 9.62242 -3.17563 0.000934124 0 -1.04975
1 6.02794 0 0 -0.953902 0.635087 -0.355202
2 11.7344 0 0 -0.00140282 0 -1.02522
3 8.81139 -0.000450134 -0.000111103 -0.186909 0 0.000158109
4 5.77839 0.000286102 0 -0.125229 0 0.000105111
5 2.23163 -0.000329971 -0.000364304 -0.0616798 0 0
6 11.4725 0 0 -0.444708 -0.441814 0.569358
7 0.615219 -0.993091 -0.8107 3.07196 0.47568 -0.191083
8 2.24752 0 0 0.0893818 0.100772 -0.129849
9 1.11936 0 0 0.0339423 0.077811 -0.80599
10 3.71348 -0.102641 0.102191 1.55999 0.645291 0.0798626
11 1.72615 0 0 0.0194279 -0.0124617 -1.02549
12 1.21114 0 0 -0.00915482 0.0139676 -1.15628
13 3.59919 -1.06012 0.0708878 1.53849 0.357878 -0.138954
14 1.66069 0 0 -0.00234033 0.0720157 -0.267084
15 1.167 0 0 -0.0212855 0.0283246 -0.23815
16 2.18853 0.50104 0.0576589 1.55917 0.137051 0.146564
17 1.29609 0 0 0.0053315 -0.0465293 -0.302891
18 1.62202 0.000714302 -0.000471592 0.0228114 -0.0295791 -1.0902
19 1.22241 0 0 0.00650223 0.000457278 -1.08964
20 1.76707 1.27612 0.0366406 1.55741 0.17263 0.0984099
21 1.55588 0 0 -0.0150433 -0.0389027 -0.183922
22 1.24274 0 0 -0.000479208 0.000360527 -0.237287
23 0.784523 0 0 0.00416578 0.0145277 -1.01407
24 2.01306 0.806315 -13.2419 -0.000932693 0 -2.00317
25 6.02794 0 0 1.39968 0.458768 0.57716
26 11.7344 0 0 0.00140258 0 1.22406
27 8.81167 0 0 0.330714 0 0
28 5.77884 0 0 0.221578 0 0
29 2.23249 0 0 0.109136 0 0
30 11.4725 0 0 0.35601 -0.0332318 -0.315881
31 0.615814 0.994373 -0.809165 -2.97025 0.377536 0.373134
32 2.24752 0 0 -0.086361 0.0306541 0.18756
33 1.11936 0 0 -0.129536 0.16338 -0.247734
34 3.71349 0.102638 0.102191 -1.57338 1.20801 -0.0947636
35 1.72615 0 0 -0.0140041 -0.003098 1.06922
36 1.21112 0 0 0.00907727 0.0151212 1.87168
37 3.5992 1.06012 0.0708885 -1.7608 1.02808 -0.234437
38 1.66069 0 0 0.0535003 0.0663869 0.806995
39 1.16699 0 0 -0.0256995 0.00585794 1.96948
40 2.18853 -0.501041 0.0576587 -1.57144 0.106396 -0.0540187
41 1.29609 0 0 0.0966379 0.0743869 0.990738
42 1.62202 -0.000713348 -0.000471115 -0.00454885 -0.0311579 1.37171
43 1.22241 0 0 0.0245549 0.0111942 1.72151
44 1.76707 -1.27612 0.0366416 -1.54714 0.313946 0.0233513
45 1.55588 0 0 0.240314 -0.0114011 1.10726
46 1.24273 0 0 0.000478864 -0.000351839 1.02076
47 0.784527 0 0 0.00744979 -0.00523567 1.65775
48 0 0 0 0 0 0
49 5.8911 -19.4879 -9.67667 -0.00215167 0.00387991 0.000651241
50 0 0.175507 4.39833 0 0 0
51 -0.243587 0.175507 5.00562 0 0 0
52 -8.98651 -15.2233 -5.2717 0 0 0
53 14.8939 -3.75708 -0.112047 -0.00215167 0.00387991 0.000651241
54 0 -0.0303898 1.6467 0 0 0
55 0 -2.3184 2.62787 0 0 0
56 0 -2.34127 -0.129979 0 0 0
57 0 10.015 0.00570393 0 0 0
58 0 0.899644 -0.657643 0 0 0
59 0 -6.47112 1.19749 0 0.0116989 0
60 0 -0.221874 -1.53505 0.0759176 0 0
61 0 0.174826 -0.766596 0.0419603 0.00408613 -0.00412694
62 0 0 -0.605335 0 0 0
63 0 -0.0467014 -0.715623 0 0 0
64 0 -0.0772591 -1.03217 0 0 0
65 0 0.00226402 -1.16841 0 0 0
time 13
0 5.56284 9.62242 -3.17563 0.000934124 0 -1.04975
1 6.02794 0 0 -0.954765 0.634392 -0.354689
2 11.7344 0 0 -0.00140288 0 -1.02339
3 8.81138 -0.000450134 -0.000112534 -0.18263 0 0.000158213
4 5.77839 0.000286102 0 -0.122362 0 0.000105193
5 2.23163 -0.000329971 -0.00036335 -0.0602679 0 0
6 11.4725 0 0 -0.443112 -0.434533 0.578092
7 0.615219 -0.993092 -0.8107 3.07196 0.47568 -0.191083
8 2.24752 0 0 0.0893819 0.100772 -0.129848
9 1.11936 0 0 0.0339425 0.0778111 -0.80599
10 3.71348 -0.102642 0.102191 1.55999 0.645291 0.0798625
11 1.72615 0 0 0.0194279 -0.0124616 -1.02549
12 1.21114 0 0 -0.00915479 0.0139676 -1.15628
13 3.59919 -1.06012 0.0708883 1.53849 0.357878 -0.138954
14 1.66069 0 0 -0.00234032 0.0720157 -0.267083
15 1.16699 0 0 -0.0212855 0.0283246 -0.23815
16 2.18853 0.50104 0.0576593 1.55917 0.13705 0.146564
17 1.29609 0 0 0.00533151 -0.0465293 -0.302891
18 1.62201 0.000713348 -0.000471592 0.0228114 -0.0295792 -1.0902
19 1.22241 0 0 0.00650224 0.000457279 -1.08964
20 1.76707 1.27612 0.0366411 1.55741 0.17263 0.0984098
21 1.55588 0 0 -0.0150433 -0.0389028 -0.183922
22 1.24273 0 0 -0.000479199 0.000360513 -0.237287
23 0.784523 0 0 0.00416575 0.0145277 -1.01407
24 2.01306 0.806315 -13.2419 -0.000932693 0 -2.00317
25 6.02794 0 0 1.39883 0.468006 0.575804
26 11.7344 0 0 0.00140273 0 1.23952
27 8.81167 0 0 0.330136 0 0
28 5.77884 0 0 0.221191 0 0
29 2.23249 0 0 0.108945 0 0
30 11.4725 0 0 0.35876 -0.0294231 -0.34766
31 0.615814 0.994373 -0.809165 -2.97025 0.377536 0.373134
32 2.24752 0 0 -0.086361 0.0306541 0.18756
33 1.11936 0 0 -0.129536 0.16338 -0.247734
34 3.71349 0.102642 0.10219 -1.57338 1.20801 -0.0947639
35 1.72615 0 0 -0.0140041 -0.00309797 1.06922
36 1.21112 0 0 0.00907722 0.0151213 1.87168
37 3.59921 1.06012 0.070889 -1.7608 1.02808 -0.234437
38 1.66069 0 0 0.0535003 0.0663869 0.806995
39 1.16699 0 0 -0.0256994 0.00585792 1.96948
40 2.18854 -0.50104 0.0576587 -1.57144 0.106396 -0.0540188
41 1.29609 0 0 0.0966379 0.0743869 0.990738
42 1.62202 -0.000711441 -0.000471115 -0.00454888 -0.0311579 1.37171
43 1.2224 0 0 0.0245549 0.0111943 1.72151
44 1.76707 -1.27612 0.0366416 -1.54714 0.313946 0.0233514
45 1.55587 0 0 0.240314 -0.011401 1.10726
46 1.24273 0 0 0.000478812 -0.000351931 1.02076
47 0.784531 0 0 0.00744979 -0.00523569 1.65775
48 0 0 0 0 0 0
49 5.92011 -19.4711 -9.72994 0.0102338 0.00199668 0.000398741
50 0 0.175507 4.39833 0 0 0
51 -0.243587 0.175507 5.00562 0 0 0
52 -8.98651 -15.2233 -5.2717 0 0 0
53 14.915 -3.79351 -0.159338 0.0102338 0.00199668 0.000398741
54 0 -0.0303917 1.64671 0 0 0
55 0 -2.3184 2.62787 0 0 0
56 0 -2.34127 -0.129979 0 0 0
57 0 10.015 0.00570345 0 0 0
58 0 0.899643 -0.657643 0 0 0
59 0 -6.47112 1.19749 0 0.019767 0
60 0 -0.221874 -1.53505 0.0964631 0.000172521 0.000456191
61 0 0.174824 -0.766596 0.0345703 0.00269389 -0.00286667
62 0 0 -0.605335 0 0 0
63 0 -0.0467052 -0.715624 0 0 0
64 0 -0.0772572 -1.03217 0 0 0
65 0 0.00226593 -1.16841 0 0 0
time 14
0 5.56284 9.62242 -3.17563 0.000934124 0 -1.04975
1 6.02794 0 0 -0.955723 0.632876 -0.355636
2 11.7344 0 0 -0.00140287 0 -1.0156
3 8.81138 -0.000450134 -0.000112534 -0.181146 0 0.000158207
4 5.77839 0.000286102 0 -0.121368 0 0.000105167
5 2.23163 -0.000329971 -0.000363827 -0.0597782 0 0
6 11.4725 0 0 -0.436218 -0.435381 0.568185
7 0.615219 -0.993091 -0.810701 3.07196 0.475681 -0.191083
8 2.24752 0 0 0.0893818 0.100772 -0.129848
9 1.11936 0 0 0.0339425 0.0778111 -0.80599
10 3.71348 -0.102641 0.102191 1.55999 0.645291 0.0798626
11 1.72615 0 0 0.0194279 -0.0124617 -1.02549
12 1.21114 0 0 -0.00915481 0.0139676 -1.15628
13 3.59919 -1.06012 0.0708876 1.53849 0.357878 -0.138954
14 1.66069 0 0 -0.00234032 0.0720157 -0.267084
15 1.167 0 0 -0.0212855 0.0283246 -0.23815
16 2.18852 0.50104 0.0576586 1.55917 0.13705 0.146564
17 1.29609 0 0 0.00533152 -0.0465293 -0.302891
18 1.62202 0.000714302 -0.000471592 0.0228114 -0.0295792 -1.0902
19 1.22241 0 0 0.00650225 0.000457293 -1.08964
20 1.76707 1.27612 0.0366408 1.55741 0.17263 0.0984098
21 1.55587 0 0 -0.0150433 -0.0389028 -0.183922
22 1.24274 0 0 -0.000479207 0.000360512 -0.237287
23 0.784521 0 0 0.00416574 0.0145277 -1.01407
24 2.01306 0.806315 -13.2419 -0.000932693 0 -2.00317
25 6.02794 0 0 1.39891 0.467738 0.575363
26 11.7344 0 0 0.00140258 0 1.23799
27 8.81167 0 0 0.331876 0 0
28 5.77884 0 0 0.222357 0 0
29 2.23249 0 0 0.109519 0 0
30 11.4725 0 0 0.360829 -0.0280006 -0.352457
31 0.615812 0.994373 -0.809165 -2.97025 0.377536 0.373134
32 2.24752 0 0 -0.086361 0.0306542 0.187559
33 1.11936 0 0 -0.129536 0.16338 -0.247734
34 3.71349 0.102638 0.102191 -1.57338 1.20801 -0.0947636
35 1.72615 0 0 -0.014004 -0.00309805 1.06922
36 1.21112 0 0 0.00907726 0.0151213 1.87168
37 3.5992 1.06012 0.0708885 -1.7608 1.02808 -0.234437
38 1.66069 0 0 0.0535003 0.0663869 0.806995
39 1.16699 0 0 -0.0256994 0.005858 1.96948
40 2.18853 -0.501041 0.0576591 -1.57144 0.106396 -0.0540189
41 1.29609 0 0 0.0966379 0.0743869 0.990738
42 1.62202 -0.000713348 -0.000471115 -0.00454891 -0.0311579 1.37171
43 1.22241 0 0 0.0245549 0.0111942 1.72151
44 1.76707 -1.27612 0.0366411 -1.54714 0.313946 0.0233512
45 1.55588 0 0 0.240314 -0.011401 1.10726
46 1.24273 0 0 0.000478846 -0.000351901 1.02076
47 0.784529 0 0 0.0074498 -0.00523563 1.65775
48 0 0 0 0 0 0
49 5.95449 -19.5151 -9.76561 0.00828701 -0.00381874 -0.000454874
50 0 0.175507 4.39832 0 0 0
51 -0.243587 0.175507 5.00562 0 0 0
52 -8.98651 -15.2233 -5.2717 0 0 0
53 14.9248 -3.82919 -0.195926 0.00828701 -0.00381874 -0.000454874
54 0 -0.0303936 1.6467 0 0 0
55 0 -2.3184 2.62787 0 0 0
56 0 -2.34127 -0.129979 0 0 0
57 0 10.015 0.00570393 0 0 0
58 0 0.899643 -0.657643 0 0 0
59 0 -6.47112 1.19749 0 0.0272081 0
60 0 -0.221876 -1.53505 0.0953014 0.000253486 0.000670321
61 0 0.174822 -0.766596 0.0440396 0.00120567 -0.00124203
62 0 0 -0.605335 0 0 0
63 0 -0.0467033 -0.715622 0 0 0
64 0 -0.0772591 -1.03217 0 0 0
65 0 0.00226593 -1.16841 0 0 0
time 15
0 5.56284 9.62242 -3.17563 0.000934124 0 -1.04975
1 6.02794 0 0 -0.955983 0.63155 -0.357759
2 11.7344 0 0 -0.00140291 0 -1.00541
3 8.81138 -0.000449181 -0.00011158 -0.193674 0 0.000157946
4 5.77839 0.000287056 0 -0.129762 0 0.00010493
5 2.23163 -0.000329018 -0.00036335 -0.0639125 0 0
6 11.4725 0 0 -0.439272 -0.439685 0.551189
7 0.615219 -0.993092 -0.8107 3.07196 0.475681 -0.191084
8 2.24752 0 0 0.0893817 0.100772 -0.129849
9 1.11936 0 0 0.0339425 0.0778112 -0.80599
10 3.71348 -0.102641 0.10219 1.55999 0.645291 0.0798626
11 1.72615 0 0 0.0194279 -0.0124617 -1.02549
12 1.21114 0 0 -0.00915479 0.0139676 -1.15628
13 3.59919 -1.06012 0.0708879 1.53849 0.357879 -0.138954
14 1.66069 0 0 -0.00234029 0.0720157 -0.267084
15 1.167 0 0 -0.0212855 0.0283246 -0.23815
16 2.18852 0.50104 0.0576587 1.55917 0.137051 0.146564
17 1.29609 0 0 0.00533151 -0.0465293 -0.302891
18 1.62201 0.000713348 -0.000470161 0.0228114 -0.0295791 -1.0902
19 1.22241 0 0 0.00650224 0.000457285 -1.08964
20 1.76707 1.27612 0.0366412 1.55741 0.17263 0.0984098
21 1.55588 0 0 -0.0150433 -0.0389028 -0.183922
22 1.24273 0 0 -0.000479221 0.00036051 -0.237287
23 0.784523 0 0 0.00416578 0.0145277 -1.01407
24 2.01306 0.806315 -13.2419 -0.000932693 0 -2.00317
25 6.02794 0 0 1.40004 0.46036 0.572236
26 11.7344 0 0 0.00140278 0 1.21875
27 8.81167 0 0 0.325974 0 0
28 5.77884 0 0 0.218402 0 0
29 2.23249 0 0 0.107571 0 0
30 11.4725 0 0 0.347732 -0.0203974 -0.317605
31 0.615812 0.994373 -0.809165 -2.97025 0.377536 0.373134
32 2.24752 0 0 -0.086361 0.0306543 0.18756
33 1.11936 0 0 -0.129536 0.16338 -0.247734
34 3.71349 0.10264 0.10219 -1.57338 1.20801 -0.0947635
35 1.72615 0 0 -0.0140041 -0.00309799 1.06922
36 1.21112 0 0 0.00907729 0.0151213 1.87168
37 3.5992 1.06012 0.0708885 -1.7608 1.02808 -0.234437
38 1.66069 0 0 0.0535003 0.0663869 0.806995
39 1.16699 0 0 -0.0256995 0.0058579 1.96948
40 2.18853 -0.50104 0.0576591 -1.57144 0.106396 -0.0540188
41 1.29609 0 0 0.0966379 0.0743869 0.990738
42 1.62202 -0.000713348 -0.000469208 -0.00454886 -0.0311579 1.37171
43 1.22241 0 0 0.0245549 0.0111943 1.72151
44 1.76707 -1.27612 0.0366411 -1.54714 0.313946 0.0233514
45 1.55587 0 0 0.240314 -0.011401 1.10726
46 1.24273 0 0 0.000478834 -0.000351923 1.02076
47 0.784531 0 0 0.00744983 -0.00523573 1.65775
48 0 0 0 0 0 0
49 5.94462 -19.5841 -9.7949 -0.00192425 -0.000238728 -0.00181586
50 0 0.175507 4.39833 0 0 0
51 -0.243587 0.175507 5.00562 0 0 0
52 -8.98651 -15.2233 -5.2717 0 0 0
53 14.931 -3.8543 -0.230129 -0.00192425 -0.000238728 -0.00181586
54 0 -0.0303936 1.6467 0 0 0
55 0 -2.3184 2.62787 0 0 0
56 0 -2.34128 -0.129979 0 0 0
57 0 10.015 0.00570393 0 0 0
58 0 0.899643 -0.657644 0 0 0
59 0 -6.47112 1.19749 0 0.0343094 0
60 0 -0.221872 -1.53505 0.0781322 0.000264043 0.000698251
61 0 0.174826 -0.766595 0.0464057 0 0
62 0 0 -0.605335 0 0 0
63 0 -0.0467014 -0.715623 0 0 0
64 0 -0.0772591 -1.03217 0 0 0
65 0 0.00226402 -1.16841 0 0 0
time 16
0 5.56284 9.62242 -3.17563 0.000934124 0 -1.04975
1 6.02794 0 0 -0.956059 0.63064 -0.359449
2 11.7344 0 0 -0.00140291 0 -0.997386
3 8.81138 -0.000450134 -0.00011301 -0.204921 0 0.000158353
4 5.77839 0.000286102 0 -0.137297 0 0.000105158
5 2.23163 -0.000329018 -0.000364304 -0.067624 0 0
6 11.4725 0 0 -0.442784 -0.44285 0.537872
7 0.615221 -0.993091 -0.8107 3.07196 0.47568 -0.191083
8 2.24752 0 0 0.0893817 0.100772 -0.129848
9 1.11936 0 0 0.0339424 0.0778113 -0.80599
10 3.71348 -0.10264 0.102191 1.55999 0.645291 0.0798626
11 1.72615 0 0 0.0194279 -0.0124617 -1.02549
12 1.21114 0 0 -0.00915479 0.0139676 -1.15628
13 3.59919 -1.06012 0.0708882 1.53849 0.357878 -0.138954
14 1.66069 0 0 -0.00234033 0.0720157 -0.267084
15 1.167 0 0 -0.0212856 0.0283246 -0.23815
16 2.18853 0.50104 0.057659 1.55917 0.13705 0.146564
17 1.29609 0 0 0.00533153 -0.0465293 -0.302891
18 1.62202 0.000713348 -0.000470161 0.0228114 -0.0295792 -1.0902
19 1.22241 0 0 0.00650224 0.000457275 -1.08964
20 1.76707 1.27612 0.036641 1.55741 0.17263 0.0984098
21 1.55588 0 0 -0.0150433 -0.0389028 -0.183922
22 1.24274 0 0 -0.000479223 0.000360495 -0.237287
23 0.784523 0 0 0.00416576 0.0145277 -1.01407
24 2.01306 0.806315 -13.2419 -0.000932693 0 -2.00317
25 6.02794 0 0 1.40139 0.450759 0.569082
26 11.7344 0 0 0.0014027 0 1.18816
27 8.81167 0 0 0.31759 0 0
28 5.77884 0 0 0.212786 0 0
29 2.23249 0 0 0.104805 0 0
30 11.4725 0 0 0.330361 -0.0124126 -0.255157
31 0.61581 0.994371 -0.809166 -2.97025 0.377536 0.373134
32 2.24752 0 0 -0.086361 0.0306542 0.18756
33 1.11936 0 0 -0.129536 0.16338 -0.247734
34 3.71349 0.102638 0.102191 -1.57338 1.20801 -0.0947638
35 1.72615 0 0 -0.0140041 -0.003098 1.06922
36 1.21112 0 0 0.00907723 0.0151213 1.87168
37 3.5992 1.06012 0.0708876 -1.7608 1.02808 -0.234437
38 1.66069 0 0 0.0535004 0.0663869 0.806995
39 1.16699 0 0 -0.0256994 0.00585798 1.96948
40 2.18853 -0.50104 0.0576587 -1.57144 0.106396 -0.0540188
41 1.29609 0 0 0.0966379 0.0743869 0.990738
42 1.62202 -0.000711441 -0.000469208 -0.00454884 -0.0311579 1.37171
43 1.22241 0 0 0.0245549 0.0111942 1.72151
44 1.76707 -1.27612 0.0366411 -1.54714 0.313946 0.0233514
45 1.55587 0 0 0.240314 -0.011401 1.10726
46 1.24273 0 0 0.00047892 -0.000351922 1.02076
47 0.784531 0 0 0.00744984 -0.00523562 1.65775
48 0 0 0 0 0 0
49 5.93196 -19.6366 -9.82082 -0.00995531 0.00360902 -0.00316807
50 0 0.175507 4.39833 0 0 0
51 -0.243587 0.175505 5.00562 0 0 0
52 -8.98651 -15.2233 -5.2717 0 0 0
53 14.9357 -3.87238 -0.260292 -0.00995531 0.00360902 -0.00316807
54 0 -0.0303898 1.6467 0 0 0
55 0 -2.3184 2.62787 0 0 0
56 0 -2.34127 -0.129979 0 0 0
57 0 10.015 0.00570393 0 0 0
58 0 0.899643 -0.657643 0 0 0
59 0 -6.47111 1.19749 0 0.040692 0
60 0 -0.221874 -1.53505 0.0506552 0.000225323 0.000595841
61 0 0.174824 -0.766596 0.0378586 -0.000788367 0.000673661
62 0 0 -0.605336 0 0 0
63 0 -0.0467052 -0.715622 0 0 0
64 0 -0.0772591 -1.03217 0 0 0
65 0 0.00226402 -1.16841 0 0 0
time 17
0 5.56284 9.62242 -3.17563 0.000934124 0 -1.04975
1 6.02794 0 0 -0.956256 0.630208 -0.359885
2 11.7344 0 0 -0.00140279 0 -0.993465
3 8.81139 -0.000449181 -0.00011301 -0.206556 0 0.000157665
4 5.77839 0.000286102 0 -0.138392 0 0.000104694
5 2.23164 -0.000329018 -0.000364304 -0.0681635 0 0
6 11.4725 0 0 -0.441222 -0.443059 0.532523
7 0.615221 -0.993092 -0.8107 3.07196 0.475681 -0.191083
8 2.24752 0 0 0.0893818 0.100772 -0.129848
9 1.11936 0 0 0.0339423 0.0778112 -0.80599
10 3.71348 -0.102641 0.102192 1.55999 0.645291 0.0798626
11 1.72615 0 0 0.0194279 -0.0124617 -1.02549
12 1.21114 0 0 -0.00915481 0.0139676 -1.15628
13 3.59919 -1.06012 0.0708886 1.53849 0.357878 -0.138954
14 1.66069 0 0 -0.00234033 0.0720157 -0.267084
15 1.167 0 0 -0.0212855 0.0283246 -0.238149
16 2.18853 0.50104 0.0576591 1.55917 0.13705 0.146564
17 1.29609 0 0 0.00533153 -0.0465293 -0.302891
18 1.62202 0.000714302 -0.000470638 0.0228114 -0.0295792 -1.0902
19 1.22241 0 0 0.00650224 0.000457275 -1.08964
20 1.76707 1.27612 0.0366412 1.55741 0.17263 0.0984099
21 1.55588 0 0 -0.0150433 -0.0389028 -0.183922
22 1.24273 0 0 -0.000479228 0.000360532 -0.237287
23 0.784523 0 0 0.00416579 0.0145277 -1.01407
24 2.01306 0.806315 -13.2419 -0.000932693 0 -2.00317
25 6.02794 0 0 1.40231 0.443243 0.567652
26 11.7344 0 0 0.00140259 0 1.15867
27 8.81167 0 0 0.311634 0 0
28 5.77884 0 0 0.208795 0 0
29 2.23249 0 0 0.102839 0 0
30 11.4725 0 0 0.318618 -0.00805164 -0.193945
31 0.615813 0.994373 -0.809165 -2.97025 0.377536 0.373134
32 2.24752 0 0 -0.086361 0.0306541 0.18756
33 1.11936 0 0 -0.129536 0.16338 -0.247734
34 3.71349 0.102642 0.102191 -1.57338 1.20801 -0.0947637
35 1.72615 0 0 -0.0140041 -0.003098 1.06922
36 1.21112 0 0 0.00907726 0.0151213 1.87168
37 3.5992 1.06012 0.070889 -1.7608 1.02808 -0.234437
38 1.66069 0 0 0.0535003 0.0663869 0.806995
39 1.16699 0 0 -0.0256995 0.00585798 1.96948
40 2.18853 -0.501038 0.0576591 -1.57144 0.106396 -0.0540187
41 1.29609 0 0 0.0966379 0.0743869 0.990738
42 1.62202 -0.000711441 -0.000469208 -0.00454888 -0.0311579 1.37171
43 1.22241 0 0 0.0245549 0.0111942 1.72151
44 1.76707 -1.27612 0.0366421 -1.54714 0.313946 0.0233514
45 1.55587 0 0 0.240314 -0.0114011 1.10726
46 1.24273 0 0 0.00047885 -0.000351863 1.02076
47 0.784531 0 0 0.00744983 -0.0052357 1.65775
48 0 0 0 0 0 0
49 5.94148 -19.657 -9.84457 -0.0113077 0.00245371 -0.00399534
50 0 0.175508 4.39833 0 0 0
51 -0.243588 0.175507 5.00562 0 0 0
52 -8.98651 -15.2233 -5.2717 0 0 0
53 14.9407 -3.88697 -0.284756 -0.0113077 0.00245371 -0.00399534
54 0 -0.0303936 1.64671 0 0 0
55 0 -2.3184 2.62787 0 0 0
56 0 -2.34128 -0.129979 0 0 0
57 0 10.015 0.0057044 0 0 0
58 0 0.899643 -0.657643 0 0 0
59 0 -6.47112 1.19749 0 0.0459767 0
60 0 -0.221876 -1.53505 0.0185702 0.000158432 0.000418951
61 0 0.174824 -0.766596 0.0304966 -0.00130308 0.00111349
62 0 0 -0.605336 0 0 0
63 0 -0.0467033 -0.715623 0 0 0
64 0 -0.0772591 -1.03217 0 0 0
65 0 0.00226784 -1.16841 0 0 0
time 18
0 5.56284 9.62242 -3.17563 0.000934124 0 -1.04975
1 6.02794 0 0 -0.956376 0.630111 -0.359807
2 11.7344 0 0 -0.00140282 0 -0.992316
3 8.81138 -0.000450134 -0.000112534 -0.205744 0 0.000157836
4 5.77839 0.000286102 0 -0.137848 0 0.000104877
5 2.23163 -0.000329971 -0.00036478 -0.0678955 0 0
6 11.4725 0 0 -0.440343 -0.442131 0.532822
7 0.615219 -0.993091 -0.8107 3.07196 0.475681 -0.191084
8 2.24752 0 0 0.0893816 0.100772 -0.129849
9 1.11936 0 0 0.0339425 0.0778112 -0.80599
10 3.71348 -0.10264 0.10219 1.55999 0.645291 0.0798624
11 1.72615 0 0 0.0194279 -0.0124617 -1.02549
12 1.21114 0 0 -0.00915479 0.0139676 -1.15628
13 3.59919 -1.06012 0.070888 1.53849 0.357879 -0.138954
14 1.66069 0 0 -0.00234031 0.0720157 -0.267084
15 1.167 0 0 -0.0212855 0.0283246 -0.23815
16 2.18852 0.50104 0.0576586 1.55917 0.13705 0.146564
17 1.29609 0 0 0.00533154 -0.0465293 -0.302891
18 1.62202 0.000713348 -0.000471115 0.0228114 -0.0295792 -1.09019
19 1.22241 0 0 0.00650225 0.000457288 -1.08964
20 1.76707 1.27612 0.036641 1.55741 0.17263 0.0984097
21 1.55588 0 0 -0.0150433 -0.0389028 -0.183922
22 1.24273 0 0 -0.000479226 0.000360517 -0.237287
23 0.784525 0 0 0.00416578 0.0145277 -1.01407
24 2.01306 0.806315 -13.2419 -0.000932693 0 -2.00317
25 6.02794 0 0 1.40305 0.436745 0.566903
26 11.7344 0 0 0.00140253 0 1.13237
27 8.81167 0 0 0.305923 0 0
28 5.77884 0 0 0.204968 0 0
29 2.23249 0 0 0.100954 0 0
30 11.4725 0 0 0.309259 -0.00396075 -0.139932
31 0.615811 0.994373 -0.809165 -2.97025 0.377536 0.373134
32 2.24752 0 0 -0.086361 0.0306541 0.18756
33 1.11936 0 0 -0.129536 0.16338 -0.247734
34 3.71349 0.10264 0.10219 -1.57338 1.20801 -0.094764
35 1.72615 0 0 -0.0140041 -0.00309798 1.06922
36 1.21112 0 0 0.0090772 0.0151213 1.87168
37 3.5992 1.06012 0.070888 -1.7608 1.02808 -0.234438
38 1.66069 0 0 0.0535004 0.0663869 0.806995
39 1.16699 0 0 -0.0256995 0.00585793 1.96948
40 2.18853 -0.50104 0.0576582 -1.57144 0.106396 -0.0540188
41 1.29609 0 0 0.0966379 0.0743869 0.990738
42 1.62202 -0.000713348 -0.000469208 -0.00454891 -0.0311579 1.37171
43 1.22241 0 0 0.0245549 0.0111942 1.72151
44 1.76707 -1.27612 0.0366411 -1.54714 0.313946 0.0233513
45 1.55588 0 0 0.240314 -0.011401 1.10726
46 1.24273 0 0 0.000478827 -0.000351905 1.02076
47 0.784533 0 0 0.00744977 -0.00523569 1.65775
48 0 0 0 0 0 0
49 5.95134 -19.6581 -9.86147 -0.00946312 0.00154369 -0.00397214
50 0 0.175507 4.39833 0 0 0
51 -0.243587 0.175507 5.00562 0 0 0
52 -8.98651 -15.2233 -5.2717 0 0 0
53 14.9466 -3.89598 -0.300648 -0.00946312 0.00154369 -0.00397214
54 0 -0.0303936 1.64671 0 0 0
55 0 -2.3184 2.62787 0 0 0
56 0 -2.34127 -0.129979 0 0 0
57 0 10.015 0.00570393 0 0 0
58 0 0.899644 -0.657643 0 0 0
59 0 -6.47112 1.19749 0 0.0497845 0
60 0 -0.221876 -1.53505 -0.0124232 0 0.00022344
61 0 0.174824 -0.766596 0.0242192 -0.00158324 0.00135289
62 0 0 -0.605335 0 0 0
63 0 -0.0467033 -0.715623 0 0 0
64 0 -0.0772572 -1.03217 0 0 0
65 0 0.00226593 -1.16841 0 0 0
time 19
0 5.56284 9.62242 -3.17563 0.000934124 0 -1.04975
1 6.02794 0 0 -0.956284 0.630516 -0.35919
2 11.7344 0 0 -0.00140284 0 -0.993808
3 8.81138 -0.000450134 -0.000112534 -0.2032 0 0.00015805
4 5.77839 0.000286102 0 -0.136144 0 0.000104969
5 2.23163 -0.000329018 -0.000363827 -0.0670559 0 0
6 11.4725 0 0 -0.440009 -0.440774 0.537024
7 0.615219 -0.993092 -0.8107 3.07196 0.47568 -0.191084
8 2.24752 0 0 0.0893818 0.100772 -0.129849
9 1.11936 0 0 0.0339425 0.0778112 -0.80599
10 3.71348 -0.102641 0.10219 1.55999 0.645291 0.0798625
11 1.72615 0 0 0.0194279 -0.0124617 -1.02549
12 1.21114 0 0 -0.00915482 0.0139676 -1.15628
13 3.59919 -1.06012 0.0708879 1.53849 0.357878 -0.138954
14 1.66069 0 0 -0.00234032 0.0720157 -0.267084
15 1.167 0 0 -0.0212855 0.0283246 -0.23815
16 2.18852 0.501039 0.0576585 1.55917 0.13705 0.146564
17 1.29609 0 0 0.00533151 -0.0465293 -0.302891
18 1.62202 0.000713348 -0.000471115 0.0228114 -0.0295792 -1.0902
19 1.22241 0 0 0.00650223 0.000457274 -1.08964
20 1.76707 1.27612 0.0366403 1.55741 0.17263 0.0984098
21 1.55588 0 0 -0.0150433 -0.0389028 -0.183922
22 1.24273 0 0 -0.000479238 0.000360523 -0.237287
23 0.784525 0 0 0.00416579 0.0145277 -1.01407
24 2.01306 0.806315 -13.2419 -0.000932693 0 -2.00317
25 6.02794 0 0 1.40351 0.432109 0.566894
26 11.7344 0 0 0.00140259 0 1.1128
27 8.81167 0 0 0.301695 0 0
28 5.77884 0 0 0.202136 0 0
29 2.23249 0 0 0.0995594 0 0
30 11.4725 0 0 0.303213 -0.00110932 -0.0997598
31 0.615813 0.994371 -0.809166 -2.97025 0.377536 0.373134
32 2.24752 0 0 -0.0863609 0.0306541 0.18756
33 1.11936 0 0 -0.129536 0.16338 -0.247734
34 3.71349 0.10264 0.102191 -1.57338 1.20801 -0.0947635
35 1.72615 0 0 -0.0140041 -0.00309805 1.06922
36 1.21112 0 0 0.00907724 0.0151213 1.87168
37 3.5992 1.06012 0.070888 -1.7608 1.02808 -0.234437
38 1.66069 0 0 0.0535003 0.0663869 0.806995
39 1.16699 0 0 -0.0256995 0.00585793 1.96948
40 2.18853 -0.50104 0.0576596 -1.57144 0.106396 -0.0540188
41 1.29609 0 0 0.0966379 0.0743868 0.990738
42 1.62202 -0.000711441 -0.000471115 -0.00454888 -0.0311579 1.37171
43 1.22241 0 0 0.0245549 0.0111942 1.72151
44 1.76707 -1.27612 0.0366416 -1.54714 0.313946 0.0233514
45 1.55588 0 0 0.240314 -0.0114011 1.10726
46 1.24273 0 0 0.000478835 -0.000351859 1.02076
47 0.784529 0 0 0.00744982 -0.00523563 1.65775
48 0 0 0 0 0 0
49 5.96047 -19.6433 -9.87005 -0.00594673 0.000885391 -0.00330863
50 0 0.175507 4.39833 0 0 0
51 -0.243587 0.175507 5.00562 0 0 0
52 -8.98651 -15.2233 -5.2717 0 0 0
53 14.9525 -3.89619 -0.307355 -0.00594673 0.000885391 -0.00330863
54 0 -0.0303898 1.64671 0 0 0
55 0 -2.3184 2.62787 0 0 0
56 0 -2.34127 -0.129979 0 0 0
57 0 10.015 0.00570345 0 0 0
58 0 0.899643 -0.657643 0 0 0
59 0 -6.47112 1.19749 0 0.0517364 0
60 0 -0.221874 -1.53505 -0.0366251 0 0
61 0 0.174822 -0.766596 0.0189265 -0.00166794 0.00142527
62 0 0 -0.605335 0 0 0
63 0 -0.0467033 -0.715623 0 0 0
64 0 -0.077261 -1.03217 0 0 0
65 0 0.00226784 -1.16841 0 0 0
time 20
0 5.56284 9.62242 -3.17563 0.000934124 0 -1.04975
1 6.02794 0 0 -0.95603 0.631258 -0.35825
2 11.7344 0 0 -0.00140291 0 -0.996846
3 8.81138 -0.000450134 -0.000111103 -0.199979 0 0.000157858
4 5.77839 0.000286102 0 -0.133986 0 0.000104949
5 2.23163 -0.000329971 -0.000362873 -0.0659931 0 0
6 11.4725 0 0 -0.439991 -0.439584 0.542731
7 0.615219 -0.993092 -0.8107 3.07196 0.47568 -0.191083
8 2.24752 0 0 0.0893819 0.100772 -0.129848
9 1.11936 0 0 0.0339424 0.0778112 -0.80599
10 3.71348 -0.102641 0.102191 1.55999 0.645291 0.0798625
11 1.72615 0 0 0.0194279 -0.0124617 -1.02549
12 1.21114 0 0 -0.00915481 0.0139676 -1.15628
13 3.59919 -1.06012 0.0708881 1.53849 0.357878 -0.138954
14 1.66068 0 0 -0.00234034 0.0720157 -0.267084
15 1.167 0 0 -0.0212855 0.0283246 -0.23815
16 2.18852 0.501039 0.0576591 1.55917 0.13705 0.146564
17 1.29609 0 0 0.0053315 -0.0465293 -0.302891
18 1.62202 0.000714302 -0.000471115 0.0228114 -0.0295792 -1.0902
19 1.22241 0 0 0.00650225 0.000457298 -1.08964
20 1.76707 1.27612 0.0366408 1.55741 0.17263 0.0984098
21 1.55588 0 0 -0.0150432 -0.0389028 -0.183922
22 1.24274 0 0 -0.000479225 0.00036051 -0.237287
23 0.784523 0 0 0.00416578 0.0145277 -1.01407
24 2.01306 0.806315 -13.2419 -0.000932693 0 -2.00317
25 6.02794 0 0 1.40355 0.430717 0.567782
26 11.7344 0 0 0.00140253 0 1.104
27 8.81167 0 0 0.300722 0 0
28 5.77884 0 0 0.201484 0 0
29 2.23249 0 0 0.099238 0 0
30 11.4725 0 0 0.301708 -0.00110259 -0.0799109
31 0.615813 0.994373 -0.809165 -2.97025 0.377536 0.373134
32 2.24752 0 0 -0.0863608 0.0306541 0.18756
33 1.11936 0 0 -0.129536 0.16338 -0.247734
34 3.71349 0.102638 0.102191 -1.57338 1.20801 -0.0947638
35 1.72615 0 0 -0.0140041 -0.00309805 1.06922
36 1.21112 0 0 0.00907729 0.0151213 1.87168
37 3.5992 1.06012 0.0708885 -1.7608 1.02808 -0.234437
38 1.66069 0 0 0.0535003 0.0663869 0.806995
39 1.16699 0 0 -0.0256995 0.00585793 1.96948
40 2.18853 -0.501041 0.0576596 -1.57144 0.106396 -0.0540187
41 1.29609 0 0 0.0966379 0.074387 0.990738
42 1.62202 -0.000715256 -0.000469208 -0.00454887 -0.031158 1.37171
43 1.22241 0 0 0.0245549 0.0111942 1.72151
44 1.76707 -1.27612 0.0366411 -1.54714 0.313946 0.0233514
45 1.55587 0 0 0.240314 -0.011401 1.10726
46 1.24273 0 0 0.000478844 -0.000351843 1.02076
47 0.784531 0 0 0.00744977 -0.00523567 1.65775
48 0 0 0 0 0 0
49 5.96872 -19.6207 -9.87119 -0.00228392 0.000440335 -0.00229224
50 0 0.175507 4.39833 0 0 0
51 -0.243588 0.175507 5.00562 0 0 0
52 -8.98651 -15.2233 -5.2717 0 0 0
53 14.9583 -3.88935 -0.306608 -0.00228392 0.000440335 -0.00229224
54 0 -0.0303936 1.6467 0 0 0
55 0 -2.3184 2.62787 0 0 0
56 0 -2.34127 -0.12998 0 0 0
57 0 10.015 0.00570393 0 0 0
58 0 0.899644 -0.657644 0 0 0
59 0 -6.47112 1.19749 0 0.050846 0
60 0 -0.221874 -1.53505 -0.048336 0 0
61 0 0.174824 -0.766595 0.014518 -0.00159627 0.00136402
62 0 0 -0.605335 0 0 0
63 0 -0.0467052 -0.715623 0 0 0
64 0 -0.0772572 -1.03217 0 0 0
65 0 0.00226784 -1.16841 0 0 0
time 21
0 5.56284 9.62242 -3.17563 0.000934124 0 -1.04975
1 6.02794 0 0 -0.955663 0.632179 -0.357197
2 11.7344 0 0 -0.00140284 0 -1.00035
3 8.81138 -0.000450134 -0.000112057 -0.197124 0 0.000158136
4 5.77839 0.000286102 0 -0.132073 0 0.000105101
5 2.23163 -0.000330925 -0.000363827 -0.065051 0 0
6 11.4725 0 0 -0.440062 -0.439156 0.547546
7 0.615219 -0.993091 -0.8107 3.07196 0.47568 -0.191083
8 2.24752 0 0 0.0893819 0.100772 -0.129848
9 1.11936 0 0 0.0339425 0.0778112 -0.80599
10 3.71348 -0.10264 0.102192 1.55999 0.645291 0.0798626
11 1.72615 0 0 0.0194279 -0.0124617 -1.02549
12 1.21114 0 0 -0.00915481 0.0139676 -1.15628
13 3.59919 -1.06012 0.0708888 1.53849 0.357878 -0.138954
14 1.66069 0 0 -0.00234033 0.0720157 -0.267084
15 1.167 0 0 -0.0212855 0.0283246 -0.23815
16 2.18852 0.50104 0.0576587 1.55917 0.13705 0.146564
17 1.29609 0 0 0.00533151 -0.0465293 -0.302891
18 1.62202 0.000713348 -0.000471592 0.0228114 -0.0295792 -1.0902
19 1.22241 0 0 0.00650224 0.000457289 -1.08964
20 1.76707 1.27612 0.0366414 1.55741 0.17263 0.0984098
21 1.55587 0 0 -0.0150432 -0.0389028 -0.183922
22 1.24273 0 0 -0.000479218 0.000360511 -0.237287
23 0.784523 0 0 0.00416577 0.0145277 -1.01407
24 2.01306 0.806315 -13.2419 -0.000932693 0 -2.00317
25 6.02794 0 0 1.40326 0.431607 0.569604
26 11.7344 0 0 0.00140271 0 1.10376
27 8.81167 0 0 0.303003 0 0
28 5.77884 0 0 0.203012 0 0
29 2.23249 0 0 0.0999909 0 0
30 11.4725 0 0 0.304138 -0.00432301 -0.0765329
31 0.615812 0.994371 -0.809166 -2.97025 0.377536 0.373134
32 2.24752 0 0 -0.086361 0.0306542 0.18756
33 1.11936 0 0 -0.129536 0.16338 -0.247734
34 3.71349 0.10264 0.102191 -1.57338 1.20801 -0.0947639
35 1.72615 0 0 -0.0140041 -0.003098 1.06922
36 1.21112 0 0 0.00907722 0.0151213 1.87168
37 3.5992 1.06012 0.070888 -1.7608 1.02808 -0.234437
38 1.66069 0 0 0.0535003 0.0663869 0.806995
39 1.16699 0 0 -0.0256994 0.00585798 1.96948
40 2.18853 -0.50104 0.0576587 -1.57144 0.106396 -0.0540188
41 1.29609 0 0 0.0966379 0.0743869 0.990738
42 1.62202 -0.000713348 -0.000471115 -0.00454887 -0.031158 1.37171
43 1.22241 0 0 0.024555 0.0111942 1.72151
44 1.76707 -1.27612 0.0366416 -1.54714 0.313946 0.0233514
45 1.55587 0 0 0.240314 -0.011401 1.10726
46 1.24273 0 0 0.000478884 -0.000351925 1.02076
47 0.784531 0 0 0.00744987 -0.00523566 1.65775
48 0 0 0 0 0 0
49 5.976 -19.5988 -9.86587 0 0.000170061 -0.00121039
50 0 0.175507 4.39833 0 0 0
51 -0.243588 0.175507 5.00562 0 0 0
52 -8.98651 -15.2233 -5.2717 0 0 0
53 14.9638 -3.87725 -0.300138 0 0.000170061 -0.00121039
54 0 -0.0303917 1.6467 0 0 0
55 0 -2.3184 2.62787 0 0 0
56 0 -2.34127 -0.129979 0 0 0
57 0 10.015 0.00570393 0 0 0
58 0 0.899643 -0.657643 0 0 0
59 0 -6.47112 1.19749 0 0.0469046 0
60 0 -0.221874 -1.53505 -0.0485854 0 0
61 0 0.174824 -0.766596 0.0108936 -0.00140733 0.00120257
62 0 0 -0.605335 0 0 0
63 0 -0.0467033 -0.715623 0 0 0
64 0 -0.0772591 -1.03217 0 0 0
65 0 0.00226402 -1.16841 0 0 0
time 22
0 5.56284 9.62242 -3.17563 0.000934124 0 -1.04975
1 6.02794 0 0 -0.955232 0.633192 -0.356094
2 11.7344 0 0 -0.00140284 0 -1.00388
3 8.81138 -0.000450134 -0.00011158 -0.194959 0 0.000158186
4 5.77839 0.000286102 0 -0.130623 0 0.000105067
5 2.23163 -0.000329971 -0.000364304 -0.0643366 0 0
6 11.4725 0 0 -0.440081 -0.439313 0.550826
7 0.615221 -0.993092 -0.8107 3.07196 0.47568 -0.191083
8 2.24752 0 0 0.0893817 0.100772 -0.129848
9 1.11936 0 0 0.0339424 0.0778111 -0.80599
10 3.71348 -0.102641 0.102191 1.55999 0.645291 0.0798626
11 1.72615 0 0 0.0194279 -0.0124617 -1.02549
12 1.21114 0 0 -0.00915479 0.0139676 -1.15628
13 3.59919 -1.06012 0.0708885 1.53849 0.357878 -0.138954
14 1.66068 0 0 -0.00234033 0.0720157 -0.267084
15 1.167 0 0 -0.0212855 0.0283246 -0.23815
16 2.18852 0.50104 0.0576599 1.55917 0.137051 0.146564
17 1.29609 0 0 0.00533152 -0.0465293 -0.302891
18 1.62202 0.000714302 -0.000470161 0.0228114 -0.0295792 -1.0902
19 1.22241 0 0 0.00650224 0.000457285 -1.08964
20 1.76707 1.27612 0.0366415 1.55741 0.17263 0.0984098
21 1.55587 0 0 -0.0150433 -0.0389028 -0.183922
22 1.24273 0 0 -0.000479222 0.000360518 -0.237287
23 0.784521 0 0 0.00416577 0.0145277 -1.01407
24 2.01306 0.806315 -13.2419 -0.000932693 0 -2.00317
25 6.02794 0 0 1.40284 0.433134 0.572086
26 11.7344 0 0 0.00140271 0 1.10707
27 8.81167 0 0 0.307022 0 0
28 5.77884 0 0 0.205705 0 0
29 2.23249 0 0 0.101317 0 0
30 11.4725 0 0 0.30866 -0.00987501 -0.080276
31 0.615813 0.994373 -0.809165 -2.97025 0.377536 0.373134
32 2.24752 0 0 -0.0863608 0.0306542 0.18756
33 1.11936 0 0 -0.129536 0.16338 -0.247734
34 3.71348 0.102638 0.102191 -1.57338 1.20801 -0.0947639
35 1.72615 0 0 -0.0140041 -0.00309801 1.06922
36 1.21112 0 0 0.00907721 0.0151213 1.87168
37 3.5992 1.06012 0.0708885 -1.7608 1.02808 -0.234437
38 1.66069 0 0 0.0535003 0.0663869 0.806995
39 1.16699 0 0 -0.0256994 0.00585795 1.96948
40 2.18853 -0.501041 0.0576591 -1.57144 0.106396 -0.0540188
41 1.29609 0 0 0.0966379 0.0743869 0.990738
42 1.62202 -0.000713348 -0.000469208 -0.00454883 -0.031158 1.37171
43 1.22241 0 0 0.0245549 0.0111943 1.72151
44 1.76707 -1.27612 0.0366416 -1.54714 0.313946 0.0233512
45 1.55588 0 0 0.240314 -0.0114011 1.10726
46 1.24273 0 0 0.000478887 -0.000351858 1.02076
47 0.784531 0 0 0.0074498 -0.00523567 1.65775
48 0 0 0 0 0 0
49 5.98222 -19.58 -9.85578 0.00075419 0 -0.000350501
50 0 0.175507 4.39833 0 0 0
51 -0.243587 0.175507 5.00562 0 0 0
52 -8.98651 -15.2233 -5.2717 0 0 0
53 14.9691 -3.86166 -0.289676 0.00075419 0 -0.000350501
54 0 -0.0303917 1.64671 0 0 0
55 0 -2.3184 2.62787 0 0 0
56 0 -2.34127 -0.129979 0 0 0
57 0 10.015 0.00570393 0 0 0
58 0 0.899644 -0.657643 0 0 0
59 0 -6.47111 1.19749 0 0.0406991 0
60 0 -0.221874 -1.53505 -0.0434164 0 0
61 0 0.174824 -0.766596 0.00795303 -0.00114019 0.000974304
62 0 0 -0.605335 0 0 0
63 0 -0.0467033 -0.715623 0 0 0
64 0 -0.0772591 -1.03217 0 0 0
65 0 0.00226402 -1.1684 0 0 0
time 23
0 5.56284 9.62242 -3.17563 0.000934124 0 -1.04975
1 6.02794 0 0 -0.954796 0.634257 -0.354896
2 11.7344 0 0 -0.00140272 0 -1.00754
3 8.81138 -0.000449181 -0.000112534 -0.193225 0 0.00015805
4 5.77839 0.000287056 0 -0.129461 0 0.000105051
5 2.23163 -0.000329018 -0.000365257 -0.0637643 0 0
6 11.4725 0 0 -0.439974 -0.439239 0.553368
7 0.615219 -0.993091 -0.810701 3.07196 0.475681 -0.191083
8 2.24752 0 0 0.0893818 0.100772 -0.129849
9 1.11936 0 0 0.0339425 0.0778112 -0.80599
10 3.71348 -0.102641 0.102191 1.55999 0.645291 0.0798626
11 1.72615 0 0 0.0194279 -0.0124617 -1.02549
12 1.21114 0 0 -0.00915479 0.0139676 -1.15628
13 3.59919 -1.06012 0.0708881 1.53849 0.357878 -0.138954
14 1.66069 0 0 -0.00234031 0.0720157 -0.267084
15 1.167 0 0 -0.0212856 0.0283246 -0.23815
16 2.18852 0.50104 0.0576594 1.55917 0.13705 0.146564
17 1.29609 0 0 0.00533152 -0.0465293 -0.302891
18 1.62202 0.000714302 -0.000471115 0.0228114 -0.0295792 -1.0902
19 1.22241 0 0 0.00650225 0.000457279 -1.08964
20 1.76707 1.27612 0.0366405 1.55741 0.17263 0.0984098
21 1.55588 0 0 -0.0150433 -0.0389028 -0.183922
22 1.24273 0 0 -0.000479225 0.00036051 -0.237287
23 0.784523 0 0 0.00416578 0.0145277 -1.01407
24 2.01306 0.806315 -13.2419 -0.000932693 0 -2.00317
25 6.02794 0 0 1.40232 0.435438 0.574889
26 11.7344 0 0 0.0014027 0 1.11332
27 8.81167 0 0 0.312082 0 0
28 5.77884 0 0 0.209095 0 0
29 2.23249 0 0 0.102987 0 0
30 11.4725 0 0 0.314609 -0.0171423 -0.0896126
31 0.615812 0.994371 -0.809166 -2.97025 0.377536 0.373134
32 2.24752 0 0 -0.0863611 0.030654 0.18756
33 1.11936 0 0 -0.129536 0.16338 -0.247734
34 3.71349 0.10264 0.102191 -1.57338 1.20801 -0.0947638
35 1.72615 0 0 -0.0140041 -0.00309805 1.06922
36 1.21112 0 0 0.00907727 0.0151212 1.87168
37 3.5992 1.06012 0.0708876 -1.7608 1.02808 -0.234437
38 1.66069 0 0 0.0535004 0.0663869 0.806995
39 1.16699 0 0 -0.0256995 0.00585794 1.96948
40 2.18853 -0.501041 0.0576591 -1.57144 0.106396 -0.0540188
41 1.29609 0 0 0.0966379 0.0743869 0.990738
42 1.62202 -0.000713348 -0.000469208 -0.00454884 -0.031158 1.37171
43 1.22241 0 0 0.0245549 0.0111942 1.72151
44 1.76707 -1.27612 0.0366411 -1.54714 0.313946 0.0233515
45 1.55587 0 0 0.240314 -0.0114011 1.10726
46 1.24273 0 0 0.00047896 -0.000351942 1.02076
47 0.784531 0 0 0.00744979 -0.00523562 1.65775
48 0 0 0 0 0 0
49 5.98733 -19.5618 -9.84316 0.000965363 0 0
50 0 0.175507 4.39832 0 0 0
51 -0.243587 0.175507 5.00562 0 0 0
52 -8.98651 -15.2233 -5.2717 0 0 0
53 14.9738 -3.84435 -0.276951 0.000965363 0 0
54 0 -0.0303917 1.6467 0 0 0
55 0 -2.3184 2.62787 0 0 0
56 0 -2.34128 -0.12998 0 0 0
57 0 10.015 0.00570345 0 0 0
58 0 0.899642 -0.657643 0 0 0
59 0 -6.47112 1.19749 0 0.0330168 0
60 0 -0.221874 -1.53505 -0.034649 0 0
61 0 0.174824 -0.766596 0.00559609 -0.000833978 0.000712633
62 0 0 -0.605335 0 0 0
63 0 -0.0467033 -0.715623 0 0 0
64 0 -0.0772591 -1.03217 0 0 0
65 0 0.00226593 -1.16841 0 0 0
time 24
0 5.56284 9.62242 -3.17563 0.000934124 0 -1.04975
1 6.02794 0 0 -0.954385 0.635285 -0.353711
2 11.7344 0 0 -0.0014029 0 -1.01104
3 8.81138 -0.000448227 -0.000112534 -0.191858 0 0.000158009
4 5.77839 0.000286102 0 -0.128545 0 0.000105048
5 2.23163 -0.000329018 -0.00036478 -0.0633131 0 0
6 11.4725 0 0 -0.43976 -0.439023 0.55525
7 0.615219 -0.993091 -0.8107 3.07196 0.47568 -0.191084
8 2.24752 0 0 0.0893817 0.100772 -0.129849
9 1.11936 0 0 0.0339424 0.0778111 -0.80599
10 3.71348 -0.102641 0.10219 1.55999 0.645291 0.0798624
11 1.72615 0 0 0.0194279 -0.0124617 -1.02549
12 1.21114 0 0 -0.00915481 0.0139676 -1.15628
13 3.59919 -1.06012 0.0708878 1.53849 0.357878 -0.138954
14 1.66069 0 0 -0.00234031 0.0720157 -0.267084
15 1.167 0 0 -0.0212856 0.0283246 -0.23815
16 2.18853 0.50104 0.0576586 1.55917 0.13705 0.146564
17 1.2961 0 0 0.00533152 -0.0465293 -0.302891
18 1.62202 0.000713348 -0.000470638 0.0228114 -0.0295792 -1.0902
19 1.22241 0 0 0.00650226 0.000457285 -1.08964
20 1.76707 1.27612 0.0366405 1.55741 0.17263 0.0984097
21 1.55588 0 0 -0.0150433 -0.0389028 -0.183922
22 1.24273 0 0 -0.000479222 0.000360518 -0.237287
23 0.784523 0 0 0.00416577 0.0145277 -1.01407
24 2.01306 0.806315 -13.2419 -0.000932693 0 -2.00317
25 6.02794 0 0 1.40173 0.438189 0.577788
26 11.7344 0 0 0.00140275 0 1.12125
27 8.81167 0 0 0.317572 0 0
28 5.77884 0 0 0.212773 0 0
29 2.23249 0 0 0.104799 0 0
30 11.4725 0 0 0.32135 -0.0252016 -0.101983
31 0.61581 0.994371 -0.809165 -2.97025 0.377536 0.373134
32 2.24752 0 0 -0.0863609 0.0306543 0.18756
33 1.11936 0 0 -0.129536 0.16338 -0.247734
34 3.71348 0.10264 0.10219 -1.57338 1.20801 -0.0947635
35 1.72615 0 0 -0.0140041 -0.003098 1.06922
36 1.21112 0 0 0.0090773 0.0151213 1.87168
37 3.5992 1.06012 0.0708876 -1.7608 1.02808 -0.234437
38 1.66069 0 0 0.0535004 0.0663869 0.806995
39 1.16699 0 0 -0.0256994 0.005858 1.96948
40 2.18853 -0.50104 0.0576587 -1.57144 0.106396 -0.0540189
41 1.29609 0 0 0.0966379 0.0743868 0.990738
42 1.62202 -0.000713348 -0.0004673 -0.00454887 -0.0311579 1.37171
43 1.22241 0 0 0.0245549 0.0111942 1.72151
44 1.76707 -1.27612 0.0366411 -1.54714 0.313946 0.0233513
45 1.55588 0 0 0.240314 -0.011401 1.10726
46 1.24273 0 0 0.000478815 -0.000351835 1.02076
47 0.784527 0 0 0.00744978 -0.00523567 1.65775
48 0 0 0 0 0 0
49 5.99157 -19.5452 -9.82983 0.000814525 0 0
50 0 0.175508 4.39833 0 0 0
51 -0.243587 0.175507 5.00562 0 0 0
52 -8.98651 -15.2233 -5.2717 0 0 0
53 14.9781 -3.82711 -0.263695 0.000814525 0 0
54 0 -0.0303917 1.6467 0 0 0
55 0 -2.3184 2.62787 0 0 0
56 0 -2.34127 -0.129979 0 0 0
57 0 10.015 0.00570345 0 0 0
58 0 0.899643 -0.657644 0 0 0
59 0 -6.47112 1.19749 0 0.0246447 0
60 0 -0.221874 -1.53505 -0.0241035 0 0
61 0 0.174824 -0.766596 0.00372255 -0.000527746 0.000450963
62 0 0 -0.605335 0 0 0
63 0 -0.0467033 -0.715623 0 0 0
64 0 -0.0772591 -1.03217 0 0 0
65 0 0.00226593 -1.16841 0 0 0
time 25
0 5.56284 9.62242 -3.17563 0.000934124 0 -1.04975
1 6.02794 0 0 -0.95402 0.636184 -0.352684
2 11.7344 0 0 -0.00140295 0 -1.01407
3 8.81138 -0.000449181 -0.000112057 -0.190731 0 0.000158443
4 5.77839 0.000286102 0 -0.12779 0 0.00010536
5 2.23163 -0.000329018 -0.00036335 -0.0629414 0 0
6 11.4725 0 0 -0.439558 -0.438944 0.556696
7 0.615219 -0.993092 -0.8107 3.07196 0.475681 -0.191083
8 2.24752 0 0 0.0893819 0.100772 -0.129848
9 1.11936 0 0 0.0339426 0.0778113 -0.80599
10 3.71348 -0.102641 0.102191 1.55999 0.645291 0.0798625
11 1.72615 0 0 0.0194279 -0.0124617 -1.02549
12 1.21114 0 0 -0.00915479 0.0139676 -1.15628
13 3.59919 -1.06012 0.0708882 1.53849 0.357879 -0.138954
14 1.66069 0 0 -0.00234032 0.0720157 -0.267084
15 1.167 0 0 -0.0212855 0.0283246 -0.23815
16 2.18852 0.50104 0.0576591 1.55917 0.13705 0.146564
17 1.29609 0 0 0.00533154 -0.0465293 -0.302891
18 1.62202 0.000713348 -0.000471115 0.0228114 -0.0295792 -1.0902
19 1.22241 0 0 0.00650224 0.000457283 -1.08964
20 1.76707 1.27612 0.0366409 1.55741 0.17263 0.0984098
21 1.55588 0 0 -0.0150433 -0.0389028 -0.183922
22 1.24273 0 0 -0.000479208 0.000360527 -0.237287
23 0.784523 0 0 0.00416577 0.0145277 -1.01407
24 2.01306 0.806315 -13.2419 -0.000932693 0 -2.00317
25 6.02794 0 0 1.40119 0.440499 0.580694
26 11.7344 0 0 0.00140259 0 1.1284
27 8.81167 0 0 0.323047 0 0
28 5.77884 0 0 0.216441 0 0
29 2.23249 0 0 0.106605 0 0
30 11.4725 0 0 0.328253 -0.0330339 -0.114195
31 0.615813 0.994371 -0.809165 -2.97025 0.377536 0.373134
32 2.24752 0 0 -0.0863608 0.0306541 0.18756
33 1.11936 0 0 -0.129536 0.16338 -0.247734
34 3.71349 0.102638 0.102191 -1.57338 1.20801 -0.0947638
35 1.72615 0 0 -0.014004 -0.00309801 1.06922
36 1.21112 0 0 0.00907722 0.0151212 1.87168
37 3.5992 1.06012 0.0708885 -1.7608 1.02808 -0.234437
38 1.66069 0 0 0.0535004 0.0663869 0.806995
39 1.16699 0 0 -0.0256995 0.00585796 1.96948
40 2.18853 -0.501041 0.0576596 -1.57144 0.106396 -0.0540188
41 1.29609 0 0 0.0966379 0.0743869 0.990738
42 1.62202 -0.000715256 -0.000469208 -0.00454887 -0.0311579 1.37171
43 1.22241 0 0 0.0245549 0.0111943 1.72151
44 1.76707 -1.27612 0.0366416 -1.54714 0.313946 0.0233514
45 1.55587 0 0 0.240314 -0.011401 1.10726
46 1.24273 0 0 0.000478867 -0.000351894 1.02076
47 0.784531 0 0 0.00744981 -0.0052356 1.65775
48 0 0 0 0 0 0
49 5.99517 -19.5312 -9.81761 0.000482682 0 0
50 0 0.175507 4.39833 0 0 0
51 -0.243587 0.175505 5.00562 0 0 0
52 -8.98651 -15.2233 -5.2717 0 0 0
53 14.9817 -3.8117 -0.251639 0.000482682 0 0
54 0 -0.0303917 1.64671 0 0 0
55 0 -2.3184 2.62787 0 0 0
56 0 -2.34127 -0.129979 0 0 0
57 0 10.015 0.0057044 0 0 0
58 0 0.899643 -0.657643 0 0 0
59 0 -6.47112 1.19749 0 0.0163698 0
60 0 -0.221874 -1.53505 -0.0136001 0 0
61 0 0.174826 -0.766596 0.00223217 -0.000260618 0.000222698
62 0 0 -0.605335 0 0 0
63 0 -0.0467052 -0.715623 0 0 0
64 0 -0.0772572 -1.03217 0 0 0
65 0 0.00226593 -1.16841 0 0 0
time 26
0 5.56284 9.62242 -3.17563 0.000934124 0 -1.04975
1 6.02794 0 0 -0.953741 0.636869 -0.351902
2 11.7344 0 0 -0.00140282 0 -1.01634
3 8.81138 -0.000450134 -0.000112534 -0.189916 0 0.000158107
4 5.77839 0.000286102 0 -0.127243 0 0.000105165
5 2.23164 -0.000329971 -0.000364304 -0.0626721 0 0
6 11.4725 0 0 -0.439398 -0.438924 0.557693
7 0.615221 -0.993091 -0.8107 3.07196 0.47568 -0.191084
8 2.24752 0 0 0.0893818 0.100772 -0.129848
9 1.11936 0 0 0.0339424 0.0778112 -0.80599
10 3.71348 -0.102641 0.102191 1.55999 0.645291 0.0798624
11 1.72615 0 0 0.0194279 -0.0124617 -1.02549
12 1.21114 0 0 -0.00915479 0.0139676 -1.15628
13 3.59919 -1.06012 0.0708884 1.53849 0.357879 -0.138954
14 1.66069 0 0 -0.0023403 0.0720157 -0.267084
15 1.167 0 0 -0.0212855 0.0283246 -0.23815
16 2.18853 0.50104 0.0576591 1.55917 0.13705 0.146564
17 1.29609 0 0 0.00533151 -0.0465293 -0.302891
18 1.62202 0.000713348 -0.000470638 0.0228114 -0.0295792 -1.0902
19 1.22241 0 0 0.00650225 0.000457284 -1.08964
20 1.76707 1.27612 0.0366405 1.55741 0.17263 0.0984097
21 1.55588 0 0 -0.0150433 -0.0389028 -0.183922
22 1.24274 0 0 -0.000479225 0.00036051 -0.237287
23 0.784525 0 0 0.00416576 0.0145277 -1.01407
24 2.01306 0.806315 -13.2419 -0.000932693 0 -2.00317
25 6.02794 0 0 1.40073 0.442276 0.58329
26 11.7344 0 0 0.00140261 0 1.13391
27 8.81167 0 0 0.327886 0 0
28 5.77884 0 0 0.219684 0 0
29 2.23249 0 0 0.108203 0 0
30 11.4725 0 0 0.334432 -0.0398818 -0.123873
31 0.615809 0.994371 -0.809165 -2.97025 0.377536 0.373134
32 2.24752 0 0 -0.086361 0.0306541 0.18756
33 1.11936 0 0 -0.129536 0.16338 -0.247734
34 3.71348 0.102638 0.10219 -1.57338 1.20801 -0.0947639
35 1.72615 0 0 -0.0140041 -0.003098 1.06922
36 1.21112 0 0 0.00907732 0.0151214 1.87168
37 3.5992 1.06012 0.070889 -1.7608 1.02808 -0.234437
38 1.66069 0 0 0.0535003 0.0663869 0.806995
39 1.16699 0 0 -0.0256995 0.00585793 1.96948
40 2.18853 -0.501041 0.0576601 -1.57144 0.106396 -0.0540187
41 1.29609 0 0 0.096638 0.0743869 0.990738
42 1.62202 -0.000713348 -0.000469208 -0.00454886 -0.0311579 1.37171
43 1.22241 0 0 0.024555 0.0111942 1.72151
44 1.76707 -1.27612 0.0366416 -1.54714 0.313946 0.0233515
45 1.55588 0 0 0.240314 -0.0114009 1.10726
46 1.24273 0 0 0.000478808 -0.000351908 1.02076
47 0.784531 0 0 0.00744981 -0.00523566 1.65775
48 0 0 0 0 0 0
49 5.99801 -19.5208 -9.80832 0.000150838 0 0
50 0 0.175507 4.39833 0 0 0
51 -0.243587 0.175507 5.00562 0 0 0
52 -8.98651 -15.2233 -5.2717 0 0 0
53 14.9845 -3.79991 -0.242514 0.000150838 0 0
54 0 -0.0303917 1.6467 0 0 0
55 0 -2.3184 2.62787 0 0 0
56 0 -2.34127 -0.12998 0 0 0
57 0 10.015 0.00570393 0 0 0
58 0 0.899643 -0.657643 0 0 0
59 0 -6.47112 1.19749 0 0.00897939 0
60 0 -0.221876 -1.53505 -0.00495887 0 0
61 0 0.174824 -0.766596 0.00102473 0 0
62 0 0 -0.605336 0 0 0
63 0 -0.0467014 -0.715623 0 0 0
64 0 -0.077261 -1.03217 0 0 0
65 0 0.00226593 -1.16841 0 0 0
time 27
0 5.56284 9.62242 -3.17563 0.000934124 0 -1.04975
1 6.02794 0 0 -0.953582 0.63726 -0.351451
2 11.7344 0 0 -0.00140298 0 -1.01758
3 8.81138 -0.000449181 -0.000113487 -0.189481 0 0.000158008
4 5.77839 0.000287056 0 -0.126952 0 0.000104997
5 2.23163 -0.000329018 -0.000365257 -0.0625286 0 0
6 11.4725 0 0 -0.439308 -0.43889 0.558232
7 0.615217 -0.993091 -0.8107 3.07196 0.47568 -0.191083
8 2.24752 0 0 0.0893819 0.100772 -0.129848
9 1.11936 0 0 0.0339425 0.0778112 -0.80599
10 3.71348 -0.102641 0.102191 1.55999 0.645291 0.0798625
11 1.72615 0 0 0.0194279 -0.0124617 -1.02549
12 1.21114 0 0 -0.00915483 0.0139676 -1.15628
13 3.59919 -1.06012 0.0708886 1.53849 0.357878 -0.138954
14 1.66069 0 0 -0.00234033 0.0720157 -0.267084
15 1.167 0 0 -0.0212855 0.0283246 -0.23815
16 2.18852 0.50104 0.0576593 1.55917 0.13705 0.146564
17 1.29609 0 0 0.00533155 -0.0465293 -0.302891
18 1.62202 0.000714302 -0.000471115 0.0228114 -0.0295792 -1.09019
19 1.22241 0 0 0.00650224 0.000457277 -1.08964
20 1.76707 1.27612 0.0366411 1.55741 0.17263 0.0984099
21 1.55587 0 0 -0.0150432 -0.0389028 -0.183922
22 1.24274 0 0 -0.000479232 0.000360509 -0.237287
23 0.784525 0 0 0.00416578 0.0145277 -1.01407
24 2.01306 0.806315 -13.2419 -0.000932693 0 -2.00317
25 6.02794 0 0 1.40043 0.443224 0.585303
26 11.7344 0 0 0.0014026 0 1.13646
27 8.81167 0 0 0.331522 0 0
28 5.77884 0 0 0.222119 0 0
29 2.23249 0 0 0.109402 0 0
30 11.4725 0 0 0.33894 -0.0450486 -0.12839
31 0.615815 0.994371 -0.809165 -2.97025 0.377536 0.373134
32 2.24752 0 0 -0.086361 0.0306542 0.18756
33 1.11936 0 0 -0.129536 0.16338 -0.247734
34 3.71348 0.10264 0.102191 -1.57338 1.20801 -0.094764
35 1.72615 0 0 -0.0140041 -0.00309795 1.06922
36 1.21112 0 0 0.00907722 0.0151212 1.87168
37 3.5992 1.06012 0.070888 -1.7608 1.02808 -0.234437
38 1.66069 0 0 0.0535004 0.0663869 0.806995
39 1.16699 0 0 -0.0256995 0.00585798 1.96948
40 2.18853 -0.50104 0.0576591 -1.57144 0.106396 -0.0540187
41 1.29609 0 0 0.0966379 0.0743869 0.990738
42 1.62202 -0.000713348 -0.000471115 -0.00454886 -0.0311579 1.37171
43 1.22241 0 0 0.0245549 0.0111942 1.72151
44 1.76707 -1.27612 0.0366411 -1.54714 0.313946 0.0233514
45 1.55587 0 0 0.240314 -0.011401 1.10726
46 1.24273 0 0 0.000478804 -0.000351884 1.02076
47 0.784529 0 0 0.0074498 -0.00523561 1.65775
48 0 0 0 0 0 0
49 6 -19.5151 -9.80378 0 0 0
50 0 0.175507 4.39833 0 0 0
51 -0.243587 0.175507 5.00562 0 0 0
52 -8.98651 -15.2233 -5.2717 0 0 0
53 14.9865 -3.79351 -0.23805 0 0 0
54 0 -0.0303917 1.6467 0 0 0
55 0 -2.3184 2.62787 0 0 0
56 0 -2.34127 -0.129979 0 0 0
57 0 10.015 0.00570393 0 0 0
58 0 0.899643 -0.657643 0 0 0
59 0 -6.47112 1.19749 0 0.00326041 0
60 0 -0.221874 -1.53505 0 0 0
61 0 0.174824 -0.766596 0 0 0
62 0 0 -0.605335 0 0 0
63 0 -0.0467033 -0.715623 0 0 0
64 0 -0.0772591 -1.03217 0 0 0
65 0 0.00226593 -1.16841 0 0 0
time 28
0 5.56284 9.62242 -3.17563 0.000934124 0 -1.04975
1 6.02794 0 0 -0.953527 0.6374 -0.351287
2 11.7344 0 0 -0.00140287 0 -1.01797
3 8.81138 -0.000451088 -0.000112057 -0.18934 0 0.000158154
4 5.77839 0.000286102 0 -0.126858 0 0.00010504
5 2.23163 -0.000329971 -0.000363827 -0.062482 0 0
6 11.4725 0 0 -0.439279 -0.438846 0.558428
7 0.615219 -0.993091 -0.8107 3.07196 0.475681 -0.191084
8 2.24752 0 0 0.0893817 0.100772 -0.129849
9 1.11936 0 0 0.0339425 0.0778111 -0.80599
10 3.71348 -0.102641 0.102191 1.55999 0.645291 0.0798625
11 1.72615 0 0 0.0194279 -0.0124617 -1.02549
12 1.21114 0 0 -0.00915481 0.0139676 -1.15628
13 3.59919 -1.06012 0.0708882 1.53849 0.357879 -0.138954
14 1.66069 0 0 -0.00234031 0.0720157 -0.267084
15 1.167 0 0 -0.0212855 0.0283246 -0.23815
16 2.18852 0.50104 0.0576589 1.55917 0.13705 0.146564
17 1.29609 0 0 0.00533154 -0.0465293 -0.302891
18 1.62201 0.000713348 -0.000472069 0.0228114 -0.0295792 -1.09019
19 1.22241 0 0 0.00650224 0.000457283 -1.08964
20 1.76707 1.27612 0.0366407 1.55741 0.17263 0.0984098
21 1.55588 0 0 -0.0150433 -0.0389028 -0.183922
22 1.24273 0 0 -0.000479225 0.00036051 -0.237287
23 0.784521 0 0 0.00416577 0.0145277 -1.01407
24 2.01306 0.806315 -13.2419 -0.000932693 0 -2.00317
25 6.02794 0 0 1.40028 0.443467 0.586449
26 11.7344 0 0 0.00140275 0 1.13669
27 8.81167 0 0 0.33351 0 0
28 5.77884 0 0 0.223452 0 0
29 2.23249 0 0 0.110058 0 0
30 11.4725 0 0 0.341253 -0.0479285 -0.128774
31 0.615812 0.994371 -0.809166 -2.97025 0.377536 0.373134
32 2.24752 0 0 -0.086361 0.0306541 0.18756
33 1.11936 0 0 -0.129536 0.16338 -0.247734
34 3.71349 0.102638 0.102191 -1.57338 1.20801 -0.0947637
35 1.72615 0 0 -0.014004 -0.00309803 1.06922
36 1.21112 0 0 0.0090772 0.0151213 1.87168
37 3.5992 1.06012 0.070888 -1.7608 1.02808 -0.234437
38 1.66069 0 0 0.0535003 0.0663869 0.806995
39 1.16699 0 0 -0.0256995 0.00585793 1.96948
40 2.18853 -0.501043 0.0576596 -1.57144 0.106396 -0.0540188
41 1.29609 0 0 0.0966379 0.0743868 0.990738
42 1.62202 -0.000711441 -0.000469208 -0.00454886 -0.031158 1.37171
43 1.22241 0 0 0.0245549 0.0111942 1.72151
44 1.76707 -1.27612 0.0366416 -1.54714 0.313946 0.0233514
45 1.55587 0 0 0.240314 -0.0114011 1.10726
46 1.24273 0 0 0.000478782 -0.000351863 1.02076
47 0.784533 0 0 0.00744979 -0.00523568 1.65775
48 0 0 0 0 0 0
49 6.00098 -19.5131 -9.80279 0 0 0
50 0 0.175507 4.39833 0 0 0
51 -0.243587 0.175507 5.00562 0 0 0
52 -8.98651 -15.2233 -5.2717 0 0 0
53 14.9875 -3.79152 -0.237053 0 0 0
54 0 -0.0303917 1.6467 0 0 0
55 0 -2.3184 2.62787 0 0 0
56 0 -2.34127 -0.129979 0 0 0
57 0 10.015 0.00570393 0 0 0
58 0 0.899643 -0.657643 0 0 0
59 0 -6.47112 1.19749 0 0 0
60 0 -0.221874 -1.53505 0.00141241 0 0
61 0 0.174824 -0.766596 -0.000543816 0 0
62 0 0 -0.605336 0 0 0
63 0 -0.0467033 -0.715623 0 0 0
64 0 -0.0772591 -1.03217 0 0 0
65 0 0.00226593 -1.1684 0 0 0
time 29
0 5.56284 9.62242 -3.17563 0.000934124 0 -1.04975
1 6.02794 0 0 -0.95352 0.637417 -0.351266
2 11.7344 0 0 -0.00140277 0 -1.01802
3 8.81138 -0.000450134 -0.000112534 -0.189322 0 0.00015797
4 5.77839 0.000286102 0 -0.126846 0 0.000105155
5 2.23163 -0.000329018 -0.000364304 -0.0624762 0 0
6 11.4725 0 0 -0.439276 -0.438841 0.558453
7 0.615219 -0.993092 -0.810701 3.07196 0.47568 -0.191083
8 2.24752 0 0 0.0893818 0.100772 -0.129848
9 1.11936 0 0 0.0339424 0.0778111 -0.80599
10 3.71348 -0.102641 0.10219 1.55999 0.645291 0.0798626
11 1.72615 0 0 0.0194279 -0.0124617 -1.02549
12 1.21114 0 0 -0.00915482 0.0139676 -1.15628
13 3.59919 -1.06012 0.0708878 1.53849 0.357878 -0.138954
14 1.66069 0 0 -0.00234032 0.0720157 -0.267084
15 1.16699 0 0 -0.0212855 0.0283246 -0.23815
16 2.18852 0.50104 0.0576583 1.55917 0.13705 0.146564
17 1.29609 0 0 0.00533151 -0.0465293 -0.302891
18 1.62202 0.000713348 -0.000471592 0.0228114 -0.0295792 -1.0902
19 1.22241 0 0 0.00650225 0.000457279 -1.08964
20 1.76707 1.27612 0.036641 1.55741 0.17263 0.0984098
21 1.55587 0 0 -0.0150433 -0.0389028 -0.183922
22 1.24274 0 0 -0.00047923 0.000360517 -0.237287
23 0.784523 0 0 0.00416578 0.0145277 -1.01407
24 2.01306 0.806315 -13.2419 -0.000932693 0 -2.00317
25 6.02794 0 0 1.40025 0.443436 0.586792
26 11.7344 0 0 0.00140257 0 1.13642
27 8.81167 0 0 0.334085 0 0
28 5.77884 0 0 0.223837 0 0
29 2.23249 0 0 0.110248 0 0
30 11.4725 0 0 0.341874 -0.0487832 -0.128294
31 0.615812 0.994373 -0.809166 -2.97025 0.377536 0.373134
32 2.24752 0 0 -0.0863608 0.0306541 0.18756
33 1.11936 0 0 -0.129536 0.16338 -0.247734
34 3.71349 0.102638 0.102191 -1.57338 1.20801 -0.0947636
35 1.72615 0 0 -0.014004 -0.00309805 1.06922
36 1.21112 0 0 0.00907728 0.0151213 1.87168
37 3.5992 1.06012 0.0708895 -1.7608 1.02808 -0.234437
38 1.66069 0 0 0.0535004 0.0663869 0.806995
39 1.16699 0 0 -0.0256995 0.00585794 1.96948
40 2.18853 -0.50104 0.0576596 -1.57144 0.106396 -0.0540188
41 1.29609 0 0 0.0966379 0.0743868 0.990738
42 1.62202 -0.000713348 -0.000471115 -0.00454889 -0.0311579 1.37171
43 1.22241 0 0 0.0245549 0.0111942 1.72151
44 1.76707 -1.27612 0.0366426 -1.54714 0.313946 0.0233513
45 1.55588 0 0 0.240314 -0.011401 1.10726
46 1.24273 0 0 0.000478874 -0.000351851 1.02076
47 0.784531 0 0 0.0074498 -0.00523567 1.65775
48 0 0 0 0 0 0
49 6.0011 -19.5128 -9.80266 0 0 0
50 0 0.175507 4.39833 0 0 0
51 -0.243587 0.175507 5.00562 0 0 0
52 -8.98651 -15.2233 -5.2717 0 0 0
53 14.9876 -3.79127 -0.236928 0 0 0
54 0 -0.0303917 1.6467 0 0 0
55 0 -2.3184 2.62787 0 0 0
56 0 -2.34127 -0.129979 0 0 0
57 0 10.015 0.00570393 0 0 0
58 0 0.899643 -0.657643 0 0 0
59 0 -6.47112 1.19749 0 -0.00099493 0
60 0 -0.221874 -1.53505 0.00125548 0 0
61 0 0.174824 -0.766596 -0.000483393 0 0
62 0 0 -0.605335 0 0 0
63 0 -0.0467014 -0.715623 0 0 0
64 0 -0.0772591 -1.03217 0 0 0
65 0 0.00226593 -1.16841 0 0 0
time 30
0 5.56284 9.62242 -3.17563 0.000934124 0 -1.04975
1 6.02794 0 0 -0.953541 0.637365 -0.351328
2 11.7344 0 0 -0.00140277 0 -1.01787
3 8.81138 -0.000451088 -0.000113487 -0.189375 0 0.000158304
4 5.77839 0.000286102 0 -0.126881 0 0.000105163
5 2.23163 -0.000329971 -0.00036478 -0.0624939 0 0
6 11.4725 0 0 -0.439287 -0.438857 0.558379
7 0.615217 -0.993091 -0.8107 3.07196 0.47568 -0.191083
8 2.24752 0 0 0.0893819 0.100772 -0.129848
9 1.11936 0 0 0.0339424 0.077811 -0.80599
10 3.71348 -0.102642 0.102191 1.55999 0.645291 0.0798625
11 1.72615 0 0 0.0194279 -0.0124617 -1.02549
12 1.21114 0 0 -0.0091548 0.0139676 -1.15628
13 3.59919 -1.06012 0.0708878 1.53849 0.357878 -0.138954
14 1.66069 0 0 -0.00234031 0.0720157 -0.267084
15 1.167 0 0 -0.0212855 0.0283246 -0.23815
16 2.18852 0.50104 0.0576593 1.55917 0.13705 0.146564
17 1.29609 0 0 0.00533152 -0.0465293 -0.302891
18 1.62202 0.000714302 -0.000471115 0.0228114 -0.0295792 -1.0902
19 1.22241 0 0 0.00650224 0.000457281 -1.08964
20 1.76707 1.27612 0.0366406 1.55741 0.17263 0.0984098
21 1.55587 0 0 -0.0150433 -0.0389028 -0.183922
22 1.24273 0 0 -0.000479218 0.000360511 -0.237287
23 0.784521 0 0 0.00416576 0.0145277 -1.01407
24 2.01306 0.806315 -13.2419 -0.000932693 0 -2.00317
25 6.02794 0 0 1.40027 0.44329 0.586738
26 11.7344 0 0 0.00140273 0 1.13594
27 8.81167 0 0 0.333981 0 0
28 5.77884 0 0 0.223768 0 0
29 2.23249 0 0 0.110214 0 0
30 11.4725 0 0 0.341691 -0.0486499 -0.127509
31 0.615815 0.994373 -0.809165 -2.97025 0.377536 0.373134
32 2.24752 0 0 -0.0863609 0.0306542 0.18756
33 1.11936 0 0 -0.129536 0.16338 -0.247734
34 3.71349 0.10264 0.102191 -1.57338 1.20801 -0.0947638
35 1.72615 0 0 -0.0140041 -0.00309804 1.06922
36 1.21112 0 0 0.00907729 0.0151213 1.87168
37 3.5992 1.06012 0.070888 -1.7608 1.02808 -0.234437
38 1.66069 0 0 0.0535003 0.0663869 0.806995
39 1.16699 0 0 -0.0256994 0.00585791 1.96948
40 2.18853 -0.50104 0.0576587 -1.57144 0.106396 -0.0540188
41 1.29609 0 0 0.0966379 0.0743869 0.990738
42 1.62202 -0.000713348 -0.000469208 -0.00454884 -0.0311579 1.37171
43 1.22241 0 0 0.0245549 0.0111943 1.72151
44 1.76707 -1.27612 0.0366416 -1.54714 0.313946 0.0233514
45 1.55588 0 0 0.240314 -0.011401 1.10726
46 1.24273 0 0 0.000478841 -0.000351849 1.02076
47 0.784533 0 0 0.00744974 -0.00523565 1.65775
48 0 0 0 0 0 0
49 6.00073 -19.5136 -9.80304 0 0 0
50 0 0.175507 4.39833 0 0 0
51 -0.243587 0.175507 5.00562 0 0 0
52 -8.98651 -15.2233 -5.2717 0 0 0
53 14.9872 -3.79202 -0.237302 0 0 0
54 0 -0.0303917 1.6467 0 0 0
55 0 -2.3184 2.62787 0 0 0
56 0 -2.34127 -0.129979 0 0 0
57 0 10.015 0.00570393 0 0 0
58 0 0.899643 -0.657643 0 0 0
59 0 -6.47112 1.19749 0 -0.000884382 0
60 0 -0.221874 -1.53505 0.000470804 0 0
61 0 0.174824 -0.766596 -0.000181272 0 0
62 0 0 -0.605335 0 0 0
63 0 -0.0467014 -0.715623 0 0 0
64 0 -0.0772591 -1.03217 0 0 0
65 0 0.00226593 -1.16841 0 0 0
time 31
0 5.56284 9.62242 -3.17563 0.000934124 0 -1.04975
1 6.02794 0 0 -0.953568 0.637295 -0.351411
2 11.7344 0 0 -0.00140277 0 -1.01767
3 8.81138 -0.000451088 -0.00011301 -0.189446 0 0.000158344
4 5.77839 0.000285149 0 -0.126929 0 0.000105239
5 2.23163 -0.000329971 -0.000364304 -0.0625173 0 0
6 11.4725 0 0 -0.439301 -0.438879 0.558281
7 0.615219 -0.993091 -0.810701 3.07196 0.47568 -0.191083
8 2.24752 0 0 0.0893818 0.100772 -0.129849
9 1.11935 0 0 0.0339425 0.0778111 -0.80599
10 3.71348 -0.102641 0.10219 1.55999 0.645291 0.0798623
11 1.72615 0 0 0.019428 -0.0124617 -1.02549
12 1.21114 0 0 -0.00915481 0.0139676 -1.15628
13 3.59919 -1.06012 0.0708873 1.53849 0.357878 -0.138954
14 1.66069 0 0 -0.00234032 0.0720157 -0.267084
15 1.167 0 0 -0.0212855 0.0283246 -0.23815
16 2.18853 0.50104 0.0576579 1.55917 0.13705 0.146564
17 1.29609 0 0 0.00533154 -0.0465293 -0.302891
18 1.62202 0.000713348 -0.000471115 0.0228114 -0.0295792 -1.0902
19 1.22241 0 0 0.00650225 0.000457288 -1.08964
20 1.76707 1.27612 0.0366406 1.55741 0.17263 0.0984097
21 1.55588 0 0 -0.0150433 -0.0389028 -0.183922
22 1.24273 0 0 -0.000479211 0.000360519 -0.237287
23 0.784527 0 0 0.00416578 0.0145277 -1.01407
24 2.01306 0.806315 -13.2419 -0.000932693 0 -2.00317
25 6.02794 0 0 1.4003 0.443193 0.586528
26 11.7344 0 0 0.00140261 0 1.1357
27 8.81167 0 0 0.333643 0 0
28 5.77884 0 0 0.223541 0 0
29 2.23249 0 0 0.110102 0 0
30 11.4725 0 0 0.341273 -0.048138 -0.127158
31 0.615813 0.99437 -0.809165 -2.97025 0.377536 0.373134
32 2.24752 0 0 -0.0863609 0.0306541 0.18756
33 1.11936 0 0 -0.129536 0.16338 -0.247734
34 3.71348 0.102638 0.102191 -1.57338 1.20801 -0.0947639
35 1.72615 0 0 -0.014004 -0.00309799 1.06922
36 1.21112 0 0 0.00907728 0.0151213 1.87168
37 3.5992 1.06012 0.0708885 -1.7608 1.02808 -0.234437
38 1.66069 0 0 0.0535004 0.0663869 0.806995
39 1.16699 0 0 -0.0256994 0.00585796 1.96948
40 2.18853 -0.501041 0.0576591 -1.57144 0.106396 -0.0540187
41 1.29609 0 0 0.0966379 0.0743868 0.990738
42 1.62202 -0.000713348 -0.000473022 -0.00454887 -0.0311579 1.37171
43 1.22241 0 0 0.0245549 0.0111942 1.72151
44 1.76707 -1.27612 0.0366416 -1.54714 0.313946 0.0233515
45 1.55588 0 0 0.240314 -0.011401 1.10726
46 1.24273 0 0 0.000478883 -0.000351865 1.02076
47 0.784534 0 0 0.00744976 -0.00523565 1.65775
48 0 0 0 0 0 0
49 6.00024 -19.5146 -9.80353 0 0 0
50 0 0.175507 4.39833 0 0 0
51 -0.243587 0.175507 5.00562 0 0 0
52 -8.98651 -15.2233 -5.2717 0 0 0
53 14.9868 -3.79301 -0.237801 0 0 0
54 0 -0.0303917 1.6467 0 0 0
55 0 -2.3184 2.62787 0 0 0
56 0 -2.34127 -0.129979 0 0 0
57 0 10.015 0.00570393 0 0 0
58 0 0.899643 -0.657643 0 0 0
59 0 -6.47112 1.19749 0 -0.000331642 0
60 0 -0.221874 -1.53505 0 0 0
61 0 0.174824 -0.766596 0 0 0
62 0 0 -0.605335 0 0 0
63 0 -0.0467033 -0.715623 0 0 0
64 0 -0.0772591 -1.03217 0 0 0
65 0 0.00226593 -1.16841 0 0 0
time 32
0 5.56284 9.62242 -3.17563 0.000934124 0 -1.04975
1 6.02794 0 0 -0.953582 0.63726 -0.351451
2 11.7344 0 0 -0.00140298 0 -1.01758
3 8.81138 -0.000449181 -0.000113487 -0.189481 0 0.000158008
4 5.77839 0.000287056 0 -0.126952 0 0.000104997
5 2.23163 -0.000329018 -0.000365257 -0.0625286 0 0
6 11.4725 0 0 -0.439308 -0.43889 0.558232
7 0.615217 -0.993091 -0.8107 3.07196 0.47568 -0.191083
8 2.24752 0 0 0.0893819 0.100772 -0.129848
9 1.11936 0 0 0.0339425 0.0778112 -0.80599
10 3.71348 -0.102641 0.102191 1.55999 0.645291 0.0798625
11 1.72615 0 0 0.0194279 -0.0124617 -1.02549
12 1.21114 0 0 -0.00915483 0.0139676 -1.15628
13 3.59919 -1.06012 0.0708886 1.53849 0.357878 -0.138954
14 1.66069 0 0 -0.00234033 0.0720157 -0.267084
15 1.167 0 0 -0.0212855 0.0283246 -0.23815
16 2.18852 0.50104 0.0576593 1.55917 0.13705 0.146564
17 1.29609 0 0 0.00533155 -0.0465293 -0.302891
18 1.62202 0.000714302 -0.000471115 0.0228114 -0.0295792 -1.09019
19 1.22241 0 0 0.00650224 0.000457277 -1.08964
20 1.76707 1.27612 0.0366411 1.55741 0.17263 0.0984099
21 1.55587 0 0 -0.0150432 -0.0389028 -0.183922
22 1.24274 0 0 -0.000479232 0.000360509 -0.237287
23 0.784525 0 0 0.00416578 0.0145277 -1.01407
24 2.01306 0.806315 -13.2419 -0.000932693 0 -2.00317
25 6.02794 0 0 1.40031 0.443183 0.586403
26 11.7344 0 0 0.0014027 0 1.13572
27 8.81167 0 0 0.333459 0 0
28 5.77884 0 0 0.223417 0 0
29 2.23249 0 0 0.110041 0 0
30 11.4725 0 0 0.341064 -0.0478399 -0.127227
31 0.615814 0.994373 -0.809165 -2.97025 0.377536 0.373134
32 2.24752 0 0 -0.0863609 0.0306542 0.18756
33 1.11936 0 0 -0.129536 0.16338 -0.247734
34 3.71348 0.102642 0.102191 -1.57338 1.20801 -0.0947637
35 1.72615 0 0 -0.014004 -0.00309799 1.06922
36 1.21112 0 0 0.00907728 0.0151213 1.87168
37 3.5992 1.06012 0.0708885 -1.7608 1.02808 -0.234437
38 1.66069 0 0 0.0535003 0.0663869 0.806995
39 1.16699 0 0 -0.0256994 0.00585793 1.96948
40 2.18853 -0.501038 0.0576582 -1.57144 0.106396 -0.0540188
41 1.29609 0 0 0.0966379 0.0743868 0.990738
42 1.62202 -0.000715256 -0.000471115 -0.00454888 -0.031158 1.37171
43 1.22241 0 0 0.0245549 0.0111943 1.72151
44 1.76707 -1.27612 0.0366411 -1.54714 0.313946 0.0233514
45 1.55588 0 0 0.240314 -0.011401 1.10726
46 1.24273 0 0 0.00047888 -0.000351871 1.02076
47 0.784533 0 0 0.00744978 -0.00523568 1.65775
48 0 0 0 0 0 0
49 6 -19.5151 -9.80378 0 0 0
50 0 0.175507 4.39833 0 0 0
51 -0.243587 0.175507 5.00562 0 0 0
52 -8.98651 -15.2233 -5.2717 0 0 0
53 14.9865 -3.79351 -0.23805 0 0 0
54 0 -0.0303917 1.6467 0 0 0
55 0 -2.3184 2.62787 0 0 0
56 0 -2.34127 -0.129979 0 0 0
57 0 10.015 0.00570393 0 0 0
58 0 0.899643 -0.657643 0 0 0
59 0 -6.47112 1.19749 0 0 0
60 0 -0.221874 -1.53505 0 0 0
61 0 0.174824 -0.766596 0 0 0
62 0 0 -0.605335 0 0 0
63 0 -0.0467033 -0.715623 0 0 0
64 0 -0.0772591 -1.03217 0 0 0
65 0 0.00226593 -1.16841 0 0 0
end
