//Sequence File generated by the Wall Worm SMD Exporter PRO 1.99
//www.wallworm.com
version 1
nodes
0 "b_l_clav" -1
1 "b_l_upperarm" 0
2 "b_l_forearm" 1
3 "b_l_twist3" 2
4 "b_l_twist2" 2
5 "b_l_twist1" 2
6 "b_l_hand" 2
7 "b_l_thumb001" 6
8 "b_l_thumb002" 7
9 "b_l_thumb003" 8
10 "b_l_middle001" 6
11 "b_l_middle002" 10
12 "b_l_middle003" 11
13 "b_l_index001" 6
14 "b_l_index002" 13
15 "b_l_index003" 14
16 "b_l_hand_ringsqueezer" 6
17 "b_l_ring001" 16
18 "b_l_ring002" 17
19 "b_l_ring003" 18
20 "b_l_hand_pinkysqueezer" 6
21 "b_l_pinky001" 20
22 "b_l_pinky002" 21
23 "b_l_pinky003" 22
24 "b_r_clav" -1
25 "b_r_upperarm" 24
26 "b_r_forearm" 25
27 "b_r_twist3" 26
28 "b_r_twist2" 26
29 "b_r_twist1" 26
30 "b_r_hand" 26
31 "b_r_thumb001" 30
32 "b_r_thumb002" 31
33 "b_r_thumb003" 32
34 "b_r_middle001" 30
35 "b_r_middle002" 34
36 "b_r_middle003" 35
37 "b_r_index001" 30
38 "b_r_index002" 37
39 "b_r_index003" 38
40 "b_r_hand_ringsqueezer" 30
41 "b_r_ring001" 40
42 "b_r_ring002" 41
43 "b_r_ring003" 42
44 "b_r_hand_pinkysqueezer" 30
45 "b_r_pinky001" 44
46 "b_r_pinky002" 45
47 "b_r_pinky003" 46
48 "b_zero" -1
49 "d_mag" -1
50 "d_magwell" 49
51 "d_boolet" 49
52 "d_walk" -1
53 "d_gun" 52
54 "d_chamber" 53
55 "d_bolt" 53
56 "d_trigger" 53
57 "d_stockbar" 53
58 "d_stockpivot" 57
59 "d_mainswivel" 53
60 "d_hookswivel" 59
61 "d_ringswiveltop" 60
62 "d_ringswivelbottom" 61
63 "d_strap1" 62
64 "d_strap2" 63
65 "d_strap3" 64
end
skeleton
time 0
0 5.56284 9.62242 -3.17563 0.000934124 0 -1.04975
1 6.02794 0 0 -0.953582 0.63726 -0.351451
2 11.7344 0 0 -0.00140298 0 -1.01758
3 8.81138 -0.000449181 -0.000113487 -0.189481 0 0.000158008
4 5.77839 0.000287056 0 -0.126952 0 0.000104997
5 2.23163 -0.000329018 -0.000365257 -0.0625286 0 0
6 11.4725 0 0 -0.439308 -0.43889 0.558232
7 0.615217 -0.993091 -0.8107 3.07196 0.47568 -0.191083
8 2.24752 0 0 0.0893819 0.100772 -0.129848
9 1.11936 0 0 0.0339425 0.0778112 -0.80599
10 3.71348 -0.102641 0.102191 1.55999 0.645291 0.0798625
11 1.72615 0 0 0.0194279 -0.0124617 -1.02549
12 1.21114 0 0 -0.00915483 0.0139676 -1.15628
13 3.59919 -1.06012 0.0708886 1.53849 0.357878 -0.138954
14 1.66069 0 0 -0.00234033 0.0720157 -0.267084
15 1.167 0 0 -0.0212855 0.0283246 -0.23815
16 2.18852 0.50104 0.0576593 1.55917 0.13705 0.146564
17 1.29609 0 0 0.00533155 -0.0465293 -0.302891
18 1.62202 0.000714302 -0.000471115 0.0228114 -0.0295792 -1.09019
19 1.22241 0 0 0.00650224 0.000457277 -1.08964
20 1.76707 1.27612 0.0366411 1.55741 0.17263 0.0984099
21 1.55587 0 0 -0.0150432 -0.0389028 -0.183922
22 1.24274 0 0 -0.000479232 0.000360509 -0.237287
23 0.784525 0 0 0.00416578 0.0145277 -1.01407
24 2.01306 0.806315 -13.2419 -0.000932693 0 -2.00317
25 6.02794 0 0 1.40031 0.443183 0.586403
26 11.7344 0 0 0.0014027 0 1.13572
27 8.81167 0 0 0.333459 0 0
28 5.77884 0 0 0.223417 0 0
29 2.23249 0 0 0.110041 0 0
30 11.4725 0 0 0.341064 -0.0478399 -0.127227
31 0.615814 0.994373 -0.809165 -2.97025 0.377536 0.373134
32 2.24752 0 0 -0.0863609 0.0306542 0.18756
33 1.11936 0 0 -0.129536 0.16338 -0.247734
34 3.71348 0.102642 0.102191 -1.57338 1.20801 -0.0947637
35 1.72615 0 0 -0.014004 -0.00309799 1.06922
36 1.21112 0 0 0.00907728 0.0151213 1.87168
37 3.5992 1.06012 0.0708885 -1.7608 1.02808 -0.234437
38 1.66069 0 0 0.0535003 0.0663869 0.806995
39 1.16699 0 0 -0.0256994 0.00585793 1.96948
40 2.18853 -0.501038 0.0576582 -1.57144 0.106396 -0.0540188
41 1.29609 0 0 0.0966379 0.0743868 0.990738
42 1.62202 -0.000715256 -0.000471115 -0.00454888 -0.031158 1.37171
43 1.22241 0 0 0.0245549 0.0111943 1.72151
44 1.76707 -1.27612 0.0366411 -1.54714 0.313946 0.0233514
45 1.55588 0 0 0.240314 -0.011401 1.10726
46 1.24273 0 0 0.00047888 -0.000351871 1.02076
47 0.784533 0 0 0.00744978 -0.00523568 1.65775
48 0 0 0 0 0 0
49 6 -19.5151 -9.80378 0 0 0
50 0 0.175507 4.39833 0 0 0
51 -0.243587 0.175507 5.00562 0 0 0
52 -8.98651 -15.2233 -5.2717 0 0 0
53 14.9865 -3.79351 -0.23805 0 0 0
54 0 -0.0303917 1.6467 0 0 0
55 0 -2.3184 2.62787 0 0 0
56 0 -2.34127 -0.129979 0 0 0
57 0 10.015 0.00570393 0 0 0
58 0 0.899643 -0.657643 0 0 0
59 0 -6.47112 1.19749 0 0 0
60 0 -0.221874 -1.53505 0 0 0
61 0 0.174824 -0.766596 0 0 0
62 0 0 -0.605335 0 0 0
63 0 -0.0467033 -0.715623 0 0 0
64 0 -0.0772591 -1.03217 0 0 0
65 0 0.00226593 -1.16841 0 0 0
time 1
0 5.56284 9.62242 -3.17563 0.000934124 0 -1.04975
1 6.02794 0 0 -0.93932 0.660288 -0.334316
2 11.7344 0 0 -0.00140291 0 -1.06399
3 8.81138 -0.000450134 -0.000112057 -0.18033 0 0.000157909
4 5.77839 0.000286102 0 -0.120821 0 0.000105031
5 2.23163 -0.000329971 -0.000363827 -0.0595091 0 0
6 11.4725 0 0 -0.44054 -0.449203 0.567485
7 0.615219 -0.993091 -0.8107 3.07196 0.47568 -0.191083
8 2.24752 0 0 0.0893818 0.100772 -0.129848
9 1.11936 0 0 0.0339425 0.077811 -0.80599
10 3.71348 -0.102641 0.102191 1.55999 0.645291 0.0798625
11 1.72615 0 0 0.0194279 -0.0124616 -1.02549
12 1.21114 0 0 -0.00915478 0.0139676 -1.15628
13 3.59919 -1.06012 0.0708883 1.53831 0.372596 -0.139468
14 1.66069 0 0 -0.0122688 0.0702524 -0.407674
15 1.167 0 0 -0.0238643 0.0241151 -0.378377
16 2.18852 0.50104 0.0576593 1.55917 0.13705 0.146564
17 1.29609 0 0 0.00533152 -0.0465293 -0.302891
18 1.62202 0.000713348 -0.000471115 0.0228114 -0.0295792 -1.0902
19 1.22241 0 0 0.00650225 0.00045729 -1.08964
20 1.76707 1.27612 0.0366402 1.55741 0.17263 0.0984098
21 1.55588 0 0 -0.0150432 -0.0389028 -0.183922
22 1.24273 0 0 -0.000479219 0.000360526 -0.237287
23 0.784523 0 0 0.00416578 0.0145277 -1.01407
24 2.01306 0.806315 -13.2419 -0.000932693 0 -2.00317
25 6.02794 0 0 1.39764 0.471473 0.583342
26 11.7344 0 0 0.00140269 0 1.25144
27 8.81167 0 0 0.340582 0 0
28 5.77884 0 0 0.22819 0 0
29 2.23249 0 0 0.112392 0 0
30 11.4725 0 0 0.374893 -0.038614 -0.363137
31 0.615814 0.994373 -0.809165 -2.97025 0.377536 0.373134
32 2.24752 0 0 -0.0863611 0.0306542 0.187559
33 1.11936 0 0 -0.129536 0.16338 -0.247734
34 3.71349 0.10264 0.102191 -1.57338 1.20801 -0.0947635
35 1.72615 0 0 -0.0140041 -0.00309806 1.06922
36 1.21112 0 0 0.00907727 0.0151213 1.87168
37 3.5992 1.06012 0.070888 -1.7608 1.02808 -0.234437
38 1.66069 0 0 0.0535004 0.0663869 0.806995
39 1.16699 0 0 -0.0256994 0.00585796 1.96948
40 2.18853 -0.501041 0.0576591 -1.57144 0.106396 -0.0540187
41 1.29609 0 0 0.0966379 0.0743869 0.990738
42 1.62202 -0.000713348 -0.000470161 -0.0045489 -0.0311579 1.37171
43 1.22241 0 0 0.0245549 0.0111942 1.72151
44 1.76707 -1.27612 0.0366411 -1.54714 0.313946 0.0233514
45 1.55588 0 0 0.240314 -0.011401 1.10726
46 1.24273 0 0 0.000478894 -0.000351907 1.02076
47 0.784533 0 0 0.00744981 -0.00523562 1.65775
48 0 0 0 0 0 0
49 6 -19.2602 -9.79706 -0.0127974 0 0
50 0 0.175505 4.39833 0 0 0
51 -0.243587 0.175507 5.00562 0 0 0
52 -8.98651 -15.2233 -5.2717 0 0 0
53 14.9865 -3.48372 -0.23805 -0.0127974 0 0
54 0 -2.36279 1.64671 0 0 0
55 0 -4.34546 2.62787 0 0 0
56 0 -2.27944 -0.125333 0.120748 0 0
57 0 10.015 0.00570393 0 0 0
58 0 0.899643 -0.657643 0 0 0
59 0 -6.47112 1.19749 0 0.0102757 0
60 0 -0.221874 -1.53505 -0.151199 -0.000904274 -0.00239164
61 0 0.174824 -0.766596 0.315193 -0.00137937 0.00675488
62 0 0 -0.605335 0 0 0
63 0 -0.0467033 -0.715623 0 0 0
64 0 -0.077261 -1.03217 0 0 0
65 0 0.00226593 -1.16841 0 0 0
time 2
0 5.56284 9.62242 -3.17563 0.000934124 0 -1.04975
1 6.02794 0 0 -0.883524 0.738399 -0.264981
2 11.7344 0 0 -0.00140281 0 -1.25306
3 8.81138 -0.000449181 -0.000112057 -0.132514 0 0.000158166
4 5.77839 0.000286102 0 -0.0887844 0 0.000105425
5 2.23163 -0.000329018 -0.000363827 -0.0437298 0 0
6 11.4725 0 0 -0.457167 -0.470462 0.64783
7 0.615218 -0.993091 -0.8107 3.07196 0.475681 -0.191083
8 2.24752 0 0 0.0893817 0.100772 -0.129848
9 1.11936 0 0 0.0339425 0.0778112 -0.80599
10 3.71348 -0.102641 0.102191 1.55999 0.645291 0.0798625
11 1.72615 0 0 0.0194279 -0.0124617 -1.02549
12 1.21114 0 0 -0.0091548 0.0139676 -1.15628
13 3.59919 -1.06012 0.0708882 1.53812 0.387314 -0.139981
14 1.66069 0 0 -0.0221972 0.0684893 -0.548264
15 1.167 0 0 -0.026443 0.0199056 -0.518605
16 2.18852 0.50104 0.0576593 1.55917 0.13705 0.146564
17 1.29609 0 0 0.00533152 -0.0465293 -0.302891
18 1.62202 0.000713348 -0.000470161 0.0228114 -0.0295792 -1.0902
19 1.22241 0 0 0.00650225 0.000457282 -1.08964
20 1.76707 1.27612 0.0366409 1.55741 0.17263 0.0984097
21 1.55587 0 0 -0.0150433 -0.0389028 -0.183922
22 1.24274 0 0 -0.000479219 0.000360518 -0.237287
23 0.784523 0 0 0.00416576 0.0145277 -1.01407
24 2.01306 0.806315 -13.2419 -0.000932693 0 -2.00317
25 6.02794 0 0 1.39566 0.496604 0.575175
26 11.7344 0 0 0.00140279 0 1.34853
27 8.81167 0 0 0.299836 0 0
28 5.77884 0 0 0.20089 0 0
29 2.23249 0 0 0.0989457 0 0
30 11.4725 0 0 0.329431 -0.0247932 -0.374922
31 0.615812 0.99437 -0.809165 -2.97025 0.377536 0.373134
32 2.24752 0 0 -0.086361 0.0306542 0.18756
33 1.11936 0 0 -0.129536 0.16338 -0.247734
34 3.71349 0.102638 0.10219 -1.57338 1.20801 -0.0947637
35 1.72615 0 0 -0.0140041 -0.00309804 1.06922
36 1.21112 0 0 0.00907728 0.0151212 1.87168
37 3.5992 1.06011 0.070888 -1.7608 1.02808 -0.234437
38 1.66069 0 0 0.0535004 0.0663869 0.806995
39 1.16699 0 0 -0.0256994 0.00585799 1.96948
40 2.18853 -0.501041 0.0576591 -1.57144 0.106396 -0.0540189
41 1.29609 0 0 0.0966379 0.0743869 0.990738
42 1.62202 -0.000715256 -0.000470161 -0.00454883 -0.0311579 1.37171
43 1.22241 0 0 0.0245549 0.0111943 1.72151
44 1.76707 -1.27612 0.0366411 -1.54714 0.313947 0.0233513
45 1.55587 0 0 0.240314 -0.011401 1.10726
46 1.24273 0 0 0.00047899 -0.000351918 1.02076
47 0.784533 0 0 0.00744985 -0.00523564 1.65775
48 0 0 0 0 0 0
49 5.95206 -18.1029 -9.55844 -0.0357825 0.0112834 0.000426984
50 0 0.175505 4.39833 0 0 0
51 -0.243587 0.175505 5.00562 0 0 0
52 -8.98651 -15.2233 -5.2717 0 0 0
53 14.9865 -2.228 -0.0135541 -0.0357825 0.0112834 0.000426984
54 0 -2.36278 1.64671 0 0 0
55 0 -4.34546 2.62787 0 0 0
56 0 -2.21761 -0.120687 0.241497 0 0
57 0 10.015 0.0057044 0 0 0
58 0 0.899642 -0.657644 0 0 0
59 0 -6.47111 1.19749 0 0.028981 0
60 0 -0.221874 -1.53505 -0.461994 -0.00276607 -0.0073156
61 0 0.174824 -0.766596 0.581223 -0.000740186 0.0102832
62 0 0 -0.605335 0 0 0
63 0 -0.0467014 -0.715624 0 0 0
64 0 -0.077261 -1.03217 0 0 0
65 0 0.00226784 -1.16841 0 0 0
time 3
0 5.56284 9.62242 -3.17563 0.000934124 0 -1.04975
1 6.02794 0 0 -0.894878 0.724842 -0.276995
2 11.7344 0 0 -0.00140284 0 -1.22144
3 8.81138 -0.000450134 -0.00011158 -0.164162 0 0.000158407
4 5.77839 0.000285149 0 -0.109989 0 0.000105484
5 2.23163 -0.000330925 -0.000363827 -0.0541736 0 0
6 11.4725 0 0 -0.468158 -0.477105 0.616506
7 0.615218 -0.993091 -0.8107 3.07196 0.47568 -0.191083
8 2.24752 0 0 0.0893818 0.100772 -0.129848
9 1.11936 0 0 0.0339426 0.077811 -0.80599
10 3.71348 -0.102641 0.102191 1.55999 0.645291 0.0798626
11 1.72615 0 0 0.0194279 -0.0124617 -1.02549
12 1.21114 0 0 -0.0091548 0.0139676 -1.15628
13 3.59919 -1.06012 0.0708878 1.53812 0.387314 -0.139981
14 1.66069 0 0 -0.0221973 0.0684893 -0.548264
15 1.167 0 0 -0.026443 0.0199056 -0.518605
16 2.18853 0.501039 0.0576589 1.55917 0.13705 0.146564
17 1.29609 0 0 0.0053315 -0.0465293 -0.302891
18 1.62201 0.000714302 -0.000471115 0.0228114 -0.0295792 -1.0902
19 1.22241 0 0 0.00650225 0.000457288 -1.08964
20 1.76707 1.27612 0.0366405 1.55741 0.17263 0.0984098
21 1.55588 0 0 -0.0150433 -0.0389028 -0.183922
22 1.24273 0 0 -0.000479223 0.000360522 -0.237287
23 0.784525 0 0 0.00416577 0.0145277 -1.01407
24 2.01306 0.806315 -13.2419 -0.000932693 0 -2.00317
25 6.02794 0 0 1.40175 0.444252 0.571958
26 11.7344 0 0 0.00140268 0 1.24696
27 8.81167 0 0 0.281884 0 0
28 5.77884 0 0 0.188862 0 0
29 2.23249 0 0 0.0930214 0 0
30 11.4725 0 0 0.290814 -0.00179748 -0.249409
31 0.615814 0.994373 -0.809165 -2.97025 0.377536 0.373134
32 2.24752 0 0 -0.0863609 0.0306541 0.18756
33 1.11936 0 0 -0.129536 0.16338 -0.247734
34 3.71348 0.10264 0.10219 -1.57338 1.20801 -0.0947639
35 1.72615 0 0 -0.0140041 -0.003098 1.06922
36 1.21112 0 0 0.00907728 0.0151213 1.87168
37 3.5992 1.06012 0.0708885 -1.7608 1.02808 -0.234437
38 1.66069 0 0 0.0535003 0.0663869 0.806994
39 1.16699 0 0 -0.0256995 0.00585798 1.96948
40 2.18853 -0.50104 0.0576587 -1.57144 0.106396 -0.0540187
41 1.29609 0 0 0.0966379 0.0743869 0.990738
42 1.62202 -0.000711441 -0.000469208 -0.00454883 -0.0311579 1.37171
43 1.22241 0 0 0.0245549 0.0111942 1.72151
44 1.76707 -1.27612 0.0366416 -1.54714 0.313946 0.0233514
45 1.55588 0 0 0.240314 -0.011401 1.10726
46 1.24273 0 0 0.000478939 -0.000351917 1.02076
47 0.784531 0 0 0.00744981 -0.00523574 1.65775
48 0 0 0 0 0 0
49 5.94444 -18.3726 -9.47002 -0.0571713 0.0257588 0.00127172
50 0 0.175507 4.39833 0 0 0
51 -0.243587 0.175508 5.00562 0 0 0
52 -8.98651 -15.2233 -5.2717 0 0 0
53 15.0397 -2.40631 0.0588136 -0.0571713 0.0257588 0.00127172
54 0 -2.36278 1.64671 0 0 0
55 0 -4.34546 2.62787 0 0 0
56 0 -2.21761 -0.120687 0.241497 0 0
57 0 10.015 0.00570393 0 0 0
58 0 0.899643 -0.657643 0 0 0
59 0 -6.47111 1.19749 0 0.0379326 0
60 0 -0.221876 -1.53505 -0.718184 -0.0043087 -0.0113955
61 0 0.174825 -0.766594 0.775714 0.000687115 0.0117032
62 0 0 -0.605335 0 0 0
63 0 -0.0467052 -0.715623 0 0 0
64 0 -0.0772552 -1.03217 0 0 0
65 0 0.00226402 -1.16841 0 0 0
time 4
0 5.56284 9.62242 -3.17563 0.000934124 0 -1.04975
1 6.02794 0 0 -0.905304 0.71201 -0.287591
2 11.7344 0 0 -0.00140292 0 -1.1959
3 8.81138 -0.000450134 -0.000112534 -0.184139 0 0.000158113
4 5.77839 0.000285149 0 -0.123373 0 0.000105064
5 2.23163 -0.000329971 -0.000363827 -0.0607658 0 0
6 11.4725 0 0 -0.477867 -0.476717 0.604419
7 0.615219 -0.993092 -0.810699 3.07196 0.475681 -0.191083
8 2.24752 0 0 0.0893817 0.100772 -0.129849
9 1.11936 0 0 0.0339424 0.0778112 -0.80599
10 3.71348 -0.102641 0.102191 1.55999 0.645291 0.0798625
11 1.72615 0 0 0.0194279 -0.0124617 -1.02549
12 1.21114 0 0 -0.0091548 0.0139676 -1.15628
13 3.59919 -1.06012 0.0708878 1.53812 0.387314 -0.139981
14 1.66069 0 0 -0.0221972 0.0684893 -0.548264
15 1.167 0 0 -0.026443 0.0199056 -0.518605
16 2.18853 0.50104 0.0576599 1.55917 0.13705 0.146564
17 1.29609 0 0 0.00533152 -0.0465293 -0.302891
18 1.62201 0.000713348 -0.000471115 0.0228114 -0.0295792 -1.0902
19 1.22241 0 0 0.00650225 0.000457284 -1.08964
20 1.76707 1.27612 0.0366411 1.55741 0.17263 0.0984098
21 1.55588 0 0 -0.0150433 -0.0389028 -0.183922
22 1.24273 0 0 -0.000479221 0.00036051 -0.237287
23 0.784525 0 0 0.00416577 0.0145277 -1.01407
24 2.01306 0.806315 -13.2419 -0.000932693 0 -2.00317
25 6.02794 0 0 1.404 0.415591 0.577022
26 11.7344 0 0 0.00140268 0 1.18996
27 8.81167 0 0 0.280132 0 0
28 5.77884 0 0 0.187689 0 0
29 2.23249 0 0 0.0924437 0 0
30 11.4725 0 0 0.285592 -0.00192017 -0.194731
31 0.615812 0.994371 -0.809166 -2.97025 0.377536 0.373134
32 2.24752 0 0 -0.086361 0.0306541 0.18756
33 1.11936 0 0 -0.129536 0.16338 -0.247734
34 3.71349 0.10264 0.10219 -1.57338 1.20801 -0.0947638
35 1.72615 0 0 -0.0140041 -0.00309798 1.06922
36 1.21112 0 0 0.00907724 0.0151213 1.87168
37 3.5992 1.06012 0.070888 -1.7608 1.02808 -0.234437
38 1.66069 0 0 0.0535004 0.0663869 0.806995
39 1.16699 0 0 -0.0256994 0.00585794 1.96948
40 2.18853 -0.50104 0.0576591 -1.57144 0.106396 -0.0540187
41 1.29609 0 0 0.0966379 0.0743868 0.990738
42 1.62202 -0.000711441 -0.000469208 -0.00454889 -0.031158 1.37171
43 1.22241 0 0 0.0245549 0.0111943 1.72151
44 1.76707 -1.27612 0.0366416 -1.54714 0.313946 0.0233515
45 1.55587 0 0 0.240314 -0.011401 1.10726
46 1.24273 0 0 0.000478947 -0.000351934 1.02076
47 0.784534 0 0 0.00744983 -0.00523569 1.65775
48 0 0 0 0 0 0
49 5.93996 -18.5667 -9.40928 -0.0624958 0.036872 0.0030959
50 0 0.175507 4.39833 0 0 0
51 -0.243588 0.175505 5.00562 0 0 0
52 -8.98651 -15.2233 -5.2717 0 0 0
53 15.0809 -2.57742 0.114058 -0.0624958 0.036872 0.0030959
54 0 -1.19659 1.64671 0 0 0
55 0 -3.33194 2.62787 0 0 0
56 0 -2.21761 -0.120686 0.241497 0 0
57 0 10.015 0.00570393 0 0 0
58 0 0.899643 -0.657643 0 0 0
59 0 -6.47112 1.19749 0 0.0245358 0
60 0 -0.221872 -1.53505 -0.818675 -0.00493973 -0.0130644
61 0 0.174825 -0.766596 0.854479 0.00173452 0.011694
62 0 0 -0.605335 0 0 0
63 0 -0.0467033 -0.715622 0 0 0
64 0 -0.0772572 -1.03217 0 0 0
65 0 0.00226593 -1.16841 0 0 0
time 5
0 5.56284 9.62242 -3.17563 0.000934124 0 -1.04975
1 6.02794 0 0 -0.914571 0.700122 -0.297025
2 11.7344 0 0 -0.00140293 0 -1.17441
3 8.81139 -0.000450134 -0.00011158 -0.196976 0 0.000157932
4 5.77839 0.000286102 0 -0.131974 0 0.000104969
5 2.23164 -0.000329971 -0.000363827 -0.0650021 0 0
6 11.4725 0 0 -0.486692 -0.472227 0.603355
7 0.615219 -0.993092 -0.8107 3.07196 0.47568 -0.191083
8 2.24752 0 0 0.0893818 0.100772 -0.129848
9 1.11935 0 0 0.0339425 0.0778112 -0.80599
10 3.71348 -0.102641 0.102191 1.55999 0.645291 0.0798626
11 1.72615 0 0 0.0194279 -0.0124617 -1.02549
12 1.21114 0 0 -0.0091548 0.0139676 -1.15628
13 3.59919 -1.06012 0.070888 1.53812 0.387314 -0.139981
14 1.66069 0 0 -0.0221973 0.0684892 -0.548264
15 1.167 0 0 -0.026443 0.0199056 -0.518605
16 2.18852 0.50104 0.0576589 1.55917 0.137051 0.146564
17 1.29609 0 0 0.00533154 -0.0465293 -0.302891
18 1.62202 0.000714302 -0.000471115 0.0228114 -0.0295792 -1.0902
19 1.22241 0 0 0.00650224 0.000457282 -1.08964
20 1.76707 1.27612 0.0366409 1.55741 0.17263 0.0984099
21 1.55588 0 0 -0.0150433 -0.0389028 -0.183922
22 1.24273 0 0 -0.000479215 0.000360519 -0.237287
23 0.784523 0 0 0.00416576 0.0145277 -1.01407
24 2.01306 0.806315 -13.2419 -0.000932693 0 -2.00317
25 6.02794 0 0 1.40442 0.400563 0.586226
26 11.7344 0 0 0.00140264 0 1.147
27 8.81167 0 0 0.289193 0 0
28 5.77884 0 0 0.193759 0 0
29 2.23249 0 0 0.0954338 0 0
30 11.4725 0 0 0.294213 -0.016206 -0.144831
31 0.615814 0.994371 -0.809165 -2.97025 0.377536 0.373134
32 2.24752 0 0 -0.0863609 0.0306542 0.18756
33 1.11936 0 0 -0.129536 0.16338 -0.247734
34 3.71349 0.10264 0.102192 -1.57338 1.20801 -0.094764
35 1.72615 0 0 -0.014004 -0.00309811 1.06922
36 1.21112 0 0 0.00907728 0.0151213 1.87168
37 3.5992 1.06012 0.070889 -1.7608 1.02808 -0.234437
38 1.66069 0 0 0.0535003 0.0663869 0.806995
39 1.16699 0 0 -0.0256995 0.00585794 1.96948
40 2.18853 -0.501041 0.0576601 -1.57144 0.106396 -0.0540188
41 1.29609 0 0 0.0966379 0.0743869 0.990738
42 1.62202 -0.000713348 -0.000469208 -0.00454887 -0.031158 1.37171
43 1.2224 0 0 0.0245549 0.0111942 1.72151
44 1.76707 -1.27612 0.0366421 -1.54714 0.313946 0.0233512
45 1.55588 0 0 0.240314 -0.011401 1.10726
46 1.24273 0 0 0.000478884 -0.000351895 1.02076
47 0.784533 0 0 0.00744975 -0.00523567 1.65775
48 0 0 0 0 0 0
49 5.93287 -18.7136 -9.37272 -0.0583681 0.0457829 0.00533168
50 0 0.175505 4.39832 0 0 0
51 -0.243588 0.175505 5.00562 0 0 0
52 -8.98651 -15.2233 -5.2717 0 0 0
53 15.1102 -2.74133 0.152177 -0.0583681 0.0457829 0.00533168
54 0 -0.0303898 1.6467 0 0 0
55 0 -2.3184 2.62787 0 0 0
56 0 -2.21761 -0.120687 0.241497 0 0
57 0 10.015 0.00570393 0 0 0
58 0 0.899643 -0.657643 0 0 0
59 0 -6.47112 1.19749 0 -0.00297054 0
60 0 -0.221874 -1.53505 -0.82002 -0.00500127 -0.0132271
61 0 0.174824 -0.766598 0.832248 0.00279136 0.0100293
62 0 0 -0.605335 0 0 0
63 0 -0.0467014 -0.715623 0 0 0
64 0 -0.077261 -1.03217 0 0 0
65 0 0.00226593 -1.16841 0 0 0
time 6
0 5.56284 9.62242 -3.17563 0.000934124 0 -1.04975
1 6.02794 0 0 -0.922875 0.689147 -0.30529
2 11.7344 0 0 -0.00140275 0 -1.1538
3 8.81138 -0.000450134 -0.00011158 -0.202898 0 0.000158056
4 5.77839 0.000286102 0 -0.135942 0 0.000104902
5 2.23163 -0.000329018 -0.000363827 -0.0669563 0 0
6 11.4725 0 0 -0.487981 -0.466809 0.600531
7 0.61522 -0.993091 -0.8107 3.07196 0.47568 -0.191083
8 2.24752 0 0 0.0893817 0.100772 -0.129849
9 1.11936 0 0 0.0339426 0.0778113 -0.80599
10 3.71348 -0.102641 0.102191 1.55999 0.645291 0.0798625
11 1.72615 0 0 0.0194279 -0.0124617 -1.02549
12 1.21114 0 0 -0.00915479 0.0139676 -1.15628
13 3.59919 -1.06012 0.0708883 1.53812 0.387314 -0.139981
14 1.66069 0 0 -0.0221973 0.0684892 -0.548264
15 1.167 0 0 -0.026443 0.0199056 -0.518605
16 2.18853 0.50104 0.0576591 1.55917 0.13705 0.146564
17 1.29609 0 0 0.00533152 -0.0465293 -0.302891
18 1.62202 0.000714302 -0.000471592 0.0228114 -0.0295792 -1.0902
19 1.22241 0 0 0.00650225 0.000457291 -1.08964
20 1.76707 1.27612 0.0366412 1.55741 0.17263 0.0984098
21 1.55588 0 0 -0.0150433 -0.0389028 -0.183922
22 1.24273 0 0 -0.000479223 0.00036052 -0.237287
23 0.784523 0 0 0.00416577 0.0145277 -1.01407
24 2.01306 0.806315 -13.2419 -0.000932693 0 -2.00317
25 6.02794 0 0 1.4037 0.396976 0.596317
26 11.7344 0 0 0.00140257 0 1.12651
27 8.81167 0 0 0.305921 0 0
28 5.77884 0 0 0.204967 0 0
29 2.23249 0 0 0.100954 0 0
30 11.4725 0 0 0.312426 -0.0390923 -0.125202
31 0.615814 0.994373 -0.809165 -2.97025 0.377536 0.373134
32 2.24752 0 0 -0.0863609 0.0306543 0.18756
33 1.11936 0 0 -0.129536 0.16338 -0.247734
34 3.71349 0.10264 0.102191 -1.57338 1.20801 -0.0947636
35 1.72615 0 0 -0.0140041 -0.00309806 1.06922
36 1.21112 0 0 0.00907731 0.0151213 1.87168
37 3.5992 1.06012 0.0708885 -1.7608 1.02808 -0.234437
38 1.66069 0 0 0.0535003 0.0663869 0.806995
39 1.16699 0 0 -0.0256995 0.0058579 1.96948
40 2.18853 -0.50104 0.0576601 -1.57144 0.106396 -0.0540188
41 1.29609 0 0 0.096638 0.074387 0.990738
42 1.62202 -0.000713348 -0.000469208 -0.00454891 -0.0311579 1.37171
43 1.22241 0 0 0.0245549 0.0111942 1.72151
44 1.76707 -1.27612 0.0366416 -1.54714 0.313946 0.0233513
45 1.55587 0 0 0.240314 -0.011401 1.10726
46 1.24273 0 0 0.000478864 -0.000351901 1.02076
47 0.784533 0 0 0.00744981 -0.00523566 1.65775
48 0 0 0 0 0 0
49 5.94168 -18.847 -9.35537 -0.0528407 0.0478802 0.00626635
50 0 0.175508 4.39833 0 0 0
51 -0.243587 0.175508 5.00562 0 0 0
52 -8.98651 -15.2233 -5.2717 0 0 0
53 15.1276 -2.89805 0.173172 -0.0528407 0.0478802 0.00626635
54 0 -0.0303936 1.6467 0 0 0
55 0 -2.3184 2.62787 0 0 0
56 0 -2.21761 -0.120687 0.241497 0 0
57 0 10.015 0.00570345 0 0 0
58 0 0.899643 -0.657643 0 0 0
59 0 -6.47112 1.19749 0 -0.0315185 0
60 0 -0.221876 -1.53505 -0.744488 -0.00461848 -0.0122147
61 0 0.174823 -0.766596 0.752642 0.00373282 0.00758745
62 0 0 -0.605336 0 0 0
63 0 -0.0467052 -0.715622 0 0 0
64 0 -0.0772591 -1.03217 0 0 0
65 0 0.00226784 -1.16841 0 0 0
time 7
0 5.56284 9.62242 -3.17563 0.000934124 0 -1.04975
1 6.02794 0 0 -0.930312 0.679054 -0.31253
2 11.7344 0 0 -0.0014028 0 -1.1321
3 8.81139 -0.000449181 -0.000112534 -0.199088 0 0.000158326
4 5.77839 0.000287056 0 -0.133389 0 0.000105211
5 2.23163 -0.000329018 -0.000364304 -0.0656992 0 0
6 11.4725 0 0 -0.475555 -0.46164 0.589325
7 0.61522 -0.993091 -0.8107 3.07196 0.47568 -0.191084
8 2.24752 0 0 0.0893815 0.100772 -0.129848
9 1.11936 0 0 0.0339426 0.0778112 -0.80599
10 3.71348 -0.102641 0.102191 1.55999 0.645291 0.0798623
11 1.72615 0 0 0.0194279 -0.0124617 -1.02549
12 1.21114 0 0 -0.0091548 0.0139676 -1.15628
13 3.59919 -1.06012 0.070888 1.53818 0.382715 -0.139821
14 1.66069 0 0 -0.0190946 0.0690402 -0.50433
15 1.167 0 0 -0.0256372 0.021221 -0.474784
16 2.18853 0.50104 0.0576589 1.55917 0.13705 0.146564
17 1.29609 0 0 0.00533152 -0.0465293 -0.302891
18 1.62201 0.000714302 -0.000471592 0.0228114 -0.0295792 -1.0902
19 1.22241 0 0 0.00650224 0.000457279 -1.08964
20 1.76707 1.27612 0.0366406 1.55741 0.17263 0.0984098
21 1.55588 0 0 -0.0150433 -0.0389028 -0.183922
22 1.24273 0 0 -0.000479222 0.000360512 -0.237287
23 0.784523 0 0 0.00416576 0.0145277 -1.01407
24 2.01306 0.806315 -13.2419 -0.000932693 0 -2.00317
25 6.02794 0 0 1.40215 0.405795 0.603707
26 11.7344 0 0 0.00140272 0 1.14058
27 8.81167 0 0 0.327247 0 0
28 5.77884 0 0 0.219256 0 0
29 2.23249 0 0 0.107992 0 0
30 11.4725 0 0 0.340347 -0.063158 -0.166443
31 0.615813 0.994373 -0.809165 -2.97025 0.377536 0.373134
32 2.24752 0 0 -0.0863609 0.0306542 0.18756
33 1.11936 0 0 -0.129536 0.16338 -0.247734
34 3.71348 0.102642 0.10219 -1.57338 1.20801 -0.0947638
35 1.72615 0 0 -0.014004 -0.00309802 1.06922
36 1.21112 0 0 0.00907718 0.0151212 1.87168
37 3.5992 1.06012 0.0708876 -1.7608 1.02808 -0.234437
38 1.66069 0 0 0.0535004 0.0663869 0.806995
39 1.16699 0 0 -0.0256994 0.00585798 1.96948
40 2.18853 -0.501038 0.0576587 -1.57144 0.106396 -0.0540188
41 1.29609 0 0 0.0966379 0.0743868 0.990738
42 1.62202 -0.000713348 -0.000471115 -0.00454884 -0.031158 1.37171
43 1.22241 0 0 0.0245549 0.0111943 1.72151
44 1.76707 -1.27612 0.0366416 -1.54714 0.313946 0.0233513
45 1.55588 0 0 0.240314 -0.011401 1.10726
46 1.24273 0 0 0.000478886 -0.000351922 1.02076
47 0.784531 0 0 0.0074498 -0.00523563 1.65775
48 0 0 0 0 0 0
49 5.97958 -18.9839 -9.36477 -0.0488252 0.0380411 0.00452804
50 0 0.17551 4.39833 0 0 0
51 -0.243587 0.175508 5.00562 0 0 0
52 -8.98651 -15.2233 -5.2717 0 0 0
53 15.1251 -3.05263 0.168446 -0.0488252 0.0380411 0.00452804
54 0 -0.0303917 1.6467 0 0 0
55 0 -2.3184 2.62787 0 0 0
56 0 -2.23114 -0.121704 0.215083 0 0
57 0 10.015 0.00570393 0 0 0
58 0 0.899642 -0.657643 0 0 0
59 0 -6.47112 1.19749 0 -0.0480404 0
60 0 -0.221874 -1.53505 -0.614353 -0.00391652 -0.0103583
61 0 0.174822 -0.766596 0.659285 0.0044341 0.00524671
62 0 0 -0.605335 0 0 0
63 0 -0.0467033 -0.715623 0 0 0
64 0 -0.0772591 -1.03217 0 0 0
65 0 0.00226593 -1.16841 0 0 0
time 8
0 5.56284 9.62242 -3.17563 0.000934124 0 -1.04975
1 6.02794 0 0 -0.936903 0.669432 -0.319799
2 11.7344 0 0 -0.00140279 0 -1.10921
3 8.81138 -0.000451088 -0.00011158 -0.189222 0 0.000158199
4 5.77839 0.000287056 0 -0.126779 0 0.00010508
5 2.23163 -0.000329971 -0.000363827 -0.0624433 0 0
6 11.4725 0 0 -0.456113 -0.456483 0.575305
7 0.61522 -0.993091 -0.8107 3.07196 0.47568 -0.191083
8 2.24752 0 0 0.0893818 0.100772 -0.129848
9 1.11936 0 0 0.0339426 0.0778112 -0.80599
10 3.71348 -0.102641 0.102191 1.55999 0.645291 0.0798625
11 1.72615 0 0 0.0194279 -0.0124617 -1.02549
12 1.21114 0 0 -0.0091548 0.0139676 -1.15628
13 3.59919 -1.06012 0.0708879 1.53831 0.372596 -0.139468
14 1.66069 0 0 -0.0122688 0.0702525 -0.407674
15 1.167 0 0 -0.0238643 0.0241151 -0.378378
16 2.18852 0.50104 0.057659 1.55917 0.13705 0.146564
17 1.29609 0 0 0.00533151 -0.0465293 -0.302891
18 1.62202 0.000714302 -0.000472069 0.0228114 -0.0295792 -1.0902
19 1.22241 0 0 0.00650225 0.000457289 -1.08964
20 1.76707 1.27612 0.0366409 1.55741 0.17263 0.0984098
21 1.55588 0 0 -0.0150433 -0.0389028 -0.183922
22 1.24273 0 0 -0.000479224 0.000360514 -0.237287
23 0.784523 0 0 0.00416578 0.0145277 -1.01407
24 2.01306 0.806315 -13.2419 -0.000932693 0 -2.00317
25 6.02794 0 0 1.40076 0.419285 0.604931
26 11.7344 0 0 0.00140274 0 1.16643
27 8.81167 0 0 0.340391 0 0
28 5.77884 0 0 0.228062 0 0
29 2.23249 0 0 0.112329 0 0
30 11.4725 0 0 0.362164 -0.0755474 -0.220669
31 0.615813 0.994373 -0.809165 -2.97025 0.377536 0.373134
32 2.24752 0 0 -0.086361 0.0306541 0.18756
33 1.11936 0 0 -0.129536 0.16338 -0.247734
34 3.71348 0.10264 0.102191 -1.57338 1.20801 -0.0947638
35 1.72615 0 0 -0.0140041 -0.00309807 1.06922
36 1.21112 0 0 0.00907731 0.0151213 1.87168
37 3.5992 1.06012 0.070888 -1.7608 1.02808 -0.234437
38 1.66069 0 0 0.0535004 0.0663868 0.806995
39 1.16699 0 0 -0.0256995 0.00585794 1.96948
40 2.18853 -0.501041 0.0576601 -1.57144 0.106396 -0.0540188
41 1.29609 0 0 0.0966379 0.0743869 0.990738
42 1.62202 -0.000713348 -0.000469208 -0.00454887 -0.0311579 1.37171
43 1.2224 0 0 0.0245549 0.0111942 1.72151
44 1.76707 -1.27612 0.0366411 -1.54714 0.313946 0.0233515
45 1.55587 0 0 0.240314 -0.011401 1.10726
46 1.24273 0 0 0.000478906 -0.000351916 1.02076
47 0.784533 0 0 0.00744979 -0.00523567 1.65775
48 0 0 0 0 0 0
49 6.02318 -19.1153 -9.4038 -0.0436375 0.0213884 0.00148863
50 0 0.175508 4.39833 0 0 0
51 -0.243588 0.175508 5.00562 0 0 0
52 -8.98651 -15.2233 -5.2717 0 0 0
53 15.1 -3.20676 0.135133 -0.0436375 0.0213884 0.00148863
54 0 -0.0303917 1.64671 0 0 0
55 0 -2.3184 2.62787 0 0 0
56 0 -2.26398 -0.124171 0.150936 0 0
57 0 10.015 0.00570393 0 0 0
58 0 0.899643 -0.657643 0 0 0
59 0 -6.47112 1.19749 0 -0.0455749 0
60 0 -0.221872 -1.53505 -0.451883 -0.00302056 -0.00798868
61 0 0.174822 -0.766596 0.536523 0.00493056 0.00275827
62 0 0 -0.605335 0 0 0
63 0 -0.0467033 -0.715623 0 0 0
64 0 -0.0772591 -1.03217 0 0 0
65 0 0.00226784 -1.16841 0 0 0
time 9
0 5.56284 9.62242 -3.17563 0.000934124 0 -1.04975
1 6.02794 0 0 -0.942291 0.660359 -0.327834
2 11.7344 0 0 -0.00140274 0 -1.0864
3 8.81138 -0.000450134 -0.000112057 -0.18263 0 0.000158354
4 5.77839 0.000286102 0 -0.122362 0 0.000105256
5 2.23163 -0.000329971 -0.000362873 -0.0602681 0 0
6 11.4725 0 0 -0.442433 -0.45268 0.564932
7 0.615219 -0.993091 -0.8107 3.07196 0.47568 -0.191083
8 2.24752 0 0 0.0893819 0.100772 -0.129849
9 1.11936 0 0 0.0339424 0.0778113 -0.80599
10 3.71348 -0.102642 0.102191 1.55999 0.645291 0.0798625
11 1.72615 0 0 0.0194279 -0.0124617 -1.02549
12 1.21114 0 0 -0.00915479 0.0139676 -1.15628
13 3.59919 -1.06012 0.0708879 1.53844 0.362478 -0.139115
14 1.66068 0 0 -0.00544297 0.0714647 -0.311018
15 1.167 0 0 -0.0220914 0.0270091 -0.281971
16 2.18853 0.50104 0.0576582 1.55917 0.13705 0.146564
17 1.29609 0 0 0.00533151 -0.0465293 -0.302891
18 1.62202 0.000712395 -0.000471115 0.0228114 -0.0295792 -1.0902
19 1.22241 0 0 0.00650224 0.00045729 -1.08964
20 1.76707 1.27612 0.0366409 1.55741 0.17263 0.0984098
21 1.55588 0 0 -0.0150433 -0.0389028 -0.183922
22 1.24273 0 0 -0.000479217 0.000360503 -0.237287
23 0.784523 0 0 0.00416575 0.0145277 -1.01407
24 2.01306 0.806315 -13.2419 -0.000932693 0 -2.00317
25 6.02794 0 0 1.40026 0.429674 0.599933
26 11.7344 0 0 0.00140269 0 1.17955
27 8.81167 0 0 0.339821 0 0
28 5.77884 0 0 0.22768 0 0
29 2.23249 0 0 0.112141 0 0
30 11.4725 0 0 0.363257 -0.0724498 -0.236342
31 0.615813 0.994371 -0.809166 -2.97025 0.377536 0.373134
32 2.24752 0 0 -0.086361 0.0306543 0.187559
33 1.11936 0 0 -0.129536 0.16338 -0.247734
34 3.71349 0.102638 0.10219 -1.57338 1.20801 -0.0947636
35 1.72615 0 0 -0.0140041 -0.00309803 1.06922
36 1.21112 0 0 0.00907732 0.0151213 1.87168
37 3.5992 1.06012 0.0708885 -1.7608 1.02808 -0.234437
38 1.66069 0 0 0.0535003 0.0663869 0.806995
39 1.16699 0 0 -0.0256994 0.00585797 1.96948
40 2.18853 -0.501041 0.0576582 -1.57144 0.106396 -0.0540189
41 1.29609 0 0 0.0966379 0.0743869 0.990738
42 1.62201 -0.000713348 -0.000469208 -0.0045489 -0.0311579 1.37171
43 1.22241 0 0 0.0245549 0.0111942 1.72151
44 1.76707 -1.27612 0.0366402 -1.54714 0.313946 0.0233513
45 1.55588 0 0 0.240314 -0.0114009 1.10726
46 1.24273 0 0 0.000478873 -0.000351914 1.02076
47 0.784531 0 0 0.00744981 -0.00523567 1.65775
48 0 0 0 0 0 0
49 6.03635 -19.2351 -9.46241 -0.0369364 0.00867861 -0.000448877
50 0 0.175507 4.39833 0 0 0
51 -0.243588 0.175508 5.00562 0 0 0
52 -8.98651 -15.2233 -5.2717 0 0 0
53 15.0602 -3.35538 0.0818295 -0.0369364 0.00867861 -0.000448877
54 0 -0.0303917 1.6467 0 0 0
55 0 -2.3184 2.62787 0 0 0
56 0 -2.30456 -0.127221 0.0716943 0 0
57 0 10.015 0.00570345 0 0 0
58 0 0.899643 -0.657643 0 0 0
59 0 -6.47112 1.19749 0 -0.0296992 0
60 0 -0.221874 -1.53505 -0.279351 -0.00205577 -0.00543705
61 0 0.174822 -0.766596 0.370187 0.00526589 -0.000185311
62 0 0 -0.605335 0 0 0
63 0 -0.0467014 -0.715624 0 0 0
64 0 -0.077261 -1.03217 0 0 0
65 0 0.00226784 -1.16841 0 0 0
time 10
0 5.56284 9.62242 -3.17563 0.000934124 0 -1.04975
1 6.02794 0 0 -0.946494 0.651922 -0.336598
2 11.7344 0 0 -0.00140283 0 -1.06476
3 8.81138 -0.000449181 -0.00011158 -0.182116 0 0.000158119
4 5.77839 0.000286102 0 -0.122018 0 0.000105154
5 2.23163 -0.000329018 -0.000364304 -0.0600982 0 0
6 11.4725 0 0 -0.438855 -0.450515 0.561139
7 0.615219 -0.993091 -0.8107 3.07196 0.47568 -0.191083
8 2.24752 0 0 0.0893817 0.100772 -0.129849
9 1.11936 0 0 0.0339426 0.0778111 -0.80599
10 3.71348 -0.102641 0.102191 1.55999 0.645291 0.0798625
11 1.72615 0 0 0.0194279 -0.0124617 -1.02549
12 1.21114 0 0 -0.00915481 0.0139676 -1.15628
13 3.59919 -1.06012 0.0708885 1.53849 0.357878 -0.138954
14 1.66068 0 0 -0.00234033 0.0720157 -0.267084
15 1.167 0 0 -0.0212855 0.0283246 -0.23815
16 2.18852 0.50104 0.0576596 1.55917 0.13705 0.146564
17 1.29609 0 0 0.00533152 -0.0465293 -0.302891
18 1.62202 0.000712395 -0.000471115 0.0228114 -0.0295792 -1.0902
19 1.22241 0 0 0.00650225 0.000457288 -1.08964
20 1.76707 1.27612 0.0366409 1.55741 0.17263 0.0984097
21 1.55587 0 0 -0.0150433 -0.0389028 -0.183922
22 1.24273 0 0 -0.000479212 0.000360527 -0.237287
23 0.784523 0 0 0.00416577 0.0145277 -1.01407
24 2.01306 0.806315 -13.2419 -0.000932693 0 -2.00317
25 6.02794 0 0 1.40035 0.438755 0.590326
26 11.7344 0 0 0.00140258 0 1.19073
27 8.81167 0 0 0.330482 0 0
28 5.77884 0 0 0.221423 0 0
29 2.23249 0 0 0.109059 0 0
30 11.4725 0 0 0.351676 -0.0551029 -0.245482
31 0.615812 0.994373 -0.809165 -2.97025 0.377536 0.373134
32 2.24752 0 0 -0.0863609 0.0306542 0.18756
33 1.11935 0 0 -0.129536 0.16338 -0.247734
34 3.71348 0.10264 0.10219 -1.57338 1.20801 -0.0947638
35 1.72615 0 0 -0.0140041 -0.00309802 1.06922
36 1.21112 0 0 0.00907725 0.0151213 1.87168
37 3.5992 1.06012 0.0708885 -1.7608 1.02808 -0.234437
38 1.66069 0 0 0.0535004 0.0663869 0.806995
39 1.16699 0 0 -0.0256994 0.00585802 1.96948
40 2.18853 -0.501041 0.0576582 -1.57144 0.106396 -0.0540188
41 1.29609 0 0 0.0966379 0.0743869 0.990738
42 1.62202 -0.000713348 -0.000469208 -0.00454885 -0.0311579 1.37171
43 1.22241 0 0 0.0245549 0.0111943 1.72151
44 1.76707 -1.27612 0.0366416 -1.54714 0.313946 0.0233514
45 1.55587 0 0 0.240314 -0.0114011 1.10726
46 1.24273 0 0 0.000478884 -0.000351895 1.02076
47 0.784531 0 0 0.00744975 -0.00523564 1.65775
48 0 0 0 0 0 0
49 6.01157 -19.3366 -9.5327 -0.0283807 0.00367821 -0.000131876
50 0 0.175507 4.39833 0 0 0
51 -0.243588 0.175505 5.00562 0 0 0
52 -8.98651 -15.2233 -5.2717 0 0 0
53 15.0139 -3.49343 0.0171337 -0.0283807 0.00367821 -0.000131876
54 0 -0.0303917 1.6467 0 0 0
55 0 -2.3184 2.62787 0 0 0
56 0 -2.34127 -0.129979 0 0 0
57 0 10.015 0.00570345 0 0 0
58 0 0.899643 -0.657643 0 0 0
59 0 -6.47112 1.19749 0 -0.00615341 0
60 0 -0.221874 -1.53505 -0.119026 -0.0011473 -0.00303437
61 0 0.174826 -0.766596 0.206122 0.00532776 -0.00279351
62 0 0 -0.605335 0 0 0
63 0 -0.0467033 -0.715623 0 0 0
64 0 -0.0772591 -1.03217 0 0 0
65 0 0.00226593 -1.16841 0 0 0
time 11
0 5.56284 9.62242 -3.17563 0.000934124 0 -1.04975
1 6.02794 0 0 -0.949816 0.644614 -0.3446
2 11.7344 0 0 -0.00140278 0 -1.0462
3 8.81138 -0.000449181 -0.000112057 -0.183495 0 0.000158099
4 5.77839 0.000287056 0 -0.122942 0 0.000105206
5 2.23163 -0.000329018 -0.00036335 -0.0605533 0 0
6 11.4725 0 0 -0.439738 -0.447498 0.562486
7 0.615221 -0.993092 -0.810699 3.07196 0.47568 -0.191083
8 2.24752 0 0 0.0893817 0.100772 -0.129848
9 1.11936 0 0 0.0339426 0.0778113 -0.80599
10 3.71348 -0.102641 0.102192 1.55999 0.645291 0.0798625
11 1.72615 0 0 0.0194279 -0.0124617 -1.02549
12 1.21114 0 0 -0.00915481 0.0139676 -1.15628
13 3.59919 -1.06012 0.0708884 1.53849 0.357878 -0.138954
14 1.66069 0 0 -0.0023403 0.0720157 -0.267084
15 1.167 0 0 -0.0212855 0.0283246 -0.23815
16 2.18853 0.50104 0.0576593 1.55917 0.13705 0.146564
17 1.29609 0 0 0.00533151 -0.0465293 -0.302891
18 1.62202 0.000713348 -0.000471115 0.0228114 -0.0295792 -1.0902
19 1.22241 0 0 0.00650225 0.000457288 -1.08964
20 1.76707 1.27612 0.0366417 1.55741 0.17263 0.0984097
21 1.55588 0 0 -0.0150433 -0.0389028 -0.183922
22 1.24274 0 0 -0.000479215 0.000360519 -0.237287
23 0.784521 0 0 0.00416578 0.0145277 -1.01407
24 2.01306 0.806315 -13.2419 -0.000932693 0 -2.00317
25 6.02794 0 0 1.40048 0.44884 0.579378
26 11.7344 0 0 0.00140261 0 1.21001
27 8.81167 0 0 0.320293 0 0
28 5.77884 0 0 0.214596 0 0
29 2.23249 0 0 0.105697 0 0
30 11.4725 0 0 0.340375 -0.0329358 -0.277909
31 0.615812 0.994373 -0.809165 -2.97025 0.377536 0.373134
32 2.24752 0 0 -0.0863611 0.0306541 0.18756
33 1.11936 0 0 -0.129536 0.16338 -0.247734
34 3.71348 0.102642 0.10219 -1.57338 1.20801 -0.0947639
35 1.72615 0 0 -0.0140041 -0.00309802 1.06922
36 1.21112 0 0 0.00907728 0.0151213 1.87168
37 3.5992 1.06012 0.0708885 -1.7608 1.02808 -0.234438
38 1.66069 0 0 0.0535004 0.0663869 0.806995
39 1.16699 0 0 -0.0256995 0.00585794 1.96948
40 2.18853 -0.501038 0.0576591 -1.57144 0.106396 -0.0540188
41 1.29609 0 0 0.0966379 0.0743869 0.990738
42 1.62202 -0.000711441 -0.000469208 -0.00454889 -0.0311579 1.37171
43 1.22241 0 0 0.0245549 0.0111942 1.72151
44 1.76707 -1.27612 0.0366411 -1.54714 0.313947 0.0233513
45 1.55587 0 0 0.240314 -0.011401 1.10726
46 1.24273 0 0 0.000478919 -0.000351893 1.02076
47 0.784531 0 0 0.00744977 -0.00523566 1.65775
48 0 0 0 0 0 0
49 5.97307 -19.413 -9.60663 -0.0176292 0.00225937 0.00058385
50 0 0.175505 4.39833 0 0 0
51 -0.243588 0.175505 5.00562 0 0 0
52 -8.98651 -15.2233 -5.2717 0 0 0
53 14.9689 -3.61584 -0.0503573 -0.0176292 0.00225937 0.00058385
54 0 -0.0303917 1.6467 0 0 0
55 0 -2.3184 2.62787 0 0 0
56 0 -2.34127 -0.129979 0 0 0
57 0 10.015 0.00570393 0 0 0
58 0 0.899643 -0.657643 0 0 0
59 0 -6.47112 1.19749 0 0.0193226 0
60 0 -0.221874 -1.53505 0.00682042 -0.00042031 -0.00111168
61 0 0.174824 -0.766596 0.0901719 0.00500383 -0.0042758
62 0 0 -0.605335 0 0 0
63 0 -0.0467014 -0.715623 0 0 0
64 0 -0.077261 -1.03217 0 0 0
65 0 0.00226784 -1.16841 0 0 0
time 12
0 5.56284 9.62242 -3.17563 0.000934124 0 -1.04975
1 6.02794 0 0 -0.952563 0.638646 -0.35087
2 11.7344 0 0 -0.00140282 0 -1.0328
3 8.81138 -0.000448227 -0.000112057 -0.185 0 0.00015768
4 5.77839 0.000287056 0 -0.12395 0 0.000104865
5 2.23163 -0.000329018 -0.000363827 -0.0610499 0 0
6 11.4725 0 0 -0.443868 -0.440557 0.571681
7 0.615219 -0.993091 -0.8107 3.07196 0.475681 -0.191084
8 2.24752 0 0 0.0893817 0.100772 -0.129848
9 1.11936 0 0 0.0339424 0.0778113 -0.80599
10 3.71348 -0.102641 0.102191 1.55999 0.645291 0.0798624
11 1.72614 0 0 0.0194279 -0.0124617 -1.02549
12 1.21114 0 0 -0.00915481 0.0139676 -1.15628
13 3.59919 -1.06012 0.0708882 1.53849 0.357879 -0.138954
14 1.66069 0 0 -0.00234031 0.0720157 -0.267084
15 1.167 0 0 -0.0212855 0.0283246 -0.23815
16 2.18853 0.50104 0.0576586 1.55917 0.137051 0.146564
17 1.29609 0 0 0.00533151 -0.0465293 -0.302891
18 1.62202 0.000714302 -0.000471115 0.0228114 -0.0295792 -1.0902
19 1.22241 0 0 0.00650225 0.000457289 -1.08964
20 1.76707 1.27612 0.0366405 1.55741 0.17263 0.0984098
21 1.55588 0 0 -0.0150433 -0.0389028 -0.183922
22 1.24274 0 0 -0.000479225 0.00036051 -0.237287
23 0.784523 0 0 0.00416577 0.0145277 -1.01407
24 2.01306 0.806315 -13.2419 -0.000932693 0 -2.00317
25 6.02794 0 0 1.40037 0.45994 0.569614
26 11.7344 0 0 0.00140267 0 1.23372
27 8.81167 0 0 0.312669 0 0
28 5.77884 0 0 0.209488 0 0
29 2.23249 0 0 0.103181 0 0
30 11.4725 0 0 0.333131 -0.0130648 -0.32901
31 0.615814 0.994373 -0.809165 -2.97025 0.377536 0.373134
32 2.24752 0 0 -0.0863609 0.0306542 0.18756
33 1.11936 0 0 -0.129536 0.16338 -0.247734
34 3.71349 0.102642 0.10219 -1.57338 1.20801 -0.094764
35 1.72615 0 0 -0.014004 -0.00309803 1.06922
36 1.21112 0 0 0.00907725 0.0151213 1.87168
37 3.5992 1.06012 0.0708885 -1.7608 1.02808 -0.234437
38 1.66069 0 0 0.0535003 0.0663869 0.806995
39 1.16699 0 0 -0.0256995 0.0058579 1.96948
40 2.18853 -0.501038 0.0576596 -1.57144 0.106396 -0.0540189
41 1.29609 0 0 0.0966379 0.0743869 0.990738
42 1.62202 -0.000711441 -0.000469208 -0.00454885 -0.0311579 1.37171
43 1.2224 0 0 0.0245549 0.0111942 1.72151
44 1.76707 -1.27612 0.0366426 -1.54714 0.313946 0.0233514
45 1.55587 0 0 0.240314 -0.011401 1.10726
46 1.24273 0 0 0.000478865 -0.000351867 1.02076
47 0.784533 0 0 0.0074498 -0.00523564 1.65775
48 0 0 0 0 0 0
49 5.93048 -19.4482 -9.67668 -0.00212365 0.00387991 0.000651241
50 0 0.175507 4.39833 0 0 0
51 -0.243587 0.175507 5.00562 0 0 0
52 -8.98651 -15.2233 -5.2717 0 0 0
53 14.9333 -3.71756 -0.112047 -0.00212365 0.00387991 0.000651241
54 0 -0.0303898 1.6467 0 0 0
55 0 -2.3184 2.62787 0 0 0
56 0 -2.34128 -0.129979 0 0 0
57 0 10.015 0.00570393 0 0 0
58 0 0.899643 -0.657643 0 0 0
59 0 -6.47112 1.19749 0 0.0409889 0
60 0 -0.221872 -1.53505 0.0759176 0 0
61 0 0.174824 -0.766596 0.0419603 0.00408612 -0.00412694
62 0 0 -0.605335 0 0 0
63 0 -0.0467033 -0.715623 0 0 0
64 0 -0.0772591 -1.03217 0 0 0
65 0 0.00226402 -1.16841 0 0 0
time 13
0 5.56284 9.62242 -3.17563 0.000934124 0 -1.04975
1 6.02794 0 0 -0.954813 0.634429 -0.354505
2 11.7344 0 0 -0.00140297 0 -1.02348
3 8.81138 -0.000450134 -0.00011158 -0.180466 0 0.000158284
4 5.77839 0.00028801 0 -0.120912 0 0.000105363
5 2.23163 -0.000329018 -0.000363827 -0.0595537 0 0
6 11.4725 0 0 -0.440879 -0.434725 0.577534
7 0.615217 -0.993092 -0.8107 3.07196 0.47568 -0.191083
8 2.24752 0 0 0.0893817 0.100772 -0.129848
9 1.11936 0 0 0.0339425 0.0778112 -0.80599
10 3.71348 -0.102642 0.102192 1.55999 0.645291 0.0798625
11 1.72615 0 0 0.0194279 -0.0124617 -1.02549
12 1.21114 0 0 -0.0091548 0.0139676 -1.15628
13 3.59919 -1.06012 0.0708882 1.53849 0.357879 -0.138954
14 1.66068 0 0 -0.00234032 0.0720157 -0.267084
15 1.167 0 0 -0.0212855 0.0283246 -0.23815
16 2.18852 0.501039 0.0576588 1.55917 0.13705 0.146564
17 1.29609 0 0 0.00533149 -0.0465293 -0.302891
18 1.62201 0.000713348 -0.000471115 0.0228114 -0.0295791 -1.0902
19 1.22241 0 0 0.00650226 0.0004573 -1.08964
20 1.76707 1.27612 0.036641 1.55741 0.17263 0.0984097
21 1.55588 0 0 -0.0150433 -0.0389028 -0.183922
22 1.24274 0 0 -0.000479219 0.000360518 -0.237287
23 0.784525 0 0 0.00416576 0.0145277 -1.01407
24 2.01306 0.806315 -13.2419 -0.000932693 0 -2.00317
25 6.02794 0 0 1.40005 0.46712 0.565527
26 11.7344 0 0 0.00140271 0 1.24509
27 8.81167 0 0 0.313115 0 0
28 5.77884 0 0 0.209787 0 0
29 2.23249 0 0 0.103328 0 0
30 11.4725 0 0 0.334752 -0.00551671 -0.358743
31 0.615814 0.994373 -0.809166 -2.97025 0.377536 0.373134
32 2.24752 0 0 -0.086361 0.0306541 0.18756
33 1.11936 0 0 -0.129536 0.16338 -0.247734
34 3.71349 0.102642 0.10219 -1.57338 1.20801 -0.0947636
35 1.72615 0 0 -0.014004 -0.00309804 1.06922
36 1.21112 0 0 0.00907728 0.0151213 1.87168
37 3.5992 1.06012 0.070888 -1.7608 1.02808 -0.234437
38 1.66069 0 0 0.0535003 0.0663869 0.806995
39 1.16699 0 0 -0.0256995 0.00585794 1.96948
40 2.18853 -0.501038 0.0576587 -1.57144 0.106396 -0.0540188
41 1.29609 0 0 0.0966379 0.0743869 0.990738
42 1.62202 -0.000711441 -0.000469208 -0.00454885 -0.0311579 1.37171
43 1.22241 0 0 0.0245549 0.0111942 1.72151
44 1.76707 -1.27612 0.0366416 -1.54714 0.313946 0.0233515
45 1.55587 0 0 0.240314 -0.0114011 1.10726
46 1.24273 0 0 0.000478873 -0.000351883 1.02076
47 0.784533 0 0 0.0074498 -0.0052357 1.65775
48 0 0 0 0 0 0
49 5.92871 -19.4711 -9.72995 0.0102338 0 0.000398741
50 0 0.175508 4.39833 0 0 0
51 -0.243587 0.175507 5.00562 0 0 0
52 -8.98651 -15.2233 -5.2717 0 0 0
53 14.915 -3.79351 -0.159338 0.0102338 0 0.000398741
54 0 -0.0303917 1.6467 0 0 0
55 0 -2.31841 2.62787 0 0 0
56 0 -2.34128 -0.129979 0 0 0
57 0 10.015 0.00570393 0 0 0
58 0 0.899642 -0.657643 0 0 0
59 0 -6.47112 1.19749 0 0.0531054 0
60 0 -0.221872 -1.53505 0.0964631 0.000172526 0.000456191
61 0 0.174826 -0.766596 0.0345704 0.0026939 -0.00286668
62 0 0 -0.605335 0 0 0
63 0 -0.0467014 -0.715623 0 0 0
64 0 -0.0772591 -1.03217 0 0 0
65 0 0.00226593 -1.16841 0 0 0
time 14
0 5.56284 9.62242 -3.17563 0.000934124 0 -1.04975
1 6.02794 0 0 -0.956089 0.631891 -0.356825
2 11.7344 0 0 -0.00140269 0 -1.0135
3 8.81138 -0.000449181 -0.000112057 -0.181666 0 0.00015788
4 5.77839 0.000286102 0 -0.121716 0 0.000104964
5 2.23163 -0.000329971 -0.000363827 -0.0599497 0 0
6 11.4725 0 0 -0.436451 -0.43572 0.567546
7 0.615219 -0.993091 -0.8107 3.07196 0.47568 -0.191083
8 2.24752 0 0 0.0893818 0.100772 -0.129848
9 1.11936 0 0 0.0339426 0.0778111 -0.80599
10 3.71348 -0.102641 0.102191 1.55999 0.645291 0.0798625
11 1.72615 0 0 0.0194279 -0.0124617 -1.02549
12 1.21114 0 0 -0.00915479 0.0139676 -1.15628
13 3.59919 -1.06012 0.0708883 1.53849 0.357878 -0.138954
14 1.66069 0 0 -0.00234035 0.0720157 -0.267084
15 1.167 0 0 -0.0212855 0.0283246 -0.23815
16 2.18853 0.50104 0.0576587 1.55917 0.137051 0.146564
17 1.29609 0 0 0.00533153 -0.0465293 -0.302891
18 1.62202 0.000714302 -0.000471115 0.0228114 -0.0295792 -1.0902
19 1.22241 0 0 0.00650224 0.000457281 -1.08964
20 1.76707 1.27612 0.036641 1.55741 0.17263 0.0984099
21 1.55588 0 0 -0.0150433 -0.0389028 -0.183922
22 1.24273 0 0 -0.000479208 0.000360527 -0.237287
23 0.784523 0 0 0.00416576 0.0145277 -1.01407
24 2.01306 0.806315 -13.2419 -0.000932693 0 -2.00317
25 6.02794 0 0 1.40008 0.466449 0.565899
26 11.7344 0 0 0.00140261 0 1.24169
27 8.81167 0 0 0.317146 0 0
28 5.77884 0 0 0.212488 0 0
29 2.23249 0 0 0.104658 0 0
30 11.4725 0 0 0.339701 -0.00662158 -0.361484
31 0.615812 0.994371 -0.809165 -2.97025 0.377536 0.373134
32 2.24752 0 0 -0.0863608 0.0306541 0.18756
33 1.11936 0 0 -0.129536 0.16338 -0.247734
34 3.71349 0.102638 0.10219 -1.57338 1.20801 -0.0947642
35 1.72615 0 0 -0.014004 -0.00309798 1.06922
36 1.21112 0 0 0.00907723 0.0151213 1.87168
37 3.5992 1.06011 0.070888 -1.7608 1.02808 -0.234437
38 1.66069 0 0 0.0535003 0.0663869 0.806995
39 1.16699 0 0 -0.0256995 0.00585793 1.96948
40 2.18853 -0.50104 0.0576591 -1.57144 0.106396 -0.0540189
41 1.29609 0 0 0.0966379 0.0743869 0.990738
42 1.62202 -0.000713348 -0.000470161 -0.00454885 -0.0311579 1.37171
43 1.22241 0 0 0.0245549 0.0111942 1.72151
44 1.76707 -1.27612 0.0366411 -1.54714 0.313946 0.0233512
45 1.55588 0 0 0.240314 -0.0114009 1.10726
46 1.24273 0 0 0.000478887 -0.00035189 1.02076
47 0.784533 0 0 0.00744979 -0.00523569 1.65775
48 0 0 0 0 0 0
49 5.94371 -19.526 -9.76561 0.00828701 -0.00381874 -0.000454874
50 0 0.175507 4.39833 0 0 0
51 -0.243587 0.175508 5.00562 0 0 0
52 -8.98651 -15.2233 -5.2717 0 0 0
53 14.914 -3.84001 -0.195926 0.00828701 -0.00381874 -0.000454874
54 0 -0.0303898 1.6467 0 0 0
55 0 -2.3184 2.62787 0 0 0
56 0 -2.34127 -0.129979 0 0 0
57 0 10.015 0.00570393 0 0 0
58 0 0.899645 -0.657643 0 0 0
59 0 -6.47112 1.19749 0 0.0548136 0
60 0 -0.221874 -1.53505 0.0953014 0.000253485 0.000670321
61 0 0.174826 -0.766595 0.0440396 0.00120567 -0.00124203
62 0 0 -0.605336 0 0 0
63 0 -0.0467052 -0.715622 0 0 0
64 0 -0.0772591 -1.03217 0 0 0
65 0 0.00226784 -1.16841 0 0 0
time 15
0 5.56284 9.62242 -3.17563 0.000934124 0 -1.04975
1 6.02794 0 0 -0.956312 0.630667 -0.35882
2 11.7344 0 0 -0.00140278 0 -1.00353
3 8.81138 -0.000449181 -0.00011158 -0.194147 0 0.000158064
4 5.77839 0.000286102 0 -0.130079 0 0.000105094
5 2.23163 -0.000329971 -0.000364304 -0.0640685 0 0
6 11.4725 0 0 -0.439475 -0.439986 0.550613
7 0.615219 -0.993091 -0.8107 3.07196 0.475681 -0.191083
8 2.24752 0 0 0.0893817 0.100772 -0.129848
9 1.11936 0 0 0.0339426 0.0778112 -0.80599
10 3.71348 -0.102641 0.102191 1.55999 0.645291 0.0798627
11 1.72615 0 0 0.0194279 -0.0124617 -1.02549
12 1.21114 0 0 -0.00915481 0.0139676 -1.15628
13 3.59919 -1.06012 0.0708879 1.53849 0.357879 -0.138954
14 1.66069 0 0 -0.00234029 0.0720157 -0.267084
15 1.167 0 0 -0.0212855 0.0283246 -0.23815
16 2.18852 0.50104 0.0576592 1.55917 0.137051 0.146564
17 1.29609 0 0 0.00533151 -0.0465293 -0.302891
18 1.62202 0.000713348 -0.000471115 0.0228114 -0.0295791 -1.0902
19 1.22241 0 0 0.00650225 0.000457293 -1.08964
20 1.76707 1.27612 0.0366412 1.55741 0.17263 0.0984099
21 1.55588 0 0 -0.0150432 -0.0389027 -0.183922
22 1.24273 0 0 -0.000479223 0.000360495 -0.237287
23 0.784525 0 0 0.00416577 0.0145277 -1.01407
24 2.01306 0.806315 -13.2419 -0.000932693 0 -2.00317
25 6.02794 0 0 1.40076 0.459462 0.566516
26 11.7344 0 0 0.00140283 0 1.22062
27 8.81167 0 0 0.317315 0 0
28 5.77884 0 0 0.212601 0 0
29 2.23249 0 0 0.104714 0 0
30 11.4725 0 0 0.335605 -0.00751242 -0.322775
31 0.615814 0.994373 -0.809165 -2.97025 0.377536 0.373134
32 2.24752 0 0 -0.086361 0.0306542 0.18756
33 1.11936 0 0 -0.129536 0.16338 -0.247734
34 3.71349 0.10264 0.102191 -1.57338 1.20801 -0.0947636
35 1.72615 0 0 -0.0140041 -0.00309807 1.06922
36 1.21112 0 0 0.00907728 0.0151213 1.87168
37 3.5992 1.06012 0.0708876 -1.7608 1.02808 -0.234438
38 1.66069 0 0 0.0535003 0.0663869 0.806995
39 1.16699 0 0 -0.0256995 0.00585793 1.96948
40 2.18853 -0.501038 0.0576582 -1.57144 0.106396 -0.0540188
41 1.29609 0 0 0.0966379 0.0743869 0.990738
42 1.62202 -0.000713348 -0.000471115 -0.00454886 -0.0311579 1.37171
43 1.22241 0 0 0.0245548 0.0111942 1.72151
44 1.76707 -1.27612 0.0366402 -1.54714 0.313946 0.0233513
45 1.55588 0 0 0.240314 -0.0114011 1.10726
46 1.24273 0 0 0.000478912 -0.000351905 1.02076
47 0.784531 0 0 0.0074498 -0.00523568 1.65775
48 0 0 0 0 0 0
49 5.93503 -19.5937 -9.7949 -0.00192425 -0.000238728 -0.00181586
50 0 0.175507 4.39833 0 0 0
51 -0.243587 0.175507 5.00562 0 0 0
52 -8.98651 -15.2233 -5.2717 0 0 0
53 14.9214 -3.86392 -0.230129 -0.00192425 -0.000238728 -0.00181586
54 0 -0.0303936 1.6467 0 0 0
55 0 -2.3184 2.62787 0 0 0
56 0 -2.34128 -0.129979 0 0 0
57 0 10.015 0.00570393 0 0 0
58 0 0.899642 -0.657644 0 0 0
59 0 -6.47112 1.19749 0 0.0505336 0
60 0 -0.221876 -1.53505 0.0781321 0.000264039 0.000698251
61 0 0.174826 -0.766596 0.0464057 0 0
62 0 0 -0.605335 0 0 0
63 0 -0.0467014 -0.715623 0 0 0
64 0 -0.0772591 -1.03217 0 0 0
65 0 0.00226402 -1.16841 0 0 0
time 16
0 5.56284 9.62242 -3.17563 0.000934124 0 -1.04975
1 6.02794 0 0 -0.956183 0.630307 -0.359848
2 11.7344 0 0 -0.00140276 0 -0.996678
3 8.81138 -0.000450134 -0.000112057 -0.205102 0 0.000158203
4 5.77839 0.000286102 0 -0.137418 0 0.000105116
5 2.23163 -0.000329971 -0.00036335 -0.0676837 0 0
6 11.4725 0 0 -0.442859 -0.442963 0.537655
7 0.615219 -0.993092 -0.8107 3.07196 0.47568 -0.191083
8 2.24752 0 0 0.0893816 0.100772 -0.129848
9 1.11936 0 0 0.0339425 0.0778112 -0.80599
10 3.71348 -0.102641 0.102191 1.55999 0.645291 0.0798625
11 1.72615 0 0 0.0194279 -0.0124617 -1.02549
12 1.21114 0 0 -0.00915481 0.0139676 -1.15628
13 3.59919 -1.06012 0.0708878 1.53849 0.357878 -0.138954
14 1.66069 0 0 -0.00234033 0.0720157 -0.267084
15 1.167 0 0 -0.0212855 0.0283246 -0.23815
16 2.18852 0.50104 0.0576589 1.55917 0.13705 0.146564
17 1.29609 0 0 0.00533152 -0.0465293 -0.302891
18 1.62202 0.000714302 -0.000470161 0.0228114 -0.0295792 -1.0902
19 1.22241 0 0 0.00650224 0.00045728 -1.08964
20 1.76707 1.27612 0.0366409 1.55741 0.17263 0.0984098
21 1.55588 0 0 -0.0150433 -0.0389028 -0.183922
22 1.24273 0 0 -0.000479225 0.00036051 -0.237287
23 0.784523 0 0 0.00416577 0.0145277 -1.01407
24 2.01306 0.806315 -13.2419 -0.000932693 0 -2.00317
25 6.02794 0 0 1.40149 0.450542 0.568335
26 11.7344 0 0 0.00140262 0 1.18809
27 8.81167 0 0 0.316743 0 0
28 5.77884 0 0 0.212218 0 0
29 2.23249 0 0 0.104525 0 0
30 11.4725 0 0 0.329164 -0.0108323 -0.25554
31 0.615812 0.994373 -0.809166 -2.97025 0.377536 0.373134
32 2.24752 0 0 -0.0863611 0.0306541 0.18756
33 1.11936 0 0 -0.129536 0.16338 -0.247734
34 3.71348 0.10264 0.10219 -1.57338 1.20801 -0.0947638
35 1.72615 0 0 -0.014004 -0.00309803 1.06922
36 1.21112 0 0 0.00907729 0.0151213 1.87168
37 3.5992 1.06012 0.0708876 -1.7608 1.02808 -0.234437
38 1.66069 0 0 0.0535004 0.0663869 0.806995
39 1.16699 0 0 -0.0256994 0.00585796 1.96948
40 2.18853 -0.50104 0.0576587 -1.57144 0.106396 -0.0540189
41 1.29609 0 0 0.0966379 0.0743869 0.990738
42 1.62202 -0.000713348 -0.000471115 -0.00454886 -0.0311579 1.37171
43 1.22241 0 0 0.0245549 0.0111943 1.72151
44 1.76707 -1.27612 0.0366406 -1.54714 0.313946 0.0233513
45 1.55588 0 0 0.240314 -0.0114009 1.10726
46 1.24273 0 0 0.000478869 -0.000351891 1.02076
47 0.784531 0 0 0.00744981 -0.00523567 1.65775
48 0 0 0 0 0 0
49 5.92836 -19.6402 -9.82082 -0.00995531 0.00360902 -0.00316807
50 0 0.175507 4.39833 0 0 0
51 -0.243587 0.175508 5.00562 0 0 0
52 -8.98651 -15.2233 -5.2717 0 0 0
53 14.9321 -3.87599 -0.260292 -0.00995531 0.00360902 -0.00316807
54 0 -0.0303917 1.64671 0 0 0
55 0 -2.3184 2.62787 0 0 0
56 0 -2.34128 -0.129979 0 0 0
57 0 10.015 0.00570393 0 0 0
58 0 0.899643 -0.657643 0 0 0
59 0 -6.47112 1.19749 0 0.0424439 0
60 0 -0.221874 -1.53505 0.0506552 0.000225324 0.000595841
61 0 0.174822 -0.766596 0.0378586 -0.00078836 0.000673662
62 0 0 -0.605335 0 0 0
63 0 -0.0467033 -0.715623 0 0 0
64 0 -0.0772591 -1.03217 0 0 0
65 0 0.00226402 -1.16841 0 0 0
time 17
0 5.56284 9.62242 -3.17563 0.000934124 0 -1.04975
1 6.02794 0 0 -0.956256 0.630208 -0.359885
2 11.7344 0 0 -0.00140279 0 -0.993465
3 8.81139 -0.000449181 -0.00011301 -0.206556 0 0.000157665
4 5.77839 0.000286102 0 -0.138392 0 0.000104694
5 2.23164 -0.000329018 -0.000364304 -0.0681635 0 0
6 11.4725 0 0 -0.441222 -0.443059 0.532523
7 0.615221 -0.993092 -0.8107 3.07196 0.475681 -0.191083
8 2.24752 0 0 0.0893818 0.100772 -0.129848
9 1.11936 0 0 0.0339423 0.0778112 -0.80599
10 3.71348 -0.102641 0.102192 1.55999 0.645291 0.0798626
11 1.72615 0 0 0.0194279 -0.0124617 -1.02549
12 1.21114 0 0 -0.00915481 0.0139676 -1.15628
13 3.59919 -1.06012 0.0708886 1.53849 0.357878 -0.138954
14 1.66069 0 0 -0.00234033 0.0720157 -0.267084
15 1.167 0 0 -0.0212855 0.0283246 -0.238149
16 2.18853 0.50104 0.0576591 1.55917 0.13705 0.146564
17 1.29609 0 0 0.00533153 -0.0465293 -0.302891
18 1.62202 0.000714302 -0.000470638 0.0228114 -0.0295792 -1.0902
19 1.22241 0 0 0.00650224 0.000457275 -1.08964
20 1.76707 1.27612 0.0366412 1.55741 0.17263 0.0984099
21 1.55588 0 0 -0.0150433 -0.0389028 -0.183922
22 1.24273 0 0 -0.000479228 0.000360532 -0.237287
23 0.784523 0 0 0.00416579 0.0145277 -1.01407
24 2.01306 0.806315 -13.2419 -0.000932693 0 -2.00317
25 6.02794 0 0 1.40182 0.443425 0.572002
26 11.7344 0 0 0.00140259 0 1.15599
27 8.81167 0 0 0.319291 0 0
28 5.77884 0 0 0.213925 0 0
29 2.23249 0 0 0.105366 0 0
30 11.4725 0 0 0.327868 -0.018842 -0.189038
31 0.615814 0.994373 -0.809165 -2.97025 0.377536 0.373134
32 2.24752 0 0 -0.086361 0.0306541 0.18756
33 1.11936 0 0 -0.129536 0.16338 -0.247734
34 3.71349 0.10264 0.102192 -1.57338 1.20801 -0.0947641
35 1.72615 0 0 -0.0140041 -0.00309808 1.06922
36 1.21112 0 0 0.00907723 0.0151213 1.87168
37 3.5992 1.06012 0.0708885 -1.7608 1.02808 -0.234437
38 1.66069 0 0 0.0535003 0.0663869 0.806995
39 1.16699 0 0 -0.0256994 0.00585795 1.96948
40 2.18853 -0.50104 0.0576596 -1.57144 0.106396 -0.0540188
41 1.29609 0 0 0.0966379 0.0743869 0.990738
42 1.62202 -0.000713348 -0.000471115 -0.00454889 -0.0311579 1.37171
43 1.22241 0 0 0.0245549 0.0111942 1.72151
44 1.76707 -1.27612 0.0366411 -1.54714 0.313946 0.0233514
45 1.55587 0 0 0.240314 -0.011401 1.10726
46 1.24273 0 0 0.000478873 -0.000351884 1.02076
47 0.784531 0 0 0.00744979 -0.00523566 1.65775
48 0 0 0 0 0 0
49 5.94148 -19.657 -9.84457 -0.0113077 0.00245371 -0.00399534
50 0 0.175508 4.39833 0 0 0
51 -0.243588 0.175507 5.00562 0 0 0
52 -8.98651 -15.2233 -5.2717 0 0 0
53 14.9407 -3.88697 -0.284756 -0.0113077 0.00245371 -0.00399534
54 0 -0.0303936 1.64671 0 0 0
55 0 -2.3184 2.62787 0 0 0
56 0 -2.34128 -0.129979 0 0 0
57 0 10.015 0.0057044 0 0 0
58 0 0.899643 -0.657643 0 0 0
59 0 -6.47112 1.19749 0 0.0327227 0
60 0 -0.221874 -1.53505 0.0185702 0.000158436 0.000418951
61 0 0.174824 -0.766596 0.0304965 -0.00130309 0.00111349
62 0 0 -0.605336 0 0 0
63 0 -0.0467033 -0.715622 0 0 0
64 0 -0.077261 -1.03217 0 0 0
65 0 0.00226784 -1.1684 0 0 0
time 18
0 5.56284 9.62242 -3.17563 0.000934124 0 -1.04975
1 6.02794 0 0 -0.956376 0.630111 -0.359807
2 11.7344 0 0 -0.00140282 0 -0.992316
3 8.81138 -0.000450134 -0.000112534 -0.205744 0 0.000157836
4 5.77839 0.000286102 0 -0.137848 0 0.000104877
5 2.23163 -0.000329971 -0.00036478 -0.0678955 0 0
6 11.4725 0 0 -0.440343 -0.442131 0.532822
7 0.615219 -0.993091 -0.8107 3.07196 0.475681 -0.191084
8 2.24752 0 0 0.0893816 0.100772 -0.129849
9 1.11936 0 0 0.0339425 0.0778112 -0.80599
10 3.71348 -0.10264 0.10219 1.55999 0.645291 0.0798624
11 1.72615 0 0 0.0194279 -0.0124617 -1.02549
12 1.21114 0 0 -0.00915479 0.0139676 -1.15628
13 3.59919 -1.06012 0.070888 1.53849 0.357879 -0.138954
14 1.66069 0 0 -0.00234031 0.0720157 -0.267084
15 1.167 0 0 -0.0212855 0.0283246 -0.23815
16 2.18852 0.50104 0.0576586 1.55917 0.13705 0.146564
17 1.29609 0 0 0.00533154 -0.0465293 -0.302891
18 1.62202 0.000713348 -0.000471115 0.0228114 -0.0295792 -1.09019
19 1.22241 0 0 0.00650225 0.000457288 -1.08964
20 1.76707 1.27612 0.036641 1.55741 0.17263 0.0984097
21 1.55588 0 0 -0.0150433 -0.0389028 -0.183922
22 1.24273 0 0 -0.000479226 0.000360517 -0.237287
23 0.784525 0 0 0.00416578 0.0145277 -1.01407
24 2.01306 0.806315 -13.2419 -0.000932693 0 -2.00317
25 6.02794 0 0 1.40209 0.436954 0.575584
26 11.7344 0 0 0.00140271 0 1.12688
27 8.81167 0 0 0.321249 0 0
28 5.77884 0 0 0.215237 0 0
29 2.23249 0 0 0.106012 0 0
30 11.4725 0 0 0.326764 -0.026026 -0.130223
31 0.615813 0.994373 -0.809165 -2.97025 0.377536 0.373134
32 2.24752 0 0 -0.0863609 0.030654 0.18756
33 1.11936 0 0 -0.129536 0.16338 -0.247734
34 3.71348 0.10264 0.102191 -1.57338 1.20801 -0.0947637
35 1.72615 0 0 -0.014004 -0.00309802 1.06922
36 1.21112 0 0 0.00907717 0.0151213 1.87168
37 3.5992 1.06012 0.0708885 -1.7608 1.02808 -0.234438
38 1.66069 0 0 0.0535003 0.0663869 0.806995
39 1.16699 0 0 -0.0256995 0.00585793 1.96948
40 2.18853 -0.50104 0.0576587 -1.57144 0.106396 -0.0540188
41 1.29609 0 0 0.0966379 0.0743868 0.990738
42 1.62202 -0.000711441 -0.000469208 -0.00454888 -0.0311579 1.37171
43 1.22241 0 0 0.0245549 0.0111942 1.72151
44 1.76707 -1.27612 0.0366416 -1.54714 0.313946 0.0233514
45 1.55588 0 0 0.240314 -0.0114011 1.10726
46 1.24273 0 0 0.000478904 -0.000351889 1.02076
47 0.784531 0 0 0.00744977 -0.00523571 1.65775
48 0 0 0 0 0 0
49 5.95134 -19.6581 -9.86147 -0.00946312 0.00154369 -0.00397214
50 0 0.175507 4.39833 0 0 0
51 -0.243587 0.175507 5.00562 0 0 0
52 -8.98651 -15.2233 -5.2717 0 0 0
53 14.9466 -3.89598 -0.300648 -0.00946312 0.00154369 -0.00397214
54 0 -0.0303936 1.64671 0 0 0
55 0 -2.3184 2.62787 0 0 0
56 0 -2.34127 -0.129979 0 0 0
57 0 10.015 0.00570393 0 0 0
58 0 0.899644 -0.657643 0 0 0
59 0 -6.47112 1.19749 0 0.0235483 0
60 0 -0.221874 -1.53505 -0.0124232 0 0.000223441
61 0 0.174824 -0.766596 0.0242192 -0.00158325 0.00135289
62 0 0 -0.605335 0 0 0
63 0 -0.0467033 -0.715623 0 0 0
64 0 -0.0772591 -1.03217 0 0 0
65 0 0.00226593 -1.16841 0 0 0
time 19
0 5.56284 9.62242 -3.17563 0.000934124 0 -1.04975
1 6.02794 0 0 -0.956284 0.630516 -0.35919
2 11.7344 0 0 -0.00140284 0 -0.993808
3 8.81138 -0.000450134 -0.000112534 -0.2032 0 0.00015805
4 5.77839 0.000286102 0 -0.136144 0 0.000104969
5 2.23163 -0.000329018 -0.000363827 -0.0670559 0 0
6 11.4725 0 0 -0.440009 -0.440774 0.537024
7 0.615219 -0.993092 -0.8107 3.07196 0.47568 -0.191084
8 2.24752 0 0 0.0893818 0.100772 -0.129849
9 1.11936 0 0 0.0339425 0.0778112 -0.80599
10 3.71348 -0.102641 0.10219 1.55999 0.645291 0.0798625
11 1.72615 0 0 0.0194279 -0.0124617 -1.02549
12 1.21114 0 0 -0.00915482 0.0139676 -1.15628
13 3.59919 -1.06012 0.0708879 1.53849 0.357878 -0.138954
14 1.66069 0 0 -0.00234032 0.0720157 -0.267084
15 1.167 0 0 -0.0212855 0.0283246 -0.23815
16 2.18852 0.501039 0.0576585 1.55917 0.13705 0.146564
17 1.29609 0 0 0.00533151 -0.0465293 -0.302891
18 1.62202 0.000713348 -0.000471115 0.0228114 -0.0295792 -1.0902
19 1.22241 0 0 0.00650223 0.000457274 -1.08964
20 1.76707 1.27612 0.0366403 1.55741 0.17263 0.0984098
21 1.55588 0 0 -0.0150433 -0.0389028 -0.183922
22 1.24273 0 0 -0.000479238 0.000360523 -0.237287
23 0.784525 0 0 0.00416579 0.0145277 -1.01407
24 2.01306 0.806315 -13.2419 -0.000932693 0 -2.00317
25 6.02794 0 0 1.40226 0.432166 0.578438
26 11.7344 0 0 0.00140273 0 1.10524
27 8.81166 0 0 0.322063 0 0
28 5.77884 0 0 0.215782 0 0
29 2.23249 0 0 0.106281 0 0
30 11.4725 0 0 0.325478 -0.0309613 -0.08689
31 0.615813 0.994373 -0.809165 -2.97025 0.377536 0.373134
32 2.24752 0 0 -0.0863609 0.0306541 0.18756
33 1.11936 0 0 -0.129536 0.16338 -0.247734
34 3.71349 0.102642 0.102191 -1.57338 1.20801 -0.0947635
35 1.72615 0 0 -0.0140041 -0.00309796 1.06922
36 1.21112 0 0 0.00907731 0.0151214 1.87168
37 3.5992 1.06012 0.0708876 -1.7608 1.02808 -0.234437
38 1.66069 0 0 0.0535004 0.0663869 0.806995
39 1.16699 0 0 -0.0256995 0.00585794 1.96948
40 2.18853 -0.501038 0.0576582 -1.57144 0.106396 -0.0540187
41 1.29609 0 0 0.0966379 0.0743869 0.990738
42 1.62202 -0.000715256 -0.000469208 -0.00454883 -0.0311579 1.37171
43 1.22241 0 0 0.0245549 0.0111942 1.72151
44 1.76707 -1.27612 0.0366411 -1.54714 0.313946 0.0233514
45 1.55587 0 0 0.240314 -0.011401 1.10726
46 1.24273 0 0 0.000478889 -0.000351915 1.02076
47 0.784531 0 0 0.00744984 -0.00523567 1.65775
48 0 0 0 0 0 0
49 5.96047 -19.6433 -9.87005 -0.00594673 0.000885391 -0.00330863
50 0 0.175507 4.39833 0 0 0
51 -0.243587 0.175507 5.00562 0 0 0
52 -8.98651 -15.2233 -5.2717 0 0 0
53 14.9525 -3.89619 -0.307355 -0.00594673 0.000885391 -0.00330863
54 0 -0.0303898 1.64671 0 0 0
55 0 -2.3184 2.62787 0 0 0
56 0 -2.34127 -0.129979 0 0 0
57 0 10.015 0.00570345 0 0 0
58 0 0.899643 -0.657643 0 0 0
59 0 -6.47112 1.19749 0 0.017099 0
60 0 -0.221876 -1.53505 -0.0366251 0 0
61 0 0.174826 -0.766596 0.0189265 -0.00166794 0.00142527
62 0 0 -0.605335 0 0 0
63 0 -0.0467033 -0.715623 0 0 0
64 0 -0.0772591 -1.03217 0 0 0
65 0 0.00226784 -1.16841 0 0 0
time 20
0 5.56284 9.62242 -3.17563 0.000934124 0 -1.04975
1 6.02794 0 0 -0.95603 0.631258 -0.35825
2 11.7344 0 0 -0.00140291 0 -0.996846
3 8.81138 -0.000450134 -0.000111103 -0.199979 0 0.000157858
4 5.77839 0.000286102 0 -0.133986 0 0.000104949
5 2.23163 -0.000329971 -0.000362873 -0.0659931 0 0
6 11.4725 0 0 -0.439991 -0.439584 0.542731
7 0.615219 -0.993092 -0.8107 3.07196 0.47568 -0.191083
8 2.24752 0 0 0.0893819 0.100772 -0.129848
9 1.11936 0 0 0.0339424 0.0778112 -0.80599
10 3.71348 -0.102641 0.102191 1.55999 0.645291 0.0798625
11 1.72615 0 0 0.0194279 -0.0124617 -1.02549
12 1.21114 0 0 -0.00915481 0.0139676 -1.15628
13 3.59919 -1.06012 0.0708881 1.53849 0.357878 -0.138954
14 1.66068 0 0 -0.00234034 0.0720157 -0.267084
15 1.167 0 0 -0.0212855 0.0283246 -0.23815
16 2.18852 0.501039 0.0576591 1.55917 0.13705 0.146564
17 1.29609 0 0 0.0053315 -0.0465293 -0.302891
18 1.62202 0.000714302 -0.000471115 0.0228114 -0.0295792 -1.0902
19 1.22241 0 0 0.00650225 0.000457298 -1.08964
20 1.76707 1.27612 0.0366408 1.55741 0.17263 0.0984098
21 1.55588 0 0 -0.0150432 -0.0389028 -0.183922
22 1.24274 0 0 -0.000479225 0.00036051 -0.237287
23 0.784523 0 0 0.00416578 0.0145277 -1.01407
24 2.01306 0.806315 -13.2419 -0.000932693 0 -2.00317
25 6.02794 0 0 1.4022 0.430669 0.580406
26 11.7344 0 0 0.00140268 0 1.09566
27 8.81167 0 0 0.322947 0 0
28 5.77884 0 0 0.216374 0 0
29 2.23249 0 0 0.106572 0 0
30 11.4725 0 0 0.325448 -0.0340558 -0.0659405
31 0.615812 0.994373 -0.809165 -2.97025 0.377536 0.373134
32 2.24752 0 0 -0.0863611 0.030654 0.18756
33 1.11936 0 0 -0.129536 0.16338 -0.247734
34 3.71349 0.10264 0.102191 -1.57338 1.20801 -0.0947638
35 1.72615 0 0 -0.0140041 -0.00309797 1.06922
36 1.21112 0 0 0.00907729 0.0151213 1.87168
37 3.5992 1.06012 0.0708876 -1.7608 1.02808 -0.234438
38 1.66069 0 0 0.0535003 0.0663869 0.806995
39 1.16699 0 0 -0.0256994 0.00585795 1.96948
40 2.18853 -0.501038 0.0576582 -1.57144 0.106396 -0.0540186
41 1.29609 0 0 0.0966379 0.074387 0.990738
42 1.62202 -0.000715256 -0.000469208 -0.00454879 -0.0311579 1.37171
43 1.22241 0 0 0.0245549 0.0111942 1.72151
44 1.76707 -1.27612 0.0366406 -1.54714 0.313946 0.0233514
45 1.55588 0 0 0.240314 -0.011401 1.10726
46 1.24273 0 0 0.000478862 -0.000351904 1.02076
47 0.784531 0 0 0.00744977 -0.00523569 1.65775
48 0 0 0 0 0 0
49 5.96872 -19.6207 -9.87119 -0.00228392 0.000440335 -0.00229224
50 0 0.175507 4.39833 0 0 0
51 -0.243588 0.175507 5.00562 0 0 0
52 -8.98651 -15.2233 -5.2717 0 0 0
53 14.9583 -3.88935 -0.306608 -0.00228392 0.000440335 -0.00229224
54 0 -0.0303936 1.6467 0 0 0
55 0 -2.3184 2.62787 0 0 0
56 0 -2.34127 -0.12998 0 0 0
57 0 10.015 0.00570393 0 0 0
58 0 0.899644 -0.657644 0 0 0
59 0 -6.47112 1.19749 0 0.013125 0
60 0 -0.221874 -1.53505 -0.048336 0 0
61 0 0.174824 -0.766595 0.014518 -0.00159628 0.00136402
62 0 0 -0.605335 0 0 0
63 0 -0.0467014 -0.715623 0 0 0
64 0 -0.0772591 -1.03217 0 0 0
65 0 0.00226593 -1.16841 0 0 0
time 21
0 5.56284 9.62242 -3.17563 0.000934124 0 -1.04975
1 6.02794 0 0 -0.955663 0.632179 -0.357197
2 11.7344 0 0 -0.00140284 0 -1.00035
3 8.81138 -0.000450134 -0.000112057 -0.197124 0 0.000158136
4 5.77839 0.000286102 0 -0.132073 0 0.000105101
5 2.23163 -0.000330925 -0.000363827 -0.065051 0 0
6 11.4725 0 0 -0.440062 -0.439156 0.547546
7 0.615219 -0.993091 -0.8107 3.07196 0.47568 -0.191083
8 2.24752 0 0 0.0893819 0.100772 -0.129848
9 1.11936 0 0 0.0339425 0.0778112 -0.80599
10 3.71348 -0.10264 0.102192 1.55999 0.645291 0.0798626
11 1.72615 0 0 0.0194279 -0.0124617 -1.02549
12 1.21114 0 0 -0.00915481 0.0139676 -1.15628
13 3.59919 -1.06012 0.0708888 1.53849 0.357878 -0.138954
14 1.66069 0 0 -0.00234033 0.0720157 -0.267084
15 1.167 0 0 -0.0212855 0.0283246 -0.23815
16 2.18852 0.50104 0.0576587 1.55917 0.13705 0.146564
17 1.29609 0 0 0.00533151 -0.0465293 -0.302891
18 1.62202 0.000713348 -0.000471592 0.0228114 -0.0295792 -1.0902
19 1.22241 0 0 0.00650224 0.000457289 -1.08964
20 1.76707 1.27612 0.0366414 1.55741 0.17263 0.0984098
21 1.55587 0 0 -0.0150432 -0.0389028 -0.183922
22 1.24273 0 0 -0.000479218 0.000360511 -0.237287
23 0.784523 0 0 0.00416577 0.0145277 -1.01407
24 2.01306 0.806315 -13.2419 -0.000932693 0 -2.00317
25 6.02794 0 0 1.40195 0.431485 0.582032
26 11.7344 0 0 0.00140264 0 1.09551
27 8.81167 0 0 0.324837 0 0
28 5.77884 0 0 0.217641 0 0
29 2.23249 0 0 0.107196 0 0
30 11.4725 0 0 0.327311 -0.0368132 -0.0628925
31 0.615814 0.994373 -0.809165 -2.97025 0.377536 0.373134
32 2.24752 0 0 -0.0863609 0.0306541 0.18756
33 1.11936 0 0 -0.129536 0.16338 -0.247734
34 3.71349 0.10264 0.102191 -1.57338 1.20801 -0.0947639
35 1.72615 0 0 -0.0140041 -0.00309798 1.06922
36 1.21112 0 0 0.00907721 0.0151212 1.87168
37 3.5992 1.06012 0.0708876 -1.7608 1.02808 -0.234437
38 1.66069 0 0 0.0535003 0.0663869 0.806995
39 1.16699 0 0 -0.0256994 0.00585794 1.96948
40 2.18853 -0.501041 0.0576591 -1.57144 0.106396 -0.0540188
41 1.29609 0 0 0.0966379 0.0743869 0.990738
42 1.62202 -0.000709534 -0.000469208 -0.00454885 -0.0311579 1.37171
43 1.22241 0 0 0.0245549 0.0111942 1.72151
44 1.76707 -1.27612 0.0366421 -1.54714 0.313946 0.0233513
45 1.55587 0 0 0.240314 -0.011401 1.10726
46 1.24273 0 0 0.000478865 -0.000351867 1.02076
47 0.784529 0 0 0.00744974 -0.00523572 1.65775
48 0 0 0 0 0 0
49 5.976 -19.5988 -9.86587 0 0.000170061 -0.00121039
50 0 0.175507 4.39833 0 0 0
51 -0.243588 0.175507 5.00562 0 0 0
52 -8.98651 -15.2233 -5.2717 0 0 0
53 14.9638 -3.87725 -0.300138 0 0.000170061 -0.00121039
54 0 -0.0303917 1.6467 0 0 0
55 0 -2.3184 2.62787 0 0 0
56 0 -2.34127 -0.129979 0 0 0
57 0 10.015 0.00570393 0 0 0
58 0 0.899643 -0.657643 0 0 0
59 0 -6.47112 1.19749 0 0.00986743 0
60 0 -0.221874 -1.53505 -0.0485854 0 0
61 0 0.174824 -0.766596 0.0108936 -0.00140733 0.00120257
62 0 0 -0.605335 0 0 0
63 0 -0.0467052 -0.715623 0 0 0
64 0 -0.0772591 -1.03217 0 0 0
65 0 0.00226784 -1.16841 0 0 0
time 22
0 5.56284 9.62242 -3.17563 0.000934124 0 -1.04975
1 6.02794 0 0 -0.955232 0.633192 -0.356094
2 11.7344 0 0 -0.00140284 0 -1.00388
3 8.81138 -0.000450134 -0.00011158 -0.194959 0 0.000158186
4 5.77839 0.000286102 0 -0.130623 0 0.000105067
5 2.23163 -0.000329971 -0.000364304 -0.0643366 0 0
6 11.4725 0 0 -0.440081 -0.439313 0.550826
7 0.615221 -0.993092 -0.8107 3.07196 0.47568 -0.191083
8 2.24752 0 0 0.0893817 0.100772 -0.129848
9 1.11936 0 0 0.0339424 0.0778111 -0.80599
10 3.71348 -0.102641 0.102191 1.55999 0.645291 0.0798626
11 1.72615 0 0 0.0194279 -0.0124617 -1.02549
12 1.21114 0 0 -0.00915479 0.0139676 -1.15628
13 3.59919 -1.06012 0.0708885 1.53849 0.357878 -0.138954
14 1.66068 0 0 -0.00234033 0.0720157 -0.267084
15 1.167 0 0 -0.0212855 0.0283246 -0.23815
16 2.18852 0.50104 0.0576599 1.55917 0.137051 0.146564
17 1.29609 0 0 0.00533152 -0.0465293 -0.302891
18 1.62202 0.000714302 -0.000470161 0.0228114 -0.0295792 -1.0902
19 1.22241 0 0 0.00650224 0.000457285 -1.08964
20 1.76707 1.27612 0.0366415 1.55741 0.17263 0.0984098
21 1.55587 0 0 -0.0150433 -0.0389028 -0.183922
22 1.24273 0 0 -0.000479222 0.000360518 -0.237287
23 0.784521 0 0 0.00416577 0.0145277 -1.01407
24 2.01306 0.806315 -13.2419 -0.000932693 0 -2.00317
25 6.02794 0 0 1.40166 0.432959 0.583334
26 11.7344 0 0 0.00140272 0 1.09958
27 8.81167 0 0 0.326765 0 0
28 5.77884 0 0 0.218932 0 0
29 2.23249 0 0 0.107832 0 0
30 11.4725 0 0 0.329628 -0.0392054 -0.0680243
31 0.615813 0.994373 -0.809166 -2.97025 0.377536 0.373134
32 2.24752 0 0 -0.0863609 0.0306542 0.18756
33 1.11936 0 0 -0.129536 0.16338 -0.247734
34 3.71349 0.10264 0.102191 -1.57338 1.20801 -0.0947637
35 1.72615 0 0 -0.014004 -0.00309802 1.06922
36 1.21112 0 0 0.00907725 0.0151213 1.87168
37 3.5992 1.06012 0.0708876 -1.7608 1.02808 -0.234437
38 1.66069 0 0 0.0535003 0.0663869 0.806995
39 1.16699 0 0 -0.0256995 0.00585796 1.96948
40 2.18853 -0.50104 0.0576587 -1.57144 0.106396 -0.0540187
41 1.29609 0 0 0.096638 0.074387 0.990738
42 1.62202 -0.000713348 -0.000471115 -0.00454887 -0.0311578 1.37171
43 1.22241 0 0 0.024555 0.0111943 1.72151
44 1.76707 -1.27612 0.0366416 -1.54714 0.313946 0.0233514
45 1.55587 0 0 0.240314 -0.011401 1.10726
46 1.24273 0 0 0.000478936 -0.000351954 1.02076
47 0.784534 0 0 0.00744979 -0.00523573 1.65775
48 0 0 0 0 0 0
49 5.98222 -19.58 -9.85578 0.00075419 0 -0.000350501
50 0 0.175507 4.39833 0 0 0
51 -0.243587 0.175507 5.00562 0 0 0
52 -8.98651 -15.2233 -5.2717 0 0 0
53 14.9691 -3.86166 -0.289676 0.00075419 0 -0.000350501
54 0 -0.0303917 1.64671 0 0 0
55 0 -2.3184 2.62787 0 0 0
56 0 -2.34127 -0.129979 0 0 0
57 0 10.015 0.00570393 0 0 0
58 0 0.899644 -0.657643 0 0 0
59 0 -6.47111 1.19749 0 0.00724154 0
60 0 -0.221874 -1.53505 -0.0434164 0 0
61 0 0.174824 -0.766596 0.00795303 -0.0011402 0.000974303
62 0 0 -0.605335 0 0 0
63 0 -0.0467052 -0.715622 0 0 0
64 0 -0.0772591 -1.03217 0 0 0
65 0 0.00226593 -1.16841 0 0 0
time 23
0 5.56284 9.62242 -3.17563 0.000934124 0 -1.04975
1 6.02794 0 0 -0.954796 0.634257 -0.354896
2 11.7344 0 0 -0.00140272 0 -1.00754
3 8.81138 -0.000449181 -0.000112534 -0.193225 0 0.00015805
4 5.77839 0.000287056 0 -0.129461 0 0.000105051
5 2.23163 -0.000329018 -0.000365257 -0.0637643 0 0
6 11.4725 0 0 -0.439974 -0.439239 0.553368
7 0.615219 -0.993091 -0.810701 3.07196 0.475681 -0.191083
8 2.24752 0 0 0.0893818 0.100772 -0.129849
9 1.11936 0 0 0.0339425 0.0778112 -0.80599
10 3.71348 -0.102641 0.102191 1.55999 0.645291 0.0798626
11 1.72615 0 0 0.0194279 -0.0124617 -1.02549
12 1.21114 0 0 -0.00915479 0.0139676 -1.15628
13 3.59919 -1.06012 0.0708881 1.53849 0.357878 -0.138954
14 1.66069 0 0 -0.00234031 0.0720157 -0.267084
15 1.167 0 0 -0.0212856 0.0283246 -0.23815
16 2.18852 0.50104 0.0576594 1.55917 0.13705 0.146564
17 1.29609 0 0 0.00533152 -0.0465293 -0.302891
18 1.62202 0.000714302 -0.000471115 0.0228114 -0.0295792 -1.0902
19 1.22241 0 0 0.00650225 0.000457279 -1.08964
20 1.76707 1.27612 0.0366405 1.55741 0.17263 0.0984098
21 1.55588 0 0 -0.0150433 -0.0389028 -0.183922
22 1.24273 0 0 -0.000479225 0.00036051 -0.237287
23 0.784523 0 0 0.00416578 0.0145277 -1.01407
24 2.01306 0.806315 -13.2419 -0.000932693 0 -2.00317
25 6.02794 0 0 1.40134 0.435242 0.584267
26 11.7344 0 0 0.00140264 0 1.10705
27 8.81167 0 0 0.32853 0 0
28 5.77884 0 0 0.220115 0 0
29 2.23249 0 0 0.108415 0 0
30 11.4725 0 0 0.332187 -0.0414656 -0.0794668
31 0.615814 0.994371 -0.809165 -2.97025 0.377536 0.373134
32 2.24752 0 0 -0.086361 0.0306542 0.18756
33 1.11936 0 0 -0.129536 0.16338 -0.247734
34 3.71349 0.10264 0.10219 -1.57338 1.20801 -0.0947644
35 1.72615 0 0 -0.0140041 -0.00309802 1.06922
36 1.21112 0 0 0.0090773 0.0151213 1.87168
37 3.5992 1.06012 0.070888 -1.7608 1.02808 -0.234438
38 1.66069 0 0 0.0535004 0.0663869 0.806995
39 1.16699 0 0 -0.0256994 0.00585795 1.96948
40 2.18853 -0.501041 0.0576591 -1.57144 0.106396 -0.0540188
41 1.29609 0 0 0.0966379 0.0743869 0.990738
42 1.62202 -0.000713348 -0.000473022 -0.00454882 -0.0311579 1.37171
43 1.2224 0 0 0.024555 0.0111942 1.72151
44 1.76707 -1.27612 0.0366411 -1.54714 0.313946 0.0233513
45 1.55587 0 0 0.240314 -0.011401 1.10726
46 1.24273 0 0 0.000478882 -0.000351928 1.02076
47 0.784531 0 0 0.0074498 -0.00523567 1.65775
48 0 0 0 0 0 0
49 5.98733 -19.5618 -9.84316 0.000965363 0 0
50 0 0.175507 4.39832 0 0 0
51 -0.243587 0.175507 5.00562 0 0 0
52 -8.98651 -15.2233 -5.2717 0 0 0
53 14.9738 -3.84435 -0.276951 0.000965363 0 0
54 0 -0.0303917 1.6467 0 0 0
55 0 -2.3184 2.62787 0 0 0
56 0 -2.34128 -0.12998 0 0 0
57 0 10.015 0.00570345 0 0 0
58 0 0.899642 -0.657643 0 0 0
59 0 -6.47112 1.19749 0 0.00516249 0
60 0 -0.221874 -1.53505 -0.034649 0 0
61 0 0.174826 -0.766596 0.00559609 -0.000833972 0.000712633
62 0 0 -0.605335 0 0 0
63 0 -0.0467014 -0.715624 0 0 0
64 0 -0.0772591 -1.03217 0 0 0
65 0 0.00226402 -1.16841 0 0 0
time 24
0 5.56284 9.62242 -3.17563 0.000934124 0 -1.04975
1 6.02794 0 0 -0.954385 0.635285 -0.353711
2 11.7344 0 0 -0.0014029 0 -1.01104
3 8.81138 -0.000448227 -0.000112534 -0.191858 0 0.000158009
4 5.77839 0.000286102 0 -0.128545 0 0.000105048
5 2.23163 -0.000329018 -0.00036478 -0.0633131 0 0
6 11.4725 0 0 -0.43976 -0.439023 0.55525
7 0.615219 -0.993091 -0.8107 3.07196 0.47568 -0.191084
8 2.24752 0 0 0.0893817 0.100772 -0.129849
9 1.11936 0 0 0.0339424 0.0778111 -0.80599
10 3.71348 -0.102641 0.10219 1.55999 0.645291 0.0798624
11 1.72615 0 0 0.0194279 -0.0124617 -1.02549
12 1.21114 0 0 -0.00915481 0.0139676 -1.15628
13 3.59919 -1.06012 0.0708878 1.53849 0.357878 -0.138954
14 1.66069 0 0 -0.00234031 0.0720157 -0.267084
15 1.167 0 0 -0.0212856 0.0283246 -0.23815
16 2.18853 0.50104 0.0576586 1.55917 0.13705 0.146564
17 1.2961 0 0 0.00533152 -0.0465293 -0.302891
18 1.62202 0.000713348 -0.000470638 0.0228114 -0.0295792 -1.0902
19 1.22241 0 0 0.00650226 0.000457285 -1.08964
20 1.76707 1.27612 0.0366405 1.55741 0.17263 0.0984097
21 1.55588 0 0 -0.0150433 -0.0389028 -0.183922
22 1.24273 0 0 -0.000479222 0.000360518 -0.237287
23 0.784523 0 0 0.00416577 0.0145277 -1.01407
24 2.01306 0.806315 -13.2419 -0.000932693 0 -2.00317
25 6.02794 0 0 1.40101 0.437833 0.584931
26 11.7344 0 0 0.00140254 0 1.11613
27 8.81167 0 0 0.330051 0 0
28 5.77884 0 0 0.221134 0 0
29 2.23249 0 0 0.108917 0 0
30 11.4725 0 0 0.334794 -0.0435203 -0.094161
31 0.615815 0.994373 -0.809166 -2.97025 0.377536 0.373134
32 2.24752 0 0 -0.086361 0.0306541 0.18756
33 1.11936 0 0 -0.129536 0.16338 -0.247734
34 3.71349 0.102642 0.102191 -1.57338 1.20801 -0.0947639
35 1.72615 0 0 -0.014004 -0.00309798 1.06922
36 1.21112 0 0 0.00907728 0.0151213 1.87168
37 3.5992 1.06012 0.0708876 -1.7608 1.02808 -0.234437
38 1.66069 0 0 0.0535002 0.0663869 0.806995
39 1.16699 0 0 -0.0256994 0.00585795 1.96948
40 2.18853 -0.50104 0.0576596 -1.57144 0.106396 -0.0540188
41 1.29609 0 0 0.096638 0.0743869 0.990738
42 1.62202 -0.000713348 -0.000469208 -0.00454884 -0.0311579 1.37171
43 1.2224 0 0 0.0245549 0.0111942 1.72151
44 1.76707 -1.27612 0.0366411 -1.54714 0.313947 0.0233513
45 1.55587 0 0 0.240314 -0.011401 1.10726
46 1.24273 0 0 0.000478882 -0.000351898 1.02076
47 0.784533 0 0 0.00744982 -0.0052357 1.65775
48 0 0 0 0 0 0
49 5.99157 -19.5452 -9.82983 0.000814525 0 0
50 0 0.175508 4.39833 0 0 0
51 -0.243587 0.175507 5.00562 0 0 0
52 -8.98651 -15.2233 -5.2717 0 0 0
53 14.9781 -3.82711 -0.263695 0.000814525 0 0
54 0 -0.0303917 1.6467 0 0 0
55 0 -2.3184 2.62787 0 0 0
56 0 -2.34127 -0.129979 0 0 0
57 0 10.015 0.00570345 0 0 0
58 0 0.899643 -0.657644 0 0 0
59 0 -6.47112 1.19749 0 0.00354541 0
60 0 -0.221872 -1.53505 -0.0241035 0 0
61 0 0.174824 -0.766595 0.00372255 -0.000527748 0.000450963
62 0 0 -0.605335 0 0 0
63 0 -0.0467014 -0.715623 0 0 0
64 0 -0.077261 -1.03217 0 0 0
65 0 0.00226593 -1.16841 0 0 0
time 25
0 5.56284 9.62242 -3.17563 0.000934124 0 -1.04975
1 6.02794 0 0 -0.95402 0.636184 -0.352684
2 11.7344 0 0 -0.00140295 0 -1.01407
3 8.81138 -0.000449181 -0.000112057 -0.190731 0 0.000158443
4 5.77839 0.000286102 0 -0.12779 0 0.00010536
5 2.23163 -0.000329018 -0.00036335 -0.0629414 0 0
6 11.4725 0 0 -0.439558 -0.438944 0.556696
7 0.615219 -0.993092 -0.8107 3.07196 0.475681 -0.191083
8 2.24752 0 0 0.0893819 0.100772 -0.129848
9 1.11936 0 0 0.0339426 0.0778113 -0.80599
10 3.71348 -0.102641 0.102191 1.55999 0.645291 0.0798625
11 1.72615 0 0 0.0194279 -0.0124617 -1.02549
12 1.21114 0 0 -0.00915479 0.0139676 -1.15628
13 3.59919 -1.06012 0.0708882 1.53849 0.357879 -0.138954
14 1.66069 0 0 -0.00234032 0.0720157 -0.267084
15 1.167 0 0 -0.0212855 0.0283246 -0.23815
16 2.18852 0.50104 0.0576591 1.55917 0.13705 0.146564
17 1.29609 0 0 0.00533154 -0.0465293 -0.302891
18 1.62202 0.000713348 -0.000471115 0.0228114 -0.0295792 -1.0902
19 1.22241 0 0 0.00650224 0.000457283 -1.08964
20 1.76707 1.27612 0.0366409 1.55741 0.17263 0.0984098
21 1.55588 0 0 -0.0150433 -0.0389028 -0.183922
22 1.24273 0 0 -0.000479208 0.000360527 -0.237287
23 0.784523 0 0 0.00416577 0.0145277 -1.01407
24 2.01306 0.806315 -13.2419 -0.000932693 0 -2.00317
25 6.02794 0 0 1.4007 0.440375 0.585432
26 11.7344 0 0 0.00140267 0 1.12525
27 8.81167 0 0 0.331366 0 0
28 5.77884 0 0 0.222015 0 0
29 2.23249 0 0 0.109351 0 0
30 11.4725 0 0 0.337305 -0.0451682 -0.109147
31 0.615812 0.994373 -0.809165 -2.97025 0.377536 0.373134
32 2.24752 0 0 -0.086361 0.0306541 0.18756
33 1.11936 0 0 -0.129536 0.16338 -0.247734
34 3.71349 0.10264 0.10219 -1.57338 1.20801 -0.0947636
35 1.72615 0 0 -0.0140041 -0.00309798 1.06922
36 1.21112 0 0 0.0090772 0.0151213 1.87168
37 3.5992 1.06012 0.070888 -1.7608 1.02808 -0.234437
38 1.66069 0 0 0.0535003 0.0663869 0.806995
39 1.16699 0 0 -0.0256994 0.00585796 1.96948
40 2.18853 -0.50104 0.0576582 -1.57144 0.106396 -0.0540188
41 1.29609 0 0 0.0966379 0.0743869 0.990738
42 1.62202 -0.000713348 -0.000469208 -0.00454889 -0.0311579 1.37171
43 1.2224 0 0 0.0245549 0.0111942 1.72151
44 1.76707 -1.27612 0.0366411 -1.54714 0.313946 0.0233513
45 1.55587 0 0 0.240314 -0.011401 1.10726
46 1.24273 0 0 0.000478893 -0.000351909 1.02076
47 0.784533 0 0 0.00744979 -0.00523573 1.65775
48 0 0 0 0 0 0
49 5.99517 -19.5312 -9.81761 0.000482682 0 0
50 0 0.175507 4.39833 0 0 0
51 -0.243587 0.175505 5.00562 0 0 0
52 -8.98651 -15.2233 -5.2717 0 0 0
53 14.9817 -3.8117 -0.251639 0.000482682 0 0
54 0 -0.0303917 1.64671 0 0 0
55 0 -2.3184 2.62787 0 0 0
56 0 -2.34127 -0.129979 0 0 0
57 0 10.015 0.0057044 0 0 0
58 0 0.899643 -0.657643 0 0 0
59 0 -6.47112 1.19749 0 0.00230546 0
60 0 -0.221874 -1.53505 -0.0136001 0 0
61 0 0.174824 -0.766595 0.00223217 -0.000260616 0.000222698
62 0 0 -0.605335 0 0 0
63 0 -0.0467052 -0.715623 0 0 0
64 0 -0.0772572 -1.03217 0 0 0
65 0 0.00226402 -1.16841 0 0 0
time 26
0 5.56284 9.62242 -3.17563 0.000934124 0 -1.04975
1 6.02794 0 0 -0.953741 0.636869 -0.351902
2 11.7344 0 0 -0.00140282 0 -1.01634
3 8.81138 -0.000450134 -0.000112534 -0.189916 0 0.000158107
4 5.77839 0.000286102 0 -0.127243 0 0.000105165
5 2.23164 -0.000329971 -0.000364304 -0.0626721 0 0
6 11.4725 0 0 -0.439398 -0.438924 0.557693
7 0.615221 -0.993091 -0.8107 3.07196 0.47568 -0.191084
8 2.24752 0 0 0.0893818 0.100772 -0.129848
9 1.11936 0 0 0.0339424 0.0778112 -0.80599
10 3.71348 -0.102641 0.102191 1.55999 0.645291 0.0798624
11 1.72615 0 0 0.0194279 -0.0124617 -1.02549
12 1.21114 0 0 -0.00915479 0.0139676 -1.15628
13 3.59919 -1.06012 0.0708884 1.53849 0.357879 -0.138954
14 1.66069 0 0 -0.0023403 0.0720157 -0.267084
15 1.167 0 0 -0.0212855 0.0283246 -0.23815
16 2.18853 0.50104 0.0576591 1.55917 0.13705 0.146564
17 1.29609 0 0 0.00533151 -0.0465293 -0.302891
18 1.62202 0.000713348 -0.000470638 0.0228114 -0.0295792 -1.0902
19 1.22241 0 0 0.00650225 0.000457284 -1.08964
20 1.76707 1.27612 0.0366405 1.55741 0.17263 0.0984097
21 1.55588 0 0 -0.0150433 -0.0389028 -0.183922
22 1.24274 0 0 -0.000479225 0.00036051 -0.237287
23 0.784525 0 0 0.00416576 0.0145277 -1.01407
24 2.01306 0.806315 -13.2419 -0.000932693 0 -2.00317
25 6.02794 0 0 1.40047 0.442194 0.585861
26 11.7344 0 0 0.00140258 0 1.13219
27 8.81167 0 0 0.332402 0 0
28 5.77884 0 0 0.22271 0 0
29 2.23249 0 0 0.109693 0 0
30 11.4725 0 0 0.339377 -0.0464232 -0.121147
31 0.615812 0.994373 -0.809166 -2.97025 0.377536 0.373134
32 2.24752 0 0 -0.0863609 0.0306543 0.18756
33 1.11936 0 0 -0.129536 0.16338 -0.247734
34 3.71348 0.102638 0.102192 -1.57338 1.20801 -0.094764
35 1.72615 0 0 -0.0140041 -0.00309803 1.06922
36 1.21112 0 0 0.00907724 0.0151212 1.87168
37 3.5992 1.06012 0.0708885 -1.7608 1.02808 -0.234437
38 1.66069 0 0 0.0535004 0.0663869 0.806994
39 1.16699 0 0 -0.0256995 0.00585798 1.96948
40 2.18853 -0.501041 0.0576591 -1.57144 0.106396 -0.0540187
41 1.29609 0 0 0.0966379 0.0743869 0.990738
42 1.62202 -0.000713348 -0.000469208 -0.00454877 -0.0311579 1.37171
43 1.22241 0 0 0.0245549 0.0111942 1.72151
44 1.76707 -1.27612 0.0366411 -1.54714 0.313946 0.0233514
45 1.55588 0 0 0.240314 -0.0114009 1.10726
46 1.24273 0 0 0.000478878 -0.000351905 1.02076
47 0.784529 0 0 0.00744978 -0.0052357 1.65775
48 0 0 0 0 0 0
49 5.99801 -19.5208 -9.80832 0.000150838 0 0
50 0 0.175507 4.39833 0 0 0
51 -0.243587 0.175507 5.00562 0 0 0
52 -8.98651 -15.2233 -5.2717 0 0 0
53 14.9845 -3.79991 -0.242514 0.000150838 0 0
54 0 -0.0303917 1.6467 0 0 0
55 0 -2.3184 2.62787 0 0 0
56 0 -2.34127 -0.12998 0 0 0
57 0 10.015 0.00570393 0 0 0
58 0 0.899643 -0.657643 0 0 0
59 0 -6.47112 1.19749 0 0.00135781 0
60 0 -0.221876 -1.53505 -0.00495887 0 0
61 0 0.174824 -0.766596 0.00102473 0 0
62 0 0 -0.605335 0 0 0
63 0 -0.0467033 -0.715623 0 0 0
64 0 -0.0772591 -1.03217 0 0 0
65 0 0.00226402 -1.1684 0 0 0
time 27
0 5.56284 9.62242 -3.17563 0.000934124 0 -1.04975
1 6.02794 0 0 -0.953582 0.63726 -0.351451
2 11.7344 0 0 -0.00140298 0 -1.01758
3 8.81138 -0.000449181 -0.000113487 -0.189481 0 0.000158008
4 5.77839 0.000287056 0 -0.126952 0 0.000104997
5 2.23163 -0.000329018 -0.000365257 -0.0625286 0 0
6 11.4725 0 0 -0.439308 -0.43889 0.558232
7 0.615217 -0.993091 -0.8107 3.07196 0.47568 -0.191083
8 2.24752 0 0 0.0893819 0.100772 -0.129848
9 1.11936 0 0 0.0339425 0.0778112 -0.80599
10 3.71348 -0.102641 0.102191 1.55999 0.645291 0.0798625
11 1.72615 0 0 0.0194279 -0.0124617 -1.02549
12 1.21114 0 0 -0.00915483 0.0139676 -1.15628
13 3.59919 -1.06012 0.0708886 1.53849 0.357878 -0.138954
14 1.66069 0 0 -0.00234033 0.0720157 -0.267084
15 1.167 0 0 -0.0212855 0.0283246 -0.23815
16 2.18852 0.50104 0.0576593 1.55917 0.13705 0.146564
17 1.29609 0 0 0.00533155 -0.0465293 -0.302891
18 1.62202 0.000714302 -0.000471115 0.0228114 -0.0295792 -1.09019
19 1.22241 0 0 0.00650224 0.000457277 -1.08964
20 1.76707 1.27612 0.0366411 1.55741 0.17263 0.0984099
21 1.55587 0 0 -0.0150432 -0.0389028 -0.183922
22 1.24274 0 0 -0.000479232 0.000360509 -0.237287
23 0.784525 0 0 0.00416578 0.0145277 -1.01407
24 2.01306 0.806315 -13.2419 -0.000932693 0 -2.00317
25 6.02794 0 0 1.40034 0.443191 0.586195
26 11.7344 0 0 0.00140269 0 1.13586
27 8.81167 0 0 0.333091 0 0
28 5.77884 0 0 0.223171 0 0
29 2.23249 0 0 0.10992 0 0
30 11.4725 0 0 0.340662 -0.0473113 -0.127447
31 0.615812 0.994371 -0.809166 -2.97025 0.377536 0.373134
32 2.24752 0 0 -0.0863609 0.030654 0.18756
33 1.11936 0 0 -0.129536 0.16338 -0.247734
34 3.71349 0.10264 0.10219 -1.57338 1.20801 -0.094764
35 1.72615 0 0 -0.0140041 -0.003098 1.06922
36 1.21112 0 0 0.00907721 0.0151213 1.87168
37 3.5992 1.06012 0.0708876 -1.7608 1.02808 -0.234437
38 1.66069 0 0 0.0535004 0.0663869 0.806995
39 1.16699 0 0 -0.0256994 0.00585799 1.96948
40 2.18853 -0.50104 0.0576587 -1.57144 0.106396 -0.0540187
41 1.29609 0 0 0.0966379 0.0743869 0.990738
42 1.62202 -0.000713348 -0.000471115 -0.00454883 -0.0311579 1.37171
43 1.2224 0 0 0.0245549 0.0111942 1.72151
44 1.76707 -1.27612 0.0366406 -1.54714 0.313946 0.0233515
45 1.55588 0 0 0.240314 -0.011401 1.10726
46 1.24273 0 0 0.000478847 -0.0003519 1.02076
47 0.784533 0 0 0.00744977 -0.00523575 1.65775
48 0 0 0 0 0 0
49 6 -19.5151 -9.80378 0 0 0
50 0 0.175507 4.39833 0 0 0
51 -0.243587 0.175507 5.00562 0 0 0
52 -8.98651 -15.2233 -5.2717 0 0 0
53 14.9865 -3.79351 -0.23805 0 0 0
54 0 -0.0303917 1.6467 0 0 0
55 0 -2.3184 2.62787 0 0 0
56 0 -2.34127 -0.129979 0 0 0
57 0 10.015 0.00570393 0 0 0
58 0 0.899643 -0.657643 0 0 0
59 0 -6.47112 1.19749 0 0.000617602 0
60 0 -0.221874 -1.53505 0 0 0
61 0 0.174824 -0.766596 0 0 0
62 0 0 -0.605335 0 0 0
63 0 -0.0467033 -0.715623 0 0 0
64 0 -0.0772591 -1.03217 0 0 0
65 0 0.00226593 -1.16841 0 0 0
time 28
0 5.56284 9.62242 -3.17563 0.000934124 0 -1.04975
1 6.02794 0 0 -0.953527 0.6374 -0.351287
2 11.7344 0 0 -0.00140287 0 -1.01797
3 8.81138 -0.000451088 -0.000112057 -0.18934 0 0.000158154
4 5.77839 0.000286102 0 -0.126858 0 0.00010504
5 2.23163 -0.000329971 -0.000363827 -0.062482 0 0
6 11.4725 0 0 -0.439279 -0.438846 0.558428
7 0.615219 -0.993091 -0.8107 3.07196 0.475681 -0.191084
8 2.24752 0 0 0.0893817 0.100772 -0.129849
9 1.11936 0 0 0.0339425 0.0778111 -0.80599
10 3.71348 -0.102641 0.102191 1.55999 0.645291 0.0798625
11 1.72615 0 0 0.0194279 -0.0124617 -1.02549
12 1.21114 0 0 -0.00915481 0.0139676 -1.15628
13 3.59919 -1.06012 0.0708882 1.53849 0.357879 -0.138954
14 1.66069 0 0 -0.00234031 0.0720157 -0.267084
15 1.167 0 0 -0.0212855 0.0283246 -0.23815
16 2.18852 0.50104 0.0576589 1.55917 0.13705 0.146564
17 1.29609 0 0 0.00533154 -0.0465293 -0.302891
18 1.62201 0.000713348 -0.000472069 0.0228114 -0.0295792 -1.09019
19 1.22241 0 0 0.00650224 0.000457283 -1.08964
20 1.76707 1.27612 0.0366407 1.55741 0.17263 0.0984098
21 1.55588 0 0 -0.0150433 -0.0389028 -0.183922
22 1.24273 0 0 -0.000479225 0.00036051 -0.237287
23 0.784521 0 0 0.00416577 0.0145277 -1.01407
24 2.01306 0.806315 -13.2419 -0.000932693 0 -2.00317
25 6.02794 0 0 1.40028 0.443467 0.586449
26 11.7344 0 0 0.00140275 0 1.13669
27 8.81167 0 0 0.33351 0 0
28 5.77884 0 0 0.223452 0 0
29 2.23249 0 0 0.110058 0 0
30 11.4725 0 0 0.341253 -0.0479285 -0.128774
31 0.615812 0.994371 -0.809166 -2.97025 0.377536 0.373134
32 2.24752 0 0 -0.086361 0.0306541 0.18756
33 1.11936 0 0 -0.129536 0.16338 -0.247734
34 3.71349 0.102638 0.102191 -1.57338 1.20801 -0.0947637
35 1.72615 0 0 -0.014004 -0.00309803 1.06922
36 1.21112 0 0 0.0090772 0.0151213 1.87168
37 3.5992 1.06012 0.070888 -1.7608 1.02808 -0.234437
38 1.66069 0 0 0.0535003 0.0663869 0.806995
39 1.16699 0 0 -0.0256995 0.00585793 1.96948
40 2.18853 -0.501043 0.0576596 -1.57144 0.106396 -0.0540188
41 1.29609 0 0 0.0966379 0.0743868 0.990738
42 1.62202 -0.000711441 -0.000469208 -0.00454886 -0.031158 1.37171
43 1.22241 0 0 0.0245549 0.0111942 1.72151
44 1.76707 -1.27612 0.0366416 -1.54714 0.313946 0.0233514
45 1.55587 0 0 0.240314 -0.011401 1.10726
46 1.24273 0 0 0.000478906 -0.000351946 1.02076
47 0.784533 0 0 0.00744978 -0.00523565 1.65775
48 0 0 0 0 0 0
49 6.00098 -19.5131 -9.80279 0 0 0
50 0 0.175507 4.39833 0 0 0
51 -0.243587 0.175507 5.00562 0 0 0
52 -8.98651 -15.2233 -5.2717 0 0 0
53 14.9875 -3.79152 -0.237053 0 0 0
54 0 -0.0303917 1.6467 0 0 0
55 0 -2.3184 2.62787 0 0 0
56 0 -2.34127 -0.129979 0 0 0
57 0 10.015 0.00570393 0 0 0
58 0 0.899643 -0.657643 0 0 0
59 0 -6.47112 1.19749 0 0 0
60 0 -0.221874 -1.53505 0.00141241 0 0
61 0 0.174824 -0.766596 -0.000543816 0 0
62 0 0 -0.605336 0 0 0
63 0 -0.0467033 -0.715623 0 0 0
64 0 -0.0772591 -1.03217 0 0 0
65 0 0.00226593 -1.1684 0 0 0
time 29
0 5.56284 9.62242 -3.17563 0.000934124 0 -1.04975
1 6.02794 0 0 -0.95352 0.637417 -0.351266
2 11.7344 0 0 -0.00140277 0 -1.01802
3 8.81138 -0.000450134 -0.000112534 -0.189322 0 0.00015797
4 5.77839 0.000286102 0 -0.126846 0 0.000105155
5 2.23163 -0.000329018 -0.000364304 -0.0624762 0 0
6 11.4725 0 0 -0.439276 -0.438841 0.558453
7 0.615219 -0.993092 -0.810701 3.07196 0.47568 -0.191083
8 2.24752 0 0 0.0893818 0.100772 -0.129848
9 1.11936 0 0 0.0339424 0.0778111 -0.80599
10 3.71348 -0.102641 0.10219 1.55999 0.645291 0.0798626
11 1.72615 0 0 0.0194279 -0.0124617 -1.02549
12 1.21114 0 0 -0.00915482 0.0139676 -1.15628
13 3.59919 -1.06012 0.0708878 1.53849 0.357878 -0.138954
14 1.66069 0 0 -0.00234032 0.0720157 -0.267084
15 1.16699 0 0 -0.0212855 0.0283246 -0.23815
16 2.18852 0.50104 0.0576583 1.55917 0.13705 0.146564
17 1.29609 0 0 0.00533151 -0.0465293 -0.302891
18 1.62202 0.000713348 -0.000471592 0.0228114 -0.0295792 -1.0902
19 1.22241 0 0 0.00650225 0.000457279 -1.08964
20 1.76707 1.27612 0.036641 1.55741 0.17263 0.0984098
21 1.55587 0 0 -0.0150433 -0.0389028 -0.183922
22 1.24274 0 0 -0.00047923 0.000360517 -0.237287
23 0.784523 0 0 0.00416578 0.0145277 -1.01407
24 2.01306 0.806315 -13.2419 -0.000932693 0 -2.00317
25 6.02794 0 0 1.40027 0.443445 0.586567
26 11.7344 0 0 0.00140263 0 1.13657
27 8.81167 0 0 0.333688 0 0
28 5.77884 0 0 0.223571 0 0
29 2.23249 0 0 0.110117 0 0
30 11.4725 0 0 0.341439 -0.0482134 -0.128531
31 0.615813 0.994373 -0.809166 -2.97025 0.377536 0.373134
32 2.24752 0 0 -0.086361 0.0306541 0.18756
33 1.11936 0 0 -0.129536 0.16338 -0.247734
34 3.71349 0.102638 0.102191 -1.57338 1.20801 -0.0947635
35 1.72615 0 0 -0.014004 -0.003098 1.06922
36 1.21112 0 0 0.00907722 0.0151212 1.87168
37 3.5992 1.06012 0.0708885 -1.7608 1.02808 -0.234437
38 1.66069 0 0 0.0535003 0.0663869 0.806995
39 1.16699 0 0 -0.0256995 0.00585794 1.96948
40 2.18853 -0.501041 0.0576596 -1.57144 0.106396 -0.0540188
41 1.29609 0 0 0.0966379 0.0743869 0.990738
42 1.62202 -0.000713348 -0.000469208 -0.00454882 -0.031158 1.37171
43 1.22241 0 0 0.024555 0.0111942 1.72151
44 1.76707 -1.27612 0.0366411 -1.54714 0.313946 0.0233514
45 1.55588 0 0 0.240314 -0.011401 1.10726
46 1.24273 0 0 0.000478841 -0.00035188 1.02076
47 0.784533 0 0 0.00744978 -0.00523568 1.65775
48 0 0 0 0 0 0
49 6.0011 -19.5128 -9.80266 0 0 0
50 0 0.175507 4.39833 0 0 0
51 -0.243587 0.175507 5.00562 0 0 0
52 -8.98651 -15.2233 -5.2717 0 0 0
53 14.9876 -3.79127 -0.236928 0 0 0
54 0 -0.0303917 1.6467 0 0 0
55 0 -2.3184 2.62787 0 0 0
56 0 -2.34127 -0.129979 0 0 0
57 0 10.015 0.00570393 0 0 0
58 0 0.899643 -0.657643 0 0 0
59 0 -6.47112 1.19749 0 -0.000328827 0
60 0 -0.221874 -1.53505 0.00125548 0 0
61 0 0.174824 -0.766595 -0.000483393 0 0
62 0 0 -0.605335 0 0 0
63 0 -0.0467014 -0.715622 0 0 0
64 0 -0.0772591 -1.03217 0 0 0
65 0 0.00226593 -1.16841 0 0 0
time 30
0 5.56284 9.62242 -3.17563 0.000934124 0 -1.04975
1 6.02794 0 0 -0.953541 0.637365 -0.351328
2 11.7344 0 0 -0.00140277 0 -1.01787
3 8.81138 -0.000451088 -0.000113487 -0.189375 0 0.000158304
4 5.77839 0.000286102 0 -0.126881 0 0.000105163
5 2.23163 -0.000329971 -0.00036478 -0.0624939 0 0
6 11.4725 0 0 -0.439287 -0.438857 0.558379
7 0.615217 -0.993091 -0.8107 3.07196 0.47568 -0.191083
8 2.24752 0 0 0.0893819 0.100772 -0.129848
9 1.11936 0 0 0.0339424 0.077811 -0.80599
10 3.71348 -0.102642 0.102191 1.55999 0.645291 0.0798625
11 1.72615 0 0 0.0194279 -0.0124617 -1.02549
12 1.21114 0 0 -0.0091548 0.0139676 -1.15628
13 3.59919 -1.06012 0.0708878 1.53849 0.357878 -0.138954
14 1.66069 0 0 -0.00234031 0.0720157 -0.267084
15 1.167 0 0 -0.0212855 0.0283246 -0.23815
16 2.18852 0.50104 0.0576593 1.55917 0.13705 0.146564
17 1.29609 0 0 0.00533152 -0.0465293 -0.302891
18 1.62202 0.000714302 -0.000471115 0.0228114 -0.0295792 -1.0902
19 1.22241 0 0 0.00650224 0.000457281 -1.08964
20 1.76707 1.27612 0.0366406 1.55741 0.17263 0.0984098
21 1.55587 0 0 -0.0150433 -0.0389028 -0.183922
22 1.24273 0 0 -0.000479218 0.000360511 -0.237287
23 0.784521 0 0 0.00416576 0.0145277 -1.01407
24 2.01306 0.806315 -13.2419 -0.000932693 0 -2.00317
25 6.02794 0 0 1.40029 0.443299 0.586538
26 11.7344 0 0 0.00140272 0 1.13608
27 8.81167 0 0 0.333628 0 0
28 5.77884 0 0 0.223531 0 0
29 2.23249 0 0 0.110097 0 0
30 11.4725 0 0 0.341305 -0.0481433 -0.12772
31 0.615813 0.99437 -0.809165 -2.97025 0.377536 0.373134
32 2.24752 0 0 -0.0863608 0.0306543 0.18756
33 1.11936 0 0 -0.129536 0.16338 -0.247734
34 3.71348 0.102638 0.102191 -1.57338 1.20801 -0.0947643
35 1.72615 0 0 -0.014004 -0.00309807 1.06922
36 1.21113 0 0 0.0090773 0.0151212 1.87168
37 3.5992 1.06012 0.0708885 -1.7608 1.02808 -0.234437
38 1.66069 0 0 0.0535003 0.0663869 0.806995
39 1.16699 0 0 -0.0256995 0.00585794 1.96948
40 2.18853 -0.501041 0.0576601 -1.57144 0.106396 -0.0540188
41 1.29609 0 0 0.0966379 0.0743869 0.990738
42 1.62202 -0.000711441 -0.000469208 -0.00454885 -0.0311579 1.37171
43 1.2224 0 0 0.0245549 0.0111943 1.72151
44 1.76707 -1.27612 0.0366421 -1.54714 0.313946 0.0233513
45 1.55587 0 0 0.240314 -0.0114011 1.10726
46 1.24273 0 0 0.000478935 -0.000351834 1.02076
47 0.784533 0 0 0.00744978 -0.00523568 1.65775
48 0 0 0 0 0 0
49 6.00073 -19.5136 -9.80304 0 0 0
50 0 0.175507 4.39833 0 0 0
51 -0.243587 0.175507 5.00562 0 0 0
52 -8.98651 -15.2233 -5.2717 0 0 0
53 14.9872 -3.79202 -0.237302 0 0 0
54 0 -0.0303917 1.6467 0 0 0
55 0 -2.3184 2.62787 0 0 0
56 0 -2.34127 -0.129979 0 0 0
57 0 10.015 0.00570393 0 0 0
58 0 0.899643 -0.657643 0 0 0
59 0 -6.47112 1.19749 0 -0.000292291 0
60 0 -0.221874 -1.53505 0.000470804 0 0
61 0 0.174824 -0.766596 -0.000181272 0 0
62 0 0 -0.605335 0 0 0
63 0 -0.0467014 -0.715623 0 0 0
64 0 -0.0772591 -1.03217 0 0 0
65 0 0.00226593 -1.16841 0 0 0
time 31
0 5.56284 9.62242 -3.17563 0.000934124 0 -1.04975
1 6.02794 0 0 -0.953568 0.637295 -0.351411
2 11.7344 0 0 -0.00140277 0 -1.01767
3 8.81138 -0.000451088 -0.00011301 -0.189446 0 0.000158344
4 5.77839 0.000285149 0 -0.126929 0 0.000105239
5 2.23163 -0.000329971 -0.000364304 -0.0625173 0 0
6 11.4725 0 0 -0.439301 -0.438879 0.558281
7 0.615219 -0.993091 -0.810701 3.07196 0.47568 -0.191083
8 2.24752 0 0 0.0893818 0.100772 -0.129849
9 1.11935 0 0 0.0339425 0.0778111 -0.80599
10 3.71348 -0.102641 0.10219 1.55999 0.645291 0.0798623
11 1.72615 0 0 0.019428 -0.0124617 -1.02549
12 1.21114 0 0 -0.00915481 0.0139676 -1.15628
13 3.59919 -1.06012 0.0708873 1.53849 0.357878 -0.138954
14 1.66069 0 0 -0.00234032 0.0720157 -0.267084
15 1.167 0 0 -0.0212855 0.0283246 -0.23815
16 2.18853 0.50104 0.0576579 1.55917 0.13705 0.146564
17 1.29609 0 0 0.00533154 -0.0465293 -0.302891
18 1.62202 0.000713348 -0.000471115 0.0228114 -0.0295792 -1.0902
19 1.22241 0 0 0.00650225 0.000457288 -1.08964
20 1.76707 1.27612 0.0366406 1.55741 0.17263 0.0984097
21 1.55588 0 0 -0.0150433 -0.0389028 -0.183922
22 1.24273 0 0 -0.000479211 0.000360519 -0.237287
23 0.784527 0 0 0.00416578 0.0145277 -1.01407
24 2.01306 0.806315 -13.2419 -0.000932693 0 -2.00317
25 6.02794 0 0 1.40031 0.443197 0.586453
26 11.7344 0 0 0.00140274 0 1.13576
27 8.81167 0 0 0.333511 0 0
28 5.77884 0 0 0.223452 0 0
29 2.23249 0 0 0.110059 0 0
30 11.4725 0 0 0.341128 -0.047948 -0.127237
31 0.615814 0.994373 -0.809165 -2.97025 0.377536 0.373134
32 2.24752 0 0 -0.0863611 0.0306542 0.18756
33 1.11936 0 0 -0.129536 0.16338 -0.247734
34 3.71349 0.10264 0.10219 -1.57338 1.20801 -0.094764
35 1.72615 0 0 -0.0140041 -0.00309802 1.06922
36 1.21112 0 0 0.00907722 0.0151213 1.87168
37 3.5992 1.06012 0.0708876 -1.7608 1.02808 -0.234437
38 1.66069 0 0 0.0535004 0.0663869 0.806995
39 1.16699 0 0 -0.0256994 0.00585796 1.96948
40 2.18853 -0.50104 0.0576596 -1.57144 0.106396 -0.0540188
41 1.29609 0 0 0.0966379 0.0743869 0.990738
42 1.62202 -0.000715256 -0.000469208 -0.00454884 -0.0311579 1.37171
43 1.22241 0 0 0.0245549 0.0111942 1.72151
44 1.76707 -1.27612 0.0366406 -1.54714 0.313946 0.0233515
45 1.55587 0 0 0.240314 -0.011401 1.10726
46 1.24273 0 0 0.000478871 -0.000351918 1.02076
47 0.784531 0 0 0.00744981 -0.00523569 1.65775
48 0 0 0 0 0 0
49 6.00024 -19.5146 -9.80353 0 0 0
50 0 0.175507 4.39833 0 0 0
51 -0.243587 0.175507 5.00562 0 0 0
52 -8.98651 -15.2233 -5.2717 0 0 0
53 14.9868 -3.79301 -0.237801 0 0 0
54 0 -0.0303917 1.6467 0 0 0
55 0 -2.3184 2.62787 0 0 0
56 0 -2.34127 -0.129979 0 0 0
57 0 10.015 0.00570393 0 0 0
58 0 0.899643 -0.657643 0 0 0
59 0 -6.47112 1.19749 0 -0.000109609 0
60 0 -0.221874 -1.53505 0 0 0
61 0 0.174824 -0.766596 0 0 0
62 0 0 -0.605335 0 0 0
63 0 -0.0467033 -0.715623 0 0 0
64 0 -0.0772591 -1.03217 0 0 0
65 0 0.00226593 -1.16841 0 0 0
time 32
0 5.56284 9.62242 -3.17563 0.000934124 0 -1.04975
1 6.02794 0 0 -0.953582 0.63726 -0.351451
2 11.7344 0 0 -0.00140298 0 -1.01758
3 8.81138 -0.000449181 -0.000113487 -0.189481 0 0.000158008
4 5.77839 0.000287056 0 -0.126952 0 0.000104997
5 2.23163 -0.000329018 -0.000365257 -0.0625286 0 0
6 11.4725 0 0 -0.439308 -0.43889 0.558232
7 0.615217 -0.993091 -0.8107 3.07196 0.47568 -0.191083
8 2.24752 0 0 0.0893819 0.100772 -0.129848
9 1.11936 0 0 0.0339425 0.0778112 -0.80599
10 3.71348 -0.102641 0.102191 1.55999 0.645291 0.0798625
11 1.72615 0 0 0.0194279 -0.0124617 -1.02549
12 1.21114 0 0 -0.00915483 0.0139676 -1.15628
13 3.59919 -1.06012 0.0708886 1.53849 0.357878 -0.138954
14 1.66069 0 0 -0.00234033 0.0720157 -0.267084
15 1.167 0 0 -0.0212855 0.0283246 -0.23815
16 2.18852 0.50104 0.0576593 1.55917 0.13705 0.146564
17 1.29609 0 0 0.00533155 -0.0465293 -0.302891
18 1.62202 0.000714302 -0.000471115 0.0228114 -0.0295792 -1.09019
19 1.22241 0 0 0.00650224 0.000457277 -1.08964
20 1.76707 1.27612 0.0366411 1.55741 0.17263 0.0984099
21 1.55587 0 0 -0.0150432 -0.0389028 -0.183922
22 1.24274 0 0 -0.000479232 0.000360509 -0.237287
23 0.784525 0 0 0.00416578 0.0145277 -1.01407
24 2.01306 0.806315 -13.2419 -0.000932693 0 -2.00317
25 6.02794 0 0 1.40031 0.443183 0.586403
26 11.7344 0 0 0.0014027 0 1.13572
27 8.81167 0 0 0.333459 0 0
28 5.77884 0 0 0.223417 0 0
29 2.23249 0 0 0.110041 0 0
30 11.4725 0 0 0.341064 -0.0478399 -0.127227
31 0.615814 0.994373 -0.809165 -2.97025 0.377536 0.373134
32 2.24752 0 0 -0.0863609 0.0306542 0.18756
33 1.11936 0 0 -0.129536 0.16338 -0.247734
34 3.71348 0.102642 0.102191 -1.57338 1.20801 -0.0947637
35 1.72615 0 0 -0.014004 -0.00309799 1.06922
36 1.21112 0 0 0.00907728 0.0151213 1.87168
37 3.5992 1.06012 0.0708885 -1.7608 1.02808 -0.234437
38 1.66069 0 0 0.0535003 0.0663869 0.806995
39 1.16699 0 0 -0.0256994 0.00585793 1.96948
40 2.18853 -0.501038 0.0576582 -1.57144 0.106396 -0.0540188
41 1.29609 0 0 0.0966379 0.0743868 0.990738
42 1.62202 -0.000715256 -0.000471115 -0.00454888 -0.031158 1.37171
43 1.22241 0 0 0.0245549 0.0111943 1.72151
44 1.76707 -1.27612 0.0366411 -1.54714 0.313946 0.0233514
45 1.55588 0 0 0.240314 -0.011401 1.10726
46 1.24273 0 0 0.000478876 -0.000351908 1.02076
47 0.784533 0 0 0.00744979 -0.00523571 1.65775
48 0 0 0 0 0 0
49 6 -19.5151 -9.80378 0 0 0
50 0 0.175507 4.39833 0 0 0
51 -0.243587 0.175507 5.00562 0 0 0
52 -8.98651 -15.2233 -5.2717 0 0 0
53 14.9865 -3.79351 -0.23805 0 0 0
54 0 -0.0303917 1.6467 0 0 0
55 0 -2.3184 2.62787 0 0 0
56 0 -2.34127 -0.129979 0 0 0
57 0 10.015 0.00570393 0 0 0
58 0 0.899643 -0.657643 0 0 0
59 0 -6.47112 1.19749 0 0 0
60 0 -0.221874 -1.53505 0 0 0
61 0 0.174824 -0.766596 0 0 0
62 0 0 -0.605335 0 0 0
63 0 -0.0467033 -0.715623 0 0 0
64 0 -0.0772591 -1.03217 0 0 0
65 0 0.00226593 -1.16841 0 0 0
end
