//Sequence File generated by the Wall Worm SMD Exporter PRO 1.99
//www.wallworm.com
version 1
nodes
0 "b_l_clav" -1
1 "b_l_upperarm" 0
2 "b_l_forearm" 1
3 "b_l_twist3" 2
4 "b_l_twist2" 2
5 "b_l_twist1" 2
6 "b_l_hand" 2
7 "b_l_thumb001" 6
8 "b_l_thumb002" 7
9 "b_l_thumb003" 8
10 "b_l_middle001" 6
11 "b_l_middle002" 10
12 "b_l_middle003" 11
13 "b_l_index001" 6
14 "b_l_index002" 13
15 "b_l_index003" 14
16 "b_l_hand_ringsqueezer" 6
17 "b_l_ring001" 16
18 "b_l_ring002" 17
19 "b_l_ring003" 18
20 "b_l_hand_pinkysqueezer" 6
21 "b_l_pinky001" 20
22 "b_l_pinky002" 21
23 "b_l_pinky003" 22
24 "b_r_clav" -1
25 "b_r_upperarm" 24
26 "b_r_forearm" 25
27 "b_r_twist3" 26
28 "b_r_twist2" 26
29 "b_r_twist1" 26
30 "b_r_hand" 26
31 "b_r_thumb001" 30
32 "b_r_thumb002" 31
33 "b_r_thumb003" 32
34 "b_r_middle001" 30
35 "b_r_middle002" 34
36 "b_r_middle003" 35
37 "b_r_index001" 30
38 "b_r_index002" 37
39 "b_r_index003" 38
40 "b_r_hand_ringsqueezer" 30
41 "b_r_ring001" 40
42 "b_r_ring002" 41
43 "b_r_ring003" 42
44 "b_r_hand_pinkysqueezer" 30
45 "b_r_pinky001" 44
46 "b_r_pinky002" 45
47 "b_r_pinky003" 46
48 "b_zero" -1
49 "d_boolet001" -1
50 "d_boolet002" -1
51 "d_boolet003" -1
52 "d_gun" -1
53 "Dummy002" 52
54 "d_trigger" 52
55 "d_magfollower" 52
56 "d_bolt" 52
57 "d_firingpin" 56
end
skeleton
time 0
0 8.32413 8.16715 1.13099 0.000934124 0 -1.48352
1 6.02794 0 0 -0.472399 1.03527 0.627263
2 11.7344 0 0 -0.00140288 0 -1.44113
3 8.81138 -0.000449181 -0.000110626 -0.741699 0 0.000157586
4 5.77839 0.000286102 0 -0.496939 0 0.000102553
5 2.23163 -0.000329971 -0.000362396 -0.244761 0 0
6 11.4725 0 0 -0.799369 0.0538426 0.529236
7 0.615219 -0.993091 -0.8107 3.00745 0.525484 -0.655733
8 2.24752 0 0 0.667292 0.01813 -0.237173
9 1.11936 0 0 0.0670304 0.143754 -0.381466
10 3.71348 -0.102641 0.102191 2.18529 1.3845 0.778308
11 1.72615 0 0 0.0030281 -0.00362355 -0.807736
12 1.21114 0 0 -0.00418822 0.0171319 -0.837242
13 3.59919 -1.06012 0.0708885 1.85035 0.0419343 -0.185412
14 1.66069 0 0 -0.0127534 0.0768157 -0.387616
15 1.167 0 0 -0.0377702 0.0192858 -0.690695
16 2.18853 0.50104 0.0576591 1.57003 0.13363 0.225797
17 1.29609 0 0 0.040034 0.018311 -1.31443
18 1.62202 0.000715256 -0.000471115 0.00894344 -0.0133641 -1.02281
19 1.22241 0 0 -0.00645995 0.00783615 -0.677319
20 1.76707 1.27612 0.0366402 1.5479 0.272488 0.179235
21 1.55588 0 0 -0.0321502 0.00539375 -1.11005
22 1.24273 0 0 -0.00058045 -0.000150625 -0.933327
23 0.784525 0 0 0.00625158 -0.0080239 -0.695876
24 -1.32739 -2.53706 -8.59145 -0.000932694 0 -1.7924
25 6.02794 0 0 0.927436 0.468256 0.325163
26 11.7344 0 0 0.00140257 0 1.0837
27 8.81167 0 0 2.19023 0 0
28 5.77884 0 0 1.46745 0 0
29 2.23249 0 0 0.722775 0 0
30 11.4725 0 0 2.1848 -0.00938465 -0.158372
31 0.615814 0.994373 -0.809165 -3.01765 0.219908 0.329798
32 2.24752 0 0 -0.0916132 0.00159445 -0.135336
33 1.11936 0 0 -0.0635615 0.198333 0.115097
34 3.71349 0.10264 0.102191 -1.55971 0.229201 -0.0768884
35 1.72615 0 0 -0.0280691 -0.00509503 1.50302
36 1.21112 0 0 -0.0135007 0.011348 -0.274396
37 3.5992 1.06012 0.0708895 -1.56456 0.0540258 -0.156728
38 1.66069 0 0 0.046973 0.0621234 0.870993
39 1.16699 0 0 0.0141888 0.0101196 0.588502
40 2.18853 -0.50104 0.0576601 -1.57725 0.0209802 -0.0877147
41 1.29609 0 0 -0.015608 -0.0441582 0.528637
42 1.62202 -0.000715256 -0.000469208 -0.0182865 -0.0140881 1.34745
43 1.22241 0 0 -0.00671066 0.00538794 -0.380804
44 1.76707 -1.27612 0.0366402 -1.52689 0.184153 -0.0299081
45 1.55587 0 0 0.0317506 0.00739324 1.04752
46 1.24273 0 0 0.000582344 0.000141576 0.441468
47 0.784533 0 0 -0.0121966 -0.00723437 -0.33794
48 0 0 0 0 0 0
49 13.9988 -8.36275 -12.8761 1.5708 -1.5708 0
50 11.9574 -8.36275 -12.8761 1.5708 -1.5708 0
51 9.77035 -8.36275 -12.8761 1.5708 -1.5708 0
52 6.72349 -21.2133 -6.95018 0 0 0
53 0 -13.2809 3.88246 0 0 0
54 0 1.99361 -1.25282 0 0 0
55 0 -3.47495 0.582541 0 0 0
56 0 -0.251465 1.74774 0 0 0
57 0 2.53135 0 0 0 0
time 1
0 8.32413 8.16715 1.13099 0.000934124 0 -1.48352
1 6.02794 0 0 -0.0135412 1.05109 1.0259
2 11.7344 0 0 -0.00140286 0 -1.69844
3 8.81138 -0.000450134 -0.00011158 -0.791136 0 0.00015777
4 5.77839 0.000286102 0 -0.530062 0 0.000102515
5 2.23163 -0.000329971 -0.000363827 -0.261075 0 0
6 11.4725 0 0 -0.886582 -0.0349862 0.573548
7 0.615218 -0.993092 -0.8107 3.00745 0.525484 -0.655733
8 2.24752 0 0 0.667292 0.0181302 -0.237173
9 1.11936 0 0 0.0670304 0.143754 -0.381466
10 3.71348 -0.102641 0.102191 2.18529 1.3845 0.778309
11 1.72615 0 0 0.00302825 -0.00362358 -0.807736
12 1.21114 0 0 -0.00418826 0.0171318 -0.837242
13 3.59919 -1.06012 0.0708866 1.85035 0.0419343 -0.185412
14 1.66069 0 0 -0.0255993 0.0735448 -0.558232
15 1.167 0 0 -0.0411835 0.0118944 -0.860718
16 2.18852 0.50104 0.0576582 1.57003 0.13363 0.225797
17 1.29609 0 0 0.0400339 0.0183109 -1.31443
18 1.62202 0.000713348 -0.000471115 0.00894354 -0.013364 -1.02281
19 1.22241 0 0 -0.00645987 0.00783624 -0.677319
20 1.76707 1.27612 0.0366402 1.5479 0.272488 0.179235
21 1.55588 0 0 -0.0321503 0.00539374 -1.11005
22 1.24274 0 0 -0.000580463 -0.000150598 -0.933327
23 0.784523 0 0 0.00625154 -0.00802404 -0.695876
24 -1.32739 -2.53706 -8.59145 -0.000932694 0 -1.7924
25 6.02794 0 0 0.846062 0.586644 0.252241
26 11.7344 0 0 0.00140261 0 1.42317
27 8.81167 0 0 2.19727 0 0
28 5.77884 0 0 1.47217 0 0
29 2.23249 0 0 0.725098 0 0
30 11.4725 0 0 2.1758 -0.0638681 -0.353191
31 0.615812 0.994371 -0.809164 -3.01765 0.219908 0.329799
32 2.24751 0 0 -0.0916131 0.00159442 -0.135335
33 1.11936 0 0 -0.0635615 0.198333 0.115097
34 3.71348 0.102639 0.10219 -1.5597 0.229201 -0.0768882
35 1.72615 0 0 -0.028069 -0.00509505 1.50302
36 1.21112 0 0 -0.0135007 0.0113479 -0.274396
37 3.5992 1.06012 0.0708885 -1.56456 0.0540258 -0.156728
38 1.66069 0 0 0.0469728 0.0621233 0.870993
39 1.16699 0 0 0.0141889 0.0101197 0.588502
40 2.18853 -0.50104 0.0576601 -1.57725 0.0209802 -0.0877144
41 1.29609 0 0 -0.0156082 -0.0441581 0.528637
42 1.62202 -0.000711441 -0.000472069 -0.0182865 -0.0140883 1.34745
43 1.22241 0 0 -0.00671064 0.00538801 -0.380805
44 1.76707 -1.27612 0.0366402 -1.52689 0.184153 -0.029908
45 1.55587 0 0 0.0317506 0.00739323 1.04752
46 1.24273 0 0 0.000582557 0.000141441 0.441468
47 0.784532 0 0 -0.0121968 -0.00723447 -0.33794
48 0 0 0 0 0 0
49 13.9652 -5.86944 -13.081 0.144908 -1.55356 1.42728
50 11.9238 -5.87224 -13.0759 0.144908 -1.55356 1.42728
51 9.7368 -5.87523 -13.0705 0.144908 -1.55356 1.42728
52 6.72272 -18.627 -6.91872 -0.0170541 0.00248846 0.00137035
53 0 -13.2809 3.88246 0 0 0
54 0.000359058 2.25594 -1.24835 0 0 0
55 0 -3.47495 0.582542 0 0 0
56 0 -0.251463 1.74774 0 0 0
57 0 2.44569 0 0 0 0
time 2
0 8.32413 8.16715 1.13099 0.000934124 0 -1.48352
1 6.02794 0 0 0.075245 1.0353 1.08799
2 11.7344 0 0 -0.00140294 0 -1.72822
3 8.81138 -0.000449181 -0.00011158 -0.81654 0 0.000157717
4 5.77839 0.000287056 0 -0.547082 0 0.000102647
5 2.23163 -0.000329018 -0.000363827 -0.269458 0 0
6 11.4725 0 0 -0.913506 -0.0752254 0.555559
7 0.615219 -0.993091 -0.810701 3.00745 0.525484 -0.655733
8 2.24752 0 0 0.667292 0.0181301 -0.237173
9 1.11936 0 0 0.0670305 0.143754 -0.381466
10 3.71348 -0.10264 0.10219 2.18529 1.3845 0.778309
11 1.72615 0 0 0.00302828 -0.00362351 -0.807736
12 1.21114 0 0 -0.00418829 0.0171317 -0.837242
13 3.59919 -1.06012 0.0708866 1.85035 0.0419343 -0.185412
14 1.66069 0 0 -0.0255993 0.0735448 -0.558232
15 1.167 0 0 -0.0411836 0.0118944 -0.860718
16 2.18852 0.50104 0.0576582 1.57003 0.13363 0.225797
17 1.29609 0 0 0.0400339 0.018311 -1.31443
18 1.62202 0.000715256 -0.000471592 0.00894343 -0.013364 -1.02281
19 1.22241 0 0 -0.00645991 0.00783626 -0.677319
20 1.76707 1.27612 0.0366392 1.5479 0.272488 0.179235
21 1.55588 0 0 -0.0321502 0.00539384 -1.11005
22 1.24273 0 0 -0.000580476 -0.000150572 -0.933327
23 0.784523 0 0 0.00625157 -0.00802387 -0.695876
24 -1.32739 -2.53706 -8.59145 -0.000932694 0 -1.7924
25 6.02794 0 0 0.839969 0.593817 0.247124
26 11.7344 0 0 0.00140266 0 1.46866
27 8.81167 0 0 2.18405 0 0
28 5.77884 0 0 1.46331 0 0
29 2.23249 0 0 0.720737 0 0
30 11.4725 0 0 2.1605 -0.0707684 -0.373272
31 0.615814 0.994372 -0.809166 -3.01765 0.219908 0.329799
32 2.24752 0 0 -0.0916131 0.00159453 -0.135336
33 1.11936 0 0 -0.0635615 0.198333 0.115097
34 3.71349 0.102638 0.10219 -1.55971 0.229201 -0.0768883
35 1.72615 0 0 -0.028069 -0.00509516 1.50302
36 1.21112 0 0 -0.0135007 0.0113481 -0.274396
37 3.5992 1.06012 0.0708866 -1.56456 0.0540258 -0.156728
38 1.66069 0 0 0.0469729 0.0621233 0.870993
39 1.16699 0 0 0.0141889 0.0101197 0.588502
40 2.18853 -0.501041 0.0576582 -1.57725 0.0209803 -0.0877144
41 1.29609 0 0 -0.0156081 -0.0441582 0.528637
42 1.62201 -0.000713348 -0.000472069 -0.0182865 -0.0140881 1.34745
43 1.22241 0 0 -0.00671065 0.00538789 -0.380804
44 1.76707 -1.27612 0.0366402 -1.52689 0.184153 -0.0299078
45 1.55588 0 0 0.0317506 0.00739309 1.04752
46 1.24273 0 0 0.000582683 0.000141454 0.441468
47 0.784531 0 0 -0.0121967 -0.00723437 -0.33794
48 0 0 0 0 0 0
49 13.9177 -5.55477 -13.335 0.146844 -1.53108 1.42735
50 11.8763 -5.56147 -13.3231 0.146844 -1.53108 1.42735
51 9.68934 -5.56864 -13.3104 0.146844 -1.53108 1.42735
52 6.72127 -18.1863 -6.86673 -0.0392919 0.00580973 0.0032819
53 0 -13.2809 3.88246 0 0 0
54 0.000359058 2.25594 -1.24835 0 0 0
55 0 -3.47495 0.582541 0 0 0
56 0 -0.251467 1.74774 0 0 0
57 0 2.44569 0 0 0 0
time 3
0 8.32413 8.16715 1.13099 0.000934124 0 -1.48352
1 6.02794 0 0 0.113606 1.02905 1.12069
2 11.7344 0 0 -0.00140286 0 -1.7548
3 8.81138 -0.000450134 -0.000112057 -0.820835 0 0.000157458
4 5.77839 0.000285149 0 -0.54996 0 0.000102432
5 2.23163 -0.000330925 -0.000364304 -0.270876 0 0
6 11.4725 0 0 -0.922227 -0.0840939 0.564622
7 0.615219 -0.993091 -0.8107 3.00745 0.525484 -0.655733
8 2.24752 0 0 0.667291 0.0181301 -0.237173
9 1.11936 0 0 0.0670304 0.143754 -0.381466
10 3.71348 -0.10264 0.10219 2.18529 1.3845 0.778308
11 1.72615 0 0 0.00302813 -0.00362354 -0.807736
12 1.21114 0 0 -0.00418823 0.0171318 -0.837242
13 3.59919 -1.06012 0.0708866 1.85035 0.0419342 -0.185412
14 1.66069 0 0 -0.0255993 0.0735448 -0.558232
15 1.167 0 0 -0.0411836 0.0118944 -0.860718
16 2.18852 0.501039 0.0576591 1.57003 0.13363 0.225797
17 1.29609 0 0 0.0400339 0.0183109 -1.31443
18 1.62202 0.000713348 -0.000471115 0.00894344 -0.0133639 -1.02281
19 1.22241 0 0 -0.00645975 0.00783613 -0.677319
20 1.76707 1.27612 0.0366392 1.5479 0.272488 0.179235
21 1.55588 0 0 -0.0321501 0.00539387 -1.11005
22 1.24273 0 0 -0.00058041 -0.000150572 -0.933327
23 0.784523 0 0 0.00625164 -0.00802391 -0.695876
24 -1.32739 -2.53706 -8.59145 -0.000932694 0 -1.7924
25 6.02794 0 0 0.835211 0.598988 0.243742
26 11.7344 0 0 0.00140267 0 1.49597
27 8.81167 0 0 2.186 0 0
28 5.77884 0 0 1.46462 0 0
29 2.23249 0 0 0.72138 0 0
30 11.4725 0 0 2.15952 -0.0735477 -0.393806
31 0.615812 0.994372 -0.809166 -3.01765 0.219908 0.329799
32 2.24752 0 0 -0.0916132 0.00159446 -0.135336
33 1.11936 0 0 -0.0635615 0.198333 0.115097
34 3.71348 0.10264 0.10219 -1.55971 0.229201 -0.0768883
35 1.72615 0 0 -0.0280692 -0.00509511 1.50302
36 1.21112 0 0 -0.0135007 0.0113479 -0.274396
37 3.5992 1.06012 0.0708876 -1.56456 0.0540259 -0.156728
38 1.66069 0 0 0.0469729 0.0621233 0.870993
39 1.16699 0 0 0.014189 0.0101198 0.588502
40 2.18853 -0.50104 0.0576572 -1.57725 0.0209802 -0.0877145
41 1.29609 0 0 -0.015608 -0.0441581 0.528637
42 1.62201 -0.000711441 -0.000471115 -0.0182866 -0.0140882 1.34745
43 1.22241 0 0 -0.00671069 0.00538798 -0.380804
44 1.76707 -1.27612 0.0366402 -1.52689 0.184153 -0.029908
45 1.55588 0 0 0.0317506 0.00739331 1.04752
46 1.24273 0 0 0.000582515 0.000141523 0.441468
47 0.784533 0 0 -0.0121968 -0.00723453 -0.33794
48 0 0 0 0 0 0
49 13.9058 -5.31326 -13.2799 0.15753 -1.52975 1.41724
50 11.8645 -5.3211 -13.2668 0.15753 -1.52975 1.41724
51 9.67749 -5.3295 -13.2527 0.15753 -1.52975 1.41724
52 6.72057 -17.9408 -6.7914 -0.040537 0.00643714 0.00384024
53 0 -13.2809 3.88246 0 0 0
54 0.000359535 2.25594 -1.24835 0 0 0
55 0 -3.47495 0.582541 0 0 0
56 0 -0.251469 1.74774 0 0 0
57 0 2.44569 0 0 0 0
time 4
0 8.32413 8.16715 1.13099 0.000934124 0 -1.48352
1 6.02794 0 0 0.103814 1.03386 1.12147
2 11.7344 0 0 -0.00140293 0 -1.76579
3 8.81138 -0.000448227 -0.000111103 -0.80875 0 0.000157619
4 5.77839 0.00028801 0 -0.541863 0 0.000102608
5 2.23163 -0.000328064 -0.00036335 -0.266887 0 0
6 11.4725 0 0 -0.914452 -0.0704134 0.582904
7 0.615219 -0.993091 -0.8107 3.00745 0.525484 -0.655733
8 2.24752 0 0 0.667292 0.0181303 -0.237173
9 1.11936 0 0 0.0670304 0.143754 -0.381466
10 3.71348 -0.102642 0.102191 2.18529 1.3845 0.778309
11 1.72615 0 0 0.00302815 -0.00362359 -0.807736
12 1.21114 0 0 -0.00418821 0.0171318 -0.837242
13 3.59919 -1.06012 0.0708876 1.85035 0.0419344 -0.185412
14 1.66069 0 0 -0.0255993 0.0735448 -0.558232
15 1.167 0 0 -0.0411835 0.0118943 -0.860718
16 2.18852 0.50104 0.0576591 1.57003 0.13363 0.225797
17 1.29609 0 0 0.040034 0.018311 -1.31443
18 1.62202 0.000715256 -0.000471592 0.00894344 -0.0133641 -1.02281
19 1.22241 0 0 -0.00645996 0.00783621 -0.677319
20 1.76707 1.27612 0.0366411 1.5479 0.272488 0.179235
21 1.55588 0 0 -0.0321502 0.00539373 -1.11005
22 1.24273 0 0 -0.000580396 -0.000150598 -0.933327
23 0.784524 0 0 0.00625149 -0.00802393 -0.695876
24 -1.32739 -2.53706 -8.59145 -0.000932694 0 -1.7924
25 6.02794 0 0 0.834749 0.599429 0.243525
26 11.7344 0 0 0.00140258 0 1.49858
27 8.81167 0 0 2.19481 0 0
28 5.77884 0 0 1.47052 0 0
29 2.23249 0 0 0.724286 0 0
30 11.4725 0 0 2.16652 -0.072234 -0.40303
31 0.615812 0.994373 -0.809166 -3.01765 0.219908 0.329799
32 2.24752 0 0 -0.0916132 0.00159449 -0.135335
33 1.11935 0 0 -0.0635615 0.198333 0.115097
34 3.71348 0.10264 0.102191 -1.55971 0.229201 -0.0768882
35 1.72615 0 0 -0.0280691 -0.00509519 1.50302
36 1.21112 0 0 -0.0135005 0.011348 -0.274396
37 3.5992 1.06012 0.0708885 -1.56456 0.0540259 -0.156728
38 1.66069 0 0 0.0469729 0.0621235 0.870993
39 1.16699 0 0 0.0141888 0.0101196 0.588502
40 2.18853 -0.50104 0.0576591 -1.57725 0.0209805 -0.0877146
41 1.29609 0 0 -0.015608 -0.0441581 0.528637
42 1.62202 -0.000713348 -0.000469208 -0.0182864 -0.0140883 1.34745
43 1.22241 0 0 -0.00671085 0.00538782 -0.380804
44 1.76707 -1.27612 0.0366402 -1.52689 0.184153 -0.0299079
45 1.55588 0 0 0.0317506 0.00739338 1.04752
46 1.24273 0 0 0.000582495 0.000141435 0.441468
47 0.784531 0 0 -0.0121969 -0.00723453 -0.33794
48 0 0 0 0 0 0
49 13.9199 -5.24862 -13.0841 0.154126 -1.53946 1.42034
50 11.8786 -5.25596 -13.0742 0.154126 -1.53946 1.42034
51 9.69157 -5.26383 -13.0637 0.154126 -1.53946 1.42034
52 6.72069 -17.9355 -6.72819 -0.0309682 0.00481019 0.00359555
53 0 -13.2809 3.88246 0 0 0
54 0.000359058 2.25594 -1.24835 0 0 0
55 0 -3.47495 0.582541 0 0 0
56 0 -0.251467 1.74774 0 0 0
57 0 2.44569 0 0 0 0
time 5
0 8.32413 8.16715 1.13099 0.000934124 0 -1.48352
1 6.02794 0 0 0.0610257 1.04411 1.0952
2 11.7344 0 0 -0.0014028 0 -1.7574
3 8.81138 -0.000450134 -0.000112057 -0.78934 0 0.000157663
4 5.77839 0.000286102 0 -0.528858 0 0.000102602
5 2.23163 -0.000329971 -0.000363827 -0.260482 0 0
6 11.4725 0 0 -0.896546 -0.0483362 0.598355
7 0.61522 -0.99309 -0.8107 3.00745 0.525484 -0.655733
8 2.24752 0 0 0.667292 0.0181303 -0.237173
9 1.11936 0 0 0.0670303 0.143755 -0.381466
10 3.71348 -0.102641 0.102191 2.18529 1.3845 0.778307
11 1.72615 0 0 0.00302824 -0.00362349 -0.807736
12 1.21114 0 0 -0.00418828 0.0171317 -0.837242
13 3.59919 -1.06012 0.0708885 1.85035 0.041934 -0.185412
14 1.66069 0 0 -0.0255993 0.0735448 -0.558232
15 1.167 0 0 -0.0411836 0.0118944 -0.860718
16 2.18852 0.501039 0.0576591 1.57003 0.13363 0.225797
17 1.29609 0 0 0.040034 0.0183108 -1.31443
18 1.62202 0.000713348 -0.000470161 0.00894345 -0.013364 -1.02281
19 1.22241 0 0 -0.0064599 0.00783623 -0.677319
20 1.76707 1.27612 0.0366411 1.5479 0.272488 0.179235
21 1.55588 0 0 -0.0321502 0.00539378 -1.11005
22 1.24274 0 0 -0.000580476 -0.000150572 -0.933327
23 0.784525 0 0 0.00625156 -0.00802384 -0.695876
24 -1.32739 -2.53706 -8.59145 -0.000932694 0 -1.7924
25 6.02794 0 0 0.837714 0.595975 0.246113
26 11.7344 0 0 0.00140275 0 1.47968
27 8.81167 0 0 2.20454 0 0
28 5.77884 0 0 1.47704 0 0
29 2.23249 0 0 0.727497 0 0
30 11.4725 0 0 2.177 -0.0698686 -0.396436
31 0.615812 0.994371 -0.809165 -3.01765 0.219908 0.329799
32 2.24752 0 0 -0.0916132 0.00159443 -0.135336
33 1.11936 0 0 -0.0635615 0.198333 0.115097
34 3.71349 0.102639 0.102191 -1.55971 0.229201 -0.0768882
35 1.72615 0 0 -0.028069 -0.00509517 1.50302
36 1.21112 0 0 -0.0135006 0.0113479 -0.274396
37 3.5992 1.06012 0.0708876 -1.56456 0.0540259 -0.156728
38 1.66069 0 0 0.0469728 0.0621234 0.870993
39 1.16699 0 0 0.0141889 0.0101196 0.588502
40 2.18853 -0.501041 0.0576582 -1.57725 0.0209803 -0.0877144
41 1.29609 0 0 -0.0156081 -0.0441581 0.528637
42 1.62202 -0.000715256 -0.000469208 -0.0182867 -0.0140883 1.34745
43 1.22241 0 0 -0.00671064 0.00538814 -0.380804
44 1.76707 -1.27612 0.0366402 -1.52689 0.184153 -0.0299079
45 1.55588 0 0 0.0317507 0.00739326 1.04752
46 1.24273 0 0 0.000582503 0.000141468 0.441468
47 0.784533 0 0 -0.0121967 -0.0072344 -0.33794
48 0 0 0 0 0 0
49 13.9577 -5.36723 -12.8859 0.0189361 -1.55199 1.5548
50 11.9163 -5.37322 -12.8851 0.0189361 -1.55199 1.5548
51 9.72928 -5.37964 -12.8844 0.0189361 -1.55199 1.5548
52 6.72202 -18.1254 -6.71682 -0.0188031 0.000355874 0.00293536
53 0 -13.2809 3.88246 0 0 0
54 0.000359535 2.25594 -1.24835 0 0 0
55 0 -3.47495 0.582542 0 0 0
56 0 -0.251465 1.74774 0 0 0
57 0 2.44569 0 0 0 0
time 6
0 8.32413 8.16715 1.13099 0.000934124 0 -1.48352
1 6.02794 0 0 -0.00781244 1.05558 1.04485
2 11.7344 0 0 -0.00140272 0 -1.73285
3 8.81138 -0.000449181 -0.00011158 -0.76911 0 0.000157818
4 5.77839 0.000287056 0 -0.515304 0 0.000102832
5 2.23163 -0.000329018 -0.000364304 -0.253806 0 0
6 11.4725 0 0 -0.874402 -0.0229797 0.609295
7 0.615219 -0.993091 -0.8107 3.00745 0.525484 -0.655733
8 2.24752 0 0 0.667292 0.0181301 -0.237173
9 1.11936 0 0 0.0670304 0.143754 -0.381466
10 3.71348 -0.102641 0.10219 2.18529 1.3845 0.778308
11 1.72615 0 0 0.00302835 -0.00362344 -0.807736
12 1.21114 0 0 -0.00418831 0.0171318 -0.837242
13 3.59919 -1.06012 0.0708885 1.85035 0.0419341 -0.185412
14 1.66069 0 0 -0.0242919 0.0739862 -0.540492
15 1.167 0 0 -0.0408878 0.0126888 -0.843038
16 2.18853 0.50104 0.0576591 1.57003 0.13363 0.225797
17 1.29609 0 0 0.0400339 0.0183109 -1.31443
18 1.62202 0.000714302 -0.000471115 0.00894342 -0.013364 -1.02281
19 1.22241 0 0 -0.00645987 0.00783628 -0.677319
20 1.76707 1.27612 0.0366402 1.5479 0.272488 0.179235
21 1.55588 0 0 -0.0321501 0.00539375 -1.11005
22 1.24273 0 0 -0.000580503 -0.000150652 -0.933327
23 0.784525 0 0 0.00625163 -0.00802394 -0.695876
24 -1.32739 -2.53706 -8.59145 -0.000932694 0 -1.7924
25 6.02794 0 0 0.844765 0.587868 0.251757
26 11.7344 0 0 0.00140272 0 1.44344
27 8.81167 0 0 2.21255 0 0
28 5.77884 0 0 1.48241 0 0
29 2.23249 0 0 0.730141 0 0
30 11.4725 0 0 2.18733 -0.064715 -0.377781
31 0.615812 0.994373 -0.809165 -3.01765 0.219908 0.329798
32 2.24752 0 0 -0.0916132 0.00159445 -0.135336
33 1.11936 0 0 -0.0635615 0.198333 0.115097
34 3.71348 0.10264 0.10219 -1.55971 0.229201 -0.0768883
35 1.72615 0 0 -0.028069 -0.00509509 1.50302
36 1.21112 0 0 -0.0135005 0.011348 -0.274396
37 3.5992 1.06012 0.0708885 -1.56456 0.054026 -0.156728
38 1.66069 0 0 0.0469727 0.0621233 0.870993
39 1.16699 0 0 0.0141888 0.0101196 0.588502
40 2.18853 -0.50104 0.0576591 -1.57725 0.0209803 -0.0877146
41 1.29609 0 0 -0.0156081 -0.044158 0.528636
42 1.62202 -0.000713348 -0.000471115 -0.0182866 -0.0140881 1.34745
43 1.22241 0 0 -0.00671079 0.00538783 -0.380804
44 1.76707 -1.27612 0.0366402 -1.52689 0.184153 -0.029908
45 1.55588 0 0 0.0317506 0.00739334 1.04752
46 1.24273 0 0 0.000582561 0.000141455 0.441468
47 0.784531 0 0 -0.0121967 -0.00723453 -0.33794
48 0 0 0 0 0 0
49 13.9952 -5.63809 -12.713 -0.553341 -1.56312 2.12629
50 11.9538 -5.64251 -12.7212 -0.553341 -1.56312 2.12629
51 9.76684 -5.64724 -12.73 -0.553341 -1.56312 2.12629
52 6.72349 -18.4654 -6.73269 -0.00653171 -0.00403483 0.00216423
53 0 -13.2809 3.88246 0 0 0
54 0.000321865 2.22866 -1.24881 0 0 0
55 0 -3.47495 0.582541 0 0 0
56 0 -0.251467 1.74774 0 0 0
57 0 2.44569 0 0 0 0
time 7
0 8.32413 8.16715 1.13099 0.000934124 0 -1.48352
1 6.02794 0 0 -0.0892211 1.0627 0.97681
2 11.7344 0 0 -0.00140269 0 -1.69179
3 8.81138 -0.000450134 -0.000112057 -0.758519 0 0.000157959
4 5.77839 0.000286102 0 -0.508208 0 0.000102894
5 2.23163 -0.000329018 -0.00036335 -0.250311 0 0
6 11.4725 0 0 -0.857189 -0.0037799 0.605404
7 0.615219 -0.993092 -0.8107 3.00745 0.525484 -0.655733
8 2.24752 0 0 0.667292 0.0181301 -0.237173
9 1.11936 0 0 0.0670304 0.143754 -0.381466
10 3.71348 -0.102642 0.102191 2.18529 1.3845 0.778308
11 1.72615 0 0 0.00302811 -0.00362364 -0.807736
12 1.21114 0 0 -0.00418831 0.0171318 -0.837242
13 3.59919 -1.06012 0.0708885 1.85035 0.0419341 -0.185412
14 1.66069 0 0 -0.0211439 0.074945 -0.498185
15 1.167 0 0 -0.0401261 0.0145611 -0.800875
16 2.18852 0.50104 0.0576582 1.57003 0.13363 0.225797
17 1.29609 0 0 0.040034 0.0183109 -1.31443
18 1.62202 0.000713348 -0.000472069 0.00894339 -0.013364 -1.02281
19 1.22241 0 0 -0.00645986 0.00783615 -0.677319
20 1.76707 1.27612 0.0366411 1.5479 0.272488 0.179235
21 1.55588 0 0 -0.0321501 0.00539379 -1.11005
22 1.24273 0 0 -0.000580476 -0.000150572 -0.933327
23 0.784524 0 0 0.00625158 -0.0080239 -0.695876
24 -1.32739 -2.53706 -8.59145 -0.000932694 0 -1.7924
25 6.02794 0 0 0.856996 0.57354 0.261049
26 11.7344 0 0 0.00140258 0 1.39219
27 8.81167 0 0 2.21225 0 0
28 5.77884 0 0 1.48221 0 0
29 2.23249 0 0 0.730044 0 0
30 11.4725 0 0 2.19052 -0.0554422 -0.346764
31 0.615812 0.994371 -0.809165 -3.01765 0.219908 0.329798
32 2.24752 0 0 -0.0916132 0.00159445 -0.135336
33 1.11936 0 0 -0.0635615 0.198333 0.115097
34 3.71348 0.102638 0.102191 -1.55971 0.229201 -0.0768885
35 1.72615 0 0 -0.0280691 -0.00509518 1.50302
36 1.21112 0 0 -0.0135006 0.0113478 -0.274395
37 3.5992 1.06012 0.0708876 -1.56456 0.0540259 -0.156728
38 1.66069 0 0 0.0469729 0.0621233 0.870993
39 1.16699 0 0 0.0141889 0.0101196 0.588502
40 2.18853 -0.50104 0.0576591 -1.57725 0.0209803 -0.0877145
41 1.29609 0 0 -0.015608 -0.0441581 0.528636
42 1.62201 -0.000713348 -0.000468254 -0.0182863 -0.0140882 1.34745
43 1.22241 0 0 -0.00671091 0.00538783 -0.380804
44 1.76707 -1.27612 0.0366411 -1.52689 0.184153 -0.0299079
45 1.55588 0 0 0.0317505 0.00739327 1.04752
46 1.24273 0 0 0.000582605 0.000141514 0.441468
47 0.784532 0 0 -0.0121969 -0.00723444 -0.33794
48 0 0 0 0 0 0
49 14.0021 -6.05236 -12.6778 -1.36127 -1.56624 2.93389
50 11.9607 -6.05609 -12.6869 -1.36127 -1.56624 2.93389
51 9.77368 -6.06008 -12.6966 -1.36127 -1.56624 2.93389
52 6.72386 -18.9106 -6.77218 -0.000946981 -0.00445339 0.00182559
53 0 -13.2809 3.88246 0 0 0
54 0.00023222 2.1636 -1.24992 0 0 0
55 0 -3.47495 0.582542 0 0 0
56 0 -0.251467 1.74774 0 0 0
57 0 2.44569 0 0 0 0
time 8
0 8.32413 8.16715 1.13099 0.000934124 0 -1.48352
1 6.02794 0 0 -0.17691 1.0645 0.898523
2 11.7344 0 0 -0.00140287 0 -1.63962
3 8.81138 -0.000449181 -0.000112534 -0.754137 0 0.000157518
4 5.77839 0.000286102 0 -0.505272 0 0.000102586
5 2.23163 -0.000329018 -0.000364304 -0.248865 0 0
6 11.4725 0 0 -0.843686 0.0112513 0.591565
7 0.615218 -0.99309 -0.8107 3.00745 0.525484 -0.655733
8 2.24752 0 0 0.667291 0.0181301 -0.237173
9 1.11936 0 0 0.0670304 0.143755 -0.381466
10 3.71348 -0.102641 0.102191 2.18529 1.3845 0.778309
11 1.72615 0 0 0.00302827 -0.00362348 -0.807736
12 1.21114 0 0 -0.00418827 0.0171317 -0.837242
13 3.59919 -1.06012 0.0708885 1.85035 0.0419342 -0.185412
14 1.66069 0 0 -0.0173373 0.0759143 -0.447682
15 1.167 0 0 -0.0391147 0.0167514 -0.750548
16 2.18852 0.50104 0.0576591 1.57003 0.13363 0.225797
17 1.29609 0 0 0.0400339 0.0183109 -1.31443
18 1.62202 0.000713348 -0.000471592 0.00894348 -0.0133639 -1.02281
19 1.22241 0 0 -0.00645982 0.00783614 -0.677319
20 1.76707 1.27612 0.0366411 1.5479 0.272488 0.179235
21 1.55588 0 0 -0.0321501 0.0053938 -1.11005
22 1.24274 0 0 -0.000580543 -0.000150705 -0.933327
23 0.784525 0 0 0.00625157 -0.00802396 -0.695876
24 -1.32739 -2.53706 -8.59145 -0.000932694 0 -1.7924
25 6.02794 0 0 0.871785 0.554954 0.272839
26 11.7344 0 0 0.00140277 0 1.33073
27 8.81167 0 0 2.20743 0 0
28 5.77884 0 0 1.47898 0 0
29 2.23249 0 0 0.728453 0 0
30 11.4725 0 0 2.18977 -0.0444626 -0.307907
31 0.615814 0.994371 -0.809166 -3.01765 0.219908 0.329799
32 2.24752 0 0 -0.0916131 0.00159446 -0.135336
33 1.11936 0 0 -0.0635615 0.198333 0.115097
34 3.71349 0.102637 0.10219 -1.55971 0.229201 -0.0768882
35 1.72615 0 0 -0.028069 -0.00509511 1.50302
36 1.21112 0 0 -0.0135006 0.0113481 -0.274396
37 3.5992 1.06012 0.0708885 -1.56456 0.0540258 -0.156728
38 1.66069 0 0 0.0469729 0.0621234 0.870993
39 1.16699 0 0 0.0141888 0.0101197 0.588502
40 2.18853 -0.50104 0.0576582 -1.57725 0.0209802 -0.0877146
41 1.29609 0 0 -0.0156081 -0.0441582 0.528636
42 1.62202 -0.000711441 -0.000470161 -0.0182864 -0.0140882 1.34745
43 1.22241 0 0 -0.00671069 0.00538795 -0.380804
44 1.76707 -1.27612 0.0366402 -1.52689 0.184153 -0.029908
45 1.55588 0 0 0.0317506 0.00739325 1.04752
46 1.24273 0 0 0.000582657 0.000141475 0.441468
47 0.784531 0 0 -0.0121966 -0.00723437 -0.33794
48 0 0 0 0 0 0
49 13.9935 -6.54808 -12.7255 -1.85804 -1.56789 -2.85269
50 11.9521 -6.55155 -12.7311 -1.85804 -1.56789 -2.85269
51 9.76511 -6.55527 -12.7372 -1.85804 -1.56789 -2.85269
52 6.72368 -19.4159 -6.83039 0.000822166 -0.00278335 0.00170134
53 0 -13.2809 3.88246 0 0 0
54 0.000126839 2.08595 -1.25125 0 0 0
55 0 -3.47495 0.582541 0 0 0
56 0 -0.251465 1.74774 0 0 0
57 0 2.44569 0 0 0 0
time 9
0 8.32413 8.16715 1.13099 0.000934124 0 -1.48352
1 6.02794 0 0 -0.265702 1.06153 0.817829
2 11.7344 0 0 -0.00140279 0 -1.58436
3 8.81138 -0.000449181 -0.000112534 -0.750154 0 0.00015761
4 5.77839 0.000286102 0 -0.502603 0 0.000102512
5 2.23163 -0.000329018 -0.000365257 -0.247551 0 0
6 11.4725 0 0 -0.830485 0.0246611 0.575651
7 0.615218 -0.993092 -0.8107 3.00745 0.525484 -0.655733
8 2.24752 0 0 0.667292 0.0181302 -0.237173
9 1.11936 0 0 0.0670304 0.143754 -0.381466
10 3.71348 -0.102643 0.102191 2.18529 1.3845 0.778308
11 1.72615 0 0 0.00302828 -0.00362344 -0.807736
12 1.21114 0 0 -0.00418818 0.0171317 -0.837242
13 3.59919 -1.06012 0.0708876 1.85035 0.0419341 -0.185412
14 1.66069 0 0 -0.0141133 0.0765779 -0.405363
15 1.167 0 0 -0.0381831 0.0185454 -0.708379
16 2.18852 0.501039 0.0576601 1.57003 0.13363 0.225797
17 1.29609 0 0 0.040034 0.0183109 -1.31443
18 1.62202 0.000715256 -0.000469685 0.00894345 -0.013364 -1.02281
19 1.22241 0 0 -0.00645988 0.00783624 -0.677319
20 1.76707 1.27612 0.0366402 1.5479 0.272488 0.179235
21 1.55588 0 0 -0.0321501 0.00539378 -1.11005
22 1.24274 0 0 -0.000580423 -0.000150545 -0.933327
23 0.784523 0 0 0.00625155 -0.00802391 -0.695876
24 -1.32739 -2.53706 -8.59145 -0.000932694 0 -1.7924
25 6.02794 0 0 0.887544 0.533257 0.286443
26 11.7344 0 0 0.00140267 0 1.26408
27 8.81167 0 0 2.20241 0 0
28 5.77884 0 0 1.47562 0 0
29 2.23249 0 0 0.726796 0 0
30 11.4725 0 0 2.18874 -0.0336801 -0.266349
31 0.615812 0.994373 -0.809164 -3.01765 0.219908 0.329799
32 2.24752 0 0 -0.0916132 0.00159451 -0.135336
33 1.11936 0 0 -0.0635615 0.198333 0.115097
34 3.71348 0.10264 0.102192 -1.55971 0.229201 -0.0768883
35 1.72615 0 0 -0.0280691 -0.00509526 1.50302
36 1.21112 0 0 -0.0135007 0.0113481 -0.274396
37 3.5992 1.06012 0.0708895 -1.56456 0.0540259 -0.156728
38 1.66069 0 0 0.0469728 0.0621233 0.870993
39 1.16699 0 0 0.0141887 0.0101198 0.588502
40 2.18853 -0.50104 0.0576601 -1.57725 0.0209802 -0.0877146
41 1.29609 0 0 -0.0156081 -0.0441582 0.528637
42 1.62202 -0.000715256 -0.000471115 -0.0182864 -0.0140882 1.34745
43 1.22241 0 0 -0.00671077 0.00538791 -0.380804
44 1.76707 -1.27612 0.0366411 -1.52689 0.184153 -0.0299079
45 1.55587 0 0 0.0317506 0.00739316 1.04752
46 1.24273 0 0 0.000582499 0.000141587 0.441468
47 0.784533 0 0 -0.0121967 -0.00723448 -0.33794
48 0 0 0 0 0 0
49 13.9875 -7.06495 -12.7744 -2.31443 -1.56857 -2.39634
50 11.9461 -7.06827 -12.7777 -2.31443 -1.56857 -2.39634
51 9.75912 -7.07183 -12.7813 -2.31443 -1.56857 -2.39634
52 6.72349 -19.9363 -6.87977 0.0015061 -0.00163779 0.0016251
53 0 -13.2809 3.88246 0 0 0
54 0 2.02089 -1.25236 0 0 0
55 0 -3.47495 0.582542 0 0 0
56 0 -0.251467 1.74774 0 0 0
57 0 2.44569 0 0 0 0
time 10
0 8.32413 8.16715 1.13099 0.000934124 0 -1.48352
1 6.02794 0 0 -0.348082 1.05456 0.742487
2 11.7344 0 0 -0.00140283 0 -1.53128
3 8.81138 -0.000450134 -0.000112057 -0.74474 0 0.000157342
4 5.77839 0.000286102 0 -0.498975 0 0.00010248
5 2.23163 -0.000329971 -0.000363827 -0.245764 0 0
6 11.4725 0 0 -0.816846 0.0360003 0.560477
7 0.615219 -0.993092 -0.8107 3.00745 0.525484 -0.655733
8 2.24752 0 0 0.667292 0.0181301 -0.237173
9 1.11936 0 0 0.0670304 0.143754 -0.381466
10 3.71348 -0.102642 0.10219 2.18529 1.3845 0.778309
11 1.72615 0 0 0.00302829 -0.00362353 -0.807736
12 1.21114 0 0 -0.0041882 0.0171317 -0.837242
13 3.59919 -1.06012 0.0708885 1.85035 0.0419343 -0.185412
14 1.66069 0 0 -0.0127534 0.0768157 -0.387616
15 1.167 0 0 -0.0377702 0.0192858 -0.690695
16 2.18852 0.501039 0.0576591 1.57003 0.13363 0.225797
17 1.29609 0 0 0.040034 0.0183111 -1.31443
18 1.62202 0.000715256 -0.000472546 0.00894343 -0.0133639 -1.02281
19 1.22241 0 0 -0.00645985 0.00783622 -0.677319
20 1.76707 1.27612 0.0366402 1.5479 0.272488 0.179235
21 1.55588 0 0 -0.0321501 0.00539391 -1.11005
22 1.24274 0 0 -0.000580423 -0.000150545 -0.933327
23 0.784525 0 0 0.00625167 -0.00802406 -0.695876
24 -1.32739 -2.53706 -8.59145 -0.000932694 0 -1.7924
25 6.02794 0 0 0.902855 0.510009 0.300813
26 11.7344 0 0 0.00140276 0 1.19756
27 8.81167 0 0 2.19882 0 0
28 5.77884 0 0 1.47321 0 0
29 2.23249 0 0 0.725609 0 0
30 11.4725 0 0 2.1887 -0.0245862 -0.225486
31 0.615812 0.994373 -0.809165 -3.01765 0.219908 0.329798
32 2.24751 0 0 -0.0916132 0.00159452 -0.135336
33 1.11936 0 0 -0.0635614 0.198333 0.115097
34 3.71349 0.102639 0.102191 -1.55971 0.229201 -0.0768884
35 1.72615 0 0 -0.028069 -0.00509522 1.50302
36 1.21112 0 0 -0.0135007 0.011348 -0.274396
37 3.5992 1.06012 0.0708885 -1.56456 0.054026 -0.156728
38 1.66069 0 0 0.0469729 0.0621234 0.870993
39 1.16699 0 0 0.0141888 0.0101196 0.588502
40 2.18853 -0.50104 0.0576591 -1.57725 0.0209803 -0.0877145
41 1.29609 0 0 -0.0156081 -0.044158 0.528636
42 1.62202 -0.000715256 -0.000471115 -0.0182866 -0.0140882 1.34745
43 1.2224 0 0 -0.00671079 0.00538785 -0.380804
44 1.76707 -1.27612 0.0366421 -1.52689 0.184153 -0.0299082
45 1.55588 0 0 0.0317506 0.00739319 1.04752
46 1.24273 0 0 0.000582388 0.000141639 0.441468
47 0.784532 0 0 -0.0121967 -0.00723451 -0.33794
48 0 0 0 0 0 0
49 13.9921 -7.55604 -12.7994 -2.12364 -1.56807 -2.5872
50 11.9507 -7.55928 -12.8041 -2.12364 -1.56807 -2.5872
51 9.76363 -7.56276 -12.8092 -2.12364 -1.56807 -2.5872
52 6.72349 -20.4267 -6.90885 0.0014335 -0.00232362 0.00158874
53 0 -13.2809 3.88246 0 0 0
54 0 1.9936 -1.25282 0 0 0
55 0 -3.47495 0.582542 0 0 0
56 0 -0.251467 1.74774 0 0 0
57 0 2.44569 0 0 0 0
time 11
0 8.32413 8.16715 1.13099 0.000934124 0 -1.48352
1 6.02794 0 0 -0.414745 1.04545 0.680514
2 11.7344 0 0 -0.00140274 0 -1.48447
3 8.81138 -0.000450134 -0.000112057 -0.740095 0 0.000157473
4 5.77839 0.000286102 0 -0.495864 0 0.000102747
5 2.23163 -0.000329971 -0.000364304 -0.244232 0 0
6 11.4725 0 0 -0.805322 0.043604 0.545322
7 0.615219 -0.993091 -0.810699 3.00745 0.525484 -0.655733
8 2.24752 0 0 0.667291 0.0181302 -0.237173
9 1.11936 0 0 0.0670305 0.143754 -0.381466
10 3.71348 -0.102641 0.10219 2.18529 1.3845 0.778309
11 1.72615 0 0 0.00302813 -0.0036236 -0.807736
12 1.21114 0 0 -0.00418826 0.0171319 -0.837242
13 3.59919 -1.06012 0.0708876 1.85035 0.0419342 -0.185412
14 1.66069 0 0 -0.0127534 0.0768156 -0.387616
15 1.167 0 0 -0.0377702 0.0192858 -0.690695
16 2.18852 0.50104 0.0576591 1.57003 0.13363 0.225797
17 1.29609 0 0 0.040034 0.018311 -1.31443
18 1.62202 0.000713348 -0.000471115 0.00894343 -0.013364 -1.02281
19 1.22241 0 0 -0.00645975 0.00783603 -0.677319
20 1.76707 1.27612 0.0366411 1.5479 0.272488 0.179235
21 1.55587 0 0 -0.0321503 0.0053938 -1.11005
22 1.24274 0 0 -0.000580569 -0.000150652 -0.933327
23 0.784523 0 0 0.00625164 -0.00802388 -0.695876
24 -1.32739 -2.53706 -8.59145 -0.000932694 0 -1.7924
25 6.02794 0 0 0.916058 0.488049 0.314098
26 11.7344 0 0 0.00140274 0 1.13782
27 8.81167 0 0 2.19581 0 0
28 5.77884 0 0 1.4712 0 0
29 2.23249 0 0 0.724618 0 0
30 11.4725 0 0 2.18856 -0.0177169 -0.188509
31 0.615814 0.994374 -0.809165 -3.01765 0.219908 0.329799
32 2.24752 0 0 -0.0916131 0.00159448 -0.135336
33 1.11936 0 0 -0.0635615 0.198333 0.115097
34 3.71349 0.102641 0.102192 -1.55971 0.229201 -0.0768883
35 1.72615 0 0 -0.028069 -0.00509514 1.50302
36 1.21112 0 0 -0.0135005 0.011348 -0.274396
37 3.5992 1.06012 0.0708885 -1.56456 0.0540259 -0.156728
38 1.66069 0 0 0.0469728 0.0621234 0.870993
39 1.16699 0 0 0.0141889 0.0101196 0.588502
40 2.18853 -0.50104 0.0576591 -1.57725 0.0209803 -0.0877144
41 1.29609 0 0 -0.0156081 -0.0441581 0.528637
42 1.62202 -0.000713348 -0.000470161 -0.0182866 -0.0140882 1.34745
43 1.22241 0 0 -0.0067107 0.00538798 -0.380804
44 1.76707 -1.27612 0.0366402 -1.52689 0.184153 -0.0299079
45 1.55588 0 0 0.0317506 0.00739336 1.04752
46 1.24273 0 0 0.000582518 0.0001414 0.441468
47 0.784531 0 0 -0.0121967 -0.00723444 -0.33794
48 0 0 0 0 0 0
49 14.0004 -7.98028 -12.827 -1.54154 -1.56697 3.11397
50 11.959 -7.98361 -12.8349 -1.54154 -1.56697 3.11397
51 9.77202 -7.98718 -12.8432 -1.54154 -1.56697 3.11397
52 6.72349 -20.8421 -6.92758 -0.000111958 -0.00382453 0.00163194
53 0 -13.2809 3.88246 0 0 0
54 0 1.99361 -1.25282 0 0 0
55 0 -3.47496 0.582541 0 0 0
56 0 -0.251467 1.74774 0 0 0
57 0 2.44569 0 0 0 0
time 12
0 8.32413 8.16715 1.13099 0.000934124 0 -1.48352
1 6.02794 0 0 -0.459964 1.0373 0.637895
2 11.7344 0 0 -0.00140292 0 -1.44999
3 8.81138 -0.000450134 -0.000112534 -0.736937 0 0.000157702
4 5.77839 0.000286102 0 -0.493748 0 0.00010266
5 2.23163 -0.000329971 -0.000364304 -0.243189 0 0
6 11.4725 0 0 -0.797289 0.0480048 0.53303
7 0.615218 -0.993091 -0.8107 3.00745 0.525484 -0.655733
8 2.24752 0 0 0.667292 0.0181303 -0.237173
9 1.11936 0 0 0.0670304 0.143755 -0.381466
10 3.71348 -0.102642 0.10219 2.18529 1.3845 0.778309
11 1.72615 0 0 0.00302817 -0.00362362 -0.807736
12 1.21114 0 0 -0.00418828 0.0171317 -0.837242
13 3.59919 -1.06012 0.0708876 1.85035 0.0419343 -0.185411
14 1.66069 0 0 -0.0127534 0.0768156 -0.387616
15 1.167 0 0 -0.0377702 0.0192858 -0.690695
16 2.18853 0.50104 0.0576591 1.57003 0.13363 0.225797
17 1.29609 0 0 0.0400339 0.0183109 -1.31443
18 1.62202 0.000713348 -0.000471592 0.00894337 -0.0133641 -1.02281
19 1.22241 0 0 -0.00645985 0.00783612 -0.677319
20 1.76707 1.27612 0.0366402 1.5479 0.272488 0.179235
21 1.55588 0 0 -0.0321502 0.0053937 -1.11005
22 1.24273 0 0 -0.000580556 -0.000150545 -0.933327
23 0.784523 0 0 0.0062516 -0.00802395 -0.695876
24 -1.32739 -2.53706 -8.59145 -0.000932694 0 -1.7924
25 6.02794 0 0 0.925473 0.471113 0.32419
26 11.7344 0 0 0.00140272 0 1.09296
27 8.81167 0 0 2.1937 0 0
28 5.77884 0 0 1.46978 0 0
29 2.23249 0 0 0.723922 0 0
30 11.4725 0 0 2.18834 -0.013319 -0.160612
31 0.615812 0.994372 -0.809166 -3.01765 0.219908 0.329798
32 2.24752 0 0 -0.0916132 0.00159446 -0.135336
33 1.11935 0 0 -0.0635615 0.198333 0.115097
34 3.71349 0.102637 0.10219 -1.55971 0.229201 -0.0768883
35 1.72615 0 0 -0.028069 -0.00509517 1.50302
36 1.21112 0 0 -0.0135007 0.011348 -0.274396
37 3.5992 1.06012 0.0708885 -1.56456 0.0540259 -0.156728
38 1.66069 0 0 0.046973 0.0621234 0.870993
39 1.16699 0 0 0.0141889 0.0101198 0.588501
40 2.18853 -0.50104 0.0576591 -1.57725 0.0209803 -0.0877144
41 1.29609 0 0 -0.0156081 -0.0441581 0.528637
42 1.62202 -0.000713348 -0.000471115 -0.0182865 -0.0140881 1.34745
43 1.2224 0 0 -0.00671088 0.00538785 -0.380805
44 1.76707 -1.27612 0.0366402 -1.52689 0.184153 -0.0299082
45 1.55588 0 0 0.0317506 0.00739322 1.04752
46 1.24273 0 0 0.000582507 0.000141486 0.441468
47 0.784532 0 0 -0.0121969 -0.00723441 -0.33794
48 0 0 0 0 0 0
49 14.0087 -8.2865 -12.8532 -1.21342 -1.56517 2.78586
50 11.9673 -8.28988 -12.864 -1.21342 -1.56517 2.78586
51 9.78034 -8.29352 -12.8755 -1.21342 -1.56517 2.78586
52 6.72349 -21.1375 -6.94049 -0.00196734 -0.00526875 0.00166008
53 0 -13.2809 3.88246 0 0 0
54 0 1.9936 -1.25282 0 0 0
55 0 -3.47495 0.582541 0 0 0
56 0 -0.251467 1.74774 0 0 0
57 0 2.44569 0 0 0 0
time 13
0 8.32413 8.16715 1.13099 0.000934124 0 -1.48352
1 6.02794 0 0 -0.478911 1.03328 0.619682
2 11.7344 0 0 -0.00140288 0 -1.43403
3 8.81138 -0.000449181 -0.00011158 -0.736067 0 0.000157527
4 5.77839 0.000286102 0 -0.493165 0 0.000102734
5 2.23163 -0.000329018 -0.000363827 -0.242902 0 0
6 11.4725 0 0 -0.794146 0.0496605 0.526596
7 0.61522 -0.993091 -0.8107 3.00745 0.525484 -0.655733
8 2.24752 0 0 0.667292 0.0181301 -0.237173
9 1.11936 0 0 0.0670304 0.143754 -0.381466
10 3.71348 -0.102641 0.10219 2.18529 1.3845 0.778308
11 1.72615 0 0 0.00302813 -0.0036236 -0.807736
12 1.21114 0 0 -0.0041883 0.0171318 -0.837242
13 3.59919 -1.06012 0.0708885 1.85035 0.0419341 -0.185412
14 1.66069 0 0 -0.0127535 0.0768157 -0.387616
15 1.167 0 0 -0.0377702 0.0192858 -0.690695
16 2.18852 0.50104 0.0576591 1.57003 0.13363 0.225797
17 1.29609 0 0 0.0400338 0.0183109 -1.31443
18 1.62202 0.000713348 -0.000471115 0.00894354 -0.013364 -1.02281
19 1.22241 0 0 -0.00645989 0.00783633 -0.677319
20 1.76707 1.27612 0.0366411 1.5479 0.272488 0.179235
21 1.55588 0 0 -0.0321503 0.00539381 -1.11005
22 1.24274 0 0 -0.00058045 -0.000150492 -0.933327
23 0.784523 0 0 0.0062516 -0.00802395 -0.695876
24 -1.32739 -2.53706 -8.59145 -0.000932694 0 -1.7924
25 6.02794 0 0 0.929393 0.463725 0.328543
26 11.7344 0 0 0.00140262 0 1.07298
27 8.81167 0 0 2.19262 0 0
28 5.77884 0 0 1.46905 0 0
29 2.23249 0 0 0.723564 0 0
30 11.4725 0 0 2.18803 -0.0115918 -0.14797
31 0.615814 0.994373 -0.809164 -3.01765 0.219908 0.329799
32 2.24752 0 0 -0.0916132 0.00159437 -0.135336
33 1.11936 0 0 -0.0635615 0.198333 0.115097
34 3.71349 0.102639 0.102192 -1.55971 0.229201 -0.0768884
35 1.72615 0 0 -0.0280691 -0.00509521 1.50302
36 1.21112 0 0 -0.0135005 0.011348 -0.274396
37 3.5992 1.06012 0.0708904 -1.56456 0.054026 -0.156728
38 1.66069 0 0 0.0469728 0.0621233 0.870993
39 1.16699 0 0 0.014189 0.0101196 0.588502
40 2.18853 -0.50104 0.0576591 -1.57725 0.0209802 -0.0877143
41 1.29609 0 0 -0.0156081 -0.044158 0.528637
42 1.62201 -0.000713348 -0.000468254 -0.0182864 -0.0140883 1.34745
43 1.22241 0 0 -0.00671069 0.00538795 -0.380804
44 1.76707 -1.27612 0.0366421 -1.52689 0.184153 -0.0299081
45 1.55587 0 0 0.0317506 0.00739321 1.04752
46 1.24273 0 0 0.000582469 0.000141453 0.441468
47 0.784533 0 0 -0.0121966 -0.00723449 -0.33794
48 0 0 0 0 0 0
49 14.0129 -8.42344 -12.874 -1.0965 -1.56429 2.66886
50 11.9715 -8.42666 -12.8858 -1.0965 -1.56429 2.66886
51 9.78454 -8.43011 -12.8984 -1.0965 -1.56429 2.66886
52 6.72349 -21.2679 -6.95213 -0.00296974 -0.00578453 0.00157855
53 0 -13.2809 3.88246 0 0 0
54 0 1.99361 -1.25282 0 0 0
55 0 -3.47495 0.582541 0 0 0
56 0 -0.251463 1.74774 0 0 0
57 0 2.44569 0 0 0 0
time 14
0 8.32413 8.16715 1.13099 0.000934124 0 -1.48352
1 6.02794 0 0 -0.478061 1.03332 0.620165
2 11.7344 0 0 -0.00140271 0 -1.43345
3 8.81138 -0.000450134 -0.000112534 -0.737563 0 0.000158021
4 5.77839 0.000286102 0 -0.494167 0 0.000102972
5 2.23163 -0.000329971 -0.000364304 -0.243396 0 0
6 11.4725 0 0 -0.795328 0.0499619 0.525582
7 0.61522 -0.993092 -0.810699 3.00745 0.525484 -0.655733
8 2.24752 0 0 0.667291 0.0181302 -0.237173
9 1.11936 0 0 0.0670305 0.143754 -0.381466
10 3.71348 -0.102643 0.102191 2.18529 1.3845 0.778308
11 1.72615 0 0 0.0030282 -0.00362354 -0.807736
12 1.21114 0 0 -0.0041882 0.0171318 -0.837242
13 3.59919 -1.06012 0.0708885 1.85035 0.0419342 -0.185412
14 1.66069 0 0 -0.0127534 0.0768157 -0.387616
15 1.167 0 0 -0.0377701 0.0192857 -0.690695
16 2.18852 0.501039 0.0576601 1.57003 0.13363 0.225797
17 1.29609 0 0 0.040034 0.0183109 -1.31443
18 1.62202 0.000715256 -0.000470161 0.00894352 -0.0133639 -1.02281
19 1.22241 0 0 -0.00645992 0.00783616 -0.677319
20 1.76707 1.27612 0.0366421 1.5479 0.272488 0.179235
21 1.55588 0 0 -0.0321502 0.00539388 -1.11005
22 1.24274 0 0 -0.000580516 -0.000150625 -0.933327
23 0.784523 0 0 0.00625162 -0.00802401 -0.695876
24 -1.32739 -2.53706 -8.59145 -0.000932694 0 -1.7924
25 6.02794 0 0 0.929078 0.464255 0.328292
26 11.7344 0 0 0.00140273 0 1.07298
27 8.81167 0 0 2.19199 0 0
28 5.77884 0 0 1.46863 0 0
29 2.23249 0 0 0.723356 0 0
30 11.4725 0 0 2.18739 -0.0114323 -0.148112
31 0.615814 0.994371 -0.809164 -3.01765 0.219908 0.329799
32 2.24752 0 0 -0.0916132 0.0015944 -0.135336
33 1.11936 0 0 -0.0635615 0.198333 0.115097
34 3.71349 0.102639 0.102192 -1.55971 0.229201 -0.0768883
35 1.72615 0 0 -0.028069 -0.00509518 1.50302
36 1.21112 0 0 -0.0135006 0.0113481 -0.274396
37 3.5992 1.06012 0.0708885 -1.56456 0.0540259 -0.156728
38 1.66069 0 0 0.0469729 0.0621233 0.870993
39 1.16699 0 0 0.0141888 0.0101198 0.588502
40 2.18853 -0.50104 0.0576611 -1.57725 0.0209801 -0.0877147
41 1.29609 0 0 -0.0156082 -0.0441581 0.528637
42 1.62202 -0.000715256 -0.000469208 -0.0182866 -0.0140882 1.34745
43 1.22241 0 0 -0.00671075 0.00538795 -0.380804
44 1.76707 -1.27612 0.0366421 -1.52689 0.184153 -0.0299081
45 1.55588 0 0 0.0317507 0.00739324 1.04752
46 1.24273 0 0 0.000582512 0.000141646 0.441468
47 0.784533 0 0 -0.0121967 -0.00723453 -0.33794
48 0 0 0 0 0 0
49 14.0105 -8.42227 -12.8886 -1.0643 -1.56529 2.63642
50 11.9691 -8.42496 -12.8985 -1.0643 -1.56529 2.63642
51 9.7821 -8.42785 -12.909 -1.0643 -1.56529 2.63642
52 6.72349 -21.2666 -6.96353 -0.00267128 -0.00481529 0.00131762
53 0 -13.2809 3.88246 0 0 0
54 0 1.99361 -1.25282 0 0 0
55 0 -3.47495 0.582541 0 0 0
56 0 -0.251465 1.74774 0 0 0
57 0 2.44569 0 0 0 0
time 15
0 8.32413 8.16715 1.13099 0.000934124 0 -1.48352
1 6.02794 0 0 -0.474386 1.03407 0.623587
2 11.7344 0 0 -0.00140286 0 -1.43579
3 8.81138 -0.000449181 -0.00011158 -0.739906 0 0.000158039
4 5.77839 0.000286102 0 -0.495737 0 0.000102876
5 2.23163 -0.000329018 -0.000363827 -0.244169 0 0
6 11.4725 0 0 -0.797631 0.050693 0.525991
7 0.61522 -0.993092 -0.810699 3.00745 0.525484 -0.655733
8 2.24752 0 0 0.667291 0.0181302 -0.237173
9 1.11936 0 0 0.0670305 0.143755 -0.381466
10 3.71348 -0.102643 0.102191 2.18529 1.3845 0.778308
11 1.72615 0 0 0.00302821 -0.00362357 -0.807736
12 1.21114 0 0 -0.00418829 0.0171317 -0.837242
13 3.59919 -1.06012 0.0708885 1.85035 0.0419342 -0.185411
14 1.66069 0 0 -0.0127534 0.0768157 -0.387616
15 1.167 0 0 -0.0377702 0.0192858 -0.690695
16 2.18852 0.501039 0.0576582 1.57003 0.13363 0.225797
17 1.29609 0 0 0.0400339 0.0183108 -1.31443
18 1.62202 0.000713348 -0.000470638 0.00894347 -0.013364 -1.02281
19 1.22241 0 0 -0.00645983 0.00783626 -0.677319
20 1.76707 1.27612 0.0366411 1.5479 0.272488 0.179235
21 1.55588 0 0 -0.0321501 0.00539375 -1.11005
22 1.24274 0 0 -0.000580396 -0.000150598 -0.933327
23 0.784525 0 0 0.00625149 -0.00802399 -0.695876
24 -1.32739 -2.53706 -8.59145 -0.000932694 0 -1.7924
25 6.02794 0 0 0.92798 0.466478 0.326865
26 11.7344 0 0 0.00140278 0 1.07745
27 8.81167 0 0 2.19124 0 0
28 5.77884 0 0 1.46813 0 0
29 2.23249 0 0 0.723109 0 0
30 11.4725 0 0 2.18638 -0.0109938 -0.151601
31 0.615812 0.994372 -0.809166 -3.01765 0.219908 0.329799
32 2.24752 0 0 -0.0916132 0.00159438 -0.135336
33 1.11936 0 0 -0.0635615 0.198333 0.115097
34 3.71349 0.10264 0.10219 -1.55971 0.229201 -0.0768885
35 1.72615 0 0 -0.0280691 -0.00509513 1.50302
36 1.21112 0 0 -0.0135005 0.0113481 -0.274396
37 3.5992 1.06012 0.0708885 -1.56457 0.0540259 -0.156728
38 1.66069 0 0 0.046973 0.0621234 0.870993
39 1.16699 0 0 0.0141889 0.0101197 0.588502
40 2.18853 -0.50104 0.0576591 -1.57725 0.0209803 -0.0877146
41 1.29609 0 0 -0.0156083 -0.0441582 0.528637
42 1.62202 -0.000715256 -0.000470161 -0.0182865 -0.0140882 1.34745
43 1.22241 0 0 -0.00671079 0.00538799 -0.380805
44 1.76707 -1.27612 0.0366402 -1.52689 0.184153 -0.029908
45 1.55588 0 0 0.0317504 0.00739337 1.04752
46 1.24273 0 0 0.000582647 0.000141432 0.441468
47 0.784533 0 0 -0.0121968 -0.00723441 -0.33794
48 0 0 0 0 0 0
49 14.0041 -8.39654 -12.8984 -1.03598 -1.56739 2.60771
50 11.9627 -8.39847 -12.9044 -1.03598 -1.56739 2.60771
51 9.77568 -8.40053 -12.9108 -1.03598 -1.56739 2.60771
52 6.72349 -21.2437 -6.97153 -0.0017381 -0.002934 0.000942586
53 0 -13.2809 3.88246 0 0 0
54 0 1.99361 -1.25282 0 0 0
55 0 -3.47495 0.582542 0 0 0
56 0 -0.251465 1.74774 0 0 0
57 0 2.44569 0 0 0 0
time 16
0 8.32413 8.16715 1.13099 0.000934124 0 -1.48352
1 6.02794 0 0 -0.473264 1.03444 0.624959
2 11.7344 0 0 -0.00140275 0 -1.43714
3 8.81138 -0.000450134 -0.000112534 -0.74189 0 0.000157609
4 5.77839 0.000286102 0 -0.497066 0 0.000102702
5 2.23163 -0.000329971 -0.000363827 -0.244824 0 0
6 11.4725 0 0 -0.799427 0.0520531 0.526624
7 0.615219 -0.993091 -0.810699 3.00745 0.525484 -0.655733
8 2.24752 0 0 0.667292 0.01813 -0.237173
9 1.11936 0 0 0.0670303 0.143754 -0.381466
10 3.71348 -0.102641 0.102191 2.18529 1.3845 0.778309
11 1.72615 0 0 0.00302827 -0.00362348 -0.807736
12 1.21114 0 0 -0.0041882 0.0171317 -0.837242
13 3.59919 -1.06012 0.0708885 1.85035 0.0419342 -0.185412
14 1.66069 0 0 -0.0127534 0.0768157 -0.387616
15 1.167 0 0 -0.0377701 0.0192857 -0.690695
16 2.18852 0.50104 0.0576591 1.57003 0.13363 0.225797
17 1.29609 0 0 0.0400338 0.0183109 -1.31443
18 1.62202 0.000713348 -0.000471592 0.00894347 -0.013364 -1.02281
19 1.22241 0 0 -0.00645986 0.00783618 -0.677319
20 1.76707 1.27612 0.0366421 1.5479 0.272488 0.179234
21 1.55588 0 0 -0.0321501 0.00539377 -1.11005
22 1.24273 0 0 -0.000580436 -0.000150652 -0.933327
23 0.784525 0 0 0.00625158 -0.0080239 -0.695876
24 -1.32739 -2.53706 -8.59145 -0.000932694 0 -1.7924
25 6.02794 0 0 0.927498 0.467613 0.326001
26 11.7344 0 0 0.00140275 0 1.07978
27 8.81167 0 0 2.19045 0 0
28 5.77884 0 0 1.4676 0 0
29 2.23249 0 0 0.722847 0 0
30 11.4725 0 0 2.18535 -0.0100359 -0.154264
31 0.615814 0.994372 -0.809166 -3.01765 0.219908 0.329798
32 2.24752 0 0 -0.0916132 0.00159446 -0.135336
33 1.11936 0 0 -0.0635615 0.198333 0.115097
34 3.71349 0.102639 0.10219 -1.55971 0.229201 -0.0768883
35 1.72615 0 0 -0.028069 -0.00509508 1.50302
36 1.21112 0 0 -0.0135006 0.011348 -0.274396
37 3.5992 1.06011 0.0708866 -1.56456 0.0540258 -0.156728
38 1.66069 0 0 0.046973 0.0621233 0.870993
39 1.16699 0 0 0.0141889 0.0101196 0.588502
40 2.18853 -0.50104 0.0576591 -1.57725 0.0209802 -0.0877145
41 1.29609 0 0 -0.0156081 -0.0441581 0.528636
42 1.62202 -0.000711441 -0.000470161 -0.0182866 -0.0140882 1.34745
43 1.22241 0 0 -0.00671074 0.00538805 -0.380804
44 1.76707 -1.27612 0.0366402 -1.52689 0.184153 -0.029908
45 1.55587 0 0 0.0317506 0.00739331 1.04752
46 1.24273 0 0 0.000582464 0.000141431 0.441468
47 0.784532 0 0 -0.0121966 -0.0072343 -0.33794
48 0 0 0 0 0 0
49 13.9973 -8.38323 -12.9006 -0.957276 -1.56962 2.52858
50 11.9559 -8.38438 -12.9025 -0.957276 -1.56962 2.52858
51 9.76885 -8.3856 -12.9046 -0.957276 -1.56962 2.52858
52 6.72349 -21.2339 -6.97297 -0.000678302 -0.000963228 0.00056137
53 0 -13.2809 3.88246 0 0 0
54 0 1.99361 -1.25282 0 0 0
55 0 -3.47495 0.582541 0 0 0
56 0 -0.251465 1.74774 0 0 0
57 0 2.44569 0 0 0 0
time 17
0 8.32413 8.16715 1.13099 0.000934124 0 -1.48352
1 6.02794 0 0 -0.472683 1.03477 0.625986
2 11.7344 0 0 -0.0014028 0 -1.43861
3 8.81138 -0.000450134 -0.00011301 -0.742864 0 0.00015787
4 5.77839 0.000285149 0 -0.497719 0 0.000102815
5 2.23163 -0.000329971 -0.00036478 -0.245145 0 0
6 11.4725 0 0 -0.800341 0.0531267 0.527526
7 0.615218 -0.993091 -0.810701 3.00745 0.525484 -0.655733
8 2.24752 0 0 0.667291 0.0181301 -0.237173
9 1.11936 0 0 0.0670303 0.143754 -0.381466
10 3.71348 -0.10264 0.10219 2.18529 1.3845 0.778308
11 1.72615 0 0 0.00302816 -0.00362362 -0.807736
12 1.21114 0 0 -0.00418835 0.0171317 -0.837242
13 3.59919 -1.06012 0.0708866 1.85035 0.0419342 -0.185412
14 1.66069 0 0 -0.0127534 0.0768157 -0.387616
15 1.167 0 0 -0.0377702 0.0192858 -0.690695
16 2.18852 0.501039 0.0576582 1.57003 0.13363 0.225797
17 1.29609 0 0 0.0400339 0.018311 -1.31443
18 1.62202 0.000713348 -0.000471115 0.00894331 -0.013364 -1.02281
19 1.22241 0 0 -0.0064598 0.00783627 -0.677319
20 1.76707 1.27612 0.0366402 1.5479 0.272488 0.179235
21 1.55588 0 0 -0.0321502 0.00539384 -1.11005
22 1.24273 0 0 -0.000580503 -0.000150652 -0.933327
23 0.784523 0 0 0.0062516 -0.00802395 -0.695876
24 -1.32739 -2.53706 -8.59145 -0.000932694 0 -1.7924
25 6.02794 0 0 0.927295 0.468228 0.325436
26 11.7344 0 0 0.00140265 0 1.08163
27 8.81167 0 0 2.18998 0 0
28 5.77884 0 0 1.46728 0 0
29 2.23249 0 0 0.722692 0 0
30 11.4725 0 0 2.18469 -0.00933108 -0.156424
31 0.615812 0.994372 -0.809164 -3.01765 0.219908 0.329799
32 2.24752 0 0 -0.0916132 0.00159449 -0.135336
33 1.11936 0 0 -0.0635615 0.198333 0.115097
34 3.71349 0.102639 0.102192 -1.55971 0.229201 -0.0768883
35 1.72615 0 0 -0.0280691 -0.00509515 1.50302
36 1.21112 0 0 -0.0135005 0.0113481 -0.274396
37 3.5992 1.06012 0.0708885 -1.56456 0.0540258 -0.156728
38 1.66069 0 0 0.0469729 0.0621233 0.870993
39 1.16699 0 0 0.0141888 0.0101197 0.588502
40 2.18853 -0.501041 0.0576591 -1.57725 0.0209801 -0.0877146
41 1.29609 0 0 -0.0156081 -0.044158 0.528637
42 1.62202 -0.000713348 -0.000470161 -0.0182864 -0.0140882 1.34745
43 1.22241 0 0 -0.00671084 0.00538796 -0.380804
44 1.76707 -1.27612 0.0366411 -1.52689 0.184153 -0.0299082
45 1.55588 0 0 0.0317506 0.00739321 1.04752
46 1.24273 0 0 0.000582532 0.000141462 0.441468
47 0.784533 0 0 -0.012197 -0.0072344 -0.33794
48 0 0 0 0 0 0
49 13.9935 -8.37289 -12.896 1.5708 -1.57052 0.000217014
50 11.9521 -8.37346 -12.8955 1.5708 -1.57052 0.000217014
51 9.7651 -8.37408 -12.8949 1.5708 -1.57052 0.000217014
52 6.72349 -21.2255 -6.96813 0 0.000274443 0.000281899
53 0 -13.2809 3.88246 0 0 0
54 0 1.99361 -1.25282 0 0 0
55 0 -3.47495 0.582541 0 0 0
56 0 -0.251465 1.74774 0 0 0
57 0 2.44569 0 0 0 0
time 18
0 8.32413 8.16715 1.13099 0.000934124 0 -1.48352
1 6.02794 0 0 -0.472413 1.03503 0.626706
2 11.7344 0 0 -0.0014028 0 -1.43987
3 8.81138 -0.000450134 -0.00011301 -0.742681 0 0.000157789
4 5.77839 0.000286102 0 -0.497597 0 0.000102827
5 2.23163 -0.000328064 -0.000364304 -0.245085 0 0
6 11.4725 0 0 -0.800219 0.0536108 0.528343
7 0.615219 -0.993091 -0.8107 3.00745 0.525484 -0.655733
8 2.24752 0 0 0.667292 0.0181302 -0.237173
9 1.11936 0 0 0.0670304 0.143754 -0.381466
10 3.71348 -0.102641 0.102191 2.18529 1.3845 0.778308
11 1.72615 0 0 0.00302811 -0.00362364 -0.807736
12 1.21114 0 0 -0.00418824 0.0171318 -0.837242
13 3.59919 -1.06012 0.0708885 1.85035 0.0419342 -0.185412
14 1.66069 0 0 -0.0127534 0.0768156 -0.387616
15 1.167 0 0 -0.0377702 0.0192859 -0.690695
16 2.18853 0.50104 0.0576591 1.57003 0.13363 0.225797
17 1.29609 0 0 0.0400338 0.0183109 -1.31443
18 1.62202 0.000713348 -0.000470161 0.0089434 -0.013364 -1.02281
19 1.22241 0 0 -0.00645976 0.00783631 -0.677319
20 1.76707 1.27612 0.0366421 1.5479 0.272488 0.179235
21 1.55588 0 0 -0.0321501 0.00539373 -1.11005
22 1.24273 0 0 -0.00058049 -0.000150545 -0.933327
23 0.784523 0 0 0.00625163 -0.00802394 -0.695876
24 -1.32739 -2.53706 -8.59145 -0.000932694 0 -1.7924
25 6.02794 0 0 0.9273 0.468378 0.325207
26 11.7344 0 0 0.00140275 0 1.08282
27 8.81167 0 0 2.18995 0 0
28 5.77884 0 0 1.46726 0 0
29 2.23249 0 0 0.722683 0 0
30 11.4725 0 0 2.18457 -0.00918045 -0.157631
31 0.615812 0.994372 -0.809165 -3.01765 0.219908 0.329799
32 2.24752 0 0 -0.0916131 0.00159441 -0.135336
33 1.11936 0 0 -0.0635615 0.198333 0.115097
34 3.71348 0.102642 0.102191 -1.5597 0.229201 -0.0768882
35 1.72615 0 0 -0.028069 -0.00509518 1.50302
36 1.21112 0 0 -0.0135006 0.0113479 -0.274396
37 3.5992 1.06012 0.0708876 -1.56456 0.0540259 -0.156728
38 1.66069 0 0 0.0469729 0.0621233 0.870993
39 1.16699 0 0 0.0141888 0.0101197 0.588502
40 2.18853 -0.50104 0.0576591 -1.57725 0.0209802 -0.0877145
41 1.29609 0 0 -0.0156083 -0.0441581 0.528637
42 1.62201 -0.000713348 -0.000469208 -0.0182864 -0.0140883 1.34745
43 1.22241 0 0 -0.0067108 0.00538788 -0.380804
44 1.76707 -1.27612 0.0366411 -1.52689 0.184153 -0.029908
45 1.55588 0 0 0.0317506 0.00739315 1.04752
46 1.24273 0 0 0.000582474 0.000141478 0.441468
47 0.784532 0 0 -0.0121967 -0.00723419 -0.33794
48 0 0 0 0 0 0
49 13.9944 -8.36671 -12.8879 1.86391 -1.57031 -0.292821
50 11.953 -8.36697 -12.887 1.86391 -1.57031 -0.292821
51 9.76599 -8.36724 -12.8859 1.86391 -1.57031 -0.292821
52 6.72349 -21.219 -6.96044 0.000141416 0.000468632 0.000123205
53 0 -13.2809 3.88246 0 0 0
54 0 1.99361 -1.25282 0 0 0
55 0 -3.47495 0.582541 0 0 0
56 0 -0.251465 1.74774 0 0 0
57 0 2.44569 0 0 0 0
time 19
0 8.32413 8.16715 1.13099 0.000934124 0 -1.48352
1 6.02794 0 0 -0.472375 1.03521 0.627126
2 11.7344 0 0 -0.00140283 0 -1.44078
3 8.81138 -0.000448227 -0.00011158 -0.742061 0 0.000157912
4 5.77839 0.000286102 0 -0.497181 0 0.000102833
5 2.23163 -0.000329018 -0.000363827 -0.24488 0 0
6 11.4725 0 0 -0.799686 0.0538063 0.528979
7 0.615219 -0.993091 -0.810699 3.00745 0.525484 -0.655733
8 2.24752 0 0 0.667292 0.0181304 -0.237173
9 1.11936 0 0 0.0670306 0.143755 -0.381466
10 3.71348 -0.102642 0.102192 2.18529 1.3845 0.778309
11 1.72615 0 0 0.00302814 -0.00362363 -0.807736
12 1.21114 0 0 -0.00418829 0.0171317 -0.837242
13 3.59919 -1.06012 0.0708885 1.85035 0.0419342 -0.185412
14 1.66069 0 0 -0.0127534 0.0768157 -0.387616
15 1.167 0 0 -0.0377702 0.0192858 -0.690695
16 2.18853 0.50104 0.0576591 1.57003 0.13363 0.225797
17 1.29609 0 0 0.0400339 0.018311 -1.31443
18 1.62202 0.000713348 -0.000471592 0.00894352 -0.0133639 -1.02281
19 1.22241 0 0 -0.00645986 0.00783625 -0.677319
20 1.76707 1.27612 0.0366411 1.5479 0.272488 0.179235
21 1.55588 0 0 -0.0321501 0.00539377 -1.11005
22 1.24273 0 0 -0.000580449 -0.000150625 -0.933327
23 0.784523 0 0 0.00625159 -0.00802402 -0.695876
24 -1.32739 -2.53706 -8.59145 -0.000932694 0 -1.7924
25 6.02794 0 0 0.927384 0.46832 0.325154
26 11.7344 0 0 0.00140259 0 1.08349
27 8.81167 0 0 2.19011 0 0
28 5.77884 0 0 1.46738 0 0
29 2.23249 0 0 0.722738 0 0
30 11.4725 0 0 2.1847 -0.0092883 -0.158218
31 0.615816 0.994372 -0.809165 -3.01765 0.219908 0.329799
32 2.24752 0 0 -0.0916132 0.00159445 -0.135336
33 1.11935 0 0 -0.0635615 0.198333 0.115097
34 3.71349 0.102639 0.10219 -1.55971 0.229201 -0.0768883
35 1.72615 0 0 -0.0280692 -0.00509519 1.50302
36 1.21112 0 0 -0.0135006 0.011348 -0.274396
37 3.5992 1.06011 0.0708885 -1.56456 0.0540259 -0.156728
38 1.66069 0 0 0.0469729 0.0621234 0.870993
39 1.16699 0 0 0.014189 0.0101197 0.588502
40 2.18854 -0.501042 0.0576591 -1.57725 0.0209802 -0.0877146
41 1.29609 0 0 -0.0156081 -0.0441582 0.528637
42 1.62202 -0.000713348 -0.000472069 -0.0182864 -0.0140881 1.34745
43 1.22241 0 0 -0.00671082 0.00538801 -0.380805
44 1.76707 -1.27612 0.0366421 -1.52689 0.184153 -0.0299079
45 1.55587 0 0 0.0317505 0.00739338 1.04752
46 1.24273 0 0 0.000582499 0.000141454 0.441468
47 0.784533 0 0 -0.0121967 -0.00723446 -0.33794
48 0 0 0 0 0 0
49 13.9972 -8.36361 -12.8798 1.90429 -1.57058 -0.333405
50 11.9558 -8.36367 -12.8794 1.90429 -1.57058 -0.333405
51 9.76875 -8.36374 -12.8789 1.90429 -1.57058 -0.333405
52 6.72349 -21.2148 -6.95331 0 0.000203915 0
53 0 -13.2809 3.88246 0 0 0
54 0 1.99361 -1.25282 0 0 0
55 0 -3.47495 0.582541 0 0 0
56 0 -0.251465 1.74774 0 0 0
57 0 2.44569 0 0 0 0
time 20
0 8.32413 8.16715 1.13099 0.000934124 0 -1.48352
1 6.02794 0 0 -0.472399 1.03527 0.627263
2 11.7344 0 0 -0.00140288 0 -1.44113
3 8.81138 -0.000449181 -0.000110626 -0.741699 0 0.000157586
4 5.77839 0.000286102 0 -0.496939 0 0.000102553
5 2.23163 -0.000329971 -0.000362396 -0.244761 0 0
6 11.4725 0 0 -0.799369 0.0538426 0.529236
7 0.615219 -0.993091 -0.8107 3.00745 0.525484 -0.655733
8 2.24752 0 0 0.667292 0.01813 -0.237173
9 1.11936 0 0 0.0670304 0.143754 -0.381466
10 3.71348 -0.102641 0.102191 2.18529 1.3845 0.778308
11 1.72615 0 0 0.0030281 -0.00362355 -0.807736
12 1.21114 0 0 -0.00418822 0.0171319 -0.837242
13 3.59919 -1.06012 0.0708885 1.85035 0.0419343 -0.185412
14 1.66069 0 0 -0.0127534 0.0768157 -0.387616
15 1.167 0 0 -0.0377702 0.0192858 -0.690695
16 2.18853 0.50104 0.0576591 1.57003 0.13363 0.225797
17 1.29609 0 0 0.040034 0.018311 -1.31443
18 1.62202 0.000715256 -0.000471115 0.00894344 -0.0133641 -1.02281
19 1.22241 0 0 -0.00645995 0.00783615 -0.677319
20 1.76707 1.27612 0.0366402 1.5479 0.272488 0.179235
21 1.55588 0 0 -0.0321502 0.00539375 -1.11005
22 1.24273 0 0 -0.00058045 -0.000150625 -0.933327
23 0.784525 0 0 0.00625158 -0.0080239 -0.695876
24 -1.32739 -2.53706 -8.59145 -0.000932694 0 -1.7924
25 6.02794 0 0 0.927436 0.468256 0.325163
26 11.7344 0 0 0.00140257 0 1.0837
27 8.81167 0 0 2.19023 0 0
28 5.77884 0 0 1.46745 0 0
29 2.23249 0 0 0.722775 0 0
30 11.4725 0 0 2.1848 -0.00938465 -0.158372
31 0.615814 0.994373 -0.809165 -3.01765 0.219908 0.329798
32 2.24752 0 0 -0.0916132 0.00159445 -0.135336
33 1.11936 0 0 -0.0635615 0.198333 0.115097
34 3.71349 0.10264 0.102191 -1.55971 0.229201 -0.0768884
35 1.72615 0 0 -0.0280691 -0.00509503 1.50302
36 1.21112 0 0 -0.0135007 0.011348 -0.274396
37 3.5992 1.06012 0.0708895 -1.56456 0.0540258 -0.156728
38 1.66069 0 0 0.046973 0.0621234 0.870993
39 1.16699 0 0 0.0141888 0.0101196 0.588502
40 2.18853 -0.50104 0.0576601 -1.57725 0.0209802 -0.0877147
41 1.29609 0 0 -0.015608 -0.0441582 0.528637
42 1.62202 -0.000715256 -0.000469208 -0.0182865 -0.0140881 1.34745
43 1.22241 0 0 -0.00671066 0.00538794 -0.380804
44 1.76707 -1.27612 0.0366402 -1.52689 0.184153 -0.0299081
45 1.55587 0 0 0.0317506 0.00739324 1.04752
46 1.24273 0 0 0.000582344 0.000141576 0.441468
47 0.784533 0 0 -0.0121966 -0.00723437 -0.33794
48 0 0 0 0 0 0
49 13.9988 -8.36275 -12.8761 1.5708 -1.5708 0
50 11.9574 -8.36275 -12.8761 1.5708 -1.5708 0
51 9.77035 -8.36275 -12.8761 1.5708 -1.5708 0
52 6.72349 -21.2133 -6.95018 0 0 0
53 0 -13.2809 3.88246 0 0 0
54 0 1.99361 -1.25282 0 0 0
55 0 -3.47495 0.582541 0 0 0
56 0 -0.251465 1.74774 0 0 0
57 0 2.44569 0 0 0 0
end
