//Sequence File generated by the Wall Worm SMD Exporter PRO 1.99
//www.wallworm.com
version 1
nodes
0 "b_l_clav" -1
1 "b_l_upperarm" 0
2 "b_l_forearm" 1
3 "b_l_twist3" 2
4 "b_l_twist2" 2
5 "b_l_twist1" 2
6 "b_l_hand" 2
7 "b_l_thumb001" 6
8 "b_l_thumb002" 7
9 "b_l_thumb003" 8
10 "b_l_middle001" 6
11 "b_l_middle002" 10
12 "b_l_middle003" 11
13 "b_l_index001" 6
14 "b_l_index002" 13
15 "b_l_index003" 14
16 "b_l_hand_ringsqueezer" 6
17 "b_l_ring001" 16
18 "b_l_ring002" 17
19 "b_l_ring003" 18
20 "b_l_hand_pinkysqueezer" 6
21 "b_l_pinky001" 20
22 "b_l_pinky002" 21
23 "b_l_pinky003" 22
24 "b_r_clav" -1
25 "b_r_upperarm" 24
26 "b_r_forearm" 25
27 "b_r_twist3" 26
28 "b_r_twist2" 26
29 "b_r_twist1" 26
30 "b_r_hand" 26
31 "b_r_thumb001" 30
32 "b_r_thumb002" 31
33 "b_r_thumb003" 32
34 "b_r_middle001" 30
35 "b_r_middle002" 34
36 "b_r_middle003" 35
37 "b_r_index001" 30
38 "b_r_index002" 37
39 "b_r_index003" 38
40 "b_r_hand_ringsqueezer" 30
41 "b_r_ring001" 40
42 "b_r_ring002" 41
43 "b_r_ring003" 42
44 "b_r_hand_pinkysqueezer" 30
45 "b_r_pinky001" 44
46 "b_r_pinky002" 45
47 "b_r_pinky003" 46
48 "b_zero" -1
49 "d_wepinbone" -1
end
skeleton
time 0
0 2.166 -0.605969 -7.43717 0 0 -0.526339
1 6.02794 0 0 0.938971 1.14822 0.55035
2 11.7344 0 0 -0.00140286 0 -2.01903
3 8.81138 -0.000450134 -0.00011158 -1.57186 0 0.000157652
4 5.77839 0.00028801 0 -1.05315 0 0.00010058
5 2.23163 -0.000328064 -0.000363827 -0.518715 0 0
6 11.4725 0 0 -1.57188 -0.406033 0.397048
7 0.615218 -0.99309 -0.810699 3.1005 0.509533 -0.586865
8 2.24752 0 0 0.0829586 0.0470249 0.0569114
9 1.11936 0 0 0.0561775 0.207596 -0.503966
10 3.71348 -0.102641 0.10219 1.61129 0.90883 0.0901494
11 1.72615 0 0 0.00663859 -0.00433335 -1.10413
12 1.21114 0 0 0.000713771 0.0132268 -0.299713
13 3.59919 -1.06012 0.0708885 1.76898 0.714482 0.16086
14 1.66069 0 0 0.0319726 -0.00738655 -1.21529
15 1.167 0 0 -0.0156354 0.00368097 -0.482872
16 2.18852 0.501039 0.0576591 1.57726 -0.0448603 0.0871926
17 1.29609 0 0 0.0426146 0.00757171 -0.851266
18 1.62202 0.000713348 -0.000470638 -0.113472 0.0164738 -1.13147
19 1.22241 0 0 0.00839543 0.0295667 -0.341416
20 1.76707 1.27612 0.0366421 1.57615 -0.000937987 0.0527467
21 1.55588 0 0 -0.116611 0.0183793 -0.858621
22 1.24274 0 0 -0.000591485 0 -0.844671
23 0.784525 0 0 0.0007703 -0.00701437 -0.104884
24 -2.18952 -1.46928 -7.2488 -0.000932534 0 -2.53187
25 6.02794 0 0 -1.43037 0.879481 -0.330795
26 11.7344 0 0 0.00140268 0 2.31932
27 8.81167 0 0 -1.32485 0 0
28 5.77884 0 0 -0.88765 0 0
29 2.23249 0 0 -0.437201 0 0
30 11.4725 0 0 1.31742 -0.789598 -2.18464
31 0.615814 0.994372 -0.809165 -3.01714 0.444038 0.335036
32 2.24752 0 0 -0.315217 0.222696 0.223646
33 1.11936 0 0 0.00694585 0.302296 1.09509
34 3.71349 0.102639 0.10219 -1.86859 1.17486 -0.428475
35 1.72615 0 0 -0.024454 0.00494018 1.59024
36 1.21112 0 0 0.000709554 0.0176219 0.637703
37 3.5992 1.06012 0.070888 -1.87203 0.776974 -0.315066
38 1.66069 0 0 0.0752357 0.0200824 1.53336
39 1.16699 0 0 -0.0284738 -0.00637306 0.987226
40 2.18853 -0.501039 0.0576591 -1.57862 -0.0515781 -0.0608242
41 1.29609 0 0 0.0695048 0.182432 1.26119
42 1.62202 -0.000712395 -0.0004704 -0.0215333 -0.0111428 1.52638
43 1.22241 0 0 0.000590997 0.00644241 0.784236
44 1.76707 -1.27612 0.0366406 -1.57709 -0.0287246 -0.0202617
45 1.55588 0 0 0.142902 0.171156 1.29126
46 1.24273 0 0 -0.00243905 -0.0856213 1.21077
47 0.784532 0 0 -0.00569154 -0.0016525 0.590112
48 0 0 0 0 0 0
49 1.60141 -13.3693 -16.0803 1.21633 0.857592 0.372787
time 1
0 2.12497 -0.774075 -7.4034 0 0 -0.526339
1 6.02794 0 0 0.836455 1.19902 0.577287
2 11.7344 0 0 -0.00140286 0 -2.02275
3 8.81138 -0.000448227 -0.000112057 -1.46552 0 0.000157639
4 5.77839 0.00028801 0 -0.981897 0 0.000100888
5 2.23163 -0.000328064 -0.000363827 -0.483621 0 0
6 11.4725 0 0 -1.46676 -0.327996 0.328998
7 0.615218 -0.993091 -0.810699 3.09484 0.509173 -0.600047
8 2.24752 0 0 0.0831349 0.0449563 0.0738515
9 1.11936 0 0 0.0664318 0.198447 -0.453065
10 3.71348 -0.102641 0.10219 1.60951 0.872471 0.0878918
11 1.72615 0 0 0.00637968 -0.00454231 -1.06774
12 1.21114 0 0 0.00121917 0.0129424 -0.263325
13 3.59919 -1.06012 0.0708885 1.76304 0.684244 0.152135
14 1.66069 0 0 0.0312662 -0.00843298 -1.17891
15 1.167 0 0 -0.0154654 0.00388862 -0.446488
16 2.18852 0.50104 0.0576591 1.57725 -0.0418271 0.0872489
17 1.29609 0 0 0.0428037 0.00600446 -0.814914
18 1.62202 0.000713348 -0.000471115 -0.111228 0.0204536 -1.09532
19 1.22241 0 0 0.0109178 0.0292124 -0.305046
20 1.76707 1.27612 0.0366421 1.57615 0.00209434 0.0528188
21 1.55588 0 0 -0.115779 0.0225398 -0.822463
22 1.24273 0 0 -0.000594667 0 -0.808284
23 0.784523 0 0 0.000648649 -0.00679918 -0.0931276
24 -2.14503 -1.4893 -7.2488 -0.000932534 0 -2.53187
25 6.02794 0 0 -1.35298 0.883485 -0.395518
26 11.7344 0 0 0.00140251 0 2.31426
27 8.81167 0 0 -1.24724 0 0
28 5.77884 0 0 -0.83565 0 0
29 2.23249 0 0 -0.411589 0 0
30 11.4725 0 0 1.16699 -0.910135 -2.07973
31 0.615812 0.994372 -0.809165 -3.01714 0.444038 0.335036
32 2.24752 0 0 -0.315217 0.222696 0.223646
33 1.11936 0 0 0.00694599 0.302296 1.09509
34 3.71348 0.102639 0.102191 -1.86859 1.17486 -0.428475
35 1.72615 0 0 -0.024454 0.00494018 1.59024
36 1.21112 0 0 0.00070952 0.0176218 0.637702
37 3.5992 1.06012 0.0708885 -1.87203 0.776974 -0.315066
38 1.66069 0 0 0.0752355 0.0200823 1.53336
39 1.16699 0 0 -0.0284737 -0.00637309 0.987226
40 2.18853 -0.50104 0.0576601 -1.57862 -0.0515781 -0.0608243
41 1.29609 0 0 0.0695049 0.182432 1.26119
42 1.62201 -0.000713348 -0.000469685 -0.0215331 -0.0111427 1.52638
43 1.22241 0 0 0.000590868 0.00644217 0.784236
44 1.76707 -1.27612 0.0366416 -1.57709 -0.0287247 -0.0202619
45 1.55588 0 0 0.142902 0.171156 1.29126
46 1.24273 0 0 -0.0024391 -0.0856211 1.21077
47 0.784532 0 0 -0.00569145 -0.00165262 0.590112
48 0 0 0 0 0 0
49 1.56294 -13.8442 -15.336 1.05961 0.898588 0.270028
time 2
0 2.08753 -0.928971 -7.37254 0 0 -0.526339
1 6.02794 0 0 0.679717 1.25538 0.535752
2 11.7344 0 0 -0.00140273 0 -2.02287
3 8.81138 -0.000450134 -0.000112534 -1.39437 0 0.000157139
4 5.77839 0.00028801 0 -0.934225 0 0.00010044
5 2.23164 -0.000328064 -0.000363827 -0.46014 0 0
6 11.4725 0 0 -1.39769 -0.254229 0.278812
7 0.615218 -0.993091 -0.810699 3.0902 0.508817 -0.610754
8 2.24752 0 0 0.0834077 0.042893 0.0918161
9 1.11936 0 0 0.0811771 0.187808 -0.381255
10 3.71348 -0.102641 0.10219 1.60746 0.823877 0.0851699
11 1.72615 0 0 0.00603791 -0.0048081 -1.01912
12 1.21114 0 0 0.0019855 0.0126115 -0.214695
13 3.59919 -1.06012 0.0708885 1.75526 0.638549 0.140062
14 1.66069 0 0 0.0304036 -0.00981792 -1.13031
15 1.16699 0 0 -0.0152001 0.00425497 -0.397865
16 2.18852 0.501039 0.0576591 1.57724 -0.0341804 0.0873701
17 1.29609 0 0 0.0429821 0.00392209 -0.766332
18 1.62202 0.000713348 -0.000471115 -0.108436 0.0256483 -1.04698
19 1.22241 0 0 0.0138289 0.0285747 -0.25643
20 1.76707 1.27612 0.0366421 1.57614 0.0097391 0.0529679
21 1.55587 0 0 -0.114487 0.0280545 -0.774131
22 1.24274 0 0 -0.000597622 0 -0.759657
23 0.784523 0 0 0.000554437 -0.00657345 -0.0834318
24 -2.10416 -1.50668 -7.2488 -0.000932534 0 -2.53187
25 6.02794 0 0 -1.26226 0.901388 -0.456061
26 11.7344 0 0 0.00140286 0 2.31507
27 8.81167 0 0 -1.17077 0 0
28 5.77884 0 0 -0.784417 0 0
29 2.23249 0 0 -0.386355 0 0
30 11.4725 0 0 0.937207 -1.0117 -1.9121
31 0.615812 0.994372 -0.809165 -3.01714 0.444038 0.335036
32 2.24752 0 0 -0.315217 0.222696 0.223646
33 1.11936 0 0 0.006946 0.302296 1.09509
34 3.71349 0.102639 0.102191 -1.86859 1.17486 -0.428474
35 1.72615 0 0 -0.024454 0.00494008 1.59024
36 1.21112 0 0 0.000709623 0.0176219 0.637702
37 3.5992 1.06012 0.0708876 -1.87203 0.776974 -0.315065
38 1.66069 0 0 0.0752357 0.0200824 1.53336
39 1.16699 0 0 -0.0284739 -0.00637314 0.987226
40 2.18853 -0.50104 0.0576582 -1.57862 -0.051578 -0.0608242
41 1.29609 0 0 0.0695049 0.182432 1.26119
42 1.62202 -0.000713348 -0.000470638 -0.0215332 -0.0111428 1.52638
43 1.22241 0 0 0.000590876 0.00644223 0.784236
44 1.76707 -1.27612 0.0366402 -1.57709 -0.0287248 -0.0202616
45 1.55587 0 0 0.142902 0.171156 1.29126
46 1.24273 0 0 -0.00243897 -0.0856212 1.21077
47 0.784531 0 0 -0.00569152 -0.00165254 0.590112
48 0 0 0 0 0 0
49 1.51078 -14.3397 -14.5962 0.901397 0.93917 0.165562
time 3
0 2.05387 -1.0696 -7.34476 0 0 -0.526339
1 6.02794 0 0 0.424838 1.30794 0.381736
2 11.7344 0 0 -0.00140291 0 -2.01859
3 8.81138 -0.000450134 -0.000111103 -1.3564 0 0.000157623
4 5.77839 0.000286102 0 -0.908786 0 0.000100936
5 2.23163 -0.000328064 -0.00036335 -0.447611 0 0
6 11.4725 0 0 -1.36107 -0.190344 0.246694
7 0.61522 -0.993091 -0.810699 3.08685 0.508517 -0.618252
8 2.24752 0 0 0.0837396 0.0410167 0.109105
9 1.11936 0 0 0.0984194 0.176553 -0.296919
10 3.71348 -0.102642 0.10219 1.60555 0.768491 0.0824218
11 1.72615 0 0 0.0056191 -0.00507412 -0.963701
12 1.21113 0 0 0.00290995 0.0122447 -0.159275
13 3.59919 -1.06012 0.0708866 1.74754 0.582741 0.126961
14 1.66069 0 0 0.0295629 -0.0114626 -1.07493
15 1.167 0 0 -0.0148255 0.00467903 -0.342453
16 2.18852 0.501039 0.0576591 1.57723 -0.0230189 0.0875259
17 1.29609 0 0 0.0430999 0.00161661 -0.710963
18 1.62202 0.000713348 -0.000471115 -0.105425 0.0315327 -0.991893
19 1.22241 0 0 0.0168113 0.027764 -0.201017
20 1.76707 1.27612 0.0366421 1.57613 0.0208988 0.053155
21 1.55588 0 0 -0.11285 0.0342839 -0.719037
22 1.24274 0 0 -0.000599493 0 -0.704239
23 0.784524 0 0 0.000494822 -0.00635807 -0.0764808
24 -2.06716 -1.52156 -7.2488 -0.000932534 0 -2.53187
25 6.02795 0 0 -1.15089 0.93562 -0.502709
26 11.7344 0 0 0.00140266 0 2.32188
27 8.81167 0 0 -1.09891 0 0
28 5.77884 0 0 -0.736271 0 0
29 2.23249 0 0 -0.362641 0 0
30 11.4725 0 0 0.608514 -1.07106 -1.66437
31 0.615813 0.994372 -0.809166 -3.01714 0.444038 0.335036
32 2.24752 0 0 -0.315217 0.222696 0.223646
33 1.11936 0 0 0.00694591 0.302296 1.09509
34 3.71349 0.102638 0.102191 -1.86859 1.17486 -0.428475
35 1.72615 0 0 -0.0244539 0.0049401 1.59024
36 1.21112 0 0 0.0007095 0.017622 0.637702
37 3.5992 1.06012 0.0708876 -1.87203 0.776974 -0.315065
38 1.66069 0 0 0.0752355 0.0200822 1.53336
39 1.16699 0 0 -0.0284738 -0.00637321 0.987226
40 2.18853 -0.50104 0.0576582 -1.57862 -0.0515781 -0.0608241
41 1.29609 0 0 0.069505 0.182432 1.26119
42 1.62201 -0.000711441 -0.000469685 -0.0215333 -0.0111427 1.52638
43 1.22241 0 0 0.000590993 0.00644228 0.784236
44 1.76707 -1.27612 0.0366402 -1.57709 -0.0287246 -0.0202618
45 1.55588 0 0 0.142902 0.171156 1.29126
46 1.24273 0 0 -0.00243896 -0.0856213 1.21077
47 0.784531 0 0 -0.00569149 -0.00165246 0.590112
48 0 0 0 0 0 0
49 1.44523 -14.8853 -13.819 0.743254 0.978973 0.0607353
time 4
0 2.02414 -1.19491 -7.3202 0 0 -0.526339
1 6.02794 0 0 0.0322234 1.33782 0.0761176
2 11.7344 0 0 -0.00140287 0 -2.00782
3 8.81138 -0.000448227 -0.00011158 -1.34599 0 0.000157272
4 5.77839 0.000286102 0 -0.901815 0 0.000100816
5 2.23163 -0.000328064 -0.000363827 -0.444177 0 0
6 11.4725 0 0 -1.35121 -0.14053 0.230505
7 0.615219 -0.993091 -0.810699 3.0851 0.508324 -0.621812
8 2.24752 0 0 0.084106 0.0395188 0.124019
9 1.11936 0 0 0.116287 0.16571 -0.208377
10 3.71348 -0.102641 0.10219 1.604 0.711764 0.0799187
11 1.72615 0 0 0.00515357 -0.00529953 -0.906945
12 1.21114 0 0 0.00389447 0.0118684 -0.102515
13 3.59919 -1.06012 0.0708866 1.74106 0.522256 0.114491
14 1.66069 0 0 0.0288577 -0.0132467 -1.01822
15 1.167 0 0 -0.014363 0.0050914 -0.285704
16 2.18853 0.501039 0.0576572 1.57723 -0.00943956 0.0876886
17 1.29609 0 0 0.0431356 -0.000655606 -0.654251
18 1.62202 0.000715256 -0.000470638 -0.102502 0.0375536 -0.935474
19 1.22241 0 0 0.0195647 0.0268739 -0.144257
20 1.76707 1.27612 0.0366402 1.57613 0.0344767 0.0533416
21 1.55588 0 0 -0.111015 0.0405997 -0.662598
22 1.24273 0 0 -0.000599351 0 -0.647483
23 0.784523 0 0 0.000476395 -0.00617394 -0.0729584
24 -2.03429 -1.53405 -7.2488 -0.000932534 0 -2.53187
25 6.02794 0 0 -1.00681 0.987195 -0.517433
26 11.7344 0 0 0.0014027 0 2.33115
27 8.81167 0 0 -1.03338 0 0
28 5.77884 0 0 -0.692365 0 0
29 2.23249 0 0 -0.341016 0 0
30 11.4725 0 0 0.228373 -1.06338 -1.38341
31 0.615812 0.994372 -0.809165 -3.01714 0.444038 0.335036
32 2.24752 0 0 -0.315217 0.222696 0.223646
33 1.11936 0 0 0.006946 0.302296 1.09509
34 3.71348 0.102639 0.102191 -1.86859 1.17486 -0.428475
35 1.72615 0 0 -0.024454 0.00494014 1.59024
36 1.21112 0 0 0.00070954 0.017622 0.637703
37 3.5992 1.06012 0.0708885 -1.87203 0.776974 -0.315065
38 1.66069 0 0 0.0752356 0.0200823 1.53336
39 1.16699 0 0 -0.0284737 -0.00637309 0.987226
40 2.18853 -0.50104 0.0576591 -1.57862 -0.051578 -0.0608243
41 1.29609 0 0 0.0695048 0.182432 1.26119
42 1.62201 -0.000712395 -0.000469685 -0.0215333 -0.0111427 1.52638
43 1.22241 0 0 0.000590993 0.00644228 0.784235
44 1.76707 -1.27612 0.0366411 -1.57709 -0.0287248 -0.0202618
45 1.55587 0 0 0.142902 0.171156 1.29126
46 1.24273 0 0 -0.00243903 -0.0856212 1.21077
47 0.784531 0 0 -0.00569152 -0.00165245 0.590112
48 0 0 0 0 0 0
49 1.36901 -15.4924 -12.9805 0.586731 1.01764 -0.0431032
time 5
0 1.99853 -1.30384 -7.29901 0 0 -0.526339
1 6.02794 0 0 -0.408674 1.32398 -0.291959
2 11.7344 0 0 -0.00140287 0 -1.98888
3 8.81138 -0.000450134 -0.000110149 -1.35588 0 0.000157526
4 5.77839 0.000286102 0 -0.908438 0 0.000100903
5 2.23164 -0.000328064 -0.000362873 -0.44744 0 0
6 11.4725 0 0 -1.36097 -0.108447 0.224072
7 0.61522 -0.993091 -0.810699 3.08525 0.508281 -0.6207
8 2.24752 0 0 0.0844928 0.0385961 0.13486
9 1.11936 0 0 0.133106 0.156468 -0.123883
10 3.71348 -0.102641 0.102192 1.60288 0.659142 0.0778154
11 1.72615 0 0 0.00469629 -0.00546433 -0.854302
12 1.21113 0 0 0.00484957 0.0115284 -0.0498674
13 3.59919 -1.06012 0.0708885 1.7363 0.46262 0.103659
14 1.66069 0 0 0.028332 -0.01499 -0.965634
15 1.167 0 0 -0.0138719 0.00546455 -0.233065
16 2.18853 0.501039 0.0576591 1.57723 0.00545926 0.0878338
17 1.29609 0 0 0.0430963 -0.00268559 -0.601643
18 1.62202 0.000715256 -0.000471115 -0.0999467 0.0431168 -0.883141
19 1.22241 0 0 0.0218065 0.0259768 -0.0916016
20 1.76707 1.27612 0.0366421 1.57613 0.0493748 0.0534966
21 1.55588 0 0 -0.109159 0.0463947 -0.610233
22 1.24273 0 0 -0.000597615 0 -0.594839
23 0.784523 0 0 0.000505653 -0.00604169 -0.0735482
24 -2.00579 -1.54427 -7.2488 -0.000932534 0 -2.53187
25 6.02794 0 0 -0.816182 1.0488 -0.47482
26 11.7344 0 0 0.00140263 0 2.336
27 8.81167 0 0 -0.975382 0 0
28 5.77884 0 0 -0.653506 0 0
29 2.23249 0 0 -0.321876 0 0
30 11.4725 0 0 -0.0963496 -0.991699 -1.16801
31 0.615812 0.994372 -0.809165 -3.01714 0.444038 0.335036
32 2.24752 0 0 -0.315217 0.222696 0.223646
33 1.11936 0 0 0.00694594 0.302296 1.09509
34 3.71349 0.102639 0.102191 -1.86859 1.17486 -0.428475
35 1.72615 0 0 -0.024454 0.00494014 1.59024
36 1.21112 0 0 0.000709567 0.017622 0.637703
37 3.5992 1.06012 0.0708885 -1.87203 0.776975 -0.315065
38 1.66069 0 0 0.0752356 0.0200822 1.53336
39 1.16699 0 0 -0.0284737 -0.00637306 0.987226
40 2.18853 -0.50104 0.0576582 -1.57862 -0.051578 -0.0608243
41 1.29609 0 0 0.0695049 0.182432 1.26119
42 1.62201 -0.000713348 -0.000470638 -0.0215332 -0.0111427 1.52638
43 1.22241 0 0 0.000590888 0.00644226 0.784235
44 1.76707 -1.27612 0.0366411 -1.57709 -0.0287248 -0.0202618
45 1.55588 0 0 0.142902 0.171156 1.29126
46 1.24273 0 0 -0.00243896 -0.0856212 1.21077
47 0.784531 0 0 -0.00569168 -0.00165247 0.590112
48 0 0 0 0 0 0
49 1.28487 -16.1347 -12.1094 0.433381 1.05479 -0.144605
time 6
0 1.97719 -1.39533 -7.28133 0 0 -0.526339
1 6.02794 0 0 -0.742311 1.2709 -0.565575
2 11.7344 0 0 -0.00140289 0 -1.96142
3 8.81138 -0.000450134 -0.00011301 -1.37857 0 0.000157518
4 5.77839 0.000286102 0 -0.923642 0 0.000100875
5 2.23163 -0.000328064 -0.000365734 -0.454928 0 0
6 11.4725 0 0 -1.38313 -0.0939647 0.222561
7 0.61522 -0.993091 -0.810699 3.08763 0.508413 -0.614178
8 2.24752 0 0 0.0848895 0.0384492 0.13993
9 1.11936 0 0 0.147428 0.150138 -0.051638
10 3.71348 -0.102641 0.102192 1.60212 0.616079 0.0762092
11 1.72615 0 0 0.00432498 -0.00557321 -0.811221
12 1.21114 0 0 0.00569635 0.0112874 -0.00678219
13 3.59919 -1.06012 0.0708885 1.73322 0.409421 0.0950147
14 1.66069 0 0 0.0279704 -0.0164478 -0.922606
15 1.167 0 0 -0.0134413 0.00581676 -0.189988
16 2.18853 0.501039 0.0576591 1.57723 0.0205805 0.0879463
17 1.29609 0 0 0.0430106 -0.0043133 -0.558588
18 1.62202 0.000713348 -0.000470638 -0.0980191 0.0475888 -0.840299
19 1.22241 0 0 0.023268 0.0251218 -0.0484992
20 1.76707 1.27612 0.0366421 1.57614 0.064496 0.0536003
21 1.55588 0 0 -0.107489 0.0510834 -0.567367
22 1.24273 0 0 -0.000594773 0 -0.551757
23 0.784524 0 0 0.000588376 -0.00598298 -0.0789342
24 -1.98191 -1.55236 -7.2488 -0.000932534 0 -2.53187
25 6.02794 0 0 -0.565043 1.10403 -0.353099
26 11.7344 0 0 0.00140264 0 2.33162
27 8.81167 0 0 -0.922469 0 0
28 5.77884 0 0 -0.618054 0 0
29 2.23249 0 0 -0.304415 0 0
30 11.4725 0 0 -0.325467 -0.882975 -1.04896
31 0.615812 0.994372 -0.809165 -3.01714 0.444038 0.335036
32 2.24752 0 0 -0.315217 0.222696 0.223646
33 1.11936 0 0 0.00694596 0.302296 1.09509
34 3.71348 0.102639 0.102192 -1.86859 1.17486 -0.428474
35 1.72615 0 0 -0.0244541 0.00494012 1.59024
36 1.21112 0 0 0.000709635 0.0176219 0.637703
37 3.5992 1.06012 0.0708876 -1.87203 0.776974 -0.315066
38 1.66069 0 0 0.0752356 0.0200823 1.53336
39 1.16699 0 0 -0.0284739 -0.00637298 0.987226
40 2.18853 -0.50104 0.0576591 -1.57862 -0.0515781 -0.0608243
41 1.29609 0 0 0.0695049 0.182432 1.26119
42 1.62202 -0.000712395 -0.000469208 -0.021533 -0.0111427 1.52638
43 1.22241 0 0 0.000590761 0.00644234 0.784235
44 1.76707 -1.27612 0.0366411 -1.57709 -0.0287247 -0.0202616
45 1.55587 0 0 0.142902 0.171156 1.29126
46 1.24273 0 0 -0.00243903 -0.0856211 1.21077
47 0.784532 0 0 -0.00569164 -0.00165254 0.590112
48 0 0 0 0 0 0
49 1.19559 -16.7857 -11.2348 0.284756 1.09008 -0.242423
time 7
0 1.9603 -1.46834 -7.26732 0 0 -0.526339
1 6.02794 0 0 -0.94732 1.19986 -0.721538
2 11.7344 0 0 -0.0014029 0 -1.9275
3 8.81138 -0.000452042 -0.000112057 -1.40764 0 0.000157914
4 5.77839 0.000286102 0 -0.943121 0 0.000101033
5 2.23163 -0.000329971 -0.000364304 -0.464522 0 0
6 11.4725 0 0 -1.41147 -0.0948138 0.223314
7 0.615219 -0.993091 -0.810699 3.09264 0.508717 -0.6015
8 2.24752 0 0 0.0852813 0.0392736 0.137531
9 1.11936 0 0 0.157987 0.148086 0.000184864
10 3.71348 -0.102642 0.10219 1.60164 0.588024 0.0751851
11 1.72615 0 0 0.00412845 -0.00564753 -0.783154
12 1.21113 0 0 0.0063643 0.0112181 0.02129
13 3.59919 -1.06012 0.0708885 1.73147 0.368287 0.0888622
14 1.66069 0 0 0.0277254 -0.0173267 -0.894567
15 1.167 0 0 -0.013176 0.00619793 -0.16192
16 2.18852 0.501039 0.0576591 1.57723 0.0348254 0.0880186
17 1.29609 0 0 0.0429154 -0.00541181 -0.530539
18 1.62202 0.000713348 -0.000471115 -0.0969712 0.0503075 -0.812344
19 1.22241 0 0 0.0236874 0.0243416 -0.0204004
20 1.76707 1.27612 0.0366402 1.57615 0.0787419 0.0536474
21 1.55588 0 0 -0.106228 0.054098 -0.539432
22 1.24274 0 0 -0.000592466 0 -0.523689
23 0.784524 0 0 0.000729188 -0.0060194 -0.0897998
24 -1.9629 -1.55843 -7.2488 -0.000932534 0 -2.53187
25 6.02794 0 0 -0.263179 1.13271 -0.159376
26 11.7344 0 0 0.00140272 0 2.3163
27 8.81167 0 0 -0.872121 0 0
28 5.77884 0 0 -0.584321 0 0
29 2.23249 0 0 -0.2878 0 0
30 11.4725 0 0 -0.479256 -0.761516 -0.996495
31 0.615811 0.994371 -0.809165 -3.01714 0.444037 0.335036
32 2.24752 0 0 -0.315217 0.222696 0.223646
33 1.11936 0 0 0.00694596 0.302296 1.09509
34 3.71349 0.102639 0.10219 -1.86859 1.17486 -0.428475
35 1.72615 0 0 -0.024454 0.00494018 1.59024
36 1.21112 0 0 0.000709596 0.0176219 0.637703
37 3.5992 1.06012 0.0708876 -1.87203 0.776974 -0.315065
38 1.66069 0 0 0.0752356 0.0200822 1.53336
39 1.16699 0 0 -0.0284737 -0.00637294 0.987226
40 2.18853 -0.50104 0.0576591 -1.57862 -0.0515781 -0.0608243
41 1.29609 0 0 0.069505 0.182432 1.26119
42 1.62201 -0.000712395 -0.0004704 -0.0215333 -0.0111427 1.52638
43 1.2224 0 0 0.000590906 0.00644238 0.784236
44 1.76707 -1.27612 0.0366411 -1.57709 -0.0287248 -0.0202618
45 1.55587 0 0 0.142902 0.171156 1.29126
46 1.24273 0 0 -0.00243902 -0.0856213 1.21077
47 0.784531 0 0 -0.00569154 -0.00165263 0.590112
48 0 0 0 0 0 0
49 1.10394 -17.4189 -10.3855 0.14241 1.12315 -0.335209
time 8
0 1.94802 -1.52179 -7.25713 0 0 -0.526339
1 6.02794 0 0 -1.06949 1.12721 -0.803974
2 11.7344 0 0 -0.00140287 0 -1.89072
3 8.81138 -0.000450134 -0.000110626 -1.43813 0 0.000157654
4 5.77839 0.000286102 0 -0.963544 0 0.000100696
5 2.23163 -0.000328064 -0.00036335 -0.474582 0 0
6 11.4725 0 0 -1.44111 -0.107832 0.225232
7 0.615218 -0.993091 -0.810699 3.10069 0.509149 -0.581908
8 2.24752 0 0 0.0856339 0.0412532 0.125959
9 1.11936 0 0 0.163598 0.15167 0.0234098
10 3.71348 -0.102641 0.102192 1.60134 0.580428 0.0748501
11 1.72615 0 0 0.00419535 -0.00571355 -0.77555
12 1.21114 0 0 0.00678496 0.0113939 0.028898
13 3.59919 -1.06012 0.0708885 1.73065 0.344854 0.0854617
14 1.66069 0 0 0.0275517 -0.0173237 -0.886943
15 1.167 0 0 -0.0131785 0.0066637 -0.154311
16 2.18852 0.501039 0.0576591 1.57724 0.0470957 0.0880523
17 1.29609 0 0 0.0428454 -0.00585996 -0.522947
18 1.62202 0.000715256 -0.000470877 -0.0970564 0.0506063 -0.804673
19 1.22241 0 0 0.0228018 0.0236663 -0.012756
20 1.76707 1.27612 0.0366421 1.57616 0.0910135 0.0536443
21 1.55588 0 0 -0.105599 0.0548752 -0.531859
22 1.24273 0 0 -0.000591644 0 -0.516086
23 0.784523 0 0 0.000930972 -0.00617301 -0.106829
24 -1.94902 -1.56262 -7.2488 -0.000932534 0 -2.53187
25 6.02794 0 0 0.0359148 1.12454 0.0513927
26 11.7344 0 0 0.00140281 0 2.29157
27 8.81167 0 0 -0.823669 0 0
28 5.77884 0 0 -0.551858 0 0
29 2.23249 0 0 -0.271811 0 0
30 11.4725 0 0 -0.584098 -0.640836 -0.976798
31 0.615812 0.994372 -0.809166 -3.01714 0.444038 0.335036
32 2.24752 0 0 -0.315217 0.222696 0.223646
33 1.11936 0 0 0.00694599 0.302296 1.09509
34 3.71348 0.102639 0.102191 -1.86859 1.17486 -0.428475
35 1.72615 0 0 -0.0244542 0.0049402 1.59024
36 1.21112 0 0 0.000709596 0.0176219 0.637703
37 3.5992 1.06012 0.0708876 -1.87203 0.776974 -0.315066
38 1.66069 0 0 0.0752356 0.0200823 1.53336
39 1.16699 0 0 -0.0284737 -0.00637309 0.987226
40 2.18853 -0.50104 0.0576582 -1.57862 -0.0515781 -0.0608243
41 1.29609 0 0 0.0695049 0.182432 1.26119
42 1.62202 -0.000714302 -0.000470161 -0.0215331 -0.0111427 1.52638
43 1.22241 0 0 0.000590938 0.0064423 0.784236
44 1.76707 -1.27612 0.0366411 -1.57709 -0.0287249 -0.0202618
45 1.55587 0 0 0.142901 0.171156 1.29126
46 1.24273 0 0 -0.00243898 -0.0856213 1.21077
47 0.784532 0 0 -0.0056916 -0.00165252 0.590112
48 0 0 0 0 0 0
49 1.01268 -18.008 -9.59035 0.0078944 1.15361 -0.421614
time 9
0 1.94053 -1.55464 -7.2509 0 0 -0.526339
1 6.02794 0 0 -1.14399 1.06202 -0.846743
2 11.7344 0 0 -0.00140277 0 -1.85515
3 8.81138 -0.000448227 -0.00011158 -1.46642 0 0.00015772
4 5.77839 0.00028801 0 -0.982504 0 0.000100807
5 2.23163 -0.000328064 -0.000364304 -0.48392 0 0
6 11.4725 0 0 -1.46857 -0.129794 0.227893
7 0.615219 -0.993091 -0.810699 3.11234 0.509604 -0.554635
8 2.24752 0 0 0.0858799 0.0445494 0.103509
9 1.11936 0 0 0.16297 0.16219 0.00982052
10 3.71348 -0.102641 0.102192 1.60123 0.598741 0.0753615
11 1.72615 0 0 0.00459682 -0.0057771 -0.793861
12 1.21114 0 0 0.00688175 0.0118741 0.0105912
13 3.59919 -1.06012 0.0708885 1.73047 0.344737 0.0852134
14 1.66069 0 0 0.02745 -0.0161885 -0.905171
15 1.167 0 0 -0.0135279 0.00723412 -0.172612
16 2.18852 0.50104 0.0576591 1.57725 0.0562936 0.0880553
17 1.29609 0 0 0.0428182 -0.00549724 -0.541263
18 1.62202 0.000715256 -0.000471354 -0.0985436 0.047851 -0.822692
19 1.22241 0 0 0.0203372 0.0231441 -0.0310174
20 1.76707 1.27612 0.0366421 1.57617 0.100212 0.0536083
21 1.55588 0 0 -0.105803 0.0528327 -0.550075
22 1.24274 0 0 -0.000593421 0 -0.534399
23 0.784523 0 0 0.00119442 -0.00646765 -0.130705
24 -1.9405 -1.56504 -7.2488 -0.000932534 0 -2.53187
25 6.02794 0 0 0.274677 1.08793 0.218015
26 11.7344 0 0 0.00140273 0 2.26148
27 8.81167 0 0 -0.778187 0 0
28 5.77884 0 0 -0.521385 0 0
29 2.23249 0 0 -0.256802 0 0
30 11.4725 0 0 -0.657452 -0.527031 -0.968266
31 0.615812 0.994372 -0.809165 -3.01714 0.444038 0.335036
32 2.24752 0 0 -0.315217 0.222696 0.223646
33 1.11936 0 0 0.00694599 0.302296 1.09509
34 3.71348 0.10264 0.10219 -1.86859 1.17486 -0.428475
35 1.72615 0 0 -0.0244541 0.00494021 1.59024
36 1.21112 0 0 0.000709569 0.017622 0.637703
37 3.5992 1.06012 0.0708876 -1.87203 0.776974 -0.315065
38 1.66069 0 0 0.0752355 0.0200822 1.53336
39 1.16699 0 0 -0.0284737 -0.00637317 0.987226
40 2.18853 -0.501039 0.0576591 -1.57862 -0.0515781 -0.0608242
41 1.29609 0 0 0.0695048 0.182432 1.26119
42 1.62201 -0.000712395 -0.000469446 -0.0215332 -0.0111427 1.52638
43 1.22241 0 0 0.00059084 0.00644237 0.784236
44 1.76707 -1.27612 0.0366402 -1.57709 -0.0287248 -0.0202618
45 1.55588 0 0 0.142902 0.171156 1.29126
46 1.24273 0 0 -0.00243903 -0.0856211 1.21077
47 0.784532 0 0 -0.00569166 -0.0016525 0.590112
48 0 0 0 0 0 0
49 0.924585 -18.5265 -8.87832 -0.117237 1.18113 -0.500291
time 10
0 1.938 -1.56582 -7.2488 0 0 -0.526339
1 6.02794 0 0 -1.18989 1.00948 -0.867894
2 11.7344 0 0 -0.00140282 0 -1.82524
3 8.81138 -0.000448227 -0.000112534 -1.49009 0 0.000157531
4 5.77839 0.000286102 0 -0.998361 0 0.000100463
5 2.23163 -0.000328064 -0.000365257 -0.49173 0 0
6 11.4725 0 0 -1.49148 -0.157911 0.231187
7 0.615217 -0.993091 -0.810701 3.12818 0.509888 -0.518909
8 2.24752 0 0 0.0858994 0.0492847 0.068465
9 1.11936 0 0 0.154476 0.180817 -0.048896
10 3.71348 -0.102641 0.10219 1.60151 0.648409 0.0769829
11 1.72615 0 0 0.00536516 -0.00579689 -0.843537
12 1.21113 0 0 0.0065561 0.012687 -0.0390827
13 3.59919 -1.06012 0.0708866 1.73111 0.373503 0.0888883
14 1.66069 0 0 0.0275265 -0.0137999 -0.954707
15 1.167 0 0 -0.01425 0.00784016 -0.222275
16 2.18852 0.501039 0.0576572 1.57725 0.0613202 0.0880378
17 1.29609 0 0 0.0428166 -0.00406885 -0.590933
18 1.62202 0.000713348 -0.000471115 -0.101735 0.0414859 -0.871829
19 1.22241 0 0 0.0159957 0.0228685 -0.0806365
20 1.76707 1.27612 0.0366402 1.57617 0.10524 0.0535594
21 1.55588 0 0 -0.106988 0.0473422 -0.599494
22 1.24273 0 0 -0.000596979 0 -0.584077
23 0.784523 0 0 0.00151716 -0.00692767 -0.162111
24 -1.93761 -1.56582 -7.2488 -0.000932534 0 -2.53187
25 6.02794 0 0 0.437708 1.04062 0.320871
26 11.7344 0 0 0.00140266 0 2.2314
27 8.81167 0 0 -0.737443 0 0
28 5.77884 0 0 -0.494087 0 0
29 2.23249 0 0 -0.243356 0 0
30 11.4725 0 0 -0.709507 -0.422468 -0.95956
31 0.615812 0.994372 -0.809167 -3.01714 0.444038 0.335036
32 2.24752 0 0 -0.315217 0.222696 0.223645
33 1.11936 0 0 0.00694599 0.302296 1.09509
34 3.71349 0.102638 0.10219 -1.86859 1.17486 -0.428475
35 1.72615 0 0 -0.0244541 0.00494014 1.59024
36 1.21112 0 0 0.000709521 0.017622 0.637703
37 3.5992 1.06012 0.0708876 -1.87203 0.776974 -0.315066
38 1.66069 0 0 0.0752356 0.0200823 1.53336
39 1.16699 0 0 -0.0284738 -0.00637309 0.987226
40 2.18853 -0.50104 0.0576582 -1.57862 -0.0515781 -0.0608243
41 1.29609 0 0 0.0695048 0.182431 1.26119
42 1.62201 -0.000711441 -0.000470161 -0.0215331 -0.0111426 1.52638
43 1.22241 0 0 0.000590982 0.00644225 0.784236
44 1.76707 -1.27612 0.0366411 -1.57709 -0.0287248 -0.0202617
45 1.55587 0 0 0.142902 0.171156 1.29126
46 1.24273 0 0 -0.002439 -0.0856212 1.21077
47 0.784532 0 0 -0.00569159 -0.00165249 0.590112
48 0 0 0 0 0 0
49 0.842423 -18.9479 -8.27827 -0.231432 1.20532 -0.569891
time 11
0 1.938 -1.56582 -7.2488 0 0 -0.526339
1 6.02794 0 0 -1.21736 0.972189 -0.877033
2 11.7344 0 0 -0.00140296 0 -1.80474
3 8.81138 -0.000450134 -0.000112057 -1.50753 0 0.000157554
4 5.77839 0.000286102 0 -1.01004 0 0.000100594
5 2.23163 -0.000329971 -0.000364304 -0.497485 0 0
6 11.4725 0 0 -1.50832 -0.190104 0.235131
7 0.615219 -0.993091 -0.810699 -3.12935 0.509534 -0.46353
8 2.24752 0 0 0.0854188 0.0568623 0.00861366
9 1.11936 0 0 0.132789 0.213987 -0.180375
10 3.71348 -0.102641 0.102192 1.60312 0.750548 0.0808836
11 1.72615 0 0 0.00665748 -0.0056215 -0.945703
12 1.21114 0 0 0.00554532 0.0140209 -0.14125
13 3.59919 -1.06012 0.0708885 1.73411 0.446304 0.0995228
14 1.66068 0 0 0.0282196 -0.00960884 -1.05668
15 1.167 0 0 -0.0154376 0.00836661 -0.324431
16 2.18852 0.501039 0.0576591 1.57725 0.062216 0.0880005
17 1.29609 0 0 0.0427124 -0.000623604 -0.693062
18 1.62202 0.000713348 -0.000471354 -0.10802 0.0291655 -0.973073
19 1.22241 0 0 0.00808939 0.022982 -0.182724
20 1.76707 1.27612 0.0366421 1.57617 0.106137 0.053499
21 1.55587 0 0 -0.109546 0.035939 -0.701097
22 1.24274 0 0 -0.00059963 0 -0.686248
23 0.784523 0 0 0.00197944 -0.0077223 -0.21089
24 -1.93761 -1.56582 -7.2488 -0.000932534 0 -2.53187
25 6.02794 0 0 0.544811 0.99529 0.377959
26 11.7344 0 0 0.00140272 0 2.20309
27 8.81167 0 0 -0.703329 0 0
28 5.77884 0 0 -0.47123 0 0
29 2.23249 0 0 -0.232099 0 0
30 11.4725 0 0 -0.746717 -0.328721 -0.947052
31 0.615812 0.994372 -0.809165 -3.01714 0.444037 0.335036
32 2.24752 0 0 -0.315217 0.222696 0.223646
33 1.11936 0 0 0.00694599 0.302296 1.09509
34 3.71349 0.102639 0.102191 -1.86859 1.17486 -0.428475
35 1.72615 0 0 -0.0244541 0.00494015 1.59024
36 1.21112 0 0 0.000709595 0.0176218 0.637702
37 3.5992 1.06012 0.0708885 -1.87203 0.776974 -0.315065
38 1.66069 0 0 0.0752356 0.0200823 1.53336
39 1.16699 0 0 -0.0284737 -0.00637304 0.987226
40 2.18853 -0.50104 0.0576582 -1.57862 -0.051578 -0.0608243
41 1.29609 0 0 0.0695049 0.182432 1.26119
42 1.62201 -0.000714302 -0.000470161 -0.0215333 -0.0111427 1.52638
43 1.22241 0 0 0.000591025 0.0064422 0.784235
44 1.76707 -1.27612 0.0366402 -1.57709 -0.0287248 -0.0202617
45 1.55587 0 0 0.142902 0.171156 1.29126
46 1.24273 0 0 -0.00243901 -0.0856212 1.21077
47 0.784531 0 0 -0.00569166 -0.00165261 0.590112
48 0 0 0 0 0 0
49 0.763096 -19.2677 -7.80937 -0.333137 1.22583 -0.629065
time 12
0 1.938 -1.56582 -7.2488 0 0 -0.526339
1 6.02794 0 0 -1.23316 0.948444 -0.880552
2 11.7344 0 0 -0.00140281 0 -1.79324
3 8.81138 -0.000450134 -0.000110626 -1.51792 0 0.000157874
4 5.77839 0.000286102 0 -1.01701 0 0.000100814
5 2.23163 -0.000329971 -0.00036335 -0.500914 0 0
6 11.4725 0 0 -1.51826 -0.224625 0.239198
7 0.615219 -0.993091 -0.810701 -3.0933 0.507371 -0.389638
8 2.24752 0 0 0.084084 0.0666412 -0.0735681
9 1.11936 0 0 0.0982146 0.258646 -0.37314
10 3.71348 -0.102641 0.10219 1.60803 0.896955 0.0883058
11 1.72615 0 0 0.00807903 -0.00500994 -1.09219
12 1.21113 0 0 0.00387661 0.0155764 -0.287737
13 3.59919 -1.06012 0.0708885 1.74233 0.554416 0.118723
14 1.66069 0 0 0.0303064 -0.00462106 -1.20303
15 1.167 0 0 -0.0165515 0.00832963 -0.470915
16 2.18853 0.501039 0.0576591 1.57726 0.0606279 0.0879482
17 1.29609 0 0 0.0421553 0.00510859 -0.839447
18 1.62202 0.000715256 -0.000470877 -0.117282 0.012264 -1.11843
19 1.22241 0 0 -0.00316911 0.0236454 -0.32911
20 1.76707 1.27612 0.0366402 1.57618 0.104549 0.0534269
21 1.55588 0 0 -0.112816 0.019291 -0.84669
22 1.24273 0 0 -0.000592663 0 -0.832732
23 0.784525 0 0 0.00253937 -0.00883839 -0.276013
24 -1.93761 -1.56582 -7.2488 -0.000932534 0 -2.53187
25 6.02794 0 0 0.617674 0.956243 0.410595
26 11.7344 0 0 0.00140263 0 2.17535
27 8.81167 0 0 -0.676684 0 0
28 5.77884 0 0 -0.453379 0 0
29 2.23249 0 0 -0.223306 0 0
30 11.4725 0 0 -0.772946 -0.246792 -0.930151
31 0.615812 0.994372 -0.809165 -3.01714 0.444038 0.335036
32 2.24752 0 0 -0.315217 0.222696 0.223646
33 1.11936 0 0 0.006946 0.302296 1.09509
34 3.71348 0.102639 0.102191 -1.86859 1.17486 -0.428475
35 1.72615 0 0 -0.0244541 0.00494016 1.59024
36 1.21112 0 0 0.00070954 0.0176219 0.637703
37 3.5992 1.06012 0.0708876 -1.87203 0.776974 -0.315066
38 1.66069 0 0 0.0752355 0.0200823 1.53336
39 1.16699 0 0 -0.0284738 -0.00637304 0.987226
40 2.18853 -0.50104 0.0576582 -1.57862 -0.0515781 -0.0608245
41 1.29609 0 0 0.0695049 0.182432 1.26119
42 1.62201 -0.000711441 -0.000469685 -0.0215332 -0.0111426 1.52638
43 1.22241 0 0 0.000590973 0.00644238 0.784236
44 1.76707 -1.27612 0.0366411 -1.57709 -0.0287248 -0.020262
45 1.55587 0 0 0.142902 0.171156 1.29126
46 1.24273 0 0 -0.002439 -0.0856212 1.21077
47 0.784532 0 0 -0.00569163 -0.00165251 0.590112
48 0 0 0 0 0 0
49 0.682515 -19.5077 -7.46443 -0.4208 1.2423 -0.676467
time 13
0 1.938 -1.56582 -7.2488 0 0 -0.526339
1 6.02794 0 0 -1.24092 0.936067 -0.881829
2 11.7344 0 0 -0.00140283 0 -1.78974
3 8.81138 -0.000450134 -0.000112534 -1.52084 0 0.000157972
4 5.77839 0.000286102 0 -1.01896 0 0.000100823
5 2.23163 -0.000328064 -0.000364304 -0.501876 0 0
6 11.4725 0 0 -1.52078 -0.260211 0.242569
7 0.61522 -0.993091 -0.810699 -3.05503 0.503035 -0.315133
8 2.24752 0 0 0.0820186 0.07593 -0.157702
9 1.11936 0 0 0.058953 0.302144 -0.576398
10 3.71348 -0.102641 0.102192 1.61825 1.0491 0.10028
11 1.72615 0 0 0.00900196 -0.00400794 -1.24448
12 1.21114 0 0 0.00198866 0.016786 -0.440046
13 3.59919 -1.06012 0.0708885 1.7572 0.667672 0.144606
14 1.66069 0 0 0.0339507 -0.000451649 -1.35532
15 1.167 0 0 -0.016893 0.00751226 -0.623227
16 2.18853 0.501039 0.0576611 1.57726 0.0578687 0.0878935
17 1.29609 0 0 0.0409365 0.0119333 -0.991597
18 1.62202 0.000713348 -0.000470877 -0.127425 -0.0045556 -1.26975
19 1.2224 0 0 -0.0151264 0.0247757 -0.48132
20 1.76707 1.27612 0.0366421 1.57618 0.101791 0.053356
21 1.55588 0 0 -0.115591 0.00168373 -0.99799
22 1.24273 0 0 -0.00057195 -0.000180426 -0.98503
23 0.784523 0 0 0.00304469 -0.0100157 -0.341864
24 -1.93761 -1.56582 -7.2488 -0.000932534 0 -2.53187
25 6.02794 0 0 0.665294 0.926111 0.425958
26 11.7344 0 0 0.00140262 0 2.15045
27 8.81167 0 0 -0.657067 0 0
28 5.77884 0 0 -0.440235 0 0
29 2.23249 0 0 -0.216832 0 0
30 11.4725 0 0 -0.790126 -0.17668 -0.908442
31 0.615813 0.994371 -0.809165 -3.01714 0.444038 0.335036
32 2.24752 0 0 -0.315217 0.222696 0.223646
33 1.11936 0 0 0.00694597 0.302296 1.09509
34 3.71349 0.102639 0.102191 -1.86859 1.17486 -0.428475
35 1.72615 0 0 -0.0244539 0.00494021 1.59024
36 1.21112 0 0 0.00070937 0.0176219 0.637703
37 3.5992 1.06012 0.0708885 -1.87203 0.776974 -0.315066
38 1.66069 0 0 0.0752355 0.0200823 1.53336
39 1.16699 0 0 -0.0284737 -0.00637319 0.987226
40 2.18853 -0.50104 0.0576596 -1.57862 -0.0515781 -0.0608243
41 1.29609 0 0 0.0695048 0.182432 1.26119
42 1.62201 -0.000715256 -0.000470161 -0.0215332 -0.0111427 1.52638
43 1.22241 0 0 0.000591005 0.0064423 0.784236
44 1.76707 -1.27612 0.0366416 -1.57709 -0.0287247 -0.0202618
45 1.55587 0 0 0.142902 0.171156 1.29126
46 1.24273 0 0 -0.00243891 -0.0856211 1.21077
47 0.784531 0 0 -0.00569158 -0.00165254 0.590112
48 0 0 0 0 0 0
49 0.601967 -19.6813 -7.23286 -0.492868 1.25436 -0.710748
time 14
0 1.938 -1.56582 -7.2488 0 0 -0.526339
1 6.02794 0 0 -1.2427 0.932737 -0.882961
2 11.7344 0 0 -0.00140293 0 -1.79238
3 8.81138 -0.000452042 -0.00011158 -1.51596 0 0.00015801
4 5.77839 0.000286102 0 -1.01569 0 0.000100765
5 2.23163 -0.000328064 -0.000363827 -0.500266 0 0
6 11.4725 0 0 -1.51539 -0.296077 0.243864
7 0.615219 -0.993091 -0.810699 -3.02433 0.498088 -0.257781
8 2.24752 0 0 0.0799645 0.0826427 -0.223286
9 1.11936 0 0 0.0261048 0.33402 -0.737796
10 3.71348 -0.102641 0.102192 1.6333 1.1685 0.1161
11 1.72615 0 0 0.00930303 -0.00301755 -1.3641
12 1.21114 0 0 0.000444723 0.0174431 -0.559671
13 3.59919 -1.06012 0.0708885 1.77504 0.75653 0.170707
14 1.66069 0 0 0.0379507 0.00225926 -1.475
15 1.167 0 0 -0.0165134 0.00641354 -0.742857
16 2.18852 0.501039 0.0576591 1.57726 0.0552507 0.0878496
17 1.29609 0 0 0.0394414 0.0178353 -1.11107
18 1.62202 0.000713348 -0.000471115 -0.135835 -0.0173053 -1.3887
19 1.22241 0 0 -0.0247728 0.0259185 -0.600874
20 1.76707 1.27612 0.0366402 1.57618 0.0991733 0.0533011
21 1.55588 0 0 -0.117288 -0.0122916 -1.11679
22 1.24273 0 0 -0.000546189 -0.000247419 -1.10464
23 0.784521 0 0 0.00339537 -0.0109596 -0.392825
24 -1.93761 -1.56582 -7.2488 -0.000932534 0 -2.53187
25 6.02794 0 0 0.694573 0.905393 0.429818
26 11.7344 0 0 0.0014027 0 2.12782
27 8.81167 0 0 -0.644088 0 0
28 5.77884 0 0 -0.431539 0 0
29 2.23249 0 0 -0.212549 0 0
30 11.4725 0 0 -0.799413 -0.118293 -0.880762
31 0.615814 0.994372 -0.809165 -3.01714 0.444038 0.335036
32 2.24752 0 0 -0.315217 0.222696 0.223646
33 1.11936 0 0 0.00694599 0.302296 1.09509
34 3.71349 0.102639 0.102191 -1.86859 1.17486 -0.428475
35 1.72615 0 0 -0.0244542 0.00494011 1.59024
36 1.21112 0 0 0.000709625 0.0176219 0.637703
37 3.5992 1.06012 0.070889 -1.87203 0.776974 -0.315066
38 1.66069 0 0 0.0752356 0.0200822 1.53336
39 1.16699 0 0 -0.0284737 -0.00637316 0.987226
40 2.18853 -0.50104 0.0576596 -1.57862 -0.051578 -0.0608244
41 1.29609 0 0 0.0695049 0.182432 1.26119
42 1.62201 -0.000714302 -0.000470161 -0.0215333 -0.0111426 1.52638
43 1.22241 0 0 0.000590947 0.00644217 0.784235
44 1.76707 -1.27612 0.0366416 -1.57709 -0.0287247 -0.020262
45 1.55588 0 0 0.142901 0.171156 1.29126
46 1.24273 0 0 -0.00243903 -0.0856212 1.21077
47 0.784531 0 0 -0.00569164 -0.00165254 0.590112
48 0 0 0 0 0 0
49 0.522738 -19.802 -7.10403 -0.547788 1.26165 -0.73056
time 15
0 1.938 -1.56582 -7.2488 0 0 -0.526339
1 6.02794 0 0 -1.23976 0.936183 -0.885403
2 11.7344 0 0 -0.00140273 0 -1.7989
3 8.81138 -0.000448227 -0.000111103 -1.50298 0 0.0001571
4 5.77839 0.00028801 0 -1.007 0 0.000100343
5 2.23163 -0.000328064 -0.000362873 -0.495984 0 0
6 11.4725 0 0 -1.50156 -0.33166 0.241632
7 0.615219 -0.993091 -0.810701 -3.01177 0.495695 -0.234867
8 2.24752 0 0 0.0790342 0.0852123 -0.249726
9 1.11936 0 0 0.0123645 0.346298 -0.803577
10 3.71348 -0.102641 0.10219 1.64264 1.21679 0.125601
11 1.72615 0 0 0.00931414 -0.00257705 -1.41252
12 1.21114 0 0 -0.000187713 0.0176351 -0.608104
13 3.59919 -1.06012 0.0708866 1.78425 0.792414 0.183162
14 1.66069 0 0 0.0398681 0.00324694 -1.52346
15 1.167 0 0 -0.0161866 0.00587245 -0.791292
16 2.18853 0.501039 0.0576591 1.57726 0.0540864 0.0878313
17 1.29609 0 0 0.038688 0.0203451 -1.15943
18 1.62202 0.000713348 -0.000471115 -0.139362 -0.0223653 -1.43689
19 1.22241 0 0 -0.028749 0.0264362 -0.649279
20 1.76707 1.27612 0.0366421 1.57618 0.098009 0.0532785
21 1.55588 0 0 -0.117851 -0.0179729 -1.16488
22 1.24273 0 0 -0.000533668 -0.000273633 -1.15307
23 0.784523 0 0 0.0035267 -0.011347 -0.413282
24 -1.93761 -1.56582 -7.2488 -0.000932534 0 -2.53187
25 6.02794 0 0 0.709347 0.894055 0.425066
26 11.7344 0 0 0.00140265 0 2.10768
27 8.81167 0 0 -0.636573 0 0
28 5.77884 0 0 -0.426504 0 0
29 2.23249 0 0 -0.210069 0 0
30 11.4725 0 0 -0.801404 -0.0714806 -0.846921
31 0.615813 0.994372 -0.809165 -3.01714 0.444037 0.335036
32 2.24752 0 0 -0.315217 0.222696 0.223646
33 1.11935 0 0 0.00694597 0.302296 1.09509
34 3.71349 0.102639 0.102191 -1.86859 1.17486 -0.428475
35 1.72615 0 0 -0.024454 0.00494025 1.59024
36 1.21112 0 0 0.000709427 0.0176219 0.637703
37 3.5992 1.06012 0.0708885 -1.87203 0.776974 -0.315065
38 1.66069 0 0 0.0752355 0.0200822 1.53336
39 1.16699 0 0 -0.0284739 -0.00637309 0.987226
40 2.18853 -0.50104 0.0576591 -1.57862 -0.0515781 -0.0608243
41 1.29609 0 0 0.0695049 0.182432 1.26119
42 1.62201 -0.000711441 -0.000469208 -0.0215331 -0.0111426 1.52638
43 1.22241 0 0 0.00059097 0.00644222 0.784235
44 1.76707 -1.27612 0.0366411 -1.57709 -0.0287249 -0.0202618
45 1.55588 0 0 0.142902 0.171156 1.29126
46 1.24273 0 0 -0.00243921 -0.0856213 1.21077
47 0.784531 0 0 -0.00569147 -0.0016526 0.590112
48 0 0 0 0 0 0
49 0.446111 -19.883 -7.06733 -0.584007 1.26381 -0.734554
time 16
0 1.938 -1.56582 -7.2488 0 0 -0.526339
1 6.02794 0 0 -1.23403 0.943754 -0.887969
2 11.7344 0 0 -0.00140284 0 -1.80718
3 8.81138 -0.000452042 -0.000112534 -1.48211 0 0.000157831
4 5.77839 0.000284195 0 -0.993016 0 0.000100881
5 2.23163 -0.000331879 -0.000364304 -0.489097 0 0
6 11.4725 0 0 -1.47924 -0.364434 0.235058
7 0.615219 -0.993091 -0.810699 -3.01177 0.495695 -0.234867
8 2.24752 0 0 0.0790342 0.0852123 -0.249726
9 1.11936 0 0 0.0123644 0.346298 -0.803578
10 3.71348 -0.102641 0.102192 1.64264 1.21679 0.125601
11 1.72615 0 0 0.00931439 -0.00257707 -1.41252
12 1.21114 0 0 -0.000187684 0.0176352 -0.608104
13 3.59919 -1.06012 0.0708885 1.78425 0.792414 0.183162
14 1.66069 0 0 0.039868 0.0032469 -1.52346
15 1.167 0 0 -0.0161866 0.00587252 -0.791292
16 2.18852 0.50104 0.0576591 1.57726 0.0540863 0.0878313
17 1.29609 0 0 0.038688 0.0203452 -1.15943
18 1.62202 0.000715256 -0.000471473 -0.139362 -0.0223656 -1.43689
19 1.22241 0 0 -0.0287491 0.026436 -0.649279
20 1.76707 1.27612 0.0366421 1.57618 0.0980089 0.0532785
21 1.55588 0 0 -0.117851 -0.0179731 -1.16488
22 1.24273 0 0 -0.000533836 -0.000273458 -1.15307
23 0.784525 0 0 0.00352682 -0.0113472 -0.413282
24 -1.93761 -1.56582 -7.2488 -0.000932534 0 -2.53187
25 6.02794 0 0 0.712317 0.89126 0.41352
26 11.7344 0 0 0.00140273 0 2.08858
27 8.81167 0 0 -0.632896 0 0
28 5.77884 0 0 -0.42404 0 0
29 2.23249 0 0 -0.208856 0 0
30 11.4725 0 0 -0.795991 -0.0349442 -0.805024
31 0.615813 0.994373 -0.809165 -3.01714 0.444038 0.335036
32 2.24752 0 0 -0.315217 0.222696 0.223646
33 1.11935 0 0 0.00694597 0.302296 1.09509
34 3.71348 0.10264 0.102191 -1.86859 1.17486 -0.428475
35 1.72615 0 0 -0.0244539 0.00494025 1.59024
36 1.21112 0 0 0.000709475 0.0176219 0.637703
37 3.5992 1.06012 0.070888 -1.87203 0.776974 -0.315066
38 1.66069 0 0 0.0752356 0.0200822 1.53336
39 1.16699 0 0 -0.0284737 -0.00637311 0.987226
40 2.18853 -0.50104 0.0576596 -1.57862 -0.0515781 -0.0608243
41 1.29609 0 0 0.0695049 0.182432 1.26119
42 1.62201 -0.000712395 -0.000469685 -0.0215332 -0.0111427 1.52638
43 1.22241 0 0 0.000590882 0.00644232 0.784235
44 1.76707 -1.27612 0.0366406 -1.57709 -0.0287249 -0.0202618
45 1.55588 0 0 0.142902 0.171156 1.29126
46 1.24273 0 0 -0.00243902 -0.0856212 1.21077
47 0.784531 0 0 -0.00569153 -0.00165258 0.590112
48 0 0 0 0 0 0
49 0.373373 -19.9379 -7.11215 -0.600985 1.26005 -0.721152
time 17
0 1.938 -1.56582 -7.2488 0 0 -0.526339
1 6.02794 0 0 -1.2268 0.95412 -0.888577
2 11.7344 0 0 -0.0014028 0 -1.81696
3 8.81138 -0.000452042 -0.000112534 -1.45462 0 0.000158103
4 5.77839 0.000286102 0 -0.974595 0 0.000101055
5 2.23163 -0.000331879 -0.000364304 -0.480024 0 0
6 11.4725 0 0 -1.44959 -0.392275 0.22478
7 0.615219 -0.993091 -0.810699 -3.01177 0.495695 -0.234867
8 2.24752 0 0 0.0790342 0.0852122 -0.249726
9 1.11936 0 0 0.0123645 0.346298 -0.803578
10 3.71348 -0.102641 0.102192 1.64263 1.21679 0.1256
11 1.72615 0 0 0.00931412 -0.00257699 -1.41253
12 1.21114 0 0 -0.000187679 0.0176352 -0.608103
13 3.59919 -1.06012 0.0708885 1.78425 0.792414 0.183162
14 1.66069 0 0 0.0398681 0.00324713 -1.52346
15 1.167 0 0 -0.0161866 0.00587243 -0.791292
16 2.18852 0.501039 0.0576591 1.57726 0.0540863 0.0878313
17 1.29609 0 0 0.0386878 0.0203452 -1.15943
18 1.62202 0.000713348 -0.000470877 -0.139362 -0.0223655 -1.43689
19 1.22241 0 0 -0.0287491 0.0264361 -0.649279
20 1.76707 1.27612 0.0366402 1.57618 0.098009 0.0532787
21 1.55588 0 0 -0.117851 -0.0179731 -1.16488
22 1.24273 0 0 -0.000533816 -0.000273516 -1.15307
23 0.784523 0 0 0.00352665 -0.0113471 -0.413282
24 -1.93761 -1.56582 -7.2488 -0.000932534 0 -2.53187
25 6.02794 0 0 0.705563 0.895584 0.396467
26 11.7344 0 0 0.00140276 0 2.06955
27 8.81167 0 0 -0.63103 0 0
28 5.77884 0 0 -0.42279 0 0
29 2.23249 0 0 -0.20824 0 0
30 11.4725 0 0 -0.783677 -0.00689037 -0.754714
31 0.615812 0.994371 -0.809165 -3.01714 0.444038 0.335037
32 2.24752 0 0 -0.315217 0.222696 0.223646
33 1.11936 0 0 0.00694604 0.302296 1.09509
34 3.71348 0.102639 0.102191 -1.86859 1.17486 -0.428475
35 1.72615 0 0 -0.0244542 0.00494011 1.59024
36 1.21112 0 0 0.000709606 0.0176219 0.637703
37 3.5992 1.06012 0.0708885 -1.87203 0.776974 -0.315065
38 1.66069 0 0 0.0752356 0.0200822 1.53336
39 1.16699 0 0 -0.0284738 -0.006373 0.987226
40 2.18853 -0.50104 0.0576591 -1.57862 -0.0515781 -0.0608242
41 1.29609 0 0 0.0695049 0.182432 1.26119
42 1.62201 -0.000713348 -0.000469208 -0.0215333 -0.0111427 1.52638
43 1.22241 0 0 0.000590929 0.00644243 0.784236
44 1.76707 -1.27612 0.0366411 -1.57709 -0.0287247 -0.0202617
45 1.55587 0 0 0.142902 0.171156 1.29126
46 1.24273 0 0 -0.00243888 -0.0856211 1.21077
47 0.784532 0 0 -0.00569161 -0.00165244 0.590112
48 0 0 0 0 0 0
49 0.305809 -19.9799 -7.22788 -0.601036 1.25047 -0.691621
time 18
0 1.938 -1.56582 -7.2488 0 0 -0.526339
1 6.02794 0 0 -1.2186 0.965957 -0.887756
2 11.7344 0 0 -0.00140291 0 -1.82628
3 8.81138 -0.000450134 -0.000112057 -1.42178 0 0.000157771
4 5.77839 0.000286102 0 -0.952594 0 0.000100978
5 2.23163 -0.000328064 -0.000365257 -0.469188 0 0
6 11.4725 0 0 -1.41387 -0.415241 0.211088
7 0.615219 -0.993091 -0.810701 -3.01177 0.495695 -0.234867
8 2.24752 0 0 0.0790343 0.0852123 -0.249726
9 1.11936 0 0 0.0123645 0.346298 -0.803578
10 3.71348 -0.102641 0.10219 1.64264 1.21679 0.1256
11 1.72615 0 0 0.00931407 -0.00257711 -1.41252
12 1.21113 0 0 -0.000187708 0.0176354 -0.608104
13 3.59919 -1.06012 0.0708866 1.78425 0.792414 0.183162
14 1.66069 0 0 0.0398679 0.00324696 -1.52346
15 1.167 0 0 -0.0161867 0.00587223 -0.791292
16 2.18853 0.501039 0.0576591 1.57726 0.0540861 0.0878313
17 1.29609 0 0 0.0386878 0.0203451 -1.15943
18 1.62202 0.000713348 -0.000471234 -0.139362 -0.0223656 -1.43689
19 1.22241 0 0 -0.0287491 0.0264358 -0.649279
20 1.76707 1.27612 0.0366402 1.57618 0.098009 0.0532787
21 1.55588 0 0 -0.117851 -0.0179731 -1.16488
22 1.24273 0 0 -0.000533661 -0.0002737 -1.15307
23 0.784523 0 0 0.0035267 -0.011347 -0.413282
24 -1.93761 -1.56582 -7.2488 -0.000932534 0 -2.53187
25 6.02794 0 0 0.691755 0.904699 0.376418
26 11.7344 0 0 0.00140264 0 2.04837
27 8.81167 0 0 -0.629176 0 0
28 5.77884 0 0 -0.421548 0 0
29 2.23249 0 0 -0.207628 0 0
30 11.4725 0 0 -0.765457 0.0137589 -0.697258
31 0.615812 0.994371 -0.809165 -3.01714 0.444038 0.335036
32 2.24752 0 0 -0.315217 0.222696 0.223646
33 1.11936 0 0 0.00694594 0.302296 1.09509
34 3.71348 0.102638 0.102191 -1.86859 1.17486 -0.428475
35 1.72615 0 0 -0.0244541 0.00494022 1.59024
36 1.21112 0 0 0.000709737 0.0176219 0.637703
37 3.5992 1.06011 0.0708876 -1.87203 0.776974 -0.315065
38 1.66069 0 0 0.0752356 0.0200822 1.53336
39 1.16699 0 0 -0.0284737 -0.00637295 0.987226
40 2.18853 -0.50104 0.0576587 -1.57862 -0.0515781 -0.0608243
41 1.29609 0 0 0.069505 0.182432 1.26119
42 1.62202 -0.000711441 -0.000470161 -0.0215331 -0.0111426 1.52638
43 1.2224 0 0 0.000590949 0.00644233 0.784235
44 1.76707 -1.27612 0.0366406 -1.57709 -0.0287248 -0.0202618
45 1.55587 0 0 0.142902 0.171156 1.29126
46 1.24273 0 0 -0.002439 -0.0856213 1.21077
47 0.784531 0 0 -0.00569158 -0.00165255 0.590112
48 0 0 0 0 0 0
49 0.244705 -20.0225 -7.4039 -0.586889 1.23605 -0.648886
time 19
0 1.938 -1.56582 -7.2488 0 0 -0.526339
1 6.02794 0 0 -1.21 0.978127 -0.88601
2 11.7344 0 0 -0.00140289 0 -1.83374
3 8.81138 -0.000450134 -0.000112534 -1.38493 0 0.000157414
4 5.77839 0.000286102 0 -0.927902 0 0.000100616
5 2.23163 -0.000329971 -0.00036335 -0.457026 0 0
6 11.4725 0 0 -1.3735 -0.433485 0.195035
7 0.615219 -0.993091 -0.810701 -3.01177 0.495695 -0.234867
8 2.24752 0 0 0.0790342 0.0852124 -0.249726
9 1.11936 0 0 0.0123645 0.346298 -0.803578
10 3.71348 -0.102641 0.10219 1.64264 1.21679 0.125601
11 1.72615 0 0 0.00931406 -0.00257704 -1.41252
12 1.21113 0 0 -0.000187671 0.0176353 -0.608103
13 3.59919 -1.06012 0.0708885 1.78425 0.792414 0.183162
14 1.66069 0 0 0.0398678 0.00324702 -1.52346
15 1.167 0 0 -0.0161866 0.00587234 -0.791292
16 2.18852 0.501039 0.0576591 1.57726 0.0540864 0.0878315
17 1.29609 0 0 0.038688 0.0203453 -1.15943
18 1.62202 0.000715256 -0.000471354 -0.139362 -0.0223652 -1.43689
19 1.22241 0 0 -0.0287489 0.0264361 -0.649279
20 1.76707 1.27612 0.0366402 1.57618 0.098009 0.0532786
21 1.55588 0 0 -0.117851 -0.017973 -1.16488
22 1.24273 0 0 -0.000533473 -0.000273578 -1.15307
23 0.784523 0 0 0.00352655 -0.0113472 -0.413282
24 -1.93761 -1.56582 -7.2488 -0.000932534 0 -2.53187
25 6.02794 0 0 0.673123 0.916543 0.355356
26 11.7344 0 0 0.00140267 0 2.02388
27 8.81167 0 0 -0.625402 0 0
28 5.77884 0 0 -0.419019 0 0
29 2.23249 0 0 -0.206383 0 0
30 11.4725 0 0 -0.742255 0.0282353 -0.634785
31 0.615812 0.994371 -0.809165 -3.01714 0.444038 0.335037
32 2.24752 0 0 -0.315217 0.222696 0.223646
33 1.11936 0 0 0.00694599 0.302296 1.09509
34 3.71348 0.102638 0.102191 -1.86859 1.17486 -0.428475
35 1.72615 0 0 -0.0244542 0.00494012 1.59024
36 1.21112 0 0 0.000709607 0.0176219 0.637703
37 3.5992 1.06012 0.0708885 -1.87203 0.776974 -0.315065
38 1.66069 0 0 0.0752355 0.0200824 1.53336
39 1.16699 0 0 -0.0284738 -0.00637292 0.987226
40 2.18853 -0.50104 0.0576596 -1.57862 -0.051578 -0.0608241
41 1.29609 0 0 0.069505 0.182432 1.26119
42 1.62201 -0.000713348 -0.000470161 -0.0215333 -0.0111427 1.52638
43 1.22241 0 0 0.000591025 0.0064422 0.784235
44 1.76707 -1.27612 0.0366416 -1.57709 -0.0287248 -0.0202618
45 1.55588 0 0 0.142902 0.171156 1.29126
46 1.24273 0 0 -0.00243898 -0.085621 1.21077
47 0.784532 0 0 -0.00569155 -0.00165266 0.590112
48 0 0 0 0 0 0
49 0.191346 -20.0791 -7.62959 -0.561272 1.21775 -0.595871
time 20
0 1.938 -1.56582 -7.2488 0 0 -0.526339
1 6.02794 0 0 -1.20065 0.991052 -0.883061
2 11.7344 0 0 -0.00140281 0 -1.84094
3 8.81138 -0.000450134 -0.00011158 -1.3453 0 0.000157313
4 5.77839 0.000286102 0 -0.901348 0 0.000100856
5 2.23163 -0.000328064 -0.000364304 -0.443947 0 0
6 11.4725 0 0 -1.32999 -0.447573 0.179136
7 0.615219 -0.993091 -0.810699 -3.01177 0.495695 -0.234867
8 2.24752 0 0 0.0790342 0.0852121 -0.249726
9 1.11936 0 0 0.0123645 0.346298 -0.803578
10 3.71348 -0.102641 0.10219 1.64264 1.21679 0.125601
11 1.72615 0 0 0.00931442 -0.00257689 -1.41252
12 1.21113 0 0 -0.000187754 0.0176351 -0.608103
13 3.59919 -1.06012 0.0708885 1.78425 0.792415 0.183162
14 1.66069 0 0 0.0398678 0.00324707 -1.52346
15 1.16699 0 0 -0.0161867 0.00587247 -0.791292
16 2.18852 0.501039 0.0576591 1.57726 0.0540864 0.0878313
17 1.29609 0 0 0.0386879 0.0203452 -1.15943
18 1.62202 0.000715256 -0.000471354 -0.139362 -0.0223654 -1.43689
19 1.22241 0 0 -0.0287491 0.026436 -0.649279
20 1.76707 1.27612 0.0366421 1.57618 0.0980091 0.0532786
21 1.55588 0 0 -0.117851 -0.017973 -1.16488
22 1.24274 0 0 -0.000533778 -0.000273492 -1.15307
23 0.784523 0 0 0.00352684 -0.0113471 -0.413282
24 -1.93761 -1.56582 -7.2488 -0.000932534 0 -2.53187
25 6.02794 0 0 0.650634 0.93005 0.334029
26 11.7344 0 0 0.00140265 0 1.99731
27 8.81167 0 0 -0.61818 0 0
28 5.77884 0 0 -0.41418 0 0
29 2.23249 0 0 -0.203999 0 0
30 11.4725 0 0 -0.715154 0.0375045 -0.570625
31 0.615812 0.994371 -0.809165 -3.01714 0.444038 0.335037
32 2.24752 0 0 -0.315217 0.222696 0.223646
33 1.11936 0 0 0.00694599 0.302296 1.09509
34 3.71348 0.102638 0.102191 -1.86859 1.17486 -0.428474
35 1.72615 0 0 -0.0244539 0.00494007 1.59024
36 1.21112 0 0 0.000709577 0.017622 0.637703
37 3.5992 1.06012 0.070888 -1.87203 0.776974 -0.315065
38 1.66069 0 0 0.0752356 0.0200823 1.53336
39 1.16699 0 0 -0.0284738 -0.00637321 0.987226
40 2.18853 -0.50104 0.0576591 -1.57862 -0.051578 -0.0608243
41 1.29609 0 0 0.0695049 0.182432 1.26119
42 1.62201 -0.000713348 -0.000470161 -0.0215332 -0.0111426 1.52638
43 1.22241 0 0 0.000590872 0.0064423 0.784236
44 1.76707 -1.27612 0.0366421 -1.57709 -0.0287246 -0.0202617
45 1.55587 0 0 0.142902 0.171156 1.29126
46 1.24273 0 0 -0.00243898 -0.0856212 1.21077
47 0.784532 0 0 -0.00569165 -0.00165256 0.590112
48 0 0 0 0 0 0
49 0.147577 -20.1348 -7.89436 -0.526914 1.19653 -0.535501
time 21
0 1.938 -1.56582 -7.2488 0 0 -0.526339
1 6.02794 0 0 -1.18988 1.00553 -0.878442
2 11.7344 0 0 -0.00140292 0 -1.85005
3 8.81138 -0.000448227 -0.000112534 -1.30407 0 0.000157613
4 5.77839 0.000286102 0 -0.873726 0 0.000101128
5 2.23163 -0.000328064 -0.000364304 -0.430343 0 0
6 11.4725 0 0 -1.28487 -0.45846 0.165838
7 0.615219 -0.993092 -0.810699 -3.01177 0.495695 -0.234867
8 2.24752 0 0 0.0790343 0.0852123 -0.249726
9 1.11936 0 0 0.0123645 0.346298 -0.803577
10 3.71348 -0.102641 0.102192 1.64264 1.21679 0.125603
11 1.72615 0 0 0.00931414 -0.0025769 -1.41252
12 1.21113 0 0 -0.000187707 0.0176352 -0.608104
13 3.59919 -1.06012 0.0708885 1.78425 0.792414 0.183162
14 1.66069 0 0 0.0398678 0.00324708 -1.52346
15 1.16699 0 0 -0.0161868 0.0058723 -0.791292
16 2.18853 0.501039 0.0576591 1.57726 0.0540864 0.0878314
17 1.29609 0 0 0.0386879 0.0203452 -1.15943
18 1.62202 0.000713348 -0.0004704 -0.139363 -0.0223656 -1.43689
19 1.22241 0 0 -0.0287489 0.026436 -0.649279
20 1.76707 1.27612 0.0366421 1.57618 0.0980093 0.0532785
21 1.55588 0 0 -0.117851 -0.0179729 -1.16488
22 1.24274 0 0 -0.000533776 -0.000273632 -1.15307
23 0.784521 0 0 0.00352665 -0.0113471 -0.413282
24 -1.93761 -1.56582 -7.2488 -0.000932534 0 -2.53187
25 6.02794 0 0 0.623918 0.945006 0.311471
26 11.7344 0 0 0.00140267 0 1.97192
27 8.81167 0 0 -0.60669 0 0
28 5.77884 0 0 -0.406482 0 0
29 2.23249 0 0 -0.200208 0 0
30 11.4725 0 0 -0.685377 0.0425617 -0.50862
31 0.615812 0.99437 -0.809166 -3.01714 0.444038 0.335037
32 2.24752 0 0 -0.315217 0.222696 0.223646
33 1.11936 0 0 0.00694602 0.302296 1.09509
34 3.71348 0.102638 0.10219 -1.86859 1.17486 -0.428475
35 1.72615 0 0 -0.0244541 0.00494013 1.59024
36 1.21112 0 0 0.000709521 0.017622 0.637703
37 3.5992 1.06011 0.0708871 -1.87203 0.776974 -0.315065
38 1.66069 0 0 0.0752356 0.0200822 1.53336
39 1.16699 0 0 -0.0284737 -0.00637302 0.987226
40 2.18853 -0.50104 0.0576582 -1.57862 -0.0515781 -0.0608242
41 1.29609 0 0 0.0695049 0.182432 1.26119
42 1.62201 -0.000713348 -0.000471115 -0.0215332 -0.0111427 1.52638
43 1.22241 0 0 0.000591016 0.00644233 0.784236
44 1.76707 -1.27612 0.0366402 -1.57709 -0.0287248 -0.0202616
45 1.55588 0 0 0.142902 0.171156 1.29126
46 1.24273 0 0 -0.00243892 -0.0856212 1.21077
47 0.784533 0 0 -0.00569163 -0.00165252 0.590112
48 0 0 0 0 0 0
49 0.113847 -20.1682 -8.18757 -0.486544 1.17337 -0.4707
time 22
0 1.938 -1.56582 -7.2488 0 0 -0.526339
1 6.02794 0 0 -1.17783 1.02098 -0.872444
2 11.7344 0 0 -0.00140287 0 -1.8604
3 8.81138 -0.000452042 -0.00011158 -1.26264 0 0.000158274
4 5.77839 0.000286102 0 -0.84597 0 0.000101579
5 2.23163 -0.000329971 -0.00036335 -0.416672 0 0
6 11.4725 0 0 -1.23983 -0.467076 0.15581
7 0.615218 -0.993091 -0.810701 -3.01177 0.495695 -0.234867
8 2.24752 0 0 0.0790343 0.0852122 -0.249726
9 1.11936 0 0 0.0123643 0.346298 -0.803578
10 3.71348 -0.102642 0.10219 1.64264 1.21679 0.125601
11 1.72615 0 0 0.00931423 -0.00257693 -1.41252
12 1.21114 0 0 -0.000187608 0.0176352 -0.608103
13 3.59919 -1.06012 0.0708866 1.78425 0.792414 0.183162
14 1.66069 0 0 0.039868 0.00324696 -1.52346
15 1.167 0 0 -0.0161865 0.00587243 -0.791292
16 2.18852 0.50104 0.0576572 1.57726 0.0540864 0.087831
17 1.29609 0 0 0.038688 0.0203454 -1.15943
18 1.62202 0.000715256 -0.000471592 -0.139362 -0.0223653 -1.43689
19 1.22241 0 0 -0.028749 0.0264362 -0.649279
20 1.76707 1.27612 0.0366402 1.57618 0.0980091 0.0532782
21 1.55588 0 0 -0.117851 -0.017973 -1.16488
22 1.24274 0 0 -0.000533586 -0.000273651 -1.15307
23 0.784523 0 0 0.00352668 -0.0113472 -0.413282
24 -1.93761 -1.56582 -7.2488 -0.000932534 0 -2.53187
25 6.02794 0 0 0.59488 0.960045 0.289091
26 11.7344 0 0 0.00140267 0 1.94685
27 8.81167 0 0 -0.591487 0 0
28 5.77884 0 0 -0.396296 0 0
29 2.23249 0 0 -0.195191 0 0
30 11.4725 0 0 -0.654181 0.044676 -0.450031
31 0.615812 0.994373 -0.809165 -3.01714 0.444038 0.335037
32 2.24752 0 0 -0.315217 0.222696 0.223646
33 1.11936 0 0 0.00694604 0.302296 1.09509
34 3.71349 0.102638 0.102191 -1.86859 1.17486 -0.428474
35 1.72615 0 0 -0.024454 0.00494015 1.59024
36 1.21112 0 0 0.000709653 0.017622 0.637703
37 3.5992 1.06012 0.070888 -1.87203 0.776974 -0.315065
38 1.66069 0 0 0.0752355 0.0200822 1.53336
39 1.16699 0 0 -0.0284737 -0.00637295 0.987226
40 2.18853 -0.50104 0.0576591 -1.57862 -0.051578 -0.0608243
41 1.29609 0 0 0.0695049 0.182432 1.26119
42 1.62201 -0.000713348 -0.000470161 -0.0215332 -0.0111427 1.52638
43 1.22241 0 0 0.000590871 0.00644229 0.784235
44 1.76707 -1.27612 0.0366411 -1.57709 -0.0287248 -0.0202617
45 1.55588 0 0 0.142902 0.171156 1.29126
46 1.24273 0 0 -0.00243898 -0.0856212 1.21077
47 0.784532 0 0 -0.00569153 -0.00165258 0.590112
48 0 0 0 0 0 0
49 0.0893459 -20.1829 -8.49862 -0.442892 1.14922 -0.404393
time 23
0 1.938 -1.56582 -7.2488 0 0 -0.526339
1 6.02794 0 0 -1.16468 1.03688 -0.86531
2 11.7344 0 0 -0.00140292 0 -1.87127
3 8.81138 -0.000450134 -0.000112534 -1.22246 0 0.000157537
4 5.77839 0.000286102 0 -0.819052 0 0.000101243
5 2.23163 -0.000328064 -0.00036478 -0.403414 0 0
6 11.4725 0 0 -1.19651 -0.474314 0.149041
7 0.615219 -0.993091 -0.810699 -3.01177 0.495695 -0.234867
8 2.24752 0 0 0.0790343 0.0852123 -0.249726
9 1.11936 0 0 0.0123645 0.346298 -0.803578
10 3.71348 -0.102641 0.10219 1.64264 1.21679 0.125601
11 1.72615 0 0 0.00931424 -0.00257712 -1.41252
12 1.21114 0 0 -0.000187821 0.0176351 -0.608103
13 3.59919 -1.06012 0.0708885 1.78425 0.792414 0.183162
14 1.66069 0 0 0.039868 0.00324691 -1.52346
15 1.167 0 0 -0.0161868 0.00587259 -0.791292
16 2.18853 0.50104 0.0576611 1.57726 0.0540863 0.0878313
17 1.29609 0 0 0.0386879 0.0203453 -1.15943
18 1.62202 0.000713348 -0.000470638 -0.139362 -0.0223655 -1.43689
19 1.22241 0 0 -0.0287492 0.026436 -0.649279
20 1.76707 1.27612 0.0366421 1.57618 0.098009 0.0532786
21 1.55587 0 0 -0.117851 -0.0179729 -1.16488
22 1.24274 0 0 -0.000533478 -0.000273652 -1.15307
23 0.784525 0 0 0.00352679 -0.0113471 -0.413282
24 -1.93761 -1.56582 -7.2488 -0.000932534 0 -2.53187
25 6.02794 0 0 0.564651 0.974485 0.267297
26 11.7344 0 0 0.00140273 0 1.92288
27 8.81167 0 0 -0.573554 0 0
28 5.77884 0 0 -0.384281 0 0
29 2.23249 0 0 -0.189273 0 0
30 11.4725 0 0 -0.62296 0.0448961 -0.396418
31 0.615813 0.994371 -0.809165 -3.01714 0.444038 0.335036
32 2.24752 0 0 -0.315217 0.222696 0.223646
33 1.11936 0 0 0.00694597 0.302296 1.09509
34 3.71348 0.102638 0.102191 -1.86859 1.17486 -0.428475
35 1.72615 0 0 -0.0244541 0.00494014 1.59024
36 1.21112 0 0 0.000709652 0.017622 0.637703
37 3.5992 1.06011 0.070888 -1.87203 0.776974 -0.315066
38 1.66069 0 0 0.0752355 0.0200823 1.53336
39 1.16699 0 0 -0.0284738 -0.00637316 0.987226
40 2.18853 -0.501041 0.0576591 -1.57862 -0.0515781 -0.0608245
41 1.29609 0 0 0.0695049 0.182431 1.26119
42 1.62201 -0.000713348 -0.000469208 -0.0215332 -0.0111426 1.52638
43 1.22241 0 0 0.000590916 0.00644225 0.784236
44 1.76707 -1.27612 0.0366402 -1.57709 -0.0287249 -0.0202619
45 1.55587 0 0 0.142902 0.171156 1.29126
46 1.24273 0 0 -0.00243894 -0.0856211 1.21077
47 0.784532 0 0 -0.00569165 -0.00165256 0.590112
48 0 0 0 0 0 0
49 0.0732621 -20.1824 -8.8169 -0.398685 1.12506 -0.339503
time 24
0 1.938 -1.56582 -7.2488 0 0 -0.526339
1 6.02794 0 0 -1.15069 1.05274 -0.857238
2 11.7344 0 0 -0.00140272 0 -1.88193
3 8.81138 -0.000450134 -0.000112534 -1.185 0 0.00015805
4 5.77839 0.000286102 0 -0.793948 0 0.000101602
5 2.23163 -0.000329971 -0.000363827 -0.391049 0 0
6 11.4725 0 0 -1.1564 -0.48086 0.144789
7 0.615219 -0.993091 -0.810699 -3.01177 0.495695 -0.234867
8 2.24752 0 0 0.0790341 0.0852122 -0.249726
9 1.11936 0 0 0.0123645 0.346298 -0.803577
10 3.71348 -0.10264 0.102192 1.64264 1.21679 0.125602
11 1.72615 0 0 0.00931445 -0.0025771 -1.41252
12 1.21114 0 0 -0.000187763 0.0176353 -0.608103
13 3.59919 -1.06012 0.0708885 1.78425 0.792414 0.183162
14 1.66069 0 0 0.0398679 0.00324686 -1.52346
15 1.167 0 0 -0.0161865 0.00587233 -0.791292
16 2.18852 0.501039 0.0576611 1.57726 0.0540863 0.0878313
17 1.29609 0 0 0.0386879 0.020345 -1.15943
18 1.62202 0.000713348 -0.000470161 -0.139362 -0.0223654 -1.43689
19 1.22241 0 0 -0.028749 0.0264362 -0.649279
20 1.76707 1.27612 0.0366421 1.57618 0.0980089 0.0532785
21 1.55587 0 0 -0.117851 -0.0179729 -1.16488
22 1.24274 0 0 -0.000533566 -0.000273709 -1.15307
23 0.784523 0 0 0.00352681 -0.0113471 -0.413282
24 -1.93761 -1.56582 -7.2488 -0.000932534 0 -2.53187
25 6.02794 0 0 0.53476 0.987681 0.24697
26 11.7344 0 0 0.00140268 0 1.90009
27 8.81167 0 0 -0.55449 0 0
28 5.77884 0 0 -0.371508 0 0
29 2.23249 0 0 -0.182982 0 0
30 11.4725 0 0 -0.593208 0.0439557 -0.348397
31 0.615812 0.994371 -0.809165 -3.01714 0.444038 0.335037
32 2.24752 0 0 -0.315217 0.222696 0.223646
33 1.11936 0 0 0.00694605 0.302296 1.09509
34 3.71349 0.10264 0.102191 -1.86859 1.17486 -0.428475
35 1.72615 0 0 -0.0244541 0.00494018 1.59024
36 1.21112 0 0 0.000709633 0.017622 0.637703
37 3.5992 1.06012 0.0708876 -1.87203 0.776974 -0.315065
38 1.66069 0 0 0.0752356 0.0200822 1.53336
39 1.16699 0 0 -0.0284737 -0.0063732 0.987226
40 2.18853 -0.50104 0.0576591 -1.57862 -0.051578 -0.0608243
41 1.29609 0 0 0.0695049 0.182432 1.26119
42 1.62201 -0.000711441 -0.000470161 -0.021533 -0.0111427 1.52638
43 1.22241 0 0 0.000590895 0.00644235 0.784236
44 1.76707 -1.27612 0.0366402 -1.57709 -0.0287247 -0.0202617
45 1.55588 0 0 0.142902 0.171156 1.29126
46 1.24273 0 0 -0.00243906 -0.0856212 1.21077
47 0.784532 0 0 -0.00569157 -0.0016525 0.590112
48 0 0 0 0 0 0
49 0.0647849 -20.1702 -9.1318 -0.356653 1.10184 -0.278955
time 25
0 1.938 -1.56582 -7.2488 0 0 -0.526339
1 6.02794 0 0 -1.13621 1.06811 -0.848386
2 11.7344 0 0 -0.0014028 0 -1.89166
3 8.81138 -0.000450134 -0.000112057 -1.15166 0 0.000157721
4 5.77839 0.000286102 0 -0.77161 0 0.000101592
5 2.23163 -0.000328064 -0.000363827 -0.380047 0 0
6 11.4725 0 0 -1.12081 -0.487067 0.141679
7 0.615219 -0.993092 -0.810701 -3.01177 0.495695 -0.234867
8 2.24752 0 0 0.0790343 0.0852122 -0.249726
9 1.11936 0 0 0.0123644 0.346298 -0.803578
10 3.71348 -0.102641 0.10219 1.64264 1.21679 0.125602
11 1.72615 0 0 0.00931411 -0.00257707 -1.41252
12 1.21114 0 0 -0.000187792 0.0176353 -0.608103
13 3.59919 -1.06012 0.0708885 1.78425 0.792414 0.183162
14 1.66069 0 0 0.0398679 0.00324686 -1.52346
15 1.16699 0 0 -0.0161865 0.00587243 -0.791292
16 2.18852 0.501039 0.0576591 1.57726 0.0540863 0.0878314
17 1.29609 0 0 0.0386879 0.0203449 -1.15943
18 1.62202 0.000713348 -0.000470638 -0.139363 -0.0223654 -1.43689
19 1.22241 0 0 -0.028749 0.026436 -0.649279
20 1.76707 1.27612 0.0366402 1.57618 0.098009 0.0532786
21 1.55588 0 0 -0.117851 -0.017973 -1.16488
22 1.24273 0 0 -0.000533508 -0.000273743 -1.15307
23 0.784523 0 0 0.00352679 -0.0113471 -0.413282
24 -1.93761 -1.56582 -7.2488 -0.000932534 0 -2.53187
25 6.02794 0 0 0.505836 0.99951 0.227947
26 11.7344 0 0 0.00140278 0 1.87988
27 8.81167 0 0 -0.53608 0 0
28 5.77884 0 0 -0.359174 0 0
29 2.23249 0 0 -0.176907 0 0
30 11.4725 0 0 -0.566483 0.0422081 -0.306749
31 0.615814 0.994373 -0.809165 -3.01714 0.444038 0.335036
32 2.24752 0 0 -0.315217 0.222696 0.223646
33 1.11936 0 0 0.006946 0.302296 1.09509
34 3.71348 0.10264 0.102191 -1.86859 1.17486 -0.428475
35 1.72615 0 0 -0.024454 0.00494007 1.59024
36 1.21112 0 0 0.000709623 0.0176219 0.637702
37 3.5992 1.06012 0.0708885 -1.87203 0.776974 -0.315066
38 1.66069 0 0 0.0752355 0.0200821 1.53336
39 1.16699 0 0 -0.0284736 -0.00637315 0.987226
40 2.18853 -0.501038 0.0576582 -1.57862 -0.0515781 -0.0608244
41 1.29609 0 0 0.0695049 0.182431 1.26119
42 1.62201 -0.000712395 -0.000469208 -0.0215332 -0.0111426 1.52638
43 1.2224 0 0 0.000590995 0.00644244 0.784236
44 1.76707 -1.27612 0.0366402 -1.57709 -0.0287248 -0.0202618
45 1.55587 0 0 0.142902 0.171156 1.29126
46 1.24273 0 0 -0.00243891 -0.0856212 1.21077
47 0.784531 0 0 -0.00569164 -0.00165254 0.590112
48 0 0 0 0 0 0
49 0.0631035 -20.15 -9.43269 -0.319524 1.08054 -0.225674
time 26
0 1.938 -1.56582 -7.2488 0 0 -0.526339
1 6.02794 0 0 -1.1217 1.08259 -0.838906
2 11.7344 0 0 -0.00140278 0 -1.89987
3 8.81138 -0.000448227 -0.000112534 -1.12377 0 0.000157807
4 5.77839 0.00028801 0 -0.752929 0 0.000101744
5 2.23163 -0.000329971 -0.000364304 -0.370846 0 0
6 11.4725 0 0 -1.09081 -0.49291 0.137878
7 0.615219 -0.993091 -0.810701 -3.01177 0.495695 -0.234867
8 2.24752 0 0 0.0790344 0.0852122 -0.249726
9 1.11936 0 0 0.0123643 0.346298 -0.803578
10 3.71348 -0.102641 0.102192 1.64264 1.21679 0.125601
11 1.72615 0 0 0.00931444 -0.00257691 -1.41252
12 1.21113 0 0 -0.000187772 0.0176352 -0.608103
13 3.59919 -1.06012 0.0708866 1.78425 0.792414 0.183162
14 1.66069 0 0 0.039868 0.0032471 -1.52346
15 1.167 0 0 -0.0161868 0.00587255 -0.791292
16 2.18852 0.501039 0.0576591 1.57726 0.0540863 0.0878313
17 1.29609 0 0 0.0386881 0.0203453 -1.15943
18 1.62202 0.000715256 -0.000471115 -0.139362 -0.0223653 -1.43689
19 1.22241 0 0 -0.028749 0.0264361 -0.649279
20 1.76707 1.27612 0.0366402 1.57618 0.098009 0.0532786
21 1.55588 0 0 -0.117851 -0.0179732 -1.16488
22 1.24273 0 0 -0.000533746 -0.000273542 -1.15307
23 0.784523 0 0 0.00352685 -0.011347 -0.413282
24 -1.93761 -1.56582 -7.2488 -0.000932534 0 -2.53187
25 6.02794 0 0 0.4797 1.0095 0.211537
26 11.7344 0 0 0.0014026 0 1.86168
27 8.81167 0 0 -0.520448 0 0
28 5.77884 0 0 -0.3487 0 0
29 2.23249 0 0 -0.171748 0 0
30 11.4725 0 0 -0.544361 0.0396394 -0.270813
31 0.615813 0.994371 -0.809164 -3.01714 0.444038 0.335036
32 2.24752 0 0 -0.315217 0.222696 0.223646
33 1.11936 0 0 0.00694604 0.302296 1.09509
34 3.71349 0.102638 0.102191 -1.86859 1.17486 -0.428476
35 1.72615 0 0 -0.024454 0.00494016 1.59024
36 1.21112 0 0 0.000709521 0.0176218 0.637703
37 3.5992 1.06012 0.070888 -1.87203 0.776974 -0.315065
38 1.66069 0 0 0.0752356 0.0200823 1.53336
39 1.16699 0 0 -0.0284738 -0.0063732 0.987226
40 2.18853 -0.50104 0.0576601 -1.57862 -0.051578 -0.0608243
41 1.29609 0 0 0.069505 0.182431 1.26119
42 1.62201 -0.000711441 -0.000470161 -0.0215331 -0.0111427 1.52638
43 1.2224 0 0 0.00059095 0.00644233 0.784236
44 1.76707 -1.27612 0.0366411 -1.57709 -0.0287247 -0.0202619
45 1.55587 0 0 0.142902 0.171156 1.29126
46 1.24273 0 0 -0.00243883 -0.085621 1.21077
47 0.784533 0 0 -0.00569164 -0.00165254 0.590112
48 0 0 0 0 0 0
49 0.067407 -20.1253 -9.70897 -0.290027 1.06212 -0.182584
time 27
0 1.938 -1.56582 -7.2488 0 0 -0.526339
1 6.02794 0 0 -1.10784 1.09569 -0.829117
2 11.7344 0 0 -0.00140291 0 -1.9057
3 8.81138 -0.000450134 -0.00011158 -1.10261 0 0.000157537
4 5.77839 0.000286102 0 -0.738746 0 0.000101535
5 2.23163 -0.000331879 -0.000364304 -0.36386 0 0
6 11.4725 0 0 -1.06728 -0.498071 0.131174
7 0.615219 -0.99309 -0.810699 -3.01177 0.495695 -0.234867
8 2.24752 0 0 0.0790342 0.0852123 -0.249726
9 1.11936 0 0 0.0123646 0.346298 -0.803578
10 3.71348 -0.102641 0.10219 1.64264 1.21679 0.125601
11 1.72615 0 0 0.00931432 -0.00257709 -1.41252
12 1.21114 0 0 -0.000187798 0.0176353 -0.608103
13 3.59919 -1.06012 0.0708885 1.78425 0.792414 0.183162
14 1.66069 0 0 0.0398679 0.00324703 -1.52346
15 1.167 0 0 -0.0161865 0.00587266 -0.791292
16 2.18852 0.501039 0.0576591 1.57726 0.0540864 0.0878313
17 1.29609 0 0 0.038688 0.0203451 -1.15943
18 1.62202 0.000713348 -0.000471115 -0.139362 -0.0223651 -1.43689
19 1.22241 0 0 -0.0287491 0.0264359 -0.649279
20 1.76707 1.27612 0.0366402 1.57618 0.0980092 0.0532786
21 1.55587 0 0 -0.117851 -0.0179729 -1.16488
22 1.24273 0 0 -0.000533598 -0.000273659 -1.15307
23 0.784521 0 0 0.00352668 -0.0113471 -0.413282
24 -1.93761 -1.56582 -7.2488 -0.000932534 0 -2.53187
25 6.02794 0 0 0.457221 1.01761 0.197966
26 11.7344 0 0 0.00140267 0 1.84629
27 8.81167 0 0 -0.509571 0 0
28 5.77884 0 0 -0.341413 0 0
29 2.23249 0 0 -0.168158 0 0
30 11.4725 0 0 -0.528418 0.0359705 -0.24044
31 0.615812 0.994371 -0.809165 -3.01714 0.444038 0.335037
32 2.24752 0 0 -0.315217 0.222696 0.223646
33 1.11936 0 0 0.006946 0.302296 1.09509
34 3.71349 0.10264 0.102191 -1.86859 1.17486 -0.428475
35 1.72615 0 0 -0.0244541 0.00494022 1.59024
36 1.21112 0 0 0.000709568 0.0176218 0.637703
37 3.5992 1.06011 0.070888 -1.87203 0.776974 -0.315066
38 1.66069 0 0 0.0752356 0.0200822 1.53336
39 1.16699 0 0 -0.0284739 -0.00637306 0.987226
40 2.18853 -0.50104 0.0576587 -1.57862 -0.0515781 -0.0608244
41 1.29609 0 0 0.069505 0.182432 1.26119
42 1.62201 -0.000713348 -0.000469208 -0.0215333 -0.0111426 1.52638
43 1.22241 0 0 0.000590984 0.00644241 0.784236
44 1.76707 -1.27612 0.0366406 -1.57709 -0.0287249 -0.0202619
45 1.55587 0 0 0.142902 0.171156 1.29126
46 1.24273 0 0 -0.00243903 -0.0856213 1.21077
47 0.784532 0 0 -0.00569132 -0.00165252 0.590112
48 0 0 0 0 0 0
49 0.0768846 -20.0996 -9.95002 -0.270891 1.04755 -0.152609
time 28
0 1.938 -1.56582 -7.2488 0 0 -0.526339
1 6.02794 0 0 -1.09501 1.10734 -0.818991
2 11.7344 0 0 -0.00140279 0 -1.90934
3 8.81138 -0.000450134 -0.00011158 -1.08924 0 0.000157588
4 5.77839 0.000284195 0 -0.729792 0 0.00010159
5 2.23163 -0.000329971 -0.000363827 -0.35945 0 0
6 11.4725 0 0 -1.05101 -0.502118 0.119863
7 0.615219 -0.993092 -0.810699 -3.01177 0.495695 -0.234867
8 2.24752 0 0 0.0790342 0.0852123 -0.249726
9 1.11936 0 0 0.0123642 0.346298 -0.803578
10 3.71348 -0.102641 0.102192 1.64264 1.21679 0.125602
11 1.72615 0 0 0.00931434 -0.00257684 -1.41252
12 1.21114 0 0 -0.000187782 0.0176352 -0.608103
13 3.59919 -1.06012 0.0708885 1.78425 0.792415 0.183163
14 1.66069 0 0 0.039868 0.00324711 -1.52346
15 1.167 0 0 -0.0161865 0.00587245 -0.791292
16 2.18852 0.501038 0.0576591 1.57726 0.0540863 0.0878314
17 1.29609 0 0 0.038688 0.0203453 -1.15943
18 1.62202 0.000715256 -0.000471115 -0.139362 -0.0223655 -1.43689
19 1.22241 0 0 -0.028749 0.0264361 -0.649279
20 1.76707 1.27612 0.0366402 1.57618 0.098009 0.0532786
21 1.55587 0 0 -0.117851 -0.0179729 -1.16488
22 1.24273 0 0 -0.000533631 -0.000273609 -1.15307
23 0.784523 0 0 0.00352689 -0.0113469 -0.413282
24 -1.93761 -1.56582 -7.2488 -0.000932534 0 -2.53187
25 6.02794 0 0 0.439529 1.02372 0.187784
26 11.7344 0 0 0.0014028 0 1.83417
27 8.81167 0 0 -0.505376 0 0
28 5.77884 0 0 -0.338602 0 0
29 2.23249 0 0 -0.166774 0 0
30 11.4725 0 0 -0.520224 0.0308683 -0.215289
31 0.615814 0.994371 -0.809165 -3.01714 0.444038 0.335036
32 2.24752 0 0 -0.315217 0.222696 0.223646
33 1.11936 0 0 0.00694597 0.302296 1.09509
34 3.71349 0.102638 0.102191 -1.86859 1.17486 -0.428476
35 1.72615 0 0 -0.024454 0.00494007 1.59024
36 1.21112 0 0 0.000709586 0.017622 0.637702
37 3.5992 1.06012 0.0708885 -1.87203 0.776974 -0.315065
38 1.66069 0 0 0.0752356 0.0200822 1.53336
39 1.16699 0 0 -0.0284737 -0.00637308 0.987226
40 2.18853 -0.501041 0.0576591 -1.57862 -0.0515781 -0.0608244
41 1.29609 0 0 0.0695049 0.182432 1.26119
42 1.62201 -0.000715256 -0.000469208 -0.0215332 -0.0111428 1.52638
43 1.22241 0 0 0.000591004 0.0064423 0.784235
44 1.76707 -1.27612 0.0366411 -1.57709 -0.0287247 -0.0202619
45 1.55588 0 0 0.142901 0.171156 1.29126
46 1.24273 0 0 -0.00243897 -0.0856211 1.21077
47 0.784531 0 0 -0.00569152 -0.00165254 0.590112
48 0 0 0 0 0 0
49 0.0907254 -20.0765 -10.1452 -0.264845 1.0378 -0.138674
time 29
0 1.938 -1.56582 -7.2488 0 0 -0.526339
1 6.02794 0 0 -1.0849 1.11635 -0.809844
2 11.7344 0 0 -0.00140291 0 -1.9103
3 8.81138 -0.000450134 -0.000112057 -1.08339 0 0.000157515
4 5.77839 0.000286102 0 -0.725871 0 0.000101459
5 2.23163 -0.000328064 -0.00036478 -0.357519 0 0
6 11.4725 0 0 -1.0422 -0.503872 0.105235
7 0.615221 -0.993092 -0.810701 -3.01177 0.495695 -0.234867
8 2.24752 0 0 0.0790341 0.0852122 -0.249726
9 1.11936 0 0 0.0123645 0.346298 -0.803577
10 3.71348 -0.102642 0.10219 1.64264 1.21679 0.125601
11 1.72615 0 0 0.00931414 -0.00257701 -1.41252
12 1.21114 0 0 -0.000187686 0.0176353 -0.608103
13 3.59919 -1.06012 0.0708866 1.78425 0.792415 0.183162
14 1.66069 0 0 0.0398679 0.00324691 -1.52346
15 1.167 0 0 -0.0161868 0.00587243 -0.791292
16 2.18853 0.50104 0.0576591 1.57726 0.0540864 0.0878312
17 1.29609 0 0 0.0386879 0.0203453 -1.15943
18 1.62202 0.000715256 -0.000471592 -0.139362 -0.0223651 -1.43689
19 1.22241 0 0 -0.028749 0.0264361 -0.649279
20 1.76707 1.27612 0.0366383 1.57618 0.0980092 0.0532785
21 1.55588 0 0 -0.117851 -0.0179731 -1.16488
22 1.24274 0 0 -0.000533803 -0.000273508 -1.15307
23 0.784523 0 0 0.00352669 -0.0113471 -0.413282
24 -1.93761 -1.56582 -7.2488 -0.000932534 0 -2.53187
25 6.02794 0 0 0.427101 1.0279 0.181176
26 11.7344 0 0 0.00140269 0 1.82597
27 8.81167 0 0 -0.507402 0 0
28 5.77884 0 0 -0.339959 0 0
29 2.23249 0 0 -0.167443 0 0
30 11.4725 0 0 -0.519199 0.0241903 -0.196411
31 0.615814 0.994371 -0.809166 -3.01714 0.444038 0.335036
32 2.24752 0 0 -0.315217 0.222696 0.223646
33 1.11936 0 0 0.00694599 0.302296 1.09509
34 3.71349 0.102638 0.10219 -1.86859 1.17486 -0.428475
35 1.72615 0 0 -0.024454 0.00494015 1.59024
36 1.21112 0 0 0.000709445 0.017622 0.637703
37 3.5992 1.06012 0.0708876 -1.87203 0.776974 -0.315066
38 1.66069 0 0 0.0752357 0.0200823 1.53336
39 1.16699 0 0 -0.0284737 -0.00637307 0.987226
40 2.18853 -0.501041 0.0576587 -1.57862 -0.0515781 -0.0608242
41 1.29609 0 0 0.0695049 0.182432 1.26119
42 1.62202 -0.000712395 -0.000470161 -0.0215331 -0.0111427 1.52638
43 1.2224 0 0 0.000590904 0.00644222 0.784236
44 1.76707 -1.27612 0.0366406 -1.57709 -0.0287247 -0.0202617
45 1.55587 0 0 0.142901 0.171156 1.29126
46 1.24273 0 0 -0.00243896 -0.0856212 1.21077
47 0.784531 0 0 -0.00569155 -0.00165264 0.590112
48 0 0 0 0 0 0
49 0.108119 -20.0596 -10.284 -0.270022 1.03259 -0.139476
time 30
0 1.938 -1.56582 -7.2488 0 0 -0.526339
1 6.02794 0 0 -1.07951 1.12134 -0.803588
2 11.7344 0 0 -0.00140274 0 -1.90924
3 8.81138 -0.000448227 -0.000112057 -1.08279 0 0.000157411
4 5.77839 0.00028801 0 -0.725472 0 0.000101463
5 2.23163 -0.000326157 -0.000364304 -0.357322 0 0
6 11.4725 0 0 -1.0396 -0.502486 0.0914536
7 0.615219 -0.993091 -0.810701 -3.01177 0.495695 -0.234867
8 2.24752 0 0 0.0790343 0.0852122 -0.249726
9 1.11936 0 0 0.0123643 0.346298 -0.803578
10 3.71348 -0.102641 0.10219 1.64264 1.21679 0.125601
11 1.72615 0 0 0.00931416 -0.00257699 -1.41252
12 1.21114 0 0 -0.000187643 0.0176352 -0.608104
13 3.59919 -1.06012 0.0708866 1.78425 0.792414 0.183162
14 1.66069 0 0 0.0398681 0.00324696 -1.52346
15 1.167 0 0 -0.0161866 0.00587255 -0.791292
16 2.18852 0.501039 0.0576591 1.57726 0.0540863 0.0878313
17 1.29609 0 0 0.0386879 0.0203451 -1.15943
18 1.62202 0.000717163 -0.000470638 -0.139362 -0.0223652 -1.43689
19 1.22241 0 0 -0.028749 0.0264361 -0.649279
20 1.76707 1.27612 0.0366402 1.57618 0.0980091 0.0532786
21 1.55588 0 0 -0.117851 -0.017973 -1.16488
22 1.24274 0 0 -0.000533696 -0.000273509 -1.15307
23 0.784525 0 0 0.00352677 -0.0113472 -0.413282
24 -1.93761 -1.56582 -7.2488 -0.000932534 0 -2.53187
25 6.02794 0 0 0.420437 1.03018 0.178577
26 11.7344 0 0 0.00140277 0 1.82178
27 8.81167 0 0 -0.512934 0 0
28 5.77884 0 0 -0.343666 0 0
29 2.23249 0 0 -0.169268 0 0
30 11.4725 0 0 -0.522598 0.0166521 -0.184868
31 0.615814 0.994371 -0.809165 -3.01714 0.444038 0.335036
32 2.24752 0 0 -0.315217 0.222696 0.223646
33 1.11936 0 0 0.00694588 0.302296 1.09509
34 3.71349 0.10264 0.102191 -1.86859 1.17486 -0.428474
35 1.72615 0 0 -0.0244541 0.00494011 1.59024
36 1.21112 0 0 0.000709756 0.017622 0.637702
37 3.5992 1.06012 0.0708885 -1.87203 0.776974 -0.315066
38 1.66069 0 0 0.0752356 0.0200822 1.53336
39 1.16699 0 0 -0.0284737 -0.00637301 0.987226
40 2.18853 -0.50104 0.0576591 -1.57862 -0.051578 -0.0608243
41 1.29609 0 0 0.0695049 0.182431 1.26119
42 1.62201 -0.000711441 -0.000469208 -0.0215331 -0.0111427 1.52638
43 1.22241 0 0 0.000591028 0.00644236 0.784236
44 1.76707 -1.27612 0.0366411 -1.57709 -0.0287248 -0.0202618
45 1.55588 0 0 0.142902 0.171156 1.29126
46 1.24273 0 0 -0.00243897 -0.0856211 1.21077
47 0.784532 0 0 -0.00569141 -0.00165259 0.590112
48 0 0 0 0 0 0
49 0.128253 -20.0524 -10.3557 -0.281555 1.03035 -0.150034
time 31
0 1.938 -1.56582 -7.2488 0 0 -0.526339
1 6.02794 0 0 -1.07747 1.12368 -0.79936
2 11.7344 0 0 -0.00140292 0 -1.90667
3 8.81138 -0.000450134 -0.00011301 -1.08595 0 0.000157917
4 5.77839 0.000286102 0 -0.727584 0 0.000101802
5 2.23163 -0.000329971 -0.00036478 -0.358362 0 0
6 11.4725 0 0 -1.04149 -0.498765 0.0779723
7 0.61522 -0.99309 -0.810699 -3.01177 0.495695 -0.234867
8 2.24752 0 0 0.0790343 0.0852124 -0.249726
9 1.11936 0 0 0.0123643 0.346298 -0.803578
10 3.71348 -0.102641 0.102192 1.64264 1.21679 0.125601
11 1.72615 0 0 0.00931431 -0.00257698 -1.41252
12 1.21114 0 0 -0.000187682 0.0176353 -0.608104
13 3.59919 -1.06012 0.0708885 1.78425 0.792414 0.183162
14 1.66069 0 0 0.0398679 0.00324711 -1.52346
15 1.167 0 0 -0.0161867 0.00587252 -0.791292
16 2.18852 0.501039 0.0576591 1.57726 0.0540864 0.0878316
17 1.29609 0 0 0.0386881 0.0203452 -1.15943
18 1.62202 0.000715256 -0.000471592 -0.139362 -0.0223655 -1.43689
19 1.22241 0 0 -0.028749 0.0264362 -0.649279
20 1.76707 1.27612 0.0366421 1.57618 0.0980089 0.0532786
21 1.55588 0 0 -0.117851 -0.017973 -1.16488
22 1.24273 0 0 -0.000533473 -0.000273578 -1.15307
23 0.784525 0 0 0.00352672 -0.011347 -0.413282
24 -1.93761 -1.56582 -7.2488 -0.000932534 0 -2.53187
25 6.02794 0 0 0.417254 1.03135 0.178333
26 11.7344 0 0 0.00140269 0 1.82051
27 8.81167 0 0 -0.521231 0 0
28 5.77884 0 0 -0.349225 0 0
29 2.23249 0 0 -0.172006 0 0
30 11.4725 0 0 -0.529239 0.00815848 -0.17826
31 0.615813 0.99437 -0.809165 -3.01714 0.444037 0.335036
32 2.24752 0 0 -0.315217 0.222696 0.223646
33 1.11936 0 0 0.00694594 0.302296 1.09509
34 3.71349 0.102638 0.102191 -1.86859 1.17486 -0.428475
35 1.72615 0 0 -0.024454 0.0049402 1.59024
36 1.21112 0 0 0.000709623 0.0176219 0.637702
37 3.5992 1.06012 0.070888 -1.87203 0.776974 -0.315065
38 1.66069 0 0 0.0752358 0.0200823 1.53336
39 1.16699 0 0 -0.0284739 -0.00637303 0.987226
40 2.18853 -0.501041 0.0576596 -1.57862 -0.0515782 -0.0608243
41 1.29609 0 0 0.0695048 0.182432 1.26119
42 1.62201 -0.000715256 -0.000471115 -0.0215331 -0.0111427 1.52638
43 1.22241 0 0 0.000590861 0.00644227 0.784236
44 1.76707 -1.27612 0.0366416 -1.57709 -0.0287248 -0.0202617
45 1.55587 0 0 0.142902 0.171156 1.29126
46 1.24273 0 0 -0.0024389 -0.0856212 1.21077
47 0.784532 0 0 -0.00569157 -0.0016525 0.590112
48 0 0 0 0 0 0
49 0.150319 -20.0515 -10.3837 -0.297672 1.03004 -0.167749
time 32
0 1.938 -1.56582 -7.2488 0 0 -0.526339
1 6.02794 0 0 -1.07645 1.12529 -0.795513
2 11.7344 0 0 -0.00140287 0 -1.90307
3 8.81138 -0.000450134 -0.00011158 -1.09137 0 0.000157498
4 5.77839 0.00028801 0 -0.73122 0 0.000101531
5 2.23163 -0.000328064 -0.00036335 -0.360153 0 0
6 11.4725 0 0 -1.04603 -0.493678 0.0635452
7 0.61522 -0.993091 -0.810699 -3.01177 0.495695 -0.234867
8 2.24752 0 0 0.0790344 0.0852122 -0.249726
9 1.11936 0 0 0.0123643 0.346298 -0.803578
10 3.71348 -0.102642 0.10219 1.64264 1.21679 0.125602
11 1.72615 0 0 0.00931416 -0.00257699 -1.41252
12 1.21113 0 0 -0.000187678 0.0176352 -0.608103
13 3.59919 -1.06012 0.0708866 1.78425 0.792414 0.183163
14 1.66069 0 0 0.0398681 0.00324714 -1.52346
15 1.167 0 0 -0.0161867 0.00587249 -0.791292
16 2.18852 0.50104 0.0576591 1.57726 0.0540863 0.0878315
17 1.29609 0 0 0.038688 0.0203453 -1.15943
18 1.62202 0.000711441 -0.000471115 -0.139362 -0.0223653 -1.43689
19 1.22241 0 0 -0.028749 0.026436 -0.649279
20 1.76707 1.27612 0.0366402 1.57618 0.0980091 0.0532787
21 1.55588 0 0 -0.117851 -0.0179731 -1.16488
22 1.24273 0 0 -0.000533721 -0.000273525 -1.15307
23 0.784521 0 0 0.00352677 -0.0113472 -0.413282
24 -1.93761 -1.56582 -7.2488 -0.000932534 0 -2.53187
25 6.02794 0 0 0.414393 1.0324 0.178174
26 11.7344 0 0 0.0014027 0 1.82084
27 8.81167 0 0 -0.531651 0 0
28 5.77884 0 0 -0.356206 0 0
29 2.23249 0 0 -0.175445 0 0
30 11.4725 0 0 -0.538074 -0.00171298 -0.173622
31 0.615813 0.994373 -0.809165 -3.01714 0.444038 0.335036
32 2.24752 0 0 -0.315217 0.222696 0.223646
33 1.11936 0 0 0.00694596 0.302296 1.09509
34 3.71349 0.102638 0.102191 -1.86859 1.17486 -0.428475
35 1.72615 0 0 -0.024454 0.00494025 1.59024
36 1.21112 0 0 0.0007097 0.0176218 0.637703
37 3.5992 1.06012 0.0708885 -1.87203 0.776974 -0.315066
38 1.66069 0 0 0.0752357 0.0200823 1.53336
39 1.16699 0 0 -0.0284738 -0.00637299 0.987226
40 2.18853 -0.50104 0.0576591 -1.57862 -0.0515781 -0.0608242
41 1.29609 0 0 0.0695049 0.182431 1.26119
42 1.62201 -0.000713348 -0.000469208 -0.0215333 -0.0111427 1.52638
43 1.22241 0 0 0.000590961 0.00644235 0.784236
44 1.76707 -1.27612 0.0366411 -1.57709 -0.0287248 -0.0202618
45 1.55588 0 0 0.142902 0.171156 1.29126
46 1.24273 0 0 -0.00243895 -0.0856212 1.21077
47 0.784533 0 0 -0.00569171 -0.00165257 0.590112
48 0 0 0 0 0 0
49 0.173504 -20.051 -10.4 -0.316602 1.03064 -0.190024
time 33
0 1.938 -1.56582 -7.2488 0 0 -0.526339
1 6.02794 0 0 -1.07624 1.12631 -0.79211
2 11.7344 0 0 -0.00140288 0 -1.89943
3 8.81138 -0.000450134 -0.00011301 -1.09741 0 0.00015803
4 5.77839 0.000286102 0 -0.735262 0 0.000101926
5 2.23163 -0.000328064 -0.000364304 -0.362144 0 0
6 11.4725 0 0 -1.05164 -0.487621 0.0494719
7 0.615218 -0.993091 -0.810699 -3.01177 0.495695 -0.234867
8 2.24752 0 0 0.0790341 0.0852124 -0.249726
9 1.11936 0 0 0.0123645 0.346298 -0.803578
10 3.71348 -0.102641 0.102192 1.64264 1.21679 0.125602
11 1.72615 0 0 0.00931433 -0.00257701 -1.41252
12 1.21113 0 0 -0.000187712 0.0176353 -0.608103
13 3.59919 -1.06012 0.0708885 1.78425 0.792415 0.183163
14 1.66069 0 0 0.0398681 0.00324709 -1.52346
15 1.167 0 0 -0.0161866 0.0058725 -0.791292
16 2.18852 0.50104 0.0576591 1.57726 0.0540864 0.0878314
17 1.29609 0 0 0.0386879 0.0203452 -1.15943
18 1.62202 0.000713348 -0.000471115 -0.139362 -0.0223654 -1.43689
19 1.22241 0 0 -0.028749 0.026436 -0.649279
20 1.76707 1.27612 0.0366421 1.57618 0.0980092 0.0532787
21 1.55588 0 0 -0.117851 -0.0179731 -1.16488
22 1.24273 0 0 -0.000533753 -0.000273475 -1.15307
23 0.784519 0 0 0.00352675 -0.0113471 -0.413282
24 -1.93761 -1.56582 -7.2488 -0.000932534 0 -2.53187
25 6.02794 0 0 0.411807 1.03337 0.178202
26 11.7344 0 0 0.00140276 0 1.82203
27 8.81167 0 0 -0.542732 0 0
28 5.77884 0 0 -0.36363 0 0
29 2.23249 0 0 -0.179101 0 0
30 11.4725 0 0 -0.547594 -0.0123903 -0.170026
31 0.615813 0.994371 -0.809165 -3.01714 0.444038 0.335036
32 2.24752 0 0 -0.315217 0.222696 0.223646
33 1.11936 0 0 0.00694591 0.302296 1.09509
34 3.71348 0.102638 0.102191 -1.86859 1.17486 -0.428475
35 1.72615 0 0 -0.0244541 0.00494024 1.59024
36 1.21112 0 0 0.000709511 0.017622 0.637703
37 3.5992 1.06012 0.070888 -1.87203 0.776974 -0.315066
38 1.66069 0 0 0.0752356 0.0200823 1.53336
39 1.16699 0 0 -0.0284739 -0.00637307 0.987226
40 2.18853 -0.50104 0.0576596 -1.57862 -0.0515781 -0.0608244
41 1.29609 0 0 0.0695049 0.182432 1.26119
42 1.62201 -0.000711441 -0.000469208 -0.0215331 -0.0111427 1.52638
43 1.2224 0 0 0.000590917 0.0064424 0.784236
44 1.76707 -1.27612 0.0366411 -1.57709 -0.0287249 -0.0202619
45 1.55587 0 0 0.142902 0.171156 1.29126
46 1.24273 0 0 -0.00243897 -0.0856212 1.21077
47 0.784531 0 0 -0.0056915 -0.0016525 0.590112
48 0 0 0 0 0 0
49 0.196998 -20.0507 -10.4066 -0.336573 1.03113 -0.214262
time 34
0 1.938 -1.56582 -7.2488 0 0 -0.526339
1 6.02794 0 0 -1.07712 1.1264 -0.789765
2 11.7344 0 0 -0.00140294 0 -1.89567
3 8.81138 -0.000448227 -0.000112534 -1.10246 0 0.000157601
4 5.77839 0.000286102 0 -0.738649 0 0.000101594
5 2.23163 -0.000328064 -0.000364304 -0.363812 0 0
6 11.4725 0 0 -1.05666 -0.480879 0.0363537
7 0.615219 -0.993091 -0.810699 -3.01177 0.495695 -0.234867
8 2.24752 0 0 0.0790342 0.0852122 -0.249726
9 1.11936 0 0 0.0123646 0.346298 -0.803577
10 3.71348 -0.102641 0.102192 1.64264 1.21679 0.125602
11 1.72615 0 0 0.00931422 -0.00257706 -1.41252
12 1.21113 0 0 -0.000187829 0.0176353 -0.608103
13 3.59919 -1.06012 0.0708885 1.78425 0.792414 0.183162
14 1.66069 0 0 0.0398679 0.00324701 -1.52346
15 1.167 0 0 -0.0161867 0.00587236 -0.791292
16 2.18852 0.50104 0.0576591 1.57726 0.0540863 0.0878313
17 1.29609 0 0 0.038688 0.0203451 -1.15943
18 1.62202 0.000713348 -0.000471115 -0.139362 -0.0223654 -1.43689
19 1.22241 0 0 -0.0287489 0.026436 -0.649279
20 1.76707 1.27612 0.0366421 1.57618 0.0980091 0.0532785
21 1.55588 0 0 -0.117851 -0.017973 -1.16488
22 1.24274 0 0 -0.000533466 -0.000273644 -1.15307
23 0.784521 0 0 0.00352664 -0.0113472 -0.413282
24 -1.93761 -1.56582 -7.2488 -0.000932534 0 -2.53187
25 6.02794 0 0 0.409446 1.03428 0.178529
26 11.7344 0 0 0.00140273 0 1.82327
27 8.81167 0 0 -0.553002 0 0
28 5.77884 0 0 -0.370511 0 0
29 2.23249 0 0 -0.182491 0 0
30 11.4725 0 0 -0.556288 -0.0234069 -0.166449
31 0.615811 0.994371 -0.809166 -3.01714 0.444038 0.335036
32 2.24752 0 0 -0.315217 0.222696 0.223646
33 1.11935 0 0 0.00694599 0.302296 1.09509
34 3.71348 0.102638 0.10219 -1.86859 1.17486 -0.428475
35 1.72615 0 0 -0.0244539 0.00494011 1.59024
36 1.21112 0 0 0.000709645 0.017622 0.637703
37 3.5992 1.06011 0.0708876 -1.87203 0.776974 -0.315066
38 1.66069 0 0 0.0752355 0.0200823 1.53336
39 1.16699 0 0 -0.0284737 -0.00637309 0.987226
40 2.18853 -0.501041 0.0576591 -1.57862 -0.051578 -0.0608245
41 1.29609 0 0 0.0695049 0.182432 1.26119
42 1.62201 -0.000715256 -0.000470161 -0.0215332 -0.0111427 1.52638
43 1.22241 0 0 0.000590982 0.00644225 0.784236
44 1.76707 -1.27612 0.0366402 -1.57709 -0.0287248 -0.0202618
45 1.55588 0 0 0.142901 0.171156 1.29126
46 1.24273 0 0 -0.00243885 -0.0856211 1.21077
47 0.78453 0 0 -0.00569164 -0.00165254 0.590112
48 0 0 0 0 0 0
49 0.219991 -20.0508 -10.4055 -0.355814 1.03046 -0.237865
time 35
0 1.938 -1.56582 -7.2488 0 0 -0.526339
1 6.02794 0 0 -1.07885 1.12572 -0.788465
2 11.7344 0 0 -0.00140289 0 -1.89279
3 8.81138 -0.000450134 -0.000112057 -1.10487 0 0.000157355
4 5.77839 0.000286102 0 -0.740263 0 0.000101401
5 2.23163 -0.000329971 -0.000363827 -0.364607 0 0
6 11.4725 0 0 -1.05937 -0.473628 0.0252499
7 0.61522 -0.993091 -0.810699 -3.01177 0.495695 -0.234867
8 2.24752 0 0 0.0790343 0.0852122 -0.249726
9 1.11936 0 0 0.0123645 0.346298 -0.803577
10 3.71348 -0.102641 0.10219 1.64264 1.21679 0.125602
11 1.72615 0 0 0.00931408 -0.00257722 -1.41252
12 1.21113 0 0 -0.000187762 0.0176353 -0.608103
13 3.59919 -1.06012 0.0708866 1.78425 0.792415 0.183162
14 1.66069 0 0 0.0398676 0.00324708 -1.52346
15 1.16699 0 0 -0.0161865 0.0058725 -0.791292
16 2.18852 0.501039 0.0576591 1.57726 0.0540864 0.0878311
17 1.29609 0 0 0.0386879 0.0203454 -1.15943
18 1.62202 0.000711441 -0.000470161 -0.139362 -0.0223653 -1.43689
19 1.22241 0 0 -0.0287491 0.0264358 -0.649279
20 1.76707 1.27612 0.0366421 1.57618 0.0980092 0.0532783
21 1.55588 0 0 -0.117851 -0.017973 -1.16488
22 1.24273 0 0 -0.000533656 -0.000273625 -1.15307
23 0.784525 0 0 0.00352682 -0.0113472 -0.413282
24 -1.93761 -1.56582 -7.2488 -0.000932534 0 -2.53187
25 6.02794 0 0 0.40725 1.03516 0.179273
26 11.7344 0 0 0.00140272 0 1.82373
27 8.81167 0 0 -0.560973 0 0
28 5.77884 0 0 -0.375852 0 0
29 2.23249 0 0 -0.185121 0 0
30 11.4725 0 0 -0.562638 -0.0343927 -0.161773
31 0.615812 0.994371 -0.809165 -3.01714 0.444038 0.335036
32 2.24752 0 0 -0.315217 0.222696 0.223646
33 1.11936 0 0 0.00694591 0.302296 1.09509
34 3.71349 0.102638 0.10219 -1.86859 1.17486 -0.428474
35 1.72615 0 0 -0.0244541 0.00494017 1.59024
36 1.21112 0 0 0.00070955 0.0176219 0.637703
37 3.5992 1.06012 0.070888 -1.87203 0.776975 -0.315066
38 1.66069 0 0 0.0752356 0.0200824 1.53336
39 1.16699 0 0 -0.0284739 -0.00637308 0.987226
40 2.18853 -0.50104 0.0576582 -1.57862 -0.051578 -0.0608242
41 1.29609 0 0 0.069505 0.182431 1.26119
42 1.62202 -0.000713348 -0.000469208 -0.0215332 -0.0111427 1.52638
43 1.22241 0 0 0.000591094 0.00644236 0.784236
44 1.76707 -1.27612 0.0366411 -1.57709 -0.0287249 -0.0202618
45 1.55587 0 0 0.142902 0.171156 1.29126
46 1.24273 0 0 -0.00243883 -0.0856211 1.21077
47 0.784532 0 0 -0.00569144 -0.0016525 0.590112
48 0 0 0 0 0 0
49 0.241671 -20.051 -10.399 -0.372553 1.02763 -0.258235
time 36
0 1.938 -1.56582 -7.2488 0 0 -0.526339
1 6.02794 0 0 -1.08171 1.12406 -0.788236
2 11.7344 0 0 -0.00140286 0 -1.89
3 8.81138 -0.000450134 -0.00011158 -1.10482 0 0.000157807
4 5.77839 0.000286102 0 -0.740226 0 0.000101739
5 2.23163 -0.000329971 -0.000364304 -0.364589 0 0
6 11.4725 0 0 -1.05997 -0.464151 0.0137338
7 0.615219 -0.993092 -0.810699 -3.01177 0.495695 -0.234867
8 2.24752 0 0 0.0790342 0.0852121 -0.249726
9 1.11936 0 0 0.0123643 0.346298 -0.803578
10 3.71348 -0.102641 0.10219 1.64264 1.21679 0.125602
11 1.72615 0 0 0.00931428 -0.00257709 -1.41252
12 1.21114 0 0 -0.000187739 0.0176353 -0.608103
13 3.59919 -1.06012 0.0708866 1.78425 0.792415 0.183162
14 1.66069 0 0 0.0398679 0.00324704 -1.52346
15 1.16699 0 0 -0.0161867 0.00587239 -0.791292
16 2.18852 0.501039 0.0576572 1.57726 0.0540865 0.0878313
17 1.29609 0 0 0.0386879 0.0203452 -1.15943
18 1.62202 0.000715256 -0.000470638 -0.139362 -0.0223653 -1.43689
19 1.22241 0 0 -0.028749 0.026436 -0.649279
20 1.76707 1.27612 0.0366402 1.57618 0.0980092 0.0532785
21 1.55588 0 0 -0.117851 -0.0179729 -1.16488
22 1.24273 0 0 -0.000533548 -0.000273626 -1.15307
23 0.784523 0 0 0.00352666 -0.011347 -0.413282
24 -1.93761 -1.56582 -7.2488 -0.000932534 0 -2.53187
25 6.02794 0 0 0.404049 1.0364 0.179753
26 11.7344 0 0 0.00140282 0 1.82345
27 8.81167 0 0 -0.56801 0 0
28 5.77884 0 0 -0.380567 0 0
29 2.23249 0 0 -0.187443 0 0
30 11.4725 0 0 -0.56764 -0.0480061 -0.154562
31 0.615812 0.994371 -0.809166 -3.01714 0.444038 0.335036
32 2.24752 0 0 -0.315217 0.222696 0.223646
33 1.11936 0 0 0.00694596 0.302296 1.09509
34 3.71349 0.10264 0.102191 -1.86859 1.17486 -0.428475
35 1.72615 0 0 -0.0244541 0.00494013 1.59024
36 1.21112 0 0 0.00070955 0.0176219 0.637703
37 3.5992 1.06012 0.0708876 -1.87203 0.776974 -0.315065
38 1.66069 0 0 0.0752356 0.0200823 1.53336
39 1.16699 0 0 -0.0284737 -0.00637308 0.987226
40 2.18853 -0.50104 0.0576582 -1.57862 -0.0515781 -0.0608243
41 1.29609 0 0 0.0695049 0.182432 1.26119
42 1.62201 -0.000715256 -0.000470161 -0.0215331 -0.0111426 1.52638
43 1.22241 0 0 0.000590982 0.00644225 0.784236
44 1.76707 -1.27612 0.0366402 -1.57709 -0.0287249 -0.0202616
45 1.55588 0 0 0.142902 0.171156 1.29126
46 1.24273 0 0 -0.00243902 -0.0856213 1.21077
47 0.784531 0 0 -0.00569159 -0.00165257 0.590112
48 0 0 0 0 0 0
49 0.261227 -20.0513 -10.3889 -0.389653 1.02165 -0.279286
time 37
0 1.938 -1.56582 -7.2488 0 0 -0.526339
1 6.02794 0 0 -1.08542 1.12169 -0.788713
2 11.7344 0 0 -0.00140281 0 -1.8865
3 8.81138 -0.000450134 -0.00011158 -1.10412 0 0.00015744
4 5.77839 0.000286102 0 -0.739761 0 0.000101522
5 2.23163 -0.000329971 -0.000364304 -0.36436 0 0
6 11.4725 0 0 -1.06021 -0.452465 0.000290477
7 0.615219 -0.99309 -0.810701 -3.01177 0.495695 -0.234867
8 2.24752 0 0 0.0790342 0.0852124 -0.249726
9 1.11936 0 0 0.0123644 0.346298 -0.803577
10 3.71348 -0.10264 0.102192 1.64264 1.21679 0.125602
11 1.72615 0 0 0.00931439 -0.00257703 -1.41252
12 1.21114 0 0 -0.000187777 0.0176351 -0.608104
13 3.59919 -1.06012 0.0708885 1.78425 0.792414 0.183162
14 1.66069 0 0 0.0398678 0.00324683 -1.52346
15 1.16699 0 0 -0.0161865 0.00587252 -0.791292
16 2.18852 0.50104 0.0576591 1.57726 0.0540863 0.0878312
17 1.29609 0 0 0.0386877 0.0203454 -1.15943
18 1.62202 0.000711441 -0.000471115 -0.139362 -0.0223656 -1.43689
19 1.22241 0 0 -0.028749 0.0264359 -0.649279
20 1.76707 1.27612 0.0366421 1.57618 0.0980091 0.0532783
21 1.55588 0 0 -0.117852 -0.0179729 -1.16488
22 1.24273 0 0 -0.000533566 -0.000273709 -1.15307
23 0.784523 0 0 0.00352674 -0.0113471 -0.413282
24 -1.93761 -1.56582 -7.2488 -0.000932534 0 -2.53187
25 6.02794 0 0 0.39962 1.03801 0.179558
26 11.7344 0 0 0.00140262 0 1.82303
27 8.81167 0 0 -0.575861 0 0
28 5.77884 0 0 -0.385827 0 0
29 2.23249 0 0 -0.190034 0 0
30 11.4725 0 0 -0.573101 -0.0647026 -0.145397
31 0.615813 0.994371 -0.809166 -3.01714 0.444038 0.335036
32 2.24752 0 0 -0.315217 0.222696 0.223646
33 1.11936 0 0 0.00694596 0.302296 1.09509
34 3.71349 0.10264 0.10219 -1.86859 1.17486 -0.428475
35 1.72615 0 0 -0.0244541 0.00494006 1.59024
36 1.21112 0 0 0.00070971 0.017622 0.637703
37 3.5992 1.06012 0.0708876 -1.87203 0.776974 -0.315066
38 1.66069 0 0 0.0752356 0.0200823 1.53336
39 1.16699 0 0 -0.0284737 -0.00637308 0.987226
40 2.18853 -0.50104 0.0576572 -1.57862 -0.0515782 -0.0608244
41 1.29609 0 0 0.069505 0.182431 1.26119
42 1.62201 -0.000713348 -0.000470161 -0.0215332 -0.0111426 1.52638
43 1.2224 0 0 0.000590883 0.00644232 0.784236
44 1.76707 -1.27612 0.0366402 -1.57709 -0.0287248 -0.0202619
45 1.55587 0 0 0.142902 0.171156 1.29126
46 1.24273 0 0 -0.00243897 -0.0856212 1.21077
47 0.784532 0 0 -0.00569171 -0.00165255 0.590112
48 0 0 0 0 0 0
49 0.277849 -20.0517 -10.3775 -0.408886 1.01355 -0.303614
time 38
0 1.938 -1.56582 -7.2488 0 0 -0.526339
1 6.02794 0 0 -1.08906 1.11923 -0.789482
2 11.7344 0 0 -0.00140277 0 -1.88299
3 8.81138 -0.000448227 -0.00011158 -1.10336 0 0.000157444
4 5.77839 0.000286102 0 -0.739254 0 0.000101343
5 2.23163 -0.000328064 -0.000364304 -0.36411 0 0
6 11.4725 0 0 -1.06043 -0.441159 -0.0126838
7 0.615218 -0.993092 -0.810699 -3.01177 0.495695 -0.234867
8 2.24752 0 0 0.0790343 0.0852122 -0.249726
9 1.11936 0 0 0.0123646 0.346298 -0.803577
10 3.71348 -0.102641 0.102192 1.64264 1.21679 0.125602
11 1.72615 0 0 0.00931402 -0.00257696 -1.41252
12 1.21113 0 0 -0.000187779 0.0176352 -0.608103
13 3.59919 -1.06012 0.0708885 1.78425 0.792414 0.183162
14 1.66069 0 0 0.0398681 0.00324702 -1.52346
15 1.167 0 0 -0.0161867 0.00587258 -0.791292
16 2.18852 0.501039 0.0576591 1.57726 0.0540866 0.0878316
17 1.29609 0 0 0.038688 0.0203452 -1.15943
18 1.62202 0.000711441 -0.000471115 -0.139362 -0.0223655 -1.43689
19 1.22241 0 0 -0.028749 0.0264361 -0.649279
20 1.76707 1.27612 0.0366402 1.57618 0.0980092 0.0532787
21 1.55588 0 0 -0.117851 -0.017973 -1.16488
22 1.24273 0 0 -0.000533623 -0.000273675 -1.15307
23 0.784523 0 0 0.00352667 -0.011347 -0.413282
24 -1.93761 -1.56582 -7.2488 -0.000932534 0 -2.53187
25 6.02794 0 0 0.3952 1.0396 0.179121
26 11.7344 0 0 0.00140261 0 1.82256
27 8.81167 0 0 -0.583367 0 0
28 5.77884 0 0 -0.390856 0 0
29 2.23249 0 0 -0.192511 0 0
30 11.4725 0 0 -0.578413 -0.080918 -0.136225
31 0.615812 0.994371 -0.809165 -3.01714 0.444038 0.335036
32 2.24752 0 0 -0.315217 0.222696 0.223646
33 1.11936 0 0 0.00694594 0.302296 1.09509
34 3.71349 0.102638 0.102191 -1.86859 1.17486 -0.428474
35 1.72615 0 0 -0.024454 0.00494021 1.59024
36 1.21112 0 0 0.000709493 0.0176219 0.637703
37 3.5992 1.06012 0.0708876 -1.87203 0.776974 -0.315066
38 1.66069 0 0 0.0752356 0.0200824 1.53336
39 1.16699 0 0 -0.028474 -0.00637311 0.987226
40 2.18853 -0.50104 0.0576582 -1.57862 -0.0515781 -0.0608242
41 1.29609 0 0 0.069505 0.182432 1.26119
42 1.62201 -0.000711441 -0.000470161 -0.0215333 -0.0111427 1.52638
43 1.22241 0 0 0.000591038 0.00644239 0.784235
44 1.76707 -1.27612 0.0366411 -1.57709 -0.0287247 -0.0202618
45 1.55588 0 0 0.142902 0.171156 1.29126
46 1.24273 0 0 -0.00243913 -0.0856213 1.21077
47 0.784532 0 0 -0.00569153 -0.00165237 0.590112
48 0 0 0 0 0 0
49 0.290726 -20.0521 -10.3668 -0.426842 1.0053 -0.32665
time 39
0 1.938 -1.56582 -7.2488 0 0 -0.526339
1 6.02794 0 0 -1.09181 1.11732 -0.790183
2 11.7344 0 0 -0.00140283 0 -1.88027
3 8.81138 -0.000450134 -0.00011158 -1.10283 0 0.000157757
4 5.77839 0.000286102 0 -0.738895 0 0.000101628
5 2.23163 -0.000329971 -0.000362396 -0.363933 0 0
6 11.4725 0 0 -1.06067 -0.432669 -0.0225355
7 0.615218 -0.993091 -0.810699 -3.01177 0.495695 -0.234867
8 2.24752 0 0 0.0790344 0.0852122 -0.249726
9 1.11936 0 0 0.0123645 0.346298 -0.803577
10 3.71348 -0.102641 0.102192 1.64264 1.21679 0.125601
11 1.72615 0 0 0.00931412 -0.00257699 -1.41252
12 1.21114 0 0 -0.000187556 0.0176353 -0.608103
13 3.59919 -1.06012 0.0708885 1.78425 0.792415 0.183162
14 1.66069 0 0 0.0398677 0.00324703 -1.52346
15 1.167 0 0 -0.0161866 0.00587241 -0.791292
16 2.18852 0.501039 0.0576611 1.57726 0.0540863 0.0878312
17 1.29609 0 0 0.0386879 0.0203452 -1.15943
18 1.62202 0.000713348 -0.000471115 -0.139363 -0.0223654 -1.43689
19 1.22241 0 0 -0.028749 0.0264361 -0.649279
20 1.76707 1.27612 0.0366421 1.57618 0.0980091 0.0532783
21 1.55588 0 0 -0.117851 -0.017973 -1.16488
22 1.24273 0 0 -0.000533853 -0.00027354 -1.15307
23 0.784523 0 0 0.00352668 -0.0113471 -0.413282
24 -1.93761 -1.56582 -7.2488 -0.000932534 0 -2.53187
25 6.02794 0 0 0.39185 1.04078 0.17872
26 11.7344 0 0 0.00140274 0 1.82215
27 8.81167 0 0 -0.589073 0 0
28 5.77884 0 0 -0.394679 0 0
29 2.23249 0 0 -0.194394 0 0
30 11.4725 0 0 -0.582552 -0.0931629 -0.129128
31 0.615812 0.994371 -0.809165 -3.01714 0.444037 0.335036
32 2.24752 0 0 -0.315217 0.222696 0.223646
33 1.11936 0 0 0.00694599 0.302296 1.09509
34 3.71349 0.10264 0.102192 -1.86859 1.17486 -0.428475
35 1.72615 0 0 -0.024454 0.00494012 1.59024
36 1.21112 0 0 0.000709542 0.0176219 0.637703
37 3.5992 1.06012 0.0708876 -1.87203 0.776974 -0.315066
38 1.66069 0 0 0.0752356 0.0200822 1.53336
39 1.16699 0 0 -0.0284738 -0.00637313 0.987226
40 2.18853 -0.50104 0.0576591 -1.57862 -0.051578 -0.0608243
41 1.29609 0 0 0.069505 0.182432 1.26119
42 1.62201 -0.000713348 -0.000470161 -0.0215333 -0.0111427 1.52638
43 1.22241 0 0 0.00059096 0.00644235 0.784235
44 1.76707 -1.27612 0.0366421 -1.57709 -0.028725 -0.0202619
45 1.55588 0 0 0.142901 0.171156 1.29126
46 1.24273 0 0 -0.002439 -0.0856213 1.21077
47 0.784532 0 0 -0.00569145 -0.00165253 0.590112
48 0 0 0 0 0 0
49 0.299046 -20.0523 -10.3588 -0.440115 0.998898 -0.343823
time 40
0 1.938 -1.56582 -7.2488 0 0 -0.526339
1 6.02794 0 0 -1.0929 1.11655 -0.790488
2 11.7344 0 0 -0.00140286 0 -1.87917
3 8.81138 -0.000450134 -0.000112534 -1.10262 0 0.000157987
4 5.77839 0.000284195 0 -0.738758 0 0.000101682
5 2.23163 -0.000329971 -0.000364304 -0.363866 0 0
6 11.4725 0 0 -1.06078 -0.42932 -0.0264456
7 0.61522 -0.993092 -0.810701 -3.01177 0.495695 -0.234867
8 2.24752 0 0 0.0790343 0.0852122 -0.249726
9 1.11936 0 0 0.0123646 0.346298 -0.803578
10 3.71348 -0.102642 0.102192 1.64264 1.21679 0.125601
11 1.72615 0 0 0.00931417 -0.00257691 -1.41252
12 1.21114 0 0 -0.000187657 0.0176352 -0.608103
13 3.59919 -1.06012 0.0708866 1.78425 0.792414 0.183162
14 1.66069 0 0 0.0398681 0.00324692 -1.52346
15 1.167 0 0 -0.0161867 0.00587225 -0.791292
16 2.18853 0.501039 0.0576572 1.57726 0.0540863 0.0878313
17 1.29609 0 0 0.038688 0.0203453 -1.15943
18 1.62202 0.000715256 -0.000470161 -0.139362 -0.0223655 -1.43689
19 1.22241 0 0 -0.028749 0.0264359 -0.649279
20 1.76707 1.27612 0.0366402 1.57618 0.098009 0.0532784
21 1.55588 0 0 -0.117851 -0.017973 -1.16488
22 1.24273 0 0 -0.000533573 -0.000273643 -1.15307
23 0.784521 0 0 0.00352668 -0.0113471 -0.413282
24 -1.93761 -1.56582 -7.2488 -0.000932534 0 -2.53187
25 6.02794 0 0 0.390523 1.04125 0.178546
26 11.7344 0 0 0.00140267 0 1.82197
27 8.81167 0 0 -0.591339 0 0
28 5.77884 0 0 -0.396197 0 0
29 2.23249 0 0 -0.195142 0 0
30 11.4725 0 0 -0.58422 -0.0980074 -0.126279
31 0.615811 0.994373 -0.809165 -3.01714 0.444038 0.335036
32 2.24752 0 0 -0.315217 0.222696 0.223646
33 1.11936 0 0 0.00694597 0.302296 1.09509
34 3.71349 0.10264 0.102191 -1.86859 1.17486 -0.428475
35 1.72615 0 0 -0.0244541 0.00494016 1.59024
36 1.21112 0 0 0.00070955 0.0176219 0.637703
37 3.5992 1.06012 0.0708885 -1.87203 0.776974 -0.315066
38 1.66069 0 0 0.0752355 0.0200822 1.53336
39 1.16699 0 0 -0.0284737 -0.00637304 0.987226
40 2.18853 -0.50104 0.0576591 -1.57862 -0.0515781 -0.0608243
41 1.29609 0 0 0.0695049 0.182432 1.26119
42 1.62201 -0.000713348 -0.000470161 -0.0215332 -0.0111427 1.52638
43 1.22241 0 0 0.000591103 0.00644223 0.784236
44 1.76707 -1.27612 0.0366411 -1.57709 -0.0287246 -0.0202617
45 1.55587 0 0 0.142902 0.171156 1.29126
46 1.24273 0 0 -0.00243903 -0.0856211 1.21077
47 0.784533 0 0 -0.00569158 -0.00165255 0.590112
48 0 0 0 0 0 0
49 0.302 -20.0524 -10.3557 -0.445297 0.996323 -0.350563
end
