//Sequence File generated by the Wall Worm SMD Exporter PRO 1.99
//www.wallworm.com
version 1
nodes
0 "b_l_clav" -1
1 "b_l_upperarm" 0
2 "b_l_forearm" 1
3 "b_l_twist3" 2
4 "b_l_twist2" 2
5 "b_l_twist1" 2
6 "b_l_hand" 2
7 "b_l_thumb001" 6
8 "b_l_thumb002" 7
9 "b_l_thumb003" 8
10 "b_l_middle001" 6
11 "b_l_middle002" 10
12 "b_l_middle003" 11
13 "b_l_index001" 6
14 "b_l_index002" 13
15 "b_l_index003" 14
16 "b_l_hand_ringsqueezer" 6
17 "b_l_ring001" 16
18 "b_l_ring002" 17
19 "b_l_ring003" 18
20 "b_l_hand_pinkysqueezer" 6
21 "b_l_pinky001" 20
22 "b_l_pinky002" 21
23 "b_l_pinky003" 22
24 "b_r_clav" -1
25 "b_r_upperarm" 24
26 "b_r_forearm" 25
27 "b_r_twist3" 26
28 "b_r_twist2" 26
29 "b_r_twist1" 26
30 "b_r_hand" 26
31 "b_r_thumb001" 30
32 "b_r_thumb002" 31
33 "b_r_thumb003" 32
34 "b_r_middle001" 30
35 "b_r_middle002" 34
36 "b_r_middle003" 35
37 "b_r_index001" 30
38 "b_r_index002" 37
39 "b_r_index003" 38
40 "b_r_hand_ringsqueezer" 30
41 "b_r_ring001" 40
42 "b_r_ring002" 41
43 "b_r_ring003" 42
44 "b_r_hand_pinkysqueezer" 30
45 "b_r_pinky001" 44
46 "b_r_pinky002" 45
47 "b_r_pinky003" 46
48 "b_zero" -1
49 "d_bottle" -1
50 "Dummy001" 49
51 "Bone001" 50
52 "Bone002" 51
53 "Bone003" 52
54 "d_lighter" -1
55 "flamebase" 54
56 "flame1" 55
57 "flame2" 56
58 "flame3" 57
59 "flame4" 58
60 "d_wheel" 54
61 "d_plunger" 54
62 "glock_materials" -1
end
skeleton
time 0
0 1.938 5.07088 -6.6269 0 0 0
1 6.02794 0 0 -0.67492 0.274788 -1.38186
2 11.7344 0 0 -0.00140288 0 -1.10251
3 8.81138 -0.000450134 -0.000112057 -0.229594 0 0.000157729
4 5.77839 0.000286102 0 -0.153828 0 0.000104607
5 2.23163 -0.000329971 -0.00036335 -0.0757659 0 0
6 11.4725 0 0 -0.384752 -0.178377 0.610813
7 0.615219 -0.993092 -0.8107 -3.1239 0.583051 -0.493728
8 2.24752 0 0 0.404997 -0.113526 -0.0540811
9 1.11936 0 0 0.357596 0.311754 -0.633461
10 3.71348 -0.102641 0.102191 1.55701 0.670238 0.0708461
11 1.72615 0 0 0.00954791 -0.00970074 -0.889147
12 1.21114 0 0 -0.00385462 0.0172099 -0.81781
13 3.59919 -1.06012 0.0708883 1.55765 0.555875 -0.0696805
14 1.66069 0 0 -0.0427853 0.0551273 -0.821598
15 1.167 0 0 -0.0176027 0.00756602 -0.775185
16 2.18852 0.501039 0.0576591 1.57003 -0.111495 0.225983
17 1.29609 0 0 0.014644 -0.044487 -0.506886
18 1.62202 0.000713348 -0.000470638 0.0182151 -0.0357178 -0.904846
19 1.22241 0 0 0.00915938 -0.00545184 -0.758137
20 1.76707 1.27612 0.0366411 1.57004 -0.0293955 0.261465
21 1.55587 0 0 -0.0149061 0.0289929 -0.180394
22 1.24273 0 0 -0.000598852 0 -0.628068
23 0.784523 0 0 0.0109357 0.0120948 -0.54806
24 -1.93761 8.00428 -7.76724 -0.000932534 0 3.14159
25 6.02794 0 0 0.898922 0.0920715 1.53812
26 11.7344 0 0 0.00140267 0 0.551127
27 8.81167 0 0 0.0776863 0 0
28 5.77884 0 0 0.0520498 0 0
29 2.23249 0 0 0.0256366 0 0
30 11.4725 0 0 0.101416 -0.138808 -0.168659
31 0.615813 0.994371 -0.809165 -2.97071 0.0377088 0.613352
32 2.24752 0 0 -0.0792452 0.157365 0.634491
33 1.11936 0 0 0.000257573 0.216941 0.477929
34 3.71348 0.10264 0.102191 -1.55078 1.0009 -0.0625511
35 1.72615 0 0 0.00484503 0.00331918 1.0817
36 1.21112 0 0 0.0142296 0.0104192 1.53627
37 3.5992 1.06012 0.0708879 -1.75855 1.01668 -0.16381
38 1.66069 0 0 0.0132136 0.0176563 0.864594
39 1.16699 0 0 -0.0515123 0.0185073 1.64165
40 2.18853 -0.50104 0.0576587 -1.59892 0.0711593 -0.0997063
41 1.29609 0 0 -0.029491 -0.0363876 0.870095
42 1.62202 -0.000712395 -0.000470161 -0.00671594 -0.0123832 0.929895
43 1.2224 0 0 0.0197071 -0.00500037 1.81796
44 1.76707 -1.27612 0.0366411 -1.53586 0.195318 -0.0870187
45 1.55587 0 0 0.0272767 -0.0402817 0.694189
46 1.24273 0 0 0.000599278 0 0.70809
47 0.784531 0 0 -0.00593344 0.000318759 0.628058
48 0 0 0 0 0 0
49 0.721531 -17.3663 -3.07452 0.0281237 0.516494 2.81776
50 0 0 1.57913 0 0 0
51 -0.0597627 0 2.14219 1.5708 -0.465765 0
52 0.822428 0 0 0 0 -1.59206
53 1.65555 0 0 0 0 -0.179192
54 -3.4134 -17.5361 -4.8954 0.349279 -0.3779 2.72138
55 -0.445472 0 2.22513 1.43126 -1.5609 -1.52465
56 0.30432 0 0 0 0 -0.0269022
57 0.287034 0 0 0 0 0.0456978
58 0.201059 0 0 0 0 0.00642933
59 0.232012 0 0 0 0 0.0372465
60 -0.0501714 0 2.09036 0 0.610865 0
61 0.34296 0 1.69748 0 0 0
62 -0.49446 -2.33627 -0.838784 0 0 0
time 1
0 1.938 5.07088 -6.6269 0 0 0
1 6.02794 0 0 -0.674642 0.274301 -1.38332
2 11.7344 0 0 -0.00140281 0 -1.0976
3 8.81138 -0.000450134 -0.000112057 -0.237412 0 0.000157761
4 5.77839 0.000286102 0 -0.159066 0 0.000104598
5 2.23163 -0.000329018 -0.000363827 -0.0783459 0 0
6 11.4725 0 0 -0.388427 -0.171046 0.608706
7 0.61522 -0.993091 -0.8107 -3.1239 0.583051 -0.493728
8 2.24752 0 0 0.405295 -0.112499 -0.0565272
9 1.11936 0 0 0.358996 0.310251 -0.629109
10 3.71348 -0.10264 0.102191 1.55701 0.670238 0.0708458
11 1.72615 0 0 0.00954792 -0.00970084 -0.889147
12 1.21114 0 0 -0.00385457 0.0172099 -0.81781
13 3.59919 -1.06012 0.0708882 1.55765 0.555874 -0.0696805
14 1.66069 0 0 -0.0427853 0.0551272 -0.821598
15 1.167 0 0 -0.0176026 0.00756601 -0.775185
16 2.18853 0.50104 0.0576589 1.57003 -0.111495 0.225983
17 1.29609 0 0 0.0146441 -0.044487 -0.506886
18 1.62202 0.000714302 -0.000471115 0.018215 -0.035718 -0.904846
19 1.22241 0 0 0.00915932 -0.00545177 -0.758137
20 1.76707 1.27612 0.0366411 1.57004 -0.0293956 0.261465
21 1.55588 0 0 -0.0149061 0.0289929 -0.180394
22 1.24273 0 0 -0.00059888 0 -0.628068
23 0.784522 0 0 0.0109357 0.0120947 -0.54806
24 -1.93761 8.00428 -7.76724 -0.000932534 0 3.14159
25 6.02794 0 0 0.898868 0.0955216 1.53472
26 11.7344 0 0 0.00140273 0 0.554946
27 8.81167 0 0 0.0575285 0 0
28 5.77884 0 0 0.0385441 0 0
29 2.23249 0 0 0.0189844 0 0
30 11.4725 0 0 0.079955 -0.133665 -0.165474
31 0.615812 0.994372 -0.809165 -2.97071 0.0377087 0.613352
32 2.24752 0 0 -0.0792454 0.157365 0.63449
33 1.11936 0 0 0.000257546 0.216941 0.477929
34 3.71349 0.102638 0.102191 -1.55078 1.0009 -0.0625513
35 1.72615 0 0 0.00484506 0.00331919 1.0817
36 1.21112 0 0 0.0142296 0.0104192 1.53627
37 3.5992 1.06012 0.0708879 -1.75855 1.01668 -0.16381
38 1.66069 0 0 0.0132138 0.0176564 0.864595
39 1.16699 0 0 -0.0515123 0.0185073 1.64165
40 2.18853 -0.50104 0.0576591 -1.59892 0.0711594 -0.0997064
41 1.29609 0 0 -0.029491 -0.0363877 0.870095
42 1.62202 -0.000711441 -0.000470161 -0.00671606 -0.0123834 0.929895
43 1.22241 0 0 0.0197072 -0.00500032 1.81796
44 1.76707 -1.27612 0.0366409 -1.53586 0.195318 -0.0870188
45 1.55588 0 0 0.0272769 -0.0402816 0.694189
46 1.24273 0 0 0.000599211 0 0.70809
47 0.784531 0 0 -0.00593349 0.000318857 0.628058
48 0 0 0 0 0 0
49 0.706848 -17.3985 -3.11469 0.0211303 0.512562 2.80942
50 0 0 1.57913 0 0 0
51 -0.0597627 0 2.14219 1.5708 -0.465765 0
52 0.822427 0 0 0 0 -1.59206
53 1.65555 0 0 0 0 -0.179192
54 -3.46518 -17.538 -4.96913 0.359889 -0.397209 2.71604
55 -0.445472 0 2.22513 1.43126 -1.5609 -1.52465
56 0.304319 0 0 0 0 -0.0269023
57 0.287034 0 0 0 0 0.0456978
58 0.201059 0 0 0 0 0.00642941
59 0.232013 0 0 0 0 0.0372464
60 -0.0501709 0 2.09035 0 0.610865 0
61 0.34296 0 1.69747 0 0 0
62 -0.49446 -2.33627 -0.838784 0 0 0
time 2
0 1.938 5.07088 -6.6269 0 0 0
1 6.02794 0 0 -0.675469 0.27387 -1.38263
2 11.7344 0 0 -0.00140274 0 -1.09361
3 8.81138 -0.000450134 -0.000112057 -0.251351 0 0.000157158
4 5.77839 0.000286102 0 -0.168405 0 0.000104161
5 2.23163 -0.000329018 -0.000364304 -0.0829458 0 0
6 11.4725 0 0 -0.392283 -0.155971 0.600388
7 0.615219 -0.99309 -0.810701 -3.1239 0.583051 -0.493728
8 2.24752 0 0 0.405591 -0.111483 -0.0589516
9 1.11936 0 0 0.360381 0.308761 -0.624799
10 3.71348 -0.10264 0.102191 1.55701 0.670238 0.0708461
11 1.72615 0 0 0.00954791 -0.00970074 -0.889147
12 1.21114 0 0 -0.00385461 0.0172099 -0.81781
13 3.59919 -1.06012 0.070888 1.55765 0.555875 -0.0696803
14 1.66069 0 0 -0.0427853 0.0551272 -0.821598
15 1.167 0 0 -0.0176027 0.00756591 -0.775185
16 2.18852 0.50104 0.0576587 1.57003 -0.111495 0.225983
17 1.29609 0 0 0.014644 -0.044487 -0.506886
18 1.62201 0.000713348 -0.000471115 0.018215 -0.0357179 -0.904846
19 1.22241 0 0 0.0091593 -0.00545178 -0.758137
20 1.76707 1.27612 0.0366409 1.57004 -0.0293956 0.261465
21 1.55587 0 0 -0.014906 0.0289929 -0.180394
22 1.24274 0 0 -0.000598842 0 -0.628068
23 0.784525 0 0 0.0109357 0.0120948 -0.54806
24 -1.93761 8.00428 -7.76724 -0.000932534 0 3.14159
25 6.02794 0 0 0.898821 0.100694 1.52947
26 11.7344 0 0 0.00140272 0 0.560659
27 8.81167 0 0 0.0239515 0 0
28 5.77884 0 0 0.0160475 0 0
29 2.23249 0 0 0.00790407 0 0
30 11.4725 0 0 0.0444875 -0.125727 -0.161545
31 0.615813 0.994372 -0.809165 -2.96931 0.0377989 0.613339
32 2.24752 0 0 -0.079305 0.15332 0.626496
33 1.11936 0 0 -0.00442063 0.217096 0.451634
34 3.71349 0.102639 0.102191 -1.55078 1.0009 -0.0625513
35 1.72615 0 0 0.00484498 0.00331905 1.0817
36 1.21112 0 0 0.0142297 0.0104191 1.53627
37 3.5992 1.06012 0.0708882 -1.75855 1.01668 -0.16381
38 1.66069 0 0 0.0132137 0.0176564 0.864595
39 1.16699 0 0 -0.0515122 0.0185074 1.64165
40 2.18853 -0.50104 0.0576591 -1.59892 0.0711593 -0.0997066
41 1.29609 0 0 -0.0294909 -0.0363876 0.870095
42 1.62202 -0.000713348 -0.000471115 -0.00671604 -0.0123832 0.929895
43 1.22241 0 0 0.019707 -0.0050003 1.81796
44 1.76707 -1.27612 0.0366416 -1.53586 0.195318 -0.087019
45 1.55588 0 0 0.0272768 -0.0402817 0.694189
46 1.24273 0 0 0.000599246 0 0.70809
47 0.784531 0 0 -0.00593346 0.000318744 0.628058
48 0 0 0 0 0 0
49 0.710972 -17.4129 -3.14342 0.0134315 0.507723 2.79275
50 0 0 1.57913 0 0 0
51 -0.059763 0 2.14219 1.5708 -0.465765 0
52 0.822426 0 0 0 0 -1.59206
53 1.65555 0 0 0 0 -0.179192
54 -3.55257 -17.543 -5.08528 0.377396 -0.429065 2.7056
55 -0.445472 0 2.22513 1.43128 -1.5609 -1.52466
56 0.30432 0 0 0 0 -0.0269022
57 0.287035 0 0 0 0 0.0456978
58 0.20106 0 0 0 0 0.00642937
59 0.232012 0 0 0 0 0.0372464
60 -0.0501714 0 2.09035 0 0.610865 0
61 0.342961 0 1.69748 0 0 0
62 -0.49446 -2.33627 -0.838784 0 0 0
time 3
0 1.938 5.07088 -6.6269 0 0 0
1 6.02794 0 0 -0.679518 0.276151 -1.37094
2 11.7344 0 0 -0.00140285 0 -1.11039
3 8.81138 -0.000450134 -0.000112057 -0.257538 0 0.0001574
4 5.77839 0.000287056 0 -0.17255 0 0.000104248
5 2.23163 -0.000328064 -0.000363827 -0.0849876 0 0
6 11.4725 0 0 -0.386934 -0.143538 0.58529
7 0.615219 -0.993091 -0.8107 -3.1239 0.583051 -0.493728
8 2.24752 0 0 0.405883 -0.110478 -0.0613516
9 1.11936 0 0 0.361751 0.307285 -0.620533
10 3.71348 -0.10264 0.102191 1.55701 0.670238 0.0708462
11 1.72615 0 0 0.0095479 -0.00970078 -0.889147
12 1.21114 0 0 -0.00385462 0.0172099 -0.81781
13 3.59919 -1.06012 0.070888 1.55765 0.555875 -0.0696805
14 1.66069 0 0 -0.0427853 0.0551272 -0.821597
15 1.167 0 0 -0.0176027 0.007566 -0.775185
16 2.18852 0.50104 0.0576589 1.57003 -0.111495 0.225983
17 1.29609 0 0 0.0146441 -0.044487 -0.506886
18 1.62202 0.000713348 -0.000470638 0.018215 -0.0357179 -0.904845
19 1.22241 0 0 0.00915939 -0.00545177 -0.758137
20 1.76707 1.27612 0.0366411 1.57004 -0.0293956 0.261465
21 1.55588 0 0 -0.014906 0.0289929 -0.180394
22 1.24273 0 0 -0.000598838 0 -0.628068
23 0.784523 0 0 0.0109357 0.0120947 -0.54806
24 -1.93761 8.00428 -7.76724 -0.000932534 0 3.14159
25 6.02794 0 0 0.89877 0.107265 1.52268
26 11.7344 0 0 0.00140279 0 0.567789
27 8.81167 0 0 -0.0210907 0 0
28 5.77884 0 0 -0.0141308 0 0
29 2.23249 0 0 -0.00695996 0 0
30 11.4725 0 0 -0.00300276 -0.115389 -0.156869
31 0.615811 0.994372 -0.809165 -2.96588 0.0384317 0.613248
32 2.24752 0 0 -0.079381 0.142055 0.604371
33 1.11936 0 0 -0.0161225 0.216686 0.385897
34 3.71348 0.102638 0.102191 -1.55078 1.0009 -0.0625516
35 1.72615 0 0 0.00484497 0.00331912 1.0817
36 1.21112 0 0 0.0142296 0.0104192 1.53627
37 3.5992 1.06012 0.0708878 -1.75855 1.01668 -0.16381
38 1.66069 0 0 0.0132137 0.0176565 0.864595
39 1.16699 0 0 -0.0515123 0.0185072 1.64165
40 2.18853 -0.50104 0.0576589 -1.59892 0.0711594 -0.0997063
41 1.29609 0 0 -0.029491 -0.0363876 0.870095
42 1.62201 -0.000713348 -0.000470161 -0.00671597 -0.0123834 0.929894
43 1.2224 0 0 0.019707 -0.00500028 1.81796
44 1.76707 -1.27612 0.0366409 -1.53586 0.195318 -0.0870188
45 1.55588 0 0 0.0272768 -0.0402816 0.694189
46 1.24273 0 0 0.000599281 0 0.70809
47 0.784531 0 0 -0.00593345 0.000318743 0.628058
48 0 0 0 0 0 0
49 0.808452 -17.2623 -3.02101 0.0249316 0.511962 2.77994
50 0 0 1.57913 0 0 0
51 -0.0597625 0 2.14219 1.5708 -0.465766 0
52 0.822426 0 0 0 0 -1.59206
53 1.65555 0 0 0 0 -0.179192
54 -3.67216 -17.5506 -5.23636 0.401875 -0.471373 2.68985
55 -0.445471 0 2.22513 1.43126 -1.5609 -1.52465
56 0.304319 0 0 0 0 -0.0269022
57 0.287034 0 0 0 0 0.0456978
58 0.201059 0 0 0 0 0.00642937
59 0.232012 0 0 0 0 0.0372464
60 -0.0501714 0 2.09036 0 0.610865 0
61 0.342959 0 1.69747 0 0 0
62 -0.49446 -2.33627 -0.838784 0 0 0
time 4
0 1.938 5.07088 -6.6269 0 0 0
1 6.02794 0 0 -0.689994 0.282962 -1.34043
2 11.7344 0 0 -0.00140288 0 -1.16193
3 8.81138 -0.000449181 -0.000112057 -0.248038 0 0.000157273
4 5.77839 0.000287056 0 -0.166185 0 0.000104184
5 2.23163 -0.000329018 -0.000364304 -0.0818526 0 0
6 11.4725 0 0 -0.361621 -0.138395 0.548664
7 0.615219 -0.993091 -0.8107 -3.1239 0.583051 -0.493728
8 2.24752 0 0 0.406172 -0.109484 -0.0637255
9 1.11936 0 0 0.363104 0.305824 -0.616316
10 3.71348 -0.102641 0.102191 1.55701 0.670238 0.0708459
11 1.72615 0 0 0.00954787 -0.00970073 -0.889148
12 1.21114 0 0 -0.00385457 0.0172099 -0.81781
13 3.59919 -1.06012 0.070888 1.55765 0.555875 -0.0696804
14 1.66069 0 0 -0.0427853 0.0551272 -0.821598
15 1.167 0 0 -0.0176025 0.00756599 -0.775185
16 2.18852 0.501039 0.0576591 1.57003 -0.111496 0.225983
17 1.29609 0 0 0.014644 -0.044487 -0.506886
18 1.62202 0.000714302 -0.000470638 0.0182151 -0.035718 -0.904846
19 1.22241 0 0 0.00915938 -0.00545177 -0.758137
20 1.76707 1.27612 0.0366414 1.57004 -0.0293958 0.261465
21 1.55588 0 0 -0.0149061 0.0289928 -0.180395
22 1.24273 0 0 -0.00059888 0 -0.628068
23 0.784522 0 0 0.0109357 0.0120947 -0.54806
24 -1.93761 8.00428 -7.76724 -0.000932534 0 3.14159
25 6.02794 0 0 0.898703 0.114914 1.51468
26 11.7344 0 0 0.0014028 0 0.57586
27 8.81167 0 0 -0.0756894 0 0
28 5.77884 0 0 -0.050712 0 0
29 2.23249 0 0 -0.0249776 0 0
30 11.4725 0 0 -0.0605327 -0.103046 -0.151441
31 0.615812 0.994371 -0.809165 -2.96153 0.0401484 0.612998
32 2.24752 0 0 -0.0793024 0.124854 0.570923
33 1.11936 0 0 -0.0312628 0.214437 0.300489
34 3.71349 0.102639 0.102191 -1.55078 1.0009 -0.0625515
35 1.72615 0 0 0.00484503 0.003319 1.0817
36 1.21112 0 0 0.0142297 0.0104191 1.53627
37 3.5992 1.06012 0.0708883 -1.75855 1.01668 -0.16381
38 1.66069 0 0 0.0132136 0.0176564 0.864595
39 1.16699 0 0 -0.0515123 0.0185073 1.64165
40 2.18853 -0.50104 0.0576589 -1.59892 0.0711593 -0.0997064
41 1.29609 0 0 -0.0294908 -0.0363876 0.870095
42 1.62201 -0.000713348 -0.000469208 -0.00671603 -0.0123834 0.929895
43 1.2224 0 0 0.0197072 -0.00500043 1.81796
44 1.76707 -1.27612 0.0366414 -1.53586 0.195318 -0.0870189
45 1.55588 0 0 0.0272769 -0.0402817 0.694189
46 1.24273 0 0 0.000599258 0 0.70809
47 0.784531 0 0 -0.00593343 0.000318807 0.628058
48 0 0 0 0 0 0
49 1.06563 -16.7872 -2.62201 0.0793173 0.538365 2.77661
50 0 0 1.57913 0 0 0
51 -0.059763 0 2.14219 1.5708 -0.465766 0
52 0.822427 0 0 0 0 -1.59206
53 1.65555 0 0 0 0 -0.179192
54 -3.82055 -17.5601 -5.41467 0.433662 -0.521957 2.66833
55 0.136341 0.367236 -0.82975 1.43126 -1.5609 -1.52465
56 0.30432 0 0 0 0 -0.0269022
57 0.287033 0 0 0 0 0.0456978
58 0.201059 0 0 0 0 0.00642933
59 0.232012 0 0 0 0 0.0372464
60 -0.0501714 0 2.09035 0 0.610865 0
61 0.34296 0 1.69747 0 0 0
62 -0.49446 -2.33627 -0.838784 0 0 0
time 5
0 1.938 5.07088 -6.6269 0 0 0
1 6.02794 0 0 -0.709372 0.292702 -1.2939
2 11.7344 0 0 -0.00140296 0 -1.24031
3 8.81138 -0.000452042 -0.00011158 -0.229751 0 0.000157652
4 5.77839 0.000286102 0 -0.153933 0 0.000104515
5 2.23163 -0.000329971 -0.000364304 -0.075818 0 0
6 11.4725 0 0 -0.320565 -0.135407 0.481685
7 0.61522 -0.993091 -0.8107 -3.1239 0.583051 -0.493728
8 2.24752 0 0 0.406456 -0.108503 -0.0660706
9 1.11936 0 0 0.36444 0.304379 -0.612151
10 3.71348 -0.102641 0.102191 1.55701 0.670238 0.0708465
11 1.72615 0 0 0.00954788 -0.00970082 -0.889148
12 1.21114 0 0 -0.00385456 0.0172098 -0.81781
13 3.59919 -1.06012 0.0708878 1.55765 0.555875 -0.0696803
14 1.66069 0 0 -0.0427854 0.0551272 -0.821597
15 1.167 0 0 -0.0176026 0.00756588 -0.775185
16 2.18853 0.501039 0.0576587 1.57003 -0.111495 0.225983
17 1.29609 0 0 0.014644 -0.044487 -0.506886
18 1.62202 0.000713348 -0.000470161 0.018215 -0.0357179 -0.904845
19 1.22241 0 0 0.00915933 -0.0054518 -0.758137
20 1.76707 1.27612 0.0366409 1.57004 -0.0293957 0.261465
21 1.55588 0 0 -0.0149061 0.0289929 -0.180394
22 1.24273 0 0 -0.000598885 0 -0.628069
23 0.784524 0 0 0.0109357 0.0120947 -0.54806
24 -1.93761 8.00428 -7.76724 -0.000932534 0 3.14159
25 6.02794 0 0 0.89861 0.12333 1.50578
26 11.7344 0 0 0.00140269 0 0.584431
27 8.81167 0 0 -0.138007 0 0
28 5.77884 0 0 -0.0924646 0 0
29 2.23249 0 0 -0.0455422 0 0
30 11.4725 0 0 -0.12612 -0.0890955 -0.145279
31 0.615812 0.994371 -0.809165 -2.95739 0.0434922 0.612511
32 2.24752 0 0 -0.0788924 0.103001 0.528959
33 1.11936 0 0 -0.0461911 0.209975 0.215223
34 3.71349 0.102638 0.102191 -1.55078 1.0009 -0.0625518
35 1.72615 0 0 0.00484499 0.00331911 1.0817
36 1.21112 0 0 0.0142296 0.0104192 1.53627
37 3.5992 1.06012 0.0708882 -1.75855 1.01668 -0.16381
38 1.66069 0 0 0.0132136 0.0176564 0.864594
39 1.16699 0 0 -0.051512 0.0185074 1.64165
40 2.18853 -0.50104 0.0576591 -1.59892 0.0711593 -0.0997064
41 1.29609 0 0 -0.0294909 -0.0363877 0.870095
42 1.62202 -0.000712395 -0.000470161 -0.00671604 -0.0123833 0.929895
43 1.2224 0 0 0.0197069 -0.00500018 1.81796
44 1.76707 -1.27612 0.0366411 -1.53586 0.195318 -0.0870188
45 1.55588 0 0 0.027277 -0.0402817 0.694188
46 1.24273 0 0 0.000599194 0 0.70809
47 0.784531 0 0 -0.00593346 0.000318746 0.628058
48 0 0 0 0 0 0
49 1.49926 -15.9668 -1.96465 0.182783 0.584633 2.78623
50 0 0 1.57913 0 0 0
51 -0.059763 0 2.14219 1.5708 -0.465765 0
52 0.822426 0 0 0 0 -1.59206
53 1.65555 0 0 0 0 -0.179192
54 -3.99404 -17.5709 -5.61239 0.473299 -0.578558 2.64035
55 0.136341 0.367235 -0.82975 1.43125 -1.5609 -1.52463
56 0.304319 0 0 0 0 -0.0269022
57 0.287033 0 0 0 0 0.0456978
58 0.201058 0 0 0 0 0.0064294
59 0.232012 0 0 0 0 0.0372464
60 -0.0501709 0 2.09035 0 0.610865 0
61 0.342959 0 1.82042 0 0 0
62 -0.49446 -2.33627 -0.838784 0 0 0
time 6
0 1.938 5.07088 -6.6269 0 0 0
1 6.02794 0 0 -0.739399 0.302742 -1.2388
2 11.7344 0 0 -0.00140292 0 -1.33194
3 8.81138 -0.000450134 -0.000112534 -0.212643 0 0.000157682
4 5.77839 0.000286102 0 -0.142471 0 0.000104599
5 2.23163 -0.000329971 -0.000363827 -0.0701722 0 0
6 11.4725 0 0 -0.278603 -0.1312 0.393514
7 0.615219 -0.993092 -0.810701 -3.1239 0.583051 -0.493728
8 2.24752 0 0 0.406736 -0.107535 -0.0683858
9 1.11936 0 0 0.365758 0.302953 -0.608042
10 3.71348 -0.102641 0.10219 1.55701 0.670238 0.0708462
11 1.72615 0 0 0.00954785 -0.0097009 -0.889147
12 1.21114 0 0 -0.00385461 0.0172099 -0.81781
13 3.59919 -1.06012 0.0708873 1.55765 0.555875 -0.0696805
14 1.66069 0 0 -0.0427853 0.0551273 -0.821597
15 1.167 0 0 -0.0176026 0.00756602 -0.775185
16 2.18852 0.501038 0.0576589 1.57003 -0.111495 0.225983
17 1.29609 0 0 0.014644 -0.0444869 -0.506886
18 1.62202 0.000715256 -0.000471115 0.0182149 -0.0357178 -0.904846
19 1.22241 0 0 0.00915924 -0.0054519 -0.758137
20 1.76707 1.27612 0.0366404 1.57004 -0.0293956 0.261464
21 1.55588 0 0 -0.0149061 0.0289929 -0.180394
22 1.24274 0 0 -0.000598893 0 -0.628068
23 0.784523 0 0 0.0109357 0.0120947 -0.54806
24 -1.93761 8.00428 -7.76724 -0.000932534 0 3.14159
25 6.02794 0 0 0.898488 0.132221 1.49627
26 11.7344 0 0 0.00140263 0 0.593108
27 8.81167 0 0 -0.20627 0 0
28 5.77884 0 0 -0.138201 0 0
29 2.23249 0 0 -0.0680692 0 0
30 11.4725 0 0 -0.197779 -0.0739347 -0.138427
31 0.615813 0.994372 -0.809165 -2.95458 0.0490059 0.611703
32 2.24752 0 0 -0.0779861 0.0777958 0.48127
33 1.11936 0 0 -0.0574335 0.204204 0.149836
34 3.71349 0.102639 0.102191 -1.55078 1.0009 -0.0625517
35 1.72615 0 0 0.00484499 0.00331911 1.0817
36 1.21112 0 0 0.0142298 0.0104192 1.53627
37 3.5992 1.06012 0.0708883 -1.75855 1.01668 -0.16381
38 1.66069 0 0 0.0132137 0.0176565 0.864594
39 1.16699 0 0 -0.0515123 0.0185072 1.64165
40 2.18853 -0.50104 0.0576587 -1.59892 0.0711594 -0.0997063
41 1.29609 0 0 -0.0294909 -0.0363876 0.870095
42 1.62202 -0.000713348 -0.000470161 -0.00671603 -0.0123833 0.929895
43 1.22241 0 0 0.0197072 -0.00500027 1.81796
44 1.76707 -1.27612 0.0366414 -1.53586 0.195318 -0.0870188
45 1.55587 0 0 0.0272769 -0.0402818 0.694189
46 1.24273 0 0 0.000599266 0 0.70809
47 0.784532 0 0 -0.00593343 0.000318839 0.628058
48 0 0 0 0 0 0
49 2.11493 -14.8645 -1.12792 0.329961 0.63507 2.81875
50 0 0 1.57913 0 0 0
51 -0.059763 0 2.14219 1.5708 -0.465765 0
52 0.822427 0 0 0 0 -1.59206
53 1.65555 0 0 0 0 -0.179192
54 -4.18841 -17.5827 -5.82185 0.521463 -0.63884 2.60508
55 0.136341 0.367234 -0.829752 1.43126 -1.5609 -1.52465
56 0.304319 0 0 0 0 -0.0269022
57 0.287034 0 0 0 0 0.0456978
58 0.20106 0 0 0 0 0.00642939
59 0.232012 0 0 0 0 0.0372465
60 -0.0501709 0 2.09035 0 0.610865 0
61 0.34296 0 1.82042 0 0 0
62 -0.49446 -2.33627 -0.838784 0 0 0
time 7
0 1.938 5.07088 -6.6269 0 0 0
1 6.02794 0 0 -0.781466 0.310995 -1.18157
2 11.7344 0 0 -0.0014028 0 -1.42587
3 8.81138 -0.000450134 -0.000112295 -0.205487 0 0.000158058
4 5.77839 0.000286102 0 -0.137677 0 0.000104963
5 2.23163 -0.000328064 -0.000363827 -0.0678108 0 0
6 11.4725 0 0 -0.249109 -0.125767 0.295932
7 0.615218 -0.993091 -0.8107 -3.1239 0.583051 -0.493728
8 2.24752 0 0 0.407012 -0.106582 -0.0706684
9 1.11936 0 0 0.367056 0.301544 -0.603992
10 3.71348 -0.102642 0.10219 1.55701 0.670238 0.0708463
11 1.72615 0 0 0.00954786 -0.00970077 -0.889147
12 1.21114 0 0 -0.00385458 0.0172099 -0.81781
13 3.59919 -1.06012 0.070888 1.55765 0.555875 -0.0696802
14 1.66069 0 0 -0.0427853 0.0551272 -0.821597
15 1.167 0 0 -0.0176026 0.00756601 -0.775185
16 2.18852 0.501039 0.0576591 1.57003 -0.111495 0.225983
17 1.29609 0 0 0.0146441 -0.044487 -0.506886
18 1.62202 0.000714302 -0.000470161 0.0182151 -0.0357179 -0.904846
19 1.22241 0 0 0.00915931 -0.00545174 -0.758137
20 1.76707 1.27612 0.0366411 1.57004 -0.0293955 0.261465
21 1.55588 0 0 -0.0149061 0.0289929 -0.180394
22 1.24274 0 0 -0.000598776 0 -0.628068
23 0.784523 0 0 0.0109357 0.0120947 -0.54806
24 -1.93761 8.00428 -7.76724 -0.000932534 0 3.14159
25 6.02794 0 0 0.898336 0.141317 1.48646
26 11.7344 0 0 0.0014027 0 0.601564
27 8.81167 0 0 -0.278747 0 0
28 5.77884 0 0 -0.18676 0 0
29 2.23249 0 0 -0.0919865 0 0
30 11.4725 0 0 -0.273523 -0.0579627 -0.130971
31 0.615813 0.994372 -0.809165 -2.95421 0.0572328 0.610487
32 2.24752 0 0 -0.0764435 0.0505655 0.430618
33 1.11936 0 0 -0.0618242 0.198875 0.123902
34 3.71349 0.102639 0.102191 -1.55078 1.0009 -0.0625516
35 1.72615 0 0 0.00484501 0.0033192 1.0817
36 1.21112 0 0 0.0142296 0.0104192 1.53627
37 3.5992 1.06012 0.0708883 -1.75855 1.01668 -0.16381
38 1.66069 0 0 0.0132136 0.0176563 0.864594
39 1.16699 0 0 -0.0515121 0.0185072 1.64165
40 2.18853 -0.50104 0.0576591 -1.59892 0.0711594 -0.0997063
41 1.29609 0 0 -0.0294908 -0.0363877 0.870095
42 1.62202 -0.000714302 -0.000469208 -0.00671597 -0.0123833 0.929895
43 1.2224 0 0 0.0197071 -0.00500026 1.81796
44 1.76707 -1.27612 0.0366411 -1.53586 0.195318 -0.0870186
45 1.55587 0 0 0.0272769 -0.0402816 0.694189
46 1.24273 0 0 0.000599176 0 0.70809
47 0.784531 0 0 -0.00593357 0.000318661 0.628058
48 0 0 0 0 0 0
49 2.90969 -13.5588 -0.187409 0.511666 0.672849 2.87837
50 0 0 1.57913 0 0 0
51 -0.0597625 0 2.14219 1.5708 -0.465765 0
52 0.822426 0 0 0 0 -1.59206
53 1.65555 0 0 0 0 -0.179192
54 -4.3988 -17.595 -6.03571 0.578859 -0.700407 2.56158
55 0.136342 0.367236 -0.829751 1.43126 -1.5609 -1.52465
56 0.30432 0 0 0 0 -0.0269022
57 0.287033 0 0 0 0 0.0456978
58 0.201059 0 0 0 0 0.00642936
59 0.232012 0 0 0 0 0.0372464
60 -0.0501699 0 2.09035 0 0.610865 0
61 0.342959 0 1.82042 0 0 0
62 -0.49446 -2.33627 -0.838784 0 0 0
time 8
0 1.938 5.07088 -6.6269 0 0 0
1 6.02794 0 0 -0.835898 0.315227 -1.12779
2 11.7344 0 0 -0.0014028 0 -1.5127
3 8.81138 -0.000449181 -0.000112057 -0.214442 0 0.000157785
4 5.77839 0.000286102 0 -0.143676 0 0.000104734
5 2.23163 -0.000329018 -0.000364304 -0.070766 0 0
6 11.4725 0 0 -0.240686 -0.121684 0.20167
7 0.61522 -0.993092 -0.8107 -3.1239 0.583051 -0.493728
8 2.24752 0 0 0.407284 -0.105643 -0.0729165
9 1.11936 0 0 0.368333 0.300157 -0.600005
10 3.71348 -0.102643 0.102191 1.55701 0.670238 0.070846
11 1.72615 0 0 0.00954788 -0.00970095 -0.889147
12 1.21114 0 0 -0.00385462 0.0172098 -0.81781
13 3.59919 -1.06012 0.070888 1.55765 0.555874 -0.0696804
14 1.66069 0 0 -0.0427854 0.0551272 -0.821597
15 1.167 0 0 -0.0176028 0.00756592 -0.775185
16 2.18853 0.501038 0.0576591 1.57003 -0.111496 0.225983
17 1.29609 0 0 0.0146439 -0.0444869 -0.506886
18 1.62202 0.000713348 -0.000471115 0.018215 -0.035718 -0.904846
19 1.22241 0 0 0.00915926 -0.00545195 -0.758137
20 1.76707 1.27612 0.0366411 1.57004 -0.0293956 0.261464
21 1.55588 0 0 -0.0149061 0.0289928 -0.180394
22 1.24273 0 0 -0.000599035 0 -0.628068
23 0.784524 0 0 0.0109358 0.0120947 -0.54806
24 -1.93761 8.00428 -7.76724 -0.000932534 0 3.14159
25 6.02794 0 0 0.898135 0.150564 1.47643
26 11.7344 0 0 0.0014027 0 0.610034
27 8.81167 0 0 -0.353691 0 0
28 5.77884 0 0 -0.236973 0 0
29 2.23249 0 0 -0.116718 0 0
30 11.4725 0 0 -0.351357 -0.0415843 -0.123288
31 0.615813 0.994372 -0.809165 -2.95715 0.104047 0.623217
32 2.24752 0 0 -0.0702059 -0.00206007 0.316248
33 1.11936 0 0 -0.0595589 0.172366 0.139834
34 3.71349 0.102638 0.102191 -1.55078 1.0009 -0.0625514
35 1.72615 0 0 0.00484498 0.00331917 1.0817
36 1.21112 0 0 0.0142296 0.0104191 1.53627
37 3.5992 1.06012 0.0708883 -1.75855 1.01668 -0.16381
38 1.66069 0 0 0.0132136 0.0176565 0.864594
39 1.16699 0 0 -0.0515123 0.0185074 1.64165
40 2.18853 -0.50104 0.0576591 -1.59892 0.0711594 -0.0997063
41 1.29609 0 0 -0.029491 -0.0363877 0.870095
42 1.62201 -0.000713348 -0.000469208 -0.00671602 -0.0123833 0.929895
43 1.22241 0 0 0.0197073 -0.00500038 1.81796
44 1.76707 -1.27612 0.0366411 -1.53586 0.195318 -0.0870187
45 1.55587 0 0 0.0272768 -0.0402816 0.694189
46 1.24273 0 0 0.000599146 0 0.70809
47 0.784531 0 0 -0.00593342 0.00031879 0.628058
48 0 0 0 0 0 0
49 3.85849 -12.1428 0.790808 0.70931 0.684861 2.95717
50 0 0 1.57913 0 0 0
51 -0.059763 0 2.14219 1.5708 -0.465765 0
52 0.822426 0 0 0 0 -1.59206
53 1.65555 0 0 0 0 -0.179192
54 -4.61968 -17.6075 -6.24719 0.646033 -0.760837 2.50905
55 0.136341 0.367236 -0.829751 1.43126 -1.5609 -1.52465
56 0.30432 0 0 0 0 -0.0269022
57 0.287034 0 0 0 0 0.0456978
58 0.20106 0 0 0 0 0.00642935
59 0.232012 0 0 0 0 0.0372465
60 -0.0501709 0 2.09036 0 0.610865 0
61 0.34296 0 1.82042 0 0 0
62 -0.49446 -2.33627 -0.838784 0 0 0
time 9
0 1.938 5.07088 -6.6269 0 0 0
1 6.02794 0 0 -0.900834 0.314003 -1.08068
2 11.7344 0 0 -0.00140278 0 -1.58755
3 8.81138 -0.000450134 -0.000112295 -0.241006 0 0.000157718
4 5.77839 0.000286102 0 -0.161474 0 0.000104647
5 2.23163 -0.000328064 -0.000363827 -0.0795319 0 0
6 11.4725 0 0 -0.255195 -0.120847 0.124011
7 0.615219 -0.993091 -0.8107 -3.1239 0.583051 -0.493728
8 2.24752 0 0 0.40755 -0.104721 -0.075128
9 1.11936 0 0 0.369588 0.298791 -0.596084
10 3.71348 -0.10264 0.102191 1.55701 0.670238 0.0708465
11 1.72615 0 0 0.00954776 -0.00970085 -0.889147
12 1.21114 0 0 -0.00385477 0.0172099 -0.81781
13 3.59919 -1.06012 0.0708885 1.55765 0.555875 -0.0696802
14 1.66069 0 0 -0.0427852 0.0551272 -0.821597
15 1.167 0 0 -0.0176028 0.00756592 -0.775185
16 2.18852 0.50104 0.0576591 1.57003 -0.111495 0.225983
17 1.29609 0 0 0.014644 -0.044487 -0.506886
18 1.62202 0.000714302 -0.000471115 0.018215 -0.035718 -0.904845
19 1.22241 0 0 0.00915924 -0.0054519 -0.758137
20 1.76707 1.27612 0.0366416 1.57004 -0.0293957 0.261465
21 1.55588 0 0 -0.014906 0.0289928 -0.180394
22 1.24273 0 0 -0.000598937 0 -0.628068
23 0.784523 0 0 0.0109356 0.0120946 -0.54806
24 -1.93761 8.00428 -7.76724 -0.000932534 0 3.14159
25 6.02794 0 0 0.897948 0.159265 1.46682
26 11.7344 0 0 0.00140275 0 0.617091
27 8.81167 0 0 -0.429298 0 0
28 5.77884 0 0 -0.287629 0 0
29 2.23249 0 0 -0.141668 0 0
30 11.4725 0 0 -0.429285 -0.0252027 -0.11492
31 0.615812 0.994371 -0.809165 -2.96182 0.184416 0.625566
32 2.24752 0 0 -0.0640121 -0.0647926 0.224522
33 1.11936 0 0 -0.05442 0.11864 0.177673
34 3.71349 0.102638 0.10219 -1.55078 1.0009 -0.0625516
35 1.72615 0 0 0.00484498 0.003319 1.0817
36 1.21112 0 0 0.0142297 0.0104192 1.53627
37 3.5992 1.06012 0.0708871 -1.75855 1.01668 -0.16381
38 1.66069 0 0 0.0132136 0.0176564 0.864594
39 1.16699 0 0 -0.0515122 0.0185073 1.64165
40 2.18853 -0.50104 0.0576587 -1.59892 0.0711593 -0.0997063
41 1.29609 0 0 -0.0294909 -0.0363876 0.870095
42 1.62201 -0.000711441 -0.000470161 -0.00671608 -0.0123834 0.929895
43 1.2224 0 0 0.0197071 -0.00500047 1.81796
44 1.76707 -1.27612 0.0366406 -1.53586 0.195318 -0.0870188
45 1.55588 0 0 0.0272769 -0.0402816 0.694189
46 1.24273 0 0 0.000599269 0 0.70809
47 0.784531 0 0 -0.00593337 0.000318918 0.628058
48 0 0 0 0 0 0
49 4.90663 -10.7164 1.75349 0.89646 0.667764 3.03693
50 0 0 1.57913 0 0 0
51 -0.059763 0 2.14219 1.5708 -0.465765 0
52 0.822426 0 0 0 0 -1.59206
53 1.65555 0 0 0 0 -0.179192
54 -4.84493 -17.6199 -6.45026 0.723056 -0.817762 2.44709
55 0.136341 0.367237 -0.82975 1.43126 -1.5609 -1.52465
56 0.30432 0 0 0 0 -0.0269022
57 0.287034 0 0 0 0 0.0456978
58 0.201059 0 0 0 0 0.00642934
59 0.232012 0 0 0 0 0.0372464
60 -0.0501728 0 2.09036 0 0.610865 0
61 0.342958 0 1.82042 0 0 0
62 -0.49446 -2.33627 -0.838784 0 0 0
time 10
0 1.938 5.07088 -6.6269 0 0 0
1 6.02794 0 0 -0.972204 0.305838 -1.04207
2 11.7344 0 0 -0.00140283 0 -1.64688
3 8.81138 -0.000449181 -0.000112057 -0.281388 0 0.000157001
4 5.77839 0.000285149 0 -0.18853 0 0.000103929
5 2.23163 -0.000329971 -0.00036478 -0.0928582 0 0
6 11.4725 0 0 -0.288228 -0.121053 0.0727506
7 0.615219 -0.993092 -0.8107 -3.1239 0.583051 -0.493728
8 2.24752 0 0 0.407812 -0.103815 -0.077301
9 1.11936 0 0 0.37082 0.297448 -0.592233
10 3.71348 -0.102642 0.102191 1.55701 0.670238 0.0708459
11 1.72615 0 0 0.00954782 -0.00970084 -0.889147
12 1.21114 0 0 -0.00385469 0.0172098 -0.81781
13 3.59919 -1.06012 0.0708876 1.55765 0.555875 -0.0696804
14 1.66069 0 0 -0.0427854 0.0551273 -0.821598
15 1.167 0 0 -0.0176028 0.00756602 -0.775185
16 2.18852 0.501038 0.0576582 1.57003 -0.111495 0.225983
17 1.29609 0 0 0.0146442 -0.044487 -0.506886
18 1.62202 0.000714302 -0.000471115 0.0182151 -0.0357178 -0.904846
19 1.22241 0 0 0.00915921 -0.00545181 -0.758137
20 1.76707 1.27612 0.0366411 1.57004 -0.0293954 0.261465
21 1.55588 0 0 -0.014906 0.0289929 -0.180394
22 1.24273 0 0 -0.000598841 0 -0.628068
23 0.784523 0 0 0.0109356 0.0120947 -0.54806
24 -1.93761 8.00428 -7.76724 -0.000932534 0 3.14159
25 6.02794 0 0 0.897748 0.167536 1.45761
26 11.7344 0 0 0.00140267 0 0.623419
27 8.81167 0 0 -0.503672 0 0
28 5.77884 0 0 -0.33746 0 0
29 2.23249 0 0 -0.166212 0 0
30 11.4725 0 0 -0.505305 -0.00922729 -0.106486
31 0.615812 0.994372 -0.809165 -2.97456 0.276996 0.578056
32 2.24752 0 0 -0.0683139 -0.10894 0.297739
33 1.11936 0 0 -0.048498 0.0629028 0.223748
34 3.71349 0.102639 0.102191 -1.55078 1.0009 -0.0625513
35 1.72615 0 0 0.00484508 0.00331902 1.0817
36 1.21112 0 0 0.0142298 0.0104191 1.53627
37 3.5992 1.06012 0.0708885 -1.75855 1.01668 -0.16381
38 1.66069 0 0 0.0132137 0.0176565 0.864594
39 1.16699 0 0 -0.0515123 0.0185073 1.64165
40 2.18853 -0.50104 0.0576591 -1.59892 0.0711593 -0.0997062
41 1.29609 0 0 -0.029491 -0.0363876 0.870095
42 1.62201 -0.000714302 -0.000469208 -0.00671597 -0.0123833 0.929895
43 1.22241 0 0 0.0197071 -0.00500039 1.81796
44 1.76707 -1.27612 0.0366411 -1.53586 0.195318 -0.0870188
45 1.55588 0 0 0.0272768 -0.0402816 0.694189
46 1.24273 0 0 0.000599226 0 0.70809
47 0.784531 0 0 -0.00593345 0.000318874 0.628058
48 0 0 0 0 0 0
49 5.9711 -9.37482 2.6609 1.04944 0.629941 3.10056
50 0 0 1.57913 0 0 0
51 -0.059763 0 2.14219 1.5708 -0.465765 0
52 0.822427 0 0 0 0 -1.59206
53 1.65555 0 0 0 0 -0.179192
54 -5.06794 -17.632 -6.63978 0.809084 -0.869002 2.37619
55 0.13634 0.367235 -0.829751 1.43125 -1.5609 -1.52464
56 0.304319 0 0 0 0 -0.0269022
57 0.287034 0 0 0 0 0.0456978
58 0.201059 0 0 0 0 0.00642936
59 0.232013 0 0 0 0 0.0372464
60 -0.0501728 0 2.09035 0 0.610865 0
61 0.342958 0 1.82042 0 0 0
62 -0.49446 -2.33627 -0.838784 0 0 0
time 11
0 1.938 5.07088 -6.6269 0 0 0
1 6.02794 0 0 -1.0439 0.290478 -1.01194
2 11.7344 0 0 -0.00140285 0 -1.69032
3 8.81138 -0.000449181 -0.00011158 -0.32753 0 0.000157396
4 5.77839 0.000286102 0 -0.219445 0 0.000104075
5 2.23163 -0.000328064 -0.000364304 -0.108085 0 0
6 11.4725 0 0 -0.331408 -0.115024 0.0532504
7 0.615219 -0.993092 -0.8107 -3.1239 0.583052 -0.493728
8 2.24752 0 0 0.408068 -0.102926 -0.0794332
9 1.11936 0 0 0.372028 0.296129 -0.588456
10 3.71348 -0.102641 0.102191 1.55701 0.670238 0.0708462
11 1.72615 0 0 0.00954799 -0.00970077 -0.889147
12 1.21114 0 0 -0.00385461 0.0172098 -0.81781
13 3.59919 -1.06012 0.0708885 1.55765 0.555875 -0.0696804
14 1.66069 0 0 -0.0427854 0.0551272 -0.821597
15 1.167 0 0 -0.0176028 0.00756589 -0.775185
16 2.18852 0.501039 0.0576601 1.57003 -0.111495 0.225983
17 1.29609 0 0 0.014644 -0.044487 -0.506886
18 1.62202 0.000712395 -0.000471115 0.0182152 -0.0357179 -0.904846
19 1.22241 0 0 0.00915934 -0.00545182 -0.758137
20 1.76707 1.27612 0.0366411 1.57004 -0.0293957 0.261465
21 1.55588 0 0 -0.0149061 0.0289929 -0.180394
22 1.24273 0 0 -0.000598971 0 -0.628068
23 0.784523 0 0 0.0109358 0.0120947 -0.54806
24 -1.93761 8.00428 -7.76724 -0.000932534 0 3.14159
25 6.02794 0 0 0.897543 0.17519 1.44902
26 11.7344 0 0 0.00140288 0 0.628923
27 8.81167 0 0 -0.574797 0 0
28 5.77884 0 0 -0.385114 0 0
29 2.23249 0 0 -0.189683 0 0
30 11.4725 0 0 -0.577406 0.00593078 -0.0982143
31 0.615813 0.994371 -0.809165 -2.99336 0.36237 0.51587
32 2.24752 0 0 -0.0739824 -0.138769 0.403478
33 1.11936 0 0 -0.0435467 0.0307085 0.26563
34 3.71349 0.102638 0.10219 -1.55078 1.0009 -0.0625516
35 1.72615 0 0 0.00484504 0.00331913 1.0817
36 1.21112 0 0 0.0142296 0.0104191 1.53627
37 3.5992 1.06012 0.070888 -1.75855 1.01668 -0.16381
38 1.66069 0 0 0.0132136 0.0176564 0.864595
39 1.16699 0 0 -0.0515122 0.0185073 1.64165
40 2.18853 -0.50104 0.0576587 -1.59892 0.0711594 -0.0997063
41 1.29609 0 0 -0.0294909 -0.0363876 0.870095
42 1.62202 -0.000713348 -0.000471115 -0.00671605 -0.0123833 0.929895
43 1.2224 0 0 0.0197071 -0.00500033 1.81796
44 1.76707 -1.27612 0.0366406 -1.53586 0.195318 -0.0870186
45 1.55587 0 0 0.0272769 -0.0402816 0.694189
46 1.24273 0 0 0.000599241 0 0.70809
47 0.784531 0 0 -0.00593339 0.000318881 0.628058
48 0 0 0 0 0 0
49 6.95044 -8.203 3.48527 1.15492 0.586943 3.14066
50 0 0 1.57913 0 0 0
51 -0.0597625 0 2.14219 1.5708 -0.465765 0
52 0.822427 0 0 0 0 -1.59206
53 1.65555 0 0 0 0 -0.179192
54 -5.28185 -17.6436 -6.81156 0.90185 -0.912773 2.29818
55 0.13634 0.367238 -0.82975 1.43125 -1.5609 -1.52463
56 0.304319 0 0 0 0 -0.0269022
57 0.287034 0 0 0 0 0.0456978
58 0.201059 0 0 0 0 0.00642938
59 0.232012 0 0 0 0 0.0372464
60 -0.0501719 0 2.09035 0 0.610865 0
61 0.342958 0 1.82042 0 0 0
62 -0.49446 -2.33627 -0.838784 0 0 0
time 12
0 1.938 5.07088 -6.6269 0 0 0
1 6.02794 0 0 -1.10903 0.269008 -0.989614
2 11.7344 0 0 -0.00140285 0 -1.71931
3 8.81138 -0.000449181 -0.000111103 -0.370323 0 0.000157491
4 5.77839 0.000287056 0 -0.248116 0 0.000103784
5 2.23164 -0.000328064 -0.00036335 -0.122207 0 0
6 11.4725 0 0 -0.374959 -0.0925835 0.0665881
7 0.615219 -0.993091 -0.810699 -3.1239 0.583051 -0.493728
8 2.24752 0 0 0.408318 -0.102056 -0.0815226
9 1.11936 0 0 0.37321 0.294836 -0.584756
10 3.71348 -0.102641 0.102192 1.55701 0.670238 0.0708462
11 1.72615 0 0 0.00954782 -0.00970084 -0.889148
12 1.21114 0 0 -0.00385458 0.01721 -0.81781
13 3.59919 -1.06012 0.0708876 1.55765 0.555875 -0.0696802
14 1.66069 0 0 -0.0427853 0.0551272 -0.821598
15 1.167 0 0 -0.0176025 0.00756608 -0.775185
16 2.18852 0.50104 0.0576591 1.57003 -0.111495 0.225984
17 1.29609 0 0 0.0146439 -0.0444871 -0.506886
18 1.62202 0.000714302 -0.000470161 0.0182151 -0.0357178 -0.904845
19 1.22241 0 0 0.00915931 -0.00545174 -0.758137
20 1.76707 1.27612 0.0366411 1.57004 -0.0293956 0.261465
21 1.55588 0 0 -0.0149061 0.0289929 -0.180394
22 1.24274 0 0 -0.000598942 0 -0.628068
23 0.784523 0 0 0.0109356 0.0120947 -0.54806
24 -1.93761 8.00428 -7.76724 -0.000932534 0 3.14159
25 6.02794 0 0 0.897346 0.182058 1.44125
26 11.7344 0 0 0.00140266 0 0.633553
27 8.81167 0 0 -0.640562 0 0
28 5.77884 0 0 -0.429177 0 0
29 2.23249 0 0 -0.211386 0 0
30 11.4725 0 0 -0.643581 0.019857 -0.0903651
31 0.615812 0.994372 -0.809166 -3.01266 0.405045 0.465178
32 2.24752 0 0 -0.0754744 -0.136792 0.435815
33 1.11936 0 0 -0.0391894 0.035714 0.309453
34 3.71348 0.102639 0.102191 -1.55078 1.0009 -0.0625516
35 1.72615 0 0 0.00484497 0.00331918 1.0817
36 1.21112 0 0 0.0142296 0.0104193 1.53627
37 3.5992 1.06012 0.070888 -1.75855 1.01668 -0.16381
38 1.66069 0 0 0.0132137 0.0176566 0.864594
39 1.16699 0 0 -0.0515122 0.0185074 1.64165
40 2.18853 -0.501041 0.0576587 -1.59892 0.0711594 -0.0997063
41 1.29609 0 0 -0.0294909 -0.0363877 0.870095
42 1.62202 -0.000711918 -0.000470161 -0.00671599 -0.0123833 0.929895
43 1.2224 0 0 0.019707 -0.00500038 1.81796
44 1.76707 -1.27612 0.0366411 -1.53586 0.195318 -0.0870188
45 1.55587 0 0 0.0272768 -0.0402817 0.694189
46 1.24273 0 0 0.000599213 0 0.70809
47 0.784531 0 0 -0.00593348 0.0003187 0.628058
48 0 0 0 0 0 0
49 7.74026 -7.27811 4.20754 1.2067 0.554438 -3.12566
50 0 0 1.57913 0 0 0
51 -0.059762 0 2.14219 1.5708 -0.465766 0
52 0.822426 0 0 0 0 -1.59206
53 1.65555 0 0 0 0 -0.179192
54 -5.47972 -17.6542 -6.9623 0.997288 -0.947931 2.21666
55 0.136341 0.367237 -0.82975 1.43125 -1.5609 -1.52463
56 0.304319 0 0 0 0 -0.0269022
57 0.287034 0 0 0 0 0.0456978
58 0.201059 0 0 0 0 0.00642943
59 0.232013 0 0 0 0 0.0372464
60 -0.0501709 0 2.09036 0 0.610865 0
61 0.34296 0 1.82042 0 0 0
62 -0.49446 -2.33627 -0.838784 0 0 0
time 13
0 1.938 5.07088 -6.6269 0 0 0
1 6.02794 0 0 -1.17302 0.238935 -0.970688
2 11.7344 0 0 -0.00140283 0 -1.74148
3 8.81138 -0.000451088 -0.000112057 -0.410285 0 0.000157396
4 5.77839 0.000286102 0 -0.274891 0 0.000103673
5 2.23163 -0.000329018 -0.000364304 -0.135394 0 0
6 11.4725 0 0 -0.416585 -0.0394192 0.119595
7 0.615219 -0.993091 -0.8107 -3.1239 0.583051 -0.493728
8 2.24752 0 0 0.408563 -0.101205 -0.0835672
9 1.11936 0 0 0.374367 0.29357 -0.581137
10 3.71348 -0.10264 0.102191 1.55701 0.670238 0.0708463
11 1.72615 0 0 0.00954797 -0.00970087 -0.889147
12 1.21114 0 0 -0.00385465 0.0172097 -0.81781
13 3.59919 -1.06012 0.0708866 1.55765 0.555874 -0.0696801
14 1.66069 0 0 -0.0427853 0.0551273 -0.821597
15 1.167 0 0 -0.0176027 0.00756593 -0.775185
16 2.18852 0.50104 0.0576591 1.57003 -0.111495 0.225983
17 1.29609 0 0 0.014644 -0.0444868 -0.506886
18 1.62202 0.000714302 -0.000471115 0.018215 -0.0357178 -0.904845
19 1.22241 0 0 0.00915948 -0.0054517 -0.758137
20 1.76707 1.27612 0.0366402 1.57004 -0.0293957 0.261465
21 1.55588 0 0 -0.0149061 0.0289929 -0.180394
22 1.24273 0 0 -0.000598783 0 -0.628068
23 0.784523 0 0 0.0109354 0.0120947 -0.54806
24 -1.93761 8.00428 -7.76724 -0.000932534 0 3.14159
25 6.02794 0 0 0.897164 0.18799 1.43449
26 11.7344 0 0 0.00140264 0 0.637309
27 8.81167 0 0 -0.698795 0 0
28 5.77884 0 0 -0.468193 0 0
29 2.23249 0 0 -0.230602 0 0
30 11.4725 0 0 -0.701814 0.0321359 -0.0832249
31 0.615812 0.994371 -0.809165 -3.03294 0.417022 0.419516
32 2.24752 0 0 -0.0751054 -0.108554 0.430349
33 1.11936 0 0 -0.0346474 0.0617873 0.359574
34 3.71348 0.102639 0.10219 -1.55078 1.0009 -0.0625519
35 1.72615 0 0 0.00484497 0.00331916 1.0817
36 1.21112 0 0 0.0142296 0.0104192 1.53627
37 3.5992 1.06012 0.070888 -1.75855 1.01668 -0.16381
38 1.66069 0 0 0.0132137 0.0176565 0.864595
39 1.16699 0 0 -0.0515123 0.0185073 1.64165
40 2.18853 -0.50104 0.0576587 -1.59892 0.0711593 -0.0997064
41 1.29609 0 0 -0.029491 -0.0363877 0.870095
42 1.62201 -0.000712872 -0.000470161 -0.00671597 -0.0123833 0.929895
43 1.2224 0 0 0.0197071 -0.00500033 1.81796
44 1.76707 -1.27612 0.0366406 -1.53586 0.195318 -0.0870189
45 1.55587 0 0 0.0272767 -0.0402817 0.694189
46 1.24273 0 0 0.000599242 0 0.70809
47 0.784531 0 0 -0.00593348 0.000318783 0.628058
48 0 0 0 0 0 0
49 8.38545 -6.51931 4.94378 1.20438 0.536973 -3.12796
50 0 0 1.57913 0 0 0
51 -0.059763 0 2.14219 1.5708 -0.465765 0
52 0.822426 0 0 0 0 -1.59206
53 1.65555 0 0 0 0 -0.179192
54 -5.65469 -17.6637 -7.08949 1.08958 -0.974189 2.13697
55 0.136341 0.367235 -0.829751 1.43126 -1.5609 -1.52465
56 0.304319 0 0 0 0 -0.0269022
57 0.287033 0 0 0 0 0.0456978
58 0.201059 0 0 0 0 0.00642936
59 0.232012 0 0 0 0 0.0372464
60 -0.0501709 0 2.09035 0 0.610865 0
61 0.342959 0 1.82042 0 0 0
62 -0.49446 -2.33627 -0.838784 0 0 0
time 14
0 1.938 5.07088 -6.6269 0 0 0
1 6.02794 0 0 -1.24207 0.195791 -0.950834
2 11.7344 0 0 -0.00140287 0 -1.75659
3 8.81138 -0.000449181 -0.000112534 -0.454224 0 0.000157312
4 5.77839 0.000285149 0 -0.30433 0 0.000103409
5 2.23163 -0.000329971 -0.000362873 -0.149894 0 0
6 11.4725 0 0 -0.45504 0.0436623 0.207172
7 0.615219 -0.993091 -0.810699 -3.1239 0.583051 -0.493728
8 2.24752 0 0 0.408802 -0.100375 -0.0855648
9 1.11936 0 0 0.375495 0.292332 -0.577602
10 3.71348 -0.102641 0.102191 1.55701 0.670238 0.0708461
11 1.72615 0 0 0.00954773 -0.00970091 -0.889147
12 1.21114 0 0 -0.00385445 0.0172099 -0.81781
13 3.59919 -1.06012 0.0708885 1.55765 0.555875 -0.0696803
14 1.66069 0 0 -0.0427852 0.0551273 -0.821597
15 1.167 0 0 -0.0176027 0.00756582 -0.775185
16 2.18852 0.50104 0.0576591 1.57003 -0.111495 0.225983
17 1.29609 0 0 0.0146439 -0.044487 -0.506886
18 1.62202 0.000714302 -0.000470161 0.0182152 -0.0357179 -0.904845
19 1.22241 0 0 0.00915934 -0.00545182 -0.758137
20 1.76707 1.27612 0.036643 1.57004 -0.0293959 0.261465
21 1.55588 0 0 -0.0149061 0.0289928 -0.180394
22 1.24273 0 0 -0.000598842 0 -0.628068
23 0.784522 0 0 0.0109356 0.0120948 -0.54806
24 -1.93761 8.00428 -7.76724 -0.000932534 0 3.14159
25 6.02794 0 0 0.897008 0.19283 1.42895
26 11.7344 0 0 0.00140272 0 0.640173
27 8.81167 0 0 -0.747303 0 0
28 5.77884 0 0 -0.500693 0 0
29 2.23249 0 0 -0.24661 0 0
30 11.4725 0 0 -0.750091 0.04235 -0.0770756
31 0.615812 0.994372 -0.809165 -3.04843 0.413139 0.387135
32 2.24752 0 0 -0.0741084 -0.075724 0.410113
33 1.11936 0 0 -0.0310503 0.0905436 0.40123
34 3.71349 0.102639 0.102191 -1.55078 1.0009 -0.0625517
35 1.72615 0 0 0.00484507 0.00331913 1.0817
36 1.21112 0 0 0.0142297 0.0104192 1.53627
37 3.5992 1.06011 0.0708876 -1.75855 1.01668 -0.16381
38 1.66069 0 0 0.0132136 0.0176564 0.864595
39 1.16699 0 0 -0.0515124 0.0185074 1.64165
40 2.18853 -0.50104 0.0576587 -1.59892 0.0711594 -0.0997063
41 1.29609 0 0 -0.029491 -0.0363877 0.870095
42 1.62201 -0.000712395 -0.000470161 -0.00671599 -0.0123835 0.929895
43 1.22241 0 0 0.0197072 -0.00500029 1.81796
44 1.76707 -1.27612 0.0366411 -1.53586 0.195318 -0.0870188
45 1.55588 0 0 0.0272769 -0.0402816 0.694189
46 1.24273 0 0 0.00059919 0 0.708089
47 0.784531 0 0 -0.00593343 0.00031876 0.628058
48 0 0 0 0 0 0
49 8.99855 -5.81054 5.78677 1.16014 0.525813 3.14063
50 0 0 1.57913 0 0 0
51 -0.059763 0 2.14219 1.5708 -0.465765 0
52 0.822426 0 0 0 0 -1.59206
53 1.65555 0 0 0 0 -0.179192
54 -5.80009 -17.6715 -7.19118 1.17174 -0.992166 2.06552
55 0.13634 0.367235 -0.829751 1.43126 -1.5609 -1.52465
56 0.304319 0 0 0 0 -0.0269022
57 0.287035 0 0 0 0 0.0456978
58 0.201059 0 0 0 0 0.00642937
59 0.232012 0 0 0 0 0.0372464
60 -0.0501719 0 2.09035 0 0.610865 0
61 0.342959 0 1.82042 0 0 0
62 -0.49446 -2.33627 -0.838784 0 0 0
time 15
0 1.938 5.07088 -6.6269 0 0 0
1 6.02794 0 0 -1.31039 0.141924 -0.928894
2 11.7344 0 0 -0.00140295 0 -1.76037
3 8.81138 -0.000450134 -0.000111103 -0.50106 0 0.000157583
4 5.77839 0.000286102 0 -0.33571 0 0.000103457
5 2.23163 -0.000329018 -0.00036335 -0.16535 0 0
6 11.4725 0 0 -0.483083 0.141106 0.317259
7 0.615219 -0.99309 -0.810699 -3.1239 0.583051 -0.493728
8 2.24752 0 0 0.409035 -0.0995647 -0.0875137
9 1.11936 0 0 0.376596 0.291124 -0.574155
10 3.71348 -0.102641 0.102192 1.55701 0.670238 0.0708464
11 1.72615 0 0 0.00954775 -0.00970082 -0.889147
12 1.21114 0 0 -0.0038545 0.0172099 -0.81781
13 3.59919 -1.06012 0.0708876 1.55765 0.555875 -0.0696804
14 1.66069 0 0 -0.0427853 0.0551273 -0.821598
15 1.167 0 0 -0.0176027 0.00756583 -0.775185
16 2.18852 0.50104 0.0576582 1.57003 -0.111495 0.225983
17 1.29609 0 0 0.0146439 -0.0444869 -0.506886
18 1.62202 0.000713348 -0.000470638 0.018215 -0.0357179 -0.904846
19 1.22241 0 0 0.00915928 -0.00545201 -0.758137
20 1.76707 1.27612 0.0366421 1.57004 -0.0293956 0.261465
21 1.55588 0 0 -0.014906 0.0289929 -0.180394
22 1.24273 0 0 -0.000598892 0 -0.628068
23 0.784522 0 0 0.0109357 0.0120947 -0.54806
24 -1.93761 8.00428 -7.76724 -0.000932534 0 3.14159
25 6.02794 0 0 0.896884 0.196444 1.42481
26 11.7344 0 0 0.00140267 0 0.642192
27 8.81167 0 0 -0.783907 0 0
28 5.77884 0 0 -0.525217 0 0
29 2.23249 0 0 -0.258689 0 0
30 11.4725 0 0 -0.786396 0.0500821 -0.0722309
31 0.615813 0.99437 -0.809165 -3.05441 0.408507 0.374953
32 2.24752 0 0 -0.0735459 -0.0599751 0.398209
33 1.11936 0 0 -0.0295821 0.104083 0.418689
34 3.71349 0.102638 0.102191 -1.55078 1.0009 -0.0625517
35 1.72615 0 0 0.00484498 0.00331906 1.0817
36 1.21112 0 0 0.0142297 0.0104192 1.53627
37 3.5992 1.06011 0.070888 -1.75855 1.01668 -0.16381
38 1.66069 0 0 0.0132137 0.0176564 0.864594
39 1.16699 0 0 -0.0515123 0.0185073 1.64165
40 2.18853 -0.50104 0.0576591 -1.59892 0.0711593 -0.0997064
41 1.29609 0 0 -0.0294909 -0.0363878 0.870095
42 1.62201 -0.000713825 -0.000471115 -0.00671601 -0.0123832 0.929895
43 1.2224 0 0 0.019707 -0.00500038 1.81796
44 1.76707 -1.27612 0.0366411 -1.53586 0.195318 -0.0870188
45 1.55588 0 0 0.0272768 -0.0402816 0.694189
46 1.24273 0 0 0.000599265 0 0.70809
47 0.784531 0 0 -0.00593343 0.000318935 0.628058
48 0 0 0 0 0 0
49 9.59557 -5.17853 6.68097 1.08643 0.510745 3.11949
50 0 0 1.57913 0 0 0
51 -0.059763 0 2.14219 1.5708 -0.465765 0
52 0.822428 0 0 0 0 -1.59206
53 1.65555 0 0 0 0 -0.179192
54 -5.90952 -17.6774 -7.26563 1.23663 -1.00317 2.00893
55 0.136341 0.367237 -0.82975 1.43123 -1.5609 -1.52462
56 0.304319 0 0 0 0 -0.0269022
57 0.287033 0 0 0 0 0.0456978
58 0.20106 0 0 0 0 0.0064294
59 0.232013 0 0 0 0 0.0372464
60 -0.0501709 0 2.09036 0 0.610865 0
61 0.34296 0 1.82042 0 0 0
62 -0.49446 -2.33627 -0.838784 0 0 0
time 16
0 1.938 5.07088 -6.6269 0 0 0
1 6.02794 0 0 -1.37294 0.0823042 -0.904602
2 11.7344 0 0 -0.0014029 0 -1.75203
3 8.81138 -0.000450134 -0.000112534 -0.544759 0 0.000157565
4 5.77839 0.000286102 0 -0.364988 0 0.000103245
5 2.23163 -0.000329018 -0.000363827 -0.17977 0 0
6 11.4725 0 0 -0.49584 0.236248 0.440141
7 0.615219 -0.993091 -0.810699 -3.1239 0.583051 -0.493728
8 2.24752 0 0 0.409261 -0.0987762 -0.0894113
9 1.11936 0 0 0.377666 0.289946 -0.570799
10 3.71348 -0.102641 0.102191 1.55701 0.670238 0.0708463
11 1.72615 0 0 0.00954773 -0.00970091 -0.889148
12 1.21114 0 0 -0.00385466 0.0172098 -0.81781
13 3.59919 -1.06012 0.0708876 1.55765 0.555875 -0.0696802
14 1.66069 0 0 -0.0427854 0.0551274 -0.821598
15 1.167 0 0 -0.0176028 0.00756586 -0.775185
16 2.18852 0.50104 0.0576591 1.57003 -0.111495 0.225984
17 1.29609 0 0 0.0146439 -0.0444869 -0.506886
18 1.62202 0.000713348 -0.000470877 0.018215 -0.0357179 -0.904846
19 1.22241 0 0 0.00915926 -0.00545195 -0.758137
20 1.76707 1.27612 0.0366411 1.57004 -0.0293957 0.261465
21 1.55588 0 0 -0.0149061 0.0289929 -0.180394
22 1.24273 0 0 -0.000598908 0 -0.628068
23 0.784523 0 0 0.0109357 0.0120947 -0.54806
24 -1.93761 8.00428 -7.76724 -0.000932534 0 3.14159
25 6.02794 0 0 0.89679 0.199006 1.42186
26 11.7344 0 0 0.0014027 0 0.643559
27 8.81167 0 0 -0.810005 0 0
28 5.77884 0 0 -0.542703 0 0
29 2.23249 0 0 -0.267302 0 0
30 11.4725 0 0 -0.812222 0.055616 -0.0686472
31 0.615813 0.994371 -0.809165 -3.05441 0.408507 0.374953
32 2.24752 0 0 -0.0735459 -0.0599752 0.398209
33 1.11936 0 0 -0.029582 0.104083 0.418689
34 3.71349 0.102637 0.102191 -1.55078 1.0009 -0.0625516
35 1.72615 0 0 0.00484497 0.00331892 1.0817
36 1.21112 0 0 0.0142296 0.0104193 1.53627
37 3.5992 1.06012 0.0708876 -1.75855 1.01668 -0.16381
38 1.66069 0 0 0.0132136 0.0176563 0.864595
39 1.16699 0 0 -0.0515122 0.0185073 1.64165
40 2.18853 -0.50104 0.0576582 -1.59892 0.0711593 -0.0997062
41 1.29609 0 0 -0.0294909 -0.0363876 0.870095
42 1.62202 -0.000712872 -0.000469208 -0.00671599 -0.0123833 0.929895
43 1.22241 0 0 0.0197071 -0.00500029 1.81796
44 1.76707 -1.27612 0.0366411 -1.53586 0.195318 -0.0870186
45 1.55587 0 0 0.0272768 -0.0402816 0.694189
46 1.24273 0 0 0.00059927 0 0.70809
47 0.784532 0 0 -0.00593351 0.000318894 0.628058
48 0 0 0 0 0 0
49 10.1878 -4.64264 7.56265 0.997855 0.483921 3.09881
50 0 0 1.57913 0 0 0
51 -0.0597639 0 2.14219 1.5708 -0.465766 0
52 0.822426 0 0 0 0 -1.59206
53 1.65555 0 0 0 0 -0.179192
54 -5.98734 -17.6816 -7.3176 1.28422 -1.0096 1.9674
55 0.136341 0.367236 -0.829751 1.43126 -1.5609 -1.52465
56 0.304319 0 0 0 0 -0.0269022
57 0.287034 0 0 0 0 0.0456978
58 0.201059 0 0 0 0 0.00642937
59 0.232012 0 0 0 0 0.0372464
60 -0.0501709 0 2.09035 0 0.610865 0
61 0.34296 0 1.82042 0 0 0
62 -0.49446 -2.33627 -0.838784 0 0 0
time 17
0 1.938 5.07088 -6.6269 0 0 0
1 6.02794 0 0 -1.42597 0.0236801 -0.879403
2 11.7344 0 0 -0.00140291 0 -1.73426
3 8.81138 -0.000450134 -0.00011158 -0.577523 0 0.000157419
4 5.77839 0.000286102 0 -0.38694 0 0.00010331
5 2.23163 -0.000329018 -0.00036335 -0.190582 0 0
6 11.4725 0 0 -0.492921 0.315017 0.564735
7 0.615219 -0.99309 -0.8107 -3.1239 0.583051 -0.493728
8 2.24752 0 0 0.409481 -0.0980107 -0.0912559
9 1.11936 0 0 0.378706 0.288802 -0.567539
10 3.71348 -0.102641 0.102191 1.55701 0.670238 0.0708463
11 1.72615 0 0 0.00954789 -0.00970084 -0.889147
12 1.21114 0 0 -0.00385455 0.01721 -0.81781
13 3.59919 -1.06012 0.0708885 1.55765 0.555875 -0.0696805
14 1.66069 0 0 -0.0427853 0.0551272 -0.821597
15 1.167 0 0 -0.0176026 0.00756585 -0.775185
16 2.18852 0.501039 0.0576582 1.57003 -0.111495 0.225983
17 1.29609 0 0 0.014644 -0.0444869 -0.506886
18 1.62202 0.000713348 -0.000470161 0.018215 -0.0357179 -0.904846
19 1.22241 0 0 0.00915936 -0.00545188 -0.758137
20 1.76707 1.27612 0.0366402 1.57004 -0.0293957 0.261465
21 1.55588 0 0 -0.014906 0.0289929 -0.180394
22 1.24273 0 0 -0.000598839 0 -0.628068
23 0.784524 0 0 0.0109355 0.0120947 -0.54806
24 -1.93761 8.00428 -7.76724 -0.000932534 0 3.14159
25 6.02794 0 0 0.896722 0.200848 1.41974
26 11.7344 0 0 0.00140266 0 0.644508
27 8.81167 0 0 -0.828939 0 0
28 5.77884 0 0 -0.555389 0 0
29 2.23249 0 0 -0.27355 0 0
30 11.4725 0 0 -0.830934 0.0596275 -0.0660253
31 0.615813 0.994372 -0.809166 -3.05441 0.408507 0.374952
32 2.24752 0 0 -0.0735459 -0.0599752 0.398209
33 1.11936 0 0 -0.0295821 0.104083 0.418689
34 3.71348 0.102638 0.102191 -1.55078 1.0009 -0.0625517
35 1.72615 0 0 0.00484498 0.00331909 1.0817
36 1.21112 0 0 0.0142296 0.0104191 1.53627
37 3.5992 1.06012 0.0708876 -1.75855 1.01668 -0.16381
38 1.66069 0 0 0.0132137 0.0176564 0.864594
39 1.16699 0 0 -0.0515122 0.0185073 1.64165
40 2.18853 -0.50104 0.0576591 -1.59892 0.0711593 -0.0997064
41 1.29609 0 0 -0.029491 -0.0363877 0.870095
42 1.62201 -0.000714779 -0.000471115 -0.006716 -0.0123834 0.929895
43 1.2224 0 0 0.0197071 -0.00500035 1.81796
44 1.76707 -1.27612 0.0366402 -1.53586 0.195318 -0.0870188
45 1.55588 0 0 0.0272768 -0.0402818 0.694189
46 1.24273 0 0 0.000599263 0 0.70809
47 0.784532 0 0 -0.00593343 0.000318747 0.628058
48 0 0 0 0 0 0
49 10.7636 -4.21089 8.36201 0.910327 0.444584 3.08517
50 0 0 1.57913 0 0 0
51 -0.0597639 0 2.14219 1.5708 -0.465765 0
52 0.822427 0 0 0 0 -1.59206
53 1.65555 0 0 0 0 -0.179192
54 -6.04372 -17.6847 -7.3546 1.31932 -1.01351 1.93672
55 0.136342 0.367235 -0.829751 1.43126 -1.5609 -1.52465
56 0.304319 0 0 0 0 -0.0269022
57 0.287033 0 0 0 0 0.0456978
58 0.201059 0 0 0 0 0.00642937
59 0.232013 0 0 0 0 0.0372464
60 -0.0501699 0 2.09035 0 0.610865 0
61 0.34296 0 1.82042 0 0 0
62 -0.49446 -2.33627 -0.838784 0 0 0
time 18
0 1.938 5.07088 -6.6269 0 0 0
1 6.02794 0 0 -1.46677 -0.0266089 -0.856387
2 11.7344 0 0 -0.00140293 0 -1.71269
3 8.81138 -0.000450134 -0.00011158 -0.595426 0 0.000157708
4 5.77839 0.000285149 0 -0.398935 0 0.000103181
5 2.23163 -0.000329971 -0.000364304 -0.19649 0 0
6 11.4725 0 0 -0.479638 0.369502 0.676224
7 0.615219 -0.993091 -0.810699 -3.1239 0.583051 -0.493728
8 2.24752 0 0 0.409693 -0.0972683 -0.0930452
9 1.11936 0 0 0.379713 0.28769 -0.564377
10 3.71348 -0.102641 0.102192 1.55701 0.670238 0.070846
11 1.72615 0 0 0.00954776 -0.00970071 -0.889147
12 1.21113 0 0 -0.00385452 0.0172101 -0.81781
13 3.59919 -1.06012 0.0708876 1.55765 0.555875 -0.0696803
14 1.66069 0 0 -0.0427853 0.0551273 -0.821598
15 1.167 0 0 -0.0176027 0.00756596 -0.775185
16 2.18852 0.501039 0.0576591 1.57003 -0.111495 0.225983
17 1.29609 0 0 0.0146441 -0.044487 -0.506886
18 1.62202 0.000713348 -0.000471115 0.018215 -0.0357178 -0.904845
19 1.22241 0 0 0.0091594 -0.00545167 -0.758137
20 1.76707 1.27612 0.0366411 1.57004 -0.0293954 0.261464
21 1.55588 0 0 -0.014906 0.0289929 -0.180394
22 1.24274 0 0 -0.000598892 0 -0.628068
23 0.784523 0 0 0.0109356 0.0120947 -0.54806
24 -1.93761 8.00428 -7.76724 -0.000932534 0 3.14159
25 6.02794 0 0 0.896677 0.20206 1.41835
26 11.7344 0 0 0.00140262 0 0.645119
27 8.81167 0 0 -0.841482 0 0
28 5.77884 0 0 -0.563793 0 0
29 2.23249 0 0 -0.277689 0 0
30 11.4725 0 0 -0.843321 0.0622834 -0.0642788
31 0.615812 0.994371 -0.809164 -3.05441 0.408507 0.374952
32 2.24752 0 0 -0.0735459 -0.0599752 0.398209
33 1.11936 0 0 -0.0295821 0.104083 0.418689
34 3.71349 0.102639 0.102191 -1.55078 1.0009 -0.0625518
35 1.72615 0 0 0.00484499 0.0033191 1.0817
36 1.21112 0 0 0.0142297 0.0104192 1.53627
37 3.5992 1.06012 0.0708885 -1.75855 1.01668 -0.16381
38 1.66069 0 0 0.0132135 0.0176564 0.864594
39 1.16699 0 0 -0.0515123 0.0185073 1.64165
40 2.18853 -0.50104 0.0576591 -1.59892 0.0711593 -0.0997064
41 1.29609 0 0 -0.029491 -0.0363877 0.870095
42 1.62201 -0.000714302 -0.000470161 -0.00671598 -0.0123833 0.929895
43 1.2224 0 0 0.0197071 -0.00500037 1.81796
44 1.76707 -1.27612 0.0366411 -1.53586 0.195318 -0.0870188
45 1.55588 0 0 0.0272768 -0.0402815 0.694189
46 1.24273 0 0 0.000599205 0 0.70809
47 0.784531 0 0 -0.00593355 0.000318756 0.628058
48 0 0 0 0 0 0
49 11.2773 -3.88643 9.00918 0.837382 0.400076 3.08095
50 0 0 1.57913 0 0 0
51 -0.059763 0 2.14219 1.5708 -0.465766 0
52 0.822427 0 0 0 0 -1.59206
53 1.65555 0 0 0 0 -0.179192
54 -6.08103 -17.6867 -7.3788 1.34281 -1.01576 1.91618
55 0.136342 0.367235 -0.829751 1.43125 -1.5609 -1.52463
56 0.30432 0 0 0 0 -0.0269022
57 0.287034 0 0 0 0 0.0456978
58 0.201059 0 0 0 0 0.00642936
59 0.232013 0 0 0 0 0.0372464
60 -0.0501709 0 2.09035 0 0.610865 0
61 0.342959 0 1.82042 0 0 0
62 -0.49446 -2.33627 -0.838784 0 0 0
time 19
0 1.938 5.07088 -6.6269 0 0 0
1 6.02794 0 0 -1.49307 -0.0612259 -0.839607
2 11.7344 0 0 -0.00140282 0 -1.69517
3 8.81138 -0.000451088 -0.000113487 -0.601185 0 0.000157646
4 5.77839 0.000285149 0 -0.402794 0 0.000103184
5 2.23163 -0.000329971 -0.000365257 -0.198391 0 0
6 11.4725 0 0 -0.465219 0.399346 0.75691
7 0.615219 -0.993091 -0.810699 -3.1239 0.583051 -0.493728
8 2.24752 0 0 0.409899 -0.0965498 -0.0947773
9 1.11936 0 0 0.380688 0.286614 -0.561317
10 3.71348 -0.102641 0.102191 1.55701 0.670238 0.0708461
11 1.72615 0 0 0.00954782 -0.00970084 -0.889147
12 1.21114 0 0 -0.00385457 0.0172099 -0.81781
13 3.59919 -1.06012 0.0708885 1.55765 0.555875 -0.0696804
14 1.66069 0 0 -0.0427853 0.0551273 -0.821597
15 1.167 0 0 -0.0176027 0.0075658 -0.775185
16 2.18852 0.501039 0.0576601 1.57003 -0.111495 0.225983
17 1.29609 0 0 0.0146441 -0.044487 -0.506886
18 1.62202 0.000715256 -0.000470638 0.018215 -0.035718 -0.904846
19 1.22241 0 0 0.00915929 -0.00545187 -0.758137
20 1.76707 1.27612 0.0366411 1.57004 -0.0293956 0.261465
21 1.55588 0 0 -0.0149061 0.028993 -0.180394
22 1.24273 0 0 -0.000598816 0 -0.628068
23 0.784523 0 0 0.0109355 0.0120948 -0.54806
24 -1.93761 8.00428 -7.76724 -0.000932534 0 3.14159
25 6.02794 0 0 0.896653 0.202728 1.41757
26 11.7344 0 0 0.00140278 0 0.64545
27 8.81167 0 0 -0.848425 0 0
28 5.77884 0 0 -0.568445 0 0
29 2.23249 0 0 -0.27998 0 0
30 11.4725 0 0 -0.850174 0.0637529 -0.0633085
31 0.615812 0.994372 -0.809166 -3.05441 0.408507 0.374952
32 2.24752 0 0 -0.0735459 -0.0599751 0.398209
33 1.11936 0 0 -0.029582 0.104083 0.418689
34 3.71349 0.102639 0.102191 -1.55078 1.0009 -0.0625513
35 1.72615 0 0 0.00484502 0.00331904 1.0817
36 1.21112 0 0 0.0142297 0.0104191 1.53627
37 3.5992 1.06012 0.0708876 -1.75855 1.01668 -0.16381
38 1.66069 0 0 0.0132137 0.0176564 0.864594
39 1.16699 0 0 -0.0515121 0.0185072 1.64165
40 2.18853 -0.50104 0.0576582 -1.59892 0.0711594 -0.0997062
41 1.29609 0 0 -0.0294909 -0.0363877 0.870095
42 1.62202 -0.000712395 -0.000470161 -0.00671598 -0.0123833 0.929895
43 1.2224 0 0 0.0197071 -0.00500033 1.81796
44 1.76707 -1.27612 0.0366402 -1.53586 0.195318 -0.0870187
45 1.55588 0 0 0.0272769 -0.0402816 0.694189
46 1.24273 0 0 0.000599188 0 0.70809
47 0.784532 0 0 -0.00593343 0.000318841 0.628058
48 0 0 0 0 0 0
49 11.6517 -3.67811 9.43994 0.788374 0.363243 3.0829
50 0 0 1.57913 0 0 0
51 -0.0597649 0 2.14219 1.5708 -0.465765 0
52 0.822426 0 0 0 0 -1.59206
53 1.65555 0 0 0 0 -0.179192
54 -6.10166 -17.6879 -7.39208 1.35587 -1.01688 1.90474
55 0.136341 0.367235 -0.829751 1.43126 -1.5609 -1.52465
56 0.304318 0 0 0 0 -0.0269022
57 0.287034 0 0 0 0 0.0456978
58 0.201059 0 0 0 0 0.00642938
59 0.232013 0 0 0 0 0.0372464
60 -0.0501709 0 2.09036 0 0.610865 0
61 0.34296 0 1.82042 0 0 0
62 -0.49446 -2.33627 -0.838784 0 0 0
time 20
0 1.938 5.07088 -6.6269 0 0 0
1 6.02794 0 0 -1.50247 -0.0741278 -0.833231
2 11.7344 0 0 -0.00140288 0 -1.68799
3 8.81138 -0.000450134 -0.00011158 -0.601703 0 0.000157384
4 5.77839 0.000286102 0 -0.403141 0 0.000102874
5 2.23164 -0.000329971 -0.000364304 -0.198562 0 0
6 11.4725 0 0 -0.458819 0.408623 0.787756
7 0.61522 -0.993092 -0.810699 -3.1239 0.583051 -0.493728
8 2.24752 0 0 0.410098 -0.0958566 -0.0964501
9 1.11936 0 0 0.381629 0.285575 -0.558363
10 3.71348 -0.102642 0.10219 1.55701 0.670238 0.070846
11 1.72615 0 0 0.00954793 -0.00970079 -0.889147
12 1.21113 0 0 -0.00385455 0.01721 -0.81781
13 3.59919 -1.06012 0.0708876 1.55765 0.555875 -0.0696804
14 1.66069 0 0 -0.0427853 0.0551273 -0.821597
15 1.167 0 0 -0.0176026 0.00756595 -0.775185
16 2.18852 0.501039 0.0576601 1.57003 -0.111495 0.225983
17 1.29609 0 0 0.014644 -0.0444869 -0.506886
18 1.62202 0.000717163 -0.000471115 0.018215 -0.0357179 -0.904846
19 1.22241 0 0 0.00915935 -0.00545184 -0.758137
20 1.76707 1.27612 0.0366402 1.57004 -0.0293956 0.261465
21 1.55588 0 0 -0.0149061 0.0289929 -0.180394
22 1.24274 0 0 -0.000598907 0 -0.628068
23 0.784523 0 0 0.0109357 0.0120948 -0.54806
24 -1.93761 8.00428 -7.76724 -0.000932534 0 3.14159
25 6.02794 0 0 0.896646 0.202933 1.41734
26 11.7344 0 0 0.00140262 0 0.64555
27 8.81167 0 0 -0.850562 0 0
28 5.77884 0 0 -0.569877 0 0
29 2.23249 0 0 -0.280685 0 0
30 11.4725 0 0 -0.852283 0.064205 -0.0630094
31 0.615813 0.994372 -0.809165 -3.05441 0.408507 0.374953
32 2.24752 0 0 -0.0735459 -0.0599752 0.398209
33 1.11936 0 0 -0.0295821 0.104083 0.418689
34 3.71348 0.102639 0.102191 -1.55078 1.0009 -0.0625515
35 1.72615 0 0 0.00484499 0.00331916 1.0817
36 1.21112 0 0 0.0142295 0.010419 1.53627
37 3.5992 1.06012 0.0708876 -1.75855 1.01668 -0.16381
38 1.66069 0 0 0.0132135 0.0176564 0.864595
39 1.16699 0 0 -0.0515124 0.0185073 1.64165
40 2.18853 -0.50104 0.0576591 -1.59892 0.0711593 -0.0997063
41 1.29609 0 0 -0.0294908 -0.0363876 0.870095
42 1.62201 -0.000711918 -0.000470161 -0.006716 -0.0123833 0.929894
43 1.22241 0 0 0.0197072 -0.00500035 1.81796
44 1.76707 -1.27612 0.0366411 -1.53586 0.195318 -0.0870188
45 1.55588 0 0 0.0272768 -0.0402817 0.694189
46 1.24273 0 0 0.000599342 0 0.70809
47 0.78453 0 0 -0.00593352 0.000318667 0.628058
48 0 0 0 0 0 0
49 11.7953 -3.60413 9.5962 0.770342 0.34821 3.08475
50 0 0 1.57913 0 0 0
51 -0.0597639 0 2.14219 1.5708 -0.465765 0
52 0.822426 0 0 0 0 -1.59206
53 1.65555 0 0 0 0 -0.179192
54 -6.10801 -17.6882 -7.39615 1.35991 -1.0172 1.90122
55 0.136342 0.367236 -0.829751 1.43124 -1.5609 -1.52463
56 0.304319 0 0 0 0 -0.0269022
57 0.287034 0 0 0 0 0.0456978
58 0.201059 0 0 0 0 0.00642939
59 0.232011 0 0 0 0 0.0372464
60 -0.0501699 0 2.09036 0 0.610866 0
61 0.342959 0 1.82042 0 0 0
62 -0.49446 -2.33627 -0.838784 0 0 0
time 21
0 1.938 5.07088 -6.6269 0 0 0
1 6.02794 0 0 -1.50247 -0.0741278 -0.833231
2 11.7344 0 0 -0.00140288 0 -1.68799
3 8.81138 -0.000450134 -0.00011158 -0.601703 0 0.000157384
4 5.77839 0.000286102 0 -0.403141 0 0.000102874
5 2.23164 -0.000329971 -0.000364304 -0.198562 0 0
6 11.4725 0 0 -0.458819 0.408623 0.787756
7 0.61522 -0.993092 -0.810699 -3.1239 0.583051 -0.493728
8 2.24752 0 0 0.410289 -0.095189 -0.0980614
9 1.11936 0 0 0.382535 0.284572 -0.555519
10 3.71348 -0.102642 0.10219 1.55701 0.670238 0.070846
11 1.72615 0 0 0.00954793 -0.00970079 -0.889147
12 1.21113 0 0 -0.00385455 0.01721 -0.81781
13 3.59919 -1.06012 0.0708876 1.55765 0.555875 -0.0696804
14 1.66069 0 0 -0.0427853 0.0551273 -0.821597
15 1.167 0 0 -0.0176026 0.00756595 -0.775185
16 2.18852 0.501039 0.0576601 1.57003 -0.111495 0.225983
17 1.29609 0 0 0.014644 -0.0444869 -0.506886
18 1.62202 0.000717163 -0.000471115 0.018215 -0.0357179 -0.904846
19 1.22241 0 0 0.00915935 -0.00545184 -0.758137
20 1.76707 1.27612 0.0366402 1.57004 -0.0293956 0.261465
21 1.55588 0 0 -0.0149061 0.0289929 -0.180394
22 1.24274 0 0 -0.000598907 0 -0.628068
23 0.784523 0 0 0.0109357 0.0120948 -0.54806
24 -1.93761 8.00428 -7.76724 -0.000932534 0 3.14159
25 6.02794 0 0 0.896652 0.202754 1.41754
26 11.7344 0 0 0.0014027 0 0.645463
27 8.81167 0 0 -0.848692 0 0
28 5.77884 0 0 -0.568624 0 0
29 2.23249 0 0 -0.280068 0 0
30 11.4725 0 0 -0.850437 0.0638091 -0.0632715
31 0.615813 0.994371 -0.809166 -3.05441 0.408507 0.374952
32 2.24752 0 0 -0.0735459 -0.0599752 0.398209
33 1.11936 0 0 -0.0295821 0.104083 0.418689
34 3.71348 0.10264 0.10219 -1.55078 1.0009 -0.0625516
35 1.72615 0 0 0.00484507 0.00331905 1.0817
36 1.21112 0 0 0.0142296 0.0104192 1.53627
37 3.5992 1.06011 0.0708866 -1.75855 1.01668 -0.16381
38 1.66069 0 0 0.0132136 0.0176564 0.864594
39 1.16699 0 0 -0.0515123 0.0185073 1.64165
40 2.18853 -0.50104 0.0576582 -1.59892 0.0711593 -0.0997064
41 1.29609 0 0 -0.029491 -0.0363876 0.870095
42 1.62201 -0.000713825 -0.000471115 -0.00671605 -0.0123833 0.929894
43 1.22241 0 0 0.0197072 -0.0050003 1.81796
44 1.76707 -1.27612 0.0366402 -1.53586 0.195318 -0.0870189
45 1.55587 0 0 0.0272769 -0.0402817 0.694189
46 1.24273 0 0 0.000599239 0 0.70809
47 0.784532 0 0 -0.00593343 0.000318839 0.628058
48 0 0 0 0 0 0
49 11.7953 -3.60413 9.5962 0.770342 0.34821 3.08475
50 0 0 1.57913 0 0 0
51 -0.0597639 0 2.14219 1.5708 -0.465765 0
52 0.822425 0 0 0 0 -1.59206
53 1.65555 0 0 0 0 -0.179192
54 -6.10246 -17.6879 -7.39259 1.35638 -1.01692 1.9043
55 0.136341 0.367236 -0.82975 1.43126 -1.5609 -1.52465
56 0.30432 0 0 0 0 -0.0269022
57 0.287034 0 0 0 0 0.0456978
58 0.201059 0 0 0 0 0.00642938
59 0.232013 0 0 0 0 0.0372464
60 -0.0501709 0 2.09036 0 0.610865 0
61 0.34296 0 1.82042 0 0 0
62 -0.49446 -2.33627 -0.838784 0 0 0
time 22
0 1.938 5.07088 -6.6269 0 0 0
1 6.02794 0 0 -1.50247 -0.0741278 -0.833231
2 11.7344 0 0 -0.00140288 0 -1.68799
3 8.81138 -0.000450134 -0.00011158 -0.601703 0 0.000157384
4 5.77839 0.000286102 0 -0.403141 0 0.000102874
5 2.23164 -0.000329971 -0.000364304 -0.198562 0 0
6 11.4725 0 0 -0.458819 0.408623 0.787756
7 0.61522 -0.993092 -0.810699 -3.1239 0.583051 -0.493728
8 2.24752 0 0 0.410472 -0.0945482 -0.0996094
9 1.11936 0 0 0.383404 0.283609 -0.552786
10 3.71348 -0.102642 0.10219 1.55701 0.670238 0.070846
11 1.72615 0 0 0.00954793 -0.00970079 -0.889147
12 1.21113 0 0 -0.00385455 0.01721 -0.81781
13 3.59919 -1.06012 0.0708876 1.55765 0.555875 -0.0696804
14 1.66069 0 0 -0.0427853 0.0551273 -0.821597
15 1.167 0 0 -0.0176026 0.00756595 -0.775185
16 2.18852 0.501039 0.0576601 1.57003 -0.111495 0.225983
17 1.29609 0 0 0.014644 -0.0444869 -0.506886
18 1.62202 0.000717163 -0.000471115 0.018215 -0.0357179 -0.904846
19 1.22241 0 0 0.00915935 -0.00545184 -0.758137
20 1.76707 1.27612 0.0366402 1.57004 -0.0293956 0.261465
21 1.55588 0 0 -0.0149061 0.0289929 -0.180394
22 1.24274 0 0 -0.000598907 0 -0.628068
23 0.784523 0 0 0.0109357 0.0120948 -0.54806
24 -1.93761 8.00428 -7.76724 -0.000932534 0 3.14159
25 6.02794 0 0 0.89667 0.202266 1.41811
26 11.7344 0 0 0.00140268 0 0.645221
27 8.81167 0 0 -0.843619 0 0
28 5.77884 0 0 -0.565225 0 0
29 2.23249 0 0 -0.278394 0 0
30 11.4725 0 0 -0.84543 0.0627356 -0.0639805
31 0.615812 0.994371 -0.809165 -3.05441 0.408507 0.374953
32 2.24752 0 0 -0.0735459 -0.0599751 0.398209
33 1.11936 0 0 -0.0295821 0.104083 0.418689
34 3.71349 0.102638 0.102191 -1.55078 1.0009 -0.0625514
35 1.72615 0 0 0.00484504 0.00331899 1.0817
36 1.21112 0 0 0.0142297 0.0104192 1.53627
37 3.5992 1.06012 0.0708876 -1.75855 1.01668 -0.16381
38 1.66069 0 0 0.0132136 0.0176564 0.864594
39 1.16699 0 0 -0.0515122 0.0185073 1.64165
40 2.18853 -0.50104 0.0576591 -1.59892 0.0711593 -0.0997062
41 1.29609 0 0 -0.0294908 -0.0363877 0.870095
42 1.62201 -0.000713348 -0.000470161 -0.006716 -0.0123833 0.929895
43 1.2224 0 0 0.019707 -0.00500024 1.81796
44 1.76707 -1.27612 0.0366411 -1.53586 0.195318 -0.0870187
45 1.55588 0 0 0.0272769 -0.0402816 0.694189
46 1.24273 0 0 0.000599356 0 0.70809
47 0.784532 0 0 -0.00593339 0.000318866 0.628058
48 0 0 0 0 0 0
49 11.7953 -3.60413 9.5962 0.770342 0.34821 3.08475
50 0 0 1.57913 0 0 0
51 -0.0597639 0 2.14219 1.5708 -0.465765 0
52 0.822426 0 0 0 0 -1.59206
53 1.65555 0 0 0 0 -0.179192
54 -6.08738 -17.6871 -7.38289 1.34682 -1.01611 1.91267
55 0.13634 0.367234 -0.82975 1.43128 -1.5609 -1.52467
56 0.30432 0 0 0 0 -0.0269022
57 0.287034 0 0 0 0 0.0456978
58 0.201059 0 0 0 0 0.00642937
59 0.232011 0 0 0 0 0.0372464
60 -0.0501719 0 2.09035 0 0.610865 0
61 0.342958 0 1.82042 0 0 0
62 -0.49446 -2.33627 -0.838784 0 0 0
time 23
0 1.938 5.07088 -6.6269 0 0 0
1 6.02794 0 0 -1.50247 -0.0741278 -0.833231
2 11.7344 0 0 -0.00140288 0 -1.68799
3 8.81138 -0.000450134 -0.00011158 -0.601703 0 0.000157384
4 5.77839 0.000286102 0 -0.403141 0 0.000102874
5 2.23164 -0.000329971 -0.000364304 -0.198562 0 0
6 11.4725 0 0 -0.458819 0.408623 0.787756
7 0.61522 -0.993092 -0.810699 -3.1239 0.583051 -0.493728
8 2.24752 0 0 0.410647 -0.0939345 -0.101092
9 1.11936 0 0 0.384236 0.282687 -0.550171
10 3.71348 -0.102642 0.10219 1.55701 0.670238 0.070846
11 1.72615 0 0 0.00954793 -0.00970079 -0.889147
12 1.21113 0 0 -0.00385455 0.01721 -0.81781
13 3.59919 -1.06012 0.0708876 1.55765 0.555875 -0.0696804
14 1.66069 0 0 -0.0427853 0.0551273 -0.821597
15 1.167 0 0 -0.0176026 0.00756595 -0.775185
16 2.18852 0.501039 0.0576601 1.57003 -0.111495 0.225983
17 1.29609 0 0 0.014644 -0.0444869 -0.506886
18 1.62202 0.000717163 -0.000471115 0.018215 -0.0357179 -0.904846
19 1.22241 0 0 0.00915935 -0.00545184 -0.758137
20 1.76707 1.27612 0.0366402 1.57004 -0.0293956 0.261465
21 1.55588 0 0 -0.0149061 0.0289929 -0.180394
22 1.24274 0 0 -0.000598907 0 -0.628068
23 0.784523 0 0 0.0109357 0.0120948 -0.54806
24 -1.93761 8.00428 -7.76724 -0.000932534 0 3.14159
25 6.02794 0 0 0.896697 0.201545 1.41894
26 11.7344 0 0 0.00140271 0 0.644861
27 8.81167 0 0 -0.836144 0 0
28 5.77884 0 0 -0.560216 0 0
29 2.23249 0 0 -0.275927 0 0
30 11.4725 0 0 -0.83805 0.0611528 -0.0650231
31 0.615813 0.994371 -0.809166 -3.05441 0.408507 0.374952
32 2.24752 0 0 -0.0735459 -0.0599752 0.398209
33 1.11936 0 0 -0.029582 0.104083 0.418689
34 3.71349 0.102639 0.10219 -1.55078 1.0009 -0.0625515
35 1.72615 0 0 0.00484501 0.00331904 1.0817
36 1.21112 0 0 0.0142297 0.0104192 1.53627
37 3.5992 1.06011 0.0708866 -1.75855 1.01668 -0.16381
38 1.66069 0 0 0.0132136 0.0176563 0.864594
39 1.16699 0 0 -0.0515122 0.0185072 1.64165
40 2.18853 -0.50104 0.0576582 -1.59892 0.0711593 -0.0997063
41 1.29609 0 0 -0.029491 -0.0363877 0.870095
42 1.62202 -0.000712872 -0.000471115 -0.00671597 -0.0123833 0.929895
43 1.22241 0 0 0.0197071 -0.00500042 1.81796
44 1.76707 -1.27612 0.0366402 -1.53586 0.195318 -0.0870187
45 1.55588 0 0 0.0272768 -0.0402816 0.694189
46 1.24273 0 0 0.00059925 0 0.70809
47 0.784532 0 0 -0.00593349 0.000318761 0.628058
48 0 0 0 0 0 0
49 11.7953 -3.60413 9.5962 0.770342 0.34821 3.08475
50 0 0 1.57913 0 0 0
51 -0.0597639 0 2.14219 1.5708 -0.465766 0
52 0.822425 0 0 0 0 -1.59206
53 1.65555 0 0 0 0 -0.179192
54 -6.06515 -17.6859 -7.36853 1.33279 -1.01484 1.92494
55 0.136341 0.367236 -0.82975 1.43126 -1.5609 -1.52465
56 0.30432 0 0 0 0 -0.0269022
57 0.287035 0 0 0 0 0.0456978
58 0.201059 0 0 0 0 0.00642936
59 0.232012 0 0 0 0 0.0372464
60 -0.0501709 0 2.09036 0 0.610865 0
61 0.34296 0 1.82042 0 0 0
62 -0.49446 -2.33627 -0.838784 0 0 0
time 24
0 1.938 5.07088 -6.6269 0 0 0
1 6.02794 0 0 -1.50247 -0.0741278 -0.833231
2 11.7344 0 0 -0.00140288 0 -1.68799
3 8.81138 -0.000450134 -0.00011158 -0.601703 0 0.000157384
4 5.77839 0.000286102 0 -0.403141 0 0.000102874
5 2.23164 -0.000329971 -0.000364304 -0.198562 0 0
6 11.4725 0 0 -0.458819 0.408623 0.787756
7 0.61522 -0.993092 -0.810699 -3.1239 0.583051 -0.493728
8 2.24752 0 0 0.410814 -0.0933495 -0.102506
9 1.11936 0 0 0.385029 0.281806 -0.547675
10 3.71348 -0.102642 0.10219 1.55701 0.670238 0.070846
11 1.72615 0 0 0.00954793 -0.00970079 -0.889147
12 1.21113 0 0 -0.00385455 0.01721 -0.81781
13 3.59919 -1.06012 0.0708876 1.55765 0.555875 -0.0696804
14 1.66069 0 0 -0.0427853 0.0551273 -0.821597
15 1.167 0 0 -0.0176026 0.00756595 -0.775185
16 2.18852 0.501039 0.0576601 1.57003 -0.111495 0.225983
17 1.29609 0 0 0.014644 -0.0444869 -0.506886
18 1.62202 0.000717163 -0.000471115 0.018215 -0.0357179 -0.904846
19 1.22241 0 0 0.00915935 -0.00545184 -0.758137
20 1.76707 1.27612 0.0366402 1.57004 -0.0293956 0.261465
21 1.55588 0 0 -0.0149061 0.0289929 -0.180394
22 1.24274 0 0 -0.000598907 0 -0.628068
23 0.784523 0 0 0.0109357 0.0120948 -0.54806
24 -1.93761 8.00428 -7.76724 -0.000932534 0 3.14159
25 6.02794 0 0 0.896729 0.200667 1.41995
26 11.7344 0 0 0.0014027 0 0.644416
27 8.81167 0 0 -0.827071 0 0
28 5.77884 0 0 -0.554137 0 0
29 2.23249 0 0 -0.272933 0 0
30 11.4725 0 0 -0.829089 0.0592316 -0.0662849
31 0.615813 0.994371 -0.809165 -3.05441 0.408507 0.374953
32 2.24752 0 0 -0.0735459 -0.0599752 0.398209
33 1.11936 0 0 -0.029582 0.104083 0.418689
34 3.71348 0.102638 0.102191 -1.55078 1.0009 -0.0625516
35 1.72615 0 0 0.00484503 0.00331903 1.0817
36 1.21112 0 0 0.0142297 0.0104191 1.53627
37 3.5992 1.06011 0.0708876 -1.75855 1.01668 -0.16381
38 1.66069 0 0 0.0132136 0.0176564 0.864594
39 1.16699 0 0 -0.0515122 0.0185073 1.64165
40 2.18853 -0.501041 0.0576591 -1.59892 0.0711593 -0.0997063
41 1.29609 0 0 -0.029491 -0.0363876 0.870095
42 1.62202 -0.000713348 -0.000470161 -0.00671594 -0.0123833 0.929894
43 1.2224 0 0 0.0197071 -0.00500033 1.81796
44 1.76707 -1.27612 0.0366411 -1.53586 0.195318 -0.0870188
45 1.55587 0 0 0.0272768 -0.0402817 0.694189
46 1.24273 0 0 0.000599182 0 0.70809
47 0.784531 0 0 -0.00593348 0.00031879 0.628058
48 0 0 0 0 0 0
49 11.7953 -3.60413 9.5962 0.770342 0.34821 3.08475
50 0 0 1.57913 0 0 0
51 -0.0597639 0 2.14219 1.5708 -0.465766 0
52 0.822426 0 0 0 0 -1.59206
53 1.65555 0 0 0 0 -0.179192
54 -6.03816 -17.6844 -7.35098 1.31584 -1.01316 1.93977
55 0.136341 0.367235 -0.829751 1.43126 -1.5609 -1.52465
56 0.30432 0 0 0 0 -0.0269022
57 0.287034 0 0 0 0 0.0456978
58 0.201059 0 0 0 0 0.00642937
59 0.232012 0 0 0 0 0.0372464
60 -0.0501709 0 2.09035 0 0.610865 0
61 0.34296 0 1.82042 0 0 0
62 -0.49446 -2.33627 -0.838784 0 0 0
time 25
0 1.938 5.07088 -6.6269 0 0 0
1 6.02794 0 0 -1.50247 -0.0741278 -0.833231
2 11.7344 0 0 -0.00140288 0 -1.68799
3 8.81138 -0.000450134 -0.00011158 -0.601703 0 0.000157384
4 5.77839 0.000286102 0 -0.403141 0 0.000102874
5 2.23164 -0.000329971 -0.000364304 -0.198562 0 0
6 11.4725 0 0 -0.458819 0.408623 0.787756
7 0.61522 -0.993092 -0.810699 -3.1239 0.583051 -0.493728
8 2.24752 0 0 0.410973 -0.0927932 -0.103851
9 1.11936 0 0 0.385783 0.280968 -0.545303
10 3.71348 -0.102642 0.10219 1.55701 0.670238 0.070846
11 1.72615 0 0 0.00954793 -0.00970079 -0.889147
12 1.21113 0 0 -0.00385455 0.01721 -0.81781
13 3.59919 -1.06012 0.0708876 1.55765 0.555875 -0.0696804
14 1.66069 0 0 -0.0427853 0.0551273 -0.821597
15 1.167 0 0 -0.0176026 0.00756595 -0.775185
16 2.18852 0.501039 0.0576601 1.57003 -0.111495 0.225983
17 1.29609 0 0 0.014644 -0.0444869 -0.506886
18 1.62202 0.000717163 -0.000471115 0.018215 -0.0357179 -0.904846
19 1.22241 0 0 0.00915935 -0.00545184 -0.758137
20 1.76707 1.27612 0.0366402 1.57004 -0.0293956 0.261465
21 1.55588 0 0 -0.0149061 0.0289929 -0.180394
22 1.24274 0 0 -0.000598907 0 -0.628068
23 0.784523 0 0 0.0109357 0.0120948 -0.54806
24 -1.93761 8.00428 -7.76724 -0.000932534 0 3.14159
25 6.02794 0 0 0.896764 0.199708 1.42106
26 11.7344 0 0 0.00140272 0 0.643924
27 8.81167 0 0 -0.817202 0 0
28 5.77884 0 0 -0.547525 0 0
29 2.23249 0 0 -0.269677 0 0
30 11.4725 0 0 -0.819338 0.0571418 -0.0676525
31 0.615811 0.994372 -0.809165 -3.05441 0.408507 0.374953
32 2.24752 0 0 -0.0735459 -0.0599751 0.398209
33 1.11936 0 0 -0.0295821 0.104083 0.418689
34 3.71348 0.102639 0.102191 -1.55078 1.0009 -0.0625513
35 1.72615 0 0 0.00484494 0.00331902 1.0817
36 1.21112 0 0 0.0142298 0.0104192 1.53627
37 3.5992 1.06012 0.0708876 -1.75855 1.01668 -0.16381
38 1.66069 0 0 0.0132137 0.0176565 0.864594
39 1.16699 0 0 -0.0515124 0.0185073 1.64165
40 2.18853 -0.50104 0.0576591 -1.59892 0.0711594 -0.0997065
41 1.29609 0 0 -0.0294911 -0.0363877 0.870095
42 1.62201 -0.000711918 -0.000470161 -0.00671603 -0.0123833 0.929895
43 1.22241 0 0 0.0197072 -0.00500042 1.81796
44 1.76707 -1.27612 0.0366411 -1.53586 0.195318 -0.0870188
45 1.55588 0 0 0.0272768 -0.0402816 0.694189
46 1.24273 0 0 0.000599278 0 0.70809
47 0.784532 0 0 -0.00593344 0.0003188 0.628058
48 0 0 0 0 0 0
49 11.7953 -3.60413 9.5962 0.770342 0.34821 3.08475
50 0 0 1.57913 0 0 0
51 -0.0597639 0 2.14219 1.5708 -0.465765 0
52 0.822426 0 0 0 0 -1.59206
53 1.65555 0 0 0 0 -0.179192
54 -6.00879 -17.6828 -7.33174 1.29751 -1.01116 1.95579
55 0.136341 0.367236 -0.82975 1.43128 -1.5609 -1.52466
56 0.304319 0 0 0 0 -0.0269022
57 0.287034 0 0 0 0 0.0456978
58 0.201059 0 0 0 0 0.00642937
59 0.232013 0 0 0 0 0.0372464
60 -0.0501709 0 2.09036 0 0.610865 0
61 0.34296 0 1.82042 0 0 0
62 -0.49446 -2.33627 -0.838784 0 0 0
time 26
0 1.938 5.07088 -6.6269 0 0 0
1 6.02794 0 0 -1.50247 -0.0741278 -0.833231
2 11.7344 0 0 -0.00140288 0 -1.68799
3 8.81138 -0.000450134 -0.00011158 -0.601703 0 0.000157384
4 5.77839 0.000286102 0 -0.403141 0 0.000102874
5 2.23164 -0.000329971 -0.000364304 -0.198562 0 0
6 11.4725 0 0 -0.458819 0.408623 0.787756
7 0.61522 -0.993092 -0.810699 -3.1239 0.583051 -0.493728
8 2.24752 0 0 0.411123 -0.0922668 -0.105125
9 1.11936 0 0 0.386496 0.280175 -0.543059
10 3.71348 -0.102642 0.10219 1.55701 0.670238 0.070846
11 1.72615 0 0 0.00954793 -0.00970079 -0.889147
12 1.21113 0 0 -0.00385455 0.01721 -0.81781
13 3.59919 -1.06012 0.0708876 1.55765 0.555875 -0.0696804
14 1.66069 0 0 -0.0427853 0.0551273 -0.821597
15 1.167 0 0 -0.0176026 0.00756595 -0.775185
16 2.18852 0.501039 0.0576601 1.57003 -0.111495 0.225983
17 1.29609 0 0 0.014644 -0.0444869 -0.506886
18 1.62202 0.000717163 -0.000471115 0.018215 -0.0357179 -0.904846
19 1.22241 0 0 0.00915935 -0.00545184 -0.758137
20 1.76707 1.27612 0.0366402 1.57004 -0.0293956 0.261465
21 1.55588 0 0 -0.0149061 0.0289929 -0.180394
22 1.24274 0 0 -0.000598907 0 -0.628068
23 0.784523 0 0 0.0109357 0.0120948 -0.54806
24 -1.93761 8.00428 -7.76724 -0.000932534 0 3.14159
25 6.02794 0 0 0.8968 0.198746 1.42216
26 11.7344 0 0 0.00140274 0 0.643422
27 8.81167 0 0 -0.807339 0 0
28 5.77884 0 0 -0.540917 0 0
29 2.23249 0 0 -0.266422 0 0
30 11.4725 0 0 -0.809586 0.0550514 -0.0690146
31 0.615812 0.994371 -0.809165 -3.05441 0.408507 0.374953
32 2.24752 0 0 -0.0735459 -0.0599752 0.398209
33 1.11936 0 0 -0.0295821 0.104083 0.418689
34 3.71349 0.102639 0.102191 -1.55078 1.0009 -0.0625512
35 1.72615 0 0 0.00484496 0.00331905 1.0817
36 1.21112 0 0 0.0142297 0.0104191 1.53627
37 3.5992 1.06012 0.0708876 -1.75855 1.01668 -0.16381
38 1.66069 0 0 0.0132136 0.0176564 0.864595
39 1.16699 0 0 -0.0515123 0.0185073 1.64165
40 2.18853 -0.50104 0.0576582 -1.59892 0.0711594 -0.0997062
41 1.29609 0 0 -0.0294909 -0.0363877 0.870095
42 1.62202 -0.000712872 -0.000470161 -0.00671592 -0.0123833 0.929895
43 1.2224 0 0 0.0197069 -0.0050002 1.81796
44 1.76707 -1.27612 0.0366411 -1.53586 0.195318 -0.0870188
45 1.55587 0 0 0.0272768 -0.0402816 0.694189
46 1.24273 0 0 0.000599211 0 0.70809
47 0.784531 0 0 -0.00593348 0.000318779 0.628058
48 0 0 0 0 0 0
49 11.7953 -3.60413 9.5962 0.770342 0.34821 3.08475
50 0 0 1.57913 0 0 0
51 -0.059763 0 2.14219 1.5708 -0.465765 0
52 0.822426 0 0 0 0 -1.59206
53 1.65555 0 0 0 0 -0.179192
54 -5.9794 -17.6812 -7.31235 1.27932 -1.009 1.97168
55 0.136341 0.367236 -0.829752 1.43126 -1.5609 -1.52465
56 0.304318 0 0 0 0 -0.0269022
57 0.287034 0 0 0 0 0.0456978
58 0.201059 0 0 0 0 0.00642936
59 0.232012 0 0 0 0 0.0372464
60 -0.0501699 0 2.09035 0 0.610865 0
61 0.34296 0 1.82042 0 0 0
62 -0.49446 -2.33627 -0.838784 0 0 0
time 27
0 1.938 5.07088 -6.6269 0 0 0
1 6.02794 0 0 -1.50247 -0.0741278 -0.833231
2 11.7344 0 0 -0.00140288 0 -1.68799
3 8.81138 -0.000450134 -0.00011158 -0.601703 0 0.000157384
4 5.77839 0.000286102 0 -0.403141 0 0.000102874
5 2.23164 -0.000329971 -0.000364304 -0.198562 0 0
6 11.4725 0 0 -0.458819 0.408623 0.787756
7 0.61522 -0.993092 -0.810699 -3.1239 0.583051 -0.493728
8 2.24752 0 0 0.411264 -0.0917714 -0.106324
9 1.11936 0 0 0.387168 0.279427 -0.540944
10 3.71348 -0.102642 0.10219 1.55701 0.670238 0.070846
11 1.72615 0 0 0.00954793 -0.00970079 -0.889147
12 1.21113 0 0 -0.00385455 0.01721 -0.81781
13 3.59919 -1.06012 0.0708876 1.55765 0.555875 -0.0696804
14 1.66069 0 0 -0.0427853 0.0551273 -0.821597
15 1.167 0 0 -0.0176026 0.00756595 -0.775185
16 2.18852 0.501039 0.0576601 1.57003 -0.111495 0.225983
17 1.29609 0 0 0.014644 -0.0444869 -0.506886
18 1.62202 0.000717163 -0.000471115 0.018215 -0.0357179 -0.904846
19 1.22241 0 0 0.00915935 -0.00545184 -0.758137
20 1.76707 1.27612 0.0366402 1.57004 -0.0293956 0.261465
21 1.55588 0 0 -0.0149061 0.0289929 -0.180394
22 1.24274 0 0 -0.000598907 0 -0.628068
23 0.784523 0 0 0.0109357 0.0120948 -0.54806
24 -1.93761 8.00428 -7.76724 -0.000932534 0 3.14159
25 6.02794 0 0 0.896832 0.197859 1.42318
26 11.7344 0 0 0.00140267 0 0.642953
27 8.81167 0 0 -0.798281 0 0
28 5.77884 0 0 -0.534849 0 0
29 2.23249 0 0 -0.263433 0 0
30 11.4725 0 0 -0.800626 0.0531313 -0.0702609
31 0.615811 0.994371 -0.809165 -3.05441 0.408507 0.374952
32 2.24752 0 0 -0.0735459 -0.0599751 0.398209
33 1.11935 0 0 -0.029582 0.104083 0.418689
34 3.71348 0.102638 0.102191 -1.55078 1.0009 -0.062552
35 1.72615 0 0 0.00484497 0.00331909 1.0817
36 1.21112 0 0 0.0142296 0.0104192 1.53627
37 3.5992 1.06012 0.0708876 -1.75855 1.01668 -0.16381
38 1.66069 0 0 0.0132136 0.0176564 0.864595
39 1.16699 0 0 -0.0515122 0.0185072 1.64165
40 2.18853 -0.50104 0.0576582 -1.59892 0.0711593 -0.0997065
41 1.29609 0 0 -0.029491 -0.0363877 0.870095
42 1.62202 -0.000713348 -0.000471115 -0.006716 -0.0123832 0.929895
43 1.2224 0 0 0.0197071 -0.00500037 1.81796
44 1.76707 -1.27612 0.0366411 -1.53586 0.195318 -0.0870189
45 1.55587 0 0 0.0272768 -0.0402817 0.694189
46 1.24273 0 0 0.000599257 0 0.70809
47 0.784531 0 0 -0.00593346 0.000318762 0.628058
48 0 0 0 0 0 0
49 11.7953 -3.60413 9.5962 0.770342 0.34821 3.08475
50 0 0 1.57913 0 0 0
51 -0.0597639 0 2.14219 1.5708 -0.465765 0
52 0.822426 0 0 0 0 -1.59206
53 1.65555 0 0 0 0 -0.179192
54 -5.9524 -17.6798 -7.2944 1.26273 -1.00686 1.98617
55 0.136342 0.367236 -0.829751 1.43126 -1.5609 -1.52465
56 0.30432 0 0 0 0 -0.0269022
57 0.287033 0 0 0 0 0.0456978
58 0.201059 0 0 0 0 0.00642937
59 0.232013 0 0 0 0 0.0372464
60 -0.050169 0 2.09035 0 0.610865 0
61 0.34296 0 1.82042 0 0 0
62 -0.49446 -2.33627 -0.838784 0 0 0
time 28
0 1.938 5.07088 -6.6269 0 0 0
1 6.02794 0 0 -1.50247 -0.0741278 -0.833231
2 11.7344 0 0 -0.00140288 0 -1.68799
3 8.81138 -0.000450134 -0.00011158 -0.601703 0 0.000157384
4 5.77839 0.000286102 0 -0.403141 0 0.000102874
5 2.23164 -0.000329971 -0.000364304 -0.198562 0 0
6 11.4725 0 0 -0.458819 0.408623 0.787756
7 0.61522 -0.993092 -0.810699 -3.1239 0.583051 -0.493728
8 2.24752 0 0 0.411396 -0.0913073 -0.107447
9 1.11936 0 0 0.387797 0.278726 -0.538964
10 3.71348 -0.102642 0.10219 1.55701 0.670238 0.070846
11 1.72615 0 0 0.00954793 -0.00970079 -0.889147
12 1.21113 0 0 -0.00385455 0.01721 -0.81781
13 3.59919 -1.06012 0.0708876 1.55765 0.555875 -0.0696804
14 1.66069 0 0 -0.0427853 0.0551273 -0.821597
15 1.167 0 0 -0.0176026 0.00756595 -0.775185
16 2.18852 0.501039 0.0576601 1.57003 -0.111495 0.225983
17 1.29609 0 0 0.014644 -0.0444869 -0.506886
18 1.62202 0.000717163 -0.000471115 0.018215 -0.0357179 -0.904846
19 1.22241 0 0 0.00915935 -0.00545184 -0.758137
20 1.76707 1.27612 0.0366402 1.57004 -0.0293956 0.261465
21 1.55588 0 0 -0.0149061 0.0289929 -0.180394
22 1.24274 0 0 -0.000598907 0 -0.628068
23 0.784523 0 0 0.0109357 0.0120948 -0.54806
24 -1.93761 8.00428 -7.76724 -0.000932534 0 3.14159
25 6.02794 0 0 0.896859 0.197126 1.42402
26 11.7344 0 0 0.00140273 0 0.642561
27 8.81167 0 0 -0.790826 0 0
28 5.77884 0 0 -0.529854 0 0
29 2.23249 0 0 -0.260973 0 0
30 11.4725 0 0 -0.793248 0.05155 -0.0712838
31 0.615814 0.994372 -0.809164 -3.05441 0.408507 0.374952
32 2.24752 0 0 -0.0735459 -0.0599751 0.398209
33 1.11936 0 0 -0.0295821 0.104083 0.418689
34 3.71349 0.102639 0.102192 -1.55078 1.0009 -0.0625516
35 1.72615 0 0 0.00484507 0.00331923 1.0817
36 1.21112 0 0 0.0142295 0.0104193 1.53627
37 3.5992 1.06012 0.0708885 -1.75855 1.01668 -0.16381
38 1.66069 0 0 0.0132137 0.0176564 0.864595
39 1.16699 0 0 -0.0515122 0.0185073 1.64165
40 2.18853 -0.501039 0.0576591 -1.59892 0.0711594 -0.0997064
41 1.29609 0 0 -0.0294909 -0.0363877 0.870095
42 1.62202 -0.000713825 -0.000470161 -0.006716 -0.0123833 0.929895
43 1.22241 0 0 0.0197071 -0.00500029 1.81796
44 1.76707 -1.27612 0.0366421 -1.53586 0.195318 -0.0870188
45 1.55587 0 0 0.0272769 -0.0402816 0.694189
46 1.24273 0 0 0.000599268 0 0.70809
47 0.784532 0 0 -0.00593346 0.000318745 0.628058
48 0 0 0 0 0 0
49 11.7953 -3.60413 9.5962 0.770342 0.34821 3.08475
50 0 0 1.57913 0 0 0
51 -0.0597639 0 2.14219 1.5708 -0.465765 0
52 0.822426 0 0 0 0 -1.59206
53 1.65555 0 0 0 0 -0.179192
54 -5.93016 -17.6786 -7.27952 1.24915 -1.00499 1.99801
55 0.136341 0.367235 -0.829751 1.43126 -1.5609 -1.52465
56 0.304318 0 0 0 0 -0.0269022
57 0.287034 0 0 0 0 0.0456978
58 0.20106 0 0 0 0 0.00642938
59 0.232012 0 0 0 0 0.0372464
60 -0.0501709 0 2.09035 0 0.610865 0
61 0.342961 0 1.82042 0 0 0
62 -0.49446 -2.33627 -0.838784 0 0 0
time 29
0 1.938 5.07088 -6.6269 0 0 0
1 6.02794 0 0 -1.50247 -0.0741278 -0.833231
2 11.7344 0 0 -0.00140288 0 -1.68799
3 8.81138 -0.000450134 -0.00011158 -0.601703 0 0.000157384
4 5.77839 0.000286102 0 -0.403141 0 0.000102874
5 2.23164 -0.000329971 -0.000364304 -0.198562 0 0
6 11.4725 0 0 -0.458819 0.408623 0.787756
7 0.61522 -0.993092 -0.810699 -3.1239 0.583051 -0.493728
8 2.24752 0 0 0.411519 -0.0908756 -0.108493
9 1.11936 0 0 0.388382 0.278074 -0.537122
10 3.71348 -0.102642 0.10219 1.55701 0.670238 0.070846
11 1.72615 0 0 0.00954793 -0.00970079 -0.889147
12 1.21113 0 0 -0.00385455 0.01721 -0.81781
13 3.59919 -1.06012 0.0708876 1.55765 0.555875 -0.0696804
14 1.66069 0 0 -0.0427853 0.0551273 -0.821597
15 1.167 0 0 -0.0176026 0.00756595 -0.775185
16 2.18852 0.501039 0.0576601 1.57003 -0.111495 0.225983
17 1.29609 0 0 0.014644 -0.0444869 -0.506886
18 1.62202 0.000717163 -0.000471115 0.018215 -0.0357179 -0.904846
19 1.22241 0 0 0.00915935 -0.00545184 -0.758137
20 1.76707 1.27612 0.0366402 1.57004 -0.0293956 0.261465
21 1.55588 0 0 -0.0149061 0.0289929 -0.180394
22 1.24274 0 0 -0.000598907 0 -0.628068
23 0.784523 0 0 0.0109357 0.0120948 -0.54806
24 -1.93761 8.00428 -7.76724 -0.000932534 0 3.14159
25 6.02794 0 0 0.896877 0.196628 1.42459
26 11.7344 0 0 0.00140267 0 0.642292
27 8.81167 0 0 -0.785769 0 0
28 5.77884 0 0 -0.526465 0 0
29 2.23249 0 0 -0.259304 0 0
30 11.4725 0 0 -0.788241 0.0504774 -0.0719759
31 0.615813 0.994371 -0.809165 -3.05441 0.408507 0.374952
32 2.24752 0 0 -0.0735459 -0.0599752 0.398209
33 1.11936 0 0 -0.0295821 0.104083 0.418689
34 3.71348 0.102639 0.102191 -1.55078 1.0009 -0.0625513
35 1.72615 0 0 0.00484507 0.00331918 1.0817
36 1.21112 0 0 0.0142295 0.0104193 1.53627
37 3.5992 1.06012 0.0708885 -1.75855 1.01668 -0.16381
38 1.66069 0 0 0.0132137 0.0176564 0.864594
39 1.16699 0 0 -0.0515123 0.0185073 1.64165
40 2.18853 -0.50104 0.0576591 -1.59892 0.0711593 -0.0997063
41 1.29609 0 0 -0.0294909 -0.0363877 0.870095
42 1.62202 -0.000712395 -0.000471115 -0.00671598 -0.0123833 0.929895
43 1.2224 0 0 0.019707 -0.00500024 1.81796
44 1.76707 -1.27612 0.0366411 -1.53586 0.195318 -0.0870188
45 1.55588 0 0 0.0272769 -0.0402817 0.694189
46 1.24273 0 0 0.0005993 0 0.70809
47 0.784531 0 0 -0.00593348 0.000318788 0.628058
48 0 0 0 0 0 0
49 11.7953 -3.60413 9.5962 0.770342 0.34821 3.08475
50 0 0 1.57913 0 0 0
51 -0.0597639 0 2.14219 1.5708 -0.465765 0
52 0.822426 0 0 0 0 -1.59206
53 1.65555 0 0 0 0 -0.179192
54 -5.91507 -17.6777 -7.26938 1.24 -1.00367 2.006
55 0.136341 0.367237 -0.829751 1.43125 -1.5609 -1.52463
56 0.304318 0 0 0 0 -0.0269022
57 0.287034 0 0 0 0 0.0456978
58 0.201059 0 0 0 0 0.0064294
59 0.232013 0 0 0 0 0.0372464
60 -0.0501709 0 2.09035 0 0.610865 0
61 0.34296 0 1.82042 0 0 0
62 -0.49446 -2.33627 -0.838784 0 0 0
time 30
0 1.938 5.07088 -6.6269 0 0 0
1 6.02794 0 0 -1.50247 -0.0741278 -0.833231
2 11.7344 0 0 -0.00140288 0 -1.68799
3 8.81138 -0.000450134 -0.00011158 -0.601703 0 0.000157384
4 5.77839 0.000286102 0 -0.403141 0 0.000102874
5 2.23164 -0.000329971 -0.000364304 -0.198562 0 0
6 11.4725 0 0 -0.458819 0.408623 0.787756
7 0.61522 -0.993092 -0.810699 -3.1239 0.583051 -0.493728
8 2.24752 0 0 0.411633 -0.0904771 -0.109458
9 1.11936 0 0 0.388921 0.277472 -0.535421
10 3.71348 -0.102642 0.10219 1.55701 0.670238 0.070846
11 1.72615 0 0 0.00954793 -0.00970079 -0.889147
12 1.21113 0 0 -0.00385455 0.01721 -0.81781
13 3.59919 -1.06012 0.0708876 1.55765 0.555875 -0.0696804
14 1.66069 0 0 -0.0427853 0.0551273 -0.821597
15 1.167 0 0 -0.0176026 0.00756595 -0.775185
16 2.18852 0.501039 0.0576601 1.57003 -0.111495 0.225983
17 1.29609 0 0 0.014644 -0.0444869 -0.506886
18 1.62202 0.000717163 -0.000471115 0.018215 -0.0357179 -0.904846
19 1.22241 0 0 0.00915935 -0.00545184 -0.758137
20 1.76707 1.27612 0.0366402 1.57004 -0.0293956 0.261465
21 1.55588 0 0 -0.0149061 0.0289929 -0.180394
22 1.24274 0 0 -0.000598907 0 -0.628068
23 0.784523 0 0 0.0109357 0.0120948 -0.54806
24 -1.93761 8.00428 -7.76724 -0.000932534 0 3.14159
25 6.02794 0 0 0.896884 0.196444 1.42481
26 11.7344 0 0 0.00140267 0 0.642192
27 8.81167 0 0 -0.783907 0 0
28 5.77884 0 0 -0.525217 0 0
29 2.23249 0 0 -0.258689 0 0
30 11.4725 0 0 -0.786396 0.0500821 -0.0722309
31 0.615813 0.99437 -0.809165 -3.05441 0.408507 0.374953
32 2.24752 0 0 -0.0735459 -0.0599751 0.398209
33 1.11936 0 0 -0.0295821 0.104083 0.418689
34 3.71349 0.102638 0.102191 -1.55078 1.0009 -0.0625517
35 1.72615 0 0 0.00484498 0.00331906 1.0817
36 1.21112 0 0 0.0142297 0.0104192 1.53627
37 3.5992 1.06011 0.070888 -1.75855 1.01668 -0.16381
38 1.66069 0 0 0.0132137 0.0176564 0.864594
39 1.16699 0 0 -0.0515123 0.0185073 1.64165
40 2.18853 -0.50104 0.0576591 -1.59892 0.0711593 -0.0997064
41 1.29609 0 0 -0.0294909 -0.0363878 0.870095
42 1.62201 -0.000713825 -0.000471115 -0.00671601 -0.0123832 0.929895
43 1.2224 0 0 0.019707 -0.00500038 1.81796
44 1.76707 -1.27612 0.0366411 -1.53586 0.195318 -0.0870188
45 1.55588 0 0 0.0272768 -0.0402816 0.694189
46 1.24273 0 0 0.000599265 0 0.70809
47 0.784531 0 0 -0.00593343 0.000318935 0.628058
48 0 0 0 0 0 0
49 11.7953 -3.60413 9.5962 0.770342 0.34821 3.08475
50 0 0 1.57913 0 0 0
51 -0.059763 0 2.14219 1.5708 -0.465765 0
52 0.822426 0 0 0 0 -1.59206
53 1.65555 0 0 0 0 -0.179192
54 -5.90952 -17.6774 -7.26563 1.23663 -1.00317 2.00893
55 0.136341 0.367237 -0.82975 1.43123 -1.5609 -1.52462
56 0.304319 0 0 0 0 -0.0269022
57 0.287033 0 0 0 0 0.0456978
58 0.20106 0 0 0 0 0.0064294
59 0.232013 0 0 0 0 0.0372464
60 -0.0501709 0 2.09036 0 0.610865 0
61 0.34296 0 1.82042 0 0 0
62 -0.49446 -2.33627 -0.838784 0 0 0
end
