//Sequence File generated by the Wall Worm SMD Exporter PRO 1.99
//www.wallworm.com
version 1
nodes
0 "b_l_clav" -1
1 "b_l_upperarm" 0
2 "b_l_forearm" 1
3 "b_l_twist3" 2
4 "b_l_twist2" 2
5 "b_l_twist1" 2
6 "b_l_hand" 2
7 "b_l_thumb001" 6
8 "b_l_thumb002" 7
9 "b_l_thumb003" 8
10 "b_l_middle001" 6
11 "b_l_middle002" 10
12 "b_l_middle003" 11
13 "b_l_index001" 6
14 "b_l_index002" 13
15 "b_l_index003" 14
16 "b_l_hand_ringsqueezer" 6
17 "b_l_ring001" 16
18 "b_l_ring002" 17
19 "b_l_ring003" 18
20 "b_l_hand_pinkysqueezer" 6
21 "b_l_pinky001" 20
22 "b_l_pinky002" 21
23 "b_l_pinky003" 22
24 "b_r_clav" -1
25 "b_r_upperarm" 24
26 "b_r_forearm" 25
27 "b_r_twist3" 26
28 "b_r_twist2" 26
29 "b_r_twist1" 26
30 "b_r_hand" 26
31 "b_r_thumb001" 30
32 "b_r_thumb002" 31
33 "b_r_thumb003" 32
34 "b_r_middle001" 30
35 "b_r_middle002" 34
36 "b_r_middle003" 35
37 "b_r_index001" 30
38 "b_r_index002" 37
39 "b_r_index003" 38
40 "b_r_hand_ringsqueezer" 30
41 "b_r_ring001" 40
42 "b_r_ring002" 41
43 "b_r_ring003" 42
44 "b_r_hand_pinkysqueezer" 30
45 "b_r_pinky001" 44
46 "b_r_pinky002" 45
47 "b_r_pinky003" 46
48 "b_zero" -1
49 "d_bottle" -1
50 "Dummy001" 49
51 "Bone001" 50
52 "Bone002" 51
53 "Bone003" 52
54 "d_lighter" -1
55 "flamebase" 54
56 "flame1" 55
57 "flame2" 56
58 "flame3" 57
59 "flame4" 58
60 "d_wheel" 54
61 "d_plunger" 54
62 "glock_materials" -1
end
skeleton
time 0
0 1.938 5.07088 -6.6269 0 0 0
1 6.02794 0 0 -1.50247 -0.0741278 -0.833231
2 11.7344 0 0 -0.00140288 0 -1.68799
3 8.81138 -0.000450134 -0.00011158 -0.601703 0 0.000157384
4 5.77839 0.000286102 0 -0.403141 0 0.000102874
5 2.23164 -0.000329971 -0.000364304 -0.198562 0 0
6 11.4725 0 0 -0.458819 0.408623 0.787756
7 0.61522 -0.993092 -0.810699 -3.1239 0.583051 -0.493728
8 2.24752 0 0 0.412195 -0.0884994 -0.114254
9 1.11936 0 0 0.391599 0.274478 -0.526977
10 3.71348 -0.102642 0.10219 1.55701 0.670238 0.070846
11 1.72615 0 0 0.00954793 -0.00970079 -0.889147
12 1.21113 0 0 -0.00385455 0.01721 -0.81781
13 3.59919 -1.06012 0.0708876 1.55765 0.555875 -0.0696804
14 1.66069 0 0 -0.0427853 0.0551273 -0.821597
15 1.167 0 0 -0.0176026 0.00756595 -0.775185
16 2.18852 0.501039 0.0576601 1.57003 -0.111495 0.225983
17 1.29609 0 0 0.014644 -0.0444869 -0.506886
18 1.62202 0.000717163 -0.000471115 0.018215 -0.0357179 -0.904846
19 1.22241 0 0 0.00915935 -0.00545184 -0.758137
20 1.76707 1.27612 0.0366402 1.57004 -0.0293956 0.261465
21 1.55588 0 0 -0.0149061 0.0289929 -0.180394
22 1.24274 0 0 -0.000598907 0 -0.628068
23 0.784523 0 0 0.0109357 0.0120948 -0.54806
24 -1.93761 8.00428 -7.76724 -0.000932534 0 3.14159
25 6.02794 0 0 0.896884 0.196444 1.42481
26 11.7344 0 0 0.00140267 0 0.642192
27 8.81167 0 0 -0.783907 0 0
28 5.77884 0 0 -0.525217 0 0
29 2.23249 0 0 -0.258689 0 0
30 11.4725 0 0 -0.786396 0.0500821 -0.0722309
31 0.615813 0.99437 -0.809165 -3.05441 0.408507 0.374953
32 2.24752 0 0 -0.0735459 -0.0599751 0.398209
33 1.11936 0 0 -0.0295821 0.104083 0.418689
34 3.71349 0.102638 0.102191 -1.55078 1.0009 -0.0625517
35 1.72615 0 0 0.00484498 0.00331906 1.0817
36 1.21112 0 0 0.0142297 0.0104192 1.53627
37 3.5992 1.06011 0.070888 -1.75855 1.01668 -0.16381
38 1.66069 0 0 0.0132137 0.0176564 0.864594
39 1.16699 0 0 -0.0515123 0.0185073 1.64165
40 2.18853 -0.50104 0.0576591 -1.59892 0.0711593 -0.0997064
41 1.29609 0 0 -0.0294909 -0.0363878 0.870095
42 1.62201 -0.000713825 -0.000471115 -0.00671601 -0.0123832 0.929895
43 1.2224 0 0 0.019707 -0.00500038 1.81796
44 1.76707 -1.27612 0.0366411 -1.53586 0.195318 -0.0870188
45 1.55588 0 0 0.0272768 -0.0402816 0.694189
46 1.24273 0 0 0.000599265 0 0.70809
47 0.784531 0 0 -0.00593343 0.000318935 0.628058
48 0 0 0 0 0 0
49 11.7953 -3.60413 9.5962 0.770342 0.34821 3.08475
50 0 0 1.57913 0 0 0
51 -0.0597639 0 2.14219 1.5708 -0.465765 0
52 0.822427 0 0 0 0 -1.59206
53 1.65555 0 0 0 0 -0.179192
54 -5.90952 -17.6774 -7.26563 1.23663 -1.00317 2.00893
55 0.136341 0.367237 -0.82975 1.43123 -1.5609 -1.52462
56 0.304319 0 0 0 0 -0.0269022
57 0.287033 0 0 0 0 0.0456978
58 0.20106 0 0 0 0 0.0064294
59 0.232013 0 0 0 0 0.0372464
60 -0.0501709 0 2.09036 0 0.610865 0
61 0.34296 0 1.82042 0 0 0
62 -0.49446 -2.33627 -0.838784 0 0 0
time 1
0 1.94547 5.00999 -6.6269 0 0 -0.00759732
1 6.02794 0 0 -1.51231 -0.0643615 -0.815806
2 11.7344 0 0 -0.00140299 0 -1.73162
3 8.81138 -0.000450134 -0.000110626 -0.619046 0 0.000157666
4 5.77839 0.000285149 0 -0.414761 0 0.000103219
5 2.23163 -0.000329018 -0.00036335 -0.204285 0 0
6 11.4725 0 0 -0.472175 0.421778 0.793227
7 0.615219 -0.993092 -0.810699 -3.1239 0.583051 -0.493728
8 2.24752 0 0 0.412195 -0.0884993 -0.114254
9 1.11936 0 0 0.391599 0.274478 -0.526977
10 3.71348 -0.102642 0.102191 1.55701 0.670238 0.0708463
11 1.72615 0 0 0.00954784 -0.00970087 -0.889148
12 1.21114 0 0 -0.00385443 0.01721 -0.81781
13 3.59919 -1.06012 0.0708876 1.55765 0.555875 -0.0696803
14 1.66069 0 0 -0.0427852 0.0551273 -0.821598
15 1.167 0 0 -0.0176027 0.00756594 -0.775185
16 2.18852 0.501039 0.0576601 1.57003 -0.111495 0.225983
17 1.29609 0 0 0.0146442 -0.044487 -0.506886
18 1.62202 0.000713348 -0.000471115 0.0182149 -0.0357179 -0.904846
19 1.22241 0 0 0.00915929 -0.00545187 -0.758137
20 1.76707 1.27612 0.0366411 1.57004 -0.0293956 0.261465
21 1.55588 0 0 -0.0149061 0.0289928 -0.180395
22 1.24273 0 0 -0.000598936 0 -0.628068
23 0.784523 0 0 0.0109357 0.0120947 -0.54806
24 -1.93761 8.00428 -7.76724 -0.000932534 0 3.14159
25 6.02794 0 0 0.89681 0.195357 1.42635
26 11.7344 0 0 0.00140273 0 0.647204
27 8.81167 0 0 -0.782148 0 0
28 5.77884 0 0 -0.524039 0 0
29 2.23249 0 0 -0.258109 0 0
30 11.4725 0 0 -0.785052 0.0436095 -0.0803998
31 0.615812 0.994372 -0.809165 -3.05441 0.408507 0.374953
32 2.24752 0 0 -0.0735459 -0.0599751 0.398209
33 1.11936 0 0 -0.0295821 0.104083 0.418689
34 3.71348 0.102639 0.102191 -1.55078 1.0009 -0.0625514
35 1.72615 0 0 0.0048451 0.00331914 1.0817
36 1.21112 0 0 0.0142296 0.0104192 1.53627
37 3.5992 1.06012 0.070888 -1.75855 1.01668 -0.16381
38 1.66069 0 0 0.0132136 0.0176564 0.864594
39 1.16699 0 0 -0.0515123 0.0185073 1.64165
40 2.18853 -0.50104 0.0576591 -1.59892 0.0711594 -0.0997062
41 1.29609 0 0 -0.0294909 -0.0363876 0.870095
42 1.62202 -0.000713348 -0.000469208 -0.00671603 -0.0123833 0.929894
43 1.22241 0 0 0.019707 -0.00500035 1.81796
44 1.76707 -1.27612 0.0366411 -1.53586 0.195318 -0.0870188
45 1.55587 0 0 0.0272768 -0.0402817 0.694189
46 1.24273 0 0 0.000599245 0 0.70809
47 0.784532 0 0 -0.00593351 0.000318603 0.628058
48 0 0 0 0 0 0
49 11.6526 -3.19815 9.40664 0.790659 0.360126 3.08147
50 0 0 1.57913 0 0 0
51 -0.059762 0 2.14219 1.5708 -0.465765 0
52 0.822428 0 0 0 0 -1.59206
53 1.65555 0 0 0 0 -0.179192
54 -5.85901 -17.6579 -7.19027 1.23301 -1.00008 2.00705
55 0.136341 0.367236 -0.829751 1.43126 -1.5609 -1.52465
56 0.304319 0 0 0 0 -0.0269022
57 0.287034 0 0 0 0 0.0456978
58 0.201058 0 0 0 0 0.00642937
59 0.232013 0 0 0 0 0.0372464
60 -0.0501709 0 2.09035 0 0.610865 0
61 0.34296 0 1.82042 0 0 0
62 -0.49446 -2.33627 -0.838784 0 0 0
time 2
0 1.96651 4.83867 -6.6269 0 0 -0.0289762
1 6.02794 0 0 -1.53996 -0.043367 -0.767799
2 11.7344 0 0 -0.00140289 0 -1.84163
3 8.81138 -0.000450134 -0.000112534 -0.666888 0 0.000157594
4 5.77839 0.000285149 0 -0.446815 0 0.000102914
5 2.23163 -0.000328064 -0.00036335 -0.220073 0 0
6 11.4725 0 0 -0.514205 0.453661 0.803849
7 0.615219 -0.993091 -0.8107 -3.1239 0.583051 -0.493728
8 2.24752 0 0 0.412195 -0.0884993 -0.114254
9 1.11936 0 0 0.391599 0.274478 -0.526977
10 3.71348 -0.102641 0.102191 1.55701 0.670238 0.0708464
11 1.72615 0 0 0.0095479 -0.00970086 -0.889148
12 1.21113 0 0 -0.00385459 0.0172098 -0.81781
13 3.59919 -1.06012 0.0708876 1.55765 0.555875 -0.0696803
14 1.66069 0 0 -0.0427854 0.0551272 -0.821597
15 1.167 0 0 -0.0176027 0.00756594 -0.775185
16 2.18852 0.501039 0.0576582 1.57003 -0.111495 0.225983
17 1.29609 0 0 0.014644 -0.0444869 -0.506886
18 1.62202 0.000714302 -0.000471592 0.0182149 -0.035718 -0.904846
19 1.22241 0 0 0.00915925 -0.00545192 -0.758137
20 1.76707 1.27612 0.0366411 1.57004 -0.0293956 0.261465
21 1.55588 0 0 -0.0149061 0.0289929 -0.180394
22 1.24273 0 0 -0.000598899 0 -0.628068
23 0.784523 0 0 0.0109357 0.0120948 -0.54806
24 -1.93761 8.00428 -7.76724 -0.000932534 0 3.14159
25 6.02794 0 0 0.896668 0.192351 1.43047
26 11.7344 0 0 0.0014027 0 0.659159
27 8.81167 0 0 -0.777892 0 0
28 5.77884 0 0 -0.521187 0 0
29 2.23249 0 0 -0.256704 0 0
30 11.4725 0 0 -0.781625 0.0270392 -0.100671
31 0.615812 0.994371 -0.809166 -3.05441 0.408507 0.374953
32 2.24752 0 0 -0.0735459 -0.0599752 0.398209
33 1.11936 0 0 -0.029582 0.104083 0.418689
34 3.71349 0.102638 0.102191 -1.55078 1.0009 -0.0625517
35 1.72615 0 0 0.00484507 0.00331911 1.0817
36 1.21112 0 0 0.0142297 0.0104192 1.53627
37 3.5992 1.06012 0.070888 -1.75855 1.01668 -0.16381
38 1.66069 0 0 0.0132136 0.0176564 0.864594
39 1.16699 0 0 -0.0515123 0.0185074 1.64165
40 2.18853 -0.501041 0.0576587 -1.59892 0.0711594 -0.0997063
41 1.29609 0 0 -0.0294909 -0.0363875 0.870095
42 1.62201 -0.000712395 -0.000470161 -0.00671602 -0.0123834 0.929895
43 1.22241 0 0 0.0197071 -0.00500032 1.81796
44 1.76707 -1.27612 0.0366411 -1.53586 0.195318 -0.0870188
45 1.55588 0 0 0.0272769 -0.0402817 0.694189
46 1.24273 0 0 0.000599253 0 0.70809
47 0.784531 0 0 -0.00593342 0.000318679 0.628058
48 0 0 0 0 0 0
49 11.2786 -2.13843 8.89505 0.84821 0.389961 3.07515
50 0 0 1.57913 0 0 0
51 -0.059763 0 2.14219 1.5708 -0.465765 0
52 0.822427 0 0 0 0 -1.59206
53 1.65555 0 0 0 0 -0.179192
54 -5.7331 -17.6087 -7.0002 1.2239 -0.992098 2.00207
55 0.136341 0.367235 -0.829752 1.43125 -1.5609 -1.52464
56 0.30432 0 0 0 0 -0.0269022
57 0.287034 0 0 0 0 0.0456978
58 0.201058 0 0 0 0 0.00642938
59 0.232012 0 0 0 0 0.0372464
60 -0.0501719 0 2.09035 0 0.610865 0
61 0.34296 0 1.82042 0 0 0
62 -0.49446 -2.33627 -0.838784 0 0 0
time 3
0 1.99902 4.57389 -6.6269 0 0 -0.0620162
1 6.02794 0 0 -1.58491 -0.0264668 -0.69346
2 11.7344 0 0 -0.00140275 0 -1.98428
3 8.81138 -0.000450134 -0.00011158 -0.738589 0 0.000157608
4 5.77839 0.000286102 0 -0.494855 0 0.000102712
5 2.23163 -0.000329018 -0.000364304 -0.243734 0 0
6 11.4725 0 0 -0.590761 0.490479 0.812772
7 0.615219 -0.993091 -0.810701 -3.1239 0.583051 -0.493728
8 2.24752 0 0 0.412195 -0.0884994 -0.114254
9 1.11936 0 0 0.3916 0.274478 -0.526977
10 3.71348 -0.102641 0.10219 1.55701 0.670238 0.070846
11 1.72615 0 0 0.00954812 -0.00970078 -0.889147
12 1.21114 0 0 -0.00385452 0.0172099 -0.81781
13 3.59919 -1.06012 0.0708876 1.55765 0.555875 -0.0696804
14 1.66069 0 0 -0.0427852 0.0551273 -0.821597
15 1.167 0 0 -0.0176027 0.00756591 -0.775185
16 2.18852 0.501039 0.0576582 1.57003 -0.111496 0.225983
17 1.29609 0 0 0.0146439 -0.0444869 -0.506886
18 1.62202 0.000714302 -0.000471115 0.0182151 -0.0357179 -0.904846
19 1.22241 0 0 0.00915942 -0.00545186 -0.758137
20 1.76707 1.27612 0.0366402 1.57004 -0.0293957 0.261465
21 1.55588 0 0 -0.0149061 0.028993 -0.180394
22 1.24274 0 0 -0.000598892 0 -0.628068
23 0.784523 0 0 0.0109357 0.0120947 -0.54806
24 -1.93761 8.00428 -7.76724 -0.000932534 0 3.14159
25 6.02794 0 0 0.896562 0.187841 1.43633
26 11.7344 0 0 0.00140267 0 0.67351
27 8.81167 0 0 -0.772708 0 0
28 5.77884 0 0 -0.517714 0 0
29 2.23249 0 0 -0.254994 0 0
30 11.4725 0 0 -0.777028 0.00464115 -0.126717
31 0.615811 0.994371 -0.809165 -3.05441 0.408507 0.374953
32 2.24752 0 0 -0.0735459 -0.0599752 0.39821
33 1.11936 0 0 -0.0295821 0.104083 0.418689
34 3.71348 0.102638 0.102191 -1.55078 1.0009 -0.0625514
35 1.72615 0 0 0.00484499 0.0033191 1.0817
36 1.21112 0 0 0.0142297 0.0104192 1.53627
37 3.5992 1.06012 0.070888 -1.75855 1.01668 -0.16381
38 1.66069 0 0 0.0132136 0.0176564 0.864595
39 1.16699 0 0 -0.0515122 0.0185073 1.64165
40 2.18853 -0.50104 0.0576591 -1.59892 0.0711595 -0.0997062
41 1.29609 0 0 -0.029491 -0.0363876 0.870095
42 1.62201 -0.000712395 -0.000470161 -0.00671609 -0.0123834 0.929894
43 1.2224 0 0 0.0197072 -0.00500043 1.81796
44 1.76707 -1.27612 0.0366411 -1.53586 0.195318 -0.0870187
45 1.55587 0 0 0.0272769 -0.0402816 0.694189
46 1.24273 0 0 0.000599263 0 0.70809
47 0.784532 0 0 -0.00593341 0.00031881 0.628058
48 0 0 0 0 0 0
49 10.7707 -0.664104 8.14508 0.938748 0.425784 3.07261
50 0 0 1.57913 0 0 0
51 -0.0597639 0 2.14219 1.5708 -0.465765 0
52 0.822427 0 0 0 0 -1.59206
53 1.65555 0 0 0 0 -0.179192
54 -5.57021 -17.5437 -6.74944 1.21195 -0.981204 1.99496
55 0.136341 0.367236 -0.82975 1.43126 -1.5609 -1.52465
56 0.30432 0 0 0 0 -0.0269022
57 0.287035 0 0 0 0 0.0456978
58 0.201059 0 0 0 0 0.00642936
59 0.232013 0 0 0 0 0.0372464
60 -0.0501719 0 2.09035 0 0.610865 0
61 0.34296 0 1.82042 0 0 0
62 -0.49446 -2.33627 -0.838784 0 0 0
time 4
0 2.04091 4.23265 -6.6269 0 0 -0.104597
1 6.02794 0 0 -1.64748 -0.0261283 -0.593613
2 11.7344 0 0 -0.00140274 0 -2.13057
3 8.81138 -0.000450134 -0.00011158 -0.82525 0 0.000157715
4 5.77839 0.000285149 0 -0.552917 0 0.000102374
5 2.23163 -0.000329971 -0.000365257 -0.272332 0 0
6 11.4725 0 0 -0.704705 0.517147 0.820773
7 0.615219 -0.993091 -0.810699 -3.1239 0.583051 -0.493728
8 2.24752 0 0 0.412195 -0.0884994 -0.114254
9 1.11936 0 0 0.391599 0.274478 -0.526977
10 3.71348 -0.102641 0.102191 1.55701 0.670238 0.0708461
11 1.72615 0 0 0.00954796 -0.00970084 -0.889148
12 1.21114 0 0 -0.00385466 0.0172099 -0.81781
13 3.59919 -1.06012 0.0708876 1.55765 0.555875 -0.0696804
14 1.66069 0 0 -0.0427852 0.0551273 -0.821597
15 1.167 0 0 -0.0176026 0.00756598 -0.775185
16 2.18852 0.501039 0.0576601 1.57003 -0.111495 0.225983
17 1.29609 0 0 0.0146439 -0.044487 -0.506886
18 1.62202 0.000712395 -0.000471592 0.018215 -0.0357179 -0.904846
19 1.22241 0 0 0.00915943 -0.00545189 -0.758137
20 1.76707 1.27612 0.0366411 1.57004 -0.0293956 0.261465
21 1.55588 0 0 -0.014906 0.0289929 -0.180394
22 1.24274 0 0 -0.00059873 0 -0.628068
23 0.784522 0 0 0.0109357 0.0120947 -0.54806
24 -1.93761 8.00428 -7.76724 -0.000932534 0 3.14159
25 6.02794 0 0 0.896537 0.182629 1.44279
26 11.7344 0 0 0.00140264 0 0.686621
27 8.81167 0 0 -0.767928 0 0
28 5.77884 0 0 -0.514512 0 0
29 2.23249 0 0 -0.253416 0 0
30 11.4725 0 0 -0.772159 -0.0193235 -0.152675
31 0.615812 0.994372 -0.809165 -3.05441 0.408507 0.374953
32 2.24752 0 0 -0.0735459 -0.0599751 0.398209
33 1.11935 0 0 -0.0295821 0.104083 0.418689
34 3.71348 0.102639 0.102191 -1.55078 1.0009 -0.0625516
35 1.72615 0 0 0.004845 0.00331911 1.0817
36 1.21112 0 0 0.0142297 0.0104192 1.53627
37 3.5992 1.06012 0.070888 -1.75855 1.01668 -0.16381
38 1.66069 0 0 0.0132137 0.0176565 0.864595
39 1.16699 0 0 -0.0515124 0.0185073 1.64165
40 2.18853 -0.50104 0.0576596 -1.59892 0.0711593 -0.0997063
41 1.29609 0 0 -0.029491 -0.0363876 0.870095
42 1.62202 -0.000713348 -0.000470161 -0.0067161 -0.0123834 0.929895
43 1.2224 0 0 0.0197071 -0.00500036 1.81796
44 1.76707 -1.27612 0.0366411 -1.53586 0.195318 -0.0870187
45 1.55587 0 0 0.0272769 -0.0402817 0.694189
46 1.24273 0 0 0.000599334 0 0.70809
47 0.784532 0 0 -0.00593345 0.000318771 0.628058
48 0 0 0 0 0 0
49 10.228 0.973542 7.24416 1.05635 0.45367 3.07894
50 0 0 1.57913 0 0 0
51 -0.059763 0 2.14219 1.5708 -0.465765 0
52 0.822427 0 0 0 0 -1.59206
53 1.65555 0 0 0 0 -0.179192
54 -5.40852 -17.4774 -6.4921 1.1996 -0.969395 1.9869
55 0.13634 0.367236 -0.829751 1.43123 -1.5609 -1.52462
56 0.304319 0 0 0 0 -0.0269022
57 0.287034 0 0 0 0 0.0456978
58 0.20106 0 0 0 0 0.00642939
59 0.232013 0 0 0 0 0.0372464
60 -0.0501719 0 2.09035 0 0.610865 0
61 0.342959 0 1.82042 0 0 0
62 -0.49446 -2.33627 -0.838784 0 0 0
time 5
0 2.0901 3.83194 -6.6269 0 0 -0.154599
1 6.02794 0 0 -1.72513 -0.046001 -0.467654
2 11.7344 0 0 -0.00140279 0 -2.25914
3 8.81138 -0.000448227 -0.000112534 -0.915602 0 0.000157493
4 5.77839 0.000287056 0 -0.613453 0 0.000101962
5 2.23163 -0.000328064 -0.000364304 -0.302148 0 0
6 11.4725 0 0 -0.847829 0.521097 0.837277
7 0.615219 -0.993091 -0.8107 -3.1239 0.583051 -0.493728
8 2.24752 0 0 0.412195 -0.0884994 -0.114254
9 1.11936 0 0 0.391599 0.274478 -0.526977
10 3.71348 -0.102641 0.102191 1.55701 0.670238 0.0708463
11 1.72615 0 0 0.00954782 -0.00970096 -0.889147
12 1.21114 0 0 -0.00385465 0.0172099 -0.817809
13 3.59919 -1.06012 0.0708885 1.55765 0.555875 -0.0696803
14 1.66069 0 0 -0.0427853 0.0551273 -0.821597
15 1.167 0 0 -0.0176028 0.00756602 -0.775185
16 2.18852 0.501039 0.0576591 1.57003 -0.111495 0.225983
17 1.29609 0 0 0.014644 -0.0444871 -0.506886
18 1.62202 0.000712395 -0.000471354 0.018215 -0.0357179 -0.904846
19 1.22241 0 0 0.00915945 -0.00545178 -0.758137
20 1.76707 1.27612 0.0366421 1.57004 -0.0293956 0.261464
21 1.55588 0 0 -0.0149061 0.0289929 -0.180394
22 1.24273 0 0 -0.000598917 0 -0.628068
23 0.784523 0 0 0.0109358 0.0120947 -0.54806
24 -1.93761 8.00428 -7.76724 -0.000932534 0 3.14159
25 6.02794 0 0 0.896544 0.178202 1.44817
26 11.7344 0 0 0.00140267 0 0.69652
27 8.81167 0 0 -0.764391 0 0
28 5.77884 0 0 -0.512142 0 0
29 2.23249 0 0 -0.252249 0 0
30 11.4725 0 0 -0.767872 -0.0406087 -0.173539
31 0.615812 0.994372 -0.809165 -3.05441 0.408507 0.374953
32 2.24752 0 0 -0.0735459 -0.0599751 0.398209
33 1.11936 0 0 -0.0295821 0.104083 0.418689
34 3.71349 0.10264 0.102191 -1.55078 1.0009 -0.0625515
35 1.72615 0 0 0.00484506 0.00331914 1.0817
36 1.21112 0 0 0.0142296 0.0104192 1.53627
37 3.5992 1.06012 0.070888 -1.75855 1.01668 -0.16381
38 1.66069 0 0 0.0132135 0.0176563 0.864594
39 1.16699 0 0 -0.0515122 0.0185073 1.64165
40 2.18853 -0.50104 0.0576591 -1.59892 0.0711595 -0.0997062
41 1.29609 0 0 -0.0294909 -0.0363877 0.870095
42 1.62201 -0.000713348 -0.000469208 -0.00671598 -0.0123833 0.929895
43 1.22241 0 0 0.0197071 -0.00500038 1.81796
44 1.76707 -1.27612 0.0366416 -1.53586 0.195318 -0.0870187
45 1.55588 0 0 0.0272767 -0.0402815 0.694189
46 1.24273 0 0 0.000599148 0 0.708089
47 0.784531 0 0 -0.00593341 0.000318792 0.628058
48 0 0 0 0 0 0
49 9.73029 2.50848 6.28801 1.19024 0.461147 3.09354
50 0 0 1.57913 0 0 0
51 -0.059762 0 2.14219 1.5708 -0.465765 0
52 0.822426 0 0 0 0 -1.59206
53 1.65555 0 0 0 0 -0.179192
54 -5.28586 -17.425 -6.28237 1.18894 -0.958726 1.97932
55 0.136341 0.367235 -0.829751 1.43128 -1.5609 -1.52467
56 0.30432 0 0 0 0 -0.0269022
57 0.287034 0 0 0 0 0.0456978
58 0.201059 0 0 0 0 0.00642938
59 0.232013 0 0 0 0 0.0372464
60 -0.0501719 0 2.09035 0 0.610865 0
61 0.34296 0 1.82042 0 0 0
62 -0.49446 -2.33627 -0.838784 0 0 0
time 6
0 2.14451 3.38875 -6.6269 0 0 -0.209901
1 6.02794 0 0 -1.80655 -0.0771303 -0.322206
2 11.7344 0 0 -0.00140282 0 -2.35841
3 8.81138 -0.000451088 -0.000111103 -0.994865 0 0.000158041
4 5.77839 0.000286102 0 -0.66656 0 0.000102172
5 2.23164 -0.000329971 -0.000362873 -0.328305 0 0
6 11.4725 0 0 -0.996082 0.49534 0.874767
7 0.615219 -0.993091 -0.8107 -3.1239 0.583051 -0.493728
8 2.24752 0 0 0.412195 -0.0884995 -0.114254
9 1.11936 0 0 0.3916 0.274478 -0.526977
10 3.71348 -0.102641 0.102191 1.55701 0.670238 0.0708467
11 1.72615 0 0 0.00954787 -0.0097008 -0.889148
12 1.21114 0 0 -0.00385455 0.0172098 -0.81781
13 3.59919 -1.06012 0.0708876 1.55765 0.555875 -0.06968
14 1.66069 0 0 -0.0427852 0.0551273 -0.821597
15 1.167 0 0 -0.0176026 0.00756598 -0.775185
16 2.18852 0.501039 0.0576591 1.57003 -0.111495 0.225984
17 1.29609 0 0 0.014644 -0.044487 -0.506886
18 1.62202 0.000713348 -0.000470757 0.0182151 -0.035718 -0.904846
19 1.22241 0 0 0.00915918 -0.00545192 -0.758137
20 1.76707 1.27612 0.0366402 1.57004 -0.0293957 0.261465
21 1.55588 0 0 -0.014906 0.0289928 -0.180394
22 1.24273 0 0 -0.000598917 0 -0.628068
23 0.784524 0 0 0.0109357 0.0120947 -0.54806
24 -1.93761 8.00428 -7.76724 -0.000932534 0 3.14159
25 6.02794 0 0 0.89658 0.175829 1.45095
26 11.7344 0 0 0.00140269 0 0.7006
27 8.81167 0 0 -0.762518 0 0
28 5.77884 0 0 -0.510887 0 0
29 2.23249 0 0 -0.251631 0 0
30 11.4725 0 0 -0.764975 -0.0549857 -0.184031
31 0.615813 0.994372 -0.809165 -3.05441 0.408507 0.374952
32 2.24752 0 0 -0.0735459 -0.0599751 0.398209
33 1.11936 0 0 -0.0295821 0.104083 0.418689
34 3.71349 0.102639 0.102191 -1.55078 1.0009 -0.0625514
35 1.72615 0 0 0.00484504 0.00331915 1.0817
36 1.21112 0 0 0.0142297 0.0104191 1.53627
37 3.5992 1.06011 0.0708876 -1.75855 1.01668 -0.16381
38 1.66069 0 0 0.0132136 0.0176564 0.864595
39 1.16699 0 0 -0.0515121 0.0185073 1.64165
40 2.18853 -0.50104 0.0576587 -1.59892 0.0711594 -0.0997063
41 1.29609 0 0 -0.0294909 -0.0363876 0.870095
42 1.62201 -0.000712395 -0.000470161 -0.0067161 -0.0123834 0.929895
43 1.2224 0 0 0.0197071 -0.0050003 1.81796
44 1.76707 -1.27612 0.0366411 -1.53586 0.195318 -0.0870187
45 1.55588 0 0 0.0272769 -0.0402817 0.694189
46 1.24273 0 0 0.000599231 0 0.70809
47 0.784531 0 0 -0.00593351 0.000318686 0.628058
48 0 0 0 0 0 0
49 9.32516 3.66902 5.38014 1.3246 0.441396 3.10971
50 0 0 1.57913 0 0 0
51 -0.0597639 0 2.14219 1.5708 -0.465765 0
52 0.822427 0 0 0 0 -1.59206
53 1.65555 0 0 0 0 -0.179192
54 -5.23976 -17.4029 -6.17461 1.18179 -0.951295 1.97387
55 0.136341 0.367235 -0.829751 1.43126 -1.5609 -1.52465
56 0.304319 0 0 0 0 -0.0269022
57 0.287033 0 0 0 0 0.0456978
58 0.201058 0 0 0 0 0.00642936
59 0.232012 0 0 0 0 0.0372465
60 -0.0501709 0 2.09036 0 0.610865 0
61 0.342959 0 1.82042 0 0 0
62 -0.49446 -2.33627 -0.838784 0 0 0
time 7
0 2.20205 2.92008 -6.6269 0 0 -0.268384
1 6.02794 0 0 -1.86529 -0.103731 -0.185008
2 11.7344 0 0 -0.00140278 0 -2.43004
3 8.81138 -0.000449181 -0.00011158 -1.03673 0 0.000157761
4 5.77839 0.000285625 0 -0.694612 0 0.000101909
5 2.23164 -0.000329018 -0.00036478 -0.342122 0 0
6 11.4725 0 0 -1.11166 0.434926 0.939905
7 0.615219 -0.993091 -0.8107 -3.1239 0.583051 -0.493728
8 2.24752 0 0 0.412195 -0.0884995 -0.114254
9 1.11936 0 0 0.391599 0.274478 -0.526977
10 3.71348 -0.102641 0.102191 1.55701 0.670238 0.0708461
11 1.72615 0 0 0.00954806 -0.00970079 -0.889147
12 1.21114 0 0 -0.00385453 0.0172099 -0.81781
13 3.59919 -1.06012 0.0708876 1.55765 0.555875 -0.0696805
14 1.66069 0 0 -0.0427853 0.0551273 -0.821597
15 1.167 0 0 -0.0176027 0.00756598 -0.775185
16 2.18852 0.501039 0.0576601 1.57003 -0.111495 0.225983
17 1.29609 0 0 0.014644 -0.044487 -0.506886
18 1.62202 0.000714302 -0.000470877 0.0182151 -0.0357179 -0.904845
19 1.22241 0 0 0.00915928 -0.00545185 -0.758137
20 1.76707 1.27612 0.0366402 1.57004 -0.0293956 0.261465
21 1.55588 0 0 -0.0149061 0.028993 -0.180394
22 1.24274 0 0 -0.000598899 0 -0.628068
23 0.784523 0 0 0.0109358 0.0120948 -0.54806
24 -1.93761 8.00428 -7.76724 -0.000932534 0 3.14159
25 6.02794 0 0 0.897451 0.168854 1.45688
26 11.7344 0 0 0.00140275 0 0.685709
27 8.81167 0 0 -0.762527 0 0
28 5.77884 0 0 -0.510893 0 0
29 2.23249 0 0 -0.251634 0 0
30 11.4725 0 0 -0.764173 -0.0590136 -0.179021
31 0.615814 0.994372 -0.809165 -3.05441 0.408507 0.374953
32 2.24752 0 0 -0.0735459 -0.0599751 0.398209
33 1.11936 0 0 -0.0295821 0.104083 0.418689
34 3.71349 0.102638 0.102191 -1.55078 1.0009 -0.0625514
35 1.72615 0 0 0.00484506 0.00331898 1.0817
36 1.21112 0 0 0.0142298 0.0104191 1.53627
37 3.5992 1.06012 0.070888 -1.75855 1.01668 -0.16381
38 1.66069 0 0 0.0132137 0.0176564 0.864595
39 1.16699 0 0 -0.0515123 0.0185073 1.64165
40 2.18853 -0.50104 0.0576591 -1.59892 0.0711593 -0.0997063
41 1.29609 0 0 -0.029491 -0.0363877 0.870095
42 1.62201 -0.000713348 -0.000469208 -0.00671602 -0.0123833 0.929894
43 1.2224 0 0 0.0197071 -0.00500028 1.81796
44 1.76707 -1.27612 0.0366406 -1.53586 0.195318 -0.0870188
45 1.55587 0 0 0.0272768 -0.0402816 0.694189
46 1.24273 0 0 0.000599225 0 0.70809
47 0.784531 0 0 -0.00593349 0.000318795 0.628058
48 0 0 0 0 0 0
49 9.02619 4.1922 4.62752 1.44323 0.396057 3.11918
50 0 0 1.57913 0 0 0
51 -0.059762 0 2.14219 1.5708 -0.465765 0
52 0.822427 0 0 0 0 -1.59206
53 1.65555 0 0 0 0 -0.179192
54 -5.21792 -17.4574 -6.13578 1.17983 -0.949221 1.97233
55 0.136342 0.367236 -0.829751 1.43126 -1.5609 -1.52465
56 0.304319 0 0 0 0 -0.0269022
57 0.287034 0 0 0 0 0.0456978
58 0.201059 0 0 0 0 0.00642938
59 0.232012 0 0 0 0 0.0372464
60 -0.0501709 0 2.09035 0 0.610865 0
61 0.342959 0 1.82042 0 0 0
62 -0.49446 -2.33627 -0.838784 0 0 0
time 8
0 2.26064 2.44291 -6.6269 0 0 -0.327926
1 6.02794 0 0 -1.85976 -0.117662 -0.107166
2 11.7344 0 0 -0.00140281 0 -2.4809
3 8.81138 -0.000450134 -0.000112057 -0.993276 0 0.000157797
4 5.77839 0.000286102 0 -0.665495 0 0.000102023
5 2.23163 -0.000329018 -0.000364304 -0.327781 0 0
6 11.4725 0 0 -1.15447 0.323601 1.01987
7 0.615219 -0.993091 -0.810701 -3.1239 0.583051 -0.493728
8 2.24752 0 0 0.412195 -0.0884993 -0.114254
9 1.11936 0 0 0.3916 0.274478 -0.526977
10 3.71348 -0.102641 0.102191 1.55701 0.670238 0.0708462
11 1.72615 0 0 0.00954781 -0.0097008 -0.889147
12 1.21114 0 0 -0.00385465 0.0172099 -0.81781
13 3.59919 -1.06012 0.0708876 1.55765 0.555875 -0.0696802
14 1.66069 0 0 -0.0427852 0.0551272 -0.821598
15 1.167 0 0 -0.0176028 0.00756591 -0.775185
16 2.18852 0.501039 0.0576591 1.57003 -0.111495 0.225983
17 1.29609 0 0 0.0146441 -0.0444869 -0.506886
18 1.62202 0.000713348 -0.000470877 0.018215 -0.0357179 -0.904846
19 1.22241 0 0 0.00915939 -0.00545179 -0.758137
20 1.76707 1.27612 0.0366411 1.57004 -0.0293954 0.261465
21 1.55588 0 0 -0.0149061 0.0289929 -0.180394
22 1.24274 0 0 -0.000598828 0 -0.628068
23 0.784523 0 0 0.0109357 0.0120947 -0.54806
24 -1.93761 8.00428 -7.76724 -0.000932534 0 3.14159
25 6.02794 0 0 0.899362 0.153569 1.4694
26 11.7344 0 0 0.00140273 0 0.648182
27 8.81167 0 0 -0.762515 0 0
28 5.77884 0 0 -0.510885 0 0
29 2.23249 0 0 -0.25163 0 0
30 11.4725 0 0 -0.764053 -0.049799 -0.158243
31 0.615812 0.99437 -0.809165 -3.05441 0.408507 0.374953
32 2.24752 0 0 -0.0735459 -0.0599752 0.398209
33 1.11936 0 0 -0.0295821 0.104083 0.418689
34 3.71349 0.102638 0.102191 -1.55078 1.0009 -0.0625517
35 1.72615 0 0 0.00484507 0.00331901 1.0817
36 1.21112 0 0 0.0142297 0.0104192 1.53627
37 3.5992 1.06012 0.070888 -1.75855 1.01668 -0.16381
38 1.66069 0 0 0.0132136 0.0176563 0.864595
39 1.16699 0 0 -0.0515121 0.0185072 1.64165
40 2.18853 -0.501041 0.0576591 -1.59892 0.0711594 -0.0997063
41 1.29609 0 0 -0.029491 -0.0363876 0.870095
42 1.62202 -0.000712395 -0.000469208 -0.00671597 -0.0123834 0.929895
43 1.22241 0 0 0.0197072 -0.00500038 1.81796
44 1.76707 -1.27612 0.0366411 -1.53586 0.195318 -0.0870188
45 1.55588 0 0 0.0272771 -0.0402817 0.694189
46 1.24273 0 0 0.000599173 0 0.70809
47 0.784531 0 0 -0.00593354 0.000318733 0.628058
48 0 0 0 0 0 0
49 8.82031 3.83538 4.13527 1.53549 0.33448 3.11798
50 0 0 1.57913 0 0 0
51 -0.059763 0 2.14219 1.5708 -0.465766 0
52 0.822427 0 0 0 0 -1.59206
53 1.65555 0 0 0 0 -0.179192
54 -5.15366 -17.5875 -6.11876 1.18188 -0.953183 1.97956
55 0.13634 0.367236 -0.829751 1.43126 -1.5609 -1.52465
56 0.304319 0 0 0 0 -0.0269022
57 0.287033 0 0 0 0 0.0456978
58 0.201059 0 0 0 0 0.00642938
59 0.232013 0 0 0 0 0.0372464
60 -0.0501709 0 2.09035 0 0.610866 0
61 0.34296 0 1.82042 0 0 0
62 -0.49446 -2.33627 -0.838784 0 0 0
time 9
0 2.31817 1.97424 -6.6269 0 0 -0.386409
1 6.02794 0 0 -1.75057 -0.115213 -0.132291
2 11.7344 0 0 -0.00140284 0 -2.50867
3 8.81138 -0.000450611 -0.000112057 -0.82453 0 0.000157862
4 5.77839 0.000285625 0 -0.552435 0 0.000102564
5 2.23163 -0.000329971 -0.00036478 -0.272095 0 0
6 11.4725 0 0 -1.10689 0.132388 1.07211
7 0.615219 -0.993091 -0.810699 -3.1239 0.583051 -0.493728
8 2.24752 0 0 0.412195 -0.0884994 -0.114254
9 1.11936 0 0 0.391599 0.274478 -0.526977
10 3.71348 -0.102641 0.102191 1.55701 0.670238 0.0708462
11 1.72615 0 0 0.00954777 -0.00970088 -0.889147
12 1.21114 0 0 -0.00385448 0.01721 -0.817809
13 3.59919 -1.06012 0.0708895 1.55765 0.555875 -0.0696803
14 1.66069 0 0 -0.0427854 0.0551272 -0.821597
15 1.167 0 0 -0.0176026 0.00756599 -0.775185
16 2.18852 0.501039 0.0576591 1.57003 -0.111495 0.225984
17 1.29609 0 0 0.0146442 -0.044487 -0.506886
18 1.62202 0.000715256 -0.000470996 0.0182149 -0.035718 -0.904846
19 1.22241 0 0 0.00915941 -0.00545184 -0.758137
20 1.76707 1.27612 0.0366421 1.57004 -0.0293956 0.261465
21 1.55588 0 0 -0.0149061 0.0289927 -0.180394
22 1.24274 0 0 -0.000598942 0 -0.628068
23 0.784523 0 0 0.0109357 0.0120947 -0.54806
24 -1.93761 8.00428 -7.76724 -0.000932534 0 3.14159
25 6.02794 0 0 0.901455 0.135953 1.48336
26 11.7344 0 0 0.00140269 0 0.600427
27 8.81167 0 0 -0.761847 0 0
28 5.77884 0 0 -0.510438 0 0
29 2.23249 0 0 -0.251409 0 0
30 11.4725 0 0 -0.763652 -0.029952 -0.126585
31 0.615812 0.994371 -0.809165 -3.05441 0.408507 0.374953
32 2.24752 0 0 -0.0735459 -0.0599752 0.398209
33 1.11935 0 0 -0.0295821 0.104083 0.418689
34 3.71348 0.102639 0.102191 -1.55078 1.0009 -0.0625516
35 1.72615 0 0 0.00484504 0.00331919 1.0817
36 1.21112 0 0 0.0142297 0.0104192 1.53627
37 3.5992 1.06012 0.0708876 -1.75855 1.01668 -0.16381
38 1.66069 0 0 0.0132136 0.0176563 0.864594
39 1.16699 0 0 -0.0515123 0.0185074 1.64165
40 2.18853 -0.50104 0.0576591 -1.59892 0.0711593 -0.0997062
41 1.29609 0 0 -0.0294909 -0.0363877 0.870095
42 1.62202 -0.000712395 -0.000470161 -0.00671597 -0.0123833 0.929895
43 1.2224 0 0 0.0197071 -0.00500037 1.81796
44 1.76707 -1.27612 0.0366411 -1.53586 0.195318 -0.0870187
45 1.55588 0 0 0.0272769 -0.0402815 0.694189
46 1.24273 0 0 0.00059925 0 0.70809
47 0.784531 0 0 -0.0059335 0.000318724 0.628058
48 0 0 0 0 0 0
49 8.61036 2.47458 3.99681 1.5983 0.270264 3.10822
50 0 0 1.57913 0 0 0
51 -0.059763 0 2.14219 1.5708 -0.465765 0
52 0.822426 0 0 0 0 -1.59206
53 1.65555 0 0 0 0 -0.179192
54 -5.08745 -17.7426 -6.14977 1.18599 -0.961371 1.995
55 0.136339 0.367236 -0.82975 1.43126 -1.5609 -1.52465
56 0.304319 0 0 0 0 -0.0269022
57 0.287034 0 0 0 0 0.0456978
58 0.20106 0 0 0 0 0.00642938
59 0.232012 0 0 0 0 0.0372464
60 -0.0501728 0 2.09035 0 0.610865 0
61 0.342959 0 1.82042 0 0 0
62 -0.49446 -2.33627 -0.838784 0 0 0
time 10
0 2.37258 1.53105 -6.6269 0 0 -0.441711
1 6.02794 0 0 -1.55806 -0.070404 -0.230979
2 11.7344 0 0 -0.00140296 0 -2.49365
3 8.81138 -0.000450134 -0.000111341 -0.61676 0 0.000157481
4 5.77839 0.000285625 0 -0.413229 0 0.000103043
5 2.23163 -0.000328541 -0.000364304 -0.203531 0 0
6 11.4725 0 0 -1.0004 -0.119103 1.02771
7 0.615219 -0.993091 -0.8107 -3.1239 0.583051 -0.493728
8 2.24752 0 0 0.412195 -0.0884994 -0.114254
9 1.11936 0 0 0.3916 0.274478 -0.526977
10 3.71348 -0.102641 0.10219 1.55701 0.670238 0.0708461
11 1.72615 0 0 0.00954774 -0.00970079 -0.889147
12 1.21114 0 0 -0.00385457 0.0172099 -0.81781
13 3.59919 -1.06012 0.0708876 1.55765 0.555874 -0.0696802
14 1.66068 0 0 -0.0427852 0.0551272 -0.821597
15 1.167 0 0 -0.0176026 0.00756599 -0.775185
16 2.18852 0.501039 0.0576582 1.57003 -0.111495 0.225983
17 1.29609 0 0 0.014644 -0.0444871 -0.506886
18 1.62202 0.000713348 -0.000470638 0.0182149 -0.0357178 -0.904846
19 1.22241 0 0 0.00915931 -0.00545176 -0.758137
20 1.76707 1.27612 0.0366402 1.57004 -0.0293958 0.261465
21 1.55588 0 0 -0.014906 0.0289928 -0.180394
22 1.24274 0 0 -0.000598989 0 -0.628068
23 0.784523 0 0 0.0109357 0.0120948 -0.54806
24 -1.93761 8.00428 -7.76724 -0.000932534 0 3.14159
25 6.02794 0 0 0.903041 0.123194 1.49272
26 11.7344 0 0 0.00140262 0 0.557997
27 8.81167 0 0 -0.762421 0 0
28 5.77884 0 0 -0.510822 0 0
29 2.23249 0 0 -0.251599 0 0
30 11.4725 0 0 -0.764324 -0.0047784 -0.0924729
31 0.615812 0.994371 -0.809165 -3.05441 0.408507 0.374953
32 2.24752 0 0 -0.0735459 -0.0599751 0.398209
33 1.11936 0 0 -0.0295821 0.104083 0.418689
34 3.71349 0.102638 0.10219 -1.55078 1.0009 -0.0625514
35 1.72615 0 0 0.00484491 0.003319 1.0817
36 1.21112 0 0 0.0142298 0.0104192 1.53627
37 3.5992 1.06012 0.0708876 -1.75855 1.01668 -0.16381
38 1.66069 0 0 0.0132136 0.0176564 0.864595
39 1.16699 0 0 -0.0515122 0.0185072 1.64165
40 2.18853 -0.50104 0.0576591 -1.59892 0.0711593 -0.0997064
41 1.29609 0 0 -0.0294909 -0.0363876 0.870095
42 1.62201 -0.000713348 -0.000469208 -0.006716 -0.0123833 0.929895
43 1.2224 0 0 0.0197071 -0.00500028 1.81796
44 1.76707 -1.27612 0.0366416 -1.53586 0.195318 -0.0870187
45 1.55587 0 0 0.0272767 -0.0402815 0.694189
46 1.24273 0 0 0.000599253 0 0.70809
47 0.784531 0 0 -0.00593346 0.000318848 0.628058
48 0 0 0 0 0 0
49 8.28966 0.288075 4.1485 1.63394 0.217758 3.09579
50 0 0 1.57913 0 0 0
51 -0.059763 0 2.14219 1.5708 -0.465766 0
52 0.822427 0 0 0 0 -1.59206
53 1.65555 0 0 0 0 -0.179192
54 -5.07498 -17.8746 -6.25439 1.19284 -0.972143 2.01218
55 0.136341 0.367234 -0.829751 1.43125 -1.5609 -1.52463
56 0.30432 0 0 0 0 -0.0269022
57 0.287034 0 0 0 0 0.0456978
58 0.201059 0 0 0 0 0.00642937
59 0.232012 0 0 0 0 0.0372465
60 -0.0501728 0 2.09036 0 0.610865 0
61 0.342959 0 1.82042 0 0 0
62 -0.49446 -2.33627 -0.838784 0 0 0
time 11
0 2.42178 1.13035 -6.6269 0 0 -0.491713
1 6.02794 0 0 -1.35369 0.0182307 -0.324298
2 11.7344 0 0 -0.00140295 0 -2.41383
3 8.81138 -0.000450134 -0.000112057 -0.50062 0 0.000158175
4 5.77839 0.000284672 0 -0.335415 0 0.000103905
5 2.23164 -0.000329494 -0.00036478 -0.165205 0 0
6 11.4725 0 0 -0.869852 -0.355135 0.857143
7 0.615219 -0.993091 -0.8107 -3.1239 0.583051 -0.493728
8 2.24752 0 0 0.412195 -0.0884994 -0.114254
9 1.11936 0 0 0.3916 0.274478 -0.526977
10 3.71348 -0.102641 0.102191 1.55701 0.670238 0.0708461
11 1.72615 0 0 0.00954778 -0.00970076 -0.889147
12 1.21114 0 0 -0.00385462 0.01721 -0.81781
13 3.59919 -1.06012 0.0708885 1.55765 0.555875 -0.0696803
14 1.66069 0 0 -0.0427853 0.0551272 -0.821598
15 1.167 0 0 -0.0176024 0.00756603 -0.775185
16 2.18852 0.50104 0.0576591 1.57003 -0.111495 0.225983
17 1.29609 0 0 0.014644 -0.0444869 -0.506886
18 1.62202 0.000714302 -0.000471115 0.018215 -0.0357178 -0.904846
19 1.22241 0 0 0.00915927 -0.00545182 -0.758137
20 1.76707 1.27612 0.0366392 1.57004 -0.0293954 0.261465
21 1.55588 0 0 -0.0149062 0.0289929 -0.180394
22 1.24273 0 0 -0.000598781 0 -0.628068
23 0.784523 0 0 0.0109357 0.0120947 -0.54806
24 -1.93761 8.00428 -7.76724 -0.000932534 0 3.14159
25 6.02794 0 0 0.903541 0.124047 1.49033
26 11.7344 0 0 0.00140268 0 0.540352
27 8.81167 0 0 -0.765726 0 0
28 5.77884 0 0 -0.513036 0 0
29 2.23249 0 0 -0.25269 0 0
30 11.4725 0 0 -0.767429 0.0204323 -0.0663983
31 0.615813 0.99437 -0.809165 -3.05441 0.408507 0.374953
32 2.24752 0 0 -0.0735459 -0.0599752 0.398209
33 1.11936 0 0 -0.0295821 0.104083 0.418689
34 3.71348 0.102638 0.102191 -1.55078 1.0009 -0.0625513
35 1.72615 0 0 0.004845 0.00331918 1.0817
36 1.21112 0 0 0.0142296 0.0104191 1.53627
37 3.5992 1.06012 0.0708876 -1.75855 1.01668 -0.16381
38 1.66069 0 0 0.0132136 0.0176564 0.864595
39 1.16699 0 0 -0.0515122 0.0185073 1.64165
40 2.18853 -0.50104 0.0576591 -1.59892 0.0711594 -0.0997063
41 1.29609 0 0 -0.0294908 -0.0363877 0.870095
42 1.62202 -0.000713825 -0.000470161 -0.00671594 -0.0123833 0.929895
43 1.2224 0 0 0.019707 -0.00500046 1.81796
44 1.76707 -1.27612 0.0366411 -1.53586 0.195318 -0.0870187
45 1.55588 0 0 0.0272769 -0.0402817 0.694189
46 1.24273 0 0 0.000599311 0 0.70809
47 0.784532 0 0 -0.00593349 0.000318655 0.628058
48 0 0 0 0 0 0
49 7.82215 -2.48875 4.45322 1.64658 0.189914 3.08716
50 0 0 1.57913 0 0 0
51 -0.0597639 0 2.14219 1.5708 -0.465765 0
52 0.822427 0 0 0 0 -1.59206
53 1.65555 0 0 0 0 -0.179192
54 -5.1715 -17.9373 -6.45817 1.20314 -0.983835 2.02456
55 0.13634 0.367238 -0.82975 1.43125 -1.5609 -1.52463
56 0.304319 0 0 0 0 -0.0269022
57 0.287033 0 0 0 0 0.0456978
58 0.201059 0 0 0 0 0.00642937
59 0.232013 0 0 0 0 0.0372464
60 -0.0501719 0 2.09035 0 0.610865 0
61 0.342959 0 1.82042 0 0 0
62 -0.49446 -2.33627 -0.838784 0 0 0
time 12
0 2.46367 0.789106 -6.6269 0 0 -0.534294
1 6.02794 0 0 -1.18885 0.0974222 -0.380228
2 11.7344 0 0 -0.00140283 0 -2.26735
3 8.81138 -0.000450134 -0.00011301 -0.484767 0 0.00015797
4 5.77839 0.000286102 0 -0.324794 0 0.000103822
5 2.23163 -0.000329018 -0.000364304 -0.159973 0 0
6 11.4725 0 0 -0.731945 -0.510411 0.606823
7 0.615219 -0.993091 -0.810699 -3.1239 0.583051 -0.493728
8 2.24752 0 0 0.412195 -0.0884993 -0.114254
9 1.11936 0 0 0.391599 0.274478 -0.526977
10 3.71348 -0.102641 0.102192 1.55701 0.670238 0.0708462
11 1.72615 0 0 0.00954779 -0.00970077 -0.889147
12 1.21114 0 0 -0.00385461 0.0172099 -0.81781
13 3.59919 -1.06012 0.0708885 1.55765 0.555875 -0.0696804
14 1.66069 0 0 -0.0427855 0.0551273 -0.821597
15 1.167 0 0 -0.0176026 0.00756605 -0.775185
16 2.18852 0.50104 0.0576591 1.57003 -0.111495 0.225983
17 1.29609 0 0 0.0146439 -0.0444869 -0.506886
18 1.62202 0.000714302 -0.000470161 0.0182153 -0.0357179 -0.904846
19 1.22241 0 0 0.00915935 -0.00545185 -0.758137
20 1.76707 1.27612 0.0366411 1.57004 -0.0293954 0.261465
21 1.55588 0 0 -0.0149061 0.0289929 -0.180394
22 1.24273 0 0 -0.00059881 0 -0.628068
23 0.784523 0 0 0.0109356 0.0120948 -0.54806
24 -1.93761 8.00428 -7.76724 -0.000932534 0 3.14159
25 6.02794 0 0 0.902087 0.146985 1.46914
26 11.7344 0 0 0.00140268 0 0.565907
27 8.81167 0 0 -0.772687 0 0
28 5.77884 0 0 -0.517701 0 0
29 2.23249 0 0 -0.254987 0 0
30 11.4725 0 0 -0.774336 0.040438 -0.058288
31 0.615813 0.994373 -0.809165 -3.05441 0.408507 0.374953
32 2.24752 0 0 -0.0735459 -0.0599752 0.398209
33 1.11936 0 0 -0.029582 0.104083 0.418689
34 3.71349 0.102639 0.102191 -1.55078 1.0009 -0.0625516
35 1.72615 0 0 0.00484496 0.003319 1.0817
36 1.21112 0 0 0.0142296 0.0104192 1.53627
37 3.5992 1.06012 0.070888 -1.75855 1.01668 -0.16381
38 1.66069 0 0 0.0132136 0.0176564 0.864594
39 1.16699 0 0 -0.0515122 0.0185073 1.64165
40 2.18853 -0.50104 0.0576591 -1.59892 0.0711593 -0.0997064
41 1.29609 0 0 -0.029491 -0.0363877 0.870095
42 1.62202 -0.000713348 -0.000470161 -0.00671604 -0.0123833 0.929894
43 1.2224 0 0 0.0197069 -0.00500029 1.81796
44 1.76707 -1.27612 0.0366411 -1.53586 0.195318 -0.0870186
45 1.55587 0 0 0.0272768 -0.0402816 0.694189
46 1.24273 0 0 0.000599268 0 0.70809
47 0.784531 0 0 -0.00593342 0.000318773 0.628058
48 0 0 0 0 0 0
49 7.1819 -5.62653 4.77127 1.63879 0.197212 3.087
50 0 0 1.57913 0 0 0
51 -0.059763 0 2.14219 1.5708 -0.465765 0
52 0.822426 0 0 0 0 -1.59206
53 1.65555 0 0 0 0 -0.179193
54 -5.43161 -17.8862 -6.78671 1.21756 -0.994755 2.02562
55 0.13634 0.367237 -0.829751 1.43126 -1.5609 -1.52465
56 0.30432 0 0 0 0 -0.0269022
57 0.287033 0 0 0 0 0.0456978
58 0.201059 0 0 0 0 0.00642938
59 0.232012 0 0 0 0 0.0372464
60 -0.0501719 0 2.09036 0 0.610865 0
61 0.342959 0 1.82042 0 0 0
62 -0.49446 -2.33627 -0.838784 0 0 0
time 13
0 2.49618 0.524327 -6.6269 0 0 -0.567334
1 6.02794 0 0 -1.07027 0.139623 -0.421745
2 11.7344 0 0 -0.00140287 0 -2.07293
3 8.81138 -0.000449181 -0.000112772 -0.499609 0 0.000157237
4 5.77839 0.000287056 0 -0.334738 0 0.000103216
5 2.23163 -0.000328064 -0.000364065 -0.164871 0 0
6 11.4725 0 0 -0.595661 -0.567967 0.339444
7 0.615219 -0.993091 -0.8107 -3.1239 0.583051 -0.493728
8 2.24752 0 0 0.412195 -0.0884992 -0.114254
9 1.11936 0 0 0.3916 0.274478 -0.526977
10 3.71348 -0.10264 0.102191 1.55701 0.670238 0.0708464
11 1.72615 0 0 0.00954801 -0.00970083 -0.889147
12 1.21114 0 0 -0.00385475 0.0172098 -0.81781
13 3.59919 -1.06012 0.0708876 1.55765 0.555875 -0.0696802
14 1.66069 0 0 -0.0427853 0.0551273 -0.821597
15 1.167 0 0 -0.0176026 0.00756602 -0.775185
16 2.18852 0.501039 0.0576591 1.57003 -0.111495 0.225983
17 1.29609 0 0 0.014644 -0.0444869 -0.506886
18 1.62202 0.000714302 -0.000471115 0.0182148 -0.035718 -0.904846
19 1.22241 0 0 0.00915933 -0.00545181 -0.758137
20 1.76707 1.27612 0.0366402 1.57004 -0.0293957 0.261465
21 1.55588 0 0 -0.0149061 0.0289928 -0.180394
22 1.24273 0 0 -0.000598894 0 -0.628068
23 0.784523 0 0 0.0109357 0.0120948 -0.54806
24 -1.93761 8.00428 -7.76724 -0.000932534 0 3.14159
25 6.02794 0 0 0.896884 0.196444 1.42481
26 11.7344 0 0 0.00140267 0 0.642192
27 8.81167 0 0 -0.783907 0 0
28 5.77884 0 0 -0.525217 0 0
29 2.23249 0 0 -0.258689 0 0
30 11.4725 0 0 -0.786396 0.0500821 -0.0722309
31 0.615813 0.99437 -0.809165 -3.05441 0.408507 0.374953
32 2.24752 0 0 -0.0735459 -0.0599751 0.398209
33 1.11936 0 0 -0.0295821 0.104083 0.418689
34 3.71349 0.102638 0.102191 -1.55078 1.0009 -0.0625517
35 1.72615 0 0 0.00484498 0.00331906 1.0817
36 1.21112 0 0 0.0142297 0.0104192 1.53627
37 3.5992 1.06011 0.070888 -1.75855 1.01668 -0.16381
38 1.66069 0 0 0.0132137 0.0176564 0.864594
39 1.16699 0 0 -0.0515123 0.0185073 1.64165
40 2.18853 -0.50104 0.0576591 -1.59892 0.0711593 -0.0997064
41 1.29609 0 0 -0.0294909 -0.0363878 0.870095
42 1.62201 -0.000713825 -0.000471115 -0.00671601 -0.0123832 0.929895
43 1.2224 0 0 0.019707 -0.00500038 1.81796
44 1.76707 -1.27612 0.0366411 -1.53586 0.195318 -0.0870188
45 1.55588 0 0 0.0272768 -0.0402816 0.694189
46 1.24273 0 0 0.000599265 0 0.70809
47 0.784531 0 0 -0.00593343 0.000318935 0.628058
48 0 0 0 0 0 0
49 6.35902 -8.9231 4.96142 1.60764 0.246656 3.0964
50 0 0 1.57913 0 0 0
51 -0.059763 0 2.14219 1.5708 -0.465765 0
52 0.822427 0 0 0 0 -1.59206
53 1.65555 0 0 0 0 -0.179192
54 -5.90952 -17.6774 -7.26563 1.23663 -1.00317 2.00893
55 0.136341 0.367237 -0.82975 1.43123 -1.5609 -1.52462
56 0.304319 0 0 0 0 -0.0269022
57 0.287033 0 0 0 0 0.0456978
58 0.20106 0 0 0 0 0.0064294
59 0.232013 0 0 0 0 0.0372464
60 -0.0501709 0 2.09036 0 0.610865 0
61 0.34296 0 1.82042 0 0 0
62 -0.49446 -2.33627 -0.838784 0 0 0
time 14
0 2.51721 0.353 -6.6269 0 0 -0.588713
1 6.02795 0 0 -0.986314 0.153223 -0.470239
2 11.7344 0 0 -0.00140286 0 -1.85258
3 8.81138 -0.000448227 -0.000112534 -0.487809 0 0.000157347
4 5.77839 0.00028801 0 -0.326832 0 0.000103386
5 2.23163 -0.000326157 -0.000364065 -0.160977 0 0
6 11.4725 0 0 -0.474761 -0.536913 0.107996
7 0.615219 -0.993091 -0.8107 -3.13154 0.582845 -0.513793
8 2.24752 0 0 0.393567 -0.0782697 -0.0967897
9 1.11936 0 0 0.371226 0.260908 -0.515764
10 3.71348 -0.102641 0.102191 1.55747 0.625286 0.0716099
11 1.72615 0 0 0.00908927 -0.0114153 -0.835523
12 1.21114 0 0 -0.00296216 0.0173857 -0.766224
13 3.59919 -1.06012 0.0708876 1.55792 0.520895 -0.0691504
14 1.66069 0 0 -0.0394268 0.0579145 -0.769248
15 1.167 0 0 -0.0181448 0.0105683 -0.723774
16 2.18852 0.50104 0.0576582 1.57003 -0.107751 0.22598
17 1.29609 0 0 0.0133287 -0.0448984 -0.477445
18 1.62202 0.000714302 -0.000471115 0.0161329 -0.0367051 -0.847351
19 1.22241 0 0 0.00956597 -0.00668967 -0.709923
20 1.76707 1.27612 0.0366406 1.57004 -0.0293955 0.261465
21 1.55588 0 0 -0.0146156 0.0291402 -0.1704
22 1.24274 0 0 -0.000597397 0 -0.590603
23 0.784523 0 0 0.0113811 0.0116766 -0.510594
24 -1.93761 8.00428 -7.76724 -0.000932534 0 3.14159
25 6.02794 0 0 0.886569 0.263281 1.36343
26 11.7344 0 0 0.00140253 0 0.745703
27 8.81167 0 0 -0.799371 0 0
28 5.77884 0 0 -0.535579 0 0
29 2.23249 0 0 -0.263793 0 0
30 11.4725 0 0 -0.80336 0.0504089 -0.0956124
31 0.615812 0.994372 -0.809165 -3.05441 0.408507 0.374953
32 2.24752 0 0 -0.0735459 -0.0599752 0.398209
33 1.11936 0 0 -0.029582 0.104083 0.418689
34 3.71348 0.102639 0.102191 -1.55078 1.0009 -0.0625515
35 1.72615 0 0 0.00484502 0.00331907 1.0817
36 1.21112 0 0 0.0142297 0.0104191 1.53627
37 3.5992 1.06012 0.0708876 -1.75855 1.01668 -0.16381
38 1.66069 0 0 0.0132137 0.0176563 0.864594
39 1.16699 0 0 -0.0515121 0.0185073 1.64165
40 2.18853 -0.50104 0.0576591 -1.59892 0.0711593 -0.0997062
41 1.29609 0 0 -0.0294908 -0.0363877 0.870095
42 1.62201 -0.000712395 -0.000470161 -0.00671603 -0.0123833 0.929895
43 1.2224 0 0 0.019707 -0.00500026 1.81796
44 1.76707 -1.27612 0.0366411 -1.53586 0.195318 -0.0870187
45 1.55588 0 0 0.0272768 -0.0402817 0.694189
46 1.24273 0 0 0.000599207 0 0.70809
47 0.784531 0 0 -0.00593339 0.000318866 0.628058
48 0 0 0 0 0 0
49 5.37262 -12.2259 4.88179 1.53947 0.339179 3.10981
50 0 0 1.57913 0 0 0
51 -0.0597634 0 2.14219 1.5708 -0.465765 0
52 0.822427 0 0 0 0 -1.59206
53 1.65555 0 0 0 0 -0.179192
54 -6.5905 -17.3271 -7.88526 1.26025 -1.00923 1.97556
55 0.136341 0.367234 -0.82975 1.43128 -1.5609 -1.52467
56 0.304319 0 0 0 0 -0.0269022
57 0.287034 0 0 0 0 0.0456978
58 0.20106 0 0 0 0 0.00642936
59 0.232012 0 0 0 0 0.0372465
60 -0.0501719 0 2.09035 0 0.610865 0
61 0.342959 0 1.82042 0 0 0
62 -0.49446 -2.33627 -0.838784 0 0 0
time 15
0 2.52469 0.292115 -6.6269 0 0 -0.59631
1 6.02794 0 0 -0.922913 0.157346 -0.531439
2 11.7344 0 0 -0.00140284 0 -1.62969
3 8.81138 -0.000450134 -0.000112832 -0.43365 0 0.000157834
4 5.77839 0.000284195 0 -0.290545 0 0.000103938
5 2.23163 -0.000329971 -0.000363827 -0.143104 0 0
6 11.4725 0 0 -0.384121 -0.440462 -0.0348118
7 0.615219 -0.993092 -0.8107 3.13232 0.581677 -0.566496
8 2.24752 0 0 0.344418 -0.0514695 -0.050623
9 1.11936 0 0 0.317559 0.225129 -0.486323
10 3.71348 -0.10264 0.102191 1.55844 0.506893 0.0734103
11 1.72615 0 0 0.00763031 -0.0156296 -0.694271
12 1.21114 0 0 -0.000580055 0.0176267 -0.630357
13 3.59919 -1.06012 0.070888 1.55852 0.428766 -0.067848
14 1.66069 0 0 -0.0300731 0.0643699 -0.631286
15 1.167 0 0 -0.0190443 0.0181787 -0.588342
16 2.18852 0.50104 0.0576591 1.57004 -0.0978881 0.225973
17 1.29609 0 0 0.00981166 -0.0457952 -0.399899
18 1.62202 0.000713348 -0.000469208 0.0104121 -0.0387177 -0.695906
19 1.22241 0 0 0.0103971 -0.00984023 -0.582932
20 1.76707 1.27612 0.0366411 1.57004 -0.0293957 0.261465
21 1.55588 0 0 -0.0138437 0.0295149 -0.144078
22 1.24273 0 0 -0.000589007 0.000111745 -0.491927
23 0.784523 0 0 0.0124758 0.0104986 -0.411919
24 -1.93761 8.00428 -7.76724 -0.000932534 0 3.14159
25 6.02794 0 0 0.870811 0.336819 1.29236
26 11.7344 0 0 0.00140275 0 0.851319
27 8.81167 0 0 -0.818907 0 0
28 5.77884 0 0 -0.548668 0 0
29 2.23249 0 0 -0.270239 0 0
30 11.4725 0 0 -0.824101 0.0460149 -0.114461
31 0.615813 0.994371 -0.809166 -3.05441 0.408507 0.374953
32 2.24752 0 0 -0.0735459 -0.0599752 0.398209
33 1.11936 0 0 -0.029582 0.104083 0.418689
34 3.71348 0.102639 0.102191 -1.55078 1.0009 -0.0625518
35 1.72615 0 0 0.00484502 0.00331912 1.0817
36 1.21112 0 0 0.0142296 0.0104191 1.53627
37 3.5992 1.06012 0.0708876 -1.75855 1.01668 -0.16381
38 1.66069 0 0 0.0132136 0.0176564 0.864594
39 1.16699 0 0 -0.0515122 0.0185073 1.64165
40 2.18853 -0.50104 0.0576582 -1.59892 0.0711595 -0.0997065
41 1.29609 0 0 -0.029491 -0.0363876 0.870095
42 1.62202 -0.000713348 -0.000470161 -0.00671609 -0.0123834 0.929895
43 1.2224 0 0 0.0197072 -0.00500048 1.81796
44 1.76707 -1.27612 0.0366402 -1.53586 0.195318 -0.0870188
45 1.55588 0 0 0.0272768 -0.0402816 0.694189
46 1.24273 0 0 0.00059919 0 0.70809
47 0.784531 0 0 -0.00593342 0.000318886 0.628058
48 0 0 0 0 0 0
49 4.30226 -15.4474 4.39032 1.40208 0.461957 3.10903
50 0 0 1.57913 0 0 0
51 -0.059763 0 2.14219 1.5708 -0.465766 0
52 0.822427 0 0 0 0 -1.59206
53 1.65555 0 0 0 0 -0.179192
54 -7.42381 -16.8798 -8.61875 1.28807 -1.01415 1.93074
55 0.136341 0.367237 -0.829751 1.43128 -1.5609 -1.52467
56 0.304319 0 0 0 0 -0.0269022
57 0.287033 0 0 0 0 0.0456978
58 0.201058 0 0 0 0 0.00642937
59 0.232013 0 0 0 0 0.0372464
60 -0.0501709 0 2.09035 0 0.610865 0
61 0.34296 0 1.82042 0 0 0
62 -0.49446 -2.33627 -0.838784 0 0 0
time 16
0 2.52469 0.292115 -6.6269 0 0 -0.59631
1 6.02794 0 0 -0.869876 0.149271 -0.612248
2 11.7344 0 0 -0.00140293 0 -1.3689
3 8.81138 -0.000450134 -0.000111818 -0.36643 0 0.000157318
4 5.77839 0.00028801 0 -0.245508 0 0.000103861
5 2.23163 -0.000328064 -0.00036478 -0.120922 0 0
6 11.4725 0 0 -0.330717 -0.327278 -0.0645586
7 0.615219 -0.993092 -0.810699 3.10705 0.578614 -0.640438
8 2.24752 0 0 0.274815 -0.0139727 0.0149525
9 1.11936 0 0 0.241779 0.174518 -0.444984
10 3.71348 -0.102642 0.102191 1.55934 0.339747 0.0755902
11 1.72615 0 0 0.00505422 -0.0207616 -0.494817
12 1.21114 0 0 0.00279077 0.017414 -0.438545
13 3.59919 -1.06012 0.070888 1.55911 0.298702 -0.0661821
14 1.66069 0 0 -0.0159039 0.0711586 -0.436336
15 1.167 0 0 -0.0191137 0.0280324 -0.397061
16 2.18852 0.501038 0.0576596 1.57004 -0.0839647 0.225962
17 1.29609 0 0 0.00475076 -0.0465924 -0.290415
18 1.62202 0.000713348 -0.000471115 0.00196126 -0.0400445 -0.482074
19 1.22241 0 0 0.0110143 -0.0139508 -0.403638
20 1.76707 1.27612 0.0366411 1.57004 -0.0293956 0.261465
21 1.55588 0 0 -0.0127378 0.0300086 -0.106916
22 1.24273 0 0 -0.00056791 0.000192425 -0.352621
23 0.784523 0 0 0.0138128 0.00866475 -0.272619
24 -1.93761 8.00428 -7.76724 -0.000932534 0 3.14159
25 6.02794 0 0 0.848315 0.415301 1.21102
26 11.7344 0 0 0.00140268 0 0.953729
27 8.81167 0 0 -0.843031 0 0
28 5.77884 0 0 -0.564831 0 0
29 2.23249 0 0 -0.2782 0 0
30 11.4725 0 0 -0.848616 0.0372474 -0.124882
31 0.615813 0.994371 -0.809165 -3.05441 0.408507 0.374953
32 2.24752 0 0 -0.0735459 -0.0599752 0.398209
33 1.11936 0 0 -0.029582 0.104083 0.418689
34 3.71348 0.102639 0.102191 -1.55078 1.0009 -0.0625516
35 1.72615 0 0 0.00484512 0.00331914 1.0817
36 1.21112 0 0 0.0142297 0.0104192 1.53627
37 3.5992 1.06011 0.0708885 -1.75855 1.01668 -0.16381
38 1.66069 0 0 0.0132136 0.0176564 0.864594
39 1.16699 0 0 -0.0515122 0.0185072 1.64165
40 2.18853 -0.50104 0.0576591 -1.59892 0.0711594 -0.0997063
41 1.29609 0 0 -0.0294909 -0.0363876 0.870095
42 1.62201 -0.000711918 -0.000471115 -0.00671602 -0.0123834 0.929894
43 1.2224 0 0 0.0197073 -0.00500045 1.81796
44 1.76707 -1.27612 0.0366411 -1.53586 0.195318 -0.0870187
45 1.55588 0 0 0.0272769 -0.0402816 0.694189
46 1.24273 0 0 0.000599274 0 0.70809
47 0.784532 0 0 -0.00593346 0.000318846 0.628058
48 0 0 0 0 0 0
49 3.29831 -19.1154 3.49161 1.1403 0.567416 3.06512
50 0 0 1.57913 0 0 0
51 -0.0597634 0 2.14219 1.5708 -0.465766 0
52 0.822427 0 0 0 0 -1.59206
53 1.65555 0 0 0 0 -0.179192
54 -8.40989 -16.3333 -9.46599 1.32004 -1.01775 1.87451
55 0.136339 0.367236 -0.82975 1.43126 -1.5609 -1.52465
56 0.304318 0 0 0 0 -0.0269022
57 0.287034 0 0 0 0 0.0456978
58 0.201058 0 0 0 0 0.00642937
59 0.232013 0 0 0 0 0.0372464
60 -0.0501709 0 2.09035 0 0.610865 0
61 0.34296 0 1.82042 0 0 0
62 -0.49446 -2.33627 -0.838784 0 0 0
time 17
0 2.52469 0.292115 -6.6269 0 0 -0.59631
1 6.02794 0 0 -0.830563 0.114278 -0.715582
2 11.7344 0 0 -0.00140288 0 -1.04947
3 8.81138 -0.000450134 -0.000112057 -0.350575 0 0.000157629
4 5.77839 0.000286102 0 -0.234885 0 0.000104155
5 2.23163 -0.000329971 -0.000363827 -0.11569 0 0
6 11.4725 0 0 -0.338931 -0.270385 0.000666508
7 0.615219 -0.993092 -0.8107 3.08125 0.573348 -0.724156
8 2.24752 0 0 0.19488 0.0284627 0.0904959
9 1.11936 0 0 0.155089 0.116489 -0.398006
10 3.71348 -0.102642 0.102191 1.55987 0.148542 0.0777919
11 1.72615 0 0 0.00160042 -0.0253416 -0.266597
12 1.21113 0 0 0.00651404 0.0163892 -0.219129
13 3.59919 -1.06012 0.0708885 1.5595 0.149915 -0.0644306
14 1.66069 0 0 0.00104649 0.0753923 -0.213139
15 1.167 0 0 -0.0177281 0.0377366 -0.178107
16 2.18852 0.50104 0.0576591 1.57004 -0.0680369 0.22595
17 1.29609 0 0 -0.00110467 -0.0468207 -0.165165
18 1.62202 0.000713825 -0.000471115 -0.00779287 -0.0393283 -0.237455
19 1.22241 0 0 0.0110161 -0.0180408 -0.19851
20 1.76707 1.27612 0.0366411 1.57004 -0.0293957 0.261465
21 1.55588 0 0 -0.0114511 0.0305227 -0.0644035
22 1.24274 0 0 -0.000530216 0.000280197 -0.193263
23 0.784525 0 0 0.0150126 0.00636308 -0.113273
24 -1.93761 8.00428 -7.76724 -0.000932534 0 3.14159
25 6.02794 0 0 0.817896 0.496651 1.1186
26 11.7344 0 0 0.00140275 0 1.04702
27 8.81167 0 0 -0.872152 0 0
28 5.77884 0 0 -0.584342 0 0
29 2.23249 0 0 -0.28781 0 0
30 11.4725 0 0 -0.876952 0.0246325 -0.122565
31 0.615813 0.994371 -0.809165 -3.05441 0.408507 0.374953
32 2.24752 0 0 -0.0735459 -0.0599752 0.398209
33 1.11936 0 0 -0.029582 0.104083 0.418689
34 3.71349 0.102638 0.102192 -1.55078 1.0009 -0.0625513
35 1.72615 0 0 0.00484493 0.00331921 1.0817
36 1.21112 0 0 0.0142297 0.0104191 1.53627
37 3.5992 1.06011 0.0708885 -1.75855 1.01668 -0.16381
38 1.66069 0 0 0.0132137 0.0176564 0.864594
39 1.16699 0 0 -0.0515122 0.0185073 1.64165
40 2.18853 -0.50104 0.0576591 -1.59892 0.0711593 -0.0997064
41 1.29609 0 0 -0.029491 -0.0363877 0.870095
42 1.62201 -0.000712872 -0.000470161 -0.00671601 -0.0123834 0.929895
43 1.2224 0 0 0.0197071 -0.00500041 1.81796
44 1.76707 -1.27612 0.0366411 -1.53586 0.195319 -0.0870188
45 1.55587 0 0 0.0272767 -0.0402815 0.694189
46 1.24273 0 0 0.000599231 0 0.70809
47 0.784531 0 0 -0.00593346 0.00031875 0.628058
48 0 0 0 0 0 0
49 2.752 -23.0754 2.30267 0.790663 0.566296 2.99275
50 0 0 1.57913 0 0 0
51 -0.0597634 0 2.14219 1.5708 -0.465766 0
52 0.822426 0 0 0 0 -1.59206
53 1.65555 0 0 0 0 -0.179192
54 -9.54919 -15.6847 -10.4268 1.356 -1.01986 1.80697
55 0.136341 0.367235 -0.82975 1.43126 -1.5609 -1.52465
56 0.304319 0 0 0 0 -0.0269022
57 0.287034 0 0 0 0 0.0456978
58 0.201059 0 0 0 0 0.00642938
59 0.232013 0 0 0 0 0.0372465
60 -0.0501709 0 2.09035 0 0.610865 0
61 0.34296 0 1.82042 0 0 0
62 -0.49446 -2.33627 -0.838784 0 0 0
time 18
0 2.52469 0.292115 -6.6269 0 0 -0.59631
1 6.02794 0 0 -0.801448 0.0845004 -0.808215
2 11.7344 0 0 -0.00140275 0 -0.776503
3 8.81138 -0.000448227 -0.000112057 -0.396662 0 0.000157154
4 5.77839 0.000286102 0 -0.265764 0 0.000103534
5 2.23163 -0.000328064 -0.000363827 -0.130898 0 0
6 11.4725 0 0 -0.410022 -0.264143 0.106984
7 0.615217 -0.993091 -0.8107 3.059 0.566573 -0.806485
8 2.24752 0 0 0.114871 0.0703093 0.166296
9 1.11936 0 0 0.0687035 0.0585168 -0.351506
10 3.71348 -0.10264 0.102191 1.55999 -0.0420332 0.0798627
11 1.72615 0 0 -0.0020704 -0.0284525 -0.0390825
12 1.21114 0 0 0.00991425 0.014586 -0.000446814
13 3.59919 -1.06012 0.070888 1.55963 0.00161935 -0.0627621
14 1.66069 0 0 0.0179104 0.0757813 0.00940092
15 1.167 0 0 -0.0151706 0.0454569 0.0402756
16 2.18852 0.50104 0.0576589 1.57004 -0.0521615 0.225938
17 1.29609 0 0 -0.00692365 -0.0463195 -0.04033
18 1.62202 0.000713825 -0.000471115 -0.0170532 -0.0362868 0.00632033
19 1.22241 0 0 0.0104111 -0.0213342 0.00596812
20 1.76707 1.27612 0.0366406 1.57004 -0.0293957 0.261465
21 1.55588 0 0 -0.010148 0.0309802 -0.0220304
22 1.24273 0 0 -0.00047918 0.000360479 -0.0344315
23 0.784525 0 0 0.01583 0.0039086 0.045542
24 -1.93761 8.00428 -7.76724 -0.000932534 0 3.14159
25 6.02794 0 0 0.778363 0.579091 1.01359
26 11.7344 0 0 0.00140258 0 1.12666
27 8.81167 0 0 -0.906296 0 0
28 5.77884 0 0 -0.607218 0 0
29 2.23249 0 0 -0.299078 0 0
30 11.4725 0 0 -0.909259 0.00898342 -0.103994
31 0.615812 0.994371 -0.809166 -3.05441 0.408507 0.374953
32 2.24752 0 0 -0.0735459 -0.0599752 0.398209
33 1.11936 0 0 -0.029582 0.104083 0.418689
34 3.71349 0.102639 0.102192 -1.55078 1.0009 -0.0625514
35 1.72615 0 0 0.00484499 0.00331902 1.0817
36 1.21112 0 0 0.0142296 0.0104191 1.53627
37 3.5992 1.06011 0.0708885 -1.75855 1.01668 -0.16381
38 1.66069 0 0 0.0132136 0.0176563 0.864595
39 1.16699 0 0 -0.0515123 0.0185074 1.64165
40 2.18853 -0.50104 0.0576591 -1.59892 0.0711595 -0.0997064
41 1.29609 0 0 -0.029491 -0.0363876 0.870095
42 1.62201 -0.000712872 -0.000470161 -0.006716 -0.0123832 0.929895
43 1.22241 0 0 0.019707 -0.00500032 1.81796
44 1.76707 -1.27612 0.0366411 -1.53586 0.195318 -0.0870187
45 1.55588 0 0 0.0272769 -0.0402817 0.694189
46 1.24273 0 0 0.000599295 0 0.70809
47 0.784532 0 0 -0.00593348 0.000318705 0.628058
48 0 0 0 0 0 0
49 2.75855 -26.0311 0.846314 0.496428 0.474031 2.95997
50 0 0 1.57913 0 0 0
51 -0.0597634 0 2.14219 1.5708 -0.465766 0
52 0.822427 0 0 0 0 -1.59206
53 1.65555 0 0 0 0 -0.179192
54 -10.8421 -14.9304 -11.5011 1.39575 -1.02026 1.72833
55 0.136341 0.367236 -0.829751 1.43126 -1.5609 -1.52465
56 0.30432 0 0 0 0 -0.0269022
57 0.287033 0 0 0 0 0.0456978
58 0.201058 0 0 0 0 0.00642937
59 0.232012 0 0 0 0 0.0372464
60 -0.0501709 0 2.09035 0 0.610865 0
61 0.34296 0 1.82042 0 0 0
62 -0.49446 -2.33627 -0.838784 0 0 0
time 19
0 2.52469 0.292115 -6.6269 0 0 -0.59631
1 6.02794 0 0 -0.773304 0.111031 -0.841219
2 11.7344 0 0 -0.00140288 0 -0.682229
3 8.81138 -0.000450134 -0.000112295 -0.448126 0 0.000157201
4 5.77839 0.000286102 0 -0.300245 0 0.000103455
5 2.23163 -0.000328064 -0.000364304 -0.147882 0 0
6 11.4725 0 0 -0.490288 -0.233344 0.228028
7 0.615219 -0.993092 -0.8107 3.059 0.566573 -0.806485
8 2.24752 0 0 0.114871 0.0703092 0.166296
9 1.11936 0 0 0.0687035 0.0585169 -0.351506
10 3.71348 -0.102641 0.102191 1.55999 -0.0420333 0.0798625
11 1.72615 0 0 -0.00207043 -0.0284523 -0.0390825
12 1.21114 0 0 0.0099143 0.014586 -0.000446813
13 3.59919 -1.06012 0.0708885 1.55963 0.00161928 -0.0627623
14 1.66068 0 0 0.0179104 0.0757813 0.00940085
15 1.167 0 0 -0.0151706 0.0454568 0.0402758
16 2.18852 0.501039 0.0576596 1.57004 -0.0521616 0.225938
17 1.29609 0 0 -0.00692363 -0.0463195 -0.0403299
18 1.62202 0.000713587 -0.000471115 -0.0170531 -0.0362868 0.00632029
19 1.22241 0 0 0.0104111 -0.0213342 0.0059681
20 1.76707 1.27612 0.0366416 1.57004 -0.0293957 0.261465
21 1.55588 0 0 -0.0101481 0.0309801 -0.0220305
22 1.24273 0 0 -0.00047924 0.000360503 -0.0344315
23 0.784525 0 0 0.01583 0.00390864 0.0455419
24 -1.93761 8.00428 -7.76724 -0.000932534 0 3.14159
25 6.02794 0 0 0.729771 0.659802 0.89569
26 11.7344 0 0 0.00140278 0 1.18602
27 8.81167 0 0 -0.945092 0 0
28 5.77884 0 0 -0.633212 0 0
29 2.23249 0 0 -0.31188 0 0
30 11.4725 0 0 -0.945892 -0.00839224 -0.0650097
31 0.615813 0.99437 -0.809165 -3.05441 0.408507 0.374953
32 2.24752 0 0 -0.0735459 -0.0599752 0.398209
33 1.11936 0 0 -0.029582 0.104083 0.418689
34 3.71349 0.102638 0.102191 -1.55078 1.0009 -0.0625517
35 1.72615 0 0 0.00484502 0.003319 1.0817
36 1.21112 0 0 0.0142295 0.0104192 1.53627
37 3.5992 1.06012 0.0708876 -1.75855 1.01668 -0.16381
38 1.66069 0 0 0.0132136 0.0176563 0.864595
39 1.16699 0 0 -0.0515123 0.0185074 1.64165
40 2.18853 -0.50104 0.0576582 -1.59892 0.0711593 -0.0997064
41 1.29609 0 0 -0.0294909 -0.0363878 0.870095
42 1.62201 -0.000712395 -0.000470161 -0.00671601 -0.0123834 0.929895
43 1.2224 0 0 0.0197072 -0.00500034 1.81796
44 1.76707 -1.27612 0.0366411 -1.53586 0.195318 -0.0870188
45 1.55587 0 0 0.0272769 -0.0402818 0.694189
46 1.24273 0 0 0.000599294 0 0.70809
47 0.78453 0 0 -0.00593342 0.000318935 0.628058
48 0 0 0 0 0 0
49 2.06088 -48.5784 -36.3523 0.28093 0.389564 2.92838
50 0 0 1.57913 0 0 0
51 -0.059762 0 2.14219 1.5708 -0.465766 0
52 0.822426 0 0 0 0 -1.59206
53 1.65556 0 0 0 0 -0.179192
54 -12.2888 -14.0656 -12.6887 1.43894 -1.01875 1.63888
55 0.136341 0.367236 -0.829751 1.43126 -1.5609 -1.52465
56 0.304319 0 0 0 0 -0.0269022
57 0.287033 0 0 0 0 0.0456978
58 0.20106 0 0 0 0 0.00642937
59 0.232012 0 0 0 0 0.0372464
60 -0.0501709 0 2.09035 0 0.610865 0
61 0.34296 0 1.82042 0 0 0
62 -0.49446 -2.33627 -0.838784 0 0 0
time 20
0 2.52469 0.292115 -6.6269 0 0 -0.59631
1 6.02794 0 0 -0.733503 0.201911 -0.805247
2 11.7344 0 0 -0.00140284 0 -0.774065
3 8.81138 -0.000450134 -0.000112534 -0.471242 0 0.000157362
4 5.77839 0.000286102 0 -0.315733 0 0.000103557
5 2.23163 -0.000328064 -0.00036478 -0.15551 0 0
6 11.4725 0 0 -0.537478 -0.154598 0.360427
7 0.615221 -0.99309 -0.8107 3.059 0.566573 -0.806485
8 2.24752 0 0 0.114871 0.0703093 0.166296
9 1.11936 0 0 0.0687035 0.0585168 -0.351506
10 3.71348 -0.10264 0.102191 1.55999 -0.0420331 0.0798624
11 1.72614 0 0 -0.0020704 -0.0284524 -0.0390824
12 1.21114 0 0 0.00991428 0.014586 -0.000446704
13 3.59919 -1.06012 0.070888 1.55963 0.00161932 -0.0627622
14 1.66068 0 0 0.0179105 0.0757813 0.00940095
15 1.167 0 0 -0.0151706 0.0454569 0.0402757
16 2.18852 0.50104 0.0576587 1.57004 -0.0521617 0.225938
17 1.29609 0 0 -0.00692367 -0.0463195 -0.04033
18 1.62202 0.000714064 -0.000471115 -0.0170531 -0.0362868 0.00632045
19 1.2224 0 0 0.0104111 -0.0213342 0.00596808
20 1.76707 1.27612 0.0366414 1.57004 -0.0293956 0.261465
21 1.55588 0 0 -0.0101481 0.0309801 -0.0220303
22 1.24274 0 0 -0.000479196 0.000360519 -0.0344314
23 0.784525 0 0 0.01583 0.00390866 0.0455418
24 -1.93761 8.00428 -7.76724 -0.000932534 0 3.14159
25 6.02794 0 0 0.729771 0.659802 0.89569
26 11.7344 0 0 0.00140278 0 1.18602
27 8.81167 0 0 -0.945092 0 0
28 5.77884 0 0 -0.633212 0 0
29 2.23249 0 0 -0.31188 0 0
30 11.4725 0 0 -0.945892 -0.00839224 -0.0650097
31 0.615813 0.99437 -0.809165 -3.05441 0.408507 0.374953
32 2.24752 0 0 -0.0735459 -0.0599752 0.398209
33 1.11936 0 0 -0.029582 0.104083 0.418689
34 3.71349 0.102638 0.102191 -1.55078 1.0009 -0.0625517
35 1.72615 0 0 0.00484502 0.003319 1.0817
36 1.21112 0 0 0.0142295 0.0104192 1.53627
37 3.5992 1.06012 0.0708876 -1.75855 1.01668 -0.16381
38 1.66069 0 0 0.0132136 0.0176563 0.864595
39 1.16699 0 0 -0.0515123 0.0185074 1.64165
40 2.18853 -0.50104 0.0576582 -1.59892 0.0711593 -0.0997064
41 1.29609 0 0 -0.0294909 -0.0363878 0.870095
42 1.62201 -0.000712395 -0.000470161 -0.00671601 -0.0123834 0.929895
43 1.2224 0 0 0.0197072 -0.00500034 1.81796
44 1.76707 -1.27612 0.0366411 -1.53586 0.195318 -0.0870188
45 1.55587 0 0 0.0272769 -0.0402818 0.694189
46 1.24273 0 0 0.000599294 0 0.70809
47 0.78453 0 0 -0.00593342 0.000318935 0.628058
48 0 0 0 0 0 0
49 1.73088 -42.0893 -41.577 0.0945522 0.342036 2.85357
50 0 0 1.57913 0 0 0
51 -0.059763 0 2.14219 1.5708 -0.465765 0
52 0.822428 0 0 0 0 -1.59206
53 1.65555 0 0 0 0 -0.179192
54 -12.2888 -14.0656 -12.6887 1.43894 -1.01875 1.63888
55 0.136341 0.367236 -0.829751 1.43126 -1.5609 -1.52465
56 0.304319 0 0 0 0 -0.0269022
57 0.287033 0 0 0 0 0.0456978
58 0.20106 0 0 0 0 0.00642937
59 0.232012 0 0 0 0 0.0372464
60 -0.0501709 0 2.09035 0 0.610865 0
61 0.34296 0 1.82042 0 0 0
62 -0.49446 -2.33627 -0.838784 0 0 0
time 21
0 2.52469 0.292115 -6.6269 0 0 -0.59631
1 6.02794 0 0 -0.661651 0.338249 -0.706859
2 11.7344 0 0 -0.00140285 0 -1.00142
3 8.81138 -0.000448227 -0.000112534 -0.468893 0 0.000156691
4 5.77839 0.00028801 0 -0.314158 0 0.000102927
5 2.23163 -0.000328064 -0.000364304 -0.154735 0 0
6 11.4725 0 0 -0.539845 -0.0539285 0.482522
7 0.615219 -0.993091 -0.8107 3.059 0.566573 -0.806485
8 2.24752 0 0 0.114871 0.0703093 0.166296
9 1.11936 0 0 0.0687036 0.0585168 -0.351506
10 3.71348 -0.10264 0.10219 1.55999 -0.0420333 0.0798625
11 1.72615 0 0 -0.00207041 -0.0284524 -0.0390826
12 1.21114 0 0 0.00991428 0.014586 -0.000446736
13 3.59919 -1.06012 0.070888 1.55963 0.0016192 -0.0627623
14 1.66069 0 0 0.0179104 0.0757814 0.00940103
15 1.167 0 0 -0.0151706 0.0454569 0.0402756
16 2.18852 0.50104 0.0576587 1.57004 -0.0521617 0.225938
17 1.29609 0 0 -0.00692367 -0.0463195 -0.0403299
18 1.62202 0.000714779 -0.000470638 -0.0170531 -0.0362868 0.00632047
19 1.22241 0 0 0.0104111 -0.0213341 0.005968
20 1.76707 1.27612 0.0366406 1.57004 -0.0293958 0.261465
21 1.55588 0 0 -0.010148 0.0309802 -0.0220304
22 1.24273 0 0 -0.000479238 0.000360488 -0.0344314
23 0.784523 0 0 0.01583 0.00390861 0.0455419
24 -1.93761 8.00428 -7.76724 -0.000932534 0 3.14159
25 6.02794 0 0 0.729771 0.659802 0.89569
26 11.7344 0 0 0.00140278 0 1.18602
27 8.81167 0 0 -0.945092 0 0
28 5.77884 0 0 -0.633212 0 0
29 2.23249 0 0 -0.31188 0 0
30 11.4725 0 0 -0.945892 -0.00839224 -0.0650097
31 0.615813 0.99437 -0.809165 -3.05441 0.408507 0.374953
32 2.24752 0 0 -0.0735459 -0.0599752 0.398209
33 1.11936 0 0 -0.029582 0.104083 0.418689
34 3.71349 0.102638 0.102191 -1.55078 1.0009 -0.0625517
35 1.72615 0 0 0.00484502 0.003319 1.0817
36 1.21112 0 0 0.0142295 0.0104192 1.53627
37 3.5992 1.06012 0.0708876 -1.75855 1.01668 -0.16381
38 1.66069 0 0 0.0132136 0.0176563 0.864595
39 1.16699 0 0 -0.0515123 0.0185074 1.64165
40 2.18853 -0.50104 0.0576582 -1.59892 0.0711593 -0.0997064
41 1.29609 0 0 -0.0294909 -0.0363878 0.870095
42 1.62201 -0.000712395 -0.000470161 -0.00671601 -0.0123834 0.929895
43 1.2224 0 0 0.0197072 -0.00500034 1.81796
44 1.76707 -1.27612 0.0366411 -1.53586 0.195318 -0.0870188
45 1.55587 0 0 0.0272769 -0.0402818 0.694189
46 1.24273 0 0 0.000599294 0 0.70809
47 0.78453 0 0 -0.00593342 0.000318935 0.628058
48 0 0 0 0 0 0
49 2.35349 -35.1378 -45.541 -0.0705242 0.330016 2.73181
50 0 0 1.57913 0 0 0
51 -0.059763 0 2.14219 1.5708 -0.465765 0
52 0.822426 0 0 0 0 -1.59206
53 1.65555 0 0 0 0 -0.179192
54 -12.2888 -14.0656 -12.6887 1.43894 -1.01875 1.63888
55 0.136341 0.367236 -0.829751 1.43126 -1.5609 -1.52465
56 0.304319 0 0 0 0 -0.0269022
57 0.287033 0 0 0 0 0.0456978
58 0.20106 0 0 0 0 0.00642937
59 0.232012 0 0 0 0 0.0372464
60 -0.0501709 0 2.09035 0 0.610865 0
61 0.34296 0 1.82042 0 0 0
62 -0.49446 -2.33627 -0.838784 0 0 0
time 22
0 2.52469 0.292115 -6.6269 0 0 -0.59631
1 6.02794 0 0 -0.529304 0.490175 -0.550924
2 11.7344 0 0 -0.00140282 0 -1.29352
3 8.81138 -0.000450134 -0.000112057 -0.455554 0 0.000157882
4 5.77839 0.00028801 0 -0.305221 0 0.000103809
5 2.23163 -0.000329971 -0.00036335 -0.150333 0 0
6 11.4725 0 0 -0.511949 0.0318572 0.572284
7 0.615217 -0.993091 -0.810701 3.059 0.566573 -0.806486
8 2.24752 0 0 0.114871 0.0703092 0.166296
9 1.11936 0 0 0.0687034 0.058517 -0.351506
10 3.71348 -0.102641 0.10219 1.55999 -0.0420333 0.0798624
11 1.72615 0 0 -0.00207041 -0.0284524 -0.0390825
12 1.21114 0 0 0.00991429 0.0145859 -0.000446887
13 3.59919 -1.06012 0.070888 1.55963 0.00161909 -0.0627624
14 1.66069 0 0 0.0179104 0.0757813 0.00940095
15 1.167 0 0 -0.0151706 0.0454569 0.0402757
16 2.18852 0.50104 0.0576591 1.57004 -0.0521618 0.225938
17 1.29609 0 0 -0.0069237 -0.0463195 -0.0403299
18 1.62202 0.000714779 -0.000471592 -0.0170531 -0.0362868 0.00632027
19 1.22241 0 0 0.0104111 -0.0213341 0.00596817
20 1.76707 1.27612 0.0366406 1.57004 -0.0293956 0.261465
21 1.55587 0 0 -0.0101481 0.0309802 -0.0220303
22 1.24273 0 0 -0.000479242 0.000360428 -0.0344314
23 0.784523 0 0 0.01583 0.00390873 0.0455418
24 -1.93761 8.00428 -7.76724 -0.000932534 0 3.14159
25 6.02794 0 0 0.729771 0.659802 0.89569
26 11.7344 0 0 0.00140278 0 1.18602
27 8.81167 0 0 -0.945092 0 0
28 5.77884 0 0 -0.633212 0 0
29 2.23249 0 0 -0.31188 0 0
30 11.4725 0 0 -0.945892 -0.00839224 -0.0650097
31 0.615813 0.99437 -0.809165 -3.05441 0.408507 0.374953
32 2.24752 0 0 -0.0735459 -0.0599752 0.398209
33 1.11936 0 0 -0.029582 0.104083 0.418689
34 3.71349 0.102638 0.102191 -1.55078 1.0009 -0.0625517
35 1.72615 0 0 0.00484502 0.003319 1.0817
36 1.21112 0 0 0.0142295 0.0104192 1.53627
37 3.5992 1.06012 0.0708876 -1.75855 1.01668 -0.16381
38 1.66069 0 0 0.0132136 0.0176563 0.864595
39 1.16699 0 0 -0.0515123 0.0185074 1.64165
40 2.18853 -0.50104 0.0576582 -1.59892 0.0711593 -0.0997064
41 1.29609 0 0 -0.0294909 -0.0363878 0.870095
42 1.62201 -0.000712395 -0.000470161 -0.00671601 -0.0123834 0.929895
43 1.2224 0 0 0.0197072 -0.00500034 1.81796
44 1.76707 -1.27612 0.0366411 -1.53586 0.195318 -0.0870188
45 1.55587 0 0 0.0272769 -0.0402818 0.694189
46 1.24273 0 0 0.000599294 0 0.70809
47 0.78453 0 0 -0.00593342 0.000318935 0.628058
48 0 0 0 0 0 0
49 4.36382 -28.5366 -48.4998 -0.213007 0.341882 2.57693
50 0 0 1.57913 0 0 0
51 -0.059762 0 2.14219 1.5708 -0.465766 0
52 0.822428 0 0 0 0 -1.59206
53 1.65555 0 0 0 0 -0.179192
54 -12.2888 -14.0656 -12.6887 1.43894 -1.01875 1.63888
55 0.136341 0.367236 -0.829751 1.43126 -1.5609 -1.52465
56 0.304319 0 0 0 0 -0.0269022
57 0.287033 0 0 0 0 0.0456978
58 0.20106 0 0 0 0 0.00642937
59 0.232012 0 0 0 0 0.0372464
60 -0.0501709 0 2.09035 0 0.610865 0
61 0.34296 0 1.82042 0 0 0
62 -0.49446 -2.33627 -0.838784 0 0 0
time 23
0 2.52469 0.292115 -6.6269 0 0 -0.59631
1 6.02794 0 0 -0.288305 0.624594 -0.318171
2 11.7344 0 0 -0.00140272 0 -1.60867
3 8.81138 -0.000452042 -0.00011158 -0.429234 0 0.000157824
4 5.77839 0.000286102 0 -0.287587 0 0.000103975
5 2.23163 -0.000329971 -0.000364304 -0.141647 0 0
6 11.4725 0 0 -0.481041 0.056318 0.622185
7 0.615221 -0.993092 -0.810699 3.059 0.566573 -0.806485
8 2.24752 0 0 0.114871 0.0703092 0.166296
9 1.11936 0 0 0.0687035 0.058517 -0.351506
10 3.71348 -0.102641 0.102191 1.55999 -0.0420331 0.0798625
11 1.72615 0 0 -0.00207049 -0.0284524 -0.0390825
12 1.21114 0 0 0.00991426 0.014586 -0.000446867
13 3.59919 -1.06012 0.070889 1.55963 0.00161935 -0.0627623
14 1.66069 0 0 0.0179105 0.0757814 0.009401
15 1.167 0 0 -0.0151707 0.0454569 0.0402757
16 2.18853 0.501039 0.0576591 1.57004 -0.0521615 0.225938
17 1.29609 0 0 -0.0069237 -0.0463194 -0.0403299
18 1.62202 0.000714302 -0.000470161 -0.0170531 -0.0362869 0.00632026
19 1.22241 0 0 0.0104111 -0.0213342 0.00596797
20 1.76707 1.27612 0.0366411 1.57004 -0.0293954 0.261465
21 1.55588 0 0 -0.010148 0.0309802 -0.0220303
22 1.24273 0 0 -0.000479226 0.000360548 -0.0344314
23 0.784521 0 0 0.01583 0.00390867 0.0455418
24 -1.93761 8.00428 -7.76724 -0.000932534 0 3.14159
25 6.02794 0 0 0.729771 0.659802 0.89569
26 11.7344 0 0 0.00140278 0 1.18602
27 8.81167 0 0 -0.945092 0 0
28 5.77884 0 0 -0.633212 0 0
29 2.23249 0 0 -0.31188 0 0
30 11.4725 0 0 -0.945892 -0.00839224 -0.0650097
31 0.615813 0.99437 -0.809165 -3.05441 0.408507 0.374953
32 2.24752 0 0 -0.0735459 -0.0599752 0.398209
33 1.11936 0 0 -0.029582 0.104083 0.418689
34 3.71349 0.102638 0.102191 -1.55078 1.0009 -0.0625517
35 1.72615 0 0 0.00484502 0.003319 1.0817
36 1.21112 0 0 0.0142295 0.0104192 1.53627
37 3.5992 1.06012 0.0708876 -1.75855 1.01668 -0.16381
38 1.66069 0 0 0.0132136 0.0176563 0.864595
39 1.16699 0 0 -0.0515123 0.0185074 1.64165
40 2.18853 -0.50104 0.0576582 -1.59892 0.0711593 -0.0997064
41 1.29609 0 0 -0.0294909 -0.0363878 0.870095
42 1.62201 -0.000712395 -0.000470161 -0.00671601 -0.0123834 0.929895
43 1.2224 0 0 0.0197072 -0.00500034 1.81796
44 1.76707 -1.27612 0.0366411 -1.53586 0.195318 -0.0870188
45 1.55587 0 0 0.0272769 -0.0402818 0.694189
46 1.24273 0 0 0.000599294 0 0.70809
47 0.78453 0 0 -0.00593342 0.000318935 0.628058
48 0 0 0 0 0 0
49 7.21533 -22.891 -50.7623 -0.326996 0.364007 2.41693
50 0 0 1.57912 0 0 0
51 -0.059763 0 2.14219 1.5708 -0.465766 0
52 0.822426 0 0 0 0 -1.59206
53 1.65555 0 0 0 0 -0.179192
54 -12.2888 -14.0656 -12.6887 1.43894 -1.01875 1.63888
55 0.136341 0.367236 -0.829751 1.43126 -1.5609 -1.52465
56 0.304319 0 0 0 0 -0.0269022
57 0.287033 0 0 0 0 0.0456978
58 0.20106 0 0 0 0 0.00642937
59 0.232012 0 0 0 0 0.0372464
60 -0.0501709 0 2.09035 0 0.610865 0
61 0.34296 0 1.82042 0 0 0
62 -0.49446 -2.33627 -0.838784 0 0 0
time 24
0 2.52469 0.292115 -6.6269 0 0 -0.59631
1 6.02794 0 0 0.129164 0.670834 0.00468325
2 11.7344 0 0 -0.0014028 0 -1.91552
3 8.81138 -0.000450134 -0.000112534 -0.373294 0 0.000157251
4 5.77839 0.00028801 0 -0.250107 0 0.000103804
5 2.23163 -0.000328064 -0.000364304 -0.123187 0 0
6 11.4725 0 0 -0.483618 -0.0558066 0.631499
7 0.615219 -0.993092 -0.810699 3.059 0.566573 -0.806486
8 2.24752 0 0 0.114871 0.0703093 0.166296
9 1.11936 0 0 0.0687034 0.0585169 -0.351506
10 3.71348 -0.102641 0.102192 1.55999 -0.0420332 0.0798624
11 1.72615 0 0 -0.00207046 -0.0284524 -0.0390826
12 1.21114 0 0 0.00991429 0.0145861 -0.00044672
13 3.59919 -1.06012 0.070889 1.55963 0.00161935 -0.0627623
14 1.66068 0 0 0.0179104 0.0757813 0.00940087
15 1.167 0 0 -0.0151706 0.0454569 0.0402758
16 2.18852 0.501039 0.0576596 1.57004 -0.0521617 0.225938
17 1.29609 0 0 -0.0069237 -0.0463195 -0.0403299
18 1.62202 0.000713825 -0.000472069 -0.0170531 -0.0362868 0.0063203
19 1.22241 0 0 0.010411 -0.0213341 0.00596809
20 1.76707 1.27612 0.0366411 1.57004 -0.0293956 0.261465
21 1.55588 0 0 -0.010148 0.0309801 -0.0220304
22 1.24273 0 0 -0.000479231 0.000360399 -0.0344314
23 0.784523 0 0 0.0158299 0.00390864 0.045542
24 -1.93761 8.00428 -7.76724 -0.000932534 0 3.14159
25 6.02794 0 0 0.729771 0.659802 0.89569
26 11.7344 0 0 0.00140278 0 1.18602
27 8.81167 0 0 -0.945092 0 0
28 5.77884 0 0 -0.633212 0 0
29 2.23249 0 0 -0.31188 0 0
30 11.4725 0 0 -0.945892 -0.00839224 -0.0650097
31 0.615813 0.99437 -0.809165 -3.05441 0.408507 0.374953
32 2.24752 0 0 -0.0735459 -0.0599752 0.398209
33 1.11936 0 0 -0.029582 0.104083 0.418689
34 3.71349 0.102638 0.102191 -1.55078 1.0009 -0.0625517
35 1.72615 0 0 0.00484502 0.003319 1.0817
36 1.21112 0 0 0.0142295 0.0104192 1.53627
37 3.5992 1.06012 0.0708876 -1.75855 1.01668 -0.16381
38 1.66069 0 0 0.0132136 0.0176563 0.864595
39 1.16699 0 0 -0.0515123 0.0185074 1.64165
40 2.18853 -0.50104 0.0576582 -1.59892 0.0711593 -0.0997064
41 1.29609 0 0 -0.0294909 -0.0363878 0.870095
42 1.62201 -0.000712395 -0.000470161 -0.00671601 -0.0123834 0.929895
43 1.2224 0 0 0.0197072 -0.00500034 1.81796
44 1.76707 -1.27612 0.0366411 -1.53586 0.195318 -0.0870188
45 1.55587 0 0 0.0272769 -0.0402818 0.694189
46 1.24273 0 0 0.000599294 0 0.70809
47 0.78453 0 0 -0.00593342 0.000318935 0.628058
48 0 0 0 0 0 0
49 9.8316 -18.0952 -52.7246 -0.403543 0.384676 2.28973
50 0 0 1.57913 0 0 0
51 -0.059763 0 2.14219 1.5708 -0.465765 0
52 0.822426 0 0 0 0 -1.59206
53 1.65555 0 0 0 0 -0.179192
54 -12.2888 -14.0656 -12.6887 1.43894 -1.01875 1.63888
55 0.136341 0.367236 -0.829751 1.43126 -1.5609 -1.52465
56 0.304319 0 0 0 0 -0.0269022
57 0.287033 0 0 0 0 0.0456978
58 0.20106 0 0 0 0 0.00642937
59 0.232012 0 0 0 0 0.0372464
60 -0.0501709 0 2.09035 0 0.610865 0
61 0.34296 0 1.82042 0 0 0
62 -0.49446 -2.33627 -0.838784 0 0 0
time 25
0 2.52469 0.292115 -6.6269 0 0 -0.59631
1 6.02794 0 0 0.711136 0.519379 0.230444
2 11.7344 0 0 -0.0014028 0 -2.15365
3 8.81138 -0.000450134 -0.000112534 -0.294619 0 0.000157013
4 5.77839 0.000284195 0 -0.197395 0 0.000103842
5 2.23163 -0.000329971 -0.000365257 -0.0972243 0 0
6 11.4725 0 0 -0.592681 -0.45507 0.646917
7 0.615219 -0.993092 -0.810701 3.059 0.566573 -0.806485
8 2.24752 0 0 0.114871 0.0703093 0.166296
9 1.11936 0 0 0.0687035 0.0585168 -0.351506
10 3.71348 -0.10264 0.10219 1.55999 -0.0420332 0.0798625
11 1.72615 0 0 -0.00207041 -0.0284524 -0.0390824
12 1.21114 0 0 0.00991425 0.0145859 -0.000446815
13 3.59919 -1.06012 0.0708876 1.55963 0.00161915 -0.0627621
14 1.66069 0 0 0.0179104 0.0757813 0.00940072
15 1.167 0 0 -0.0151706 0.0454569 0.0402757
16 2.18852 0.50104 0.0576591 1.57004 -0.0521618 0.225938
17 1.29609 0 0 -0.00692373 -0.0463195 -0.0403298
18 1.62202 0.000714779 -0.000470161 -0.0170531 -0.0362868 0.00632033
19 1.22241 0 0 0.010411 -0.0213342 0.00596789
20 1.76707 1.27612 0.0366406 1.57004 -0.0293956 0.261465
21 1.55588 0 0 -0.0101479 0.0309803 -0.0220302
22 1.24273 0 0 -0.000479216 0.000360399 -0.0344315
23 0.784523 0 0 0.0158301 0.00390864 0.0455419
24 -1.93761 8.00428 -7.76724 -0.000932534 0 3.14159
25 6.02794 0 0 0.729771 0.659802 0.89569
26 11.7344 0 0 0.00140278 0 1.18602
27 8.81167 0 0 -0.945092 0 0
28 5.77884 0 0 -0.633212 0 0
29 2.23249 0 0 -0.31188 0 0
30 11.4725 0 0 -0.945892 -0.00839224 -0.0650097
31 0.615813 0.99437 -0.809165 -3.05441 0.408507 0.374953
32 2.24752 0 0 -0.0735459 -0.0599752 0.398209
33 1.11936 0 0 -0.029582 0.104083 0.418689
34 3.71349 0.102638 0.102191 -1.55078 1.0009 -0.0625517
35 1.72615 0 0 0.00484502 0.003319 1.0817
36 1.21112 0 0 0.0142295 0.0104192 1.53627
37 3.5992 1.06012 0.0708876 -1.75855 1.01668 -0.16381
38 1.66069 0 0 0.0132136 0.0176563 0.864595
39 1.16699 0 0 -0.0515123 0.0185074 1.64165
40 2.18853 -0.50104 0.0576582 -1.59892 0.0711593 -0.0997064
41 1.29609 0 0 -0.0294909 -0.0363878 0.870095
42 1.62201 -0.000712395 -0.000470161 -0.00671601 -0.0123834 0.929895
43 1.2224 0 0 0.0197072 -0.00500034 1.81796
44 1.76707 -1.27612 0.0366411 -1.53586 0.195318 -0.0870188
45 1.55587 0 0 0.0272769 -0.0402818 0.694189
46 1.24273 0 0 0.000599294 0 0.70809
47 0.78453 0 0 -0.00593342 0.000318935 0.628058
48 0 0 0 0 0 0
49 11.2239 -13.4068 -54.7851 -0.431624 0.393915 2.23793
50 0 0 1.57913 0 0 0
51 -0.059763 0 2.14219 1.5708 -0.465766 0
52 0.822428 0 0 0 0 -1.59206
53 1.65555 0 0 0 0 -0.179192
54 -12.2888 -14.0656 -12.6887 1.43894 -1.01875 1.63888
55 0.136341 0.367236 -0.829751 1.43126 -1.5609 -1.52465
56 0.304319 0 0 0 0 -0.0269022
57 0.287033 0 0 0 0 0.0456978
58 0.20106 0 0 0 0 0.00642937
59 0.232012 0 0 0 0 0.0372464
60 -0.0501709 0 2.09035 0 0.610865 0
61 0.34296 0 1.82042 0 0 0
62 -0.49446 -2.33627 -0.838784 0 0 0
time 26
0 2.52469 0.292115 -6.6269 0 0 -0.59631
1 6.02794 0 0 0.711136 0.519379 0.230444
2 11.7344 0 0 -0.0014028 0 -2.15365
3 8.81138 -0.000450134 -0.000112534 -0.294619 0 0.000157013
4 5.77839 0.000284195 0 -0.197395 0 0.000103842
5 2.23163 -0.000329971 -0.000365257 -0.0972243 0 0
6 11.4725 0 0 -0.592681 -0.45507 0.646917
7 0.615219 -0.993092 -0.810701 3.059 0.566573 -0.806485
8 2.24752 0 0 0.114871 0.0703093 0.166296
9 1.11936 0 0 0.0687035 0.0585168 -0.351506
10 3.71348 -0.10264 0.10219 1.55999 -0.0420332 0.0798625
11 1.72615 0 0 -0.00207041 -0.0284524 -0.0390824
12 1.21114 0 0 0.00991425 0.0145859 -0.000446815
13 3.59919 -1.06012 0.0708876 1.55963 0.00161915 -0.0627621
14 1.66069 0 0 0.0179104 0.0757813 0.00940072
15 1.167 0 0 -0.0151706 0.0454569 0.0402757
16 2.18852 0.50104 0.0576591 1.57004 -0.0521618 0.225938
17 1.29609 0 0 -0.00692373 -0.0463195 -0.0403298
18 1.62202 0.000714779 -0.000470161 -0.0170531 -0.0362868 0.00632033
19 1.22241 0 0 0.010411 -0.0213342 0.00596789
20 1.76707 1.27612 0.0366406 1.57004 -0.0293956 0.261465
21 1.55588 0 0 -0.0101479 0.0309803 -0.0220302
22 1.24273 0 0 -0.000479216 0.000360399 -0.0344315
23 0.784523 0 0 0.0158301 0.00390864 0.0455419
24 -1.93761 8.00428 -7.76724 -0.000932534 0 3.14159
25 6.02794 0 0 0.729771 0.659802 0.89569
26 11.7344 0 0 0.00140278 0 1.18602
27 8.81167 0 0 -0.945092 0 0
28 5.77884 0 0 -0.633212 0 0
29 2.23249 0 0 -0.31188 0 0
30 11.4725 0 0 -0.945892 -0.00839224 -0.0650097
31 0.615813 0.99437 -0.809165 -3.05441 0.408507 0.374953
32 2.24752 0 0 -0.0735459 -0.0599752 0.398209
33 1.11936 0 0 -0.029582 0.104083 0.418689
34 3.71349 0.102638 0.102191 -1.55078 1.0009 -0.0625517
35 1.72615 0 0 0.00484502 0.003319 1.0817
36 1.21112 0 0 0.0142295 0.0104192 1.53627
37 3.5992 1.06012 0.0708876 -1.75855 1.01668 -0.16381
38 1.66069 0 0 0.0132136 0.0176563 0.864595
39 1.16699 0 0 -0.0515123 0.0185074 1.64165
40 2.18853 -0.50104 0.0576582 -1.59892 0.0711593 -0.0997064
41 1.29609 0 0 -0.0294909 -0.0363878 0.870095
42 1.62201 -0.000712395 -0.000470161 -0.00671601 -0.0123834 0.929895
43 1.2224 0 0 0.0197072 -0.00500034 1.81796
44 1.76707 -1.27612 0.0366411 -1.53586 0.195318 -0.0870188
45 1.55587 0 0 0.0272769 -0.0402818 0.694189
46 1.24273 0 0 0.000599294 0 0.70809
47 0.78453 0 0 -0.00593342 0.000318935 0.628058
48 0 0 0 0 0 0
49 11.2239 -13.4068 -54.7851 -0.431624 0.393915 2.23793
50 0 0 1.57913 0 0 0
51 -0.059763 0 2.14219 1.5708 -0.465766 0
52 0.822428 0 0 0 0 -1.59206
53 1.65555 0 0 0 0 -0.179192
54 -12.2888 -14.0656 -12.6887 1.43894 -1.01875 1.63888
55 0.136341 0.367236 -0.829751 1.43126 -1.5609 -1.52465
56 0.304319 0 0 0 0 -0.0269022
57 0.287033 0 0 0 0 0.0456978
58 0.20106 0 0 0 0 0.00642937
59 0.232012 0 0 0 0 0.0372464
60 -0.0501709 0 2.09035 0 0.610865 0
61 0.34296 0 1.82042 0 0 0
62 -0.49446 -2.33627 -0.838784 0 0 0
time 27
0 2.52469 0.292115 -6.6269 0 0 -0.59631
1 6.02794 0 0 0.711136 0.519379 0.230444
2 11.7344 0 0 -0.0014028 0 -2.15365
3 8.81138 -0.000450134 -0.000112534 -0.294619 0 0.000157013
4 5.77839 0.000284195 0 -0.197395 0 0.000103842
5 2.23163 -0.000329971 -0.000365257 -0.0972243 0 0
6 11.4725 0 0 -0.592681 -0.45507 0.646917
7 0.615219 -0.993092 -0.810701 3.059 0.566573 -0.806485
8 2.24752 0 0 0.114871 0.0703093 0.166296
9 1.11936 0 0 0.0687035 0.0585168 -0.351506
10 3.71348 -0.10264 0.10219 1.55999 -0.0420332 0.0798625
11 1.72615 0 0 -0.00207041 -0.0284524 -0.0390824
12 1.21114 0 0 0.00991425 0.0145859 -0.000446815
13 3.59919 -1.06012 0.0708876 1.55963 0.00161915 -0.0627621
14 1.66069 0 0 0.0179104 0.0757813 0.00940072
15 1.167 0 0 -0.0151706 0.0454569 0.0402757
16 2.18852 0.50104 0.0576591 1.57004 -0.0521618 0.225938
17 1.29609 0 0 -0.00692373 -0.0463195 -0.0403298
18 1.62202 0.000714779 -0.000470161 -0.0170531 -0.0362868 0.00632033
19 1.22241 0 0 0.010411 -0.0213342 0.00596789
20 1.76707 1.27612 0.0366406 1.57004 -0.0293956 0.261465
21 1.55588 0 0 -0.0101479 0.0309803 -0.0220302
22 1.24273 0 0 -0.000479216 0.000360399 -0.0344315
23 0.784523 0 0 0.0158301 0.00390864 0.0455419
24 -1.93761 8.00428 -7.76724 -0.000932534 0 3.14159
25 6.02794 0 0 0.729771 0.659802 0.89569
26 11.7344 0 0 0.00140278 0 1.18602
27 8.81167 0 0 -0.945092 0 0
28 5.77884 0 0 -0.633212 0 0
29 2.23249 0 0 -0.31188 0 0
30 11.4725 0 0 -0.945892 -0.00839224 -0.0650097
31 0.615813 0.99437 -0.809165 -3.05441 0.408507 0.374953
32 2.24752 0 0 -0.0735459 -0.0599752 0.398209
33 1.11936 0 0 -0.029582 0.104083 0.418689
34 3.71349 0.102638 0.102191 -1.55078 1.0009 -0.0625517
35 1.72615 0 0 0.00484502 0.003319 1.0817
36 1.21112 0 0 0.0142295 0.0104192 1.53627
37 3.5992 1.06012 0.0708876 -1.75855 1.01668 -0.16381
38 1.66069 0 0 0.0132136 0.0176563 0.864595
39 1.16699 0 0 -0.0515123 0.0185074 1.64165
40 2.18853 -0.50104 0.0576582 -1.59892 0.0711593 -0.0997064
41 1.29609 0 0 -0.0294909 -0.0363878 0.870095
42 1.62201 -0.000712395 -0.000470161 -0.00671601 -0.0123834 0.929895
43 1.2224 0 0 0.0197072 -0.00500034 1.81796
44 1.76707 -1.27612 0.0366411 -1.53586 0.195318 -0.0870188
45 1.55587 0 0 0.0272769 -0.0402818 0.694189
46 1.24273 0 0 0.000599294 0 0.70809
47 0.78453 0 0 -0.00593342 0.000318935 0.628058
48 0 0 0 0 0 0
49 11.2239 -13.4068 -54.7851 -0.431624 0.393915 2.23793
50 0 0 1.57913 0 0 0
51 -0.059763 0 2.14219 1.5708 -0.465766 0
52 0.822428 0 0 0 0 -1.59206
53 1.65555 0 0 0 0 -0.179192
54 -12.2888 -14.0656 -12.6887 1.43894 -1.01875 1.63888
55 0.136341 0.367236 -0.829751 1.43126 -1.5609 -1.52465
56 0.304319 0 0 0 0 -0.0269022
57 0.287033 0 0 0 0 0.0456978
58 0.20106 0 0 0 0 0.00642937
59 0.232012 0 0 0 0 0.0372464
60 -0.0501709 0 2.09035 0 0.610865 0
61 0.34296 0 1.82042 0 0 0
62 -0.49446 -2.33627 -0.838784 0 0 0
time 28
0 2.52469 0.292115 -6.6269 0 0 -0.59631
1 6.02794 0 0 0.711136 0.519379 0.230444
2 11.7344 0 0 -0.0014028 0 -2.15365
3 8.81138 -0.000450134 -0.000112534 -0.294619 0 0.000157013
4 5.77839 0.000284195 0 -0.197395 0 0.000103842
5 2.23163 -0.000329971 -0.000365257 -0.0972243 0 0
6 11.4725 0 0 -0.592681 -0.45507 0.646917
7 0.615219 -0.993092 -0.810701 3.059 0.566573 -0.806485
8 2.24752 0 0 0.114871 0.0703093 0.166296
9 1.11936 0 0 0.0687035 0.0585168 -0.351506
10 3.71348 -0.10264 0.10219 1.55999 -0.0420332 0.0798625
11 1.72615 0 0 -0.00207041 -0.0284524 -0.0390824
12 1.21114 0 0 0.00991425 0.0145859 -0.000446815
13 3.59919 -1.06012 0.0708876 1.55963 0.00161915 -0.0627621
14 1.66069 0 0 0.0179104 0.0757813 0.00940072
15 1.167 0 0 -0.0151706 0.0454569 0.0402757
16 2.18852 0.50104 0.0576591 1.57004 -0.0521618 0.225938
17 1.29609 0 0 -0.00692373 -0.0463195 -0.0403298
18 1.62202 0.000714779 -0.000470161 -0.0170531 -0.0362868 0.00632033
19 1.22241 0 0 0.010411 -0.0213342 0.00596789
20 1.76707 1.27612 0.0366406 1.57004 -0.0293956 0.261465
21 1.55588 0 0 -0.0101479 0.0309803 -0.0220302
22 1.24273 0 0 -0.000479216 0.000360399 -0.0344315
23 0.784523 0 0 0.0158301 0.00390864 0.0455419
24 -1.93761 8.00428 -7.76724 -0.000932534 0 3.14159
25 6.02794 0 0 0.729771 0.659802 0.89569
26 11.7344 0 0 0.00140278 0 1.18602
27 8.81167 0 0 -0.945092 0 0
28 5.77884 0 0 -0.633212 0 0
29 2.23249 0 0 -0.31188 0 0
30 11.4725 0 0 -0.945892 -0.00839224 -0.0650097
31 0.615813 0.99437 -0.809165 -3.05441 0.408507 0.374953
32 2.24752 0 0 -0.0735459 -0.0599752 0.398209
33 1.11936 0 0 -0.029582 0.104083 0.418689
34 3.71349 0.102638 0.102191 -1.55078 1.0009 -0.0625517
35 1.72615 0 0 0.00484502 0.003319 1.0817
36 1.21112 0 0 0.0142295 0.0104192 1.53627
37 3.5992 1.06012 0.0708876 -1.75855 1.01668 -0.16381
38 1.66069 0 0 0.0132136 0.0176563 0.864595
39 1.16699 0 0 -0.0515123 0.0185074 1.64165
40 2.18853 -0.50104 0.0576582 -1.59892 0.0711593 -0.0997064
41 1.29609 0 0 -0.0294909 -0.0363878 0.870095
42 1.62201 -0.000712395 -0.000470161 -0.00671601 -0.0123834 0.929895
43 1.2224 0 0 0.0197072 -0.00500034 1.81796
44 1.76707 -1.27612 0.0366411 -1.53586 0.195318 -0.0870188
45 1.55587 0 0 0.0272769 -0.0402818 0.694189
46 1.24273 0 0 0.000599294 0 0.70809
47 0.78453 0 0 -0.00593342 0.000318935 0.628058
48 0 0 0 0 0 0
49 11.2239 -13.4068 -54.7851 -0.431624 0.393915 2.23793
50 0 0 1.57913 0 0 0
51 -0.059763 0 2.14219 1.5708 -0.465766 0
52 0.822428 0 0 0 0 -1.59206
53 1.65555 0 0 0 0 -0.179192
54 -12.2888 -14.0656 -12.6887 1.43894 -1.01875 1.63888
55 0.136341 0.367236 -0.829751 1.43126 -1.5609 -1.52465
56 0.304319 0 0 0 0 -0.0269022
57 0.287033 0 0 0 0 0.0456978
58 0.20106 0 0 0 0 0.00642937
59 0.232012 0 0 0 0 0.0372464
60 -0.0501709 0 2.09035 0 0.610865 0
61 0.34296 0 1.82042 0 0 0
62 -0.49446 -2.33627 -0.838784 0 0 0
time 29
0 2.52469 0.292115 -6.6269 0 0 -0.59631
1 6.02794 0 0 0.711136 0.519379 0.230444
2 11.7344 0 0 -0.0014028 0 -2.15365
3 8.81138 -0.000450134 -0.000112534 -0.294619 0 0.000157013
4 5.77839 0.000284195 0 -0.197395 0 0.000103842
5 2.23163 -0.000329971 -0.000365257 -0.0972243 0 0
6 11.4725 0 0 -0.592681 -0.45507 0.646917
7 0.615219 -0.993092 -0.810701 3.059 0.566573 -0.806485
8 2.24752 0 0 0.114871 0.0703093 0.166296
9 1.11936 0 0 0.0687035 0.0585168 -0.351506
10 3.71348 -0.10264 0.10219 1.55999 -0.0420332 0.0798625
11 1.72615 0 0 -0.00207041 -0.0284524 -0.0390824
12 1.21114 0 0 0.00991425 0.0145859 -0.000446815
13 3.59919 -1.06012 0.0708876 1.55963 0.00161915 -0.0627621
14 1.66069 0 0 0.0179104 0.0757813 0.00940072
15 1.167 0 0 -0.0151706 0.0454569 0.0402757
16 2.18852 0.50104 0.0576591 1.57004 -0.0521618 0.225938
17 1.29609 0 0 -0.00692373 -0.0463195 -0.0403298
18 1.62202 0.000714779 -0.000470161 -0.0170531 -0.0362868 0.00632033
19 1.22241 0 0 0.010411 -0.0213342 0.00596789
20 1.76707 1.27612 0.0366406 1.57004 -0.0293956 0.261465
21 1.55588 0 0 -0.0101479 0.0309803 -0.0220302
22 1.24273 0 0 -0.000479216 0.000360399 -0.0344315
23 0.784523 0 0 0.0158301 0.00390864 0.0455419
24 -1.93761 8.00428 -7.76724 -0.000932534 0 3.14159
25 6.02794 0 0 0.729771 0.659802 0.89569
26 11.7344 0 0 0.00140278 0 1.18602
27 8.81167 0 0 -0.945092 0 0
28 5.77884 0 0 -0.633212 0 0
29 2.23249 0 0 -0.31188 0 0
30 11.4725 0 0 -0.945892 -0.00839224 -0.0650097
31 0.615813 0.99437 -0.809165 -3.05441 0.408507 0.374953
32 2.24752 0 0 -0.0735459 -0.0599752 0.398209
33 1.11936 0 0 -0.029582 0.104083 0.418689
34 3.71349 0.102638 0.102191 -1.55078 1.0009 -0.0625517
35 1.72615 0 0 0.00484502 0.003319 1.0817
36 1.21112 0 0 0.0142295 0.0104192 1.53627
37 3.5992 1.06012 0.0708876 -1.75855 1.01668 -0.16381
38 1.66069 0 0 0.0132136 0.0176563 0.864595
39 1.16699 0 0 -0.0515123 0.0185074 1.64165
40 2.18853 -0.50104 0.0576582 -1.59892 0.0711593 -0.0997064
41 1.29609 0 0 -0.0294909 -0.0363878 0.870095
42 1.62201 -0.000712395 -0.000470161 -0.00671601 -0.0123834 0.929895
43 1.2224 0 0 0.0197072 -0.00500034 1.81796
44 1.76707 -1.27612 0.0366411 -1.53586 0.195318 -0.0870188
45 1.55587 0 0 0.0272769 -0.0402818 0.694189
46 1.24273 0 0 0.000599294 0 0.70809
47 0.78453 0 0 -0.00593342 0.000318935 0.628058
48 0 0 0 0 0 0
49 11.2239 -13.4068 -54.7851 -0.431624 0.393915 2.23793
50 0 0 1.57913 0 0 0
51 -0.059763 0 2.14219 1.5708 -0.465766 0
52 0.822428 0 0 0 0 -1.59206
53 1.65555 0 0 0 0 -0.179192
54 -12.2888 -14.0656 -12.6887 1.43894 -1.01875 1.63888
55 0.136341 0.367236 -0.829751 1.43126 -1.5609 -1.52465
56 0.304319 0 0 0 0 -0.0269022
57 0.287033 0 0 0 0 0.0456978
58 0.20106 0 0 0 0 0.00642937
59 0.232012 0 0 0 0 0.0372464
60 -0.0501709 0 2.09035 0 0.610865 0
61 0.34296 0 1.82042 0 0 0
62 -0.49446 -2.33627 -0.838784 0 0 0
time 30
0 2.52469 0.292115 -6.6269 0 0 -0.59631
1 6.02794 0 0 0.711136 0.519379 0.230444
2 11.7344 0 0 -0.0014028 0 -2.15365
3 8.81138 -0.000450134 -0.000112534 -0.294619 0 0.000157013
4 5.77839 0.000284195 0 -0.197395 0 0.000103842
5 2.23163 -0.000329971 -0.000365257 -0.0972243 0 0
6 11.4725 0 0 -0.592681 -0.45507 0.646917
7 0.615219 -0.993092 -0.810701 3.059 0.566573 -0.806485
8 2.24752 0 0 0.114871 0.0703093 0.166296
9 1.11936 0 0 0.0687035 0.0585168 -0.351506
10 3.71348 -0.10264 0.10219 1.55999 -0.0420332 0.0798625
11 1.72615 0 0 -0.00207041 -0.0284524 -0.0390824
12 1.21114 0 0 0.00991425 0.0145859 -0.000446815
13 3.59919 -1.06012 0.0708876 1.55963 0.00161915 -0.0627621
14 1.66069 0 0 0.0179104 0.0757813 0.00940072
15 1.167 0 0 -0.0151706 0.0454569 0.0402757
16 2.18852 0.50104 0.0576591 1.57004 -0.0521618 0.225938
17 1.29609 0 0 -0.00692373 -0.0463195 -0.0403298
18 1.62202 0.000714779 -0.000470161 -0.0170531 -0.0362868 0.00632033
19 1.22241 0 0 0.010411 -0.0213342 0.00596789
20 1.76707 1.27612 0.0366406 1.57004 -0.0293956 0.261465
21 1.55588 0 0 -0.0101479 0.0309803 -0.0220302
22 1.24273 0 0 -0.000479216 0.000360399 -0.0344315
23 0.784523 0 0 0.0158301 0.00390864 0.0455419
24 -1.93761 8.00428 -7.76724 -0.000932534 0 3.14159
25 6.02794 0 0 0.729771 0.659802 0.89569
26 11.7344 0 0 0.00140278 0 1.18602
27 8.81167 0 0 -0.945092 0 0
28 5.77884 0 0 -0.633212 0 0
29 2.23249 0 0 -0.31188 0 0
30 11.4725 0 0 -0.945892 -0.00839224 -0.0650097
31 0.615813 0.99437 -0.809165 -3.05441 0.408507 0.374953
32 2.24752 0 0 -0.0735459 -0.0599752 0.398209
33 1.11936 0 0 -0.029582 0.104083 0.418689
34 3.71349 0.102638 0.102191 -1.55078 1.0009 -0.0625517
35 1.72615 0 0 0.00484502 0.003319 1.0817
36 1.21112 0 0 0.0142295 0.0104192 1.53627
37 3.5992 1.06012 0.0708876 -1.75855 1.01668 -0.16381
38 1.66069 0 0 0.0132136 0.0176563 0.864595
39 1.16699 0 0 -0.0515123 0.0185074 1.64165
40 2.18853 -0.50104 0.0576582 -1.59892 0.0711593 -0.0997064
41 1.29609 0 0 -0.0294909 -0.0363878 0.870095
42 1.62201 -0.000712395 -0.000470161 -0.00671601 -0.0123834 0.929895
43 1.2224 0 0 0.0197072 -0.00500034 1.81796
44 1.76707 -1.27612 0.0366411 -1.53586 0.195318 -0.0870188
45 1.55587 0 0 0.0272769 -0.0402818 0.694189
46 1.24273 0 0 0.000599294 0 0.70809
47 0.78453 0 0 -0.00593342 0.000318935 0.628058
48 0 0 0 0 0 0
49 11.2239 -13.4068 -54.7851 -0.431624 0.393915 2.23793
50 0 0 1.57913 0 0 0
51 -0.059763 0 2.14219 1.5708 -0.465766 0
52 0.822428 0 0 0 0 -1.59206
53 1.65555 0 0 0 0 -0.179192
54 -12.2888 -14.0656 -12.6887 1.43894 -1.01875 1.63888
55 0.136341 0.367236 -0.829751 1.43126 -1.5609 -1.52465
56 0.304319 0 0 0 0 -0.0269022
57 0.287033 0 0 0 0 0.0456978
58 0.20106 0 0 0 0 0.00642937
59 0.232012 0 0 0 0 0.0372464
60 -0.0501709 0 2.09035 0 0.610865 0
61 0.34296 0 1.82042 0 0 0
62 -0.49446 -2.33627 -0.838784 0 0 0
end
