//Sequence File generated by the Wall Worm SMD Exporter PRO 1.99
//www.wallworm.com
version 1
nodes
0 "b_l_clav" -1
1 "b_l_upperarm" 0
2 "b_l_forearm" 1
3 "b_l_twist3" 2
4 "b_l_twist2" 2
5 "b_l_twist1" 2
6 "b_l_hand" 2
7 "b_l_thumb001" 6
8 "b_l_thumb002" 7
9 "b_l_thumb003" 8
10 "b_l_middle001" 6
11 "b_l_middle002" 10
12 "b_l_middle003" 11
13 "b_l_index001" 6
14 "b_l_index002" 13
15 "b_l_index003" 14
16 "b_l_hand_ringsqueezer" 6
17 "b_l_ring001" 16
18 "b_l_ring002" 17
19 "b_l_ring003" 18
20 "b_l_hand_pinkysqueezer" 6
21 "b_l_pinky001" 20
22 "b_l_pinky002" 21
23 "b_l_pinky003" 22
24 "b_r_clav" -1
25 "b_r_upperarm" 24
26 "b_r_forearm" 25
27 "b_r_twist3" 26
28 "b_r_twist2" 26
29 "b_r_twist1" 26
30 "b_r_hand" 26
31 "b_r_thumb001" 30
32 "b_r_thumb002" 31
33 "b_r_thumb003" 32
34 "b_r_middle001" 30
35 "b_r_middle002" 34
36 "b_r_middle003" 35
37 "b_r_index001" 30
38 "b_r_index002" 37
39 "b_r_index003" 38
40 "b_r_hand_ringsqueezer" 30
41 "b_r_ring001" 40
42 "b_r_ring002" 41
43 "b_r_ring003" 42
44 "b_r_hand_pinkysqueezer" 30
45 "b_r_pinky001" 44
46 "b_r_pinky002" 45
47 "b_r_pinky003" 46
48 "b_zero" -1
49 "d_boolet001" -1
50 "d_boolet002" -1
51 "d_boolet003" -1
52 "d_gun" -1
53 "Dummy002" 52
54 "d_trigger" 52
55 "d_magfollower" 52
56 "d_bolt" 52
57 "d_firingpin" 56
end
skeleton
time 0
0 2.22996 0.924896 -8.5669 0.000934124 0 -1.48352
1 6.02794 0 0 -0.965266 0.216456 -0.265989
2 11.7344 0 0 -0.0014029 0 -0.631686
3 8.81139 -0.000448227 -0.00011158 -1.80409 0 0.000157589
4 5.77839 0.00028801 0 -1.20874 0 0.000100243
5 2.23164 -0.000329971 -0.000363827 -0.595349 0 0
6 11.4725 0 0 -1.80258 0.142514 0.153136
7 0.615217 -0.993091 -0.810701 2.73639 0.138972 -0.259942
8 2.24752 0 0 0.0902366 0.0488276 0.217799
9 1.11936 0 0 0.143618 0.190558 -0.0248856
10 3.71348 -0.10264 0.102191 1.62323 0.613732 0.427234
11 1.72615 0 0 0.00705547 -0.00827848 -1.41781
12 1.21114 0 0 0.0081192 0.0120081 0.0613767
13 3.59919 -1.06012 0.0708876 1.53759 0.122863 0.416373
14 1.66069 0 0 -0.0542636 0.0547749 -1.00053
15 1.167 0 0 0.0029303 0.000285313 -1.04166
16 2.18852 0.50104 0.0576582 1.55856 0.16523 0.120989
17 1.29609 0 0 -0.132075 0.0965636 -0.752323
18 1.62202 0.000717163 -0.000469208 0.0295669 -0.0262706 -1.27144
19 1.22241 0 0 0.00408984 -0.0010541 0.15071
20 1.76707 1.27612 0.0366411 1.49753 0.495024 0.0595551
21 1.55588 0 0 -0.190038 -0.0396414 -0.918253
22 1.24274 0 0 -0.000478971 0.000360842 -0.663473
23 0.784523 0 0 0.01138 0.00651398 0.248465
24 -10.4183 11.8378 -1.06464 -0.000932693 0 -2.00714
25 6.02794 0 0 0.804351 0.704397 0.288146
26 11.7344 0 0 0.00140275 0 1.19451
27 8.81167 0 0 0.401221 0 0
28 5.77884 0 0 0.268818 0 0
29 2.23249 0 0 0.132403 0 0
30 11.4725 0 0 0.674492 -0.0664903 -0.932143
31 0.615811 0.994372 -0.809165 -2.97612 0.595303 0.240986
32 2.24752 0 0 -0.439682 0.14095 0.241995
33 1.11936 0 0 -0.0768327 0.184909 1.23966
34 3.71348 0.102638 0.102191 -1.85093 1.1698 -0.684738
35 1.72615 0 0 0.00173791 0.015606 1.23447
36 1.21112 0 0 -0.00755632 0.0282298 0.807688
37 3.5992 1.06012 0.0708885 -1.6277 0.227533 -0.0640692
38 1.66069 0 0 0.00650421 0.077593 0.306618
39 1.16699 0 0 0.0412623 0.0180749 0.795628
40 2.18853 -0.50104 0.0576601 -1.56657 0.103413 -0.112922
41 1.29609 0 0 0.287253 0.173821 1.26583
42 1.62202 -0.000711441 -0.000469208 0.000354461 0.00050096 1.21018
43 1.2224 0 0 0.0296804 0.0210108 0.78408
44 1.76707 -1.27612 0.0366421 -1.55745 0.249311 -0.0923493
45 1.55588 0 0 0.413108 0.122566 1.18583
46 1.24273 0 0 0.00047902 0.000360952 0.778555
47 0.784533 0 0 -0.00994519 -0.0136727 0.810015
48 0 0 0 0 0 0
49 -7.25564 -8.36275 -12.8761 1.5708 -1.5708 0
50 -9.29704 -8.36275 -12.8761 1.5708 -1.5708 0
51 -11.4841 -8.36275 -12.8761 1.5708 -1.5708 0
52 -6.84059 -19.4112 -6.14401 0 0 0
53 0 -13.2809 3.88246 0 0 0
54 0 1.99361 -1.25282 0 0 0
55 0 -3.47495 0.582541 0 0 0
56 0 -0.251465 1.74774 0 0 0
57 0 2.53135 0 0 0 0
time 1
0 2.22996 0.924896 -8.5669 0.000934124 0 -1.48352
1 6.02794 0 0 -0.957808 0.251187 -0.243434
2 11.7344 0 0 -0.00140275 0 -0.74118
3 8.81138 -0.000450134 -0.000111818 -1.81284 0 0.00015735
4 5.77839 0.000284195 0 -1.2146 0 0
5 2.23163 -0.000329971 -0.00036478 -0.598236 0 0
6 11.4725 0 0 -1.80873 0.123835 0.197031
7 0.615219 -0.993092 -0.810699 2.73639 0.138973 -0.259942
8 2.24752 0 0 0.0902366 0.0488275 0.217799
9 1.11936 0 0 0.143618 0.190558 -0.0248857
10 3.71348 -0.102641 0.102192 1.62323 0.613732 0.427234
11 1.72615 0 0 0.00705518 -0.00827833 -1.41781
12 1.21114 0 0 0.00811927 0.0120081 0.0613767
13 3.59919 -1.06012 0.0708885 1.53759 0.122863 0.416373
14 1.66069 0 0 -0.0542636 0.0547748 -1.00053
15 1.167 0 0 0.00293029 0.000285312 -1.04166
16 2.18852 0.501039 0.0576591 1.55856 0.16523 0.120989
17 1.29609 0 0 -0.132075 0.0965637 -0.752323
18 1.62202 0.000713348 -0.000472069 0.029567 -0.0262704 -1.27144
19 1.22241 0 0 0.00408966 -0.00105421 0.15071
20 1.76707 1.27612 0.0366411 1.49753 0.495024 0.0595552
21 1.55588 0 0 -0.190038 -0.0396412 -0.918253
22 1.24274 0 0 -0.000478811 0.000360834 -0.663473
23 0.784523 0 0 0.0113799 0.00651405 0.248465
24 -10.4183 11.8378 -1.06464 -0.000932693 0 -2.00714
25 6.02794 0 0 0.764674 0.734821 0.254242
26 11.7344 0 0 0.00140266 0 1.26508
27 8.81167 0 0 0.369782 0 0
28 5.77884 0 0 0.247754 0 0
29 2.23249 0 0 0.122028 0 0
30 11.4725 0 0 0.674552 -0.0963287 -0.951571
31 0.615812 0.994371 -0.809165 -2.97612 0.595303 0.240986
32 2.24752 0 0 -0.439682 0.14095 0.241995
33 1.11936 0 0 -0.0768329 0.184909 1.23966
34 3.71349 0.102639 0.102191 -1.85093 1.1698 -0.684738
35 1.72615 0 0 0.00173775 0.0156061 1.23447
36 1.21112 0 0 -0.00755623 0.0282297 0.807688
37 3.5992 1.06012 0.0708876 -1.6277 0.227533 -0.0640692
38 1.66069 0 0 0.00650423 0.077593 0.306618
39 1.16699 0 0 0.0412624 0.0180749 0.795628
40 2.18853 -0.50104 0.0576582 -1.56657 0.103413 -0.112923
41 1.29609 0 0 0.287253 0.173821 1.26583
42 1.62202 -0.000713348 -0.000470161 0.000354366 0.000501007 1.21018
43 1.22241 0 0 0.0296805 0.0210105 0.784081
44 1.76707 -1.27612 0.0366402 -1.55745 0.249311 -0.0923494
45 1.55587 0 0 0.413108 0.122566 1.18583
46 1.24273 0 0 0.000478945 0.000361006 0.778555
47 0.784532 0 0 -0.00994525 -0.0136729 0.810015
48 0 0 0 0 0 0
49 -7.36242 -8.00615 -13.0567 0.626038 -1.54184 0.943442
50 -9.40353 -8.00305 -13.022 0.626038 -1.54184 0.943442
51 -11.5902 -7.99973 -12.9849 0.626038 -1.54184 0.943442
52 -6.84537 -18.8944 -6.07523 -0.0234708 0.0169675 -0.00151777
53 0 -13.2809 3.88246 0 0 0
54 0 1.99361 -1.25282 0 0 0
55 0 -3.47495 0.52345 0 0 0
56 0 -0.251465 1.74774 0 0 0
57 0 2.34338 0 0 0 0
time 2
0 2.22996 0.924896 -8.5669 0.000934124 0 -1.48352
1 6.02794 0 0 -0.892606 0.418427 -0.136292
2 11.7344 0 0 -0.00140294 0 -1.22036
3 8.81138 -0.000450134 -0.000111818 -1.81591 0 0.000157074
4 5.77839 0.000286102 0 -1.21666 0 0.00010002
5 2.23164 -0.000329971 -0.000363827 -0.599251 0 0
6 11.4725 0 0 -1.78665 0.098754 0.490075
7 0.615221 -0.993091 -0.810701 2.73639 0.138973 -0.259942
8 2.24752 0 0 0.0902366 0.0488275 0.217799
9 1.11935 0 0 0.143618 0.190558 -0.0248857
10 3.71348 -0.102641 0.10219 1.62323 0.613732 0.427234
11 1.72615 0 0 0.00705535 -0.00827834 -1.41781
12 1.21114 0 0 0.00811917 0.0120082 0.0613768
13 3.59919 -1.06012 0.0708876 1.53759 0.122863 0.416373
14 1.66069 0 0 -0.0542637 0.0547749 -1.00053
15 1.167 0 0 0.00293035 0.000285342 -1.04166
16 2.18852 0.501039 0.0576582 1.55856 0.16523 0.120989
17 1.29609 0 0 -0.132075 0.0965637 -0.752323
18 1.62202 0.000711441 -0.000473022 0.029567 -0.0262704 -1.27144
19 1.22241 0 0 0.00408986 -0.00105422 0.15071
20 1.76707 1.27612 0.0366402 1.49753 0.495024 0.0595552
21 1.55588 0 0 -0.190038 -0.0396414 -0.918253
22 1.24274 0 0 -0.000478984 0.000361153 -0.663473
23 0.784525 0 0 0.01138 0.0065141 0.248465
24 -10.4183 11.8378 -1.06464 -0.000932693 0 -2.00714
25 6.02794 0 0 0.541736 0.848757 0.061518
26 11.7344 0 0 0.00140278 0 1.60584
27 8.81167 0 0 0.317905 0 0
28 5.77884 0 0 0.212996 0 0
29 2.23249 0 0 0.104909 0 0
30 11.4725 0 0 0.778995 -0.12907 -1.10722
31 0.615813 0.994373 -0.809165 -2.97612 0.595303 0.240986
32 2.24752 0 0 -0.439682 0.14095 0.241995
33 1.11936 0 0 -0.0768329 0.184909 1.23966
34 3.71349 0.102639 0.102191 -1.85093 1.1698 -0.684738
35 1.72615 0 0 0.0017378 0.015606 1.23447
36 1.21112 0 0 -0.00755626 0.0282298 0.807688
37 3.5992 1.06012 0.0708885 -1.6277 0.227533 -0.064069
38 1.66069 0 0 0.00650425 0.077593 0.306618
39 1.16699 0 0 0.0412624 0.018075 0.795629
40 2.18853 -0.50104 0.0576591 -1.56657 0.103413 -0.112922
41 1.29609 0 0 0.287253 0.173821 1.26583
42 1.62202 -0.000713348 -0.000470161 0.000354451 0.000501012 1.21018
43 1.22241 0 0 0.0296804 0.0210107 0.78408
44 1.76707 -1.27612 0.0366411 -1.55745 0.249311 -0.0923493
45 1.55587 0 0 0.413108 0.122566 1.18583
46 1.24273 0 0 0.000478924 0.000360963 0.778555
47 0.78453 0 0 -0.00994519 -0.0136728 0.810015
48 0 0 0 0 0 0
49 -7.13989 -5.24324 -13.0788 -0.535429 -1.53529 2.10708
50 -9.18097 -5.24555 -13.1158 -0.535429 -1.53529 2.10708
51 -11.3676 -5.24803 -13.1554 -0.535429 -1.53529 2.10708
52 -6.84059 -16.0807 -6.00616 -0.0305373 -0.018111 0.00113457
53 0 -13.2809 3.88246 0 0 0
54 0 1.99361 -1.25282 0 0 0
55 0 -3.47495 0.523451 0 0 0
56 0 -0.251465 1.74774 0 0 0
57 0 2.34337 0 0 0 0
time 3
0 2.22996 0.924896 -8.5669 0.000934124 0 -1.48352
1 6.02794 0 0 -0.896653 0.411332 -0.140869
2 11.7344 0 0 -0.0014028 0 -1.20101
3 8.81138 -0.000450134 -0.00011301 -1.81201 0 0.000157959
4 5.77839 0.000286102 0 -1.21404 0 0.0001005
5 2.23163 -0.000329971 -0.000363827 -0.597962 0 0
6 11.4725 0 0 -1.78477 0.100473 0.476219
7 0.615219 -0.993092 -0.810699 2.73639 0.138973 -0.259942
8 2.24752 0 0 0.0902366 0.0488276 0.217799
9 1.11936 0 0 0.143618 0.190558 -0.0248856
10 3.71348 -0.102641 0.102192 1.62323 0.613732 0.427234
11 1.72615 0 0 0.00705544 -0.00827835 -1.41781
12 1.21114 0 0 0.00811917 0.0120083 0.0613766
13 3.59919 -1.06012 0.0708885 1.53759 0.122863 0.416373
14 1.66069 0 0 -0.0542636 0.0547748 -1.00053
15 1.167 0 0 0.00293028 0.000285165 -1.04166
16 2.18852 0.501039 0.0576591 1.55856 0.16523 0.120989
17 1.29609 0 0 -0.132075 0.0965636 -0.752323
18 1.62202 0.000713348 -0.000472069 0.0295669 -0.0262704 -1.27144
19 1.22241 0 0 0.00408975 -0.00105422 0.15071
20 1.76707 1.27612 0.0366421 1.49753 0.495024 0.0595552
21 1.55588 0 0 -0.190038 -0.0396414 -0.918253
22 1.24274 0 0 -0.000478925 0.000360984 -0.663473
23 0.784523 0 0 0.01138 0.00651409 0.248465
24 -10.4183 11.8378 -1.06464 -0.000932693 0 -2.00714
25 6.02794 0 0 0.550904 0.845275 0.0701067
26 11.7344 0 0 0.00140273 0 1.59059
27 8.81167 0 0 0.323689 0 0
28 5.77884 0 0 0.216872 0 0
29 2.23249 0 0 0.106817 0 0
30 11.4725 0 0 0.776551 -0.13046 -1.09685
31 0.615811 0.994372 -0.809165 -2.97612 0.595303 0.240986
32 2.24752 0 0 -0.439681 0.14095 0.241995
33 1.11936 0 0 -0.0768328 0.184909 1.23966
34 3.71349 0.102639 0.102191 -1.85093 1.1698 -0.684738
35 1.72615 0 0 0.00173775 0.015606 1.23447
36 1.21112 0 0 -0.00755625 0.0282297 0.807688
37 3.5992 1.06012 0.0708885 -1.6277 0.227533 -0.0640691
38 1.66069 0 0 0.00650425 0.077593 0.306618
39 1.16699 0 0 0.0412624 0.0180749 0.795629
40 2.18853 -0.50104 0.0576591 -1.56657 0.103413 -0.112922
41 1.29609 0 0 0.287253 0.173821 1.26583
42 1.62202 -0.000713348 -0.000470638 0.000354474 0.000501032 1.21018
43 1.22241 0 0 0.0296804 0.0210107 0.78408
44 1.76707 -1.27612 0.0366402 -1.55745 0.249311 -0.0923492
45 1.55587 0 0 0.413108 0.122566 1.18583
46 1.24273 0 0 0.000479003 0.000360959 0.778555
47 0.784531 0 0 -0.00994527 -0.0136729 0.810015
48 0 0 0 0 0 0
49 -7.13119 -5.39605 -13.1168 -0.490955 -1.53286 2.06169
50 -9.17227 -5.39653 -13.1533 -0.490955 -1.53286 2.06169
51 -11.359 -5.39705 -13.1924 -0.490955 -1.53286 2.06169
52 -6.84059 -16.213 -6.01255 -0.033462 -0.0178841 0.000235944
53 0 -13.2809 3.88246 0 0 0
54 0 1.99361 -1.25282 0 0 0
55 0 -3.47495 0.52345 0 0 0
56 0 -0.251465 1.74774 0 0 0
57 0 2.34338 0 0 0 0
time 4
0 2.22996 0.924896 -8.5669 0.000934124 0 -1.48352
1 6.02794 0 0 -0.906304 0.392799 -0.153072
2 11.7344 0 0 -0.00140289 0 -1.14784
3 8.81138 -0.000448227 -0.000112057 -1.80488 0 0.000157598
4 5.77839 0.000286102 0 -1.20927 0 0.000100165
5 2.23163 -0.000328064 -0.000364304 -0.595609 0 0
6 11.4725 0 0 -1.78219 0.105858 0.440643
7 0.615221 -0.993091 -0.8107 2.73639 0.138972 -0.259942
8 2.24752 0 0 0.0902366 0.0488276 0.217799
9 1.11936 0 0 0.143618 0.190558 -0.0248856
10 3.71348 -0.102641 0.102191 1.62323 0.613732 0.427234
11 1.72615 0 0 0.00705531 -0.0082783 -1.41781
12 1.21114 0 0 0.00811915 0.0120081 0.0613765
13 3.59919 -1.06012 0.0708876 1.53759 0.122863 0.416373
14 1.66069 0 0 -0.0542635 0.054775 -1.00053
15 1.167 0 0 0.00293028 0.000285098 -1.04166
16 2.18852 0.501039 0.0576591 1.55856 0.16523 0.120989
17 1.29609 0 0 -0.132075 0.0965636 -0.752323
18 1.62202 0.000713348 -0.000473022 0.0295669 -0.0262704 -1.27144
19 1.22241 0 0 0.00408986 -0.00105422 0.15071
20 1.76707 1.27612 0.0366402 1.49753 0.495024 0.059555
21 1.55588 0 0 -0.190038 -0.0396413 -0.918253
22 1.24274 0 0 -0.000478962 0.000360908 -0.663473
23 0.784523 0 0 0.01138 0.0065141 0.248465
24 -10.4183 11.8378 -1.06464 -0.000932693 0 -2.00714
25 6.02794 0 0 0.578203 0.834612 0.094826
26 11.7344 0 0 0.00140264 0 1.54941
27 8.81167 0 0 0.337098 0 0
28 5.77884 0 0 0.225856 0 0
29 2.23249 0 0 0.111243 0 0
30 11.4725 0 0 0.768964 -0.130271 -1.07344
31 0.615813 0.994372 -0.809165 -2.97612 0.595303 0.240986
32 2.24752 0 0 -0.439681 0.14095 0.241995
33 1.11936 0 0 -0.0768328 0.184909 1.23966
34 3.71349 0.102638 0.102192 -1.85093 1.1698 -0.684738
35 1.72615 0 0 0.00173775 0.015606 1.23447
36 1.21112 0 0 -0.00755631 0.0282296 0.807688
37 3.5992 1.06012 0.0708876 -1.6277 0.227533 -0.0640691
38 1.66069 0 0 0.00650419 0.0775931 0.306618
39 1.16699 0 0 0.0412623 0.0180749 0.795629
40 2.18853 -0.50104 0.0576601 -1.56657 0.103413 -0.112923
41 1.29609 0 0 0.287253 0.173821 1.26583
42 1.62201 -0.000713348 -0.000470638 0.00035448 0.000501028 1.21018
43 1.2224 0 0 0.0296803 0.0210107 0.78408
44 1.76707 -1.27612 0.0366402 -1.55745 0.249311 -0.0923494
45 1.55587 0 0 0.413108 0.122566 1.18583
46 1.24273 0 0 0.000478939 0.000361025 0.778555
47 0.784532 0 0 -0.00994521 -0.0136729 0.810015
48 0 0 0 0 0 0
49 -7.10999 -5.77445 -13.171 -0.437651 -1.53004 2.00606
50 -9.15109 -5.77022 -13.2063 -0.437651 -1.53004 2.00606
51 -11.3378 -5.76569 -13.2441 -0.437651 -1.53004 2.00606
52 -6.84059 -16.5675 -6.02962 -0.0369217 -0.0172706 -0.00207166
53 0 -13.2809 3.88246 0 0 0
54 0 1.99361 -1.25282 0 0 0
55 0 -3.47495 0.52345 0 0 0
56 0 -0.251467 1.74774 0 0 0
57 0 2.34338 0 0 0 0
time 5
0 2.22996 0.924896 -8.5669 0.000934124 0 -1.48352
1 6.02794 0 0 -0.919485 0.364683 -0.171308
2 11.7344 0 0 -0.00140284 0 -1.06772
3 8.81138 -0.000450134 -0.000111103 -1.79641 0 0.000157639
4 5.77839 0.000286102 0 -1.20359 0 0.00010037
5 2.23163 -0.000331879 -0.000363827 -0.592814 0 0
6 11.4725 0 0 -1.77942 0.113614 0.388704
7 0.615219 -0.99309 -0.810701 2.73639 0.138972 -0.259942
8 2.24752 0 0 0.0902366 0.0488276 0.217799
9 1.11936 0 0 0.143618 0.190558 -0.0248858
10 3.71348 -0.102641 0.10219 1.62323 0.613732 0.427234
11 1.72615 0 0 0.0070554 -0.0082783 -1.41781
12 1.21114 0 0 0.00811925 0.012008 0.0613767
13 3.59919 -1.06012 0.0708876 1.53759 0.122863 0.416373
14 1.66068 0 0 -0.0542636 0.0547748 -1.00053
15 1.167 0 0 0.00293029 0.000285379 -1.04166
16 2.18852 0.50104 0.0576582 1.55856 0.16523 0.120989
17 1.29609 0 0 -0.132075 0.0965638 -0.752323
18 1.62202 0.000717163 -0.000472069 0.0295671 -0.0262704 -1.27144
19 1.22241 0 0 0.00408971 -0.00105415 0.15071
20 1.76707 1.27612 0.0366402 1.49753 0.495024 0.0595552
21 1.55588 0 0 -0.190038 -0.0396415 -0.918253
22 1.24274 0 0 -0.000478906 0.000360928 -0.663473
23 0.784525 0 0 0.0113799 0.00651399 0.248465
24 -10.4183 11.8378 -1.06464 -0.000932693 0 -2.00714
25 6.02794 0 0 0.617382 0.817433 0.13052
26 11.7344 0 0 0.00140266 0 1.48856
27 8.81167 0 0 0.355341 0 0
28 5.77884 0 0 0.238078 0 0
29 2.23249 0 0 0.117262 0 0
30 11.4725 0 0 0.75795 -0.128719 -1.04049
31 0.615812 0.994372 -0.809165 -2.97612 0.595303 0.240986
32 2.24752 0 0 -0.439682 0.14095 0.241995
33 1.11936 0 0 -0.0768329 0.184909 1.23966
34 3.71348 0.102639 0.10219 -1.85093 1.1698 -0.684738
35 1.72615 0 0 0.00173765 0.0156062 1.23447
36 1.21112 0 0 -0.00755626 0.0282297 0.807688
37 3.5992 1.06012 0.0708866 -1.6277 0.227533 -0.0640691
38 1.66069 0 0 0.00650427 0.0775931 0.306618
39 1.16699 0 0 0.0412623 0.0180749 0.795629
40 2.18853 -0.50104 0.0576591 -1.56657 0.103413 -0.112922
41 1.29609 0 0 0.287253 0.173821 1.26583
42 1.62202 -0.000714302 -0.000470161 0.000354388 0.000501037 1.21018
43 1.2224 0 0 0.0296804 0.0210107 0.78408
44 1.76707 -1.27612 0.0366411 -1.55745 0.249311 -0.0923494
45 1.55588 0 0 0.413108 0.122566 1.18583
46 1.24273 0 0 0.000478963 0.000360979 0.778555
47 0.784532 0 0 -0.00994519 -0.0136729 0.810015
48 0 0 0 0 0 0
49 -7.0821 -6.31082 -13.2326 -0.38535 -1.52723 1.95061
50 -9.12321 -6.30019 -13.266 -0.38535 -1.52723 1.95061
51 -11.3099 -6.28881 -13.3019 -0.38535 -1.52723 1.95061
52 -6.84059 -17.0799 -6.05426 -0.0403746 -0.0163714 -0.0052058
53 0 -13.2809 3.88246 0 0 0
54 0 1.99361 -1.25282 0 0 0
55 0 -3.47495 0.52345 0 0 0
56 0 -0.251463 1.74774 0 0 0
57 0 2.34337 0 0 0 0
time 6
0 2.22996 0.924896 -8.5669 0.000934124 0 -1.48352
1 6.02794 0 0 -0.934343 0.328142 -0.194543
2 11.7344 0 0 -0.00140288 0 -0.9656
3 8.81138 -0.000450134 -0.000112534 -1.78813 0 0.000157568
4 5.77839 0.000286102 0 -1.19805 0 0.000100081
5 2.23163 -0.000329971 -0.00036478 -0.590084 0 0
6 11.4725 0 0 -1.7769 0.122519 0.324747
7 0.615219 -0.993092 -0.8107 2.73639 0.138973 -0.259942
8 2.24752 0 0 0.0902366 0.0488276 0.217799
9 1.11936 0 0 0.143618 0.190558 -0.0248856
10 3.71348 -0.102642 0.102191 1.62323 0.613732 0.427233
11 1.72615 0 0 0.00705532 -0.00827821 -1.41781
12 1.21114 0 0 0.00811918 0.0120081 0.0613766
13 3.59919 -1.06012 0.0708876 1.53759 0.122863 0.416373
14 1.66069 0 0 -0.0542635 0.0547749 -1.00053
15 1.167 0 0 0.00293033 0.000285194 -1.04166
16 2.18853 0.501039 0.0576601 1.55856 0.16523 0.120989
17 1.29609 0 0 -0.132075 0.0965635 -0.752323
18 1.62202 0.000715256 -0.000469208 0.029567 -0.0262705 -1.27144
19 1.22241 0 0 0.00408967 -0.00105415 0.15071
20 1.76707 1.27612 0.0366411 1.49753 0.495024 0.059555
21 1.55588 0 0 -0.190038 -0.0396414 -0.918253
22 1.24274 0 0 -0.000479084 0.000360803 -0.663473
23 0.784525 0 0 0.01138 0.00651404 0.248465
24 -10.4183 11.8378 -1.06464 -0.000932693 0 -2.00714
25 6.02794 0 0 0.662443 0.794461 0.172245
26 11.7344 0 0 0.00140272 0 1.41388
27 8.81167 0 0 0.375971 0 0
28 5.77884 0 0 0.251901 0 0
29 2.23249 0 0 0.12407 0 0
30 11.4725 0 0 0.745128 -0.125985 -1.00129
31 0.615813 0.994372 -0.809165 -2.97612 0.595303 0.240986
32 2.24752 0 0 -0.439682 0.14095 0.241995
33 1.11936 0 0 -0.0768328 0.184909 1.23966
34 3.71349 0.102639 0.102192 -1.85093 1.1698 -0.684738
35 1.72615 0 0 0.00173774 0.015606 1.23447
36 1.21112 0 0 -0.00755624 0.0282297 0.807687
37 3.5992 1.06012 0.0708885 -1.6277 0.227533 -0.064069
38 1.66069 0 0 0.00650423 0.0775931 0.306618
39 1.16699 0 0 0.0412622 0.0180749 0.795628
40 2.18853 -0.50104 0.0576591 -1.56657 0.103413 -0.112922
41 1.29609 0 0 0.287253 0.173821 1.26583
42 1.62201 -0.000712395 -0.000470161 0.000354481 0.000501054 1.21018
43 1.22241 0 0 0.0296804 0.0210108 0.78408
44 1.76707 -1.27612 0.0366411 -1.55745 0.249311 -0.0923493
45 1.55587 0 0 0.413108 0.122566 1.18583
46 1.24273 0 0 0.000478912 0.000361004 0.778555
47 0.784532 0 0 -0.00994521 -0.0136728 0.810015
48 0 0 0 0 0 0
49 -7.0532 -6.93741 -13.2926 -0.33967 -1.5249 1.90155
50 -9.0943 -6.91989 -13.3238 -0.33967 -1.5249 1.90155
51 -11.281 -6.90112 -13.3573 -0.33967 -1.5249 1.90155
52 -6.84059 -17.6865 -6.08334 -0.0432791 -0.0152875 -0.00858404
53 0 -13.2809 3.88246 0 0 0
54 0 1.99361 -1.25282 0 0 0
55 0 -3.47495 0.52345 0 0 0
56 0 -0.251465 1.74774 0 0 0
57 0 2.34338 0 0 0 0
time 7
0 2.22996 0.924896 -8.5669 0.000934124 0 -1.48352
1 6.02794 0 0 -0.949189 0.284519 -0.221742
2 11.7344 0 0 -0.0014028 0 -0.846454
3 8.81138 -0.000450134 -0.000112534 -1.78116 0 0.000157804
4 5.77839 0.000286102 0 -1.19338 0 0.000100231
5 2.23163 -0.000329971 -0.000363827 -0.587784 0 0
6 11.4725 0 0 -1.775 0.131482 0.252932
7 0.615219 -0.993091 -0.810699 2.73639 0.138973 -0.259942
8 2.24752 0 0 0.0902366 0.0488276 0.217799
9 1.11936 0 0 0.143618 0.190558 -0.0248858
10 3.71348 -0.102641 0.102192 1.62323 0.613732 0.427234
11 1.72615 0 0 0.00705539 -0.00827839 -1.41781
12 1.21114 0 0 0.00811906 0.0120083 0.0613765
13 3.59919 -1.06012 0.0708885 1.53759 0.122863 0.416373
14 1.66068 0 0 -0.0542636 0.0547749 -1.00053
15 1.167 0 0 0.00293035 0.000285209 -1.04166
16 2.18852 0.50104 0.0576591 1.55856 0.16523 0.120989
17 1.29609 0 0 -0.132075 0.0965636 -0.752323
18 1.62202 0.000713348 -0.000470161 0.029567 -0.0262705 -1.27144
19 1.22241 0 0 0.00408976 -0.00105416 0.15071
20 1.76707 1.27612 0.0366421 1.49753 0.495024 0.0595552
21 1.55588 0 0 -0.190038 -0.0396415 -0.918253
22 1.24274 0 0 -0.000479114 0.000360982 -0.663473
23 0.784523 0 0 0.0113801 0.00651409 0.248465
24 -10.4183 11.8378 -1.06464 -0.000932693 0 -2.00714
25 6.02794 0 0 0.707995 0.767173 0.215237
26 11.7344 0 0 0.00140267 0 1.3319
27 8.81167 0 0 0.396745 0 0
28 5.77884 0 0 0.265819 0 0
29 2.23249 0 0 0.130926 0 0
30 11.4725 0 0 0.731818 -0.122101 -0.95939
31 0.615813 0.994372 -0.809165 -2.97612 0.595303 0.240986
32 2.24752 0 0 -0.439682 0.14095 0.241995
33 1.11936 0 0 -0.0768327 0.184909 1.23966
34 3.71349 0.10264 0.102191 -1.85093 1.1698 -0.684738
35 1.72615 0 0 0.00173767 0.015606 1.23447
36 1.21112 0 0 -0.00755623 0.0282297 0.807688
37 3.5992 1.06012 0.0708885 -1.6277 0.227533 -0.0640691
38 1.66069 0 0 0.00650424 0.0775931 0.306618
39 1.16699 0 0 0.0412623 0.0180748 0.795628
40 2.18853 -0.50104 0.0576601 -1.56657 0.103413 -0.112922
41 1.29609 0 0 0.287253 0.173821 1.26583
42 1.62202 -0.000713348 -0.000470161 0.000354562 0.000500989 1.21018
43 1.22241 0 0 0.0296803 0.0210107 0.78408
44 1.76707 -1.27612 0.0366411 -1.55745 0.249311 -0.0923493
45 1.55588 0 0 0.413108 0.122566 1.18583
46 1.24273 0 0 0.000478991 0.00036096 0.778555
47 0.784532 0 0 -0.00994514 -0.0136729 0.810015
48 0 0 0 0 0 0
49 -7.02882 -7.58638 -13.3421 -0.303561 -1.52355 1.86242
50 -9.06989 -7.56265 -13.371 -0.303561 -1.52355 1.86242
51 -11.2566 -7.53723 -13.4018 -0.303561 -1.52355 1.86242
52 -6.84059 -18.323 -6.11373 -0.0450934 -0.0141196 -0.011624
53 0 -13.2809 3.88246 0 0 0
54 0 1.9936 -1.25282 0 0 0
55 0 -3.47495 0.52345 0 0 0
56 0 -0.251467 1.74774 0 0 0
57 0 2.34338 0 0 0 0
time 8
0 2.22996 0.924896 -8.5669 0.000934124 0 -1.48352
1 6.02794 0 0 -0.962445 0.236464 -0.251197
2 11.7344 0 0 -0.00140282 0 -0.717864
3 8.81138 -0.000452042 -0.000112295 -1.77621 0 0.000158092
4 5.77839 0.000284195 0 -1.19006 0 0.000100374
5 2.23163 -0.000331879 -0.00036335 -0.58615 0 0
6 11.4725 0 0 -1.77395 0.139559 0.17854
7 0.615221 -0.993091 -0.810701 2.73639 0.138972 -0.259942
8 2.24752 0 0 0.0902366 0.0488275 0.217799
9 1.11936 0 0 0.143618 0.190558 -0.0248856
10 3.71348 -0.10264 0.10219 1.62323 0.613732 0.427234
11 1.72615 0 0 0.00705531 -0.0082783 -1.41781
12 1.21114 0 0 0.00811921 0.0120082 0.0613766
13 3.59919 -1.06012 0.0708866 1.53759 0.122863 0.416373
14 1.66069 0 0 -0.0542635 0.0547749 -1.00053
15 1.167 0 0 0.00293036 0.000285142 -1.04166
16 2.18853 0.501039 0.0576582 1.55856 0.16523 0.120989
17 1.29609 0 0 -0.132075 0.0965636 -0.752323
18 1.62202 0.000711441 -0.000473022 0.0295669 -0.0262703 -1.27144
19 1.22241 0 0 0.00408978 -0.00105446 0.15071
20 1.76707 1.27612 0.0366402 1.49753 0.495024 0.0595551
21 1.55587 0 0 -0.190038 -0.0396414 -0.918253
22 1.24274 0 0 -0.000478954 0.000360974 -0.663473
23 0.784523 0 0 0.0113799 0.00651399 0.248465
24 -10.4183 11.8378 -1.06464 -0.000932693 0 -2.00714
25 6.02794 0 0 0.749611 0.738102 0.255145
26 11.7344 0 0 0.00140259 0 1.25038
27 8.81167 0 0 0.415612 0 0
28 5.77884 0 0 0.27846 0 0
29 2.23249 0 0 0.137152 0 0
30 11.4725 0 0 0.719002 -0.11692 -0.918896
31 0.615812 0.994372 -0.809165 -2.97612 0.595303 0.240986
32 2.24752 0 0 -0.439682 0.14095 0.241995
33 1.11936 0 0 -0.0768328 0.184909 1.23966
34 3.71349 0.102639 0.102191 -1.85093 1.1698 -0.684738
35 1.72615 0 0 0.00173778 0.0156061 1.23447
36 1.21112 0 0 -0.00755627 0.0282297 0.807687
37 3.5992 1.06012 0.0708876 -1.6277 0.227533 -0.064069
38 1.66069 0 0 0.00650425 0.077593 0.306618
39 1.16699 0 0 0.0412623 0.0180749 0.795629
40 2.18853 -0.50104 0.0576591 -1.56657 0.103413 -0.112922
41 1.29609 0 0 0.287253 0.173821 1.26583
42 1.62202 -0.000713348 -0.000470638 0.000354499 0.000500924 1.21018
43 1.22241 0 0 0.0296804 0.0210107 0.784081
44 1.76707 -1.27612 0.0366411 -1.55745 0.249311 -0.0923492
45 1.55588 0 0 0.413108 0.122566 1.18583
46 1.24273 0 0 0.000478947 0.00036099 0.778555
47 0.784532 0 0 -0.00994518 -0.0136728 0.810015
48 0 0 0 0 0 0
49 -7.01438 -8.18981 -13.3723 -0.27907 -1.5237 1.83583
50 -9.05542 -8.16176 -13.3988 -0.27907 -1.5237 1.83583
51 -11.2421 -8.13171 -13.4271 -0.27907 -1.5237 1.83583
52 -6.84059 -18.9257 -6.14231 -0.0452758 -0.0129686 -0.0137431
53 0 -13.2809 3.88246 0 0 0
54 0 1.99361 -1.25282 0 0 0
55 0 -3.47495 0.52345 0 0 0
56 0 -0.251463 1.74774 0 0 0
57 0 2.34338 0 0 0 0
time 9
0 2.22996 0.924896 -8.5669 0.000934124 0 -1.48352
1 6.02794 0 0 -0.972803 0.188723 -0.280176
2 11.7344 0 0 -0.00140288 0 -0.591876
3 8.81138 -0.000450134 -0.000112295 -1.77366 0 0.000157366
4 5.77839 0.000286102 0 -1.18835 0 0
5 2.23163 -0.000331879 -0.000363827 -0.585308 0 0
6 11.4725 0 0 -1.77396 0.145925 0.108932
7 0.615219 -0.993092 -0.810699 2.73639 0.138973 -0.259942
8 2.24752 0 0 0.0902366 0.0488275 0.217799
9 1.11936 0 0 0.143618 0.190558 -0.0248857
10 3.71348 -0.102642 0.102192 1.62323 0.613732 0.427234
11 1.72615 0 0 0.00705519 -0.00827825 -1.41781
12 1.21114 0 0 0.00811937 0.0120081 0.0613768
13 3.59919 -1.06012 0.0708885 1.53759 0.122863 0.416373
14 1.66069 0 0 -0.0542636 0.0547748 -1.00053
15 1.167 0 0 0.00293025 0.000285216 -1.04166
16 2.18852 0.50104 0.0576591 1.55856 0.16523 0.120989
17 1.29609 0 0 -0.132075 0.0965637 -0.752323
18 1.62202 0.000711441 -0.000471115 0.029567 -0.0262704 -1.27144
19 1.22241 0 0 0.00408978 -0.00105422 0.15071
20 1.76707 1.27612 0.0366411 1.49753 0.495024 0.0595551
21 1.55588 0 0 -0.190038 -0.0396414 -0.918253
22 1.24274 0 0 -0.000479123 0.000360916 -0.663473
23 0.784525 0 0 0.01138 0.00651397 0.248465
24 -10.4183 11.8378 -1.06464 -0.000932693 0 -2.00714
25 6.02794 0 0 0.783796 0.711003 0.287928
26 11.7344 0 0 0.00140283 0 1.1789
27 8.81167 0 0 0.430548 0 0
28 5.77884 0 0 0.288467 0 0
29 2.23249 0 0 0.142081 0 0
30 11.4725 0 0 0.707361 -0.11014 -0.884803
31 0.615811 0.994372 -0.809164 -2.97612 0.595303 0.240986
32 2.24752 0 0 -0.439681 0.14095 0.241995
33 1.11936 0 0 -0.0768328 0.184909 1.23966
34 3.71349 0.10264 0.102192 -1.85093 1.1698 -0.684738
35 1.72615 0 0 0.00173778 0.015606 1.23447
36 1.21112 0 0 -0.00755631 0.0282298 0.807688
37 3.5992 1.06012 0.0708895 -1.6277 0.227533 -0.0640693
38 1.66069 0 0 0.00650421 0.077593 0.306618
39 1.16699 0 0 0.0412624 0.0180749 0.795629
40 2.18853 -0.50104 0.0576591 -1.56657 0.103413 -0.112923
41 1.29609 0 0 0.287253 0.173821 1.26583
42 1.62202 -0.000713348 -0.000470161 0.00035448 0.000501119 1.21018
43 1.22241 0 0 0.0296804 0.0210108 0.78408
44 1.76707 -1.27612 0.0366411 -1.55745 0.249311 -0.0923495
45 1.55587 0 0 0.413108 0.122566 1.18583
46 1.24273 0 0 0.000478867 0.00036099 0.778555
47 0.784531 0 0 -0.00994522 -0.0136729 0.810015
48 0 0 0 0 0 0
49 -7.01529 -8.67987 -13.3742 -0.269149 -1.5259 1.82533
50 -9.05634 -8.65056 -13.3986 -0.269149 -1.5259 1.82533
51 -11.243 -8.61916 -13.4247 -0.269149 -1.5259 1.82533
52 -6.84059 -19.4303 -6.16595 -0.0432848 -0.0119356 -0.014359
53 0 -13.2809 3.88246 0 0 0
54 0 1.99361 -1.25282 0 0 0
55 0 -3.47495 0.52345 0 0 0
56 0 -0.251465 1.74774 0 0 0
57 0 2.34338 0 0 0 0
time 10
0 2.22996 0.924896 -8.5669 0.000934124 0 -1.48352
1 6.02794 0 0 -0.979085 0.151272 -0.302986
2 11.7344 0 0 -0.00140289 0 -0.492546
3 8.81138 -0.000449181 -0.000111818 -1.77386 0 0.000157705
4 5.77839 0.000286102 0 -1.18849 0 0.000100502
5 2.23164 -0.000329018 -0.00036335 -0.585374 0 0
6 11.4725 0 0 -1.77543 0.150103 0.0573697
7 0.615217 -0.993091 -0.810701 2.73639 0.138973 -0.259942
8 2.24752 0 0 0.0902367 0.0488275 0.217799
9 1.11936 0 0 0.143618 0.190558 -0.0248858
10 3.71348 -0.102641 0.10219 1.62323 0.613732 0.427234
11 1.72615 0 0 0.00705527 -0.00827834 -1.41781
12 1.21114 0 0 0.00811918 0.0120082 0.0613767
13 3.5992 -1.06012 0.0708885 1.53759 0.122863 0.416373
14 1.66069 0 0 -0.0542635 0.0547748 -1.00053
15 1.167 0 0 0.00293041 0.000285106 -1.04166
16 2.18853 0.501039 0.0576591 1.55856 0.16523 0.120989
17 1.29609 0 0 -0.132075 0.0965636 -0.752323
18 1.62202 0.000713348 -0.000472069 0.0295669 -0.0262704 -1.27144
19 1.22241 0 0 0.00408988 -0.00105422 0.15071
20 1.76707 1.27612 0.0366402 1.49753 0.495024 0.0595552
21 1.55588 0 0 -0.190038 -0.0396413 -0.918253
22 1.24274 0 0 -0.000478964 0.000361097 -0.663473
23 0.784527 0 0 0.0113799 0.00651387 0.248465
24 -10.4183 11.8378 -1.06464 -0.000932693 0 -2.00714
25 6.02794 0 0 0.807652 0.69075 0.309713
26 11.7344 0 0 0.00140281 0 1.12936
27 8.81167 0 0 0.439229 0 0
28 5.77884 0 0 0.294283 0 0
29 2.23249 0 0 0.144946 0 0
30 11.4725 0 0 0.697659 -0.101515 -0.863857
31 0.615813 0.994372 -0.809165 -2.97612 0.595303 0.240986
32 2.24752 0 0 -0.439682 0.14095 0.241995
33 1.11936 0 0 -0.0768327 0.184909 1.23966
34 3.71349 0.102639 0.102191 -1.85093 1.1698 -0.684738
35 1.72615 0 0 0.00173786 0.015606 1.23447
36 1.21112 0 0 -0.00755636 0.0282299 0.807687
37 3.5992 1.06012 0.070889 -1.6277 0.227533 -0.0640692
38 1.66069 0 0 0.00650425 0.077593 0.306618
39 1.16699 0 0 0.0412623 0.0180749 0.795629
40 2.18853 -0.50104 0.0576596 -1.56657 0.103413 -0.112923
41 1.29609 0 0 0.287253 0.173821 1.26583
42 1.62202 -0.000711441 -0.000471115 0.000354518 0.00050082 1.21018
43 1.22241 0 0 0.0296804 0.0210107 0.78408
44 1.76707 -1.27612 0.0366416 -1.55745 0.249311 -0.0923495
45 1.55588 0 0 0.413108 0.122566 1.18583
46 1.24273 0 0 0.000478974 0.000361023 0.778555
47 0.784532 0 0 -0.00994523 -0.0136728 0.810015
48 0 0 0 0 0 0
49 -7.0329 -8.98706 -13.3362 -0.282361 -1.53089 1.83966
50 -9.074 -8.95995 -13.3589 -0.282361 -1.53089 1.83966
51 -11.2607 -8.9309 -13.3832 -0.282361 -1.53089 1.83966
52 -6.84059 -19.7729 -6.18153 -0.0383267 -0.011116 -0.0132815
53 0 -13.2809 3.88246 0 0 0
54 0 1.9936 -1.25282 0 0 0
55 0 -3.47495 0.52345 0 0 0
56 0 -0.251465 1.74774 0 0 0
57 0 2.34338 0 0 0 0
time 11
0 2.22996 0.924896 -8.5669 0.000934124 0 -1.48352
1 6.02794 0 0 -0.981733 0.130927 -0.315656
2 11.7344 0 0 -0.00140291 0 -0.435906
3 8.81138 -0.000449181 -0.000112057 -1.77625 0 0.000157769
4 5.77839 0.000286102 0 -1.19009 0 0.000100389
5 2.23164 -0.000329018 -0.000364304 -0.586162 0 0
6 11.4725 0 0 -1.7783 0.152425 0.0311345
7 0.615219 -0.993091 -0.810701 2.73639 0.138973 -0.259942
8 2.24752 0 0 0.0902366 0.0488276 0.217799
9 1.11936 0 0 0.143618 0.190558 -0.0248855
10 3.71348 -0.10264 0.10219 1.62323 0.613732 0.427234
11 1.72615 0 0 0.00705539 -0.00827839 -1.41781
12 1.21114 0 0 0.00811915 0.0120081 0.0613766
13 3.59919 -1.06012 0.0708876 1.53759 0.122863 0.416373
14 1.66069 0 0 -0.0542636 0.054775 -1.00053
15 1.167 0 0 0.00293043 0.000285254 -1.04166
16 2.18852 0.50104 0.0576582 1.55856 0.16523 0.120989
17 1.29609 0 0 -0.132075 0.0965637 -0.752323
18 1.62202 0.000717163 -0.000472069 0.029567 -0.0262703 -1.27144
19 1.22241 0 0 0.00408975 -0.00105427 0.15071
20 1.76707 1.27612 0.0366402 1.49753 0.495024 0.0595551
21 1.55588 0 0 -0.190038 -0.0396414 -0.918253
22 1.24273 0 0 -0.000479049 0.000361068 -0.663473
23 0.784523 0 0 0.01138 0.00651391 0.248465
24 -10.4183 11.8378 -1.06464 -0.000932693 0 -2.00714
25 6.02794 0 0 0.822287 0.678468 0.321389
26 11.7344 0 0 0.00140273 0 1.10292
27 8.81167 0 0 0.442039 0 0
28 5.77884 0 0 0.296166 0 0
29 2.23249 0 0 0.145873 0 0
30 11.4725 0 0 0.689961 -0.0918441 -0.856561
31 0.615812 0.994372 -0.809165 -2.97612 0.595303 0.240986
32 2.24752 0 0 -0.439682 0.14095 0.241995
33 1.11936 0 0 -0.0768328 0.184909 1.23966
34 3.71349 0.102639 0.102191 -1.85093 1.1698 -0.684738
35 1.72615 0 0 0.00173776 0.0156061 1.23447
36 1.21112 0 0 -0.00755629 0.0282296 0.807688
37 3.5992 1.06012 0.0708876 -1.6277 0.227533 -0.0640692
38 1.66069 0 0 0.00650424 0.0775931 0.306618
39 1.16699 0 0 0.0412624 0.0180749 0.795629
40 2.18853 -0.50104 0.0576591 -1.56657 0.103413 -0.112923
41 1.29609 0 0 0.287253 0.173821 1.26583
42 1.62201 -0.000713348 -0.000470638 0.000354439 0.00050102 1.21018
43 1.22241 0 0 0.0296804 0.0210107 0.78408
44 1.76707 -1.27612 0.0366411 -1.55745 0.249311 -0.0923495
45 1.55587 0 0 0.413108 0.122566 1.18583
46 1.24273 0 0 0.000478955 0.000360966 0.778555
47 0.784532 0 0 -0.00994533 -0.0136728 0.810015
48 0 0 0 0 0 0
49 -7.06181 -9.11948 -13.2636 -0.324554 -1.53815 1.8841
50 -9.10298 -9.09684 -13.2848 -0.324554 -1.53815 1.8841
51 -11.2898 -9.07258 -13.3076 -0.324554 -1.53815 1.8841
52 -6.84059 -19.9575 -6.189 -0.0309433 -0.010409 -0.0110929
53 0 -13.2809 3.88246 0 0 0
54 0 1.99361 -1.25282 0 0 0
55 0 -3.47495 0.52345 0 0 0
56 0 -0.251465 1.74774 0 0 0
57 0 2.34338 0 0 0 0
time 12
0 2.22996 0.924896 -8.5669 0.000934124 0 -1.48352
1 6.02794 0 0 -0.982351 0.123718 -0.320507
2 11.7344 0 0 -0.00140271 0 -0.41199
3 8.81139 -0.000449181 -0.000112057 -1.77977 0 0.000157537
4 5.77839 0.000286102 0 -1.19244 0 0.000100263
5 2.23164 -0.000329971 -0.000363827 -0.587323 0 0
6 11.4725 0 0 -1.78197 0.153512 0.0233158
7 0.615221 -0.993092 -0.8107 2.73639 0.138972 -0.259942
8 2.24752 0 0 0.0902366 0.0488275 0.217799
9 1.11936 0 0 0.143618 0.190558 -0.0248858
10 3.71348 -0.102641 0.102191 1.62323 0.613732 0.427234
11 1.72615 0 0 0.00705518 -0.00827833 -1.41781
12 1.21114 0 0 0.00811932 0.0120082 0.0613767
13 3.59919 -1.06012 0.0708876 1.53759 0.122863 0.416373
14 1.66069 0 0 -0.0542637 0.0547748 -1.00053
15 1.167 0 0 0.0029303 0.000285246 -1.04166
16 2.18852 0.50104 0.0576582 1.55856 0.16523 0.120989
17 1.29609 0 0 -0.132075 0.0965638 -0.752323
18 1.62202 0.000713348 -0.000472069 0.0295671 -0.0262704 -1.27144
19 1.22241 0 0 0.00408978 -0.00105434 0.15071
20 1.76707 1.27612 0.0366402 1.49753 0.495024 0.0595551
21 1.55588 0 0 -0.190038 -0.0396415 -0.918253
22 1.24274 0 0 -0.000479012 0.000361143 -0.663473
23 0.784525 0 0 0.01138 0.00651397 0.248465
24 -10.4183 11.8378 -1.06464 -0.000932693 0 -2.00714
25 6.02794 0 0 0.8311 0.671859 0.326611
26 11.7344 0 0 0.00140267 0 1.09202
27 8.81167 0 0 0.441105 0 0
28 5.77884 0 0 0.29554 0 0
29 2.23249 0 0 0.145565 0 0
30 11.4725 0 0 0.683478 -0.0821234 -0.857989
31 0.615813 0.994371 -0.809165 -2.97612 0.595303 0.240986
32 2.24752 0 0 -0.439681 0.14095 0.241995
33 1.11936 0 0 -0.0768328 0.184909 1.23966
34 3.71348 0.102638 0.102191 -1.85093 1.1698 -0.684738
35 1.72615 0 0 0.00173773 0.0156061 1.23447
36 1.21112 0 0 -0.00755631 0.0282297 0.807688
37 3.5992 1.06012 0.0708876 -1.6277 0.227533 -0.064069
38 1.66069 0 0 0.00650424 0.0775931 0.306618
39 1.16699 0 0 0.0412624 0.0180749 0.795628
40 2.18853 -0.50104 0.0576591 -1.56657 0.103413 -0.112922
41 1.29609 0 0 0.287253 0.173821 1.26583
42 1.62202 -0.000713348 -0.000469208 0.000354472 0.000500924 1.21018
43 1.22241 0 0 0.0296804 0.0210107 0.78408
44 1.76707 -1.27612 0.0366411 -1.55745 0.249311 -0.0923493
45 1.55587 0 0 0.413108 0.122566 1.18583
46 1.24273 0 0 0.000478887 0.00036103 0.778555
47 0.784531 0 0 -0.0099452 -0.0136728 0.810015
48 0 0 0 0 0 0
49 -7.09728 -9.14689 -13.1747 -0.402566 -1.54624 1.96488
50 -9.13852 -9.1298 -13.1944 -0.402566 -1.54624 1.96488
51 -11.3254 -9.1115 -13.2154 -0.402566 -1.54624 1.96488
52 -6.84059 -20.0429 -6.19108 -0.0225957 -0.00962075 -0.00836991
53 0 -13.2809 3.88246 0 0 0
54 0 1.99361 -1.25282 0 0 0
55 0 -3.47495 0.52345 0 0 0
56 0 -0.251465 1.74774 0 0 0
57 0 2.34338 0 0 0 0
time 13
0 2.22996 0.924896 -8.5669 0.000934124 0 -1.48352
1 6.02794 0 0 -0.981405 0.128884 -0.317828
2 11.7344 0 0 -0.00140286 0 -0.419454
3 8.81138 -0.000449181 -0.000112534 -1.78389 0 0.00015801
4 5.77839 0.000287056 0 -1.19521 0 0.000100496
5 2.23164 -0.000329018 -0.000364304 -0.588685 0 0
6 11.4725 0 0 -1.78603 0.153469 0.0318744
7 0.615221 -0.993091 -0.8107 2.73639 0.138972 -0.259942
8 2.24752 0 0 0.0902366 0.0488275 0.217799
9 1.11936 0 0 0.143618 0.190558 -0.0248857
10 3.71348 -0.102641 0.10219 1.62323 0.613732 0.427234
11 1.72615 0 0 0.0070552 -0.00827816 -1.41781
12 1.21114 0 0 0.00811925 0.012008 0.0613767
13 3.59919 -1.06012 0.0708885 1.53759 0.122863 0.416373
14 1.66068 0 0 -0.0542637 0.0547748 -1.00053
15 1.167 0 0 0.00293024 0.000285349 -1.04166
16 2.18853 0.50104 0.0576582 1.55856 0.16523 0.120989
17 1.29609 0 0 -0.132075 0.0965637 -0.752323
18 1.62202 0.000715256 -0.000471115 0.0295669 -0.0262704 -1.27144
19 1.22241 0 0 0.00408986 -0.00105422 0.15071
20 1.76707 1.27612 0.0366402 1.49753 0.495024 0.0595551
21 1.55588 0 0 -0.190038 -0.0396416 -0.918253
22 1.24274 0 0 -0.000478973 0.000361031 -0.663473
23 0.784525 0 0 0.0113799 0.00651393 0.248465
24 -10.4183 11.8378 -1.06464 -0.000932693 0 -2.00714
25 6.02794 0 0 0.834917 0.670186 0.326831
26 11.7344 0 0 0.00140273 0 1.0935
27 8.81167 0 0 0.43741 0 0
28 5.77884 0 0 0.293065 0 0
29 2.23249 0 0 0.144345 0 0
30 11.4725 0 0 0.678383 -0.0738275 -0.865464
31 0.615812 0.994371 -0.809165 -2.97612 0.595303 0.240986
32 2.24752 0 0 -0.439682 0.14095 0.241995
33 1.11936 0 0 -0.0768329 0.184909 1.23966
34 3.71349 0.102638 0.102191 -1.85093 1.1698 -0.684738
35 1.72615 0 0 0.00173778 0.015606 1.23447
36 1.21112 0 0 -0.00755627 0.0282298 0.807687
37 3.5992 1.06012 0.0708876 -1.6277 0.227533 -0.0640691
38 1.66069 0 0 0.00650422 0.077593 0.306618
39 1.16699 0 0 0.0412623 0.0180749 0.795628
40 2.18853 -0.50104 0.0576591 -1.56657 0.103413 -0.112922
41 1.29609 0 0 0.287253 0.173821 1.26583
42 1.62201 -0.000713348 -0.000469208 0.000354532 0.000500892 1.21018
43 1.22241 0 0 0.0296805 0.0210106 0.78408
44 1.76707 -1.27612 0.0366402 -1.55745 0.249311 -0.0923494
45 1.55587 0 0 0.413108 0.122566 1.18583
46 1.24273 0 0 0.000479 0.000360944 0.778555
47 0.784532 0 0 -0.0099452 -0.0136729 0.810015
48 0 0 0 0 0 0
49 -7.13434 -9.09826 -13.0864 -0.525869 -1.55375 2.09091
50 -9.17564 -9.08664 -13.1039 -0.525869 -1.55375 2.09091
51 -11.3626 -9.0742 -13.1226 -0.525869 -1.55375 2.09091
52 -6.84059 -20.0481 -6.18888 -0.0147449 -0.00855727 -0.00568908
53 0 -13.2809 3.88246 0 0 0
54 0 1.99361 -1.25282 0 0 0
55 0 -3.47495 0.52345 0 0 0
56 0 -0.251465 1.74774 0 0 0
57 0 2.34338 0 0 0 0
time 14
0 2.22996 0.924896 -8.5669 0.000934124 0 -1.48352
1 6.02794 0 0 -0.979401 0.141794 -0.310384
2 11.7344 0 0 -0.00140276 0 -0.447711
3 8.81138 -0.000450134 -0.000111818 -1.78818 0 0.000157933
4 5.77839 0.000286102 0 -1.19808 0 0.000100601
5 2.23164 -0.000329971 -0.000363827 -0.590098 0 0
6 11.4725 0 0 -1.79002 0.152388 0.0501358
7 0.615219 -0.993091 -0.810701 2.73639 0.138973 -0.259942
8 2.24752 0 0 0.0902366 0.0488275 0.217799
9 1.11936 0 0 0.143618 0.190558 -0.0248857
10 3.71348 -0.102641 0.102192 1.62323 0.613732 0.427234
11 1.72615 0 0 0.00705536 -0.00827826 -1.41781
12 1.21114 0 0 0.00811921 0.0120083 0.0613767
13 3.59919 -1.06012 0.0708876 1.53759 0.122863 0.416373
14 1.66069 0 0 -0.0542636 0.0547748 -1.00053
15 1.167 0 0 0.00293035 0.000285276 -1.04166
16 2.18853 0.501039 0.0576591 1.55856 0.16523 0.120989
17 1.29609 0 0 -0.132075 0.0965635 -0.752323
18 1.62202 0.000713348 -0.000471115 0.029567 -0.0262703 -1.27144
19 1.22241 0 0 0.00408982 -0.00105422 0.15071
20 1.76707 1.27612 0.0366402 1.49753 0.495024 0.0595552
21 1.55588 0 0 -0.190038 -0.0396414 -0.918253
22 1.24274 0 0 -0.000478887 0.000360871 -0.663473
23 0.784525 0 0 0.0113801 0.00651409 0.248465
24 -10.4183 11.8378 -1.06464 -0.000932693 0 -2.00714
25 6.02794 0 0 0.834325 0.672565 0.323345
26 11.7344 0 0 0.00140261 0 1.10407
27 8.81167 0 0 0.431801 0 0
28 5.77884 0 0 0.289307 0 0
29 2.23249 0 0 0.142494 0 0
30 11.4725 0 0 0.674943 -0.0684368 -0.876204
31 0.615812 0.994372 -0.809165 -2.97612 0.595303 0.240986
32 2.24752 0 0 -0.439682 0.14095 0.241995
33 1.11936 0 0 -0.0768329 0.184909 1.23966
34 3.71349 0.102639 0.102191 -1.85093 1.1698 -0.684738
35 1.72615 0 0 0.0017377 0.0156061 1.23447
36 1.21112 0 0 -0.00755625 0.0282299 0.807688
37 3.5992 1.06012 0.0708885 -1.6277 0.227533 -0.0640691
38 1.66069 0 0 0.00650421 0.077593 0.306618
39 1.16699 0 0 0.0412622 0.0180748 0.795628
40 2.18853 -0.50104 0.0576591 -1.56657 0.103413 -0.112922
41 1.29609 0 0 0.287253 0.173821 1.26583
42 1.62201 -0.000713348 -0.000470161 0.000354558 0.000500865 1.21018
43 1.22241 0 0 0.0296803 0.0210108 0.78408
44 1.76707 -1.27612 0.0366421 -1.55745 0.249311 -0.0923494
45 1.55587 0 0 0.413108 0.122566 1.18583
46 1.24273 0 0 0.00047898 0.000361012 0.778555
47 0.784532 0 0 -0.00994537 -0.0136728 0.810015
48 0 0 0 0 0 0
49 -7.16779 -9.002 -13.0158 -0.670795 -1.5595 2.23793
50 -9.20914 -8.9946 -13.0302 -0.670795 -1.5595 2.23793
51 -11.3961 -8.98667 -13.0455 -0.670795 -1.5595 2.23793
52 -6.84059 -19.9917 -6.18346 -0.00885222 -0.00702466 -0.00362699
53 0 -13.2809 3.88246 0 0 0
54 0 1.99361 -1.25282 0 0 0
55 0 -3.47495 0.52345 0 0 0
56 0 -0.251467 1.74774 0 0 0
57 0 2.34338 0 0 0 0
time 15
0 2.22996 0.924896 -8.5669 0.000934124 0 -1.48352
1 6.02794 0 0 -0.976681 0.158294 -0.300743
2 11.7344 0 0 -0.00140279 0 -0.486394
3 8.81138 -0.000450134 -0.000112295 -1.79286 0 0.000158115
4 5.77839 0.000286102 0 -1.20122 0 0.000100559
5 2.23164 -0.000329018 -0.00036335 -0.591644 0 0
6 11.4725 0 0 -1.79421 0.150252 0.0725166
7 0.615221 -0.993091 -0.810701 2.73639 0.138972 -0.259942
8 2.24752 0 0 0.0902366 0.0488276 0.217799
9 1.11935 0 0 0.143618 0.190558 -0.0248855
10 3.71348 -0.102641 0.10219 1.62323 0.613732 0.427234
11 1.72615 0 0 0.00705522 -0.00827838 -1.41781
12 1.21114 0 0 0.00811933 0.0120081 0.0613767
13 3.5992 -1.06012 0.0708876 1.53759 0.122863 0.416373
14 1.66068 0 0 -0.0542637 0.0547749 -1.00053
15 1.167 0 0 0.00293035 0.000285209 -1.04166
16 2.18852 0.501039 0.0576591 1.55856 0.16523 0.120989
17 1.29609 0 0 -0.132075 0.0965635 -0.752323
18 1.62202 0.000715256 -0.000471115 0.0295669 -0.0262703 -1.27144
19 1.22241 0 0 0.00408966 -0.00105433 0.15071
20 1.76707 1.27612 0.0366402 1.49753 0.495024 0.0595552
21 1.55588 0 0 -0.190038 -0.0396414 -0.918253
22 1.24274 0 0 -0.00047901 0.000360955 -0.663473
23 0.784523 0 0 0.01138 0.00651385 0.248465
24 -10.4183 11.8378 -1.06464 -0.000932693 0 -2.00714
25 6.02794 0 0 0.830351 0.677907 0.317167
26 11.7344 0 0 0.00140267 0 1.12102
27 8.81167 0 0 0.424347 0 0
28 5.77884 0 0 0.284312 0 0
29 2.23249 0 0 0.140035 0 0
30 11.4725 0 0 0.672457 -0.0658062 -0.888868
31 0.615812 0.994372 -0.809165 -2.97612 0.595303 0.240986
32 2.24752 0 0 -0.439682 0.14095 0.241995
33 1.11936 0 0 -0.0768327 0.184909 1.23966
34 3.71348 0.10264 0.102191 -1.85093 1.1698 -0.684738
35 1.72615 0 0 0.00173777 0.0156061 1.23447
36 1.21112 0 0 -0.00755633 0.0282297 0.807688
37 3.5992 1.06012 0.0708885 -1.6277 0.227533 -0.064069
38 1.66069 0 0 0.00650423 0.077593 0.306618
39 1.16699 0 0 0.0412624 0.0180749 0.795629
40 2.18853 -0.50104 0.0576601 -1.56657 0.103413 -0.112922
41 1.29609 0 0 0.287253 0.173821 1.26583
42 1.62201 -0.000713348 -0.000470161 0.000354573 0.000500991 1.21018
43 1.2224 0 0 0.0296804 0.0210107 0.78408
44 1.76707 -1.27612 0.0366411 -1.55745 0.249311 -0.0923493
45 1.55587 0 0 0.413108 0.122566 1.18583
46 1.24273 0 0 0.000478933 0.000360995 0.778555
47 0.784533 0 0 -0.00994528 -0.0136728 0.810015
48 0 0 0 0 0 0
49 -7.20064 -8.87649 -12.9641 -0.757376 -1.56403 2.32603
50 -9.24203 -8.87214 -12.9736 -0.757376 -1.56403 2.32603
51 -11.429 -8.86749 -12.9837 -0.757376 -1.56403 2.32603
52 -6.84059 -19.8925 -6.17591 -0.00491766 -0.00464945 -0.00212742
53 0 -13.2809 3.88246 0 0 0
54 0 1.99361 -1.25282 0 0 0
55 0 -3.47495 0.52345 0 0 0
56 0 -0.251465 1.74774 0 0 0
57 0 2.34337 0 0 0 0
time 16
0 2.22996 0.924896 -8.5669 0.000934124 0 -1.48352
1 6.02794 0 0 -0.973471 0.176151 -0.290228
2 11.7344 0 0 -0.0014029 0 -0.529346
3 8.81138 -0.000452042 -0.000112057 -1.79776 0 0.0001582
4 5.77839 0.000284195 0 -1.2045 0 0.000100555
5 2.23164 -0.000331879 -0.000364304 -0.593262 0 0
6 11.4725 0 0 -1.79842 0.147554 0.0965694
7 0.615221 -0.993092 -0.810699 2.73639 0.138972 -0.259942
8 2.24752 0 0 0.0902366 0.0488275 0.217799
9 1.11936 0 0 0.143618 0.190558 -0.0248857
10 3.71348 -0.102643 0.102192 1.62323 0.613732 0.427234
11 1.72615 0 0 0.00705531 -0.0082783 -1.41781
12 1.21114 0 0 0.00811917 0.0120081 0.0613765
13 3.59919 -1.06012 0.0708885 1.53759 0.122863 0.416373
14 1.66069 0 0 -0.0542636 0.0547748 -1.00053
15 1.167 0 0 0.00293024 0.000285283 -1.04166
16 2.18852 0.501039 0.0576591 1.55856 0.16523 0.120989
17 1.29609 0 0 -0.132075 0.0965636 -0.752323
18 1.62202 0.000715256 -0.000471115 0.0295668 -0.0262705 -1.27144
19 1.22241 0 0 0.00408983 -0.00105416 0.15071
20 1.76707 1.27612 0.0366421 1.49753 0.495024 0.0595551
21 1.55588 0 0 -0.190038 -0.0396413 -0.918253
22 1.24274 0 0 -0.000478943 0.000360852 -0.663473
23 0.784525 0 0 0.0113801 0.00651403 0.248465
24 -10.4183 11.8378 -1.06464 -0.000932693 0 -2.00714
25 6.02794 0 0 0.824709 0.684497 0.309825
26 11.7344 0 0 0.00140264 0 1.14055
27 8.81167 0 0 0.41622 0 0
28 5.77884 0 0 0.278868 0 0
29 2.23249 0 0 0.137353 0 0
30 11.4725 0 0 0.67056 -0.0645242 -0.902113
31 0.615812 0.994372 -0.809165 -2.97612 0.595303 0.240986
32 2.24752 0 0 -0.439682 0.14095 0.241995
33 1.11936 0 0 -0.0768329 0.184909 1.23966
34 3.71349 0.102639 0.102192 -1.85093 1.1698 -0.684738
35 1.72615 0 0 0.00173776 0.0156059 1.23447
36 1.21112 0 0 -0.00755618 0.0282297 0.807688
37 3.5992 1.06012 0.0708885 -1.6277 0.227533 -0.064069
38 1.66069 0 0 0.00650421 0.0775931 0.306618
39 1.16699 0 0 0.0412624 0.0180749 0.795628
40 2.18853 -0.50104 0.0576601 -1.56657 0.103413 -0.112922
41 1.29609 0 0 0.287253 0.173821 1.26583
42 1.62202 -0.000713348 -0.000471115 0.000354475 0.000500968 1.21018
43 1.22241 0 0 0.0296804 0.0210107 0.78408
44 1.76707 -1.27612 0.0366421 -1.55745 0.249311 -0.0923493
45 1.55587 0 0 0.413108 0.122566 1.18583
46 1.24273 0 0 0.000478964 0.000360954 0.778555
47 0.784532 0 0 -0.00994518 -0.0136729 0.810015
48 0 0 0 0 0 0
49 -7.23306 -8.73372 -12.9219 -0.777003 -1.56804 2.34692
50 -9.27446 -8.73196 -12.9258 -0.777003 -1.56804 2.34692
51 -11.4615 -8.73008 -12.9301 -0.777003 -1.56804 2.34692
52 -6.84059 -19.7693 -6.16731 -0.00196704 -0.00193438 -0.000862213
53 0 -13.2809 3.88246 0 0 0
54 0 1.99361 -1.25282 0 0 0
55 0 -3.47495 0.52345 0 0 0
56 0 -0.251467 1.74774 0 0 0
57 0 2.34338 0 0 0 0
time 17
0 2.22996 0.924896 -8.5669 0.000934124 0 -1.48352
1 6.02794 0 0 -0.970301 0.192323 -0.280652
2 11.7344 0 0 -0.00140283 0 -0.56912
3 8.81138 -0.000448227 -0.000112295 -1.80167 0 0.000157566
4 5.77839 0.000286102 0 -1.20712 0 0.000100232
5 2.23164 -0.000328064 -0.000364304 -0.594552 0 0
6 11.4725 0 0 -1.80156 0.145147 0.11874
7 0.615217 -0.993091 -0.8107 2.73639 0.138973 -0.259942
8 2.24752 0 0 0.0902366 0.0488276 0.217799
9 1.11936 0 0 0.143618 0.190558 -0.0248857
10 3.71348 -0.102642 0.102192 1.62323 0.613732 0.427234
11 1.72615 0 0 0.00705526 -0.00827842 -1.41781
12 1.21114 0 0 0.00811923 0.0120082 0.0613768
13 3.59919 -1.06012 0.0708885 1.53759 0.122863 0.416373
14 1.66068 0 0 -0.0542637 0.0547747 -1.00053
15 1.167 0 0 0.00293014 0.00028529 -1.04166
16 2.18852 0.50104 0.0576591 1.55856 0.16523 0.120989
17 1.29609 0 0 -0.132075 0.0965635 -0.752323
18 1.62202 0.000715256 -0.000469208 0.029567 -0.0262704 -1.27144
19 1.22241 0 0 0.00408968 -0.00105439 0.15071
20 1.76707 1.27612 0.0366411 1.49753 0.495024 0.0595551
21 1.55588 0 0 -0.190038 -0.0396413 -0.918253
22 1.24274 0 0 -0.000479019 0.000360889 -0.663473
23 0.784523 0 0 0.01138 0.00651392 0.248465
24 -10.4183 11.8378 -1.06464 -0.000932693 0 -2.00714
25 6.02794 0 0 0.818226 0.691418 0.302206
26 11.7344 0 0 0.00140279 0 1.16025
27 8.81167 0 0 0.409145 0 0
28 5.77884 0 0 0.274127 0 0
29 2.23249 0 0 0.135018 0 0
30 11.4725 0 0 0.670062 -0.0641705 -0.914426
31 0.615812 0.994372 -0.809165 -2.97612 0.595303 0.240986
32 2.24752 0 0 -0.439681 0.14095 0.241995
33 1.11936 0 0 -0.0768328 0.184909 1.23966
34 3.71349 0.102639 0.102191 -1.85093 1.1698 -0.684738
35 1.72615 0 0 0.00173779 0.0156061 1.23447
36 1.21112 0 0 -0.00755629 0.0282298 0.807687
37 3.5992 1.06012 0.0708876 -1.6277 0.227533 -0.0640692
38 1.66069 0 0 0.00650421 0.077593 0.306618
39 1.16699 0 0 0.0412623 0.0180749 0.795628
40 2.18853 -0.50104 0.0576591 -1.56657 0.103413 -0.112923
41 1.29609 0 0 0.287253 0.173821 1.26583
42 1.62202 -0.000713348 -0.000469208 0.000354437 0.000501057 1.21018
43 1.22241 0 0 0.0296804 0.0210106 0.78408
44 1.76707 -1.27612 0.0366411 -1.55745 0.249311 -0.0923495
45 1.55588 0 0 0.413108 0.122566 1.18583
46 1.24273 0 0 0.000478988 0.000361013 0.778555
47 0.784531 0 0 -0.00994521 -0.0136728 0.810015
48 0 0 0 0 0 0
49 -7.25564 -8.5923 -12.8908 1.5708 -1.5708 0
50 -9.29704 -8.5923 -12.8908 1.5708 -1.5708 0
51 -11.4841 -8.5923 -12.8908 1.5708 -1.5708 0
52 -6.84059 -19.6407 -6.15873 0 0 0
53 0 -13.2809 3.88246 0 0 0
54 0 1.99361 -1.25282 0 0 0
55 0 -3.47495 0.52345 0 0 0
56 0 -0.251465 1.74774 0 0 0
57 0 2.34338 0 0 0 0
time 18
0 2.22996 0.924896 -8.5669 0.000934124 0 -1.48352
1 6.02794 0 0 -0.967652 0.205196 -0.272901
2 11.7344 0 0 -0.0014028 0 -0.601824
3 8.81138 -0.000450134 -0.000112295 -1.80364 0 0.000157562
4 5.77839 0.000286102 0 -1.20844 0 0.000100154
5 2.23164 -0.000329971 -0.00036335 -0.595201 0 0
6 11.4725 0 0 -1.80282 0.143587 0.136875
7 0.615217 -0.99309 -0.810701 2.73639 0.138973 -0.259942
8 2.24752 0 0 0.0902366 0.0488276 0.217799
9 1.11936 0 0 0.143618 0.190558 -0.0248856
10 3.71348 -0.10264 0.10219 1.62323 0.613732 0.427234
11 1.72615 0 0 0.00705543 -0.00827835 -1.41781
12 1.21113 0 0 0.00811915 0.0120081 0.0613767
13 3.59919 -1.06012 0.0708885 1.53759 0.122863 0.416373
14 1.66069 0 0 -0.0542636 0.054775 -1.00053
15 1.167 0 0 0.00293035 0.000285209 -1.04166
16 2.18852 0.50104 0.0576591 1.55856 0.16523 0.120989
17 1.29609 0 0 -0.132075 0.096564 -0.752323
18 1.62202 0.000715256 -0.000471115 0.0295671 -0.0262706 -1.27144
19 1.22241 0 0 0.00408967 -0.00105415 0.15071
20 1.76707 1.27612 0.0366402 1.49753 0.495024 0.0595551
21 1.55588 0 0 -0.190038 -0.0396415 -0.918253
22 1.24274 0 0 -0.000479077 0.000361058 -0.663473
23 0.784523 0 0 0.0113801 0.00651402 0.248465
24 -10.4183 11.8378 -1.06464 -0.000932693 0 -2.00714
25 6.02794 0 0 0.811625 0.697892 0.295143
26 11.7344 0 0 0.0014028 0 1.17781
27 8.81167 0 0 0.40437 0 0
28 5.77884 0 0 0.270928 0 0
29 2.23249 0 0 0.133442 0 0
30 11.4725 0 0 0.671417 -0.0647563 -0.924188
31 0.615813 0.994372 -0.809165 -2.97612 0.595303 0.240986
32 2.24752 0 0 -0.439682 0.14095 0.241995
33 1.11936 0 0 -0.0768327 0.184909 1.23966
34 3.71349 0.102639 0.102192 -1.85093 1.1698 -0.684738
35 1.72615 0 0 0.00173777 0.0156061 1.23447
36 1.21112 0 0 -0.00755622 0.0282297 0.807688
37 3.5992 1.06012 0.0708895 -1.6277 0.227533 -0.0640692
38 1.66069 0 0 0.00650428 0.077593 0.306618
39 1.16699 0 0 0.0412623 0.0180749 0.795629
40 2.18853 -0.50104 0.0576591 -1.56657 0.103413 -0.112923
41 1.29609 0 0 0.287253 0.173821 1.26583
42 1.62201 -0.000713348 -0.000469685 0.000354445 0.000501016 1.21018
43 1.22241 0 0 0.0296804 0.0210108 0.78408
44 1.76707 -1.27612 0.0366421 -1.55745 0.249311 -0.0923493
45 1.55588 0 0 0.413108 0.122566 1.18583
46 1.24273 0 0 0.000478864 0.000360955 0.778555
47 0.784532 0 0 -0.00994517 -0.0136729 0.810015
48 0 0 0 0 0 0
49 -7.26211 -8.47298 -12.8759 2.47041 -1.56996 -0.899257
50 -9.30351 -8.47353 -12.8748 2.47041 -1.56996 -0.899257
51 -11.4905 -8.47412 -12.8737 2.47041 -1.56996 -0.899257
52 -6.84059 -19.5257 -6.15127 0.00065572 0.000520507 0.000268666
53 0 -13.2809 3.88246 0 0 0
54 0 1.99361 -1.25282 0 0 0
55 0 -3.47495 0.52345 0 0 0
56 0 -0.251465 1.74774 0 0 0
57 0 2.34338 0 0 0 0
time 19
0 2.22996 0.924896 -8.5669 0.000934124 0 -1.48352
1 6.02794 0 0 -0.965891 0.213532 -0.267796
2 11.7344 0 0 -0.00140297 0 -0.62377
3 8.81138 -0.000448227 -0.00011301 -1.80414 0 0.000157733
4 5.77839 0.000286102 0 -1.20877 0 0.000100315
5 2.23164 -0.000328064 -0.000364304 -0.595365 0 0
6 11.4725 0 0 -1.80282 0.142757 0.14886
7 0.615219 -0.993091 -0.8107 2.73639 0.138973 -0.259942
8 2.24752 0 0 0.0902366 0.0488276 0.217799
9 1.11936 0 0 0.143618 0.190558 -0.0248858
10 3.71348 -0.102642 0.102192 1.62323 0.613732 0.427234
11 1.72615 0 0 0.00705527 -0.00827825 -1.41781
12 1.21114 0 0 0.00811913 0.012008 0.0613767
13 3.59919 -1.06012 0.0708885 1.53759 0.122863 0.416373
14 1.66069 0 0 -0.0542637 0.0547749 -1.00053
15 1.167 0 0 0.00293036 0.000285209 -1.04166
16 2.18852 0.50104 0.0576591 1.55856 0.16523 0.120989
17 1.29609 0 0 -0.132075 0.0965638 -0.752323
18 1.62202 0.000713348 -0.000470161 0.0295669 -0.0262704 -1.27144
19 1.22241 0 0 0.00408989 -0.00105441 0.15071
20 1.76707 1.27612 0.0366411 1.49753 0.495024 0.059555
21 1.55588 0 0 -0.190038 -0.0396414 -0.918253
22 1.24274 0 0 -0.000479029 0.000361011 -0.663473
23 0.784523 0 0 0.01138 0.0065141 0.248465
24 -10.4183 11.8378 -1.06464 -0.000932693 0 -2.00714
25 6.02794 0 0 0.806455 0.702577 0.290095
26 11.7344 0 0 0.0014027 0 1.18994
27 8.81167 0 0 0.401922 0 0
28 5.77884 0 0 0.269288 0 0
29 2.23249 0 0 0.132634 0 0
30 11.4725 0 0 0.673446 -0.0658802 -0.930119
31 0.615813 0.994372 -0.809164 -2.97612 0.595303 0.240986
32 2.24752 0 0 -0.439682 0.14095 0.241995
33 1.11936 0 0 -0.0768327 0.184909 1.23966
34 3.71349 0.102639 0.102192 -1.85093 1.1698 -0.684738
35 1.72615 0 0 0.0017378 0.015606 1.23447
36 1.21112 0 0 -0.00755627 0.0282298 0.807688
37 3.5992 1.06012 0.0708885 -1.6277 0.227533 -0.0640692
38 1.66069 0 0 0.00650421 0.0775931 0.306618
39 1.16699 0 0 0.0412623 0.0180749 0.795628
40 2.18853 -0.50104 0.0576601 -1.56657 0.103413 -0.112922
41 1.29609 0 0 0.287253 0.173821 1.26583
42 1.62202 -0.000711441 -0.000469685 0.000354477 0.00050093 1.21018
43 1.2224 0 0 0.0296804 0.0210106 0.78408
44 1.76707 -1.27612 0.0366421 -1.55745 0.249311 -0.0923493
45 1.55588 0 0 0.413108 0.122566 1.18583
46 1.24273 0 0 0.00047907 0.000360907 0.778555
47 0.784532 0 0 -0.00994524 -0.0136728 0.810015
48 0 0 0 0 0 0
49 -7.25887 -8.39236 -12.8743 2.47024 -1.57038 -0.899302
50 -9.30028 -8.39263 -12.8738 2.47024 -1.57038 -0.899302
51 -11.4873 -8.39293 -12.8732 2.47024 -1.57038 -0.899302
52 -6.84059 -19.443 -6.146 0.00032786 0.000260329 0.000134333
53 0 -13.2809 3.88246 0 0 0
54 0 1.99361 -1.25282 0 0 0
55 0 -3.47495 0.523449 0 0 0
56 0 -0.251465 1.74774 0 0 0
57 0 2.34338 0 0 0 0
time 20
0 2.22996 0.924896 -8.5669 0.000934124 0 -1.48352
1 6.02794 0 0 -0.965266 0.216456 -0.265989
2 11.7344 0 0 -0.0014029 0 -0.631686
3 8.81139 -0.000448227 -0.00011158 -1.80409 0 0.000157589
4 5.77839 0.00028801 0 -1.20874 0 0.000100243
5 2.23164 -0.000329971 -0.000363827 -0.595349 0 0
6 11.4725 0 0 -1.80258 0.142514 0.153136
7 0.615217 -0.993091 -0.810701 2.73639 0.138972 -0.259942
8 2.24752 0 0 0.0902366 0.0488276 0.217799
9 1.11936 0 0 0.143618 0.190558 -0.0248856
10 3.71348 -0.10264 0.102191 1.62323 0.613732 0.427234
11 1.72615 0 0 0.00705547 -0.00827848 -1.41781
12 1.21114 0 0 0.0081192 0.0120081 0.0613767
13 3.59919 -1.06012 0.0708876 1.53759 0.122863 0.416373
14 1.66069 0 0 -0.0542636 0.0547749 -1.00053
15 1.167 0 0 0.0029303 0.000285313 -1.04166
16 2.18852 0.50104 0.0576582 1.55856 0.16523 0.120989
17 1.29609 0 0 -0.132075 0.0965636 -0.752323
18 1.62202 0.000717163 -0.000469208 0.0295669 -0.0262706 -1.27144
19 1.22241 0 0 0.00408984 -0.0010541 0.15071
20 1.76707 1.27612 0.0366411 1.49753 0.495024 0.0595551
21 1.55588 0 0 -0.190038 -0.0396414 -0.918253
22 1.24274 0 0 -0.000478971 0.000360842 -0.663473
23 0.784523 0 0 0.01138 0.00651398 0.248465
24 -10.4183 11.8378 -1.06464 -0.000932693 0 -2.00714
25 6.02794 0 0 0.804351 0.704397 0.288146
26 11.7344 0 0 0.00140275 0 1.19451
27 8.81167 0 0 0.401221 0 0
28 5.77884 0 0 0.268818 0 0
29 2.23249 0 0 0.132403 0 0
30 11.4725 0 0 0.674492 -0.0664903 -0.932143
31 0.615811 0.994372 -0.809165 -2.97612 0.595303 0.240986
32 2.24752 0 0 -0.439682 0.14095 0.241995
33 1.11936 0 0 -0.0768327 0.184909 1.23966
34 3.71348 0.102638 0.102191 -1.85093 1.1698 -0.684738
35 1.72615 0 0 0.00173791 0.015606 1.23447
36 1.21112 0 0 -0.00755632 0.0282298 0.807688
37 3.5992 1.06012 0.0708885 -1.6277 0.227533 -0.0640692
38 1.66069 0 0 0.00650421 0.077593 0.306618
39 1.16699 0 0 0.0412623 0.0180749 0.795628
40 2.18853 -0.50104 0.0576601 -1.56657 0.103413 -0.112922
41 1.29609 0 0 0.287253 0.173821 1.26583
42 1.62202 -0.000711441 -0.000469208 0.000354461 0.00050096 1.21018
43 1.2224 0 0 0.0296804 0.0210108 0.78408
44 1.76707 -1.27612 0.0366421 -1.55745 0.249311 -0.0923493
45 1.55588 0 0 0.413108 0.122566 1.18583
46 1.24273 0 0 0.00047902 0.000360952 0.778555
47 0.784533 0 0 -0.00994519 -0.0136727 0.810015
48 0 0 0 0 0 0
49 -7.25564 -8.36275 -12.8761 1.5708 -1.5708 0
50 -9.29704 -8.36275 -12.8761 1.5708 -1.5708 0
51 -11.4841 -8.36275 -12.8761 1.5708 -1.5708 0
52 -6.84059 -19.4112 -6.14401 0 0 0
53 0 -13.2809 3.88246 0 0 0
54 0 1.99361 -1.25282 0 0 0
55 0 -3.47495 0.52345 0 0 0
56 0 -0.251465 1.74774 0 0 0
57 0 2.34338 0 0 0 0
end
