//Sequence File generated by the Wall Worm SMD Exporter PRO 1.99
//www.wallworm.com
version 1
nodes
0 "b_l_clav" -1
1 "b_l_upperarm" 0
2 "b_l_forearm" 1
3 "b_l_twist3" 2
4 "b_l_twist2" 2
5 "b_l_twist1" 2
6 "b_l_hand" 2
7 "b_l_thumb001" 6
8 "b_l_thumb002" 7
9 "b_l_thumb003" 8
10 "b_l_middle001" 6
11 "b_l_middle002" 10
12 "b_l_middle003" 11
13 "b_l_index001" 6
14 "b_l_index002" 13
15 "b_l_index003" 14
16 "b_l_hand_ringsqueezer" 6
17 "b_l_ring001" 16
18 "b_l_ring002" 17
19 "b_l_ring003" 18
20 "b_l_hand_pinkysqueezer" 6
21 "b_l_pinky001" 20
22 "b_l_pinky002" 21
23 "b_l_pinky003" 22
24 "b_r_clav" -1
25 "b_r_upperarm" 24
26 "b_r_forearm" 25
27 "b_r_twist3" 26
28 "b_r_twist2" 26
29 "b_r_twist1" 26
30 "b_r_hand" 26
31 "b_r_thumb001" 30
32 "b_r_thumb002" 31
33 "b_r_thumb003" 32
34 "b_r_middle001" 30
35 "b_r_middle002" 34
36 "b_r_middle003" 35
37 "b_r_index001" 30
38 "b_r_index002" 37
39 "b_r_index003" 38
40 "b_r_hand_ringsqueezer" 30
41 "b_r_ring001" 40
42 "b_r_ring002" 41
43 "b_r_ring003" 42
44 "b_r_hand_pinkysqueezer" 30
45 "b_r_pinky001" 44
46 "b_r_pinky002" 45
47 "b_r_pinky003" 46
48 "b_zero" -1
49 "d_wepinbone" -1
50 "glock_materials" -1
end
skeleton
time 0
0 1.938 -14.0811 -14.7007 0 0 -0.814469
1 6.02794 0 0 1.23402 1.17703 -1.57203
2 11.7344 0 0 -0.00140287 0 -2.04918
3 8.81138 -0.000450134 -0.000112534 2.49695 0 0.000157047
4 5.77839 0.000286102 0 1.67296 0 0.00012581
5 2.23163 -0.000329971 -0.000364304 0.823995 0 0
6 11.4725 0 0 2.33339 -0.459989 0.535626
7 0.615218 -0.993093 -0.8107 2.92227 0.454999 -0.33141
8 2.24752 0 0 0.0643997 0.0920015 -0.24525
9 1.11936 0 0 0.012409 0.0391455 -1.16006
10 3.71348 -0.102642 0.102191 1.44559 1.26927 -0.122846
11 1.72615 0 0 -0.0132949 0.00454348 -1.35296
12 1.21114 0 0 -0.0138876 0.0108708 -1.50415
13 3.59919 -1.06012 0.0708885 1.59719 1.13552 0.084462
14 1.66069 0 0 0.0206526 0.106434 -1.46129
15 1.167 0 0 0.140204 0.107864 -1.2636
16 2.18852 0.501038 0.0576601 1.58026 0.110062 0.0312637
17 1.29609 0 0 -0.0214549 0.0115006 -1.06235
18 1.62202 0.000714302 -0.000471115 -0.0075699 0.00444243 -1.4728
19 1.22241 0 0 -0.0469828 -0.00376785 -1.43289
20 1.76707 1.27612 0.0366411 1.57845 0.182304 -0.021451
21 1.55588 0 0 -0.155246 -0.0035503 -0.857709
22 1.24274 0 0 -0.00050523 -0.000323034 -1.24825
23 0.784523 0 0 0.00822033 0.0140817 -0.754785
24 -1.93761 -9.15696 -17.5886 -0.000932534 0 -2.53187
25 6.02794 0 0 0.794951 1.14264 2.02023
26 11.7344 0 0 0.0014027 0 1.25706
27 8.81167 0 0 1.65696 0 0
28 5.77884 0 0 1.11016 0 0
29 2.23249 0 0 0.546797 0 0
30 11.4725 0 0 1.70775 1.32914 -1.04963
31 0.615813 0.994373 -0.809165 -2.72226 0.463503 0.286233
32 2.24752 0 0 -0.083597 0.0959306 0.272288
33 1.11936 0 0 -0.401236 0.450129 0.842933
34 3.71349 0.102638 0.102191 -1.41386 1.26431 0.0816939
35 1.72615 0 0 0.00069847 0.000241803 1.34896
36 1.21112 0 0 0.0115403 0.0133366 1.31081
37 3.5992 1.06012 0.070888 -1.68043 1.04215 -0.112109
38 1.66069 0 0 0.00620713 0.00200646 1.47997
39 1.16699 0 0 -0.0701394 0.164234 1.21657
40 2.18853 -0.501041 0.0576591 -1.57605 0.00117805 -0.0469346
41 1.29609 0 0 -0.0326375 -0.0616158 1.17811
42 1.62202 -0.000713348 -0.000471115 -0.00508033 -0.00330961 1.42626
43 1.2224 0 0 0.0247019 -0.0856984 1.42308
44 1.76707 -1.27612 0.0366411 -1.56655 0.103701 0.0275537
45 1.55587 0 0 0.103891 -0.0756531 0.975564
46 1.24273 0 0 -0.00469959 -0.0380689 1.28397
47 0.784531 0 0 -0.0127429 -0.0577753 1.00048
48 0 0 0 0 0 0
49 10.767 -9.79102 -31.735 2.81432 -0.455749 0.379878
50 -0.49446 -2.33627 -0.838784 0 0 0
time 1
0 1.938 -14.3785 -15.2146 0 0 -0.814469
1 6.02794 0 0 1.5117 1.47594 -1.00794
2 11.7344 0 0 -0.00140265 0 -1.84319
3 8.81138 -0.000448227 -0.00011158 2.69934 0 0.00015733
4 5.77839 0.000286102 0 1.80856 0 0.000128978
5 2.23163 -0.000328064 -0.00036335 0.890781 0 0
6 11.4725 0 0 2.5507 -0.200795 0.557115
7 0.61522 -0.993092 -0.810699 2.92227 0.454999 -0.331411
8 2.24752 0 0 0.0643999 0.0920016 -0.24525
9 1.11936 0 0 0.012409 0.0391456 -1.16006
10 3.71348 -0.10264 0.10219 1.44559 1.26927 -0.122846
11 1.72615 0 0 -0.0132947 0.00454362 -1.35296
12 1.21114 0 0 -0.0138877 0.0108708 -1.50415
13 3.59919 -1.06012 0.0708876 1.59719 1.13552 0.0844618
14 1.66069 0 0 0.0206526 0.106434 -1.46129
15 1.167 0 0 0.140204 0.107864 -1.2636
16 2.18852 0.50104 0.0576591 1.58026 0.110062 0.0312636
17 1.29609 0 0 -0.0214548 0.0115007 -1.06235
18 1.62202 0.000714064 -0.000473022 -0.00757007 0.00444262 -1.4728
19 1.22241 0 0 -0.046983 -0.00376773 -1.43289
20 1.76707 1.27612 0.0366406 1.57845 0.182304 -0.0214511
21 1.55588 0 0 -0.155246 -0.00355034 -0.857709
22 1.24273 0 0 -0.000505198 -0.000322977 -1.24825
23 0.784523 0 0 0.00822034 0.0140817 -0.754785
24 -1.93761 -8.56021 -18.547 -0.000932534 0 -2.53187
25 6.02794 0 0 1.02118 1.20524 2.2829
26 11.7344 0 0 0.00140276 0 1.32496
27 8.81167 0 0 1.66086 0 0
28 5.77884 0 0 1.11278 0 0
29 2.23249 0 0 0.548085 0 0
30 11.4725 0 0 1.64107 1.16091 -1.19116
31 0.615812 0.994371 -0.809165 -2.72226 0.463503 0.286233
32 2.24752 0 0 -0.083597 0.0959306 0.272288
33 1.11936 0 0 -0.401235 0.450129 0.842934
34 3.71349 0.102638 0.102191 -1.41386 1.26431 0.081694
35 1.72615 0 0 0.00069846 0.000241887 1.34896
36 1.21112 0 0 0.0115402 0.0133365 1.31081
37 3.5992 1.06012 0.0708876 -1.68043 1.04215 -0.112109
38 1.66069 0 0 0.00620716 0.00200639 1.47997
39 1.16699 0 0 -0.0701392 0.164234 1.21657
40 2.18853 -0.501041 0.0576591 -1.57605 0.00117813 -0.0469344
41 1.29609 0 0 -0.0326375 -0.0616159 1.17811
42 1.62201 -0.000713348 -0.000473022 -0.00508038 -0.00330946 1.42626
43 1.22241 0 0 0.0247019 -0.0856984 1.42308
44 1.76707 -1.27612 0.0366402 -1.56655 0.103701 0.0275537
45 1.55588 0 0 0.103891 -0.075653 0.975564
46 1.24273 0 0 -0.00469961 -0.0380689 1.28397
47 0.784532 0 0 -0.0127428 -0.0577752 1.00048
48 0 0 0 0 0 0
49 10.447 -7.29943 -32.2945 2.75684 -0.453002 0.398717
50 -0.49446 -2.33627 -0.838784 0 0 0
time 2
0 1.938 -14.6544 -15.6234 0 0 -0.814469
1 6.02794 0 0 -2.19882 1.41363 1.76085
2 11.7344 0 0 -0.00140296 0 -1.67091
3 8.81138 -0.000448227 -0.00011158 2.79417 0 0.00015815
4 5.77839 0.000286102 0 1.8721 0 0.000130969
5 2.23163 -0.000328064 -0.000364304 0.922077 0 0
6 11.4725 0 0 2.6871 -0.015778 0.704653
7 0.615219 -0.993092 -0.810699 2.92227 0.454998 -0.331411
8 2.24752 0 0 0.0644 0.0920014 -0.24525
9 1.11936 0 0 0.0124089 0.0391453 -1.16006
10 3.71348 -0.102642 0.102191 1.44559 1.26927 -0.122845
11 1.72615 0 0 -0.0132949 0.00454367 -1.35296
12 1.21114 0 0 -0.0138877 0.010871 -1.50415
13 3.59919 -1.06012 0.0708876 1.59719 1.13552 0.0844627
14 1.66069 0 0 0.0206526 0.106434 -1.46129
15 1.167 0 0 0.140204 0.107864 -1.2636
16 2.18852 0.501038 0.0576601 1.58026 0.110062 0.0312636
17 1.29609 0 0 -0.0214549 0.0115005 -1.06235
18 1.62202 0.000714302 -0.000471115 -0.00756994 0.00444248 -1.4728
19 1.22241 0 0 -0.0469829 -0.00376772 -1.43289
20 1.76707 1.27612 0.0366421 1.57845 0.182304 -0.0214511
21 1.55588 0 0 -0.155245 -0.00355045 -0.857709
22 1.24273 0 0 -0.000505321 -0.000322959 -1.24825
23 0.784523 0 0 0.00822034 0.0140818 -0.754785
24 -1.93761 -7.97202 -19.154 -0.000932534 0 -2.53187
25 6.02794 0 0 1.16624 1.26913 2.4651
26 11.7344 0 0 0.00140266 0 1.46993
27 8.81167 0 0 1.7736 0 0
28 5.77884 0 0 1.18831 0 0
29 2.23249 0 0 0.585286 0 0
30 11.4725 0 0 1.64448 0.956427 -1.30248
31 0.615811 0.994371 -0.809165 -2.72226 0.463503 0.286233
32 2.24752 0 0 -0.0835969 0.0959307 0.272288
33 1.11936 0 0 -0.401235 0.450129 0.842933
34 3.71348 0.102638 0.102191 -1.41386 1.26431 0.0816934
35 1.72615 0 0 0.000698393 0.000241826 1.34896
36 1.21112 0 0 0.0115402 0.0133366 1.31081
37 3.5992 1.06012 0.070888 -1.68043 1.04215 -0.112109
38 1.66069 0 0 0.00620716 0.00200656 1.47997
39 1.16699 0 0 -0.0701393 0.164234 1.21657
40 2.18853 -0.50104 0.0576591 -1.57605 0.00117809 -0.0469345
41 1.29609 0 0 -0.0326374 -0.0616156 1.17811
42 1.62201 -0.000712395 -0.000469208 -0.00508019 -0.00330942 1.42626
43 1.22241 0 0 0.0247017 -0.0856984 1.42308
44 1.76707 -1.27612 0.0366411 -1.56655 0.103701 0.0275536
45 1.55587 0 0 0.103891 -0.0756529 0.975564
46 1.24273 0 0 -0.00469954 -0.0380688 1.28397
47 0.784532 0 0 -0.012743 -0.0577752 1.00048
48 0 0 0 0 0 0
49 9.74763 -5.80351 -32.0629 2.63114 -0.447869 0.414372
50 -0.49446 -2.33627 -0.838784 0 0 0
time 3
0 1.938 -14.8017 -15.8624 0 0 -0.814469
1 6.02794 0 0 -2.04101 1.21876 2.06733
2 11.7344 0 0 -0.00140286 0 -1.51826
3 8.81138 -0.000450134 -0.00011158 2.83215 0 0.000157966
4 5.77839 0.00028801 0 1.89754 0 0.00013167
5 2.23163 -0.000328064 -0.00036335 0.93461 0 0
6 11.4725 0 0 2.79196 0.123664 0.928243
7 0.615218 -0.99309 -0.8107 2.92227 0.454999 -0.331411
8 2.24752 0 0 0.0643998 0.0920016 -0.245251
9 1.11936 0 0 0.0124086 0.0391453 -1.16006
10 3.71348 -0.10264 0.10219 1.44559 1.26927 -0.122846
11 1.72614 0 0 -0.0132947 0.00454342 -1.35296
12 1.21114 0 0 -0.0138878 0.010871 -1.50415
13 3.59919 -1.06012 0.0708876 1.59719 1.13552 0.0844619
14 1.66069 0 0 0.0206526 0.106433 -1.46129
15 1.167 0 0 0.140204 0.107864 -1.2636
16 2.18852 0.50104 0.0576582 1.58026 0.110062 0.0312635
17 1.29609 0 0 -0.021455 0.0115005 -1.06235
18 1.62202 0.000714302 -0.000471115 -0.00756987 0.0044424 -1.4728
19 1.22241 0 0 -0.0469828 -0.00376766 -1.43289
20 1.76707 1.27612 0.0366411 1.57845 0.182304 -0.0214513
21 1.55588 0 0 -0.155246 -0.00355035 -0.857709
22 1.24273 0 0 -0.000505189 -0.000322938 -1.24825
23 0.784523 0 0 0.00822059 0.0140818 -0.754785
24 -1.93761 -7.39478 -19.4423 -0.000932534 0 -2.53187
25 6.02794 0 0 1.26184 1.34077 2.60095
26 11.7344 0 0 0.00140286 0 1.66498
27 8.81167 0 0 2.27845 0 0
28 5.77884 0 0 1.52656 0 0
29 2.23249 0 0 0.751888 0 0
30 11.4725 0 0 1.66131 0.713885 -1.4313
31 0.615812 0.99437 -0.809165 -2.72226 0.463503 0.286233
32 2.24752 0 0 -0.0835969 0.0959309 0.272288
33 1.11936 0 0 -0.401236 0.450129 0.842934
34 3.71349 0.102638 0.102191 -1.41386 1.26431 0.0816934
35 1.72615 0 0 0.000698437 0.000241714 1.34896
36 1.21112 0 0 0.0115403 0.0133365 1.31081
37 3.5992 1.06011 0.0708885 -1.68043 1.04215 -0.112109
38 1.66069 0 0 0.00620712 0.00200643 1.47997
39 1.16699 0 0 -0.0701394 0.164234 1.21657
40 2.18853 -0.501041 0.0576591 -1.57605 0.00117801 -0.0469345
41 1.29609 0 0 -0.0326376 -0.0616157 1.17811
42 1.62202 -0.000713348 -0.000469208 -0.00508032 -0.00330958 1.42626
43 1.22241 0 0 0.024702 -0.0856983 1.42308
44 1.76707 -1.27612 0.0366402 -1.56655 0.103701 0.0275535
45 1.55587 0 0 0.103891 -0.075653 0.975564
46 1.24273 0 0 -0.00469944 -0.0380687 1.28397
47 0.784534 0 0 -0.012743 -0.0577753 1.00048
48 0 0 0 0 0 0
49 8.72497 -5.18244 -31.1479 2.44765 -0.440651 0.426909
50 -0.49446 -2.33627 -0.838784 0 0 0
time 4
0 1.938 -14.6733 -15.8919 0 0 -0.814469
1 6.02794 0 0 -1.9762 1.07108 2.25076
2 11.7344 0 0 -0.00140291 0 -1.39154
3 8.81138 -0.000450134 -0.000111818 2.83291 0 0.000156354
4 5.77839 0.000286102 0 1.89805 0 0.000130272
5 2.23163 -0.000329971 -0.000364065 0.934861 0 0
6 11.4725 0 0 2.89036 0.235425 1.20226
7 0.615218 -0.993092 -0.8107 2.92227 0.454999 -0.331411
8 2.24752 0 0 0.0643997 0.0920014 -0.245251
9 1.11935 0 0 0.0124088 0.0391455 -1.16006
10 3.71348 -0.10264 0.102192 1.44559 1.26927 -0.122846
11 1.72615 0 0 -0.0132951 0.00454345 -1.35296
12 1.21114 0 0 -0.0138877 0.0108707 -1.50415
13 3.59919 -1.06012 0.0708885 1.59719 1.13552 0.0844626
14 1.66069 0 0 0.0206525 0.106433 -1.46129
15 1.167 0 0 0.140204 0.107864 -1.2636
16 2.18852 0.50104 0.0576591 1.58026 0.110062 0.0312636
17 1.29609 0 0 -0.0214549 0.0115007 -1.06235
18 1.62201 0.000714302 -0.000471115 -0.00757013 0.00444233 -1.4728
19 1.22241 0 0 -0.0469827 -0.00376783 -1.43289
20 1.76707 1.27612 0.0366421 1.57845 0.182304 -0.021451
21 1.55588 0 0 -0.155246 -0.00355033 -0.857709
22 1.24273 0 0 -0.000505233 -0.00032308 -1.24825
23 0.784523 0 0 0.00822043 0.0140817 -0.754785
24 -1.93761 -6.83087 -19.4445 -0.000932534 0 -2.53187
25 6.02794 0 0 1.33404 1.41604 2.71579
26 11.7344 0 0 0.0014027 0 1.88169
27 8.81167 0 0 -2.6536 0 0
28 5.77884 0 0 -1.77791 0 0
29 2.23249 0 0 -0.875687 0 0
30 11.4725 0 0 1.67961 0.436445 -1.57716
31 0.615812 0.994373 -0.809165 -2.72226 0.463503 0.286233
32 2.24752 0 0 -0.0835968 0.0959308 0.272288
33 1.11936 0 0 -0.401236 0.450129 0.842933
34 3.71349 0.102638 0.102192 -1.41386 1.26431 0.0816931
35 1.72615 0 0 0.000698465 0.000241654 1.34896
36 1.21112 0 0 0.0115402 0.0133366 1.31081
37 3.5992 1.06012 0.0708885 -1.68043 1.04215 -0.112109
38 1.66069 0 0 0.00620707 0.00200653 1.47997
39 1.16699 0 0 -0.0701393 0.164233 1.21657
40 2.18853 -0.50104 0.0576601 -1.57605 0.001178 -0.0469345
41 1.29609 0 0 -0.0326375 -0.0616158 1.17811
42 1.62201 -0.000713348 -0.000469208 -0.00508045 -0.00330939 1.42626
43 1.22241 0 0 0.0247019 -0.0856984 1.42308
44 1.76707 -1.27612 0.0366411 -1.56655 0.103701 0.0275536
45 1.55587 0 0 0.103891 -0.0756529 0.975564
46 1.24273 0 0 -0.00469965 -0.0380688 1.28397
47 0.784531 0 0 -0.012743 -0.0577752 1.00048
48 0 0 0 0 0 0
49 7.43511 -5.3154 -29.6571 2.21682 -0.431647 0.436396
50 -0.49446 -2.33627 -0.838784 0 0 0
time 5
0 1.938 -14.3015 -15.7356 0 0 -0.814469
1 6.02794 0 0 -1.92657 0.978134 2.39599
2 11.7344 0 0 -0.00140306 0 -1.30573
3 8.81138 -0.000452042 -0.000112295 2.81113 0 0.000158073
4 5.77839 0.000284195 0 1.88346 0 0.000131288
5 2.23164 -0.000328064 -0.000364065 0.927674 0 0
6 11.4725 0 0 3.00241 0.324087 1.51985
7 0.615221 -0.993091 -0.810701 2.92227 0.454999 -0.331411
8 2.24752 0 0 0.0643998 0.0920015 -0.24525
9 1.11935 0 0 0.0124089 0.0391454 -1.16006
10 3.71348 -0.102641 0.102191 1.44559 1.26927 -0.122847
11 1.72615 0 0 -0.0132949 0.00454359 -1.35296
12 1.21114 0 0 -0.0138877 0.0108707 -1.50415
13 3.59919 -1.06012 0.0708876 1.59719 1.13552 0.0844624
14 1.66069 0 0 0.0206526 0.106434 -1.46129
15 1.167 0 0 0.140204 0.107864 -1.2636
16 2.18852 0.501039 0.0576582 1.58026 0.110062 0.0312637
17 1.29609 0 0 -0.0214549 0.0115006 -1.06235
18 1.62202 0.000714302 -0.000472069 -0.00756998 0.00444243 -1.4728
19 1.22241 0 0 -0.046983 -0.00376783 -1.43289
20 1.76707 1.27612 0.0366411 1.57845 0.182304 -0.0214511
21 1.55588 0 0 -0.155246 -0.00355034 -0.857709
22 1.24274 0 0 -0.000505294 -0.000322996 -1.24825
23 0.784523 0 0 0.0082205 0.0140817 -0.754785
24 -1.93761 -6.28268 -19.1934 -0.000932534 0 -2.53187
25 6.02794 0 0 1.36348 1.49314 2.7852
26 11.7344 0 0 0.00140277 0 2.10048
27 8.81167 0 0 -2.19063 0 0
28 5.77884 0 0 -1.46772 0 0
29 2.23249 0 0 -0.722909 0 0
30 11.4725 0 0 1.69691 0.135256 -1.73063
31 0.615812 0.994371 -0.809166 -2.72226 0.463503 0.286233
32 2.24752 0 0 -0.0835969 0.0959306 0.272288
33 1.11936 0 0 -0.401235 0.450129 0.842934
34 3.71348 0.102639 0.102191 -1.41386 1.26431 0.081694
35 1.72615 0 0 0.000698422 0.000241612 1.34896
36 1.21112 0 0 0.0115404 0.0133365 1.31081
37 3.5992 1.06012 0.0708885 -1.68043 1.04215 -0.112109
38 1.66069 0 0 0.00620716 0.00200652 1.47997
39 1.16699 0 0 -0.0701393 0.164234 1.21657
40 2.18853 -0.50104 0.0576582 -1.57605 0.00117796 -0.0469347
41 1.29609 0 0 -0.0326377 -0.0616158 1.17811
42 1.62202 -0.000711441 -0.000470161 -0.00508028 -0.0033094 1.42626
43 1.22241 0 0 0.0247019 -0.0856985 1.42308
44 1.76707 -1.27612 0.0366411 -1.56655 0.103701 0.0275537
45 1.55588 0 0 0.103891 -0.075653 0.975564
46 1.24273 0 0 -0.00469961 -0.0380688 1.28397
47 0.784533 0 0 -0.0127431 -0.0577753 1.00048
48 0 0 0 0 0 0
49 5.93412 -6.08156 -27.6983 1.94909 -0.421156 0.442899
50 -0.49446 -2.33627 -0.838784 0 0 0
time 6
0 1.938 -13.7188 -15.4173 0 0 -0.814469
1 6.02794 0 0 -1.88146 0.956397 2.51776
2 11.7344 0 0 -0.00140296 0 -1.29452
3 8.81138 -0.000450134 -0.000112295 2.77788 0 0.000157067
4 5.77839 0.000286102 0 1.86118 0 0.000130059
5 2.23163 -0.000329971 -0.000364065 0.9167 0 0
6 11.4725 0 0 -3.14012 0.38048 1.88702
7 0.615219 -0.993091 -0.810699 2.92227 0.454999 -0.33141
8 2.24752 0 0 0.0643998 0.0920014 -0.24525
9 1.11936 0 0 0.0124089 0.0391455 -1.16006
10 3.71348 -0.102641 0.102192 1.44559 1.26927 -0.122845
11 1.72615 0 0 -0.0132951 0.00454346 -1.35296
12 1.21114 0 0 -0.0138878 0.0108709 -1.50415
13 3.59919 -1.06012 0.0708876 1.59719 1.13552 0.0844623
14 1.66069 0 0 0.0206527 0.106434 -1.46129
15 1.167 0 0 0.140204 0.107864 -1.2636
16 2.18852 0.501039 0.0576601 1.58026 0.110062 0.0312639
17 1.29609 0 0 -0.0214549 0.0115005 -1.06235
18 1.62202 0.000714302 -0.000470877 -0.00756991 0.00444253 -1.4728
19 1.22241 0 0 -0.0469829 -0.00376778 -1.43289
20 1.76707 1.27612 0.0366411 1.57845 0.182304 -0.0214509
21 1.55588 0 0 -0.155245 -0.00355049 -0.857709
22 1.24273 0 0 -0.000505176 -0.000323058 -1.24825
23 0.784523 0 0 0.00822048 0.0140818 -0.754785
24 -1.93761 -5.75258 -18.7216 -0.000932534 0 -2.53187
25 6.02794 0 0 -0.602439 1.55375 0.841633
26 11.7344 0 0 0.00140264 0 2.31282
27 8.81167 0 0 -2.02169 0 0
28 5.77884 0 0 -1.35453 0 0
29 2.23249 0 0 -0.667156 0 0
30 11.4725 0 0 1.70786 -0.168285 -1.87851
31 0.615814 0.994371 -0.809164 -2.72226 0.463503 0.286233
32 2.24752 0 0 -0.083597 0.0959306 0.272288
33 1.11936 0 0 -0.401236 0.450129 0.842933
34 3.71349 0.102639 0.102192 -1.41386 1.26431 0.0816931
35 1.72615 0 0 0.000698358 0.000241759 1.34896
36 1.21112 0 0 0.0115403 0.0133365 1.31081
37 3.5992 1.06012 0.0708885 -1.68043 1.04215 -0.112109
38 1.66069 0 0 0.00620708 0.00200643 1.47997
39 1.16699 0 0 -0.0701392 0.164234 1.21657
40 2.18854 -0.50104 0.0576601 -1.57605 0.00117805 -0.0469346
41 1.29609 0 0 -0.0326374 -0.0616157 1.17811
42 1.62202 -0.000713348 -0.0004704 -0.00508017 -0.00330943 1.42626
43 1.22241 0 0 0.0247019 -0.0856983 1.42308
44 1.76707 -1.27612 0.0366411 -1.56655 0.103701 0.0275536
45 1.55588 0 0 0.103891 -0.075653 0.975564
46 1.24273 0 0 -0.00469951 -0.0380687 1.28397
47 0.784529 0 0 -0.012743 -0.0577753 1.00048
48 0 0 0 0 0 0
49 4.2781 -7.36011 -25.3791 1.6549 -0.40948 0.446485
50 -0.49446 -2.33627 -0.838784 0 0 0
time 7
0 1.938 -12.9576 -14.9608 0 0 -0.814469
1 6.02794 0 0 -1.82952 1.01844 2.63618
2 11.7344 0 0 -0.00140276 0 -1.38499
3 8.81138 -0.000448227 -0.000112534 2.73767 0 0.000157985
4 5.77838 0.000286102 0 1.83424 0 0.000129862
5 2.23163 -0.000328064 -0.000364304 0.903432 0 0
6 11.4725 0 0 -2.96808 0.384522 2.30259
7 0.615219 -0.99309 -0.8107 2.92227 0.454999 -0.33141
8 2.24752 0 0 0.0643998 0.0920015 -0.24525
9 1.11936 0 0 0.0124089 0.0391456 -1.16006
10 3.71348 -0.10264 0.10219 1.44559 1.26927 -0.122846
11 1.72615 0 0 -0.0132949 0.00454353 -1.35296
12 1.21114 0 0 -0.0138877 0.0108708 -1.50415
13 3.59919 -1.06012 0.0708885 1.59719 1.13552 0.084462
14 1.66069 0 0 0.0206525 0.106433 -1.46129
15 1.167 0 0 0.140204 0.107864 -1.2636
16 2.18852 0.50104 0.0576591 1.58026 0.110062 0.0312638
17 1.29609 0 0 -0.0214548 0.0115007 -1.06235
18 1.62202 0.000714302 -0.000471115 -0.00757021 0.00444234 -1.4728
19 1.22241 0 0 -0.046983 -0.00376777 -1.43289
20 1.76707 1.27612 0.0366402 1.57845 0.182304 -0.0214509
21 1.55588 0 0 -0.155246 -0.00355029 -0.857708
22 1.24273 0 0 -0.000505321 -0.000322959 -1.24825
23 0.784523 0 0 0.00822021 0.0140817 -0.754785
24 -1.93761 -5.24296 -18.0618 -0.000932534 0 -2.53187
25 6.02795 0 0 -1.21765 1.44241 0.194427
26 11.7344 0 0 0.00140279 0 2.51527
27 8.81167 0 0 -1.85933 0 0
28 5.77884 0 0 -1.24575 0 0
29 2.23249 0 0 -0.613578 0 0
30 11.4725 0 0 1.68738 -0.438034 -1.98534
31 0.615812 0.994371 -0.809166 -2.72226 0.463503 0.286233
32 2.24752 0 0 -0.0835969 0.0959306 0.272288
33 1.11936 0 0 -0.401235 0.450129 0.842933
34 3.71349 0.102638 0.10219 -1.41386 1.26431 0.0816938
35 1.72615 0 0 0.000698312 0.000241796 1.34896
36 1.21112 0 0 0.0115404 0.0133365 1.31081
37 3.5992 1.06012 0.0708866 -1.68043 1.04215 -0.112109
38 1.66069 0 0 0.00620712 0.00200645 1.47997
39 1.16699 0 0 -0.0701394 0.164234 1.21657
40 2.18853 -0.50104 0.0576582 -1.57605 0.0011779 -0.0469345
41 1.29609 0 0 -0.0326374 -0.0616157 1.17811
42 1.62202 -0.000713348 -0.000470638 -0.00508022 -0.00330938 1.42626
43 1.22241 0 0 0.0247017 -0.0856984 1.42308
44 1.76707 -1.27612 0.0366402 -1.56655 0.103701 0.0275536
45 1.55587 0 0 0.103891 -0.075653 0.975564
46 1.24273 0 0 -0.00469953 -0.038069 1.28397
47 0.784531 0 0 -0.0127428 -0.0577752 1.00048
48 0 0 0 0 0 0
49 2.52313 -9.03022 -22.8072 1.34469 -0.396917 0.447221
50 -0.49446 -2.33627 -0.838784 0 0 0
time 8
0 1.938 -12.0503 -14.3898 0 0 -0.814469
1 6.02794 0 0 -1.73141 1.15885 2.80914
2 11.7344 0 0 -0.00140296 0 -1.56877
3 8.81138 -0.000452042 -0.00011158 2.68272 0 0.000158734
4 5.77839 0.000286102 0 1.79743 0 0.000129644
5 2.23164 -0.000329971 -0.000364304 0.885299 0 0
6 11.4725 0 0 -2.77875 0.311701 2.73327
7 0.61522 -0.993092 -0.8107 2.92227 0.454999 -0.33141
8 2.24752 0 0 0.0643999 0.0920016 -0.24525
9 1.11936 0 0 0.012409 0.0391454 -1.16006
10 3.71348 -0.102642 0.102191 1.44559 1.26927 -0.122846
11 1.72615 0 0 -0.0132948 0.00454352 -1.35296
12 1.21114 0 0 -0.0138876 0.010871 -1.50415
13 3.59919 -1.06012 0.0708885 1.59719 1.13552 0.0844626
14 1.66069 0 0 0.0206524 0.106433 -1.46129
15 1.167 0 0 0.140204 0.107864 -1.2636
16 2.18852 0.50104 0.0576591 1.58026 0.110062 0.0312637
17 1.29609 0 0 -0.0214551 0.0115008 -1.06235
18 1.62201 0.000713348 -0.000470638 -0.00756982 0.00444252 -1.4728
19 1.22241 0 0 -0.046983 -0.00376781 -1.43289
20 1.76707 1.27612 0.0366411 1.57845 0.182304 -0.021451
21 1.55588 0 0 -0.155246 -0.00355044 -0.857709
22 1.24273 0 0 -0.000505272 -0.000322925 -1.24825
23 0.784523 0 0 0.00822027 0.0140818 -0.754785
24 -1.93761 -4.7562 -17.2467 -0.000932534 0 -2.53187
25 6.02795 0 0 -1.09227 1.26741 0.138926
26 11.7344 0 0 0.00140271 0 2.69634
27 8.81167 0 0 -1.51597 0 0
28 5.77884 0 0 -1.0157 0 0
29 2.23249 0 0 -0.500271 0 0
30 11.4725 0 0 1.54638 -0.599316 -1.93324
31 0.615812 0.994373 -0.809166 -2.72226 0.463503 0.286233
32 2.24752 0 0 -0.0835969 0.0959306 0.272288
33 1.11936 0 0 -0.401236 0.450129 0.842933
34 3.71349 0.102638 0.102191 -1.41386 1.26431 0.0816934
35 1.72615 0 0 0.000698327 0.000241612 1.34896
36 1.21112 0 0 0.0115404 0.0133365 1.31081
37 3.5992 1.06012 0.0708885 -1.68043 1.04215 -0.112109
38 1.66069 0 0 0.00620724 0.00200651 1.47997
39 1.16699 0 0 -0.0701392 0.164234 1.21657
40 2.18853 -0.50104 0.0576591 -1.57605 0.00117794 -0.0469346
41 1.29609 0 0 -0.0326375 -0.0616159 1.17811
42 1.62202 -0.000711441 -0.000469685 -0.00508028 -0.00330961 1.42626
43 1.22241 0 0 0.024702 -0.0856984 1.42308
44 1.76707 -1.27612 0.0366411 -1.56655 0.103701 0.0275534
45 1.55587 0 0 0.103891 -0.0756531 0.975564
46 1.24273 0 0 -0.00469962 -0.0380688 1.28397
47 0.784531 0 0 -0.012743 -0.0577753 1.00048
48 0 0 0 0 0 0
49 0.725308 -10.9711 -20.0902 1.0289 -0.383768 0.445174
50 -0.49446 -2.33627 -0.838784 0 0 0
time 9
0 1.938 -11.0293 -13.7281 0 0 -0.814469
1 6.02794 0 0 -1.36999 1.33987 -2.99936
2 11.7344 0 0 -0.00140295 0 -1.80088
3 8.81138 -0.000450134 -0.000112057 2.5868 0 0.00015771
4 5.77839 0.00028801 0 1.73316 0 0.000127287
5 2.23163 -0.000328064 -0.000364304 0.853645 0 0
6 11.4725 0 0 -2.59396 0.139166 3.11187
7 0.61522 -0.993091 -0.810701 2.92227 0.454999 -0.331411
8 2.24752 0 0 0.0643999 0.0920017 -0.24525
9 1.11936 0 0 0.0124089 0.0391455 -1.16006
10 3.71348 -0.10264 0.10219 1.44559 1.26927 -0.122846
11 1.72615 0 0 -0.0132949 0.0045435 -1.35296
12 1.21114 0 0 -0.0138877 0.010871 -1.50415
13 3.59919 -1.06012 0.0708876 1.59719 1.13552 0.0844623
14 1.66069 0 0 0.0206527 0.106434 -1.46129
15 1.167 0 0 0.140204 0.107864 -1.2636
16 2.18852 0.50104 0.0576591 1.58026 0.110062 0.0312636
17 1.29609 0 0 -0.0214549 0.0115005 -1.06235
18 1.62202 0.000713348 -0.000472069 -0.00756998 0.00444243 -1.4728
19 1.22241 0 0 -0.0469828 -0.00376777 -1.43289
20 1.76707 1.27612 0.0366402 1.57845 0.182304 -0.0214509
21 1.55588 0 0 -0.155246 -0.00355033 -0.857709
22 1.24273 0 0 -0.00050522 -0.000323099 -1.24825
23 0.784523 0 0 0.00822054 0.0140818 -0.754785
24 -1.93761 -4.29468 -16.309 -0.000932534 0 -2.53187
25 6.02795 0 0 -0.821713 1.07727 -0.135605
26 11.7344 0 0 0.00140252 0 2.79601
27 8.81167 0 0 -0.410417 0 0
28 5.77884 0 0 -0.274979 0 0
29 2.23249 0 0 -0.135438 0 0
30 11.4725 0 0 1.17673 -0.447519 -1.55399
31 0.61581 0.994373 -0.809166 -2.72226 0.463503 0.286233
32 2.24752 0 0 -0.083597 0.0959307 0.272288
33 1.11936 0 0 -0.401236 0.450129 0.842934
34 3.71348 0.102638 0.102191 -1.41386 1.26431 0.0816937
35 1.72615 0 0 0.000698419 0.000241644 1.34896
36 1.21112 0 0 0.0115402 0.0133366 1.31081
37 3.5992 1.06012 0.0708866 -1.68043 1.04215 -0.112109
38 1.66069 0 0 0.00620713 0.0020064 1.47997
39 1.16699 0 0 -0.0701392 0.164234 1.21657
40 2.18853 -0.50104 0.0576591 -1.57605 0.00117805 -0.0469345
41 1.29609 0 0 -0.0326375 -0.0616158 1.17811
42 1.62201 -0.000713348 -0.000471115 -0.00508019 -0.00330942 1.42626
43 1.2224 0 0 0.0247021 -0.0856984 1.42308
44 1.76707 -1.27612 0.0366402 -1.56655 0.103701 0.0275535
45 1.55588 0 0 0.103891 -0.0756531 0.975564
46 1.24273 0 0 -0.00469953 -0.0380689 1.28397
47 0.784531 0 0 -0.0127428 -0.0577753 1.00048
48 0 0 0 0 0 0
49 -1.05928 -13.0619 -17.336 0.717969 -0.370332 0.44041
50 -0.49446 -2.33627 -0.838784 0 0 0
time 10
0 1.938 -9.9271 -12.9993 0 0 -0.814469
1 6.02794 0 0 -0.177524 1.35775 -1.61354
2 11.7344 0 0 -0.0014028 0 -2.0127
3 8.81138 -0.000450134 -0.000112057 2.41154 0 0.000157697
4 5.77839 0.000286102 0 1.61573 0 0.000125131
5 2.23163 -0.000328064 -0.000364304 0.795807 0 0
6 11.4725 0 0 -2.4242 -0.151404 -2.93267
7 0.615219 -0.993092 -0.8107 2.92227 0.454999 -0.33141
8 2.24752 0 0 0.0643998 0.0920015 -0.24525
9 1.11936 0 0 0.0124089 0.0391454 -1.16006
10 3.71348 -0.102642 0.10219 1.44559 1.26927 -0.122845
11 1.72615 0 0 -0.0132949 0.00454353 -1.35296
12 1.21114 0 0 -0.0138877 0.0108708 -1.50415
13 3.59919 -1.06012 0.0708866 1.59719 1.13552 0.0844625
14 1.66069 0 0 0.0206525 0.106434 -1.46129
15 1.167 0 0 0.140204 0.107864 -1.2636
16 2.18852 0.50104 0.0576591 1.58026 0.110062 0.0312637
17 1.29609 0 0 -0.0214551 0.0115006 -1.06235
18 1.62202 0.000714302 -0.000471115 -0.00757005 0.00444237 -1.4728
19 1.22241 0 0 -0.0469829 -0.00376794 -1.43289
20 1.76707 1.27612 0.0366402 1.57845 0.182304 -0.0214509
21 1.55588 0 0 -0.155246 -0.00355028 -0.857709
22 1.24273 0 0 -0.000505249 -0.00032311 -1.24825
23 0.784523 0 0 0.00822035 0.0140816 -0.754785
24 -1.93761 -3.8608 -15.2813 -0.000932534 0 -2.53187
25 6.02794 0 0 -0.305318 1.13765 -0.336738
26 11.7344 0 0 0.00140267 0 2.71649
27 8.81167 0 0 0.413406 0 0
28 5.77884 0 0 0.276982 0 0
29 2.23249 0 0 0.136424 0 0
30 11.4725 0 0 0.886662 -0.0230241 -1.18632
31 0.615812 0.994372 -0.809165 -2.72226 0.463503 0.286233
32 2.24752 0 0 -0.083597 0.0959307 0.272288
33 1.11936 0 0 -0.401235 0.450129 0.842933
34 3.71348 0.102639 0.102191 -1.41386 1.26431 0.0816934
35 1.72615 0 0 0.00069849 0.000241732 1.34896
36 1.21112 0 0 0.0115404 0.0133366 1.31081
37 3.5992 1.06012 0.0708885 -1.68043 1.04215 -0.112109
38 1.66069 0 0 0.00620723 0.00200641 1.47997
39 1.16699 0 0 -0.0701393 0.164234 1.21657
40 2.18853 -0.50104 0.0576582 -1.57605 0.00117796 -0.0469345
41 1.29609 0 0 -0.0326375 -0.0616157 1.17811
42 1.62201 -0.000711441 -0.000469208 -0.00508032 -0.00330953 1.42626
43 1.22241 0 0 0.0247019 -0.0856983 1.42308
44 1.76707 -1.27612 0.0366411 -1.56655 0.103701 0.0275537
45 1.55588 0 0 0.103891 -0.0756529 0.975564
46 1.24273 0 0 -0.0046996 -0.0380689 1.28397
47 0.784531 0 0 -0.0127428 -0.0577752 1.00048
48 0 0 0 0 0 0
49 -2.77455 -15.1817 -14.6521 0.422343 -0.35691 0.432997
50 -0.49446 -2.33627 -0.838784 0 0 0
time 11
0 1.938 -8.77602 -12.2272 0 0 -0.814469
1 6.02794 0 0 0.16939 1.14435 -0.963788
2 11.7344 0 0 -0.00140292 0 -2.12017
3 8.81139 -0.000450134 -0.000112057 2.14736 0 0.000157616
4 5.77839 0.000286102 0 1.43873 0 0.000121801
5 2.23164 -0.000329971 -0.000364304 0.708628 0 0
6 11.4725 0 0 -2.25492 -0.551114 -2.92475
7 0.615219 -0.99309 -0.810699 2.92227 0.454999 -0.331411
8 2.24752 0 0 0.0643998 0.0920015 -0.24525
9 1.11936 0 0 0.0124086 0.0391455 -1.16006
10 3.71348 -0.102641 0.10219 1.44559 1.26927 -0.122847
11 1.72615 0 0 -0.0132948 0.00454358 -1.35296
12 1.21114 0 0 -0.0138878 0.010871 -1.50415
13 3.59919 -1.06012 0.0708885 1.59719 1.13552 0.0844621
14 1.66068 0 0 0.0206527 0.106434 -1.46129
15 1.167 0 0 0.140204 0.107864 -1.2636
16 2.18852 0.50104 0.0576582 1.58026 0.110062 0.0312636
17 1.29609 0 0 -0.0214549 0.0115006 -1.06235
18 1.62202 0.000715256 -0.000471115 -0.00756978 0.00444242 -1.4728
19 1.22241 0 0 -0.0469829 -0.00376777 -1.43289
20 1.76707 1.27612 0.0366421 1.57845 0.182304 -0.0214512
21 1.55588 0 0 -0.155246 -0.00355052 -0.857709
22 1.24273 0 0 -0.000505168 -0.00032307 -1.24825
23 0.784523 0 0 0.00822044 0.0140817 -0.754785
24 -1.93761 -3.45692 -14.1964 -0.000932534 0 -2.53187
25 6.02794 0 0 0.397315 1.1879 0.0219614
26 11.7344 0 0 0.00140269 0 2.50554
27 8.81167 0 0 0.659523 0 0
28 5.77884 0 0 0.441881 0 0
29 2.23249 0 0 0.217643 0 0
30 11.4725 0 0 0.818273 0.155321 -0.925389
31 0.615811 0.994372 -0.809164 -2.72226 0.463503 0.286233
32 2.24752 0 0 -0.0835969 0.0959307 0.272288
33 1.11936 0 0 -0.401236 0.450129 0.842933
34 3.71349 0.102639 0.102192 -1.41386 1.26431 0.0816936
35 1.72615 0 0 0.000698361 0.000241715 1.34896
36 1.21112 0 0 0.0115403 0.0133366 1.31081
37 3.5992 1.06012 0.0708885 -1.68043 1.04215 -0.112109
38 1.66069 0 0 0.00620719 0.00200646 1.47997
39 1.16699 0 0 -0.0701393 0.164234 1.21657
40 2.18853 -0.50104 0.0576591 -1.57605 0.001178 -0.0469347
41 1.29609 0 0 -0.0326374 -0.0616158 1.17811
42 1.62201 -0.000711441 -0.000471115 -0.00508035 -0.00330948 1.42626
43 1.2224 0 0 0.024702 -0.0856985 1.42308
44 1.76707 -1.27612 0.0366421 -1.56655 0.103701 0.0275535
45 1.55588 0 0 0.103891 -0.075653 0.975564
46 1.24273 0 0 -0.00469952 -0.0380689 1.28397
47 0.784533 0 0 -0.0127428 -0.0577752 1.00048
48 0 0 0 0 0 0
49 -4.36441 -17.2099 -12.1463 0.152461 -0.3438 0.423001
50 -0.49446 -2.33627 -0.838784 0 0 0
time 12
0 1.938 -7.60849 -11.4356 0 0 -0.814469
1 6.02794 0 0 0.0235227 0.966431 -0.764136
2 11.7344 0 0 -0.00140295 0 -2.06566
3 8.81138 -0.000452042 -0.000109673 1.84857 0 0.000157656
4 5.77839 0.000286102 0 1.23854 0 0.000118518
5 2.23163 -0.000331879 -0.00036335 0.610028 0 0
6 11.4725 0 0 -2.02802 -0.968212 3.09035
7 0.615219 -0.993092 -0.810699 2.92227 0.454999 -0.33141
8 2.24752 0 0 0.0643998 0.0920016 -0.24525
9 1.11936 0 0 0.0124089 0.0391455 -1.16006
10 3.71348 -0.10264 0.102192 1.44559 1.26927 -0.122846
11 1.72615 0 0 -0.0132949 0.00454349 -1.35296
12 1.21114 0 0 -0.0138878 0.0108708 -1.50415
13 3.59919 -1.06012 0.0708885 1.59719 1.13552 0.084462
14 1.66069 0 0 0.0206525 0.106434 -1.46129
15 1.167 0 0 0.140204 0.107864 -1.2636
16 2.18853 0.501039 0.0576591 1.58026 0.110062 0.0312637
17 1.29609 0 0 -0.021455 0.0115006 -1.06235
18 1.62202 0.000713348 -0.000471115 -0.00757 0.00444257 -1.4728
19 1.22241 0 0 -0.0469829 -0.00376782 -1.43289
20 1.76707 1.27612 0.0366421 1.57845 0.182304 -0.021451
21 1.55588 0 0 -0.155246 -0.00355041 -0.857709
22 1.24273 0 0 -0.000505218 -0.000322923 -1.24825
23 0.784523 0 0 0.00822036 0.0140818 -0.754785
24 -1.93761 -3.08545 -13.0869 -0.000932534 0 -2.53187
25 6.02795 0 0 0.867676 1.10056 0.355507
26 11.7344 0 0 0.00140269 0 2.25432
27 8.81167 0 0 0.758617 0 0
28 5.77884 0 0 0.508273 0 0
29 2.23249 0 0 0.250344 0 0
30 11.4725 0 0 0.816347 0.158511 -0.662468
31 0.615812 0.994371 -0.809164 -2.72226 0.463503 0.286233
32 2.24752 0 0 -0.0835967 0.0959307 0.272288
33 1.11936 0 0 -0.401236 0.450129 0.842933
34 3.71348 0.102639 0.10219 -1.41386 1.26431 0.0816932
35 1.72615 0 0 0.00069837 0.000241726 1.34896
36 1.21112 0 0 0.0115402 0.0133367 1.31081
37 3.5992 1.06012 0.0708885 -1.68043 1.04215 -0.112109
38 1.66069 0 0 0.00620716 0.00200641 1.47997
39 1.16699 0 0 -0.0701393 0.164234 1.21657
40 2.18853 -0.50104 0.0576591 -1.57605 0.00117789 -0.0469345
41 1.29609 0 0 -0.0326375 -0.0616159 1.17811
42 1.62201 -0.000715256 -0.000469208 -0.00508035 -0.00330948 1.42626
43 1.22241 0 0 0.024702 -0.0856984 1.42308
44 1.76707 -1.27612 0.0366402 -1.56655 0.103701 0.0275537
45 1.55588 0 0 0.103891 -0.075653 0.975564
46 1.24273 0 0 -0.00469953 -0.0380689 1.28397
47 0.784531 0 0 -0.0127427 -0.0577752 1.00048
48 0 0 0 0 0 0
49 -5.77277 -19.0255 -9.92621 -0.0812371 -0.331303 0.410489
50 -0.49446 -2.33627 -0.838784 0 0 0
time 13
0 1.938 -6.45694 -10.6482 0 0 -0.814469
1 6.02794 0 0 -0.218175 0.852361 -0.752223
2 11.7344 0 0 -0.00140294 0 -1.87819
3 8.81138 -0.000450134 -0.000112534 1.57071 0 0.000158263
4 5.77839 0.000284195 0 1.05238 0 0.000116369
5 2.23163 -0.000329971 -0.000366211 0.518335 0 0
6 11.4725 0 0 -1.57066 -1.26312 2.47497
7 0.615219 -0.993092 -0.810701 2.92227 0.454999 -0.33141
8 2.24752 0 0 0.0643999 0.0920016 -0.24525
9 1.11936 0 0 0.0124089 0.0391455 -1.16006
10 3.71348 -0.102642 0.102192 1.44559 1.26927 -0.122845
11 1.72615 0 0 -0.0132948 0.00454365 -1.35296
12 1.21114 0 0 -0.0138878 0.0108709 -1.50415
13 3.59919 -1.06012 0.0708866 1.59719 1.13552 0.0844624
14 1.66068 0 0 0.0206525 0.106434 -1.46129
15 1.167 0 0 0.140204 0.107864 -1.2636
16 2.18852 0.501039 0.0576591 1.58026 0.110062 0.0312636
17 1.29609 0 0 -0.021455 0.0115007 -1.06235
18 1.62202 0.000712395 -0.000471115 -0.00756999 0.00444254 -1.4728
19 1.22241 0 0 -0.0469829 -0.00376782 -1.43289
20 1.76707 1.27612 0.0366402 1.57845 0.182304 -0.0214512
21 1.55588 0 0 -0.155246 -0.00355034 -0.857709
22 1.24273 0 0 -0.000505189 -0.000322938 -1.24825
23 0.784523 0 0 0.00822034 0.0140818 -0.754785
24 -1.93761 -2.74875 -11.9855 -0.000932534 0 -2.53187
25 6.02795 0 0 1.0877 0.984696 0.512361
26 11.7344 0 0 0.00140275 0 2.0106
27 8.81167 0 0 0.796118 0 0
28 5.77884 0 0 0.533399 0 0
29 2.23249 0 0 0.262719 0 0
30 11.4725 0 0 0.815452 0.110964 -0.418344
31 0.615812 0.994373 -0.809166 -2.72226 0.463503 0.286233
32 2.24752 0 0 -0.0835969 0.0959308 0.272288
33 1.11936 0 0 -0.401236 0.450129 0.842933
34 3.71348 0.102639 0.102192 -1.41386 1.26431 0.0816934
35 1.72615 0 0 0.00069841 0.000241777 1.34896
36 1.21112 0 0 0.0115403 0.0133365 1.31081
37 3.5992 1.06012 0.0708885 -1.68043 1.04215 -0.112109
38 1.66069 0 0 0.0062072 0.00200645 1.47997
39 1.16699 0 0 -0.0701394 0.164234 1.21657
40 2.18853 -0.50104 0.0576591 -1.57605 0.00117808 -0.0469346
41 1.29609 0 0 -0.0326375 -0.0616158 1.17811
42 1.62202 -0.000711441 -0.000470161 -0.00508026 -0.00330951 1.42626
43 1.22241 0 0 0.024702 -0.0856984 1.42308
44 1.76707 -1.27612 0.0366402 -1.56655 0.103701 0.0275536
45 1.55588 0 0 0.103891 -0.0756531 0.975564
46 1.24273 0 0 -0.00469966 -0.038069 1.28397
47 0.784531 0 0 -0.012743 -0.0577752 1.00048
48 0 0 0 0 0 0
49 -6.94354 -20.5078 -8.09953 -0.268309 -0.319718 0.395529
50 -0.49446 -2.33627 -0.838784 0 0 0
time 14
0 1.938 -5.35377 -9.8888 0 0 -0.814469
1 6.02794 0 0 -0.409463 0.760148 -0.816505
2 11.7344 0 0 -0.00140279 0 -1.64127
3 8.81138 -0.000450134 -0.00011158 1.33268 0 0.00015806
4 5.77839 0.000286102 0 0.892896 0 0.000114135
5 2.23163 -0.000328064 -0.00036335 0.439785 0 0
6 11.4725 0 0 -0.778001 -1.35122 1.49421
7 0.615219 -0.99309 -0.810699 2.92227 0.454999 -0.33141
8 2.24752 0 0 0.0643998 0.0920015 -0.24525
9 1.11936 0 0 0.012409 0.0391454 -1.16006
10 3.71348 -0.102641 0.102192 1.44559 1.26927 -0.122845
11 1.72615 0 0 -0.0132949 0.00454363 -1.35296
12 1.21114 0 0 -0.0138878 0.0108709 -1.50415
13 3.59919 -1.06012 0.0708885 1.59719 1.13552 0.0844623
14 1.66068 0 0 0.0206525 0.106434 -1.46129
15 1.167 0 0 0.140204 0.107864 -1.2636
16 2.18852 0.50104 0.0576591 1.58026 0.110062 0.0312636
17 1.29609 0 0 -0.0214549 0.0115006 -1.06235
18 1.62202 0.000714779 -0.000471115 -0.00757003 0.00444266 -1.4728
19 1.22241 0 0 -0.046983 -0.00376792 -1.43289
20 1.76707 1.27612 0.0366421 1.57845 0.182304 -0.0214509
21 1.55588 0 0 -0.155245 -0.00355042 -0.857709
22 1.24273 0 0 -0.000505143 -0.000323052 -1.24825
23 0.784523 0 0 0.00822045 0.0140817 -0.754785
24 -1.93761 -2.44921 -10.9249 -0.000932534 0 -2.53187
25 6.02794 0 0 1.19136 0.896304 0.582354
26 11.7344 0 0 0.00140273 0 1.81141
27 8.81167 0 0 0.799487 0 0
28 5.77884 0 0 0.535657 0 0
29 2.23249 0 0 0.263831 0 0
30 11.4725 0 0 0.803732 0.0641085 -0.219157
31 0.615812 0.994372 -0.809166 -2.72226 0.463503 0.286233
32 2.24752 0 0 -0.0835969 0.0959305 0.272288
33 1.11936 0 0 -0.401235 0.450129 0.842933
34 3.71348 0.102639 0.102192 -1.41386 1.26431 0.0816932
35 1.72615 0 0 0.000698413 0.000241732 1.34896
36 1.21112 0 0 0.0115403 0.0133365 1.31081
37 3.5992 1.06012 0.0708885 -1.68043 1.04215 -0.112109
38 1.66069 0 0 0.0062072 0.00200645 1.47997
39 1.16699 0 0 -0.0701393 0.164234 1.21657
40 2.18853 -0.50104 0.0576591 -1.57605 0.00117799 -0.0469346
41 1.29609 0 0 -0.0326375 -0.0616158 1.17811
42 1.62202 -0.000711441 -0.000471115 -0.0050804 -0.00330944 1.42626
43 1.22241 0 0 0.024702 -0.0856985 1.42308
44 1.76707 -1.27612 0.0366402 -1.56655 0.103701 0.0275536
45 1.55587 0 0 0.103891 -0.075653 0.975564
46 1.24273 0 0 -0.00469952 -0.0380689 1.28397
47 0.784531 0 0 -0.0127429 -0.0577751 1.00048
48 0 0 0 0 0 0
49 -7.82064 -21.5359 -6.77394 -0.398315 -0.309346 0.378186
50 -0.49446 -2.33627 -0.838784 0 0 0
time 15
0 1.938 -4.33139 -9.18106 0 0 -0.814469
1 6.02794 0 0 -0.508391 0.695103 -0.878342
2 11.7344 0 0 -0.00140287 0 -1.43692
3 8.81138 -0.000450134 -0.000112534 1.14619 0 0.000157155
4 5.77839 0.000286102 0 0.76795 0 0.000112142
5 2.23163 -0.000328064 -0.000364304 0.378244 0 0
6 11.4725 0 0 -0.367104 -1.32488 0.919978
7 0.61522 -0.993092 -0.810701 2.92227 0.454999 -0.33141
8 2.24752 0 0 0.0643998 0.0920016 -0.24525
9 1.11936 0 0 0.0124088 0.0391455 -1.16006
10 3.71348 -0.10264 0.10219 1.44559 1.26927 -0.122846
11 1.72615 0 0 -0.0132949 0.00454391 -1.35296
12 1.21114 0 0 -0.0138879 0.0108708 -1.50415
13 3.59919 -1.06012 0.0708885 1.59719 1.13552 0.0844624
14 1.66068 0 0 0.0206525 0.106434 -1.46129
15 1.167 0 0 0.140204 0.107864 -1.2636
16 2.18852 0.50104 0.0576591 1.58026 0.110062 0.0312635
17 1.29609 0 0 -0.021455 0.0115006 -1.06235
18 1.62202 0.000713825 -0.000471115 -0.00756991 0.00444249 -1.4728
19 1.22241 0 0 -0.0469831 -0.00376772 -1.43289
20 1.76707 1.27612 0.0366421 1.57845 0.182304 -0.0214512
21 1.55588 0 0 -0.155246 -0.00355044 -0.857709
22 1.24273 0 0 -0.000505106 -0.000322952 -1.24825
23 0.784523 0 0 0.00822039 0.0140818 -0.754785
24 -1.93761 -2.18921 -9.93787 -0.000932534 0 -2.53187
25 6.02795 0 0 1.23526 0.86764 0.606314
26 11.7344 0 0 0.00140265 0 1.69549
27 8.81167 0 0 0.78264 0 0
28 5.77884 0 0 0.524369 0 0
29 2.23249 0 0 0.258271 0 0
30 11.4725 0 0 0.782473 0.039372 -0.0890253
31 0.615812 0.994372 -0.809166 -2.72226 0.463503 0.286233
32 2.24752 0 0 -0.0835969 0.0959307 0.272288
33 1.11936 0 0 -0.401236 0.450129 0.842934
34 3.71348 0.102639 0.102192 -1.41386 1.26431 0.0816933
35 1.72615 0 0 0.000698467 0.000241751 1.34896
36 1.21112 0 0 0.0115402 0.0133366 1.31081
37 3.5992 1.06012 0.0708885 -1.68043 1.04215 -0.112109
38 1.66069 0 0 0.00620716 0.00200649 1.47997
39 1.16699 0 0 -0.0701393 0.164234 1.21657
40 2.18853 -0.50104 0.0576591 -1.57605 0.00117804 -0.0469346
41 1.29609 0 0 -0.0326375 -0.0616157 1.17811
42 1.62202 -0.000713348 -0.000469208 -0.00508021 -0.0033095 1.42626
43 1.22241 0 0 0.024702 -0.0856984 1.42308
44 1.76707 -1.27612 0.0366421 -1.56655 0.103701 0.0275535
45 1.55588 0 0 0.103891 -0.0756529 0.975564
46 1.24273 0 0 -0.00469969 -0.0380688 1.28397
47 0.784534 0 0 -0.012743 -0.0577753 1.00048
48 0 0 0 0 0 0
49 -8.34798 -21.9889 -6.05715 -0.460813 -0.300487 0.358528
50 -0.49446 -2.33627 -0.838784 0 0 0
time 16
0 1.938 -3.42222 -8.54876 0 0 -0.814469
1 6.02794 0 0 -0.548216 0.659888 -0.918736
2 11.7344 0 0 -0.00140297 0 -1.2832
3 8.81138 -0.000450134 -0.000112534 0.971123 0 0.000157463
4 5.77839 0.000286102 0 0.650653 0 0.000110993
5 2.23163 -0.000328064 -0.00036335 0.320471 0 0
6 11.4725 0 0 -0.278342 -1.29682 0.693848
7 0.61522 -0.993092 -0.810699 2.92227 0.454999 -0.331411
8 2.24752 0 0 0.0643998 0.0920015 -0.24525
9 1.11936 0 0 0.0124089 0.0391454 -1.16006
10 3.71348 -0.102642 0.10219 1.44559 1.26927 -0.122845
11 1.72615 0 0 -0.013295 0.00454354 -1.35296
12 1.21114 0 0 -0.0138877 0.010871 -1.50415
13 3.59919 -1.06012 0.0708866 1.59719 1.13552 0.0844625
14 1.66069 0 0 0.0206525 0.106434 -1.46129
15 1.167 0 0 0.140204 0.107864 -1.2636
16 2.18852 0.50104 0.0576591 1.58026 0.110062 0.0312636
17 1.29609 0 0 -0.0214551 0.0115007 -1.06235
18 1.62201 0.000713348 -0.000471115 -0.0075701 0.00444244 -1.4728
19 1.22241 0 0 -0.0469829 -0.00376799 -1.43289
20 1.76707 1.27612 0.0366421 1.57845 0.182304 -0.021451
21 1.55588 0 0 -0.155246 -0.00355024 -0.857709
22 1.24274 0 0 -0.000505234 -0.000322824 -1.24825
23 0.784523 0 0 0.00822031 0.0140816 -0.754785
24 -1.93761 -1.97115 -9.05696 -0.000932534 0 -2.53187
25 6.02795 0 0 1.24962 0.885242 0.611625
26 11.7344 0 0 0.00140262 0 1.64303
27 8.81167 0 0 0.749613 0 0
28 5.77884 0 0 0.502241 0 0
29 2.23249 0 0 0.247372 0 0
30 11.4725 0 0 0.749346 0.0246838 -0.0109342
31 0.615812 0.994371 -0.809166 -2.72226 0.463503 0.286233
32 2.24752 0 0 -0.0835969 0.0959305 0.272288
33 1.11936 0 0 -0.401235 0.450129 0.842933
34 3.71349 0.102639 0.102192 -1.41386 1.26431 0.0816935
35 1.72615 0 0 0.000698528 0.000241781 1.34896
36 1.21112 0 0 0.0115403 0.0133365 1.31081
37 3.5992 1.06012 0.0708885 -1.68043 1.04215 -0.112109
38 1.66069 0 0 0.00620722 0.00200652 1.47997
39 1.16699 0 0 -0.0701394 0.164234 1.21657
40 2.18853 -0.50104 0.0576591 -1.57605 0.00117791 -0.0469348
41 1.29609 0 0 -0.0326375 -0.0616159 1.17811
42 1.62201 -0.000711441 -0.000470161 -0.00508029 -0.00330954 1.42626
43 1.2224 0 0 0.024702 -0.0856984 1.42308
44 1.76707 -1.27612 0.0366402 -1.56655 0.103701 0.0275534
45 1.55588 0 0 0.103891 -0.0756531 0.975564
46 1.24273 0 0 -0.00469948 -0.0380688 1.28397
47 0.784533 0 0 -0.0127429 -0.0577754 1.00048
48 0 0 0 0 0 0
49 -8.56426 -22.069 -5.81397 -0.477159 -0.290959 0.330905
50 -0.49446 -2.33627 -0.838784 0 0 0
time 17
0 1.938 -2.65866 -8.01564 0 0 -0.814469
1 6.02794 0 0 -0.571839 0.635354 -0.951031
2 11.7344 0 0 -0.00140263 0 -1.14992
3 8.81138 -0.000452042 -0.00011158 0.734047 0 0.000158115
4 5.77839 0.00028801 0 0.491811 0 0.000109915
5 2.23163 -0.000329971 -0.000364304 0.242235 0 0
6 11.4725 0 0 -0.257604 -1.27029 0.54223
7 0.61522 -0.99309 -0.810699 2.92227 0.454999 -0.33141
8 2.24752 0 0 0.0643998 0.0920016 -0.24525
9 1.11936 0 0 0.012409 0.0391454 -1.16006
10 3.71348 -0.102638 0.102192 1.44559 1.26927 -0.122846
11 1.72615 0 0 -0.013295 0.0045437 -1.35296
12 1.21114 0 0 -0.0138876 0.0108708 -1.50415
13 3.59919 -1.06012 0.0708885 1.59719 1.13552 0.0844622
14 1.66069 0 0 0.0206523 0.106434 -1.46129
15 1.167 0 0 0.140204 0.107864 -1.2636
16 2.18853 0.50104 0.0576591 1.58026 0.110062 0.0312637
17 1.29609 0 0 -0.021455 0.0115009 -1.06235
18 1.62202 0.000714302 -0.000471115 -0.00757 0.00444245 -1.4728
19 1.22241 0 0 -0.0469829 -0.00376792 -1.43289
20 1.76707 1.27612 0.0366421 1.57845 0.182304 -0.021451
21 1.55587 0 0 -0.155246 -0.00355027 -0.857709
22 1.24273 0 0 -0.000505286 -0.000323008 -1.24825
23 0.784523 0 0 0.00822031 0.0140817 -0.754785
24 -1.93761 -1.79739 -8.31492 -0.000932534 0 -2.53187
25 6.02794 0 0 1.25462 0.912155 0.616001
26 11.7344 0 0 0.00140268 0 1.60763
27 8.81167 0 0 0.70632 0 0
28 5.77884 0 0 0.473235 0 0
29 2.23249 0 0 0.233086 0 0
30 11.4725 0 0 0.707034 0.00492187 0.0485336
31 0.615812 0.994371 -0.809166 -2.72226 0.463503 0.286233
32 2.24752 0 0 -0.0835969 0.0959307 0.272288
33 1.11936 0 0 -0.401236 0.450129 0.842933
34 3.71348 0.10264 0.10219 -1.41386 1.26431 0.0816933
35 1.72615 0 0 0.000698584 0.000241707 1.34896
36 1.21112 0 0 0.0115403 0.0133365 1.31081
37 3.5992 1.06012 0.0708866 -1.68043 1.04215 -0.112109
38 1.66069 0 0 0.00620723 0.00200643 1.47997
39 1.16699 0 0 -0.0701393 0.164234 1.21657
40 2.18853 -0.50104 0.0576572 -1.57605 0.00117809 -0.0469346
41 1.29609 0 0 -0.0326375 -0.0616157 1.17811
42 1.62201 -0.000713348 -0.000469208 -0.00508037 -0.0033095 1.42626
43 1.22241 0 0 0.0247019 -0.0856985 1.42308
44 1.76707 -1.27612 0.0366402 -1.56655 0.103701 0.0275535
45 1.55587 0 0 0.103891 -0.0756531 0.975564
46 1.24273 0 0 -0.00469943 -0.0380689 1.28397
47 0.784533 0 0 -0.012743 -0.0577751 1.00048
48 0 0 0 0 0 0
49 -8.60971 -22.0781 -5.77519 -0.480415 -0.279816 0.295106
50 -0.49446 -2.33627 -0.838784 0 0 0
time 18
0 1.938 -2.07313 -7.60544 0 0 -0.814469
1 6.02794 0 0 -0.586221 0.618517 -0.977816
2 11.7344 0 0 -0.00140291 0 -1.04173
3 8.81138 -0.000450134 -0.00011158 0.458903 0 0.000158088
4 5.77839 0.000286102 0 0.307465 0 0.000108274
5 2.23163 -0.000328064 -0.00036335 0.151438 0 0
6 11.4725 0 0 -0.264078 -1.24854 0.437208
7 0.615217 -0.993092 -0.810699 2.92227 0.454999 -0.33141
8 2.24752 0 0 0.0643998 0.0920016 -0.24525
9 1.11936 0 0 0.0124091 0.0391454 -1.16006
10 3.71348 -0.102642 0.102192 1.44559 1.26927 -0.122846
11 1.72615 0 0 -0.0132949 0.00454344 -1.35296
12 1.21114 0 0 -0.0138877 0.0108708 -1.50415
13 3.59919 -1.06012 0.0708885 1.59719 1.13552 0.0844623
14 1.66069 0 0 0.0206524 0.106433 -1.46129
15 1.167 0 0 0.140204 0.107864 -1.2636
16 2.18852 0.501038 0.0576591 1.58026 0.110062 0.0312636
17 1.29609 0 0 -0.021455 0.0115006 -1.06235
18 1.62202 0.000714779 -0.000471115 -0.00756991 0.00444257 -1.4728
19 1.22241 0 0 -0.0469829 -0.00376774 -1.43289
20 1.76707 1.27612 0.0366421 1.57845 0.182304 -0.0214511
21 1.55588 0 0 -0.155246 -0.00355028 -0.857709
22 1.24273 0 0 -0.000505295 -0.000323198 -1.24825
23 0.784523 0 0 0.00822037 0.0140817 -0.754785
24 -1.93761 -1.67033 -7.74442 -0.000932534 0 -2.53187
25 6.02794 0 0 1.25537 0.940305 0.619047
26 11.7344 0 0 0.00140276 0 1.58501
27 8.81167 0 0 0.664344 0 0
28 5.77884 0 0 0.445111 0 0
29 2.23249 0 0 0.219234 0 0
30 11.4725 0 0 0.665522 -0.0147222 0.0923541
31 0.615812 0.99437 -0.809166 -2.72226 0.463503 0.286233
32 2.24752 0 0 -0.0835969 0.0959306 0.272288
33 1.11936 0 0 -0.401235 0.450129 0.842933
34 3.71348 0.102638 0.10219 -1.41386 1.26431 0.0816934
35 1.72615 0 0 0.000698373 0.000241778 1.34896
36 1.21112 0 0 0.0115403 0.0133365 1.31081
37 3.5992 1.06012 0.0708866 -1.68043 1.04215 -0.11211
38 1.66069 0 0 0.00620698 0.00200652 1.47997
39 1.16699 0 0 -0.0701393 0.164234 1.21657
40 2.18853 -0.501041 0.0576591 -1.57605 0.00117803 -0.0469346
41 1.29609 0 0 -0.0326375 -0.0616158 1.17811
42 1.62201 -0.000711441 -0.000469208 -0.00508023 -0.00330952 1.42626
43 1.22241 0 0 0.0247019 -0.0856985 1.42308
44 1.76707 -1.27612 0.0366402 -1.56655 0.103701 0.0275536
45 1.55588 0 0 0.103891 -0.0756531 0.975564
46 1.24273 0 0 -0.0046996 -0.0380688 1.28397
47 0.784533 0 0 -0.012743 -0.0577752 1.00048
48 0 0 0 0 0 0
49 -8.58051 -22.0455 -5.84744 -0.477702 -0.2692 0.259354
50 -0.49446 -2.33627 -0.838784 0 0 0
time 19
0 1.938 -1.69805 -7.34191 0 0 -0.814469
1 6.02794 0 0 -0.596661 0.605978 -1.00109
2 11.7344 0 0 -0.00140275 0 -0.962067
3 8.81138 -0.000450134 -0.00011158 0.225958 0 0.000157224
4 5.77839 0.000286102 0 0.151392 0 0.00010643
5 2.23163 -0.000329971 -0.000362396 0.0745662 0 0
6 11.4725 0 0 -0.270149 -1.23441 0.362732
7 0.615219 -0.993092 -0.810699 2.92227 0.454999 -0.33141
8 2.24752 0 0 0.0643998 0.0920014 -0.24525
9 1.11936 0 0 0.0124088 0.0391455 -1.16006
10 3.71348 -0.102642 0.10219 1.44559 1.26927 -0.122846
11 1.72615 0 0 -0.0132948 0.00454337 -1.35296
12 1.21113 0 0 -0.0138876 0.0108709 -1.50415
13 3.59919 -1.06012 0.0708866 1.59719 1.13552 0.0844625
14 1.66068 0 0 0.0206527 0.106433 -1.46129
15 1.167 0 0 0.140204 0.107864 -1.2636
16 2.18852 0.501038 0.0576572 1.58026 0.110062 0.0312637
17 1.29609 0 0 -0.021455 0.0115007 -1.06235
18 1.62202 0.000713825 -0.000469208 -0.00756987 0.0044424 -1.4728
19 1.22241 0 0 -0.0469829 -0.00376768 -1.43289
20 1.76707 1.27612 0.0366402 1.57845 0.182304 -0.021451
21 1.55588 0 0 -0.155245 -0.00355037 -0.857709
22 1.24273 0 0 -0.000505095 -0.000323018 -1.24825
23 0.784523 0 0 0.00822042 0.0140817 -0.754785
24 -1.93761 -1.59234 -7.37815 -0.000932534 0 -2.53187
25 6.02794 0 0 1.25746 0.961183 0.620908
26 11.7344 0 0 0.00140276 0 1.57074
27 8.81167 0 0 0.63342 0 0
28 5.77884 0 0 0.424391 0 0
29 2.23249 0 0 0.209029 0 0
30 11.4725 0 0 0.634582 -0.0283682 0.123071
31 0.615812 0.99437 -0.809164 -2.72226 0.463503 0.286233
32 2.24752 0 0 -0.0835971 0.0959307 0.272288
33 1.11936 0 0 -0.401235 0.450129 0.842934
34 3.71349 0.102638 0.10219 -1.41386 1.26431 0.0816932
35 1.72615 0 0 0.000698442 0.000241673 1.34896
36 1.21112 0 0 0.0115403 0.0133366 1.31081
37 3.5992 1.06011 0.0708885 -1.68043 1.04215 -0.112109
38 1.66069 0 0 0.00620721 0.0020065 1.47997
39 1.16699 0 0 -0.0701392 0.164234 1.21657
40 2.18853 -0.501041 0.0576591 -1.57605 0.00117788 -0.0469344
41 1.29609 0 0 -0.0326375 -0.0616159 1.17811
42 1.62201 -0.000713348 -0.000471115 -0.00508031 -0.00330966 1.42626
43 1.22241 0 0 0.0247019 -0.0856984 1.42308
44 1.76707 -1.27612 0.0366421 -1.56655 0.103701 0.0275535
45 1.55587 0 0 0.103891 -0.0756531 0.975564
46 1.24273 0 0 -0.00469975 -0.0380689 1.28397
47 0.784531 0 0 -0.0127428 -0.0577753 1.00048
48 0 0 0 0 0 0
49 -8.57283 -22.0005 -5.93733 -0.476143 -0.261257 0.231873
50 -0.49446 -2.33627 -0.838784 0 0 0
time 20
0 1.938 -1.56582 -7.2488 0 0 -0.814469
1 6.02794 0 0 -0.60755 0.594158 -1.02241
2 11.7344 0 0 -0.00140287 0 -0.914687
3 8.81138 -0.000450134 -0.000113487 0.116363 0 0.000158206
4 5.77839 0.000286102 0 0.0779634 0 0.0001066
5 2.23163 -0.000328064 -0.000365257 0.0383998 0 0
6 11.4725 0 0 -0.254129 -1.23107 0.308825
7 0.615218 -0.993093 -0.810698 2.92227 0.454999 -0.33141
8 2.24752 0 0 0.0643998 0.0920015 -0.24525
9 1.11936 0 0 0.012409 0.0391455 -1.16006
10 3.71348 -0.102642 0.102192 1.44559 1.26927 -0.122844
11 1.72614 0 0 -0.0132949 0.00454353 -1.35296
12 1.21113 0 0 -0.0138875 0.0108707 -1.50415
13 3.59919 -1.06012 0.0708885 1.59719 1.13552 0.0844631
14 1.66068 0 0 0.0206524 0.106433 -1.46129
15 1.167 0 0 0.140204 0.107864 -1.2636
16 2.18852 0.501038 0.0576591 1.58026 0.110062 0.0312637
17 1.29609 0 0 -0.0214549 0.0115008 -1.06235
18 1.62202 0.000714779 -0.000473022 -0.00757013 0.00444233 -1.4728
19 1.22241 0 0 -0.0469828 -0.00376806 -1.43289
20 1.76707 1.27612 0.0366421 1.57845 0.182304 -0.0214509
21 1.55588 0 0 -0.155246 -0.00355026 -0.857709
22 1.24273 0 0 -0.000505292 -0.000323049 -1.24825
23 0.784523 0 0 0.00822041 0.0140817 -0.754785
24 -1.93761 -1.56582 -7.2488 -0.000932534 0 -2.53187
25 6.02794 0 0 1.26685 0.966574 0.621782
26 11.7344 0 0 0.00140263 0 1.56183
27 8.81167 0 0 0.622 0 0
28 5.77884 0 0 0.41674 0 0
29 2.23249 0 0 0.20526 0 0
30 11.4725 0 0 0.623851 -0.0292449 0.142096
31 0.615811 0.994372 -0.809166 -2.72226 0.463503 0.286233
32 2.24752 0 0 -0.0835969 0.0959307 0.272288
33 1.11936 0 0 -0.401235 0.450129 0.842933
34 3.71349 0.102639 0.10219 -1.41386 1.26431 0.0816927
35 1.72615 0 0 0.000698346 0.000241887 1.34896
36 1.21112 0 0 0.0115403 0.0133364 1.31081
37 3.5992 1.06012 0.0708885 -1.68043 1.04215 -0.112109
38 1.66069 0 0 0.00620727 0.00200644 1.47997
39 1.16699 0 0 -0.0701393 0.164234 1.21657
40 2.18853 -0.50104 0.0576591 -1.57605 0.00117788 -0.0469346
41 1.29609 0 0 -0.0326373 -0.0616158 1.17811
42 1.62201 -0.000711441 -0.000469208 -0.00508027 -0.00330939 1.42626
43 1.22241 0 0 0.0247019 -0.0856982 1.42308
44 1.76707 -1.27612 0.0366421 -1.56655 0.103701 0.0275535
45 1.55588 0 0 0.103891 -0.0756531 0.975564
46 1.24273 0 0 -0.00469962 -0.0380688 1.28397
47 0.784533 0 0 -0.0127428 -0.0577753 1.00048
48 0 0 0 0 0 0
49 -8.68284 -21.9724 -5.95148 -0.482858 -0.258133 0.220885
50 -0.49446 -2.33627 -0.838784 0 0 0
end
