//Sequence File generated by the Wall Worm SMD Exporter PRO 1.99
//www.wallworm.com
version 1
nodes
0 "b_l_upperarm" -1
1 "b_l_forearm" 0
2 "b_l_twist3" 1
3 "b_l_twist2" 1
4 "b_l_twist1" 1
5 "b_l_hand" 1
6 "b_l_thumb001" 5
7 "b_l_thumb002" 6
8 "b_l_thumb003" 7
9 "b_l_middle001" 5
10 "b_l_middle002" 9
11 "b_l_middle003" 10
12 "b_l_index001" 5
13 "b_l_index002" 12
14 "b_l_index003" 13
15 "b_l_hand_ringsqueezer" 5
16 "b_l_ring001" 15
17 "b_l_ring002" 16
18 "b_l_ring003" 17
19 "b_l_hand_pinkysqueezer" 5
20 "b_l_pinky001" 19
21 "b_l_pinky002" 20
22 "b_l_pinky003" 21
23 "b_r_clav" -1
24 "b_r_upperarm" 23
25 "b_r_forearm" 24
26 "b_r_twist3" 25
27 "b_r_twist2" 25
28 "b_r_twist1" 25
29 "b_r_hand" 25
30 "b_r_thumb001" 29
31 "b_r_thumb002" 30
32 "b_r_thumb003" 31
33 "b_r_middle001" 29
34 "b_r_middle002" 33
35 "b_r_middle003" 34
36 "b_r_index001" 29
37 "b_r_index002" 36
38 "b_r_index003" 37
39 "b_r_hand_ringsqueezer" 29
40 "b_r_ring001" 39
41 "b_r_ring002" 40
42 "b_r_ring003" 41
43 "b_r_hand_pinkysqueezer" 29
44 "b_r_pinky001" 43
45 "b_r_pinky002" 44
46 "b_r_pinky003" 45
47 "b_zero" -1
48 "ctrl_l_hand" -1
49 "ctrl_r_hand" -1
50 "d_wepinbone" -1
51 "glock_materials" -1
end
skeleton
time 0
0 6.07472 -5.9503 -7.2488 -0.60755 0.594158 -1.83688
1 11.7344 0 0 -0.00140276 0 -0.914687
2 8.81138 -0.000450134 -0.00011158 0.116364 0 0.000157777
3 5.77839 0.000284195 0 0.0779639 0 0.00010624
4 2.23163 -0.000329971 -0.00036335 0.0384 0 0
5 11.4725 0 0 -0.254129 -1.23107 0.308825
6 0.615221 -0.993093 -0.810699 2.92227 0.454999 -0.33141
7 2.24752 0 0 0.0643999 0.0920015 -0.24525
8 1.11936 0 0 0.0124091 0.0391454 -1.16006
9 3.71348 -0.102644 0.10219 1.44559 1.26927 -0.122845
10 1.72614 0 0 -0.0132949 0.00454368 -1.35296
11 1.21114 0 0 -0.0138878 0.0108707 -1.50415
12 3.5992 -1.06012 0.0708866 1.59719 1.13552 0.0844624
13 1.66069 0 0 0.0206524 0.106434 -1.46129
14 1.167 0 0 0.140204 0.107864 -1.2636
15 2.18853 0.501038 0.0576591 1.58026 0.110062 0.0312636
16 1.29609 0 0 -0.021455 0.0115008 -1.06235
17 1.62202 0.000713825 -0.000471115 -0.00757008 0.00444246 -1.4728
18 1.22241 0 0 -0.0469829 -0.00376813 -1.43289
19 1.76707 1.27612 0.0366402 1.57845 0.182304 -0.0214511
20 1.55588 0 0 -0.155246 -0.00355041 -0.857709
21 1.24274 0 0 -0.000505279 -0.000322966 -1.24825
22 0.784522 0 0 0.00822031 0.0140818 -0.754785
23 -1.93761 -1.56582 -7.2488 -0.000932534 0 -2.53187
24 6.02794 0 0 1.26685 0.966574 0.621782
25 11.7344 0 0 0.00140279 0 1.56182
26 8.81167 0 0 0.622 0 0
27 5.77884 0 0 0.41674 0 0
28 2.23249 0 0 0.20526 0 0
29 11.4725 0 0 0.623851 -0.0292451 0.142096
30 0.615812 0.994371 -0.809162 -2.72226 0.463503 0.286233
31 2.24752 0 0 -0.083597 0.0959307 0.272288
32 1.11936 0 0 -0.401235 0.450129 0.842933
33 3.71349 0.102638 0.102192 -1.41386 1.26431 0.0816935
34 1.72615 0 0 0.000698442 0.000241673 1.34896
35 1.21112 0 0 0.0115404 0.0133366 1.31081
36 3.5992 1.06011 0.0708885 -1.68043 1.04215 -0.112109
37 1.66069 0 0 0.00620719 0.00200648 1.47997
38 1.16699 0 0 -0.0701393 0.164234 1.21657
39 2.18853 -0.501041 0.0576611 -1.57605 0.00117794 -0.0469344
40 1.29609 0 0 -0.0326375 -0.0616157 1.17811
41 1.62201 -0.000713348 -0.000469208 -0.00508026 -0.0033096 1.42626
42 1.22241 0 0 0.024702 -0.0856982 1.42308
43 1.76707 -1.27612 0.0366421 -1.56655 0.103701 0.0275535
44 1.55588 0 0 0.103891 -0.0756531 0.975564
45 1.24273 0 0 -0.00469944 -0.0380688 1.28397
46 0.784533 0 0 -0.0127428 -0.0577752 1.00048
47 0 0 0 0 0 0
48 -5.97196 -21.7669 -13.4357 -1.30402 -0.614816 -1.34887
49 -8.87988 -20.9943 -10.782 1.99513 -0.708409 -1.54811
50 -8.68284 -21.9724 -5.95148 -0.482858 -0.258133 0.220885
51 -0.49446 -2.33627 -0.838784 0 0 0
time 1
0 6.07472 -5.9503 -7.2488 -0.644958 0.599038 -1.90191
1 11.7344 0 0 -0.00140287 0 -1.00851
2 8.81138 -0.000450134 -0.000110626 0.871924 0 0.000158278
3 5.77839 0.000286102 0 0.584189 0 0.000110934
4 2.23163 -0.000328064 -0.00036335 0.287735 0 0
5 11.4725 0 0 0.79681 -1.19771 -0.513269
6 0.615218 -0.993091 -0.810701 2.92227 0.454999 -0.33141
7 2.24752 0 0 0.0643998 0.0920014 -0.24525
8 1.11935 0 0 0.0124087 0.0391454 -1.16006
9 3.71348 -0.10264 0.10219 1.44559 1.26927 -0.122846
10 1.72615 0 0 -0.0132947 0.00454372 -1.35296
11 1.21114 0 0 -0.0138878 0.0108709 -1.50415
12 3.59919 -1.06012 0.0708885 1.59719 1.13552 0.0844622
13 1.66069 0 0 0.0206524 0.106434 -1.46129
14 1.167 0 0 0.140204 0.107864 -1.2636
15 2.18852 0.50104 0.0576572 1.58026 0.110062 0.0312637
16 1.29609 0 0 -0.0214547 0.0115006 -1.06235
17 1.62202 0.000714302 -0.000469208 -0.00757006 0.00444288 -1.4728
18 1.22241 0 0 -0.0469831 -0.00376772 -1.43289
19 1.76707 1.27612 0.0366383 1.57845 0.182304 -0.021451
20 1.55588 0 0 -0.155245 -0.00355034 -0.857709
21 1.24273 0 0 -0.000505255 -0.000322949 -1.24825
22 0.784522 0 0 0.00822033 0.0140819 -0.754785
23 -1.93761 -1.56582 -7.2488 -0.000932534 0 -2.53187
24 6.02794 0 0 1.24668 1.0767 0.467001
25 11.7344 0 0 0.00140267 0 1.74128
26 8.81167 0 0 0.862774 0 0
27 5.77884 0 0 0.578059 0 0
28 2.23249 0 0 0.284716 0 0
29 11.4725 0 0 0.857426 -0.15171 0.265614
30 0.615813 0.99437 -0.809164 -2.72226 0.463503 0.286233
31 2.24752 0 0 -0.0835969 0.0959307 0.272288
32 1.11936 0 0 -0.401236 0.450129 0.842933
33 3.71349 0.102638 0.102194 -1.41386 1.26431 0.0816928
34 1.72615 0 0 0.00069843 0.000241801 1.34896
35 1.21112 0 0 0.0115404 0.0133366 1.31081
36 3.5992 1.06012 0.0708885 -1.68043 1.04215 -0.112109
37 1.66069 0 0 0.00620719 0.00200635 1.47997
38 1.16699 0 0 -0.0701394 0.164234 1.21657
39 2.18853 -0.50104 0.0576591 -1.57605 0.00117795 -0.0469346
40 1.29609 0 0 -0.0326374 -0.0616157 1.17811
41 1.62201 -0.000713348 -0.000470161 -0.00508029 -0.0033094 1.42626
42 1.22241 0 0 0.024702 -0.0856983 1.42308
43 1.76707 -1.27612 0.0366421 -1.56655 0.103701 0.0275535
44 1.55588 0 0 0.103891 -0.0756531 0.975564
45 1.24273 0 0 -0.00469958 -0.0380689 1.28397
46 0.784533 0 0 -0.0127429 -0.0577752 1.00048
47 0 0 0 0 0 0
48 -7.12275 -20.4817 -12.4948 -1.09604 -0.901815 -1.45222
49 -10.3869 -19.116 -10.7915 2.3771 -0.915316 -1.82904
50 -11.3449 -18.9565 -5.95557 -0.788512 -0.424803 0.323603
51 -0.49446 -2.33627 -0.838784 0 0 0
time 2
0 6.07472 -5.9503 -7.2488 -0.766715 0.567643 -2.08046
1 11.7344 0 0 -0.00140276 0 -1.19048
2 8.81138 -0.000450134 -0.000112534 1.33751 0 0.000157889
3 5.77839 0.000284195 0 0.896134 0 0.000114058
4 2.23163 -0.000331879 -0.000364304 0.441379 0 0
5 11.4725 0 0 1.32927 -0.753832 -0.562403
6 0.615218 -0.993091 -0.810699 2.92227 0.454999 -0.331411
7 2.24752 0 0 0.0643998 0.0920016 -0.245251
8 1.11936 0 0 0.012409 0.0391453 -1.16006
9 3.71348 -0.10264 0.10219 1.44559 1.26927 -0.122846
10 1.72615 0 0 -0.013295 0.00454345 -1.35296
11 1.21114 0 0 -0.0138878 0.0108708 -1.50415
12 3.59919 -1.06012 0.0708866 1.59719 1.13552 0.0844625
13 1.66069 0 0 0.0206526 0.106434 -1.46129
14 1.167 0 0 0.140204 0.107864 -1.2636
15 2.18852 0.501039 0.0576591 1.58026 0.110062 0.0312636
16 1.29609 0 0 -0.021455 0.0115007 -1.06235
17 1.62202 0.000713825 -0.000470161 -0.00756995 0.00444266 -1.4728
18 1.22241 0 0 -0.0469831 -0.00376774 -1.43289
19 1.76707 1.27612 0.0366421 1.57845 0.182304 -0.021451
20 1.55588 0 0 -0.155245 -0.00355029 -0.857709
21 1.24273 0 0 -0.000505088 -0.000322976 -1.24825
22 0.784522 0 0 0.00822027 0.0140819 -0.754785
23 -1.93761 -1.56582 -7.2488 -0.000932534 0 -2.53187
24 6.02794 0 0 1.35407 1.20375 0.294171
25 11.7344 0 0 0.00140263 0 2.05665
26 8.81167 0 0 1.29894 0 0
27 5.77884 0 0 0.870288 0 0
28 2.23249 0 0 0.42865 0 0
29 11.4725 0 0 1.2768 -0.393584 0.030491
30 0.615813 0.994372 -0.809166 -2.72226 0.463503 0.286233
31 2.24752 0 0 -0.083597 0.0959308 0.272288
32 1.11936 0 0 -0.401235 0.450129 0.842933
33 3.71348 0.102639 0.102192 -1.41386 1.26431 0.0816927
34 1.72615 0 0 0.000698433 0.000241756 1.34896
35 1.21112 0 0 0.0115403 0.0133366 1.31081
36 3.5992 1.06012 0.0708866 -1.68043 1.04215 -0.112109
37 1.66069 0 0 0.00620722 0.00200638 1.47997
38 1.16699 0 0 -0.0701393 0.164234 1.21657
39 2.18853 -0.50104 0.0576591 -1.57605 0.00117798 -0.0469344
40 1.29609 0 0 -0.0326376 -0.0616158 1.17811
41 1.62201 -0.000711441 -0.000469685 -0.00508028 -0.00330953 1.42626
42 1.2224 0 0 0.0247019 -0.0856985 1.42308
43 1.76707 -1.27612 0.0366402 -1.56655 0.103701 0.0275537
44 1.55587 0 0 0.103891 -0.075653 0.975564
45 1.24273 0 0 -0.00469966 -0.0380689 1.28397
46 0.784533 0 0 -0.0127429 -0.0577752 1.00048
47 0 0 0 0 0 0
48 -9.13998 -17.4469 -9.61591 -0.285672 -1.13298 -2.17711
49 -12.3026 -15.4298 -9.65013 -3.10081 -0.827609 -2.53954
50 -15.2389 -14.1185 -5.91002 -1.26664 -0.763011 0.518802
51 -0.49446 -2.33627 -0.838784 0 0 0
time 3
0 6.07472 -5.9503 -7.2488 -0.85191 0.69459 -2.02898
1 11.7344 0 0 -0.00140288 0 -1.49692
2 8.81138 -0.000450134 -0.000112534 1.48453 0 0.000157694
3 5.77839 0.000286102 0 0.994632 0 0.000115105
4 2.23163 -0.000329971 -0.000364304 0.489894 0 0
5 11.4725 0 0 1.47164 -0.622967 -0.310394
6 0.61522 -0.993091 -0.810701 2.92227 0.454999 -0.33141
7 2.24752 0 0 0.0643998 0.0920014 -0.24525
8 1.11936 0 0 0.012409 0.0391454 -1.16006
9 3.71348 -0.102642 0.102192 1.44559 1.26927 -0.122846
10 1.72615 0 0 -0.013295 0.00454388 -1.35296
11 1.21114 0 0 -0.0138879 0.0108709 -1.50415
12 3.59919 -1.06012 0.0708885 1.59719 1.13552 0.0844628
13 1.66069 0 0 0.0206526 0.106434 -1.46129
14 1.167 0 0 0.140204 0.107864 -1.2636
15 2.18852 0.501039 0.0576591 1.58026 0.110062 0.0312637
16 1.29609 0 0 -0.021455 0.0115007 -1.06235
17 1.62202 0.000713825 -0.000471115 -0.00757007 0.00444271 -1.4728
18 1.22241 0 0 -0.0469831 -0.00376792 -1.43289
19 1.76707 1.27612 0.0366402 1.57845 0.182304 -0.021451
20 1.55588 0 0 -0.155246 -0.0035504 -0.857709
21 1.24273 0 0 -0.000505276 -0.000322817 -1.24825
22 0.784523 0 0 0.00822029 0.0140817 -0.754785
23 -1.93761 -1.56582 -7.2488 -0.000932534 0 -2.53187
24 6.02794 0 0 1.26811 1.24414 0.324141
25 11.7344 0 0 0.00140265 0 2.24945
26 8.81167 0 0 1.43054 0 0
27 5.77884 0 0 0.95846 0 0
28 2.23249 0 0 0.472077 0 0
29 11.4725 0 0 1.42748 -0.504773 -0.398432
30 0.615814 0.994373 -0.809164 -2.72226 0.463503 0.286233
31 2.24752 0 0 -0.083597 0.0959307 0.272288
32 1.11936 0 0 -0.401235 0.450129 0.842933
33 3.71349 0.102639 0.102192 -1.41386 1.26431 0.0816934
34 1.72615 0 0 0.000698512 0.000241712 1.34896
35 1.21112 0 0 0.0115403 0.0133367 1.31081
36 3.5992 1.06012 0.0708866 -1.68043 1.04215 -0.112109
37 1.66069 0 0 0.00620722 0.0020063 1.47997
38 1.16699 0 0 -0.0701393 0.164234 1.21657
39 2.18853 -0.501039 0.0576591 -1.57605 0.00117788 -0.0469346
40 1.29609 0 0 -0.0326374 -0.061616 1.17811
41 1.62201 -0.000715256 -0.000469923 -0.0050802 -0.00330949 1.42626
42 1.22241 0 0 0.024702 -0.0856985 1.42308
43 1.76707 -1.27612 0.0366402 -1.56655 0.103701 0.0275535
44 1.55588 0 0 0.103891 -0.0756531 0.975564
45 1.24273 0 0 -0.0046996 -0.0380688 1.28397
46 0.784531 0 0 -0.0127428 -0.0577752 1.00048
47 0 0 0 0 0 0
48 -7.39595 -16.2296 -8.68647 -0.110304 -1.0616 -2.19504
49 -10.4072 -14.2598 -8.81113 -3.06447 -0.561789 -2.45829
50 -14.2266 -13.7729 -5.72811 -1.2838 -1.03006 0.637053
51 -0.49446 -2.33627 -0.838784 0 0 0
time 4
0 6.07472 -5.9503 -7.2488 -1.84296 1.02384 -2.11082
1 11.7344 0 0 -0.00140282 0 -1.82776
2 8.81138 -0.000450134 -0.00011158 1.76443 0 0.000158051
3 5.77839 0.000286102 0 1.18216 0 0.000117965
4 2.23163 -0.000329971 -0.00036335 0.58226 0 0
5 11.4725 0 0 1.77122 -0.311444 -0.239708
6 0.615219 -0.993091 -0.810699 2.92227 0.454999 -0.33141
7 2.24752 0 0 0.0643998 0.0920016 -0.245251
8 1.11936 0 0 0.012409 0.0391454 -1.16006
9 3.71348 -0.102641 0.10219 1.44559 1.26927 -0.122845
10 1.72615 0 0 -0.0132948 0.00454356 -1.35296
11 1.21114 0 0 -0.0138878 0.0108709 -1.50415
12 3.59919 -1.06012 0.0708866 1.59719 1.13552 0.0844625
13 1.66069 0 0 0.0206525 0.106434 -1.46129
14 1.167 0 0 0.140204 0.107864 -1.2636
15 2.18852 0.501039 0.0576611 1.58026 0.110062 0.0312637
16 1.29609 0 0 -0.021455 0.0115008 -1.06235
17 1.62202 0.000713825 -0.000470877 -0.00756992 0.00444236 -1.4728
18 1.22241 0 0 -0.046983 -0.00376786 -1.43289
19 1.76707 1.27612 0.0366421 1.57845 0.182304 -0.021451
20 1.55588 0 0 -0.155246 -0.00355032 -0.857709
21 1.24273 0 0 -0.000505365 -0.000323102 -1.24825
22 0.784523 0 0 0.00822025 0.0140819 -0.754785
23 -1.93761 -1.56582 -7.2488 -0.000932534 0 -2.53187
24 6.02794 0 0 0.686257 0.680725 0.688641
25 11.7344 0 0 0.00140269 0 1.69366
26 8.81167 0 0 1.91965 0 0
27 5.77884 0 0 1.28617 0 0
28 2.23249 0 0 0.633485 0 0
29 11.4725 0 0 1.90796 -0.536927 -0.795236
30 0.615812 0.994372 -0.809165 -2.72226 0.463503 0.286233
31 2.24752 0 0 -0.083597 0.0959307 0.272288
32 1.11936 0 0 -0.401235 0.450129 0.842933
33 3.71349 0.102639 0.102191 -1.41386 1.26431 0.081693
34 1.72615 0 0 0.00069836 0.000241666 1.34896
35 1.21112 0 0 0.0115404 0.0133366 1.31081
36 3.5992 1.06012 0.0708876 -1.68043 1.04215 -0.112109
37 1.66069 0 0 0.00620735 0.00200643 1.47997
38 1.16699 0 0 -0.0701393 0.164234 1.21657
39 2.18853 -0.50104 0.0576582 -1.57605 0.00117783 -0.0469345
40 1.29609 0 0 -0.0326374 -0.0616158 1.17811
41 1.62202 -0.000715256 -0.000469685 -0.00508038 -0.00330951 1.42626
42 1.22241 0 0 0.0247019 -0.0856985 1.42308
43 1.76707 -1.27612 0.0366411 -1.56655 0.103701 0.0275537
44 1.55587 0 0 0.103891 -0.075653 0.975564
45 1.24273 0 0 -0.0046995 -0.0380689 1.28397
46 0.784533 0 0 -0.012743 -0.0577752 1.00048
47 0 0 0 0 0 0
48 1.58174 -19.2458 -9.22236 -0.45504 -0.86864 -1.17376
49 -1.7778 -19.4912 -8.15584 2.90185 -0.304799 -1.63543
50 -4.25146 -22.4456 -5.07658 -0.474183 -1.13217 0.600965
51 -0.49446 -2.33627 -0.838784 0 0 0
time 5
0 6.07472 -5.9503 -7.2488 -2.2939 0.601464 -1.94447
1 11.7344 0 0 -0.00140292 0 -1.41556
2 8.81138 -0.000450134 -0.00011158 2.3576 0 0.000157528
3 5.77839 0.000286102 0 1.57959 0 0.000124299
4 2.23163 -0.000328064 -0.00036335 0.778006 0 0
5 11.4725 0 0 2.39992 -0.298944 -0.450549
6 0.615219 -0.993093 -0.810699 2.92227 0.454999 -0.331411
7 2.24752 0 0 0.0643998 0.0920015 -0.24525
8 1.11936 0 0 0.0124089 0.0391453 -1.16006
9 3.71348 -0.102641 0.102192 1.44559 1.26927 -0.122845
10 1.72615 0 0 -0.0132949 0.00454357 -1.35296
11 1.21114 0 0 -0.0138875 0.0108708 -1.50415
12 3.59919 -1.06012 0.0708866 1.59719 1.13552 0.0844625
13 1.66068 0 0 0.0206525 0.106434 -1.46129
14 1.167 0 0 0.140204 0.107864 -1.2636
15 2.18852 0.501039 0.0576591 1.58026 0.110062 0.0312635
16 1.2961 0 0 -0.021455 0.0115006 -1.06235
17 1.62202 0.000713825 -0.000472069 -0.00756996 0.00444249 -1.4728
18 1.22241 0 0 -0.0469829 -0.00376777 -1.43289
19 1.76707 1.27612 0.0366402 1.57845 0.182304 -0.0214511
20 1.55588 0 0 -0.155245 -0.00355021 -0.857709
21 1.24273 0 0 -0.000505181 -0.000322969 -1.24825
22 0.784523 0 0 0.00822046 0.0140817 -0.754785
23 -1.93761 -1.56582 -7.2488 -0.000932534 0 -2.53187
24 6.02794 0 0 0.631064 -0.0243516 1.48692
25 11.7344 0 0 0.00140268 0 -0.00396657
26 8.81167 0 0 2.23029 0 0
27 5.77884 0 0 1.49429 0 0
28 2.23249 0 0 0.735996 0 0
29 11.4725 0 0 2.24798 0.211943 0.140484
30 0.61581 0.994371 -0.809166 -2.72226 0.463503 0.286233
31 2.24752 0 0 -0.0835969 0.0959306 0.272288
32 1.11936 0 0 -0.401235 0.450129 0.842934
33 3.71349 0.102639 0.10219 -1.41386 1.26431 0.0816939
34 1.72615 0 0 0.000698527 0.00024178 1.34896
35 1.21112 0 0 0.0115402 0.0133366 1.31081
36 3.5992 1.06012 0.0708866 -1.68043 1.04215 -0.112109
37 1.66069 0 0 0.00620713 0.00200646 1.47997
38 1.16699 0 0 -0.0701392 0.164234 1.21657
39 2.18853 -0.50104 0.0576591 -1.57605 0.001178 -0.0469348
40 1.29609 0 0 -0.0326375 -0.0616159 1.17811
41 1.62202 -0.000711441 -0.000470161 -0.00508044 -0.00330948 1.42626
42 1.22241 0 0 0.024702 -0.0856985 1.42308
43 1.76707 -1.27612 0.0366402 -1.56655 0.103701 0.0275536
44 1.55588 0 0 0.103891 -0.0756529 0.975564
45 1.24273 0 0 -0.00469952 -0.0380689 1.28397
46 0.784533 0 0 -0.012743 -0.0577751 1.00048
47 0 0 0 0 0 0
48 7.23634 -23.5341 -7.88561 -0.290644 -0.595955 -0.432167
49 5.4433 -26.3284 -6.70053 2.87111 0.0683816 -0.81062
50 6.60906 -30.769 -4.89742 0.48708 -1.18888 0.529756
51 -0.49446 -2.33627 -0.838784 0 0 0
time 6
0 6.07472 -5.9503 -7.2488 -2.41407 0.606974 -1.9831
1 11.7344 0 0 -0.00140289 0 -1.54181
2 8.81138 -0.000450134 -0.00011158 2.70743 0 0.000157513
3 5.77839 0.000286102 0 1.81398 0 0.000129199
4 2.23163 -0.000329971 -0.000364304 0.893452 0 0
5 11.4725 0 0 2.9307 -0.421173 -0.677799
6 0.615219 -0.99309 -0.8107 2.92227 0.454999 -0.33141
7 2.24752 0 0 0.0643999 0.0920015 -0.24525
8 1.11936 0 0 0.0124089 0.0391455 -1.16006
9 3.71348 -0.10264 0.10219 1.44559 1.26927 -0.122845
10 1.72615 0 0 -0.013295 0.00454348 -1.35296
11 1.21114 0 0 -0.0138877 0.0108708 -1.50415
12 3.59919 -1.06012 0.0708885 1.59719 1.13552 0.0844632
13 1.66069 0 0 0.0206525 0.106433 -1.46129
14 1.167 0 0 0.140204 0.107864 -1.2636
15 2.18852 0.501041 0.0576591 1.58026 0.110062 0.0312638
16 1.29609 0 0 -0.0214548 0.0115008 -1.06235
17 1.62202 0.000714779 -0.000473022 -0.00757011 0.00444245 -1.4728
18 1.22241 0 0 -0.0469829 -0.00376784 -1.43289
19 1.76707 1.27612 0.0366402 1.57845 0.182304 -0.0214509
20 1.55588 0 0 -0.155246 -0.00355028 -0.857709
21 1.24273 0 0 -0.000505366 -0.000322973 -1.24825
22 0.784523 0 0 0.0082204 0.0140816 -0.754785
23 -1.93761 -1.56582 -7.2488 -0.000932534 0 -2.53187
24 6.02794 0 0 0.594716 0.00117451 1.5877
25 11.7344 0 0 0.00140278 0 -0.00396651
26 8.81167 0 0 2.30332 0 0
27 5.77884 0 0 1.54322 0 0
28 2.23249 0 0 0.760094 0 0
29 11.4725 0 0 2.48236 0.568944 0.484591
30 0.615811 0.994371 -0.809165 -2.72226 0.463503 0.286233
31 2.24752 0 0 -0.0835969 0.0959307 0.272288
32 1.11936 0 0 -0.401235 0.450129 0.842933
33 3.71349 0.102638 0.102191 -1.41386 1.26431 0.0816936
34 1.72615 0 0 0.000698544 0.000241801 1.34896
35 1.21112 0 0 0.0115403 0.0133366 1.31081
36 3.5992 1.06012 0.070888 -1.68043 1.04215 -0.112109
37 1.66069 0 0 0.00620707 0.0020064 1.47997
38 1.16699 0 0 -0.0701393 0.164234 1.21657
39 2.18853 -0.501038 0.0576596 -1.57605 0.001178 -0.0469346
40 1.29609 0 0 -0.0326374 -0.0616158 1.17811
41 1.62202 -0.000715256 -0.000471115 -0.00508039 -0.00330948 1.42626
42 1.22241 0 0 0.0247019 -0.0856984 1.42308
43 1.76707 -1.27612 0.0366411 -1.56655 0.103701 0.0275535
44 1.55588 0 0 0.103891 -0.075653 0.975564
45 1.24273 0 0 -0.00469948 -0.0380691 1.28397
46 0.784532 0 0 -0.012743 -0.0577751 1.00048
47 0 0 0 0 0 0
48 8.20651 -22.4484 -7.86754 -0.071046 -0.478129 -0.00570728
49 8.21086 -25.9325 -7.33151 3.02031 0.230751 -0.24733
50 11.6514 -29.3783 -6.54518 1.10761 -1.23582 0.487184
51 -0.49446 -2.33627 -0.838784 0 0 0
time 7
0 6.07472 -5.9503 -7.2488 -2.78711 0.785975 -2.37514
1 11.7344 0 0 -0.00140278 0 -2.05554
2 8.81138 -0.000450134 -0.000112534 2.87844 0 0.000158364
3 5.77839 0.000286102 0 1.92856 0 0.000132707
4 2.23163 -0.000329971 -0.000364304 0.949885 0 0
5 11.4725 0 0 -3.02673 -0.460306 -0.807705
6 0.615219 -0.993092 -0.810699 2.92227 0.454999 -0.33141
7 2.24752 0 0 0.0643998 0.0920016 -0.24525
8 1.11936 0 0 0.0124089 0.0391454 -1.16006
9 3.71348 -0.102642 0.102191 1.44559 1.26927 -0.122846
10 1.72615 0 0 -0.0132949 0.00454347 -1.35296
11 1.21114 0 0 -0.0138878 0.0108709 -1.50415
12 3.59919 -1.06012 0.0708876 1.59719 1.13552 0.0844621
13 1.66069 0 0 0.0206525 0.106433 -1.46129
14 1.167 0 0 0.140204 0.107864 -1.2636
15 2.18852 0.501038 0.0576591 1.58026 0.110062 0.0312635
16 1.29609 0 0 -0.0214549 0.0115008 -1.06235
17 1.62202 0.000713348 -0.000471115 -0.00756983 0.00444222 -1.4728
18 1.22241 0 0 -0.0469829 -0.00376799 -1.43289
19 1.76707 1.27612 0.0366402 1.57845 0.182304 -0.0214512
20 1.55588 0 0 -0.155246 -0.00355033 -0.857709
21 1.24273 0 0 -0.000505299 -0.00032299 -1.24825
22 0.784522 0 0 0.0082205 0.0140817 -0.754785
23 -1.93761 -1.56582 -7.2488 -0.000932534 0 -2.53187
24 6.02794 0 0 0.52492 0.217524 1.54705
25 11.7344 0 0 0.00140263 0 0.463918
26 8.81167 0 0 2.39483 0 0
27 5.77884 0 0 1.60453 0 0
28 2.23249 0 0 0.790293 0 0
29 11.4725 0 0 2.68635 0.65293 0.551206
30 0.615813 0.994373 -0.809165 -2.72226 0.463503 0.286233
31 2.24752 0 0 -0.0835969 0.0959307 0.272288
32 1.11936 0 0 -0.401235 0.450129 0.842934
33 3.71349 0.10264 0.102191 -1.41386 1.26431 0.0816935
34 1.72615 0 0 0.000698326 0.000241766 1.34896
35 1.21112 0 0 0.0115403 0.0133365 1.31081
36 3.5992 1.06012 0.0708885 -1.68043 1.04215 -0.112109
37 1.66069 0 0 0.00620732 0.00200653 1.47997
38 1.16699 0 0 -0.0701394 0.164234 1.21657
39 2.18853 -0.501036 0.0576591 -1.57605 0.00117789 -0.0469345
40 1.29609 0 0 -0.0326374 -0.0616157 1.17811
41 1.62201 -0.000713348 -0.000469208 -0.00508033 -0.00330936 1.42626
42 1.22241 0 0 0.0247018 -0.0856984 1.42308
43 1.76707 -1.27612 0.0366411 -1.56655 0.103701 0.0275536
44 1.55588 0 0 0.103891 -0.0756531 0.975564
45 1.24273 0 0 -0.00469947 -0.0380689 1.28397
46 0.784531 0 0 -0.0127427 -0.0577752 1.00048
47 0 0 0 0 0 0
48 7.62943 -17.6684 -9.27875 0.0694486 -0.383887 0.337506
49 9.00473 -20.9151 -9.50425 -3.11807 0.276494 0.193187
50 13.5584 -22.7967 -9.27406 1.57047 -1.26313 0.451319
51 -0.49446 -2.33627 -0.838784 0 0 0
time 8
0 6.07472 -5.9503 -7.2488 3.02671 0.777327 -2.7722
1 11.7344 0 0 -0.00140289 0 -2.31603
2 8.81138 -0.000450134 -0.00011158 2.82653 0 0.000157659
3 5.77839 0.000286102 0 1.89378 0 0.000131306
4 2.23163 -0.000329971 -0.000363827 0.932756 0 0
5 11.4725 0 0 -2.8796 -0.489296 -1.07885
6 0.615218 -0.993092 -0.810699 2.92227 0.454999 -0.33141
7 2.24752 0 0 0.0643998 0.0920015 -0.24525
8 1.11936 0 0 0.0124089 0.0391454 -1.16006
9 3.71348 -0.102642 0.102191 1.44559 1.26927 -0.122846
10 1.72615 0 0 -0.013295 0.00454343 -1.35296
11 1.21114 0 0 -0.0138877 0.0108709 -1.50415
12 3.59919 -1.06012 0.0708885 1.59719 1.13552 0.0844628
13 1.66069 0 0 0.0206524 0.106434 -1.46129
14 1.167 0 0 0.140204 0.107864 -1.2636
15 2.18852 0.501038 0.0576596 1.58026 0.110062 0.0312638
16 1.29609 0 0 -0.021455 0.0115006 -1.06235
17 1.62202 0.000714302 -0.000471115 -0.00757008 0.00444263 -1.4728
18 1.22241 0 0 -0.0469829 -0.00376796 -1.43289
19 1.76707 1.27612 0.0366421 1.57845 0.182304 -0.021451
20 1.55588 0 0 -0.155245 -0.00355044 -0.857709
21 1.24273 0 0 -0.000505247 -0.000323164 -1.24825
22 0.784523 0 0 0.00822053 0.0140818 -0.754785
23 -1.93761 -1.56582 -7.2488 -0.000932534 0 -2.53187
24 6.02794 0 0 0.429823 0.438399 1.47106
25 11.7344 0 0 0.0014028 0 0.927035
26 8.81167 0 0 2.44073 0 0
27 5.77884 0 0 1.63529 0 0
28 2.23249 0 0 0.80544 0 0
29 11.4725 0 0 2.7924 0.693926 0.561212
30 0.615812 0.994373 -0.809165 -2.72226 0.463503 0.286233
31 2.24752 0 0 -0.083597 0.0959307 0.272288
32 1.11936 0 0 -0.401235 0.450129 0.842933
33 3.71349 0.10264 0.102191 -1.41386 1.26431 0.0816944
34 1.72615 0 0 0.000698474 0.000241761 1.34896
35 1.21112 0 0 0.0115405 0.0133364 1.31081
36 3.5992 1.06012 0.0708866 -1.68043 1.04215 -0.112109
37 1.66069 0 0 0.006207 0.0020065 1.47997
38 1.16699 0 0 -0.0701393 0.164234 1.21657
39 2.18853 -0.50104 0.0576591 -1.57605 0.00117797 -0.0469345
40 1.29609 0 0 -0.0326376 -0.0616158 1.17811
41 1.62202 -0.000711441 -0.000469208 -0.00508015 -0.00330938 1.42626
42 1.22241 0 0 0.0247018 -0.0856983 1.42308
43 1.76707 -1.27612 0.0366411 -1.56655 0.103701 0.0275537
44 1.55588 0 0 0.103891 -0.075653 0.975564
45 1.24273 0 0 -0.00469946 -0.0380687 1.28397
46 0.784533 0 0 -0.0127431 -0.0577751 1.00048
47 0 0 0 0 0 0
48 7.10243 -14.5341 -10.7112 0.160541 -0.287384 0.658369
49 9.42132 -17.0726 -11.7088 -2.99852 0.266465 0.566464
50 14.3467 -17.3314 -11.7597 1.9608 -1.27981 0.419103
51 -0.49446 -2.33627 -0.838784 0 0 0
time 9
0 6.07472 -5.9503 -7.2488 2.92253 0.765366 -2.85952
1 11.7344 0 0 -0.00140297 0 -2.25879
2 8.81138 -0.000450134 -0.00011301 2.61704 0 0.000157696
3 5.77839 0.000286102 0 1.75341 0 0.00012793
4 2.23163 -0.000328064 -0.00036478 0.863621 0 0
5 11.4725 0 0 -2.64033 -0.559259 -1.49987
6 0.615219 -0.993092 -0.8107 2.92227 0.454999 -0.33141
7 2.24752 0 0 0.0643999 0.0920015 -0.245251
8 1.11936 0 0 0.0124089 0.0391454 -1.16006
9 3.71348 -0.10264 0.102191 1.44559 1.26927 -0.122845
10 1.72615 0 0 -0.0132948 0.00454352 -1.35296
11 1.21114 0 0 -0.0138877 0.0108706 -1.50415
12 3.59919 -1.06012 0.0708885 1.59719 1.13552 0.0844623
13 1.66069 0 0 0.0206524 0.106434 -1.46129
14 1.167 0 0 0.140204 0.107864 -1.2636
15 2.18853 0.50104 0.0576587 1.58026 0.110062 0.0312638
16 1.29609 0 0 -0.0214549 0.0115008 -1.06235
17 1.62202 0.000713348 -0.000470161 -0.00756999 0.00444235 -1.4728
18 1.22241 0 0 -0.0469827 -0.00376781 -1.43289
19 1.76707 1.27612 0.0366416 1.57845 0.182304 -0.021451
20 1.55588 0 0 -0.155245 -0.0035503 -0.857709
21 1.24273 0 0 -0.00050523 -0.000323187 -1.24825
22 0.784523 0 0 0.00822034 0.0140818 -0.754785
23 -1.93761 -1.56582 -7.2488 -0.000932534 0 -2.53187
24 6.02794 0 0 0.449398 0.528197 1.503
25 11.7344 0 0 0.00140267 0 0.898447
26 8.81167 0 0 2.35305 0 0
27 5.77884 0 0 1.57654 0 0
28 2.23249 0 0 0.776506 0 0
29 11.4725 0 0 2.92165 0.806484 0.871756
30 0.615812 0.994371 -0.809163 -2.72226 0.463503 0.286233
31 2.24752 0 0 -0.0835969 0.0959307 0.272288
32 1.11936 0 0 -0.401235 0.450129 0.842933
33 3.71349 0.102636 0.102193 -1.41386 1.26431 0.0816936
34 1.72615 0 0 0.000698465 0.000241845 1.34896
35 1.21112 0 0 0.0115403 0.0133365 1.31081
36 3.5992 1.06011 0.0708895 -1.68043 1.04215 -0.112109
37 1.66069 0 0 0.00620713 0.00200638 1.47997
38 1.16699 0 0 -0.0701394 0.164234 1.21657
39 2.18853 -0.501043 0.0576591 -1.57605 0.00117798 -0.0469343
40 1.29609 0 0 -0.0326373 -0.0616157 1.17811
41 1.62202 -0.000711918 -0.000469208 -0.0050803 -0.00330937 1.42626
42 1.2224 0 0 0.0247019 -0.0856983 1.42308
43 1.76707 -1.27612 0.0366421 -1.56655 0.103701 0.0275537
44 1.55588 0 0 0.103891 -0.0756531 0.975564
45 1.24273 0 0 -0.00469958 -0.0380687 1.28397
46 0.784531 0 0 -0.012743 -0.0577753 1.00048
47 0 0 0 0 0 0
48 6.68247 -14.7811 -11.7203 0.219831 -0.182057 0.930388
49 9.46749 -16.4962 -13.4134 -2.91315 0.23881 0.853647
50 14.2829 -15.4431 -13.5938 2.26644 -1.28141 0.391884
51 -0.49446 -2.33627 -0.838784 0 0 0
time 10
0 6.07472 -5.9503 -7.2488 2.91499 0.838009 -3.00548
1 11.7344 0 0 -0.00140283 0 -2.16398
2 8.81138 -0.000450134 -0.000112057 2.26916 0 0.000158683
3 5.77839 0.000286102 0 1.52034 0 0.000124039
4 2.23163 -0.000329971 -0.000363827 0.748824 0 0
5 11.4725 0 0 -2.29167 -0.59927 -1.99627
6 0.615219 -0.993091 -0.810699 2.92227 0.454999 -0.331411
7 2.24752 0 0 0.0643999 0.0920016 -0.24525
8 1.11936 0 0 0.0124089 0.0391454 -1.16006
9 3.71348 -0.102641 0.102192 1.44559 1.26927 -0.122847
10 1.72615 0 0 -0.013295 0.00454343 -1.35296
11 1.21114 0 0 -0.0138876 0.0108709 -1.50415
12 3.59919 -1.06012 0.0708885 1.59719 1.13552 0.0844621
13 1.66069 0 0 0.0206526 0.106434 -1.46129
14 1.167 0 0 0.140204 0.107864 -1.2636
15 2.18852 0.501038 0.0576591 1.58026 0.110062 0.0312638
16 1.29609 0 0 -0.021455 0.0115007 -1.06235
17 1.62202 0.000713348 -0.000470161 -0.0075699 0.00444243 -1.4728
18 1.22241 0 0 -0.0469829 -0.00376773 -1.43289
19 1.76707 1.27612 0.0366402 1.57845 0.182304 -0.0214511
20 1.55588 0 0 -0.155246 -0.00355034 -0.857709
21 1.24273 0 0 -0.000505225 -0.000323092 -1.24825
22 0.784522 0 0 0.0082203 0.0140817 -0.754785
23 -1.93761 -1.56582 -7.2488 -0.000932534 0 -2.53187
24 6.02794 0 0 0.438865 0.639966 1.40871
25 11.7344 0 0 0.00140267 0 0.973097
26 8.81167 0 0 2.24561 0 0
27 5.77884 0 0 1.50456 0 0
28 2.23249 0 0 0.741053 0 0
29 11.4725 0 0 3.0227 0.921946 1.06618
30 0.615812 0.994371 -0.809165 -2.72226 0.463503 0.286233
31 2.24752 0 0 -0.083597 0.0959307 0.272288
32 1.11936 0 0 -0.401235 0.450129 0.842934
33 3.71349 0.102638 0.102191 -1.41386 1.26431 0.0816935
34 1.72615 0 0 0.000698383 0.000241605 1.34896
35 1.21112 0 0 0.0115402 0.0133366 1.31081
36 3.5992 1.06011 0.0708885 -1.68043 1.04215 -0.112109
37 1.66069 0 0 0.0062072 0.0020064 1.47997
38 1.16699 0 0 -0.0701392 0.164233 1.21657
39 2.18853 -0.501041 0.0576582 -1.57605 0.00117791 -0.0469345
40 1.29609 0 0 -0.0326375 -0.0616157 1.17811
41 1.62201 -0.000713825 -0.000469208 -0.00508046 -0.00330963 1.42626
42 1.22241 0 0 0.024702 -0.0856984 1.42308
43 1.76707 -1.27612 0.0366411 -1.56655 0.103701 0.0275536
44 1.55588 0 0 0.103891 -0.075653 0.975564
45 1.24273 0 0 -0.00469957 -0.0380688 1.28397
46 0.784531 0 0 -0.0127431 -0.0577751 1.00048
47 0 0 0 0 0 0
48 5.37975 -15.4014 -12.6338 0.262027 -0.0587259 1.0854
49 8.21299 -16.6183 -14.8964 -2.85904 0.232289 1.00308
50 12.8298 -14.9101 -15.2067 2.43004 -1.25958 0.37237
51 -0.49446 -2.33627 -0.838784 0 0 0
time 11
0 6.07472 -5.9503 -7.2488 2.98008 1.01668 3.07619
1 11.7344 0 0 -0.00140281 0 -2.0782
2 8.81138 -0.000450134 -0.00011158 1.86528 0 0.00015764
3 5.77839 0.000284195 0 1.24974 0 0.000118726
4 2.23163 -0.000329971 -0.00036335 0.615544 0 0
5 11.4725 0 0 -1.86729 -0.512227 -2.47387
6 0.61522 -0.993091 -0.810699 2.92227 0.454999 -0.331411
7 2.24752 0 0 0.0643998 0.0920015 -0.24525
8 1.11936 0 0 0.0124088 0.0391454 -1.16006
9 3.71348 -0.102642 0.102192 1.44559 1.26927 -0.122845
10 1.72615 0 0 -0.0132949 0.00454354 -1.35296
11 1.21114 0 0 -0.0138877 0.0108709 -1.50415
12 3.59919 -1.06012 0.0708885 1.59719 1.13552 0.0844622
13 1.66069 0 0 0.0206526 0.106434 -1.46129
14 1.167 0 0 0.140204 0.107864 -1.2636
15 2.18852 0.501039 0.0576582 1.58026 0.110062 0.0312637
16 1.29609 0 0 -0.021455 0.0115007 -1.06235
17 1.62202 0.000713348 -0.000471115 -0.00756995 0.00444231 -1.4728
18 1.22241 0 0 -0.0469828 -0.00376791 -1.43289
19 1.76707 1.27612 0.0366411 1.57845 0.182304 -0.0214511
20 1.55587 0 0 -0.155246 -0.00355025 -0.857709
21 1.24274 0 0 -0.000505416 -0.00032298 -1.24825
22 0.784524 0 0 0.00822048 0.0140816 -0.754785
23 -1.93761 -1.56582 -7.2488 -0.000932534 0 -2.53187
24 6.02794 0 0 0.387205 0.758563 1.22939
25 11.7344 0 0 0.00140268 0 1.11167
26 8.81167 0 0 2.12821 0 0
27 5.77884 0 0 1.4259 0 0
28 2.23249 0 0 0.70231 0 0
29 11.4725 0 0 3.06128 1.04046 1.1198
30 0.615813 0.994373 -0.809166 -2.72226 0.463503 0.286234
31 2.24752 0 0 -0.0835969 0.0959307 0.272288
32 1.11936 0 0 -0.401235 0.450129 0.842933
33 3.71349 0.10264 0.102192 -1.41386 1.26431 0.0816941
34 1.72615 0 0 0.000698403 0.000241742 1.34896
35 1.21112 0 0 0.0115403 0.0133366 1.31081
36 3.5992 1.06012 0.0708885 -1.68043 1.04215 -0.112109
37 1.66069 0 0 0.00620731 0.00200638 1.47997
38 1.16699 0 0 -0.0701393 0.164234 1.21657
39 2.18853 -0.50104 0.0576582 -1.57605 0.0011779 -0.0469344
40 1.29609 0 0 -0.0326374 -0.0616157 1.17811
41 1.62201 -0.000713348 -0.000469208 -0.00508024 -0.00330934 1.42626
42 1.22241 0 0 0.0247021 -0.0856984 1.42308
43 1.76707 -1.27612 0.0366411 -1.56655 0.103701 0.0275535
44 1.55587 0 0 0.103891 -0.0756531 0.975564
45 1.24273 0 0 -0.00469957 -0.0380688 1.28397
46 0.784532 0 0 -0.012743 -0.0577751 1.00048
47 0 0 0 0 0 0
48 3.56188 -15.7035 -13.3354 0.300383 0.0643742 1.1285
49 6.24289 -16.8322 -16.0154 -2.8223 0.257956 1.03598
50 10.7993 -15.0153 -16.5323 2.46896 -1.21752 0.359548
51 -0.49446 -2.33627 -0.838784 0 0 0
time 12
0 6.07472 -5.9503 -7.2488 2.97793 1.25596 2.75637
1 11.7344 0 0 -0.00140273 0 -2.05487
2 8.81138 -0.000450134 -0.000112534 1.52153 0 0.000158067
3 5.77839 0.000286102 0 1.01943 0 0.000115796
4 2.23163 -0.000329971 -0.000364304 0.502105 0 0
5 11.4725 0 0 -1.52239 -0.323004 -2.78416
6 0.615219 -0.993092 -0.8107 2.92227 0.454999 -0.33141
7 2.24752 0 0 0.0643998 0.0920016 -0.24525
8 1.11936 0 0 0.0124089 0.0391455 -1.16006
9 3.71348 -0.102641 0.102191 1.44559 1.26927 -0.122845
10 1.72615 0 0 -0.013295 0.00454356 -1.35296
11 1.21114 0 0 -0.0138877 0.0108708 -1.50415
12 3.59919 -1.06012 0.0708876 1.59719 1.13552 0.084463
13 1.66069 0 0 0.0206524 0.106434 -1.46129
14 1.167 0 0 0.140204 0.107864 -1.2636
15 2.18852 0.501039 0.0576591 1.58026 0.110062 0.0312636
16 1.29609 0 0 -0.0214551 0.0115008 -1.06235
17 1.62202 0.000714302 -0.000471115 -0.0075701 0.00444239 -1.4728
18 1.22241 0 0 -0.0469828 -0.00376775 -1.43289
19 1.76707 1.27612 0.0366421 1.57845 0.182304 -0.021451
20 1.55588 0 0 -0.155246 -0.00355029 -0.857709
21 1.24274 0 0 -0.000505232 -0.000323185 -1.24825
22 0.784524 0 0 0.00822028 0.0140816 -0.754785
23 -1.93761 -1.56582 -7.2488 -0.000932534 0 -2.53187
24 6.02794 0 0 0.297859 0.869498 1.02464
25 11.7344 0 0 0.00140266 0 1.2756
26 8.81167 0 0 2.01121 0 0
27 5.77884 0 0 1.34751 0 0
28 2.23249 0 0 0.663698 0 0
29 11.4725 0 0 2.90968 1.14879 0.920667
30 0.615813 0.994373 -0.809165 -2.72226 0.463503 0.286233
31 2.24752 0 0 -0.0835969 0.0959306 0.272288
32 1.11936 0 0 -0.401235 0.450129 0.842933
33 3.71349 0.10264 0.102192 -1.41386 1.26431 0.0816936
34 1.72615 0 0 0.000698431 0.000241719 1.34896
35 1.21112 0 0 0.0115402 0.0133365 1.31081
36 3.5992 1.06012 0.0708866 -1.68043 1.04215 -0.112109
37 1.66069 0 0 0.00620737 0.00200649 1.47997
38 1.16699 0 0 -0.0701394 0.164234 1.21657
39 2.18853 -0.50104 0.0576582 -1.57605 0.00117788 -0.0469345
40 1.29609 0 0 -0.0326375 -0.0616157 1.17811
41 1.62201 -0.000711918 -0.000469208 -0.00508026 -0.00330964 1.42626
42 1.22241 0 0 0.0247021 -0.0856985 1.42308
43 1.76707 -1.27612 0.0366402 -1.56655 0.103701 0.0275535
44 1.55588 0 0 0.103891 -0.075653 0.975564
45 1.24273 0 0 -0.00469956 -0.038069 1.28397
46 0.784532 0 0 -0.0127428 -0.0577751 1.00048
47 0 0 0 0 0 0
48 1.93274 -15.0818 -13.8419 0.324161 0.16468 1.06842
49 4.36164 -16.5046 -16.7005 -2.80642 0.320465 0.969925
50 9.00316 -15.0418 -17.5043 2.40061 -1.15844 0.352403
51 -0.49446 -2.33627 -0.838784 0 0 0
time 13
0 6.07472 -5.9503 -7.2488 2.34066 1.46146 1.77947
1 11.7344 0 0 -0.00140292 0 -2.09556
2 8.81138 -0.000452042 -0.000110626 1.30494 0 0.000157802
3 5.77839 0.000284195 0 0.87431 0 0.000113716
4 2.23163 -0.000329971 -0.000362396 0.43063 0 0
5 11.4725 0 0 -1.30933 -0.108067 -2.95315
6 0.615219 -0.993091 -0.8107 2.92227 0.454999 -0.33141
7 2.24752 0 0 0.0643999 0.0920016 -0.24525
8 1.11936 0 0 0.0124091 0.0391454 -1.16006
9 3.71348 -0.102641 0.102192 1.44559 1.26927 -0.122845
10 1.72615 0 0 -0.0132951 0.00454365 -1.35296
11 1.21114 0 0 -0.0138878 0.0108706 -1.50415
12 3.59919 -1.06012 0.0708885 1.59719 1.13552 0.0844633
13 1.66069 0 0 0.0206525 0.106434 -1.46129
14 1.167 0 0 0.140204 0.107864 -1.2636
15 2.18852 0.501039 0.0576601 1.58026 0.110062 0.0312638
16 1.29609 0 0 -0.0214549 0.0115007 -1.06235
17 1.62202 0.000714302 -0.000471115 -0.00757 0.00444245 -1.4728
18 1.22241 0 0 -0.0469829 -0.00376786 -1.43289
19 1.76707 1.27612 0.0366411 1.57845 0.182304 -0.0214509
20 1.55588 0 0 -0.155246 -0.00355038 -0.857709
21 1.24273 0 0 -0.000505191 -0.000322834 -1.24825
22 0.784522 0 0 0.0082204 0.0140818 -0.754785
23 -1.93761 -1.56582 -7.2488 -0.000932534 0 -2.53187
24 6.02794 0 0 0.163439 0.963509 0.789721
25 11.7344 0 0 0.00140273 0 1.47056
26 8.81167 0 0 1.89668 0 0
27 5.77884 0 0 1.27077 0 0
28 2.23249 0 0 0.625903 0 0
29 11.4725 0 0 2.45844 1.19101 0.374208
30 0.615812 0.994371 -0.809165 -2.72226 0.463503 0.286233
31 2.24752 0 0 -0.083597 0.0959307 0.272288
32 1.11936 0 0 -0.401236 0.450129 0.842933
33 3.71349 0.102638 0.102191 -1.41386 1.26431 0.0816933
34 1.72615 0 0 0.000698298 0.000241826 1.34896
35 1.21112 0 0 0.0115403 0.0133366 1.31081
36 3.5992 1.06012 0.0708876 -1.68043 1.04215 -0.112109
37 1.66069 0 0 0.0062071 0.00200628 1.47997
38 1.16699 0 0 -0.0701394 0.164234 1.21657
39 2.18853 -0.501041 0.0576591 -1.57605 0.00117799 -0.0469346
40 1.29609 0 0 -0.0326374 -0.0616157 1.17811
41 1.62201 -0.000713825 -0.000469208 -0.00508022 -0.00330939 1.42626
42 1.22241 0 0 0.0247019 -0.0856985 1.42308
43 1.76707 -1.27612 0.0366411 -1.56655 0.103701 0.0275535
44 1.55587 0 0 0.103891 -0.075653 0.975564
45 1.24273 0 0 -0.00469951 -0.0380688 1.28397
46 0.784533 0 0 -0.0127429 -0.0577752 1.00048
47 0 0 0 0 0 0
48 0.647453 -13.6744 -13.9764 0.312609 0.26401 0.920746
49 2.70029 -15.6773 -16.7817 -2.82924 0.418145 0.81646
50 7.45573 -14.984 -17.8927 2.24235 -1.08553 0.349922
51 -0.49446 -2.33627 -0.838784 0 0 0
time 14
0 6.07472 -5.9503 -7.2488 1.02594 1.45046 0.164748
1 11.7344 0 0 -0.00140311 0 -2.14107
2 8.81138 -0.000450134 -0.00011158 1.26938 0 0.000157875
3 5.77839 0.000284195 0 0.850483 0 0.000113495
4 2.23163 -0.000329971 -0.00036335 0.418895 0 0
5 11.4725 0 0 -1.27007 0.0171803 -3.06398
6 0.615218 -0.993091 -0.8107 2.92227 0.454998 -0.33141
7 2.24752 0 0 0.0643999 0.0920014 -0.24525
8 1.11936 0 0 0.0124089 0.0391455 -1.16006
9 3.71348 -0.102642 0.102191 1.44559 1.26927 -0.122845
10 1.72615 0 0 -0.0132948 0.0045436 -1.35296
11 1.21114 0 0 -0.0138878 0.010871 -1.50415
12 3.59919 -1.06012 0.0708885 1.59719 1.13552 0.0844628
13 1.66069 0 0 0.0206526 0.106434 -1.46129
14 1.167 0 0 0.140204 0.107864 -1.2636
15 2.18852 0.50104 0.0576601 1.58026 0.110062 0.0312636
16 1.29609 0 0 -0.0214549 0.0115005 -1.06235
17 1.62202 0.000714302 -0.000471115 -0.00756983 0.00444235 -1.4728
18 1.22241 0 0 -0.046983 -0.00376768 -1.43289
19 1.76707 1.27612 0.0366411 1.57845 0.182304 -0.0214511
20 1.55588 0 0 -0.155246 -0.00355043 -0.857709
21 1.24274 0 0 -0.00050508 -0.000323089 -1.24825
22 0.784523 0 0 0.00822043 0.0140817 -0.754785
23 -1.93761 -1.56582 -7.2488 -0.000932534 0 -2.53187
24 6.02794 0 0 -0.00832214 1.0312 0.497079
25 11.7344 0 0 0.0014027 0 1.68171
26 8.81167 0 0 1.76166 0 0
27 5.77884 0 0 1.18031 0 0
28 2.23249 0 0 0.581348 0 0
29 11.4725 0 0 1.93746 1.10713 -0.241363
30 0.615813 0.994371 -0.809164 -2.72226 0.463503 0.286233
31 2.24752 0 0 -0.0835969 0.0959307 0.272288
32 1.11936 0 0 -0.401235 0.450129 0.842933
33 3.71349 0.102638 0.102192 -1.41386 1.26431 0.0816935
34 1.72615 0 0 0.00069846 0.000241887 1.34896
35 1.21112 0 0 0.0115402 0.0133366 1.31081
36 3.5992 1.06012 0.0708876 -1.68043 1.04215 -0.112109
37 1.66069 0 0 0.00620728 0.00200649 1.47997
38 1.16699 0 0 -0.0701393 0.164234 1.21657
39 2.18853 -0.50104 0.0576601 -1.57605 0.00117792 -0.0469346
40 1.29609 0 0 -0.0326374 -0.0616158 1.17811
41 1.62201 -0.000712395 -0.000469208 -0.0050803 -0.00330933 1.42626
42 1.22241 0 0 0.0247019 -0.0856984 1.42308
43 1.76707 -1.27612 0.0366411 -1.56655 0.103701 0.0275536
44 1.55588 0 0 0.103891 -0.075653 0.975564
45 1.24273 0 0 -0.00469964 -0.0380688 1.28397
46 0.784532 0 0 -0.0127429 -0.0577752 1.00048
47 0 0 0 0 0 0
48 -0.536225 -12.1233 -13.741 0.24183 0.389882 0.69927
49 0.942543 -14.8483 -16.2872 -2.92029 0.535619 0.575882
50 5.67864 -15.2686 -17.5995 2.01157 -1.002 0.351091
51 -0.49446 -2.33627 -0.838784 0 0 0
time 15
0 6.07472 -5.9503 -7.2488 0.850816 1.42453 -0.217645
1 11.7344 0 0 -0.00140283 0 -2.1682
2 8.81138 -0.000451088 -0.00011301 1.35813 0 0.000157994
3 5.77839 0.000286102 0 0.909946 0 0.0001143
4 2.23163 -0.000329971 -0.00036478 0.448182 0 0
5 11.4725 0 0 -1.35803 -0.0381109 3.11089
6 0.615219 -0.99309 -0.8107 2.92227 0.454999 -0.33141
7 2.24752 0 0 0.0643998 0.0920016 -0.24525
8 1.11936 0 0 0.012409 0.0391453 -1.16006
9 3.71348 -0.102641 0.10219 1.44559 1.26927 -0.122846
10 1.72615 0 0 -0.0132948 0.00454358 -1.35296
11 1.21114 0 0 -0.0138877 0.0108708 -1.50415
12 3.59919 -1.06012 0.0708885 1.59719 1.13552 0.084462
13 1.66069 0 0 0.0206526 0.106434 -1.46129
14 1.167 0 0 0.140204 0.107864 -1.2636
15 2.18852 0.50104 0.0576591 1.58026 0.110062 0.0312635
16 1.29609 0 0 -0.021455 0.0115007 -1.06235
17 1.62202 0.000713587 -0.000470161 -0.00756979 0.00444249 -1.4728
18 1.22241 0 0 -0.0469831 -0.00376781 -1.43289
19 1.76707 1.27612 0.0366402 1.57845 0.182304 -0.021451
20 1.55588 0 0 -0.155246 -0.00355034 -0.857709
21 1.24273 0 0 -0.000505242 -0.000322967 -1.24825
22 0.784523 0 0 0.00822023 0.0140818 -0.754785
23 -1.93761 -1.56582 -7.2488 -0.000932534 0 -2.53187
24 6.02794 0 0 -0.182768 1.07451 0.189131
25 11.7344 0 0 0.0014026 0 1.87377
26 8.81167 0 0 1.5919 0 0
27 5.77884 0 0 1.06657 0 0
28 2.23249 0 0 0.525328 0 0
29 11.4725 0 0 1.59812 0.909594 -0.630447
30 0.615813 0.994372 -0.809165 -2.72226 0.463503 0.286233
31 2.24752 0 0 -0.083597 0.0959307 0.272288
32 1.11936 0 0 -0.401235 0.450129 0.842933
33 3.71349 0.102638 0.102191 -1.41386 1.26431 0.0816937
34 1.72615 0 0 0.000698409 0.000241775 1.34896
35 1.21112 0 0 0.0115404 0.0133366 1.31081
36 3.5992 1.06012 0.0708876 -1.68043 1.04215 -0.112109
37 1.66069 0 0 0.00620724 0.0020064 1.47997
38 1.16699 0 0 -0.0701392 0.164234 1.21657
39 2.18853 -0.50104 0.0576601 -1.57605 0.00117794 -0.0469346
40 1.29609 0 0 -0.0326374 -0.0616158 1.17811
41 1.62201 -0.000713348 -0.000470161 -0.00508036 -0.00330955 1.42626
42 1.22241 0 0 0.0247019 -0.0856985 1.42308
43 1.76707 -1.27612 0.0366421 -1.56655 0.103701 0.0275536
44 1.55588 0 0 0.103891 -0.075653 0.975564
45 1.24273 0 0 -0.00469965 -0.0380689 1.28397
46 0.784532 0 0 -0.0127428 -0.0577752 1.00048
47 0 0 0 0 0 0
48 -1.41297 -10.6999 -13.5129 0.0822244 0.510608 0.39895
49 -0.70769 -14.1038 -15.5157 -3.11141 0.634934 0.239328
50 3.74441 -15.8273 -16.7558 1.72565 -0.911052 0.354895
51 -0.49446 -2.33627 -0.838784 0 0 0
time 16
0 6.07472 -5.9503 -7.2488 0.894271 1.42976 -0.287728
1 11.7344 0 0 -0.00140291 0 -2.16302
2 8.81138 -0.000450134 -0.000112534 1.47427 0 0.00015822
3 5.77839 0.000285149 0 0.987758 0 0.000115526
4 2.23163 -0.000329971 -0.00036335 0.486508 0 0
5 11.4725 0 0 -1.47184 -0.250423 2.99937
6 0.615219 -0.993091 -0.810699 2.92227 0.454999 -0.33141
7 2.24752 0 0 0.0643999 0.0920016 -0.24525
8 1.11936 0 0 0.0124091 0.0391454 -1.16006
9 3.71348 -0.102641 0.102191 1.44559 1.26927 -0.122846
10 1.72615 0 0 -0.013295 0.00454342 -1.35296
11 1.21114 0 0 -0.0138877 0.0108707 -1.50415
12 3.59919 -1.06012 0.0708876 1.59719 1.13552 0.0844622
13 1.66068 0 0 0.0206524 0.106434 -1.46129
14 1.167 0 0 0.140204 0.107864 -1.2636
15 2.18852 0.50104 0.0576591 1.58026 0.110062 0.0312637
16 1.29609 0 0 -0.0214549 0.0115007 -1.06235
17 1.62202 0.000714064 -0.000471592 -0.00756988 0.0044425 -1.4728
18 1.22241 0 0 -0.046983 -0.00376764 -1.43289
19 1.76707 1.27612 0.0366411 1.57845 0.182304 -0.0214509
20 1.55587 0 0 -0.155246 -0.00355032 -0.857709
21 1.24273 0 0 -0.00050519 -0.000323141 -1.24825
22 0.784523 0 0 0.00822025 0.0140817 -0.754785
23 -1.93761 -1.56582 -7.2488 -0.000932534 0 -2.53187
24 6.02794 0 0 -0.314532 1.10765 -0.0903779
25 11.7344 0 0 0.0014026 0 2.01917
26 8.81167 0 0 1.38481 0 0
27 5.77884 0 0 0.927821 0 0
28 2.23249 0 0 0.456986 0 0
29 11.4725 0 0 1.38724 0.666987 -0.806101
30 0.615813 0.994373 -0.809164 -2.72226 0.463503 0.286233
31 2.24752 0 0 -0.0835969 0.0959306 0.272288
32 1.11936 0 0 -0.401235 0.450129 0.842933
33 3.71349 0.10264 0.102191 -1.41386 1.26431 0.0816935
34 1.72615 0 0 0.000698451 0.00024178 1.34896
35 1.21112 0 0 0.0115401 0.0133366 1.31081
36 3.5992 1.06012 0.0708885 -1.68043 1.04215 -0.112109
37 1.66069 0 0 0.00620708 0.00200632 1.47997
38 1.16699 0 0 -0.0701394 0.164234 1.21657
39 2.18853 -0.50104 0.0576582 -1.57605 0.00117786 -0.0469346
40 1.29609 0 0 -0.0326376 -0.0616157 1.17811
41 1.62202 -0.000713348 -0.000470161 -0.00508028 -0.00330953 1.42626
42 1.22241 0 0 0.0247019 -0.0856985 1.42308
43 1.76707 -1.27612 0.0366411 -1.56655 0.103701 0.0275536
44 1.55587 0 0 0.103891 -0.075653 0.975564
45 1.24273 0 0 -0.00469957 -0.0380689 1.28397
46 0.784533 0 0 -0.0127428 -0.0577752 1.00048
47 0 0 0 0 0 0
48 -1.94448 -9.79215 -13.5695 -0.176325 0.573448 0.0231737
49 -2.14198 -13.6257 -14.7357 2.88469 0.65705 -0.176045
50 1.72557 -16.5919 -15.493 1.40198 -0.815883 0.360321
51 -0.49446 -2.33627 -0.838784 0 0 0
time 17
0 6.07472 -5.9503 -7.2488 0.848555 1.43431 -0.353624
1 11.7344 0 0 -0.00140275 0 -2.11788
2 8.81138 -0.000449181 -0.000112057 1.54645 0 0.000158121
3 5.77839 0.000287056 0 1.03612 0 0.000116031
4 2.23163 -0.00032711 -0.000363827 0.510329 0 0
5 11.4725 0 0 -1.54296 -0.561989 2.87327
6 0.615219 -0.993091 -0.8107 2.92227 0.454999 -0.331411
7 2.24752 0 0 0.0643998 0.0920015 -0.24525
8 1.11936 0 0 0.0124089 0.0391456 -1.16006
9 3.71348 -0.10264 0.10219 1.44559 1.26927 -0.122846
10 1.72615 0 0 -0.0132948 0.00454353 -1.35296
11 1.21114 0 0 -0.0138877 0.010871 -1.50415
12 3.59919 -1.06012 0.0708876 1.59719 1.13552 0.0844615
13 1.66069 0 0 0.0206524 0.106433 -1.46129
14 1.167 0 0 0.140204 0.107864 -1.2636
15 2.18852 0.501039 0.0576582 1.58026 0.110062 0.0312636
16 1.29609 0 0 -0.0214549 0.0115004 -1.06235
17 1.62202 0.000714302 -0.000470161 -0.00756999 0.00444244 -1.4728
18 1.22241 0 0 -0.0469829 -0.00376753 -1.43289
19 1.76707 1.27612 0.0366392 1.57845 0.182304 -0.0214511
20 1.55588 0 0 -0.155246 -0.00355034 -0.857709
21 1.24273 0 0 -0.000505223 -0.000323096 -1.24825
22 0.784523 0 0 0.00822056 0.0140817 -0.754785
23 -1.93761 -1.56582 -7.2488 -0.000932534 0 -2.53187
24 6.02794 0 0 -0.357642 1.15263 -0.303676
25 11.7344 0 0 0.00140256 0 2.09981
26 8.81167 0 0 1.16878 0 0
27 5.77884 0 0 0.783082 0 0
28 2.23249 0 0 0.385697 0 0
29 11.4725 0 0 1.21393 0.441536 -0.829454
30 0.615812 0.994372 -0.809164 -2.72226 0.463503 0.286233
31 2.24752 0 0 -0.0835969 0.0959307 0.272288
32 1.11936 0 0 -0.401236 0.450129 0.842933
33 3.71348 0.102639 0.102192 -1.41386 1.26431 0.0816931
34 1.72615 0 0 0.000698493 0.000241737 1.34896
35 1.21112 0 0 0.0115401 0.0133367 1.31081
36 3.5992 1.06012 0.0708885 -1.68043 1.04215 -0.112109
37 1.66069 0 0 0.00620726 0.00200634 1.47997
38 1.16699 0 0 -0.0701392 0.164234 1.21657
39 2.18853 -0.501041 0.0576591 -1.57605 0.00117801 -0.0469345
40 1.29609 0 0 -0.0326374 -0.0616158 1.17811
41 1.62201 -0.000713348 -0.000470638 -0.00508037 -0.00330963 1.42626
42 1.2224 0 0 0.024702 -0.0856983 1.42308
43 1.76707 -1.27612 0.0366411 -1.56655 0.103701 0.0275536
44 1.55588 0 0 0.103891 -0.075653 0.975564
45 1.24273 0 0 -0.00469945 -0.038069 1.28397
46 0.784531 0 0 -0.012743 -0.0577752 1.00048
47 0 0 0 0 0 0
48 -2.26496 -9.77617 -13.9619 -0.482699 0.528044 -0.372539
49 -3.36844 -13.631 -14.0969 2.58447 0.559075 -0.583057
50 -0.305351 -17.494 -13.9425 1.05793 -0.719696 0.366354
51 -0.49446 -2.33627 -0.838784 0 0 0
time 18
0 6.07472 -5.9503 -7.2488 0.440084 1.43467 -0.70387
1 11.7344 0 0 -0.00140291 0 -2.02418
2 8.81138 -0.000450134 -0.000112057 1.53951 0 0.00015806
3 5.77839 0.000286102 0 1.03147 0 0.000115914
4 2.23163 -0.000329971 -0.000364304 0.508038 0 0
5 11.4725 0 0 -1.52424 -0.911293 2.68256
6 0.61522 -0.99309 -0.810699 2.92227 0.454999 -0.33141
7 2.24752 0 0 0.0643999 0.0920015 -0.24525
8 1.11936 0 0 0.0124089 0.0391454 -1.16006
9 3.71348 -0.10264 0.102192 1.44559 1.26927 -0.122846
10 1.72615 0 0 -0.013295 0.0045438 -1.35296
11 1.21114 0 0 -0.013888 0.0108706 -1.50415
12 3.59919 -1.06012 0.0708885 1.59719 1.13552 0.0844623
13 1.66068 0 0 0.0206524 0.106434 -1.46129
14 1.167 0 0 0.140204 0.107864 -1.2636
15 2.18852 0.50104 0.0576591 1.58026 0.110062 0.0312636
16 1.29609 0 0 -0.0214549 0.0115008 -1.06235
17 1.62202 0.000713825 -0.000471115 -0.00757024 0.00444272 -1.4728
18 1.22241 0 0 -0.0469831 -0.00376812 -1.43289
19 1.76707 1.27612 0.0366421 1.57845 0.182304 -0.0214511
20 1.55588 0 0 -0.155246 -0.00355037 -0.857709
21 1.24273 0 0 -0.000505276 -0.000322817 -1.24825
22 0.784523 0 0 0.00822031 0.0140819 -0.754785
23 -1.93761 -1.56582 -7.2488 -0.000932534 0 -2.53187
24 6.02794 0 0 -0.247605 1.22176 -0.382451
25 11.7344 0 0 0.00140278 0 2.10842
26 8.81167 0 0 0.993655 0 0
27 5.77884 0 0 0.665749 0 0
28 2.23249 0 0 0.327906 0 0
29 11.4725 0 0 1.04934 0.280289 -0.735856
30 0.615812 0.994372 -0.809164 -2.72226 0.463503 0.286233
31 2.24752 0 0 -0.0835969 0.0959307 0.272288
32 1.11936 0 0 -0.401235 0.450129 0.842934
33 3.71348 0.102639 0.102192 -1.41386 1.26431 0.0816933
34 1.72615 0 0 0.000698428 0.000241751 1.34896
35 1.21112 0 0 0.0115402 0.0133366 1.31081
36 3.5992 1.06012 0.0708876 -1.68043 1.04215 -0.112109
37 1.66069 0 0 0.00620727 0.00200652 1.47997
38 1.16699 0 0 -0.0701394 0.164234 1.21657
39 2.18853 -0.50104 0.0576591 -1.57605 0.00117805 -0.0469347
40 1.29609 0 0 -0.0326375 -0.0616158 1.17811
41 1.62202 -0.000711441 -0.000470161 -0.00508016 -0.00330952 1.42626
42 1.2224 0 0 0.0247018 -0.0856983 1.42308
43 1.76707 -1.27612 0.0366421 -1.56655 0.103701 0.0275535
44 1.55587 0 0 0.103891 -0.0756531 0.975564
45 1.24273 0 0 -0.00469945 -0.0380687 1.28397
46 0.784534 0 0 -0.0127429 -0.0577753 1.00048
47 0 0 0 0 0 0
48 -2.58814 -10.8355 -14.4922 -0.749323 0.370984 -0.701499
49 -4.47126 -14.2609 -13.589 2.35743 0.356898 -0.896492
50 -2.27582 -18.4654 -12.2355 0.71089 -0.625693 0.371981
51 -0.49446 -2.33627 -0.838784 0 0 0
time 19
0 6.07472 -5.9503 -7.2488 -0.280018 1.38219 -1.33186
1 11.7344 0 0 -0.00140292 0 -1.87404
2 8.81138 -0.000450134 -0.000112057 1.45594 0 0.000158284
3 5.77839 0.000286102 0 0.975477 0 0.000115314
4 2.23163 -0.000328064 -0.000364304 0.480459 0 0
5 11.4725 0 0 -1.28656 -1.22559 2.27543
6 0.615217 -0.993091 -0.810699 2.92227 0.454999 -0.33141
7 2.24752 0 0 0.0643999 0.0920016 -0.24525
8 1.11936 0 0 0.012409 0.0391455 -1.16006
9 3.71348 -0.10264 0.102192 1.44559 1.26927 -0.122845
10 1.72615 0 0 -0.0132949 0.0045436 -1.35296
11 1.21114 0 0 -0.0138878 0.010871 -1.50415
12 3.59919 -1.06012 0.0708885 1.59719 1.13552 0.0844624
13 1.66069 0 0 0.0206524 0.106434 -1.46129
14 1.167 0 0 0.140204 0.107864 -1.2636
15 2.18852 0.501039 0.0576591 1.58026 0.110062 0.0312638
16 1.29609 0 0 -0.0214549 0.0115009 -1.06235
17 1.62202 0.000713348 -0.000471115 -0.00757013 0.00444237 -1.4728
18 1.22241 0 0 -0.0469828 -0.003768 -1.43289
19 1.76707 1.27612 0.0366421 1.57845 0.182304 -0.021451
20 1.55587 0 0 -0.155245 -0.00355035 -0.857709
21 1.24273 0 0 -0.000505158 -0.000322879 -1.24825
22 0.784523 0 0 0.00822036 0.0140817 -0.754785
23 -1.93761 -1.56582 -7.2488 -0.000932534 0 -2.53187
24 6.02794 0 0 0.124998 1.28309 -0.18853
25 11.7344 0 0 0.00140278 0 2.04851
26 8.81167 0 0 0.884825 0 0
27 5.77884 0 0 0.592833 0 0
28 2.23249 0 0 0.291992 0 0
29 11.4725 0 0 0.914797 0.190831 -0.563844
30 0.615812 0.994372 -0.809164 -2.72226 0.463503 0.286233
31 2.24752 0 0 -0.0835969 0.0959308 0.272288
32 1.11936 0 0 -0.401235 0.450129 0.842933
33 3.71349 0.102639 0.10219 -1.41386 1.26431 0.0816934
34 1.72615 0 0 0.000698562 0.000241919 1.34896
35 1.21112 0 0 0.0115403 0.0133366 1.31081
36 3.5992 1.06012 0.0708904 -1.68043 1.04215 -0.112109
37 1.66069 0 0 0.00620718 0.00200643 1.47997
38 1.16699 0 0 -0.0701393 0.164234 1.21657
39 2.18853 -0.50104 0.0576591 -1.57605 0.00117788 -0.0469346
40 1.29609 0 0 -0.0326374 -0.0616157 1.17811
41 1.62202 -0.000713348 -0.000469208 -0.00508028 -0.00330943 1.42626
42 1.22241 0 0 0.024702 -0.0856985 1.42308
43 1.76707 -1.27612 0.0366421 -1.56655 0.103701 0.0275535
44 1.55588 0 0 0.103891 -0.0756529 0.975564
45 1.24273 0 0 -0.0046996 -0.0380689 1.28397
46 0.784533 0 0 -0.0127429 -0.0577752 1.00048
47 0 0 0 0 0 0
48 -3.07675 -12.8421 -14.8426 -0.939853 0.145051 -0.930407
49 -5.53378 -15.4863 -13.0914 2.21452 0.100855 -1.10908
50 -4.11331 -19.4379 -10.5036 0.378241 -0.537075 0.376187
51 -0.49446 -2.33627 -0.838784 0 0 0
time 20
0 6.07472 -5.9503 -7.2488 -0.709715 1.23355 -1.6886
1 11.7344 0 0 -0.00140278 0 -1.67045
2 8.81138 -0.000452042 -0.000110149 1.32091 0 0.000157806
3 5.77839 0.000284195 0 0.88501 0 0.00011383
4 2.23163 -0.000329971 -0.00036335 0.435901 0 0
5 11.4725 0 0 -0.397234 -1.3746 1.20259
6 0.61522 -0.99309 -0.810699 2.92227 0.454999 -0.33141
7 2.24752 0 0 0.0643998 0.0920017 -0.24525
8 1.11936 0 0 0.0124091 0.0391454 -1.16006
9 3.71348 -0.102641 0.102192 1.44559 1.26927 -0.122847
10 1.72615 0 0 -0.013295 0.0045436 -1.35296
11 1.21114 0 0 -0.0138877 0.0108707 -1.50415
12 3.59919 -1.06012 0.0708866 1.59719 1.13552 0.084462
13 1.66069 0 0 0.0206525 0.106434 -1.46129
14 1.167 0 0 0.140204 0.107864 -1.2636
15 2.18853 0.50104 0.0576591 1.58026 0.110062 0.0312637
16 1.29609 0 0 -0.0214549 0.0115008 -1.06235
17 1.62202 0.000714302 -0.000470161 -0.00756999 0.00444258 -1.4728
18 1.22241 0 0 -0.0469829 -0.00376772 -1.43289
19 1.76707 1.27612 0.0366421 1.57845 0.182304 -0.0214511
20 1.55588 0 0 -0.155246 -0.00355037 -0.857709
21 1.24273 0 0 -0.000505285 -0.000322934 -1.24825
22 0.784523 0 0 0.0082204 0.0140817 -0.754785
23 -1.93761 -1.56582 -7.2488 -0.000932534 0 -2.53187
24 6.02794 0 0 0.673383 1.25996 0.219827
25 11.7344 0 0 0.00140282 0 1.9353
26 8.81167 0 0 0.827323 0 0
27 5.77884 0 0 0.554306 0 0
28 2.23249 0 0 0.273017 0 0
29 11.4725 0 0 0.831353 0.141583 -0.356599
30 0.615812 0.994371 -0.809164 -2.72226 0.463503 0.286233
31 2.24752 0 0 -0.0835969 0.0959307 0.272288
32 1.11936 0 0 -0.401236 0.450129 0.842933
33 3.71349 0.10264 0.10219 -1.41386 1.26431 0.0816926
34 1.72615 0 0 0.000698306 0.000241693 1.34896
35 1.21112 0 0 0.0115404 0.0133366 1.31081
36 3.5992 1.06012 0.0708885 -1.68043 1.04215 -0.112109
37 1.66069 0 0 0.0062071 0.00200643 1.47997
38 1.16699 0 0 -0.0701393 0.164234 1.21657
39 2.18853 -0.50104 0.0576591 -1.57605 0.00117803 -0.0469347
40 1.29609 0 0 -0.0326374 -0.0616158 1.17811
41 1.62201 -0.000713348 -0.000469685 -0.00508046 -0.00330951 1.42626
42 1.22241 0 0 0.0247019 -0.0856984 1.42308
43 1.76707 -1.27612 0.0366421 -1.56655 0.103701 0.0275535
44 1.55588 0 0 0.103891 -0.075653 0.975564
45 1.24273 0 0 -0.00469964 -0.0380688 1.28397
46 0.784531 0 0 -0.0127429 -0.0577752 1.00048
47 0 0 0 0 0 0
48 -3.76152 -15.3842 -14.7837 -1.06754 -0.09978 -1.07598
49 -6.57741 -17.0908 -12.4916 2.13152 -0.162418 -1.24915
50 -5.74528 -20.343 -8.87781 0.0773637 -0.457044 0.377959
51 -0.49446 -2.33627 -0.838784 0 0 0
time 21
0 6.07472 -5.9503 -7.2488 -0.873933 1.04096 -1.82331
1 11.7344 0 0 -0.00140274 0 -1.43364
2 8.81138 -0.000450134 -0.000113487 1.15322 0 0.000158242
3 5.77839 0.000286102 0 0.772658 0 0.000112977
4 2.23163 -0.000329971 -0.000365257 0.380563 0 0
5 11.4725 0 0 0.351618 -1.30107 0.258208
6 0.615218 -0.99309 -0.810699 2.92227 0.454999 -0.331411
7 2.24752 0 0 0.0643998 0.0920014 -0.24525
8 1.11936 0 0 0.0124087 0.0391456 -1.16006
9 3.71348 -0.102641 0.102192 1.44559 1.26927 -0.122846
10 1.72615 0 0 -0.0132948 0.0045436 -1.35296
11 1.21114 0 0 -0.0138878 0.0108711 -1.50415
12 3.59919 -1.06012 0.0708885 1.59719 1.13552 0.0844618
13 1.66069 0 0 0.0206526 0.106434 -1.46129
14 1.167 0 0 0.140204 0.107864 -1.2636
15 2.18852 0.50104 0.0576611 1.58026 0.110062 0.0312636
16 1.2961 0 0 -0.0214549 0.0115006 -1.06235
17 1.62201 0.000713348 -0.000472069 -0.00756991 0.00444262 -1.4728
18 1.22241 0 0 -0.0469829 -0.00376772 -1.43289
19 1.76707 1.27612 0.0366421 1.57845 0.182304 -0.0214512
20 1.55588 0 0 -0.155245 -0.00355041 -0.857709
21 1.24273 0 0 -0.000505142 -0.000322978 -1.24825
22 0.784524 0 0 0.00822049 0.0140818 -0.754785
23 -1.93761 -1.56582 -7.2488 -0.000932534 0 -2.53187
24 6.02794 0 0 1.02771 1.15505 0.478408
25 11.7344 0 0 0.00140291 0 1.79509
26 8.81167 0 0 0.793897 0 0
27 5.77884 0 0 0.531911 0 0
28 2.23249 0 0 0.261986 0 0
29 11.4725 0 0 0.789115 0.104127 -0.150913
30 0.615811 0.994372 -0.809166 -2.72226 0.463503 0.286233
31 2.24752 0 0 -0.0835969 0.0959306 0.272288
32 1.11936 0 0 -0.401235 0.450129 0.842934
33 3.71349 0.102639 0.10219 -1.41386 1.26431 0.0816934
34 1.72615 0 0 0.000698405 0.000241769 1.34896
35 1.21112 0 0 0.0115403 0.0133366 1.31081
36 3.5992 1.06012 0.0708885 -1.68043 1.04215 -0.112109
37 1.66069 0 0 0.00620714 0.00200638 1.47997
38 1.16699 0 0 -0.0701393 0.164234 1.21657
39 2.18853 -0.50104 0.0576591 -1.57605 0.00117794 -0.0469346
40 1.29609 0 0 -0.0326375 -0.0616158 1.17811
41 1.62201 -0.000715256 -0.000471115 -0.00508025 -0.0033095 1.42626
42 1.22241 0 0 0.0247019 -0.0856984 1.42308
43 1.76707 -1.27612 0.0366402 -1.56655 0.103701 0.0275535
44 1.55587 0 0 0.103891 -0.0756529 0.975564
45 1.24273 0 0 -0.00469961 -0.0380689 1.28397
46 0.784531 0 0 -0.0127428 -0.0577753 1.00048
47 0 0 0 0 0 0
48 -4.54777 -17.921 -14.324 -1.15395 -0.323757 -1.1632
49 -7.54912 -18.7419 -11.7916 2.08566 -0.397656 -1.3419
50 -7.09922 -21.1127 -7.48967 -0.174359 -0.388801 0.376282
51 -0.49446 -2.33627 -0.838784 0 0 0
time 22
0 6.07472 -5.9503 -7.2488 -0.922438 0.859253 -1.88549
1 11.7344 0 0 -0.00140279 0 -1.20063
2 8.81138 -0.000450134 -0.000110626 0.956539 0 0.00015764
3 5.77839 0.000286102 0 0.640881 0 0.000111017
4 2.23164 -0.000329971 -0.000362873 0.315658 0 0
5 11.4725 0 0 0.538532 -1.22109 -0.11467
6 0.615219 -0.99309 -0.810701 2.92227 0.454999 -0.33141
7 2.24752 0 0 0.0643998 0.0920016 -0.24525
8 1.11936 0 0 0.012409 0.0391456 -1.16006
9 3.71348 -0.10264 0.10219 1.44559 1.26927 -0.122846
10 1.72615 0 0 -0.0132949 0.00454356 -1.35296
11 1.21114 0 0 -0.0138878 0.0108711 -1.50415
12 3.59919 -1.06012 0.0708866 1.59719 1.13552 0.0844627
13 1.66068 0 0 0.0206526 0.106434 -1.46129
14 1.167 0 0 0.140204 0.107864 -1.2636
15 2.18852 0.50104 0.0576572 1.58026 0.110062 0.0312637
16 1.29609 0 0 -0.0214549 0.0115007 -1.06235
17 1.62202 0.000713825 -0.000471115 -0.0075699 0.00444262 -1.4728
18 1.22241 0 0 -0.0469831 -0.00376773 -1.43289
19 1.76707 1.27612 0.0366402 1.57845 0.182304 -0.0214511
20 1.55588 0 0 -0.155246 -0.00355043 -0.857709
21 1.24273 0 0 -0.000505088 -0.000322976 -1.24825
22 0.784523 0 0 0.00822037 0.0140818 -0.754785
23 -1.93761 -1.56582 -7.2488 -0.000932534 0 -2.53187
24 6.02794 0 0 1.18615 1.04176 0.577254
25 11.7344 0 0 0.00140249 0 1.66274
26 8.81167 0 0 0.767233 0 0
27 5.77884 0 0 0.514046 0 0
28 2.23249 0 0 0.253187 0 0
29 11.4725 0 0 0.766785 0.0729313 0.020533
30 0.615811 0.994371 -0.809166 -2.72226 0.463503 0.286233
31 2.24752 0 0 -0.083597 0.0959306 0.272288
32 1.11936 0 0 -0.401236 0.450129 0.842933
33 3.71348 0.102638 0.10219 -1.41386 1.26431 0.0816939
34 1.72615 0 0 0.000698479 0.000241719 1.34896
35 1.21112 0 0 0.0115403 0.0133366 1.31081
36 3.5992 1.06012 0.0708866 -1.68043 1.04215 -0.112109
37 1.66069 0 0 0.0062072 0.0020064 1.47997
38 1.16699 0 0 -0.0701393 0.164234 1.21657
39 2.18853 -0.50104 0.0576572 -1.57605 0.00117775 -0.0469345
40 1.29609 0 0 -0.0326375 -0.0616159 1.17811
41 1.62201 -0.000713348 -0.000471115 -0.00508027 -0.00330957 1.42626
42 1.22241 0 0 0.0247018 -0.0856984 1.42308
43 1.76707 -1.27612 0.0366402 -1.56655 0.103701 0.0275537
44 1.55587 0 0 0.103891 -0.0756531 0.975564
45 1.24273 0 0 -0.00469945 -0.0380689 1.28397
46 0.784533 0 0 -0.0127429 -0.0577751 1.00048
47 0 0 0 0 0 0
48 -5.27753 -19.9559 -13.7131 -1.21372 -0.496414 -1.21121
49 -8.34855 -20.0952 -11.1354 2.06052 -0.577414 -1.40201
50 -8.10258 -21.6786 -6.47044 -0.359546 -0.335548 0.370143
51 -0.49446 -2.33627 -0.838784 0 0 0
time 23
0 6.07472 -5.9503 -7.2488 -0.904971 0.734131 -1.91354
1 11.7344 0 0 -0.00140276 0 -1.03031
2 8.81138 -0.000450134 -0.000112534 0.760284 0 0.000158137
3 5.77839 0.000286102 0 0.50939 0 0.000110109
4 2.23163 -0.000329971 -0.000364304 0.250894 0 0
5 11.4725 0 0 0.534217 -1.20226 -0.249624
6 0.615219 -0.993092 -0.810699 2.92227 0.454999 -0.33141
7 2.24752 0 0 0.0643999 0.0920015 -0.24525
8 1.11936 0 0 0.0124087 0.0391455 -1.16006
9 3.71348 -0.102642 0.102192 1.44559 1.26927 -0.122845
10 1.72615 0 0 -0.013295 0.00454362 -1.35296
11 1.21114 0 0 -0.0138879 0.0108709 -1.50415
12 3.59919 -1.06012 0.0708885 1.59719 1.13552 0.0844628
13 1.66068 0 0 0.0206524 0.106434 -1.46129
14 1.167 0 0 0.140204 0.107864 -1.2636
15 2.18852 0.501038 0.0576611 1.58026 0.110062 0.0312636
16 1.29609 0 0 -0.0214549 0.0115008 -1.06235
17 1.62202 0.000714779 -0.000470161 -0.00757004 0.00444241 -1.4728
18 1.22241 0 0 -0.046983 -0.0037679 -1.43289
19 1.76707 1.27612 0.0366421 1.57845 0.182304 -0.0214511
20 1.55588 0 0 -0.155246 -0.00355038 -0.857709
21 1.24274 0 0 -0.00050531 -0.000323025 -1.24825
22 0.784523 0 0 0.00822044 0.0140818 -0.754785
23 -1.93761 -1.56582 -7.2488 -0.000932534 0 -2.53187
24 6.02794 0 0 1.24815 0.972276 0.606925
25 11.7344 0 0 0.00140241 0 1.57808
26 8.81167 0 0 0.742529 0 0
27 5.77884 0 0 0.497495 0 0
28 2.23249 0 0 0.245035 0 0
29 11.4725 0 0 0.749454 0.0548964 0.125721
30 0.61581 0.994371 -0.809166 -2.72226 0.463503 0.286233
31 2.24752 0 0 -0.0835969 0.0959307 0.272288
32 1.11936 0 0 -0.401235 0.450129 0.842933
33 3.71349 0.102638 0.10219 -1.41386 1.26431 0.0816933
34 1.72615 0 0 0.000698441 0.000241815 1.34896
35 1.21112 0 0 0.0115403 0.0133367 1.31081
36 3.5992 1.06012 0.0708866 -1.68043 1.04215 -0.112109
37 1.66069 0 0 0.00620732 0.00200649 1.47997
38 1.16699 0 0 -0.0701392 0.164234 1.21657
39 2.18853 -0.501041 0.0576591 -1.57605 0.00117793 -0.0469345
40 1.29609 0 0 -0.0326374 -0.0616158 1.17811
41 1.62201 -0.000711441 -0.000470161 -0.00508008 -0.00330944 1.42626
42 1.22241 0 0 0.024702 -0.0856985 1.42308
43 1.76707 -1.27612 0.0366402 -1.56655 0.103701 0.0275536
44 1.55587 0 0 0.103891 -0.075653 0.975564
45 1.24273 0 0 -0.00469949 -0.0380689 1.28397
46 0.784531 0 0 -0.0127429 -0.0577752 1.00048
47 0 0 0 0 0 0
48 -5.79077 -21.1222 -13.3216 -1.25284 -0.593176 -1.23423
49 -8.86321 -20.8649 -10.7546 2.04323 -0.678827 -1.43515
50 -8.68284 -21.9724 -5.95148 -0.460813 -0.300487 0.358528
51 -0.49446 -2.33627 -0.838784 0 0 0
time 24
0 6.07472 -5.9503 -7.2488 -0.848953 0.674375 -1.90918
1 11.7344 0 0 -0.00140294 0 -0.950516
2 8.81138 -0.000452042 -0.000112057 0.592431 0 0.000158192
3 5.77839 0.000284195 0 0.396929 0 0.000109071
4 2.23163 -0.000329971 -0.000363827 0.195502 0 0
5 11.4725 0 0 0.438088 -1.21901 -0.239763
6 0.615218 -0.99309 -0.810699 2.92227 0.454999 -0.33141
7 2.24752 0 0 0.0643998 0.0920015 -0.24525
8 1.11936 0 0 0.0124089 0.0391454 -1.16006
9 3.71348 -0.10264 0.102192 1.44559 1.26927 -0.122845
10 1.72615 0 0 -0.013295 0.00454367 -1.35296
11 1.21114 0 0 -0.0138878 0.0108707 -1.50415
12 3.59919 -1.06012 0.0708885 1.59719 1.13552 0.0844628
13 1.66068 0 0 0.0206525 0.106434 -1.46129
14 1.167 0 0 0.140204 0.107864 -1.2636
15 2.18852 0.50104 0.0576611 1.58026 0.110062 0.0312637
16 1.29609 0 0 -0.0214548 0.0115007 -1.06235
17 1.62201 0.000714302 -0.000471115 -0.00756995 0.00444257 -1.4728
18 1.22241 0 0 -0.0469832 -0.00376788 -1.43289
19 1.76707 1.27612 0.0366421 1.57845 0.182304 -0.021451
20 1.55588 0 0 -0.155245 -0.00355026 -0.857709
21 1.24274 0 0 -0.000505369 -0.000322994 -1.24825
22 0.784523 0 0 0.00822036 0.0140817 -0.754785
23 -1.93761 -1.56582 -7.2488 -0.000932534 0 -2.53187
24 6.02794 0 0 1.26545 0.951407 0.615657
25 11.7344 0 0 0.00140267 0 1.54579
26 8.81167 0 0 0.71524 0 0
27 5.77884 0 0 0.479211 0 0
28 2.23249 0 0 0.236029 0 0
29 11.4725 0 0 0.726135 0.0382858 0.173488
30 0.615812 0.994371 -0.809166 -2.72226 0.463503 0.286233
31 2.24752 0 0 -0.083597 0.0959307 0.272288
32 1.11936 0 0 -0.401235 0.450129 0.842933
33 3.71348 0.102638 0.102192 -1.41386 1.26431 0.0816943
34 1.72615 0 0 0.000698472 0.00024171 1.34896
35 1.21112 0 0 0.0115403 0.0133367 1.31081
36 3.5992 1.06012 0.0708885 -1.68043 1.04215 -0.112109
37 1.66069 0 0 0.00620726 0.00200634 1.47997
38 1.16699 0 0 -0.0701393 0.164234 1.21657
39 2.18853 -0.50104 0.0576591 -1.57605 0.00117792 -0.0469346
40 1.29609 0 0 -0.0326375 -0.0616158 1.17811
41 1.62201 -0.000713348 -0.000470161 -0.00508019 -0.00330957 1.42626
42 1.22241 0 0 0.024702 -0.0856984 1.42308
43 1.76707 -1.27612 0.0366421 -1.56655 0.103701 0.0275536
44 1.55587 0 0 0.103891 -0.0756531 0.975564
45 1.24273 0 0 -0.00469952 -0.0380688 1.28397
46 0.784533 0 0 -0.0127429 -0.0577753 1.00048
47 0 0 0 0 0 0
48 -5.96957 -21.5908 -13.2673 -1.27707 -0.632443 -1.2503
49 -9.01558 -21.1297 -10.6973 2.0282 -0.721284 -1.45548
50 -8.83597 -22.0324 -5.85146 -0.501352 -0.279847 0.340109
51 -0.49446 -2.33627 -0.838784 0 0 0
time 25
0 6.07472 -5.9503 -7.2488 -0.784134 0.645403 -1.88832
1 11.7344 0 0 -0.00140296 0 -0.919505
2 8.81138 -0.000450134 -0.000110626 0.436602 0 0.000157952
3 5.77839 0.000286102 0 0.292523 0 0.000108115
4 2.23163 -0.000328064 -0.000363827 0.144079 0 0
5 11.4725 0 0 0.306246 -1.23602 -0.168325
6 0.615217 -0.993092 -0.810699 2.92227 0.454999 -0.33141
7 2.24752 0 0 0.0643998 0.0920016 -0.24525
8 1.11936 0 0 0.0124089 0.0391455 -1.16006
9 3.71348 -0.102642 0.102192 1.44559 1.26927 -0.122845
10 1.72615 0 0 -0.0132949 0.00454374 -1.35296
11 1.21114 0 0 -0.0138879 0.0108709 -1.50415
12 3.59919 -1.06012 0.0708885 1.59719 1.13552 0.0844623
13 1.66068 0 0 0.0206525 0.106434 -1.46129
14 1.167 0 0 0.140204 0.107864 -1.2636
15 2.18852 0.501038 0.0576611 1.58026 0.110062 0.0312634
16 1.29609 0 0 -0.0214549 0.0115007 -1.06235
17 1.62201 0.000715256 -0.000471115 -0.00757003 0.00444258 -1.4728
18 1.22241 0 0 -0.046983 -0.00376787 -1.43289
19 1.76707 1.27612 0.0366421 1.57845 0.182304 -0.021451
20 1.55588 0 0 -0.155245 -0.0035503 -0.857709
21 1.24273 0 0 -0.000505237 -0.000322973 -1.24825
22 0.784523 0 0 0.00822038 0.0140818 -0.754785
23 -1.93761 -1.56582 -7.2488 -0.000932534 0 -2.53187
24 6.02794 0 0 1.2673 0.950634 0.622454
25 11.7344 0 0 0.00140276 0 1.5371
26 8.81167 0 0 0.685438 0 0
27 5.77884 0 0 0.459244 0 0
28 2.23249 0 0 0.226195 0 0
29 11.4725 0 0 0.696599 0.0150147 0.195715
30 0.615811 0.994371 -0.809166 -2.72226 0.463503 0.286233
31 2.24752 0 0 -0.0835968 0.0959307 0.272288
32 1.11936 0 0 -0.401235 0.450129 0.842934
33 3.71349 0.102638 0.10219 -1.41386 1.26431 0.0816937
34 1.72615 0 0 0.000698431 0.000241706 1.34896
35 1.21112 0 0 0.0115402 0.0133365 1.31081
36 3.5992 1.06011 0.0708885 -1.68043 1.04215 -0.112109
37 1.66069 0 0 0.00620726 0.00200643 1.47997
38 1.16699 0 0 -0.0701393 0.164234 1.21657
39 2.18853 -0.50104 0.0576572 -1.57605 0.00117808 -0.0469346
40 1.29609 0 0 -0.0326374 -0.0616157 1.17811
41 1.62201 -0.000713348 -0.000469208 -0.00508039 -0.00330947 1.42626
42 1.22241 0 0 0.0247019 -0.0856984 1.42308
43 1.76707 -1.27612 0.0366402 -1.56655 0.103701 0.0275536
44 1.55587 0 0 0.103891 -0.075653 0.975564
45 1.24273 0 0 -0.00469963 -0.0380688 1.28397
46 0.784531 0 0 -0.0127429 -0.0577752 1.00048
47 0 0 0 0 0 0
48 -5.93378 -21.7992 -13.3432 -1.29311 -0.650424 -1.26954
49 -8.9471 -21.1966 -10.7641 2.01623 -0.741513 -1.47632
50 -8.75941 -22.0024 -5.90147 -0.519791 -0.266683 0.316248
51 -0.49446 -2.33627 -0.838784 0 0 0
time 26
0 6.07472 -5.9503 -7.2488 -0.724873 0.626578 -1.86888
1 11.7344 0 0 -0.00140293 0 -0.908026
2 8.81138 -0.000448227 -0.00011158 0.30882 0 0.000157884
3 5.77839 0.000286102 0 0.20691 0 0.000107347
4 2.23163 -0.000328064 -0.00036335 0.101911 0 0
5 11.4725 0 0 0.151343 -1.24726 -0.0535012
6 0.61522 -0.99309 -0.810699 2.92227 0.454999 -0.33141
7 2.24752 0 0 0.0643998 0.0920015 -0.24525
8 1.11936 0 0 0.0124089 0.0391452 -1.16006
9 3.71348 -0.10264 0.102192 1.44559 1.26927 -0.122846
10 1.72615 0 0 -0.013295 0.00454358 -1.35296
11 1.21114 0 0 -0.0138877 0.0108707 -1.50415
12 3.59919 -1.06012 0.0708885 1.59719 1.13552 0.0844621
13 1.66069 0 0 0.0206524 0.106434 -1.46129
14 1.167 0 0 0.140204 0.107864 -1.2636
15 2.18852 0.50104 0.0576591 1.58026 0.110062 0.0312635
16 1.29609 0 0 -0.0214548 0.0115008 -1.06235
17 1.62202 0.000714302 -0.000471115 -0.00757017 0.00444246 -1.4728
18 1.22241 0 0 -0.046983 -0.0037678 -1.43289
19 1.76707 1.27612 0.0366402 1.57845 0.182304 -0.0214513
20 1.55588 0 0 -0.155246 -0.00355027 -0.857709
21 1.24273 0 0 -0.000505276 -0.000322817 -1.24825
22 0.784523 0 0 0.00822028 0.0140817 -0.754785
23 -1.93761 -1.56582 -7.2488 -0.000932534 0 -2.53187
24 6.02794 0 0 1.26675 0.954708 0.625738
25 11.7344 0 0 0.00140271 0 1.53856
26 8.81167 0 0 0.660922 0 0
27 5.77884 0 0 0.442818 0 0
28 2.23249 0 0 0.218104 0 0
29 11.4725 0 0 0.670029 -0.00335299 0.197364
30 0.615814 0.994372 -0.809166 -2.72226 0.463503 0.286233
31 2.24752 0 0 -0.0835969 0.0959306 0.272288
32 1.11936 0 0 -0.401235 0.450129 0.842933
33 3.71348 0.10264 0.102192 -1.41386 1.26431 0.0816934
34 1.72615 0 0 0.000698543 0.000241655 1.34896
35 1.21112 0 0 0.0115403 0.0133365 1.31081
36 3.5992 1.06012 0.0708885 -1.68043 1.04215 -0.112109
37 1.66069 0 0 0.00620721 0.00200646 1.47997
38 1.16699 0 0 -0.0701392 0.164234 1.21657
39 2.18853 -0.50104 0.0576591 -1.57605 0.00117788 -0.0469347
40 1.29609 0 0 -0.0326375 -0.0616158 1.17811
41 1.62201 -0.000711441 -0.000471115 -0.00508034 -0.00330955 1.42626
42 1.22241 0 0 0.024702 -0.0856985 1.42308
43 1.76707 -1.27612 0.0366402 -1.56655 0.103701 0.0275535
44 1.55587 0 0 0.103891 -0.0756529 0.975564
45 1.24273 0 0 -0.0046996 -0.0380689 1.28397
46 0.784533 0 0 -0.0127428 -0.0577752 1.00048
47 0 0 0 0 0 0
48 -5.90024 -21.8752 -13.4116 -1.3022 -0.652563 -1.29087
49 -8.87982 -21.1815 -10.8162 2.00721 -0.74509 -1.49706
50 -8.68284 -21.9724 -5.95148 -0.521913 -0.259426 0.289962
51 -0.49446 -2.33627 -0.838784 0 0 0
time 27
0 6.07472 -5.9503 -7.2488 -0.678124 0.610061 -1.85789
1 11.7344 0 0 -0.00140293 0 -0.901338
2 8.81138 -0.000450134 -0.00011158 0.213245 0 0.000157858
3 5.77839 0.000286102 0 0.142874 0 0.000106887
4 2.23163 -0.000329971 -0.00036335 0.0703706 0 0
5 11.4725 0 0 -0.00446764 -1.24896 0.0771389
6 0.615219 -0.993092 -0.810701 2.92227 0.454999 -0.33141
7 2.24752 0 0 0.0643999 0.0920015 -0.24525
8 1.11936 0 0 0.012409 0.0391455 -1.16006
9 3.71348 -0.10264 0.10219 1.44559 1.26927 -0.122847
10 1.72615 0 0 -0.0132949 0.00454368 -1.35296
11 1.21114 0 0 -0.0138878 0.0108708 -1.50415
12 3.59919 -1.06012 0.0708866 1.59719 1.13552 0.0844624
13 1.66068 0 0 0.0206524 0.106434 -1.46129
14 1.167 0 0 0.140204 0.107864 -1.2636
15 2.18852 0.50104 0.0576572 1.58026 0.110062 0.0312637
16 1.29609 0 0 -0.0214549 0.0115006 -1.06235
17 1.62202 0.000714302 -0.000471115 -0.0075697 0.00444248 -1.4728
18 1.22241 0 0 -0.0469829 -0.00376766 -1.43289
19 1.76706 1.27612 0.0366402 1.57845 0.182304 -0.0214509
20 1.55588 0 0 -0.155246 -0.00355046 -0.857709
21 1.24273 0 0 -0.000505123 -0.000322928 -1.24825
22 0.784523 0 0 0.00822036 0.0140818 -0.754785
23 -1.93761 -1.56582 -7.2488 -0.000932534 0 -2.53187
24 6.02794 0 0 1.26796 0.9573 0.625419
25 11.7344 0 0 0.00140268 0 1.54332
26 8.81167 0 0 0.643938 0 0
27 5.77884 0 0 0.431439 0 0
28 2.23249 0 0 0.2125 0 0
29 11.4725 0 0 0.650489 -0.0140697 0.184772
30 0.615813 0.994372 -0.809166 -2.72226 0.463503 0.286233
31 2.24752 0 0 -0.0835971 0.0959307 0.272288
32 1.11936 0 0 -0.401236 0.450129 0.842933
33 3.71349 0.102638 0.10219 -1.41386 1.26431 0.0816934
34 1.72615 0 0 0.000698465 0.000241654 1.34896
35 1.21112 0 0 0.0115403 0.0133366 1.31081
36 3.5992 1.06012 0.0708866 -1.68043 1.04215 -0.112109
37 1.66069 0 0 0.00620713 0.00200655 1.47997
38 1.16699 0 0 -0.0701392 0.164234 1.21657
39 2.18853 -0.50104 0.0576591 -1.57605 0.00117786 -0.0469345
40 1.29609 0 0 -0.0326374 -0.0616158 1.17811
41 1.62201 -0.000713348 -0.000469208 -0.00508019 -0.00330952 1.42626
42 1.22241 0 0 0.0247021 -0.0856983 1.42308
43 1.76707 -1.27612 0.0366421 -1.56655 0.103701 0.0275537
44 1.55588 0 0 0.103891 -0.0756531 0.975564
45 1.24273 0 0 -0.00469946 -0.0380689 1.28397
46 0.784531 0 0 -0.0127429 -0.0577753 1.00048
47 0 0 0 0 0 0
48 -5.93567 -21.8879 -13.4248 -1.30594 -0.644451 -1.31216
49 -8.88519 -21.1426 -10.8095 2.00102 -0.737755 -1.51642
50 -8.68284 -21.9724 -5.95148 -0.513499 -0.25651 0.264265
51 -0.49446 -2.33627 -0.838784 0 0 0
time 28
0 6.07472 -5.9503 -7.2488 -0.641139 0.600291 -1.8478
1 11.7344 0 0 -0.00140277 0 -0.904394
2 8.81138 -0.000450134 -0.000112534 0.15375 0 0.000157698
3 5.77839 0.000286102 0 0.103013 0 0.00010634
4 2.23163 -0.000329971 -0.000364304 0.0507375 0 0
5 11.4725 0 0 -0.13538 -1.2431 0.195222
6 0.61522 -0.993092 -0.810698 2.92227 0.454999 -0.331411
7 2.24752 0 0 0.0643998 0.0920017 -0.24525
8 1.11936 0 0 0.0124089 0.0391454 -1.16006
9 3.71348 -0.102642 0.102192 1.44559 1.26927 -0.122846
10 1.72615 0 0 -0.0132948 0.00454347 -1.35296
11 1.21114 0 0 -0.0138877 0.010871 -1.50415
12 3.59919 -1.06012 0.0708904 1.59719 1.13552 0.0844621
13 1.66069 0 0 0.0206525 0.106434 -1.46129
14 1.167 0 0 0.140204 0.107864 -1.2636
15 2.18853 0.501038 0.0576591 1.58026 0.110062 0.0312636
16 1.29609 0 0 -0.0214551 0.0115006 -1.06235
17 1.62202 0.000714779 -0.000471115 -0.00756992 0.00444236 -1.4728
18 1.22241 0 0 -0.046983 -0.00376774 -1.43289
19 1.76707 1.27612 0.0366421 1.57845 0.182304 -0.0214512
20 1.55588 0 0 -0.155246 -0.00355032 -0.857709
21 1.24274 0 0 -0.000505137 -0.000323011 -1.24825
22 0.784523 0 0 0.00822037 0.0140817 -0.754785
23 -1.93761 -1.56582 -7.2488 -0.000932534 0 -2.53187
24 6.02794 0 0 1.26786 0.961325 0.623986
25 11.7344 0 0 0.00140261 0 1.55121
26 8.81167 0 0 0.631816 0 0
27 5.77884 0 0 0.423317 0 0
28 2.23249 0 0 0.208499 0 0
29 11.4725 0 0 0.635929 -0.0221355 0.16624
30 0.615813 0.99437 -0.809166 -2.72226 0.463503 0.286233
31 2.24752 0 0 -0.083597 0.0959304 0.272288
32 1.11936 0 0 -0.401235 0.450129 0.842933
33 3.71349 0.102636 0.102192 -1.41386 1.26431 0.0816933
34 1.72615 0 0 0.000698374 0.000241684 1.34896
35 1.21112 0 0 0.0115403 0.0133365 1.31081
36 3.5992 1.06011 0.0708885 -1.68043 1.04215 -0.112109
37 1.66069 0 0 0.00620719 0.00200635 1.47997
38 1.16699 0 0 -0.0701394 0.164234 1.21657
39 2.18853 -0.501041 0.0576611 -1.57605 0.00117796 -0.0469345
40 1.29609 0 0 -0.0326375 -0.0616157 1.17811
41 1.62201 -0.000717163 -0.000471115 -0.00508018 -0.00330946 1.42626
42 1.2224 0 0 0.024702 -0.0856985 1.42308
43 1.76707 -1.27612 0.0366421 -1.56655 0.103701 0.0275537
44 1.55587 0 0 0.103891 -0.0756531 0.975564
45 1.24273 0 0 -0.00469953 -0.0380689 1.28397
46 0.784531 0 0 -0.0127429 -0.0577753 1.00048
47 0 0 0 0 0 0
48 -5.9586 -21.8472 -13.4327 -1.30618 -0.631714 -1.33077
49 -8.8852 -21.0792 -10.7982 1.99731 -0.725319 -1.5327
50 -8.68284 -21.9724 -5.95148 -0.500331 -0.256367 0.242176
51 -0.49446 -2.33627 -0.838784 0 0 0
time 29
0 6.07472 -5.9503 -7.2488 -0.616558 0.595478 -1.84004
1 11.7344 0 0 -0.0014029 0 -0.911028
2 8.81138 -0.000448227 -0.000112534 0.124269 0 0.0001583
3 5.77839 0.00028801 0 0.08326 0 0.000106616
4 2.23163 -0.000328064 -0.00036335 0.0410087 0 0
5 11.4725 0 0 -0.222539 -1.23501 0.277806
6 0.61522 -0.993092 -0.810701 2.92227 0.454999 -0.331411
7 2.24752 0 0 0.0643997 0.0920015 -0.24525
8 1.11936 0 0 0.0124089 0.0391454 -1.16006
9 3.71348 -0.102642 0.10219 1.44559 1.26927 -0.122845
10 1.72614 0 0 -0.0132949 0.00454367 -1.35296
11 1.21114 0 0 -0.0138876 0.0108707 -1.50415
12 3.5992 -1.06012 0.0708866 1.59719 1.13552 0.0844622
13 1.66068 0 0 0.0206525 0.106434 -1.46129
14 1.167 0 0 0.140204 0.107864 -1.2636
15 2.18852 0.501038 0.0576611 1.58026 0.110062 0.0312638
16 1.29609 0 0 -0.0214549 0.0115006 -1.06235
17 1.62202 0.000712872 -0.000471115 -0.00756985 0.00444238 -1.4728
18 1.22241 0 0 -0.0469829 -0.00376768 -1.43289
19 1.76707 1.27612 0.0366402 1.57845 0.182304 -0.021451
20 1.55588 0 0 -0.155246 -0.00355027 -0.857709
21 1.24273 0 0 -0.000505299 -0.000323091 -1.24825
22 0.784523 0 0 0.00822037 0.0140817 -0.754785
23 -1.93761 -1.56582 -7.2488 -0.000932534 0 -2.53187
24 6.02794 0 0 1.26723 0.964985 0.622476
25 11.7344 0 0 0.00140267 0 1.55858
26 8.81167 0 0 0.624478 0 0
27 5.77884 0 0 0.4184 0 0
28 2.23249 0 0 0.206078 0 0
29 11.4725 0 0 0.626926 -0.0273768 0.149429
30 0.615814 0.994372 -0.809166 -2.72226 0.463503 0.286233
31 2.24752 0 0 -0.0835967 0.0959308 0.272288
32 1.11936 0 0 -0.401235 0.450129 0.842933
33 3.71349 0.10264 0.10219 -1.41386 1.26431 0.0816935
34 1.72615 0 0 0.000698536 0.000241743 1.34896
35 1.21112 0 0 0.0115403 0.0133367 1.31081
36 3.5992 1.06012 0.0708866 -1.68043 1.04215 -0.11211
37 1.66069 0 0 0.0062072 0.00200636 1.47997
38 1.16699 0 0 -0.0701392 0.164234 1.21657
39 2.18853 -0.50104 0.0576591 -1.57605 0.00117803 -0.0469347
40 1.29609 0 0 -0.0326375 -0.0616159 1.17811
41 1.62201 -0.000713348 -0.000472069 -0.00508013 -0.00330945 1.42626
42 1.2224 0 0 0.024702 -0.0856984 1.42308
43 1.76707 -1.27612 0.0366421 -1.56655 0.103701 0.0275536
44 1.55588 0 0 0.103891 -0.075653 0.975564
45 1.24273 0 0 -0.00469951 -0.0380689 1.28397
46 0.784531 0 0 -0.0127429 -0.057775 1.00048
47 0 0 0 0 0 0
48 -5.96939 -21.7936 -13.4355 -1.30488 -0.619971 -1.34391
49 -8.88197 -21.0202 -10.7871 1.99556 -0.713602 -1.54393
50 -8.68284 -21.9724 -5.95148 -0.48819 -0.257431 0.22671
51 -0.49446 -2.33627 -0.838784 0 0 0
time 30
0 6.07472 -5.9503 -7.2488 -0.60755 0.594158 -1.83688
1 11.7344 0 0 -0.00140276 0 -0.914687
2 8.81138 -0.000450134 -0.00011158 0.116364 0 0.000157777
3 5.77839 0.000284195 0 0.0779639 0 0.00010624
4 2.23163 -0.000329971 -0.00036335 0.0384 0 0
5 11.4725 0 0 -0.254129 -1.23107 0.308825
6 0.615221 -0.993093 -0.810699 2.92227 0.454999 -0.33141
7 2.24752 0 0 0.0643999 0.0920015 -0.24525
8 1.11936 0 0 0.0124091 0.0391454 -1.16006
9 3.71348 -0.102644 0.10219 1.44559 1.26927 -0.122845
10 1.72614 0 0 -0.0132949 0.00454368 -1.35296
11 1.21114 0 0 -0.0138878 0.0108707 -1.50415
12 3.5992 -1.06012 0.0708866 1.59719 1.13552 0.0844624
13 1.66069 0 0 0.0206524 0.106434 -1.46129
14 1.167 0 0 0.140204 0.107864 -1.2636
15 2.18853 0.501038 0.0576591 1.58026 0.110062 0.0312636
16 1.29609 0 0 -0.021455 0.0115008 -1.06235
17 1.62202 0.000713825 -0.000471115 -0.00757008 0.00444246 -1.4728
18 1.22241 0 0 -0.0469829 -0.00376813 -1.43289
19 1.76707 1.27612 0.0366402 1.57845 0.182304 -0.0214511
20 1.55588 0 0 -0.155246 -0.00355041 -0.857709
21 1.24274 0 0 -0.000505279 -0.000322966 -1.24825
22 0.784522 0 0 0.00822031 0.0140818 -0.754785
23 -1.93761 -1.56582 -7.2488 -0.000932534 0 -2.53187
24 6.02794 0 0 1.26685 0.966574 0.621782
25 11.7344 0 0 0.00140279 0 1.56182
26 8.81167 0 0 0.622 0 0
27 5.77884 0 0 0.41674 0 0
28 2.23249 0 0 0.20526 0 0
29 11.4725 0 0 0.623851 -0.0292451 0.142096
30 0.615812 0.994371 -0.809162 -2.72226 0.463503 0.286233
31 2.24752 0 0 -0.083597 0.0959307 0.272288
32 1.11936 0 0 -0.401235 0.450129 0.842933
33 3.71349 0.102638 0.102192 -1.41386 1.26431 0.0816935
34 1.72615 0 0 0.000698442 0.000241673 1.34896
35 1.21112 0 0 0.0115404 0.0133366 1.31081
36 3.5992 1.06011 0.0708885 -1.68043 1.04215 -0.112109
37 1.66069 0 0 0.00620719 0.00200648 1.47997
38 1.16699 0 0 -0.0701393 0.164234 1.21657
39 2.18853 -0.501041 0.0576611 -1.57605 0.00117794 -0.0469344
40 1.29609 0 0 -0.0326375 -0.0616157 1.17811
41 1.62201 -0.000713348 -0.000469208 -0.00508026 -0.0033096 1.42626
42 1.22241 0 0 0.024702 -0.0856982 1.42308
43 1.76707 -1.27612 0.0366421 -1.56655 0.103701 0.0275535
44 1.55588 0 0 0.103891 -0.0756531 0.975564
45 1.24273 0 0 -0.00469944 -0.0380688 1.28397
46 0.784533 0 0 -0.0127428 -0.0577752 1.00048
47 0 0 0 0 0 0
48 -5.97196 -21.7669 -13.4357 -1.30402 -0.614816 -1.34887
49 -8.87988 -20.9943 -10.782 1.99513 -0.708409 -1.54811
50 -8.68284 -21.9724 -5.95148 -0.482858 -0.258133 0.220885
51 -0.49446 -2.33627 -0.838784 0 0 0
end
