//Sequence File generated by the Wall Worm SMD Exporter PRO 1.99
//www.wallworm.com
version 1
nodes
0 "b_l_clav" -1
1 "b_l_upperarm" 0
2 "b_l_forearm" 1
3 "b_l_twist3" 2
4 "b_l_twist2" 2
5 "b_l_twist1" 2
6 "b_l_hand" 2
7 "b_l_thumb001" 6
8 "b_l_thumb002" 7
9 "b_l_thumb003" 8
10 "b_l_middle001" 6
11 "b_l_middle002" 10
12 "b_l_middle003" 11
13 "b_l_index001" 6
14 "b_l_index002" 13
15 "b_l_index003" 14
16 "b_l_hand_ringsqueezer" 6
17 "b_l_ring001" 16
18 "b_l_ring002" 17
19 "b_l_ring003" 18
20 "b_l_hand_pinkysqueezer" 6
21 "b_l_pinky001" 20
22 "b_l_pinky002" 21
23 "b_l_pinky003" 22
24 "b_r_clav" -1
25 "b_r_upperarm" 24
26 "b_r_forearm" 25
27 "b_r_twist3" 26
28 "b_r_twist2" 26
29 "b_r_twist1" 26
30 "b_r_hand" 26
31 "b_r_thumb001" 30
32 "b_r_thumb002" 31
33 "b_r_thumb003" 32
34 "b_r_middle001" 30
35 "b_r_middle002" 34
36 "b_r_middle003" 35
37 "b_r_index001" 30
38 "b_r_index002" 37
39 "b_r_index003" 38
40 "b_r_hand_ringsqueezer" 30
41 "b_r_ring001" 40
42 "b_r_ring002" 41
43 "b_r_ring003" 42
44 "b_r_hand_pinkysqueezer" 30
45 "b_r_pinky001" 44
46 "b_r_pinky002" 45
47 "b_r_pinky003" 46
48 "b_zero" -1
49 "d_mag" -1
50 "d_magwell" 49
51 "d_boolet" 49
52 "d_walk" -1
53 "d_gun" 52
54 "d_chamber" 53
55 "d_bolt" 53
56 "d_trigger" 53
57 "d_stockbar" 53
58 "d_stockpivot" 57
59 "d_mainswivel" 53
60 "d_hookswivel" 59
61 "d_ringswiveltop" 60
62 "d_ringswivelbottom" 61
63 "d_strap1" 62
64 "d_strap2" 63
65 "d_strap3" 64
end
skeleton
time 0
0 0.279744 0.964779 -10.5402 0.000934124 0 -1.04975
1 6.02794 0 0 -1.2985 0.492511 -0.743638
2 11.7344 0 0 -0.00140289 0 -0.975034
3 8.81139 -0.000450134 -0.00011158 -0.309884 0 0.000157687
4 5.77839 0.00028801 0 -0.207622 0 0.000104369
5 2.23163 -0.000329971 -0.000364065 -0.102262 0 0
6 11.4725 0 0 -0.297023 -0.160481 -0.0668279
7 0.615217 -0.993092 -0.810699 -3.03664 0.382047 -0.304473
8 2.24752 0 0 0.103119 0.00887007 0.0121145
9 1.11936 0 0 0.121355 0.237802 0.146889
10 3.71348 -0.10264 0.102191 1.57915 1.20938 0.0785635
11 1.72615 0 0 0.0195877 -0.0108151 -1.07669
12 1.21114 0 0 -0.0162592 0.00461495 -1.87649
13 3.59919 -1.06012 0.0708876 1.77143 1.02648 0.243927
14 1.66069 0 0 -0.0323896 0.0529044 -0.809571
15 1.167 0 0 -0.00928687 -0.010829 -1.98066
16 2.18852 0.501041 0.0576596 1.55583 0.110324 0.0402213
17 1.29609 0 0 -0.10981 0.104265 -0.980904
18 1.62202 0.000715256 -0.000471115 0.0249873 -0.018076 -1.3829
19 1.22241 0 0 0.00912819 -0.000704318 -1.70664
20 1.76707 1.27612 0.0366421 1.54714 0.313947 -0.0233512
21 1.55588 0 0 -0.240313 -0.0114097 -1.10728
22 1.24273 0 0 -0.000479259 0.000360477 -1.02071
23 0.784523 0 0 0.00888764 0.00536394 -1.65773
24 -2.78532 5.54605 -7.74054 -0.000932693 0 -2.00317
25 6.02794 0 0 0.639109 0.549073 -0.257651
26 11.7344 0 0 0.00140271 0 1.69091
27 8.81167 0 0 0.260674 0 0
28 5.77884 0 0 0.174651 0 0
29 2.23249 0 0 0.0860223 0 0
30 11.4725 0 0 0.654896 -0.134923 -1.05151
31 0.615814 0.994372 -0.809166 3.11127 0.484951 0.165541
32 2.24752 0 0 -0.0875738 0.0269838 0.145449
33 1.11936 0 0 0.0458239 0.121351 0.787248
34 3.71349 0.102639 0.10219 -1.55999 0.560763 -0.0798627
35 1.72615 0 0 -0.0183461 -0.00833415 1.10093
36 1.21112 0 0 0.00523106 0.0163881 0.966234
37 3.5992 1.06012 0.0708877 -1.52539 0.466982 0.153986
38 1.66069 0 0 -0.0136917 0.00536073 0.12483
39 1.16699 0 0 0.000179444 -0.0350142 0.627527
40 2.18853 -0.501041 0.057659 -1.57665 0.0817363 -0.0988869
41 1.29609 0 0 -0.00682718 -0.0463338 0.335111
42 1.62202 -0.000713348 -0.000469208 -0.0196994 -0.030138 1.01219
43 1.22241 0 0 -0.0163005 0.00301314 1.15641
44 1.76707 -1.27612 0.0366406 -1.57637 0.00990116 -0.0452131
45 1.55588 0 0 0.165179 -0.0187019 0.410253
46 1.24273 0 0 0.000478922 0.000360576 0.293189
47 0.784531 0 0 -0.00863344 0.0138317 0.725128
48 0 0 0 0 0 0
49 -5.93555 -19.5151 -9.80378 0 0 0
50 0 0.175507 4.39833 0 0 0
51 -0.243587 0.175507 5.00562 0 0 0
52 -8.98651 -15.2233 -5.2717 0 0 0
53 3.05095 -3.79351 -0.23805 0 0 0
54 0 -0.0303917 1.6467 0 0 0
55 0 -2.3184 2.62787 0 0 0
56 0 -2.34127 -0.129979 0 0 0
57 0 10.015 0.00570393 0 0 0
58 0 0.899643 -0.657643 0 0 0
59 0 -6.47112 1.19749 0 0 0
60 0 -0.221874 -1.53505 0 0 0
61 0 0.174824 -0.766596 0 0 0
62 0 0 -0.605335 0 0 0
63 0 -0.0467033 -0.715623 0 0 0
64 0 -0.0772591 -1.03217 0 0 0
65 0 0.00226593 -1.16841 0 0 0
time 1
0 0.279744 0.964779 -10.5402 0.000934124 0 -1.04975
1 6.02794 0 0 -1.27565 0.563712 -0.727341
2 11.7344 0 0 -0.00140273 0 -1.19422
3 8.81138 -0.000450134 -0.000112534 -0.301836 0 0.000158549
4 5.77839 0.000284195 0 -0.20223 0 0.000104895
5 2.23164 -0.000329971 -0.000363588 -0.0996057 0 0
6 11.4725 0 0 -0.331609 -0.171757 0.186188
7 0.615219 -0.99309 -0.8107 -3.03664 0.382047 -0.304473
8 2.24752 0 0 0.10312 0.00887022 0.0121145
9 1.11936 0 0 0.121355 0.237802 0.146889
10 3.71348 -0.10264 0.10219 1.57915 1.20938 0.0785639
11 1.72615 0 0 0.0195877 -0.0108151 -1.07669
12 1.21114 0 0 -0.0162592 0.00461489 -1.87649
13 3.59919 -1.06012 0.070888 1.77143 1.02648 0.243927
14 1.66069 0 0 -0.0323896 0.0529044 -0.80957
15 1.167 0 0 -0.00928689 -0.010829 -1.98066
16 2.18852 0.501041 0.0576582 1.55583 0.110324 0.0402213
17 1.29609 0 0 -0.10981 0.104265 -0.980904
18 1.62202 0.000715256 -0.000471115 0.0249873 -0.0180759 -1.3829
19 1.22241 0 0 0.00912828 -0.000704304 -1.70664
20 1.76707 1.27612 0.0366397 1.54714 0.313947 -0.0233513
21 1.55588 0 0 -0.240314 -0.0114097 -1.10728
22 1.24274 0 0 -0.000479223 0.000360566 -1.02071
23 0.784523 0 0 0.00888771 0.00536392 -1.65773
24 -2.78532 5.54605 -7.74054 -0.000932693 0 -2.00317
25 6.02794 0 0 0.599411 0.588449 -0.318699
26 11.7344 0 0 0.00140275 0 1.79895
27 8.81167 0 0 0.234019 0 0
28 5.77884 0 0 0.156793 0 0
29 2.23249 0 0 0.0772264 0 0
30 11.4725 0 0 0.668913 -0.1805 -1.05397
31 0.615814 0.994372 -0.809166 3.11127 0.484951 0.165541
32 2.24752 0 0 -0.0875738 0.0269836 0.145449
33 1.11936 0 0 0.045824 0.121351 0.787248
34 3.71349 0.102639 0.102191 -1.55999 0.560763 -0.0798625
35 1.72615 0 0 -0.0183461 -0.00833414 1.10093
36 1.21112 0 0 0.00523108 0.016388 0.966234
37 3.5992 1.06012 0.0708888 -1.52539 0.466982 0.153987
38 1.66069 0 0 -0.0127619 0.00704481 0.256026
39 1.16699 0 0 -0.00382167 -0.0323708 0.758778
40 2.18853 -0.50104 0.0576587 -1.57665 0.0817363 -0.0988867
41 1.29609 0 0 -0.00682719 -0.0463338 0.335111
42 1.62202 -0.000713348 -0.000469208 -0.0196994 -0.030138 1.01219
43 1.22241 0 0 -0.0163005 0.00301314 1.15641
44 1.76707 -1.27612 0.0366408 -1.57637 0.00990124 -0.045213
45 1.55588 0 0 0.165179 -0.0187019 0.410253
46 1.24273 0 0 0.000478924 0.000360572 0.293189
47 0.784532 0 0 -0.00863343 0.0138317 0.725128
48 0 0 0 0 0 0
49 -5.93555 -18.6951 -9.76673 -0.0592628 0 0
50 0 0.175507 4.39832 0 0 0
51 -0.243587 0.175507 5.00562 0 0 0
52 -8.98651 -15.2233 -5.2717 0 0 0
53 3.05095 -2.72007 -0.23805 -0.0592628 0 0
54 0 -2.36278 1.6467 0 0 0
55 0 -4.34546 2.62787 0 0 0
56 0 -2.27944 -0.125333 0.120749 0 0
57 0 10.015 0.00570393 0 0 0
58 0 0.899643 -0.657643 0 0 0
59 0 -6.47112 1.19749 0 -0.0108586 0
60 0 -0.221876 -1.53505 -0.151199 -0.000904272 -0.00239164
61 0 0.174824 -0.766596 0.315193 -0.00137937 0.00675488
62 0 0 -0.605335 0 0 0
63 0 -0.0467052 -0.715623 0 0 0
64 0 -0.0772572 -1.03217 0 0 0
65 0 0.00226593 -1.16841 0 0 0
time 2
0 0.279744 0.964779 -10.5402 0.000934124 0 -1.04975
1 6.02794 0 0 -1.2856 0.548175 -0.728034
2 11.7344 0 0 -0.00140277 0 -1.19
3 8.81139 -0.000450134 -0.000111818 -0.276603 0 0.000157586
4 5.77839 0.000286102 0 -0.185324 0 0.000104299
5 2.23164 -0.000329971 -0.000363588 -0.0912789 0 0
6 11.4725 0 0 -0.294899 -0.159407 0.131848
7 0.615217 -0.993092 -0.8107 -3.03664 0.382047 -0.304472
8 2.24752 0 0 0.10312 0.00887005 0.0121146
9 1.11936 0 0 0.121355 0.237802 0.146889
10 3.71348 -0.102642 0.102191 1.57915 1.20938 0.0785638
11 1.72615 0 0 0.0195877 -0.0108152 -1.07669
12 1.21113 0 0 -0.0162592 0.00461493 -1.87649
13 3.59919 -1.06012 0.0708876 1.77143 1.02648 0.243927
14 1.66069 0 0 -0.0323897 0.0529044 -0.80957
15 1.167 0 0 -0.0092869 -0.0108289 -1.98066
16 2.18852 0.501038 0.0576587 1.55583 0.110324 0.0402213
17 1.29609 0 0 -0.10981 0.104265 -0.980904
18 1.62202 0.000713348 -0.000471115 0.0249873 -0.0180759 -1.3829
19 1.22241 0 0 0.00912827 -0.000704288 -1.70664
20 1.76706 1.27612 0.0366406 1.54714 0.313947 -0.0233512
21 1.55588 0 0 -0.240314 -0.0114098 -1.10728
22 1.24273 0 0 -0.000479275 0.000360476 -1.02071
23 0.784523 0 0 0.00888765 0.00536392 -1.65773
24 -2.78532 5.54605 -7.74054 -0.000932693 0 -2.00317
25 6.02794 0 0 0.598722 0.596167 -0.338471
26 11.7344 0 0 0.00140269 0 1.84672
27 8.81167 0 0 0.210206 0 0
28 5.77884 0 0 0.140838 0 0
29 2.23249 0 0 0.0693682 0 0
30 11.4725 0 0 0.655566 -0.188579 -1.06372
31 0.615813 0.994372 -0.809165 3.11127 0.484951 0.165541
32 2.24752 0 0 -0.087574 0.0269838 0.145449
33 1.11936 0 0 0.045824 0.121351 0.787248
34 3.71348 0.102639 0.102191 -1.55999 0.560763 -0.0798626
35 1.72615 0 0 -0.0183461 -0.00833417 1.10093
36 1.21112 0 0 0.00523108 0.0163881 0.966234
37 3.5992 1.06012 0.0708874 -1.52539 0.466982 0.153987
38 1.66069 0 0 -0.0118321 0.00872887 0.387221
39 1.16699 0 0 -0.00782331 -0.0297275 0.890029
40 2.18853 -0.501041 0.0576586 -1.57665 0.0817364 -0.0988868
41 1.29609 0 0 -0.00682716 -0.0463338 0.335111
42 1.62202 -0.000712395 -0.000470161 -0.0196994 -0.030138 1.01219
43 1.22241 0 0 -0.0163005 0.00301314 1.15641
44 1.76707 -1.27612 0.0366403 -1.57637 0.00990129 -0.0452129
45 1.55588 0 0 0.165179 -0.0187019 0.410253
46 1.24273 0 0 0.000478925 0.00036058 0.293189
47 0.784529 0 0 -0.00863344 0.0138317 0.725128
48 0 0 0 0 0 0
49 -5.98332 -18.3021 -9.52328 -0.0825789 0.0112891 0
50 0 0.17551 4.39833 0 0 0
51 -0.243588 0.175508 5.00562 0 0 0
52 -8.98651 -15.2233 -5.2717 0 0 0
53 3.05095 -2.228 -0.0135541 -0.0825789 0.0112891 0
54 0 -2.36278 1.64671 0 0 0
55 0 -4.34546 2.62787 0 0 0
56 0 -2.21761 -0.120687 0.241497 0 0
57 0 10.015 0.00570393 0 0 0
58 0 0.899643 -0.657643 0 0 0
59 0 -6.47111 1.19749 0 -0.0325774 0
60 0 -0.221876 -1.53505 -0.461994 -0.00276607 -0.0073156
61 0 0.174824 -0.766596 0.581223 -0.000740188 0.0102832
62 0 0 -0.605336 0 0 0
63 0 -0.0467014 -0.715622 0 0 0
64 0 -0.077261 -1.03217 0 0 0
65 0 0.00226784 -1.16841 0 0 0
time 3
0 0.279744 0.964779 -10.5402 0.000934124 0 -1.04975
1 6.02794 0 0 -1.3024 0.514215 -0.731314
2 11.7344 0 0 -0.0014028 0 -1.12133
3 8.81138 -0.000450134 -0.000112534 -0.266613 0 0.00015753
4 5.77839 0.000286102 0 -0.178631 0 0.000104391
5 2.23164 -0.000328064 -0.000363827 -0.0879822 0 0
6 11.4725 0 0 -0.268057 -0.140273 0.0295876
7 0.615217 -0.993092 -0.8107 -3.03664 0.382047 -0.304472
8 2.24752 0 0 0.103119 0.00887024 0.0121145
9 1.11936 0 0 0.121355 0.237802 0.146889
10 3.71348 -0.10264 0.102191 1.57915 1.20939 0.0785636
11 1.72615 0 0 0.0195877 -0.0108152 -1.07669
12 1.21113 0 0 -0.0162591 0.00461478 -1.87649
13 3.59919 -1.06012 0.070888 1.77143 1.02648 0.243927
14 1.66069 0 0 -0.0323897 0.0529044 -0.80957
15 1.167 0 0 -0.00928685 -0.010829 -1.98066
16 2.18853 0.501041 0.0576587 1.55583 0.110324 0.0402213
17 1.29609 0 0 -0.10981 0.104265 -0.980904
18 1.62202 0.000713348 -0.000471115 0.0249873 -0.0180759 -1.3829
19 1.22241 0 0 0.00912825 -0.000704274 -1.70664
20 1.76707 1.27612 0.0366411 1.54714 0.313947 -0.0233512
21 1.55588 0 0 -0.240314 -0.0114098 -1.10728
22 1.24274 0 0 -0.000479277 0.00036045 -1.02071
23 0.784523 0 0 0.0088876 0.00536396 -1.65773
24 -2.78532 5.54605 -7.74054 -0.000932693 0 -2.00317
25 6.02794 0 0 0.602821 0.593093 -0.333966
26 11.7344 0 0 0.00140275 0 1.84469
27 8.81167 0 0 0.199876 0 0
28 5.77884 0 0 0.133917 0 0
29 2.23249 0 0 0.0659592 0 0
30 11.4725 0 0 0.641033 -0.193091 -1.05805
31 0.615812 0.994372 -0.809166 3.11127 0.484951 0.165541
32 2.24752 0 0 -0.087574 0.0269838 0.145449
33 1.11936 0 0 0.0458239 0.121351 0.787248
34 3.71349 0.102639 0.102191 -1.55999 0.560763 -0.0798625
35 1.72615 0 0 -0.0183461 -0.00833416 1.10093
36 1.21112 0 0 0.00523109 0.0163881 0.966234
37 3.5992 1.06012 0.0708885 -1.52539 0.466982 0.153987
38 1.66069 0 0 -0.0118321 0.00872888 0.387221
39 1.16699 0 0 -0.00782327 -0.0297275 0.890029
40 2.18853 -0.50104 0.0576594 -1.57665 0.0817364 -0.0988867
41 1.29609 0 0 -0.00682719 -0.0463338 0.335111
42 1.62202 -0.000713348 -0.000470161 -0.0196994 -0.030138 1.01219
43 1.22241 0 0 -0.0163005 0.00301314 1.15641
44 1.76707 -1.27612 0.0366409 -1.57637 0.00990115 -0.045213
45 1.55588 0 0 0.165179 -0.0187019 0.410253
46 1.24273 0 0 0.000478921 0.000360573 0.293189
47 0.784532 0 0 -0.00863344 0.0138317 0.725128
48 0 0 0 0 0 0
49 -5.99111 -18.3336 -9.44443 -0.088768 0.0257861 0.000457287
50 0 0.175508 4.39833 0 0 0
51 -0.243587 0.175508 5.00562 0 0 0
52 -8.98651 -15.2233 -5.2717 0 0 0
53 3.10414 -2.23324 0.0588136 -0.088768 0.0257861 0.000457287
54 0 -2.36279 1.6467 0 0 0
55 0 -4.34547 2.62787 0 0 0
56 0 -2.21761 -0.120686 0.241497 0 0
57 0 10.015 0.0057044 0 0 0
58 0 0.899643 -0.657643 0 0 0
59 0 -6.47112 1.19749 0 -0.0488709 0
60 0 -0.221876 -1.53505 -0.718184 -0.00430871 -0.0113955
61 0 0.174821 -0.766596 0.775714 0.00068712 0.0117032
62 0 0 -0.605335 0 0 0
63 0 -0.0467014 -0.715622 0 0 0
64 0 -0.0772591 -1.03217 0 0 0
65 0 0.00226593 -1.16841 0 0 0
time 4
0 0.279744 0.964779 -10.5402 0.000934124 0 -1.04975
1 6.02794 0 0 -1.31005 0.493808 -0.734172
2 11.7344 0 0 -0.00140279 0 -1.08576
3 8.81138 -0.000450134 -0.000111818 -0.267612 0 0.000157598
4 5.77839 0.000289917 0 -0.1793 0 0.000104379
5 2.23164 -0.000328064 -0.000363588 -0.088312 0 0
6 11.4725 0 0 -0.263147 -0.136518 -0.0166259
7 0.615222 -0.993092 -0.810699 -3.03664 0.382047 -0.304472
8 2.24752 0 0 0.10312 0.00887007 0.0121146
9 1.11936 0 0 0.121355 0.237802 0.146889
10 3.71348 -0.102642 0.10219 1.57915 1.20938 0.0785637
11 1.72615 0 0 0.0195878 -0.0108151 -1.07669
12 1.21114 0 0 -0.0162592 0.00461484 -1.87649
13 3.59919 -1.06012 0.070888 1.77143 1.02648 0.243927
14 1.66069 0 0 -0.0323896 0.0529044 -0.80957
15 1.167 0 0 -0.00928689 -0.010829 -1.98066
16 2.18853 0.50104 0.0576582 1.55583 0.110324 0.0402214
17 1.2961 0 0 -0.10981 0.104265 -0.980904
18 1.62202 0.000713348 -0.000469208 0.0249873 -0.0180759 -1.3829
19 1.22241 0 0 0.00912823 -0.000704297 -1.70664
20 1.76707 1.27612 0.0366406 1.54714 0.313947 -0.0233512
21 1.55587 0 0 -0.240314 -0.0114097 -1.10728
22 1.24274 0 0 -0.000479226 0.000360572 -1.02071
23 0.784523 0 0 0.00888767 0.00536396 -1.65773
24 -2.78532 5.54605 -7.74054 -0.000932693 0 -2.00317
25 6.02794 0 0 0.605997 0.590308 -0.329514
26 11.7344 0 0 0.00140279 0 1.83969
27 8.81167 0 0 0.194994 0 0
28 5.77884 0 0 0.130646 0 0
29 2.23249 0 0 0.064348 0 0
30 11.4725 0 0 0.63044 -0.198275 -1.04811
31 0.615814 0.994372 -0.809166 3.11127 0.484951 0.165541
32 2.24752 0 0 -0.087574 0.0269838 0.145449
33 1.11936 0 0 0.045824 0.121351 0.787248
34 3.71349 0.102639 0.102191 -1.55999 0.560763 -0.0798625
35 1.72615 0 0 -0.0183461 -0.00833416 1.10093
36 1.21112 0 0 0.00523109 0.0163881 0.966234
37 3.5992 1.06012 0.0708883 -1.52539 0.466982 0.153987
38 1.66069 0 0 -0.0118321 0.00872889 0.387221
39 1.16699 0 0 -0.00782327 -0.0297275 0.890029
40 2.18853 -0.50104 0.0576586 -1.57665 0.0817363 -0.0988868
41 1.29609 0 0 -0.00682718 -0.0463338 0.335111
42 1.62201 -0.000713348 -0.000470161 -0.0196994 -0.030138 1.01219
43 1.22241 0 0 -0.0163005 0.00301315 1.15641
44 1.76707 -1.27612 0.0366403 -1.57637 0.00990119 -0.0452131
45 1.55587 0 0 0.165179 -0.0187019 0.410253
46 1.24273 0 0 0.000478924 0.000360573 0.293189
47 0.784531 0 0 -0.00863344 0.0138317 0.725128
48 0 0 0 0 0 0
49 -5.99577 -18.3957 -9.38058 -0.0967487 0.0369706 0.00170158
50 0 0.175508 4.39832 0 0 0
51 -0.243588 0.175507 5.00562 0 0 0
52 -8.98651 -15.2233 -5.2717 0 0 0
53 3.14538 -2.26137 0.114058 -0.0967487 0.0369706 0.00170158
54 0 -1.19659 1.6467 0 0 0
55 0 -3.33193 2.62787 0 0 0
56 0 -2.21761 -0.120687 0.241497 0 0
57 0 10.015 0.00570345 0 0 0
58 0 0.899642 -0.657644 0 0 0
59 0 -6.47112 1.19749 0 -0.0522882 0
60 0 -0.221876 -1.53505 -0.818675 -0.00493973 -0.0130644
61 0 0.174824 -0.766598 0.854479 0.00173452 0.011694
62 0 0 -0.605335 0 0 0
63 0 -0.0467033 -0.715623 0 0 0
64 0 -0.0772591 -1.03217 0 0 0
65 0 0.00226593 -1.1684 0 0 0
time 5
0 0.279744 0.964779 -10.5402 0.000934124 0 -1.04975
1 6.02794 0 0 -1.31338 0.480654 -0.736966
2 11.7344 0 0 -0.00140275 0 -1.05638
3 8.81138 -0.00044632 -0.00011301 -0.271423 0 0.000157918
4 5.77839 0.00028801 0 -0.181853 0 0.00010459
5 2.23163 -0.000328064 -0.000364065 -0.0895695 0 0
6 11.4725 0 0 -0.261323 -0.140245 -0.0616302
7 0.615221 -0.993092 -0.810699 -3.03664 0.382047 -0.304472
8 2.24752 0 0 0.10312 0.00887017 0.0121146
9 1.11936 0 0 0.121355 0.237802 0.146889
10 3.71348 -0.102642 0.102192 1.57915 1.20939 0.0785638
11 1.72615 0 0 0.0195877 -0.0108151 -1.07669
12 1.21113 0 0 -0.0162592 0.00461491 -1.87649
13 3.59919 -1.06012 0.0708885 1.77143 1.02648 0.243927
14 1.66069 0 0 -0.0323896 0.0529044 -0.80957
15 1.167 0 0 -0.00928683 -0.010829 -1.98066
16 2.18853 0.50104 0.0576601 1.55583 0.110324 0.0402214
17 1.29609 0 0 -0.10981 0.104265 -0.980904
18 1.62202 0.000713348 -0.000473022 0.0249873 -0.018076 -1.3829
19 1.22241 0 0 0.00912827 -0.000704253 -1.70664
20 1.76707 1.27612 0.0366416 1.54714 0.313947 -0.0233512
21 1.55588 0 0 -0.240314 -0.0114098 -1.10728
22 1.24273 0 0 -0.000479205 0.000360535 -1.02071
23 0.784523 0 0 0.00888767 0.00536395 -1.65773
24 -2.78532 5.54605 -7.74054 -0.000932693 0 -2.00317
25 6.02794 0 0 0.609574 0.587286 -0.324885
26 11.7344 0 0 0.00140273 0 1.83319
27 8.81167 0 0 0.192532 0 0
28 5.77884 0 0 0.128997 0 0
29 2.23249 0 0 0.0635356 0 0
30 11.4725 0 0 0.621208 -0.199531 -1.04041
31 0.615812 0.994372 -0.809165 3.11127 0.484951 0.165541
32 2.24752 0 0 -0.087574 0.0269837 0.145449
33 1.11936 0 0 0.0458241 0.121351 0.787248
34 3.71348 0.102639 0.102191 -1.55999 0.560763 -0.0798625
35 1.72615 0 0 -0.0183461 -0.00833416 1.10093
36 1.21112 0 0 0.00523108 0.016388 0.966234
37 3.5992 1.06012 0.0708879 -1.52539 0.466982 0.153987
38 1.66069 0 0 -0.0118321 0.00872889 0.387222
39 1.16699 0 0 -0.0078233 -0.0297275 0.890029
40 2.18853 -0.501041 0.0576587 -1.57665 0.0817364 -0.0988868
41 1.29609 0 0 -0.00682718 -0.0463338 0.335111
42 1.62201 -0.000713348 -0.000469208 -0.0196994 -0.030138 1.01219
43 1.22241 0 0 -0.0163005 0.00301312 1.15641
44 1.76707 -1.27612 0.0366403 -1.57637 0.00990128 -0.045213
45 1.55587 0 0 0.165179 -0.0187019 0.410253
46 1.24273 0 0 0.00047892 0.000360574 0.293189
47 0.784533 0 0 -0.00863344 0.0138317 0.725128
48 0 0 0 0 0 0
49 -6.0028 -18.4614 -9.33776 -0.100149 0.0459753 0.00333571
50 0 0.175505 4.39833 0 0 0
51 -0.243587 0.175505 5.00562 0 0 0
52 -8.98651 -15.2233 -5.2717 0 0 0
53 3.17469 -2.31238 0.152177 -0.100149 0.0459753 0.00333571
54 0 -0.0303955 1.64671 0 0 0
55 0 -2.31841 2.62787 0 0 0
56 0 -2.21761 -0.120687 0.241497 0 0
57 0 10.015 0.00570345 0 0 0
58 0 0.899642 -0.657643 0 0 0
59 0 -6.47112 1.19749 0 -0.0489319 0
60 0 -0.221874 -1.53505 -0.820019 -0.00500127 -0.0132271
61 0 0.174825 -0.766596 0.832248 0.00279136 0.0100293
62 0 0 -0.605335 0 0 0
63 0 -0.0467033 -0.715623 0 0 0
64 0 -0.0772572 -1.03217 0 0 0
65 0 0.00226593 -1.16841 0 0 0
time 6
0 0.279744 0.964779 -10.5402 0.000934124 0 -1.04975
1 6.02794 0 0 -1.3128 0.479302 -0.73797
2 11.7344 0 0 -0.00140294 0 -1.04881
3 8.81139 -0.000450134 -0.000112057 -0.277606 0 0.000158226
4 5.77839 0.00028801 0 -0.185996 0 0.000104777
5 2.23163 -0.000328064 -0.000364304 -0.09161 0 0
6 11.4725 0 0 -0.265803 -0.145286 -0.0719178
7 0.61522 -0.993092 -0.810699 -3.03664 0.382047 -0.304472
8 2.24752 0 0 0.10312 0.00887022 0.0121145
9 1.11936 0 0 0.121355 0.237802 0.146889
10 3.71348 -0.102642 0.102191 1.57915 1.20938 0.0785635
11 1.72615 0 0 0.0195877 -0.0108151 -1.07669
12 1.21114 0 0 -0.0162592 0.00461489 -1.87649
13 3.59919 -1.06012 0.070888 1.77143 1.02648 0.243927
14 1.66069 0 0 -0.0323897 0.0529044 -0.80957
15 1.167 0 0 -0.00928684 -0.010829 -1.98066
16 2.18853 0.50104 0.0576591 1.55583 0.110324 0.0402213
17 1.29609 0 0 -0.10981 0.104265 -0.980904
18 1.62202 0.000713348 -0.000471115 0.0249873 -0.018076 -1.3829
19 1.22241 0 0 0.00912825 -0.000704271 -1.70664
20 1.76707 1.27612 0.0366411 1.54714 0.313947 -0.0233512
21 1.55588 0 0 -0.240314 -0.0114098 -1.10728
22 1.24274 0 0 -0.000479258 0.000360507 -1.02071
23 0.784523 0 0 0.00888771 0.00536394 -1.65773
24 -2.78532 5.54605 -7.74054 -0.000932693 0 -2.00317
25 6.02794 0 0 0.613108 0.583881 -0.319336
26 11.7344 0 0 0.00140266 0 1.82541
27 8.81167 0 0 0.193298 0 0
28 5.77884 0 0 0.12951 0 0
29 2.23249 0 0 0.0637883 0 0
30 11.4725 0 0 0.618568 -0.197905 -1.03834
31 0.615812 0.994373 -0.809166 3.11127 0.484951 0.165541
32 2.24752 0 0 -0.087574 0.0269837 0.145449
33 1.11936 0 0 0.045824 0.121351 0.787248
34 3.71348 0.102639 0.102191 -1.55999 0.560763 -0.0798625
35 1.72615 0 0 -0.0183461 -0.00833416 1.10093
36 1.21112 0 0 0.00523108 0.0163881 0.966234
37 3.5992 1.06012 0.070888 -1.52539 0.466982 0.153987
38 1.66069 0 0 -0.0118321 0.00872889 0.387221
39 1.16699 0 0 -0.00782329 -0.0297274 0.890029
40 2.18853 -0.50104 0.0576589 -1.57665 0.0817363 -0.0988867
41 1.29609 0 0 -0.00682718 -0.0463338 0.335111
42 1.62202 -0.000713348 -0.000469208 -0.0196994 -0.030138 1.01219
43 1.22241 0 0 -0.0163005 0.00301313 1.15641
44 1.76707 -1.27612 0.0366402 -1.57637 0.00990117 -0.045213
45 1.55587 0 0 0.165179 -0.0187019 0.410253
46 1.24273 0 0 0.000478921 0.000360571 0.293189
47 0.78453 0 0 -0.00863344 0.0138317 0.725128
48 0 0 0 0 0 0
49 -5.99388 -18.5292 -9.3177 -0.0986714 0.0481168 0.004067
50 0 0.175505 4.39833 0 0 0
51 -0.243587 0.175507 5.00562 0 0 0
52 -8.98651 -15.2233 -5.2717 0 0 0
53 3.19207 -2.38628 0.173172 -0.0986714 0.0481168 0.004067
54 0 -0.0303936 1.64671 0 0 0
55 0 -2.31841 2.62787 0 0 0
56 0 -2.21761 -0.120687 0.241497 0 0
57 0 10.015 0.00570345 0 0 0
58 0 0.899642 -0.657643 0 0 0
59 0 -6.47112 1.19749 0 -0.042847 0
60 0 -0.221874 -1.53505 -0.744488 -0.00461848 -0.0122147
61 0 0.174822 -0.766594 0.752642 0.00373282 0.00758745
62 0 0 -0.605335 0 0 0
63 0 -0.0467014 -0.715623 0 0 0
64 0 -0.0772591 -1.03217 0 0 0
65 0 0.00226593 -1.16841 0 0 0
time 7
0 0.279744 0.964779 -10.5402 0.000934124 0 -1.04975
1 6.02794 0 0 -1.30835 0.494482 -0.735191
2 11.7344 0 0 -0.00140272 0 -1.0786
3 8.81138 -0.000448227 -0.00011158 -0.285163 0 0.000157393
4 5.77839 0.000286102 0 -0.191059 0 0.000104259
5 2.23163 -0.000328064 -0.00036335 -0.094104 0 0
6 11.4725 0 0 -0.28073 -0.144752 -0.0120855
7 0.61522 -0.99309 -0.8107 -3.03664 0.382047 -0.304472
8 2.24752 0 0 0.10312 0.00887022 0.0121146
9 1.11936 0 0 0.121355 0.237802 0.146889
10 3.71348 -0.10264 0.10219 1.57915 1.20938 0.0785635
11 1.72615 0 0 0.0195877 -0.0108152 -1.07669
12 1.21114 0 0 -0.0162592 0.00461492 -1.87649
13 3.5992 -1.06012 0.070888 1.77143 1.02648 0.243927
14 1.66069 0 0 -0.0323896 0.0529044 -0.80957
15 1.167 0 0 -0.00928686 -0.0108289 -1.98066
16 2.18852 0.50104 0.0576582 1.55583 0.110324 0.0402212
17 1.29609 0 0 -0.10981 0.104265 -0.980904
18 1.62202 0.000711441 -0.000469208 0.0249873 -0.018076 -1.3829
19 1.22241 0 0 0.00912822 -0.000704307 -1.70664
20 1.76707 1.27612 0.0366406 1.54714 0.313947 -0.0233512
21 1.55587 0 0 -0.240314 -0.0114098 -1.10728
22 1.24273 0 0 -0.000479295 0.000360512 -1.02071
23 0.784525 0 0 0.00888764 0.00536398 -1.65773
24 -2.78532 5.54605 -7.74054 -0.000932693 0 -2.00317
25 6.02794 0 0 0.616559 0.579758 -0.31199
26 11.7344 0 0 0.00140272 0 1.8152
27 8.81167 0 0 0.199602 0 0
28 5.77884 0 0 0.133733 0 0
29 2.23249 0 0 0.0658687 0 0
30 11.4725 0 0 0.627708 -0.192429 -1.04528
31 0.615813 0.994372 -0.809166 3.11127 0.484951 0.165541
32 2.24752 0 0 -0.0875739 0.0269838 0.145449
33 1.11936 0 0 0.0458239 0.121351 0.787248
34 3.71348 0.102639 0.102191 -1.55999 0.560763 -0.0798625
35 1.72615 0 0 -0.0183461 -0.00833416 1.10093
36 1.21112 0 0 0.00523107 0.016388 0.966234
37 3.5992 1.06012 0.0708878 -1.52539 0.466982 0.153987
38 1.66069 0 0 -0.0118321 0.0087289 0.387221
39 1.16699 0 0 -0.00782329 -0.0297275 0.890029
40 2.18853 -0.501041 0.0576591 -1.57665 0.0817363 -0.0988868
41 1.29609 0 0 -0.00682717 -0.0463338 0.335111
42 1.62202 -0.000714302 -0.000470161 -0.0196994 -0.030138 1.01219
43 1.22241 0 0 -0.0163005 0.00301314 1.15641
44 1.76707 -1.27612 0.0366399 -1.57637 0.00990118 -0.0452131
45 1.55588 0 0 0.165179 -0.0187019 0.410253
46 1.24273 0 0 0.00047892 0.000360569 0.293189
47 0.784532 0 0 -0.00863344 0.0138317 0.725128
48 0 0 0 0 0 0
49 -5.95614 -18.6051 -9.33203 -0.0900066 0.0382213 0.00289405
50 0 0.175507 4.39833 0 0 0
51 -0.243587 0.175508 5.00562 0 0 0
52 -8.98651 -15.2233 -5.2717 0 0 0
53 3.18952 -2.49909 0.168446 -0.0900066 0.0382213 0.00289405
54 0 -0.0303917 1.64671 0 0 0
55 0 -2.3184 2.62787 0 0 0
56 0 -2.23114 -0.121703 0.215083 0 0
57 0 10.015 0.00570393 0 0 0
58 0 0.899643 -0.657643 0 0 0
59 0 -6.47112 1.19749 0 -0.0380786 0
60 0 -0.221874 -1.53505 -0.614353 -0.00391652 -0.0103583
61 0 0.174826 -0.766596 0.659285 0.0044341 0.00524672
62 0 0 -0.605335 0 0 0
63 0 -0.0467033 -0.715623 0 0 0
64 0 -0.077261 -1.03217 0 0 0
65 0 0.00226784 -1.16841 0 0 0
time 8
0 0.279744 0.964779 -10.5402 0.000934124 0 -1.04975
1 6.02794 0 0 -1.30326 0.513305 -0.731069
2 11.7344 0 0 -0.00140274 0 -1.11374
3 8.81138 -0.000450134 -0.000112772 -0.287511 0 0.0001574
4 5.77839 0.000286102 0 -0.192633 0 0.000104113
5 2.23163 -0.000328064 -0.000364304 -0.0948787 0 0
6 11.4725 0 0 -0.293115 -0.138459 0.0608808
7 0.615221 -0.99309 -0.8107 -3.03664 0.382047 -0.304472
8 2.24752 0 0 0.10312 0.00887011 0.0121145
9 1.11936 0 0 0.121355 0.237802 0.146889
10 3.71348 -0.102638 0.102191 1.57915 1.20939 0.0785638
11 1.72615 0 0 0.0195878 -0.0108151 -1.07669
12 1.21114 0 0 -0.0162591 0.00461482 -1.87649
13 3.59919 -1.06012 0.0708885 1.77143 1.02648 0.243927
14 1.66069 0 0 -0.0323897 0.0529044 -0.80957
15 1.167 0 0 -0.00928691 -0.010829 -1.98066
16 2.18852 0.501041 0.0576591 1.55583 0.110324 0.0402213
17 1.29609 0 0 -0.10981 0.104265 -0.980904
18 1.62202 0.000715256 -0.000469208 0.0249873 -0.018076 -1.3829
19 1.22241 0 0 0.00912831 -0.000704297 -1.70664
20 1.76707 1.27612 0.0366411 1.54714 0.313947 -0.0233511
21 1.55588 0 0 -0.240314 -0.0114098 -1.10728
22 1.24274 0 0 -0.000479299 0.000360489 -1.02071
23 0.784523 0 0 0.00888765 0.00536394 -1.65773
24 -2.78532 5.54605 -7.74054 -0.000932693 0 -2.00317
25 6.02794 0 0 0.620368 0.575098 -0.303745
26 11.7344 0 0 0.00140276 0 1.80209
27 8.81167 0 0 0.21043 0 0
28 5.77884 0 0 0.140988 0 0
29 2.23249 0 0 0.0694418 0 0
30 11.4725 0 0 0.642748 -0.181912 -1.05755
31 0.615812 0.994372 -0.809165 3.11127 0.484951 0.165541
32 2.24752 0 0 -0.0875739 0.0269838 0.145449
33 1.11936 0 0 0.0458238 0.121351 0.787248
34 3.71349 0.102639 0.10219 -1.55999 0.560763 -0.0798626
35 1.72615 0 0 -0.0183461 -0.00833416 1.10093
36 1.21112 0 0 0.00523108 0.0163881 0.966234
37 3.5992 1.06012 0.0708884 -1.52539 0.466982 0.153986
38 1.66069 0 0 -0.0121225 0.0082026 0.346223
39 1.16699 0 0 -0.00657301 -0.0305535 0.849013
40 2.18853 -0.50104 0.0576596 -1.57665 0.0817365 -0.0988868
41 1.29609 0 0 -0.00682718 -0.0463338 0.335111
42 1.62202 -0.000714302 -0.000470161 -0.0196994 -0.030138 1.01219
43 1.22241 0 0 -0.0163005 0.00301313 1.15641
44 1.76707 -1.27612 0.0366411 -1.57637 0.00990125 -0.0452131
45 1.55588 0 0 0.165179 -0.0187019 0.410253
46 1.24273 0 0 0.000478926 0.000360572 0.293189
47 0.784533 0 0 -0.00863344 0.0138317 0.725128
48 0 0 0 0 0 0
49 -5.91255 -18.695 -9.38083 -0.0742532 0.0214627 0.000818254
50 0 0.175505 4.39833 0 0 0
51 -0.243587 0.175505 5.00562 0 0 0
52 -8.98651 -15.2233 -5.2717 0 0 0
53 3.1644 -2.65615 0.135133 -0.0742532 0.0214627 0.000818254
54 0 -0.0303936 1.6467 0 0 0
55 0 -2.3184 2.62787 0 0 0
56 0 -2.26398 -0.124172 0.150936 0 0
57 0 10.015 0.00570345 0 0 0
58 0 0.899643 -0.657643 0 0 0
59 0 -6.47112 1.19749 0 -0.0355291 0
60 0 -0.221872 -1.53505 -0.451883 -0.00302057 -0.00798868
61 0 0.174824 -0.766596 0.536523 0.00493056 0.00275827
62 0 0 -0.605335 0 0 0
63 0 -0.0467033 -0.715623 0 0 0
64 0 -0.0772591 -1.03217 0 0 0
65 0 0.00226593 -1.16841 0 0 0
time 9
0 0.279744 0.964779 -10.5402 0.000934124 0 -1.04975
1 6.02794 0 0 -1.2991 0.525295 -0.7289
2 11.7344 0 0 -0.00140285 0 -1.12518
3 8.81138 -0.000450134 -0.000111818 -0.287038 0 0.000157803
4 5.77839 0.00028801 0 -0.192316 0 0.000104576
5 2.23164 -0.000328064 -0.000363588 -0.0947228 0 0
6 11.4725 0 0 -0.29639 -0.134976 0.0873492
7 0.615217 -0.993093 -0.8107 -3.03664 0.382047 -0.304473
8 2.24752 0 0 0.10312 0.00887022 0.0121146
9 1.11936 0 0 0.121355 0.237802 0.146889
10 3.71348 -0.10264 0.10219 1.57915 1.20938 0.0785636
11 1.72615 0 0 0.0195877 -0.0108152 -1.07669
12 1.21114 0 0 -0.0162592 0.00461492 -1.87649
13 3.59919 -1.06012 0.0708876 1.77143 1.02648 0.243927
14 1.66069 0 0 -0.0323897 0.0529044 -0.80957
15 1.167 0 0 -0.00928688 -0.010829 -1.98066
16 2.18853 0.50104 0.0576582 1.55583 0.110324 0.0402213
17 1.29609 0 0 -0.10981 0.104265 -0.980904
18 1.62202 0.000713348 -0.000471115 0.0249873 -0.018076 -1.3829
19 1.22241 0 0 0.00912826 -0.000704219 -1.70664
20 1.76707 1.27612 0.0366402 1.54714 0.313947 -0.0233512
21 1.55588 0 0 -0.240314 -0.0114097 -1.10728
22 1.24274 0 0 -0.000479243 0.000360511 -1.02071
23 0.784523 0 0 0.00888771 0.00536392 -1.65773
24 -2.78532 5.54605 -7.74054 -0.000932693 0 -2.00317
25 6.02794 0 0 0.625041 0.570202 -0.295899
26 11.7344 0 0 0.00140275 0 1.7861
27 8.81167 0 0 0.22178 0 0
28 5.77884 0 0 0.148593 0 0
29 2.23249 0 0 0.0731874 0 0
30 11.4725 0 0 0.652343 -0.167558 -1.06752
31 0.615813 0.994372 -0.809165 3.11127 0.484951 0.165541
32 2.24752 0 0 -0.0875741 0.0269837 0.145449
33 1.11936 0 0 0.045824 0.121351 0.787248
34 3.71349 0.102639 0.102192 -1.55999 0.560763 -0.0798625
35 1.72615 0 0 -0.0183461 -0.00833415 1.10093
36 1.21112 0 0 0.00523108 0.016388 0.966234
37 3.5992 1.06012 0.0708885 -1.52539 0.466982 0.153987
38 1.66069 0 0 -0.0127619 0.00704481 0.256026
39 1.16699 0 0 -0.00382166 -0.0323708 0.758778
40 2.18853 -0.501041 0.0576596 -1.57665 0.0817364 -0.0988867
41 1.29609 0 0 -0.00682717 -0.0463338 0.335111
42 1.62201 -0.000712395 -0.000469685 -0.0196994 -0.030138 1.01219
43 1.22241 0 0 -0.0163005 0.00301314 1.15641
44 1.76707 -1.27612 0.0366408 -1.57637 0.00990123 -0.045213
45 1.55588 0 0 0.165179 -0.0187019 0.410253
46 1.24273 0 0 0.00047891 0.000360578 0.293189
47 0.784533 0 0 -0.00863344 0.0138317 0.725128
48 0 0 0 0 0 0
49 -5.89913 -18.7971 -9.45006 -0.0547279 0.00867861 -0.000448877
50 0 0.175503 4.39833 0 0 0
51 -0.243587 0.175507 5.00562 0 0 0
52 -8.98651 -15.2233 -5.2717 0 0 0
53 3.12468 -2.84145 0.0818295 -0.0547279 0.00867861 -0.000448877
54 0 -0.0303917 1.6467 0 0 0
55 0 -2.3184 2.62787 0 0 0
56 0 -2.30456 -0.127221 0.0716943 0 0
57 0 10.015 0.00570393 0 0 0
58 0 0.899643 -0.657643 0 0 0
59 0 -6.47112 1.19749 0 -0.0332219 0
60 0 -0.221872 -1.53505 -0.279351 -0.00205577 -0.00543705
61 0 0.174826 -0.766595 0.370187 0.00526589 -0.000185311
62 0 0 -0.605335 0 0 0
63 0 -0.0467014 -0.715623 0 0 0
64 0 -0.0772591 -1.03217 0 0 0
65 0 0.00226784 -1.16841 0 0 0
time 10
0 0.279744 0.964779 -10.5402 0.000934124 0 -1.04975
1 6.02794 0 0 -1.29446 0.533281 -0.728674
2 11.7344 0 0 -0.00140272 0 -1.1257
3 8.81139 -0.000450134 -0.000112534 -0.291072 0 0.000157471
4 5.77839 0.000286102 0 -0.195018 0 0.00010417
5 2.23163 -0.000329971 -0.000364304 -0.0960538 0 0
6 11.4725 0 0 -0.301935 -0.138998 0.0964542
7 0.615219 -0.993092 -0.810701 -3.03664 0.382047 -0.304472
8 2.24752 0 0 0.10312 0.0088702 0.0121146
9 1.11936 0 0 0.121355 0.237802 0.146889
10 3.71348 -0.10264 0.102191 1.57915 1.20938 0.0785637
11 1.72615 0 0 0.0195877 -0.0108151 -1.07669
12 1.21113 0 0 -0.0162592 0.00461492 -1.87649
13 3.59919 -1.06012 0.0708876 1.77143 1.02648 0.243927
14 1.66069 0 0 -0.0323896 0.0529044 -0.80957
15 1.167 0 0 -0.00928689 -0.0108289 -1.98066
16 2.18853 0.501041 0.0576587 1.55583 0.110324 0.0402212
17 1.29609 0 0 -0.10981 0.104265 -0.980904
18 1.62202 0.000711441 -0.000471115 0.0249873 -0.018076 -1.3829
19 1.22241 0 0 0.0091283 -0.000704283 -1.70664
20 1.76707 1.27612 0.0366411 1.54714 0.313947 -0.0233512
21 1.55588 0 0 -0.240314 -0.0114098 -1.10728
22 1.24273 0 0 -0.000479199 0.000360553 -1.02071
23 0.784525 0 0 0.00888772 0.00536395 -1.65773
24 -2.78532 5.54605 -7.74054 -0.000932693 0 -2.00317
25 6.02794 0 0 0.630169 0.565506 -0.28921
26 11.7344 0 0 0.00140269 0 1.76841
27 8.81167 0 0 0.231686 0 0
28 5.77884 0 0 0.15523 0 0
29 2.23249 0 0 0.0764564 0 0
30 11.4725 0 0 0.653072 -0.151818 -1.07194
31 0.615814 0.994372 -0.809166 3.11127 0.484951 0.165541
32 2.24752 0 0 -0.087574 0.0269838 0.145449
33 1.11936 0 0 0.045824 0.121351 0.787248
34 3.71349 0.102639 0.102191 -1.55999 0.560763 -0.0798626
35 1.72615 0 0 -0.0183461 -0.00833415 1.10093
36 1.21112 0 0 0.00523109 0.0163881 0.966234
37 3.5992 1.06012 0.0708879 -1.52539 0.466982 0.153987
38 1.66069 0 0 -0.0134013 0.005887 0.165829
39 1.16699 0 0 -0.00107081 -0.0341881 0.668543
40 2.18853 -0.50104 0.0576591 -1.57665 0.0817364 -0.0988868
41 1.29609 0 0 -0.00682718 -0.0463338 0.335111
42 1.62202 -0.000713348 -0.000469208 -0.0196994 -0.030138 1.01219
43 1.22241 0 0 -0.0163005 0.00301314 1.15641
44 1.76707 -1.27612 0.03664 -1.57637 0.00990132 -0.045213
45 1.55588 0 0 0.165179 -0.0187019 0.410253
46 1.24273 0 0 0.000478909 0.000360578 0.293189
47 0.784533 0 0 -0.00863343 0.0138317 0.725128
48 0 0 0 0 0 0
49 -5.92389 -18.9094 -9.52867 -0.0347477 0.00367032 0
50 0 0.175508 4.39833 0 0 0
51 -0.243587 0.175507 5.00562 0 0 0
52 -8.98651 -15.2233 -5.2717 0 0 0
53 3.07834 -3.03895 0.0171337 -0.0347477 0.00367032 0
54 0 -0.0303917 1.6467 0 0 0
55 0 -2.3184 2.62787 0 0 0
56 0 -2.34127 -0.12998 0 0 0
57 0 10.015 0.00570393 0 0 0
58 0 0.899643 -0.657644 0 0 0
59 0 -6.47112 1.19749 0 -0.0308827 0
60 0 -0.221872 -1.53505 -0.119026 -0.0011473 -0.00303437
61 0 0.174826 -0.766597 0.206122 0.00532776 -0.00279351
62 0 0 -0.605336 0 0 0
63 0 -0.0467014 -0.715623 0 0 0
64 0 -0.0772591 -1.03217 0 0 0
65 0 0.00226593 -1.16841 0 0 0
time 11
0 0.279744 0.964779 -10.5402 0.000934124 0 -1.04975
1 6.02794 0 0 -1.28943 0.539601 -0.729347
2 11.7344 0 0 -0.00140289 0 -1.12842
3 8.81138 -0.000450134 -0.00011301 -0.299951 0 0.000158213
4 5.77839 0.000286102 0 -0.200967 0 0.000104737
5 2.23164 -0.000329971 -0.000363827 -0.0989837 0 0
6 11.4725 0 0 -0.314801 -0.14619 0.119417
7 0.615219 -0.993092 -0.8107 -3.03664 0.382047 -0.304472
8 2.24752 0 0 0.10312 0.00887007 0.0121146
9 1.11936 0 0 0.121355 0.237802 0.146889
10 3.71348 -0.10264 0.102191 1.57915 1.20939 0.0785634
11 1.72615 0 0 0.0195877 -0.0108151 -1.07669
12 1.21113 0 0 -0.0162592 0.0046149 -1.87649
13 3.59919 -1.06012 0.0708885 1.77143 1.02648 0.243927
14 1.66069 0 0 -0.0323897 0.0529044 -0.80957
15 1.167 0 0 -0.00928689 -0.010829 -1.98066
16 2.18853 0.501041 0.0576591 1.55583 0.110324 0.0402214
17 1.29609 0 0 -0.10981 0.104265 -0.980904
18 1.62202 0.000713348 -0.000471115 0.0249873 -0.0180759 -1.3829
19 1.22241 0 0 0.00912824 -0.000704283 -1.70664
20 1.76707 1.27612 0.0366416 1.54714 0.313947 -0.0233511
21 1.55587 0 0 -0.240314 -0.0114098 -1.10728
22 1.24274 0 0 -0.000479214 0.000360519 -1.02071
23 0.784523 0 0 0.00888764 0.00536393 -1.65773
24 -2.78532 5.54605 -7.74054 -0.000932693 0 -2.00317
25 6.02794 0 0 0.634718 0.5612 -0.283106
26 11.7344 0 0 0.00140268 0 1.75019
27 8.81167 0 0 0.240205 0 0
28 5.77884 0 0 0.160938 0 0
29 2.23249 0 0 0.0792677 0 0
30 11.4725 0 0 0.65061 -0.138638 -1.07223
31 0.615812 0.994372 -0.809166 3.11127 0.484951 0.165541
32 2.24752 0 0 -0.0875739 0.0269838 0.145449
33 1.11936 0 0 0.0458239 0.121351 0.787248
34 3.71349 0.10264 0.10219 -1.55999 0.560763 -0.0798627
35 1.72615 0 0 -0.0183461 -0.00833414 1.10093
36 1.21112 0 0 0.00523109 0.016388 0.966234
37 3.5992 1.06012 0.0708882 -1.52539 0.466982 0.153986
38 1.66069 0 0 -0.0136917 0.00536074 0.12483
39 1.16699 0 0 0.000179489 -0.0350142 0.627528
40 2.18853 -0.50104 0.0576587 -1.57665 0.0817364 -0.0988869
41 1.29609 0 0 -0.00682718 -0.0463338 0.335111
42 1.62201 -0.000712395 -0.000469685 -0.0196994 -0.030138 1.01219
43 1.22241 0 0 -0.0163005 0.00301313 1.15641
44 1.76707 -1.27612 0.0366404 -1.57637 0.00990124 -0.0452132
45 1.55588 0 0 0.165179 -0.0187019 0.410253
46 1.24273 0 0 0.000478926 0.000360583 0.293189
47 0.784531 0 0 -0.00863345 0.0138317 0.725128
48 0 0 0 0 0 0
49 -5.96248 -19.0298 -9.60663 -0.0176292 0.00225937 0.00058385
50 0 0.175505 4.39833 0 0 0
51 -0.243588 0.175505 5.00562 0 0 0
52 -8.98651 -15.2233 -5.2717 0 0 0
53 3.03337 -3.23262 -0.0503573 -0.0176292 0.00225937 0.00058385
54 0 -0.0303917 1.64671 0 0 0
55 0 -2.3184 2.62787 0 0 0
56 0 -2.34127 -0.129979 0 0 0
57 0 10.015 0.00570393 0 0 0
58 0 0.899642 -0.657643 0 0 0
59 0 -6.47112 1.19749 0 -0.0282374 0
60 0 -0.221874 -1.53505 0.00682042 -0.000420308 -0.00111168
61 0 0.174824 -0.766596 0.0901719 0.00500384 -0.0042758
62 0 0 -0.605335 0 0 0
63 0 -0.0466995 -0.715623 0 0 0
64 0 -0.0772591 -1.03217 0 0 0
65 0 0.00226593 -1.16841 0 0 0
time 12
0 0.279744 0.964779 -10.5402 0.000934124 0 -1.04975
1 6.02794 0 0 -1.28426 0.5449 -0.730486
2 11.7344 0 0 -0.00140274 0 -1.13282
3 8.81138 -0.000452042 -0.000112057 -0.312881 0 0.000157317
4 5.77839 0.000284195 0 -0.20963 0 0.000104118
5 2.23164 -0.000329971 -0.000363827 -0.103251 0 0
6 11.4725 0 0 -0.33435 -0.154098 0.154458
7 0.615217 -0.99309 -0.8107 -3.03664 0.382047 -0.304473
8 2.24752 0 0 0.10312 0.00887014 0.0121146
9 1.11936 0 0 0.121355 0.237802 0.146889
10 3.71348 -0.10264 0.10219 1.57915 1.20938 0.0785637
11 1.72615 0 0 0.0195877 -0.0108151 -1.07669
12 1.21113 0 0 -0.0162591 0.0046149 -1.87649
13 3.59919 -1.06012 0.0708871 1.77143 1.02648 0.243927
14 1.66069 0 0 -0.0323896 0.0529044 -0.809571
15 1.167 0 0 -0.00928687 -0.010829 -1.98066
16 2.18852 0.50104 0.0576591 1.55583 0.110324 0.0402213
17 1.29609 0 0 -0.10981 0.104265 -0.980904
18 1.62202 0.000713348 -0.000471115 0.0249873 -0.0180759 -1.3829
19 1.22241 0 0 0.00912825 -0.000704291 -1.70664
20 1.76707 1.27612 0.0366411 1.54714 0.313947 -0.0233512
21 1.55588 0 0 -0.240313 -0.0114097 -1.10728
22 1.24274 0 0 -0.000479254 0.000360531 -1.02071
23 0.784523 0 0 0.00888767 0.00536394 -1.65773
24 -2.78532 5.54605 -7.74054 -0.000932693 0 -2.00317
25 6.02794 0 0 0.638958 0.55712 -0.277408
26 11.7344 0 0 0.00140277 0 1.73373
27 8.81167 0 0 0.244934 0 0
28 5.77884 0 0 0.164106 0 0
29 2.23249 0 0 0.0808283 0 0
30 11.4725 0 0 0.645274 -0.127218 -1.07304
31 0.615812 0.994372 -0.809165 3.11127 0.484951 0.165541
32 2.24752 0 0 -0.0875739 0.0269838 0.145449
33 1.11936 0 0 0.0458239 0.121351 0.787248
34 3.71349 0.10264 0.102191 -1.55999 0.560763 -0.0798625
35 1.72615 0 0 -0.0183461 -0.00833413 1.10093
36 1.21112 0 0 0.00523107 0.0163881 0.966234
37 3.5992 1.06012 0.0708885 -1.52539 0.466982 0.153987
38 1.66069 0 0 -0.0136917 0.00536075 0.12483
39 1.16699 0 0 0.000179465 -0.0350142 0.627528
40 2.18853 -0.50104 0.057659 -1.57665 0.0817364 -0.0988868
41 1.29609 0 0 -0.00682719 -0.0463338 0.335111
42 1.62202 -0.000714302 -0.000469208 -0.0196994 -0.030138 1.01219
43 1.22241 0 0 -0.0163005 0.00301313 1.15641
44 1.76707 -1.27612 0.0366402 -1.57637 0.00990126 -0.0452131
45 1.55588 0 0 0.165179 -0.0187019 0.410253
46 1.24273 0 0 0.000478914 0.000360585 0.293189
47 0.784534 0 0 -0.00863343 0.0138316 0.725128
48 0 0 0 0 0 0
49 -6.00508 -19.1343 -9.67701 -0.00146892 0.00387991 0.000651241
50 0 0.175507 4.39833 0 0 0
51 -0.243587 0.175507 5.00562 0 0 0
52 -8.98651 -15.2233 -5.2717 0 0 0
53 2.99776 -3.40644 -0.112047 -0.00146892 0.00387991 0.000651241
54 0 -0.0303936 1.6467 0 0 0
55 0 -2.3184 2.62787 0 0 0
56 0 -2.34128 -0.129979 0 0 0
57 0 10.015 0.00570345 0 0 0
58 0 0.899642 -0.657643 0 0 0
59 0 -6.47112 1.19749 0 -0.0250121 0
60 0 -0.221878 -1.53505 0.0759176 0 0
61 0 0.174824 -0.766596 0.0419603 0.00408612 -0.00412694
62 0 0 -0.605336 0 0 0
63 0 -0.0467052 -0.715623 0 0 0
64 0 -0.077261 -1.03217 0 0 0
65 0 0.00226593 -1.16841 0 0 0
time 13
0 0.279744 0.964779 -10.5402 0.000934124 0 -1.04975
1 6.02794 0 0 -1.28253 0.54643 -0.730965
2 11.7344 0 0 -0.00140289 0 -1.13092
3 8.81138 -0.000448227 -0.000112534 -0.318085 0 0.000158018
4 5.77839 0.000284195 0 -0.213117 0 0.000104566
5 2.23164 -0.000329971 -0.000364304 -0.104968 0 0
6 11.4725 0 0 -0.343681 -0.15544 0.175925
7 0.615217 -0.993092 -0.810699 -3.03664 0.382047 -0.304472
8 2.24752 0 0 0.10312 0.00887008 0.0121146
9 1.11936 0 0 0.121355 0.237802 0.146889
10 3.71348 -0.102642 0.10219 1.57915 1.20939 0.0785639
11 1.72615 0 0 0.0195877 -0.0108152 -1.07669
12 1.21114 0 0 -0.0162592 0.00461489 -1.87649
13 3.59919 -1.06012 0.0708871 1.77143 1.02648 0.243927
14 1.66069 0 0 -0.0323896 0.0529044 -0.80957
15 1.167 0 0 -0.00928683 -0.010829 -1.98066
16 2.18852 0.501038 0.0576591 1.55583 0.110324 0.0402213
17 1.29609 0 0 -0.10981 0.104265 -0.980904
18 1.62202 0.000713348 -0.000470161 0.0249873 -0.018076 -1.3829
19 1.22241 0 0 0.00912826 -0.000704291 -1.70664
20 1.76707 1.27612 0.0366402 1.54714 0.313947 -0.0233512
21 1.55587 0 0 -0.240314 -0.0114098 -1.10728
22 1.24273 0 0 -0.000479245 0.000360545 -1.02071
23 0.784523 0 0 0.00888768 0.00536394 -1.65773
24 -2.78532 5.54605 -7.74054 -0.000932693 0 -2.00317
25 6.02794 0 0 0.641712 0.553635 -0.271749
26 11.7344 0 0 0.00140267 0 1.72039
27 8.81167 0 0 0.251389 0 0
28 5.77884 0 0 0.16843 0 0
29 2.23249 0 0 0.0829582 0 0
30 11.4725 0 0 0.646984 -0.119101 -1.07483
31 0.615812 0.994372 -0.809165 3.11127 0.484951 0.165541
32 2.24752 0 0 -0.087574 0.0269838 0.145449
33 1.11936 0 0 0.0458239 0.121351 0.787248
34 3.71349 0.10264 0.102191 -1.55999 0.560763 -0.0798626
35 1.72615 0 0 -0.0183461 -0.00833415 1.10093
36 1.21112 0 0 0.00523109 0.016388 0.966234
37 3.5992 1.06012 0.0708884 -1.52539 0.466982 0.153987
38 1.66069 0 0 -0.0136917 0.00536075 0.12483
39 1.16699 0 0 0.000179493 -0.0350142 0.627527
40 2.18853 -0.50104 0.0576594 -1.57665 0.0817363 -0.0988868
41 1.29609 0 0 -0.00682718 -0.0463338 0.335111
42 1.62202 -0.000713348 -0.000469685 -0.0196994 -0.030138 1.01219
43 1.22241 0 0 -0.0163005 0.00301314 1.15641
44 1.76707 -1.27612 0.0366404 -1.57637 0.00990127 -0.0452131
45 1.55588 0 0 0.165179 -0.0187019 0.410253
46 1.24273 0 0 0.000478912 0.000360585 0.293189
47 0.784533 0 0 -0.00863346 0.0138317 0.725128
48 0 0 0 0 0 0
49 -6.00684 -19.222 -9.72995 0.0102338 0 0.000398741
50 0 0.175507 4.39833 0 0 0
51 -0.243587 0.175507 5.00562 0 0 0
52 -8.98651 -15.2233 -5.2717 0 0 0
53 2.97947 -3.54438 -0.159338 0.0102338 0 0.000398741
54 0 -0.0303917 1.6467 0 0 0
55 0 -2.3184 2.62787 0 0 0
56 0 -2.34127 -0.129979 0 0 0
57 0 10.015 0.00570393 0 0 0
58 0 0.899643 -0.657643 0 0 0
59 0 -6.47112 1.19749 0 -0.0209324 0
60 0 -0.221874 -1.53505 0.0964631 0.000172523 0.000456191
61 0 0.174824 -0.766596 0.0345703 0.00269389 -0.00286668
62 0 0 -0.605336 0 0 0
63 0 -0.0467033 -0.715623 0 0 0
64 0 -0.0772572 -1.03217 0 0 0
65 0 0.00226402 -1.16841 0 0 0
time 14
0 0.279744 0.964779 -10.5402 0.000934124 0 -1.04975
1 6.02794 0 0 -1.28401 0.540423 -0.732761
2 11.7344 0 0 -0.0014028 0 -1.11727
3 8.81139 -0.000452042 -0.000112295 -0.32066 0 0.000157542
4 5.77839 0.000286102 0 -0.214842 0 0.000104144
5 2.23163 -0.000329971 -0.000364304 -0.105818 0 0
6 11.4725 0 0 -0.345983 -0.155364 0.17474
7 0.615221 -0.99309 -0.810699 -3.03664 0.382047 -0.304473
8 2.24752 0 0 0.10312 0.0088701 0.0121145
9 1.11936 0 0 0.121355 0.237802 0.146889
10 3.71348 -0.10264 0.102192 1.57915 1.20939 0.0785637
11 1.72615 0 0 0.0195877 -0.0108151 -1.07669
12 1.21114 0 0 -0.0162592 0.00461494 -1.87649
13 3.59919 -1.06012 0.0708876 1.77143 1.02648 0.243927
14 1.66069 0 0 -0.0323896 0.0529044 -0.80957
15 1.167 0 0 -0.0092869 -0.0108289 -1.98066
16 2.18852 0.50104 0.0576596 1.55583 0.110324 0.0402213
17 1.29609 0 0 -0.10981 0.104265 -0.980904
18 1.62202 0.000713348 -0.000471115 0.0249873 -0.018076 -1.3829
19 1.22241 0 0 0.00912822 -0.000704284 -1.70664
20 1.76707 1.27612 0.0366416 1.54714 0.313947 -0.0233512
21 1.55588 0 0 -0.240314 -0.0114098 -1.10728
22 1.24274 0 0 -0.000479243 0.000360511 -1.02071
23 0.784523 0 0 0.00888765 0.00536399 -1.65773
24 -2.78532 5.54605 -7.74054 -0.000932693 0 -2.00317
25 6.02794 0 0 0.64132 0.551797 -0.266825
26 11.7344 0 0 0.0014027 0 1.70793
27 8.81167 0 0 0.25813 0 0
28 5.77884 0 0 0.172947 0 0
29 2.23249 0 0 0.085183 0 0
30 11.4725 0 0 0.652973 -0.122783 -1.06695
31 0.615812 0.994372 -0.809165 3.11127 0.484951 0.165541
32 2.24752 0 0 -0.0875741 0.0269837 0.145449
33 1.11935 0 0 0.0458242 0.121351 0.787248
34 3.71349 0.10264 0.102191 -1.55999 0.560763 -0.0798626
35 1.72615 0 0 -0.0183461 -0.00833416 1.10093
36 1.21112 0 0 0.00523109 0.016388 0.966234
37 3.5992 1.06012 0.0708883 -1.52539 0.466982 0.153987
38 1.66069 0 0 -0.0136917 0.00536073 0.12483
39 1.16699 0 0 0.000179478 -0.0350142 0.627528
40 2.18853 -0.50104 0.0576591 -1.57665 0.0817364 -0.0988868
41 1.29609 0 0 -0.00682718 -0.0463338 0.335111
42 1.62202 -0.000714302 -0.000469685 -0.0196994 -0.030138 1.01219
43 1.22241 0 0 -0.0163005 0.00301312 1.15641
44 1.76707 -1.27612 0.0366411 -1.57637 0.00990117 -0.0452132
45 1.55588 0 0 0.165179 -0.0187019 0.410253
46 1.24273 0 0 0.000478923 0.000360576 0.293189
47 0.784533 0 0 -0.00863345 0.0138317 0.725128
48 0 0 0 0 0 0
49 -5.99185 -19.3374 -9.76561 0.00828701 -0.00381874 -0.000454874
50 0 0.175507 4.39833 0 0 0
51 -0.243587 0.175507 5.00562 0 0 0
52 -8.98651 -15.2233 -5.2717 0 0 0
53 2.97846 -3.65144 -0.195926 0.00828701 -0.00381874 -0.000454874
54 0 -0.0303898 1.6467 0 0 0
55 0 -2.3184 2.62787 0 0 0
56 0 -2.34127 -0.129979 0 0 0
57 0 10.015 0.00570393 0 0 0
58 0 0.899643 -0.657643 0 0 0
59 0 -6.47112 1.19749 0 -0.0153448 0
60 0 -0.221872 -1.53505 0.0953014 0.000253487 0.000670321
61 0 0.174822 -0.766596 0.0440396 0.00120567 -0.00124203
62 0 0 -0.605335 0 0 0
63 0 -0.0467014 -0.715623 0 0 0
64 0 -0.0772591 -1.03217 0 0 0
65 0 0.00226593 -1.16841 0 0 0
time 15
0 0.279744 0.964779 -10.5402 0.000934124 0 -1.04975
1 6.02794 0 0 -1.28693 0.525521 -0.73759
2 11.7344 0 0 -0.00140279 0 -1.07963
3 8.81138 -0.000450134 -0.000112534 -0.326778 0 0.000157836
4 5.77839 0.000286102 0 -0.218941 0 0.000104222
5 2.23163 -0.000329971 -0.000363588 -0.107837 0 0
6 11.4725 0 0 -0.343326 -0.160353 0.126162
7 0.615217 -0.993093 -0.8107 -3.03664 0.382047 -0.304472
8 2.24752 0 0 0.10312 0.00887017 0.0121146
9 1.11936 0 0 0.121355 0.237802 0.146889
10 3.71348 -0.102642 0.102191 1.57915 1.20938 0.0785637
11 1.72615 0 0 0.0195877 -0.0108152 -1.07669
12 1.21114 0 0 -0.0162592 0.0046149 -1.87649
13 3.59919 -1.06012 0.0708885 1.77143 1.02648 0.243927
14 1.66069 0 0 -0.0323896 0.0529044 -0.80957
15 1.167 0 0 -0.00928686 -0.010829 -1.98066
16 2.18852 0.501038 0.0576587 1.55583 0.110324 0.0402214
17 1.29609 0 0 -0.10981 0.104265 -0.980904
18 1.62202 0.000715256 -0.000471115 0.0249873 -0.018076 -1.3829
19 1.22241 0 0 0.00912826 -0.000704286 -1.70664
20 1.76707 1.27612 0.0366402 1.54714 0.313947 -0.0233512
21 1.55588 0 0 -0.240314 -0.0114097 -1.10728
22 1.24273 0 0 -0.000479251 0.000360524 -1.02071
23 0.784523 0 0 0.00888765 0.00536393 -1.65773
24 -2.78532 5.54605 -7.74054 -0.000932693 0 -2.00317
25 6.02794 0 0 0.639245 0.551214 -0.263134
26 11.7344 0 0 0.00140275 0 1.69589
27 8.81167 0 0 0.260269 0 0
28 5.77884 0 0 0.17438 0 0
29 2.23249 0 0 0.0858888 0 0
30 11.4725 0 0 0.653919 -0.134799 -1.05118
31 0.615812 0.994372 -0.809165 3.11127 0.484951 0.165541
32 2.24752 0 0 -0.0875741 0.0269839 0.145449
33 1.11936 0 0 0.0458241 0.121351 0.787248
34 3.71348 0.102639 0.102191 -1.55999 0.560763 -0.0798627
35 1.72615 0 0 -0.0183461 -0.00833417 1.10093
36 1.21112 0 0 0.00523105 0.0163881 0.966234
37 3.5992 1.06012 0.0708888 -1.52539 0.466982 0.153986
38 1.66069 0 0 -0.0136917 0.00536074 0.12483
39 1.16699 0 0 0.000179473 -0.0350142 0.627527
40 2.18853 -0.501041 0.0576593 -1.57665 0.0817363 -0.0988869
41 1.29609 0 0 -0.00682718 -0.0463338 0.335111
42 1.62202 -0.000713348 -0.000469685 -0.0196994 -0.030138 1.01219
43 1.22241 0 0 -0.0163005 0.00301313 1.15641
44 1.76707 -1.27612 0.0366408 -1.57637 0.00990122 -0.0452131
45 1.55588 0 0 0.165179 -0.0187019 0.410253
46 1.24273 0 0 0.000478925 0.000360591 0.293189
47 0.78453 0 0 -0.00863345 0.0138317 0.725128
48 0 0 0 0 0 0
49 -6.00053 -19.4736 -9.7949 -0.00192425 -0.000238728 -0.00181586
50 0 0.175505 4.39833 0 0 0
51 -0.243587 0.175505 5.00562 0 0 0
52 -8.98651 -15.2233 -5.2717 0 0 0
53 2.98588 -3.74375 -0.230129 -0.00192425 -0.000238728 -0.00181586
54 0 -0.0303936 1.6467 0 0 0
55 0 -2.3184 2.62787 0 0 0
56 0 -2.34128 -0.129979 0 0 0
57 0 10.015 0.00570393 0 0 0
58 0 0.899643 -0.657644 0 0 0
59 0 -6.47112 1.19749 0 -0.00833772 0
60 0 -0.221874 -1.53505 0.0781322 0.000264044 0.000698251
61 0 0.174824 -0.766596 0.0464057 0 0
62 0 0 -0.605335 0 0 0
63 0 -0.0467033 -0.715623 0 0 0
64 0 -0.0772572 -1.03217 0 0 0
65 0 0.00226402 -1.16841 0 0 0
time 16
0 0.279744 0.964779 -10.5402 0.000934124 0 -1.04975
1 6.02794 0 0 -1.29073 0.506703 -0.743335
2 11.7344 0 0 -0.00140276 0 -1.02804
3 8.81139 -0.000450134 -0.00011158 -0.330418 0 0.000157981
4 5.77839 0.000286102 0 -0.22138 0 0.000104448
5 2.23163 -0.000331879 -0.000363827 -0.109038 0 0
6 11.4725 0 0 -0.333726 -0.165915 0.0486309
7 0.615221 -0.993092 -0.810699 -3.03664 0.382047 -0.304472
8 2.24752 0 0 0.10312 0.00887022 0.0121146
9 1.11936 0 0 0.121355 0.237802 0.146889
10 3.71348 -0.10264 0.102191 1.57915 1.20938 0.0785637
11 1.72615 0 0 0.0195877 -0.0108151 -1.07669
12 1.21114 0 0 -0.0162592 0.00461489 -1.87649
13 3.5992 -1.06012 0.0708876 1.77143 1.02648 0.243927
14 1.66069 0 0 -0.0323897 0.0529044 -0.809571
15 1.167 0 0 -0.00928685 -0.010829 -1.98066
16 2.18853 0.50104 0.0576591 1.55583 0.110324 0.0402213
17 1.29609 0 0 -0.10981 0.104265 -0.980904
18 1.62202 0.000711441 -0.000469208 0.0249873 -0.0180759 -1.3829
19 1.22241 0 0 0.00912823 -0.000704266 -1.70664
20 1.76707 1.27612 0.0366411 1.54714 0.313947 -0.0233511
21 1.55587 0 0 -0.240313 -0.0114098 -1.10728
22 1.24274 0 0 -0.000479264 0.000360517 -1.02071
23 0.784525 0 0 0.00888765 0.00536392 -1.65773
24 -2.78532 5.54605 -7.74054 -0.000932693 0 -2.00317
25 6.02794 0 0 0.637635 0.550518 -0.259622
26 11.7344 0 0 0.00140271 0 1.6854
27 8.81167 0 0 0.261195 0 0
28 5.77884 0 0 0.175001 0 0
29 2.23249 0 0 0.0861944 0 0
30 11.4725 0 0 0.653765 -0.144921 -1.03836
31 0.615814 0.994372 -0.809166 3.11127 0.484951 0.165541
32 2.24752 0 0 -0.087574 0.0269838 0.145449
33 1.11936 0 0 0.045824 0.121351 0.787247
34 3.71349 0.102639 0.10219 -1.55999 0.560763 -0.0798626
35 1.72615 0 0 -0.0183461 -0.00833416 1.10093
36 1.21112 0 0 0.00523108 0.0163881 0.966234
37 3.5992 1.06012 0.0708883 -1.52539 0.466982 0.153987
38 1.66069 0 0 -0.0136917 0.00536073 0.12483
39 1.16699 0 0 0.000179446 -0.0350141 0.627527
40 2.18853 -0.50104 0.0576592 -1.57665 0.0817363 -0.0988867
41 1.29609 0 0 -0.00682716 -0.0463338 0.335111
42 1.62201 -0.000713348 -0.000469208 -0.0196994 -0.030138 1.01219
43 1.22241 0 0 -0.0163005 0.00301313 1.15641
44 1.76707 -1.27612 0.0366403 -1.57637 0.00990125 -0.045213
45 1.55588 0 0 0.165179 -0.0187019 0.410253
46 1.24273 0 0 0.000478923 0.000360569 0.293189
47 0.784532 0 0 -0.00863344 0.0138317 0.725128
48 0 0 0 0 0 0
49 -6.00719 -19.5863 -9.82082 -0.00995531 0.00360902 -0.00316807
50 0 0.175507 4.39833 0 0 0
51 -0.243587 0.175508 5.00562 0 0 0
52 -8.98651 -15.2233 -5.2717 0 0 0
53 2.99651 -3.82203 -0.260292 -0.00995531 0.00360902 -0.00316807
54 0 -0.0303917 1.6467 0 0 0
55 0 -2.3184 2.62787 0 0 0
56 0 -2.34127 -0.129979 0 0 0
57 0 10.015 0.00570393 0 0 0
58 0 0.899644 -0.657643 0 0 0
59 0 -6.47112 1.19749 0 -0.000750495 0
60 0 -0.221876 -1.53505 0.0506552 0.000225323 0.000595841
61 0 0.174826 -0.766595 0.0378586 -0.000788364 0.000673661
62 0 0 -0.605335 0 0 0
63 0 -0.0467033 -0.715623 0 0 0
64 0 -0.0772591 -1.03217 0 0 0
65 0 0.00226784 -1.1684 0 0 0
time 17
0 0.279744 0.964779 -10.5402 0.000934124 0 -1.04975
1 6.02794 0 0 -1.29447 0.490031 -0.747867
2 11.7344 0 0 -0.0014029 0 -0.980114
3 8.81138 -0.000450134 -0.000112534 -0.328784 0 0.000158045
4 5.77839 0.000286102 0 -0.220285 0 0.000104545
5 2.23163 -0.000328064 -0.000364065 -0.108498 0 0
6 11.4725 0 0 -0.321007 -0.168216 -0.023366
7 0.61522 -0.99309 -0.8107 -3.03664 0.382047 -0.304473
8 2.24752 0 0 0.10312 0.00887012 0.0121146
9 1.11936 0 0 0.121355 0.237802 0.146889
10 3.71348 -0.10264 0.102191 1.57915 1.20938 0.0785634
11 1.72615 0 0 0.0195876 -0.0108152 -1.07669
12 1.21114 0 0 -0.0162592 0.0046149 -1.87649
13 3.59919 -1.06012 0.070888 1.77143 1.02648 0.243927
14 1.66069 0 0 -0.0323896 0.0529044 -0.80957
15 1.167 0 0 -0.00928691 -0.010829 -1.98066
16 2.18853 0.501041 0.0576591 1.55583 0.110324 0.0402213
17 1.29609 0 0 -0.10981 0.104265 -0.980904
18 1.62202 0.000713348 -0.000469208 0.0249874 -0.0180759 -1.3829
19 1.22241 0 0 0.00912828 -0.000704303 -1.70664
20 1.76707 1.27612 0.0366411 1.54714 0.313947 -0.0233512
21 1.55587 0 0 -0.240314 -0.0114098 -1.10728
22 1.24274 0 0 -0.000479245 0.000360544 -1.02071
23 0.784523 0 0 0.00888766 0.00536395 -1.65773
24 -2.78532 5.54605 -7.74054 -0.000932693 0 -2.00317
25 6.02794 0 0 0.637172 0.54936 -0.2562
26 11.7344 0 0 0.00140271 0 1.67779
27 8.81167 0 0 0.26399 0 0
28 5.77884 0 0 0.176874 0 0
29 2.23249 0 0 0.0871167 0 0
30 11.4725 0 0 0.656564 -0.148174 -1.03382
31 0.615812 0.994372 -0.809166 3.11127 0.484951 0.165541
32 2.24752 0 0 -0.087574 0.0269838 0.145449
33 1.11936 0 0 0.0458239 0.121351 0.787247
34 3.71349 0.102639 0.102191 -1.55999 0.560763 -0.0798626
35 1.72615 0 0 -0.0183461 -0.00833418 1.10093
36 1.21112 0 0 0.00523109 0.0163881 0.966234
37 3.5992 1.06012 0.0708881 -1.52539 0.466982 0.153987
38 1.66069 0 0 -0.0136917 0.00536073 0.12483
39 1.16699 0 0 0.000179469 -0.0350142 0.627527
40 2.18853 -0.50104 0.0576589 -1.57665 0.0817364 -0.0988868
41 1.29609 0 0 -0.00682716 -0.0463338 0.335111
42 1.62202 -0.000713348 -0.000469685 -0.0196994 -0.030138 1.01219
43 1.22241 0 0 -0.0163005 0.00301314 1.15641
44 1.76707 -1.27612 0.0366408 -1.57637 0.0099012 -0.045213
45 1.55587 0 0 0.165179 -0.0187019 0.410254
46 1.24273 0 0 0.000478922 0.000360576 0.293189
47 0.784532 0 0 -0.00863342 0.0138317 0.725128
48 0 0 0 0 0 0
49 -5.99408 -19.657 -9.84457 -0.0113077 0.00245371 -0.00399534
50 0 0.175507 4.39833 0 0 0
51 -0.243588 0.175507 5.00562 0 0 0
52 -8.98651 -15.2233 -5.2717 0 0 0
53 3.00514 -3.88697 -0.284756 -0.0113077 0.00245371 -0.00399534
54 0 -0.0303936 1.64671 0 0 0
55 0 -2.3184 2.62787 0 0 0
56 0 -2.34128 -0.129979 0 0 0
57 0 10.015 0.00570393 0 0 0
58 0 0.899643 -0.657643 0 0 0
59 0 -6.47112 1.19749 0 0.00657758 0
60 0 -0.221874 -1.53505 0.0185702 0.00015844 0.000418951
61 0 0.174826 -0.766596 0.0304965 -0.00130308 0.00111349
62 0 0 -0.605336 0 0 0
63 0 -0.0467014 -0.715622 0 0 0
64 0 -0.0772591 -1.03217 0 0 0
65 0 0.00226784 -1.1684 0 0 0
time 18
0 0.279744 0.964779 -10.5402 0.000934124 0 -1.04975
1 6.02794 0 0 -1.29737 0.475727 -0.7518
2 11.7344 0 0 -0.00140288 0 -0.938359
3 8.81139 -0.000448227 -0.000112534 -0.326289 0 0.000157679
4 5.77839 0.000286102 0 -0.218614 0 0.000104145
5 2.23164 -0.000328064 -0.000364065 -0.107676 0 0
6 11.4725 0 0 -0.309701 -0.17086 -0.0861191
7 0.615219 -0.993092 -0.810699 -3.03664 0.382047 -0.304472
8 2.24752 0 0 0.10312 0.00887004 0.0121146
9 1.11936 0 0 0.121355 0.237802 0.146889
10 3.71348 -0.102642 0.102191 1.57915 1.20938 0.0785635
11 1.72615 0 0 0.0195877 -0.0108151 -1.07669
12 1.21114 0 0 -0.0162592 0.00461487 -1.87649
13 3.59919 -1.06012 0.070888 1.77143 1.02648 0.243927
14 1.66069 0 0 -0.0323896 0.0529044 -0.80957
15 1.167 0 0 -0.00928687 -0.010829 -1.98066
16 2.18852 0.501038 0.0576591 1.55583 0.110324 0.0402213
17 1.29609 0 0 -0.10981 0.104265 -0.980904
18 1.62202 0.000715256 -0.000469208 0.0249873 -0.0180759 -1.3829
19 1.22241 0 0 0.00912821 -0.000704293 -1.70664
20 1.76707 1.27612 0.0366411 1.54714 0.313947 -0.0233513
21 1.55588 0 0 -0.240314 -0.0114098 -1.10728
22 1.24274 0 0 -0.000479189 0.000360567 -1.02071
23 0.784523 0 0 0.00888771 0.00536392 -1.65773
24 -2.78532 5.54605 -7.74054 -0.000932693 0 -2.00317
25 6.02794 0 0 0.637492 0.548271 -0.253816
26 11.7344 0 0 0.00140274 0 1.67304
27 8.81167 0 0 0.265959 0 0
28 5.77884 0 0 0.178192 0 0
29 2.23249 0 0 0.0877665 0 0
30 11.4725 0 0 0.657678 -0.147567 -1.03289
31 0.615812 0.994372 -0.809166 3.11127 0.484951 0.165541
32 2.24752 0 0 -0.087574 0.0269838 0.145449
33 1.11936 0 0 0.045824 0.121351 0.787248
34 3.71348 0.102639 0.102191 -1.55999 0.560763 -0.0798626
35 1.72615 0 0 -0.0183461 -0.00833416 1.10093
36 1.21112 0 0 0.00523108 0.0163881 0.966234
37 3.5992 1.06012 0.0708876 -1.52539 0.466982 0.153987
38 1.66069 0 0 -0.0136917 0.00536072 0.12483
39 1.16699 0 0 0.000179448 -0.0350141 0.627528
40 2.18853 -0.50104 0.0576595 -1.57665 0.0817363 -0.0988868
41 1.29609 0 0 -0.00682717 -0.0463338 0.335111
42 1.62202 -0.000713348 -0.000469685 -0.0196994 -0.030138 1.01219
43 1.22241 0 0 -0.0163005 0.00301314 1.15641
44 1.76707 -1.27612 0.03664 -1.57637 0.00990119 -0.045213
45 1.55588 0 0 0.165179 -0.0187019 0.410253
46 1.24273 0 0 0.000478928 0.00036056 0.293189
47 0.784534 0 0 -0.00863344 0.0138317 0.725128
48 0 0 0 0 0 0
49 -5.98421 -19.6942 -9.86147 -0.00946312 0.00154369 -0.00397214
50 0 0.175507 4.39833 0 0 0
51 -0.243587 0.175508 5.00562 0 0 0
52 -8.98651 -15.2233 -5.2717 0 0 0
53 3.01106 -3.93202 -0.300648 -0.00946312 0.00154369 -0.00397214
54 0 -0.0303936 1.64671 0 0 0
55 0 -2.3184 2.62787 0 0 0
56 0 -2.34127 -0.129979 0 0 0
57 0 10.015 0.00570393 0 0 0
58 0 0.899643 -0.657643 0 0 0
59 0 -6.47111 1.19749 0 0.0128072 0
60 0 -0.221874 -1.53505 -0.0124232 0 0.000223441
61 0 0.174824 -0.766596 0.0242192 -0.00158325 0.00135289
62 0 0 -0.605335 0 0 0
63 0 -0.0467014 -0.715623 0 0 0
64 0 -0.077261 -1.03217 0 0 0
65 0 0.00226593 -1.16841 0 0 0
time 19
0 0.279744 0.964779 -10.5402 0.000934124 0 -1.04975
1 6.02794 0 0 -1.29928 0.466101 -0.754375
2 11.7344 0 0 -0.00140287 0 -0.9092
3 8.81139 -0.000450134 -0.000112772 -0.323475 0 0.000157504
4 5.77839 0.000286102 0 -0.216728 0 0.000104163
5 2.23164 -0.000329971 -0.000363827 -0.106747 0 0
6 11.4725 0 0 -0.300902 -0.173073 -0.131474
7 0.615219 -0.993092 -0.8107 -3.03664 0.382047 -0.304473
8 2.24752 0 0 0.10312 0.00887027 0.0121145
9 1.11936 0 0 0.121355 0.237802 0.146889
10 3.71348 -0.10264 0.102191 1.57915 1.20938 0.0785636
11 1.72615 0 0 0.0195877 -0.0108152 -1.07669
12 1.21113 0 0 -0.0162591 0.00461484 -1.87649
13 3.59919 -1.06012 0.0708885 1.77143 1.02648 0.243926
14 1.66069 0 0 -0.0323896 0.0529044 -0.80957
15 1.167 0 0 -0.00928681 -0.010829 -1.98066
16 2.18852 0.501041 0.0576591 1.55583 0.110324 0.0402214
17 1.29609 0 0 -0.10981 0.104265 -0.980904
18 1.62202 0.000713348 -0.000471115 0.0249873 -0.018076 -1.3829
19 1.22241 0 0 0.00912823 -0.000704276 -1.70664
20 1.76707 1.27612 0.0366406 1.54714 0.313947 -0.0233512
21 1.55588 0 0 -0.240314 -0.0114097 -1.10728
22 1.24273 0 0 -0.000479201 0.000360466 -1.02071
23 0.784525 0 0 0.00888766 0.00536393 -1.65773
24 -2.78532 5.54605 -7.74054 -0.000932693 0 -2.00317
25 6.02794 0 0 0.638152 0.547471 -0.252555
26 11.7344 0 0 0.00140268 0 1.67135
27 8.81167 0 0 0.266927 0 0
28 5.77884 0 0 0.178841 0 0
29 2.23249 0 0 0.0880857 0 0
30 11.4725 0 0 0.657622 -0.144618 -1.03467
31 0.615814 0.994372 -0.809166 3.11127 0.484951 0.165541
32 2.24752 0 0 -0.0875742 0.0269837 0.145449
33 1.11935 0 0 0.0458239 0.121351 0.787247
34 3.71349 0.102639 0.102192 -1.55999 0.560763 -0.0798625
35 1.72615 0 0 -0.0183461 -0.00833416 1.10093
36 1.21112 0 0 0.00523108 0.0163881 0.966234
37 3.5992 1.06012 0.070888 -1.52539 0.466982 0.153987
38 1.66069 0 0 -0.0136917 0.00536076 0.12483
39 1.16699 0 0 0.000179455 -0.0350142 0.627528
40 2.18853 -0.501041 0.057659 -1.57665 0.0817363 -0.0988867
41 1.29609 0 0 -0.00682718 -0.0463338 0.335111
42 1.62202 -0.000712395 -0.000469208 -0.0196994 -0.030138 1.01219
43 1.22241 0 0 -0.0163005 0.00301314 1.15641
44 1.76707 -1.27612 0.0366406 -1.57637 0.00990126 -0.045213
45 1.55588 0 0 0.165179 -0.0187019 0.410254
46 1.24273 0 0 0.000478928 0.000360575 0.293189
47 0.784532 0 0 -0.00863344 0.0138317 0.725128
48 0 0 0 0 0 0
49 -5.97509 -19.7002 -9.87005 -0.00594673 0.000885391 -0.00330863
50 0 0.175505 4.39833 0 0 0
51 -0.243587 0.175505 5.00562 0 0 0
52 -8.98651 -15.2233 -5.2717 0 0 0
53 3.01696 -3.95313 -0.307355 -0.00594673 0.000885391 -0.00330863
54 0 -0.0303898 1.64671 0 0 0
55 0 -2.3184 2.62787 0 0 0
56 0 -2.34127 -0.129979 0 0 0
57 0 10.015 0.00570393 0 0 0
58 0 0.899642 -0.657644 0 0 0
59 0 -6.47112 1.19749 0 0.017099 0
60 0 -0.221874 -1.53505 -0.0366251 0 0
61 0 0.174826 -0.766596 0.0189265 -0.00166794 0.00142527
62 0 0 -0.605335 0 0 0
63 0 -0.0467014 -0.715623 0 0 0
64 0 -0.077261 -1.03217 0 0 0
65 0 0.00226593 -1.1684 0 0 0
time 20
0 0.279744 0.964779 -10.5402 0.000934124 0 -1.04975
1 6.02794 0 0 -1.30003 0.462919 -0.755107
2 11.7344 0 0 -0.00140296 0 -0.897496
3 8.81138 -0.000450134 -0.000111818 -0.321435 0 0.000157745
4 5.77839 0.000286102 0 -0.215361 0 0.000104307
5 2.23163 -0.000329971 -0.000364304 -0.106073 0 0
6 11.4725 0 0 -0.296143 -0.174416 -0.152315
7 0.615218 -0.993092 -0.8107 -3.03664 0.382047 -0.304472
8 2.24752 0 0 0.103119 0.00887027 0.0121145
9 1.11936 0 0 0.121355 0.237802 0.146889
10 3.71348 -0.102642 0.10219 1.57915 1.20938 0.0785637
11 1.72615 0 0 0.0195877 -0.0108152 -1.07669
12 1.21114 0 0 -0.0162592 0.00461492 -1.87649
13 3.59919 -1.06012 0.0708871 1.77143 1.02648 0.243927
14 1.66069 0 0 -0.0323897 0.0529044 -0.80957
15 1.167 0 0 -0.0092869 -0.0108289 -1.98066
16 2.18852 0.501038 0.0576582 1.55583 0.110324 0.0402213
17 1.29609 0 0 -0.10981 0.104265 -0.980904
18 1.62202 0.000709534 -0.000471115 0.0249873 -0.0180759 -1.3829
19 1.22241 0 0 0.00912826 -0.00070429 -1.70664
20 1.76707 1.27612 0.0366406 1.54714 0.313947 -0.023351
21 1.55588 0 0 -0.240314 -0.0114098 -1.10728
22 1.24273 0 0 -0.000479253 0.000360497 -1.02071
23 0.784523 0 0 0.00888762 0.005364 -1.65773
24 -2.78532 5.54605 -7.74054 -0.000932693 0 -2.00317
25 6.02794 0 0 0.638854 0.547016 -0.252211
26 11.7344 0 0 0.00140273 0 1.67192
27 8.81167 0 0 0.267211 0 0
28 5.77884 0 0 0.179032 0 0
29 2.23249 0 0 0.0881798 0 0
30 11.4725 0 0 0.656972 -0.140903 -1.03764
31 0.615812 0.994372 -0.809165 3.11127 0.484951 0.165541
32 2.24752 0 0 -0.087574 0.0269838 0.145449
33 1.11936 0 0 0.0458239 0.121351 0.787248
34 3.71349 0.102639 0.102191 -1.55999 0.560763 -0.0798626
35 1.72615 0 0 -0.0183461 -0.00833414 1.10093
36 1.21112 0 0 0.00523107 0.016388 0.966234
37 3.5992 1.06012 0.0708883 -1.52539 0.466982 0.153987
38 1.66069 0 0 -0.0136917 0.00536073 0.12483
39 1.16699 0 0 0.000179453 -0.0350141 0.627527
40 2.18853 -0.501041 0.057659 -1.57665 0.0817363 -0.0988868
41 1.29609 0 0 -0.00682716 -0.0463338 0.335111
42 1.62202 -0.000713348 -0.000470161 -0.0196994 -0.030138 1.01219
43 1.22241 0 0 -0.0163005 0.00301313 1.15641
44 1.76707 -1.27612 0.0366408 -1.57637 0.00990125 -0.045213
45 1.55587 0 0 0.165179 -0.0187019 0.410253
46 1.24273 0 0 0.000478925 0.000360568 0.293189
47 0.784533 0 0 -0.00863345 0.0138317 0.725128
48 0 0 0 0 0 0
49 -5.96683 -19.6861 -9.87119 -0.00228392 0.000440335 -0.00229224
50 0 0.175507 4.39833 0 0 0
51 -0.243588 0.175507 5.00562 0 0 0
52 -8.98651 -15.2233 -5.2717 0 0 0
53 3.02273 -3.95475 -0.306608 -0.00228392 0.000440335 -0.00229224
54 0 -0.0303917 1.6467 0 0 0
55 0 -2.3184 2.62787 0 0 0
56 0 -2.34128 -0.12998 0 0 0
57 0 10.015 0.00570393 0 0 0
58 0 0.899643 -0.657644 0 0 0
59 0 -6.47112 1.19749 0 0.0189749 0
60 0 -0.221876 -1.53505 -0.048336 0 0
61 0 0.174824 -0.766596 0.014518 -0.00159627 0.00136402
62 0 0 -0.605335 0 0 0
63 0 -0.0467033 -0.715623 0 0 0
64 0 -0.0772591 -1.03217 0 0 0
65 0 0.00226212 -1.16841 0 0 0
time 21
0 0.279744 0.964779 -10.5402 0.000934124 0 -1.04975
1 6.02794 0 0 -1.29998 0.464784 -0.754359
2 11.7344 0 0 -0.0014028 0 -0.900235
3 8.81138 -0.000450134 -0.000112534 -0.320198 0 0.000158169
4 5.77839 0.000286102 0 -0.214532 0 0.000104533
5 2.23163 -0.000328064 -0.000364304 -0.105665 0 0
6 11.4725 0 0 -0.294753 -0.17476 -0.152927
7 0.61522 -0.993092 -0.8107 -3.03664 0.382047 -0.304473
8 2.24752 0 0 0.10312 0.00887006 0.0121146
9 1.11936 0 0 0.121355 0.237802 0.146889
10 3.71348 -0.102642 0.102191 1.57915 1.20938 0.0785637
11 1.72615 0 0 0.0195877 -0.0108152 -1.07669
12 1.21114 0 0 -0.0162592 0.00461492 -1.87649
13 3.59919 -1.06012 0.0708885 1.77143 1.02648 0.243927
14 1.66069 0 0 -0.0323897 0.0529044 -0.80957
15 1.167 0 0 -0.00928684 -0.010829 -1.98066
16 2.18853 0.50104 0.0576591 1.55583 0.110324 0.0402213
17 1.29609 0 0 -0.10981 0.104265 -0.980904
18 1.62202 0.000715256 -0.000471115 0.0249873 -0.018076 -1.3829
19 1.2224 0 0 0.00912821 -0.000704244 -1.70664
20 1.76707 1.27612 0.0366411 1.54714 0.313947 -0.0233513
21 1.55587 0 0 -0.240314 -0.0114098 -1.10728
22 1.24273 0 0 -0.000479197 0.00036052 -1.02071
23 0.784521 0 0 0.00888767 0.00536391 -1.65773
24 -2.78532 5.54605 -7.74054 -0.000932693 0 -2.00317
25 6.02794 0 0 0.639298 0.546958 -0.252574
26 11.7344 0 0 0.00140271 0 1.67392
27 8.81167 0 0 0.267128 0 0
28 5.77884 0 0 0.178976 0 0
29 2.23249 0 0 0.0881521 0 0
30 11.4725 0 0 0.656317 -0.137994 -1.04027
31 0.61581 0.994372 -0.809165 3.11127 0.484951 0.165541
32 2.24752 0 0 -0.0875741 0.0269838 0.145449
33 1.11936 0 0 0.045824 0.121351 0.787248
34 3.71349 0.10264 0.102191 -1.55999 0.560763 -0.0798626
35 1.72615 0 0 -0.0183461 -0.00833416 1.10093
36 1.21112 0 0 0.00523111 0.0163881 0.966234
37 3.5992 1.06012 0.0708882 -1.52539 0.466982 0.153987
38 1.66069 0 0 -0.0136917 0.00536073 0.124831
39 1.16699 0 0 0.00017946 -0.0350141 0.627527
40 2.18853 -0.50104 0.0576592 -1.57665 0.0817364 -0.0988868
41 1.29609 0 0 -0.00682718 -0.0463338 0.335111
42 1.62202 -0.000714302 -0.000470161 -0.0196994 -0.030138 1.01219
43 1.22241 0 0 -0.0163005 0.00301314 1.15641
44 1.76707 -1.27612 0.0366412 -1.57637 0.0099012 -0.045213
45 1.55588 0 0 0.165179 -0.0187019 0.410253
46 1.24273 0 0 0.000478924 0.000360591 0.293189
47 0.784529 0 0 -0.00863343 0.0138317 0.725128
48 0 0 0 0 0 0
49 -5.95956 -19.6629 -9.86587 0 0.000170061 -0.00121039
50 0 0.175507 4.39833 0 0 0
51 -0.243588 0.175507 5.00562 0 0 0
52 -8.98651 -15.2233 -5.2717 0 0 0
53 3.02828 -3.94131 -0.300138 0 0.000170061 -0.00121039
54 0 -0.0303917 1.64671 0 0 0
55 0 -2.3184 2.62787 0 0 0
56 0 -2.34127 -0.129979 0 0 0
57 0 10.015 0.00570393 0 0 0
58 0 0.899644 -0.657643 0 0 0
59 0 -6.47112 1.19749 0 0.0188251 0
60 0 -0.221874 -1.53505 -0.0485854 0 0
61 0 0.174824 -0.766596 0.0108936 -0.00140733 0.00120257
62 0 0 -0.605335 0 0 0
63 0 -0.0467033 -0.715624 0 0 0
64 0 -0.0772591 -1.03217 0 0 0
65 0 0.00226402 -1.16841 0 0 0
time 22
0 0.279744 0.964779 -10.5402 0.000934124 0 -1.04975
1 6.02794 0 0 -1.29974 0.468751 -0.752867
2 11.7344 0 0 -0.00140278 0 -0.909859
3 8.81139 -0.000450134 -0.000112295 -0.318736 0 0.000157838
4 5.77839 0.000286102 0 -0.213553 0 0.000104442
5 2.23164 -0.000329971 -0.000363588 -0.105183 0 0
6 11.4725 0 0 -0.294478 -0.173838 -0.144142
7 0.615221 -0.99309 -0.8107 -3.03664 0.382047 -0.304473
8 2.24752 0 0 0.10312 0.00887012 0.0121146
9 1.11936 0 0 0.121355 0.237802 0.146889
10 3.71348 -0.10264 0.10219 1.57915 1.20939 0.078564
11 1.72615 0 0 0.0195877 -0.0108151 -1.07669
12 1.21114 0 0 -0.0162592 0.00461497 -1.87649
13 3.59919 -1.06012 0.0708871 1.77143 1.02648 0.243927
14 1.66069 0 0 -0.0323896 0.0529044 -0.80957
15 1.167 0 0 -0.00928687 -0.010829 -1.98066
16 2.18852 0.50104 0.0576591 1.55583 0.110324 0.0402214
17 1.29609 0 0 -0.10981 0.104265 -0.980904
18 1.62202 0.000715256 -0.000473022 0.0249873 -0.0180759 -1.3829
19 1.22241 0 0 0.00912823 -0.000704276 -1.70664
20 1.76707 1.27612 0.0366402 1.54714 0.313947 -0.0233512
21 1.55588 0 0 -0.240314 -0.0114098 -1.10728
22 1.24274 0 0 -0.000479275 0.000360476 -1.02071
23 0.784523 0 0 0.00888765 0.00536396 -1.65773
24 -2.78532 5.54605 -7.74054 -0.000932693 0 -2.00317
25 6.02794 0 0 0.639441 0.547227 -0.25341
26 11.7344 0 0 0.00140267 0 1.67683
27 8.81167 0 0 0.266626 0 0
28 5.77884 0 0 0.178639 0 0
29 2.23249 0 0 0.0879864 0 0
30 11.4725 0 0 0.655866 -0.136338 -1.04235
31 0.615814 0.994373 -0.809165 3.11127 0.484951 0.165541
32 2.24752 0 0 -0.0875742 0.0269836 0.145449
33 1.11936 0 0 0.0458241 0.121351 0.787248
34 3.71349 0.10264 0.102191 -1.55999 0.560763 -0.0798626
35 1.72615 0 0 -0.0183462 -0.00833416 1.10093
36 1.21112 0 0 0.00523111 0.016388 0.966234
37 3.5992 1.06012 0.0708884 -1.52539 0.466982 0.153987
38 1.66069 0 0 -0.0136917 0.00536073 0.124831
39 1.16699 0 0 0.000179464 -0.0350141 0.627527
40 2.18853 -0.50104 0.0576594 -1.57665 0.0817363 -0.0988869
41 1.29609 0 0 -0.00682719 -0.0463338 0.335111
42 1.62202 -0.000713348 -0.000469208 -0.0196994 -0.030138 1.01219
43 1.22241 0 0 -0.0163005 0.00301313 1.15641
44 1.76707 -1.27612 0.036641 -1.57637 0.00990122 -0.0452131
45 1.55588 0 0 0.165179 -0.0187019 0.410253
46 1.24273 0 0 0.000478916 0.00036057 0.293189
47 0.784531 0 0 -0.00863345 0.0138317 0.725128
48 0 0 0 0 0 0
49 -5.95334 -19.6356 -9.85578 0.00075419 0 -0.000350501
50 0 0.175507 4.39833 0 0 0
51 -0.243587 0.175505 5.00562 0 0 0
52 -8.98651 -15.2233 -5.2717 0 0 0
53 3.0335 -3.91726 -0.289676 0.00075419 0 -0.000350501
54 0 -0.0303917 1.64671 0 0 0
55 0 -2.3184 2.62787 0 0 0
56 0 -2.34127 -0.129979 0 0 0
57 0 10.015 0.00570393 0 0 0
58 0 0.899644 -0.657643 0 0 0
59 0 -6.47111 1.19749 0 0.0171133 0
60 0 -0.221874 -1.53505 -0.0434164 0 0
61 0 0.174826 -0.766595 0.00795303 -0.0011402 0.000974303
62 0 0 -0.605336 0 0 0
63 0 -0.0467052 -0.715623 0 0 0
64 0 -0.0772572 -1.03217 0 0 0
65 0 0.00226402 -1.1684 0 0 0
time 23
0 0.279744 0.964779 -10.5402 0.000934124 0 -1.04975
1 6.02794 0 0 -1.29926 0.474196 -0.750928
2 11.7344 0 0 -0.00140291 0 -0.924062
3 8.81138 -0.000448227 -0.000112057 -0.317401 0 0.000157904
4 5.77839 0.000286102 0 -0.212659 0 0.000104374
5 2.23163 -0.000329971 -0.000363588 -0.104742 0 0
6 11.4725 0 0 -0.295321 -0.17191 -0.128621
7 0.615217 -0.993092 -0.810699 -3.03664 0.382047 -0.304473
8 2.24752 0 0 0.10312 0.00887007 0.0121146
9 1.11936 0 0 0.121355 0.237802 0.146889
10 3.71348 -0.102642 0.102191 1.57915 1.20938 0.0785638
11 1.72615 0 0 0.0195876 -0.0108152 -1.07669
12 1.21114 0 0 -0.0162592 0.0046149 -1.87649
13 3.59919 -1.06012 0.070888 1.77143 1.02648 0.243927
14 1.66069 0 0 -0.0323897 0.0529044 -0.80957
15 1.167 0 0 -0.00928688 -0.010829 -1.98066
16 2.18852 0.501038 0.0576591 1.55583 0.110324 0.0402213
17 1.29609 0 0 -0.10981 0.104265 -0.980904
18 1.62202 0.000713348 -0.000473022 0.0249873 -0.018076 -1.3829
19 1.22241 0 0 0.0091282 -0.000704283 -1.70664
20 1.76707 1.27612 0.0366406 1.54714 0.313947 -0.0233512
21 1.55588 0 0 -0.240313 -0.0114098 -1.10728
22 1.24273 0 0 -0.000479169 0.000360561 -1.02071
23 0.784523 0 0 0.00888765 0.00536385 -1.65773
24 -2.78532 5.54605 -7.74054 -0.000932693 0 -2.00317
25 6.02794 0 0 0.639445 0.547645 -0.254459
26 11.7344 0 0 0.00140264 0 1.68035
27 8.81167 0 0 0.265363 0 0
28 5.77884 0 0 0.177793 0 0
29 2.23249 0 0 0.0875698 0 0
30 11.4725 0 0 0.655497 -0.135453 -1.04477
31 0.615812 0.994372 -0.809166 3.11127 0.484951 0.165541
32 2.24752 0 0 -0.0875739 0.0269837 0.145449
33 1.11936 0 0 0.0458239 0.121351 0.787248
34 3.71349 0.10264 0.102191 -1.55999 0.560763 -0.0798626
35 1.72615 0 0 -0.0183462 -0.00833418 1.10093
36 1.21112 0 0 0.00523109 0.0163881 0.966234
37 3.5992 1.06012 0.070888 -1.52539 0.466982 0.153987
38 1.66069 0 0 -0.0136917 0.00536072 0.12483
39 1.16699 0 0 0.000179492 -0.0350141 0.627527
40 2.18853 -0.50104 0.0576586 -1.57665 0.0817365 -0.0988868
41 1.29609 0 0 -0.00682716 -0.0463338 0.335111
42 1.62202 -0.000713348 -0.000468731 -0.0196994 -0.030138 1.01219
43 1.22241 0 0 -0.0163005 0.00301314 1.15641
44 1.76707 -1.27612 0.0366405 -1.57637 0.00990122 -0.045213
45 1.55588 0 0 0.165179 -0.0187019 0.410254
46 1.24273 0 0 0.00047891 0.00036057 0.293189
47 0.784532 0 0 -0.00863343 0.0138316 0.725128
48 0 0 0 0 0 0
49 -5.94823 -19.6045 -9.84316 0.000965363 0 0
50 0 0.175507 4.39833 0 0 0
51 -0.243587 0.175507 5.00562 0 0 0
52 -8.98651 -15.2233 -5.2717 0 0 0
53 3.03828 -3.88706 -0.276951 0.000965363 0 0
54 0 -0.0303917 1.6467 0 0 0
55 0 -2.3184 2.62787 0 0 0
56 0 -2.34128 -0.129979 0 0 0
57 0 10.015 0.00570393 0 0 0
58 0 0.899642 -0.657644 0 0 0
59 0 -6.47112 1.19749 0 0.014303 0
60 0 -0.221874 -1.53505 -0.034649 0 0
61 0 0.174826 -0.766596 0.00559609 -0.000833973 0.000712633
62 0 0 -0.605335 0 0 0
63 0 -0.0467033 -0.715622 0 0 0
64 0 -0.0772591 -1.03217 0 0 0
65 0 0.00226593 -1.16841 0 0 0
time 24
0 0.279744 0.964779 -10.5402 0.000934124 0 -1.04975
1 6.02794 0 0 -1.29871 0.480115 -0.748826
2 11.7344 0 0 -0.00140291 0 -0.940098
3 8.81138 -0.000448227 -0.000111818 -0.316062 0 0.00015742
4 5.77839 0.000286102 0 -0.211761 0 0.000104031
5 2.23164 -0.000329971 -0.000364065 -0.1043 0 0
6 11.4725 0 0 -0.296677 -0.169324 -0.109829
7 0.615219 -0.993092 -0.8107 -3.03664 0.382047 -0.304473
8 2.24752 0 0 0.10312 0.00887029 0.0121146
9 1.11936 0 0 0.121355 0.237802 0.146889
10 3.71348 -0.10264 0.10219 1.57915 1.20938 0.0785636
11 1.72615 0 0 0.0195877 -0.0108151 -1.07669
12 1.21114 0 0 -0.0162592 0.00461492 -1.87649
13 3.59919 -1.06012 0.0708871 1.77143 1.02648 0.243926
14 1.66069 0 0 -0.0323896 0.0529044 -0.80957
15 1.167 0 0 -0.00928682 -0.010829 -1.98066
16 2.18853 0.501041 0.0576591 1.55583 0.110324 0.0402212
17 1.29609 0 0 -0.10981 0.104265 -0.980904
18 1.62202 0.000713348 -0.000469208 0.0249873 -0.0180759 -1.3829
19 1.22241 0 0 0.0091283 -0.000704304 -1.70664
20 1.76707 1.27612 0.0366406 1.54714 0.313947 -0.0233513
21 1.55588 0 0 -0.240314 -0.0114098 -1.10728
22 1.24274 0 0 -0.000479249 0.000360491 -1.02071
23 0.784521 0 0 0.00888762 0.00536398 -1.65773
24 -2.78532 5.54605 -7.74054 -0.000932693 0 -2.00317
25 6.02794 0 0 0.639397 0.548076 -0.255484
26 11.7344 0 0 0.00140266 0 1.68384
27 8.81167 0 0 0.263776 0 0
28 5.77884 0 0 0.17673 0 0
29 2.23249 0 0 0.0870463 0 0
30 11.4725 0 0 0.655239 -0.135125 -1.04716
31 0.615812 0.994372 -0.809165 3.11127 0.484951 0.165541
32 2.24752 0 0 -0.0875741 0.0269837 0.145449
33 1.11936 0 0 0.045824 0.121351 0.787248
34 3.71349 0.102639 0.102191 -1.55999 0.560763 -0.0798625
35 1.72615 0 0 -0.0183461 -0.00833416 1.10093
36 1.21112 0 0 0.00523108 0.0163881 0.966234
37 3.5992 1.06012 0.0708886 -1.52539 0.466982 0.153987
38 1.66069 0 0 -0.0136917 0.00536074 0.12483
39 1.16699 0 0 0.000179467 -0.0350142 0.627528
40 2.18853 -0.501041 0.0576594 -1.57665 0.0817365 -0.0988867
41 1.29609 0 0 -0.0068272 -0.0463338 0.335111
42 1.62202 -0.000713348 -0.000470161 -0.0196994 -0.030138 1.01219
43 1.22241 0 0 -0.0163005 0.00301314 1.15641
44 1.76707 -1.27612 0.0366403 -1.57637 0.00990128 -0.0452129
45 1.55588 0 0 0.165179 -0.0187019 0.410253
46 1.24273 0 0 0.000478931 0.000360582 0.293189
47 0.784533 0 0 -0.00863344 0.0138317 0.725128
48 0 0 0 0 0 0
49 -5.94398 -19.5732 -9.82983 0.000814525 0 0
50 0 0.175508 4.39833 0 0 0
51 -0.243587 0.175507 5.00562 0 0 0
52 -8.98651 -15.2233 -5.2717 0 0 0
53 3.04253 -3.85513 -0.263695 0.000814525 0 0
54 0 -0.0303917 1.6467 0 0 0
55 0 -2.3184 2.62787 0 0 0
56 0 -2.34127 -0.129979 0 0 0
57 0 10.015 0.00570393 0 0 0
58 0 0.899643 -0.657644 0 0 0
59 0 -6.47112 1.19749 0 0.0108578 0
60 0 -0.221872 -1.53505 -0.0241035 0 0
61 0 0.174826 -0.766596 0.00372255 -0.000527747 0.000450963
62 0 0 -0.605335 0 0 0
63 0 -0.0467033 -0.715623 0 0 0
64 0 -0.0772591 -1.03217 0 0 0
65 0 0.00226784 -1.16841 0 0 0
time 25
0 0.279744 0.964779 -10.5402 0.000934124 0 -1.04975
1 6.02794 0 0 -1.29824 0.485811 -0.746739
2 11.7344 0 0 -0.00140281 0 -0.955811
3 8.81138 -0.000448227 -0.000112295 -0.314521 0 0.000157398
4 5.77839 0.00028801 0 -0.210729 0 0.000104172
5 2.23164 -0.000329971 -0.000364065 -0.103792 0 0
6 11.4725 0 0 -0.297874 -0.16657 -0.0909371
7 0.615219 -0.993092 -0.810699 -3.03664 0.382047 -0.304472
8 2.24752 0 0 0.10312 0.00887015 0.0121146
9 1.11936 0 0 0.121355 0.237802 0.146889
10 3.71348 -0.102642 0.10219 1.57915 1.20938 0.0785637
11 1.72615 0 0 0.0195876 -0.0108152 -1.07669
12 1.21114 0 0 -0.0162592 0.00461494 -1.87649
13 3.59919 -1.06012 0.0708866 1.77143 1.02648 0.243927
14 1.66069 0 0 -0.0323896 0.0529045 -0.80957
15 1.167 0 0 -0.00928688 -0.010829 -1.98066
16 2.18853 0.50104 0.0576587 1.55583 0.110324 0.0402213
17 1.29609 0 0 -0.10981 0.104265 -0.980904
18 1.62202 0.000715256 -0.000471115 0.0249873 -0.018076 -1.3829
19 1.22241 0 0 0.00912824 -0.0007043 -1.70664
20 1.76707 1.27612 0.0366402 1.54714 0.313947 -0.0233512
21 1.55588 0 0 -0.240314 -0.0114098 -1.10728
22 1.24273 0 0 -0.000479238 0.000360471 -1.02071
23 0.784525 0 0 0.00888763 0.00536392 -1.65773
24 -2.78532 5.54605 -7.74054 -0.000932693 0 -2.00317
25 6.02794 0 0 0.639252 0.548577 -0.256573
26 11.7344 0 0 0.00140273 0 1.68729
27 8.81167 0 0 0.262285 0 0
28 5.77884 0 0 0.175731 0 0
29 2.23249 0 0 0.0865541 0 0
30 11.4725 0 0 0.655052 -0.134972 -1.04929
31 0.615814 0.994372 -0.809165 3.11127 0.484951 0.165541
32 2.24752 0 0 -0.0875738 0.0269837 0.145449
33 1.11936 0 0 0.0458239 0.121351 0.787248
34 3.71349 0.10264 0.10219 -1.55999 0.560763 -0.0798625
35 1.72615 0 0 -0.0183461 -0.00833415 1.10093
36 1.21112 0 0 0.00523109 0.0163881 0.966234
37 3.5992 1.06012 0.070888 -1.52539 0.466982 0.153987
38 1.66069 0 0 -0.0136917 0.00536075 0.12483
39 1.16699 0 0 0.000179467 -0.0350141 0.627527
40 2.18853 -0.50104 0.057659 -1.57665 0.0817365 -0.0988868
41 1.29609 0 0 -0.00682718 -0.0463338 0.335111
42 1.62202 -0.000714302 -0.000470161 -0.0196994 -0.030138 1.01219
43 1.22241 0 0 -0.0163005 0.00301314 1.15641
44 1.76707 -1.27612 0.0366402 -1.57637 0.0099014 -0.045213
45 1.55588 0 0 0.165179 -0.0187019 0.410253
46 1.24273 0 0 0.000478924 0.000360576 0.293189
47 0.78453 0 0 -0.00863344 0.0138317 0.725128
48 0 0 0 0 0 0
49 -5.94039 -19.5454 -9.81761 0.000482682 0 0
50 0 0.175507 4.39833 0 0 0
51 -0.243587 0.175505 5.00562 0 0 0
52 -8.98651 -15.2233 -5.2717 0 0 0
53 3.04612 -3.82594 -0.251639 0.000482682 0 0
54 0 -0.0303917 1.6467 0 0 0
55 0 -2.3184 2.62787 0 0 0
56 0 -2.34127 -0.129979 0 0 0
57 0 10.015 0.00570393 0 0 0
58 0 0.899643 -0.657643 0 0 0
59 0 -6.47112 1.19749 0 0.00724132 0
60 0 -0.221874 -1.53505 -0.0136001 0 0
61 0 0.174824 -0.766595 0.00223217 -0.000260617 0.000222698
62 0 0 -0.605336 0 0 0
63 0 -0.0467033 -0.715622 0 0 0
64 0 -0.0772591 -1.03217 0 0 0
65 0 0.00226593 -1.16841 0 0 0
time 26
0 0.279744 0.964779 -10.5402 0.000934124 0 -1.04975
1 6.02794 0 0 -1.29804 0.490042 -0.745068
2 11.7344 0 0 -0.00140293 0 -0.967854
3 8.81139 -0.000450134 -0.000112295 -0.312885 0 0.000157785
4 5.77839 0.000286102 0 -0.209633 0 0.000104327
5 2.23164 -0.000329971 -0.000363827 -0.103252 0 0
6 11.4725 0 0 -0.298486 -0.163953 -0.0757866
7 0.615218 -0.99309 -0.810699 -3.03664 0.382047 -0.304472
8 2.24752 0 0 0.103119 0.00887017 0.0121146
9 1.11936 0 0 0.121355 0.237802 0.146889
10 3.71348 -0.10264 0.10219 1.57915 1.20939 0.078564
11 1.72615 0 0 0.0195877 -0.0108151 -1.07669
12 1.21114 0 0 -0.0162591 0.00461489 -1.87649
13 3.59919 -1.06012 0.0708876 1.77143 1.02648 0.243927
14 1.66069 0 0 -0.0323897 0.0529044 -0.809571
15 1.167 0 0 -0.00928688 -0.010829 -1.98066
16 2.18852 0.501041 0.0576582 1.55583 0.110324 0.0402214
17 1.29609 0 0 -0.10981 0.104265 -0.980904
18 1.62202 0.000713348 -0.000469208 0.0249873 -0.0180759 -1.3829
19 1.22241 0 0 0.00912828 -0.000704288 -1.70664
20 1.76707 1.27612 0.0366402 1.54714 0.313947 -0.0233512
21 1.55588 0 0 -0.240314 -0.0114097 -1.10728
22 1.24274 0 0 -0.000479216 0.000360493 -1.02071
23 0.784525 0 0 0.00888765 0.00536392 -1.65773
24 -2.78532 5.54605 -7.74054 -0.000932693 0 -2.00317
25 6.02794 0 0 0.639156 0.548924 -0.257331
26 11.7344 0 0 0.00140266 0 1.68975
27 8.81167 0 0 0.261214 0 0
28 5.77884 0 0 0.175013 0 0
29 2.23249 0 0 0.0862006 0 0
30 11.4725 0 0 0.654938 -0.134928 -1.05077
31 0.615812 0.994372 -0.809166 3.11127 0.484951 0.165541
32 2.24752 0 0 -0.0875743 0.0269837 0.145449
33 1.11936 0 0 0.045824 0.121351 0.787248
34 3.71349 0.102639 0.10219 -1.55999 0.560763 -0.0798626
35 1.72615 0 0 -0.0183461 -0.00833416 1.10093
36 1.21112 0 0 0.00523107 0.016388 0.966234
37 3.5992 1.06012 0.0708879 -1.52539 0.466982 0.153987
38 1.66069 0 0 -0.0136918 0.00536073 0.12483
39 1.16699 0 0 0.000179488 -0.0350142 0.627527
40 2.18853 -0.501041 0.0576583 -1.57665 0.0817364 -0.0988868
41 1.29609 0 0 -0.00682717 -0.0463338 0.335111
42 1.62201 -0.000714302 -0.000470638 -0.0196994 -0.030138 1.01219
43 1.22241 0 0 -0.0163005 0.00301314 1.15641
44 1.76707 -1.27612 0.0366408 -1.57637 0.00990123 -0.045213
45 1.55588 0 0 0.165179 -0.0187019 0.410253
46 1.24273 0 0 0.000478916 0.000360592 0.293189
47 0.784533 0 0 -0.00863343 0.0138316 0.725128
48 0 0 0 0 0 0
49 -5.93754 -19.5248 -9.80832 0.000150838 0 0
50 0 0.175507 4.39833 0 0 0
51 -0.243587 0.175507 5.00562 0 0 0
52 -8.98651 -15.2233 -5.2717 0 0 0
53 3.04897 -3.80392 -0.242514 0.000150838 0 0
54 0 -0.0303917 1.6467 0 0 0
55 0 -2.3184 2.62787 0 0 0
56 0 -2.34127 -0.12998 0 0 0
57 0 10.015 0.00570393 0 0 0
58 0 0.899643 -0.657643 0 0 0
59 0 -6.47112 1.19749 0 0.00391714 0
60 0 -0.221876 -1.53505 -0.00495887 0 0
61 0 0.174826 -0.766596 0.00102473 0 0
62 0 0 -0.605336 0 0 0
63 0 -0.0467033 -0.715623 0 0 0
64 0 -0.0772572 -1.03217 0 0 0
65 0 0.00226402 -1.1684 0 0 0
time 27
0 0.279744 0.964779 -10.5402 0.000934124 0 -1.04975
1 6.02794 0 0 -1.29816 0.492335 -0.743975
2 11.7344 0 0 -0.00140273 0 -0.97445
3 8.81138 -0.000448227 -0.000112057 -0.311196 0 0.000157427
4 5.77839 0.00028801 0 -0.208501 0 0.000104088
5 2.23163 -0.000329971 -0.000364065 -0.102694 0 0
6 11.4725 0 0 -0.298114 -0.161766 -0.0674442
7 0.615219 -0.993092 -0.8107 -3.03664 0.382047 -0.304472
8 2.24752 0 0 0.10312 0.00887019 0.0121146
9 1.11936 0 0 0.121355 0.237802 0.146889
10 3.71348 -0.10264 0.102191 1.57915 1.20938 0.0785637
11 1.72615 0 0 0.0195877 -0.0108151 -1.07669
12 1.21114 0 0 -0.0162592 0.00461493 -1.87649
13 3.59919 -1.06012 0.0708876 1.77143 1.02648 0.243927
14 1.66069 0 0 -0.0323896 0.0529044 -0.80957
15 1.167 0 0 -0.0092869 -0.010829 -1.98066
16 2.18853 0.501038 0.0576591 1.55583 0.110324 0.0402214
17 1.29609 0 0 -0.10981 0.104265 -0.980904
18 1.62202 0.000713348 -0.000471115 0.0249873 -0.0180759 -1.3829
19 1.22241 0 0 0.00912827 -0.000704275 -1.70664
20 1.76707 1.27612 0.0366421 1.54714 0.313947 -0.0233511
21 1.55588 0 0 -0.240314 -0.0114098 -1.10728
22 1.24273 0 0 -0.00047921 0.000360573 -1.02071
23 0.784521 0 0 0.00888768 0.00536389 -1.65773
24 -2.78532 5.54605 -7.74054 -0.000932693 0 -2.00317
25 6.02794 0 0 0.639109 0.549073 -0.257651
26 11.7344 0 0 0.00140271 0 1.69091
27 8.81167 0 0 0.260674 0 0
28 5.77884 0 0 0.174651 0 0
29 2.23249 0 0 0.0860223 0 0
30 11.4725 0 0 0.654896 -0.134923 -1.05151
31 0.615814 0.994372 -0.809166 3.11127 0.484951 0.165541
32 2.24752 0 0 -0.0875738 0.0269838 0.145449
33 1.11936 0 0 0.0458239 0.121351 0.787248
34 3.71349 0.102639 0.10219 -1.55999 0.560763 -0.0798627
35 1.72615 0 0 -0.0183461 -0.00833415 1.10093
36 1.21112 0 0 0.00523106 0.0163881 0.966234
37 3.5992 1.06012 0.0708877 -1.52539 0.466982 0.153986
38 1.66069 0 0 -0.0136917 0.00536073 0.12483
39 1.16699 0 0 0.000179444 -0.0350142 0.627527
40 2.18853 -0.501041 0.057659 -1.57665 0.0817363 -0.0988869
41 1.29609 0 0 -0.00682718 -0.0463338 0.335111
42 1.62202 -0.000713348 -0.000469208 -0.0196994 -0.030138 1.01219
43 1.22241 0 0 -0.0163005 0.00301314 1.15641
44 1.76707 -1.27612 0.0366406 -1.57637 0.00990116 -0.0452131
45 1.55588 0 0 0.165179 -0.0187019 0.410253
46 1.24273 0 0 0.000478922 0.000360576 0.293189
47 0.784531 0 0 -0.00863344 0.0138317 0.725128
48 0 0 0 0 0 0
49 -5.93555 -19.5151 -9.80378 0 0 0
50 0 0.175507 4.39833 0 0 0
51 -0.243587 0.175507 5.00562 0 0 0
52 -8.98651 -15.2233 -5.2717 0 0 0
53 3.05095 -3.79351 -0.23805 0 0 0
54 0 -0.0303917 1.6467 0 0 0
55 0 -2.3184 2.62787 0 0 0
56 0 -2.34127 -0.129979 0 0 0
57 0 10.015 0.00570393 0 0 0
58 0 0.899643 -0.657643 0 0 0
59 0 -6.47112 1.19749 0 0.00134884 0
60 0 -0.221874 -1.53505 0 0 0
61 0 0.174824 -0.766596 0 0 0
62 0 0 -0.605335 0 0 0
63 0 -0.0467033 -0.715623 0 0 0
64 0 -0.0772591 -1.03217 0 0 0
65 0 0.00226593 -1.1684 0 0 0
time 28
0 0.279744 0.964779 -10.5402 0.000934124 0 -1.04975
1 6.02794 0 0 -1.2984 0.492975 -0.743514
2 11.7344 0 0 -0.00140292 0 -0.976304
3 8.81138 -0.000450134 -0.000112295 -0.310044 0 0.000157869
4 5.77839 0.000286102 0 -0.20773 0 0.00010437
5 2.23163 -0.000329971 -0.000364065 -0.102315 0 0
6 11.4725 0 0 -0.297389 -0.160515 -0.0651844
7 0.615219 -0.99309 -0.8107 -3.03664 0.382047 -0.304473
8 2.24752 0 0 0.10312 0.00887003 0.0121146
9 1.11936 0 0 0.121355 0.237802 0.146889
10 3.71348 -0.10264 0.102191 1.57915 1.20938 0.0785636
11 1.72615 0 0 0.0195877 -0.0108151 -1.07669
12 1.21113 0 0 -0.0162592 0.00461495 -1.87649
13 3.59919 -1.06012 0.070888 1.77143 1.02648 0.243927
14 1.66069 0 0 -0.0323896 0.0529044 -0.80957
15 1.167 0 0 -0.00928684 -0.010829 -1.98066
16 2.18852 0.501041 0.0576582 1.55583 0.110324 0.0402213
17 1.29609 0 0 -0.10981 0.104265 -0.980904
18 1.62202 0.000711441 -0.000473022 0.0249873 -0.0180759 -1.3829
19 1.22241 0 0 0.0091283 -0.000704242 -1.70664
20 1.76707 1.27612 0.0366402 1.54714 0.313947 -0.0233513
21 1.55588 0 0 -0.240314 -0.0114097 -1.10728
22 1.24274 0 0 -0.000479207 0.000360506 -1.02071
23 0.784521 0 0 0.00888767 0.00536392 -1.65773
24 -2.78532 5.54605 -7.74054 -0.000932693 0 -2.00317
25 6.02794 0 0 0.639102 0.549086 -0.257676
26 11.7344 0 0 0.00140268 0 1.69114
27 8.81167 0 0 0.260532 0 0
28 5.77884 0 0 0.174556 0 0
29 2.23249 0 0 0.0859755 0 0
30 11.4725 0 0 0.654893 -0.134918 -1.05172
31 0.615812 0.994373 -0.809165 3.11127 0.484951 0.165541
32 2.24752 0 0 -0.087574 0.0269838 0.145449
33 1.11936 0 0 0.045824 0.121351 0.787248
34 3.71349 0.102639 0.10219 -1.55999 0.560763 -0.0798627
35 1.72615 0 0 -0.0183461 -0.00833415 1.10093
36 1.21112 0 0 0.00523108 0.0163881 0.966234
37 3.5992 1.06012 0.0708882 -1.52539 0.466982 0.153987
38 1.66069 0 0 -0.0136917 0.00536074 0.12483
39 1.16699 0 0 0.000179454 -0.0350141 0.627527
40 2.18853 -0.501041 0.057659 -1.57665 0.0817362 -0.0988868
41 1.29609 0 0 -0.00682718 -0.0463338 0.335111
42 1.62202 -0.000714302 -0.000470161 -0.0196994 -0.030138 1.01219
43 1.22241 0 0 -0.0163005 0.00301314 1.15641
44 1.76707 -1.27612 0.0366406 -1.57637 0.00990121 -0.045213
45 1.55587 0 0 0.165179 -0.0187019 0.410253
46 1.24273 0 0 0.000478918 0.000360569 0.293189
47 0.784531 0 0 -0.00863343 0.0138317 0.725128
48 0 0 0 0 0 0
49 -5.93458 -19.5131 -9.80279 0 0 0
50 0 0.175507 4.39833 0 0 0
51 -0.243587 0.175507 5.00562 0 0 0
52 -8.98651 -15.2233 -5.2717 0 0 0
53 3.05193 -3.79152 -0.237053 0 0 0
54 0 -0.0303917 1.6467 0 0 0
55 0 -2.3184 2.62787 0 0 0
56 0 -2.34127 -0.129979 0 0 0
57 0 10.015 0.00570393 0 0 0
58 0 0.899643 -0.657643 0 0 0
59 0 -6.47112 1.19749 0 0 0
60 0 -0.221874 -1.53505 0.00141241 0 0
61 0 0.174824 -0.766596 -0.000543816 0 0
62 0 0 -0.605336 0 0 0
63 0 -0.0467033 -0.715623 0 0 0
64 0 -0.0772591 -1.03217 0 0 0
65 0 0.00226593 -1.1684 0 0 0
time 29
0 0.279744 0.964779 -10.5402 0.000934124 0 -1.04975
1 6.02794 0 0 -1.29849 0.493001 -0.743431
2 11.7344 0 0 -0.00140301 0 -0.976402
3 8.81139 -0.000450134 -0.000112057 -0.309698 0 0.000157575
4 5.77839 0.000286102 0 -0.207498 0 0.00010426
5 2.23163 -0.000329971 -0.000363827 -0.1022 0 0
6 11.4725 0 0 -0.297081 -0.160191 -0.0651579
7 0.615219 -0.993092 -0.810699 -3.03664 0.382047 -0.304473
8 2.24752 0 0 0.10312 0.00887011 0.0121146
9 1.11936 0 0 0.121355 0.237802 0.146889
10 3.71348 -0.10264 0.102191 1.57915 1.20938 0.0785636
11 1.72615 0 0 0.0195876 -0.0108152 -1.07669
12 1.21113 0 0 -0.0162592 0.00461498 -1.87649
13 3.59919 -1.06012 0.070888 1.77143 1.02648 0.243927
14 1.66069 0 0 -0.0323896 0.0529044 -0.80957
15 1.167 0 0 -0.00928684 -0.010829 -1.98066
16 2.18852 0.50104 0.0576596 1.55583 0.110324 0.0402212
17 1.29609 0 0 -0.10981 0.104265 -0.980904
18 1.62202 0.000713348 -0.000471115 0.0249873 -0.018076 -1.3829
19 1.22241 0 0 0.00912824 -0.000704261 -1.70664
20 1.76707 1.27612 0.0366406 1.54714 0.313947 -0.0233512
21 1.55588 0 0 -0.240314 -0.0114098 -1.10728
22 1.24274 0 0 -0.000479245 0.000360544 -1.02071
23 0.784523 0 0 0.00888767 0.0053639 -1.65773
24 -2.78532 5.54605 -7.74054 -0.000932693 0 -2.00317
25 6.02794 0 0 0.6391 0.549088 -0.25768
26 11.7344 0 0 0.00140278 0 1.69117
27 8.81167 0 0 0.260515 0 0
28 5.77884 0 0 0.174545 0 0
29 2.23249 0 0 0.0859699 0 0
30 11.4725 0 0 0.654893 -0.134917 -1.05174
31 0.615814 0.994373 -0.809165 3.11127 0.484951 0.165541
32 2.24752 0 0 -0.0875738 0.0269838 0.145449
33 1.11936 0 0 0.0458239 0.121351 0.787248
34 3.71349 0.102639 0.10219 -1.55999 0.560763 -0.0798626
35 1.72615 0 0 -0.0183461 -0.00833415 1.10093
36 1.21112 0 0 0.00523108 0.0163881 0.966234
37 3.5992 1.06012 0.0708882 -1.52539 0.466982 0.153987
38 1.66069 0 0 -0.0136917 0.00536073 0.12483
39 1.16699 0 0 0.00017946 -0.0350142 0.627527
40 2.18853 -0.50104 0.057659 -1.57665 0.0817363 -0.0988869
41 1.29609 0 0 -0.00682718 -0.0463338 0.335111
42 1.62202 -0.000713348 -0.000469685 -0.0196994 -0.030138 1.01219
43 1.22241 0 0 -0.0163005 0.00301314 1.15641
44 1.76707 -1.27612 0.0366405 -1.57637 0.00990117 -0.0452131
45 1.55588 0 0 0.165179 -0.0187018 0.410253
46 1.24273 0 0 0.000478901 0.000360564 0.293189
47 0.784532 0 0 -0.00863345 0.0138317 0.725128
48 0 0 0 0 0 0
49 -5.93445 -19.5128 -9.80266 0 0 0
50 0 0.175507 4.39833 0 0 0
51 -0.243587 0.175507 5.00562 0 0 0
52 -8.98651 -15.2233 -5.2717 0 0 0
53 3.05205 -3.79127 -0.236928 0 0 0
54 0 -0.0303917 1.6467 0 0 0
55 0 -2.3184 2.62787 0 0 0
56 0 -2.34127 -0.129979 0 0 0
57 0 10.015 0.00570393 0 0 0
58 0 0.899643 -0.657643 0 0 0
59 0 -6.47112 1.19749 0 -0.000328827 0
60 0 -0.221874 -1.53505 0.00125548 0 0
61 0 0.174824 -0.766595 -0.000483393 0 0
62 0 0 -0.605335 0 0 0
63 0 -0.0467014 -0.715622 0 0 0
64 0 -0.0772591 -1.03217 0 0 0
65 0 0.00226593 -1.16841 0 0 0
time 30
0 0.279744 0.964779 -10.5402 0.000934124 0 -1.04975
1 6.02794 0 0 -1.29854 0.492766 -0.743498
2 11.7344 0 0 -0.00140286 0 -0.975754
3 8.81138 -0.000450134 -0.000112295 -0.309638 0 0.000158436
4 5.77839 0.000286102 0 -0.207457 0 0.000104656
5 2.23163 -0.000328064 -0.000364065 -0.10218 0 0
6 11.4725 0 0 -0.296907 -0.160202 -0.0660429
7 0.615221 -0.993092 -0.8107 -3.03664 0.382047 -0.304472
8 2.24752 0 0 0.10312 0.00887008 0.0121146
9 1.11936 0 0 0.121355 0.237802 0.146889
10 3.71348 -0.102642 0.102191 1.57915 1.20938 0.0785636
11 1.72615 0 0 0.0195877 -0.0108151 -1.07669
12 1.21113 0 0 -0.0162592 0.00461495 -1.87649
13 3.59919 -1.06012 0.0708885 1.77143 1.02648 0.243927
14 1.66069 0 0 -0.0323896 0.0529044 -0.80957
15 1.167 0 0 -0.00928685 -0.010829 -1.98066
16 2.18852 0.501038 0.0576596 1.55583 0.110324 0.0402213
17 1.29609 0 0 -0.10981 0.104265 -0.980904
18 1.62202 0.000715256 -0.000471115 0.0249873 -0.0180759 -1.3829
19 1.22241 0 0 0.00912828 -0.000704282 -1.70664
20 1.76707 1.27612 0.0366411 1.54714 0.313947 -0.0233512
21 1.55588 0 0 -0.240314 -0.0114098 -1.10728
22 1.24273 0 0 -0.000479254 0.000360531 -1.02071
23 0.784523 0 0 0.00888766 0.00536395 -1.65773
24 -2.78532 5.54605 -7.74054 -0.000932693 0 -2.00317
25 6.02794 0 0 0.639103 0.549083 -0.25767
26 11.7344 0 0 0.00140268 0 1.69109
27 8.81167 0 0 0.260567 0 0
28 5.77884 0 0 0.17458 0 0
29 2.23249 0 0 0.0859872 0 0
30 11.4725 0 0 0.654893 -0.134919 -1.05167
31 0.615812 0.994373 -0.809166 3.11127 0.484951 0.16554
32 2.24752 0 0 -0.0875739 0.0269836 0.145449
33 1.11936 0 0 0.045824 0.121351 0.787248
34 3.71349 0.10264 0.102191 -1.55999 0.560763 -0.0798627
35 1.72615 0 0 -0.0183461 -0.00833415 1.10093
36 1.21112 0 0 0.00523105 0.0163881 0.966234
37 3.5992 1.06012 0.0708877 -1.52539 0.466982 0.153986
38 1.66069 0 0 -0.0136917 0.00536073 0.12483
39 1.16699 0 0 0.000179478 -0.0350141 0.627527
40 2.18853 -0.50104 0.057659 -1.57665 0.0817364 -0.0988869
41 1.29609 0 0 -0.00682717 -0.0463338 0.335111
42 1.62202 -0.000713348 -0.000469685 -0.0196994 -0.030138 1.01219
43 1.22241 0 0 -0.0163005 0.00301314 1.15641
44 1.76707 -1.27612 0.03664 -1.57637 0.00990115 -0.0452131
45 1.55588 0 0 0.165179 -0.0187019 0.410253
46 1.24273 0 0 0.000478899 0.00036058 0.293189
47 0.784534 0 0 -0.00863342 0.0138317 0.725128
48 0 0 0 0 0 0
49 -5.93482 -19.5136 -9.80304 0 0 0
50 0 0.175507 4.39833 0 0 0
51 -0.243587 0.175507 5.00562 0 0 0
52 -8.98651 -15.2233 -5.2717 0 0 0
53 3.05169 -3.79202 -0.237302 0 0 0
54 0 -0.0303917 1.6467 0 0 0
55 0 -2.3184 2.62787 0 0 0
56 0 -2.34127 -0.129979 0 0 0
57 0 10.015 0.00570393 0 0 0
58 0 0.899643 -0.657643 0 0 0
59 0 -6.47112 1.19749 0 -0.000292291 0
60 0 -0.221874 -1.53505 0.000470804 0 0
61 0 0.174824 -0.766596 -0.000181272 0 0
62 0 0 -0.605336 0 0 0
63 0 -0.0467014 -0.715622 0 0 0
64 0 -0.0772591 -1.03217 0 0 0
65 0 0.00226593 -1.16841 0 0 0
time 31
0 0.279744 0.964779 -10.5402 0.000934124 0 -1.04975
1 6.02794 0 0 -1.29852 0.492562 -0.743595
2 11.7344 0 0 -0.00140284 0 -0.975183
3 8.81138 -0.000450134 -0.000112534 -0.309768 0 0.000158651
4 5.77839 0.000286102 0 -0.207545 0 0.000104932
5 2.23163 -0.000329971 -0.000363588 -0.102224 0 0
6 11.4725 0 0 -0.296934 -0.16037 -0.0667158
7 0.615217 -0.993088 -0.8107 -3.03664 0.382047 -0.304472
8 2.24752 0 0 0.103119 0.00887005 0.0121146
9 1.11936 0 0 0.121355 0.237802 0.146889
10 3.71348 -0.10264 0.102191 1.57915 1.20938 0.0785637
11 1.72615 0 0 0.0195877 -0.0108152 -1.07669
12 1.21113 0 0 -0.0162592 0.00461493 -1.87649
13 3.59919 -1.06012 0.0708885 1.77143 1.02648 0.243927
14 1.66069 0 0 -0.0323897 0.0529044 -0.80957
15 1.167 0 0 -0.00928691 -0.0108289 -1.98066
16 2.18853 0.501041 0.0576591 1.55583 0.110324 0.0402213
17 1.29609 0 0 -0.10981 0.104265 -0.980904
18 1.62202 0.000711441 -0.000469208 0.0249873 -0.0180759 -1.3829
19 1.22241 0 0 0.00912822 -0.000704281 -1.70664
20 1.76707 1.27612 0.0366416 1.54714 0.313947 -0.0233512
21 1.55588 0 0 -0.240314 -0.0114098 -1.10728
22 1.24273 0 0 -0.000479236 0.000360498 -1.02071
23 0.784521 0 0 0.00888761 0.00536393 -1.65773
24 -2.78532 5.54605 -7.74054 -0.000932693 0 -2.00317
25 6.02794 0 0 0.639107 0.549076 -0.257657
26 11.7344 0 0 0.00140274 0 1.69097
27 8.81167 0 0 0.260639 0 0
28 5.77884 0 0 0.174628 0 0
29 2.23249 0 0 0.0860107 0 0
30 11.4725 0 0 0.654895 -0.134922 -1.05156
31 0.615812 0.994372 -0.809165 3.11127 0.484951 0.165541
32 2.24752 0 0 -0.0875739 0.0269838 0.145449
33 1.11936 0 0 0.0458239 0.121351 0.787248
34 3.71349 0.102639 0.102192 -1.55999 0.560763 -0.0798625
35 1.72615 0 0 -0.0183462 -0.00833416 1.10093
36 1.21112 0 0 0.00523107 0.016388 0.966234
37 3.5992 1.06012 0.0708885 -1.52539 0.466982 0.153987
38 1.66069 0 0 -0.0136917 0.00536074 0.124831
39 1.16699 0 0 0.000179461 -0.0350142 0.627528
40 2.18853 -0.50104 0.0576591 -1.57665 0.0817365 -0.0988868
41 1.29609 0 0 -0.00682717 -0.0463338 0.335111
42 1.62202 -0.000713348 -0.000470161 -0.0196994 -0.030138 1.01219
43 1.22241 0 0 -0.0163005 0.00301313 1.15641
44 1.76707 -1.27612 0.0366408 -1.57637 0.00990134 -0.045213
45 1.55588 0 0 0.165179 -0.0187019 0.410253
46 1.24273 0 0 0.000478924 0.000360576 0.293189
47 0.784533 0 0 -0.00863344 0.0138317 0.725128
48 0 0 0 0 0 0
49 -5.93531 -19.5146 -9.80353 0 0 0
50 0 0.175507 4.39833 0 0 0
51 -0.243587 0.175507 5.00562 0 0 0
52 -8.98651 -15.2233 -5.2717 0 0 0
53 3.0512 -3.79301 -0.237801 0 0 0
54 0 -0.0303917 1.6467 0 0 0
55 0 -2.3184 2.62787 0 0 0
56 0 -2.34127 -0.129979 0 0 0
57 0 10.015 0.00570393 0 0 0
58 0 0.899643 -0.657643 0 0 0
59 0 -6.47112 1.19749 0 -0.000109609 0
60 0 -0.221874 -1.53505 0 0 0
61 0 0.174824 -0.766596 0 0 0
62 0 0 -0.605335 0 0 0
63 0 -0.0467033 -0.715623 0 0 0
64 0 -0.0772591 -1.03217 0 0 0
65 0 0.00226593 -1.16841 0 0 0
time 32
0 0.279744 0.964779 -10.5402 0.000934124 0 -1.04975
1 6.02794 0 0 -1.2985 0.492511 -0.743638
2 11.7344 0 0 -0.00140289 0 -0.975034
3 8.81139 -0.000450134 -0.00011158 -0.309884 0 0.000157687
4 5.77839 0.00028801 0 -0.207622 0 0.000104369
5 2.23163 -0.000329971 -0.000364065 -0.102262 0 0
6 11.4725 0 0 -0.297023 -0.160481 -0.0668279
7 0.615217 -0.993092 -0.810699 -3.03664 0.382047 -0.304473
8 2.24752 0 0 0.103119 0.00887007 0.0121145
9 1.11936 0 0 0.121355 0.237802 0.146889
10 3.71348 -0.10264 0.102191 1.57915 1.20938 0.0785635
11 1.72615 0 0 0.0195877 -0.0108151 -1.07669
12 1.21114 0 0 -0.0162592 0.00461495 -1.87649
13 3.59919 -1.06012 0.0708876 1.77143 1.02648 0.243927
14 1.66069 0 0 -0.0323896 0.0529044 -0.809571
15 1.167 0 0 -0.00928687 -0.010829 -1.98066
16 2.18852 0.501041 0.0576596 1.55583 0.110324 0.0402213
17 1.29609 0 0 -0.10981 0.104265 -0.980904
18 1.62202 0.000715256 -0.000471115 0.0249873 -0.018076 -1.3829
19 1.22241 0 0 0.00912819 -0.000704318 -1.70664
20 1.76707 1.27612 0.0366421 1.54714 0.313947 -0.0233512
21 1.55588 0 0 -0.240313 -0.0114097 -1.10728
22 1.24273 0 0 -0.000479259 0.000360477 -1.02071
23 0.784523 0 0 0.00888764 0.00536394 -1.65773
24 -2.78532 5.54605 -7.74054 -0.000932693 0 -2.00317
25 6.02794 0 0 0.639109 0.549073 -0.257651
26 11.7344 0 0 0.00140271 0 1.69091
27 8.81167 0 0 0.260674 0 0
28 5.77884 0 0 0.174651 0 0
29 2.23249 0 0 0.0860223 0 0
30 11.4725 0 0 0.654896 -0.134923 -1.05151
31 0.615814 0.994372 -0.809166 3.11127 0.484951 0.165541
32 2.24752 0 0 -0.0875738 0.0269838 0.145449
33 1.11936 0 0 0.0458239 0.121351 0.787248
34 3.71349 0.102639 0.10219 -1.55999 0.560763 -0.0798627
35 1.72615 0 0 -0.0183461 -0.00833415 1.10093
36 1.21112 0 0 0.00523106 0.0163881 0.966234
37 3.5992 1.06012 0.0708877 -1.52539 0.466982 0.153986
38 1.66069 0 0 -0.0136917 0.00536073 0.12483
39 1.16699 0 0 0.000179444 -0.0350142 0.627527
40 2.18853 -0.501041 0.057659 -1.57665 0.0817363 -0.0988869
41 1.29609 0 0 -0.00682718 -0.0463338 0.335111
42 1.62202 -0.000713348 -0.000469208 -0.0196994 -0.030138 1.01219
43 1.22241 0 0 -0.0163005 0.00301314 1.15641
44 1.76707 -1.27612 0.0366406 -1.57637 0.00990116 -0.0452131
45 1.55588 0 0 0.165179 -0.0187019 0.410253
46 1.24273 0 0 0.000478922 0.000360576 0.293189
47 0.784531 0 0 -0.00863344 0.0138317 0.725128
48 0 0 0 0 0 0
49 -5.93555 -19.5151 -9.80378 0 0 0
50 0 0.175507 4.39833 0 0 0
51 -0.243587 0.175507 5.00562 0 0 0
52 -8.98651 -15.2233 -5.2717 0 0 0
53 3.05095 -3.79351 -0.23805 0 0 0
54 0 -0.0303917 1.6467 0 0 0
55 0 -2.3184 2.62787 0 0 0
56 0 -2.34127 -0.129979 0 0 0
57 0 10.015 0.00570393 0 0 0
58 0 0.899643 -0.657643 0 0 0
59 0 -6.47112 1.19749 0 0 0
60 0 -0.221874 -1.53505 0 0 0
61 0 0.174824 -0.766596 0 0 0
62 0 0 -0.605335 0 0 0
63 0 -0.0467033 -0.715623 0 0 0
64 0 -0.0772591 -1.03217 0 0 0
65 0 0.00226593 -1.16841 0 0 0
end
