//Sequence File generated by the Wall Worm SMD Exporter PRO 1.99
//www.wallworm.com
version 1
nodes
0 "b_l_clav" -1
1 "b_l_upperarm" 0
2 "b_l_forearm" 1
3 "b_l_twist3" 2
4 "b_l_twist2" 2
5 "b_l_twist1" 2
6 "b_l_hand" 2
7 "b_l_thumb001" 6
8 "b_l_thumb002" 7
9 "b_l_thumb003" 8
10 "b_l_middle001" 6
11 "b_l_middle002" 10
12 "b_l_middle003" 11
13 "b_l_index001" 6
14 "b_l_index002" 13
15 "b_l_index003" 14
16 "b_l_hand_ringsqueezer" 6
17 "b_l_ring001" 16
18 "b_l_ring002" 17
19 "b_l_ring003" 18
20 "b_l_hand_pinkysqueezer" 6
21 "b_l_pinky001" 20
22 "b_l_pinky002" 21
23 "b_l_pinky003" 22
24 "b_r_clav" -1
25 "b_r_upperarm" 24
26 "b_r_forearm" 25
27 "b_r_twist3" 26
28 "b_r_twist2" 26
29 "b_r_twist1" 26
30 "b_r_hand" 26
31 "b_r_thumb001" 30
32 "b_r_thumb002" 31
33 "b_r_thumb003" 32
34 "b_r_middle001" 30
35 "b_r_middle002" 34
36 "b_r_middle003" 35
37 "b_r_index001" 30
38 "b_r_index002" 37
39 "b_r_index003" 38
40 "b_r_hand_ringsqueezer" 30
41 "b_r_ring001" 40
42 "b_r_ring002" 41
43 "b_r_ring003" 42
44 "b_r_hand_pinkysqueezer" 30
45 "b_r_pinky001" 44
46 "b_r_pinky002" 45
47 "b_r_pinky003" 46
48 "b_zero" -1
49 "d_mag" -1
50 "d_magwell" 49
51 "d_boolet" 49
52 "d_walk" -1
53 "d_gun" 52
54 "d_chamber" 53
55 "d_bolt" 53
56 "d_trigger" 53
57 "d_stockbar" 53
58 "d_stockpivot" 57
59 "d_mainswivel" 53
60 "d_hookswivel" 59
61 "d_ringswiveltop" 60
62 "d_ringswivelbottom" 61
63 "d_strap1" 62
64 "d_strap2" 63
65 "d_strap3" 64
end
skeleton
time 0
0 0.279744 0.964779 -10.5402 0.000934124 0 -1.04975
1 6.02794 0 0 -1.2985 0.492511 -0.743638
2 11.7344 0 0 -0.00140289 0 -0.975034
3 8.81139 -0.000450134 -0.00011158 -0.309884 0 0.000157687
4 5.77839 0.00028801 0 -0.207622 0 0.000104369
5 2.23163 -0.000329971 -0.000364065 -0.102262 0 0
6 11.4725 0 0 -0.297023 -0.160481 -0.0668279
7 0.615217 -0.993092 -0.810699 -3.03664 0.382047 -0.304473
8 2.24752 0 0 0.103119 0.00887007 0.0121145
9 1.11936 0 0 0.121355 0.237802 0.146889
10 3.71348 -0.10264 0.102191 1.57915 1.20938 0.0785635
11 1.72615 0 0 0.0195877 -0.0108151 -1.07669
12 1.21114 0 0 -0.0162592 0.00461495 -1.87649
13 3.59919 -1.06012 0.0708876 1.77143 1.02648 0.243927
14 1.66069 0 0 -0.0323896 0.0529044 -0.809571
15 1.167 0 0 -0.00928687 -0.010829 -1.98066
16 2.18852 0.501041 0.0576596 1.55583 0.110324 0.0402213
17 1.29609 0 0 -0.10981 0.104265 -0.980904
18 1.62202 0.000715256 -0.000471115 0.0249873 -0.018076 -1.3829
19 1.22241 0 0 0.00912819 -0.000704318 -1.70664
20 1.76707 1.27612 0.0366421 1.54714 0.313947 -0.0233512
21 1.55588 0 0 -0.240313 -0.0114097 -1.10728
22 1.24273 0 0 -0.000479259 0.000360477 -1.02071
23 0.784523 0 0 0.00888764 0.00536394 -1.65773
24 -2.78532 5.54605 -7.74054 -0.000932693 0 -2.00317
25 6.02794 0 0 0.639109 0.549073 -0.257651
26 11.7344 0 0 0.00140271 0 1.69091
27 8.81167 0 0 0.260674 0 0
28 5.77884 0 0 0.174651 0 0
29 2.23249 0 0 0.0860223 0 0
30 11.4725 0 0 0.654896 -0.134923 -1.05151
31 0.615814 0.994372 -0.809166 3.11127 0.484951 0.165541
32 2.24752 0 0 -0.0875738 0.0269838 0.145449
33 1.11936 0 0 0.0458239 0.121351 0.787248
34 3.71349 0.102639 0.10219 -1.55999 0.560763 -0.0798627
35 1.72615 0 0 -0.0183461 -0.00833415 1.10093
36 1.21112 0 0 0.00523106 0.0163881 0.966234
37 3.5992 1.06012 0.0708877 -1.52539 0.466982 0.153986
38 1.66069 0 0 -0.0136917 0.00536073 0.12483
39 1.16699 0 0 0.000179444 -0.0350142 0.627527
40 2.18853 -0.501041 0.057659 -1.57665 0.0817363 -0.0988869
41 1.29609 0 0 -0.00682718 -0.0463338 0.335111
42 1.62202 -0.000713348 -0.000469208 -0.0196994 -0.030138 1.01219
43 1.22241 0 0 -0.0163005 0.00301314 1.15641
44 1.76707 -1.27612 0.0366406 -1.57637 0.00990116 -0.0452131
45 1.55588 0 0 0.165179 -0.0187019 0.410253
46 1.24273 0 0 0.000478922 0.000360576 0.293189
47 0.784531 0 0 -0.00863344 0.0138317 0.725128
48 0 0 0 0 0 0
49 -5.93555 -19.5151 -9.80378 0 0 0
50 0 0.175507 4.39833 0 0 0
51 -0.243587 0.175507 5.00562 0 0 0
52 -8.98651 -15.2233 -5.2717 0 0 0
53 3.05095 -3.79351 -0.23805 0 0 0
54 0 -0.0303917 1.6467 0 0 0
55 0 -2.3184 2.62787 0 0 0
56 0 -2.34127 -0.129979 0 0 0
57 0 10.015 0.00570393 0 0 0
58 0 0.899643 -0.657643 0 0 0
59 0 -6.47112 1.19749 0 0 0
60 0 -0.221874 -1.53505 0 0 0
61 0 0.174824 -0.766596 0 0 0
62 0 0 -0.605335 0 0 0
63 0 -0.0467033 -0.715623 0 0 0
64 0 -0.0772591 -1.03217 0 0 0
65 0 0.00226593 -1.16841 0 0 0
time 1
0 0.279744 0.964779 -10.5402 0.000934124 0 -1.04975
1 6.02794 0 0 -1.30661 0.501697 -0.733498
2 11.7344 0 0 -0.00140292 0 -1.00979
3 8.81138 -0.000450134 -0.000112295 -0.272853 0 0.000157921
4 5.77839 0.000286102 0 -0.182811 0 0.000104603
5 2.23163 -0.000329971 -0.000363588 -0.0900415 0 0
6 11.4725 0 0 -0.267688 -0.127713 -0.0263889
7 0.615219 -0.99309 -0.8107 -3.03664 0.382047 -0.304472
8 2.24752 0 0 0.10312 0.00887007 0.0121146
9 1.11936 0 0 0.121355 0.237802 0.146889
10 3.71348 -0.10264 0.10219 1.57915 1.20939 0.078564
11 1.72615 0 0 0.0195877 -0.0108151 -1.07669
12 1.21114 0 0 -0.0162592 0.00461495 -1.87649
13 3.59919 -1.06012 0.0708876 1.77143 1.02648 0.243927
14 1.66069 0 0 -0.0323896 0.0529044 -0.809571
15 1.167 0 0 -0.0092869 -0.010829 -1.98066
16 2.18852 0.50104 0.0576591 1.55583 0.110324 0.0402214
17 1.29609 0 0 -0.10981 0.104265 -0.980904
18 1.62202 0.000711441 -0.000471115 0.0249874 -0.0180759 -1.3829
19 1.22241 0 0 0.00912824 -0.000704328 -1.70664
20 1.76707 1.27612 0.0366406 1.54714 0.313948 -0.023351
21 1.55588 0 0 -0.240313 -0.0114097 -1.10728
22 1.24274 0 0 -0.00047922 0.000360499 -1.02071
23 0.784523 0 0 0.00888767 0.00536392 -1.65773
24 -2.78532 5.54605 -7.74054 -0.000932693 0 -2.00317
25 6.02794 0 0 0.628907 0.560342 -0.274911
26 11.7344 0 0 0.00140268 0 1.72347
27 8.81167 0 0 0.251914 0 0
28 5.77884 0 0 0.168782 0 0
29 2.23249 0 0 0.0831315 0 0
30 11.4725 0 0 0.6579 -0.144399 -1.05669
31 0.615812 0.994372 -0.809165 3.11127 0.484951 0.16554
32 2.24752 0 0 -0.0875741 0.0269837 0.145449
33 1.11936 0 0 0.0458241 0.121351 0.787248
34 3.71349 0.102639 0.102191 -1.55999 0.560763 -0.0798626
35 1.72615 0 0 -0.0183461 -0.00833417 1.10093
36 1.21112 0 0 0.00523107 0.0163881 0.966234
37 3.5992 1.06012 0.0708883 -1.52539 0.466982 0.153987
38 1.66069 0 0 -0.0127618 0.00704481 0.256026
39 1.16699 0 0 -0.00382169 -0.0323708 0.758778
40 2.18853 -0.50104 0.0576589 -1.57665 0.0817365 -0.0988868
41 1.29609 0 0 -0.00682719 -0.0463338 0.335112
42 1.62201 -0.000712395 -0.000469685 -0.0196994 -0.030138 1.01219
43 1.22241 0 0 -0.0163005 0.00301313 1.15641
44 1.76707 -1.27612 0.0366402 -1.57637 0.00990131 -0.0452131
45 1.55588 0 0 0.165179 -0.0187019 0.410253
46 1.24273 0 0 0.000478913 0.000360577 0.293189
47 0.784533 0 0 -0.00863344 0.0138317 0.725128
48 0 0 0 0 0 0
49 -5.93555 -19.2602 -9.79706 -0.0127974 0 0
50 0 0.175505 4.39833 0 0 0
51 -0.243587 0.175507 5.00562 0 0 0
52 -8.98651 -15.2233 -5.2717 0 0 0
53 3.05095 -3.48372 -0.23805 -0.0127974 0 0
54 0 -2.36279 1.64671 0 0 0
55 0 -4.34546 2.62787 0 0 0
56 0 -2.26398 -0.124172 0.150936 0 0
57 0 10.015 0.00570393 0 0 0
58 0 0.899643 -0.657643 0 0 0
59 0 -6.47112 1.19749 0 -0.0374081 0
60 0 -0.221874 -1.53505 -0.293999 -0.00175538 -0.00464259
61 0 0.174822 -0.766596 0.315193 -0.00137937 0.00675488
62 0 0 -0.605336 0 0 0
63 0 -0.0467033 -0.715622 0 0 0
64 0 -0.0772572 -1.03217 0 0 0
65 0 0.00226402 -1.1684 0 0 0
time 2
0 0.279744 0.964779 -10.5402 0.000934124 0 -1.04975
1 6.02794 0 0 -1.29047 0.560423 -0.719089
2 11.7344 0 0 -0.00140289 0 -1.18281
3 8.81138 -0.000450134 -0.000112295 -0.250182 0 0.000157821
4 5.77839 0.000286102 0 -0.167622 0 0.000104618
5 2.23163 -0.000328064 -0.00036478 -0.0825603 0 0
6 11.4725 0 0 -0.260688 -0.133198 0.0931462
7 0.61522 -0.993092 -0.8107 -3.03664 0.382047 -0.304472
8 2.24752 0 0 0.10312 0.0088702 0.0121146
9 1.11936 0 0 0.121355 0.237802 0.146889
10 3.71348 -0.102642 0.10219 1.57915 1.20938 0.0785634
11 1.72615 0 0 0.0195877 -0.0108152 -1.07669
12 1.21114 0 0 -0.0162592 0.00461493 -1.87649
13 3.59919 -1.06012 0.070888 1.77143 1.02648 0.243927
14 1.66069 0 0 -0.0323897 0.0529044 -0.80957
15 1.167 0 0 -0.00928691 -0.0108289 -1.98066
16 2.18852 0.501038 0.0576587 1.55583 0.110324 0.0402213
17 1.29609 0 0 -0.10981 0.104265 -0.980904
18 1.62202 0.000711441 -0.000473022 0.0249873 -0.018076 -1.3829
19 1.22241 0 0 0.00912827 -0.000704292 -1.70664
20 1.76707 1.27612 0.0366411 1.54714 0.313947 -0.0233513
21 1.55588 0 0 -0.240314 -0.0114098 -1.10728
22 1.24274 0 0 -0.000479246 0.000360484 -1.02071
23 0.784521 0 0 0.00888765 0.00536392 -1.65773
24 -2.78532 5.54605 -7.74054 -0.000932693 0 -2.00317
25 6.02794 0 0 0.609229 0.592011 -0.33665
26 11.7344 0 0 0.00140272 0 1.85653
27 8.81167 0 0 0.199736 0 0
28 5.77884 0 0 0.133823 0 0
29 2.23249 0 0 0.0659128 0 0
30 11.4725 0 0 0.640789 -0.148842 -1.10807
31 0.615813 0.994373 -0.809166 3.11127 0.484951 0.165541
32 2.24752 0 0 -0.087574 0.0269837 0.145449
33 1.11936 0 0 0.0458239 0.121351 0.787248
34 3.71349 0.102639 0.102191 -1.55999 0.560763 -0.0798626
35 1.72615 0 0 -0.0183461 -0.00833415 1.10093
36 1.21112 0 0 0.00523107 0.016388 0.966234
37 3.5992 1.06012 0.0708882 -1.52539 0.466982 0.153987
38 1.66069 0 0 -0.0118321 0.00872888 0.387221
39 1.16699 0 0 -0.00782331 -0.0297275 0.890029
40 2.18853 -0.50104 0.0576586 -1.57665 0.0817363 -0.0988868
41 1.29609 0 0 -0.00682717 -0.0463338 0.335111
42 1.62202 -0.000713348 -0.000470161 -0.0196994 -0.030138 1.01219
43 1.22241 0 0 -0.0163005 0.00301313 1.15641
44 1.76707 -1.27612 0.0366406 -1.57637 0.00990126 -0.0452131
45 1.55588 0 0 0.165179 -0.0187019 0.410253
46 1.24273 0 0 0.000478934 0.000360582 0.293189
47 0.784532 0 0 -0.00863345 0.0138317 0.725128
48 0 0 0 0 0 0
49 -5.99162 -18.1032 -9.55829 -0.0358479 0.0133341 0.001398
50 0 0.175508 4.39833 0 0 0
51 -0.243587 0.175508 5.00562 0 0 0
52 -8.98651 -15.2233 -5.2717 0 0 0
53 3.05095 -2.228 -0.0135541 -0.0358479 0.0133341 0.001398
54 0 -2.36278 1.6467 0 0 0
55 0 -4.34546 2.62787 0 0 0
56 0 -2.21761 -0.120687 0.241497 0 0
57 0 10.015 0.00570393 0 0 0
58 0 0.899643 -0.657643 0 0 0
59 0 -6.47112 1.19749 0 -0.0641601 0
60 0 -0.221872 -1.53505 -0.533394 -0.00319163 -0.00844107
61 0 0.174824 -0.766598 0.581223 -0.000740183 0.0102832
62 0 0 -0.605335 0 0 0
63 0 -0.0467052 -0.715623 0 0 0
64 0 -0.0772591 -1.03217 0 0 0
65 0 0.00226593 -1.1684 0 0 0
time 3
0 0.279744 0.964779 -10.5402 0.000934124 0 -1.04975
1 6.02794 0 0 -1.30677 0.510538 -0.729654
2 11.7344 0 0 -0.00140284 0 -1.10326
3 8.81138 -0.000450134 -0.00011301 -0.250537 0 0.000158287
4 5.77839 0.000286102 0 -0.167859 0 0.00010479
5 2.23163 -0.000328064 -0.000363827 -0.082677 0 0
6 11.4725 0 0 -0.255036 -0.118857 0.052828
7 0.615219 -0.993092 -0.8107 -3.03664 0.382047 -0.304472
8 2.24752 0 0 0.10312 0.00887018 0.0121146
9 1.11936 0 0 0.121355 0.237802 0.146889
10 3.71348 -0.102642 0.102191 1.57915 1.20939 0.0785638
11 1.72615 0 0 0.0195877 -0.0108152 -1.07669
12 1.21113 0 0 -0.0162591 0.00461481 -1.87649
13 3.59919 -1.06012 0.0708885 1.77143 1.02648 0.243927
14 1.66069 0 0 -0.0323897 0.0529044 -0.80957
15 1.167 0 0 -0.00928687 -0.010829 -1.98066
16 2.18852 0.501038 0.0576596 1.55583 0.110324 0.0402213
17 1.29609 0 0 -0.10981 0.104265 -0.980904
18 1.62202 0.000715256 -0.000471115 0.0249873 -0.0180759 -1.3829
19 1.22241 0 0 0.00912829 -0.000704268 -1.70664
20 1.76706 1.27612 0.0366411 1.54714 0.313947 -0.0233512
21 1.55588 0 0 -0.240313 -0.0114098 -1.10728
22 1.24274 0 0 -0.000479264 0.000360457 -1.02071
23 0.784525 0 0 0.00888764 0.00536393 -1.65773
24 -2.78532 5.54605 -7.74054 -0.000932693 0 -2.00317
25 6.02794 0 0 0.620333 0.582895 -0.323297
26 11.7344 0 0 0.00140279 0 1.81731
27 8.81167 0 0 0.212142 0 0
28 5.77884 0 0 0.142135 0 0
29 2.23249 0 0 0.070007 0 0
30 11.4725 0 0 0.629991 -0.161597 -1.06489
31 0.615813 0.994372 -0.809166 3.11127 0.484951 0.165541
32 2.24752 0 0 -0.087574 0.0269837 0.145449
33 1.11936 0 0 0.045824 0.121351 0.787248
34 3.71349 0.102639 0.102191 -1.55999 0.560763 -0.0798625
35 1.72615 0 0 -0.0183461 -0.00833416 1.10093
36 1.21112 0 0 0.00523108 0.0163881 0.966234
37 3.5992 1.06012 0.0708882 -1.52539 0.466982 0.153987
38 1.66069 0 0 -0.0118321 0.00872889 0.387221
39 1.16699 0 0 -0.00782328 -0.0297275 0.890029
40 2.18853 -0.50104 0.0576584 -1.57665 0.0817363 -0.0988868
41 1.29609 0 0 -0.00682719 -0.0463338 0.335111
42 1.62202 -0.000712395 -0.000469685 -0.0196994 -0.030138 1.01219
43 1.22241 0 0 -0.0163005 0.00301314 1.15641
44 1.76707 -1.27612 0.0366404 -1.57637 0.00990118 -0.045213
45 1.55588 0 0 0.165179 -0.0187019 0.410253
46 1.24273 0 0 0.000478917 0.000360569 0.293189
47 0.784533 0 0 -0.00863343 0.0138317 0.725128
48 0 0 0 0 0 0
49 -6.12294 -18.5049 -9.47002 -0.0571713 0.0257588 0.00127172
50 0 0.175507 4.39832 0 0 0
51 -0.243587 0.175508 5.00562 0 0 0
52 -8.98651 -15.2233 -5.2717 0 0 0
53 2.97231 -2.53863 0.0588136 -0.0571713 0.0257588 0.00127172
54 0 -2.36278 1.64671 0 0 0
55 0 -4.34546 2.62787 0 0 0
56 0 -2.21761 -0.120687 0.241497 0 0
57 0 10.015 0.00570393 0 0 0
58 0 0.899643 -0.657643 0 0 0
59 0 -6.47112 1.19749 0 -0.080256 0
60 0 -0.221872 -1.53505 -0.718184 -0.0043087 -0.0113955
61 0 0.174823 -0.766596 0.775713 0.000687119 0.0117032
62 0 0 -0.605335 0 0 0
63 0 -0.0467033 -0.715623 0 0 0
64 0 -0.077261 -1.03217 0 0 0
65 0 0.00226784 -1.16841 0 0 0
time 4
0 0.279744 0.964779 -10.5402 0.000934124 0 -1.04975
1 6.02794 0 0 -1.31799 0.467357 -0.738605
2 11.7344 0 0 -0.00140276 0 -1.02112
3 8.81138 -0.000450134 -0.000112295 -0.246064 0 0.000157875
4 5.77839 0.000286102 0 -0.164863 0 0.000104603
5 2.23163 -0.000329971 -0.000363827 -0.0812008 0 0
6 11.4725 0 0 -0.243938 -0.0972677 -0.0110481
7 0.615219 -0.99309 -0.810699 -3.03664 0.382047 -0.304472
8 2.24752 0 0 0.10312 0.00887019 0.0121146
9 1.11936 0 0 0.121355 0.237802 0.146889
10 3.71348 -0.10264 0.102191 1.57915 1.20938 0.0785636
11 1.72615 0 0 0.0195877 -0.0108151 -1.07669
12 1.21114 0 0 -0.0162591 0.00461492 -1.87649
13 3.59919 -1.06012 0.0708885 1.77143 1.02648 0.243927
14 1.66069 0 0 -0.0323897 0.0529044 -0.80957
15 1.167 0 0 -0.00928686 -0.010829 -1.98066
16 2.18852 0.501041 0.0576591 1.55583 0.110324 0.0402214
17 1.29609 0 0 -0.10981 0.104265 -0.980904
18 1.62202 0.000715256 -0.000471115 0.0249873 -0.0180759 -1.3829
19 1.22241 0 0 0.00912823 -0.000704272 -1.70664
20 1.76707 1.27612 0.0366411 1.54714 0.313947 -0.0233511
21 1.55588 0 0 -0.240313 -0.0114098 -1.10728
22 1.24273 0 0 -0.000479233 0.000360523 -1.02071
23 0.784527 0 0 0.00888764 0.00536394 -1.65773
24 -2.78532 5.54605 -7.74054 -0.000932693 0 -2.00317
25 6.02794 0 0 0.630317 0.572949 -0.307754
26 11.7344 0 0 0.00140261 0 1.78598
27 8.81167 0 0 0.221015 0 0
28 5.77884 0 0 0.14808 0 0
29 2.23249 0 0 0.072935 0 0
30 11.4725 0 0 0.637564 -0.167622 -1.0532
31 0.615813 0.994372 -0.809166 3.11127 0.484951 0.165541
32 2.24752 0 0 -0.087574 0.0269837 0.145449
33 1.11935 0 0 0.0458241 0.121351 0.787248
34 3.71349 0.102639 0.102191 -1.55999 0.560763 -0.0798625
35 1.72615 0 0 -0.0183461 -0.00833416 1.10093
36 1.21112 0 0 0.00523107 0.016388 0.966234
37 3.5992 1.06012 0.0708884 -1.52539 0.466982 0.153987
38 1.66069 0 0 -0.0118321 0.00872888 0.387221
39 1.16699 0 0 -0.00782327 -0.0297275 0.890029
40 2.18853 -0.50104 0.0576589 -1.57665 0.0817362 -0.0988868
41 1.29609 0 0 -0.00682718 -0.0463338 0.335111
42 1.62201 -0.000713348 -0.000470161 -0.0196994 -0.030138 1.01219
43 1.22241 0 0 -0.0163005 0.00301314 1.15641
44 1.76707 -1.27612 0.0366409 -1.57637 0.00990125 -0.0452131
45 1.55588 0 0 0.165179 -0.0187019 0.410253
46 1.24273 0 0 0.000478918 0.000360569 0.293189
47 0.784532 0 0 -0.00863344 0.0138317 0.725128
48 0 0 0 0 0 0
49 -6.1625 -18.8015 -9.41187 -0.0619292 0.0186551 -0.00618272
50 0 0.175507 4.39833 0 0 0
51 -0.243587 0.175503 5.00562 0 0 0
52 -8.98651 -15.2233 -5.2717 0 0 0
53 2.9081 -2.8156 0.114058 -0.0619292 0.0186551 -0.00618272
54 0 -1.19659 1.6467 0 0 0
55 0 -3.33193 2.62787 0 0 0
56 0 -2.21761 -0.120687 0.241497 0 0
57 0 10.015 0.00570393 0 0 0
58 0 0.899643 -0.657644 0 0 0
59 0 -6.47112 1.19749 0 -0.081632 0
60 0 -0.221872 -1.53505 -0.818675 -0.00493972 -0.0130644
61 0 0.174826 -0.766594 0.854479 0.00173452 0.011694
62 0 0 -0.605335 0 0 0
63 0 -0.0467014 -0.715623 0 0 0
64 0 -0.0772591 -1.03217 0 0 0
65 0 0.00226402 -1.16841 0 0 0
time 5
0 0.279744 0.964779 -10.5402 0.000934124 0 -1.04975
1 6.02794 0 0 -1.32289 0.436456 -0.746504
2 11.7344 0 0 -0.00140268 0 -0.953883
3 8.81138 -0.000450134 -0.000112534 -0.245162 0 0.000157975
4 5.77839 0.000286102 0 -0.164258 0 0.000104747
5 2.23163 -0.000329971 -0.000364304 -0.0809034 0 0
6 11.4725 0 0 -0.239983 -0.079774 -0.0654863
7 0.61522 -0.993092 -0.810699 -3.03664 0.382047 -0.304472
8 2.24752 0 0 0.103119 0.00887018 0.0121145
9 1.11936 0 0 0.121355 0.237802 0.146889
10 3.71348 -0.102642 0.102191 1.57915 1.20938 0.0785636
11 1.72615 0 0 0.0195876 -0.0108152 -1.07669
12 1.21113 0 0 -0.0162592 0.0046149 -1.87649
13 3.59919 -1.06012 0.0708876 1.77143 1.02648 0.243927
14 1.66069 0 0 -0.0323896 0.0529044 -0.80957
15 1.167 0 0 -0.00928693 -0.010829 -1.98066
16 2.18853 0.50104 0.0576587 1.55583 0.110324 0.0402214
17 1.29609 0 0 -0.10981 0.104265 -0.980904
18 1.62202 0.000711441 -0.000471115 0.0249873 -0.0180759 -1.3829
19 1.22241 0 0 0.00912822 -0.000704263 -1.70664
20 1.76707 1.27612 0.0366411 1.54714 0.313947 -0.0233512
21 1.55588 0 0 -0.240314 -0.0114097 -1.10728
22 1.24273 0 0 -0.000479187 0.000360533 -1.02071
23 0.784523 0 0 0.00888763 0.00536393 -1.65773
24 -2.78532 5.54605 -7.74054 -0.000932693 0 -2.00317
25 6.02794 0 0 0.638794 0.56313 -0.291897
26 11.7344 0 0 0.00140273 0 1.76027
27 8.81167 0 0 0.228317 0 0
28 5.77884 0 0 0.152972 0 0
29 2.23249 0 0 0.0753444 0 0
30 11.4725 0 0 0.655133 -0.169498 -1.05923
31 0.615812 0.994373 -0.809166 3.11127 0.484951 0.165541
32 2.24752 0 0 -0.0875741 0.0269838 0.145449
33 1.11936 0 0 0.0458239 0.121351 0.787248
34 3.71349 0.102639 0.102191 -1.55999 0.560763 -0.0798626
35 1.72615 0 0 -0.0183461 -0.00833415 1.10093
36 1.21112 0 0 0.00523108 0.0163881 0.966234
37 3.5992 1.06012 0.0708881 -1.52539 0.466982 0.153987
38 1.66069 0 0 -0.011832 0.00872888 0.387222
39 1.16699 0 0 -0.00782332 -0.0297274 0.890029
40 2.18853 -0.50104 0.0576592 -1.57665 0.0817364 -0.0988867
41 1.29609 0 0 -0.00682718 -0.0463338 0.335111
42 1.62201 -0.000714302 -0.000469685 -0.0196994 -0.030138 1.01219
43 1.22241 0 0 -0.0163005 0.00301314 1.15641
44 1.76707 -1.27612 0.0366402 -1.57637 0.00990136 -0.0452131
45 1.55588 0 0 0.165179 -0.0187019 0.410253
46 1.24273 0 0 0.000478923 0.000360572 0.293189
47 0.784532 0 0 -0.00863344 0.0138317 0.725128
48 0 0 0 0 0 0
49 -6.14577 -19.024 -9.37821 -0.0569733 0.00114653 -0.0171096
50 0 0.175505 4.39833 0 0 0
51 -0.243587 0.175505 5.00562 0 0 0
52 -8.98651 -15.2233 -5.2717 0 0 0
53 2.85831 -3.05891 0.152177 -0.0569733 0.00114653 -0.0171096
54 0 -0.0303898 1.6467 0 0 0
55 0 -2.3184 2.62787 0 0 0
56 0 -2.21761 -0.120687 0.241497 0 0
57 0 10.015 0.00570393 0 0 0
58 0 0.899643 -0.657643 0 0 0
59 0 -6.47111 1.19749 0 -0.0696427 0
60 0 -0.221872 -1.53505 -0.82002 -0.00500128 -0.0132271
61 0 0.174824 -0.766596 0.832248 0.00279137 0.0100294
62 0 0 -0.605335 0 0 0
63 0 -0.0467052 -0.715623 0 0 0
64 0 -0.0772591 -1.03217 0 0 0
65 0 0.00226784 -1.16841 0 0 0
time 6
0 0.279744 0.964779 -10.5402 0.000934124 0 -1.04975
1 6.02794 0 0 -1.32286 0.421902 -0.752043
2 11.7344 0 0 -0.00140281 0 -0.91768
3 8.81138 -0.000450134 -0.000112057 -0.252051 0 0.000157535
4 5.77839 0.000286102 0 -0.168874 0 0.000104381
5 2.23163 -0.000329971 -0.000364065 -0.0831766 0 0
6 11.4725 0 0 -0.24599 -0.0769798 -0.0860743
7 0.615217 -0.993092 -0.8107 -3.03664 0.382047 -0.304473
8 2.24752 0 0 0.10312 0.0088702 0.0121146
9 1.11936 0 0 0.121355 0.237802 0.146889
10 3.71348 -0.10264 0.102191 1.57915 1.20938 0.0785637
11 1.72615 0 0 0.0195877 -0.0108152 -1.07669
12 1.21114 0 0 -0.0162592 0.00461495 -1.87649
13 3.59919 -1.06012 0.070888 1.77143 1.02648 0.243927
14 1.66069 0 0 -0.0323896 0.0529044 -0.80957
15 1.167 0 0 -0.00928693 -0.010829 -1.98066
16 2.18852 0.50104 0.0576591 1.55583 0.110324 0.0402213
17 1.29609 0 0 -0.10981 0.104265 -0.980904
18 1.62202 0.000715256 -0.000471115 0.0249873 -0.0180759 -1.3829
19 1.22241 0 0 0.00912826 -0.000704306 -1.70664
20 1.76707 1.27612 0.0366416 1.54714 0.313947 -0.0233512
21 1.55588 0 0 -0.240314 -0.0114098 -1.10728
22 1.24274 0 0 -0.000479261 0.000360544 -1.02071
23 0.784523 0 0 0.0088877 0.00536393 -1.65773
24 -2.78532 5.54605 -7.74054 -0.000932693 0 -2.00317
25 6.02794 0 0 0.645733 0.554896 -0.278966
26 11.7344 0 0 0.00140269 0 1.73804
27 8.81167 0 0 0.238762 0 0
28 5.77884 0 0 0.15997 0 0
29 2.23249 0 0 0.0787914 0 0
30 11.4725 0 0 0.669346 -0.166994 -1.06229
31 0.615812 0.994372 -0.809165 3.11127 0.484951 0.165541
32 2.24752 0 0 -0.087574 0.0269838 0.145449
33 1.11936 0 0 0.0458238 0.121351 0.787248
34 3.71349 0.102639 0.102191 -1.55999 0.560763 -0.0798624
35 1.72615 0 0 -0.0183461 -0.00833416 1.10093
36 1.21112 0 0 0.00523108 0.0163881 0.966234
37 3.5992 1.06012 0.0708877 -1.52539 0.466982 0.153987
38 1.66069 0 0 -0.0118321 0.00872888 0.387222
39 1.16699 0 0 -0.00782331 -0.0297275 0.890029
40 2.18853 -0.501041 0.0576593 -1.57665 0.0817365 -0.0988867
41 1.29609 0 0 -0.0068272 -0.0463338 0.335111
42 1.62202 -0.000714302 -0.000470161 -0.0196994 -0.030138 1.01219
43 1.22241 0 0 -0.0163005 0.00301313 1.15641
44 1.76707 -1.27612 0.0366402 -1.57637 0.00990134 -0.045213
45 1.55587 0 0 0.165179 -0.0187019 0.410253
46 1.24273 0 0 0.000478928 0.000360575 0.293189
47 0.784532 0 0 -0.00863344 0.0138317 0.725128
48 0 0 0 0 0 0
49 -6.12179 -19.209 -9.36127 -0.0508792 -0.0136405 -0.0228642
50 0 0.175505 4.39833 0 0 0
51 -0.243587 0.175505 5.00562 0 0 0
52 -8.98651 -15.2233 -5.2717 0 0 0
53 2.82296 -3.26855 0.173172 -0.0508792 -0.0136405 -0.0228642
54 0 -0.0303917 1.64671 0 0 0
55 0 -2.3184 2.62787 0 0 0
56 0 -2.21761 -0.120687 0.241497 0 0
57 0 10.015 0.00570393 0 0 0
58 0 0.899644 -0.657643 0 0 0
59 0 -6.47112 1.19749 0 -0.0524157 0
60 0 -0.221874 -1.53505 -0.744488 -0.00461848 -0.0122147
61 0 0.174826 -0.766594 0.752642 0.00373282 0.00758745
62 0 0 -0.605335 0 0 0
63 0 -0.0467052 -0.715623 0 0 0
64 0 -0.0772591 -1.03217 0 0 0
65 0 0.00226784 -1.16841 0 0 0
time 7
0 0.279744 0.964779 -10.5402 0.000934124 0 -1.04975
1 6.02794 0 0 -1.31904 0.432306 -0.751405
2 11.7344 0 0 -0.00140285 0 -0.938314
3 8.81139 -0.000452042 -0.000112057 -0.265656 0 0.00015789
4 5.77839 0.000284195 0 -0.17799 0 0.000104586
5 2.23164 -0.000329971 -0.000363588 -0.0876667 0 0
6 11.4725 0 0 -0.261787 -0.0888889 -0.0365628
7 0.61522 -0.99309 -0.810701 -3.03664 0.382047 -0.304472
8 2.24752 0 0 0.10312 0.0088701 0.0121146
9 1.11936 0 0 0.121355 0.237802 0.146889
10 3.71348 -0.102642 0.102191 1.57915 1.20939 0.0785636
11 1.72615 0 0 0.0195877 -0.0108152 -1.07669
12 1.21114 0 0 -0.0162592 0.00461494 -1.87649
13 3.59919 -1.06012 0.0708885 1.77143 1.02648 0.243927
14 1.66069 0 0 -0.0323896 0.0529044 -0.80957
15 1.167 0 0 -0.00928685 -0.010829 -1.98066
16 2.18853 0.501041 0.0576591 1.55583 0.110324 0.0402213
17 1.29609 0 0 -0.10981 0.104265 -0.980904
18 1.62202 0.000711441 -0.000469208 0.0249873 -0.018076 -1.3829
19 1.22241 0 0 0.00912827 -0.000704316 -1.70664
20 1.76707 1.27612 0.0366411 1.54714 0.313947 -0.0233513
21 1.55588 0 0 -0.240314 -0.0114097 -1.10728
22 1.24274 0 0 -0.000479255 0.000360501 -1.02071
23 0.784525 0 0 0.00888767 0.00536396 -1.65773
24 -2.78532 5.54605 -7.74054 -0.000932693 0 -2.00317
25 6.02794 0 0 0.650274 0.549536 -0.270834
26 11.7344 0 0 0.0014027 0 1.71988
27 8.81167 0 0 0.256747 0 0
28 5.77884 0 0 0.172021 0 0
29 2.23249 0 0 0.0847265 0 0
30 11.4725 0 0 0.6767 -0.158885 -1.05409
31 0.615812 0.994372 -0.809166 3.11127 0.484951 0.165541
32 2.24752 0 0 -0.087574 0.0269838 0.145449
33 1.11936 0 0 0.045824 0.121351 0.787248
34 3.71349 0.102639 0.102191 -1.55999 0.560763 -0.0798625
35 1.72615 0 0 -0.0183461 -0.00833416 1.10093
36 1.21112 0 0 0.00523108 0.016388 0.966234
37 3.5992 1.06012 0.0708883 -1.52539 0.466982 0.153987
38 1.66069 0 0 -0.0118321 0.00872889 0.387221
39 1.16699 0 0 -0.0078233 -0.0297275 0.890029
40 2.18853 -0.50104 0.0576589 -1.57665 0.0817364 -0.0988868
41 1.29609 0 0 -0.00682719 -0.0463338 0.335111
42 1.62202 -0.000713348 -0.000469685 -0.0196994 -0.030138 1.01219
43 1.22241 0 0 -0.0163005 0.00301314 1.15641
44 1.76707 -1.27612 0.0366405 -1.57637 0.00990128 -0.045213
45 1.55587 0 0 0.165179 -0.0187019 0.410253
46 1.24273 0 0 0.000478915 0.000360562 0.293189
47 0.78453 0 0 -0.00863344 0.0138316 0.725128
48 0 0 0 0 0 0
49 -6.0943 -19.358 -9.36815 -0.0468824 -0.0223396 -0.0179133
50 0 0.175505 4.39833 0 0 0
51 -0.243587 0.175507 5.00562 0 0 0
52 -8.98651 -15.2233 -5.2717 0 0 0
53 2.80945 -3.43413 0.168446 -0.0468824 -0.0223396 -0.0179133
54 0 -0.0303898 1.64671 0 0 0
55 0 -2.3184 2.62787 0 0 0
56 0 -2.23113 -0.121703 0.215083 0 0
57 0 10.015 0.00570393 0 0 0
58 0 0.899643 -0.657643 0 0 0
59 0 -6.47111 1.19749 0 -0.0380786 0
60 0 -0.221874 -1.53505 -0.614353 -0.00391652 -0.0103582
61 0 0.174822 -0.766596 0.659285 0.0044341 0.00524671
62 0 0 -0.605335 0 0 0
63 0 -0.0467033 -0.715623 0 0 0
64 0 -0.0772591 -1.03217 0 0 0
65 0 0.00226593 -1.16841 0 0 0
time 8
0 0.279744 0.964779 -10.5402 0.000934124 0 -1.04975
1 6.02794 0 0 -1.31433 0.453402 -0.747137
2 11.7344 0 0 -0.00140288 0 -0.980433
3 8.81138 -0.000452042 -0.000112534 -0.274931 0 0.000157458
4 5.77839 0.000286102 0 -0.184204 0 0.000104281
5 2.23164 -0.000329971 -0.000364065 -0.0907272 0 0
6 11.4725 0 0 -0.276316 -0.103916 0.0281707
7 0.615221 -0.993092 -0.810699 -3.03664 0.382047 -0.304473
8 2.24752 0 0 0.10312 0.00887008 0.0121145
9 1.11936 0 0 0.121355 0.237802 0.146889
10 3.71348 -0.10264 0.102191 1.57915 1.20938 0.0785636
11 1.72615 0 0 0.0195877 -0.0108151 -1.07669
12 1.21114 0 0 -0.0162592 0.00461497 -1.87649
13 3.59919 -1.06012 0.0708876 1.77143 1.02648 0.243927
14 1.66069 0 0 -0.0323897 0.0529044 -0.80957
15 1.167 0 0 -0.00928686 -0.010829 -1.98066
16 2.18852 0.501041 0.0576587 1.55583 0.110324 0.0402213
17 1.29609 0 0 -0.10981 0.104265 -0.980904
18 1.62202 0.000713348 -0.000471115 0.0249873 -0.0180759 -1.3829
19 1.22241 0 0 0.00912825 -0.000704292 -1.70664
20 1.76707 1.27612 0.0366406 1.54714 0.313947 -0.0233512
21 1.55588 0 0 -0.240314 -0.0114098 -1.10728
22 1.24274 0 0 -0.000479251 0.000360524 -1.02071
23 0.784523 0 0 0.00888765 0.00536394 -1.65773
24 -2.78532 5.54605 -7.74054 -0.000932693 0 -2.00317
25 6.02794 0 0 0.652065 0.546802 -0.266209
26 11.7344 0 0 0.00140272 0 1.70725
27 8.81167 0 0 0.276276 0 0
28 5.77884 0 0 0.185105 0 0
29 2.23249 0 0 0.0911712 0 0
30 11.4725 0 0 0.681205 -0.147735 -1.04385
31 0.615814 0.994372 -0.809166 3.11127 0.484951 0.165541
32 2.24752 0 0 -0.0875739 0.0269839 0.145449
33 1.11936 0 0 0.0458238 0.121351 0.787248
34 3.71349 0.102639 0.102191 -1.55999 0.560763 -0.0798626
35 1.72615 0 0 -0.0183461 -0.00833416 1.10093
36 1.21112 0 0 0.00523109 0.016388 0.966234
37 3.5992 1.06012 0.070888 -1.52539 0.466982 0.153987
38 1.66069 0 0 -0.0121224 0.00820261 0.346223
39 1.16699 0 0 -0.006573 -0.0305535 0.849013
40 2.18853 -0.50104 0.0576587 -1.57665 0.0817362 -0.0988868
41 1.29609 0 0 -0.00682718 -0.0463338 0.335111
42 1.62202 -0.000713348 -0.000469685 -0.0196994 -0.030138 1.01219
43 1.22241 0 0 -0.0163005 0.00301314 1.15641
44 1.76707 -1.27612 0.0366399 -1.57637 0.00990112 -0.0452131
45 1.55587 0 0 0.165179 -0.0187019 0.410253
46 1.24273 0 0 0.000478925 0.000360568 0.293189
47 0.784531 0 0 -0.00863345 0.0138317 0.725128
48 0 0 0 0 0 0
49 -6.05064 -19.455 -9.4041 -0.0421244 -0.028317 -0.00779
50 0 0.175507 4.39833 0 0 0
51 -0.243587 0.175505 5.00562 0 0 0
52 -8.98651 -15.2233 -5.2717 0 0 0
53 2.82028 -3.55217 0.135133 -0.0421244 -0.028317 -0.00779
54 0 -0.0303936 1.6467 0 0 0
55 0 -2.3184 2.62787 0 0 0
56 0 -2.26399 -0.124171 0.150936 0 0
57 0 10.015 0.00570393 0 0 0
58 0 0.899644 -0.657643 0 0 0
59 0 -6.47112 1.19749 0 -0.0277617 0
60 0 -0.221874 -1.53505 -0.451883 -0.00302057 -0.00798868
61 0 0.174826 -0.766594 0.536523 0.00493056 0.00275827
62 0 0 -0.605336 0 0 0
63 0 -0.0467033 -0.715622 0 0 0
64 0 -0.0772591 -1.03217 0 0 0
65 0 0.00226784 -1.16841 0 0 0
time 9
0 0.279744 0.964779 -10.5402 0.000934124 0 -1.04975
1 6.02794 0 0 -1.30938 0.46938 -0.744755
2 11.7344 0 0 -0.0014029 0 -1.00261
3 8.81139 -0.000452042 -0.000111818 -0.283328 0 0.000158142
4 5.77839 0.000284195 0 -0.18983 0 0.00010469
5 2.23163 -0.000329971 -0.000363588 -0.0934981 0 0
6 11.4725 0 0 -0.28664 -0.119976 0.0451976
7 0.615219 -0.993092 -0.8107 -3.03664 0.382047 -0.304472
8 2.24752 0 0 0.10312 0.00887006 0.0121145
9 1.11936 0 0 0.121355 0.237802 0.146889
10 3.71348 -0.102642 0.102191 1.57915 1.20938 0.0785638
11 1.72615 0 0 0.0195877 -0.0108151 -1.07669
12 1.21114 0 0 -0.0162592 0.00461489 -1.87649
13 3.59919 -1.06012 0.0708876 1.77143 1.02648 0.243927
14 1.66069 0 0 -0.0323897 0.0529044 -0.80957
15 1.167 0 0 -0.00928694 -0.0108289 -1.98066
16 2.18852 0.501041 0.0576596 1.55583 0.110324 0.0402214
17 1.29609 0 0 -0.10981 0.104265 -0.980904
18 1.62202 0.000715256 -0.000469208 0.0249873 -0.0180759 -1.3829
19 1.22241 0 0 0.00912829 -0.000704334 -1.70664
20 1.76707 1.27612 0.0366402 1.54714 0.313947 -0.0233512
21 1.55587 0 0 -0.240314 -0.0114098 -1.10728
22 1.24274 0 0 -0.000479234 0.000360525 -1.02071
23 0.784523 0 0 0.00888766 0.00536394 -1.65773
24 -2.78532 5.54605 -7.74054 -0.000932693 0 -2.00317
25 6.02794 0 0 0.651596 0.545942 -0.263663
26 11.7344 0 0 0.00140282 0 1.69979
27 8.81167 0 0 0.286134 0 0
28 5.77884 0 0 0.19171 0 0
29 2.23249 0 0 0.0944244 0 0
30 11.4725 0 0 0.68067 -0.139812 -1.03791
31 0.61581 0.994372 -0.809165 3.11127 0.484951 0.165541
32 2.24752 0 0 -0.0875739 0.0269836 0.145449
33 1.11936 0 0 0.045824 0.121351 0.787248
34 3.71348 0.10264 0.10219 -1.55999 0.560763 -0.0798626
35 1.72615 0 0 -0.0183461 -0.00833416 1.10093
36 1.21112 0 0 0.00523107 0.016388 0.966234
37 3.5992 1.06012 0.070888 -1.52539 0.466982 0.153987
38 1.66069 0 0 -0.0127619 0.0070448 0.256026
39 1.16699 0 0 -0.00382167 -0.0323708 0.758778
40 2.18853 -0.50104 0.057659 -1.57665 0.0817364 -0.0988868
41 1.29609 0 0 -0.00682715 -0.0463338 0.335111
42 1.62202 -0.000712395 -0.000469685 -0.0196994 -0.030138 1.01219
43 1.22241 0 0 -0.0163005 0.00301313 1.15641
44 1.76707 -1.27612 0.0366404 -1.57637 0.00990122 -0.0452131
45 1.55587 0 0 0.165179 -0.0187019 0.410254
46 1.24273 0 0 0.00047892 0.000360561 0.293189
47 0.784533 0 0 -0.00863344 0.0138317 0.725128
48 0 0 0 0 0 0
49 -6.01682 -19.5091 -9.46142 -0.0360397 -0.0285459 -0.000448877
50 0 0.175507 4.39832 0 0 0
51 -0.243587 0.175507 5.00562 0 0 0
52 -8.98651 -15.2233 -5.2717 0 0 0
53 2.84802 -3.63309 0.0818295 -0.0360397 -0.0285459 -0.000448877
54 0 -0.0303898 1.6467 0 0 0
55 0 -2.3184 2.62787 0 0 0
56 0 -2.30456 -0.127221 0.0716943 0 0
57 0 10.015 0.00570393 0 0 0
58 0 0.899642 -0.657643 0 0 0
59 0 -6.47111 1.19749 0 -0.0173565 0
60 0 -0.221872 -1.53505 -0.279351 -0.00205577 -0.00543705
61 0 0.174824 -0.766596 0.370187 0.0052659 -0.000185309
62 0 0 -0.605336 0 0 0
63 0 -0.0467052 -0.715622 0 0 0
64 0 -0.0772591 -1.03217 0 0 0
65 0 0.00226593 -1.16841 0 0 0
time 10
0 0.279744 0.964779 -10.5402 0.000934124 0 -1.04975
1 6.02794 0 0 -1.30245 0.482593 -0.744786
2 11.7344 0 0 -0.00140285 0 -1.01572
3 8.81138 -0.000450134 -0.000112772 -0.300236 0 0.000157704
4 5.77839 0.00028801 0 -0.201158 0 0.000104313
5 2.23164 -0.000328064 -0.000364065 -0.0990778 0 0
6 11.4725 0 0 -0.303584 -0.138063 0.0458697
7 0.615219 -0.993092 -0.8107 -3.03664 0.382047 -0.304473
8 2.24752 0 0 0.10312 0.0088701 0.0121145
9 1.11936 0 0 0.121355 0.237802 0.146889
10 3.71348 -0.102642 0.10219 1.57915 1.20939 0.0785636
11 1.72615 0 0 0.0195877 -0.0108151 -1.07669
12 1.21114 0 0 -0.0162591 0.00461488 -1.87649
13 3.59919 -1.06012 0.0708871 1.77143 1.02648 0.243927
14 1.66069 0 0 -0.0323897 0.0529044 -0.80957
15 1.167 0 0 -0.00928692 -0.010829 -1.98066
16 2.18853 0.501038 0.0576582 1.55583 0.110324 0.0402214
17 1.29609 0 0 -0.10981 0.104265 -0.980904
18 1.62202 0.000713348 -0.000471115 0.0249873 -0.018076 -1.3829
19 1.22241 0 0 0.00912821 -0.000704272 -1.70664
20 1.76707 1.27612 0.0366411 1.54714 0.313947 -0.0233511
21 1.55588 0 0 -0.240313 -0.0114098 -1.10728
22 1.24274 0 0 -0.000479221 0.000360532 -1.02071
23 0.784523 0 0 0.00888767 0.00536391 -1.65773
24 -2.78532 5.54605 -7.74054 -0.000932693 0 -2.00317
25 6.02794 0 0 0.649939 0.545944 -0.261884
26 11.7344 0 0 0.00140266 0 1.69562
27 8.81167 0 0 0.28222 0 0
28 5.77884 0 0 0.189087 0 0
29 2.23249 0 0 0.0931326 0 0
30 11.4725 0 0 0.673377 -0.137175 -1.03825
31 0.615812 0.994373 -0.809166 3.11127 0.484951 0.165541
32 2.24752 0 0 -0.0875739 0.0269838 0.145449
33 1.11936 0 0 0.0458239 0.121351 0.787248
34 3.71349 0.102639 0.10219 -1.55999 0.560763 -0.0798627
35 1.72615 0 0 -0.0183461 -0.00833416 1.10093
36 1.21112 0 0 0.00523108 0.016388 0.966234
37 3.5992 1.06012 0.0708876 -1.52539 0.466982 0.153987
38 1.66069 0 0 -0.0134013 0.00588702 0.165829
39 1.16699 0 0 -0.00107082 -0.0341881 0.668543
40 2.18853 -0.50104 0.0576589 -1.57665 0.0817363 -0.0988869
41 1.29609 0 0 -0.00682719 -0.0463338 0.335111
42 1.62202 -0.000713348 -0.000469208 -0.0196994 -0.030138 1.01219
43 1.22241 0 0 -0.0163005 0.00301313 1.15641
44 1.76707 -1.27612 0.0366404 -1.57637 0.00990135 -0.0452131
45 1.55587 0 0 0.165179 -0.0187019 0.410253
46 1.24273 0 0 0.000478912 0.000360563 0.293189
47 0.784531 0 0 -0.00863342 0.0138317 0.725128
48 0 0 0 0 0 0
49 -6.00971 -19.529 -9.53196 -0.0280631 -0.0212827 0.000839142
50 0 0.175505 4.39833 0 0 0
51 -0.243587 0.175508 5.00562 0 0 0
52 -8.98651 -15.2233 -5.2717 0 0 0
53 2.88523 -3.68727 0.0171337 -0.0280631 -0.0212827 0.000839142
54 0 -0.0303917 1.6467 0 0 0
55 0 -2.3184 2.62787 0 0 0
56 0 -2.34127 -0.129979 0 0 0
57 0 10.015 0.00570393 0 0 0
58 0 0.899642 -0.657643 0 0 0
59 0 -6.47112 1.19749 0 -0.00713195 0
60 0 -0.221874 -1.53505 -0.119026 -0.0011473 -0.00303437
61 0 0.174826 -0.766596 0.206122 0.00532776 -0.0027935
62 0 0 -0.605335 0 0 0
63 0 -0.0467033 -0.715623 0 0 0
64 0 -0.077261 -1.03217 0 0 0
65 0 0.00226784 -1.16841 0 0 0
time 11
0 0.279744 0.964779 -10.5402 0.000934124 0 -1.04975
1 6.02794 0 0 -1.29346 0.497969 -0.745146
2 11.7344 0 0 -0.00140287 0 -1.03664
3 8.81138 -0.000450134 -0.000112534 -0.324662 0 0.000157861
4 5.77839 0.000284195 0 -0.217524 0 0.000104238
5 2.23163 -0.000331879 -0.000363827 -0.107138 0 0
6 11.4725 0 0 -0.331079 -0.158912 0.0673362
7 0.615219 -0.993092 -0.8107 -3.03664 0.382047 -0.304473
8 2.24752 0 0 0.10312 0.00887007 0.0121146
9 1.11936 0 0 0.121355 0.237802 0.146889
10 3.71348 -0.10264 0.102191 1.57915 1.20939 0.0785634
11 1.72615 0 0 0.0195877 -0.0108152 -1.07669
12 1.21114 0 0 -0.0162592 0.00461487 -1.87649
13 3.59919 -1.06012 0.0708876 1.77143 1.02648 0.243927
14 1.66069 0 0 -0.0323897 0.0529044 -0.80957
15 1.167 0 0 -0.00928687 -0.010829 -1.98066
16 2.18852 0.501038 0.0576587 1.55583 0.110324 0.0402212
17 1.29609 0 0 -0.10981 0.104265 -0.980904
18 1.62202 0.000713348 -0.000471115 0.0249873 -0.0180759 -1.3829
19 1.22241 0 0 0.00912828 -0.000704219 -1.70664
20 1.76707 1.27612 0.0366406 1.54714 0.313947 -0.0233513
21 1.55588 0 0 -0.240314 -0.0114098 -1.10728
22 1.24273 0 0 -0.000479227 0.000360512 -1.02071
23 0.784525 0 0 0.00888766 0.00536395 -1.65773
24 -2.78532 5.54605 -7.74054 -0.000932693 0 -2.00317
25 6.02794 0 0 0.648264 0.546328 -0.260994
26 11.7344 0 0 0.00140266 0 1.69382
27 8.81167 0 0 0.272308 0 0
28 5.77884 0 0 0.182446 0 0
29 2.23249 0 0 0.0898615 0 0
30 11.4725 0 0 0.661305 -0.134539 -1.04208
31 0.61581 0.994372 -0.809166 3.11127 0.484951 0.165541
32 2.24752 0 0 -0.0875741 0.0269837 0.145449
33 1.11936 0 0 0.0458241 0.121351 0.787248
34 3.71348 0.102639 0.102191 -1.55999 0.560763 -0.0798627
35 1.72615 0 0 -0.0183461 -0.00833418 1.10093
36 1.21112 0 0 0.00523109 0.0163881 0.966234
37 3.5992 1.06012 0.0708883 -1.52539 0.466982 0.153986
38 1.66069 0 0 -0.0136917 0.00536073 0.12483
39 1.16699 0 0 0.000179485 -0.0350142 0.627528
40 2.18853 -0.50104 0.0576589 -1.57665 0.0817363 -0.0988868
41 1.29609 0 0 -0.00682718 -0.0463338 0.335111
42 1.62202 -0.000713348 -0.000470161 -0.0196994 -0.030138 1.01219
43 1.22241 0 0 -0.0163005 0.00301313 1.15641
44 1.76707 -1.27612 0.0366409 -1.57637 0.0099012 -0.0452131
45 1.55588 0 0 0.165179 -0.0187019 0.410253
46 1.24273 0 0 0.000478922 0.000360591 0.293189
47 0.784531 0 0 -0.00863346 0.0138317 0.725128
48 0 0 0 0 0 0
49 -6.01995 -19.5223 -9.60644 -0.0176292 -0.00973973 0.00058385
50 0 0.175505 4.39833 0 0 0
51 -0.243587 0.175507 5.00562 0 0 0
52 -8.98651 -15.2233 -5.2717 0 0 0
53 2.92449 -3.72514 -0.0503573 -0.0176292 -0.00973973 0.00058385
54 0 -0.0303936 1.6467 0 0 0
55 0 -2.3184 2.62787 0 0 0
56 0 -2.34128 -0.129979 0 0 0
57 0 10.015 0.00570345 0 0 0
58 0 0.899642 -0.657643 0 0 0
59 0 -6.47111 1.19749 0 0.00264284 0
60 0 -0.221876 -1.53505 0.00682042 -0.000420308 -0.00111168
61 0 0.174824 -0.766596 0.0901719 0.00500383 -0.0042758
62 0 0 -0.605335 0 0 0
63 0 -0.0467014 -0.715623 0 0 0
64 0 -0.0772591 -1.03217 0 0 0
65 0 0.00226593 -1.1684 0 0 0
time 12
0 0.279744 0.964779 -10.5402 0.000934124 0 -1.04975
1 6.02794 0 0 -1.28338 0.514285 -0.745407
2 11.7344 0 0 -0.00140281 0 -1.06149
3 8.81138 -0.000450134 -0.000112534 -0.352688 0 0.000156848
4 5.77839 0.000284195 0 -0.236301 0 0.000103641
5 2.23163 -0.000329971 -0.000364304 -0.116387 0 0
6 11.4725 0 0 -0.36632 -0.179866 0.108042
7 0.615219 -0.993092 -0.8107 -3.03664 0.382047 -0.304473
8 2.24752 0 0 0.10312 0.00887005 0.0121146
9 1.11936 0 0 0.121355 0.237802 0.146889
10 3.71348 -0.102642 0.102191 1.57915 1.20938 0.0785637
11 1.72615 0 0 0.0195877 -0.0108151 -1.07669
12 1.21113 0 0 -0.0162592 0.00461492 -1.87649
13 3.5992 -1.06012 0.070888 1.77143 1.02648 0.243927
14 1.66069 0 0 -0.0323896 0.0529044 -0.80957
15 1.167 0 0 -0.0092869 -0.0108289 -1.98066
16 2.18852 0.50104 0.0576587 1.55583 0.110324 0.0402213
17 1.29609 0 0 -0.10981 0.104265 -0.980904
18 1.62202 0.000715256 -0.000472069 0.0249873 -0.0180759 -1.3829
19 1.22241 0 0 0.00912825 -0.000704248 -1.70664
20 1.76707 1.27612 0.0366416 1.54714 0.313947 -0.0233513
21 1.55587 0 0 -0.240314 -0.0114098 -1.10728
22 1.24273 0 0 -0.000479217 0.000360526 -1.02071
23 0.784521 0 0 0.0088877 0.00536392 -1.65773
24 -2.78532 5.54605 -7.74054 -0.000932693 0 -2.00317
25 6.02794 0 0 0.648055 0.54622 -0.260505
26 11.7344 0 0 0.00140272 0 1.69355
27 8.81167 0 0 0.260108 0 0
28 5.77884 0 0 0.174272 0 0
29 2.23249 0 0 0.0858355 0 0
30 11.4725 0 0 0.645237 -0.12744 -1.05042
31 0.615812 0.994372 -0.809165 3.11127 0.484951 0.165541
32 2.24752 0 0 -0.0875741 0.0269837 0.145449
33 1.11936 0 0 0.045824 0.121351 0.787248
34 3.71349 0.102639 0.102191 -1.55999 0.560763 -0.0798625
35 1.72615 0 0 -0.0183461 -0.00833415 1.10093
36 1.21112 0 0 0.00523108 0.0163881 0.966234
37 3.5992 1.06012 0.0708877 -1.52539 0.466982 0.153987
38 1.66069 0 0 -0.0136917 0.00536075 0.12483
39 1.16699 0 0 0.000179481 -0.0350141 0.627527
40 2.18853 -0.50104 0.0576589 -1.57665 0.0817364 -0.0988868
41 1.29609 0 0 -0.00682716 -0.0463338 0.335111
42 1.62202 -0.000713348 -0.000469685 -0.0196994 -0.030138 1.01219
43 1.22241 0 0 -0.0163005 0.00301313 1.15641
44 1.76707 -1.27612 0.0366412 -1.57637 0.00990135 -0.045213
45 1.55588 0 0 0.165179 -0.0187019 0.410253
46 1.24273 0 0 0.00047891 0.000360585 0.293189
47 0.784532 0 0 -0.00863344 0.0138317 0.725128
48 0 0 0 0 0 0
49 -6.04445 -19.4879 -9.67667 -0.00215167 0.00387991 0.000651241
50 0 0.175507 4.39833 0 0 0
51 -0.243587 0.175508 5.00562 0 0 0
52 -8.98651 -15.2233 -5.2717 0 0 0
53 2.95838 -3.75708 -0.112047 -0.00215167 0.00387991 0.000651241
54 0 -0.0303917 1.64671 0 0 0
55 0 -2.3184 2.62787 0 0 0
56 0 -2.34128 -0.129979 0 0 0
57 0 10.015 0.00570393 0 0 0
58 0 0.899644 -0.657643 0 0 0
59 0 -6.47112 1.19749 0 0.0116989 0
60 0 -0.221874 -1.53505 0.0759176 0 0
61 0 0.174824 -0.766595 0.0419603 0.00408613 -0.00412694
62 0 0 -0.605335 0 0 0
63 0 -0.0467014 -0.715623 0 0 0
64 0 -0.0772591 -1.03217 0 0 0
65 0 0.00226402 -1.16841 0 0 0
time 13
0 0.279744 0.964779 -10.5402 0.000934124 0 -1.04975
1 6.02794 0 0 -1.27874 0.524312 -0.744144
2 11.7344 0 0 -0.00140294 0 -1.07636
3 8.81139 -0.000450134 -0.000111818 -0.36235 0 0.000157894
4 5.77839 0.000284195 0 -0.242775 0 0.000104185
5 2.23163 -0.000331879 -0.000363827 -0.119576 0 0
6 11.4725 0 0 -0.381902 -0.185659 0.13745
7 0.615221 -0.99309 -0.810699 -3.03664 0.382047 -0.304473
8 2.24752 0 0 0.10312 0.00887003 0.0121145
9 1.11936 0 0 0.121355 0.237802 0.146889
10 3.71348 -0.10264 0.102191 1.57915 1.20938 0.0785637
11 1.72615 0 0 0.0195877 -0.0108151 -1.07669
12 1.21114 0 0 -0.0162592 0.00461487 -1.87649
13 3.59919 -1.06012 0.070888 1.77143 1.02648 0.243927
14 1.66069 0 0 -0.0323897 0.0529044 -0.80957
15 1.167 0 0 -0.0092869 -0.0108289 -1.98066
16 2.18852 0.50104 0.0576601 1.55583 0.110324 0.0402213
17 1.29609 0 0 -0.10981 0.104265 -0.980904
18 1.62202 0.000715256 -0.000470161 0.0249873 -0.0180759 -1.3829
19 1.22241 0 0 0.00912828 -0.000704287 -1.70664
20 1.76707 1.27612 0.0366411 1.54714 0.313947 -0.0233512
21 1.55588 0 0 -0.240314 -0.0114098 -1.10728
22 1.24274 0 0 -0.00047923 0.000360518 -1.02071
23 0.784525 0 0 0.00888764 0.00536392 -1.65773
24 -2.78532 5.54605 -7.74054 -0.000932693 0 -2.00317
25 6.02794 0 0 0.647722 0.545551 -0.25852
26 11.7344 0 0 0.0014027 0 1.69217
27 8.81167 0 0 0.259327 0 0
28 5.77884 0 0 0.173749 0 0
29 2.23249 0 0 0.0855778 0 0
30 11.4725 0 0 0.645541 -0.120315 -1.06017
31 0.61581 0.994372 -0.809165 3.11127 0.484951 0.165541
32 2.24752 0 0 -0.0875739 0.0269838 0.145449
33 1.11936 0 0 0.0458239 0.121351 0.787247
34 3.71349 0.10264 0.102191 -1.55999 0.560763 -0.0798626
35 1.72615 0 0 -0.0183461 -0.00833414 1.10093
36 1.21112 0 0 0.0052311 0.0163881 0.966234
37 3.5992 1.06012 0.0708882 -1.52539 0.466982 0.153987
38 1.66069 0 0 -0.0136917 0.00536073 0.12483
39 1.16699 0 0 0.000179459 -0.0350141 0.627528
40 2.18853 -0.50104 0.0576585 -1.57665 0.0817362 -0.0988868
41 1.29609 0 0 -0.00682718 -0.0463338 0.335111
42 1.62202 -0.000713348 -0.000469685 -0.0196994 -0.030138 1.01219
43 1.22241 0 0 -0.0163005 0.00301313 1.15641
44 1.76707 -1.27612 0.03664 -1.57637 0.00990115 -0.045213
45 1.55588 0 0 0.165179 -0.0187019 0.410253
46 1.24273 0 0 0.000478929 0.000360583 0.293189
47 0.784533 0 0 -0.00863344 0.0138317 0.725128
48 0 0 0 0 0 0
49 -6.01544 -19.4711 -9.72994 0.0102338 0.00199668 0.000398741
50 0 0.175507 4.39833 0 0 0
51 -0.243587 0.175507 5.00562 0 0 0
52 -8.98651 -15.2233 -5.2717 0 0 0
53 2.97947 -3.79351 -0.159338 0.0102338 0.00199668 0.000398741
54 0 -0.0303917 1.64671 0 0 0
55 0 -2.3184 2.62787 0 0 0
56 0 -2.34127 -0.129979 0 0 0
57 0 10.015 0.00570345 0 0 0
58 0 0.899643 -0.657643 0 0 0
59 0 -6.47112 1.19749 0 0.019767 0
60 0 -0.221874 -1.53505 0.0964631 0.000172521 0.000456191
61 0 0.174824 -0.766596 0.0345703 0.00269389 -0.00286667
62 0 0 -0.605335 0 0 0
63 0 -0.0467052 -0.715623 0 0 0
64 0 -0.0772572 -1.03217 0 0 0
65 0 0.00226593 -1.16841 0 0 0
time 14
0 0.279744 0.964779 -10.5402 0.000934124 0 -1.04975
1 6.02794 0 0 -1.27863 0.523638 -0.744546
2 11.7344 0 0 -0.00140282 0 -1.07421
3 8.81139 -0.000448227 -0.000112534 -0.363945 0 0.000157771
4 5.77839 0.000286102 0 -0.243844 0 0.000104121
5 2.23164 -0.000328064 -0.000363588 -0.120102 0 0
6 11.4725 0 0 -0.384527 -0.186137 0.142447
7 0.615219 -0.993092 -0.8107 -3.03664 0.382047 -0.304473
8 2.24752 0 0 0.10312 0.00887019 0.0121146
9 1.11936 0 0 0.121355 0.237802 0.146889
10 3.71348 -0.10264 0.10219 1.57915 1.20938 0.0785632
11 1.72615 0 0 0.0195877 -0.0108151 -1.07669
12 1.21114 0 0 -0.0162592 0.00461492 -1.87649
13 3.59919 -1.06012 0.0708885 1.77143 1.02648 0.243926
14 1.66069 0 0 -0.0323896 0.0529044 -0.80957
15 1.167 0 0 -0.00928691 -0.010829 -1.98066
16 2.18853 0.50104 0.0576587 1.55583 0.110324 0.0402212
17 1.29609 0 0 -0.10981 0.104265 -0.980904
18 1.62202 0.000713348 -0.000471115 0.0249873 -0.018076 -1.3829
19 1.22241 0 0 0.00912824 -0.000704244 -1.70664
20 1.76707 1.27612 0.0366406 1.54714 0.313947 -0.0233513
21 1.55588 0 0 -0.240314 -0.0114098 -1.10728
22 1.24273 0 0 -0.000479264 0.000360517 -1.02071
23 0.784525 0 0 0.00888764 0.00536389 -1.65773
24 -2.78532 5.54605 -7.74054 -0.000932693 0 -2.00317
25 6.02794 0 0 0.645311 0.545918 -0.256755
26 11.7344 0 0 0.00140277 0 1.688
27 8.81167 0 0 0.264275 0 0
28 5.77884 0 0 0.177064 0 0
29 2.23249 0 0 0.0872108 0 0
30 11.4725 0 0 0.653715 -0.123888 -1.0575
31 0.615812 0.994372 -0.809166 3.11127 0.484951 0.165541
32 2.24752 0 0 -0.087574 0.0269838 0.145449
33 1.11936 0 0 0.045824 0.121351 0.787248
34 3.71349 0.102639 0.10219 -1.55999 0.560763 -0.0798627
35 1.72615 0 0 -0.0183461 -0.00833417 1.10093
36 1.21112 0 0 0.00523108 0.0163881 0.966234
37 3.5992 1.06012 0.0708875 -1.52539 0.466982 0.153986
38 1.66069 0 0 -0.0136917 0.00536073 0.12483
39 1.16699 0 0 0.00017947 -0.0350142 0.627527
40 2.18853 -0.50104 0.0576589 -1.57665 0.0817363 -0.0988868
41 1.29609 0 0 -0.00682718 -0.0463338 0.335111
42 1.62201 -0.000712395 -0.000470161 -0.0196994 -0.030138 1.01219
43 1.22241 0 0 -0.0163005 0.00301315 1.15641
44 1.76707 -1.27612 0.0366407 -1.57637 0.0099012 -0.0452131
45 1.55588 0 0 0.165179 -0.0187019 0.410253
46 1.24273 0 0 0.000478902 0.000360572 0.293189
47 0.784532 0 0 -0.00863344 0.0138317 0.725128
48 0 0 0 0 0 0
49 -5.98106 -19.5151 -9.76561 0.00828701 -0.00381874 -0.000454874
50 0 0.175505 4.39833 0 0 0
51 -0.243587 0.175507 5.00562 0 0 0
52 -8.98651 -15.2233 -5.2717 0 0 0
53 2.98925 -3.82919 -0.195926 0.00828701 -0.00381874 -0.000454874
54 0 -0.0303917 1.6467 0 0 0
55 0 -2.3184 2.62787 0 0 0
56 0 -2.34127 -0.129979 0 0 0
57 0 10.015 0.00570393 0 0 0
58 0 0.899644 -0.657643 0 0 0
59 0 -6.47112 1.19749 0 0.0272081 0
60 0 -0.221876 -1.53505 0.0953014 0.000253486 0.000670321
61 0 0.174822 -0.766596 0.0440396 0.00120567 -0.00124203
62 0 0 -0.605336 0 0 0
63 0 -0.0467052 -0.715622 0 0 0
64 0 -0.0772591 -1.03217 0 0 0
65 0 0.00226593 -1.16841 0 0 0
time 15
0 0.279744 0.964779 -10.5402 0.000934124 0 -1.04975
1 6.02794 0 0 -1.27979 0.512846 -0.748783
2 11.7344 0 0 -0.00140282 0 -1.04587
3 8.81138 -0.000450134 -0.000112295 -0.369762 0 0.000157567
4 5.77839 0.000286102 0 -0.24774 0 0.000103974
5 2.23164 -0.000328064 -0.000363588 -0.122021 0 0
6 11.4725 0 0 -0.381654 -0.193285 0.099184
7 0.615217 -0.993092 -0.8107 -3.03664 0.382047 -0.304473
8 2.24752 0 0 0.10312 0.00887015 0.0121145
9 1.11936 0 0 0.121355 0.237802 0.146889
10 3.71348 -0.10264 0.102191 1.57915 1.20938 0.0785633
11 1.72615 0 0 0.0195877 -0.0108152 -1.07669
12 1.21114 0 0 -0.0162591 0.00461486 -1.87649
13 3.59919 -1.06012 0.0708885 1.77143 1.02648 0.243927
14 1.66069 0 0 -0.0323896 0.0529044 -0.809571
15 1.167 0 0 -0.00928686 -0.010829 -1.98066
16 2.18852 0.501041 0.0576587 1.55583 0.110324 0.0402213
17 1.29609 0 0 -0.10981 0.104265 -0.980904
18 1.62202 0.000713348 -0.000471115 0.0249873 -0.018076 -1.3829
19 1.22241 0 0 0.00912824 -0.000704248 -1.70664
20 1.76707 1.27612 0.0366411 1.54714 0.313947 -0.0233512
21 1.55588 0 0 -0.240314 -0.0114098 -1.10728
22 1.24274 0 0 -0.000479212 0.000360546 -1.02071
23 0.784525 0 0 0.00888767 0.00536388 -1.65773
24 -2.78532 5.54605 -7.74054 -0.000932693 0 -2.00317
25 6.02794 0 0 0.641778 0.54744 -0.256572
26 11.7344 0 0 0.00140274 0 1.68323
27 8.81167 0 0 0.264075 0 0
28 5.77884 0 0 0.17693 0 0
29 2.23249 0 0 0.0871448 0 0
30 11.4725 0 0 0.654441 -0.135584 -1.04534
31 0.615812 0.994372 -0.809165 3.11127 0.484951 0.165541
32 2.24752 0 0 -0.087574 0.0269839 0.145449
33 1.11935 0 0 0.045824 0.121351 0.787247
34 3.71349 0.102639 0.102191 -1.55999 0.560763 -0.0798627
35 1.72615 0 0 -0.0183461 -0.00833416 1.10093
36 1.21112 0 0 0.00523107 0.0163881 0.966234
37 3.5992 1.06012 0.0708882 -1.52539 0.466982 0.153987
38 1.66069 0 0 -0.0136917 0.00536074 0.12483
39 1.16699 0 0 0.000179448 -0.0350141 0.627527
40 2.18853 -0.501041 0.0576589 -1.57665 0.0817365 -0.0988868
41 1.29609 0 0 -0.0068272 -0.0463338 0.335111
42 1.62202 -0.000713348 -0.000470161 -0.0196994 -0.030138 1.01219
43 1.22241 0 0 -0.0163005 0.00301314 1.15641
44 1.76707 -1.27612 0.0366404 -1.57637 0.00990134 -0.045213
45 1.55587 0 0 0.165179 -0.0187019 0.410253
46 1.24273 0 0 0.000478909 0.000360578 0.293189
47 0.784532 0 0 -0.00863345 0.0138317 0.725128
48 0 0 0 0 0 0
49 -5.99094 -19.5841 -9.7949 -0.00192425 -0.000238728 -0.00181586
50 0 0.175507 4.39833 0 0 0
51 -0.243587 0.175507 5.00562 0 0 0
52 -8.98651 -15.2233 -5.2717 0 0 0
53 2.99546 -3.8543 -0.230129 -0.00192425 -0.000238728 -0.00181586
54 0 -0.0303936 1.64671 0 0 0
55 0 -2.3184 2.62787 0 0 0
56 0 -2.34128 -0.129979 0 0 0
57 0 10.015 0.00570393 0 0 0
58 0 0.899643 -0.657644 0 0 0
59 0 -6.47112 1.19749 0 0.0343094 0
60 0 -0.221872 -1.53505 0.0781322 0.000264043 0.000698251
61 0 0.174826 -0.766595 0.0464057 0 0
62 0 0 -0.605335 0 0 0
63 0 -0.0467014 -0.715622 0 0 0
64 0 -0.077261 -1.03217 0 0 0
65 0 0.00226402 -1.1684 0 0 0
time 16
0 0.279744 0.964779 -10.5402 0.000934124 0 -1.04975
1 6.02794 0 0 -1.28222 0.497469 -0.754108
2 11.7344 0 0 -0.00140279 0 -1.00237
3 8.81139 -0.000452042 -0.000112295 -0.372038 0 0.000157692
4 5.77839 0.000284195 0 -0.249265 0 0.000104074
5 2.23163 -0.000329971 -0.000364304 -0.122773 0 0
6 11.4725 0 0 -0.369928 -0.200853 0.0266087
7 0.615219 -0.993092 -0.8107 -3.03664 0.382047 -0.304472
8 2.24752 0 0 0.10312 0.00887016 0.0121146
9 1.11936 0 0 0.121355 0.237802 0.146889
10 3.71348 -0.10264 0.102191 1.57915 1.20938 0.0785637
11 1.72615 0 0 0.0195877 -0.0108151 -1.07669
12 1.21113 0 0 -0.0162592 0.00461483 -1.87649
13 3.59919 -1.06012 0.0708876 1.77143 1.02648 0.243927
14 1.66069 0 0 -0.0323897 0.0529044 -0.80957
15 1.167 0 0 -0.00928689 -0.010829 -1.98066
16 2.18852 0.50104 0.0576582 1.55583 0.110324 0.0402213
17 1.29609 0 0 -0.10981 0.104265 -0.980904
18 1.62202 0.000713348 -0.000471115 0.0249873 -0.018076 -1.3829
19 1.22241 0 0 0.00912826 -0.000704331 -1.70664
20 1.76707 1.27612 0.0366402 1.54714 0.313947 -0.0233512
21 1.55588 0 0 -0.240314 -0.0114098 -1.10728
22 1.24274 0 0 -0.000479297 0.000360515 -1.02071
23 0.784521 0 0 0.00888763 0.00536395 -1.65773
24 -2.78532 5.54605 -7.74054 -0.000932693 0 -2.00317
25 6.02794 0 0 0.638829 0.548799 -0.256653
26 11.7344 0 0 0.0014027 0 1.67962
27 8.81167 0 0 0.262979 0 0
28 5.77884 0 0 0.176196 0 0
29 2.23249 0 0 0.0867831 0 0
30 11.4725 0 0 0.653972 -0.145237 -1.03566
31 0.615814 0.994372 -0.809166 3.11127 0.484951 0.165541
32 2.24752 0 0 -0.087574 0.0269838 0.145449
33 1.11936 0 0 0.045824 0.121351 0.787248
34 3.71349 0.102639 0.102191 -1.55999 0.560763 -0.0798626
35 1.72615 0 0 -0.0183461 -0.00833417 1.10093
36 1.21112 0 0 0.00523109 0.016388 0.966234
37 3.5992 1.06012 0.0708881 -1.52539 0.466982 0.153987
38 1.66069 0 0 -0.0136917 0.00536073 0.12483
39 1.16699 0 0 0.000179459 -0.0350141 0.627527
40 2.18853 -0.501041 0.0576592 -1.57665 0.0817363 -0.0988868
41 1.29609 0 0 -0.00682718 -0.0463338 0.335111
42 1.62202 -0.000713348 -0.000469208 -0.0196994 -0.030138 1.01219
43 1.22241 0 0 -0.0163005 0.00301313 1.15641
44 1.76707 -1.27612 0.0366406 -1.57637 0.00990121 -0.0452131
45 1.55588 0 0 0.165179 -0.0187019 0.410254
46 1.24273 0 0 0.00047892 0.000360569 0.293189
47 0.784532 0 0 -0.00863345 0.0138317 0.725128
48 0 0 0 0 0 0
49 -6.0036 -19.6366 -9.82082 -0.00995531 0.00360902 -0.00316807
50 0 0.175507 4.39833 0 0 0
51 -0.243588 0.175507 5.00562 0 0 0
52 -8.98651 -15.2233 -5.2717 0 0 0
53 3.0001 -3.87238 -0.260292 -0.00995531 0.00360902 -0.00316807
54 0 -0.0303898 1.6467 0 0 0
55 0 -2.3184 2.62787 0 0 0
56 0 -2.34127 -0.12998 0 0 0
57 0 10.015 0.00570393 0 0 0
58 0 0.899643 -0.657644 0 0 0
59 0 -6.47111 1.19749 0 0.040692 0
60 0 -0.221874 -1.53505 0.0506552 0.000225323 0.000595841
61 0 0.174824 -0.766596 0.0378586 -0.000788367 0.000673661
62 0 0 -0.605336 0 0 0
63 0 -0.0467052 -0.715623 0 0 0
64 0 -0.0772572 -1.03217 0 0 0
65 0 0.00226402 -1.16841 0 0 0
time 17
0 0.279744 0.964779 -10.5402 0.000934124 0 -1.04975
1 6.02794 0 0 -1.28505 0.484408 -0.757866
2 11.7344 0 0 -0.00140297 0 -0.962702
3 8.81138 -0.000452042 -0.00011158 -0.36817 0 0.00015808
4 5.77839 0.00028801 0 -0.246674 0 0.000104407
5 2.23163 -0.000328064 -0.000363588 -0.121496 0 0
6 11.4725 0 0 -0.354233 -0.20405 -0.0404719
7 0.61522 -0.99309 -0.8107 -3.03664 0.382047 -0.304472
8 2.24752 0 0 0.10312 0.00887012 0.0121145
9 1.11936 0 0 0.121355 0.237802 0.146889
10 3.71348 -0.10264 0.102191 1.57915 1.20938 0.0785638
11 1.72615 0 0 0.0195877 -0.0108151 -1.07669
12 1.21114 0 0 -0.0162592 0.00461492 -1.87649
13 3.59919 -1.06012 0.070888 1.77143 1.02648 0.243927
14 1.66069 0 0 -0.0323896 0.0529044 -0.80957
15 1.167 0 0 -0.00928682 -0.010829 -1.98066
16 2.18853 0.50104 0.0576587 1.55583 0.110324 0.0402213
17 1.29609 0 0 -0.10981 0.104265 -0.980904
18 1.62202 0.000715256 -0.000469208 0.0249873 -0.0180759 -1.3829
19 1.22241 0 0 0.00912824 -0.000704303 -1.70664
20 1.76707 1.27612 0.0366402 1.54714 0.313947 -0.0233511
21 1.55588 0 0 -0.240314 -0.0114098 -1.10728
22 1.24274 0 0 -0.000479203 0.0003605 -1.02071
23 0.784525 0 0 0.00888767 0.00536392 -1.65773
24 -2.78532 5.54605 -7.74054 -0.000932693 0 -2.00317
25 6.02794 0 0 0.637172 0.54936 -0.2562
26 11.7344 0 0 0.00140271 0 1.67779
27 8.81167 0 0 0.26399 0 0
28 5.77884 0 0 0.176874 0 0
29 2.23249 0 0 0.0871167 0 0
30 11.4725 0 0 0.656564 -0.148174 -1.03382
31 0.615812 0.994372 -0.809166 3.11127 0.484951 0.165541
32 2.24752 0 0 -0.087574 0.0269838 0.145449
33 1.11936 0 0 0.0458239 0.121351 0.787247
34 3.71349 0.102639 0.102191 -1.55999 0.560763 -0.0798626
35 1.72615 0 0 -0.0183461 -0.00833418 1.10093
36 1.21112 0 0 0.00523109 0.0163881 0.966234
37 3.5992 1.06012 0.0708881 -1.52539 0.466982 0.153987
38 1.66069 0 0 -0.0136917 0.00536073 0.12483
39 1.16699 0 0 0.000179469 -0.0350142 0.627527
40 2.18853 -0.50104 0.0576589 -1.57665 0.0817364 -0.0988868
41 1.29609 0 0 -0.00682716 -0.0463338 0.335111
42 1.62202 -0.000713348 -0.000469685 -0.0196994 -0.030138 1.01219
43 1.22241 0 0 -0.0163005 0.00301314 1.15641
44 1.76707 -1.27612 0.0366408 -1.57637 0.0099012 -0.045213
45 1.55587 0 0 0.165179 -0.0187019 0.410254
46 1.24273 0 0 0.000478922 0.000360576 0.293189
47 0.784532 0 0 -0.00863342 0.0138317 0.725128
48 0 0 0 0 0 0
49 -5.99408 -19.657 -9.84457 -0.0113077 0.00245371 -0.00399534
50 0 0.175507 4.39833 0 0 0
51 -0.243588 0.175507 5.00562 0 0 0
52 -8.98651 -15.2233 -5.2717 0 0 0
53 3.00514 -3.88697 -0.284756 -0.0113077 0.00245371 -0.00399534
54 0 -0.0303936 1.64671 0 0 0
55 0 -2.3184 2.62787 0 0 0
56 0 -2.34128 -0.129979 0 0 0
57 0 10.015 0.00570393 0 0 0
58 0 0.899643 -0.657643 0 0 0
59 0 -6.47112 1.19749 0 0.0459767 0
60 0 -0.221874 -1.53505 0.0185702 0.000158432 0.000418951
61 0 0.174824 -0.766596 0.0304966 -0.00130308 0.00111349
62 0 0 -0.605336 0 0 0
63 0 -0.0467033 -0.715622 0 0 0
64 0 -0.0772572 -1.03217 0 0 0
65 0 0.00226593 -1.16841 0 0 0
time 18
0 0.279744 0.964779 -10.5402 0.000934124 0 -1.04975
1 6.02794 0 0 -1.28764 0.472986 -0.760936
2 11.7344 0 0 -0.00140295 0 -0.927535
3 8.81138 -0.000448227 -0.00011158 -0.363219 0 0.000158203
4 5.77839 0.000286102 0 -0.243357 0 0.000104438
5 2.23163 -0.000329971 -0.000363827 -0.119862 0 0
6 11.4725 0 0 -0.339711 -0.206462 -0.0992515
7 0.615218 -0.993092 -0.8107 -3.03664 0.382047 -0.304472
8 2.24752 0 0 0.10312 0.00887005 0.0121146
9 1.11936 0 0 0.121355 0.237803 0.146889
10 3.71348 -0.102638 0.102191 1.57915 1.20939 0.0785639
11 1.72615 0 0 0.0195876 -0.0108151 -1.07669
12 1.21113 0 0 -0.0162592 0.00461498 -1.87649
13 3.59919 -1.06012 0.0708885 1.77143 1.02648 0.243927
14 1.66069 0 0 -0.0323897 0.0529044 -0.80957
15 1.167 0 0 -0.00928688 -0.010829 -1.98066
16 2.18853 0.501041 0.0576587 1.55583 0.110324 0.0402214
17 1.29609 0 0 -0.10981 0.104265 -0.980904
18 1.62202 0.000713348 -0.000471115 0.0249873 -0.018076 -1.3829
19 1.22241 0 0 0.00912822 -0.000704305 -1.70664
20 1.76707 1.27612 0.0366406 1.54714 0.313947 -0.0233512
21 1.55588 0 0 -0.240314 -0.0114097 -1.10728
22 1.24273 0 0 -0.000479134 0.00036053 -1.02071
23 0.784523 0 0 0.00888771 0.00536385 -1.65773
24 -2.78532 5.54605 -7.74054 -0.000932693 0 -2.00317
25 6.02794 0 0 0.636571 0.549479 -0.25582
26 11.7344 0 0 0.00140273 0 1.67721
27 8.81167 0 0 0.264545 0 0
28 5.77884 0 0 0.177245 0 0
29 2.23249 0 0 0.0872998 0 0
30 11.4725 0 0 0.657607 -0.147458 -1.03496
31 0.615814 0.994372 -0.809165 3.11127 0.484951 0.16554
32 2.24752 0 0 -0.087574 0.0269838 0.145449
33 1.11936 0 0 0.0458238 0.121351 0.787248
34 3.71349 0.102639 0.102191 -1.55999 0.560763 -0.0798627
35 1.72615 0 0 -0.0183461 -0.00833418 1.10093
36 1.21112 0 0 0.00523107 0.0163881 0.966234
37 3.5992 1.06012 0.0708872 -1.52539 0.466982 0.153986
38 1.66069 0 0 -0.0136917 0.00536073 0.12483
39 1.16699 0 0 0.000179478 -0.0350141 0.627527
40 2.18853 -0.501041 0.0576589 -1.57665 0.0817365 -0.0988869
41 1.29609 0 0 -0.00682718 -0.0463338 0.335111
42 1.62202 -0.000714302 -0.000470161 -0.0196994 -0.030138 1.01219
43 1.22241 0 0 -0.0163005 0.00301314 1.15641
44 1.76707 -1.27612 0.03664 -1.57637 0.0099013 -0.0452131
45 1.55588 0 0 0.165179 -0.0187019 0.410254
46 1.24273 0 0 0.000478931 0.000360582 0.293189
47 0.784533 0 0 -0.00863346 0.0138316 0.725128
48 0 0 0 0 0 0
49 -5.98421 -19.6581 -9.86147 -0.00946312 0.00154369 -0.00397214
50 0 0.175507 4.39833 0 0 0
51 -0.243587 0.175508 5.00562 0 0 0
52 -8.98651 -15.2233 -5.2717 0 0 0
53 3.01106 -3.89598 -0.300648 -0.00946312 0.00154369 -0.00397214
54 0 -0.0303936 1.6467 0 0 0
55 0 -2.3184 2.62787 0 0 0
56 0 -2.34127 -0.12998 0 0 0
57 0 10.015 0.00570393 0 0 0
58 0 0.899643 -0.657643 0 0 0
59 0 -6.47112 1.19749 0 0.0497845 0
60 0 -0.221874 -1.53505 -0.0124232 0 0.00022344
61 0 0.174824 -0.766596 0.0242192 -0.00158324 0.00135289
62 0 0 -0.605336 0 0 0
63 0 -0.0467033 -0.715623 0 0 0
64 0 -0.0772572 -1.03217 0 0 0
65 0 0.00226593 -1.1684 0 0 0
time 19
0 0.279744 0.964779 -10.5402 0.000934124 0 -1.04975
1 6.02794 0 0 -1.28958 0.465347 -0.76274
2 11.7344 0 0 -0.00140295 0 -0.902957
3 8.81138 -0.000452042 -0.000112534 -0.358076 0 0.000157911
4 5.77839 0.000286102 0 -0.239911 0 0.000104269
5 2.23163 -0.000329971 -0.000363588 -0.118165 0 0
6 11.4725 0 0 -0.328101 -0.207781 -0.141765
7 0.615217 -0.993092 -0.810701 -3.03664 0.382047 -0.304472
8 2.24752 0 0 0.10312 0.00887015 0.0121147
9 1.11936 0 0 0.121355 0.237802 0.146889
10 3.71348 -0.102642 0.102191 1.57915 1.20938 0.0785636
11 1.72615 0 0 0.0195877 -0.0108151 -1.07669
12 1.21113 0 0 -0.0162592 0.0046149 -1.87649
13 3.59919 -1.06012 0.0708876 1.77143 1.02648 0.243927
14 1.66069 0 0 -0.0323896 0.0529044 -0.80957
15 1.167 0 0 -0.00928688 -0.010829 -1.98066
16 2.18852 0.50104 0.0576587 1.55583 0.110324 0.0402213
17 1.29609 0 0 -0.10981 0.104265 -0.980904
18 1.62202 0.000713348 -0.000473022 0.0249872 -0.018076 -1.3829
19 1.22241 0 0 0.0091283 -0.000704277 -1.70664
20 1.76707 1.27612 0.0366397 1.54714 0.313947 -0.0233512
21 1.55588 0 0 -0.240314 -0.0114097 -1.10728
22 1.24274 0 0 -0.000479232 0.000360552 -1.02071
23 0.784525 0 0 0.00888768 0.00536397 -1.65773
24 -2.78532 5.54605 -7.74054 -0.000932693 0 -2.00317
25 6.02794 0 0 0.6367 0.549381 -0.255719
26 11.7344 0 0 0.0014026 0 1.67795
27 8.81167 0 0 0.264695 0 0
28 5.77884 0 0 0.177346 0 0
29 2.23249 0 0 0.0873493 0 0
30 11.4725 0 0 0.657509 -0.144445 -1.03795
31 0.615812 0.994372 -0.809165 3.11127 0.484951 0.165541
32 2.24752 0 0 -0.0875742 0.0269838 0.145449
33 1.11936 0 0 0.0458241 0.121351 0.787248
34 3.71349 0.102639 0.102191 -1.55999 0.560763 -0.0798625
35 1.72615 0 0 -0.0183461 -0.00833416 1.10093
36 1.21112 0 0 0.00523107 0.0163881 0.966234
37 3.5992 1.06012 0.0708886 -1.52539 0.466982 0.153987
38 1.66069 0 0 -0.0136917 0.00536073 0.12483
39 1.16699 0 0 0.00017947 -0.0350141 0.627527
40 2.18853 -0.50104 0.0576594 -1.57665 0.0817365 -0.0988868
41 1.29609 0 0 -0.00682717 -0.0463338 0.335111
42 1.62202 -0.000712395 -0.000469208 -0.0196994 -0.030138 1.01219
43 1.22241 0 0 -0.0163005 0.00301314 1.15641
44 1.76707 -1.27612 0.0366409 -1.57637 0.00990142 -0.045213
45 1.55587 0 0 0.165179 -0.0187019 0.410253
46 1.24273 0 0 0.000478922 0.000360576 0.293189
47 0.784533 0 0 -0.00863343 0.0138317 0.725128
48 0 0 0 0 0 0
49 -5.97509 -19.6433 -9.87005 -0.00594673 0.000885391 -0.00330863
50 0 0.175507 4.39833 0 0 0
51 -0.243587 0.175507 5.00562 0 0 0
52 -8.98651 -15.2233 -5.2717 0 0 0
53 3.01696 -3.89619 -0.307355 -0.00594673 0.000885391 -0.00330863
54 0 -0.0303898 1.64671 0 0 0
55 0 -2.3184 2.62787 0 0 0
56 0 -2.34127 -0.129979 0 0 0
57 0 10.015 0.00570393 0 0 0
58 0 0.899642 -0.657644 0 0 0
59 0 -6.47112 1.19749 0 0.0517364 0
60 0 -0.221874 -1.53505 -0.0366251 0 0
61 0 0.174822 -0.766596 0.0189265 -0.00166794 0.00142527
62 0 0 -0.605335 0 0 0
63 0 -0.0467052 -0.715624 0 0 0
64 0 -0.0772591 -1.03217 0 0 0
65 0 0.00226593 -1.16841 0 0 0
time 20
0 0.279744 0.964779 -10.5402 0.000934124 0 -1.04975
1 6.02794 0 0 -1.29076 0.463332 -0.762649
2 11.7344 0 0 -0.00140284 0 -0.894085
3 8.81138 -0.000450134 -0.000112534 -0.353227 0 0.000157609
4 5.77839 0.000286102 0 -0.236662 0 0.000104096
5 2.23163 -0.000328064 -0.000365019 -0.116565 0 0
6 11.4725 0 0 -0.320722 -0.207062 -0.160614
7 0.615219 -0.993092 -0.8107 -3.03664 0.382047 -0.304473
8 2.24752 0 0 0.10312 0.00887013 0.0121146
9 1.11936 0 0 0.121355 0.237802 0.146889
10 3.71348 -0.10264 0.102191 1.57915 1.20938 0.0785637
11 1.72615 0 0 0.0195877 -0.0108151 -1.07669
12 1.21114 0 0 -0.0162592 0.00461493 -1.87649
13 3.59919 -1.06012 0.0708876 1.77143 1.02648 0.243927
14 1.66069 0 0 -0.0323896 0.0529044 -0.80957
15 1.167 0 0 -0.00928687 -0.010829 -1.98066
16 2.18852 0.50104 0.0576591 1.55583 0.110324 0.0402213
17 1.2961 0 0 -0.10981 0.104265 -0.980904
18 1.62202 0.000715256 -0.000469208 0.0249873 -0.0180759 -1.3829
19 1.22241 0 0 0.00912824 -0.000704303 -1.70664
20 1.76707 1.27612 0.0366411 1.54714 0.313947 -0.0233512
21 1.55588 0 0 -0.240313 -0.0114098 -1.10728
22 1.24273 0 0 -0.000479242 0.000360478 -1.02071
23 0.784523 0 0 0.00888763 0.00536394 -1.65773
24 -2.78532 5.54605 -7.74054 -0.000932693 0 -2.00317
25 6.02794 0 0 0.637193 0.549207 -0.255838
26 11.7344 0 0 0.00140266 0 1.6795
27 8.81167 0 0 0.264657 0 0
28 5.77884 0 0 0.17732 0 0
29 2.23249 0 0 0.0873369 0 0
30 11.4725 0 0 0.65684 -0.140702 -1.04141
31 0.61581 0.994372 -0.809166 3.11127 0.484951 0.165541
32 2.24752 0 0 -0.087574 0.0269837 0.145449
33 1.11936 0 0 0.0458239 0.121351 0.787247
34 3.71348 0.102639 0.102191 -1.55999 0.560763 -0.0798626
35 1.72615 0 0 -0.0183461 -0.00833414 1.10093
36 1.21112 0 0 0.00523107 0.0163881 0.966234
37 3.5992 1.06012 0.0708879 -1.52539 0.466982 0.153987
38 1.66069 0 0 -0.0136917 0.00536073 0.12483
39 1.16699 0 0 0.000179472 -0.0350142 0.627527
40 2.18853 -0.501041 0.0576584 -1.57665 0.0817364 -0.0988868
41 1.29609 0 0 -0.00682716 -0.0463338 0.335111
42 1.62202 -0.000714302 -0.000470161 -0.0196994 -0.030138 1.01219
43 1.22241 0 0 -0.0163005 0.00301313 1.15641
44 1.76707 -1.27612 0.0366403 -1.57637 0.00990118 -0.0452131
45 1.55587 0 0 0.165179 -0.0187019 0.410254
46 1.24273 0 0 0.000478921 0.000360569 0.293189
47 0.784531 0 0 -0.00863345 0.0138317 0.725128
48 0 0 0 0 0 0
49 -5.96683 -19.6207 -9.87119 -0.00228392 0.000440335 -0.00229224
50 0 0.175507 4.39833 0 0 0
51 -0.243588 0.175507 5.00562 0 0 0
52 -8.98651 -15.2233 -5.2717 0 0 0
53 3.02273 -3.88935 -0.306608 -0.00228392 0.000440335 -0.00229224
54 0 -0.0303917 1.6467 0 0 0
55 0 -2.3184 2.62787 0 0 0
56 0 -2.34127 -0.12998 0 0 0
57 0 10.015 0.00570393 0 0 0
58 0 0.899643 -0.657644 0 0 0
59 0 -6.47112 1.19749 0 0.050846 0
60 0 -0.221874 -1.53505 -0.048336 0 0
61 0 0.174824 -0.766595 0.014518 -0.00159627 0.00136402
62 0 0 -0.605335 0 0 0
63 0 -0.0467033 -0.715623 0 0 0
64 0 -0.0772591 -1.03217 0 0 0
65 0 0.00226784 -1.16841 0 0 0
time 21
0 0.279744 0.964779 -10.5402 0.000934124 0 -1.04975
1 6.02794 0 0 -1.29161 0.465741 -0.760878
2 11.7344 0 0 -0.00140294 0 -0.898438
3 8.81138 -0.000452042 -0.000112534 -0.348093 0 0.00015782
4 5.77839 0.000286102 0 -0.233222 0 0.000104231
5 2.23163 -0.000329971 -0.000363588 -0.114871 0 0
6 11.4725 0 0 -0.316341 -0.203755 -0.15967
7 0.615221 -0.993092 -0.810699 -3.03664 0.382047 -0.304472
8 2.24752 0 0 0.10312 0.00887021 0.0121146
9 1.11936 0 0 0.121355 0.237802 0.146889
10 3.71348 -0.102642 0.102191 1.57915 1.20938 0.0785636
11 1.72615 0 0 0.0195876 -0.0108152 -1.07669
12 1.21114 0 0 -0.0162592 0.00461493 -1.87649
13 3.59919 -1.06012 0.070889 1.77143 1.02648 0.243927
14 1.66069 0 0 -0.0323897 0.0529044 -0.80957
15 1.167 0 0 -0.00928689 -0.010829 -1.98066
16 2.18852 0.501041 0.0576591 1.55583 0.110324 0.0402213
17 1.29609 0 0 -0.10981 0.104265 -0.980904
18 1.62202 0.000715256 -0.000471115 0.0249874 -0.0180759 -1.3829
19 1.22241 0 0 0.00912826 -0.000704322 -1.70664
20 1.76707 1.27612 0.0366416 1.54714 0.313947 -0.0233513
21 1.55587 0 0 -0.240314 -0.0114097 -1.10728
22 1.24273 0 0 -0.00047916 0.000360515 -1.02071
23 0.784523 0 0 0.00888769 0.00536394 -1.65773
24 -2.78532 5.54605 -7.74054 -0.000932693 0 -2.00317
25 6.02794 0 0 0.637679 0.549102 -0.256119
26 11.7344 0 0 0.00140269 0 1.68134
27 8.81167 0 0 0.264634 0 0
28 5.77884 0 0 0.177305 0 0
29 2.23249 0 0 0.0873293 0 0
30 11.4725 0 0 0.656186 -0.137795 -1.04396
31 0.615814 0.994372 -0.809165 3.11127 0.484951 0.165541
32 2.24751 0 0 -0.087574 0.0269838 0.145449
33 1.11935 0 0 0.0458239 0.121351 0.787248
34 3.71349 0.10264 0.102191 -1.55999 0.560763 -0.0798626
35 1.72615 0 0 -0.0183461 -0.00833415 1.10093
36 1.21112 0 0 0.00523108 0.0163881 0.966234
37 3.5992 1.06012 0.0708883 -1.52539 0.466982 0.153987
38 1.66069 0 0 -0.0136917 0.00536074 0.12483
39 1.16699 0 0 0.000179472 -0.0350142 0.627528
40 2.18853 -0.50104 0.0576592 -1.57665 0.0817364 -0.0988868
41 1.29609 0 0 -0.00682719 -0.0463338 0.335111
42 1.62201 -0.000713348 -0.000469208 -0.0196994 -0.030138 1.01219
43 1.22241 0 0 -0.0163005 0.00301315 1.15641
44 1.76707 -1.27612 0.0366402 -1.57637 0.00990141 -0.045213
45 1.55588 0 0 0.165179 -0.0187019 0.410253
46 1.24273 0 0 0.000478916 0.000360577 0.293189
47 0.784532 0 0 -0.00863341 0.0138317 0.725128
48 0 0 0 0 0 0
49 -5.95956 -19.5988 -9.86587 0 0.000170061 -0.00121039
50 0 0.175507 4.39833 0 0 0
51 -0.243588 0.175507 5.00562 0 0 0
52 -8.98651 -15.2233 -5.2717 0 0 0
53 3.02828 -3.87725 -0.300138 0 0.000170061 -0.00121039
54 0 -0.0303917 1.64671 0 0 0
55 0 -2.3184 2.62787 0 0 0
56 0 -2.34127 -0.129979 0 0 0
57 0 10.015 0.00570393 0 0 0
58 0 0.899644 -0.657643 0 0 0
59 0 -6.47112 1.19749 0 0.0469046 0
60 0 -0.221874 -1.53505 -0.0485854 0 0
61 0 0.174824 -0.766596 0.0108936 -0.00140733 0.00120257
62 0 0 -0.605335 0 0 0
63 0 -0.0467033 -0.715623 0 0 0
64 0 -0.0772591 -1.03217 0 0 0
65 0 0.00226402 -1.16841 0 0 0
time 22
0 0.279744 0.964779 -10.5402 0.000934124 0 -1.04975
1 6.02794 0 0 -1.29263 0.46977 -0.758264
2 11.7344 0 0 -0.00140294 0 -0.90874
3 8.81138 -0.000450134 -0.000112534 -0.342037 0 0.000157503
4 5.77839 0.000286102 0 -0.229165 0 0.000103936
5 2.23163 -0.000328064 -0.00036478 -0.112872 0 0
6 11.4725 0 0 -0.312688 -0.19819 -0.149679
7 0.615217 -0.99309 -0.810699 -3.03664 0.382047 -0.304473
8 2.24752 0 0 0.103119 0.00887025 0.0121145
9 1.11936 0 0 0.121355 0.237802 0.146889
10 3.71348 -0.10264 0.102191 1.57915 1.20938 0.0785635
11 1.72615 0 0 0.0195877 -0.0108151 -1.07669
12 1.21114 0 0 -0.0162592 0.00461492 -1.87649
13 3.59919 -1.06012 0.0708876 1.77143 1.02648 0.243926
14 1.66069 0 0 -0.0323897 0.0529044 -0.80957
15 1.167 0 0 -0.00928685 -0.010829 -1.98066
16 2.18852 0.501041 0.0576601 1.55583 0.110324 0.0402214
17 1.29609 0 0 -0.10981 0.104265 -0.980904
18 1.62202 0.000713348 -0.000471115 0.0249873 -0.0180759 -1.3829
19 1.22241 0 0 0.00912825 -0.00070429 -1.70664
20 1.76707 1.27612 0.0366411 1.54714 0.313947 -0.0233512
21 1.55588 0 0 -0.240314 -0.0114098 -1.10728
22 1.24274 0 0 -0.00047926 0.000360571 -1.02071
23 0.784523 0 0 0.00888771 0.00536392 -1.65773
24 -2.78532 5.54605 -7.74054 -0.000932693 0 -2.00317
25 6.02794 0 0 0.63804 0.549084 -0.256482
26 11.7344 0 0 0.00140278 0 1.68326
27 8.81167 0 0 0.264467 0 0
28 5.77884 0 0 0.177193 0 0
29 2.23249 0 0 0.087274 0 0
30 11.4725 0 0 0.655751 -0.136163 -1.04555
31 0.615812 0.994373 -0.809165 3.11127 0.484951 0.165541
32 2.24752 0 0 -0.087574 0.0269837 0.145449
33 1.11936 0 0 0.0458239 0.121351 0.787248
34 3.71349 0.10264 0.102191 -1.55999 0.560763 -0.0798625
35 1.72615 0 0 -0.0183461 -0.00833413 1.10093
36 1.21112 0 0 0.00523106 0.016388 0.966234
37 3.5992 1.06012 0.0708887 -1.52539 0.466982 0.153987
38 1.66069 0 0 -0.0136917 0.00536074 0.12483
39 1.16699 0 0 0.00017949 -0.0350142 0.627528
40 2.18853 -0.50104 0.0576589 -1.57665 0.0817364 -0.0988868
41 1.29609 0 0 -0.0068272 -0.0463338 0.335111
42 1.62202 -0.000713348 -0.000469685 -0.0196994 -0.030138 1.01219
43 1.22241 0 0 -0.0163005 0.00301314 1.15641
44 1.76707 -1.27612 0.0366406 -1.57637 0.0099012 -0.0452131
45 1.55588 0 0 0.165179 -0.0187019 0.410253
46 1.24273 0 0 0.000478922 0.000360576 0.293189
47 0.784531 0 0 -0.00863344 0.0138317 0.725128
48 0 0 0 0 0 0
49 -5.95334 -19.58 -9.85578 0.00075419 0 -0.000350501
50 0 0.175507 4.39833 0 0 0
51 -0.243587 0.175505 5.00562 0 0 0
52 -8.98651 -15.2233 -5.2717 0 0 0
53 3.0335 -3.86166 -0.289676 0.00075419 0 -0.000350501
54 0 -0.0303917 1.64671 0 0 0
55 0 -2.3184 2.62787 0 0 0
56 0 -2.34127 -0.129979 0 0 0
57 0 10.015 0.00570393 0 0 0
58 0 0.899644 -0.657643 0 0 0
59 0 -6.47111 1.19749 0 0.0406991 0
60 0 -0.221876 -1.53505 -0.0434164 0 0
61 0 0.174824 -0.766595 0.00795303 -0.00114019 0.000974304
62 0 0 -0.605335 0 0 0
63 0 -0.0467052 -0.715623 0 0 0
64 0 -0.0772572 -1.03217 0 0 0
65 0 0.00226402 -1.1684 0 0 0
time 23
0 0.279744 0.964779 -10.5402 0.000934124 0 -1.04975
1 6.02794 0 0 -1.29362 0.474944 -0.755178
2 11.7344 0 0 -0.00140275 0 -0.922984
3 8.81138 -0.000450134 -0.000111818 -0.335774 0 0.00015831
4 5.77839 0.000286102 0 -0.224968 0 0.000104664
5 2.23163 -0.000328064 -0.000363588 -0.110805 0 0
6 11.4725 0 0 -0.30991 -0.191104 -0.133181
7 0.615221 -0.993093 -0.8107 -3.03664 0.382047 -0.304472
8 2.24752 0 0 0.10312 0.00887009 0.0121146
9 1.11936 0 0 0.121355 0.237802 0.146889
10 3.71348 -0.102642 0.10219 1.57915 1.20939 0.0785635
11 1.72615 0 0 0.0195877 -0.0108152 -1.07669
12 1.21114 0 0 -0.0162591 0.00461491 -1.87649
13 3.59919 -1.06012 0.0708871 1.77143 1.02648 0.243927
14 1.66069 0 0 -0.0323896 0.0529044 -0.80957
15 1.167 0 0 -0.00928691 -0.0108289 -1.98066
16 2.18852 0.50104 0.0576582 1.55583 0.110324 0.0402214
17 1.29609 0 0 -0.10981 0.104265 -0.980904
18 1.62202 0.000715256 -0.000469208 0.0249873 -0.018076 -1.3829
19 1.22241 0 0 0.0091282 -0.000704285 -1.70664
20 1.76707 1.27612 0.0366411 1.54714 0.313947 -0.0233512
21 1.55588 0 0 -0.240314 -0.0114098 -1.10728
22 1.24274 0 0 -0.000479229 0.000360485 -1.02071
23 0.784523 0 0 0.00888768 0.00536397 -1.65773
24 -2.78532 5.54605 -7.74054 -0.000932693 0 -2.00317
25 6.02794 0 0 0.638373 0.549067 -0.256813
26 11.7344 0 0 0.00140268 0 1.68528
27 8.81167 0 0 0.263707 0 0
28 5.77884 0 0 0.176684 0 0
29 2.23249 0 0 0.0870235 0 0
30 11.4725 0 0 0.655408 -0.135318 -1.04723
31 0.615812 0.994373 -0.809166 3.11127 0.484951 0.165541
32 2.24752 0 0 -0.0875739 0.0269839 0.145449
33 1.11936 0 0 0.0458239 0.121351 0.787248
34 3.71348 0.10264 0.102191 -1.55999 0.560763 -0.0798625
35 1.72615 0 0 -0.0183461 -0.00833415 1.10093
36 1.21112 0 0 0.00523107 0.0163881 0.966234
37 3.5992 1.06012 0.0708881 -1.52539 0.466982 0.153987
38 1.66069 0 0 -0.0136917 0.00536073 0.12483
39 1.16699 0 0 0.000179461 -0.0350141 0.627527
40 2.18853 -0.50104 0.0576587 -1.57665 0.0817364 -0.0988868
41 1.29609 0 0 -0.00682719 -0.0463338 0.335111
42 1.62202 -0.000714302 -0.000469208 -0.0196994 -0.030138 1.01219
43 1.22241 0 0 -0.0163005 0.00301313 1.15641
44 1.76707 -1.27612 0.0366401 -1.57637 0.00990126 -0.045213
45 1.55588 0 0 0.165179 -0.0187019 0.410253
46 1.24273 0 0 0.000478911 0.000360563 0.293189
47 0.784533 0 0 -0.00863343 0.0138316 0.725128
48 0 0 0 0 0 0
49 -5.94823 -19.5618 -9.84316 0.000965363 0 0
50 0 0.175507 4.39832 0 0 0
51 -0.243587 0.175507 5.00562 0 0 0
52 -8.98651 -15.2233 -5.2717 0 0 0
53 3.03828 -3.84435 -0.276951 0.000965363 0 0
54 0 -0.0303917 1.6467 0 0 0
55 0 -2.3184 2.62787 0 0 0
56 0 -2.34128 -0.12998 0 0 0
57 0 10.015 0.00570345 0 0 0
58 0 0.899642 -0.657643 0 0 0
59 0 -6.47112 1.19749 0 0.0330168 0
60 0 -0.221874 -1.53505 -0.034649 0 0
61 0 0.174824 -0.766596 0.00559609 -0.000833978 0.000712633
62 0 0 -0.605335 0 0 0
63 0 -0.0467033 -0.715623 0 0 0
64 0 -0.0772591 -1.03217 0 0 0
65 0 0.00226784 -1.16841 0 0 0
time 24
0 0.279744 0.964779 -10.5402 0.000934124 0 -1.04975
1 6.02794 0 0 -1.29462 0.48043 -0.751966
2 11.7344 0 0 -0.0014029 0 -0.938752
3 8.81138 -0.000448227 -0.000111818 -0.329518 0 0.000156894
4 5.77839 0.000286102 0 -0.220777 0 0.000103724
5 2.23163 -0.000329971 -0.000363827 -0.108741 0 0
6 11.4725 0 0 -0.307555 -0.183294 -0.113531
7 0.61522 -0.993092 -0.810699 -3.03664 0.382047 -0.304472
8 2.24752 0 0 0.10312 0.00887014 0.0121146
9 1.11936 0 0 0.121355 0.237802 0.146889
10 3.71348 -0.102642 0.102191 1.57915 1.20938 0.0785635
11 1.72615 0 0 0.0195877 -0.0108151 -1.07669
12 1.21114 0 0 -0.0162592 0.004615 -1.87649
13 3.59919 -1.06012 0.0708885 1.77143 1.02648 0.243927
14 1.66069 0 0 -0.0323896 0.0529044 -0.80957
15 1.167 0 0 -0.00928691 -0.010829 -1.98066
16 2.18853 0.50104 0.0576587 1.55583 0.110324 0.0402213
17 1.29609 0 0 -0.10981 0.104265 -0.980904
18 1.62202 0.000713348 -0.000469208 0.0249873 -0.0180759 -1.3829
19 1.22241 0 0 0.0091282 -0.000704286 -1.70664
20 1.76707 1.27612 0.0366406 1.54714 0.313947 -0.0233513
21 1.55588 0 0 -0.240314 -0.0114097 -1.10728
22 1.24274 0 0 -0.000479316 0.000360488 -1.02071
23 0.784523 0 0 0.00888766 0.005364 -1.65773
24 -2.78532 5.54605 -7.74054 -0.000932693 0 -2.00317
25 6.02794 0 0 0.638659 0.549052 -0.257096
26 11.7344 0 0 0.0014027 0 1.68723
27 8.81167 0 0 0.262636 0 0
28 5.77884 0 0 0.175966 0 0
29 2.23249 0 0 0.0866697 0 0
30 11.4725 0 0 0.65518 -0.135036 -1.04885
31 0.615812 0.994372 -0.809166 3.11127 0.484951 0.165541
32 2.24752 0 0 -0.087574 0.0269838 0.145449
33 1.11936 0 0 0.0458239 0.121351 0.787248
34 3.71348 0.102639 0.102191 -1.55999 0.560763 -0.0798627
35 1.72615 0 0 -0.0183461 -0.00833417 1.10093
36 1.21112 0 0 0.0052311 0.0163881 0.966234
37 3.5992 1.06012 0.0708877 -1.52539 0.466982 0.153987
38 1.66069 0 0 -0.0136917 0.00536074 0.12483
39 1.16699 0 0 0.000179479 -0.0350142 0.627527
40 2.18853 -0.501041 0.0576589 -1.57665 0.0817363 -0.0988868
41 1.29609 0 0 -0.00682718 -0.0463338 0.335111
42 1.62202 -0.000713348 -0.000469685 -0.0196994 -0.030138 1.01219
43 1.22241 0 0 -0.0163005 0.00301314 1.15641
44 1.76707 -1.27612 0.0366402 -1.57637 0.00990128 -0.0452131
45 1.55587 0 0 0.165179 -0.0187019 0.410253
46 1.24273 0 0 0.000478911 0.000360563 0.293189
47 0.784534 0 0 -0.00863342 0.0138317 0.725128
48 0 0 0 0 0 0
49 -5.94398 -19.5452 -9.82983 0.000814525 0 0
50 0 0.175508 4.39833 0 0 0
51 -0.243587 0.175507 5.00562 0 0 0
52 -8.98651 -15.2233 -5.2717 0 0 0
53 3.04253 -3.82711 -0.263695 0.000814525 0 0
54 0 -0.0303917 1.6467 0 0 0
55 0 -2.3184 2.62787 0 0 0
56 0 -2.34127 -0.129979 0 0 0
57 0 10.015 0.00570345 0 0 0
58 0 0.899643 -0.657644 0 0 0
59 0 -6.47112 1.19749 0 0.0246447 0
60 0 -0.221874 -1.53505 -0.0241035 0 0
61 0 0.174824 -0.766596 0.00372255 -0.000527746 0.000450963
62 0 0 -0.605335 0 0 0
63 0 -0.0467052 -0.715623 0 0 0
64 0 -0.0772572 -1.03217 0 0 0
65 0 0.00226593 -1.16841 0 0 0
time 25
0 0.279744 0.964779 -10.5402 0.000934124 0 -1.04975
1 6.02794 0 0 -1.29563 0.485714 -0.74885
2 11.7344 0 0 -0.00140285 0 -0.954237
3 8.81139 -0.000450134 -0.000112295 -0.323393 0 0.000157717
4 5.77839 0.000286102 0 -0.216673 0 0.00010426
5 2.23164 -0.000329971 -0.000364304 -0.10672 0 0
6 11.4725 0 0 -0.305161 -0.17566 -0.0937824
7 0.61522 -0.993092 -0.810699 -3.03664 0.382047 -0.304472
8 2.24752 0 0 0.10312 0.00886995 0.0121144
9 1.11936 0 0 0.121355 0.237802 0.146889
10 3.71348 -0.102642 0.10219 1.57915 1.20938 0.0785635
11 1.72615 0 0 0.0195877 -0.0108152 -1.07669
12 1.21113 0 0 -0.0162592 0.00461486 -1.87649
13 3.5992 -1.06012 0.0708885 1.77143 1.02648 0.243927
14 1.66069 0 0 -0.0323897 0.0529044 -0.80957
15 1.167 0 0 -0.00928687 -0.010829 -1.98066
16 2.18853 0.50104 0.0576596 1.55583 0.110324 0.0402213
17 1.29609 0 0 -0.10981 0.104265 -0.980904
18 1.62202 0.000715256 -0.000471115 0.0249873 -0.0180759 -1.3829
19 1.22241 0 0 0.00912822 -0.000704257 -1.70664
20 1.76707 1.27612 0.0366411 1.54714 0.313947 -0.0233512
21 1.55588 0 0 -0.240314 -0.0114097 -1.10728
22 1.24274 0 0 -0.000479208 0.00036054 -1.02071
23 0.784521 0 0 0.00888769 0.00536392 -1.65773
24 -2.78532 5.54605 -7.74054 -0.000932693 0 -2.00317
25 6.02794 0 0 0.638897 0.549049 -0.257354
26 11.7344 0 0 0.00140266 0 1.68893
27 8.81167 0 0 0.261733 0 0
28 5.77884 0 0 0.175361 0 0
29 2.23249 0 0 0.0863719 0 0
30 11.4725 0 0 0.655022 -0.134927 -1.05011
31 0.615812 0.994372 -0.809165 3.11127 0.484951 0.165541
32 2.24752 0 0 -0.0875741 0.0269838 0.145449
33 1.11936 0 0 0.0458239 0.121351 0.787248
34 3.71349 0.10264 0.102191 -1.55999 0.560763 -0.0798624
35 1.72615 0 0 -0.0183461 -0.00833414 1.10093
36 1.21112 0 0 0.00523107 0.0163881 0.966234
37 3.5992 1.06012 0.0708879 -1.52539 0.466982 0.153987
38 1.66069 0 0 -0.0136917 0.00536073 0.12483
39 1.16699 0 0 0.000179468 -0.0350142 0.627528
40 2.18853 -0.501041 0.0576584 -1.57665 0.0817364 -0.0988868
41 1.29609 0 0 -0.00682716 -0.0463338 0.335111
42 1.62202 -0.000714302 -0.000469685 -0.0196994 -0.030138 1.01219
43 1.22241 0 0 -0.0163005 0.00301314 1.15641
44 1.76707 -1.27612 0.0366405 -1.57637 0.00990134 -0.045213
45 1.55588 0 0 0.165179 -0.0187019 0.410253
46 1.24273 0 0 0.000478924 0.000360568 0.293189
47 0.784532 0 0 -0.00863341 0.0138317 0.725128
48 0 0 0 0 0 0
49 -5.94039 -19.5312 -9.81761 0.000482682 0 0
50 0 0.175507 4.39833 0 0 0
51 -0.243587 0.175505 5.00562 0 0 0
52 -8.98651 -15.2233 -5.2717 0 0 0
53 3.04612 -3.8117 -0.251639 0.000482682 0 0
54 0 -0.0303917 1.64671 0 0 0
55 0 -2.3184 2.62787 0 0 0
56 0 -2.34127 -0.129979 0 0 0
57 0 10.015 0.0057044 0 0 0
58 0 0.899643 -0.657643 0 0 0
59 0 -6.47112 1.19749 0 0.0163698 0
60 0 -0.221874 -1.53505 -0.0136001 0 0
61 0 0.174826 -0.766596 0.00223217 -0.000260618 0.000222698
62 0 0 -0.605335 0 0 0
63 0 -0.0467033 -0.715623 0 0 0
64 0 -0.0772591 -1.03217 0 0 0
65 0 0.00226593 -1.16841 0 0 0
time 26
0 0.279744 0.964779 -10.5402 0.000934124 0 -1.04975
1 6.02794 0 0 -1.29668 0.48969 -0.746284
2 11.7344 0 0 -0.0014029 0 -0.966331
3 8.81138 -0.000450134 -0.000111103 -0.317805 0 0.000158045
4 5.77839 0.000284195 0 -0.212929 0 0.000104501
5 2.23163 -0.000329971 -0.00036335 -0.104876 0 0
6 11.4725 0 0 -0.302562 -0.16888 -0.0777244
7 0.61522 -0.99309 -0.810699 -3.03664 0.382047 -0.304472
8 2.24752 0 0 0.10312 0.00886999 0.0121145
9 1.11936 0 0 0.121355 0.237802 0.146889
10 3.71348 -0.102638 0.102191 1.57915 1.20938 0.0785638
11 1.72615 0 0 0.0195877 -0.0108152 -1.07669
12 1.21114 0 0 -0.0162592 0.00461491 -1.87649
13 3.59919 -1.06012 0.0708885 1.77143 1.02648 0.243927
14 1.66069 0 0 -0.0323897 0.0529044 -0.80957
15 1.167 0 0 -0.00928688 -0.010829 -1.98066
16 2.18852 0.501041 0.0576591 1.55583 0.110324 0.0402213
17 1.29609 0 0 -0.10981 0.104265 -0.980904
18 1.62202 0.000715256 -0.000471115 0.0249873 -0.0180759 -1.3829
19 1.22241 0 0 0.00912825 -0.000704207 -1.70664
20 1.76707 1.27612 0.0366416 1.54714 0.313947 -0.0233512
21 1.55587 0 0 -0.240314 -0.0114098 -1.10728
22 1.24274 0 0 -0.000479236 0.000360498 -1.02071
23 0.784525 0 0 0.00888768 0.00536397 -1.65773
24 -2.78532 5.54605 -7.74054 -0.000932693 0 -2.00317
25 6.02794 0 0 0.639057 0.549056 -0.257551
26 11.7344 0 0 0.00140275 0 1.69021
27 8.81167 0 0 0.261059 0 0
28 5.77884 0 0 0.17491 0 0
29 2.23249 0 0 0.0861495 0 0
30 11.4725 0 0 0.654929 -0.134915 -1.051
31 0.61581 0.994372 -0.809165 3.11127 0.484951 0.165541
32 2.24752 0 0 -0.087574 0.0269838 0.145449
33 1.11935 0 0 0.045824 0.121351 0.787248
34 3.71349 0.10264 0.102191 -1.55999 0.560763 -0.0798625
35 1.72615 0 0 -0.0183461 -0.00833414 1.10093
36 1.21112 0 0 0.00523106 0.016388 0.966234
37 3.5992 1.06012 0.0708885 -1.52539 0.466982 0.153987
38 1.66069 0 0 -0.0136917 0.00536075 0.12483
39 1.16699 0 0 0.000179475 -0.0350142 0.627528
40 2.18853 -0.50104 0.0576589 -1.57665 0.0817363 -0.0988868
41 1.29609 0 0 -0.0068272 -0.0463338 0.335111
42 1.62202 -0.000714302 -0.000470638 -0.0196994 -0.030138 1.01219
43 1.22241 0 0 -0.0163005 0.00301313 1.15641
44 1.76707 -1.27612 0.0366408 -1.57637 0.00990113 -0.045213
45 1.55588 0 0 0.165179 -0.0187019 0.410253
46 1.24273 0 0 0.000478917 0.000360577 0.293189
47 0.784532 0 0 -0.00863345 0.0138316 0.725128
48 0 0 0 0 0 0
49 -5.93754 -19.5208 -9.80832 0.000150838 0 0
50 0 0.175507 4.39833 0 0 0
51 -0.243587 0.175507 5.00562 0 0 0
52 -8.98651 -15.2233 -5.2717 0 0 0
53 3.04897 -3.79991 -0.242514 0.000150838 0 0
54 0 -0.0303917 1.6467 0 0 0
55 0 -2.3184 2.62787 0 0 0
56 0 -2.34127 -0.12998 0 0 0
57 0 10.015 0.00570393 0 0 0
58 0 0.899643 -0.657643 0 0 0
59 0 -6.47112 1.19749 0 0.00897939 0
60 0 -0.221876 -1.53505 -0.00495887 0 0
61 0 0.174824 -0.766596 0.00102473 0 0
62 0 0 -0.605336 0 0 0
63 0 -0.0467033 -0.715623 0 0 0
64 0 -0.0772591 -1.03217 0 0 0
65 0 0.00226402 -1.16841 0 0 0
time 27
0 0.279744 0.964779 -10.5402 0.000934124 0 -1.04975
1 6.02794 0 0 -1.29769 0.492085 -0.744454
2 11.7344 0 0 -0.0014029 0 -0.973622
3 8.81138 -0.000450134 -0.000112534 -0.313057 0 0.000157776
4 5.77839 0.00028801 0 -0.209748 0 0.000104329
5 2.23163 -0.000328064 -0.000364065 -0.103309 0 0
6 11.4725 0 0 -0.299659 -0.163588 -0.0683154
7 0.615219 -0.993092 -0.8107 -3.03664 0.382047 -0.304472
8 2.24752 0 0 0.10312 0.00887006 0.0121146
9 1.11936 0 0 0.121355 0.237802 0.146889
10 3.71348 -0.102642 0.102191 1.57915 1.20939 0.078564
11 1.72615 0 0 0.0195878 -0.0108151 -1.07669
12 1.21114 0 0 -0.0162592 0.00461489 -1.87649
13 3.59919 -1.06012 0.070888 1.77143 1.02648 0.243927
14 1.66069 0 0 -0.0323897 0.0529044 -0.80957
15 1.167 0 0 -0.00928694 -0.0108289 -1.98066
16 2.18853 0.50104 0.0576591 1.55583 0.110324 0.0402215
17 1.29609 0 0 -0.10981 0.104265 -0.980904
18 1.62202 0.000713348 -0.000471115 0.0249873 -0.0180759 -1.3829
19 1.22241 0 0 0.00912832 -0.000704309 -1.70664
20 1.76707 1.27612 0.0366421 1.54714 0.313947 -0.0233511
21 1.55588 0 0 -0.240314 -0.0114097 -1.10728
22 1.24273 0 0 -0.000479206 0.000360566 -1.02071
23 0.784525 0 0 0.00888768 0.00536393 -1.65773
24 -2.78532 5.54605 -7.74054 -0.000932693 0 -2.00317
25 6.02794 0 0 0.639109 0.549073 -0.257651
26 11.7344 0 0 0.00140271 0 1.69091
27 8.81167 0 0 0.260674 0 0
28 5.77884 0 0 0.174651 0 0
29 2.23249 0 0 0.0860223 0 0
30 11.4725 0 0 0.654896 -0.134923 -1.05151
31 0.615814 0.994372 -0.809166 3.11127 0.484951 0.165541
32 2.24752 0 0 -0.0875738 0.0269838 0.145449
33 1.11936 0 0 0.0458239 0.121351 0.787248
34 3.71349 0.102639 0.10219 -1.55999 0.560763 -0.0798627
35 1.72615 0 0 -0.0183461 -0.00833415 1.10093
36 1.21112 0 0 0.00523106 0.0163881 0.966234
37 3.5992 1.06012 0.0708877 -1.52539 0.466982 0.153986
38 1.66069 0 0 -0.0136917 0.00536073 0.12483
39 1.16699 0 0 0.000179444 -0.0350142 0.627527
40 2.18853 -0.501041 0.057659 -1.57665 0.0817363 -0.0988869
41 1.29609 0 0 -0.00682718 -0.0463338 0.335111
42 1.62202 -0.000713348 -0.000469208 -0.0196994 -0.030138 1.01219
43 1.22241 0 0 -0.0163005 0.00301314 1.15641
44 1.76707 -1.27612 0.0366406 -1.57637 0.00990116 -0.0452131
45 1.55588 0 0 0.165179 -0.0187019 0.410253
46 1.24273 0 0 0.000478922 0.000360576 0.293189
47 0.784531 0 0 -0.00863344 0.0138317 0.725128
48 0 0 0 0 0 0
49 -5.93555 -19.5151 -9.80378 0 0 0
50 0 0.175507 4.39833 0 0 0
51 -0.243587 0.175507 5.00562 0 0 0
52 -8.98651 -15.2233 -5.2717 0 0 0
53 3.05095 -3.79351 -0.23805 0 0 0
54 0 -0.0303917 1.6467 0 0 0
55 0 -2.3184 2.62787 0 0 0
56 0 -2.34127 -0.129979 0 0 0
57 0 10.015 0.00570393 0 0 0
58 0 0.899643 -0.657643 0 0 0
59 0 -6.47112 1.19749 0 0.00326041 0
60 0 -0.221874 -1.53505 0 0 0
61 0 0.174824 -0.766596 0 0 0
62 0 0 -0.605335 0 0 0
63 0 -0.0467033 -0.715623 0 0 0
64 0 -0.0772591 -1.03217 0 0 0
65 0 0.00226593 -1.16841 0 0 0
time 28
0 0.279744 0.964779 -10.5402 0.000934124 0 -1.04975
1 6.02794 0 0 -1.2984 0.492975 -0.743514
2 11.7344 0 0 -0.00140292 0 -0.976304
3 8.81138 -0.000450134 -0.000112295 -0.310044 0 0.000157869
4 5.77839 0.000286102 0 -0.20773 0 0.00010437
5 2.23163 -0.000329971 -0.000364065 -0.102315 0 0
6 11.4725 0 0 -0.297389 -0.160515 -0.0651844
7 0.615219 -0.99309 -0.8107 -3.03664 0.382047 -0.304473
8 2.24752 0 0 0.10312 0.00887003 0.0121146
9 1.11936 0 0 0.121355 0.237802 0.146889
10 3.71348 -0.10264 0.102191 1.57915 1.20938 0.0785636
11 1.72615 0 0 0.0195877 -0.0108151 -1.07669
12 1.21113 0 0 -0.0162592 0.00461495 -1.87649
13 3.59919 -1.06012 0.070888 1.77143 1.02648 0.243927
14 1.66069 0 0 -0.0323896 0.0529044 -0.80957
15 1.167 0 0 -0.00928684 -0.010829 -1.98066
16 2.18852 0.501041 0.0576582 1.55583 0.110324 0.0402213
17 1.29609 0 0 -0.10981 0.104265 -0.980904
18 1.62202 0.000711441 -0.000473022 0.0249873 -0.0180759 -1.3829
19 1.22241 0 0 0.0091283 -0.000704242 -1.70664
20 1.76707 1.27612 0.0366402 1.54714 0.313947 -0.0233513
21 1.55588 0 0 -0.240314 -0.0114097 -1.10728
22 1.24274 0 0 -0.000479207 0.000360506 -1.02071
23 0.784521 0 0 0.00888767 0.00536392 -1.65773
24 -2.78532 5.54605 -7.74054 -0.000932693 0 -2.00317
25 6.02794 0 0 0.639102 0.549086 -0.257676
26 11.7344 0 0 0.00140268 0 1.69114
27 8.81167 0 0 0.260532 0 0
28 5.77884 0 0 0.174556 0 0
29 2.23249 0 0 0.0859755 0 0
30 11.4725 0 0 0.654893 -0.134918 -1.05172
31 0.615812 0.994373 -0.809165 3.11127 0.484951 0.165541
32 2.24752 0 0 -0.087574 0.0269838 0.145449
33 1.11936 0 0 0.045824 0.121351 0.787248
34 3.71349 0.102639 0.10219 -1.55999 0.560763 -0.0798627
35 1.72615 0 0 -0.0183461 -0.00833415 1.10093
36 1.21112 0 0 0.00523108 0.0163881 0.966234
37 3.5992 1.06012 0.0708882 -1.52539 0.466982 0.153987
38 1.66069 0 0 -0.0136917 0.00536074 0.12483
39 1.16699 0 0 0.000179454 -0.0350141 0.627527
40 2.18853 -0.501041 0.057659 -1.57665 0.0817362 -0.0988868
41 1.29609 0 0 -0.00682718 -0.0463338 0.335111
42 1.62202 -0.000714302 -0.000470161 -0.0196994 -0.030138 1.01219
43 1.22241 0 0 -0.0163005 0.00301314 1.15641
44 1.76707 -1.27612 0.0366406 -1.57637 0.00990121 -0.045213
45 1.55587 0 0 0.165179 -0.0187019 0.410253
46 1.24273 0 0 0.000478918 0.000360569 0.293189
47 0.784531 0 0 -0.00863343 0.0138317 0.725128
48 0 0 0 0 0 0
49 -5.93458 -19.5131 -9.80279 0 0 0
50 0 0.175507 4.39833 0 0 0
51 -0.243587 0.175507 5.00562 0 0 0
52 -8.98651 -15.2233 -5.2717 0 0 0
53 3.05193 -3.79152 -0.237053 0 0 0
54 0 -0.0303917 1.6467 0 0 0
55 0 -2.3184 2.62787 0 0 0
56 0 -2.34127 -0.129979 0 0 0
57 0 10.015 0.00570393 0 0 0
58 0 0.899643 -0.657643 0 0 0
59 0 -6.47112 1.19749 0 0 0
60 0 -0.221874 -1.53505 0.00141241 0 0
61 0 0.174824 -0.766596 -0.000543816 0 0
62 0 0 -0.605336 0 0 0
63 0 -0.0467033 -0.715623 0 0 0
64 0 -0.0772591 -1.03217 0 0 0
65 0 0.00226593 -1.1684 0 0 0
time 29
0 0.279744 0.964779 -10.5402 0.000934124 0 -1.04975
1 6.02794 0 0 -1.29866 0.493087 -0.743265
2 11.7344 0 0 -0.00140286 0 -0.97669
3 8.81139 -0.000450134 -0.00011158 -0.309051 0 0.000157793
4 5.77839 0.000286102 0 -0.207064 0 0.000104393
5 2.23164 -0.000329971 -0.000363827 -0.101987 0 0
6 11.4725 0 0 -0.296542 -0.159556 -0.0648533
7 0.615219 -0.993092 -0.8107 -3.03664 0.382047 -0.304472
8 2.24752 0 0 0.10312 0.00887019 0.0121146
9 1.11936 0 0 0.121355 0.237802 0.146889
10 3.71348 -0.102642 0.102191 1.57915 1.20938 0.0785638
11 1.72615 0 0 0.0195877 -0.0108151 -1.07669
12 1.21113 0 0 -0.0162592 0.00461495 -1.87649
13 3.59919 -1.06012 0.070888 1.77143 1.02648 0.243927
14 1.66069 0 0 -0.0323896 0.0529044 -0.80957
15 1.167 0 0 -0.00928693 -0.010829 -1.98066
16 2.18852 0.501041 0.0576587 1.55583 0.110324 0.0402214
17 1.29609 0 0 -0.10981 0.104265 -0.980904
18 1.62202 0.000711441 -0.000471115 0.0249873 -0.018076 -1.3829
19 1.22241 0 0 0.00912827 -0.000704276 -1.70664
20 1.76707 1.27612 0.0366406 1.54714 0.313947 -0.0233511
21 1.55588 0 0 -0.240314 -0.0114098 -1.10728
22 1.24274 0 0 -0.000479299 0.000360489 -1.02071
23 0.784523 0 0 0.00888765 0.00536391 -1.65773
24 -2.78532 5.54605 -7.74054 -0.000932693 0 -2.00317
25 6.02794 0 0 0.6391 0.549088 -0.25768
26 11.7344 0 0 0.00140278 0 1.69117
27 8.81167 0 0 0.260515 0 0
28 5.77884 0 0 0.174545 0 0
29 2.23249 0 0 0.0859699 0 0
30 11.4725 0 0 0.654893 -0.134917 -1.05174
31 0.615814 0.994373 -0.809165 3.11127 0.484951 0.165541
32 2.24752 0 0 -0.0875738 0.0269838 0.145449
33 1.11936 0 0 0.0458239 0.121351 0.787248
34 3.71349 0.102639 0.10219 -1.55999 0.560763 -0.0798626
35 1.72615 0 0 -0.0183461 -0.00833415 1.10093
36 1.21112 0 0 0.00523108 0.0163881 0.966234
37 3.5992 1.06012 0.0708882 -1.52539 0.466982 0.153987
38 1.66069 0 0 -0.0136917 0.00536073 0.12483
39 1.16699 0 0 0.00017946 -0.0350142 0.627527
40 2.18853 -0.50104 0.057659 -1.57665 0.0817363 -0.0988869
41 1.29609 0 0 -0.00682718 -0.0463338 0.335111
42 1.62202 -0.000713348 -0.000469685 -0.0196994 -0.030138 1.01219
43 1.22241 0 0 -0.0163005 0.00301314 1.15641
44 1.76707 -1.27612 0.0366405 -1.57637 0.00990117 -0.0452131
45 1.55588 0 0 0.165179 -0.0187018 0.410253
46 1.24273 0 0 0.000478901 0.000360564 0.293189
47 0.784532 0 0 -0.00863345 0.0138317 0.725128
48 0 0 0 0 0 0
49 -5.93445 -19.5128 -9.80266 0 0 0
50 0 0.175507 4.39833 0 0 0
51 -0.243587 0.175507 5.00562 0 0 0
52 -8.98651 -15.2233 -5.2717 0 0 0
53 3.05205 -3.79127 -0.236928 0 0 0
54 0 -0.0303917 1.6467 0 0 0
55 0 -2.3184 2.62787 0 0 0
56 0 -2.34127 -0.129979 0 0 0
57 0 10.015 0.00570393 0 0 0
58 0 0.899643 -0.657643 0 0 0
59 0 -6.47112 1.19749 0 -0.00099493 0
60 0 -0.221874 -1.53505 0.00125548 0 0
61 0 0.174824 -0.766596 -0.000483393 0 0
62 0 0 -0.605335 0 0 0
63 0 -0.0467014 -0.715623 0 0 0
64 0 -0.0772591 -1.03217 0 0 0
65 0 0.00226593 -1.1684 0 0 0
time 30
0 0.279744 0.964779 -10.5402 0.000934124 0 -1.04975
1 6.02794 0 0 -1.29868 0.492842 -0.74335
2 11.7344 0 0 -0.00140289 0 -0.97601
3 8.81138 -0.000450134 -0.000112057 -0.309063 0 0.000158106
4 5.77839 0.000286102 0 -0.207072 0 0.000104456
5 2.23163 -0.000329971 -0.000364065 -0.101991 0 0
6 11.4725 0 0 -0.296429 -0.159638 -0.0657719
7 0.615217 -0.993092 -0.8107 -3.03664 0.382047 -0.304472
8 2.24752 0 0 0.103119 0.00887014 0.0121145
9 1.11936 0 0 0.121355 0.237802 0.146889
10 3.71348 -0.102638 0.102191 1.57915 1.20938 0.0785638
11 1.72615 0 0 0.0195877 -0.0108151 -1.07669
12 1.21114 0 0 -0.0162592 0.00461495 -1.87649
13 3.59919 -1.06012 0.070888 1.77143 1.02648 0.243926
14 1.66069 0 0 -0.0323896 0.0529044 -0.80957
15 1.167 0 0 -0.00928688 -0.010829 -1.98066
16 2.18852 0.501041 0.0576591 1.55583 0.110324 0.0402214
17 1.29609 0 0 -0.10981 0.104265 -0.980904
18 1.62202 0.000715256 -0.000469208 0.0249873 -0.018076 -1.3829
19 1.22241 0 0 0.00912823 -0.000704272 -1.70664
20 1.76707 1.27612 0.0366406 1.54714 0.313947 -0.0233512
21 1.55588 0 0 -0.240313 -0.0114098 -1.10728
22 1.24273 0 0 -0.000479288 0.000360529 -1.02071
23 0.784523 0 0 0.00888771 0.0053639 -1.65773
24 -2.78532 5.54605 -7.74054 -0.000932693 0 -2.00317
25 6.02794 0 0 0.639103 0.549083 -0.25767
26 11.7344 0 0 0.00140268 0 1.69109
27 8.81167 0 0 0.260567 0 0
28 5.77884 0 0 0.17458 0 0
29 2.23249 0 0 0.0859872 0 0
30 11.4725 0 0 0.654893 -0.134919 -1.05167
31 0.615812 0.994373 -0.809166 3.11127 0.484951 0.16554
32 2.24752 0 0 -0.0875739 0.0269836 0.145449
33 1.11936 0 0 0.045824 0.121351 0.787248
34 3.71349 0.10264 0.102191 -1.55999 0.560763 -0.0798627
35 1.72615 0 0 -0.0183461 -0.00833415 1.10093
36 1.21112 0 0 0.00523105 0.0163881 0.966234
37 3.5992 1.06012 0.0708877 -1.52539 0.466982 0.153986
38 1.66069 0 0 -0.0136917 0.00536073 0.12483
39 1.16699 0 0 0.000179478 -0.0350141 0.627527
40 2.18853 -0.50104 0.057659 -1.57665 0.0817364 -0.0988869
41 1.29609 0 0 -0.00682717 -0.0463338 0.335111
42 1.62202 -0.000713348 -0.000469685 -0.0196994 -0.030138 1.01219
43 1.22241 0 0 -0.0163005 0.00301314 1.15641
44 1.76707 -1.27612 0.03664 -1.57637 0.00990115 -0.0452131
45 1.55588 0 0 0.165179 -0.0187019 0.410253
46 1.24273 0 0 0.000478899 0.00036058 0.293189
47 0.784534 0 0 -0.00863342 0.0138317 0.725128
48 0 0 0 0 0 0
49 -5.93482 -19.5136 -9.80304 0 0 0
50 0 0.175507 4.39833 0 0 0
51 -0.243587 0.175507 5.00562 0 0 0
52 -8.98651 -15.2233 -5.2717 0 0 0
53 3.05169 -3.79202 -0.237302 0 0 0
54 0 -0.0303917 1.6467 0 0 0
55 0 -2.3184 2.62787 0 0 0
56 0 -2.34127 -0.129979 0 0 0
57 0 10.015 0.00570393 0 0 0
58 0 0.899643 -0.657643 0 0 0
59 0 -6.47112 1.19749 0 -0.000884382 0
60 0 -0.221874 -1.53505 0.000470804 0 0
61 0 0.174824 -0.766596 -0.000181272 0 0
62 0 0 -0.605335 0 0 0
63 0 -0.0467014 -0.715623 0 0 0
64 0 -0.0772591 -1.03217 0 0 0
65 0 0.00226593 -1.16841 0 0 0
time 31
0 0.279744 0.964779 -10.5402 0.000934124 0 -1.04975
1 6.02794 0 0 -1.29858 0.492591 -0.74354
2 11.7344 0 0 -0.00140282 0 -0.97528
3 8.81138 -0.000450134 -0.000112057 -0.309552 0 0.000157914
4 5.77839 0.000284195 0 -0.2074 0 0.000104561
5 2.23163 -0.000329971 -0.000364065 -0.102152 0 0
6 11.4725 0 0 -0.296754 -0.160158 -0.0666142
7 0.615219 -0.99309 -0.8107 -3.03664 0.382047 -0.304472
8 2.24752 0 0 0.10312 0.00887019 0.0121146
9 1.11936 0 0 0.121355 0.237802 0.146889
10 3.71348 -0.10264 0.102191 1.57915 1.20938 0.0785635
11 1.72615 0 0 0.0195876 -0.0108152 -1.07669
12 1.21114 0 0 -0.0162592 0.00461497 -1.87649
13 3.59919 -1.06012 0.0708885 1.77143 1.02648 0.243926
14 1.66069 0 0 -0.0323897 0.0529044 -0.80957
15 1.167 0 0 -0.00928683 -0.010829 -1.98066
16 2.18853 0.501041 0.0576591 1.55583 0.110324 0.0402213
17 1.29609 0 0 -0.10981 0.104265 -0.980904
18 1.62202 0.000713348 -0.000471115 0.0249873 -0.0180759 -1.3829
19 1.22241 0 0 0.00912822 -0.000704283 -1.70664
20 1.76707 1.27612 0.0366406 1.54714 0.313947 -0.0233514
21 1.55588 0 0 -0.240314 -0.0114097 -1.10728
22 1.24274 0 0 -0.000479269 0.000360557 -1.02071
23 0.784525 0 0 0.00888768 0.00536389 -1.65773
24 -2.78532 5.54605 -7.74054 -0.000932693 0 -2.00317
25 6.02794 0 0 0.639107 0.549076 -0.257657
26 11.7344 0 0 0.00140274 0 1.69097
27 8.81167 0 0 0.260639 0 0
28 5.77884 0 0 0.174628 0 0
29 2.23249 0 0 0.0860107 0 0
30 11.4725 0 0 0.654895 -0.134922 -1.05156
31 0.615812 0.994372 -0.809165 3.11127 0.484951 0.165541
32 2.24752 0 0 -0.0875739 0.0269838 0.145449
33 1.11936 0 0 0.0458239 0.121351 0.787248
34 3.71349 0.102639 0.102192 -1.55999 0.560763 -0.0798625
35 1.72615 0 0 -0.0183462 -0.00833416 1.10093
36 1.21112 0 0 0.00523107 0.016388 0.966234
37 3.5992 1.06012 0.0708885 -1.52539 0.466982 0.153987
38 1.66069 0 0 -0.0136917 0.00536074 0.124831
39 1.16699 0 0 0.000179461 -0.0350142 0.627528
40 2.18853 -0.50104 0.0576591 -1.57665 0.0817365 -0.0988868
41 1.29609 0 0 -0.00682717 -0.0463338 0.335111
42 1.62202 -0.000713348 -0.000470161 -0.0196994 -0.030138 1.01219
43 1.22241 0 0 -0.0163005 0.00301313 1.15641
44 1.76707 -1.27612 0.0366408 -1.57637 0.00990134 -0.045213
45 1.55588 0 0 0.165179 -0.0187019 0.410253
46 1.24273 0 0 0.000478924 0.000360576 0.293189
47 0.784533 0 0 -0.00863344 0.0138317 0.725128
48 0 0 0 0 0 0
49 -5.93531 -19.5146 -9.80353 0 0 0
50 0 0.175507 4.39833 0 0 0
51 -0.243587 0.175507 5.00562 0 0 0
52 -8.98651 -15.2233 -5.2717 0 0 0
53 3.0512 -3.79301 -0.237801 0 0 0
54 0 -0.0303917 1.6467 0 0 0
55 0 -2.3184 2.62787 0 0 0
56 0 -2.34127 -0.129979 0 0 0
57 0 10.015 0.00570393 0 0 0
58 0 0.899643 -0.657643 0 0 0
59 0 -6.47112 1.19749 0 -0.000331642 0
60 0 -0.221874 -1.53505 0 0 0
61 0 0.174824 -0.766596 0 0 0
62 0 0 -0.605335 0 0 0
63 0 -0.0467033 -0.715623 0 0 0
64 0 -0.0772591 -1.03217 0 0 0
65 0 0.00226593 -1.16841 0 0 0
time 32
0 0.279744 0.964779 -10.5402 0.000934124 0 -1.04975
1 6.02794 0 0 -1.2985 0.492511 -0.743638
2 11.7344 0 0 -0.00140289 0 -0.975034
3 8.81139 -0.000450134 -0.00011158 -0.309884 0 0.000157687
4 5.77839 0.00028801 0 -0.207622 0 0.000104369
5 2.23163 -0.000329971 -0.000364065 -0.102262 0 0
6 11.4725 0 0 -0.297023 -0.160481 -0.0668279
7 0.615217 -0.993092 -0.810699 -3.03664 0.382047 -0.304473
8 2.24752 0 0 0.103119 0.00887007 0.0121145
9 1.11936 0 0 0.121355 0.237802 0.146889
10 3.71348 -0.10264 0.102191 1.57915 1.20938 0.0785635
11 1.72615 0 0 0.0195877 -0.0108151 -1.07669
12 1.21114 0 0 -0.0162592 0.00461495 -1.87649
13 3.59919 -1.06012 0.0708876 1.77143 1.02648 0.243927
14 1.66069 0 0 -0.0323896 0.0529044 -0.809571
15 1.167 0 0 -0.00928687 -0.010829 -1.98066
16 2.18852 0.501041 0.0576596 1.55583 0.110324 0.0402213
17 1.29609 0 0 -0.10981 0.104265 -0.980904
18 1.62202 0.000715256 -0.000471115 0.0249873 -0.018076 -1.3829
19 1.22241 0 0 0.00912819 -0.000704318 -1.70664
20 1.76707 1.27612 0.0366421 1.54714 0.313947 -0.0233512
21 1.55588 0 0 -0.240313 -0.0114097 -1.10728
22 1.24273 0 0 -0.000479259 0.000360477 -1.02071
23 0.784523 0 0 0.00888764 0.00536394 -1.65773
24 -2.78532 5.54605 -7.74054 -0.000932693 0 -2.00317
25 6.02794 0 0 0.639109 0.549073 -0.257651
26 11.7344 0 0 0.00140271 0 1.69091
27 8.81167 0 0 0.260674 0 0
28 5.77884 0 0 0.174651 0 0
29 2.23249 0 0 0.0860223 0 0
30 11.4725 0 0 0.654896 -0.134923 -1.05151
31 0.615814 0.994372 -0.809166 3.11127 0.484951 0.165541
32 2.24752 0 0 -0.0875738 0.0269838 0.145449
33 1.11936 0 0 0.0458239 0.121351 0.787248
34 3.71349 0.102639 0.10219 -1.55999 0.560763 -0.0798627
35 1.72615 0 0 -0.0183461 -0.00833415 1.10093
36 1.21112 0 0 0.00523106 0.0163881 0.966234
37 3.5992 1.06012 0.0708877 -1.52539 0.466982 0.153986
38 1.66069 0 0 -0.0136917 0.00536073 0.12483
39 1.16699 0 0 0.000179444 -0.0350142 0.627527
40 2.18853 -0.501041 0.057659 -1.57665 0.0817363 -0.0988869
41 1.29609 0 0 -0.00682718 -0.0463338 0.335111
42 1.62202 -0.000713348 -0.000469208 -0.0196994 -0.030138 1.01219
43 1.22241 0 0 -0.0163005 0.00301314 1.15641
44 1.76707 -1.27612 0.0366406 -1.57637 0.00990116 -0.0452131
45 1.55588 0 0 0.165179 -0.0187019 0.410253
46 1.24273 0 0 0.000478922 0.000360576 0.293189
47 0.784531 0 0 -0.00863344 0.0138317 0.725128
48 0 0 0 0 0 0
49 -5.93555 -19.5151 -9.80378 0 0 0
50 0 0.175507 4.39833 0 0 0
51 -0.243587 0.175507 5.00562 0 0 0
52 -8.98651 -15.2233 -5.2717 0 0 0
53 3.05095 -3.79351 -0.23805 0 0 0
54 0 -0.0303917 1.6467 0 0 0
55 0 -2.3184 2.62787 0 0 0
56 0 -2.34127 -0.129979 0 0 0
57 0 10.015 0.00570393 0 0 0
58 0 0.899643 -0.657643 0 0 0
59 0 -6.47112 1.19749 0 0 0
60 0 -0.221874 -1.53505 0 0 0
61 0 0.174824 -0.766596 0 0 0
62 0 0 -0.605335 0 0 0
63 0 -0.0467033 -0.715623 0 0 0
64 0 -0.0772591 -1.03217 0 0 0
65 0 0.00226593 -1.16841 0 0 0
end
